<?xml version="1.0" encoding="UTF-8" standalone="no"?>
<!-- Created with Inkscape (http://www.inkscape.org/) -->

<svg
   width="600mm"
   height="800mm"
   viewBox="0 0 600 800"
   version="1.1"
   id="svg848"
   inkscape:version="1.2.2 (732a01da63, 2022-12-09)"
   sodipodi:docname="Vietnam_road_sign_I433b.svg"
   xmlns:inkscape="http://www.inkscape.org/namespaces/inkscape"
   xmlns:sodipodi="http://sodipodi.sourceforge.net/DTD/sodipodi-0.dtd"
   xmlns="http://www.w3.org/2000/svg"
   xmlns:svg="http://www.w3.org/2000/svg"
   xmlns:rdf="http://www.w3.org/1999/02/22-rdf-syntax-ns#"
   xmlns:cc="http://creativecommons.org/ns#"
   xmlns:dc="http://purl.org/dc/elements/1.1/">
  <defs
     id="defs842" />
  <sodipodi:namedview
     id="base"
     pagecolor="#ffffff"
     bordercolor="#666666"
     borderopacity="1.0"
     inkscape:pageopacity="0.0"
     inkscape:pageshadow="2"
     inkscape:zoom="0.34995032"
     inkscape:cx="932.98957"
     inkscape:cy="2801.8263"
     inkscape:document-units="mm"
     inkscape:current-layer="text20622"
     showgrid="false"
     inkscape:snap-global="false"
     inkscape:window-width="1920"
     inkscape:window-height="991"
     inkscape:window-x="-9"
     inkscape:window-y="-9"
     inkscape:window-maximized="1"
     fit-margin-top="0"
     fit-margin-left="0"
     fit-margin-right="0"
     fit-margin-bottom="0"
     showguides="false"
     inkscape:measure-start="0,0"
     inkscape:measure-end="0,0"
     inkscape:showpageshadow="2"
     inkscape:pagecheckerboard="0"
     inkscape:deskcolor="#d1d1d1" />
  <metadata
     id="metadata845">
    <rdf:RDF>
      <cc:Work
         rdf:about="">
        <dc:format>image/svg+xml</dc:format>
        <dc:type
           rdf:resource="http://purl.org/dc/dcmitype/StillImage" />
        <dc:title />
      </cc:Work>
    </rdf:RDF>
  </metadata>
  <g
     inkscape:label="Layer 1"
     inkscape:groupmode="layer"
     id="layer1"
     transform="translate(-50,753)">
    <rect
       style="opacity:1;fill:#0046aa;fill-opacity:1;fill-rule:nonzero;stroke:none;stroke-width:2.93670321;stroke-linecap:butt;stroke-linejoin:miter;stroke-miterlimit:10;stroke-dasharray:none;stroke-opacity:1;paint-order:stroke fill markers"
       id="rect1393"
       width="600"
       height="800"
       x="50"
       y="-753" />
    <rect
       y="-748"
       x="55"
       height="790"
       width="590"
       id="rect1395"
       style="opacity:1;fill:#ffffff;fill-opacity:1;fill-rule:nonzero;stroke:none;stroke-width:2.89386988;stroke-linecap:butt;stroke-linejoin:miter;stroke-miterlimit:10;stroke-dasharray:none;stroke-opacity:1;paint-order:stroke fill markers" />
    <rect
       y="-738"
       x="65"
       height="770"
       width="570"
       id="rect1406"
       style="opacity:1;fill:#0046aa;fill-opacity:1;fill-rule:nonzero;stroke:none;stroke-width:2.80816269;stroke-linecap:butt;stroke-linejoin:miter;stroke-miterlimit:10;stroke-dasharray:none;stroke-opacity:1;paint-order:stroke fill markers" />
    <path
       cx="150"
       cy="147"
       r="150"
       id="path8376"
       style="opacity:1;fill:#d35f5f;fill-opacity:1;fill-rule:nonzero;stroke:none;stroke-width:3.92256045;stroke-linecap:butt;stroke-linejoin:miter;stroke-miterlimit:4;stroke-dasharray:none;stroke-opacity:1;paint-order:stroke fill markers"
       d=""
       inkscape:connector-curvature="0" />
    <rect
       style="opacity:1;fill:#ffffff;fill-opacity:1;fill-rule:nonzero;stroke:none;stroke-width:5.07322454;stroke-linecap:butt;stroke-linejoin:miter;stroke-miterlimit:4;stroke-dasharray:none;stroke-opacity:1;paint-order:stroke fill markers"
       id="rect828"
       width="500"
       height="500"
       x="100"
       y="-703" />
    <g
       transform="matrix(1.0004876,0,0,1.0004876,-290.77787,824.33304)"
       id="g924"
       style="font-style:normal;font-variant:normal;font-weight:bold;font-stretch:normal;font-size:159.07623291px;line-height:0;font-family:Giaothong2;-inkscape-font-specification:'Giaothong2 Bold';letter-spacing:0px;word-spacing:0px;fill:#000000;fill-opacity:1;stroke:none;stroke-width:0.82852203"
       aria-label="TRẠM">
      <g
         id="g922"
         style="font-style:normal;font-variant:normal;font-weight:bold;font-stretch:normal;font-size:161.34654236px;line-height:0;font-family:Giaothong2;-inkscape-font-specification:'Giaothong2 Bold';letter-spacing:3.35592604px;word-spacing:0px;fill:#000000;fill-opacity:1;stroke:none;stroke-width:0.69624561"
         aria-label="TRẠM" />
    </g>
    <g
       aria-label="TRẠM RỬA XE"
       style="font-style:normal;font-variant:normal;font-weight:bold;font-stretch:normal;font-size:83.53499603px;line-height:0;font-family:Giaothong2;-inkscape-font-specification:'Giaothong2 Bold';letter-spacing:0.2460625px;word-spacing:0px;fill:#000000;fill-opacity:1;stroke:none;stroke-width:0.43507808"
       id="text20622"
       transform="translate(-157.26042,569.34396)">
      <path
         sodipodi:nodetypes="ccccccccccccccccccccccccc"
         inkscape:connector-curvature="0"
         id="path6890"
         d="m 298.20359,-1008.257 v 19.7032 h 52.17844 v 10.42609 h -52.17844 v 19.70472 h 52.17844 v 29.65983 c -5.0398,11.20455 -11.05906,33.67516 -11.10256,43.94376 v 39.61643 c 0.015,14.52093 13.68396,36.51606 19.80821,36.48906 h 15.2214 c 6.12426,0 19.79322,-21.96813 19.80822,-36.48906 v -39.61643 c 0,-10.2686 -6.06276,-32.73921 -11.10256,-43.94376 v -29.66133 h 19.44373 v -19.70322 h -19.44373 v -10.42609 h 19.44373 v -28.6699 h -62.55353 c -2.77639,2.9204 -5.20179,9.0192 -17.93179,8.9667 z"
         style="opacity:1;fill:#000000;fill-opacity:1;fill-rule:nonzero;stroke:none;stroke-width:1.30319;stroke-linecap:butt;stroke-linejoin:miter;stroke-miterlimit:4;stroke-dasharray:none;stroke-opacity:1;paint-order:stroke fill markers" />
      <path
         id="rect1732-8"
         style="opacity:1;fill:#000000;fill-opacity:1;fill-rule:nonzero;stroke:none;stroke-width:9.78497;stroke-linecap:square;stroke-linejoin:round;stroke-miterlimit:4;stroke-dasharray:none;stroke-opacity:1;paint-order:stroke fill markers"
         d="m 597.17327,-1015.1687 c -4.51482,0 -8.14918,3.6343 -8.14918,8.1506 v 11.54507 h -7.4742 c -5.26779,0 -9.50812,4.24034 -9.50812,9.50813 v 4.34533 l -21.11917,12.4285 c -1.27495,0.94497 -2.86339,1.34995 -3.40037,3.32987 l -3.05687,10.45909 1.85092,0.55498 c -6.00726,19.95671 -15.94287,47.04864 -20.50119,71.35818 -1.16995,6.22625 -3.85484,13.55196 -1.73843,20.99317 1.00496,3.56536 2.5349,7.62869 4.83731,11.16555 2.30091,3.53686 5.50328,6.67324 9.87711,7.6392 4.80581,1.06496 9.62062,-0.40498 13.75746,-2.87238 4.13833,-2.46141 7.70369,-5.95777 10.22209,-9.56213 6.02226,-8.62465 4.52232,-19.11074 4.34383,-29.04935 -0.47998,-26.55945 -2.75539,-33.45617 -3.24587,-49.87753 -0.15,-4.02134 -0.94496,-8.83465 -1.30495,-12.93398 -0.17999,-2.04892 -0.22499,-3.90885 -0.14999,-5.2348 0.14999,-1.31995 0.55497,-1.92742 0.56997,-1.94692 l 0.015,-0.015 0.23999,-0.20999 0.37499,0.35998 4.07234,-1.72043 3.66735,1.36495 0.61498,1.62593 v 126.06102 h -45.5022 v 16.29836 h 190.16998 v -16.29836 h -45.5022 V -985.9514 c 0,-5.2678 -4.24033,-9.50963 -9.50813,-9.50963 h -7.4727 v -11.54507 c 0,-4.5148 -3.63436,-8.1491 -8.15068,-8.1491 z m 2.71789,29.88027 h 43.46679 v 14.94091 h -43.46679 z m -39.45894,19.35074 c 1.68444,-0.15 2.6534,1.67093 1.21496,3.13337 l -2.6474,3.32987 0.46498,0.43498 c -1.54644,1.42495 -2.02792,3.32087 -2.24391,5.2123 -0.22499,1.95442 -0.14999,4.07684 0,6.29075 0.37499,4.42932 1.18495,9.26513 1.28995,12.643 0.50998,16.85933 2.76439,23.54007 3.23537,49.81153 0.18,10.31359 1.18496,19.37623 -3.38386,25.92647 -2.07892,2.97739 -5.2168,6.03127 -8.58866,8.03819 -3.37337,2.00542 -6.87423,2.91888 -9.90711,2.24841 -2.5244,-0.55498 -4.71882,-2.4944 -6.57574,-5.34729 -1.85843,-2.85289 -3.26087,-6.49924 -4.17884,-9.72862 -1.50594,-5.29629 0.58498,-11.77753 1.85093,-18.56626 4.43382,-23.64207 14.28693,-50.5495 20.37819,-70.8182 l 2.16592,0.64497 1.34994,-5.0578 c 1.42495,-6.09126 3.82335,-8.08768 5.50779,-8.19717 z m 39.45894,1.70243 h 43.46679 v 26.49195 h -43.46679 z" />
      <path
         inkscape:connector-curvature="0"
         d="m 505.4219,-1149.1105 -9.24114,-15.5183 -12.28151,-20.4517 c -4.44432,1.2149 -9.24713,1.3949 -14.05894,0.315 -9.46163,-2.139 -19.00275,-12.0296 -23.90606,-26.7365 l -5.34129,-14.8194 c -6.31925,-18.7793 -4.09634,-23.4381 -3.59386,-25.658 1.04996,-4.6288 3.84585,-8.4117 7.54921,-10.7801 3.73785,-2.3189 8.72215,-3.1183 13.35997,-2.0684 2.22441,0.51 7.3977,0.495 21.66514,14.2765 l 11.09506,11.185 c 11.21056,10.7321 16.04937,23.5956 13.91495,33.0407 -1.07996,4.8028 -3.67035,9.3086 -6.68223,12.7885 l 13.53696,19.8787 9.41813,13.969 54.97583,80.7268 c 3.58035,5.6607 1.88992,13.1395 -3.77986,16.7228 -5.66827,3.5684 -13.17397,1.8719 -16.75433,-3.7888"
         style="opacity:1;fill:#000000;fill-opacity:1;fill-rule:nonzero;stroke:none;stroke-width:0.54575"
         id="path9177"
         sodipodi:nodetypes="cccsccscsccscccccc" />
      <path
         inkscape:connector-curvature="0"
         d="m 506.64135,-1148.374 -43.43528,82.1053 c -3.25787,5.6292 -10.46209,7.5612 -16.09737,4.3138 -5.64877,-3.2429 -7.5792,-10.4471 -4.30933,-16.0794 l 48.88607,-79.4998 9.02815,-14.6619 12.5065,-20.0887 c -6.53974,-6.6178 -9.13014,-15.6159 -5.90827,-21.1807 l 29.64783,-50.7685 c 0.62998,-1.05 1.67844,-1.8824 2.96688,-2.2289 2.6414,-0.705 5.35329,0.855 6.05977,3.4918 0.35998,1.35 -0.002,2.6339 -0.65998,3.7499 l -23.17858,40.0589 c -0.44998,0.855 -0.43499,1.8659 -0.165,2.8559 0.56998,2.1104 2.7329,3.3494 4.83431,2.7854 0.79497,-0.21 1.59744,-0.435 2.08942,-1.02 l 23.84906,-41.2168 c 0.62997,-1.035 1.75193,-1.9725 3.01488,-2.3114 2.5784,-0.69 5.23929,0.8399 5.92926,3.4168 0.34499,1.26 0.23999,2.7359 -0.34498,3.8024 l -23.81156,41.1523 c -0.25499,0.72 0,1.521 0.14999,2.3174 0.55498,2.097 2.7329,3.3494 4.83431,2.7854 1.00496,-0.2699 1.89743,-0.7499 2.41041,-1.5689 l 23.17708,-40.0709 c 0.64498,-1.125 1.57044,-2.0759 2.91139,-2.4344 2.64139,-0.705 5.35328,0.8549 6.05976,3.4903 0.34498,1.29 0.14999,2.5934 -0.44999,3.6779 l -29.22634,50.9995 c -3.21887,5.5648 -12.23352,7.8552 -21.24666,5.5153 l -11.03206,20.5342"
         style="opacity:1;fill:#000000;fill-opacity:1;fill-rule:nonzero;stroke:none;stroke-width:0.529934"
         id="path89118"
         sodipodi:nodetypes="cccccccccssccssccssccssccsscccc" />
      <g
         id="g112475"
         transform="translate(0.508775)">
        <path
           d="m 298.24489,-659.99554 q -0.4955,0 -0.4955,-0.49528 v -50.70365 h -15.73135 q -0.49549,0 -0.49549,-0.49528 v -7.96888 q 0,-0.49528 0.49549,-0.49528 h 41.37222 q 0.49549,0 0.49549,0.49528 v 7.96888 q 0,0.49528 -0.49549,0.49528 H 307.7002 v 50.70365 q 0,0.49528 -0.49549,0.49528 z"
           id="path91816"
           style="font-size:15.9807px;font-family:Giaothong2;-inkscape-font-specification:Giaothong2;letter-spacing:0.1275px;fill:#ffffff;stroke-width:16.0009;paint-order:stroke fill markers" />
        <path
           d="m 340.5395,-711.19468 v 16.97002 h 13.08882 q 4.7896,0 7.1844,-2.64255 2.3948,-2.6425 2.3948,-6.27599 0,-2.06451 -0.74322,-3.67481 -0.70192,-1.61029 -2.06447,-2.6425 -1.19741,-0.82584 -2.8077,-1.28 -1.56901,-0.45401 -3.42704,-0.45401 z m -9.45532,51.19914 q -0.49549,0 -0.49549,-0.49528 v -59.16802 q 0,-0.49528 0.49549,-0.49528 h 23.16349 q 3.83993,0 6.93666,1.07353 3.09672,1.03226 5.40894,2.97285 1.1974,1.1148 2.27093,2.55995 1.11482,1.40388 1.94062,3.05545 0.86707,1.65157 1.36255,3.50961 0.49549,1.85804 0.49549,3.83996 0,2.93152 -0.82579,5.57407 -0.82579,2.60128 -2.31222,4.87216 -1.52771,2.10579 -3.55091,3.71609 -2.02319,1.56902 -4.58315,2.51868 3.34446,6.39991 6.73021,12.88237 3.38575,6.44119 6.73021,12.8411 0.12388,0.28891 0,0.53676 -0.12387,0.20637 -0.41289,0.20637 h -10.65274 q -0.12388,0 -0.24775,-0.0825 -0.12387,-0.12382 -0.20647,-0.20636 l -12.09787,-24.98023 h -10.69402 v 24.77375 q 0,0.49528 -0.49549,0.49528 z"
           id="path91818"
           style="font-size:15.9807px;font-family:Giaothong2;-inkscape-font-specification:Giaothong2;letter-spacing:0.1275px;fill:#ffffff;stroke-width:16.0009;paint-order:stroke fill markers" />
        <path
           d="m 377.50777,-660.03681 q -0.28902,0 -0.41289,-0.20637 -0.12388,-0.20637 -0.0413,-0.45401 l 21.63578,-59.20934 q 0.0826,-0.33019 0.41289,-0.33019 h 7.39085 q 0.12387,0 0.24774,0.12382 0.16515,0.0825 0.20642,0.20637 l 21.59449,59.20934 q 0.0826,0.24764 -0.0413,0.45401 -0.12388,0.20637 -0.37162,0.20637 h -9.45533 q -0.3303,0 -0.4129,-0.33019 l -4.45928,-13.04752 h -21.80093 q -1.15611,3.34447 -2.31222,6.56506 -1.11482,3.17932 -2.27093,6.48246 -0.0413,0.12382 -0.20642,0.24764 -0.12388,0.0826 -0.24775,0.0826 z m 33.32074,-22.25513 q -0.0826,-0.28892 -0.24775,-0.61937 -0.12387,-0.33018 -0.20647,-0.57804 -0.70192,-2.02319 -1.27998,-3.71608 -0.57805,-1.73417 -1.03224,-3.01412 -0.28902,-0.82579 -0.57805,-1.6103 -0.24775,-0.78451 -0.49549,-1.48642 -0.20642,-0.66064 -0.4129,-1.23868 -0.20642,-0.61936 -0.41289,-1.1974 -0.37162,-1.19741 -0.7845,-2.39481 -0.37162,-1.1974 -0.7845,-2.47741 -0.20647,-0.57804 -0.45417,-1.27995 -0.20647,-0.70191 -0.45416,-1.48642 -0.12388,-0.41273 -0.20642,-0.61937 -0.0413,-0.24764 -0.12387,-0.454 -0.0826,-0.24764 -0.20648,-0.53677 -0.0826,-0.28891 -0.24774,-0.82578 -0.45417,1.36255 -0.86708,2.51862 -0.37162,1.15613 -0.70193,2.14707 -0.0826,0.24764 -0.12387,0.454 -0.0413,0.20637 -0.12387,0.41274 -0.20647,0.70191 -0.45417,1.32127 -0.20642,0.61932 -0.41289,1.23868 -0.20647,0.66064 -0.41289,1.27995 -0.20647,0.61937 -0.41289,1.19741 -0.4129,1.23873 -0.86709,2.60128 -0.41289,1.36255 -0.94966,2.84897 -0.53676,1.48642 -1.11482,3.22059 -0.57805,1.6929 -1.48643,4.29413 z m -12.01529,38.56451 q -0.45416,0 -0.45416,-0.45401 v -7.96888 q 0,-0.45401 0.45416,-0.45401 h 8.0102 q 0.41289,0 0.41289,0.45401 v 7.96888 q 0,0.45401 -0.41289,0.45401 z"
           id="path91820"
           style="font-size:15.9807px;font-family:Giaothong2;-inkscape-font-specification:Giaothong2;letter-spacing:0.1275px;fill:#ffffff;stroke-width:16.0009;paint-order:stroke fill markers" />
        <path
           d="m 436.73114,-659.99554 q -0.49549,0 -0.49549,-0.49528 v -59.16802 q 0,-0.49528 0.49549,-0.49528 h 8.46438 q 0.28902,0 0.45417,0.28891 l 16.55715,37.53231 q 4.00511,-9.45536 8.05148,-18.74552 4.04638,-9.33148 8.09276,-18.78679 0.12382,-0.28891 0.45401,-0.28891 h 8.46437 q 0.49528,0 0.49528,0.49528 v 59.16802 q 0,0.49528 -0.49528,0.49528 h -8.95987 q -0.49528,0 -0.49528,-0.49528 v -34.93103 q -2.89024,6.73021 -5.82182,13.37786 -2.93157,6.64761 -5.78054,13.33654 -0.1651,0.24764 -0.45401,0.24764 h -7.47344 q -0.28892,0 -0.45401,-0.24764 l -11.64372,-26.79694 v 35.01357 q 0,0.49528 -0.49549,0.49528 z"
           id="path91822"
           style="font-size:15.9807px;font-family:Giaothong2;-inkscape-font-specification:Giaothong2;letter-spacing:0.1275px;fill:#ffffff;stroke-width:16.0009;paint-order:stroke fill markers" />
        <path
           d="m 522.39394,-659.99554 q -0.49528,0 -0.49528,-0.49528 v -59.16802 q 0,-0.49528 0.49528,-0.49528 h 20.72738 q 12.38688,0 18.41517,10.19854 1.11481,1.98192 1.81677,3.75736 0.70191,1.77544 0.94966,3.46834 0.49528,3.30314 0.49528,12.6759 0,10.0334 -0.70191,13.46041 -0.33019,1.73417 -0.99093,3.38579 -0.66064,1.6103 -1.73417,3.22059 v -0.0423 q -2.68383,4.25285 -7.43212,7.14315 -4.83089,2.89025 -11.39595,2.89025 z m 9.45531,-50.66237 v 41.24834 h 10.28114 q 7.10177,0 10.57011,-4.95476 1.36255,-2.18834 1.73417,-4.58315 0.20637,-1.32127 0.28891,-3.96383 0.12382,-2.68383 0.12382,-6.81275 0,-4.0051 -0.12382,-6.68893 -0.12382,-2.68383 -0.33018,-4.25285 -0.41274,-2.89025 -2.10579,-5.24378 -3.50961,-4.74829 -10.15722,-4.74829 z"
           id="path91824"
           style="font-size:15.9807px;font-family:Giaothong2;-inkscape-font-specification:Giaothong2;letter-spacing:0.1275px;fill:#ffffff;stroke-width:16.0009;paint-order:stroke fill markers" />
        <path
           d="m 622.12241,-727.79313 q 0.24764,0.20636 0.49528,0.45401 2.7251,2.84902 2.8077,7.43216 0.16509,5.57408 -4.99603,9.08369 -2.14707,0.99098 -4.66575,1.44515 v 28.86146 q 0,9.49663 -6.31731,15.27718 -6.23477,5.73927 -15.19458,5.73927 -9.00114,0 -15.27718,-5.73927 -6.27604,-5.78055 -6.27604,-15.27718 v -39.14255 q 0,-0.49528 0.49529,-0.49528 h 9.00113 q 0.45401,0 0.45401,0.49528 v 38.15162 q 0,5.94569 3.30319,9.00114 3.34447,3.09672 8.29923,3.09672 4.87216,0 8.21663,-3.09672 3.34447,-3.09672 3.34447,-9.00114 v -38.15162 q 0,-0.49528 0.49528,-0.49528 h 8.95986 q 0.49528,0 0.49528,0.49528 v 4.91344 q 3.75736,-1.6103 3.83991,-4.99604 -0.0423,-2.7251 -1.6103,-3.9225 z m -24.07185,2.31221 q -0.0825,0 -0.20636,-0.0423 -0.12382,-0.0825 -0.1651,-0.12382 l -11.39594,-12.05658 q -0.24764,-0.24764 -0.12382,-0.53677 0.16509,-0.28891 0.49528,-0.28891 h 9.08374 q 0.24764,0 0.41273,0.24764 l 8.62952,12.05659 q 0.12382,0.28891 0,0.53676 -0.0825,0.20637 -0.41273,0.20637 z"
           id="path91826"
           style="font-size:15.9807px;font-family:Giaothong2;-inkscape-font-specification:Giaothong2;letter-spacing:0.1275px;fill:#ffffff;stroke-width:16.0009;paint-order:stroke fill markers" />
        <path
           d="m 632.78919,-659.99554 q -0.49528,0 -0.49528,-0.49528 v -59.16802 q 0,-0.49528 0.49528,-0.49528 h 8.5057 q 0.24764,0 0.41274,0.24764 l 26.01243,40.95932 v -40.71157 q 0,-0.49528 0.49528,-0.49528 h 9.00114 q 0.49528,0 0.49528,0.49528 v 59.16802 q 0,0.49528 -0.49528,0.49528 h -8.46437 q -0.24764,0 -0.41274,-0.24764 l -26.09503,-40.95932 v 40.71157 q 0,0.49528 -0.45401,0.49528 z"
           id="path91828"
           style="font-size:15.9807px;font-family:Giaothong2;-inkscape-font-specification:Giaothong2;letter-spacing:0.1275px;fill:#ffffff;stroke-width:16.0009;paint-order:stroke fill markers" />
        <path
           d="m 710.46906,-684.06739 q -0.49528,0 -0.49528,-0.49528 v -8.50564 q 0,-0.45401 0.49528,-0.45401 h 21.0164 q 0.49528,0 0.49528,0.45401 v 12.05653 q 0,9.12501 -6.27604,15.27718 -6.35859,6.23476 -15.31845,6.23476 -7.1431,0 -12.01531,-3.42706 -4.78957,-3.38574 -6.93663,-7.43212 h 0.0423 q -0.78451,-1.40387 -1.32127,-2.8077 -0.53677,-1.44515 -0.82579,-3.01417 -0.24764,-1.56897 -0.41273,-4.99604 -0.12382,-3.46834 -0.12382,-8.87726 0,-5.40893 0.12382,-8.836 0.16509,-3.42701 0.41273,-4.99603 0.28891,-1.56902 0.82579,-3.01412 0.53676,-1.44515 1.32127,-2.84903 h -0.0423 q 2.14706,-4.00505 6.93663,-7.43211 4.83088,-3.46834 12.01531,-3.46834 8.58824,0 14.20365,5.2851 5.69794,5.28506 7.06049,12.63463 0.0825,0.24764 -0.0825,0.41273 -0.1651,0.1651 -0.41274,0.1651 h -9.45536 q -0.37146,0 -0.454,-0.33019 -0.53677,-1.65162 -1.52775,-3.05545 -0.99093,-1.44515 -2.43608,-2.68382 -2.7251,-2.43609 -6.89535,-2.43609 -3.09672,0 -5.28506,1.23868 -2.18839,1.23868 -3.50966,2.84898 -0.78446,0.99093 -1.36255,2.27093 -0.57804,1.23868 -0.90839,2.55995 -0.33019,1.40388 -0.45401,4.3354 -0.12382,2.93157 -0.12382,7.34957 0,4.5006 0.12382,7.43212 0.12382,2.8903 0.45401,4.29412 0.33019,1.28 0.90839,2.56001 0.61936,1.23868 1.36255,2.18833 1.32127,1.73417 3.50966,2.97285 2.18834,1.1974 5.28506,1.1974 4.91348,0 8.2579,-3.34446 3.38579,-3.34447 3.38579,-8.7534 v -2.55995 z"
           id="path91830"
           style="font-size:15.9807px;font-family:Giaothong2;-inkscape-font-specification:Giaothong2;letter-spacing:0.1275px;fill:#ffffff;stroke-width:16.0009;paint-order:stroke fill markers" />
        <path
           d="m 418.21535,-566.86647 q -0.49498,0 -0.49498,-0.49498 v -59.16816 q 0,-0.49498 0.49498,-0.49498 h 8.50616 q 0.25499,0 0.41998,0.23999 l 26.01348,40.95888 v -40.71139 q 0,-0.49498 0.49498,-0.49498 h 9.00114 q 0.49498,0 0.49498,0.49498 v 59.16816 q 0,0.49498 -0.49498,0.49498 h -8.46417 q -0.23999,0 -0.40498,-0.23999 l -26.09597,-40.95888 v 40.71139 q 0,0.49498 -0.44998,0.49498 z"
           id="path91807"
           style="font-size:15.9807px;font-family:Giaothong2;-inkscape-font-specification:Giaothong2;letter-spacing:-0.06px;opacity:1;fill:#ffffff;stroke-width:16.0009;paint-order:stroke fill markers" />
        <path
           d="m 494.90431,-590.93902 q -0.49498,0 -0.49498,-0.49498 v -8.50466 q 0,-0.44999 0.49498,-0.44999 h 21.01567 q 0.49498,0 0.49498,0.44999 v 12.05652 q 0,9.12414 -6.27575,15.2769 -6.35825,6.23525 -15.31889,6.23525 -7.14272,0 -12.01453,-3.42736 -4.78931,-3.38537 -6.93722,-7.43221 v 0 q -0.77997,-1.40995 -1.31995,-2.80789 -0.53998,-1.43994 -0.82497,-3.01488 -0.23999,-1.56894 -0.41998,-4.9948 -0.15,-3.46937 -0.15,-8.87815 0,-5.40879 0.15,-8.83615 0.16499,-3.42587 0.41998,-4.99631 0.28499,-1.56893 0.82497,-3.01338 0.53998,-1.43994 1.31995,-2.84838 v 0 q 2.14791,-4.00635 6.93722,-7.43221 4.83131,-3.46936 12.01453,-3.46936 8.58866,0 14.20444,5.28579 5.69827,5.28429 7.06022,12.634 0.14999,0.23999 -0.15,0.40498 -0.16499,0.165 -0.41998,0.165 h -9.45563 q -0.37498,0 -0.44998,-0.32999 -0.53998,-1.65144 -1.52694,-3.05538 -0.98996,-1.43994 -2.4359,-2.68339 -2.72539,-2.43591 -6.89523,-2.43591 -3.09738,0 -5.28579,1.24495 -2.18841,1.24495 -3.50986,2.84839 -0.77997,0.98996 -1.36495,2.27091 -0.58497,1.24495 -0.91496,2.5604 -0.32999,1.40994 -0.44998,4.33483 -0.15,2.93238 -0.15,7.34971 0,4.50132 0.15,7.4322 0.14999,2.89039 0.44998,4.29433 0.32999,1.27495 0.91496,2.5604 0.61498,1.24495 1.36495,2.18842 1.31995,1.73393 3.50986,2.97288 2.18841,1.19995 5.28579,1.19995 4.91231,0 8.25717,-3.34487 3.38537,-3.34486 3.38537,-8.75365 v -2.5604 z"
           id="path91809"
           style="font-size:15.9807px;font-family:Giaothong2;-inkscape-font-specification:Giaothong2;letter-spacing:-0.06px;opacity:1;fill:#ffffff;stroke-width:16.0009;paint-order:stroke fill markers" />
        <path
           d="m 559.41076,-566.86647 q -0.49498,0 -0.49498,-0.49498 v -25.352 h -22.50361 v 25.352 q 0,0.49498 -0.49498,0.49498 h -8.95914 q -0.49498,0 -0.49498,-0.49498 v -59.16816 q 0,-0.49498 0.49498,-0.49498 h 8.95914 q 0.49498,0 0.49498,0.49498 v 24.85702 h 22.50361 v -24.85702 q 0,-0.49498 0.49498,-0.49498 h 8.96065 q 0.49498,0 0.49498,0.49498 v 59.16816 q 0,0.49498 -0.49498,0.49498 z"
           id="path91811"
           style="font-size:15.9807px;font-family:Giaothong2;-inkscape-font-specification:Giaothong2;letter-spacing:-0.06px;opacity:1;fill:#ffffff;stroke-width:16.0009;paint-order:stroke fill markers" />
        <path
           d="m 581.3489,-566.86647 q -0.49498,0 -0.49498,-0.49498 v -59.16816 q 0,-0.49498 0.49498,-0.49498 h 8.95914 q 0.49498,0 0.49498,0.49498 v 59.16816 q 0,0.49498 -0.49498,0.49498 z m 4.00484,-65.48591 q -1.69343,0 -2.72539,0 v -1.89893 q 0.44998,-2.60089 3.22037,-4.25233 4.33633,-1.81793 3.96434,-4.29433 -0.56997,-2.5184 -3.88184,-2.5604 -4.37683,0.15 -4.62432,4.25233 h -6.15126 q 0,-2.3114 0.82497,-3.83984 0.86997,-1.52694 2.31291,-2.97289 2.84839,-2.72389 7.4322,-2.80789 4.82981,0.15 7.92719,2.7254 1.40995,1.40994 2.18841,2.72539 0.77997,1.31995 0.82497,3.34487 -0.23999,2.84838 -3.17837,4.9963 -2.4779,1.19995 -3.79935,1.89892 l -0.49498,0.53998 -0.53998,0.82497 -0.15,1.31995 q -1.48494,0 -3.22037,0 z"
           id="path91813"
           style="font-size:15.9807px;font-family:Giaothong2;-inkscape-font-specification:Giaothong2;letter-spacing:-0.06px;opacity:1;fill:#ffffff;stroke-width:16.0009;paint-order:stroke fill markers" />
      </g>
    </g>
  </g>
</svg>
