<?xml version="1.0" encoding="UTF-8" standalone="no"?>
<svg
   xmlns:dc="http://purl.org/dc/elements/1.1/"
   xmlns:cc="http://creativecommons.org/ns#"
   xmlns:rdf="http://www.w3.org/1999/02/22-rdf-syntax-ns#"
   xmlns:svg="http://www.w3.org/2000/svg"
   xmlns="http://www.w3.org/2000/svg"
   xmlns:sodipodi="http://sodipodi.sourceforge.net/DTD/sodipodi-0.dtd"
   xmlns:inkscape="http://www.inkscape.org/namespaces/inkscape"
   sodipodi:docname="Vietnam_road_sign_I445h.svg"
   inkscape:version="1.0 (4035a4fb49, 2020-05-01)"
   id="svg848"
   version="1.1"
   viewBox="0 0 2247.6076 500.00082"
   height="500.00082mm"
   width="2247.6077mm">
  <defs
     id="defs842" />
  <sodipodi:namedview
     inkscape:document-rotation="0"
     inkscape:measure-end="0,0"
     inkscape:measure-start="0,0"
     showguides="true"
     fit-margin-bottom="0"
     fit-margin-right="0"
     fit-margin-left="0"
     fit-margin-top="0"
     inkscape:window-maximized="1"
     inkscape:window-y="-9"
     inkscape:window-x="-9"
     inkscape:window-height="1001"
     inkscape:window-width="1920"
     inkscape:snap-global="false"
     showgrid="false"
     inkscape:current-layer="text2903"
     inkscape:document-units="mm"
     inkscape:cy="1461.4887"
     inkscape:cx="2320.1498"
     inkscape:zoom="0.26043762"
     inkscape:pageshadow="2"
     inkscape:pageopacity="0.0"
     borderopacity="1.0"
     bordercolor="#666666"
     pagecolor="#ffffff"
     id="base" />
  <metadata
     id="metadata845">
    <rdf:RDF>
      <cc:Work
         rdf:about="">
        <dc:format>image/svg+xml</dc:format>
        <dc:type
           rdf:resource="http://purl.org/dc/dcmitype/StillImage" />
        <dc:title />
      </cc:Work>
    </rdf:RDF>
  </metadata>
  <g
     transform="translate(-524.32681,11.948699)"
     id="layer1"
     inkscape:groupmode="layer"
     inkscape:label="Layer 1">
    <path
       inkscape:connector-curvature="0"
       d=""
       style="opacity:1;fill:#d35f5f;fill-opacity:1;fill-rule:nonzero;stroke:none;stroke-width:3.92256;stroke-linecap:butt;stroke-linejoin:miter;stroke-miterlimit:4;stroke-dasharray:none;stroke-opacity:1;paint-order:stroke fill markers"
       id="path8376"
       r="150"
       cy="147"
       cx="150" />
    <g
       inkscape:groupmode="layer"
       transform="translate(-4496.0426,2396.6803)"
       id="text3577"
       style="font-style:normal;font-variant:normal;font-weight:bold;font-stretch:normal;font-size:299.854px;line-height:0;font-family:Giaothong1;-inkscape-font-specification:'Giaothong1 Bold';letter-spacing:0px;word-spacing:0px;fill:#ffcc00;fill-opacity:1;stroke:none;stroke-width:1.56174"
       aria-label="VỊNH">
      <g
         id="text3665"
         style="font-style:normal;font-variant:normal;font-weight:bold;font-stretch:normal;font-size:299.854px;line-height:0;font-family:Giaothong1;-inkscape-font-specification:'Giaothong1 Bold';letter-spacing:-2.78077px;word-spacing:0px;fill:#ffcc00;fill-opacity:1;stroke:none;stroke-width:2.43903"
         aria-label="VỊNH" />
    </g>
    <g
       inkscape:groupmode="layer"
       id="text2719"
       style="font-style:normal;font-variant:normal;font-weight:bold;font-stretch:normal;font-size:184.173px;line-height:0;font-family:Giaothong1;-inkscape-font-specification:'Giaothong1 Bold';letter-spacing:0px;word-spacing:0.486833px;fill:#ffffff;fill-opacity:1;stroke:none;stroke-width:0.959232"
       aria-label="CÔNG TRƯỜNG">
      <g
         inkscape:groupmode="layer"
         id="text2888"
         style="font-style:normal;font-variant:normal;font-weight:bold;font-stretch:normal;font-size:187.408px;line-height:0;font-family:Giaothong1;-inkscape-font-specification:'Giaothong1 Bold';letter-spacing:0.00264583px;word-spacing:0px;fill:#ffffff;fill-opacity:1;stroke:none;stroke-width:0.936293"
         aria-label="AHEAD">
        <g
           inkscape:groupmode="layer"
           id="text2903"
           style="font-style:normal;font-variant:normal;font-weight:bold;font-stretch:normal;font-size:184.173px;line-height:0;font-family:Giaothong1;-inkscape-font-specification:'Giaothong1 Bold';letter-spacing:0.00529167px;word-spacing:0px;fill:#ffffff;fill-opacity:1;stroke:none;stroke-width:0.898123"
           aria-label="WORKS">
          <path
             d="m 708.33916,-11.947699 2063.59454,-1.87e-4 V 488.05211 H 708.33916 L 530.52646,238.0523 Z"
             style="opacity:1;fill:#0046aa;fill-opacity:1;fill-rule:nonzero;stroke:none;stroke-width:1.27163;stroke-linecap:butt;stroke-linejoin:miter;stroke-miterlimit:10;stroke-dasharray:none;stroke-opacity:1;paint-order:stroke fill markers"
             id="rect1393"
             sodipodi:nodetypes="cccccc" />
          <path
             id="rect1395"
             style="opacity:1;fill:#ffffff;fill-opacity:1;fill-rule:nonzero;stroke:none;stroke-width:1.22924;stroke-linecap:butt;stroke-linejoin:miter;stroke-miterlimit:10;stroke-dasharray:none;stroke-opacity:1;paint-order:stroke fill markers"
             d="M 710.47731,-3.6148361 540.46021,238.0523 710.47731,479.72219 H 2763.5959 V -3.6148361 Z m 8.3265,8.33846 h 68.59 V 471.38374 h -68.59 L 554.2984,238.0523 Z m 547.16509,0 H 2755.2693 V 471.38374 H 1265.9689 Z"
             sodipodi:nodetypes="ccccccccccccccccc" />
          <g
             aria-label="TRẠM SỬA CHỮA Ô TÔ"
             transform="matrix(0.91696825,0,0,1.0905503,-46.56669,0)"
             id="text3227"
             style="font-size:153.961px;line-height:1.3;font-family:'Singapore Road Signs';-inkscape-font-specification:'Singapore Road Signs';text-align:center;letter-spacing:0px;text-anchor:middle;opacity:1;stroke-width:0.264584">
            <path
               d="m 1559.9748,217.26458 q -0.9021,0 -0.9021,-0.90211 v -92.31646 h -28.6421 q -0.9022,0 -0.9022,-0.90211 v -14.50902 q 0,-0.90212 0.9022,-0.90212 h 75.3266 q 0.9021,0 0.9021,0.90212 v 14.50902 q 0,0.90211 -0.9021,0.90211 h -28.567 v 92.31646 q 0,0.90211 -0.9021,0.90211 z"
               style="font-style:normal;font-variant:normal;font-weight:normal;font-stretch:normal;font-family:Giaothong2;-inkscape-font-specification:Giaothong2;text-align:start;text-anchor:start;stroke-width:0.264584"
               id="path4519" />
            <path
               d="m 1635.9029,124.04601 v 30.89745 h 23.8308 q 8.7205,0 13.0807,-4.81128 4.3602,-4.81129 4.3602,-11.4268 0,-3.75881 -1.3531,-6.69069 -1.278,-2.93187 -3.7589,-4.81128 -2.1801,-1.50352 -5.1119,-2.33046 -2.8567,-0.82694 -6.2397,-0.82694 z m -17.2154,93.21857 q -0.9021,0 -0.9021,-0.90211 V 108.63488 q 0,-0.90212 0.9021,-0.90212 h 42.1739 q 6.9914,0 12.6296,1.95458 5.6382,1.87941 9.8481,5.41269 2.1801,2.02976 4.1347,4.66093 2.0297,2.556 3.5333,5.56305 1.5787,3.00705 2.4808,6.38998 0.9021,3.38293 0.9021,6.99139 0,5.33752 -1.5035,10.1488 -1.5036,4.7361 -4.2099,8.8708 -2.7815,3.83399 -6.4652,6.76586 -3.6836,2.8567 -8.3445,4.58576 6.0893,11.65232 12.2537,23.45499 6.1645,11.7275 12.2537,23.37982 0.2256,0.52623 0,0.97729 -0.2255,0.37588 -0.7517,0.37588 h -19.3955 q -0.2255,0 -0.4511,-0.15035 -0.2255,-0.22553 -0.3758,-0.37588 l -22.0267,-45.48164 h -19.4706 v 45.10576 q 0,0.90211 -0.9022,0.90211 z"
               style="font-style:normal;font-variant:normal;font-weight:normal;font-stretch:normal;font-family:Giaothong2;-inkscape-font-specification:Giaothong2;text-align:start;text-anchor:start;stroke-width:0.264584"
               id="path4521" />
            <path
               d="m 1701.9076,217.18941 q -0.5262,0 -0.7517,-0.37588 -0.2256,-0.37589 -0.075,-0.82694 l 39.3924,-107.80277 q 0.1503,-0.60141 0.7517,-0.60141 h 13.4566 q 0.2255,0 0.451,0.22553 0.3007,0.15035 0.3759,0.37588 l 39.3172,107.80277 q 0.1504,0.45105 -0.075,0.82694 -0.2255,0.37588 -0.6766,0.37588 h -17.2153 q -0.6014,0 -0.7518,-0.60141 l -8.119,-23.7557 h -39.6931 q -2.1049,6.08927 -4.2099,11.95302 -2.0297,5.78858 -4.1347,11.80268 -0.075,0.22553 -0.3758,0.45105 -0.2256,0.15036 -0.4511,0.15036 z m 60.6673,-40.52001 q -0.1504,-0.52624 -0.4511,-1.12765 -0.2255,-0.60141 -0.3759,-1.05246 -1.278,-3.68364 -2.3304,-6.76587 -1.0525,-3.1574 -1.8794,-5.48787 -0.5263,-1.50352 -1.0525,-2.93187 -0.4511,-1.42835 -0.9021,-2.70635 -0.3759,-1.20282 -0.7518,-2.25528 -0.3759,-1.12765 -0.7517,-2.18012 -0.6766,-2.18011 -1.4284,-4.36022 -0.6766,-2.18011 -1.4283,-4.51057 -0.3759,-1.05247 -0.827,-2.33047 -0.3759,-1.278 -0.8269,-2.70634 -0.2255,-0.75177 -0.3759,-1.12765 -0.075,-0.45106 -0.2255,-0.82694 -0.1504,-0.45106 -0.3759,-0.97729 -0.1504,-0.52623 -0.4511,-1.50352 -0.8269,2.48081 -1.5787,4.58575 -0.6765,2.10493 -1.278,3.90916 -0.1503,0.45106 -0.2255,0.82694 -0.075,0.37588 -0.2255,0.75177 -0.3759,1.27799 -0.827,2.40564 -0.3758,1.12764 -0.7517,2.25528 -0.3759,1.20282 -0.7518,2.33047 -0.3759,1.12764 -0.7517,2.18011 -0.7518,2.25529 -1.5787,4.7361 -0.7518,2.48082 -1.7291,5.18717 -0.9773,2.70634 -2.0298,5.86375 -1.0524,3.08222 -2.7063,7.81833 z m -21.8763,70.21463 q -0.8269,0 -0.8269,-0.82694 v -14.50902 q 0,-0.82693 0.8269,-0.82693 h 14.5842 q 0.7517,0 0.7517,0.82693 v 14.50902 q 0,0.82694 -0.7517,0.82694 z"
               style="font-style:normal;font-variant:normal;font-weight:normal;font-stretch:normal;font-family:Giaothong2;-inkscape-font-specification:Giaothong2;text-align:start;text-anchor:start;stroke-width:0.264584"
               id="path4523" />
            <path
               d="m 1808.5076,217.26458 q -0.9021,0 -0.9021,-0.90211 V 108.63488 q 0,-0.90212 0.9021,-0.90212 h 15.4111 q 0.5263,0 0.827,0.52623 l 30.1457,68.33523 q 7.292,-17.21536 14.6593,-34.13002 7.3673,-16.98984 14.7346,-34.20521 0.2255,-0.52623 0.8269,-0.52623 h 15.4111 q 0.9022,0 0.9022,0.90212 v 107.72759 q 0,0.90211 -0.9022,0.90211 h -16.3132 q -0.9021,0 -0.9021,-0.90211 v -63.59913 q -5.2624,12.25374 -10.5999,24.35712 -5.3375,12.10338 -10.5247,24.28193 -0.3007,0.45106 -0.8269,0.45106 h -13.6069 q -0.5262,0 -0.8269,-0.45106 l -21.1997,-48.7894 v 63.74948 q 0,0.90211 -0.9022,0.90211 z"
               style="font-style:normal;font-variant:normal;font-weight:normal;font-stretch:normal;font-family:Giaothong2;-inkscape-font-specification:Giaothong2;text-align:start;text-anchor:start;stroke-width:0.264584"
               id="path4525" />
            <path
               d="m 1962.7693,189.59972 q 0.2255,-0.30071 0.6014,-0.30071 0.3759,0 0.6766,0.22553 5.9389,4.81128 13.6069,7.74316 7.7431,2.85669 16.3132,2.85669 9.6226,0 15.1856,-3.98434 5.2624,-3.83399 5.2624,-10.14879 0,-11.87785 -13.3062,-13.68209 h 0.075 q -1.8795,-0.22552 -3.6085,-0.45105 -1.6539,-0.22553 -3.3829,-0.45106 -1.6539,-0.22553 -3.4581,-0.45106 -1.7291,-0.3007 -3.834,-0.60141 -7.0666,-0.97729 -12.6297,-3.53328 -5.4878,-2.63117 -9.2466,-6.91622 -3.7588,-4.36022 -5.6383,-9.47221 -1.8794,-5.18716 -1.8794,-11.27644 0,-14.28349 9.4723,-23.22947 9.5473,-9.09633 26.5372,-9.09633 5.0368,0 9.7729,0.90212 4.8113,0.82694 9.2467,2.33046 4.5105,1.50353 8.5701,3.60847 4.1347,2.02975 7.8935,4.51057 0.7517,0.52624 0.2255,1.278 l -9.0963,13.45655 q -0.5263,0.67659 -1.2028,0.22553 -5.8638,-3.68364 -12.4793,-5.86375 -6.6155,-2.25529 -13.6821,-2.25529 -3.6084,0 -6.6907,0.90212 -3.0822,0.82694 -5.563,2.78152 -4.8865,3.53328 -4.8865,10.75021 0,4.13469 3.3078,8.04386 1.6539,1.80423 4.4354,3.08222 2.7815,1.20282 6.841,1.80423 2.1801,0.37588 5.112,0.82694 2.9319,0.37588 6.9162,0.82694 15.4112,1.87941 22.8536,11.35162 7.4425,9.24668 7.4425,20.5983 0,15.1856 -10.5999,23.7557 -10.675,8.41974 -28.1159,8.41974 -24.5827,0 -41.798,-15.03525 -0.3007,-0.22553 -0.3007,-0.60142 0,-0.37588 0.2255,-0.67658 z"
               style="font-style:normal;font-variant:normal;font-weight:normal;font-stretch:normal;font-family:Giaothong2;-inkscape-font-specification:Giaothong2;text-align:start;text-anchor:start;stroke-width:0.264584"
               id="path4527" />
            <path
               d="m 2133.8705,93.82515 q 0.451,0.375882 0.9021,0.826939 4.9616,5.187163 5.112,13.531731 0.3007,10.14879 -9.0964,16.53878 -3.9091,1.80423 -8.4949,2.63117 v 52.54821 q 0,17.29054 -11.502,27.81522 -11.3516,10.4495 -27.6648,10.4495 -16.3884,0 -27.8152,-10.4495 -11.4268,-10.52468 -11.4268,-27.81522 v -71.2671 q 0,-0.90212 0.9021,-0.90212 h 16.3884 q 0.827,0 0.827,0.90212 v 69.46287 q 0,10.82538 6.0141,16.38842 6.0892,5.63822 15.1104,5.63822 8.8708,0 14.9601,-5.63822 6.0892,-5.63822 6.0892,-16.38842 v -69.46287 q 0,-0.90212 0.9022,-0.90212 h 16.3132 q 0.9021,0 0.9021,0.90212 v 8.94597 q 6.8411,-2.93187 6.9914,-9.09633 -0.075,-4.96163 -2.9319,-7.14174 z m -51.0447,4.209871 q -3.0822,0 -4.9617,0 v -3.458108 q 0.827,-4.736105 5.8638,-7.743156 7.8935,-3.307756 7.2169,-7.818332 -1.0525,-4.585752 -7.0666,-4.660928 -7.9686,0.150352 -8.4197,7.743155 h -11.2013 q 0,-4.209871 1.5036,-6.991393 1.5787,-2.781522 4.2098,-5.412691 5.1872,-4.961634 13.5318,-5.111986 8.7956,0.150352 14.4338,4.961633 2.556,2.555994 3.9843,4.961634 1.4284,2.405641 1.5036,6.089278 -0.4511,5.187162 -5.7886,9.096328 -4.5106,2.180112 -6.9162,3.458109 l -0.9021,0.977291 -0.9773,1.503526 -0.1504,2.40564 q -2.7063,0 -5.8637,0 z"
               style="font-style:normal;font-variant:normal;font-weight:normal;font-stretch:normal;font-family:Giaothong2;-inkscape-font-specification:Giaothong2;text-align:start;text-anchor:start;stroke-width:0.264584"
               id="path4529" />
            <path
               d="m 2141.5384,217.18941 q -0.5262,0 -0.7517,-0.37588 -0.2256,-0.37589 -0.075,-0.82694 l 39.3924,-107.80277 q 0.1503,-0.60141 0.7517,-0.60141 h 13.4566 q 0.2255,0 0.451,0.22553 0.3007,0.15035 0.3759,0.37588 l 39.3172,107.80277 q 0.1504,0.45105 -0.075,0.82694 -0.2255,0.37588 -0.6766,0.37588 h -17.2153 q -0.6014,0 -0.7518,-0.60141 l -8.119,-23.7557 h -39.6931 q -2.1049,6.08927 -4.2099,11.95302 -2.0297,5.78858 -4.1347,11.80268 -0.075,0.22553 -0.3758,0.45105 -0.2256,0.15036 -0.4511,0.15036 z m 60.6673,-40.52001 q -0.1504,-0.52624 -0.4511,-1.12765 -0.2255,-0.60141 -0.3759,-1.05246 -1.278,-3.68364 -2.3304,-6.76587 -1.0525,-3.1574 -1.8794,-5.48787 -0.5263,-1.50352 -1.0525,-2.93187 -0.4511,-1.42835 -0.9021,-2.70635 -0.3759,-1.20282 -0.7518,-2.25528 -0.3759,-1.12765 -0.7517,-2.18012 -0.6766,-2.18011 -1.4284,-4.36022 -0.6766,-2.18011 -1.4283,-4.51057 -0.3759,-1.05247 -0.827,-2.33047 -0.3759,-1.278 -0.8269,-2.70634 -0.2255,-0.75177 -0.3759,-1.12765 -0.075,-0.45106 -0.2255,-0.82694 -0.1504,-0.45106 -0.3759,-0.97729 -0.1504,-0.52623 -0.4511,-1.50352 -0.8269,2.48081 -1.5787,4.58575 -0.6765,2.10493 -1.278,3.90916 -0.1503,0.45106 -0.2255,0.82694 -0.075,0.37588 -0.2255,0.75177 -0.3759,1.27799 -0.827,2.40564 -0.3758,1.12764 -0.7517,2.25528 -0.3759,1.20282 -0.7518,2.33047 -0.3759,1.12764 -0.7517,2.18011 -0.7518,2.25529 -1.5787,4.7361 -0.7518,2.48082 -1.7291,5.18717 -0.9773,2.70634 -2.0298,5.86375 -1.0524,3.08222 -2.7063,7.81833 z"
               style="font-style:normal;font-variant:normal;font-weight:normal;font-stretch:normal;font-family:Giaothong2;-inkscape-font-specification:Giaothong2;text-align:start;text-anchor:start;stroke-width:0.264584"
               id="path4531" />
            <path
               d="m 2357.6702,185.38985 q 0.4511,0 0.7518,0.37588 0.3007,0.3007 0.1504,0.75176 -3.1574,15.33596 -13.9828,23.60535 -5.2624,3.98434 -11.4268,6.0141 -6.1645,2.02976 -13.3062,2.02976 -13.0055,0 -21.8763,-6.23963 -8.7205,-6.16446 -12.6296,-13.53173 -1.3532,-2.55599 -2.3305,-5.11199 -0.9773,-2.63117 -1.5035,-5.48786 -0.9773,-5.56305 -0.9773,-25.25923 0,-9.84809 0.2255,-16.08772 0.2256,-6.23963 0.7518,-9.09633 0.5262,-2.8567 1.5035,-5.48787 0.9773,-2.63117 2.3305,-5.18716 3.9091,-7.2921 12.6296,-13.53173 8.7956,-6.31481 21.8763,-6.31481 15.6366,0 25.8606,9.62257 10.3743,9.69774 12.8552,23.00394 0.1503,0.45105 -0.1504,0.75176 -0.3007,0.3007 -0.7518,0.3007 h -17.2153 q -0.6766,0 -0.827,-0.60141 -0.9773,-3.00705 -2.7815,-5.56304 -1.8042,-2.63117 -4.4354,-4.88646 -4.9616,-4.4354 -12.5544,-4.4354 -5.6382,0 -9.6226,2.25529 -3.9843,2.25529 -6.39,5.18716 -1.4283,1.80423 -2.4808,4.1347 -1.0524,2.25529 -1.6539,4.66093 -0.6014,2.55599 -0.8269,7.8935 -0.2255,5.33752 -0.2255,13.38138 0,8.19421 0.2255,13.53173 0.2255,5.26234 0.8269,7.81833 0.6015,2.33046 1.6539,4.66093 1.1277,2.25529 2.4808,3.98434 2.4057,3.1574 6.39,5.41269 3.9844,2.18011 9.6226,2.18011 13.0055,0 19.7713,-14.20831 0.1504,-0.15035 0.3759,-0.30071 0.2256,-0.22552 0.4511,-0.22552 z"
               style="font-style:normal;font-variant:normal;font-weight:normal;font-stretch:normal;font-family:Giaothong2;-inkscape-font-specification:Giaothong2;text-align:start;text-anchor:start;stroke-width:0.264584"
               id="path4533" />
            <path
               d="m 2429.8394,217.26458 q -0.9021,0 -0.9021,-0.90211 v -46.15823 h -40.971 v 46.15823 q 0,0.90211 -0.9022,0.90211 h -16.3132 q -0.9021,0 -0.9021,-0.90211 V 108.63488 q 0,-0.90212 0.9021,-0.90212 h 16.3132 q 0.9022,0 0.9022,0.90212 v 45.25611 h 40.971 v -45.25611 q 0,-0.90212 0.9021,-0.90212 h 16.3133 q 0.9021,0 0.9021,0.90212 v 107.72759 q 0,0.90211 -0.9021,0.90211 z"
               style="font-style:normal;font-variant:normal;font-weight:normal;font-stretch:normal;font-family:Giaothong2;-inkscape-font-specification:Giaothong2;text-align:start;text-anchor:start;stroke-width:0.264584"
               id="path4535" />
            <path
               d="m 2553.9555,93.82515 q 0.451,0.375882 0.9021,0.826939 4.9616,5.187163 5.112,13.531731 0.3007,10.14879 -9.0963,16.53878 -3.9092,1.80423 -8.495,2.63117 v 52.54821 q 0,17.29054 -11.5019,27.81522 -11.3516,10.4495 -27.6649,10.4495 -16.3884,0 -27.8152,-10.4495 -11.4268,-10.52468 -11.4268,-27.81522 v -71.2671 q 0,-0.90212 0.9021,-0.90212 h 16.3884 q 0.827,0 0.827,0.90212 v 69.46287 q 0,10.82538 6.0141,16.38842 6.0893,5.63822 15.1104,5.63822 8.8708,0 14.9601,-5.63822 6.0893,-5.63822 6.0893,-16.38842 v -69.46287 q 0,-0.90212 0.9021,-0.90212 h 16.3132 q 0.9021,0 0.9021,0.90212 v 8.94597 q 6.8411,-2.93187 6.9914,-9.09633 -0.075,-4.96163 -2.9318,-7.14174 z m -70.5154,2.104936 q -0.9021,0 -0.7517,-0.902115 0.5262,-3.683638 1.8042,-6.690688 1.3532,-3.007051 3.3829,-5.337515 2.0298,-2.104936 4.7362,-3.23258 2.7063,-1.20282 5.7133,-1.20282 1.3532,0 2.6312,0.150352 1.278,0.150353 2.556,0.60141 1.3532,0.451058 2.556,0.902116 1.278,0.451057 2.1049,0.751762 2.6312,1.353173 4.7361,2.02976 1.4284,0.676586 3.383,0.676586 1.729,0 3.3829,-1.052468 1.4284,-0.977291 2.0298,-4.285047 0.1503,-0.60141 0.8269,-0.60141 h 7.8183 q 0.9773,0 0.827,0.902115 -0.4511,3.232579 -1.5787,6.089278 -1.1277,2.781522 -2.8567,5.111986 -1.8794,2.405641 -4.5858,3.83399 -2.7063,1.353173 -6.2396,1.428349 -1.3532,0 -2.7064,-0.225529 -1.2779,-0.225529 -2.4808,-0.751763 h 0.075 q -0.8269,-0.150352 -2.1801,-0.60141 -1.3532,-0.526234 -3.1574,-1.20282 -2.3305,-1.052468 -4.4354,-1.653878 -2.1049,-0.60141 -4.1347,-0.676586 -1.1276,0 -3.0071,1.052467 l 0.075,-0.07518 q -1.8794,1.20282 -1.8794,4.209871 0,0.751763 -0.7517,0.751763 z"
               style="font-style:normal;font-variant:normal;font-weight:normal;font-stretch:normal;font-family:Giaothong2;-inkscape-font-specification:Giaothong2;text-align:start;text-anchor:start;stroke-width:0.264584"
               id="path4537" />
            <path
               d="m 2561.6235,217.18941 q -0.5263,0 -0.7518,-0.37588 -0.2255,-0.37589 -0.075,-0.82694 l 39.3924,-107.80277 q 0.1503,-0.60141 0.7517,-0.60141 h 13.4566 q 0.2255,0 0.4511,0.22553 0.3007,0.15035 0.3758,0.37588 l 39.3172,107.80277 q 0.1504,0.45105 -0.075,0.82694 -0.2255,0.37588 -0.6765,0.37588 h -17.2154 q -0.6014,0 -0.7518,-0.60141 l -8.119,-23.7557 h -39.6931 q -2.1049,6.08927 -4.2098,11.95302 -2.0298,5.78858 -4.1347,11.80268 -0.075,0.22553 -0.3759,0.45105 -0.2256,0.15036 -0.4511,0.15036 z m 60.6672,-40.52001 q -0.1503,-0.52624 -0.4511,-1.12765 -0.2255,-0.60141 -0.3758,-1.05246 -1.278,-3.68364 -2.3305,-6.76587 -1.0525,-3.1574 -1.8794,-5.48787 -0.5262,-1.50352 -1.0525,-2.93187 -0.451,-1.42835 -0.9021,-2.70635 -0.3759,-1.20282 -0.7518,-2.25528 -0.3758,-1.12765 -0.7517,-2.18012 -0.6766,-2.18011 -1.4284,-4.36022 -0.6765,-2.18011 -1.4283,-4.51057 -0.3759,-1.05247 -0.827,-2.33047 -0.3758,-1.278 -0.8269,-2.70634 -0.2255,-0.75177 -0.3759,-1.12765 -0.075,-0.45106 -0.2255,-0.82694 -0.1504,-0.45106 -0.3759,-0.97729 -0.1503,-0.52623 -0.451,-1.50352 -0.827,2.48081 -1.5787,4.58575 -0.6766,2.10493 -1.278,3.90916 -0.1504,0.45106 -0.2256,0.82694 -0.075,0.37588 -0.2255,0.75177 -0.3759,1.27799 -0.8269,2.40564 -0.3759,1.12764 -0.7518,2.25528 -0.3759,1.20282 -0.7518,2.33047 -0.3758,1.12764 -0.7517,2.18011 -0.7518,2.25529 -1.5787,4.7361 -0.7518,2.48082 -1.7291,5.18717 -0.9773,2.70634 -2.0297,5.86375 -1.0525,3.08222 -2.7064,7.81833 z"
               style="font-style:normal;font-variant:normal;font-weight:normal;font-stretch:normal;font-family:Giaothong2;-inkscape-font-specification:Giaothong2;text-align:start;text-anchor:start;stroke-width:0.264584"
               id="path4539" />
            <path
               d="m 2714.3064,98.035021 q -0.6766,0 -0.9021,-0.526234 -0.1503,-0.60141 0.3759,-0.977291 l 22.1018,-17.516071 h 10.0736 l 22.4026,17.516071 q 0.5262,0.375881 0.3007,0.977291 -0.1504,0.526234 -0.7518,0.526234 h -12.7048 l -14.9601,-8.04386 q -3.3077,2.029759 -6.6906,4.059518 -3.383,2.029759 -6.6907,3.984342 z m -13.3062,63.599119 q 0,-9.84809 0.2256,-16.08772 0.3007,-6.23963 0.7517,-9.09633 0.5263,-2.85669 1.5036,-5.48786 0.9772,-2.63117 2.4056,-5.18717 h -0.075 q 3.9092,-7.29209 12.6296,-13.53172 8.7957,-6.31481 21.8763,-6.31481 12.9303,0 21.726,6.31481 8.8708,6.38998 12.7799,13.53172 2.7816,5.11199 3.7588,10.67503 0.5263,2.8567 0.7518,9.09633 0.3007,6.23963 0.3007,16.08772 0,19.32031 -1.0525,25.25923 -0.5262,2.93188 -1.5035,5.56304 -0.9021,2.63117 -2.1801,5.03681 -3.9843,7.21693 -12.8551,13.53173 -8.8708,6.23963 -21.726,6.23963 -13.0055,0 -21.8763,-6.23963 -8.7204,-6.16445 -12.6296,-13.53173 h 0.075 q -1.4284,-2.55599 -2.4056,-5.11198 -0.9773,-2.63117 -1.5036,-5.48787 -0.451,-2.8567 -0.7517,-9.09633 -0.2256,-6.3148 -0.2256,-16.1629 z m 18.1175,0 q 0,8.19422 0.2255,13.53173 0.2256,5.26234 0.827,7.81834 0.6014,2.33046 1.6539,4.66092 1.1276,2.25529 2.4808,3.98435 2.4056,3.1574 6.39,5.41269 3.9843,2.18011 9.6225,2.18011 5.5631,0 9.5474,-2.18011 3.9844,-2.25529 6.3148,-5.41269 3.1574,-3.83399 4.1347,-8.64527 1.2028,-4.81129 1.2028,-21.35007 0,-8.19421 -0.3007,-13.45655 -0.3007,-5.33751 -0.9021,-7.81833 -0.5262,-2.40564 -1.5787,-4.66093 -1.0525,-2.33046 -2.4808,-4.13469 -1.1277,-1.42835 -2.7815,-2.78152 -1.5787,-1.35318 -3.6085,-2.33047 -2.0297,-1.05247 -4.4354,-1.65388 -2.4056,-0.67658 -5.112,-0.67658 -5.6382,0 -9.6225,2.25528 -3.9844,2.25529 -6.39,5.18717 -1.4284,1.80423 -2.4808,4.13469 -1.0525,2.25529 -1.6539,4.66093 -0.6014,2.55599 -0.827,7.89351 -0.2255,5.33751 -0.2255,13.38137 z"
               style="font-style:normal;font-variant:normal;font-weight:normal;font-stretch:normal;font-family:Giaothong2;-inkscape-font-specification:Giaothong2;text-align:start;text-anchor:start;stroke-width:0.264584"
               id="path4541" />
            <path
               d="m 2854.5102,217.26458 q -0.9021,0 -0.9021,-0.90211 v -92.31646 h -28.6421 q -0.9022,0 -0.9022,-0.90211 v -14.50902 q 0,-0.90212 0.9022,-0.90212 h 75.3266 q 0.9021,0 0.9021,0.90212 v 14.50902 q 0,0.90211 -0.9021,0.90211 h -28.567 v 92.31646 q 0,0.90211 -0.9021,0.90211 z"
               style="font-style:normal;font-variant:normal;font-weight:normal;font-stretch:normal;font-family:Giaothong2;-inkscape-font-specification:Giaothong2;text-align:start;text-anchor:start;stroke-width:0.264584"
               id="path4543" />
            <path
               d="m 2922.3943,98.035021 q -0.6766,0 -0.9021,-0.526234 -0.1503,-0.60141 0.3759,-0.977291 l 22.1018,-17.516071 h 10.0736 l 22.4026,17.516071 q 0.5262,0.375881 0.3007,0.977291 -0.1504,0.526234 -0.7518,0.526234 h -12.7048 l -14.9601,-8.04386 q -3.3077,2.029759 -6.6906,4.059518 -3.383,2.029759 -6.6907,3.984342 z m -13.3062,63.599119 q 0,-9.84809 0.2256,-16.08772 0.3007,-6.23963 0.7517,-9.09633 0.5263,-2.85669 1.5035,-5.48786 0.9773,-2.63117 2.4057,-5.18717 h -0.075 q 3.9092,-7.29209 12.6296,-13.53172 8.7956,-6.31481 21.8763,-6.31481 12.9303,0 21.726,6.31481 8.8708,6.38998 12.7799,13.53172 2.7815,5.11199 3.7588,10.67503 0.5263,2.8567 0.7518,9.09633 0.3007,6.23963 0.3007,16.08772 0,19.32031 -1.0525,25.25923 -0.5262,2.93188 -1.5035,5.56304 -0.9021,2.63117 -2.1801,5.03681 -3.9843,7.21693 -12.8551,13.53173 -8.8708,6.23963 -21.726,6.23963 -13.0055,0 -21.8763,-6.23963 -8.7204,-6.16445 -12.6296,-13.53173 h 0.075 q -1.4284,-2.55599 -2.4057,-5.11198 -0.9772,-2.63117 -1.5035,-5.48787 -0.451,-2.8567 -0.7517,-9.09633 -0.2256,-6.3148 -0.2256,-16.1629 z m 18.1175,0 q 0,8.19422 0.2255,13.53173 0.2256,5.26234 0.827,7.81834 0.6014,2.33046 1.6539,4.66092 1.1276,2.25529 2.4808,3.98435 2.4056,3.1574 6.39,5.41269 3.9843,2.18011 9.6225,2.18011 5.5631,0 9.5474,-2.18011 3.9843,-2.25529 6.3148,-5.41269 3.1574,-3.83399 4.1347,-8.64527 1.2028,-4.81129 1.2028,-21.35007 0,-8.19421 -0.3007,-13.45655 -0.3007,-5.33751 -0.9021,-7.81833 -0.5262,-2.40564 -1.5787,-4.66093 -1.0525,-2.33046 -2.4808,-4.13469 -1.1277,-1.42835 -2.7815,-2.78152 -1.5787,-1.35318 -3.6085,-2.33047 -2.0298,-1.05247 -4.4354,-1.65388 -2.4056,-0.67658 -5.112,-0.67658 -5.6382,0 -9.6225,2.25528 -3.9844,2.25529 -6.39,5.18717 -1.4284,1.80423 -2.4808,4.13469 -1.0525,2.25529 -1.6539,4.66093 -0.6014,2.55599 -0.827,7.89351 -0.2255,5.33751 -0.2255,13.38137 z"
               style="font-style:normal;font-variant:normal;font-weight:normal;font-stretch:normal;font-family:Giaothong2;-inkscape-font-specification:Giaothong2;text-align:start;text-anchor:start;stroke-width:0.264584"
               id="path4545" />
          </g>
          <g
             aria-label="Garage"
             id="text3235"
             style="font-size:141.403px;line-height:1.3;font-family:'Singapore Road Signs';-inkscape-font-specification:'Singapore Road Signs';text-align:center;text-anchor:middle;opacity:1;stroke-width:0.264584"
             transform="translate(-46.56669)">
            <path
               d="m 1904.7659,348.0517 q -0.8285,0 -0.8285,-0.82853 v -14.22315 q 0,-0.75949 0.8285,-0.75949 h 35.1437 q 0.8285,0 0.8285,0.75949 v 20.16097 q 0,15.25882 -10.4948,25.54644 -10.6328,10.42571 -25.6155,10.42571 -11.9446,0 -20.0919,-5.73069 -8.0091,-5.66164 -11.5995,-12.42799 h 0.069 q -1.3119,-2.34751 -2.2094,-4.69502 -0.8976,-2.41656 -1.3809,-5.04025 -0.4143,-2.62369 -0.6905,-8.35437 -0.2071,-5.79974 -0.2071,-14.84456 0,-9.04482 0.2071,-14.77551 0.2762,-5.73068 0.6905,-8.35437 0.4833,-2.62369 1.3809,-5.04025 0.8975,-2.41655 2.2094,-4.76406 h -0.069 q 3.5904,-6.69731 11.5995,-12.428 8.0782,-5.79973 20.0919,-5.79973 14.3613,0 23.7513,8.83768 9.5282,8.83769 11.8066,21.1276 0.1381,0.41427 -0.1381,0.69045 -0.2761,0.27617 -0.6904,0.27617 h -15.8112 q -0.6214,0 -0.7595,-0.55235 -0.8975,-2.76178 -2.5546,-5.10929 -1.6571,-2.41656 -4.0736,-4.48789 -4.557,-4.07362 -11.5305,-4.07362 -5.1783,0 -8.8376,2.07133 -3.6594,2.07134 -5.8688,4.76407 -1.3119,1.65706 -2.2785,3.79744 -0.9666,2.07134 -1.519,4.28076 -0.5523,2.34751 -0.7595,7.24966 -0.2071,4.90216 -0.2071,12.28991 0,7.52585 0.2071,12.428 0.2072,4.83311 0.7595,7.18062 0.5524,2.14038 1.519,4.28076 1.0357,2.07133 2.2785,3.65935 2.2094,2.89987 5.8688,4.9712 3.6593,2.00229 8.8376,2.00229 8.2163,0 13.8089,-5.5926 5.6617,-5.5926 5.6617,-14.63742 v -4.28076 z"
               style="font-style:normal;font-variant:normal;font-weight:normal;font-stretch:normal;font-family:Giaothong2;-inkscape-font-specification:Giaothong2;stroke-width:0.264584"
               id="path4506" />
            <path
               d="m 1994.6671,388.58079 q -0.8286,0 -0.8286,-0.82854 v -3.86648 q -0.9666,1.2428 -2.2784,2.20942 -1.2428,0.89758 -2.6928,1.44993 -2.1403,0.89758 -5.0402,1.38089 -2.8308,0.48331 -6.214,0.48331 -11.8756,-0.27618 -18.0896,-6.49018 v 0.069 q -6.7664,-6.14496 -6.7664,-15.81118 0,-9.04482 5.7997,-15.25882 5.9379,-6.214 17.1231,-6.35208 h 18.1586 v -6.55923 q 0.1381,-8.56151 -13.1184,-8.21628 -2.4166,0 -4.3498,0.20713 -1.9332,0.20713 -3.5213,0.75949 h 0.069 q -1.3809,0.69044 -2.4856,1.72611 -1.1047,0.96662 -1.8642,2.34751 -0.4833,0.82853 -1.2428,0.20713 l -10.7709,-8.49246 q -0.2762,-0.20714 -0.3453,-0.48331 -0.069,-0.34523 0.1381,-0.6214 8.0092,-10.83998 23.6823,-10.49476 6.5592,-0.069 11.7375,1.17376 5.1783,1.2428 9.252,3.93553 8.0091,5.66164 8.0782,18.71104 v 47.98588 q 0,0.82854 -0.8286,0.82854 z m -0.8286,-29.75815 h -15.604 q -11.1162,0.34522 -11.0471,7.66393 0,3.107 2.8308,5.52355 2.8999,2.55465 9.252,2.55465 8.4924,0.069 11.7375,-2.00229 h -0.069 q 2.8998,-1.93325 2.8998,-9.39004 z"
               style="font-style:normal;font-variant:normal;font-weight:normal;font-stretch:normal;font-family:Giaothong2;-inkscape-font-specification:Giaothong2;stroke-width:0.264584"
               id="path4508" />
            <path
               d="m 2022.7734,388.30461 q -0.7594,0 -0.7594,-0.82853 v -70.01106 q 0,-0.82853 0.7594,-0.82853 h 14.1542 q 0.7594,0 0.7594,0.82853 v 5.66164 q 6.6283,-7.24966 17.6754,-7.24966 7.9401,0 15.1208,5.52355 0.2761,0.20714 0.2761,0.55236 0.069,0.34522 -0.1381,0.6214 l -10.1495,12.15182 q -0.4833,0.6214 -1.1047,0.13809 -4.4879,-3.31413 -8.8377,-3.31413 -4.9021,0 -8.9067,3.31413 -3.9356,3.31413 -3.9356,10.5638 v 42.04806 q 0,0.82853 -0.7594,0.82853 z"
               style="font-style:normal;font-variant:normal;font-weight:normal;font-stretch:normal;font-family:Giaothong2;-inkscape-font-specification:Giaothong2;stroke-width:0.264584"
               id="path4510" />
            <path
               d="m 2117.5767,388.58079 q -0.8285,0 -0.8285,-0.82854 v -3.86648 q -0.9666,1.2428 -2.2785,2.20942 -1.2428,0.89758 -2.6927,1.44993 -2.1404,0.89758 -5.0402,1.38089 -2.8309,0.48331 -6.214,0.48331 -11.8757,-0.27618 -18.0897,-6.49018 v 0.069 q -6.7663,-6.14496 -6.7663,-15.81118 0,-9.04482 5.7997,-15.25882 5.9378,-6.214 17.123,-6.35208 h 18.1587 v -6.55923 q 0.1381,-8.56151 -13.1184,-8.21628 -2.4166,0 -4.3498,0.20713 -1.9333,0.20713 -3.5213,0.75949 h 0.069 q -1.3808,0.69044 -2.4856,1.72611 -1.1047,0.96662 -1.8642,2.34751 -0.4833,0.82853 -1.2427,0.20713 l -10.771,-8.49246 q -0.2762,-0.20714 -0.3452,-0.48331 -0.069,-0.34523 0.1381,-0.6214 8.0091,-10.83998 23.6822,-10.49476 6.5592,-0.069 11.7376,1.17376 5.1783,1.2428 9.2519,3.93553 8.0092,5.66164 8.0782,18.71104 v 47.98588 q 0,0.82854 -0.8285,0.82854 z m -0.8285,-29.75815 h -15.604 q -11.1162,0.34522 -11.0471,7.66393 0,3.107 2.8308,5.52355 2.8998,2.55465 9.2519,2.55465 8.4925,0.069 11.7376,-2.00229 h -0.069 q 2.8999,-1.93325 2.8999,-9.39004 z"
               style="font-style:normal;font-variant:normal;font-weight:normal;font-stretch:normal;font-family:Giaothong2;-inkscape-font-specification:Giaothong2;stroke-width:0.264584"
               id="path4512" />
            <path
               d="m 2186.9717,382.2287 q -7.3187,6.90444 -17.2611,6.90444 -7.0425,0 -11.9447,-2.83082 -2.2785,-1.38089 -4.2117,-2.89987 -1.8642,-1.58802 -3.038,-3.10699 -1.5189,-2.00229 -2.6236,-4.14267 -1.1048,-2.20942 -1.6571,-4.41884 -1.1047,-4.21171 -1.1047,-19.19436 0,-14.91359 1.1047,-19.12531 0.5523,-2.20942 1.588,-4.41884 1.1047,-2.20942 2.6927,-4.21171 2.3476,-3.03795 7.2497,-5.93782 4.695,-2.96891 11.9447,-2.96891 9.5972,0 17.2611,7.11158 v -5.52356 q 0,-0.82853 0.7595,-0.82853 h 14.1541 q 0.7595,0 0.7595,0.82853 v 68.42303 q 0,16.08736 -9.4591,23.88938 -9.4591,7.66393 -21.68,7.66393 -7.0425,0 -13.5327,-3.31413 -6.7663,-3.38318 -11.4613,-8.6996 -0.2072,-0.27618 -0.2072,-0.6214 0.069,-0.34522 0.3453,-0.48331 l 10.978,-8.6996 q 0.4833,-0.34522 0.9666,0 2.4856,2.4856 5.8688,4.28075 3.3832,1.79516 7.3187,1.79516 6.7664,0 10.909,-3.65936 4.2808,-3.72839 4.2808,-10.63284 z m -26.0988,-29.68911 q 0,4.07362 0.069,6.90445 0.069,2.76177 0.2762,4.14266 0.2762,1.38089 0.7595,2.62369 0.5524,1.17376 1.4499,2.20942 0.6214,0.89758 1.5881,1.79516 1.0356,0.89758 2.3475,1.65706 1.3118,0.69045 2.9689,1.17376 1.6571,0.41427 3.6593,0.41427 1.9333,0 3.5213,-0.41427 1.6571,-0.48331 2.9689,-1.17376 1.3119,-0.75948 2.2785,-1.65706 1.0357,-0.89758 1.7261,-1.79516 0.7595,-1.10471 1.2428,-2.27846 0.5524,-1.2428 0.7595,-2.55465 0.2762,-1.38089 0.3452,-4.14266 0.1381,-2.76178 0.1381,-6.90445 0,-4.14266 -0.1381,-6.90444 -0.069,-2.76178 -0.3452,-4.14267 -0.4143,-2.55464 -2.0713,-4.83311 h 0.069 q -0.7595,-0.82853 -1.7952,-1.72611 -0.9666,-0.96662 -2.2784,-1.65706 -1.3119,-0.75949 -2.8999,-1.2428 -1.588,-0.48331 -3.5213,-0.48331 -2.0022,0 -3.6593,0.48331 -1.6571,0.48331 -2.9689,1.2428 -1.3119,0.69044 -2.3475,1.58802 -0.9667,0.89758 -1.5881,1.79515 -1.657,2.07134 -2.2094,4.83311 -0.2071,1.38089 -0.2762,4.21171 -0.069,2.76178 -0.069,6.8354 z"
               style="font-style:normal;font-variant:normal;font-weight:normal;font-stretch:normal;font-family:Giaothong2;-inkscape-font-specification:Giaothong2;stroke-width:0.264584"
               id="path4514" />
            <path
               d="m 2276.5967,357.78697 q 0,0.82853 -0.8286,0.82853 h -42.7385 q 0.2072,7.59489 4.3498,11.53042 4.557,4.14267 11.5304,4.14267 8.2854,0 14.7756,-6.49018 0.138,-0.20713 0.4833,-0.20713 0.3452,-0.069 0.6214,0.13809 l 10.2185,8.6996 q 0.2762,0.20713 0.2762,0.55235 0,0.34522 -0.2071,0.6214 -5.3855,6.214 -12.0828,8.90673 -6.6283,2.62369 -13.8779,2.62369 -11.1162,0 -21.3347,-7.11157 -10.4948,-7.18062 -10.4948,-29.27484 0,-20.85142 9.5972,-28.86058 9.8043,-8.00915 20.0919,-8.00915 11.8756,0 20.7133,8.21629 8.9068,8.28533 8.9068,22.09422 z m -15.7422,-12.35895 q -0.4833,-7.18062 -4.2807,-10.90902 -3.7975,-3.7284 -9.5972,-3.7284 -6.0069,0 -9.8734,3.86648 -1.7951,1.79516 -2.8308,4.55694 -1.0356,2.76177 -1.2428,6.214 z"
               style="font-style:normal;font-variant:normal;font-weight:normal;font-stretch:normal;font-family:Giaothong2;-inkscape-font-specification:Giaothong2;stroke-width:0.264584"
               id="path4516" />
          </g>
          <path
             sodipodi:nodetypes="ccccccccccccccccccccccccc"
             inkscape:connector-curvature="0"
             id="path6890"
             d="m 911.33012,55.510364 v 37.69598 h 99.82668 v 19.945266 h -99.82668 v 37.69598 h 99.82668 v 56.74342 c -9.6438,21.43371 -21.15948,64.42226 -21.24258,84.06774 v 75.79086 c 0,27.78031 26.18008,69.85711 37.89568,69.80722 h 29.1193 c 11.7156,0.0449 37.8661,-42.02691 37.8953,-69.80722 v -75.79086 c 0,-19.64548 -11.5987,-62.63403 -21.2422,-84.06774 v -56.74387 h 37.1986 v -37.69598 h -37.1986 V 93.206344 h 37.1986 v -54.84888 l -119.67108,2.2e-4 c -5.3106,5.58654 -9.9514,17.25561 -34.304,17.15268 z"
             style="opacity:1;fill:#0046aa;fill-opacity:1;fill-rule:nonzero;stroke:none;stroke-width:2.50001;stroke-linecap:butt;stroke-linejoin:miter;stroke-miterlimit:4;stroke-dasharray:none;stroke-opacity:1;paint-order:stroke fill markers" />
        </g>
      </g>
    </g>
  </g>
</svg>
