<?xml version="1.0" encoding="UTF-8"?>
<!DOCTYPE svg PUBLIC "-//W3C//DTD SVG 1.1//EN" "http://www.w3.org/Graphics/SVG/1.1/DTD/svg11.dtd">
<!-- Creator: CorelDRAW -->
<svg xmlns="http://www.w3.org/2000/svg" xml:space="preserve" width="85.4998mm" height="61.029mm" version="1.1" style="shape-rendering:geometricPrecision; text-rendering:geometricPrecision; image-rendering:optimizeQuality; fill-rule:evenodd; clip-rule:evenodd"
viewBox="0 0 1072.18 765.31"
 xmlns:xlink="http://www.w3.org/1999/xlink"
 xmlns:xodm="http://www.corel.com/coreldraw/odm/2003">
 <defs>
  <style type="text/css">
   <![CDATA[
    .fil0 {fill:#0A9646}
    .fil3 {fill:black;fill-rule:nonzero}
    .fil2 {fill:#F00A0A;fill-rule:nonzero}
    .fil1 {fill:white;fill-rule:nonzero}
   ]]>
  </style>
 </defs>
 <g id="Layer_x0020_1">
  <metadata id="CorelCorpID_0Corel-Layer"/>
  <g id="_2298022364064">
   <polygon id="rect15575" class="fil0" points="-0,0 1072.18,0 1072.18,765.31 -0,765.31 "/>
   <path id="path17496" class="fil1" d="M913.52 152.99l0 167.93 117.57 0 0 -167.93 -117.57 0zm4.58 5.51l108.34 0 0 157.82 -108.34 0 0 -157.82zm45.35 12.1l-7.42 29.43 13.01 0 0.94 -29.43 -6.53 0zm11.12 0l0.94 29.43 13.02 0 -7.42 -29.43 -6.53 0zm-52.78 33.15l0 6.44 10.18 3.68 0 1.94 4.68 0 0 -1.94c0,0 6.92,-1.04 15.02,-1.78 6.48,-0.59 13.71,-0.9 18.73,-0.92 5.97,-0.02 14.79,0.31 22.36,0.96 8.34,0.71 15.17,1.74 15.17,1.74l0 1.94 4.58 0 0 -1.94 10.17 -3.68 0 -6.44 -100.89 0zm30.56 12.01l-22.24 88.52 33.34 0 4.62 -88.52 -15.72 0zm24.07 0l4.63 88.52 33.34 0 -22.24 -88.52 -15.73 0z"/>
   <path class="fil1" d="M404.6 407.34c-0.24,0 -0.35,-0.12 -0.35,-0.35l0 -42.25c0,-0.24 0.12,-0.35 0.35,-0.35l27.01 0c0.24,0 0.35,0.12 0.35,0.35l0 6.07c0,0.24 -0.12,0.35 -0.35,0.35l-20.26 0 0 11.32 17.22 0c0.24,0 0.35,0.12 0.35,0.35l0 5.72c0,0.22 -0.12,0.32 -0.35,0.32l-17.22 0 0 11.74 20.26 0c0.24,0 0.35,0.12 0.35,0.35l0 6.02c0,0.24 -0.12,0.35 -0.35,0.35l-27.01 0zm54.47 0c-0.12,0 -0.22,-0.06 -0.29,-0.18l-8.96 -15.22c-1.5,2.55 -2.99,5.09 -4.48,7.61 -1.49,2.52 -2.99,5.05 -4.48,7.61 -0.08,0.12 -0.18,0.18 -0.3,0.18l-7.22 0c-0.16,0 -0.27,-0.05 -0.32,-0.16 -0.06,-0.11 -0.05,-0.23 0.03,-0.37l12.83 -21.5c-2.02,-3.42 -4.03,-6.82 -6.02,-10.2 -1.98,-3.38 -3.98,-6.78 -5.99,-10.2 -0.08,-0.14 -0.09,-0.26 -0.03,-0.37 0.06,-0.11 0.16,-0.16 0.29,-0.16l7.25 0c0.12,0 0.22,0.06 0.29,0.18l8.14 14.15c1.36,-2.36 2.71,-4.71 4.07,-7.06 1.36,-2.35 2.71,-4.71 4.07,-7.09 0.08,-0.12 0.17,-0.18 0.29,-0.18l7.26 0c0.14,0 0.23,0.05 0.29,0.16 0.06,0.11 0.05,0.23 -0.03,0.37l-12 20.4c2.16,3.6 4.3,7.18 6.43,10.75 2.12,3.57 4.26,7.15 6.43,10.75 0.08,0.14 0.09,0.26 0.03,0.37 -0.06,0.11 -0.17,0.16 -0.33,0.16l-7.25 0zm18.51 -36.18l0 12.91 9.17 0c2.26,0 3.94,-0.68 5.04,-2.03 1.12,-1.32 1.68,-2.79 1.68,-4.42 0,-2.44 -0.87,-4.22 -2.59,-5.34 -1.12,-0.75 -2.58,-1.12 -4.36,-1.12l-8.93 0zm-6.75 36.18c-0.24,0 -0.35,-0.12 -0.35,-0.35l0 -42.25c0,-0.24 0.12,-0.35 0.35,-0.35l15.33 0c1.69,0 3.29,0.18 4.8,0.53 1.53,0.35 3.17,1.2 4.9,2.54 0.67,0.53 1.28,1.14 1.84,1.84 0.56,0.7 1.07,1.47 1.52,2.31 0.43,0.87 0.77,1.82 1,2.86 0.24,1.04 0.35,2.15 0.35,3.33 0,3.09 -1.16,6.04 -3.48,8.85 -2.32,2.79 -5.69,4.19 -10.11,4.19l-9.41 0 0 16.16c0,0.24 -0.12,0.35 -0.36,0.35l-6.4 0zm41.99 -36.56l0 12.12 9.35 0c2.28,0 3.99,-0.63 5.13,-1.89 1.14,-1.26 1.71,-2.75 1.71,-4.48 0,-0.98 -0.17,-1.86 -0.51,-2.62 -0.34,-0.76 -0.84,-1.39 -1.49,-1.88 -0.57,-0.39 -1.23,-0.7 -1.99,-0.92 -0.76,-0.22 -1.58,-0.32 -2.46,-0.32l-9.73 0zm-6.75 36.56c-0.23,0 -0.35,-0.12 -0.35,-0.35l0 -42.25c0,-0.24 0.12,-0.35 0.35,-0.35l16.54 0c1.83,0 3.48,0.25 4.95,0.75 1.47,0.5 2.76,1.21 3.86,2.14 0.57,0.53 1.12,1.13 1.64,1.81 0.52,0.68 0.98,1.41 1.39,2.2 0.4,0.79 0.72,1.62 0.96,2.51 0.23,0.88 0.35,1.8 0.35,2.74 0,1.4 -0.2,2.72 -0.59,3.97 -0.39,1.25 -0.94,2.41 -1.65,3.49 -0.73,1 -1.57,1.88 -2.54,2.64 -0.96,0.76 -2.06,1.36 -3.27,1.81 1.59,3.05 3.2,6.11 4.81,9.19 1.61,3.07 3.21,6.14 4.8,9.18 0.06,0.14 0.06,0.26 0,0.37 -0.06,0.11 -0.16,0.16 -0.3,0.16l-7.6 0c-0.06,0 -0.12,-0.02 -0.18,-0.07 -0.06,-0.05 -0.11,-0.1 -0.15,-0.13l-8.64 -17.84 -7.64 0 0 17.69c0,0.24 -0.12,0.35 -0.35,0.35l-6.4 0zm36.25 0c-0.24,0 -0.35,-0.12 -0.35,-0.35l0 -42.25c0,-0.24 0.12,-0.35 0.35,-0.35l27.01 0c0.24,0 0.35,0.12 0.35,0.35l0 6.07c0,0.24 -0.12,0.35 -0.35,0.35l-20.26 0 0 11.32 17.22 0c0.23,0 0.35,0.12 0.35,0.35l0 5.72c0,0.22 -0.12,0.32 -0.35,0.32l-17.22 0 0 11.74 20.26 0c0.24,0 0.35,0.12 0.35,0.35l0 6.02c0,0.24 -0.12,0.35 -0.35,0.35l-27.01 0zm33.26 -10.85c0.06,-0.08 0.14,-0.12 0.24,-0.12 0.1,0 0.19,0.03 0.26,0.09 1.55,1.26 3.34,2.26 5.35,3.02 2.02,0.76 4.14,1.13 6.38,1.13 2.51,0 4.5,-0.52 5.96,-1.56 1.38,-1 2.06,-2.33 2.06,-3.98 0,-3.1 -1.74,-4.89 -5.22,-5.36l0.03 0c-0.49,-0.06 -0.96,-0.12 -1.4,-0.18 -0.44,-0.06 -0.88,-0.12 -1.33,-0.18 -0.44,-0.06 -0.9,-0.12 -1.36,-0.19 -0.46,-0.07 -0.97,-0.14 -1.52,-0.22 -1.85,-0.26 -3.49,-0.72 -4.94,-1.4 -1.44,-0.68 -2.66,-1.58 -3.64,-2.7 -0.98,-1.14 -1.72,-2.38 -2.21,-3.73 -0.49,-1.35 -0.74,-2.82 -0.74,-4.41 0,-3.74 1.24,-6.77 3.72,-9.11 2.49,-2.38 5.96,-3.57 10.41,-3.57 1.32,0 2.6,0.11 3.85,0.34 1.25,0.23 2.46,0.54 3.63,0.93 1.17,0.39 2.29,0.86 3.36,1.4 1.07,0.54 2.1,1.13 3.08,1.78 0.2,0.14 0.23,0.3 0.09,0.5l-3.57 5.28c-0.14,0.18 -0.3,0.21 -0.47,0.09 -1.53,-0.96 -3.16,-1.74 -4.89,-2.32 -1.73,-0.58 -3.52,-0.87 -5.36,-0.87 -0.94,0 -1.82,0.11 -2.62,0.34 -0.81,0.23 -1.53,0.59 -2.18,1.1 -1.28,0.92 -1.91,2.33 -1.91,4.22 0,1.08 0.43,2.13 1.3,3.16 0.43,0.47 1.01,0.87 1.74,1.19 0.73,0.33 1.62,0.57 2.68,0.72 0.57,0.1 1.24,0.2 2,0.31 0.76,0.11 1.67,0.22 2.71,0.34 4.03,0.49 7.02,1.98 8.96,4.45 1.95,2.42 2.92,5.11 2.92,8.08 0,3.97 -1.39,7.08 -4.16,9.32 -2.79,2.2 -6.47,3.3 -11.03,3.3 -6.43,0 -11.89,-1.97 -16.39,-5.9 -0.08,-0.06 -0.12,-0.14 -0.12,-0.24 0,-0.1 0.03,-0.19 0.09,-0.27l4.25 -4.8zm34.07 0c0.06,-0.08 0.14,-0.12 0.24,-0.12 0.1,0 0.19,0.03 0.26,0.09 1.55,1.26 3.34,2.26 5.35,3.02 2.02,0.76 4.14,1.13 6.38,1.13 2.51,0 4.5,-0.52 5.96,-1.56 1.38,-1 2.06,-2.33 2.06,-3.98 0,-3.1 -1.74,-4.89 -5.22,-5.36l0.03 0c-0.49,-0.06 -0.96,-0.12 -1.4,-0.18 -0.44,-0.06 -0.88,-0.12 -1.33,-0.18 -0.44,-0.06 -0.9,-0.12 -1.36,-0.19 -0.46,-0.07 -0.97,-0.14 -1.52,-0.22 -1.85,-0.26 -3.49,-0.72 -4.94,-1.4 -1.44,-0.68 -2.66,-1.58 -3.64,-2.7 -0.98,-1.14 -1.72,-2.38 -2.21,-3.73 -0.49,-1.35 -0.74,-2.82 -0.74,-4.41 0,-3.74 1.24,-6.77 3.71,-9.11 2.5,-2.38 5.97,-3.57 10.41,-3.57 1.32,0 2.6,0.11 3.85,0.34 1.25,0.23 2.46,0.54 3.63,0.93 1.17,0.39 2.29,0.86 3.36,1.4 1.07,0.54 2.1,1.13 3.08,1.78 0.2,0.14 0.23,0.3 0.09,0.5l-3.57 5.28c-0.14,0.18 -0.29,0.21 -0.47,0.09 -1.53,-0.96 -3.16,-1.74 -4.89,-2.32 -1.73,-0.58 -3.52,-0.87 -5.37,-0.87 -0.94,0 -1.82,0.11 -2.62,0.34 -0.81,0.23 -1.53,0.59 -2.18,1.1 -1.28,0.92 -1.92,2.33 -1.92,4.22 0,1.08 0.43,2.13 1.3,3.16 0.43,0.47 1.01,0.87 1.74,1.19 0.72,0.33 1.62,0.57 2.68,0.72 0.57,0.1 1.24,0.2 2.01,0.31 0.76,0.11 1.67,0.22 2.71,0.34 4.03,0.49 7.02,1.98 8.96,4.45 1.94,2.42 2.92,5.11 2.92,8.08 0,3.97 -1.39,7.08 -4.16,9.32 -2.79,2.2 -6.46,3.3 -11.03,3.3 -6.43,0 -11.89,-1.97 -16.39,-5.9 -0.08,-0.06 -0.12,-0.14 -0.12,-0.24 0,-0.1 0.03,-0.19 0.09,-0.27l4.25 -4.8zm40.66 10.85c-0.2,0 -0.32,-0.09 -0.35,-0.27l-10.59 -42.25c-0.04,-0.12 -0.02,-0.22 0.06,-0.31 0.08,-0.09 0.18,-0.13 0.3,-0.13l6.78 0c0.2,0 0.31,0.09 0.35,0.27l6.37 28.86c1.3,-4.84 2.61,-9.64 3.92,-14.42 1.32,-4.78 2.63,-9.59 3.95,-14.44 0.04,-0.18 0.16,-0.27 0.35,-0.27l4.63 0c0.18,0 0.28,0.09 0.32,0.27l7.9 28.86c1.06,-4.84 2.12,-9.64 3.19,-14.42 1.06,-4.78 2.12,-9.59 3.19,-14.44 0.04,-0.18 0.16,-0.27 0.35,-0.27l6.78 0c0.12,0 0.22,0.04 0.3,0.13 0.08,0.09 0.1,0.19 0.06,0.31l-10.59 42.25c-0.04,0.18 -0.16,0.27 -0.35,0.27l-5.33 0c-0.18,0 -0.29,-0.09 -0.33,-0.27l-7.81 -29.34c-1.3,4.93 -2.6,9.83 -3.89,14.68 -1.3,4.86 -2.6,9.74 -3.89,14.65 -0.04,0.18 -0.15,0.27 -0.32,0.27l-5.33 0zm37.56 -0.03c-0.14,0 -0.23,-0.05 -0.29,-0.15 -0.06,-0.1 -0.07,-0.21 -0.03,-0.32l15.45 -42.28c0.04,-0.16 0.14,-0.24 0.29,-0.24l5.28 0c0.06,0 0.12,0.03 0.19,0.07 0.07,0.05 0.11,0.11 0.13,0.16l15.42 42.28c0.04,0.12 0.03,0.23 -0.03,0.32 -0.06,0.1 -0.14,0.15 -0.26,0.15l-6.75 0c-0.16,0 -0.25,-0.08 -0.29,-0.24l-3.19 -9.32 -15.57 0c-0.55,1.59 -1.1,3.15 -1.64,4.67 -0.54,1.52 -1.08,3.07 -1.64,4.64 -0.02,0.06 -0.06,0.11 -0.13,0.16 -0.07,0.05 -0.13,0.07 -0.19,0.07l-6.75 0zm23.8 -15.89c-0.04,-0.14 -0.09,-0.28 -0.16,-0.44 -0.07,-0.16 -0.12,-0.3 -0.16,-0.42 -0.33,-0.96 -0.64,-1.85 -0.91,-2.67 -0.28,-0.82 -0.52,-1.53 -0.74,-2.14 -0.14,-0.39 -0.27,-0.78 -0.4,-1.15 -0.13,-0.37 -0.25,-0.73 -0.37,-1.06 -0.1,-0.31 -0.2,-0.61 -0.3,-0.9 -0.1,-0.28 -0.2,-0.56 -0.29,-0.84 -0.18,-0.57 -0.36,-1.14 -0.55,-1.71 -0.19,-0.57 -0.38,-1.16 -0.57,-1.77 -0.1,-0.27 -0.2,-0.58 -0.31,-0.91 -0.11,-0.33 -0.22,-0.69 -0.34,-1.06 -0.06,-0.2 -0.1,-0.35 -0.13,-0.46 -0.03,-0.11 -0.07,-0.22 -0.11,-0.32 -0.04,-0.11 -0.08,-0.23 -0.13,-0.37 -0.05,-0.14 -0.11,-0.33 -0.19,-0.59 -0.22,0.65 -0.42,1.25 -0.6,1.8 -0.19,0.55 -0.36,1.06 -0.52,1.53 -0.04,0.12 -0.07,0.23 -0.09,0.32 -0.02,0.1 -0.05,0.2 -0.09,0.29 -0.1,0.34 -0.2,0.65 -0.31,0.95 -0.11,0.29 -0.21,0.59 -0.31,0.88 -0.1,0.32 -0.2,0.62 -0.29,0.92 -0.1,0.29 -0.2,0.58 -0.3,0.86 -0.2,0.59 -0.4,1.21 -0.6,1.85 -0.21,0.65 -0.44,1.33 -0.69,2.04 -0.25,0.71 -0.52,1.47 -0.8,2.28 -0.27,0.82 -0.63,1.84 -1.06,3.08l11.32 0zm22.55 15.92c-0.22,0 -0.32,-0.12 -0.32,-0.35l0 -17.28c-2.12,-4.15 -4.24,-8.29 -6.34,-12.42 -2.1,-4.13 -4.21,-8.26 -6.31,-12.41 -0.06,-0.14 -0.06,-0.25 0,-0.35 0.06,-0.1 0.17,-0.15 0.33,-0.15l6.72 0c0.06,0 0.12,0.02 0.18,0.07 0.06,0.05 0.11,0.09 0.15,0.13l8.67 18.11c1.46,-3.05 2.9,-6.07 4.32,-9.05 1.42,-2.99 2.86,-6 4.32,-9.05 0.04,-0.04 0.09,-0.08 0.15,-0.13 0.06,-0.05 0.12,-0.07 0.18,-0.07l6.75 0c0.16,0 0.26,0.05 0.32,0.15 0.06,0.1 0.06,0.22 0,0.35l-12.68 24.83 0 17.28c0,0.24 -0.12,0.35 -0.35,0.35l-6.08 0z"/>
   <path class="fil1" d="M26.4 4.4l1019.36 0c12.02,0 21.77,9.75 21.77,21.77l0 712.73c0,12.02 -9.75,21.77 -21.77,21.77l-1019.36 0c-12.02,0 -21.77,-9.75 -21.77,-21.77l0 -712.73c0,-12.02 9.75,-21.77 21.77,-21.77zm-13.58 21.95l0 434.48c0,7.56 6.13,13.69 13.69,13.69l1019.1 0c7.56,0 13.69,-6.13 13.69,-13.69l0 -434.48c0,-7.56 -6.13,-13.69 -13.69,-13.69l-1019.1 0c-7.56,0 -13.69,6.13 -13.69,13.69zm0 471.62l0 241.33c0,7.56 6.13,13.69 13.69,13.69l1019.1 0c7.56,0 13.69,-6.13 13.69,-13.69l0 -241.33c0,-7.56 -6.13,-13.69 -13.69,-13.69l-1019.1 0c-7.56,0 -13.69,6.13 -13.69,13.69z"/>
   <circle id="circle-3" class="fil2" cx="531.29" cy="618.23" r="101.24"/>
   <circle id="circle-4" class="fil1" cx="531.29" cy="618.23" r="72.31"/>
   <path class="fil3" d="M485.48 601.99c0.04,-3.41 0.64,-6.48 1.77,-9.18 1.15,-2.7 2.74,-5.03 4.82,-6.96 1.96,-1.8 4.17,-3.18 6.62,-4.17 2.44,-0.99 5.01,-1.48 7.7,-1.48 5.69,0 10.58,1.89 14.64,5.65 4.11,3.8 6.22,9.18 6.32,16.19l0 32.58c-0.07,3.35 -0.67,6.41 -1.77,9.16 -1.11,2.75 -2.61,5.09 -4.56,6.99 -1.96,1.75 -4.18,3.12 -6.64,4.13 -2.47,1.01 -5.14,1.54 -8,1.61 -4.93,-0.14 -9.27,-1.66 -13.03,-4.56l0 0.05c-1.98,-1.52 -3.57,-3.34 -4.79,-5.45 -1.24,-2.12 -2.12,-4.56 -2.67,-7.33 -0.07,-0.18 -0.05,-0.32 0.07,-0.46 0.12,-0.14 0.28,-0.21 0.49,-0.21l10.56 0c0.23,0 0.42,0.14 0.56,0.42 1.55,3.85 4.49,5.79 8.79,5.79 6.11,-0.04 9.27,-3.6 9.52,-10.72l0 -6.14c-2.28,0.69 -4.54,1.22 -6.78,1.59 -2.24,0.39 -4.34,0.55 -6.3,0.48 -4.77,0.11 -8.88,-1.63 -12.36,-5.17l0.05 0c-3.43,-3.41 -5.09,-8.74 -5.03,-15.98l0 -6.83zm11.49 6.73c0,7.03 3.14,10.59 9.41,10.7 6.15,-0.11 9.31,-3.67 9.52,-10.7l0 -6.06c-0.28,-7.01 -3.44,-10.58 -9.52,-10.7 -6.23,0.16 -9.37,3.73 -9.41,10.7l0 6.06z"/>
   <path id="_1" class="fil3" d="M567.94 602.61c0,-3.34 -0.88,-5.95 -2.65,-7.84 -1.78,-1.87 -4.15,-2.81 -7.12,-2.81 -2.97,0 -5.33,0.94 -7.1,2.81 -1.75,1.89 -2.63,4.5 -2.63,7.84l0 31.31c0,3.37 0.88,5.99 2.63,7.86 1.77,1.85 4.13,2.79 7.1,2.79 2.97,0 5.33,-0.94 7.12,-2.79 1.77,-1.87 2.65,-4.49 2.65,-7.86l0 -31.31zm-31.29 -0.62c0,-6.97 2.19,-12.32 6.57,-16.09 4.34,-3.83 9.32,-5.74 14.96,-5.74 2.79,0 5.44,0.48 7.93,1.47 2.51,0.99 4.84,2.4 7.01,4.27 2.19,1.92 3.83,4.24 4.94,6.9 1.13,2.67 1.68,5.74 1.68,9.18l0 32.54c0,6.92 -2.21,12.29 -6.62,16.09 -4.34,3.8 -9.32,5.69 -14.94,5.69 -5.63,0 -10.61,-1.89 -14.96,-5.69 -4.38,-3.76 -6.57,-9.13 -6.57,-16.09l0 -32.54z"/>
   <path class="fil1" d="M407.23 118.96c-0.3,0 -0.46,-0.16 -0.46,-0.46l0 -54.67c0,-0.31 0.16,-0.47 0.46,-0.47l7.85 0c0.16,0 0.29,0.08 0.39,0.23l24.03 37.85 0 -37.61c0,-0.31 0.16,-0.47 0.47,-0.47l8.31 0c0.31,0 0.46,0.16 0.46,0.47l0 54.67c0,0.3 -0.14,0.46 -0.46,0.46l-7.82 0c-0.16,0 -0.29,-0.08 -0.39,-0.23l-24.11 -37.85 0 37.63c0,0.3 -0.14,0.46 -0.42,0.46l-8.32 0z"/>
   <path id="_1_0" class="fil1" d="M490.64 118.96c-0.31,0 -0.47,-0.16 -0.47,-0.46l0 -23.43 -20.79 0 0 23.43c0,0.3 -0.16,0.46 -0.46,0.46l-8.28 0c-0.3,0 -0.46,-0.16 -0.46,-0.46l0 -54.67c0,-0.31 0.16,-0.47 0.46,-0.47l8.28 0c0.3,0 0.46,0.16 0.46,0.47l0 22.96 20.79 0 0 -22.96c0,-0.31 0.16,-0.47 0.47,-0.47l8.27 0c0.31,0 0.47,0.16 0.47,0.47l0 54.67c0,0.3 -0.16,0.46 -0.47,0.46l-8.27 0z"/>
   <path id="_2" class="fil1" d="M505.91 118.92c-0.18,0 -0.31,-0.07 -0.38,-0.2 -0.08,-0.12 -0.09,-0.26 -0.04,-0.42l19.99 -54.71c0.05,-0.21 0.17,-0.31 0.38,-0.31l6.82 0c0.08,0 0.17,0.04 0.26,0.1 0.08,0.07 0.14,0.13 0.17,0.21l19.95 54.71c0.05,0.16 0.04,0.3 -0.04,0.42 -0.08,0.13 -0.2,0.2 -0.34,0.2l-8.74 0c-0.21,0 -0.34,-0.1 -0.39,-0.3l-4.12 -12.06 -20.15 0c-0.72,2.06 -1.42,4.08 -2.11,6.04 -0.7,1.97 -1.41,3.97 -2.12,6.02 -0.03,0.07 -0.08,0.14 -0.17,0.21 -0.09,0.07 -0.17,0.09 -0.25,0.09l-8.74 0zm30.79 -20.56c-0.05,-0.18 -0.12,-0.36 -0.21,-0.57 -0.09,-0.21 -0.16,-0.38 -0.21,-0.53 -0.43,-1.25 -0.83,-2.4 -1.19,-3.45 -0.35,-1.05 -0.68,-1.98 -0.95,-2.77 -0.18,-0.51 -0.35,-1 -0.52,-1.48 -0.16,-0.48 -0.33,-0.94 -0.47,-1.37 -0.13,-0.42 -0.26,-0.8 -0.39,-1.17 -0.12,-0.36 -0.25,-0.73 -0.38,-1.08 -0.23,-0.74 -0.47,-1.48 -0.7,-2.21 -0.25,-0.74 -0.49,-1.5 -0.74,-2.29 -0.13,-0.35 -0.26,-0.74 -0.4,-1.19 -0.14,-0.43 -0.29,-0.89 -0.44,-1.37 -0.08,-0.26 -0.13,-0.46 -0.17,-0.6 -0.04,-0.13 -0.08,-0.27 -0.13,-0.42 -0.05,-0.14 -0.12,-0.3 -0.17,-0.47 -0.07,-0.18 -0.16,-0.44 -0.25,-0.77 -0.29,0.83 -0.55,1.61 -0.78,2.33 -0.25,0.7 -0.47,1.37 -0.68,1.98 -0.05,0.16 -0.09,0.29 -0.12,0.42 -0.01,0.13 -0.05,0.26 -0.1,0.39 -0.13,0.43 -0.26,0.83 -0.4,1.21 -0.14,0.39 -0.27,0.77 -0.4,1.15 -0.13,0.4 -0.25,0.81 -0.38,1.19 -0.13,0.38 -0.26,0.75 -0.38,1.11 -0.26,0.77 -0.52,1.56 -0.8,2.41 -0.26,0.83 -0.56,1.71 -0.89,2.63 -0.34,0.91 -0.68,1.9 -1.03,2.96 -0.36,1.06 -0.82,2.38 -1.38,3.99l14.65 0zm-21.02 -39.92c-0.23,0 -0.38,-0.09 -0.42,-0.3 -0.05,-0.21 0,-0.36 0.14,-0.5l11.23 -8.89 5.14 0 11.37 8.89c0.18,0.13 0.23,0.29 0.17,0.5 -0.05,0.21 -0.21,0.3 -0.43,0.3l-6.41 0 -7.63 -4.12c-1.12,0.69 -2.25,1.37 -3.4,2.06 -1.15,0.69 -2.28,1.38 -3.4,2.06l-6.37 0zm9.92 75.55c-0.29,0 -0.43,-0.14 -0.43,-0.42l0 -7.36c0,-0.29 0.14,-0.43 0.43,-0.43l7.4 0c0.25,0 0.38,0.14 0.38,0.43l0 7.36c0,0.27 -0.13,0.42 -0.38,0.42l-7.4 0z"/>
   <path id="_3" class="fil1" d="M569.4 118.96c-0.31,0 -0.47,-0.16 -0.47,-0.46l0 -46.86 -14.54 0c-0.3,0 -0.46,-0.16 -0.46,-0.46l0 -7.36c0,-0.31 0.16,-0.47 0.46,-0.47l38.24 0c0.3,0 0.46,0.16 0.46,0.47l0 7.36c0,0.3 -0.16,0.46 -0.46,0.46l-14.51 0 0 46.86c0,0.3 -0.14,0.46 -0.46,0.46l-8.27 0z"/>
   <path id="_4" class="fil1" d="M627.28 118.96c-0.31,0 -0.47,-0.16 -0.47,-0.46l0 -46.86 -14.54 0c-0.3,0 -0.46,-0.16 -0.46,-0.46l0 -7.36c0,-0.31 0.16,-0.47 0.46,-0.47l38.24 0c0.3,0 0.46,0.16 0.46,0.47l0 7.36c0,0.3 -0.16,0.46 -0.46,0.46l-14.51 0 0 46.86c0,0.3 -0.14,0.46 -0.46,0.46l-8.27 0z"/>
   <path id="_5" class="fil1" d="M651.62 118.92c-0.18,0 -0.31,-0.07 -0.38,-0.2 -0.08,-0.12 -0.09,-0.26 -0.04,-0.42l19.99 -54.71c0.05,-0.21 0.17,-0.31 0.38,-0.31l6.82 0c0.08,0 0.17,0.04 0.26,0.1 0.08,0.07 0.14,0.13 0.17,0.21l19.95 54.71c0.05,0.16 0.04,0.3 -0.04,0.42 -0.08,0.13 -0.2,0.2 -0.34,0.2l-8.74 0c-0.21,0 -0.34,-0.1 -0.39,-0.3l-4.12 -12.06 -20.15 0c-0.72,2.06 -1.42,4.08 -2.11,6.04 -0.7,1.97 -1.41,3.97 -2.12,6.02 -0.03,0.07 -0.08,0.14 -0.17,0.21 -0.09,0.07 -0.17,0.09 -0.25,0.09l-8.74 0zm30.79 -20.56c-0.05,-0.18 -0.12,-0.36 -0.21,-0.57 -0.09,-0.21 -0.16,-0.38 -0.21,-0.53 -0.43,-1.25 -0.83,-2.4 -1.19,-3.45 -0.35,-1.05 -0.68,-1.98 -0.95,-2.77 -0.18,-0.51 -0.35,-1 -0.52,-1.48 -0.16,-0.48 -0.33,-0.94 -0.47,-1.37 -0.13,-0.42 -0.26,-0.8 -0.39,-1.17 -0.12,-0.36 -0.25,-0.73 -0.38,-1.08 -0.23,-0.74 -0.47,-1.48 -0.7,-2.21 -0.25,-0.74 -0.49,-1.5 -0.74,-2.29 -0.13,-0.35 -0.26,-0.74 -0.4,-1.19 -0.14,-0.43 -0.29,-0.89 -0.44,-1.37 -0.08,-0.26 -0.13,-0.46 -0.17,-0.6 -0.04,-0.13 -0.08,-0.27 -0.13,-0.42 -0.05,-0.14 -0.12,-0.3 -0.17,-0.47 -0.07,-0.18 -0.16,-0.44 -0.25,-0.77 -0.29,0.83 -0.55,1.61 -0.78,2.33 -0.25,0.7 -0.47,1.37 -0.68,1.98 -0.05,0.16 -0.09,0.29 -0.12,0.42 -0.01,0.13 -0.05,0.26 -0.1,0.39 -0.13,0.43 -0.26,0.83 -0.4,1.21 -0.14,0.39 -0.27,0.77 -0.4,1.15 -0.13,0.4 -0.25,0.81 -0.38,1.19 -0.13,0.38 -0.26,0.75 -0.38,1.11 -0.26,0.77 -0.52,1.56 -0.8,2.41 -0.26,0.83 -0.56,1.71 -0.89,2.63 -0.34,0.91 -0.68,1.9 -1.03,2.96 -0.36,1.06 -0.82,2.38 -1.38,3.99l14.65 0zm-21.02 -39.92c-0.23,0 -0.38,-0.09 -0.42,-0.3 -0.05,-0.21 0,-0.36 0.14,-0.5l11.23 -8.89 5.14 0 11.37 8.89c0.18,0.13 0.23,0.29 0.17,0.5 -0.05,0.21 -0.21,0.3 -0.43,0.3l-6.41 0 -7.63 -4.12c-1.12,0.69 -2.25,1.37 -3.4,2.06 -1.15,0.69 -2.28,1.38 -3.4,2.06l-6.37 0z"/>
   <path id="_6" class="fil1" d="M705.68 118.96c-0.3,0 -0.46,-0.16 -0.46,-0.46l0 -54.67c0,-0.31 0.16,-0.47 0.46,-0.47l7.85 0c0.16,0 0.29,0.08 0.39,0.23l24.03 37.85 0 -37.61c0,-0.31 0.16,-0.47 0.47,-0.47l8.31 0c0.31,0 0.46,0.16 0.46,0.47l0 54.67c0,0.3 -0.14,0.46 -0.46,0.46l-7.82 0c-0.16,0 -0.29,-0.08 -0.39,-0.23l-24.11 -37.85 0 37.63c0,0.3 -0.14,0.46 -0.42,0.46l-8.32 0z"/>
   <path class="fil1" d="M455.63 220.01c-0.3,0 -0.46,-0.16 -0.46,-0.46l0 -54.67c0,-0.31 0.16,-0.47 0.46,-0.47l7.85 0c0.16,0 0.29,0.08 0.39,0.23l24.03 37.85 0 -37.61c0,-0.31 0.16,-0.47 0.47,-0.47l8.31 0c0.31,0 0.46,0.16 0.46,0.47l0 54.67c0,0.3 -0.14,0.46 -0.46,0.46l-7.82 0c-0.16,0 -0.29,-0.08 -0.39,-0.23l-24.11 -37.85 0 37.63c0,0.3 -0.14,0.46 -0.42,0.46l-8.32 0z"/>
   <path id="_1_1" class="fil1" d="M513.7 159.49c-0.22,0 -0.36,-0.09 -0.43,-0.29 -0.07,-0.18 -0.01,-0.34 0.17,-0.47l11.21 -8.89 5.12 0 11.37 8.89c0.17,0.13 0.23,0.29 0.17,0.47 -0.07,0.2 -0.19,0.29 -0.4,0.29l-6.45 0 -7.59 -4.08c-1.12,0.69 -2.25,1.37 -3.4,2.06 -1.15,0.69 -2.27,1.37 -3.39,2.02l-6.38 0zm-6.75 32.28c0,-3.33 0.04,-6.06 0.13,-8.16 0.09,-2.11 0.21,-3.65 0.36,-4.62 0.18,-0.96 0.43,-1.89 0.75,-2.77 0.34,-0.9 0.74,-1.77 1.23,-2.64l-0.04 0c1.33,-2.46 3.46,-4.75 6.41,-6.86 2.98,-2.14 6.68,-3.2 11.11,-3.2 4.38,0 8.05,1.07 11.03,3.2 2.99,2.16 5.16,4.45 6.49,6.86 0.94,1.73 1.58,3.54 1.9,5.42 0.18,0.98 0.31,2.51 0.4,4.62 0.09,2.11 0.13,4.83 0.13,8.16 0,6.54 -0.17,10.81 -0.53,12.82 -0.17,0.99 -0.43,1.94 -0.74,2.83 -0.31,0.89 -0.69,1.75 -1.12,2.55 -1.35,2.45 -3.53,4.74 -6.52,6.88 -3.01,2.11 -6.68,3.17 -11.03,3.17 -4.4,0 -8.1,-1.05 -11.11,-3.17 -2.94,-2.08 -5.08,-4.38 -6.41,-6.88l0.04 0c-0.48,-0.86 -0.89,-1.73 -1.23,-2.6 -0.32,-0.89 -0.57,-1.8 -0.75,-2.77 -0.16,-0.96 -0.27,-2.51 -0.36,-4.64 -0.09,-2.12 -0.13,-4.84 -0.13,-8.18zm9.2 0c0,2.78 0.04,5.05 0.12,6.85 0.08,1.8 0.21,3.13 0.42,3.99 0.21,0.8 0.48,1.58 0.86,2.35 0.36,0.78 0.78,1.46 1.24,2.04 0.81,1.07 1.89,1.98 3.24,2.72 1.36,0.75 2.98,1.13 4.88,1.13 1.89,0 3.5,-0.38 4.84,-1.13 1.36,-0.74 2.42,-1.65 3.2,-2.72 1.07,-1.3 1.77,-2.76 2.1,-4.39 0.42,-1.63 0.61,-5.24 0.61,-10.84 0,-2.77 -0.05,-5.05 -0.16,-6.85 -0.09,-1.8 -0.25,-3.11 -0.46,-3.95 -0.17,-0.82 -0.44,-1.62 -0.79,-2.38 -0.36,-0.78 -0.78,-1.47 -1.26,-2.08 -0.38,-0.48 -0.85,-0.95 -1.39,-1.41 -0.55,-0.47 -1.16,-0.86 -1.85,-1.21 -0.69,-0.34 -1.43,-0.61 -2.25,-0.83 -0.81,-0.22 -1.68,-0.32 -2.59,-0.32 -1.9,0 -3.53,0.38 -4.88,1.15 -1.35,0.75 -2.44,1.64 -3.24,2.63 -0.48,0.61 -0.9,1.3 -1.26,2.08 -0.35,0.77 -0.62,1.56 -0.83,2.38 -0.21,0.86 -0.34,2.2 -0.42,4 -0.08,1.81 -0.12,4.08 -0.12,6.8zm6.9 43.26c-0.27,0 -0.42,-0.14 -0.42,-0.42l0 -7.36c0,-0.29 0.14,-0.43 0.42,-0.43l7.4 0c0.26,0 0.39,0.14 0.39,0.43l0 7.36c0,0.27 -0.13,0.42 -0.39,0.42l-7.4 0z"/>
   <path id="_2_2" class="fil1" d="M556.59 220.01c-0.3,0 -0.46,-0.16 -0.46,-0.46l0 -54.67c0,-0.31 0.16,-0.47 0.46,-0.47l8.28 0c0.3,0 0.46,0.16 0.46,0.47l0 54.67c0,0.3 -0.16,0.46 -0.46,0.46l-8.28 0z"/>
   <path id="_3_3" class="fil1" d="M595.58 220.01c-0.3,0 -0.46,-0.16 -0.46,-0.46l0 -54.67c0,-0.31 0.16,-0.47 0.46,-0.47l21.22 0c5.37,0 9.48,1.45 12.36,4.31 2.85,2.83 4.27,6.45 4.27,10.84 0,2.42 -0.56,4.66 -1.68,6.72 -1.02,1.93 -2.9,3.61 -5.68,5.04 2.57,0.81 4.54,2.37 5.95,4.69 0.73,1.28 1.3,2.58 1.69,3.91 0.39,1.34 0.6,2.72 0.6,4.14 0,4.86 -1.58,8.74 -4.7,11.64 -3.1,2.88 -6.75,4.31 -10.95,4.31l-23.08 0zm8.74 -24.26l0 15.56 12.32 0c2.88,0 5.01,-0.78 6.41,-2.33 1.38,-1.55 2.06,-3.37 2.06,-5.46 0,-2.03 -0.68,-3.84 -2.06,-5.42 -1.32,-1.58 -3.45,-2.36 -6.41,-2.36l-12.32 0zm0 -23.05l0 14.77 11.56 0c2.87,0 4.96,-0.72 6.29,-2.14 1.37,-1.41 2.06,-3.14 2.06,-5.24 0,-2.06 -0.69,-3.79 -2.06,-5.18 -1.38,-1.47 -3.48,-2.21 -6.29,-2.21l-11.56 0z"/>
   <path id="_4_4" class="fil1" d="M637.85 219.98c-0.18,0 -0.31,-0.07 -0.38,-0.2 -0.08,-0.12 -0.09,-0.26 -0.04,-0.42l19.99 -54.71c0.05,-0.21 0.17,-0.31 0.38,-0.31l6.82 0c0.08,0 0.17,0.04 0.26,0.1 0.08,0.07 0.14,0.13 0.17,0.21l19.95 54.71c0.05,0.16 0.04,0.3 -0.04,0.42 -0.08,0.13 -0.2,0.2 -0.34,0.2l-8.74 0c-0.21,0 -0.34,-0.1 -0.39,-0.3l-4.12 -12.06 -20.15 0c-0.72,2.06 -1.42,4.08 -2.11,6.04 -0.7,1.97 -1.41,3.97 -2.12,6.02 -0.03,0.07 -0.08,0.14 -0.17,0.21 -0.09,0.07 -0.17,0.09 -0.25,0.09l-8.74 0zm30.79 -20.56c-0.05,-0.18 -0.12,-0.36 -0.21,-0.57 -0.09,-0.21 -0.16,-0.38 -0.21,-0.53 -0.43,-1.25 -0.83,-2.4 -1.19,-3.45 -0.35,-1.05 -0.68,-1.98 -0.95,-2.77 -0.18,-0.51 -0.35,-1 -0.52,-1.48 -0.16,-0.48 -0.33,-0.94 -0.47,-1.37 -0.13,-0.42 -0.26,-0.8 -0.39,-1.17 -0.12,-0.36 -0.25,-0.73 -0.38,-1.08 -0.23,-0.74 -0.47,-1.48 -0.7,-2.21 -0.25,-0.74 -0.49,-1.5 -0.74,-2.29 -0.13,-0.35 -0.26,-0.74 -0.4,-1.19 -0.14,-0.43 -0.29,-0.89 -0.44,-1.37 -0.08,-0.26 -0.13,-0.46 -0.17,-0.6 -0.04,-0.13 -0.08,-0.27 -0.13,-0.42 -0.05,-0.14 -0.12,-0.3 -0.17,-0.47 -0.07,-0.18 -0.16,-0.44 -0.25,-0.77 -0.29,0.83 -0.55,1.61 -0.78,2.33 -0.25,0.7 -0.47,1.37 -0.68,1.98 -0.05,0.16 -0.09,0.29 -0.12,0.42 -0.01,0.13 -0.05,0.26 -0.1,0.39 -0.13,0.43 -0.26,0.83 -0.4,1.21 -0.14,0.39 -0.27,0.77 -0.4,1.15 -0.13,0.4 -0.25,0.81 -0.38,1.19 -0.13,0.38 -0.26,0.75 -0.38,1.11 -0.26,0.77 -0.52,1.56 -0.8,2.41 -0.26,0.83 -0.56,1.71 -0.89,2.63 -0.34,0.91 -0.68,1.9 -1.03,2.96 -0.36,1.06 -0.82,2.38 -1.38,3.99l14.65 0zm-5.04 -39.92c-0.05,0 -0.1,-0.01 -0.18,-0.05 -0.08,-0.04 -0.13,-0.07 -0.16,-0.09l-10.53 -11.15c-0.14,-0.14 -0.18,-0.31 -0.09,-0.5 0.09,-0.17 0.23,-0.26 0.44,-0.26l8.39 0c0.16,0 0.29,0.08 0.39,0.22l7.97 11.15c0.08,0.17 0.08,0.34 0.01,0.47 -0.07,0.14 -0.2,0.21 -0.39,0.21l-5.85 0z"/>
   <path id="_5_5" class="fil1" d="M691.8 220.01c-0.3,0 -0.46,-0.16 -0.46,-0.46l0 -54.67c0,-0.31 0.16,-0.47 0.46,-0.47l8.28 0c0.3,0 0.46,0.16 0.46,0.47l0 54.67c0,0.3 -0.16,0.46 -0.46,0.46l-8.28 0z"/>
   <path class="fil1" d="M282.76 329.38c-0.03,0 -0.08,-0.01 -0.16,-0.04 -0.08,-0.03 -0.12,-0.07 -0.14,-0.12 -2.07,-2.27 -3.84,-4.65 -5.35,-7.15 -1.5,-2.51 -2.76,-5.14 -3.82,-7.92 -0.99,-2.8 -1.73,-5.55 -2.24,-8.24 -0.51,-2.7 -0.77,-5.37 -0.77,-8.01 0,-5.22 1,-10.63 3.01,-16.23 1.05,-2.81 2.32,-5.48 3.82,-7.98 1.51,-2.51 3.28,-4.9 5.35,-7.16 0.03,-0.05 0.07,-0.08 0.14,-0.1 0.08,-0.03 0.13,-0.04 0.16,-0.04l3.09 0c0.16,0 0.27,0.07 0.36,0.18 0.09,0.13 0.09,0.29 0.03,0.46 -2.32,4.84 -4.12,9.81 -5.39,14.93 -1.26,5.12 -1.9,10.43 -1.9,15.95 0,5.51 0.64,10.82 1.9,15.93 1.28,5.09 3.07,10.08 5.39,14.94 0.07,0.14 0.07,0.29 -0.03,0.42 -0.09,0.13 -0.21,0.2 -0.36,0.2l-3.09 0z"/>
   <path id="_1_6" class="fil1" d="M306.19 321.59c-0.23,0 -0.36,-0.1 -0.42,-0.31l-18.05 -54.67c-0.05,-0.16 -0.04,-0.29 0.04,-0.42 0.08,-0.13 0.2,-0.2 0.38,-0.2l8.74 0c0.23,0 0.36,0.12 0.42,0.35l12.1 40.48c2.03,-6.76 4.06,-13.51 6.08,-20.24 2.02,-6.73 4.04,-13.48 6.06,-20.24 0.05,-0.23 0.18,-0.35 0.42,-0.35l8.74 0c0.17,0 0.3,0.07 0.38,0.2 0.08,0.13 0.09,0.26 0.04,0.42l-18.05 54.67c-0.05,0.21 -0.18,0.31 -0.42,0.31l-6.45 0z"/>
   <path id="_2_7" class="fil1" d="M334.93 293.81c0,-3.33 0.05,-6.06 0.13,-8.17 0.09,-2.11 0.21,-3.65 0.36,-4.61 0.18,-0.98 0.43,-1.9 0.77,-2.79 0.33,-0.9 0.73,-1.77 1.22,-2.63l-0.04 0c1.32,-2.47 3.45,-4.77 6.41,-6.88 2.97,-2.14 6.68,-3.2 11.1,-3.2 4.38,0 8.06,1.07 11.03,3.2 3.01,2.16 5.17,4.45 6.49,6.88 0.94,1.72 1.58,3.53 1.91,5.42 0.17,0.96 0.3,2.5 0.39,4.61 0.09,2.11 0.14,4.83 0.14,8.17 0,6.54 -0.18,10.81 -0.53,12.81 -0.18,1 -0.43,1.94 -0.75,2.83 -0.31,0.9 -0.69,1.75 -1.12,2.57 -1.35,2.44 -3.52,4.73 -6.52,6.86 -3,2.11 -6.68,3.17 -11.03,3.17 -4.4,0 -8.1,-1.06 -11.1,-3.17 -2.96,-2.08 -5.09,-4.38 -6.41,-6.86l0.04 0c-0.49,-0.87 -0.9,-1.75 -1.22,-2.62 -0.34,-0.87 -0.59,-1.8 -0.77,-2.77 -0.16,-0.96 -0.27,-2.5 -0.36,-4.62 -0.08,-2.14 -0.13,-4.86 -0.13,-8.19zm9.19 0c0,2.77 0.04,5.05 0.12,6.85 0.08,1.8 0.22,3.12 0.42,3.99 0.21,0.79 0.49,1.58 0.86,2.34 0.36,0.78 0.78,1.46 1.24,2.05 0.82,1.07 1.9,1.98 3.24,2.72 1.35,0.75 2.98,1.13 4.88,1.13 1.89,0 3.5,-0.38 4.85,-1.13 1.35,-0.74 2.42,-1.65 3.22,-2.72 1.07,-1.3 1.76,-2.76 2.1,-4.39 0.4,-1.63 0.61,-5.24 0.61,-10.84 0,-2.77 -0.05,-5.05 -0.16,-6.85 -0.1,-1.78 -0.26,-3.11 -0.46,-3.95 -0.18,-0.82 -0.46,-1.61 -0.81,-2.38 -0.35,-0.78 -0.77,-1.47 -1.26,-2.08 -0.38,-0.48 -0.83,-0.95 -1.38,-1.41 -0.55,-0.46 -1.17,-0.86 -1.86,-1.2 -0.68,-0.35 -1.43,-0.63 -2.24,-0.85 -0.82,-0.22 -1.68,-0.33 -2.6,-0.33 -1.9,0 -3.53,0.38 -4.88,1.15 -1.34,0.77 -2.42,1.64 -3.24,2.63 -0.48,0.61 -0.9,1.3 -1.25,2.08 -0.36,0.77 -0.64,1.56 -0.85,2.38 -0.2,0.86 -0.34,2.2 -0.42,4.01 -0.08,1.8 -0.12,4.06 -0.12,6.79zm-1.15 -34.19c-0.3,0 -0.43,-0.16 -0.38,-0.46 0.18,-1.25 0.49,-2.38 0.94,-3.4 0.44,-1.02 1,-1.91 1.69,-2.71 0.69,-0.72 1.48,-1.26 2.41,-1.65 0.91,-0.4 1.87,-0.6 2.89,-0.6 0.47,0 0.91,0.03 1.34,0.08 0.43,0.05 0.86,0.16 1.3,0.31 0.46,0.14 0.89,0.3 1.32,0.46 0.42,0.14 0.77,0.27 1.04,0.38 0.9,0.46 1.69,0.81 2.41,1.03 0.48,0.23 1.05,0.35 1.72,0.35 0.57,0 1.15,-0.18 1.71,-0.53 0.5,-0.34 0.83,-1.05 1.04,-2.17 0.04,-0.21 0.18,-0.31 0.42,-0.31l3.96 0c0.34,0 0.48,0.16 0.43,0.46 -0.16,1.09 -0.43,2.12 -0.81,3.07 -0.38,0.95 -0.86,1.82 -1.44,2.62 -0.64,0.81 -1.42,1.46 -2.33,1.93 -0.91,0.47 -1.97,0.72 -3.17,0.74 -0.46,0 -0.91,-0.04 -1.35,-0.12 -0.44,-0.08 -0.87,-0.21 -1.28,-0.38l0.04 0c-0.29,-0.05 -0.65,-0.16 -1.11,-0.33 -0.46,-0.17 -0.99,-0.36 -1.6,-0.6 -0.79,-0.35 -1.54,-0.63 -2.25,-0.83 -0.72,-0.21 -1.42,-0.31 -2.1,-0.34 -0.39,0 -0.9,0.17 -1.52,0.53l0.03 -0.04c-0.63,0.4 -0.95,1.12 -0.95,2.14 0,0.25 -0.13,0.38 -0.38,0.38l-4.01 0z"/>
   <path id="_3_8" class="fil1" d="M403.6 321.59c-0.3,0 -0.46,-0.16 -0.46,-0.46l0 -54.67c0,-0.31 0.16,-0.47 0.46,-0.47l7.85 0c0.16,0 0.29,0.08 0.39,0.23l24.03 37.85 0 -37.61c0,-0.31 0.16,-0.47 0.47,-0.47l8.31 0c0.31,0 0.46,0.16 0.46,0.47l0 54.67c0,0.3 -0.14,0.46 -0.46,0.46l-7.82 0c-0.16,0 -0.29,-0.08 -0.39,-0.23l-24.11 -37.85 0 37.63c0,0.3 -0.14,0.46 -0.42,0.46l-8.32 0z"/>
   <path id="_4_9" class="fil1" d="M474.76 299.35c-0.3,0 -0.46,-0.16 -0.46,-0.46l0 -7.87c0,-0.27 0.16,-0.42 0.46,-0.42l19.42 0c0.31,0 0.47,0.14 0.47,0.42l0 11.15c0,5.61 -1.94,10.33 -5.81,14.12 -3.91,3.84 -8.63,5.76 -14.16,5.76 -4.4,0 -8.1,-1.06 -11.1,-3.17 -2.96,-2.08 -5.09,-4.38 -6.41,-6.86l0.04 0c-0.49,-0.87 -0.9,-1.75 -1.22,-2.62 -0.34,-0.87 -0.59,-1.8 -0.77,-2.77 -0.16,-0.96 -0.27,-2.5 -0.36,-4.62 -0.08,-2.14 -0.13,-4.86 -0.13,-8.19 0,-3.33 0.05,-6.06 0.13,-8.17 0.09,-2.11 0.21,-3.65 0.36,-4.61 0.18,-0.98 0.43,-1.9 0.77,-2.79 0.33,-0.9 0.73,-1.77 1.22,-2.63l-0.04 0c1.32,-2.47 3.45,-4.77 6.41,-6.88 2.97,-2.14 6.68,-3.2 11.1,-3.2 5.3,0 9.68,1.63 13.13,4.88 3.52,3.26 5.69,7.15 6.52,11.68 0.05,0.14 0.03,0.27 -0.08,0.38 -0.09,0.11 -0.22,0.16 -0.38,0.16l-8.74 0c-0.22,0 -0.36,-0.1 -0.42,-0.31 -0.34,-1.02 -0.81,-1.97 -1.42,-2.84 -0.6,-0.87 -1.35,-1.69 -2.24,-2.46 -1.68,-1.5 -3.8,-2.25 -6.38,-2.25 -1.9,0 -3.53,0.38 -4.88,1.15 -1.34,0.77 -2.42,1.64 -3.24,2.63 -0.48,0.61 -0.9,1.3 -1.25,2.08 -0.36,0.77 -0.64,1.56 -0.85,2.38 -0.2,0.86 -0.34,2.2 -0.42,4.01 -0.08,1.8 -0.12,4.06 -0.12,6.79 0,2.77 0.04,5.05 0.12,6.85 0.08,1.8 0.22,3.12 0.42,3.99 0.21,0.79 0.49,1.58 0.86,2.34 0.36,0.78 0.78,1.46 1.24,2.05 0.82,1.07 1.9,1.98 3.24,2.72 1.35,0.75 2.98,1.13 4.88,1.13 3.03,0 5.57,-1.03 7.63,-3.09 2.08,-2.07 3.14,-4.77 3.14,-8.09l0 -2.37 -10.69 0z"/>
   <path id="_5_10" class="fil1" d="M503.23 266.46c0,-0.31 0.14,-0.47 0.46,-0.47l8.31 0c0.29,0 0.43,0.16 0.43,0.47l0 35.26c0,3.66 1.02,6.43 3.05,8.31 2.06,1.91 4.62,2.87 7.67,2.87 3,0 5.54,-0.95 7.59,-2.87 2.06,-1.9 3.09,-4.68 3.09,-8.31l0 -35.26c0,-0.31 0.16,-0.47 0.46,-0.47l8.28 0c0.31,0 0.46,0.16 0.46,0.47l0 36.17c0,5.85 -1.94,10.55 -5.83,14.12 -3.84,3.53 -8.52,5.3 -14.04,5.3 -5.55,0 -10.25,-1.77 -14.12,-5.3 -3.87,-3.57 -5.79,-8.27 -5.79,-14.12l0 -36.17z"/>
   <path id="_6_11" class="fil1" d="M564.76 321.59c-0.29,0 -0.42,-0.16 -0.42,-0.46l0 -22.36c-2.75,-5.37 -5.48,-10.72 -8.21,-16.06 -2.72,-5.35 -5.44,-10.7 -8.17,-16.07 -0.08,-0.18 -0.08,-0.33 0,-0.46 0.08,-0.13 0.21,-0.2 0.42,-0.2l8.7 0c0.08,0 0.16,0.04 0.23,0.11 0.07,0.06 0.13,0.12 0.18,0.17l11.23 23.43c1.87,-3.95 3.74,-7.85 5.59,-11.72 1.84,-3.87 3.7,-7.76 5.59,-11.71 0.05,-0.05 0.12,-0.11 0.19,-0.17 0.07,-0.07 0.14,-0.11 0.22,-0.11l8.74 0c0.21,0 0.34,0.07 0.42,0.2 0.08,0.13 0.08,0.27 0,0.46l-16.4 32.13 0 22.36c0,0.3 -0.16,0.46 -0.47,0.46l-7.85 0z"/>
   <path id="_7" class="fil1" d="M595.63 321.59c-0.3,0 -0.46,-0.16 -0.46,-0.46l0 -54.67c0,-0.31 0.16,-0.47 0.46,-0.47l34.96 0c0.3,0 0.46,0.16 0.46,0.47l0 7.85c0,0.3 -0.16,0.46 -0.46,0.46l-26.22 0 0 14.65 22.28 0c0.3,0 0.46,0.16 0.46,0.46l0 7.41c0,0.27 -0.16,0.42 -0.46,0.42l-22.28 0 0 15.19 26.22 0c0.3,0 0.46,0.16 0.46,0.46l0 7.79c0,0.3 -0.16,0.46 -0.46,0.46l-34.96 0zm3.89 -60.52c-0.23,0 -0.38,-0.09 -0.42,-0.3 -0.05,-0.21 0,-0.36 0.14,-0.5l11.23 -8.89 5.14 0 11.37 8.89c0.18,0.13 0.23,0.29 0.17,0.5 -0.07,0.21 -0.21,0.3 -0.43,0.3l-6.42 0 -7.63 -4.12c-1.11,0.69 -2.24,1.37 -3.39,2.06 -1.15,0.69 -2.28,1.38 -3.4,2.06l-6.37 0z"/>
   <path id="_8" class="fil1" d="M639.05 321.59c-0.3,0 -0.46,-0.16 -0.46,-0.46l0 -54.67c0,-0.31 0.16,-0.47 0.46,-0.47l7.85 0c0.16,0 0.29,0.08 0.39,0.23l24.03 37.85 0 -37.61c0,-0.31 0.16,-0.47 0.47,-0.47l8.31 0c0.31,0 0.46,0.16 0.46,0.47l0 54.67c0,0.3 -0.14,0.46 -0.46,0.46l-7.82 0c-0.16,0 -0.29,-0.08 -0.39,-0.23l-24.11 -37.85 0 37.63c0,0.3 -0.14,0.46 -0.42,0.46l-8.32 0z"/>
   <path id="_9" class="fil1" d="M728.94 299.35c-0.3,0 -0.46,-0.16 -0.46,-0.46l0 -7.87c0,-0.27 0.16,-0.42 0.46,-0.42l19.42 0c0.31,0 0.47,0.14 0.47,0.42l0 11.15c0,5.61 -1.94,10.33 -5.81,14.12 -3.91,3.84 -8.63,5.76 -14.16,5.76 -4.4,0 -8.1,-1.06 -11.1,-3.17 -2.96,-2.08 -5.09,-4.38 -6.41,-6.86l0.04 0c-0.49,-0.87 -0.9,-1.75 -1.22,-2.62 -0.34,-0.87 -0.59,-1.8 -0.77,-2.77 -0.16,-0.96 -0.27,-2.5 -0.36,-4.62 -0.08,-2.14 -0.13,-4.86 -0.13,-8.19 0,-3.33 0.05,-6.06 0.13,-8.17 0.09,-2.11 0.21,-3.65 0.36,-4.61 0.18,-0.98 0.43,-1.9 0.77,-2.79 0.33,-0.9 0.73,-1.77 1.22,-2.63l-0.04 0c1.32,-2.47 3.45,-4.77 6.41,-6.88 2.97,-2.14 6.68,-3.2 11.1,-3.2 5.3,0 9.68,1.63 13.13,4.88 3.52,3.26 5.69,7.15 6.52,11.68 0.05,0.14 0.03,0.27 -0.08,0.38 -0.09,0.11 -0.22,0.16 -0.38,0.16l-8.74 0c-0.22,0 -0.36,-0.1 -0.42,-0.31 -0.34,-1.02 -0.81,-1.97 -1.42,-2.84 -0.6,-0.87 -1.35,-1.69 -2.24,-2.46 -1.68,-1.5 -3.8,-2.25 -6.38,-2.25 -1.9,0 -3.53,0.38 -4.88,1.15 -1.34,0.77 -2.42,1.64 -3.24,2.63 -0.48,0.61 -0.9,1.3 -1.25,2.08 -0.36,0.77 -0.64,1.56 -0.85,2.38 -0.2,0.86 -0.34,2.2 -0.42,4.01 -0.08,1.8 -0.12,4.06 -0.12,6.79 0,2.77 0.04,5.05 0.12,6.85 0.08,1.8 0.22,3.12 0.42,3.99 0.21,0.79 0.49,1.58 0.86,2.34 0.36,0.78 0.78,1.46 1.24,2.05 0.82,1.07 1.9,1.98 3.24,2.72 1.35,0.75 2.98,1.13 4.88,1.13 3.03,0 5.57,-1.03 7.63,-3.09 2.08,-2.07 3.14,-4.77 3.14,-8.09l0 -2.37 -10.69 0z"/>
   <path id="_10" class="fil1" d="M758.74 321.59c-0.3,0 -0.46,-0.16 -0.46,-0.46l0 -54.67c0,-0.31 0.16,-0.47 0.46,-0.47l8.28 0c0.3,0 0.46,0.16 0.46,0.47l0 54.67c0,0.3 -0.16,0.46 -0.46,0.46l-8.28 0z"/>
   <path id="_11" class="fil1" d="M773.62 321.55c-0.18,0 -0.31,-0.07 -0.38,-0.2 -0.08,-0.12 -0.09,-0.26 -0.04,-0.42l19.99 -54.71c0.05,-0.21 0.17,-0.31 0.38,-0.31l6.82 0c0.08,0 0.17,0.04 0.26,0.1 0.08,0.07 0.14,0.13 0.17,0.21l19.95 54.71c0.05,0.16 0.04,0.3 -0.04,0.42 -0.08,0.13 -0.2,0.2 -0.34,0.2l-8.74 0c-0.21,0 -0.34,-0.1 -0.39,-0.3l-4.12 -12.06 -20.15 0c-0.72,2.06 -1.42,4.08 -2.11,6.04 -0.7,1.97 -1.41,3.97 -2.12,6.02 -0.03,0.07 -0.08,0.14 -0.17,0.21 -0.09,0.07 -0.17,0.09 -0.25,0.09l-8.74 0zm30.79 -20.56c-0.05,-0.18 -0.12,-0.36 -0.21,-0.57 -0.09,-0.21 -0.16,-0.38 -0.21,-0.53 -0.43,-1.25 -0.83,-2.4 -1.19,-3.45 -0.35,-1.05 -0.68,-1.98 -0.95,-2.77 -0.18,-0.51 -0.35,-1 -0.52,-1.48 -0.16,-0.48 -0.33,-0.94 -0.47,-1.37 -0.13,-0.42 -0.26,-0.8 -0.39,-1.17 -0.12,-0.36 -0.25,-0.73 -0.38,-1.08 -0.23,-0.74 -0.47,-1.48 -0.7,-2.21 -0.25,-0.74 -0.49,-1.5 -0.74,-2.29 -0.13,-0.35 -0.26,-0.74 -0.4,-1.19 -0.14,-0.43 -0.29,-0.89 -0.44,-1.37 -0.08,-0.26 -0.13,-0.46 -0.17,-0.6 -0.04,-0.13 -0.08,-0.27 -0.13,-0.42 -0.05,-0.14 -0.12,-0.3 -0.17,-0.47 -0.07,-0.18 -0.16,-0.44 -0.25,-0.77 -0.29,0.83 -0.55,1.61 -0.78,2.33 -0.25,0.7 -0.47,1.37 -0.68,1.98 -0.05,0.16 -0.09,0.29 -0.12,0.42 -0.01,0.13 -0.05,0.26 -0.1,0.39 -0.13,0.43 -0.26,0.83 -0.4,1.21 -0.14,0.39 -0.27,0.77 -0.4,1.15 -0.13,0.4 -0.25,0.81 -0.38,1.19 -0.13,0.38 -0.26,0.75 -0.38,1.11 -0.26,0.77 -0.52,1.56 -0.8,2.41 -0.26,0.83 -0.56,1.71 -0.89,2.63 -0.34,0.91 -0.68,1.9 -1.03,2.96 -0.36,1.06 -0.82,2.38 -1.38,3.99l14.65 0zm-15.64 -39.92c-0.21,0 -0.34,-0.07 -0.4,-0.21 -0.07,-0.13 -0.05,-0.3 0.03,-0.47l7.97 -11.15c0.1,-0.14 0.22,-0.22 0.38,-0.22l8.4 0c0.2,0 0.35,0.09 0.43,0.26 0.09,0.18 0.07,0.35 -0.09,0.5l-10.52 11.15c-0.03,0.03 -0.08,0.05 -0.16,0.09 -0.08,0.04 -0.14,0.05 -0.2,0.05l-5.83 0z"/>
   <path id="_12" class="fil1" d="M836.42 274.77l0 16.71 11.86 0c2.93,0 5.11,-0.87 6.52,-2.63 1.45,-1.71 2.18,-3.61 2.18,-5.72 0,-3.15 -1.12,-5.46 -3.36,-6.9 -1.44,-0.98 -3.33,-1.46 -5.64,-1.46l-11.56 0zm-8.74 46.82c-0.3,0 -0.46,-0.16 -0.46,-0.46l0 -54.67c0,-0.31 0.16,-0.47 0.46,-0.47l19.84 0c2.19,0 4.26,0.23 6.22,0.69 1.98,0.46 4.09,1.55 6.33,3.28 0.87,0.69 1.67,1.48 2.38,2.38 0.73,0.9 1.38,1.9 1.97,2.99 0.56,1.12 0.99,2.36 1.3,3.7 0.3,1.35 0.46,2.79 0.46,4.31 0,4 -1.5,7.82 -4.51,11.45 -3,3.62 -7.36,5.42 -13.09,5.42l-12.16 0 0 20.92c0,0.3 -0.16,0.46 -0.46,0.46l-8.28 0z"/>
   <path id="_13" class="fil1" d="M872.74 266.38c0.05,0 0.12,0.01 0.2,0.04 0.08,0.03 0.13,0.05 0.16,0.1 3.98,4.48 7.02,9.53 9.08,15.15 1.04,2.77 1.81,5.51 2.3,8.2 0.5,2.7 0.74,5.37 0.74,8.02 0,2.64 -0.25,5.31 -0.74,8.01 -0.49,2.7 -1.26,5.44 -2.3,8.24 -2.08,5.56 -5.12,10.59 -9.08,15.07 -0.03,0.05 -0.08,0.09 -0.16,0.12 -0.08,0.03 -0.14,0.04 -0.2,0.04l-3.05 0c-0.18,0 -0.31,-0.07 -0.4,-0.2 -0.09,-0.13 -0.09,-0.27 -0.01,-0.42 2.24,-4.83 4.01,-9.81 5.31,-14.9 1.32,-5.11 1.97,-10.43 1.97,-15.97 0,-5.55 -0.65,-10.87 -1.97,-15.99 -1.3,-5.12 -3.07,-10.07 -5.31,-14.89 -0.08,-0.17 -0.08,-0.33 0.01,-0.46 0.09,-0.12 0.22,-0.18 0.4,-0.18l3.05 0z"/>
  </g>
 </g>
</svg>
