<?xml version="1.0" encoding="UTF-8" standalone="no"?>
<svg
   xmlns:dc="http://purl.org/dc/elements/1.1/"
   xmlns:cc="http://creativecommons.org/ns#"
   xmlns:rdf="http://www.w3.org/1999/02/22-rdf-syntax-ns#"
   xmlns:svg="http://www.w3.org/2000/svg"
   xmlns="http://www.w3.org/2000/svg"
   xmlns:sodipodi="http://sodipodi.sourceforge.net/DTD/sodipodi-0.dtd"
   xmlns:inkscape="http://www.inkscape.org/namespaces/inkscape"
   width="1320.6937mm"
   height="500mm"
   viewBox="0 0 1320.6937 500"
   version="1.1"
   id="svg848"
   inkscape:version="1.0 (4035a4fb49, 2020-05-01)"
   sodipodi:docname="Vietnam_road_sign_I445f.svg">
  <defs
     id="defs842" />
  <sodipodi:namedview
     id="base"
     pagecolor="#ffffff"
     bordercolor="#666666"
     borderopacity="1.0"
     inkscape:pageopacity="0.0"
     inkscape:pageshadow="2"
     inkscape:zoom="0.18415721"
     inkscape:cx="3501.3265"
     inkscape:cy="2126.5988"
     inkscape:document-units="mm"
     inkscape:current-layer="text2903"
     showgrid="false"
     inkscape:snap-global="false"
     inkscape:window-width="1920"
     inkscape:window-height="1001"
     inkscape:window-x="-9"
     inkscape:window-y="-9"
     inkscape:window-maximized="1"
     fit-margin-top="0"
     fit-margin-left="0"
     fit-margin-right="0"
     fit-margin-bottom="0"
     showguides="true"
     inkscape:measure-start="0,0"
     inkscape:measure-end="0,0"
     inkscape:document-rotation="0" />
  <metadata
     id="metadata845">
    <rdf:RDF>
      <cc:Work
         rdf:about="">
        <dc:format>image/svg+xml</dc:format>
        <dc:type
           rdf:resource="http://purl.org/dc/dcmitype/StillImage" />
        <dc:title></dc:title>
      </cc:Work>
    </rdf:RDF>
  </metadata>
  <g
     inkscape:label="Layer 1"
     inkscape:groupmode="layer"
     id="layer1"
     transform="translate(-1098.5453,606.31145)">
    <path
       cx="150"
       cy="147"
       r="150"
       id="path8376"
       style="opacity:1;fill:#d35f5f;fill-opacity:1;fill-rule:nonzero;stroke:none;stroke-width:3.92256;stroke-linecap:butt;stroke-linejoin:miter;stroke-miterlimit:4;stroke-dasharray:none;stroke-opacity:1;paint-order:stroke fill markers"
       d=""
       inkscape:connector-curvature="0" />
    <g
       aria-label="VỊNH"
       style="font-style:normal;font-variant:normal;font-weight:bold;font-stretch:normal;font-size:299.854px;line-height:0;font-family:Giaothong1;-inkscape-font-specification:'Giaothong1 Bold';letter-spacing:0px;word-spacing:0px;fill:#ffcc00;fill-opacity:1;stroke:none;stroke-width:1.56174"
       id="text3577"
       transform="translate(-4496.0426,2396.6803)"
       inkscape:groupmode="layer">
      <g
         aria-label="VỊNH"
         style="font-style:normal;font-variant:normal;font-weight:bold;font-stretch:normal;font-size:299.854px;line-height:0;font-family:Giaothong1;-inkscape-font-specification:'Giaothong1 Bold';letter-spacing:-2.78077px;word-spacing:0px;fill:#ffcc00;fill-opacity:1;stroke:none;stroke-width:2.43903"
         id="text3665" />
    </g>
    <g
       aria-label="CÔNG TRƯỜNG"
       style="font-style:normal;font-variant:normal;font-weight:bold;font-stretch:normal;font-size:184.173px;line-height:0;font-family:Giaothong1;-inkscape-font-specification:'Giaothong1 Bold';letter-spacing:0px;word-spacing:0.486833px;fill:#ffffff;fill-opacity:1;stroke:none;stroke-width:0.959232"
       id="text2719"
       inkscape:groupmode="layer">
      <g
         aria-label="AHEAD"
         style="font-style:normal;font-variant:normal;font-weight:bold;font-stretch:normal;font-size:187.408px;line-height:0;font-family:Giaothong1;-inkscape-font-specification:'Giaothong1 Bold';letter-spacing:0.00264583px;word-spacing:0px;fill:#ffffff;fill-opacity:1;stroke:none;stroke-width:0.936293"
         id="text2888"
         inkscape:groupmode="layer">
        <g
           aria-label="WORKS"
           style="font-style:normal;font-variant:normal;font-weight:bold;font-stretch:normal;font-size:184.173px;line-height:0;font-family:Giaothong1;-inkscape-font-specification:'Giaothong1 Bold';letter-spacing:0.00529167px;word-spacing:0px;fill:#ffffff;fill-opacity:1;stroke:none;stroke-width:0.898123"
           id="text2903"
           inkscape:groupmode="layer">
          <path
             sodipodi:nodetypes="ccccc"
             d="M 2419.239,-606.31145 H 1098.5453 v 499.99999 H 2419.239 Z"
             style="opacity:1;fill:#0046aa;fill-opacity:1;fill-rule:nonzero;stroke:none;stroke-width:4.58494;stroke-linecap:butt;stroke-linejoin:miter;stroke-miterlimit:10;stroke-dasharray:none;stroke-opacity:1;paint-order:stroke fill markers"
             id="rect7863" />
          <path
             sodipodi:nodetypes="ccccccccccccccc"
             id="path7865"
             style="opacity:1;fill:#ffffff;fill-opacity:1;fill-rule:nonzero;stroke:none;stroke-width:4.54184;stroke-linecap:butt;stroke-linejoin:miter;stroke-miterlimit:10;stroke-dasharray:none;stroke-opacity:1;paint-order:stroke fill markers"
             d="m 1104.6412,-600.22823 v 488.37222 H 2413.924 v -488.37222 z m 9.0559,9.05805 h 35.724 v 470.25672 h -35.724 z m 513.3416,0 h 777.8288 v 470.25672 l -777.8288,5.4e-4 z" />
          <path
             id="path13765"
             style="font-style:normal;font-variant:normal;font-weight:normal;font-stretch:normal;font-size:21.1201px;line-height:1.3;font-family:'Alte DIN 1451 Mittelschrift gepraegt';-inkscape-font-specification:'Alte DIN 1451 Mittelschrift gepraegt';text-align:center;text-anchor:middle;opacity:1;stroke-width:0.264583;fill:#ffffff;fill-opacity:1"
             d="m 2141.3385,-386.66783 c -0.4861,0 -0.7202,-0.25206 -0.7202,-0.7922 v -38.38372 c -4.7153,-9.2129 -9.4091,-18.4059 -14.083,-27.5756 -4.6722,-9.1697 -9.3444,-18.3628 -14.0165,-27.5756 -0.1801,-0.3061 -0.1801,-0.5762 0,-0.7922 0.18,-0.2161 0.3781,-0.3241 0.7202,-0.3241 h 14.9347 c 0.18,0 0.252,0 0.3961,0.198 0.18,0.1801 0.234,0.1801 0.324,0.2521 l 19.2576,40.2166 c 3.2318,-6.7679 6.4186,-13.471 9.564,-20.1074 3.1868,-6.6383 6.397,-13.3413 9.6288,-20.1092 0,0 0.198,-0.18 0.324,-0.2521 0.1801,-0.18 0.2521,-0.198 0.3961,-0.198 h 14.9996 c 0.342,0 0.5941,0.18 0.7201,0.3241 0.1801,0.216 0.1801,0.4861 0,0.7922 l -28.1643,55.1512 v 38.38372 c 0,0.52213 -0.2701,0.7922 -0.7922,0.7922 z m -7.4862,-103.79932 c -0.3421,0 -0.5942,-0.18 -0.7202,-0.3241 0,-0.27 0,-0.5401 0,-0.8462 l 11.7245,-19.1261 c 0.18,-0.2701 0.3961,-0.3961 0.6482,-0.3961 h 17.0304 c 0.3421,0 0.5941,0.18 0.7201,0.4501 0.1801,0.3061 0.1801,0.5942 -0.18,0.8462 l -18.0783,19.1261 c 0,0 -0.18,0.1801 -0.252,0.1981 -0.1801,0 -0.2341,0 -0.3241,0 z m -130.4819,9.1499 c 0,-0.5221 0.252,-0.7922 0.7922,-0.7922 h 14.2793 c 0.4861,0 0.7202,0.2701 0.7202,0.7922 v 60.52377 c 0,6.28716 1.7464,11.04753 5.2411,14.27933 3.536,3.27501 7.9255,4.91162 13.1648,4.91162 5.1529,0 9.4974,-1.63841 13.0353,-4.91162 3.536,-3.27501 5.3059,-8.03539 5.3059,-14.27933 v -60.52377 c 0,-0.5221 0.252,-0.7922 0.7922,-0.7922 h 14.2145 c 0.5221,0 0.7922,0.2701 0.7922,0.7922 v 62.09556 c 0,10.04288 -3.3398,18.12148 -10.0213,24.2358 -6.5932,6.0693 -14.6286,9.10485 -24.1044,9.10485 -9.5189,0 -17.5975,-3.03555 -24.2358,-9.10485 -6.6364,-6.11432 -9.9546,-14.19292 -9.9546,-24.2358 z m 20.0731,-9.2111 c -0.3421,0 -0.5941,-0.18 -0.7201,-0.3241 0,-0.27 0,-0.5401 0,-0.8462 l 11.7263,-19.1261 c 0.18,-0.2701 0.3961,-0.3961 0.6481,-0.3961 h 17.0304 c 0.3421,0 0.5942,0.18 0.7202,0.4681 0.1801,0.3061 0.1801,0.5941 -0.18,0.8462 l -18.0783,19.1261 c 0,0 -0.1801,0.1801 -0.2701,0.1981 -0.18,0 -0.234,0 -0.3241,0 z m -53.0861,103.86052 q -0.7922,0 -0.7922,-0.7922 v -40.21832 h -35.6975 v 40.21832 q 0,0.7922 -0.7921,0.7922 h -14.2128 q -0.7922,0 -0.7922,-0.7922 v -93.86262 q 0,-0.7922 0.7922,-0.7922 h 14.2128 q 0.7921,0 0.7921,0.7922 v 39.4315 h 35.6975 v -39.4315 q 0,-0.7922 0.7922,-0.7922 h 14.2127 q 0.7922,0 0.7922,0.7922 v 93.86262 q 0,0.7922 -0.7922,0.7922 z m -62.8806,-27.77188 q 0.3961,0 0.6482,0.32408 0.27,0.27007 0.18,0.64816 -2.7511,13.36111 -12.1818,20.56649 -4.5857,3.47126 -9.9565,5.2411 -5.3725,1.76444 -11.5948,1.76444 -11.3302,0 -19.0596,-5.43735 -7.5978,-5.37073 -11.0043,-11.78932 -1.1883,-2.22715 -2.0309,-4.4543 -0.8462,-2.29377 -1.3143,-4.78198 -0.8462,-4.8468 -0.8462,-22.00866 0,-8.5809 0.198,-14.0165 0.1981,-5.4373 0.6482,-7.9255 0.4501,-2.49 1.3143,-4.782 0.8462,-2.292 2.0309,-4.5191 3.4047,-6.3538 11.0043,-11.7911 7.6627,-5.5022 19.0596,-5.5022 13.6239,0 22.5325,8.3847 9.0401,8.4495 11.2006,20.0425 0.1801,0.3961 -0.18,0.6482 -0.2521,0.2521 -0.6482,0.2521 h -15.0013 q -0.5941,0 -0.7202,-0.5222 -0.8462,-2.6196 -2.4234,-4.8468 -1.5664,-2.2919 -3.8637,-4.2562 -4.3229,-3.8656 -10.9395,-3.8656 -4.9117,0 -8.3829,1.9661 -3.4731,1.9643 -5.5688,4.5191 -1.2423,1.5664 -2.1605,3.6027 -0.9183,1.9643 -1.4404,4.06 -0.5221,2.2272 -0.7202,6.8777 -0.198,4.6506 -0.198,11.6597 0,7.1388 0.198,11.78932 0.1981,4.58574 0.7202,6.81289 0.5221,2.0309 1.4404,4.06181 0.9722,1.96428 2.1605,3.47126 2.0957,2.75108 5.5688,4.71536 3.4712,1.89947 8.3829,1.89947 11.332,0 17.2266,-12.37986 0.1801,-0.18005 0.3241,-0.25206 0.1981,-0.19805 0.3961,-0.19805 z m 414.1962,150.11757 q -0.7922,0 -0.7922,-0.79219 v -13.49435 q 0,-0.72017 0.7922,-0.72017 h 33.3442 q 0.7922,0 0.7922,0.72017 v 19.12974 q 0,14.47739 -9.9582,24.2394 -10.0879,9.89165 -24.3043,9.89165 -11.3338,0 -19.0649,-5.43734 -7.5997,-5.37253 -11.0061,-11.79292 v 0 q -1.2423,-2.22716 -2.0975,-4.45431 -0.8462,-2.29196 -1.3143,-4.78198 -0.3961,-2.49002 -0.6482,-7.92736 -0.1981,-5.50217 -0.1981,-14.08489 0,-8.58273 0.1981,-14.02007 0.2521,-5.43735 0.6482,-7.92557 0.4501,-2.49001 1.3143,-4.78378 0.8462,-2.29197 2.0975,-4.51912 v 0 q 3.4064,-6.35557 11.0061,-11.79292 7.6663,-5.50216 19.0649,-5.50216 13.6258,0 22.5362,8.38467 9.0401,8.38648 11.2024,20.04617 0.18,0.3961 -0.18,0.64816 -0.2521,0.27007 -0.6482,0.27007 h -15.0013 q -0.5942,0 -0.7202,-0.52213 -0.8462,-2.61965 -2.4252,-4.8468 -1.5664,-2.29377 -3.8656,-4.25806 -4.3228,-3.86556 -10.9395,-3.86556 -4.9134,0 -8.3864,1.96429 -3.4713,1.96609 -5.567,4.52092 -1.2423,1.56639 -2.1624,3.60269 -0.9182,1.96609 -1.4403,4.06181 -0.5221,2.22715 -0.7202,6.8795 -0.198,4.65055 -0.198,11.66149 0,7.14057 0.198,11.79112 0.1981,4.58573 0.7202,6.81289 0.5221,2.0309 1.4403,4.0618 0.9903,1.96609 2.1624,3.47306 2.0957,2.75108 5.567,4.71717 3.473,1.89947 8.3864,1.89947 7.796,0 13.1019,-5.30591 5.3725,-5.30772 5.3725,-13.88864 v -4.06181 z m -121.5661,38.19466 q -0.7922,0 -0.7922,-0.7922 v -93.87884 q 0,-0.7922 0.7922,-0.7922 h 13.4961 q 0.3961,0 0.6482,0.3961 l 41.2734,64.98709 v -64.59459 q 0,-0.7922 0.7922,-0.7922 h 14.2811 q 0.7922,0 0.7922,0.7922 v 93.87884 q 0,0.7922 -0.7922,0.7922 h -13.4295 q -0.3961,0 -0.6482,-0.3961 l -41.403,-64.98709 v 64.59459 q 0,0.7922 -0.7202,0.7922 z m -93.4648,0 q -0.4501,0 -0.6481,-0.32408 -0.1981,-0.32408 0,-0.72018 l 34.3273,-93.94546 q 0.18,-0.52213 0.6481,-0.52213 h 11.7281 q 0.1981,0 0.3961,0.19805 0.2521,0.18004 0.3241,0.32408 l 34.2625,93.94546 q 0.18,0.3961 0,0.72018 -0.1981,0.32408 -0.5942,0.32408 h -15.0013 q -0.5221,0 -0.6481,-0.52213 l -7.0758,-20.70153 h -34.5901 q -1.8347,5.30592 -3.6694,10.41558 -1.7644,5.04485 -3.6026,10.28595 0,0.19805 -0.3241,0.3961 -0.1981,0.18004 -0.3961,0.18004 z m 52.8683,-35.31214 q -0.18,-0.45012 -0.3961,-0.99025 -0.198,-0.52213 -0.3241,-0.91823 -1.1162,-3.21019 -2.0309,-5.89466 -0.9182,-2.75288 -1.6384,-4.78378 -0.4681,-1.31433 -0.9182,-2.55483 -0.3961,-1.24231 -0.7922,-2.35859 -0.3241,-1.04426 -0.6482,-1.96428 -0.324,-0.99025 -0.6481,-1.89947 -0.5942,-1.90128 -1.2423,-3.80075 -0.5942,-1.89947 -1.2423,-3.93037 -0.3241,-0.91823 -0.7202,-2.0309 -0.3241,-1.11628 -0.7202,-2.35859 -0.198,-0.64816 -0.3241,-0.99024 0,-0.3961 -0.198,-0.72018 -0.1801,-0.3961 -0.3241,-0.84621 -0.18,-0.45011 -0.3961,-1.31432 -0.7202,2.16233 -1.3683,3.99699 -0.5942,1.83285 -1.1163,3.40644 -0.1801,0.3961 -0.1981,0.72018 0,0.32408 -0.198,0.64816 -0.3241,1.11627 -0.7202,2.09572 -0.3241,0.99024 -0.6481,1.96608 -0.3241,1.04426 -0.6482,2.03091 -0.3241,0.99024 -0.6482,1.89947 -0.6481,1.96428 -1.3683,4.12662 -0.6482,2.16233 -1.5124,4.52092 -0.8462,2.35858 -1.7644,5.10966 -0.9182,2.68627 -2.3586,6.81289 z m -95.1211,-2.8159 q -0.7922,0 -0.7922,-0.7922 v -13.49614 q 0,-0.72018 0.7922,-0.72018 h 33.346 q 0.7922,0 0.7922,0.72018 v 19.12974 q 0,14.47738 -9.9582,24.2394 -10.0879,9.89165 -24.3043,9.89165 -11.3338,0 -19.0649,-5.43735 -7.5979,-5.37073 -11.0043,-11.79112 v 0 q -1.2423,-2.22715 -2.0975,-4.4561 -0.8462,-2.29197 -1.3144,-4.78199 -0.3961,-2.48821 -0.6481,-7.92736 -0.1981,-5.50216 -0.1981,-14.08489 0,-8.58092 0.1981,-14.01827 0.2701,-5.43734 0.6481,-7.92736 0.4502,-2.49002 1.3144,-4.78198 0.8462,-2.29377 2.0975,-4.52092 v 0 q 3.4064,-6.35558 11.0043,-11.79292 7.6663,-5.50217 19.0649,-5.50217 13.6258,0 22.5362,8.38468 9.0401,8.38648 11.2024,20.04796 0.18,0.3961 -0.1801,0.64817 -0.252,0.25206 -0.6481,0.25206 h -15.0013 q -0.5942,0 -0.7202,-0.52213 -0.8462,-2.62145 -2.4252,-4.8486 -1.5664,-2.29197 -3.8638,-4.25806 -4.3246,-3.86555 -10.9413,-3.86555 -4.9134,0 -8.3846,1.96608 -3.4731,1.96429 -5.5688,4.51912 -1.2423,1.56639 -2.1624,3.60449 -0.9182,1.96429 -1.4403,4.06181 -0.5221,2.22715 -0.7202,6.8777 -0.198,4.65236 -0.198,11.66149 0,7.14057 0.198,11.79292 0.1981,4.58574 0.7202,6.81289 0.5221,2.0309 1.4403,4.0618 0.9903,1.96429 2.1624,3.47126 2.0957,2.75288 5.5688,4.71717 3.4712,1.89947 8.3846,1.89947 7.796,0 13.1019,-5.30591 5.3725,-5.30592 5.3725,-13.88864 v -4.06181 z m -122.2557,38.19285 q -0.7922,0 -0.7922,-0.79219 v -93.87885 q 0,-0.79219 0.7922,-0.79219 h 13.4961 q 0.3961,0 0.6482,0.3961 l 41.2734,64.98889 v -64.5946 q 0,-0.79219 0.7922,-0.79219 h 14.2812 q 0.7921,0 0.7921,0.79219 v 93.87885 q 0,0.79219 -0.7921,0.79219 h -13.4296 q -0.3961,0 -0.6481,-0.39609 l -41.4049,-64.9889 v 64.5946 q 0,0.79219 -0.7202,0.79219 z m -118.8384,-47.692 c 0,-5.72182 0,-10.39578 0.198,-14.02008 0.1801,-3.62429 0.3961,-6.26735 0.6482,-7.92736 0.3061,-1.65641 0.7382,-3.2534 1.3143,-4.78198 0.5761,-1.53038 1.2603,-3.03555 2.0957,-4.52092 v 0 c 2.2704,-4.23645 5.9397,-8.16682 11.0062,-11.79112 5.1096,-3.66931 11.4634,-5.50396 19.0631,-5.50396 7.5114,0 13.8238,1.83465 18.9335,5.50396 5.1528,3.71252 8.8654,7.64289 11.1357,11.79112 1.6204,2.97073 2.7079,6.0711 3.2768,9.3029 0.3061,1.65641 0.5222,4.30307 0.6482,7.92736 0.18,3.6243 0.252,8.29826 0.252,14.02008 0,11.22398 -0.306,18.56079 -0.9182,22.01225 -0.3061,1.71042 -0.7382,3.31822 -1.3143,4.8468 -0.5221,1.53038 -1.1523,2.99234 -1.8995,4.38948 -2.3153,4.19324 -6.0495,8.12361 -11.2023,11.79292 -5.1529,3.6243 -11.4653,5.43735 -18.9335,5.43735 -7.5547,0 -13.9103,-1.81305 -19.0632,-5.43735 -5.0664,-3.58108 -8.7357,-7.51326 -11.0061,-11.79292 v 0 c -0.8282,-1.47636 -1.5304,-2.96893 -2.0957,-4.4543 -0.5761,-1.53038 -1.0082,-3.12377 -1.3143,-4.78198 -0.2701,-1.65641 -0.4861,-4.30307 -0.6482,-7.92737 -0.18,-3.66931 -0.198,-8.36487 -0.198,-14.08488 z m 15.7881,0 c 0,4.76037 0,8.69075 0.198,11.79112 0.1801,3.05715 0.3781,5.32932 0.7202,6.81288 0.3421,1.35034 0.8282,2.70787 1.4404,4.06181 0.6481,1.31432 1.3683,2.46841 2.1623,3.47306 1.4043,1.83465 3.2534,3.40644 5.5688,4.71717 2.3136,1.26031 5.1096,1.89947 8.3847,1.89947 3.2318,0 6.0044,-0.63016 8.3198,-1.89947 2.3154,-1.31433 4.15,-2.88252 5.504,-4.71717 1.8328,-2.22715 3.0337,-4.73878 3.6027,-7.53487 0.7021,-2.79429 1.0442,-8.99683 1.0442,-18.604 0,-4.76038 0,-8.66915 -0.27,-11.72811 -0.1801,-3.10037 -0.4321,-5.37073 -0.7922,-6.81288 -0.3061,-1.40435 -0.7742,-2.75109 -1.3684,-4.06181 -0.6121,-1.35033 -1.3323,-2.55483 -2.1605,-3.60269 -0.6482,-0.82821 -1.4584,-1.63841 -2.4252,-2.4234 -0.9182,-0.7922 -1.9643,-1.45836 -3.1436,-2.03091 -1.1883,-0.61215 -2.4684,-1.09827 -3.8655,-1.44035 -1.4044,-0.3961 -2.8826,-0.59415 -4.4543,-0.59415 -3.2769,0 -6.0712,0.64816 -8.3865,1.96429 -2.3136,1.31432 -4.1699,2.81769 -5.5688,4.52092 -0.8282,1.04425 -1.5484,2.24875 -2.1605,3.60269 -0.6122,1.31432 -1.0983,2.66466 -1.4404,4.0618 -0.3421,1.47637 -0.5941,3.77914 -0.7202,6.87951 -0.18,3.10037 -0.198,6.98753 -0.198,11.66149 z m 4.8054,-56.70504 c -0.3421,0 -0.5942,-0.18005 -0.7202,-0.32408 0,-0.27007 0,-0.54014 0,-0.84621 l 11.7263,-19.12974 c 0.18,-0.27007 0.3961,-0.3961 0.6482,-0.3961 h 17.034 c 0.3421,0 0.5941,0.18005 0.7202,0.45011 0.18,0.30608 0.18,0.59415 -0.1801,0.84621 l -18.0801,19.12974 c 0,0 -0.18,0.18004 -0.27,0.19805 -0.1801,0 -0.2341,0 -0.3241,0 z m -51.4496,104.39704 q -0.7922,0 -0.7922,-0.79219 v -93.87885 q 0,-0.79219 0.7922,-0.79219 h 14.2164 q 0.7921,0 0.7921,0.79219 v 93.87885 q 0,0.79219 -0.7921,0.79219 z m -51.1002,-38.19285 q -0.7922,0 -0.7922,-0.7922 v -13.49614 q 0,-0.72018 0.7922,-0.72018 h 33.346 q 0.7922,0 0.7922,0.72018 v 19.12974 q 0,14.47738 -9.9582,24.2394 -10.0897,9.89165 -24.3043,9.89165 -11.3338,0 -19.0649,-5.43735 -7.5997,-5.37073 -11.0061,-11.79112 v 0 q -1.2423,-2.22715 -2.0957,-4.4561 -0.8462,-2.29197 -1.3143,-4.78199 -0.3961,-2.48821 -0.6482,-7.92736 -0.1981,-5.50216 -0.1981,-14.08489 0,-8.58092 0.1981,-14.01827 0.2701,-5.43734 0.6482,-7.92736 0.4681,-2.49002 1.3143,-4.78198 0.8462,-2.29377 2.0957,-4.52092 v 0 q 3.4064,-6.35558 11.0061,-11.79292 7.6645,-5.50217 19.0649,-5.50217 13.6258,0 22.5362,8.38468 9.0401,8.38648 11.2024,20.04796 0.18,0.3961 -0.18,0.64817 -0.2701,0.25206 -0.6482,0.25206 h -15.0031 q -0.5942,0 -0.7202,-0.52213 -0.8462,-2.62145 -2.4234,-4.8486 -1.5664,-2.29197 -3.8656,-4.25806 -4.3228,-3.86555 -10.9395,-3.86555 -4.9134,0 -8.3864,1.96608 -3.4713,1.96429 -5.5688,4.51912 -1.2423,1.56639 -2.1624,3.60449 -0.9182,1.96429 -1.4403,4.06181 -0.5221,2.22715 -0.7202,6.8777 -0.198,4.65236 -0.198,11.66149 0,7.14057 0.198,11.79292 0.1981,4.58574 0.7202,6.81289 0.5221,2.0309 1.4403,4.0618 0.9903,1.96429 2.1624,3.47126 2.0975,2.75288 5.5688,4.71717 3.473,1.89947 8.3864,1.89947 7.796,0 13.1019,-5.30591 5.3725,-5.30592 5.3725,-13.88864 v -4.06181 z" />
          <path
             d="m 1326.8577,-544.16365 -106.0013,29.0826 v -8.5647 h -37.6131 v 357.4101 h 37.6131 v -297.5543 l 49.5627,61.56627 c 7.1856,9.09405 8.7898,9.23628 42.7606,22.18869 l 220.9957,82.42441 c 10.1275,3.89256 14.5818,5.69841 21.2525,5.76143 a 39.310051,39.310037 0 0 0 1.9445,0 39.310051,39.310037 0 0 0 8.2244,-0.86422 c 0.2161,0 0.3961,0 0.6122,0 0.5761,-0.18004 1.2062,-0.30607 1.8472,-0.52213 a 39.310051,39.310037 0 0 0 28.6253,-37.82916 39.310051,39.310037 0 0 0 -18.3808,-33.27584 c 0,0 -0.18,-0.18005 -0.216,-0.18005 z m -61.5483,41.0322 c -13.1072,16.4651 -16.294,25.5645 -15.4784,39.4135 l -28.9746,-27.536 z m 80.2639,3.5991 63.3469,40.8521 c -25.2062,14.8015 -38.706,40.50102 -35.9927,78.8253 l -71.8054,-29.15461 c -7.4808,-44.89589 12.884,-75.72139 44.4512,-90.52279 z m 102.6056,68.2459 47.8451,29.11678 c -24.1098,21.08322 -26.9077,37.1756 -25.7356,61.54644 l -49.4907,-19.7959 c -4.926,-33.98702 10.8387,-58.92319 27.3812,-70.86732 z m 98.9543,69.24872 a 24.8352,24.8352 0 0 1 24.8354,24.83535 24.8352,24.8352 0 0 1 -24.8354,24.83354 24.8352,24.8352 0 0 1 -24.8335,-24.83354 24.8352,24.8352 0 0 1 24.8335,-24.83535 z"
             style="opacity:1;fill:#0046aa;fill-opacity:1;fill-rule:nonzero;stroke:none;stroke-width:1.17326;stroke-linecap:butt;stroke-linejoin:miter;stroke-miterlimit:10;stroke-dasharray:none;stroke-opacity:1;paint-order:stroke fill markers"
             id="rect7663" />
        </g>
      </g>
    </g>
  </g>
</svg>
