<?xml version="1.0" encoding="UTF-8"?>
<svg version="1.1" xmlns="http://www.w3.org/2000/svg" width="2560" height="1197">
<path d="M0 0 C844.8 0 1689.6 0 2560 0 C2560 395.01 2560 790.02 2560 1197 C1715.2 1197 870.4 1197 0 1197 C0 801.99 0 406.98 0 0 Z " fill="#FEFEFE" transform="translate(0,0)"/>
<path d="M0 0 C844.8 0 1689.6 0 2560 0 C2560 395.01 2560 790.02 2560 1197 C1715.2 1197 870.4 1197 0 1197 C0 801.99 0 406.98 0 0 Z M46.125 50.0625 C42.54110414 55.01670898 41.70749396 58.3201533 41.74700034 64.41899228 C41.74394724 65.17378671 41.74089415 65.92858115 41.73774853 66.70624814 C41.72990716 69.25498389 41.73639714 71.80348528 41.74273109 74.35222244 C41.74003974 76.19803252 41.73647307 78.0438415 41.73210663 79.88964838 C41.7226041 84.99603362 41.72566361 90.10234795 41.73066217 95.2087368 C41.73391595 100.75119972 41.72565702 106.29364707 41.71884382 111.83610511 C41.70851293 121.56140048 41.70570536 131.28667593 41.70775604 141.01197624 C41.71065587 154.79782034 41.70348692 168.58364458 41.6934769 182.36948451 C41.67317288 210.37319296 41.66706436 238.37689343 41.66589268 266.38060841 C41.66576318 269.39622964 41.66562731 272.41185088 41.66548586 275.42747211 C41.66545185 276.17577927 41.66541784 276.92408642 41.6653828 277.69506955 C41.66456636 294.26751058 41.66018804 310.83995007 41.65517417 327.41239029 C41.65311749 334.23346546 41.65113745 341.05454065 41.64914167 347.87561584 C41.64892049 348.62925689 41.64869931 349.38289794 41.64847143 350.15937661 C41.63582052 393.35582478 41.62757349 436.55227196 41.62848854 479.74872208 C41.6285201 481.36579897 41.62855157 482.98287587 41.62858296 484.59995277 C41.62872973 491.90114602 41.62890607 499.20233927 41.62909073 506.50353252 C41.62917297 509.7594115 41.62925327 513.01529049 41.62933335 516.27116947 C41.62937414 517.90079701 41.62941618 519.53042455 41.62945947 521.16005209 C41.63082007 572.69444099 41.61618472 624.2288024 41.58837891 675.76318359 C41.58137706 688.74729021 41.57443822 701.73139686 41.56785011 714.71550369 C41.56744436 715.51495061 41.56703862 716.31439752 41.56662057 717.1380701 C41.55419359 741.77170728 41.54666003 766.40534221 41.54413414 791.03898239 C41.54405424 791.81220991 41.54397434 792.58543743 41.54389201 793.38209609 C41.54218558 810.35509503 41.54166303 827.32809384 41.54223277 844.30109286 C41.54242574 850.37414034 41.54252982 856.44718782 41.54259023 862.5202353 C41.54260605 864.03109914 41.54262646 865.54196297 41.54265147 867.0528268 C41.54300434 891.14218144 41.53159919 915.23151258 41.51434384 939.32086048 C41.49705555 963.57949813 41.49265147 987.83810321 41.50586648 1012.09674441 C41.51406604 1027.15323045 41.51155348 1042.20963074 41.49108342 1057.2661087 C41.47913479 1066.86295738 41.48161718 1076.459731 41.49602441 1086.05657615 C41.50383086 1091.53128333 41.50521507 1097.0057904 41.48910971 1102.48048392 C41.474596 1107.45750217 41.47837232 1112.4341529 41.49695744 1117.41115455 C41.5004103 1119.20379327 41.49711007 1120.99646046 41.48635503 1122.78907024 C41.25545336 1136.39366785 41.25545336 1136.39366785 47.78125 1148.0234375 C48.3484375 1148.46945312 48.915625 1148.91546875 49.5 1149.375 C50.0671875 1149.83648438 50.634375 1150.29796875 51.21875 1150.7734375 C55.56029308 1153.76300883 58.59966093 1154.25021147 63.92691787 1154.251233 C64.97986828 1154.25552777 64.97986828 1154.25552777 66.05409043 1154.25990929 C68.42447984 1154.2671092 70.7946131 1154.25997515 73.1650002 1154.25299966 C74.88418667 1154.25523253 76.60337219 1154.25834217 78.32255566 1154.26225147 C83.0854698 1154.27050427 87.84830484 1154.26618531 92.61121906 1154.25995973 C97.79760258 1154.25537372 102.98397231 1154.26235971 108.17035311 1154.26789337 C117.30812536 1154.27602319 126.44587487 1154.27664275 135.58364943 1154.27248149 C149.26331886 1154.26628597 162.94296729 1154.27154273 176.62263519 1154.2790789 C199.93243869 1154.29157507 223.24223224 1154.29450164 246.55203819 1154.29224396 C270.1872322 1154.28998193 293.82241995 1154.29203699 317.45761299 1154.29938889 C318.963286 1154.29985287 320.46895901 1154.30031681 321.97463202 1154.30078072 C328.04528959 1154.30265974 334.11594715 1154.30457233 340.18660471 1154.3065231 C357.30096893 1154.3120146 374.41533332 1154.31677317 391.5296979 1154.32102704 C392.31405296 1154.32122214 393.09840803 1154.32141724 393.90653143 1154.32161825 C438.54406721 1154.332636 483.18160335 1154.33323766 527.81914025 1154.33405997 C534.6440099 1154.33418646 541.46887954 1154.33431951 548.29374919 1154.33446108 C550.00429364 1154.33449646 551.71483809 1154.33453121 553.42538254 1154.33456532 C591.79317039 1154.33534045 630.1609575 1154.33969601 668.52874498 1154.34482583 C677.08825318 1154.34596894 685.64776139 1154.34707688 694.20726959 1154.3481871 C695.05690075 1154.34829734 695.9065319 1154.34840758 696.78190945 1154.34852117 C701.93926913 1154.34919017 707.09662881 1154.3498577 712.25398849 1154.35052429 C714.83750543 1154.35085845 717.42102238 1154.35119347 720.00453933 1154.35152857 C760.17563229 1154.35673262 800.34672532 1154.36119312 840.51781845 1154.36489296 C841.3931346 1154.3649737 842.26845074 1154.36505444 843.17029162 1154.36513763 C898.95893889 1154.37026483 954.74758575 1154.37206253 1010.53623324 1154.37153696 C1013.28006718 1154.37151145 1016.02390111 1154.37148753 1018.76773504 1154.37146414 C1038.04486526 1154.37129945 1057.32199549 1154.37109403 1076.59912571 1154.37087838 C1082.12644673 1154.37081684 1087.65376775 1154.37075671 1093.18108877 1154.37069675 C1097.79159991 1154.37064656 1102.40211105 1154.37059498 1107.01262219 1154.37054053 C1194.09998969 1154.3695176 1281.18735349 1154.37235474 1368.27471924 1154.39123535 C1369.65009672 1154.39153343 1369.65009672 1154.39153343 1371.05325961 1154.39183752 C1399.7020104 1154.3980602 1428.35076107 1154.40479319 1456.99951172 1154.41162109 C1486.39465964 1154.41862378 1515.78980758 1154.42556463 1545.1849556 1154.43214989 C1546.54254741 1154.43245447 1546.54254741 1154.43245447 1547.92756532 1154.4327652 C1604.59671311 1154.44546075 1661.26585984 1154.4533067 1717.935009 1154.45586586 C1718.81006422 1154.45590592 1719.68511943 1154.45594597 1720.58669148 1154.45598724 C1759.01445699 1154.45773777 1797.44222246 1154.45837747 1835.86998801 1154.45780547 C1851.32892727 1154.4575769 1866.78786653 1154.45746477 1882.24680579 1154.45739883 C1884.8100279 1154.45738603 1887.37325001 1154.45736787 1889.93647211 1154.45734853 C1929.15896433 1154.45707543 1968.38145316 1154.45977371 2007.60394382 1154.47143888 C2008.45023958 1154.47169023 2009.29653533 1154.47194157 2010.16847641 1154.47220053 C2023.78288202 1154.47625876 2037.39728756 1154.48054675 2051.01169309 1154.48485415 C2089.64813269 1154.49706812 2128.28456775 1154.50716223 2166.92100954 1154.50291181 C2167.70452237 1154.50282638 2168.4880352 1154.50274095 2169.29529085 1154.50265294 C2186.38658449 1154.50074648 2203.47787775 1154.49771513 2220.56917099 1154.49357951 C2227.38504156 1154.4919468 2234.20091215 1154.49045957 2241.01678276 1154.48901749 C2242.13204539 1154.48877553 2242.13204539 1154.48877553 2243.26983859 1154.48852869 C2266.87443375 1154.48347647 2290.47900371 1154.49072749 2314.08359449 1154.50505312 C2337.95656018 1154.51948831 2361.82947536 1154.52018387 2385.70244291 1154.50397559 C2399.29490801 1154.49517658 2412.88726509 1154.49744167 2426.47972137 1154.51570916 C2435.49084917 1154.52673687 2444.50189581 1154.52343065 2453.51301727 1154.50814359 C2458.63158279 1154.49987046 2463.74993473 1154.49797301 2468.86848774 1154.51364497 C2473.50863367 1154.52773675 2478.14838412 1154.52357001 2482.78850933 1154.50457759 C2484.45636472 1154.50098494 2486.12425132 1154.50412984 2487.79207678 1154.51474985 C2500.87842248 1154.60787879 2500.87842248 1154.60787879 2512.0234375 1148.25390625 C2512.46945313 1147.69574219 2512.91546875 1147.13757812 2513.375 1146.5625 C2513.83648438 1146.00691406 2514.29796875 1145.45132812 2514.7734375 1144.87890625 C2517.8235468 1140.20660507 2518.28879027 1135.92745402 2518.25415033 1130.45680922 C2518.25732766 1129.7007367 2518.26050498 1128.94466418 2518.26377859 1128.16568037 C2518.27202421 1125.61862038 2518.26597869 1123.07179338 2518.26006222 1120.52472973 C2518.2630575 1118.67775401 2518.26692713 1116.83077954 2518.27159455 1114.9838073 C2518.28192248 1109.87884953 2518.27970906 1104.77396073 2518.27553919 1099.66899701 C2518.27318187 1094.12634047 2518.28233042 1088.58370126 2518.29002339 1083.04105121 C2518.30189399 1073.31696961 2518.30623523 1063.59290679 2518.30570221 1053.86881828 C2518.30494748 1040.08483354 2518.31424988 1026.30087013 2518.32634189 1012.51689151 C2518.35086479 984.51654926 2518.36100957 956.5162131 2518.36586904 928.51586135 C2518.36639273 925.50095222 2518.36691857 922.48604308 2518.36744571 919.47113395 C2518.36757477 918.72299989 2518.36770383 917.97486584 2518.3678368 917.20406106 C2518.37074108 900.63358348 2518.37689881 884.06310761 2518.38354302 867.49263117 C2518.38626644 860.6718527 2518.38889748 853.85107418 2518.39152867 847.03029567 C2518.39196504 845.89987741 2518.39196504 845.89987741 2518.39241022 844.74662241 C2518.40903549 801.55413126 2518.42089084 758.36164092 2518.42332363 715.16914654 C2518.42341826 713.55233834 2518.42351327 711.93553015 2518.42360866 710.31872195 C2518.42403641 703.01877742 2518.42444179 695.71883288 2518.42484702 688.41888835 C2518.42502862 685.1635796 2518.42521351 681.90827084 2518.42539909 678.65296209 C2518.42549111 677.02362045 2518.42558151 675.3942788 2518.42567028 673.76493716 C2518.42848506 622.23723551 2518.45021617 570.70957297 2518.48706055 519.18188477 C2518.51452865 480.75971218 2518.5404179 442.33754707 2518.54700565 403.91536427 C2518.54720581 402.75562367 2518.54720581 402.75562367 2518.54741001 401.57245396 C2518.55028211 384.60097783 2518.55169956 367.62950186 2518.55176822 350.65802549 C2518.55180791 344.58555224 2518.55196486 338.51307899 2518.55218274 332.44060574 C2518.55223639 330.92988916 2518.5522845 329.41917258 2518.55232707 327.90845601 C2518.55307098 303.82191243 2518.56874794 279.73540738 2518.59193837 255.64887585 C2518.61518835 231.39371572 2518.62244866 207.13860521 2518.6077575 182.8834368 C2518.59864535 167.82925038 2518.60295031 152.77519912 2518.62971413 137.72102809 C2518.64540141 128.12567905 2518.64305448 118.53044581 2518.6258074 108.93509968 C2518.61648538 103.46123311 2518.61519502 97.9876801 2518.63577347 92.5138373 C2518.65432304 87.53756122 2518.65000868 82.56185764 2518.62718253 77.58560413 C2518.62301338 75.79326104 2518.62728696 74.00087415 2518.64088022 72.20857776 C2519.02695956 59.61365274 2519.02695956 59.61365274 2513 49 C2508.80984212 44.75842534 2504.75710844 42.21196538 2498.73905609 41.74929995 C2496.86268675 41.74880217 2496.86268675 41.74880217 2494.94841097 41.74829433 C2494.24511477 41.74537999 2493.54181857 41.74246564 2492.81721037 41.73946299 C2490.44832143 41.73210481 2488.07968886 41.73904235 2485.7108013 41.74584967 C2483.99032378 41.74349056 2482.26984727 41.74025505 2480.54937285 41.73622141 C2475.78753734 41.72762946 2471.02578012 41.73158837 2466.26394349 41.73746906 C2461.07699051 41.74167947 2455.89005209 41.7343129 2450.70310256 41.72840545 C2441.5658845 41.71961785 2432.42868865 41.71833461 2423.29146739 41.72183973 C2409.61264186 41.72705435 2395.93383808 41.72082359 2382.25501505 41.71232625 C2358.9462602 41.69819411 2335.63751467 41.69364413 2312.32875633 41.69429779 C2288.69559461 41.69493469 2265.06243943 41.6912644 2241.42927933 41.68231773 C2239.92357734 41.6817522 2238.41787535 41.68118676 2236.91217335 41.68062141 C2230.84137266 41.67833382 2224.77057198 41.67601423 2218.69977131 41.67365811 C2201.58523754 41.66702544 2184.47070355 41.66114342 2167.35616934 41.65578258 C2166.57181802 41.65553683 2165.78746671 41.65529108 2164.97934717 41.65503789 C2119.49371728 41.64087798 2074.00808629 41.63761477 2028.52245458 41.63413096 C2022.54983444 41.63367297 2016.57721429 41.63321389 2010.60459415 41.63275199 C2008.89422492 41.63262015 2007.18385568 41.6324891 2005.47348645 41.63235885 C1967.96112933 41.62950028 1930.44877299 41.62355926 1892.93641638 41.61691041 C1876.64739254 41.61402544 1860.35836868 41.61124772 1844.06934482 41.60847133 C1843.21681904 41.60832587 1842.36429327 41.6081804 1841.48593338 41.60803053 C1800.45430295 41.60103314 1759.42267243 41.5948057 1718.39104176 41.5894537 C1717.51575224 41.58933945 1716.64046273 41.58922521 1715.7386493 41.58910751 C1659.95291107 41.58184865 1604.16717318 41.57812692 1548.38143452 41.57674492 C1543.80729572 41.5766306 1539.23315692 41.57651058 1534.65901812 41.57639134 C1519.05451145 41.57598662 1503.45000479 41.57560315 1487.84549813 41.57522071 C1480.47794154 41.57503994 1473.11038494 41.57485617 1465.74282835 41.5746705 C1461.13267458 41.57455449 1456.52252082 41.5744402 1451.91236706 41.57432972 C1364.83057258 41.57223663 1277.74878337 41.56548526 1190.66699219 41.5401001 C1189.75011138 41.53983295 1188.83323057 41.53956579 1187.88856549 41.53929055 C1159.24089574 41.53092845 1130.59322618 41.52198762 1101.94555664 41.51293945 C1072.55144857 41.50365726 1043.15734047 41.49445634 1013.76323223 41.48571873 C1012.85820206 41.48544939 1011.95317189 41.48518006 1011.02071656 41.48490256 C954.35359055 41.46806417 897.68646601 41.45727775 841.01933765 41.45299435 C840.14431598 41.45292751 839.2692943 41.45286067 838.36775682 41.4527918 C799.94151292 41.44986603 761.51526906 41.44830197 723.08902505 41.44823663 C707.63073182 41.44820765 692.17243858 41.44802505 676.71414535 41.4477759 C674.1510338 41.44773677 671.58792225 41.44770419 669.0248107 41.44767293 C629.80424588 41.44716313 590.58368658 41.44285123 551.36312461 41.42716718 C550.09375257 41.42666011 550.09375257 41.42666011 548.79873666 41.42614281 C535.1851218 41.42068476 521.57150707 41.41492784 507.95789235 41.40913959 C469.32386062 41.39272318 430.68983588 41.37888954 392.05580008 41.38295543 C391.27233791 41.38303688 390.48887574 41.38311834 389.6816723 41.38320226 C372.59150218 41.38503193 355.50133263 41.38825945 338.41116304 41.3928586 C331.59575001 41.39467174 324.78033695 41.396302 317.96492386 41.39787483 C317.22146562 41.39805137 316.47800737 41.39822791 315.7120201 41.3984098 C292.10902966 41.40392773 268.50607915 41.39405779 244.90309641 41.37533815 C221.03178389 41.35647175 197.16054967 41.35477168 173.28923292 41.3741926 C159.69771319 41.38471264 146.1063628 41.38139765 132.51485806 41.35807384 C123.50436477 41.34396436 114.49399765 41.34777203 105.48351308 41.36655534 C100.36527724 41.37671168 95.24737546 41.37889756 90.12916027 41.35911978 C85.48927562 41.34133448 80.85000816 41.34637369 76.2101544 41.36994614 C74.54242163 41.37437614 72.8746404 41.37038356 71.20695508 41.35704676 C60.65398695 41.27829614 53.36475133 41.9013825 46.125 50.0625 Z " fill="#000000" transform="translate(0,0)"/>
<path d="M0 0 C1.26034459 0.00464581 1.26034459 0.00464581 2.54615068 0.00938547 C3.43606345 0.00485435 4.32597621 0.00032324 5.24285603 -0.00434518 C8.24394913 -0.01706876 11.24486258 -0.01536357 14.24597979 -0.01371634 C16.39125602 -0.01969758 18.5365301 -0.02650218 20.68180132 -0.03407156 C26.53036097 -0.05180333 32.37886215 -0.05643061 38.22744608 -0.05770314 C41.88976319 -0.05912393 45.55206542 -0.0633927 49.21437883 -0.06869757 C62.0175653 -0.08723797 74.82071004 -0.09536523 87.62390947 -0.09379447 C99.50798544 -0.09259952 111.39187787 -0.11356354 123.27590752 -0.14528179 C133.50472831 -0.1715965 143.73348987 -0.18215509 153.96234417 -0.18088365 C160.05871971 -0.18037744 166.1549331 -0.18586638 172.25127459 -0.20723975 C221.81649664 -0.36888362 221.81649664 -0.36888362 242.05262041 4.276811 C242.95248674 4.48043378 243.85235308 4.68405656 244.77948809 4.89384973 C272.35611539 11.24490862 298.77387602 23.3965378 320.05262041 42.276811 C320.55857744 42.72250436 321.06453447 43.16819772 321.58582354 43.62739694 C353.51427178 71.88969894 374.52590593 107.89229079 390.05262041 147.276811 C390.41629717 148.18269968 390.77997393 149.08858835 391.15467119 150.02192819 C406.0611249 187.40156337 408.87356816 225.86306812 410.16199541 265.65571725 C410.20386728 266.91074108 410.24573915 268.1657649 410.28887987 269.45881975 C411.16625111 296.20876702 411.36248922 322.95002289 411.3133626 349.71357858 C411.30192577 355.98300376 411.30879474 362.25225972 411.32024813 368.52167928 C411.37805959 405.98507172 410.38602735 443.33564954 408.41028643 480.74580514 C408.3613801 481.67602109 408.31247377 482.60623704 408.26208544 483.56464136 C405.14998707 541.04442981 387.98164738 596.25531207 351.05262041 641.276811 C350.62078447 641.81016061 350.18894854 642.34351022 349.74402666 642.89302194 C337.17418103 658.35028863 323.12053306 672.4803683 307.05262041 684.276811 C306.1696126 684.96645944 305.28660479 685.65610788 304.37683916 686.36665475 C278.84346825 705.93319847 248.36752546 714.66953484 217.05262041 719.276811 C216.02756804 719.44719259 215.00251568 719.61757417 213.94640112 719.79311883 C209.60328869 720.33262777 205.39407469 720.42187797 201.02410173 720.4172529 C200.13748458 720.42022402 199.25086743 720.42319514 198.33738309 720.4262563 C195.37876436 720.4348996 192.42018629 720.43644778 189.46155596 720.43794382 C187.33571585 720.44257474 185.20987658 720.44759977 183.08403826 720.45298898 C177.32003981 720.46608043 171.556053 720.47255048 165.79204202 720.47699964 C162.19304085 720.47993299 158.59404285 720.48403809 154.99504328 720.48850381 C143.7396929 720.50216432 132.48434978 720.51184053 121.22899169 720.5157057 C108.22436953 720.5201962 95.21985197 720.53779598 82.21526164 720.5667063 C72.16591334 720.58827469 62.11659459 720.59840723 52.06722337 720.59974682 C46.06225565 720.60079747 40.05738645 720.6067613 34.05244303 720.62456644 C28.41274057 720.64096554 22.77321161 720.64324263 17.1334939 720.63442743 C15.05896209 720.63365291 12.98442124 720.6380539 10.90991259 720.64788568 C8.08847126 720.66047859 5.26765653 720.65479827 2.44622087 720.64430368 C1.61637656 720.65236008 0.78653225 720.66041649 -0.06845886 720.66871703 C-2.34748507 720.6487478 -2.34748507 720.6487478 -5.94737959 720.276811 C-8.12568961 717.00934598 -8.1975032 716.10182394 -8.19807792 712.32191592 C-8.20558847 710.77523183 -8.20558847 710.77523183 -8.21325076 709.1973016 C-8.20856842 708.05864734 -8.20388609 706.91999309 -8.19906187 705.74683416 C-8.20342219 703.93175987 -8.20342219 703.93175987 -8.2078706 702.08001742 C-8.21394118 698.70022721 -8.21097713 695.32065725 -8.2043147 691.94088204 C-8.19926321 688.27196536 -8.20575238 684.60306671 -8.21080136 680.93415254 C-8.21804343 674.49698822 -8.21779418 668.05985741 -8.21270704 661.62269151 C-8.20516296 652.05068686 -8.20899864 642.47871063 -8.21512366 632.90670618 C-8.22567305 615.81450226 -8.22473527 598.72231325 -8.21896583 581.63010789 C-8.21394178 566.67337747 -8.21261802 551.71665253 -8.21501112 536.75992143 C-8.21516389 535.76917995 -8.21531666 534.77843847 -8.21547406 533.75767453 C-8.2160967 529.73630362 -8.2167335 525.71493273 -8.21739359 521.69356183 C-8.22351633 483.9436833 -8.21795707 446.19381429 -8.20719979 408.44393723 C-8.19770733 374.87723706 -8.19855791 341.31055206 -8.20812178 307.74385202 C-8.21882185 270.06307895 -8.2230829 232.38231431 -8.21689725 194.70153993 C-8.21625578 190.68765489 -8.2156301 186.67376985 -8.21501112 182.65988481 C-8.21485297 181.67150656 -8.21469481 180.68312832 -8.21453186 179.66479921 C-8.21225319 164.71375056 -8.21492438 149.76270798 -8.21997023 134.81166017 C-8.22567636 117.8190581 -8.22428559 100.82647334 -8.21340874 83.83387344 C-8.20751675 74.31391724 -8.20718067 64.79399847 -8.21470109 55.27404321 C-8.21916454 48.92585844 -8.21643362 42.57770386 -8.20769155 36.22952359 C-8.20290518 32.60540371 -8.20136645 28.98135854 -8.20850351 25.35724085 C-8.21609076 21.46510225 -8.20842313 17.5730836 -8.19906187 13.68094671 C-8.2037442 12.53995129 -8.20842654 11.39895587 -8.21325076 10.22338483 C-8.20824372 9.19476562 -8.20323668 8.16614641 -8.19807792 7.10635692 C-8.1979424 6.21513093 -8.19780688 5.32390494 -8.19766726 4.4056721 C-7.61747859 -0.52921379 -4.1421182 0.03508921 0 0 Z " fill="#000000" transform="translate(2017.9473795890808,249.723188996315)"/>
<path d="M0 0 C1.6049566 0.03235441 3.21016484 0.05590966 4.81542969 0.06347656 C53.29025852 0.29459871 94.36780939 26.56853527 127.29394531 59.71826172 C135.02564778 67.68222654 141.9448347 76.21168307 148.64013672 85.05322266 C149.09775391 85.6486084 149.55537109 86.24399414 150.02685547 86.85742188 C173.37774972 117.28062829 186.62830407 151.7778318 194.64013672 189.05322266 C194.91664063 190.32842773 194.91664063 190.32842773 195.19873047 191.62939453 C198.26380197 206.23281372 198.8202903 221.19114735 199.64013672 236.05322266 C199.69411621 237.00197266 199.7480957 237.95072266 199.80371094 238.92822266 C202.04103144 279.4259837 201.82878456 320.04143992 201.82524735 360.58626276 C201.82555038 365.67553299 201.83367725 370.76474944 201.84594727 375.85400391 C201.91885476 406.86727107 201.77211462 437.85809657 200.83462358 468.85931158 C200.77420904 470.87448181 200.71656093 472.88973438 200.65897179 474.90498734 C199.63681902 509.70896404 197.05418849 545.54725211 184.69921875 578.40966797 C184.25425049 579.63121582 184.25425049 579.63121582 183.80029297 580.87744141 C183.39242554 581.9461145 183.39242554 581.9461145 182.97631836 583.03637695 C182.5282699 585.72434235 183.17255156 586.79163265 184.64013672 589.05322266 C186.01457026 590.7150102 186.01457026 590.7150102 187.61669922 592.26025391 C188.50035156 593.14100586 188.50035156 593.14100586 189.40185547 594.03955078 C190.01673828 594.6421875 190.63162109 595.24482422 191.26513672 595.86572266 C191.85681641 596.45675781 192.44849609 597.04779297 193.05810547 597.65673828 C196.02959163 600.59934391 199.05176137 603.43250353 202.23657227 606.14306641 C207.35062343 610.60105799 212.0972941 615.40413422 216.87060547 620.22119141 C217.83338711 621.188391 218.79647185 622.15528897 219.75984192 623.12190247 C222.78529867 626.15867232 225.80675979 629.19939782 228.82763672 632.24072266 C232.34297754 635.77976773 235.85999291 639.31711601 239.38125038 642.85027504 C240.77969526 644.25515056 242.17505991 645.66309007 243.57035828 647.0710907 C244.42507217 647.92910782 245.27978607 648.78712494 246.16040039 649.67114258 C246.90682297 650.42280197 247.65324554 651.17446136 248.42228699 651.94889832 C250.65931976 654.13459483 250.65931976 654.13459483 253.35762024 656.20210266 C256.02506076 658.3653959 256.49788516 659.25489709 257.09326172 662.59619141 C256.40549445 667.84338135 253.49301996 671.18159869 250.39013672 675.36572266 C249.75406494 676.24728027 249.11799316 677.12883789 248.46264648 678.03710938 C247.15542456 679.84881308 245.84298661 681.65676448 244.52539062 683.4609375 C242.32401619 686.48789862 240.17062674 689.54604981 238.02416992 692.61206055 C233.4826875 699.09890708 228.85701039 705.52210565 224.20263672 711.92822266 C218.89432324 719.23530082 213.75675726 726.64914796 208.68920898 734.125 C208.17285889 734.88635254 207.65650879 735.64770508 207.12451172 736.43212891 C206.66786133 737.10832275 206.21121094 737.7845166 205.74072266 738.48120117 C204.64013672 740.05322266 204.64013672 740.05322266 203.64013672 741.05322266 C199.84387353 741.53476752 198.18331725 741.45599654 195.06640625 739.14477539 C193.80739502 737.82908569 193.80739502 737.82908569 192.52294922 736.48681641 C192.0620993 736.01510513 191.60124939 735.54339386 191.12643433 735.05738831 C189.65782083 733.548733 188.21116878 732.021006 186.76513672 730.49072266 C184.85631092 728.50517143 182.93960896 726.52730233 181.02294922 724.54931641 C180.55443542 724.06284637 180.08592163 723.57637634 179.60321045 723.07516479 C176.48038865 719.85160459 173.22638091 716.89590358 169.81152344 713.9909668 C164.11252257 708.90518202 158.85173923 703.31082319 153.48535156 697.87792969 C145.13104856 689.41247482 145.13104856 689.41247482 136.26806641 681.48681641 C134.51366517 679.94184879 132.97114235 678.2737001 131.39013672 676.55322266 C130.48263672 675.72822266 129.57513672 674.90322266 128.64013672 674.05322266 C125.09590606 674.29327015 123.57275504 675.87000325 121.26513672 678.42822266 C92.26561548 708.44621136 46.28036435 730.13079194 4.46337891 731.21435547 C3.03798741 731.23382478 1.61250953 731.24763177 0.18701172 731.25634766 C-0.97436058 731.26680115 -0.97436058 731.26680115 -2.15919495 731.27746582 C-4.64280713 731.2947495 -7.12619347 731.30118517 -9.60986328 731.30322266 C-10.45890228 731.30422974 -11.30794128 731.30523682 -12.18270874 731.30627441 C-25.14284008 731.29587462 -37.63647496 730.69446816 -50.35986328 728.05322266 C-51.07190918 727.91932129 -51.78395508 727.78541992 -52.51757812 727.64746094 C-84.77426424 721.56198963 -113.0574706 704.78438171 -136.35986328 682.05322266 C-137.05934082 681.37420898 -137.75881836 680.69519531 -138.47949219 679.99560547 C-156.0560326 662.86936389 -156.0560326 662.86936389 -163.35986328 653.05322266 C-164.09946289 652.06370605 -164.09946289 652.06370605 -164.85400391 651.05419922 C-179.01477099 632.03039291 -191.91732857 611.94208446 -199.57519531 589.35742188 C-200.47036006 586.72874581 -201.39857101 584.1125481 -202.32470703 581.49462891 C-211.0052941 556.61027931 -215.59678852 531.79746085 -217.37158203 505.53369141 C-217.4573349 504.26562653 -217.54308777 502.99756165 -217.63143921 501.69107056 C-218.47922657 488.77668046 -219.07325849 475.86348202 -219.48486328 462.92822266 C-219.52688873 461.62837433 -219.56891418 460.328526 -219.61221313 458.98928833 C-220.53498762 429.57946838 -220.54821688 400.15996815 -220.5474472 370.73825836 C-220.54736497 367.06596286 -220.54872071 363.39366971 -220.55010986 359.72137451 C-220.55358759 333.10740806 -220.3752868 306.49956662 -219.93017578 279.88916016 C-219.91221136 278.74067533 -219.89424694 277.59219051 -219.87573814 276.40890312 C-218.72994049 205.05714153 -208.39085763 135.07877045 -162.35986328 78.05322266 C-161.73966309 77.27640137 -161.73966309 77.27640137 -161.10693359 76.48388672 C-147.75280051 59.88616712 -131.99525977 43.12195465 -114.35986328 31.05322266 C-113.75577637 30.63717773 -113.15168945 30.22113281 -112.52929688 29.79248047 C-97.77072572 19.78218778 -81.56348991 11.83539945 -64.35986328 7.05322266 C-63.20478271 6.72862061 -63.20478271 6.72862061 -62.02636719 6.39746094 C-41.523112 0.7662003 -21.19036702 -0.44079404 0 0 Z " fill="#000000" transform="translate(377.35986328125,242.94677734375)"/>
<path d="M0 0 C0.78810059 0.18804199 1.57620117 0.37608398 2.38818359 0.56982422 C30.53803571 7.57246901 52.9687893 22.40740632 74 42 C74.75023437 42.69609375 75.50046875 43.3921875 76.2734375 44.109375 C116.68571289 82.96187835 135.81915468 141.3617996 137.19691467 196.16261292 C137.57138515 215.44763507 136.85593672 234.02550468 133 253 C132.67854004 254.59376465 132.67854004 254.59376465 132.35058594 256.21972656 C127.9812659 277.22680677 121.27568348 297.14406927 111 316 C110.40960937 317.10730469 109.81921875 318.21460938 109.2109375 319.35546875 C104.16869978 328.50659381 98.35021073 337.10745126 92.515625 345.765625 C89.43877896 350.33266241 86.41912618 354.93285773 83.4375 359.5625 C82.99929932 360.24248047 82.56109863 360.92246094 82.10961914 361.62304688 C81.21043048 363.01876329 80.31142563 364.41459815 79.41259766 365.81054688 C76.82710282 369.81792981 74.22538078 373.81476707 71.625 377.8125 C70.52083263 379.51041621 69.41666597 381.20833288 68.3125 382.90625 C67.76335937 383.75058594 67.21421875 384.59492187 66.6484375 385.46484375 C65.03582619 387.94490238 63.42401072 390.42547611 61.8125 392.90625 C48.62873269 413.20034096 35.39533347 433.46191797 22.1484375 453.71484375 C20.03597231 456.94499506 17.924122 460.17554742 15.8125 463.40625 C8.42254491 474.71219063 1.02757929 486.01482249 -6.375 497.3125 C-6.96486694 498.21276917 -6.96486694 498.21276917 -7.56665039 499.13122559 C-11.61868733 505.3154117 -15.67142812 511.49913559 -19.72549438 517.68199158 C-28.1161051 530.47881084 -36.49684504 543.28161915 -44.828125 556.1171875 C-48.37695886 561.5836447 -51.93850384 567.04178744 -55.5 572.5 C-57.3754614 575.37539969 -59.25076065 578.25090505 -61.12597656 581.12646484 C-62.38814766 583.06181579 -63.65052147 584.99703456 -64.91308594 586.93212891 C-66.73479793 589.72488769 -68.55508287 592.51857136 -70.375 595.3125 C-70.92865234 596.16070313 -71.48230469 597.00890625 -72.05273438 597.8828125 C-72.55869141 598.66011719 -73.06464844 599.43742188 -73.5859375 600.23828125 C-74.0298584 600.91930908 -74.4737793 601.60033691 -74.93115234 602.30200195 C-76.04898483 604.01629817 -76.04898483 604.01629817 -77 606 C-75.91532786 605.99815641 -74.83065573 605.99631283 -73.71311474 605.99441338 C-47.34957974 605.95006108 -20.98604956 605.91717075 5.37751484 605.89637566 C18.12660865 605.88605263 30.87567785 605.87197273 43.62475586 605.84912109 C54.73376439 605.82921859 65.84275511 605.81629103 76.95178097 605.81182301 C82.83669978 605.8092103 88.7215676 605.80304806 94.60647011 605.78853989 C100.14098994 605.77500555 105.67543758 605.77076893 111.20997238 605.77378464 C113.24537612 605.77323261 115.28078218 605.76923056 117.31617165 605.76158905 C120.08715777 605.75169269 122.85786847 605.75401162 125.62886047 605.75949097 C126.44111204 605.75366528 127.25336361 605.7478396 128.09022886 605.74183738 C131.92821733 605.76246339 133.72873881 605.81915921 137 608 C137.37752342 609.90877438 137.37752342 609.90877438 137.38095093 612.28245544 C137.3894104 613.18118378 137.39786987 614.07991211 137.40658569 615.00587463 C137.400513 615.99449997 137.39444031 616.98312531 137.38818359 618.00170898 C137.39606903 619.56036682 137.39606903 619.56036682 137.40411377 621.1505127 C137.41736087 624.59919083 137.40855821 628.04741059 137.3984375 631.49609375 C137.40045703 633.88501576 137.40336745 636.27393717 137.40713501 638.66285706 C137.41156489 643.6757696 137.40510644 648.68852204 137.39111328 653.70141602 C137.37403044 660.13574962 137.38385297 666.56970759 137.40183067 673.00402737 C137.41265839 677.93930402 137.40922662 682.87449127 137.4014473 687.80977058 C137.39944202 690.18250637 137.401916 692.55525021 137.40888596 694.92797661 C137.4164826 698.241836 137.40492035 701.55508285 137.38818359 704.86889648 C137.39425629 705.85549759 137.40032898 706.84209869 137.40658569 707.8585968 C137.39812622 708.76014496 137.38966675 709.66169312 137.38095093 710.59056091 C137.37981985 711.37425269 137.37868877 712.15794447 137.37752342 712.96538448 C136.88413004 715.62446672 136.13950163 716.36082637 134 718 C131.50732416 718.37374616 131.50732416 718.37374616 128.46709347 718.3719368 C127.30934978 718.37852664 126.1516061 718.38511649 124.95877928 718.39190602 C123.68097815 718.38384962 122.40317703 718.37579321 121.08665466 718.36749268 C119.72017947 718.36951598 118.35370569 718.37285412 116.98723656 718.37739825 C113.22386592 718.38607083 109.46074091 718.37595829 105.69739163 718.36285591 C101.64214812 718.35198323 97.58692795 718.3583668 93.53167725 718.36264038 C85.58441947 718.368282 77.63725793 718.35794352 69.69001656 718.34235242 C60.44275555 718.32484279 51.19551339 718.3233938 41.94823838 718.32273683 C25.45383404 718.32104765 8.95947364 718.30521867 -7.53491211 718.28125 C-23.55509811 718.25798717 -39.57525623 718.2438249 -55.59545898 718.24023438 C-56.58223554 718.24001161 -57.5690121 718.23978884 -58.58569098 718.23955932 C-60.57345301 718.23911673 -62.56121504 718.23867471 -64.54897707 718.23823325 C-65.52943147 718.23801369 -66.50988587 718.23779412 -67.520051 718.2375679 C-68.49796597 718.23735192 -69.47588095 718.23713593 -70.4834297 718.2369134 C-85.73021252 718.23321558 -100.97699081 718.22185597 -116.22376867 718.2094375 C-121.75761506 718.20499717 -127.29146103 718.201561 -132.82530851 718.19881538 C-141.60146065 718.19438909 -150.37759612 718.18663759 -159.15373773 718.17204097 C-163.1660623 718.16541955 -167.17837211 718.16036574 -171.19070244 718.15958023 C-174.8588587 718.15879644 -178.52697758 718.15342071 -182.19512223 718.14426073 C-184.16091891 718.14054163 -186.12672294 718.1417369 -188.09252268 718.1430676 C-189.24765862 718.13922645 -190.40279455 718.13538531 -191.59293461 718.13142776 C-192.59604838 718.13018127 -193.59916216 718.12893477 -194.63267332 718.1276505 C-197 718 -197 718 -199 717 C-199.89025962 714.32922113 -200.14077342 712.72540811 -200.18754578 709.98175049 C-200.20337204 709.16630264 -200.2191983 708.3508548 -200.23550415 707.51069641 C-200.24761932 706.6193248 -200.2597345 705.72795319 -200.2722168 704.80957031 C-200.28842575 703.86762314 -200.3046347 702.92567596 -200.32133484 701.95518494 C-200.46191663 693.2396895 -200.53977236 684.52318097 -200.60025311 675.80679703 C-200.64112044 669.9584147 -200.70123725 664.11171958 -200.80932617 658.26416016 C-200.913659 652.60002875 -200.96775382 646.93739794 -200.98771095 641.27236176 C-201.00354621 639.12425724 -201.03655393 636.97620139 -201.08786583 634.82865143 C-201.42387751 620.0485579 -199.48109962 611.40763073 -190 600 C-188.73069232 598.12135464 -187.48161009 596.22856765 -186.26953125 594.3125 C-185.70234375 593.44173828 -185.13515625 592.57097656 -184.55078125 591.67382812 C-183.97714844 590.79146484 -183.40351562 589.90910156 -182.8125 589 C-181.51694835 587.01040282 -180.2213748 585.0208199 -178.92578125 583.03125 C-178.27561035 582.03222656 -177.62543945 581.03320312 -176.95556641 580.00390625 C-173.80684866 575.16722421 -170.6532425 570.33373283 -167.5 565.5 C-166.24997516 563.58334953 -164.99997519 561.66668285 -163.75 559.75 C-111.25 479.25 -58.75 398.75 -6.25 318.25 C-5.63084717 317.30060547 -5.01169434 316.35121094 -4.3737793 315.37304688 C-3.12794767 313.46282582 -1.88201721 311.55266921 -0.63598633 309.64257812 C2.55361705 304.75282644 5.74131908 299.86185173 8.92578125 294.96875 C9.5707959 293.97842773 10.21581055 292.98810547 10.88037109 291.96777344 C12.15940292 290.00316504 13.43709224 288.03768193 14.71337891 286.07128906 C17.37702468 281.97608347 20.04854247 277.89478776 22.84765625 273.890625 C32.44372677 260.12872029 39.60523649 245.50492757 43 229 C43.22300781 228.030625 43.44601562 227.06125 43.67578125 226.0625 C48.07648259 203.55006863 45.51235675 178.85810068 36 158 C35.49726562 156.87464844 34.99453125 155.74929688 34.4765625 154.58984375 C25.63560527 135.84950483 13.12144162 120.16940838 -6.8125 112.6875 C-24.22008456 106.59355976 -43.89598688 108.72812674 -60.2890625 116.57421875 C-67.4065827 120.4393025 -73.28515625 125.29457115 -79 131 C-79.77214844 131.76054687 -80.54429688 132.52109375 -81.33984375 133.3046875 C-99.01748912 151.7377878 -106.3902432 178.53971738 -107.55859375 203.52734375 C-108.13747324 206.77009348 -108.87656776 208.44765836 -111 211 C-113.91904528 211.50859195 -116.26404577 211.67444464 -119.1875 211.63110352 C-120.4391394 211.64183647 -120.4391394 211.64183647 -121.71606445 211.65278625 C-124.47793101 211.6697135 -127.23818349 211.65024801 -130 211.62890625 C-131.91666804 211.62973458 -133.83333601 211.63219261 -135.75 211.63621521 C-139.76844648 211.63907596 -143.78633644 211.62434504 -147.8046875 211.59692383 C-152.96011411 211.56284055 -158.11454528 211.5688566 -163.27001953 211.5875864 C-167.22827475 211.59814623 -171.18629764 211.58922785 -175.14453125 211.57420158 C-177.0455659 211.56901182 -178.94662474 211.56951117 -180.84765625 211.57574654 C-183.50313636 211.58118651 -186.15718314 211.56086379 -188.8125 211.53344727 C-189.60116455 211.53997314 -190.3898291 211.54649902 -191.20239258 211.55322266 C-196.51233461 211.45982262 -196.51233461 211.45982262 -198.99079895 209.12286377 C-202.72760133 201.26246531 -199.62391203 188.69568415 -198.8125 180.3125 C-198.7478656 179.64313416 -198.6832312 178.97376831 -198.61663818 178.28411865 C-193.50292575 126.35849587 -173.65284989 80.27348672 -138 42 C-137.27683594 41.21109375 -136.55367187 40.4221875 -135.80859375 39.609375 C-101.31386068 3.42200698 -48.58626122 -11.70045217 0 0 Z " fill="#000000" transform="translate(1798,253)"/>
<path d="M0 0 C147.88990826 0 147.88990826 0 181.75 32.375 C208.58436341 60.40200179 219.83612328 96.90546194 222.453125 134.88916016 C222.62256172 137.33973492 222.80623407 139.78891053 222.9921875 142.23828125 C224.75647259 166.18434637 225.16269915 190.1520709 225.16725707 214.15486217 C225.16798297 216.31974639 225.17014518 218.48462479 225.17275429 220.64950752 C225.18193107 228.2929536 225.18609962 235.93638258 225.18530273 243.57983398 C225.18477212 249.78786825 225.1917924 255.99583924 225.20581055 262.20385742 C225.3375733 321.9119591 225.3375733 321.9119591 224.07421875 348.5546875 C224.03260305 349.43274992 223.99098736 350.31081234 223.94811058 351.21548271 C223.30836034 364.22655506 222.36280136 377.17217692 220 390 C219.86899902 390.73460449 219.73799805 391.46920898 219.60302734 392.22607422 C215.23374821 415.7736886 205.18615528 437.58165626 190 456 C189.443125 456.69867187 188.88625 457.39734375 188.3125 458.1171875 C168.63801338 482.17566298 140.59592224 490.56061166 111 495 C74.37 495 37.74 495 0 495 C0 331.65 0 168.3 0 0 Z " fill="#FEFEFE" transform="translate(2107,363)"/>
<path d="M0 0 C1.27254639 0.00607269 1.27254639 0.00607269 2.57080078 0.01226807 C3.46360245 0.00876343 4.35640411 0.00525879 5.27626038 0.00164795 C8.23788143 -0.00717972 11.19926504 -0.00131606 14.16088867 0.00543213 C16.21350653 0.00408566 18.26612408 0.00214528 20.31874084 -0.00036621 C24.62544789 -0.00331898 28.9320721 0.00098463 33.23876953 0.01031494 C38.76502811 0.02170237 44.29109229 0.01515542 49.81734371 0.00317001 C54.05775929 -0.00405057 58.29812865 -0.00175961 62.53854561 0.0034256 C64.57635076 0.00476191 66.61416008 0.00311501 68.65196037 -0.00153351 C71.49871844 -0.00660117 74.34516008 0.00111527 77.19189453 0.01226807 C78.03823456 0.0082196 78.88457458 0.00417114 79.75656128 0 C83.66772092 0.02844905 85.6174675 0.05200551 88.94604492 2.27105713 C89.32005842 4.11459202 89.32005842 4.11459202 89.31864041 6.40514386 C89.32538229 7.27828927 89.33212417 8.15143468 89.33907035 9.05103904 C89.33118931 10.01801835 89.32330827 10.98499766 89.31518841 11.98127937 C89.32038071 13.51947259 89.32038071 13.51947259 89.3256779 15.08874041 C89.33369244 18.56519277 89.32009888 22.04123799 89.30680847 25.51766968 C89.30811526 28.01902581 89.31073932 30.52038154 89.31457597 33.02173507 C89.3199062 38.48085993 89.31584288 43.93985604 89.30366135 49.39896774 C89.28559792 57.51650481 89.28465004 65.63397983 89.28728731 73.75153333 C89.2912344 87.40478976 89.2811844 101.05800272 89.26323509 114.71124649 C89.24550121 128.23520243 89.23394073 141.75914028 89.23067665 155.28310776 C89.23047043 156.12309643 89.23026421 156.9630851 89.23005175 157.82852797 C89.22903679 162.09417725 89.22813262 166.35982655 89.22727112 170.62547587 C89.22096513 200.86135253 89.20073982 231.09720552 89.17236328 261.33306885 C89.14482277 290.71197381 89.12356567 320.09087231 89.11083984 349.4697876 C89.11044527 350.37492243 89.11005069 351.28005726 89.10964415 352.21262042 C89.10568869 361.30212148 89.10186123 370.3916226 89.09812757 379.48112376 C89.09051835 397.99849407 89.0820546 416.51586395 89.07307434 435.03323364 C89.07245654 436.3104112 89.07245654 436.3104112 89.07182625 437.61339033 C89.04421105 494.49928918 88.99661165 551.38517463 88.94604492 608.27105713 C89.53775699 608.27029769 90.12946905 608.26953825 90.73911178 608.26875579 C125.77771861 608.22403841 160.81632054 608.18970365 195.85494994 608.16892647 C200.05832931 608.16642494 204.26170861 608.1638363 208.46508789 608.16119385 C209.30193541 608.16066923 210.13878292 608.16014461 211.00098945 608.15960409 C224.56641979 608.150892 238.13183326 608.13511762 251.69725357 608.11675154 C265.60771482 608.09807482 279.51816721 608.08694514 293.42864048 608.08288014 C302.01809293 608.08013044 310.60749766 608.07143338 319.19693543 608.0552242 C325.08015687 608.04468479 330.9633535 608.04144956 336.84658371 608.04405437 C340.24526145 608.04534044 343.64385559 608.04331406 347.04251862 608.03264618 C350.72029812 608.02277441 354.39786929 608.0250597 358.07565308 608.0305481 C359.15929292 608.02472241 360.24293276 608.01889673 361.35941017 608.01289451 C362.82840945 608.01886766 362.82840945 608.01886766 364.32708549 608.02496147 C365.17689959 608.02420203 366.02671369 608.02344259 366.90227973 608.02266014 C368.94604492 608.27105713 368.94604492 608.27105713 370.94604492 610.27105713 C371.19493389 612.16421413 371.19493389 612.16421413 371.19328308 614.51554871 C371.19957481 615.85101997 371.19957481 615.85101997 371.20599365 617.21347046 C371.20037415 618.19274506 371.19475464 619.17201965 371.18896484 620.18096924 C371.19086319 621.21032089 371.19276154 622.23967255 371.19471741 623.30021667 C371.19843405 626.71635458 371.18770758 630.13228173 371.17651367 633.54840088 C371.17532217 635.91490148 371.17486865 638.28140256 371.17512512 640.64790344 C371.17355867 645.61370799 371.16525723 650.5794406 371.15185547 655.54522705 C371.13487469 661.91891642 371.13104079 668.29252658 371.13180065 674.66623592 C371.13152902 679.55516825 371.12604883 684.44408317 371.11879921 689.33300972 C371.11561092 691.68341503 371.11364476 694.03382231 371.1129055 696.38422966 C371.11074314 699.66677093 371.10200075 702.94922737 371.09130859 706.23175049 C371.09198837 707.69762604 371.09198837 707.69762604 371.09268188 709.19311523 C371.0884169 710.08624924 371.08415192 710.97938324 371.07975769 711.89958191 C371.07808185 712.67589934 371.076406 713.45221678 371.07467937 714.25205898 C370.94604492 716.27105713 370.94604492 716.27105713 369.94604492 719.27105713 C366.65101937 720.36939898 364.22754142 720.3986597 360.75720882 720.40248489 C359.45316253 720.40632604 358.14911623 720.41016718 356.80555338 720.41412473 C355.34977458 720.41334444 353.89399584 720.41246564 352.43821716 720.41149902 C350.89850209 720.41408181 349.35878768 720.41709472 347.81907421 720.42050242 C343.5769231 720.42858546 339.33478889 720.43036271 335.09263098 720.43109989 C330.52204598 720.43294811 325.95146981 720.44049412 321.38088989 720.44723511 C311.38331942 720.46082673 301.38575295 720.46684402 291.38817477 720.47124577 C285.15058288 720.47400596 278.91299253 720.47824282 272.67540169 720.48274994 C255.41819957 720.49494212 238.16099871 720.50524256 220.90379238 720.50862503 C219.79898187 720.5088446 218.69417136 720.50906416 217.55588174 720.50929038 C215.89463117 720.5096178 215.89463117 720.5096178 214.19981998 720.50995183 C211.95547895 720.5103953 209.71113791 720.51084187 207.46679688 720.5112915 C206.35351869 720.51151293 205.24024051 720.51173436 204.09322662 720.5119625 C186.03697473 720.51591412 167.98076312 720.53337944 149.9245268 720.55665103 C131.40351731 720.58032983 112.88252806 720.59282524 94.36150318 720.59399295 C83.95560931 720.5949115 73.54976794 720.60070923 63.14388847 720.61881256 C54.28696498 720.63416657 45.43011022 720.63936185 36.57317596 720.63107446 C32.05043542 720.62715161 27.52783351 720.62817668 23.00510979 720.64213181 C18.87058163 720.65477312 14.73629764 720.65376032 10.60177029 720.64154109 C9.10048612 720.63956702 7.59918522 720.64274034 6.09792464 720.65138546 C4.06832402 720.66233961 2.03864404 720.65327084 0.00903988 720.64299393 C-1.12165993 720.64359102 -2.25235973 720.6441881 -3.41732317 720.64480329 C-4.72245597 720.45979894 -4.72245597 720.45979894 -6.05395508 720.27105713 C-8.2322651 717.0035921 -8.30407868 716.09607006 -8.30465341 712.31616205 C-8.31216396 710.76947796 -8.31216396 710.76947796 -8.31982625 709.19154772 C-8.31514391 708.05289347 -8.31046158 706.91423921 -8.30563736 705.74108028 C-8.30999768 703.926006 -8.30999768 703.926006 -8.31444609 702.07426354 C-8.32051667 698.69447334 -8.31755262 695.31490338 -8.31089019 691.93512817 C-8.3058387 688.26621148 -8.31232787 684.59731283 -8.31737685 680.92839867 C-8.32461892 674.49123434 -8.32436967 668.05410353 -8.31928253 661.61693764 C-8.31173845 652.04493298 -8.31557413 642.47295676 -8.32169915 632.90095231 C-8.33224853 615.80874838 -8.33131076 598.71655938 -8.32554132 581.62435402 C-8.32051727 566.6676236 -8.31919351 551.71089865 -8.32158661 536.75416756 C-8.32173938 535.76342608 -8.32189215 534.7726846 -8.32204955 533.75192065 C-8.32267219 529.73054975 -8.32330898 525.70917885 -8.32396908 521.68780796 C-8.33009182 483.93792943 -8.32453256 446.18806042 -8.31377528 408.43818336 C-8.30428281 374.87148318 -8.3051334 341.30479818 -8.31469727 307.73809814 C-8.32539734 270.05732508 -8.32965839 232.37656043 -8.32347274 194.69578606 C-8.32283127 190.68190102 -8.32220559 186.66801598 -8.32158661 182.65413094 C-8.32142845 181.66575269 -8.3212703 180.67737444 -8.32110735 179.65904534 C-8.31882868 164.70799669 -8.32149987 149.75695411 -8.32654572 134.8059063 C-8.33225185 117.81330423 -8.33086108 100.82071947 -8.31998423 83.82811957 C-8.31409224 74.30816337 -8.31375616 64.7882446 -8.32127658 55.26828933 C-8.32574003 48.92010456 -8.32300911 42.57194999 -8.31426704 36.22376971 C-8.30948067 32.59964984 -8.30794194 28.97560466 -8.315079 25.35148697 C-8.32266625 21.45934837 -8.31499862 17.56732973 -8.30563736 13.67519283 C-8.31031969 12.53419741 -8.31500202 11.39320199 -8.31982625 10.21763095 C-8.31481921 9.18901174 -8.30981217 8.16039253 -8.30465341 7.10060304 C-8.30451789 6.20937705 -8.30438237 5.31815106 -8.30424275 4.39991822 C-7.71886239 -0.57912643 -4.16744904 0.0304239 0 0 Z " fill="#000000" transform="translate(704.053955078125,251.72894287109375)"/>
<path d="M0 0 C23.05070075 19.6541025 35.47627737 44.6226102 43.3125 73.625 C43.51955566 74.37007813 43.72661133 75.11515625 43.93994141 75.8828125 C52.84728297 108.90075932 51.47415851 145.76775773 51.47975707 179.66581655 C51.48047756 182.12776801 51.48263039 184.58971422 51.48525429 187.05166435 C51.4944592 195.71030902 51.49859588 204.36893849 51.49780273 213.02758789 C51.49720532 220.98383587 51.50770338 228.94001531 51.5235464 236.89624602 C51.53681685 243.81777248 51.54197855 250.73927712 51.54134732 257.66081613 C51.54109769 261.75404088 51.54363956 265.84720475 51.55452538 269.94041634 C51.59661926 286.98299816 51.34740015 303.96297364 50.3996582 320.98217773 C50.35917307 321.71937487 50.31868794 322.456572 50.27697599 323.21610844 C49.53446992 336.4236027 48.16423416 349.52555792 46.3125 362.625 C43.17370619 361.2374182 41.08995205 359.62976592 38.703125 357.17578125 C37.69378906 356.15000977 37.69378906 356.15000977 36.6640625 355.10351562 C35.97054687 354.38873047 35.27703125 353.67394531 34.5625 352.9375 C30.59330253 348.86643149 26.64139658 344.84608986 22.328125 341.13671875 C17.15640262 336.68906284 12.44432516 331.80476369 7.66796875 326.94140625 C3.63405497 322.86324479 -0.49358349 319.00156101 -4.84375 315.26367188 C-8.04584329 312.41774362 -10.93834077 309.27704799 -13.81640625 306.10546875 C-15.29369074 304.50287001 -15.29369074 304.50287001 -17.6875 302.625 C-20.21991374 302.82728142 -21.34987736 303.27822615 -23.12866211 305.10522461 C-23.56960205 305.73952393 -24.01054199 306.37382324 -24.46484375 307.02734375 C-24.97136475 307.74325684 -25.47788574 308.45916992 -25.99975586 309.19677734 C-26.53608643 309.97746582 -27.07241699 310.7581543 -27.625 311.5625 C-28.79132956 313.2202893 -29.95800564 314.87783486 -31.125 316.53515625 C-31.71796875 317.38480957 -32.3109375 318.23446289 -32.921875 319.10986328 C-35.09214271 322.20141444 -37.30869441 325.25732865 -39.53173828 328.31103516 C-45.28088177 336.20972049 -50.92274714 344.18121496 -56.49853516 352.203125 C-59.36027276 356.31823123 -62.24570401 360.40999062 -65.203125 364.45703125 C-65.75863037 365.22329834 -66.31413574 365.98956543 -66.88647461 366.77905273 C-67.93046843 368.21606465 -68.98285303 369.64703373 -70.04516602 371.07055664 C-73.9161828 376.32977348 -73.9161828 376.32977348 -74.6875 382.625 C-72.71133838 385.64520951 -70.24110099 388.08878228 -67.6875 390.625 C-66.98125488 391.35477051 -66.27500977 392.08454102 -65.54736328 392.83642578 C-63.30353293 395.14301365 -61.03117461 397.41787564 -58.75 399.6875 C-57.99009766 400.45126953 -57.23019531 401.21503906 -56.44726562 402.00195312 C-53.06560006 405.37784301 -49.67601626 408.68210859 -46.03125 411.7734375 C-39.36444229 417.51345073 -33.3087688 423.93880975 -27.125 430.1875 C-24.56418782 432.77512363 -21.99993072 435.35926312 -19.43359375 437.94140625 C-18.5739225 438.81352501 -18.5739225 438.81352501 -17.69688416 439.70326233 C-13.86370969 443.55928171 -9.8655334 447.14612176 -5.6875 450.625 C-9.55251061 459.2640394 -22.60277298 463.71928784 -30.8125 467.30078125 C-41.39615075 471.18022908 -51.79586692 472.14888232 -63 472.0625 C-63.67970856 472.05979095 -64.35941711 472.05708191 -65.0597229 472.05429077 C-75.47466823 471.991374 -84.86937919 471.26222151 -94.6875 467.625 C-95.75226563 467.25117187 -96.81703125 466.87734375 -97.9140625 466.4921875 C-125.96432458 455.76917592 -146.66558087 430.65592783 -159.03442383 404.0534668 C-171.04267891 376.73271765 -174.37021343 348.19494886 -175.796875 318.71875 C-175.83874687 317.86318008 -175.88061874 317.00761017 -175.92375946 316.12611389 C-177.23965397 288.1322218 -176.9883452 260.08409116 -176.94463873 232.06650448 C-176.93709342 226.66882268 -176.93982044 221.27121428 -176.94824219 215.87353516 C-177.19307193 54.80180762 -177.19307193 54.80180762 -134.06640625 8 C-129.89487956 3.8353231 -125.37122333 0.19450425 -120.6875 -3.375 C-119.88570313 -3.99246094 -119.08390625 -4.60992187 -118.2578125 -5.24609375 C-82.58622536 -31.50272101 -33.85986044 -27.01285265 0 0 Z " fill="#FEFEFE" transform="translate(430.6875,384.375)"/>
<path d="M0 0 C1.30319687 -0.00087616 1.30319687 -0.00087616 2.63272095 -0.00177002 C5.49538565 0.00100971 8.35700033 0.03209629 11.21948242 0.06347656 C13.20773245 0.07093935 15.19598985 0.0766321 17.18424988 0.08062744 C22.41063844 0.09588075 27.6365805 0.13516019 32.86279297 0.17944336 C38.19842489 0.22040246 43.53412914 0.23863984 48.86987305 0.25878906 C59.33426164 0.30165454 69.79831924 0.3699024 80.26245117 0.45410156 C81.4917215 2.91264222 81.38850282 4.50789675 81.39010167 7.25799936 C81.39462562 8.79232767 81.39462562 8.79232767 81.39924097 10.35765252 C81.3974715 11.49223055 81.39570203 12.62680859 81.39387894 13.79576778 C81.39593157 14.99761037 81.3979842 16.19945296 81.40009904 17.43771502 C81.40480691 20.79909662 81.40498895 24.16042513 81.40332145 27.52180614 C81.40259301 31.16910624 81.407607 34.81639904 81.41189647 38.46369606 C81.41949325 45.70897991 81.42167038 52.95425638 81.42222552 60.19954379 C81.4231375 68.87303834 81.42980002 77.54652603 81.43657235 86.22001764 C81.45265097 107.18519184 81.45853746 128.15036533 81.4633211 149.11554459 C81.46565489 159.02707247 81.46925726 168.93859978 81.47301647 178.85012721 C81.48585278 212.75728188 81.49657257 246.66443623 81.50001907 280.57159328 C81.50024071 282.70103437 81.50046249 284.83047545 81.50068443 286.95991654 C81.50090507 289.0945887 81.50112555 291.22926086 81.50134587 293.36393303 C81.50178843 297.64667475 81.50223555 301.92941648 81.50268555 306.2121582 C81.50284963 307.80497086 81.50284963 307.80497086 81.50301703 309.42996155 C81.50664966 343.88042231 81.52257706 378.33086206 81.54587591 412.78131477 C81.57044601 449.17779288 81.58419057 485.57425897 81.58538699 521.97074562 C81.58555846 525.96247709 81.58577389 529.95420855 81.58602142 533.94594002 C81.58607719 534.92886474 81.58613296 535.91178946 81.58619042 536.92449978 C81.58734325 552.77374252 81.59838474 568.62296377 81.61290848 584.47219924 C81.62724151 600.38792229 81.63052858 616.30361765 81.6224685 632.21934538 C81.61799731 641.68578413 81.62193203 651.1521338 81.63770701 660.61856093 C81.6474082 666.93238006 81.64632566 673.24613633 81.63627078 679.5599548 C81.63084337 683.16367477 81.63028099 686.76722286 81.6427795 690.37092905 C81.65609721 694.2429009 81.64649058 698.11461355 81.63438797 701.9865942 C81.64198316 703.11883107 81.64957836 704.25106795 81.65740371 705.41761503 C81.6504056 706.44300409 81.6434075 707.46839315 81.63619733 708.5248546 C81.63644153 709.41115697 81.63668573 710.29745934 81.63693734 711.21061936 C81.17829736 713.95825257 80.51414152 714.84571216 78.26245117 716.45410156 C75.45951913 716.75025711 72.87870696 716.86387399 70.07495117 716.84228516 C69.2405249 716.84754211 68.40609863 716.85279907 67.54638672 716.85821533 C64.78488512 716.87143205 62.02395875 716.86267143 59.26245117 716.85253906 C57.34578338 716.85455932 55.42911633 716.85747035 53.51245117 716.86123657 C49.49414761 716.86566219 45.47604401 716.85922121 41.45776367 716.84521484 C36.30249109 716.82812284 31.14768703 716.83796275 25.99243164 716.85593224 C22.03422504 716.86676365 18.07612984 716.86332669 14.11791992 716.85554886 C12.21687769 716.85354507 10.31582541 716.85601237 8.41479492 716.86298752 C5.75957377 716.87059143 3.10511539 716.85901292 0.44995117 716.84228516 C-0.33871338 716.84835785 -1.12737793 716.85443054 -1.93994141 716.86068726 C-7.27433954 716.79830706 -7.27433954 716.79830706 -9.43920266 715.18962217 C-11.03773263 713.05284096 -11.11374292 711.95450135 -11.11655635 709.30482084 C-11.12473164 708.45379622 -11.13290694 707.60277161 -11.14132997 706.72595838 C-11.13505328 705.78887995 -11.12877658 704.85180153 -11.12230968 703.88632679 C-11.13003454 702.38945634 -11.13003454 702.38945634 -11.13791546 700.86234608 C-11.15163738 697.48564814 -11.1438209 694.10933296 -11.13627625 690.73262024 C-11.14171026 688.30052046 -11.14845952 685.86842332 -11.15641814 683.4363305 C-11.17074241 678.13164204 -11.17570216 672.82706558 -11.17254066 667.52236748 C-11.16788976 659.63444933 -11.18034653 651.74662382 -11.1963704 643.85872391 C-11.22283483 630.5913213 -11.23533316 617.32393958 -11.23993492 604.05651283 C-11.24453816 590.91575058 -11.25531017 577.77501737 -11.27436256 564.63426781 C-11.27554269 563.81791577 -11.27672282 563.00156374 -11.27793871 562.16047376 C-11.28396394 558.01481405 -11.29009978 553.86915451 -11.29627822 549.72349503 C-11.33986706 520.34228236 -11.36956182 490.96107039 -11.39111328 461.57983398 C-11.41208494 433.03229733 -11.43933288 404.48477798 -11.47509766 375.93725586 C-11.47619713 375.05765151 -11.47729661 374.17804715 -11.47842941 373.27178812 C-11.48947752 364.43862428 -11.50065345 355.6054606 -11.51192303 346.77229703 C-11.53487856 328.77733202 -11.5569809 310.782366 -11.5785675 292.78739929 C-11.57956112 291.95997819 -11.58055474 291.13255708 -11.58157847 290.28006261 C-11.6478587 235.00475634 -11.69418643 179.72942997 -11.73754883 124.45410156 C-12.54651611 125.19668213 -13.3554834 125.9392627 -14.18896484 126.7043457 C-15.26894961 127.6951628 -16.34894703 128.6859661 -17.42895508 129.67675781 C-17.95992798 130.16422485 -18.49090088 130.65169189 -19.03796387 131.15393066 C-22.23381389 134.08519517 -25.44461828 136.99838263 -28.67504883 139.89160156 C-32.56125481 143.37858253 -36.4059769 146.90742142 -40.23754883 150.45410156 C-44.85837773 154.73135446 -49.51260513 158.96720079 -54.20239258 163.16894531 C-57.10668263 165.78683388 -59.9851844 168.43171069 -62.86254883 171.07910156 C-66.79374264 174.69292369 -70.74783722 178.27282827 -74.80004883 181.75097656 C-76.24523002 183.02133745 -77.6569204 184.32998934 -79.05004883 185.65722656 C-79.83379883 186.39457031 -80.61754883 187.13191406 -81.42504883 187.89160156 C-82.13016602 188.5709375 -82.8352832 189.25027344 -83.56176758 189.95019531 C-86.16518011 191.74968153 -87.63784957 191.76352863 -90.73754883 191.45410156 C-92.46391047 188.44811482 -92.99403952 186.26719499 -93.02516174 182.81292725 C-93.03802719 181.88501877 -93.05089264 180.95711029 -93.06414795 180.00108337 C-93.06795471 178.99010086 -93.07176147 177.97911835 -93.07568359 176.9375 C-93.0872197 175.8671199 -93.0987558 174.79673981 -93.11064148 173.69392395 C-93.14497066 170.15042671 -93.16345502 166.60710366 -93.17895508 163.06347656 C-93.18585798 161.85251564 -93.19276089 160.64155472 -93.19987297 159.39389801 C-93.23571627 152.98509081 -93.25925173 146.57637176 -93.27294922 140.16748047 C-93.28949845 133.5517485 -93.34792516 126.93708514 -93.41609287 120.32171249 C-93.46089429 115.23097256 -93.474445 110.14048836 -93.47956657 105.04956818 C-93.48745789 102.61112111 -93.5070961 100.17268226 -93.53878975 97.73442841 C-93.58026571 94.31820341 -93.57739326 90.90467216 -93.56396484 87.48828125 C-93.58598969 86.48539566 -93.60801453 85.48251007 -93.63070679 84.44923401 C-93.54414374 77.95205926 -92.09412723 74.6749519 -87.49265957 70.06070328 C-86.91347302 69.53052471 -86.33428648 69.00034615 -85.73754883 68.45410156 C-84.88290039 67.6278125 -84.02825195 66.80152344 -83.14770508 65.95019531 C-82.37297852 65.27085937 -81.59825195 64.59152344 -80.80004883 63.89160156 C-79.94540039 63.1375 -79.09075195 62.38339844 -78.21020508 61.60644531 C-77.39422852 60.89617187 -76.57825195 60.18589844 -75.73754883 59.45410156 C-75.05563477 58.85726562 -74.3737207 58.26042969 -73.67114258 57.64550781 C-72.37848292 56.51475704 -71.08420053 55.38585875 -69.78833008 54.25878906 C-67.47666086 52.22452015 -65.20223453 50.15187847 -62.92504883 48.07910156 C-59.54813901 45.0255129 -56.10537751 42.10980951 -52.55004883 39.26660156 C-46.48434665 34.3640667 -40.85589906 29.03152119 -35.18286133 23.68457031 C-32.06379929 20.74755144 -28.88385662 17.89655849 -25.63598633 15.10253906 C-22.42056499 12.31054769 -19.28224848 9.43256021 -16.13208008 6.56738281 C-14.94678711 5.52130859 -14.94678711 5.52130859 -13.73754883 4.45410156 C-13.04337357 3.75988098 -12.3491983 3.0656604 -11.63398743 2.35040283 C-7.66820885 -0.2459964 -4.63921581 -0.08193788 0 0 Z " fill="#000000" transform="translate(1435.737548828125,254.5458984375)"/>
<path d="M0 0 C0.79225983 0.00404846 1.58451965 0.00809692 2.40078735 0.01226807 C3.65220772 0.00701111 3.65220772 0.00701111 4.9289093 0.00164795 C7.69574221 -0.00717798 10.46232084 -0.00131668 13.22915649 0.00543213 C15.1472529 0.0040856 17.06534898 0.00214517 18.98344421 -0.00036621 C23.00768272 -0.00331875 27.03183257 0.00098385 31.05606079 0.01031494 C36.21911915 0.02170187 41.38196941 0.01515562 46.5450201 0.00317001 C50.50749788 -0.00405164 54.46992621 -0.00175911 58.43240547 0.0034256 C60.33623847 0.00476165 62.24007594 0.00311594 64.14390373 -0.00153351 C66.80387156 -0.00660288 69.46350102 0.00111762 72.1234436 0.01226807 C72.9136792 0.0082196 73.70391479 0.00417114 74.51809692 0 C78.32398547 0.02961143 80.0817878 0.10770717 83.32681274 2.27105713 C83.70712948 4.16142082 83.70712948 4.16142082 83.7144928 6.50881958 C83.72439743 7.3976886 83.73430206 8.28655762 83.74450684 9.20236206 C83.74000519 10.18006561 83.73550354 11.15776917 83.73086548 12.1651001 C83.73772873 13.19284546 83.74459198 14.22059082 83.75166321 15.27947998 C83.77002607 18.69087379 83.76607972 22.1018118 83.76040649 25.51324463 C83.76496417 27.87735139 83.77026849 30.24145682 83.77629089 32.6055603 C83.78524099 37.56719332 83.78277776 42.52866555 83.77285767 47.49029541 C83.7613736 53.85510786 83.78156178 60.21936507 83.8107748 66.58410454 C83.82910512 71.46881652 83.8288505 76.35339474 83.82313728 81.23813248 C83.82298364 83.58492943 83.8290634 85.93173522 83.84142876 88.2784996 C83.85627438 91.55876393 83.84570771 94.83799357 83.82852173 98.1182251 C83.8381897 99.09188019 83.84785767 100.06553528 83.8578186 101.06869507 C83.81536468 104.93028527 83.77483298 107.50210073 81.80952454 110.87524414 C78.28630604 112.85604359 75.03612872 112.81378559 71.10171509 112.75689697 C69.86207756 112.76259201 69.86207756 112.76259201 68.59739685 112.7684021 C65.86879393 112.77580513 63.14125831 112.75443263 60.41275024 112.73199463 C58.51753871 112.72961039 56.62232478 112.72870484 54.72711182 112.72921753 C50.75759055 112.72609017 46.78843063 112.70952717 42.81900024 112.68267822 C37.72313426 112.64865213 32.62766451 112.64105096 27.53169823 112.64256859 C23.6198547 112.64202565 19.70809832 112.63107152 15.79628372 112.6165657 C13.91675094 112.61018891 12.03720827 112.60625676 10.15766525 112.60477829 C7.53597816 112.60045722 4.91471732 112.58298368 2.29312134 112.56158447 C1.51178329 112.56249084 0.73044525 112.56339722 -0.0745697 112.56433105 C-5.44422789 112.5000165 -5.44422789 112.5000165 -7.67318726 110.27105713 C-7.92486954 108.34387207 -7.92486954 108.34387207 -7.92715454 105.94390869 C-7.93561401 104.58102722 -7.93561401 104.58102722 -7.94424438 103.19061279 C-7.94019592 102.19106567 -7.93614746 101.19151855 -7.93197632 100.16168213 C-7.93548096 99.11121704 -7.9389856 98.06075195 -7.94259644 96.97845459 C-7.95142704 93.49258898 -7.94555985 90.00692494 -7.93881226 86.52105713 C-7.94015852 84.10731975 -7.94209873 81.69358264 -7.9446106 79.27984619 C-7.94756366 74.21569238 -7.94325831 69.15160902 -7.93392944 64.08746338 C-7.92253487 57.58360182 -7.92909336 51.0799053 -7.94107437 44.5760498 C-7.94828801 39.59021757 -7.94600732 34.60442471 -7.94081879 29.61859131 C-7.93948092 27.21990947 -7.94113477 24.8212241 -7.94577789 22.42254639 C-7.95083495 19.07507808 -7.94314432 15.7278802 -7.93197632 12.38043213 C-7.93602478 11.38088501 -7.94007324 10.38133789 -7.94424438 9.35150146 C-7.93860474 8.44291382 -7.93296509 7.53432617 -7.92715454 6.59820557 C-7.92640049 5.80621765 -7.92564644 5.01422974 -7.92486954 4.19824219 C-7.31436994 -0.47648381 -3.9034005 0.03048872 0 0 Z " fill="#000000" transform="translate(1157.6731872558594,859.7289428710938)"/>
</svg>
