<?xml version="1.0" encoding="UTF-8" standalone="no"?>
<!-- Generator: Adobe Illustrator 13.0.0, SVG Export Plug-In  -->

<svg
   xmlns:dc="http://purl.org/dc/elements/1.1/"
   xmlns:cc="http://creativecommons.org/ns#"
   xmlns:rdf="http://www.w3.org/1999/02/22-rdf-syntax-ns#"
   xmlns:svg="http://www.w3.org/2000/svg"
   xmlns="http://www.w3.org/2000/svg"
   xmlns:sodipodi="http://sodipodi.sourceforge.net/DTD/sodipodi-0.dtd"
   xmlns:inkscape="http://www.inkscape.org/namespaces/inkscape"
   version="1.1"
   x="0px"
   y="0px"
   width="571.75201"
   height="571.75201"
   viewBox="-0.943 -0.943 571.75201 571.75201"
   enable-background="new -0.943 -0.943 576 576"
   xml:space="preserve"
   id="svg2985"
   inkscape:version="0.92.4 (5da689c313, 2019-01-14)"
   sodipodi:docname="South_Vietnam_STOP_sign.svg"><metadata
   id="metadata3007"><rdf:RDF><cc:Work
       rdf:about=""><dc:format>image/svg+xml</dc:format><dc:type
         rdf:resource="http://purl.org/dc/dcmitype/StillImage" /><dc:title /></cc:Work></rdf:RDF></metadata><sodipodi:namedview
   pagecolor="#ffffff"
   bordercolor="#666666"
   borderopacity="1"
   objecttolerance="10"
   gridtolerance="10"
   guidetolerance="10"
   inkscape:pageopacity="0"
   inkscape:pageshadow="2"
   inkscape:window-width="1920"
   inkscape:window-height="1017"
   id="namedview3005"
   showgrid="false"
   inkscape:zoom="0.70710678"
   inkscape:cx="619.70825"
   inkscape:cy="438.78262"
   inkscape:window-x="-8"
   inkscape:window-y="-8"
   inkscape:window-maximized="1"
   inkscape:current-layer="svg2985"
   fit-margin-top="0"
   fit-margin-left="0"
   fit-margin-right="0"
   fit-margin-bottom="0" />
<defs
   id="defs2987">
</defs>

<path
   style="fill:#f00a0a;stroke:none;fill-opacity:1"
   d="m 570.80901,284.93301 c 0,157.88496 -127.99104,285.876 -285.876,285.876 C 127.04805,570.80901 -0.943,442.81797 -0.943,284.93301 -0.943,127.04805 127.04805,-0.943 284.93301,-0.943 c 157.88496,0 285.876,127.99105 285.876,285.87601 z"
   id="circle2991"
   inkscape:connector-curvature="0" />
<path
   style="font-size:medium;font-style:normal;font-variant:normal;font-weight:normal;font-stretch:normal;text-indent:0;text-align:start;text-decoration:none;line-height:normal;letter-spacing:normal;word-spacing:normal;text-transform:none;direction:ltr;block-progression:tb;writing-mode:lr-tb;text-anchor:start;baseline-shift:baseline;color:#000000;fill:#ffffff;fill-opacity:1;fill-rule:nonzero;stroke:none;stroke-width:20;marker:none;visibility:visible;display:inline;overflow:visible;enable-background:accumulate;font-family:Sans;-inkscape-font-specification:Sans"
   d="m 284.9385,42.59475 c -133.72942,0 -242.34375,108.61433 -242.34375,242.34375 0,133.72941 108.61433,242.34375 242.34375,242.34375 133.72941,0 242.34375,-108.61434 242.34375,-242.34375 0,-133.72942 -108.61434,-242.34375 -242.34375,-242.34375 z"
   id="circle2993"
   inkscape:connector-curvature="0"
   sodipodi:nodetypes="sssss" />




<g
   style="font-size:119.63858795px;font-style:normal;font-variant:normal;font-weight:bold;font-stretch:normal;text-align:center;line-height:125%;letter-spacing:0px;word-spacing:0px;text-anchor:middle;fill:#000000;fill-opacity:1;stroke:none;font-family:ae_AlMohanad;-inkscape-font-specification:ae_AlMohanad Bold"
   id="text3211"
   transform="translate(-2.1239998,-2.1239998)" /><path
   style="font-size:medium;font-style:normal;font-variant:normal;font-weight:normal;font-stretch:normal;text-indent:0;text-align:start;text-decoration:none;line-height:normal;letter-spacing:normal;word-spacing:normal;text-transform:none;direction:ltr;block-progression:tb;writing-mode:lr-tb;text-anchor:start;baseline-shift:baseline;color:#000000;fill:#f00a0a;fill-opacity:1;stroke:none;stroke-width:30.13600349;marker:none;visibility:visible;display:inline;overflow:visible;enable-background:accumulate;font-family:Sans;-inkscape-font-specification:Sans"
   d="m 39.98995,189.14929 a 15.069509,14.109892 0 0 0 -12.625,21.79872 l 244.93749,352.49544 a 15.069509,14.109892 0 0 0 25.28125,0 L 542.5524,210.94801 a 15.069509,14.109892 0 0 0 -12.6562,-21.79872 l -489.90625,0 z m 27.7812,28.20666 434.34375,0 -217.15621,312.497 -217.18754,-312.497 z"
   id="path3229"
   inkscape:connector-curvature="0" /><g
   id="g3027"
   transform="matrix(2.7661407,0,0,2.1192899,155.35952,237.26058)"
   style="stroke:#000000"><text
   id="text3029"
   style="font-style:normal;font-weight:normal;font-size:13.95353222px;line-height:0%;font-family:Calibri;text-align:start;text-anchor:start;fill:#000000;stroke:#000000"
   y="12.959856"
   x="-0.60667533"
   xml:space="preserve"> </text>

<path
   id="path3031"
   d="M 15.06261,11.876729 C 14.076763,9.0323418 12.493719,7.5724743 10.360877,7.5065448 c -1.2323096,0 -2.2845121,0.5745285 -3.0807734,1.7424225 -0.7962613,1.1773127 -1.2323092,2.5524137 -1.194392,4.1629767 0,1.167894 0.3886514,2.175674 1.1469955,3.136361 0.7014683,0.951269 1.8958603,1.591727 3.5073419,1.968467 3.839117,1.036035 6.626031,2.976246 8.351264,5.905399 1.677837,3.004502 2.559412,6.338651 2.559412,10.134307 0,4.153558 -1.071161,7.855029 -3.080773,11.085575 -2.009612,3.296475 -4.606941,4.888201 -7.687714,4.888201 C 5.9909186,50.454906 2.3413875,46.678088 0.0189586,39.152706 1.602002,37.890627 3.2229625,36.685059 4.8060059,35.432398 c 1.4503331,4.746924 3.5642174,7.073294 6.1710251,7.073294 1.516688,0.07535 2.862749,-0.791154 3.94339,-2.477066 1.071161,-1.685911 1.658877,-3.57903 1.658877,-5.83947 0.0474,-1.525797 -0.39813,-2.976246 -1.279705,-4.52088 C 14.408538,28.208408 12.825495,27.200629 10.597859,26.531915 7.5644826,25.863202 5.2136159,24.43159 3.6210932,22.227661 2.0285705,20.09908 1.2038713,17.490155 1.2038713,14.50449 1.1564748,10.934879 1.9906533,7.5913113 3.6684897,4.5114617 5.3558054,1.5069601 7.6592757,-0.0094185 10.45567,-0.0094185 c 3.93391,0.150696 6.91041,2.9762461 8.825229,8.6085093 -1.393457,1.1019645 -2.824832,2.1662552 -4.218289,3.2776382"
   style="fill:#000000;fill-opacity:1;fill-rule:evenodd;stroke:#000000"
   inkscape:connector-curvature="0" /><path
   id="path3033"
   d="m 45.33002,7.6478223 c -2.455139,0 -4.900799,0 -7.355938,0 0,14.0053097 0,28.0012017 0,42.0065117 -1.677836,0 -3.346193,0 -5.02403,0 0,-14.00531 0,-28.001202 0,-42.0065117 -2.426701,0 -4.843923,0 -7.261145,0 0,-2.2886956 0,-4.5679727 0,-6.85666827 6.550198,0 13.090916,0 19.641113,0 0,2.28869557 0,4.56797267 0,6.85666827"
   style="fill:#000000;fill-opacity:1;fill-rule:evenodd;stroke:#000000"
   inkscape:connector-curvature="0" /><path
   id="path3035"
   d="m 61.132016,50.530254 c -3.744324,0 -6.626032,-2.175673 -8.588247,-6.564695 -2.009612,-4.323091 -3.033377,-10.576975 -3.033377,-18.742815 0,-7.949214 1.023765,-14.127751 3.033377,-18.5921198 1.962215,-4.4643691 4.843923,-6.6400427 8.588247,-6.6400427 3.79172,0 6.720825,2.1756736 8.68304,6.6400427 1.914819,4.4549508 2.938583,10.6429058 2.938583,18.5921198 0,8.16584 -1.023764,14.429142 -2.938583,18.742815 -1.962215,4.389022 -4.89132,6.564695 -8.68304,6.564695 z m 0,-42.8070837 c -2.227636,0 -3.858076,1.601145 -4.843923,4.8128537 -0.976368,3.287057 -1.516689,7.440615 -1.564085,12.536024 0,5.764122 0.54032,10.058958 1.516688,13.054041 0.985847,2.995083 2.616287,4.454951 4.89132,4.379603 2.417222,-0.07535 4.095058,-1.601145 4.976633,-4.596228 0.891054,-2.995083 1.431375,-7.214571 1.478771,-12.837416 -0.0474,-5.46273 -0.587717,-9.616289 -1.564085,-12.611372 C 65.037488,9.4655928 63.359652,7.9492143 61.132016,7.7231703 z"
   style="fill:#000000;fill-opacity:1;fill-rule:evenodd;stroke:#000000"
   inkscape:connector-curvature="0" /><path
   id="path3037"
   d="m 88.318653,28.434452 c -2.009612,0 -4.019224,0 -6.028836,0 0,7.073294 0,14.146588 0,21.219882 -1.668357,0 -3.346194,0 -5.02403,0 0,-16.284587 0,-32.578593 0,-48.86317997 3.497862,0 6.986245,0 10.484107,0 2.322429,0 4.237248,0.49918047 5.649664,1.53521557 1.412416,1.1019645 2.625767,2.7596206 3.507342,5.0294792 0.891054,2.2698585 1.327102,4.6715762 1.327102,7.1486412 0,2.552414 -0.388651,4.878784 -1.09012,6.997946 -0.691989,2.119163 -1.810546,3.776819 -3.270359,5.029479 -1.459812,1.328009 -3.327235,1.977885 -5.55487,1.902537 z m 4.843923,-13.788684 c 0,-1.893119 -0.388652,-3.343568 -1.09012,-4.370184 -0.748865,-1.0266167 -1.620961,-1.5352157 -2.521494,-1.6105637 -2.44566,0 -4.900799,0 -7.355938,0 0,4.0122807 0,8.0245627 0,12.0368437 2.521494,0 5.033509,0 7.545524,0 0.94793,0 1.772629,-0.508599 2.426701,-1.601145 0.654072,-1.101965 0.995327,-2.552414 0.995327,-4.454951 z"
   style="fill:#000000;fill-opacity:1;fill-rule:evenodd;stroke:#000000"
   inkscape:connector-curvature="0" /></g><g
   id="g4197"
   transform="matrix(1.3654736,0,0,1.3654736,-1298.3514,133.07292)"><path
   inkscape:connector-curvature="0"
   id="path4177"
   d="m 1268.7392,-23.357517 c -3.0421,0 -5.5069,2.58695 -5.5712,5.8125 l 11.1426,0 c -0.065,-3.22555 -2.5292,-5.8125 -5.5714,-5.8125 z"
   style="fill:#000000;fill-opacity:1;stroke:none" /><text
   xml:space="preserve"
   x="0"
   y="11.981585"
   style="font-style:normal;font-weight:normal;font-size:13.88037109px;line-height:0%;font-family:Calibri;text-align:start;text-anchor:start;fill:#000000;stroke:#ffffff;stroke-width:1.0922296;stroke-miterlimit:4;stroke-dasharray:none;stroke-opacity:1"
   id="text4140"
   transform="matrix(1.7804532,0,0,1.0657174,1044.1966,-17.038074)"> </text>

<path
   transform="matrix(1.1578947,0,0,1.0968926,-192.17515,-217.96007)"
   d="m 1127.7344,176.2442 c 0,2.0495 -1.574,3.71094 -3.5156,3.71094 -1.9417,0 -3.5157,-1.66144 -3.5157,-3.71094 0,-2.04949 1.574,-3.71094 3.5157,-3.71094 1.9416,0 3.5156,1.66145 3.5156,3.71094 z"
   sodipodi:ry="3.7109375"
   sodipodi:rx="3.515625"
   sodipodi:cy="176.2442"
   sodipodi:cx="1124.2188"
   id="path4169"
   style="fill:#000000;fill-opacity:1;stroke:#ffffff;stroke-width:0;stroke-miterlimit:4;stroke-opacity:1;stroke-dasharray:none"
   sodipodi:type="arc" /><path
   sodipodi:type="arc"
   style="fill:#000000;fill-opacity:1;stroke:#ffffff;stroke-width:0;stroke-miterlimit:4;stroke-opacity:1;stroke-dasharray:none"
   id="path4171"
   sodipodi:cx="1124.2188"
   sodipodi:cy="176.2442"
   sodipodi:rx="3.515625"
   sodipodi:ry="3.7109375"
   d="m 1127.7344,176.2442 c 0,2.0495 -1.574,3.71094 -3.5156,3.71094 -1.9417,0 -3.5157,-1.66144 -3.5157,-3.71094 0,-2.04949 1.574,-3.71094 3.5157,-3.71094 1.9416,0 3.5156,1.66145 3.5156,3.71094 z"
   transform="matrix(1.3662181,0,0,1.2942407,-292.20283,-197.93339)" /><path
   sodipodi:nodetypes="cccc"
   transform="translate(-14.471618,-199.9378)"
   inkscape:connector-curvature="0"
   id="path4173"
   d="m 1122.9809,179.18345 c 0.9498,0.94298 0.2666,3.03092 -0.2762,4.28131 2.9507,-1.79047 5.3861,-4.91898 5.3705,-8.2864 z"
   style="fill:#000000;fill-opacity:1;stroke:none" /><path
   inkscape:connector-curvature="0"
   id="path4175"
   d="m 1106.7041,-42.65575 -4.75,8 18.75,4.75 z"
   style="fill:#000000;stroke:none" /></g><g
   id="g4216"
   transform="matrix(2.4106665,0,0,1.3764113,131.14131,111.74517)"
   style="stroke:#000000;stroke-opacity:1"><text
   id="text4218"
   style="font-style:normal;font-weight:normal;font-size:13.88037109px;line-height:0%;font-family:Calibri;text-align:start;text-anchor:start;fill:#000000;stroke:#000000;stroke-opacity:1"
   y="59.799438"
   x="0"
   xml:space="preserve"> </text>

<path
   id="path4220"
   d="m -0.0754368,45.92011 c 0,-15.090719 0,-30.181438 0,-45.27215753 2.8383096,0 5.6671895,0 8.505499,0 1.9613568,0 3.4700928,0.22537477 4.4507708,0.77003043 0.980679,0.5446557 1.801054,1.4367642 2.36683,2.8171847 0.282888,0.6573431 0.528058,1.3710299 0.69779,2.1504509 0.169733,0.7794211 0.348896,1.8499513 0.462051,3.2303718 0.113155,1.3710297 0.169733,3.1082937 0.22631,5.2587447 0.05658,2.159842 0.06601,4.967636 0.06601,8.376429 0,3.530871 -0.0094,6.395009 -0.06601,8.611194 -0.05658,2.216186 -0.169733,3.95345 -0.282888,5.268136 -0.113155,1.37103 -0.23574,2.385216 -0.405473,3.164637 -0.169732,0.779421 -0.414902,1.436764 -0.69779,2.094107 -0.509198,1.380421 -1.329574,2.263139 -2.310252,2.751451 -0.980678,0.544655 -2.489414,0.779421 -4.5073488,0.779421 -2.8383095,0 -5.6671894,0 -8.505499,0 z m 8.3829142,-5.559245 c 0.754368,0 1.3390032,-0.122078 1.7350466,-0.422577 0.348895,-0.244156 0.641213,-0.713687 0.810945,-1.380421 0.113156,-0.413187 0.23574,-0.948452 0.348896,-1.493108 0.05658,-0.535265 0.113155,-1.371029 0.169732,-2.45095 0.05658,-1.07053 0.06601,-2.507295 0.122585,-4.300902 0,-1.793608 0,-4.188215 0,-7.118087 0,-2.873528 0,-5.202401 0,-6.996008 -0.05658,-1.737264 -0.06601,-3.174028 -0.122585,-4.310293 C 11.31552,10.808598 11.258942,9.9728337 11.202365,9.3718343 11.145787,8.8365692 11.023202,8.3013041 10.853469,7.8787264 10.627159,7.2213833 10.334841,6.7518525 9.9859462,6.4419622 9.589903,6.1414625 9.0618454,6.0287752 8.3074774,6.0287752 c -1.0938335,0 -2.1970967,0 -3.2909303,0 0,11.4377698 0,22.8849298 0,34.3320898 1.0938336,0 2.1970968,0 3.2909303,0 z"
   style="fill:#000000;fill-opacity:1;fill-rule:evenodd;stroke:#000000;stroke-opacity:1"
   inkscape:connector-curvature="0" /><path
   id="path4222"
   d="m 31.089391,0.64795247 c 1.697328,0 3.394656,0 5.091984,0 0,10.90250453 0,21.80500953 0,32.70751353 0,1.502499 0,2.817185 0,3.831371 -0.05658,1.014187 -0.05658,1.915686 -0.122585,2.695107 -0.05658,0.77003 -0.169733,1.427374 -0.339466,1.972029 -0.169733,0.535265 -0.358325,1.136265 -0.641213,1.67153 -0.565776,1.201999 -1.386151,2.028373 -2.423407,2.516685 -1.093833,0.422577 -2.659147,0.657343 -4.686511,0.657343 -2.083941,0 -3.649255,-0.234766 -4.686511,-0.657343 -1.093834,-0.488312 -1.914209,-1.314686 -2.479985,-2.516685 -0.282888,-0.535265 -0.46205,-1.136265 -0.641213,-1.67153 -0.169732,-0.544655 -0.282888,-1.201999 -0.339465,-1.972029 -0.05658,-0.779421 -0.122585,-1.68092 -0.122585,-2.695107 -0.05658,-1.014186 -0.05658,-2.328872 -0.05658,-3.831371 0,-10.902504 0,-21.805009 0,-32.70751353 1.753906,0 3.507812,0 5.261717,0 0,10.90250453 0,21.80500953 0,32.70751353 0,1.201999 0,2.159842 0.05658,2.873529 0,0.779421 0.0094,1.38042 0.06601,1.859341 0.05658,0.469531 0.113155,0.835765 0.22631,1.136265 0.05658,0.291109 0.179163,0.535265 0.348896,0.835765 0.22631,0.422577 0.518628,0.657343 0.9241,0.77003 0.348896,0.187813 0.867524,0.244156 1.499307,0.244156 0.641212,0 1.15984,-0.05634 1.508736,-0.244156 0.339465,-0.112687 0.641212,-0.347453 0.867523,-0.77003 0.169733,-0.3005 0.282888,-0.535265 0.405473,-0.835765 0.05658,-0.3005 0.113155,-0.666734 0.169732,-1.136265 0.05658,-0.478921 0.05658,-1.07992 0.113156,-1.859341 0,-0.713687 0,-1.67153 0,-2.873529 0,-10.902504 0,-21.805009 0,-32.70751353"
   style="fill:#000000;fill-opacity:1;fill-rule:evenodd;stroke:#000000;stroke-opacity:1"
   inkscape:connector-curvature="0" /><path
   id="path4224"
   d="m 53.578986,45.92011 c -1.244707,-4.376027 -2.385689,-8.132273 -3.29093,-11.306301 -0.905242,-3.174028 -1.687898,-5.79401 -2.310252,-8.010195 -0.631783,-2.216186 -1.16927,-4.009793 -1.565314,-5.390214 -0.396043,-1.371029 -0.69779,-2.507294 -0.9241,-3.408793 -0.282888,-0.892108 -0.462051,-1.549452 -0.575206,-2.084717 -0.169733,-0.488312 -0.292318,-0.901499 -0.348895,-1.324076 -0.0943,0 -0.198022,0 -0.292318,0 0.05658,1.258342 0.05658,2.638763 0.05658,4.009792 0,1.380421 0,2.929872 0,4.601402 0,7.643961 0,15.278531 0,22.913102 -1.555884,0 -3.121198,0 -4.677082,0 0,-15.090719 0,-30.181438 0,-45.27215753 1.961357,0 3.932143,0 5.8935,0 0.848664,3.35244973 1.574743,6.21658743 2.197097,8.54546013 0.622354,2.3946074 1.16927,4.3666364 1.565314,5.9818224 0.396043,1.615186 0.69779,2.929872 0.980678,3.887714 0.22631,1.023578 0.405473,1.793608 0.575205,2.338264 0.113156,0.591609 0.23574,1.014186 0.292318,1.314686 0.05658,0.291109 0.05658,0.591609 0.113155,0.835765 0.0943,0 0.198022,0 0.292318,0 -0.05658,-0.779421 -0.05658,-1.558842 -0.05658,-2.338264 0,-0.77003 0,-1.849951 0,-3.220981 0,-5.784619 0,-11.569238 0,-17.34446653 1.574743,0 3.158916,0 4.733659,0 0,15.09071953 0,30.18143853 0,45.27215753 -0.876952,0 -1.772764,0 -2.659147,0"
   style="fill:#000000;fill-opacity:1;fill-rule:evenodd;stroke:#000000;stroke-opacity:1"
   inkscape:connector-curvature="0" /><path
   id="path4226"
   d="m 66.704989,25.946271 c 0,-1.718483 0,-3.436966 0,-5.146058 3.026902,0 6.053803,0 9.080705,0 0.05658,0.779421 0.05658,1.737264 0.113155,2.929872 0,1.192609 0,2.695107 0,4.488715 0,2.45095 0,4.545057 -0.05658,6.160243 -0.05658,1.615186 -0.169732,2.986216 -0.292317,4.066137 -0.169733,1.079921 -0.292318,1.972029 -0.462051,2.629372 -0.169732,0.657343 -0.405472,1.314686 -0.631783,1.915686 -0.509198,1.38042 -1.339003,2.319482 -2.310252,2.873528 -0.980678,0.544656 -2.489414,0.835765 -4.4602,0.835765 -1.961357,0 -3.470093,-0.234766 -4.450772,-0.835765 -0.971248,-0.554046 -1.801053,-1.493108 -2.310252,-2.873528 -0.282887,-0.657343 -0.518627,-1.436764 -0.68836,-2.272529 -0.169733,-0.779421 -0.348895,-1.915686 -0.47148,-3.35245 -0.113155,-1.436764 -0.169733,-3.286715 -0.226311,-5.559244 -0.05658,-2.272529 -0.113155,-5.268136 -0.113155,-8.911694 0,-3.530872 0.05658,-6.338666 0.113155,-8.554851 0.05658,-2.216185 0.113156,-4.009793 0.226311,-5.3808228 0.122585,-1.3804205 0.301747,-2.394607 0.47148,-3.1740281 0.169733,-0.779421 0.405473,-1.4273735 0.631783,-2.0283729 0.565776,-1.5024985 1.395581,-2.563638 2.423407,-3.10829373 0.980678,-0.55404631 2.489414,-0.77942109 4.394194,-0.77942109 2.140519,0 3.77184,0.34745278 4.743088,1.01418648 0.980679,0.66673374 1.744476,1.61518584 2.140519,2.87352834 0.509199,1.3804205 0.810946,2.7514503 0.924101,4.1788239 0.113155,1.4367642 0.179163,2.8171849 0.179163,4.1882149 0,0.600999 0,1.07992 0,1.38042 0,0.3005 0,0.657343 -0.05658,0.957843 -1.621891,0 -3.243782,0 -4.865673,0 0.06601,-0.3005 0.06601,-0.601 0.06601,-0.957843 0,-0.3005 0,-0.779421 0,-1.38042 0,-0.770031 0,-1.549452 -0.06601,-2.328873 C 70.69371,9.0149909 70.523977,8.1792261 70.344815,7.2871176 70.184512,6.6203839 69.939342,6.0851188 69.599876,5.6625411 69.194404,5.3056978 68.553191,5.1272761 67.685668,5.1272761 c -0.744939,0 -1.329574,0.1784217 -1.725617,0.4789214 -0.405473,0.3004996 -0.697791,0.901499 -0.867523,1.7372638 -0.122585,0.4131871 -0.23574,0.8357648 -0.292318,1.3710299 -0.05658,0.5446557 -0.113155,1.3804208 -0.169733,2.5166848 -0.05658,1.136265 -0.122585,2.573029 -0.179162,4.42298 -0.05658,1.859342 -0.05658,4.244558 -0.05658,7.183821 0,3.108294 0,5.615588 0.05658,7.531274 0.05658,1.915685 0.122585,3.408793 0.179162,4.545057 0.05658,1.136265 0.169733,2.028373 0.282888,2.573029 0.05658,0.600999 0.179163,1.136265 0.292318,1.615186 0.169733,0.779421 0.46205,1.248952 0.810945,1.549451 0.282888,0.309891 0.924101,0.478922 1.791624,0.478922 0.744939,0 1.329574,-0.169031 1.735047,-0.478922 0.396043,-0.300499 0.69779,-0.77003 0.867523,-1.493107 0.113155,-0.413187 0.22631,-0.957843 0.339466,-1.493108 0.06601,-0.535265 0.179162,-1.136265 0.23574,-1.915686 0.05658,-0.713687 0.05658,-1.615186 0.113155,-2.629372 0.05658,-1.014187 0.05658,-2.272529 0.05658,-3.709293 0,-0.892109 0,-1.615186 0,-2.150451 0,-0.544656 0,-0.957843 -0.05658,-1.314686 -1.461588,0 -2.923176,0 -4.394194,0"
   style="fill:#000000;fill-opacity:1;fill-rule:evenodd;stroke:#000000;stroke-opacity:1"
   inkscape:connector-curvature="0" /><path
   id="path4228"
   d="m 87.638701,45.92011 c 0,-15.090719 0,-30.181438 0,-45.27215753 1.697328,0 3.394656,0 5.091984,0 0,13.21259553 0,26.43458253 0,39.64717853 2.59314,0 5.195709,0 7.798275,0 0,1.878123 0,3.746856 0,5.624979 -4.299894,0 -8.590362,0 -12.890259,0"
   style="fill:#000000;fill-opacity:1;fill-rule:evenodd;stroke:#000000;stroke-opacity:1"
   inkscape:connector-curvature="0" /><path
   id="path4232"
   d="m 122.92411,45.92011 c 0,-15.090719 0,-30.181438 0,-45.27215752 1.7539,0 3.50781,0 5.26172,0 0,15.09071952 0,30.18143852 0,45.27215752 -1.75391,0 -3.50782,0 -5.26172,0"
   style="fill:#000000;fill-opacity:1;fill-rule:evenodd;stroke:#000000;stroke-opacity:1"
   inkscape:connector-curvature="0" /><path
   inkscape:connector-curvature="0"
   style="fill:#000000;fill-opacity:1;fill-rule:evenodd;stroke:#000000;stroke-width:0;stroke-miterlimit:4;stroke-opacity:1;stroke-dasharray:none"
   d="m 102.26551,46.646637 c 1.88086,-15.090719 3.76172,-30.181438 5.64258,-45.2721575 1.7539,0 3.50781,0 5.26172,0 -1.88086,15.0907195 -3.76172,30.1814385 -5.64258,45.2721575 -1.75391,0 -3.50782,0 -5.26172,0"
   id="path4247" /><path
   id="path4249"
   d="m 120.84403,46.646637 c -1.88086,-15.090719 -3.76172,-30.181438 -5.64258,-45.2721576 -1.7539,0 -3.50781,0 -5.26172,0 1.88086,15.0907196 3.76172,30.1814386 5.64258,45.2721576 1.75391,0 3.50782,0 5.26172,0"
   style="fill:#000000;fill-opacity:1;fill-rule:evenodd;stroke:#000000;stroke-width:0;stroke-miterlimit:4;stroke-opacity:1;stroke-dasharray:none"
   inkscape:connector-curvature="0" /></g><rect
   style="fill:#000000;fill-opacity:1;stroke:#000000;stroke-width:0.97537339;stroke-miterlimit:4;stroke-opacity:1;stroke-dasharray:none"
   id="rect4251"
   width="18.531223"
   height="9.7781744"
   x="390.00864"
   y="153.03239" /></svg>