<?xml version="1.0" encoding="UTF-8" standalone="no"?>
<!-- Created with Inkscape (http://www.inkscape.org/) -->

<svg
   xmlns:dc="http://purl.org/dc/elements/1.1/"
   xmlns:cc="http://creativecommons.org/ns#"
   xmlns:rdf="http://www.w3.org/1999/02/22-rdf-syntax-ns#"
   xmlns:svg="http://www.w3.org/2000/svg"
   xmlns="http://www.w3.org/2000/svg"
   xmlns:sodipodi="http://sodipodi.sourceforge.net/DTD/sodipodi-0.dtd"
   xmlns:inkscape="http://www.inkscape.org/namespaces/inkscape"
   width="900mm"
   height="450mm"
   viewBox="0 0 900 450"
   version="1.1"
   id="svg848"
   inkscape:version="0.92.2 (5c3e80d, 2017-08-06)"
   sodipodi:docname="11.svg">
  <defs
     id="defs842" />
  <sodipodi:namedview
     id="base"
     pagecolor="#ffffff"
     bordercolor="#666666"
     borderopacity="1.0"
     inkscape:pageopacity="0.0"
     inkscape:pageshadow="2"
     inkscape:zoom="0.17497515"
     inkscape:cx="1277.3981"
     inkscape:cy="189.73156"
     inkscape:document-units="mm"
     inkscape:current-layer="layer1"
     showgrid="false"
     inkscape:snap-global="false"
     inkscape:window-width="1920"
     inkscape:window-height="1057"
     inkscape:window-x="-8"
     inkscape:window-y="-8"
     inkscape:window-maximized="1"
     fit-margin-top="0"
     fit-margin-left="0"
     fit-margin-right="0"
     fit-margin-bottom="0"
     showguides="false"
     inkscape:lockguides="true" />
  <metadata
     id="metadata845">
    <rdf:RDF>
      <cc:Work
         rdf:about="">
        <dc:format>image/svg+xml</dc:format>
        <dc:type
           rdf:resource="http://purl.org/dc/dcmitype/StillImage" />
        <dc:title></dc:title>
      </cc:Work>
    </rdf:RDF>
  </metadata>
  <g
     inkscape:label="Layer 1"
     inkscape:groupmode="layer"
     id="layer1"
     transform="translate(0,153)">
    <rect
       style="opacity:1;fill:#0046aa;fill-opacity:1;fill-rule:nonzero;stroke:none;stroke-width:2.69753385;stroke-linecap:butt;stroke-linejoin:miter;stroke-miterlimit:10;stroke-dasharray:none;stroke-opacity:1;paint-order:stroke fill markers"
       id="rect1393"
       width="900"
       height="450"
       x="0"
       y="-153" />
    <rect
       y="-148"
       x="5"
       height="440"
       width="890"
       id="rect1395"
       style="opacity:1;fill:#ffffff;fill-opacity:1;fill-rule:nonzero;stroke:none;stroke-width:2.65253282;stroke-linecap:butt;stroke-linejoin:miter;stroke-miterlimit:10;stroke-dasharray:none;stroke-opacity:1;paint-order:stroke fill markers" />
    <rect
       y="-138"
       x="15"
       height="420"
       width="870"
       id="rect1406"
       style="opacity:1;fill:#0046aa;fill-opacity:1;fill-rule:nonzero;stroke:none;stroke-width:2.56226325;stroke-linecap:butt;stroke-linejoin:miter;stroke-miterlimit:10;stroke-dasharray:none;stroke-opacity:1;paint-order:stroke fill markers" />
    <g
       aria-label="ĐOẠN ĐƯỜNG THI CÔNG"
       style="font-style:normal;font-variant:normal;font-weight:bold;font-stretch:normal;font-size:221.00715637px;line-height:0;font-family:Giaothong1;-inkscape-font-specification:'Giaothong1 Bold';letter-spacing:0px;word-spacing:2.73314595px;fill:#000000;fill-opacity:1;stroke:none;stroke-width:1.15107894"
       id="text830"
       transform="translate(87.158,216.08892)" />
    <g
       aria-label="CẦU YÊN CHÂU"
       style="font-style:normal;font-variant:normal;font-weight:bold;font-stretch:normal;font-size:176.80581665px;line-height:0;font-family:Giaothong1;-inkscape-font-specification:'Giaothong1 Bold';letter-spacing:0px;word-spacing:4.85510397px;fill:#ffffff;fill-opacity:1;stroke:none;stroke-width:0.92086363"
       id="text886"
       transform="matrix(1,0,0,-1,-632.8302,-1182.9923)">
      <path
         d="m 762.30506,-1199.2581 q 0,-5.6115 -0.69065,-9.6691 -0.60431,-3.9712 -3.53957,-8.7194 -2.84892,-4.7482 -9.15108,-8.5468 -6.30216,-3.7985 -12.77698,-3.7985 -7.76979,0 -14.24461,3.3669 -6.47482,3.3669 -9.49641,8.4604 -3.02158,5.0935 -3.79856,9.4101 -0.77698,4.4029 -0.77698,9.4964 v 60.8633 q 0,4.9209 0.94964,8.8058 1.03597,3.8849 4.14389,8.4604 3.19424,4.6619 8.89209,7.8561 5.78417,3.2806 12.17266,3.2806 12.17267,0 20.20145,-8.0288 8.11511,-8.0287 8.11511,-20.3741 v -6.3885 h -16.66188 v 6.3885 q 0,4.9209 -2.76259,8.2015 -2.67626,3.2805 -8.02878,3.2805 -4.92086,0 -7.68345,-3.2805 -2.67626,-3.2806 -2.67626,-8.2015 v -60.8633 q 0,-2.3309 0.0863,-4.6619 0.0863,-2.2446 2.33093,-5.7841 2.33094,-3.5396 8.11511,-3.5396 6.21583,0 8.02878,3.1079 1.89928,3.1079 2.24461,4.5755 0.34532,1.554 0.34532,4.1439 v 2.1583 3.8849 h 16.66188 z"
         style="word-spacing:4.85510397px;fill:#ffffff;stroke:none;stroke-width:0.92086363"
         id="path952"
         inkscape:connector-curvature="0" />
      <path
         d="m 767.91657,-1228.956 26.33095,117.9281 h 14.67626 l 26.33095,-117.9281 h -18.04318 l -4.7482,25.295 h -21.92806 l -4.74821,-25.295 z m 25.6403,41.0073 h 15.8849 l -7.94245,42.9928 z m 32.8921,94.187 -24.259,24.0864 h 16.66187 l 18.3885,-24.0864 z m -25.12231,-1.1223 -12.08634,-9.2374 h -11.65468 l 17.61152,17.6979 h 12.94964 l 17.43886,-17.6979 h -11.82735 z"
         style="word-spacing:4.85510397px;fill:#ffffff;stroke:none;stroke-width:0.92086363"
         id="path954"
         inkscape:connector-curvature="0" />
      <path
         d="m 894.8231,-1216.6106 q -3.71223,-5.9569 -9.92806,-9.6691 -6.21583,-3.7122 -13.46763,-3.7122 -7.42447,0 -14.07195,3.7985 -6.56115,3.7986 -9.23741,8.6331 -2.67626,4.8346 -3.45324,8.4605 -0.77698,3.6259 -0.77698,7.9424 v 90.1295 h 16.83454 v -90.1295 q 0,-2.3309 0.34532,-4.0575 0.34532,-1.6403 2.67626,-4.8346 2.41727,-3.1942 7.94245,-3.1942 5.09353,0 7.59712,3.7122 2.58993,3.7122 2.58993,8.3741 v 90.1295 h 16.83454 v -90.1295 q 0,-4.3165 -0.94964,-8.1151 -0.86331,-3.7986 -2.93525,-7.3381 z"
         style="word-spacing:4.85510397px;fill:#ffffff;stroke:none;stroke-width:0.92086363"
         id="path956"
         inkscape:connector-curvature="0" />
      <path
         d="m 966.3276,-1228.956 v 50.7627 l -22.79138,67.1654 h 17.69785 l 13.55396,-46.187 13.98562,46.187 h 17.69785 l -23.30936,-67.1654 v -50.7627 z"
         style="word-spacing:4.85510397px;fill:#ffffff;stroke:none;stroke-width:0.92086363"
         id="path958"
         inkscape:connector-curvature="0" />
      <path
         d="m 1065.9535,-1211.9488 v -17.0072 h -50.4173 v 117.9281 h 50.4173 v -15.5395 h -33.7554 v -34.8777 h 29.6979 v -15.8849 h -29.6979 v -34.6188 z m -25.9856,117.0648 -12.0863,-9.2374 h -11.6547 l 17.6115,17.6979 h 12.9497 l 17.4388,-17.6979 h -11.8273 z"
         style="word-spacing:4.85510397px;fill:#ffffff;stroke:none;stroke-width:0.92086363"
         id="path960"
         inkscape:connector-curvature="0" />
      <path
         d="m 1124.6586,-1228.956 -26.331,71.5684 v -71.5684 h -16.8345 v 117.9281 h 15.8849 l 26.1583,-71.3957 v 71.3957 h 16.8345 v -117.9281 z"
         style="word-spacing:4.85510397px;fill:#ffffff;stroke:none;stroke-width:0.92086363"
         id="path962"
         inkscape:connector-curvature="0" />
      <path
         d="m 1248.2188,-1199.2581 q 0,-5.6115 -0.6907,-9.6691 -0.6043,-3.9712 -3.5395,-8.7194 -2.849,-4.7482 -9.1511,-8.5468 -6.3022,-3.7985 -12.777,-3.7985 -7.7698,0 -14.2446,3.3669 -6.4748,3.3669 -9.4964,8.4604 -3.0216,5.0935 -3.7986,9.4101 -0.777,4.4029 -0.777,9.4964 v 60.8633 q 0,4.9209 0.9497,8.8058 1.0359,3.8849 4.1439,8.4604 3.1942,4.6619 8.892,7.8561 5.7842,3.2806 12.1727,3.2806 12.1727,0 20.2015,-8.0288 8.1151,-8.0287 8.1151,-20.3741 v -6.3885 h -16.6619 v 6.3885 q 0,4.9209 -2.7626,8.2015 -2.6763,3.2805 -8.0288,3.2805 -4.9208,0 -7.6834,-3.2805 -2.6763,-3.2806 -2.6763,-8.2015 v -60.8633 q 0,-2.3309 0.086,-4.6619 0.086,-2.2446 2.3309,-5.7841 2.331,-3.5396 8.1152,-3.5396 6.2158,0 8.0287,3.1079 1.8993,3.1079 2.2446,4.5755 0.3454,1.554 0.3454,4.1439 v 2.1583 3.8849 h 16.6618 z"
         style="word-spacing:4.85510397px;fill:#ffffff;stroke:none;stroke-width:0.92086363"
         id="path964"
         inkscape:connector-curvature="0" />
      <path
         d="m 1262.8087,-1228.956 v 117.9281 h 16.6619 v -50.4172 h 21.4964 v 50.4172 h 16.6619 v -117.9281 h -16.6619 v 52.6619 h -21.4964 v -52.6619 z"
         style="word-spacing:4.85510397px;fill:#ffffff;stroke:none;stroke-width:0.92086363"
         id="path966"
         inkscape:connector-curvature="0" />
      <path
         d="m 1327.039,-1228.956 26.3309,117.9281 h 14.6763 l 26.3309,-117.9281 h -18.0432 l -4.7482,25.295 h -21.928 l -4.7482,-25.295 z m 25.6403,41.0073 h 15.8849 l -7.9425,42.9928 z m 7.7698,93.0647 -12.0864,-9.2374 h -11.6547 l 17.6116,17.6979 h 12.9496 l 17.4389,-17.6979 h -11.8274 z"
         style="word-spacing:4.85510397px;fill:#ffffff;stroke:none;stroke-width:0.92086363"
         id="path968"
         inkscape:connector-curvature="0" />
      <path
         d="m 1453.9455,-1216.6106 q -3.7123,-5.9569 -9.9281,-9.6691 -6.2158,-3.7122 -13.4676,-3.7122 -7.4245,0 -14.072,3.7985 -6.5611,3.7986 -9.2374,8.6331 -2.6763,4.8346 -3.4532,8.4605 -0.777,3.6259 -0.777,7.9424 v 90.1295 h 16.8345 v -90.1295 q 0,-2.3309 0.3453,-4.0575 0.3454,-1.6403 2.6763,-4.8346 2.4173,-3.1942 7.9425,-3.1942 5.0935,0 7.5971,3.7122 2.5899,3.7122 2.5899,8.3741 v 90.1295 h 16.8345 v -90.1295 q 0,-4.3165 -0.9496,-8.1151 -0.8633,-3.7986 -2.9352,-7.3381 z"
         style="word-spacing:4.85510397px;fill:#ffffff;stroke:none;stroke-width:0.92086363"
         id="path970"
         inkscape:connector-curvature="0" />
    </g>
    <g
       aria-label="Km 252 + 831"
       style="font-style:normal;font-variant:normal;font-weight:bold;font-stretch:normal;font-size:132.60430908px;line-height:0;font-family:Giaothong1;-inkscape-font-specification:'Giaothong1 Bold';letter-spacing:0px;word-spacing:0.14552084px;fill:#ffffff;fill-opacity:1;stroke:none;stroke-width:0.69064748"
       id="text890"
       transform="translate(-4.999987)">
      <path
         d="m 123.66905,201.22302 -14.17986,-39.4964 -6.9928,13.07914 v 26.41726 H 89.999987 v -88.44604 h 12.625903 v 40.72662 l 18.90647,-40.72662 h 12.4964 l -17.22302,35.28777 20.26619,53.15827 z"
         style="word-spacing:0.14552084px;fill:#ffffff;stroke:none;stroke-width:0.69064748"
         id="path996"
         inkscape:connector-curvature="0" />
      <path
         d="m 180.58272,143.79137 q 2.52518,-3.17266 5.56834,-4.79137 3.04317,-1.68345 6.92806,-1.68345 6.47482,0 10.6187,4.59712 4.20863,4.53238 4.20863,11.07195 v 48.2374 h -12.75539 v -44.67625 q 0,-3.04317 -1.55396,-4.98562 -1.48921,-1.94244 -4.66187,-1.94244 -2.65467,0 -4.46762,2.07194 -1.7482,2.07194 -1.7482,4.85612 v 44.67625 h -12.7554 v -44.67625 q 0,-2.91367 -1.7482,-4.92087 -1.68345,-2.00719 -4.59712,-2.00719 -2.65468,0 -4.46763,2.07194 -1.7482,2.07194 -1.7482,4.85612 v 44.67625 h -12.75539 v -63.12949 h 12.75539 v 5.69784 q 4.33813,-6.47482 11.91367,-6.47482 3.56115,0 6.41007,1.68345 2.84892,1.61871 4.85612,4.79137 z"
         style="word-spacing:0.14552084px;fill:#ffffff;stroke:none;stroke-width:0.69064748"
         id="path998"
         inkscape:connector-curvature="0" />
      <path
         d="m 279.53644,201.22302 h -37.68345 v -11.65467 l 23.5036,-45.64748 q 1.55395,-3.17266 1.55395,-6.47482 v -6.60432 q 0,-2.65467 -1.87769,-4.53237 -1.81295,-1.8777 -4.46763,-1.8777 -2.39568,0 -4.33813,1.68345 -1.8777,1.61871 -1.8777,4.14389 v 7.83453 H 241.594 v -6.34532 q 0,-5.17986 3.88489,-12.43166 3.94964,-7.31654 15.73381,-7.31654 7.44604,0 12.88489,5.69784 5.43885,5.69784 5.43885,13.14388 v 8.02878 q 0,2.78417 -0.77698,5.43885 -0.71223,2.65467 -2.13669,5.43885 l -19.94244,38.84891 h 22.85611 z"
         style="word-spacing:0.14552084px;fill:#ffffff;stroke:none;stroke-width:0.69064748"
         id="path1000"
         inkscape:connector-curvature="0" />
      <path
         d="m 310.22708,144.30936 q 3.36691,0 6.73382,1.87769 3.3669,1.8777 4.98561,4.33813 1.68345,2.46044 2.26618,5.17986 0.64749,2.65468 0.64749,5.76259 v 19.8777 q 0,2.91366 -0.19425,4.92086 -0.19424,1.94244 -1.55396,5.56834 -1.29496,3.56115 -6.41007,6.86331 Q 311.5868,202 305.75946,202 q -4.53238,0 -8.61151,-2.13669 -4.01439,-2.20144 -6.28058,-5.3741 -2.20144,-3.23741 -3.04316,-6.47482 -0.77698,-3.23741 -0.77698,-6.66906 v -2.26619 h 12.88489 v 2.26619 q 0,1.29496 0.0648,2.65467 0.0648,1.29497 1.35971,3.30216 1.35971,2.00719 4.66187,2.00719 3.56115,0 4.72662,-1.94244 1.23021,-1.94245 1.35971,-3.04317 0.1295,-1.16546 0.1295,-2.46043 v -1.48921 -17.22302 q 0,-1.16547 -0.0648,-2.46043 -0.0648,-1.35971 -1.48921,-3.36691 -1.35971,-2.00719 -4.53237,-2.00719 -4.66187,0 -6.21583,4.66187 h -11.26619 v -47.20144 h 36.19425 v 11.78418 h -24.92806 v 23.76258 q 4.59712,-4.01438 10.29496,-4.01438 z"
         style="word-spacing:0.14552084px;fill:#ffffff;stroke:none;stroke-width:0.69064748"
         id="path1002"
         inkscape:connector-curvature="0" />
      <path
         d="m 372.77384,201.22302 h -37.68345 v -11.65467 l 23.50359,-45.64748 q 1.55396,-3.17266 1.55396,-6.47482 v -6.60432 q 0,-2.65467 -1.8777,-4.53237 -1.81295,-1.8777 -4.46762,-1.8777 -2.39569,0 -4.33813,1.68345 -1.8777,1.61871 -1.8777,4.14389 v 7.83453 h -12.7554 v -6.34532 q 0,-5.17986 3.8849,-12.43166 3.94964,-7.31654 15.73381,-7.31654 7.44604,0 12.88489,5.69784 5.43885,5.69784 5.43885,13.14388 v 8.02878 q 0,2.78417 -0.77698,5.43885 -0.71223,2.65467 -2.13669,5.43885 l -19.94245,38.84891 h 22.85612 z"
         style="word-spacing:0.14552084px;fill:#ffffff;stroke:none;stroke-width:0.69064748"
         id="path1004"
         inkscape:connector-curvature="0" />
      <path
         d="m 429.57404,126.05036 h 7.1223 v 25.83454 h 27.19424 v 6.92805 h -27.19424 v 25.83453 h -7.1223 v -25.83453 h -27.06475 v -6.92805 h 27.06475 z"
         style="word-spacing:0.14552084px;fill:#ffffff;stroke:none;stroke-width:0.69064748"
         id="path1006"
         inkscape:connector-curvature="0" />
      <path
         d="m 531.82746,183.02878 q 0,4.01439 -2.0072,8.41726 -2.00719,4.33813 -6.53957,7.44605 Q 518.81307,202 513.50372,202 q -5.69785,0 -10.48921,-2.91367 -4.72662,-2.91367 -6.47482,-6.53957 -1.7482,-3.6259 -2.13669,-6.02158 -0.38849,-2.39568 -0.38849,-4.92086 v -15.53957 q 0,-3.56115 1.6187,-6.41007 1.68346,-2.84892 4.72662,-5.11511 -6.34532,-4.79136 -6.34532,-13.14388 v -11.91367 q 0,-2.52518 0.97122,-5.11511 1.03597,-2.58993 4.79137,-7.44604 3.75539,-4.92086 13.46762,-4.92086 3.69065,0 6.99281,1.55395 3.36691,1.48921 7.44604,5.82734 4.14389,4.27338 4.14389,11.58993 v 11.39568 q 0,7.64029 -6.41008,12.17266 6.41008,4.40288 6.41008,12.4964 z m -18.84173,-58.46762 q -2.78417,0 -4.66187,1.87769 -1.81295,1.8777 -1.81295,4.53238 v 11.39568 q 0,3.04317 1.61871,5.2446 1.68345,2.1367 4.72661,2.1367 3.30216,0 4.79137,-2.0072 1.55396,-2.07194 1.55396,-5.3741 v -11.39568 q 0,-2.52518 -1.81295,-4.46763 -1.7482,-1.94244 -4.40288,-1.94244 z m 0,34.76978 q -2.91367,0 -4.72662,1.94244 -1.7482,1.8777 -1.7482,4.79137 v 15.53957 q 0,3.43165 1.55396,5.56834 1.6187,2.13669 5.17985,2.13669 3.43166,0 4.66187,-2.26618 1.29497,-2.26619 1.29497,-5.43885 v -15.53957 q 0,-2.91367 -1.68346,-4.79137 -1.6187,-1.94244 -4.53237,-1.94244 z"
         style="word-spacing:0.14552084px;fill:#ffffff;stroke:none;stroke-width:0.69064748"
         id="path1008"
         inkscape:connector-curvature="0" />
      <path
         d="m 579.35264,180.95684 v 1.55395 q 0,0.97123 -0.0647,2.07195 -0.0648,1.10071 -0.51799,3.10791 -1.81295,6.34532 -6.9928,10.35971 Q 566.59725,202 559.99293,202 q -5.30935,0 -9.97122,-3.17266 -4.66187,-3.17266 -6.15108,-6.53957 -1.42446,-3.36691 -1.8777,-5.43885 -0.45323,-2.07194 -0.45323,-5.89208 v -5.17986 h 12.6259 v 4.07914 q 0,1.6187 0.0647,3.17266 0.0648,1.48921 1.35972,3.82014 1.35971,2.33094 4.79136,2.33094 3.43166,0 4.85612,-2.33094 1.48921,-2.33093 1.48921,-5.89208 v -13.66187 q 0,-3.30216 -1.61871,-4.59713 -1.55396,-1.35971 -3.10791,-1.6187 -1.48921,-0.32374 -3.23741,-0.32374 h -2.26619 v -11.13669 h 2.26619 q 7.96403,0 7.96403,-7.3813 v -10.6187 q 0,-1.8777 -0.19425,-2.71942 -0.19424,-0.84173 -1.6187,-2.65468 -1.35972,-1.81295 -4.27338,-1.81295 -3.30216,0 -4.92087,2.00719 -1.55395,2.0072 -1.55395,5.17986 v 6.47482 h -12.6259 v -6.47482 q 0,-8.35252 5.3741,-13.98561 5.3741,-5.63309 13.72662,-5.63309 4.66187,0 8.93525,2.39568 4.33813,2.33093 6.34532,5.56834 2.07194,3.17267 2.71942,5.89209 0.71223,2.71942 0.71223,5.76259 v 10.35971 q 0,8.61151 -7.57553,13.07914 4.20863,2.91367 5.89208,5.95683 1.68345,2.97842 1.68345,7.96403 z"
         style="word-spacing:0.14552084px;fill:#ffffff;stroke:none;stroke-width:0.69064748"
         id="path1010"
         inkscape:connector-curvature="0" />
      <path
         d="m 603.43895,201.22302 v -75.17266 l -12.62589,9.38849 v -13.40287 l 12.62589,-9.259 h 12.56115 v 88.44604 z"
         style="word-spacing:0.14552084px;fill:#ffffff;stroke:none;stroke-width:0.69064748"
         id="path1012"
         inkscape:connector-curvature="0" />
    </g>
    <g
       aria-label="QL.6"
       style="font-style:normal;font-variant:normal;font-weight:bold;font-stretch:normal;font-size:130.44586182px;line-height:0;font-family:Giaothong1;-inkscape-font-specification:'Giaothong1 Bold';letter-spacing:0.0714375px;word-spacing:0px;fill:#ffffff;fill-opacity:1;stroke:none;stroke-width:0.67940551"
       id="text894"
       transform="translate(-13.999987,-95.000058)">
      <path
         d="m 681.96815,289.48417 q -2.99363,-3.3121 -4.01274,-6.87898 Q 677,279.03831 677,274.07016 v -43.31211 q 0,-9.42675 5.92357,-15.85987 5.92356,-6.43312 15.35031,-6.43312 8.47134,0 14.64969,6.05095 6.24203,6.05096 6.24203,14.5223 v 45.03185 q 0,3.75796 -0.38216,5.60509 -0.31847,1.84713 -1.0828,3.50319 l 8.21656,6.94267 -6.94268,8.34395 -7.64331,-6.24204 q -5.6051,4.64968 -13.82166,4.64968 -4.33121,0 -8.53503,-2.03821 -4.14013,-2.10191 -7.00637,-5.35032 z m 20.57325,-18.66242 4.20382,3.24841 v -43.31211 q 0,-4.20382 -2.35669,-7.07006 -2.35668,-2.86624 -6.49681,-2.86624 -2.61147,0 -4.58599,1.33758 -1.97452,1.27388 -2.80255,3.05732 -0.82802,1.78344 -0.95541,2.73886 -0.12739,0.95541 -0.12739,2.80254 v 43.31211 q 0,2.35668 0.31847,4.01273 0.31847,1.59236 1.52867,3.18472 1.27388,1.52866 2.86624,2.48407 1.65605,0.89172 4.14012,0.89172 1.40128,0 3.12102,-0.82802 l -5.73248,-4.64968 z"
         style="letter-spacing:0.0714375px;word-spacing:0px;fill:#ffffff;stroke:none;stroke-width:0.67940551"
         id="path973"
         inkscape:connector-curvature="0" />
      <path
         d="m 770.00138,296.23576 h -37.07007 v -87.00637 h 12.42038 v 74.4586 h 24.64969 z"
         style="letter-spacing:0.0714375px;word-spacing:0px;fill:#ffffff;stroke:none;stroke-width:0.67940551"
         id="path975"
         inkscape:connector-curvature="0" />
      <path
         d="m 778.992,296.23576 v -12.42038 h 12.42038 v 12.42038 z"
         style="letter-spacing:0.0714375px;word-spacing:0px;fill:#ffffff;stroke:none;stroke-width:0.67940551"
         id="path977"
         inkscape:connector-curvature="0" />
      <path
         d="m 837.28,251.77716 q 1.0191,1.65605 1.33758,3.63057 0.38216,1.97453 0.38216,4.84077 v 16.6879 q 0,3.24841 -0.63694,5.92356 -0.57325,2.67516 -3.88535,8.02548 -3.3121,5.35032 -12.86624,6.11465 -5.85988,0 -10.57325,-2.54777 -4.64968,-2.54777 -6.56051,-6.11465 -1.91083,-3.56688 -2.35669,-5.98726 -0.44586,-2.42038 -0.44586,-5.41401 v -13.69427 q 0,-2.86624 0.12739,-4.07643 0.12739,-1.27389 0.89172,-3.3758 l 17.26114,-46.56051 h 14.07644 l -14.07644,36.49682 q 2.61147,-0.89172 5.6051,-0.89172 h 1.1465 q 7.07006,0.89172 10.57325,6.94267 z m -11.84714,6.49682 q -1.97452,-2.61147 -5.22293,-2.61147 -1.71974,0 -3.24841,1.0828 -1.46496,1.01911 -2.10191,2.48408 -0.63694,1.40127 -0.63694,4.01274 v 13.69427 q 0,2.86624 1.52866,5.35032 1.59236,2.48407 5.35032,2.10191 3.3758,0 4.39491,-2.293 1.0828,-2.29299 1.0828,-5.15923 v -13.69427 q 0,-1.71975 -0.19108,-2.80255 -0.19109,-1.14649 -0.95542,-2.1656 z"
         style="letter-spacing:0.0714375px;word-spacing:0px;fill:#ffffff;stroke:none;stroke-width:0.67940551"
         id="path979"
         inkscape:connector-curvature="0" />
    </g>
  </g>
</svg>
