<?xml version="1.0" encoding="UTF-8" standalone="no"?>
<!-- Created with Inkscape (http://www.inkscape.org/) -->

<svg
   xmlns:dc="http://purl.org/dc/elements/1.1/"
   xmlns:cc="http://creativecommons.org/ns#"
   xmlns:rdf="http://www.w3.org/1999/02/22-rdf-syntax-ns#"
   xmlns:svg="http://www.w3.org/2000/svg"
   xmlns="http://www.w3.org/2000/svg"
   xmlns:sodipodi="http://sodipodi.sourceforge.net/DTD/sodipodi-0.dtd"
   xmlns:inkscape="http://www.inkscape.org/namespaces/inkscape"
   width="327.93973mm"
   height="202.74686mm"
   viewBox="0 0 327.93973 202.74686"
   version="1.1"
   id="svg9491"
   inkscape:version="0.92.3 (2405546, 2018-03-11)"
   sodipodi:docname="Vietnam_road_sign_IE452.svg">
  <defs
     id="defs9485">
    <clipPath
       id="clipPath2832">
      <path
         d="M -0.24,595.138 H 317.24 V -0.138 H -0.24 Z"
         id="path2834"
         inkscape:connector-curvature="0" />
    </clipPath>
    <clipPath
       id="clipPath2840">
      <path
         d="M 0.03,595.32 H 317.49 V 0 H 0.03 Z"
         id="path2842"
         inkscape:connector-curvature="0" />
    </clipPath>
    <clipPath
       id="clipPath2858">
      <path
         d="M -0.24,595.138 H 317.24 V -0.138 H -0.24 Z"
         id="path2860"
         inkscape:connector-curvature="0" />
    </clipPath>
    <clipPath
       id="clipPath2864">
      <path
         d="M 0.03,595.32 H 317.49 V 0 H 0.03 Z"
         id="path2866"
         inkscape:connector-curvature="0" />
    </clipPath>
    <clipPath
       id="clipPath3306">
      <path
         d="m 199.238,472.977 v -29.74 h 29.744 v 29.74"
         id="path3308"
         inkscape:connector-curvature="0" />
    </clipPath>
    <clipPath
       id="clipPath3322">
      <path
         d="M -0.24,595.138 H 317.24 V -0.138 H -0.24 Z"
         id="path3324"
         inkscape:connector-curvature="0" />
    </clipPath>
    <clipPath
       id="clipPath3330">
      <path
         d="M 0.03,595.32 H 317.49 V 0 H 0.03 Z"
         id="path3332"
         inkscape:connector-curvature="0" />
    </clipPath>
    <clipPath
       id="clipPath3344">
      <path
         d="m 88.233,387.221 v -28.335 h 32.08 v 28.335"
         id="path3346"
         inkscape:connector-curvature="0" />
    </clipPath>
    <clipPath
       id="clipPath3462">
      <path
         d="M -0.24,595.138 H 317.24 V -0.138 H -0.24 Z"
         id="path3464"
         inkscape:connector-curvature="0" />
    </clipPath>
    <clipPath
       id="clipPath3470">
      <path
         d="M 0.03,595.32 H 317.49 V 0 H 0.03 Z"
         id="path3472"
         inkscape:connector-curvature="0" />
    </clipPath>
    <clipPath
       id="clipPath3490">
      <path
         d="M -0.24,595.138 H 317.24 V -0.138 H -0.24 Z"
         id="path3492"
         inkscape:connector-curvature="0" />
    </clipPath>
    <clipPath
       id="clipPath3496">
      <path
         d="M 0.03,595.32 H 317.49 V 0 H 0.03 Z"
         id="path3498"
         inkscape:connector-curvature="0" />
    </clipPath>
    <clipPath
       id="clipPath3520">
      <path
         d="m 254.788,326.215 v -28.309 h 28.326 v 28.309"
         id="path3522"
         inkscape:connector-curvature="0" />
    </clipPath>
    <clipPath
       id="clipPath3544">
      <path
         d="m 145.049,326.142 v -28.333 h 28.342 v 28.333"
         id="path3546"
         inkscape:connector-curvature="0" />
    </clipPath>
    <clipPath
       id="clipPath3682">
      <path
         d="M -0.24,595.138 H 317.24 V -0.138 H -0.24 Z"
         id="path3684"
         inkscape:connector-curvature="0" />
    </clipPath>
    <clipPath
       id="clipPath3690">
      <path
         d="M 0.03,595.32 H 317.49 V 0 H 0.03 Z"
         id="path3692"
         inkscape:connector-curvature="0" />
    </clipPath>
    <clipPath
       id="clipPath3980">
      <path
         d="M -0.24,595.138 H 317.24 V -0.138 H -0.24 Z"
         id="path3982"
         inkscape:connector-curvature="0" />
    </clipPath>
    <clipPath
       id="clipPath3988">
      <path
         d="M 0.03,595.32 H 317.49 V 0 H 0.03 Z"
         id="path3990"
         inkscape:connector-curvature="0" />
    </clipPath>
    <clipPath
       id="clipPath4010">
      <path
         d="M -0.24,595.138 H 317.24 V -0.138 H -0.24 Z"
         id="path4012"
         inkscape:connector-curvature="0" />
    </clipPath>
    <clipPath
       id="clipPath4016">
      <path
         d="M 0.03,595.32 H 317.49 V 0 H 0.03 Z"
         id="path4018"
         inkscape:connector-curvature="0" />
    </clipPath>
    <clipPath
       id="clipPath4062">
      <path
         d="m 200.163,177.773 v -28.284 h 28.283 v 28.284"
         id="path4064"
         inkscape:connector-curvature="0" />
    </clipPath>
    <clipPath
       id="clipPath4090">
      <path
         d="m 34.886,177.515 v -51.632 h 30.367 v 51.632"
         id="path4092"
         inkscape:connector-curvature="0" />
    </clipPath>
    <clipPath
       id="clipPath4106">
      <path
         d="m 34.886,177.515 v -51.632 h 30.367 v 51.632"
         id="path4108"
         inkscape:connector-curvature="0" />
    </clipPath>
    <clipPath
       id="clipPath4272">
      <path
         d="m 34.886,177.515 v -51.632 h 30.367 v 51.632"
         id="path4274"
         inkscape:connector-curvature="0" />
    </clipPath>
    <clipPath
       id="clipPath4304">
      <path
         d="m 254.653,176.442 v -48.167 h 28.317 v 48.167"
         id="path4306"
         inkscape:connector-curvature="0" />
    </clipPath>
    <clipPath
       id="clipPath4310">
      <path
         d="m 253.565,177.983 h 31.181 V 128.8 h -31.181 z"
         id="path4312"
         inkscape:connector-curvature="0" />
    </clipPath>
    <clipPath
       id="clipPath4316">
      <path
         d="M -0.24,595.138 H 317.24 V -0.138 H -0.24 Z"
         id="path4318"
         inkscape:connector-curvature="0" />
    </clipPath>
    <clipPath
       id="clipPath4322">
      <path
         d="M 0.03,595.32 H 317.49 V 0 H 0.03 Z"
         id="path4324"
         inkscape:connector-curvature="0" />
    </clipPath>
    <clipPath
       id="clipPath4456">
      <path
         d="M -0.24,595.138 H 317.24 V -0.138 H -0.24 Z"
         id="path4458"
         inkscape:connector-curvature="0" />
    </clipPath>
    <clipPath
       id="clipPath4464">
      <path
         d="M 0.03,595.32 H 317.49 V 0 H 0.03 Z"
         id="path4466"
         inkscape:connector-curvature="0" />
    </clipPath>
  </defs>
  <sodipodi:namedview
     id="base"
     pagecolor="#ffffff"
     bordercolor="#666666"
     borderopacity="1.0"
     inkscape:pageopacity="0.0"
     inkscape:pageshadow="2"
     inkscape:zoom="0.49890312"
     inkscape:cx="1011.7578"
     inkscape:cy="414.22928"
     inkscape:document-units="mm"
     inkscape:current-layer="layer1"
     showgrid="false"
     inkscape:window-width="1600"
     inkscape:window-height="838"
     inkscape:window-x="-8"
     inkscape:window-y="-8"
     inkscape:window-maximized="1"
     inkscape:measure-start="0,0"
     inkscape:measure-end="0,0" />
  <metadata
     id="metadata9488">
    <rdf:RDF>
      <cc:Work
         rdf:about="">
        <dc:format>image/svg+xml</dc:format>
        <dc:type
           rdf:resource="http://purl.org/dc/dcmitype/StillImage" />
        <dc:title></dc:title>
      </cc:Work>
    </rdf:RDF>
  </metadata>
  <g
     inkscape:label="Layer 1"
     inkscape:groupmode="layer"
     id="layer1"
     transform="translate(35.814117,-16.210432)">
    <rect
       id="rect12239"
       width="327.93973"
       height="202.74686"
       x="-35.814117"
       y="16.210432"
       style="fill:#00a651;fill-opacity:1;stroke-width:0.26342955" />
    <path
       id="rect3839"
       transform="scale(0.26458333)"
       style="fill:#ffffff;fill-opacity:1;stroke-width:2.00628281"
       d="m -104.45117,65.761719 c -14.55024,0 -26.26367,11.713435 -26.26367,26.263672 V 797.19336 c 0,14.55024 11.71343,26.26367 26.26367,26.26367 H 1072.957 c 14.5503,0 26.2657,-11.71343 26.2657,-26.26367 V 92.025391 c 0,-14.550237 -11.7154,-26.263672 -26.2657,-26.263672 z"
       inkscape:connector-curvature="0"
       sodipodi:nodetypes="sssssssss" />
    <path
       id="rect4653"
       transform="scale(0.26458333)"
       style="fill:#00a651;fill-opacity:1;stroke-width:1.4954561"
       d="m -95.011719,76.091797 c -14.451271,0 -26.085941,11.63271 -26.085941,26.083983 v 364.97266 c 0,14.45127 11.63467,26.08594 26.085941,26.08594 H 1063.9141 c 14.4512,0 26.0859,-11.63467 26.0859,-26.08594 V 102.17578 c 0,-14.451273 -11.6347,-26.083983 -26.0859,-26.083983 z"
       inkscape:connector-curvature="0"
       sodipodi:nodetypes="sssssssss" />
    <path
       id="rect4655"
       transform="scale(0.26458333)"
       style="fill:#00a651;fill-opacity:1;stroke-width:1.31810892"
       d="m -92.232422,502.28516 c -16.058538,0 -28.986328,9.87783 -28.986328,22.14648 v 265.32031 c 0,12.26866 12.92779,22.14649 28.986328,22.14649 H 1058.9473 c 16.0585,0 28.9863,-9.87783 28.9863,-22.14649 V 524.43164 c 0,-12.26865 -12.9278,-22.14648 -28.9863,-22.14648 z"
       inkscape:connector-curvature="0"
       sodipodi:nodetypes="sssssssss" />
    <g
       transform="matrix(0.22275966,0,0,0.22275966,59.838149,144.06581)"
       id="layer1-2"
       inkscape:label="Layer 1">
      <circle
         cx="60.342945"
         cy="134.87485"
         r="138.53625"
         id="circle6"
         style="fill:#f90200;fill-opacity:1;stroke:none;stroke-width:0.92209375;stroke-linecap:round;stroke-linejoin:round;stroke-miterlimit:4;stroke-dasharray:none;stroke-opacity:1" />
      <circle
         cx="61.608727"
         cy="135.29677"
         r="99.296516"
         id="circle6-9"
         style="fill:#ffffff;fill-opacity:1;stroke:none;stroke-width:0.66091502;stroke-linecap:round;stroke-linejoin:round;stroke-miterlimit:4;stroke-dasharray:none;stroke-opacity:1" />
    </g>
    <g
       transform="matrix(0.22275966,0,0,0.22275966,170.2414,144.04893)"
       id="layer1-2-5"
       inkscape:label="Layer 1">
      <circle
         cx="60.342945"
         cy="134.87485"
         r="138.53625"
         id="circle6-1"
         style="fill:#1896d5;fill-opacity:1;stroke:none;stroke-width:0.92209375;stroke-linecap:round;stroke-linejoin:round;stroke-miterlimit:4;stroke-dasharray:none;stroke-opacity:1" />
      <path
         style="fill:#000000;stroke-width:0.31862977"
         d="m -444.04277,199.77039 c -1.3143,-0.35551 -3.84022,-1.35415 -5.61316,-2.21952 -6.82831,-3.33259 -11.53831,-9.50315 -13.3108,-17.43858 -0.45563,-2.03916 -0.51242,-6.6676 -0.51242,-41.77929 V 98.84703 l 0.75899,-2.991822 c 2.46824,-9.729992 8.13882,-15.586834 17.56234,-18.138728 3.49417,-0.946282 10.61124,-1.188145 14.79924,-0.502953 2.76057,0.451668 3.22257,0.636997 5.57602,2.237211 7.49982,5.099378 10.80291,9.238892 12.75925,15.989829 l 0.7994,2.758845 v 40.220018 c 0,38.88316 -0.0204,40.30104 -0.62349,42.65833 -2.24784,8.78922 -7.08751,14.55346 -15.08974,17.97216 l -2.60805,1.11434 -6.05373,0.12615 c -5.33654,0.11136 -6.33733,0.0495 -8.44385,-0.52002 z m 9.27513,-17.70569 c 1.91644,-0.6225 3.75459,-2.22378 4.83834,-4.21496 l 0.86986,-1.59845 -0.083,-37.86673 -0.0829,-37.86669 -1.11523,-2.218271 c -1.00368,-1.996496 -1.3063,-2.32205 -3.02688,-3.257836 -2.4761,-1.346513 -4.22226,-1.613061 -6.03412,-0.921093 -1.7516,0.668933 -4.39972,3.428049 -5.44496,5.673247 l -0.78205,1.679833 -0.002,37.27972 -0.002,37.27967 0.91373,1.91172 c 1.01201,2.11753 1.74129,2.89703 3.86519,4.13177 1.20862,0.7028 1.68413,0.80479 3.02688,0.64932 0.87626,-0.10159 2.25405,-0.39885 3.0618,-0.66125 z m 49.3528,17.51619 c -9.45635,-2.77014 -15.3148,-8.5684 -17.99207,-17.80674 l -0.80705,-2.78528 0.005,-40.51009 c 0.004,-38.22032 0.0383,-40.636082 0.58858,-42.740414 2.75229,-10.528095 9.07936,-16.428223 19.79719,-18.46136 3.35267,-0.635998 9.23819,-0.634945 12.88124,0.002 2.59903,0.454604 3.09192,0.666374 5.73545,2.464194 1.59047,1.081768 4.27285,3.330865 5.96082,4.997988 2.68632,2.65349 3.24888,3.408302 4.51533,6.058134 0.79552,1.664846 1.74724,4.255354 2.11483,5.756701 0.66334,2.708617 0.66781,3.040042 0.58153,42.696407 l -0.0868,39.96667 -0.73446,2.54902 c -2.27416,7.89222 -6.79541,13.36846 -13.81563,16.73362 -3.27787,1.57116 -5.22986,1.88801 -11.57517,1.87882 -3.80346,-0.005 -4.85986,-0.12354 -7.1692,-0.8 z m 7.81753,-17.04497 c 1.03431,-0.19122 2.38694,-0.60906 3.00589,-0.92887 1.4609,-0.75459 3.27245,-2.67534 4.11848,-4.36648 0.67075,-1.34089 0.67102,-1.3553 0.67102,-38.48176 v -37.14038 l -1.0086,-2.40255 c -1.15325,-2.747674 -2.35663,-3.936429 -4.97761,-4.917793 -2.21781,-0.830347 -3.11557,-0.796215 -5.10252,0.19388 -1.85404,0.923893 -3.52693,2.694006 -4.79149,5.069934 l -0.84783,1.593159 -0.0845,36.78171 c -0.0761,32.98416 -0.0329,36.9649 0.42664,38.55432 0.76947,2.66593 2.28152,4.49282 4.7564,5.7464 1.48906,0.75438 1.40444,0.74767 3.83463,0.29843 z m -126.42655,-34.41288 -0.0799,-51.966669 -7.80653,5.797759 c -4.29354,3.18895 -8.20066,6.07992 -8.68271,6.42439 l -0.87618,0.62642 v -9.226414 -9.226483 l 8.73729,-6.408131 8.73763,-6.408125 h 8.6278 8.62796 v 61.176943 61.177 h -8.60212 -8.60193 z"
         id="path5338"
         inkscape:connector-curvature="0" />
    </g>
    <path
       style="fill:#ffffff;fill-opacity:1;stroke-width:0.05344747"
       d="m 176.45152,188.5959 c -1.35788,-0.19139 -2.64329,-0.7768 -3.57456,-1.62794 -0.70748,-0.64659 -1.38173,-1.94593 -1.59297,-3.06979 -0.10207,-0.54316 -0.10195,-7.27983 1.6e-4,-7.58953 0.0388,-0.11754 1.32386,-3.59903 2.85578,-7.73653 l 2.78528,-7.52274 h 2.2141 c 1.74969,0 2.20856,0.014 2.18774,0.0668 -0.92586,2.3473 -4.36639,11.33669 -4.34654,11.35655 0.0156,0.0156 0.19157,-0.0146 0.39105,-0.0673 0.52295,-0.13778 1.7049,-0.16977 2.19066,-0.0593 1.30489,0.29679 2.33569,1.12779 2.96014,2.38638 0.33841,0.68208 0.33425,0.62726 0.35561,4.67258 0.0215,4.08812 -6.2e-4,4.46576 -0.30884,5.2651 -0.37916,0.98313 -1.09865,2.18452 -1.60213,2.67523 -0.80211,0.78175 -2.05806,1.22232 -3.58015,1.25589 -0.42624,0.01 -0.84714,0.007 -0.93533,-0.006 z m 0.99673,-3.91984 c 0.73181,-0.077 1.09716,-0.33287 1.31791,-0.92292 0.21916,-0.58572 0.23131,-0.80223 0.214,-3.81008 -0.0191,-3.32692 0.01,-3.13533 -0.56472,-3.71007 -0.39936,-0.39935 -0.77381,-0.55158 -1.3771,-0.55986 -0.38213,-0.005 -0.46703,0.0129 -0.78155,0.16783 -0.41832,0.20594 -0.74673,0.54138 -0.94582,0.96606 l -0.14219,0.30331 -0.0156,2.84327 c -0.0171,3.12999 -0.0138,3.17049 0.3149,3.82163 0.26914,0.53315 0.65116,0.81858 1.22391,0.91446 0.22481,0.0376 0.27837,0.0367 0.75622,-0.0137 z m 12.12462,3.63645 c -0.63152,-0.18522 -0.99729,-0.33199 -1.44308,-0.57907 -1.42569,-0.79017 -2.31717,-2.02924 -2.72815,-3.79181 -0.1016,-0.43562 -0.10455,-0.70199 -0.1042,-9.3053 4e-4,-8.69472 0.002,-8.86517 0.10821,-9.31116 0.32449,-1.36765 0.95874,-2.5305 1.72713,-3.16652 0.77604,-0.64235 1.87586,-1.09655 3.08243,-1.27297 0.57357,-0.0839 2.12604,-0.0375 2.72489,0.0813 0.39537,0.0785 0.51672,0.13221 0.93534,0.41423 1.82388,1.22867 2.57135,2.19706 3.00023,3.88697 l 0.12796,0.50424 -0.0142,8.98269 -0.0141,8.98269 -0.14999,0.53341 c -0.32775,1.16546 -0.77126,1.94696 -1.53238,2.70017 -0.59084,0.58468 -1.11079,0.91869 -1.9691,1.26488 l -0.57088,0.23025 -1.33619,-0.002 c -1.30096,-0.002 -1.34957,-0.007 -1.84394,-0.15148 z m 1.95083,-3.86279 c 0.53205,-0.13329 1.0628,-0.57323 1.3317,-1.10387 l 0.13811,-0.27256 v -8.37055 -8.37055 l -0.14104,-0.35653 c -0.22516,-0.56918 -0.3757,-0.7883 -0.67229,-0.97862 -0.54898,-0.35229 -1.03253,-0.44148 -1.51048,-0.27863 -0.37855,0.12898 -0.91671,0.67866 -1.16966,1.19469 l -0.19649,0.40086 0.0144,8.44468 0.0144,8.44471 0.16873,0.32264 c 0.20056,0.38356 0.56063,0.73137 0.94327,0.91115 0.29234,0.13735 0.56845,0.14057 1.07935,0.0126 z"
       id="path5325"
       inkscape:connector-curvature="0" />
    <rect
       style="fill:#fff200;fill-opacity:1;stroke-width:0.26002613"
       id="rect5514"
       width="60.570686"
       height="28.773436"
       x="-14.2686"
       y="60.764877"
       rx="0"
       ry="0" />
    <g
       id="g5565"
       transform="matrix(0.48341165,0,0,0.48341165,-13.522097,61.303497)">
      <path
         id="path5537"
         d="M 119,56 H 3 C 1.9,56 1,55.1 1,54 V 3 C 1,1.9 1.9,1 3,1 h 116 c 1.1,0 2,0.9 2,2 v 51 c 0,1.1 -0.9,2 -2,2 z"
         stroke-miterlimit="10"
         inkscape:connector-curvature="0"
         style="fill:#fff200;stroke:#000000;stroke-width:2;stroke-miterlimit:10" />
      <g
         id="g5549">
	<path
   id="path5539"
   d="m 39.2,36.2 c 0.1,0 0.2,0 0.2,0.1 0,0.1 0.1,0.2 0,0.2 -0.7,3.2 -2.1,5.6 -4.4,7.4 -1.1,0.8 -2.3,1.5 -3.6,1.9 -1.3,0.4 -2.7,0.6 -4.1,0.6 -2.7,0 -5,-0.6 -6.8,-1.9 -1.8,-1.3 -3.1,-2.7 -3.9,-4.2 -0.3,-0.5 -0.5,-1.1 -0.7,-1.6 -0.2,-0.5 -0.4,-1.1 -0.5,-1.7 -0.2,-1.2 -0.3,-3.8 -0.3,-7.9 0,-2 0,-3.7 0.1,-5 0.1,-1.3 0.1,-2.2 0.2,-2.8 0.1,-0.6 0.3,-1.2 0.5,-1.7 0.2,-0.5 0.4,-1.1 0.7,-1.6 0.8,-1.5 2.1,-2.9 3.9,-4.2 1.8,-1.3 4.1,-2 6.8,-2 3.3,0 5.9,1 8.1,3 2.2,2 3.5,4.4 4,7.2 0,0.1 0,0.2 0,0.2 0,0 -0.1,0.1 -0.2,0.1 h -5.4 c -0.1,0 -0.2,-0.1 -0.3,-0.2 -0.2,-0.6 -0.5,-1.2 -0.9,-1.7 -0.4,-0.5 -0.8,-1 -1.4,-1.5 -1,-0.9 -2.3,-1.4 -3.9,-1.4 -1.2,0 -2.2,0.2 -3,0.7 -0.8,0.5 -1.5,1 -2,1.6 -0.3,0.4 -0.6,0.8 -0.8,1.3 -0.2,0.5 -0.4,1 -0.5,1.5 -0.1,0.5 -0.2,1.4 -0.3,2.5 -0.1,1.1 -0.1,2.5 -0.1,4.2 0,1.7 0,3.1 0.1,4.2 0.1,1.1 0.1,1.9 0.3,2.4 0.1,0.5 0.3,1 0.5,1.4 0.2,0.4 0.5,0.9 0.8,1.3 0.5,0.7 1.2,1.2 2,1.7 0.8,0.5 1.8,0.7 3,0.7 2.7,0 4.8,-1.5 6.2,-4.4 0,0 0.1,-0.1 0.1,-0.1 0,0 0.1,-0.1 0.1,-0.1 h 5.5 z"
   inkscape:connector-curvature="0" />

	<path
   id="path5541"
   d="m 49.1,46.1 c -0.2,0 -0.3,-0.1 -0.3,-0.3 V 17 h -8.9 c -0.2,0 -0.3,-0.1 -0.3,-0.3 v -4.5 c 0,-0.2 0.1,-0.3 0.3,-0.3 h 23.5 c 0.2,0 0.3,0.1 0.3,0.3 v 4.5 c 0,0.2 -0.1,0.3 -0.3,0.3 h -8.9 v 28.8 c 0,0.2 -0.1,0.3 -0.3,0.3 z"
   inkscape:connector-curvature="0" />

	<path
   id="path5543"
   d="m 61.7,46.1 c -0.2,0 -0.3,-0.1 -0.3,-0.3 V 41 c 0,-0.2 0.1,-0.3 0.3,-0.3 h 4.8 c 0.2,0 0.3,0.1 0.3,0.3 v 4.8 c 0,0.2 -0.1,0.3 -0.3,0.3 z"
   inkscape:connector-curvature="0" />

	<path
   id="path5545"
   d="m 71.5,21.8 c 0,-3.2 1,-5.6 3,-7.3 2,-1.7 4.2,-2.6 6.8,-2.6 1.3,0 2.5,0.2 3.6,0.7 1.1,0.5 2.2,1.1 3.2,1.9 1,0.9 1.7,1.9 2.2,3.1 0.5,1.2 0.8,2.6 0.8,4.2 v 14.7 c 0,3.1 -1,5.6 -3,7.3 -2,1.7 -4.2,2.6 -6.8,2.6 -2.6,0 -4.8,-0.9 -6.8,-2.6 -2,-1.7 -3,-4.1 -3,-7.3 z m 14.2,0.3 c 0,-1.5 -0.4,-2.7 -1.2,-3.6 -0.8,-0.9 -1.9,-1.3 -3.2,-1.3 -1.3,0 -2.4,0.4 -3.2,1.3 -0.8,0.9 -1.2,2 -1.2,3.6 v 14.2 c 0,1.5 0.4,2.7 1.2,3.6 0.8,0.9 1.9,1.3 3.2,1.3 1.3,0 2.4,-0.4 3.2,-1.3 0.8,-0.9 1.2,-2 1.2,-3.6 z"
   inkscape:connector-curvature="0" />

	<path
   id="path5547"
   d="m 100.9,46.2 c -0.2,0 -0.3,-0.1 -0.3,-0.3 V 18 c -0.7,0.5 -1.4,1.1 -2.2,1.6 -0.8,0.5 -1.4,1.1 -2.2,1.6 -0.1,0.1 -0.2,0.1 -0.3,0 -0.1,-0.1 -0.1,-0.1 -0.1,-0.3 v -5.1 c 0,0 0,-0.1 0,-0.1 0,0 0.1,-0.1 0.1,-0.1 l 4.8,-3.5 h 4.9 c 0.2,0 0.3,0.1 0.3,0.3 v 33.4 c 0,0.2 -0.1,0.3 -0.3,0.3 h -4.7 z"
   inkscape:connector-curvature="0" />

</g>
    </g>
    <path
       id="rect6198"
       transform="scale(0.26458333)"
       style="fill:#ffffff;fill-opacity:1;stroke-width:0.98885614"
       d="M 887.89453,198.94922 V 394.84375 H 1025.8243 V 198.94922 Z"
       inkscape:connector-curvature="0"
       sodipodi:nodetypes="ccccc" />
    <path
       id="rect6200"
       transform="scale(0.26458333)"
       style="fill:#00a651;fill-opacity:1;stroke-width:1.12128925"
       d="M 893.96094,205.25781 V 388.91016 H 1020.4883 V 205.25781 Z"
       inkscape:connector-curvature="0"
       sodipodi:nodetypes="ccccc" />
    <path
       id="rect5586"
       style="fill:#ffffff;fill-opacity:1;stroke-width:0.075655"
       d="m 247.43823,72.00846 -6.80896,27.05376 h 10.18121 l 1.3618,-27.05376 z"
       inkscape:connector-curvature="0"
       sodipodi:nodetypes="ccccc" />
    <path
       id="rect5586-5"
       style="fill:#ffffff;fill-opacity:1;stroke-width:0.075655"
       d="m 259.47861,72.00846 6.80895,27.05376 h -10.18122 l -1.3618,-27.05376 z"
       inkscape:connector-curvature="0"
       sodipodi:nodetypes="ccccc" />
    <path
       id="rect5586-5-8"
       style="fill:#ffffff;fill-opacity:1;stroke-width:0.075655"
       d="m 256.12689,58.215678 2.26965,9.047866 h -3.9775 l -0.30263,-9.047866 z"
       inkscape:connector-curvature="0"
       sodipodi:nodetypes="ccccc" />
    <path
       id="rect5586-5-8-0"
       style="fill:#ffffff;fill-opacity:1;stroke-width:0.075655"
       d="m 250.8083,58.162495 -2.26964,9.047854 h 3.9775 l 0.30262,-9.047854 z"
       inkscape:connector-curvature="0"
       sodipodi:nodetypes="ccccc" />
    <path
       id="rect6189"
       style="fill:#ffffff;fill-opacity:1;stroke-width:0.07764104"
       d="m 238.03085,68.265314 v 2.025214 l 3.05693,1.165409 0.0191,0.592282 h 1.49025 l -0.0191,-0.592282 c 7.48144,-1.32915 14.6503,-0.939138 21.72702,-0.04231 l -0.004,0.634605 h 1.52846 l 0.0191,-0.63049 3.09514,-1.127201 v -2.025214 z"
       inkscape:connector-curvature="0"
       sodipodi:nodetypes="ccccccccccccc" />
    <path
       style="fill:#ffffff;fill-opacity:1;stroke-width:0.06391812"
       d="m 155.09312,54.079637 c -0.96744,-0.14924 -1.92198,-0.554383 -2.6801,-1.137628 -1.19653,-0.920367 -1.99323,-2.117441 -2.30444,-3.462498 -0.14267,-0.616582 -0.21052,-3.35937 -0.14965,-6.048136 0.0363,-1.621113 0.0633,-1.990004 0.17586,-2.441327 0.25443,-1.020214 0.78049,-1.942455 1.54288,-2.704857 0.82145,-0.821371 1.62873,-1.316465 2.66187,-1.632356 0.52228,-0.159676 0.64721,-0.172061 1.77621,-0.176201 1.33906,-0.004 1.82465,0.08044 2.68932,0.472443 1.55833,0.706593 2.92771,2.350856 3.41138,4.096261 0.21408,0.772242 0.35351,0.700339 -1.35473,0.69835 l -1.48618,-0.002 -0.23641,-0.499616 c -0.17372,-0.36722 -0.35442,-0.6188 -0.68162,-0.949321 -0.73436,-0.74163 -1.4658,-1.022158 -2.50157,-0.959347 -0.67215,0.04072 -1.05708,0.16951 -1.61896,0.541401 -0.68185,0.451319 -1.11377,1.085583 -1.36989,2.011632 -0.0981,0.355637 -0.11119,0.748695 -0.11119,3.406183 0,2.648175 0.0129,3.051374 0.11025,3.402647 0.31999,1.156143 1.0903,2.043797 2.07688,2.393208 0.4566,0.161742 1.26596,0.218117 1.77584,0.123671 0.8709,-0.161365 1.73715,-0.814289 2.2051,-1.662036 0.3826,-0.693048 0.2516,-0.646268 1.80569,-0.645147 0.74707,4.83e-4 1.39805,0.02618 1.44665,0.05688 0.11114,0.07048 0.0653,0.337599 -0.18379,1.069976 -0.53065,1.560006 -1.54434,2.734381 -2.97261,3.443612 -0.85308,0.423605 -1.65437,0.609949 -2.74851,0.639153 -0.49215,0.01312 -1.06738,-0.002 -1.27828,-0.0352 z M 104.9292,53.976351 c -0.0239,-0.02406 -0.0439,-3.375566 -0.0439,-7.447686 v -7.403857 h -2.33294 -2.33308 v -1.278709 -1.278685 l 6.12012,0.01624 6.12013,0.01624 0.0171,1.261599 0.0175,1.261594 -2.35037,0.01667 -2.35028,0.01667 -0.0318,7.414505 -0.0318,7.414501 -1.37838,0.01716 c -0.75805,0.0092 -1.39812,-0.002 -1.42218,-0.02661 z m 9.31816,-0.03733 c -0.0168,-0.0447 -0.0231,-3.964183 -0.0145,-8.710106 l 0.0163,-8.628947 3.4836,-0.01758 c 4.5091,-0.02285 4.96506,0.03612 6.19928,0.799846 1.19055,0.736777 2.01703,1.845845 2.37035,3.180667 0.19296,0.729256 0.1946,1.972453 0.003,2.681114 -0.40087,1.486014 -1.44837,2.851313 -2.6525,3.457018 -1.02596,0.51609 -1.68349,0.605238 -4.46416,0.605238 h -2.09445 l -0.0164,3.339715 -0.0166,3.339726 -1.39175,0.01728 c -1.0787,0.01332 -1.3987,-9.61e-4 -1.42261,-0.06388 z m 7.33347,-9.452105 c 1.31598,-0.275331 2.16736,-1.565545 1.96987,-2.985266 -0.12509,-0.899355 -0.56376,-1.535144 -1.29963,-1.883561 -0.55706,-0.263764 -0.94899,-0.301599 -3.1237,-0.301599 h -2.03362 v 2.620646 2.620644 h 2.07415 c 1.27212,0 2.20517,-0.02743 2.41293,-0.07088 z m 7.04721,9.450353 c -0.0173,-0.04568 -0.0238,-0.657464 -0.0145,-1.359571 l 0.0172,-1.276553 1.32474,-0.01724 1.32474,-0.01728 0.0352,0.145099 c 0.0193,0.07974 0.0272,0.691623 0.0176,1.359563 l -0.0181,1.214446 -1.3278,0.01726 c -1.04229,0.01358 -1.33468,-4.87e-4 -1.35967,-0.06568 z m 6.02306,0.039 c -0.0241,-0.02406 -0.044,-3.951381 -0.044,-8.72726 v -8.683437 l 1.42219,0.01715 1.42213,0.01716 0.0164,3.659318 0.0164,3.659311 h 3.25882 3.25871 l 0.0164,-3.659311 0.0166,-3.659318 h 1.40625 1.40619 v 8.69287 8.692863 h -1.40619 -1.40625 l -0.0166,-3.755186 -0.0164,-3.755195 h -3.25871 -3.25884 l -0.0164,3.755195 -0.0164,3.755186 -1.3783,0.01716 c -0.75816,0.0092 -1.39812,-0.002 -1.4223,-0.02661 z m 29.5164,-0.03733 c -0.017,-0.0447 -0.0235,-3.964176 -0.0145,-8.710087 l 0.0163,-8.628952 1.32404,-0.01727 1.32405,-0.01728 0.0915,0.177059 c 0.0506,0.09736 1.06895,2.391827 2.26407,5.098767 1.19499,2.706929 2.24893,5.092702 2.34186,5.30172 l 0.16905,0.380022 1.33254,-3.096551 c 0.73289,-1.703095 1.7928,-4.160776 2.35522,-5.461511 l 1.0225,-2.364968 h 1.33414 1.33415 v 8.692862 8.692864 h -1.40617 -1.40624 l -0.0318,-5.094646 -0.0318,-5.094659 -0.71488,1.643073 c -0.39322,0.903698 -1.12862,2.592263 -1.63422,3.752377 -0.50558,1.160116 -0.93804,2.159641 -0.96097,2.221156 -0.037,0.101154 -0.15703,0.111814 -1.24206,0.111415 l -1.20051,-4.85e-4 -1.53107,-3.531038 c -0.84202,-1.942063 -1.60423,-3.689218 -1.69379,-3.882575 l -0.16278,-0.351558 -0.0318,5.113461 -0.0318,5.113448 -1.39179,0.01715 c -1.07869,0.01332 -1.39867,-9.72e-4 -1.4226,-0.06387 z"
       id="path6254"
       inkscape:connector-curvature="0" />
    <path
       style="fill:#ffffff;fill-opacity:1;stroke-width:0.09951949"
       d="M 97.380648,88.091091 C 95.705914,87.63747 94.307965,86.550384 93.631177,85.175394 92.988725,83.870157 92.975769,83.703588 93.00443,77.117076 l 0.02567,-5.899106 1.363999,-0.02765 1.363997,-0.02766 0.02927,5.949071 c 0.02921,5.934575 0.02982,5.950439 0.256869,6.51202 0.263766,0.652421 0.889852,1.284138 1.596034,1.610391 0.373483,0.172549 0.65191,0.214977 1.410755,0.214977 0.758844,0 1.037276,-0.04243 1.410756,-0.214977 0.65757,-0.303795 1.31336,-0.945209 1.58844,-1.55363 l 0.2352,-0.520193 0.0498,-5.971169 0.0497,-5.971171 1.37193,-0.0277 1.37191,-0.02772 -0.0284,6.297437 c -0.0284,6.291954 -0.0285,6.297993 -0.25795,6.933028 -0.61998,1.71658 -1.90152,2.94208 -3.77359,3.608559 -0.86257,0.307086 -2.718618,0.352135 -3.688177,0.08951 z m 31.327192,0.03856 c -1.75537,-0.380128 -3.45567,-1.819434 -4.12525,-3.492008 -0.39509,-0.986927 -0.47695,-2.061063 -0.4311,-5.657157 0.0398,-3.124374 0.0455,-3.198298 0.2986,-3.907505 0.32943,-0.923138 0.72207,-1.530931 1.45954,-2.259425 1.17226,-1.157984 2.24416,-1.623698 3.95184,-1.716983 2.29437,-0.125343 4.06373,0.744617 5.3534,2.632098 0.45563,0.666841 0.95075,1.854856 0.95483,2.291112 0.002,0.221872 -0.01,0.223919 -1.4211,0.223919 h -1.42321 l -0.21841,-0.449574 c -0.30373,-0.625134 -0.96421,-1.311358 -1.55885,-1.619593 -0.69425,-0.359871 -1.96612,-0.381548 -2.64877,-0.04514 -1.08117,0.532788 -1.69732,1.410409 -1.88071,2.678901 -0.12716,0.879555 -0.12716,4.858117 0,5.737673 0.17837,1.233663 0.78242,2.126885 1.80909,2.675065 0.60748,0.324354 2.10318,0.323767 2.76921,-0.0011 0.7329,-0.357465 1.15942,-0.776439 1.50496,-1.478315 0.27195,-0.552416 0.32937,-0.794617 0.36498,-1.539009 l 0.0421,-0.883421 h -1.704 -1.70403 v -1.293762 -1.293753 h 3.08512 3.08511 v 2.21828 c 0,2.452894 -0.0721,2.926418 -0.61531,4.051449 -0.42632,0.882653 -1.66824,2.118206 -2.61909,2.60564 -1.28576,0.659133 -2.83497,0.846149 -4.32908,0.522595 z m 33.38778,0.05476 c -1.63131,-0.324357 -3.20474,-1.406259 -3.98935,-2.743101 -0.13115,-0.223317 -0.33854,-0.671154 -0.46104,-0.995195 -0.22086,-0.584194 -0.22301,-0.642701 -0.25342,-6.936367 l -0.0306,-6.347202 1.37256,0.02772 1.37253,0.02772 0.0511,5.971171 c 0.0412,4.809128 0.0784,6.038954 0.19115,6.319487 0.54249,1.349671 1.79123,2.079841 3.35473,1.961594 1.27552,-0.09647 2.18306,-0.703506 2.68913,-1.798672 l 0.28223,-0.610758 0.03,-5.949066 0.03,-5.949064 1.36334,0.02766 1.36332,0.02765 0.0292,0.721515 c 0.0165,0.429586 0.0724,0.721516 0.13612,0.721516 0.0588,0 0.27702,-0.170149 0.48499,-0.378115 0.5086,-0.508615 0.59472,-0.970078 0.30779,-1.649243 l -0.21384,-0.506126 0.54207,-0.542061 c 0.62668,-0.626693 0.68802,-0.614096 1.13427,0.232989 0.23352,0.443266 0.26546,0.617526 0.26562,1.449283 0,0.780304 -0.0375,1.014966 -0.21499,1.343512 -0.36103,0.667815 -0.9447,1.15098 -1.69546,1.403537 l -0.6763,0.227501 -0.0573,4.658054 c -0.062,5.042755 -0.0662,5.08173 -0.65033,6.287092 -0.35793,0.738433 -1.58283,1.956414 -2.39594,2.382413 -1.19191,0.624452 -3.0177,0.881727 -4.36134,0.614567 z m 16.32219,0.04303 c -0.91472,-0.219996 -1.17987,-0.31264 -1.79133,-0.625891 -1.28675,-0.659187 -2.35851,-1.919951 -2.89021,-3.399872 -0.23175,-0.645123 -0.371,-3.44625 -0.29413,-5.917822 0.0779,-2.507214 0.13343,-2.840259 0.65286,-3.926802 0.68103,-1.424305 2.17566,-2.667899 3.72571,-3.099914 0.6613,-0.18432 2.72726,-0.183409 3.38365,0.0015 0.7193,0.202607 1.4095,0.561884 2.08048,1.082976 l 0.58768,0.456407 0.35775,-0.204925 c 0.77769,-0.445447 1.04301,-1.382522 0.59809,-2.112328 l -0.20687,-0.339146 0.56204,-0.556528 0.56203,-0.55653 0.32947,0.375593 c 0.66694,0.760294 0.8094,2.186216 0.3185,3.18789 -0.2855,0.582517 -1.10257,1.362732 -1.42711,1.362732 -0.10574,0 -0.12867,0.05215 -0.0766,0.174163 0.66436,1.556002 0.79293,2.745305 0.70737,6.543407 -0.0641,2.845312 -0.14998,3.414675 -0.67255,4.454519 -0.59771,1.189525 -2.1605,2.478118 -3.54156,2.920163 -0.46724,0.149546 -2.56341,0.2771 -2.96534,0.180432 z m 2.14453,-2.879417 c 0.98139,-0.346253 1.75843,-1.231611 2.05111,-2.336993 0.25318,-0.956261 0.25362,-5.724022 0.001,-6.667806 -0.28568,-1.065689 -0.81686,-1.722886 -1.75799,-2.175079 -0.72882,-0.350174 -1.89798,-0.371092 -2.60499,-0.04661 -0.693,0.318058 -1.30685,0.937052 -1.63598,1.649704 l -0.28756,0.621744 v 3.284144 3.284142 l 0.31099,0.646877 c 0.61666,1.282723 1.51501,1.869239 2.88602,1.884213 0.3352,0.0037 0.80207,-0.06129 1.03744,-0.144332 z m 28.38976,2.787964 c -1.70789,-0.371253 -3.15608,-1.532341 -3.97168,-3.184327 -0.39681,-0.803741 -0.45337,-1.008042 -0.55091,-1.990391 -0.066,-0.66408 -0.0896,-2.269165 -0.06,-4.080298 0.054,-3.298774 0.0846,-3.495555 0.74264,-4.754543 0.44495,-0.851444 1.6555,-2.020997 2.54281,-2.456707 1.65543,-0.812898 4.07577,-0.784534 5.67661,0.06653 0.63397,0.337048 1.92611,1.600792 2.30709,2.256371 0.34352,0.591137 0.74572,1.673509 0.74572,2.006816 v 0.244273 h -1.42602 -1.42603 l -0.23446,-0.500565 c -0.26596,-0.567883 -1.12164,-1.428656 -1.63227,-1.642011 -1.50147,-0.627349 -3.32921,0.0364 -4.02943,1.463297 -0.19734,0.402142 -0.34358,0.899108 -0.40492,1.375914 -0.11812,0.917518 -0.12411,4.463156 -0.009,5.454281 0.15184,1.310602 0.78972,2.274838 1.89741,2.868084 0.54838,0.293703 2.07335,0.257725 2.73677,-0.06456 1.15745,-0.562269 1.74096,-1.511427 1.81875,-2.958383 l 0.0494,-0.920555 h -1.70538 -1.70542 v -1.293752 -1.293753 h 3.08512 3.08511 l -0.001,2.214307 c -0.001,1.601461 -0.0421,2.386986 -0.14853,2.838213 -0.48633,2.062699 -2.30452,3.845456 -4.43371,4.347313 -0.77885,0.183577 -2.11484,0.185603 -2.94817,0.0045 z M 69.662291,88.122332 c -0.03796,-0.03796 -0.06903,-3.285155 -0.06903,-7.215975 v -7.14695 l -2.264069,-0.02675 -2.264068,-0.02675 V 72.46191 71.217918 l 5.94629,-0.02567 5.946288,-0.02567 v 1.294537 1.294537 h -2.238533 -2.238534 l -0.02552,7.190282 -0.02552,7.190282 -1.349125,0.02756 c -0.742018,0.0151 -1.380187,-0.0036 -1.418153,-0.04145 z m 9.086764,-8.450468 v -8.519752 l 3.906138,0.03877 c 3.680207,0.03651 3.943555,0.0512 4.553016,0.253903 1.346829,0.447933 2.341354,1.351614 2.960183,2.689786 1.027692,2.222316 0.03096,5.110963 -2.167938,6.282965 l -0.586313,0.312502 0.486252,0.916557 c 1.854486,3.495599 3.288597,6.28935 3.288597,6.406425 0,0.112949 -0.289634,0.132955 -1.600254,0.110572 l -1.600252,-0.02735 -1.713149,-3.53294 -1.713151,-3.532944 -1.51203,-0.02747 -1.512035,-0.02747 -0.02612,3.560407 -0.02615,3.560406 -1.368394,0.02768 -1.368393,0.02768 z m 7.264302,-1.247942 c 2.229967,-0.478243 2.601943,-3.776734 0.509175,-4.515106 -0.342195,-0.120729 -0.915851,-0.153144 -2.710496,-0.153144 h -2.276437 v 2.388466 2.388469 h 1.985493 c 1.09202,0 2.213539,-0.0489 2.492265,-0.108685 z m 22.338803,9.637676 c -0.0261,-0.06841 -0.0359,-3.886236 -0.0218,-8.484038 l 0.0257,-8.359636 1.25089,-0.02772 c 1.09702,-0.02431 1.2695,-0.006 1.40238,0.149277 0.0833,0.09735 1.71012,2.640105 3.61509,5.650568 1.90496,3.010467 3.52428,5.539149 3.59847,5.619299 0.11358,0.122756 0.13487,-0.767882 0.13487,-5.650541 v -5.796266 l 1.36839,0.02768 1.3684,0.02768 v 8.459159 8.459155 h -1.27674 -1.27675 l -3.58305,-5.62285 c -1.97068,-3.092569 -3.64653,-5.688427 -3.72412,-5.768577 -0.12179,-0.125817 -0.14104,0.645972 -0.14104,5.64773 v 5.793457 h -1.34664 c -0.98566,0 -1.35936,-0.03334 -1.39409,-0.12439 z m 36.62316,0 c -0.0261,-0.06841 -0.0358,-3.886236 -0.0217,-8.484038 l 0.0256,-8.359636 h 1.39328 1.39327 l 0.0255,7.140523 0.0255,7.140522 h 4.02989 4.02988 v 1.343514 1.343513 h -5.42695 c -4.24986,0 -5.43722,-0.02698 -5.47437,-0.12439 z m 43.59063,0.0029 c -0.0267,-0.06996 -0.037,-3.889053 -0.0228,-8.486853 l 0.0256,-8.359638 1.29376,-0.02563 1.29376,-0.02563 3.6822,5.795207 3.68223,5.795207 0.0496,-5.76957 0.0499,-5.769569 1.3684,-0.02768 1.36839,-0.02768 v 8.511718 8.511725 h -1.28165 -1.28163 l -3.66946,-5.758586 -3.66945,-5.758586 -0.0499,5.733707 -0.0496,5.733704 -1.37043,0.0277 c -1.0414,0.02106 -1.3821,-0.0029 -1.41898,-0.09953 z"
       id="path6281"
       inkscape:connector-curvature="0" />
    <path
       style="fill:#ffffff;fill-opacity:1;stroke-width:0.07319076"
       d="m 142.07146,113.59793 c -0.66584,-0.13231 -1.15021,-0.2949 -1.74129,-0.5845 -0.61059,-0.29917 -1.59861,-0.97181 -1.59861,-1.08834 0,-0.0674 1.24208,-1.46331 1.33198,-1.49691 0.0389,-0.0145 0.20791,0.0718 0.3757,0.19176 1.80007,1.28723 4.53991,1.37205 5.35015,0.16563 0.18747,-0.27914 0.21795,-0.39226 0.21655,-0.80367 -0.002,-0.52647 -0.11032,-0.79954 -0.44385,-1.11637 -0.30115,-0.28615 -0.67396,-0.39401 -1.97695,-0.572 -1.8026,-0.24623 -2.59319,-0.56709 -3.28025,-1.33127 -0.84692,-0.94197 -1.11001,-2.32821 -0.695,-3.66194 0.37104,-1.19248 1.38586,-2.0606 2.76832,-2.36817 0.80567,-0.17924 2.24525,-0.11094 3.11274,0.14759 0.93621,0.27904 2.24386,0.94507 2.23997,1.14088 -0.001,0.0604 -0.24644,0.45993 -0.54498,0.88789 l -0.54281,0.77809 -0.70215,-0.35215 c -0.38619,-0.19368 -0.93942,-0.40674 -1.22943,-0.47346 -0.61814,-0.14222 -1.57466,-0.16526 -1.9927,-0.048 -1.21452,0.34068 -1.59861,1.78477 -0.69246,2.60342 0.3456,0.31223 0.76223,0.43941 1.93831,0.59171 1.1441,0.14814 1.71401,0.28832 2.22139,0.54641 0.82059,0.4174 1.40989,1.11002 1.73995,2.04501 0.20051,0.56802 0.23594,1.63635 0.0743,2.24057 -0.34726,1.29809 -1.46702,2.25668 -2.98959,2.55933 -0.69531,0.1382 -2.24021,0.13741 -2.93929,-0.001 z m 10.63954,0.069 c -0.95862,-0.17232 -1.79426,-0.45618 -2.47659,-0.84125 -0.53823,-0.30376 -1.18323,-0.7937 -1.18192,-0.89781 0.001,-0.0994 1.22813,-1.50991 1.31331,-1.50991 0.0327,0 0.25761,0.13222 0.49963,0.29384 1.91389,1.27804 4.68317,1.22529 5.31264,-0.10122 0.23933,-0.50436 0.0874,-1.40655 -0.29391,-1.74514 -0.29179,-0.2591 -0.82264,-0.41548 -1.92893,-0.56819 -1.441,-0.19893 -1.67234,-0.25531 -2.34082,-0.57055 -1.19986,-0.56582 -1.90424,-1.72701 -1.90424,-3.1392 0,-1.88726 1.11316,-3.27043 2.94364,-3.65763 0.81645,-0.1727 2.2428,-0.10429 3.0946,0.14852 0.67529,0.2004 2.08018,0.84909 2.2301,1.02973 0.066,0.0796 -0.0348,0.27895 -0.47645,0.94213 l -0.56024,0.84119 -0.64726,-0.32213 c -0.88731,-0.4416 -1.63145,-0.63576 -2.44911,-0.63904 -0.73291,-0.002 -1.21245,0.15317 -1.59789,0.52018 -0.56475,0.53772 -0.5643,1.64131 8.2e-4,2.1524 0.29759,0.26912 0.85303,0.43356 2.06777,0.61219 1.83083,0.26922 2.38007,0.49292 3.08631,1.25706 1.0535,1.13985 1.31082,2.76733 0.65807,4.16221 -0.40267,0.86049 -1.16067,1.48253 -2.23324,1.83264 -0.52236,0.17052 -0.72773,0.19533 -1.76232,0.21294 -0.64408,0.0111 -1.25339,0.005 -1.35403,-0.0129 z m -64.373957,-0.11942 c -0.01931,-0.0507 -0.02656,-2.90813 -0.01623,-6.34992 l 0.01894,-6.25781 h 4.098686 4.098685 l 0.02042,0.96897 0.02042,0.96897 -3.057838,0.0191 -3.057826,0.0191 -0.01968,1.66415 -0.01968,1.66415 2.581346,0.0192 2.581345,0.0192 0.02054,0.93318 0.02054,0.93319 h -2.600458 -2.600458 v 1.75577 1.75578 l 3.055711,0.0191 3.055722,0.0191 v 0.95148 0.95147 l -4.082451,0.0189 c -3.227032,0.015 -4.089805,-2.8e-4 -4.117576,-0.0732 z m 8.721976,0.0332 c -0.01956,-0.0317 0.818326,-1.48742 1.862039,-3.23492 1.043725,-1.74752 1.897682,-3.20342 1.897682,-3.23536 0,-0.032 -0.7777,-1.37817 -1.72823,-2.9916 -0.950525,-1.61344 -1.745052,-2.99786 -1.765615,-3.0765 -0.03604,-0.13799 0.0025,-0.14227 1.116497,-0.12274 l 1.153873,0.0202 1.210735,2.10768 c 0.78871,1.37302 1.23053,2.07458 1.26755,2.01274 0.0312,-0.0523 0.57872,-1.00065 1.21657,-2.10767 l 1.15973,-2.01275 1.14867,-0.0202 c 0.85448,-0.015 1.14867,0.002 1.14867,0.0675 0,0.0482 -0.79047,1.42871 -1.75658,3.06779 -0.96612,1.63909 -1.75658,3.01252 -1.75658,3.05206 0,0.0395 0.85331,1.50038 1.89625,3.2463 1.04294,1.74594 1.88085,3.19933 1.86205,3.22977 -0.0188,0.0304 -0.5397,0.0553 -1.15751,0.0553 h -1.1233 l -1.29823,-2.21402 c -0.71402,-1.21771 -1.32159,-2.24049 -1.35016,-2.27285 -0.0285,-0.0323 -0.65549,0.96395 -1.39316,2.21402 l -1.341195,2.27285 h -1.117063 c -0.614386,0 -1.133101,-0.0259 -1.152693,-0.0577 z m 11.298361,-6.30994 v -6.3676 h 2.48319 c 1.36576,0 2.74083,0.0348 3.05571,0.0775 1.04698,0.14164 2.02238,0.7254 2.62638,1.57183 0.88289,1.23726 0.93955,2.98197 0.14017,4.31576 -0.49648,0.82837 -1.10135,1.33529 -1.9803,1.65961 -0.39495,0.14573 -0.6033,0.16251 -2.35455,0.1896 l -1.92126,0.0298 v 2.44561 2.4456 h -1.02466 -1.02468 z m 5.67228,-0.68253 c 0.39209,-0.17455 0.66961,-0.4495 0.89943,-0.89108 0.15564,-0.29903 0.19049,-0.46633 0.1906,-0.91488 1.5e-4,-0.65479 -0.15935,-1.02084 -0.61482,-1.4107 -0.46603,-0.39891 -0.7805,-0.45567 -2.52454,-0.45567 h -1.53701 l -0.0195,1.92727 -0.0196,1.92726 1.66632,-0.0259 c 1.40119,-0.0218 1.7129,-0.0467 1.95907,-0.15627 z m 4.94038,0.68253 v -6.3676 l 2.72636,10e-4 c 3.0265,0.001 3.38943,0.0401 4.22677,0.45058 0.64517,0.31627 1.15334,0.8596 1.54675,1.65376 0.28682,0.57899 0.31679,0.69241 0.34334,1.29963 0.0358,0.81825 -0.069,1.34989 -0.39408,1.99973 -0.29693,0.59351 -0.91786,1.21938 -1.49996,1.51186 -0.21923,0.11019 -0.40868,0.20915 -0.421,0.21999 -0.0123,0.0111 0.62169,1.24795 1.40893,2.74918 0.78722,1.50123 1.43132,2.75723 1.43132,2.79112 0,0.0339 -0.54999,0.0526 -1.22219,0.0416 l -1.22219,-0.02 -1.2832,-2.65317 -1.28322,-2.65316 h -1.15415 -1.15413 v 2.67146 2.67146 h -1.02467 -1.02468 z m 5.59077,-0.98192 c 0.457,-0.13752 0.80232,-0.41125 1.04966,-0.83203 0.17653,-0.30029 0.20291,-0.42207 0.20291,-0.93645 0,-0.52928 -0.023,-0.62848 -0.21957,-0.94627 -0.15626,-0.25265 -0.32508,-0.40926 -0.58552,-0.54318 -0.35967,-0.18497 -0.39708,-0.18859 -2.17743,-0.21113 l -1.81147,-0.0229 v 1.79781 1.7978 h 1.59856 c 1.16772,0 1.69136,-0.0279 1.94286,-0.10355 z m 5.31466,0.98192 v -6.3676 h 4.09868 4.09868 v 0.98808 0.98807 h -3.03741 -3.03742 v 1.68245 1.68245 l 2.57998,0.0192 2.57997,0.0192 0.0204,0.93319 0.0204,0.93318 h -2.60046 -2.60045 v 1.75658 1.75657 h 3.03742 3.03741 v 0.98808 0.98807 h -4.09865 -4.09869 z m 32.54066,6.20291 c -0.13748,-0.48885 -3.11797,-12.43451 -3.11797,-12.49665 0,-0.0464 0.40653,-0.0739 1.09293,-0.0739 0.97832,0 1.09672,0.0134 1.12908,0.12808 0.0199,0.0705 0.43622,1.95603 0.92517,4.19018 0.48895,2.23414 0.90595,4.11149 0.92666,4.17186 0.0299,0.0873 2.36028,-8.22488 2.36553,-8.4377 8.4e-4,-0.0316 0.35291,-0.0481 0.78251,-0.0366 l 0.78109,0.0208 0.96107,3.51317 c 0.52859,1.93223 1.05581,3.85773 1.1716,4.27886 0.11573,0.42114 0.22686,0.71756 0.24682,0.65871 0.0199,-0.0588 0.45169,-1.98433 0.95937,-4.27886 l 0.92307,-4.17188 1.05279,-0.0204 c 0.57906,-0.0111 1.07668,0.005 1.10586,0.0365 0.0291,0.0314 -0.65989,2.88946 -1.53126,6.35138 l -1.58432,6.29462 h -0.87523 -0.87523 l -1.14378,-4.30011 c -0.62907,-2.36507 -1.15792,-4.31427 -1.17521,-4.33158 -0.0173,-0.0173 -0.52271,1.81896 -1.12316,4.08056 -0.60044,2.26159 -1.12023,4.21903 -1.15508,4.34985 l -0.0633,0.23787 h -0.86631 c -0.83588,0 -0.86794,-0.006 -0.91262,-0.16468 z m 11.62035,0 c 0.0235,-0.0905 1.06133,-2.94775 2.30618,-6.34929 l 2.26336,-6.18463 h 0.86549 0.86551 l 2.28639,6.25782 c 1.25753,3.44179 2.28757,6.29986 2.28897,6.35126 0.002,0.0726 -0.2379,0.0889 -1.07385,0.0732 l -1.07639,-0.0203 -0.47891,-1.39062 -0.47891,-1.39063 -2.31398,-0.0193 -2.31399,-0.0193 -0.49409,1.42822 -0.49411,1.42824 h -1.09726 -1.09725 z m 7.09351,-4.62931 c -0.009,-0.0402 -0.35734,-1.07774 -0.77499,-2.30552 -0.41767,-1.22776 -0.78173,-2.31464 -0.80902,-2.41528 -0.0382,-0.141 -0.242,0.38795 -0.88813,2.3055 -0.46119,1.36868 -0.83939,2.49734 -0.84048,2.50816 -0.001,0.0111 0.74735,0.0111 1.66314,0 1.06149,-0.0126 1.65944,-0.0462 1.64948,-0.0929 z m 7.81043,2.22675 v -2.57151 l -1.88466,-3.70273 c -1.03656,-2.03651 -1.89532,-3.74571 -1.90833,-3.79823 -0.0187,-0.0753 0.20678,-0.0954 1.06666,-0.0954 h 1.09032 l 1.26633,2.65316 c 0.69647,1.45924 1.2869,2.675 1.31204,2.70168 0.0252,0.0267 0.60344,-1.12608 1.28509,-2.56168 0.68165,-1.43561 1.27029,-2.65135 1.3081,-2.70168 0.0947,-0.12612 2.17333,-0.13144 2.17333,-0.006 0,0.0472 -0.83162,1.7023 -1.84807,3.67784 l -1.84806,3.59189 -0.0367,2.67146 -0.0366,2.67147 -0.96978,0.0204 -0.96978,0.0204 z"
       id="path6294"
       inkscape:connector-curvature="0" />
  </g>
</svg>
