<?xml version="1.0" encoding="utf-8"?>
<!-- Generator: Adobe Illustrator 18.1.1, SVG Export Plug-In . SVG Version: 6.00 Build 0)  -->
<svg version="1.1" id="Layer_1" xmlns="http://www.w3.org/2000/svg" xmlns:xlink="http://www.w3.org/1999/xlink" x="0px" y="0px"
	 viewBox="0 0 122 57" enable-background="new 0 0 122 57" xml:space="preserve">
<path fill="#FFFFFF" stroke="#000000" stroke-width="2" stroke-miterlimit="10" d="M119,56H3c-1.1,0-2-0.9-2-2V3c0-1.1,0.9-2,2-2
	h116c1.1,0,2,0.9,2,2v51C121,55.1,120.1,56,119,56z"/>
<g>
	<path d="M28.3,46.8c0,0-0.1,0.1-0.2,0.1c-0.1,0-0.1,0-0.2-0.1l-3.8-3.2c-1,0.8-2.1,1.5-3.3,2c-1.3,0.5-2.6,0.8-4.2,0.8
		c-2.5,0-4.7-0.6-6.4-1.9c-1.7-1.3-2.9-2.7-3.7-4.2h0c-0.3-0.5-0.5-1.1-0.7-1.6s-0.3-1.1-0.4-1.7c-0.2-1.2-0.3-3.9-0.3-7.9
		c0-2,0-3.7,0.1-5c0.1-1.3,0.1-2.2,0.2-2.8s0.3-1.2,0.4-1.7s0.4-1.1,0.7-1.6h0c0.4-0.8,0.9-1.5,1.5-2.2c0.6-0.7,1.4-1.4,2.2-2
		c1.7-1.3,3.9-2,6.4-2c2.5,0,4.7,0.7,6.4,2c1.7,1.3,3,2.7,3.8,4.2c0.3,0.5,0.5,1.1,0.7,1.6c0.2,0.6,0.3,1.1,0.4,1.7s0.2,1.5,0.2,2.8
		c0.1,1.3,0.1,3,0.1,5c0,3.7-0.1,6.1-0.3,7.4c-0.1,0.6-0.2,1.1-0.3,1.7c-0.1,0.5-0.3,1-0.5,1.4c0.7,0.5,1.3,1.1,2,1.7
		c0.7,0.6,1.3,1.2,2,1.7c0.1,0,0.1,0.1,0.1,0.2c0,0.1,0,0.1-0.1,0.2L28.3,46.8z M16,36.7c-0.1,0-0.1-0.1-0.1-0.2
		c0-0.1,0-0.1,0.1-0.2l2.8-3.5c0.1-0.1,0.2-0.1,0.4,0l3.4,2.8c0.1-0.6,0.2-1.4,0.3-2.5c0.1-1.1,0.1-2.4,0.1-4c0-1.7,0-3.1-0.1-4.2
		c-0.1-1.1-0.1-1.9-0.3-2.4c-0.1-0.5-0.3-1-0.5-1.5c-0.2-0.5-0.4-0.9-0.7-1.3c-0.2-0.3-0.5-0.6-0.8-0.9c-0.3-0.3-0.7-0.5-1.1-0.7
		s-0.8-0.4-1.3-0.5c-0.5-0.1-1-0.2-1.5-0.2c-1.1,0-2,0.2-2.8,0.7s-1.4,1-1.9,1.6c-0.3,0.4-0.5,0.8-0.7,1.3s-0.4,1-0.5,1.5
		c-0.2,1.1-0.3,3.3-0.3,6.6c0,3.4,0.1,5.6,0.3,6.7c0.1,0.5,0.3,1,0.5,1.4c0.2,0.5,0.4,0.9,0.7,1.3c0.5,0.7,1.1,1.2,1.9,1.7
		s1.7,0.7,2.8,0.7c1.2,0,2.2-0.3,3.1-0.9L16,36.7z"/>
	<path d="M34.9,46.1c-0.2,0-0.3-0.1-0.3-0.3V12.2c0-0.2,0.1-0.3,0.3-0.3h4.8c0.2,0,0.3,0.1,0.3,0.3v28.5h15.2c0.2,0,0.3,0.1,0.3,0.3
		v4.8c0,0.2-0.1,0.3-0.3,0.3H34.9z"/>
	<path d="M59.7,46.1c-0.2,0-0.3-0.1-0.3-0.3v-4.8c0-0.2,0.1-0.3,0.3-0.3h4.5c0.2,0,0.2,0.1,0.2,0.3v4.8c0,0.2-0.1,0.3-0.2,0.3H59.7z
		"/>
	<path d="M69.4,21.8c0-1.5,0.3-2.9,0.8-4.2s1.2-2.3,2.1-3.2c0.8-0.8,1.8-1.4,2.8-1.9c1-0.4,2.1-0.7,3.3-0.7c2.4,0,4.5,0.9,6.3,2.6
		c1.8,1.7,2.7,4.2,2.7,7.3v14.8c0,1.5-0.3,2.9-0.8,4.1c-0.5,1.3-1.1,2.3-1.9,3.2c-0.8,0.8-1.8,1.4-2.8,1.9s-2.2,0.7-3.4,0.7
		c-2.1-0.1-4-0.8-5.6-2.1v0c-0.8-0.7-1.5-1.5-2-2.5c-0.5-1-0.9-2.1-1.1-3.3c0-0.1,0-0.1,0-0.2s0.1-0.1,0.2-0.1h4.5
		c0.1,0,0.2,0.1,0.2,0.2c0.7,1.8,1.9,2.6,3.8,2.6c2.6,0,4-1.6,4.1-4.9v-2.8c-1,0.3-1.9,0.6-2.9,0.7s-1.9,0.2-2.7,0.2
		c-2,0-3.8-0.7-5.3-2.3h0c-1.5-1.5-2.2-4-2.1-7.2V21.8z M74.3,24.8c0,3.2,1.3,4.8,4,4.9c2.6,0,4-1.7,4.1-4.9v-2.7
		c-0.1-3.2-1.5-4.8-4.1-4.9c-2.7,0.1-4,1.7-4,4.9V24.8z"/>
	<path d="M93.2,46.1c-0.2,0-0.3-0.1-0.3-0.3V12.2c0-0.2,0.1-0.3,0.3-0.3h11.1c4.4,0,7.7,1.9,9.8,5.8c0.4,0.8,0.7,1.5,1,2.1
		c0.3,0.7,0.4,1.3,0.5,2c0.2,1.3,0.3,3.6,0.3,7.2c0,3.8-0.1,6.3-0.4,7.6c-0.1,0.7-0.3,1.3-0.5,1.9c-0.2,0.6-0.5,1.2-0.9,1.8v0
		c-1,1.6-2.3,3-4,4.1c-1.7,1.1-3.8,1.6-6.1,1.6H93.2z M98.2,17.3v23.4h5.5c2.5,0,4.4-0.9,5.7-2.8c0.5-0.8,0.8-1.7,0.9-2.6
		c0.1-0.5,0.1-1.3,0.2-2.3s0.1-2.3,0.1-3.9c0-1.5,0-2.8-0.1-3.8s-0.1-1.8-0.2-2.4c-0.1-1.1-0.5-2.1-1.1-3c-1.3-1.8-3.1-2.7-5.4-2.7
		H98.2z"/>
</g>
</svg>
