<?xml version="1.0" encoding="UTF-8" standalone="no"?>
<svg
   xmlns:dc="http://purl.org/dc/elements/1.1/"
   xmlns:cc="http://creativecommons.org/ns#"
   xmlns:rdf="http://www.w3.org/1999/02/22-rdf-syntax-ns#"
   xmlns:svg="http://www.w3.org/2000/svg"
   xmlns="http://www.w3.org/2000/svg"
   xmlns:sodipodi="http://sodipodi.sourceforge.net/DTD/sodipodi-0.dtd"
   xmlns:inkscape="http://www.inkscape.org/namespaces/inkscape"
   width="342.0285mm"
   height="279.79614mm"
   viewBox="0 0 342.02849 279.79613"
   version="1.1"
   id="svg9491"
   inkscape:version="1.0 (4035a4fb49, 2020-05-01)"
   sodipodi:docname="Vietnam_road_sign_IE456b.svg">
  <defs
     id="defs9485">
    <clipPath
       id="clipPath2832">
      <path
         d="M -0.24,595.138 H 317.24 V -0.138 H -0.24 Z"
         id="path2834"
         inkscape:connector-curvature="0" />
    </clipPath>
    <clipPath
       id="clipPath2840">
      <path
         d="M 0.03,595.32 H 317.49 V 0 H 0.03 Z"
         id="path2842"
         inkscape:connector-curvature="0" />
    </clipPath>
    <clipPath
       id="clipPath2858">
      <path
         d="M -0.24,595.138 H 317.24 V -0.138 H -0.24 Z"
         id="path2860"
         inkscape:connector-curvature="0" />
    </clipPath>
    <clipPath
       id="clipPath2864">
      <path
         d="M 0.03,595.32 H 317.49 V 0 H 0.03 Z"
         id="path2866"
         inkscape:connector-curvature="0" />
    </clipPath>
    <clipPath
       id="clipPath3306">
      <path
         d="m 199.238,472.977 v -29.74 h 29.744 v 29.74"
         id="path3308"
         inkscape:connector-curvature="0" />
    </clipPath>
    <clipPath
       id="clipPath3322">
      <path
         d="M -0.24,595.138 H 317.24 V -0.138 H -0.24 Z"
         id="path3324"
         inkscape:connector-curvature="0" />
    </clipPath>
    <clipPath
       id="clipPath3330">
      <path
         d="M 0.03,595.32 H 317.49 V 0 H 0.03 Z"
         id="path3332"
         inkscape:connector-curvature="0" />
    </clipPath>
    <clipPath
       id="clipPath3344">
      <path
         d="m 88.233,387.221 v -28.335 h 32.08 v 28.335"
         id="path3346"
         inkscape:connector-curvature="0" />
    </clipPath>
    <clipPath
       id="clipPath3462">
      <path
         d="M -0.24,595.138 H 317.24 V -0.138 H -0.24 Z"
         id="path3464"
         inkscape:connector-curvature="0" />
    </clipPath>
    <clipPath
       id="clipPath3470">
      <path
         d="M 0.03,595.32 H 317.49 V 0 H 0.03 Z"
         id="path3472"
         inkscape:connector-curvature="0" />
    </clipPath>
    <clipPath
       id="clipPath3490">
      <path
         d="M -0.24,595.138 H 317.24 V -0.138 H -0.24 Z"
         id="path3492"
         inkscape:connector-curvature="0" />
    </clipPath>
    <clipPath
       id="clipPath3496">
      <path
         d="M 0.03,595.32 H 317.49 V 0 H 0.03 Z"
         id="path3498"
         inkscape:connector-curvature="0" />
    </clipPath>
    <clipPath
       id="clipPath3520">
      <path
         d="m 254.788,326.215 v -28.309 h 28.326 v 28.309"
         id="path3522"
         inkscape:connector-curvature="0" />
    </clipPath>
    <clipPath
       id="clipPath3544">
      <path
         d="m 145.049,326.142 v -28.333 h 28.342 v 28.333"
         id="path3546"
         inkscape:connector-curvature="0" />
    </clipPath>
    <clipPath
       id="clipPath3682">
      <path
         d="M -0.24,595.138 H 317.24 V -0.138 H -0.24 Z"
         id="path3684"
         inkscape:connector-curvature="0" />
    </clipPath>
    <clipPath
       id="clipPath3690">
      <path
         d="M 0.03,595.32 H 317.49 V 0 H 0.03 Z"
         id="path3692"
         inkscape:connector-curvature="0" />
    </clipPath>
    <clipPath
       id="clipPath3980">
      <path
         d="M -0.24,595.138 H 317.24 V -0.138 H -0.24 Z"
         id="path3982"
         inkscape:connector-curvature="0" />
    </clipPath>
    <clipPath
       id="clipPath3988">
      <path
         d="M 0.03,595.32 H 317.49 V 0 H 0.03 Z"
         id="path3990"
         inkscape:connector-curvature="0" />
    </clipPath>
    <clipPath
       id="clipPath4010">
      <path
         d="M -0.24,595.138 H 317.24 V -0.138 H -0.24 Z"
         id="path4012"
         inkscape:connector-curvature="0" />
    </clipPath>
    <clipPath
       id="clipPath4016">
      <path
         d="M 0.03,595.32 H 317.49 V 0 H 0.03 Z"
         id="path4018"
         inkscape:connector-curvature="0" />
    </clipPath>
    <clipPath
       id="clipPath4062">
      <path
         d="m 200.163,177.773 v -28.284 h 28.283 v 28.284"
         id="path4064"
         inkscape:connector-curvature="0" />
    </clipPath>
    <clipPath
       id="clipPath4090">
      <path
         d="m 34.886,177.515 v -51.632 h 30.367 v 51.632"
         id="path4092"
         inkscape:connector-curvature="0" />
    </clipPath>
    <clipPath
       id="clipPath4106">
      <path
         d="m 34.886,177.515 v -51.632 h 30.367 v 51.632"
         id="path4108"
         inkscape:connector-curvature="0" />
    </clipPath>
    <clipPath
       id="clipPath4272">
      <path
         d="m 34.886,177.515 v -51.632 h 30.367 v 51.632"
         id="path4274"
         inkscape:connector-curvature="0" />
    </clipPath>
    <clipPath
       id="clipPath4304">
      <path
         d="m 254.653,176.442 v -48.167 h 28.317 v 48.167"
         id="path4306"
         inkscape:connector-curvature="0" />
    </clipPath>
    <clipPath
       id="clipPath4310">
      <path
         d="m 253.565,177.983 h 31.181 V 128.8 h -31.181 z"
         id="path4312"
         inkscape:connector-curvature="0" />
    </clipPath>
    <clipPath
       id="clipPath4316">
      <path
         d="M -0.24,595.138 H 317.24 V -0.138 H -0.24 Z"
         id="path4318"
         inkscape:connector-curvature="0" />
    </clipPath>
    <clipPath
       id="clipPath4322">
      <path
         d="M 0.03,595.32 H 317.49 V 0 H 0.03 Z"
         id="path4324"
         inkscape:connector-curvature="0" />
    </clipPath>
    <clipPath
       id="clipPath4456">
      <path
         d="M -0.24,595.138 H 317.24 V -0.138 H -0.24 Z"
         id="path4458"
         inkscape:connector-curvature="0" />
    </clipPath>
    <clipPath
       id="clipPath4464">
      <path
         d="M 0.03,595.32 H 317.49 V 0 H 0.03 Z"
         id="path4466"
         inkscape:connector-curvature="0" />
    </clipPath>
  </defs>
  <sodipodi:namedview
     id="base"
     pagecolor="#ffffff"
     bordercolor="#666666"
     borderopacity="1.0"
     inkscape:pageopacity="0.0"
     inkscape:pageshadow="2"
     inkscape:zoom="0.18732252"
     inkscape:cx="-1082.4353"
     inkscape:cy="1122.3125"
     inkscape:document-units="mm"
     inkscape:current-layer="layer1"
     showgrid="false"
     inkscape:window-width="1920"
     inkscape:window-height="1001"
     inkscape:window-x="-9"
     inkscape:window-y="-9"
     inkscape:window-maximized="1"
     inkscape:measure-start="0,0"
     inkscape:measure-end="0,0"
     inkscape:document-rotation="0" />
  <metadata
     id="metadata9488">
    <rdf:RDF>
      <cc:Work
         rdf:about="">
        <dc:format>image/svg+xml</dc:format>
        <dc:type
           rdf:resource="http://purl.org/dc/dcmitype/StillImage" />
        <dc:title></dc:title>
      </cc:Work>
    </rdf:RDF>
  </metadata>
  <g
     inkscape:label="Layer 1"
     inkscape:groupmode="layer"
     id="layer1"
     transform="translate(-1813.07,-309.57974)">
    <path
       style="opacity:1;fill:#00a34f;fill-opacity:1;fill-rule:nonzero;stroke:none;stroke-width:0.352777"
       d="m 1813.07,589.37588 h 342.0285 V 309.57974 H 1813.07 Z m 0,0"
       id="path1436" />
    <path
       style="opacity:1;fill:#ffffff;fill-opacity:1;fill-rule:nonzero;stroke:none;stroke-width:0.352777"
       d="m 1976.6044,529.64886 c -0.6455,0 -0.9657,0.32576 -1.2971,0.67516 -0.9596,0.97124 -0.9596,2.58807 0,3.55934 0,0 0.331,0.31975 0.6516,0.31975 7.7878,3.58306 7.7878,3.58306 7.7878,3.58306 -23.0205,22.7241 -23.0205,22.7241 -23.0205,22.7241 9.7308,9.73041 9.7308,9.73041 9.7308,9.73041 22.7003,-22.7241 22.7003,-22.7241 22.7003,-22.7241 3.5654,7.46812 3.5654,7.46812 3.5654,7.46812 0,0.32577 0.3481,0.64551 0.6691,0.97128 0.9713,0.97123 2.5941,0.97123 3.5594,0 0.3266,-0.64556 0.6455,-0.97128 0.6455,-1.29704 5.5315,-30.8318 5.5315,-30.8318 5.5315,-30.8318 z m 0,0"
       id="path1496" />
    <path
       style="opacity:1;fill:#000000;fill-opacity:1;fill-rule:nonzero;stroke:none;stroke-width:0.352777"
       d="m 1838.3653,436.7607 c 45.3259,0 45.3259,0 45.3259,0 2.7256,0 4.9307,2.20149 4.9307,4.92248 0,45.27478 0,45.27478 0,45.27478 0,2.72082 -2.2051,4.92067 -4.9307,4.92067 -45.3259,0 -45.3259,0 -45.3259,0 -2.6594,0 -4.8615,-2.19985 -4.8615,-4.92067 0,-45.27478 0,-45.27478 0,-45.27478 0,-2.72099 2.2021,-4.92248 4.8615,-4.92248 z m 0,0"
       id="path4367-8" />
    <path
       style="opacity:1;fill:#ffffff;fill-opacity:1;fill-rule:nonzero;stroke:none;stroke-width:0.352777"
       d="m 1838.3653,490.38914 c -1.8781,0 -3.4343,-1.55365 -3.4343,-3.43118 0,-45.27478 0,-45.27478 0,-45.27478 0,-1.87762 1.5562,-3.43148 3.4343,-3.43148 45.3259,0 45.3259,0 45.3259,0 1.9472,0 3.4403,1.55386 3.4403,3.43148 0,45.27478 0,45.27478 0,45.27478 0,1.87753 -1.4931,3.43118 -3.4403,3.43118 z m 0,0"
       id="path4369-2" />
    <path
       id="path33347-7"
       d="m 1920.4634,436.7607 c 45.3259,0 45.3259,0 45.3259,0 2.7256,0 4.9307,2.20149 4.9307,4.92248 0,45.27478 0,45.27478 0,45.27478 0,2.72082 -2.2051,4.92067 -4.9307,4.92067 -45.3259,0 -45.3259,0 -45.3259,0 -2.6594,0 -4.8615,-2.19985 -4.8615,-4.92067 0,-45.27478 0,-45.27478 0,-45.27478 0,-2.72099 2.2021,-4.92248 4.8615,-4.92248 z m 0,0"
       style="opacity:1;fill:#000000;fill-opacity:1;fill-rule:nonzero;stroke:none;stroke-width:0.352777" />
    <path
       id="path33349-9"
       d="m 1920.4634,490.38914 c -1.8781,0 -3.4343,-1.55365 -3.4343,-3.43118 0,-45.27478 0,-45.27478 0,-45.27478 0,-1.87762 1.5562,-3.43148 3.4343,-3.43148 45.3259,0 45.3259,0 45.3259,0 1.9473,0 3.4403,1.55386 3.4403,3.43148 0,45.27478 0,45.27478 0,45.27478 0,1.87753 -1.493,3.43118 -3.4403,3.43118 z m 0,0"
       style="opacity:1;fill:#ffffff;fill-opacity:1;fill-rule:nonzero;stroke:none;stroke-width:0.352777" />
    <path
       style="opacity:1;fill:#000000;fill-opacity:1;fill-rule:nonzero;stroke:none;stroke-width:0.352777"
       d="m 2002.7893,436.7607 c 45.3254,0 45.3254,0 45.3254,0 2.7256,0 4.9308,2.20149 4.9308,4.92248 0,45.27478 0,45.27478 0,45.27478 0,2.72082 -2.2052,4.92067 -4.9308,4.92067 -45.3254,0 -45.3254,0 -45.3254,0 -2.6594,0 -4.8616,-2.19985 -4.8616,-4.92067 0,-45.27478 0,-45.27478 0,-45.27478 0,-2.72099 2.2022,-4.92248 4.8616,-4.92248 z m 0,0"
       id="path33351-1" />
    <path
       style="opacity:1;fill:#ffffff;fill-opacity:1;fill-rule:nonzero;stroke:none;stroke-width:0.352777"
       d="m 2002.7893,490.38914 c -1.8785,0 -3.4343,-1.55365 -3.4343,-3.43118 0,-45.27478 0,-45.27478 0,-45.27478 0,-1.87762 1.5558,-3.43148 3.4343,-3.43148 45.3254,0 45.3254,0 45.3254,0 1.9477,0 3.4408,1.55386 3.4408,3.43148 0,45.27478 0,45.27478 0,45.27478 0,1.87753 -1.4931,3.43118 -3.4408,3.43118 z m 0,0"
       id="path33353-6" />
    <path
       id="path1988-0"
       style="opacity:1;fill:#000000;fill-opacity:1;fill-rule:nonzero;stroke:none;stroke-width:0.352777"
       d="m 2025.6821,444.40283 c -0.2492,0 -0.4916,0.0129 -0.7327,0.0387 -0.3051,0.0301 -0.6013,0.0877 -0.8931,0.15558 -0.1719,0.0387 -0.3438,0.0808 -0.5105,0.13323 -0.6748,0.21144 -1.3091,0.51933 -1.8833,0.90835 -0.1934,0.12979 -0.3782,0.26818 -0.5552,0.41516 -0.3567,0.29396 -0.6838,0.62372 -0.9773,0.97944 -0.1461,0.17792 -0.2837,0.36143 -0.4169,0.55298 0,0 0,0.003 0,0.003 -0.047,0.0722 -0.09,0.15042 -0.1375,0.22434 -0.288,0.46204 -0.5291,0.95589 -0.7083,1.47913 0,0.0597 -0.047,0.11733 -0.064,0.17749 0,0 0,10e-4 0,10e-4 -0.069,0.22434 -0.129,0.45332 -0.1763,0.68626 0,0 0,10e-4 0,10e-4 0,0.0301 0,0.0623 0,0.0933 -0.086,0.43858 -0.1332,0.88829 -0.1332,1.35029 0,0.25099 0,0.49926 0.043,0.74402 0,0.0387 0,0.0722 0,0.10873 0.3911,3.36555 3.0715,5.97549 6.4138,6.31174 0.2407,0.0258 0.4857,0.0387 0.7332,0.0387 0.245,0 0.4921,-0.0129 0.7328,-0.0387 0.043,-0.003 0.065,-0.009 0.095,-0.0129 3.3389,-0.38078 6.0043,-3.02699 6.343,-6.41837 0.043,-0.2411 0.043,-0.48564 0.043,-0.73288 0,-0.24712 0,-0.49183 -0.043,-0.73289 -0.052,-0.48147 -0.1461,-0.94978 -0.288,-1.39919 0,0 0,-0.003 0,-0.003 -0.1418,-0.45001 -0.3266,-0.88016 -0.5483,-1.2881 -0.2235,-0.40785 -0.4831,-0.79206 -0.7775,-1.14821 -0.7362,-0.89013 -1.6813,-1.60355 -2.7582,-2.06099 -0.4307,-0.18308 -0.8824,-0.32534 -1.3504,-0.42203 -0.468,-0.0963 -0.9528,-0.14655 -1.4479,-0.14655 z m -10.647,15.30855 v 2.66507 0.0645 h 3.3161 c 0.2406,0 0.4839,0.14784 0.5905,0.38636 0.043,0.0825 0.056,0.17276 0.056,0.26645 v 17.70712 c 0,0.12893 -0.06,0.25314 -0.1418,0.36187 -0.043,0.0301 -0.043,0.0593 -0.06,0.0842 -0.06,0.061 -0.1332,0.11303 -0.2062,0.1487 -0.077,0.0344 -0.1548,0.0554 -0.2364,0.0554 h -3.3161 v 2.72503 h 21.1007 v -2.72503 h -3.5069 c -0.1375,0 -0.2578,-0.0481 -0.3653,-0.11346 -0.047,-0.0301 -0.099,-0.0541 -0.1375,-0.0911 -0.1289,-0.12205 -0.2106,-0.28364 -0.2106,-0.4464 v -21.08953 z" />
    <path
       id="path33357-8"
       d="m 2084.66,436.7607 c 45.3255,0 45.3255,0 45.3255,0 2.7256,0 4.9307,2.20149 4.9307,4.92248 0,45.27478 0,45.27478 0,45.27478 0,2.72082 -2.2051,4.92067 -4.9307,4.92067 -45.3255,0 -45.3255,0 -45.3255,0 -2.6594,0 -4.8615,-2.19985 -4.8615,-4.92067 0,-45.27478 0,-45.27478 0,-45.27478 0,-2.72099 2.2021,-4.92248 4.8615,-4.92248 z m 0,0"
       style="opacity:1;fill:#000000;fill-opacity:1;fill-rule:nonzero;stroke:none;stroke-width:0.352777" />
    <path
       id="path33359-7"
       d="m 2084.66,490.38914 c -1.8785,0 -3.4342,-1.55365 -3.4342,-3.43118 0,-45.27478 0,-45.27478 0,-45.27478 0,-1.87762 1.5557,-3.43148 3.4342,-3.43148 45.3255,0 45.3255,0 45.3255,0 1.9477,0 3.4407,1.55386 3.4407,3.43148 0,45.27478 0,45.27478 0,45.27478 0,1.87753 -1.493,3.43118 -3.4407,3.43118 z m 0,0"
       style="opacity:1;fill:#ffffff;fill-opacity:1;fill-rule:nonzero;stroke:none;stroke-width:0.352777" />
    <path
       d="m 1942.6596,440.90074 c -0.5153,0 -0.9038,0.25786 -1.0319,0.70907 l -1.3576,3.7539 h -3.2323 c -0.6511,0 -1.2304,0.25786 -1.6176,0.70907 l -1.7509,1.94242 h 18.5006 l -1.7517,-1.94242 c -0.3868,-0.45138 -1.0293,-0.70907 -1.6151,-0.70907 h -3.2322 l -1.3585,-3.7539 c -0.129,-0.45134 -0.5815,-0.70907 -1.0311,-0.70907 z m -5.1718,9.31191 -7.5661,4.39777 h 1.2945 l 7.6314,-4.39777 z m 2.5249,0 -2.5249,4.39777 h 0.7091 l 2.5889,-4.39777 z m 2.5812,0 v 4.39777 h 0.6498 v -4.39777 z m 2.4599,0 2.5254,4.39777 h 0.7731 l -2.524,-4.39777 z m 1.9409,0 7.6288,4.39777 h 1.2949 l -7.6306,-4.39777 z m -4.0747,14.58451 c -2.8932,0 -5.7863,0.16116 -8.6654,0.48375 l -2.4591,6.14349 c -2.9748,3.16863 -3.3608,7.95328 -0.8372,11.50763 v 4.14163 h 2.4536 v -4.14163 h 19.0159 v 4.14163 h 2.4531 v -4.14163 c 2.4596,-3.55435 2.1398,-8.339 -0.838,-11.50763 l -2.46,-6.14349 c -2.8773,-0.32233 -5.7701,-0.48375 -8.6629,-0.48375 z m 0,1.64911 c 2.5051,0 5.0102,0.1285 7.4994,0.3855 l 1.8815,4.59271 h -18.7585 l 1.879,-4.59271 c 2.4892,-0.257 4.9939,-0.3855 7.4986,-0.3855 z m -9.3776,6.78792 c 1.0371,0 1.879,0.84359 1.879,1.87439 0,1.03686 -0.8419,1.88006 -1.879,1.88006 -1.031,0 -1.8738,-0.8432 -1.8738,-1.88006 0,-1.0308 0.8428,-1.87439 1.8738,-1.87439 z m 18.7585,0 c 1.0293,0 1.8725,0.84359 1.8725,1.87439 0,1.03686 -0.8432,1.88006 -1.8725,1.88006 -1.1023,0 -1.9438,-0.8432 -1.9438,-1.88006 0,-1.0308 0.8415,-1.87439 1.9438,-1.87439 z m -15.5253,2.4599 h 2.6529 v 2.97456 h -3.4261 c -0.3868,-1.10094 -0.064,-2.26552 0.7732,-2.97456 z m 3.8193,0 h 4.6553 v 2.97456 h -4.6553 z m 5.755,0 h 2.6465 c 0.845,0.70904 1.1651,1.87362 0.845,2.97456 h -3.4915 z"
       style="opacity:1;fill:#000000;fill-opacity:1;fill-rule:nonzero;stroke:none;stroke-width:0.352777"
       id="path39862-3" />
    <path
       id="path1718-7"
       d="m 2094.0311,452.8433 c -4.2096,0.52032 -6.5845,2.50825 -6.5845,2.50825 -0.8737,0.68643 -1.8454,1.4194 -1.857,2.64101 v 7.59722 c 0,0.37089 1.5691,0.35542 1.5678,0 v -1.96563 l 26.0478,6.71697 v 2.84597 c 0,0.46058 2.2988,0.68414 2.2911,-0.60357 l 0.159,-1.8927 11.4929,-3.20774 v 1.98978 c 0,0.23122 1.8462,0.38851 1.8566,-0.50648 v -6.13811 c 0,-1.25016 -0.496,-2.33141 -1.5678,-2.68923 -1.1467,-0.28752 -2.4089,-0.3825 -3.4369,-0.14483 0,0 -4.1421,0.65784 -5.6317,2.20681 -7.1612,-2.98727 -13.9837,-3.81698 -18.1852,-4.1966 v -2.89418 c 0,-0.72111 -1.8832,-1.74189 -2.6529,-1.92944 -0.9223,-0.33221 -2.2705,-0.43708 -3.497,-0.3378 z m 3.9792,4.65481 c 0.7491,0.18609 0.8166,0.7579 0,1.00089 -1.1272,0.25915 -3.1768,0.84394 -3.7862,1.27886 -0.5879,0.46376 -0.7156,1.25015 -0.3481,2.14596 -0.2106,0.0933 -0.6967,0.0743 -0.9288,0 -0.8909,-0.2931 -1.9077,-0.77186 -2.6529,-1.38682 -0.4465,-0.38937 -0.5037,-0.79657 -0.3481,-1.10944 0.3352,-0.65235 1.5059,-1.13476 3.2198,-1.57974 1.016,-0.29396 4.1004,-0.4914 4.8478,-0.34983 z m 8.2967,2.43593 c 2.6873,0.54138 7.8665,2.18214 10.2023,3.34041 -0.6176,0.27204 -2.1893,2.52622 -2.0741,3.91923 l -0.2879,0.0129 -15.8456,-3.93126 c -1.4341,-0.45186 -2.0899,-0.99328 -2.7135,-1.56771 -0.4298,-0.37261 -0.7611,-0.90165 -0.5905,-1.36266 0.1934,-0.40785 1.0095,-0.64684 1.447,-0.71152 4.7678,-0.90677 8.004,-0.0387 9.864,0.30126 z"
       style="opacity:1;fill:#000000;fill-opacity:1;fill-rule:nonzero;stroke:none;stroke-width:0.0591872"
       inkscape:connector-curvature="0"
       sodipodi:nodetypes="ccccccccccccccccccccccccccccccccccccccc" />
    <path
       id="path43589"
       style="color:#000000;font-style:normal;font-variant:normal;font-weight:normal;font-stretch:normal;font-size:medium;line-height:normal;font-family:sans-serif;font-variant-ligatures:normal;font-variant-position:normal;font-variant-caps:normal;font-variant-numeric:normal;font-variant-alternates:normal;font-variant-east-asian:normal;font-feature-settings:normal;font-variation-settings:normal;text-indent:0;text-align:start;text-decoration:none;text-decoration-line:none;text-decoration-style:solid;text-decoration-color:#000000;letter-spacing:normal;word-spacing:normal;text-transform:none;writing-mode:lr-tb;direction:ltr;text-orientation:mixed;dominant-baseline:auto;baseline-shift:baseline;text-anchor:start;white-space:normal;shape-padding:0;shape-margin:0;inline-size:0;clip-rule:nonzero;display:inline;overflow:visible;visibility:visible;opacity:1;isolation:auto;mix-blend-mode:normal;color-interpolation:sRGB;color-interpolation-filters:linearRGB;solid-color:#000000;solid-opacity:1;vector-effect:none;fill:#ffffff;fill-opacity:1;fill-rule:evenodd;stroke:none;stroke-width:0.829735;stroke-linecap:square;stroke-linejoin:miter;stroke-miterlimit:4;stroke-dasharray:none;stroke-dashoffset:0;stroke-opacity:1;paint-order:stroke fill markers;color-rendering:auto;image-rendering:auto;shape-rendering:auto;text-rendering:auto;enable-background:accumulate;stop-color:#000000;stop-opacity:1"
       d="m 1825.1095,311.52895 c -5.6463,0 -10.2474,4.5986 -10.2474,10.24494 v 84.31373 5.55002 16.95868 12.85672 53.3279 5.14359 16.85876 13.36307 47.01835 c 0,5.64638 4.6011,10.24498 10.2474,10.24498 h 317.8309 c 5.6463,0 10.2474,-4.5986 10.2474,-10.24498 v -47.01835 -13.36307 -16.85876 -5.14359 -53.3279 -12.85672 -16.95868 -5.55002 -84.31373 c 0,-5.64634 -4.6011,-10.24494 -10.2474,-10.24494 z m 0,3.5645 h 317.8309 c 3.7325,0 6.6829,2.94795 6.6829,6.68044 v 84.31373 5.55002 c 0,3.73245 -2.9504,6.68263 -6.6829,6.68263 h -317.8309 c -3.7325,0 -6.6829,-2.95018 -6.6829,-6.68263 v -5.55002 -84.31373 c 0,-3.73249 2.9504,-6.68044 6.6829,-6.68044 z m 324.5138,104.29286 v 1.46134 c -0.3008,-0.26001 -0.621,-0.4972 -0.9506,-0.7218 0.3309,-0.22606 0.6468,-0.477 0.9506,-0.73954 z m -324.5138,2.52514 h 317.8309 c 3.7325,0 6.6829,2.95238 6.6829,6.68487 v 12.85672 53.3279 5.14359 c 0,3.49449 -2.5859,6.30121 -5.9789,6.6449 -0.2321,-0.0172 -0.4659,-0.0344 -0.704,-0.0344 h -317.8309 c -0.2363,0 -0.4701,0.0215 -0.7039,0.0344 -3.393,-0.34382 -5.979,-3.15041 -5.979,-6.6449 v -5.14359 -53.3279 -12.85672 c 0,-3.73249 2.9504,-6.68487 6.6829,-6.68487 z m -0.6928,88.22471 c 9e-4,8e-5 0,-9e-5 0,0 0.2278,0.0172 0.4565,0.0344 0.6885,0.0344 h 317.8313 c 0.2321,0 0.4599,-0.0172 0.6881,-0.0344 0,-9e-5 0,8e-5 0,0 3.3977,0.33951 5.9897,3.14942 5.9897,6.64713 v 13.36307 47.01835 c 0,3.73254 -2.95,6.68044 -6.6825,6.68044 h -317.8313 c -3.7325,0 -6.6829,-2.9479 -6.6829,-6.68044 v -47.01835 -13.36307 c 0,-3.49771 2.5924,-6.30762 5.9901,-6.64713 z"
       sodipodi:nodetypes="ssccccccccscssccccccccsssssscsssscssccccsssccscsscsccssccssscscsssscsc" />
    <path
       id="path1944-0"
       style="opacity:1;fill:#ffffff;fill-opacity:1;fill-rule:nonzero;stroke:none;stroke-width:0.352777"
       d="m 2115.33,332.5106 c -0.9064,0 -1.6873,0.2613 -2.2675,0.84174 -0.2621,0.26044 -0.5226,0.58707 -0.6532,0.91279 -0.1934,0.31975 -0.2579,0.7092 -0.2579,1.1593 h 1.8833 c 0,-0.84097 0.5204,-1.297 1.3615,-1.297 0.7164,0 1.1028,0.26646 1.1681,0.78175 0.064,0.51525 -0.3266,0.90612 -1.1681,1.29699 -0.5867,0.32577 -0.9056,0.78248 -0.9709,1.30366 v 0.57967 h 0.8419 0.9705 v -0.38421 l 0.1332,-0.26001 0.1934,-0.19554 c 0.2621,-0.13022 0.6506,-0.33221 1.1659,-0.593 0.5862,-0.38507 0.912,-0.90539 0.9773,-1.48575 -0.064,-0.45602 -0.1289,-0.77732 -0.2621,-1.04382 -0.1934,-0.25485 -0.3911,-0.51451 -0.7173,-0.77508 -0.5806,-0.5804 -1.4213,-0.84175 -2.3985,-0.84175 z m -46.2899,2.66065 -3.2383,3.2447 h 2.1364 l 2.2034,-1.68787 2.3453,1.68787 h 2.1385 l -3.1803,-3.2447 z m 52.6569,2.72946 -1.1079,1.03049 c 0.3266,0.45603 0.4559,0.91279 0.391,1.30366 -0.064,0.38507 -0.2621,0.7092 -0.6459,0.96384 -0.1246,0.12549 -0.4775,0.1285 -0.5045,0.12893 v -1.71228 h -3.109 v 16.5256 c 0,1.52443 -0.8234,2.25641 -1.9211,2.25641 -1.0976,0 -1.921,-0.73198 -1.921,-2.25641 v -16.5256 h -3.1094 v 16.82984 c 0,2.83547 2.2559,5.06141 5.0304,5.06141 2.7746,0 5.0301,-2.22594 5.0301,-5.06141 v -13.55183 h 0.3094 c 0.5153,-0.0653 1.0379,-0.26001 1.5588,-0.65071 0.5806,-0.45603 0.9063,-1.04236 0.9063,-1.88333 0,-0.77582 -0.1977,-1.49391 -0.6463,-2.07432 -0.069,-0.13022 -0.202,-0.26001 -0.2622,-0.38421 z m -19.2192,1.5524 c -0.7818,0 -1.4917,0.19555 -2.2142,0.58634 -0.7108,0.45005 -1.2321,0.90534 -1.6172,1.48575 -0.3911,0.52113 -0.6511,1.04235 -0.7818,1.56349 -0.1289,0.45603 -0.1933,0.97128 -0.1933,1.61683 v 11.16438 c 0,0.58633 0.064,1.16523 0.1332,1.74563 0.1289,0.52114 0.3223,1.10747 0.7151,1.68787 0.3868,0.65737 0.9717,1.17262 1.7475,1.56349 0.7877,0.4501 1.6993,0.64629 2.6052,0.64629 0.8411,0 1.6237,-0.26044 2.3341,-0.71071 0.7817,-0.45598 1.3623,-0.97123 1.6881,-1.56349 0.3911,-0.58036 0.5793,-1.10231 0.6507,-1.62345 0.1246,-0.51525 0.1246,-1.10008 0.1246,-1.74563 v -0.71071 h -3.0492 v 0.71071 0.39109 c 0,0.31974 -9e-4,0.57967 -0.06,0.77508 0,0.13022 -0.1934,0.45676 -0.3911,0.8417 -0.2621,0.32577 -0.7164,0.51972 -1.4925,0.51972 -0.7104,0 -1.1664,-0.19468 -1.4922,-0.65075 -0.2622,-0.38507 -0.3911,-0.77655 -0.3911,-1.03712 -0.064,-0.25485 -0.064,-0.5789 -0.064,-0.83951 v -11.16438 c 0,-0.64555 0.1976,-1.10231 0.5217,-1.5524 0.318,-0.39109 0.7744,-0.58633 1.426,-0.58633 0.6515,0 1.1015,0.19554 1.4921,0.58633 0.3266,0.45009 0.4508,0.90685 0.4508,1.5524 v 1.17263 h 3.0497 v -1.17263 c 0,-1.55167 -0.4487,-2.78872 -1.426,-3.75999 -1.0366,-0.97716 -2.2696,-1.49241 -3.7622,-1.49241 z m 21.9598,0.16203 v 16.82987 c 0,2.83548 2.2559,5.06142 5.0305,5.06142 2.7745,0 5.0304,-2.22594 5.0304,-5.06142 v -16.82987 h -3.1094 v 16.52564 c 0,1.52443 -0.8234,2.25641 -1.921,2.25641 -1.0977,0 -1.9211,-0.73198 -1.9211,-2.25641 v -16.52564 z m -84.8022,0.0344 v 2.91825 h 3.6311 v 18.75094 h 3.1206 v -18.75094 h 3.6955 v -2.91825 z m 12.5926,0 v 21.66919 h 3.1202 v -9.66531 h 3.8911 v 9.66531 h 3.1158 v -21.66919 h -3.1158 v 9.2789 h -3.8911 v -9.2789 z m 16.623,0 -4.8035,21.66919 h 3.24 l 0.9129,-4.67274 h 4.02 l 0.8484,4.67274 h 3.3092 l -4.8018,-21.66919 z m 9.1502,0 v 21.66919 h 3.0492 v -13.17204 l 4.8684,13.17204 h 2.8606 v -21.66919 h -3.0497 V 352.755 l -4.8082,-13.10546 z m -7.7887,6.22961 1.4213,7.91301 h -2.9134 z m 15.6483,21.86461 c -0.064,0 -0.064,0.0662 -0.1289,0.13108 -0.064,0.31974 -0.1333,0.51598 -0.3266,0.64628 -0.1934,0.0653 -0.3911,0.12893 -0.5863,0.12893 -0.1933,0 -0.391,6.9e-4 -0.5152,-0.064 -0.2622,-0.0653 -0.5214,-0.19555 -0.7818,-0.31975 -0.1289,0 -0.2621,-0.0718 -0.3825,-0.13108 -0.1289,0 -0.2664,-0.064 -0.4555,-0.12893 -0.129,-0.0653 -0.2622,-0.0666 -0.3911,-0.0666 -0.129,-0.0653 -0.3266,-0.0645 -0.4577,-0.0645 -0.3267,0 -0.6516,0.0653 -0.9769,0.19554 -0.2621,0.12421 -0.5213,0.31975 -0.7817,0.51525 -0.1891,0.19555 -0.3868,0.45603 -0.5153,0.78175 -0.1934,0.31975 -0.2579,0.64629 -0.3224,1.03716 0,0.0653 -8e-4,0.1242 0.129,0.1242 h 1.297 c 0.064,0 0.1332,-0.0593 0.1332,-0.1242 0,-0.26044 0.1333,-0.52264 0.3267,-0.65295 v 0.0666 c 0.1934,-0.13022 0.3911,-0.19555 0.52,-0.19555 0.1934,0 0.4573,0.064 0.6528,0.12893 0.2622,0.0653 0.5205,0.13194 0.7749,0.26216 0.1934,0.0653 0.3266,0.064 0.5221,0.12893 0.129,0.0653 0.2579,0.13108 0.3224,0.13108 0.1289,0.0653 0.2621,0.0662 0.4577,0.13108 h 0.3825 c 0.4559,0 0.7826,-0.0653 1.1079,-0.19554 0.2536,-0.13022 0.5153,-0.32577 0.7108,-0.58629 0.1934,-0.25486 0.3911,-0.51676 0.5196,-0.77732 0.129,-0.32577 0.1891,-0.57972 0.2622,-0.97051 0,-0.0653 -0.073,-0.13108 -0.1332,-0.13108 z m -25.8333,4.70161 c -2.5404,0 -5.2346,1.77537 -5.2346,5.32569 v 11.5086 c 0,3.55035 2.6942,5.32572 5.2346,5.32572 2.5403,0 5.2324,-1.77537 5.2324,-5.32572 v -6.85583 h -5.6007 v 2.75387 h 2.4806 v 4.10196 c 0,1.49976 -0.9799,2.20316 -2.1123,2.20316 -1.1325,0 -2.1119,-0.7034 -2.1119,-2.20316 v -11.50858 c 0,-1.49972 0.9794,-2.20316 2.1119,-2.20316 1.1324,0 2.1123,0.70344 2.1123,2.20316 v 1.10154 h 3.1201 v -1.10154 c 0,-3.55036 -2.6921,-5.32573 -5.2324,-5.32573 z m -19.1595,0.23337 v 21.66919 h 3.0492 v -13.17208 l 4.8684,13.17208 h 2.8558 v -21.66919 h -3.0513 v 13.10546 l -4.8014,-13.10546 z m 27.3968,0 v 21.66919 h 3.0492 v -9.66531 h 3.9621 v 9.66531 h 3.0517 v -21.66919 h -3.0517 v 9.27443 h -3.9621 v -9.27443 z m 13.4389,0 v 21.66919 h 3.0492 v -21.66919 z m 9.6117,0 -4.8104,21.66919 h 3.2469 l 0.906,-4.67274 h 4.0265 l 0.8462,4.67274 h 3.3113 l -4.8035,-21.66919 z m 1.3615,6.22295 1.4281,7.91967 h -2.9271 z" />
    <path
       style="opacity:1;fill:#ffffff;fill-opacity:1;fill-rule:nonzero;stroke:none;stroke-width:0.352777"
       d="m 1833.0581,403.62118 h 184.0493 v -73.57947 h -184.0493 z m 0,0"
       id="path1966-2" />
    <path
       id="path1968"
       style="opacity:1;fill:#0046aa;fill-opacity:1;fill-rule:nonzero;stroke:none;stroke-width:0.352777"
       d="m 1837.477,332.25132 c -1.2378,0 -2.2168,1.03639 -2.2168,2.20308 v 64.7544 c 0,1.23777 0.979,2.20978 2.2168,2.20978 h 175.1479 c 1.2378,0 2.2073,-0.97201 2.2073,-2.20978 v -64.7544 c 0,-1.16669 -0.9695,-2.20308 -2.2073,-2.20308 z m 168.3963,3.4357 c 0.9773,0 1.8226,0.26 2.4028,0.84612 0.3266,0.31975 0.5222,0.58556 0.7177,0.84617 0.129,0.32577 0.1934,0.64556 0.1934,1.10158 0,0.5804 -0.3266,1.16669 -0.9128,1.61679 -0.5149,0.26044 -0.9051,0.45611 -1.166,0.58633 l -0.1934,0.19555 -0.1246,0.26215 -0.073,0.38422 h -0.9773 -0.7749 v -0.57963 c 0.065,-0.52118 0.3825,-1.03789 0.9704,-1.36365 0.8527,-0.39066 1.2377,-0.84613 1.1728,-1.36138 -0.1289,-0.58633 -0.5157,-0.84174 -1.1728,-0.84174 -0.9059,0 -1.3628,0.45082 -1.4281,1.35699 h -1.8833 c 0,-0.45014 0.1333,-0.90617 0.2622,-1.22596 0.1977,-0.32576 0.4547,-0.65741 0.7151,-0.9772 0.5802,-0.58629 1.3637,-0.84613 2.2696,-0.84613 z m -87.8359,1.23038 h 3.0513 l 3.3758,4.60831 h -1.9434 z m 9.4763,4.47728 c 0.129,0.13021 0.1934,0.26086 0.2622,0.39108 0.456,0.64556 0.7173,1.36881 0.7173,2.20978 -0.064,0.84093 -0.3267,1.49319 -0.9129,1.94328 -0.5806,0.39109 -1.1006,0.64994 -1.557,0.71514 h -0.3825 v 14.01825 c 0,0.58036 -4e-4,1.10235 -0.1289,1.62345 -0.129,0.45009 -0.3267,0.90621 -0.5867,1.42137 -0.4559,0.71664 -1.037,1.36142 -1.8187,1.82333 -0.7758,0.51525 -1.5515,0.71071 -2.4695,0.71071 -0.9064,0 -1.7474,-0.19555 -2.5941,-0.71071 -0.7817,-0.46191 -1.3623,-1.04081 -1.6881,-1.6923 -0.3266,-0.5804 -0.5136,-1.16669 -0.6438,-1.61678 -0.064,-0.45603 -0.1289,-0.97871 -0.1289,-1.55907 v -17.45175 h 3.1158 v 17.45175 c 0,0.32576 -9e-4,0.58186 0.065,0.77732 0,0.26044 0.1891,0.58629 0.4508,0.97716 0.3266,0.38508 0.7817,0.57967 1.4926,0.57967 0.5862,5e-5 1.1075,-0.19554 1.3679,-0.7107 0.3267,-0.45594 0.5196,-0.9779 0.5196,-1.62345 v -17.45175 h 3.0518 v 1.81224 c 0.1891,0 0.3825,-0.0653 0.5793,-0.19554 0.3267,-0.25485 0.5858,-0.64629 0.6507,-1.03716 0.064,-0.38507 -0.064,-0.84106 -0.4551,-1.36808 z m 22.0114,1.60793 c 2.6599,0 5.4787,1.85698 5.4787,5.57443 v 1.15487 h -3.2666 v -1.15487 c 0,-1.57029 -1.0263,-2.30751 -2.2121,-2.30751 -1.1857,0 -2.212,0.73722 -2.212,2.30751 v 12.05052 c 0,1.57028 1.0263,2.30751 2.212,2.30751 1.1858,4e-5 2.2121,-0.73723 2.2121,-2.30751 v -4.29519 h -2.5963 v -2.88271 h 5.8629 v 7.1779 c 0,3.7174 -2.8188,5.57666 -5.4787,5.57666 -2.6602,0 -5.4812,-1.85926 -5.4812,-5.57666 v -12.05052 c 0,-3.71745 2.821,-5.57443 5.4812,-5.57443 z m 33.3152,0 c 2.6598,0 5.4813,1.85698 5.4813,5.57443 v 1.15487 h -3.2693 v -1.15487 c 0,-1.57029 -1.0263,-2.30751 -2.212,-2.30751 -1.1857,0 -2.2094,0.73722 -2.2094,2.30751 v 12.05052 c 0,1.57028 1.0237,2.30751 2.2094,2.30751 1.1857,4e-5 2.212,-0.73723 2.212,-2.30751 v -4.29519 h -2.5962 v -2.88271 h 5.8655 v 7.1779 c 0,3.7174 -2.8215,5.57666 -5.4813,5.57666 -2.6598,0 -5.4787,-1.85926 -5.4787,-5.57666 v -12.05052 c 0,-3.71745 2.8189,-5.57443 5.4787,-5.57443 z m -141.2126,0.21746 h 10.4536 v 3.04263 h -3.702 v 19.79252 h -3.1162 V 346.2627 h -3.6354 z m 12.59,0 h 5.3901 c 1.4926,0 2.6646,0.51452 3.6359,1.55683 0.9768,1.1015 1.4921,2.33343 1.4921,3.89104 v 2.07208 c 0,2.13796 -0.8393,3.76661 -2.527,4.86819 l 3.2447,10.44701 h -3.2447 l -2.9852,-9.7941 h -1.9498 v 9.7941 h -3.0561 z m 16.6256,0 h 2.723 l 4.8104,22.83515 h -3.3114 l -0.8527,-4.86149 h -4.0866 l -0.8415,4.86149 h -3.3092 z m 9.1501,0 h 2.8537 l 4.1576,12.19268 4.0265,-12.19268 h 2.9271 v 22.83515 h -3.1222 v -13.88721 l -3.1141,9.73639 h -1.5588 l -3.1205,-9.73639 v 13.88721 h -3.0493 z m 23.0485,0 h 4.868 c 1.4272,0 2.5958,0.51452 3.638,1.55683 0.9773,1.03046 1.4925,2.26166 1.4925,3.76 v 11.87504 c 0,1.68783 -0.4516,3.04418 -1.435,4.08645 -0.9712,1.04236 -2.2021,1.55683 -3.76,1.55683 h -4.8035 z m 27.197,0 h 2.9314 l 4.7971,13.81613 v -13.81613 h 3.1205 v 22.83515 h -2.8605 l -4.8684,-13.82279 v 13.82279 h -3.1201 z m 33.2421,0 h 2.9181 l 4.8104,13.81613 v -13.81613 h 3.1141 v 22.83515 h -2.9185 l -4.8104,-13.82279 v 13.82279 h -3.1137 z m 27.4613,0 h 3.1158 v 9.78968 h 3.9668 v -9.78968 h 3.0513 v 22.83515 h -3.0513 v -10.18498 h -3.9668 v 10.18498 h -3.1158 z m 13.5029,0 h 3.056 v 22.83515 h -3.056 z m -147.1714,3.04263 v 7.13792 h 2.2098 c 0.6456,0 1.1669,-0.26043 1.6168,-0.71066 0.1934,-0.26044 0.3267,-0.52195 0.3911,-0.84174 0.1289,-0.32577 0.1289,-0.71737 0.1289,-1.1082 v -2.07208 c 0,-0.7166 -0.1976,-1.3022 -0.5217,-1.7523 -0.3868,-0.45602 -0.9068,-0.65294 -1.5523,-0.65294 z m 48.8194,0.0666 v 16.67667 h 1.4926 c 1.6228,0 2.4029,-0.84106 2.4029,-2.594 v -11.87508 c 0,-0.65144 -0.2579,-1.17116 -0.6507,-1.62126 -0.456,-0.39108 -0.9721,-0.58629 -1.6232,-0.58629 z m -33.9529,3.50459 -1.4281,8.30388 h 2.9207 z m -1.297,18.81536 h 2.6585 v 2.79607 h -2.6585 z m 37.5754,6.96026 c 2.4884,0 4.1486,2.00126 4.1486,3.92872 v 1.21929 h -2.4897 v -0.55968 c 0,-1.14671 -0.4882,-2.09873 -1.7569,-2.09873 -1.3662,0 -1.6834,1.09638 -1.6834,2.24309 0,1.3419 0.1204,1.80623 1.4148,2.31859 l 1.9035,0.75734 c 2.1957,0.82954 2.6117,2.21967 2.6117,4.75714 0,2.92784 -1.0745,5.09916 -4.2951,5.09916 -2.4158,0 -4.2444,-1.78191 -4.2444,-4.12419 v -0.9261 h 2.4875 v 0.78175 c 0,0.90272 0.4882,1.77893 1.7569,1.77893 1.6834,0 1.8054,-0.99921 1.8054,-2.58514 0,-1.85427 -0.2192,-2.14819 -1.4393,-2.63619 l -1.7809,-0.73065 c -2.1471,-0.87836 -2.7097,-2.2947 -2.7097,-4.46619 0,-2.63508 1.4161,-4.75714 4.271,-4.75714 z M 1884.28,375.787 h 4.3483 c 1.1076,0 2.0788,0.39023 2.8606,1.23705 0.7757,0.77581 1.1659,1.74782 1.1659,2.92044 v 1.55017 c 0,1.62865 -0.6524,2.86127 -2.0143,3.70224 l 2.6005,7.91301 h -2.6005 l -2.3319,-7.3911 h -1.5592 v 7.3911 h -2.4694 z m 10.7132,0 h 7.398 v 2.27416 h -4.9328 v 5.12803 h 4.3462 v 2.33416 h -4.3462 v 5.12803 h 4.9328 v 2.45853 h -7.398 z m 18.7624,0 h 8.3749 v 2.33858 h -2.9917 v 14.98433 h -2.463 v -14.98433 h -2.9202 z m 17.2049,0 h 2.1432 l 3.8911,17.32291 h -2.6585 l -0.7173,-3.6911 h -3.1846 l -0.7108,3.6911 h -2.6607 z m 7.398,0 h 4.3527 c 1.1015,0 2.0723,0.39023 2.8541,1.23705 0.7757,0.77581 1.1659,1.74782 1.1659,2.92044 v 1.55017 c 0,1.62865 -0.6455,2.86127 -2.0078,3.70224 l 2.594,7.91301 h -2.594 l -2.3384,-7.3911 h -1.5571 v 7.3911 h -2.4694 z m 10.7068,0 h 7.4023 v 2.27416 h -4.926 v 5.12803 h 4.3463 v 2.33416 h -4.3463 v 5.12803 h 4.926 v 2.45853 h -7.4023 z m 12.2127,0 h 2.1433 l 3.8906,17.32291 h -2.6581 l -0.7177,-3.6911 h -3.1803 l -0.7104,3.6911 h -2.6009 z m -74.5286,2.33858 v 5.38345 h 1.7479 c 0.5213,0 0.9128,-0.18953 1.3034,-0.51525 0.129,-0.19555 0.2536,-0.4568 0.3181,-0.64629 0.064,-0.26645 0.064,-0.52711 0.064,-0.85283 v -1.55017 c 0,-0.58633 -0.1289,-1.04382 -0.4508,-1.36361 -0.2621,-0.32576 -0.7155,-0.4553 -1.2369,-0.4553 z m 54.0785,0 v 5.38345 h 1.7522 c 0.5213,0 0.9064,-0.18953 1.297,-0.51525 0.129,-0.19555 0.2622,-0.4568 0.3267,-0.64629 0.064,-0.26645 0.064,-0.52711 0.064,-0.85283 v -1.55017 c 0,-0.58633 -0.1289,-1.04382 -0.4551,-1.36361 -0.2622,-0.32576 -0.7117,-0.4553 -1.2326,-0.4553 z m -8.83,2.65842 -1.1728,6.28956 h 2.3452 z m 30.3816,0 -1.1681,6.28956 h 2.3341 z" />
    <path
       d="m 1856.7662,444.64264 c -0.8763,0 -1.5815,0.70534 -1.5815,1.58163 v 2.24111 h -1.4505 c -1.0224,0 -1.845,0.82297 -1.845,1.8453 v 0.84333 l -4.0995,2.41203 c -0.245,0.18265 -0.5553,0.26087 -0.6593,0.64646 l -0.5931,2.02992 0.3696,0.11002 c -1.1371,3.98102 -2.7303,9.77477 -2.9031,13.87759 -0.06,1.36743 -0.043,3.46947 0.3224,5.29074 0.1805,0.91059 0.437,1.75405 0.8552,2.41749 0.4169,0.66339 1.065,1.16802 1.8738,1.17369 0.7835,0.004 1.4857,-0.33823 2.0285,-0.88287 0.5428,-0.54452 0.9528,-1.28191 1.2717,-2.14226 0.6382,-1.72075 0.9111,-3.95168 0.8707,-6.21715 -0.095,-5.13878 -0.3137,-7.38234 -0.6928,-9.83004 -0.1934,-1.26334 -0.4126,-2.19362 -0.4968,-2.81872 -0.043,-0.31244 -0.043,-0.54455 0,-0.68526 0.043,-0.14053 0.056,-0.18609 0.1289,-0.2497 v -0.003 l 0.047,-0.043 0.073,0.0696 0.7908,-0.33392 0.7117,0.26344 0.116,0.31588 v 24.46518 h -8.8313 v 3.16339 h 36.9085 v -3.16339 h -8.8317 v -30.71288 c 0,-1.02238 -0.823,-1.8453 -1.845,-1.8453 h -1.4505 v -2.24111 c 0,-0.87629 -0.7052,-1.58167 -1.5815,-1.58167 z m 0.5265,5.7995 h 8.4363 v 2.90046 h -8.4363 z m -7.6568,3.75536 c 0.3267,-0.0258 0.5149,0.32447 0.2364,0.60825 l -0.5131,0.64581 0.09,0.0842 c -0.2363,0.21704 -0.3911,0.51762 -0.4431,0.82017 -0.056,0.31545 -0.043,0.63705 0,0.99857 0.095,0.72313 0.3095,1.62065 0.499,2.84257 0.3739,2.41486 0.5879,4.57561 0.6799,9.6904 0.043,2.16865 -0.2364,4.30696 -0.8058,5.84184 -0.2837,0.76739 -0.6408,1.38105 -1.0349,1.77648 -0.3954,0.39539 -0.7989,0.58285 -1.2928,0.57924 -0.4125,-0.003 -0.7061,-0.21015 -1.0116,-0.6948 -0.3052,-0.48534 -0.5506,-1.22785 -0.716,-2.0674 -0.3309,-1.67893 -0.361,-3.73924 -0.3052,-5.04882 0.1634,-3.86895 1.7294,-9.65044 2.8623,-13.62704 l 0.4126,0.12249 0.2621,-0.98095 c 0.2751,-1.18233 0.7418,-1.57007 1.0684,-1.59121 z m 7.6568,0.33092 h 8.4363 v 5.14088 h -8.4363 z"
       style="opacity:1;fill:#000000;fill-opacity:1;fill-rule:nonzero;stroke:none;stroke-width:1.44069;stroke-linecap:square;stroke-linejoin:round;stroke-miterlimit:4;stroke-dasharray:none;stroke-opacity:1;paint-order:stroke fill markers"
       id="rect1732-5-7" />
  </g>
</svg>
