<?xml version="1.0" encoding="utf-8"?>
<svg viewBox="0 0 323.14914 200" xmlns="http://www.w3.org/2000/svg">
  <g id="layer1" transform="matrix(0.9999999999999999, 0, 0, 0.9999999999999999, -303.4596862792969, -22.960700988769517)">
    <path id="rect15575" style="opacity:1;fill:#0a9646;fill-opacity:1;fill-rule:evenodd;stroke-width:0.0420687;stroke-linecap:square;stroke-miterlimit:10;paint-order:stroke fill markers" d="M 303.45966,22.960701 H 626.6088 V 222.9607 H 303.45966 Z"/>
    <path transform="matrix(0.26458333,0,0,0.26458333,303.45966,22.960701)" d="m 30.353516,5.0117188 c -13.808655,0 -25.0781254,11.2674112 -25.0781254,25.0761722 v 332.957029 47.1211 49.04296 13.88672 252.45508 c 0,13.80862 11.2694704,25.06641 25.0781254,25.06641 H 1190.9805 c 13.8086,0 25.0781,-11.25779 25.0781,-25.06641 V 473.0957 459.57031 401.94727 363.04492 30.087891 c 0,-13.808761 -11.2695,-25.0761722 -25.0781,-25.0761722 z m 0,9.4511722 H 1190.9805 c 8.7398,0 15.6425,6.885058 15.6425,15.625 v 332.957029 38.90235 c 0,0.29959 -0.013,0.61475 -0.037,0.9375 v 7.20703 c 0,8.68754 -6.9941,15.68164 -15.6816,15.68164 h -8.0762 c -0.1869,0.007 -0.3766,0.0176 -0.5586,0.0176 H 38.023438 c -0.18105,0 -0.371847,-0.0102 -0.560547,-0.0176 h -7.097657 c -8.687546,0 -15.68164,-6.9941 -15.68164,-15.68164 V 30.152344 c 0,-1.658433 0.257595,-3.253829 0.730468,-4.751953 0.01365,-0.04461 0.03284,-0.08643 0.04688,-0.13086 1.99686,-6.321925 7.84094,-10.80664 14.892578,-10.80664 z M 30.28125,435.30469 h 6.958984 1145.628866 8.1172 c 8.6414,0 15.5996,6.95633 15.5996,15.59765 v 7.5918 c 0.024,0.37296 0.037,0.7339 0.037,1.07617 v 13.52539 252.45508 c 0,5.47634 -2.7106,10.22208 -6.8847,13.00391 -2.4923,1.6862 -5.5034,2.66992 -8.752,2.66992 H 30.28125 c -8.641361,0 -15.597656,-6.9563 -15.597656,-15.59766 V 450.90234 c 0,-8.64132 6.956295,-15.59765 15.597656,-15.59765 z" style="color:#000000;font-style:normal;font-variant:normal;font-weight:normal;font-stretch:normal;font-size:medium;line-height:normal;font-family:sans-serif;font-variant-ligatures:normal;font-variant-position:normal;font-variant-caps:normal;font-variant-numeric:normal;font-variant-alternates:normal;font-variant-east-asian:normal;font-feature-settings:normal;font-variation-settings:normal;text-indent:0;text-align:start;text-decoration:none;text-decoration-line:none;text-decoration-style:solid;text-decoration-color:#000000;letter-spacing:normal;word-spacing:normal;text-transform:none;writing-mode:lr-tb;direction:ltr;text-orientation:mixed;dominant-baseline:auto;baseline-shift:baseline;text-anchor:start;white-space:normal;shape-padding:0;shape-margin:0;inline-size:0;clip-rule:nonzero;display:inline;overflow:visible;visibility:visible;opacity:1;isolation:auto;mix-blend-mode:normal;color-interpolation:sRGB;color-interpolation-filters:linearRGB;solid-color:#000000;solid-opacity:1;vector-effect:none;fill:#ffffff;fill-opacity:1;fill-rule:evenodd;stroke:none;stroke-width:2.09199;stroke-linecap:square;stroke-linejoin:miter;stroke-miterlimit:10;stroke-dasharray:none;stroke-dashoffset:0;stroke-opacity:1;paint-order:stroke fill markers;color-rendering:auto;image-rendering:auto;shape-rendering:auto;text-rendering:auto;enable-background:accumulate;stop-color:#000000;stop-opacity:1" id="path15582"/>
    <path d="m 324.12038,67.193614 h 60.89334 v 27.821331 h -60.89334 z" style="opacity:1;fill:#ffd70f;fill-opacity:1;fill-rule:evenodd;stroke:none;stroke-width:0.553508;stroke-linecap:square;stroke-miterlimit:10;stroke-dasharray:none;stroke-opacity:1;paint-order:stroke fill markers" id="rect15605"/>
    <path id="path15631" d="m 326.18273,67.759747 c -0.81115,0 -1.47443,0.660164 -1.47443,1.471307 v 23.746432 c 0,0.811142 0.66328,1.471323 1.47443,1.471323 h 56.7905 c 0.81117,0 1.4744,-0.660181 1.4744,-1.471323 V 69.231054 c 0,-0.811143 -0.66328,-1.471307 -1.4744,-1.471307 z m 0,0.535017 h 56.7905 c 0.52266,0 0.93627,0.413622 0.93627,0.93629 v 23.746432 c 0,0.522654 -0.41353,0.933189 -0.93627,0.933189 h -56.7905 c -0.52266,0 -0.93628,-0.410555 -0.93628,-0.933189 V 69.231054 c 0,-0.522672 0.41354,-0.93629 0.93628,-0.93629 z" style="color:#000000;font-style:normal;font-variant:normal;font-weight:normal;font-stretch:normal;font-size:medium;line-height:normal;font-family:sans-serif;font-variant-ligatures:normal;font-variant-position:normal;font-variant-caps:normal;font-variant-numeric:normal;font-variant-alternates:normal;font-variant-east-asian:normal;font-feature-settings:normal;font-variation-settings:normal;text-indent:0;text-align:start;text-decoration:none;text-decoration-line:none;text-decoration-style:solid;text-decoration-color:#000000;letter-spacing:normal;word-spacing:normal;text-transform:none;writing-mode:lr-tb;direction:ltr;text-orientation:mixed;dominant-baseline:auto;baseline-shift:baseline;text-anchor:start;white-space:normal;shape-padding:0;shape-margin:0;inline-size:0;clip-rule:nonzero;display:inline;overflow:visible;visibility:visible;opacity:1;isolation:auto;mix-blend-mode:normal;color-interpolation:sRGB;color-interpolation-filters:linearRGB;solid-color:#000000;solid-opacity:1;vector-effect:none;fill:#000000;fill-opacity:1;fill-rule:evenodd;stroke:none;stroke-width:0.119062;stroke-linecap:square;stroke-linejoin:miter;stroke-miterlimit:10;stroke-dasharray:none;stroke-dashoffset:0;stroke-opacity:1;paint-order:stroke fill markers;color-rendering:auto;image-rendering:auto;shape-rendering:auto;text-rendering:auto;enable-background:accumulate;stop-color:#000000;stop-opacity:1"/>
    <path id="path17496" style="font-size:15.1831px;line-height:1.46;font-family:'Singapore Road Signs';-inkscape-font-specification:'Singapore Road Signs';text-align:center;text-anchor:middle;opacity:1;fill:#ffffff;fill-opacity:1;stroke-width:0.0756548" d="m 570.47468,59.120043 v 50.614317 h 35.43541 V 59.120043 Z m 1.38203,1.660034 h 32.65274 v 47.566083 h -32.65274 z m 13.66823,3.646909 -2.23483,8.869719 h 3.92184 l 0.28216,-8.869719 z m 3.35329,0 0.28216,8.869719 h 3.92385 l -2.23686,-8.869719 z m -15.90932,9.992316 v 1.942234 l 3.06692,1.10806 v 0.584703 h 1.411 v -0.584703 c 0,0 2.08662,-0.313671 4.52568,-0.535349 1.95306,-0.177516 4.1317,-0.271988 5.64407,-0.278037 1.79866,-0.0063 4.45804,0.09363 6.73975,0.288436 2.51319,0.214479 4.5713,0.524984 4.5713,0.524984 v 0.5847 h 1.38199 v -0.5847 l 3.06685,-1.108064 v -1.942233 z m 9.21108,3.620663 -6.70448,26.681115 h 10.04943 l 1.39442,-26.681115 z m 7.25642,0 1.39441,26.681115 h 10.0494 l -6.70443,-26.681115 z"/>
    <g style="font-size:14.7905px;line-height:0;font-family:'Singapore Road Signs';-inkscape-font-specification:'Singapore Road Signs';text-align:center;text-anchor:middle;opacity:1;fill:#860000;fill-opacity:1;stroke-width:6.45213" id="layer1-8" transform="matrix(0.08718024,0,0,0.08718024,-145.22047,195.49013)">
      <circle style="opacity:1;fill:#f00a0a;fill-opacity:1;fill-rule:nonzero;stroke:none;stroke-width:3622.55;stroke-linecap:round;stroke-linejoin:round;stroke-miterlimit:4;stroke-dasharray:none;stroke-opacity:1;paint-order:stroke fill markers" id="path815" cx="6380.9966" cy="-193.29752" r="350"/>
      <circle cy="-193.29752" cx="6380.9966" id="circle817" style="opacity:1;fill:#ffffff;fill-opacity:1;fill-rule:nonzero;stroke:none;stroke-width:2587.55;stroke-linecap:round;stroke-linejoin:round;stroke-miterlimit:4;stroke-dasharray:none;stroke-opacity:1;paint-order:stroke fill markers" r="263.821"/>
      <g aria-label="20 " style="font-style:normal;font-variant:normal;font-weight:bold;font-stretch:normal;font-size:414.864px;line-height:0;font-family:Giaothong1;-inkscape-font-specification:'Giaothong1 Bold';letter-spacing:0px;word-spacing:0px;fill:#000000;fill-opacity:1;stroke:none;stroke-width:24.7849" id="text874" transform="matrix(-1,0,0,1,1299.029,-383.45)">
        <g aria-label="90" transform="translate(2310.2259,387.54849)" style="font-style:normal;font-variant:normal;font-weight:bold;font-stretch:normal;font-size:414.864px;line-height:0;font-family:Giaothong1;-inkscape-font-specification:'Giaothong1 Bold';letter-spacing:0px;word-spacing:0px;fill:#000000;fill-opacity:1;stroke:none;stroke-width:53.5539" id="text844"/>
      </g>
    </g>
    <g style="font-size:14.7905px;line-height:0;font-family:'Singapore Road Signs';-inkscape-font-specification:'Singapore Road Signs';text-align:center;text-anchor:middle;opacity:1;fill:#fff000;fill-opacity:1;stroke-width:6.45221" id="layer1-7" transform="matrix(0.08717968,0,0,0.08717968,488.77841,183.34565)">
      <circle cy="-54" cx="351" id="circle817-6" style="opacity:1;fill:#0046aa;fill-opacity:1;fill-rule:nonzero;stroke:none;stroke-width:3622.58;stroke-linecap:round;stroke-linejoin:round;stroke-miterlimit:4;stroke-dasharray:none;stroke-opacity:1;paint-order:stroke fill markers" r="350"/>
      <path id="rect984" style="font-style: normal; font-variant: normal; font-weight: bold; font-stretch: normal; font-size: 414.864px; line-height: 0; font-family: Giaothong1; letter-spacing: 0px; word-spacing: 0px; opacity: 1; fill: rgb(255, 255, 255); fill-opacity: 1; fill-rule: nonzero; stroke: none; stroke-width: 0.344279; stroke-linecap: round; stroke-linejoin: miter; stroke-miterlimit: 10; stroke-dasharray: none; stroke-opacity: 1; paint-order: stroke; visibility: hidden;" d="m 851.18164,518.03906 c -16.32678,0 -29.4707,13.14393 -29.4707,29.47071 v 80.94921 c 0,16.32678 13.14392,29.47071 29.4707,29.47071 16.32678,0 29.4707,-13.14393 29.4707,-29.47071 v -80.94921 c 0,-16.32678 -13.14392,-29.47071 -29.4707,-29.47071 z m -69.94336,1.23828 -26.10937,69.75391 c -2.72781,7.40406 -3.70118,11.30112 -3.70118,28.44727 0,18.12042 0.7789,22.01697 4.67579,28.25195 5.26075,8.37828 14.22308,13.44336 24.93945,13.44336 10.91123,0 20.0688,-4.87023 25.13476,-13.44336 3.70197,-6.23498 4.48047,-10.13153 4.48047,-28.25195 0,-22.01726 -0.77798,-26.88814 -4.28515,-32.34375 -3.31232,-5.06591 -9.74347,-8.96289 -16.75782,-8.96289 -4.28653,0 -7.01308,0.77773 -8.37695,1.75195 l -0.39062,-0.38867 22.60156,-58.25782 z m 69.94336,18.74024 c 5.25853,0 9.49219,4.23365 9.49219,9.49219 v 80.94921 c 0,5.25853 -4.23366,9.49219 -9.49219,9.49219 -5.25853,0 -9.49219,-4.23366 -9.49219,-9.49219 v -80.94921 c 0,-5.25854 4.23366,-9.49219 9.49219,-9.49219 z m -70.13867,55.68945 c 5.0659,0 9.74219,3.89738 9.74219,9.9375 v 25.71875 c 0,6.04012 -4.67629,9.9375 -9.74219,9.9375 -5.0659,0 -9.74219,-3.89738 -9.74219,-9.9375 v -25.71875 c 0,-6.04012 4.67629,-9.9375 9.74219,-9.9375 z" transform="matrix(3.0349198,0,0,3.0349198,-2125.7104,-1839.7056)"/>
    </g>
    <g aria-label="6" id="text19759" style="font-size:31.1478px;line-height:1.3;font-family:'Singapore Road Signs';-inkscape-font-specification:'Singapore Road Signs';text-align:center;text-anchor:middle;stroke-width:0.159861" transform="matrix(1.6550836,0,0,1.6550836,-321.31659,-238.56049)"/>
    <path d="M 374.933 46.797 Q 374.854 46.797 374.836 46.726 L 370.679 34.132 Q 370.662 34.079 370.688 34.035 Q 370.714 33.991 370.776 33.991 L 372.789 33.991 Q 372.868 33.991 372.885 34.07 L 375.671 43.395 Q 376.375 41.058 377.073 38.733 Q 377.772 36.408 378.466 34.07 Q 378.484 33.991 378.563 33.991 L 380.576 33.991 Q 380.637 33.991 380.664 34.035 Q 380.69 34.079 380.672 34.132 L 376.515 46.726 Q 376.498 46.797 376.418 46.797 Z M 380.837 46.788 Q 380.775 46.788 380.749 46.744 Q 380.723 46.7 380.74 46.647 L 385.346 34.044 Q 385.363 33.974 385.434 33.974 L 387.007 33.974 Q 387.033 33.974 387.064 33.996 Q 387.095 34.017 387.104 34.044 L 391.7 46.647 Q 391.718 46.7 391.691 46.744 Q 391.665 46.788 391.612 46.788 L 389.6 46.788 Q 389.529 46.788 389.512 46.718 L 388.563 43.94 L 383.922 43.94 Q 383.676 44.652 383.434 45.333 Q 383.192 46.015 382.946 46.718 Q 382.938 46.744 382.907 46.766 Q 382.876 46.788 382.85 46.788 Z M 387.93 42.051 Q 387.912 41.989 387.881 41.919 Q 387.851 41.849 387.833 41.796 Q 387.684 41.365 387.561 41 Q 387.438 40.636 387.341 40.363 Q 387.279 40.187 387.222 40.02 Q 387.165 39.853 387.112 39.704 Q 387.068 39.563 387.024 39.436 Q 386.98 39.309 386.937 39.185 Q 386.857 38.931 386.774 38.676 Q 386.69 38.421 386.603 38.148 Q 386.559 38.025 386.51 37.876 Q 386.462 37.726 386.409 37.559 Q 386.383 37.472 386.37 37.423 Q 386.356 37.375 386.339 37.327 Q 386.321 37.278 386.299 37.217 Q 386.277 37.155 386.242 37.041 Q 386.146 37.331 386.062 37.577 Q 385.979 37.823 385.908 38.034 Q 385.891 38.087 385.882 38.131 Q 385.873 38.175 385.855 38.219 Q 385.812 38.368 385.763 38.5 Q 385.715 38.632 385.671 38.764 Q 385.627 38.904 385.583 39.036 Q 385.539 39.168 385.495 39.291 Q 385.407 39.555 385.315 39.845 Q 385.223 40.135 385.108 40.451 Q 384.994 40.767 384.871 41.132 Q 384.748 41.497 384.555 42.051 Z M 385.372 50.26 Q 385.275 50.26 385.275 50.163 L 385.275 48.467 Q 385.275 48.37 385.372 48.37 L 387.077 48.37 Q 387.165 48.37 387.165 48.467 L 387.165 50.163 Q 387.165 50.26 387.077 50.26 Z M 393.291 46.797 Q 393.185 46.797 393.185 46.691 L 393.185 34.097 Q 393.185 33.991 393.291 33.991 L 395.101 33.991 Q 395.154 33.991 395.189 34.044 L 400.726 42.763 L 400.726 34.097 Q 400.726 33.991 400.832 33.991 L 402.748 33.991 Q 402.853 33.991 402.853 34.097 L 402.853 46.691 Q 402.853 46.797 402.748 46.797 L 400.946 46.797 Q 400.893 46.797 400.858 46.744 L 395.303 38.025 L 395.303 46.691 Q 395.303 46.797 395.207 46.797 Z M 409.912 46.797 Q 409.807 46.797 409.807 46.691 L 409.807 34.097 Q 409.807 33.991 409.912 33.991 L 411.723 33.991 Q 411.776 33.991 411.811 34.044 L 417.348 42.763 L 417.348 34.097 Q 417.348 33.991 417.453 33.991 L 419.369 33.991 Q 419.475 33.991 419.475 34.097 L 419.475 46.691 Q 419.475 46.797 419.369 46.797 L 417.568 46.797 Q 417.515 46.797 417.48 46.744 L 411.925 38.025 L 411.925 46.691 Q 411.925 46.797 411.828 46.797 Z M 422.19 46.797 Q 422.084 46.797 422.084 46.691 L 422.084 34.097 Q 422.084 33.991 422.19 33.991 L 424.097 33.991 Q 424.203 33.991 424.203 34.097 L 424.203 46.691 Q 424.203 46.797 424.097 46.797 Z M 426.855 46.797 Q 426.75 46.797 426.75 46.691 L 426.75 34.097 Q 426.75 33.991 426.855 33.991 L 428.666 33.991 Q 428.718 33.991 428.753 34.044 L 434.291 42.763 L 434.291 34.097 Q 434.291 33.991 434.396 33.991 L 436.312 33.991 Q 436.417 33.991 436.417 34.097 L 436.417 46.691 Q 436.417 46.797 436.312 46.797 L 434.51 46.797 Q 434.458 46.797 434.422 46.744 L 428.868 38.025 L 428.868 46.691 Q 428.868 46.797 428.771 46.797 Z M 446.067 46.797 Q 445.962 46.797 445.962 46.691 L 445.962 41.295 L 441.172 41.295 L 441.172 46.691 Q 441.172 46.797 441.066 46.797 L 439.159 46.797 Q 439.053 46.797 439.053 46.691 L 439.053 34.097 Q 439.053 33.991 439.159 33.991 L 441.066 33.991 Q 441.172 33.991 441.172 34.097 L 441.172 39.388 L 445.962 39.388 L 445.962 34.097 Q 445.962 33.991 446.067 33.991 L 447.974 33.991 Q 448.08 33.991 448.08 34.097 L 448.08 46.691 Q 448.08 46.797 447.974 46.797 Z" transform="matrix(1.310387, 0, 0, 1.310387, -59.698296, -1.169035)" style="fill: rgb(255, 255, 255); text-wrap-mode: nowrap;"/>
    <path transform="matrix(1.310387, 0, 0, 1.310387, -59.698296, -1.169035)" style="fill: rgb(255, 255, 255); text-wrap-mode: nowrap;"/>
    <path d="M 390.012 68.63 Q 390.065 68.63 390.1 68.67 Q 390.135 68.709 390.117 68.762 Q 389.748 70.555 388.483 71.522 Q 387.867 71.988 387.147 72.225 Q 386.426 72.462 385.591 72.462 Q 384.07 72.462 383.033 71.733 Q 382.014 71.012 381.557 70.151 Q 381.399 69.852 381.284 69.549 Q 381.17 69.245 381.108 68.911 Q 380.994 68.261 380.994 65.958 Q 380.994 64.807 381.021 64.077 Q 381.047 63.348 381.108 63.014 Q 381.17 62.68 381.284 62.372 Q 381.399 62.065 381.557 61.766 Q 382.014 60.913 383.033 60.184 Q 384.062 59.446 385.591 59.446 Q 387.419 59.446 388.614 60.571 Q 389.827 61.704 390.117 63.26 Q 390.135 63.313 390.1 63.348 Q 390.065 63.383 390.012 63.383 L 387.999 63.383 Q 387.92 63.383 387.902 63.313 Q 387.788 62.961 387.577 62.658 Q 387.366 62.355 387.059 62.091 Q 386.479 61.573 385.591 61.573 Q 384.932 61.573 384.466 61.836 Q 384 62.1 383.719 62.443 Q 383.552 62.654 383.429 62.922 Q 383.306 63.19 383.235 63.471 Q 383.165 63.77 383.139 64.394 Q 383.112 65.018 383.112 65.958 Q 383.112 66.916 383.139 67.536 Q 383.165 68.156 383.235 68.454 Q 383.306 68.727 383.433 68.995 Q 383.561 69.263 383.719 69.465 Q 384 69.834 384.466 70.094 Q 384.932 70.353 385.591 70.353 Q 387.111 70.353 387.902 68.692 Q 387.92 68.674 387.946 68.652 Q 387.973 68.63 387.999 68.63 Z M 390.123 72.348 Q 390.061 72.348 390.035 72.304 Q 390.009 72.26 390.026 72.207 L 394.632 59.604 Q 394.649 59.534 394.719 59.534 L 396.293 59.534 Q 396.319 59.534 396.35 59.556 Q 396.381 59.577 396.389 59.604 L 400.986 72.207 Q 401.004 72.26 400.977 72.304 Q 400.951 72.348 400.898 72.348 L 398.885 72.348 Q 398.815 72.348 398.798 72.278 L 397.848 69.5 L 393.208 69.5 Q 392.962 70.212 392.72 70.893 Q 392.478 71.575 392.232 72.278 Q 392.223 72.304 392.193 72.326 Q 392.162 72.348 392.135 72.348 Z M 397.216 67.611 Q 397.198 67.549 397.167 67.479 Q 397.136 67.409 397.119 67.356 Q 396.969 66.925 396.846 66.56 Q 396.723 66.196 396.627 65.923 Q 396.565 65.747 396.508 65.58 Q 396.451 65.413 396.398 65.264 Q 396.354 65.123 396.31 64.996 Q 396.266 64.869 396.222 64.745 Q 396.143 64.491 396.06 64.236 Q 395.976 63.981 395.888 63.708 Q 395.844 63.585 395.796 63.436 Q 395.748 63.286 395.695 63.119 Q 395.669 63.032 395.656 62.983 Q 395.642 62.935 395.625 62.887 Q 395.607 62.838 395.585 62.777 Q 395.563 62.715 395.528 62.601 Q 395.431 62.891 395.348 63.137 Q 395.264 63.383 395.194 63.594 Q 395.177 63.647 395.168 63.691 Q 395.159 63.735 395.141 63.779 Q 395.097 63.928 395.049 64.06 Q 395.001 64.192 394.957 64.324 Q 394.913 64.464 394.869 64.596 Q 394.825 64.728 394.781 64.851 Q 394.693 65.115 394.601 65.405 Q 394.509 65.695 394.394 66.011 Q 394.28 66.327 394.157 66.692 Q 394.034 67.057 393.841 67.611 Z M 402.43 72.357 Q 402.324 72.357 402.324 72.251 L 402.324 59.657 Q 402.324 59.551 402.43 59.551 L 404.232 59.551 Q 404.293 59.551 404.328 59.613 L 407.853 67.602 Q 408.705 65.589 409.566 63.607 Q 410.428 61.625 411.289 59.613 Q 411.316 59.551 411.386 59.551 L 413.188 59.551 Q 413.293 59.551 413.293 59.657 L 413.293 72.251 Q 413.293 72.357 413.188 72.357 L 411.28 72.357 Q 411.175 72.357 411.175 72.251 L 411.175 64.816 Q 410.56 66.248 409.936 67.663 Q 409.312 69.078 408.705 70.502 Q 408.67 70.555 408.608 70.555 L 407.018 70.555 Q 406.956 70.555 406.921 70.502 L 404.442 64.798 L 404.442 72.251 Q 404.442 72.357 404.337 72.357 Z M 420.374 72.357 Q 420.268 72.357 420.268 72.251 L 420.268 59.657 Q 420.268 59.551 420.374 59.551 L 422.281 59.551 Q 422.386 59.551 422.386 59.657 L 422.386 70.353 L 428.424 70.353 Q 428.53 70.353 428.53 70.458 L 428.53 72.251 Q 428.53 72.357 428.424 72.357 Z M 431.449 58.417 Q 431.369 58.417 431.347 58.351 Q 431.326 58.285 431.387 58.242 L 433.971 56.194 L 435.149 56.194 L 437.768 58.242 Q 437.829 58.285 437.807 58.351 Q 437.785 58.417 437.715 58.417 L 436.23 58.417 L 434.481 57.477 Q 434.094 57.714 433.699 57.952 Q 433.303 58.189 432.916 58.417 Z M 429.893 65.853 Q 429.893 64.702 429.924 63.972 Q 429.954 63.243 430.007 62.909 Q 430.069 62.575 430.183 62.267 Q 430.297 61.959 430.464 61.66 L 430.455 61.66 Q 430.912 60.808 431.932 60.078 Q 432.96 59.34 434.49 59.34 Q 436.001 59.34 437.03 60.078 Q 438.067 60.826 438.524 61.66 Q 438.849 62.258 438.963 62.909 Q 439.025 63.243 439.055 63.972 Q 439.086 64.702 439.086 65.853 Q 439.086 68.112 438.963 68.806 Q 438.902 69.149 438.792 69.456 Q 438.682 69.764 438.533 70.045 Q 438.067 70.889 437.03 71.627 Q 435.992 72.357 434.49 72.357 Q 432.969 72.357 431.932 71.627 Q 430.912 70.907 430.455 70.045 L 430.464 70.045 Q 430.297 69.746 430.183 69.443 Q 430.069 69.14 430.007 68.806 Q 429.954 68.472 429.924 67.738 Q 429.893 67.004 429.893 65.853 Z M 432.011 65.853 Q 432.011 66.811 432.037 67.431 Q 432.064 68.05 432.134 68.349 Q 432.204 68.621 432.332 68.89 Q 432.459 69.158 432.617 69.36 Q 432.899 69.729 433.365 69.988 Q 433.83 70.247 434.49 70.247 Q 435.14 70.247 435.606 69.988 Q 436.072 69.729 436.344 69.36 Q 436.713 68.911 436.827 68.349 Q 436.968 67.786 436.968 65.853 Q 436.968 64.895 436.933 64.275 Q 436.898 63.656 436.827 63.366 Q 436.766 63.084 436.643 62.816 Q 436.52 62.548 436.353 62.337 Q 436.221 62.17 436.032 62.012 Q 435.843 61.854 435.606 61.735 Q 435.368 61.617 435.087 61.542 Q 434.806 61.467 434.49 61.467 Q 433.83 61.467 433.365 61.731 Q 432.899 61.994 432.617 62.337 Q 432.451 62.548 432.327 62.816 Q 432.204 63.084 432.134 63.366 Q 432.064 63.664 432.037 64.288 Q 432.011 64.912 432.011 65.853 Z M 433.602 75.82 Q 433.505 75.82 433.505 75.723 L 433.505 74.027 Q 433.505 73.93 433.602 73.93 L 435.307 73.93 Q 435.395 73.93 435.395 74.027 L 435.395 75.723 Q 435.395 75.82 435.307 75.82 Z" transform="matrix(1.310387, 0, 0, 1.310387, -59.698296, -1.169035)" style="fill: rgb(255, 255, 255); text-wrap-mode: nowrap;"/>
    <path d="M 426.152 119.118 Q 426.045 119.118 426.045 119.011 L 426.045 106.277 Q 426.045 106.17 426.152 106.17 L 434.292 106.17 Q 434.399 106.17 434.399 106.277 L 434.399 108.107 Q 434.399 108.214 434.292 108.214 L 428.187 108.214 L 428.187 111.626 L 433.377 111.626 Q 433.484 111.626 433.484 111.733 L 433.484 113.457 Q 433.484 113.555 433.377 113.555 L 428.187 113.555 L 428.187 117.092 L 434.292 117.092 Q 434.399 117.092 434.399 117.198 L 434.399 119.011 Q 434.399 119.118 434.292 119.118 Z M 442.571 119.118 Q 442.517 119.118 442.482 119.065 L 439.78 114.479 Q 439.105 115.634 438.429 116.772 Q 437.754 117.909 437.079 119.065 Q 437.043 119.118 436.99 119.118 L 434.813 119.118 Q 434.741 119.118 434.715 119.069 Q 434.688 119.02 434.724 118.958 L 438.589 112.48 Q 437.674 110.933 436.776 109.405 Q 435.879 107.876 434.972 106.33 Q 434.937 106.268 434.964 106.219 Q 434.99 106.17 435.052 106.17 L 437.239 106.17 Q 437.292 106.17 437.327 106.223 L 439.78 110.489 Q 440.393 109.422 441.007 108.361 Q 441.62 107.299 442.233 106.223 Q 442.268 106.17 442.322 106.17 L 444.508 106.17 Q 444.57 106.17 444.597 106.219 Q 444.623 106.268 444.588 106.33 L 440.971 112.48 Q 441.949 114.106 442.908 115.719 Q 443.868 117.332 444.846 118.958 Q 444.881 119.02 444.855 119.069 Q 444.828 119.118 444.757 119.118 Z M 448.15 108.214 L 448.15 112.106 L 450.914 112.106 Q 451.936 112.106 452.433 111.493 Q 452.94 110.898 452.94 110.16 Q 452.94 109.058 452.158 108.552 Q 451.651 108.214 450.843 108.214 Z M 446.115 119.118 Q 446.008 119.118 446.008 119.011 L 446.008 106.277 Q 446.008 106.17 446.115 106.17 L 450.736 106.17 Q 451.5 106.17 452.184 106.33 Q 452.878 106.49 453.66 107.094 Q 453.962 107.334 454.215 107.65 Q 454.468 107.965 454.673 108.347 Q 454.868 108.738 454.975 109.209 Q 455.081 109.68 455.081 110.213 Q 455.081 111.609 454.033 112.879 Q 452.984 114.141 450.985 114.141 L 448.15 114.141 L 448.15 119.011 Q 448.15 119.118 448.043 119.118 Z M 458.767 108.098 L 458.767 111.751 L 461.584 111.751 Q 462.615 111.751 463.13 111.182 Q 463.646 110.613 463.646 109.831 Q 463.646 109.387 463.49 109.04 Q 463.335 108.694 463.041 108.472 Q 462.784 108.294 462.441 108.196 Q 462.099 108.098 461.699 108.098 Z M 456.732 119.118 Q 456.625 119.118 456.625 119.011 L 456.625 106.277 Q 456.625 106.17 456.732 106.17 L 461.717 106.17 Q 462.544 106.17 463.21 106.397 Q 463.877 106.623 464.374 107.041 Q 464.632 107.281 464.868 107.587 Q 465.103 107.894 465.285 108.249 Q 465.467 108.605 465.574 109.005 Q 465.681 109.405 465.681 109.831 Q 465.681 110.462 465.503 111.027 Q 465.325 111.591 465.005 112.08 Q 464.676 112.533 464.241 112.875 Q 463.806 113.217 463.255 113.422 Q 463.974 114.799 464.703 116.19 Q 465.432 117.58 466.152 118.958 Q 466.178 119.02 466.152 119.069 Q 466.125 119.118 466.063 119.118 L 463.77 119.118 Q 463.743 119.118 463.717 119.096 Q 463.69 119.073 463.672 119.056 L 461.068 113.679 L 458.767 113.679 L 458.767 119.011 Q 458.767 119.118 458.66 119.118 Z M 467.661 119.118 Q 467.554 119.118 467.554 119.011 L 467.554 106.277 Q 467.554 106.17 467.661 106.17 L 475.801 106.17 Q 475.908 106.17 475.908 106.277 L 475.908 108.107 Q 475.908 108.214 475.801 108.214 L 469.696 108.214 L 469.696 111.626 L 474.886 111.626 Q 474.993 111.626 474.993 111.733 L 474.993 113.457 Q 474.993 113.555 474.886 113.555 L 469.696 113.555 L 469.696 117.092 L 475.801 117.092 Q 475.908 117.092 475.908 117.198 L 475.908 119.011 Q 475.908 119.118 475.801 119.118 Z M 477.686 115.848 Q 477.712 115.812 477.757 115.812 Q 477.801 115.812 477.837 115.839 Q 478.539 116.407 479.45 116.75 Q 480.36 117.092 481.374 117.092 Q 482.511 117.092 483.169 116.621 Q 483.791 116.167 483.791 115.421 Q 483.791 114.017 482.218 113.804 L 482.227 113.804 Q 482.005 113.777 481.805 113.75 Q 481.605 113.724 481.405 113.697 Q 481.205 113.67 480.996 113.639 Q 480.787 113.608 480.538 113.573 Q 479.703 113.457 479.05 113.15 Q 478.396 112.844 477.952 112.337 Q 477.508 111.822 477.286 111.213 Q 477.063 110.604 477.063 109.885 Q 477.063 108.196 478.183 107.139 Q 479.312 106.063 481.32 106.063 Q 481.916 106.063 482.48 106.165 Q 483.044 106.268 483.573 106.445 Q 484.102 106.623 484.586 106.868 Q 485.07 107.112 485.515 107.405 Q 485.604 107.467 485.541 107.556 L 484.466 109.147 Q 484.404 109.227 484.324 109.174 Q 483.631 108.738 482.849 108.476 Q 482.067 108.214 481.231 108.214 Q 480.805 108.214 480.44 108.316 Q 480.076 108.418 479.783 108.649 Q 479.205 109.067 479.205 109.92 Q 479.205 110.409 479.596 110.871 Q 479.792 111.084 480.121 111.231 Q 480.449 111.378 480.929 111.449 Q 481.187 111.493 481.534 111.542 Q 481.88 111.591 482.351 111.644 Q 484.173 111.866 485.053 112.986 Q 485.932 114.079 485.932 115.421 Q 485.932 117.216 484.679 118.229 Q 483.417 119.225 481.356 119.225 Q 478.45 119.225 476.415 117.447 Q 476.379 117.421 476.379 117.376 Q 476.379 117.332 476.406 117.296 Z M 487.955 115.848 Q 487.982 115.812 488.027 115.812 Q 488.071 115.812 488.107 115.839 Q 488.809 116.407 489.719 116.75 Q 490.63 117.092 491.643 117.092 Q 492.781 117.092 493.439 116.621 Q 494.061 116.167 494.061 115.421 Q 494.061 114.017 492.488 113.804 L 492.497 113.804 Q 492.274 113.777 492.074 113.75 Q 491.874 113.724 491.675 113.697 Q 491.475 113.67 491.266 113.639 Q 491.057 113.608 490.808 113.573 Q 489.973 113.457 489.32 113.15 Q 488.666 112.844 488.222 112.337 Q 487.778 111.822 487.556 111.213 Q 487.333 110.604 487.333 109.885 Q 487.333 108.196 488.453 107.139 Q 489.582 106.063 491.59 106.063 Q 492.186 106.063 492.75 106.165 Q 493.314 106.268 493.843 106.445 Q 494.372 106.623 494.856 106.868 Q 495.34 107.112 495.785 107.405 Q 495.873 107.467 495.811 107.556 L 494.736 109.147 Q 494.674 109.227 494.594 109.174 Q 493.901 108.738 493.119 108.476 Q 492.337 108.214 491.501 108.214 Q 491.075 108.214 490.71 108.316 Q 490.346 108.418 490.053 108.649 Q 489.475 109.067 489.475 109.92 Q 489.475 110.409 489.866 110.871 Q 490.062 111.084 490.39 111.231 Q 490.719 111.378 491.199 111.449 Q 491.457 111.493 491.803 111.542 Q 492.15 111.591 492.621 111.644 Q 494.443 111.866 495.323 112.986 Q 496.202 114.079 496.202 115.421 Q 496.202 117.216 494.949 118.229 Q 493.687 119.225 491.626 119.225 Q 488.72 119.225 486.685 117.447 Q 486.649 117.421 486.649 117.376 Q 486.649 117.332 486.676 117.296 Z M 500.211 119.118 Q 500.123 119.118 500.105 119.038 L 496.914 106.303 Q 496.897 106.25 496.932 106.21 Q 496.968 106.17 497.021 106.17 L 499.065 106.17 Q 499.154 106.17 499.172 106.25 L 501.091 114.95 Q 501.678 112.764 502.273 110.604 Q 502.869 108.445 503.464 106.25 Q 503.482 106.17 503.571 106.17 L 504.966 106.17 Q 505.046 106.17 505.064 106.25 L 507.445 114.95 Q 507.925 112.764 508.405 110.604 Q 508.885 108.445 509.365 106.25 Q 509.382 106.17 509.471 106.17 L 511.515 106.17 Q 511.569 106.17 511.604 106.21 Q 511.64 106.25 511.622 106.303 L 508.432 119.038 Q 508.414 119.118 508.325 119.118 L 506.716 119.118 Q 506.636 119.118 506.619 119.038 L 504.264 110.196 Q 503.677 112.426 503.091 114.621 Q 502.504 116.816 501.918 119.038 Q 501.9 119.118 501.82 119.118 Z M 511.536 119.109 Q 511.473 119.109 511.447 119.065 Q 511.42 119.02 511.438 118.967 L 516.095 106.223 Q 516.112 106.152 516.183 106.152 L 517.774 106.152 Q 517.801 106.152 517.832 106.174 Q 517.863 106.197 517.872 106.223 L 522.52 118.967 Q 522.537 119.02 522.511 119.065 Q 522.484 119.109 522.431 119.109 L 520.396 119.109 Q 520.325 119.109 520.307 119.038 L 519.347 116.23 L 514.655 116.23 Q 514.406 116.95 514.162 117.638 Q 513.917 118.327 513.668 119.038 Q 513.66 119.065 513.628 119.087 Q 513.597 119.109 513.571 119.109 Z M 518.707 114.319 Q 518.689 114.257 518.658 114.186 Q 518.627 114.115 518.609 114.061 Q 518.458 113.626 518.334 113.257 Q 518.21 112.888 518.112 112.613 Q 518.05 112.435 517.992 112.266 Q 517.934 112.097 517.881 111.946 Q 517.836 111.804 517.792 111.675 Q 517.747 111.546 517.703 111.422 Q 517.623 111.164 517.539 110.907 Q 517.454 110.649 517.365 110.373 Q 517.321 110.249 517.272 110.098 Q 517.223 109.947 517.17 109.778 Q 517.143 109.689 517.13 109.64 Q 517.117 109.591 517.099 109.542 Q 517.081 109.494 517.059 109.431 Q 517.037 109.369 517.001 109.254 Q 516.903 109.547 516.819 109.796 Q 516.734 110.045 516.663 110.258 Q 516.646 110.311 516.637 110.356 Q 516.628 110.4 516.61 110.444 Q 516.566 110.596 516.517 110.729 Q 516.468 110.862 516.423 110.995 Q 516.379 111.138 516.334 111.271 Q 516.29 111.404 516.246 111.529 Q 516.157 111.795 516.063 112.088 Q 515.97 112.382 515.855 112.702 Q 515.739 113.022 515.615 113.39 Q 515.49 113.759 515.295 114.319 Z M 525.5 119.118 Q 525.402 119.118 525.402 119.011 L 525.402 113.804 Q 524.443 111.929 523.492 110.062 Q 522.541 108.196 521.59 106.321 Q 521.563 106.259 521.59 106.214 Q 521.617 106.17 521.688 106.17 L 523.714 106.17 Q 523.741 106.17 523.767 106.192 Q 523.794 106.214 523.812 106.232 L 526.424 111.689 Q 527.082 110.311 527.726 108.96 Q 528.371 107.61 529.028 106.232 Q 529.046 106.214 529.073 106.192 Q 529.099 106.17 529.126 106.17 L 531.161 106.17 Q 531.232 106.17 531.259 106.214 Q 531.285 106.259 531.259 106.321 L 527.437 113.804 L 527.437 119.011 Q 527.437 119.118 527.331 119.118 Z" style="fill: rgb(255, 255, 255); text-wrap-mode: nowrap;"/>
    <path d="M 343.121 84.558 Q 343.193 84.558 343.241 84.612 Q 343.289 84.666 343.265 84.738 Q 342.76 87.189 341.031 88.51 Q 340.19 89.147 339.205 89.471 Q 338.22 89.795 337.079 89.795 Q 335.001 89.795 333.583 88.798 Q 332.19 87.813 331.565 86.636 Q 331.349 86.228 331.193 85.813 Q 331.037 85.399 330.953 84.942 Q 330.797 84.054 330.797 80.906 Q 330.797 79.333 330.833 78.336 Q 330.869 77.339 330.953 76.883 Q 331.037 76.426 331.193 76.006 Q 331.349 75.585 331.565 75.177 Q 332.19 74.012 333.583 73.015 Q 334.989 72.006 337.079 72.006 Q 339.577 72.006 341.211 73.543 Q 342.868 75.093 343.265 77.219 Q 343.289 77.291 343.241 77.339 Q 343.193 77.387 343.121 77.387 L 340.37 77.387 Q 340.262 77.387 340.238 77.291 Q 340.082 76.81 339.793 76.396 Q 339.505 75.982 339.085 75.621 Q 338.292 74.913 337.079 74.913 Q 336.178 74.913 335.541 75.273 Q 334.905 75.633 334.52 76.102 Q 334.292 76.39 334.124 76.756 Q 333.956 77.123 333.86 77.507 Q 333.763 77.916 333.727 78.768 Q 333.691 79.621 333.691 80.906 Q 333.691 82.216 333.727 83.063 Q 333.763 83.909 333.86 84.318 Q 333.956 84.69 334.13 85.057 Q 334.304 85.423 334.52 85.699 Q 334.905 86.204 335.541 86.558 Q 336.178 86.912 337.079 86.912 Q 339.157 86.912 340.238 84.642 Q 340.262 84.618 340.298 84.588 Q 340.334 84.558 340.37 84.558 Z M 348.151 89.651 Q 348.007 89.651 348.007 89.507 L 348.007 74.756 L 343.431 74.756 Q 343.287 74.756 343.287 74.612 L 343.287 72.294 Q 343.287 72.15 343.431 72.15 L 355.466 72.15 Q 355.611 72.15 355.611 72.294 L 355.611 74.612 Q 355.611 74.756 355.466 74.756 L 350.902 74.756 L 350.902 89.507 Q 350.902 89.651 350.758 89.651 Z M 355.977 89.651 Q 355.833 89.651 355.833 89.507 L 355.833 87.068 Q 355.833 86.924 355.977 86.924 L 358.427 86.924 Q 358.56 86.924 358.56 87.068 L 358.56 89.507 Q 358.56 89.651 358.427 89.651 Z M 366.926 77.327 Q 366.926 76.162 366.308 75.507 Q 365.689 74.853 364.656 74.853 Q 363.623 74.853 363.01 75.507 Q 362.398 76.162 362.398 77.327 L 362.398 84.594 Q 362.398 85.771 363.01 86.42 Q 363.623 87.068 364.656 87.068 Q 365.689 87.068 366.308 86.42 Q 366.926 85.771 366.926 84.594 Z M 359.659 77.183 Q 359.659 74.756 361.185 73.447 Q 362.698 72.114 364.656 72.114 Q 365.629 72.114 366.5 72.456 Q 367.371 72.799 368.127 73.447 Q 368.884 74.12 369.275 75.051 Q 369.665 75.982 369.665 77.183 L 369.665 84.738 Q 369.665 87.153 368.127 88.474 Q 366.614 89.795 364.656 89.795 Q 362.698 89.795 361.185 88.474 Q 359.659 87.165 359.659 84.738 Z M 374.696 89.687 Q 374.552 89.687 374.552 89.543 L 374.552 75.273 Q 373.999 75.681 373.447 76.096 Q 372.894 76.51 372.342 76.907 Q 372.258 76.967 372.186 76.925 Q 372.114 76.883 372.114 76.786 L 372.114 74.18 Q 372.114 74.156 372.132 74.12 Q 372.15 74.084 372.174 74.06 L 374.648 72.27 L 377.159 72.27 Q 377.303 72.27 377.303 72.414 L 377.303 89.543 Q 377.303 89.687 377.159 89.687 Z" style="text-wrap-mode: nowrap;"/>
    <path d="M 395.707 174.374 Q 395.723 172.731 396.271 171.427 Q 396.819 170.124 397.815 169.194 Q 398.761 168.331 399.94 167.858 Q 401.119 167.385 402.414 167.385 Q 405.153 167.385 407.112 169.194 Q 409.087 171.021 409.137 174.391 L 409.137 184.85 Q 409.104 186.46 408.573 187.788 Q 408.041 189.116 407.112 190.029 Q 406.165 190.876 404.978 191.358 Q 403.791 191.839 402.414 191.872 Q 400.04 191.806 398.23 190.411 L 398.23 190.428 Q 397.284 189.697 396.694 188.676 Q 396.105 187.655 395.839 186.327 Q 395.806 186.244 395.864 186.178 Q 395.922 186.111 396.022 186.111 L 399.409 186.111 Q 399.525 186.111 399.591 186.244 Q 400.338 188.104 402.414 188.104 Q 405.352 188.087 405.468 184.667 L 405.468 182.692 Q 404.373 183.024 403.293 183.206 Q 402.214 183.389 401.268 183.356 Q 398.977 183.405 397.3 181.695 L 397.317 181.695 Q 395.673 180.052 395.707 176.566 Z M 399.392 176.532 Q 399.392 179.919 402.414 179.969 Q 405.369 179.919 405.468 176.532 L 405.468 174.59 Q 405.335 171.22 402.414 171.153 Q 399.409 171.236 399.392 174.59 Z M 422.168 174.573 Q 422.168 172.963 421.313 172.058 Q 420.458 171.153 419.03 171.153 Q 417.602 171.153 416.755 172.058 Q 415.909 172.963 415.909 174.573 L 415.909 184.617 Q 415.909 186.244 416.755 187.141 Q 417.602 188.037 419.03 188.037 Q 420.458 188.037 421.313 187.141 Q 422.168 186.244 422.168 184.617 Z M 412.124 174.374 Q 412.124 171.021 414.232 169.211 Q 416.324 167.368 419.03 167.368 Q 420.375 167.368 421.578 167.841 Q 422.782 168.315 423.828 169.211 Q 424.874 170.141 425.413 171.427 Q 425.953 172.714 425.953 174.374 L 425.953 184.817 Q 425.953 188.153 423.828 189.98 Q 421.736 191.806 419.03 191.806 Q 416.324 191.806 414.232 189.98 Q 412.124 188.17 412.124 184.817 Z" style="text-wrap-mode: nowrap;"/>
    <path d="M 505.003 174.391 Q 505.02 172.731 505.568 171.427 Q 506.116 170.124 507.112 169.194 Q 508.058 168.331 509.237 167.858 Q 510.415 167.385 511.71 167.385 Q 514.068 167.385 515.977 168.796 Q 517.77 170.224 518.318 172.913 Q 518.351 173.013 518.285 173.079 Q 518.218 173.146 518.119 173.146 L 514.715 173.146 Q 514.582 173.146 514.533 173.029 Q 513.786 171.203 511.694 171.153 Q 508.689 171.236 508.689 174.607 L 508.689 176.566 Q 509.768 176.25 510.839 176.068 Q 511.91 175.885 512.873 175.902 Q 515.197 175.902 516.857 177.528 Q 518.451 179.205 518.434 182.692 L 518.434 184.85 Q 518.384 188.253 516.409 190.029 Q 514.549 191.789 511.71 191.872 Q 508.955 191.789 507.112 190.046 Q 505.02 188.22 505.003 184.866 Z M 508.689 184.667 Q 508.706 188.07 511.71 188.104 Q 514.649 188.087 514.765 184.667 L 514.765 182.725 Q 514.632 179.355 511.71 179.288 Q 508.706 179.371 508.689 182.725 Z M 531.13 174.573 Q 531.13 172.963 530.275 172.058 Q 529.42 171.153 527.993 171.153 Q 526.565 171.153 525.718 172.058 Q 524.872 172.963 524.872 174.573 L 524.872 184.617 Q 524.872 186.244 525.718 187.141 Q 526.565 188.037 527.993 188.037 Q 529.42 188.037 530.275 187.141 Q 531.13 186.244 531.13 184.617 Z M 521.086 174.374 Q 521.086 171.021 523.195 169.211 Q 525.287 167.368 527.993 167.368 Q 529.337 167.368 530.541 167.841 Q 531.745 168.315 532.791 169.211 Q 533.836 170.141 534.376 171.427 Q 534.916 172.714 534.916 174.374 L 534.916 184.817 Q 534.916 188.153 532.791 189.98 Q 530.699 191.806 527.993 191.806 Q 525.287 191.806 523.195 189.98 Q 521.086 188.17 521.086 184.817 Z" style="fill: rgb(255, 255, 255); text-wrap-mode: nowrap;"/>
  </g>
</svg>