<?xml version="1.0" encoding="utf-8"?>
<!-- Generator: Adobe Illustrator 18.1.1, SVG Export Plug-In . SVG Version: 6.00 Build 0)  -->
<svg version="1.1" id="Layer_1" xmlns="http://www.w3.org/2000/svg" xmlns:xlink="http://www.w3.org/1999/xlink" x="0px" y="0px"
	 viewBox="0 0 122 57" enable-background="new 0 0 122 57" xml:space="preserve">
<path fill="#FFFFFF" stroke="#000000" stroke-width="2" stroke-miterlimit="10" d="M119,56H3c-1.1,0-2-0.9-2-2V3c0-1.1,0.9-2,2-2
	h116c1.1,0,2,0.9,2,2v51C121,55.1,120.1,56,119,56z"/>
<g>
	<path d="M29.1,46.8c0,0-0.1,0.1-0.2,0.1c-0.1,0-0.1,0-0.2-0.1l-3.8-3.2c-1,0.8-2.1,1.5-3.3,2s-2.6,0.8-4.2,0.8
		c-2.5,0-4.7-0.6-6.4-1.9c-1.7-1.3-2.9-2.7-3.7-4.2h0c-0.3-0.5-0.5-1.1-0.7-1.6s-0.3-1.1-0.4-1.7C6,35.7,5.9,33.1,5.9,29
		c0-2,0-3.7,0.1-5c0.1-1.3,0.1-2.2,0.2-2.8s0.3-1.2,0.4-1.7s0.4-1.1,0.7-1.6h0c0.4-0.8,0.9-1.5,1.5-2.2c0.6-0.7,1.4-1.4,2.2-2
		c1.7-1.3,3.9-2,6.4-2c2.5,0,4.7,0.7,6.4,2c1.7,1.3,3,2.7,3.8,4.2c0.3,0.5,0.5,1.1,0.7,1.6c0.2,0.6,0.3,1.1,0.4,1.7s0.2,1.5,0.2,2.8
		s0.1,3,0.1,5c0,3.7-0.1,6.1-0.3,7.4c-0.1,0.6-0.2,1.1-0.3,1.7c-0.1,0.5-0.3,1-0.5,1.4c0.7,0.5,1.3,1.1,2,1.7s1.3,1.2,2,1.7
		c0.1,0,0.1,0.1,0.1,0.2s0,0.1-0.1,0.2L29.1,46.8z M16.8,36.7c-0.1,0-0.1-0.1-0.1-0.2c0-0.1,0-0.1,0.1-0.2l2.8-3.5
		c0.1-0.1,0.2-0.1,0.4,0l3.4,2.8c0.1-0.6,0.2-1.4,0.3-2.5s0.1-2.4,0.1-4c0-1.7,0-3.1-0.1-4.2c-0.1-1.1-0.1-1.9-0.3-2.4
		c-0.1-0.5-0.3-1-0.5-1.5c-0.2-0.5-0.4-0.9-0.7-1.3c-0.2-0.3-0.5-0.6-0.8-0.9c-0.3-0.3-0.7-0.5-1.1-0.7s-0.8-0.4-1.3-0.5
		c-0.5-0.1-1-0.2-1.5-0.2c-1.1,0-2,0.2-2.8,0.7s-1.4,1-1.9,1.6c-0.3,0.4-0.5,0.8-0.7,1.3s-0.4,1-0.5,1.5c-0.2,1.1-0.3,3.3-0.3,6.6
		c0,3.4,0.1,5.6,0.3,6.7c0.1,0.5,0.3,1,0.5,1.4c0.2,0.5,0.4,0.9,0.7,1.3c0.5,0.7,1.1,1.2,1.9,1.7s1.7,0.7,2.8,0.7
		c1.2,0,2.2-0.3,3.1-0.9L16.8,36.7z"/>
	<path d="M35.6,46.1c-0.2,0-0.3-0.1-0.3-0.3V12.2c0-0.2,0.1-0.3,0.3-0.3h4.8c0.2,0,0.3,0.1,0.3,0.3v28.5h15.2c0.2,0,0.3,0.1,0.3,0.3
		v4.8c0,0.2-0.1,0.3-0.3,0.3H35.6z"/>
	<path d="M60.4,46.1c-0.2,0-0.3-0.1-0.3-0.3v-4.8c0-0.2,0.1-0.3,0.3-0.3H65c0.2,0,0.2,0.1,0.2,0.3v4.8c0,0.2-0.1,0.3-0.2,0.3H60.4z"
		/>
	<path d="M68.8,41.2c-0.2,0-0.3-0.1-0.3-0.3v-4.6l10.6-24c0,0,0.1-0.1,0.1-0.1c0,0,0.1-0.1,0.1-0.1h5c0.1,0,0.2,0,0.2,0.1
		s0.1,0.2,0,0.3L74.1,36.1h7.5v-9.4c0-0.2,0.1-0.3,0.3-0.3h4.5c0.2,0,0.3,0.1,0.3,0.3v9.4H89c0.2,0,0.2,0.1,0.2,0.3v4.5
		c0,0.2-0.1,0.3-0.2,0.3h-2.3v4.7c0,0.2-0.1,0.3-0.3,0.3h-4.5c-0.2,0-0.3-0.1-0.3-0.3v-4.7H68.8z"/>
	<path d="M93.3,46.1c-0.2,0-0.3-0.1-0.3-0.3V12.2c0-0.2,0.1-0.3,0.3-0.3h12.3c3.1,0,5.5,0.9,7.2,2.6c1.6,1.7,2.5,4,2.5,6.7
		c0,1.5-0.3,2.9-1,4.1c-0.6,1.2-1.7,2.2-3.3,3.1c1.5,0.5,2.6,1.5,3.4,2.9c0.4,0.8,0.8,1.6,1,2.4s0.3,1.7,0.3,2.5
		c0,3-0.9,5.4-2.7,7.1c-1.8,1.8-3.9,2.6-6.3,2.6H93.3z M98.4,17v9.1h6.7c1.7,0,2.9-0.4,3.6-1.3c0.8-0.9,1.2-1.9,1.2-3.2
		c0-1.3-0.4-2.3-1.2-3.2c-0.8-0.9-2-1.4-3.6-1.4H98.4z M98.4,31.2v9.6h7.1c1.7,0,2.9-0.5,3.7-1.4c0.8-1,1.2-2.1,1.2-3.4
		c0-1.3-0.4-2.4-1.2-3.3c-0.8-1-2-1.5-3.7-1.5H98.4z"/>
</g>
</svg>
