<?xml version="1.0" encoding="utf-8"?>
<!-- Generator: Adobe Illustrator 18.1.1, SVG Export Plug-In . SVG Version: 6.00 Build 0)  -->
<svg version="1.1" id="Layer_1" xmlns="http://www.w3.org/2000/svg" xmlns:xlink="http://www.w3.org/1999/xlink" x="0px" y="0px"
	 viewBox="0 0 122 57" enable-background="new 0 0 122 57" xml:space="preserve">
<path fill="#FFFFFF" stroke="#000000" stroke-width="2" stroke-miterlimit="10" d="M119,56H3c-1.1,0-2-0.9-2-2V3c0-1.1,0.9-2,2-2
	h116c1.1,0,2,0.9,2,2v51C121,55.1,120.1,56,119,56z"/>
<g>
	<path d="M26.7,46.8c0,0-0.1,0.1-0.2,0.1s-0.1,0-0.2-0.1L23,43.6c-0.8,0.8-1.8,1.5-2.9,2s-2.3,0.8-3.6,0.8c-2.2,0-4.1-0.6-5.6-1.9
		c-1.5-1.3-2.5-2.7-3.2-4.2h0c-0.2-0.5-0.4-1.1-0.6-1.6s-0.3-1.1-0.4-1.7c-0.2-1.2-0.3-3.9-0.3-7.9c0-2,0-3.7,0.1-5
		c0-1.3,0.1-2.2,0.2-2.8C6.9,20.6,7,20,7.2,19.5s0.4-1.1,0.6-1.6h0c0.3-0.8,0.8-1.5,1.3-2.2c0.5-0.7,1.2-1.4,1.9-2
		c1.5-1.3,3.4-2,5.6-2c2.2,0,4.1,0.7,5.6,2c1.5,1.3,2.6,2.7,3.3,4.2c0.2,0.5,0.4,1.1,0.6,1.6s0.3,1.1,0.4,1.7s0.2,1.5,0.2,2.8
		s0.1,3,0.1,5c0,3.7-0.1,6.1-0.2,7.4c-0.1,0.6-0.2,1.1-0.3,1.7s-0.3,1-0.5,1.4c0.6,0.5,1.2,1.1,1.7,1.7c0.6,0.6,1.2,1.2,1.7,1.7
		c0.1,0,0.1,0.1,0.1,0.2c0,0.1,0,0.1-0.1,0.2L26.7,46.8z M16,36.7c-0.1,0-0.1-0.1-0.1-0.2c0-0.1,0-0.1,0-0.2l2.5-3.5
		c0.1-0.1,0.2-0.1,0.3,0l2.9,2.8c0.1-0.6,0.2-1.4,0.2-2.5s0.1-2.4,0.1-4c0-1.7,0-3.1-0.1-4.2c-0.1-1.1-0.1-1.9-0.2-2.4
		c-0.1-0.5-0.2-1-0.4-1.5c-0.2-0.5-0.4-0.9-0.6-1.3c-0.2-0.3-0.4-0.6-0.7-0.9c-0.3-0.3-0.6-0.5-0.9-0.7c-0.3-0.2-0.7-0.4-1.1-0.5
		c-0.4-0.1-0.9-0.2-1.3-0.2c-0.9,0-1.8,0.2-2.4,0.7s-1.2,1-1.6,1.6c-0.3,0.4-0.5,0.8-0.6,1.3c-0.2,0.5-0.3,1-0.4,1.5
		c-0.2,1.1-0.3,3.3-0.3,6.6c0,3.4,0.1,5.6,0.3,6.7c0.1,0.5,0.2,1,0.4,1.4c0.2,0.5,0.4,0.9,0.6,1.3c0.4,0.7,0.9,1.2,1.6,1.7
		s1.5,0.7,2.4,0.7c1,0,1.9-0.3,2.7-0.9L16,36.7z"/>
	<path d="M32.4,46.1c-0.2,0-0.2-0.1-0.2-0.3V12.2c0-0.2,0.1-0.3,0.2-0.3h4.2c0.2,0,0.2,0.1,0.2,0.3v28.5h13.2c0.2,0,0.2,0.1,0.2,0.3
		v4.8c0,0.2-0.1,0.3-0.2,0.3H32.4z"/>
	<path d="M53.9,46.1c-0.2,0-0.2-0.1-0.2-0.3v-4.8c0-0.2,0.1-0.3,0.2-0.3h3.9c0.1,0,0.2,0.1,0.2,0.3v4.8c0,0.2-0.1,0.3-0.2,0.3H53.9z
		"/>
	<path d="M67.1,46.2c-0.2,0-0.2-0.1-0.2-0.3V18c-0.6,0.5-1.2,1.1-1.8,1.6s-1.2,1.1-1.8,1.6c-0.1,0.1-0.2,0.1-0.2,0
		C63,21.2,63,21.1,63,21v-5.1c0,0,0-0.1,0-0.1c0,0,0-0.1,0.1-0.1l3.9-3.5h4c0.2,0,0.2,0.1,0.2,0.3v33.4c0,0.2-0.1,0.3-0.2,0.3H67.1z
		"/>
	<path d="M74.4,41.2c-0.2,0-0.2-0.1-0.2-0.3v-4.6l9.2-24c0,0,0.1-0.1,0.1-0.1c0,0,0.1-0.1,0.1-0.1h4.4c0.1,0,0.1,0,0.2,0.1
		c0,0.1,0,0.2,0,0.3L79,36.1h6.5v-9.4c0-0.2,0.1-0.3,0.2-0.3h3.9c0.2,0,0.2,0.1,0.2,0.3v9.4h2c0.1,0,0.2,0.1,0.2,0.3v4.5
		c0,0.2-0.1,0.3-0.2,0.3h-2v4.7c0,0.2-0.1,0.3-0.2,0.3h-3.9c-0.2,0-0.2-0.1-0.2-0.3v-4.7H74.4z"/>
	<path d="M95.7,46.1c-0.2,0-0.2-0.1-0.2-0.3V12.2c0-0.2,0.1-0.3,0.2-0.3h10.7c2.7,0,4.8,0.9,6.2,2.6c1.4,1.7,2.1,4,2.1,6.7
		c0,1.5-0.3,2.9-0.8,4.1c-0.5,1.2-1.5,2.2-2.9,3.1c1.3,0.5,2.3,1.5,3,2.9c0.4,0.8,0.7,1.6,0.9,2.4c0.2,0.8,0.3,1.7,0.3,2.5
		c0,3-0.8,5.4-2.4,7.1c-1.6,1.8-3.4,2.6-5.5,2.6H95.7z M100.1,17v9.1h5.8c1.4,0,2.5-0.4,3.2-1.3c0.7-0.9,1-1.9,1-3.2
		c0-1.3-0.3-2.3-1-3.2c-0.7-0.9-1.7-1.4-3.2-1.4H100.1z M100.1,31.2v9.6h6.2c1.4,0,2.5-0.5,3.2-1.4c0.7-1,1-2.1,1-3.4
		c0-1.3-0.3-2.4-1-3.3c-0.7-1-1.7-1.5-3.2-1.5H100.1z"/>
</g>
</svg>
