<?xml version="1.0" encoding="UTF-8" standalone="no"?>
<svg
   xmlns:dc="http://purl.org/dc/elements/1.1/"
   xmlns:cc="http://creativecommons.org/ns#"
   xmlns:rdf="http://www.w3.org/1999/02/22-rdf-syntax-ns#"
   xmlns:svg="http://www.w3.org/2000/svg"
   xmlns="http://www.w3.org/2000/svg"
   xmlns:sodipodi="http://sodipodi.sourceforge.net/DTD/sodipodi-0.dtd"
   xmlns:inkscape="http://www.inkscape.org/namespaces/inkscape"
   sodipodi:docname="Vietnam_road_sign_I445a.svg"
   inkscape:version="1.0 (4035a4fb49, 2020-05-01)"
   id="svg848"
   version="1.1"
   viewBox="0 0 1321.4581 500"
   height="500mm"
   width="1321.4581mm">
  <defs
     id="defs842" />
  <sodipodi:namedview
     inkscape:document-rotation="0"
     inkscape:measure-end="0,0"
     inkscape:measure-start="0,0"
     showguides="true"
     fit-margin-bottom="0"
     fit-margin-right="0"
     fit-margin-left="0"
     fit-margin-top="0"
     inkscape:window-maximized="1"
     inkscape:window-y="-9"
     inkscape:window-x="-9"
     inkscape:window-height="1001"
     inkscape:window-width="1920"
     inkscape:snap-global="false"
     showgrid="false"
     inkscape:current-layer="text2903"
     inkscape:document-units="mm"
     inkscape:cy="538.15282"
     inkscape:cx="1236.8799"
     inkscape:zoom="0.13021881"
     inkscape:pageshadow="2"
     inkscape:pageopacity="0.0"
     borderopacity="1.0"
     bordercolor="#666666"
     pagecolor="#ffffff"
     id="base" />
  <metadata
     id="metadata845">
    <rdf:RDF>
      <cc:Work
         rdf:about="">
        <dc:format>image/svg+xml</dc:format>
        <dc:type
           rdf:resource="http://purl.org/dc/dcmitype/StillImage" />
        <dc:title></dc:title>
      </cc:Work>
    </rdf:RDF>
  </metadata>
  <g
     transform="translate(-1147.7469,-34.267412)"
     id="layer1"
     inkscape:groupmode="layer"
     inkscape:label="Layer 1">
    <path
       inkscape:connector-curvature="0"
       d=""
       style="opacity:1;fill:#d35f5f;fill-opacity:1;fill-rule:nonzero;stroke:none;stroke-width:3.92256;stroke-linecap:butt;stroke-linejoin:miter;stroke-miterlimit:4;stroke-dasharray:none;stroke-opacity:1;paint-order:stroke fill markers"
       id="path8376"
       r="150"
       cy="147"
       cx="150" />
    <g
       inkscape:groupmode="layer"
       transform="translate(-4496.0426,2396.6803)"
       id="text3577"
       style="font-style:normal;font-variant:normal;font-weight:bold;font-stretch:normal;font-size:299.854px;line-height:0;font-family:Giaothong1;-inkscape-font-specification:'Giaothong1 Bold';letter-spacing:0px;word-spacing:0px;fill:#ffcc00;fill-opacity:1;stroke:none;stroke-width:1.56174"
       aria-label="VỊNH">
      <g
         id="text3665"
         style="font-style:normal;font-variant:normal;font-weight:bold;font-stretch:normal;font-size:299.854px;line-height:0;font-family:Giaothong1;-inkscape-font-specification:'Giaothong1 Bold';letter-spacing:-2.78077px;word-spacing:0px;fill:#ffcc00;fill-opacity:1;stroke:none;stroke-width:2.43903"
         aria-label="VỊNH" />
    </g>
    <g
       inkscape:groupmode="layer"
       id="text2719"
       style="font-style:normal;font-variant:normal;font-weight:bold;font-stretch:normal;font-size:184.173px;line-height:0;font-family:Giaothong1;-inkscape-font-specification:'Giaothong1 Bold';letter-spacing:0px;word-spacing:0.486833px;fill:#ffffff;fill-opacity:1;stroke:none;stroke-width:0.959232"
       aria-label="CÔNG TRƯỜNG">
      <g
         inkscape:groupmode="layer"
         id="text2888"
         style="font-style:normal;font-variant:normal;font-weight:bold;font-stretch:normal;font-size:187.408px;line-height:0;font-family:Giaothong1;-inkscape-font-specification:'Giaothong1 Bold';letter-spacing:0.00264583px;word-spacing:0px;fill:#ffffff;fill-opacity:1;stroke:none;stroke-width:0.936293"
         aria-label="AHEAD">
        <g
           inkscape:groupmode="layer"
           id="text2903"
           style="font-style:normal;font-variant:normal;font-weight:bold;font-stretch:normal;font-size:184.173px;line-height:0;font-family:Giaothong1;-inkscape-font-specification:'Giaothong1 Bold';letter-spacing:0.00529167px;word-spacing:0px;fill:#ffffff;fill-opacity:1;stroke:none;stroke-width:0.898123"
           aria-label="WORKS">
          <path
             id="rect7863-1"
             style="font-style:normal;font-variant:normal;font-weight:bold;font-stretch:normal;font-size:184.173px;line-height:0;font-family:Giaothong1;-inkscape-font-specification:'Giaothong1 Bold';letter-spacing:0.00529167px;word-spacing:0px;opacity:1;mix-blend-mode:normal;fill:#0046aa;fill-opacity:1;fill-rule:nonzero;stroke:none;stroke-width:4.58494;stroke-linecap:butt;stroke-linejoin:miter;stroke-miterlimit:10;stroke-dasharray:none;stroke-opacity:1;paint-order:stroke fill markers"
             d="M 2469.205,34.267412 H 1147.7469 V 534.2674 H 2469.205 Z"
             sodipodi:nodetypes="ccccc" />
          <path
             d="M 1153.8431,40.350632 V 528.72285 H 2463.1252 V 40.350632 Z m 9.0566,9.05801 h 35.7233 V 519.66539 h -35.7233 z m 513.3412,0 h 777.8278 V 519.66539 h -777.8278 z"
             style="font-style:normal;font-variant:normal;font-weight:bold;font-stretch:normal;font-size:184.173px;line-height:0;font-family:Giaothong1;-inkscape-font-specification:'Giaothong1 Bold';letter-spacing:0.00529167px;word-spacing:0px;opacity:1;mix-blend-mode:normal;fill:#ffffff;fill-opacity:1;fill-rule:nonzero;stroke:none;stroke-width:4.54184;stroke-linecap:butt;stroke-linejoin:miter;stroke-miterlimit:10;stroke-dasharray:none;stroke-opacity:1;paint-order:stroke fill markers"
             id="path7865-2"
             sodipodi:nodetypes="ccccccccccccccc" />
          <path
             d="m 1815.7004,383.13558 q 0.3657,0 0.6034,0.3401 0.2377,0.27245 0.1828,0.67837 -2.5306,13.84702 -11.2069,21.31351 -4.2183,3.59756 -9.1589,5.43026 -4.9406,1.83271 -10.6638,1.83271 -10.4242,0 -17.5334,-5.63378 -6.9885,-5.56595 -10.1226,-12.21802 -1.0788,-2.30774 -1.8669,-4.61549 -0.7862,-2.37576 -1.2068,-4.95522 -0.7862,-5.02288 -0.7862,-22.80684 0,-8.8918 0.1828,-14.52558 0.1829,-5.63396 0.6034,-8.21324 0.4206,-2.57927 1.2068,-4.95504 0.7863,-2.37577 1.8687,-4.68351 3.1323,-6.58423 10.1226,-12.21801 7.0488,-5.70162 17.5316,-5.70162 12.5325,0 20.7279,8.68828 8.3141,8.75612 10.3017,20.77044 0.1829,0.40776 -0.1828,0.67837 -0.2377,0.27245 -0.6034,0.27245 h -13.7979 q -0.5485,0 -0.6582,-0.54306 -0.7863,-2.71514 -2.229,-5.02307 -1.4445,-2.37558 -3.5564,-4.41198 -3.9752,-4.00477 -10.0604,-4.00477 -4.52,0 -7.7126,2.0364 -3.1944,2.03621 -5.1216,4.68351 -1.152,1.62919 -1.9876,3.73324 -0.8411,2.03621 -1.3165,4.20847 -0.4754,2.30774 -0.6583,7.12711 -0.1828,4.81919 -0.1828,12.08216 0,7.39864 0.1828,12.21783 0.1829,4.75153 0.6583,7.05927 0.4754,2.10424 1.3165,4.20847 0.896,2.03622 1.9876,3.59757 1.9272,2.85081 5.1216,4.88702 3.1926,1.96856 7.7126,1.96856 10.4224,0 15.8458,-12.82891 0.1828,-0.128 0.3108,-0.27245 0.1829,-0.20296 0.3657,-0.20296 z"
             style="font-size:20.3039px;line-height:1.3;font-family:'Singapore Road Signs';-inkscape-font-specification:'Singapore Road Signs';text-align:center;text-anchor:middle;opacity:1;stroke-width:0.264583"
             id="path20780" />
          <path
             d="m 1873.5412,411.91557 q -0.7314,0 -0.7314,-0.81551 v -41.67674 h -32.8362 v 41.67674 q 0,0.81551 -0.7314,0.81551 h -13.0737 q -0.7314,0 -0.7314,-0.81551 v -97.26834 q 0,-0.81368 0.7314,-0.81368 h 13.0737 q 0.7314,0 0.7314,0.81368 v 40.86233 h 32.8362 v -40.86233 q 0,-0.81368 0.7314,-0.81368 h 13.0756 q 0.7314,0 0.7314,0.81368 v 97.26834 q 0,0.81551 -0.7314,0.81551 z"
             style="font-style:normal;font-variant:normal;font-weight:normal;font-stretch:normal;font-size:20.3039px;line-height:1.3;font-family:Giaothong2;-inkscape-font-specification:Giaothong2;text-align:center;text-anchor:middle;opacity:1;stroke-width:0.264583"
             id="path20782" />
          <path
             d="m 1897.7029,411.84773 q -0.4205,0 -0.6034,-0.3401 -0.1828,-0.3401 0,-0.74603 l 31.5709,-97.33617 q 0.1828,-0.54306 0.6034,-0.54306 h 10.7844 q 0.1829,0 0.3657,0.20296 0.2377,0.12799 0.2926,0.3401 l 31.5105,97.33617 q 0.1828,0.40776 0,0.74603 -0.1829,0.3401 -0.5486,0.3401 h -13.7978 q -0.4754,0 -0.6034,-0.54306 l -6.5076,-21.44918 h -31.8122 q -1.6822,5.4981 -3.3736,10.79251 -1.6274,5.22658 -3.3151,10.65667 0,0.20296 -0.2925,0.40775 -0.1829,0.12799 -0.3657,0.12799 z m 48.6216,-36.58602 q -0.1829,-0.47541 -0.3657,-1.01847 -0.1829,-0.54307 -0.2926,-0.95082 -1.0239,-3.32604 -1.8687,-6.10901 -0.8411,-2.85081 -1.4994,-4.95504 -0.4205,-1.35675 -0.8411,-2.6473 -0.3657,-1.28909 -0.7131,-2.44342 -0.2925,-1.08613 -0.6034,-2.0364 -0.2926,-1.01847 -0.6034,-1.96837 -0.5485,-1.96856 -1.1519,-3.93694 -0.5486,-1.96856 -1.152,-4.07261 -0.2926,-0.95082 -0.6583,-2.10423 -0.2925,-1.15378 -0.6582,-2.44361 -0.1829,-0.67837 -0.2926,-1.01847 0,-0.40775 -0.1828,-0.74602 -0.1829,-0.40776 -0.2926,-0.88317 -0.1828,-0.47541 -0.3657,-1.35674 -0.6582,2.23991 -1.2616,4.14063 -0.5486,1.90054 -1.024,3.52954 -0.1829,0.40776 -0.1829,0.74603 0,0.3401 -0.1828,0.67837 -0.2926,1.15378 -0.6583,2.17207 -0.3108,1.01848 -0.6034,2.0364 -0.2925,1.08613 -0.6034,2.10405 -0.2925,1.01847 -0.6034,1.96856 -0.6034,2.03621 -1.2616,4.27631 -0.6034,2.2399 -1.3897,4.68351 -0.7862,2.4436 -1.6274,5.29441 -0.8411,2.78297 -2.1686,7.05927 z m -17.5316,63.39763 q -0.6583,0 -0.6583,-0.74603 v -13.10026 q 0,-0.74603 0.6583,-0.74603 h 11.6877 q 0.6034,0 0.6034,0.74603 v 13.10026 q 0,0.74603 -0.6034,0.74603 z"
             style="font-style:normal;font-variant:normal;font-weight:normal;font-stretch:normal;font-size:20.3039px;line-height:1.3;font-family:Giaothong2;-inkscape-font-specification:Giaothong2;text-align:center;text-anchor:middle;opacity:1;stroke-width:0.264583"
             id="path20784" />
          <path
             d="m 2000.2505,411.91557 q -0.6583,0 -0.6583,-0.81551 v -39.77602 q -6.5076,-14.32225 -12.953,-28.57647 -6.4473,-14.25423 -12.8946,-28.5763 -0.1828,-0.47541 0,-0.81551 0.1829,-0.3401 0.6583,-0.3401 h 13.7356 q 0.1829,0 0.3657,0.20297 0.1829,0.12799 0.2926,0.27244 l 17.7145,41.67674 q 4.4578,-10.52098 8.795,-20.83828 4.3994,-10.31747 8.8573,-20.83846 0.1828,-0.12799 0.2925,-0.27244 0.1829,-0.20297 0.3657,-0.20297 h 13.7979 q 0.4754,0 0.6582,0.3401 0.1829,0.3401 0,0.81551 l -25.9079,57.15277 v 39.77602 q 0,0.81551 -0.7314,0.81551 z"
             style="font-style:normal;font-variant:normal;font-weight:normal;font-stretch:normal;font-size:20.3039px;line-height:1.3;font-family:Giaothong2;-inkscape-font-specification:Giaothong2;text-align:center;text-anchor:middle;opacity:1;stroke-width:0.264583"
             id="path20786" />
          <path
             d="m 2136.9599,383.13558 q 0.3657,0 0.6034,0.3401 0.2377,0.27245 0.1828,0.67837 -2.5306,13.84702 -11.2068,21.31351 -4.2184,3.59756 -9.159,5.43026 -4.9406,1.83271 -10.6638,1.83271 -10.4224,0 -17.5334,-5.63378 -6.9885,-5.56595 -10.1207,-12.21802 -1.0789,-2.30774 -1.8688,-4.61549 -0.7862,-2.37576 -1.2068,-4.95522 -0.7862,-5.02288 -0.7862,-22.80684 0,-8.8918 0.1828,-14.52558 0.1829,-5.63396 0.6034,-8.21324 0.4206,-2.57927 1.2068,-4.95504 0.7863,-2.37577 1.8669,-4.68351 3.1341,-6.58423 10.1226,-12.21801 7.0488,-5.70162 17.5334,-5.70162 12.5326,0 20.726,8.68828 8.3142,8.75612 10.3036,20.77044 0.1829,0.40776 -0.1828,0.67837 -0.2377,0.27245 -0.6034,0.27245 h -13.796 q -0.5486,0 -0.6583,-0.54306 -0.7862,-2.71514 -2.2289,-5.02307 -1.4445,-2.37558 -3.5546,-4.41198 -3.977,-4.00477 -10.0622,-4.00477 -4.5183,0 -7.7126,2.0364 -3.1926,2.03621 -5.1217,4.68351 -1.1519,1.62919 -1.9875,3.73324 -0.8411,2.03621 -1.3166,4.20847 -0.4754,2.30774 -0.6582,7.12711 -0.1829,4.81919 -0.1829,12.08216 0,7.39864 0.1829,12.21783 0.1828,4.75153 0.6582,7.05927 0.4755,2.10424 1.3166,4.20847 0.8959,2.03622 1.9875,3.59757 1.9291,2.85081 5.1217,4.88702 3.1943,1.96856 7.7126,1.96856 10.4242,0 15.8457,-12.82891 0.1829,-0.128 0.2926,-0.27245 0.1828,-0.20296 0.3657,-0.20296 z"
             style="font-style:normal;font-variant:normal;font-weight:normal;font-stretch:normal;font-size:20.3039px;line-height:1.3;font-family:Giaothong2;-inkscape-font-specification:Giaothong2;text-align:center;text-anchor:middle;opacity:1;stroke-width:0.264583"
             id="path20788" />
          <path
             d="m 2194.8007,411.91557 q -0.7314,0 -0.7314,-0.81551 v -41.67674 h -32.8361 v 41.67674 q 0,0.81551 -0.7132,0.81551 h -13.0755 q -0.7131,0 -0.7131,-0.81551 v -97.26834 q 0,-0.81368 0.7131,-0.81368 h 13.0755 q 0.7132,0 0.7132,0.81368 v 40.86233 h 32.8361 v -40.86233 q 0,-0.81368 0.7314,-0.81368 h 13.0738 q 0.7314,0 0.7314,0.81368 v 97.26834 q 0,0.81551 -0.7314,0.81551 z"
             style="font-style:normal;font-variant:normal;font-weight:normal;font-stretch:normal;font-size:20.3039px;line-height:1.3;font-family:Giaothong2;-inkscape-font-specification:Giaothong2;text-align:center;text-anchor:middle;opacity:1;stroke-width:0.264583"
             id="path20790" />
          <path
             d="m 2218.9606,411.84773 q -0.4205,0 -0.6034,-0.3401 -0.1828,-0.3401 0,-0.74603 l 31.5727,-97.33617 q 0.1828,-0.54306 0.6034,-0.54306 h 10.7844 q 0.1829,0 0.3657,0.20296 0.2378,0.12799 0.2926,0.3401 l 31.5105,97.33617 q 0.1828,0.40776 0,0.74603 -0.1829,0.3401 -0.5486,0.3401 h -13.7978 q -0.4754,0 -0.6034,-0.54306 l -6.5058,-21.44918 h -31.8122 q -1.6822,5.4981 -3.3754,10.79251 -1.6273,5.22658 -3.3132,10.65667 0,0.20296 -0.2926,0.40775 -0.1828,0.12799 -0.3657,0.12799 z m 48.6234,-36.58602 q -0.1828,-0.47541 -0.3657,-1.01847 -0.1828,-0.54307 -0.2926,-0.95082 -1.0239,-3.32604 -1.8668,-6.10901 -0.8412,-2.85081 -1.4994,-4.95504 -0.4206,-1.35675 -0.8411,-2.6473 -0.3657,-1.28909 -0.7314,-2.44342 -0.3109,-1.08613 -0.6034,-2.0364 -0.2926,-1.01847 -0.6034,-1.96837 -0.5486,-1.96856 -1.152,-3.93694 -0.5485,-1.96856 -1.1519,-4.07261 -0.3109,-0.95082 -0.6583,-2.10423 -0.3108,-1.15378 -0.6583,-2.44361 -0.1828,-0.67837 -0.3108,-1.01847 0,-0.40775 -0.1828,-0.74602 -0.1829,-0.40776 -0.3109,-0.88317 -0.1828,-0.47541 -0.3657,-1.35674 -0.6583,2.23991 -1.2617,4.14063 -0.5485,1.90054 -1.0239,3.52954 -0.1829,0.40776 -0.1829,0.74603 0,0.3401 -0.1828,0.67837 -0.2926,1.15378 -0.6583,2.17207 -0.2925,1.01848 -0.6034,2.0364 -0.2925,1.08613 -0.6034,2.10405 -0.2925,1.01847 -0.6034,1.96856 -0.6034,2.03621 -1.2616,4.27631 -0.6034,2.2399 -1.3897,4.68351 -0.7863,2.4436 -1.6274,5.29441 -0.8411,2.78297 -2.1704,7.05927 z m -33.1982,-70.99979 q -0.5485,0 -0.6582,-0.54306 -0.1829,-0.54307 0.2377,-0.88317 l 17.7144,-15.81539 h 8.1332 l 17.9558,15.81539 q 0.4206,0.3401 0.2377,0.88317 -0.1828,0.54306 -0.6582,0.54306 h -10.1226 l -12.0498,-7.33063 q -2.6513,1.83271 -5.363,3.66523 -2.7116,1.8327 -5.3629,3.6654 z m 15.6648,134.39742 q -0.6583,0 -0.6583,-0.74603 v -13.10026 q 0,-0.74603 0.6583,-0.74603 h 11.6877 q 0.6034,0 0.6034,0.74603 v 13.10026 q 0,0.74603 -0.6034,0.74603 z"
             style="font-style:normal;font-variant:normal;font-weight:normal;font-stretch:normal;font-size:20.3039px;line-height:1.3;font-family:Giaothong2;-inkscape-font-specification:Giaothong2;text-align:center;text-anchor:middle;opacity:1;stroke-width:0.264583"
             id="path20792" />
          <path
             d="m 2304.3971,411.91557 q -0.7314,0 -0.7314,-0.81551 v -97.26834 q 0,-0.81368 0.7314,-0.81368 h 12.3515 q 0.4206,0 0.6583,0.47541 l 24.1617,61.7006 q 5.8439,-15.54386 11.7481,-30.81638 5.9042,-15.34017 11.8103,-30.88422 0.1828,-0.47541 0.6582,-0.47541 h 12.3515 q 0.7314,0 0.7314,0.81368 v 97.26834 q 0,0.81551 -0.7314,0.81551 h -13.0737 q -0.7314,0 -0.7314,-0.81551 v -57.4243 q -4.2165,11.06405 -8.4952,21.99224 -4.2769,10.92837 -8.4349,21.92459 -0.2377,0.40775 -0.6582,0.40775 h -10.907 q -0.4206,0 -0.6583,-0.40775 l -16.9904,-44.05251 v 57.55998 q 0,0.81551 -0.7314,0.81551 z"
             style="font-style:normal;font-variant:normal;font-weight:normal;font-stretch:normal;font-size:20.3039px;line-height:1.3;font-family:Giaothong2;-inkscape-font-specification:Giaothong2;text-align:center;text-anchor:middle;opacity:1;stroke-width:0.264583"
             id="path20794" />
          <path
             d="m 1716.5465,250.47194 q -0.6766,0 -0.6766,-0.81185 v -41.6654 h -6.3686 q -0.6583,0 -0.6583,-0.7442 v -13.93351 q 0,-0.81185 0.6583,-0.81185 h 6.3686 v -39.77145 q 0,-0.81185 0.6766,-0.81185 h 30.4481 q 18.1332,0 27.1111,16.70679 1.6457,3.2465 2.6678,6.1549 1.0239,2.90859 1.3348,5.68169 0.7314,5.41107 0.7314,20.76514 0,8.25182 -0.2377,13.7982 -0.2377,5.47872 -0.7314,8.252 -0.4754,2.84075 -1.5177,5.54638 -0.9691,2.63779 -2.4867,5.27576 v -0.0731 q -4.0629,6.96676 -10.918,11.70147 -7.0945,4.7347 -16.8002,4.7347 z m 13.9496,-82.99253 v 25.02627 h 15.8311 q 0.7314,0 0.7314,0.81185 v 13.93351 q 0,0.7442 -0.7314,0.7442 h -15.8311 v 27.05553 h 15.0412 q 10.4334,0 15.5276,-8.1167 2.1229,-3.58477 2.5471,-7.5078 0.3108,-2.1644 0.4205,-6.49336 0.1829,-4.39644 0.1829,-11.16041 0,-6.56083 -0.1829,-10.95745 -0.1828,-4.39644 -0.4205,-6.96676 -0.6583,-4.80236 -3.1542,-8.59009 -5.1545,-7.77842 -14.9205,-7.77842 z"
             style="font-style:normal;font-variant:normal;font-weight:normal;font-stretch:normal;font-size:20.3355px;line-height:1.3;font-family:Giaothong2;-inkscape-font-specification:Giaothong2;text-align:center;text-anchor:middle;opacity:1;stroke-width:0.264582"
             id="path20797" />
          <path
             d="m 1862.2319,139.40943 q 0.3657,0.33827 0.7314,0.7442 4.0026,4.66705 4.1233,12.17486 0.2377,9.13133 -7.3396,14.88049 -3.1523,1.6237 -6.8532,2.36735 v 47.27943 q 0,15.55685 -9.2796,25.02627 -9.159,9.40176 -22.3205,9.40176 -13.2218,0 -22.4411,-9.40176 -9.2193,-9.46942 -9.2193,-25.02627 v -64.12134 q 0,-0.81186 0.7314,-0.81186 h 13.2237 q 0.6582,0 0.6582,0.81186 v 62.49801 q 0,9.73985 4.8529,14.74517 4.9131,5.07298 12.1906,5.07298 7.1567,0 12.0699,-5.07298 4.9131,-5.07279 4.9131,-14.74517 v -62.49801 q 0,-0.81186 0.7314,-0.81186 h 13.1616 q 0.7314,0 0.7314,0.81186 v 8.04904 q 5.5202,-2.63798 5.6409,-8.18435 0,-4.4641 -2.3661,-6.42571 z"
             style="font-style:normal;font-variant:normal;font-weight:normal;font-stretch:normal;font-size:20.3355px;line-height:1.3;font-family:Giaothong2;-inkscape-font-specification:Giaothong2;text-align:center;text-anchor:middle;opacity:1;stroke-width:0.264582"
             id="path20799" />
          <path
             d="m 1887.9497,201.23108 q 0,7.37268 0.1829,12.17486 0.1828,4.73471 0.6582,7.03441 0.4755,2.09692 1.3348,4.19366 0.9143,2.02908 2.0022,3.58495 1.9401,2.84075 5.1546,4.86983 3.2145,1.96161 7.7638,1.96161 4.4871,0 7.7016,-1.96161 3.2163,-2.02908 5.096,-4.86983 2.5471,-3.44965 3.3352,-7.77861 0.9691,-4.32878 0.9691,-19.20927 0,-7.37268 -0.2377,-12.10739 -0.2377,-4.80218 -0.7314,-7.03441 -0.4206,-2.16439 -1.2799,-4.19347 -0.8412,-2.09674 -2.0023,-3.72026 -0.9142,-1.28544 -2.2435,-2.50248 -1.28,-1.21778 -2.911,-2.09692 -1.6456,-0.94716 -3.5784,-1.4884 -1.9418,-0.60889 -4.125,-0.60889 -4.5493,0 -7.7638,2.02908 -3.2145,2.02909 -5.1546,4.66706 -1.1519,1.6237 -2.0022,3.72008 -0.8411,2.02926 -1.3348,4.19365 -0.4754,2.2997 -0.6582,7.10207 -0.1829,4.80236 -0.1829,12.03955 z m 20.8632,-58.03392 q -0.1829,0 -0.2926,-0.0731 -0.1828,-0.12799 -0.2377,-0.20296 l -16.7399,-19.75051 q -0.3657,-0.40592 -0.1828,-0.8795 0.2377,-0.47359 0.7314,-0.47359 h 13.3425 q 0.3657,0 0.6034,0.40593 l 12.677,19.75032 q 0.1828,0.47358 0,0.87951 -0.1829,0.33827 -0.6034,0.33827 z m 28.5684,-3.99069 q 0.4754,0.47358 0.9143,0.94716 4.0044,4.66705 4.125,12.17486 0.2377,9.13133 -7.3395,14.88049 -1.2068,0.60889 -2.4868,1.15012 0.1829,0.27062 0.3108,0.60889 2.2436,4.59958 3.0335,9.60473 0.4206,2.57031 0.6034,8.18435 0.2377,5.61403 0.2377,14.47456 0,17.38315 -0.8411,22.72656 -0.4205,2.63798 -1.2068,5.00533 -0.7314,2.36735 -1.7553,4.53175 -3.2145,6.49335 -10.3713,12.17504 -7.1567,5.61403 -17.5279,5.61403 -10.4938,0 -17.6505,-5.61403 -7.0361,-5.54638 -10.1884,-12.17504 v 0 q -1.152,-2.2997 -1.9419,-4.5994 -0.7862,-2.36736 -1.2068,-4.93768 -0.3657,-2.57013 -0.6034,-8.18416 -0.1828,-5.68169 -0.1828,-14.5424 0,-8.86053 0.1828,-14.47456 0.2377,-5.61404 0.6034,-8.18435 0.4206,-2.57032 1.2068,-4.93768 0.7863,-2.36717 1.9419,-4.66705 v 0 q 3.1523,-6.56083 10.1884,-12.17486 7.0964,-5.68169 17.6505,-5.68169 10.4315,0 17.5279,5.68169 2.6696,2.16457 4.7925,4.39662 6.3065,-2.57032 6.4894,-8.5901 0,-4.5994 -2.6093,-6.56101 z"
             style="font-style:normal;font-variant:normal;font-weight:normal;font-stretch:normal;font-size:20.3355px;line-height:1.3;font-family:Giaothong2;-inkscape-font-specification:Giaothong2;text-align:center;text-anchor:middle;opacity:1;stroke-width:0.264582"
             id="path20801" />
          <path
             d="m 1952.6657,250.47194 q -0.7314,0 -0.7314,-0.81185 v -96.92604 q 0,-0.81185 0.7314,-0.81185 h 12.4941 q 0.3657,0 0.6034,0.40592 l 38.2101,67.09741 v -66.69148 q 0,-0.81185 0.7314,-0.81185 h 13.2219 q 0.7314,0 0.7314,0.81185 v 96.92604 q 0,0.81185 -0.7314,0.81185 h -12.4338 q -0.3657,0 -0.6034,-0.40592 l -38.3326,-67.09742 v 66.69167 q 0,0.81185 -0.6765,0.81185 z"
             style="font-style:normal;font-variant:normal;font-weight:normal;font-stretch:normal;font-size:20.3355px;line-height:1.3;font-family:Giaothong2;-inkscape-font-specification:Giaothong2;text-align:center;text-anchor:middle;opacity:1;stroke-width:0.264582"
             id="path20803" />
          <path
             d="m 2065.782,211.03859 q -0.7314,0 -0.7314,-0.81186 v -13.93351 q 0,-0.74419 0.7314,-0.74419 h 30.8705 q 0.7314,0 0.7314,0.74419 v 19.75051 q 0,14.94814 -9.2193,25.02627 -9.3418,10.21343 -22.5033,10.21343 -10.4919,0 -17.6486,-5.61403 -7.0361,-5.54638 -10.1903,-12.17487 v 0 q -1.1519,-2.2997 -1.94,-4.5994 -0.7862,-2.36735 -1.2068,-4.93767 -0.3657,-2.57032 -0.6034,-8.18435 -0.1828,-5.68169 -0.1828,-14.54221 0,-8.86071 0.1828,-14.47456 0.2377,-5.61422 0.6034,-8.18436 0.4206,-2.57031 1.2068,-4.93767 0.7863,-2.36735 1.94,-4.66705 v 0 q 3.1542,-6.56083 10.1903,-12.17486 7.0964,-5.68169 17.6486,-5.68169 12.6166,0 20.865,8.65775 8.3708,8.65775 10.3712,20.6973 0.1829,0.40592 -0.1828,0.67654 -0.2377,0.27062 -0.6034,0.27062 h -13.8893 q -0.5485,0 -0.6765,-0.54124 -0.7863,-2.70544 -2.2436,-5.00514 -1.4628,-2.36735 -3.5784,-4.39662 -4.0044,-3.99069 -10.1298,-3.99069 -4.5493,0 -7.7638,2.02926 -3.2145,2.02909 -5.1546,4.66706 -1.1519,1.6237 -2.0022,3.72007 -0.8411,2.02909 -1.3348,4.19348 -0.4937,2.29988 -0.6582,7.10224 -0.1829,4.80218 -0.1829,12.03956 0,7.37268 0.1829,12.17504 0.1828,4.73453 0.6582,7.03423 0.4754,2.09692 1.3348,4.19365 0.9143,2.02927 2.0022,3.58495 1.9401,2.84076 5.1546,4.86984 3.2145,1.96161 7.7638,1.96161 7.217,0 12.1302,-5.47872 4.9735,-5.47873 4.9735,-14.33944 v -4.19347 z"
             style="font-style:normal;font-variant:normal;font-weight:normal;font-stretch:normal;font-size:20.3355px;line-height:1.3;font-family:Giaothong2;-inkscape-font-specification:Giaothong2;text-align:center;text-anchor:middle;opacity:1;stroke-width:0.264582"
             id="path20805" />
          <path
             d="m 2158.0936,250.47194 q -0.7314,0 -0.7314,-0.81185 V 166.5999 h -23.1085 q -0.7314,0 -0.7314,-0.81185 v -13.05418 q 0,-0.81186 0.7314,-0.81186 h 60.7737 q 0.7314,0 0.7314,0.81186 v 13.05418 q 0,0.81185 -0.7314,0.81185 h -23.0482 v 83.06019 q 0,0.81185 -0.7314,0.81185 z"
             style="font-style:normal;font-variant:normal;font-weight:normal;font-stretch:normal;font-size:20.3355px;line-height:1.3;font-family:Giaothong2;-inkscape-font-specification:Giaothong2;text-align:center;text-anchor:middle;opacity:1;stroke-width:0.264582"
             id="path20807" />
          <path
             d="m 2219.3519,166.60009 v 27.79936 h 19.2267 q 7.036,0 10.554,-4.32878 3.5181,-4.32897 3.5181,-10.28109 0,-3.3818 -1.0971,-6.01978 -1.024,-2.63797 -3.0335,-4.32878 -1.7554,-1.35309 -4.1233,-2.09692 -2.3057,-0.7442 -5.0338,-0.7442 z m -13.8892,83.87185 q -0.7314,0 -0.7314,-0.81185 v -96.92604 q 0,-0.81185 0.7314,-0.81185 h 34.0265 q 5.6409,0 10.1902,1.75901 4.5474,1.69136 7.9448,4.86984 1.7553,1.82666 3.3352,4.19365 1.6456,2.2997 2.8506,5.00533 1.2799,2.70544 2.0022,5.74916 0.7314,3.04371 0.7314,6.29039 0,4.80236 -1.2068,9.13133 -1.2068,4.26113 -3.3974,7.9812 -2.2435,3.44965 -5.2167,6.08762 -2.9713,2.57013 -6.7325,4.12582 4.9132,10.48405 9.8867,21.10341 4.9735,10.55152 9.8867,21.03539 0.1828,0.47358 0,0.8795 -0.1829,0.33827 -0.6034,0.33827 h -15.6483 q -0.1829,0 -0.3657,-0.12799 -0.1829,-0.20296 -0.3108,-0.33827 l -17.7712,-40.92139 h -15.7086 v 40.5833 q 0,0.81185 -0.7314,0.81185 z"
             style="font-style:normal;font-variant:normal;font-weight:normal;font-stretch:normal;font-size:20.3355px;line-height:1.3;font-family:Giaothong2;-inkscape-font-specification:Giaothong2;text-align:center;text-anchor:middle;opacity:1;stroke-width:0.264582"
             id="path20809" />
          <path
             d="m 2292.1352,201.23108 q 0,7.37268 0.1829,12.17486 0.1828,4.73471 0.6765,7.03441 0.4937,2.09692 1.3348,4.19366 0.9143,2.02908 2.0022,3.58495 1.9401,2.84075 5.1546,4.86983 3.2145,1.96161 7.7638,1.96161 4.4889,0 7.7034,-1.96161 3.2145,-2.02908 5.0942,-4.86983 2.5471,-3.44965 3.3352,-7.77861 0.9691,-4.32878 0.9691,-19.20927 0,-7.37268 -0.2377,-12.10739 -0.2377,-4.80218 -0.7314,-7.03441 -0.4206,-2.16439 -1.28,-4.19347 -0.8411,-2.09674 -2.0022,-3.72026 -0.9142,-1.28544 -2.2435,-2.50248 -1.28,-1.21778 -2.911,-2.09692 -1.6457,-0.94716 -3.5784,-1.4884 -1.9418,-0.60889 -4.1251,-0.60889 -4.5493,0 -7.7638,2.02908 -3.2145,2.02909 -5.1545,4.66706 -1.1519,1.6237 -2.0022,3.72008 -0.8411,2.02926 -1.3348,4.19365 -0.4937,2.2997 -0.6583,7.10207 -0.1828,4.80236 -0.1828,12.03955 z m 49.4316,-62.02461 q 0.4754,0.47358 0.9142,0.94716 4.0045,4.66705 4.1251,12.17486 0.2377,9.13133 -7.3395,14.88049 -1.2069,0.60889 -2.4868,1.15012 0.1828,0.27062 0.3108,0.60889 2.2436,4.59958 3.0335,9.60473 0.4206,2.57031 0.6034,8.18435 0.2377,5.61403 0.2377,14.47456 0,17.38315 -0.8411,22.72656 -0.4205,2.63798 -1.2068,5.00533 -0.7314,2.36735 -1.7553,4.53175 -3.2145,6.49335 -10.3713,12.17504 -7.1567,5.61403 -17.5279,5.61403 -10.4938,0 -17.6505,-5.61403 -7.0361,-5.54638 -10.1902,-12.17504 v 0 q -1.152,-2.2997 -1.9419,-4.5994 -0.7863,-2.36736 -1.2068,-4.93768 -0.3657,-2.57013 -0.6034,-8.18416 -0.1829,-5.68169 -0.1829,-14.5424 0,-8.86053 0.1829,-14.47456 0.2377,-5.61404 0.6034,-8.18435 0.4205,-2.57032 1.2068,-4.93768 0.7863,-2.36717 1.9419,-4.66705 v 0 q 3.1541,-6.56083 10.1902,-12.17486 7.0964,-5.68169 17.6505,-5.68169 10.4315,0 17.5279,5.68169 2.6678,2.16457 4.7907,4.39662 6.3083,-2.57032 6.4911,-8.5901 0,-4.5994 -2.6092,-6.56101 z"
             style="font-style:normal;font-variant:normal;font-weight:normal;font-stretch:normal;font-size:20.3355px;line-height:1.3;font-family:Giaothong2;-inkscape-font-specification:Giaothong2;text-align:center;text-anchor:middle;opacity:1;stroke-width:0.264582"
             id="path20811" />
          <path
             d="m 2356.8512,250.47194 q -0.7314,0 -0.7314,-0.81185 v -96.92604 q 0,-0.81185 0.7314,-0.81185 h 12.4941 q 0.3657,0 0.6034,0.40592 l 38.2101,67.09741 v -66.69148 q 0,-0.81185 0.7314,-0.81185 h 13.2219 q 0.7314,0 0.7314,0.81185 v 96.92604 q 0,0.81185 -0.7314,0.81185 h -12.4338 q -0.3657,0 -0.6034,-0.40592 l -38.3326,-67.09742 v 66.69167 q 0,0.81185 -0.6583,0.81185 z"
             style="font-style:normal;font-variant:normal;font-weight:normal;font-stretch:normal;font-size:20.3355px;line-height:1.3;font-family:Giaothong2;-inkscape-font-specification:Giaothong2;text-align:center;text-anchor:middle;opacity:1;stroke-width:0.264582"
             id="path20813" />
          <path
             d="m 1418.2273,107.50473 c -1.9821,0.0132 -3.4742,0.0731 -4.5109,0.12799 -3.7777,0.49552 -7.0909,0.70031 -11.3641,5.08322 l -30.3019,34.30095 c -10.7954,8.98468 -20.6931,22.88912 -23.189,33.68438 l -1.0422,4.48878 c -2.6806,11.92216 -6.3339,38.58328 -7.0361,56.40034 l -6.1986,26.84891 28.9799,6.6901 6.1986,-26.84891 140.0665,32.33678 -6.1986,26.84891 28.9798,6.6901 6.1986,-26.84818 c 7.1787,-16.32152 15.5824,-41.88628 18.4002,-53.77681 l 1.0422,-4.48896 c 2.4922,-10.79599 -0.3108,-27.63316 -6.0743,-40.44086 l -12.1997,-44.11303 c -1.9181,-5.8126 -4.8071,-7.44892 -7.985,-9.54932 -4.8474,-2.676 -21.2472,-11.25019 -57.7202,-19.78872 -29.6765,-6.75556 -47.455,-7.68133 -56.0434,-7.64019 z m -1.9072,7.18818 c 6.0231,0.66375 33.7852,5.60434 55.6046,10.60857 21.8048,5.06731 48.9233,12.79783 54.63,14.84136 3.1871,1.69684 4.0227,2.58421 5.5349,7.2626 l 11.8852,46.51056 -166.8869,-38.52899 31.0717,-36.5926 c 3.4101,-3.54234 4.5511,-3.97369 8.1605,-4.1015 z m -88.9655,169.36431 c -16.1712,4.14721 -38.6343,27.28756 -38.6343,46.50726 0,24.06923 48.7587,37.61327 88.3493,37.61418 -1.3713,20.18624 7.5901,45.96676 8.1643,51.02712 1.0239,8.01083 1.3531,19.34568 -5.5404,28.86739 l -12.3917,16.61994 h 27.5536 c 8.2465,-13.54203 11.611,-23.51995 11.1392,-33.09469 -1.1519,-24.30858 -9.8684,-53.12862 -8.2227,-62.10726 27.4603,3.61091 49.9326,5.33061 71.7301,15.16225 3.785,2.1825 10.4279,4.6901 12.3917,15.30836 1.5359,12.29737 -8.892,33.01844 -19.2449,55.10887 l 24.639,9.62247 c 11.7773,-23.3318 20.8668,-38.91772 20.8485,-64.87744 0,-9.65793 -8.274,-19.34915 -22.0151,-26.0963 -19.8484,-8.67201 -44.3301,-11.05728 -77.4149,-15.16299 36.2609,-20.52176 34.4854,-14.19608 121.4451,-37.32272 l -28.8665,-12.3919 c -41.9512,8.65372 -103.1327,21.25974 -118.6749,46.7989 -29.1572,-2.26222 -60.3989,-9.66891 -65.0232,-16.32829 -3.0572,-4.31598 -3.2547,-9.85907 1.4628,-18.07871 8.2813,-12.44292 13.4139,-18.27729 30.3256,-32.94841 z"
             style="opacity:1;fill:#0046aa;fill-opacity:1;fill-rule:nonzero;stroke:none;stroke-width:58.1701;stroke-linecap:butt;stroke-linejoin:miter;stroke-miterlimit:4;stroke-dasharray:none;stroke-opacity:1;paint-order:normal"
             id="path25009" />
        </g>
      </g>
    </g>
  </g>
</svg>
