<?xml version="1.0" encoding="utf-8"?>
<svg viewBox="0 0 323.14914 200" xmlns="http://www.w3.org/2000/svg">
  <g id="layer1" transform="matrix(0.9999999999999999, 0, 0, 0.9999999999999999, -303.4596862792969, -22.960700988769517)">
    <path id="rect15575" style="opacity:1;fill:#0a9646;fill-opacity:1;fill-rule:evenodd;stroke-width:0.0420687;stroke-linecap:square;stroke-miterlimit:10;paint-order:stroke fill markers" d="M 303.45966,22.960701 H 626.6088 V 222.9607 H 303.45966 Z"/>
    <path transform="matrix(0.26458333,0,0,0.26458333,303.45966,22.960701)" d="m 30.353516,5.0117188 c -13.808655,0 -25.0781254,11.2674112 -25.0781254,25.0761722 v 332.957029 47.1211 49.04296 13.88672 252.45508 c 0,13.80862 11.2694704,25.06641 25.0781254,25.06641 H 1190.9805 c 13.8086,0 25.0781,-11.25779 25.0781,-25.06641 V 473.0957 459.57031 401.94727 363.04492 30.087891 c 0,-13.808761 -11.2695,-25.0761722 -25.0781,-25.0761722 z m 0,9.4511722 H 1190.9805 c 8.7398,0 15.6425,6.885058 15.6425,15.625 v 332.957029 38.90235 c 0,0.29959 -0.013,0.61475 -0.037,0.9375 v 7.20703 c 0,8.68754 -6.9941,15.68164 -15.6816,15.68164 h -8.0762 c -0.1869,0.007 -0.3766,0.0176 -0.5586,0.0176 H 38.023438 c -0.18105,0 -0.371847,-0.0102 -0.560547,-0.0176 h -7.097657 c -8.687546,0 -15.68164,-6.9941 -15.68164,-15.68164 V 30.152344 c 0,-1.658433 0.257595,-3.253829 0.730468,-4.751953 0.01365,-0.04461 0.03284,-0.08643 0.04688,-0.13086 1.99686,-6.321925 7.84094,-10.80664 14.892578,-10.80664 z M 30.28125,435.30469 h 6.958984 1145.628866 8.1172 c 8.6414,0 15.5996,6.95633 15.5996,15.59765 v 7.5918 c 0.024,0.37296 0.037,0.7339 0.037,1.07617 v 13.52539 252.45508 c 0,5.47634 -2.7106,10.22208 -6.8847,13.00391 -2.4923,1.6862 -5.5034,2.66992 -8.752,2.66992 H 30.28125 c -8.641361,0 -15.597656,-6.9563 -15.597656,-15.59766 V 450.90234 c 0,-8.64132 6.956295,-15.59765 15.597656,-15.59765 z" style="color:#000000;font-style:normal;font-variant:normal;font-weight:normal;font-stretch:normal;font-size:medium;line-height:normal;font-family:sans-serif;font-variant-ligatures:normal;font-variant-position:normal;font-variant-caps:normal;font-variant-numeric:normal;font-variant-alternates:normal;font-variant-east-asian:normal;font-feature-settings:normal;font-variation-settings:normal;text-indent:0;text-align:start;text-decoration:none;text-decoration-line:none;text-decoration-style:solid;text-decoration-color:#000000;letter-spacing:normal;word-spacing:normal;text-transform:none;writing-mode:lr-tb;direction:ltr;text-orientation:mixed;dominant-baseline:auto;baseline-shift:baseline;text-anchor:start;white-space:normal;shape-padding:0;shape-margin:0;inline-size:0;clip-rule:nonzero;display:inline;overflow:visible;visibility:visible;opacity:1;isolation:auto;mix-blend-mode:normal;color-interpolation:sRGB;color-interpolation-filters:linearRGB;solid-color:#000000;solid-opacity:1;vector-effect:none;fill:#ffffff;fill-opacity:1;fill-rule:evenodd;stroke:none;stroke-width:2.09199;stroke-linecap:square;stroke-linejoin:miter;stroke-miterlimit:10;stroke-dasharray:none;stroke-dashoffset:0;stroke-opacity:1;paint-order:stroke fill markers;color-rendering:auto;image-rendering:auto;shape-rendering:auto;text-rendering:auto;enable-background:accumulate;stop-color:#000000;stop-opacity:1" id="path15582"/>
    <path d="m 324.12038,67.193614 h 60.89334 v 27.821331 h -60.89334 z" style="opacity:1;fill:#ffd70f;fill-opacity:1;fill-rule:evenodd;stroke:none;stroke-width:0.553508;stroke-linecap:square;stroke-miterlimit:10;stroke-dasharray:none;stroke-opacity:1;paint-order:stroke fill markers" id="rect15605"/>
    <path id="path15631" d="m 326.18273,67.759747 c -0.81115,0 -1.47443,0.660164 -1.47443,1.471307 v 23.746432 c 0,0.811142 0.66328,1.471323 1.47443,1.471323 h 56.7905 c 0.81117,0 1.4744,-0.660181 1.4744,-1.471323 V 69.231054 c 0,-0.811143 -0.66328,-1.471307 -1.4744,-1.471307 z m 0,0.535017 h 56.7905 c 0.52266,0 0.93627,0.413622 0.93627,0.93629 v 23.746432 c 0,0.522654 -0.41353,0.933189 -0.93627,0.933189 h -56.7905 c -0.52266,0 -0.93628,-0.410555 -0.93628,-0.933189 V 69.231054 c 0,-0.522672 0.41354,-0.93629 0.93628,-0.93629 z" style="color:#000000;font-style:normal;font-variant:normal;font-weight:normal;font-stretch:normal;font-size:medium;line-height:normal;font-family:sans-serif;font-variant-ligatures:normal;font-variant-position:normal;font-variant-caps:normal;font-variant-numeric:normal;font-variant-alternates:normal;font-variant-east-asian:normal;font-feature-settings:normal;font-variation-settings:normal;text-indent:0;text-align:start;text-decoration:none;text-decoration-line:none;text-decoration-style:solid;text-decoration-color:#000000;letter-spacing:normal;word-spacing:normal;text-transform:none;writing-mode:lr-tb;direction:ltr;text-orientation:mixed;dominant-baseline:auto;baseline-shift:baseline;text-anchor:start;white-space:normal;shape-padding:0;shape-margin:0;inline-size:0;clip-rule:nonzero;display:inline;overflow:visible;visibility:visible;opacity:1;isolation:auto;mix-blend-mode:normal;color-interpolation:sRGB;color-interpolation-filters:linearRGB;solid-color:#000000;solid-opacity:1;vector-effect:none;fill:#000000;fill-opacity:1;fill-rule:evenodd;stroke:none;stroke-width:0.119062;stroke-linecap:square;stroke-linejoin:miter;stroke-miterlimit:10;stroke-dasharray:none;stroke-dashoffset:0;stroke-opacity:1;paint-order:stroke fill markers;color-rendering:auto;image-rendering:auto;shape-rendering:auto;text-rendering:auto;enable-background:accumulate;stop-color:#000000;stop-opacity:1"/>
    <path d="m 336.88947,72.205604 c -1.36961,0 -2.51552,0.330332 -3.43646,0.991507 -0.91309,0.653335 -1.5737,1.361798 -1.98303,2.125328 -0.14189,0.267612 -0.264,0.538688 -0.36613,0.814199 -0.10264,0.275473 -0.18065,0.564078 -0.23555,0.86321 -0.0552,0.299089 -0.0954,0.774434 -0.11873,1.427765 -0.0223,0.653332 -0.0362,1.495435 -0.0362,2.5266 0,2.062321 0.0516,3.383536 0.15387,3.966025 0.0552,0.299136 0.13326,0.587702 0.23556,0.863193 0.10264,0.267612 0.22467,0.534915 0.36612,0.802543 0.40948,0.771411 1.06995,1.479875 1.983,2.125324 0.92887,0.653346 2.07472,0.979855 3.43649,0.979855 0.74779,0 1.44489,-0.107189 2.09034,-0.319632 0.64544,-0.212556 1.24303,-0.525333 1.79403,-0.942508 1.1335,-0.865864 1.86473,-2.103628 2.19533,-3.709419 0.0139,-0.04714 0.009,-0.08518 -0.0223,-0.116745 -0.0315,-0.03928 -0.0694,-0.05829 -0.11656,-0.05829 h -2.70394 c -0.0223,1.5e-5 -0.0488,0.01117 -0.0722,0.03521 -0.0223,0.01589 -0.0451,0.0307 -0.0582,0.0467 -0.70836,1.487712 -1.74338,2.232636 -3.10515,2.232636 -0.59037,0 -1.09454,-0.11468 -1.51174,-0.342928 -0.41713,-0.236167 -0.75132,-0.520933 -1.00317,-0.851551 -0.14189,-0.181028 -0.27124,-0.389065 -0.3896,-0.625222 -0.11008,-0.244 -0.19597,-0.488524 -0.25924,-0.732545 -0.0628,-0.267611 -0.10709,-0.67614 -0.13048,-1.227141 -0.0223,-0.558871 -0.0359,-1.267326 -0.0359,-2.125325 0,-0.842249 0.009,-1.543133 0.0359,-2.102004 0.0223,-0.55887 0.0677,-0.97117 0.13048,-1.238798 0.0627,-0.251917 0.14857,-0.496392 0.25924,-0.732549 0.11009,-0.244 0.24028,-0.45965 0.3896,-0.64857 0.252,-0.30699 0.58598,-0.580386 1.00317,-0.816526 0.41715,-0.236167 0.92137,-0.352269 1.51174,-0.352269 0.79503,1.7e-5 1.45185,0.230844 1.97135,0.695231 0.27541,0.236167 0.50863,0.492045 0.69757,0.767539 0.18872,0.267667 0.33407,0.560022 0.4361,0.874867 0.0167,0.06294 0.0599,0.09333 0.13046,0.09333 h 2.7039 c 0.0468,0 0.0854,-0.01589 0.11658,-0.0467 0.0315,-0.03161 0.0407,-0.07184 0.0223,-0.118954 -0.25952,-1.393235 -0.93175,-2.595995 -2.01801,-3.611427 -1.07052,-1.007535 -2.42438,-1.511744 -4.0617,-1.511744 z m 27.73422,0.104956 c -1.28304,0 -2.4213,0.437369 -3.41313,1.311121 -0.99967,0.858 -1.50005,2.08205 -1.50005,3.672071 v 7.425818 c 0,1.590021 0.50038,2.814088 1.50005,3.672088 0.99183,0.865851 2.13009,1.299446 3.41313,1.299446 1.28303,0 2.42133,-0.433578 3.41313,-1.299446 1.00756,-0.86587 1.50938,-2.089917 1.50938,-3.672088 v -7.425818 c 0,-0.787127 -0.1299,-1.484222 -0.38959,-2.09033 -0.252,-0.613979 -0.62389,-1.140934 -1.11979,-1.581741 -0.49592,-0.425045 -1.03279,-0.74779 -1.6074,-0.968177 -0.56674,-0.22825 -1.16816,-0.342924 -1.80573,-0.342924 z m -21.12261,0.03521 c -0.0943,0 -0.14217,0.04776 -0.14217,0.142392 v 2.279298 c 0,0.09444 0.0479,0.142197 0.14217,0.142197 h 4.49793 V 89.409 c 0,0.09444 0.0479,0.139995 0.14217,0.139995 h 2.5616 c 0.0945,0 0.14217,-0.04555 0.14217,-0.139995 V 74.909653 h 4.48625 c 0.0943,0 0.14217,-0.04778 0.14217,-0.142196 v -2.279299 c 0,-0.09444 -0.0479,-0.142392 -0.14217,-0.142392 z m 31.22667,0.118953 -2.43331,1.759064 c -0.0139,0.01589 -0.0315,0.03477 -0.0466,0.05829 -0.009,0.02341 -0.0139,0.04468 -0.0139,0.06068 v 2.561593 c 0,0.06294 0.0278,0.110694 0.0728,0.142196 0.0468,0.02343 0.0989,0.01617 0.15388,-0.02343 0.36208,-0.259778 0.7228,-0.523245 1.08486,-0.790886 0.36206,-0.275473 0.72509,-0.548889 1.08714,-0.816528 v 14.028096 c 0,0.09444 0.048,0.142198 0.14217,0.142198 h 2.41929 c 0.0943,0 0.13994,-0.04778 0.13994,-0.142198 V 72.606811 c 0,-0.09444 -0.0455,-0.142197 -0.13994,-0.142197 z m -10.10406,2.538257 c 0.67694,0 1.21532,0.217964 1.61673,0.650912 0.40948,0.425045 0.61359,1.018854 0.61359,1.782378 v 7.143522 c 0,0.771407 -0.20461,1.368982 -0.61359,1.794059 -0.40133,0.425045 -0.93979,0.63689 -1.61673,0.63689 -0.67695,0 -1.21527,-0.211859 -1.61671,-0.63689 -0.40134,-0.425091 -0.60428,-1.022652 -0.60428,-1.794059 v -7.143497 c 0,-0.763524 0.20266,-1.357335 0.60428,-1.782377 0.40133,-0.432946 0.93976,-0.650913 1.61671,-0.650913 z m -9.98507,11.865445 c -0.0945,0 -0.14217,0.04776 -0.14217,0.14239 v 2.398281 c 0,0.09444 0.0479,0.139994 0.14217,0.139994 h 2.40762 c 0.0867,0 0.13046,-0.04555 0.13046,-0.139994 v -2.398281 c 0,-0.09444 -0.0451,-0.14239 -0.13046,-0.14239 z" style="font-style: normal; font-variant: normal; font-weight: normal; font-stretch: normal; font-size: 15.1831px; line-height: 1.46; font-family: 'Alte DIN 1451 Mittelschrift gepraegt'; text-align: center; text-anchor: middle; opacity: 1; fill-opacity: 1; stroke-width: 0.264584; visibility: hidden;" id="path15637"/>
    <path id="path17496" style="font-size:15.1831px;line-height:1.46;font-family:'Singapore Road Signs';-inkscape-font-specification:'Singapore Road Signs';text-align:center;text-anchor:middle;opacity:1;fill:#ffffff;fill-opacity:1;stroke-width:0.0756548" d="m 570.47468,59.120043 v 50.614317 h 35.43541 V 59.120043 Z m 1.38203,1.660034 h 32.65274 v 47.566083 h -32.65274 z m 13.66823,3.646909 -2.23483,8.869719 h 3.92184 l 0.28216,-8.869719 z m 3.35329,0 0.28216,8.869719 h 3.92385 l -2.23686,-8.869719 z m -15.90932,9.992316 v 1.942234 l 3.06692,1.10806 v 0.584703 h 1.411 v -0.584703 c 0,0 2.08662,-0.313671 4.52568,-0.535349 1.95306,-0.177516 4.1317,-0.271988 5.64407,-0.278037 1.79866,-0.0063 4.45804,0.09363 6.73975,0.288436 2.51319,0.214479 4.5713,0.524984 4.5713,0.524984 v 0.5847 h 1.38199 v -0.5847 l 3.06685,-1.108064 v -1.942233 z m 9.21108,3.620663 -6.70448,26.681115 h 10.04943 l 1.39442,-26.681115 z m 7.25642,0 1.39441,26.681115 h 10.0494 l -6.70443,-26.681115 z"/>
    <g style="font-size:14.7905px;line-height:0;font-family:'Singapore Road Signs';-inkscape-font-specification:'Singapore Road Signs';text-align:center;text-anchor:middle;opacity:1;fill:#860000;fill-opacity:1;stroke-width:6.45213" id="layer1-8" transform="matrix(0.08718024,0,0,0.08718024,-145.22047,195.49013)">
      <circle style="opacity:1;fill:#f00a0a;fill-opacity:1;fill-rule:nonzero;stroke:none;stroke-width:3622.55;stroke-linecap:round;stroke-linejoin:round;stroke-miterlimit:4;stroke-dasharray:none;stroke-opacity:1;paint-order:stroke fill markers" id="path815" cx="6380.9966" cy="-193.29752" r="350"/>
      <circle cy="-193.29752" cx="6380.9966" id="circle817" style="opacity:1;fill:#ffffff;fill-opacity:1;fill-rule:nonzero;stroke:none;stroke-width:2587.55;stroke-linecap:round;stroke-linejoin:round;stroke-miterlimit:4;stroke-dasharray:none;stroke-opacity:1;paint-order:stroke fill markers" r="250"/>
      <g aria-label="20 " style="font-style:normal;font-variant:normal;font-weight:bold;font-stretch:normal;font-size:414.864px;line-height:0;font-family:Giaothong1;-inkscape-font-specification:'Giaothong1 Bold';letter-spacing:0px;word-spacing:0px;fill:#000000;fill-opacity:1;stroke:none;stroke-width:24.7849" id="text874" transform="matrix(-1,0,0,1,1299.029,-383.45)">
        <g aria-label="90" transform="translate(2310.2259,387.54849)" style="font-style:normal;font-variant:normal;font-weight:bold;font-stretch:normal;font-size:414.864px;line-height:0;font-family:Giaothong1;-inkscape-font-specification:'Giaothong1 Bold';letter-spacing:0px;word-spacing:0px;fill:#000000;fill-opacity:1;stroke:none;stroke-width:53.5539" id="text844"/>
      </g>
    </g>
    <g style="font-size:14.7905px;line-height:0;font-family:'Singapore Road Signs';-inkscape-font-specification:'Singapore Road Signs';text-align:center;text-anchor:middle;opacity:1;fill:#fff000;fill-opacity:1;stroke-width:6.45221" id="layer1-7" transform="matrix(0.08717968,0,0,0.08717968,488.77841,183.34565)">
      <circle cy="-54" cx="351" id="circle817-6" style="opacity:1;fill:#0046aa;fill-opacity:1;fill-rule:nonzero;stroke:none;stroke-width:3622.58;stroke-linecap:round;stroke-linejoin:round;stroke-miterlimit:4;stroke-dasharray:none;stroke-opacity:1;paint-order:stroke fill markers" r="350"/>
      <path id="rect984" style="font-style:normal;font-variant:normal;font-weight:bold;font-stretch:normal;font-size:414.864px;line-height:0;font-family:Giaothong1;-inkscape-font-specification:'Giaothong1 Bold';letter-spacing:0px;word-spacing:0px;opacity:1;fill:#ffffff;fill-opacity:1;fill-rule:nonzero;stroke:none;stroke-width:0.344279;stroke-linecap:round;stroke-linejoin:miter;stroke-miterlimit:10;stroke-dasharray:none;stroke-opacity:1;paint-order:stroke fill markers" d="m 851.18164,518.03906 c -16.32678,0 -29.4707,13.14393 -29.4707,29.47071 v 80.94921 c 0,16.32678 13.14392,29.47071 29.4707,29.47071 16.32678,0 29.4707,-13.14393 29.4707,-29.47071 v -80.94921 c 0,-16.32678 -13.14392,-29.47071 -29.4707,-29.47071 z m -69.94336,1.23828 -26.10937,69.75391 c -2.72781,7.40406 -3.70118,11.30112 -3.70118,28.44727 0,18.12042 0.7789,22.01697 4.67579,28.25195 5.26075,8.37828 14.22308,13.44336 24.93945,13.44336 10.91123,0 20.0688,-4.87023 25.13476,-13.44336 3.70197,-6.23498 4.48047,-10.13153 4.48047,-28.25195 0,-22.01726 -0.77798,-26.88814 -4.28515,-32.34375 -3.31232,-5.06591 -9.74347,-8.96289 -16.75782,-8.96289 -4.28653,0 -7.01308,0.77773 -8.37695,1.75195 l -0.39062,-0.38867 22.60156,-58.25782 z m 69.94336,18.74024 c 5.25853,0 9.49219,4.23365 9.49219,9.49219 v 80.94921 c 0,5.25853 -4.23366,9.49219 -9.49219,9.49219 -5.25853,0 -9.49219,-4.23366 -9.49219,-9.49219 v -80.94921 c 0,-5.25854 4.23366,-9.49219 9.49219,-9.49219 z m -70.13867,55.68945 c 5.0659,0 9.74219,3.89738 9.74219,9.9375 v 25.71875 c 0,6.04012 -4.67629,9.9375 -9.74219,9.9375 -5.0659,0 -9.74219,-3.89738 -9.74219,-9.9375 v -25.71875 c 0,-6.04012 4.67629,-9.9375 9.74219,-9.9375 z" transform="matrix(3.0349198,0,0,3.0349198,-2125.7104,-1839.7056)"/>
    </g>
    <g aria-label="6" id="text19759" style="font-size:31.1478px;line-height:1.3;font-family:'Singapore Road Signs';-inkscape-font-specification:'Singapore Road Signs';text-align:center;text-anchor:middle;stroke-width:0.159861" transform="matrix(1.6550836,0,0,1.6550836,-321.31659,-238.56049)"/>
    <path d="M 357.405 46.797 Q 357.299 46.797 357.299 46.691 L 357.299 35.898 L 353.95 35.898 Q 353.845 35.898 353.845 35.793 L 353.845 34.097 Q 353.845 33.991 353.95 33.991 L 362.757 33.991 Q 362.863 33.991 362.863 34.097 L 362.863 35.793 Q 362.863 35.898 362.757 35.898 L 359.417 35.898 L 359.417 46.691 Q 359.417 46.797 359.312 46.797 Z M 363.915 34.097 Q 363.915 33.991 364.021 33.991 L 365.937 33.991 Q 366.033 33.991 366.033 34.097 L 366.033 42.218 Q 366.033 43.483 366.737 44.134 Q 367.448 44.793 368.503 44.793 Q 369.54 44.793 370.252 44.134 Q 370.964 43.475 370.964 42.218 L 370.964 34.097 Q 370.964 33.991 371.07 33.991 L 372.977 33.991 Q 373.082 33.991 373.082 34.097 L 373.082 42.429 Q 373.082 44.45 371.738 45.681 Q 370.41 46.902 368.503 46.902 Q 366.587 46.902 365.251 45.681 Q 363.915 44.45 363.915 42.429 Z M 378.091 46.797 Q 377.995 46.797 377.995 46.691 L 377.995 41.541 Q 377.046 39.686 376.105 37.841 Q 375.165 35.995 374.224 34.141 Q 374.198 34.079 374.224 34.035 Q 374.251 33.991 374.321 33.991 L 376.325 33.991 Q 376.351 33.991 376.378 34.013 Q 376.404 34.035 376.422 34.053 L 379.005 39.449 Q 379.656 38.087 380.293 36.751 Q 380.93 35.415 381.581 34.053 Q 381.598 34.035 381.625 34.013 Q 381.651 33.991 381.677 33.991 L 383.69 33.991 Q 383.76 33.991 383.787 34.035 Q 383.813 34.079 383.787 34.141 L 380.007 41.541 L 380.007 46.691 Q 380.007 46.797 379.902 46.797 Z M 385.201 46.797 Q 385.095 46.797 385.095 46.691 L 385.095 34.097 Q 385.095 33.991 385.201 33.991 L 393.251 33.991 Q 393.357 33.991 393.357 34.097 L 393.357 35.907 Q 393.357 36.013 393.251 36.013 L 387.213 36.013 L 387.213 39.388 L 392.346 39.388 Q 392.451 39.388 392.451 39.493 L 392.451 41.198 Q 392.451 41.295 392.346 41.295 L 387.213 41.295 L 387.213 44.793 L 393.251 44.793 Q 393.357 44.793 393.357 44.898 L 393.357 46.691 Q 393.357 46.797 393.251 46.797 Z M 386.097 32.857 Q 386.018 32.857 386 32.787 Q 385.983 32.717 386.035 32.673 L 388.619 30.625 L 389.806 30.625 L 392.425 32.673 Q 392.487 32.717 392.465 32.787 Q 392.443 32.857 392.364 32.857 L 390.887 32.857 L 389.129 31.908 Q 388.742 32.145 388.347 32.383 Q 387.951 32.62 387.565 32.857 Z M 395.201 46.797 Q 395.095 46.797 395.095 46.691 L 395.095 34.097 Q 395.095 33.991 395.201 33.991 L 397.011 33.991 Q 397.064 33.991 397.099 34.044 L 402.636 42.763 L 402.636 34.097 Q 402.636 33.991 402.742 33.991 L 404.658 33.991 Q 404.763 33.991 404.763 34.097 L 404.763 46.691 Q 404.763 46.797 404.658 46.797 L 402.856 46.797 Q 402.803 46.797 402.768 46.744 L 397.214 38.025 L 397.214 46.691 Q 397.214 46.797 397.117 46.797 Z M 415.289 43.255 Q 415.254 43.228 415.249 43.184 Q 415.245 43.141 415.271 43.105 L 416.405 41.805 Q 416.476 41.725 416.546 41.796 L 417.891 42.85 Q 417.961 42.508 417.992 41.91 Q 418.022 41.312 418.022 40.398 Q 418.022 39.44 417.987 38.821 Q 417.952 38.201 417.882 37.911 Q 417.811 37.63 417.688 37.362 Q 417.565 37.094 417.407 36.883 Q 417.275 36.716 417.086 36.558 Q 416.897 36.399 416.66 36.281 Q 416.423 36.162 416.142 36.087 Q 415.86 36.013 415.535 36.013 Q 414.885 36.013 414.414 36.276 Q 413.944 36.54 413.672 36.883 Q 413.496 37.094 413.377 37.362 Q 413.259 37.63 413.188 37.911 Q 413.057 38.509 413.057 40.398 Q 413.057 42.306 413.188 42.894 Q 413.259 43.167 413.382 43.435 Q 413.505 43.703 413.672 43.905 Q 413.944 44.274 414.414 44.534 Q 414.885 44.793 415.535 44.793 Q 416.247 44.793 416.783 44.441 Z M 420.185 47.052 Q 420.158 47.078 420.114 47.078 Q 420.07 47.078 420.035 47.052 L 418.515 45.848 Q 417.943 46.313 417.196 46.608 Q 416.449 46.902 415.535 46.902 Q 414.023 46.902 412.977 46.173 Q 411.976 45.452 411.501 44.591 L 411.51 44.591 Q 411.352 44.292 411.237 43.989 Q 411.123 43.685 411.061 43.351 Q 410.938 42.657 410.938 40.398 Q 410.938 39.247 410.969 38.517 Q 411 37.788 411.061 37.454 Q 411.123 37.12 411.237 36.812 Q 411.352 36.505 411.51 36.206 L 411.501 36.206 Q 411.729 35.784 412.099 35.389 Q 412.468 34.993 412.977 34.624 Q 414.015 33.886 415.535 33.886 Q 417.056 33.886 418.084 34.624 Q 419.103 35.371 419.578 36.206 Q 419.727 36.496 419.842 36.808 Q 419.956 37.12 420.018 37.454 Q 420.079 37.788 420.11 38.517 Q 420.141 39.247 420.141 40.398 Q 420.141 42.455 420.035 43.167 Q 419.991 43.501 419.908 43.787 Q 419.824 44.072 419.701 44.318 Q 420.097 44.626 420.501 44.955 Q 420.905 45.285 421.301 45.593 Q 421.336 45.619 421.345 45.663 Q 421.353 45.707 421.318 45.742 Z M 422.462 34.097 Q 422.462 33.991 422.568 33.991 L 424.484 33.991 Q 424.58 33.991 424.58 34.097 L 424.58 42.218 Q 424.58 43.483 425.284 44.134 Q 425.995 44.793 427.05 44.793 Q 428.087 44.793 428.799 44.134 Q 429.511 43.475 429.511 42.218 L 429.511 34.097 Q 429.511 33.991 429.617 33.991 L 431.524 33.991 Q 431.629 33.991 431.629 34.097 L 431.629 42.429 Q 431.629 44.45 430.285 45.681 Q 428.957 46.902 427.05 46.902 Q 425.134 46.902 423.798 45.681 Q 422.462 44.45 422.462 42.429 Z M 432.402 46.788 Q 432.34 46.788 432.314 46.744 Q 432.288 46.7 432.305 46.647 L 436.911 34.044 Q 436.928 33.974 436.999 33.974 L 438.572 33.974 Q 438.598 33.974 438.629 33.996 Q 438.66 34.017 438.668 34.044 L 443.265 46.647 Q 443.283 46.7 443.256 46.744 Q 443.23 46.788 443.177 46.788 L 441.165 46.788 Q 441.094 46.788 441.077 46.718 L 440.127 43.94 L 435.487 43.94 Q 435.241 44.652 434.999 45.333 Q 434.757 46.015 434.511 46.718 Q 434.502 46.744 434.472 46.766 Q 434.441 46.788 434.415 46.788 Z M 439.495 42.051 Q 439.477 41.989 439.446 41.919 Q 439.416 41.849 439.398 41.796 Q 439.249 41.365 439.126 41 Q 439.002 40.636 438.906 40.363 Q 438.844 40.187 438.787 40.02 Q 438.73 39.853 438.677 39.704 Q 438.633 39.563 438.589 39.436 Q 438.545 39.309 438.501 39.185 Q 438.422 38.931 438.339 38.676 Q 438.255 38.421 438.168 38.148 Q 438.124 38.025 438.075 37.876 Q 438.027 37.726 437.974 37.559 Q 437.948 37.472 437.935 37.423 Q 437.921 37.375 437.904 37.327 Q 437.886 37.278 437.864 37.217 Q 437.842 37.155 437.807 37.041 Q 437.71 37.331 437.627 37.577 Q 437.543 37.823 437.473 38.034 Q 437.456 38.087 437.447 38.131 Q 437.438 38.175 437.42 38.219 Q 437.376 38.368 437.328 38.5 Q 437.28 38.632 437.236 38.764 Q 437.192 38.904 437.148 39.036 Q 437.104 39.168 437.06 39.291 Q 436.972 39.555 436.88 39.845 Q 436.788 40.135 436.673 40.451 Q 436.559 40.767 436.436 41.132 Q 436.313 41.497 436.12 42.051 Z M 444.361 46.797 Q 444.256 46.797 444.256 46.691 L 444.256 34.097 Q 444.256 33.991 444.361 33.991 L 446.172 33.991 Q 446.225 33.991 446.26 34.044 L 451.797 42.763 L 451.797 34.097 Q 451.797 33.991 451.902 33.991 L 453.818 33.991 Q 453.924 33.991 453.924 34.097 L 453.924 46.691 Q 453.924 46.797 453.818 46.797 L 452.017 46.797 Q 451.964 46.797 451.929 46.744 L 446.374 38.025 L 446.374 46.691 Q 446.374 46.797 446.277 46.797 Z M 460.752 41.673 Q 460.646 41.673 460.646 41.567 L 460.646 39.757 Q 460.646 39.66 460.752 39.66 L 465.225 39.66 Q 465.331 39.66 465.331 39.757 L 465.331 42.323 Q 465.331 44.266 463.995 45.575 Q 462.641 46.902 460.734 46.902 Q 459.214 46.902 458.177 46.173 Q 457.157 45.452 456.7 44.591 L 456.709 44.591 Q 456.542 44.292 456.427 43.989 Q 456.313 43.685 456.252 43.351 Q 456.199 43.017 456.168 42.284 Q 456.137 41.55 456.137 40.398 Q 456.137 39.247 456.168 38.517 Q 456.199 37.788 456.252 37.454 Q 456.313 37.12 456.427 36.812 Q 456.542 36.505 456.709 36.206 L 456.7 36.206 Q 457.157 35.353 458.177 34.624 Q 459.205 33.886 460.734 33.886 Q 462.562 33.886 463.758 35.011 Q 464.97 36.136 465.26 37.7 Q 465.278 37.753 465.243 37.788 Q 465.208 37.823 465.155 37.823 L 463.142 37.823 Q 463.063 37.823 463.046 37.753 Q 462.931 37.401 462.72 37.098 Q 462.51 36.795 462.202 36.531 Q 461.622 36.013 460.734 36.013 Q 460.075 36.013 459.609 36.276 Q 459.143 36.54 458.862 36.883 Q 458.695 37.094 458.572 37.362 Q 458.449 37.63 458.379 37.911 Q 458.308 38.21 458.282 38.834 Q 458.256 39.458 458.256 40.398 Q 458.256 41.356 458.282 41.976 Q 458.308 42.596 458.379 42.894 Q 458.449 43.167 458.576 43.435 Q 458.704 43.703 458.862 43.905 Q 459.143 44.274 459.609 44.534 Q 460.075 44.793 460.734 44.793 Q 461.78 44.793 462.492 44.081 Q 463.213 43.369 463.213 42.218 L 463.213 41.673 Z" transform="matrix(1.310387, 0, 0, 1.310387, -59.698294, -1.169035)" style="fill: rgb(255, 255, 255);"/>
    <path transform="matrix(1.310387, 0, 0, 1.310387, -59.698294, -1.169035)" style="fill: rgb(255, 255, 255);"/>
    <path d="M 379.696 72.357 Q 379.591 72.357 379.591 72.251 L 379.591 66.855 L 374.801 66.855 L 374.801 72.251 Q 374.801 72.357 374.695 72.357 L 372.788 72.357 Q 372.683 72.357 372.683 72.251 L 372.683 59.657 Q 372.683 59.551 372.788 59.551 L 374.695 59.551 Q 374.801 59.551 374.801 59.657 L 374.801 64.948 L 379.591 64.948 L 379.591 59.657 Q 379.591 59.551 379.696 59.551 L 381.603 59.551 Q 381.709 59.551 381.709 59.657 L 381.709 72.251 Q 381.709 72.357 381.603 72.357 Z M 383.21 72.348 Q 383.149 72.348 383.122 72.304 Q 383.096 72.26 383.114 72.207 L 387.719 59.604 Q 387.737 59.534 387.807 59.534 L 389.38 59.534 Q 389.406 59.534 389.437 59.556 Q 389.468 59.577 389.477 59.604 L 394.073 72.207 Q 394.091 72.26 394.065 72.304 Q 394.038 72.348 393.986 72.348 L 391.973 72.348 Q 391.903 72.348 391.885 72.278 L 390.936 69.5 L 386.295 69.5 Q 386.049 70.212 385.807 70.893 Q 385.566 71.575 385.32 72.278 Q 385.311 72.304 385.28 72.326 Q 385.249 72.348 385.223 72.348 Z M 390.303 67.611 Q 390.285 67.549 390.255 67.479 Q 390.224 67.409 390.206 67.356 Q 390.057 66.925 389.934 66.56 Q 389.811 66.196 389.714 65.923 Q 389.653 65.747 389.595 65.58 Q 389.538 65.413 389.486 65.264 Q 389.442 65.123 389.398 64.996 Q 389.354 64.869 389.31 64.745 Q 389.231 64.491 389.147 64.236 Q 389.064 63.981 388.976 63.708 Q 388.932 63.585 388.884 63.436 Q 388.835 63.286 388.782 63.119 Q 388.756 63.032 388.743 62.983 Q 388.73 62.935 388.712 62.887 Q 388.695 62.838 388.673 62.777 Q 388.651 62.715 388.615 62.601 Q 388.519 62.891 388.435 63.137 Q 388.352 63.383 388.281 63.594 Q 388.264 63.647 388.255 63.691 Q 388.246 63.735 388.229 63.779 Q 388.185 63.928 388.136 64.06 Q 388.088 64.192 388.044 64.324 Q 388 64.464 387.956 64.596 Q 387.912 64.728 387.868 64.851 Q 387.781 65.115 387.688 65.405 Q 387.596 65.695 387.482 66.011 Q 387.367 66.327 387.244 66.692 Q 387.121 67.057 386.928 67.611 Z M 389.143 58.417 Q 389.125 58.417 389.099 58.404 Q 389.073 58.391 389.064 58.382 L 386.638 55.816 Q 386.585 55.763 386.616 55.702 Q 386.647 55.64 386.717 55.64 L 388.651 55.64 Q 388.703 55.64 388.739 55.693 L 390.575 58.259 Q 390.602 58.321 390.58 58.369 Q 390.558 58.417 390.488 58.417 Z M 404.065 67.233 Q 403.96 67.233 403.96 67.127 L 403.96 65.317 Q 403.96 65.22 404.065 65.22 L 408.539 65.22 Q 408.644 65.22 408.644 65.317 L 408.644 67.883 Q 408.644 69.826 407.308 71.135 Q 405.955 72.462 404.048 72.462 Q 402.527 72.462 401.49 71.733 Q 400.47 71.012 400.013 70.151 L 400.022 70.151 Q 399.855 69.852 399.741 69.549 Q 399.627 69.245 399.565 68.911 Q 399.512 68.577 399.482 67.844 Q 399.451 67.11 399.451 65.958 Q 399.451 64.807 399.482 64.077 Q 399.512 63.348 399.565 63.014 Q 399.627 62.68 399.741 62.372 Q 399.855 62.065 400.022 61.766 L 400.013 61.766 Q 400.47 60.913 401.49 60.184 Q 402.518 59.446 404.048 59.446 Q 405.876 59.446 407.071 60.571 Q 408.284 61.696 408.574 63.26 Q 408.592 63.313 408.556 63.348 Q 408.521 63.383 408.469 63.383 L 406.456 63.383 Q 406.377 63.383 406.359 63.313 Q 406.245 62.961 406.034 62.658 Q 405.823 62.355 405.515 62.091 Q 404.935 61.573 404.048 61.573 Q 403.388 61.573 402.923 61.836 Q 402.457 62.1 402.176 62.443 Q 402.009 62.654 401.885 62.922 Q 401.762 63.19 401.692 63.471 Q 401.622 63.77 401.595 64.394 Q 401.569 65.018 401.569 65.958 Q 401.569 66.916 401.595 67.536 Q 401.622 68.156 401.692 68.454 Q 401.762 68.727 401.89 68.995 Q 402.017 69.263 402.176 69.465 Q 402.457 69.834 402.923 70.094 Q 403.388 70.353 404.048 70.353 Q 405.094 70.353 405.805 69.641 Q 406.526 68.929 406.526 67.778 L 406.526 67.233 Z M 410.928 72.357 Q 410.822 72.357 410.822 72.251 L 410.822 59.657 Q 410.822 59.551 410.928 59.551 L 412.835 59.551 Q 412.94 59.551 412.94 59.657 L 412.94 72.251 Q 412.94 72.357 412.835 72.357 Z M 414.355 72.348 Q 414.294 72.348 414.267 72.304 Q 414.241 72.26 414.258 72.207 L 418.864 59.604 Q 418.881 59.534 418.952 59.534 L 420.525 59.534 Q 420.551 59.534 420.582 59.556 Q 420.613 59.577 420.622 59.604 L 425.218 72.207 Q 425.236 72.26 425.21 72.304 Q 425.183 72.348 425.13 72.348 L 423.118 72.348 Q 423.047 72.348 423.03 72.278 L 422.081 69.5 L 417.44 69.5 Q 417.194 70.212 416.952 70.893 Q 416.711 71.575 416.464 72.278 Q 416.456 72.304 416.425 72.326 Q 416.394 72.348 416.368 72.348 Z M 421.448 67.611 Q 421.43 67.549 421.4 67.479 Q 421.369 67.409 421.351 67.356 Q 421.202 66.925 421.079 66.56 Q 420.956 66.196 420.859 65.923 Q 420.797 65.747 420.74 65.58 Q 420.683 65.413 420.63 65.264 Q 420.587 65.123 420.543 64.996 Q 420.499 64.869 420.455 64.745 Q 420.376 64.491 420.292 64.236 Q 420.209 63.981 420.121 63.708 Q 420.077 63.585 420.028 63.436 Q 419.98 63.286 419.927 63.119 Q 419.901 63.032 419.888 62.983 Q 419.875 62.935 419.857 62.887 Q 419.839 62.838 419.817 62.777 Q 419.796 62.715 419.76 62.601 Q 419.664 62.891 419.58 63.137 Q 419.497 63.383 419.426 63.594 Q 419.409 63.647 419.4 63.691 Q 419.391 63.735 419.374 63.779 Q 419.33 63.928 419.281 64.06 Q 419.233 64.192 419.189 64.324 Q 419.145 64.464 419.101 64.596 Q 419.057 64.728 419.013 64.851 Q 418.925 65.115 418.833 65.405 Q 418.741 65.695 418.627 66.011 Q 418.512 66.327 418.389 66.692 Q 418.266 67.057 418.073 67.611 Z M 426.807 72.357 Q 426.702 72.357 426.702 72.251 L 426.702 59.657 Q 426.702 59.551 426.807 59.551 L 428.618 59.551 Q 428.67 59.551 428.705 59.604 L 434.243 68.323 L 434.243 59.657 Q 434.243 59.551 434.348 59.551 L 436.264 59.551 Q 436.369 59.551 436.369 59.657 L 436.369 72.251 Q 436.369 72.357 436.264 72.357 L 434.462 72.357 Q 434.41 72.357 434.374 72.304 L 428.82 63.585 L 428.82 72.251 Q 428.82 72.357 428.723 72.357 Z M 443.197 67.233 Q 443.092 67.233 443.092 67.127 L 443.092 65.317 Q 443.092 65.22 443.197 65.22 L 447.671 65.22 Q 447.776 65.22 447.776 65.317 L 447.776 67.883 Q 447.776 69.826 446.44 71.135 Q 445.087 72.462 443.18 72.462 Q 441.659 72.462 440.622 71.733 Q 439.603 71.012 439.146 70.151 L 439.154 70.151 Q 438.987 69.852 438.873 69.549 Q 438.759 69.245 438.697 68.911 Q 438.645 68.577 438.614 67.844 Q 438.583 67.11 438.583 65.958 Q 438.583 64.807 438.614 64.077 Q 438.645 63.348 438.697 63.014 Q 438.759 62.68 438.873 62.372 Q 438.987 62.065 439.154 61.766 L 439.146 61.766 Q 439.603 60.913 440.622 60.184 Q 441.65 59.446 443.18 59.446 Q 445.008 59.446 446.203 60.571 Q 447.416 61.696 447.706 63.26 Q 447.724 63.313 447.688 63.348 Q 447.653 63.383 447.601 63.383 L 445.588 63.383 Q 445.509 63.383 445.491 63.313 Q 445.377 62.961 445.166 62.658 Q 444.955 62.355 444.647 62.091 Q 444.067 61.573 443.18 61.573 Q 442.521 61.573 442.055 61.836 Q 441.589 62.1 441.308 62.443 Q 441.141 62.654 441.018 62.922 Q 440.895 63.19 440.824 63.471 Q 440.754 63.77 440.728 64.394 Q 440.701 65.018 440.701 65.958 Q 440.701 66.916 440.728 67.536 Q 440.754 68.156 440.824 68.454 Q 440.895 68.727 441.022 68.995 Q 441.149 69.263 441.308 69.465 Q 441.589 69.834 442.055 70.094 Q 442.521 70.353 443.18 70.353 Q 444.226 70.353 444.938 69.641 Q 445.658 68.929 445.658 67.778 L 445.658 67.233 Z" transform="matrix(1.310387, 0, 0, 1.310387, -59.698294, -1.169035)" style="fill: rgb(255, 255, 255);"/>
    <path d="M 426.152 119.118 Q 426.045 119.118 426.045 119.011 L 426.045 106.277 Q 426.045 106.17 426.152 106.17 L 434.292 106.17 Q 434.399 106.17 434.399 106.277 L 434.399 108.107 Q 434.399 108.214 434.292 108.214 L 428.187 108.214 L 428.187 111.626 L 433.377 111.626 Q 433.484 111.626 433.484 111.733 L 433.484 113.457 Q 433.484 113.555 433.377 113.555 L 428.187 113.555 L 428.187 117.092 L 434.292 117.092 Q 434.399 117.092 434.399 117.198 L 434.399 119.011 Q 434.399 119.118 434.292 119.118 Z M 442.57 119.118 Q 442.517 119.118 442.481 119.065 L 439.78 114.479 Q 439.104 115.634 438.429 116.772 Q 437.753 117.909 437.078 119.065 Q 437.043 119.118 436.989 119.118 L 434.812 119.118 Q 434.741 119.118 434.714 119.069 Q 434.688 119.02 434.723 118.958 L 438.589 112.48 Q 437.673 110.933 436.776 109.405 Q 435.878 107.876 434.972 106.33 Q 434.936 106.268 434.963 106.219 Q 434.99 106.17 435.052 106.17 L 437.238 106.17 Q 437.291 106.17 437.327 106.223 L 439.78 110.489 Q 440.393 109.422 441.006 108.361 Q 441.619 107.299 442.232 106.223 Q 442.268 106.17 442.321 106.17 L 444.507 106.17 Q 444.57 106.17 444.596 106.219 Q 444.623 106.268 444.587 106.33 L 440.97 112.48 Q 441.948 114.106 442.908 115.719 Q 443.868 117.332 444.845 118.958 Q 444.881 119.02 444.854 119.069 Q 444.827 119.118 444.756 119.118 Z M 448.148 108.214 L 448.148 112.106 L 450.912 112.106 Q 451.934 112.106 452.431 111.493 Q 452.938 110.898 452.938 110.16 Q 452.938 109.058 452.156 108.552 Q 451.649 108.214 450.841 108.214 Z M 446.113 119.118 Q 446.006 119.118 446.006 119.011 L 446.006 106.277 Q 446.006 106.17 446.113 106.17 L 450.734 106.17 Q 451.498 106.17 452.183 106.33 Q 452.876 106.49 453.658 107.094 Q 453.96 107.334 454.213 107.65 Q 454.466 107.965 454.671 108.347 Q 454.866 108.738 454.973 109.209 Q 455.08 109.68 455.08 110.213 Q 455.08 111.609 454.031 112.879 Q 452.982 114.141 450.983 114.141 L 448.148 114.141 L 448.148 119.011 Q 448.148 119.118 448.041 119.118 Z M 458.765 108.098 L 458.765 111.751 L 461.582 111.751 Q 462.613 111.751 463.129 111.182 Q 463.644 110.613 463.644 109.831 Q 463.644 109.387 463.489 109.04 Q 463.333 108.694 463.04 108.472 Q 462.782 108.294 462.44 108.196 Q 462.098 108.098 461.698 108.098 Z M 456.73 119.118 Q 456.624 119.118 456.624 119.011 L 456.624 106.277 Q 456.624 106.17 456.73 106.17 L 461.716 106.17 Q 462.542 106.17 463.209 106.397 Q 463.875 106.623 464.373 107.041 Q 464.631 107.281 464.866 107.587 Q 465.102 107.894 465.284 108.249 Q 465.466 108.605 465.573 109.005 Q 465.679 109.405 465.679 109.831 Q 465.679 110.462 465.501 111.027 Q 465.324 111.591 465.004 112.08 Q 464.675 112.533 464.24 112.875 Q 463.804 113.217 463.253 113.421 Q 463.973 114.799 464.702 116.19 Q 465.43 117.58 466.15 118.958 Q 466.177 119.02 466.15 119.069 Q 466.124 119.118 466.061 119.118 L 463.769 119.118 Q 463.742 119.118 463.715 119.096 Q 463.689 119.073 463.671 119.056 L 461.067 113.679 L 458.765 113.679 L 458.765 119.011 Q 458.765 119.118 458.659 119.118 Z M 467.658 119.118 Q 467.551 119.118 467.551 119.011 L 467.551 106.277 Q 467.551 106.17 467.658 106.17 L 475.798 106.17 Q 475.905 106.17 475.905 106.277 L 475.905 108.107 Q 475.905 108.214 475.798 108.214 L 469.693 108.214 L 469.693 111.626 L 474.883 111.626 Q 474.99 111.626 474.99 111.733 L 474.99 113.457 Q 474.99 113.555 474.883 113.555 L 469.693 113.555 L 469.693 117.092 L 475.798 117.092 Q 475.905 117.092 475.905 117.198 L 475.905 119.011 Q 475.905 119.118 475.798 119.118 Z M 477.682 115.848 Q 477.708 115.812 477.753 115.812 Q 477.797 115.812 477.833 115.839 Q 478.535 116.407 479.446 116.75 Q 480.357 117.092 481.37 117.092 Q 482.507 117.092 483.165 116.621 Q 483.787 116.167 483.787 115.421 Q 483.787 114.017 482.214 113.804 L 482.223 113.804 Q 482.001 113.777 481.801 113.75 Q 481.601 113.724 481.401 113.697 Q 481.201 113.67 480.992 113.639 Q 480.783 113.608 480.534 113.573 Q 479.699 113.457 479.046 113.15 Q 478.393 112.844 477.948 112.337 Q 477.504 111.822 477.282 111.213 Q 477.06 110.604 477.06 109.885 Q 477.06 108.196 478.179 107.139 Q 479.308 106.063 481.316 106.063 Q 481.912 106.063 482.476 106.165 Q 483.04 106.268 483.569 106.445 Q 484.098 106.623 484.582 106.868 Q 485.067 107.112 485.511 107.405 Q 485.6 107.467 485.538 107.556 L 484.462 109.147 Q 484.4 109.227 484.32 109.174 Q 483.627 108.738 482.845 108.476 Q 482.063 108.214 481.228 108.214 Q 480.801 108.214 480.437 108.316 Q 480.072 108.418 479.779 108.649 Q 479.201 109.067 479.201 109.92 Q 479.201 110.409 479.592 110.871 Q 479.788 111.084 480.117 111.231 Q 480.446 111.378 480.925 111.449 Q 481.183 111.493 481.53 111.542 Q 481.876 111.591 482.347 111.644 Q 484.169 111.866 485.049 112.986 Q 485.929 114.079 485.929 115.421 Q 485.929 117.216 484.676 118.229 Q 483.414 119.225 481.352 119.225 Q 478.446 119.225 476.411 117.447 Q 476.375 117.421 476.375 117.376 Q 476.375 117.332 476.402 117.296 Z M 487.952 115.848 Q 487.979 115.812 488.023 115.812 Q 488.068 115.812 488.103 115.839 Q 488.805 116.407 489.716 116.75 Q 490.627 117.092 491.64 117.092 Q 492.778 117.092 493.435 116.621 Q 494.057 116.167 494.057 115.421 Q 494.057 114.017 492.484 113.804 L 492.493 113.804 Q 492.271 113.777 492.071 113.75 Q 491.871 113.724 491.671 113.697 Q 491.471 113.67 491.262 113.639 Q 491.054 113.608 490.805 113.573 Q 489.969 113.457 489.316 113.15 Q 488.663 112.844 488.219 112.337 Q 487.774 111.822 487.552 111.213 Q 487.33 110.604 487.33 109.885 Q 487.33 108.196 488.45 107.139 Q 489.578 106.063 491.587 106.063 Q 492.182 106.063 492.746 106.165 Q 493.311 106.268 493.84 106.445 Q 494.368 106.623 494.853 106.868 Q 495.337 107.112 495.781 107.405 Q 495.87 107.467 495.808 107.556 L 494.733 109.147 Q 494.67 109.227 494.59 109.174 Q 493.897 108.738 493.115 108.476 Q 492.333 108.214 491.498 108.214 Q 491.071 108.214 490.707 108.316 Q 490.343 108.418 490.049 108.649 Q 489.472 109.067 489.472 109.92 Q 489.472 110.409 489.863 110.871 Q 490.058 111.084 490.387 111.231 Q 490.716 111.378 491.196 111.449 Q 491.453 111.493 491.8 111.542 Q 492.147 111.591 492.618 111.644 Q 494.439 111.866 495.319 112.986 Q 496.199 114.079 496.199 115.421 Q 496.199 117.216 494.946 118.229 Q 493.684 119.225 491.622 119.225 Q 488.716 119.225 486.681 117.447 Q 486.646 117.421 486.646 117.376 Q 486.646 117.332 486.672 117.296 Z M 500.204 119.118 Q 500.115 119.118 500.097 119.038 L 496.907 106.303 Q 496.889 106.25 496.925 106.21 Q 496.96 106.17 497.014 106.17 L 499.058 106.17 Q 499.147 106.17 499.164 106.25 L 501.084 114.95 Q 501.67 112.764 502.266 110.604 Q 502.861 108.445 503.457 106.25 Q 503.474 106.17 503.563 106.17 L 504.959 106.17 Q 505.039 106.17 505.056 106.25 L 507.438 114.95 Q 507.918 112.764 508.398 110.604 Q 508.878 108.445 509.357 106.25 Q 509.375 106.17 509.464 106.17 L 511.508 106.17 Q 511.561 106.17 511.597 106.21 Q 511.632 106.25 511.615 106.303 L 508.424 119.038 Q 508.407 119.118 508.318 119.118 L 506.709 119.118 Q 506.629 119.118 506.611 119.038 L 504.256 110.196 Q 503.67 112.426 503.083 114.621 Q 502.497 116.816 501.91 119.038 Q 501.893 119.118 501.813 119.118 Z M 511.529 119.109 Q 511.467 119.109 511.44 119.065 Q 511.414 119.02 511.431 118.967 L 516.088 106.223 Q 516.106 106.152 516.177 106.152 L 517.768 106.152 Q 517.794 106.152 517.825 106.174 Q 517.857 106.197 517.865 106.223 L 522.513 118.967 Q 522.531 119.02 522.504 119.065 Q 522.478 119.109 522.424 119.109 L 520.389 119.109 Q 520.318 119.109 520.3 119.038 L 519.341 116.23 L 514.648 116.23 Q 514.4 116.95 514.155 117.638 Q 513.911 118.327 513.662 119.038 Q 513.653 119.065 513.622 119.087 Q 513.591 119.109 513.564 119.109 Z M 518.701 114.319 Q 518.683 114.257 518.652 114.186 Q 518.621 114.115 518.603 114.061 Q 518.452 113.626 518.328 113.257 Q 518.203 112.888 518.105 112.613 Q 518.043 112.435 517.985 112.266 Q 517.928 112.097 517.874 111.946 Q 517.83 111.804 517.785 111.675 Q 517.741 111.546 517.697 111.422 Q 517.617 111.164 517.532 110.907 Q 517.448 110.649 517.359 110.373 Q 517.314 110.249 517.266 110.098 Q 517.217 109.947 517.163 109.778 Q 517.137 109.689 517.123 109.64 Q 517.11 109.591 517.092 109.542 Q 517.075 109.494 517.052 109.431 Q 517.03 109.369 516.995 109.254 Q 516.897 109.547 516.812 109.796 Q 516.728 110.045 516.657 110.258 Q 516.639 110.311 516.63 110.356 Q 516.621 110.4 516.604 110.444 Q 516.559 110.596 516.51 110.729 Q 516.461 110.862 516.417 110.995 Q 516.372 111.138 516.328 111.271 Q 516.284 111.404 516.239 111.529 Q 516.15 111.795 516.057 112.088 Q 515.964 112.382 515.848 112.702 Q 515.733 113.022 515.608 113.39 Q 515.484 113.759 515.288 114.319 Z M 525.495 119.118 Q 525.398 119.118 525.398 119.011 L 525.398 113.804 Q 524.438 111.929 523.487 110.062 Q 522.536 108.196 521.585 106.321 Q 521.559 106.259 521.585 106.214 Q 521.612 106.17 521.683 106.17 L 523.709 106.17 Q 523.736 106.17 523.763 106.192 Q 523.789 106.214 523.807 106.232 L 526.42 111.689 Q 527.077 110.311 527.722 108.96 Q 528.366 107.61 529.023 106.232 Q 529.041 106.214 529.068 106.192 Q 529.095 106.17 529.121 106.17 L 531.156 106.17 Q 531.227 106.17 531.254 106.214 Q 531.281 106.259 531.254 106.321 L 527.433 113.804 L 527.433 119.011 Q 527.433 119.118 527.326 119.118 Z" style="fill: rgb(255, 255, 255);"/>
    <path d="M 409.62 185.664 Q 409.62 186.76 409.072 187.953 Q 408.524 189.146 407.295 189.995 Q 406.067 190.843 404.618 190.843 Q 403.062 190.843 401.763 190.048 Q 400.464 189.252 399.987 188.262 Q 399.509 187.273 399.403 186.619 Q 399.297 185.965 399.297 185.275 L 399.297 181.033 Q 399.297 180.061 399.748 179.283 Q 400.199 178.505 401.029 177.887 Q 399.297 176.579 399.297 174.299 L 399.297 171.046 Q 399.297 170.357 399.571 169.65 Q 399.845 168.943 400.87 167.608 Q 401.896 166.274 404.547 166.274 Q 405.554 166.274 406.465 166.689 Q 407.375 167.105 408.497 168.28 Q 409.62 169.455 409.62 171.453 L 409.62 174.564 Q 409.62 176.649 407.87 177.887 Q 409.62 179.089 409.62 181.298 Z M 404.476 169.703 Q 403.716 169.703 403.212 170.215 Q 402.709 170.728 402.709 171.453 L 402.709 174.564 Q 402.709 175.394 403.159 175.987 Q 403.61 176.579 404.441 176.579 Q 405.342 176.579 405.758 176.022 Q 406.173 175.465 406.173 174.564 L 406.173 171.453 Q 406.173 170.763 405.687 170.233 Q 405.201 169.703 404.476 169.703 Z M 404.476 179.195 Q 403.681 179.195 403.195 179.716 Q 402.709 180.238 402.709 181.033 L 402.709 185.275 Q 402.709 186.212 403.142 186.795 Q 403.575 187.379 404.547 187.379 Q 405.484 187.379 405.828 186.76 Q 406.173 186.141 406.173 185.275 L 406.173 181.033 Q 406.173 180.238 405.722 179.716 Q 405.272 179.195 404.476 179.195 Z M 415.498 190.856 Q 411.698 190.131 411.079 186.401 Q 411.079 182.53 411.079 178.642 Q 411.079 174.753 411.079 170.847 Q 411.556 168.019 413.58 167.038 Q 415.604 166.057 418.202 166.64 Q 419.51 167.435 420.306 168.319 Q 421.101 169.203 421.402 170.847 Q 421.402 174.753 421.402 178.624 Q 421.402 182.495 421.402 186.331 Q 420.889 189.848 417.637 190.82 Q 417.23 190.82 416.956 190.838 Q 416.682 190.856 415.498 190.856 Z M 415.851 187.374 Q 417.442 187.374 417.884 185.977 Q 417.884 182.318 417.884 178.677 Q 417.884 175.036 417.884 171.377 Q 417.672 170.723 417.407 170.299 Q 416.364 169.503 415.639 169.954 Q 414.915 170.405 414.596 171.377 Q 414.596 175.001 414.596 178.642 Q 414.596 182.283 414.596 185.906 Q 414.809 187.02 415.851 187.374 Z"/>
    <path d="M 343.122 84.558 Q 343.194 84.558 343.243 84.612 Q 343.291 84.666 343.267 84.738 Q 342.762 87.189 341.032 88.51 Q 340.192 89.147 339.207 89.471 Q 338.222 89.795 337.08 89.795 Q 335.002 89.795 333.585 88.798 Q 332.192 87.813 331.567 86.636 Q 331.351 86.228 331.195 85.813 Q 331.039 85.399 330.955 84.942 Q 330.798 84.054 330.798 80.906 Q 330.798 79.333 330.834 78.336 Q 330.87 77.339 330.955 76.883 Q 331.039 76.426 331.195 76.006 Q 331.351 75.585 331.567 75.177 Q 332.192 74.012 333.585 73.015 Q 334.99 72.006 337.08 72.006 Q 339.579 72.006 341.213 73.543 Q 342.87 75.093 343.267 77.219 Q 343.291 77.291 343.243 77.339 Q 343.194 77.387 343.122 77.387 L 340.372 77.387 Q 340.264 77.387 340.24 77.291 Q 340.083 76.81 339.795 76.396 Q 339.507 75.982 339.086 75.621 Q 338.294 74.913 337.08 74.913 Q 336.18 74.913 335.543 75.273 Q 334.906 75.633 334.522 76.102 Q 334.294 76.39 334.126 76.756 Q 333.957 77.123 333.861 77.507 Q 333.765 77.916 333.729 78.768 Q 333.693 79.621 333.693 80.906 Q 333.693 82.216 333.729 83.063 Q 333.765 83.909 333.861 84.318 Q 333.957 84.69 334.132 85.057 Q 334.306 85.423 334.522 85.699 Q 334.906 86.204 335.543 86.558 Q 336.18 86.912 337.08 86.912 Q 339.159 86.912 340.24 84.642 Q 340.264 84.618 340.3 84.588 Q 340.336 84.558 340.372 84.558 Z M 348.154 89.651 Q 348.01 89.651 348.01 89.507 L 348.01 74.756 L 343.433 74.756 Q 343.289 74.756 343.289 74.612 L 343.289 72.294 Q 343.289 72.15 343.433 72.15 L 355.469 72.15 Q 355.613 72.15 355.613 72.294 L 355.613 74.612 Q 355.613 74.756 355.469 74.756 L 350.905 74.756 L 350.905 89.507 Q 350.905 89.651 350.76 89.651 Z M 355.975 89.651 Q 355.831 89.651 355.831 89.507 L 355.831 87.068 Q 355.831 86.924 355.975 86.924 L 358.426 86.924 Q 358.558 86.924 358.558 87.068 L 358.558 89.507 Q 358.558 89.651 358.426 89.651 Z M 362.891 89.687 Q 362.747 89.687 362.747 89.543 L 362.747 75.273 Q 362.194 75.681 361.642 76.096 Q 361.089 76.51 360.537 76.907 Q 360.453 76.967 360.38 76.925 Q 360.308 76.883 360.308 76.786 L 360.308 74.18 Q 360.308 74.156 360.326 74.12 Q 360.344 74.084 360.368 74.06 L 362.843 72.27 L 365.353 72.27 Q 365.497 72.27 365.497 72.414 L 365.497 89.543 Q 365.497 89.687 365.353 89.687 Z M 368.39 81.795 Q 368.258 81.795 368.258 81.663 L 368.258 72.414 Q 368.258 72.27 368.39 72.27 L 377.495 72.27 Q 377.639 72.27 377.639 72.414 L 377.639 74.865 Q 377.639 75.009 377.495 75.009 L 370.841 75.009 L 370.841 78.456 Q 372.006 77.639 373.435 77.639 Q 373.94 77.639 374.402 77.741 Q 374.864 77.843 375.273 78.036 Q 375.669 78.228 376.012 78.462 Q 376.354 78.696 376.594 78.949 Q 376.942 79.333 377.207 79.771 Q 377.471 80.21 377.639 80.666 Q 377.988 81.603 377.988 83.729 Q 377.988 84.594 377.921 85.243 Q 377.855 85.891 377.711 86.336 L 377.723 86.324 Q 377.471 87.153 376.894 87.909 Q 376.33 88.606 375.381 89.195 Q 374.384 89.795 373.075 89.795 Q 371.381 89.795 369.808 88.75 Q 368.198 87.669 367.934 85.231 Q 367.922 85.171 367.97 85.123 Q 368.018 85.075 368.078 85.075 L 370.528 85.075 Q 370.648 85.075 370.672 85.183 Q 371.093 87.068 372.979 87.068 Q 374.684 87.068 374.937 85.939 Q 375.249 84.69 375.249 83.537 Q 375.249 82.852 375.129 82.27 Q 375.009 81.687 374.78 81.231 Q 374.348 80.378 372.907 80.378 Q 371.585 80.378 370.829 81.723 Q 370.78 81.795 370.708 81.795 Z"/>
  </g>
</svg>