<?xml version="1.0" encoding="UTF-8" standalone="no"?>
<svg
   xmlns:dc="http://purl.org/dc/elements/1.1/"
   xmlns:cc="http://creativecommons.org/ns#"
   xmlns:rdf="http://www.w3.org/1999/02/22-rdf-syntax-ns#"
   xmlns:svg="http://www.w3.org/2000/svg"
   xmlns="http://www.w3.org/2000/svg"
   xmlns:sodipodi="http://sodipodi.sourceforge.net/DTD/sodipodi-0.dtd"
   xmlns:inkscape="http://www.inkscape.org/namespaces/inkscape"
   sodipodi:docname="Vietnam_road_sign_I445e.svg"
   inkscape:version="1.0 (4035a4fb49, 2020-05-01)"
   id="svg848"
   version="1.1"
   viewBox="0 0 1320.6937 500"
   height="500mm"
   width="1320.6937mm">
  <defs
     id="defs842" />
  <sodipodi:namedview
     inkscape:document-rotation="0"
     inkscape:measure-end="0,0"
     inkscape:measure-start="0,0"
     showguides="true"
     fit-margin-bottom="0"
     fit-margin-right="0"
     fit-margin-left="0"
     fit-margin-top="0"
     inkscape:window-maximized="1"
     inkscape:window-y="-9"
     inkscape:window-x="-9"
     inkscape:window-height="1001"
     inkscape:window-width="1920"
     inkscape:snap-global="false"
     showgrid="false"
     inkscape:current-layer="text2888"
     inkscape:document-units="mm"
     inkscape:cy="1422.5095"
     inkscape:cx="1974.2649"
     inkscape:zoom="0.18415721"
     inkscape:pageshadow="2"
     inkscape:pageopacity="0.0"
     borderopacity="1.0"
     bordercolor="#666666"
     pagecolor="#ffffff"
     id="base" />
  <metadata
     id="metadata845">
    <rdf:RDF>
      <cc:Work
         rdf:about="">
        <dc:format>image/svg+xml</dc:format>
        <dc:type
           rdf:resource="http://purl.org/dc/dcmitype/StillImage" />
        <dc:title></dc:title>
      </cc:Work>
    </rdf:RDF>
  </metadata>
  <g
     transform="translate(-1098.5453,606.31145)"
     id="layer1"
     inkscape:groupmode="layer"
     inkscape:label="Layer 1">
    <path
       inkscape:connector-curvature="0"
       d=""
       style="opacity:1;fill:#d35f5f;fill-opacity:1;fill-rule:nonzero;stroke:none;stroke-width:3.92256;stroke-linecap:butt;stroke-linejoin:miter;stroke-miterlimit:4;stroke-dasharray:none;stroke-opacity:1;paint-order:stroke fill markers"
       id="path8376"
       r="150"
       cy="147"
       cx="150" />
    <g
       inkscape:groupmode="layer"
       transform="translate(-4496.0426,2396.6803)"
       id="text3577"
       style="font-style:normal;font-variant:normal;font-weight:bold;font-stretch:normal;font-size:299.854px;line-height:0;font-family:Giaothong1;-inkscape-font-specification:'Giaothong1 Bold';letter-spacing:0px;word-spacing:0px;fill:#ffcc00;fill-opacity:1;stroke:none;stroke-width:1.56174"
       aria-label="VỊNH">
      <g
         id="text3665"
         style="font-style:normal;font-variant:normal;font-weight:bold;font-stretch:normal;font-size:299.854px;line-height:0;font-family:Giaothong1;-inkscape-font-specification:'Giaothong1 Bold';letter-spacing:-2.78077px;word-spacing:0px;fill:#ffcc00;fill-opacity:1;stroke:none;stroke-width:2.43903"
         aria-label="VỊNH" />
    </g>
    <g
       inkscape:groupmode="layer"
       id="text2719"
       style="font-style:normal;font-variant:normal;font-weight:bold;font-stretch:normal;font-size:184.173px;line-height:0;font-family:Giaothong1;-inkscape-font-specification:'Giaothong1 Bold';letter-spacing:0px;word-spacing:0.486833px;fill:#ffffff;fill-opacity:1;stroke:none;stroke-width:0.959232"
       aria-label="CÔNG TRƯỜNG">
      <g
         inkscape:groupmode="layer"
         id="text2888"
         style="font-style:normal;font-variant:normal;font-weight:bold;font-stretch:normal;font-size:187.408px;line-height:0;font-family:Giaothong1;-inkscape-font-specification:'Giaothong1 Bold';letter-spacing:0.00264583px;word-spacing:0px;fill:#ffffff;fill-opacity:1;stroke:none;stroke-width:0.936293"
         aria-label="AHEAD">
        <g
           inkscape:groupmode="layer"
           id="text2903"
           style="font-style:normal;font-variant:normal;font-weight:bold;font-stretch:normal;font-size:184.173px;line-height:0;font-family:Giaothong1;-inkscape-font-specification:'Giaothong1 Bold';letter-spacing:0.00529167px;word-spacing:0px;fill:#ffffff;fill-opacity:1;stroke:none;stroke-width:0.898123"
           aria-label="WORKS">
          <path
             id="rect7863"
             style="opacity:1;fill:#0046aa;fill-opacity:1;fill-rule:nonzero;stroke:none;stroke-width:4.58494;stroke-linecap:butt;stroke-linejoin:miter;stroke-miterlimit:10;stroke-dasharray:none;stroke-opacity:1;paint-order:stroke fill markers"
             d="M 2419.239,-606.31145 H 1098.5453 v 499.99999 H 2419.239 Z"
             sodipodi:nodetypes="ccccc" />
          <path
             d="m 1104.6412,-600.22823 v 488.37222 H 2413.924 v -488.37222 z m 9.0559,9.05805 h 35.724 v 470.25672 h -35.724 z m 513.3416,0 h 777.8288 v 470.25672 l -777.8288,5.4e-4 z"
             style="opacity:1;fill:#ffffff;fill-opacity:1;fill-rule:nonzero;stroke:none;stroke-width:4.54184;stroke-linecap:butt;stroke-linejoin:miter;stroke-miterlimit:10;stroke-dasharray:none;stroke-opacity:1;paint-order:stroke fill markers"
             id="path7865"
             sodipodi:nodetypes="ccccccccccccccc" />
        </g>
        <path
           d="m 1189.1031,-538.64946 c -5.5344,18.97543 -8.3438,38.64127 -8.3438,58.40705 0,19.76578 2.8094,39.43161 8.3438,58.40687 h 25.0315 c 0,16.12861 13.0747,29.20334 29.2033,29.20334 16.1286,0 29.2034,-13.07455 29.2034,-29.20334 h 88.7783 v -7.17565 h 80.7366 v 7.17565 h 29.2033 c 0,16.12861 13.0748,29.20334 29.2034,29.20334 16.1286,0 29.2033,-13.07455 29.2033,-29.20334 h 54.2348 c 5.5344,-18.97508 8.3438,-38.64074 8.3438,-58.40687 0,-9.77046 -0.683,-19.52905 -2.0527,-29.20335 h -148.1359 v 71.25656 h -80.7366 v -100.46026 z"
           style="opacity:1;fill:#0046aa;fill-opacity:1;fill-rule:nonzero;stroke:none;stroke-width:6.37701;stroke-linecap:round;stroke-linejoin:miter;stroke-miterlimit:4;stroke-dasharray:none;stroke-opacity:1;paint-order:stroke fill markers"
           id="circle40161"
           sodipodi:nodetypes="csccsccccccsccscccccc" />
        <path
           d="m 1191.7472,-299.60336 c -3.4547,1.8e-4 -7.6212,4.35093 -7.6338,9.66926 v 105.17607 h 59.3755 a 24.597576,24.597576 0 0 0 24.5947,24.25853 24.597576,24.597576 0 0 0 24.5964,-24.25853 h 157.7685 a 24.597576,24.597576 0 0 0 24.5947,24.25853 24.597576,24.597576 0 0 0 24.5946,-24.25853 h 5.0922 l 78.0332,-11.36606 v -83.63153 c -0.018,-9.29359 -10.9915,-19.77998 -22.6462,-19.84774 z m 3.0521,16.28517 h 28.5005 c 2.9838,0.0129 5.2522,2.17439 5.2594,4.58047 v 67.007 c 0.013,6.3258 -4.9538,14.26051 -12.0448,14.24955 h -20.1873 c -0.8268,0.004 -1.5278,-1.22228 -1.5278,-2.37463 z m 45.2942,7.973 h 72.4359 v 26.63333 h -72.4359 z m 84.8204,0 h 72.4358 v 26.63333 h -72.4358 z m 84.8185,0 h 72.4359 v 26.63333 h -72.4359 z m 84.8186,0 h 72.4359 v 26.63333 h -72.4359 z"
           style="opacity:1;fill:#0046aa;fill-opacity:1;fill-rule:nonzero;stroke:none;stroke-width:6.00001;stroke-linecap:round;stroke-linejoin:miter;stroke-miterlimit:4;stroke-dasharray:none;stroke-opacity:1;paint-order:stroke fill markers"
           id="rect25583" />
        <g
           aria-label="XE LỚN ĐI SÁT"
           transform="matrix(5.8268357,0,0,6.9006246,233.42379,-3983.0332)"
           id="text10814"
           style="font-size:19.7231px;line-height:1.3;font-family:'Singapore Road Signs';-inkscape-font-specification:'Singapore Road Signs';text-align:center;text-anchor:middle;opacity:1;stroke-width:0.0417256">
          <path
             d="m 255.31006,520.60423 q -0.0578,0 -0.0963,-0.0578 l -2.92765,-4.96929 q -0.73191,1.25195 -1.46382,2.48464 -0.73191,1.2327 -1.46382,2.48465 -0.0385,0.0578 -0.0963,0.0578 h -2.35945 q -0.077,0 -0.10594,-0.0482 -0.0289,-0.0578 0.01,-0.12519 l 4.18923,-7.02058 q -0.99194,-1.67569 -1.96461,-3.33212 -0.97267,-1.65644 -1.95497,-3.33213 -0.0385,-0.0674 -0.01,-0.11556 0.0289,-0.0578 0.0963,-0.0578 h 2.36908 q 0.0578,0 0.0963,0.0578 l 2.65799,4.6226 q 0.6645,-1.15565 1.329,-2.30167 0.6645,-1.15565 1.329,-2.32093 0.0385,-0.0578 0.0963,-0.0578 h 2.36909 q 0.0674,0 0.0963,0.0578 0.0289,0.0482 -0.01,0.11556 l -3.91958,6.66425 q 1.05935,1.76237 2.09943,3.5151 1.04009,1.74311 2.09943,3.50548 0.0385,0.0674 0.01,0.12519 -0.0289,0.0482 -0.10593,0.0482 z"
             style="font-style:normal;font-variant:normal;font-weight:normal;font-stretch:normal;font-family:Giaothong2;-inkscape-font-specification:Giaothong2;stroke-width:0.0417256"
             id="path10845" />
          <path
             d="m 259.3452,520.60423 q -0.11556,0 -0.11556,-0.11556 v -13.80039 q 0,-0.11557 0.11556,-0.11557 h 8.82147 q 0.11556,0 0.11556,0.11557 v 1.98386 q 0,0.11557 -0.11556,0.11557 h -6.6161 v 3.69808 h 5.62416 q 0.11557,0 0.11557,0.11557 v 1.8683 q 0,0.10593 -0.11557,0.10593 h -5.62416 v 3.83291 h 6.6161 q 0.11556,0 0.11556,0.11556 v 1.96461 q 0,0.11556 -0.11556,0.11556 z"
             style="font-style:normal;font-variant:normal;font-weight:normal;font-stretch:normal;font-family:Giaothong2;-inkscape-font-specification:Giaothong2;stroke-width:0.0417256"
             id="path10847" />
          <path
             d="m 275.06205,520.60423 q -0.11557,0 -0.11557,-0.11556 v -13.80039 q 0,-0.11557 0.11557,-0.11557 h 2.0898 q 0.11556,0 0.11556,0.11557 v 11.72022 h 6.6161 q 0.11557,0 0.11557,0.11556 v 1.96461 q 0,0.11556 -0.11557,0.11556 z"
             style="font-style:normal;font-variant:normal;font-weight:normal;font-stretch:normal;font-family:Giaothong2;-inkscape-font-specification:Giaothong2;stroke-width:0.0417256"
             id="path10849" />
          <path
             d="m 287.78383,513.59329 q 0,1.04971 0.0289,1.73347 0.0289,0.67413 0.10594,1.00157 0.077,0.29854 0.21187,0.59708 0.14445,0.28892 0.3178,0.51042 0.30818,0.40447 0.81859,0.69339 0.51041,0.27928 1.23269,0.27928 0.71265,0 1.22307,-0.27928 0.51041,-0.28892 0.80895,-0.69339 0.40448,-0.49115 0.52967,-1.1075 0.15409,-0.61635 0.15409,-2.73504 0,-1.04972 -0.0385,-1.72385 -0.0385,-0.68376 -0.11557,-1.00156 -0.0674,-0.30817 -0.20224,-0.59709 -0.13482,-0.29854 -0.3178,-0.52967 -0.14446,-0.18298 -0.35632,-0.35632 -0.20224,-0.17335 -0.46226,-0.29855 -0.26003,-0.13482 -0.5682,-0.21187 -0.30817,-0.0867 -0.65487,-0.0867 -0.72228,0 -1.23269,0.28891 -0.51041,0.28891 -0.81859,0.6645 -0.18298,0.23113 -0.3178,0.52967 -0.13483,0.28892 -0.21187,0.59709 -0.077,0.32743 -0.10594,1.01119 -0.0289,0.68376 -0.0289,1.71422 z m 0.64524,-8.2629 q -0.077,0 -0.10593,-0.0482 -0.0193,-0.0578 0.01,-0.1252 l 2.01276,-2.81208 q 0.0385,-0.0578 0.0963,-0.0578 h 2.11869 q 0.077,0 0.10594,0.0674 0.0385,0.0674 -0.0193,0.12519 l -2.658,2.81209 q -0.01,0.01 -0.0385,0.0289 -0.0289,0.01 -0.0481,0.01 z m 7.20356,-0.5682 q 0.077,0.0674 0.14445,0.13483 0.63561,0.6645 0.65487,1.73348 0.0385,1.3001 -1.16528,2.11869 -0.19261,0.0867 -0.39485,0.16371 0.0193,0.0385 0.0481,0.0867 0.35633,0.65487 0.48153,1.36752 0.0674,0.36595 0.0963,1.16528 0.0385,0.79932 0.0385,2.06091 0,2.47502 -0.13482,3.23582 -0.0674,0.37559 -0.19261,0.71265 -0.11557,0.33707 -0.27928,0.64524 -0.51042,0.92452 -1.64681,1.73348 -1.13639,0.79932 -2.78319,0.79932 -1.66606,0 -2.80245,-0.79932 -1.11713,-0.7897 -1.61791,-1.73348 h 0.01 q -0.18298,-0.32743 -0.30817,-0.65487 -0.1252,-0.33706 -0.19261,-0.70302 -0.0578,-0.36596 -0.0963,-1.16528 -0.0289,-0.80896 -0.0289,-2.07054 0,-1.26159 0.0289,-2.06091 0.0385,-0.79933 0.0963,-1.16528 0.0674,-0.36596 0.19261,-0.70302 0.12519,-0.33707 0.30817,-0.6645 h -0.01 q 0.50078,-0.93415 1.61791,-1.73348 1.12676,-0.80895 2.80245,-0.80895 1.65643,0 2.78319,0.80895 0.42374,0.30818 0.76081,0.62598 1.00156,-0.36596 1.03045,-1.22306 -0.01,-0.65487 -0.41411,-0.93415 z"
             style="font-style:normal;font-variant:normal;font-weight:normal;font-stretch:normal;font-family:Giaothong2;-inkscape-font-specification:Giaothong2;stroke-width:0.0417256"
             id="path10851" />
          <path
             d="m 298.05949,520.60423 q -0.11556,0 -0.11556,-0.11556 v -13.80039 q 0,-0.11557 0.11556,-0.11557 h 1.98387 q 0.0578,0 0.0963,0.0578 l 6.06717,9.55337 v -9.49559 q 0,-0.11557 0.11556,-0.11557 h 2.09943 q 0.11557,0 0.11557,0.11557 v 13.80039 q 0,0.11556 -0.11557,0.11556 h -1.97423 q -0.0578,0 -0.0963,-0.0578 l -6.08642,-9.55337 v 9.49559 q 0,0.11556 -0.10594,0.11556 z"
             style="font-style:normal;font-variant:normal;font-weight:normal;font-stretch:normal;font-family:Giaothong2;-inkscape-font-specification:Giaothong2;stroke-width:0.0417256"
             id="path10853" />
          <path
             d="m 316.27062,520.60423 q -0.10594,0 -0.10594,-0.11556 v -5.93234 h -1.01119 q -0.10594,0 -0.10594,-0.10593 v -1.98387 q 0,-0.11557 0.10594,-0.11557 h 1.01119 v -5.66268 q 0,-0.11557 0.10594,-0.11557 h 4.83447 q 2.87949,0 4.3048,2.37872 0.26002,0.46226 0.42374,0.87636 0.16371,0.41411 0.21186,0.80896 0.11557,0.77043 0.11557,2.95654 0,1.17491 -0.0385,1.9646 -0.0385,0.78007 -0.11557,1.17492 -0.077,0.40447 -0.24076,0.78969 -0.15408,0.37559 -0.39484,0.75117 v -0.01 q -0.64524,0.99194 -1.73348,1.66607 -1.12676,0.67412 -2.66763,0.67412 z m 2.21499,-11.81652 v 3.56325 h 2.51354 q 0.11557,0 0.11557,0.11557 v 1.98387 q 0,0.10593 -0.11557,0.10593 h -2.51354 v 3.85217 h 2.38835 q 1.65643,0 2.46539,-1.15565 0.33706,-0.51041 0.40447,-1.06898 0.0482,-0.30817 0.0674,-0.92452 0.0289,-0.62598 0.0289,-1.58902 0,-0.93415 -0.0289,-1.56013 -0.0193,-0.62597 -0.0674,-0.99193 -0.10593,-0.68376 -0.50078,-1.22306 -0.81858,-1.1075 -2.36908,-1.1075 z"
             style="font-style:normal;font-variant:normal;font-weight:normal;font-stretch:normal;font-family:Giaothong2;-inkscape-font-specification:Giaothong2;stroke-width:0.0417256"
             id="path10855" />
          <path
             d="m 328.69386,520.60423 q -0.11556,0 -0.11556,-0.11556 v -13.80039 q 0,-0.11557 0.11556,-0.11557 h 2.0898 q 0.11557,0 0.11557,0.11557 v 13.80039 q 0,0.11556 -0.11557,0.11556 z"
             style="font-style:normal;font-variant:normal;font-weight:normal;font-stretch:normal;font-family:Giaothong2;-inkscape-font-specification:Giaothong2;stroke-width:0.0417256"
             id="path10857" />
          <path
             d="m 338.63246,517.06024 q 0.0289,-0.0385 0.077,-0.0385 0.0482,0 0.0867,0.0289 0.76081,0.61635 1.74311,0.99193 0.99193,0.36596 2.0898,0.36596 1.23269,0 1.94534,-0.51041 0.67413,-0.49115 0.67413,-1.30011 0,-1.52161 -1.70458,-1.75274 h 0.01 q -0.24076,-0.0289 -0.46226,-0.0578 -0.21187,-0.0289 -0.43337,-0.0578 -0.21187,-0.0289 -0.443,-0.0578 -0.2215,-0.0385 -0.49115,-0.0771 -0.90526,-0.12519 -1.61791,-0.45263 -0.70302,-0.33706 -1.18454,-0.886 -0.48152,-0.55856 -0.72228,-1.21343 -0.24076,-0.6645 -0.24076,-1.44456 0,-1.82978 1.21343,-2.9758 1.22306,-1.16528 3.39954,-1.16528 0.64524,0 1.25195,0.11556 0.61635,0.10594 1.18454,0.29855 0.57783,0.1926 1.09787,0.46226 0.52967,0.26002 1.0112,0.57782 0.0963,0.0674 0.0289,0.16372 l -1.16528,1.72384 q -0.0674,0.0867 -0.15409,0.0289 -0.75117,-0.47189 -1.59865,-0.75117 -0.84748,-0.28891 -1.75274,-0.28891 -0.46226,0 -0.8571,0.11556 -0.39485,0.10594 -0.71266,0.35633 -0.62597,0.45263 -0.62597,1.37715 0,0.52967 0.42374,1.03045 0.21187,0.23114 0.56819,0.39485 0.35633,0.15409 0.87637,0.23113 0.27928,0.0481 0.65487,0.10594 0.37558,0.0481 0.886,0.10593 1.97423,0.24076 2.92764,1.45419 0.95342,1.18455 0.95342,2.63874 0,1.94534 -1.35789,3.04321 -1.36752,1.07861 -3.60178,1.07861 -3.14915,0 -5.35451,-1.92608 -0.0385,-0.0289 -0.0385,-0.077 0,-0.0482 0.0289,-0.0867 z"
             style="font-style:normal;font-variant:normal;font-weight:normal;font-stretch:normal;font-family:Giaothong2;-inkscape-font-specification:Giaothong2;stroke-width:0.0417256"
             id="path10859" />
          <path
             d="m 348.51326,520.5946 q -0.0674,0 -0.0963,-0.0481 -0.0289,-0.0482 -0.01,-0.10593 l 5.04634,-13.81002 q 0.0193,-0.077 0.0963,-0.077 h 1.72385 q 0.0289,0 0.0578,0.0289 0.0385,0.0193 0.0482,0.0482 l 5.03671,13.81002 q 0.0193,0.0578 -0.01,0.10593 -0.0289,0.0481 -0.0867,0.0481 h -2.20537 q -0.077,0 -0.0963,-0.077 l -1.04009,-3.04321 h -5.08486 q -0.26965,0.78006 -0.5393,1.53124 -0.26002,0.74154 -0.52968,1.51197 -0.01,0.0289 -0.0482,0.0578 -0.0289,0.0193 -0.0578,0.0193 z m 7.77175,-5.19079 q -0.0193,-0.0674 -0.0578,-0.14446 -0.0289,-0.077 -0.0482,-0.13482 -0.16372,-0.47189 -0.29855,-0.86674 -0.13482,-0.40448 -0.24076,-0.70302 -0.0674,-0.19261 -0.13482,-0.37559 -0.0578,-0.18298 -0.11557,-0.34669 -0.0482,-0.15409 -0.0963,-0.28892 -0.0481,-0.14445 -0.0963,-0.27928 -0.0867,-0.27928 -0.18298,-0.55856 -0.0867,-0.27929 -0.18298,-0.57783 -0.0482,-0.13482 -0.10594,-0.29854 -0.0481,-0.16372 -0.10593,-0.3467 -0.0289,-0.0963 -0.0481,-0.14445 -0.01,-0.0578 -0.0289,-0.10594 -0.0193,-0.0578 -0.0482,-0.12519 -0.0193,-0.0674 -0.0578,-0.19261 -0.10593,0.3178 -0.20224,0.58745 -0.0867,0.26966 -0.16371,0.50079 -0.0193,0.0578 -0.0289,0.10593 -0.01,0.0482 -0.0289,0.0963 -0.0481,0.16372 -0.10593,0.30818 -0.0481,0.14445 -0.0963,0.28891 -0.0482,0.15409 -0.0963,0.29854 -0.0481,0.14446 -0.0963,0.27929 -0.0963,0.28891 -0.20224,0.60671 -0.0963,0.31781 -0.2215,0.6645 -0.1252,0.3467 -0.26002,0.75117 -0.13483,0.39485 -0.3467,1.00157 z m -3.94847,-10.07342 q -0.077,0 -0.10593,-0.0482 -0.0193,-0.0578 0.01,-0.1252 l 2.01275,-2.81208 q 0.0385,-0.0578 0.0963,-0.0578 h 2.11869 q 0.077,0 0.10594,0.0674 0.0385,0.0674 -0.0193,0.12519 l -2.65799,2.81209 q -0.01,0.01 -0.0385,0.0289 -0.0289,0.01 -0.0482,0.01 z"
             style="font-style:normal;font-variant:normal;font-weight:normal;font-stretch:normal;font-family:Giaothong2;-inkscape-font-specification:Giaothong2;stroke-width:0.0417256"
             id="path10861" />
          <path
             d="m 364.53828,520.60423 q -0.11556,0 -0.11556,-0.11556 v -11.82616 h -3.66919 q -0.11557,0 -0.11557,-0.11556 v -1.85867 q 0,-0.11557 0.11557,-0.11557 h 9.64968 q 0.11556,0 0.11556,0.11557 v 1.85867 q 0,0.11556 -0.11556,0.11556 h -3.65956 v 11.82616 q 0,0.11556 -0.11557,0.11556 z"
             style="font-style:normal;font-variant:normal;font-weight:normal;font-stretch:normal;font-family:Giaothong2;-inkscape-font-specification:Giaothong2;stroke-width:0.0417256"
             id="path10863" />
        </g>
        <g
           transform="matrix(6.3410417,0,0,6.3410417,205.4242,-3979.2378)"
           aria-label="  VỀ BÊN PHẢI"
           id="text10822"
           style="font-size:21.2295px;line-height:1.3;font-family:'Singapore Road Signs';-inkscape-font-specification:'Singapore Road Signs';text-align:center;letter-spacing:-0.66px;text-anchor:middle;opacity:1;stroke-width:0.0417256">
          <path
             d="m 239.63515,591.09353 q -0.0853,0 -0.10428,-0.0829 l -4.48427,-14.85442 q -0.0189,-0.0622 0.01,-0.11403 0.0285,-0.0518 0.0948,-0.0518 h 2.17103 q 0.0854,0 0.10429,0.0933 l 3.00531,10.99827 q 0.75843,-2.75734 1.50739,-5.49395 0.75843,-2.74698 1.50739,-5.50432 0.0189,-0.0933 0.10429,-0.0933 h 2.17104 q 0.0664,0 0.0948,0.0518 0.0285,0.0518 0.01,0.11403 l -4.48426,14.85442 q -0.0189,0.0829 -0.10429,0.0829 z"
             style="font-style:normal;font-variant:normal;font-weight:normal;font-stretch:normal;font-family:Giaothong2;-inkscape-font-specification:Giaothong2;text-align:start;letter-spacing:-0.66px;text-anchor:start;stroke-width:0.0417256"
             id="path10824" />
          <path
             d="m 247.08365,591.09353 q -0.11342,0 -0.11342,-0.1244 v -14.85442 q 0,-0.12439 0.11342,-0.12439 h 8.65807 q 0.11343,0 0.11343,0.12439 v 2.13539 q 0,0.12439 -0.11343,0.12439 h -6.49355 v 3.98053 h 5.51999 q 0.11342,0 0.11342,0.12439 v 2.01098 q 0,0.11403 -0.11342,0.11403 h -5.51999 v 4.12564 h 6.49355 q 0.11343,0 0.11343,0.1244 v 2.11467 q 0,0.1244 -0.11343,0.1244 z m 0.91685,-16.44043 q -0.0851,0 -0.10397,-0.0829 -0.0189,-0.0829 0.0378,-0.13475 l 2.77889,-2.41528 h 1.27603 l 2.81671,2.41528 q 0.0662,0.0518 0.0378,0.13475 -0.0189,0.0829 -0.10398,0.0829 h -1.58794 l -1.8904,-1.11952 q -0.41589,0.27988 -0.84123,0.55976 -0.42534,0.27988 -0.84123,0.55976 z m 6.62588,-1.51343 q -0.0189,0 -0.0472,-0.0104 -0.0283,-0.0207 -0.0378,-0.0311 l -2.60876,-3.02688 q -0.0567,-0.0622 -0.0284,-0.13475 0.0378,-0.0726 0.11343,-0.0726 h 2.07945 q 0.0567,0 0.0945,0.0622 l 1.97547,3.02687 q 0.0284,0.0726 0,0.13476 -0.0189,0.0518 -0.0945,0.0518 z"
             style="font-style:normal;font-variant:normal;font-weight:normal;font-stretch:normal;font-family:Giaothong2;-inkscape-font-specification:Giaothong2;text-align:start;letter-spacing:-0.66px;text-anchor:start;stroke-width:0.0417256"
             id="path10826" />
          <path
             d="m 262.38013,591.09353 q -0.11234,0 -0.11234,-0.1244 v -14.85442 q 0,-0.12439 0.11234,-0.12439 h 5.20518 q 1.97534,0 3.03323,1.17136 1.04853,1.15062 1.04853,2.94393 0,0.98477 -0.41193,1.82441 -0.37447,0.7878 -1.39491,1.3683 0.94555,0.33171 1.46045,1.275 0.27149,0.5183 0.41192,1.0677 0.14978,0.53903 0.14978,1.11952 0,1.97989 -1.1515,3.16163 -1.14215,1.17136 -2.68684,1.17136 z m 2.14385,-6.59277 v 4.2293 h 3.02388 q 1.05789,0 1.57278,-0.63232 0.50555,-0.63231 0.50555,-1.48232 0,-0.82928 -0.50555,-1.47197 -0.48681,-0.64269 -1.57278,-0.64269 z m 0,-6.26102 v 4.01163 h 2.83664 q 1.05789,0 1.54471,-0.5805 0.50553,-0.57013 0.50553,-1.42014 0,-0.83964 -0.50553,-1.40977 -0.50555,-0.60122 -1.54471,-0.60122 z"
             style="font-style:normal;font-variant:normal;font-weight:normal;font-stretch:normal;font-family:Giaothong2;-inkscape-font-specification:Giaothong2;text-align:start;letter-spacing:-0.66px;text-anchor:start;stroke-width:0.0417256"
             id="path10828" />
          <path
             d="m 274.12959,591.09353 q -0.11005,0 -0.11005,-0.1244 v -14.85442 q 0,-0.12439 0.11005,-0.12439 h 8.40083 q 0.11005,0 0.11005,0.12439 v 2.13539 q 0,0.12439 -0.11005,0.12439 h -6.30062 v 3.98053 h 5.35598 q 0.11006,0 0.11006,0.12439 v 2.01098 q 0,0.11403 -0.11006,0.11403 h -5.35598 v 4.12564 h 6.30062 q 0.11005,0 0.11005,0.1244 v 2.11467 q 0,0.1244 -0.11005,0.1244 z m 0.93547,-16.44043 q -0.0825,0 -0.10088,-0.0829 -0.0183,-0.0829 0.0367,-0.13475 l 2.69633,-2.41528 h 1.23811 l 2.73302,2.41528 q 0.0642,0.0518 0.0367,0.13475 -0.0183,0.0829 -0.10088,0.0829 h -1.54077 l -1.83424,-1.11952 q -0.40353,0.27988 -0.81623,0.55976 -0.41271,0.27988 -0.81624,0.55976 z"
             style="font-style:normal;font-variant:normal;font-weight:normal;font-stretch:normal;font-family:Giaothong2;-inkscape-font-specification:Giaothong2;text-align:start;letter-spacing:-0.66px;text-anchor:start;stroke-width:0.0417256"
             id="path10830" />
          <path
             d="m 284.76366,591.09353 q -0.11212,0 -0.11212,-0.1244 v -14.85442 q 0,-0.12439 0.11212,-0.12439 h 1.9247 q 0.0561,0 0.0934,0.0622 l 5.88624,10.28302 v -10.22083 q 0,-0.12439 0.11212,-0.12439 h 2.03682 q 0.11213,0 0.11213,0.12439 v 14.85442 q 0,0.1244 -0.11213,0.1244 h -1.91536 q -0.0561,0 -0.0934,-0.0622 l -5.90493,-10.28303 v 10.22083 q 0,0.1244 -0.10278,0.1244 z"
             style="font-style:normal;font-variant:normal;font-weight:normal;font-stretch:normal;font-family:Giaothong2;-inkscape-font-specification:Giaothong2;text-align:start;letter-spacing:-0.66px;text-anchor:start;stroke-width:0.0417256"
             id="path10832" />
          <path
             d="m 304.45102,578.37449 v 4.54029 h 2.91255 q 1.07697,0 1.60142,-0.71524 0.53381,-0.69452 0.53381,-1.5549 0,-1.28538 -0.82413,-1.87624 -0.53381,-0.39391 -1.38603,-0.39391 z m -2.14459,12.71904 q -0.11239,0 -0.11239,-0.1244 v -14.85442 q 0,-0.12439 0.11239,-0.12439 h 4.86983 q 0.8054,0 1.52651,0.18659 0.73048,0.18659 1.5546,0.89147 0.31841,0.27988 0.58063,0.65306 0.27159,0.36281 0.48699,0.80854 0.20603,0.45611 0.31841,1.0055 0.11239,0.5494 0.11239,1.17136 0,1.62745 -1.10509,3.10978 -1.10507,1.47195 -3.21221,1.47195 h -2.98747 v 5.68056 q 0,0.1244 -0.11238,0.1244 z"
             style="font-style:normal;font-variant:normal;font-weight:normal;font-stretch:normal;font-family:Giaothong2;-inkscape-font-specification:Giaothong2;text-align:start;letter-spacing:-0.66px;text-anchor:start;stroke-width:0.0417256"
             id="path10834" />
          <path
             d="m 320.86611,591.09353 q -0.11132,0 -0.11132,-0.1244 v -6.36471 h -5.05564 v 6.36471 q 0,0.1244 -0.11131,0.1244 h -2.01299 q -0.11131,0 -0.11131,-0.1244 v -14.85442 q 0,-0.12439 0.11131,-0.12439 h 2.01299 q 0.11131,0 0.11131,0.12439 v 6.24031 h 5.05564 v -6.24031 q 0,-0.12439 0.11132,-0.12439 h 2.01298 q 0.11132,0 0.11132,0.12439 v 14.85442 q 0,0.1244 -0.11132,0.1244 z"
             style="font-style:normal;font-variant:normal;font-weight:normal;font-stretch:normal;font-family:Giaothong2;-inkscape-font-specification:Giaothong2;text-align:start;letter-spacing:-0.66px;text-anchor:start;stroke-width:0.0417256"
             id="path10836" />
          <path
             d="m 324.69666,591.08316 q -0.0661,0 -0.0944,-0.0518 -0.0283,-0.0518 -0.009,-0.11403 l 4.94511,-14.86478 q 0.0188,-0.0829 0.0944,-0.0829 h 1.68927 q 0.0283,0 0.0566,0.0311 0.0378,0.0207 0.0472,0.0518 l 4.93568,14.86478 q 0.0188,0.0622 -0.009,0.11403 -0.0283,0.0518 -0.0849,0.0518 h -2.16113 q -0.0755,0 -0.0944,-0.0829 l -1.01922,-3.27565 H 328.01 q -0.26424,0.83963 -0.52849,1.64819 -0.2548,0.79818 -0.51905,1.62746 -0.009,0.0311 -0.0472,0.0622 -0.0283,0.0207 -0.0566,0.0207 z m 7.61586,-5.58727 q -0.0188,-0.0726 -0.0566,-0.15549 -0.0283,-0.0829 -0.0472,-0.14512 -0.16043,-0.50793 -0.29255,-0.93293 -0.13213,-0.43537 -0.23593,-0.75671 -0.0661,-0.20732 -0.13213,-0.40428 -0.0566,-0.19695 -0.11324,-0.37317 -0.0472,-0.16586 -0.0944,-0.31098 -0.0472,-0.15548 -0.0944,-0.3006 -0.0849,-0.30061 -0.1793,-0.60123 -0.0849,-0.30061 -0.17931,-0.62196 -0.0472,-0.14512 -0.10381,-0.32134 -0.0472,-0.17622 -0.10382,-0.37318 -0.0283,-0.10366 -0.0472,-0.15549 -0.009,-0.0622 -0.0283,-0.11402 -0.0188,-0.0622 -0.0472,-0.13476 -0.0188,-0.0726 -0.0566,-0.20732 -0.1038,0.34208 -0.19817,0.63233 -0.0849,0.29024 -0.16044,0.53903 -0.0188,0.0622 -0.0283,0.11402 -0.009,0.0518 -0.0283,0.10366 -0.0472,0.17622 -0.10381,0.33171 -0.0472,0.15549 -0.0944,0.31098 -0.0472,0.16586 -0.0944,0.32135 -0.0472,0.15549 -0.0944,0.30061 -0.0944,0.31097 -0.19818,0.65305 -0.0944,0.34207 -0.21706,0.71525 -0.12269,0.37317 -0.2548,0.80853 -0.13212,0.42501 -0.33974,1.07806 z m -1.96295,-10.84279 q -0.38693,0 -0.62286,0 v -0.47683 q 0.10381,-0.65306 0.73611,-1.0677 0.9909,-0.4561 0.90597,-1.07807 -0.13212,-0.63232 -0.8871,-0.64269 -1.00035,0.0207 -1.05697,1.06771 h -1.40615 q 0,-0.58051 0.18874,-0.96405 0.19819,-0.38354 0.52849,-0.74635 0.65117,-0.68415 1.6987,-0.70488 1.10416,0.0207 1.81196,0.68415 0.32086,0.35244 0.50017,0.68415 0.17931,0.33172 0.18874,0.83966 -0.0566,0.71525 -0.72667,1.25428 -0.56623,0.30061 -0.86822,0.47683 l -0.11325,0.13476 -0.12269,0.20732 -0.0188,0.33171 q -0.33974,0 -0.7361,0 z"
             style="font-style:normal;font-variant:normal;font-weight:normal;font-stretch:normal;font-family:Giaothong2;-inkscape-font-specification:Giaothong2;text-align:start;letter-spacing:-0.66px;text-anchor:start;stroke-width:0.0417256"
             id="path10838" />
          <path
             d="m 337.95544,591.09353 q -0.1244,0 -0.1244,-0.1244 v -14.85442 q 0,-0.12439 0.1244,-0.12439 h 2.24941 q 0.12439,0 0.12439,0.12439 v 14.85442 q 0,0.1244 -0.12439,0.1244 z"
             style="font-style:normal;font-variant:normal;font-weight:normal;font-stretch:normal;font-family:Giaothong2;-inkscape-font-specification:Giaothong2;text-align:start;letter-spacing:-0.66px;text-anchor:start;stroke-width:0.0417256"
             id="path10840" />
        </g>
      </g>
    </g>
  </g>
</svg>
