<?xml version="1.0" encoding="UTF-8" standalone="no"?>
<svg
   xmlns:dc="http://purl.org/dc/elements/1.1/"
   xmlns:cc="http://creativecommons.org/ns#"
   xmlns:rdf="http://www.w3.org/1999/02/22-rdf-syntax-ns#"
   xmlns:svg="http://www.w3.org/2000/svg"
   xmlns="http://www.w3.org/2000/svg"
   xmlns:sodipodi="http://sodipodi.sourceforge.net/DTD/sodipodi-0.dtd"
   xmlns:inkscape="http://www.inkscape.org/namespaces/inkscape"
   sodipodi:docname="Vietnam_road_sign_IE467a.svg"
   inkscape:version="1.0 (4035a4fb49, 2020-05-01)"
   id="svg8"
   version="1.1"
   viewBox="0 0 109.628 200.00093"
   height="200.00093mm"
   width="109.62801mm">
  <defs
     id="defs2" />
  <sodipodi:namedview
     inkscape:window-maximized="0"
     inkscape:window-y="0"
     inkscape:window-x="64"
     inkscape:window-height="1030"
     inkscape:window-width="1424"
     showgrid="false"
     inkscape:document-rotation="0"
     inkscape:current-layer="layer1"
     inkscape:document-units="mm"
     inkscape:cy="235.09737"
     inkscape:cx="275.74245"
     inkscape:zoom="0.35"
     inkscape:pageshadow="2"
     inkscape:pageopacity="0.0"
     borderopacity="1.0"
     bordercolor="#666666"
     pagecolor="#ffffff"
     id="base" />
  <metadata
     id="metadata5">
    <rdf:RDF>
      <cc:Work
         rdf:about="">
        <dc:format>image/svg+xml</dc:format>
        <dc:type
           rdf:resource="http://purl.org/dc/dcmitype/StillImage" />
        <dc:title></dc:title>
      </cc:Work>
    </rdf:RDF>
  </metadata>
  <g
     transform="translate(-32.876476,-85.963821)"
     id="layer1"
     inkscape:groupmode="layer"
     inkscape:label="Layer 1">
    <path
       d="M 32.876476,85.963821 H 142.50448 V 285.96475 H 32.876476 Z"
       style="opacity:1;fill:#028f45;fill-opacity:1;fill-rule:evenodd;stroke-width:0.119062;stroke-linecap:square;stroke-miterlimit:10;paint-order:stroke fill markers"
       id="path10719"
       sodipodi:nodetypes="ccccc" />
    <path
       sodipodi:nodetypes="ccccccccccc"
       id="path10721"
       d="m 127.57098,182.23505 h -1.7661 L 99.624176,156.24907 v 25.98598 h -51.8276 v -79.54931 h 49.380101 2.447499 v 16.86404 l 27.946804,27.74187 z"
       style="opacity:1;fill:#ffffff;fill-opacity:1;fill-rule:nonzero;stroke:none;stroke-width:0.352777" />
    <path
       d="m 50.261376,102.68533 v 79.5493 h 22.8433 v -5.96518 h 1.225 v 5.96518 h 22.847501 v -31.7774 l 30.393803,30.20618 V 150.80723 L 97.177177,120.41975 v -17.73442 z m 22.8433,1.94139 h 1.225 v 5.96519 h -1.225 z m 0,11.94549 h 1.225 v 5.96519 h -1.225 z m 0,11.93165 h 1.225 v 5.96644 h -1.225 z m 0,11.94171 h 1.225 v 5.96644 h -1.225 z m 0,11.94551 h 1.225 v 5.96644 h -1.225 z m 0,11.94925 h 1.225 v 5.96643 h -1.225 z"
       style="opacity:1;fill:#4a4a3f;fill-opacity:1;fill-rule:nonzero;stroke:none;stroke-width:0.352777"
       id="path10723"
       sodipodi:nodetypes="ccccccccccccccccccccccccccccccccccccccccccc" />
    <path
       id="path10725"
       style="color:#000000;font-style:normal;font-variant:normal;font-weight:normal;font-stretch:normal;font-size:medium;line-height:normal;font-family:sans-serif;font-variant-ligatures:normal;font-variant-position:normal;font-variant-caps:normal;font-variant-numeric:normal;font-variant-alternates:normal;font-variant-east-asian:normal;font-feature-settings:normal;font-variation-settings:normal;text-indent:0;text-align:start;text-decoration:none;text-decoration-line:none;text-decoration-style:solid;text-decoration-color:#000000;letter-spacing:normal;word-spacing:normal;text-transform:none;writing-mode:lr-tb;direction:ltr;text-orientation:mixed;dominant-baseline:auto;baseline-shift:baseline;text-anchor:start;white-space:normal;shape-padding:0;shape-margin:0;inline-size:0;clip-rule:nonzero;display:inline;overflow:visible;visibility:visible;opacity:1;isolation:auto;mix-blend-mode:normal;color-interpolation:sRGB;color-interpolation-filters:linearRGB;solid-color:#000000;solid-opacity:1;vector-effect:none;fill:#ffffff;fill-opacity:1;fill-rule:evenodd;stroke:none;stroke-width:0.502708;stroke-linecap:square;stroke-linejoin:miter;stroke-miterlimit:10;stroke-dasharray:none;stroke-dashoffset:0;stroke-opacity:1;paint-order:stroke fill markers;color-rendering:auto;image-rendering:auto;shape-rendering:auto;text-rendering:auto;enable-background:accumulate;stop-color:#000000;stop-opacity:1"
       d="m 35.584476,86.670188 c -1.102,0 -2.0095,0.904855 -2.0095,2.006857 V 241.66312 c 0,0.005 0,0.009 0,0.0122 v 2.76603 c 0,0.005 0,0.009 0,0.0122 v 38.7939 c 0,1.10197 0.9075,2.00811 2.0095,2.00811 H 139.79138 c 1.1022,0 2.0082,-0.90614 2.0082,-2.00811 v -37.64489 c 0,-0.005 0,-0.007 0,-0.0122 v -4.08927 c 0,-0.005 0,-0.009 0,-0.0122 V 88.677045 c 0,-1.102002 -0.906,-2.006857 -2.0082,-2.006857 z m 0,1.225013 H 139.79138 c 0.4449,0 0.782,0.337164 0.782,0.781844 v 152.823695 0.1625 c 0,0.44466 -0.3371,0.7831 -0.782,0.7831 H 35.584476 c -0.4402,0 -0.775,-0.33254 -0.7818,-0.77052 v -0.15617 c 0,-0.005 0,-0.007 0,-0.0122 V 88.677045 c 0,-0.44468 0.3396,-0.781844 0.7843,-0.781844 z m 0,155.776059 H 139.79138 c 0.4449,0 0.782,0.33845 0.782,0.7831 v 1.13564 37.65826 c 0,0.44462 -0.3371,0.78434 -0.782,0.78434 H 35.584476 c -0.4447,0 -0.7845,-0.33972 -0.7845,-0.78434 v -37.62678 c 2e-4,-0.005 0,-0.007 0,-0.0122 v -1.1671 c 0,-0.43798 0.3418,-0.77051 0.7818,-0.77051 z" />
    <path
       id="path10780"
       style="font-style:normal;font-variant:normal;font-weight:normal;font-stretch:normal;font-size:16.0673px;line-height:1.3;font-family:Giaothong2;-inkscape-font-specification:Giaothong2;text-align:center;letter-spacing:0.165px;text-anchor:middle;opacity:1;fill:#ffffff;fill-opacity:1;stroke-width:0.264583"
       d="m 120.91388,228.86652 q -0.08,0 -0.08,-0.0809 v -9.66269 q 0,-0.0809 0.08,-0.0809 h 6.1767 q 0.08,0 0.08,0.0809 v 1.38907 q 0,0.0809 -0.08,0.0809 h -4.6324 v 2.58932 h 3.938 q 0.08,0 0.08,0.0809 v 1.30814 q 0,0.0743 -0.08,0.0743 h -3.938 v 2.68368 h 4.6324 q 0.08,0 0.08,0.0809 v 1.37556 q 0,0.0809 -0.08,0.0809 z m -9.5818,0 q -0.08,0 -0.08,-0.0809 v -9.66269 q 0,-0.0809 0.08,-0.0809 h 1.3889 q 0.041,0 0.068,0.0404 l 4.2481,6.68903 v -6.64857 q 0,-0.0809 0.08,-0.0809 h 1.4698 q 0.08,0 0.08,0.0809 v 9.66265 q 0,0.0809 -0.08,0.0809 h -1.3824 q -0.041,0 -0.068,-0.0404 l -4.2613,-6.68903 v 6.64858 q 0,0.0809 -0.073,0.0809 z m -9.7099,-0.007 q -0.046,0 -0.068,-0.0336 -0.025,-0.0336 0,-0.0743 l 3.5332,-9.6694 q 0.025,-0.0538 0.068,-0.0538 h 1.2069 q 0.025,0 0.041,0.0195 0.027,0.0146 0.034,0.0336 l 3.5264,9.66942 q 0.025,0.0404 0,0.074 -0.025,0.0336 -0.061,0.0336 h -1.5441 q -0.054,0 -0.068,-0.0538 l -0.7283,-2.1308 h -3.5602 q -0.1876,0.54619 -0.3775,1.07213 -0.1828,0.51921 -0.3709,1.05867 0,0.0195 -0.034,0.0404 -0.025,0.0146 -0.041,0.0146 z m 5.4414,-3.63447 q -0.025,-0.0473 -0.041,-0.10109 -0.025,-0.0538 -0.034,-0.0943 -0.114,-0.33042 -0.2096,-0.60689 -0.095,-0.2832 -0.1681,-0.49223 -0.046,-0.13473 -0.095,-0.26298 -0.041,-0.12816 -0.08,-0.24266 -0.034,-0.1079 -0.068,-0.20222 -0.034,-0.10108 -0.068,-0.19563 -0.061,-0.19563 -0.1291,-0.39109 -0.061,-0.19563 -0.12911,-0.40457 -0.034,-0.0945 -0.073,-0.20904 -0.034,-0.11448 -0.073,-0.24265 -0.025,-0.0675 -0.034,-0.10109 0,-0.0404 -0.025,-0.074 -0.025,-0.0404 -0.034,-0.0877 -0.025,-0.0472 -0.041,-0.13474 -0.073,0.22245 -0.1412,0.4113 -0.061,0.18882 -0.1141,0.35064 -0.025,0.0404 -0.025,0.0743 0,0.0336 -0.025,0.0675 -0.034,0.11472 -0.075,0.21585 -0.034,0.10109 -0.068,0.20222 -0.034,0.1079 -0.068,0.20904 -0.034,0.10108 -0.068,0.19563 -0.068,0.20222 -0.1414,0.4248 -0.068,0.22244 -0.1558,0.46528 -0.088,0.24266 -0.1828,0.52595 -0.095,0.27645 -0.2435,0.70128 z m -12.090303,3.64123 q -0.08,0 -0.08,-0.0809 v -9.66267 q 0,-0.0809 0.08,-0.0809 h 1.463 q 0.08,0 0.08,0.0809 v 8.20619 h 4.632603 q 0.08,0 0.08,0.0809 v 1.37559 q 0,0.0809 -0.08,0.0809 z m -11.2883,0 q -0.08,0 -0.08,-0.0809 v -9.66267 q 0,-0.0809 0.08,-0.0809 h 6.1766 q 0.08,0 0.08,0.0809 v 1.38905 q 0,0.0809 -0.08,0.0809 h -4.632402 v 2.58931 h 3.937802 q 0.08,0 0.08,0.0809 v 1.30811 q 0,0.0743 -0.08,0.0743 h -3.937802 v 2.68371 h 4.632402 q 0.08,0 0.08,0.0809 v 1.37555 q 0,0.0809 -0.08,0.0809 z m -5.4215,-3.93118 q -0.08,0 -0.08,-0.0809 v -1.38905 q 0,-0.0743 0.08,-0.0743 h 3.432299 q 0.08,0 0.08,0.0743 v 1.96894 q 0,1.49019 -1.024998,2.49489 -1.0385,1.01818 -2.501601,1.01818 -1.166598,0 -1.9622,-0.55964 -0.782299,-0.55294 -1.132999,-1.21374 v 0 q -0.129,-0.22926 -0.216702,-0.45852 -0.088,-0.23607 -0.133998,-0.49223 -0.041,-0.25625 -0.068,-0.81591 -0.025,-0.56638 -0.025,-1.44974 0,-0.88334 0.025,-1.44299 0.027,-0.55967 0.068,-0.8159 0.046,-0.25623 0.133998,-0.49221 0.088,-0.23608 0.216702,-0.46528 v 0 q 0.3507,-0.65407 1.132999,-1.21374 0.788799,-0.5664 1.9622,-0.5664 1.4024,0 2.319502,0.86309 0.930597,0.86309 1.152998,2.06334 0.025,0.0404 -0.025,0.0675 -0.027,0.027 -0.068,0.027 h -1.544201 q -0.061,0 -0.073,-0.0541 -0.088,-0.26971 -0.2496,-0.49896 -0.160798,-0.23609 -0.397698,-0.43831 -0.444902,-0.39783 -1.126302,-0.39783 -0.505799,0 -0.862899,0.20222 -0.357399,0.20221 -0.573201,0.46526 -0.129199,0.16178 -0.2218,0.37085 -0.095,0.20221 -0.148598,0.41807 -0.054,0.22925 -0.073,0.70802 -0.025,0.47874 -0.025,1.20024 0,0.73499 0.025,1.21373 0.025,0.47201 0.073,0.70128 0.054,0.20904 0.148598,0.41807 0.1022,0.20222 0.2218,0.35736 0.216702,0.2832 0.573201,0.48549 0.3571,0.19563 0.862899,0.19563 0.802701,0 1.348901,-0.54617 0.5528,-0.5462 0.5528,-1.42952 v -0.41808 z m -10.1483,-4.4301 v 2.77135 h 2.137399 q 0.782201,0 1.1733,-0.43154 0.391001,-0.43156 0.391001,-1.02495 0,-0.33713 -0.1217,-0.60009 -0.1152,-0.26298 -0.337301,-0.43158 -0.1948,-0.13497 -0.4585,-0.20904 -0.256,-0.0743 -0.559599,-0.0743 z m -1.544101,8.36128 q -0.08,0 -0.08,-0.0809 v -9.66267 q 0,-0.0809 0.08,-0.0809 h 3.7826 q 0.627002,0 1.1328,0.17543 0.505802,0.16859 0.8835,0.48551 0.194802,0.18199 0.3708,0.41805 0.1827,0.22925 0.316899,0.49898 0.141402,0.26972 0.2218,0.57315 0.08,0.30343 0.08,0.62709 0,0.47873 -0.134001,0.91031 -0.134001,0.42479 -0.3776,0.79565 -0.2496,0.3439 -0.579901,0.60687 -0.330398,0.25623 -0.748498,0.41133 0.545999,1.04516 1.099,2.1038 0.552799,1.0519 1.099198,2.09706 0.025,0.0473 0,0.0877 -0.025,0.0336 -0.068,0.0336 h -1.739498 q -0.025,0 -0.041,-0.0146 -0.025,-0.0195 -0.034,-0.0336 l -1.9759,-4.07949 h -1.746301 v 4.04577 q 0,0.0809 -0.08,0.0809 z m -7.829,0 q -0.08,0 -0.08,-0.0809 v -9.66267 q 0,-0.0809 0.08,-0.0809 h 6.176601 q 0.08,0 0.08,0.0809 v 1.38905 q 0,0.0809 -0.08,0.0809 h -4.6324 v 2.58929 h 3.937799 q 0.08,0 0.08,0.0809 v 1.30811 q 0,0.0743 -0.08,0.0743 h -3.937799 v 2.68369 h 4.6324 q 0.08,0 0.08,0.0809 v 1.37555 q 0,0.0809 -0.08,0.0809 z m -10.6,0 q -0.08,0 -0.08,-0.0809 v -9.66267 q 0,-0.0809 0.08,-0.0809 h 1.3821 q 0.046,0 0.073,0.0473 l 2.704,6.12937 q 0.654,-1.54412 1.315,-3.06129 0.6607,-1.52391 1.3214,-3.06807 0.025,-0.0473 0.073,-0.0473 h 1.3824 q 0.08,0 0.08,0.0809 v 9.66267 q 0,0.0809 -0.08,0.0809 h -1.4632 q -0.08,0 -0.08,-0.0809 v -5.70455 q -0.4719,1.0991 -0.9506,2.1847 -0.4788,1.08564 -0.9441,2.17799 -0.027,0.0404 -0.073,0.0404 h -1.2204 q -0.046,0 -0.073,-0.0404 l -1.9015,-4.37616 v 5.71802 q 0,0.0809 -0.08,0.0809 z m 69.856004,-20.3996 q -0.1023,0 -0.1023,-0.1031 v -12.31333 q 0,-0.10309 0.1023,-0.10309 h 1.7699 q 0.052,0 0.086,0.0516 l 5.4136,8.52404 v -8.4725 q 0,-0.10308 0.1023,-0.10308 h 1.8732 q 0.1023,0 0.1023,0.10308 v 12.31346 q 0,0.10309 -0.1023,0.10309 h -1.7614 q -0.051,0 -0.085,-0.0516 l -5.4309,-8.52403 v 8.47247 q 0,0.10308 -0.095,0.10308 z m -12.176,-0.007 q -0.061,0 -0.086,-0.0431 -0.027,-0.0431 0,-0.0945 l 4.5027,-12.32205 q 0.025,-0.0688 0.085,-0.0688 h 1.5383 q 0.027,0 0.052,0.0259 0.034,0.017 0.043,0.0431 l 4.4937,12.32204 q 0.025,0.0516 0,0.0945 -0.027,0.0429 -0.078,0.0429 h -1.9675 q -0.068,0 -0.086,-0.0686 l -0.928,-2.71533 h -4.5369 q -0.2411,0.69602 -0.4814,1.36625 -0.2314,0.66163 -0.4724,1.34908 0,0.0259 -0.043,0.0516 -0.027,0.017 -0.052,0.017 z m 6.9345,-4.63152 q -0.025,-0.0602 -0.051,-0.12889 -0.027,-0.0686 -0.043,-0.12036 -0.14631,-0.42102 -0.26661,-0.77334 -0.11929,-0.36088 -0.2144,-0.62724 -0.061,-0.17177 -0.11939,-0.33513 -0.051,-0.16324 -0.10231,-0.30934 -0.043,-0.13742 -0.086,-0.25779 -0.043,-0.12888 -0.085,-0.24919 -0.078,-0.24918 -0.16329,-0.4984 -0.078,-0.24918 -0.1631,-0.51554 -0.043,-0.12036 -0.095,-0.2664 -0.043,-0.14618 -0.095,-0.30934 -0.027,-0.086 -0.043,-0.12888 0,-0.0516 -0.027,-0.0945 -0.025,-0.0517 -0.043,-0.11178 -0.025,-0.0602 -0.052,-0.17176 -0.095,0.28357 -0.1802,0.52417 -0.078,0.24048 -0.1462,0.44683 -0.025,0.0516 -0.027,0.0945 0,0.0431 -0.027,0.086 -0.043,0.14617 -0.095,0.27496 -0.043,0.12888 -0.086,0.25779 -0.043,0.13741 -0.085,0.26636 -0.043,0.12889 -0.086,0.24921 -0.085,0.25777 -0.1803,0.54133 -0.085,0.28357 -0.1974,0.59291 -0.1117,0.30934 -0.2314,0.67024 -0.1193,0.35228 -0.3092,0.89364 z m -1.1344,-8.98806 q -0.025,0 -0.043,-0.009 -0.027,-0.017 -0.034,-0.0259 l -2.3715,-2.50908 q -0.051,-0.0516 -0.027,-0.11178 0.034,-0.0602 0.1022,-0.0602 h 1.8903 q 0.051,0 0.085,0.0516 l 1.7959,2.50907 q 0.027,0.0602 0,0.11179 -0.025,0.0431 -0.086,0.0431 z m -14.384303,13.62818 q -0.102301,0 -0.102301,-0.10309 v -12.31336 q 0,-0.10308 0.102301,-0.10308 h 1.8648 q 0.1022,0 0.1022,0.10308 v 10.45739 h 5.903403 q 0.1023,0 0.1023,0.10309 v 1.75295 q 0,0.10308 -0.1023,0.10308 z M 84.529178,197.9249 v 3.76363 h 2.672397 q 0.988201,0 1.469401,-0.5929 0.489701,-0.57571 0.489701,-1.28891 0,-1.06551 -0.756301,-1.55532 -0.4896,-0.3265 -1.271399,-0.3265 z m -1.967701,10.54335 q -0.102301,0 -0.102301,-0.10309 V 196.0518 q 0,-0.10308 0.102301,-0.10308 h 4.468199 q 0.738999,0 1.4006,0.15469 0.670201,0.15471 1.426502,0.73899 0.2921,0.23194 0.532799,0.54135 0.248899,0.30075 0.446799,0.67022 0.19,0.37809 0.292201,0.83352 0.1022,0.45539 0.1022,0.97098 0,1.34907 -1.013902,2.57783 -1.013999,1.22018 -2.947199,1.22018 h -2.741199 v 4.70886 q 0,0.10308 -0.102201,0.10308 z m -12.1759,-0.009 q -0.061,0 -0.086,-0.0431 -0.027,-0.0431 0,-0.0945 l 4.502599,-12.32205 q 0.025,-0.0688 0.086,-0.0688 h 1.538 q 0.027,0 0.051,0.0259 0.034,0.017 0.043,0.0431 l 4.494199,12.32207 q 0.025,0.0516 0,0.0945 -0.027,0.0431 -0.078,0.0431 h -1.967899 q -0.068,0 -0.085,-0.0686 l -0.9281,-2.71532 h -4.5369 q -0.241199,0.69602 -0.4811,1.36625 -0.2315,0.66162 -0.472702,1.34907 0,0.0259 -0.043,0.0516 -0.027,0.017 -0.051,0.017 z m 6.9343,-4.63152 q -0.025,-0.0602 -0.051,-0.12889 -0.027,-0.0686 -0.043,-0.12035 -0.146201,-0.42104 -0.2663,-0.77334 -0.119399,-0.36088 -0.2144,-0.62728 -0.061,-0.17176 -0.119399,-0.33511 -0.051,-0.16325 -0.102301,-0.30935 -0.043,-0.13741 -0.086,-0.25779 -0.043,-0.12888 -0.085,-0.24919 -0.078,-0.24919 -0.163298,-0.49838 -0.078,-0.24918 -0.163301,-0.51554 -0.043,-0.12035 -0.095,-0.26639 -0.043,-0.14619 -0.095,-0.30935 -0.027,-0.086 -0.043,-0.12889 0,-0.0516 -0.027,-0.0945 -0.025,-0.0516 -0.043,-0.11178 -0.025,-0.0602 -0.052,-0.17175 -0.095,0.28356 -0.180301,0.52417 -0.078,0.24048 -0.1461,0.44683 -0.025,0.0516 -0.027,0.0945 0,0.0431 -0.027,0.086 -0.043,0.14617 -0.095,0.27496 -0.043,0.12887 -0.085,0.25778 -0.043,0.13741 -0.086,0.26637 -0.043,0.12887 -0.085,0.24918 -0.085,0.25779 -0.180301,0.54136 -0.085,0.28356 -0.197299,0.59291 -0.1117,0.30932 -0.2315,0.67023 -0.119301,0.35229 -0.309301,0.89364 z m -4.734599,-8.98805 q -0.078,0 -0.095,-0.0688 -0.025,-0.0686 0.034,-0.11178 l 2.526202,-2.00214 h 1.16 l 2.5606,2.00214 q 0.061,0.0431 0.034,0.11178 -0.025,0.0688 -0.095,0.0688 h -1.443604 l -1.718601,-0.92802 q -0.3781,0.23194 -0.764698,0.46403 -0.386699,0.23193 -0.7649,0.46399 z m 2.234099,17.01372 q -0.095,0 -0.095,-0.0945 v -1.65842 q 0,-0.0945 0.095,-0.0945 h 1.666999 q 0.086,0 0.086,0.0945 v 1.65842 q 0,0.0945 -0.086,0.0945 z m -7.879501,-3.38553 q -0.1022,0 -0.1022,-0.10309 v -5.27598 h -4.683099 v 5.27598 q 0,0.10309 -0.102301,0.10309 h -1.864799 q -0.102201,0 -0.102201,-0.10309 v -12.31387 q 0,-0.10308 0.102201,-0.10308 h 1.864799 q 0.102301,0 0.102301,0.10308 v 5.17287 h 4.683099 v -5.17287 q 0,-0.10308 0.1022,-0.10308 h 1.864601 q 0.102201,0 0.102201,0.10308 v 12.31348 q 0,0.10309 -0.102201,0.10309 z m -18.7839,0 q -0.1022,0 -0.1022,-0.10309 v -12.31387 q 0,-0.10308 0.1022,-0.10308 h 1.77 q 0.051,0 0.086,0.0516 l 5.4135,8.52405 v -8.47247 q 0,-0.10309 0.1022,-0.10309 h 1.8735 q 0.1022,0 0.1022,0.10309 v 12.31345 q 0,0.10309 -0.1022,0.10309 h -1.7618 q -0.052,0 -0.086,-0.0516 l -5.4305,-8.52405 v 8.4725 q 0,0.10309 -0.095,0.10309 z" />
    <path
       id="path10708"
       style="font-style:normal;font-variant:normal;font-weight:normal;font-stretch:normal;font-size:27.4859px;line-height:1.3;font-family:Giaothong2;-inkscape-font-specification:Giaothong2;text-align:start;letter-spacing:-0.375px;text-anchor:start;opacity:1;fill:#ffffff;fill-opacity:1;stroke-width:0.264583"
       d="m 66.315677,254.8903 c -1.284201,0 -2.392,0.47303 -3.322701,1.41893 -0.915099,0.93048 -1.380599,2.07961 -1.3959,3.4484 0,0.0924 0.046,0.13838 0.138801,0.13838 h 2.353101 c 0.039,0 0.071,-0.009 0.093,-0.0339 0.032,-0.0219 0.046,-0.0548 0.046,-0.0931 0.032,-0.34604 0.1,-0.65245 0.2071,-0.92157 0.114001,-0.27686 0.2807,-0.51644 0.496002,-0.7164 0.438298,-0.40756 0.957498,-0.61061 1.557297,-0.61061 0.653601,0 1.173001,0.23097 1.557502,0.69244 0.3845,0.46911 0.576699,0.9689 0.576699,1.4995 0,0.23852 -0.034,0.484 -0.102299,0.73777 -0.068,0.24611 -0.224102,0.51974 -0.4621,0.81961 v -0.0122 l -6.46,8.08663 v 2.24985 c 0,0.0924 0.046,0.13716 0.1388,0.13716 h 9.366997 c 0.093,0 0.1388,-0.0448 0.1388,-0.13716 v -2.34175 c 0,-0.0924 -0.046,-0.1384 -0.1388,-0.1384 h -5.998001 c 0.438502,-0.55365 0.868902,-1.09236 1.291802,-1.61528 0.422899,-0.53064 0.8461,-1.05715 1.2691,-1.58006 0.4229,-0.5306 0.844799,-1.06205 1.267799,-1.59265 0.423,-0.53061 0.8534,-1.0717 1.291701,-1.62538 v 0.0122 c 0.338399,-0.42295 0.5926,-0.88015 0.761799,-1.37232 0.168201,-0.49216 0.254399,-1.02724 0.254399,-1.60399 0,-1.33035 -0.473098,-2.46857 -1.418899,-3.41441 h 0.025 c -0.953601,-0.95357 -2.125901,-1.43025 -3.517799,-1.43025 z m 22.5968,0 c -1.253501,0 -2.363801,0.42682 -3.3327,1.28043 -0.976802,0.83821 -1.4654,2.03351 -1.4654,3.5869 v 7.25569 c 0,1.55336 0.488598,2.74997 1.4654,3.58816 0.968899,0.84594 2.079199,1.26786 3.3327,1.26786 1.2534,0 2.364899,-0.42192 3.3338,-1.26786 0.984301,-0.84588 1.4766,-2.04248 1.4766,-3.58816 v -7.25569 c 0,-0.769 -0.1266,-1.44871 -0.38,-2.04085 -0.246099,-0.59981 -0.612201,-1.11542 -1.0966,-1.54605 -0.484499,-0.41527 -1.007401,-0.7302 -1.568701,-0.94554 -0.553799,-0.22291 -1.1424,-0.33489 -1.765099,-0.33489 z m -15.540299,0.14983 c -0.085,0 -0.126701,0.0463 -0.126701,0.13839 v 8.88231 c 0,0.0845 0.041,0.12718 0.126701,0.12718 h 2.227299 c 0.046,0 0.083,-0.0243 0.1152,-0.0692 0.484499,-0.86126 1.149699,-1.29297 1.9955,-1.29297 0.922798,0 1.5224,0.27361 1.799098,0.81959 0.146201,0.29223 0.258001,0.62663 0.335002,1.00342 0.077,0.36915 0.113999,0.77284 0.113999,1.21118 0,0.73823 -0.1,1.50676 -0.299699,2.3065 -0.160801,0.72286 -0.7889,1.08529 -1.880902,1.08529 -1.207497,0 -1.945698,-0.60441 -2.2147,-1.81173 -0.025,-0.0692 -0.061,-0.10332 -0.138798,-0.10332 h -2.353302 c -0.039,0 -0.073,0.0146 -0.102298,0.0454 -0.032,0.0307 -0.043,0.0661 -0.034,0.1045 0.168101,1.56105 0.768602,2.68709 1.799201,3.37916 1.007499,0.66905 2.053101,1.00343 3.137501,1.00343 0.8382,0 1.5777,-0.19222 2.215899,-0.57659 0.6073,-0.37683 1.091501,-0.78781 1.4528,-1.23384 0.369099,-0.4845 0.634201,-0.99153 0.7957,-1.52215 l -0.025,0.0122 c 0.093,-0.28452 0.1583,-0.63474 0.1973,-1.05001 0.046,-0.41525 0.068,-0.89924 0.068,-1.45289 0,-1.36114 -0.111699,-2.34249 -0.3346,-2.94231 -0.107,-0.29221 -0.246398,-0.57679 -0.4158,-0.85362 -0.168098,-0.28452 -0.364998,-0.54961 -0.587799,-0.79568 -0.1535,-0.16153 -0.342299,-0.31471 -0.5653,-0.46081 -0.2144,-0.15373 -0.449901,-0.29243 -0.7038,-0.41546 -0.2614,-0.12305 -0.542301,-0.21538 -0.842201,-0.277 -0.292399,-0.0692 -0.6,-0.10449 -0.922999,-0.10449 -0.915101,0 -1.745601,0.26143 -2.4917,0.78436 v -3.30994 h 6.390899 c 0.093,0 0.138901,-0.0463 0.138901,-0.13838 v -2.35312 c 0,-0.0924 -0.046,-0.13838 -0.138901,-0.13838 z m 15.540299,2.48025 c 0.661098,0 1.189098,0.21146 1.5811,0.63454 0.4001,0.41527 0.5994,0.99529 0.5994,1.74122 v 6.97869 c 0,0.75362 -0.199901,1.33854 -0.5994,1.7538 -0.392002,0.41525 -0.920002,0.62321 -1.5811,0.62321 -0.661501,0 -1.188,-0.20784 -1.580301,-0.62321 -0.391998,-0.41526 -0.587801,-1.00018 -0.587801,-1.7538 v -6.97869 c 0,-0.74593 0.1949,-1.32595 0.587801,-1.74122 0.392301,-0.42295 0.9188,-0.63454 1.580301,-0.63454 z m 17.044303,4.61804 c -0.9754,0 -1.7551,0.3165 -2.3403,0.95056 v -0.74032 c 0,-0.0731 -0.036,-0.10965 -0.1093,-0.10965 h -1.866 c -0.073,0 -0.1093,0.0363 -0.1093,0.10965 v 9.27263 c 0,0.0731 0.036,0.10967 0.1093,0.10967 h 1.866 c 0.073,0 0.1093,-0.0363 0.1093,-0.10967 v -5.52328 c 0,-0.60969 0.1583,-1.07289 0.4758,-1.38995 0.3292,-0.32922 0.7494,-0.49352 1.2616,-0.49352 0.4937,0 0.9057,0.16421 1.235,0.49352 0.3293,0.32923 0.4935,0.79248 0.4935,1.38995 v 5.52328 c 0,0.0731 0.034,0.10967 0.1,0.10967 h 1.866 c 0.066,0 0.1,-0.0363 0.1,-0.10967 v -5.52328 c 0,-0.60357 0.1608,-1.0668 0.4845,-1.38995 0.3295,-0.32922 0.7507,-0.49352 1.2627,-0.49352 0.494,0 0.9048,0.16421 1.2341,0.49352 0.323,0.32315 0.4846,0.78638 0.4846,1.38995 v 5.52328 c 0,0.0731 0.036,0.10967 0.1117,0.10967 h 1.8648 c 0.073,0 0.1093,-0.0363 0.1093,-0.10967 v -6.16409 c 0,-1.08526 -0.3489,-1.91076 -1.0436,-2.47777 -0.7012,-0.56088 -1.4204,-0.84101 -2.1581,-0.84101 -1.2073,0 -2.1847,0.38653 -2.9349,1.16082 -0.1535,-0.15861 -0.3137,-0.3013 -0.4845,-0.42934 -0.1705,-0.13399 -0.3484,-0.25663 -0.5314,-0.36638 -0.4083,-0.24385 -0.9389,-0.3651 -1.5914,-0.3651 z" />
    <path
       sodipodi:nodetypes="ccsccccccscc"
       d="m 61.682976,150.45723 -9.3102,13.52049 c -0.401,0.48922 -0.459,1.097 -0.1487,1.50717 0.4059,0.53748 1.0055,0.66892 1.7242,0.608 l 4.0491,-1.5952 v 17.03568 h 7.197901 v -17.03568 l 4.223801,1.5952 c 0.906798,0.0256 1.169598,-0.10838 1.484399,-0.46208 0.3477,-0.39084 0.361098,-1.17627 0.091,-1.65309 z"
       style="opacity:1;fill:#ffffff;fill-rule:evenodd;stroke-width:0.119062;stroke-linecap:square;stroke-miterlimit:10;paint-order:stroke fill markers"
       id="path10739" />
    <path
       id="path10741"
       style="opacity:1;fill:#ffffff;fill-rule:evenodd;stroke-width:0.119062;stroke-linecap:square;stroke-miterlimit:10;paint-order:stroke fill markers"
       d="m 85.751976,150.45764 -9.310399,13.52051 c -0.4011,0.4892 -0.459002,1.09698 -0.148701,1.50718 0.406,0.53746 1.005602,0.6689 1.724401,0.60797 l 4.049098,-1.5952 v 17.03568 h 7.197601 V 164.4981 l 4.224102,1.5952 c 0.906798,0.0256 1.169397,-0.10836 1.484199,-0.46208 0.3479,-0.39084 0.3611,-1.17627 0.091,-1.65307 z"
       sodipodi:nodetypes="ccsccccccscc" />
    <path
       sodipodi:nodetypes="ccsccccccscc"
       d="m 102.08528,140.2714 2.9756,15.99958 c 0.059,0.6299 0.4433,1.1035 0.952,1.17815 0.6663,0.0979 1.1855,-0.2295 1.6547,-0.77738 l 1.8038,-3.92775 12.1266,11.93206 4.9085,-5.08977 -11.9487,-11.94549 4.128,-1.829 c 0.6638,-0.61838 0.757,-0.89816 0.7329,-1.37108 -0.027,-0.52254 -0.5687,-1.0912 -1.0968,-1.24009 z"
       style="opacity:1;fill:#ffcc00;fill-rule:evenodd;stroke-width:0.119062;stroke-linecap:square;stroke-miterlimit:10;paint-order:stroke fill markers"
       id="path10743" />
  </g>
</svg>
