<?xml version="1.0" encoding="UTF-8" standalone="no"?>
<svg
   xmlns:dc="http://purl.org/dc/elements/1.1/"
   xmlns:cc="http://creativecommons.org/ns#"
   xmlns:rdf="http://www.w3.org/1999/02/22-rdf-syntax-ns#"
   xmlns:svg="http://www.w3.org/2000/svg"
   xmlns="http://www.w3.org/2000/svg"
   xmlns:sodipodi="http://sodipodi.sourceforge.net/DTD/sodipodi-0.dtd"
   xmlns:inkscape="http://www.inkscape.org/namespaces/inkscape"
   sodipodi:docname="Vietnam_road_sign_IE459a.svg"
   inkscape:version="1.0 (4035a4fb49, 2020-05-01)"
   id="svg9491"
   version="1.1"
   viewBox="0 0 297.12018 199.99999"
   height="200mm"
   width="297.12018mm">
  <defs
     id="defs9485">
    <clipPath
       id="clipPath2832">
      <path
         inkscape:connector-curvature="0"
         id="path2834"
         d="M -0.24,595.138 H 317.24 V -0.138 H -0.24 Z" />
    </clipPath>
    <clipPath
       id="clipPath2840">
      <path
         inkscape:connector-curvature="0"
         id="path2842"
         d="M 0.03,595.32 H 317.49 V 0 H 0.03 Z" />
    </clipPath>
    <clipPath
       id="clipPath2858">
      <path
         inkscape:connector-curvature="0"
         id="path2860"
         d="M -0.24,595.138 H 317.24 V -0.138 H -0.24 Z" />
    </clipPath>
    <clipPath
       id="clipPath2864">
      <path
         inkscape:connector-curvature="0"
         id="path2866"
         d="M 0.03,595.32 H 317.49 V 0 H 0.03 Z" />
    </clipPath>
    <clipPath
       id="clipPath3306">
      <path
         inkscape:connector-curvature="0"
         id="path3308"
         d="m 199.238,472.977 v -29.74 h 29.744 v 29.74" />
    </clipPath>
    <clipPath
       id="clipPath3322">
      <path
         inkscape:connector-curvature="0"
         id="path3324"
         d="M -0.24,595.138 H 317.24 V -0.138 H -0.24 Z" />
    </clipPath>
    <clipPath
       id="clipPath3330">
      <path
         inkscape:connector-curvature="0"
         id="path3332"
         d="M 0.03,595.32 H 317.49 V 0 H 0.03 Z" />
    </clipPath>
    <clipPath
       id="clipPath3344">
      <path
         inkscape:connector-curvature="0"
         id="path3346"
         d="m 88.233,387.221 v -28.335 h 32.08 v 28.335" />
    </clipPath>
    <clipPath
       id="clipPath3462">
      <path
         inkscape:connector-curvature="0"
         id="path3464"
         d="M -0.24,595.138 H 317.24 V -0.138 H -0.24 Z" />
    </clipPath>
    <clipPath
       id="clipPath3470">
      <path
         inkscape:connector-curvature="0"
         id="path3472"
         d="M 0.03,595.32 H 317.49 V 0 H 0.03 Z" />
    </clipPath>
    <clipPath
       id="clipPath3490">
      <path
         inkscape:connector-curvature="0"
         id="path3492"
         d="M -0.24,595.138 H 317.24 V -0.138 H -0.24 Z" />
    </clipPath>
    <clipPath
       id="clipPath3496">
      <path
         inkscape:connector-curvature="0"
         id="path3498"
         d="M 0.03,595.32 H 317.49 V 0 H 0.03 Z" />
    </clipPath>
    <clipPath
       id="clipPath3520">
      <path
         inkscape:connector-curvature="0"
         id="path3522"
         d="m 254.788,326.215 v -28.309 h 28.326 v 28.309" />
    </clipPath>
    <clipPath
       id="clipPath3544">
      <path
         inkscape:connector-curvature="0"
         id="path3546"
         d="m 145.049,326.142 v -28.333 h 28.342 v 28.333" />
    </clipPath>
    <clipPath
       id="clipPath3682">
      <path
         inkscape:connector-curvature="0"
         id="path3684"
         d="M -0.24,595.138 H 317.24 V -0.138 H -0.24 Z" />
    </clipPath>
    <clipPath
       id="clipPath3690">
      <path
         inkscape:connector-curvature="0"
         id="path3692"
         d="M 0.03,595.32 H 317.49 V 0 H 0.03 Z" />
    </clipPath>
    <clipPath
       id="clipPath3980">
      <path
         inkscape:connector-curvature="0"
         id="path3982"
         d="M -0.24,595.138 H 317.24 V -0.138 H -0.24 Z" />
    </clipPath>
    <clipPath
       id="clipPath3988">
      <path
         inkscape:connector-curvature="0"
         id="path3990"
         d="M 0.03,595.32 H 317.49 V 0 H 0.03 Z" />
    </clipPath>
    <clipPath
       id="clipPath4010">
      <path
         inkscape:connector-curvature="0"
         id="path4012"
         d="M -0.24,595.138 H 317.24 V -0.138 H -0.24 Z" />
    </clipPath>
    <clipPath
       id="clipPath4016">
      <path
         inkscape:connector-curvature="0"
         id="path4018"
         d="M 0.03,595.32 H 317.49 V 0 H 0.03 Z" />
    </clipPath>
    <clipPath
       id="clipPath4062">
      <path
         inkscape:connector-curvature="0"
         id="path4064"
         d="m 200.163,177.773 v -28.284 h 28.283 v 28.284" />
    </clipPath>
    <clipPath
       id="clipPath4090">
      <path
         inkscape:connector-curvature="0"
         id="path4092"
         d="m 34.886,177.515 v -51.632 h 30.367 v 51.632" />
    </clipPath>
    <clipPath
       id="clipPath4106">
      <path
         inkscape:connector-curvature="0"
         id="path4108"
         d="m 34.886,177.515 v -51.632 h 30.367 v 51.632" />
    </clipPath>
    <clipPath
       id="clipPath4272">
      <path
         inkscape:connector-curvature="0"
         id="path4274"
         d="m 34.886,177.515 v -51.632 h 30.367 v 51.632" />
    </clipPath>
    <clipPath
       id="clipPath4304">
      <path
         inkscape:connector-curvature="0"
         id="path4306"
         d="m 254.653,176.442 v -48.167 h 28.317 v 48.167" />
    </clipPath>
    <clipPath
       id="clipPath4310">
      <path
         inkscape:connector-curvature="0"
         id="path4312"
         d="m 253.565,177.983 h 31.181 V 128.8 h -31.181 z" />
    </clipPath>
    <clipPath
       id="clipPath4316">
      <path
         inkscape:connector-curvature="0"
         id="path4318"
         d="M -0.24,595.138 H 317.24 V -0.138 H -0.24 Z" />
    </clipPath>
    <clipPath
       id="clipPath4322">
      <path
         inkscape:connector-curvature="0"
         id="path4324"
         d="M 0.03,595.32 H 317.49 V 0 H 0.03 Z" />
    </clipPath>
    <clipPath
       id="clipPath4456">
      <path
         inkscape:connector-curvature="0"
         id="path4458"
         d="M -0.24,595.138 H 317.24 V -0.138 H -0.24 Z" />
    </clipPath>
    <clipPath
       id="clipPath4464">
      <path
         inkscape:connector-curvature="0"
         id="path4466"
         d="M 0.03,595.32 H 317.49 V 0 H 0.03 Z" />
    </clipPath>
  </defs>
  <sodipodi:namedview
     inkscape:document-rotation="0"
     inkscape:measure-end="0,0"
     inkscape:measure-start="0,0"
     inkscape:window-maximized="1"
     inkscape:window-y="-9"
     inkscape:window-x="-9"
     inkscape:window-height="1001"
     inkscape:window-width="1920"
     showgrid="false"
     inkscape:current-layer="layer1"
     inkscape:document-units="mm"
     inkscape:cy="606.46909"
     inkscape:cx="229.7678"
     inkscape:zoom="0.5298281"
     inkscape:pageshadow="2"
     inkscape:pageopacity="0.0"
     borderopacity="1.0"
     bordercolor="#666666"
     pagecolor="#ffffff"
     id="base" />
  <metadata
     id="metadata9488">
    <rdf:RDF>
      <cc:Work
         rdf:about="">
        <dc:format>image/svg+xml</dc:format>
        <dc:type
           rdf:resource="http://purl.org/dc/dcmitype/StillImage" />
        <dc:title></dc:title>
      </cc:Work>
    </rdf:RDF>
  </metadata>
  <g
     transform="translate(-682.8001,-44.440231)"
     id="layer1"
     inkscape:groupmode="layer"
     inkscape:label="Layer 1">
    <g
       transform="matrix(1.6550836,0,0,1.6550836,-321.31659,-238.56049)"
       style="font-size:31.1478px;line-height:1.3;font-family:'Singapore Road Signs';-inkscape-font-specification:'Singapore Road Signs';text-align:center;text-anchor:middle;stroke-width:0.159861"
       id="text19759"
       aria-label="6" />
    <path
       d="M 682.8001,44.440231 H 979.92029 V 244.44023 H 682.8001 Z"
       style="opacity:1;fill:#0a9646;fill-opacity:1;fill-rule:evenodd;stroke-width:0.0420689;stroke-linecap:square;stroke-miterlimit:10;paint-order:stroke fill markers"
       id="rect15575"
       sodipodi:nodetypes="ccccc" />
    <rect
       style="opacity:1;fill:#0046aa;fill-opacity:1;fill-rule:evenodd;stroke-width:0.119062;stroke-linecap:square;stroke-miterlimit:10;paint-order:stroke fill markers"
       id="rect13363"
       width="138.72086"
       height="76.551476"
       x="704.14655"
       y="65.849678" />
    <path
       id="path15582"
       style="color:#000000;font-style:normal;font-variant:normal;font-weight:normal;font-stretch:normal;font-size:medium;line-height:normal;font-family:sans-serif;font-variant-ligatures:normal;font-variant-position:normal;font-variant-caps:normal;font-variant-numeric:normal;font-variant-alternates:normal;font-variant-east-asian:normal;font-feature-settings:normal;font-variation-settings:normal;text-indent:0;text-align:start;text-decoration:none;text-decoration-line:none;text-decoration-style:solid;text-decoration-color:#000000;letter-spacing:normal;word-spacing:normal;text-transform:none;writing-mode:lr-tb;direction:ltr;text-orientation:mixed;dominant-baseline:auto;baseline-shift:baseline;text-anchor:start;white-space:normal;shape-padding:0;shape-margin:0;inline-size:0;clip-rule:nonzero;display:inline;overflow:visible;visibility:visible;opacity:1;isolation:auto;mix-blend-mode:normal;color-interpolation:sRGB;color-interpolation-filters:linearRGB;solid-color:#000000;solid-opacity:1;vector-effect:none;fill:#ffffff;fill-opacity:1;fill-rule:evenodd;stroke:none;stroke-width:0.553499;stroke-linecap:square;stroke-linejoin:miter;stroke-miterlimit:10;stroke-dasharray:none;stroke-dashoffset:0;stroke-opacity:1;paint-order:stroke fill markers;color-rendering:auto;image-rendering:auto;shape-rendering:auto;text-rendering:auto;enable-background:accumulate;stop-color:#000000;stop-opacity:1"
       d="m 695.2355,46.493351 c -5.65725,0 -10.2742,4.61588 -10.2742,10.27344 v 74.977119 19.30444 20.09218 5.68958 55.17444 c 0,5.65726 4.61695,10.26938 10.2742,10.26938 h 272.24249 c 5.6572,0 10.2741,-4.61212 10.2741,-10.26938 v -55.17444 -5.54116 -23.60738 -15.93766 -74.977119 c 0,-5.65756 -4.6169,-10.27344 -10.2741,-10.27344 z m 0,3.87198 h 272.24249 c 3.5806,0 6.4084,2.82108 6.4084,6.40146 v 74.977119 15.93766 c 0,0.12414 -0.01,0.25211 -0.019,0.3841 v 2.95261 c 0,3.55896 -2.8654,6.4244 -6.4246,6.4244 h -3.3086 c -0.08,0.004 -0.1544,0.008 -0.2291,0.008 H 698.37761 c -0.0743,0 -0.15249,-0.004 -0.2295,-0.008 h -2.90786 c -3.55919,0 -6.42459,-2.86544 -6.42459,-6.4244 V 56.793461 c 0,-0.68 0.10536,-1.33313 0.29923,-1.94738 0.008,-0.023 0.0153,-0.0383 0.0191,-0.0552 0.81812,-2.59004 3.21234,-4.42772 6.10131,-4.42772 z m -0.0307,110.982319 h 2.851 266.09779 3.3257 c 3.5402,0 6.3911,2.84963 6.3911,6.38978 v 3.11053 c 0.012,0.15249 0.019,0.30077 0.019,0.44099 v 5.54116 55.17444 c 0,2.24369 -1.1107,4.18785 -2.8205,5.32753 -1.0213,0.69064 -2.2547,1.09359 -3.5857,1.09359 h -272.2773 c -3.54023,0 -6.39012,-2.85005 -6.39012,-6.39023 v -64.29801 c 0,-3.54015 2.84989,-6.38978 6.39012,-6.38978 z"
       sodipodi:nodetypes="ssccccssssccccssscsscscsscsscssscccccccsscscscsssscc" />
    <path
       id="path13365"
       style="opacity:1;fill:#ffffff;fill-opacity:1;fill-rule:evenodd;stroke-width:0.119062;stroke-linecap:square;stroke-miterlimit:10;paint-order:stroke fill markers"
       d="m 704.14555,65.85036 v 76.55147 H 842.86642 V 65.85036 Z m 4.46945,2.063075 h 129.73994 c 1.25766,0 2.27098,1.013314 2.27098,2.270958 v 67.917067 c 0,1.25769 -1.01332,2.27097 -2.27098,2.27097 H 708.615 c -1.25768,0 -2.27097,-1.01328 -2.27097,-2.27097 V 70.184393 c 0,-1.257644 1.01329,-2.270958 2.27097,-2.270958 z m 109.31907,11.396386 c -3.32214,0 -5.5715,2.38137 -5.5715,5.502198 V 97.96658 c 0,4.36243 3.02139,5.63682 5.63882,5.63682 3.05369,0 5.43488,-2.58281 5.43488,-5.53585 v -1.47702 h -3.4213 v 1.17409 c 0,1.8792 -1.20861,2.41749 -2.1482,2.41749 -1.54362,0 -2.08089,-1.0753 -2.08089,-2.45114 V 85.516865 c 0,-1.610743 0.40314,-2.785748 2.11453,-2.785748 1.30876,0 2.11515,1.142526 2.11456,2.48481 v 1.14043 h 3.4213 v -1.34239 c 0,-3.322168 -2.34783,-5.704146 -5.5022,-5.704146 z M 709.46834,79.50978 v 23.89363 h 3.42329 v -7.1475 l 1.84526,-3.45694 3.89251,10.60444 h 3.62325 l -5.53587,-14.328645 4.6647,-9.564985 h -3.42329 l -5.00125,10.90735 h -0.0651 V 79.50978 Z m 14.28705,0 v 23.89363 h 3.42329 V 92.76533 h 4.22911 v 10.6381 h 3.42127 V 79.509795 h -3.42127 v 10.236162 h -4.22911 V 79.509795 Z m 14.28907,0 v 18.5241 c 0,3.12081 2.48215,5.56951 5.53583,5.56951 3.05372,0 5.53792,-2.4487 5.53783,-5.56951 v -18.5241 h -3.42326 v 18.18751 c 0,1.67782 -0.9065,2.4848 -2.11457,2.4848 -1.20807,0 -2.11249,-0.80698 -2.11254,-2.4848 V 79.50978 Z m 20.51389,0 v 23.89363 h 4.76569 c 4.02684,0 6.30801,-2.11407 6.30801,-6.54362 V 85.685139 c 0,-3.859073 -2.14797,-6.175359 -6.00708,-6.175359 z m 14.28711,0 v 18.5241 c 0,3.12081 2.48411,5.56951 5.53783,5.56951 3.05367,0 5.53782,-2.4487 5.53782,-5.56951 V 79.509795 h -3.42329 V 97.69731 c 0,1.67781 -0.9065,2.4848 -2.11453,2.4848 -1.20808,0 -2.11453,-0.80699 -2.11458,-2.4848 V 79.509795 Z m 20.5159,0 v 23.89363 h 10.20051 v -3.42326 h -6.77922 V 79.509795 Z m 12.4873,0 v 23.89363 h 3.4233 V 79.50978 Z m 20.34761,0 v 23.89363 h 3.42326 V 92.76533 h 4.22911 v 10.6381 h 3.4213 V 79.509795 h -3.4213 v 10.236162 h -4.22911 V 79.509795 Z m -64.21462,3.221321 h 1.576 c 2.01343,0 2.65112,1.074838 2.65112,2.954038 V 97.1944 c 0,2.04698 -0.73836,2.98769 -2.65112,2.98769 h -1.576 z m 43.97391,23.414499 v 2.72436 h 3.05108 v -2.72436 z m -74.9101,7.17523 c -2.08817,0 -4.30041,1.45922 -4.30041,4.37757 v 9.46005 c 0,2.91831 2.21224,4.37761 4.30041,4.37761 2.08814,0 4.30237,-1.4593 4.30237,-4.37761 v -9.46005 c 0,-2.91835 -2.21423,-4.37757 -4.30237,-4.37757 z m 38.54103,0 c -2.94352,0 -4.40332,2.18909 -4.40332,4.90623 0,2.23909 0.57973,3.69758 2.79365,4.60328 l 1.83538,0.75436 c 1.25796,0.50317 1.48494,0.80646 1.48494,2.71843 0,1.63531 -0.1253,2.66695 -1.8611,2.66695 -1.30825,0 -1.81162,-0.90651 -1.81162,-1.83738 v -0.80382 h -2.56599 v 0.95432 c 0,2.41521 1.88691,4.25286 4.37761,4.25286 3.32087,0 4.42707,-2.23967 4.42707,-5.25868 0,-2.61648 -0.42838,-4.05083 -2.69269,-4.90622 l -1.96208,-0.78007 c -1.3334,-0.52835 -1.45922,-1.00604 -1.45922,-2.38978 0,-1.18244 0.32759,-2.31453 1.73641,-2.31453 1.30823,0 1.81262,0.98163 1.81161,2.16407 v 0.57812 h 2.56597 v -1.25723 c 0,-1.98752 -1.71044,-4.05091 -4.27662,-4.05091 z m -53.24985,0.15057 v 2.41545 h 2.96988 v 15.49882 h 2.56599 v -15.49882 h 2.96789 v -2.41545 z m 21.67615,0 v 13.88712 c 0,2.33971 1.86245,4.17762 4.15186,4.17762 2.28943,0 4.1499,-1.83791 4.1499,-4.17762 V 113.4714 h -2.56594 v 13.63567 c 0,1.25791 -0.67824,1.86308 -1.58397,1.86308 -0.90566,0 -1.58588,-0.60517 -1.58588,-1.86308 V 113.4714 Z m 11.2182,0 v 17.91427 h 2.56595 v -7.64841 h 1.53446 l 2.39173,7.64841 h 2.71646 l -2.76795,-8.17706 c 1.63532,-0.9057 2.21354,-2.41561 2.21354,-4.47857 0,-3.47188 -1.48388,-5.25864 -4.52803,-5.25864 z m 11.29542,0 v 17.91427 h 2.56594 V 113.4714 Z m 14.68106,0 v 2.41545 h 2.96988 v 15.49882 h 2.56599 v -15.49882 h 2.96789 v -2.41545 z m 18.06081,0 -4.00141,17.91427 h 2.56595 l 0.75635,-3.85094 h 3.49654 l 0.75436,3.85094 h 2.56596 l -3.99946,-17.9143 z m 7.78305,0 v 17.91427 h 2.56594 v -7.64841 h 1.53447 l 2.38978,7.64841 h 2.71641 l -2.76595,-8.17706 c 1.63531,-0.9057 2.21357,-2.41561 2.21357,-4.47857 0,-3.47188 -1.48389,-5.25867 -4.52806,-5.25867 z m 11.21821,0 v 17.91427 h 7.64842 v -2.56797 h -5.08246 v -5.25668 h 4.4271 v -2.41549 h -4.4271 v -5.25868 h 5.08246 v -2.41548 z m 12.83977,0 -3.99945,17.91427 h 2.56598 l 0.75433,-3.85094 h 3.49655 l 0.75431,3.85094 h 2.56599 l -3.99942,-17.9143 z m -94.06385,2.41545 c 0.93083,0 1.73638,0.57889 1.73638,1.81167 v 9.46004 c 0,1.23267 -0.80555,1.81159 -1.73638,1.81159 -0.93087,0 -1.73442,-0.57892 -1.73442,-1.81159 v -9.46004 c 0,-1.23278 0.80355,-1.81167 1.73442,-1.81167 z m 20.75148,0 h 1.33448 c 1.8869,0 2.18781,0.98229 2.18781,2.79369 0,1.78626 -0.27661,2.79169 -2.06308,2.79169 h -1.45921 z m 51.82034,0 h 1.33251 c 1.88691,0 2.18978,0.98229 2.18978,2.79369 0,1.78626 -0.27662,2.79169 -2.06308,2.79169 h -1.45922 z m -9.31747,2.74219 h 0.0494 l 1.25723,6.49219 h -2.56595 z m 31.84103,0 h 0.0494 l 1.25922,6.49219 h -2.56599 z"
       sodipodi:nodetypes="cccccssssssssssssssccssssssccssccccccccccccccccccccccccccccsssccsssccccssssccsssccsssccccccccccccccccccccccccccccsssscccccccsssssssssccsssccsssccsssccssccccccccccsssccsssccccccccccssccccccccccccccccccccccccccccccccsccccccccccccccccccccccccssssssscssscccssscccccccccccc" />
    <path
       id="path9104"
       style="font-style:normal;font-variant:normal;font-weight:normal;font-stretch:normal;font-size:24.8363px;line-height:1.3;font-family:DINSchrift;-inkscape-font-specification:DINSchrift;text-align:center;text-anchor:middle;opacity:1;fill:#ffffff;fill-opacity:1;stroke-width:0.264583"
       d="m 895.04789,82.586521 -3.7104,4.90626 h 2.164 l 4.94,-4.90626 z m 42.1761,1.58197 -3.837,5.07454 h 2.2373 l 5.0903,-5.07454 z m -50.3156,1.65324 -3.5876,3.60345 h 2.3739 l 2.4611,-1.88094 2.5323,1.88094 h 2.4076 l -3.55,-3.60345 z m 56.7286,3.16192 -1.2751,1.14638 c 0.4001,0.56969 0.5639,1.06662 0.4911,1.49087 -0.073,0.43639 -0.3203,0.8057 -0.7445,1.10876 -0.1376,0.10306 -0.2839,0.15249 -0.4336,0.17624 v -1.95814 h -3.4253 v 18.195419 c 0,1.67848 -0.906,2.4848 -2.1145,2.4848 -1.2085,0 -2.1146,-0.80632 -2.1146,-2.4848 V 90.947761 h -3.4233 v 18.532009 c 0,3.12195 2.4831,5.5715 5.5379,5.5715 3.0548,0 5.5398,-2.44955 5.5398,-5.5715 V 94.685841 c 0.066,-0.003 0.1272,-0.004 0.1961,-0.0115 0.5819,-0.0609 1.1816,-0.31571 1.7998,-0.76425 0.6667,-0.48486 1.0075,-1.18171 1.0196,-2.09078 0.023,-0.90914 -0.2252,-1.72212 -0.7464,-2.43729 -0.097,-0.13333 -0.1977,-0.26666 -0.3069,-0.39995 z m 8.4483,1.76412 c -3.3234,0 -5.5715,2.38223 -5.5715,5.50414 v 13.160539 c 0,4.36401 3.0204,5.63878 5.6388,5.63878 3.0548,0 5.4388,-2.58372 5.4388,-5.53783 v -1.47703 h -3.4252 v 1.17413 c 0,1.87986 -1.2083,2.41744 -2.1482,2.41744 -1.5442,0 -2.0809,-1.07478 -2.0809,-2.45112 V 96.956771 c 0,-1.61132 0.4025,-2.78575 2.1145,-2.78575 1.3092,0 2.1146,1.14206 2.1146,2.4848 v 1.14044 h 3.4252 v -1.34239 c 0,-3.32334 -2.3506,-5.7061 -5.5061,-5.7061 z m -83.1981,0.19999 v 23.901559 h 4.6667 c 4.4312,0 6.411,-2.34936 6.411,-6.51196 v -1.34235 c 0,-2.48415 -0.7369,-3.92827 -2.3482,-4.70033 1.5106,-0.93995 2.3482,-1.87979 2.3482,-4.431059 v -0.87313 c 0,-3.12196 -1.6433,-6.04273 -6.0744,-6.04273 z m 14.2931,0 v 23.901559 h 10.2064 v -3.42329 h -6.7812 v -7.01682 h 5.9081 v -3.22134 h -5.9081 v -7.016809 h 6.7812 v -3.2233 z m 13.3723,0 v 23.901559 h 3.4252 v -14.36627 h 0.067 l 5.2368,14.36627 h 3.2214 V 90.947761 h -3.4233 v 14.401899 h -0.067 l -5.1696,-14.401899 z m 21.9573,0 v 23.901559 h 10.2044 v -3.42329 h -6.7812 V 90.947761 Z m -46.1974,3.2233 h 1.4097 c 2.2491,0 3.0213,1.10845 3.0213,3.22333 0,2.18201 -0.604,3.355939 -2.8867,3.355939 h -1.5443 z m 0,9.600609 h 1.5107 c 2.4841,0 2.9203,1.24183 2.9203,3.62525 0,2.34985 -0.2011,4.02911 -2.954,4.02911 h -1.477 z" />
    <path
       id="path9144"
       style="font-style:normal;font-variant:normal;font-weight:normal;font-stretch:normal;font-size:31.9163px;line-height:1.3;font-family:'Alte DIN 1451 Mittelschrift gepraegt';-inkscape-font-specification:'Alte DIN 1451 Mittelschrift gepraegt';text-align:center;text-anchor:middle;opacity:1;fill:#ffffff;fill-opacity:1;stroke-width:0.198438"
       d="m 831.2073,184.01171 c -2.2889,0 -4.3168,0.77957 -6.0862,2.33829 -1.7834,1.53063 -2.6769,3.71494 -2.6769,6.55153 v 13.24962 c 0,2.83659 0.8935,5.0189 2.6769,6.54957 1.7694,1.54466 3.7973,2.31848 6.0862,2.31848 2.289,0 4.3189,-0.77382 6.0883,-2.31848 1.7974,-1.54469 2.6966,-3.727 2.6966,-6.54957 v -13.24962 c 0,-1.40423 -0.2333,-2.6469 -0.6969,-3.72815 -0.4494,-1.09535 -1.115,-2.03699 -1.9997,-2.82338 -0.8847,-0.7583 -1.8398,-1.33332 -2.865,-1.72649 -1.011,-0.40724 -2.0858,-0.6118 -3.2233,-0.6118 z m -49.09,0.2751 c -0.1686,0 -0.2532,0.0827 -0.2532,0.25134 v 8.6166 c 0,0.16858 0.085,0.25134 0.2532,0.25134 h 4.2964 c 0.1544,0 0.2318,-0.0828 0.2318,-0.25134 v -4.06674 h 7.3732 l -10.048,25.34093 c -0.027,0.0843 -0.019,0.1613 0.023,0.2318 0.042,0.0701 0.1115,0.10498 0.21,0.10498 h 4.823 c 0.099,0 0.1755,-0.0559 0.2318,-0.1682 l 10.1531,-25.74088 v -4.31819 c 0,-0.16858 -0.077,-0.25134 -0.2318,-0.25134 z m 20.4605,0 c -0.1545,0 -0.2318,0.0827 -0.2318,0.25134 v 16.21946 c 0,0.1544 0.077,0.2318 0.2318,0.2318 h 4.0647 c 0.084,0 0.1559,-0.0425 0.2119,-0.12682 0.8846,-1.57278 2.0983,-2.35806 3.643,-2.35806 1.6851,0 2.7811,0.49781 3.2867,1.49481 0.2667,0.53363 0.4713,1.14531 0.6117,1.83343 0.1407,0.67405 0.21,1.41113 0.21,2.21154 0,1.34811 -0.1835,2.75284 -0.5484,4.21329 -0.295,1.31998 -1.4392,1.9799 -3.4332,1.9799 -2.2047,0 -3.5515,-1.10375 -4.043,-3.30843 -0.027,-0.12644 -0.113,-0.18812 -0.2532,-0.18812 h -4.2964 c -0.07,0 -0.1341,0.0268 -0.1901,0.0831 -0.056,0.0563 -0.077,0.11992 -0.063,0.19003 0.3088,2.85066 1.4049,4.90757 3.2866,6.17139 1.8396,1.22171 3.748,1.83342 5.7279,1.83342 1.5307,0 2.8795,-0.35133 4.045,-1.05332 1.1094,-0.68807 1.9931,-1.44067 2.6531,-2.25514 0.6741,-0.88467 1.1584,-1.81086 1.4532,-2.77978 l -0.019,0.023 c 0.1686,-0.51961 0.2881,-1.15826 0.3582,-1.91657 0.084,-0.7583 0.1268,-1.644 0.1268,-2.65506 0,-2.48553 -0.2046,-4.2762 -0.6118,-5.37155 -0.1965,-0.53359 -0.4493,-1.05263 -0.7583,-1.55818 -0.3088,-0.51957 -0.6678,-1.00389 -1.075,-1.45324 -0.2809,-0.29501 -0.6244,-0.57666 -1.0316,-0.84344 -0.3932,-0.28084 -0.8216,-0.53363 -1.285,-0.75834 -0.4774,-0.22452 -0.9887,-0.39252 -1.5364,-0.50486 -0.5336,-0.12644 -1.0971,-0.19004 -1.6869,-0.19004 -1.671,0 -3.1877,0.47858 -4.5498,1.43347 v -6.04667 h 11.6696 c 0.1686,0 0.2533,-0.0828 0.2533,-0.25134 v -4.29841 c 0,-0.16858 -0.085,-0.25134 -0.2533,-0.25134 z m 28.6295,4.52807 c 1.2077,0 2.1706,0.38593 2.8867,1.15826 0.7303,0.7583 1.0949,1.81959 1.0949,3.18172 v 12.74272 c 0,1.3762 -0.3647,2.44327 -1.0949,3.20154 -0.7161,0.7583 -1.679,1.13845 -2.8867,1.13845 -1.2076,0 -2.1685,-0.38007 -2.8847,-1.13845 -0.7162,-0.75827 -1.0751,-1.82534 -1.0751,-3.20154 v -12.74272 c 0,-1.36213 0.359,-2.42342 1.0751,-3.18172 0.7162,-0.77233 1.6771,-1.15826 2.8847,-1.15826 z m 31.6708,7.49596 c -1.8766,0 -3.3784,0.60965 -4.5043,1.82944 v -1.42554 c 0,-0.14061 -0.069,-0.20996 -0.21,-0.20996 h -3.5896 c -0.1406,0 -0.2119,0.0693 -0.2119,0.20996 v 17.83906 c 0,0.14062 0.071,0.21188 0.2119,0.21188 h 3.5896 c 0.1406,0 0.21,-0.0709 0.21,-0.21188 v -10.62623 c 0,-1.17286 0.3049,-2.06296 0.9147,-2.67288 0.6334,-0.63333 1.4442,-0.95033 2.4294,-0.95037 0.95,0 1.7405,0.31685 2.3739,0.95037 0.6333,0.63336 0.9503,1.52347 0.9503,2.67288 v 10.62623 c 0,0.14062 0.065,0.21188 0.1939,0.21188 h 3.5876 c 0.1291,0 0.1939,-0.0709 0.1939,-0.21188 v -10.62623 c 0,-1.16114 0.3111,-2.05124 0.9326,-2.67288 0.6333,-0.63333 1.4421,-0.95033 2.4273,-0.95037 0.95,0 1.7426,0.31685 2.3759,0.95037 0.6216,0.62164 0.9325,1.51174 0.9325,2.67288 v 10.62623 c 0,0.14062 0.071,0.21188 0.2119,0.21188 h 3.5876 c 0.1407,0 0.2119,-0.0709 0.2119,-0.21188 v -11.85771 c 0,-2.08775 -0.6686,-3.67689 -2.0057,-4.76764 -1.3488,-1.07907 -2.7327,-1.61761 -4.1518,-1.61761 -2.3223,0 -4.2061,0.74378 -5.6487,2.23335 -0.2931,-0.30498 -0.6022,-0.57931 -0.9306,-0.82563 -0.3284,-0.25823 -0.6698,-0.49371 -1.0216,-0.70485 -0.7859,-0.46916 -1.806,-0.70287 -3.061,-0.70287 z" />
  </g>
</svg>
