<?xml version="1.0" encoding="UTF-8" standalone="no"?>
<svg
   xmlns:dc="http://purl.org/dc/elements/1.1/"
   xmlns:cc="http://creativecommons.org/ns#"
   xmlns:rdf="http://www.w3.org/1999/02/22-rdf-syntax-ns#"
   xmlns:svg="http://www.w3.org/2000/svg"
   xmlns="http://www.w3.org/2000/svg"
   xmlns:sodipodi="http://sodipodi.sourceforge.net/DTD/sodipodi-0.dtd"
   xmlns:inkscape="http://www.inkscape.org/namespaces/inkscape"
   width="338.5126mm"
   height="200mm"
   viewBox="0 0 338.51259 199.99999"
   version="1.1"
   id="svg9491"
   inkscape:version="1.0 (4035a4fb49, 2020-05-01)"
   sodipodi:docname="Vietnam_road_sign_IE456c.svg">
  <defs
     id="defs9485">
    <clipPath
       id="clipPath2832">
      <path
         d="M -0.24,595.138 H 317.24 V -0.138 H -0.24 Z"
         id="path2834"
         inkscape:connector-curvature="0" />
    </clipPath>
    <clipPath
       id="clipPath2840">
      <path
         d="M 0.03,595.32 H 317.49 V 0 H 0.03 Z"
         id="path2842"
         inkscape:connector-curvature="0" />
    </clipPath>
    <clipPath
       id="clipPath2858">
      <path
         d="M -0.24,595.138 H 317.24 V -0.138 H -0.24 Z"
         id="path2860"
         inkscape:connector-curvature="0" />
    </clipPath>
    <clipPath
       id="clipPath2864">
      <path
         d="M 0.03,595.32 H 317.49 V 0 H 0.03 Z"
         id="path2866"
         inkscape:connector-curvature="0" />
    </clipPath>
    <clipPath
       id="clipPath3306">
      <path
         d="m 199.238,472.977 v -29.74 h 29.744 v 29.74"
         id="path3308"
         inkscape:connector-curvature="0" />
    </clipPath>
    <clipPath
       id="clipPath3322">
      <path
         d="M -0.24,595.138 H 317.24 V -0.138 H -0.24 Z"
         id="path3324"
         inkscape:connector-curvature="0" />
    </clipPath>
    <clipPath
       id="clipPath3330">
      <path
         d="M 0.03,595.32 H 317.49 V 0 H 0.03 Z"
         id="path3332"
         inkscape:connector-curvature="0" />
    </clipPath>
    <clipPath
       id="clipPath3344">
      <path
         d="m 88.233,387.221 v -28.335 h 32.08 v 28.335"
         id="path3346"
         inkscape:connector-curvature="0" />
    </clipPath>
    <clipPath
       id="clipPath3462">
      <path
         d="M -0.24,595.138 H 317.24 V -0.138 H -0.24 Z"
         id="path3464"
         inkscape:connector-curvature="0" />
    </clipPath>
    <clipPath
       id="clipPath3470">
      <path
         d="M 0.03,595.32 H 317.49 V 0 H 0.03 Z"
         id="path3472"
         inkscape:connector-curvature="0" />
    </clipPath>
    <clipPath
       id="clipPath3490">
      <path
         d="M -0.24,595.138 H 317.24 V -0.138 H -0.24 Z"
         id="path3492"
         inkscape:connector-curvature="0" />
    </clipPath>
    <clipPath
       id="clipPath3496">
      <path
         d="M 0.03,595.32 H 317.49 V 0 H 0.03 Z"
         id="path3498"
         inkscape:connector-curvature="0" />
    </clipPath>
    <clipPath
       id="clipPath3520">
      <path
         d="m 254.788,326.215 v -28.309 h 28.326 v 28.309"
         id="path3522"
         inkscape:connector-curvature="0" />
    </clipPath>
    <clipPath
       id="clipPath3544">
      <path
         d="m 145.049,326.142 v -28.333 h 28.342 v 28.333"
         id="path3546"
         inkscape:connector-curvature="0" />
    </clipPath>
    <clipPath
       id="clipPath3682">
      <path
         d="M -0.24,595.138 H 317.24 V -0.138 H -0.24 Z"
         id="path3684"
         inkscape:connector-curvature="0" />
    </clipPath>
    <clipPath
       id="clipPath3690">
      <path
         d="M 0.03,595.32 H 317.49 V 0 H 0.03 Z"
         id="path3692"
         inkscape:connector-curvature="0" />
    </clipPath>
    <clipPath
       id="clipPath3980">
      <path
         d="M -0.24,595.138 H 317.24 V -0.138 H -0.24 Z"
         id="path3982"
         inkscape:connector-curvature="0" />
    </clipPath>
    <clipPath
       id="clipPath3988">
      <path
         d="M 0.03,595.32 H 317.49 V 0 H 0.03 Z"
         id="path3990"
         inkscape:connector-curvature="0" />
    </clipPath>
    <clipPath
       id="clipPath4010">
      <path
         d="M -0.24,595.138 H 317.24 V -0.138 H -0.24 Z"
         id="path4012"
         inkscape:connector-curvature="0" />
    </clipPath>
    <clipPath
       id="clipPath4016">
      <path
         d="M 0.03,595.32 H 317.49 V 0 H 0.03 Z"
         id="path4018"
         inkscape:connector-curvature="0" />
    </clipPath>
    <clipPath
       id="clipPath4062">
      <path
         d="m 200.163,177.773 v -28.284 h 28.283 v 28.284"
         id="path4064"
         inkscape:connector-curvature="0" />
    </clipPath>
    <clipPath
       id="clipPath4090">
      <path
         d="m 34.886,177.515 v -51.632 h 30.367 v 51.632"
         id="path4092"
         inkscape:connector-curvature="0" />
    </clipPath>
    <clipPath
       id="clipPath4106">
      <path
         d="m 34.886,177.515 v -51.632 h 30.367 v 51.632"
         id="path4108"
         inkscape:connector-curvature="0" />
    </clipPath>
    <clipPath
       id="clipPath4272">
      <path
         d="m 34.886,177.515 v -51.632 h 30.367 v 51.632"
         id="path4274"
         inkscape:connector-curvature="0" />
    </clipPath>
    <clipPath
       id="clipPath4304">
      <path
         d="m 254.653,176.442 v -48.167 h 28.317 v 48.167"
         id="path4306"
         inkscape:connector-curvature="0" />
    </clipPath>
    <clipPath
       id="clipPath4310">
      <path
         d="m 253.565,177.983 h 31.181 V 128.8 h -31.181 z"
         id="path4312"
         inkscape:connector-curvature="0" />
    </clipPath>
    <clipPath
       id="clipPath4316">
      <path
         d="M -0.24,595.138 H 317.24 V -0.138 H -0.24 Z"
         id="path4318"
         inkscape:connector-curvature="0" />
    </clipPath>
    <clipPath
       id="clipPath4322">
      <path
         d="M 0.03,595.32 H 317.49 V 0 H 0.03 Z"
         id="path4324"
         inkscape:connector-curvature="0" />
    </clipPath>
    <clipPath
       id="clipPath4456">
      <path
         d="M -0.24,595.138 H 317.24 V -0.138 H -0.24 Z"
         id="path4458"
         inkscape:connector-curvature="0" />
    </clipPath>
    <clipPath
       id="clipPath4464">
      <path
         d="M 0.03,595.32 H 317.49 V 0 H 0.03 Z"
         id="path4466"
         inkscape:connector-curvature="0" />
    </clipPath>
  </defs>
  <sodipodi:namedview
     id="base"
     pagecolor="#ffffff"
     bordercolor="#666666"
     borderopacity="1.0"
     inkscape:pageopacity="0.0"
     inkscape:pageshadow="2"
     inkscape:zoom="0.18732252"
     inkscape:cx="347.11314"
     inkscape:cy="1112.5483"
     inkscape:document-units="mm"
     inkscape:current-layer="layer1"
     showgrid="false"
     inkscape:window-width="1920"
     inkscape:window-height="1001"
     inkscape:window-x="-9"
     inkscape:window-y="-9"
     inkscape:window-maximized="1"
     inkscape:measure-start="0,0"
     inkscape:measure-end="0,0"
     inkscape:document-rotation="0" />
  <metadata
     id="metadata9488">
    <rdf:RDF>
      <cc:Work
         rdf:about="">
        <dc:format>image/svg+xml</dc:format>
        <dc:type
           rdf:resource="http://purl.org/dc/dcmitype/StillImage" />
        <dc:title></dc:title>
      </cc:Work>
    </rdf:RDF>
  </metadata>
  <g
     inkscape:label="Layer 1"
     inkscape:groupmode="layer"
     id="layer1"
     transform="translate(-1434.8353,-312.16318)">
    <path
       style="opacity:1;fill:#00a34f;fill-opacity:1;fill-rule:nonzero;stroke:none;stroke-width:0.352777"
       d="m 1434.8353,512.16318 h 338.5126 v -200 h -338.5126 z m 0,0"
       id="path1934" />
    <path
       id="path1944"
       style="opacity:1;fill:#ffffff;fill-opacity:1;fill-rule:nonzero;stroke:none;stroke-width:0.352777"
       d="m 1733.9977,334.55778 c -0.8959,0 -1.6681,0.25839 -2.2422,0.83234 -0.2593,0.25755 -0.5168,0.58054 -0.6456,0.90264 -0.1913,0.31619 -0.2593,0.70132 -0.2593,1.14645 h 1.8628 c 0,-0.83166 0.5146,-1.28262 1.3459,-1.28262 0.7089,0 1.091,0.26349 1.1556,0.77306 0.064,0.50956 -0.323,0.89604 -1.1556,1.28261 -0.5797,0.32215 -0.895,0.77378 -0.9596,1.28917 v 0.57318 h 0.8325 0.9597 v -0.37994 l 0.1317,-0.25712 0.1913,-0.19337 c 0.2592,-0.12877 0.6434,-0.32852 1.153,-0.58636 0.5796,-0.38079 0.9018,-0.89532 0.966,-1.46927 -0.064,-0.45096 -0.1275,-0.76864 -0.255,-1.03221 -0.1955,-0.2516 -0.3868,-0.50876 -0.7093,-0.76647 -0.5742,-0.57395 -1.4059,-0.83234 -2.3723,-0.83234 z m -45.7752,2.63103 -3.2019,3.20862 h 2.1127 l 2.1785,-1.6691 2.3191,1.6691 h 2.1152 l -3.1449,-3.20862 z m 52.0718,2.69915 -1.096,1.01899 c 0.323,0.45096 0.4513,0.90264 0.3867,1.28917 -0.064,0.38079 -0.2592,0.70136 -0.6392,0.95316 -0.1232,0.1241 -0.4717,0.12707 -0.4985,0.1275 v -1.69324 h -3.0748 v 16.34186 c 0,1.50752 -0.8142,2.23132 -1.8997,2.23132 -1.0854,0 -1.8997,-0.7238 -1.8997,-2.23132 v -16.34186 h -3.0743 v 16.64275 c 0,2.80391 2.2307,5.00514 4.974,5.00514 2.7438,0 4.9745,-2.20123 4.9745,-5.00514 V 344.8251 h 0.306 c 0.5096,-0.0646 1.0264,-0.25712 1.5419,-0.64348 0.5741,-0.45095 0.8963,-1.03072 0.8963,-1.86239 0,-0.76719 -0.1955,-1.4773 -0.6392,-2.05121 -0.072,-0.12877 -0.1997,-0.25712 -0.2592,-0.37994 z m -19.0059,1.5351 c -0.7731,0 -1.4752,0.19337 -2.1896,0.57981 -0.7025,0.44509 -1.218,0.89533 -1.5988,1.46928 -0.3867,0.51534 -0.6443,1.03072 -0.773,1.54611 -0.1275,0.45095 -0.1955,0.96047 -0.1955,1.59881 v 11.04029 c 0,0.57977 0.064,1.15223 0.1317,1.72618 0.1275,0.51538 0.3188,1.09519 0.7072,1.66914 0.3825,0.65007 0.9613,1.15954 1.7284,1.54611 0.779,0.44509 1.68,0.63906 2.5763,0.63906 0.8317,0 1.6052,-0.25754 2.3081,-0.70276 0.7731,-0.45092 1.3473,-0.96048 1.669,-1.54611 0.3867,-0.57391 0.5733,-1.09006 0.6438,-1.60544 0.1233,-0.50952 0.1233,-1.08785 0.1233,-1.72618 v -0.70281 h -3.0153 v 0.70281 0.38631 c 0,0.31619 -9e-4,0.57323 -0.06,0.76647 0,0.12877 -0.1913,0.45168 -0.3868,0.83234 -0.2592,0.32214 -0.7088,0.5139 -1.4759,0.5139 -0.7025,0 -1.1539,-0.19252 -1.4756,-0.64348 -0.2592,-0.38079 -0.3867,-0.76791 -0.3867,-1.02562 -0.064,-0.2516 -0.064,-0.57247 -0.064,-0.83014 v -11.04029 c 0,-0.63833 0.1955,-1.09005 0.5164,-1.53514 0.3145,-0.38632 0.7654,-0.57977 1.4097,-0.57977 0.6442,0 1.0892,0.19337 1.4759,0.57977 0.323,0.44509 0.4459,0.89681 0.4459,1.53514 v 1.15959 h 3.0153 v -1.15959 c 0,-1.53438 -0.4437,-2.75767 -1.4097,-3.71814 -1.0251,-0.96634 -2.2448,-1.47586 -3.7204,-1.47586 z m 21.7161,0.16022 v 16.64275 c 0,2.80391 2.2308,5.00515 4.9745,5.00515 2.7433,0 4.9741,-2.20124 4.9741,-5.00515 v -16.64275 h -3.0744 v 16.34186 c 0,1.50752 -0.8143,2.23132 -1.8997,2.23132 -1.0854,0 -1.8997,-0.7238 -1.8997,-2.23132 v -16.34186 z m -83.8593,0.034 v 2.88581 h 3.5907 v 18.54245 h 3.0854 v -18.54245 h 3.6545 v -2.88581 z m 12.4522,0 v 21.42826 h 3.0858 v -9.55784 h 3.8479 v 9.55784 h 3.0811 v -21.42826 h -3.0811 v 9.17569 h -3.8479 v -9.17569 z m 16.4385,0 -4.7505,21.42826 h 3.2044 l 0.9027,-4.62078 h 3.9749 l 0.839,4.62078 h 3.2724 l -4.748,-21.42826 z m 9.0485,0 v 21.42826 h 3.0153 v -13.02563 l 4.8138,13.02563 h 2.8288 v -21.42826 h -3.0153 v 12.95975 l -4.7548,-12.95975 z m -7.7021,6.16031 1.4054,7.82507 h -2.8814 z m 15.4743,21.62154 c -0.064,0 -0.064,0.065 -0.1317,0.12962 -0.064,0.3162 -0.1275,0.51025 -0.323,0.63906 -0.1913,0.0646 -0.3868,0.1275 -0.5797,0.1275 -0.1913,0 -0.3868,6.8e-4 -0.5096,-0.0637 -0.2592,-0.0646 -0.5151,-0.19337 -0.773,-0.31619 -0.1275,0 -0.255,-0.071 -0.3783,-0.12962 -0.1275,0 -0.2635,-0.0629 -0.45,-0.1275 -0.1275,-0.0646 -0.2593,-0.0659 -0.3868,-0.0659 -0.1275,-0.0646 -0.323,-0.0637 -0.4522,-0.0637 -0.323,0 -0.6443,0.0646 -0.9664,0.19337 -0.2592,0.12282 -0.5155,0.31619 -0.7731,0.50952 -0.187,0.19337 -0.3824,0.45095 -0.5095,0.77305 -0.1913,0.31619 -0.255,0.6391 -0.3188,1.02563 0,0.0646 0,0.12282 0.1275,0.12282 h 1.2822 c 0.064,0 0.1318,-0.0587 0.1318,-0.12282 0,-0.25754 0.1275,-0.51683 0.323,-0.64569 v 0.0659 c 0.1955,-0.12878 0.3867,-0.19337 0.5138,-0.19337 0.1912,0 0.4526,0.0629 0.6455,0.12749 0.2593,0.0646 0.5147,0.13005 0.7667,0.25925 0.1913,0.0646 0.323,0.0629 0.516,0.12749 0.1275,0.0646 0.2549,0.12963 0.3187,0.12963 0.1275,0.0646 0.2592,0.0654 0.4522,0.12962 h 0.3782 c 0.4509,0 0.7739,-0.0646 1.0961,-0.19337 0.2507,-0.12877 0.5095,-0.32214 0.7029,-0.57982 0.1913,-0.25159 0.3867,-0.51096 0.5138,-0.76867 0.1275,-0.32215 0.187,-0.57327 0.2593,-0.95972 0,-0.0646 -0.072,-0.12962 -0.1318,-0.12962 z m -25.5461,4.64934 c -2.5121,0 -5.1764,1.75564 -5.1764,5.26647 v 11.38067 c 0,3.51083 2.6643,5.26646 5.1764,5.26646 2.5121,0 5.1742,-1.75563 5.1742,-5.26646 v -6.77965 h -5.5389 v 2.72329 h 2.4531 v 4.05636 c 0,1.48304 -0.9686,2.17862 -2.0884,2.17862 -1.1199,0 -2.0884,-0.69558 -2.0884,-2.17862 v -11.38067 c 0,-1.483 0.9685,-2.17862 2.0884,-2.17862 1.1198,0 2.0884,0.69562 2.0884,2.17862 v 1.08929 h 3.0858 v -1.08929 c 0,-3.51083 -2.6621,-5.26647 -5.1742,-5.26647 z m -18.9465,0.23077 v 21.42827 h 3.0153 v -13.02563 l 4.8139,13.02563 h 2.8245 v -21.42827 h -3.0175 V 387.239 l -4.7484,-12.95976 z m 27.0923,0 v 21.42827 h 3.0153 v -9.55785 h 3.9179 v 9.55785 h 3.0175 v -21.42827 h -3.0175 v 9.17132 h -3.9179 v -9.17132 z m 13.289,0 v 21.42827 h 3.0153 v -21.42827 z m 9.5053,0 -4.7569,21.42827 h 3.2108 l 0.8958,-4.62079 h 3.9818 l 0.8368,4.62079 h 3.2745 l -4.7505,-21.42827 z m 1.3463,6.15372 1.4118,7.83162 h -2.8946 z" />
    <path
       style="opacity:1;fill:#ffffff;fill-opacity:1;fill-rule:nonzero;stroke:none;stroke-width:0.352777"
       d="m 1454.8647,404.87767 h 182.0029 v -72.76133 h -182.0029 z m 0,0"
       id="path1966" />
    <path
       style="opacity:1;fill:#0046aa;fill-opacity:1;fill-rule:nonzero;stroke:none;stroke-width:0.352777"
       d="m 1457.0432,400.51456 c 0,1.22405 0.9664,2.18449 2.1904,2.18449 173.2006,0 173.2006,0 173.2006,0 1.2239,0 2.1844,-0.96044 2.1844,-2.18449 0,-64.03515 0,-64.03515 0,-64.03515 0,-1.15372 -0.9605,-2.17858 -2.1844,-2.17858 -173.2006,0 -173.2006,0 -173.2006,0 -1.224,0 -2.1904,1.02486 -2.1904,2.17858 z m 0,0"
       id="path1968-3" />
    <path
       id="path1970-8"
       style="opacity:1;fill:#ffffff;fill-opacity:1;fill-rule:nonzero;stroke:none;stroke-width:0.352777"
       d="m 1625.7584,337.69833 c -0.8959,0 -1.6706,0.25711 -2.2443,0.83676 -0.2593,0.31619 -0.5139,0.6442 -0.7072,0.96634 -0.1275,0.31619 -0.2593,0.76719 -0.2593,1.21228 h 1.8623 c 0.064,-0.89605 0.5164,-1.34186 1.4123,-1.34186 0.6502,0 1.031,0.25244 1.1598,0.83234 0.064,0.50952 -0.3188,0.95975 -1.1598,1.34628 -0.5797,0.32214 -0.8955,0.83307 -0.9597,1.34845 v 0.57323 h 0.7663 0.9664 l 0.068,-0.37994 0.1233,-0.25925 0.1955,-0.19337 c 0.2592,-0.12877 0.6434,-0.32214 1.153,-0.57977 0.5797,-0.44513 0.9022,-1.0249 0.9022,-1.59885 0,-0.45096 -0.064,-0.76719 -0.1912,-1.08929 -0.1913,-0.25755 -0.3868,-0.52057 -0.7093,-0.83676 -0.5742,-0.57982 -1.4101,-0.83676 -2.3766,-0.83676 z m -86.8593,1.2167 4.4339,4.55712 h 1.9218 l -3.3383,-4.55712 z m 9.371,4.42754 -1.0892,1.02562 c 0.3867,0.52117 0.5146,0.97217 0.45,1.35283 -0.064,0.38674 -0.323,0.77382 -0.6434,1.02563 -0.1913,0.12877 -0.3867,0.19337 -0.5729,0.19337 v -1.7921 h -3.0178 v 17.25767 c 0,0.63838 -0.1913,1.15453 -0.5139,1.6054 -0.2592,0.50956 -0.773,0.70285 -1.3527,0.70281 -0.7029,0 -1.1538,-0.19253 -1.476,-0.57323 -0.2592,-0.38632 -0.4458,-0.70863 -0.4458,-0.9663 -0.064,-0.19337 -0.064,-0.44654 -0.064,-0.76868 v -17.25767 h -3.0812 v 17.25767 c 0,0.57395 0.064,1.09078 0.1317,1.54174 0.1275,0.44509 0.3145,1.0249 0.6371,1.59881 0.323,0.64424 0.8959,1.2167 1.6689,1.67352 0.8377,0.50952 1.669,0.70276 2.5653,0.70276 0.9077,0 1.6748,-0.19337 2.4419,-0.70276 0.7731,-0.45682 1.3477,-1.09443 1.799,-1.8031 0.2593,-0.50944 0.4509,-0.96044 0.5797,-1.40557 0.1275,-0.5153 0.1275,-1.03145 0.1275,-1.6054 v -13.86234 h 0.3782 c 0.451,-0.0646 0.9656,-0.32045 1.5394,-0.70719 0.5796,-0.44509 0.8385,-1.09009 0.9026,-1.92167 0,-0.83162 -0.2592,-1.54688 -0.7093,-2.18521 -0.064,-0.12877 -0.1275,-0.25754 -0.2592,-0.38632 z m 21.7667,1.59001 c -2.6303,0 -5.4203,1.83638 -5.4203,5.51245 v 11.91658 c 0,3.67607 2.79,5.51462 5.4203,5.51462 2.6303,0 5.4178,-1.83855 5.4178,-5.51462 v -7.09813 h -5.7977 v 2.85066 h 2.5673 v 4.24747 c 0,1.55282 -1.0149,2.28185 -2.1874,2.28181 -1.1726,0 -2.1874,-0.72899 -2.1874,-2.28181 v -11.91658 c 0,-1.55282 1.0148,-2.28181 2.1874,-2.28181 1.1725,0 2.1874,0.72899 2.1874,2.28181 v 1.14203 h 3.2304 v -1.14203 c 0,-3.67607 -2.7875,-5.51245 -5.4178,-5.51245 z m 32.9452,0 c -2.6307,0 -5.4182,1.83638 -5.4182,5.51245 v 11.91658 c 0,3.67607 2.7875,5.51462 5.4182,5.51462 2.6298,0 5.4199,-1.83855 5.4199,-5.51462 v -7.09813 h -5.7999 v 2.85066 h 2.5674 v 4.24747 c 0,1.55282 -1.0153,2.28185 -2.1874,2.28181 -1.1726,0 -2.1853,-0.72899 -2.1853,-2.28181 v -11.91658 c 0,-1.55282 1.0127,-2.28181 2.1853,-2.28181 1.1721,0 2.1874,0.72899 2.1874,2.28181 v 1.14203 h 3.2325 v -1.14203 c 0,-3.67607 -2.7901,-5.51245 -5.4199,-5.51245 z m -139.643,0.21547 v 3.0088 h 3.5954 v 19.57246 h 3.0811 v -19.57246 h 3.6609 v -3.0088 z m 12.4504,0 v 22.58126 h 3.0217 v -9.68521 h 1.9282 l 2.952,9.68521 h 3.2086 l -3.2086,-10.3309 c 1.6689,-1.08933 2.4989,-2.69987 2.4989,-4.81407 v -2.04904 c 0,-1.54025 -0.5091,-2.75848 -1.4756,-3.84773 -0.9604,-1.03077 -2.1194,-1.53952 -3.5954,-1.53952 z m 16.4403,0 -4.8138,22.58126 h 3.2724 l 0.8321,-4.80748 h 4.0413 l 0.8431,4.80748 h 3.2746 l -4.7569,-22.58126 z m 9.0485,0 v 22.58126 h 3.0153 V 353.9965 l 3.0858,9.62813 h 1.5419 l 3.079,-9.62813 v 13.73281 h 3.0876 v -22.58126 h -2.8946 l -3.9817,12.05708 -4.111,-12.05708 z m 22.7922,0 v 22.58126 h 4.7505 c 1.5402,0 2.7573,-0.5088 3.7178,-1.53957 0.9724,-1.03068 1.419,-2.37191 1.419,-4.04097 v -11.74305 c 0,-1.48168 -0.5095,-2.69919 -1.4759,-3.71815 -1.0306,-1.03077 -2.1862,-1.53952 -3.5976,-1.53952 z m 26.8946,0 v 22.58126 h 3.0854 V 354.0602 l 4.8143,13.66911 h 2.8287 v -22.58126 h -3.0858 v 13.66252 l -4.7438,-13.66252 z m 32.8725,0 v 22.58126 h 3.079 V 354.0602 l 4.7569,13.66911 h 2.8861 v -22.58126 h -3.079 v 13.66252 l -4.7574,-13.66252 z m 27.1559,0 v 22.58126 h 3.0812 v -10.07174 h 3.9227 v 10.07174 h 3.0174 v -22.58126 h -3.0174 v 9.68079 h -3.9227 v -9.68079 z m 13.3528,0 v 22.58126 h 3.0221 v -22.58126 z m -145.5351,3.0088 h 2.2491 c 0.6383,0 1.1542,0.19464 1.535,0.64564 0.323,0.44509 0.516,1.02418 0.516,1.73281 v 2.04904 c 0,0.38674 -5e-4,0.77387 -0.1275,1.09588 -0.064,0.31619 -0.1913,0.57471 -0.3868,0.83239 -0.4449,0.44509 -0.9604,0.70276 -1.5988,0.70276 h -2.1853 z m 48.2767,0.0659 h 1.6035 c 0.6443,0 1.1542,0.19337 1.6052,0.57977 0.3867,0.44513 0.6434,0.95903 0.6434,1.60323 v 11.74305 c 0,1.73349 -0.7714,2.56515 -2.3761,2.56515 h -1.476 z m -33.5754,3.46558 1.4759,8.2116 h -2.8878 z m -1.2827,18.60616 v 2.76498 h 2.629 v -2.76498 z m 37.1577,6.88287 c -2.8228,0 -4.2235,2.09847 -4.2235,4.70425 0,2.14734 0.5563,3.54794 2.6795,4.41653 l 1.7612,0.72257 c 1.2065,0.48253 1.4233,0.77318 1.4233,2.60689 0,1.56825 -0.119,2.55635 -1.7854,2.55635 -1.2546,0 -1.7374,-0.86643 -1.7374,-1.75916 v -0.77306 h -2.4598 v 0.91581 c 0,2.31624 1.8083,4.07833 4.1972,4.07833 3.1849,0 4.2473,-2.14713 4.2473,-5.04246 0,-2.50922 -0.4122,-3.88389 -2.5826,-4.70425 l -1.8823,-0.74887 c -1.2788,-0.50667 -1.3991,-0.96583 -1.3991,-2.29282 0,-1.134 0.3145,-2.21819 1.6647,-2.21819 1.255,0 1.7374,0.94144 1.7374,2.07544 v 0.55342 h 2.4619 v -1.2057 c 0,-1.90607 -1.6413,-3.88508 -4.1024,-3.88508 z m -23.8704,0.17552 v 17.1303 h 2.442 v -7.30892 h 1.5419 l 2.306,7.30892 h 2.5716 l -2.5716,-7.82503 c 1.3468,-0.83162 1.9919,-2.05049 1.9919,-3.66103 v -1.53298 c 0,-1.15958 -0.3867,-2.12078 -1.153,-2.88797 -0.7731,-0.83748 -1.7335,-1.22329 -2.8287,-1.22329 z m 10.5942,0 v 17.1303 h 7.3157 v -2.43119 h -4.8776 v -5.07097 h 4.2979 v -2.30821 h -4.2979 v -5.07101 h 4.8776 v -2.24892 z m 18.5537,0 v 2.31258 h 2.8878 v 14.81772 h 2.4356 v -14.81772 h 2.9584 v -2.31258 z m 17.0136,0 -3.8542,17.1303 h 2.6311 l 0.7029,-3.65006 h 3.1492 l 0.7093,3.65006 h 2.629 l -3.8479,-17.1303 z m 7.3158,0 v 17.1303 h 2.442 v -7.30892 h 1.5397 l 2.3124,7.30892 h 2.5652 l -2.5652,-7.82503 c 1.3472,-0.83162 1.9855,-2.05049 1.9855,-3.66103 v -1.53298 c 0,-1.15958 -0.3867,-2.12078 -1.153,-2.88797 -0.773,-0.83748 -1.7326,-1.22329 -2.8223,-1.22329 z m 10.5878,0 v 17.1303 h 7.32 v -2.43119 h -4.8713 v -5.07097 h 4.298 v -2.30821 h -4.298 v -5.07101 h 4.8713 v -2.24892 z m 12.0769,0 -3.7905,17.1303 h 2.5716 l 0.7029,-3.65006 h 3.145 l 0.7093,3.65006 h 2.6285 l -3.8474,-17.1303 z m -73.7,2.31258 h 1.7285 c 0.5155,0 0.9655,0.12835 1.2231,0.45024 0.3187,0.31619 0.4458,0.76867 0.4458,1.34844 v 1.53298 c 0,0.32215 8e-4,0.57977 -0.064,0.84331 -0.064,0.18742 -0.187,0.44586 -0.3145,0.6391 -0.3867,0.32214 -0.7739,0.50952 -1.2894,0.50952 h -1.7284 z m 53.4773,0 h 1.7331 c 0.5151,0 0.9609,0.12835 1.2189,0.45024 0.323,0.31619 0.45,0.76867 0.45,1.34844 v 1.53298 c 0,0.32215 9e-4,0.57977 -0.064,0.84331 -0.064,0.18742 -0.1955,0.44586 -0.323,0.6391 -0.3868,0.32214 -0.7675,0.50952 -1.2826,0.50952 h -1.7331 z m -8.7318,2.62886 1.1593,6.21963 h -2.3191 z m 30.0437,0 1.153,6.21963 h -2.3081 z" />
    <path
       style="opacity:1;fill:#000000;fill-opacity:1;fill-rule:nonzero;stroke:none;stroke-width:0.352777"
       d="m 1459.5918,437.68439 c 44.822,0 44.822,0 44.822,0 2.6948,0 4.8754,2.17705 4.8754,4.86774 0,44.7714 0,44.7714 0,44.7714 0,2.69061 -2.1806,4.866 -4.8754,4.866 -44.822,0 -44.822,0 -44.822,0 -2.6298,0 -4.8075,-2.17539 -4.8075,-4.866 0,-44.7714 0,-44.7714 0,-44.7714 0,-2.69069 2.1777,-4.86774 4.8075,-4.86774 z m 0,0"
       id="path4367" />
    <path
       style="opacity:1;fill:#ffffff;fill-opacity:1;fill-rule:nonzero;stroke:none;stroke-width:0.352777"
       d="m 1459.5918,490.71656 c -1.8576,0 -3.3961,-1.53634 -3.3961,-3.39303 0,-44.7714 0,-44.7714 0,-44.7714 0,-1.85674 1.5385,-3.39333 3.3961,-3.39333 44.822,0 44.822,0 44.822,0 1.9256,0 3.402,1.53659 3.402,3.39333 0,44.7714 0,44.7714 0,44.7714 0,1.85669 -1.4764,3.39303 -3.402,3.39303 z m 0,0"
       id="path4369" />
    <path
       id="path33347"
       d="m 1540.7771,437.68439 c 44.822,0 44.822,0 44.822,0 2.6948,0 4.8754,2.17705 4.8754,4.86774 0,44.7714 0,44.7714 0,44.7714 0,2.69061 -2.1806,4.866 -4.8754,4.866 -44.822,0 -44.822,0 -44.822,0 -2.6298,0 -4.8075,-2.17539 -4.8075,-4.866 0,-44.7714 0,-44.7714 0,-44.7714 0,-2.69069 2.1777,-4.86774 4.8075,-4.86774 z m 0,0"
       style="opacity:1;fill:#000000;fill-opacity:1;fill-rule:nonzero;stroke:none;stroke-width:0.352777" />
    <path
       id="path33349"
       d="m 1540.7771,490.71656 c -1.8576,0 -3.3961,-1.53634 -3.3961,-3.39303 0,-44.7714 0,-44.7714 0,-44.7714 0,-1.85674 1.5385,-3.39333 3.3961,-3.39333 44.822,0 44.822,0 44.822,0 1.9256,0 3.402,1.53659 3.402,3.39333 0,44.7714 0,44.7714 0,44.7714 0,1.85669 -1.4764,3.39303 -3.402,3.39303 z m 0,0"
       style="opacity:1;fill:#ffffff;fill-opacity:1;fill-rule:nonzero;stroke:none;stroke-width:0.352777" />
    <path
       style="opacity:1;fill:#000000;fill-opacity:1;fill-rule:nonzero;stroke:none;stroke-width:0.352777"
       d="m 1622.1872,437.68439 c 44.822,0 44.822,0 44.822,0 2.6953,0 4.8759,2.17705 4.8759,4.86774 0,44.7714 0,44.7714 0,44.7714 0,2.69061 -2.1806,4.866 -4.8759,4.866 -44.822,0 -44.822,0 -44.822,0 -2.6298,0 -4.8074,-2.17539 -4.8074,-4.866 0,-44.7714 0,-44.7714 0,-44.7714 0,-2.69069 2.1776,-4.86774 4.8074,-4.86774 z m 0,0"
       id="path33351" />
    <path
       style="opacity:1;fill:#ffffff;fill-opacity:1;fill-rule:nonzero;stroke:none;stroke-width:0.352777"
       d="m 1622.1872,490.71656 c -1.8572,0 -3.3961,-1.53634 -3.3961,-3.39303 0,-44.7714 0,-44.7714 0,-44.7714 0,-1.85674 1.5389,-3.39333 3.3961,-3.39333 44.822,0 44.822,0 44.822,0 1.9256,0 3.402,1.53659 3.402,3.39333 0,44.7714 0,44.7714 0,44.7714 0,1.85669 -1.4764,3.39303 -3.402,3.39303 z m 0,0"
       id="path33353" />
    <path
       id="path1988"
       style="opacity:1;fill:#000000;fill-opacity:1;fill-rule:nonzero;stroke:none;stroke-width:0.352777"
       d="m 1644.826,445.24155 c -0.2465,0 -0.4862,0.0127 -0.725,0.0383 -0.3018,0.0297 -0.5946,0.0867 -0.8827,0.15384 -0.17,0.0382 -0.34,0.0799 -0.5053,0.13175 -0.6669,0.20909 -1.2946,0.51356 -1.8624,0.89826 -0.1912,0.12834 -0.3739,0.26519 -0.549,0.41054 -0.3528,0.29069 -0.6758,0.61678 -0.966,0.96855 -0.1445,0.17594 -0.2848,0.35741 -0.4123,0.54683 0,0 0,0.002 0,0.002 -0.047,0.0714 -0.089,0.14875 -0.136,0.22185 -0.2847,0.45695 -0.5231,0.9453 -0.7004,1.46268 0,0.0591 -0.047,0.11603 -0.064,0.17553 0,0 0,0.002 0,0.002 -0.068,0.22184 -0.1275,0.44828 -0.1743,0.67862 0,0 0,0.002 0,0.002 0,0.0297 0,0.0616 0,0.0922 -0.085,0.4337 -0.1317,0.87841 -0.1317,1.33527 0,0.24819 0,0.49367 0.043,0.73574 0,0.0383 0,0.0714 0,0.10752 0.3867,3.3281 3.0374,5.90906 6.3425,6.24157 0.238,0.0255 0.4803,0.0383 0.7251,0.0383 0.2422,0 0.4866,-0.0128 0.7246,-0.0383 0.043,-0.003 0.064,-0.009 0.094,-0.0128 3.3017,-0.37654 5.9375,-2.99329 6.2724,-6.34696 0.043,-0.23842 0.043,-0.48024 0.043,-0.72478 0,-0.24437 0,-0.48632 -0.043,-0.72473 -0.051,-0.47608 -0.1445,-0.93919 -0.2847,-1.3836 0,0 0,-0.002 0,-0.002 -0.1403,-0.44501 -0.323,-0.87034 -0.5423,-1.27378 -0.221,-0.40332 -0.4777,-0.78326 -0.7688,-1.13544 -0.728,-0.88024 -1.6626,-1.58573 -2.7276,-2.03808 -0.4259,-0.18105 -0.8725,-0.32172 -1.3353,-0.41734 -0.4629,-0.0952 -0.9422,-0.14492 -1.4318,-0.14492 z m -10.5287,15.13833 v 2.63545 0.0637 h 3.2788 c 0.238,0 0.4785,0.1462 0.5844,0.38207 0.043,0.0816 0.055,0.17085 0.055,0.26349 v 17.51029 c 0,0.1275 -0.06,0.25032 -0.1402,0.35784 0,0.0297 -0.043,0.0587 -0.059,0.0833 -0.06,0.0603 -0.1318,0.11177 -0.204,0.14704 -0.076,0.034 -0.153,0.0548 -0.2338,0.0548 h -3.2788 v 2.69473 h 20.8662 v -2.69473 h -3.4679 c -0.136,0 -0.255,-0.0476 -0.3613,-0.1122 -0.047,-0.0298 -0.098,-0.0531 -0.136,-0.0901 -0.1275,-0.12069 -0.2082,-0.28049 -0.2082,-0.44143 v -20.85504 z" />
    <path
       id="path33357"
       d="m 1703.1477,437.68439 c 44.8219,0 44.8219,0 44.8219,0 2.6953,0 4.8759,2.17705 4.8759,4.86774 0,44.7714 0,44.7714 0,44.7714 0,2.69061 -2.1806,4.866 -4.8759,4.866 -44.8219,0 -44.8219,0 -44.8219,0 -2.6298,0 -4.8075,-2.17539 -4.8075,-4.866 0,-44.7714 0,-44.7714 0,-44.7714 0,-2.69069 2.1777,-4.86774 4.8075,-4.86774 z m 0,0"
       style="opacity:1;fill:#000000;fill-opacity:1;fill-rule:nonzero;stroke:none;stroke-width:0.352777" />
    <path
       id="path33359"
       d="m 1703.1477,490.71656 c -1.8572,0 -3.3961,-1.53634 -3.3961,-3.39303 0,-44.7714 0,-44.7714 0,-44.7714 0,-1.85674 1.5389,-3.39333 3.3961,-3.39333 44.8219,0 44.8219,0 44.8219,0 1.9257,0 3.4021,1.53659 3.4021,3.39333 0,44.7714 0,44.7714 0,44.7714 0,1.85669 -1.4764,3.39303 -3.4021,3.39303 z m 0,0"
       style="opacity:1;fill:#ffffff;fill-opacity:1;fill-rule:nonzero;stroke:none;stroke-width:0.352777" />
    <path
       d="m 1562.7265,441.77844 c -0.5095,0 -0.8941,0.25499 -1.0208,0.70114 l -1.3421,3.7122 h -3.1963 c -0.6443,0 -1.2168,0.255 -1.6001,0.70115 l -1.7314,1.92082 h 18.2953 l -1.7326,-1.92082 c -0.3825,-0.44632 -1.0179,-0.70115 -1.5967,-0.70115 h -3.1964 l -1.3438,-3.7122 c -0.1275,-0.44632 -0.5746,-0.70114 -1.0195,-0.70114 z m -5.1143,9.20833 -7.4823,4.34891 h 1.2805 l 7.5465,-4.34891 z m 2.4968,0 -2.4968,4.34891 h 0.7008 l 2.5606,-4.34891 z m 2.5525,0 v 4.34891 h 0.6422 v -4.34891 z m 2.4327,0 2.4968,4.34891 h 0.7645 l -2.4959,-4.34891 z m 1.9192,0 7.544,4.34891 h 1.2801 l -7.5453,-4.34891 z m -4.0297,14.42235 c -2.8606,0 -5.7217,0.15937 -8.5687,0.47837 l -2.4322,6.07522 c -2.9418,3.13336 -3.323,7.86481 -0.8274,11.37969 v 4.09554 h 2.4262 v -4.09554 h 18.8045 v 4.09554 h 2.4259 v -4.09554 c 2.4322,-3.51488 2.116,-8.24633 -0.8292,-11.37969 l -2.4326,-6.07522 c -2.8453,-0.31874 -5.7055,-0.47837 -8.5665,-0.47837 z m -9e-4,1.63077 c 2.4769,0 4.9541,0.12707 7.4157,0.38122 l 1.861,4.54169 h -18.55 l 1.8581,-4.54169 c 2.4615,-0.25415 4.938,-0.38122 7.4152,-0.38122 z m -9.2733,6.71245 c 1.0251,0 1.8581,0.83421 1.8581,1.85355 0,1.02533 -0.833,1.8592 -1.8581,1.8592 -1.0195,0 -1.8529,-0.83387 -1.8529,-1.8592 0,-1.01934 0.8334,-1.85355 1.8529,-1.85355 z m 18.55,0 c 1.0178,0 1.8512,0.83421 1.8512,1.85355 0,1.02533 -0.8334,1.8592 -1.8512,1.8592 -1.0901,0 -1.9227,-0.83387 -1.9227,-1.8592 0,-1.01934 0.8326,-1.85355 1.9227,-1.85355 z m -15.3532,2.43256 h 2.6239 v 2.94148 h -3.3884 c -0.3825,-1.0887 -0.064,-2.24034 0.7645,-2.94148 z m 3.7773,0 h 4.6035 v 2.94148 h -4.6035 z m 5.6906,0 h 2.6175 c 0.8356,0.70114 1.1518,1.85278 0.8351,2.94148 h -3.4526 z"
       style="opacity:1;fill:#000000;fill-opacity:1;fill-rule:nonzero;stroke:none;stroke-width:0.352777"
       id="path39862" />
    <path
       id="path1718"
       d="m 1712.4146,453.58817 c -4.1623,0.51453 -6.5108,2.48041 -6.5108,2.48041 -0.864,0.67875 -1.8249,1.40357 -1.8364,2.6116 v 7.51279 c 0,0.36677 1.5516,0.35147 1.5499,0 v -1.94381 l 25.7582,6.64228 v 2.81432 c 0,0.45547 2.2733,0.67654 2.2661,-0.59685 l 0.1529,-1.87165 11.3655,-3.17208 v 1.96766 c 0,0.22864 1.8258,0.38419 1.8356,-0.50085 v -6.06987 c 0,-1.23621 -0.4905,-2.30548 -1.55,-2.65929 -1.1343,-0.28432 -2.382,-0.37824 -3.3986,-0.14322 0,0 -4.0965,0.65053 -5.5691,2.18228 -7.0816,-2.95406 -13.8287,-3.7745 -17.983,-4.1499 v -2.86204 c 0,-0.71305 -1.8623,-1.72253 -2.6234,-1.90799 -0.9125,-0.32852 -2.2452,-0.43222 -3.4586,-0.33405 z m 3.9354,4.60306 c 0.7403,0.18402 0.8071,0.74947 0,0.9898 -1.1152,0.25627 -3.1415,0.83455 -3.7446,1.2646 -0.5814,0.4586 -0.7072,1.23625 -0.3442,2.1221 -0.2083,0.0922 -0.6889,0.0735 -0.9184,0 -0.8814,-0.28985 -1.8865,-0.76328 -2.6235,-1.3714 -0.442,-0.38504 -0.4981,-0.78772 -0.3442,-1.09707 0.3272,-0.64513 1.4891,-1.12218 3.184,-1.56217 1.0047,-0.2907 4.0548,-0.48598 4.7939,-0.34595 z m 8.2044,2.40884 c 2.6575,0.53536 7.7786,2.15788 10.0889,3.30327 -0.6108,0.26902 -2.1654,2.49813 -2.0515,3.87565 l -0.2847,0.0127 -15.6694,-3.88759 c -1.4182,-0.44679 -2.0667,-0.98219 -2.6834,-1.55023 -0.4249,-0.36847 -0.7526,-0.89163 -0.5843,-1.34756 0.1912,-0.40332 0.9983,-0.63961 1.4309,-0.70357 4.7153,-0.89669 7.9155,-0.0383 9.7548,0.29792 z"
       style="opacity:1;fill:#000000;fill-opacity:1;fill-rule:nonzero;stroke:none;stroke-width:0.0591874"
       inkscape:connector-curvature="0"
       sodipodi:nodetypes="ccccccccccccccccccccccccccccccccccccccc" />
    <path
       d="m 1477.7882,445.47869 c -0.8666,0 -1.5644,0.69749 -1.5644,1.56409 v 2.21615 h -1.4339 c -1.0111,0 -1.8249,0.81381 -1.8249,1.82478 v 0.83395 l -4.0536,2.38521 c -0.2422,0.18062 -0.5491,0.25797 -0.6523,0.63927 l -0.5861,2.00736 0.3655,0.10879 c -1.1245,3.93676 -2.7004,9.66609 -2.8712,13.72329 -0.06,1.35223 -0.043,3.4309 0.3187,5.23196 0.1785,0.90043 0.4322,1.73451 0.8453,2.39061 0.4122,0.65601 1.0536,1.15504 1.8534,1.1606 0.7743,0.004 1.4692,-0.33446 2.0059,-0.87301 0.5368,-0.5385 0.9422,-1.26766 1.2576,-2.11849 0.6307,-1.70161 0.901,-3.90773 0.861,-6.14798 -0.089,-5.08168 -0.3102,-7.30025 -0.6851,-9.72078 -0.1912,-1.2493 -0.408,-2.16923 -0.4913,-2.78738 -0.043,-0.30897 -0.043,-0.5385 0,-0.6776 0.043,-0.13897 0.055,-0.18402 0.1275,-0.24692 v -0.003 l 0.047,-0.0425 0.072,0.0688 0.782,-0.33022 0.7042,0.26052 0.1148,0.31237 v 24.19316 h -8.7331 v 3.12822 h 36.4976 v -3.12822 h -8.7331 v -30.3714 c 0,-1.01101 -0.8138,-1.82478 -1.8249,-1.82478 h -1.4339 v -2.21619 c 0,-0.86655 -0.6978,-1.56409 -1.5644,-1.56409 z m 0.5206,5.73502 h 8.3425 v 2.86821 h -8.3425 z m -7.5721,3.7136 c 0.323,-0.0255 0.5096,0.32087 0.2338,0.60153 l -0.5079,0.63863 0.089,0.0833 c -0.2338,0.21462 -0.3868,0.5119 -0.4378,0.81105 -0.055,0.31194 -0.043,0.63 0,0.98746 0.093,0.71509 0.306,1.60264 0.4935,2.81101 0.3697,2.38797 0.5818,4.52469 0.6723,9.58262 0.043,2.14454 -0.2338,4.25911 -0.7969,5.77688 -0.2805,0.75886 -0.6336,1.3657 -1.0229,1.75673 -0.391,0.391 -0.7901,0.57638 -1.2788,0.57281 -0.408,-0.003 -0.6983,-0.20782 -1,-0.68708 -0.3018,-0.4799 -0.5444,-1.2142 -0.708,-2.04437 -0.3273,-1.66027 -0.357,-3.69771 -0.3018,-4.99274 0.1615,-3.82592 1.7102,-9.54313 2.8304,-13.47547 l 0.408,0.12112 0.2593,-0.97004 c 0.272,-1.16915 0.7335,-1.55261 1.0569,-1.57352 z m 7.5721,0.32724 h 8.3425 v 5.08373 h -8.3425 z"
       style="opacity:1;fill:#000000;fill-opacity:1;fill-rule:nonzero;stroke:none;stroke-width:1.44069;stroke-linecap:square;stroke-linejoin:round;stroke-miterlimit:4;stroke-dasharray:none;stroke-opacity:1;paint-order:stroke fill markers"
       id="rect1732-5" />
    <path
       id="path12014"
       style="color:#000000;font-style:normal;font-variant:normal;font-weight:normal;font-stretch:normal;font-size:medium;line-height:normal;font-family:sans-serif;font-variant-ligatures:normal;font-variant-position:normal;font-variant-caps:normal;font-variant-numeric:normal;font-variant-alternates:normal;font-variant-east-asian:normal;font-feature-settings:normal;font-variation-settings:normal;text-indent:0;text-align:start;text-decoration:none;text-decoration-line:none;text-decoration-style:solid;text-decoration-color:#000000;letter-spacing:normal;word-spacing:normal;text-transform:none;writing-mode:lr-tb;direction:ltr;text-orientation:mixed;dominant-baseline:auto;baseline-shift:baseline;text-anchor:start;white-space:normal;shape-padding:0;shape-margin:0;inline-size:0;clip-rule:nonzero;display:inline;overflow:visible;visibility:visible;opacity:1;isolation:auto;mix-blend-mode:normal;color-interpolation:sRGB;color-interpolation-filters:linearRGB;solid-color:#000000;solid-opacity:1;vector-effect:none;fill:#ffffff;fill-opacity:1;fill-rule:evenodd;stroke:none;stroke-width:0.553502;stroke-linecap:square;stroke-linejoin:miter;stroke-miterlimit:10;stroke-dasharray:none;stroke-dashoffset:0;stroke-opacity:1;paint-order:stroke fill markers;color-rendering:auto;image-rendering:auto;shape-rendering:auto;text-rendering:auto;enable-background:accumulate;stop-color:#000000;stop-opacity:1"
       d="m 1445.9441,313.99726 c -5.0535,0 -9.178,4.1235 -9.178,9.17748 v 73.50204 17.24505 17.94879 5.08261 64.25449 c 0,5.05368 4.1245,9.17378 9.178,9.17378 h 316.1773 c 5.0539,0 9.187,-4.1201 9.178,-9.17378 v -64.25449 -4.95002 -21.08899 -14.23744 -73.50204 c 0,-5.05398 -4.1241,-9.17748 -9.178,-9.17748 z m 0,3.45895 h 316.1773 c 3.1989,0 5.725,2.5201 5.725,5.71853 v 73.50204 14.23744 c 0,0.11092 0,0.22524 0,0.34297 v 2.63761 c 0,3.17934 -2.5597,5.7391 -5.7391,5.7391 h -2.9558 c -0.072,0.003 -0.136,0.009 -0.204,0.009 H 1448.769 c -0.068,0 -0.1359,-0.003 -0.2039,-0.009 h -2.5976 c -3.1793,0 -5.739,-2.55976 -5.739,-5.7391 v -90.69639 c 0,-0.60748 0.093,-1.19091 0.2677,-1.73965 0,-0.0213 0,-0.034 0,-0.0493 0.7306,-2.31373 2.8695,-3.95538 5.4505,-3.95538 z m -0.043,105.66621 h 2.547 310.6881 2.9711 c 3.1623,0 5.7093,2.54565 5.7093,5.70812 v 2.77871 c 0,0.13642 0,0.26859 0,0.39396 v 4.95002 64.25449 c 0,2.00425 -0.9924,3.74105 -2.5198,4.75912 -0.9124,0.61699 -2.014,0.97692 -3.2031,0.97692 H 1445.885 c -3.1628,0 -5.7085,-2.54599 -5.7085,-5.7085 v -72.40472 c 0,-3.16247 2.5457,-5.70812 5.7085,-5.70812 z"
       sodipodi:nodetypes="ssccccssssccccssscsscscsscsscssscccccccsscscscsssscc" />
  </g>
</svg>
