<?xml version="1.0" encoding="UTF-8"?>
<svg version="1.1" xmlns="http://www.w3.org/2000/svg" width="2560" height="1197">
<path d="M0 0 C844.8 0 1689.6 0 2560 0 C2560 395.01 2560 790.02 2560 1197 C1715.2 1197 870.4 1197 0 1197 C0 801.99 0 406.98 0 0 Z " fill="#FEFEFE" transform="translate(0,0)"/>
<path d="M0 0 C844.8 0 1689.6 0 2560 0 C2560 395.01 2560 790.02 2560 1197 C1715.2 1197 870.4 1197 0 1197 C0 801.99 0 406.98 0 0 Z M46.125 50.0625 C42.54110414 55.01670898 41.70749396 58.3201533 41.74700034 64.41899228 C41.74394724 65.17378671 41.74089415 65.92858115 41.73774853 66.70624814 C41.72990716 69.25498389 41.73639714 71.80348528 41.74273109 74.35222244 C41.74003974 76.19803252 41.73647307 78.0438415 41.73210663 79.88964838 C41.7226041 84.99603362 41.72566361 90.10234795 41.73066217 95.2087368 C41.73391595 100.75119972 41.72565702 106.29364707 41.71884382 111.83610511 C41.70851293 121.56140048 41.70570536 131.28667593 41.70775604 141.01197624 C41.71065587 154.79782034 41.70348692 168.58364458 41.6934769 182.36948451 C41.67317288 210.37319296 41.66706436 238.37689343 41.66589268 266.38060841 C41.66576318 269.39622964 41.66562731 272.41185088 41.66548586 275.42747211 C41.66545185 276.17577927 41.66541784 276.92408642 41.6653828 277.69506955 C41.66456636 294.26751058 41.66018804 310.83995007 41.65517417 327.41239029 C41.65311749 334.23346546 41.65113745 341.05454065 41.64914167 347.87561584 C41.64892049 348.62925689 41.64869931 349.38289794 41.64847143 350.15937661 C41.63582052 393.35582478 41.62757349 436.55227196 41.62848854 479.74872208 C41.6285201 481.36579897 41.62855157 482.98287587 41.62858296 484.59995277 C41.62872973 491.90114602 41.62890607 499.20233927 41.62909073 506.50353252 C41.62917297 509.7594115 41.62925327 513.01529049 41.62933335 516.27116947 C41.62937414 517.90079701 41.62941618 519.53042455 41.62945947 521.16005209 C41.63082007 572.69444099 41.61618472 624.2288024 41.58837891 675.76318359 C41.58137706 688.74729021 41.57443822 701.73139686 41.56785011 714.71550369 C41.56744436 715.51495061 41.56703862 716.31439752 41.56662057 717.1380701 C41.55419359 741.77170728 41.54666003 766.40534221 41.54413414 791.03898239 C41.54405424 791.81220991 41.54397434 792.58543743 41.54389201 793.38209609 C41.54218558 810.35509503 41.54166303 827.32809384 41.54223277 844.30109286 C41.54242574 850.37414034 41.54252982 856.44718782 41.54259023 862.5202353 C41.54260605 864.03109914 41.54262646 865.54196297 41.54265147 867.0528268 C41.54300434 891.14218144 41.53159919 915.23151258 41.51434384 939.32086048 C41.49705555 963.57949813 41.49265147 987.83810321 41.50586648 1012.09674441 C41.51406604 1027.15323045 41.51155348 1042.20963074 41.49108342 1057.2661087 C41.47913479 1066.86295738 41.48161718 1076.459731 41.49602441 1086.05657615 C41.50383086 1091.53128333 41.50521507 1097.0057904 41.48910971 1102.48048392 C41.474596 1107.45750217 41.47837232 1112.4341529 41.49695744 1117.41115455 C41.5004103 1119.20379327 41.49711007 1120.99646046 41.48635503 1122.78907024 C41.25545336 1136.39366785 41.25545336 1136.39366785 47.78125 1148.0234375 C48.3484375 1148.46945312 48.915625 1148.91546875 49.5 1149.375 C50.0671875 1149.83648438 50.634375 1150.29796875 51.21875 1150.7734375 C55.56029308 1153.76300883 58.59966093 1154.25021147 63.92691787 1154.251233 C64.97986828 1154.25552777 64.97986828 1154.25552777 66.05409043 1154.25990929 C68.42447984 1154.2671092 70.7946131 1154.25997515 73.1650002 1154.25299966 C74.88418667 1154.25523253 76.60337219 1154.25834217 78.32255566 1154.26225147 C83.0854698 1154.27050427 87.84830484 1154.26618531 92.61121906 1154.25995973 C97.79760258 1154.25537372 102.98397231 1154.26235971 108.17035311 1154.26789337 C117.30812536 1154.27602319 126.44587487 1154.27664275 135.58364943 1154.27248149 C149.26331886 1154.26628597 162.94296729 1154.27154273 176.62263519 1154.2790789 C199.93243869 1154.29157507 223.24223224 1154.29450164 246.55203819 1154.29224396 C270.1872322 1154.28998193 293.82241995 1154.29203699 317.45761299 1154.29938889 C318.963286 1154.29985287 320.46895901 1154.30031681 321.97463202 1154.30078072 C328.04528959 1154.30265974 334.11594715 1154.30457233 340.18660471 1154.3065231 C357.30096893 1154.3120146 374.41533332 1154.31677317 391.5296979 1154.32102704 C392.31405296 1154.32122214 393.09840803 1154.32141724 393.90653143 1154.32161825 C438.54406721 1154.332636 483.18160335 1154.33323766 527.81914025 1154.33405997 C534.6440099 1154.33418646 541.46887954 1154.33431951 548.29374919 1154.33446108 C550.00429364 1154.33449646 551.71483809 1154.33453121 553.42538254 1154.33456532 C591.79317039 1154.33534045 630.1609575 1154.33969601 668.52874498 1154.34482583 C677.08825318 1154.34596894 685.64776139 1154.34707688 694.20726959 1154.3481871 C695.05690075 1154.34829734 695.9065319 1154.34840758 696.78190945 1154.34852117 C701.93926913 1154.34919017 707.09662881 1154.3498577 712.25398849 1154.35052429 C714.83750543 1154.35085845 717.42102238 1154.35119347 720.00453933 1154.35152857 C760.17563229 1154.35673262 800.34672532 1154.36119312 840.51781845 1154.36489296 C841.3931346 1154.3649737 842.26845074 1154.36505444 843.17029162 1154.36513763 C898.95893889 1154.37026483 954.74758575 1154.37206253 1010.53623324 1154.37153696 C1013.28006718 1154.37151145 1016.02390111 1154.37148753 1018.76773504 1154.37146414 C1038.04486526 1154.37129945 1057.32199549 1154.37109403 1076.59912571 1154.37087838 C1082.12644673 1154.37081684 1087.65376775 1154.37075671 1093.18108877 1154.37069675 C1097.79159991 1154.37064656 1102.40211105 1154.37059498 1107.01262219 1154.37054053 C1194.09998969 1154.3695176 1281.18735349 1154.37235474 1368.27471924 1154.39123535 C1369.65009672 1154.39153343 1369.65009672 1154.39153343 1371.05325961 1154.39183752 C1399.7020104 1154.3980602 1428.35076107 1154.40479319 1456.99951172 1154.41162109 C1486.39465964 1154.41862378 1515.78980758 1154.42556463 1545.1849556 1154.43214989 C1546.54254741 1154.43245447 1546.54254741 1154.43245447 1547.92756532 1154.4327652 C1604.59671311 1154.44546075 1661.26585984 1154.4533067 1717.935009 1154.45586586 C1718.81006422 1154.45590592 1719.68511943 1154.45594597 1720.58669148 1154.45598724 C1759.01445699 1154.45773777 1797.44222246 1154.45837747 1835.86998801 1154.45780547 C1851.32892727 1154.4575769 1866.78786653 1154.45746477 1882.24680579 1154.45739883 C1884.8100279 1154.45738603 1887.37325001 1154.45736787 1889.93647211 1154.45734853 C1929.15896433 1154.45707543 1968.38145316 1154.45977371 2007.60394382 1154.47143888 C2008.45023958 1154.47169023 2009.29653533 1154.47194157 2010.16847641 1154.47220053 C2023.78288202 1154.47625876 2037.39728756 1154.48054675 2051.01169309 1154.48485415 C2089.64813269 1154.49706812 2128.28456775 1154.50716223 2166.92100954 1154.50291181 C2167.70452237 1154.50282638 2168.4880352 1154.50274095 2169.29529085 1154.50265294 C2186.38658449 1154.50074648 2203.47787775 1154.49771513 2220.56917099 1154.49357951 C2227.38504156 1154.4919468 2234.20091215 1154.49045957 2241.01678276 1154.48901749 C2242.13204539 1154.48877553 2242.13204539 1154.48877553 2243.26983859 1154.48852869 C2266.87443375 1154.48347647 2290.47900371 1154.49072749 2314.08359449 1154.50505312 C2337.95656018 1154.51948831 2361.82947536 1154.52018387 2385.70244291 1154.50397559 C2399.29490801 1154.49517658 2412.88726509 1154.49744167 2426.47972137 1154.51570916 C2435.49084917 1154.52673687 2444.50189581 1154.52343065 2453.51301727 1154.50814359 C2458.63158279 1154.49987046 2463.74993473 1154.49797301 2468.86848774 1154.51364497 C2473.50863367 1154.52773675 2478.14838412 1154.52357001 2482.78850933 1154.50457759 C2484.45636472 1154.50098494 2486.12425132 1154.50412984 2487.79207678 1154.51474985 C2500.87842248 1154.60787879 2500.87842248 1154.60787879 2512.0234375 1148.25390625 C2512.46945313 1147.69574219 2512.91546875 1147.13757812 2513.375 1146.5625 C2513.83648438 1146.00691406 2514.29796875 1145.45132812 2514.7734375 1144.87890625 C2517.8235468 1140.20660507 2518.28879027 1135.92745402 2518.25415033 1130.45680922 C2518.25732766 1129.7007367 2518.26050498 1128.94466418 2518.26377859 1128.16568037 C2518.27202421 1125.61862038 2518.26597869 1123.07179338 2518.26006222 1120.52472973 C2518.2630575 1118.67775401 2518.26692713 1116.83077954 2518.27159455 1114.9838073 C2518.28192248 1109.87884953 2518.27970906 1104.77396073 2518.27553919 1099.66899701 C2518.27318187 1094.12634047 2518.28233042 1088.58370126 2518.29002339 1083.04105121 C2518.30189399 1073.31696961 2518.30623523 1063.59290679 2518.30570221 1053.86881828 C2518.30494748 1040.08483354 2518.31424988 1026.30087013 2518.32634189 1012.51689151 C2518.35086479 984.51654926 2518.36100957 956.5162131 2518.36586904 928.51586135 C2518.36639273 925.50095222 2518.36691857 922.48604308 2518.36744571 919.47113395 C2518.36757477 918.72299989 2518.36770383 917.97486584 2518.3678368 917.20406106 C2518.37074108 900.63358348 2518.37689881 884.06310761 2518.38354302 867.49263117 C2518.38626644 860.6718527 2518.38889748 853.85107418 2518.39152867 847.03029567 C2518.39196504 845.89987741 2518.39196504 845.89987741 2518.39241022 844.74662241 C2518.40903549 801.55413126 2518.42089084 758.36164092 2518.42332363 715.16914654 C2518.42341826 713.55233834 2518.42351327 711.93553015 2518.42360866 710.31872195 C2518.42403641 703.01877742 2518.42444179 695.71883288 2518.42484702 688.41888835 C2518.42502862 685.1635796 2518.42521351 681.90827084 2518.42539909 678.65296209 C2518.42549111 677.02362045 2518.42558151 675.3942788 2518.42567028 673.76493716 C2518.42848506 622.23723551 2518.45021617 570.70957297 2518.48706055 519.18188477 C2518.51452865 480.75971218 2518.5404179 442.33754707 2518.54700565 403.91536427 C2518.54720581 402.75562367 2518.54720581 402.75562367 2518.54741001 401.57245396 C2518.55028211 384.60097783 2518.55169956 367.62950186 2518.55176822 350.65802549 C2518.55180791 344.58555224 2518.55196486 338.51307899 2518.55218274 332.44060574 C2518.55223639 330.92988916 2518.5522845 329.41917258 2518.55232707 327.90845601 C2518.55307098 303.82191243 2518.56874794 279.73540738 2518.59193837 255.64887585 C2518.61518835 231.39371572 2518.62244866 207.13860521 2518.6077575 182.8834368 C2518.59864535 167.82925038 2518.60295031 152.77519912 2518.62971413 137.72102809 C2518.64540141 128.12567905 2518.64305448 118.53044581 2518.6258074 108.93509968 C2518.61648538 103.46123311 2518.61519502 97.9876801 2518.63577347 92.5138373 C2518.65432304 87.53756122 2518.65000868 82.56185764 2518.62718253 77.58560413 C2518.62301338 75.79326104 2518.62728696 74.00087415 2518.64088022 72.20857776 C2519.02695956 59.61365274 2519.02695956 59.61365274 2513 49 C2508.80984212 44.75842534 2504.75710844 42.21196538 2498.73905609 41.74929995 C2496.86268675 41.74880217 2496.86268675 41.74880217 2494.94841097 41.74829433 C2494.24511477 41.74537999 2493.54181857 41.74246564 2492.81721037 41.73946299 C2490.44832143 41.73210481 2488.07968886 41.73904235 2485.7108013 41.74584967 C2483.99032378 41.74349056 2482.26984727 41.74025505 2480.54937285 41.73622141 C2475.78753734 41.72762946 2471.02578012 41.73158837 2466.26394349 41.73746906 C2461.07699051 41.74167947 2455.89005209 41.7343129 2450.70310256 41.72840545 C2441.5658845 41.71961785 2432.42868865 41.71833461 2423.29146739 41.72183973 C2409.61264186 41.72705435 2395.93383808 41.72082359 2382.25501505 41.71232625 C2358.9462602 41.69819411 2335.63751467 41.69364413 2312.32875633 41.69429779 C2288.69559461 41.69493469 2265.06243943 41.6912644 2241.42927933 41.68231773 C2239.92357734 41.6817522 2238.41787535 41.68118676 2236.91217335 41.68062141 C2230.84137266 41.67833382 2224.77057198 41.67601423 2218.69977131 41.67365811 C2201.58523754 41.66702544 2184.47070355 41.66114342 2167.35616934 41.65578258 C2166.57181802 41.65553683 2165.78746671 41.65529108 2164.97934717 41.65503789 C2119.49371728 41.64087798 2074.00808629 41.63761477 2028.52245458 41.63413096 C2022.54983444 41.63367297 2016.57721429 41.63321389 2010.60459415 41.63275199 C2008.89422492 41.63262015 2007.18385568 41.6324891 2005.47348645 41.63235885 C1967.96112933 41.62950028 1930.44877299 41.62355926 1892.93641638 41.61691041 C1876.64739254 41.61402544 1860.35836868 41.61124772 1844.06934482 41.60847133 C1843.21681904 41.60832587 1842.36429327 41.6081804 1841.48593338 41.60803053 C1800.45430295 41.60103314 1759.42267243 41.5948057 1718.39104176 41.5894537 C1717.51575224 41.58933945 1716.64046273 41.58922521 1715.7386493 41.58910751 C1659.95291107 41.58184865 1604.16717318 41.57812692 1548.38143452 41.57674492 C1543.80729572 41.5766306 1539.23315692 41.57651058 1534.65901812 41.57639134 C1519.05451145 41.57598662 1503.45000479 41.57560315 1487.84549813 41.57522071 C1480.47794154 41.57503994 1473.11038494 41.57485617 1465.74282835 41.5746705 C1461.13267458 41.57455449 1456.52252082 41.5744402 1451.91236706 41.57432972 C1364.83057258 41.57223663 1277.74878337 41.56548526 1190.66699219 41.5401001 C1189.75011138 41.53983295 1188.83323057 41.53956579 1187.88856549 41.53929055 C1159.24089574 41.53092845 1130.59322618 41.52198762 1101.94555664 41.51293945 C1072.55144857 41.50365726 1043.15734047 41.49445634 1013.76323223 41.48571873 C1012.85820206 41.48544939 1011.95317189 41.48518006 1011.02071656 41.48490256 C954.35359055 41.46806417 897.68646601 41.45727775 841.01933765 41.45299435 C840.14431598 41.45292751 839.2692943 41.45286067 838.36775682 41.4527918 C799.94151292 41.44986603 761.51526906 41.44830197 723.08902505 41.44823663 C707.63073182 41.44820765 692.17243858 41.44802505 676.71414535 41.4477759 C674.1510338 41.44773677 671.58792225 41.44770419 669.0248107 41.44767293 C629.80424588 41.44716313 590.58368658 41.44285123 551.36312461 41.42716718 C550.09375257 41.42666011 550.09375257 41.42666011 548.79873666 41.42614281 C535.1851218 41.42068476 521.57150707 41.41492784 507.95789235 41.40913959 C469.32386062 41.39272318 430.68983588 41.37888954 392.05580008 41.38295543 C391.27233791 41.38303688 390.48887574 41.38311834 389.6816723 41.38320226 C372.59150218 41.38503193 355.50133263 41.38825945 338.41116304 41.3928586 C331.59575001 41.39467174 324.78033695 41.396302 317.96492386 41.39787483 C317.22146562 41.39805137 316.47800737 41.39822791 315.7120201 41.3984098 C292.10902966 41.40392773 268.50607915 41.39405779 244.90309641 41.37533815 C221.03178389 41.35647175 197.16054967 41.35477168 173.28923292 41.3741926 C159.69771319 41.38471264 146.1063628 41.38139765 132.51485806 41.35807384 C123.50436477 41.34396436 114.49399765 41.34777203 105.48351308 41.36655534 C100.36527724 41.37671168 95.24737546 41.37889756 90.12916027 41.35911978 C85.48927562 41.34133448 80.85000816 41.34637369 76.2101544 41.36994614 C74.54242163 41.37437614 72.8746404 41.37038356 71.20695508 41.35704676 C60.65398695 41.27829614 53.36475133 41.9013825 46.125 50.0625 Z " fill="#000000" transform="translate(0,0)"/>
<path d="M0 0 C0.93263438 0.00086648 1.86526876 0.00173296 2.82616478 0.0026257 C3.80914482 -0.00034542 4.79212487 -0.00331654 5.80489218 -0.0063777 C9.12689727 -0.01510757 12.44886651 -0.01657666 15.77088219 -0.01806521 C18.14260743 -0.02269102 20.51433192 -0.02771536 22.88605553 -0.03311038 C29.35654266 -0.04627486 35.82702289 -0.05272633 42.29752094 -0.05712104 C46.34727776 -0.05988446 50.3970322 -0.0641226 54.44678742 -0.06862521 C65.68013506 -0.08083362 76.91348078 -0.09112218 88.14683491 -0.0945003 C89.22681844 -0.09482965 89.22681844 -0.09482965 90.32861981 -0.09516566 C91.41112814 -0.09549307 91.41112814 -0.09549307 92.51550531 -0.0958271 C93.97774683 -0.09627056 95.43998834 -0.09671712 96.90222985 -0.09716678 C97.62754489 -0.09738821 98.35285994 -0.09760964 99.10015423 -0.09783778 C110.79020124 -0.10176546 122.48018512 -0.11914977 134.17020785 -0.1425263 C146.20047954 -0.16638615 158.23071985 -0.17870915 170.26101553 -0.17986822 C177.00348305 -0.18077809 183.7458565 -0.18667978 190.48830277 -0.20468783 C196.85520152 -0.22135794 203.22194708 -0.22323368 209.58886009 -0.21454883 C211.9048643 -0.21378798 214.22087737 -0.21799239 216.53686005 -0.22800708 C246.59214681 -0.35015889 275.89451162 2.9139399 303.57972008 15.1430676 C304.25841149 15.44051877 304.93710289 15.73796994 305.6363607 16.04443479 C327.32186142 25.73481554 346.3866204 41.10482814 360.57972008 60.1430676 C360.9746566 60.66304318 361.36959313 61.18301877 361.77649742 61.71875119 C380.51602022 86.47830002 391.31834783 113.92089871 397.57972008 144.1430676 C397.75938317 144.96838986 397.93904625 145.79371213 398.12415367 146.64404416 C407.98654488 193.14471503 402.63538983 251.9170727 377.07972008 293.0805676 C365.31513131 310.57128364 350.6374846 325.85741826 333.01062828 337.44018674 C329.4996791 339.75329809 326.43192013 342.00710275 323.57972008 345.1430676 C324.23585289 345.22427854 324.8919857 345.30548947 325.56800133 345.38916135 C329.6431192 346.40926219 333.07503922 348.23268076 336.76722008 350.2055676 C337.52389977 350.60896359 338.28057945 351.01235959 339.06018883 351.42797971 C345.1298579 354.74408208 350.41226978 358.53749692 355.57972008 363.1430676 C356.33382164 363.76697385 357.0879232 364.3908801 357.86487633 365.0336926 C390.98219445 392.98175523 406.58184085 444.59643402 410.57972008 486.1430676 C410.73116511 489.23451319 410.76618857 492.32167663 410.78284508 495.4165051 C410.78985939 496.28943204 410.79687371 497.16235898 410.80410057 498.06173825 C410.82157595 500.88056739 410.82795761 503.69918619 410.82972008 506.5180676 C410.83039482 507.4819238 410.83106957 508.44578 410.83176476 509.43884397 C410.81461666 524.86572527 410.22690512 539.90926688 407.57972008 555.1430676 C407.4187484 556.08843381 407.25777672 557.03380002 407.09192711 558.00781369 C403.20434105 579.92543384 396.4705752 601.67949118 385.57972008 621.1430676 C384.97901695 622.29033322 384.37831383 623.43759885 383.75940758 624.6196301 C363.47899968 662.21051169 327.89531624 691.86948827 287.4488607 705.301759 C279.02864443 707.77079111 270.27263347 709.0447042 261.57972008 710.1430676 C260.96583819 710.22510428 260.3519563 710.30714097 259.71947193 710.39166361 C253.70088279 711.1388744 247.77627178 711.28639295 241.71620995 711.27678037 C240.12645715 711.2801787 240.12645715 711.2801787 238.50458813 711.28364569 C234.97175954 711.2899497 231.43896967 711.28915867 227.9061361 711.28833127 C225.36621352 711.29132481 222.82629139 711.29472779 220.28636986 711.29850888 C214.11665495 711.3064136 207.94695412 711.30956238 201.77723462 711.31012126 C196.76506976 711.31059725 191.75290804 711.31265609 186.74074417 711.31582189 C172.52696492 711.32461698 158.31319319 711.32924246 144.0994112 711.32849141 C143.33438041 711.32845146 142.56934963 711.3284115 141.7811361 711.32837033 C141.01517162 711.32832945 140.24920714 711.32828857 139.46003162 711.32824645 C127.02034506 711.32783917 114.58068865 711.33743234 102.14101083 711.3515087 C89.36479389 711.36585196 76.58859169 711.37278018 63.81236649 711.37191492 C56.64044499 711.37158249 49.46855519 711.3743505 42.29664093 711.38509297 C35.562026 711.39511629 28.82748943 711.39488394 22.09286743 711.38757634 C19.61519832 711.38652528 17.1375251 711.388924 14.65986305 711.3949368 C11.29127624 711.40258565 7.92292597 711.39805963 4.55434471 711.39030576 C3.56244481 711.39544932 2.57054491 711.40059288 1.54858744 711.40589231 C0.65143958 711.40129352 -0.24570829 711.39669472 -1.17004246 711.39195657 C-1.94814712 711.39217394 -2.72625179 711.3923913 -3.52793539 711.39261526 C-5.42027992 711.1430676 -5.42027992 711.1430676 -7.42027992 709.1430676 C-7.67009492 707.03167593 -7.67009492 707.03167593 -7.66982758 704.35610455 C-7.67457839 703.33700681 -7.6793292 702.31790907 -7.68422398 701.26792958 C-7.67677171 699.57242454 -7.67677171 699.57242454 -7.66916889 697.84266686 C-7.67177617 696.6452902 -7.67438346 695.44791354 -7.67706975 694.21425274 C-7.68231202 690.86534708 -7.67850135 687.51666537 -7.67101367 684.16777792 C-7.66506964 680.5340979 -7.67066554 676.90043343 -7.67483449 673.26675349 C-7.68053596 666.8899311 -7.67875147 660.51314424 -7.67214912 654.13632321 C-7.66235846 644.65408772 -7.66395688 635.1718784 -7.66789942 625.68963991 C-7.674185 609.74090759 -7.6709911 593.79219002 -7.6623053 577.84345937 C-7.65370287 562.04476845 -7.64878485 546.24608416 -7.64897293 530.44739079 C-7.64898057 529.46613988 -7.64898822 528.48488896 -7.6489961 527.47390317 C-7.649037 523.49109835 -7.64910261 519.50829353 -7.64920191 515.5254887 C-7.65010876 478.13428113 -7.64015129 440.74308367 -7.62477224 403.35187961 C-7.6111465 370.10087765 -7.60491097 336.84988287 -7.60558265 303.59887815 C-7.60562307 301.4638256 -7.60566343 299.32877306 -7.60570373 297.19372051 C-7.60572408 296.13821251 -7.60574444 295.08270451 -7.6057654 293.99521142 C-7.60586619 288.68240289 -7.60595678 283.36959435 -7.60603565 278.05678582 C-7.60605236 277.0087481 -7.60606908 275.96071037 -7.6060863 274.88091392 C-7.60645113 247.13099129 -7.60191651 219.38106956 -7.59570909 191.63114768 C-7.59548881 190.6445633 -7.59526854 189.65797891 -7.5950416 188.64149802 C-7.59415332 184.67384346 -7.59326494 180.7061889 -7.59235064 176.73853434 C-7.58918586 162.91067934 -7.58768076 149.08282505 -7.58723915 135.25496972 C-7.58664312 117.43975378 -7.58266999 99.62454379 -7.57280769 81.8093304 C-7.56767733 72.37805077 -7.56528841 62.94677987 -7.56680388 53.51549891 C-7.56753486 47.22766531 -7.56466057 40.93984025 -7.55876007 34.65200939 C-7.55549045 31.06153686 -7.55384506 27.47108271 -7.55652066 23.88060927 C-7.55935139 20.02627029 -7.55456423 16.17196362 -7.54891437 12.31762719 C-7.55096969 11.18494933 -7.55302501 10.05227146 -7.55514261 8.88527003 C-7.55238287 7.86867581 -7.54962312 6.85208159 -7.54677975 5.80468148 C-7.54648825 4.92181068 -7.54619675 4.03893989 -7.54589642 3.12931543 C-7.26376368 -1.33176677 -3.64936783 0.01669995 0 0 Z " fill="#000000" transform="translate(2065.420279920101,258.8569324016571)"/>
<path d="M0 0 C46.12044701 -1.34348122 90.64614984 13.54400049 124.3125 45.16015625 C125.59878777 46.27058436 126.89008022 47.37525535 128.1875 48.47265625 C136.83052458 55.99297867 145.02953296 64.31875771 152.3125 73.16015625 C152.71726562 73.64049316 153.12203125 74.12083008 153.5390625 74.61572266 C193.54156554 122.20441466 209.32716324 178.25510703 212.18103027 239.37109375 C212.31447505 242.20205597 212.4545593 245.03264471 212.59472656 247.86328125 C215.88638708 316.01739121 215.79483869 384.72726639 213.4375 452.91015625 C213.39838501 454.04453125 213.35927002 455.17890625 213.31896973 456.34765625 C212.8646193 468.89949543 212.14205299 481.43214625 211.32421875 493.96484375 C211.24426666 495.19483093 211.16431458 496.42481812 211.0819397 497.69207764 C209.39982134 522.47468331 206.08362478 547.15829862 197.45996094 570.56323242 C197.01958496 571.77910034 197.01958496 571.77910034 196.5703125 573.01953125 C196.17030029 574.07865723 196.17030029 574.07865723 195.76220703 575.15917969 C195.2196174 577.57343846 195.53542877 578.82351956 196.3125 581.16015625 C198.16814846 583.28412666 200.02457499 585.24465881 202.03515625 587.2109375 C202.90351357 588.07648506 202.90351357 588.07648506 203.78941345 588.95951843 C205.01749433 590.18087886 206.24916676 591.398637 207.48413086 592.61303711 C209.35059934 594.44865885 211.20647963 596.29443995 213.06054688 598.14257812 C214.25980306 599.33264991 215.45965507 600.52212163 216.66015625 601.7109375 C217.47940331 602.52380974 217.47940331 602.52380974 218.31520081 603.35310364 C221.22558466 606.21139104 224.19815257 608.95576974 227.28466797 611.62353516 C231.16559689 614.98839622 234.80467437 618.53937304 238.41015625 622.1953125 C239.0481163 622.83705917 239.68607635 623.47880585 240.34336853 624.13999939 C242.356398 626.16510276 244.36611709 628.19344002 246.375 630.22265625 C249.02956907 632.90402304 251.68757334 635.58191691 254.34765625 638.2578125 C255.24013817 639.16274193 255.24013817 639.16274193 256.15065002 640.08595276 C259.58448707 643.53954129 263.10940922 646.75148412 266.90289307 649.80841064 C268.3125 651.16015625 268.3125 651.16015625 269.57421875 654.046875 C269.18441719 658.68376823 266.90914102 661.35239147 264.125 664.97265625 C263.00471956 666.49052479 261.88494151 668.00876424 260.765625 669.52734375 C260.18876953 670.29788086 259.61191406 671.06841797 259.01757812 671.86230469 C256.39900056 675.39123539 253.89171944 678.99578833 251.375 682.59765625 C246.69865058 689.23839445 241.95425983 695.82827158 237.18579102 702.40307617 C232.84753902 708.3933742 228.57832866 714.43033299 224.35742188 720.50390625 C223.02791407 722.40373738 221.67658801 724.28504423 220.3125 726.16015625 C219.68021484 727.05831055 219.68021484 727.05831055 219.03515625 727.97460938 C217.16731449 730.46215565 215.90444129 731.99520446 212.859375 732.84375 C209.26753512 731.87968255 207.13932333 729.77028505 204.5625 727.22265625 C204.01247314 726.69776611 203.46244629 726.17287598 202.89575195 725.63208008 C197.30427672 720.25693938 191.83882199 714.74357535 186.40136719 709.21313477 C183.16024029 705.92985001 179.89570884 702.74830189 176.39453125 699.7421875 C170.74386233 694.87712131 165.60567063 689.49816108 160.37890625 684.1875 C156.04139432 679.80780805 151.65010034 675.58985302 146.94824219 671.6015625 C145.3125 670.16015625 145.3125 670.16015625 143.0625 667.66015625 C142.19625 666.91765625 142.19625 666.91765625 141.3125 666.16015625 C137.82679264 666.53082452 136.39385225 667.84489812 134.125 670.41015625 C101.03370239 704.60042684 52.30096521 722.28832273 5.49780273 723.49658203 C-45.18227412 724.1226044 -89.42803435 705.96222908 -125.66015625 671.125 C-136.21468954 660.81586153 -146.02926568 650.11676555 -154.6875 638.16015625 C-155.30882812 637.31195312 -155.93015625 636.46375 -156.5703125 635.58984375 C-161.29477448 629.00102009 -165.61212409 622.16697471 -169.6875 615.16015625 C-170.06777344 614.51030762 -170.44804687 613.86045898 -170.83984375 613.19091797 C-190.39797034 579.27680583 -200.17002186 540.36630068 -202.72265625 501.53125 C-202.80671722 500.27035553 -202.8907782 499.00946106 -202.97738647 497.71035767 C-203.81115778 484.8251946 -204.40615567 471.94056421 -204.8125 459.03515625 C-204.87503967 457.06671249 -204.87503967 457.06671249 -204.93884277 455.0585022 C-205.86709742 424.84240077 -205.9077584 394.61253088 -205.93172681 364.3847239 C-205.93546909 359.77932005 -205.94348223 355.17393857 -205.95318604 350.56854248 C-206.00564878 321.93402165 -205.7248807 293.32969655 -204.796875 264.7109375 C-204.75804451 263.48288076 -204.71921402 262.25482403 -204.67920685 260.98955345 C-204.23742575 247.34976721 -203.60071532 233.72855683 -202.72363281 220.11010742 C-202.64676113 218.88791409 -202.56988945 217.66572077 -202.49068832 216.40649128 C-199.10196385 166.39931104 -180.0471624 117.15871077 -148.6875 78.16015625 C-148.04699707 77.36085693 -148.04699707 77.36085693 -147.39355469 76.54541016 C-135.19563111 61.47336792 -121.29811492 46.71576159 -105.6875 35.16015625 C-104.66398437 34.36996094 -103.64046875 33.57976562 -102.5859375 32.765625 C-72.75162431 10.17498007 -36.80810218 1.59865698 0 0 Z " fill="#000000" transform="translate(283.6875,249.83984375)"/>
<path d="M0 0 C0.74978119 0.00215515 1.49956238 0.0043103 2.27206421 0.00653076 C47.36108485 0.21415112 85.343413 17.21590985 117.5 48.3125 C118.0679126 48.85632324 118.6358252 49.40014648 119.22094727 49.96044922 C123.42848306 54.06324509 127.13810249 58.38220787 130.6875 63.0625 C131.24139404 63.79130371 131.79528809 64.52010742 132.3659668 65.27099609 C138.6099768 73.61820492 144.17440261 82.35735535 149.5 91.3125 C149.87463379 91.93769531 150.24926758 92.56289063 150.63525391 93.20703125 C160.63574835 110.13888669 167.66961614 129.29141904 172.5 148.3125 C172.68256348 149.01810059 172.86512695 149.72370117 173.05322266 150.45068359 C177.44355195 167.58713018 178.90876327 183.85895766 178.875 201.5 C178.87478851 202.51762421 178.87457703 203.53524841 178.87435913 204.58370972 C178.84069828 220.82786051 177.89656511 236.38027191 174.5 252.3125 C174.30744629 253.25754395 174.11489258 254.20258789 173.91650391 255.17626953 C169.02193292 278.85585231 160.78965815 301.26110056 145.5 320.3125 C144.8503125 321.16328125 144.200625 322.0140625 143.53125 322.890625 C136.8864364 331.37020056 129.20440785 338.80622727 121.5 346.3125 C123.1645642 349.89066134 124.97161238 351.81141238 128 354.375 C142.50486623 367.17341138 153.54104851 382.49137412 162.54492188 399.52099609 C163.37400793 401.07616825 164.23863926 402.61228995 165.109375 404.14453125 C174.29088496 421.00198098 178.79562799 440.61372551 182.5 459.3125 C182.67821289 460.16634277 182.85642578 461.02018555 183.04003906 461.89990234 C185.58803108 474.75013462 185.73934408 487.81679957 185.75 500.875 C185.75067474 501.62995758 185.75134949 502.38491516 185.75204468 503.16275024 C185.66634207 564.28152374 167.83735704 621.53507283 125.5 666.3125 C125.03609863 666.81040039 124.57219727 667.30830078 124.09423828 667.82128906 C96.96577512 696.80993574 60.40278418 712.30885682 21.5 717.3125 C20.7790918 717.40748779 20.05818359 717.50247559 19.31542969 717.6003418 C-22.76595631 722.75591593 -63.39060641 708.68922581 -96.4375 683.0625 C-140.76379573 647.95256279 -162.65689926 595.95509107 -170.22998047 540.77978516 C-170.61971353 537.21862574 -170.73110341 533.89257562 -170.5 530.3125 C-167.93174349 527.74424349 -166.2130238 528.05973541 -162.71099854 528.01922607 C-161.90160828 528.02013245 -161.09221802 528.02103882 -160.25830078 528.02197266 C-158.98002914 528.01189682 -158.98002914 528.01189682 -157.67593384 528.00161743 C-154.84900131 527.98256545 -152.0223053 527.97870953 -149.1953125 527.9765625 C-147.23477072 527.97013923 -145.27422992 527.96341123 -143.31369019 527.95639038 C-139.19950132 527.94439935 -135.08539653 527.9407114 -130.97119141 527.94189453 C-125.69598114 527.94209774 -120.42130948 527.91480125 -115.14622688 527.88035011 C-111.09534219 527.85812497 -107.04458796 527.85405565 -102.99364853 527.85511398 C-101.04875712 527.85275119 -99.10386247 527.84388966 -97.15903091 527.82844925 C-94.43913208 527.80887916 -91.72040551 527.81459184 -89.00048828 527.82666016 C-88.19514648 527.81542114 -87.38980469 527.80418213 -86.56005859 527.79260254 C-82.95110709 527.83334711 -80.92459533 527.98400062 -78.02635193 530.2263031 C-76.56694988 532.22099382 -75.70412735 533.77723203 -74.96484375 536.12109375 C-74.59564819 537.22626343 -74.59564819 537.22626343 -74.21899414 538.35375977 C-73.96110107 539.14451904 -73.70320801 539.93527832 -73.4375 540.75 C-68.21527298 555.74510588 -61.23761637 570.47870005 -50.5 582.3125 C-49.736875 583.34375 -48.97375 584.375 -48.1875 585.4375 C-37.41812328 596.95822858 -20.63707921 605.54662488 -4.73608398 606.47363281 C-1.46978466 606.51950556 1.79590552 606.54777732 5.0625 606.5625 C6.17947266 606.583125 7.29644531 606.60375 8.44726562 606.625 C19.26798607 606.67518305 28.96395939 604.67134662 38.5625 599.625 C39.24022461 599.27469727 39.91794922 598.92439453 40.61621094 598.56347656 C62.75635254 586.83728492 78.0650579 567.98742387 85.52246094 544.12426758 C85.74192383 543.40263428 85.96138672 542.68100098 86.1875 541.9375 C86.49155762 540.94882935 86.49155762 540.94882935 86.80175781 539.94018555 C90.0961526 528.52942498 90.85029633 517.11187403 90.81567383 505.31201172 C90.81252272 503.07859974 90.83604514 500.84653009 90.86132812 498.61328125 C90.92149257 485.13163227 89.24875684 471.84070268 84.75 459.0625 C84.49323486 458.3192749 84.23646973 457.5760498 83.97192383 456.81030273 C79.79648442 445.14795513 73.77363279 435.51185394 65.5 426.3125 C64.88640625 425.61640625 64.2728125 424.9203125 63.640625 424.203125 C49.92950993 409.55449779 30.3261771 399.10014868 10.1126709 398.20701599 C7.34973931 398.15147503 4.58762672 398.12249708 1.82421875 398.1015625 C-0.24024277 398.07352799 -2.30469581 398.04486384 -4.36914062 398.015625 C-7.60620182 397.97416535 -10.84309864 397.93725311 -14.08032227 397.91113281 C-17.21663389 397.88366907 -20.35223875 397.83784318 -23.48828125 397.7890625 C-24.94914909 397.7841832 -24.94914909 397.7841832 -26.43952942 397.77920532 C-27.33773911 397.76263885 -28.23594879 397.74607239 -29.16137695 397.72900391 C-29.95300735 397.72091705 -30.74463776 397.7128302 -31.56025696 397.70449829 C-33.5 397.3125 -33.5 397.3125 -35.5 394.3125 C-35.6951458 391.3327277 -35.77288868 388.44667498 -35.75878906 385.46655273 C-35.76404602 384.1100914 -35.76404602 384.1100914 -35.76940918 382.72622681 C-35.77822227 379.73277138 -35.77237929 376.73955164 -35.765625 373.74609375 C-35.76697165 371.67008926 -35.76891219 369.59408507 -35.77142334 367.51808167 C-35.77437393 363.16607665 -35.77007856 358.81415369 -35.76074219 354.4621582 C-35.74934063 348.8741755 -35.75591203 343.28638476 -35.76788712 337.69840908 C-35.77510139 333.41171309 -35.7728199 329.1250629 -35.76763153 324.83836555 C-35.7662942 322.77740519 -35.76794564 320.71644072 -35.77259064 318.65548515 C-35.77764953 315.779895 -35.76995494 312.90461936 -35.75878906 310.02905273 C-35.76283752 309.17133774 -35.76688599 308.31362274 -35.77105713 307.42991638 C-35.72852932 301.54102932 -35.72852932 301.54102932 -33.5 299.3125 C-30.53186177 299.1022206 -27.64988108 299.011313 -24.6796875 299.00390625 C-22.84504963 298.97869317 -21.01041429 298.95329613 -19.17578125 298.92773438 C-16.29769923 298.89930827 -13.41966293 298.87529632 -10.54150391 298.85620117 C16.41975951 298.64252107 40.57680242 294.07322272 60.19873047 274.15332031 C78.15177523 255.0073625 83.81502696 231.21344303 84 205.6875 C84.01053406 204.94932037 84.02106812 204.21114075 84.03192139 203.45059204 C84.3026934 178.87342764 75.83478644 155.81562092 59.5 137.3125 C58.69949219 136.405 57.89898438 135.4975 57.07421875 134.5625 C43.99611187 120.61251933 27.14613078 112.47669913 8.03515625 111.0546875 C-12.12802547 110.41995985 -29.62835812 117.86314602 -44.5 131.3125 C-45.33015625 132.03824219 -46.1603125 132.76398438 -47.015625 133.51171875 C-61.5050208 146.95663356 -68.55003031 165.30632374 -72.12036133 184.37426758 C-73.52617038 191.60147425 -73.52617038 191.60147425 -76.5 194.3125 C-79.44948383 194.70924231 -82.02754513 194.84907722 -84.97875977 194.81420898 C-86.27669968 194.82231346 -86.27669968 194.82231346 -87.6008606 194.83058167 C-90.46472234 194.84310249 -93.32758546 194.8265572 -96.19140625 194.80859375 C-98.17772983 194.80874865 -100.16405371 194.81023606 -102.15037537 194.81300354 C-106.31417188 194.81438899 -110.47762453 194.80180392 -114.64135742 194.77905273 C-119.9873133 194.75064929 -125.3326984 194.75340851 -130.67869663 194.76614285 C-134.78013514 194.7730861 -138.88144091 194.76532657 -142.98286247 194.75288582 C-144.95450266 194.74835943 -146.92615703 194.74804483 -148.89779854 194.75195122 C-151.64904295 194.75485067 -154.39949082 194.73841828 -157.15063477 194.71655273 C-157.97094681 194.72105438 -158.79125885 194.72555603 -159.63642883 194.73019409 C-161.90089417 194.70018005 -161.90089417 194.70018005 -165.5 194.3125 C-167.92461084 190.67558374 -167.67103941 188.29135495 -167.375 184.125 C-167.32641846 183.39031494 -167.27783691 182.65562988 -167.2277832 181.89868164 C-166.40054065 171.26692096 -164.50106697 160.77645172 -162.5 150.3125 C-162.36255371 149.57676758 -162.22510742 148.84103516 -162.08349609 148.08300781 C-157.18541451 122.82708016 -144.5864992 97.05265721 -129.5 76.3125 C-128.80519531 75.34570312 -128.11039063 74.37890625 -127.39453125 73.3828125 C-100.5165529 36.75264732 -65.82254951 7.90360978 -19.83666992 0.68530273 C-13.23744336 -0.05202213 -6.63144027 -0.03428901 0 0 Z " fill="#000000" transform="translate(1394.5,258.6875)"/>
<path d="M0 0 C0.89309372 -0.00554901 1.78618744 -0.01109802 2.7063446 -0.01681519 C5.65755918 -0.02862346 8.60724251 -0.0043263 11.55834961 0.02148438 C13.60810781 0.02319507 15.65786819 0.02313022 17.70762634 0.0213623 C22.00256286 0.02301616 26.29697781 0.04172813 30.59179688 0.07324219 C36.10242565 0.11294486 41.61237182 0.11728497 47.12311649 0.10977936 C51.35499853 0.10671303 55.58672652 0.11881778 59.81857109 0.13591003 C61.85078401 0.14295045 63.88301439 0.14606331 65.91523933 0.1452179 C68.75240905 0.14701151 71.5887538 0.16835501 74.42578125 0.1953125 C75.69057816 0.1909166 75.69057816 0.1909166 76.98092651 0.18643188 C82.71973658 0.27075408 82.71973658 0.27075408 84.89021301 2.01582241 C86.14819336 3.61523438 86.14819336 3.61523438 86.10240173 5.60023499 C85.90731522 6.32971848 85.7122287 7.05920197 85.51123047 7.81079102 C85.30005585 8.609617 85.08888123 9.40844299 84.87130737 10.23147583 C83.81782552 13.70429799 82.6416282 17.09925558 81.33959961 20.48632812 C80.92249474 21.59358246 80.92249474 21.59358246 80.4969635 22.72320557 C79.5740419 25.16863415 78.64240955 27.61064446 77.71069336 30.05273438 C77.04465198 31.81206134 76.37913843 33.57158821 75.71411133 35.33129883 C73.91084592 40.09771935 72.09971622 44.86111375 70.28656006 49.6237793 C68.75400256 53.65110802 67.22488913 57.67974082 65.69572449 61.70835876 C62.91297505 69.03953209 60.12850826 76.37004908 57.33984375 83.69897461 C52.08970322 97.49704232 46.86012485 111.30269184 41.64819336 125.11523438 C35.77222896 140.68531484 29.87516578 156.24724078 23.96069336 171.80273438 C22.36562428 175.99804042 20.77055821 180.19334759 19.17553711 184.38867188 C18.77107361 185.45251602 18.36661011 186.51636017 17.94989014 187.61244202 C12.96882585 200.71545249 7.99511787 213.82125348 3.02319336 226.92773438 C2.32468262 228.76904434 2.32468262 228.76904434 1.61206055 230.64755249 C-4.79476807 247.53796628 -11.18704019 264.43381292 -17.56573486 281.33486938 C-23.54025029 297.16354581 -29.54641369 312.98007528 -35.56063843 328.79370117 C-41.17636059 343.56053371 -46.7739114 358.33407336 -52.35180664 373.11523438 C-58.32991018 388.95692862 -64.33278134 404.78904366 -70.35180664 420.61523438 C-76.70358381 437.31662223 -83.03893044 454.02410105 -89.35180664 470.74023438 C-89.71346924 471.69784668 -90.07513184 472.65545898 -90.44775391 473.64208984 C-91.46806274 476.34399709 -92.48814454 479.04598985 -93.50805664 481.74804688 C-93.80405762 482.53220978 -94.10005859 483.31637268 -94.4050293 484.1242981 C-94.68459473 484.86525726 -94.96416016 485.60621643 -95.25219727 486.36962891 C-95.49023071 487.00047394 -95.72826416 487.63131897 -95.97351074 488.28128052 C-97.26934229 491.7247795 -98.55993648 495.17024728 -99.85180664 498.61523438 C-55.63180664 498.61523438 -11.41180664 498.61523438 34.14819336 498.61523438 C34.1365918 484.26152344 34.12499023 469.9078125 34.11303711 455.11914062 C34.1079308 446.05468732 34.10307582 436.99023505 34.09936523 427.92578125 C34.09342154 413.52139939 34.08641792 399.11702336 34.07275391 384.71264648 C34.06280913 374.22405793 34.05634043 363.73547409 34.05410486 353.24688095 C34.05279741 347.68956573 34.04970934 342.13226399 34.0424633 336.57495308 C34.03570634 331.35070677 34.03357573 326.12647957 34.03508568 320.90222931 C34.0348092 318.97886743 34.03280217 317.05550495 34.02898788 315.13214684 C34.02405569 312.51817342 34.0251933 309.90427337 34.02793884 307.29029846 C34.02356958 306.13321966 34.02356958 306.13321966 34.01911205 304.95276552 C34.03407215 299.72935559 34.03407215 299.72935559 35.14819336 298.61523438 C37.82069403 298.51478385 40.46737917 298.47906789 43.14038086 298.48583984 C44.39640106 298.48321136 44.39640106 298.48321136 45.67779541 298.48052979 C48.4596155 298.47611036 51.24137257 298.47904957 54.02319336 298.48242188 C55.94750989 298.48174886 57.87182634 298.48077886 59.79614258 298.47952271 C63.83472501 298.47804561 67.87328536 298.48020066 71.91186523 298.48486328 C77.10087847 298.49056057 82.28983998 298.48728163 87.47885132 298.48129082 C91.45410556 298.47768552 95.42934745 298.47882365 99.40460205 298.48141861 C101.31846116 298.48208797 103.23232138 298.48125916 105.1461792 298.47893906 C107.81615186 298.47641304 110.48603956 298.48025239 113.15600586 298.48583984 C113.95500305 298.48381561 114.75400024 298.48179138 115.57720947 298.47970581 C121.03393086 298.50097188 121.03393086 298.50097188 122.14819336 299.61523438 C122.24596355 302.18241634 122.27814352 304.72267354 122.26844788 307.29029846 C122.26972951 308.51052048 122.26972951 308.51052048 122.27103704 309.75539345 C122.27269433 312.50239679 122.26716642 315.2493401 122.26171875 317.99633789 C122.26143691 319.95705158 122.26159456 321.91776538 122.26216125 323.878479 C122.26244934 329.21916772 122.25655088 334.55983418 122.2495873 339.9005177 C122.24335554 345.47525754 122.2427501 351.04999782 122.24156189 356.6247406 C122.23844805 367.18929529 122.23023395 377.75383969 122.2202124 388.31838983 C122.20905291 400.34236667 122.20354123 412.36634399 122.19851696 424.39032471 C122.18805137 449.13196698 122.17045091 473.8736001 122.14819336 498.61523438 C123.44031738 498.60476074 124.73244141 498.59428711 126.0637207 498.58349609 C130.84575645 498.54736719 135.62778008 498.52435986 140.40991211 498.50537109 C142.48187283 498.49529726 144.55381929 498.48163772 146.62573242 498.46435547 C149.599401 498.44016773 152.57288206 498.42876529 155.54663086 498.41992188 C156.94200577 498.40443802 156.94200577 498.40443802 158.36557007 498.38864136 C159.22631134 498.3884903 160.08705261 498.38833923 160.97387695 498.38818359 C161.73332611 498.38374237 162.49277527 498.37930115 163.27523804 498.37472534 C165.14819336 498.61523438 165.14819336 498.61523438 167.14819336 500.61523438 C167.39987564 502.43309784 167.39987564 502.43309784 167.40216064 504.67663574 C167.40780029 505.52632431 167.41343994 506.37601288 167.41925049 507.25144958 C167.4131778 508.65258751 167.4131778 508.65258751 167.40698242 510.08203125 C167.41223938 511.55531639 167.41223938 511.55531639 167.41760254 513.05836487 C167.42643161 516.31697582 167.42056652 519.57537107 167.41381836 522.83398438 C167.41516467 525.09078005 167.41710492 527.34757544 167.4196167 529.60437012 C167.42256956 534.3389766 167.41826509 539.07350773 167.40893555 543.80810547 C167.39754097 549.88823189 167.40409957 555.96818176 167.41608047 562.0483017 C167.42329469 566.70987284 167.42101316 571.37140186 167.41582489 576.03297424 C167.41448718 578.27535523 167.41614033 580.51774 167.420784 582.76011658 C167.425842 585.88966047 167.41814914 589.01891524 167.40698242 592.1484375 C167.41103088 593.08252945 167.41507935 594.0166214 167.41925049 594.97901917 C167.41361084 595.82870773 167.40797119 596.6783963 167.40216064 597.55383301 C167.40102957 598.66438427 167.40102957 598.66438427 167.39987564 599.79737091 C167.14819336 601.61523437 167.14819336 601.61523437 165.14819336 603.61523438 C163.27523804 603.85574341 163.27523804 603.85574341 160.97387695 603.84228516 C160.11313568 603.84213409 159.25239441 603.84198303 158.36557007 603.84182739 C157.43532013 603.83150482 156.50507019 603.82118225 155.54663086 603.81054688 C154.59503082 603.80771698 153.64343079 603.80488708 152.66299438 603.80197144 C149.61626744 603.79075427 146.56983182 603.765647 143.52319336 603.74023438 C141.4606976 603.73020656 139.39819724 603.72108036 137.33569336 603.71289062 C132.27308069 603.69080992 127.21068646 603.65626967 122.14819336 603.61523438 C122.15263458 604.87612885 122.15707581 606.13702332 122.16165161 607.43612671 C122.20212779 619.29670611 122.23214407 631.15727158 122.2518177 643.01790428 C122.26227197 649.11613205 122.27646108 655.21430423 122.29907227 661.3125 C122.32074213 667.19337132 122.33274959 673.07418905 122.33794785 678.9550972 C122.34165416 681.20306874 122.34889124 683.45103722 122.35965347 685.69898605 C122.37409056 688.83828916 122.37617457 691.97736846 122.37524414 695.11669922 C122.38243469 696.05393326 122.38962524 696.9911673 122.39703369 697.95680237 C122.39428436 698.80938126 122.39153503 699.66196014 122.38870239 700.54037476 C122.39146777 701.65482247 122.39146777 701.65482247 122.39428902 702.79178429 C122.14819336 704.61523438 122.14819336 704.61523438 120.14819336 706.61523438 C117.4785685 706.81371045 114.91268044 706.88797256 112.24194336 706.87402344 C111.01737427 706.8792804 111.01737427 706.8792804 109.76806641 706.88464355 C107.06135633 706.89346785 104.35490624 706.8876093 101.64819336 706.88085938 C99.77254181 706.88220583 97.89689059 706.88414619 96.02124023 706.88665771 C92.0869617 706.88960992 88.15277387 706.88530823 84.21850586 706.87597656 C79.16744772 706.86458197 74.1166021 706.87114093 69.06555176 706.88312149 C65.19147125 706.89033748 61.31744139 706.88805336 57.44335938 706.88286591 C55.58056615 706.88152869 53.71776838 706.88317964 51.85498047 706.88782501 C49.25467694 706.89288598 46.65472091 706.88518618 44.05444336 706.87402344 C43.27931396 706.8780719 42.50418457 706.88212036 41.70556641 706.8862915 C36.3767218 706.84376282 36.3767218 706.84376282 34.14819336 704.61523438 C33.9020977 702.79178429 33.9020977 702.79178429 33.90768433 700.54037476 C33.90356033 699.26150642 33.90356033 699.26150642 33.89935303 697.95680237 C33.91013885 696.55095131 33.91013885 696.55095131 33.92114258 695.11669922 C33.92085052 694.13129654 33.92055847 693.14589386 33.92025757 692.13063049 C33.92165472 688.8623891 33.93723409 685.59437361 33.95288086 682.32617188 C33.95660962 680.06458664 33.95945724 677.80299978 33.9614563 675.54141235 C33.96910355 669.58027713 33.98876142 663.61923891 34.01086426 657.65814209 C34.03129919 651.5787487 34.04045298 645.49933969 34.05053711 639.41992188 C34.07200627 627.48498335 34.10615536 615.55011692 34.14819336 603.61523438 C32.95952478 603.61799975 31.77085621 603.62076513 30.54616737 603.62361431 C2.35286975 603.68853628 -25.84042415 603.73803004 -54.03378042 603.76843036 C-57.50111742 603.77218265 -60.96845425 603.7760656 -64.43579102 603.7800293 C-65.4712521 603.78120969 -65.4712521 603.78120969 -66.5276316 603.78241394 C-77.71662897 603.79548096 -88.90558028 603.81914189 -100.0945503 603.84669276 C-111.56870663 603.87471099 -123.0428255 603.89117835 -134.51701701 603.89749986 C-140.96475347 603.90142095 -147.41238532 603.91067688 -153.86008835 603.93242455 C-159.92238402 603.95270761 -165.98453146 603.95908481 -172.04685783 603.95455742 C-174.27780524 603.9553863 -176.50875734 603.96140037 -178.73967552 603.9728508 C-181.77385041 603.98766692 -184.80745764 603.98422795 -187.84164429 603.97599792 C-188.73462766 603.98473645 -189.62761103 603.99347497 -190.54765451 604.0024783 C-192.99809837 603.98437786 -192.99809837 603.98437786 -196.85180664 603.61523438 C-199.35580423 599.85923799 -199.31582152 596.69859149 -199.50732422 592.3293457 C-199.5502979 591.47740222 -199.59327158 590.62545874 -199.63754749 589.74769878 C-202.18600308 536.14265617 -200.12756994 491.43062403 -177.60682678 442.42121887 C-172.97349614 432.33133969 -168.83937547 422.13677256 -164.99633789 411.72070312 C-164.58339761 410.60223716 -164.58339761 410.60223716 -164.1621151 409.46117592 C-162.77256693 405.69051867 -161.39064967 401.9171213 -160.01211548 398.14242554 C-157.53350253 391.36672856 -154.98779819 384.61619261 -152.44725609 377.86353493 C-151.03770695 374.11512618 -149.63247513 370.36509969 -148.22680664 366.61523438 C-147.66432733 365.11522662 -147.10182733 363.61522661 -146.53930664 362.11523438 C-146.12165039 361.00148438 -146.12165039 361.00148438 -145.69555664 359.86523438 C-117.84466553 285.59619141 -89.99377441 211.32714844 -62.1428833 137.05810547 C-61.86014651 136.30413892 -61.57740973 135.55017237 -61.28610516 134.77335835 C-60.71430267 133.24855531 -60.14249544 131.72375406 -59.57068348 130.19895458 C-58.14063382 126.38555187 -56.71066638 122.57211836 -55.28086853 118.75862122 C-52.73864697 111.97835322 -50.1959111 105.19828118 -47.64996243 98.41941166 C-46.26371303 94.72832779 -44.87794497 91.03706335 -43.49243164 87.34570312 C-43.0832207 86.25550653 -43.0832207 86.25550653 -42.66574287 85.14328575 C-38.98090418 75.32355841 -35.31816732 65.49585199 -31.67378235 55.66104126 C-29.7229994 50.39665996 -27.7663877 45.13445097 -25.80846691 39.87272072 C-24.23379486 35.63911988 -22.667299 31.40261394 -21.10700798 27.16369343 C-20.38023544 25.19376253 -19.64920271 23.22547814 -18.91619873 21.25785828 C-18.0285659 18.87512938 -17.14768027 16.48987125 -16.27496338 14.10163879 C-15.68373688 12.52439278 -15.68373688 12.52439278 -15.08056641 10.9152832 C-14.74452896 10.00659988 -14.40849152 9.09791656 -14.06227112 8.16169739 C-10.56166125 0.79743869 -7.72611807 -0.12182192 0 0 Z " fill="#000000" transform="translate(1830.851806640625,256.384765625)"/>
<path d="M0 0 C0.88465439 -0.00335861 1.76930878 -0.00671722 2.68077087 -0.01017761 C5.61466869 -0.01970238 8.54850955 -0.02163137 11.48242188 -0.02270508 C13.51501489 -0.02591618 15.54760767 -0.02928014 17.5802002 -0.03279114 C21.8439996 -0.03878594 26.10777871 -0.04063064 30.37158203 -0.04003906 C35.8463592 -0.03993733 41.32100701 -0.05359991 46.79575348 -0.07081127 C50.99408572 -0.08190551 55.19238641 -0.08395908 59.39073181 -0.08342934 C61.40983019 -0.08461295 63.42892929 -0.08905593 65.44801331 -0.0967617 C68.2662169 -0.10651139 71.084136 -0.10370373 73.90234375 -0.09765625 C74.74292831 -0.10327576 75.58351288 -0.10889526 76.4495697 -0.11468506 C82.2228554 -0.0830528 82.2228554 -0.0830528 84.45117188 2.14526367 C84.7005142 3.96775312 84.7005142 3.96775312 84.69956887 6.22805417 C84.70406345 7.08973224 84.70855804 7.95141031 84.71318883 8.83919984 C84.70530779 10.27041666 84.70530779 10.27041666 84.69726753 11.73054695 C84.69957522 12.7425021 84.70188291 13.75445726 84.70426053 14.79707772 C84.70960324 18.22750447 84.70054117 21.65774784 84.69168091 25.08816528 C84.6925521 27.55652246 84.69430149 30.02487946 84.69685924 32.49323547 C84.70041266 37.88023562 84.69770393 43.26717963 84.68958282 48.65417099 C84.67754039 56.66448966 84.67690864 64.67478039 84.6786668 72.68510646 C84.68129817 86.15804128 84.67459827 99.63095653 84.66263199 113.10388565 C84.65080935 126.44921083 84.6431024 139.79452787 84.64092636 153.13985825 C84.64078888 153.96875614 84.6406514 154.79765404 84.64050976 155.65167005 C84.63983312 159.86099898 84.63923034 164.07032792 84.63865601 168.27965687 C84.63445203 198.11621235 84.62096853 227.95275717 84.60205078 257.78930664 C84.5836904 286.78019148 84.56951902 315.7710734 84.56103516 344.76196289 C84.56064058 346.10173647 84.56064058 346.10173647 84.56023803 347.46857617 C84.55760105 356.43805007 84.55504941 365.40752398 84.55256031 374.37699792 C84.5474875 392.64984081 84.54184499 410.92268351 84.53585815 429.19552612 C84.53544628 430.45583782 84.53544628 430.45583782 84.53502609 431.74161035 C84.516616 487.87616593 84.48488307 544.01071546 84.45117188 600.14526367 C85.03653603 600.14450423 85.62190018 600.14374479 86.22500265 600.14296234 C120.88783947 600.0982448 155.55067056 600.06391011 190.21353009 600.04313301 C194.37184563 600.04063148 198.53016111 600.03804285 202.68847656 600.03540039 C203.51635223 600.03487577 204.3442279 600.03435115 205.19719072 600.03381063 C218.61712431 600.02509858 232.03704084 600.00932422 245.4569643 599.99095808 C259.2182639 599.97228126 272.97955454 599.96115166 286.7408663 599.95708668 C295.23819058 599.95433701 303.73546663 599.94564007 312.23277606 599.92943074 C318.05292321 599.9188912 323.87304528 599.91565614 329.69320129 599.91826092 C333.05544347 599.91954697 336.4175327 599.91644145 339.7797718 599.90685272 C343.41814049 599.89698068 347.05629861 599.89926634 350.69467163 599.90475464 C351.76663863 599.89892896 352.83860562 599.89310327 353.94305646 599.88710105 C354.91193914 599.89108315 355.88082181 599.89506525 356.87906456 599.89916801 C357.71976537 599.89840857 358.56046618 599.89764913 359.42664278 599.89686668 C361.45117188 600.14526367 361.45117188 600.14526367 363.45117188 602.14526367 C363.70564747 604.05683136 363.70564747 604.05683136 363.71186829 606.43444824 C363.71895309 607.33462173 363.7260379 608.23479523 363.7333374 609.1622467 C363.73085999 610.15244308 363.72838257 611.14263947 363.72583008 612.1628418 C363.73349648 613.72390907 363.73349648 613.72390907 363.74131775 615.31651306 C363.75526212 618.76990446 363.75425348 622.2230974 363.75195312 625.67651367 C363.7558371 628.06783117 363.76017114 630.45914797 363.76493835 632.85046387 C363.77241079 637.86753575 363.77210165 642.88453728 363.7668457 647.90161133 C363.76104663 654.3449932 363.77798794 660.78808804 363.80119038 667.23142242 C363.81588927 672.17093604 363.81680472 677.11037989 363.81368065 682.0499115 C363.8141957 684.42627023 363.81946754 686.80263269 363.82949257 689.17897034 C363.8417666 692.49540112 363.83511985 695.81126451 363.82348633 699.12768555 C363.83113007 700.11788193 363.8387738 701.10807831 363.84664917 702.12828064 C363.83963486 703.02845413 363.83262054 703.92862762 363.82539368 704.8560791 C363.82564529 706.03299946 363.82564529 706.03299946 363.82590199 707.23369598 C363.64041058 708.17992199 363.64041058 708.17992199 363.45117188 709.14526367 C359.92551599 711.49570093 358.49905257 711.39573438 354.32480526 711.39694595 C352.38963619 711.4047692 352.38963619 711.4047692 350.41537279 711.41275048 C348.9753145 711.40842595 347.53525676 711.40391262 346.09519958 711.39923096 C344.57198295 711.40153392 343.04876743 711.40470933 341.52555424 711.40868545 C337.32898276 711.41706467 333.13250178 711.41289406 328.93592989 711.40671301 C324.41442338 711.4022023 319.89293282 711.40916537 315.37142944 711.41467285 C306.50978661 711.42358309 297.64817759 711.42163766 288.78653341 711.41584757 C281.58743833 711.41133777 274.38835275 711.41071521 267.18925667 711.4128952 C266.16613229 711.41320167 265.1430079 711.41350813 264.08887975 711.41382389 C262.01068281 711.41446331 259.93248588 711.41511174 257.85428894 711.41576907 C238.35071462 711.42147707 218.84715907 711.41490696 199.34358782 711.40416834 C182.5927373 711.39523107 165.84191448 711.39678541 149.09106445 711.40600586 C129.65753776 711.4166979 110.22402754 711.42092911 90.79049832 711.41478133 C88.72008932 711.41414421 86.64968032 711.41351546 84.57927132 711.4128952 C83.56048102 711.41258665 82.54169071 711.4122781 81.49202798 711.4119602 C74.29742522 711.41023015 67.10283288 711.41315498 59.90823174 711.41785431 C51.14646852 711.42345126 42.38474116 711.42197172 33.62298208 711.41129282 C29.14887966 711.40602027 24.67483713 711.40400616 20.20073509 711.41059113 C16.11065661 711.41652006 12.02069391 711.41332648 7.93062604 711.40263602 C6.44549597 711.40038895 4.96035625 711.40156726 3.4752323 711.4063876 C1.46739387 711.41240815 -0.54047168 711.40507938 -2.54830265 711.39694595 C-3.66685141 711.39662125 -4.78540016 711.39629654 -5.93784434 711.395962 C-8.54882812 711.14526367 -8.54882812 711.14526367 -10.54882812 709.14526367 C-10.79817045 707.03339934 -10.79817045 707.03339934 -10.79722512 704.35714996 C-10.8017197 703.33779599 -10.80621429 702.31844203 -10.81084508 701.26819855 C-10.80559105 700.137576 -10.80033702 699.00695346 -10.79492378 697.84206963 C-10.79723147 696.64439337 -10.79953916 695.44671711 -10.80191678 694.21274763 C-10.80632433 690.86300683 -10.80167872 687.51349208 -10.79336051 684.16377263 C-10.78651907 680.52920575 -10.79122853 676.89465164 -10.79451549 673.26008236 C-10.79867274 666.88172808 -10.79535884 660.50341101 -10.78723907 654.12506104 C-10.7751986 644.64060538 -10.77456471 635.15617332 -10.77632305 625.67171141 C-10.77895466 609.71949722 -10.77225361 593.76729956 -10.76028824 577.81509018 C-10.74846623 562.01360874 -10.74075878 546.21213418 -10.73858261 530.41064835 C-10.73844513 529.42925231 -10.73830765 528.44785626 -10.73816601 527.43672095 C-10.73748937 522.45298707 -10.73688659 517.46925319 -10.73631226 512.4855193 C-10.7321081 477.15839164 -10.71862412 441.83127298 -10.69970703 406.50415039 C-10.68134711 372.177979 -10.66717551 337.85181008 -10.65869141 303.52563477 C-10.65842835 302.46810623 -10.6581653 301.4105777 -10.65789428 300.32100285 C-10.65525731 289.70115496 -10.65270567 279.08130705 -10.65021656 268.46145913 C-10.64514373 246.82636691 -10.63950122 225.19127485 -10.6335144 203.55618286 C-10.63323982 202.56137128 -10.63296524 201.56655971 -10.63268234 200.54160232 C-10.61427177 134.07615236 -10.58258029 67.61070739 -10.54882812 1.14526367 C-7.26171974 -0.49829052 -3.61305163 -0.00194791 0 0 Z " fill="#000000" transform="translate(628.548828125,260.854736328125)"/>
<path d="M0 0 C4.52350834 3.45180119 8.77595993 7.1915326 13 11 C13.66773438 11.58394531 14.33546875 12.16789062 15.0234375 12.76953125 C45.25398319 40.80020155 52.48119729 88.12512375 55 127 C55.12612923 128.86687721 55.12612923 128.86687721 55.25480652 130.77146912 C56.26069534 147.10459621 56.16463853 163.45639448 56.16725707 179.81300211 C56.16797665 182.34813428 56.17012783 184.88326131 56.17275429 187.41839218 C56.1819633 196.32759688 56.18609529 205.23678679 56.18530273 214.14599609 C56.18470497 222.34367795 56.19520899 230.54129337 56.2110464 238.73895848 C56.22429778 245.86170566 56.22947932 252.98443162 56.22884732 260.10719097 C56.22859718 264.32332706 56.23116966 268.53940411 56.24202538 272.7555275 C56.2825266 289.690107 56.08755025 306.56337142 55.0871582 323.47216797 C55.04667307 324.16517636 55.00618794 324.85818474 54.96447599 325.57219338 C54.23178779 337.7986722 52.84899199 349.89526576 51 362 C47.97022571 360.64768813 45.91527387 359.14519457 43.609375 356.76953125 C42.67508667 355.81784058 42.67508667 355.81784058 41.72192383 354.84692383 C41.07118896 354.17556396 40.4204541 353.5042041 39.75 352.8125 C35.30508488 348.29114062 30.86943459 343.88991544 26.01953125 339.80078125 C22.72041397 336.85901517 19.64647634 333.68895884 16.56176758 330.5246582 C13.85271086 327.7677269 11.07275612 325.17151883 8.13671875 322.65625 C5.23909689 320.15347649 2.53730344 317.55184749 -0.10546875 314.78125 C-0.77900391 314.07742188 -1.45253906 313.37359375 -2.14648438 312.6484375 C-3.52835415 311.19383774 -4.90051867 309.72996666 -6.26367188 308.2578125 C-6.93333984 307.56429688 -7.60300781 306.87078125 -8.29296875 306.15625 C-9.18278442 305.20975586 -9.18278442 305.20975586 -10.09057617 304.24414062 C-11.97904187 302.75101948 -11.97904187 302.75101948 -14.56567383 303.10375977 C-17.29183358 304.1074437 -18.07176968 304.80006597 -19.65625 307.18359375 C-20.11443115 307.85447021 -20.5726123 308.52534668 -21.04467773 309.21655273 C-21.52493408 309.94946533 -22.00519043 310.68237793 -22.5 311.4375 C-23.56258575 313.00082743 -24.62642931 314.56330053 -25.69140625 316.125 C-26.23684082 316.93324219 -26.78227539 317.74148438 -27.34423828 318.57421875 C-29.96691045 322.41657656 -32.70114165 326.17567947 -35.4375 329.9375 C-36.52884025 331.44517179 -37.61998505 332.95298507 -38.7109375 334.4609375 C-40.35555908 336.73096479 -42.00053349 339.00073613 -43.64550781 341.27050781 C-60.75225527 360.80361627 -60.75225527 360.80361627 -69 383 C-67.3240359 385.51489797 -67.3240359 385.51489797 -64.90625 387.71484375 C-63.606875 388.99198242 -63.606875 388.99198242 -62.28125 390.29492188 C-61.3634375 391.16697266 -60.445625 392.03902344 -59.5 392.9375 C-58.613125 393.80568359 -57.72625 394.67386719 -56.8125 395.56835938 C-52.97480654 399.301645 -49.0970282 402.9574907 -45.03125 406.44140625 C-39.22771202 411.44761792 -33.94073041 417.00301172 -28.56347656 422.45703125 C-23.44859215 427.63825205 -18.30937105 432.71841297 -12.7734375 437.45361328 C-10.05529112 439.82375909 -7.52568641 442.36556863 -5 444.9375 C-4.51144531 445.43056641 -4.02289063 445.92363281 -3.51953125 446.43164062 C-2.34396475 447.61873229 -1.17161174 448.80900498 0 450 C-3.89272058 454.31932009 -7.91172861 456.91354828 -13.0625 459.5625 C-14.19196045 460.14946655 -14.19196045 460.14946655 -15.34423828 460.74829102 C-36.27423638 471.39160741 -62.67106023 474.00684357 -85.30078125 467.2421875 C-86.52152344 466.83226562 -87.74226563 466.42234375 -89 466 C-90.75376953 465.41605469 -90.75376953 465.41605469 -92.54296875 464.8203125 C-121.49789342 453.7618215 -141.79097552 427.82440434 -154.125 400.3125 C-163.34110361 377.84824746 -167.40341056 355.13615095 -169 331 C-169.07879395 329.89301758 -169.07879395 329.89301758 -169.15917969 328.76367188 C-171.40422493 296.97142041 -171.16104386 265.03002938 -171.13037109 233.18066406 C-171.12467434 227.20090635 -171.12806251 221.22119315 -171.13381004 215.24143696 C-171.26354145 56.38363313 -171.26354145 56.38363313 -128 12 C-92.47172775 -22.6947644 -41.42747726 -28.35089956 0 0 Z " fill="#FEFEFE" transform="translate(345,386)"/>
<path d="M0 0 C35.1140625 -0.0928125 35.1140625 -0.0928125 70.9375 -0.1875 C78.30054443 -0.21481201 85.66358887 -0.24212402 93.24975586 -0.27026367 C102.31359863 -0.28381348 102.31359863 -0.28381348 106.57081604 -0.28633118 C109.51347283 -0.28910081 112.45596353 -0.30024051 115.39857483 -0.31672668 C144.09162671 -0.47025644 172.41298084 0.36135362 194.5625 21.375 C214.35728628 42.69246215 223.66735699 71.05987256 223.4375 99.75 C223.43479095 100.54270294 223.43208191 101.33540588 223.42929077 102.15213013 C223.36856568 113.860843 222.76329492 124.82080037 219 136 C218.62617188 137.14082031 218.25234375 138.28164063 217.8671875 139.45703125 C216.70218933 142.70899633 215.40494396 145.84476273 214 149 C213.49726563 150.13953125 212.99453125 151.2790625 212.4765625 152.453125 C203.17070913 172.28813641 188.14182678 187.69578409 167.30737305 195.23339844 C155.15341568 199.40373399 143.0026315 200.29721689 130.21362305 200.22705078 C128.76025561 200.22643639 127.30688757 200.22670802 125.85352039 200.2277813 C122.00263893 200.22822814 118.15188475 200.21673607 114.30103302 200.20256042 C110.67191722 200.19107071 107.04283055 200.19062881 103.41369629 200.18920898 C92.83828103 200.17876329 82.26288885 200.15084076 71.6875 200.125 C36.2021875 200.063125 36.2021875 200.063125 0 200 C0 134 0 68 0 0 Z " fill="#FDFDFD" transform="translate(2155,659)"/>
<path d="M0 0 C32.855625 -0.0928125 32.855625 -0.0928125 66.375 -0.1875 C73.25907715 -0.21481201 80.1431543 -0.24212402 87.23583984 -0.27026367 C95.72387695 -0.28381348 95.72387695 -0.28381348 99.71328735 -0.28633118 C102.4651685 -0.29090031 105.21661773 -0.30021391 107.96841431 -0.31672668 C133.58506748 -0.46341834 158.60762192 0.0498429 180 16 C180.75410156 16.55945313 181.50820312 17.11890625 182.28515625 17.6953125 C200.56289174 32.58828216 211.09889002 57.03605439 214 80 C214.29241937 84.8993314 214.33419389 89.78034158 214.3125 94.6875 C214.30926727 95.68103485 214.30926727 95.68103485 214.30596924 96.69464111 C214.1654593 123.61001078 206.05250292 147.74355937 187.5 167.6875 C186.675 168.450625 185.85 169.21375 185 170 C184.21302734 170.79470703 184.21302734 170.79470703 183.41015625 171.60546875 C167.33347712 187.00237287 143.35054748 190.35200316 122.03979492 190.22705078 C120.67653827 190.22643623 119.31328098 190.22670829 117.9500246 190.2277813 C114.34154826 190.2282277 110.73320805 190.21674523 107.12476349 190.20256042 C103.72269828 190.19106111 100.32066404 190.1906283 96.9185791 190.18920898 C87.00820179 190.17876795 77.09784911 190.15084543 67.1875 190.125 C33.9296875 190.063125 33.9296875 190.063125 0 190 C0 127.3 0 64.6 0 0 Z " fill="#FDFDFD" transform="translate(2155,364)"/>
<path d="M0 0 C0.77512939 0.00404846 1.55025879 0.00809692 2.34887695 0.01226807 C3.16525635 0.00876343 3.98163574 0.00525879 4.82275391 0.00164795 C7.52946399 -0.00717635 10.23591407 -0.0013178 12.94262695 0.00543213 C14.81827851 0.00408568 16.69392972 0.00214532 18.56958008 -0.00036621 C22.50385861 -0.00331842 26.43804644 0.00098327 30.37231445 0.01031494 C35.4233726 0.02170953 40.47421822 0.01515057 45.52526855 0.00317001 C49.39934907 -0.00404598 53.27337893 -0.00176186 57.14746094 0.0034256 C59.01025416 0.00476282 60.87305193 0.00311186 62.73583984 -0.00153351 C65.33614337 -0.00659448 67.9360994 0.00110532 70.53637695 0.01226807 C71.31150635 0.0082196 72.08663574 0.00417114 72.88525391 0 C78.21409851 0.04252869 78.21409851 0.04252869 80.44262695 2.27105713 C80.69430923 4.18262482 80.69430923 4.18262482 80.69659424 6.5602417 C80.70223389 7.46041519 80.70787354 8.36058868 80.71368408 9.28804016 C80.70963562 10.27823654 80.70558716 11.26843292 80.70141602 12.28863525 C80.70492065 13.32934677 80.70842529 14.37005829 80.71203613 15.44230652 C80.72086653 18.89570714 80.71499962 22.34890429 80.70825195 25.80230713 C80.70959823 28.19362426 80.71153844 30.58494113 80.71405029 32.97625732 C80.71700333 37.99333293 80.7126981 43.01033743 80.70336914 48.02740479 C80.69197456 54.47073272 80.69853307 60.91389406 80.71051407 67.35721588 C80.71772779 72.2967251 80.71544698 77.23619457 80.71025848 82.17570496 C80.70892064 84.5520581 80.7105744 86.92841481 80.71521759 89.30476379 C80.72027478 92.62109999 80.71258384 95.93716323 80.70141602 99.253479 C80.70546448 100.24367538 80.70951294 101.23387177 80.71368408 102.2540741 C80.70804443 103.15424759 80.70240479 104.05442108 80.69659424 104.98187256 C80.69584019 105.76648613 80.69508614 106.5510997 80.69430923 107.35948944 C80.44262695 109.27105713 80.44262695 109.27105713 78.44262695 111.27105713 C75.77300209 111.46953321 73.20711403 111.54379532 70.53637695 111.52984619 C69.71999756 111.53335083 68.90361816 111.53685547 68.0625 111.54046631 C65.35578992 111.5492906 62.64933983 111.54343205 59.94262695 111.53668213 C58.0669754 111.53802858 56.19132418 111.53996894 54.31567383 111.54248047 C50.38139529 111.54543268 46.44720746 111.54113099 42.51293945 111.53179932 C37.46188131 111.52040473 32.41103569 111.52696368 27.35998535 111.53894424 C23.48590484 111.54616024 19.61187498 111.54387612 15.73779297 111.53868866 C13.87499975 111.53735144 12.01220197 111.5390024 10.14941406 111.54364777 C7.54911053 111.54870873 4.9491545 111.54100893 2.34887695 111.52984619 C1.57374756 111.53389465 0.79861816 111.53794312 0 111.54211426 C-5.32884461 111.49958557 -5.32884461 111.49958557 -7.55737305 109.27105713 C-7.80905533 107.35948944 -7.80905533 107.35948944 -7.81134033 104.98187256 C-7.81697998 104.08169907 -7.82261963 103.18152557 -7.82843018 102.2540741 C-7.82438171 101.26387772 -7.82033325 100.27368134 -7.81616211 99.253479 C-7.81966675 98.21276749 -7.82317139 97.17205597 -7.82678223 96.09980774 C-7.83561263 92.64640712 -7.82974572 89.19320997 -7.82299805 85.73980713 C-7.82434432 83.34849 -7.82628453 80.95717313 -7.82879639 78.56585693 C-7.83174943 73.54878133 -7.82744419 68.53177683 -7.81811523 63.51470947 C-7.80672066 57.07138154 -7.81327916 50.6282202 -7.82526016 44.18489838 C-7.83247388 39.24538916 -7.83019307 34.30591969 -7.82500458 29.3664093 C-7.82366673 26.99005616 -7.82532049 24.61369945 -7.82996368 22.23735046 C-7.83502087 18.92101427 -7.82732994 15.60495102 -7.81616211 12.28863525 C-7.82021057 11.29843887 -7.82425903 10.30824249 -7.82843018 9.28804016 C-7.82279053 8.38786667 -7.81715088 7.48769318 -7.81134033 6.5602417 C-7.81058628 5.77562813 -7.80983223 4.99101456 -7.80905533 4.18262482 C-7.20127541 -0.43356209 -3.86326017 0.03083208 0 0 Z " fill="#010101" transform="translate(1076.557373046875,860.7289428710938)"/>
</svg>
