<?xml version="1.0" encoding="UTF-8"?>
<!DOCTYPE svg PUBLIC "-//W3C//DTD SVG 1.1//EN" "http://www.w3.org/Graphics/SVG/1.1/DTD/svg11.dtd">
<svg xmlns="http://www.w3.org/2000/svg" version="1.1" width="2560px" height="1197px" style="shape-rendering:geometricPrecision; text-rendering:geometricPrecision; image-rendering:optimizeQuality; fill-rule:evenodd; clip-rule:evenodd" xmlns:xlink="http://www.w3.org/1999/xlink">
<g><path style="opacity:0.99" fill="#000000" d="M -0.5,-0.5 C 852.833,-0.5 1706.17,-0.5 2559.5,-0.5C 2559.5,398.5 2559.5,797.5 2559.5,1196.5C 1706.17,1196.5 852.833,1196.5 -0.5,1196.5C -0.5,797.5 -0.5,398.5 -0.5,-0.5 Z"/></g>
<g><path style="opacity:1" fill="#fefefe" d="M 56.5,41.5 C 872.554,41.0008 1688.55,41.5008 2504.5,43C 2510.39,45.8924 2514.56,50.3924 2517,56.5C 2518,417.888 2517.66,779.221 2516,1140.5C 2513.01,1146.82 2508.18,1150.99 2501.5,1153C 1686.5,1153.67 871.5,1153.67 56.5,1153C 49.2417,1150.08 44.4084,1144.91 42,1137.5C 41.3333,777.167 41.3333,416.833 42,56.5C 45.0214,49.6468 49.8548,44.6468 56.5,41.5 Z"/></g>
<g><path style="opacity:1" fill="#000000" d="M 341.5,245.5 C 393.39,241.14 441.724,251.974 486.5,278C 523.847,303.346 554.347,335.179 578,373.5C 594.158,403.462 603.158,435.462 605,469.5C 607.312,541.483 607.979,613.483 607,685.5C 606.813,725.656 602.48,765.323 594,804.5C 591.657,812.365 588.823,820.031 585.5,827.5C 607.752,847.314 630.085,867.147 652.5,887C 658.167,891.333 663.833,895.667 669.5,900C 671.007,903.457 670.507,906.624 668,909.5C 649.333,932.833 630.667,956.167 612,979.5C 609.859,982.491 607.025,983.658 603.5,983C 576.426,960.048 549.259,937.214 522,914.5C 450.491,971.667 370.658,987.167 282.5,961C 256.28,951.567 232.947,937.567 212.5,919C 173.265,885.713 146.765,844.213 133,794.5C 129.348,776.01 127.014,757.344 126,738.5C 123.581,670.854 122.915,603.187 124,535.5C 125.039,505.798 126.706,476.132 129,446.5C 138.456,391.079 163.956,344.579 205.5,307C 243.762,271.039 289.095,250.539 341.5,245.5 Z"/></g>
<g><path style="opacity:1" fill="#000000" d="M 2345.5,722.5 C 2346.5,708.01 2346.83,693.343 2346.5,678.5C 2300.17,678.5 2253.83,678.5 2207.5,678.5C 2205.58,677.884 2204.42,676.55 2204,674.5C 2203.33,639.833 2203.33,605.167 2204,570.5C 2204.5,569.333 2205.33,568.5 2206.5,568C 2291.91,567.006 2377.25,567.339 2462.5,569C 2463.66,622.096 2463.83,675.263 2463,728.5C 2459.92,799.815 2431.76,858.982 2378.5,906C 2323.7,952.932 2260.04,973.932 2187.5,969C 2136.54,966.354 2091.2,949.354 2051.5,918C 1983.83,864.14 1951.67,793.64 1955,706.5C 1952.79,633.487 1953.13,560.487 1956,487.5C 1958.04,413.952 1986.88,353.452 2042.5,306C 2089.98,265.127 2145.32,245.294 2208.5,246.5C 2289.03,246.521 2354.53,277.521 2405,339.5C 2434.18,375.527 2452.18,416.527 2459,462.5C 2458.5,463 2458,463.5 2457.5,464C 2417.83,464.667 2378.17,464.667 2338.5,464C 2324.85,424.374 2299.52,394.707 2262.5,375C 2201.16,352.263 2148.33,364.763 2104,412.5C 2082.09,443.566 2071.43,478.233 2072,516.5C 2070.07,577.498 2070.07,638.498 2072,699.5C 2070.96,747.076 2087.13,787.576 2120.5,821C 2153.05,848.14 2190.38,858.14 2232.5,851C 2289.51,839.326 2326.01,805.493 2342,749.5C 2344.26,740.633 2345.42,731.633 2345.5,722.5 Z"/></g>
<g><path style="opacity:1" fill="#000000" d="M 742.5,249.5 C 778.502,249.333 814.502,249.5 850.5,250C 851.667,250.5 852.5,251.333 853,252.5C 853.5,452.833 853.667,653.166 853.5,853.5C 960.501,853.333 1067.5,853.5 1174.5,854C 1175.93,854.465 1177.1,855.299 1178,856.5C 1178.67,892.167 1178.67,927.833 1178,963.5C 1177.63,964.416 1177.13,965.25 1176.5,966C 1031.83,966.667 887.167,966.667 742.5,966C 742,965.5 741.5,965 741,964.5C 740.333,726.833 740.333,489.167 741,251.5C 741.717,250.956 742.217,250.289 742.5,249.5 Z"/></g>
<g><path style="opacity:1" fill="#000000" d="M 1655.5,249.5 C 1728.93,246.143 1788.09,273.143 1833,330.5C 1856.79,368.298 1868.45,409.631 1868,454.5C 1868.67,557.5 1868.67,660.5 1868,763.5C 1867.56,811.477 1853.89,855.143 1827,894.5C 1793.55,934.821 1750.72,958.988 1698.5,967C 1636.82,973.88 1582.48,957.213 1535.5,917C 1503.46,885.41 1484.29,847.244 1478,802.5C 1478.75,801.874 1479.58,801.374 1480.5,801C 1515.17,800.333 1549.83,800.333 1584.5,801C 1589.27,810.047 1594.44,818.881 1600,827.5C 1618.24,849.364 1641.74,860.031 1670.5,859.5C 1711.91,859.912 1739.74,840.912 1754,802.5C 1756.9,792.346 1758.9,782.012 1760,771.5C 1760.83,747.493 1760.67,723.493 1759.5,699.5C 1713,714.691 1665.33,720.857 1616.5,718C 1563.46,710.601 1523.62,683.768 1497,637.5C 1481.42,604.281 1473.76,569.281 1474,532.5C 1473.16,499.486 1473.49,466.486 1475,433.5C 1484.71,342.46 1533.21,283.293 1620.5,256C 1632.25,253.481 1643.92,251.315 1655.5,249.5 Z"/></g>
<g><path style="opacity:1" fill="#fefefe" d="M 1657.5,360.5 C 1719.05,357.211 1753.21,386.211 1760,447.5C 1760.67,476.167 1760.67,504.833 1760,533.5C 1753.1,596.058 1718.27,624.558 1655.5,619C 1617.36,613.531 1593.86,592.031 1585,554.5C 1583.74,547.537 1582.74,540.537 1582,533.5C 1581.33,504.833 1581.33,476.167 1582,447.5C 1582.86,425.254 1589.86,405.254 1603,387.5C 1618.02,372.107 1636.18,363.107 1657.5,360.5 Z"/></g>
<g><path style="opacity:1" fill="#fefefe" d="M 354.5,364.5 C 384.727,362.979 412.727,370.145 438.5,386C 452.85,396.347 464.35,409.18 473,424.5C 491.107,459.598 499.44,496.931 498,536.5C 498.667,583.167 498.667,629.833 498,676.5C 496.502,699.98 493.836,723.314 490,746.5C 466.5,727 443,707.5 419.5,688C 416.135,685.843 412.968,686.009 410,688.5C 390.714,713.455 371.047,738.122 351,762.5C 350.186,764.902 350.353,767.235 351.5,769.5C 378.314,792.48 404.981,815.647 431.5,839C 406.088,854.812 378.421,860.812 348.5,857C 311.141,850.073 282.308,830.573 262,798.5C 251.007,779.522 244.007,759.188 241,737.5C 237.668,691.404 236.168,645.237 236.5,599C 235.855,557.705 237.688,516.539 242,475.5C 246.967,452.921 255.634,431.921 268,412.5C 282.735,396.062 299.901,382.895 319.5,373C 330.882,368.403 342.549,365.57 354.5,364.5 Z"/></g>
<g><path style="opacity:1" fill="#b8b8b8" d="M 2207.5,678.5 C 2253.83,678.5 2300.17,678.5 2346.5,678.5C 2346.83,693.343 2346.5,708.01 2345.5,722.5C 2345.5,708.167 2345.5,693.833 2345.5,679.5C 2299.33,679.832 2253.33,679.499 2207.5,678.5 Z"/></g>
<g><path style="opacity:1" fill="#000000" d="M 1263.5,853.5 C 1297.88,853.174 1332.21,853.507 1366.5,854.5C 1367.67,890.829 1367.83,927.162 1367,963.5C 1366.63,964.416 1366.13,965.25 1365.5,966C 1331.5,966.667 1297.5,966.667 1263.5,966C 1263,965.5 1262.5,965 1262,964.5C 1260.35,928.585 1260.01,892.585 1261,856.5C 1262.04,855.627 1262.88,854.627 1263.5,853.5 Z"/></g>
</svg>
