<?xml version="1.0" encoding="UTF-8" standalone="no"?>
<svg
   xmlns:dc="http://purl.org/dc/elements/1.1/"
   xmlns:cc="http://creativecommons.org/ns#"
   xmlns:rdf="http://www.w3.org/1999/02/22-rdf-syntax-ns#"
   xmlns:svg="http://www.w3.org/2000/svg"
   xmlns="http://www.w3.org/2000/svg"
   xmlns:sodipodi="http://sodipodi.sourceforge.net/DTD/sodipodi-0.dtd"
   xmlns:inkscape="http://www.inkscape.org/namespaces/inkscape"
   width="600mm"
   height="599.99976mm"
   viewBox="0 0 600 599.99976"
   version="1.1"
   id="svg848"
   inkscape:version="1.0 (4035a4fb49, 2020-05-01)"
   sodipodi:docname="Vietnam_road_sign_I425.svg">
  <defs
     id="defs842" />
  <sodipodi:namedview
     id="base"
     pagecolor="#ffffff"
     bordercolor="#666666"
     borderopacity="1.0"
     inkscape:pageopacity="0.0"
     inkscape:pageshadow="2"
     inkscape:zoom="0.98980896"
     inkscape:cx="1249.2448"
     inkscape:cy="1714.5415"
     inkscape:document-units="mm"
     inkscape:current-layer="layer1"
     showgrid="false"
     inkscape:snap-global="false"
     inkscape:window-width="1920"
     inkscape:window-height="1001"
     inkscape:window-x="-9"
     inkscape:window-y="-9"
     inkscape:window-maximized="1"
     fit-margin-top="0"
     fit-margin-left="0"
     fit-margin-right="0"
     fit-margin-bottom="0"
     showguides="false"
     inkscape:document-rotation="0" />
  <metadata
     id="metadata845">
    <rdf:RDF>
      <cc:Work
         rdf:about="">
        <dc:format>image/svg+xml</dc:format>
        <dc:type
           rdf:resource="http://purl.org/dc/dcmitype/StillImage" />
        <dc:title />
      </cc:Work>
    </rdf:RDF>
  </metadata>
  <g
     inkscape:label="Layer 1"
     inkscape:groupmode="layer"
     id="layer1"
     transform="translate(719.4691,300.07617)">
    <path
       cx="150"
       cy="147"
       r="150"
       id="path8376"
       style="opacity:1;fill:#d35f5f;fill-opacity:1;fill-rule:nonzero;stroke:none;stroke-width:3.92256;stroke-linecap:butt;stroke-linejoin:miter;stroke-miterlimit:4;stroke-dasharray:none;stroke-opacity:1;paint-order:stroke fill markers"
       d=""
       inkscape:connector-curvature="0" />
    <path
       id="rect1393-3"
       style="opacity:1;fill:#0046aa;fill-opacity:1;fill-rule:nonzero;stroke:none;stroke-width:1.27163;stroke-linecap:butt;stroke-linejoin:miter;stroke-miterlimit:10;stroke-dasharray:none;stroke-opacity:1;paint-order:stroke fill markers"
       d="m -719.4691,-300.07617 h 600.00001 V 299.9236 H -719.4691 Z" />
    <path
       id="rect1395-2"
       style="opacity:1;fill:#ffffff;fill-opacity:1;fill-rule:nonzero;stroke:none;stroke-width:1.22924;stroke-linecap:butt;stroke-linejoin:miter;stroke-miterlimit:10;stroke-dasharray:none;stroke-opacity:1;paint-order:stroke fill markers"
       d="m -709.46872,-290.07579 v 579.99945 h 579.99969 v -579.99945 z m 9.99948,9.99925 h 559.99984 v 559.99983 h -559.99984 z" />
    <path
       d="m -289.70434,-230.94538 v 60.2119 h -60.21189 v 48.16956 h 60.21189 v 60.211905 h 48.16958 v -60.211905 h 60.21189 v -48.16956 h -60.21189 v -60.2119 z"
       style="display:inline;opacity:1;fill:#f00a0a;fill-opacity:1;fill-rule:nonzero;stroke:none;stroke-width:0.264584"
       id="rect2070" />
    <path
       id="rect8738"
       style="opacity:1;fill:#ffffff;fill-opacity:1;fill-rule:evenodd;stroke-width:1.14799;stroke-linecap:square;paint-order:stroke fill markers"
       d="m -1909.9258,2116.5195 c -0.98,-0.028 -1.98,0.011 -3,0.1192 v 0.01 c -5.4524,0.5963 -11.4761,3.1024 -17.7812,7.7539 l -312.3887,230.4844 c -25.2222,18.6112 -45.5254,64.0649 -45.5254,101.8906 v 173.8614 0.023 216.5 c 0,9.4402 7.5984,17.0352 17.0352,17.0352 h 74.0136 c 9.4394,0 17.0351,-7.5984 17.0352,-17.0352 v -154.787 h 1073.154 v 174.4609 h 56.887 v 0 h 0.7031 v -0.8808 l 23.8574,-29.8809 -1.0723,-214.6738 82.12504,-75.4668 v 196.6738 l 57.69922,-69.248 v -381.5996 l -0.0937,0.094 6.5e-4,-71.8769 c 1.9e-4,-20.9264 -12.02503,-24.937 -25.16016,-8.6465 L -1083.75,2423.7969 c -13.1352,16.2905 -24.0781,45.2064 -24.0781,66.1328 v 141.3828 h -1076.1156 v -12.3945 -3.375 l 293.6253,-287.9844 5.1622,-3.375 V 2159.082 c 0,-26.5925 -10.0381,-42.1409 -24.7637,-42.5625 z m 42.3028,229.3789 c -9.4394,9e-4 -22.3719,4.7961 -28.9122,10.8379 l -277.6679,256.6055 c -6.5343,6.0402 -4.2499,10.8066 5.1894,10.8066 h 1051.4902 v -12.5566 l 7.1811,-265.6934 h -406.6732 l -246.2559,254.2696 h -13.2383 l 246.2559,-254.2696 z"
       transform="matrix(0.26458333,0,0,0.26458333,0,-503)"
       sodipodi:nodetypes="sccccsccssscccccccccccccccsscsccccccssscccscccccccc" />
  </g>
</svg>
