<?xml version="1.0" encoding="UTF-8"?>
<!DOCTYPE svg PUBLIC "-//W3C//DTD SVG 1.1//EN" "http://www.w3.org/Graphics/SVG/1.1/DTD/svg11.dtd">
<svg xmlns="http://www.w3.org/2000/svg" version="1.1" width="2560px" height="1197px" style="shape-rendering:geometricPrecision; text-rendering:geometricPrecision; image-rendering:optimizeQuality; fill-rule:evenodd; clip-rule:evenodd" xmlns:xlink="http://www.w3.org/1999/xlink">
<g><path style="opacity:0.993" fill="#000000" d="M 51.5,-0.5 C 870.167,-0.5 1688.83,-0.5 2507.5,-0.5C 2535.17,6.5 2552.5,23.8333 2559.5,51.5C 2559.5,415.5 2559.5,779.5 2559.5,1143.5C 2551.14,1175.53 2530.47,1193.19 2497.5,1196.5C 1685.5,1196.5 873.5,1196.5 61.5,1196.5C 28.5344,1193.2 7.8677,1175.53 -0.5,1143.5C -0.5,779.5 -0.5,415.5 -0.5,51.5C 6.5,23.8333 23.8333,6.5 51.5,-0.5 Z"/></g>
<g><path style="opacity:1" fill="#fefefe" d="M 56.5,41.5 C 872.554,41.0008 1688.55,41.5008 2504.5,43C 2510.39,45.8924 2514.56,50.3924 2517,56.5C 2518,417.888 2517.66,779.221 2516,1140.5C 2513.01,1146.82 2508.18,1150.99 2501.5,1153C 1686.5,1153.67 871.5,1153.67 56.5,1153C 49.2417,1150.08 44.4084,1144.91 42,1137.5C 41.3333,777.167 41.3333,416.833 42,56.5C 45.0214,49.6468 49.8548,44.6468 56.5,41.5 Z"/></g>
<g><path style="opacity:1" fill="#000000" d="M 275.5,249.5 C 311.566,247.879 345.566,255.379 377.5,272C 444.257,315.971 482.757,377.804 493,457.5C 497.739,538.445 498.739,619.445 496,700.5C 496.132,735.92 492.465,770.92 485,805.5C 482.799,813.271 480.299,820.938 477.5,828.5C 477.608,829.442 477.941,830.275 478.5,831C 502.97,853.802 527.137,876.969 551,900.5C 553,903.167 553,905.833 551,908.5C 533.622,932.755 516.122,956.922 498.5,981C 496.833,981.667 495.167,981.667 493.5,981C 473.833,962 454.167,943 434.5,924C 430.655,920.82 426.822,917.653 423,914.5C 361.945,972.112 291.778,986.612 212.5,958C 184.182,944.58 160.015,925.746 140,901.5C 104.591,858.307 84.924,808.64 81,752.5C 76.3465,658.166 76.3465,563.833 81,469.5C 87.1915,386.919 124.025,322.085 191.5,275C 217.635,259.972 245.635,251.472 275.5,249.5 Z"/></g>
<g><path style="opacity:1" fill="#000000" d="M 1664.5,258.5 C 1771.83,258.333 1879.17,258.5 1986.5,259C 1987,259.5 1987.5,260 1988,260.5C 1988.67,295.167 1988.67,329.833 1988,364.5C 1924.89,564.494 1861.39,764.328 1797.5,964C 1765.93,964.829 1734.43,964.662 1703,963.5C 1701.25,959.886 1701.25,956.219 1703,952.5C 1764.73,758.464 1826.57,564.464 1888.5,370.5C 1842.5,369.5 1796.5,369.167 1750.5,369.5C 1750.67,402.168 1750.5,434.835 1750,467.5C 1749.5,468 1749,468.5 1748.5,469C 1720.26,469.828 1692.09,469.661 1664,468.5C 1662.84,433.75 1662.34,398.917 1662.5,364C 1662.67,329.833 1662.83,295.667 1663,261.5C 1663.51,260.473 1664.01,259.473 1664.5,258.5 Z"/></g>
<g><path style="opacity:1" fill="#000000" d="M 2059.5,258.5 C 2140.83,258.333 2222.17,258.5 2303.5,259C 2371.41,262.623 2419.57,295.123 2448,356.5C 2470.16,411.755 2472.16,467.755 2454,524.5C 2446.35,547.145 2433.52,566.312 2415.5,582C 2406.62,589.056 2397.62,595.89 2388.5,602.5C 2421.01,617.175 2443.84,641.175 2457,674.5C 2476.79,723.08 2481.13,773.08 2470,824.5C 2457.16,883.973 2423.99,927.807 2370.5,956C 2353.57,963.315 2335.91,967.648 2317.5,969C 2231.5,969.667 2145.5,969.667 2059.5,969C 2059,968.5 2058.5,968 2058,967.5C 2057.83,849.5 2057.67,731.5 2057.5,613.5C 2057.5,494.959 2058.17,376.625 2059.5,258.5 Z"/></g>
<g><path style="opacity:1" fill="#000000" d="M 712.5,263.5 C 712.5,462.5 712.5,661.5 712.5,860.5C 804.5,860.5 896.5,860.5 988.5,860.5C 989.458,860.953 990.292,861.619 991,862.5C 991.667,898.167 991.667,933.833 991,969.5C 990.25,970.126 989.416,970.626 988.5,971C 865.5,971.667 742.5,971.667 619.5,971C 619,970.5 618.5,970 618,969.5C 617.333,733.833 617.333,498.167 618,262.5C 618.5,262 619,261.5 619.5,261C 649.833,260.333 680.167,260.333 710.5,261C 711.381,261.708 712.047,262.542 712.5,263.5 Z"/></g>
<g><path style="opacity:1" fill="#000000" d="M 1256.5,264.5 C 1363.17,264.333 1469.83,264.5 1576.5,265C 1577,265.5 1577.5,266 1578,266.5C 1578.67,301.5 1578.67,336.5 1578,371.5C 1577.53,372.931 1576.7,374.097 1575.5,375C 1498.17,375.5 1420.83,375.667 1343.5,375.5C 1343.33,422.168 1343.5,468.835 1344,515.5C 1388.37,480.199 1436.87,473.366 1489.5,495C 1528.25,514.602 1555.41,544.768 1571,585.5C 1583.03,617.688 1589.03,651.021 1589,685.5C 1590.12,723.207 1589.46,760.874 1587,798.5C 1580.67,866.705 1549.17,919.538 1492.5,957C 1455.65,977.1 1416.98,981.433 1376.5,970C 1301.82,946.636 1258.65,896.136 1247,818.5C 1244.97,808.241 1243.97,797.907 1244,787.5C 1244.83,786.667 1245.67,785.833 1246.5,785C 1275.5,784.333 1304.5,784.333 1333.5,785C 1334.93,785.465 1336.1,786.299 1337,787.5C 1349.64,853.444 1388.48,877.61 1453.5,860C 1470.73,852.724 1481.23,839.891 1485,821.5C 1496.16,771.565 1498.49,721.232 1492,670.5C 1489.13,653.018 1483.8,636.352 1476,620.5C 1466.22,606.346 1452.72,597.846 1435.5,595C 1403.95,588.515 1378.11,597.681 1358,622.5C 1351.87,631.252 1346.37,640.419 1341.5,650C 1312.83,650.833 1284.16,650.667 1255.5,649.5C 1254.34,521.873 1254.17,394.207 1255,266.5C 1255.72,265.956 1256.22,265.289 1256.5,264.5 Z"/></g>
<g><path style="opacity:1" fill="#a6a6a6" d="M 2289.5,364.5 C 2244.83,364.5 2200.17,364.5 2155.5,364.5C 2155.5,427.167 2155.5,489.833 2155.5,552.5C 2200.5,552.5 2245.5,552.5 2290.5,552.5C 2245.34,553.499 2200,553.832 2154.5,553.5C 2154.5,490.167 2154.5,426.833 2154.5,363.5C 2199.67,363.168 2244.67,363.501 2289.5,364.5 Z"/></g>
<g><path style="opacity:1" fill="#fefefe" d="M 2289.5,364.5 C 2326.37,367.532 2350.87,386.532 2363,421.5C 2374.54,458.915 2369.21,493.582 2347,525.5C 2332.29,542.808 2313.46,551.808 2290.5,552.5C 2245.5,552.5 2200.5,552.5 2155.5,552.5C 2155.5,489.833 2155.5,427.167 2155.5,364.5C 2200.17,364.5 2244.83,364.5 2289.5,364.5 Z"/></g>
<g><path style="opacity:1" fill="#fefefe" d="M 273.5,367.5 C 319.149,365.237 353.649,383.57 377,422.5C 391.237,450.78 398.57,480.78 399,512.5C 402.316,578.831 402.316,645.165 399,711.5C 398.486,723.64 396.986,735.64 394.5,747.5C 374.348,728.516 354.348,709.349 334.5,690C 332.049,687.16 329.549,686.994 327,689.5C 310.245,713.343 293.245,737.01 276,760.5C 274.578,763.03 274.245,765.697 275,768.5C 298.167,791 321.333,813.5 344.5,836C 323.244,852.315 299.244,858.649 272.5,855C 247.598,850.799 227.098,838.965 211,819.5C 192.874,795.897 181.874,769.231 178,739.5C 174.607,696.573 173.107,653.573 173.5,610.5C 173.093,568.093 174.593,525.76 178,483.5C 181.781,447.442 196.614,416.942 222.5,392C 237.215,378.975 254.215,370.808 273.5,367.5 Z"/></g>
<g><path style="opacity:1" fill="#a5a5a5" d="M 2298.5,659.5 C 2250.83,659.5 2203.17,659.5 2155.5,659.5C 2155.5,725.833 2155.5,792.167 2155.5,858.5C 2154.5,792.002 2154.17,725.335 2154.5,658.5C 2202.67,658.168 2250.67,658.501 2298.5,659.5 Z"/></g>
<g><path style="opacity:1" fill="#fefefe" d="M 2298.5,659.5 C 2326.1,660.707 2346.94,673.04 2361,696.5C 2384.81,739.555 2384.14,782.222 2359,824.5C 2346.32,842.266 2329.15,853.099 2307.5,857C 2256.86,858.463 2206.19,858.963 2155.5,858.5C 2155.5,792.167 2155.5,725.833 2155.5,659.5C 2203.17,659.5 2250.83,659.5 2298.5,659.5 Z"/></g>
<g><path style="opacity:1" fill="#d1d1d1" d="M 712.5,263.5 C 713.5,461.999 713.833,660.666 713.5,859.5C 805.335,859.167 897.002,859.501 988.5,860.5C 896.5,860.5 804.5,860.5 712.5,860.5C 712.5,661.5 712.5,462.5 712.5,263.5 Z"/></g>
<g><path style="opacity:1" fill="#010101" d="M 1070.5,860.5 C 1098.5,860.333 1126.5,860.5 1154.5,861C 1155,861.5 1155.5,862 1156,862.5C 1156.67,898.167 1156.67,933.833 1156,969.5C 1155.5,970 1155,970.5 1154.5,971C 1126.5,971.667 1098.5,971.667 1070.5,971C 1070,970.5 1069.5,970 1069,969.5C 1068.33,934.167 1068.33,898.833 1069,863.5C 1069.51,862.473 1070.01,861.473 1070.5,860.5 Z"/></g>
</svg>
