<?xml version="1.0" encoding="UTF-8" standalone="no"?>
<!-- Created with Inkscape (http://www.inkscape.org/) -->

<svg
   xmlns:dc="http://purl.org/dc/elements/1.1/"
   xmlns:cc="http://creativecommons.org/ns#"
   xmlns:rdf="http://www.w3.org/1999/02/22-rdf-syntax-ns#"
   xmlns:svg="http://www.w3.org/2000/svg"
   xmlns="http://www.w3.org/2000/svg"
   xmlns:sodipodi="http://sodipodi.sourceforge.net/DTD/sodipodi-0.dtd"
   xmlns:inkscape="http://www.inkscape.org/namespaces/inkscape"
   width="600mm"
   height="800mm"
   viewBox="0 0 600 800"
   version="1.1"
   id="svg848"
   inkscape:version="0.92.2 (5c3e80d, 2017-08-06)"
   sodipodi:docname="11.svg">
  <defs
     id="defs842" />
  <sodipodi:namedview
     id="base"
     pagecolor="#ffffff"
     bordercolor="#666666"
     borderopacity="1.0"
     inkscape:pageopacity="0.0"
     inkscape:pageshadow="2"
     inkscape:zoom="0.12388393"
     inkscape:cx="1620.5184"
     inkscape:cy="1343.8227"
     inkscape:document-units="mm"
     inkscape:current-layer="layer1"
     showgrid="false"
     inkscape:snap-global="false"
     inkscape:window-width="1920"
     inkscape:window-height="1057"
     inkscape:window-x="-8"
     inkscape:window-y="-8"
     inkscape:window-maximized="1"
     fit-margin-top="0"
     fit-margin-left="0"
     fit-margin-right="0"
     fit-margin-bottom="0"
     showguides="false"
     inkscape:measure-start="0,0"
     inkscape:measure-end="0,0" />
  <metadata
     id="metadata845">
    <rdf:RDF>
      <cc:Work
         rdf:about="">
        <dc:format>image/svg+xml</dc:format>
        <dc:type
           rdf:resource="http://purl.org/dc/dcmitype/StillImage" />
        <dc:title></dc:title>
      </cc:Work>
    </rdf:RDF>
  </metadata>
  <g
     inkscape:label="Layer 1"
     inkscape:groupmode="layer"
     id="layer1"
     transform="translate(-818.04565,2020.538)">
    <rect
       style="opacity:1;fill:#0046aa;fill-opacity:1;fill-rule:nonzero;stroke:none;stroke-width:2.93670321;stroke-linecap:butt;stroke-linejoin:miter;stroke-miterlimit:10;stroke-dasharray:none;stroke-opacity:1;paint-order:stroke fill markers"
       id="rect1393"
       width="600"
       height="800"
       x="818.04565"
       y="-2020.538" />
    <rect
       y="-2015.538"
       x="823.04565"
       height="790"
       width="590"
       id="rect1395"
       style="opacity:1;fill:#ffffff;fill-opacity:1;fill-rule:nonzero;stroke:none;stroke-width:2.89386988;stroke-linecap:butt;stroke-linejoin:miter;stroke-miterlimit:10;stroke-dasharray:none;stroke-opacity:1;paint-order:stroke fill markers" />
    <rect
       y="-2005.538"
       x="833.04565"
       height="770"
       width="570"
       id="rect1406"
       style="opacity:1;fill:#0046aa;fill-opacity:1;fill-rule:nonzero;stroke:none;stroke-width:2.80816269;stroke-linecap:butt;stroke-linejoin:miter;stroke-miterlimit:10;stroke-dasharray:none;stroke-opacity:1;paint-order:stroke fill markers" />
    <path
       id="path8376"
       style="opacity:1;fill:#d35f5f;fill-opacity:1;fill-rule:nonzero;stroke:none;stroke-width:3.92256045;stroke-linecap:butt;stroke-linejoin:miter;stroke-miterlimit:4;stroke-dasharray:none;stroke-opacity:1;paint-order:stroke fill markers"
       d=""
       inkscape:connector-curvature="0" />
    <rect
       style="opacity:1;fill:#ffffff;fill-opacity:1;fill-rule:nonzero;stroke:none;stroke-width:5.07322454;stroke-linecap:butt;stroke-linejoin:miter;stroke-miterlimit:4;stroke-dasharray:none;stroke-opacity:1;paint-order:stroke fill markers"
       id="rect828"
       width="500"
       height="500"
       x="868.04565"
       y="-1970.538" />
    <g
       transform="matrix(1.0004876,0,0,1.0004876,-290.77787,824.33304)"
       id="g924"
       style="font-style:normal;font-variant:normal;font-weight:bold;font-stretch:normal;font-size:159.07623291px;line-height:0;font-family:Giaothong2;-inkscape-font-specification:'Giaothong2 Bold';letter-spacing:0px;word-spacing:0px;fill:#000000;fill-opacity:1;stroke:none;stroke-width:0.82852203">
      <g
         id="g922"
         style="font-style:normal;font-variant:normal;font-weight:bold;font-stretch:normal;font-size:161.34654236px;line-height:0;font-family:Giaothong2;-inkscape-font-specification:'Giaothong2 Bold';letter-spacing:3.35592604px;word-spacing:0px;fill:#000000;fill-opacity:1;stroke:none;stroke-width:0.69624561"/>
    </g>
    <g
       style="font-style:normal;font-variant:normal;font-weight:bold;font-stretch:normal;font-size:105.2776947px;line-height:0;font-family:Giaothong2;-inkscape-font-specification:'Giaothong2 Bold';letter-spacing:0px;word-spacing:3.20410419px;fill:#000000;fill-opacity:1;stroke:none;stroke-width:0.54832131"
       id="text919"
       transform="translate(49.839108,-239.00373)">
      <path
         style="opacity:1;fill:#000000;fill-opacity:1;fill-rule:nonzero;stroke:none;stroke-width:5.48935843;stroke-linecap:round;stroke-linejoin:miter;stroke-miterlimit:4;stroke-dasharray:none;stroke-opacity:1;paint-order:stroke fill markers"
         d="m 861.4405,-1556.5768 c -3.72563,2e-4 -8.21941,4.6931 -8.23401,10.4296 v 113.447 h 345.82971 l 84.1703,-12.2598 v -90.2082 c -0.021,-10.0244 -11.8561,-21.3356 -24.4278,-21.4086 z m 3.29342,17.5658 h 30.74042 c 3.21868,0.01 5.66646,2.3455 5.67247,4.9405 v 72.2765 c 0.0175,6.8233 -5.34274,15.3821 -12.99117,15.3703 H 866.3811 c -0.88629,0 -1.64239,-1.3179 -1.64718,-2.5615 z m 48.85562,8.6 h 78.13183 v 28.7277 h -78.13183 z m 91.48946,0 h 78.1318 v 28.7277 h -78.1318 z m 91.4893,0 h 78.1318 v 28.7277 h -78.1318 z m 91.4889,0 h 78.132 v 28.7277 h -78.132 z"
         id="rect25583"
         inkscape:connector-curvature="0" />
      <circle
         style="opacity:1;fill:#000000;fill-opacity:1;fill-rule:nonzero;stroke:none;stroke-width:9.44093609;stroke-linecap:round;stroke-linejoin:miter;stroke-miterlimit:4;stroke-dasharray:none;stroke-opacity:1;paint-order:stroke fill markers"
         id="path32155"
         cx="943.78094"
         cy="-1433.0663"
         r="26.531904" />
      <circle
         r="26.531904"
         cy="-1433.0663"
         cx="1167.015"
         id="circle32157"
         style="opacity:1;fill:#000000;fill-opacity:1;fill-rule:nonzero;stroke:none;stroke-width:9.44093609;stroke-linecap:round;stroke-linejoin:miter;stroke-miterlimit:4;stroke-dasharray:none;stroke-opacity:1;paint-order:stroke fill markers" />
    </g>
    <g
       style="font-style:normal;font-variant:normal;font-weight:bold;font-stretch:normal;font-size:82.97096252px;line-height:0;font-family:Giaothong2;-inkscape-font-specification:'Giaothong2 Bold';letter-spacing:0px;word-spacing:8.30527115px;fill:#ffffff;fill-opacity:1;stroke:none;stroke-width:0.43214044"
       id="text864"
       transform="translate(17.2567,12.8007)">
      <path
         d="m 921.2751,-1283.8248 q -0.48615,0 -0.48615,-0.4862 v -58.0554 q 0,-0.4861 0.48615,-0.4861 h 22.52532 q 8.54828,0 13.12627,4.578 4.53747,4.4969 4.53747,11.5057 0,3.8488 -1.78258,7.1303 -1.62052,3.079 -6.03646,5.3478 4.09183,1.2964 6.32006,4.9831 1.17488,2.0256 1.78258,4.1728 0.64821,2.1067 0.64821,4.3755 0,7.738 -4.98312,12.3565 -4.94261,4.578 -11.62728,4.578 z m 9.27752,-25.7664 v 16.5294 h 13.08575 q 4.57799,0 6.80621,-2.4713 2.18771,-2.4714 2.18771,-5.7934 0,-3.2411 -2.18771,-5.7529 -2.10668,-2.5118 -6.80621,-2.5118 z m 0,-24.47 v 15.6786 h 12.27549 q 4.57799,0 6.68467,-2.2687 2.18771,-2.2282 2.18771,-5.5503 0,-3.2816 -2.18771,-5.5098 -2.18771,-2.3498 -6.68467,-2.3498 z"
         style="font-style:normal;font-variant:normal;font-weight:bold;font-stretch:normal;font-family:Giaothong2;-inkscape-font-specification:'Giaothong2 Bold';word-spacing:8.30527115px;fill:#ffffff;stroke:none;stroke-width:0.43214044"
         id="path898"
         inkscape:connector-curvature="0" />
      <path
         d="m 970.29603,-1342.3664 q 0,-0.4861 0.48616,-0.4861 h 8.83187 q 0.44564,0 0.44564,0.4861 v 37.4342 q 0,5.8339 3.24106,8.8319 3.28156,3.0385 8.14314,3.0385 4.78056,0 8.06212,-3.0385 3.28158,-3.0385 3.28158,-8.8319 v -37.4342 q 0,-0.4861 0.4861,-0.4861 h 8.7914 q 0.4862,0 0.4862,0.4861 v 38.4065 q 0,9.318 -6.1986,14.9899 -6.1174,5.6313 -14.9088,5.6313 -8.83187,0 -14.98987,-5.6313 -6.158,-5.6719 -6.158,-14.9899 z"
         style="font-style:normal;font-variant:normal;font-weight:bold;font-stretch:normal;font-family:Giaothong2;-inkscape-font-specification:'Giaothong2 Bold';word-spacing:8.30527115px;fill:#ffffff;stroke:none;stroke-width:0.43214044"
         id="path900"
         inkscape:connector-curvature="0" />
      <path
         d="m 1024.5432,-1298.7337 q 0.1215,-0.162 0.3241,-0.162 0.2025,0 0.3646,0.1215 3.2005,2.5928 7.3329,4.1729 4.1728,1.5395 8.7913,1.5395 5.1857,0 8.1837,-2.1472 2.8359,-2.0662 2.8359,-5.4693 0,-6.4011 -7.1708,-7.3734 h 0.041 q -1.0128,-0.1216 -1.9446,-0.2431 -0.8913,-0.1215 -1.8231,-0.2431 -0.8913,-0.1215 -1.8636,-0.2431 -0.9318,-0.162 -2.0662,-0.3241 -3.8082,-0.5266 -6.8062,-1.9041 -2.9575,-1.4179 -4.9831,-3.7272 -2.0257,-2.3498 -3.0385,-5.1046 -1.0129,-2.7955 -1.0129,-6.077 0,-7.6975 5.1047,-12.5186 5.1452,-4.9021 14.3011,-4.9021 2.7144,0 5.2668,0.4862 2.5928,0.4456 4.9831,1.2559 2.4308,0.8102 4.6185,1.9446 2.2282,1.0939 4.2539,2.4308 0.4051,0.2836 0.1215,0.6887 l -4.9021,7.2519 q -0.2836,0.3646 -0.6482,0.1215 -3.16,-1.9851 -6.7252,-3.16 -3.5651,-1.2154 -7.3734,-1.2154 -1.9446,0 -3.6057,0.4862 -1.661,0.4456 -2.9979,1.4989 -2.6334,1.9042 -2.6334,5.7934 0,2.2283 1.7826,4.3349 0.8913,0.9724 2.3903,1.6611 1.499,0.6482 3.6867,0.9723 1.1749,0.2026 2.7549,0.4456 1.58,0.2026 3.7272,0.4457 8.3052,1.0128 12.316,6.1175 4.0108,4.9831 4.0108,11.1006 0,8.1836 -5.7124,12.8021 -5.7528,4.5375 -15.1519,4.5375 -13.2478,0 -22.5253,-8.1026 -0.1621,-0.1216 -0.1621,-0.3241 0,-0.2026 0.1216,-0.3646 z"
         style="font-style:normal;font-variant:normal;font-weight:bold;font-stretch:normal;font-family:Giaothong2;-inkscape-font-specification:'Giaothong2 Bold';word-spacing:8.30527115px;fill:#ffffff;stroke:none;stroke-width:0.43214044"
         id="path902"
         inkscape:connector-curvature="0" />
      <path
         d="m 1100.4244,-1298.7337 q 0.1215,-0.162 0.3241,-0.162 0.2026,0 0.3646,0.1215 3.2006,2.5928 7.3329,4.1729 4.1729,1.5395 8.7914,1.5395 5.1856,0 8.1836,-2.1472 2.8359,-2.0662 2.8359,-5.4693 0,-6.4011 -7.1708,-7.3734 h 0.041 q -1.0128,-0.1216 -1.9446,-0.2431 -0.8913,-0.1215 -1.8231,-0.2431 -0.8913,-0.1215 -1.8636,-0.2431 -0.9318,-0.162 -2.0662,-0.3241 -3.8082,-0.5266 -6.8062,-1.9041 -2.9575,-1.4179 -4.9831,-3.7272 -2.0257,-2.3498 -3.0385,-5.1046 -1.0128,-2.7955 -1.0128,-6.077 0,-7.6975 5.1046,-12.5186 5.1452,-4.9021 14.3012,-4.9021 2.7144,0 5.2667,0.4862 2.5928,0.4456 4.9831,1.2559 2.4308,0.8102 4.6185,1.9446 2.2282,1.0939 4.2539,2.4308 0.4051,0.2836 0.1215,0.6887 l -4.9021,7.2519 q -0.2836,0.3646 -0.6482,0.1215 -3.16,-1.9851 -6.7252,-3.16 -3.5651,-1.2154 -7.3734,-1.2154 -1.9446,0 -3.6056,0.4862 -1.6611,0.4456 -2.998,1.4989 -2.6334,1.9042 -2.6334,5.7934 0,2.2283 1.7826,4.3349 0.8913,0.9724 2.3903,1.6611 1.499,0.6482 3.6867,0.9723 1.1749,0.2026 2.7549,0.4456 1.58,0.2026 3.7272,0.4457 8.3052,1.0128 12.316,6.1175 4.0108,4.9831 4.0108,11.1006 0,8.1836 -5.7123,12.8021 -5.7529,4.5375 -15.152,4.5375 -13.2478,0 -22.5253,-8.1026 -0.162,-0.1216 -0.162,-0.3241 0,-0.2026 0.1215,-0.3646 z"
         style="font-style:normal;font-variant:normal;font-weight:bold;font-stretch:normal;font-family:Giaothong2;-inkscape-font-specification:'Giaothong2 Bold';word-spacing:8.30527115px;fill:#ffffff;stroke:none;stroke-width:0.43214044"
         id="path904"
         inkscape:connector-curvature="0" />
      <path
         d="m 1157.71,-1283.8248 q -0.4862,0 -0.4862,-0.4862 v -49.7502 h -15.4355 q -0.4861,0 -0.4861,-0.4861 v -7.8191 q 0,-0.4861 0.4861,-0.4861 h 40.5942 q 0.4862,0 0.4862,0.4861 v 7.8191 q 0,0.4861 -0.4862,0.4861 h -15.395 v 49.7502 q 0,0.4862 -0.4861,0.4862 z"
         style="font-style:normal;font-variant:normal;font-weight:bold;font-stretch:normal;font-family:Giaothong2;-inkscape-font-specification:'Giaothong2 Bold';word-spacing:8.30527115px;fill:#ffffff;stroke:none;stroke-width:0.43214044"
         id="path906"
         inkscape:connector-curvature="0" />
      <path
         d="m 1186.92,-1313.3184 q 0,-5.3073 0.1215,-8.6698 0.1621,-3.3626 0.4052,-4.9021 0.2836,-1.5395 0.8102,-2.9575 0.5267,-1.418 1.2965,-2.7954 h -0.041 q 2.1067,-3.9298 6.8063,-7.2924 4.74,-3.4031 11.7893,-3.4031 6.9682,0 11.7083,3.4031 4.7805,3.4436 6.8872,7.2924 1.499,2.7549 2.0257,5.7529 0.2836,1.5395 0.4051,4.9021 0.1621,3.3625 0.1621,8.6698 0,10.4119 -0.5672,13.6124 -0.2836,1.58 -0.8103,2.998 -0.4861,1.4179 -1.1749,2.7144 -2.1472,3.8892 -6.9277,7.2923 -4.7806,3.3626 -11.7083,3.3626 -7.0088,0 -11.7893,-3.3626 -4.6996,-3.3221 -6.8063,-7.2923 h 0.041 q -0.7698,-1.3775 -1.2965,-2.7549 -0.5266,-1.418 -0.8102,-2.9575 -0.2431,-1.5395 -0.4052,-4.9021 -0.1215,-3.4031 -0.1215,-8.7103 z m 9.7637,0 q 0,4.4159 0.1215,7.2923 0.1215,2.836 0.4457,4.2134 0.3241,1.2559 0.8912,2.5118 0.6077,1.2154 1.337,2.1472 1.2964,1.7016 3.4436,2.917 2.1472,1.1749 5.1857,1.1749 2.998,0 5.1452,-1.1749 2.1472,-1.2154 3.4031,-2.917 1.7015,-2.0661 2.2282,-4.659 0.6482,-2.5928 0.6482,-11.5057 0,-4.416 -0.1621,-7.2519 -0.162,-2.8764 -0.4861,-4.2134 -0.2836,-1.2964 -0.8508,-2.5118 -0.5672,-1.2559 -1.3369,-2.2282 -0.6077,-0.7697 -1.499,-1.499 -0.8508,-0.7292 -1.9446,-1.2559 -1.0939,-0.5672 -2.3903,-0.8913 -1.2964,-0.3646 -2.7549,-0.3646 -3.0385,0 -5.1857,1.2154 -2.1472,1.2154 -3.4436,2.7954 -0.7698,0.9723 -1.337,2.2282 -0.5671,1.2154 -0.8912,2.5118 -0.3242,1.3775 -0.4457,4.2539 -0.1215,2.8765 -0.1215,7.2114 z"
         style="font-style:normal;font-variant:normal;font-weight:bold;font-stretch:normal;font-family:Giaothong2;-inkscape-font-specification:'Giaothong2 Bold';word-spacing:8.30527115px;fill:#ffffff;stroke:none;stroke-width:0.43214044"
         id="path908"
         inkscape:connector-curvature="0" />
      <path
         d="m 1249.1887,-1333.5345 v 17.7448 h 12.5996 q 4.659,0 6.9278,-2.7954 2.3092,-2.7144 2.3092,-6.077 0,-5.0236 -3.5651,-7.3329 -2.3093,-1.5395 -5.996,-1.5395 z m -9.2775,49.7097 q -0.4861,0 -0.4861,-0.4862 v -58.0554 q 0,-0.4861 0.4861,-0.4861 h 21.0669 q 3.4841,0 6.6036,0.7292 3.16,0.7292 6.7252,3.4841 1.3774,1.0939 2.5118,2.5524 1.1749,1.4179 2.1067,3.16 0.8913,1.7826 1.3774,3.9298 0.4862,2.1472 0.4862,4.578 0,6.3605 -4.7806,12.1539 -4.7805,5.7529 -13.896,5.7529 h -12.9237 v 22.2012 q 0,0.4862 -0.4861,0.4862 z"
         style="font-style:normal;font-variant:normal;font-weight:bold;font-stretch:normal;font-family:Giaothong2;-inkscape-font-specification:'Giaothong2 Bold';word-spacing:8.30527115px;fill:#ffffff;stroke:none;stroke-width:0.43214044"
         id="path910"
         inkscape:connector-curvature="0" />
    </g>
    <g
       style="font-style:normal;font-variant:normal;font-weight:bold;font-stretch:normal;font-size:83.64883423px;line-height:0;font-family:Giaothong2;-inkscape-font-specification:'Giaothong2 Bold';letter-spacing:0px;word-spacing:3.59304166px;fill:#ffffff;fill-opacity:1;stroke:none;stroke-width:0.435671"
       id="text829"
       transform="translate(-13.40863,4.986)">
      <path
         d="m 891.94438,-1376.0141 q -0.4901,0 -0.4901,-0.4901 v -58.5297 q 0,-0.4901 0.4901,-0.4901 h 22.7094 q 8.6181,0 13.2335,4.6154 4.5745,4.5337 4.5745,11.5997 0,3.8802 -1.7971,7.1886 -1.6338,3.1041 -6.0858,5.3914 4.1253,1.307 6.3717,5.0238 1.1845,2.0422 1.7971,4.207 0.6535,2.1239 0.6535,4.4112 0,7.8012 -5.0238,12.4574 -4.983,4.6154 -11.7223,4.6154 z m 9.3533,-25.9769 v 16.6644 h 13.1927 q 4.6154,0 6.8618,-2.4914 2.2056,-2.4915 2.2056,-5.8408 0,-3.2675 -2.2056,-5.7998 -2.1239,-2.5324 -6.8618,-2.5324 z m 0,-24.6698 v 15.8066 h 12.3758 q 4.6154,0 6.7393,-2.2872 2.2056,-2.2465 2.2056,-5.5957 0,-3.3084 -2.2056,-5.5548 -2.2056,-2.3689 -6.7393,-2.3689 z"
         style="font-style:normal;font-variant:normal;font-weight:bold;font-stretch:normal;font-family:Giaothong2;-inkscape-font-specification:'Giaothong2 Bold';word-spacing:3.59304166px;fill:#ffffff;stroke:none;stroke-width:0.435671"
         id="path879"
         inkscape:connector-curvature="0" />
      <path
         d="m 942.91788,-1376.0141 q -0.4901,0 -0.4901,-0.4901 v -58.5297 q 0,-0.4901 0.4901,-0.4901 h 37.4133 q 0.4901,0 0.4901,0.4901 v 8.4139 q 0,0.4901 -0.4901,0.4901 h -28.06 v 15.6842 h 23.853 q 0.4902,0 0.4902,0.4901 v 7.9238 q 0,0.4493 -0.4902,0.4493 h -23.853 v 16.2559 h 28.06 q 0.4901,0 0.4901,0.4902 v 8.3322 q 0,0.4901 -0.4901,0.4901 z m 3.9619,-64.7788 q -0.3676,0 -0.4493,-0.3268 -0.082,-0.3267 0.1634,-0.5309 l 12.0082,-9.5167 h 5.5139 l 12.1716,9.5167 q 0.2859,0.2042 0.1634,0.5309 -0.082,0.3268 -0.4493,0.3268 h -6.8618 l -8.1689,-4.4112 q -1.7971,1.1028 -3.6351,2.2056 -1.838,1.1028 -3.6351,2.2056 z m 23.4037,-5.9633 q -0.3267,0 -0.4493,-0.2042 -0.082,-0.2451 0.041,-0.531 l 8.5365,-11.9265 q 0.1633,-0.245 0.4084,-0.245 h 8.9857 q 0.3268,0 0.4493,0.2859 0.1634,0.2859 -0.082,0.531 l -11.273,11.9265 q -0.041,0.041 -0.1634,0.1225 -0.1225,0.041 -0.2042,0.041 z"
         style="font-style:normal;font-variant:normal;font-weight:bold;font-stretch:normal;font-family:Giaothong2;-inkscape-font-specification:'Giaothong2 Bold';word-spacing:3.59304166px;fill:#ffffff;stroke:none;stroke-width:0.435671"
         id="path881"
         inkscape:connector-curvature="0" />
      <path
         d="m 989.48028,-1376.0141 q -0.4902,0 -0.4902,-0.4901 v -58.5297 q 0,-0.4901 0.4902,-0.4901 h 8.4139 q 0.245,0 0.4084,0.245 l 25.73182,40.5174 v -40.2723 q 0,-0.4901 0.4901,-0.4901 h 8.9041 q 0.4901,0 0.4901,0.4901 v 58.5297 q 0,0.4901 -0.4901,0.4901 h -8.3731 q -0.245,0 -0.4084,-0.2451 l -25.81352,-40.5174 v 40.2724 q 0,0.4901 -0.4493,0.4901 z"
         style="font-style:normal;font-variant:normal;font-weight:bold;font-stretch:normal;font-family:Giaothong2;-inkscape-font-specification:'Giaothong2 Bold';word-spacing:3.59304166px;fill:#ffffff;stroke:none;stroke-width:0.435671"
         id="path883"
         inkscape:connector-curvature="0" />
      <path
         d="m 1100.1258,-1376.0141 q -0.245,0 -0.4084,-0.2451 l -12.4166,-21.0755 q -3.1042,5.3097 -6.2083,10.5378 -3.1042,5.228 -6.2083,10.5377 -0.1634,0.2451 -0.4085,0.2451 h -10.0068 q -0.3268,0 -0.4493,-0.2042 -0.1225,-0.2451 0.041,-0.531 l 17.7672,-29.7754 q -4.2069,-7.1069 -8.3322,-14.1321 -4.1252,-7.0251 -8.2913,-14.132 -0.1634,-0.2859 -0.041,-0.4902 0.1225,-0.245 0.4084,-0.245 h 10.0477 q 0.245,0 0.4084,0.245 l 11.273,19.6052 q 2.8182,-4.9013 5.6365,-9.7617 2.8182,-4.9013 5.6365,-9.8435 0.1633,-0.245 0.4084,-0.245 h 10.0477 q 0.2859,0 0.4084,0.245 0.1225,0.2043 -0.041,0.4902 l -16.6236,28.2641 q 4.4928,7.4745 8.904,14.9081 4.4112,7.3928 8.904,14.8673 0.1634,0.2859 0.041,0.531 -0.1226,0.2042 -0.4493,0.2042 z"
         style="font-style:normal;font-variant:normal;font-weight:bold;font-stretch:normal;font-family:Giaothong2;-inkscape-font-specification:'Giaothong2 Bold';word-spacing:3.59304166px;fill:#ffffff;stroke:none;stroke-width:0.435671"
         id="path885"
         inkscape:connector-curvature="0" />
      <path
         d="m 1117.2395,-1376.0141 q -0.4901,0 -0.4901,-0.4901 v -58.5297 q 0,-0.4901 0.4901,-0.4901 h 37.4133 q 0.4901,0 0.4901,0.4901 v 8.4139 q 0,0.4901 -0.4901,0.4901 h -28.06 v 15.6842 h 23.853 q 0.4902,0 0.4902,0.4901 v 7.9238 q 0,0.4493 -0.4902,0.4493 h -23.853 v 16.2559 h 28.06 q 0.4901,0 0.4901,0.4902 v 8.3322 q 0,0.4901 -0.4901,0.4901 z"
         style="font-style:normal;font-variant:normal;font-weight:bold;font-stretch:normal;font-family:Giaothong2;-inkscape-font-specification:'Giaothong2 Bold';word-spacing:3.59304166px;fill:#ffffff;stroke:none;stroke-width:0.435671"
         id="path887"
         inkscape:connector-curvature="0" />
      <path
         d="m 1187.492,-1376.0141 q -0.4901,0 -0.4901,-0.4901 v -58.5297 q 0,-0.4901 0.4901,-0.4901 h 22.7094 q 8.6179,0 13.2335,4.6154 4.5745,4.5337 4.5745,11.5997 0,3.8802 -1.7971,7.1886 -1.634,3.1041 -6.086,5.3914 4.1253,1.307 6.3717,5.0238 1.1845,2.0422 1.7972,4.207 0.6535,2.1239 0.6535,4.4112 0,7.8012 -5.0239,12.4574 -4.983,4.6154 -11.7222,4.6154 z m 9.3534,-25.9769 v 16.6644 h 13.1926 q 4.6154,0 6.8618,-2.4914 2.2056,-2.4915 2.2056,-5.8408 0,-3.2675 -2.2056,-5.7998 -2.1241,-2.5324 -6.8618,-2.5324 z m 0,-24.6698 v 15.8066 h 12.3757 q 4.6153,0 6.7393,-2.2872 2.2056,-2.2465 2.2056,-5.5957 0,-3.3084 -2.2056,-5.5548 -2.2056,-2.3689 -6.7393,-2.3689 z"
         style="font-style:normal;font-variant:normal;font-weight:bold;font-stretch:normal;font-family:Giaothong2;-inkscape-font-specification:'Giaothong2 Bold';word-spacing:3.59304166px;fill:#ffffff;stroke:none;stroke-width:0.435671"
         id="path889"
         inkscape:connector-curvature="0" />
      <path
         d="m 1236.9135,-1435.0339 q 0,-0.4901 0.4901,-0.4901 h 8.904 q 0.4493,0 0.4493,0.4901 v 37.74 q 0,5.8816 3.2675,8.904 3.3084,3.0633 8.2097,3.0633 4.8196,0 8.128,-3.0633 3.3084,-3.0633 3.3084,-8.904 v -37.74 q 0,-0.4901 0.4901,-0.4901 h 8.8632 q 0.4901,0 0.4901,0.4901 v 38.7203 q 0,9.3941 -6.2491,15.1123 -6.1675,5.6773 -15.0307,5.6773 -8.904,0 -15.1124,-5.6773 -6.2083,-5.7182 -6.2083,-15.1123 z"
         style="font-style:normal;font-variant:normal;font-weight:bold;font-stretch:normal;font-family:Giaothong2;-inkscape-font-specification:'Giaothong2 Bold';word-spacing:3.59304166px;fill:#ffffff;stroke:none;stroke-width:0.435671"
         id="path891"
         inkscape:connector-curvature="0" />
      <path
         d="m 1302.8768,-1376.0141 q -0.4493,0 -0.4493,-0.4901 v -23.9347 q -4.4112,-8.6181 -8.7815,-17.1954 -4.3703,-8.5773 -8.7408,-17.1954 -0.1224,-0.2859 0,-0.4901 0.1225,-0.2042 0.4493,-0.2042 h 9.3125 q 0.1224,0 0.2452,0.1225 0.1225,0.082 0.2041,0.1634 l 12.0081,25.0783 q 3.0226,-6.3308 5.9632,-12.5392 2.9816,-6.2083 6.0042,-12.5391 0.082,-0.082 0.2041,-0.1634 0.1226,-0.1225 0.2452,-0.1225 h 9.3533 q 0.3268,0 0.4493,0.2042 0.1224,0.2042 0,0.4901 l -17.5631,34.3908 v 23.9347 q 0,0.4901 -0.4901,0.4901 z m -4.5337,-64.7788 q -0.3268,0 -0.4493,-0.2042 -0.082,-0.2451 0.041,-0.531 l 8.5365,-11.9265 q 0.1631,-0.2451 0.4084,-0.2451 h 8.9857 q 0.3268,0 0.4493,0.2859 0.1632,0.2859 -0.082,0.531 l -11.2729,11.9265 q -0.041,0.041 -0.1633,0.1225 -0.1225,0.041 -0.2042,0.041 z"
         style="font-style:normal;font-variant:normal;font-weight:bold;font-stretch:normal;font-family:Giaothong2;-inkscape-font-specification:'Giaothong2 Bold';word-spacing:3.59304166px;fill:#ffffff;stroke:none;stroke-width:0.435671"
         id="path893"
         inkscape:connector-curvature="0" />
      <path
         d="m 1346.0899,-1376.0141 q -0.4901,0 -0.4901,-0.4901 v -50.1566 h -15.5617 q -0.4901,0 -0.4901,-0.4902 v -7.8829 q 0,-0.4901 0.4901,-0.4901 h 40.9259 q 0.4901,0 0.4901,0.4901 v 7.8829 q 0,0.4902 -0.4901,0.4902 h -15.5208 v 50.1566 q 0,0.4901 -0.4901,0.4901 z"
         style="font-style:normal;font-variant:normal;font-weight:bold;font-stretch:normal;font-family:Giaothong2;-inkscape-font-specification:'Giaothong2 Bold';word-spacing:3.59304166px;fill:#ffffff;stroke:none;stroke-width:0.435671"
         id="path895"
         inkscape:connector-curvature="0" />
    </g>
  </g>
</svg>
