<?xml version="1.0" encoding="UTF-8" standalone="no"?>
<!-- Created with Inkscape (http://www.inkscape.org/) -->

<svg
   xmlns:dc="http://purl.org/dc/elements/1.1/"
   xmlns:cc="http://creativecommons.org/ns#"
   xmlns:rdf="http://www.w3.org/1999/02/22-rdf-syntax-ns#"
   xmlns:svg="http://www.w3.org/2000/svg"
   xmlns="http://www.w3.org/2000/svg"
   xmlns:sodipodi="http://sodipodi.sourceforge.net/DTD/sodipodi-0.dtd"
   xmlns:inkscape="http://www.inkscape.org/namespaces/inkscape"
   width="600mm"
   height="800mm"
   viewBox="0 0 600 800"
   version="1.1"
   id="svg848"
   inkscape:version="0.92.2 (5c3e80d, 2017-08-06)"
   sodipodi:docname="11.svg">
  <defs
     id="defs842" />
  <sodipodi:namedview
     id="base"
     pagecolor="#ffffff"
     bordercolor="#666666"
     borderopacity="1.0"
     inkscape:pageopacity="0.0"
     inkscape:pageshadow="2"
     inkscape:zoom="0.24745223"
     inkscape:cx="1594.1006"
     inkscape:cy="1663.54"
     inkscape:document-units="mm"
     inkscape:current-layer="layer1"
     showgrid="false"
     inkscape:snap-global="false"
     inkscape:window-width="1920"
     inkscape:window-height="1057"
     inkscape:window-x="-8"
     inkscape:window-y="-8"
     inkscape:window-maximized="1"
     fit-margin-top="0"
     fit-margin-left="0"
     fit-margin-right="0"
     fit-margin-bottom="0"
     showguides="false" />
  <metadata
     id="metadata845">
    <rdf:RDF>
      <cc:Work
         rdf:about="">
        <dc:format>image/svg+xml</dc:format>
        <dc:type
           rdf:resource="http://purl.org/dc/dcmitype/StillImage" />
        <dc:title></dc:title>
      </cc:Work>
    </rdf:RDF>
  </metadata>
  <g
     inkscape:label="Layer 1"
     inkscape:groupmode="layer"
     id="layer1"
     transform="translate(0,503)">
    <rect
       style="opacity:1;fill:#0046aa;fill-opacity:1;fill-rule:nonzero;stroke:none;stroke-width:2.93670321;stroke-linecap:butt;stroke-linejoin:miter;stroke-miterlimit:10;stroke-dasharray:none;stroke-opacity:1;paint-order:stroke fill markers"
       id="rect1393"
       width="600"
       height="800"
       x="0"
       y="-503" />
    <rect
       y="-498"
       x="5"
       height="790"
       width="590"
       id="rect1395"
       style="opacity:1;fill:#ffffff;fill-opacity:1;fill-rule:nonzero;stroke:none;stroke-width:2.89386988;stroke-linecap:butt;stroke-linejoin:miter;stroke-miterlimit:10;stroke-dasharray:none;stroke-opacity:1;paint-order:stroke fill markers" />
    <rect
       y="-488"
       x="15"
       height="770"
       width="570"
       id="rect1406"
       style="opacity:1;fill:#0046aa;fill-opacity:1;fill-rule:nonzero;stroke:none;stroke-width:2.80816269;stroke-linecap:butt;stroke-linejoin:miter;stroke-miterlimit:10;stroke-dasharray:none;stroke-opacity:1;paint-order:stroke fill markers" />
    <path
       cx="150"
       cy="147"
       r="150"
       id="path8376"
       style="opacity:1;fill:#d35f5f;fill-opacity:1;fill-rule:nonzero;stroke:none;stroke-width:3.92256045;stroke-linecap:butt;stroke-linejoin:miter;stroke-miterlimit:4;stroke-dasharray:none;stroke-opacity:1;paint-order:stroke fill markers"
       d=""
       inkscape:connector-curvature="0" />
    <rect
       style="opacity:1;fill:#ffffff;fill-opacity:1;fill-rule:nonzero;stroke:none;stroke-width:5.07322454;stroke-linecap:butt;stroke-linejoin:miter;stroke-miterlimit:4;stroke-dasharray:none;stroke-opacity:1;paint-order:stroke fill markers"
       id="rect828"
       width="500"
       height="500"
       x="50"
       y="-453" />
    <g
       aria-label="KTTT"
       style="font-style:normal;font-variant:normal;font-weight:bold;font-stretch:normal;font-size:161.6472168px;line-height:0;font-family:Giaothong2;-inkscape-font-specification:'Giaothong2 Bold';letter-spacing:6.29708338px;word-spacing:0px;fill:#000000;fill-opacity:1;stroke:none;stroke-width:0.84191257"
       id="text846"
       transform="translate(-756.10713,89.74407)">
      <path
         d="m 891.97535,-162.74408 q -0.86822,0 -0.86822,-0.94715 v -113.10569 q 0,-0.94715 0.86822,-0.94715 h 17.20659 q 0.94715,0 0.94715,0.94715 v 56.19766 q 11.28689,-14.2862 22.57378,-28.33562 11.28689,-14.12834 22.65271,-28.41455 0.39465,-0.39464 0.71037,-0.39464 h 20.36376 q 0.63143,0 0.86822,0.5525 0.23679,0.55251 -0.15786,1.02608 l -35.8339,44.12148 q 10.02402,17.12766 19.81125,33.9396 9.86616,16.81195 19.96911,33.93961 0.23679,0.5525 0,1.02608 -0.15785,0.39464 -0.78929,0.39464 h -20.36376 q -0.47357,0 -0.78929,-0.47357 l -30.30885,-54.14551 q -4.89362,5.05148 -9.39259,9.78724 -4.49897,4.73576 -9.31366,9.78723 v 34.09746 q 0,0.94715 -0.94715,0.94715 z"
         style="font-style:normal;font-variant:normal;font-weight:bold;font-stretch:normal;font-family:Giaothong2;-inkscape-font-specification:'Giaothong2 Bold';letter-spacing:6.29708338px;fill:#000000;fill-opacity:1;stroke:none;stroke-width:0.84191257"
         id="path871"
         inkscape:connector-curvature="0" />
      <path
         d="m 1017.061,-162.74408 q -0.9471,0 -0.9471,-0.94715 v -96.92519 h -30.07208 q -0.94715,0 -0.94715,-0.94715 v -15.23335 q 0,-0.94715 0.94715,-0.94715 h 79.08718 q 0.9471,0 0.9471,0.94715 v 15.23335 q 0,0.94715 -0.9471,0.94715 h -29.9931 v 96.92519 q 0,0.94715 -0.9472,0.94715 z"
         style="font-style:normal;font-variant:normal;font-weight:bold;font-stretch:normal;font-family:Giaothong2;-inkscape-font-specification:'Giaothong2 Bold';letter-spacing:6.29708338px;fill:#000000;fill-opacity:1;stroke:none;stroke-width:0.84191257"
         id="path873"
         inkscape:connector-curvature="0" />
      <path
         d="m 1104.6553,-162.74408 q -0.9471,0 -0.9471,-0.94715 v -96.92519 h -30.0721 q -0.9472,0 -0.9472,-0.94715 v -15.23335 q 0,-0.94715 0.9472,-0.94715 h 79.0872 q 0.9471,0 0.9471,0.94715 v 15.23335 q 0,0.94715 -0.9471,0.94715 h -29.9932 v 96.92519 q 0,0.94715 -0.9471,0.94715 z"
         style="font-style:normal;font-variant:normal;font-weight:bold;font-stretch:normal;font-family:Giaothong2;-inkscape-font-specification:'Giaothong2 Bold';letter-spacing:6.29708338px;fill:#000000;fill-opacity:1;stroke:none;stroke-width:0.84191257"
         id="path875"
         inkscape:connector-curvature="0" />
      <path
         d="m 1192.0917,-162.74408 q -0.9471,0 -0.9471,-0.94715 v -96.92519 h -30.0721 q -0.9472,0 -0.9472,-0.94715 v -15.23335 q 0,-0.94715 0.9472,-0.94715 h 79.0872 q 0.9471,0 0.9471,0.94715 v 15.23335 q 0,0.94715 -0.9471,0.94715 h -29.9932 v 96.92519 q 0,0.94715 -0.9471,0.94715 z"
         style="font-style:normal;font-variant:normal;font-weight:bold;font-stretch:normal;font-family:Giaothong2;-inkscape-font-specification:'Giaothong2 Bold';letter-spacing:6.29708338px;fill:#000000;fill-opacity:1;stroke:none;stroke-width:0.84191257"
         id="path877"
         inkscape:connector-curvature="0" />
    </g>
    <g
       aria-label="TRẠM"
       style="font-style:normal;font-variant:normal;font-weight:bold;font-stretch:normal;font-size:159.07623291px;line-height:0;font-family:Giaothong2;-inkscape-font-specification:'Giaothong2 Bold';letter-spacing:0px;word-spacing:0px;fill:#000000;fill-opacity:1;stroke:none;stroke-width:0.82852203"
       id="text850"
       transform="matrix(1.0004876,0,0,1.0004876,-810.93124,651.44171)">
      <g
         aria-label="TRẠM"
         style="font-style:normal;font-variant:normal;font-weight:bold;font-stretch:normal;font-size:161.34654236px;line-height:0;font-family:Giaothong2;-inkscape-font-specification:'Giaothong2 Bold';letter-spacing:3.35592604px;word-spacing:0px;fill:#000000;fill-opacity:1;stroke:none;stroke-width:0.69624561"
         id="text882">
        <path
           d="m 942.3942,-913.99639 q -0.94539,0 -0.94539,-0.94539 v -96.74492 h -30.01613 q -0.94539,0 -0.94539,-0.9454 v -15.205 q 0,-0.9454 0.94539,-0.9454 h 78.94006 q 0.94539,0 0.94539,0.9454 v 15.205 q 0,0.9454 -0.94539,0.9454 h -29.93735 v 96.74492 q 0,0.94539 -0.94539,0.94539 z"
           style="font-style:normal;font-variant:normal;font-weight:bold;font-stretch:normal;font-family:Giaothong2;-inkscape-font-specification:'Giaothong2 Bold';letter-spacing:3.35592604px;fill:#000000;fill-opacity:1;stroke:none;stroke-width:0.69624561"
           id="path905"
           inkscape:connector-curvature="0" />
        <path
           d="m 1025.3204,-1011.6867 v 32.37963 h 24.9741 q 9.1388,0 13.7081,-5.04208 4.5694,-5.04208 4.5694,-11.97494 0,-3.93911 -1.4181,-7.01161 -1.3393,-3.0725 -3.9391,-5.0421 -2.2847,-1.5757 -5.3572,-2.4423 -2.9937,-0.8666 -6.5389,-0.8666 z m -18.0411,97.69031 q -0.9454,0 -0.9454,-0.94539 v -112.89532 q 0,-0.9454 0.9454,-0.9454 h 44.1969 q 7.3268,0 13.2355,2.0484 5.9087,1.9695 10.3205,5.6723 2.2847,2.1271 4.333,4.8845 2.1272,2.6786 3.7028,5.8299 1.6544,3.1513 2.5998,6.6965 0.9454,3.5453 0.9454,7.32681 0,5.59356 -1.5756,10.63564 -1.5757,4.9633 -4.4119,9.29633 -2.9149,4.01791 -6.7752,7.09043 -3.8604,2.99373 -8.7449,4.80573 6.3814,12.21129 12.8415,24.58014 6.4602,12.29006 12.8416,24.50135 0.2363,0.55148 0,1.02417 -0.2364,0.39391 -0.7878,0.39391 h -20.3259 q -0.2364,0 -0.4727,-0.15756 -0.2364,-0.23635 -0.3939,-0.39391 l -23.0833,-47.66341 h -20.4047 v 47.26949 q 0,0.94539 -0.9453,0.94539 z"
           style="font-style:normal;font-variant:normal;font-weight:bold;font-stretch:normal;font-family:Giaothong2;-inkscape-font-specification:'Giaothong2 Bold';letter-spacing:3.35592604px;fill:#000000;fill-opacity:1;stroke:none;stroke-width:0.69624561"
           id="path907"
           inkscape:connector-curvature="0" />
        <path
           d="m 1101.3243,-914.07517 q -0.5515,0 -0.7878,-0.39391 -0.2363,-0.39391 -0.079,-0.86661 l 41.282,-112.97411 q 0.1576,-0.6302 0.7879,-0.6302 h 14.102 q 0.2364,0 0.4727,0.2363 0.3152,0.1576 0.3939,0.3939 l 41.2033,112.97411 q 0.1576,0.4727 -0.079,0.86661 -0.2364,0.39391 -0.7091,0.39391 h -18.0411 q -0.6303,0 -0.7879,-0.63026 l -8.5085,-24.89526 h -41.5971 q -2.2059,6.38138 -4.4119,12.52641 -2.1271,6.06625 -4.333,12.36885 -0.079,0.23635 -0.3939,0.4727 -0.2364,0.15756 -0.4727,0.15756 z m 63.5775,-42.46376 q -0.1576,-0.55148 -0.4727,-1.18174 -0.2363,-0.63026 -0.3939,-1.10295 -1.3393,-3.86034 -2.4423,-7.09043 -1.1029,-3.30886 -1.9695,-5.75112 -0.5515,-1.57565 -1.103,-3.07251 -0.4727,-1.49687 -0.9454,-2.83617 -0.3939,-1.26052 -0.7878,-2.36348 -0.3939,-1.18174 -0.7878,-2.28469 -0.7091,-2.28469 -1.4969,-4.56939 -0.709,-2.28469 -1.4969,-4.72694 -0.3939,-1.10296 -0.8666,-2.44226 -0.3939,-1.3393 -0.8666,-2.83617 -0.2363,-0.78783 -0.3939,-1.18174 -0.079,-0.47269 -0.2363,-0.86661 -0.1576,-0.47269 -0.3939,-1.02417 -0.1576,-0.5515 -0.4727,-1.5756 -0.8666,2.59977 -1.6545,4.80568 -0.709,2.20591 -1.3393,4.09669 -0.1575,0.4727 -0.2363,0.86661 -0.079,0.39391 -0.2364,0.78783 -0.3939,1.3393 -0.8666,2.52103 -0.3939,1.18174 -0.7878,2.36348 -0.3939,1.26052 -0.7878,2.44226 -0.3939,1.18173 -0.7879,2.28469 -0.7878,2.36347 -1.6544,4.9633 -0.7878,2.59982 -1.812,5.43599 -1.0242,2.83617 -2.1271,6.14503 -1.103,3.23008 -2.8362,8.19338 z m -22.9257,73.58284 q -0.8666,0 -0.8666,-0.8666 v -15.20502 q 0,-0.86661 0.8666,-0.86661 h 15.2838 q 0.7878,0 0.7878,0.86661 v 15.20502 q 0,0.8666 -0.7878,0.8666 z"
           style="font-style:normal;font-variant:normal;font-weight:bold;font-stretch:normal;font-family:Giaothong2;-inkscape-font-specification:'Giaothong2 Bold';letter-spacing:3.35592604px;fill:#000000;fill-opacity:1;stroke:none;stroke-width:0.69624561"
           id="path909"
           inkscape:connector-curvature="0" />
        <path
           d="m 1212.9169,-913.99639 q -0.9454,0 -0.9454,-0.94539 v -112.89532 q 0,-0.9454 0.9454,-0.9454 h 16.1504 q 0.5515,0 0.8666,0.5515 l 31.5918,71.61329 q 7.6419,-18.04119 15.3626,-35.76725 7.7207,-17.80484 15.4414,-35.84604 0.2363,-0.5515 0.8666,-0.5515 h 16.1504 q 0.9454,0 0.9454,0.9454 v 112.89532 q 0,0.94539 -0.9454,0.94539 h -17.0958 q -0.9454,0 -0.9454,-0.94539 v -66.64998 q -5.5148,12.84155 -11.1084,25.52553 -5.5935,12.68398 -11.0295,25.44674 -0.3151,0.47269 -0.8666,0.47269 h -14.2596 q -0.5515,0 -0.8666,-0.47269 l -22.2167,-51.12984 v 66.80755 q 0,0.94539 -0.9454,0.94539 z"
           style="font-style:normal;font-variant:normal;font-weight:bold;font-stretch:normal;font-family:Giaothong2;-inkscape-font-specification:'Giaothong2 Bold';letter-spacing:3.35592604px;fill:#000000;fill-opacity:1;stroke:none;stroke-width:0.69624561"
           id="path911"
           inkscape:connector-curvature="0" />
      </g>
    </g>
    <g
       transform="matrix(1.0004876,0,0,1.0004876,-290.77787,824.33304)"
       id="g924"
       style="font-style:normal;font-variant:normal;font-weight:bold;font-stretch:normal;font-size:159.07623291px;line-height:0;font-family:Giaothong2;-inkscape-font-specification:'Giaothong2 Bold';letter-spacing:0px;word-spacing:0px;fill:#000000;fill-opacity:1;stroke:none;stroke-width:0.82852203"
       aria-label="TRẠM">
      <g
         id="g922"
         style="font-style:normal;font-variant:normal;font-weight:bold;font-stretch:normal;font-size:161.34654236px;line-height:0;font-family:Giaothong2;-inkscape-font-specification:'Giaothong2 Bold';letter-spacing:3.35592604px;word-spacing:0px;fill:#000000;fill-opacity:1;stroke:none;stroke-width:0.69624561"
         aria-label="TRẠM" />
    </g>
  </g>
</svg>
