<svg version="1.2" xmlns="http://www.w3.org/2000/svg" viewBox="0 0 600 800" width="600" height="800">
	<title>Vietnam road sign I408a</title>
	<style>
		.s0 { fill: #0046aa } 
		.s1 { fill: #ffffff } 
	</style>
	<path id="Background" class="s0" d="m0 0h600v800h-600z"/>
	<path id="Shape 1" class="s1" d="m5 5h590v790h-590z"/>
	<path id="Shape 2" class="s0" d="m15 15h570v770h-570z"/>
	<path id="rect6074" fill-rule="evenodd" class="s1" d="m313.5 258h-73.4v123h-53.1v-320h126.5c54.6 0 98.5 43.9 98.5 98.5 0 54.6-43.9 98.5-98.5 98.5zm0-146.5h-73.4v96h73.4c25.2 0 45.4-20.2 45.4-45.4v-5.2c0-25.2-20.2-45.4-45.4-45.4z"/>
	<g id="Folder 1">
		<path id="rect9641" class="s1" d="m75 738.3h203.1v-16.9h246.9v38.1h-450z"/>
		<path id="rect10823" fill-rule="evenodd" class="s1" d="m358.6 419.4c10-0.6 28 5.8 32.1 21.8l26 110.8c10.6-0.7 25.3 11.8 25.8 19.2l4.2 62.6c-2.4 7.8-7.5 14-13.1 19.3l3.4 50.8c0.5 7.7-10.7 14.8-25.1 15.7-14.4 1-26.5-4.5-27-12.3l-3.4-50.7c-35.1 6.5-69.7 11.8-103.4 14-33.7 2.2-68.6 1.6-104.3-0.2l3.3 50.7c0.6 7.8-10.6 14.8-25.1 15.8-14.4 1-26.5-4.5-27-12.3l-3.3-50.8c-6.2-4.5-12.1-10-15.5-17.4l-4.2-62.6c-0.4-7.4 12.5-21.7 23.1-22.4l11.1-113.3c2-16.4 19-25.1 28.9-25.8zm-206.8 57l-6.8 67.7c-0.1 1.7 1.2 5.1 2.5 6.9 2.7 3.1 7.2 4.7 13.6 4.3 2.4-0.2 15.2-2 15.2-2 46.1-5.7 60.5-6.5 93.4-9.2 33-1.7 47.4-2.8 93.8-3.2 0 0 13 0.1 15.4-0.1 6.4-0.4 10.6-2.6 12.9-6 1.1-2 1.9-5.5 1.6-7.2l-15.7-66.2c-3.5-12.6-22.3-21.3-39.4-20.2l-150.2 10c-17 1.2-34.5 12.2-36.3 25.2zm32.9 109.7l0.7 11.2 174.9-11.6-0.7-11.3-58.7-1.3-58.2 3.9zm-48.7 2c-2.9 1.4-5.4 3.3-7.4 5.7-2.1 2.3-3.7 5.1-4.7 8-1 3-1.4 6.1-1.2 9.2 0.2 3.2 1.1 6.2 2.4 9 1.4 2.8 3.4 5.3 5.7 7.4 2.4 2 5.1 3.6 8.1 4.6 2.9 1 6.1 1.4 9.2 1.2 3.1-0.2 6.2-1 9-2.4 2.8-1.4 5.3-3.3 7.3-5.6 2.1-2.4 3.7-5.1 4.7-8.1 1-3 1.4-6.1 1.2-9.2-0.2-3.1-1-6.2-2.4-9-1.4-2.8-3.3-5.3-5.7-7.3-2.3-2.1-5.1-3.7-8-4.7-3-1-6.1-1.4-9.3-1.2-3.1 0.2-6.1 1-8.9 2.4zm254-16.9c-2.8 1.4-5.3 3.4-7.4 5.7-2 2.4-3.6 5.1-4.6 8.1-1 2.9-1.4 6.1-1.2 9.2 0.2 3.1 1 6.1 2.4 8.9 1.4 2.9 3.3 5.4 5.7 7.4 2.3 2.1 5 3.6 8 4.7 3 1 6.1 1.4 9.2 1.2 3.2-0.3 6.2-1.1 9-2.5 2.8-1.3 5.3-3.3 7.4-5.6 2.1-2.4 3.6-5.1 4.6-8.1 1-2.9 1.4-6.1 1.2-9.2-0.2-3.1-1-6.2-2.4-9-1.4-2.8-3.3-5.3-5.6-7.3-2.4-2.1-5.1-3.7-8.1-4.7-3-1-6.1-1.4-9.2-1.2-3.1 0.2-6.2 1.1-9 2.4zm-202.7 54l174.9-11.6-1.1-16.4-174.9 11.6zm1.5 22.7l58.8 1.3 58.1-3.9 58-9.1-0.7-11.2-174.9 11.6z"/>
	</g>
</svg>