<?xml version="1.0" encoding="UTF-8" standalone="no"?>
<!-- Created with Inkscape (http://www.inkscape.org/) -->

<svg
   width="600mm"
   height="800mm"
   viewBox="0 0 600 800"
   version="1.1"
   id="svg848"
   inkscape:version="1.2.2 (732a01da63, 2022-12-09)"
   sodipodi:docname="Vietnam_road_sign_I433b.svg"
   xmlns:inkscape="http://www.inkscape.org/namespaces/inkscape"
   xmlns:sodipodi="http://sodipodi.sourceforge.net/DTD/sodipodi-0.dtd"
   xmlns="http://www.w3.org/2000/svg"
   xmlns:svg="http://www.w3.org/2000/svg"
   xmlns:rdf="http://www.w3.org/1999/02/22-rdf-syntax-ns#"
   xmlns:cc="http://creativecommons.org/ns#"
   xmlns:dc="http://purl.org/dc/elements/1.1/">
  <defs
     id="defs842" />
  <sodipodi:namedview
     id="base"
     pagecolor="#ffffff"
     bordercolor="#666666"
     borderopacity="1.0"
     inkscape:pageopacity="0.0"
     inkscape:pageshadow="2"
     inkscape:zoom="0.17497516"
     inkscape:cx="1000.142"
     inkscape:cy="1717.3866"
     inkscape:document-units="mm"
     inkscape:current-layer="text20622"
     showgrid="false"
     inkscape:snap-global="false"
     inkscape:window-width="1920"
     inkscape:window-height="991"
     inkscape:window-x="-9"
     inkscape:window-y="-9"
     inkscape:window-maximized="1"
     fit-margin-top="0"
     fit-margin-left="0"
     fit-margin-right="0"
     fit-margin-bottom="0"
     showguides="false"
     inkscape:measure-start="0,0"
     inkscape:measure-end="0,0"
     inkscape:showpageshadow="2"
     inkscape:pagecheckerboard="0"
     inkscape:deskcolor="#d1d1d1" />
  <metadata
     id="metadata845">
    <rdf:RDF>
      <cc:Work
         rdf:about="">
        <dc:format>image/svg+xml</dc:format>
        <dc:type
           rdf:resource="http://purl.org/dc/dcmitype/StillImage" />
        <dc:title />
      </cc:Work>
    </rdf:RDF>
  </metadata>
  <g
     inkscape:label="Layer 1"
     inkscape:groupmode="layer"
     id="layer1"
     transform="translate(-50,753)">
    <rect
       style="opacity:1;fill:#0046aa;fill-opacity:1;fill-rule:nonzero;stroke:none;stroke-width:2.93670321;stroke-linecap:butt;stroke-linejoin:miter;stroke-miterlimit:10;stroke-dasharray:none;stroke-opacity:1;paint-order:stroke fill markers"
       id="rect1393"
       width="600"
       height="800"
       x="50"
       y="-753" />
    <rect
       y="-748"
       x="55"
       height="790"
       width="590"
       id="rect1395"
       style="opacity:1;fill:#ffffff;fill-opacity:1;fill-rule:nonzero;stroke:none;stroke-width:2.89386988;stroke-linecap:butt;stroke-linejoin:miter;stroke-miterlimit:10;stroke-dasharray:none;stroke-opacity:1;paint-order:stroke fill markers" />
    <rect
       y="-738"
       x="65"
       height="770"
       width="570"
       id="rect1406"
       style="opacity:1;fill:#0046aa;fill-opacity:1;fill-rule:nonzero;stroke:none;stroke-width:2.80816269;stroke-linecap:butt;stroke-linejoin:miter;stroke-miterlimit:10;stroke-dasharray:none;stroke-opacity:1;paint-order:stroke fill markers" />
    <path
       cx="150"
       cy="147"
       r="150"
       id="path8376"
       style="opacity:1;fill:#d35f5f;fill-opacity:1;fill-rule:nonzero;stroke:none;stroke-width:3.92256045;stroke-linecap:butt;stroke-linejoin:miter;stroke-miterlimit:4;stroke-dasharray:none;stroke-opacity:1;paint-order:stroke fill markers"
       d=""
       inkscape:connector-curvature="0" />
    <rect
       style="opacity:1;fill:#ffffff;fill-opacity:1;fill-rule:nonzero;stroke:none;stroke-width:5.07322454;stroke-linecap:butt;stroke-linejoin:miter;stroke-miterlimit:4;stroke-dasharray:none;stroke-opacity:1;paint-order:stroke fill markers"
       id="rect828"
       width="500"
       height="500"
       x="100"
       y="-703" />
    <g
       transform="matrix(1.0004876,0,0,1.0004876,-290.77787,824.33304)"
       id="g924"
       style="font-style:normal;font-variant:normal;font-weight:bold;font-stretch:normal;font-size:159.07623291px;line-height:0;font-family:Giaothong2;-inkscape-font-specification:'Giaothong2 Bold';letter-spacing:0px;word-spacing:0px;fill:#000000;fill-opacity:1;stroke:none;stroke-width:0.82852203"
       aria-label="TRẠM">
      <g
         id="g922"
         style="font-style:normal;font-variant:normal;font-weight:bold;font-stretch:normal;font-size:161.34654236px;line-height:0;font-family:Giaothong2;-inkscape-font-specification:'Giaothong2 Bold';letter-spacing:3.35592604px;word-spacing:0px;fill:#000000;fill-opacity:1;stroke:none;stroke-width:0.69624561"
         aria-label="TRẠM" />
    </g>
    <g
       aria-label="TRẠM RỬA XE"
       style="font-style:normal;font-variant:normal;font-weight:bold;font-stretch:normal;font-size:83.53499603px;line-height:0;font-family:Giaothong2;-inkscape-font-specification:'Giaothong2 Bold';letter-spacing:0.2460625px;word-spacing:0px;fill:#000000;fill-opacity:1;stroke:none;stroke-width:0.43507808"
       id="text20622"
       transform="translate(-157.26042,569.34396)">
      <path
         id="rect1732"
         style="opacity:1;fill:#000000;fill-opacity:1;fill-rule:nonzero;stroke:none;stroke-width:19.1789;stroke-linecap:square;stroke-linejoin:round;stroke-miterlimit:4;stroke-dasharray:none;stroke-opacity:1;paint-order:stroke fill markers"
         d="m 461.70047,-1233.1727 c -8.85221,0 -15.97543,7.1234 -15.97543,15.9736 v 22.6283 h -14.64715 c -10.32458,0 -18.63647,8.3126 -18.63647,18.6376 v 8.5161 l -41.3945,24.362 c -2.4958,1.8462 -5.6132,2.6314 -6.66614,6.5266 l -5.99172,20.4991 3.62985,1.0829 c -11.77399,39.1167 -31.2489,92.218 -40.18394,139.86463 -2.28896,12.20502 -7.55658,26.56218 -3.40897,41.14955 1.98792,6.98793 4.97025,14.95243 9.48191,21.88398 4.51168,6.93114 10.78745,13.07885 19.35892,14.97298 9.42092,2.08229 18.85892,-0.80592 26.96774,-5.63116 8.10887,-4.82469 15.09923,-11.67515 20.03414,-18.74264 11.80372,-16.90239 8.86572,-37.45668 8.51677,-56.93665 -0.94557,-52.05879 -5.4032,-65.57659 -6.3645,-97.76099 -0.24781,-7.884 -1.86862,-17.3176 -2.55974,-25.3507 -0.33773,-4.0165 -0.45029,-7.664 -0.22505,-10.2614 0.29259,-2.5972 1.08062,-3.7787 1.12565,-3.8158 v -0.035 l 0.47279,-0.4187 0.74292,0.6979 7.98096,-3.3736 7.18848,2.6642 1.19323,3.1876 v 247.08375 h -89.1877 v 31.94733 h 372.74459 v -31.94733 H 606.70852 V -1175.944 c 0,-10.3255 -8.31189,-18.6381 -18.63647,-18.6381 h -14.64711 v -22.6278 c 0,-8.8503 -7.12322,-15.9739 -15.97321,-15.9739 z m 5.32662,58.5659 h 85.19697 v 29.2832 h -85.19697 z m -77.3421,37.927 c 3.3027,-0.2022 5.20057,3.2767 2.38417,6.143 l -5.18931,6.5266 0.90052,0.8488 c -3.03254,2.7855 -3.97583,6.5093 -4.39909,10.2148 -0.45029,3.8327 -0.24778,7.9908 0.22504,12.3318 0.74292,8.6819 2.3256,18.1606 2.52372,24.7807 0.99061,33.0447 5.41894,46.1379 6.342,97.63297 0.36012,20.21521 2.33464,37.97794 -6.6324,50.81754 -4.07491,5.83459 -10.2235,11.81928 -16.8341,15.75252 -6.61033,3.93337 -13.47239,5.72308 -19.41722,4.40937 -4.94706,-1.09405 -9.25026,-4.8894 -12.89065,-10.48238 -3.64016,-5.59298 -6.39061,-12.73893 -8.19036,-19.06826 -2.9515,-10.38004 1.1347,-23.08411 3.62984,-36.39124 8.68964,-46.33732 28.00177,-99.07942 39.93966,-138.80602 l 4.24646,1.2675 2.65274,-9.9121 c 2.78872,-11.9408 7.49399,-15.8536 10.79668,-16.0666 z m 77.3421,3.339 h 85.19697 v 51.9226 h -85.19697 z" />
    </g>
  </g>
</svg>
