<?xml version="1.0" encoding="UTF-8" standalone="no"?>
<svg
   sodipodi:docname="Vietnam_road_sign_I444b.svg"
   inkscape:version="1.2.2 (732a01da63, 2022-12-09)"
   id="svg848"
   version="1.1"
   viewBox="0 0 1517.4158 500"
   height="500mm"
   width="1517.4159mm"
   xmlns:inkscape="http://www.inkscape.org/namespaces/inkscape"
   xmlns:sodipodi="http://sodipodi.sourceforge.net/DTD/sodipodi-0.dtd"
   xmlns="http://www.w3.org/2000/svg"
   xmlns:svg="http://www.w3.org/2000/svg"
   xmlns:rdf="http://www.w3.org/1999/02/22-rdf-syntax-ns#"
   xmlns:cc="http://creativecommons.org/ns#"
   xmlns:dc="http://purl.org/dc/elements/1.1/">
  <defs
     id="defs842" />
  <sodipodi:namedview
     inkscape:document-rotation="0"
     inkscape:measure-end="0,0"
     inkscape:measure-start="0,0"
     showguides="true"
     fit-margin-bottom="0"
     fit-margin-right="0"
     fit-margin-left="0"
     fit-margin-top="0"
     inkscape:window-maximized="1"
     inkscape:window-y="-9"
     inkscape:window-x="-9"
     inkscape:window-height="991"
     inkscape:window-width="1920"
     inkscape:snap-global="false"
     showgrid="false"
     inkscape:current-layer="text2903"
     inkscape:document-units="mm"
     inkscape:cy="501.07968"
     inkscape:cx="3712.9812"
     inkscape:zoom="0.26043762"
     inkscape:pageshadow="2"
     inkscape:pageopacity="0.0"
     borderopacity="1.0"
     bordercolor="#666666"
     pagecolor="#ffffff"
     id="base"
     inkscape:showpageshadow="2"
     inkscape:pagecheckerboard="0"
     inkscape:deskcolor="#d1d1d1" />
  <metadata
     id="metadata845">
    <rdf:RDF>
      <cc:Work
         rdf:about="">
        <dc:format>image/svg+xml</dc:format>
        <dc:type
           rdf:resource="http://purl.org/dc/dcmitype/StillImage" />
        <dc:title />
      </cc:Work>
    </rdf:RDF>
  </metadata>
  <g
     transform="translate(-530.52646,11.947886)"
     id="layer1"
     inkscape:groupmode="layer"
     inkscape:label="Layer 1">
    <path
       inkscape:connector-curvature="0"
       d=""
       style="opacity:1;fill:#d35f5f;fill-opacity:1;fill-rule:nonzero;stroke:none;stroke-width:3.92256;stroke-linecap:butt;stroke-linejoin:miter;stroke-miterlimit:4;stroke-dasharray:none;stroke-opacity:1;paint-order:stroke fill markers"
       id="path8376"
       r="150"
       cy="147"
       cx="150" />
    <g
       inkscape:groupmode="layer"
       transform="translate(-4496.0426,2396.6803)"
       id="text3577"
       style="font-style:normal;font-variant:normal;font-weight:bold;font-stretch:normal;font-size:299.854px;line-height:0;font-family:Giaothong1;-inkscape-font-specification:'Giaothong1 Bold';letter-spacing:0px;word-spacing:0px;fill:#ffcc00;fill-opacity:1;stroke:none;stroke-width:1.56174"
       aria-label="VỊNH">
      <g
         id="text3665"
         style="font-style:normal;font-variant:normal;font-weight:bold;font-stretch:normal;font-size:299.854px;line-height:0;font-family:Giaothong1;-inkscape-font-specification:'Giaothong1 Bold';letter-spacing:-2.78077px;word-spacing:0px;fill:#ffcc00;fill-opacity:1;stroke:none;stroke-width:2.43903"
         aria-label="VỊNH" />
    </g>
    <g
       inkscape:groupmode="layer"
       id="text2719"
       style="font-style:normal;font-variant:normal;font-weight:bold;font-stretch:normal;font-size:184.173px;line-height:0;font-family:Giaothong1;-inkscape-font-specification:'Giaothong1 Bold';letter-spacing:0px;word-spacing:0.486833px;fill:#ffffff;fill-opacity:1;stroke:none;stroke-width:0.959232"
       aria-label="CÔNG TRƯỜNG">
      <g
         inkscape:groupmode="layer"
         id="text2888"
         style="font-style:normal;font-variant:normal;font-weight:bold;font-stretch:normal;font-size:187.408px;line-height:0;font-family:Giaothong1;-inkscape-font-specification:'Giaothong1 Bold';letter-spacing:0.00264583px;word-spacing:0px;fill:#ffffff;fill-opacity:1;stroke:none;stroke-width:0.936293"
         aria-label="AHEAD">
        <g
           inkscape:groupmode="layer"
           id="text2903"
           style="font-style:normal;font-variant:normal;font-weight:bold;font-stretch:normal;font-size:184.173px;line-height:0;font-family:Giaothong1;-inkscape-font-specification:'Giaothong1 Bold';letter-spacing:0.00529167px;word-spacing:0px;fill:#ffffff;fill-opacity:1;stroke:none;stroke-width:0.898123"
           aria-label="WORKS">
          <path
             d="m 708.33916,-11.947699 1339.60314,-1.87e-4 V 488.05211 H 708.33916 L 530.52646,238.0523 Z"
             style="opacity:1;fill:#0046aa;fill-opacity:1;fill-rule:nonzero;stroke:none;stroke-width:1.27163;stroke-linecap:butt;stroke-linejoin:miter;stroke-miterlimit:10;stroke-dasharray:none;stroke-opacity:1;paint-order:stroke fill markers"
             id="rect1393"
             sodipodi:nodetypes="cccccc" />
          <path
             id="rect1395"
             style="opacity:1;fill:#ffffff;fill-opacity:1;fill-rule:nonzero;stroke:none;stroke-width:1.22924;stroke-linecap:butt;stroke-linejoin:miter;stroke-miterlimit:10;stroke-dasharray:none;stroke-opacity:1;paint-order:stroke fill markers"
             d="M 710.47731,-3.6148361 540.46021,238.0523 710.47731,479.72219 H 2039.6045 V -3.6148361 Z m 8.3265,8.33846 h 68.59 V 471.38374 h -68.59 L 554.2984,238.0523 Z m 547.16509,0 h 765.309 V 238.05368 471.38374 h -765.309 z"
             sodipodi:nodetypes="cccccccccccccccccc" />
          <path
             id="rect49862"
             style="opacity:1;fill:#0046aa;fill-opacity:1;stroke:none;stroke-width:98.6839;stroke-dasharray:none;stroke-opacity:1;paint-order:stroke fill markers"
             d="m 836.26727,33.723562 v 68.120248 121.73012 68.12002 152.96598 h 84.93707 V 291.69395 h 107.52186 c 71.4565,0 128.9813,-57.52296 128.9813,-128.97924 0,-71.456275 -57.5248,-128.991148 -128.9813,-128.991148 H 921.20434 Z m 84.93707,68.120248 h 90.36666 c 33.7243,0 60.8717,27.14902 60.8717,60.8709 0,33.72186 -27.1474,60.85922 -60.8717,60.85922 h -90.36666 z"
             sodipodi:nodetypes="cccccccssscccssscc" />
          <g
             aria-label="BÃI ĐỖ XE"
             id="text6209"
             style="font-weight:normal;font-size:167.373px;font-family:Giaothong2;-inkscape-font-specification:Giaothong2;letter-spacing:0.118773px;opacity:1;stroke-width:231.773;paint-order:stroke fill markers">
            <path
               d="m 1289.3663,184.03577 q -0.9807,0 -0.9807,-0.98071 V 65.942999 q 0,-0.980701 0.9807,-0.980701 h 45.4392 q 17.244,0 26.4789,9.234936 9.1532,9.071486 9.1532,23.209928 0,7.763888 -3.5959,14.383618 -3.269,6.21111 -12.177,10.78771 8.2542,2.6152 12.7491,10.05219 2.37,4.08625 3.5959,8.41768 1.3076,4.24971 1.3076,8.82631 0,15.6095 -10.0522,24.92616 -9.9705,9.23494 -23.4551,9.23494 z m 18.715,-51.97717 v 33.34384 h 26.3973 q 9.2349,0 13.7298,-4.98523 4.4131,-4.98523 4.4131,-11.68669 0,-6.538 -4.4131,-11.60496 -4.2497,-5.06696 -13.7298,-5.06696 z m 0,-49.361956 v 31.627616 h 24.7628 q 9.2349,0 13.4846,-4.57661 4.4131,-4.49488 4.4131,-11.196337 0,-6.619733 -4.4131,-11.114613 -4.4132,-4.740056 -13.4846,-4.740056 z"
               id="path123775" />
            <path
               d="m 1380.0365,183.95404 q -0.5721,0 -0.8173,-0.40862 -0.2451,-0.40863 -0.082,-0.89898 l 42.824,-117.193792 q 0.1634,-0.653801 0.8172,-0.653801 h 14.6288 q 0.2452,0 0.4904,0.245176 0.3269,0.16345 0.4086,0.408625 l 42.7422,117.193792 q 0.1635,0.49035 -0.082,0.89898 -0.2452,0.40862 -0.7355,0.40862 h -18.7151 q -0.6538,0 -0.8172,-0.6538 l -8.8264,-25.82513 h -43.1508 q -2.2883,6.61973 -4.5766,12.99429 -2.2066,6.29283 -4.4949,12.83084 -0.082,0.24518 -0.4086,0.49035 -0.2452,0.16345 -0.4904,0.16345 z m 65.9521,-44.04983 q -0.1634,-0.57207 -0.4903,-1.22587 -0.2452,-0.6538 -0.4086,-1.14416 -1.3894,-4.00453 -2.5335,-7.35525 -1.1442,-3.43246 -2.0431,-5.96594 -0.5721,-1.6345 -1.1442,-3.18728 -0.4903,-1.55277 -0.9807,-2.9421 -0.4086,-1.3076 -0.8172,-2.45175 -0.4087,-1.22588 -0.8173,-2.37003 -0.7355,-2.37003 -1.5528,-4.74006 -0.7355,-2.37002 -1.5528,-4.9035 -0.4086,-1.14415 -0.8989,-2.53348 -0.4087,-1.389326 -0.899,-2.942103 -0.2452,-0.817251 -0.4086,-1.225876 -0.082,-0.490351 -0.2452,-0.898976 -0.1635,-0.490351 -0.4086,-1.062426 -0.1635,-0.572076 -0.4904,-1.634502 -0.899,2.696928 -1.7162,4.985231 -0.7355,2.288302 -1.3893,4.249702 -0.1635,0.49035 -0.2452,0.89898 -0.082,0.40862 -0.2452,0.81725 -0.4086,1.38933 -0.899,2.6152 -0.4086,1.22588 -0.8172,2.45176 -0.4086,1.3076 -0.8173,2.53347 -0.4086,1.22588 -0.8172,2.37003 -0.8173,2.45175 -1.7162,5.14868 -0.8173,2.69693 -1.8797,5.63903 -1.0624,2.94211 -2.2066,6.37456 -1.1441,3.35073 -2.9421,8.49941 z M 1404.554,51.314206 q -0.9807,0 -0.8172,-0.980701 0.572,-4.00453 1.9614,-7.273534 1.471,-3.269004 3.6776,-5.802482 2.2066,-2.288302 5.1487,-3.514179 2.9421,-1.307602 6.2111,-1.307602 1.471,0 2.8604,0.163451 1.3893,0.16345 2.7786,0.6538 1.4711,0.490351 2.7787,0.980702 1.3893,0.49035 2.2883,0.817251 2.8603,1.471051 5.1487,2.206577 1.5527,0.735526 3.6776,0.735526 1.8797,0 3.6776,-1.144151 1.5528,-1.062426 2.2066,-4.658331 0.1634,-0.653801 0.899,-0.653801 h 8.4994 q 1.0624,0 0.8989,0.980702 -0.4903,3.514179 -1.7162,6.619733 -1.2259,3.023828 -3.1055,5.557306 -2.0432,2.615203 -4.9853,4.16798 -2.9421,1.471052 -6.7831,1.552777 -1.4711,0 -2.9421,-0.245175 -1.3894,-0.245176 -2.697,-0.817251 h 0.082 q -0.8989,-0.16345 -2.37,-0.653801 -1.471,-0.572076 -3.4324,-1.307602 -2.5335,-1.144151 -4.8218,-1.797952 -2.2883,-0.6538 -4.4949,-0.735526 -1.2259,0 -3.269,1.144152 l 0.082,-0.08172 q -2.0431,1.307601 -2.0431,4.576605 0,0.817251 -0.8173,0.817251 z"
               id="path123777" />
            <path
               d="m 1495.7145,184.03577 q -0.9807,0 -0.9807,-0.98071 V 65.942999 q 0,-0.980701 0.9807,-0.980701 h 17.7344 q 0.9807,0 0.9807,0.980701 V 183.05506 q 0,0.98071 -0.9807,0.98071 z"
               id="path123779" />
            <path
               d="m 1579.3934,184.03577 q -0.899,0 -0.899,-0.98071 V 132.7124 h -8.5811 q -0.899,0 -0.899,-0.89897 v -16.83537 q 0,-0.9807 0.899,-0.9807 h 8.5811 V 65.942999 q 0,-0.980701 0.899,-0.980701 h 41.026 q 24.4358,0 36.5311,20.186099 2.2066,3.922805 3.5959,7.436984 1.3894,3.514179 1.798,6.864908 0.9807,6.538011 0.9807,25.089601 0,9.97047 -0.3269,16.67192 -0.3269,6.61974 -0.9807,9.97047 -0.6538,3.43245 -2.0432,6.70145 -1.3076,3.18728 -3.3507,6.37456 v -0.0817 q -5.4756,8.41768 -14.7105,14.13844 -9.5618,5.72076 -22.6379,5.72076 z m 18.7968,-100.2767 v 30.23829 h 21.3302 q 0.9807,0 0.9807,0.9807 v 16.83537 q 0,0.89897 -0.9807,0.89897 h -21.3302 v 32.69004 h 20.2678 q 14.0567,0 20.9216,-9.80701 2.8604,-4.33143 3.4325,-9.07148 0.4086,-2.61521 0.5721,-7.84561 0.2451,-5.31214 0.2451,-13.48465 0,-7.92733 -0.2451,-13.23946 -0.1635,-5.31213 -0.5721,-8.41769 -0.899,-5.802478 -4.2497,-10.379084 -6.9467,-9.398386 -20.1044,-9.398386 z"
               id="path123781" />
            <path
               d="m 1694.9897,54.41976 q -0.7355,0 -0.9807,-0.572076 -0.1634,-0.653801 0.4087,-1.062426 l 24.0272,-19.041948 h 10.9511 l 24.3541,19.041948 q 0.5721,0.408625 0.3269,1.062426 -0.1635,0.572076 -0.8173,0.572076 h -13.8115 l -16.2633,-8.744586 q -3.5959,2.206578 -7.2735,4.413156 -3.6777,2.206577 -7.2736,4.33143 z m -14.4653,69.13943 q 0,-10.70598 0.2452,-17.48917 0.3269,-6.783181 0.8172,-9.888735 0.5721,-3.105554 1.6345,-5.965932 1.0625,-2.860379 2.6152,-5.639032 h -0.082 q 4.2497,-7.927334 13.7298,-14.710518 9.5619,-6.864908 23.782,-6.864908 14.0567,0 23.6186,6.864908 9.6435,6.946634 13.8933,14.710518 3.0238,5.557307 4.0862,11.604964 0.5721,3.105554 0.8173,9.888735 0.3269,6.78319 0.3269,17.48917 0,21.00335 -1.1442,27.45964 -0.5721,3.18727 -1.6345,6.04765 -0.9807,2.86038 -2.37,5.47558 -4.3315,7.84561 -13.975,14.71052 -9.6436,6.78319 -23.6186,6.78319 -14.1384,0 -23.782,-6.78319 -9.4801,-6.70146 -13.7298,-14.71052 h 0.082 q -1.5527,-2.77865 -2.6152,-5.5573 -1.0624,-2.86038 -1.6345,-5.96593 -0.4903,-3.10556 -0.8172,-9.88874 -0.2452,-6.86491 -0.2452,-17.5709 z m 19.6958,0 q 0,8.90804 0.2451,14.71052 0.2452,5.72076 0.899,8.49941 0.6538,2.53348 1.798,5.06696 1.2258,2.45175 2.6969,4.33143 2.6152,3.43245 6.9466,5.8842 4.3314,2.37003 10.4608,2.37003 6.0477,0 10.3791,-2.37003 4.3314,-2.45175 6.8649,-5.8842 3.4325,-4.16798 4.4949,-9.39839 1.3076,-5.23041 1.3076,-23.20993 0,-8.90803 -0.3269,-14.62879 -0.3269,-5.80248 -0.9807,-8.49941 -0.5721,-2.615203 -1.7162,-5.066956 -1.1442,-2.533478 -2.6969,-4.49488 -1.2259,-1.552777 -3.0239,-3.023829 -1.7162,-1.471052 -3.9228,-2.533478 -2.2066,-1.144151 -4.8218,-1.797952 -2.6152,-0.735526 -5.5573,-0.735526 -6.1294,0 -10.4608,2.451753 -4.3314,2.451753 -6.9466,5.639032 -1.5528,1.961402 -2.6969,4.49488 -1.1442,2.451753 -1.798,5.066956 -0.6538,2.77865 -0.899,8.58114 -0.2451,5.80248 -0.2451,14.54706 z m -0.9807,-94.31076 q -0.9807,0 -0.8173,-0.980702 0.5721,-4.004529 1.9614,-7.273533 1.4711,-3.269004 3.6776,-5.802482 2.2066,-2.288303 5.1487,-3.514179 2.9421,-1.307602 6.2111,-1.307602 1.4711,0 2.8604,0.16345 1.3893,0.16345 2.7787,0.653801 1.471,0.490351 2.7786,0.980701 1.3893,0.490351 2.2883,0.817251 2.8604,1.471052 5.1487,2.206578 1.5528,0.735526 3.6776,0.735526 1.8797,0 3.6776,-1.144152 1.5528,-1.062426 2.2066,-4.65833 0.1635,-0.6538011 0.899,-0.6538011 h 8.4994 q 1.0624,0 0.899,0.9807011 -0.4904,3.514179 -1.7162,6.619733 -1.2259,3.023829 -3.1056,5.557307 -2.0431,2.615203 -4.9852,4.16798 -2.9421,1.471051 -6.7832,1.552777 -1.4711,0 -2.9421,-0.245176 -1.3893,-0.245175 -2.6969,-0.817251 h 0.082 q -0.899,-0.16345 -2.37,-0.6538 -1.4711,-0.572076 -3.4325,-1.307602 -2.5335,-1.144151 -4.8218,-1.797952 -2.2883,-0.653801 -4.4949,-0.735526 -1.2258,0 -3.269,1.144151 l 0.082,-0.08173 q -2.0432,1.307602 -2.0432,4.576606 0,0.817251 -0.8172,0.817251 z"
               id="path123783" />
            <path
               d="m 1887.0361,184.03577 q -0.4903,0 -0.8172,-0.49035 l -24.8445,-42.17016 q -6.2111,10.62427 -12.4222,21.08508 -6.2111,10.46081 -12.4222,21.08508 -0.3269,0.49035 -0.8172,0.49035 h -20.0227 q -0.6538,0 -0.899,-0.40863 -0.2451,-0.49035 0.082,-1.06243 l 35.5504,-59.57759 q -8.4177,-14.22017 -16.6719,-28.276887 -8.2543,-14.056717 -16.5902,-28.276884 -0.3269,-0.572075 -0.082,-0.980701 0.2452,-0.49035 0.8173,-0.49035 h 20.1044 q 0.4903,0 0.8172,0.49035 l 22.5561,39.228052 q 5.6391,-9.807017 11.2781,-19.532303 5.639,-9.807012 11.2781,-19.695749 0.3269,-0.49035 0.8172,-0.49035 h 20.1044 q 0.5721,0 0.8172,0.49035 0.2452,0.408626 -0.082,0.980701 l -33.2621,56.553771 q 8.9898,14.95569 17.8161,29.82966 8.8263,14.79224 17.816,29.74793 0.3269,0.57208 0.082,1.06243 -0.2452,0.40863 -0.899,0.40863 z"
               id="path123785" />
            <path
               d="m 1921.3159,184.03577 q -0.9807,0 -0.9807,-0.98071 V 65.942999 q 0,-0.980701 0.9807,-0.980701 h 74.8602 q 0.9807,0 0.9807,0.980701 v 16.83537 q 0,0.980701 -0.9807,0.980701 h -56.1451 v 31.38244 h 47.7275 q 0.9807,0 0.9807,0.9807 v 15.85467 q 0,0.89897 -0.9807,0.89897 h -47.7275 v 32.52659 h 56.1451 q 0.9807,0 0.9807,0.9807 v 16.67192 q 0,0.98071 -0.9807,0.98071 z"
               id="path123787" />
          </g>
          <g
             aria-label="Parking Lot"
             transform="scale(0.9944476,1.0055834)"
             id="text6213"
             style="font-weight:normal;font-size:138.692px;font-family:Giaothong2;-inkscape-font-specification:Giaothong2;letter-spacing:1.7222px;opacity:1;stroke-width:192.058;paint-order:stroke fill markers">
            <path
               d="m 1336.0198,280.40227 v 29.66167 h 21.0611 q 7.7879,0 11.5803,-4.67273 3.8601,-4.53728 3.8601,-10.1581 0,-8.39737 -5.9595,-12.25745 -3.86,-2.57339 -10.0226,-2.57339 z m -15.508,83.09331 q -0.8127,0 -0.8127,-0.81265 v -97.04377 q 0,-0.81265 0.8127,-0.81265 h 35.2147 q 5.824,0 11.0385,1.21897 5.2822,1.21898 11.2416,5.82398 2.3025,1.82846 4.1987,4.26641 1.9639,2.37022 3.5215,5.28221 1.4899,2.97972 2.3025,6.56891 0.8127,3.5892 0.8127,7.65244 0,10.63215 -7.9911,20.31621 -7.991,9.61634 -23.2282,9.61634 h -21.6029 v 37.11095 q 0,0.81265 -0.8126,0.81265 z"
               id="path123754" />
            <path
               d="m 1431.4675,363.76646 q -0.8127,0 -0.8127,-0.81265 v -3.79236 q -0.9481,1.21897 -2.2348,2.16706 -1.219,0.88037 -2.6411,1.42214 -2.0993,0.88037 -4.9436,1.35441 -2.7765,0.47405 -6.0949,0.47405 -11.6479,-0.27088 -17.7428,-6.36575 v 0.0677 q -6.6366,-6.02714 -6.6366,-15.50804 0,-8.87141 5.6885,-14.96627 5.824,-6.09487 16.7948,-6.23031 h 17.8105 v -6.43347 q 0.1354,-8.39736 -12.8669,-8.05876 -2.3703,0 -4.2664,0.20316 -1.8962,0.20317 -3.4538,0.74493 h 0.068 q -1.3544,0.67721 -2.4379,1.69302 -1.0835,0.94809 -1.8285,2.3025 -0.474,0.81265 -1.2189,0.20316 l -10.5645,-8.32964 q -0.2709,-0.20316 -0.3386,-0.47405 -0.068,-0.3386 0.1355,-0.60948 7.8556,-10.63215 23.2282,-10.29355 6.4334,-0.0677 11.5125,1.15125 5.079,1.21897 9.0746,3.86008 7.8556,5.5531 7.9233,18.35231 v 47.06589 q 0,0.81265 -0.8127,0.81265 z m -0.8127,-29.18762 h -15.3049 q -10.903,0.3386 -10.8353,7.51699 0,3.04744 2.7766,5.41766 2.8442,2.50567 9.0745,2.50567 8.3297,0.0677 11.5126,-1.9639 h -0.068 q 2.8443,-1.89618 2.8443,-9.21002 z"
               id="path123756" />
            <path
               d="m 1460.752,363.49558 q -0.745,0 -0.745,-0.81265 v -68.66879 q 0,-0.81265 0.745,-0.81265 h 13.8827 q 0.7449,0 0.7449,0.81265 v 5.55309 q 6.5012,-7.11067 17.3365,-7.11067 7.7879,0 14.8309,5.41766 0.2709,0.20316 0.2709,0.54176 0.068,0.3386 -0.1355,0.60949 l -9.9549,11.91884 q -0.4741,0.60949 -1.0836,0.13544 -4.4018,-3.25059 -8.6682,-3.25059 -4.8082,0 -8.736,3.25059 -3.8601,3.2506 -3.8601,10.36127 v 41.24191 q 0,0.81265 -0.7449,0.81265 z"
               id="path123758" />
            <path
               d="m 1519.1564,363.49558 q -0.8126,0 -0.8126,-0.81265 v -96.36656 q 0,-0.81265 0.8126,-0.81265 h 13.815 q 0.8127,0 0.8127,0.81265 v 58.10436 q 6.3657,-7.78788 12.596,-15.44032 6.2981,-7.72016 12.6638,-15.50804 0.2709,-0.27088 0.6095,-0.27088 h 16.5238 q 0.5418,0 0.745,0.47404 0.2031,0.47405 -0.1355,0.88037 l -23.2959,26.4788 q 6.7044,10.42898 13.2733,20.65481 6.6366,10.15811 13.3409,20.58709 0.2709,0.47405 0.068,0.88037 -0.2032,0.33861 -0.745,0.33861 h -17.3365 q -0.4063,0 -0.6772,-0.40633 l -17.6751,-31.0838 q -2.4379,2.84427 -5.0113,5.62082 -2.5057,2.77655 -4.9436,5.62082 v 19.43584 q 0,0.81265 -0.8127,0.81265 z"
               id="path123760" />
            <path
               d="m 1592.9335,363.49558 q -0.8127,0 -0.8127,-0.81265 v -68.66879 q 0,-0.81265 0.8127,-0.81265 h 13.815 q 0.7449,0 0.7449,0.81265 v 68.66879 q 0,0.81265 -0.7449,0.81265 z m 0,-82.55154 q -0.8127,0 -0.8127,-0.81265 v -13.81502 q 0,-0.81265 0.8127,-0.81265 h 13.815 q 0.7449,0 0.7449,0.81265 v 13.81502 q 0,0.81265 -0.7449,0.81265 z"
               id="path123762" />
            <path
               d="m 1627.7033,363.49558 q -0.8126,0 -0.8126,-0.81265 v -68.66879 q 0,-0.81265 0.8126,-0.81265 h 13.8151 q 0.8126,0 0.8126,0.81265 v 5.55309 q 6.5012,-7.11067 17.3365,-7.11067 4.1987,0 8.1265,1.55758 3.9278,1.55757 7.8556,4.67272 7.7202,6.29803 7.7202,18.35231 v 45.64376 q 0,0.81265 -0.8127,0.81265 h -13.815 q -0.8127,0 -0.8127,-0.81265 v -40.90331 q 0,-6.70435 -3.5892,-10.29354 -3.7923,-3.65692 -9.0745,-3.65692 -5.6886,0 -9.3455,3.65692 -3.5892,3.58919 -3.5892,10.29354 v 40.90331 q 0,0.81265 -0.8126,0.81265 z"
               id="path123764" />
            <path
               d="m 1741.6387,357.53616 q -7.1784,6.77207 -16.9301,6.77207 -6.9075,0 -11.7157,-2.77655 -2.2348,-1.35442 -4.131,-2.84427 -1.8284,-1.55758 -2.9797,-3.04743 -1.4898,-1.9639 -2.5734,-4.06325 -1.0835,-2.16706 -1.6253,-4.33412 -1.0835,-4.13096 -1.0835,-18.82636 0,-14.62767 1.0835,-18.75863 0.5418,-2.16706 1.5576,-4.33413 1.0835,-2.16706 2.6411,-4.13096 2.3025,-2.97971 7.1107,-5.82398 4.605,-2.91199 11.7157,-2.91199 9.4131,0 16.9301,6.97523 v -5.41765 q 0,-0.81265 0.745,-0.81265 h 13.8827 q 0.7449,0 0.7449,0.81265 v 67.11121 q 0,15.77893 -9.2777,23.43137 -9.2777,7.51699 -21.2643,7.51699 -6.9075,0 -13.2733,-3.25059 -6.6366,-3.31831 -11.2416,-8.53281 -0.2032,-0.27088 -0.2032,-0.60948 0.068,-0.33861 0.3387,-0.47405 l 10.7675,-8.53281 q 0.4741,-0.3386 0.9481,0 2.438,2.43795 5.7563,4.19869 3.3183,1.76073 7.1784,1.76073 6.6366,0 10.6999,-3.58919 4.1986,-3.65692 4.1986,-10.42899 z m -25.5984,-29.11991 q 0,3.99552 0.068,6.77207 0.068,2.70883 0.2709,4.06325 0.2709,1.35441 0.7449,2.57338 0.5418,1.15125 1.4222,2.16706 0.6095,0.88037 1.5576,1.76074 1.0158,0.88037 2.3025,1.6253 1.2867,0.67721 2.912,1.15125 1.6252,0.40633 3.5891,0.40633 1.8962,0 3.4538,-0.40633 1.6253,-0.47404 2.912,-1.15125 1.2867,-0.74493 2.2348,-1.6253 1.0158,-0.88037 1.693,-1.76074 0.7449,-1.08353 1.219,-2.23478 0.5417,-1.21897 0.7449,-2.50566 0.2709,-1.35442 0.3386,-4.06325 0.1354,-2.70883 0.1354,-6.77207 0,-4.06324 -0.1354,-6.77207 -0.068,-2.70883 -0.3386,-4.06324 -0.4063,-2.50567 -2.0316,-4.74045 h 0.068 q -0.7449,-0.81265 -1.7607,-1.69302 -0.9481,-0.94809 -2.2348,-1.62529 -1.2867,-0.74493 -2.8443,-1.21898 -1.5576,-0.47404 -3.4538,-0.47404 -1.9639,0 -3.5891,0.47404 -1.6253,0.47405 -2.912,1.21898 -1.2867,0.6772 -2.3025,1.55757 -0.9481,0.88037 -1.5576,1.76074 -1.6253,2.03162 -2.1671,4.74045 -0.2031,1.35441 -0.2709,4.13096 -0.068,2.70883 -0.068,6.70435 z"
               id="path123766" />
            <path
               d="m 1813.6842,363.49558 q -0.8126,0 -0.8126,-0.81265 v -97.04377 q 0,-0.81265 0.8126,-0.81265 h 14.6954 q 0.8127,0 0.8127,0.81265 v 82.4161 h 46.5241 q 0.8126,0 0.8126,0.81265 v 13.81502 q 0,0.81265 -0.8126,0.81265 z"
               id="path123768" />
            <path
               d="m 1887.0549,328.28081 q 0,-11.03847 1.8285,-16.72701 1.7607,-5.68854 5.824,-10.09039 2.8442,-3.04743 7.991,-6.02714 5.1468,-2.97971 13.4764,-2.97971 8.2619,0 13.341,2.97971 2.6411,1.48986 4.605,2.97971 2.0316,1.48986 3.5215,3.04743 3.9955,4.40185 5.824,10.09039 1.7607,5.82398 1.7607,16.72701 0,11.24164 -1.7607,16.93018 -1.8285,5.55309 -5.824,10.09038 -3.0474,3.2506 -8.1265,6.16259 -5.0791,2.84427 -13.341,2.84427 -8.3296,0 -13.4764,-2.84427 -2.3025,-1.35442 -4.4018,-2.97971 -2.0317,-1.6253 -3.5892,-3.18288 -4.131,-4.53729 -5.824,-10.09038 -1.8285,-5.5531 -1.8285,-16.93018 z m 42.7995,0.13544 q 0,-7.11067 -0.7449,-10.29354 -0.6772,-2.91199 -2.5057,-5.5531 -1.7607,-2.30251 -4.4018,-3.52148 -2.5734,-1.21897 -6.0272,-1.21897 -7.1784,0 -10.429,4.74045 -0.9481,1.35441 -1.6253,2.70883 -0.6094,1.28669 -0.9481,2.84427 -0.6772,2.91199 -0.6772,10.1581 0,3.65692 0.1355,6.29803 0.2031,2.6411 0.5417,4.19868 0.6095,2.91199 2.5734,5.48538 3.1829,4.67273 10.429,4.67273 6.9075,0 10.429,-4.67273 1.7607,-2.64111 2.5057,-5.48538 0.7449,-3.31831 0.7449,-10.36127 z"
               id="path123770" />
            <path
               d="m 1962.9313,363.5633 q -0.8126,0 -0.8126,-0.81265 v -57.35944 h -6.0949 q -0.8126,0 -0.8126,-0.81265 v -10.56442 q 0,-0.81265 0.8126,-0.81265 h 6.0949 v -10.29355 l 14.0182,-14.96628 q 0.4063,-0.40632 0.8803,-0.20316 0.5418,0.20316 0.5418,0.74493 v 24.71806 h 9.21 q 0.8127,0 0.8127,0.81265 v 10.56442 q 0,0.81265 -0.8127,0.81265 h -9.21 v 57.35944 q 0,0.81265 -0.8126,0.81265 z"
               id="path123772" />
          </g>
        </g>
      </g>
    </g>
  </g>
</svg>
