<?xml version="1.0" encoding="UTF-8" standalone="no"?>
<!-- Created with Inkscape (http://www.inkscape.org/) -->

<svg
   xmlns:dc="http://purl.org/dc/elements/1.1/"
   xmlns:cc="http://creativecommons.org/ns#"
   xmlns:rdf="http://www.w3.org/1999/02/22-rdf-syntax-ns#"
   xmlns:svg="http://www.w3.org/2000/svg"
   xmlns="http://www.w3.org/2000/svg"
   xmlns:sodipodi="http://sodipodi.sourceforge.net/DTD/sodipodi-0.dtd"
   xmlns:inkscape="http://www.inkscape.org/namespaces/inkscape"
   width="600mm"
   height="800mm"
   viewBox="0 0 600 800"
   version="1.1"
   id="svg848"
   inkscape:version="0.92.2 (5c3e80d, 2017-08-06)"
   sodipodi:docname="11.svg">
  <defs
     id="defs842" />
  <sodipodi:namedview
     id="base"
     pagecolor="#ffffff"
     bordercolor="#666666"
     borderopacity="1.0"
     inkscape:pageopacity="0.0"
     inkscape:pageshadow="2"
     inkscape:zoom="0.12372612"
     inkscape:cx="1588.964"
     inkscape:cy="269.5531"
     inkscape:document-units="mm"
     inkscape:current-layer="text20622"
     showgrid="false"
     inkscape:snap-global="false"
     inkscape:window-width="1920"
     inkscape:window-height="1057"
     inkscape:window-x="-8"
     inkscape:window-y="-8"
     inkscape:window-maximized="1"
     fit-margin-top="0"
     fit-margin-left="0"
     fit-margin-right="0"
     fit-margin-bottom="0"
     showguides="false"
     inkscape:measure-start="0,0"
     inkscape:measure-end="0,0" />
  <metadata
     id="metadata845">
    <rdf:RDF>
      <cc:Work
         rdf:about="">
        <dc:format>image/svg+xml</dc:format>
        <dc:type
           rdf:resource="http://purl.org/dc/dcmitype/StillImage" />
        <dc:title></dc:title>
      </cc:Work>
    </rdf:RDF>
  </metadata>
  <g
     inkscape:label="Layer 1"
     inkscape:groupmode="layer"
     id="layer1"
     transform="translate(-50,753)">
    <rect
       style="opacity:1;fill:#0046aa;fill-opacity:1;fill-rule:nonzero;stroke:none;stroke-width:2.93670321;stroke-linecap:butt;stroke-linejoin:miter;stroke-miterlimit:10;stroke-dasharray:none;stroke-opacity:1;paint-order:stroke fill markers"
       id="rect1393"
       width="600"
       height="800"
       x="50"
       y="-753" />
    <rect
       y="-748"
       x="55"
       height="790"
       width="590"
       id="rect1395"
       style="opacity:1;fill:#ffffff;fill-opacity:1;fill-rule:nonzero;stroke:none;stroke-width:2.89386988;stroke-linecap:butt;stroke-linejoin:miter;stroke-miterlimit:10;stroke-dasharray:none;stroke-opacity:1;paint-order:stroke fill markers" />
    <rect
       y="-738"
       x="65"
       height="770"
       width="570"
       id="rect1406"
       style="opacity:1;fill:#0046aa;fill-opacity:1;fill-rule:nonzero;stroke:none;stroke-width:2.80816269;stroke-linecap:butt;stroke-linejoin:miter;stroke-miterlimit:10;stroke-dasharray:none;stroke-opacity:1;paint-order:stroke fill markers" />
    <path
       cx="150"
       cy="147"
       r="150"
       id="path8376"
       style="opacity:1;fill:#d35f5f;fill-opacity:1;fill-rule:nonzero;stroke:none;stroke-width:3.92256045;stroke-linecap:butt;stroke-linejoin:miter;stroke-miterlimit:4;stroke-dasharray:none;stroke-opacity:1;paint-order:stroke fill markers"
       d=""
       inkscape:connector-curvature="0" />
    <rect
       style="opacity:1;fill:#ffffff;fill-opacity:1;fill-rule:nonzero;stroke:none;stroke-width:5.07322454;stroke-linecap:butt;stroke-linejoin:miter;stroke-miterlimit:4;stroke-dasharray:none;stroke-opacity:1;paint-order:stroke fill markers"
       id="rect828"
       width="500"
       height="500"
       x="100"
       y="-703" />
    <g
       transform="matrix(1.0004876,0,0,1.0004876,-290.77787,824.33304)"
       id="g924"
       style="font-style:normal;font-variant:normal;font-weight:bold;font-stretch:normal;font-size:159.07623291px;line-height:0;font-family:Giaothong2;-inkscape-font-specification:'Giaothong2 Bold';letter-spacing:0px;word-spacing:0px;fill:#000000;fill-opacity:1;stroke:none;stroke-width:0.82852203"
       aria-label="TRẠM">
      <g
         id="g922"
         style="font-style:normal;font-variant:normal;font-weight:bold;font-stretch:normal;font-size:161.34654236px;line-height:0;font-family:Giaothong2;-inkscape-font-specification:'Giaothong2 Bold';letter-spacing:3.35592604px;word-spacing:0px;fill:#000000;fill-opacity:1;stroke:none;stroke-width:0.69624561"
         aria-label="TRẠM" />
    </g>
    <path
       style="opacity:1;fill:#000000;fill-opacity:1;fill-rule:nonzero;stroke:none;stroke-width:132.53120422;stroke-linecap:round;stroke-linejoin:round;stroke-miterlimit:4;stroke-dasharray:none;stroke-opacity:1;paint-order:stroke fill markers"
       d="m 264.7619,-478.00001 c -8.7832,0.033 -24.1706,6.2474 -26.857,19.6426 l -16.3809,92.6789 c -9.2879,-0.01 -21.489,11.0334 -21.524,17.1427 v 51.78582 c 2.5689,6.2808 7.4326,11.1377 12.5717,15.1786 v 41.964 c 0,6.4304 10.2365,11.6074 22.9522,11.6074 12.7156,0 22.9522,-5.177 22.9522,-11.6074 v -41.964 c 31.201,3.4633 61.8202,5.904 91.5239,5.893 29.7037,0.011 60.3229,-2.4297 91.5239,-5.893 v 41.964 c 0,6.4304 10.2366,11.6074 22.9523,11.6074 12.7156,0 22.9522,-5.177 22.9522,-11.6074 v -41.964 c 5.1389,-4.0409 10.0028,-8.8978 12.5716,-15.1786 v -51.78582 c -0.035,-6.1093 -12.2356,-17.1523 -21.5235,-17.1427 l -16.3809,-92.6789 c -2.6864,-13.3952 -18.0742,-19.6095 -26.8575,-19.6426 z m 19.0814,16.8746 H 350 416.1567 c 15.0093,0.01 31.0388,8.1517 33.3525,18.7499 l 9.8854,55.3574 c 0.2278,1.3741 -0.7306,4.214 -1.8091,5.8035 -2.1928,2.73 -6.0071,4.2903 -11.6194,4.2859 -2.1524,0 -13.5234,-0.8038 -13.5234,-0.8038 -40.7408,-2.1875 -53.3868,-2.0982 -82.4427,-2.4998 -29.0558,0.4016 -41.7014,0.3123 -82.4422,2.4998 0,0 -11.3715,0.8038 -13.5239,0.8038 -5.6122,0 -9.4266,-1.5559 -11.6194,-4.2859 -1.0784,-1.5895 -2.0368,-4.4294 -1.8091,-5.8035 l 9.8854,-55.3574 c 2.3137,-10.5982 18.3432,-18.7406 33.3525,-18.7499 z m 40.5375,106.5181 h 51.2384 l 51.4284,4.2859 -0.019,9.2856 H 272.952 v -9.2856 z m -86.2854,1.7856 a 20.95239,19.642857 0 0 1 20.9521,19.6431 20.95239,19.642857 0 0 1 -20.9521,19.6426 20.95239,19.642857 0 0 1 -20.9526,-19.6426 20.95239,19.642857 0 0 1 20.9526,-19.6431 z m 223.8097,0 a 20.952391,19.642858 0 0 1 20.9521,19.6431 20.952391,19.642858 0 0 1 -20.9521,19.6426 20.952391,19.642858 0 0 1 -20.9526,-19.6426 20.952391,19.642858 0 0 1 20.9526,-19.6431 z m -188.9335,21.2501 h 154.076 v 13.5715 H 272.9524 Z m -0.019,23.03572 h 154.0765 l 0.019,9.2856 -51.4284,4.2859 h -51.2384 l -51.4284,-4.2859 z"
       id="rect10823"
       inkscape:connector-curvature="0" />
    <path
       style="opacity:1;fill:#000000;fill-opacity:1;fill-rule:nonzero;stroke:none;stroke-width:3.59999967;stroke-linecap:butt;stroke-linejoin:miter;stroke-miterlimit:4;stroke-dasharray:none;stroke-opacity:1;paint-order:stroke fill markers"
       d="m 360.1,-693.00001 14.0001,36.5999 35.4,1.9998 24,17.6 H 266.5 l 24.0001,-17.6 35.3999,-1.9998 14.0002,-36.5999 z"
       id="rect20012"
       inkscape:connector-curvature="0"
       sodipodi:nodetypes="ccccccccc" />
    <path
       style="opacity:1;fill:#000000;fill-opacity:1;fill-rule:nonzero;stroke:none;stroke-width:4.22196674;stroke-linecap:butt;stroke-linejoin:miter;stroke-miterlimit:4;stroke-dasharray:none;stroke-opacity:1;paint-order:stroke fill markers"
       d="m 347.15,-605.20001 h 5.7 v 48 h -5.7 z"
       id="rect20065"
       inkscape:connector-curvature="0" />
    <path
       style="opacity:1;fill:#000000;fill-opacity:1;fill-rule:nonzero;stroke:none;stroke-width:5.01726627;stroke-linecap:butt;stroke-linejoin:miter;stroke-miterlimit:4;stroke-dasharray:none;stroke-opacity:1;paint-order:stroke fill markers"
       d="m 296.8,-609.60001 h 4.4 l -52.8,91.6 H 244 Z"
       id="rect20198"
       inkscape:connector-curvature="0"
       sodipodi:nodetypes="ccccc" />
    <path
       sodipodi:nodetypes="ccccc"
       inkscape:connector-curvature="0"
       id="path20212"
       d="m 324.8,-604.40001 h 4.4 l -23,41.6 h -4.4 z"
       style="opacity:1;fill:#000000;fill-opacity:1;fill-rule:nonzero;stroke:none;stroke-width:3.38116288;stroke-linecap:butt;stroke-linejoin:miter;stroke-miterlimit:4;stroke-dasharray:none;stroke-opacity:1;paint-order:stroke fill markers" />
    <path
       sodipodi:nodetypes="ccccc"
       inkscape:connector-curvature="0"
       id="path20339"
       d="m 403.2001,-609.60001 h -4.4 l 52.8,91.6 h 4.4 z"
       style="opacity:1;fill:#000000;fill-opacity:1;fill-rule:nonzero;stroke:none;stroke-width:5.01726627;stroke-linecap:butt;stroke-linejoin:miter;stroke-miterlimit:4;stroke-dasharray:none;stroke-opacity:1;paint-order:stroke fill markers" />
    <path
       style="opacity:1;fill:#000000;fill-opacity:1;fill-rule:nonzero;stroke:none;stroke-width:3.38116288;stroke-linecap:butt;stroke-linejoin:miter;stroke-miterlimit:4;stroke-dasharray:none;stroke-opacity:1;paint-order:stroke fill markers"
       d="m 375.2001,-604.40001 h -4.4 l 23,41.6 h 4.4 z"
       id="path20341"
       inkscape:connector-curvature="0"
       sodipodi:nodetypes="ccccc" />
    <g
       aria-label="TRẠM RỬA XE"
       style="font-style:normal;font-variant:normal;font-weight:bold;font-stretch:normal;font-size:83.53499603px;line-height:0;font-family:Giaothong2;-inkscape-font-specification:'Giaothong2 Bold';letter-spacing:0.2460625px;word-spacing:0px;fill:#000000;fill-opacity:1;stroke:none;stroke-width:0.43507808"
       id="text20622"
       transform="translate(-157.26042,569.34396)">
      <path
         d="m 273.77982,-622.83366 q -0.4894,0 -0.4894,-0.4894 v -50.0884 h -15.5405 q -0.4895,0 -0.4895,-0.4894 v -7.8722 q 0,-0.4895 0.4895,-0.4895 h 40.8702 q 0.4894,0 0.4894,0.4895 v 7.8722 q 0,0.4894 -0.4894,0.4894 h -15.4997 v 50.0884 q 0,0.4894 -0.4895,0.4894 z"
         style="font-style:normal;font-variant:normal;font-weight:bold;font-stretch:normal;font-family:Giaothong2;-inkscape-font-specification:'Giaothong2 Bold';letter-spacing:0.2460625px;fill:#ffffff;stroke:none;stroke-width:0.43507808"
         id="path20698"
         inkscape:connector-curvature="0" />
      <path
         d="m 315.22232,-673.41146 v 16.7641 h 12.93 q 4.7315,0 7.0972,-2.6104 2.3658,-2.6105 2.3658,-6.1999 0,-2.0394 -0.7342,-3.6302 -0.6934,-1.5907 -2.0395,-2.6105 -1.1828,-0.8157 -2.7736,-1.2644 -1.5499,-0.4487 -3.3854,-0.4487 z m -9.3405,50.5778 q -0.4895,0 -0.4895,-0.4894 v -58.45 q 0,-0.4895 0.4895,-0.4895 h 22.8823 q 3.7934,0 6.8525,1.0605 3.0592,1.0197 5.3433,2.9368 1.1829,1.1013 2.2434,2.5289 1.1013,1.3868 1.9171,3.0183 0.8565,1.6316 1.346,3.4671 0.4894,1.8354 0.4894,3.7933 0,2.896 -0.8157,5.5064 -0.8158,2.5697 -2.2842,4.8131 -1.5092,2.0802 -3.5078,3.671 -1.9986,1.5499 -4.5275,2.4881 3.3038,6.3222 6.6485,12.726 3.3447,6.363 6.6485,12.6853 0.1224,0.2855 0,0.5302 -0.1223,0.2039 -0.4078,0.2039 h -10.5235 q -0.1224,0 -0.2447,-0.082 -0.1224,-0.1223 -0.204,-0.2039 l -11.951,-24.6771 h -10.5643 v 24.4732 q 0,0.4894 -0.4894,0.4894 z"
         style="font-style:normal;font-variant:normal;font-weight:bold;font-stretch:normal;font-family:Giaothong2;-inkscape-font-specification:'Giaothong2 Bold';letter-spacing:0.2460625px;fill:#ffffff;stroke:none;stroke-width:0.43507808"
         id="path20700"
         inkscape:connector-curvature="0" />
      <path
         d="m 353.74182,-622.87436 q -0.2856,0 -0.4079,-0.204 -0.1224,-0.2039 -0.041,-0.4487 l 21.3732,-58.4908 q 0.082,-0.3263 0.4079,-0.3263 h 7.3011 q 0.1224,0 0.2447,0.1224 0.1632,0.082 0.204,0.2039 l 21.3324,58.4908 q 0.082,0.2448 -0.041,0.4487 -0.1224,0.204 -0.3671,0.204 h -9.3406 q -0.3263,0 -0.4079,-0.3263 l -4.4051,-12.8892 h -21.5364 q -1.1421,3.3038 -2.2842,6.4853 -1.1012,3.1408 -2.2433,6.4039 -0.041,0.1223 -0.204,0.2447 -0.1223,0.082 -0.2447,0.082 z m 32.9163,-21.9851 q -0.082,-0.2855 -0.2447,-0.6118 -0.1224,-0.3263 -0.2039,-0.571 -0.6934,-1.9987 -1.2645,-3.671 -0.571,-1.7131 -1.0197,-2.9776 -0.2855,-0.8158 -0.571,-1.5907 -0.2448,-0.775 -0.4895,-1.4684 -0.2039,-0.6526 -0.4079,-1.2237 -0.2039,-0.6118 -0.4079,-1.1829 -0.3671,-1.1828 -0.775,-2.3657 -0.3671,-1.1829 -0.7749,-2.4473 -0.204,-0.571 -0.4487,-1.2645 -0.204,-0.6934 -0.4487,-1.4683 -0.1224,-0.4079 -0.2039,-0.6119 -0.041,-0.2447 -0.1224,-0.4486 -0.082,-0.2448 -0.2039,-0.5303 -0.082,-0.2855 -0.2448,-0.8158 -0.4486,1.3461 -0.8565,2.4881 -0.3671,1.1421 -0.6934,2.121 -0.082,0.2448 -0.1224,0.4487 -0.041,0.204 -0.1224,0.4079 -0.2039,0.6934 -0.4486,1.3052 -0.204,0.6119 -0.4079,1.2237 -0.204,0.6526 -0.4079,1.2644 -0.204,0.6119 -0.4079,1.1829 -0.4079,1.2237 -0.8566,2.5697 -0.4078,1.346 -0.9381,2.8144 -0.5303,1.4684 -1.1013,3.1815 -0.571,1.6723 -1.4684,4.242 z m -11.8694,38.0965 q -0.4487,0 -0.4487,-0.4486 v -7.8722 q 0,-0.4487 0.4487,-0.4487 h 7.9129 q 0.4079,0 0.4079,0.4487 v 7.8722 q 0,0.4486 -0.4079,0.4486 z"
         style="font-style:normal;font-variant:normal;font-weight:bold;font-stretch:normal;font-family:Giaothong2;-inkscape-font-specification:'Giaothong2 Bold';letter-spacing:0.2460625px;fill:#ffffff;stroke:none;stroke-width:0.43507808"
         id="path20702"
         inkscape:connector-curvature="0" />
      <path
         d="m 409.36502,-622.83366 q -0.4894,0 -0.4894,-0.4894 v -58.45 q 0,-0.4895 0.4894,-0.4895 h 8.3617 q 0.2855,0 0.4487,0.2855 l 16.3562,37.0768 q 3.9565,-9.3406 7.9538,-18.518 3.9972,-9.2182 7.9945,-18.5588 0.1224,-0.2855 0.4487,-0.2855 h 8.3616 q 0.4895,0 0.4895,0.4895 v 58.45 q 0,0.4894 -0.4895,0.4894 h -8.8511 q -0.4894,0 -0.4894,-0.4894 v -34.5071 q -2.8552,6.6485 -5.7512,13.2155 -2.896,6.5669 -5.7104,13.1747 -0.1632,0.2447 -0.4487,0.2447 h -7.3827 q -0.2856,0 -0.4487,-0.2447 l -11.5024,-26.4718 v 34.5887 q 0,0.4894 -0.4894,0.4894 z"
         style="font-style:normal;font-variant:normal;font-weight:bold;font-stretch:normal;font-family:Giaothong2;-inkscape-font-specification:'Giaothong2 Bold';letter-spacing:0.2460625px;fill:#ffffff;stroke:none;stroke-width:0.43507808"
         id="path20704"
         inkscape:connector-curvature="0" />
      <path
         d="m 502.09052,-673.41146 v 16.7641 h 12.93 q 4.7314,0 7.0972,-2.6104 2.3657,-2.6105 2.3657,-6.1999 0,-2.0394 -0.7342,-3.6302 -0.6934,-1.5907 -2.0394,-2.6105 -1.1829,-0.8157 -2.7736,-1.2644 -1.55,-0.4487 -3.3855,-0.4487 z m -9.3406,50.5778 q -0.4895,0 -0.4895,-0.4894 v -58.45 q 0,-0.4895 0.4895,-0.4895 h 22.8824 q 3.7933,0 6.8525,1.0605 3.0591,1.0197 5.3433,2.9368 1.1829,1.1013 2.2434,2.5289 1.1012,1.3868 1.917,3.0183 0.8566,1.6316 1.346,3.4671 0.4895,1.8354 0.4895,3.7933 0,2.896 -0.8158,5.5064 -0.8157,2.5697 -2.2841,4.8131 -1.5092,2.0802 -3.5078,3.671 -1.9987,1.5499 -4.5276,2.4881 3.3039,6.3222 6.6486,12.726 3.3446,6.363 6.6485,12.6853 0.1224,0.2855 0,0.5302 -0.1224,0.2039 -0.4079,0.2039 h -10.5234 q -0.1224,0 -0.2448,-0.082 -0.1223,-0.1223 -0.2039,-0.2039 l -11.9511,-24.6771 h -10.5642 v 24.4732 q 0,0.4894 -0.4895,0.4894 z"
         style="font-style:normal;font-variant:normal;font-weight:bold;font-stretch:normal;font-family:Giaothong2;-inkscape-font-specification:'Giaothong2 Bold';letter-spacing:0.2460625px;fill:#ffffff;stroke:none;stroke-width:0.43507808"
         id="path20706"
         inkscape:connector-curvature="0" />
      <path
         d="m 591.84612,-689.80846 q 0.2447,0.204 0.4894,0.4487 2.6921,2.8144 2.7737,7.3419 0.1631,5.5065 -4.9355,8.9735 -2.121,0.9789 -4.6091,1.4276 v 28.5112 q 0,9.3814 -6.2406,15.0918 -6.1591,5.6696 -15.0102,5.6696 -8.8919,0 -15.0918,-5.6696 -6.1999,-5.7104 -6.1999,-15.0918 v -38.6675 q 0,-0.4895 0.4895,-0.4895 h 8.8919 q 0.4487,0 0.4487,0.4895 v 37.6886 q 0,5.8736 3.2631,8.8919 3.3039,3.0592 8.1985,3.0592 4.813,0 8.1169,-3.0592 3.3039,-3.0591 3.3039,-8.8919 v -37.6886 q 0,-0.4895 0.4894,-0.4895 h 8.8512 q 0.4894,0 0.4894,0.4895 v 4.8538 q 3.7118,-1.5908 3.7934,-4.9354 -0.041,-2.6921 -1.5908,-3.8749 z m -27.6955,2.2842 q -1.6723,0 -2.692,0 v -1.8763 q 0.4487,-2.5697 3.1815,-4.2012 4.2828,-1.7947 3.9157,-4.242 -0.571,-2.4881 -3.8341,-2.5289 -4.3236,0.082 -4.5684,4.2012 h -6.0774 q 0,-2.2842 0.8157,-3.7933 0.8566,-1.5092 2.2842,-2.9368 2.8144,-2.6921 7.3419,-2.7736 4.7723,0.082 7.8314,2.692 1.3868,1.3868 2.1618,2.6921 0.775,1.3052 0.8158,3.3038 -0.2447,2.8144 -3.1407,4.9354 -2.4473,1.1829 -3.7526,1.8763 l -0.4894,0.5303 -0.5303,0.8157 -0.082,1.3053 q -1.4684,0 -3.1815,0 z"
         style="font-style:normal;font-variant:normal;font-weight:bold;font-stretch:normal;font-family:Giaothong2;-inkscape-font-specification:'Giaothong2 Bold';letter-spacing:0.2460625px;fill:#ffffff;stroke:none;stroke-width:0.43507808"
         id="path20708"
         inkscape:connector-curvature="0" />
      <path
         d="m 591.64182,-622.87436 q -0.2856,0 -0.4079,-0.204 -0.1224,-0.2039 -0.041,-0.4487 l 21.3732,-58.4908 q 0.082,-0.3263 0.4079,-0.3263 h 7.3011 q 0.1224,0 0.2448,0.1224 0.1631,0.082 0.2039,0.2039 l 21.3324,58.4908 q 0.082,0.2448 -0.041,0.4487 -0.1223,0.204 -0.3671,0.204 h -9.3406 q -0.3263,0 -0.4078,-0.3263 l -4.4052,-12.8892 h -21.5364 q -1.1421,3.3038 -2.2841,6.4853 -1.1013,3.1408 -2.2434,6.4039 -0.041,0.1223 -0.2039,0.2447 -0.1224,0.082 -0.2448,0.082 z m 32.9163,-21.9851 q -0.082,-0.2855 -0.2447,-0.6118 -0.1224,-0.3263 -0.2039,-0.571 -0.6934,-1.9987 -1.2645,-3.671 -0.571,-1.7131 -1.0197,-2.9776 -0.2855,-0.8158 -0.571,-1.5907 -0.2448,-0.775 -0.4895,-1.4684 -0.2039,-0.6526 -0.4079,-1.2237 -0.2039,-0.6118 -0.4079,-1.1829 -0.3671,-1.1828 -0.775,-2.3657 -0.3671,-1.1829 -0.7749,-2.4473 -0.204,-0.571 -0.4487,-1.2645 -0.204,-0.6934 -0.4487,-1.4683 -0.1224,-0.4079 -0.2039,-0.6119 -0.041,-0.2447 -0.1224,-0.4486 -0.082,-0.2448 -0.2039,-0.5303 -0.082,-0.2855 -0.2448,-0.8158 -0.4486,1.3461 -0.8565,2.4881 -0.3671,1.1421 -0.6934,2.121 -0.082,0.2448 -0.1224,0.4487 -0.041,0.204 -0.1224,0.4079 -0.2039,0.6934 -0.4486,1.3052 -0.204,0.6119 -0.4079,1.2237 -0.204,0.6526 -0.4079,1.2644 -0.204,0.6119 -0.4079,1.1829 -0.4079,1.2237 -0.8566,2.5697 -0.4078,1.346 -0.9381,2.8144 -0.5302,1.4684 -1.1013,3.1815 -0.571,1.6723 -1.4684,4.242 z"
         style="font-style:normal;font-variant:normal;font-weight:bold;font-stretch:normal;font-family:Giaothong2;-inkscape-font-specification:'Giaothong2 Bold';letter-spacing:0.2460625px;fill:#ffffff;stroke:none;stroke-width:0.43507808"
         id="path20710"
         inkscape:connector-curvature="0" />
      <path
         d="m 702.07182,-622.83366 q -0.2447,0 -0.4079,-0.2447 l -12.3997,-21.0469 q -3.0999,5.3025 -6.1999,10.5235 -3.0999,5.2209 -6.1998,10.5234 -0.1632,0.2447 -0.4079,0.2447 h -9.9932 q -0.3263,0 -0.4487,-0.2039 -0.1224,-0.2447 0.041,-0.5302 l 17.743,-29.7349 q -4.2012,-7.0972 -8.3208,-14.1129 -4.1197,-7.0156 -8.2801,-14.1128 -0.1632,-0.2855 -0.041,-0.4895 0.1224,-0.2447 0.4079,-0.2447 h 10.034 q 0.2447,0 0.4078,0.2447 l 11.2577,19.5785 q 2.8144,-4.8946 5.6288,-9.7484 2.8144,-4.8947 5.6288,-9.8301 0.1632,-0.2447 0.4079,-0.2447 h 10.034 q 0.2855,0 0.4079,0.2447 0.1224,0.204 -0.041,0.4895 l -16.6009,28.2257 q 4.4867,7.4643 8.8919,14.8878 4.4051,7.3827 8.8919,14.8471 0.1631,0.2855 0.041,0.5302 -0.1224,0.2039 -0.4487,0.2039 z"
         style="font-style:normal;font-variant:normal;font-weight:bold;font-stretch:normal;font-family:Giaothong2;-inkscape-font-specification:'Giaothong2 Bold';letter-spacing:0.2460625px;fill:#ffffff;stroke:none;stroke-width:0.43507808"
         id="path20712"
         inkscape:connector-curvature="0" />
      <path
         d="m 719.40832,-622.83366 q -0.4895,0 -0.4895,-0.4894 v -58.45 q 0,-0.4895 0.4895,-0.4895 h 37.3623 q 0.4895,0 0.4895,0.4895 v 8.4024 q 0,0.4895 -0.4895,0.4895 h -28.0217 v 15.6628 h 23.8205 q 0.4895,0 0.4895,0.4894 v 7.913 q 0,0.4487 -0.4895,0.4487 h -23.8205 v 16.2339 h 28.0217 q 0.4895,0 0.4895,0.4894 v 8.3209 q 0,0.4894 -0.4895,0.4894 z"
         style="font-style:normal;font-variant:normal;font-weight:bold;font-stretch:normal;font-family:Giaothong2;-inkscape-font-specification:'Giaothong2 Bold';letter-spacing:0.2460625px;fill:#ffffff;stroke:none;stroke-width:0.43507808"
         id="path20714"
         inkscape:connector-curvature="0" />
    </g>
  </g>
</svg>
