<?xml version="1.0" encoding="UTF-8"?>
<!DOCTYPE svg PUBLIC "-//W3C//DTD SVG 1.1//EN" "http://www.w3.org/Graphics/SVG/1.1/DTD/svg11.dtd">
<!-- Creator: CorelDRAW -->
<svg xmlns="http://www.w3.org/2000/svg" xml:space="preserve" width="85.4998mm" height="52.9166mm" version="1.1" style="shape-rendering:geometricPrecision; text-rendering:geometricPrecision; image-rendering:optimizeQuality; fill-rule:evenodd; clip-rule:evenodd"
viewBox="0 0 2172.84 1344.79"
 xmlns:xlink="http://www.w3.org/1999/xlink"
 xmlns:xodm="http://www.corel.com/coreldraw/odm/2003">
 <defs>
  <style type="text/css">
   <![CDATA[
    .fil3 {fill:black}
    .fil0 {fill:#0A9646}
    .fil2 {fill:#FFD70F}
    .fil1 {fill:white}
    .fil7 {fill:black;fill-rule:nonzero}
    .fil6 {fill:#0046AA;fill-rule:nonzero}
    .fil5 {fill:#F00A0A;fill-rule:nonzero}
    .fil4 {fill:white;fill-rule:nonzero}
   ]]>
  </style>
 </defs>
 <g id="Layer_x0020_1">
  <metadata id="CorelCorpID_0Corel-Layer"/>
  <g id="_2093484868320">
   <polygon id="rect15575" class="fil0" points="-0,0 2172.84,0 2172.84,1344.79 -0,1344.79 "/>
   <path id="path15582" class="fil1" d="M54 8.92c-24.57,0 -44.62,20.05 -44.62,44.61l0 592.35 0 83.83 0 87.25 0 24.7 0 449.13c0,24.57 20.05,44.6 44.62,44.6l2064.82 0c24.57,0 44.62,-20.03 44.62,-44.6l-0 -449.13 0 -24.06 0 -102.52 0 -69.21 0 -592.35c0,-24.57 -20.05,-44.61 -44.62,-44.61l-2064.81 0zm0 16.81l2064.82 0c15.55,0 27.83,12.25 27.83,27.8l0 592.35 0 69.21c0,0.53 -0.02,1.09 -0.07,1.67l0 12.82c0,15.46 -12.44,27.9 -27.9,27.9l-14.37 0.01c-0.33,0.01 -0.67,0.03 -0.99,0.03l-2035.67 0c-0.32,0 -0.66,-0.02 -1,-0.03l-12.63 0c-15.46,0 -27.9,-12.44 -27.9,-27.9l0 -675.93c0,-2.95 0.46,-5.79 1.3,-8.46 0.03,-0.08 0.06,-0.16 0.08,-0.23 3.55,-11.25 13.95,-19.23 26.49,-19.23zm-0.13 748.7l12.38 0 2038.13 0 14.44 0c15.37,0 27.75,12.38 27.75,27.75l0 13.51c0.04,0.66 0.07,1.31 0.07,1.91l0 24.06 0 449.13c0,9.74 -4.82,18.19 -12.25,23.13 -4.43,3 -9.79,4.75 -15.57,4.75l-2064.95 0c-15.37,0 -27.75,-12.38 -27.75,-27.75l0 -488.75c0,-15.37 12.38,-27.75 27.75,-27.75z"/>
   <polygon id="rect15605" class="fil2" points="138.92,297.42 548.37,297.42 548.37,484.49 138.92,484.49 "/>
   <path id="path15631" class="fil3" d="M152.79 301.23c-5.45,0 -9.91,4.44 -9.91,9.89l0 159.67c0,5.45 4.46,9.89 9.91,9.89l381.86 0c5.45,0 9.91,-4.44 9.91,-9.89l0 -159.67c0,-5.45 -4.46,-9.89 -9.91,-9.89l-381.86 0zm0 3.6l381.86 0c3.51,0 6.29,2.78 6.29,6.29l0 159.67c0,3.51 -2.78,6.27 -6.29,6.27l-381.86 0c-3.51,0 -6.29,-2.76 -6.29,-6.27l0 -159.67c0,-3.51 2.78,-6.29 6.29,-6.29z"/>
   <path id="path17496" class="fil4" d="M1795.4 243.13l0 340.33 238.27 0 0 -340.33 -238.27 0zm9.29 11.16l219.56 0 0 319.83 -219.56 0 0 -319.83zm91.91 24.52l-15.03 59.64 26.37 -0 1.9 -59.64 -13.24 0zm22.55 0l1.9 59.64 26.38 -0 -15.04 -59.64 -13.24 0zm-106.98 67.19l0 13.06 20.62 7.45 0 3.93 9.49 -0 0 -3.93c0,0 14.03,-2.11 30.43,-3.6 13.13,-1.19 27.78,-1.83 37.95,-1.87 12.09,-0.04 29.98,0.63 45.32,1.94 16.9,1.44 30.74,3.53 30.74,3.53l0 3.93 9.29 0 0 -3.93 20.62 -7.45 0 -13.06 -204.46 0zm61.94 24.34l-45.08 179.4 67.57 0 9.38 -179.4 -31.87 0zm48.79 0l9.38 179.4 67.57 0 -45.08 -179.4 -31.87 0z"/>
   <circle id="path815" class="fil5" cx="723.61" cy="1046.77" r="205.17"/>
   <circle id="circle817" class="fil4" cx="723.61" cy="1046.77" r="154.65"/>
   <circle id="circle817-6" class="fil6" cx="1451.83" cy="1046.77" r="205.17"/>
   <path class="fil4" d="M824.98 585.57c-0.48,0 -0.72,-0.24 -0.72,-0.72l0 -85.62c0,-0.48 0.24,-0.72 0.72,-0.72l54.73 0c0.48,0 0.72,0.24 0.72,0.72l0 12.31c0,0.48 -0.24,0.72 -0.72,0.72l-41.05 0 0 22.94 34.9 0c0.48,0 0.72,0.24 0.72,0.72l0 11.59c0,0.44 -0.24,0.66 -0.72,0.66l-34.9 0 0 23.78 41.05 0c0.48,0 0.72,0.24 0.72,0.71l0 12.19c0,0.48 -0.24,0.72 -0.72,0.72l-54.73 0zm110.4 0c-0.24,0 -0.44,-0.12 -0.6,-0.36l-18.17 -30.84c-3.02,5.18 -6.05,10.32 -9.08,15.42 -3.03,5.1 -6.05,10.24 -9.08,15.42 -0.16,0.24 -0.36,0.36 -0.6,0.36l-14.64 0c-0.32,0 -0.54,-0.11 -0.66,-0.33 -0.12,-0.22 -0.1,-0.47 0.06,-0.74l25.99 -43.56c-4.1,-6.94 -8.17,-13.83 -12.19,-20.68 -4.02,-6.85 -8.06,-13.75 -12.13,-20.68 -0.16,-0.28 -0.18,-0.53 -0.05,-0.75 0.12,-0.22 0.32,-0.33 0.59,-0.33l14.7 0c0.24,0 0.43,0.12 0.59,0.36l16.49 28.68c2.75,-4.78 5.5,-9.55 8.25,-14.31 2.75,-4.76 5.49,-9.55 8.24,-14.38 0.16,-0.24 0.36,-0.36 0.6,-0.36l14.7 0c0.28,0 0.48,0.11 0.6,0.33 0.12,0.22 0.1,0.47 -0.06,0.75l-24.32 41.35c4.38,7.29 8.72,14.55 13.02,21.78 4.3,7.23 8.65,14.49 13.03,21.78 0.16,0.28 0.18,0.53 0.06,0.74 -0.12,0.22 -0.34,0.33 -0.66,0.33l-14.7 0zm37.51 -73.32l0 26.17 18.58 0c4.58,0 7.99,-1.37 10.21,-4.12 2.27,-2.67 3.41,-5.65 3.41,-8.96 0,-4.94 -1.75,-8.54 -5.26,-10.81 -2.27,-1.51 -5.22,-2.27 -8.84,-2.27l-18.11 0zm-13.68 73.32c-0.48,0 -0.72,-0.24 -0.72,-0.72l0 -85.62c0,-0.48 0.24,-0.72 0.72,-0.72l31.07 0c3.43,0 6.67,0.36 9.74,1.07 3.11,0.72 6.42,2.43 9.93,5.14 1.35,1.08 2.6,2.32 3.73,3.74 1.13,1.41 2.16,2.98 3.08,4.69 0.87,1.75 1.55,3.68 2.03,5.79 0.48,2.11 0.71,4.36 0.71,6.75 0,6.26 -2.35,12.23 -7.04,17.92 -4.7,5.66 -11.54,8.49 -20.5,8.49l-19.06 0 0 32.75c0,0.48 -0.24,0.72 -0.72,0.72l-12.96 0zm85.07 -74.1l0 24.56 18.94 0c4.62,0 8.09,-1.28 10.4,-3.82 2.31,-2.55 3.47,-5.58 3.47,-9.09 0,-1.99 -0.35,-3.76 -1.05,-5.32 -0.69,-1.55 -1.7,-2.82 -3.02,-3.82 -1.15,-0.8 -2.5,-1.42 -4.03,-1.86 -1.53,-0.44 -3.2,-0.66 -4.99,-0.66l-19.71 0zm-13.68 74.1c-0.48,0 -0.72,-0.24 -0.72,-0.72l0 -85.62c0,-0.48 0.24,-0.72 0.72,-0.72l33.52 0c3.71,0 7.05,0.51 10.04,1.52 2.99,1.01 5.6,2.46 7.83,4.33 1.16,1.07 2.26,2.3 3.32,3.67 1.05,1.37 1.99,2.86 2.8,4.45 0.82,1.6 1.46,3.29 1.94,5.09 0.48,1.79 0.72,3.64 0.72,5.55 0,2.83 -0.4,5.51 -1.2,8.04 -0.8,2.53 -1.91,4.89 -3.35,7.08 -1.48,2.03 -3.19,3.81 -5.14,5.35 -1.95,1.53 -4.16,2.76 -6.63,3.68 3.22,6.17 6.47,12.38 9.74,18.61 3.27,6.23 6.51,12.43 9.74,18.61 0.12,0.28 0.12,0.53 0,0.74 -0.12,0.22 -0.32,0.33 -0.6,0.33l-15.42 0c-0.12,0 -0.24,-0.05 -0.36,-0.15 -0.12,-0.1 -0.22,-0.19 -0.3,-0.27l-17.51 -36.16 -15.47 0 0 35.85c0,0.48 -0.24,0.72 -0.72,0.72l-12.96 0zm73.49 0c-0.48,0 -0.72,-0.24 -0.72,-0.72l0 -85.62c0,-0.48 0.24,-0.72 0.72,-0.72l54.73 0c0.48,0 0.72,0.24 0.72,0.72l0 12.31c0,0.48 -0.24,0.72 -0.72,0.72l-41.05 0 0 22.94 34.9 0c0.48,0 0.72,0.24 0.72,0.72l0 11.59c0,0.44 -0.24,0.66 -0.72,0.66l-34.9 0 0 23.78 41.05 0c0.48,0 0.72,0.24 0.72,0.71l0 12.19c0,0.48 -0.24,0.72 -0.72,0.72l-54.73 0zm67.41 -21.99c0.12,-0.16 0.28,-0.24 0.48,-0.24 0.2,0 0.38,0.06 0.54,0.18 3.15,2.55 6.76,4.59 10.85,6.13 4.08,1.53 8.39,2.3 12.94,2.3 5.1,0 9.12,-1.05 12.07,-3.17 2.79,-2.04 4.18,-4.72 4.18,-8.07 0,-6.29 -3.52,-9.92 -10.58,-10.87l0.06 0c-0.99,-0.12 -1.94,-0.24 -2.84,-0.36 -0.9,-0.12 -1.79,-0.24 -2.69,-0.36 -0.9,-0.12 -1.81,-0.25 -2.75,-0.39 -0.94,-0.14 -1.96,-0.29 -3.08,-0.44 -3.74,-0.52 -7.08,-1.47 -10.01,-2.84 -2.93,-1.37 -5.39,-3.19 -7.38,-5.47 -1.99,-2.31 -3.48,-4.83 -4.48,-7.56 -1,-2.73 -1.5,-5.71 -1.5,-8.93 0,-7.57 2.51,-13.73 7.53,-18.47 5.06,-4.82 12.09,-7.24 21.09,-7.24 2.67,0 5.27,0.23 7.8,0.69 2.53,0.46 4.98,1.09 7.35,1.88 2.37,0.8 4.64,1.75 6.81,2.84 2.17,1.1 4.25,2.3 6.25,3.61 0.4,0.28 0.46,0.62 0.17,1.02l-7.23 10.7c-0.28,0.36 -0.59,0.42 -0.96,0.18 -3.11,-1.95 -6.41,-3.52 -9.92,-4.69 -3.5,-1.17 -7.13,-1.76 -10.88,-1.76 -1.91,0 -3.68,0.23 -5.32,0.69 -1.63,0.46 -3.1,1.2 -4.42,2.24 -2.59,1.87 -3.89,4.72 -3.89,8.54 0,2.19 0.88,4.33 2.63,6.4 0.88,0.95 2.06,1.76 3.53,2.42 1.47,0.66 3.28,1.15 5.43,1.47 1.16,0.2 2.51,0.41 4.07,0.63 1.55,0.22 3.38,0.45 5.49,0.69 8.17,1 14.22,4 18.17,9.02 3.94,4.9 5.91,10.36 5.91,16.37 0,8.05 -2.81,14.34 -8.42,18.88 -5.66,4.47 -13.11,6.7 -22.34,6.7 -13.03,0 -24.1,-3.98 -33.22,-11.95 -0.16,-0.12 -0.24,-0.28 -0.24,-0.48 0,-0.2 0.06,-0.38 0.18,-0.54l8.6 -9.74zm69.05 0c0.12,-0.16 0.28,-0.24 0.49,-0.24 0.2,0 0.38,0.06 0.54,0.18 3.15,2.55 6.76,4.59 10.84,6.13 4.08,1.53 8.39,2.3 12.94,2.3 5.1,0 9.13,-1.05 12.08,-3.17 2.79,-2.04 4.18,-4.72 4.18,-8.07 0,-6.29 -3.52,-9.92 -10.58,-10.87l0.06 0c-1,-0.12 -1.95,-0.24 -2.84,-0.36 -0.9,-0.12 -1.79,-0.24 -2.68,-0.36 -0.9,-0.12 -1.81,-0.25 -2.75,-0.39 -0.94,-0.14 -1.96,-0.29 -3.08,-0.44 -3.74,-0.52 -7.08,-1.47 -10.01,-2.84 -2.93,-1.37 -5.39,-3.19 -7.38,-5.47 -1.99,-2.31 -3.48,-4.83 -4.48,-7.56 -1,-2.73 -1.5,-5.71 -1.5,-8.93 0,-7.57 2.51,-13.73 7.53,-18.47 5.06,-4.82 12.09,-7.24 21.09,-7.24 2.67,0 5.27,0.23 7.8,0.69 2.53,0.46 4.98,1.09 7.35,1.88 2.37,0.8 4.64,1.75 6.81,2.84 2.17,1.1 4.25,2.3 6.25,3.61 0.39,0.28 0.45,0.62 0.18,1.02l-7.23 10.7c-0.28,0.36 -0.6,0.42 -0.96,0.18 -3.11,-1.95 -6.41,-3.52 -9.92,-4.69 -3.51,-1.17 -7.13,-1.76 -10.88,-1.76 -1.91,0 -3.68,0.23 -5.32,0.69 -1.63,0.46 -3.11,1.2 -4.42,2.24 -2.59,1.87 -3.89,4.72 -3.89,8.54 0,2.19 0.88,4.33 2.63,6.4 0.88,0.95 2.05,1.76 3.52,2.42 1.47,0.66 3.29,1.15 5.44,1.47 1.16,0.2 2.51,0.41 4.06,0.63 1.56,0.22 3.39,0.45 5.5,0.69 8.17,1 14.22,4 18.17,9.02 3.94,4.9 5.91,10.36 5.91,16.37 0,8.05 -2.81,14.34 -8.43,18.88 -5.66,4.47 -13.1,6.7 -22.34,6.7 -13.03,0 -24.1,-3.98 -33.22,-11.95 -0.16,-0.12 -0.24,-0.28 -0.24,-0.48 0,-0.2 0.06,-0.38 0.18,-0.54l8.6 -9.74zm82.41 21.99c-0.39,0 -0.63,-0.18 -0.71,-0.54l-21.46 -85.63c-0.08,-0.24 -0.04,-0.44 0.12,-0.63 0.16,-0.18 0.36,-0.27 0.6,-0.27l13.74 0c0.4,0 0.64,0.18 0.72,0.54l12.9 58.5c2.63,-9.8 5.28,-19.54 7.95,-29.22 2.67,-9.68 5.34,-19.44 8.01,-29.28 0.08,-0.36 0.32,-0.54 0.72,-0.54l9.38 0c0.36,0 0.58,0.18 0.66,0.54l16.01 58.5c2.15,-9.8 4.3,-19.54 6.46,-29.22 2.15,-9.68 4.3,-19.44 6.46,-29.28 0.08,-0.36 0.31,-0.54 0.71,-0.54l13.74 0c0.24,0 0.44,0.09 0.6,0.27 0.16,0.18 0.2,0.39 0.12,0.63l-21.45 85.63c-0.08,0.36 -0.32,0.54 -0.72,0.54l-10.82 0c-0.36,0 -0.58,-0.18 -0.65,-0.54l-15.84 -59.45c-2.63,10 -5.26,19.91 -7.89,29.75 -2.63,9.84 -5.26,19.74 -7.89,29.7 -0.08,0.36 -0.3,0.54 -0.66,0.54l-10.82 0zm76.15 -0.06c-0.28,0 -0.48,-0.1 -0.6,-0.29 -0.12,-0.2 -0.14,-0.42 -0.06,-0.66l31.31 -85.69c0.08,-0.32 0.27,-0.48 0.59,-0.48l10.7 0c0.12,0 0.25,0.05 0.39,0.15 0.14,0.1 0.23,0.21 0.27,0.33l31.25 85.69c0.08,0.24 0.06,0.46 -0.06,0.66 -0.12,0.2 -0.3,0.29 -0.54,0.29l-13.68 0c-0.32,0 -0.52,-0.16 -0.6,-0.48l-6.46 -18.88 -31.55 0c-1.12,3.23 -2.22,6.38 -3.31,9.47 -1.1,3.09 -2.21,6.23 -3.32,9.41 -0.04,0.12 -0.13,0.23 -0.27,0.33 -0.14,0.1 -0.27,0.15 -0.38,0.15l-13.68 0zm48.22 -32.21c-0.08,-0.28 -0.19,-0.57 -0.33,-0.89 -0.14,-0.32 -0.25,-0.6 -0.33,-0.84 -0.68,-1.95 -1.29,-3.75 -1.85,-5.41 -0.56,-1.65 -1.05,-3.1 -1.49,-4.33 -0.28,-0.8 -0.55,-1.58 -0.81,-2.33 -0.26,-0.76 -0.51,-1.48 -0.74,-2.15 -0.2,-0.64 -0.4,-1.25 -0.6,-1.82 -0.2,-0.58 -0.4,-1.15 -0.6,-1.7 -0.36,-1.16 -0.73,-2.31 -1.1,-3.46 -0.38,-1.16 -0.77,-2.35 -1.17,-3.59 -0.2,-0.56 -0.4,-1.17 -0.63,-1.85 -0.22,-0.68 -0.45,-1.39 -0.69,-2.15 -0.12,-0.4 -0.21,-0.71 -0.27,-0.93 -0.06,-0.22 -0.13,-0.44 -0.21,-0.66 -0.08,-0.21 -0.17,-0.46 -0.27,-0.74 -0.1,-0.28 -0.23,-0.68 -0.39,-1.19 -0.44,1.31 -0.85,2.53 -1.22,3.64 -0.38,1.12 -0.73,2.15 -1.05,3.11 -0.08,0.24 -0.13,0.46 -0.18,0.66 -0.04,0.2 -0.1,0.39 -0.18,0.59 -0.2,0.68 -0.41,1.32 -0.63,1.92 -0.22,0.6 -0.43,1.19 -0.63,1.79 -0.2,0.64 -0.4,1.26 -0.6,1.86 -0.2,0.6 -0.4,1.17 -0.59,1.74 -0.4,1.19 -0.81,2.44 -1.23,3.76 -0.42,1.32 -0.88,2.69 -1.4,4.13 -0.52,1.44 -1.06,2.98 -1.61,4.63 -0.56,1.65 -1.28,3.74 -2.15,6.24l22.94 0zm45.68 32.27c-0.44,0 -0.66,-0.24 -0.66,-0.72l0 -35.01c-4.3,-8.4 -8.58,-16.79 -12.84,-25.16 -4.26,-8.36 -8.52,-16.75 -12.79,-25.15 -0.12,-0.28 -0.12,-0.52 0,-0.72 0.12,-0.2 0.34,-0.29 0.66,-0.29l13.62 0c0.12,0 0.24,0.05 0.36,0.15 0.12,0.1 0.22,0.19 0.3,0.27l17.56 36.69c2.95,-6.18 5.87,-12.3 8.75,-18.35 2.89,-6.05 5.81,-12.17 8.75,-18.34 0.08,-0.08 0.18,-0.17 0.3,-0.27 0.12,-0.1 0.23,-0.15 0.36,-0.15l13.68 0c0.32,0 0.54,0.1 0.66,0.29 0.12,0.2 0.11,0.44 0,0.72l-25.7 50.32 0 35.01c0,0.48 -0.24,0.72 -0.71,0.72l-12.31 0z"/>
   <path class="fil7" d="M266.14 414.37c0.34,0 0.62,0.11 0.81,0.36 0.22,0.25 0.28,0.53 0.17,0.87 -2.29,11.13 -7.36,19.72 -15.25,25.74 -3.8,2.88 -7.97,5.06 -12.45,6.55 -4.48,1.48 -9.32,2.21 -14.52,2.21 -9.46,0 -17.4,-2.26 -23.84,-6.8 -6.35,-4.48 -10.94,-9.4 -13.76,-14.74 -1.01,-1.88 -1.85,-3.75 -2.55,-5.62 -0.73,-1.88 -1.26,-3.86 -1.65,-5.96 -0.7,-4.03 -1.06,-13.2 -1.06,-27.53 0,-7.16 0.08,-13.01 0.25,-17.54 0.17,-4.53 0.45,-7.83 0.81,-9.9 0.39,-2.1 0.93,-4.08 1.65,-5.99 0.7,-1.93 1.54,-3.8 2.55,-5.65 2.82,-5.32 7.41,-10.24 13.76,-14.77 6.38,-4.59 14.35,-6.88 23.84,-6.88 11.39,0 20.78,3.5 28.2,10.49 7.55,7.05 12.22,15.41 14.02,25.09 0.11,0.31 0.06,0.59 -0.17,0.81 -0.2,0.23 -0.48,0.34 -0.81,0.34l-18.77 0c-0.48,0 -0.79,-0.22 -0.9,-0.67 -0.73,-2.18 -1.73,-4.22 -3.05,-6.1 -1.29,-1.88 -2.91,-3.64 -4.81,-5.29 -3.61,-3.22 -8.17,-4.84 -13.71,-4.84 -4.08,0 -7.58,0.81 -10.49,2.46 -2.88,1.65 -5.2,3.52 -6.97,5.65 -1.03,1.32 -1.93,2.8 -2.69,4.48 -0.78,1.65 -1.37,3.36 -1.82,5.12 -0.42,1.85 -0.73,4.73 -0.89,8.62 -0.17,3.86 -0.25,8.73 -0.25,14.57 0,5.96 0.08,10.85 0.25,14.71 0.17,3.86 0.48,6.71 0.89,8.56 0.45,1.71 1.06,3.39 1.85,5.04 0.78,1.68 1.68,3.13 2.66,4.39 1.76,2.29 4.08,4.25 6.97,5.85 2.91,1.62 6.41,2.43 10.49,2.43 9.45,0 16.64,-5.17 21.57,-15.5 0.11,-0.11 0.25,-0.22 0.42,-0.36 0.14,-0.14 0.31,-0.2 0.48,-0.2l18.77 0z"/>
   <path id="_1" class="fil7" d="M300.49 449.11c-0.67,0 -1.01,-0.34 -1.01,-0.98l0 -100.65 -31.22 0c-0.64,0 -0.98,-0.34 -0.98,-0.98l0 -15.81c0,-0.67 0.34,-1.01 0.98,-1.01l82.13 0c0.64,0 0.98,0.34 0.98,1.01l0 15.81c0,0.64 -0.34,0.98 -0.98,0.98l-31.16 0 0 100.65c0,0.64 -0.31,0.98 -0.98,0.98l-17.76 0z"/>
   <path id="_2" class="fil7" d="M344.66 449.11c-0.64,0 -0.98,-0.34 -0.98,-0.98l0 -16.65c0,-0.64 0.34,-0.98 0.98,-0.98l16.73 0c0.59,0 0.89,0.34 0.89,0.98l0 16.65c0,0.64 -0.31,0.98 -0.89,0.98l-16.73 0z"/>
   <path id="_3" class="fil7" d="M375.71 431.82c-0.67,0 -0.98,-0.34 -0.98,-0.98l0 -16 39.16 -83.76c0.11,-0.11 0.25,-0.22 0.42,-0.36 0.17,-0.14 0.31,-0.2 0.48,-0.2l18.69 0c0.34,0 0.59,0.14 0.78,0.39 0.2,0.28 0.2,0.62 0.06,0.98l-38.85 82.22 27.94 0 0 -32.7c0,-0.59 0.34,-0.89 0.98,-0.89l16.73 0c0.64,0 0.98,0.31 0.98,0.89l0 32.7 8.45 0c0.59,0 0.89,0.34 0.89,0.98l0 15.75c0,0.64 -0.31,0.98 -0.89,0.98l-8.45 0 0 16.31c0,0.64 -0.34,0.98 -0.98,0.98l-16.73 0c-0.64,0 -0.98,-0.34 -0.98,-0.98l0 -16.31 -47.69 0z"/>
   <path id="_4" class="fil7" d="M481.59 449.36c-0.64,0 -0.98,-0.34 -0.98,-0.98l0 -97.38c-2.52,1.85 -5.03,3.72 -7.55,5.62 -2.49,1.88 -5.01,3.72 -7.52,5.54 -0.39,0.25 -0.75,0.31 -1.06,0.11 -0.34,-0.2 -0.5,-0.5 -0.5,-0.95l0 -17.79c0,-0.08 0.06,-0.22 0.14,-0.39 0.08,-0.17 0.17,-0.31 0.28,-0.42l16.87 -12.2 17.15 0c0.64,0 0.98,0.31 0.98,0.98l0 116.88c0,0.64 -0.34,0.98 -0.98,0.98l-16.81 0z"/>
   <path class="fil4" d="M818.55 318.59c-0.48,0 -0.74,-0.21 -0.84,-0.63l-36.58 -110.8c-0.1,-0.32 -0.08,-0.58 0.08,-0.85 0.16,-0.26 0.4,-0.4 0.77,-0.4l17.71 0c0.48,0 0.74,0.24 0.85,0.71l24.52 82.03c4.12,-13.7 8.23,-27.37 12.33,-41.01 4.09,-13.64 8.18,-27.32 12.27,-41.01 0.11,-0.48 0.37,-0.71 0.84,-0.71l17.71 0c0.34,0 0.61,0.13 0.76,0.4 0.16,0.26 0.19,0.53 0.08,0.85l-36.58 110.8c-0.1,0.42 -0.37,0.63 -0.84,0.63l-13.07 0z"/>
   <path id="_1_0" class="fil4" d="M870.52 318.51c-0.37,0 -0.63,-0.13 -0.76,-0.4 -0.16,-0.24 -0.19,-0.53 -0.08,-0.84l40.51 -110.88c0.1,-0.42 0.34,-0.63 0.76,-0.63l13.83 0c0.16,0 0.34,0.08 0.53,0.21 0.16,0.13 0.29,0.26 0.34,0.42l40.43 110.88c0.11,0.32 0.08,0.61 -0.08,0.84 -0.16,0.26 -0.4,0.4 -0.69,0.4l-17.71 0c-0.42,0 -0.69,-0.21 -0.79,-0.61l-8.34 -24.44 -40.83 0c-1.45,4.17 -2.88,8.26 -4.28,12.25 -1.43,3.98 -2.85,8.05 -4.3,12.19 -0.05,0.13 -0.16,0.29 -0.34,0.42 -0.18,0.13 -0.34,0.19 -0.5,0.19l-17.71 0zm62.4 -41.68c-0.11,-0.37 -0.24,-0.74 -0.42,-1.16 -0.18,-0.42 -0.32,-0.76 -0.42,-1.08 -0.87,-2.53 -1.69,-4.86 -2.4,-7 -0.71,-2.14 -1.37,-4.01 -1.93,-5.62 -0.37,-1.03 -0.71,-2.03 -1.05,-3.01 -0.32,-0.98 -0.66,-1.9 -0.95,-2.77 -0.26,-0.85 -0.53,-1.61 -0.79,-2.38 -0.24,-0.74 -0.5,-1.48 -0.76,-2.19 -0.48,-1.5 -0.95,-3.01 -1.43,-4.49 -0.5,-1.5 -1,-3.04 -1.5,-4.65 -0.26,-0.71 -0.53,-1.5 -0.82,-2.4 -0.29,-0.87 -0.58,-1.8 -0.9,-2.77 -0.16,-0.53 -0.26,-0.92 -0.34,-1.21 -0.08,-0.26 -0.16,-0.55 -0.26,-0.84 -0.1,-0.29 -0.24,-0.61 -0.34,-0.95 -0.13,-0.37 -0.32,-0.9 -0.5,-1.56 -0.58,1.69 -1.11,3.27 -1.58,4.72 -0.5,1.42 -0.95,2.77 -1.37,4.01 -0.11,0.32 -0.19,0.58 -0.24,0.84 -0.03,0.26 -0.1,0.53 -0.21,0.79 -0.26,0.87 -0.53,1.69 -0.82,2.45 -0.29,0.79 -0.55,1.56 -0.82,2.32 -0.26,0.82 -0.5,1.64 -0.76,2.4 -0.26,0.76 -0.53,1.53 -0.76,2.24 -0.53,1.56 -1.05,3.17 -1.61,4.88 -0.53,1.69 -1.13,3.46 -1.79,5.33 -0.69,1.85 -1.37,3.85 -2.08,5.99 -0.74,2.14 -1.66,4.83 -2.8,8.08l29.69 0zm-10.22 -80.89c-0.1,0 -0.21,-0.03 -0.37,-0.11 -0.16,-0.08 -0.26,-0.13 -0.32,-0.19l-21.35 -22.59c-0.29,-0.29 -0.37,-0.64 -0.19,-1 0.19,-0.34 0.48,-0.53 0.9,-0.53l17 0c0.32,0 0.58,0.16 0.79,0.45l16.15 22.59c0.16,0.34 0.16,0.69 0.03,0.95 -0.13,0.29 -0.4,0.42 -0.79,0.42l-11.85 0z"/>
   <path id="_2_1" class="fil4" d="M980.08 318.59c-0.6,0 -0.92,-0.32 -0.92,-0.92l0 -110.8c0,-0.63 0.32,-0.95 0.92,-0.95l15.92 0c0.32,0 0.58,0.16 0.79,0.48l48.69 76.7 0 -76.23c0,-0.63 0.32,-0.95 0.95,-0.95l16.84 0c0.63,0 0.92,0.32 0.92,0.95l0 110.8c0,0.61 -0.29,0.92 -0.92,0.92l-15.84 0c-0.32,0 -0.58,-0.16 -0.79,-0.48l-48.85 -76.7 0 76.25c0,0.61 -0.29,0.92 -0.84,0.92l-16.87 0z"/>
   <path id="_3_2" class="fil4" d="M1149.13 318.59c-0.63,0 -0.95,-0.32 -0.95,-0.92l0 -47.48 -42.12 0 0 47.48c0,0.61 -0.32,0.92 -0.92,0.92l-16.79 0c-0.6,0 -0.92,-0.32 -0.92,-0.92l0 -110.8c0,-0.63 0.32,-0.95 0.92,-0.95l16.79 0c0.61,0 0.92,0.32 0.92,0.95l0 46.53 42.12 0 0 -46.53c0,-0.63 0.32,-0.95 0.95,-0.95l16.76 0c0.63,0 0.95,0.32 0.95,0.95l0 110.8c0,0.61 -0.32,0.92 -0.95,0.92l-16.76 0z"/>
   <path id="_4_3" class="fil4" d="M1228.83 318.59c-0.55,0 -0.84,-0.32 -0.84,-0.92l0 -47.64 -8.13 0c-0.55,0 -0.84,-0.29 -0.84,-0.84l0 -15.94c0,-0.61 0.29,-0.93 0.84,-0.93l8.13 0 0 -45.45c0,-0.63 0.29,-0.95 0.84,-0.95l38.82 0c15.42,0 26.92,6.39 34.55,19.11 1.4,2.48 2.53,4.83 3.41,7.04 0.87,2.22 1.45,4.38 1.72,6.49 0.61,4.12 0.92,12.04 0.92,23.73 0,6.28 -0.1,11.53 -0.32,15.73 -0.21,4.2 -0.5,7.36 -0.93,9.47 -0.42,2.17 -1.05,4.27 -1.9,6.31 -0.84,2.03 -1.93,4.07 -3.19,6.07l0 -0.08c-3.46,5.3 -8.1,9.76 -13.94,13.38 -6.02,3.62 -13.17,5.41 -21.4,5.41l-37.74 0zm17.79 -94.88l0 28.61 20.17 0c0.63,0 0.95,0.32 0.95,0.93l0 15.94c0,0.55 -0.32,0.84 -0.95,0.84l-20.17 0 0 30.93 19.16 0c8.87,0 15.47,-3.09 19.79,-9.29 1.82,-2.72 2.9,-5.6 3.25,-8.58 0.26,-1.64 0.48,-4.14 0.58,-7.47 0.13,-3.33 0.21,-7.55 0.21,-12.7 0,-5.01 -0.08,-9.18 -0.21,-12.54 -0.1,-3.35 -0.32,-6.02 -0.58,-7.97 -0.56,-3.67 -1.9,-6.94 -4.01,-9.82 -4.38,-5.94 -10.72,-8.89 -19.03,-8.89l-19.16 0z"/>
   <path id="_5" class="fil4" d="M1317.75 318.51c-0.37,0 -0.63,-0.13 -0.76,-0.4 -0.16,-0.24 -0.19,-0.53 -0.08,-0.84l40.51 -110.88c0.1,-0.42 0.34,-0.63 0.76,-0.63l13.83 0c0.16,0 0.34,0.08 0.53,0.21 0.16,0.13 0.29,0.26 0.34,0.42l40.43 110.88c0.11,0.32 0.08,0.61 -0.08,0.84 -0.16,0.26 -0.4,0.4 -0.69,0.4l-17.71 0c-0.42,0 -0.69,-0.21 -0.79,-0.61l-8.34 -24.44 -40.83 0c-1.45,4.17 -2.88,8.26 -4.28,12.25 -1.43,3.98 -2.85,8.05 -4.3,12.19 -0.05,0.13 -0.16,0.29 -0.34,0.42 -0.18,0.13 -0.34,0.19 -0.5,0.19l-17.71 0zm62.4 -41.68c-0.11,-0.37 -0.24,-0.74 -0.42,-1.16 -0.18,-0.42 -0.32,-0.76 -0.42,-1.08 -0.87,-2.53 -1.69,-4.86 -2.4,-7 -0.71,-2.14 -1.37,-4.01 -1.93,-5.62 -0.37,-1.03 -0.71,-2.03 -1.05,-3.01 -0.32,-0.98 -0.66,-1.9 -0.95,-2.77 -0.26,-0.85 -0.53,-1.61 -0.79,-2.38 -0.24,-0.74 -0.5,-1.48 -0.76,-2.19 -0.48,-1.5 -0.95,-3.01 -1.43,-4.49 -0.5,-1.5 -1,-3.04 -1.5,-4.65 -0.26,-0.71 -0.53,-1.5 -0.82,-2.4 -0.29,-0.87 -0.58,-1.8 -0.9,-2.77 -0.16,-0.53 -0.26,-0.92 -0.34,-1.21 -0.08,-0.26 -0.16,-0.55 -0.26,-0.84 -0.1,-0.29 -0.24,-0.61 -0.34,-0.95 -0.13,-0.37 -0.32,-0.9 -0.5,-1.56 -0.58,1.69 -1.11,3.27 -1.58,4.72 -0.5,1.42 -0.95,2.77 -1.37,4.01 -0.11,0.32 -0.19,0.58 -0.24,0.84 -0.03,0.26 -0.1,0.53 -0.21,0.79 -0.26,0.87 -0.53,1.69 -0.82,2.45 -0.29,0.79 -0.55,1.56 -0.82,2.32 -0.26,0.82 -0.5,1.64 -0.76,2.4 -0.26,0.76 -0.53,1.53 -0.76,2.24 -0.53,1.56 -1.05,3.17 -1.61,4.88 -0.53,1.69 -1.13,3.46 -1.79,5.33 -0.69,1.85 -1.37,3.85 -2.08,5.99 -0.74,2.14 -1.66,4.83 -2.8,8.08l29.69 0z"/>
   <path id="_6" class="fil4" d="M1427.07 318.59c-0.61,0 -0.92,-0.32 -0.92,-0.92l0 -110.8c0,-0.63 0.32,-0.95 0.92,-0.95l16.79 0c0.61,0 0.93,0.32 0.93,0.95l0 110.8c0,0.61 -0.32,0.92 -0.93,0.92l-16.79 0z"/>
   <path id="_7" class="fil4" d="M1496.27 302.28c-0.63,0 -0.92,-0.32 -0.92,-0.93l0 -15.1 36.95 -79.02c0.11,-0.11 0.24,-0.21 0.4,-0.34 0.16,-0.13 0.29,-0.19 0.45,-0.19l17.63 0c0.32,0 0.55,0.13 0.74,0.37 0.19,0.26 0.19,0.58 0.05,0.93l-36.66 77.57 26.37 0 0 -30.85c0,-0.55 0.32,-0.84 0.93,-0.84l15.78 0c0.61,0 0.93,0.29 0.93,0.84l0 30.85 7.97 0c0.55,0 0.85,0.32 0.85,0.92l0 14.86c0,0.61 -0.29,0.93 -0.85,0.93l-7.97 0 0 15.39c0,0.61 -0.32,0.92 -0.93,0.92l-15.78 0c-0.61,0 -0.93,-0.32 -0.93,-0.92l0 -15.39 -45 0z"/>
   <path class="fil4" d="M1350.78 1019.12c0.08,-7.47 1.38,-14.18 3.83,-20.04 2.49,-5.86 5.94,-10.92 10.46,-15.1 4.25,-3.91 9.04,-6.9 14.37,-9.04 5.29,-2.14 10.88,-3.22 16.71,-3.22 10.61,0 20.23,3.18 28.85,9.58 8.08,6.4 13.37,15.71 15.82,27.82 0.15,0.46 0.08,0.84 -0.23,1.11 -0.3,0.31 -0.65,0.46 -1.11,0.46l-23.03 0c-0.58,0 -1,-0.27 -1.23,-0.76 -3.37,-8.24 -9.77,-12.49 -19.2,-12.68 -13.53,0.35 -20.31,8.12 -20.31,23.33l0 13.26c4.87,-1.42 9.7,-2.57 14.52,-3.37 4.83,-0.84 9.43,-1.22 13.75,-1.15 10.5,0 19.47,3.68 26.94,11.03 7.2,7.55 10.77,19.16 10.69,34.91l0 14.56c-0.23,15.36 -4.79,27.05 -13.72,35.06 -8.39,7.93 -18.97,12.07 -31.76,12.45 -12.41,-0.38 -22.8,-4.48 -31.08,-12.34 -9.46,-8.24 -14.22,-19.92 -14.29,-35.06l0 -70.81zm24.94 69.47c0.08,15.37 6.9,23.11 20.42,23.26 13.26,-0.08 20.11,-7.81 20.65,-23.26l0 -13.14c-0.61,-15.17 -7.47,-22.91 -20.65,-23.22 -13.53,0.38 -20.35,8.12 -20.42,23.22l0 13.14z"/>
   <path id="_1_4" class="fil4" d="M1527.46 1020.34c0,-7.24 -1.92,-12.91 -5.75,-17.01 -3.87,-4.06 -9.01,-6.09 -15.44,-6.09 -6.44,0 -11.57,2.03 -15.4,6.09 -3.79,4.1 -5.71,9.77 -5.71,17.01l0 67.94c0,7.32 1.92,12.99 5.71,17.05 3.83,4.02 8.97,6.06 15.4,6.06 6.44,0 11.57,-2.03 15.44,-6.06 3.83,-4.06 5.75,-9.73 5.75,-17.05l0 -67.94zm-67.9 -1.34c0,-15.13 4.75,-26.75 14.25,-34.91 9.43,-8.32 20.23,-12.46 32.45,-12.46 6.06,0 11.8,1.04 17.2,3.18 5.44,2.14 10.5,5.21 15.21,9.27 4.75,4.18 8.32,9.19 10.73,14.98 2.45,5.79 3.64,12.45 3.64,19.92l0 70.62c0,15.02 -4.79,26.67 -14.37,34.91 -9.43,8.24 -20.23,12.34 -32.42,12.34 -12.22,0 -23.03,-4.1 -32.45,-12.34 -9.5,-8.16 -14.25,-19.81 -14.25,-34.91l0 -70.62z"/>
   <path class="fil7" d="M623.22 1131.61c-0.82,0 -1.25,-0.43 -1.25,-1.25l0 -124.56c-3.22,2.36 -6.44,4.76 -9.66,7.19 -3.18,2.4 -6.41,4.76 -9.63,7.09 -0.5,0.32 -0.97,0.39 -1.36,0.14 -0.43,-0.25 -0.64,-0.65 -0.64,-1.22l0 -22.76c0,-0.11 0.07,-0.29 0.18,-0.5 0.11,-0.22 0.21,-0.39 0.36,-0.54l21.58 -15.6 21.94 0c0.82,0 1.25,0.39 1.25,1.25l0 149.5c0,0.82 -0.43,1.25 -1.25,1.25l-21.51 0z"/>
   <path id="_1_5" class="fil7" d="M667.45 1131.28c-0.82,0 -1.25,-0.43 -1.25,-1.25l0 -20.47 58.72 -73.46 0 0.11c2.15,-2.72 3.54,-5.23 4.19,-7.51 0.61,-2.25 0.93,-4.47 0.93,-6.66 0,-4.83 -1.75,-9.38 -5.23,-13.63 -3.51,-4.19 -8.23,-6.26 -14.17,-6.26 -5.44,0 -10.16,1.82 -14.13,5.55 -1.97,1.82 -3.47,3.97 -4.47,6.44 -1,2.47 -1.65,5.3 -1.93,8.44 0,0.36 -0.14,0.61 -0.36,0.82 -0.25,0.22 -0.57,0.32 -0.89,0.32l-21.4 0c-0.82,0 -1.25,-0.43 -1.25,-1.25 0.14,-12.45 4.37,-22.9 12.67,-31.35 8.48,-8.59 18.53,-12.88 30.2,-12.88 12.67,0 23.29,4.33 31.99,12.99l-0.11 0c8.59,8.59 12.88,18.93 12.88,31.02 0,5.26 -0.75,10.09 -2.29,14.56 -1.54,4.47 -3.86,8.63 -6.94,12.49l0 -0.11c-3.97,5.05 -7.87,9.95 -11.74,14.78 -3.83,4.83 -7.69,9.62 -11.52,14.42 -3.86,4.8 -7.69,9.56 -11.52,14.35 -3.86,4.8 -7.76,9.7 -11.74,14.74l54.5 0c0.82,0 1.25,0.43 1.25,1.25l0 21.29c0,0.82 -0.43,1.25 -1.25,1.25l-85.13 0z"/>
   <path id="_2_6" class="fil7" d="M833.91 1023.72c0,-6.76 -1.79,-12.06 -5.37,-15.89 -3.62,-3.79 -8.41,-5.69 -14.42,-5.69 -6.01,0 -10.81,1.9 -14.38,5.69 -3.54,3.83 -5.33,9.13 -5.33,15.89l0 63.44c0,6.83 1.79,12.13 5.33,15.92 3.58,3.76 8.37,5.65 14.38,5.65 6.01,0 10.81,-1.9 14.42,-5.65 3.58,-3.79 5.37,-9.09 5.37,-15.92l0 -63.44zm-63.41 -1.25c0,-14.13 4.44,-24.98 13.31,-32.6 8.8,-7.76 18.89,-11.63 30.31,-11.63 5.65,0 11.02,0.97 16.07,2.97 5.08,2 9.8,4.87 14.21,8.66 4.44,3.9 7.77,8.59 10.02,13.99 2.29,5.4 3.4,11.63 3.4,18.61l0 65.95c0,14.03 -4.47,24.91 -13.42,32.6 -8.8,7.69 -18.89,11.52 -30.27,11.52 -11.42,0 -21.5,-3.83 -30.31,-11.52 -8.87,-7.62 -13.31,-18.5 -13.31,-32.6l0 -65.95z"/>
  </g>
 </g>
</svg>
