<?xml version="1.0" encoding="utf-8"?>
<svg viewBox="0 0 323.14914 200" xmlns="http://www.w3.org/2000/svg">
  <g id="layer1" transform="matrix(0.9999999999999999, 0, 0, 0.9999999999999999, -303.4596862792969, -22.960700988769517)">
    <path id="rect15575" style="opacity:1;fill:#0a9646;fill-opacity:1;fill-rule:evenodd;stroke-width:0.0420687;stroke-linecap:square;stroke-miterlimit:10;paint-order:stroke fill markers" d="M 303.45966,22.960701 H 626.6088 V 222.9607 H 303.45966 Z"/>
    <path transform="matrix(0.26458333,0,0,0.26458333,303.45966,22.960701)" d="m 30.353516,5.0117188 c -13.808655,0 -25.0781254,11.2674112 -25.0781254,25.0761722 v 332.957029 47.1211 49.04296 13.88672 252.45508 c 0,13.80862 11.2694704,25.06641 25.0781254,25.06641 H 1190.9805 c 13.8086,0 25.0781,-11.25779 25.0781,-25.06641 V 473.0957 459.57031 401.94727 363.04492 30.087891 c 0,-13.808761 -11.2695,-25.0761722 -25.0781,-25.0761722 z m 0,9.4511722 H 1190.9805 c 8.7398,0 15.6425,6.885058 15.6425,15.625 v 332.957029 38.90235 c 0,0.29959 -0.013,0.61475 -0.037,0.9375 v 7.20703 c 0,8.68754 -6.9941,15.68164 -15.6816,15.68164 h -8.0762 c -0.1869,0.007 -0.3766,0.0176 -0.5586,0.0176 H 38.023438 c -0.18105,0 -0.371847,-0.0102 -0.560547,-0.0176 h -7.097657 c -8.687546,0 -15.68164,-6.9941 -15.68164,-15.68164 V 30.152344 c 0,-1.658433 0.257595,-3.253829 0.730468,-4.751953 0.01365,-0.04461 0.03284,-0.08643 0.04688,-0.13086 1.99686,-6.321925 7.84094,-10.80664 14.892578,-10.80664 z M 30.28125,435.30469 h 6.958984 1145.628866 8.1172 c 8.6414,0 15.5996,6.95633 15.5996,15.59765 v 7.5918 c 0.024,0.37296 0.037,0.7339 0.037,1.07617 v 13.52539 252.45508 c 0,5.47634 -2.7106,10.22208 -6.8847,13.00391 -2.4923,1.6862 -5.5034,2.66992 -8.752,2.66992 H 30.28125 c -8.641361,0 -15.597656,-6.9563 -15.597656,-15.59766 V 450.90234 c 0,-8.64132 6.956295,-15.59765 15.597656,-15.59765 z" style="color:#000000;font-style:normal;font-variant:normal;font-weight:normal;font-stretch:normal;font-size:medium;line-height:normal;font-family:sans-serif;font-variant-ligatures:normal;font-variant-position:normal;font-variant-caps:normal;font-variant-numeric:normal;font-variant-alternates:normal;font-variant-east-asian:normal;font-feature-settings:normal;font-variation-settings:normal;text-indent:0;text-align:start;text-decoration:none;text-decoration-line:none;text-decoration-style:solid;text-decoration-color:#000000;letter-spacing:normal;word-spacing:normal;text-transform:none;writing-mode:lr-tb;direction:ltr;text-orientation:mixed;dominant-baseline:auto;baseline-shift:baseline;text-anchor:start;white-space:normal;shape-padding:0;shape-margin:0;inline-size:0;clip-rule:nonzero;display:inline;overflow:visible;visibility:visible;opacity:1;isolation:auto;mix-blend-mode:normal;color-interpolation:sRGB;color-interpolation-filters:linearRGB;solid-color:#000000;solid-opacity:1;vector-effect:none;fill:#ffffff;fill-opacity:1;fill-rule:evenodd;stroke:none;stroke-width:2.09199;stroke-linecap:square;stroke-linejoin:miter;stroke-miterlimit:10;stroke-dasharray:none;stroke-dashoffset:0;stroke-opacity:1;paint-order:stroke fill markers;color-rendering:auto;image-rendering:auto;shape-rendering:auto;text-rendering:auto;enable-background:accumulate;stop-color:#000000;stop-opacity:1" id="path15582"/>
    <path d="m 324.12038,67.193614 h 60.89334 v 27.821331 h -60.89334 z" style="opacity:1;fill:#ffd70f;fill-opacity:1;fill-rule:evenodd;stroke:none;stroke-width:0.553508;stroke-linecap:square;stroke-miterlimit:10;stroke-dasharray:none;stroke-opacity:1;paint-order:stroke fill markers" id="rect15605"/>
    <path id="path15631" d="m 326.18273,67.759747 c -0.81115,0 -1.47443,0.660164 -1.47443,1.471307 v 23.746432 c 0,0.811142 0.66328,1.471323 1.47443,1.471323 h 56.7905 c 0.81117,0 1.4744,-0.660181 1.4744,-1.471323 V 69.231054 c 0,-0.811143 -0.66328,-1.471307 -1.4744,-1.471307 z m 0,0.535017 h 56.7905 c 0.52266,0 0.93627,0.413622 0.93627,0.93629 v 23.746432 c 0,0.522654 -0.41353,0.933189 -0.93627,0.933189 h -56.7905 c -0.52266,0 -0.93628,-0.410555 -0.93628,-0.933189 V 69.231054 c 0,-0.522672 0.41354,-0.93629 0.93628,-0.93629 z" style="color:#000000;font-style:normal;font-variant:normal;font-weight:normal;font-stretch:normal;font-size:medium;line-height:normal;font-family:sans-serif;font-variant-ligatures:normal;font-variant-position:normal;font-variant-caps:normal;font-variant-numeric:normal;font-variant-alternates:normal;font-variant-east-asian:normal;font-feature-settings:normal;font-variation-settings:normal;text-indent:0;text-align:start;text-decoration:none;text-decoration-line:none;text-decoration-style:solid;text-decoration-color:#000000;letter-spacing:normal;word-spacing:normal;text-transform:none;writing-mode:lr-tb;direction:ltr;text-orientation:mixed;dominant-baseline:auto;baseline-shift:baseline;text-anchor:start;white-space:normal;shape-padding:0;shape-margin:0;inline-size:0;clip-rule:nonzero;display:inline;overflow:visible;visibility:visible;opacity:1;isolation:auto;mix-blend-mode:normal;color-interpolation:sRGB;color-interpolation-filters:linearRGB;solid-color:#000000;solid-opacity:1;vector-effect:none;fill:#000000;fill-opacity:1;fill-rule:evenodd;stroke:none;stroke-width:0.119062;stroke-linecap:square;stroke-linejoin:miter;stroke-miterlimit:10;stroke-dasharray:none;stroke-dashoffset:0;stroke-opacity:1;paint-order:stroke fill markers;color-rendering:auto;image-rendering:auto;shape-rendering:auto;text-rendering:auto;enable-background:accumulate;stop-color:#000000;stop-opacity:1"/>
    <path id="path17496" style="font-size:15.1831px;line-height:1.46;font-family:'Singapore Road Signs';-inkscape-font-specification:'Singapore Road Signs';text-align:center;text-anchor:middle;opacity:1;fill:#ffffff;fill-opacity:1;stroke-width:0.0756548" d="m 570.47468,59.120043 v 50.614317 h 35.43541 V 59.120043 Z m 1.38203,1.660034 h 32.65274 v 47.566083 h -32.65274 z m 13.66823,3.646909 -2.23483,8.869719 h 3.92184 l 0.28216,-8.869719 z m 3.35329,0 0.28216,8.869719 h 3.92385 l -2.23686,-8.869719 z m -15.90932,9.992316 v 1.942234 l 3.06692,1.10806 v 0.584703 h 1.411 v -0.584703 c 0,0 2.08662,-0.313671 4.52568,-0.535349 1.95306,-0.177516 4.1317,-0.271988 5.64407,-0.278037 1.79866,-0.0063 4.45804,0.09363 6.73975,0.288436 2.51319,0.214479 4.5713,0.524984 4.5713,0.524984 v 0.5847 h 1.38199 v -0.5847 l 3.06685,-1.108064 v -1.942233 z m 9.21108,3.620663 -6.70448,26.681115 h 10.04943 l 1.39442,-26.681115 z m 7.25642,0 1.39441,26.681115 h 10.0494 l -6.70443,-26.681115 z"/>
    <g style="font-size:14.7905px;line-height:0;font-family:'Singapore Road Signs';-inkscape-font-specification:'Singapore Road Signs';text-align:center;text-anchor:middle;opacity:1;fill:#860000;fill-opacity:1;stroke-width:6.45213" id="layer1-8" transform="matrix(0.08718024,0,0,0.08718024,-145.22047,195.49013)">
      <circle style="opacity:1;fill:#f00a0a;fill-opacity:1;fill-rule:nonzero;stroke:none;stroke-width:3622.55;stroke-linecap:round;stroke-linejoin:round;stroke-miterlimit:4;stroke-dasharray:none;stroke-opacity:1;paint-order:stroke fill markers" id="path815" cx="6380.9966" cy="-193.29752" r="350"/>
      <circle cy="-193.29752" cx="6380.9966" id="circle817" style="opacity:1;fill:#ffffff;fill-opacity:1;fill-rule:nonzero;stroke:none;stroke-width:2587.55;stroke-linecap:round;stroke-linejoin:round;stroke-miterlimit:4;stroke-dasharray:none;stroke-opacity:1;paint-order:stroke fill markers" r="263.821"/>
      <g aria-label="20 " style="font-style:normal;font-variant:normal;font-weight:bold;font-stretch:normal;font-size:414.864px;line-height:0;font-family:Giaothong1;-inkscape-font-specification:'Giaothong1 Bold';letter-spacing:0px;word-spacing:0px;fill:#000000;fill-opacity:1;stroke:none;stroke-width:24.7849" id="text874" transform="matrix(-1,0,0,1,1299.029,-383.45)">
        <g aria-label="90" transform="translate(2310.2259,387.54849)" style="font-style:normal;font-variant:normal;font-weight:bold;font-stretch:normal;font-size:414.864px;line-height:0;font-family:Giaothong1;-inkscape-font-specification:'Giaothong1 Bold';letter-spacing:0px;word-spacing:0px;fill:#000000;fill-opacity:1;stroke:none;stroke-width:53.5539" id="text844"/>
      </g>
    </g>
    <g style="font-size:14.7905px;line-height:0;font-family:'Singapore Road Signs';-inkscape-font-specification:'Singapore Road Signs';text-align:center;text-anchor:middle;opacity:1;fill:#fff000;fill-opacity:1;stroke-width:6.45221" id="layer1-7" transform="matrix(0.08717968,0,0,0.08717968,488.77841,183.34565)">
      <circle cy="-54" cx="351" id="circle817-6" style="opacity:1;fill:#0046aa;fill-opacity:1;fill-rule:nonzero;stroke:none;stroke-width:3622.58;stroke-linecap:round;stroke-linejoin:round;stroke-miterlimit:4;stroke-dasharray:none;stroke-opacity:1;paint-order:stroke fill markers" r="350"/>
      <path id="rect984" style="font-style: normal; font-variant: normal; font-weight: bold; font-stretch: normal; font-size: 414.864px; line-height: 0; font-family: Giaothong1; letter-spacing: 0px; word-spacing: 0px; opacity: 1; fill: rgb(255, 255, 255); fill-opacity: 1; fill-rule: nonzero; stroke: none; stroke-width: 0.344279; stroke-linecap: round; stroke-linejoin: miter; stroke-miterlimit: 10; stroke-dasharray: none; stroke-opacity: 1; paint-order: stroke; visibility: hidden;" d="m 851.18164,518.03906 c -16.32678,0 -29.4707,13.14393 -29.4707,29.47071 v 80.94921 c 0,16.32678 13.14392,29.47071 29.4707,29.47071 16.32678,0 29.4707,-13.14393 29.4707,-29.47071 v -80.94921 c 0,-16.32678 -13.14392,-29.47071 -29.4707,-29.47071 z m -69.94336,1.23828 -26.10937,69.75391 c -2.72781,7.40406 -3.70118,11.30112 -3.70118,28.44727 0,18.12042 0.7789,22.01697 4.67579,28.25195 5.26075,8.37828 14.22308,13.44336 24.93945,13.44336 10.91123,0 20.0688,-4.87023 25.13476,-13.44336 3.70197,-6.23498 4.48047,-10.13153 4.48047,-28.25195 0,-22.01726 -0.77798,-26.88814 -4.28515,-32.34375 -3.31232,-5.06591 -9.74347,-8.96289 -16.75782,-8.96289 -4.28653,0 -7.01308,0.77773 -8.37695,1.75195 l -0.39062,-0.38867 22.60156,-58.25782 z m 69.94336,18.74024 c 5.25853,0 9.49219,4.23365 9.49219,9.49219 v 80.94921 c 0,5.25853 -4.23366,9.49219 -9.49219,9.49219 -5.25853,0 -9.49219,-4.23366 -9.49219,-9.49219 v -80.94921 c 0,-5.25854 4.23366,-9.49219 9.49219,-9.49219 z m -70.13867,55.68945 c 5.0659,0 9.74219,3.89738 9.74219,9.9375 v 25.71875 c 0,6.04012 -4.67629,9.9375 -9.74219,9.9375 -5.0659,0 -9.74219,-3.89738 -9.74219,-9.9375 v -25.71875 c 0,-6.04012 4.67629,-9.9375 9.74219,-9.9375 z" transform="matrix(3.0349198,0,0,3.0349198,-2125.7104,-1839.7056)"/>
    </g>
    <g aria-label="6" id="text19759" style="font-size:31.1478px;line-height:1.3;font-family:'Singapore Road Signs';-inkscape-font-specification:'Singapore Road Signs';text-align:center;text-anchor:middle;stroke-width:0.159861" transform="matrix(1.6550836,0,0,1.6550836,-321.31659,-238.56049)"/>
    <path d="M 359.22 46.797 Q 359.114 46.797 359.114 46.691 L 359.114 34.097 Q 359.114 33.991 359.22 33.991 L 361.127 33.991 Q 361.233 33.991 361.233 34.097 L 361.233 44.793 L 367.271 44.793 Q 367.376 44.793 367.376 44.898 L 367.376 46.691 Q 367.376 46.797 367.271 46.797 Z M 368.692 40.398 Q 368.692 39.247 368.723 38.517 Q 368.754 37.788 368.806 37.454 Q 368.868 37.12 368.982 36.812 Q 369.096 36.505 369.263 36.206 L 369.254 36.206 Q 369.712 35.353 370.731 34.624 Q 371.759 33.886 373.289 33.886 Q 374.8 33.886 375.829 34.624 Q 376.866 35.371 377.323 36.206 Q 377.648 36.804 377.762 37.454 Q 377.824 37.788 377.855 38.517 Q 377.885 39.247 377.885 40.398 Q 377.885 42.657 377.762 43.351 Q 377.701 43.694 377.591 44.002 Q 377.481 44.309 377.332 44.591 Q 376.866 45.434 375.829 46.173 Q 374.792 46.902 373.289 46.902 Q 371.768 46.902 370.731 46.173 Q 369.712 45.452 369.254 44.591 L 369.263 44.591 Q 369.096 44.292 368.982 43.989 Q 368.868 43.685 368.806 43.351 Q 368.754 43.017 368.723 42.284 Q 368.692 41.55 368.692 40.398 Z M 370.81 40.398 Q 370.81 41.356 370.837 41.976 Q 370.863 42.596 370.933 42.894 Q 371.004 43.167 371.131 43.435 Q 371.258 43.703 371.417 43.905 Q 371.698 44.274 372.164 44.534 Q 372.629 44.793 373.289 44.793 Q 373.939 44.793 374.405 44.534 Q 374.871 44.274 375.143 43.905 Q 375.512 43.457 375.627 42.894 Q 375.767 42.332 375.767 40.398 Q 375.767 39.44 375.732 38.821 Q 375.697 38.201 375.627 37.911 Q 375.565 37.63 375.442 37.362 Q 375.319 37.094 375.152 36.883 Q 375.02 36.716 374.831 36.558 Q 374.642 36.399 374.405 36.281 Q 374.168 36.162 373.886 36.087 Q 373.605 36.013 373.289 36.013 Q 372.629 36.013 372.164 36.276 Q 371.698 36.54 371.417 36.883 Q 371.25 37.094 371.127 37.362 Q 371.004 37.63 370.933 37.911 Q 370.863 38.21 370.837 38.834 Q 370.81 39.458 370.81 40.398 Z M 380.195 46.797 Q 380.09 46.797 380.09 46.691 L 380.09 34.097 Q 380.09 33.991 380.195 33.991 L 382.006 33.991 Q 382.059 33.991 382.094 34.044 L 387.631 42.763 L 387.631 34.097 Q 387.631 33.991 387.737 33.991 L 389.653 33.991 Q 389.758 33.991 389.758 34.097 L 389.758 46.691 Q 389.758 46.797 389.653 46.797 L 387.851 46.797 Q 387.798 46.797 387.763 46.744 L 382.208 38.025 L 382.208 46.691 Q 382.208 46.797 382.112 46.797 Z M 396.59 41.673 Q 396.484 41.673 396.484 41.567 L 396.484 39.757 Q 396.484 39.66 396.59 39.66 L 401.063 39.66 Q 401.169 39.66 401.169 39.757 L 401.169 42.323 Q 401.169 44.266 399.833 45.575 Q 398.479 46.902 396.572 46.902 Q 395.052 46.902 394.014 46.173 Q 392.995 45.452 392.538 44.591 L 392.547 44.591 Q 392.38 44.292 392.265 43.989 Q 392.151 43.685 392.09 43.351 Q 392.037 43.017 392.006 42.284 Q 391.975 41.55 391.975 40.398 Q 391.975 39.247 392.006 38.517 Q 392.037 37.788 392.09 37.454 Q 392.151 37.12 392.265 36.812 Q 392.38 36.505 392.547 36.206 L 392.538 36.206 Q 392.995 35.353 394.014 34.624 Q 395.043 33.886 396.572 33.886 Q 398.4 33.886 399.595 35.011 Q 400.808 36.136 401.098 37.7 Q 401.116 37.753 401.081 37.788 Q 401.046 37.823 400.993 37.823 L 398.98 37.823 Q 398.901 37.823 398.884 37.753 Q 398.769 37.401 398.558 37.098 Q 398.347 36.795 398.04 36.531 Q 397.46 36.013 396.572 36.013 Q 395.913 36.013 395.447 36.276 Q 394.981 36.54 394.7 36.883 Q 394.533 37.094 394.41 37.362 Q 394.287 37.63 394.217 37.911 Q 394.146 38.21 394.12 38.834 Q 394.094 39.458 394.094 40.398 Q 394.094 41.356 394.12 41.976 Q 394.146 42.596 394.217 42.894 Q 394.287 43.167 394.414 43.435 Q 394.542 43.703 394.7 43.905 Q 394.981 44.274 395.447 44.534 Q 395.913 44.793 396.572 44.793 Q 397.618 44.793 398.33 44.081 Q 399.051 43.369 399.051 42.218 L 399.051 41.673 Z M 409.964 46.797 Q 409.859 46.797 409.859 46.691 L 409.859 35.898 L 406.51 35.898 Q 406.405 35.898 406.405 35.793 L 406.405 34.097 Q 406.405 33.991 406.51 33.991 L 415.317 33.991 Q 415.422 33.991 415.422 34.097 L 415.422 35.793 Q 415.422 35.898 415.317 35.898 L 411.977 35.898 L 411.977 46.691 Q 411.977 46.797 411.871 46.797 Z M 423.721 46.797 Q 423.615 46.797 423.615 46.691 L 423.615 41.295 L 418.825 41.295 L 418.825 46.691 Q 418.825 46.797 418.72 46.797 L 416.813 46.797 Q 416.707 46.797 416.707 46.691 L 416.707 34.097 Q 416.707 33.991 416.813 33.991 L 418.72 33.991 Q 418.825 33.991 418.825 34.097 L 418.825 39.388 L 423.615 39.388 L 423.615 34.097 Q 423.615 33.991 423.721 33.991 L 425.628 33.991 Q 425.733 33.991 425.733 34.097 L 425.733 46.691 Q 425.733 46.797 425.628 46.797 Z M 427.235 46.788 Q 427.173 46.788 427.147 46.744 Q 427.121 46.7 427.138 46.647 L 431.744 34.044 Q 431.761 33.974 431.832 33.974 L 433.405 33.974 Q 433.431 33.974 433.462 33.996 Q 433.493 34.017 433.501 34.044 L 438.098 46.647 Q 438.116 46.7 438.089 46.744 Q 438.063 46.788 438.01 46.788 L 435.998 46.788 Q 435.927 46.788 435.91 46.718 L 434.96 43.94 L 430.32 43.94 Q 430.074 44.652 429.832 45.333 Q 429.59 46.015 429.344 46.718 Q 429.335 46.744 429.305 46.766 Q 429.274 46.788 429.248 46.788 Z M 434.328 42.051 Q 434.31 41.989 434.279 41.919 Q 434.249 41.849 434.231 41.796 Q 434.082 41.365 433.958 41 Q 433.835 40.636 433.739 40.363 Q 433.677 40.187 433.62 40.02 Q 433.563 39.853 433.51 39.704 Q 433.466 39.563 433.422 39.436 Q 433.378 39.309 433.334 39.185 Q 433.255 38.931 433.172 38.676 Q 433.088 38.421 433 38.148 Q 432.957 38.025 432.908 37.876 Q 432.86 37.726 432.807 37.559 Q 432.781 37.472 432.768 37.423 Q 432.754 37.375 432.737 37.327 Q 432.719 37.278 432.697 37.217 Q 432.675 37.155 432.64 37.041 Q 432.543 37.331 432.46 37.577 Q 432.376 37.823 432.306 38.034 Q 432.289 38.087 432.28 38.131 Q 432.271 38.175 432.253 38.219 Q 432.209 38.368 432.161 38.5 Q 432.113 38.632 432.069 38.764 Q 432.025 38.904 431.981 39.036 Q 431.937 39.168 431.893 39.291 Q 431.805 39.555 431.713 39.845 Q 431.621 40.135 431.506 40.451 Q 431.392 40.767 431.269 41.132 Q 431.146 41.497 430.953 42.051 Z M 433.167 32.857 Q 433.15 32.857 433.124 32.844 Q 433.097 32.831 433.088 32.822 L 430.663 30.256 Q 430.61 30.203 430.641 30.142 Q 430.671 30.08 430.742 30.08 L 432.675 30.08 Q 432.728 30.08 432.763 30.133 L 434.6 32.699 Q 434.626 32.761 434.604 32.809 Q 434.582 32.857 434.512 32.857 Z M 439.689 46.797 Q 439.583 46.797 439.583 46.691 L 439.583 34.097 Q 439.583 33.991 439.689 33.991 L 441.499 33.991 Q 441.552 33.991 441.587 34.044 L 447.124 42.763 L 447.124 34.097 Q 447.124 33.991 447.23 33.991 L 449.146 33.991 Q 449.251 33.991 449.251 34.097 L 449.251 46.691 Q 449.251 46.797 449.146 46.797 L 447.344 46.797 Q 447.291 46.797 447.256 46.744 L 441.701 38.025 L 441.701 46.691 Q 441.701 46.797 441.605 46.797 Z M 458.901 46.797 Q 458.795 46.797 458.795 46.691 L 458.795 41.295 L 454.005 41.295 L 454.005 46.691 Q 454.005 46.797 453.9 46.797 L 451.993 46.797 Q 451.887 46.797 451.887 46.691 L 451.887 34.097 Q 451.887 33.991 451.993 33.991 L 453.9 33.991 Q 454.005 33.991 454.005 34.097 L 454.005 39.388 L 458.795 39.388 L 458.795 34.097 Q 458.795 33.991 458.901 33.991 L 460.808 33.991 Q 460.913 33.991 460.913 34.097 L 460.913 46.691 Q 460.913 46.797 460.808 46.797 Z" transform="matrix(1.310387, 0, 0, 1.310387, -59.698296, -1.169035)" style="fill: rgb(255, 255, 255); text-wrap-mode: nowrap;"/>
    <path transform="matrix(1.310387, 0, 0, 1.310387, -59.698296, -1.169035)" style="fill: rgb(255, 255, 255); text-wrap-mode: nowrap;"/>
    <path d="M 374.111 72.357 Q 374.006 72.357 374.006 72.251 L 374.006 59.657 Q 374.006 59.551 374.111 59.551 L 378.524 59.551 Q 381.16 59.551 382.443 61.722 Q 382.681 62.144 382.83 62.522 Q 382.98 62.9 383.032 63.26 Q 383.138 63.963 383.138 65.958 Q 383.138 68.094 382.988 68.824 Q 382.918 69.193 382.777 69.54 Q 382.637 69.887 382.408 70.23 L 382.408 70.221 Q 381.837 71.126 380.826 71.742 Q 379.798 72.357 378.4 72.357 Z M 376.124 61.573 L 376.124 70.353 L 378.313 70.353 Q 379.824 70.353 380.563 69.298 Q 380.853 68.832 380.932 68.323 Q 380.976 68.041 380.998 67.474 Q 381.02 66.908 381.02 66.029 Q 381.02 65.176 380.993 64.605 Q 380.967 64.034 380.923 63.7 Q 380.835 63.084 380.475 62.583 Q 379.728 61.573 378.313 61.573 Z M 384.209 72.348 Q 384.148 72.348 384.121 72.304 Q 384.095 72.26 384.113 72.207 L 388.718 59.604 Q 388.736 59.534 388.806 59.534 L 390.379 59.534 Q 390.406 59.534 390.436 59.556 Q 390.467 59.577 390.476 59.604 L 395.073 72.207 Q 395.09 72.26 395.064 72.304 Q 395.037 72.348 394.985 72.348 L 392.972 72.348 Q 392.902 72.348 392.884 72.278 L 391.935 69.5 L 387.294 69.5 Q 387.048 70.212 386.806 70.893 Q 386.565 71.575 386.319 72.278 Q 386.31 72.304 386.279 72.326 Q 386.248 72.348 386.222 72.348 Z M 391.302 67.611 Q 391.284 67.549 391.254 67.479 Q 391.223 67.409 391.205 67.356 Q 391.056 66.925 390.933 66.56 Q 390.81 66.196 390.713 65.923 Q 390.652 65.747 390.594 65.58 Q 390.537 65.413 390.485 65.264 Q 390.441 65.123 390.397 64.996 Q 390.353 64.869 390.309 64.745 Q 390.23 64.491 390.146 64.236 Q 390.063 63.981 389.975 63.708 Q 389.931 63.585 389.883 63.436 Q 389.834 63.286 389.781 63.119 Q 389.755 63.032 389.742 62.983 Q 389.729 62.935 389.711 62.887 Q 389.694 62.838 389.672 62.777 Q 389.65 62.715 389.615 62.601 Q 389.518 62.891 389.434 63.137 Q 389.351 63.383 389.281 63.594 Q 389.263 63.647 389.254 63.691 Q 389.245 63.735 389.228 63.779 Q 389.184 63.928 389.135 64.06 Q 389.087 64.192 389.043 64.324 Q 388.999 64.464 388.955 64.596 Q 388.911 64.728 388.867 64.851 Q 388.78 65.115 388.687 65.405 Q 388.595 65.695 388.481 66.011 Q 388.366 66.327 388.243 66.692 Q 388.12 67.057 387.927 67.611 Z M 386.459 58.417 Q 386.38 58.417 386.363 58.347 Q 386.345 58.277 386.398 58.233 L 388.982 56.185 L 390.168 56.185 L 392.787 58.233 Q 392.849 58.277 392.827 58.347 Q 392.805 58.417 392.726 58.417 L 391.249 58.417 L 389.491 57.468 Q 389.105 57.705 388.709 57.943 Q 388.314 58.18 387.927 58.417 Z M 392.62 57.134 Q 392.603 57.134 392.576 57.121 Q 392.55 57.108 392.541 57.099 L 390.115 54.533 Q 390.063 54.48 390.094 54.418 Q 390.124 54.357 390.195 54.357 L 392.128 54.357 Q 392.181 54.357 392.216 54.41 L 394.053 56.976 Q 394.079 57.037 394.057 57.086 Q 394.035 57.134 393.965 57.134 Z M 396.329 59.657 Q 396.329 59.551 396.435 59.551 L 398.351 59.551 Q 398.447 59.551 398.447 59.657 L 398.447 67.778 Q 398.447 69.043 399.15 69.694 Q 399.862 70.353 400.917 70.353 Q 401.954 70.353 402.666 69.694 Q 403.378 69.035 403.378 67.778 L 403.378 59.657 Q 403.378 59.551 403.483 59.551 L 405.391 59.551 Q 405.496 59.551 405.496 59.657 L 405.496 67.989 Q 405.496 70.01 404.151 71.241 Q 402.824 72.462 400.917 72.462 Q 399.001 72.462 397.665 71.241 Q 396.329 70.01 396.329 67.989 Z M 416.401 67.233 Q 416.296 67.233 416.296 67.127 L 416.296 65.317 Q 416.296 65.22 416.401 65.22 L 420.875 65.22 Q 420.98 65.22 420.98 65.317 L 420.98 67.883 Q 420.98 69.826 419.645 71.135 Q 418.291 72.462 416.384 72.462 Q 414.863 72.462 413.826 71.733 Q 412.807 71.012 412.35 70.151 L 412.358 70.151 Q 412.191 69.852 412.077 69.549 Q 411.963 69.245 411.901 68.911 Q 411.849 68.577 411.818 67.844 Q 411.787 67.11 411.787 65.958 Q 411.787 64.807 411.818 64.077 Q 411.849 63.348 411.901 63.014 Q 411.963 62.68 412.077 62.372 Q 412.191 62.065 412.358 61.766 L 412.35 61.766 Q 412.807 60.913 413.826 60.184 Q 414.854 59.446 416.384 59.446 Q 418.212 59.446 419.407 60.571 Q 420.62 61.696 420.91 63.26 Q 420.928 63.313 420.893 63.348 Q 420.857 63.383 420.805 63.383 L 418.792 63.383 Q 418.713 63.383 418.695 63.313 Q 418.581 62.961 418.37 62.658 Q 418.159 62.355 417.852 62.091 Q 417.271 61.573 416.384 61.573 Q 415.725 61.573 415.259 61.836 Q 414.793 62.1 414.512 62.443 Q 414.345 62.654 414.222 62.922 Q 414.099 63.19 414.028 63.471 Q 413.958 63.77 413.932 64.394 Q 413.905 65.018 413.905 65.958 Q 413.905 66.916 413.932 67.536 Q 413.958 68.156 414.028 68.454 Q 414.099 68.727 414.226 68.995 Q 414.354 69.263 414.512 69.465 Q 414.793 69.834 415.259 70.094 Q 415.725 70.353 416.384 70.353 Q 417.43 70.353 418.142 69.641 Q 418.862 68.929 418.862 67.778 L 418.862 67.233 Z M 423.264 72.357 Q 423.159 72.357 423.159 72.251 L 423.159 59.657 Q 423.159 59.551 423.264 59.551 L 425.171 59.551 Q 425.277 59.551 425.277 59.657 L 425.277 72.251 Q 425.277 72.357 425.171 72.357 Z M 426.693 72.348 Q 426.632 72.348 426.606 72.304 Q 426.579 72.26 426.597 72.207 L 431.202 59.604 Q 431.22 59.534 431.29 59.534 L 432.863 59.534 Q 432.89 59.534 432.921 59.556 Q 432.951 59.577 432.96 59.604 L 437.557 72.207 Q 437.574 72.26 437.548 72.304 Q 437.522 72.348 437.469 72.348 L 435.456 72.348 Q 435.386 72.348 435.368 72.278 L 434.419 69.5 L 429.778 69.5 Q 429.532 70.212 429.291 70.893 Q 429.049 71.575 428.803 72.278 Q 428.794 72.304 428.763 72.326 Q 428.733 72.348 428.706 72.348 Z M 433.786 67.611 Q 433.769 67.549 433.738 67.479 Q 433.707 67.409 433.69 67.356 Q 433.54 66.925 433.417 66.56 Q 433.294 66.196 433.197 65.923 Q 433.136 65.747 433.079 65.58 Q 433.022 65.413 432.969 65.264 Q 432.925 65.123 432.881 64.996 Q 432.837 64.869 432.793 64.745 Q 432.714 64.491 432.63 64.236 Q 432.547 63.981 432.459 63.708 Q 432.415 63.585 432.367 63.436 Q 432.318 63.286 432.266 63.119 Q 432.239 63.032 432.226 62.983 Q 432.213 62.935 432.195 62.887 Q 432.178 62.838 432.156 62.777 Q 432.134 62.715 432.099 62.601 Q 432.002 62.891 431.919 63.137 Q 431.835 63.383 431.765 63.594 Q 431.747 63.647 431.738 63.691 Q 431.73 63.735 431.712 63.779 Q 431.668 63.928 431.62 64.06 Q 431.571 64.192 431.527 64.324 Q 431.483 64.464 431.44 64.596 Q 431.396 64.728 431.352 64.851 Q 431.264 65.115 431.171 65.405 Q 431.079 65.695 430.965 66.011 Q 430.851 66.327 430.728 66.692 Q 430.605 67.057 430.411 67.611 Z M 428.943 58.417 Q 428.864 58.417 428.847 58.347 Q 428.829 58.277 428.882 58.233 L 431.466 56.185 L 432.652 56.185 L 435.272 58.233 Q 435.333 58.277 435.311 58.347 Q 435.289 58.417 435.21 58.417 L 433.733 58.417 L 431.976 57.468 Q 431.589 57.705 431.193 57.943 Q 430.798 58.18 430.411 58.417 Z M 441.652 72.357 Q 441.555 72.357 441.555 72.251 L 441.555 67.101 Q 440.606 65.246 439.666 63.401 Q 438.725 61.555 437.785 59.701 Q 437.759 59.639 437.785 59.595 Q 437.811 59.551 437.882 59.551 L 439.886 59.551 Q 439.912 59.551 439.938 59.573 Q 439.965 59.595 439.982 59.613 L 442.566 65.009 Q 443.217 63.647 443.854 62.311 Q 444.491 60.975 445.141 59.613 Q 445.159 59.595 445.185 59.573 Q 445.212 59.551 445.238 59.551 L 447.251 59.551 Q 447.321 59.551 447.347 59.595 Q 447.374 59.639 447.347 59.701 L 443.568 67.101 L 443.568 72.251 Q 443.568 72.357 443.463 72.357 Z" transform="matrix(1.310387, 0, 0, 1.310387, -59.698296, -1.169035)" style="fill: rgb(255, 255, 255); text-wrap-mode: nowrap;"/>
    <path d="M 426.152 119.118 Q 426.045 119.118 426.045 119.011 L 426.045 106.277 Q 426.045 106.17 426.152 106.17 L 434.292 106.17 Q 434.399 106.17 434.399 106.277 L 434.399 108.107 Q 434.399 108.214 434.292 108.214 L 428.187 108.214 L 428.187 111.626 L 433.377 111.626 Q 433.484 111.626 433.484 111.733 L 433.484 113.457 Q 433.484 113.555 433.377 113.555 L 428.187 113.555 L 428.187 117.092 L 434.292 117.092 Q 434.399 117.092 434.399 117.198 L 434.399 119.011 Q 434.399 119.118 434.292 119.118 Z M 442.571 119.118 Q 442.517 119.118 442.482 119.065 L 439.78 114.479 Q 439.105 115.634 438.429 116.772 Q 437.754 117.909 437.079 119.065 Q 437.043 119.118 436.99 119.118 L 434.813 119.118 Q 434.741 119.118 434.715 119.069 Q 434.688 119.02 434.724 118.958 L 438.589 112.48 Q 437.674 110.933 436.776 109.405 Q 435.879 107.876 434.972 106.33 Q 434.937 106.268 434.964 106.219 Q 434.99 106.17 435.052 106.17 L 437.239 106.17 Q 437.292 106.17 437.327 106.223 L 439.78 110.489 Q 440.393 109.422 441.007 108.361 Q 441.62 107.299 442.233 106.223 Q 442.268 106.17 442.322 106.17 L 444.508 106.17 Q 444.57 106.17 444.597 106.219 Q 444.623 106.268 444.588 106.33 L 440.971 112.48 Q 441.949 114.106 442.908 115.719 Q 443.868 117.332 444.846 118.958 Q 444.881 119.02 444.855 119.069 Q 444.828 119.118 444.757 119.118 Z M 448.15 108.214 L 448.15 112.106 L 450.914 112.106 Q 451.936 112.106 452.433 111.493 Q 452.94 110.898 452.94 110.16 Q 452.94 109.058 452.158 108.552 Q 451.651 108.214 450.843 108.214 Z M 446.115 119.118 Q 446.008 119.118 446.008 119.011 L 446.008 106.277 Q 446.008 106.17 446.115 106.17 L 450.736 106.17 Q 451.5 106.17 452.184 106.33 Q 452.878 106.49 453.66 107.094 Q 453.962 107.334 454.215 107.65 Q 454.468 107.965 454.673 108.347 Q 454.868 108.738 454.975 109.209 Q 455.081 109.68 455.081 110.213 Q 455.081 111.609 454.033 112.879 Q 452.984 114.141 450.985 114.141 L 448.15 114.141 L 448.15 119.011 Q 448.15 119.118 448.043 119.118 Z M 458.767 108.098 L 458.767 111.751 L 461.584 111.751 Q 462.615 111.751 463.13 111.182 Q 463.646 110.613 463.646 109.831 Q 463.646 109.387 463.49 109.04 Q 463.335 108.694 463.041 108.472 Q 462.784 108.294 462.441 108.196 Q 462.099 108.098 461.699 108.098 Z M 456.732 119.118 Q 456.625 119.118 456.625 119.011 L 456.625 106.277 Q 456.625 106.17 456.732 106.17 L 461.717 106.17 Q 462.544 106.17 463.21 106.397 Q 463.877 106.623 464.374 107.041 Q 464.632 107.281 464.868 107.587 Q 465.103 107.894 465.285 108.249 Q 465.467 108.605 465.574 109.005 Q 465.681 109.405 465.681 109.831 Q 465.681 110.462 465.503 111.027 Q 465.325 111.591 465.005 112.08 Q 464.676 112.533 464.241 112.875 Q 463.806 113.217 463.255 113.422 Q 463.974 114.799 464.703 116.19 Q 465.432 117.58 466.152 118.958 Q 466.178 119.02 466.152 119.069 Q 466.125 119.118 466.063 119.118 L 463.77 119.118 Q 463.743 119.118 463.717 119.096 Q 463.69 119.073 463.672 119.056 L 461.068 113.679 L 458.767 113.679 L 458.767 119.011 Q 458.767 119.118 458.66 119.118 Z M 467.661 119.118 Q 467.554 119.118 467.554 119.011 L 467.554 106.277 Q 467.554 106.17 467.661 106.17 L 475.801 106.17 Q 475.908 106.17 475.908 106.277 L 475.908 108.107 Q 475.908 108.214 475.801 108.214 L 469.696 108.214 L 469.696 111.626 L 474.886 111.626 Q 474.993 111.626 474.993 111.733 L 474.993 113.457 Q 474.993 113.555 474.886 113.555 L 469.696 113.555 L 469.696 117.092 L 475.801 117.092 Q 475.908 117.092 475.908 117.198 L 475.908 119.011 Q 475.908 119.118 475.801 119.118 Z M 477.686 115.848 Q 477.712 115.812 477.757 115.812 Q 477.801 115.812 477.837 115.839 Q 478.539 116.407 479.45 116.75 Q 480.36 117.092 481.374 117.092 Q 482.511 117.092 483.169 116.621 Q 483.791 116.167 483.791 115.421 Q 483.791 114.017 482.218 113.804 L 482.227 113.804 Q 482.005 113.777 481.805 113.75 Q 481.605 113.724 481.405 113.697 Q 481.205 113.67 480.996 113.639 Q 480.787 113.608 480.538 113.573 Q 479.703 113.457 479.05 113.15 Q 478.396 112.844 477.952 112.337 Q 477.508 111.822 477.286 111.213 Q 477.063 110.604 477.063 109.885 Q 477.063 108.196 478.183 107.139 Q 479.312 106.063 481.32 106.063 Q 481.916 106.063 482.48 106.165 Q 483.044 106.268 483.573 106.445 Q 484.102 106.623 484.586 106.868 Q 485.07 107.112 485.515 107.405 Q 485.604 107.467 485.541 107.556 L 484.466 109.147 Q 484.404 109.227 484.324 109.174 Q 483.631 108.738 482.849 108.476 Q 482.067 108.214 481.231 108.214 Q 480.805 108.214 480.44 108.316 Q 480.076 108.418 479.783 108.649 Q 479.205 109.067 479.205 109.92 Q 479.205 110.409 479.596 110.871 Q 479.792 111.084 480.121 111.231 Q 480.449 111.378 480.929 111.449 Q 481.187 111.493 481.534 111.542 Q 481.88 111.591 482.351 111.644 Q 484.173 111.866 485.053 112.986 Q 485.932 114.079 485.932 115.421 Q 485.932 117.216 484.679 118.229 Q 483.417 119.225 481.356 119.225 Q 478.45 119.225 476.415 117.447 Q 476.379 117.421 476.379 117.376 Q 476.379 117.332 476.406 117.296 Z M 487.955 115.848 Q 487.982 115.812 488.027 115.812 Q 488.071 115.812 488.107 115.839 Q 488.809 116.407 489.719 116.75 Q 490.63 117.092 491.643 117.092 Q 492.781 117.092 493.439 116.621 Q 494.061 116.167 494.061 115.421 Q 494.061 114.017 492.488 113.804 L 492.497 113.804 Q 492.274 113.777 492.074 113.75 Q 491.874 113.724 491.675 113.697 Q 491.475 113.67 491.266 113.639 Q 491.057 113.608 490.808 113.573 Q 489.973 113.457 489.32 113.15 Q 488.666 112.844 488.222 112.337 Q 487.778 111.822 487.556 111.213 Q 487.333 110.604 487.333 109.885 Q 487.333 108.196 488.453 107.139 Q 489.582 106.063 491.59 106.063 Q 492.186 106.063 492.75 106.165 Q 493.314 106.268 493.843 106.445 Q 494.372 106.623 494.856 106.868 Q 495.34 107.112 495.785 107.405 Q 495.873 107.467 495.811 107.556 L 494.736 109.147 Q 494.674 109.227 494.594 109.174 Q 493.901 108.738 493.119 108.476 Q 492.337 108.214 491.501 108.214 Q 491.075 108.214 490.71 108.316 Q 490.346 108.418 490.053 108.649 Q 489.475 109.067 489.475 109.92 Q 489.475 110.409 489.866 110.871 Q 490.062 111.084 490.39 111.231 Q 490.719 111.378 491.199 111.449 Q 491.457 111.493 491.803 111.542 Q 492.15 111.591 492.621 111.644 Q 494.443 111.866 495.323 112.986 Q 496.202 114.079 496.202 115.421 Q 496.202 117.216 494.949 118.229 Q 493.687 119.225 491.626 119.225 Q 488.72 119.225 486.685 117.447 Q 486.649 117.421 486.649 117.376 Q 486.649 117.332 486.676 117.296 Z M 500.211 119.118 Q 500.123 119.118 500.105 119.038 L 496.914 106.303 Q 496.897 106.25 496.932 106.21 Q 496.968 106.17 497.021 106.17 L 499.065 106.17 Q 499.154 106.17 499.172 106.25 L 501.091 114.95 Q 501.678 112.764 502.273 110.604 Q 502.869 108.445 503.464 106.25 Q 503.482 106.17 503.571 106.17 L 504.966 106.17 Q 505.046 106.17 505.064 106.25 L 507.445 114.95 Q 507.925 112.764 508.405 110.604 Q 508.885 108.445 509.365 106.25 Q 509.382 106.17 509.471 106.17 L 511.515 106.17 Q 511.569 106.17 511.604 106.21 Q 511.64 106.25 511.622 106.303 L 508.432 119.038 Q 508.414 119.118 508.325 119.118 L 506.716 119.118 Q 506.636 119.118 506.619 119.038 L 504.264 110.196 Q 503.677 112.426 503.091 114.621 Q 502.504 116.816 501.918 119.038 Q 501.9 119.118 501.82 119.118 Z M 511.536 119.109 Q 511.473 119.109 511.447 119.065 Q 511.42 119.02 511.438 118.967 L 516.095 106.223 Q 516.112 106.152 516.183 106.152 L 517.774 106.152 Q 517.801 106.152 517.832 106.174 Q 517.863 106.197 517.872 106.223 L 522.52 118.967 Q 522.537 119.02 522.511 119.065 Q 522.484 119.109 522.431 119.109 L 520.396 119.109 Q 520.325 119.109 520.307 119.038 L 519.347 116.23 L 514.655 116.23 Q 514.406 116.95 514.162 117.638 Q 513.917 118.327 513.668 119.038 Q 513.66 119.065 513.628 119.087 Q 513.597 119.109 513.571 119.109 Z M 518.707 114.319 Q 518.689 114.257 518.658 114.186 Q 518.627 114.115 518.609 114.061 Q 518.458 113.626 518.334 113.257 Q 518.21 112.888 518.112 112.613 Q 518.05 112.435 517.992 112.266 Q 517.934 112.097 517.881 111.946 Q 517.836 111.804 517.792 111.675 Q 517.747 111.546 517.703 111.422 Q 517.623 111.164 517.539 110.907 Q 517.454 110.649 517.365 110.373 Q 517.321 110.249 517.272 110.098 Q 517.223 109.947 517.17 109.778 Q 517.143 109.689 517.13 109.64 Q 517.117 109.591 517.099 109.542 Q 517.081 109.494 517.059 109.431 Q 517.037 109.369 517.001 109.254 Q 516.903 109.547 516.819 109.796 Q 516.734 110.045 516.663 110.258 Q 516.646 110.311 516.637 110.356 Q 516.628 110.4 516.61 110.444 Q 516.566 110.596 516.517 110.729 Q 516.468 110.862 516.423 110.995 Q 516.379 111.138 516.334 111.271 Q 516.29 111.404 516.246 111.529 Q 516.157 111.795 516.063 112.088 Q 515.97 112.382 515.855 112.702 Q 515.739 113.022 515.615 113.39 Q 515.49 113.759 515.295 114.319 Z M 525.5 119.118 Q 525.402 119.118 525.402 119.011 L 525.402 113.804 Q 524.443 111.929 523.492 110.062 Q 522.541 108.196 521.59 106.321 Q 521.563 106.259 521.59 106.214 Q 521.617 106.17 521.688 106.17 L 523.714 106.17 Q 523.741 106.17 523.767 106.192 Q 523.794 106.214 523.812 106.232 L 526.424 111.689 Q 527.082 110.311 527.726 108.96 Q 528.371 107.61 529.028 106.232 Q 529.046 106.214 529.073 106.192 Q 529.099 106.17 529.126 106.17 L 531.161 106.17 Q 531.232 106.17 531.259 106.214 Q 531.285 106.259 531.259 106.321 L 527.437 113.804 L 527.437 119.011 Q 527.437 119.118 527.331 119.118 Z" style="fill: rgb(255, 255, 255); text-wrap-mode: nowrap;"/>
    <path d="M 341.199 84.558 Q 341.271 84.558 341.319 84.612 Q 341.367 84.666 341.343 84.738 Q 340.838 87.189 339.109 88.51 Q 338.268 89.147 337.283 89.471 Q 336.298 89.795 335.157 89.795 Q 333.079 89.795 331.661 88.798 Q 330.268 87.813 329.643 86.636 Q 329.427 86.228 329.271 85.813 Q 329.115 85.399 329.031 84.942 Q 328.875 84.054 328.875 80.906 Q 328.875 79.333 328.911 78.336 Q 328.947 77.339 329.031 76.883 Q 329.115 76.426 329.271 76.006 Q 329.427 75.585 329.643 75.177 Q 330.268 74.012 331.661 73.015 Q 333.067 72.006 335.157 72.006 Q 337.655 72.006 339.289 73.543 Q 340.946 75.093 341.343 77.219 Q 341.367 77.291 341.319 77.339 Q 341.271 77.387 341.199 77.387 L 338.448 77.387 Q 338.34 77.387 338.316 77.291 Q 338.16 76.81 337.871 76.396 Q 337.583 75.982 337.163 75.621 Q 336.37 74.913 335.157 74.913 Q 334.256 74.913 333.619 75.273 Q 332.983 75.633 332.598 76.102 Q 332.37 76.39 332.202 76.756 Q 332.034 77.123 331.938 77.507 Q 331.841 77.916 331.805 78.768 Q 331.769 79.621 331.769 80.906 Q 331.769 82.216 331.805 83.063 Q 331.841 83.909 331.938 84.318 Q 332.034 84.69 332.208 85.057 Q 332.382 85.423 332.598 85.699 Q 332.983 86.204 333.619 86.558 Q 334.256 86.912 335.157 86.912 Q 337.235 86.912 338.316 84.642 Q 338.34 84.618 338.376 84.588 Q 338.412 84.558 338.448 84.558 Z M 346.229 89.651 Q 346.085 89.651 346.085 89.507 L 346.085 74.756 L 341.509 74.756 Q 341.365 74.756 341.365 74.612 L 341.365 72.294 Q 341.365 72.15 341.509 72.15 L 353.544 72.15 Q 353.689 72.15 353.689 72.294 L 353.689 74.612 Q 353.689 74.756 353.544 74.756 L 348.98 74.756 L 348.98 89.507 Q 348.98 89.651 348.836 89.651 Z M 354.055 89.651 Q 353.911 89.651 353.911 89.507 L 353.911 87.068 Q 353.911 86.924 354.055 86.924 L 356.505 86.924 Q 356.637 86.924 356.637 87.068 L 356.637 89.507 Q 356.637 89.651 356.505 89.651 Z M 357.737 89.651 Q 357.593 89.651 357.593 89.507 L 357.593 87.165 L 364.32 78.744 L 364.32 78.756 Q 364.692 78.288 364.8 77.898 Q 364.908 77.507 364.908 77.135 Q 364.908 76.306 364.308 75.573 Q 363.707 74.853 362.686 74.853 Q 361.749 74.853 361.064 75.489 Q 360.728 75.801 360.554 76.228 Q 360.38 76.654 360.332 77.195 Q 360.332 77.255 360.29 77.291 Q 360.248 77.327 360.188 77.327 L 357.737 77.327 Q 357.593 77.327 357.593 77.183 Q 357.617 75.045 359.046 73.591 Q 360.5 72.114 362.506 72.114 Q 364.68 72.114 366.169 73.603 L 366.157 73.603 Q 367.635 75.081 367.635 77.159 Q 367.635 78.06 367.371 78.828 Q 367.106 79.597 366.578 80.258 L 366.578 80.246 Q 365.893 81.111 365.232 81.939 Q 364.572 82.768 363.911 83.591 Q 363.251 84.414 362.59 85.237 Q 361.929 86.06 361.245 86.924 L 367.491 86.924 Q 367.635 86.924 367.635 87.068 L 367.635 89.507 Q 367.635 89.651 367.491 89.651 Z M 369.807 77.183 Q 369.819 75.994 370.216 75.051 Q 370.612 74.108 371.333 73.435 Q 372.017 72.811 372.87 72.468 Q 373.723 72.126 374.66 72.126 Q 376.642 72.126 378.059 73.435 Q 379.489 74.756 379.525 77.195 L 379.525 84.762 Q 379.501 85.927 379.116 86.888 Q 378.732 87.849 378.059 88.51 Q 377.375 89.122 376.516 89.471 Q 375.657 89.819 374.66 89.843 Q 372.942 89.795 371.633 88.786 L 371.633 88.798 Q 370.948 88.27 370.522 87.531 Q 370.095 86.792 369.903 85.831 Q 369.879 85.771 369.921 85.723 Q 369.963 85.675 370.035 85.675 L 372.486 85.675 Q 372.57 85.675 372.618 85.771 Q 373.158 87.117 374.66 87.117 Q 376.786 87.105 376.87 84.63 L 376.87 83.201 Q 376.077 83.441 375.297 83.573 Q 374.516 83.705 373.831 83.681 Q 372.173 83.717 370.96 82.48 L 370.972 82.48 Q 369.783 81.291 369.807 78.768 Z M 372.474 78.744 Q 372.474 81.195 374.66 81.231 Q 376.798 81.195 376.87 78.744 L 376.87 77.339 Q 376.774 74.901 374.66 74.853 Q 372.486 74.913 372.474 77.339 Z" style="text-wrap-mode: nowrap;"/>
    <path d="M 394.303 191.656 Q 394.104 191.656 394.104 191.457 L 394.104 171.735 Q 393.34 172.299 392.577 172.872 Q 391.813 173.444 391.049 173.992 Q 390.933 174.075 390.834 174.017 Q 390.734 173.959 390.734 173.826 L 390.734 170.224 Q 390.734 170.191 390.759 170.141 Q 390.784 170.091 390.817 170.058 L 394.237 167.584 L 397.707 167.584 Q 397.906 167.584 397.906 167.783 L 397.906 191.457 Q 397.906 191.656 397.707 191.656 Z M 401.305 191.607 Q 401.106 191.607 401.106 191.407 L 401.106 188.17 L 410.403 176.532 L 410.403 176.549 Q 410.917 175.902 411.067 175.362 Q 411.216 174.822 411.216 174.308 Q 411.216 173.162 410.386 172.15 Q 409.556 171.153 408.145 171.153 Q 406.85 171.153 405.904 172.033 Q 405.439 172.465 405.198 173.054 Q 404.957 173.644 404.891 174.391 Q 404.891 174.474 404.833 174.524 Q 404.775 174.573 404.692 174.573 L 401.305 174.573 Q 401.106 174.573 401.106 174.374 Q 401.139 171.419 403.115 169.41 Q 405.123 167.368 407.896 167.368 Q 410.901 167.368 412.959 169.427 L 412.943 169.427 Q 414.985 171.469 414.985 174.341 Q 414.985 175.586 414.619 176.649 Q 414.254 177.711 413.524 178.624 L 413.524 178.608 Q 412.577 179.803 411.664 180.948 Q 410.751 182.094 409.838 183.231 Q 408.925 184.368 408.012 185.506 Q 407.099 186.643 406.153 187.838 L 414.785 187.838 Q 414.985 187.838 414.985 188.037 L 414.985 191.407 Q 414.985 191.607 414.785 191.607 Z M 427.671 174.573 Q 427.671 172.963 426.816 172.058 Q 425.961 171.153 424.534 171.153 Q 423.106 171.153 422.259 172.058 Q 421.413 172.963 421.413 174.573 L 421.413 184.617 Q 421.413 186.244 422.259 187.141 Q 423.106 188.037 424.534 188.037 Q 425.961 188.037 426.816 187.141 Q 427.671 186.244 427.671 184.617 Z M 417.627 174.374 Q 417.627 171.021 419.736 169.211 Q 421.828 167.368 424.534 167.368 Q 425.878 167.368 427.082 167.841 Q 428.286 168.315 429.331 169.211 Q 430.377 170.141 430.917 171.427 Q 431.456 172.714 431.456 174.374 L 431.456 184.817 Q 431.456 188.153 429.331 189.98 Q 427.24 191.806 424.534 191.806 Q 421.828 191.806 419.736 189.98 Q 417.627 188.17 417.627 184.817 Z" style="text-wrap-mode: nowrap;"/>
    <path d="M 505.003 174.391 Q 505.02 172.731 505.568 171.427 Q 506.116 170.124 507.112 169.194 Q 508.058 168.331 509.237 167.858 Q 510.415 167.385 511.71 167.385 Q 514.068 167.385 515.977 168.796 Q 517.77 170.224 518.318 172.913 Q 518.351 173.013 518.285 173.079 Q 518.218 173.146 518.119 173.146 L 514.715 173.146 Q 514.582 173.146 514.533 173.029 Q 513.786 171.203 511.694 171.153 Q 508.689 171.236 508.689 174.607 L 508.689 176.566 Q 509.768 176.25 510.839 176.068 Q 511.91 175.885 512.873 175.902 Q 515.197 175.902 516.857 177.528 Q 518.451 179.205 518.434 182.692 L 518.434 184.85 Q 518.384 188.253 516.409 190.029 Q 514.549 191.789 511.71 191.872 Q 508.955 191.789 507.112 190.046 Q 505.02 188.22 505.003 184.866 Z M 508.689 184.667 Q 508.706 188.07 511.71 188.104 Q 514.649 188.087 514.765 184.667 L 514.765 182.725 Q 514.632 179.355 511.71 179.288 Q 508.706 179.371 508.689 182.725 Z M 531.13 174.573 Q 531.13 172.963 530.275 172.058 Q 529.42 171.153 527.993 171.153 Q 526.565 171.153 525.718 172.058 Q 524.872 172.963 524.872 174.573 L 524.872 184.617 Q 524.872 186.244 525.718 187.141 Q 526.565 188.037 527.993 188.037 Q 529.42 188.037 530.275 187.141 Q 531.13 186.244 531.13 184.617 Z M 521.086 174.374 Q 521.086 171.021 523.195 169.211 Q 525.287 167.368 527.993 167.368 Q 529.337 167.368 530.541 167.841 Q 531.745 168.315 532.791 169.211 Q 533.836 170.141 534.376 171.427 Q 534.916 172.714 534.916 174.374 L 534.916 184.817 Q 534.916 188.153 532.791 189.98 Q 530.699 191.806 527.993 191.806 Q 525.287 191.806 523.195 189.98 Q 521.086 188.17 521.086 184.817 Z" style="fill: rgb(255, 255, 255); text-wrap-mode: nowrap;"/>
  </g>
</svg>