<?xml version="1.0" encoding="utf-8"?>
<svg viewBox="0 0 323.14914 200" xmlns="http://www.w3.org/2000/svg">
  <g id="layer1" transform="matrix(0.9999999999999999, 0, 0, 0.9999999999999999, -303.4596862792969, -22.960700988769517)">
    <path id="rect15575" style="opacity:1;fill:#0a9646;fill-opacity:1;fill-rule:evenodd;stroke-width:0.0420687;stroke-linecap:square;stroke-miterlimit:10;paint-order:stroke fill markers" d="M 303.45966,22.960701 H 626.6088 V 222.9607 H 303.45966 Z"/>
    <path transform="matrix(0.26458333,0,0,0.26458333,303.45966,22.960701)" d="m 30.353516,5.0117188 c -13.808655,0 -25.0781254,11.2674112 -25.0781254,25.0761722 v 332.957029 47.1211 49.04296 13.88672 252.45508 c 0,13.80862 11.2694704,25.06641 25.0781254,25.06641 H 1190.9805 c 13.8086,0 25.0781,-11.25779 25.0781,-25.06641 V 473.0957 459.57031 401.94727 363.04492 30.087891 c 0,-13.808761 -11.2695,-25.0761722 -25.0781,-25.0761722 z m 0,9.4511722 H 1190.9805 c 8.7398,0 15.6425,6.885058 15.6425,15.625 v 332.957029 38.90235 c 0,0.29959 -0.013,0.61475 -0.037,0.9375 v 7.20703 c 0,8.68754 -6.9941,15.68164 -15.6816,15.68164 h -8.0762 c -0.1869,0.007 -0.3766,0.0176 -0.5586,0.0176 H 38.023438 c -0.18105,0 -0.371847,-0.0102 -0.560547,-0.0176 h -7.097657 c -8.687546,0 -15.68164,-6.9941 -15.68164,-15.68164 V 30.152344 c 0,-1.658433 0.257595,-3.253829 0.730468,-4.751953 0.01365,-0.04461 0.03284,-0.08643 0.04688,-0.13086 1.99686,-6.321925 7.84094,-10.80664 14.892578,-10.80664 z M 30.28125,435.30469 h 6.958984 1145.628866 8.1172 c 8.6414,0 15.5996,6.95633 15.5996,15.59765 v 7.5918 c 0.024,0.37296 0.037,0.7339 0.037,1.07617 v 13.52539 252.45508 c 0,5.47634 -2.7106,10.22208 -6.8847,13.00391 -2.4923,1.6862 -5.5034,2.66992 -8.752,2.66992 H 30.28125 c -8.641361,0 -15.597656,-6.9563 -15.597656,-15.59766 V 450.90234 c 0,-8.64132 6.956295,-15.59765 15.597656,-15.59765 z" style="color:#000000;font-style:normal;font-variant:normal;font-weight:normal;font-stretch:normal;font-size:medium;line-height:normal;font-family:sans-serif;font-variant-ligatures:normal;font-variant-position:normal;font-variant-caps:normal;font-variant-numeric:normal;font-variant-alternates:normal;font-variant-east-asian:normal;font-feature-settings:normal;font-variation-settings:normal;text-indent:0;text-align:start;text-decoration:none;text-decoration-line:none;text-decoration-style:solid;text-decoration-color:#000000;letter-spacing:normal;word-spacing:normal;text-transform:none;writing-mode:lr-tb;direction:ltr;text-orientation:mixed;dominant-baseline:auto;baseline-shift:baseline;text-anchor:start;white-space:normal;shape-padding:0;shape-margin:0;inline-size:0;clip-rule:nonzero;display:inline;overflow:visible;visibility:visible;opacity:1;isolation:auto;mix-blend-mode:normal;color-interpolation:sRGB;color-interpolation-filters:linearRGB;solid-color:#000000;solid-opacity:1;vector-effect:none;fill:#ffffff;fill-opacity:1;fill-rule:evenodd;stroke:none;stroke-width:2.09199;stroke-linecap:square;stroke-linejoin:miter;stroke-miterlimit:10;stroke-dasharray:none;stroke-dashoffset:0;stroke-opacity:1;paint-order:stroke fill markers;color-rendering:auto;image-rendering:auto;shape-rendering:auto;text-rendering:auto;enable-background:accumulate;stop-color:#000000;stop-opacity:1" id="path15582"/>
    <path d="m 324.12038,67.193614 h 60.89334 v 27.821331 h -60.89334 z" style="opacity:1;fill:#ffd70f;fill-opacity:1;fill-rule:evenodd;stroke:none;stroke-width:0.553508;stroke-linecap:square;stroke-miterlimit:10;stroke-dasharray:none;stroke-opacity:1;paint-order:stroke fill markers" id="rect15605"/>
    <path id="path15631" d="m 326.18273,67.759747 c -0.81115,0 -1.47443,0.660164 -1.47443,1.471307 v 23.746432 c 0,0.811142 0.66328,1.471323 1.47443,1.471323 h 56.7905 c 0.81117,0 1.4744,-0.660181 1.4744,-1.471323 V 69.231054 c 0,-0.811143 -0.66328,-1.471307 -1.4744,-1.471307 z m 0,0.535017 h 56.7905 c 0.52266,0 0.93627,0.413622 0.93627,0.93629 v 23.746432 c 0,0.522654 -0.41353,0.933189 -0.93627,0.933189 h -56.7905 c -0.52266,0 -0.93628,-0.410555 -0.93628,-0.933189 V 69.231054 c 0,-0.522672 0.41354,-0.93629 0.93628,-0.93629 z" style="color:#000000;font-style:normal;font-variant:normal;font-weight:normal;font-stretch:normal;font-size:medium;line-height:normal;font-family:sans-serif;font-variant-ligatures:normal;font-variant-position:normal;font-variant-caps:normal;font-variant-numeric:normal;font-variant-alternates:normal;font-variant-east-asian:normal;font-feature-settings:normal;font-variation-settings:normal;text-indent:0;text-align:start;text-decoration:none;text-decoration-line:none;text-decoration-style:solid;text-decoration-color:#000000;letter-spacing:normal;word-spacing:normal;text-transform:none;writing-mode:lr-tb;direction:ltr;text-orientation:mixed;dominant-baseline:auto;baseline-shift:baseline;text-anchor:start;white-space:normal;shape-padding:0;shape-margin:0;inline-size:0;clip-rule:nonzero;display:inline;overflow:visible;visibility:visible;opacity:1;isolation:auto;mix-blend-mode:normal;color-interpolation:sRGB;color-interpolation-filters:linearRGB;solid-color:#000000;solid-opacity:1;vector-effect:none;fill:#000000;fill-opacity:1;fill-rule:evenodd;stroke:none;stroke-width:0.119062;stroke-linecap:square;stroke-linejoin:miter;stroke-miterlimit:10;stroke-dasharray:none;stroke-dashoffset:0;stroke-opacity:1;paint-order:stroke fill markers;color-rendering:auto;image-rendering:auto;shape-rendering:auto;text-rendering:auto;enable-background:accumulate;stop-color:#000000;stop-opacity:1"/>
    <path d="m 336.88947,72.205604 c -1.36961,0 -2.51552,0.330332 -3.43646,0.991507 -0.91309,0.653335 -1.5737,1.361798 -1.98303,2.125328 -0.14189,0.267612 -0.264,0.538688 -0.36613,0.814199 -0.10264,0.275473 -0.18065,0.564078 -0.23555,0.86321 -0.0552,0.299089 -0.0954,0.774434 -0.11873,1.427765 -0.0223,0.653332 -0.0362,1.495435 -0.0362,2.5266 0,2.062321 0.0516,3.383536 0.15387,3.966025 0.0552,0.299136 0.13326,0.587702 0.23556,0.863193 0.10264,0.267612 0.22467,0.534915 0.36612,0.802543 0.40948,0.771411 1.06995,1.479875 1.983,2.125324 0.92887,0.653346 2.07472,0.979855 3.43649,0.979855 0.74779,0 1.44489,-0.107189 2.09034,-0.319632 0.64544,-0.212556 1.24303,-0.525333 1.79403,-0.942508 1.1335,-0.865864 1.86473,-2.103628 2.19533,-3.709419 0.0139,-0.04714 0.009,-0.08518 -0.0223,-0.116745 -0.0315,-0.03928 -0.0694,-0.05829 -0.11656,-0.05829 h -2.70394 c -0.0223,1.5e-5 -0.0488,0.01117 -0.0722,0.03521 -0.0223,0.01589 -0.0451,0.0307 -0.0582,0.0467 -0.70836,1.487712 -1.74338,2.232636 -3.10515,2.232636 -0.59037,0 -1.09454,-0.11468 -1.51174,-0.342928 -0.41713,-0.236167 -0.75132,-0.520933 -1.00317,-0.851551 -0.14189,-0.181028 -0.27124,-0.389065 -0.3896,-0.625222 -0.11008,-0.244 -0.19597,-0.488524 -0.25924,-0.732545 -0.0628,-0.267611 -0.10709,-0.67614 -0.13048,-1.227141 -0.0223,-0.558871 -0.0359,-1.267326 -0.0359,-2.125325 0,-0.842249 0.009,-1.543133 0.0359,-2.102004 0.0223,-0.55887 0.0677,-0.97117 0.13048,-1.238798 0.0627,-0.251917 0.14857,-0.496392 0.25924,-0.732549 0.11009,-0.244 0.24028,-0.45965 0.3896,-0.64857 0.252,-0.30699 0.58598,-0.580386 1.00317,-0.816526 0.41715,-0.236167 0.92137,-0.352269 1.51174,-0.352269 0.79503,1.7e-5 1.45185,0.230844 1.97135,0.695231 0.27541,0.236167 0.50863,0.492045 0.69757,0.767539 0.18872,0.267667 0.33407,0.560022 0.4361,0.874867 0.0167,0.06294 0.0599,0.09333 0.13046,0.09333 h 2.7039 c 0.0468,0 0.0854,-0.01589 0.11658,-0.0467 0.0315,-0.03161 0.0407,-0.07184 0.0223,-0.118954 -0.25952,-1.393235 -0.93175,-2.595995 -2.01801,-3.611427 -1.07052,-1.007535 -2.42438,-1.511744 -4.0617,-1.511744 z m 27.73422,0.104956 c -1.28304,0 -2.4213,0.437369 -3.41313,1.311121 -0.99967,0.858 -1.50005,2.08205 -1.50005,3.672071 v 7.425818 c 0,1.590021 0.50038,2.814088 1.50005,3.672088 0.99183,0.865851 2.13009,1.299446 3.41313,1.299446 1.28303,0 2.42133,-0.433578 3.41313,-1.299446 1.00756,-0.86587 1.50938,-2.089917 1.50938,-3.672088 v -7.425818 c 0,-0.787127 -0.1299,-1.484222 -0.38959,-2.09033 -0.252,-0.613979 -0.62389,-1.140934 -1.11979,-1.581741 -0.49592,-0.425045 -1.03279,-0.74779 -1.6074,-0.968177 -0.56674,-0.22825 -1.16816,-0.342924 -1.80573,-0.342924 z m -21.12261,0.03521 c -0.0943,0 -0.14217,0.04776 -0.14217,0.142392 v 2.279298 c 0,0.09444 0.0479,0.142197 0.14217,0.142197 h 4.49793 V 89.409 c 0,0.09444 0.0479,0.139995 0.14217,0.139995 h 2.5616 c 0.0945,0 0.14217,-0.04555 0.14217,-0.139995 V 74.909653 h 4.48625 c 0.0943,0 0.14217,-0.04778 0.14217,-0.142196 v -2.279299 c 0,-0.09444 -0.0479,-0.142392 -0.14217,-0.142392 z m 31.22667,0.118953 -2.43331,1.759064 c -0.0139,0.01589 -0.0315,0.03477 -0.0466,0.05829 -0.009,0.02341 -0.0139,0.04468 -0.0139,0.06068 v 2.561593 c 0,0.06294 0.0278,0.110694 0.0728,0.142196 0.0468,0.02343 0.0989,0.01617 0.15388,-0.02343 0.36208,-0.259778 0.7228,-0.523245 1.08486,-0.790886 0.36206,-0.275473 0.72509,-0.548889 1.08714,-0.816528 v 14.028096 c 0,0.09444 0.048,0.142198 0.14217,0.142198 h 2.41929 c 0.0943,0 0.13994,-0.04778 0.13994,-0.142198 V 72.606811 c 0,-0.09444 -0.0455,-0.142197 -0.13994,-0.142197 z m -10.10406,2.538257 c 0.67694,0 1.21532,0.217964 1.61673,0.650912 0.40948,0.425045 0.61359,1.018854 0.61359,1.782378 v 7.143522 c 0,0.771407 -0.20461,1.368982 -0.61359,1.794059 -0.40133,0.425045 -0.93979,0.63689 -1.61673,0.63689 -0.67695,0 -1.21527,-0.211859 -1.61671,-0.63689 -0.40134,-0.425091 -0.60428,-1.022652 -0.60428,-1.794059 v -7.143497 c 0,-0.763524 0.20266,-1.357335 0.60428,-1.782377 0.40133,-0.432946 0.93976,-0.650913 1.61671,-0.650913 z m -9.98507,11.865445 c -0.0945,0 -0.14217,0.04776 -0.14217,0.14239 v 2.398281 c 0,0.09444 0.0479,0.139994 0.14217,0.139994 h 2.40762 c 0.0867,0 0.13046,-0.04555 0.13046,-0.139994 v -2.398281 c 0,-0.09444 -0.0451,-0.14239 -0.13046,-0.14239 z" style="font-style: normal; font-variant: normal; font-weight: normal; font-stretch: normal; font-size: 15.1831px; line-height: 1.46; font-family: 'Alte DIN 1451 Mittelschrift gepraegt'; text-align: center; text-anchor: middle; opacity: 1; fill-opacity: 1; stroke-width: 0.264584; visibility: hidden;" id="path15637"/>
    <path id="path17496" style="font-size:15.1831px;line-height:1.46;font-family:'Singapore Road Signs';-inkscape-font-specification:'Singapore Road Signs';text-align:center;text-anchor:middle;opacity:1;fill:#ffffff;fill-opacity:1;stroke-width:0.0756548" d="m 570.47468,59.120043 v 50.614317 h 35.43541 V 59.120043 Z m 1.38203,1.660034 h 32.65274 v 47.566083 h -32.65274 z m 13.66823,3.646909 -2.23483,8.869719 h 3.92184 l 0.28216,-8.869719 z m 3.35329,0 0.28216,8.869719 h 3.92385 l -2.23686,-8.869719 z m -15.90932,9.992316 v 1.942234 l 3.06692,1.10806 v 0.584703 h 1.411 v -0.584703 c 0,0 2.08662,-0.313671 4.52568,-0.535349 1.95306,-0.177516 4.1317,-0.271988 5.64407,-0.278037 1.79866,-0.0063 4.45804,0.09363 6.73975,0.288436 2.51319,0.214479 4.5713,0.524984 4.5713,0.524984 v 0.5847 h 1.38199 v -0.5847 l 3.06685,-1.108064 v -1.942233 z m 9.21108,3.620663 -6.70448,26.681115 h 10.04943 l 1.39442,-26.681115 z m 7.25642,0 1.39441,26.681115 h 10.0494 l -6.70443,-26.681115 z"/>
    <g style="font-size:14.7905px;line-height:0;font-family:'Singapore Road Signs';-inkscape-font-specification:'Singapore Road Signs';text-align:center;text-anchor:middle;opacity:1;fill:#860000;fill-opacity:1;stroke-width:6.45213" id="layer1-8" transform="matrix(0.08718024,0,0,0.08718024,-145.22047,195.49013)">
      <circle style="opacity:1;fill:#f00a0a;fill-opacity:1;fill-rule:nonzero;stroke:none;stroke-width:3622.55;stroke-linecap:round;stroke-linejoin:round;stroke-miterlimit:4;stroke-dasharray:none;stroke-opacity:1;paint-order:stroke fill markers" id="path815" cx="6380.9966" cy="-193.29752" r="350"/>
      <circle cy="-193.29752" cx="6380.9966" id="circle817" style="opacity:1;fill:#ffffff;fill-opacity:1;fill-rule:nonzero;stroke:none;stroke-width:2587.55;stroke-linecap:round;stroke-linejoin:round;stroke-miterlimit:4;stroke-dasharray:none;stroke-opacity:1;paint-order:stroke fill markers" r="263.821"/>
      <g aria-label="20 " style="font-style:normal;font-variant:normal;font-weight:bold;font-stretch:normal;font-size:414.864px;line-height:0;font-family:Giaothong1;-inkscape-font-specification:'Giaothong1 Bold';letter-spacing:0px;word-spacing:0px;fill:#000000;fill-opacity:1;stroke:none;stroke-width:24.7849" id="text874" transform="matrix(-1,0,0,1,1299.029,-383.45)">
        <g aria-label="90" transform="translate(2310.2259,387.54849)" style="font-style:normal;font-variant:normal;font-weight:bold;font-stretch:normal;font-size:414.864px;line-height:0;font-family:Giaothong1;-inkscape-font-specification:'Giaothong1 Bold';letter-spacing:0px;word-spacing:0px;fill:#000000;fill-opacity:1;stroke:none;stroke-width:53.5539" id="text844"/>
      </g>
    </g>
    <g style="font-size:14.7905px;line-height:0;font-family:'Singapore Road Signs';-inkscape-font-specification:'Singapore Road Signs';text-align:center;text-anchor:middle;opacity:1;fill:#fff000;fill-opacity:1;stroke-width:6.45221" id="layer1-7" transform="matrix(0.08717968,0,0,0.08717968,488.77841,183.34565)">
      <circle cy="-54" cx="351" id="circle817-6" style="opacity:1;fill:#0046aa;fill-opacity:1;fill-rule:nonzero;stroke:none;stroke-width:3622.58;stroke-linecap:round;stroke-linejoin:round;stroke-miterlimit:4;stroke-dasharray:none;stroke-opacity:1;paint-order:stroke fill markers" r="350"/>
      <path id="rect984" style="font-style: normal; font-variant: normal; font-weight: bold; font-stretch: normal; font-size: 414.864px; line-height: 0; font-family: Giaothong1; letter-spacing: 0px; word-spacing: 0px; opacity: 1; fill: rgb(255, 255, 255); fill-opacity: 1; fill-rule: nonzero; stroke: none; stroke-width: 0.344279; stroke-linecap: round; stroke-linejoin: miter; stroke-miterlimit: 10; stroke-dasharray: none; stroke-opacity: 1; paint-order: stroke; visibility: hidden;" d="m 851.18164,518.03906 c -16.32678,0 -29.4707,13.14393 -29.4707,29.47071 v 80.94921 c 0,16.32678 13.14392,29.47071 29.4707,29.47071 16.32678,0 29.4707,-13.14393 29.4707,-29.47071 v -80.94921 c 0,-16.32678 -13.14392,-29.47071 -29.4707,-29.47071 z m -69.94336,1.23828 -26.10937,69.75391 c -2.72781,7.40406 -3.70118,11.30112 -3.70118,28.44727 0,18.12042 0.7789,22.01697 4.67579,28.25195 5.26075,8.37828 14.22308,13.44336 24.93945,13.44336 10.91123,0 20.0688,-4.87023 25.13476,-13.44336 3.70197,-6.23498 4.48047,-10.13153 4.48047,-28.25195 0,-22.01726 -0.77798,-26.88814 -4.28515,-32.34375 -3.31232,-5.06591 -9.74347,-8.96289 -16.75782,-8.96289 -4.28653,0 -7.01308,0.77773 -8.37695,1.75195 l -0.39062,-0.38867 22.60156,-58.25782 z m 69.94336,18.74024 c 5.25853,0 9.49219,4.23365 9.49219,9.49219 v 80.94921 c 0,5.25853 -4.23366,9.49219 -9.49219,9.49219 -5.25853,0 -9.49219,-4.23366 -9.49219,-9.49219 v -80.94921 c 0,-5.25854 4.23366,-9.49219 9.49219,-9.49219 z m -70.13867,55.68945 c 5.0659,0 9.74219,3.89738 9.74219,9.9375 v 25.71875 c 0,6.04012 -4.67629,9.9375 -9.74219,9.9375 -5.0659,0 -9.74219,-3.89738 -9.74219,-9.9375 v -25.71875 c 0,-6.04012 4.67629,-9.9375 9.74219,-9.9375 z" transform="matrix(3.0349198,0,0,3.0349198,-2125.7104,-1839.7056)"/>
    </g>
    <g aria-label="6" id="text19759" style="font-size:31.1478px;line-height:1.3;font-family:'Singapore Road Signs';-inkscape-font-specification:'Singapore Road Signs';text-align:center;text-anchor:middle;stroke-width:0.159861" transform="matrix(1.6550836,0,0,1.6550836,-321.31659,-238.56049)"/>
    <path d="M 391.012 43.07 Q 391.065 43.07 391.1 43.11 Q 391.135 43.149 391.118 43.202 Q 390.749 44.995 389.483 45.962 Q 388.868 46.428 388.147 46.665 Q 387.426 46.902 386.591 46.902 Q 385.071 46.902 384.034 46.173 Q 383.014 45.452 382.557 44.591 Q 382.399 44.292 382.285 43.989 Q 382.17 43.685 382.109 43.351 Q 381.995 42.701 381.995 40.398 Q 381.995 39.247 382.021 38.517 Q 382.047 37.788 382.109 37.454 Q 382.17 37.12 382.285 36.812 Q 382.399 36.505 382.557 36.206 Q 383.014 35.353 384.034 34.624 Q 385.062 33.886 386.591 33.886 Q 388.419 33.886 389.615 35.011 Q 390.828 36.144 391.118 37.7 Q 391.135 37.753 391.1 37.788 Q 391.065 37.823 391.012 37.823 L 388.999 37.823 Q 388.92 37.823 388.903 37.753 Q 388.789 37.401 388.578 37.098 Q 388.367 36.795 388.059 36.531 Q 387.479 36.013 386.591 36.013 Q 385.932 36.013 385.466 36.276 Q 385 36.54 384.719 36.883 Q 384.552 37.094 384.429 37.362 Q 384.306 37.63 384.236 37.911 Q 384.165 38.21 384.139 38.834 Q 384.113 39.458 384.113 40.398 Q 384.113 41.356 384.139 41.976 Q 384.165 42.596 384.236 42.894 Q 384.306 43.167 384.434 43.435 Q 384.561 43.703 384.719 43.905 Q 385 44.274 385.466 44.534 Q 385.932 44.793 386.591 44.793 Q 388.112 44.793 388.903 43.132 Q 388.92 43.114 388.947 43.092 Q 388.973 43.07 388.999 43.07 Z M 391.124 46.788 Q 391.063 46.788 391.036 46.744 Q 391.01 46.7 391.027 46.647 L 395.633 34.044 Q 395.65 33.974 395.721 33.974 L 397.294 33.974 Q 397.32 33.974 397.351 33.996 Q 397.382 34.017 397.391 34.044 L 401.987 46.647 Q 402.005 46.7 401.979 46.744 Q 401.952 46.788 401.9 46.788 L 399.887 46.788 Q 399.816 46.788 399.799 46.718 L 398.85 43.94 L 394.209 43.94 Q 393.963 44.652 393.721 45.333 Q 393.48 46.015 393.233 46.718 Q 393.225 46.744 393.194 46.766 Q 393.163 46.788 393.137 46.788 Z M 398.217 42.051 Q 398.199 41.989 398.169 41.919 Q 398.138 41.849 398.12 41.796 Q 397.971 41.365 397.848 41 Q 397.725 40.636 397.628 40.363 Q 397.566 40.187 397.509 40.02 Q 397.452 39.853 397.4 39.704 Q 397.356 39.563 397.312 39.436 Q 397.268 39.309 397.224 39.185 Q 397.145 38.931 397.061 38.676 Q 396.978 38.421 396.89 38.148 Q 396.846 38.025 396.797 37.876 Q 396.749 37.726 396.696 37.559 Q 396.67 37.472 396.657 37.423 Q 396.644 37.375 396.626 37.327 Q 396.608 37.278 396.587 37.217 Q 396.565 37.155 396.529 37.041 Q 396.433 37.331 396.349 37.577 Q 396.266 37.823 396.195 38.034 Q 396.178 38.087 396.169 38.131 Q 396.16 38.175 396.143 38.219 Q 396.099 38.368 396.05 38.5 Q 396.002 38.632 395.958 38.764 Q 395.914 38.904 395.87 39.036 Q 395.826 39.168 395.782 39.291 Q 395.694 39.555 395.602 39.845 Q 395.51 40.135 395.396 40.451 Q 395.281 40.767 395.158 41.132 Q 395.035 41.497 394.842 42.051 Z M 402.735 40.398 Q 402.735 39.247 402.766 38.517 Q 402.797 37.788 402.85 37.454 Q 402.911 37.12 403.025 36.812 Q 403.14 36.505 403.307 36.206 L 403.298 36.206 Q 403.755 35.353 404.774 34.624 Q 405.803 33.886 407.332 33.886 Q 408.844 33.886 409.872 34.624 Q 410.909 35.371 411.366 36.206 Q 411.691 36.804 411.806 37.454 Q 411.867 37.788 411.898 38.517 Q 411.929 39.247 411.929 40.398 Q 411.929 42.657 411.806 43.351 Q 411.744 43.694 411.634 44.002 Q 411.524 44.309 411.375 44.591 Q 410.909 45.434 409.872 46.173 Q 408.835 46.902 407.332 46.902 Q 405.811 46.902 404.774 46.173 Q 403.755 45.452 403.298 44.591 L 403.307 44.591 Q 403.14 44.292 403.025 43.989 Q 402.911 43.685 402.85 43.351 Q 402.797 43.017 402.766 42.284 Q 402.735 41.55 402.735 40.398 Z M 404.853 40.398 Q 404.853 41.356 404.88 41.976 Q 404.906 42.596 404.977 42.894 Q 405.047 43.167 405.174 43.435 Q 405.302 43.703 405.46 43.905 Q 405.741 44.274 406.207 44.534 Q 406.673 44.793 407.332 44.793 Q 407.982 44.793 408.448 44.534 Q 408.914 44.274 409.186 43.905 Q 409.556 43.457 409.67 42.894 Q 409.811 42.332 409.811 40.398 Q 409.811 39.44 409.775 38.821 Q 409.74 38.201 409.67 37.911 Q 409.608 37.63 409.485 37.362 Q 409.362 37.094 409.195 36.883 Q 409.063 36.716 408.874 36.558 Q 408.686 36.399 408.448 36.281 Q 408.211 36.162 407.93 36.087 Q 407.648 36.013 407.332 36.013 Q 406.673 36.013 406.207 36.276 Q 405.741 36.54 405.46 36.883 Q 405.293 37.094 405.17 37.362 Q 405.047 37.63 404.977 37.911 Q 404.906 38.21 404.88 38.834 Q 404.853 39.458 404.853 40.398 Z M 418.397 46.797 Q 418.291 46.797 418.291 46.691 L 418.291 34.097 Q 418.291 33.991 418.397 33.991 L 423.283 33.991 Q 425.138 33.991 426.131 34.984 Q 427.115 35.96 427.115 37.48 Q 427.115 38.315 426.729 39.027 Q 426.377 39.695 425.419 40.187 Q 426.307 40.469 426.79 41.268 Q 427.045 41.708 427.181 42.169 Q 427.317 42.631 427.317 43.123 Q 427.317 44.802 426.236 45.804 Q 425.164 46.797 423.714 46.797 Z M 420.409 41.207 L 420.409 44.793 L 423.248 44.793 Q 424.241 44.793 424.725 44.257 Q 425.199 43.721 425.199 43 Q 425.199 42.297 424.725 41.752 Q 424.268 41.207 423.248 41.207 Z M 420.409 35.898 L 420.409 39.3 L 423.072 39.3 Q 424.066 39.3 424.523 38.808 Q 424.997 38.324 424.997 37.603 Q 424.997 36.892 424.523 36.408 Q 424.048 35.898 423.072 35.898 Z M 430.447 32.857 Q 430.368 32.857 430.346 32.791 Q 430.324 32.725 430.385 32.682 L 432.969 30.634 L 434.147 30.634 L 436.766 32.682 Q 436.828 32.725 436.806 32.791 Q 436.784 32.857 436.713 32.857 L 435.228 32.857 L 433.479 31.917 Q 433.092 32.154 432.697 32.392 Q 432.301 32.629 431.915 32.857 Z M 428.891 40.293 Q 428.891 39.142 428.922 38.412 Q 428.953 37.683 429.005 37.349 Q 429.067 37.015 429.181 36.707 Q 429.295 36.399 429.462 36.1 L 429.454 36.1 Q 429.911 35.248 430.93 34.518 Q 431.958 33.78 433.488 33.78 Q 434.999 33.78 436.028 34.518 Q 437.065 35.266 437.522 36.1 Q 437.847 36.698 437.961 37.349 Q 438.023 37.683 438.054 38.412 Q 438.084 39.142 438.084 40.293 Q 438.084 42.552 437.961 43.246 Q 437.9 43.589 437.79 43.896 Q 437.68 44.204 437.531 44.485 Q 437.065 45.329 436.028 46.067 Q 434.991 46.797 433.488 46.797 Q 431.967 46.797 430.93 46.067 Q 429.911 45.347 429.454 44.485 L 429.462 44.485 Q 429.295 44.186 429.181 43.883 Q 429.067 43.58 429.005 43.246 Q 428.953 42.912 428.922 42.178 Q 428.891 41.444 428.891 40.293 Z M 431.009 40.293 Q 431.009 41.251 431.036 41.871 Q 431.062 42.49 431.132 42.789 Q 431.203 43.061 431.33 43.33 Q 431.457 43.598 431.616 43.8 Q 431.897 44.169 432.363 44.428 Q 432.829 44.687 433.488 44.687 Q 434.138 44.687 434.604 44.428 Q 435.07 44.169 435.342 43.8 Q 435.711 43.351 435.826 42.789 Q 435.966 42.226 435.966 40.293 Q 435.966 39.335 435.931 38.715 Q 435.896 38.096 435.826 37.806 Q 435.764 37.524 435.641 37.256 Q 435.518 36.988 435.351 36.777 Q 435.219 36.61 435.03 36.452 Q 434.841 36.294 434.604 36.175 Q 434.367 36.057 434.085 35.982 Q 433.804 35.907 433.488 35.907 Q 432.829 35.907 432.363 36.171 Q 431.897 36.434 431.616 36.777 Q 431.449 36.988 431.326 37.256 Q 431.203 37.524 431.132 37.806 Q 431.062 38.104 431.036 38.728 Q 431.009 39.352 431.009 40.293 Z M 436.379 31.372 Q 436.362 31.372 436.335 31.359 Q 436.309 31.346 436.3 31.337 L 433.874 28.77 Q 433.822 28.718 433.853 28.656 Q 433.883 28.595 433.954 28.595 L 435.887 28.595 Q 435.94 28.595 435.975 28.647 L 437.812 31.214 Q 437.838 31.275 437.816 31.324 Q 437.794 31.372 437.724 31.372 Z" transform="matrix(1.310387, 0, 0, 1.310387, -59.698296, -1.169035)" style="fill: rgb(255, 255, 255);"/>
    <path transform="matrix(1.310387, 0, 0, 1.310387, -59.698296, -1.169035)" style="fill: rgb(255, 255, 255);"/>
    <path d="M 377.737 72.357 Q 377.632 72.357 377.632 72.251 L 377.632 59.657 Q 377.632 59.551 377.737 59.551 L 379.539 59.551 Q 379.6 59.551 379.635 59.613 L 383.16 67.602 Q 384.012 65.589 384.874 63.607 Q 385.735 61.625 386.596 59.613 Q 386.623 59.551 386.693 59.551 L 388.495 59.551 Q 388.6 59.551 388.6 59.657 L 388.6 72.251 Q 388.6 72.357 388.495 72.357 L 386.588 72.357 Q 386.482 72.357 386.482 72.251 L 386.482 64.816 Q 385.867 66.248 385.243 67.663 Q 384.619 69.078 384.012 70.502 Q 383.977 70.555 383.916 70.555 L 382.325 70.555 Q 382.263 70.555 382.228 70.502 L 379.75 64.798 L 379.75 72.251 Q 379.75 72.357 379.644 72.357 Z M 390.127 72.348 Q 390.065 72.348 390.039 72.304 Q 390.012 72.26 390.03 72.207 L 394.635 59.604 Q 394.653 59.534 394.723 59.534 L 396.297 59.534 Q 396.323 59.534 396.354 59.556 Q 396.384 59.577 396.393 59.604 L 400.99 72.207 Q 401.008 72.26 400.981 72.304 Q 400.955 72.348 400.902 72.348 L 398.889 72.348 Q 398.819 72.348 398.801 72.278 L 397.852 69.5 L 393.212 69.5 Q 392.966 70.212 392.724 70.893 Q 392.482 71.575 392.236 72.278 Q 392.227 72.304 392.196 72.326 Q 392.166 72.348 392.139 72.348 Z M 397.219 67.611 Q 397.202 67.549 397.171 67.479 Q 397.14 67.409 397.123 67.356 Q 396.973 66.925 396.85 66.56 Q 396.727 66.196 396.631 65.923 Q 396.569 65.747 396.512 65.58 Q 396.455 65.413 396.402 65.264 Q 396.358 65.123 396.314 64.996 Q 396.27 64.869 396.226 64.745 Q 396.147 64.491 396.064 64.236 Q 395.98 63.981 395.892 63.708 Q 395.848 63.585 395.8 63.436 Q 395.752 63.286 395.699 63.119 Q 395.673 63.032 395.659 62.983 Q 395.646 62.935 395.629 62.887 Q 395.611 62.838 395.589 62.777 Q 395.567 62.715 395.532 62.601 Q 395.435 62.891 395.352 63.137 Q 395.268 63.383 395.198 63.594 Q 395.18 63.647 395.172 63.691 Q 395.163 63.735 395.145 63.779 Q 395.101 63.928 395.053 64.06 Q 395.005 64.192 394.961 64.324 Q 394.917 64.464 394.873 64.596 Q 394.829 64.728 394.785 64.851 Q 394.697 65.115 394.605 65.405 Q 394.512 65.695 394.398 66.011 Q 394.284 66.327 394.161 66.692 Q 394.038 67.057 393.844 67.611 Z M 402.556 72.357 Q 402.451 72.357 402.451 72.251 L 402.451 59.657 Q 402.451 59.551 402.556 59.551 L 404.463 59.551 Q 404.569 59.551 404.569 59.657 L 404.569 72.251 Q 404.569 72.357 404.463 72.357 Z M 411.618 69.122 Q 411.644 69.087 411.688 69.087 Q 411.732 69.087 411.767 69.114 Q 412.461 69.676 413.362 70.015 Q 414.263 70.353 415.265 70.353 Q 416.39 70.353 417.04 69.887 Q 417.656 69.439 417.656 68.701 Q 417.656 67.312 416.1 67.101 L 416.109 67.101 Q 415.889 67.075 415.691 67.048 Q 415.493 67.022 415.296 66.995 Q 415.098 66.969 414.891 66.938 Q 414.685 66.908 414.439 66.872 Q 413.613 66.758 412.967 66.455 Q 412.321 66.152 411.881 65.651 Q 411.442 65.141 411.222 64.539 Q 411.002 63.937 411.002 63.225 Q 411.002 61.555 412.11 60.509 Q 413.226 59.446 415.212 59.446 Q 415.801 59.446 416.359 59.547 Q 416.917 59.648 417.44 59.824 Q 417.963 59.999 418.442 60.241 Q 418.921 60.483 419.361 60.773 Q 419.449 60.834 419.387 60.922 L 418.324 62.495 Q 418.262 62.575 418.183 62.522 Q 417.497 62.091 416.724 61.832 Q 415.951 61.573 415.124 61.573 Q 414.702 61.573 414.342 61.674 Q 413.982 61.775 413.692 62.003 Q 413.12 62.416 413.12 63.26 Q 413.12 63.744 413.507 64.201 Q 413.701 64.411 414.026 64.556 Q 414.351 64.702 414.826 64.772 Q 415.08 64.816 415.423 64.864 Q 415.766 64.912 416.232 64.965 Q 418.034 65.185 418.904 66.292 Q 419.774 67.373 419.774 68.701 Q 419.774 70.476 418.535 71.478 Q 417.286 72.462 415.247 72.462 Q 412.373 72.462 410.361 70.704 Q 410.326 70.678 410.326 70.634 Q 410.326 70.59 410.352 70.555 Z M 423.457 65.958 Q 423.457 66.916 423.484 67.536 Q 423.51 68.156 423.58 68.454 Q 423.651 68.727 423.778 68.995 Q 423.906 69.263 424.064 69.465 Q 424.345 69.834 424.811 70.094 Q 425.277 70.353 425.936 70.353 Q 426.586 70.353 427.052 70.094 Q 427.518 69.834 427.79 69.465 Q 428.159 69.017 428.274 68.454 Q 428.414 67.892 428.414 65.958 Q 428.414 65 428.379 64.381 Q 428.344 63.761 428.274 63.471 Q 428.212 63.19 428.089 62.922 Q 427.966 62.654 427.799 62.443 Q 427.667 62.276 427.478 62.118 Q 427.289 61.959 427.052 61.841 Q 426.815 61.722 426.533 61.647 Q 426.252 61.573 425.936 61.573 Q 425.277 61.573 424.811 61.836 Q 424.345 62.1 424.064 62.443 Q 423.897 62.654 423.774 62.922 Q 423.651 63.19 423.58 63.471 Q 423.51 63.77 423.484 64.394 Q 423.457 65.018 423.457 65.958 Z M 430.62 57.899 Q 430.691 57.96 430.752 58.022 Q 431.332 58.628 431.35 59.604 Q 431.385 60.79 430.286 61.537 Q 430.111 61.617 429.926 61.687 Q 429.944 61.722 429.97 61.766 Q 430.295 62.364 430.409 63.014 Q 430.471 63.348 430.502 64.077 Q 430.532 64.807 430.532 65.958 Q 430.532 68.217 430.409 68.911 Q 430.348 69.254 430.238 69.562 Q 430.128 69.869 429.979 70.151 Q 429.513 70.994 428.476 71.733 Q 427.439 72.462 425.936 72.462 Q 424.415 72.462 423.378 71.733 Q 422.359 71.012 421.902 70.151 L 421.91 70.151 Q 421.743 69.852 421.629 69.549 Q 421.515 69.245 421.453 68.911 Q 421.401 68.577 421.37 67.844 Q 421.339 67.11 421.339 65.958 Q 421.339 64.807 421.37 64.077 Q 421.401 63.348 421.453 63.014 Q 421.515 62.68 421.629 62.372 Q 421.743 62.065 421.91 61.766 L 421.902 61.766 Q 422.359 60.913 423.378 60.184 Q 424.406 59.446 425.936 59.446 Q 427.448 59.446 428.476 60.184 Q 428.863 60.465 429.17 60.755 Q 430.084 60.421 430.111 59.639 Q 430.102 59.041 429.733 58.786 Z M 432.841 72.357 Q 432.736 72.357 432.736 72.251 L 432.736 59.657 Q 432.736 59.551 432.841 59.551 L 434.652 59.551 Q 434.705 59.551 434.74 59.604 L 440.277 68.323 L 440.277 59.657 Q 440.277 59.551 440.382 59.551 L 442.298 59.551 Q 442.404 59.551 442.404 59.657 L 442.404 72.251 Q 442.404 72.357 442.298 72.357 L 440.497 72.357 Q 440.444 72.357 440.409 72.304 L 434.854 63.585 L 434.854 72.251 Q 434.854 72.357 434.757 72.357 Z" transform="matrix(1.310387, 0, 0, 1.310387, -59.698296, -1.169035)" style="fill: rgb(255, 255, 255);"/>
    <path d="M 426.152 119.118 Q 426.045 119.118 426.045 119.011 L 426.045 106.277 Q 426.045 106.17 426.152 106.17 L 434.292 106.17 Q 434.399 106.17 434.399 106.277 L 434.399 108.107 Q 434.399 108.214 434.292 108.214 L 428.187 108.214 L 428.187 111.626 L 433.377 111.626 Q 433.484 111.626 433.484 111.733 L 433.484 113.457 Q 433.484 113.555 433.377 113.555 L 428.187 113.555 L 428.187 117.092 L 434.292 117.092 Q 434.399 117.092 434.399 117.198 L 434.399 119.011 Q 434.399 119.118 434.292 119.118 Z M 442.572 119.118 Q 442.519 119.118 442.483 119.065 L 439.781 114.479 Q 439.106 115.634 438.431 116.772 Q 437.755 117.909 437.08 119.065 Q 437.044 119.118 436.991 119.118 L 434.814 119.118 Q 434.743 119.118 434.716 119.069 Q 434.689 119.02 434.725 118.958 L 438.591 112.48 Q 437.675 110.933 436.778 109.405 Q 435.88 107.876 434.974 106.33 Q 434.938 106.268 434.965 106.219 Q 434.992 106.17 435.054 106.17 L 437.24 106.17 Q 437.293 106.17 437.329 106.223 L 439.781 110.489 Q 440.395 109.422 441.008 108.361 Q 441.621 107.299 442.234 106.223 Q 442.27 106.17 442.323 106.17 L 444.509 106.17 Q 444.571 106.17 444.598 106.219 Q 444.625 106.268 444.589 106.33 L 440.972 112.48 Q 441.95 114.106 442.91 115.719 Q 443.869 117.332 444.847 118.958 Q 444.882 119.02 444.856 119.069 Q 444.829 119.118 444.758 119.118 Z M 448.149 108.214 L 448.149 112.106 L 450.913 112.106 Q 451.935 112.106 452.433 111.493 Q 452.939 110.898 452.939 110.16 Q 452.939 109.058 452.157 108.552 Q 451.65 108.214 450.842 108.214 Z M 446.114 119.118 Q 446.007 119.118 446.007 119.011 L 446.007 106.277 Q 446.007 106.17 446.114 106.17 L 450.735 106.17 Q 451.499 106.17 452.184 106.33 Q 452.877 106.49 453.659 107.094 Q 453.961 107.334 454.214 107.65 Q 454.468 107.965 454.672 108.347 Q 454.867 108.738 454.974 109.209 Q 455.081 109.68 455.081 110.213 Q 455.081 111.609 454.032 112.879 Q 452.983 114.141 450.984 114.141 L 448.149 114.141 L 448.149 119.011 Q 448.149 119.118 448.042 119.118 Z M 458.768 108.098 L 458.768 111.751 L 461.585 111.751 Q 462.616 111.751 463.131 111.182 Q 463.647 110.613 463.647 109.831 Q 463.647 109.387 463.491 109.04 Q 463.336 108.694 463.042 108.472 Q 462.785 108.294 462.442 108.196 Q 462.1 108.098 461.7 108.098 Z M 456.733 119.118 Q 456.626 119.118 456.626 119.011 L 456.626 106.277 Q 456.626 106.17 456.733 106.17 L 461.718 106.17 Q 462.545 106.17 463.211 106.397 Q 463.878 106.623 464.375 107.041 Q 464.633 107.281 464.869 107.587 Q 465.104 107.894 465.286 108.249 Q 465.468 108.605 465.575 109.005 Q 465.682 109.405 465.682 109.831 Q 465.682 110.462 465.504 111.027 Q 465.326 111.591 465.006 112.08 Q 464.677 112.533 464.242 112.875 Q 463.807 113.217 463.256 113.422 Q 463.975 114.799 464.704 116.19 Q 465.433 117.58 466.153 118.958 Q 466.179 119.02 466.153 119.069 Q 466.126 119.118 466.064 119.118 L 463.771 119.118 Q 463.744 119.118 463.718 119.096 Q 463.691 119.073 463.673 119.056 L 461.069 113.679 L 458.768 113.679 L 458.768 119.011 Q 458.768 119.118 458.661 119.118 Z M 467.66 119.118 Q 467.554 119.118 467.554 119.011 L 467.554 106.277 Q 467.554 106.17 467.66 106.17 L 475.801 106.17 Q 475.907 106.17 475.907 106.277 L 475.907 108.107 Q 475.907 108.214 475.801 108.214 L 469.695 108.214 L 469.695 111.626 L 474.885 111.626 Q 474.992 111.626 474.992 111.733 L 474.992 113.457 Q 474.992 113.555 474.885 113.555 L 469.695 113.555 L 469.695 117.092 L 475.801 117.092 Q 475.907 117.092 475.907 117.198 L 475.907 119.011 Q 475.907 119.118 475.801 119.118 Z M 477.682 115.848 Q 477.708 115.812 477.753 115.812 Q 477.797 115.812 477.833 115.839 Q 478.535 116.407 479.446 116.75 Q 480.357 117.092 481.37 117.092 Q 482.507 117.092 483.165 116.621 Q 483.787 116.168 483.787 115.421 Q 483.787 114.017 482.214 113.804 L 482.223 113.804 Q 482.001 113.777 481.801 113.75 Q 481.601 113.724 481.401 113.697 Q 481.201 113.67 480.992 113.639 Q 480.783 113.608 480.534 113.573 Q 479.699 113.457 479.046 113.15 Q 478.393 112.844 477.948 112.337 Q 477.504 111.822 477.282 111.213 Q 477.06 110.604 477.06 109.885 Q 477.06 108.196 478.179 107.139 Q 479.308 106.063 481.316 106.063 Q 481.912 106.063 482.476 106.166 Q 483.04 106.268 483.569 106.445 Q 484.098 106.623 484.582 106.868 Q 485.067 107.112 485.511 107.405 Q 485.6 107.467 485.538 107.556 L 484.462 109.147 Q 484.4 109.227 484.32 109.174 Q 483.627 108.738 482.845 108.476 Q 482.063 108.214 481.228 108.214 Q 480.801 108.214 480.437 108.316 Q 480.072 108.418 479.779 108.649 Q 479.201 109.067 479.201 109.92 Q 479.201 110.409 479.592 110.871 Q 479.788 111.084 480.117 111.231 Q 480.445 111.378 480.925 111.449 Q 481.183 111.493 481.53 111.542 Q 481.876 111.591 482.347 111.644 Q 484.169 111.866 485.049 112.986 Q 485.929 114.079 485.929 115.421 Q 485.929 117.216 484.676 118.229 Q 483.414 119.225 481.352 119.225 Q 478.446 119.225 476.411 117.447 Q 476.375 117.421 476.375 117.376 Q 476.375 117.332 476.402 117.296 Z M 487.952 115.848 Q 487.978 115.812 488.023 115.812 Q 488.067 115.812 488.103 115.839 Q 488.805 116.407 489.716 116.75 Q 490.627 117.092 491.64 117.092 Q 492.777 117.092 493.435 116.621 Q 494.057 116.168 494.057 115.421 Q 494.057 114.017 492.484 113.804 L 492.493 113.804 Q 492.271 113.777 492.071 113.75 Q 491.871 113.724 491.671 113.697 Q 491.471 113.67 491.262 113.639 Q 491.053 113.608 490.804 113.573 Q 489.969 113.457 489.316 113.15 Q 488.663 112.844 488.218 112.337 Q 487.774 111.822 487.552 111.213 Q 487.33 110.604 487.33 109.885 Q 487.33 108.196 488.449 107.139 Q 489.578 106.063 491.586 106.063 Q 492.182 106.063 492.746 106.166 Q 493.311 106.268 493.839 106.445 Q 494.368 106.623 494.852 106.868 Q 495.337 107.112 495.781 107.405 Q 495.87 107.467 495.808 107.556 L 494.732 109.147 Q 494.67 109.227 494.59 109.174 Q 493.897 108.738 493.115 108.476 Q 492.333 108.214 491.498 108.214 Q 491.071 108.214 490.707 108.316 Q 490.342 108.418 490.049 108.649 Q 489.471 109.067 489.471 109.92 Q 489.471 110.409 489.862 110.871 Q 490.058 111.084 490.387 111.231 Q 490.716 111.378 491.195 111.449 Q 491.453 111.493 491.8 111.542 Q 492.146 111.591 492.617 111.644 Q 494.439 111.866 495.319 112.986 Q 496.199 114.079 496.199 115.421 Q 496.199 117.216 494.946 118.229 Q 493.684 119.225 491.622 119.225 Q 488.716 119.225 486.681 117.447 Q 486.645 117.421 486.645 117.376 Q 486.645 117.332 486.672 117.296 Z M 500.204 119.118 Q 500.115 119.118 500.097 119.038 L 496.907 106.303 Q 496.889 106.25 496.924 106.21 Q 496.96 106.17 497.013 106.17 L 499.057 106.17 Q 499.146 106.17 499.164 106.25 L 501.083 114.95 Q 501.67 112.764 502.265 110.604 Q 502.861 108.445 503.456 106.25 Q 503.474 106.17 503.563 106.17 L 504.958 106.17 Q 505.038 106.17 505.056 106.25 L 507.437 114.95 Q 507.917 112.764 508.397 110.604 Q 508.877 108.445 509.357 106.25 Q 509.375 106.17 509.464 106.17 L 511.508 106.17 Q 511.561 106.17 511.596 106.21 Q 511.632 106.25 511.614 106.303 L 508.424 119.038 Q 508.406 119.118 508.317 119.118 L 506.709 119.118 Q 506.629 119.118 506.611 119.038 L 504.256 110.196 Q 503.669 112.426 503.083 114.621 Q 502.496 116.816 501.91 119.038 Q 501.892 119.118 501.812 119.118 Z M 511.528 119.109 Q 511.466 119.109 511.439 119.065 Q 511.412 119.02 511.43 118.967 L 516.087 106.223 Q 516.104 106.152 516.175 106.152 L 517.766 106.152 Q 517.793 106.152 517.824 106.174 Q 517.855 106.197 517.864 106.223 L 522.512 118.967 Q 522.529 119.02 522.503 119.065 Q 522.476 119.109 522.423 119.109 L 520.388 119.109 Q 520.317 119.109 520.299 119.038 L 519.339 116.23 L 514.647 116.23 Q 514.398 116.95 514.154 117.638 Q 513.909 118.327 513.661 119.038 Q 513.652 119.065 513.621 119.087 Q 513.589 119.109 513.563 119.109 Z M 518.699 114.319 Q 518.682 114.257 518.65 114.186 Q 518.619 114.115 518.602 114.061 Q 518.45 113.626 518.326 113.257 Q 518.202 112.888 518.104 112.613 Q 518.042 112.435 517.984 112.266 Q 517.926 112.097 517.873 111.946 Q 517.828 111.804 517.784 111.675 Q 517.74 111.546 517.695 111.422 Q 517.615 111.164 517.531 110.907 Q 517.446 110.649 517.357 110.373 Q 517.313 110.249 517.264 110.098 Q 517.215 109.947 517.162 109.778 Q 517.135 109.689 517.122 109.64 Q 517.109 109.591 517.091 109.542 Q 517.073 109.494 517.051 109.431 Q 517.029 109.369 516.993 109.254 Q 516.895 109.547 516.811 109.796 Q 516.726 110.045 516.655 110.258 Q 516.638 110.311 516.629 110.356 Q 516.62 110.4 516.602 110.444 Q 516.558 110.596 516.509 110.729 Q 516.46 110.862 516.415 110.995 Q 516.371 111.138 516.327 111.271 Q 516.282 111.404 516.238 111.529 Q 516.149 111.795 516.056 112.089 Q 515.962 112.382 515.847 112.702 Q 515.731 113.022 515.607 113.39 Q 515.482 113.759 515.287 114.319 Z M 525.493 119.118 Q 525.395 119.118 525.395 119.011 L 525.395 113.804 Q 524.435 111.929 523.484 110.062 Q 522.533 108.196 521.582 106.321 Q 521.556 106.259 521.582 106.214 Q 521.609 106.17 521.68 106.17 L 523.706 106.17 Q 523.733 106.17 523.76 106.192 Q 523.786 106.214 523.804 106.232 L 526.417 111.689 Q 527.074 110.311 527.719 108.96 Q 528.363 107.61 529.021 106.232 Q 529.038 106.214 529.065 106.192 Q 529.092 106.17 529.118 106.17 L 531.153 106.17 Q 531.224 106.17 531.251 106.214 Q 531.278 106.259 531.251 106.321 L 527.43 113.804 L 527.43 119.011 Q 527.43 119.118 527.323 119.118 Z" style="fill: rgb(255, 255, 255);"/>
    <path d="M 343.122 84.558 Q 343.194 84.558 343.242 84.612 Q 343.29 84.666 343.266 84.738 Q 342.761 87.189 341.032 88.51 Q 340.191 89.147 339.206 89.471 Q 338.221 89.795 337.08 89.795 Q 335.002 89.795 333.584 88.798 Q 332.191 87.813 331.566 86.636 Q 331.35 86.228 331.194 85.813 Q 331.038 85.399 330.954 84.942 Q 330.798 84.054 330.798 80.906 Q 330.798 79.333 330.834 78.336 Q 330.87 77.339 330.954 76.883 Q 331.038 76.426 331.194 76.006 Q 331.35 75.585 331.566 75.177 Q 332.191 74.012 333.584 73.015 Q 334.99 72.006 337.08 72.006 Q 339.578 72.006 341.212 73.543 Q 342.869 75.093 343.266 77.219 Q 343.29 77.291 343.242 77.339 Q 343.194 77.387 343.122 77.387 L 340.371 77.387 Q 340.263 77.387 340.239 77.291 Q 340.083 76.81 339.794 76.396 Q 339.506 75.982 339.086 75.621 Q 338.293 74.913 337.08 74.913 Q 336.179 74.913 335.542 75.273 Q 334.906 75.633 334.521 76.102 Q 334.293 76.39 334.125 76.756 Q 333.957 77.123 333.861 77.507 Q 333.765 77.916 333.729 78.768 Q 333.693 79.621 333.693 80.906 Q 333.693 82.216 333.729 83.063 Q 333.765 83.909 333.861 84.318 Q 333.957 84.69 334.131 85.057 Q 334.305 85.423 334.521 85.699 Q 334.906 86.204 335.542 86.558 Q 336.179 86.912 337.08 86.912 Q 339.158 86.912 340.239 84.642 Q 340.263 84.618 340.299 84.588 Q 340.335 84.558 340.371 84.558 Z M 348.15 89.651 Q 348.006 89.651 348.006 89.507 L 348.006 74.756 L 343.429 74.756 Q 343.285 74.756 343.285 74.612 L 343.285 72.294 Q 343.285 72.15 343.429 72.15 L 355.465 72.15 Q 355.609 72.15 355.609 72.294 L 355.609 74.612 Q 355.609 74.756 355.465 74.756 L 350.9 74.756 L 350.9 89.507 Q 350.9 89.651 350.756 89.651 Z M 355.978 89.651 Q 355.834 89.651 355.834 89.507 L 355.834 87.068 Q 355.834 86.924 355.978 86.924 L 358.428 86.924 Q 358.56 86.924 358.56 87.068 L 358.56 89.507 Q 358.56 89.651 358.428 89.651 Z M 366.923 77.327 Q 366.923 76.162 366.304 75.507 Q 365.686 74.853 364.653 74.853 Q 363.62 74.853 363.007 75.507 Q 362.395 76.162 362.395 77.327 L 362.395 84.594 Q 362.395 85.771 363.007 86.42 Q 363.62 87.068 364.653 87.068 Q 365.686 87.068 366.304 86.42 Q 366.923 85.771 366.923 84.594 Z M 359.656 77.183 Q 359.656 74.756 361.181 73.447 Q 362.695 72.114 364.653 72.114 Q 365.626 72.114 366.497 72.456 Q 367.367 72.799 368.124 73.447 Q 368.881 74.12 369.271 75.051 Q 369.662 75.982 369.662 77.183 L 369.662 84.738 Q 369.662 87.153 368.124 88.474 Q 366.611 89.795 364.653 89.795 Q 362.695 89.795 361.181 88.474 Q 359.656 87.165 359.656 84.738 Z M 374.694 89.687 Q 374.55 89.687 374.55 89.543 L 374.55 75.273 Q 373.997 75.681 373.445 76.096 Q 372.892 76.51 372.34 76.907 Q 372.256 76.967 372.183 76.925 Q 372.111 76.883 372.111 76.786 L 372.111 74.18 Q 372.111 74.156 372.129 74.12 Q 372.147 74.084 372.171 74.06 L 374.646 72.27 L 377.156 72.27 Q 377.3 72.27 377.3 72.414 L 377.3 89.543 Q 377.3 89.687 377.156 89.687 Z"/>
    <path d="M 399.292 174.341 Q 399.292 175.935 400.255 176.732 Q 401.268 177.545 402.48 177.545 Q 403.692 177.545 404.688 176.732 Q 405.684 175.918 405.684 174.341 Q 405.684 172.797 404.688 171.984 Q 403.742 171.153 402.48 171.153 Q 401.251 171.153 400.255 171.984 Q 399.292 172.78 399.292 174.341 Z M 395.092 184.518 Q 395.092 182.808 395.765 181.48 Q 396.437 180.152 397.748 179.189 Q 396.736 178.242 396.121 177.097 Q 395.507 175.951 395.507 174.407 Q 395.507 171.469 397.499 169.427 Q 399.541 167.368 402.48 167.368 Q 405.435 167.368 407.444 169.427 Q 409.469 171.502 409.469 174.407 Q 409.469 175.171 409.303 175.835 Q 409.137 176.499 408.838 177.089 Q 408.539 177.678 408.124 178.201 Q 407.709 178.724 407.228 179.189 Q 409.884 181.098 409.884 184.518 Q 409.884 186.111 409.328 187.44 Q 408.772 188.768 407.676 189.797 Q 406.597 190.76 405.286 191.283 Q 403.974 191.806 402.48 191.806 Q 399.442 191.806 397.284 189.797 Q 395.092 187.738 395.092 184.518 Z M 398.861 184.485 Q 398.861 185.248 399.151 185.896 Q 399.442 186.543 399.94 187.025 Q 401.052 188.037 402.48 188.037 Q 403.908 188.037 405.02 187.025 Q 405.551 186.527 405.833 185.887 Q 406.116 185.248 406.116 184.485 Q 406.116 182.941 405.02 181.944 Q 403.941 180.915 402.48 180.915 Q 401.052 180.915 399.94 181.944 Q 398.861 182.941 398.861 184.485 Z M 421.936 174.573 Q 421.936 172.963 421.081 172.058 Q 420.226 171.153 418.798 171.153 Q 417.37 171.153 416.524 172.058 Q 415.677 172.963 415.677 174.573 L 415.677 184.617 Q 415.677 186.244 416.524 187.141 Q 417.37 188.037 418.798 188.037 Q 420.226 188.037 421.081 187.141 Q 421.936 186.244 421.936 184.617 Z M 411.892 174.374 Q 411.892 171.021 414 169.211 Q 416.092 167.368 418.798 167.368 Q 420.143 167.368 421.346 167.841 Q 422.55 168.315 423.596 169.211 Q 424.642 170.141 425.181 171.427 Q 425.721 172.714 425.721 174.374 L 425.721 184.817 Q 425.721 188.153 423.596 189.98 Q 421.504 191.806 418.798 191.806 Q 416.092 191.806 414 189.98 Q 411.892 188.17 411.892 184.817 Z"/>
    <path d="M 505.004 174.391 Q 505.02 172.731 505.568 171.427 Q 506.116 170.124 507.112 169.194 Q 508.058 168.331 509.237 167.858 Q 510.416 167.385 511.711 167.385 Q 514.068 167.385 515.977 168.796 Q 517.77 170.224 518.318 172.913 Q 518.351 173.013 518.285 173.079 Q 518.218 173.146 518.119 173.146 L 514.715 173.146 Q 514.583 173.146 514.533 173.029 Q 513.786 171.203 511.694 171.153 Q 508.689 171.236 508.689 174.607 L 508.689 176.566 Q 509.768 176.25 510.839 176.068 Q 511.91 175.885 512.873 175.902 Q 515.197 175.902 516.857 177.528 Q 518.451 179.205 518.434 182.692 L 518.434 184.85 Q 518.384 188.253 516.409 190.029 Q 514.549 191.789 511.711 191.872 Q 508.955 191.789 507.112 190.046 Q 505.02 188.22 505.004 184.866 Z M 508.689 184.667 Q 508.706 188.07 511.711 188.104 Q 514.649 188.087 514.765 184.667 L 514.765 182.725 Q 514.632 179.355 511.711 179.288 Q 508.706 179.371 508.689 182.725 Z M 531.131 174.573 Q 531.131 172.963 530.276 172.058 Q 529.421 171.153 527.993 171.153 Q 526.566 171.153 525.719 172.058 Q 524.872 172.963 524.872 174.573 L 524.872 184.617 Q 524.872 186.244 525.719 187.141 Q 526.566 188.037 527.993 188.037 Q 529.421 188.037 530.276 187.141 Q 531.131 186.244 531.131 184.617 Z M 521.087 174.374 Q 521.087 171.021 523.196 169.211 Q 525.287 167.368 527.993 167.368 Q 529.338 167.368 530.542 167.841 Q 531.745 168.315 532.791 169.211 Q 533.837 170.141 534.377 171.427 Q 534.916 172.714 534.916 174.374 L 534.916 184.817 Q 534.916 188.153 532.791 189.98 Q 530.699 191.806 527.993 191.806 Q 525.287 191.806 523.196 189.98 Q 521.087 188.17 521.087 184.817 Z" style="fill: rgb(255, 255, 255);"/>
  </g>
</svg>