<?xml version="1.0" encoding="UTF-8" standalone="no"?>
<svg
   xmlns:dc="http://purl.org/dc/elements/1.1/"
   xmlns:cc="http://creativecommons.org/ns#"
   xmlns:rdf="http://www.w3.org/1999/02/22-rdf-syntax-ns#"
   xmlns:svg="http://www.w3.org/2000/svg"
   xmlns="http://www.w3.org/2000/svg"
   xmlns:sodipodi="http://sodipodi.sourceforge.net/DTD/sodipodi-0.dtd"
   xmlns:inkscape="http://www.inkscape.org/namespaces/inkscape"
   sodipodi:docname="Vietnam_road_sign_IE472e.svg"
   inkscape:version="1.0 (4035a4fb49, 2020-05-01)"
   id="svg8"
   version="1.1"
   viewBox="0 0 80.008112 50"
   height="50mm"
   width="80.008118mm">
  <defs
     id="defs2" />
  <sodipodi:namedview
     inkscape:window-maximized="1"
     inkscape:window-y="-9"
     inkscape:window-x="-9"
     inkscape:window-height="1001"
     inkscape:window-width="1920"
     showgrid="false"
     inkscape:document-rotation="0"
     inkscape:current-layer="g3217"
     inkscape:document-units="mm"
     inkscape:cy="83.555579"
     inkscape:cx="166.97517"
     inkscape:zoom="3.6580218"
     inkscape:pageshadow="2"
     inkscape:pageopacity="0.0"
     borderopacity="1.0"
     bordercolor="#666666"
     pagecolor="#ffffff"
     id="base" />
  <metadata
     id="metadata5">
    <rdf:RDF>
      <cc:Work
         rdf:about="">
        <dc:format>image/svg+xml</dc:format>
        <dc:type
           rdf:resource="http://purl.org/dc/dcmitype/StillImage" />
        <dc:title></dc:title>
      </cc:Work>
    </rdf:RDF>
  </metadata>
  <g
     transform="translate(-701.573,-353.08232)"
     id="layer1"
     inkscape:groupmode="layer"
     inkscape:label="Layer 1">
    <g
       transform="matrix(0.75587277,0,0,0.75587572,423.66484,270.6712)"
       id="g3217"
       style="opacity:1;stroke-width:0.466715">
      <path
         style="color:#000000;font-style:normal;font-variant:normal;font-weight:normal;font-stretch:normal;font-size:medium;line-height:normal;font-family:sans-serif;font-variant-ligatures:normal;font-variant-position:normal;font-variant-caps:normal;font-variant-numeric:normal;font-variant-alternates:normal;font-variant-east-asian:normal;font-feature-settings:normal;font-variation-settings:normal;text-indent:0;text-align:start;text-decoration:none;text-decoration-line:none;text-decoration-style:solid;text-decoration-color:#000000;letter-spacing:normal;word-spacing:normal;text-transform:none;writing-mode:lr-tb;direction:ltr;text-orientation:mixed;dominant-baseline:auto;baseline-shift:baseline;text-anchor:start;white-space:normal;shape-padding:0;shape-margin:0;inline-size:0;clip-rule:nonzero;display:inline;overflow:visible;visibility:visible;opacity:1;isolation:auto;mix-blend-mode:normal;color-interpolation:sRGB;color-interpolation-filters:linearRGB;solid-color:#000000;solid-opacity:1;vector-effect:none;fill:#000000;fill-opacity:1;fill-rule:nonzero;stroke:none;stroke-width:2.84054;stroke-linecap:butt;stroke-linejoin:miter;stroke-miterlimit:4;stroke-dasharray:none;stroke-dashoffset:0;stroke-opacity:1;paint-order:stroke fill markers;color-rendering:auto;image-rendering:auto;shape-rendering:auto;text-rendering:auto;enable-background:accumulate;stop-color:#000000;stop-opacity:1"
         d="m 374.66512,109.02734 c -3.90735,0 -6.99986,3.11947 -6.99986,7.03108 v 52.10583 c 0,3.96426 3.33245,7.01153 6.99986,7.01153 h 91.86848 c 3.66648,0 6.98032,-3.0608 6.98032,-7.01153 v -52.10583 c 0,-3.8966 -3.07347,-7.03108 -6.98032,-7.03108 z"
         id="path4617"
         sodipodi:nodetypes="sssssssss" />
      <path
         sodipodi:nodetypes="sssssssss"
         style="color:#000000;font-style:normal;font-variant:normal;font-weight:normal;font-stretch:normal;font-size:medium;line-height:normal;font-family:sans-serif;font-variant-ligatures:normal;font-variant-position:normal;font-variant-caps:normal;font-variant-numeric:normal;font-variant-alternates:normal;font-variant-east-asian:normal;font-feature-settings:normal;font-variation-settings:normal;text-indent:0;text-align:start;text-decoration:none;text-decoration-line:none;text-decoration-style:solid;text-decoration-color:#000000;letter-spacing:normal;word-spacing:normal;text-transform:none;writing-mode:lr-tb;direction:ltr;text-orientation:mixed;dominant-baseline:auto;baseline-shift:baseline;text-anchor:start;white-space:normal;shape-padding:0;shape-margin:0;inline-size:0;clip-rule:nonzero;display:inline;overflow:visible;visibility:visible;opacity:1;isolation:auto;mix-blend-mode:normal;color-interpolation:sRGB;color-interpolation-filters:linearRGB;solid-color:#000000;solid-opacity:1;vector-effect:none;fill:#ffd70f;fill-opacity:1;fill-rule:nonzero;stroke:none;stroke-width:2.84054;stroke-linecap:butt;stroke-linejoin:miter;stroke-miterlimit:4;stroke-dasharray:none;stroke-dashoffset:0;stroke-opacity:1;paint-order:stroke fill markers;color-rendering:auto;image-rendering:auto;shape-rendering:auto;text-rendering:auto;enable-background:accumulate;stop-color:#000000;stop-opacity:1"
         d="m 370.70987,168.16425 c 0,2.34109 1.87209,3.96696 3.95525,3.96696 h 91.86849 c 2.07923,0 3.9357,-1.62587 3.9357,-3.96696 v -52.10583 c 0,-2.11441 -1.85647,-3.98649 -3.9357,-3.98649 h -91.86849 c -2.08316,0 -3.95526,1.87208 -3.95526,3.98649 z"
         id="path4619" />
      <path
         id="path6548"
         style="font-style:normal;font-variant:normal;font-weight:normal;font-stretch:normal;font-size:31.1783px;line-height:1.3;font-family:DINSchrift;-inkscape-font-specification:DINSchrift;text-align:center;text-anchor:middle;opacity:1;fill:#000000;stroke-width:0.350035"
         d="m 455.37024,113.77446 -2.78943,4.36905 h 2.04549 l 4.091,-4.36905 z m -73.8767,5.3605 v 2.97578 h 3.65569 v 19.08786 h 3.1607 v -19.08786 h 3.65715 v -2.97578 z m 12.83787,0 v 22.06364 h 3.16069 v -9.82271 h 3.90466 v 9.82271 h 3.16068 v -22.06364 h -3.16068 v 9.45148 h -3.90466 v -9.45148 z m 13.49156,0 v 17.10498 c 0,2.88179 2.29316,5.14501 5.11302,5.14501 2.81985,0 5.11301,-2.26322 5.11301,-5.14501 v -17.10498 h -3.16067 v 16.79632 c 0,1.54937 -0.83679,2.29298 -1.95234,2.29298 -1.11554,0 -1.95233,-0.74361 -1.95231,-2.29298 v -16.79632 z m 19.31648,0 v 22.06364 h 3.16071 v -8.61435 h 1.61165 c 2.32404,0 3.71834,-0.86758 4.586,-2.29299 0.74368,-1.20849 0.89827,-2.51045 0.89827,-4.43165 0,-2.6339 -0.34074,-4.02764 -1.42531,-5.17414 -1.08455,-1.14651 -2.35424,-1.55051 -4.08954,-1.55051 z m 12.36472,0 v 22.06364 h 3.16069 v -9.82271 h 3.90466 v 9.82271 h 3.16068 v -22.06364 h -3.16068 v 9.45148 h -3.90466 v -9.45148 z m 13.51048,0 v 22.06364 h 3.16069 v -22.06364 z m -22.71449,2.97578 h 1.6422 c 2.47901,0 2.47937,1.70329 2.47937,3.77945 0,2.20008 -0.031,3.71972 -2.60309,3.71972 h -1.51848 z m -1.26806,26.6045 c -1.80608,0 -3.7212,1.26256 -3.7212,3.78669 v 8.18198 c 0,2.52411 1.91512,3.78524 3.7212,3.78524 1.80606,0 3.72121,-1.26113 3.72121,-3.78524 v -8.18198 c 0,-2.52413 -1.91515,-3.78669 -3.72121,-3.78669 z m -39.11051,0.13096 v 15.49334 h 2.22019 v -6.04912 h 1.13122 c 1.63199,0 2.61111,-0.60924 3.22038,-1.61018 0.52225,-0.84863 0.63041,-1.76356 0.63038,-3.11264 0,-1.84959 -0.23857,-2.82873 -1.00017,-3.63386 -0.76159,-0.8051 -1.65387,-1.08754 -2.87244,-1.08754 z m 9.81985,0 -3.45915,15.49334 h 2.21873 l 0.6537,-3.32957 h 3.02383 l 0.6537,3.32957 h 2.21875 l -3.45915,-15.49334 z m 3.76486,0 3.04716,8.9434 v 6.54994 h 2.21874 v -6.54994 l 3.04713,-8.9434 h -2.35122 l -1.78344,6.15833 h -0.0437 l -1.7849,-6.15833 z m 12.81166,0 v 2.08918 h 2.56818 v 13.40416 h 2.22019 v -13.40416 h 2.5667 v -2.08918 z m 18.76037,0 v 15.49334 h 6.61548 v -2.22021 h -4.39528 V 148.8462 Z m 8.25624,0 v 15.49334 h 6.61548 v -2.22021 h -4.39528 V 148.8462 Z m -51.19279,2.08918 h 1.15307 c 1.74078,0 1.73976,1.19615 1.73976,2.65405 0,1.54495 -0.0213,2.61181 -1.82712,2.61181 h -1.06571 z m 36.89032,0 c 0.80511,0 1.501,0.50029 1.501,1.56651 v 8.18196 c 0,1.06623 -0.69589,1.56651 -1.501,1.56651 -0.80512,0 -1.50101,-0.50028 -1.50101,-1.56651 v -8.18196 c 0,-1.06622 0.69589,-1.56651 1.50101,-1.56651 z m -28.39823,2.37161 h 0.0437 l 1.08753,5.61381 h -2.21875 z" />
    </g>
  </g>
</svg>
