<?xml version="1.0" encoding="utf-8"?>
<svg viewBox="0 0 323.14914 200" xmlns="http://www.w3.org/2000/svg">
  <g id="layer1" transform="matrix(0.9999999999999999, 0, 0, 0.9999999999999999, -303.4596862792969, -22.960700988769517)">
    <path id="rect15575" style="opacity:1;fill:#0a9646;fill-opacity:1;fill-rule:evenodd;stroke-width:0.0420687;stroke-linecap:square;stroke-miterlimit:10;paint-order:stroke fill markers" d="M 303.45966,22.960701 H 626.6088 V 222.9607 H 303.45966 Z"/>
    <path transform="matrix(0.26458333,0,0,0.26458333,303.45966,22.960701)" d="m 30.353516,5.0117188 c -13.808655,0 -25.0781254,11.2674112 -25.0781254,25.0761722 v 332.957029 47.1211 49.04296 13.88672 252.45508 c 0,13.80862 11.2694704,25.06641 25.0781254,25.06641 H 1190.9805 c 13.8086,0 25.0781,-11.25779 25.0781,-25.06641 V 473.0957 459.57031 401.94727 363.04492 30.087891 c 0,-13.808761 -11.2695,-25.0761722 -25.0781,-25.0761722 z m 0,9.4511722 H 1190.9805 c 8.7398,0 15.6425,6.885058 15.6425,15.625 v 332.957029 38.90235 c 0,0.29959 -0.013,0.61475 -0.037,0.9375 v 7.20703 c 0,8.68754 -6.9941,15.68164 -15.6816,15.68164 h -8.0762 c -0.1869,0.007 -0.3766,0.0176 -0.5586,0.0176 H 38.023438 c -0.18105,0 -0.371847,-0.0102 -0.560547,-0.0176 h -7.097657 c -8.687546,0 -15.68164,-6.9941 -15.68164,-15.68164 V 30.152344 c 0,-1.658433 0.257595,-3.253829 0.730468,-4.751953 0.01365,-0.04461 0.03284,-0.08643 0.04688,-0.13086 1.99686,-6.321925 7.84094,-10.80664 14.892578,-10.80664 z M 30.28125,435.30469 h 6.958984 1145.628866 8.1172 c 8.6414,0 15.5996,6.95633 15.5996,15.59765 v 7.5918 c 0.024,0.37296 0.037,0.7339 0.037,1.07617 v 13.52539 252.45508 c 0,5.47634 -2.7106,10.22208 -6.8847,13.00391 -2.4923,1.6862 -5.5034,2.66992 -8.752,2.66992 H 30.28125 c -8.641361,0 -15.597656,-6.9563 -15.597656,-15.59766 V 450.90234 c 0,-8.64132 6.956295,-15.59765 15.597656,-15.59765 z" style="color:#000000;font-style:normal;font-variant:normal;font-weight:normal;font-stretch:normal;font-size:medium;line-height:normal;font-family:sans-serif;font-variant-ligatures:normal;font-variant-position:normal;font-variant-caps:normal;font-variant-numeric:normal;font-variant-alternates:normal;font-variant-east-asian:normal;font-feature-settings:normal;font-variation-settings:normal;text-indent:0;text-align:start;text-decoration:none;text-decoration-line:none;text-decoration-style:solid;text-decoration-color:#000000;letter-spacing:normal;word-spacing:normal;text-transform:none;writing-mode:lr-tb;direction:ltr;text-orientation:mixed;dominant-baseline:auto;baseline-shift:baseline;text-anchor:start;white-space:normal;shape-padding:0;shape-margin:0;inline-size:0;clip-rule:nonzero;display:inline;overflow:visible;visibility:visible;opacity:1;isolation:auto;mix-blend-mode:normal;color-interpolation:sRGB;color-interpolation-filters:linearRGB;solid-color:#000000;solid-opacity:1;vector-effect:none;fill:#ffffff;fill-opacity:1;fill-rule:evenodd;stroke:none;stroke-width:2.09199;stroke-linecap:square;stroke-linejoin:miter;stroke-miterlimit:10;stroke-dasharray:none;stroke-dashoffset:0;stroke-opacity:1;paint-order:stroke fill markers;color-rendering:auto;image-rendering:auto;shape-rendering:auto;text-rendering:auto;enable-background:accumulate;stop-color:#000000;stop-opacity:1" id="path15582"/>
    <path d="m 324.12038,67.193614 h 60.89334 v 27.821331 h -60.89334 z" style="opacity:1;fill:#ffd70f;fill-opacity:1;fill-rule:evenodd;stroke:none;stroke-width:0.553508;stroke-linecap:square;stroke-miterlimit:10;stroke-dasharray:none;stroke-opacity:1;paint-order:stroke fill markers" id="rect15605"/>
    <path id="path15631" d="m 326.18273,67.759747 c -0.81115,0 -1.47443,0.660164 -1.47443,1.471307 v 23.746432 c 0,0.811142 0.66328,1.471323 1.47443,1.471323 h 56.7905 c 0.81117,0 1.4744,-0.660181 1.4744,-1.471323 V 69.231054 c 0,-0.811143 -0.66328,-1.471307 -1.4744,-1.471307 z m 0,0.535017 h 56.7905 c 0.52266,0 0.93627,0.413622 0.93627,0.93629 v 23.746432 c 0,0.522654 -0.41353,0.933189 -0.93627,0.933189 h -56.7905 c -0.52266,0 -0.93628,-0.410555 -0.93628,-0.933189 V 69.231054 c 0,-0.522672 0.41354,-0.93629 0.93628,-0.93629 z" style="color:#000000;font-style:normal;font-variant:normal;font-weight:normal;font-stretch:normal;font-size:medium;line-height:normal;font-family:sans-serif;font-variant-ligatures:normal;font-variant-position:normal;font-variant-caps:normal;font-variant-numeric:normal;font-variant-alternates:normal;font-variant-east-asian:normal;font-feature-settings:normal;font-variation-settings:normal;text-indent:0;text-align:start;text-decoration:none;text-decoration-line:none;text-decoration-style:solid;text-decoration-color:#000000;letter-spacing:normal;word-spacing:normal;text-transform:none;writing-mode:lr-tb;direction:ltr;text-orientation:mixed;dominant-baseline:auto;baseline-shift:baseline;text-anchor:start;white-space:normal;shape-padding:0;shape-margin:0;inline-size:0;clip-rule:nonzero;display:inline;overflow:visible;visibility:visible;opacity:1;isolation:auto;mix-blend-mode:normal;color-interpolation:sRGB;color-interpolation-filters:linearRGB;solid-color:#000000;solid-opacity:1;vector-effect:none;fill:#000000;fill-opacity:1;fill-rule:evenodd;stroke:none;stroke-width:0.119062;stroke-linecap:square;stroke-linejoin:miter;stroke-miterlimit:10;stroke-dasharray:none;stroke-dashoffset:0;stroke-opacity:1;paint-order:stroke fill markers;color-rendering:auto;image-rendering:auto;shape-rendering:auto;text-rendering:auto;enable-background:accumulate;stop-color:#000000;stop-opacity:1"/>
    <path d="m 336.88947,72.205604 c -1.36961,0 -2.51552,0.330332 -3.43646,0.991507 -0.91309,0.653335 -1.5737,1.361798 -1.98303,2.125328 -0.14189,0.267612 -0.264,0.538688 -0.36613,0.814199 -0.10264,0.275473 -0.18065,0.564078 -0.23555,0.86321 -0.0552,0.299089 -0.0954,0.774434 -0.11873,1.427765 -0.0223,0.653332 -0.0362,1.495435 -0.0362,2.5266 0,2.062321 0.0516,3.383536 0.15387,3.966025 0.0552,0.299136 0.13326,0.587702 0.23556,0.863193 0.10264,0.267612 0.22467,0.534915 0.36612,0.802543 0.40948,0.771411 1.06995,1.479875 1.983,2.125324 0.92887,0.653346 2.07472,0.979855 3.43649,0.979855 0.74779,0 1.44489,-0.107189 2.09034,-0.319632 0.64544,-0.212556 1.24303,-0.525333 1.79403,-0.942508 1.1335,-0.865864 1.86473,-2.103628 2.19533,-3.709419 0.0139,-0.04714 0.009,-0.08518 -0.0223,-0.116745 -0.0315,-0.03928 -0.0694,-0.05829 -0.11656,-0.05829 h -2.70394 c -0.0223,1.5e-5 -0.0488,0.01117 -0.0722,0.03521 -0.0223,0.01589 -0.0451,0.0307 -0.0582,0.0467 -0.70836,1.487712 -1.74338,2.232636 -3.10515,2.232636 -0.59037,0 -1.09454,-0.11468 -1.51174,-0.342928 -0.41713,-0.236167 -0.75132,-0.520933 -1.00317,-0.851551 -0.14189,-0.181028 -0.27124,-0.389065 -0.3896,-0.625222 -0.11008,-0.244 -0.19597,-0.488524 -0.25924,-0.732545 -0.0628,-0.267611 -0.10709,-0.67614 -0.13048,-1.227141 -0.0223,-0.558871 -0.0359,-1.267326 -0.0359,-2.125325 0,-0.842249 0.009,-1.543133 0.0359,-2.102004 0.0223,-0.55887 0.0677,-0.97117 0.13048,-1.238798 0.0627,-0.251917 0.14857,-0.496392 0.25924,-0.732549 0.11009,-0.244 0.24028,-0.45965 0.3896,-0.64857 0.252,-0.30699 0.58598,-0.580386 1.00317,-0.816526 0.41715,-0.236167 0.92137,-0.352269 1.51174,-0.352269 0.79503,1.7e-5 1.45185,0.230844 1.97135,0.695231 0.27541,0.236167 0.50863,0.492045 0.69757,0.767539 0.18872,0.267667 0.33407,0.560022 0.4361,0.874867 0.0167,0.06294 0.0599,0.09333 0.13046,0.09333 h 2.7039 c 0.0468,0 0.0854,-0.01589 0.11658,-0.0467 0.0315,-0.03161 0.0407,-0.07184 0.0223,-0.118954 -0.25952,-1.393235 -0.93175,-2.595995 -2.01801,-3.611427 -1.07052,-1.007535 -2.42438,-1.511744 -4.0617,-1.511744 z m 27.73422,0.104956 c -1.28304,0 -2.4213,0.437369 -3.41313,1.311121 -0.99967,0.858 -1.50005,2.08205 -1.50005,3.672071 v 7.425818 c 0,1.590021 0.50038,2.814088 1.50005,3.672088 0.99183,0.865851 2.13009,1.299446 3.41313,1.299446 1.28303,0 2.42133,-0.433578 3.41313,-1.299446 1.00756,-0.86587 1.50938,-2.089917 1.50938,-3.672088 v -7.425818 c 0,-0.787127 -0.1299,-1.484222 -0.38959,-2.09033 -0.252,-0.613979 -0.62389,-1.140934 -1.11979,-1.581741 -0.49592,-0.425045 -1.03279,-0.74779 -1.6074,-0.968177 -0.56674,-0.22825 -1.16816,-0.342924 -1.80573,-0.342924 z m -21.12261,0.03521 c -0.0943,0 -0.14217,0.04776 -0.14217,0.142392 v 2.279298 c 0,0.09444 0.0479,0.142197 0.14217,0.142197 h 4.49793 V 89.409 c 0,0.09444 0.0479,0.139995 0.14217,0.139995 h 2.5616 c 0.0945,0 0.14217,-0.04555 0.14217,-0.139995 V 74.909653 h 4.48625 c 0.0943,0 0.14217,-0.04778 0.14217,-0.142196 v -2.279299 c 0,-0.09444 -0.0479,-0.142392 -0.14217,-0.142392 z m 31.22667,0.118953 -2.43331,1.759064 c -0.0139,0.01589 -0.0315,0.03477 -0.0466,0.05829 -0.009,0.02341 -0.0139,0.04468 -0.0139,0.06068 v 2.561593 c 0,0.06294 0.0278,0.110694 0.0728,0.142196 0.0468,0.02343 0.0989,0.01617 0.15388,-0.02343 0.36208,-0.259778 0.7228,-0.523245 1.08486,-0.790886 0.36206,-0.275473 0.72509,-0.548889 1.08714,-0.816528 v 14.028096 c 0,0.09444 0.048,0.142198 0.14217,0.142198 h 2.41929 c 0.0943,0 0.13994,-0.04778 0.13994,-0.142198 V 72.606811 c 0,-0.09444 -0.0455,-0.142197 -0.13994,-0.142197 z m -10.10406,2.538257 c 0.67694,0 1.21532,0.217964 1.61673,0.650912 0.40948,0.425045 0.61359,1.018854 0.61359,1.782378 v 7.143522 c 0,0.771407 -0.20461,1.368982 -0.61359,1.794059 -0.40133,0.425045 -0.93979,0.63689 -1.61673,0.63689 -0.67695,0 -1.21527,-0.211859 -1.61671,-0.63689 -0.40134,-0.425091 -0.60428,-1.022652 -0.60428,-1.794059 v -7.143497 c 0,-0.763524 0.20266,-1.357335 0.60428,-1.782377 0.40133,-0.432946 0.93976,-0.650913 1.61671,-0.650913 z m -9.98507,11.865445 c -0.0945,0 -0.14217,0.04776 -0.14217,0.14239 v 2.398281 c 0,0.09444 0.0479,0.139994 0.14217,0.139994 h 2.40762 c 0.0867,0 0.13046,-0.04555 0.13046,-0.139994 v -2.398281 c 0,-0.09444 -0.0451,-0.14239 -0.13046,-0.14239 z" style="font-style: normal; font-variant: normal; font-weight: normal; font-stretch: normal; font-size: 15.1831px; line-height: 1.46; font-family: 'Alte DIN 1451 Mittelschrift gepraegt'; text-align: center; text-anchor: middle; opacity: 1; fill-opacity: 1; stroke-width: 0.264584; visibility: hidden;" id="path15637"/>
    <path id="path17496" style="font-size:15.1831px;line-height:1.46;font-family:'Singapore Road Signs';-inkscape-font-specification:'Singapore Road Signs';text-align:center;text-anchor:middle;opacity:1;fill:#ffffff;fill-opacity:1;stroke-width:0.0756548" d="m 570.47468,59.120043 v 50.614317 h 35.43541 V 59.120043 Z m 1.38203,1.660034 h 32.65274 v 47.566083 h -32.65274 z m 13.66823,3.646909 -2.23483,8.869719 h 3.92184 l 0.28216,-8.869719 z m 3.35329,0 0.28216,8.869719 h 3.92385 l -2.23686,-8.869719 z m -15.90932,9.992316 v 1.942234 l 3.06692,1.10806 v 0.584703 h 1.411 v -0.584703 c 0,0 2.08662,-0.313671 4.52568,-0.535349 1.95306,-0.177516 4.1317,-0.271988 5.64407,-0.278037 1.79866,-0.0063 4.45804,0.09363 6.73975,0.288436 2.51319,0.214479 4.5713,0.524984 4.5713,0.524984 v 0.5847 h 1.38199 v -0.5847 l 3.06685,-1.108064 v -1.942233 z m 9.21108,3.620663 -6.70448,26.681115 h 10.04943 l 1.39442,-26.681115 z m 7.25642,0 1.39441,26.681115 h 10.0494 l -6.70443,-26.681115 z"/>
    <g style="font-size:14.7905px;line-height:0;font-family:'Singapore Road Signs';-inkscape-font-specification:'Singapore Road Signs';text-align:center;text-anchor:middle;opacity:1;fill:#860000;fill-opacity:1;stroke-width:6.45213" id="layer1-8" transform="matrix(0.08718024,0,0,0.08718024,-145.22047,195.49013)">
      <circle style="opacity:1;fill:#f00a0a;fill-opacity:1;fill-rule:nonzero;stroke:none;stroke-width:3622.55;stroke-linecap:round;stroke-linejoin:round;stroke-miterlimit:4;stroke-dasharray:none;stroke-opacity:1;paint-order:stroke fill markers" id="path815" cx="6380.9966" cy="-193.29752" r="350"/>
      <circle cy="-193.29752" cx="6380.9966" id="circle817" style="opacity:1;fill:#ffffff;fill-opacity:1;fill-rule:nonzero;stroke:none;stroke-width:2587.55;stroke-linecap:round;stroke-linejoin:round;stroke-miterlimit:4;stroke-dasharray:none;stroke-opacity:1;paint-order:stroke fill markers" r="263.821"/>
      <g aria-label="20 " style="font-style:normal;font-variant:normal;font-weight:bold;font-stretch:normal;font-size:414.864px;line-height:0;font-family:Giaothong1;-inkscape-font-specification:'Giaothong1 Bold';letter-spacing:0px;word-spacing:0px;fill:#000000;fill-opacity:1;stroke:none;stroke-width:24.7849" id="text874" transform="matrix(-1,0,0,1,1299.029,-383.45)">
        <g aria-label="90" transform="translate(2310.2259,387.54849)" style="font-style:normal;font-variant:normal;font-weight:bold;font-stretch:normal;font-size:414.864px;line-height:0;font-family:Giaothong1;-inkscape-font-specification:'Giaothong1 Bold';letter-spacing:0px;word-spacing:0px;fill:#000000;fill-opacity:1;stroke:none;stroke-width:53.5539" id="text844"/>
      </g>
    </g>
    <g style="font-size:14.7905px;line-height:0;font-family:'Singapore Road Signs';-inkscape-font-specification:'Singapore Road Signs';text-align:center;text-anchor:middle;opacity:1;fill:#fff000;fill-opacity:1;stroke-width:6.45221" id="layer1-7" transform="matrix(0.08717968,0,0,0.08717968,488.77841,183.34565)">
      <circle cy="-54" cx="351" id="circle817-6" style="opacity:1;fill:#0046aa;fill-opacity:1;fill-rule:nonzero;stroke:none;stroke-width:3622.58;stroke-linecap:round;stroke-linejoin:round;stroke-miterlimit:4;stroke-dasharray:none;stroke-opacity:1;paint-order:stroke fill markers" r="350"/>
      <path id="rect984" style="font-style: normal; font-variant: normal; font-weight: bold; font-stretch: normal; font-size: 414.864px; line-height: 0; font-family: Giaothong1; letter-spacing: 0px; word-spacing: 0px; opacity: 1; fill: rgb(255, 255, 255); fill-opacity: 1; fill-rule: nonzero; stroke: none; stroke-width: 0.344279; stroke-linecap: round; stroke-linejoin: miter; stroke-miterlimit: 10; stroke-dasharray: none; stroke-opacity: 1; paint-order: stroke; visibility: hidden;" d="m 851.18164,518.03906 c -16.32678,0 -29.4707,13.14393 -29.4707,29.47071 v 80.94921 c 0,16.32678 13.14392,29.47071 29.4707,29.47071 16.32678,0 29.4707,-13.14393 29.4707,-29.47071 v -80.94921 c 0,-16.32678 -13.14392,-29.47071 -29.4707,-29.47071 z m -69.94336,1.23828 -26.10937,69.75391 c -2.72781,7.40406 -3.70118,11.30112 -3.70118,28.44727 0,18.12042 0.7789,22.01697 4.67579,28.25195 5.26075,8.37828 14.22308,13.44336 24.93945,13.44336 10.91123,0 20.0688,-4.87023 25.13476,-13.44336 3.70197,-6.23498 4.48047,-10.13153 4.48047,-28.25195 0,-22.01726 -0.77798,-26.88814 -4.28515,-32.34375 -3.31232,-5.06591 -9.74347,-8.96289 -16.75782,-8.96289 -4.28653,0 -7.01308,0.77773 -8.37695,1.75195 l -0.39062,-0.38867 22.60156,-58.25782 z m 69.94336,18.74024 c 5.25853,0 9.49219,4.23365 9.49219,9.49219 v 80.94921 c 0,5.25853 -4.23366,9.49219 -9.49219,9.49219 -5.25853,0 -9.49219,-4.23366 -9.49219,-9.49219 v -80.94921 c 0,-5.25854 4.23366,-9.49219 9.49219,-9.49219 z m -70.13867,55.68945 c 5.0659,0 9.74219,3.89738 9.74219,9.9375 v 25.71875 c 0,6.04012 -4.67629,9.9375 -9.74219,9.9375 -5.0659,0 -9.74219,-3.89738 -9.74219,-9.9375 v -25.71875 c 0,-6.04012 4.67629,-9.9375 9.74219,-9.9375 z" transform="matrix(3.0349198,0,0,3.0349198,-2125.7104,-1839.7056)"/>
    </g>
    <g aria-label="6" id="text19759" style="font-size:31.1478px;line-height:1.3;font-family:'Singapore Road Signs';-inkscape-font-specification:'Singapore Road Signs';text-align:center;text-anchor:middle;stroke-width:0.159861" transform="matrix(1.6550836,0,0,1.6550836,-321.31659,-238.56049)"/>
    <path d="M 357.402 46.797 Q 357.297 46.797 357.297 46.691 L 357.297 35.898 L 353.948 35.898 Q 353.843 35.898 353.843 35.793 L 353.843 34.097 Q 353.843 33.991 353.948 33.991 L 362.755 33.991 Q 362.86 33.991 362.86 34.097 L 362.86 35.793 Q 362.86 35.898 362.755 35.898 L 359.415 35.898 L 359.415 46.691 Q 359.415 46.797 359.309 46.797 Z M 363.912 34.097 Q 363.912 33.991 364.018 33.991 L 365.934 33.991 Q 366.03 33.991 366.03 34.097 L 366.03 42.218 Q 366.03 43.483 366.734 44.134 Q 367.446 44.793 368.5 44.793 Q 369.537 44.793 370.249 44.134 Q 370.961 43.475 370.961 42.218 L 370.961 34.097 Q 370.961 33.991 371.067 33.991 L 372.974 33.991 Q 373.079 33.991 373.079 34.097 L 373.079 42.429 Q 373.079 44.45 371.735 45.681 Q 370.407 46.902 368.5 46.902 Q 366.584 46.902 365.248 45.681 Q 363.912 44.45 363.912 42.429 Z M 378.088 46.797 Q 377.991 46.797 377.991 46.691 L 377.991 41.541 Q 377.042 39.686 376.102 37.841 Q 375.161 35.995 374.221 34.141 Q 374.194 34.079 374.221 34.035 Q 374.247 33.991 374.317 33.991 L 376.321 33.991 Q 376.348 33.991 376.374 34.013 Q 376.4 34.035 376.418 34.053 L 379.002 39.449 Q 379.652 38.087 380.29 36.751 Q 380.927 35.415 381.577 34.053 Q 381.595 34.035 381.621 34.013 Q 381.647 33.991 381.674 33.991 L 383.686 33.991 Q 383.757 33.991 383.783 34.035 Q 383.81 34.079 383.783 34.141 L 380.004 41.541 L 380.004 46.691 Q 380.004 46.797 379.898 46.797 Z M 385.199 46.797 Q 385.093 46.797 385.093 46.691 L 385.093 34.097 Q 385.093 33.991 385.199 33.991 L 393.25 33.991 Q 393.355 33.991 393.355 34.097 L 393.355 35.907 Q 393.355 36.013 393.25 36.013 L 387.212 36.013 L 387.212 39.388 L 392.344 39.388 Q 392.45 39.388 392.45 39.493 L 392.45 41.198 Q 392.45 41.295 392.344 41.295 L 387.212 41.295 L 387.212 44.793 L 393.25 44.793 Q 393.355 44.793 393.355 44.898 L 393.355 46.691 Q 393.355 46.797 393.25 46.797 Z M 386.095 32.857 Q 386.016 32.857 385.999 32.787 Q 385.981 32.717 386.034 32.673 L 388.618 30.625 L 389.804 30.625 L 392.423 32.673 Q 392.485 32.717 392.463 32.787 Q 392.441 32.857 392.362 32.857 L 390.885 32.857 L 389.128 31.908 Q 388.741 32.145 388.345 32.383 Q 387.95 32.62 387.563 32.857 Z M 395.201 46.797 Q 395.095 46.797 395.095 46.691 L 395.095 34.097 Q 395.095 33.991 395.201 33.991 L 397.011 33.991 Q 397.064 33.991 397.099 34.044 L 402.636 42.763 L 402.636 34.097 Q 402.636 33.991 402.742 33.991 L 404.658 33.991 Q 404.763 33.991 404.763 34.097 L 404.763 46.691 Q 404.763 46.797 404.658 46.797 L 402.856 46.797 Q 402.803 46.797 402.768 46.744 L 397.213 38.025 L 397.213 46.691 Q 397.213 46.797 397.117 46.797 Z M 415.292 43.255 Q 415.256 43.228 415.252 43.184 Q 415.248 43.141 415.274 43.105 L 416.408 41.805 Q 416.478 41.725 416.548 41.796 L 417.893 42.85 Q 417.963 42.508 417.994 41.91 Q 418.025 41.312 418.025 40.398 Q 418.025 39.44 417.99 38.821 Q 417.955 38.201 417.884 37.911 Q 417.814 37.63 417.691 37.362 Q 417.568 37.094 417.41 36.883 Q 417.278 36.716 417.089 36.558 Q 416.9 36.399 416.663 36.281 Q 416.425 36.162 416.144 36.087 Q 415.863 36.013 415.538 36.013 Q 414.887 36.013 414.417 36.276 Q 413.947 36.54 413.674 36.883 Q 413.499 37.094 413.38 37.362 Q 413.261 37.63 413.191 37.911 Q 413.059 38.509 413.059 40.398 Q 413.059 42.306 413.191 42.894 Q 413.261 43.167 413.384 43.435 Q 413.507 43.703 413.674 43.905 Q 413.947 44.274 414.417 44.534 Q 414.887 44.793 415.538 44.793 Q 416.25 44.793 416.786 44.441 Z M 420.187 47.052 Q 420.161 47.078 420.117 47.078 Q 420.073 47.078 420.038 47.052 L 418.517 45.848 Q 417.946 46.313 417.199 46.608 Q 416.452 46.902 415.538 46.902 Q 414.026 46.902 412.98 46.173 Q 411.978 45.452 411.503 44.591 L 411.512 44.591 Q 411.354 44.292 411.24 43.989 Q 411.125 43.685 411.064 43.351 Q 410.941 42.657 410.941 40.398 Q 410.941 39.247 410.972 38.517 Q 411.002 37.788 411.064 37.454 Q 411.125 37.12 411.24 36.812 Q 411.354 36.505 411.512 36.206 L 411.503 36.206 Q 411.732 35.784 412.101 35.389 Q 412.47 34.993 412.98 34.624 Q 414.017 33.886 415.538 33.886 Q 417.058 33.886 418.086 34.624 Q 419.106 35.371 419.581 36.206 Q 419.73 36.496 419.844 36.808 Q 419.958 37.12 420.02 37.454 Q 420.082 37.788 420.112 38.517 Q 420.143 39.247 420.143 40.398 Q 420.143 42.455 420.038 43.167 Q 419.994 43.501 419.91 43.787 Q 419.827 44.072 419.704 44.318 Q 420.099 44.626 420.503 44.955 Q 420.908 45.285 421.303 45.593 Q 421.338 45.619 421.347 45.663 Q 421.356 45.707 421.321 45.742 Z M 422.462 34.097 Q 422.462 33.991 422.567 33.991 L 424.483 33.991 Q 424.58 33.991 424.58 34.097 L 424.58 42.218 Q 424.58 43.483 425.283 44.134 Q 425.995 44.793 427.05 44.793 Q 428.087 44.793 428.799 44.134 Q 429.511 43.475 429.511 42.218 L 429.511 34.097 Q 429.511 33.991 429.616 33.991 L 431.523 33.991 Q 431.629 33.991 431.629 34.097 L 431.629 42.429 Q 431.629 44.45 430.284 45.681 Q 428.957 46.902 427.05 46.902 Q 425.134 46.902 423.798 45.681 Q 422.462 44.45 422.462 42.429 Z M 432.403 46.788 Q 432.341 46.788 432.315 46.744 Q 432.289 46.7 432.306 46.647 L 436.912 34.044 Q 436.929 33.974 437 33.974 L 438.573 33.974 Q 438.599 33.974 438.63 33.996 Q 438.661 34.017 438.67 34.044 L 443.266 46.647 Q 443.284 46.7 443.258 46.744 Q 443.231 46.788 443.178 46.788 L 441.166 46.788 Q 441.095 46.788 441.078 46.718 L 440.129 43.94 L 435.488 43.94 Q 435.242 44.652 435 45.333 Q 434.758 46.015 434.512 46.718 Q 434.504 46.744 434.473 46.766 Q 434.442 46.788 434.416 46.788 Z M 439.496 42.051 Q 439.478 41.989 439.447 41.919 Q 439.417 41.849 439.399 41.796 Q 439.25 41.365 439.127 41 Q 439.004 40.636 438.907 40.363 Q 438.845 40.187 438.788 40.02 Q 438.731 39.853 438.678 39.704 Q 438.634 39.563 438.591 39.436 Q 438.547 39.309 438.503 39.185 Q 438.424 38.931 438.34 38.676 Q 438.257 38.421 438.169 38.148 Q 438.125 38.025 438.076 37.876 Q 438.028 37.726 437.975 37.559 Q 437.949 37.472 437.936 37.423 Q 437.923 37.375 437.905 37.327 Q 437.887 37.278 437.865 37.217 Q 437.843 37.155 437.808 37.041 Q 437.712 37.331 437.628 37.577 Q 437.545 37.823 437.474 38.034 Q 437.457 38.087 437.448 38.131 Q 437.439 38.175 437.422 38.219 Q 437.378 38.368 437.329 38.5 Q 437.281 38.632 437.237 38.764 Q 437.193 38.904 437.149 39.036 Q 437.105 39.168 437.061 39.291 Q 436.973 39.555 436.881 39.845 Q 436.789 40.135 436.674 40.451 Q 436.56 40.767 436.437 41.132 Q 436.314 41.497 436.121 42.051 Z M 444.362 46.797 Q 444.257 46.797 444.257 46.691 L 444.257 34.097 Q 444.257 33.991 444.362 33.991 L 446.173 33.991 Q 446.225 33.991 446.261 34.044 L 451.798 42.763 L 451.798 34.097 Q 451.798 33.991 451.903 33.991 L 453.819 33.991 Q 453.925 33.991 453.925 34.097 L 453.925 46.691 Q 453.925 46.797 453.819 46.797 L 452.017 46.797 Q 451.965 46.797 451.93 46.744 L 446.375 38.025 L 446.375 46.691 Q 446.375 46.797 446.278 46.797 Z M 460.754 41.673 Q 460.648 41.673 460.648 41.567 L 460.648 39.757 Q 460.648 39.66 460.754 39.66 L 465.227 39.66 Q 465.333 39.66 465.333 39.757 L 465.333 42.323 Q 465.333 44.266 463.997 45.575 Q 462.643 46.902 460.736 46.902 Q 459.216 46.902 458.178 46.173 Q 457.159 45.452 456.702 44.591 L 456.711 44.591 Q 456.544 44.292 456.429 43.989 Q 456.315 43.685 456.254 43.351 Q 456.201 43.017 456.17 42.284 Q 456.139 41.55 456.139 40.398 Q 456.139 39.247 456.17 38.517 Q 456.201 37.788 456.254 37.454 Q 456.315 37.12 456.429 36.812 Q 456.544 36.505 456.711 36.206 L 456.702 36.206 Q 457.159 35.353 458.178 34.624 Q 459.207 33.886 460.736 33.886 Q 462.564 33.886 463.759 35.011 Q 464.972 36.136 465.262 37.7 Q 465.28 37.753 465.245 37.788 Q 465.21 37.823 465.157 37.823 L 463.144 37.823 Q 463.065 37.823 463.048 37.753 Q 462.933 37.401 462.722 37.098 Q 462.511 36.795 462.204 36.531 Q 461.624 36.013 460.736 36.013 Q 460.077 36.013 459.611 36.276 Q 459.145 36.54 458.864 36.883 Q 458.697 37.094 458.574 37.362 Q 458.451 37.63 458.381 37.911 Q 458.31 38.21 458.284 38.834 Q 458.258 39.458 458.258 40.398 Q 458.258 41.356 458.284 41.976 Q 458.31 42.596 458.381 42.894 Q 458.451 43.167 458.578 43.435 Q 458.706 43.703 458.864 43.905 Q 459.145 44.274 459.611 44.534 Q 460.077 44.793 460.736 44.793 Q 461.782 44.793 462.494 44.081 Q 463.215 43.369 463.215 42.218 L 463.215 41.673 Z" transform="matrix(1.310387, 0, 0, 1.310387, -59.698296, -1.169035)" style="fill: rgb(255, 255, 255);"/>
    <path transform="matrix(1.310387, 0, 0, 1.310387, -59.698296, -1.169035)" style="fill: rgb(255, 255, 255);"/>
    <path d="M 378.63 61.573 L 378.63 65.422 L 381.363 65.422 Q 382.374 65.422 382.866 64.816 Q 383.367 64.227 383.367 63.497 Q 383.367 62.408 382.594 61.907 Q 382.093 61.573 381.293 61.573 Z M 376.617 72.357 Q 376.512 72.357 376.512 72.251 L 376.512 59.657 Q 376.512 59.551 376.617 59.551 L 381.188 59.551 Q 381.943 59.551 382.62 59.709 Q 383.306 59.868 384.079 60.465 Q 384.378 60.702 384.629 61.015 Q 384.879 61.327 385.081 61.704 Q 385.275 62.091 385.38 62.557 Q 385.485 63.023 385.485 63.55 Q 385.485 64.93 384.448 66.187 Q 383.411 67.435 381.434 67.435 L 378.63 67.435 L 378.63 72.251 Q 378.63 72.357 378.525 72.357 Z M 394.195 72.357 Q 394.089 72.357 394.089 72.251 L 394.089 66.855 L 389.299 66.855 L 389.299 72.251 Q 389.299 72.357 389.194 72.357 L 387.287 72.357 Q 387.181 72.357 387.181 72.251 L 387.181 59.657 Q 387.181 59.551 387.287 59.551 L 389.194 59.551 Q 389.299 59.551 389.299 59.657 L 389.299 64.948 L 394.089 64.948 L 394.089 59.657 Q 394.089 59.551 394.195 59.551 L 396.102 59.551 Q 396.207 59.551 396.207 59.657 L 396.207 72.251 Q 396.207 72.357 396.102 72.357 Z M 398.615 59.657 Q 398.615 59.551 398.721 59.551 L 400.637 59.551 Q 400.733 59.551 400.733 59.657 L 400.733 67.778 Q 400.733 69.043 401.436 69.694 Q 402.148 70.353 403.203 70.353 Q 404.24 70.353 404.952 69.694 Q 405.664 69.035 405.664 67.778 L 405.664 59.657 Q 405.664 59.551 405.769 59.551 L 407.677 59.551 Q 407.782 59.551 407.782 59.657 L 407.782 67.989 Q 407.782 70.01 406.437 71.241 Q 405.11 72.462 403.203 72.462 Q 401.287 72.462 399.951 71.241 Q 398.615 70.01 398.615 67.989 Z M 401.305 58.417 Q 401.234 58.417 401.212 58.369 Q 401.19 58.321 401.217 58.259 L 403.054 55.693 Q 403.089 55.64 403.141 55.64 L 405.075 55.64 Q 405.145 55.64 405.176 55.702 Q 405.207 55.763 405.154 55.816 L 402.728 58.382 Q 402.72 58.391 402.693 58.404 Q 402.667 58.417 402.649 58.417 Z M 416.771 72.357 Q 416.666 72.357 416.666 72.251 L 416.666 61.458 L 413.317 61.458 Q 413.212 61.458 413.212 61.353 L 413.212 59.657 Q 413.212 59.551 413.317 59.551 L 422.124 59.551 Q 422.229 59.551 422.229 59.657 L 422.229 61.353 Q 422.229 61.458 422.124 61.458 L 418.784 61.458 L 418.784 72.251 Q 418.784 72.357 418.678 72.357 Z M 430.527 72.357 Q 430.421 72.357 430.421 72.251 L 430.421 66.855 L 425.631 66.855 L 425.631 72.251 Q 425.631 72.357 425.526 72.357 L 423.618 72.357 Q 423.513 72.357 423.513 72.251 L 423.513 59.657 Q 423.513 59.551 423.618 59.551 L 425.526 59.551 Q 425.631 59.551 425.631 59.657 L 425.631 64.948 L 430.421 64.948 L 430.421 59.657 Q 430.421 59.551 430.527 59.551 L 432.434 59.551 Q 432.539 59.551 432.539 59.657 L 432.539 72.251 Q 432.539 72.357 432.434 72.357 Z M 434.753 65.958 Q 434.753 64.807 434.784 64.077 Q 434.815 63.348 434.868 63.014 Q 434.929 62.68 435.043 62.372 Q 435.158 62.065 435.325 61.766 L 435.316 61.766 Q 435.773 60.913 436.793 60.184 Q 437.821 59.446 439.35 59.446 Q 440.862 59.446 441.89 60.184 Q 442.927 60.931 443.384 61.766 Q 443.71 62.364 443.824 63.014 Q 443.885 63.348 443.916 64.077 Q 443.947 64.807 443.947 65.958 Q 443.947 68.217 443.824 68.911 Q 443.762 69.254 443.652 69.562 Q 443.543 69.869 443.393 70.151 Q 442.927 70.994 441.89 71.733 Q 440.853 72.462 439.35 72.462 Q 437.83 72.462 436.793 71.733 Q 435.773 71.012 435.316 70.151 L 435.325 70.151 Q 435.158 69.852 435.043 69.549 Q 434.929 69.245 434.868 68.911 Q 434.815 68.577 434.784 67.844 Q 434.753 67.11 434.753 65.958 Z M 436.872 65.958 Q 436.872 66.916 436.898 67.536 Q 436.924 68.156 436.995 68.454 Q 437.065 68.727 437.192 68.995 Q 437.32 69.263 437.478 69.465 Q 437.759 69.834 438.225 70.094 Q 438.691 70.353 439.35 70.353 Q 440.001 70.353 440.466 70.094 Q 440.932 69.834 441.205 69.465 Q 441.574 69.017 441.688 68.454 Q 441.829 67.892 441.829 65.958 Q 441.829 65 441.793 64.381 Q 441.758 63.761 441.688 63.471 Q 441.626 63.19 441.503 62.922 Q 441.38 62.654 441.213 62.443 Q 441.082 62.276 440.893 62.118 Q 440.704 61.959 440.466 61.841 Q 440.229 61.722 439.948 61.647 Q 439.667 61.573 439.35 61.573 Q 438.691 61.573 438.225 61.836 Q 437.759 62.1 437.478 62.443 Q 437.311 62.654 437.188 62.922 Q 437.065 63.19 436.995 63.471 Q 436.924 63.77 436.898 64.394 Q 436.872 65.018 436.872 65.958 Z M 438.506 75.82 Q 438.41 75.82 438.41 75.723 L 438.41 74.027 Q 438.41 73.93 438.506 73.93 L 440.211 73.93 Q 440.299 73.93 440.299 74.027 L 440.299 75.723 Q 440.299 75.82 440.211 75.82 Z" transform="matrix(1.310387, 0, 0, 1.310387, -59.698296, -1.169035)" style="fill: rgb(255, 255, 255);"/>
    <path d="M 426.152 119.118 Q 426.045 119.118 426.045 119.011 L 426.045 106.277 Q 426.045 106.17 426.152 106.17 L 434.292 106.17 Q 434.399 106.17 434.399 106.277 L 434.399 108.107 Q 434.399 108.214 434.292 108.214 L 428.187 108.214 L 428.187 111.626 L 433.377 111.626 Q 433.484 111.626 433.484 111.733 L 433.484 113.457 Q 433.484 113.555 433.377 113.555 L 428.187 113.555 L 428.187 117.092 L 434.292 117.092 Q 434.399 117.092 434.399 117.198 L 434.399 119.011 Q 434.399 119.118 434.292 119.118 Z M 442.57 119.118 Q 442.517 119.118 442.481 119.065 L 439.78 114.479 Q 439.104 115.634 438.429 116.772 Q 437.753 117.909 437.078 119.065 Q 437.043 119.118 436.989 119.118 L 434.812 119.118 Q 434.741 119.118 434.714 119.069 Q 434.688 119.02 434.723 118.958 L 438.589 112.48 Q 437.673 110.933 436.776 109.405 Q 435.878 107.876 434.972 106.33 Q 434.936 106.268 434.963 106.219 Q 434.99 106.17 435.052 106.17 L 437.238 106.17 Q 437.291 106.17 437.327 106.223 L 439.78 110.489 Q 440.393 109.422 441.006 108.361 Q 441.619 107.299 442.232 106.223 Q 442.268 106.17 442.321 106.17 L 444.507 106.17 Q 444.57 106.17 444.596 106.219 Q 444.623 106.268 444.587 106.33 L 440.97 112.48 Q 441.948 114.106 442.908 115.719 Q 443.868 117.332 444.845 118.958 Q 444.881 119.02 444.854 119.069 Q 444.827 119.118 444.756 119.118 Z M 448.149 108.214 L 448.149 112.106 L 450.913 112.106 Q 451.935 112.106 452.433 111.493 Q 452.939 110.898 452.939 110.16 Q 452.939 109.058 452.157 108.552 Q 451.65 108.214 450.842 108.214 Z M 446.114 119.118 Q 446.007 119.118 446.007 119.011 L 446.007 106.277 Q 446.007 106.17 446.114 106.17 L 450.735 106.17 Q 451.499 106.17 452.184 106.33 Q 452.877 106.49 453.659 107.094 Q 453.961 107.334 454.214 107.65 Q 454.468 107.965 454.672 108.347 Q 454.867 108.738 454.974 109.209 Q 455.081 109.68 455.081 110.213 Q 455.081 111.609 454.032 112.879 Q 452.983 114.141 450.984 114.141 L 448.149 114.141 L 448.149 119.011 Q 448.149 119.118 448.042 119.118 Z M 458.764 108.098 L 458.764 111.751 L 461.581 111.751 Q 462.612 111.751 463.128 111.182 Q 463.643 110.613 463.643 109.831 Q 463.643 109.387 463.488 109.04 Q 463.332 108.694 463.039 108.472 Q 462.781 108.294 462.439 108.196 Q 462.097 108.098 461.697 108.098 Z M 456.729 119.118 Q 456.623 119.118 456.623 119.011 L 456.623 106.277 Q 456.623 106.17 456.729 106.17 L 461.715 106.17 Q 462.541 106.17 463.208 106.397 Q 463.874 106.623 464.372 107.041 Q 464.63 107.281 464.865 107.587 Q 465.101 107.894 465.283 108.249 Q 465.465 108.605 465.572 109.005 Q 465.678 109.405 465.678 109.831 Q 465.678 110.462 465.5 111.027 Q 465.323 111.591 465.003 112.08 Q 464.674 112.533 464.239 112.875 Q 463.803 113.217 463.252 113.422 Q 463.972 114.799 464.701 116.19 Q 465.429 117.58 466.149 118.958 Q 466.176 119.02 466.149 119.069 Q 466.122 119.118 466.06 119.118 L 463.768 119.118 Q 463.741 119.118 463.714 119.096 Q 463.688 119.073 463.67 119.056 L 461.066 113.679 L 458.764 113.679 L 458.764 119.011 Q 458.764 119.118 458.658 119.118 Z M 467.659 119.118 Q 467.553 119.118 467.553 119.011 L 467.553 106.277 Q 467.553 106.17 467.659 106.17 L 475.8 106.17 Q 475.906 106.17 475.906 106.277 L 475.906 108.107 Q 475.906 108.214 475.8 108.214 L 469.694 108.214 L 469.694 111.626 L 474.884 111.626 Q 474.991 111.626 474.991 111.733 L 474.991 113.457 Q 474.991 113.555 474.884 113.555 L 469.694 113.555 L 469.694 117.092 L 475.8 117.092 Q 475.906 117.092 475.906 117.198 L 475.906 119.011 Q 475.906 119.118 475.8 119.118 Z M 477.683 115.848 Q 477.71 115.812 477.754 115.812 Q 477.799 115.812 477.834 115.839 Q 478.536 116.407 479.447 116.75 Q 480.358 117.092 481.371 117.092 Q 482.509 117.092 483.166 116.621 Q 483.788 116.167 483.788 115.421 Q 483.788 114.017 482.215 113.804 L 482.224 113.804 Q 482.002 113.777 481.802 113.75 Q 481.602 113.724 481.402 113.697 Q 481.202 113.67 480.993 113.639 Q 480.785 113.608 480.536 113.573 Q 479.7 113.457 479.047 113.15 Q 478.394 112.844 477.95 112.337 Q 477.505 111.822 477.283 111.213 Q 477.061 110.604 477.061 109.885 Q 477.061 108.196 478.181 107.139 Q 479.309 106.063 481.318 106.063 Q 481.913 106.063 482.477 106.165 Q 483.042 106.268 483.571 106.445 Q 484.099 106.623 484.584 106.868 Q 485.068 107.112 485.512 107.405 Q 485.601 107.467 485.539 107.556 L 484.464 109.147 Q 484.401 109.227 484.321 109.174 Q 483.628 108.738 482.846 108.476 Q 482.064 108.214 481.229 108.214 Q 480.802 108.214 480.438 108.316 Q 480.074 108.418 479.78 108.649 Q 479.203 109.067 479.203 109.92 Q 479.203 110.409 479.594 110.871 Q 479.789 111.084 480.118 111.231 Q 480.447 111.378 480.927 111.449 Q 481.184 111.493 481.531 111.542 Q 481.878 111.591 482.349 111.644 Q 484.17 111.866 485.05 112.986 Q 485.93 114.079 485.93 115.421 Q 485.93 117.216 484.677 118.229 Q 483.415 119.225 481.353 119.225 Q 478.447 119.225 476.412 117.447 Q 476.377 117.421 476.377 117.376 Q 476.377 117.332 476.403 117.296 Z M 487.95 115.848 Q 487.977 115.812 488.021 115.812 Q 488.066 115.812 488.101 115.839 Q 488.803 116.407 489.714 116.75 Q 490.625 117.092 491.638 117.092 Q 492.776 117.092 493.433 116.621 Q 494.055 116.167 494.055 115.421 Q 494.055 114.017 492.482 113.804 L 492.491 113.804 Q 492.269 113.777 492.069 113.75 Q 491.869 113.724 491.669 113.697 Q 491.469 113.67 491.26 113.639 Q 491.052 113.608 490.803 113.573 Q 489.967 113.457 489.314 113.15 Q 488.661 112.844 488.217 112.337 Q 487.772 111.822 487.55 111.213 Q 487.328 110.604 487.328 109.885 Q 487.328 108.196 488.448 107.139 Q 489.576 106.063 491.585 106.063 Q 492.18 106.063 492.744 106.165 Q 493.309 106.268 493.838 106.445 Q 494.366 106.623 494.851 106.868 Q 495.335 107.112 495.779 107.405 Q 495.868 107.467 495.806 107.556 L 494.731 109.147 Q 494.668 109.227 494.588 109.174 Q 493.895 108.738 493.113 108.476 Q 492.331 108.214 491.496 108.214 Q 491.069 108.214 490.705 108.316 Q 490.341 108.418 490.047 108.649 Q 489.47 109.067 489.47 109.92 Q 489.47 110.409 489.861 110.871 Q 490.056 111.084 490.385 111.231 Q 490.714 111.378 491.194 111.449 Q 491.451 111.493 491.798 111.542 Q 492.145 111.591 492.616 111.644 Q 494.437 111.866 495.317 112.986 Q 496.197 114.079 496.197 115.421 Q 496.197 117.216 494.944 118.229 Q 493.682 119.225 491.62 119.225 Q 488.714 119.225 486.679 117.447 Q 486.644 117.421 486.644 117.376 Q 486.644 117.332 486.67 117.296 Z M 500.203 119.118 Q 500.114 119.118 500.096 119.038 L 496.906 106.303 Q 496.888 106.25 496.924 106.21 Q 496.959 106.17 497.013 106.17 L 499.057 106.17 Q 499.145 106.17 499.163 106.25 L 501.083 114.95 Q 501.669 112.764 502.265 110.604 Q 502.86 108.445 503.455 106.25 Q 503.473 106.17 503.562 106.17 L 504.957 106.17 Q 505.037 106.17 505.055 106.25 L 507.437 114.95 Q 507.917 112.764 508.396 110.604 Q 508.876 108.445 509.356 106.25 Q 509.374 106.17 509.463 106.17 L 511.507 106.17 Q 511.56 106.17 511.596 106.21 Q 511.631 106.25 511.613 106.303 L 508.423 119.038 Q 508.405 119.118 508.317 119.118 L 506.708 119.118 Q 506.628 119.118 506.61 119.038 L 504.255 110.196 Q 503.669 112.426 503.082 114.621 Q 502.496 116.816 501.909 119.038 Q 501.891 119.118 501.811 119.118 Z M 511.528 119.109 Q 511.466 119.109 511.439 119.065 Q 511.413 119.02 511.43 118.967 L 516.087 106.223 Q 516.105 106.152 516.176 106.152 L 517.767 106.152 Q 517.793 106.152 517.824 106.174 Q 517.855 106.197 517.864 106.223 L 522.512 118.967 Q 522.53 119.02 522.503 119.065 Q 522.477 119.109 522.423 119.109 L 520.388 119.109 Q 520.317 119.109 520.299 119.038 L 519.34 116.23 L 514.647 116.23 Q 514.398 116.95 514.154 117.638 Q 513.91 118.327 513.661 119.038 Q 513.652 119.065 513.621 119.087 Q 513.59 119.109 513.563 119.109 Z M 518.7 114.319 Q 518.682 114.257 518.651 114.186 Q 518.62 114.115 518.602 114.061 Q 518.451 113.626 518.326 113.257 Q 518.202 112.888 518.104 112.613 Q 518.042 112.435 517.984 112.266 Q 517.927 112.097 517.873 111.946 Q 517.829 111.804 517.784 111.675 Q 517.74 111.546 517.695 111.422 Q 517.615 111.164 517.531 110.907 Q 517.447 110.649 517.358 110.373 Q 517.313 110.249 517.264 110.098 Q 517.216 109.947 517.162 109.778 Q 517.136 109.689 517.122 109.64 Q 517.109 109.591 517.091 109.542 Q 517.073 109.494 517.051 109.431 Q 517.029 109.369 516.993 109.254 Q 516.896 109.547 516.811 109.796 Q 516.727 110.045 516.656 110.258 Q 516.638 110.311 516.629 110.356 Q 516.62 110.4 516.602 110.444 Q 516.558 110.596 516.509 110.729 Q 516.46 110.862 516.416 110.995 Q 516.371 111.138 516.327 111.271 Q 516.282 111.404 516.238 111.529 Q 516.149 111.795 516.056 112.088 Q 515.963 112.382 515.847 112.702 Q 515.732 113.022 515.607 113.39 Q 515.483 113.759 515.287 114.319 Z M 525.494 119.118 Q 525.396 119.118 525.396 119.011 L 525.396 113.804 Q 524.436 111.929 523.485 110.062 Q 522.534 108.196 521.584 106.321 Q 521.557 106.259 521.584 106.214 Q 521.61 106.17 521.681 106.17 L 523.708 106.17 Q 523.734 106.17 523.761 106.192 Q 523.788 106.214 523.805 106.232 L 526.418 111.689 Q 527.076 110.311 527.72 108.96 Q 528.364 107.61 529.022 106.232 Q 529.04 106.214 529.066 106.192 Q 529.093 106.17 529.12 106.17 L 531.155 106.17 Q 531.226 106.17 531.252 106.214 Q 531.279 106.259 531.252 106.321 L 527.431 113.804 L 527.431 119.011 Q 527.431 119.118 527.324 119.118 Z" style="fill: rgb(255, 255, 255);"/>
    <path d="M 341.368 84.558 Q 341.44 84.558 341.488 84.612 Q 341.536 84.666 341.512 84.738 Q 341.008 87.189 339.278 88.51 Q 338.437 89.147 337.452 89.471 Q 336.467 89.795 335.326 89.795 Q 333.248 89.795 331.831 88.798 Q 330.437 87.813 329.813 86.636 Q 329.597 86.228 329.44 85.813 Q 329.284 85.399 329.2 84.942 Q 329.044 84.054 329.044 80.906 Q 329.044 79.333 329.08 78.336 Q 329.116 77.339 329.2 76.883 Q 329.284 76.426 329.44 76.006 Q 329.597 75.585 329.813 75.177 Q 330.437 74.012 331.831 73.015 Q 333.236 72.006 335.326 72.006 Q 337.825 72.006 339.458 73.543 Q 341.116 75.093 341.512 77.219 Q 341.536 77.291 341.488 77.339 Q 341.44 77.387 341.368 77.387 L 338.617 77.387 Q 338.509 77.387 338.485 77.291 Q 338.329 76.81 338.041 76.396 Q 337.753 75.982 337.332 75.621 Q 336.539 74.913 335.326 74.913 Q 334.425 74.913 333.789 75.273 Q 333.152 75.633 332.768 76.102 Q 332.539 76.39 332.371 76.756 Q 332.203 77.123 332.107 77.507 Q 332.011 77.916 331.975 78.768 Q 331.939 79.621 331.939 80.906 Q 331.939 82.216 331.975 83.063 Q 332.011 83.909 332.107 84.318 Q 332.203 84.69 332.377 85.057 Q 332.551 85.423 332.768 85.699 Q 333.152 86.204 333.789 86.558 Q 334.425 86.912 335.326 86.912 Q 337.404 86.912 338.485 84.642 Q 338.509 84.618 338.545 84.588 Q 338.581 84.558 338.617 84.558 Z M 346.397 89.651 Q 346.253 89.651 346.253 89.507 L 346.253 74.756 L 341.677 74.756 Q 341.533 74.756 341.533 74.612 L 341.533 72.294 Q 341.533 72.15 341.677 72.15 L 353.713 72.15 Q 353.857 72.15 353.857 72.294 L 353.857 74.612 Q 353.857 74.756 353.713 74.756 L 349.148 74.756 L 349.148 89.507 Q 349.148 89.651 349.004 89.651 Z M 354.222 89.651 Q 354.078 89.651 354.078 89.507 L 354.078 87.068 Q 354.078 86.924 354.222 86.924 L 356.672 86.924 Q 356.805 86.924 356.805 87.068 L 356.805 89.507 Q 356.805 89.651 356.672 89.651 Z M 365.171 77.327 Q 365.171 76.162 364.553 75.507 Q 363.934 74.853 362.901 74.853 Q 361.868 74.853 361.255 75.507 Q 360.643 76.162 360.643 77.327 L 360.643 84.594 Q 360.643 85.771 361.255 86.42 Q 361.868 87.068 362.901 87.068 Q 363.934 87.068 364.553 86.42 Q 365.171 85.771 365.171 84.594 Z M 357.904 77.183 Q 357.904 74.756 359.43 73.447 Q 360.943 72.114 362.901 72.114 Q 363.874 72.114 364.745 72.456 Q 365.616 72.799 366.372 73.447 Q 367.129 74.12 367.52 75.051 Q 367.91 75.982 367.91 77.183 L 367.91 84.738 Q 367.91 87.153 366.372 88.474 Q 364.859 89.795 362.901 89.795 Q 360.943 89.795 359.43 88.474 Q 357.904 87.165 357.904 84.738 Z M 369.713 89.651 Q 369.569 89.651 369.569 89.507 L 369.569 87.165 L 376.295 78.744 L 376.295 78.756 Q 376.668 78.288 376.776 77.898 Q 376.884 77.507 376.884 77.135 Q 376.884 76.306 376.283 75.573 Q 375.683 74.853 374.662 74.853 Q 373.725 74.853 373.04 75.489 Q 372.704 75.801 372.53 76.228 Q 372.356 76.654 372.308 77.195 Q 372.308 77.255 372.266 77.291 Q 372.224 77.327 372.163 77.327 L 369.713 77.327 Q 369.569 77.327 369.569 77.183 Q 369.593 75.045 371.022 73.591 Q 372.476 72.114 374.482 72.114 Q 376.656 72.114 378.145 73.603 L 378.133 73.603 Q 379.611 75.081 379.611 77.159 Q 379.611 78.06 379.346 78.828 Q 379.082 79.597 378.554 80.258 L 378.554 80.246 Q 377.869 81.111 377.208 81.939 Q 376.548 82.768 375.887 83.591 Q 375.226 84.414 374.566 85.237 Q 373.905 86.06 373.22 86.924 L 379.467 86.924 Q 379.611 86.924 379.611 87.068 L 379.611 89.507 Q 379.611 89.651 379.467 89.651 Z"/>
    <path d="M 395.708 174.374 Q 395.725 172.731 396.273 171.427 Q 396.821 170.124 397.817 169.194 Q 398.763 168.331 399.942 167.858 Q 401.12 167.385 402.415 167.385 Q 405.155 167.385 407.114 169.194 Q 409.089 171.021 409.139 174.391 L 409.139 184.85 Q 409.106 186.46 408.574 187.788 Q 408.043 189.116 407.114 190.029 Q 406.167 190.876 404.98 191.358 Q 403.793 191.839 402.415 191.872 Q 400.041 191.806 398.232 190.411 L 398.232 190.428 Q 397.285 189.697 396.696 188.676 Q 396.107 187.655 395.841 186.327 Q 395.808 186.244 395.866 186.178 Q 395.924 186.111 396.024 186.111 L 399.41 186.111 Q 399.527 186.111 399.593 186.244 Q 400.34 188.104 402.415 188.104 Q 405.354 188.087 405.47 184.667 L 405.47 182.692 Q 404.374 183.024 403.295 183.206 Q 402.216 183.389 401.27 183.356 Q 398.979 183.405 397.302 181.695 L 397.319 181.695 Q 395.675 180.052 395.708 176.566 Z M 399.394 176.532 Q 399.394 179.919 402.415 179.969 Q 405.37 179.919 405.47 176.532 L 405.47 174.59 Q 405.337 171.22 402.415 171.153 Q 399.41 171.236 399.394 174.59 Z M 422.17 174.573 Q 422.17 172.963 421.315 172.058 Q 420.46 171.153 419.032 171.153 Q 417.604 171.153 416.758 172.058 Q 415.911 172.963 415.911 174.573 L 415.911 184.617 Q 415.911 186.244 416.758 187.141 Q 417.604 188.037 419.032 188.037 Q 420.46 188.037 421.315 187.141 Q 422.17 186.244 422.17 184.617 Z M 412.126 174.374 Q 412.126 171.021 414.234 169.211 Q 416.326 167.368 419.032 167.368 Q 420.377 167.368 421.58 167.841 Q 422.784 168.315 423.83 169.211 Q 424.876 170.141 425.415 171.427 Q 425.955 172.714 425.955 174.374 L 425.955 184.817 Q 425.955 188.153 423.83 189.98 Q 421.738 191.806 419.032 191.806 Q 416.326 191.806 414.234 189.98 Q 412.126 188.17 412.126 184.817 Z"/>
    <path d="M 505.006 174.391 Q 505.023 172.731 505.57 171.427 Q 506.118 170.124 507.114 169.194 Q 508.061 168.331 509.239 167.858 Q 510.418 167.385 511.713 167.385 Q 514.07 167.385 515.98 168.796 Q 517.773 170.224 518.32 172.913 Q 518.354 173.013 518.287 173.079 Q 518.221 173.146 518.121 173.146 L 514.718 173.146 Q 514.585 173.146 514.535 173.029 Q 513.788 171.203 511.696 171.153 Q 508.692 171.236 508.692 174.607 L 508.692 176.566 Q 509.771 176.25 510.841 176.068 Q 511.912 175.885 512.875 175.902 Q 515.199 175.902 516.86 177.528 Q 518.453 179.205 518.437 182.692 L 518.437 184.85 Q 518.387 188.253 516.411 190.029 Q 514.552 191.789 511.713 191.872 Q 508.957 191.789 507.114 190.046 Q 505.023 188.22 505.006 184.866 Z M 508.692 184.667 Q 508.708 188.07 511.713 188.104 Q 514.652 188.087 514.768 184.667 L 514.768 182.725 Q 514.635 179.355 511.713 179.288 Q 508.708 179.371 508.692 182.725 Z M 531.132 174.573 Q 531.132 172.963 530.277 172.058 Q 529.422 171.153 527.994 171.153 Q 526.566 171.153 525.72 172.058 Q 524.873 172.963 524.873 174.573 L 524.873 184.617 Q 524.873 186.244 525.72 187.141 Q 526.566 188.037 527.994 188.037 Q 529.422 188.037 530.277 187.141 Q 531.132 186.244 531.132 184.617 Z M 521.088 174.374 Q 521.088 171.021 523.196 169.211 Q 525.288 167.368 527.994 167.368 Q 529.339 167.368 530.542 167.841 Q 531.746 168.315 532.792 169.211 Q 533.838 170.141 534.377 171.427 Q 534.917 172.714 534.917 174.374 L 534.917 184.817 Q 534.917 188.153 532.792 189.98 Q 530.7 191.806 527.994 191.806 Q 525.288 191.806 523.196 189.98 Q 521.088 188.17 521.088 184.817 Z" style="fill: rgb(255, 255, 255);"/>
  </g>
</svg>