<?xml version="1.0" encoding="UTF-8" standalone="no"?>
<svg
   xmlns:dc="http://purl.org/dc/elements/1.1/"
   xmlns:cc="http://creativecommons.org/ns#"
   xmlns:rdf="http://www.w3.org/1999/02/22-rdf-syntax-ns#"
   xmlns:svg="http://www.w3.org/2000/svg"
   xmlns="http://www.w3.org/2000/svg"
   xmlns:sodipodi="http://sodipodi.sourceforge.net/DTD/sodipodi-0.dtd"
   xmlns:inkscape="http://www.inkscape.org/namespaces/inkscape"
   sodipodi:docname="Vietnam_road_sign_IE467b.svg"
   inkscape:version="1.0 (4035a4fb49, 2020-05-01)"
   id="svg8"
   version="1.1"
   viewBox="0 0 109.62799 155.77496"
   height="155.77496mm"
   width="109.628mm">
  <defs
     id="defs2" />
  <sodipodi:namedview
     inkscape:window-maximized="0"
     inkscape:window-y="0"
     inkscape:window-x="64"
     inkscape:window-height="1030"
     inkscape:window-width="1424"
     showgrid="false"
     inkscape:document-rotation="0"
     inkscape:current-layer="layer1"
     inkscape:document-units="mm"
     inkscape:cy="-70.52475"
     inkscape:cx="-202.80082"
     inkscape:zoom="0.35"
     inkscape:pageshadow="2"
     inkscape:pageopacity="0.0"
     borderopacity="1.0"
     bordercolor="#666666"
     pagecolor="#ffffff"
     id="base" />
  <metadata
     id="metadata5">
    <rdf:RDF>
      <cc:Work
         rdf:about="">
        <dc:format>image/svg+xml</dc:format>
        <dc:type
           rdf:resource="http://purl.org/dc/dcmitype/StillImage" />
        <dc:title></dc:title>
      </cc:Work>
    </rdf:RDF>
  </metadata>
  <g
     transform="translate(-159.49105,-166.82634)"
     id="layer1"
     inkscape:groupmode="layer"
     inkscape:label="Layer 1">
    <path
       id="rect8860"
       style="opacity:1;fill:#028f45;fill-opacity:1;fill-rule:evenodd;stroke-width:0.119062;stroke-linecap:square;stroke-miterlimit:10;paint-order:stroke fill markers"
       d="m 159.49105,166.82634 h 109.628 v 155.77497 h -109.628 z" />
    <path
       style="opacity:1;fill:#ffffff;fill-opacity:1;fill-rule:nonzero;stroke:none;stroke-width:0.352777"
       d="m 254.18565,261.29582 h -1.7661 l -26.1807,-25.98597 v 25.98597 h -51.8277 v -79.54935 h 49.3802 2.4475 v 16.86402 l 27.9468,27.74189 z"
       id="path7227"
       sodipodi:nodetypes="ccccccccccc" />
    <path
       id="path7197"
       style="opacity:1;fill:#4a4a3f;fill-opacity:1;fill-rule:nonzero;stroke:none;stroke-width:0.352777"
       d="m 176.87585,181.74605 v 79.54937 h 22.8435 v -5.96517 h 1.225 v 5.96517 h 22.8475 v -31.77744 l 30.3938,30.2062 V 229.868 l -30.3938,-30.38752 v -17.73443 z m 22.8435,1.94139 h 1.225 v 5.9652 h -1.225 z m 0,11.94551 h 1.225 v 5.96519 h -1.225 z m 0,11.93163 h 1.225 v 5.96647 h -1.225 z m 0,11.94172 h 1.225 v 5.96646 h -1.225 z m 0,11.9455 h 1.225 v 5.96648 h -1.225 z m 0,11.94929 h 1.225 v 5.96647 h -1.225 z" />
    <path
       style="color:#000000;font-style:normal;font-variant:normal;font-weight:normal;font-stretch:normal;font-size:medium;line-height:normal;font-family:sans-serif;font-variant-ligatures:normal;font-variant-position:normal;font-variant-caps:normal;font-variant-numeric:normal;font-variant-alternates:normal;font-variant-east-asian:normal;font-feature-settings:normal;font-variation-settings:normal;text-indent:0;text-align:start;text-decoration:none;text-decoration-line:none;text-decoration-style:solid;text-decoration-color:#000000;letter-spacing:normal;word-spacing:normal;text-transform:none;writing-mode:lr-tb;direction:ltr;text-orientation:mixed;dominant-baseline:auto;baseline-shift:baseline;text-anchor:start;white-space:normal;shape-padding:0;shape-margin:0;inline-size:0;clip-rule:nonzero;display:inline;overflow:visible;visibility:visible;opacity:1;isolation:auto;mix-blend-mode:normal;color-interpolation:sRGB;color-interpolation-filters:linearRGB;solid-color:#000000;solid-opacity:1;vector-effect:none;fill:#ffffff;fill-opacity:1;fill-rule:evenodd;stroke:none;stroke-width:0.502708;stroke-linecap:square;stroke-linejoin:miter;stroke-miterlimit:10;stroke-dasharray:none;stroke-dashoffset:0;stroke-opacity:1;paint-order:stroke fill markers;color-rendering:auto;image-rendering:auto;shape-rendering:auto;text-rendering:auto;enable-background:accumulate;stop-color:#000000;stop-opacity:1"
       d="m 162.19895,167.53212 c -1.1021,0 -2.0095,0.90568 -2.0095,2.00769 v 150.34705 c 0,1.10205 0.9074,2.00772 2.0095,2.00772 h 104.2073 c 1.102,0 2.0078,-0.90567 2.0078,-2.00772 V 169.53981 c 0,-1.10201 -0.9058,-2.00769 -2.0078,-2.00769 z m 0,1.22542 h 104.2073 c 0.4446,0 0.7824,0.33761 0.7824,0.78227 v 150.34705 c 0,0.44468 -0.3378,0.78395 -0.7824,0.78395 h -104.2073 c -0.4448,0 -0.7841,-0.33927 -0.7841,-0.78395 V 169.53981 c 0,-0.44466 0.3393,-0.78227 0.7841,-0.78227 z"
       id="path8867"
       sodipodi:nodetypes="ssssscssssssssssss" />
    <path
       id="path10830"
       style="font-style:normal;font-variant:normal;font-weight:normal;font-stretch:normal;font-size:16.0673px;line-height:1.3;font-family:Giaothong2;-inkscape-font-specification:Giaothong2;text-align:center;letter-spacing:0.165px;text-anchor:middle;opacity:1;fill:#ffffff;fill-opacity:1;stroke-width:0.264582"
       d="m 247.52835,307.64032 q -0.08,0 -0.08,-0.0808 v -9.6627 q 0,-0.0808 0.08,-0.0808 h 6.1765 q 0.08,0 0.08,0.0808 v 1.38904 q 0,0.0808 -0.08,0.0808 h -4.6325 v 2.58929 h 3.9382 q 0.08,0 0.08,0.0808 v 1.30815 q 0,0.074 -0.08,0.074 h -3.9382 v 2.68371 h 4.6325 q 0.08,0 0.08,0.0808 v 1.37555 q 0,0.0808 -0.08,0.0808 z m -9.5818,0 q -0.08,0 -0.08,-0.0808 v -9.6627 q 0,-0.0808 0.08,-0.0808 h 1.3888 q 0.041,0 0.068,0.0405 l 4.2482,6.68902 v -6.64855 q 0,-0.0808 0.08,-0.0808 h 1.4699 q 0.08,0 0.08,0.0808 v 9.66267 q 0,0.0808 -0.08,0.0808 h -1.3822 q -0.041,0 -0.068,-0.0405 l -4.2617,-6.68898 v 6.64857 q 0,0.0808 -0.073,0.0808 z m -9.7102,-0.008 q -0.045,0 -0.068,-0.0337 -0.025,-0.0337 0,-0.074 l 3.5333,-9.66943 q 0.025,-0.054 0.068,-0.054 h 1.207 q 0.025,0 0.041,0.0195 0.026,0.014 0.034,0.0337 l 3.5267,9.66942 q 0.025,0.0405 0,0.0743 -0.025,0.0337 -0.06,0.0337 h -1.5442 q -0.054,0 -0.068,-0.0539 l -0.7283,-2.13079 h -3.5602 q -0.1901,0.54619 -0.3777,1.07213 -0.1826,0.5192 -0.3708,1.05866 0,0.0195 -0.034,0.0405 -0.025,0.014 -0.041,0.014 z m 5.4418,-3.63447 q -0.025,-0.0472 -0.041,-0.1011 -0.025,-0.0539 -0.034,-0.0942 -0.1137,-0.33038 -0.2095,-0.60687 -0.095,-0.28318 -0.1681,-0.49221 -0.045,-0.1349 -0.095,-0.263 -0.041,-0.12819 -0.08,-0.24265 -0.034,-0.10795 -0.068,-0.20223 -0.034,-0.1011 -0.068,-0.19561 -0.06,-0.19565 -0.1293,-0.39113 -0.06,-0.19564 -0.1293,-0.40457 -0.034,-0.0943 -0.073,-0.20904 -0.034,-0.1145 -0.073,-0.24265 -0.025,-0.0675 -0.034,-0.10109 0,-0.0405 -0.025,-0.074 -0.025,-0.0405 -0.034,-0.0877 -0.025,-0.0472 -0.041,-0.13506 -0.073,0.22245 -0.1418,0.41132 -0.06,0.18883 -0.1137,0.35065 -0.025,0.0405 -0.025,0.074 0,0.0337 -0.025,0.0675 -0.034,0.11449 -0.075,0.21584 -0.034,0.1011 -0.068,0.20223 -0.034,0.10795 -0.068,0.20904 -0.034,0.10108 -0.068,0.19563 -0.068,0.20221 -0.1418,0.42481 -0.068,0.22243 -0.1559,0.46525 -0.089,0.24268 -0.1828,0.52596 -0.095,0.27646 -0.2436,0.70127 z m -12.0905,3.64122 q -0.08,0 -0.08,-0.0808 v -9.66267 q 0,-0.0808 0.08,-0.0808 h 1.463 q 0.08,0 0.08,0.0808 v 8.2062 h 4.6325 q 0.08,0 0.08,0.0808 v 1.37558 q 0,0.0808 -0.08,0.0808 z m -11.2883,0 q -0.08,0 -0.08,-0.0808 v -9.66267 q 0,-0.0808 0.08,-0.0808 h 6.1767 q 0.08,0 0.08,0.0808 v 1.38905 q 0,0.0808 -0.08,0.0808 h -4.6324 v 2.58927 h 3.9378 q 0.08,0 0.08,0.0808 v 1.30815 q 0,0.0743 -0.08,0.0743 h -3.9378 v 2.68369 h 4.6324 q 0.08,0 0.08,0.0808 v 1.37556 q 0,0.0808 -0.08,0.0808 z m -5.4215,-3.93115 q -0.08,0 -0.08,-0.0808 v -1.38905 q 0,-0.074 0.08,-0.074 h 3.4323 q 0.08,0 0.08,0.074 v 1.96897 q 0,1.49017 -1.025,2.49489 -1.0382,1.0182 -2.5015,1.0182 -1.1665,0 -1.9624,-0.55968 -0.7821,-0.55293 -1.1328,-1.21373 v 0 q -0.1293,-0.22927 -0.2168,-0.45852 -0.089,-0.23608 -0.134,-0.49224 -0.041,-0.25623 -0.068,-0.81591 -0.025,-0.56642 -0.025,-1.44974 0,-0.88332 0.025,-1.44299 0.026,-0.55967 0.068,-0.81592 0.045,-0.25622 0.134,-0.49222 0.089,-0.23609 0.2168,-0.46526 v 0 q 0.3507,-0.65407 1.1328,-1.21374 0.789,-0.5664 1.9624,-0.5664 1.4025,0 2.3196,0.86309 0.9304,0.8631 1.1529,2.06336 0.025,0.0403 -0.025,0.0675 -0.026,0.027 -0.068,0.027 h -1.5442 q -0.06,0 -0.073,-0.0539 -0.089,-0.26974 -0.24941,-0.49899 -0.1608,-0.23608 -0.39779,-0.4383 -0.445,-0.39783 -1.12611,-0.39783 -0.50549,0 -0.86299,0.20223 -0.35741,0.20221 -0.57331,0.46525 -0.12919,0.16177 -0.2216,0.37087 -0.095,0.2022 -0.148,0.41805 -0.054,0.22925 -0.075,0.70803 -0.025,0.47872 -0.025,1.20024 0,0.73498 0.025,1.21374 0.025,0.472 0.075,0.70127 0.054,0.20903 0.148,0.41807 0.10281,0.20221 0.2216,0.35737 0.217,0.28321 0.57331,0.48549 0.3575,0.19566 0.86299,0.19566 0.8025,0 1.3486,-0.5462 0.55301,-0.54618 0.55301,-1.42951 v -0.41806 z m -10.1484,-4.43014 v 2.77135 h 2.1375 q 0.7823,0 1.1734,-0.43153 0.3908,-0.43156 0.3908,-1.02496 0,-0.33714 -0.1215,-0.60012 -0.1137,-0.26296 -0.337,-0.43154 -0.1949,-0.1349 -0.4587,-0.20904 -0.2558,-0.0743 -0.55951,-0.0743 z m -1.5441,8.36129 q -0.08,0 -0.08,-0.0808 v -9.66267 q 0,-0.0808 0.08,-0.0808 h 3.783 q 0.6268,0 1.1326,0.17542 0.5058,0.1686 0.8834,0.4855 0.1949,0.18198 0.3708,0.41806 0.1827,0.22926 0.317,0.49899 0.1417,0.2697 0.2217,0.57312 0.08,0.30346 0.08,0.62713 0,0.47874 -0.134,0.91027 -0.1339,0.42482 -0.3776,0.7957 -0.2494,0.34387 -0.58,0.60685 -0.3302,0.25625 -0.7483,0.41134 0.546,1.04516 1.099,2.10379 0.5528,1.0519 1.099,2.09708 0.025,0.0472 0,0.0877 -0.025,0.0337 -0.068,0.0337 h -1.7397 q -0.025,0 -0.041,-0.014 -0.025,-0.0195 -0.034,-0.0337 l -1.9758,-4.07954 h -1.7465 v 4.04579 q 0,0.0808 -0.08,0.0808 z m -7.8288,0 q -0.08,0 -0.08,-0.0808 v -9.66267 q 0,-0.0808 0.08,-0.0808 h 6.1764 q 0.08,0 0.08,0.0808 v 1.38905 q 0,0.0808 -0.08,0.0808 h -4.6323 v 2.58927 h 3.9381 q 0.08,0 0.08,0.0808 v 1.30815 q 0,0.0743 -0.08,0.0743 h -3.9381 v 2.68369 h 4.6323 q 0.08,0 0.08,0.0808 v 1.37556 q 0,0.0808 -0.08,0.0808 z m -10.6001,0 q -0.08,0 -0.08,-0.0808 v -9.66267 q 0,-0.0808 0.08,-0.0808 h 1.3821 q 0.045,0 0.073,0.0472 l 2.7043,6.12936 q 0.6538,-1.54417 1.3147,-3.06131 0.6609,-1.52393 1.3216,-3.06805 0.025,-0.0472 0.073,-0.0472 h 1.3823 q 0.08,0 0.08,0.0808 v 9.66267 q 0,0.0808 -0.08,0.0808 h -1.4632 q -0.08,0 -0.08,-0.0808 v -5.70454 q -0.4718,1.09909 -0.9506,2.1847 -0.4787,1.08565 -0.944,2.17798 -0.026,0.0405 -0.073,0.0405 h -1.2205 q -0.045,0 -0.073,-0.0405 l -1.9015,-4.3762 v 5.71806 q 0,0.0808 -0.08,0.0808 z m 69.8561,-20.39967 q -0.1028,0 -0.1028,-0.10312 V 274.8228 q 0,-0.10313 0.1028,-0.10313 h 1.7703 q 0.05,0 0.086,0.0516 l 5.4132,8.52406 v -8.47251 q 0,-0.10313 0.1028,-0.10313 h 1.8733 q 0.1028,0 0.1028,0.10313 v 12.31361 q 0,0.10312 -0.1028,0.10312 h -1.7614 q -0.052,0 -0.086,-0.0516 l -5.4305,-8.52405 v 8.4725 q 0,0.10312 -0.095,0.10312 z m -12.1762,-0.01 q -0.06,0 -0.084,-0.0428 -0.026,-0.0431 0,-0.0945 l 4.5029,-12.32205 q 0.025,-0.0687 0.086,-0.0687 h 1.5381 q 0.026,0 0.05,0.0259 0.034,0.0169 0.044,0.0431 l 4.4941,12.32207 q 0.025,0.0516 0,0.0945 -0.026,0.0431 -0.078,0.0431 h -1.9678 q -0.068,0 -0.084,-0.0687 l -0.9281,-2.71533 h -4.5369 q -0.2413,0.69599 -0.4814,1.36626 -0.2313,0.66162 -0.4725,1.34907 0,0.0259 -0.044,0.0516 -0.026,0.0169 -0.052,0.0169 z m 6.9347,-4.63154 q -0.025,-0.0602 -0.052,-0.12883 -0.026,-0.0687 -0.044,-0.12041 -0.1464,-0.42104 -0.2665,-0.77335 -0.12,-0.36089 -0.2144,-0.62726 -0.06,-0.17176 -0.12,-0.33512 -0.05,-0.16323 -0.1028,-0.30934 -0.044,-0.1374 -0.084,-0.25779 -0.044,-0.12883 -0.084,-0.24918 -0.078,-0.24919 -0.1632,-0.49839 -0.078,-0.24918 -0.1633,-0.51558 -0.044,-0.12042 -0.095,-0.26637 -0.044,-0.14611 -0.095,-0.30937 -0.026,-0.086 -0.044,-0.12882 0,-0.0516 -0.026,-0.0945 -0.025,-0.0516 -0.044,-0.11184 -0.025,-0.0602 -0.052,-0.17176 -0.095,0.28356 -0.1802,0.52416 -0.078,0.2407 -0.1465,0.44682 -0.025,0.0516 -0.026,0.0945 0,0.0431 -0.026,0.086 -0.044,0.14612 -0.095,0.27497 -0.044,0.12883 -0.084,0.25778 -0.044,0.1374 -0.086,0.26638 -0.044,0.12882 -0.084,0.24918 -0.086,0.25779 -0.1803,0.54136 -0.086,0.28356 -0.1973,0.5929 -0.1122,0.30935 -0.2315,0.67024 -0.1199,0.35229 -0.3092,0.89364 z m -1.1344,-8.98807 q -0.025,0 -0.044,-0.01 -0.026,-0.0169 -0.034,-0.0259 l -2.3715,-2.50908 q -0.052,-0.0516 -0.026,-0.11185 0.034,-0.0602 0.1028,-0.0602 h 1.8903 q 0.052,0 0.084,0.0516 l 1.7959,2.5091 q 0.026,0.0602 0,0.11185 -0.025,0.0428 -0.084,0.0428 z m -14.3843,13.62818 q -0.1029,0 -0.1029,-0.10313 v -12.31348 q 0,-0.10313 0.1029,-0.10313 h 1.86469 q 0.10281,0 0.10281,0.10313 v 10.45743 h 5.9033 q 0.1028,0 0.1028,0.10313 v 1.75292 q 0,0.10313 -0.1028,0.10313 z m -12.7087,-10.54337 v 3.76365 h 2.6724 q 0.9882,0 1.4692,-0.5929 0.4899,-0.57571 0.4899,-1.28893 0,-1.06547 -0.7561,-1.55529 -0.4899,-0.32653 -1.2718,-0.32653 z m -1.96791,10.54337 q -0.10279,0 -0.10279,-0.10313 v -12.31348 q 0,-0.10313 0.10279,-0.10313 h 4.46831 q 0.73919,0 1.4007,0.15469 0.6702,0.15468 1.4263,0.73897 0.2922,0.23193 0.5329,0.54134 0.2492,0.30075 0.4469,0.67024 0.19,0.37807 0.2921,0.83349 0.1028,0.45544 0.1028,0.97101 0,1.34904 -1.0141,2.57784 -1.0139,1.22017 -2.94711,1.22017 h -2.74109 v 4.70884 q 0,0.10313 -0.1029,0.10313 z m -12.17579,-0.01 q -0.06,0 -0.086,-0.0431 -0.026,-0.0428 0,-0.0945 l 4.5026,-12.32207 q 0.025,-0.0687 0.086,-0.0687 h 1.5381 q 0.026,0 0.05,0.0259 0.034,0.0171 0.044,0.0431 l 4.4941,12.32207 q 0.025,0.0516 0,0.0945 -0.026,0.0431 -0.078,0.0431 h -1.9677 q -0.068,0 -0.086,-0.0687 l -0.9279,-2.71532 h -4.5362 q -0.2412,0.69599 -0.4812,1.36624 -0.2315,0.66163 -0.4726,1.34908 0,0.0259 -0.044,0.0516 -0.026,0.0169 -0.052,0.0169 z m 6.9342,-4.63154 q -0.025,-0.0602 -0.05,-0.12883 -0.026,-0.0687 -0.044,-0.12041 -0.14641,-0.42104 -0.2663,-0.77333 -0.11991,-0.36093 -0.2144,-0.62728 -0.06,-0.17176 -0.12,-0.33512 -0.052,-0.16324 -0.1028,-0.30934 -0.044,-0.1374 -0.086,-0.25779 -0.044,-0.12883 -0.086,-0.2492 -0.078,-0.24919 -0.16331,-0.49836 -0.078,-0.24921 -0.16319,-0.51559 -0.044,-0.12041 -0.095,-0.26637 -0.044,-0.14611 -0.095,-0.30933 -0.026,-0.086 -0.044,-0.12882 0,-0.0516 -0.026,-0.0945 -0.025,-0.0516 -0.044,-0.11184 -0.025,-0.0602 -0.052,-0.17177 -0.095,0.28357 -0.1803,0.52416 -0.078,0.24072 -0.1465,0.44682 -0.025,0.0516 -0.026,0.0945 0,0.0431 -0.026,0.086 -0.044,0.14628 -0.096,0.27498 -0.044,0.12882 -0.086,0.25779 -0.044,0.1374 -0.084,0.26636 -0.044,0.12882 -0.084,0.24918 -0.086,0.25779 -0.1803,0.54137 -0.086,0.28355 -0.1974,0.59291 -0.1122,0.30934 -0.2315,0.67023 -0.1199,0.35228 -0.3094,0.89364 z m -4.7343,-8.98806 q -0.078,0 -0.095,-0.0687 -0.025,-0.0687 0.034,-0.11184 l 2.5261,-2.00211 h 1.1599 l 2.5606,2.00211 q 0.06,0.0431 0.034,0.11184 -0.025,0.0687 -0.095,0.0687 h -1.4436 l -1.7186,-0.92801 q -0.3778,0.23193 -0.7647,0.464 -0.3866,0.23194 -0.7648,0.46401 z m 2.2339,17.01374 q -0.095,0 -0.095,-0.0945 v -1.65842 q 0,-0.0945 0.095,-0.0945 h 1.6671 q 0.084,0 0.084,0.0945 v 1.65842 q 0,0.0945 -0.084,0.0945 z m -7.8796,-3.38554 q -0.1028,0 -0.1028,-0.10313 v -5.27597 h -4.68301 v 5.27597 q 0,0.10313 -0.10279,0.10313 h -1.86481 q -0.10279,0 -0.10279,-0.10313 v -12.31281 q 0,-0.10312 0.10279,-0.10312 h 1.86481 q 0.10279,0 0.10279,0.10312 v 5.17287 h 4.68301 v -5.17287 q 0,-0.10312 0.1028,-0.10312 h 1.86459 q 0.10291,0 0.10291,0.10312 v 12.31347 q 0,0.10312 -0.10291,0.10312 z m -18.7839,0 q -0.1028,0 -0.1028,-0.10313 v -12.31281 q 0,-0.10312 0.1028,-0.10312 h 1.7701 q 0.052,0 0.084,0.0516 l 5.4135,8.52406 v -8.4725 q 0,-0.10312 0.1028,-0.10312 h 1.8734 q 0.1028,0 0.1028,0.10312 v 12.31362 q 0,0.10312 -0.1028,0.10312 h -1.7615 q -0.052,0 -0.084,-0.0517 l -5.431,-8.52406 v 8.47251 q 0,0.10313 -0.095,0.10313 z" />
    <path
       id="rect8815"
       style="opacity:1;fill:#ffffff;fill-rule:evenodd;stroke-width:0.119062;stroke-linecap:square;stroke-miterlimit:10;paint-order:stroke fill markers"
       d="m 188.29755,229.51798 -9.3102,13.52054 c -0.4011,0.48921 -0.4592,1.09697 -0.148,1.50717 0.406,0.53748 1.0056,0.6689 1.7244,0.60795 l 4.0486,-1.59517 v 17.03566 h 7.1978 v -17.03566 l 4.2242,1.59517 c 0.9068,0.0257 1.1695,-0.10842 1.4845,-0.46204 0.3477,-0.39084 0.3611,-1.17628 0.091,-1.65308 z"
       sodipodi:nodetypes="ccsccccccscc" />
    <path
       sodipodi:nodetypes="ccsccccccscc"
       d="m 212.36675,229.51839 -9.3106,13.52052 c -0.4009,0.48924 -0.45901,1.09701 -0.148,1.50718 0.406,0.53749 1.0055,0.66892 1.7243,0.60798 l 4.0492,-1.59518 v 17.03568 h 7.1976 v -17.03568 l 4.2241,1.59518 c 0.9065,0.0257 1.1694,-0.10842 1.4843,-0.46207 0.3478,-0.39084 0.3611,-1.17626 0.091,-1.65309 z"
       style="opacity:1;fill:#ffffff;fill-rule:evenodd;stroke-width:0.119062;stroke-linecap:square;stroke-miterlimit:10;paint-order:stroke fill markers"
       id="path8823" />
    <path
       id="path8825"
       style="opacity:1;fill:#ffcc00;fill-rule:evenodd;stroke-width:0.119062;stroke-linecap:square;stroke-miterlimit:10;paint-order:stroke fill markers"
       d="m 228.69985,219.33214 2.9758,15.99959 c 0.059,0.62993 0.4431,1.10349 0.9516,1.17816 0.6666,0.0978 1.1858,-0.22951 1.655,-0.77737 l 1.8038,-3.92777 12.1266,11.93209 4.9085,-5.08978 -11.9487,-11.94549 4.1282,-1.82904 c 0.6636,-0.61834 0.7569,-0.89816 0.7327,-1.37107 -0.026,-0.52253 -0.5685,-1.09118 -1.0968,-1.24007 z"
       sodipodi:nodetypes="ccsccccccscc" />
  </g>
</svg>
