<?xml version="1.0" encoding="utf-8"?>
<svg viewBox="0 0 323.14914 200" xmlns="http://www.w3.org/2000/svg">
  <defs/>
  <g id="layer1" transform="matrix(0.9999999999999999, 0, 0, 0.9999999999999999, -303.4596862792969, -22.960700988769517)">
    <path id="rect15575" style="opacity:1;fill:#0a9646;fill-opacity:1;fill-rule:evenodd;stroke-width:0.0420687;stroke-linecap:square;stroke-miterlimit:10;paint-order:stroke fill markers" d="M 303.45966,22.960701 H 626.6088 V 222.9607 H 303.45966 Z"/>
    <path transform="matrix(0.26458333,0,0,0.26458333,303.45966,22.960701)" d="m 30.353516,5.0117188 c -13.808655,0 -25.0781254,11.2674112 -25.0781254,25.0761722 v 332.957029 47.1211 49.04296 13.88672 252.45508 c 0,13.80862 11.2694704,25.06641 25.0781254,25.06641 H 1190.9805 c 13.8086,0 25.0781,-11.25779 25.0781,-25.06641 V 473.0957 459.57031 401.94727 363.04492 30.087891 c 0,-13.808761 -11.2695,-25.0761722 -25.0781,-25.0761722 z m 0,9.4511722 H 1190.9805 c 8.7398,0 15.6425,6.885058 15.6425,15.625 v 332.957029 38.90235 c 0,0.29959 -0.013,0.61475 -0.037,0.9375 v 7.20703 c 0,8.68754 -6.9941,15.68164 -15.6816,15.68164 h -8.0762 c -0.1869,0.007 -0.3766,0.0176 -0.5586,0.0176 H 38.023438 c -0.18105,0 -0.371847,-0.0102 -0.560547,-0.0176 h -7.097657 c -8.687546,0 -15.68164,-6.9941 -15.68164,-15.68164 V 30.152344 c 0,-1.658433 0.257595,-3.253829 0.730468,-4.751953 0.01365,-0.04461 0.03284,-0.08643 0.04688,-0.13086 1.99686,-6.321925 7.84094,-10.80664 14.892578,-10.80664 z M 30.28125,435.30469 h 6.958984 1145.628866 8.1172 c 8.6414,0 15.5996,6.95633 15.5996,15.59765 v 7.5918 c 0.024,0.37296 0.037,0.7339 0.037,1.07617 v 13.52539 252.45508 c 0,5.47634 -2.7106,10.22208 -6.8847,13.00391 -2.4923,1.6862 -5.5034,2.66992 -8.752,2.66992 H 30.28125 c -8.641361,0 -15.597656,-6.9563 -15.597656,-15.59766 V 450.90234 c 0,-8.64132 6.956295,-15.59765 15.597656,-15.59765 z" style="color:#000000;font-style:normal;font-variant:normal;font-weight:normal;font-stretch:normal;font-size:medium;line-height:normal;font-family:sans-serif;font-variant-ligatures:normal;font-variant-position:normal;font-variant-caps:normal;font-variant-numeric:normal;font-variant-alternates:normal;font-variant-east-asian:normal;font-feature-settings:normal;font-variation-settings:normal;text-indent:0;text-align:start;text-decoration:none;text-decoration-line:none;text-decoration-style:solid;text-decoration-color:#000000;letter-spacing:normal;word-spacing:normal;text-transform:none;writing-mode:lr-tb;direction:ltr;text-orientation:mixed;dominant-baseline:auto;baseline-shift:baseline;text-anchor:start;white-space:normal;shape-padding:0;shape-margin:0;inline-size:0;clip-rule:nonzero;display:inline;overflow:visible;visibility:visible;opacity:1;isolation:auto;mix-blend-mode:normal;color-interpolation:sRGB;color-interpolation-filters:linearRGB;solid-color:#000000;solid-opacity:1;vector-effect:none;fill:#ffffff;fill-opacity:1;fill-rule:evenodd;stroke:none;stroke-width:2.09199;stroke-linecap:square;stroke-linejoin:miter;stroke-miterlimit:10;stroke-dasharray:none;stroke-dashoffset:0;stroke-opacity:1;paint-order:stroke fill markers;color-rendering:auto;image-rendering:auto;shape-rendering:auto;text-rendering:auto;enable-background:accumulate;stop-color:#000000;stop-opacity:1" id="path15582"/>
    <path d="m 324.12038,67.193614 h 60.89334 v 27.821331 h -60.89334 z" style="opacity:1;fill:#ffd70f;fill-opacity:1;fill-rule:evenodd;stroke:none;stroke-width:0.553508;stroke-linecap:square;stroke-miterlimit:10;stroke-dasharray:none;stroke-opacity:1;paint-order:stroke fill markers" id="rect15605"/>
    <path id="path15631" d="m 326.18273,67.759747 c -0.81115,0 -1.47443,0.660164 -1.47443,1.471307 v 23.746432 c 0,0.811142 0.66328,1.471323 1.47443,1.471323 h 56.7905 c 0.81117,0 1.4744,-0.660181 1.4744,-1.471323 V 69.231054 c 0,-0.811143 -0.66328,-1.471307 -1.4744,-1.471307 z m 0,0.535017 h 56.7905 c 0.52266,0 0.93627,0.413622 0.93627,0.93629 v 23.746432 c 0,0.522654 -0.41353,0.933189 -0.93627,0.933189 h -56.7905 c -0.52266,0 -0.93628,-0.410555 -0.93628,-0.933189 V 69.231054 c 0,-0.522672 0.41354,-0.93629 0.93628,-0.93629 z" style="color:#000000;font-style:normal;font-variant:normal;font-weight:normal;font-stretch:normal;font-size:medium;line-height:normal;font-family:sans-serif;font-variant-ligatures:normal;font-variant-position:normal;font-variant-caps:normal;font-variant-numeric:normal;font-variant-alternates:normal;font-variant-east-asian:normal;font-feature-settings:normal;font-variation-settings:normal;text-indent:0;text-align:start;text-decoration:none;text-decoration-line:none;text-decoration-style:solid;text-decoration-color:#000000;letter-spacing:normal;word-spacing:normal;text-transform:none;writing-mode:lr-tb;direction:ltr;text-orientation:mixed;dominant-baseline:auto;baseline-shift:baseline;text-anchor:start;white-space:normal;shape-padding:0;shape-margin:0;inline-size:0;clip-rule:nonzero;display:inline;overflow:visible;visibility:visible;opacity:1;isolation:auto;mix-blend-mode:normal;color-interpolation:sRGB;color-interpolation-filters:linearRGB;solid-color:#000000;solid-opacity:1;vector-effect:none;fill:#000000;fill-opacity:1;fill-rule:evenodd;stroke:none;stroke-width:0.119062;stroke-linecap:square;stroke-linejoin:miter;stroke-miterlimit:10;stroke-dasharray:none;stroke-dashoffset:0;stroke-opacity:1;paint-order:stroke fill markers;color-rendering:auto;image-rendering:auto;shape-rendering:auto;text-rendering:auto;enable-background:accumulate;stop-color:#000000;stop-opacity:1"/>
    <path d="m 336.88947,72.205604 c -1.36961,0 -2.51552,0.330332 -3.43646,0.991507 -0.91309,0.653335 -1.5737,1.361798 -1.98303,2.125328 -0.14189,0.267612 -0.264,0.538688 -0.36613,0.814199 -0.10264,0.275473 -0.18065,0.564078 -0.23555,0.86321 -0.0552,0.299089 -0.0954,0.774434 -0.11873,1.427765 -0.0223,0.653332 -0.0362,1.495435 -0.0362,2.5266 0,2.062321 0.0516,3.383536 0.15387,3.966025 0.0552,0.299136 0.13326,0.587702 0.23556,0.863193 0.10264,0.267612 0.22467,0.534915 0.36612,0.802543 0.40948,0.771411 1.06995,1.479875 1.983,2.125324 0.92887,0.653346 2.07472,0.979855 3.43649,0.979855 0.74779,0 1.44489,-0.107189 2.09034,-0.319632 0.64544,-0.212556 1.24303,-0.525333 1.79403,-0.942508 1.1335,-0.865864 1.86473,-2.103628 2.19533,-3.709419 0.0139,-0.04714 0.009,-0.08518 -0.0223,-0.116745 -0.0315,-0.03928 -0.0694,-0.05829 -0.11656,-0.05829 h -2.70394 c -0.0223,1.5e-5 -0.0488,0.01117 -0.0722,0.03521 -0.0223,0.01589 -0.0451,0.0307 -0.0582,0.0467 -0.70836,1.487712 -1.74338,2.232636 -3.10515,2.232636 -0.59037,0 -1.09454,-0.11468 -1.51174,-0.342928 -0.41713,-0.236167 -0.75132,-0.520933 -1.00317,-0.851551 -0.14189,-0.181028 -0.27124,-0.389065 -0.3896,-0.625222 -0.11008,-0.244 -0.19597,-0.488524 -0.25924,-0.732545 -0.0628,-0.267611 -0.10709,-0.67614 -0.13048,-1.227141 -0.0223,-0.558871 -0.0359,-1.267326 -0.0359,-2.125325 0,-0.842249 0.009,-1.543133 0.0359,-2.102004 0.0223,-0.55887 0.0677,-0.97117 0.13048,-1.238798 0.0627,-0.251917 0.14857,-0.496392 0.25924,-0.732549 0.11009,-0.244 0.24028,-0.45965 0.3896,-0.64857 0.252,-0.30699 0.58598,-0.580386 1.00317,-0.816526 0.41715,-0.236167 0.92137,-0.352269 1.51174,-0.352269 0.79503,1.7e-5 1.45185,0.230844 1.97135,0.695231 0.27541,0.236167 0.50863,0.492045 0.69757,0.767539 0.18872,0.267667 0.33407,0.560022 0.4361,0.874867 0.0167,0.06294 0.0599,0.09333 0.13046,0.09333 h 2.7039 c 0.0468,0 0.0854,-0.01589 0.11658,-0.0467 0.0315,-0.03161 0.0407,-0.07184 0.0223,-0.118954 -0.25952,-1.393235 -0.93175,-2.595995 -2.01801,-3.611427 -1.07052,-1.007535 -2.42438,-1.511744 -4.0617,-1.511744 z m 27.73422,0.104956 c -1.28304,0 -2.4213,0.437369 -3.41313,1.311121 -0.99967,0.858 -1.50005,2.08205 -1.50005,3.672071 v 7.425818 c 0,1.590021 0.50038,2.814088 1.50005,3.672088 0.99183,0.865851 2.13009,1.299446 3.41313,1.299446 1.28303,0 2.42133,-0.433578 3.41313,-1.299446 1.00756,-0.86587 1.50938,-2.089917 1.50938,-3.672088 v -7.425818 c 0,-0.787127 -0.1299,-1.484222 -0.38959,-2.09033 -0.252,-0.613979 -0.62389,-1.140934 -1.11979,-1.581741 -0.49592,-0.425045 -1.03279,-0.74779 -1.6074,-0.968177 -0.56674,-0.22825 -1.16816,-0.342924 -1.80573,-0.342924 z m -21.12261,0.03521 c -0.0943,0 -0.14217,0.04776 -0.14217,0.142392 v 2.279298 c 0,0.09444 0.0479,0.142197 0.14217,0.142197 h 4.49793 V 89.409 c 0,0.09444 0.0479,0.139995 0.14217,0.139995 h 2.5616 c 0.0945,0 0.14217,-0.04555 0.14217,-0.139995 V 74.909653 h 4.48625 c 0.0943,0 0.14217,-0.04778 0.14217,-0.142196 v -2.279299 c 0,-0.09444 -0.0479,-0.142392 -0.14217,-0.142392 z m 31.22667,0.118953 -2.43331,1.759064 c -0.0139,0.01589 -0.0315,0.03477 -0.0466,0.05829 -0.009,0.02341 -0.0139,0.04468 -0.0139,0.06068 v 2.561593 c 0,0.06294 0.0278,0.110694 0.0728,0.142196 0.0468,0.02343 0.0989,0.01617 0.15388,-0.02343 0.36208,-0.259778 0.7228,-0.523245 1.08486,-0.790886 0.36206,-0.275473 0.72509,-0.548889 1.08714,-0.816528 v 14.028096 c 0,0.09444 0.048,0.142198 0.14217,0.142198 h 2.41929 c 0.0943,0 0.13994,-0.04778 0.13994,-0.142198 V 72.606811 c 0,-0.09444 -0.0455,-0.142197 -0.13994,-0.142197 z m -10.10406,2.538257 c 0.67694,0 1.21532,0.217964 1.61673,0.650912 0.40948,0.425045 0.61359,1.018854 0.61359,1.782378 v 7.143522 c 0,0.771407 -0.20461,1.368982 -0.61359,1.794059 -0.40133,0.425045 -0.93979,0.63689 -1.61673,0.63689 -0.67695,0 -1.21527,-0.211859 -1.61671,-0.63689 -0.40134,-0.425091 -0.60428,-1.022652 -0.60428,-1.794059 v -7.143497 c 0,-0.763524 0.20266,-1.357335 0.60428,-1.782377 0.40133,-0.432946 0.93976,-0.650913 1.61671,-0.650913 z m -9.98507,11.865445 c -0.0945,0 -0.14217,0.04776 -0.14217,0.14239 v 2.398281 c 0,0.09444 0.0479,0.139994 0.14217,0.139994 h 2.40762 c 0.0867,0 0.13046,-0.04555 0.13046,-0.139994 v -2.398281 c 0,-0.09444 -0.0451,-0.14239 -0.13046,-0.14239 z" style="font-style: normal; font-variant: normal; font-weight: normal; font-stretch: normal; font-size: 15.1831px; line-height: 1.46; font-family: 'Alte DIN 1451 Mittelschrift gepraegt'; text-align: center; text-anchor: middle; opacity: 1; fill-opacity: 1; stroke-width: 0.264584; visibility: hidden;" id="path15637"/>
    <path id="path17496" style="font-size:15.1831px;line-height:1.46;font-family:'Singapore Road Signs';-inkscape-font-specification:'Singapore Road Signs';text-align:center;text-anchor:middle;opacity:1;fill:#ffffff;fill-opacity:1;stroke-width:0.0756548" d="m 570.47468,59.120043 v 50.614317 h 35.43541 V 59.120043 Z m 1.38203,1.660034 h 32.65274 v 47.566083 h -32.65274 z m 13.66823,3.646909 -2.23483,8.869719 h 3.92184 l 0.28216,-8.869719 z m 3.35329,0 0.28216,8.869719 h 3.92385 l -2.23686,-8.869719 z m -15.90932,9.992316 v 1.942234 l 3.06692,1.10806 v 0.584703 h 1.411 v -0.584703 c 0,0 2.08662,-0.313671 4.52568,-0.535349 1.95306,-0.177516 4.1317,-0.271988 5.64407,-0.278037 1.79866,-0.0063 4.45804,0.09363 6.73975,0.288436 2.51319,0.214479 4.5713,0.524984 4.5713,0.524984 v 0.5847 h 1.38199 v -0.5847 l 3.06685,-1.108064 v -1.942233 z m 9.21108,3.620663 -6.70448,26.681115 h 10.04943 l 1.39442,-26.681115 z m 7.25642,0 1.39441,26.681115 h 10.0494 l -6.70443,-26.681115 z"/>
    <g style="font-size:14.7905px;line-height:0;font-family:'Singapore Road Signs';-inkscape-font-specification:'Singapore Road Signs';text-align:center;text-anchor:middle;opacity:1;fill:#860000;fill-opacity:1;stroke-width:6.45213" id="layer1-8" transform="matrix(0.08718024,0,0,0.08718024,-145.22047,195.49013)">
      <circle style="opacity:1;fill:#f00a0a;fill-opacity:1;fill-rule:nonzero;stroke:none;stroke-width:3622.55;stroke-linecap:round;stroke-linejoin:round;stroke-miterlimit:4;stroke-dasharray:none;stroke-opacity:1;paint-order:stroke fill markers" id="path815" cx="6380.9966" cy="-193.29752" r="350"/>
      <circle cy="-193.29752" cx="6380.9966" id="circle817" style="opacity:1;fill:#ffffff;fill-opacity:1;fill-rule:nonzero;stroke:none;stroke-width:2587.55;stroke-linecap:round;stroke-linejoin:round;stroke-miterlimit:4;stroke-dasharray:none;stroke-opacity:1;paint-order:stroke fill markers" r="263.821"/>
      <g aria-label="20 " style="font-style:normal;font-variant:normal;font-weight:bold;font-stretch:normal;font-size:414.864px;line-height:0;font-family:Giaothong1;-inkscape-font-specification:'Giaothong1 Bold';letter-spacing:0px;word-spacing:0px;fill:#000000;fill-opacity:1;stroke:none;stroke-width:24.7849" id="text874" transform="matrix(-1,0,0,1,1299.029,-383.45)">
        <g aria-label="90" transform="translate(2310.2259,387.54849)" style="font-style:normal;font-variant:normal;font-weight:bold;font-stretch:normal;font-size:414.864px;line-height:0;font-family:Giaothong1;-inkscape-font-specification:'Giaothong1 Bold';letter-spacing:0px;word-spacing:0px;fill:#000000;fill-opacity:1;stroke:none;stroke-width:53.5539" id="text844"/>
      </g>
    </g>
    <g style="font-size:14.7905px;line-height:0;font-family:'Singapore Road Signs';-inkscape-font-specification:'Singapore Road Signs';text-align:center;text-anchor:middle;opacity:1;fill:#fff000;fill-opacity:1;stroke-width:6.45221" id="layer1-7" transform="matrix(0.08717968,0,0,0.08717968,488.77841,183.34565)">
      <circle cy="-54" cx="351" id="circle817-6" style="opacity:1;fill:#0046aa;fill-opacity:1;fill-rule:nonzero;stroke:none;stroke-width:3622.58;stroke-linecap:round;stroke-linejoin:round;stroke-miterlimit:4;stroke-dasharray:none;stroke-opacity:1;paint-order:stroke fill markers" r="350"/>
      <path id="rect984" style="font-style: normal; font-variant: normal; font-weight: bold; font-stretch: normal; font-size: 414.864px; line-height: 0; font-family: Giaothong1; letter-spacing: 0px; word-spacing: 0px; opacity: 1; fill: rgb(255, 255, 255); fill-opacity: 1; fill-rule: nonzero; stroke: none; stroke-width: 0.344279; stroke-linecap: round; stroke-linejoin: miter; stroke-miterlimit: 10; stroke-dasharray: none; stroke-opacity: 1; paint-order: stroke; visibility: hidden;" d="m 851.18164,518.03906 c -16.32678,0 -29.4707,13.14393 -29.4707,29.47071 v 80.94921 c 0,16.32678 13.14392,29.47071 29.4707,29.47071 16.32678,0 29.4707,-13.14393 29.4707,-29.47071 v -80.94921 c 0,-16.32678 -13.14392,-29.47071 -29.4707,-29.47071 z m -69.94336,1.23828 -26.10937,69.75391 c -2.72781,7.40406 -3.70118,11.30112 -3.70118,28.44727 0,18.12042 0.7789,22.01697 4.67579,28.25195 5.26075,8.37828 14.22308,13.44336 24.93945,13.44336 10.91123,0 20.0688,-4.87023 25.13476,-13.44336 3.70197,-6.23498 4.48047,-10.13153 4.48047,-28.25195 0,-22.01726 -0.77798,-26.88814 -4.28515,-32.34375 -3.31232,-5.06591 -9.74347,-8.96289 -16.75782,-8.96289 -4.28653,0 -7.01308,0.77773 -8.37695,1.75195 l -0.39062,-0.38867 22.60156,-58.25782 z m 69.94336,18.74024 c 5.25853,0 9.49219,4.23365 9.49219,9.49219 v 80.94921 c 0,5.25853 -4.23366,9.49219 -9.49219,9.49219 -5.25853,0 -9.49219,-4.23366 -9.49219,-9.49219 v -80.94921 c 0,-5.25854 4.23366,-9.49219 9.49219,-9.49219 z m -70.13867,55.68945 c 5.0659,0 9.74219,3.89738 9.74219,9.9375 v 25.71875 c 0,6.04012 -4.67629,9.9375 -9.74219,9.9375 -5.0659,0 -9.74219,-3.89738 -9.74219,-9.9375 v -25.71875 c 0,-6.04012 4.67629,-9.9375 9.74219,-9.9375 z" transform="matrix(3.0349198,0,0,3.0349198,-2125.7104,-1839.7056)"/>
    </g>
    <g aria-label="6" id="text19759" style="font-size:31.1478px;line-height:1.3;font-family:'Singapore Road Signs';-inkscape-font-specification:'Singapore Road Signs';text-align:center;text-anchor:middle;stroke-width:0.159861" transform="matrix(1.6550836,0,0,1.6550836,-321.31659,-238.56049)"/>
    <path d="M 367.093 46.797 Q 367.014 46.797 366.996 46.726 L 362.839 34.132 Q 362.821 34.079 362.848 34.035 Q 362.874 33.991 362.935 33.991 L 364.948 33.991 Q 365.027 33.991 365.045 34.07 L 367.831 43.395 Q 368.534 41.058 369.233 38.733 Q 369.932 36.408 370.626 34.07 Q 370.643 33.991 370.723 33.991 L 372.735 33.991 Q 372.797 33.991 372.823 34.035 Q 372.85 34.079 372.832 34.132 L 368.675 46.726 Q 368.657 46.797 368.578 46.797 Z M 372.996 46.788 Q 372.935 46.788 372.908 46.744 Q 372.882 46.7 372.9 46.647 L 377.505 34.044 Q 377.523 33.974 377.593 33.974 L 379.166 33.974 Q 379.193 33.974 379.223 33.996 Q 379.254 34.017 379.263 34.044 L 383.86 46.647 Q 383.877 46.7 383.851 46.744 Q 383.824 46.788 383.772 46.788 L 381.759 46.788 Q 381.689 46.788 381.671 46.718 L 380.722 43.94 L 376.081 43.94 Q 375.835 44.652 375.594 45.333 Q 375.352 46.015 375.106 46.718 Q 375.097 46.744 375.066 46.766 Q 375.035 46.788 375.009 46.788 Z M 380.089 42.051 Q 380.072 41.989 380.041 41.919 Q 380.01 41.849 379.992 41.796 Q 379.843 41.365 379.72 41 Q 379.597 40.636 379.5 40.363 Q 379.439 40.187 379.382 40.02 Q 379.324 39.853 379.272 39.704 Q 379.228 39.563 379.184 39.436 Q 379.14 39.309 379.096 39.185 Q 379.017 38.931 378.933 38.676 Q 378.85 38.421 378.762 38.148 Q 378.718 38.025 378.67 37.876 Q 378.621 37.726 378.569 37.559 Q 378.542 37.472 378.529 37.423 Q 378.516 37.375 378.498 37.327 Q 378.481 37.278 378.459 37.217 Q 378.437 37.155 378.402 37.041 Q 378.305 37.331 378.221 37.577 Q 378.138 37.823 378.068 38.034 Q 378.05 38.087 378.041 38.131 Q 378.032 38.175 378.015 38.219 Q 377.971 38.368 377.923 38.5 Q 377.874 38.632 377.83 38.764 Q 377.786 38.904 377.742 39.036 Q 377.698 39.168 377.655 39.291 Q 377.567 39.555 377.474 39.845 Q 377.382 40.135 377.268 40.451 Q 377.154 40.767 377.031 41.132 Q 376.907 41.497 376.714 42.051 Z M 375.246 32.857 Q 375.167 32.857 375.15 32.787 Q 375.132 32.717 375.185 32.673 L 377.769 30.625 L 378.955 30.625 L 381.574 32.673 Q 381.636 32.717 381.614 32.787 Q 381.592 32.857 381.513 32.857 L 380.036 32.857 L 378.279 31.908 Q 377.892 32.145 377.496 32.383 Q 377.101 32.62 376.714 32.857 Z M 385.451 46.797 Q 385.345 46.797 385.345 46.691 L 385.345 34.097 Q 385.345 33.991 385.451 33.991 L 387.261 33.991 Q 387.314 33.991 387.349 34.044 L 392.886 42.763 L 392.886 34.097 Q 392.886 33.991 392.992 33.991 L 394.908 33.991 Q 395.013 33.991 395.013 34.097 L 395.013 46.691 Q 395.013 46.797 394.908 46.797 L 393.106 46.797 Q 393.053 46.797 393.018 46.744 L 387.463 38.025 L 387.463 46.691 Q 387.463 46.797 387.367 46.797 Z M 404.085 36.013 L 404.085 39.862 L 406.818 39.862 Q 407.829 39.862 408.321 39.256 Q 408.822 38.667 408.822 37.937 Q 408.822 36.848 408.049 36.347 Q 407.548 36.013 406.748 36.013 Z M 402.072 46.797 Q 401.967 46.797 401.967 46.691 L 401.967 34.097 Q 401.967 33.991 402.072 33.991 L 406.642 33.991 Q 407.398 33.991 408.075 34.149 Q 408.761 34.308 409.534 34.905 Q 409.833 35.142 410.083 35.455 Q 410.334 35.767 410.536 36.144 Q 410.729 36.531 410.835 36.997 Q 410.94 37.463 410.94 37.99 Q 410.94 39.37 409.903 40.627 Q 408.866 41.875 406.889 41.875 L 404.085 41.875 L 404.085 46.691 Q 404.085 46.797 403.979 46.797 Z M 419.649 46.797 Q 419.543 46.797 419.543 46.691 L 419.543 41.295 L 414.753 41.295 L 414.753 46.691 Q 414.753 46.797 414.648 46.797 L 412.741 46.797 Q 412.635 46.797 412.635 46.691 L 412.635 34.097 Q 412.635 33.991 412.741 33.991 L 414.648 33.991 Q 414.753 33.991 414.753 34.097 L 414.753 39.388 L 419.543 39.388 L 419.543 34.097 Q 419.543 33.991 419.649 33.991 L 421.556 33.991 Q 421.662 33.991 421.662 34.097 L 421.662 46.691 Q 421.662 46.797 421.556 46.797 Z M 423.876 40.398 Q 423.876 39.247 423.907 38.517 Q 423.938 37.788 423.99 37.454 Q 424.052 37.12 424.166 36.812 Q 424.28 36.505 424.447 36.206 L 424.438 36.206 Q 424.896 35.353 425.915 34.624 Q 426.943 33.886 428.473 33.886 Q 429.984 33.886 431.013 34.624 Q 432.05 35.371 432.507 36.206 Q 432.832 36.804 432.946 37.454 Q 433.008 37.788 433.039 38.517 Q 433.069 39.247 433.069 40.398 Q 433.069 42.657 432.946 43.351 Q 432.885 43.694 432.775 44.002 Q 432.665 44.309 432.516 44.591 Q 432.05 45.434 431.013 46.173 Q 429.976 46.902 428.473 46.902 Q 426.952 46.902 425.915 46.173 Q 424.896 45.452 424.438 44.591 L 424.447 44.591 Q 424.28 44.292 424.166 43.989 Q 424.052 43.685 423.99 43.351 Q 423.938 43.017 423.907 42.284 Q 423.876 41.55 423.876 40.398 Z M 425.994 40.398 Q 425.994 41.356 426.021 41.976 Q 426.047 42.596 426.117 42.894 Q 426.188 43.167 426.315 43.435 Q 426.442 43.703 426.601 43.905 Q 426.882 44.274 427.348 44.534 Q 427.813 44.793 428.473 44.793 Q 429.123 44.793 429.589 44.534 Q 430.055 44.274 430.327 43.905 Q 430.696 43.457 430.811 42.894 Q 430.951 42.332 430.951 40.398 Q 430.951 39.44 430.916 38.821 Q 430.881 38.201 430.811 37.911 Q 430.749 37.63 430.626 37.362 Q 430.503 37.094 430.336 36.883 Q 430.204 36.716 430.015 36.558 Q 429.826 36.399 429.589 36.281 Q 429.352 36.162 429.07 36.087 Q 428.789 36.013 428.473 36.013 Q 427.813 36.013 427.348 36.276 Q 426.882 36.54 426.601 36.883 Q 426.434 37.094 426.311 37.362 Q 426.188 37.63 426.117 37.911 Q 426.047 38.21 426.021 38.834 Q 425.994 39.458 425.994 40.398 Z M 435.381 46.797 Q 435.276 46.797 435.276 46.691 L 435.276 34.097 Q 435.276 33.991 435.381 33.991 L 437.192 33.991 Q 437.244 33.991 437.28 34.044 L 442.817 42.763 L 442.817 34.097 Q 442.817 33.991 442.922 33.991 L 444.838 33.991 Q 444.944 33.991 444.944 34.097 L 444.944 46.691 Q 444.944 46.797 444.838 46.797 L 443.036 46.797 Q 442.984 46.797 442.949 46.744 L 437.394 38.025 L 437.394 46.691 Q 437.394 46.797 437.297 46.797 Z M 451.773 41.673 Q 451.668 41.673 451.668 41.567 L 451.668 39.757 Q 451.668 39.66 451.773 39.66 L 456.247 39.66 Q 456.353 39.66 456.353 39.757 L 456.353 42.323 Q 456.353 44.266 455.017 45.575 Q 453.663 46.902 451.756 46.902 Q 450.235 46.902 449.198 46.173 Q 448.179 45.452 447.722 44.591 L 447.731 44.591 Q 447.564 44.292 447.449 43.989 Q 447.335 43.685 447.273 43.351 Q 447.221 43.017 447.19 42.284 Q 447.159 41.55 447.159 40.398 Q 447.159 39.247 447.19 38.517 Q 447.221 37.788 447.273 37.454 Q 447.335 37.12 447.449 36.812 Q 447.564 36.505 447.731 36.206 L 447.722 36.206 Q 448.179 35.353 449.198 34.624 Q 450.227 33.886 451.756 33.886 Q 453.584 33.886 454.779 35.011 Q 455.992 36.136 456.282 37.7 Q 456.3 37.753 456.265 37.788 Q 456.23 37.823 456.177 37.823 L 454.164 37.823 Q 454.085 37.823 454.067 37.753 Q 453.953 37.401 453.742 37.098 Q 453.531 36.795 453.224 36.531 Q 452.644 36.013 451.756 36.013 Q 451.097 36.013 450.631 36.276 Q 450.165 36.54 449.884 36.883 Q 449.717 37.094 449.594 37.362 Q 449.471 37.63 449.4 37.911 Q 449.33 38.21 449.304 38.834 Q 449.277 39.458 449.277 40.398 Q 449.277 41.356 449.304 41.976 Q 449.33 42.596 449.4 42.894 Q 449.471 43.167 449.598 43.435 Q 449.726 43.703 449.884 43.905 Q 450.165 44.274 450.631 44.534 Q 451.097 44.793 451.756 44.793 Q 452.802 44.793 453.514 44.081 Q 454.234 43.369 454.234 42.218 L 454.234 41.673 Z" transform="matrix(1.310387, 0, 0, 1.310387, -59.698296, -1.169035)" style="fill: rgb(255, 255, 255);"/>
    <path transform="matrix(1.310387, 0, 0, 1.310387, -59.698296, -1.169035)" style="fill: rgb(255, 255, 255);"/>
    <path d="M 364.764 72.357 Q 364.659 72.357 364.659 72.251 L 364.659 59.657 Q 364.659 59.551 364.764 59.551 L 366.575 59.551 Q 366.627 59.551 366.662 59.604 L 372.2 68.323 L 372.2 59.657 Q 372.2 59.551 372.305 59.551 L 374.221 59.551 Q 374.327 59.551 374.327 59.657 L 374.327 72.251 Q 374.327 72.357 374.221 72.357 L 372.419 72.357 Q 372.367 72.357 372.331 72.304 L 366.777 63.585 L 366.777 72.251 Q 366.777 72.357 366.68 72.357 Z M 383.975 72.357 Q 383.869 72.357 383.869 72.251 L 383.869 66.855 L 379.079 66.855 L 379.079 72.251 Q 379.079 72.357 378.974 72.357 L 377.066 72.357 Q 376.961 72.357 376.961 72.251 L 376.961 59.657 Q 376.961 59.551 377.066 59.551 L 378.974 59.551 Q 379.079 59.551 379.079 59.657 L 379.079 64.948 L 383.869 64.948 L 383.869 59.657 Q 383.869 59.551 383.975 59.551 L 385.882 59.551 Q 385.987 59.551 385.987 59.657 L 385.987 72.251 Q 385.987 72.357 385.882 72.357 Z M 387.49 72.348 Q 387.428 72.348 387.402 72.304 Q 387.376 72.26 387.393 72.207 L 391.999 59.604 Q 392.016 59.534 392.086 59.534 L 393.66 59.534 Q 393.686 59.534 393.717 59.556 Q 393.748 59.577 393.756 59.604 L 398.353 72.207 Q 398.371 72.26 398.344 72.304 Q 398.318 72.348 398.265 72.348 L 396.253 72.348 Q 396.182 72.348 396.165 72.278 L 395.215 69.5 L 390.575 69.5 Q 390.329 70.212 390.087 70.893 Q 389.845 71.575 389.599 72.278 Q 389.59 72.304 389.56 72.326 Q 389.529 72.348 389.503 72.348 Z M 394.583 67.611 Q 394.565 67.549 394.534 67.479 Q 394.503 67.409 394.486 67.356 Q 394.336 66.925 394.213 66.56 Q 394.09 66.196 393.994 65.923 Q 393.932 65.747 393.875 65.58 Q 393.818 65.413 393.765 65.264 Q 393.721 65.123 393.677 64.996 Q 393.633 64.868 393.589 64.745 Q 393.51 64.491 393.427 64.236 Q 393.343 63.981 393.255 63.708 Q 393.211 63.585 393.163 63.436 Q 393.115 63.286 393.062 63.119 Q 393.036 63.032 393.023 62.983 Q 393.009 62.935 392.992 62.887 Q 392.974 62.838 392.952 62.777 Q 392.93 62.715 392.895 62.601 Q 392.798 62.891 392.715 63.137 Q 392.631 63.383 392.561 63.594 Q 392.544 63.647 392.535 63.691 Q 392.526 63.735 392.508 63.779 Q 392.464 63.928 392.416 64.06 Q 392.368 64.192 392.324 64.324 Q 392.28 64.464 392.236 64.596 Q 392.192 64.728 392.148 64.851 Q 392.06 65.115 391.968 65.405 Q 391.876 65.695 391.761 66.011 Q 391.647 66.327 391.524 66.692 Q 391.401 67.057 391.208 67.611 Z M 406.431 72.357 Q 406.326 72.357 406.326 72.251 L 406.326 61.458 L 402.977 61.458 Q 402.872 61.458 402.872 61.353 L 402.872 59.657 Q 402.872 59.551 402.977 59.551 L 411.784 59.551 Q 411.889 59.551 411.889 59.657 L 411.889 61.353 Q 411.889 61.458 411.784 61.458 L 408.444 61.458 L 408.444 72.251 Q 408.444 72.357 408.338 72.357 Z M 415.289 61.458 L 415.289 65.071 L 418.076 65.071 Q 419.095 65.071 419.605 64.508 Q 420.115 63.946 420.115 63.172 Q 420.115 62.733 419.961 62.39 Q 419.807 62.047 419.517 61.827 Q 419.262 61.652 418.924 61.555 Q 418.585 61.458 418.19 61.458 Z M 413.277 72.357 Q 413.171 72.357 413.171 72.251 L 413.171 59.657 Q 413.171 59.551 413.277 59.551 L 418.207 59.551 Q 419.025 59.551 419.684 59.775 Q 420.343 59.999 420.835 60.412 Q 421.09 60.65 421.323 60.953 Q 421.556 61.256 421.736 61.608 Q 421.916 61.959 422.022 62.355 Q 422.127 62.75 422.127 63.172 Q 422.127 63.796 421.952 64.354 Q 421.776 64.912 421.459 65.396 Q 421.134 65.844 420.704 66.182 Q 420.273 66.521 419.728 66.723 Q 420.44 68.085 421.161 69.461 Q 421.881 70.836 422.593 72.199 Q 422.62 72.26 422.593 72.308 Q 422.567 72.357 422.505 72.357 L 420.238 72.357 Q 420.211 72.357 420.185 72.335 Q 420.159 72.313 420.141 72.295 L 417.566 66.978 L 415.289 66.978 L 415.289 72.251 Q 415.289 72.357 415.184 72.357 Z M 422.694 72.348 Q 422.632 72.348 422.606 72.304 Q 422.58 72.26 422.597 72.207 L 427.203 59.604 Q 427.22 59.534 427.291 59.534 L 428.864 59.534 Q 428.89 59.534 428.921 59.556 Q 428.952 59.577 428.961 59.604 L 433.557 72.207 Q 433.575 72.26 433.548 72.304 Q 433.522 72.348 433.469 72.348 L 431.457 72.348 Q 431.386 72.348 431.369 72.278 L 430.42 69.5 L 425.779 69.5 Q 425.533 70.212 425.291 70.893 Q 425.049 71.575 424.803 72.278 Q 424.795 72.304 424.764 72.326 Q 424.733 72.348 424.707 72.348 Z M 429.787 67.611 Q 429.769 67.549 429.738 67.479 Q 429.708 67.409 429.69 67.356 Q 429.541 66.925 429.418 66.56 Q 429.295 66.196 429.198 65.923 Q 429.136 65.747 429.079 65.58 Q 429.022 65.413 428.969 65.264 Q 428.925 65.123 428.882 64.996 Q 428.838 64.868 428.794 64.745 Q 428.715 64.491 428.631 64.236 Q 428.548 63.981 428.46 63.708 Q 428.416 63.585 428.367 63.436 Q 428.319 63.286 428.266 63.119 Q 428.24 63.032 428.227 62.983 Q 428.214 62.935 428.196 62.887 Q 428.178 62.838 428.156 62.777 Q 428.134 62.715 428.099 62.601 Q 428.003 62.891 427.919 63.137 Q 427.836 63.383 427.765 63.594 Q 427.748 63.647 427.739 63.691 Q 427.73 63.735 427.713 63.779 Q 427.669 63.928 427.62 64.06 Q 427.572 64.192 427.528 64.324 Q 427.484 64.464 427.44 64.596 Q 427.396 64.728 427.352 64.851 Q 427.264 65.115 427.172 65.405 Q 427.08 65.695 426.965 66.011 Q 426.851 66.327 426.728 66.692 Q 426.605 67.057 426.412 67.611 Z M 434.83 72.357 Q 434.725 72.357 434.725 72.251 L 434.725 59.657 Q 434.725 59.551 434.83 59.551 L 436.641 59.551 Q 436.693 59.551 436.728 59.604 L 442.266 68.323 L 442.266 59.657 Q 442.266 59.551 442.371 59.551 L 444.287 59.551 Q 444.393 59.551 444.393 59.657 L 444.393 72.251 Q 444.393 72.357 444.287 72.357 L 442.485 72.357 Q 442.433 72.357 442.397 72.304 L 436.843 63.585 L 436.843 72.251 Q 436.843 72.357 436.746 72.357 Z M 451.219 67.233 Q 451.114 67.233 451.114 67.127 L 451.114 65.317 Q 451.114 65.22 451.219 65.22 L 455.693 65.22 Q 455.798 65.22 455.798 65.317 L 455.798 67.883 Q 455.798 69.826 454.462 71.135 Q 453.109 72.462 451.202 72.462 Q 449.681 72.462 448.644 71.733 Q 447.625 71.012 447.168 70.151 L 447.176 70.151 Q 447.009 69.852 446.895 69.549 Q 446.781 69.245 446.719 68.911 Q 446.667 68.577 446.636 67.844 Q 446.605 67.11 446.605 65.958 Q 446.605 64.807 446.636 64.077 Q 446.667 63.348 446.719 63.014 Q 446.781 62.68 446.895 62.372 Q 447.009 62.065 447.176 61.766 L 447.168 61.766 Q 447.625 60.913 448.644 60.184 Q 449.672 59.446 451.202 59.446 Q 453.03 59.446 454.225 60.571 Q 455.438 61.696 455.728 63.26 Q 455.746 63.313 455.711 63.348 Q 455.675 63.383 455.623 63.383 L 453.61 63.383 Q 453.531 63.383 453.513 63.313 Q 453.399 62.961 453.188 62.658 Q 452.977 62.355 452.67 62.091 Q 452.089 61.573 451.202 61.573 Q 450.543 61.573 450.077 61.836 Q 449.611 62.1 449.33 62.443 Q 449.163 62.654 449.04 62.922 Q 448.917 63.19 448.846 63.471 Q 448.776 63.77 448.75 64.394 Q 448.723 65.018 448.723 65.958 Q 448.723 66.916 448.75 67.536 Q 448.776 68.156 448.846 68.454 Q 448.917 68.727 449.044 68.995 Q 449.171 69.263 449.33 69.465 Q 449.611 69.834 450.077 70.094 Q 450.543 70.353 451.202 70.353 Q 452.248 70.353 452.96 69.641 Q 453.68 68.929 453.68 67.778 L 453.68 67.233 Z" transform="matrix(1.310387, 0, 0, 1.310387, -59.698296, -1.169035)" style="fill: rgb(255, 255, 255);"/>
    <path d="M 426.152 119.118 Q 426.045 119.118 426.045 119.011 L 426.045 106.277 Q 426.045 106.17 426.152 106.17 L 434.292 106.17 Q 434.399 106.17 434.399 106.277 L 434.399 108.107 Q 434.399 108.214 434.292 108.214 L 428.187 108.214 L 428.187 111.626 L 433.377 111.626 Q 433.484 111.626 433.484 111.733 L 433.484 113.457 Q 433.484 113.555 433.377 113.555 L 428.187 113.555 L 428.187 117.092 L 434.292 117.092 Q 434.399 117.092 434.399 117.198 L 434.399 119.011 Q 434.399 119.118 434.292 119.118 Z M 442.572 119.118 Q 442.519 119.118 442.483 119.065 L 439.782 114.479 Q 439.106 115.634 438.431 116.772 Q 437.756 117.909 437.08 119.065 Q 437.045 119.118 436.991 119.118 L 434.814 119.118 Q 434.743 119.118 434.716 119.069 Q 434.69 119.02 434.725 118.958 L 438.591 112.48 Q 437.676 110.933 436.778 109.405 Q 435.881 107.876 434.974 106.33 Q 434.939 106.268 434.965 106.219 Q 434.992 106.17 435.054 106.17 L 437.24 106.17 Q 437.294 106.17 437.329 106.223 L 439.782 110.489 Q 440.395 109.422 441.008 108.361 Q 441.621 107.299 442.235 106.223 Q 442.27 106.17 442.323 106.17 L 444.51 106.17 Q 444.572 106.17 444.598 106.219 Q 444.625 106.268 444.59 106.33 L 440.973 112.48 Q 441.95 114.106 442.91 115.719 Q 443.87 117.332 444.847 118.958 Q 444.883 119.02 444.856 119.069 Q 444.829 119.118 444.758 119.118 Z M 448.149 108.214 L 448.149 112.106 L 450.913 112.106 Q 451.935 112.106 452.433 111.493 Q 452.939 110.898 452.939 110.16 Q 452.939 109.058 452.157 108.552 Q 451.651 108.214 450.842 108.214 Z M 446.114 119.118 Q 446.008 119.118 446.008 119.011 L 446.008 106.277 Q 446.008 106.17 446.114 106.17 L 450.735 106.17 Q 451.5 106.17 452.184 106.33 Q 452.877 106.49 453.659 107.094 Q 453.961 107.334 454.215 107.65 Q 454.468 107.965 454.672 108.347 Q 454.868 108.738 454.974 109.209 Q 455.081 109.68 455.081 110.213 Q 455.081 111.609 454.032 112.879 Q 452.984 114.141 450.984 114.141 L 448.149 114.141 L 448.149 119.011 Q 448.149 119.118 448.043 119.118 Z M 458.768 108.098 L 458.768 111.751 L 461.585 111.751 Q 462.616 111.751 463.131 111.182 Q 463.647 110.613 463.647 109.831 Q 463.647 109.387 463.491 109.04 Q 463.336 108.694 463.043 108.472 Q 462.785 108.294 462.443 108.196 Q 462.101 108.098 461.701 108.098 Z M 456.733 119.118 Q 456.626 119.118 456.626 119.011 L 456.626 106.277 Q 456.626 106.17 456.733 106.17 L 461.718 106.17 Q 462.545 106.17 463.211 106.397 Q 463.878 106.623 464.376 107.041 Q 464.633 107.281 464.869 107.587 Q 465.104 107.894 465.286 108.249 Q 465.469 108.605 465.575 109.005 Q 465.682 109.405 465.682 109.831 Q 465.682 110.462 465.504 111.027 Q 465.326 111.591 465.007 112.08 Q 464.678 112.533 464.242 112.875 Q 463.807 113.217 463.256 113.421 Q 463.976 114.799 464.704 116.19 Q 465.433 117.58 466.153 118.958 Q 466.18 119.02 466.153 119.069 Q 466.126 119.118 466.064 119.118 L 463.771 119.118 Q 463.745 119.118 463.718 119.096 Q 463.691 119.073 463.674 119.056 L 461.07 113.679 L 458.768 113.679 L 458.768 119.011 Q 458.768 119.118 458.661 119.118 Z M 467.663 119.118 Q 467.556 119.118 467.556 119.011 L 467.556 106.277 Q 467.556 106.17 467.663 106.17 L 475.803 106.17 Q 475.909 106.17 475.909 106.277 L 475.909 108.107 Q 475.909 108.214 475.803 108.214 L 469.698 108.214 L 469.698 111.626 L 474.888 111.626 Q 474.994 111.626 474.994 111.733 L 474.994 113.457 Q 474.994 113.555 474.888 113.555 L 469.698 113.555 L 469.698 117.092 L 475.803 117.092 Q 475.909 117.092 475.909 117.198 L 475.909 119.011 Q 475.909 119.118 475.803 119.118 Z M 477.684 115.848 Q 477.711 115.812 477.755 115.812 Q 477.8 115.812 477.835 115.839 Q 478.537 116.407 479.448 116.75 Q 480.359 117.092 481.372 117.092 Q 482.51 117.092 483.167 116.621 Q 483.79 116.167 483.79 115.421 Q 483.79 114.017 482.217 113.804 L 482.225 113.804 Q 482.003 113.777 481.803 113.75 Q 481.603 113.724 481.403 113.697 Q 481.203 113.67 480.995 113.639 Q 480.786 113.608 480.537 113.573 Q 479.702 113.457 479.048 113.15 Q 478.395 112.844 477.951 112.337 Q 477.507 111.822 477.284 111.213 Q 477.062 110.604 477.062 109.885 Q 477.062 108.196 478.182 107.139 Q 479.311 106.063 481.319 106.063 Q 481.914 106.063 482.479 106.165 Q 483.043 106.268 483.572 106.445 Q 484.101 106.623 484.585 106.868 Q 485.069 107.112 485.514 107.405 Q 485.602 107.467 485.54 107.556 L 484.465 109.147 Q 484.403 109.227 484.323 109.174 Q 483.63 108.738 482.848 108.476 Q 482.065 108.214 481.23 108.214 Q 480.804 108.214 480.439 108.316 Q 480.075 108.418 479.782 108.649 Q 479.204 109.067 479.204 109.92 Q 479.204 110.409 479.595 110.871 Q 479.79 111.084 480.119 111.231 Q 480.448 111.378 480.928 111.449 Q 481.186 111.493 481.532 111.542 Q 481.879 111.591 482.35 111.644 Q 484.172 111.866 485.051 112.986 Q 485.931 114.079 485.931 115.421 Q 485.931 117.216 484.678 118.229 Q 483.416 119.225 481.355 119.225 Q 478.449 119.225 476.414 117.447 Q 476.378 117.421 476.378 117.376 Q 476.378 117.332 476.405 117.296 Z M 487.957 115.848 Q 487.983 115.812 488.028 115.812 Q 488.072 115.812 488.108 115.839 Q 488.81 116.407 489.721 116.75 Q 490.632 117.092 491.645 117.092 Q 492.782 117.092 493.44 116.621 Q 494.062 116.167 494.062 115.421 Q 494.062 114.017 492.489 113.804 L 492.498 113.804 Q 492.276 113.777 492.076 113.75 Q 491.876 113.724 491.676 113.697 Q 491.476 113.67 491.267 113.639 Q 491.058 113.608 490.809 113.573 Q 489.974 113.457 489.321 113.15 Q 488.668 112.844 488.223 112.337 Q 487.779 111.822 487.557 111.213 Q 487.335 110.604 487.335 109.885 Q 487.335 108.196 488.454 107.139 Q 489.583 106.063 491.591 106.063 Q 492.187 106.063 492.751 106.165 Q 493.315 106.268 493.844 106.445 Q 494.373 106.623 494.857 106.868 Q 495.342 107.112 495.786 107.405 Q 495.875 107.467 495.813 107.556 L 494.737 109.147 Q 494.675 109.227 494.595 109.174 Q 493.902 108.738 493.12 108.476 Q 492.338 108.214 491.503 108.214 Q 491.076 108.214 490.712 108.316 Q 490.347 108.418 490.054 108.649 Q 489.476 109.067 489.476 109.92 Q 489.476 110.409 489.867 110.871 Q 490.063 111.084 490.392 111.231 Q 490.72 111.378 491.2 111.449 Q 491.458 111.493 491.805 111.542 Q 492.151 111.591 492.622 111.644 Q 494.444 111.866 495.324 112.986 Q 496.204 114.079 496.204 115.421 Q 496.204 117.216 494.951 118.229 Q 493.689 119.225 491.627 119.225 Q 488.721 119.225 486.686 117.447 Q 486.65 117.421 486.65 117.376 Q 486.65 117.332 486.677 117.296 Z M 500.207 119.118 Q 500.118 119.118 500.1 119.038 L 496.91 106.303 Q 496.892 106.25 496.928 106.21 Q 496.963 106.17 497.017 106.17 L 499.06 106.17 Q 499.149 106.17 499.167 106.25 L 501.087 114.95 Q 501.673 112.764 502.269 110.604 Q 502.864 108.445 503.459 106.25 Q 503.477 106.17 503.566 106.17 L 504.961 106.17 Q 505.041 106.17 505.059 106.25 L 507.441 114.95 Q 507.921 112.764 508.4 110.604 Q 508.88 108.445 509.36 106.25 Q 509.378 106.17 509.467 106.17 L 511.511 106.17 Q 511.564 106.17 511.6 106.21 Q 511.635 106.25 511.617 106.303 L 508.427 119.038 Q 508.409 119.118 508.32 119.118 L 506.712 119.118 Q 506.632 119.118 506.614 119.038 L 504.259 110.196 Q 503.673 112.426 503.086 114.621 Q 502.5 116.816 501.913 119.038 Q 501.895 119.118 501.815 119.118 Z M 511.533 119.109 Q 511.471 119.109 511.444 119.065 Q 511.418 119.02 511.435 118.967 L 516.092 106.223 Q 516.11 106.152 516.181 106.152 L 517.772 106.152 Q 517.798 106.152 517.829 106.174 Q 517.86 106.197 517.869 106.223 L 522.517 118.967 Q 522.535 119.02 522.508 119.065 Q 522.482 119.109 522.428 119.109 L 520.393 119.109 Q 520.322 119.109 520.304 119.038 L 519.345 116.23 L 514.652 116.23 Q 514.404 116.95 514.159 117.638 Q 513.915 118.327 513.666 119.038 Q 513.657 119.065 513.626 119.087 Q 513.595 119.109 513.568 119.109 Z M 518.705 114.319 Q 518.687 114.257 518.656 114.186 Q 518.625 114.115 518.607 114.061 Q 518.456 113.626 518.331 113.257 Q 518.207 112.888 518.109 112.613 Q 518.047 112.435 517.989 112.266 Q 517.932 112.097 517.878 111.946 Q 517.834 111.804 517.789 111.675 Q 517.745 111.546 517.701 111.422 Q 517.621 111.164 517.536 110.907 Q 517.452 110.649 517.363 110.373 Q 517.318 110.249 517.27 110.098 Q 517.221 109.947 517.167 109.778 Q 517.141 109.689 517.127 109.64 Q 517.114 109.591 517.096 109.542 Q 517.078 109.494 517.056 109.431 Q 517.034 109.369 516.998 109.254 Q 516.901 109.547 516.816 109.796 Q 516.732 110.045 516.661 110.258 Q 516.643 110.311 516.634 110.356 Q 516.625 110.4 516.607 110.444 Q 516.563 110.596 516.514 110.729 Q 516.465 110.862 516.421 110.995 Q 516.376 111.138 516.332 111.271 Q 516.288 111.404 516.243 111.529 Q 516.154 111.795 516.061 112.088 Q 515.968 112.382 515.852 112.702 Q 515.737 113.022 515.612 113.39 Q 515.488 113.759 515.292 114.319 Z M 525.501 119.118 Q 525.403 119.118 525.403 119.011 L 525.403 113.804 Q 524.443 111.929 523.492 110.062 Q 522.541 108.196 521.591 106.321 Q 521.564 106.259 521.591 106.214 Q 521.617 106.17 521.688 106.17 L 523.714 106.17 Q 523.741 106.17 523.768 106.192 Q 523.794 106.214 523.812 106.232 L 526.425 111.689 Q 527.083 110.311 527.727 108.96 Q 528.371 107.61 529.029 106.232 Q 529.047 106.214 529.073 106.192 Q 529.1 106.17 529.127 106.17 L 531.162 106.17 Q 531.233 106.17 531.259 106.214 Q 531.286 106.259 531.259 106.321 L 527.438 113.804 L 527.438 119.011 Q 527.438 119.118 527.331 119.118 Z" style="fill: rgb(255, 255, 255);"/>
    <path d="M 396.972 190.631 L 396.972 170.109 L 393.525 172.672 L 393.525 169.014 L 396.972 166.486 L 400.401 166.486 L 400.401 190.631 Z M 408.751 190.856 Q 404.951 190.131 404.332 186.401 Q 404.332 182.53 404.332 178.642 Q 404.332 174.753 404.332 170.847 Q 404.809 168.019 406.833 167.038 Q 408.857 166.057 411.455 166.64 Q 412.763 167.435 413.559 168.319 Q 414.354 169.203 414.655 170.847 Q 414.655 174.753 414.655 178.624 Q 414.655 182.495 414.655 186.331 Q 414.142 189.848 410.89 190.82 Q 410.483 190.82 410.209 190.838 Q 409.935 190.856 408.751 190.856 Z M 409.104 187.374 Q 410.695 187.374 411.137 185.977 Q 411.137 182.318 411.137 178.677 Q 411.137 175.036 411.137 171.377 Q 410.925 170.723 410.66 170.299 Q 409.617 169.503 408.892 169.954 Q 408.168 170.405 407.85 171.377 Q 407.85 175.001 407.85 178.642 Q 407.85 182.283 407.85 185.906 Q 408.062 187.02 409.104 187.374 Z M 422.245 190.856 Q 418.445 190.131 417.826 186.401 Q 417.826 182.53 417.826 178.642 Q 417.826 174.753 417.826 170.847 Q 418.303 168.019 420.327 167.038 Q 422.351 166.057 424.949 166.64 Q 426.257 167.435 427.053 168.319 Q 427.848 169.203 428.149 170.847 Q 428.149 174.753 428.149 178.624 Q 428.149 182.495 428.149 186.331 Q 427.636 189.848 424.384 190.82 Q 423.977 190.82 423.703 190.838 Q 423.429 190.856 422.245 190.856 Z M 422.599 187.374 Q 424.189 187.374 424.631 185.977 Q 424.631 182.318 424.631 178.677 Q 424.631 175.036 424.631 171.377 Q 424.419 170.723 424.154 170.299 Q 423.111 169.503 422.386 169.954 Q 421.662 170.405 421.344 171.377 Q 421.344 175.001 421.344 178.642 Q 421.344 182.283 421.344 185.906 Q 421.556 187.02 422.599 187.374 Z" style="visibility: hidden;"/>
    <path d="M 343.121 84.558 Q 343.193 84.558 343.242 84.612 Q 343.29 84.666 343.266 84.738 Q 342.761 87.189 341.031 88.51 Q 340.191 89.147 339.206 89.471 Q 338.221 89.795 337.08 89.795 Q 335.001 89.795 333.584 88.798 Q 332.191 87.813 331.566 86.636 Q 331.35 86.228 331.194 85.813 Q 331.038 85.399 330.954 84.942 Q 330.797 84.054 330.797 80.906 Q 330.797 79.333 330.833 78.336 Q 330.869 77.339 330.954 76.883 Q 331.038 76.426 331.194 76.006 Q 331.35 75.585 331.566 75.177 Q 332.191 74.012 333.584 73.015 Q 334.989 72.006 337.08 72.006 Q 339.578 72.006 341.212 73.543 Q 342.869 75.093 343.266 77.219 Q 343.29 77.291 343.242 77.339 Q 343.193 77.387 343.121 77.387 L 340.371 77.387 Q 340.263 77.387 340.239 77.291 Q 340.082 76.81 339.794 76.396 Q 339.506 75.982 339.085 75.621 Q 338.293 74.913 337.08 74.913 Q 336.179 74.913 335.542 75.273 Q 334.905 75.633 334.521 76.102 Q 334.293 76.39 334.125 76.756 Q 333.956 77.123 333.86 77.507 Q 333.764 77.916 333.728 78.768 Q 333.692 79.621 333.692 80.906 Q 333.692 82.216 333.728 83.063 Q 333.764 83.909 333.86 84.318 Q 333.956 84.69 334.131 85.057 Q 334.305 85.423 334.521 85.699 Q 334.905 86.204 335.542 86.558 Q 336.179 86.912 337.08 86.912 Q 339.158 86.912 340.239 84.642 Q 340.263 84.618 340.299 84.588 Q 340.335 84.558 340.371 84.558 Z M 348.154 89.651 Q 348.01 89.651 348.01 89.507 L 348.01 74.756 L 343.433 74.756 Q 343.289 74.756 343.289 74.612 L 343.289 72.294 Q 343.289 72.15 343.433 72.15 L 355.469 72.15 Q 355.613 72.15 355.613 72.294 L 355.613 74.612 Q 355.613 74.756 355.469 74.756 L 350.905 74.756 L 350.905 89.507 Q 350.905 89.651 350.76 89.651 Z M 355.976 89.651 Q 355.832 89.651 355.832 89.507 L 355.832 87.068 Q 355.832 86.924 355.976 86.924 L 358.426 86.924 Q 358.558 86.924 358.558 87.068 L 358.558 89.507 Q 358.558 89.651 358.426 89.651 Z M 366.928 77.327 Q 366.928 76.162 366.309 75.507 Q 365.691 74.853 364.658 74.853 Q 363.625 74.853 363.012 75.507 Q 362.399 76.162 362.399 77.327 L 362.399 84.594 Q 362.399 85.771 363.012 86.42 Q 363.625 87.068 364.658 87.068 Q 365.691 87.068 366.309 86.42 Q 366.928 85.771 366.928 84.594 Z M 359.661 77.183 Q 359.661 74.756 361.186 73.447 Q 362.7 72.114 364.658 72.114 Q 365.631 72.114 366.501 72.456 Q 367.372 72.799 368.129 73.447 Q 368.886 74.12 369.276 75.051 Q 369.666 75.982 369.666 77.183 L 369.666 84.738 Q 369.666 87.153 368.129 88.474 Q 366.616 89.795 364.658 89.795 Q 362.7 89.795 361.186 88.474 Q 359.661 87.165 359.661 84.738 Z M 374.699 89.687 Q 374.555 89.687 374.555 89.543 L 374.555 75.273 Q 374.003 75.681 373.45 76.096 Q 372.897 76.51 372.345 76.907 Q 372.261 76.967 372.189 76.925 Q 372.117 76.883 372.117 76.786 L 372.117 74.18 Q 372.117 74.156 372.135 74.12 Q 372.153 74.084 372.177 74.06 L 374.651 72.27 L 377.162 72.27 Q 377.306 72.27 377.306 72.414 L 377.306 89.543 Q 377.306 89.687 377.162 89.687 Z"/>
    <path d="M 395.707 174.374 Q 395.724 172.731 396.272 171.427 Q 396.819 170.124 397.815 169.194 Q 398.762 168.331 399.94 167.858 Q 401.119 167.385 402.414 167.385 Q 405.153 167.385 407.112 169.194 Q 409.088 171.021 409.138 174.391 L 409.138 184.85 Q 409.105 186.46 408.573 187.788 Q 408.042 189.116 407.112 190.029 Q 406.166 190.876 404.979 191.358 Q 403.792 191.839 402.414 191.872 Q 400.04 191.806 398.23 190.411 L 398.23 190.428 Q 397.284 189.697 396.695 188.676 Q 396.105 187.655 395.84 186.327 Q 395.807 186.244 395.865 186.178 Q 395.923 186.111 396.022 186.111 L 399.409 186.111 Q 399.525 186.111 399.592 186.244 Q 400.339 188.104 402.414 188.104 Q 405.353 188.087 405.469 184.667 L 405.469 182.692 Q 404.373 183.024 403.294 183.206 Q 402.215 183.389 401.269 183.356 Q 398.978 183.405 397.301 181.695 L 397.317 181.695 Q 395.674 180.052 395.707 176.566 Z M 399.393 176.532 Q 399.393 179.919 402.414 179.969 Q 405.369 179.919 405.469 176.532 L 405.469 174.59 Q 405.336 171.22 402.414 171.153 Q 399.409 171.236 399.393 174.59 Z M 422.168 174.573 Q 422.168 172.963 421.313 172.058 Q 420.458 171.153 419.03 171.153 Q 417.602 171.153 416.756 172.058 Q 415.909 172.963 415.909 174.573 L 415.909 184.617 Q 415.909 186.244 416.756 187.141 Q 417.602 188.037 419.03 188.037 Q 420.458 188.037 421.313 187.141 Q 422.168 186.244 422.168 184.617 Z M 412.124 174.374 Q 412.124 171.021 414.232 169.211 Q 416.324 167.368 419.03 167.368 Q 420.375 167.368 421.579 167.841 Q 422.782 168.315 423.828 169.211 Q 424.874 170.141 425.413 171.427 Q 425.953 172.714 425.953 174.374 L 425.953 184.817 Q 425.953 188.153 423.828 189.98 Q 421.736 191.806 419.03 191.806 Q 416.324 191.806 414.232 189.98 Q 412.124 188.17 412.124 184.817 Z"/>
    <path d="M 505.004 174.391 Q 505.021 172.731 505.569 171.427 Q 506.117 170.124 507.113 169.194 Q 508.059 168.331 509.238 167.858 Q 510.416 167.385 511.711 167.385 Q 514.069 167.385 515.978 168.796 Q 517.771 170.224 518.319 172.913 Q 518.352 173.013 518.286 173.079 Q 518.219 173.146 518.12 173.146 L 514.716 173.146 Q 514.583 173.146 514.534 173.029 Q 513.787 171.203 511.695 171.153 Q 508.69 171.236 508.69 174.607 L 508.69 176.566 Q 509.769 176.25 510.84 176.068 Q 511.911 175.885 512.874 175.902 Q 515.198 175.902 516.858 177.528 Q 518.452 179.205 518.435 182.692 L 518.435 184.85 Q 518.385 188.253 516.41 190.029 Q 514.55 191.789 511.711 191.872 Q 508.956 191.789 507.113 190.046 Q 505.021 188.22 505.004 184.866 Z M 508.69 184.667 Q 508.707 188.07 511.711 188.104 Q 514.65 188.087 514.766 184.667 L 514.766 182.725 Q 514.633 179.355 511.711 179.288 Q 508.707 179.371 508.69 182.725 Z M 531.135 174.573 Q 531.135 172.963 530.28 172.058 Q 529.425 171.153 527.997 171.153 Q 526.569 171.153 525.722 172.058 Q 524.876 172.963 524.876 174.573 L 524.876 184.617 Q 524.876 186.244 525.722 187.141 Q 526.569 188.037 527.997 188.037 Q 529.425 188.037 530.28 187.141 Q 531.135 186.244 531.135 184.617 Z M 521.091 174.374 Q 521.091 171.021 523.199 169.211 Q 525.291 167.368 527.997 167.368 Q 529.342 167.368 530.545 167.841 Q 531.749 168.315 532.795 169.211 Q 533.841 170.141 534.38 171.427 Q 534.92 172.714 534.92 174.374 L 534.92 184.817 Q 534.92 188.153 532.795 189.98 Q 530.703 191.806 527.997 191.806 Q 525.291 191.806 523.199 189.98 Q 521.091 188.17 521.091 184.817 Z" style="fill: rgb(255, 255, 255);"/>
  </g>
</svg>