<?xml version="1.0" encoding="utf-8"?>
<svg viewBox="0 0 323.14914 200" xmlns="http://www.w3.org/2000/svg">
  <g id="layer1" transform="matrix(0.9999999999999999, 0, 0, 0.9999999999999999, -303.4596862792969, -22.960700988769517)">
    <path id="rect15575" style="opacity:1;fill:#0a9646;fill-opacity:1;fill-rule:evenodd;stroke-width:0.0420687;stroke-linecap:square;stroke-miterlimit:10;paint-order:stroke fill markers" d="M 303.45966,22.960701 H 626.6088 V 222.9607 H 303.45966 Z"/>
    <path transform="matrix(0.26458333,0,0,0.26458333,303.45966,22.960701)" d="m 30.353516,5.0117188 c -13.808655,0 -25.0781254,11.2674112 -25.0781254,25.0761722 v 332.957029 47.1211 49.04296 13.88672 252.45508 c 0,13.80862 11.2694704,25.06641 25.0781254,25.06641 H 1190.9805 c 13.8086,0 25.0781,-11.25779 25.0781,-25.06641 V 473.0957 459.57031 401.94727 363.04492 30.087891 c 0,-13.808761 -11.2695,-25.0761722 -25.0781,-25.0761722 z m 0,9.4511722 H 1190.9805 c 8.7398,0 15.6425,6.885058 15.6425,15.625 v 332.957029 38.90235 c 0,0.29959 -0.013,0.61475 -0.037,0.9375 v 7.20703 c 0,8.68754 -6.9941,15.68164 -15.6816,15.68164 h -8.0762 c -0.1869,0.007 -0.3766,0.0176 -0.5586,0.0176 H 38.023438 c -0.18105,0 -0.371847,-0.0102 -0.560547,-0.0176 h -7.097657 c -8.687546,0 -15.68164,-6.9941 -15.68164,-15.68164 V 30.152344 c 0,-1.658433 0.257595,-3.253829 0.730468,-4.751953 0.01365,-0.04461 0.03284,-0.08643 0.04688,-0.13086 1.99686,-6.321925 7.84094,-10.80664 14.892578,-10.80664 z M 30.28125,435.30469 h 6.958984 1145.628866 8.1172 c 8.6414,0 15.5996,6.95633 15.5996,15.59765 v 7.5918 c 0.024,0.37296 0.037,0.7339 0.037,1.07617 v 13.52539 252.45508 c 0,5.47634 -2.7106,10.22208 -6.8847,13.00391 -2.4923,1.6862 -5.5034,2.66992 -8.752,2.66992 H 30.28125 c -8.641361,0 -15.597656,-6.9563 -15.597656,-15.59766 V 450.90234 c 0,-8.64132 6.956295,-15.59765 15.597656,-15.59765 z" style="color:#000000;font-style:normal;font-variant:normal;font-weight:normal;font-stretch:normal;font-size:medium;line-height:normal;font-family:sans-serif;font-variant-ligatures:normal;font-variant-position:normal;font-variant-caps:normal;font-variant-numeric:normal;font-variant-alternates:normal;font-variant-east-asian:normal;font-feature-settings:normal;font-variation-settings:normal;text-indent:0;text-align:start;text-decoration:none;text-decoration-line:none;text-decoration-style:solid;text-decoration-color:#000000;letter-spacing:normal;word-spacing:normal;text-transform:none;writing-mode:lr-tb;direction:ltr;text-orientation:mixed;dominant-baseline:auto;baseline-shift:baseline;text-anchor:start;white-space:normal;shape-padding:0;shape-margin:0;inline-size:0;clip-rule:nonzero;display:inline;overflow:visible;visibility:visible;opacity:1;isolation:auto;mix-blend-mode:normal;color-interpolation:sRGB;color-interpolation-filters:linearRGB;solid-color:#000000;solid-opacity:1;vector-effect:none;fill:#ffffff;fill-opacity:1;fill-rule:evenodd;stroke:none;stroke-width:2.09199;stroke-linecap:square;stroke-linejoin:miter;stroke-miterlimit:10;stroke-dasharray:none;stroke-dashoffset:0;stroke-opacity:1;paint-order:stroke fill markers;color-rendering:auto;image-rendering:auto;shape-rendering:auto;text-rendering:auto;enable-background:accumulate;stop-color:#000000;stop-opacity:1" id="path15582"/>
    <path d="m 324.12038,67.193614 h 60.89334 v 27.821331 h -60.89334 z" style="opacity:1;fill:#ffd70f;fill-opacity:1;fill-rule:evenodd;stroke:none;stroke-width:0.553508;stroke-linecap:square;stroke-miterlimit:10;stroke-dasharray:none;stroke-opacity:1;paint-order:stroke fill markers" id="rect15605"/>
    <path id="path15631" d="m 326.18273,67.759747 c -0.81115,0 -1.47443,0.660164 -1.47443,1.471307 v 23.746432 c 0,0.811142 0.66328,1.471323 1.47443,1.471323 h 56.7905 c 0.81117,0 1.4744,-0.660181 1.4744,-1.471323 V 69.231054 c 0,-0.811143 -0.66328,-1.471307 -1.4744,-1.471307 z m 0,0.535017 h 56.7905 c 0.52266,0 0.93627,0.413622 0.93627,0.93629 v 23.746432 c 0,0.522654 -0.41353,0.933189 -0.93627,0.933189 h -56.7905 c -0.52266,0 -0.93628,-0.410555 -0.93628,-0.933189 V 69.231054 c 0,-0.522672 0.41354,-0.93629 0.93628,-0.93629 z" style="color:#000000;font-style:normal;font-variant:normal;font-weight:normal;font-stretch:normal;font-size:medium;line-height:normal;font-family:sans-serif;font-variant-ligatures:normal;font-variant-position:normal;font-variant-caps:normal;font-variant-numeric:normal;font-variant-alternates:normal;font-variant-east-asian:normal;font-feature-settings:normal;font-variation-settings:normal;text-indent:0;text-align:start;text-decoration:none;text-decoration-line:none;text-decoration-style:solid;text-decoration-color:#000000;letter-spacing:normal;word-spacing:normal;text-transform:none;writing-mode:lr-tb;direction:ltr;text-orientation:mixed;dominant-baseline:auto;baseline-shift:baseline;text-anchor:start;white-space:normal;shape-padding:0;shape-margin:0;inline-size:0;clip-rule:nonzero;display:inline;overflow:visible;visibility:visible;opacity:1;isolation:auto;mix-blend-mode:normal;color-interpolation:sRGB;color-interpolation-filters:linearRGB;solid-color:#000000;solid-opacity:1;vector-effect:none;fill:#000000;fill-opacity:1;fill-rule:evenodd;stroke:none;stroke-width:0.119062;stroke-linecap:square;stroke-linejoin:miter;stroke-miterlimit:10;stroke-dasharray:none;stroke-dashoffset:0;stroke-opacity:1;paint-order:stroke fill markers;color-rendering:auto;image-rendering:auto;shape-rendering:auto;text-rendering:auto;enable-background:accumulate;stop-color:#000000;stop-opacity:1"/>
    <path id="path17496" style="font-size:15.1831px;line-height:1.46;font-family:'Singapore Road Signs';-inkscape-font-specification:'Singapore Road Signs';text-align:center;text-anchor:middle;opacity:1;fill:#ffffff;fill-opacity:1;stroke-width:0.0756548" d="m 570.47468,59.120043 v 50.614317 h 35.43541 V 59.120043 Z m 1.38203,1.660034 h 32.65274 v 47.566083 h -32.65274 z m 13.66823,3.646909 -2.23483,8.869719 h 3.92184 l 0.28216,-8.869719 z m 3.35329,0 0.28216,8.869719 h 3.92385 l -2.23686,-8.869719 z m -15.90932,9.992316 v 1.942234 l 3.06692,1.10806 v 0.584703 h 1.411 v -0.584703 c 0,0 2.08662,-0.313671 4.52568,-0.535349 1.95306,-0.177516 4.1317,-0.271988 5.64407,-0.278037 1.79866,-0.0063 4.45804,0.09363 6.73975,0.288436 2.51319,0.214479 4.5713,0.524984 4.5713,0.524984 v 0.5847 h 1.38199 v -0.5847 l 3.06685,-1.108064 v -1.942233 z m 9.21108,3.620663 -6.70448,26.681115 h 10.04943 l 1.39442,-26.681115 z m 7.25642,0 1.39441,26.681115 h 10.0494 l -6.70443,-26.681115 z"/>
    <g style="font-size:14.7905px;line-height:0;font-family:'Singapore Road Signs';-inkscape-font-specification:'Singapore Road Signs';text-align:center;text-anchor:middle;opacity:1;fill:#860000;fill-opacity:1;stroke-width:6.45213" id="layer1-8" transform="matrix(0.08718024,0,0,0.08718024,-145.22047,195.49013)">
      <circle style="opacity:1;fill:#f00a0a;fill-opacity:1;fill-rule:nonzero;stroke:none;stroke-width:3622.55;stroke-linecap:round;stroke-linejoin:round;stroke-miterlimit:4;stroke-dasharray:none;stroke-opacity:1;paint-order:stroke fill markers" id="path815" cx="6380.9966" cy="-193.29752" r="350"/>
      <circle cy="-193.29752" cx="6380.9966" id="circle817" style="opacity:1;fill:#ffffff;fill-opacity:1;fill-rule:nonzero;stroke:none;stroke-width:2587.55;stroke-linecap:round;stroke-linejoin:round;stroke-miterlimit:4;stroke-dasharray:none;stroke-opacity:1;paint-order:stroke fill markers" r="263.821"/>
      <g aria-label="20 " style="font-style:normal;font-variant:normal;font-weight:bold;font-stretch:normal;font-size:414.864px;line-height:0;font-family:Giaothong1;-inkscape-font-specification:'Giaothong1 Bold';letter-spacing:0px;word-spacing:0px;fill:#000000;fill-opacity:1;stroke:none;stroke-width:24.7849" id="text874" transform="matrix(-1,0,0,1,1299.029,-383.45)">
        <g aria-label="90" transform="translate(2310.2259,387.54849)" style="font-style:normal;font-variant:normal;font-weight:bold;font-stretch:normal;font-size:414.864px;line-height:0;font-family:Giaothong1;-inkscape-font-specification:'Giaothong1 Bold';letter-spacing:0px;word-spacing:0px;fill:#000000;fill-opacity:1;stroke:none;stroke-width:53.5539" id="text844"/>
      </g>
    </g>
    <g style="font-size:14.7905px;line-height:0;font-family:'Singapore Road Signs';-inkscape-font-specification:'Singapore Road Signs';text-align:center;text-anchor:middle;opacity:1;fill:#fff000;fill-opacity:1;stroke-width:6.45221" id="layer1-7" transform="matrix(0.08717968,0,0,0.08717968,488.77841,183.34565)">
      <circle cy="-54" cx="351" id="circle817-6" style="opacity:1;fill:#0046aa;fill-opacity:1;fill-rule:nonzero;stroke:none;stroke-width:3622.58;stroke-linecap:round;stroke-linejoin:round;stroke-miterlimit:4;stroke-dasharray:none;stroke-opacity:1;paint-order:stroke fill markers" r="350"/>
      <path id="rect984" style="font-style: normal; font-variant: normal; font-weight: bold; font-stretch: normal; font-size: 414.864px; line-height: 0; font-family: Giaothong1; letter-spacing: 0px; word-spacing: 0px; opacity: 1; fill: rgb(255, 255, 255); fill-opacity: 1; fill-rule: nonzero; stroke: none; stroke-width: 0.344279; stroke-linecap: round; stroke-linejoin: miter; stroke-miterlimit: 10; stroke-dasharray: none; stroke-opacity: 1; paint-order: stroke; visibility: hidden;" d="m 851.18164,518.03906 c -16.32678,0 -29.4707,13.14393 -29.4707,29.47071 v 80.94921 c 0,16.32678 13.14392,29.47071 29.4707,29.47071 16.32678,0 29.4707,-13.14393 29.4707,-29.47071 v -80.94921 c 0,-16.32678 -13.14392,-29.47071 -29.4707,-29.47071 z m -69.94336,1.23828 -26.10937,69.75391 c -2.72781,7.40406 -3.70118,11.30112 -3.70118,28.44727 0,18.12042 0.7789,22.01697 4.67579,28.25195 5.26075,8.37828 14.22308,13.44336 24.93945,13.44336 10.91123,0 20.0688,-4.87023 25.13476,-13.44336 3.70197,-6.23498 4.48047,-10.13153 4.48047,-28.25195 0,-22.01726 -0.77798,-26.88814 -4.28515,-32.34375 -3.31232,-5.06591 -9.74347,-8.96289 -16.75782,-8.96289 -4.28653,0 -7.01308,0.77773 -8.37695,1.75195 l -0.39062,-0.38867 22.60156,-58.25782 z m 69.94336,18.74024 c 5.25853,0 9.49219,4.23365 9.49219,9.49219 v 80.94921 c 0,5.25853 -4.23366,9.49219 -9.49219,9.49219 -5.25853,0 -9.49219,-4.23366 -9.49219,-9.49219 v -80.94921 c 0,-5.25854 4.23366,-9.49219 9.49219,-9.49219 z m -70.13867,55.68945 c 5.0659,0 9.74219,3.89738 9.74219,9.9375 v 25.71875 c 0,6.04012 -4.67629,9.9375 -9.74219,9.9375 -5.0659,0 -9.74219,-3.89738 -9.74219,-9.9375 v -25.71875 c 0,-6.04012 4.67629,-9.9375 9.74219,-9.9375 z" transform="matrix(3.0349198,0,0,3.0349198,-2125.7104,-1839.7056)"/>
    </g>
    <g aria-label="6" id="text19759" style="font-size:31.1478px;line-height:1.3;font-family:'Singapore Road Signs';-inkscape-font-specification:'Singapore Road Signs';text-align:center;text-anchor:middle;stroke-width:0.159861" transform="matrix(1.6550836,0,0,1.6550836,-321.31659,-238.56049)"/>
    <path d="M 357.399 46.797 Q 357.294 46.797 357.294 46.691 L 357.294 35.898 L 353.945 35.898 Q 353.84 35.898 353.84 35.793 L 353.84 34.097 Q 353.84 33.991 353.945 33.991 L 362.752 33.991 Q 362.857 33.991 362.857 34.097 L 362.857 35.793 Q 362.857 35.898 362.752 35.898 L 359.412 35.898 L 359.412 46.691 Q 359.412 46.797 359.307 46.797 Z M 363.91 34.097 Q 363.91 33.991 364.016 33.991 L 365.932 33.991 Q 366.029 33.991 366.029 34.097 L 366.029 42.218 Q 366.029 43.483 366.732 44.134 Q 367.444 44.793 368.498 44.793 Q 369.535 44.793 370.247 44.134 Q 370.959 43.475 370.959 42.218 L 370.959 34.097 Q 370.959 33.991 371.065 33.991 L 372.972 33.991 Q 373.077 33.991 373.077 34.097 L 373.077 42.429 Q 373.077 44.45 371.733 45.681 Q 370.406 46.902 368.498 46.902 Q 366.582 46.902 365.246 45.681 Q 363.91 44.45 363.91 42.429 Z M 378.086 46.797 Q 377.99 46.797 377.99 46.691 L 377.99 41.541 Q 377.041 39.686 376.1 37.841 Q 375.16 35.995 374.219 34.141 Q 374.193 34.079 374.219 34.035 Q 374.246 33.991 374.316 33.991 L 376.32 33.991 Q 376.346 33.991 376.373 34.013 Q 376.399 34.035 376.417 34.053 L 379 39.449 Q 379.651 38.087 380.288 36.751 Q 380.925 35.415 381.576 34.053 Q 381.593 34.035 381.62 34.013 Q 381.646 33.991 381.672 33.991 L 383.685 33.991 Q 383.755 33.991 383.782 34.035 Q 383.808 34.079 383.782 34.141 L 380.002 41.541 L 380.002 46.691 Q 380.002 46.797 379.897 46.797 Z M 385.197 46.797 Q 385.091 46.797 385.091 46.691 L 385.091 34.097 Q 385.091 33.991 385.197 33.991 L 393.248 33.991 Q 393.353 33.991 393.353 34.097 L 393.353 35.907 Q 393.353 36.013 393.248 36.013 L 387.21 36.013 L 387.21 39.388 L 392.342 39.388 Q 392.448 39.388 392.448 39.493 L 392.448 41.198 Q 392.448 41.295 392.342 41.295 L 387.21 41.295 L 387.21 44.793 L 393.248 44.793 Q 393.353 44.793 393.353 44.898 L 393.353 46.691 Q 393.353 46.797 393.248 46.797 Z M 386.093 32.857 Q 386.014 32.857 385.997 32.787 Q 385.979 32.717 386.032 32.673 L 388.616 30.625 L 389.802 30.625 L 392.421 32.673 Q 392.483 32.717 392.461 32.787 Q 392.439 32.857 392.36 32.857 L 390.883 32.857 L 389.126 31.908 Q 388.739 32.145 388.343 32.383 Q 387.948 32.62 387.561 32.857 Z M 395.2 46.797 Q 395.094 46.797 395.094 46.691 L 395.094 34.097 Q 395.094 33.991 395.2 33.991 L 397.01 33.991 Q 397.063 33.991 397.098 34.044 L 402.635 42.763 L 402.635 34.097 Q 402.635 33.991 402.741 33.991 L 404.657 33.991 Q 404.762 33.991 404.762 34.097 L 404.762 46.691 Q 404.762 46.797 404.657 46.797 L 402.855 46.797 Q 402.802 46.797 402.767 46.744 L 397.212 38.025 L 397.212 46.691 Q 397.212 46.797 397.116 46.797 Z M 415.289 43.255 Q 415.254 43.228 415.25 43.184 Q 415.246 43.141 415.272 43.105 L 416.406 41.805 Q 416.476 41.725 416.546 41.796 L 417.891 42.85 Q 417.961 42.508 417.992 41.91 Q 418.023 41.312 418.023 40.398 Q 418.023 39.44 417.988 38.821 Q 417.953 38.201 417.882 37.911 Q 417.812 37.63 417.689 37.362 Q 417.566 37.094 417.408 36.883 Q 417.276 36.716 417.087 36.558 Q 416.898 36.399 416.661 36.281 Q 416.423 36.162 416.142 36.087 Q 415.861 36.013 415.536 36.013 Q 414.885 36.013 414.415 36.276 Q 413.945 36.54 413.672 36.883 Q 413.496 37.094 413.378 37.362 Q 413.259 37.63 413.189 37.911 Q 413.057 38.509 413.057 40.398 Q 413.057 42.306 413.189 42.894 Q 413.259 43.167 413.382 43.435 Q 413.505 43.703 413.672 43.905 Q 413.945 44.274 414.415 44.534 Q 414.885 44.793 415.536 44.793 Q 416.247 44.793 416.784 44.441 Z M 420.185 47.052 Q 420.159 47.078 420.115 47.078 Q 420.071 47.078 420.036 47.052 L 418.515 45.848 Q 417.944 46.313 417.197 46.608 Q 416.45 46.902 415.536 46.902 Q 414.024 46.902 412.978 46.173 Q 411.976 45.452 411.501 44.591 L 411.51 44.591 Q 411.352 44.292 411.238 43.989 Q 411.123 43.685 411.062 43.351 Q 410.939 42.657 410.939 40.398 Q 410.939 39.247 410.97 38.517 Q 411 37.788 411.062 37.454 Q 411.123 37.12 411.238 36.812 Q 411.352 36.505 411.51 36.206 L 411.501 36.206 Q 411.73 35.784 412.099 35.389 Q 412.468 34.993 412.978 34.624 Q 414.015 33.886 415.536 33.886 Q 417.056 33.886 418.084 34.624 Q 419.104 35.371 419.579 36.206 Q 419.728 36.496 419.842 36.808 Q 419.956 37.12 420.018 37.454 Q 420.079 37.788 420.11 38.517 Q 420.141 39.247 420.141 40.398 Q 420.141 42.455 420.036 43.167 Q 419.992 43.501 419.908 43.787 Q 419.825 44.072 419.702 44.318 Q 420.097 44.626 420.501 44.955 Q 420.906 45.285 421.301 45.593 Q 421.336 45.619 421.345 45.663 Q 421.354 45.707 421.319 45.742 Z M 422.46 34.097 Q 422.46 33.991 422.565 33.991 L 424.481 33.991 Q 424.578 33.991 424.578 34.097 L 424.578 42.218 Q 424.578 43.483 425.281 44.134 Q 425.993 44.793 427.048 44.793 Q 428.085 44.793 428.797 44.134 Q 429.509 43.475 429.509 42.218 L 429.509 34.097 Q 429.509 33.991 429.614 33.991 L 431.521 33.991 Q 431.627 33.991 431.627 34.097 L 431.627 42.429 Q 431.627 44.45 430.282 45.681 Q 428.955 46.902 427.048 46.902 Q 425.132 46.902 423.796 45.681 Q 422.46 44.45 422.46 42.429 Z M 432.402 46.788 Q 432.34 46.788 432.314 46.744 Q 432.287 46.7 432.305 46.647 L 436.911 34.044 Q 436.928 33.974 436.998 33.974 L 438.572 33.974 Q 438.598 33.974 438.629 33.996 Q 438.66 34.017 438.668 34.044 L 443.265 46.647 Q 443.283 46.7 443.256 46.744 Q 443.23 46.788 443.177 46.788 L 441.164 46.788 Q 441.094 46.788 441.077 46.718 L 440.127 43.94 L 435.487 43.94 Q 435.241 44.652 434.999 45.333 Q 434.757 46.015 434.511 46.718 Q 434.502 46.744 434.472 46.766 Q 434.441 46.788 434.414 46.788 Z M 439.495 42.051 Q 439.477 41.989 439.446 41.919 Q 439.415 41.849 439.398 41.796 Q 439.248 41.365 439.125 41 Q 439.002 40.636 438.906 40.363 Q 438.844 40.187 438.787 40.02 Q 438.73 39.853 438.677 39.704 Q 438.633 39.563 438.589 39.436 Q 438.545 39.309 438.501 39.185 Q 438.422 38.931 438.339 38.676 Q 438.255 38.421 438.167 38.148 Q 438.123 38.025 438.075 37.876 Q 438.027 37.726 437.974 37.559 Q 437.948 37.472 437.934 37.423 Q 437.921 37.375 437.904 37.327 Q 437.886 37.278 437.864 37.217 Q 437.842 37.155 437.807 37.041 Q 437.71 37.331 437.627 37.577 Q 437.543 37.823 437.473 38.034 Q 437.455 38.087 437.447 38.131 Q 437.438 38.175 437.42 38.219 Q 437.376 38.368 437.328 38.5 Q 437.28 38.632 437.236 38.764 Q 437.192 38.904 437.148 39.036 Q 437.104 39.168 437.06 39.291 Q 436.972 39.555 436.88 39.845 Q 436.787 40.135 436.673 40.451 Q 436.559 40.767 436.436 41.132 Q 436.313 41.497 436.12 42.051 Z M 444.362 46.797 Q 444.257 46.797 444.257 46.691 L 444.257 34.097 Q 444.257 33.991 444.362 33.991 L 446.173 33.991 Q 446.225 33.991 446.261 34.044 L 451.798 42.763 L 451.798 34.097 Q 451.798 33.991 451.903 33.991 L 453.819 33.991 Q 453.925 33.991 453.925 34.097 L 453.925 46.691 Q 453.925 46.797 453.819 46.797 L 452.017 46.797 Q 451.965 46.797 451.93 46.744 L 446.375 38.025 L 446.375 46.691 Q 446.375 46.797 446.278 46.797 Z M 460.753 41.673 Q 460.648 41.673 460.648 41.567 L 460.648 39.757 Q 460.648 39.66 460.753 39.66 L 465.227 39.66 Q 465.332 39.66 465.332 39.757 L 465.332 42.323 Q 465.332 44.266 463.996 45.575 Q 462.643 46.902 460.735 46.902 Q 459.215 46.902 458.178 46.173 Q 457.158 45.452 456.701 44.591 L 456.71 44.591 Q 456.543 44.292 456.429 43.989 Q 456.315 43.685 456.253 43.351 Q 456.2 43.017 456.17 42.284 Q 456.139 41.55 456.139 40.398 Q 456.139 39.247 456.17 38.517 Q 456.2 37.788 456.253 37.454 Q 456.315 37.12 456.429 36.812 Q 456.543 36.505 456.71 36.206 L 456.701 36.206 Q 457.158 35.353 458.178 34.624 Q 459.206 33.886 460.735 33.886 Q 462.564 33.886 463.759 35.011 Q 464.972 36.136 465.262 37.7 Q 465.279 37.753 465.244 37.788 Q 465.209 37.823 465.156 37.823 L 463.144 37.823 Q 463.065 37.823 463.047 37.753 Q 462.933 37.401 462.722 37.098 Q 462.511 36.795 462.203 36.531 Q 461.623 36.013 460.735 36.013 Q 460.076 36.013 459.61 36.276 Q 459.145 36.54 458.863 36.883 Q 458.696 37.094 458.573 37.362 Q 458.45 37.63 458.38 37.911 Q 458.31 38.21 458.283 38.834 Q 458.257 39.458 458.257 40.398 Q 458.257 41.356 458.283 41.976 Q 458.31 42.596 458.38 42.894 Q 458.45 43.167 458.578 43.435 Q 458.705 43.703 458.863 43.905 Q 459.145 44.274 459.61 44.534 Q 460.076 44.793 460.735 44.793 Q 461.781 44.793 462.493 44.081 Q 463.214 43.369 463.214 42.218 L 463.214 41.673 Z" transform="matrix(1.310387, 0, 0, 1.310387, -59.698296, -1.169035)" style="fill: rgb(255, 255, 255); text-wrap-mode: nowrap;"/>
    <path transform="matrix(1.310387, 0, 0, 1.310387, -59.698296, -1.169035)" style="fill: rgb(255, 255, 255); text-wrap-mode: nowrap;"/>
    <path d="M 379.694 72.357 Q 379.588 72.357 379.588 72.251 L 379.588 66.855 L 374.798 66.855 L 374.798 72.251 Q 374.798 72.357 374.693 72.357 L 372.785 72.357 Q 372.68 72.357 372.68 72.251 L 372.68 59.657 Q 372.68 59.551 372.785 59.551 L 374.693 59.551 Q 374.798 59.551 374.798 59.657 L 374.798 64.948 L 379.588 64.948 L 379.588 59.657 Q 379.588 59.551 379.694 59.551 L 381.601 59.551 Q 381.706 59.551 381.706 59.657 L 381.706 72.251 Q 381.706 72.357 381.601 72.357 Z M 383.208 72.348 Q 383.146 72.348 383.12 72.304 Q 383.093 72.26 383.111 72.207 L 387.716 59.604 Q 387.734 59.534 387.804 59.534 L 389.378 59.534 Q 389.404 59.534 389.435 59.556 Q 389.465 59.577 389.474 59.604 L 394.071 72.207 Q 394.089 72.26 394.062 72.304 Q 394.036 72.348 393.983 72.348 L 391.97 72.348 Q 391.9 72.348 391.882 72.278 L 390.933 69.5 L 386.293 69.5 Q 386.047 70.212 385.805 70.893 Q 385.563 71.575 385.317 72.278 Q 385.308 72.304 385.277 72.326 Q 385.247 72.348 385.22 72.348 Z M 390.3 67.611 Q 390.283 67.549 390.252 67.479 Q 390.221 67.409 390.204 67.356 Q 390.054 66.925 389.931 66.56 Q 389.808 66.196 389.712 65.923 Q 389.65 65.747 389.593 65.58 Q 389.536 65.413 389.483 65.264 Q 389.439 65.123 389.395 64.996 Q 389.351 64.869 389.307 64.745 Q 389.228 64.491 389.145 64.236 Q 389.061 63.981 388.973 63.708 Q 388.929 63.585 388.881 63.436 Q 388.833 63.286 388.78 63.119 Q 388.754 63.032 388.74 62.983 Q 388.727 62.935 388.71 62.887 Q 388.692 62.838 388.67 62.777 Q 388.648 62.715 388.613 62.601 Q 388.516 62.891 388.433 63.137 Q 388.349 63.383 388.279 63.594 Q 388.261 63.647 388.253 63.691 Q 388.244 63.735 388.226 63.779 Q 388.182 63.928 388.134 64.06 Q 388.086 64.192 388.042 64.324 Q 387.998 64.464 387.954 64.596 Q 387.91 64.728 387.866 64.851 Q 387.778 65.115 387.686 65.405 Q 387.593 65.695 387.479 66.011 Q 387.365 66.327 387.242 66.692 Q 387.119 67.057 386.925 67.611 Z M 389.14 58.417 Q 389.123 58.417 389.096 58.404 Q 389.07 58.391 389.061 58.382 L 386.635 55.816 Q 386.583 55.763 386.613 55.702 Q 386.644 55.64 386.714 55.64 L 388.648 55.64 Q 388.701 55.64 388.736 55.693 L 390.573 58.259 Q 390.599 58.321 390.577 58.369 Q 390.555 58.417 390.485 58.417 Z M 404.063 67.233 Q 403.957 67.233 403.957 67.127 L 403.957 65.317 Q 403.957 65.22 404.063 65.22 L 408.536 65.22 Q 408.642 65.22 408.642 65.317 L 408.642 67.883 Q 408.642 69.826 407.306 71.135 Q 405.952 72.462 404.045 72.462 Q 402.525 72.462 401.487 71.733 Q 400.468 71.012 400.011 70.151 L 400.02 70.151 Q 399.853 69.852 399.738 69.549 Q 399.624 69.245 399.563 68.911 Q 399.51 68.577 399.479 67.844 Q 399.448 67.11 399.448 65.958 Q 399.448 64.807 399.479 64.077 Q 399.51 63.348 399.563 63.014 Q 399.624 62.68 399.738 62.372 Q 399.853 62.065 400.02 61.766 L 400.011 61.766 Q 400.468 60.913 401.487 60.184 Q 402.516 59.446 404.045 59.446 Q 405.873 59.446 407.069 60.571 Q 408.281 61.696 408.571 63.26 Q 408.589 63.313 408.554 63.348 Q 408.519 63.383 408.466 63.383 L 406.453 63.383 Q 406.374 63.383 406.357 63.313 Q 406.242 62.961 406.031 62.658 Q 405.82 62.355 405.513 62.091 Q 404.933 61.573 404.045 61.573 Q 403.386 61.573 402.92 61.836 Q 402.454 62.1 402.173 62.443 Q 402.006 62.654 401.883 62.922 Q 401.76 63.19 401.69 63.471 Q 401.619 63.77 401.593 64.394 Q 401.567 65.018 401.567 65.958 Q 401.567 66.916 401.593 67.536 Q 401.619 68.156 401.69 68.454 Q 401.76 68.727 401.887 68.995 Q 402.015 69.263 402.173 69.465 Q 402.454 69.834 402.92 70.094 Q 403.386 70.353 404.045 70.353 Q 405.091 70.353 405.803 69.641 Q 406.524 68.929 406.524 67.778 L 406.524 67.233 Z M 410.926 72.357 Q 410.82 72.357 410.82 72.251 L 410.82 59.657 Q 410.82 59.551 410.926 59.551 L 412.833 59.551 Q 412.938 59.551 412.938 59.657 L 412.938 72.251 Q 412.938 72.357 412.833 72.357 Z M 414.355 72.348 Q 414.293 72.348 414.267 72.304 Q 414.241 72.26 414.258 72.207 L 418.864 59.604 Q 418.881 59.534 418.951 59.534 L 420.525 59.534 Q 420.551 59.534 420.582 59.556 Q 420.613 59.577 420.621 59.604 L 425.218 72.207 Q 425.236 72.26 425.209 72.304 Q 425.183 72.348 425.13 72.348 L 423.117 72.348 Q 423.047 72.348 423.03 72.278 L 422.08 69.5 L 417.44 69.5 Q 417.194 70.212 416.952 70.893 Q 416.71 71.575 416.464 72.278 Q 416.455 72.304 416.425 72.326 Q 416.394 72.348 416.367 72.348 Z M 421.448 67.611 Q 421.43 67.549 421.399 67.479 Q 421.368 67.409 421.351 67.356 Q 421.201 66.925 421.078 66.56 Q 420.955 66.196 420.859 65.923 Q 420.797 65.747 420.74 65.58 Q 420.683 65.413 420.63 65.264 Q 420.586 65.123 420.542 64.996 Q 420.498 64.869 420.454 64.745 Q 420.375 64.491 420.292 64.236 Q 420.208 63.981 420.12 63.708 Q 420.076 63.585 420.028 63.436 Q 419.98 63.286 419.927 63.119 Q 419.901 63.032 419.888 62.983 Q 419.874 62.935 419.857 62.887 Q 419.839 62.838 419.817 62.777 Q 419.795 62.715 419.76 62.601 Q 419.663 62.891 419.58 63.137 Q 419.496 63.383 419.426 63.594 Q 419.409 63.647 419.4 63.691 Q 419.391 63.735 419.373 63.779 Q 419.329 63.928 419.281 64.06 Q 419.233 64.192 419.189 64.324 Q 419.145 64.464 419.101 64.596 Q 419.057 64.728 419.013 64.851 Q 418.925 65.115 418.833 65.405 Q 418.741 65.695 418.626 66.011 Q 418.512 66.327 418.389 66.692 Q 418.266 67.057 418.073 67.611 Z M 426.809 72.357 Q 426.703 72.357 426.703 72.251 L 426.703 59.657 Q 426.703 59.551 426.809 59.551 L 428.619 59.551 Q 428.672 59.551 428.707 59.604 L 434.244 68.323 L 434.244 59.657 Q 434.244 59.551 434.35 59.551 L 436.266 59.551 Q 436.371 59.551 436.371 59.657 L 436.371 72.251 Q 436.371 72.357 436.266 72.357 L 434.464 72.357 Q 434.411 72.357 434.376 72.304 L 428.821 63.585 L 428.821 72.251 Q 428.821 72.357 428.725 72.357 Z M 443.199 67.233 Q 443.094 67.233 443.094 67.127 L 443.094 65.317 Q 443.094 65.22 443.199 65.22 L 447.673 65.22 Q 447.779 65.22 447.779 65.317 L 447.779 67.883 Q 447.779 69.826 446.443 71.135 Q 445.089 72.462 443.182 72.462 Q 441.661 72.462 440.624 71.733 Q 439.605 71.012 439.148 70.151 L 439.156 70.151 Q 438.989 69.852 438.875 69.549 Q 438.761 69.245 438.699 68.911 Q 438.647 68.577 438.616 67.844 Q 438.585 67.11 438.585 65.958 Q 438.585 64.807 438.616 64.077 Q 438.647 63.348 438.699 63.014 Q 438.761 62.68 438.875 62.372 Q 438.989 62.065 439.156 61.766 L 439.148 61.766 Q 439.605 60.913 440.624 60.184 Q 441.653 59.446 443.182 59.446 Q 445.01 59.446 446.205 60.571 Q 447.418 61.696 447.708 63.26 Q 447.726 63.313 447.691 63.348 Q 447.655 63.383 447.603 63.383 L 445.59 63.383 Q 445.511 63.383 445.493 63.313 Q 445.379 62.961 445.168 62.658 Q 444.957 62.355 444.65 62.091 Q 444.07 61.573 443.182 61.573 Q 442.523 61.573 442.057 61.836 Q 441.591 62.1 441.31 62.443 Q 441.143 62.654 441.02 62.922 Q 440.897 63.19 440.826 63.471 Q 440.756 63.77 440.73 64.394 Q 440.703 65.018 440.703 65.958 Q 440.703 66.916 440.73 67.536 Q 440.756 68.156 440.826 68.454 Q 440.897 68.727 441.024 68.995 Q 441.152 69.263 441.31 69.465 Q 441.591 69.834 442.057 70.094 Q 442.523 70.353 443.182 70.353 Q 444.228 70.353 444.94 69.641 Q 445.66 68.929 445.66 67.778 L 445.66 67.233 Z" transform="matrix(1.310387, 0, 0, 1.310387, -59.698296, -1.169035)" style="fill: rgb(255, 255, 255); text-wrap-mode: nowrap;"/>
    <path d="M 426.152 119.118 Q 426.045 119.118 426.045 119.011 L 426.045 106.277 Q 426.045 106.17 426.152 106.17 L 434.292 106.17 Q 434.399 106.17 434.399 106.277 L 434.399 108.107 Q 434.399 108.214 434.292 108.214 L 428.187 108.214 L 428.187 111.626 L 433.377 111.626 Q 433.484 111.626 433.484 111.733 L 433.484 113.457 Q 433.484 113.555 433.377 113.555 L 428.187 113.555 L 428.187 117.092 L 434.292 117.092 Q 434.399 117.092 434.399 117.198 L 434.399 119.011 Q 434.399 119.118 434.292 119.118 Z M 442.571 119.118 Q 442.517 119.118 442.482 119.065 L 439.78 114.479 Q 439.105 115.634 438.429 116.772 Q 437.754 117.909 437.079 119.065 Q 437.043 119.118 436.99 119.118 L 434.813 119.118 Q 434.741 119.118 434.715 119.069 Q 434.688 119.02 434.724 118.958 L 438.589 112.48 Q 437.674 110.933 436.776 109.405 Q 435.879 107.876 434.972 106.33 Q 434.937 106.268 434.964 106.219 Q 434.99 106.17 435.052 106.17 L 437.239 106.17 Q 437.292 106.17 437.327 106.223 L 439.78 110.489 Q 440.393 109.422 441.007 108.361 Q 441.62 107.299 442.233 106.223 Q 442.268 106.17 442.322 106.17 L 444.508 106.17 Q 444.57 106.17 444.597 106.219 Q 444.623 106.268 444.588 106.33 L 440.971 112.48 Q 441.949 114.106 442.908 115.719 Q 443.868 117.332 444.846 118.958 Q 444.881 119.02 444.855 119.069 Q 444.828 119.118 444.757 119.118 Z M 448.15 108.214 L 448.15 112.106 L 450.914 112.106 Q 451.936 112.106 452.433 111.493 Q 452.94 110.898 452.94 110.16 Q 452.94 109.058 452.158 108.552 Q 451.651 108.214 450.843 108.214 Z M 446.115 119.118 Q 446.008 119.118 446.008 119.011 L 446.008 106.277 Q 446.008 106.17 446.115 106.17 L 450.736 106.17 Q 451.5 106.17 452.184 106.33 Q 452.878 106.49 453.66 107.094 Q 453.962 107.334 454.215 107.65 Q 454.468 107.965 454.673 108.347 Q 454.868 108.738 454.975 109.209 Q 455.081 109.68 455.081 110.213 Q 455.081 111.609 454.033 112.879 Q 452.984 114.141 450.985 114.141 L 448.15 114.141 L 448.15 119.011 Q 448.15 119.118 448.043 119.118 Z M 458.767 108.098 L 458.767 111.751 L 461.584 111.751 Q 462.615 111.751 463.13 111.182 Q 463.646 110.613 463.646 109.831 Q 463.646 109.387 463.49 109.04 Q 463.335 108.694 463.041 108.472 Q 462.784 108.294 462.441 108.196 Q 462.099 108.098 461.699 108.098 Z M 456.732 119.118 Q 456.625 119.118 456.625 119.011 L 456.625 106.277 Q 456.625 106.17 456.732 106.17 L 461.717 106.17 Q 462.544 106.17 463.21 106.397 Q 463.877 106.623 464.374 107.041 Q 464.632 107.281 464.868 107.587 Q 465.103 107.894 465.285 108.249 Q 465.467 108.605 465.574 109.005 Q 465.681 109.405 465.681 109.831 Q 465.681 110.462 465.503 111.027 Q 465.325 111.591 465.005 112.08 Q 464.676 112.533 464.241 112.875 Q 463.806 113.217 463.255 113.422 Q 463.974 114.799 464.703 116.19 Q 465.432 117.58 466.152 118.958 Q 466.178 119.02 466.152 119.069 Q 466.125 119.118 466.063 119.118 L 463.77 119.118 Q 463.743 119.118 463.717 119.096 Q 463.69 119.073 463.672 119.056 L 461.068 113.679 L 458.767 113.679 L 458.767 119.011 Q 458.767 119.118 458.66 119.118 Z M 467.661 119.118 Q 467.554 119.118 467.554 119.011 L 467.554 106.277 Q 467.554 106.17 467.661 106.17 L 475.801 106.17 Q 475.908 106.17 475.908 106.277 L 475.908 108.107 Q 475.908 108.214 475.801 108.214 L 469.696 108.214 L 469.696 111.626 L 474.886 111.626 Q 474.993 111.626 474.993 111.733 L 474.993 113.457 Q 474.993 113.555 474.886 113.555 L 469.696 113.555 L 469.696 117.092 L 475.801 117.092 Q 475.908 117.092 475.908 117.198 L 475.908 119.011 Q 475.908 119.118 475.801 119.118 Z M 477.686 115.848 Q 477.712 115.812 477.757 115.812 Q 477.801 115.812 477.837 115.839 Q 478.539 116.407 479.45 116.75 Q 480.36 117.092 481.374 117.092 Q 482.511 117.092 483.169 116.621 Q 483.791 116.167 483.791 115.421 Q 483.791 114.017 482.218 113.804 L 482.227 113.804 Q 482.005 113.777 481.805 113.75 Q 481.605 113.724 481.405 113.697 Q 481.205 113.67 480.996 113.639 Q 480.787 113.608 480.538 113.573 Q 479.703 113.457 479.05 113.15 Q 478.396 112.844 477.952 112.337 Q 477.508 111.822 477.286 111.213 Q 477.063 110.604 477.063 109.885 Q 477.063 108.196 478.183 107.139 Q 479.312 106.063 481.32 106.063 Q 481.916 106.063 482.48 106.165 Q 483.044 106.268 483.573 106.445 Q 484.102 106.623 484.586 106.868 Q 485.07 107.112 485.515 107.405 Q 485.604 107.467 485.541 107.556 L 484.466 109.147 Q 484.404 109.227 484.324 109.174 Q 483.631 108.738 482.849 108.476 Q 482.067 108.214 481.231 108.214 Q 480.805 108.214 480.44 108.316 Q 480.076 108.418 479.783 108.649 Q 479.205 109.067 479.205 109.92 Q 479.205 110.409 479.596 110.871 Q 479.792 111.084 480.121 111.231 Q 480.449 111.378 480.929 111.449 Q 481.187 111.493 481.534 111.542 Q 481.88 111.591 482.351 111.644 Q 484.173 111.866 485.053 112.986 Q 485.932 114.079 485.932 115.421 Q 485.932 117.216 484.679 118.229 Q 483.417 119.225 481.356 119.225 Q 478.45 119.225 476.415 117.447 Q 476.379 117.421 476.379 117.376 Q 476.379 117.332 476.406 117.296 Z M 487.955 115.848 Q 487.982 115.812 488.027 115.812 Q 488.071 115.812 488.107 115.839 Q 488.809 116.407 489.719 116.75 Q 490.63 117.092 491.643 117.092 Q 492.781 117.092 493.439 116.621 Q 494.061 116.167 494.061 115.421 Q 494.061 114.017 492.488 113.804 L 492.497 113.804 Q 492.274 113.777 492.074 113.75 Q 491.874 113.724 491.675 113.697 Q 491.475 113.67 491.266 113.639 Q 491.057 113.608 490.808 113.573 Q 489.973 113.457 489.32 113.15 Q 488.666 112.844 488.222 112.337 Q 487.778 111.822 487.556 111.213 Q 487.333 110.604 487.333 109.885 Q 487.333 108.196 488.453 107.139 Q 489.582 106.063 491.59 106.063 Q 492.186 106.063 492.75 106.165 Q 493.314 106.268 493.843 106.445 Q 494.372 106.623 494.856 106.868 Q 495.34 107.112 495.785 107.405 Q 495.873 107.467 495.811 107.556 L 494.736 109.147 Q 494.674 109.227 494.594 109.174 Q 493.901 108.738 493.119 108.476 Q 492.337 108.214 491.501 108.214 Q 491.075 108.214 490.71 108.316 Q 490.346 108.418 490.053 108.649 Q 489.475 109.067 489.475 109.92 Q 489.475 110.409 489.866 110.871 Q 490.062 111.084 490.39 111.231 Q 490.719 111.378 491.199 111.449 Q 491.457 111.493 491.803 111.542 Q 492.15 111.591 492.621 111.644 Q 494.443 111.866 495.323 112.986 Q 496.202 114.079 496.202 115.421 Q 496.202 117.216 494.949 118.229 Q 493.687 119.225 491.626 119.225 Q 488.72 119.225 486.685 117.447 Q 486.649 117.421 486.649 117.376 Q 486.649 117.332 486.676 117.296 Z M 500.211 119.118 Q 500.123 119.118 500.105 119.038 L 496.914 106.303 Q 496.897 106.25 496.932 106.21 Q 496.968 106.17 497.021 106.17 L 499.065 106.17 Q 499.154 106.17 499.172 106.25 L 501.091 114.95 Q 501.678 112.764 502.273 110.604 Q 502.869 108.445 503.464 106.25 Q 503.482 106.17 503.571 106.17 L 504.966 106.17 Q 505.046 106.17 505.064 106.25 L 507.445 114.95 Q 507.925 112.764 508.405 110.604 Q 508.885 108.445 509.365 106.25 Q 509.382 106.17 509.471 106.17 L 511.515 106.17 Q 511.569 106.17 511.604 106.21 Q 511.64 106.25 511.622 106.303 L 508.432 119.038 Q 508.414 119.118 508.325 119.118 L 506.716 119.118 Q 506.636 119.118 506.619 119.038 L 504.264 110.196 Q 503.677 112.426 503.091 114.621 Q 502.504 116.816 501.918 119.038 Q 501.9 119.118 501.82 119.118 Z M 511.536 119.109 Q 511.473 119.109 511.447 119.065 Q 511.42 119.02 511.438 118.967 L 516.095 106.223 Q 516.112 106.152 516.183 106.152 L 517.774 106.152 Q 517.801 106.152 517.832 106.174 Q 517.863 106.197 517.872 106.223 L 522.52 118.967 Q 522.537 119.02 522.511 119.065 Q 522.484 119.109 522.431 119.109 L 520.396 119.109 Q 520.325 119.109 520.307 119.038 L 519.347 116.23 L 514.655 116.23 Q 514.406 116.95 514.162 117.638 Q 513.917 118.327 513.668 119.038 Q 513.66 119.065 513.628 119.087 Q 513.597 119.109 513.571 119.109 Z M 518.707 114.319 Q 518.689 114.257 518.658 114.186 Q 518.627 114.115 518.609 114.061 Q 518.458 113.626 518.334 113.257 Q 518.21 112.888 518.112 112.613 Q 518.05 112.435 517.992 112.266 Q 517.934 112.097 517.881 111.946 Q 517.836 111.804 517.792 111.675 Q 517.747 111.546 517.703 111.422 Q 517.623 111.164 517.539 110.907 Q 517.454 110.649 517.365 110.373 Q 517.321 110.249 517.272 110.098 Q 517.223 109.947 517.17 109.778 Q 517.143 109.689 517.13 109.64 Q 517.117 109.591 517.099 109.542 Q 517.081 109.494 517.059 109.431 Q 517.037 109.369 517.001 109.254 Q 516.903 109.547 516.819 109.796 Q 516.734 110.045 516.663 110.258 Q 516.646 110.311 516.637 110.356 Q 516.628 110.4 516.61 110.444 Q 516.566 110.596 516.517 110.729 Q 516.468 110.862 516.423 110.995 Q 516.379 111.138 516.334 111.271 Q 516.29 111.404 516.246 111.529 Q 516.157 111.795 516.063 112.088 Q 515.97 112.382 515.855 112.702 Q 515.739 113.022 515.615 113.39 Q 515.49 113.759 515.295 114.319 Z M 525.5 119.118 Q 525.402 119.118 525.402 119.011 L 525.402 113.804 Q 524.443 111.929 523.492 110.062 Q 522.541 108.196 521.59 106.321 Q 521.563 106.259 521.59 106.214 Q 521.617 106.17 521.688 106.17 L 523.714 106.17 Q 523.741 106.17 523.767 106.192 Q 523.794 106.214 523.812 106.232 L 526.424 111.689 Q 527.082 110.311 527.726 108.96 Q 528.371 107.61 529.028 106.232 Q 529.046 106.214 529.073 106.192 Q 529.099 106.17 529.126 106.17 L 531.161 106.17 Q 531.232 106.17 531.259 106.214 Q 531.285 106.259 531.259 106.321 L 527.437 113.804 L 527.437 119.011 Q 527.437 119.118 527.331 119.118 Z" style="fill: rgb(255, 255, 255); text-wrap-mode: nowrap;"/>
    <path d="M 343.121 84.558 Q 343.193 84.558 343.241 84.612 Q 343.289 84.666 343.265 84.738 Q 342.76 87.189 341.031 88.51 Q 340.19 89.147 339.205 89.471 Q 338.22 89.795 337.079 89.795 Q 335.001 89.795 333.583 88.798 Q 332.19 87.813 331.565 86.636 Q 331.349 86.228 331.193 85.813 Q 331.037 85.399 330.953 84.942 Q 330.797 84.054 330.797 80.906 Q 330.797 79.333 330.833 78.336 Q 330.869 77.339 330.953 76.883 Q 331.037 76.426 331.193 76.006 Q 331.349 75.585 331.565 75.177 Q 332.19 74.012 333.583 73.015 Q 334.989 72.006 337.079 72.006 Q 339.577 72.006 341.211 73.543 Q 342.868 75.093 343.265 77.219 Q 343.289 77.291 343.241 77.339 Q 343.193 77.387 343.121 77.387 L 340.37 77.387 Q 340.262 77.387 340.238 77.291 Q 340.082 76.81 339.793 76.396 Q 339.505 75.982 339.085 75.621 Q 338.292 74.913 337.079 74.913 Q 336.178 74.913 335.541 75.273 Q 334.905 75.633 334.52 76.102 Q 334.292 76.39 334.124 76.756 Q 333.956 77.123 333.86 77.507 Q 333.763 77.916 333.727 78.768 Q 333.691 79.621 333.691 80.906 Q 333.691 82.216 333.727 83.063 Q 333.763 83.909 333.86 84.318 Q 333.956 84.69 334.13 85.057 Q 334.304 85.423 334.52 85.699 Q 334.905 86.204 335.541 86.558 Q 336.178 86.912 337.079 86.912 Q 339.157 86.912 340.238 84.642 Q 340.262 84.618 340.298 84.588 Q 340.334 84.558 340.37 84.558 Z M 348.151 89.651 Q 348.007 89.651 348.007 89.507 L 348.007 74.756 L 343.431 74.756 Q 343.287 74.756 343.287 74.612 L 343.287 72.294 Q 343.287 72.15 343.431 72.15 L 355.466 72.15 Q 355.611 72.15 355.611 72.294 L 355.611 74.612 Q 355.611 74.756 355.466 74.756 L 350.902 74.756 L 350.902 89.507 Q 350.902 89.651 350.758 89.651 Z M 355.977 89.651 Q 355.833 89.651 355.833 89.507 L 355.833 87.068 Q 355.833 86.924 355.977 86.924 L 358.427 86.924 Q 358.56 86.924 358.56 87.068 L 358.56 89.507 Q 358.56 89.651 358.427 89.651 Z M 362.89 89.687 Q 362.746 89.687 362.746 89.543 L 362.746 75.273 Q 362.194 75.681 361.641 76.096 Q 361.089 76.51 360.536 76.907 Q 360.452 76.967 360.38 76.925 Q 360.308 76.883 360.308 76.786 L 360.308 74.18 Q 360.308 74.156 360.326 74.12 Q 360.344 74.084 360.368 74.06 L 362.842 72.27 L 365.353 72.27 Q 365.497 72.27 365.497 72.414 L 365.497 89.543 Q 365.497 89.687 365.353 89.687 Z M 368.392 81.795 Q 368.26 81.795 368.26 81.663 L 368.26 72.414 Q 368.26 72.27 368.392 72.27 L 377.497 72.27 Q 377.641 72.27 377.641 72.414 L 377.641 74.865 Q 377.641 75.009 377.497 75.009 L 370.842 75.009 L 370.842 78.456 Q 372.007 77.639 373.437 77.639 Q 373.941 77.639 374.404 77.741 Q 374.866 77.843 375.274 78.036 Q 375.671 78.228 376.013 78.462 Q 376.355 78.696 376.596 78.949 Q 376.944 79.333 377.208 79.771 Q 377.473 80.21 377.641 80.666 Q 377.989 81.603 377.989 83.729 Q 377.989 84.594 377.923 85.243 Q 377.857 85.891 377.713 86.336 L 377.725 86.324 Q 377.473 87.153 376.896 87.909 Q 376.331 88.606 375.383 89.195 Q 374.386 89.795 373.076 89.795 Q 371.383 89.795 369.809 88.75 Q 368.2 87.669 367.935 85.231 Q 367.923 85.171 367.971 85.123 Q 368.019 85.075 368.079 85.075 L 370.53 85.075 Q 370.65 85.075 370.674 85.183 Q 371.094 87.068 372.98 87.068 Q 374.686 87.068 374.938 85.939 Q 375.25 84.69 375.25 83.537 Q 375.25 82.852 375.13 82.27 Q 375.01 81.687 374.782 81.231 Q 374.35 80.378 372.908 80.378 Q 371.587 80.378 370.83 81.723 Q 370.782 81.795 370.71 81.795 Z" style="text-wrap-mode: nowrap;"/>
    <path d="M 399.292 174.341 Q 399.292 175.935 400.255 176.732 Q 401.268 177.545 402.48 177.545 Q 403.692 177.545 404.688 176.732 Q 405.684 175.918 405.684 174.341 Q 405.684 172.797 404.688 171.984 Q 403.741 171.153 402.48 171.153 Q 401.251 171.153 400.255 171.984 Q 399.292 172.78 399.292 174.341 Z M 395.092 184.518 Q 395.092 182.808 395.764 181.48 Q 396.437 180.152 397.748 179.189 Q 396.736 178.242 396.121 177.097 Q 395.507 175.951 395.507 174.407 Q 395.507 171.469 397.499 169.427 Q 399.541 167.368 402.48 167.368 Q 405.435 167.368 407.444 169.427 Q 409.469 171.502 409.469 174.407 Q 409.469 175.171 409.303 175.835 Q 409.137 176.499 408.838 177.089 Q 408.539 177.678 408.124 178.201 Q 407.709 178.724 407.228 179.189 Q 409.884 181.098 409.884 184.518 Q 409.884 186.111 409.328 187.44 Q 408.772 188.768 407.676 189.797 Q 406.597 190.76 405.285 191.283 Q 403.974 191.806 402.48 191.806 Q 399.442 191.806 397.283 189.797 Q 395.092 187.738 395.092 184.518 Z M 398.861 184.485 Q 398.861 185.248 399.151 185.896 Q 399.442 186.543 399.94 187.025 Q 401.052 188.037 402.48 188.037 Q 403.907 188.037 405.02 187.025 Q 405.551 186.527 405.833 185.887 Q 406.115 185.248 406.115 184.485 Q 406.115 182.941 405.02 181.944 Q 403.941 180.915 402.48 180.915 Q 401.052 180.915 399.94 181.944 Q 398.861 182.941 398.861 184.485 Z M 421.935 174.573 Q 421.935 172.963 421.081 172.058 Q 420.226 171.153 418.798 171.153 Q 417.37 171.153 416.523 172.058 Q 415.677 172.963 415.677 174.573 L 415.677 184.617 Q 415.677 186.244 416.523 187.141 Q 417.37 188.037 418.798 188.037 Q 420.226 188.037 421.081 187.141 Q 421.935 186.244 421.935 184.617 Z M 411.892 174.374 Q 411.892 171.021 414 169.211 Q 416.092 167.368 418.798 167.368 Q 420.143 167.368 421.346 167.841 Q 422.55 168.315 423.596 169.211 Q 424.642 170.141 425.181 171.427 Q 425.721 172.714 425.721 174.374 L 425.721 184.817 Q 425.721 188.153 423.596 189.98 Q 421.504 191.806 418.798 191.806 Q 416.092 191.806 414 189.98 Q 411.892 188.17 411.892 184.817 Z" style="text-wrap-mode: nowrap;"/>
    <path d="M 505.003 174.391 Q 505.02 172.731 505.568 171.427 Q 506.116 170.124 507.112 169.194 Q 508.058 168.331 509.237 167.858 Q 510.415 167.385 511.71 167.385 Q 514.068 167.385 515.977 168.796 Q 517.77 170.224 518.318 172.913 Q 518.351 173.013 518.285 173.079 Q 518.218 173.146 518.119 173.146 L 514.715 173.146 Q 514.582 173.146 514.533 173.029 Q 513.786 171.203 511.694 171.153 Q 508.689 171.236 508.689 174.607 L 508.689 176.566 Q 509.768 176.25 510.839 176.068 Q 511.91 175.885 512.873 175.902 Q 515.197 175.902 516.857 177.528 Q 518.451 179.205 518.434 182.692 L 518.434 184.85 Q 518.384 188.253 516.409 190.029 Q 514.549 191.789 511.71 191.872 Q 508.955 191.789 507.112 190.046 Q 505.02 188.22 505.003 184.866 Z M 508.689 184.667 Q 508.706 188.07 511.71 188.104 Q 514.649 188.087 514.765 184.667 L 514.765 182.725 Q 514.632 179.355 511.71 179.288 Q 508.706 179.371 508.689 182.725 Z M 531.13 174.573 Q 531.13 172.963 530.275 172.058 Q 529.42 171.153 527.993 171.153 Q 526.565 171.153 525.718 172.058 Q 524.872 172.963 524.872 174.573 L 524.872 184.617 Q 524.872 186.244 525.718 187.141 Q 526.565 188.037 527.993 188.037 Q 529.42 188.037 530.275 187.141 Q 531.13 186.244 531.13 184.617 Z M 521.086 174.374 Q 521.086 171.021 523.195 169.211 Q 525.287 167.368 527.993 167.368 Q 529.337 167.368 530.541 167.841 Q 531.745 168.315 532.791 169.211 Q 533.836 170.141 534.376 171.427 Q 534.916 172.714 534.916 174.374 L 534.916 184.817 Q 534.916 188.153 532.791 189.98 Q 530.699 191.806 527.993 191.806 Q 525.287 191.806 523.195 189.98 Q 521.086 188.17 521.086 184.817 Z" style="fill: rgb(255, 255, 255); text-wrap-mode: nowrap;"/>
  </g>
</svg>