<?xml version="1.0" encoding="utf-8"?>
<!-- Generator: Adobe Illustrator 21.0.0, SVG Export Plug-In . SVG Version: 6.00 Build 0)  -->
<svg version="1.1" id="Layer_1" xmlns="http://www.w3.org/2000/svg" xmlns:xlink="http://www.w3.org/1999/xlink" x="0px" y="0px"
	 viewBox="0 0 122 57" style="enable-background:new 0 0 122 57;" xml:space="preserve">
<style type="text/css">
	.st0{fill:#FFFFFF;stroke:#000000;stroke-width:2;stroke-miterlimit:10;}
	.st1{enable-background:new    ;}
</style>
<path class="st0" d="M119,56H3c-1.1,0-2-0.9-2-2V3c0-1.1,0.9-2,2-2h116c1.1,0,2,0.9,2,2v51C121,55.1,120.1,56,119,56z"/>
<g class="st1">
	<path d="M19.6,44.6c-1.2,0.8-2.8,1.1-4.8,1.1c-7,0-10-5.4-10-17.3s3.1-17.3,10-17.3c7,0,10,5.4,10,17.3c0,6.2-1,10.8-2.4,13.2
		l3.1,3.6l-2.9,2.8L19.6,44.6z M17.1,35.9l2,2.2c0.7-2,1-5.1,1-9.8c0-11.2-2.3-13.1-5.2-13.1c-2.9,0-5.2,2-5.2,13.1
		c0,11.5,2.3,13.4,5.2,13.4c0.6,0,1.2-0.1,1.7-0.3L14.3,39L17.1,35.9z"/>
	<path d="M28.6,11.8h4.8v28.8h11.7v4.5H28.6V11.8z"/>
	<path d="M48.2,39H53v6.2h-4.8V39z"/>
	<path d="M56.6,33.1l10.4-21h4.9v21.3h3.3v4.2h-3.3v7.4h-4.6v-7.4H56.6V33.1z M67.3,19.9L67.3,19.9l-6.8,13.6h6.8V19.9z"/>
	<path d="M77.2,35.9c0-4.9,2.2-7.6,5.1-8.2v-0.1c-2.6-1-4.2-3.2-4.2-7.1c0-5.1,3.1-8.3,8.1-8.3s8.1,3.2,8.1,8.3c0,4-1.6,6.2-4.2,7.1
		v0.1c3,0.7,5.1,3.4,5.1,8.2c0,6.5-2.9,9.9-9.1,9.9S77.2,42.4,77.2,35.9z M86.2,42c3.4,0,4.2-2.8,4.2-6.2c0-3.5-0.8-6.2-4.2-6.2
		S82,32.3,82,35.8C82,39.2,82.8,42,86.2,42z M86.2,25.8c3,0,3.8-2.4,3.8-5c0-2.6-0.8-4.9-3.8-4.9s-3.8,2.3-3.8,4.9
		C82.5,23.4,83.2,25.8,86.2,25.8z"/>
	<path d="M117.6,33.2v0.7c0,6-2.2,11.9-9.3,11.9c-7.6,0-10-5.4-10-17.3s2.4-17.3,10.1-17.3c8.6,0,9.1,7,9.1,10.4v0.6h-4.8v-0.6
		c0-3.1-0.8-6.6-4.3-6.5c-3.6,0-5.2,2.4-5.2,13.1s1.6,13.4,5.2,13.4c4,0,4.5-4.9,4.5-8v-0.6H117.6z"/>
</g>
</svg>
