<?xml version="1.0" encoding="UTF-8" standalone="no"?>
<svg
   xmlns:dc="http://purl.org/dc/elements/1.1/"
   xmlns:cc="http://creativecommons.org/ns#"
   xmlns:rdf="http://www.w3.org/1999/02/22-rdf-syntax-ns#"
   xmlns:svg="http://www.w3.org/2000/svg"
   xmlns="http://www.w3.org/2000/svg"
   xmlns:sodipodi="http://sodipodi.sourceforge.net/DTD/sodipodi-0.dtd"
   xmlns:inkscape="http://www.inkscape.org/namespaces/inkscape"
   sodipodi:docname="Vietnam_road_sign_IE450b.svg"
   inkscape:version="1.0 (4035a4fb49, 2020-05-01)"
   id="svg9491"
   version="1.1"
   viewBox="0 0 332.03382 200"
   height="200mm"
   width="332.03381mm">
  <defs
     id="defs9485">
    <clipPath
       id="clipPath2832">
      <path
         inkscape:connector-curvature="0"
         id="path2834"
         d="M -0.24,595.138 H 317.24 V -0.138 H -0.24 Z" />
    </clipPath>
    <clipPath
       id="clipPath2840">
      <path
         inkscape:connector-curvature="0"
         id="path2842"
         d="M 0.03,595.32 H 317.49 V 0 H 0.03 Z" />
    </clipPath>
    <clipPath
       id="clipPath2858">
      <path
         inkscape:connector-curvature="0"
         id="path2860"
         d="M -0.24,595.138 H 317.24 V -0.138 H -0.24 Z" />
    </clipPath>
    <clipPath
       id="clipPath2864">
      <path
         inkscape:connector-curvature="0"
         id="path2866"
         d="M 0.03,595.32 H 317.49 V 0 H 0.03 Z" />
    </clipPath>
    <clipPath
       id="clipPath3306">
      <path
         inkscape:connector-curvature="0"
         id="path3308"
         d="m 199.238,472.977 v -29.74 h 29.744 v 29.74" />
    </clipPath>
    <clipPath
       id="clipPath3322">
      <path
         inkscape:connector-curvature="0"
         id="path3324"
         d="M -0.24,595.138 H 317.24 V -0.138 H -0.24 Z" />
    </clipPath>
    <clipPath
       id="clipPath3330">
      <path
         inkscape:connector-curvature="0"
         id="path3332"
         d="M 0.03,595.32 H 317.49 V 0 H 0.03 Z" />
    </clipPath>
    <clipPath
       id="clipPath3344">
      <path
         inkscape:connector-curvature="0"
         id="path3346"
         d="m 88.233,387.221 v -28.335 h 32.08 v 28.335" />
    </clipPath>
    <clipPath
       id="clipPath3462">
      <path
         inkscape:connector-curvature="0"
         id="path3464"
         d="M -0.24,595.138 H 317.24 V -0.138 H -0.24 Z" />
    </clipPath>
    <clipPath
       id="clipPath3470">
      <path
         inkscape:connector-curvature="0"
         id="path3472"
         d="M 0.03,595.32 H 317.49 V 0 H 0.03 Z" />
    </clipPath>
    <clipPath
       id="clipPath3490">
      <path
         inkscape:connector-curvature="0"
         id="path3492"
         d="M -0.24,595.138 H 317.24 V -0.138 H -0.24 Z" />
    </clipPath>
    <clipPath
       id="clipPath3496">
      <path
         inkscape:connector-curvature="0"
         id="path3498"
         d="M 0.03,595.32 H 317.49 V 0 H 0.03 Z" />
    </clipPath>
    <clipPath
       id="clipPath3520">
      <path
         inkscape:connector-curvature="0"
         id="path3522"
         d="m 254.788,326.215 v -28.309 h 28.326 v 28.309" />
    </clipPath>
    <clipPath
       id="clipPath3544">
      <path
         inkscape:connector-curvature="0"
         id="path3546"
         d="m 145.049,326.142 v -28.333 h 28.342 v 28.333" />
    </clipPath>
    <clipPath
       id="clipPath3682">
      <path
         inkscape:connector-curvature="0"
         id="path3684"
         d="M -0.24,595.138 H 317.24 V -0.138 H -0.24 Z" />
    </clipPath>
    <clipPath
       id="clipPath3690">
      <path
         inkscape:connector-curvature="0"
         id="path3692"
         d="M 0.03,595.32 H 317.49 V 0 H 0.03 Z" />
    </clipPath>
    <clipPath
       id="clipPath3980">
      <path
         inkscape:connector-curvature="0"
         id="path3982"
         d="M -0.24,595.138 H 317.24 V -0.138 H -0.24 Z" />
    </clipPath>
    <clipPath
       id="clipPath3988">
      <path
         inkscape:connector-curvature="0"
         id="path3990"
         d="M 0.03,595.32 H 317.49 V 0 H 0.03 Z" />
    </clipPath>
    <clipPath
       id="clipPath4010">
      <path
         inkscape:connector-curvature="0"
         id="path4012"
         d="M -0.24,595.138 H 317.24 V -0.138 H -0.24 Z" />
    </clipPath>
    <clipPath
       id="clipPath4016">
      <path
         inkscape:connector-curvature="0"
         id="path4018"
         d="M 0.03,595.32 H 317.49 V 0 H 0.03 Z" />
    </clipPath>
    <clipPath
       id="clipPath4062">
      <path
         inkscape:connector-curvature="0"
         id="path4064"
         d="m 200.163,177.773 v -28.284 h 28.283 v 28.284" />
    </clipPath>
    <clipPath
       id="clipPath4090">
      <path
         inkscape:connector-curvature="0"
         id="path4092"
         d="m 34.886,177.515 v -51.632 h 30.367 v 51.632" />
    </clipPath>
    <clipPath
       id="clipPath4106">
      <path
         inkscape:connector-curvature="0"
         id="path4108"
         d="m 34.886,177.515 v -51.632 h 30.367 v 51.632" />
    </clipPath>
    <clipPath
       id="clipPath4272">
      <path
         inkscape:connector-curvature="0"
         id="path4274"
         d="m 34.886,177.515 v -51.632 h 30.367 v 51.632" />
    </clipPath>
    <clipPath
       id="clipPath4304">
      <path
         inkscape:connector-curvature="0"
         id="path4306"
         d="m 254.653,176.442 v -48.167 h 28.317 v 48.167" />
    </clipPath>
    <clipPath
       id="clipPath4310">
      <path
         inkscape:connector-curvature="0"
         id="path4312"
         d="m 253.565,177.983 h 31.181 V 128.8 h -31.181 z" />
    </clipPath>
    <clipPath
       id="clipPath4316">
      <path
         inkscape:connector-curvature="0"
         id="path4318"
         d="M -0.24,595.138 H 317.24 V -0.138 H -0.24 Z" />
    </clipPath>
    <clipPath
       id="clipPath4322">
      <path
         inkscape:connector-curvature="0"
         id="path4324"
         d="M 0.03,595.32 H 317.49 V 0 H 0.03 Z" />
    </clipPath>
    <clipPath
       id="clipPath4456">
      <path
         inkscape:connector-curvature="0"
         id="path4458"
         d="M -0.24,595.138 H 317.24 V -0.138 H -0.24 Z" />
    </clipPath>
    <clipPath
       id="clipPath4464">
      <path
         inkscape:connector-curvature="0"
         id="path4466"
         d="M 0.03,595.32 H 317.49 V 0 H 0.03 Z" />
    </clipPath>
  </defs>
  <sodipodi:namedview
     inkscape:document-rotation="0"
     inkscape:measure-end="0,0"
     inkscape:measure-start="0,0"
     inkscape:window-maximized="1"
     inkscape:window-y="-9"
     inkscape:window-x="-9"
     inkscape:window-height="1001"
     inkscape:window-width="1920"
     showgrid="false"
     inkscape:current-layer="layer1"
     inkscape:document-units="mm"
     inkscape:cy="433.45936"
     inkscape:cx="430.76725"
     inkscape:zoom="0.74929012"
     inkscape:pageshadow="2"
     inkscape:pageopacity="0.0"
     borderopacity="1.0"
     bordercolor="#666666"
     pagecolor="#ffffff"
     id="base" />
  <metadata
     id="metadata9488">
    <rdf:RDF>
      <cc:Work
         rdf:about="">
        <dc:format>image/svg+xml</dc:format>
        <dc:type
           rdf:resource="http://purl.org/dc/dcmitype/StillImage" />
        <dc:title></dc:title>
      </cc:Work>
    </rdf:RDF>
  </metadata>
  <g
     transform="translate(-950.35709,-69.53089)"
     id="layer1"
     inkscape:groupmode="layer"
     inkscape:label="Layer 1">
    <g
       transform="matrix(1.6550836,0,0,1.6550836,-321.31659,-238.56049)"
       style="font-size:31.1478px;line-height:1.3;font-family:'Singapore Road Signs';-inkscape-font-specification:'Singapore Road Signs';text-align:center;text-anchor:middle;stroke-width:0.159861"
       id="text19759"
       aria-label="6" />
    <path
       sodipodi:nodetypes="ccccc"
       d="m 950.35709,69.53089 v 200 h 332.03381 v -200 z"
       style="font-size:15.1831px;line-height:1.46;font-family:'Singapore Road Signs';-inkscape-font-specification:'Singapore Road Signs';text-align:center;text-anchor:middle;opacity:1;fill:#0046aa;fill-opacity:1;fill-rule:evenodd;stroke-width:0.0420691;stroke-linecap:square;stroke-miterlimit:10;paint-order:stroke fill markers"
       id="path14281-8" />
    <path
       sodipodi:nodetypes="scccccssssccccsssccssccccccccscsssccscccc"
       d="m 958.38829,70.85708 c -3.6539,0 -6.6358,2.98095 -6.6358,6.63449 v 88.0948 12.46746 12.97603 3.6742 66.79549 c 0,3.65358 2.9819,6.63193 6.6358,6.63193 h 315.96731 c 3.6534,0 6.6349,-2.97835 6.6349,-6.63193 v -66.79549 -3.57876 -15.24566 -10.29327 -88.0948 c 0,-3.65358 -2.9815,-6.63449 -6.6349,-6.63449 z m 0,2.49916 v 0.001 h 315.96731 c 2.3125,0 4.1413,1.82139 4.1384,4.13382 v 88.0948 10.29327 0.2473 1.90698 10.79773 2.00862 0.28503 3.5788 66.79549 c 0,1.44891 -0.7168,2.70443 -1.8213,3.44048 -0.6593,0.44615 -1.4566,0.7062 -2.3159,0.7062 H 958.37149 c -2.2865,0 -4.1267,-1.8402 -4.1267,-4.1266 V 188.83122 178.03349 77.50817 c 0,-0.43882 0.067,-0.86071 0.1928,-1.25711 0,-0.0126 0,-0.0251 0,-0.0377 0.5286,-1.67262 2.0749,-2.85918 3.9406,-2.85918 z"
       style="color:#000000;font-style:normal;font-variant:normal;font-weight:normal;font-stretch:normal;font-size:medium;line-height:normal;font-family:sans-serif;-inkscape-font-specification:'Singapore Road Signs';font-variant-ligatures:normal;font-variant-position:normal;font-variant-caps:normal;font-variant-numeric:normal;font-variant-alternates:normal;font-variant-east-asian:normal;font-feature-settings:normal;font-variation-settings:normal;text-indent:0;text-align:start;text-decoration:none;text-decoration-line:none;text-decoration-style:solid;text-decoration-color:#000000;letter-spacing:normal;word-spacing:normal;text-transform:none;writing-mode:lr-tb;direction:ltr;text-orientation:mixed;dominant-baseline:auto;baseline-shift:baseline;text-anchor:start;white-space:normal;shape-padding:0;shape-margin:0;inline-size:0;clip-rule:nonzero;display:inline;overflow:visible;visibility:visible;opacity:1;isolation:auto;mix-blend-mode:normal;color-interpolation:sRGB;color-interpolation-filters:linearRGB;solid-color:#000000;solid-opacity:1;vector-effect:none;fill:#ffffff;fill-opacity:1;fill-rule:evenodd;stroke:none;stroke-width:0.553507;stroke-linecap:square;stroke-linejoin:miter;stroke-miterlimit:10;stroke-dasharray:none;stroke-dashoffset:0;stroke-opacity:1;paint-order:stroke fill markers;color-rendering:auto;image-rendering:auto;shape-rendering:auto;text-rendering:auto;enable-background:accumulate;stop-color:#000000;stop-opacity:1"
       id="path14283-3" />
    <path
       id="rect15605-9"
       style="opacity:1;fill:#ffd70f;fill-opacity:1;fill-rule:evenodd;stroke:none;stroke-width:0.553507;stroke-linecap:square;stroke-miterlimit:10;stroke-dasharray:none;stroke-opacity:1;paint-order:stroke fill markers"
       d="m 1045.0507,170.35773 h 61.1809 v 27.95279 h -61.1809 z"
       sodipodi:nodetypes="ccccc" />
    <path
       style="color:#000000;font-style:normal;font-variant:normal;font-weight:normal;font-stretch:normal;font-size:medium;line-height:normal;font-family:sans-serif;font-variant-ligatures:normal;font-variant-position:normal;font-variant-caps:normal;font-variant-numeric:normal;font-variant-alternates:normal;font-variant-east-asian:normal;font-feature-settings:normal;font-variation-settings:normal;text-indent:0;text-align:start;text-decoration:none;text-decoration-line:none;text-decoration-style:solid;text-decoration-color:#000000;letter-spacing:normal;word-spacing:normal;text-transform:none;writing-mode:lr-tb;direction:ltr;text-orientation:mixed;dominant-baseline:auto;baseline-shift:baseline;text-anchor:start;white-space:normal;shape-padding:0;shape-margin:0;inline-size:0;clip-rule:nonzero;display:inline;overflow:visible;visibility:visible;opacity:1;isolation:auto;mix-blend-mode:normal;color-interpolation:sRGB;color-interpolation-filters:linearRGB;solid-color:#000000;solid-opacity:1;vector-effect:none;fill:#000000;fill-opacity:1;fill-rule:evenodd;stroke:none;stroke-width:0.119062;stroke-linecap:square;stroke-linejoin:miter;stroke-miterlimit:10;stroke-dasharray:none;stroke-dashoffset:0;stroke-opacity:1;paint-order:stroke fill markers;color-rendering:auto;image-rendering:auto;shape-rendering:auto;text-rendering:auto;enable-background:accumulate;stop-color:#000000;stop-opacity:1"
       d="m 1047.1227,170.92649 c -0.8149,0 -1.4814,0.66328 -1.4814,1.47826 v 23.85867 c 0,0.81498 0.6665,1.47826 1.4814,1.47826 h 57.0587 c 0.8153,0 1.4818,-0.66328 1.4818,-1.47826 v -23.85867 c 0,-0.81498 -0.6665,-1.47826 -1.4818,-1.47826 z m 0,0.53753 h 57.0587 c 0.5253,0 0.9411,0.41539 0.9411,0.94073 v 23.85867 c 0,0.52513 -0.415,0.93758 -0.9411,0.93758 h -57.0587 c -0.5252,0 -0.9406,-0.41245 -0.9406,-0.93758 v -23.85867 c 0,-0.52513 0.4149,-0.94073 0.9406,-0.94073 z"
       id="path15631-2"
       sodipodi:nodetypes="ssssssssssssssssss" />
    <path
       id="path15637-7"
       style="font-style:normal;font-variant:normal;font-weight:normal;font-stretch:normal;font-size:15.1831px;line-height:1.46;font-family:'Alte DIN 1451 Mittelschrift gepraegt';-inkscape-font-specification:'Alte DIN 1451 Mittelschrift gepraegt';text-align:center;text-anchor:middle;opacity:1;fill:#000000;fill-opacity:1;stroke-width:0.264583"
       d="m 1057.88,175.39337 c -1.3761,0 -2.5275,0.33156 -3.4526,0.99622 -0.9176,0.65637 -1.5811,1.36823 -1.9923,2.13534 -0.1425,0.26868 -0.2641,0.54126 -0.3688,0.81803 -0.1006,0.27707 -0.1803,0.56675 -0.239,0.86733 -0.054,0.30054 -0.096,0.77805 -0.1173,1.43445 0,0.6565 -0.042,1.50257 -0.042,2.53857 0,2.07209 0.05,3.39953 0.1551,3.98476 0.054,0.30054 0.1342,0.59052 0.2348,0.86729 0.1006,0.26868 0.2263,0.53749 0.3688,0.80634 0.4108,0.77507 1.0748,1.48689 1.9923,2.13538 0.9331,0.6564 2.0845,0.98444 3.4526,0.98444 0.7516,0 1.452,-0.10731 2.1005,-0.32108 0.6484,-0.21335 1.2486,-0.52781 1.8024,-0.94697 1.1388,-0.86993 1.8736,-2.11358 2.2056,-3.72689 0,-0.0469 0,-0.0855 -0.042,-0.11736 -0.042,-0.0377 -0.071,-0.0587 -0.1174,-0.0587 h -2.7166 c 0,0 -0.05,0.008 -0.071,0.0335 0,0.0168 -0.046,0.0293 -0.059,0.0465 -0.7118,1.49465 -1.7517,2.2431 -3.1198,2.2431 -0.5932,0 -1.0999,-0.11527 -1.5191,-0.34455 -0.4191,-0.23724 -0.7549,-0.5234 -1.0081,-0.85551 -0.1425,-0.18191 -0.2724,-0.39107 -0.3898,-0.62823 -0.109,-0.24479 -0.197,-0.49084 -0.2599,-0.73597 -0.063,-0.26868 -0.109,-0.67938 -0.1299,-1.23296 0,-0.56151 -0.042,-1.27333 -0.042,-2.13534 0,-0.84624 0,-1.55043 0.042,-2.11198 0.042,-0.56151 0.067,-0.97573 0.1299,-1.24462 0.063,-0.25317 0.1509,-0.49872 0.2599,-0.73605 0.109,-0.24479 0.2431,-0.46179 0.3898,-0.65158 0.2515,-0.30851 0.589,-0.58314 1.0081,-0.82043 0.4192,-0.23725 0.9259,-0.35377 1.5191,-0.35377 0.7985,0 1.4586,0.23179 1.9805,0.69853 0.2766,0.23725 0.5109,0.49432 0.7008,0.77117 0.1887,0.26869 0.3354,0.56269 0.4381,0.87903 0,0.0629 0.059,0.0935 0.1299,0.0935 h 2.717 c 0.046,0 0.084,-0.0168 0.1174,-0.0465 0.042,-0.0293 0.042,-0.0725 0,-0.11946 -0.2599,-1.39983 -0.9364,-2.60827 -2.0275,-3.62851 -1.076,-1.01232 -2.4362,-1.51887 -4.081,-1.51887 z m 27.8655,0.10563 c -1.2894,0 -2.4329,0.43945 -3.4296,1.3173 -1.0043,0.86209 -1.5069,2.09191 -1.5069,3.68946 v 7.46091 c 0,1.59755 0.5026,2.82737 1.5069,3.68941 0.9967,0.86997 2.1402,1.30561 3.4296,1.30561 1.2889,0 2.4328,-0.43564 3.4291,-1.30561 1.0123,-0.86997 1.5165,-2.09979 1.5165,-3.68941 v -7.46091 c 0,-0.79088 -0.1299,-1.49121 -0.3898,-2.10017 -0.2515,-0.61692 -0.6266,-1.14636 -1.125,-1.58929 -0.4984,-0.427 -1.0378,-0.75127 -1.615,-0.97271 -0.5693,-0.22928 -1.1737,-0.34455 -1.8142,-0.34455 z m -21.2226,0.0335 c -0.096,0 -0.1425,0.0482 -0.1425,0.14335 v 2.29009 c 0,0.0947 0.046,0.14294 0.1425,0.14294 h 4.519 v 14.56783 c 0,0.0947 0.046,0.14042 0.1425,0.14042 h 2.5741 c 0.096,0 0.1425,-0.0457 0.1425,-0.14042 v -14.56783 h 4.5072 c 0.096,0 0.1425,-0.0482 0.1425,-0.14294 v -2.29013 c 0,-0.0947 -0.05,-0.14293 -0.1425,-0.14293 z m 31.3742,0.11946 -2.4445,1.76735 c 0,0.0168 -0.042,0.0335 -0.046,0.0587 0,0.021 0,0.0448 0,0.0608 v 2.57369 c 0,0.0629 0.042,0.11108 0.071,0.14293 0.046,0.0251 0.1006,0.0168 0.1551,-0.021 0.3647,-0.26114 0.726,-0.52572 1.0898,-0.79461 0.3647,-0.27706 0.7285,-0.55149 1.0924,-0.82042 v 14.09443 c 0,0.0947 0.046,0.14293 0.1425,0.14293 h 2.4307 c 0.096,0 0.1425,-0.0482 0.1425,-0.14293 v -16.91661 c 0,-0.0947 -0.046,-0.14293 -0.1425,-0.14293 z m -10.1516,2.55026 c 0.6798,0 1.221,0.21923 1.6242,0.65394 0.4108,0.42708 0.6166,1.02372 0.6166,1.79082 v 7.17731 c 0,0.77503 -0.2054,1.37543 -0.6166,1.80252 -0.4024,0.42708 -0.9444,0.63993 -1.6242,0.63993 -0.6803,0 -1.2211,-0.21251 -1.6243,-0.63993 -0.4024,-0.42709 -0.6074,-1.02749 -0.6074,-1.80252 v -7.17731 c 0,-0.7671 0.2054,-1.36374 0.6074,-1.79078 0.4024,-0.43501 0.944,-0.65398 1.6243,-0.65398 z m -10.0322,11.9215 c -0.096,0 -0.1426,0.0482 -0.1426,0.14336 v 2.40963 c 0,0.0947 0.046,0.14042 0.1426,0.14042 h 2.4189 c 0.088,0 0.13,-0.0461 0.13,-0.14042 v -2.40963 c 0,-0.0947 -0.046,-0.14336 -0.13,-0.14336 z"
       sodipodi:nodetypes="ccccccsccccsccccssccscccccscccccscccsscccccccsscscssccccccssscsssscssscccccssccccsssssccscsscsssscssssssssss" />
    <path
       d="m 968.53239,120.84595 h 61.18121 v 27.95279 h -61.18121 z"
       style="opacity:1;fill:#ffffff;fill-opacity:1;fill-rule:evenodd;stroke:none;stroke-width:0.553507;stroke-linecap:square;stroke-miterlimit:10;stroke-dasharray:none;stroke-opacity:1;paint-order:stroke fill markers"
       id="path14336-2"
       sodipodi:nodetypes="ccccc" />
    <path
       id="path14338-5"
       d="m 970.60469,121.41475 c -0.8153,0 -1.4813,0.66328 -1.4813,1.4783 v 23.85863 c 0,0.81502 0.666,1.47826 1.4813,1.47826 h 57.05881 c 0.8149,0 1.4813,-0.66324 1.4813,-1.47826 v -23.85863 c 0,-0.81502 -0.6664,-1.4783 -1.4813,-1.4783 z m 0,0.53758 h 57.05881 c 0.5252,0 0.9406,0.41538 0.9406,0.94072 v 23.85863 c 0,0.52509 -0.415,0.93763 -0.9406,0.93763 h -57.05881 c -0.5252,0 -0.941,-0.41246 -0.941,-0.93763 v -23.85863 c 0,-0.52517 0.415,-0.94072 0.941,-0.94072 z"
       style="color:#000000;font-style:normal;font-variant:normal;font-weight:normal;font-stretch:normal;font-size:medium;line-height:normal;font-family:sans-serif;font-variant-ligatures:normal;font-variant-position:normal;font-variant-caps:normal;font-variant-numeric:normal;font-variant-alternates:normal;font-variant-east-asian:normal;font-feature-settings:normal;font-variation-settings:normal;text-indent:0;text-align:start;text-decoration:none;text-decoration-line:none;text-decoration-style:solid;text-decoration-color:#000000;letter-spacing:normal;word-spacing:normal;text-transform:none;writing-mode:lr-tb;direction:ltr;text-orientation:mixed;dominant-baseline:auto;baseline-shift:baseline;text-anchor:start;white-space:normal;shape-padding:0;shape-margin:0;inline-size:0;clip-rule:nonzero;display:inline;overflow:visible;visibility:visible;opacity:1;isolation:auto;mix-blend-mode:normal;color-interpolation:sRGB;color-interpolation-filters:linearRGB;solid-color:#000000;solid-opacity:1;vector-effect:none;fill:#000000;fill-opacity:1;fill-rule:evenodd;stroke:none;stroke-width:0.119062;stroke-linecap:square;stroke-linejoin:miter;stroke-miterlimit:10;stroke-dasharray:none;stroke-dashoffset:0;stroke-opacity:1;paint-order:stroke fill markers;color-rendering:auto;image-rendering:auto;shape-rendering:auto;text-rendering:auto;enable-background:accumulate;stop-color:#000000;stop-opacity:1"
       sodipodi:nodetypes="ssssssssssssssssss" />
    <path
       id="path14348-7"
       style="font-style:normal;font-variant:normal;font-weight:normal;font-stretch:normal;font-size:14.1395px;line-height:1.3;font-family:'Alte DIN 1451 Mittelschrift gepraegt';-inkscape-font-specification:'Alte DIN 1451 Mittelschrift gepraegt';text-align:center;text-anchor:middle;opacity:1;stroke-width:0.264583"
       d="m 1003.1514,126.38932 c -1.1104,0 -2.0506,0.47055 -2.8218,1.41316 -0.75291,0.93507 -1.12971,2.0764 -1.12971,3.42195 0,0.70704 0.1174,1.32162 0.3479,1.8462 0.2306,0.52454 0.53821,1.00397 0.92051,1.43734 -0.49541,0.44088 -0.87231,0.96546 -1.12961,1.57358 -0.2515,0.6082 -0.3773,1.30489 -0.3773,2.08793 0,1.47482 0.415,2.68146 1.24201,3.62415 0.8153,0.91985 1.7969,1.38017 2.945,1.38017 0.5646,0 1.0957,-0.1182 1.5912,-0.35377 0.4954,-0.24311 0.9481,-0.58544 1.3559,-1.02636 0.415,-0.4713 0.7227,-1.00938 0.9297,-1.61758 0.2138,-0.60812 0.3228,-1.27677 0.3228,-2.00653 0,-1.56607 -0.5017,-2.78734 -1.5056,-3.66154 0.1802,-0.21252 0.3521,-0.4369 0.508,-0.67255 0.1551,-0.24311 0.2934,-0.49876 0.4066,-0.7648 0.1132,-0.27329 0.2012,-0.56184 0.2641,-0.86595 0.063,-0.30431 0.096,-0.6305 0.096,-0.98021 0,-1.33033 -0.3815,-2.47171 -1.1473,-3.42195 -0.7591,-0.94265 -1.6988,-1.41316 -2.8155,-1.41316 z m 8.7516,0 c -0.9787,0 -1.838,0.44125 -2.5782,1.32308 -0.7528,0.89701 -1.159,1.92697 -1.2219,3.0901 0,0.0377 0,0.0704 0,0.10144 0.042,0.0293 0.055,0.0465 0.084,0.0465 h 1.9273 c 0,0 0.042,-0.008 0.059,-0.0335 0.042,-0.0209 0.042,-0.0511 0.046,-0.0813 0.092,-0.61579 0.3144,-1.07398 0.6594,-1.37804 0.3437,-0.31186 0.705,-0.46812 1.0814,-0.46812 0.5143,0 0.9524,0.21755 1.3099,0.65058 0.3563,0.43329 0.5361,0.95221 0.5361,1.56041 0,0.64614 -0.1719,1.16733 -0.5185,1.56264 -0.3521,0.41036 -0.8312,0.61533 -1.4394,0.61533 h -0.6593 c -0.075,0 -0.1132,0.0474 -0.1132,0.13874 v 2.03956 c 0,0.0914 0.042,0.13874 0.1132,0.13874 h 0.8106 c 0.521,0 0.9788,0.2209 1.3736,0.66156 0.3898,0.41791 0.5826,1.01358 0.5826,1.78898 0,0.77541 -0.1928,1.37309 -0.5826,1.79121 -0.394,0.43333 -0.8404,0.64836 -1.3363,0.64836 -0.264,0 -0.4958,-0.0423 -0.6966,-0.12575 -0.1928,-0.0838 -0.3689,-0.20162 -0.5185,-0.35378 -0.1509,-0.1597 -0.2809,-0.34538 -0.394,-0.55823 -0.1048,-0.21252 -0.2012,-0.45262 -0.2851,-0.71866 -0.042,-0.0612 -0.059,-0.0901 -0.1048,-0.0901 h -1.9185 c -0.088,0 -0.1257,0.0486 -0.1131,0.14713 0.088,0.707 0.2431,1.32379 0.4703,1.84829 0.2305,0.52458 0.5377,0.97258 0.9142,1.34505 0.3814,0.36467 0.7792,0.63956 1.1933,0.82198 0.4204,0.18233 0.8656,0.27245 1.3363,0.27245 1.1795,0 2.1679,-0.46032 2.9647,-1.38017 0.8094,-0.94266 1.2131,-2.18425 1.2131,-3.72748 0,-0.67657 -0.1258,-1.34178 -0.3773,-1.99559 -0.2431,-0.60816 -0.6166,-1.12926 -1.1183,-1.56263 0.2389,-0.21252 0.4439,-0.44025 0.6195,-0.68353 0.1761,-0.24311 0.3144,-0.50211 0.415,-0.77578 0.2054,-0.61575 0.3102,-1.24613 0.3102,-1.89231 0,-0.59299 -0.096,-1.16812 -0.2934,-1.72309 -0.1887,-0.56255 -0.4599,-1.08365 -0.8174,-1.56263 -0.3772,-0.48648 -0.8123,-0.85459 -1.3078,-1.10546 -0.4891,-0.25107 -1.0399,-0.37598 -1.6481,-0.37598 z m 9.7669,0 c -1.0227,0 -1.9281,0.4223 -2.7187,1.26595 -0.7968,0.8286 -1.1954,2.00942 -1.1954,3.54502 v 7.17357 c 0,1.53556 0.3982,2.71868 1.1954,3.54724 0.7906,0.83623 1.696,1.2527 2.7187,1.2527 1.0223,0 1.9303,-0.41622 2.7208,-1.2527 0.8031,-0.83623 1.2042,-2.01923 1.2042,-3.54724 v -7.17357 c 0,-0.76019 -0.1047,-1.43224 -0.3101,-2.0176 -0.2012,-0.59294 -0.4972,-1.10172 -0.892,-1.52742 -0.394,-0.41036 -0.8237,-0.72339 -1.2814,-0.93628 -0.4518,-0.22048 -0.9314,-0.32946 -1.4398,-0.32946 z m -48.03461,0.0335 c -0.075,0 -0.1132,0.0453 -0.1132,0.13623 v 6.92526 h -1.8045 c -0.063,0 -0.1132,0.0499 -0.1132,0.11234 v 2.42413 c 0,0.0625 0.05,0.11443 0.1132,0.11443 h 1.8041 v 6.76481 c 0,0.0914 0.042,0.13874 0.1131,0.13874 h 4.5915 c 0.9972,0 1.8636,-0.26784 2.5976,-0.80001 0.7214,-0.53217 1.2847,-1.18845 1.6926,-1.9714 v 0.0126 c 0.1634,-0.29634 0.2934,-0.59361 0.394,-0.89013 0.1006,-0.30389 0.176,-0.61478 0.2263,-0.93406 0.1048,-0.63096 0.1593,-1.87134 0.1593,-3.71863 0,-1.72569 -0.042,-2.89071 -0.1132,-3.49891 -0.042,-0.31186 -0.109,-0.63134 -0.2138,-0.9582 -0.1089,-0.32695 -0.2473,-0.67246 -0.4149,-1.03734 -0.9159,-1.87772 -2.3138,-2.81757 -4.1958,-2.81757 z m 10.7447,0 c -0.075,0 -0.1131,0.0474 -0.1131,0.13874 v 2.20006 c 0,0.0914 0.042,0.13622 0.1131,0.13622 h 3.5847 v 14.00428 c 0,0.0914 0.042,0.1358 0.1132,0.1358 h 2.0417 c 0.075,0 0.1132,-0.0453 0.1132,-0.1358 v -14.00428 h 3.5759 c 0.075,0 0.1131,-0.0448 0.1131,-0.13622 v -2.20006 c 0,-0.0909 -0.042,-0.13874 -0.1131,-0.13874 z m 18.77141,2.56707 c 0.4765,0 0.8953,0.18904 1.2528,0.56922 0.3773,0.37264 0.5646,0.91277 0.5646,1.61977 0,0.72217 -0.1886,1.26922 -0.5646,1.64173 -0.3772,0.37263 -0.7951,0.5582 -1.2528,0.5582 -0.4582,0 -0.8769,-0.18569 -1.2592,-0.5582 -0.3647,-0.36509 -0.5474,-0.91193 -0.5474,-1.64173 0,-0.71463 0.1844,-1.25493 0.5474,-1.61977 0.3772,-0.38018 0.7947,-0.56922 1.2592,-0.56922 z m 18.5185,0 c 0.5395,0 0.97,0.20833 1.2902,0.62631 0.3269,0.41036 0.49,0.9857 0.49,1.72313 v 6.89882 c 0,0.74501 -0.1635,1.32136 -0.49,1.73189 -0.3186,0.41036 -0.7507,0.61755 -1.2902,0.61755 -0.5394,0 -0.9678,-0.20707 -1.2881,-0.61755 -0.3185,-0.41036 -0.4812,-0.98688 -0.4812,-1.73189 v -6.89882 c 0,-0.73743 0.1635,-1.31256 0.4812,-1.72313 0.3186,-0.4179 0.7487,-0.62631 1.2881,-0.62631 z m -45.88101,0.0549 h 2.3427 c 1.0102,0 1.781,0.43786 2.3142,1.3121 0.2557,0.43329 0.4192,0.91617 0.4816,1.44829 0.042,0.2888 0.054,0.6795 0.075,1.17361 0,0.49415 0.042,1.11099 0.042,1.84834 0,0.76023 0,1.38721 -0.042,1.88132 0,0.48652 -0.042,0.85123 -0.067,1.09451 -0.059,0.44096 -0.1886,0.86302 -0.394,1.26596 -0.5269,0.91222 -1.33,1.36919 -2.4089,1.36919 h -2.3427 v -4.30324 h 1.6879 c 0.063,0 0.1132,-0.0516 0.1132,-0.11443 v -2.42418 c 0,-0.0625 -0.05,-0.11234 -0.1132,-0.11234 h -1.6879 z m 27.36251,6.6505 c 0.552,0 1.034,0.23431 1.4419,0.70549 0.4149,0.45609 0.6195,1.03802 0.6195,1.74502 0,0.34958 -0.054,0.67275 -0.1593,0.96922 -0.1048,0.28881 -0.2599,0.54776 -0.4594,0.77583 -0.42,0.46368 -0.902,0.69669 -1.4415,0.69669 -0.5394,0 -1.0194,-0.23306 -1.4398,-0.69669 -0.1886,-0.22048 -0.3395,-0.47935 -0.4502,-0.77583 -0.1048,-0.29634 -0.1593,-0.61952 -0.1593,-0.96922 0,-0.707 0.2054,-1.28893 0.6108,-1.74502 0.4204,-0.47134 0.8999,-0.70549 1.4394,-0.70549 z m -7.86601,4.7538 c -0.075,0 -0.1132,0.0453 -0.1132,0.13623 v 2.31649 c 0,0.0914 0.042,0.13581 0.1132,0.13581 h 1.921 c 0.067,0 0.1048,-0.0453 0.1048,-0.13581 v -2.31641 c 0,-0.0914 -0.042,-0.13623 -0.1048,-0.13623 z"
       sodipodi:nodetypes="ccssccscscccscccsscccccccsscccscscsssssscscsccccssccccscsccscscccccccsscscssccccccscsssscssscccccscscccsssscsssscsssssscscscscsscsscscsscscscccscccsccssssccccsccsccsccccsssssscc" />
    <rect
       style="font-size:14.1395px;line-height:1.3;font-family:'Singapore Road Signs';-inkscape-font-specification:'Singapore Road Signs';text-align:center;text-anchor:middle;opacity:1;fill:#0a9646;fill-opacity:1;fill-rule:evenodd;stroke-width:0.119061;stroke-linecap:square;stroke-miterlimit:10;paint-order:stroke fill markers"
       id="rect3177-9-2"
       width="35.295326"
       height="50.414215"
       x="1174.4073"
       y="92.868767"
       ry="0.97484648"
       rx="0.97484648" />
    <path
       sodipodi:nodetypes="ccccccccccccccccccccccccccscsccccccccccccccccc"
       id="path2226-7-7"
       style="font-size:15.1831px;line-height:1.46;font-family:'Singapore Road Signs';-inkscape-font-specification:'Singapore Road Signs';text-align:center;text-anchor:middle;opacity:1;fill:#ffffff;fill-opacity:1;stroke-width:0.0756549"
       d="m 1174.4074,92.8688 v 50.4142 h 35.2955 V 92.8688 Z m 1.3756,1.37573 32.5442,1.3e-4 v 47.66248 l -32.5442,-1.3e-4 z m 13.6152,3.91023 -2.2257,8.83467 h 3.9062 l 0.2808,-8.83467 z m 3.3399,0 0.2809,8.83467 h 3.9086 l -2.2282,-8.83467 z m -15.846,9.95279 v 1.93455 l 3.0545,1.1037 v 0.58242 h 1.4054 v -0.58242 c 0,0 2.0786,-0.31228 4.5081,-0.53322 1.9453,-0.17689 4.1153,-0.27078 5.6214,-0.27707 1.7919,-0.008 4.4406,0.0931 6.7133,0.28755 2.5032,0.21335 4.5533,0.5229 4.5533,0.5229 v 0.58234 h 1.3765 v -0.58234 l 3.0545,-1.10369 v -1.93456 z m 9.1746,3.60638 -6.678,26.57564 h 10.0095 l 1.3891,-26.57564 z m 7.2277,0 1.3886,26.57564 h 10.01 l -6.6781,-26.57564 z" />
    <path
       id="path8884-4"
       style="opacity:1;fill:#ffffff;fill-opacity:1;fill-rule:evenodd;stroke-width:0.119062;stroke-linecap:square;stroke-miterlimit:10;paint-order:stroke fill markers"
       d="m 993.95999,83.65203 -2.7141,0.001 c -0.05,0 -0.088,0.021 -0.1215,0.0725 l -2.5737,3.59774 c -0.042,0.0583 -0.042,0.11108 0,0.16054 0.042,0.0423 0.067,0.0616 0.1341,0.0616 h 1.8858 c 0,0 0.042,-0.008 0.063,-0.0126 0.042,-0.0168 0.042,-0.0251 0.046,-0.0335 l 3.4019,-3.59775 c 0.05,-0.0499 0.059,-0.10269 0.042,-0.16053 -0.042,-0.0562 -0.071,-0.088 -0.1342,-0.088 z m 42.88571,0 c -0.067,0 -0.109,0.0293 -0.1342,0.088 -0.042,0.0578 -0.042,0.11108 0.042,0.16054 l 3.4024,3.59775 c 0,0.008 0.042,0.0168 0.046,0.0335 0.042,0.003 0.046,0.0126 0.063,0.0126 h 1.8833 c 0.067,0 0.1089,-0.021 0.1341,-0.0616 0.042,-0.0495 0,-0.1027 0,-0.16054 l -2.5737,-3.59779 c -0.042,-0.0499 -0.075,-0.0721 -0.1215,-0.0721 z m -38.56671,3.12522 -1.0835,1.08571 c 0.2724,0.20959 0.415,0.55317 0.4238,1.03081 0,0.55689 -0.3228,0.97203 -0.9054,1.25492 v -1.24838 c 0,-0.0897 -0.046,-0.13414 -0.1342,-0.13414 h -2.4307 c -0.088,0 -0.1341,0.044 -0.1341,0.13414 V 99.2497 c 0,1.06785 -0.306,1.88388 -0.91,2.44396 -0.6049,0.56008 -1.3472,0.83736 -2.2287,0.83736 -0.8957,0 -1.6456,-0.27748 -2.2505,-0.83736 -0.5973,-0.55262 -0.8945,-1.36865 -0.8945,-2.44396 V 88.90031 c 0,-0.0897 -0.042,-0.13414 -0.1215,-0.13414 h -2.4416 c -0.088,0 -0.1342,0.044 -0.1342,0.13414 v 10.61753 c 0,1.71747 0.5684,3.09961 1.7035,4.14504 1.1351,1.03793 2.515,1.55828 4.1426,1.55824 1.6205,0 2.9957,-0.52031 4.1233,-1.55824 1.1422,-1.04543 1.7139,-2.42757 1.7139,-4.14504 v -7.923 c 0.3982,-0.0801 0.7763,-0.197 1.1213,-0.35586 0.9045,-0.61512 1.3409,-1.41212 1.312,-2.38897 0,-0.80328 -0.2599,-1.45458 -0.7365,-1.95388 -0.042,-0.0436 -0.088,-0.0826 -0.1341,-0.11863 z m 7.87231,1.84616 c -1.2998,0 -2.3875,0.31311 -3.2615,0.94068 -0.8668,0.62007 -1.4952,1.29282 -1.8837,2.01755 -0.1341,0.25401 -0.2515,0.51209 -0.3479,0.7736 -0.096,0.26156 -0.1719,0.53368 -0.2222,0.81758 -0.054,0.28419 -0.088,0.73596 -0.1131,1.35607 0,0.62007 -0.042,1.41903 -0.042,2.39777 0,1.9574 0.05,3.21191 0.1467,3.76479 0.05,0.28419 0.1258,0.5561 0.2222,0.81757 0.096,0.25401 0.2138,0.50861 0.3479,0.76266 0.3898,0.73215 1.0169,1.40491 1.8837,2.01756 0.8815,0.6201 1.9688,0.92965 3.2615,0.92965 0.7097,0 1.3698,-0.0993 1.9822,-0.30095 0.6128,-0.20162 1.1804,-0.50073 1.7035,-0.89667 1.076,-0.82185 1.7718,-1.99458 2.0857,-3.51866 0,-0.0448 0,-0.0822 0,-0.11233 -0.042,-0.0377 -0.067,-0.057 -0.1131,-0.057 h -2.567 c 0,0 -0.046,0.008 -0.067,0.0335 0,0.0168 -0.042,0.0293 -0.054,0.0465 -0.6724,1.41203 -1.6549,2.11643 -2.9476,2.11643 -0.56,0 -1.0391,-0.10646 -1.4348,-0.32317 -0.3982,-0.22425 -0.7125,-0.49499 -0.9519,-0.80877 -0.1341,-0.17186 -0.2557,-0.36928 -0.3688,-0.59341 -0.1048,-0.2318 -0.1887,-0.46284 -0.2473,-0.69447 -0.059,-0.25401 -0.1006,-0.64186 -0.1216,-1.16485 -0.042,-0.53045 -0.042,-1.2032 -0.042,-2.01759 0,-0.79938 0,-1.46514 0.042,-1.99559 0,-0.5304 0.063,-0.92177 0.1216,-1.17583 0.059,-0.23892 0.1425,-0.47034 0.2473,-0.69446 0.1047,-0.2318 0.2263,-0.43828 0.3688,-0.6176 0.2389,-0.29131 0.5558,-0.54948 0.9519,-0.7736 0.394,-0.22425 0.8748,-0.33407 1.4348,-0.33407 0.7549,0 1.3774,0.21838 1.8703,0.65934 0.2599,0.22425 0.4825,0.4682 0.6619,0.72967 0.1802,0.25402 0.3185,0.5297 0.415,0.82856 0,0.0599 0.054,0.0901 0.1215,0.0901 h 2.567 c 0.046,0 0.084,-0.0126 0.1131,-0.0436 0.042,-0.0293 0.042,-0.0671 0,-0.11234 -0.2473,-1.32237 -0.8857,-2.46697 -1.9164,-3.43075 -1.016,-0.95632 -2.3012,-1.4329 -3.855,-1.43299 z m 33.1712,0 c -1.2998,0 -2.385,0.31311 -3.2594,0.94068 -0.8664,0.62007 -1.4947,1.29282 -1.8833,2.01755 v 0 c -0.1425,0.25401 -0.2599,0.51209 -0.3563,0.7736 -0.096,0.26156 -0.1719,0.53368 -0.2222,0.81758 -0.046,0.28419 -0.084,0.73596 -0.1131,1.35607 0,0.62007 -0.042,1.41903 -0.042,2.39777 0,0.9787 0,1.78119 0.042,2.40876 0.042,0.62006 0.067,1.07213 0.1131,1.35603 0.05,0.28419 0.1258,0.5561 0.2222,0.81757 0.096,0.25401 0.2138,0.50861 0.3563,0.76266 v 0 c 0.3898,0.73215 1.0169,1.40491 1.8833,2.01756 0.8815,0.6201 1.9671,0.92965 3.2594,0.92965 1.2776,0 2.3578,-0.30976 3.2397,-0.92965 0.8815,-0.62757 1.5203,-1.30037 1.9164,-2.01756 0.1257,-0.23892 0.2347,-0.48794 0.3269,-0.74946 0.096,-0.26155 0.1719,-0.53937 0.2222,-0.83077 0.1048,-0.59018 0.1551,-1.84473 0.1551,-3.76479 0,-0.97874 0,-1.7777 -0.042,-2.39777 0,-0.62011 -0.059,-1.07217 -0.1132,-1.35607 -0.096,-0.55287 -0.285,-1.08316 -0.5604,-1.59118 -0.3898,-0.70977 -1.024,-1.38256 -1.9055,-2.01755 -0.8744,-0.62757 -1.9546,-0.94068 -3.2397,-0.94068 z m 12.4042,0.11233 c -0.059,0 -0.096,0.0293 -0.1131,0.088 l -5.8725,16.07019 c 0,0.0448 0,0.0855 0,0.12281 0.042,0.0377 0.059,0.057 0.1132,0.057 h 2.5669 c 0,0 0.046,-0.008 0.067,-0.021 0.042,-0.021 0.046,-0.0461 0.054,-0.0679 0.2096,-0.59764 0.4149,-1.18296 0.6178,-1.75822 0.2096,-0.58272 0.4192,-1.17725 0.6263,-1.7824 h 5.9185 l 1.2089,3.54062 c 0,0.0599 0.054,0.0901 0.1131,0.0901 h 2.567 c 0.046,0 0.08,-0.021 0.1006,-0.057 0.042,-0.0377 0.042,-0.0784 0,-0.12281 l -5.8616,-16.0702 c 0,-0.021 -0.042,-0.0377 -0.059,-0.0549 -0.042,-0.021 -0.042,-0.0335 -0.067,-0.0335 z m -80.36871,0.008 c -0.084,0 -0.1258,0.0457 -0.1258,0.13622 v 6.65273 h -1.1866 c -0.084,0 -0.1258,0.0457 -0.1258,0.13622 v 2.32962 c 0,0.083 0.042,0.12533 0.1258,0.12533 h 1.1866 v 6.96701 c 0,0.0905 0.042,0.13623 0.1258,0.13623 h 5.5211 c 1.2068,0 2.2514,-0.26324 3.1337,-0.79121 0.8526,-0.52794 1.5299,-1.18137 2.0354,-1.95824 v 0.0126 c 0.1887,-0.29425 0.3438,-0.58934 0.4657,-0.88346 0.13,-0.30138 0.2222,-0.61068 0.2809,-0.92748 0.059,-0.30934 0.1048,-0.76929 0.1383,-1.38018 0.042,-0.61847 0.046,-1.38755 0.046,-2.30773 0,-1.71203 -0.046,-2.86908 -0.1383,-3.47246 -0.042,-0.30892 -0.1216,-0.62728 -0.2473,-0.95158 -0.13,-0.32443 -0.2934,-0.66655 -0.4988,-1.02854 -1.1163,-1.86296 -2.8021,-2.7956 -5.0572,-2.7956 z m 47.33171,0.0126 c -0.088,0 -0.1342,0.0444 -0.1342,0.13413 v 16.05934 c 0,0.0897 0.046,0.13413 0.1342,0.13413 h 2.4307 c 0.088,0 0.1341,-0.044 0.1341,-0.13413 v -6.88129 h 6.1076 v 6.88125 c 0,0.0897 0.046,0.13413 0.1384,0.13413 h 2.4307 c 0.088,0 0.1341,-0.0444 0.1341,-0.13413 V 88.89056 c 0,-0.0897 -0.042,-0.13414 -0.1341,-0.13414 h -2.4307 c -0.088,0 -0.1384,0.0444 -0.1384,0.13414 v 6.7472 h -6.1076 v -6.7472 c 0,-0.0897 -0.042,-0.13414 -0.1341,-0.13414 z m 20.6328,2.57797 c 0.2682,0 0.5235,0.0293 0.7624,0.0993 0.239,0.0595 0.4599,0.14377 0.6619,0.24856 0.2012,0.0968 0.3814,0.21252 0.5382,0.34707 0.1635,0.13455 0.3018,0.2712 0.415,0.41287 0.1425,0.17941 0.264,0.38563 0.3688,0.61764 0.1048,0.22425 0.1845,0.45542 0.239,0.69447 0.059,0.24688 0.1047,0.63435 0.1341,1.16485 0.042,0.52294 0.042,1.19217 0.042,2.00656 0,1.64362 -0.059,2.70422 -0.1802,3.1824 -0.096,0.47818 -0.3018,0.90686 -0.6175,1.28788 -0.2305,0.31395 -0.5449,0.58469 -0.9406,0.80881 -0.394,0.21629 -0.8714,0.32318 -1.4243,0.32318 -0.5604,0 -1.0391,-0.10647 -1.4352,-0.32318 -0.394,-0.22425 -0.7126,-0.49503 -0.9515,-0.80881 -0.1341,-0.17186 -0.2557,-0.36928 -0.3688,-0.59341 -0.1048,-0.2318 -0.1845,-0.46284 -0.2473,-0.69447 -0.059,-0.25401 -0.1006,-0.64186 -0.1216,-1.16485 -0.042,-0.53044 -0.042,-1.2032 -0.042,-2.01755 0,-0.79942 0,-1.46513 0.042,-1.99558 0,-0.53045 0.063,-0.92182 0.1216,-1.17583 0.059,-0.23893 0.1425,-0.47035 0.2473,-0.69447 0.1047,-0.2318 0.2263,-0.43828 0.3688,-0.61764 0.2389,-0.29131 0.5558,-0.54725 0.9515,-0.77138 0.394,-0.22425 0.8748,-0.33659 1.4352,-0.33659 z m -65.36241,0.008 h 2.8067 c 1.2143,0 2.1415,0.43379 2.7824,1.30112 0.3102,0.42235 0.5059,0.90183 0.5889,1.43735 0.042,0.28671 0.063,0.6746 0.08,1.16485 0,0.49025 0.042,1.10135 0.042,1.83295 0,0.7542 0,1.37565 -0.042,1.8659 0,0.48271 -0.042,0.84436 -0.08,1.08571 -0.054,0.43744 -0.2137,0.8574 -0.4766,1.25711 -0.6337,0.90509 -1.5974,1.35825 -2.8947,1.35825 h -2.8067 v -4.52527 h 2.9517 c 0.092,0 0.1384,-0.0423 0.1384,-0.12533 v -2.32966 c 0,-0.0905 -0.046,-0.13622 -0.1384,-0.13622 h -2.9517 z m 78.79731,1.2989 2.1516,6.38899 h -4.3031 z m 154.3089,66.12475 c -1.2939,0 -2.3758,0.31185 -3.246,0.93624 -0.863,0.6173 -1.488,1.28737 -1.8749,2.00879 -0.1341,0.25275 -0.2515,0.5089 -0.3479,0.76924 -0.096,0.2603 -0.1676,0.53271 -0.2179,0.8154 -0.054,0.28251 -0.092,0.73428 -0.1132,1.35158 -0.042,0.6173 -0.042,1.41254 -0.042,2.38679 0,1.94852 0.05,3.19686 0.1467,3.74722 0.054,0.28294 0.1257,0.5551 0.2221,0.8154 0.096,0.25275 0.2096,0.50316 0.3437,0.75604 0.3857,0.72884 1.0123,1.40117 1.875,2.01097 0.8773,0.61734 1.9591,0.9253 3.2459,0.9253 0.7067,0 1.3661,-0.1006 1.976,-0.30096 0.6098,-0.20078 1.1736,-0.50035 1.6942,-0.89449 1.071,-0.81812 1.7626,-1.98611 2.0749,-3.50331 0,-0.0448 0,-0.0805 0,-0.11024 -0.042,-0.0377 -0.067,-0.057 -0.1132,-0.057 h -2.554 c -0.042,0 -0.046,0.0126 -0.067,0.0335 -0.042,0.0168 -0.042,0.0293 -0.054,0.0436 -0.6694,1.40566 -1.6494,2.10989 -2.9362,2.10989 -0.5579,0 -1.032,-0.10982 -1.4264,-0.32527 -0.3941,-0.22341 -0.7114,-0.48983 -0.9494,-0.80219 -0.1342,-0.17102 -0.2557,-0.37054 -0.3689,-0.59341 -0.1048,-0.23053 -0.1844,-0.45956 -0.2431,-0.6901 -0.059,-0.25318 -0.1006,-0.63985 -0.1216,-1.16045 0,-0.52802 -0.042,-1.19587 -0.042,-2.00657 0,-0.7957 0,-1.45877 0.042,-1.98674 0.042,-0.52806 0.063,-0.9186 0.1216,-1.17148 0.059,-0.23808 0.1383,-0.46703 0.2431,-0.69006 0.1048,-0.23054 0.2263,-0.43693 0.3689,-0.61541 0.2389,-0.29006 0.5553,-0.54831 0.9494,-0.77143 0.394,-0.22341 0.8685,-0.33407 1.4264,-0.33407 0.7511,0 1.3727,0.2209 1.864,0.65934 0.2599,0.22341 0.4782,0.46502 0.6568,0.72528 0.1802,0.25317 0.3186,0.52889 0.415,0.82633 0,0.0595 0.054,0.088 0.1215,0.088 h 2.554 c 0.046,0 0.08,-0.0126 0.109,-0.0436 0.042,-0.0293 0.042,-0.0679 0.042,-0.11191 -0.2431,-1.31651 -0.8815,-2.45596 -1.9076,-3.41537 -1.0115,-0.95196 -2.2903,-1.42629 -3.8375,-1.42629 z m -54.2147,0.13413 c -0.088,0 -0.1342,0.0453 -0.1342,0.13413 v 2.1516 c 0,0.0893 0.046,0.13413 0.1342,0.13413 h 4.2482 v 13.70097 c 0,0.0893 0.046,0.13413 0.1341,0.13413 h 2.4219 c 0.088,0 0.1341,-0.0448 0.1341,-0.13413 v -13.7003 h 4.2415 c 0.088,0 0.1342,-0.0448 0.1342,-0.13413 v -2.1516 c 0,-0.0893 -0.046,-0.13413 -0.1342,-0.13413 z m 13.0962,0 c -0.088,0 -0.1341,0.0453 -0.1341,0.13413 v 15.98666 c 0,0.0893 0.046,0.13413 0.1341,0.13413 h 2.4199 c 0.088,0 0.1341,-0.0448 0.1341,-0.13413 v -6.11423 h 3.5603 c 1.6733,0 2.9488,-0.52634 3.8266,-1.58242 0.8773,-1.06354 1.314,-2.17964 1.314,-3.34721 0,-0.44624 -0.046,-0.86733 -0.1341,-1.26151 -0.088,-0.39443 -0.2138,-0.7563 -0.3772,-1.08354 -0.1719,-0.31982 -0.3689,-0.60778 -0.5823,-0.86812 -0.2095,-0.26784 -0.4376,-0.50245 -0.6899,-0.70331 -0.6547,-0.50572 -1.273,-0.8265 -1.8531,-0.96038 -0.5726,-0.13414 -1.1758,-0.19994 -1.8154,-0.19994 z m 21.1384,0 c -0.088,0 -0.1342,0.0453 -0.1342,0.13413 v 15.98666 c 0,0.0893 0.046,0.13413 0.1342,0.13413 h 2.4219 c 0.088,0 0.1341,-0.0448 0.1341,-0.13413 v -6.85049 h 6.0816 v 6.85049 c 0,0.0893 0.046,0.13413 0.1341,0.13413 h 2.4194 c 0.088,0 0.1342,-0.0448 0.1342,-0.13413 v -15.98641 c 0,-0.0893 -0.046,-0.13413 -0.1342,-0.13413 h -2.4194 c -0.088,0 -0.1341,0.0448 -0.1341,0.13413 v 6.71648 h -6.0816 v -6.71648 c 0,-0.0893 -0.042,-0.13413 -0.1341,-0.13413 z m 27.5447,0 c -0.088,0 -0.1341,0.0453 -0.1341,0.13413 v 15.98666 c 0,0.0893 0.046,0.13413 0.1341,0.13413 h 2.4199 c 0.088,0 0.1341,-0.0448 0.1341,-0.13413 v -9.45927 l 3.145,7.23733 c 0.042,0.0448 0.071,0.0679 0.1215,0.0679 h 2.0199 c 0.05,0 0.092,-0.0251 0.1216,-0.0679 0.5131,-1.20479 1.0324,-2.40481 1.5605,-3.60223 0.5278,-1.19734 1.053,-2.40087 1.5736,-3.61313 v 9.4373 c 0,0.0893 0.042,0.13413 0.1341,0.13413 h 2.4198 c 0.088,0 0.1342,-0.0448 0.1342,-0.13413 v -15.98641 c 0,-0.0893 -0.046,-0.13413 -0.1342,-0.13413 h -2.2857 c -0.059,0 -0.1006,0.0251 -0.1215,0.0792 -0.7289,1.70314 -1.4583,3.39395 -2.1868,5.07471 -0.7289,1.67337 -1.4524,3.3628 -2.1738,5.06594 l -4.4724,-10.14065 c -0.042,-0.0516 -0.071,-0.0792 -0.1258,-0.0792 z m -46.1291,2.56477 h 3.3801 c 0.6769,0 1.2265,0.14377 1.6507,0.42641 0.6543,0.42398 0.9825,1.09531 0.9825,2.01755 0,0.61726 -0.2138,1.17646 -0.6376,1.67472 -0.4149,0.51313 -1.05,0.76916 -1.9055,0.76916 h -3.4702 z m -185.96151,2.60219 -12.8238,18.62406 c -0.5524,0.67389 -0.6312,1.51188 -0.2054,2.07691 0.5592,0.7404 1.3833,0.92131 2.3733,0.83735 l 5.5782,-2.19783 v 66.29187 h 9.914 v -16.64805 l 34.93381,-35.10084 2.5736,5.66149 c 0.8606,0.9061 1.2479,1.03072 1.8993,0.99123 0.7192,-0.044 1.4964,-0.79569 1.6942,-1.52533 l 4.0483,-22.24817 -22.2282,4.15385 c -0.8672,0.088 -1.5148,0.62585 -1.6112,1.32749 -0.1258,0.91922 0.3353,1.62915 1.0948,2.26808 l 5.5032,2.37803 -27.90781,28.03939 v -35.5887 l 5.8201,2.19779 c 1.2491,0.0335 1.61,-0.14797 2.0438,-0.63516 0.4791,-0.53841 0.4971,-1.62228 0.1216,-2.2791 z m 193.09561,8.55597 c -0.088,0 -0.1341,0.0448 -0.1341,0.13413 v 2.26373 c 0,0.0893 0.042,0.13413 0.1341,0.13413 h 2.2769 c 0.084,0 0.1216,-0.0448 0.1216,-0.13413 v -2.26373 c 0,-0.0893 -0.042,-0.13413 -0.1216,-0.13413 z m 58.1268,16.65044 -1.1405,1.14062 c 0.3144,0.2188 0.4762,0.58452 0.4837,1.09674 -0.042,0.61398 -0.3772,1.05586 -1.0353,1.34722 -1.0278,-0.96365 -2.4031,-1.56263 -3.9297,-1.56263 h -0.1634 c -3.1865,0 -5.7518,2.56502 -5.7518,5.75161 v 5.03966 c 0,3.18664 2.5653,5.75161 5.7518,5.75161 h 0.1634 c 3.1865,0 5.7518,-2.56497 5.7518,-5.75161 v -5.03954 c 0,-1.09556 -0.3228,-2.10607 -0.8484,-2.97575 0.096,-0.0377 0.197,-0.0784 0.2892,-0.12072 0.9414,-0.64027 1.3992,-1.46874 1.369,-2.48567 0,-0.83614 -0.2725,-1.51535 -0.7692,-2.03515 -0.05,-0.0528 -0.1132,-0.10312 -0.1718,-0.15593 z m -13.7602,0.17563 -1.0789,1.08135 c 0.2724,0.20874 0.4107,0.55065 0.4195,1.02636 0,0.55459 -0.3185,0.96663 -0.8986,1.2483 v -1.24348 c 0,-0.0893 -0.046,-0.13204 -0.1342,-0.13204 h -2.4219 c -0.088,0 -0.1341,0.0423 -0.1341,0.13204 v 10.30986 c 0,1.0635 -0.3018,1.87516 -0.9033,2.43294 -0.6028,0.55782 -1.3422,0.83518 -2.2199,0.83518 -0.8924,0 -1.6414,-0.27748 -2.2442,-0.83518 -0.5948,-0.55036 -0.8899,-1.36198 -0.8899,-2.43294 v -10.30986 c 0,-0.0893 -0.042,-0.13204 -0.1215,-0.13204 h -2.4332 c -0.088,0 -0.1342,0.0423 -0.1342,0.13204 v 10.57578 c 0,1.71056 0.5663,3.08629 1.6968,4.12748 1.1305,1.03378 2.5036,1.55384 4.125,1.55384 1.6141,0 2.9848,-0.52006 4.1077,-1.55384 1.1381,-1.04119 1.7056,-2.41692 1.7056,-4.12748 v -7.89227 c 0.3982,-0.0792 0.7729,-0.19323 1.1162,-0.35167 0.9012,-0.61265 1.3367,-1.40725 1.3078,-2.38021 0,-0.80001 -0.2599,-1.44992 -0.7339,-1.94726 -0.042,-0.0436 -0.088,-0.0801 -0.13,-0.11653 z m -39.3886,1.84619 c -1.2931,3e-4 -2.3746,0.31186 -3.2439,0.9362 -0.8626,0.61726 -1.4859,1.28746 -1.8728,2.00879 v 0 c -0.1425,0.25317 -0.2599,0.50886 -0.3563,0.7692 -0.096,0.2603 -0.1719,0.5328 -0.2222,0.8154 -0.046,0.28293 -0.084,0.73215 -0.1131,1.34945 -0.042,0.6173 -0.042,1.41253 -0.042,2.38679 0,0.9743 0,1.77309 0.042,2.39781 0.042,0.6173 0.067,1.06899 0.1131,1.35163 0.05,0.28251 0.1258,0.55296 0.2222,0.81321 0.096,0.25318 0.2179,0.50539 0.3563,0.75827 v 0 c 0.3856,0.72879 1.0102,1.39669 1.8728,2.00652 0.8773,0.6173 1.9596,0.92966 3.246,0.92966 1.6137,0 2.9953,-0.56264 4.1405,-1.6857 1.1304,-1.10814 1.6946,-2.48382 1.6946,-4.12744 v -3.25862 c 0,-0.0817 -0.046,-0.12072 -0.1341,-0.12072 h -5.6767 c -0.088,0 -0.1383,0.0377 -0.1383,0.12072 v 2.29894 c 0,0.0893 0.046,0.13413 0.1383,0.13413 h 3.1206 v 0.69228 c 0,0.97435 -0.3018,1.76245 -0.9121,2.36483 -0.6023,0.60238 -1.348,0.90329 -2.2328,0.90329 -0.5579,0 -1.0324,-0.10982 -1.4264,-0.32527 -0.394,-0.22341 -0.7114,-0.48983 -0.9494,-0.80219 -0.1342,-0.17102 -0.2557,-0.36802 -0.3689,-0.59122 -0.1048,-0.23054 -0.1844,-0.45957 -0.2431,-0.69007 -0.059,-0.25317 -0.1048,-0.63989 -0.1258,-1.16045 -0.042,-0.52806 -0.042,-1.19813 -0.042,-2.00883 0,-0.7957 0,-1.4565 0.042,-1.98456 0.042,-0.52806 0.067,-0.92078 0.1258,-1.17361 0.059,-0.23767 0.1383,-0.46925 0.2431,-0.69229 0.1048,-0.23054 0.2264,-0.43471 0.3689,-0.61323 0.2389,-0.29006 0.5554,-0.54605 0.9494,-0.76921 0.394,-0.22341 0.8685,-0.33407 1.4264,-0.33407 0.7511,0 1.3727,0.2209 1.8636,0.65934 0.2598,0.22341 0.4786,0.46502 0.6572,0.72524 0.1803,0.25317 0.3186,0.52671 0.415,0.82419 0,0.0595 0.054,0.0901 0.1215,0.0901 h 2.554 c 0.046,0 0.084,-0.0168 0.1132,-0.0461 0.042,-0.0293 0.042,-0.0654 0,-0.10982 -0.2432,-1.32367 -0.8815,-2.46337 -1.9081,-3.41532 -1.0106,-0.9515 -2.289,-1.42591 -3.8349,-1.42637 z m 77.0104,0 c -1.2943,0 -2.3762,0.31144 -3.2464,0.9362 -0.8626,0.61726 -1.488,1.28746 -1.8745,2.00879 v 0 c -0.1425,0.25317 -0.2598,0.50886 -0.3563,0.7692 -0.096,0.2603 -0.1718,0.5328 -0.2221,0.8154 -0.046,0.28293 -0.084,0.73215 -0.1132,1.34945 -0.042,0.6173 -0.042,1.41253 -0.042,2.38679 0,0.9743 0,1.77309 0.042,2.39781 0.042,0.6173 0.067,1.06899 0.1132,1.35163 0.054,0.28251 0.1299,0.55296 0.2221,0.81321 0.097,0.25318 0.218,0.50539 0.3563,0.75827 v 0 c 0.3857,0.72879 1.0119,1.39669 1.8745,2.00652 0.8778,0.6173 1.9596,0.92966 3.2464,0.92966 1.6138,0 2.9933,-0.56264 4.1384,-1.6857 1.1305,-1.10814 1.6968,-2.48382 1.6968,-4.12744 v -3.25862 c 0,-0.0817 -0.046,-0.12072 -0.1342,-0.12072 h -5.6771 c -0.088,0 -0.1341,0.0377 -0.1341,0.12072 v 2.29894 c 0,0.0893 0.046,0.13413 0.1341,0.13413 h 3.1211 v 0.69228 c 0,0.97435 -0.306,1.76245 -0.9146,2.36483 -0.6023,0.60238 -1.3455,0.90329 -2.2304,0.90329 -0.5579,0 -1.0324,-0.10982 -1.4264,-0.32527 -0.394,-0.22341 -0.7117,-0.48983 -0.9494,-0.80219 -0.1341,-0.17102 -0.2557,-0.36802 -0.3688,-0.59122 -0.1048,-0.23054 -0.1887,-0.45957 -0.2473,-0.69007 -0.059,-0.25317 -0.1006,-0.63989 -0.1216,-1.16045 0,-0.52806 -0.042,-1.19813 -0.042,-2.00883 0,-0.7957 0,-1.4565 0.042,-1.98456 0.042,-0.52806 0.063,-0.92078 0.1216,-1.17361 0.059,-0.23767 0.1425,-0.46925 0.2473,-0.69229 0.1048,-0.23054 0.2263,-0.43471 0.3688,-0.61323 0.2389,-0.29006 0.555,-0.54605 0.9494,-0.76921 0.394,-0.22341 0.8685,-0.33407 1.4264,-0.33407 0.7512,0 1.3728,0.2209 1.8636,0.65934 0.2599,0.22341 0.4787,0.46502 0.6573,0.72524 0.1802,0.25317 0.3185,0.52671 0.4149,0.82419 0,0.0595 0.054,0.0901 0.1216,0.0901 h 2.5556 c 0.046,0 0.08,-0.0168 0.109,-0.0461 0.042,-0.0293 0.042,-0.0654 0.042,-0.10982 -0.2473,-1.32379 -0.8811,-2.46337 -1.9076,-3.41532 -1.0114,-0.95196 -2.2903,-1.42637 -3.8374,-1.42637 z m -139.2232,0.13204 c -0.088,0 -0.1342,0.0453 -0.1342,0.13413 v 2.15382 c 0,0.0893 0.046,0.13413 0.1342,0.13413 h 4.2507 v 13.69887 c 0,0.0893 0.042,0.13623 0.1341,0.13623 h 2.4219 c 0.088,0 0.1342,-0.0469 0.1342,-0.13623 V 193.8494 h 4.2394 c 0.088,0 0.1341,-0.0453 0.1341,-0.13413 v -2.15332 c 0,-0.0893 -0.046,-0.13413 -0.1341,-0.13413 z m 13.0967,0 c -0.088,0 -0.1341,0.0453 -0.1341,0.13413 v 15.9867 c 0,0.0893 0.046,0.13622 0.1341,0.13622 h 2.4219 c 0.088,0 0.1341,-0.0469 0.1341,-0.13622 v -6.69229 h 2.8902 l 3.2702,6.74946 0.055,0.0549 c 0.042,0.0168 0.046,0.0251 0.067,0.0251 h 2.8792 c 0.054,0 0.088,-0.021 0.1132,-0.057 0.042,-0.0453 0.042,-0.0926 0,-0.14503 -0.6028,-1.15265 -1.208,-2.31012 -1.8179,-3.47032 -0.6099,-1.16761 -1.2172,-2.32852 -1.8196,-3.4813 0.4611,-0.17102 0.8727,-0.39443 1.2374,-0.67691 0.3647,-0.29006 0.6853,-0.62731 0.9603,-1.00661 0.2682,-0.4091 0.4753,-0.84788 0.6241,-1.31646 0.1467,-0.476 0.2222,-0.97745 0.2222,-1.50551 0,-0.3567 -0.046,-0.70268 -0.1342,-1.03734 -0.088,-0.33491 -0.2137,-0.6497 -0.3688,-0.94722 -0.1509,-0.29718 -0.3228,-0.57354 -0.5231,-0.82642 -0.1929,-0.2603 -0.3982,-0.49146 -0.6154,-0.69228 -0.4149,-0.34959 -0.9037,-0.61844 -1.4612,-0.80438 -0.5579,-0.19365 -1.1812,-0.28796 -1.8728,-0.28796 z m 13.6328,0 c -0.088,0 -0.1341,0.0453 -0.1341,0.13413 v 10.57574 c 0,1.71056 0.5637,3.08629 1.6942,4.12744 1.1305,1.03378 2.5062,1.55165 4.1275,1.55165 1.6142,0 2.9848,-0.51787 4.1078,-1.55165 1.138,-1.04115 1.7055,-2.41688 1.7055,-4.12744 v -10.57454 c 0,-0.0893 -0.046,-0.13413 -0.1341,-0.13413 h -2.4198 c -0.088,0 -0.1341,0.0453 -0.1341,0.13413 v 10.30987 c 0,1.06349 -0.3018,1.87512 -0.9054,2.43294 -0.6028,0.55777 -1.3422,0.83295 -2.2199,0.83295 -0.8924,0 -1.6393,-0.27538 -2.2417,-0.83295 -0.5952,-0.55032 -0.8924,-1.36203 -0.8924,-2.43294 v -10.30987 c 0,-0.0893 -0.042,-0.13413 -0.1215,-0.13413 z m 14.7029,0 c -0.088,0 -0.1341,0.0453 -0.1341,0.13413 v 15.9867 c 0,0.0893 0.046,0.13622 0.1341,0.13622 h 2.4333 c 0.084,0 0.1215,-0.0469 0.1215,-0.13622 v -10.99998 l 7.0528,11.06809 c 0.042,0.0449 0.063,0.0679 0.109,0.0679 h 2.2878 c 0.088,0 0.1341,-0.0474 0.1341,-0.13622 V 191.5612 c 0,-0.0893 -0.046,-0.13204 -0.1341,-0.13204 h -2.4332 c -0.088,0 -0.1342,0.0423 -0.1342,0.13204 v 11.00215 l -7.0285,-11.06808 c -0.042,-0.0448 -0.067,-0.0658 -0.1131,-0.0658 z m 35.0306,0 c -0.088,0 -0.1383,0.0453 -0.1383,0.13413 v 15.9867 c 0,0.0893 0.046,0.13622 0.1383,0.13622 h 10.2175 c 0.088,0 0.1341,-0.0469 0.1341,-0.13622 v -2.27471 c 0,-0.0893 -0.046,-0.13413 -0.1341,-0.13413 h -7.6635 v -13.57798 c 0,-0.0893 -0.046,-0.13204 -0.1384,-0.13204 z m 41.9778,0 c -0.088,0 -0.1341,0.0453 -0.1341,0.13413 v 15.9867 c 0,0.0893 0.046,0.13622 0.1341,0.13622 h 2.4332 c 0.084,0 0.1216,-0.0469 0.1216,-0.13622 v -10.99998 l 7.0503,11.06809 c 0.042,0.0449 0.067,0.0679 0.1131,0.0679 h 2.2878 c 0.088,0 0.1342,-0.0474 0.1342,-0.13622 V 191.5612 c 0,-0.0893 -0.042,-0.13204 -0.1342,-0.13204 h -2.4328 c -0.088,0 -0.1341,0.0423 -0.1341,0.13204 v 11.00215 l -7.0285,-11.06808 c -0.042,-0.0448 -0.063,-0.0658 -0.109,-0.0658 z m -102.7906,2.42196 h 3.6815 c 0.3353,0 0.6426,0.0423 0.9251,0.12281 0.2892,0.0822 0.5449,0.19659 0.7608,0.34497 0.2431,0.18569 0.4317,0.42402 0.5579,0.71425 0.1341,0.29006 0.2012,0.62158 0.2012,0.99341 0,0.65448 -0.2138,1.22073 -0.6459,1.69669 -0.4314,0.476 -1.0781,0.71207 -1.9408,0.71211 h -3.5385 z m 94.015,0.15173 c 1.7433,0 3.145,1.40369 3.145,3.14719 v 4.8593 c 0,1.7435 -1.4017,3.14728 -3.145,3.14728 -1.7437,0 -3.1475,-1.40378 -3.1475,-3.14728 v -4.8593 c 0,-1.7435 1.4038,-3.14719 3.1475,-3.14719 z"
       sodipodi:nodetypes="cccccsscccccccccccsscccccccccssssscscsssssscscscccccccccsccsccccsccccssccscccccsccccsscccsscccccsccccccsccccccsccccsccccssccccssccccccsscccccccscsssscsssccccccscccccssssssccssssssssccsssccccccccscccscccccsccccscccscccscccsccssssccccccccccccsccccsscccssccscccccscccccscccssccccccssscsssscsssccsssssscscscccccsscsssssccssssssssccscccsssssccsscscssssssscccccccscscsccccccccccccccccccccccsccsssssssssccccssssssssccccscccccssssscscsssssscscsccccsccccccccsccccccscssssssscscscccccscccccscccssccccccccccccsccccccscssssssscscscccccsccccsscccssccccccssscsssscssscccsssssccccsscccccccsccccccccsscscsssssscscsscccsssssccssssssscccccssssssscscccsssssccssssssscccccscccsscccsssssss" />
  </g>
</svg>
