<?xml version="1.0" encoding="utf-8"?>
<svg viewBox="0 0 323.14914 200" xmlns="http://www.w3.org/2000/svg">
  <g id="layer1" transform="matrix(0.9999999999999999, 0, 0, 0.9999999999999999, -303.4596862792969, -22.960700988769517)">
    <path id="rect15575" style="opacity:1;fill:#0a9646;fill-opacity:1;fill-rule:evenodd;stroke-width:0.0420687;stroke-linecap:square;stroke-miterlimit:10;paint-order:stroke fill markers" d="M 303.45966,22.960701 H 626.6088 V 222.9607 H 303.45966 Z"/>
    <path transform="matrix(0.26458333,0,0,0.26458333,303.45966,22.960701)" d="m 30.353516,5.0117188 c -13.808655,0 -25.0781254,11.2674112 -25.0781254,25.0761722 v 332.957029 47.1211 49.04296 13.88672 252.45508 c 0,13.80862 11.2694704,25.06641 25.0781254,25.06641 H 1190.9805 c 13.8086,0 25.0781,-11.25779 25.0781,-25.06641 V 473.0957 459.57031 401.94727 363.04492 30.087891 c 0,-13.808761 -11.2695,-25.0761722 -25.0781,-25.0761722 z m 0,9.4511722 H 1190.9805 c 8.7398,0 15.6425,6.885058 15.6425,15.625 v 332.957029 38.90235 c 0,0.29959 -0.013,0.61475 -0.037,0.9375 v 7.20703 c 0,8.68754 -6.9941,15.68164 -15.6816,15.68164 h -8.0762 c -0.1869,0.007 -0.3766,0.0176 -0.5586,0.0176 H 38.023438 c -0.18105,0 -0.371847,-0.0102 -0.560547,-0.0176 h -7.097657 c -8.687546,0 -15.68164,-6.9941 -15.68164,-15.68164 V 30.152344 c 0,-1.658433 0.257595,-3.253829 0.730468,-4.751953 0.01365,-0.04461 0.03284,-0.08643 0.04688,-0.13086 1.99686,-6.321925 7.84094,-10.80664 14.892578,-10.80664 z M 30.28125,435.30469 h 6.958984 1145.628866 8.1172 c 8.6414,0 15.5996,6.95633 15.5996,15.59765 v 7.5918 c 0.024,0.37296 0.037,0.7339 0.037,1.07617 v 13.52539 252.45508 c 0,5.47634 -2.7106,10.22208 -6.8847,13.00391 -2.4923,1.6862 -5.5034,2.66992 -8.752,2.66992 H 30.28125 c -8.641361,0 -15.597656,-6.9563 -15.597656,-15.59766 V 450.90234 c 0,-8.64132 6.956295,-15.59765 15.597656,-15.59765 z" style="color:#000000;font-style:normal;font-variant:normal;font-weight:normal;font-stretch:normal;font-size:medium;line-height:normal;font-family:sans-serif;font-variant-ligatures:normal;font-variant-position:normal;font-variant-caps:normal;font-variant-numeric:normal;font-variant-alternates:normal;font-variant-east-asian:normal;font-feature-settings:normal;font-variation-settings:normal;text-indent:0;text-align:start;text-decoration:none;text-decoration-line:none;text-decoration-style:solid;text-decoration-color:#000000;letter-spacing:normal;word-spacing:normal;text-transform:none;writing-mode:lr-tb;direction:ltr;text-orientation:mixed;dominant-baseline:auto;baseline-shift:baseline;text-anchor:start;white-space:normal;shape-padding:0;shape-margin:0;inline-size:0;clip-rule:nonzero;display:inline;overflow:visible;visibility:visible;opacity:1;isolation:auto;mix-blend-mode:normal;color-interpolation:sRGB;color-interpolation-filters:linearRGB;solid-color:#000000;solid-opacity:1;vector-effect:none;fill:#ffffff;fill-opacity:1;fill-rule:evenodd;stroke:none;stroke-width:2.09199;stroke-linecap:square;stroke-linejoin:miter;stroke-miterlimit:10;stroke-dasharray:none;stroke-dashoffset:0;stroke-opacity:1;paint-order:stroke fill markers;color-rendering:auto;image-rendering:auto;shape-rendering:auto;text-rendering:auto;enable-background:accumulate;stop-color:#000000;stop-opacity:1" id="path15582"/>
    <path d="m 324.12038,67.193614 h 60.89334 v 27.821331 h -60.89334 z" style="opacity:1;fill:#ffd70f;fill-opacity:1;fill-rule:evenodd;stroke:none;stroke-width:0.553508;stroke-linecap:square;stroke-miterlimit:10;stroke-dasharray:none;stroke-opacity:1;paint-order:stroke fill markers" id="rect15605"/>
    <path id="path15631" d="m 326.18273,67.759747 c -0.81115,0 -1.47443,0.660164 -1.47443,1.471307 v 23.746432 c 0,0.811142 0.66328,1.471323 1.47443,1.471323 h 56.7905 c 0.81117,0 1.4744,-0.660181 1.4744,-1.471323 V 69.231054 c 0,-0.811143 -0.66328,-1.471307 -1.4744,-1.471307 z m 0,0.535017 h 56.7905 c 0.52266,0 0.93627,0.413622 0.93627,0.93629 v 23.746432 c 0,0.522654 -0.41353,0.933189 -0.93627,0.933189 h -56.7905 c -0.52266,0 -0.93628,-0.410555 -0.93628,-0.933189 V 69.231054 c 0,-0.522672 0.41354,-0.93629 0.93628,-0.93629 z" style="color:#000000;font-style:normal;font-variant:normal;font-weight:normal;font-stretch:normal;font-size:medium;line-height:normal;font-family:sans-serif;font-variant-ligatures:normal;font-variant-position:normal;font-variant-caps:normal;font-variant-numeric:normal;font-variant-alternates:normal;font-variant-east-asian:normal;font-feature-settings:normal;font-variation-settings:normal;text-indent:0;text-align:start;text-decoration:none;text-decoration-line:none;text-decoration-style:solid;text-decoration-color:#000000;letter-spacing:normal;word-spacing:normal;text-transform:none;writing-mode:lr-tb;direction:ltr;text-orientation:mixed;dominant-baseline:auto;baseline-shift:baseline;text-anchor:start;white-space:normal;shape-padding:0;shape-margin:0;inline-size:0;clip-rule:nonzero;display:inline;overflow:visible;visibility:visible;opacity:1;isolation:auto;mix-blend-mode:normal;color-interpolation:sRGB;color-interpolation-filters:linearRGB;solid-color:#000000;solid-opacity:1;vector-effect:none;fill:#000000;fill-opacity:1;fill-rule:evenodd;stroke:none;stroke-width:0.119062;stroke-linecap:square;stroke-linejoin:miter;stroke-miterlimit:10;stroke-dasharray:none;stroke-dashoffset:0;stroke-opacity:1;paint-order:stroke fill markers;color-rendering:auto;image-rendering:auto;shape-rendering:auto;text-rendering:auto;enable-background:accumulate;stop-color:#000000;stop-opacity:1"/>
    <path d="m 336.88947,72.205604 c -1.36961,0 -2.51552,0.330332 -3.43646,0.991507 -0.91309,0.653335 -1.5737,1.361798 -1.98303,2.125328 -0.14189,0.267612 -0.264,0.538688 -0.36613,0.814199 -0.10264,0.275473 -0.18065,0.564078 -0.23555,0.86321 -0.0552,0.299089 -0.0954,0.774434 -0.11873,1.427765 -0.0223,0.653332 -0.0362,1.495435 -0.0362,2.5266 0,2.062321 0.0516,3.383536 0.15387,3.966025 0.0552,0.299136 0.13326,0.587702 0.23556,0.863193 0.10264,0.267612 0.22467,0.534915 0.36612,0.802543 0.40948,0.771411 1.06995,1.479875 1.983,2.125324 0.92887,0.653346 2.07472,0.979855 3.43649,0.979855 0.74779,0 1.44489,-0.107189 2.09034,-0.319632 0.64544,-0.212556 1.24303,-0.525333 1.79403,-0.942508 1.1335,-0.865864 1.86473,-2.103628 2.19533,-3.709419 0.0139,-0.04714 0.009,-0.08518 -0.0223,-0.116745 -0.0315,-0.03928 -0.0694,-0.05829 -0.11656,-0.05829 h -2.70394 c -0.0223,1.5e-5 -0.0488,0.01117 -0.0722,0.03521 -0.0223,0.01589 -0.0451,0.0307 -0.0582,0.0467 -0.70836,1.487712 -1.74338,2.232636 -3.10515,2.232636 -0.59037,0 -1.09454,-0.11468 -1.51174,-0.342928 -0.41713,-0.236167 -0.75132,-0.520933 -1.00317,-0.851551 -0.14189,-0.181028 -0.27124,-0.389065 -0.3896,-0.625222 -0.11008,-0.244 -0.19597,-0.488524 -0.25924,-0.732545 -0.0628,-0.267611 -0.10709,-0.67614 -0.13048,-1.227141 -0.0223,-0.558871 -0.0359,-1.267326 -0.0359,-2.125325 0,-0.842249 0.009,-1.543133 0.0359,-2.102004 0.0223,-0.55887 0.0677,-0.97117 0.13048,-1.238798 0.0627,-0.251917 0.14857,-0.496392 0.25924,-0.732549 0.11009,-0.244 0.24028,-0.45965 0.3896,-0.64857 0.252,-0.30699 0.58598,-0.580386 1.00317,-0.816526 0.41715,-0.236167 0.92137,-0.352269 1.51174,-0.352269 0.79503,1.7e-5 1.45185,0.230844 1.97135,0.695231 0.27541,0.236167 0.50863,0.492045 0.69757,0.767539 0.18872,0.267667 0.33407,0.560022 0.4361,0.874867 0.0167,0.06294 0.0599,0.09333 0.13046,0.09333 h 2.7039 c 0.0468,0 0.0854,-0.01589 0.11658,-0.0467 0.0315,-0.03161 0.0407,-0.07184 0.0223,-0.118954 -0.25952,-1.393235 -0.93175,-2.595995 -2.01801,-3.611427 -1.07052,-1.007535 -2.42438,-1.511744 -4.0617,-1.511744 z m 27.73422,0.104956 c -1.28304,0 -2.4213,0.437369 -3.41313,1.311121 -0.99967,0.858 -1.50005,2.08205 -1.50005,3.672071 v 7.425818 c 0,1.590021 0.50038,2.814088 1.50005,3.672088 0.99183,0.865851 2.13009,1.299446 3.41313,1.299446 1.28303,0 2.42133,-0.433578 3.41313,-1.299446 1.00756,-0.86587 1.50938,-2.089917 1.50938,-3.672088 v -7.425818 c 0,-0.787127 -0.1299,-1.484222 -0.38959,-2.09033 -0.252,-0.613979 -0.62389,-1.140934 -1.11979,-1.581741 -0.49592,-0.425045 -1.03279,-0.74779 -1.6074,-0.968177 -0.56674,-0.22825 -1.16816,-0.342924 -1.80573,-0.342924 z m -21.12261,0.03521 c -0.0943,0 -0.14217,0.04776 -0.14217,0.142392 v 2.279298 c 0,0.09444 0.0479,0.142197 0.14217,0.142197 h 4.49793 V 89.409 c 0,0.09444 0.0479,0.139995 0.14217,0.139995 h 2.5616 c 0.0945,0 0.14217,-0.04555 0.14217,-0.139995 V 74.909653 h 4.48625 c 0.0943,0 0.14217,-0.04778 0.14217,-0.142196 v -2.279299 c 0,-0.09444 -0.0479,-0.142392 -0.14217,-0.142392 z m 31.22667,0.118953 -2.43331,1.759064 c -0.0139,0.01589 -0.0315,0.03477 -0.0466,0.05829 -0.009,0.02341 -0.0139,0.04468 -0.0139,0.06068 v 2.561593 c 0,0.06294 0.0278,0.110694 0.0728,0.142196 0.0468,0.02343 0.0989,0.01617 0.15388,-0.02343 0.36208,-0.259778 0.7228,-0.523245 1.08486,-0.790886 0.36206,-0.275473 0.72509,-0.548889 1.08714,-0.816528 v 14.028096 c 0,0.09444 0.048,0.142198 0.14217,0.142198 h 2.41929 c 0.0943,0 0.13994,-0.04778 0.13994,-0.142198 V 72.606811 c 0,-0.09444 -0.0455,-0.142197 -0.13994,-0.142197 z m -10.10406,2.538257 c 0.67694,0 1.21532,0.217964 1.61673,0.650912 0.40948,0.425045 0.61359,1.018854 0.61359,1.782378 v 7.143522 c 0,0.771407 -0.20461,1.368982 -0.61359,1.794059 -0.40133,0.425045 -0.93979,0.63689 -1.61673,0.63689 -0.67695,0 -1.21527,-0.211859 -1.61671,-0.63689 -0.40134,-0.425091 -0.60428,-1.022652 -0.60428,-1.794059 v -7.143497 c 0,-0.763524 0.20266,-1.357335 0.60428,-1.782377 0.40133,-0.432946 0.93976,-0.650913 1.61671,-0.650913 z m -9.98507,11.865445 c -0.0945,0 -0.14217,0.04776 -0.14217,0.14239 v 2.398281 c 0,0.09444 0.0479,0.139994 0.14217,0.139994 h 2.40762 c 0.0867,0 0.13046,-0.04555 0.13046,-0.139994 v -2.398281 c 0,-0.09444 -0.0451,-0.14239 -0.13046,-0.14239 z" style="font-style: normal; font-variant: normal; font-weight: normal; font-stretch: normal; font-size: 15.1831px; line-height: 1.46; font-family: 'Alte DIN 1451 Mittelschrift gepraegt'; text-align: center; text-anchor: middle; opacity: 1; fill-opacity: 1; stroke-width: 0.264584; visibility: hidden;" id="path15637"/>
    <path id="path17496" style="font-size:15.1831px;line-height:1.46;font-family:'Singapore Road Signs';-inkscape-font-specification:'Singapore Road Signs';text-align:center;text-anchor:middle;opacity:1;fill:#ffffff;fill-opacity:1;stroke-width:0.0756548" d="m 570.47468,59.120043 v 50.614317 h 35.43541 V 59.120043 Z m 1.38203,1.660034 h 32.65274 v 47.566083 h -32.65274 z m 13.66823,3.646909 -2.23483,8.869719 h 3.92184 l 0.28216,-8.869719 z m 3.35329,0 0.28216,8.869719 h 3.92385 l -2.23686,-8.869719 z m -15.90932,9.992316 v 1.942234 l 3.06692,1.10806 v 0.584703 h 1.411 v -0.584703 c 0,0 2.08662,-0.313671 4.52568,-0.535349 1.95306,-0.177516 4.1317,-0.271988 5.64407,-0.278037 1.79866,-0.0063 4.45804,0.09363 6.73975,0.288436 2.51319,0.214479 4.5713,0.524984 4.5713,0.524984 v 0.5847 h 1.38199 v -0.5847 l 3.06685,-1.108064 v -1.942233 z m 9.21108,3.620663 -6.70448,26.681115 h 10.04943 l 1.39442,-26.681115 z m 7.25642,0 1.39441,26.681115 h 10.0494 l -6.70443,-26.681115 z"/>
    <g style="font-size:14.7905px;line-height:0;font-family:'Singapore Road Signs';-inkscape-font-specification:'Singapore Road Signs';text-align:center;text-anchor:middle;opacity:1;fill:#860000;fill-opacity:1;stroke-width:6.45213" id="layer1-8" transform="matrix(0.08718024,0,0,0.08718024,-145.22047,195.49013)">
      <circle style="opacity:1;fill:#f00a0a;fill-opacity:1;fill-rule:nonzero;stroke:none;stroke-width:3622.55;stroke-linecap:round;stroke-linejoin:round;stroke-miterlimit:4;stroke-dasharray:none;stroke-opacity:1;paint-order:stroke fill markers" id="path815" cx="6380.9966" cy="-193.29752" r="350"/>
      <circle cy="-193.29752" cx="6380.9966" id="circle817" style="opacity:1;fill:#ffffff;fill-opacity:1;fill-rule:nonzero;stroke:none;stroke-width:2587.55;stroke-linecap:round;stroke-linejoin:round;stroke-miterlimit:4;stroke-dasharray:none;stroke-opacity:1;paint-order:stroke fill markers" r="250"/>
      <g aria-label="20 " style="font-style:normal;font-variant:normal;font-weight:bold;font-stretch:normal;font-size:414.864px;line-height:0;font-family:Giaothong1;-inkscape-font-specification:'Giaothong1 Bold';letter-spacing:0px;word-spacing:0px;fill:#000000;fill-opacity:1;stroke:none;stroke-width:24.7849" id="text874" transform="matrix(-1,0,0,1,1299.029,-383.45)">
        <g aria-label="90" transform="translate(2310.2259,387.54849)" style="font-style:normal;font-variant:normal;font-weight:bold;font-stretch:normal;font-size:414.864px;line-height:0;font-family:Giaothong1;-inkscape-font-specification:'Giaothong1 Bold';letter-spacing:0px;word-spacing:0px;fill:#000000;fill-opacity:1;stroke:none;stroke-width:53.5539" id="text844"/>
      </g>
    </g>
    <g style="font-size:14.7905px;line-height:0;font-family:'Singapore Road Signs';-inkscape-font-specification:'Singapore Road Signs';text-align:center;text-anchor:middle;opacity:1;fill:#fff000;fill-opacity:1;stroke-width:6.45221" id="layer1-7" transform="matrix(0.08717968,0,0,0.08717968,488.77841,183.34565)">
      <circle cy="-54" cx="351" id="circle817-6" style="opacity:1;fill:#0046aa;fill-opacity:1;fill-rule:nonzero;stroke:none;stroke-width:3622.58;stroke-linecap:round;stroke-linejoin:round;stroke-miterlimit:4;stroke-dasharray:none;stroke-opacity:1;paint-order:stroke fill markers" r="350"/>
      <path id="rect984" style="font-style:normal;font-variant:normal;font-weight:bold;font-stretch:normal;font-size:414.864px;line-height:0;font-family:Giaothong1;-inkscape-font-specification:'Giaothong1 Bold';letter-spacing:0px;word-spacing:0px;opacity:1;fill:#ffffff;fill-opacity:1;fill-rule:nonzero;stroke:none;stroke-width:0.344279;stroke-linecap:round;stroke-linejoin:miter;stroke-miterlimit:10;stroke-dasharray:none;stroke-opacity:1;paint-order:stroke fill markers" d="m 851.18164,518.03906 c -16.32678,0 -29.4707,13.14393 -29.4707,29.47071 v 80.94921 c 0,16.32678 13.14392,29.47071 29.4707,29.47071 16.32678,0 29.4707,-13.14393 29.4707,-29.47071 v -80.94921 c 0,-16.32678 -13.14392,-29.47071 -29.4707,-29.47071 z m -69.94336,1.23828 -26.10937,69.75391 c -2.72781,7.40406 -3.70118,11.30112 -3.70118,28.44727 0,18.12042 0.7789,22.01697 4.67579,28.25195 5.26075,8.37828 14.22308,13.44336 24.93945,13.44336 10.91123,0 20.0688,-4.87023 25.13476,-13.44336 3.70197,-6.23498 4.48047,-10.13153 4.48047,-28.25195 0,-22.01726 -0.77798,-26.88814 -4.28515,-32.34375 -3.31232,-5.06591 -9.74347,-8.96289 -16.75782,-8.96289 -4.28653,0 -7.01308,0.77773 -8.37695,1.75195 l -0.39062,-0.38867 22.60156,-58.25782 z m 69.94336,18.74024 c 5.25853,0 9.49219,4.23365 9.49219,9.49219 v 80.94921 c 0,5.25853 -4.23366,9.49219 -9.49219,9.49219 -5.25853,0 -9.49219,-4.23366 -9.49219,-9.49219 v -80.94921 c 0,-5.25854 4.23366,-9.49219 9.49219,-9.49219 z m -70.13867,55.68945 c 5.0659,0 9.74219,3.89738 9.74219,9.9375 v 25.71875 c 0,6.04012 -4.67629,9.9375 -9.74219,9.9375 -5.0659,0 -9.74219,-3.89738 -9.74219,-9.9375 v -25.71875 c 0,-6.04012 4.67629,-9.9375 9.74219,-9.9375 z" transform="matrix(3.0349198,0,0,3.0349198,-2125.7104,-1839.7056)"/>
    </g>
    <g aria-label="6" id="text19759" style="font-size:31.1478px;line-height:1.3;font-family:'Singapore Road Signs';-inkscape-font-specification:'Singapore Road Signs';text-align:center;text-anchor:middle;stroke-width:0.159861" transform="matrix(1.6550836,0,0,1.6550836,-321.31659,-238.56049)"/>
    <path d="M 369.031 46.797 Q 368.925 46.797 368.925 46.691 L 368.925 34.097 Q 368.925 33.991 369.031 33.991 L 370.841 33.991 Q 370.894 33.991 370.929 34.044 L 376.466 42.763 L 376.466 34.097 Q 376.466 33.991 376.572 33.991 L 378.488 33.991 Q 378.593 33.991 378.593 34.097 L 378.593 46.691 Q 378.593 46.797 378.488 46.797 L 376.686 46.797 Q 376.633 46.797 376.598 46.744 L 371.043 38.025 L 371.043 46.691 Q 371.043 46.797 370.947 46.797 Z M 381.306 46.797 Q 381.201 46.797 381.201 46.691 L 381.201 34.097 Q 381.201 33.991 381.306 33.991 L 383.213 33.991 Q 383.319 33.991 383.319 34.097 L 383.319 46.691 Q 383.319 46.797 383.213 46.797 Z M 385.975 46.797 Q 385.87 46.797 385.87 46.691 L 385.87 34.097 Q 385.87 33.991 385.975 33.991 L 387.786 33.991 Q 387.838 33.991 387.874 34.044 L 393.411 42.763 L 393.411 34.097 Q 393.411 33.991 393.516 33.991 L 395.432 33.991 Q 395.538 33.991 395.538 34.097 L 395.538 46.691 Q 395.538 46.797 395.432 46.797 L 393.63 46.797 Q 393.578 46.797 393.543 46.744 L 387.988 38.025 L 387.988 46.691 Q 387.988 46.797 387.891 46.797 Z M 405.188 46.797 Q 405.083 46.797 405.083 46.691 L 405.083 41.295 L 400.293 41.295 L 400.293 46.691 Q 400.293 46.797 400.187 46.797 L 398.28 46.797 Q 398.175 46.797 398.175 46.691 L 398.175 34.097 Q 398.175 33.991 398.28 33.991 L 400.187 33.991 Q 400.293 33.991 400.293 34.097 L 400.293 39.388 L 405.083 39.388 L 405.083 34.097 Q 405.083 33.991 405.188 33.991 L 407.095 33.991 Q 407.201 33.991 407.201 34.097 L 407.201 46.691 Q 407.201 46.797 407.095 46.797 Z M 414.257 46.797 Q 414.152 46.797 414.152 46.691 L 414.152 34.097 Q 414.152 33.991 414.257 33.991 L 419.144 33.991 Q 420.998 33.991 421.992 34.984 Q 422.976 35.96 422.976 37.48 Q 422.976 38.315 422.589 39.027 Q 422.238 39.695 421.28 40.187 Q 422.167 40.469 422.651 41.268 Q 422.906 41.708 423.042 42.169 Q 423.178 42.631 423.178 43.123 Q 423.178 44.802 422.097 45.804 Q 421.025 46.797 419.575 46.797 Z M 416.27 41.207 L 416.27 44.793 L 419.109 44.793 Q 420.102 44.793 420.585 44.257 Q 421.06 43.721 421.06 43 Q 421.06 42.297 420.585 41.752 Q 420.128 41.207 419.109 41.207 Z M 416.27 35.898 L 416.27 39.3 L 418.933 39.3 Q 419.926 39.3 420.383 38.808 Q 420.858 38.324 420.858 37.603 Q 420.858 36.892 420.383 36.408 Q 419.909 35.898 418.933 35.898 Z M 425.209 46.797 Q 425.103 46.797 425.103 46.691 L 425.103 34.097 Q 425.103 33.991 425.209 33.991 L 427.116 33.991 Q 427.221 33.991 427.221 34.097 L 427.221 46.691 Q 427.221 46.797 427.116 46.797 Z M 426.553 32.857 Q 426.536 32.857 426.51 32.844 Q 426.483 32.831 426.474 32.822 L 424.049 30.256 Q 423.996 30.203 424.027 30.142 Q 424.057 30.08 424.128 30.08 L 426.061 30.08 Q 426.114 30.08 426.149 30.133 L 427.986 32.699 Q 428.012 32.761 427.99 32.809 Q 427.969 32.857 427.898 32.857 Z M 429.875 46.797 Q 429.769 46.797 429.769 46.691 L 429.769 34.097 Q 429.769 33.991 429.875 33.991 L 431.685 33.991 Q 431.738 33.991 431.773 34.044 L 437.31 42.763 L 437.31 34.097 Q 437.31 33.991 437.416 33.991 L 439.332 33.991 Q 439.437 33.991 439.437 34.097 L 439.437 46.691 Q 439.437 46.797 439.332 46.797 L 437.53 46.797 Q 437.477 46.797 437.442 46.744 L 431.887 38.025 L 431.887 46.691 Q 431.887 46.797 431.791 46.797 Z M 449.088 46.797 Q 448.982 46.797 448.982 46.691 L 448.982 41.295 L 444.192 41.295 L 444.192 46.691 Q 444.192 46.797 444.087 46.797 L 442.18 46.797 Q 442.074 46.797 442.074 46.691 L 442.074 34.097 Q 442.074 33.991 442.18 33.991 L 444.087 33.991 Q 444.192 33.991 444.192 34.097 L 444.192 39.388 L 448.982 39.388 L 448.982 34.097 Q 448.982 33.991 449.088 33.991 L 450.995 33.991 Q 451.1 33.991 451.1 34.097 L 451.1 46.691 Q 451.1 46.797 450.995 46.797 Z" transform="matrix(1.310387, 0, 0, 1.310387, -59.698296, -1.169035)" style="fill: rgb(255, 255, 255);"/>
    <path transform="matrix(1.310387, 0, 0, 1.310387, -59.698296, -1.169035)" style="fill: rgb(255, 255, 255);"/>
    <path d="M 374.133 72.357 Q 374.028 72.357 374.028 72.251 L 374.028 66.855 L 369.238 66.855 L 369.238 72.251 Q 369.238 72.357 369.132 72.357 L 367.225 72.357 Q 367.119 72.357 367.119 72.251 L 367.119 59.657 Q 367.119 59.551 367.225 59.551 L 369.132 59.551 Q 369.238 59.551 369.238 59.657 L 369.238 64.948 L 374.028 64.948 L 374.028 59.657 Q 374.028 59.551 374.133 59.551 L 376.04 59.551 Q 376.146 59.551 376.146 59.657 L 376.146 72.251 Q 376.146 72.357 376.04 72.357 Z M 377.647 72.348 Q 377.585 72.348 377.559 72.304 Q 377.532 72.26 377.55 72.207 L 382.155 59.604 Q 382.173 59.534 382.243 59.534 L 383.816 59.534 Q 383.843 59.534 383.874 59.556 Q 383.904 59.577 383.913 59.604 L 388.51 72.207 Q 388.527 72.26 388.501 72.304 Q 388.475 72.348 388.422 72.348 L 386.409 72.348 Q 386.339 72.348 386.321 72.278 L 385.372 69.5 L 380.732 69.5 Q 380.485 70.212 380.244 70.893 Q 380.002 71.575 379.756 72.278 Q 379.747 72.304 379.716 72.326 Q 379.686 72.348 379.659 72.348 Z M 384.739 67.611 Q 384.722 67.549 384.691 67.479 Q 384.66 67.409 384.643 67.356 Q 384.493 66.925 384.37 66.56 Q 384.247 66.196 384.15 65.923 Q 384.089 65.747 384.032 65.58 Q 383.975 65.413 383.922 65.264 Q 383.878 65.123 383.834 64.996 Q 383.79 64.869 383.746 64.745 Q 383.667 64.491 383.584 64.236 Q 383.5 63.981 383.412 63.708 Q 383.368 63.585 383.32 63.436 Q 383.272 63.286 383.219 63.119 Q 383.192 63.032 383.179 62.983 Q 383.166 62.935 383.148 62.887 Q 383.131 62.838 383.109 62.777 Q 383.087 62.715 383.052 62.601 Q 382.955 62.891 382.872 63.137 Q 382.788 63.383 382.718 63.594 Q 382.7 63.647 382.691 63.691 Q 382.683 63.735 382.665 63.779 Q 382.621 63.928 382.573 64.06 Q 382.524 64.192 382.481 64.324 Q 382.437 64.464 382.393 64.596 Q 382.349 64.728 382.305 64.851 Q 382.217 65.115 382.125 65.405 Q 382.032 65.695 381.918 66.011 Q 381.804 66.327 381.681 66.692 Q 381.558 67.057 381.364 67.611 Z M 382.916 58.417 Q 382.916 58.417 382.733 58.417 Q 382.551 58.417 382.331 58.417 L 382.331 58.013 Q 382.428 57.459 383.017 57.108 Q 383.94 56.721 383.86 56.194 Q 383.737 55.658 383.034 55.649 Q 382.103 55.666 382.05 56.554 L 380.74 56.554 Q 380.74 56.062 380.92 55.737 Q 381.101 55.411 381.408 55.104 Q 382.015 54.524 382.99 54.506 Q 384.019 54.524 384.678 55.086 Q 384.977 55.385 385.144 55.666 Q 385.311 55.948 385.319 56.378 Q 385.267 56.985 384.643 57.442 Q 384.115 57.697 383.834 57.846 L 383.729 57.96 L 383.614 58.136 L 383.597 58.417 Q 383.28 58.417 382.916 58.417 Z M 390.076 72.357 Q 389.971 72.357 389.971 72.251 L 389.971 59.657 Q 389.971 59.551 390.076 59.551 L 391.983 59.551 Q 392.089 59.551 392.089 59.657 L 392.089 72.251 Q 392.089 72.357 391.983 72.357 Z M 401.071 61.573 L 401.071 65.422 L 403.804 65.422 Q 404.815 65.422 405.307 64.816 Q 405.808 64.227 405.808 63.497 Q 405.808 62.408 405.035 61.907 Q 404.534 61.573 403.734 61.573 Z M 399.058 72.357 Q 398.953 72.357 398.953 72.251 L 398.953 59.657 Q 398.953 59.551 399.058 59.551 L 403.629 59.551 Q 404.384 59.551 405.061 59.709 Q 405.747 59.868 406.52 60.465 Q 406.819 60.702 407.07 61.015 Q 407.32 61.327 407.522 61.704 Q 407.716 62.091 407.821 62.557 Q 407.926 63.023 407.926 63.55 Q 407.926 64.93 406.889 66.187 Q 405.852 67.435 403.875 67.435 L 401.071 67.435 L 401.071 72.251 Q 401.071 72.357 400.966 72.357 Z M 416.636 72.357 Q 416.531 72.357 416.531 72.251 L 416.531 66.855 L 411.741 66.855 L 411.741 72.251 Q 411.741 72.357 411.635 72.357 L 409.728 72.357 Q 409.622 72.357 409.622 72.251 L 409.622 59.657 Q 409.622 59.551 409.728 59.551 L 411.635 59.551 Q 411.741 59.551 411.741 59.657 L 411.741 64.948 L 416.531 64.948 L 416.531 59.657 Q 416.531 59.551 416.636 59.551 L 418.543 59.551 Q 418.649 59.551 418.649 59.657 L 418.649 72.251 Q 418.649 72.357 418.543 72.357 Z M 420.862 65.958 Q 420.862 64.807 420.892 64.077 Q 420.923 63.348 420.976 63.014 Q 421.037 62.68 421.152 62.372 Q 421.266 62.065 421.433 61.766 L 421.424 61.766 Q 421.881 60.913 422.901 60.184 Q 423.929 59.446 425.458 59.446 Q 426.97 59.446 427.998 60.184 Q 429.035 60.931 429.492 61.766 Q 429.818 62.364 429.932 63.014 Q 429.993 63.348 430.024 64.077 Q 430.055 64.807 430.055 65.958 Q 430.055 68.217 429.932 68.911 Q 429.87 69.254 429.76 69.562 Q 429.651 69.869 429.501 70.151 Q 429.035 70.994 427.998 71.733 Q 426.961 72.462 425.458 72.462 Q 423.938 72.462 422.901 71.733 Q 421.881 71.012 421.424 70.151 L 421.433 70.151 Q 421.266 69.852 421.152 69.549 Q 421.037 69.245 420.976 68.911 Q 420.923 68.577 420.892 67.844 Q 420.862 67.11 420.862 65.958 Z M 422.98 65.958 Q 422.98 66.916 423.006 67.536 Q 423.032 68.156 423.103 68.454 Q 423.173 68.727 423.301 68.995 Q 423.428 69.263 423.586 69.465 Q 423.867 69.834 424.333 70.094 Q 424.799 70.353 425.458 70.353 Q 426.109 70.353 426.574 70.094 Q 427.04 69.834 427.313 69.465 Q 427.682 69.017 427.796 68.454 Q 427.937 67.892 427.937 65.958 Q 427.937 65 427.902 64.381 Q 427.866 63.761 427.796 63.471 Q 427.735 63.19 427.612 62.922 Q 427.489 62.654 427.322 62.443 Q 427.19 62.276 427.001 62.118 Q 426.812 61.959 426.574 61.841 Q 426.337 61.722 426.056 61.647 Q 425.775 61.573 425.458 61.573 Q 424.799 61.573 424.333 61.836 Q 423.867 62.1 423.586 62.443 Q 423.419 62.654 423.296 62.922 Q 423.173 63.19 423.103 63.471 Q 423.032 63.77 423.006 64.394 Q 422.98 65.018 422.98 65.958 Z M 426.003 58.417 Q 425.986 58.417 425.959 58.404 Q 425.933 58.391 425.924 58.382 L 423.498 55.816 Q 423.446 55.763 423.476 55.702 Q 423.507 55.64 423.577 55.64 L 425.511 55.64 Q 425.564 55.64 425.599 55.693 L 427.436 58.259 Q 427.462 58.321 427.44 58.369 Q 427.418 58.417 427.348 58.417 Z M 432.367 72.357 Q 432.261 72.357 432.261 72.251 L 432.261 59.657 Q 432.261 59.551 432.367 59.551 L 434.177 59.551 Q 434.23 59.551 434.265 59.604 L 439.802 68.323 L 439.802 59.657 Q 439.802 59.551 439.908 59.551 L 441.824 59.551 Q 441.929 59.551 441.929 59.657 L 441.929 72.251 Q 441.929 72.357 441.824 72.357 L 440.022 72.357 Q 439.969 72.357 439.934 72.304 L 434.379 63.585 L 434.379 72.251 Q 434.379 72.357 434.283 72.357 Z M 448.759 67.233 Q 448.653 67.233 448.653 67.127 L 448.653 65.317 Q 448.653 65.22 448.759 65.22 L 453.232 65.22 Q 453.338 65.22 453.338 65.317 L 453.338 67.883 Q 453.338 69.826 452.002 71.135 Q 450.648 72.462 448.741 72.462 Q 447.22 72.462 446.183 71.733 Q 445.164 71.012 444.707 70.151 L 444.716 70.151 Q 444.549 69.852 444.434 69.549 Q 444.32 69.245 444.259 68.911 Q 444.206 68.577 444.175 67.844 Q 444.144 67.11 444.144 65.958 Q 444.144 64.807 444.175 64.077 Q 444.206 63.348 444.259 63.014 Q 444.32 62.68 444.434 62.372 Q 444.549 62.065 444.716 61.766 L 444.707 61.766 Q 445.164 60.913 446.183 60.184 Q 447.212 59.446 448.741 59.446 Q 450.569 59.446 451.764 60.571 Q 452.977 61.696 453.267 63.26 Q 453.285 63.313 453.25 63.348 Q 453.215 63.383 453.162 63.383 L 451.149 63.383 Q 451.07 63.383 451.052 63.313 Q 450.938 62.961 450.727 62.658 Q 450.516 62.355 450.209 62.091 Q 449.629 61.573 448.741 61.573 Q 448.082 61.573 447.616 61.836 Q 447.15 62.1 446.869 62.443 Q 446.702 62.654 446.579 62.922 Q 446.456 63.19 446.385 63.471 Q 446.315 63.77 446.289 64.394 Q 446.262 65.018 446.262 65.958 Q 446.262 66.916 446.289 67.536 Q 446.315 68.156 446.385 68.454 Q 446.456 68.727 446.583 68.995 Q 446.711 69.263 446.869 69.465 Q 447.15 69.834 447.616 70.094 Q 448.082 70.353 448.741 70.353 Q 449.787 70.353 450.499 69.641 Q 451.219 68.929 451.219 67.778 L 451.219 67.233 Z" transform="matrix(1.310387, 0, 0, 1.310387, -59.698296, -1.169035)" style="fill: rgb(255, 255, 255);"/>
    <path d="M 426.152 119.118 Q 426.045 119.118 426.045 119.011 L 426.045 106.277 Q 426.045 106.17 426.152 106.17 L 434.292 106.17 Q 434.399 106.17 434.399 106.277 L 434.399 108.107 Q 434.399 108.214 434.292 108.214 L 428.187 108.214 L 428.187 111.626 L 433.377 111.626 Q 433.484 111.626 433.484 111.733 L 433.484 113.457 Q 433.484 113.555 433.377 113.555 L 428.187 113.555 L 428.187 117.092 L 434.292 117.092 Q 434.399 117.092 434.399 117.198 L 434.399 119.011 Q 434.399 119.118 434.292 119.118 Z M 442.572 119.118 Q 442.519 119.118 442.483 119.065 L 439.781 114.479 Q 439.106 115.634 438.431 116.772 Q 437.755 117.909 437.08 119.065 Q 437.044 119.118 436.991 119.118 L 434.814 119.118 Q 434.743 119.118 434.716 119.069 Q 434.689 119.02 434.725 118.958 L 438.591 112.48 Q 437.675 110.933 436.778 109.405 Q 435.88 107.876 434.974 106.33 Q 434.938 106.268 434.965 106.219 Q 434.992 106.17 435.054 106.17 L 437.24 106.17 Q 437.293 106.17 437.329 106.223 L 439.781 110.489 Q 440.395 109.422 441.008 108.361 Q 441.621 107.299 442.234 106.223 Q 442.27 106.17 442.323 106.17 L 444.509 106.17 Q 444.571 106.17 444.598 106.219 Q 444.625 106.268 444.589 106.33 L 440.972 112.48 Q 441.95 114.106 442.91 115.719 Q 443.869 117.332 444.847 118.958 Q 444.882 119.02 444.856 119.069 Q 444.829 119.118 444.758 119.118 Z M 448.149 108.214 L 448.149 112.106 L 450.913 112.106 Q 451.935 112.106 452.433 111.493 Q 452.939 110.898 452.939 110.16 Q 452.939 109.058 452.157 108.552 Q 451.65 108.214 450.842 108.214 Z M 446.114 119.118 Q 446.007 119.118 446.007 119.011 L 446.007 106.277 Q 446.007 106.17 446.114 106.17 L 450.735 106.17 Q 451.499 106.17 452.184 106.33 Q 452.877 106.49 453.659 107.094 Q 453.961 107.334 454.214 107.65 Q 454.468 107.965 454.672 108.347 Q 454.867 108.738 454.974 109.209 Q 455.081 109.68 455.081 110.213 Q 455.081 111.609 454.032 112.879 Q 452.983 114.141 450.984 114.141 L 448.149 114.141 L 448.149 119.011 Q 448.149 119.118 448.042 119.118 Z M 458.768 108.098 L 458.768 111.751 L 461.585 111.751 Q 462.616 111.751 463.131 111.182 Q 463.647 110.613 463.647 109.831 Q 463.647 109.387 463.491 109.04 Q 463.336 108.694 463.042 108.472 Q 462.785 108.294 462.442 108.196 Q 462.1 108.098 461.7 108.098 Z M 456.733 119.118 Q 456.626 119.118 456.626 119.011 L 456.626 106.277 Q 456.626 106.17 456.733 106.17 L 461.718 106.17 Q 462.545 106.17 463.211 106.397 Q 463.878 106.623 464.375 107.041 Q 464.633 107.281 464.869 107.587 Q 465.104 107.894 465.286 108.249 Q 465.468 108.605 465.575 109.005 Q 465.682 109.405 465.682 109.831 Q 465.682 110.462 465.504 111.027 Q 465.326 111.591 465.006 112.08 Q 464.677 112.533 464.242 112.875 Q 463.807 113.217 463.256 113.422 Q 463.975 114.799 464.704 116.19 Q 465.433 117.58 466.153 118.958 Q 466.179 119.02 466.153 119.069 Q 466.126 119.118 466.064 119.118 L 463.771 119.118 Q 463.744 119.118 463.718 119.096 Q 463.691 119.073 463.673 119.056 L 461.069 113.679 L 458.768 113.679 L 458.768 119.011 Q 458.768 119.118 458.661 119.118 Z M 467.66 119.118 Q 467.554 119.118 467.554 119.011 L 467.554 106.277 Q 467.554 106.17 467.66 106.17 L 475.801 106.17 Q 475.907 106.17 475.907 106.277 L 475.907 108.107 Q 475.907 108.214 475.801 108.214 L 469.695 108.214 L 469.695 111.626 L 474.885 111.626 Q 474.992 111.626 474.992 111.733 L 474.992 113.457 Q 474.992 113.555 474.885 113.555 L 469.695 113.555 L 469.695 117.092 L 475.801 117.092 Q 475.907 117.092 475.907 117.198 L 475.907 119.011 Q 475.907 119.118 475.801 119.118 Z M 477.682 115.848 Q 477.708 115.812 477.753 115.812 Q 477.797 115.812 477.833 115.839 Q 478.535 116.407 479.446 116.75 Q 480.357 117.092 481.37 117.092 Q 482.507 117.092 483.165 116.621 Q 483.787 116.168 483.787 115.421 Q 483.787 114.017 482.214 113.804 L 482.223 113.804 Q 482.001 113.777 481.801 113.75 Q 481.601 113.724 481.401 113.697 Q 481.201 113.67 480.992 113.639 Q 480.783 113.608 480.534 113.573 Q 479.699 113.457 479.046 113.15 Q 478.393 112.844 477.948 112.337 Q 477.504 111.822 477.282 111.213 Q 477.06 110.604 477.06 109.885 Q 477.06 108.196 478.179 107.139 Q 479.308 106.063 481.316 106.063 Q 481.912 106.063 482.476 106.166 Q 483.04 106.268 483.569 106.445 Q 484.098 106.623 484.582 106.868 Q 485.067 107.112 485.511 107.405 Q 485.6 107.467 485.538 107.556 L 484.462 109.147 Q 484.4 109.227 484.32 109.174 Q 483.627 108.738 482.845 108.476 Q 482.063 108.214 481.228 108.214 Q 480.801 108.214 480.437 108.316 Q 480.072 108.418 479.779 108.649 Q 479.201 109.067 479.201 109.92 Q 479.201 110.409 479.592 110.871 Q 479.788 111.084 480.117 111.231 Q 480.445 111.378 480.925 111.449 Q 481.183 111.493 481.53 111.542 Q 481.876 111.591 482.347 111.644 Q 484.169 111.866 485.049 112.986 Q 485.929 114.079 485.929 115.421 Q 485.929 117.216 484.676 118.229 Q 483.414 119.225 481.352 119.225 Q 478.446 119.225 476.411 117.447 Q 476.375 117.421 476.375 117.376 Q 476.375 117.332 476.402 117.296 Z M 487.952 115.848 Q 487.978 115.812 488.023 115.812 Q 488.067 115.812 488.103 115.839 Q 488.805 116.407 489.716 116.75 Q 490.627 117.092 491.64 117.092 Q 492.777 117.092 493.435 116.621 Q 494.057 116.168 494.057 115.421 Q 494.057 114.017 492.484 113.804 L 492.493 113.804 Q 492.271 113.777 492.071 113.75 Q 491.871 113.724 491.671 113.697 Q 491.471 113.67 491.262 113.639 Q 491.053 113.608 490.804 113.573 Q 489.969 113.457 489.316 113.15 Q 488.663 112.844 488.218 112.337 Q 487.774 111.822 487.552 111.213 Q 487.33 110.604 487.33 109.885 Q 487.33 108.196 488.449 107.139 Q 489.578 106.063 491.586 106.063 Q 492.182 106.063 492.746 106.166 Q 493.311 106.268 493.839 106.445 Q 494.368 106.623 494.852 106.868 Q 495.337 107.112 495.781 107.405 Q 495.87 107.467 495.808 107.556 L 494.732 109.147 Q 494.67 109.227 494.59 109.174 Q 493.897 108.738 493.115 108.476 Q 492.333 108.214 491.498 108.214 Q 491.071 108.214 490.707 108.316 Q 490.342 108.418 490.049 108.649 Q 489.471 109.067 489.471 109.92 Q 489.471 110.409 489.862 110.871 Q 490.058 111.084 490.387 111.231 Q 490.716 111.378 491.195 111.449 Q 491.453 111.493 491.8 111.542 Q 492.146 111.591 492.617 111.644 Q 494.439 111.866 495.319 112.986 Q 496.199 114.079 496.199 115.421 Q 496.199 117.216 494.946 118.229 Q 493.684 119.225 491.622 119.225 Q 488.716 119.225 486.681 117.447 Q 486.645 117.421 486.645 117.376 Q 486.645 117.332 486.672 117.296 Z M 500.204 119.118 Q 500.115 119.118 500.097 119.038 L 496.907 106.303 Q 496.889 106.25 496.924 106.21 Q 496.96 106.17 497.013 106.17 L 499.057 106.17 Q 499.146 106.17 499.164 106.25 L 501.083 114.95 Q 501.67 112.764 502.265 110.604 Q 502.861 108.445 503.456 106.25 Q 503.474 106.17 503.563 106.17 L 504.958 106.17 Q 505.038 106.17 505.056 106.25 L 507.437 114.95 Q 507.917 112.764 508.397 110.604 Q 508.877 108.445 509.357 106.25 Q 509.375 106.17 509.464 106.17 L 511.508 106.17 Q 511.561 106.17 511.596 106.21 Q 511.632 106.25 511.614 106.303 L 508.424 119.038 Q 508.406 119.118 508.317 119.118 L 506.709 119.118 Q 506.629 119.118 506.611 119.038 L 504.256 110.196 Q 503.669 112.426 503.083 114.621 Q 502.496 116.816 501.91 119.038 Q 501.892 119.118 501.812 119.118 Z M 511.528 119.109 Q 511.466 119.109 511.439 119.065 Q 511.412 119.02 511.43 118.967 L 516.087 106.223 Q 516.104 106.152 516.175 106.152 L 517.766 106.152 Q 517.793 106.152 517.824 106.174 Q 517.855 106.197 517.864 106.223 L 522.512 118.967 Q 522.529 119.02 522.503 119.065 Q 522.476 119.109 522.423 119.109 L 520.388 119.109 Q 520.317 119.109 520.299 119.038 L 519.339 116.23 L 514.647 116.23 Q 514.398 116.95 514.154 117.638 Q 513.909 118.327 513.661 119.038 Q 513.652 119.065 513.621 119.087 Q 513.589 119.109 513.563 119.109 Z M 518.699 114.319 Q 518.682 114.257 518.65 114.186 Q 518.619 114.115 518.602 114.061 Q 518.45 113.626 518.326 113.257 Q 518.202 112.888 518.104 112.613 Q 518.042 112.435 517.984 112.266 Q 517.926 112.097 517.873 111.946 Q 517.828 111.804 517.784 111.675 Q 517.74 111.546 517.695 111.422 Q 517.615 111.164 517.531 110.907 Q 517.446 110.649 517.357 110.373 Q 517.313 110.249 517.264 110.098 Q 517.215 109.947 517.162 109.778 Q 517.135 109.689 517.122 109.64 Q 517.109 109.591 517.091 109.542 Q 517.073 109.494 517.051 109.431 Q 517.029 109.369 516.993 109.254 Q 516.895 109.547 516.811 109.796 Q 516.726 110.045 516.655 110.258 Q 516.638 110.311 516.629 110.356 Q 516.62 110.4 516.602 110.444 Q 516.558 110.596 516.509 110.729 Q 516.46 110.862 516.415 110.995 Q 516.371 111.138 516.327 111.271 Q 516.282 111.404 516.238 111.529 Q 516.149 111.795 516.056 112.089 Q 515.962 112.382 515.847 112.702 Q 515.731 113.022 515.607 113.39 Q 515.482 113.759 515.287 114.319 Z M 525.493 119.118 Q 525.395 119.118 525.395 119.011 L 525.395 113.804 Q 524.435 111.929 523.484 110.062 Q 522.533 108.196 521.582 106.321 Q 521.556 106.259 521.582 106.214 Q 521.609 106.17 521.68 106.17 L 523.706 106.17 Q 523.733 106.17 523.76 106.192 Q 523.786 106.214 523.804 106.232 L 526.417 111.689 Q 527.074 110.311 527.719 108.96 Q 528.363 107.61 529.021 106.232 Q 529.038 106.214 529.065 106.192 Q 529.092 106.17 529.118 106.17 L 531.153 106.17 Q 531.224 106.17 531.251 106.214 Q 531.278 106.259 531.251 106.321 L 527.43 113.804 L 527.43 119.011 Q 527.43 119.118 527.323 119.118 Z" style="fill: rgb(255, 255, 255);"/>
    <path d="M 396.43 190.631 L 396.43 170.109 L 392.983 172.672 L 392.983 169.014 L 396.43 166.486 L 399.859 166.486 L 399.859 190.631 Z M 414.645 190.785 L 404.357 190.785 L 404.357 187.603 L 410.774 175.142 Q 411.198 174.276 411.198 173.374 L 411.198 171.571 Q 411.198 170.847 410.694 170.334 Q 410.19 169.822 409.466 169.822 Q 408.812 169.822 408.29 170.272 Q 407.769 170.723 407.769 171.412 L 407.769 173.551 L 404.287 173.551 L 404.287 171.819 Q 404.287 170.405 405.356 168.416 Q 406.425 166.428 409.642 166.428 Q 411.675 166.428 413.16 167.983 Q 414.645 169.539 414.645 171.571 L 414.645 173.763 Q 414.645 174.523 414.441 175.248 Q 414.238 175.973 413.849 176.733 L 408.405 187.338 L 414.645 187.338 Z M 422.784 190.856 Q 418.984 190.131 418.365 186.401 Q 418.365 182.53 418.365 178.642 Q 418.365 174.753 418.365 170.847 Q 418.843 168.019 420.867 167.038 Q 422.89 166.057 425.489 166.64 Q 426.797 167.435 427.592 168.319 Q 428.388 169.203 428.688 170.847 Q 428.688 174.753 428.688 178.624 Q 428.688 182.495 428.688 186.331 Q 428.176 189.848 424.923 190.82 Q 424.517 190.82 424.243 190.838 Q 423.969 190.856 422.784 190.856 Z M 423.138 187.374 Q 424.729 187.374 425.171 185.977 Q 425.171 182.318 425.171 178.677 Q 425.171 175.036 425.171 171.377 Q 424.959 170.723 424.693 170.299 Q 423.651 169.503 422.926 169.954 Q 422.201 170.405 421.883 171.377 Q 421.883 175.001 421.883 178.642 Q 421.883 182.283 421.883 185.906 Q 422.095 187.02 423.138 187.374 Z"/>
    <path d="M 341.369 84.558 Q 341.441 84.558 341.489 84.612 Q 341.537 84.666 341.513 84.738 Q 341.009 87.189 339.279 88.51 Q 338.438 89.147 337.453 89.471 Q 336.468 89.795 335.327 89.795 Q 333.249 89.795 331.832 88.798 Q 330.438 87.813 329.814 86.636 Q 329.598 86.228 329.441 85.813 Q 329.285 85.399 329.201 84.942 Q 329.045 84.054 329.045 80.906 Q 329.045 79.333 329.081 78.336 Q 329.117 77.339 329.201 76.883 Q 329.285 76.426 329.441 76.006 Q 329.598 75.585 329.814 75.177 Q 330.438 74.012 331.832 73.015 Q 333.237 72.006 335.327 72.006 Q 337.826 72.006 339.459 73.543 Q 341.117 75.093 341.513 77.219 Q 341.537 77.291 341.489 77.339 Q 341.441 77.387 341.369 77.387 L 338.618 77.387 Q 338.51 77.387 338.486 77.291 Q 338.33 76.81 338.042 76.396 Q 337.754 75.982 337.333 75.621 Q 336.54 74.913 335.327 74.913 Q 334.426 74.913 333.79 75.273 Q 333.153 75.633 332.769 76.102 Q 332.54 76.39 332.372 76.756 Q 332.204 77.123 332.108 77.507 Q 332.012 77.916 331.976 78.768 Q 331.94 79.621 331.94 80.906 Q 331.94 82.216 331.976 83.063 Q 332.012 83.909 332.108 84.318 Q 332.204 84.69 332.378 85.057 Q 332.552 85.423 332.769 85.699 Q 333.153 86.204 333.79 86.558 Q 334.426 86.912 335.327 86.912 Q 337.405 86.912 338.486 84.642 Q 338.51 84.618 338.546 84.588 Q 338.582 84.558 338.618 84.558 Z M 346.397 89.651 Q 346.253 89.651 346.253 89.507 L 346.253 74.756 L 341.677 74.756 Q 341.532 74.756 341.532 74.612 L 341.532 72.294 Q 341.532 72.15 341.677 72.15 L 353.712 72.15 Q 353.856 72.15 353.856 72.294 L 353.856 74.612 Q 353.856 74.756 353.712 74.756 L 349.148 74.756 L 349.148 89.507 Q 349.148 89.651 349.004 89.651 Z M 354.225 89.651 Q 354.081 89.651 354.081 89.507 L 354.081 87.068 Q 354.081 86.924 354.225 86.924 L 356.676 86.924 Q 356.808 86.924 356.808 87.068 L 356.808 89.507 Q 356.808 89.651 356.676 89.651 Z M 365.17 77.327 Q 365.17 76.162 364.552 75.507 Q 363.933 74.853 362.9 74.853 Q 361.867 74.853 361.255 75.507 Q 360.642 76.162 360.642 77.327 L 360.642 84.594 Q 360.642 85.771 361.255 86.42 Q 361.867 87.068 362.9 87.068 Q 363.933 87.068 364.552 86.42 Q 365.17 85.771 365.17 84.594 Z M 357.903 77.183 Q 357.903 74.756 359.429 73.447 Q 360.942 72.114 362.9 72.114 Q 363.873 72.114 364.744 72.456 Q 365.615 72.799 366.372 73.447 Q 367.128 74.12 367.519 75.051 Q 367.909 75.982 367.909 77.183 L 367.909 84.738 Q 367.909 87.153 366.372 88.474 Q 364.858 89.795 362.9 89.795 Q 360.942 89.795 359.429 88.474 Q 357.903 87.165 357.903 84.738 Z M 372.401 77.159 Q 372.401 78.312 373.097 78.889 Q 373.83 79.477 374.707 79.477 Q 375.584 79.477 376.305 78.889 Q 377.025 78.3 377.025 77.159 Q 377.025 76.042 376.305 75.453 Q 375.62 74.853 374.707 74.853 Q 373.818 74.853 373.097 75.453 Q 372.401 76.03 372.401 77.159 Z M 369.362 84.522 Q 369.362 83.285 369.848 82.324 Q 370.335 81.363 371.284 80.666 Q 370.551 79.982 370.107 79.153 Q 369.662 78.324 369.662 77.207 Q 369.662 75.081 371.103 73.603 Q 372.581 72.114 374.707 72.114 Q 376.845 72.114 378.299 73.603 Q 379.764 75.105 379.764 77.207 Q 379.764 77.759 379.644 78.24 Q 379.524 78.72 379.307 79.147 Q 379.091 79.573 378.791 79.952 Q 378.491 80.33 378.142 80.666 Q 380.064 82.048 380.064 84.522 Q 380.064 85.675 379.662 86.636 Q 379.259 87.597 378.467 88.342 Q 377.686 89.038 376.737 89.417 Q 375.788 89.795 374.707 89.795 Q 372.509 89.795 370.947 88.342 Q 369.362 86.852 369.362 84.522 Z M 372.088 84.498 Q 372.088 85.051 372.299 85.519 Q 372.509 85.987 372.869 86.336 Q 373.674 87.068 374.707 87.068 Q 375.74 87.068 376.545 86.336 Q 376.929 85.975 377.133 85.513 Q 377.338 85.051 377.338 84.498 Q 377.338 83.381 376.545 82.66 Q 375.764 81.915 374.707 81.915 Q 373.674 81.915 372.869 82.66 Q 372.088 83.381 372.088 84.498 Z"/>
  </g>
</svg>