<?xml version="1.0" encoding="UTF-8" standalone="no"?>
<svg
   xmlns:dc="http://purl.org/dc/elements/1.1/"
   xmlns:cc="http://creativecommons.org/ns#"
   xmlns:rdf="http://www.w3.org/1999/02/22-rdf-syntax-ns#"
   xmlns:svg="http://www.w3.org/2000/svg"
   xmlns="http://www.w3.org/2000/svg"
   xmlns:sodipodi="http://sodipodi.sourceforge.net/DTD/sodipodi-0.dtd"
   xmlns:inkscape="http://www.inkscape.org/namespaces/inkscape"
   sodipodi:docname="Vietnam_road_sign_S510.svg"
   inkscape:version="1.0 (4035a4fb49, 2020-05-01)"
   id="svg848"
   version="1.1"
   viewBox="0 0 787.99054 900"
   height="900mm"
   width="787.99054mm">
  <defs
     id="defs842">
    <clipPath
       id="clip88">
      <path
         d="M 361,1.980469 H 581 V 151 H 361 Z m 0,0"
         id="path1418" />
    </clipPath>
    <clipPath
       id="clip90">
      <path
         d="M 376,1.980469 H 587 V 151 H 376 Z m 0,0"
         id="path1424" />
    </clipPath>
    <clipPath
       id="clip91">
      <path
         d="M 383,1.980469 H 595 V 151 H 383 Z m 0,0"
         id="path1427" />
    </clipPath>
    <clipPath
       id="clip92">
      <path
         d="M 389,1.980469 H 600 V 151 H 389 Z m 0,0"
         id="path1430" />
    </clipPath>
    <clipPath
       id="clip93">
      <path
         d="M 395,1.980469 H 610.73828 V 151 H 395 Z m 0,0"
         id="path1433" />
    </clipPath>
    <clipPath
       id="clip94">
      <path
         d="M 407,1.980469 H 610.73828 V 151 H 407 Z m 0,0"
         id="path1436" />
    </clipPath>
    <clipPath
       id="clip95">
      <path
         d="M 413,1.980469 H 610.73828 V 151 H 413 Z m 0,0"
         id="path1439" />
    </clipPath>
    <clipPath
       id="clip96">
      <path
         d="M 415,1.980469 H 610.73828 V 151 H 415 Z m 0,0"
         id="path1442" />
    </clipPath>
    <clipPath
       id="clip132">
      <path
         d="M 149,1.980469 H 360 V 186 H 149 Z m 0,0"
         id="path1550" />
    </clipPath>
    <clipPath
       id="clip133">
      <path
         d="M 155,1.980469 H 366 V 186 H 155 Z m 0,0"
         id="path1553" />
    </clipPath>
    <clipPath
       id="clip135">
      <path
         d="M 164,1.980469 H 375 V 186 H 164 Z m 0,0"
         id="path1559" />
    </clipPath>
    <clipPath
       id="clip136">
      <path
         d="M 167,1.980469 H 378 V 186 H 167 Z m 0,0"
         id="path1562" />
    </clipPath>
    <clipPath
       id="clip137">
      <path
         d="M 170,1.980469 H 381 V 186 H 170 Z m 0,0"
         id="path1565" />
    </clipPath>
    <clipPath
       id="clip138">
      <path
         d="M 177,1.980469 H 388 V 186 H 177 Z m 0,0"
         id="path1568" />
    </clipPath>
    <clipPath
       id="clip140">
      <path
         d="M 185,1.980469 H 397 V 186 H 185 Z m 0,0"
         id="path1574" />
    </clipPath>
    <clipPath
       id="clip141">
      <path
         d="M 191,1.980469 H 402 V 186 H 191 Z m 0,0"
         id="path1577" />
    </clipPath>
  </defs>
  <sodipodi:namedview
     inkscape:document-rotation="0"
     inkscape:measure-end="0,0"
     inkscape:measure-start="0,0"
     showguides="false"
     fit-margin-bottom="0"
     fit-margin-right="0"
     fit-margin-left="0"
     fit-margin-top="0"
     inkscape:window-maximized="1"
     inkscape:window-y="-9"
     inkscape:window-x="-9"
     inkscape:window-height="1001"
     inkscape:window-width="1920"
     inkscape:snap-global="false"
     showgrid="false"
     inkscape:current-layer="layer1"
     inkscape:document-units="mm"
     inkscape:cy="1876.4248"
     inkscape:cx="-403.59638"
     inkscape:zoom="0.125"
     inkscape:pageshadow="2"
     inkscape:pageopacity="0.0"
     borderopacity="1.0"
     bordercolor="#666666"
     pagecolor="#ffffff"
     id="base" />
  <metadata
     id="metadata845">
    <rdf:RDF>
      <cc:Work
         rdf:about="">
        <dc:format>image/svg+xml</dc:format>
        <dc:type
           rdf:resource="http://purl.org/dc/dcmitype/StillImage" />
        <dc:title></dc:title>
      </cc:Work>
    </rdf:RDF>
  </metadata>
  <g
     transform="translate(0,1003)"
     id="layer1"
     inkscape:groupmode="layer"
     inkscape:label="Layer 1">
    <path
       sodipodi:nodetypes="ccccc"
       d="m 0,-1003 h 787.99051 v 899.99999 H 0 Z"
       style="opacity:1;fill:#f00a0a;fill-opacity:1;fill-rule:nonzero;stroke:none;stroke-width:4.58493;stroke-linecap:butt;stroke-linejoin:miter;stroke-miterlimit:10;stroke-dasharray:none;stroke-opacity:1;paint-order:stroke fill markers"
       id="rect1393" />
    <path
       sodipodi:nodetypes="cccccccccc"
       d="m 5.3848843,-997.61512 v 889.2305 H 782.60597 v -889.2305 z M 16.154096,-986.8459 H 771.83677 v 867.69208 H 16.154096 Z"
       style="opacity:1;fill:#ffffff;fill-opacity:1;fill-rule:nonzero;stroke:none;stroke-width:4.5418;stroke-linecap:butt;stroke-linejoin:miter;stroke-miterlimit:10;stroke-dasharray:none;stroke-opacity:1;paint-order:stroke fill markers"
       id="rect1395" />
    <g
       id="text2719"
       style="font-style:normal;font-variant:normal;font-weight:bold;font-stretch:normal;font-size:184.173px;line-height:0;font-family:Giaothong1;-inkscape-font-specification:'Giaothong1 Bold';letter-spacing:0px;word-spacing:0.486833px;fill:#ffffff;fill-opacity:1;stroke:none;stroke-width:0.959232"
       aria-label="CÔNG TRƯỜNG">
      <g
         id="text2888"
         style="font-style:normal;font-variant:normal;font-weight:bold;font-stretch:normal;font-size:187.408px;line-height:0;font-family:Giaothong1;-inkscape-font-specification:'Giaothong1 Bold';letter-spacing:0.00264583px;word-spacing:0px;fill:#ffffff;fill-opacity:1;stroke:none;stroke-width:0.936293"
         aria-label="AHEAD">
        <g
           id="text2903"
           style="font-style:normal;font-variant:normal;font-weight:bold;font-stretch:normal;font-size:184.173px;line-height:0;font-family:Giaothong1;-inkscape-font-specification:'Giaothong1 Bold';letter-spacing:0.00529167px;word-spacing:0px;fill:#ffffff;fill-opacity:1;stroke:none;stroke-width:0.898123"
           aria-label="WORKS">
          <path
             sodipodi:nodetypes="ccccc"
             style="opacity:0.547541;fill:none;stroke:#ff0000;stroke-width:0.0419806;stroke-linecap:butt;stroke-linejoin:miter;stroke-miterlimit:10;stroke-opacity:1"
             d="M 0.02260511,-103.03131 H 787.94947 V -1002.9772 H 0.02260511 Z"
             id="path4089" />
          <path
             sodipodi:nodetypes="ccccc"
             style="opacity:0.547541;fill:none;stroke:#ff0000;stroke-width:0.0419806;stroke-linecap:butt;stroke-linejoin:miter;stroke-miterlimit:10;stroke-opacity:1"
             d="M 5.3637522,-108.3727 H 782.60836 V -997.63639 H 5.3637522 Z"
             id="path4091" />
          <path
             sodipodi:nodetypes="ccccccccccssssssccssssssssccsssccccccccccccccsssccssscccccccccccccccccccccccccccccccccccccccccccccccccccccccccccccccccccccccccccccccccccccccccccccccccccccccccccccccccccccsssccsssccccccccccccssssssssccccccccccsssssssscccccssssssccccccssssssccsssccccccssssccccccccccccccccccccccccccccccssscccccccccccccsssssssssssssscsccscccssssccccccccccccccccccccccccccsscccccsccccssssssccssssssssccsssssssssccccccssssssccssssssssssssccccsssscssccccccccccccccccccccccccccccccccsssccsssccccccccccccccccccccccccccccccccccccccsssssssscsssscccccccsssscc"
             id="rect5452"
             style="opacity:1;fill:#ffffff;fill-opacity:1;fill-rule:evenodd;stroke-width:0.305;stroke-linejoin:round;paint-order:stroke fill markers"
             d="m 423.35073,-959.05331 -21.68085,28.65837 h 12.64009 l 28.7664,-28.65837 z m 117.76385,0 -21.67996,28.65837 h 12.63956 l 28.76695,-28.65837 z m -287.80548,37.69883 c -17.86267,0 -32.24431,14.38566 -32.24431,32.24766 v 78.22539 c 0,17.86175 14.38254,32.24291 32.24431,32.24291 h 0.11685 c 17.8631,0 32.24475,-14.38116 32.24475,-32.24291 v -9.08225 H 265.945 v 9.59302 c 0,6.4531 -5.19724,11.65458 -11.65098,11.65458 h -1.77837 c -6.45344,0 -11.65522,-5.20148 -11.65522,-11.65458 v -79.1123 c 0,-6.45319 5.20178,-11.64999 11.65522,-11.64999 h 1.77837 c 6.45374,0 11.65098,5.1968 11.65098,11.64999 v 9.54661 h 19.7257 v -9.17047 c 0,-17.862 -14.38165,-32.24766 -32.24475,-32.24766 z m 49.96903,1.22587 v 140.26899 h 19.8282 v -62.62868 h 25.55824 v 62.62868 h 19.82703 v -140.26899 h -19.82703 v 59.97261 h -25.55824 v -59.97261 z m 86.48544,0 v 108.92219 c 0,18.06368 14.54265,32.60511 32.60778,32.60511 18.06396,0 32.60654,-14.54143 32.60654,-32.60511 v -108.92219 h -20.03742 v 108.95931 c 0,6.97209 -5.6107,12.58333 -12.58359,12.58333 -6.97217,0 -12.58812,-5.61124 -12.58812,-12.58333 v -108.95931 z m 112.9495,0 27.12718,79.87382 v 60.39517 h 20.00491 v -60.39517 l 27.71663,-79.87382 h -21.04916 l -16.61904,54.94867 -16.12688,-54.94867 z m -108.72801,220.72781 -14.42743,10.02937 0.005,20.93666 -18.7505,-4.17898 -12.40302,5.70667 7.89391,14.57524 23.25961,6.40764 0.009,60.07961 -2.74859,1.82933 -56.89716,-31.69032 6.34777,-23.34186 -9.01818,-13.43309 -11.2746,6.84424 -5.26101,19.72941 -18.86676,-10.43342 -14.44076,7.85635 2.25184,15.49925 17.71539,9.38404 -13.52737,16.7438 0.0905,13.57682 15.63081,0.0181 18.10444,-19.03755 52.72319,29.53588 v 10.039 l -52.75081,29.49399 -18.03996,-19.08393 H 273.9006 l -0.0904,13.5353 13.65197,15.65717 -18.30062,10.67012 -1.67564,15.35539 14.38525,7.8797 18.86641,-10.47074 5.22433,18.69398 11.26011,7.82864 9.03181,-13.36817 -6.36108,-24.4143 55.98221,-30.64566 3.69135,1.88518 v 61.16126 l -23.35665,5.34918 -7.71778,14.48697 12.32396,6.7931 18.75047,-5.15848 v 20.82486 l 14.42757,10.04371 12.2917,-10.04371 v -20.9039 l 20.99787,5.21903 11.14861,-6.7979 -6.62142,-14.47299 -25.52506,-5.31194 v -61.08695 -0.0543 l 5.8274,-1.9362 54.98396,30.64557 -5.36827,24.41441 9.03705,13.36807 10.22483,-7.8983 6.25515,-18.62887 17.76569,10.39653 15.49051,-7.80085 -2.14938,-15.56894 -18.80182,-10.4705 14.62714,-15.64322 -0.0904,-13.54003 H 498.3785 l -18.04062,19.08861 -52.75007,-29.50803 v -10.02491 l 52.72218,-29.53587 18.10554,19.0328 15.63513,-0.0181 0.0904,-13.57692 -14.57129,-16.6879 18.75957,-9.43979 2.25179,-15.51312 -15.59287,-7.81465 -17.71018,10.40553 -6.33854,-19.72943 -10.19718,-6.84417 -9.02252,13.42843 5.33114,23.34188 -55.88076,31.695 -4.81523,-1.88517 h -0.0904 v -0.0271 -60.0611 l 25.45122,-6.38448 6.72845,-14.58916 -11.29758,-5.65551 -20.88209,4.16516 v -20.92277 z m -116.16719,327.64414 16.01534,15.95888 h 7.03959 l -12.07339,-15.95888 z m -15.17949,15.42945 -4.01695,3.59854 c 1.12796,1.50498 2.05088,3.71882 1.3695,5.37715 -0.69173,1.67642 -2.26716,3.49587 -4.12799,3.45441 v -6.14297 H 244.6809 v 60.8179 c 0,3.8915 -3.13324,7.02518 -7.02508,7.02518 -3.89137,0 -7.02592,-3.13368 -7.02592,-7.02518 v -60.8179 h -11.16736 v 60.79919 c 0,10.08316 8.11843,18.20178 18.20229,18.20178 10.08388,0 18.19811,-8.11862 18.19811,-18.20178 v -49.10739 c 2.71469,0.0181 4.64379,-0.90593 6.13468,-1.89897 1.50316,-1.00232 2.6167,-2.1082 3.34822,-3.79831 0.51201,-1.18435 0.66461,-2.50655 0.63793,-3.86781 0,-1.18742 -0.17087,-2.4028 -0.54808,-3.58001 -0.60237,-1.86252 -1.72626,-3.65966 -2.80093,-4.83383 z m 48.19045,0.3532 -3.56174,3.66376 c 0.22441,0.41853 1.28936,3.33787 0.61092,4.99594 -0.69174,1.67661 -1.99401,2.89216 -3.53872,3.69605 v 0.0452 c -3.44662,-4.35861 -8.77529,-7.15541 -14.78939,-7.15541 h -0.0904 c -10.44418,0 -18.85242,8.40813 -18.85242,18.85188 v 42.04942 c 0,10.44365 8.40913,18.85183 18.85242,18.85183 h 0.0904 c 10.4442,0 18.85279,-8.40818 18.85279,-18.85183 v -42.04942 c 0,-2.51628 -0.49395,-4.90905 -1.38359,-7.09963 h 0.005 c 4.52507,-1.56371 5.96189,-3.50438 6.73858,-6.7698 0.79063,-3.34604 -0.79099,-8.03771 -2.89803,-10.22938 z m 257.24237,0 -3.56215,3.66376 c 0.22485,0.41853 1.28957,3.33797 0.61112,4.99594 -0.69198,1.67661 -1.99387,2.89216 -3.5385,3.69605 v 0.0452 c -3.44709,-4.35861 -8.77567,-7.15541 -14.78984,-7.15541 h -0.0904 c -10.44419,0 -18.85199,8.40813 -18.85199,18.85188 v 42.04942 c 0,10.44365 8.4078,18.85183 18.85199,18.85183 h 0.0904 c 10.44418,0 18.85321,-8.40818 18.85321,-18.85183 v -42.04942 c 0,-2.51628 -0.49438,-4.90905 -1.38392,-7.09963 h 0.005 c 4.52622,-1.56371 5.96215,-3.50438 6.73838,-6.7698 0.79073,-3.34604 -0.79066,-8.03771 -2.89792,-10.22938 z m -177.81056,5.24694 c -10.44413,0 -18.85229,8.40802 -18.85229,18.85187 v 42.0494 c 0,10.44368 8.40816,18.85186 18.85229,18.85186 h 0.0904 c 10.44413,0 18.85293,-8.40818 18.85293,-18.85186 v -25.33825 h -11.10277 -0.15281 -8.92473 v 9.73702 h 8.92473 v 15.53622 c 0,4.24564 -3.41096,7.65687 -7.65681,7.65687 -4.24571,0 -7.67104,-3.41123 -7.67104,-7.65687 v -42.17007 c 0,-4.24574 3.42533,-7.67079 7.67104,-7.67079 4.24585,0 7.65681,3.42505 7.65681,7.67079 v 4.46668 h 11.25652 v -4.281 c 0,-10.44385 -8.40882,-18.85187 -18.85293,-18.85187 z m -215.33006,0.68744 v 33.26927 h -6.84445 v 9.45833 h 6.84445 v 35.60923 h 17.99404 c 10.08382,0 18.20257,-8.11803 18.20257,-18.2018 v -41.93343 c 0,-10.08377 -8.11875,-18.2016 -18.20257,-18.2016 z m 145.05488,0 v 78.33683 h 11.16744 v -47.5474 l 17.4927,47.5474 h 10.43878 v -78.33683 h -11.173 v 47.44029 l -17.38484,-47.44029 z m 115.35506,0 v 10.43804 h 13.12732 v 67.89879 h 11.17197 v -67.89879 h 13.36893 v -10.43804 z m 45.75266,0 v 78.33683 h 11.17206 v -33.58499 h 7.01609 l 10.57815,33.58499 h 11.86939 l -11.86939,-35.95753 v -0.0814 c 5.50641,-3.16816 9.2085,-9.0921 9.2085,-15.92645 v -7.98184 c 0,-10.18608 -8.20216,-18.38732 -18.38836,-18.38732 h -8.38184 z m 96.19995,0 v 78.33683 h 11.16754 v -47.5474 l 17.49187,47.5474 h 10.43879 v -78.33683 h -11.17208 v 47.44029 l -17.38576,-47.44029 z m -287.84755,10.30815 c 4.24587,0 7.66135,3.42505 7.66135,7.67077 v 42.17009 c 0,4.24573 -3.41548,7.65686 -7.66135,7.65686 -4.24677,0 -7.67129,-3.41113 -7.67129,-7.65686 v -42.17009 c 0,-4.24572 3.42452,-7.67077 7.67129,-7.67077 z m 257.24201,0 c 4.24577,0 7.66126,3.42505 7.66126,7.67077 v 42.17009 c 0,4.24573 -3.41549,7.65686 -7.66126,7.65686 -4.24572,0 -7.67107,-3.41113 -7.67107,-7.65686 v -42.17009 c 0,-4.24572 3.42535,-7.67077 7.67107,-7.67077 z m -54.42235,0.13026 h 8.25611 c 4.0751,0 7.35591,3.28022 7.35501,7.35505 v 9.72773 c 9e-4,4.07448 -3.27991,7.35485 -7.35501,7.35485 h -8.25611 z m -306.23165,0.1393 h 6.18478 c 4.27117,0 7.70924,3.43779 7.70924,7.70769 v 41.90592 c 0,4.26997 -3.43807,7.70783 -7.70924,7.70775 h -6.18478 v -25.17112 h 7.40171 v -9.45842 h -7.40171 z m 449.28975,72.44925 -12.06879,15.95434 h 7.03493 l 16.01984,-15.95434 z m -456.9511,5.22833 -12.06886,15.95882 h 7.03507 l 16.01533,-15.95882 z m 430.28322,5.36286 -11.69679,11.7661 h 7.75469 l 8.02779,-6.14755 8.27504,6.14755 h 7.85264 l -11.59067,-11.7661 z m -314.74325,0.13949 c 0,4.06079 1.4775,6.32487 3.83986,8.47841 0.98133,0.89412 2.70552,1.82808 4.71373,2.43308 1.59592,0.48082 3.37173,0.73323 5.09867,0.73323 4.70119,0 8.08192,-1.66491 10.36401,-4.02097 2.28255,-2.35603 3.07769,-5.86921 3.28815,-7.6242 h -5.63782 c -0.12569,0.77527 -1.06851,2.44092 -2.40104,3.48232 -0.76355,0.59471 -1.63006,1.02515 -2.69753,1.3093 -0.79965,0.21395 -1.69282,0.35764 -2.86998,0.35764 -1.00741,0 -2.04412,-0.11205 -2.97613,-0.32521 -1.17175,-0.26774 -2.4171,-0.78697 -3.29669,-1.64386 -0.86292,-0.83809 -1.44945,-2.12839 -1.69037,-3.18036 z m -161.55786,15.48528 c -9.99378,0 -18.03983,8.04576 -18.03983,18.03907 v 43.76308 c 0,9.99319 8.04693,18.03893 18.03983,18.03893 h 0.0904 c 9.99379,0 18.04072,-8.04574 18.04072,-18.03893 v -5.07996 h -11.03795 v 5.36787 c 0,3.61023 -2.90886,6.51907 -6.51942,6.51899 h -0.99385 c -3.61055,0 -6.51978,-2.90876 -6.51978,-6.51899 v -44.26004 c 0,-3.61016 2.90923,-6.52365 6.51978,-6.52365 h 0.99385 c 3.61056,0 6.51942,2.91349 6.51942,6.52365 v 5.33983 h 11.03792 v -5.13078 c 0,-9.99331 -8.04692,-18.03907 -18.04072,-18.03907 z m 271.90241,0.0271 c -10.44511,0 -18.85299,8.40811 -18.85299,18.85203 v 42.04948 c 0,10.44365 8.40879,18.8517 18.85299,18.8517 h 0.0904 c 10.4433,0 18.85226,-8.40805 18.85226,-18.8517 v -25.33851 h -11.10287 -0.15266 -8.9247 v 9.73714 h 8.9247 v 15.53623 c 0,4.24552 -3.41109,7.65684 -7.65677,7.65684 -4.24588,0 -7.67129,-3.41132 -7.67129,-7.65684 v -42.1701 c 0,-4.24583 3.42541,-7.67088 7.67129,-7.67088 4.24568,0 7.65677,3.42505 7.65677,7.67088 v 4.46659 h 11.25639 v -4.28083 c 0,-10.44392 -8.40894,-18.85203 -18.85314,-18.85203 z m -226.37221,0.0633 c -10.44412,0 -18.85325,8.40778 -18.85325,18.85169 v 42.04975 c 0,10.44365 8.40913,18.8515 18.85325,18.8515 h 0.0904 c 10.44402,0 18.85288,-8.40785 18.85288,-18.8515 v -42.04976 c 0,-10.44391 -8.40886,-18.85169 -18.85288,-18.85169 z m 65.22774,0.62721 v 32.10367 9.1284 37.03042 c 0.48494,0.0362 0.96493,0.0724 1.45742,0.0724 h 16.70273 c 10.06307,0 18.16557,-7.81967 18.16557,-17.53293 v -11.08355 c 0,-6.1445 -2.71198,-10.18768 -7.23001,-12.63435 4.52707,-2.37766 7.15643,-6.51033 7.15643,-12.88494 v -6.96517 c 0,-10.06761 -9.49813,-17.23572 -18.12902,-17.23572 z m 59.56216,0 -17.48739,78.33671 h 11.86837 l 3.1441,-16.78991 h 14.59025 l 3.1432,16.78991 h 11.97536 l -17.49144,-78.33672 z m 32.25432,0 v 78.33671 h 11.16743 v -47.54727 l 17.49187,47.54727 h 10.43878 v -78.33672 h -11.17209 v 47.44025 l -17.38575,-47.44027 z m 124.96175,0 v 10.43806 h 13.12725 v 67.89865 h 11.1721 v -67.89865 h 13.36885 v -10.43806 z m 45.86414,0 v 60.82708 c 0,10.08756 8.11876,18.206 18.20714,18.206 10.08839,0 18.2123,-8.11844 18.2123,-18.206 v -60.82709 h -11.19081 v 60.84547 c 0,3.89347 -3.13691,7.02984 -7.03054,7.02984 -3.89362,0 -7.02601,-3.13637 -7.02601,-7.02984 v -60.84547 z m 41.94926,0 15.1573,44.61736 v 33.73805 h 11.17643 v -33.73805 l 15.48159,-44.61736 h -11.75698 l -9.28778,30.69663 -9.00821,-30.69663 z m 48.80367,0 v 10.33133 68.00538 h 8.99926 2.06672 22.41408 v -11.31098 h -22.41408 v -22.97043 h 19.72552 v -10.54504 h -19.72552 v -23.17901 h 22.41408 v -10.33132 h -22.41408 z m 38.47606,0 v 10.43806 h 13.12734 v 67.89865 h 11.1729 v -67.89865 h 13.36821 v -10.43806 z m -457.0991,10.36817 c 4.24544,0 7.66183,3.42532 7.66183,7.67082 v 42.17039 c 0,4.2453 -3.41639,7.65669 -7.66183,7.65669 -4.2458,0 -7.67122,-3.41139 -7.67122,-7.65669 v -42.1704 c 0,-4.24567 3.42542,-7.67074 7.67122,-7.67082 z m 76.2928,0.16284 h 7.01156 c 3.93563,0 7.10502,3.40081 7.10502,7.62431 v 6.42152 c 0,4.22354 -3.16939,7.62444 -7.10502,7.62444 h -7.01156 z m 53.31684,12.02138 5.34494,28.55637 h -10.68936 z m -53.31684,19.47865 h 6.64038 c 4.16235,0 7.513,3.35093 7.513,7.51272 v 10.10863 c 0,4.16154 -3.35065,7.51256 -7.513,7.51256 h -6.64038 z" />
        </g>
      </g>
    </g>
  </g>
</svg>
