<?xml version="1.0" encoding="UTF-8"?>
<!DOCTYPE svg PUBLIC "-//W3C//DTD SVG 1.1//EN" "http://www.w3.org/Graphics/SVG/1.1/DTD/svg11.dtd">
<svg xmlns="http://www.w3.org/2000/svg" version="1.1" width="2560px" height="1197px" style="shape-rendering:geometricPrecision; text-rendering:geometricPrecision; image-rendering:optimizeQuality; fill-rule:evenodd; clip-rule:evenodd" xmlns:xlink="http://www.w3.org/1999/xlink">
<g><path style="opacity:0.992" fill="#000000" d="M 51.5,-0.5 C 870.167,-0.5 1688.83,-0.5 2507.5,-0.5C 2535.17,6.5 2552.5,23.8333 2559.5,51.5C 2559.5,415.5 2559.5,779.5 2559.5,1143.5C 2551.14,1175.53 2530.47,1193.19 2497.5,1196.5C 1685.5,1196.5 873.5,1196.5 61.5,1196.5C 28.5344,1193.2 7.8677,1175.53 -0.5,1143.5C -0.5,779.5 -0.5,415.5 -0.5,51.5C 6.5,23.8333 23.8333,6.5 51.5,-0.5 Z"/></g>
<g><path style="opacity:1" fill="#fefefe" d="M 56.5,41.5 C 872.554,41.0008 1688.55,41.5008 2504.5,43C 2510.39,45.8924 2514.56,50.3924 2517,56.5C 2518,417.888 2517.66,779.221 2516,1140.5C 2513.01,1146.82 2508.18,1150.99 2501.5,1153C 1686.5,1153.67 871.5,1153.67 56.5,1153C 49.2417,1150.08 44.4084,1144.91 42,1137.5C 41.3333,777.167 41.3333,416.833 42,56.5C 45.0214,49.6468 49.8548,44.6468 56.5,41.5 Z"/></g>
<g><path style="opacity:1" fill="#000000" d="M 2189.5,243.5 C 2291.67,240.319 2369.17,281.985 2422,368.5C 2438.17,396.003 2449,425.503 2454.5,457C 2454.56,458.711 2453.89,460.044 2452.5,461C 2412.83,461.667 2373.17,461.667 2333.5,461C 2319.38,421.745 2294.04,392.079 2257.5,372C 2199.5,350.265 2148.34,360.765 2104,403.5C 2079.39,433.976 2067.06,468.976 2067,508.5C 2065.45,562.156 2065.12,615.823 2066,669.5C 2066.21,688.21 2067.21,706.877 2069,725.5C 2075.05,774.481 2099.21,811.314 2141.5,836C 2168.21,848.673 2196.21,852.673 2225.5,848C 2261.98,840.844 2290.82,822.011 2312,791.5C 2319.09,780.99 2325.42,769.99 2331,758.5C 2332.5,757 2334,755.5 2335.5,754C 2373.83,753.333 2412.17,753.333 2450.5,754C 2451.93,754.465 2453.1,755.299 2454,756.5C 2437.83,851.328 2384.99,916.161 2295.5,951C 2226.91,973.483 2159.24,971.149 2092.5,944C 2045.15,919.748 2007.65,884.914 1980,839.5C 1964.21,810.794 1954.88,780.127 1952,747.5C 1950.37,724.528 1949.37,701.528 1949,678.5C 1948.33,622.167 1948.33,565.833 1949,509.5C 1946.48,408.35 1987.65,330.85 2072.5,277C 2108.67,255.802 2147.67,244.636 2189.5,243.5 Z"/></g>
<g><path style="opacity:1" fill="#000000" d="M 341.5,245.5 C 393.39,241.14 441.724,251.974 486.5,278C 523.847,303.346 554.347,335.179 578,373.5C 594.158,403.462 603.158,435.462 605,469.5C 607.312,541.483 607.979,613.483 607,685.5C 606.813,725.656 602.48,765.323 594,804.5C 591.657,812.365 588.823,820.031 585.5,827.5C 607.752,847.314 630.085,867.147 652.5,887C 658.167,891.333 663.833,895.667 669.5,900C 671.007,903.457 670.507,906.624 668,909.5C 649.333,932.833 630.667,956.167 612,979.5C 609.859,982.491 607.025,983.658 603.5,983C 576.426,960.048 549.259,937.214 522,914.5C 450.491,971.667 370.658,987.167 282.5,961C 256.28,951.567 232.947,937.567 212.5,919C 173.265,885.713 146.765,844.213 133,794.5C 129.348,776.01 127.014,757.344 126,738.5C 123.581,670.854 122.915,603.187 124,535.5C 125.039,505.798 126.706,476.132 129,446.5C 138.456,391.079 163.956,344.579 205.5,307C 243.762,271.039 289.095,250.539 341.5,245.5 Z"/></g>
<g><path style="opacity:1" fill="#000000" d="M 742.5,249.5 C 778.502,249.333 814.502,249.5 850.5,250C 851.667,250.5 852.5,251.333 853,252.5C 853.5,452.833 853.667,653.166 853.5,853.5C 960.501,853.333 1067.5,853.5 1174.5,854C 1175.93,854.465 1177.1,855.299 1178,856.5C 1178.67,892.167 1178.67,927.833 1178,963.5C 1177.63,964.416 1177.13,965.25 1176.5,966C 1031.83,966.667 887.167,966.667 742.5,966C 742,965.5 741.5,965 741,964.5C 740.333,726.833 740.333,489.167 741,251.5C 741.717,250.956 742.217,250.289 742.5,249.5 Z"/></g>
<g><path style="opacity:1" fill="#000000" d="M 1477.5,253.5 C 1605.07,253.168 1732.57,253.501 1860,254.5C 1860.67,290.167 1860.67,325.833 1860,361.5C 1785.67,561.167 1711.33,760.833 1637,960.5C 1636.21,962.587 1635.04,964.421 1633.5,966C 1596.17,966.667 1558.83,966.667 1521.5,966C 1520.39,963.263 1520.22,960.429 1521,957.5C 1594.67,760.658 1667.84,563.658 1740.5,366.5C 1686.83,366.5 1633.17,366.5 1579.5,366.5C 1579.67,399.168 1579.5,431.835 1579,464.5C 1578.69,465.308 1578.19,465.975 1577.5,466.5C 1544.21,467.659 1510.88,467.826 1477.5,467C 1477,466.5 1476.5,466 1476,465.5C 1474.34,395.915 1474.01,326.249 1475,256.5C 1476.04,255.627 1476.88,254.627 1477.5,253.5 Z"/></g>
<g><path style="opacity:1" fill="#fefefe" d="M 354.5,364.5 C 384.727,362.979 412.727,370.145 438.5,386C 452.85,396.347 464.35,409.18 473,424.5C 491.107,459.598 499.44,496.931 498,536.5C 498.667,583.167 498.667,629.833 498,676.5C 496.502,699.98 493.836,723.314 490,746.5C 466.5,727 443,707.5 419.5,688C 416.135,685.843 412.968,686.009 410,688.5C 390.714,713.455 371.047,738.122 351,762.5C 350.186,764.902 350.353,767.235 351.5,769.5C 378.314,792.48 404.981,815.647 431.5,839C 406.088,854.812 378.421,860.812 348.5,857C 311.141,850.073 282.308,830.573 262,798.5C 251.007,779.522 244.007,759.188 241,737.5C 237.668,691.404 236.168,645.237 236.5,599C 235.855,557.705 237.688,516.539 242,475.5C 246.967,452.921 255.634,431.921 268,412.5C 282.735,396.062 299.901,382.895 319.5,373C 330.882,368.403 342.549,365.57 354.5,364.5 Z"/></g>
<g><path style="opacity:1" fill="#000000" d="M 1263.5,853.5 C 1297.88,853.174 1332.21,853.507 1366.5,854.5C 1367.67,890.829 1367.83,927.162 1367,963.5C 1366.63,964.416 1366.13,965.25 1365.5,966C 1331.5,966.667 1297.5,966.667 1263.5,966C 1263,965.5 1262.5,965 1262,964.5C 1260.35,928.585 1260.01,892.585 1261,856.5C 1262.04,855.627 1262.88,854.627 1263.5,853.5 Z"/></g>
</svg>
