<?xml version="1.0" encoding="UTF-8" standalone="no"?>
<svg
   version="1.1"
   id="Layer_1"
   x="0px"
   y="0px"
   viewBox="0 0 122 57"
   enable-background="new 0 0 122 57"
   sodipodi:docname="QL_4,_VNM.svg"
   inkscape:version="1.1 (c4e8f9e, 2021-05-24)"
   xmlns:inkscape="http://www.inkscape.org/namespaces/inkscape"
   xmlns:sodipodi="http://sodipodi.sourceforge.net/DTD/sodipodi-0.dtd"
   xmlns="http://www.w3.org/2000/svg"
   xmlns:svg="http://www.w3.org/2000/svg">
  <defs
     id="defs865" />
  <sodipodi:namedview
     id="namedview863"
     pagecolor="#ffffff"
     bordercolor="#666666"
     borderopacity="1.0"
     inkscape:pageshadow="2"
     inkscape:pageopacity="0.0"
     inkscape:pagecheckerboard="0"
     showgrid="false"
     inkscape:zoom="3.324"
     inkscape:cx="152.4"
     inkscape:cy="24.82"
     inkscape:window-width="1920"
     inkscape:window-height="965"
     inkscape:window-x="0"
     inkscape:window-y="23"
     inkscape:window-maximized="1"
     inkscape:current-layer="Layer_1" />
  <path
     fill="#FFFFFF"
     stroke="#000000"
     stroke-width="2"
     stroke-miterlimit="10"
     d="M119,56H3c-1.1,0-2-0.9-2-2V3c0-1.1,0.9-2,2-2 h116c1.1,0,2,0.9,2,2v51C121,55.1,120.1,56,119,56z"
     id="path850" />
  <g
     aria-label="QL.4"
     id="text4319"
     style="font-size:47.9564px;font-family:'Russian Road Sign';-inkscape-font-specification:'Russian Road Sign';letter-spacing:0px;word-spacing:0px;stroke-width:2.99728">
    <path
       d="m 34.02,39.24 c -0.96,0.72 -2.25,1.2 -3.83,1.2 -2.45,0 -4.22,-1.15 -5.28,-2.5 -1.34,-1.72 -1.72,-2.68 -1.72,-9.68 0,-7 0.38,-7.96 1.72,-9.69 1.06,-1.34 2.83,-2.49 5.28,-2.49 2.44,0 4.22,1.15 5.27,2.49 1.34,1.73 1.73,2.69 1.73,9.69 0,3.79 -0.1,5.85 -0.48,7.14 l -3.98,-3.16 -3.07,3.55 z m 8.54,6.86 3.07,-3.55 -4.51,-3.6 c 0.96,-1.77 1.25,-3.31 1.25,-10.69 0,-8.2 -0.39,-9.21 -1.49,-11.22 -1.63,-2.98 -5.32,-6.14 -10.69,-6.14 -5.37,0 -9.07,3.16 -10.7,6.14 -1.1,2.01 -1.48,3.02 -1.48,11.22 0,8.2 0.38,9.21 1.48,11.22 1.63,2.97 5.33,6.14 10.7,6.14 3.35,0 6.04,-1.25 8.05,-2.98 z"
       style="-inkscape-font-specification:'DIN 1451 Std'"
       id="path49279" />
    <path
       d="M 48.38,45.33 H 70.2 V 40.44 H 53.56 V 11.19 h -5.18 z"
       style="-inkscape-font-specification:'DIN 1451 Std'"
       id="path49281" />
    <path
       d="m 74.79,45.33 h 4.89 v -4.89 h -4.89 z"
       style="-inkscape-font-specification:'DIN 1451 Std'"
       id="path49283" />
    <path
       d="m 83.57,40.25 h 14.25 v 5.08 h 4.88 v -5.08 h 2.7 v -4.61 h -2.7 v -9.83 h -4.88 v 9.83 H 88.9 L 100.5,11.19 H 94.99 L 83.57,35.64 Z"
       style="-inkscape-font-specification:'DIN 1451 Std'"
       id="path49285" />
  </g>
  <text
     xml:space="preserve"
     style="font-size:16px;line-height:1.45;font-family:SnvDExtCon;-inkscape-font-specification:SnvDExtCon;letter-spacing:0px;word-spacing:0px"
     x="30.09"
     y="-7.686"
     id="text3127"><tspan
       sodipodi:role="line"
       id="tspan3125"
       x="30.09"
       y="-7.686" /></text>
</svg>
