<?xml version="1.0" encoding="UTF-8" standalone="no"?>
<svg
   sodipodi:docname="Vietnam_road_sign_I444m.svg"
   inkscape:version="1.2.2 (732a01da63, 2022-12-09)"
   id="svg848"
   version="1.1"
   viewBox="0 0 1500.4825 500"
   height="500mm"
   width="1500.4825mm"
   xmlns:inkscape="http://www.inkscape.org/namespaces/inkscape"
   xmlns:sodipodi="http://sodipodi.sourceforge.net/DTD/sodipodi-0.dtd"
   xmlns="http://www.w3.org/2000/svg"
   xmlns:svg="http://www.w3.org/2000/svg"
   xmlns:rdf="http://www.w3.org/1999/02/22-rdf-syntax-ns#"
   xmlns:cc="http://creativecommons.org/ns#"
   xmlns:dc="http://purl.org/dc/elements/1.1/">
  <defs
     id="defs842" />
  <sodipodi:namedview
     inkscape:document-rotation="0"
     inkscape:measure-end="0,0"
     inkscape:measure-start="0,0"
     showguides="true"
     fit-margin-bottom="0"
     fit-margin-right="0"
     fit-margin-left="0"
     fit-margin-top="0"
     inkscape:window-maximized="1"
     inkscape:window-y="-9"
     inkscape:window-x="-9"
     inkscape:window-height="991"
     inkscape:window-width="1920"
     inkscape:snap-global="false"
     showgrid="false"
     inkscape:current-layer="text2903"
     inkscape:document-units="mm"
     inkscape:cy="1246.2179"
     inkscape:cx="3152.1981"
     inkscape:zoom="0.18415721"
     inkscape:pageshadow="2"
     inkscape:pageopacity="0.0"
     borderopacity="1.0"
     bordercolor="#666666"
     pagecolor="#ffffff"
     id="base"
     inkscape:showpageshadow="2"
     inkscape:pagecheckerboard="0"
     inkscape:deskcolor="#d1d1d1" />
  <metadata
     id="metadata845">
    <rdf:RDF>
      <cc:Work
         rdf:about="">
        <dc:format>image/svg+xml</dc:format>
        <dc:type
           rdf:resource="http://purl.org/dc/dcmitype/StillImage" />
        <dc:title />
      </cc:Work>
    </rdf:RDF>
  </metadata>
  <g
     transform="translate(-530.52646,11.947886)"
     id="layer1"
     inkscape:groupmode="layer"
     inkscape:label="Layer 1">
    <path
       inkscape:connector-curvature="0"
       d=""
       style="opacity:1;fill:#d35f5f;fill-opacity:1;fill-rule:nonzero;stroke:none;stroke-width:3.92256;stroke-linecap:butt;stroke-linejoin:miter;stroke-miterlimit:4;stroke-dasharray:none;stroke-opacity:1;paint-order:stroke fill markers"
       id="path8376"
       r="150"
       cy="147"
       cx="150" />
    <g
       inkscape:groupmode="layer"
       transform="translate(-4496.0426,2396.6803)"
       id="text3577"
       style="font-style:normal;font-variant:normal;font-weight:bold;font-stretch:normal;font-size:299.854px;line-height:0;font-family:Giaothong1;-inkscape-font-specification:'Giaothong1 Bold';letter-spacing:0px;word-spacing:0px;fill:#ffcc00;fill-opacity:1;stroke:none;stroke-width:1.56174"
       aria-label="VỊNH">
      <g
         id="text3665"
         style="font-style:normal;font-variant:normal;font-weight:bold;font-stretch:normal;font-size:299.854px;line-height:0;font-family:Giaothong1;-inkscape-font-specification:'Giaothong1 Bold';letter-spacing:-2.78077px;word-spacing:0px;fill:#ffcc00;fill-opacity:1;stroke:none;stroke-width:2.43903"
         aria-label="VỊNH" />
    </g>
    <g
       inkscape:groupmode="layer"
       id="text2719"
       style="font-style:normal;font-variant:normal;font-weight:bold;font-stretch:normal;font-size:184.173px;line-height:0;font-family:Giaothong1;-inkscape-font-specification:'Giaothong1 Bold';letter-spacing:0px;word-spacing:0.486833px;fill:#ffffff;fill-opacity:1;stroke:none;stroke-width:0.959232"
       aria-label="CÔNG TRƯỜNG">
      <g
         inkscape:groupmode="layer"
         id="text2888"
         style="font-style:normal;font-variant:normal;font-weight:bold;font-stretch:normal;font-size:187.408px;line-height:0;font-family:Giaothong1;-inkscape-font-specification:'Giaothong1 Bold';letter-spacing:0.00264583px;word-spacing:0px;fill:#ffffff;fill-opacity:1;stroke:none;stroke-width:0.936293"
         aria-label="AHEAD">
        <g
           inkscape:groupmode="layer"
           id="text2903"
           style="font-style:normal;font-variant:normal;font-weight:bold;font-stretch:normal;font-size:184.173px;line-height:0;font-family:Giaothong1;-inkscape-font-specification:'Giaothong1 Bold';letter-spacing:0.00529167px;word-spacing:0px;fill:#ffffff;fill-opacity:1;stroke:none;stroke-width:0.898123"
           aria-label="WORKS">
          <path
             d="M 708.33916,-11.947699 2031.009,-11.947886 V 488.05211 H 708.33916 L 530.52646,238.0523 Z"
             style="opacity:1;fill:#0046aa;fill-opacity:1;fill-rule:nonzero;stroke:none;stroke-width:1.27163;stroke-linecap:butt;stroke-linejoin:miter;stroke-miterlimit:10;stroke-dasharray:none;stroke-opacity:1;paint-order:stroke fill markers"
             id="rect1393"
             sodipodi:nodetypes="cccccc" />
          <path
             id="rect1395"
             style="opacity:1;fill:#ffffff;fill-opacity:1;fill-rule:nonzero;stroke:none;stroke-width:1.22924;stroke-linecap:butt;stroke-linejoin:miter;stroke-miterlimit:10;stroke-dasharray:none;stroke-opacity:1;paint-order:stroke fill markers"
             d="M 710.47731,-3.6148361 540.46021,238.0523 710.47731,479.72219 H 2022.6712 V -3.6148361 Z m 8.3265,8.33846 h 68.59 V 471.38374 h -68.59 L 554.2984,238.0523 Z m 547.16509,0 h 748.3757 V 238.05368 471.38374 h -748.3757 z"
             sodipodi:nodetypes="cccccccccccccccccc" />
          <path
             d="m 828.08794,293.35458 c 58.54574,-34.90634 117.0665,-69.79604 175.60396,-104.70216 0,-41.18062 -0.023,-95.19457 0,-129.481022 0.022,-16.870953 11.3254,-25.273028 22.81,-25.432275 11.8783,-0.157448 23.9494,8.452458 24.0333,25.599844 0.2025,33.775419 0,87.646993 -0.3103,129.313453 58.3448,34.90612 116.7064,69.79582 175.0512,104.70216 v 42.65501 c -58.3448,-18.08577 -116.7064,-36.18796 -175.0512,-54.28207 v 93.61966 c 13.1013,10.71407 26.2279,21.41128 39.3294,32.13369 v 34.3366 c -20.8751,-6.0984 -41.7335,-12.18824 -62.6085,-18.2783 -20.6658,6.27428 -41.34825,12.54856 -62.03078,18.83117 v -34.88947 c 12.92554,-10.72241 25.85108,-21.41962 38.77658,-32.13369 v -93.61966 c -58.34485,18.27833 -116.69804,36.55663 -175.04269,54.84326 -0.20244,-14.39993 -0.37788,-28.81627 -0.56232,-43.2162"
             style="fill:#0046aa;fill-opacity:1;fill-rule:evenodd;stroke:none;stroke-width:0.835493"
             id="path3512"
             inkscape:connector-curvature="0" />
          <g
             aria-label="SÂN BAY"
             id="text49881"
             style="font-weight:normal;font-size:167.726px;font-family:Giaothong2;-inkscape-font-specification:Giaothong2;letter-spacing:2.38045px;opacity:1;fill:#ffffff;stroke-width:232.262;paint-order:stroke fill markers">
            <path
               d="m 1322.0358,180.66589 q 0.2457,-0.32759 0.6551,-0.32759 0.4095,0 0.7371,0.24569 6.4699,5.24144 14.8235,8.43544 8.4354,3.11211 17.7717,3.11211 10.4829,0 16.5433,-4.34057 5.7328,-4.17677 5.7328,-11.05616 0,-12.9398 -14.4958,-14.90533 h 0.082 q -2.0475,-0.2457 -3.9311,-0.49139 -1.8018,-0.24569 -3.6854,-0.49138 -1.8017,-0.2457 -3.7673,-0.49139 -1.8836,-0.32759 -4.1768,-0.65518 -7.6983,-1.06466 -13.7587,-3.84918 -5.9785,-2.86641 -10.0734,-7.53456 -4.0949,-4.75006 -6.1423,-10.31908 -2.0475,-5.65093 -2.0475,-12.28462 0,-15.56052 10.3191,-25.30632 10.401,-9.909592 28.9098,-9.909592 5.4872,0 10.6467,0.98277 5.2414,0.900872 10.0734,2.538821 4.9138,1.637949 9.3363,3.931078 4.5044,2.211233 8.5992,4.913843 0.819,0.57329 0.2457,1.39226 l -9.9096,14.65965 q -0.5733,0.73707 -1.3103,0.24569 -6.388,-4.01298 -13.595,-6.388 -7.207,-2.45693 -14.9054,-2.45693 -3.931,0 -7.2888,0.98277 -3.3578,0.90088 -6.0604,3.03021 -5.3234,3.84918 -5.3234,11.71134 0,4.50436 3.6035,8.76302 1.8018,1.96554 4.832,3.3578 3.0302,1.31036 7.4526,1.96554 2.3751,0.40949 5.5691,0.90087 3.194,0.40949 7.5345,0.90087 16.789,2.04744 24.8969,12.36652 8.1078,10.07339 8.1078,22.4399 0,16.54329 -11.5475,25.8796 -11.6295,9.17252 -30.6297,9.17252 -26.7805,0 -45.535,-16.3795 -0.3276,-0.24569 -0.3276,-0.65518 0,-0.40948 0.2457,-0.73707 z"
               id="path56013"
               style="fill:#ffffff" />
            <path
               d="m 1408.3611,210.72226 q -0.5733,0 -0.819,-0.40949 -0.2457,-0.40949 -0.082,-0.90087 l 42.9143,-117.440957 q 0.1638,-0.65518 0.819,-0.65518 h 14.6596 q 0.2457,0 0.4914,0.245692 0.3276,0.163795 0.4095,0.409488 l 42.8324,117.440957 q 0.1638,0.49138 -0.082,0.90087 -0.2457,0.40949 -0.7371,0.40949 h -18.7545 q -0.6552,0 -0.819,-0.65518 l -8.8449,-25.8796 h -43.2419 q -2.2931,6.6337 -4.5862,13.0217 -2.2113,6.3061 -4.5044,12.8579 -0.082,0.24569 -0.4095,0.49138 -0.2457,0.1638 -0.4914,0.1638 z m 66.0913,-44.14273 q -0.1638,-0.57328 -0.4914,-1.22846 -0.2457,-0.65518 -0.4095,-1.14657 -1.3923,-4.01297 -2.5388,-7.37077 -1.1466,-3.43969 -2.0475,-5.97851 -0.5733,-1.63795 -1.1465,-3.194 -0.4914,-1.55606 -0.9828,-2.94831 -0.4095,-1.31036 -0.819,-2.45693 -0.4095,-1.22846 -0.819,-2.37502 -0.737,-2.37503 -1.556,-4.75006 -0.7371,-2.37502 -1.5561,-4.91384 -0.4094,-1.14657 -0.9008,-2.53882 -0.4095,-1.39226 -0.9009,-2.94831 -0.2457,-0.81898 -0.4095,-1.22847 -0.082,-0.49138 -0.2457,-0.90087 -0.1638,-0.49138 -0.4095,-1.06466 -0.1638,-0.57329 -0.4914,-1.63795 -0.9008,2.70261 -1.7198,4.99574 -0.7371,2.29313 -1.3923,4.25867 -0.1638,0.49138 -0.2457,0.90087 -0.082,0.40949 -0.2456,0.81898 -0.4095,1.39225 -0.9009,2.62071 -0.4095,1.22847 -0.819,2.45693 -0.4095,1.31036 -0.819,2.53882 -0.4095,1.22846 -0.8189,2.37503 -0.819,2.45692 -1.7199,5.15954 -0.819,2.70261 -1.8836,5.65092 -1.0647,2.94831 -2.2113,6.388 -1.1465,3.3578 -2.9483,8.51734 z m -45.1255,-85.664744 q -0.7371,0 -0.9009,-0.65518 -0.1638,-0.65518 0.3276,-1.064667 l 24.0778,-19.082108 h 11.0562 l 24.4054,19.082108 q 0.5733,0.409487 0.3276,1.064667 -0.1638,0.65518 -0.9009,0.65518 h -13.7587 l -16.3795,-8.844926 q -3.6035,2.211231 -7.2889,4.422463 -3.6854,2.211231 -7.2889,4.422463 z"
               id="path56015"
               style="fill:#ffffff" />
            <path
               d="m 1526.7903,210.80416 q -0.9828,0 -0.9828,-0.98277 V 92.462327 q 0,-0.982769 0.9828,-0.982769 h 16.8708 q 0.4914,0 0.819,0.491385 l 51.5954,81.242277 V 92.462327 q 0,-0.982769 0.9828,-0.982769 h 17.8536 q 0.9828,0 0.9828,0.982769 V 209.82139 q 0,0.98277 -0.9828,0.98277 h -16.7889 q -0.4914,0 -0.819,-0.49139 l -51.7592,-81.24228 v 80.7509 q 0,0.98277 -0.9009,0.98277 z"
               id="path56017"
               style="fill:#ffffff" />
            <path
               d="m 1686.4193,210.80416 q -0.9828,0 -0.9828,-0.98277 V 92.462327 q 0,-0.982769 0.9828,-0.982769 h 45.5349 q 17.2804,0 26.5348,9.254412 9.1725,9.09062 9.1725,23.25888 0,7.78026 -3.6034,14.41395 -3.2759,6.22421 -12.2028,10.81047 8.2717,2.62072 12.776,10.07338 2.3751,4.09488 3.6035,8.43544 1.3104,4.25867 1.3104,8.84493 0,15.64241 -10.0734,24.97872 -9.9915,9.25442 -23.5046,9.25442 z m 18.7545,-52.08679 v 33.41417 h 26.4529 q 9.2544,0 13.7587,-4.99575 4.4225,-4.99574 4.4225,-11.71134 0,-6.55179 -4.4225,-11.62944 -4.2586,-5.07764 -13.7587,-5.07764 z m 0,-49.46606 v 31.69431 h 24.8149 q 9.2544,0 13.5131,-4.58625 4.4225,-4.50436 4.4225,-11.21996 0,-6.63369 -4.4225,-11.13805 -4.4225,-4.75005 -13.5131,-4.75005 z"
               id="path56019"
               style="fill:#ffffff" />
            <path
               d="m 1779.5421,210.72226 q -0.5733,0 -0.819,-0.40949 -0.2457,-0.40949 -0.082,-0.90087 l 42.9143,-117.440957 q 0.1638,-0.65518 0.819,-0.65518 h 14.6596 q 0.2457,0 0.4914,0.245692 0.3276,0.163795 0.4095,0.409488 l 42.8324,117.440957 q 0.1638,0.49138 -0.082,0.90087 -0.2457,0.40949 -0.7371,0.40949 h -18.7545 q -0.6552,0 -0.819,-0.65518 l -8.8449,-25.8796 h -43.2419 q -2.2931,6.6337 -4.5863,13.0217 -2.2112,6.3061 -4.5043,12.8579 -0.082,0.24569 -0.4095,0.49138 -0.2457,0.1638 -0.4914,0.1638 z m 66.0912,-44.14273 q -0.1637,-0.57328 -0.4913,-1.22846 -0.2457,-0.65518 -0.4095,-1.14657 -1.3923,-4.01297 -2.5388,-7.37077 -1.1466,-3.43969 -2.0475,-5.97851 -0.5733,-1.63795 -1.1465,-3.194 -0.4914,-1.55606 -0.9828,-2.94831 -0.4095,-1.31036 -0.819,-2.45693 -0.4095,-1.22846 -0.819,-2.37502 -0.737,-2.37503 -1.556,-4.75006 -0.7371,-2.37502 -1.5561,-4.91384 -0.4095,-1.14657 -0.9008,-2.53882 -0.4095,-1.39226 -0.9009,-2.94831 -0.2457,-0.81898 -0.4095,-1.22847 -0.082,-0.49138 -0.2457,-0.90087 -0.1638,-0.49138 -0.4095,-1.06466 -0.1638,-0.57329 -0.4914,-1.63795 -0.9008,2.70261 -1.7198,4.99574 -0.7371,2.29313 -1.3923,4.25867 -0.1638,0.49138 -0.2457,0.90087 -0.082,0.40949 -0.2457,0.81898 -0.4094,1.39225 -0.9008,2.62071 -0.4095,1.22847 -0.819,2.45693 -0.4095,1.31036 -0.819,2.53882 -0.4095,1.22846 -0.8189,2.37503 -0.819,2.45692 -1.7199,5.15954 -0.819,2.70261 -1.8836,5.65092 -1.0647,2.94831 -2.2113,6.388 -1.1465,3.3578 -2.9483,8.51734 z"
               id="path56021"
               style="fill:#ffffff" />
            <path
               d="m 1909.1092,210.80416 q -0.9008,0 -0.9008,-0.98277 v -47.99191 q -8.8449,-17.28037 -17.608,-34.47883 -8.763,-17.19847 -17.526,-34.478835 -0.2457,-0.573283 0,-0.98277 0.2457,-0.409487 0.9008,-0.409487 h 18.6727 q 0.2457,0 0.4913,0.245692 0.2457,0.163795 0.4095,0.32759 l 24.0779,50.28504 q 6.0604,-12.69411 11.957,-25.14252 5.9785,-12.44841 12.0389,-25.14252 0.1638,-0.163795 0.4095,-0.32759 0.2457,-0.245692 0.4914,-0.245692 h 18.7545 q 0.6552,0 0.9009,0.409487 0.2457,0.409487 0,0.98277 l -35.2159,68.957665 v 47.99191 q 0,0.98277 -0.9828,0.98277 z"
               id="path56023"
               style="fill:#ffffff" />
          </g>
          <g
             aria-label="Airport"
             transform="scale(0.9944476,1.0055834)"
             id="text49885"
             style="font-weight:normal;font-size:138.985px;font-family:Giaothong2;-inkscape-font-specification:Giaothong2;letter-spacing:0.493137px;opacity:1;fill:#ffffff;stroke-width:192.462;paint-order:stroke fill markers">
            <path
               d="m 1420.3523,364.34354 q -0.4751,0 -0.6786,-0.33932 -0.2036,-0.33932 -0.068,-0.7465 l 35.5606,-97.31665 q 0.1357,-0.54291 0.6786,-0.54291 h 12.1477 q 0.2036,0 0.4071,0.20359 0.2715,0.13573 0.3394,0.33932 l 35.4927,97.31665 q 0.1357,0.40718 -0.068,0.7465 -0.2035,0.33932 -0.6107,0.33932 h -15.5408 q -0.5429,0 -0.6787,-0.54291 l -7.3293,-21.44496 h -35.832 q -1.9002,5.49697 -3.8004,10.79034 -1.8323,5.22551 -3.7325,10.65462 -0.068,0.20359 -0.3393,0.40718 -0.2036,0.13573 -0.4072,0.13573 z m 54.7661,-36.57858 q -0.1358,-0.47504 -0.4072,-1.01795 -0.2036,-0.54291 -0.3393,-0.95009 -1.1537,-3.32533 -2.1038,-6.10774 -0.9501,-2.85028 -1.6966,-4.95406 -0.4751,-1.35727 -0.9501,-2.64669 -0.4072,-1.28941 -0.8144,-2.44309 -0.3393,-1.08582 -0.6786,-2.03592 -0.3393,-1.01795 -0.6787,-1.96804 -0.6107,-1.96805 -1.2894,-3.9361 -0.6107,-1.96805 -1.2894,-4.07183 -0.3393,-0.95009 -0.7465,-2.10378 -0.3393,-1.15368 -0.7465,-2.44309 -0.2036,-0.67864 -0.3393,-1.01796 -0.068,-0.40718 -0.2036,-0.7465 -0.1357,-0.40718 -0.3393,-0.88223 -0.1357,-0.47505 -0.4072,-1.35727 -0.7465,2.2395 -1.4251,4.13969 -0.6108,1.90018 -1.1537,3.52891 -0.1357,0.40718 -0.2036,0.7465 -0.068,0.33932 -0.2036,0.67864 -0.3393,1.15368 -0.7465,2.17164 -0.3393,1.01796 -0.6786,2.03591 -0.3394,1.08582 -0.6787,2.10378 -0.3393,1.01796 -0.6786,1.96805 -0.6786,2.03591 -1.4251,4.27542 -0.6787,2.2395 -1.5609,4.6826 -0.8822,2.44309 -1.8323,5.29337 -0.9501,2.78242 -2.4431,7.05783 z"
               id="path56026"
               style="fill:#ffffff" />
            <path
               d="m 1515.9904,364.4114 q -0.8143,0 -0.8143,-0.81437 v -68.81386 q 0,-0.81436 0.8143,-0.81436 h 13.8442 q 0.7465,0 0.7465,0.81436 v 68.81386 q 0,0.81437 -0.7465,0.81437 z m 0,-82.72594 q -0.8143,0 -0.8143,-0.81436 v -13.84421 q 0,-0.81436 0.8143,-0.81436 h 13.8442 q 0.7465,0 0.7465,0.81436 v 13.84421 q 0,0.81436 -0.7465,0.81436 z"
               id="path56028"
               style="fill:#ffffff" />
            <path
               d="m 1546.8865,364.4114 q -0.7465,0 -0.7465,-0.81437 v -68.81386 q 0,-0.81436 0.7465,-0.81436 h 13.9121 q 0.7465,0 0.7465,0.81436 v 5.56483 q 6.5149,-7.12569 17.3731,-7.12569 7.8044,0 14.8622,5.4291 0.2715,0.20359 0.2715,0.54291 0.068,0.33932 -0.1358,0.61077 l -9.9759,11.94402 q -0.4751,0.61078 -1.0859,0.13573 -4.4111,-3.25746 -8.6865,-3.25746 -4.8184,0 -8.7545,3.25746 -3.8682,3.25746 -3.8682,10.38316 v 41.32903 q 0,0.81437 -0.7465,0.81437 z"
               id="path56030"
               style="fill:#ffffff" />
            <path
               d="m 1604.1138,392.23555 q -0.8144,0 -0.8144,-0.74651 v -96.70587 q 0,-0.81436 0.8144,-0.81436 h 13.8442 q 0.8144,0 0.8144,0.81436 v 5.22551 q 7.0578,-6.78637 16.9659,-6.78637 3.1217,0 5.9041,0.7465 2.7825,0.7465 5.1577,2.03591 2.4431,1.22155 4.4111,2.91814 2.036,1.62873 3.5968,3.52892 1.493,1.90018 2.511,4.20755 1.0179,2.30737 1.493,4.81833 v -0.0679 q 1.0858,4.75046 1.0858,17.84817 0,6.44706 -0.2715,10.92606 -0.2714,4.41115 -0.8143,6.92211 v -0.0679 q -0.8822,5.02191 -4.004,8.95801 h 0.068 q -3.1218,4.07183 -7.8722,6.65065 -4.6826,2.57883 -11.2654,2.57883 -5.0898,0 -9.2295,-1.90019 -4.0718,-1.90019 -7.7364,-5.15765 v 33.32111 q 0,0.74651 -0.8144,0.74651 z m 27.4848,-42.41486 q 9.0938,0 10.8582,-6.10774 1.9681,-6.71851 1.9681,-14.45498 0,-7.53288 -1.9681,-14.45499 -1.7644,-6.1756 -10.8582,-6.1756 -9.1616,0 -10.9261,6.3792 -0.9501,3.46105 -1.4251,7.05783 -0.475,3.52891 -0.475,7.19356 0,3.52891 0.475,7.19356 0.5429,3.66464 1.4251,7.05783 0.9501,3.05387 3.6647,4.6826 2.7145,1.62873 7.2614,1.62873 z"
               id="path56032"
               style="fill:#ffffff" />
            <path
               d="m 1672.4707,329.12224 q 0,-11.06179 1.8323,-16.76235 1.7645,-5.70056 5.8363,-10.1117 2.8503,-3.05387 8.0079,-6.03988 5.1577,-2.986 13.5049,-2.986 8.2794,0 13.3692,2.986 2.6467,1.493 4.6147,2.98601 2.0359,1.493 3.5289,3.05387 4.004,4.41114 5.8363,10.1117 1.7645,5.83628 1.7645,16.76235 0,11.26539 -1.7645,16.96594 -1.8323,5.56483 -5.8363,10.1117 -3.0538,3.25746 -8.1436,6.17561 -5.0898,2.85028 -13.3692,2.85028 -8.3472,0 -13.5049,-2.85028 -2.3073,-1.35728 -4.4111,-2.98601 -2.0359,-1.62873 -3.5968,-3.1896 -4.1397,-4.54687 -5.8363,-10.1117 -1.8323,-5.56483 -1.8323,-16.96594 z m 42.8899,0.13573 q 0,-7.1257 -0.7465,-10.3153 -0.6786,-2.91814 -2.511,-5.56482 -1.7644,-2.30737 -4.4111,-3.52892 -2.5788,-1.22155 -6.0399,-1.22155 -7.1935,0 -10.451,4.75047 -0.9501,1.35727 -1.6287,2.71455 -0.6108,1.28941 -0.9501,2.85027 -0.6787,2.91815 -0.6787,10.17957 0,3.66464 0.1358,6.31133 0.2036,2.64669 0.5429,4.20755 0.6107,2.91815 2.5788,5.49697 3.1896,4.6826 10.451,4.6826 6.9221,0 10.451,-4.6826 1.7645,-2.64669 2.511,-5.49697 0.7465,-3.32532 0.7465,-10.38315 z"
               id="path56034"
               style="fill:#ffffff" />
            <path
               d="m 1743.9493,364.4114 q -0.7465,0 -0.7465,-0.81437 v -68.81386 q 0,-0.81436 0.7465,-0.81436 h 13.9121 q 0.7465,0 0.7465,0.81436 v 5.56483 q 6.5149,-7.12569 17.3731,-7.12569 7.8044,0 14.8622,5.4291 0.2715,0.20359 0.2715,0.54291 0.068,0.33932 -0.1358,0.61077 l -9.9759,11.94402 q -0.4751,0.61078 -1.0859,0.13573 -4.4111,-3.25746 -8.6865,-3.25746 -4.8184,0 -8.7544,3.25746 -3.8683,3.25746 -3.8683,10.38316 v 41.32903 q 0,0.81437 -0.7465,0.81437 z"
               id="path56036"
               style="fill:#ffffff" />
            <path
               d="m 1801.7874,364.47926 q -0.8144,0 -0.8144,-0.81436 v -57.48061 h -6.1077 q -0.8144,0 -0.8144,-0.81437 v -10.58675 q 0,-0.81436 0.8144,-0.81436 h 6.1077 v -10.3153 l 14.0478,-14.99789 q 0.4072,-0.40718 0.8822,-0.20359 0.5429,0.20359 0.5429,0.7465 v 24.77028 h 9.2295 q 0.8144,0 0.8144,0.81436 v 10.58675 q 0,0.81437 -0.8144,0.81437 h -9.2295 v 57.48061 q 0,0.81436 -0.8143,0.81436 z"
               id="path56038"
               style="fill:#ffffff" />
          </g>
        </g>
      </g>
    </g>
  </g>
</svg>
