<?xml version="1.0" encoding="UTF-8"?>
<!DOCTYPE svg PUBLIC "-//W3C//DTD SVG 1.1//EN" "http://www.w3.org/Graphics/SVG/1.1/DTD/svg11.dtd">
<svg xmlns="http://www.w3.org/2000/svg" version="1.1" width="2560px" height="1197px" style="shape-rendering:geometricPrecision; text-rendering:geometricPrecision; image-rendering:optimizeQuality; fill-rule:evenodd; clip-rule:evenodd" xmlns:xlink="http://www.w3.org/1999/xlink">
<g><path style="opacity:0.993" fill="#000000" d="M 51.5,-0.5 C 870.167,-0.5 1688.83,-0.5 2507.5,-0.5C 2535.17,6.5 2552.5,23.8333 2559.5,51.5C 2559.5,415.5 2559.5,779.5 2559.5,1143.5C 2551.14,1175.53 2530.47,1193.19 2497.5,1196.5C 1685.5,1196.5 873.5,1196.5 61.5,1196.5C 28.5344,1193.2 7.8677,1175.53 -0.5,1143.5C -0.5,779.5 -0.5,415.5 -0.5,51.5C 6.5,23.8333 23.8333,6.5 51.5,-0.5 Z"/></g>
<g><path style="opacity:1" fill="#fefefe" d="M 56.5,41.5 C 872.554,41.0008 1688.55,41.5008 2504.5,43C 2510.39,45.8924 2514.56,50.3924 2517,56.5C 2518,417.888 2517.66,779.221 2516,1140.5C 2513.01,1146.82 2508.18,1150.99 2501.5,1153C 1686.5,1153.67 871.5,1153.67 56.5,1153C 49.2417,1150.08 44.4084,1144.91 42,1137.5C 41.3333,777.167 41.3333,416.833 42,56.5C 45.0214,49.6468 49.8548,44.6468 56.5,41.5 Z"/></g>
<g><path style="opacity:1" fill="#000000" d="M 275.5,249.5 C 311.566,247.879 345.566,255.379 377.5,272C 444.257,315.971 482.757,377.804 493,457.5C 497.739,538.445 498.739,619.445 496,700.5C 496.132,735.92 492.465,770.92 485,805.5C 482.799,813.271 480.299,820.938 477.5,828.5C 477.608,829.442 477.941,830.275 478.5,831C 502.97,853.802 527.137,876.969 551,900.5C 553,903.167 553,905.833 551,908.5C 533.622,932.755 516.122,956.922 498.5,981C 496.833,981.667 495.167,981.667 493.5,981C 473.833,962 454.167,943 434.5,924C 430.655,920.82 426.822,917.653 423,914.5C 361.945,972.112 291.778,986.612 212.5,958C 184.182,944.58 160.015,925.746 140,901.5C 104.591,858.307 84.924,808.64 81,752.5C 76.3465,658.166 76.3465,563.833 81,469.5C 87.1915,386.919 124.025,322.085 191.5,275C 217.635,259.972 245.635,251.472 275.5,249.5 Z"/></g>
<g><path style="opacity:1" fill="#000000" d="M 1365.5,858.5 C 1364.96,858.56 1364.62,858.893 1364.5,859.5C 1437.16,860.5 1509.83,860.833 1582.5,860.5C 1583.75,860.577 1584.58,861.244 1585,862.5C 1585.67,897.5 1585.67,932.5 1585,967.5C 1584.5,968.667 1583.67,969.5 1582.5,970C 1468.83,970.667 1355.17,970.667 1241.5,970C 1241,969.5 1240.5,969 1240,968.5C 1239.01,934.415 1239.35,900.415 1241,866.5C 1317.75,753.327 1394.75,640.327 1472,527.5C 1491.81,497.18 1496.81,464.513 1487,429.5C 1480.83,411.647 1470.99,396.147 1457.5,383C 1427.41,363.181 1397.74,363.848 1368.5,385C 1351.8,398.716 1341.3,416.216 1337,437.5C 1334.92,446.726 1333.59,456.06 1333,465.5C 1332.63,466.416 1332.13,467.25 1331.5,468C 1316.26,469.152 1300.92,469.652 1285.5,469.5C 1270.83,469.333 1256.17,469.167 1241.5,469C 1237.33,398.856 1261.33,340.189 1313.5,293C 1352.38,261.686 1396.38,251.352 1445.5,262C 1479.55,270.1 1508.05,287.267 1531,313.5C 1576.21,367.377 1593.54,429.377 1583,499.5C 1579.43,526.101 1571.1,551.101 1558,574.5C 1494.07,669.368 1429.9,764.035 1365.5,858.5 Z"/></g>
<g><path style="opacity:1" fill="#000000" d="M 1731.5,753.5 C 1730.6,754.209 1730.26,755.209 1730.5,756.5C 1775.17,756.5 1819.83,756.5 1864.5,756.5C 1864.5,690.5 1864.5,624.5 1864.5,558.5C 1864.92,557.778 1865.58,557.278 1866.5,557C 1894.5,556.333 1922.5,556.333 1950.5,557C 1951,557.5 1951.5,558 1952,558.5C 1952.5,624.499 1952.67,690.499 1952.5,756.5C 1966.84,756.333 1981.17,756.5 1995.5,757C 1996,757.5 1996.5,758 1997,758.5C 1997.17,775.167 1997.33,791.833 1997.5,808.5C 1997.65,825.921 1997.15,843.255 1996,860.5C 1981.58,861.49 1967.08,861.824 1952.5,861.5C 1952.67,895.168 1952.5,928.835 1952,962.5C 1951.5,963 1951,963.5 1950.5,964C 1922.5,964.667 1894.5,964.667 1866.5,964C 1866,963.5 1865.5,963 1865,962.5C 1864.5,928.835 1864.33,895.168 1864.5,861.5C 1787.5,861.667 1710.5,861.5 1633.5,861C 1632.87,860.25 1632.37,859.416 1632,858.5C 1631.33,825.5 1631.33,792.5 1632,759.5C 1694.33,593.5 1756.67,427.5 1819,261.5C 1819.83,260.667 1820.67,259.833 1821.5,259C 1852.17,258.333 1882.83,258.333 1913.5,259C 1916.89,261.608 1917.39,264.775 1915,268.5C 1853.33,430.008 1792.17,591.674 1731.5,753.5 Z"/></g>
<g><path style="opacity:1" fill="#000000" d="M 2059.5,258.5 C 2133.5,258.333 2207.5,258.5 2281.5,259C 2341.31,263.148 2388.81,289.315 2424,337.5C 2455.45,381.833 2473.45,431.166 2478,485.5C 2480.88,560.488 2481.21,635.488 2479,710.5C 2481.73,794.392 2452.57,864.558 2391.5,921C 2356.74,951.486 2316.07,967.486 2269.5,969C 2199.5,969.667 2129.5,969.667 2059.5,969C 2059,968.5 2058.5,968 2058,967.5C 2057.83,849.5 2057.67,731.5 2057.5,613.5C 2057.5,494.959 2058.17,376.625 2059.5,258.5 Z"/></g>
<g><path style="opacity:1" fill="#000000" d="M 712.5,263.5 C 712.5,462.5 712.5,661.5 712.5,860.5C 804.5,860.5 896.5,860.5 988.5,860.5C 989.458,860.953 990.292,861.619 991,862.5C 991.667,898.167 991.667,933.833 991,969.5C 990.25,970.126 989.416,970.626 988.5,971C 865.5,971.667 742.5,971.667 619.5,971C 619,970.5 618.5,970 618,969.5C 617.333,733.833 617.333,498.167 618,262.5C 618.5,262 619,261.5 619.5,261C 649.833,260.333 680.167,260.333 710.5,261C 711.381,261.708 712.047,262.542 712.5,263.5 Z"/></g>
<g><path style="opacity:1" fill="#fefefe" d="M 273.5,367.5 C 319.149,365.237 353.649,383.57 377,422.5C 391.237,450.78 398.57,480.78 399,512.5C 402.316,578.831 402.316,645.165 399,711.5C 398.486,723.64 396.986,735.64 394.5,747.5C 374.348,728.516 354.348,709.349 334.5,690C 332.049,687.16 329.549,686.994 327,689.5C 310.245,713.343 293.245,737.01 276,760.5C 274.578,763.03 274.245,765.697 275,768.5C 298.167,791 321.333,813.5 344.5,836C 323.244,852.315 299.244,858.649 272.5,855C 247.598,850.799 227.098,838.965 211,819.5C 192.874,795.897 181.874,769.231 178,739.5C 174.607,696.573 173.107,653.573 173.5,610.5C 173.093,568.093 174.593,525.76 178,483.5C 181.781,447.442 196.614,416.942 222.5,392C 237.215,378.975 254.215,370.808 273.5,367.5 Z"/></g>
<g><path style="opacity:1" fill="#919191" d="M 2260.5,370.5 C 2225.5,370.5 2190.5,370.5 2155.5,370.5C 2155.5,533.167 2155.5,695.833 2155.5,858.5C 2154.5,695.668 2154.17,532.668 2154.5,369.5C 2190,369.168 2225.34,369.502 2260.5,370.5 Z"/></g>
<g><path style="opacity:1" fill="#fefefe" d="M 2260.5,370.5 C 2303.31,371.482 2335.81,390.148 2358,426.5C 2368.65,444.462 2375.31,463.795 2378,484.5C 2380.08,503.111 2381.41,521.777 2382,540.5C 2382.67,594.167 2382.67,647.833 2382,701.5C 2382.88,733.435 2377.21,764.102 2365,793.5C 2345.24,831.979 2313.74,853.479 2270.5,858C 2232.17,858.5 2193.83,858.667 2155.5,858.5C 2155.5,695.833 2155.5,533.167 2155.5,370.5C 2190.5,370.5 2225.5,370.5 2260.5,370.5 Z"/></g>
<g><path style="opacity:1" fill="#cdcdcd" d="M 1864.5,558.5 C 1864.5,624.5 1864.5,690.5 1864.5,756.5C 1819.83,756.5 1775.17,756.5 1730.5,756.5C 1730.26,755.209 1730.6,754.209 1731.5,753.5C 1775.15,755.495 1819.15,756.161 1863.5,755.5C 1863.17,689.665 1863.5,623.998 1864.5,558.5 Z"/></g>
<g><path style="opacity:1" fill="#d1d1d1" d="M 712.5,263.5 C 713.5,461.999 713.833,660.666 713.5,859.5C 805.335,859.167 897.002,859.501 988.5,860.5C 896.5,860.5 804.5,860.5 712.5,860.5C 712.5,661.5 712.5,462.5 712.5,263.5 Z"/></g>
<g><path style="opacity:1" fill="#838383" d="M 1365.5,858.5 C 1437.83,859.167 1510.17,859.833 1582.5,860.5C 1509.83,860.833 1437.16,860.5 1364.5,859.5C 1364.62,858.893 1364.96,858.56 1365.5,858.5 Z"/></g>
<g><path style="opacity:1" fill="#010101" d="M 1070.5,860.5 C 1098.5,860.333 1126.5,860.5 1154.5,861C 1155,861.5 1155.5,862 1156,862.5C 1156.67,898.167 1156.67,933.833 1156,969.5C 1155.5,970 1155,970.5 1154.5,971C 1126.5,971.667 1098.5,971.667 1070.5,971C 1070,970.5 1069.5,970 1069,969.5C 1068.33,934.167 1068.33,898.833 1069,863.5C 1069.51,862.473 1070.01,861.473 1070.5,860.5 Z"/></g>
</svg>
