<?xml version="1.0" encoding="utf-8"?>
<svg viewBox="0 0 323.14914 200" xmlns="http://www.w3.org/2000/svg">
  <g id="layer1" transform="matrix(0.9999999999999999, 0, 0, 0.9999999999999999, -303.4596862792969, -22.960700988769517)">
    <path id="rect15575" style="opacity:1;fill:#0a9646;fill-opacity:1;fill-rule:evenodd;stroke-width:0.0420687;stroke-linecap:square;stroke-miterlimit:10;paint-order:stroke fill markers" d="M 303.45966,22.960701 H 626.6088 V 222.9607 H 303.45966 Z"/>
    <path transform="matrix(0.26458333,0,0,0.26458333,303.45966,22.960701)" d="m 30.353516,5.0117188 c -13.808655,0 -25.0781254,11.2674112 -25.0781254,25.0761722 v 332.957029 47.1211 49.04296 13.88672 252.45508 c 0,13.80862 11.2694704,25.06641 25.0781254,25.06641 H 1190.9805 c 13.8086,0 25.0781,-11.25779 25.0781,-25.06641 V 473.0957 459.57031 401.94727 363.04492 30.087891 c 0,-13.808761 -11.2695,-25.0761722 -25.0781,-25.0761722 z m 0,9.4511722 H 1190.9805 c 8.7398,0 15.6425,6.885058 15.6425,15.625 v 332.957029 38.90235 c 0,0.29959 -0.013,0.61475 -0.037,0.9375 v 7.20703 c 0,8.68754 -6.9941,15.68164 -15.6816,15.68164 h -8.0762 c -0.1869,0.007 -0.3766,0.0176 -0.5586,0.0176 H 38.023438 c -0.18105,0 -0.371847,-0.0102 -0.560547,-0.0176 h -7.097657 c -8.687546,0 -15.68164,-6.9941 -15.68164,-15.68164 V 30.152344 c 0,-1.658433 0.257595,-3.253829 0.730468,-4.751953 0.01365,-0.04461 0.03284,-0.08643 0.04688,-0.13086 1.99686,-6.321925 7.84094,-10.80664 14.892578,-10.80664 z M 30.28125,435.30469 h 6.958984 1145.628866 8.1172 c 8.6414,0 15.5996,6.95633 15.5996,15.59765 v 7.5918 c 0.024,0.37296 0.037,0.7339 0.037,1.07617 v 13.52539 252.45508 c 0,5.47634 -2.7106,10.22208 -6.8847,13.00391 -2.4923,1.6862 -5.5034,2.66992 -8.752,2.66992 H 30.28125 c -8.641361,0 -15.597656,-6.9563 -15.597656,-15.59766 V 450.90234 c 0,-8.64132 6.956295,-15.59765 15.597656,-15.59765 z" style="color:#000000;font-style:normal;font-variant:normal;font-weight:normal;font-stretch:normal;font-size:medium;line-height:normal;font-family:sans-serif;font-variant-ligatures:normal;font-variant-position:normal;font-variant-caps:normal;font-variant-numeric:normal;font-variant-alternates:normal;font-variant-east-asian:normal;font-feature-settings:normal;font-variation-settings:normal;text-indent:0;text-align:start;text-decoration:none;text-decoration-line:none;text-decoration-style:solid;text-decoration-color:#000000;letter-spacing:normal;word-spacing:normal;text-transform:none;writing-mode:lr-tb;direction:ltr;text-orientation:mixed;dominant-baseline:auto;baseline-shift:baseline;text-anchor:start;white-space:normal;shape-padding:0;shape-margin:0;inline-size:0;clip-rule:nonzero;display:inline;overflow:visible;visibility:visible;opacity:1;isolation:auto;mix-blend-mode:normal;color-interpolation:sRGB;color-interpolation-filters:linearRGB;solid-color:#000000;solid-opacity:1;vector-effect:none;fill:#ffffff;fill-opacity:1;fill-rule:evenodd;stroke:none;stroke-width:2.09199;stroke-linecap:square;stroke-linejoin:miter;stroke-miterlimit:10;stroke-dasharray:none;stroke-dashoffset:0;stroke-opacity:1;paint-order:stroke fill markers;color-rendering:auto;image-rendering:auto;shape-rendering:auto;text-rendering:auto;enable-background:accumulate;stop-color:#000000;stop-opacity:1" id="path15582"/>
    <path d="m 324.12038,67.193614 h 60.89334 v 27.821331 h -60.89334 z" style="opacity:1;fill:#ffd70f;fill-opacity:1;fill-rule:evenodd;stroke:none;stroke-width:0.553508;stroke-linecap:square;stroke-miterlimit:10;stroke-dasharray:none;stroke-opacity:1;paint-order:stroke fill markers" id="rect15605"/>
    <path id="path15631" d="m 326.18273,67.759747 c -0.81115,0 -1.47443,0.660164 -1.47443,1.471307 v 23.746432 c 0,0.811142 0.66328,1.471323 1.47443,1.471323 h 56.7905 c 0.81117,0 1.4744,-0.660181 1.4744,-1.471323 V 69.231054 c 0,-0.811143 -0.66328,-1.471307 -1.4744,-1.471307 z m 0,0.535017 h 56.7905 c 0.52266,0 0.93627,0.413622 0.93627,0.93629 v 23.746432 c 0,0.522654 -0.41353,0.933189 -0.93627,0.933189 h -56.7905 c -0.52266,0 -0.93628,-0.410555 -0.93628,-0.933189 V 69.231054 c 0,-0.522672 0.41354,-0.93629 0.93628,-0.93629 z" style="color:#000000;font-style:normal;font-variant:normal;font-weight:normal;font-stretch:normal;font-size:medium;line-height:normal;font-family:sans-serif;font-variant-ligatures:normal;font-variant-position:normal;font-variant-caps:normal;font-variant-numeric:normal;font-variant-alternates:normal;font-variant-east-asian:normal;font-feature-settings:normal;font-variation-settings:normal;text-indent:0;text-align:start;text-decoration:none;text-decoration-line:none;text-decoration-style:solid;text-decoration-color:#000000;letter-spacing:normal;word-spacing:normal;text-transform:none;writing-mode:lr-tb;direction:ltr;text-orientation:mixed;dominant-baseline:auto;baseline-shift:baseline;text-anchor:start;white-space:normal;shape-padding:0;shape-margin:0;inline-size:0;clip-rule:nonzero;display:inline;overflow:visible;visibility:visible;opacity:1;isolation:auto;mix-blend-mode:normal;color-interpolation:sRGB;color-interpolation-filters:linearRGB;solid-color:#000000;solid-opacity:1;vector-effect:none;fill:#000000;fill-opacity:1;fill-rule:evenodd;stroke:none;stroke-width:0.119062;stroke-linecap:square;stroke-linejoin:miter;stroke-miterlimit:10;stroke-dasharray:none;stroke-dashoffset:0;stroke-opacity:1;paint-order:stroke fill markers;color-rendering:auto;image-rendering:auto;shape-rendering:auto;text-rendering:auto;enable-background:accumulate;stop-color:#000000;stop-opacity:1"/>
    <path d="m 336.88947,72.205604 c -1.36961,0 -2.51552,0.330332 -3.43646,0.991507 -0.91309,0.653335 -1.5737,1.361798 -1.98303,2.125328 -0.14189,0.267612 -0.264,0.538688 -0.36613,0.814199 -0.10264,0.275473 -0.18065,0.564078 -0.23555,0.86321 -0.0552,0.299089 -0.0954,0.774434 -0.11873,1.427765 -0.0223,0.653332 -0.0362,1.495435 -0.0362,2.5266 0,2.062321 0.0516,3.383536 0.15387,3.966025 0.0552,0.299136 0.13326,0.587702 0.23556,0.863193 0.10264,0.267612 0.22467,0.534915 0.36612,0.802543 0.40948,0.771411 1.06995,1.479875 1.983,2.125324 0.92887,0.653346 2.07472,0.979855 3.43649,0.979855 0.74779,0 1.44489,-0.107189 2.09034,-0.319632 0.64544,-0.212556 1.24303,-0.525333 1.79403,-0.942508 1.1335,-0.865864 1.86473,-2.103628 2.19533,-3.709419 0.0139,-0.04714 0.009,-0.08518 -0.0223,-0.116745 -0.0315,-0.03928 -0.0694,-0.05829 -0.11656,-0.05829 h -2.70394 c -0.0223,1.5e-5 -0.0488,0.01117 -0.0722,0.03521 -0.0223,0.01589 -0.0451,0.0307 -0.0582,0.0467 -0.70836,1.487712 -1.74338,2.232636 -3.10515,2.232636 -0.59037,0 -1.09454,-0.11468 -1.51174,-0.342928 -0.41713,-0.236167 -0.75132,-0.520933 -1.00317,-0.851551 -0.14189,-0.181028 -0.27124,-0.389065 -0.3896,-0.625222 -0.11008,-0.244 -0.19597,-0.488524 -0.25924,-0.732545 -0.0628,-0.267611 -0.10709,-0.67614 -0.13048,-1.227141 -0.0223,-0.558871 -0.0359,-1.267326 -0.0359,-2.125325 0,-0.842249 0.009,-1.543133 0.0359,-2.102004 0.0223,-0.55887 0.0677,-0.97117 0.13048,-1.238798 0.0627,-0.251917 0.14857,-0.496392 0.25924,-0.732549 0.11009,-0.244 0.24028,-0.45965 0.3896,-0.64857 0.252,-0.30699 0.58598,-0.580386 1.00317,-0.816526 0.41715,-0.236167 0.92137,-0.352269 1.51174,-0.352269 0.79503,1.7e-5 1.45185,0.230844 1.97135,0.695231 0.27541,0.236167 0.50863,0.492045 0.69757,0.767539 0.18872,0.267667 0.33407,0.560022 0.4361,0.874867 0.0167,0.06294 0.0599,0.09333 0.13046,0.09333 h 2.7039 c 0.0468,0 0.0854,-0.01589 0.11658,-0.0467 0.0315,-0.03161 0.0407,-0.07184 0.0223,-0.118954 -0.25952,-1.393235 -0.93175,-2.595995 -2.01801,-3.611427 -1.07052,-1.007535 -2.42438,-1.511744 -4.0617,-1.511744 z m 27.73422,0.104956 c -1.28304,0 -2.4213,0.437369 -3.41313,1.311121 -0.99967,0.858 -1.50005,2.08205 -1.50005,3.672071 v 7.425818 c 0,1.590021 0.50038,2.814088 1.50005,3.672088 0.99183,0.865851 2.13009,1.299446 3.41313,1.299446 1.28303,0 2.42133,-0.433578 3.41313,-1.299446 1.00756,-0.86587 1.50938,-2.089917 1.50938,-3.672088 v -7.425818 c 0,-0.787127 -0.1299,-1.484222 -0.38959,-2.09033 -0.252,-0.613979 -0.62389,-1.140934 -1.11979,-1.581741 -0.49592,-0.425045 -1.03279,-0.74779 -1.6074,-0.968177 -0.56674,-0.22825 -1.16816,-0.342924 -1.80573,-0.342924 z m -21.12261,0.03521 c -0.0943,0 -0.14217,0.04776 -0.14217,0.142392 v 2.279298 c 0,0.09444 0.0479,0.142197 0.14217,0.142197 h 4.49793 V 89.409 c 0,0.09444 0.0479,0.139995 0.14217,0.139995 h 2.5616 c 0.0945,0 0.14217,-0.04555 0.14217,-0.139995 V 74.909653 h 4.48625 c 0.0943,0 0.14217,-0.04778 0.14217,-0.142196 v -2.279299 c 0,-0.09444 -0.0479,-0.142392 -0.14217,-0.142392 z m 31.22667,0.118953 -2.43331,1.759064 c -0.0139,0.01589 -0.0315,0.03477 -0.0466,0.05829 -0.009,0.02341 -0.0139,0.04468 -0.0139,0.06068 v 2.561593 c 0,0.06294 0.0278,0.110694 0.0728,0.142196 0.0468,0.02343 0.0989,0.01617 0.15388,-0.02343 0.36208,-0.259778 0.7228,-0.523245 1.08486,-0.790886 0.36206,-0.275473 0.72509,-0.548889 1.08714,-0.816528 v 14.028096 c 0,0.09444 0.048,0.142198 0.14217,0.142198 h 2.41929 c 0.0943,0 0.13994,-0.04778 0.13994,-0.142198 V 72.606811 c 0,-0.09444 -0.0455,-0.142197 -0.13994,-0.142197 z m -10.10406,2.538257 c 0.67694,0 1.21532,0.217964 1.61673,0.650912 0.40948,0.425045 0.61359,1.018854 0.61359,1.782378 v 7.143522 c 0,0.771407 -0.20461,1.368982 -0.61359,1.794059 -0.40133,0.425045 -0.93979,0.63689 -1.61673,0.63689 -0.67695,0 -1.21527,-0.211859 -1.61671,-0.63689 -0.40134,-0.425091 -0.60428,-1.022652 -0.60428,-1.794059 v -7.143497 c 0,-0.763524 0.20266,-1.357335 0.60428,-1.782377 0.40133,-0.432946 0.93976,-0.650913 1.61671,-0.650913 z m -9.98507,11.865445 c -0.0945,0 -0.14217,0.04776 -0.14217,0.14239 v 2.398281 c 0,0.09444 0.0479,0.139994 0.14217,0.139994 h 2.40762 c 0.0867,0 0.13046,-0.04555 0.13046,-0.139994 v -2.398281 c 0,-0.09444 -0.0451,-0.14239 -0.13046,-0.14239 z" style="font-style: normal; font-variant: normal; font-weight: normal; font-stretch: normal; font-size: 15.1831px; line-height: 1.46; font-family: 'Alte DIN 1451 Mittelschrift gepraegt'; text-align: center; text-anchor: middle; opacity: 1; fill-opacity: 1; stroke-width: 0.264584; visibility: hidden;" id="path15637"/>
    <path id="path17496" style="font-size:15.1831px;line-height:1.46;font-family:'Singapore Road Signs';-inkscape-font-specification:'Singapore Road Signs';text-align:center;text-anchor:middle;opacity:1;fill:#ffffff;fill-opacity:1;stroke-width:0.0756548" d="m 570.47468,59.120043 v 50.614317 h 35.43541 V 59.120043 Z m 1.38203,1.660034 h 32.65274 v 47.566083 h -32.65274 z m 13.66823,3.646909 -2.23483,8.869719 h 3.92184 l 0.28216,-8.869719 z m 3.35329,0 0.28216,8.869719 h 3.92385 l -2.23686,-8.869719 z m -15.90932,9.992316 v 1.942234 l 3.06692,1.10806 v 0.584703 h 1.411 v -0.584703 c 0,0 2.08662,-0.313671 4.52568,-0.535349 1.95306,-0.177516 4.1317,-0.271988 5.64407,-0.278037 1.79866,-0.0063 4.45804,0.09363 6.73975,0.288436 2.51319,0.214479 4.5713,0.524984 4.5713,0.524984 v 0.5847 h 1.38199 v -0.5847 l 3.06685,-1.108064 v -1.942233 z m 9.21108,3.620663 -6.70448,26.681115 h 10.04943 l 1.39442,-26.681115 z m 7.25642,0 1.39441,26.681115 h 10.0494 l -6.70443,-26.681115 z"/>
    <g style="font-size:14.7905px;line-height:0;font-family:'Singapore Road Signs';-inkscape-font-specification:'Singapore Road Signs';text-align:center;text-anchor:middle;opacity:1;fill:#860000;fill-opacity:1;stroke-width:6.45213" id="layer1-8" transform="matrix(0.08718024,0,0,0.08718024,-145.22047,195.49013)">
      <circle style="opacity:1;fill:#f00a0a;fill-opacity:1;fill-rule:nonzero;stroke:none;stroke-width:3622.55;stroke-linecap:round;stroke-linejoin:round;stroke-miterlimit:4;stroke-dasharray:none;stroke-opacity:1;paint-order:stroke fill markers" id="path815" cx="6380.9966" cy="-193.29752" r="350"/>
      <circle cy="-193.29752" cx="6380.9966" id="circle817" style="opacity:1;fill:#ffffff;fill-opacity:1;fill-rule:nonzero;stroke:none;stroke-width:2587.55;stroke-linecap:round;stroke-linejoin:round;stroke-miterlimit:4;stroke-dasharray:none;stroke-opacity:1;paint-order:stroke fill markers" r="263.821"/>
      <g aria-label="20 " style="font-style:normal;font-variant:normal;font-weight:bold;font-stretch:normal;font-size:414.864px;line-height:0;font-family:Giaothong1;-inkscape-font-specification:'Giaothong1 Bold';letter-spacing:0px;word-spacing:0px;fill:#000000;fill-opacity:1;stroke:none;stroke-width:24.7849" id="text874" transform="matrix(-1,0,0,1,1299.029,-383.45)">
        <g aria-label="90" transform="translate(2310.2259,387.54849)" style="font-style:normal;font-variant:normal;font-weight:bold;font-stretch:normal;font-size:414.864px;line-height:0;font-family:Giaothong1;-inkscape-font-specification:'Giaothong1 Bold';letter-spacing:0px;word-spacing:0px;fill:#000000;fill-opacity:1;stroke:none;stroke-width:53.5539" id="text844"/>
      </g>
    </g>
    <g style="font-size:14.7905px;line-height:0;font-family:'Singapore Road Signs';-inkscape-font-specification:'Singapore Road Signs';text-align:center;text-anchor:middle;opacity:1;fill:#fff000;fill-opacity:1;stroke-width:6.45221" id="layer1-7" transform="matrix(0.08717968,0,0,0.08717968,488.77841,183.34565)">
      <circle cy="-54" cx="351" id="circle817-6" style="opacity:1;fill:#0046aa;fill-opacity:1;fill-rule:nonzero;stroke:none;stroke-width:3622.58;stroke-linecap:round;stroke-linejoin:round;stroke-miterlimit:4;stroke-dasharray:none;stroke-opacity:1;paint-order:stroke fill markers" r="350"/>
      <path id="rect984" style="font-style: normal; font-variant: normal; font-weight: bold; font-stretch: normal; font-size: 414.864px; line-height: 0; font-family: Giaothong1; letter-spacing: 0px; word-spacing: 0px; opacity: 1; fill: rgb(255, 255, 255); fill-opacity: 1; fill-rule: nonzero; stroke: none; stroke-width: 0.344279; stroke-linecap: round; stroke-linejoin: miter; stroke-miterlimit: 10; stroke-dasharray: none; stroke-opacity: 1; paint-order: stroke; visibility: hidden;" d="m 851.18164,518.03906 c -16.32678,0 -29.4707,13.14393 -29.4707,29.47071 v 80.94921 c 0,16.32678 13.14392,29.47071 29.4707,29.47071 16.32678,0 29.4707,-13.14393 29.4707,-29.47071 v -80.94921 c 0,-16.32678 -13.14392,-29.47071 -29.4707,-29.47071 z m -69.94336,1.23828 -26.10937,69.75391 c -2.72781,7.40406 -3.70118,11.30112 -3.70118,28.44727 0,18.12042 0.7789,22.01697 4.67579,28.25195 5.26075,8.37828 14.22308,13.44336 24.93945,13.44336 10.91123,0 20.0688,-4.87023 25.13476,-13.44336 3.70197,-6.23498 4.48047,-10.13153 4.48047,-28.25195 0,-22.01726 -0.77798,-26.88814 -4.28515,-32.34375 -3.31232,-5.06591 -9.74347,-8.96289 -16.75782,-8.96289 -4.28653,0 -7.01308,0.77773 -8.37695,1.75195 l -0.39062,-0.38867 22.60156,-58.25782 z m 69.94336,18.74024 c 5.25853,0 9.49219,4.23365 9.49219,9.49219 v 80.94921 c 0,5.25853 -4.23366,9.49219 -9.49219,9.49219 -5.25853,0 -9.49219,-4.23366 -9.49219,-9.49219 v -80.94921 c 0,-5.25854 4.23366,-9.49219 9.49219,-9.49219 z m -70.13867,55.68945 c 5.0659,0 9.74219,3.89738 9.74219,9.9375 v 25.71875 c 0,6.04012 -4.67629,9.9375 -9.74219,9.9375 -5.0659,0 -9.74219,-3.89738 -9.74219,-9.9375 v -25.71875 c 0,-6.04012 4.67629,-9.9375 9.74219,-9.9375 z" transform="matrix(3.0349198,0,0,3.0349198,-2125.7104,-1839.7056)"/>
    </g>
    <g aria-label="6" id="text19759" style="font-size:31.1478px;line-height:1.3;font-family:'Singapore Road Signs';-inkscape-font-specification:'Singapore Road Signs';text-align:center;text-anchor:middle;stroke-width:0.159861" transform="matrix(1.6550836,0,0,1.6550836,-321.31659,-238.56049)"/>
    <path d="M 364.767 46.797 Q 364.661 46.797 364.661 46.691 L 364.661 34.097 Q 364.661 33.991 364.767 33.991 L 366.577 33.991 Q 366.63 33.991 366.665 34.044 L 372.202 42.763 L 372.202 34.097 Q 372.202 33.991 372.308 33.991 L 374.224 33.991 Q 374.329 33.991 374.329 34.097 L 374.329 46.691 Q 374.329 46.797 374.224 46.797 L 372.422 46.797 Q 372.369 46.797 372.334 46.744 L 366.779 38.025 L 366.779 46.691 Q 366.779 46.797 366.683 46.797 Z M 383.976 46.797 Q 383.871 46.797 383.871 46.691 L 383.871 41.295 L 379.081 41.295 L 379.081 46.691 Q 379.081 46.797 378.975 46.797 L 377.068 46.797 Q 376.963 46.797 376.963 46.691 L 376.963 34.097 Q 376.963 33.991 377.068 33.991 L 378.975 33.991 Q 379.081 33.991 379.081 34.097 L 379.081 39.388 L 383.871 39.388 L 383.871 34.097 Q 383.871 33.991 383.976 33.991 L 385.883 33.991 Q 385.989 33.991 385.989 34.097 L 385.989 46.691 Q 385.989 46.797 385.883 46.797 Z M 387.491 46.788 Q 387.43 46.788 387.403 46.744 Q 387.377 46.7 387.395 46.647 L 392 34.044 Q 392.018 33.974 392.088 33.974 L 393.661 33.974 Q 393.688 33.974 393.718 33.996 Q 393.749 34.017 393.758 34.044 L 398.355 46.647 Q 398.372 46.7 398.346 46.744 Q 398.319 46.788 398.267 46.788 L 396.254 46.788 Q 396.184 46.788 396.166 46.718 L 395.217 43.94 L 390.576 43.94 Q 390.33 44.652 390.088 45.333 Q 389.847 46.015 389.601 46.718 Q 389.592 46.744 389.561 46.766 Q 389.53 46.788 389.504 46.788 Z M 394.584 42.051 Q 394.566 41.989 394.536 41.919 Q 394.505 41.849 394.487 41.796 Q 394.338 41.365 394.215 41 Q 394.092 40.636 393.995 40.363 Q 393.934 40.187 393.877 40.02 Q 393.819 39.853 393.767 39.704 Q 393.723 39.563 393.679 39.436 Q 393.635 39.309 393.591 39.185 Q 393.512 38.931 393.428 38.676 Q 393.345 38.421 393.257 38.148 Q 393.213 38.025 393.165 37.876 Q 393.116 37.726 393.064 37.559 Q 393.037 37.472 393.024 37.423 Q 393.011 37.375 392.993 37.327 Q 392.976 37.278 392.954 37.217 Q 392.932 37.155 392.897 37.041 Q 392.8 37.331 392.716 37.577 Q 392.633 37.823 392.563 38.034 Q 392.545 38.087 392.536 38.131 Q 392.527 38.175 392.51 38.219 Q 392.466 38.368 392.418 38.5 Q 392.369 38.632 392.325 38.764 Q 392.281 38.904 392.237 39.036 Q 392.193 39.168 392.149 39.291 Q 392.062 39.555 391.969 39.845 Q 391.877 40.135 391.763 40.451 Q 391.648 40.767 391.525 41.132 Q 391.402 41.497 391.209 42.051 Z M 406.432 46.797 Q 406.327 46.797 406.327 46.691 L 406.327 35.898 L 402.978 35.898 Q 402.873 35.898 402.873 35.793 L 402.873 34.097 Q 402.873 33.991 402.978 33.991 L 411.785 33.991 Q 411.89 33.991 411.89 34.097 L 411.89 35.793 Q 411.89 35.898 411.785 35.898 L 408.445 35.898 L 408.445 46.691 Q 408.445 46.797 408.34 46.797 Z M 415.289 35.898 L 415.289 39.511 L 418.075 39.511 Q 419.095 39.511 419.605 38.948 Q 420.114 38.386 420.114 37.612 Q 420.114 37.173 419.961 36.83 Q 419.807 36.487 419.517 36.267 Q 419.262 36.092 418.923 35.995 Q 418.585 35.898 418.19 35.898 Z M 413.276 46.797 Q 413.171 46.797 413.171 46.691 L 413.171 34.097 Q 413.171 33.991 413.276 33.991 L 418.207 33.991 Q 419.025 33.991 419.684 34.215 Q 420.343 34.439 420.835 34.852 Q 421.09 35.09 421.323 35.393 Q 421.556 35.696 421.736 36.048 Q 421.916 36.399 422.022 36.795 Q 422.127 37.19 422.127 37.612 Q 422.127 38.236 421.951 38.794 Q 421.775 39.352 421.459 39.836 Q 421.134 40.284 420.703 40.622 Q 420.273 40.961 419.728 41.163 Q 420.44 42.525 421.16 43.901 Q 421.881 45.276 422.593 46.639 Q 422.619 46.7 422.593 46.748 Q 422.566 46.797 422.505 46.797 L 420.237 46.797 Q 420.211 46.797 420.185 46.775 Q 420.158 46.753 420.141 46.735 L 417.566 41.418 L 415.289 41.418 L 415.289 46.691 Q 415.289 46.797 415.184 46.797 Z M 422.694 46.788 Q 422.632 46.788 422.606 46.744 Q 422.58 46.7 422.597 46.647 L 427.203 34.044 Q 427.22 33.974 427.29 33.974 L 428.864 33.974 Q 428.89 33.974 428.921 33.996 Q 428.952 34.017 428.96 34.044 L 433.557 46.647 Q 433.575 46.7 433.548 46.744 Q 433.522 46.788 433.469 46.788 L 431.456 46.788 Q 431.386 46.788 431.369 46.718 L 430.419 43.94 L 425.779 43.94 Q 425.533 44.652 425.291 45.333 Q 425.049 46.015 424.803 46.718 Q 424.794 46.744 424.764 46.766 Q 424.733 46.788 424.706 46.788 Z M 429.787 42.051 Q 429.769 41.989 429.738 41.919 Q 429.707 41.849 429.69 41.796 Q 429.54 41.365 429.417 41 Q 429.294 40.636 429.198 40.363 Q 429.136 40.187 429.079 40.02 Q 429.022 39.853 428.969 39.704 Q 428.925 39.563 428.881 39.436 Q 428.837 39.309 428.793 39.185 Q 428.714 38.931 428.631 38.676 Q 428.547 38.421 428.459 38.148 Q 428.415 38.025 428.367 37.876 Q 428.319 37.726 428.266 37.559 Q 428.24 37.472 428.227 37.423 Q 428.213 37.375 428.196 37.327 Q 428.178 37.278 428.156 37.217 Q 428.134 37.155 428.099 37.041 Q 428.002 37.331 427.919 37.577 Q 427.835 37.823 427.765 38.034 Q 427.747 38.087 427.739 38.131 Q 427.73 38.175 427.712 38.219 Q 427.668 38.368 427.62 38.5 Q 427.572 38.632 427.528 38.764 Q 427.484 38.904 427.44 39.036 Q 427.396 39.168 427.352 39.291 Q 427.264 39.555 427.172 39.845 Q 427.08 40.135 426.965 40.451 Q 426.851 40.767 426.728 41.132 Q 426.605 41.497 426.412 42.051 Z M 434.827 46.797 Q 434.721 46.797 434.721 46.691 L 434.721 34.097 Q 434.721 33.991 434.827 33.991 L 436.637 33.991 Q 436.69 33.991 436.725 34.044 L 442.262 42.763 L 442.262 34.097 Q 442.262 33.991 442.368 33.991 L 444.284 33.991 Q 444.389 33.991 444.389 34.097 L 444.389 46.691 Q 444.389 46.797 444.284 46.797 L 442.482 46.797 Q 442.429 46.797 442.394 46.744 L 436.84 38.025 L 436.84 46.691 Q 436.84 46.797 436.743 46.797 Z M 451.218 41.673 Q 451.113 41.673 451.113 41.567 L 451.113 39.757 Q 451.113 39.66 451.218 39.66 L 455.692 39.66 Q 455.797 39.66 455.797 39.757 L 455.797 42.323 Q 455.797 44.266 454.462 45.575 Q 453.108 46.902 451.201 46.902 Q 449.68 46.902 448.643 46.173 Q 447.624 45.452 447.167 44.591 L 447.175 44.591 Q 447.008 44.292 446.894 43.989 Q 446.78 43.685 446.718 43.351 Q 446.666 43.017 446.635 42.284 Q 446.604 41.55 446.604 40.398 Q 446.604 39.247 446.635 38.517 Q 446.666 37.788 446.718 37.454 Q 446.78 37.12 446.894 36.812 Q 447.008 36.505 447.175 36.206 L 447.167 36.206 Q 447.624 35.353 448.643 34.624 Q 449.672 33.886 451.201 33.886 Q 453.029 33.886 454.224 35.011 Q 455.437 36.136 455.727 37.7 Q 455.745 37.753 455.71 37.788 Q 455.674 37.823 455.622 37.823 L 453.609 37.823 Q 453.53 37.823 453.512 37.753 Q 453.398 37.401 453.187 37.098 Q 452.976 36.795 452.669 36.531 Q 452.089 36.013 451.201 36.013 Q 450.542 36.013 450.076 36.276 Q 449.61 36.54 449.329 36.883 Q 449.162 37.094 449.039 37.362 Q 448.916 37.63 448.845 37.911 Q 448.775 38.21 448.749 38.834 Q 448.722 39.458 448.722 40.398 Q 448.722 41.356 448.749 41.976 Q 448.775 42.596 448.845 42.894 Q 448.916 43.167 449.043 43.435 Q 449.171 43.703 449.329 43.905 Q 449.61 44.274 450.076 44.534 Q 450.542 44.793 451.201 44.793 Q 452.247 44.793 452.959 44.081 Q 453.679 43.369 453.679 42.218 L 453.679 41.673 Z" transform="matrix(1.310387, 0, 0, 1.310387, -59.698296, -1.169035)" style="fill: rgb(255, 255, 255);"/>
    <path transform="matrix(1.310387, 0, 0, 1.310387, -59.698296, -1.169035)" style="fill: rgb(255, 255, 255);"/>
    <path d="M 383.074 68.63 Q 383.126 68.63 383.162 68.67 Q 383.197 68.709 383.179 68.762 Q 382.81 70.555 381.544 71.522 Q 380.929 71.988 380.208 72.225 Q 379.488 72.462 378.653 72.462 Q 377.132 72.462 376.095 71.733 Q 375.076 71.012 374.619 70.151 Q 374.46 69.852 374.346 69.549 Q 374.232 69.245 374.17 68.911 Q 374.056 68.261 374.056 65.958 Q 374.056 64.807 374.082 64.077 Q 374.109 63.348 374.17 63.014 Q 374.232 62.68 374.346 62.372 Q 374.46 62.065 374.619 61.766 Q 375.076 60.913 376.095 60.184 Q 377.123 59.446 378.653 59.446 Q 380.481 59.446 381.676 60.571 Q 382.889 61.704 383.179 63.26 Q 383.197 63.313 383.162 63.348 Q 383.126 63.383 383.074 63.383 L 381.061 63.383 Q 380.982 63.383 380.964 63.313 Q 380.85 62.961 380.639 62.658 Q 380.428 62.355 380.121 62.091 Q 379.54 61.573 378.653 61.573 Q 377.994 61.573 377.528 61.836 Q 377.062 62.1 376.781 62.443 Q 376.614 62.654 376.491 62.922 Q 376.368 63.19 376.297 63.471 Q 376.227 63.77 376.201 64.394 Q 376.174 65.018 376.174 65.958 Q 376.174 66.916 376.201 67.536 Q 376.227 68.156 376.297 68.454 Q 376.368 68.727 376.495 68.995 Q 376.622 69.263 376.781 69.465 Q 377.062 69.834 377.528 70.094 Q 377.994 70.353 378.653 70.353 Q 380.173 70.353 380.964 68.692 Q 380.982 68.674 381.008 68.652 Q 381.035 68.63 381.061 68.63 Z M 383.185 72.348 Q 383.123 72.348 383.097 72.304 Q 383.07 72.26 383.088 72.207 L 387.693 59.604 Q 387.711 59.534 387.781 59.534 L 389.355 59.534 Q 389.381 59.534 389.412 59.556 Q 389.442 59.577 389.451 59.604 L 394.048 72.207 Q 394.066 72.26 394.039 72.304 Q 394.013 72.348 393.96 72.348 L 391.947 72.348 Q 391.877 72.348 391.859 72.278 L 390.91 69.5 L 386.27 69.5 Q 386.024 70.212 385.782 70.893 Q 385.54 71.575 385.294 72.278 Q 385.285 72.304 385.254 72.326 Q 385.224 72.348 385.197 72.348 Z M 390.277 67.611 Q 390.26 67.549 390.229 67.479 Q 390.198 67.409 390.181 67.356 Q 390.031 66.925 389.908 66.56 Q 389.785 66.196 389.689 65.923 Q 389.627 65.747 389.57 65.58 Q 389.513 65.413 389.46 65.264 Q 389.416 65.123 389.372 64.996 Q 389.328 64.869 389.284 64.745 Q 389.205 64.491 389.122 64.236 Q 389.038 63.981 388.95 63.708 Q 388.906 63.585 388.858 63.436 Q 388.81 63.286 388.757 63.119 Q 388.731 63.032 388.717 62.983 Q 388.704 62.935 388.687 62.887 Q 388.669 62.838 388.647 62.777 Q 388.625 62.715 388.59 62.601 Q 388.493 62.891 388.41 63.137 Q 388.326 63.383 388.256 63.594 Q 388.238 63.647 388.23 63.691 Q 388.221 63.735 388.203 63.779 Q 388.159 63.928 388.111 64.06 Q 388.063 64.192 388.019 64.324 Q 387.975 64.464 387.931 64.596 Q 387.887 64.728 387.843 64.851 Q 387.755 65.115 387.663 65.405 Q 387.57 65.695 387.456 66.011 Q 387.342 66.327 387.219 66.692 Q 387.096 67.057 386.902 67.611 Z M 395.491 72.357 Q 395.386 72.357 395.386 72.251 L 395.386 59.657 Q 395.386 59.551 395.491 59.551 L 397.293 59.551 Q 397.354 59.551 397.389 59.613 L 400.914 67.602 Q 401.766 65.589 402.628 63.607 Q 403.489 61.625 404.35 59.613 Q 404.377 59.551 404.447 59.551 L 406.249 59.551 Q 406.354 59.551 406.354 59.657 L 406.354 72.251 Q 406.354 72.357 406.249 72.357 L 404.342 72.357 Q 404.236 72.357 404.236 72.251 L 404.236 64.816 Q 403.621 66.248 402.997 67.663 Q 402.373 69.078 401.766 70.502 Q 401.731 70.555 401.67 70.555 L 400.079 70.555 Q 400.017 70.555 399.982 70.502 L 397.504 64.798 L 397.504 72.251 Q 397.504 72.357 397.398 72.357 Z M 413.436 72.357 Q 413.331 72.357 413.331 72.251 L 413.331 59.657 Q 413.331 59.551 413.436 59.551 L 415.343 59.551 Q 415.449 59.551 415.449 59.657 L 415.449 70.353 L 421.487 70.353 Q 421.592 70.353 421.592 70.458 L 421.592 72.251 Q 421.592 72.357 421.487 72.357 Z M 422.199 72.348 Q 422.137 72.348 422.111 72.304 Q 422.085 72.26 422.102 72.207 L 426.708 59.604 Q 426.725 59.534 426.795 59.534 L 428.369 59.534 Q 428.395 59.534 428.426 59.556 Q 428.457 59.577 428.465 59.604 L 433.062 72.207 Q 433.08 72.26 433.053 72.304 Q 433.027 72.348 432.974 72.348 L 430.961 72.348 Q 430.891 72.348 430.874 72.278 L 429.924 69.5 L 425.284 69.5 Q 425.038 70.212 424.796 70.893 Q 424.554 71.575 424.308 72.278 Q 424.299 72.304 424.269 72.326 Q 424.238 72.348 424.211 72.348 Z M 429.292 67.611 Q 429.274 67.549 429.243 67.479 Q 429.212 67.409 429.195 67.356 Q 429.045 66.925 428.922 66.56 Q 428.799 66.196 428.703 65.923 Q 428.641 65.747 428.584 65.58 Q 428.527 65.413 428.474 65.264 Q 428.43 65.123 428.386 64.996 Q 428.342 64.869 428.298 64.745 Q 428.219 64.491 428.136 64.236 Q 428.052 63.981 427.964 63.708 Q 427.92 63.585 427.872 63.436 Q 427.824 63.286 427.771 63.119 Q 427.745 63.032 427.731 62.983 Q 427.718 62.935 427.701 62.887 Q 427.683 62.838 427.661 62.777 Q 427.639 62.715 427.604 62.601 Q 427.507 62.891 427.424 63.137 Q 427.34 63.383 427.27 63.594 Q 427.252 63.647 427.244 63.691 Q 427.235 63.735 427.217 63.779 Q 427.173 63.928 427.125 64.06 Q 427.077 64.192 427.033 64.324 Q 426.989 64.464 426.945 64.596 Q 426.901 64.728 426.857 64.851 Q 426.769 65.115 426.677 65.405 Q 426.585 65.695 426.47 66.011 Q 426.356 66.327 426.233 66.692 Q 426.11 67.057 425.917 67.611 Z M 424.449 58.417 Q 424.37 58.417 424.352 58.347 Q 424.335 58.277 424.387 58.233 L 426.971 56.185 L 428.158 56.185 L 430.777 58.233 Q 430.838 58.277 430.816 58.347 Q 430.794 58.417 430.715 58.417 L 429.239 58.417 L 427.481 57.468 Q 427.094 57.705 426.699 57.943 Q 426.303 58.18 425.917 58.417 Z M 434.66 72.357 Q 434.555 72.357 434.555 72.251 L 434.555 59.657 Q 434.555 59.551 434.66 59.551 L 436.462 59.551 Q 436.523 59.551 436.559 59.613 L 440.083 67.602 Q 440.936 65.589 441.797 63.607 Q 442.658 61.625 443.52 59.613 Q 443.546 59.551 443.616 59.551 L 445.418 59.551 Q 445.523 59.551 445.523 59.657 L 445.523 72.251 Q 445.523 72.357 445.418 72.357 L 443.511 72.357 Q 443.405 72.357 443.405 72.251 L 443.405 64.816 Q 442.79 66.248 442.166 67.663 Q 441.542 69.078 440.936 70.502 Q 440.9 70.555 440.839 70.555 L 439.248 70.555 Q 439.186 70.555 439.151 70.502 L 436.673 64.798 L 436.673 72.251 Q 436.673 72.357 436.567 72.357 Z" transform="matrix(1.310387, 0, 0, 1.310387, -59.698296, -1.169035)" style="fill: rgb(255, 255, 255);"/>
    <path d="M 426.152 119.118 Q 426.045 119.118 426.045 119.011 L 426.045 106.277 Q 426.045 106.17 426.152 106.17 L 434.292 106.17 Q 434.399 106.17 434.399 106.277 L 434.399 108.107 Q 434.399 108.214 434.292 108.214 L 428.187 108.214 L 428.187 111.626 L 433.377 111.626 Q 433.484 111.626 433.484 111.733 L 433.484 113.457 Q 433.484 113.555 433.377 113.555 L 428.187 113.555 L 428.187 117.092 L 434.292 117.092 Q 434.399 117.092 434.399 117.198 L 434.399 119.011 Q 434.399 119.118 434.292 119.118 Z M 442.57 119.118 Q 442.517 119.118 442.481 119.065 L 439.78 114.479 Q 439.104 115.634 438.429 116.772 Q 437.753 117.909 437.078 119.065 Q 437.043 119.118 436.989 119.118 L 434.812 119.118 Q 434.741 119.118 434.714 119.069 Q 434.688 119.02 434.723 118.958 L 438.589 112.48 Q 437.673 110.933 436.776 109.405 Q 435.878 107.876 434.972 106.33 Q 434.936 106.268 434.963 106.219 Q 434.99 106.17 435.052 106.17 L 437.238 106.17 Q 437.291 106.17 437.327 106.223 L 439.78 110.489 Q 440.393 109.422 441.006 108.361 Q 441.619 107.299 442.232 106.223 Q 442.268 106.17 442.321 106.17 L 444.507 106.17 Q 444.57 106.17 444.596 106.219 Q 444.623 106.268 444.587 106.33 L 440.97 112.48 Q 441.948 114.106 442.908 115.719 Q 443.868 117.332 444.845 118.958 Q 444.881 119.02 444.854 119.069 Q 444.827 119.118 444.756 119.118 Z M 448.149 108.214 L 448.149 112.106 L 450.913 112.106 Q 451.935 112.106 452.433 111.493 Q 452.939 110.898 452.939 110.16 Q 452.939 109.058 452.157 108.552 Q 451.65 108.214 450.842 108.214 Z M 446.114 119.118 Q 446.007 119.118 446.007 119.011 L 446.007 106.277 Q 446.007 106.17 446.114 106.17 L 450.735 106.17 Q 451.499 106.17 452.184 106.33 Q 452.877 106.49 453.659 107.094 Q 453.961 107.334 454.214 107.65 Q 454.468 107.965 454.672 108.347 Q 454.867 108.738 454.974 109.209 Q 455.081 109.68 455.081 110.213 Q 455.081 111.609 454.032 112.879 Q 452.983 114.141 450.984 114.141 L 448.149 114.141 L 448.149 119.011 Q 448.149 119.118 448.042 119.118 Z M 458.764 108.098 L 458.764 111.751 L 461.581 111.751 Q 462.612 111.751 463.128 111.182 Q 463.643 110.613 463.643 109.831 Q 463.643 109.387 463.488 109.04 Q 463.332 108.694 463.039 108.472 Q 462.781 108.294 462.439 108.196 Q 462.097 108.098 461.697 108.098 Z M 456.729 119.118 Q 456.623 119.118 456.623 119.011 L 456.623 106.277 Q 456.623 106.17 456.729 106.17 L 461.715 106.17 Q 462.541 106.17 463.208 106.397 Q 463.874 106.623 464.372 107.041 Q 464.63 107.281 464.865 107.587 Q 465.101 107.894 465.283 108.249 Q 465.465 108.605 465.572 109.005 Q 465.678 109.405 465.678 109.831 Q 465.678 110.462 465.5 111.027 Q 465.323 111.591 465.003 112.08 Q 464.674 112.533 464.239 112.875 Q 463.803 113.217 463.252 113.422 Q 463.972 114.799 464.701 116.19 Q 465.429 117.58 466.149 118.958 Q 466.176 119.02 466.149 119.069 Q 466.122 119.118 466.06 119.118 L 463.768 119.118 Q 463.741 119.118 463.714 119.096 Q 463.688 119.073 463.67 119.056 L 461.066 113.679 L 458.764 113.679 L 458.764 119.011 Q 458.764 119.118 458.658 119.118 Z M 467.659 119.118 Q 467.553 119.118 467.553 119.011 L 467.553 106.277 Q 467.553 106.17 467.659 106.17 L 475.8 106.17 Q 475.906 106.17 475.906 106.277 L 475.906 108.107 Q 475.906 108.214 475.8 108.214 L 469.694 108.214 L 469.694 111.626 L 474.884 111.626 Q 474.991 111.626 474.991 111.733 L 474.991 113.457 Q 474.991 113.555 474.884 113.555 L 469.694 113.555 L 469.694 117.092 L 475.8 117.092 Q 475.906 117.092 475.906 117.198 L 475.906 119.011 Q 475.906 119.118 475.8 119.118 Z M 477.683 115.848 Q 477.71 115.812 477.754 115.812 Q 477.799 115.812 477.834 115.839 Q 478.536 116.407 479.447 116.75 Q 480.358 117.092 481.371 117.092 Q 482.509 117.092 483.166 116.621 Q 483.788 116.167 483.788 115.421 Q 483.788 114.017 482.215 113.804 L 482.224 113.804 Q 482.002 113.777 481.802 113.75 Q 481.602 113.724 481.402 113.697 Q 481.202 113.67 480.993 113.639 Q 480.785 113.608 480.536 113.573 Q 479.7 113.457 479.047 113.15 Q 478.394 112.844 477.95 112.337 Q 477.505 111.822 477.283 111.213 Q 477.061 110.604 477.061 109.885 Q 477.061 108.196 478.181 107.139 Q 479.309 106.063 481.318 106.063 Q 481.913 106.063 482.477 106.165 Q 483.042 106.268 483.571 106.445 Q 484.099 106.623 484.584 106.868 Q 485.068 107.112 485.512 107.405 Q 485.601 107.467 485.539 107.556 L 484.464 109.147 Q 484.401 109.227 484.321 109.174 Q 483.628 108.738 482.846 108.476 Q 482.064 108.214 481.229 108.214 Q 480.802 108.214 480.438 108.316 Q 480.074 108.418 479.78 108.649 Q 479.203 109.067 479.203 109.92 Q 479.203 110.409 479.594 110.871 Q 479.789 111.084 480.118 111.231 Q 480.447 111.378 480.927 111.449 Q 481.184 111.493 481.531 111.542 Q 481.878 111.591 482.349 111.644 Q 484.17 111.866 485.05 112.986 Q 485.93 114.079 485.93 115.421 Q 485.93 117.216 484.677 118.229 Q 483.415 119.225 481.353 119.225 Q 478.447 119.225 476.412 117.447 Q 476.377 117.421 476.377 117.376 Q 476.377 117.332 476.403 117.296 Z M 487.95 115.848 Q 487.977 115.812 488.021 115.812 Q 488.066 115.812 488.101 115.839 Q 488.803 116.407 489.714 116.75 Q 490.625 117.092 491.638 117.092 Q 492.776 117.092 493.433 116.621 Q 494.055 116.167 494.055 115.421 Q 494.055 114.017 492.482 113.804 L 492.491 113.804 Q 492.269 113.777 492.069 113.75 Q 491.869 113.724 491.669 113.697 Q 491.469 113.67 491.26 113.639 Q 491.052 113.608 490.803 113.573 Q 489.967 113.457 489.314 113.15 Q 488.661 112.844 488.217 112.337 Q 487.772 111.822 487.55 111.213 Q 487.328 110.604 487.328 109.885 Q 487.328 108.196 488.448 107.139 Q 489.576 106.063 491.585 106.063 Q 492.18 106.063 492.744 106.165 Q 493.309 106.268 493.838 106.445 Q 494.366 106.623 494.851 106.868 Q 495.335 107.112 495.779 107.405 Q 495.868 107.467 495.806 107.556 L 494.731 109.147 Q 494.668 109.227 494.588 109.174 Q 493.895 108.738 493.113 108.476 Q 492.331 108.214 491.496 108.214 Q 491.069 108.214 490.705 108.316 Q 490.341 108.418 490.047 108.649 Q 489.47 109.067 489.47 109.92 Q 489.47 110.409 489.861 110.871 Q 490.056 111.084 490.385 111.231 Q 490.714 111.378 491.194 111.449 Q 491.451 111.493 491.798 111.542 Q 492.145 111.591 492.616 111.644 Q 494.437 111.866 495.317 112.986 Q 496.197 114.079 496.197 115.421 Q 496.197 117.216 494.944 118.229 Q 493.682 119.225 491.62 119.225 Q 488.714 119.225 486.679 117.447 Q 486.644 117.421 486.644 117.376 Q 486.644 117.332 486.67 117.296 Z M 500.203 119.118 Q 500.114 119.118 500.096 119.038 L 496.906 106.303 Q 496.888 106.25 496.924 106.21 Q 496.959 106.17 497.013 106.17 L 499.057 106.17 Q 499.145 106.17 499.163 106.25 L 501.083 114.95 Q 501.669 112.764 502.265 110.604 Q 502.86 108.445 503.455 106.25 Q 503.473 106.17 503.562 106.17 L 504.957 106.17 Q 505.037 106.17 505.055 106.25 L 507.437 114.95 Q 507.917 112.764 508.396 110.604 Q 508.876 108.445 509.356 106.25 Q 509.374 106.17 509.463 106.17 L 511.507 106.17 Q 511.56 106.17 511.596 106.21 Q 511.631 106.25 511.613 106.303 L 508.423 119.038 Q 508.405 119.118 508.317 119.118 L 506.708 119.118 Q 506.628 119.118 506.61 119.038 L 504.255 110.196 Q 503.669 112.426 503.082 114.621 Q 502.496 116.816 501.909 119.038 Q 501.891 119.118 501.811 119.118 Z M 511.528 119.109 Q 511.466 119.109 511.439 119.065 Q 511.413 119.02 511.43 118.967 L 516.087 106.223 Q 516.105 106.152 516.176 106.152 L 517.767 106.152 Q 517.793 106.152 517.824 106.174 Q 517.855 106.197 517.864 106.223 L 522.512 118.967 Q 522.53 119.02 522.503 119.065 Q 522.477 119.109 522.423 119.109 L 520.388 119.109 Q 520.317 119.109 520.299 119.038 L 519.34 116.23 L 514.647 116.23 Q 514.398 116.95 514.154 117.638 Q 513.91 118.327 513.661 119.038 Q 513.652 119.065 513.621 119.087 Q 513.59 119.109 513.563 119.109 Z M 518.7 114.319 Q 518.682 114.257 518.651 114.186 Q 518.62 114.115 518.602 114.061 Q 518.451 113.626 518.326 113.257 Q 518.202 112.888 518.104 112.613 Q 518.042 112.435 517.984 112.266 Q 517.927 112.097 517.873 111.946 Q 517.829 111.804 517.784 111.675 Q 517.74 111.546 517.695 111.422 Q 517.615 111.164 517.531 110.907 Q 517.447 110.649 517.358 110.373 Q 517.313 110.249 517.264 110.098 Q 517.216 109.947 517.162 109.778 Q 517.136 109.689 517.122 109.64 Q 517.109 109.591 517.091 109.542 Q 517.073 109.494 517.051 109.431 Q 517.029 109.369 516.993 109.254 Q 516.896 109.547 516.811 109.796 Q 516.727 110.045 516.656 110.258 Q 516.638 110.311 516.629 110.356 Q 516.62 110.4 516.602 110.444 Q 516.558 110.596 516.509 110.729 Q 516.46 110.862 516.416 110.995 Q 516.371 111.138 516.327 111.271 Q 516.282 111.404 516.238 111.529 Q 516.149 111.795 516.056 112.088 Q 515.963 112.382 515.847 112.702 Q 515.732 113.022 515.607 113.39 Q 515.483 113.759 515.287 114.319 Z M 525.494 119.118 Q 525.396 119.118 525.396 119.011 L 525.396 113.804 Q 524.436 111.929 523.485 110.062 Q 522.534 108.196 521.584 106.321 Q 521.557 106.259 521.584 106.214 Q 521.61 106.17 521.681 106.17 L 523.708 106.17 Q 523.734 106.17 523.761 106.192 Q 523.788 106.214 523.805 106.232 L 526.418 111.689 Q 527.076 110.311 527.72 108.96 Q 528.364 107.61 529.022 106.232 Q 529.04 106.214 529.066 106.192 Q 529.093 106.17 529.12 106.17 L 531.155 106.17 Q 531.226 106.17 531.252 106.214 Q 531.279 106.259 531.252 106.321 L 527.431 113.804 L 527.431 119.011 Q 527.431 119.118 527.324 119.118 Z" style="fill: rgb(255, 255, 255);"/>
    <path d="M 343.121 84.558 Q 343.193 84.558 343.241 84.612 Q 343.29 84.666 343.265 84.738 Q 342.761 87.189 341.031 88.51 Q 340.19 89.147 339.206 89.471 Q 338.221 89.795 337.079 89.795 Q 335.001 89.795 333.584 88.798 Q 332.191 87.813 331.566 86.636 Q 331.35 86.228 331.194 85.813 Q 331.038 85.399 330.953 84.942 Q 330.797 84.054 330.797 80.906 Q 330.797 79.333 330.833 78.336 Q 330.869 77.339 330.953 76.883 Q 331.038 76.426 331.194 76.006 Q 331.35 75.585 331.566 75.177 Q 332.191 74.012 333.584 73.015 Q 334.989 72.006 337.079 72.006 Q 339.578 72.006 341.211 73.543 Q 342.869 75.093 343.265 77.219 Q 343.29 77.291 343.241 77.339 Q 343.193 77.387 343.121 77.387 L 340.371 77.387 Q 340.263 77.387 340.239 77.291 Q 340.082 76.81 339.794 76.396 Q 339.506 75.982 339.085 75.621 Q 338.293 74.913 337.079 74.913 Q 336.179 74.913 335.542 75.273 Q 334.905 75.633 334.521 76.102 Q 334.293 76.39 334.125 76.756 Q 333.956 77.123 333.86 77.507 Q 333.764 77.916 333.728 78.768 Q 333.692 79.621 333.692 80.906 Q 333.692 82.216 333.728 83.063 Q 333.764 83.909 333.86 84.318 Q 333.956 84.69 334.131 85.057 Q 334.305 85.423 334.521 85.699 Q 334.905 86.204 335.542 86.558 Q 336.179 86.912 337.079 86.912 Q 339.157 86.912 340.239 84.642 Q 340.263 84.618 340.299 84.588 Q 340.335 84.558 340.371 84.558 Z M 348.151 89.651 Q 348.007 89.651 348.007 89.507 L 348.007 74.756 L 343.43 74.756 Q 343.286 74.756 343.286 74.612 L 343.286 72.294 Q 343.286 72.15 343.43 72.15 L 355.466 72.15 Q 355.61 72.15 355.61 72.294 L 355.61 74.612 Q 355.61 74.756 355.466 74.756 L 350.901 74.756 L 350.901 89.507 Q 350.901 89.651 350.757 89.651 Z M 355.975 89.651 Q 355.831 89.651 355.831 89.507 L 355.831 87.068 Q 355.831 86.924 355.975 86.924 L 358.426 86.924 Q 358.558 86.924 358.558 87.068 L 358.558 89.507 Q 358.558 89.651 358.426 89.651 Z M 366.925 77.327 Q 366.925 76.162 366.306 75.507 Q 365.687 74.853 364.654 74.853 Q 363.621 74.853 363.009 75.507 Q 362.396 76.162 362.396 77.327 L 362.396 84.594 Q 362.396 85.771 363.009 86.42 Q 363.621 87.068 364.654 87.068 Q 365.687 87.068 366.306 86.42 Q 366.925 85.771 366.925 84.594 Z M 359.657 77.183 Q 359.657 74.756 361.183 73.447 Q 362.696 72.114 364.654 72.114 Q 365.627 72.114 366.498 72.456 Q 367.369 72.799 368.126 73.447 Q 368.882 74.12 369.273 75.051 Q 369.663 75.982 369.663 77.183 L 369.663 84.738 Q 369.663 87.153 368.126 88.474 Q 366.612 89.795 364.654 89.795 Q 362.696 89.795 361.183 88.474 Q 359.657 87.165 359.657 84.738 Z M 374.698 89.687 Q 374.553 89.687 374.553 89.543 L 374.553 75.273 Q 374.001 75.681 373.448 76.096 Q 372.896 76.51 372.343 76.907 Q 372.259 76.967 372.187 76.925 Q 372.115 76.883 372.115 76.786 L 372.115 74.18 Q 372.115 74.156 372.133 74.12 Q 372.151 74.084 372.175 74.06 L 374.649 72.27 L 377.16 72.27 Q 377.304 72.27 377.304 72.414 L 377.304 89.543 Q 377.304 89.687 377.16 89.687 Z"/>
    <path d="M 395.708 174.374 Q 395.725 172.731 396.273 171.427 Q 396.821 170.124 397.817 169.194 Q 398.763 168.331 399.942 167.858 Q 401.12 167.385 402.415 167.385 Q 405.155 167.385 407.114 169.194 Q 409.089 171.021 409.139 174.391 L 409.139 184.85 Q 409.106 186.46 408.574 187.788 Q 408.043 189.116 407.114 190.029 Q 406.167 190.876 404.98 191.358 Q 403.793 191.839 402.415 191.872 Q 400.041 191.806 398.232 190.411 L 398.232 190.428 Q 397.285 189.697 396.696 188.676 Q 396.107 187.655 395.841 186.327 Q 395.808 186.244 395.866 186.178 Q 395.924 186.111 396.024 186.111 L 399.41 186.111 Q 399.527 186.111 399.593 186.244 Q 400.34 188.104 402.415 188.104 Q 405.354 188.087 405.47 184.667 L 405.47 182.692 Q 404.374 183.024 403.295 183.206 Q 402.216 183.389 401.27 183.356 Q 398.979 183.405 397.302 181.695 L 397.319 181.695 Q 395.675 180.052 395.708 176.566 Z M 399.394 176.532 Q 399.394 179.919 402.415 179.969 Q 405.37 179.919 405.47 176.532 L 405.47 174.59 Q 405.337 171.22 402.415 171.153 Q 399.41 171.236 399.394 174.59 Z M 422.17 174.573 Q 422.17 172.963 421.315 172.058 Q 420.46 171.153 419.032 171.153 Q 417.604 171.153 416.758 172.058 Q 415.911 172.963 415.911 174.573 L 415.911 184.617 Q 415.911 186.244 416.758 187.141 Q 417.604 188.037 419.032 188.037 Q 420.46 188.037 421.315 187.141 Q 422.17 186.244 422.17 184.617 Z M 412.126 174.374 Q 412.126 171.021 414.234 169.211 Q 416.326 167.368 419.032 167.368 Q 420.377 167.368 421.58 167.841 Q 422.784 168.315 423.83 169.211 Q 424.876 170.141 425.415 171.427 Q 425.955 172.714 425.955 174.374 L 425.955 184.817 Q 425.955 188.153 423.83 189.98 Q 421.738 191.806 419.032 191.806 Q 416.326 191.806 414.234 189.98 Q 412.126 188.17 412.126 184.817 Z"/>
    <path d="M 505.006 174.391 Q 505.023 172.731 505.57 171.427 Q 506.118 170.124 507.114 169.194 Q 508.061 168.331 509.239 167.858 Q 510.418 167.385 511.713 167.385 Q 514.07 167.385 515.98 168.796 Q 517.773 170.224 518.32 172.913 Q 518.354 173.013 518.287 173.079 Q 518.221 173.146 518.121 173.146 L 514.718 173.146 Q 514.585 173.146 514.535 173.029 Q 513.788 171.203 511.696 171.153 Q 508.692 171.236 508.692 174.607 L 508.692 176.566 Q 509.771 176.25 510.841 176.068 Q 511.912 175.885 512.875 175.902 Q 515.199 175.902 516.86 177.528 Q 518.453 179.205 518.437 182.692 L 518.437 184.85 Q 518.387 188.253 516.411 190.029 Q 514.552 191.789 511.713 191.872 Q 508.957 191.789 507.114 190.046 Q 505.023 188.22 505.006 184.866 Z M 508.692 184.667 Q 508.708 188.07 511.713 188.104 Q 514.652 188.087 514.768 184.667 L 514.768 182.725 Q 514.635 179.355 511.713 179.288 Q 508.708 179.371 508.692 182.725 Z M 531.132 174.573 Q 531.132 172.963 530.277 172.058 Q 529.422 171.153 527.994 171.153 Q 526.566 171.153 525.72 172.058 Q 524.873 172.963 524.873 174.573 L 524.873 184.617 Q 524.873 186.244 525.72 187.141 Q 526.566 188.037 527.994 188.037 Q 529.422 188.037 530.277 187.141 Q 531.132 186.244 531.132 184.617 Z M 521.088 174.374 Q 521.088 171.021 523.196 169.211 Q 525.288 167.368 527.994 167.368 Q 529.339 167.368 530.542 167.841 Q 531.746 168.315 532.792 169.211 Q 533.838 170.141 534.377 171.427 Q 534.917 172.714 534.917 174.374 L 534.917 184.817 Q 534.917 188.153 532.792 189.98 Q 530.7 191.806 527.994 191.806 Q 525.288 191.806 523.196 189.98 Q 521.088 188.17 521.088 184.817 Z" style="fill: rgb(255, 255, 255);"/>
  </g>
</svg>