<?xml version="1.0" encoding="UTF-8" standalone="no"?>
<svg
   xmlns:dc="http://purl.org/dc/elements/1.1/"
   xmlns:cc="http://creativecommons.org/ns#"
   xmlns:rdf="http://www.w3.org/1999/02/22-rdf-syntax-ns#"
   xmlns:svg="http://www.w3.org/2000/svg"
   xmlns="http://www.w3.org/2000/svg"
   xmlns:sodipodi="http://sodipodi.sourceforge.net/DTD/sodipodi-0.dtd"
   xmlns:inkscape="http://www.inkscape.org/namespaces/inkscape"
   width="705.49994mm"
   height="239.10577mm"
   viewBox="0 0 705.49994 239.10578"
   version="1.1"
   id="svg848"
   inkscape:version="1.0 (4035a4fb49, 2020-05-01)"
   sodipodi:docname="Vietnam_road_sign_SG9.svg">
  <defs
     id="defs842">
    <clipPath
       id="clip88">
      <path
         id="path1418"
         d="M 361,1.980469 H 581 V 151 H 361 Z m 0,0" />
    </clipPath>
    <clipPath
       id="clip90">
      <path
         id="path1424"
         d="M 376,1.980469 H 587 V 151 H 376 Z m 0,0" />
    </clipPath>
    <clipPath
       id="clip91">
      <path
         id="path1427"
         d="M 383,1.980469 H 595 V 151 H 383 Z m 0,0" />
    </clipPath>
    <clipPath
       id="clip92">
      <path
         id="path1430"
         d="M 389,1.980469 H 600 V 151 H 389 Z m 0,0" />
    </clipPath>
    <clipPath
       id="clip93">
      <path
         id="path1433"
         d="M 395,1.980469 H 610.73828 V 151 H 395 Z m 0,0" />
    </clipPath>
    <clipPath
       id="clip94">
      <path
         id="path1436"
         d="M 407,1.980469 H 610.73828 V 151 H 407 Z m 0,0" />
    </clipPath>
    <clipPath
       id="clip95">
      <path
         id="path1439"
         d="M 413,1.980469 H 610.73828 V 151 H 413 Z m 0,0" />
    </clipPath>
    <clipPath
       id="clip96">
      <path
         id="path1442"
         d="M 415,1.980469 H 610.73828 V 151 H 415 Z m 0,0" />
    </clipPath>
    <clipPath
       id="clip132">
      <path
         id="path1550"
         d="M 149,1.980469 H 360 V 186 H 149 Z m 0,0" />
    </clipPath>
    <clipPath
       id="clip133">
      <path
         id="path1553"
         d="M 155,1.980469 H 366 V 186 H 155 Z m 0,0" />
    </clipPath>
    <clipPath
       id="clip135">
      <path
         id="path1559"
         d="M 164,1.980469 H 375 V 186 H 164 Z m 0,0" />
    </clipPath>
    <clipPath
       id="clip136">
      <path
         id="path1562"
         d="M 167,1.980469 H 378 V 186 H 167 Z m 0,0" />
    </clipPath>
    <clipPath
       id="clip137">
      <path
         id="path1565"
         d="M 170,1.980469 H 381 V 186 H 170 Z m 0,0" />
    </clipPath>
    <clipPath
       id="clip138">
      <path
         id="path1568"
         d="M 177,1.980469 H 388 V 186 H 177 Z m 0,0" />
    </clipPath>
    <clipPath
       id="clip140">
      <path
         id="path1574"
         d="M 185,1.980469 H 397 V 186 H 185 Z m 0,0" />
    </clipPath>
    <clipPath
       id="clip141">
      <path
         id="path1577"
         d="M 191,1.980469 H 402 V 186 H 191 Z m 0,0" />
    </clipPath>
  </defs>
  <sodipodi:namedview
     id="base"
     pagecolor="#ffffff"
     bordercolor="#666666"
     borderopacity="1.0"
     inkscape:pageopacity="0.0"
     inkscape:pageshadow="2"
     inkscape:zoom="0.35707209"
     inkscape:cx="88.497529"
     inkscape:cy="596.12025"
     inkscape:document-units="mm"
     inkscape:current-layer="layer1"
     showgrid="false"
     inkscape:snap-global="false"
     inkscape:window-width="1920"
     inkscape:window-height="1001"
     inkscape:window-x="-9"
     inkscape:window-y="-9"
     inkscape:window-maximized="1"
     fit-margin-top="0"
     fit-margin-left="0"
     fit-margin-right="0"
     fit-margin-bottom="0"
     showguides="false"
     inkscape:measure-start="0,0"
     inkscape:measure-end="0,0"
     inkscape:document-rotation="0" />
  <metadata
     id="metadata845">
    <rdf:RDF>
      <cc:Work
         rdf:about="">
        <dc:format>image/svg+xml</dc:format>
        <dc:type
           rdf:resource="http://purl.org/dc/dcmitype/StillImage" />
        <dc:title></dc:title>
      </cc:Work>
    </rdf:RDF>
  </metadata>
  <g
     inkscape:label="Layer 1"
     inkscape:groupmode="layer"
     id="layer1"
     transform="translate(675.94038,246.20335)">
    <g
       transform="translate(-18.207335,-20.827096)"
       style="font-size:31.1478px;line-height:1.46;font-family:'Singapore Road Signs';-inkscape-font-specification:'Singapore Road Signs';text-align:center;text-anchor:middle;fill:#501616;stroke-width:0.264583"
       id="text22557"
       aria-label="5" />
    <path
       sodipodi:nodetypes="cccccc"
       d="m -673.19038,-243.45335 h 632.608576 l 67.39142,117.01628 -67.39142,116.5894974 H -673.19038 Z"
       style="opacity:1;fill:#000000;fill-opacity:1;fill-rule:evenodd;stroke:none;stroke-width:5.5;stroke-linejoin:round;stroke-miterlimit:4;stroke-dasharray:none;stroke-opacity:1;paint-order:stroke fill markers"
       id="path22562" />
    <path
       id="path22564"
       style="opacity:1;fill:#ffffff;fill-opacity:1;fill-rule:evenodd;stroke:none;stroke-width:0.582083;stroke-linejoin:round;stroke-miterlimit:4;stroke-dasharray:none;stroke-opacity:1;paint-order:stroke fill markers"
       d="m -668.31385,-238.13597 h 624.828466 l 64.46528,111.70467 -64.46528,111.715597 H -668.31385 Z"
       sodipodi:nodetypes="cccccc" />
    <path
       d="m -291.62416,-174.97823 c -14.3793,0 -25.95539,11.57609 -25.95539,25.95539 v 42.14502 c 0,14.379194 11.57609,25.955287 25.95539,25.955287 h 1.44853 c 14.3793,0 25.9554,-11.576093 25.9554,-25.955287 v -42.14502 c 0,-14.3793 -11.5761,-25.95539 -25.9554,-25.95539 z m 62.91353,0 c -14.3793,0 -25.95539,11.57609 -25.95539,25.95539 v 42.14502 c 0,14.379194 11.57609,25.955287 25.95539,25.955287 h 1.44864 c 14.3794,0 25.95539,-11.576093 25.95539,-25.955287 v -42.14502 c 0,-14.3793 -11.57599,-25.95539 -25.95539,-25.95539 z m -150.55639,0.72652 v 14.62708 35.02676 1.13388 0.0315 h 13.59072 c 1.79815,-4.46225 6.19131,-7.61192 11.37725,-7.61192 3.81855,0 6.22343,0.79792 8.1273,2.42525 0.33597,0.28662 0.46825,0.49345 0.79162,0.84096 2.73129,2.92626 3.34212,11.53452 3.34212,11.53452 v 2.92982 c 0,0 0.11864,2.57696 -0.68873,6.7004 -0.26562,1.35825 -0.43571,4.87223 -1.58964,6.949964 -0.67508,1.216614 -1.41998,2.088548 -2.96227,2.940639 -1.53599,0.848311 -3.63115,1.302074 -7.02051,1.302074 -3.13413,0 -5.95876,-0.826264 -8.12195,-2.718062 -2.18755,-1.913635 -3.68375,-4.832435 -4.04743,-7.921215 h -12.79859 -1.71993 c 0.60999,14.005226 12.04949,25.108973 26.21041,25.108973 h 0.98165 c 14.55442,0 26.2754,-11.720978 26.2754,-26.275403 v -12.14219 c 0,-14.55442 -10.05543,-26.27551 -24.60986,-26.27551 -4.63358,-0.084 -9.22108,1.62597 -13.34662,4.38382 v -18.36521 h 36.19319 v -14.62697 h -36.19319 z m 87.90323,13.80785 h 0.88401 c 6.42701,0 11.59961,5.17249 11.59961,11.59961 v 41.81409 c 0,6.42701 -5.17271,11.604964 -11.59961,11.604964 h -0.88401 c -6.42701,0 -11.59961,-5.177954 -11.59961,-11.604964 v -41.81409 c 0,-6.42712 5.1726,-11.59961 11.59961,-11.59961 z m 62.91364,0 h 0.884 c 6.42712,0 11.59962,5.17249 11.59962,11.59961 v 41.81409 c 0,6.42701 -5.17261,11.604964 -11.59962,11.604964 h -0.884 c -6.42712,0 -11.59961,-5.177954 -11.59961,-11.604964 v -41.81409 c 0,-6.42712 5.17249,-11.59961 11.59961,-11.59961 z"
       style="opacity:1;fill:#000000;fill-opacity:1;fill-rule:evenodd;stroke:none;stroke-width:0.582083;stroke-linejoin:round;stroke-miterlimit:4;stroke-dasharray:none;stroke-opacity:1;paint-order:stroke fill markers"
       id="path22566" />
    <path
       d="m -125.84929,-148.77864 c -6.20958,0 -11.79079,2.56205 -15.77723,6.67878 v -5.968 h -14.57825 v 66.353184 h 14.59452 v -40.745094 c 0,-6.54607 5.27056,-11.81662 11.81663,-11.81673 h 0.59109 c 6.54617,0 11.81662,5.27056 11.81662,11.81673 v 40.745199 h 14.38833 v -40.745199 c 0,-6.54607 5.270553,-11.81662 11.81662,-11.81673 h 0.591088 c 6.546068,0 11.816623,5.27056 11.816623,11.81673 v 40.745199 h 14.599882 v -45.107289 c 0,-12.16403 -9.792749,-21.95688 -21.95678,-21.95688 h -2.050856 c -6.951535,0 -14.303397,3.28028 -18.842597,8.13823 -5.12231,-5.35025 -10.41964,-8.13823 -17.37233,-8.13823 z"
       style="opacity:1;fill:#000000;fill-opacity:1;fill-rule:evenodd;stroke:none;stroke-width:0.582083;stroke-linejoin:round;stroke-miterlimit:4;stroke-dasharray:none;stroke-opacity:1;paint-order:stroke fill markers"
       id="path22568" />
    <path
       id="rect22394"
       style="opacity:1;fill:#000000;fill-opacity:1;fill-rule:evenodd;stroke:none;stroke-width:0.35269;stroke-linejoin:round;stroke-miterlimit:10;stroke-dasharray:none;stroke-opacity:1;paint-order:stroke fill markers"
       d="m -535.74302,-183.10858 -73.56929,108.563502 h -17.38314 v 18.159011 h 182.30634 v -18.159011 h -17.79008 z m 0.021,63.19038 31.39708,45.378476 h -62.38733 z" />
  </g>
</svg>
