<?xml version="1.0" encoding="UTF-8" standalone="no"?>
<svg
   xmlns:dc="http://purl.org/dc/elements/1.1/"
   xmlns:cc="http://creativecommons.org/ns#"
   xmlns:rdf="http://www.w3.org/1999/02/22-rdf-syntax-ns#"
   xmlns:svg="http://www.w3.org/2000/svg"
   xmlns="http://www.w3.org/2000/svg"
   xmlns:sodipodi="http://sodipodi.sourceforge.net/DTD/sodipodi-0.dtd"
   xmlns:inkscape="http://www.inkscape.org/namespaces/inkscape"
   sodipodi:docname="Vietnam_road_sign_I445h.svg"
   inkscape:version="1.0 (4035a4fb49, 2020-05-01)"
   id="svg848"
   version="1.1"
   viewBox="0 0 1320.6937 500"
   height="500mm"
   width="1320.6937mm">
  <defs
     id="defs842" />
  <sodipodi:namedview
     inkscape:document-rotation="0"
     inkscape:measure-end="0,0"
     inkscape:measure-start="0,0"
     showguides="true"
     fit-margin-bottom="0"
     fit-margin-right="0"
     fit-margin-left="0"
     fit-margin-top="0"
     inkscape:window-maximized="1"
     inkscape:window-y="-9"
     inkscape:window-x="-9"
     inkscape:window-height="1001"
     inkscape:window-width="1920"
     inkscape:snap-global="false"
     showgrid="false"
     inkscape:current-layer="text2903"
     inkscape:document-units="mm"
     inkscape:cy="1796.6841"
     inkscape:cx="2126.8527"
     inkscape:zoom="0.13021881"
     inkscape:pageshadow="2"
     inkscape:pageopacity="0.0"
     borderopacity="1.0"
     bordercolor="#666666"
     pagecolor="#ffffff"
     id="base" />
  <metadata
     id="metadata845">
    <rdf:RDF>
      <cc:Work
         rdf:about="">
        <dc:format>image/svg+xml</dc:format>
        <dc:type
           rdf:resource="http://purl.org/dc/dcmitype/StillImage" />
        <dc:title></dc:title>
      </cc:Work>
    </rdf:RDF>
  </metadata>
  <g
     transform="translate(-1098.5453,606.31145)"
     id="layer1"
     inkscape:groupmode="layer"
     inkscape:label="Layer 1">
    <path
       inkscape:connector-curvature="0"
       d=""
       style="opacity:1;fill:#d35f5f;fill-opacity:1;fill-rule:nonzero;stroke:none;stroke-width:3.92256;stroke-linecap:butt;stroke-linejoin:miter;stroke-miterlimit:4;stroke-dasharray:none;stroke-opacity:1;paint-order:stroke fill markers"
       id="path8376"
       r="150"
       cy="147"
       cx="150" />
    <g
       inkscape:groupmode="layer"
       transform="translate(-4496.0426,2396.6803)"
       id="text3577"
       style="font-style:normal;font-variant:normal;font-weight:bold;font-stretch:normal;font-size:299.854px;line-height:0;font-family:Giaothong1;-inkscape-font-specification:'Giaothong1 Bold';letter-spacing:0px;word-spacing:0px;fill:#ffcc00;fill-opacity:1;stroke:none;stroke-width:1.56174"
       aria-label="VỊNH">
      <g
         id="text3665"
         style="font-style:normal;font-variant:normal;font-weight:bold;font-stretch:normal;font-size:299.854px;line-height:0;font-family:Giaothong1;-inkscape-font-specification:'Giaothong1 Bold';letter-spacing:-2.78077px;word-spacing:0px;fill:#ffcc00;fill-opacity:1;stroke:none;stroke-width:2.43903"
         aria-label="VỊNH" />
    </g>
    <g
       inkscape:groupmode="layer"
       id="text2719"
       style="font-style:normal;font-variant:normal;font-weight:bold;font-stretch:normal;font-size:184.173px;line-height:0;font-family:Giaothong1;-inkscape-font-specification:'Giaothong1 Bold';letter-spacing:0px;word-spacing:0.486833px;fill:#ffffff;fill-opacity:1;stroke:none;stroke-width:0.959232"
       aria-label="CÔNG TRƯỜNG">
      <g
         inkscape:groupmode="layer"
         id="text2888"
         style="font-style:normal;font-variant:normal;font-weight:bold;font-stretch:normal;font-size:187.408px;line-height:0;font-family:Giaothong1;-inkscape-font-specification:'Giaothong1 Bold';letter-spacing:0.00264583px;word-spacing:0px;fill:#ffffff;fill-opacity:1;stroke:none;stroke-width:0.936293"
         aria-label="AHEAD">
        <g
           inkscape:groupmode="layer"
           id="text2903"
           style="font-style:normal;font-variant:normal;font-weight:bold;font-stretch:normal;font-size:184.173px;line-height:0;font-family:Giaothong1;-inkscape-font-specification:'Giaothong1 Bold';letter-spacing:0.00529167px;word-spacing:0px;fill:#ffffff;fill-opacity:1;stroke:none;stroke-width:0.898123"
           aria-label="WORKS">
          <path
             id="rect7863"
             style="opacity:1;fill:#0046aa;fill-opacity:1;fill-rule:nonzero;stroke:none;stroke-width:4.58494;stroke-linecap:butt;stroke-linejoin:miter;stroke-miterlimit:10;stroke-dasharray:none;stroke-opacity:1;paint-order:stroke fill markers"
             d="M 2419.239,-606.31145 H 1098.5453 v 499.99999 H 2419.239 Z"
             sodipodi:nodetypes="ccccc" />
          <path
             d="m 1104.6412,-600.22823 v 488.37222 H 2413.924 v -488.37222 z m 9.0559,9.05805 h 35.724 v 470.25672 h -35.724 z m 513.3416,0 h 777.8288 v 470.25672 l -777.8288,5.4e-4 z"
             style="opacity:1;fill:#ffffff;fill-opacity:1;fill-rule:nonzero;stroke:none;stroke-width:4.54184;stroke-linecap:butt;stroke-linejoin:miter;stroke-miterlimit:10;stroke-dasharray:none;stroke-opacity:1;paint-order:stroke fill markers"
             id="path7865"
             sodipodi:nodetypes="ccccccccccccccc" />
          <path
             id="path17925"
             style="font-style:normal;font-variant:normal;font-weight:normal;font-stretch:normal;font-size:21.2861px;line-height:1.3;font-family:Giaothong2;-inkscape-font-specification:Giaothong2;text-align:start;letter-spacing:-0.0525px;text-anchor:start;opacity:1;fill:#ffffff;fill-opacity:1;stroke-width:0.19844"
             d="m 2286.1495,-254.97596 q 0.3961,0 0.6661,0.32948 0.2701,0.26467 0.1801,0.66077 -2.7727,13.46714 -12.2791,20.72887 -4.6217,3.49881 -10.0338,5.28125 -5.414,1.78244 -11.6849,1.78244 -11.4202,0 -19.2108,-5.47929 -7.6572,-5.41322 -11.0907,-11.88276 -1.1883,-2.24461 -2.0471,-4.48923 -0.8642,-2.31051 -1.3143,-4.81907 -0.8642,-4.88514 -0.8642,-22.18129 0,-8.64808 0.198,-14.12737 0.1981,-5.47929 0.6662,-7.98785 0.4681,-2.50856 1.3143,-4.81907 0.8642,-2.31069 2.0471,-4.55513 3.4335,-6.40346 11.0907,-11.88293 7.7239,-5.54519 19.2108,-5.54519 13.7302,0 22.709,8.45003 9.1102,8.51592 11.2888,20.2008 0.18,0.3961 -0.1801,0.66077 -0.27,0.26466 -0.6661,0.26466 h -15.1166 q -0.5941,0 -0.7201,-0.52933 -0.8643,-2.64071 -2.4414,-4.88514 -1.5844,-2.31051 -3.8962,-4.291 -4.3571,-3.8949 -11.0241,-3.8949 -4.9513,0 -8.4495,1.98048 -3.5001,1.98049 -5.612,4.55495 -1.2603,1.58439 -2.1785,3.63096 -0.9183,1.98048 -1.4584,4.09295 -0.5221,2.24443 -0.7202,6.93171 -0.198,4.68709 -0.198,11.75078 0,7.19565 0.198,11.88275 0.1981,4.62102 0.7202,6.86564 0.5221,2.04638 1.4584,4.09295 0.9902,1.98049 2.1785,3.4988 2.1119,2.77269 5.612,4.75317 3.4982,1.91442 8.4495,1.91442 11.4202,0 17.3617,-12.4769 0.18,-0.12603 0.324,-0.26467 0.1981,-0.19805 0.3961,-0.19805 z m -151.2392,-67.40198 q 0,-0.79219 0.7922,-0.79219 h 14.3928 q 0.7202,0 0.7202,0.79219 v 60.99834 q 0,9.50635 5.2807,14.39149 5.3473,4.95123 13.2692,4.95123 7.7906,0 13.1379,-4.95123 5.3473,-4.95122 5.3473,-14.39149 v -60.99834 q 0,-0.79219 0.7922,-0.79219 h 14.3243 q 0.7922,0 0.7922,0.79219 v 62.58273 q 0,15.18369 -10.1005,24.42591 -9.9672,9.17615 -24.2934,9.17615 -14.3909,0 -24.4248,-9.17615 -10.0357,-9.24222 -10.0357,-24.42591 z m 28.0582,121.40271 q -0.7202,0 -0.7202,-0.72557 v -12.74103 q 0,-0.72558 0.7202,-0.72558 h 12.8065 q 0.6662,0 0.6662,0.72558 v 12.74103 q 0,0.72557 -0.6662,0.72557 z m -76.7728,-26.01012 q -0.7922,0 -0.7922,-0.79219 v -81.06718 h -25.1522 q -0.7922,0 -0.7922,-0.79219 v -12.74103 q 0,-0.79219 0.7922,-0.79219 h 66.1465 q 0.7922,0 0.7922,0.79219 v 12.74103 q 0,0.79219 -0.7922,0.79219 h -25.0856 v 81.06718 q 0,0.79219 -0.7922,0.79219 z m -140.5409,0 q -0.7922,0 -0.7922,-0.79219 v -94.6004 q 0,-0.79219 0.7922,-0.79219 h 13.5988 q 0.3961,0 0.6661,0.39609 l 41.5885,65.48757 v -65.09147 q 0,-0.79219 0.7922,-0.79219 h 14.3927 q 0.7922,0 0.7922,0.79219 v 94.60058 q 0,0.79219 -0.7922,0.79219 h -13.5339 q -0.3961,0 -0.6662,-0.39609 l -41.7217,-65.48757 v 65.09147 q 0,0.79219 -0.7201,0.79219 z m -74.9255,0 q -0.7922,0 -0.7922,-0.79219 v -94.6004 q 0,-0.79219 0.7922,-0.79219 h 60.4715 q 0.7922,0 0.7922,0.79219 v 13.59912 q 0,0.7922 -0.7922,0.7922 h -45.3532 v 25.35007 h 38.553 q 0.7922,0 0.7922,0.7922 v 12.8071 q 0,0.72558 -0.7922,0.72558 h -38.553 v 26.27425 h 45.3532 q 0.7922,0 0.7922,0.79219 v 13.46715 q 0,0.79219 -0.7922,0.79219 z m 6.7337,-104.70089 q -0.5942,0 -0.7202,-0.52933 -0.1801,-0.52753 0.2701,-0.85881 l 19.4088,-15.38174 h 8.9122 l 19.6716,15.38174 q 0.4681,0.32948 0.2701,0.85881 -0.1801,0.52933 -0.7202,0.52933 h -11.0907 l -13.2045,-7.12958 q -2.9041,1.78244 -5.8749,3.5647 -2.9707,1.78244 -5.8748,3.56488 z m -41.4535,104.70089 q -0.7922,0 -0.7922,-0.79219 v -94.6004 q 0,-0.79219 0.7922,-0.79219 h 14.3244 q 0.7922,0 0.7922,0.79219 v 94.6004 q 0,0.79219 -0.7922,0.79219 z m -74.7274,0 q -0.7922,0 -0.7922,-0.79219 v -94.6004 q 0,-0.79219 0.7922,-0.79219 h 14.3261 q 0.7922,0 0.7922,0.79219 v 80.34106 h 45.3532 q 0.7922,0 0.7922,0.79219 v 13.46715 q 0,0.79219 -0.7922,0.79219 z m 598.3111,-187.28728 q 0.3961,0 0.6482,0.32769 0.27,0.26286 0.18,0.65536 -2.7547,13.3818 -12.1998,20.59744 -4.5929,3.47666 -9.9709,5.24794 -5.3797,1.77164 -11.611,1.77164 -11.3482,0 -19.0883,-5.44455 -7.6105,-5.37901 -11.0206,-11.80749 -1.1883,-2.23039 -2.0345,-4.4606 -0.8462,-2.29593 -1.3143,-4.78865 -0.8462,-4.85418 -0.8462,-22.0405 0,-8.59334 0.198,-14.03788 0.1981,-5.44437 0.6482,-7.93726 0.4501,-2.49254 1.3143,-4.78847 0.8462,-2.29592 2.0345,-4.52613 3.4101,-6.36295 11.0206,-11.8075 7.6734,-5.51026 19.0883,-5.51026 13.6437,0 22.5649,8.39655 9.0527,8.46191 11.2168,20.07262 0.18,0.3943 -0.18,0.65536 -0.2701,0.26287 -0.6482,0.26287 h -15.0211 q -0.5942,0 -0.7202,-0.52393 -0.8462,-2.62397 -2.427,-4.85418 -1.5664,-2.29593 -3.8709,-4.26381 -4.3283,-3.87024 -10.9539,-3.87024 -4.9207,0 -8.3973,1.96789 -3.4767,1.96788 -5.576,4.52613 -1.2423,1.57359 -2.1641,3.60791 -0.9183,1.96789 -1.4404,4.06703 -0.5221,2.23021 -0.7202,6.8876 -0.198,4.65739 -0.198,11.67642 0,7.14993 0.198,11.80732 0.1981,4.59185 0.7202,6.82206 0.5221,2.0336 1.4404,4.06703 0.9902,1.96806 2.1641,3.47665 2.0993,2.75522 5.576,4.72311 3.4766,1.90217 8.3973,1.90217 11.3482,0 17.2518,-12.39768 0.1801,-0.12603 0.3241,-0.26287 0.198,-0.19624 0.3961,-0.19624 z m -137.2281,-76.22379 q -0.5941,0 -0.7922,-0.45912 -0.18,-0.52392 0.3241,-0.85341 l 19.2864,-15.28415 h 8.7897 l 19.5475,15.28415 q 0.4501,0.32769 0.27,0.85341 -0.18,0.45912 -0.6481,0.45912 h -11.0872 l -13.0532,-7.01885 q -2.8861,1.77163 -5.8388,3.54237 -2.951,1.77164 -5.8371,3.47648 z m -11.611,55.4951 q 0,-8.59316 0.198,-14.03771 0.2701,-5.44454 0.6482,-7.93726 0.4501,-2.49271 1.3143,-4.78864 0.8462,-2.29593 2.0993,-4.52614 v 0 q 3.41,-6.36295 11.0187,-11.80749 7.6753,-5.51008 19.0901,-5.51008 11.2816,0 18.9569,5.51008 7.7401,5.57579 11.152,11.80749 2.427,4.4606 3.2786,9.31478 0.4681,2.49272 0.6481,7.93726 0.2701,5.44455 0.2701,14.03771 0,16.85846 -0.9182,22.04068 -0.4681,2.55825 -1.3143,4.85418 -0.7922,2.29592 -1.9031,4.39488 -3.4767,6.29742 -11.2168,11.8075 -7.7401,5.44454 -18.9569,5.44454 -11.3482,0 -19.0883,-5.44454 -7.6105,-5.37901 -11.0205,-11.8075 v 0 q -1.2423,-2.23021 -2.0993,-4.4606 -0.8462,-2.29593 -1.3143,-4.78846 -0.3961,-2.49272 -0.6482,-7.93726 -0.198,-5.51026 -0.198,-14.10342 z m 15.8079,0 q 0,7.1501 0.198,11.80749 0.1981,4.59186 0.7202,6.82207 0.5221,2.0336 1.4403,4.06702 0.9903,1.96789 2.1642,3.47666 2.0993,2.75504 5.576,4.72293 3.4766,1.90234 8.3972,1.90234 4.854,0 8.3307,-1.90234 3.4766,-1.96789 5.5093,-4.72293 2.7547,-3.34541 3.6081,-7.54368 1.0443,-4.19828 1.0443,-18.62956 0,-7.15011 -0.2701,-11.74178 -0.27,-4.65757 -0.7922,-6.82225 -0.4681,-2.09913 -1.3863,-4.06702 -0.9182,-2.03342 -2.166,-3.60773 -0.9902,-1.24591 -2.4269,-2.427 -1.3864,-1.18109 -3.1472,-2.0336 -1.7645,-0.91823 -3.871,-1.44396 -2.0993,-0.59054 -4.4615,-0.59054 -4.9188,0 -8.3955,1.96788 -3.4766,1.96789 -5.5759,4.52614 -1.2423,1.57359 -2.1642,3.60791 -0.9182,1.96789 -1.4403,4.06702 -0.5222,2.23021 -0.7202,6.8876 -0.198,4.65739 -0.198,11.67625 z m 31.6842,-66.58098 q -0.5221,0 -0.7202,-0.32768 -0.18,-0.3943 0,-0.85341 l 13.7104,-19.15438 q 0.2701,-0.3943 0.6481,-0.3943 h 14.4324 q 0.5221,0 0.7202,0.45911 0.2701,0.45911 -0.1801,0.85341 l -18.1034,19.15439 q 0,0.072 -0.2701,0.19624 -0.198,0.072 -0.3241,0.072 z m -128.6364,115.12276 q -0.7922,0 -0.7922,-0.78679 v -94.00049 q 0,-0.78679 0.7922,-0.78679 h 32.9302 q 19.6788,0 29.2554,16.20238 1.7644,3.14861 2.8861,5.96937 1.1163,2.82058 1.5124,5.51008 0.7922,5.24776 0.7922,20.13833 0,15.94006 -1.1163,21.3846 -0.5221,2.75522 -1.5664,5.37901 -1.0443,2.55825 -2.7547,5.1165 v -0.072 q -4.2652,6.75653 -11.8073,11.34821 -7.6753,4.59185 -18.1053,4.59185 z m 15.0211,-80.48761 v 65.5315 h 16.3337 q 11.2833,0 16.7945,-7.87154 2.1641,-3.47666 2.7547,-7.28136 0.3241,-2.09914 0.4501,-6.29724 0.198,-4.26381 0.198,-10.82355 0,-6.36295 -0.198,-10.62676 -0.198,-4.26381 -0.5221,-6.75653 -0.6482,-4.59185 -3.3453,-8.33066 -5.5759,-7.54386 -16.1355,-7.54386 z m -98.6571,42.24455 q -0.7922,0 -0.7922,-0.78679 v -13.51288 q 0,-0.72198 0.7922,-0.72198 h 33.3892 q 0.7922,0 0.7922,0.72198 v 19.15421 q 0,14.497 -9.9708,24.27089 -10.1023,9.90515 -24.3367,9.90515 -11.3482,0 -19.0883,-5.44455 -7.6086,-5.37901 -11.0205,-11.80749 v 0 q -1.2423,-2.23021 -2.0993,-4.4606 -0.8462,-2.29593 -1.3143,-4.78847 -0.3961,-2.49271 -0.6662,-7.93726 -0.198,-5.51026 -0.198,-14.10342 0,-8.59316 0.198,-14.0377 0.2701,-5.44455 0.6662,-7.93726 0.4501,-2.49272 1.3143,-4.78865 0.8462,-2.29592 2.0993,-4.52613 v 0 q 3.4119,-6.36295 11.0205,-11.8075 7.6753,-5.51008 19.0883,-5.51008 13.6438,0 22.565,8.39637 9.0526,8.39638 11.2186,20.07262 0.18,0.3943 -0.1801,0.65536 -0.27,0.26287 -0.6481,0.26287 h -15.0211 q -0.5942,0 -0.7202,-0.52393 -0.8462,-2.62379 -2.427,-4.85418 -1.5664,-2.29575 -3.871,-4.26381 -4.3282,-3.87024 -10.9539,-3.87024 -4.9188,0 -8.3954,1.96789 -3.4767,1.96788 -5.576,4.52631 -1.2423,1.57359 -2.166,3.60773 -0.9182,1.96807 -1.4403,4.06703 -0.5221,2.23039 -0.7202,6.88778 -0.198,4.65739 -0.198,11.67624 0,7.15011 0.198,11.8075 0.1981,4.59167 0.7202,6.82206 0.5221,2.03342 1.4403,4.06703 0.9903,1.96788 2.166,3.47665 2.0993,2.75504 5.576,4.72293 3.4766,1.90235 8.3954,1.90235 7.8068,0 13.1199,-5.31347 5.3779,-5.31329 5.3779,-13.90646 v -4.06702 z m -122.3384,38.24306 q -0.7922,0 -0.7922,-0.78679 v -94.00049 q 0,-0.78679 0.7922,-0.78679 h 13.5123 q 0.3961,0 0.6482,0.39429 l 41.3256,65.07221 v -64.67863 q 0,-0.78679 0.7922,-0.78679 h 14.3009 q 0.7922,0 0.7922,0.78679 v 94.00049 q 0,0.78679 -0.7922,0.78679 h -13.4475 q -0.3961,0 -0.6482,-0.3943 l -41.4588,-65.07238 v 64.67863 q 0,0.78679 -0.7202,0.78679 z m -73.8615,-104.03688 q -0.5941,0 -0.7922,-0.45912 -0.18,-0.52392 0.3241,-0.85341 l 19.2864,-15.28415 h 8.7898 l 19.5474,15.28415 q 0.4681,0.32769 0.27,0.85341 -0.18,0.45912 -0.6481,0.45912 h -11.0854 l -13.055,-7.01885 q -2.8861,1.77163 -5.837,3.54237 -2.9527,1.77164 -5.8389,3.47648 z m -11.611,55.4951 q 0,-8.59316 0.198,-14.03771 0.2701,-5.44454 0.6662,-7.93726 0.4501,-2.49271 1.3143,-4.78864 0.8462,-2.29593 2.0993,-4.52614 v 0 q 3.4101,-6.36295 11.0205,-11.80749 7.6735,-5.51008 19.0884,-5.51008 11.2833,0 18.9568,5.51008 7.7401,5.57579 11.152,11.80749 2.427,4.4606 3.2804,9.31478 0.4501,2.49272 0.6482,7.93726 0.27,5.44455 0.27,14.03771 0,16.85846 -0.9182,22.04068 -0.4681,2.55825 -1.3143,4.85418 -0.7922,2.29592 -1.9031,4.39488 -3.4767,6.29742 -11.2168,11.8075 -7.7401,5.44454 -18.9568,5.44454 -11.3482,0 -19.0884,-5.44454 -7.6104,-5.37901 -11.0205,-11.8075 v 0 q -1.2423,-2.23021 -2.0993,-4.4606 -0.8462,-2.29593 -1.3143,-4.78846 -0.3961,-2.49272 -0.6662,-7.93726 -0.198,-5.51026 -0.198,-14.10342 z m 15.8079,0 q 0,7.1501 0.198,11.80749 0.1981,4.59186 0.7202,6.82207 0.5221,2.0336 1.4404,4.06702 0.9902,1.96789 2.1641,3.47666 2.0993,2.75504 5.576,4.72293 3.4766,1.90234 8.3972,1.90234 4.854,0 8.3307,-1.90234 3.4767,-1.96789 5.5094,-4.72293 2.7546,-3.34541 3.608,-7.54368 1.0443,-4.19828 1.0443,-18.62956 0,-7.15011 -0.2701,-11.74178 -0.27,-4.65757 -0.7922,-6.82225 -0.4501,-2.09913 -1.3683,-4.06702 -0.9182,-2.03342 -2.1641,-3.60773 -0.9903,-1.24591 -2.427,-2.427 -1.3864,-1.18109 -3.149,-2.0336 -1.7644,-0.91823 -3.871,-1.44396 -2.0993,-0.59054 -4.4597,-0.59054 -4.9206,0 -8.3972,1.96788 -3.4767,1.96789 -5.576,4.52614 -1.2423,1.57359 -2.1641,3.60791 -0.9183,1.96789 -1.4404,4.06702 -0.5221,2.23021 -0.7202,6.8876 -0.198,4.65739 -0.198,11.67625 z m 31.6842,-66.58098 q -0.5221,0 -0.7202,-0.32768 -0.18,-0.3943 0,-0.85341 l 13.7104,-19.15438 q 0.2701,-0.3943 0.6482,-0.3943 h 14.4323 q 0.5222,0 0.7202,0.45911 0.2521,0.45911 -0.18,0.85341 l -18.1053,19.15439 q 0,0.072 -0.2701,0.19624 -0.198,0.072 -0.3241,0.072 z m -131.1282,20.33512 q 0,-0.78679 0.7922,-0.78679 h 14.3009 q 0.7202,0 0.7202,0.78679 v 60.6116 q 0,9.44604 5.2483,14.30021 5.3131,4.91972 13.1847,4.91972 7.7401,0 13.055,-4.91972 5.3131,-4.91989 5.3131,-14.30021 v -60.6116 q 0,-0.78679 0.7922,-0.78679 h 14.2343 q 0.7922,0 0.7922,0.78679 v 62.18591 q 0,15.08737 -10.0357,24.27089 -9.906,9.118 -24.1403,9.118 -14.2992,0 -24.27,-9.118 -9.9709,-9.18352 -9.9709,-24.27089 z m -24.992,94.78764 q -0.396,0 -0.6661,-0.3943 l -19.9417,-33.84817 q -4.9855,8.52762 -9.9709,16.924 -4.9854,8.39655 -9.9709,16.92417 -0.252,0.3943 -0.6481,0.3943 h -16.0708 q -0.5221,0 -0.7202,-0.32768 -0.198,-0.3943 0,-0.85341 l 28.5353,-47.82017 q -6.7571,-11.41391 -13.3809,-22.69658 -6.6257,-11.28266 -13.3161,-22.69658 -0.2701,-0.45912 0,-0.7868 0.198,-0.39429 0.6662,-0.39429 h 16.1355 q 0.3961,0 0.6482,0.39429 l 18.1035,31.48654 q 4.5263,-7.87155 9.0526,-15.67755 4.5263,-7.87173 9.0526,-15.80899 0.2701,-0.39429 0.6482,-0.39429 h 16.1374 q 0.4681,0 0.6481,0.39429 0.1981,0.32768 0,0.7868 l -26.697,45.39316 q 7.2144,12.00429 14.2992,23.94286 7.0847,11.87321 14.3009,23.87731 0.2701,0.45911 0,0.85341 -0.198,0.32768 -0.7202,0.32768 z" />
          <path
             id="rect15844"
             style="font-size:21.4014px;line-height:1.3;font-family:'Singapore Road Signs';-inkscape-font-specification:'Singapore Road Signs';text-align:center;letter-spacing:-0.6975px;text-anchor:middle;opacity:1;fill:#0046aa;fill-rule:evenodd;stroke-width:0.082;stroke-linecap:square;paint-order:stroke fill markers"
             d="m 1544.7386,-512.75819 -44.6042,64.1979 -8.0299,-5.5731 -6.2422,43.25442 38.3513,-20.95267 -8.03,-5.5731 44.6042,-64.20727 z m 44.5935,33.29903 -105.0056,158.56911 h -154.3431 l -154.696,121.604 h 414.0447 z m -288.4817,99.03237 -60.2518,49.82334 -6.226,-7.5363 -17.6677,39.97959 42.5751,-9.85311 -6.2242,-7.52694 60.2447,-49.82316 z"
             sodipodi:nodetypes="cccccccccccccccccccccc" />
        </g>
      </g>
    </g>
  </g>
</svg>
