<?xml version="1.0" encoding="utf-8"?>
<svg viewBox="0 0 323.14914 200" xmlns="http://www.w3.org/2000/svg">
  <g id="layer1" transform="matrix(0.9999999999999999, 0, 0, 0.9999999999999999, -303.4596862792969, -22.960700988769517)">
    <path id="rect15575" style="opacity:1;fill:#0a9646;fill-opacity:1;fill-rule:evenodd;stroke-width:0.0420687;stroke-linecap:square;stroke-miterlimit:10;paint-order:stroke fill markers" d="M 303.45966,22.960701 H 626.6088 V 222.9607 H 303.45966 Z"/>
    <path transform="matrix(0.26458333,0,0,0.26458333,303.45966,22.960701)" d="m 30.353516,5.0117188 c -13.808655,0 -25.0781254,11.2674112 -25.0781254,25.0761722 v 332.957029 47.1211 49.04296 13.88672 252.45508 c 0,13.80862 11.2694704,25.06641 25.0781254,25.06641 H 1190.9805 c 13.8086,0 25.0781,-11.25779 25.0781,-25.06641 V 473.0957 459.57031 401.94727 363.04492 30.087891 c 0,-13.808761 -11.2695,-25.0761722 -25.0781,-25.0761722 z m 0,9.4511722 H 1190.9805 c 8.7398,0 15.6425,6.885058 15.6425,15.625 v 332.957029 38.90235 c 0,0.29959 -0.013,0.61475 -0.037,0.9375 v 7.20703 c 0,8.68754 -6.9941,15.68164 -15.6816,15.68164 h -8.0762 c -0.1869,0.007 -0.3766,0.0176 -0.5586,0.0176 H 38.023438 c -0.18105,0 -0.371847,-0.0102 -0.560547,-0.0176 h -7.097657 c -8.687546,0 -15.68164,-6.9941 -15.68164,-15.68164 V 30.152344 c 0,-1.658433 0.257595,-3.253829 0.730468,-4.751953 0.01365,-0.04461 0.03284,-0.08643 0.04688,-0.13086 1.99686,-6.321925 7.84094,-10.80664 14.892578,-10.80664 z M 30.28125,435.30469 h 6.958984 1145.628866 8.1172 c 8.6414,0 15.5996,6.95633 15.5996,15.59765 v 7.5918 c 0.024,0.37296 0.037,0.7339 0.037,1.07617 v 13.52539 252.45508 c 0,5.47634 -2.7106,10.22208 -6.8847,13.00391 -2.4923,1.6862 -5.5034,2.66992 -8.752,2.66992 H 30.28125 c -8.641361,0 -15.597656,-6.9563 -15.597656,-15.59766 V 450.90234 c 0,-8.64132 6.956295,-15.59765 15.597656,-15.59765 z" style="color:#000000;font-style:normal;font-variant:normal;font-weight:normal;font-stretch:normal;font-size:medium;line-height:normal;font-family:sans-serif;font-variant-ligatures:normal;font-variant-position:normal;font-variant-caps:normal;font-variant-numeric:normal;font-variant-alternates:normal;font-variant-east-asian:normal;font-feature-settings:normal;font-variation-settings:normal;text-indent:0;text-align:start;text-decoration:none;text-decoration-line:none;text-decoration-style:solid;text-decoration-color:#000000;letter-spacing:normal;word-spacing:normal;text-transform:none;writing-mode:lr-tb;direction:ltr;text-orientation:mixed;dominant-baseline:auto;baseline-shift:baseline;text-anchor:start;white-space:normal;shape-padding:0;shape-margin:0;inline-size:0;clip-rule:nonzero;display:inline;overflow:visible;visibility:visible;opacity:1;isolation:auto;mix-blend-mode:normal;color-interpolation:sRGB;color-interpolation-filters:linearRGB;solid-color:#000000;solid-opacity:1;vector-effect:none;fill:#ffffff;fill-opacity:1;fill-rule:evenodd;stroke:none;stroke-width:2.09199;stroke-linecap:square;stroke-linejoin:miter;stroke-miterlimit:10;stroke-dasharray:none;stroke-dashoffset:0;stroke-opacity:1;paint-order:stroke fill markers;color-rendering:auto;image-rendering:auto;shape-rendering:auto;text-rendering:auto;enable-background:accumulate;stop-color:#000000;stop-opacity:1" id="path15582"/>
    <path d="m 324.12038,67.193614 h 60.89334 v 27.821331 h -60.89334 z" style="opacity:1;fill:#ffd70f;fill-opacity:1;fill-rule:evenodd;stroke:none;stroke-width:0.553508;stroke-linecap:square;stroke-miterlimit:10;stroke-dasharray:none;stroke-opacity:1;paint-order:stroke fill markers" id="rect15605"/>
    <path id="path15631" d="m 326.18273,67.759747 c -0.81115,0 -1.47443,0.660164 -1.47443,1.471307 v 23.746432 c 0,0.811142 0.66328,1.471323 1.47443,1.471323 h 56.7905 c 0.81117,0 1.4744,-0.660181 1.4744,-1.471323 V 69.231054 c 0,-0.811143 -0.66328,-1.471307 -1.4744,-1.471307 z m 0,0.535017 h 56.7905 c 0.52266,0 0.93627,0.413622 0.93627,0.93629 v 23.746432 c 0,0.522654 -0.41353,0.933189 -0.93627,0.933189 h -56.7905 c -0.52266,0 -0.93628,-0.410555 -0.93628,-0.933189 V 69.231054 c 0,-0.522672 0.41354,-0.93629 0.93628,-0.93629 z" style="color:#000000;font-style:normal;font-variant:normal;font-weight:normal;font-stretch:normal;font-size:medium;line-height:normal;font-family:sans-serif;font-variant-ligatures:normal;font-variant-position:normal;font-variant-caps:normal;font-variant-numeric:normal;font-variant-alternates:normal;font-variant-east-asian:normal;font-feature-settings:normal;font-variation-settings:normal;text-indent:0;text-align:start;text-decoration:none;text-decoration-line:none;text-decoration-style:solid;text-decoration-color:#000000;letter-spacing:normal;word-spacing:normal;text-transform:none;writing-mode:lr-tb;direction:ltr;text-orientation:mixed;dominant-baseline:auto;baseline-shift:baseline;text-anchor:start;white-space:normal;shape-padding:0;shape-margin:0;inline-size:0;clip-rule:nonzero;display:inline;overflow:visible;visibility:visible;opacity:1;isolation:auto;mix-blend-mode:normal;color-interpolation:sRGB;color-interpolation-filters:linearRGB;solid-color:#000000;solid-opacity:1;vector-effect:none;fill:#000000;fill-opacity:1;fill-rule:evenodd;stroke:none;stroke-width:0.119062;stroke-linecap:square;stroke-linejoin:miter;stroke-miterlimit:10;stroke-dasharray:none;stroke-dashoffset:0;stroke-opacity:1;paint-order:stroke fill markers;color-rendering:auto;image-rendering:auto;shape-rendering:auto;text-rendering:auto;enable-background:accumulate;stop-color:#000000;stop-opacity:1"/>
    <path d="m 336.88947,72.205604 c -1.36961,0 -2.51552,0.330332 -3.43646,0.991507 -0.91309,0.653335 -1.5737,1.361798 -1.98303,2.125328 -0.14189,0.267612 -0.264,0.538688 -0.36613,0.814199 -0.10264,0.275473 -0.18065,0.564078 -0.23555,0.86321 -0.0552,0.299089 -0.0954,0.774434 -0.11873,1.427765 -0.0223,0.653332 -0.0362,1.495435 -0.0362,2.5266 0,2.062321 0.0516,3.383536 0.15387,3.966025 0.0552,0.299136 0.13326,0.587702 0.23556,0.863193 0.10264,0.267612 0.22467,0.534915 0.36612,0.802543 0.40948,0.771411 1.06995,1.479875 1.983,2.125324 0.92887,0.653346 2.07472,0.979855 3.43649,0.979855 0.74779,0 1.44489,-0.107189 2.09034,-0.319632 0.64544,-0.212556 1.24303,-0.525333 1.79403,-0.942508 1.1335,-0.865864 1.86473,-2.103628 2.19533,-3.709419 0.0139,-0.04714 0.009,-0.08518 -0.0223,-0.116745 -0.0315,-0.03928 -0.0694,-0.05829 -0.11656,-0.05829 h -2.70394 c -0.0223,1.5e-5 -0.0488,0.01117 -0.0722,0.03521 -0.0223,0.01589 -0.0451,0.0307 -0.0582,0.0467 -0.70836,1.487712 -1.74338,2.232636 -3.10515,2.232636 -0.59037,0 -1.09454,-0.11468 -1.51174,-0.342928 -0.41713,-0.236167 -0.75132,-0.520933 -1.00317,-0.851551 -0.14189,-0.181028 -0.27124,-0.389065 -0.3896,-0.625222 -0.11008,-0.244 -0.19597,-0.488524 -0.25924,-0.732545 -0.0628,-0.267611 -0.10709,-0.67614 -0.13048,-1.227141 -0.0223,-0.558871 -0.0359,-1.267326 -0.0359,-2.125325 0,-0.842249 0.009,-1.543133 0.0359,-2.102004 0.0223,-0.55887 0.0677,-0.97117 0.13048,-1.238798 0.0627,-0.251917 0.14857,-0.496392 0.25924,-0.732549 0.11009,-0.244 0.24028,-0.45965 0.3896,-0.64857 0.252,-0.30699 0.58598,-0.580386 1.00317,-0.816526 0.41715,-0.236167 0.92137,-0.352269 1.51174,-0.352269 0.79503,1.7e-5 1.45185,0.230844 1.97135,0.695231 0.27541,0.236167 0.50863,0.492045 0.69757,0.767539 0.18872,0.267667 0.33407,0.560022 0.4361,0.874867 0.0167,0.06294 0.0599,0.09333 0.13046,0.09333 h 2.7039 c 0.0468,0 0.0854,-0.01589 0.11658,-0.0467 0.0315,-0.03161 0.0407,-0.07184 0.0223,-0.118954 -0.25952,-1.393235 -0.93175,-2.595995 -2.01801,-3.611427 -1.07052,-1.007535 -2.42438,-1.511744 -4.0617,-1.511744 z m 27.73422,0.104956 c -1.28304,0 -2.4213,0.437369 -3.41313,1.311121 -0.99967,0.858 -1.50005,2.08205 -1.50005,3.672071 v 7.425818 c 0,1.590021 0.50038,2.814088 1.50005,3.672088 0.99183,0.865851 2.13009,1.299446 3.41313,1.299446 1.28303,0 2.42133,-0.433578 3.41313,-1.299446 1.00756,-0.86587 1.50938,-2.089917 1.50938,-3.672088 v -7.425818 c 0,-0.787127 -0.1299,-1.484222 -0.38959,-2.09033 -0.252,-0.613979 -0.62389,-1.140934 -1.11979,-1.581741 -0.49592,-0.425045 -1.03279,-0.74779 -1.6074,-0.968177 -0.56674,-0.22825 -1.16816,-0.342924 -1.80573,-0.342924 z m -21.12261,0.03521 c -0.0943,0 -0.14217,0.04776 -0.14217,0.142392 v 2.279298 c 0,0.09444 0.0479,0.142197 0.14217,0.142197 h 4.49793 V 89.409 c 0,0.09444 0.0479,0.139995 0.14217,0.139995 h 2.5616 c 0.0945,0 0.14217,-0.04555 0.14217,-0.139995 V 74.909653 h 4.48625 c 0.0943,0 0.14217,-0.04778 0.14217,-0.142196 v -2.279299 c 0,-0.09444 -0.0479,-0.142392 -0.14217,-0.142392 z m 31.22667,0.118953 -2.43331,1.759064 c -0.0139,0.01589 -0.0315,0.03477 -0.0466,0.05829 -0.009,0.02341 -0.0139,0.04468 -0.0139,0.06068 v 2.561593 c 0,0.06294 0.0278,0.110694 0.0728,0.142196 0.0468,0.02343 0.0989,0.01617 0.15388,-0.02343 0.36208,-0.259778 0.7228,-0.523245 1.08486,-0.790886 0.36206,-0.275473 0.72509,-0.548889 1.08714,-0.816528 v 14.028096 c 0,0.09444 0.048,0.142198 0.14217,0.142198 h 2.41929 c 0.0943,0 0.13994,-0.04778 0.13994,-0.142198 V 72.606811 c 0,-0.09444 -0.0455,-0.142197 -0.13994,-0.142197 z m -10.10406,2.538257 c 0.67694,0 1.21532,0.217964 1.61673,0.650912 0.40948,0.425045 0.61359,1.018854 0.61359,1.782378 v 7.143522 c 0,0.771407 -0.20461,1.368982 -0.61359,1.794059 -0.40133,0.425045 -0.93979,0.63689 -1.61673,0.63689 -0.67695,0 -1.21527,-0.211859 -1.61671,-0.63689 -0.40134,-0.425091 -0.60428,-1.022652 -0.60428,-1.794059 v -7.143497 c 0,-0.763524 0.20266,-1.357335 0.60428,-1.782377 0.40133,-0.432946 0.93976,-0.650913 1.61671,-0.650913 z m -9.98507,11.865445 c -0.0945,0 -0.14217,0.04776 -0.14217,0.14239 v 2.398281 c 0,0.09444 0.0479,0.139994 0.14217,0.139994 h 2.40762 c 0.0867,0 0.13046,-0.04555 0.13046,-0.139994 v -2.398281 c 0,-0.09444 -0.0451,-0.14239 -0.13046,-0.14239 z" style="font-style: normal; font-variant: normal; font-weight: normal; font-stretch: normal; font-size: 15.1831px; line-height: 1.46; font-family: 'Alte DIN 1451 Mittelschrift gepraegt'; text-align: center; text-anchor: middle; opacity: 1; fill-opacity: 1; stroke-width: 0.264584; visibility: hidden;" id="path15637"/>
    <path id="path17496" style="font-size:15.1831px;line-height:1.46;font-family:'Singapore Road Signs';-inkscape-font-specification:'Singapore Road Signs';text-align:center;text-anchor:middle;opacity:1;fill:#ffffff;fill-opacity:1;stroke-width:0.0756548" d="m 570.47468,59.120043 v 50.614317 h 35.43541 V 59.120043 Z m 1.38203,1.660034 h 32.65274 v 47.566083 h -32.65274 z m 13.66823,3.646909 -2.23483,8.869719 h 3.92184 l 0.28216,-8.869719 z m 3.35329,0 0.28216,8.869719 h 3.92385 l -2.23686,-8.869719 z m -15.90932,9.992316 v 1.942234 l 3.06692,1.10806 v 0.584703 h 1.411 v -0.584703 c 0,0 2.08662,-0.313671 4.52568,-0.535349 1.95306,-0.177516 4.1317,-0.271988 5.64407,-0.278037 1.79866,-0.0063 4.45804,0.09363 6.73975,0.288436 2.51319,0.214479 4.5713,0.524984 4.5713,0.524984 v 0.5847 h 1.38199 v -0.5847 l 3.06685,-1.108064 v -1.942233 z m 9.21108,3.620663 -6.70448,26.681115 h 10.04943 l 1.39442,-26.681115 z m 7.25642,0 1.39441,26.681115 h 10.0494 l -6.70443,-26.681115 z"/>
    <g style="font-size: 14.7905px; line-height: 0; font-family: 'Singapore Road Signs'; text-align: center; text-anchor: middle; opacity: 1; fill: rgb(134, 0, 0); fill-opacity: 1; stroke-width: 6.45213;" id="layer1-8" transform="matrix(0.08718, 0, 0, 0.08718, -83.32261, 195.49013)">
      <circle style="opacity:1;fill:#f00a0a;fill-opacity:1;fill-rule:nonzero;stroke:none;stroke-width:3622.55;stroke-linecap:round;stroke-linejoin:round;stroke-miterlimit:4;stroke-dasharray:none;stroke-opacity:1;paint-order:stroke fill markers" id="path815" cx="6380.9966" cy="-193.29752" r="350"/>
      <circle cy="-193.29752" cx="6380.9966" id="circle817" style="opacity:1;fill:#ffffff;fill-opacity:1;fill-rule:nonzero;stroke:none;stroke-width:2587.55;stroke-linecap:round;stroke-linejoin:round;stroke-miterlimit:4;stroke-dasharray:none;stroke-opacity:1;paint-order:stroke fill markers" r="263.822"/>
      <g aria-label="20 " style="font-style:normal;font-variant:normal;font-weight:bold;font-stretch:normal;font-size:414.864px;line-height:0;font-family:Giaothong1;-inkscape-font-specification:'Giaothong1 Bold';letter-spacing:0px;word-spacing:0px;fill:#000000;fill-opacity:1;stroke:none;stroke-width:24.7849" id="text874" transform="matrix(-1,0,0,1,1299.029,-383.45)">
        <g aria-label="90" transform="translate(2310.2259,387.54849)" style="font-style:normal;font-variant:normal;font-weight:bold;font-stretch:normal;font-size:414.864px;line-height:0;font-family:Giaothong1;-inkscape-font-specification:'Giaothong1 Bold';letter-spacing:0px;word-spacing:0px;fill:#000000;fill-opacity:1;stroke:none;stroke-width:53.5539" id="text844"/>
      </g>
    </g>
    <path d="M 461.158 174.241 Q 461.158 175.835 462.121 176.632 Q 463.133 177.445 464.345 177.445 Q 465.557 177.445 466.553 176.632 Q 467.549 175.818 467.549 174.241 Q 467.549 172.697 466.553 171.884 Q 465.607 171.053 464.345 171.053 Q 463.117 171.053 462.121 171.884 Q 461.158 172.68 461.158 174.241 Z M 456.957 184.418 Q 456.957 182.708 457.63 181.38 Q 458.302 180.052 459.614 179.089 Q 458.601 178.142 457.987 176.997 Q 457.372 175.851 457.372 174.307 Q 457.372 171.369 459.365 169.327 Q 461.407 167.268 464.345 167.268 Q 467.3 167.268 469.309 169.327 Q 471.334 171.402 471.334 174.307 Q 471.334 175.071 471.168 175.735 Q 471.002 176.399 470.704 176.989 Q 470.405 177.578 469.99 178.101 Q 469.575 178.624 469.093 179.089 Q 471.749 180.998 471.749 184.418 Q 471.749 186.011 471.193 187.34 Q 470.637 188.668 469.541 189.697 Q 468.462 190.66 467.151 191.183 Q 465.839 191.706 464.345 191.706 Q 461.307 191.706 459.149 189.697 Q 456.957 187.638 456.957 184.418 Z M 460.726 184.385 Q 460.726 185.148 461.017 185.796 Q 461.307 186.443 461.805 186.925 Q 462.917 187.937 464.345 187.937 Q 465.773 187.937 466.885 186.925 Q 467.416 186.427 467.699 185.787 Q 467.981 185.148 467.981 184.385 Q 467.981 182.841 466.885 181.844 Q 465.806 180.815 464.345 180.815 Q 462.917 180.815 461.805 181.844 Q 460.726 182.841 460.726 184.385 Z M 483.797 174.473 Q 483.797 172.863 482.942 171.958 Q 482.087 171.053 480.66 171.053 Q 479.232 171.053 478.385 171.958 Q 477.538 172.863 477.538 174.473 L 477.538 184.517 Q 477.538 186.144 478.385 187.041 Q 479.232 187.937 480.66 187.937 Q 482.087 187.937 482.942 187.041 Q 483.797 186.144 483.797 184.517 Z M 473.753 174.274 Q 473.753 170.921 475.862 169.111 Q 477.954 167.268 480.66 167.268 Q 482.004 167.268 483.208 167.741 Q 484.412 168.215 485.457 169.111 Q 486.503 170.041 487.043 171.327 Q 487.582 172.614 487.582 174.274 L 487.582 184.717 Q 487.582 188.053 485.457 189.88 Q 483.366 191.706 480.66 191.706 Q 477.954 191.706 475.862 189.88 Q 473.753 188.07 473.753 184.717 Z"/>
    <g aria-label="6" id="text19759" style="font-size: 31.1478px; line-height: 1.3; font-family: 'Singapore Road Signs'; text-align: center; text-anchor: middle; stroke-width: 0.159861;" transform="matrix(1.6550836,0,0,1.6550836,-321.31659,-238.56049)"/>
    <path d="M 410.96 73.363 Q 410.828 73.363 410.799 73.245 L 403.87 52.254 Q 403.841 52.166 403.885 52.093 Q 403.929 52.02 404.031 52.02 L 407.386 52.02 Q 407.518 52.02 407.547 52.152 L 412.19 67.694 Q 413.362 63.797 414.527 59.923 Q 415.691 56.048 416.849 52.152 Q 416.878 52.02 417.01 52.02 L 420.364 52.02 Q 420.467 52.02 420.511 52.093 Q 420.555 52.166 420.525 52.254 L 413.597 73.245 Q 413.567 73.363 413.436 73.363 Z M 420.8 73.348 Q 420.698 73.348 420.654 73.275 Q 420.61 73.202 420.639 73.114 L 428.315 52.108 Q 428.344 51.991 428.461 51.991 L 431.083 51.991 Q 431.127 51.991 431.179 52.027 Q 431.23 52.064 431.244 52.108 L 438.906 73.114 Q 438.935 73.202 438.891 73.275 Q 438.847 73.348 438.759 73.348 L 435.405 73.348 Q 435.287 73.348 435.258 73.231 L 433.676 68.602 L 425.942 68.602 Q 425.532 69.788 425.129 70.924 Q 424.726 72.059 424.316 73.231 Q 424.301 73.275 424.25 73.311 Q 424.199 73.348 424.155 73.348 Z M 432.621 65.452 Q 432.592 65.35 432.541 65.233 Q 432.49 65.116 432.46 65.028 Q 432.211 64.31 432.006 63.702 Q 431.801 63.094 431.64 62.64 Q 431.537 62.347 431.442 62.069 Q 431.347 61.79 431.259 61.541 Q 431.186 61.307 431.113 61.095 Q 431.039 60.882 430.966 60.677 Q 430.834 60.252 430.695 59.827 Q 430.556 59.403 430.409 58.949 Q 430.336 58.744 430.256 58.494 Q 430.175 58.245 430.087 57.967 Q 430.043 57.821 430.021 57.74 Q 429.999 57.66 429.97 57.579 Q 429.941 57.498 429.904 57.396 Q 429.867 57.293 429.809 57.103 Q 429.648 57.586 429.509 57.996 Q 429.369 58.407 429.252 58.758 Q 429.223 58.846 429.208 58.919 Q 429.194 58.993 429.164 59.066 Q 429.091 59.315 429.011 59.535 Q 428.93 59.754 428.857 59.974 Q 428.784 60.208 428.71 60.428 Q 428.637 60.648 428.564 60.853 Q 428.417 61.292 428.263 61.776 Q 428.11 62.259 427.919 62.786 Q 427.729 63.314 427.524 63.922 Q 427.319 64.53 426.996 65.452 Z M 430.688 50.13 Q 430.659 50.13 430.615 50.108 Q 430.571 50.086 430.556 50.072 L 426.513 45.794 Q 426.425 45.706 426.476 45.604 Q 426.528 45.501 426.645 45.501 L 429.867 45.501 Q 429.955 45.501 430.014 45.589 L 433.076 49.867 Q 433.119 49.969 433.083 50.05 Q 433.046 50.13 432.929 50.13 Z M 441.555 73.363 Q 441.379 73.363 441.379 73.187 L 441.379 52.196 Q 441.379 52.02 441.555 52.02 L 444.573 52.02 Q 444.66 52.02 444.719 52.108 L 453.948 66.639 L 453.948 52.196 Q 453.948 52.02 454.123 52.02 L 457.317 52.02 Q 457.492 52.02 457.492 52.196 L 457.492 73.187 Q 457.492 73.363 457.317 73.363 L 454.314 73.363 Q 454.226 73.363 454.167 73.275 L 444.909 58.744 L 444.909 73.187 Q 444.909 73.363 444.748 73.363 Z M 473.577 73.363 Q 473.401 73.363 473.401 73.187 L 473.401 64.193 L 465.417 64.193 L 465.417 73.187 Q 465.417 73.363 465.242 73.363 L 462.063 73.363 Q 461.887 73.363 461.887 73.187 L 461.887 52.196 Q 461.887 52.02 462.063 52.02 L 465.242 52.02 Q 465.417 52.02 465.417 52.196 L 465.417 61.014 L 473.401 61.014 L 473.401 52.196 Q 473.401 52.02 473.577 52.02 L 476.755 52.02 Q 476.931 52.02 476.931 52.196 L 476.931 73.187 Q 476.931 73.363 476.755 73.363 Z M 488.681 73.363 Q 488.52 73.363 488.52 73.187 L 488.52 64.163 L 486.982 64.163 Q 486.821 64.163 486.821 64.002 L 486.821 60.985 Q 486.821 60.809 486.982 60.809 L 488.52 60.809 L 488.52 52.196 Q 488.52 52.02 488.681 52.02 L 496.034 52.02 Q 500.414 52.02 502.582 55.638 Q 502.978 56.341 503.227 56.971 Q 503.476 57.601 503.549 58.202 Q 503.725 59.373 503.725 62.699 Q 503.725 64.486 503.666 65.68 Q 503.608 66.873 503.491 67.474 Q 503.373 68.089 503.132 68.668 Q 502.89 69.246 502.524 69.818 L 502.524 69.803 Q 501.542 71.312 499.887 72.337 Q 498.173 73.363 495.829 73.363 Z M 492.05 55.389 L 492.05 60.809 L 495.873 60.809 Q 496.049 60.809 496.049 60.985 L 496.049 64.002 Q 496.049 64.163 495.873 64.163 L 492.05 64.163 L 492.05 70.023 L 495.683 70.023 Q 498.202 70.023 499.433 68.265 Q 499.946 67.489 500.048 66.639 Q 500.121 66.17 500.158 65.225 Q 500.195 64.281 500.195 62.816 Q 500.195 61.395 500.158 60.443 Q 500.121 59.491 500.048 58.934 Q 499.887 57.894 499.286 57.074 Q 498.041 55.389 495.683 55.389 Z M 505.523 73.348 Q 505.42 73.348 505.376 73.275 Q 505.332 73.202 505.362 73.114 L 513.038 52.108 Q 513.067 51.991 513.184 51.991 L 515.806 51.991 Q 515.85 51.991 515.901 52.027 Q 515.953 52.064 515.967 52.108 L 523.628 73.114 Q 523.658 73.202 523.614 73.275 Q 523.57 73.348 523.482 73.348 L 520.127 73.348 Q 520.01 73.348 519.981 73.231 L 518.399 68.602 L 510.664 68.602 Q 510.254 69.788 509.851 70.924 Q 509.449 72.059 509.038 73.231 Q 509.024 73.275 508.973 73.311 Q 508.921 73.348 508.877 73.348 Z M 517.344 65.452 Q 517.315 65.35 517.264 65.233 Q 517.212 65.116 517.183 65.028 Q 516.934 64.31 516.729 63.702 Q 516.524 63.094 516.363 62.64 Q 516.26 62.347 516.165 62.069 Q 516.07 61.79 515.982 61.541 Q 515.909 61.307 515.835 61.095 Q 515.762 60.882 515.689 60.677 Q 515.557 60.252 515.418 59.827 Q 515.279 59.403 515.132 58.949 Q 515.059 58.744 514.978 58.494 Q 514.898 58.245 514.81 57.967 Q 514.766 57.821 514.744 57.74 Q 514.722 57.66 514.693 57.579 Q 514.663 57.498 514.627 57.396 Q 514.59 57.293 514.532 57.103 Q 514.371 57.586 514.231 57.996 Q 514.092 58.407 513.975 58.758 Q 513.946 58.846 513.931 58.919 Q 513.916 58.993 513.887 59.066 Q 513.814 59.315 513.733 59.535 Q 513.653 59.754 513.579 59.974 Q 513.506 60.208 513.433 60.428 Q 513.36 60.648 513.287 60.853 Q 513.14 61.292 512.986 61.776 Q 512.832 62.259 512.642 62.786 Q 512.452 63.314 512.246 63.922 Q 512.041 64.53 511.719 65.452 Z M 526.234 73.363 Q 526.058 73.363 526.058 73.187 L 526.058 52.196 Q 526.058 52.02 526.234 52.02 L 529.412 52.02 Q 529.588 52.02 529.588 52.196 L 529.588 73.187 Q 529.588 73.363 529.412 73.363 Z M 544.151 63.929 Q 543.975 63.929 543.975 63.753 L 543.975 61.131 Q 543.975 60.955 544.151 60.955 L 545.176 60.955 Q 546.597 60.955 547.418 60.164 Q 548.223 59.403 548.223 58.158 Q 548.223 56.986 547.388 56.151 Q 546.553 55.316 545.352 55.316 Q 544.473 55.316 543.668 55.916 Q 542.862 56.502 542.642 57.689 Q 542.628 57.747 542.576 57.791 Q 542.525 57.835 542.481 57.835 L 539.478 57.835 Q 539.405 57.835 539.354 57.777 Q 539.302 57.718 539.317 57.645 Q 539.464 55.404 541.221 53.675 Q 542.95 51.976 545.235 51.976 Q 546.656 51.976 547.806 52.459 Q 548.956 52.943 549.835 53.88 Q 550.67 54.803 551.116 55.88 Q 551.563 56.956 551.563 58.099 Q 551.563 59.344 551.08 60.531 Q 550.845 61.058 550.435 61.527 Q 550.025 61.995 549.468 62.406 Q 550.64 63.241 551.212 64.412 Q 551.798 65.672 551.798 66.976 Q 551.798 69.95 549.908 71.766 Q 548.048 73.538 545.294 73.538 Q 544.195 73.538 543.221 73.187 Q 542.247 72.835 541.353 72.132 Q 540.474 71.414 539.94 70.404 Q 539.405 69.393 539.2 68.031 Q 539.171 67.84 539.376 67.84 L 542.364 67.84 Q 542.466 67.84 542.525 67.957 Q 542.716 68.47 542.972 68.88 Q 543.228 69.29 543.58 69.591 Q 543.931 69.891 544.393 70.052 Q 544.854 70.213 545.469 70.213 Q 546.627 70.213 547.549 69.378 Q 548.458 68.573 548.458 67.078 Q 548.458 65.584 547.549 64.779 Q 546.627 63.929 545.411 63.929 Z" style="fill: rgb(255, 255, 255);"/>
    <path d="M 416.465 114.841 Q 416.336 114.841 416.336 114.712 L 416.336 99.318 Q 416.336 99.189 416.465 99.189 L 426.304 99.189 Q 426.433 99.189 426.433 99.318 L 426.433 101.531 Q 426.433 101.66 426.304 101.66 L 418.925 101.66 L 418.925 105.785 L 425.198 105.785 Q 425.327 105.785 425.327 105.914 L 425.327 107.998 Q 425.327 108.116 425.198 108.116 L 418.925 108.116 L 418.925 112.392 L 426.304 112.392 Q 426.433 112.392 426.433 112.52 L 426.433 114.712 Q 426.433 114.841 426.304 114.841 Z M 436.347 114.841 Q 436.283 114.841 436.24 114.776 L 432.974 109.233 Q 432.158 110.63 431.341 112.005 Q 430.525 113.38 429.708 114.776 Q 429.665 114.841 429.601 114.841 L 426.969 114.841 Q 426.883 114.841 426.851 114.782 Q 426.819 114.723 426.862 114.647 L 431.534 106.816 Q 430.428 104.947 429.343 103.1 Q 428.258 101.252 427.162 99.383 Q 427.119 99.308 427.152 99.248 Q 427.184 99.189 427.259 99.189 L 429.902 99.189 Q 429.966 99.189 430.009 99.254 L 432.974 104.41 Q 433.715 103.121 434.456 101.837 Q 435.198 100.554 435.939 99.254 Q 435.982 99.189 436.046 99.189 L 438.689 99.189 Q 438.764 99.189 438.796 99.248 Q 438.828 99.308 438.785 99.383 L 434.413 106.816 Q 435.595 108.782 436.755 110.732 Q 437.915 112.682 439.097 114.647 Q 439.14 114.723 439.108 114.782 Q 439.076 114.841 438.99 114.841 Z M 443.129 101.66 L 443.129 106.365 L 446.47 106.365 Q 447.705 106.365 448.307 105.624 Q 448.919 104.904 448.919 104.013 Q 448.919 102.681 447.974 102.068 Q 447.361 101.66 446.384 101.66 Z M 440.669 114.841 Q 440.54 114.841 440.54 114.712 L 440.54 99.318 Q 440.54 99.189 440.669 99.189 L 446.255 99.189 Q 447.179 99.189 448.006 99.383 Q 448.844 99.576 449.789 100.307 Q 450.154 100.597 450.46 100.978 Q 450.767 101.359 451.014 101.821 Q 451.25 102.294 451.379 102.863 Q 451.508 103.433 451.508 104.077 Q 451.508 105.764 450.24 107.3 Q 448.973 108.825 446.556 108.825 L 443.129 108.825 L 443.129 114.712 Q 443.129 114.841 443 114.841 Z M 455.998 101.52 L 455.998 105.935 L 459.404 105.935 Q 460.65 105.935 461.273 105.248 Q 461.896 104.56 461.896 103.615 Q 461.896 103.078 461.708 102.659 Q 461.52 102.24 461.165 101.972 Q 460.854 101.757 460.44 101.639 Q 460.027 101.52 459.543 101.52 Z M 453.539 114.841 Q 453.41 114.841 453.41 114.712 L 453.41 99.318 Q 453.41 99.189 453.539 99.189 L 459.565 99.189 Q 460.564 99.189 461.37 99.463 Q 462.175 99.737 462.777 100.242 Q 463.088 100.532 463.373 100.903 Q 463.658 101.273 463.878 101.703 Q 464.098 102.133 464.227 102.616 Q 464.356 103.1 464.356 103.615 Q 464.356 104.378 464.141 105.06 Q 463.926 105.742 463.539 106.333 Q 463.142 106.881 462.616 107.294 Q 462.089 107.708 461.423 107.955 Q 462.293 109.62 463.174 111.301 Q 464.055 112.982 464.925 114.647 Q 464.957 114.723 464.925 114.782 Q 464.893 114.841 464.818 114.841 L 462.046 114.841 Q 462.014 114.841 461.982 114.814 Q 461.95 114.787 461.928 114.766 L 458.781 108.267 L 455.998 108.267 L 455.998 114.712 Q 455.998 114.841 455.87 114.841 Z M 466.783 114.841 Q 466.654 114.841 466.654 114.712 L 466.654 99.318 Q 466.654 99.189 466.783 99.189 L 476.622 99.189 Q 476.751 99.189 476.751 99.318 L 476.751 101.531 Q 476.751 101.66 476.622 101.66 L 469.243 101.66 L 469.243 105.785 L 475.516 105.785 Q 475.645 105.785 475.645 105.914 L 475.645 107.998 Q 475.645 108.116 475.516 108.116 L 469.243 108.116 L 469.243 112.392 L 476.622 112.392 Q 476.751 112.392 476.751 112.52 L 476.751 114.712 Q 476.751 114.841 476.622 114.841 Z M 478.931 110.888 Q 478.963 110.845 479.017 110.845 Q 479.07 110.845 479.113 110.877 Q 479.962 111.564 481.063 111.978 Q 482.164 112.392 483.389 112.392 Q 484.764 112.392 485.559 111.822 Q 486.31 111.274 486.31 110.372 Q 486.31 108.675 484.409 108.417 L 484.42 108.417 Q 484.151 108.385 483.91 108.352 Q 483.668 108.32 483.426 108.288 Q 483.185 108.256 482.932 108.218 Q 482.68 108.181 482.379 108.138 Q 481.369 107.998 480.58 107.627 Q 479.79 107.257 479.253 106.644 Q 478.716 106.021 478.447 105.286 Q 478.179 104.55 478.179 103.68 Q 478.179 101.639 479.532 100.36 Q 480.896 99.06 483.324 99.06 Q 484.044 99.06 484.726 99.184 Q 485.408 99.308 486.047 99.522 Q 486.686 99.737 487.272 100.033 Q 487.857 100.328 488.394 100.683 Q 488.502 100.758 488.427 100.865 L 487.127 102.788 Q 487.052 102.885 486.955 102.82 Q 486.117 102.294 485.172 101.977 Q 484.227 101.66 483.217 101.66 Q 482.701 101.66 482.261 101.784 Q 481.82 101.907 481.466 102.186 Q 480.768 102.691 480.768 103.723 Q 480.768 104.313 481.24 104.872 Q 481.477 105.13 481.874 105.307 Q 482.271 105.484 482.852 105.57 Q 483.163 105.624 483.582 105.683 Q 484.001 105.742 484.57 105.807 Q 486.772 106.075 487.836 107.429 Q 488.899 108.75 488.899 110.372 Q 488.899 112.542 487.385 113.767 Q 485.859 114.97 483.367 114.97 Q 479.854 114.97 477.394 112.821 Q 477.352 112.789 477.352 112.735 Q 477.352 112.682 477.384 112.639 Z M 491.383 110.888 Q 491.415 110.845 491.469 110.845 Q 491.523 110.845 491.566 110.877 Q 492.414 111.564 493.515 111.978 Q 494.616 112.392 495.841 112.392 Q 497.216 112.392 498.011 111.822 Q 498.763 111.274 498.763 110.372 Q 498.763 108.675 496.862 108.417 L 496.872 108.417 Q 496.604 108.385 496.362 108.352 Q 496.12 108.32 495.879 108.288 Q 495.637 108.256 495.385 108.218 Q 495.132 108.181 494.831 108.138 Q 493.822 107.998 493.032 107.627 Q 492.242 107.257 491.705 106.644 Q 491.168 106.021 490.9 105.286 Q 490.631 104.55 490.631 103.68 Q 490.631 101.639 491.985 100.36 Q 493.349 99.06 495.777 99.06 Q 496.496 99.06 497.178 99.184 Q 497.861 99.308 498.5 99.522 Q 499.139 99.737 499.724 100.033 Q 500.31 100.328 500.847 100.683 Q 500.954 100.758 500.879 100.865 L 499.579 102.788 Q 499.504 102.885 499.407 102.82 Q 498.57 102.294 497.624 101.977 Q 496.679 101.66 495.669 101.66 Q 495.154 101.66 494.713 101.784 Q 494.273 101.907 493.918 102.186 Q 493.22 102.691 493.22 103.723 Q 493.22 104.313 493.693 104.872 Q 493.929 105.13 494.326 105.307 Q 494.724 105.484 495.304 105.57 Q 495.615 105.624 496.034 105.683 Q 496.453 105.742 497.023 105.807 Q 499.225 106.075 500.288 107.429 Q 501.352 108.75 501.352 110.372 Q 501.352 112.542 499.837 113.767 Q 498.312 114.97 495.82 114.97 Q 492.307 114.97 489.847 112.821 Q 489.804 112.789 489.804 112.735 Q 489.804 112.682 489.836 112.639 Z M 506.231 114.841 Q 506.124 114.841 506.102 114.744 L 502.246 99.351 Q 502.224 99.286 502.267 99.238 Q 502.31 99.189 502.375 99.189 L 504.845 99.189 Q 504.953 99.189 504.974 99.286 L 507.294 109.803 Q 508.003 107.16 508.723 104.55 Q 509.443 101.939 510.163 99.286 Q 510.184 99.189 510.292 99.189 L 511.978 99.189 Q 512.075 99.189 512.096 99.286 L 514.975 109.803 Q 515.555 107.16 516.135 104.55 Q 516.715 101.939 517.295 99.286 Q 517.317 99.189 517.424 99.189 L 519.895 99.189 Q 519.96 99.189 520.003 99.238 Q 520.045 99.286 520.024 99.351 L 516.168 114.744 Q 516.146 114.841 516.039 114.841 L 514.094 114.841 Q 513.998 114.841 513.976 114.744 L 511.129 104.056 Q 510.42 106.752 509.711 109.405 Q 509.003 112.059 508.294 114.744 Q 508.272 114.841 508.175 114.841 Z M 519.956 114.83 Q 519.881 114.83 519.849 114.776 Q 519.816 114.723 519.838 114.658 L 525.467 99.254 Q 525.488 99.168 525.574 99.168 L 527.497 99.168 Q 527.529 99.168 527.567 99.195 Q 527.605 99.222 527.615 99.254 L 533.233 114.658 Q 533.255 114.723 533.223 114.776 Q 533.19 114.83 533.126 114.83 L 530.666 114.83 Q 530.58 114.83 530.559 114.744 L 529.398 111.35 L 523.727 111.35 Q 523.426 112.22 523.13 113.052 Q 522.835 113.885 522.534 114.744 Q 522.523 114.776 522.486 114.803 Q 522.448 114.83 522.416 114.83 Z M 528.625 109.04 Q 528.604 108.965 528.566 108.879 Q 528.528 108.793 528.507 108.728 Q 528.324 108.202 528.174 107.756 Q 528.023 107.31 527.905 106.977 Q 527.83 106.763 527.76 106.559 Q 527.69 106.354 527.626 106.172 Q 527.572 106 527.519 105.844 Q 527.465 105.688 527.411 105.538 Q 527.315 105.226 527.212 104.915 Q 527.11 104.603 527.003 104.27 Q 526.949 104.12 526.89 103.937 Q 526.831 103.755 526.767 103.551 Q 526.734 103.443 526.718 103.384 Q 526.702 103.325 526.681 103.266 Q 526.659 103.207 526.632 103.132 Q 526.606 103.057 526.563 102.917 Q 526.444 103.271 526.342 103.572 Q 526.24 103.873 526.154 104.131 Q 526.133 104.195 526.122 104.249 Q 526.111 104.303 526.09 104.356 Q 526.036 104.539 525.977 104.7 Q 525.918 104.861 525.864 105.022 Q 525.811 105.194 525.757 105.355 Q 525.703 105.517 525.649 105.667 Q 525.542 105.989 525.429 106.344 Q 525.316 106.698 525.177 107.085 Q 525.037 107.472 524.887 107.917 Q 524.736 108.363 524.5 109.04 Z M 536.872 114.841 Q 536.754 114.841 536.754 114.712 L 536.754 108.417 Q 535.594 106.15 534.445 103.894 Q 533.295 101.639 532.146 99.372 Q 532.114 99.297 532.146 99.243 Q 532.178 99.189 532.264 99.189 L 534.713 99.189 Q 534.745 99.189 534.778 99.216 Q 534.81 99.243 534.831 99.265 L 537.99 105.86 Q 538.785 104.195 539.563 102.562 Q 540.342 100.93 541.137 99.265 Q 541.159 99.243 541.191 99.216 Q 541.223 99.189 541.255 99.189 L 543.715 99.189 Q 543.801 99.189 543.833 99.243 Q 543.866 99.297 543.833 99.372 L 539.214 108.417 L 539.214 114.712 Q 539.214 114.841 539.085 114.841 Z" style="fill: rgb(255, 255, 255);"/>
    <path d="M 341.369 84.558 Q 341.441 84.558 341.489 84.612 Q 341.537 84.666 341.513 84.738 Q 341.009 87.189 339.279 88.51 Q 338.438 89.147 337.453 89.471 Q 336.468 89.795 335.327 89.795 Q 333.249 89.795 331.832 88.798 Q 330.439 87.813 329.814 86.636 Q 329.598 86.228 329.442 85.813 Q 329.285 85.399 329.201 84.942 Q 329.045 84.054 329.045 80.906 Q 329.045 79.333 329.081 78.336 Q 329.117 77.339 329.201 76.883 Q 329.285 76.426 329.442 76.006 Q 329.598 75.585 329.814 75.177 Q 330.439 74.012 331.832 73.015 Q 333.237 72.006 335.327 72.006 Q 337.826 72.006 339.459 73.543 Q 341.117 75.093 341.513 77.219 Q 341.537 77.291 341.489 77.339 Q 341.441 77.387 341.369 77.387 L 338.618 77.387 Q 338.51 77.387 338.486 77.291 Q 338.33 76.81 338.042 76.396 Q 337.754 75.982 337.333 75.621 Q 336.54 74.913 335.327 74.913 Q 334.426 74.913 333.79 75.273 Q 333.153 75.633 332.769 76.102 Q 332.541 76.39 332.372 76.756 Q 332.204 77.123 332.108 77.507 Q 332.012 77.916 331.976 78.768 Q 331.94 79.621 331.94 80.906 Q 331.94 82.216 331.976 83.063 Q 332.012 83.909 332.108 84.318 Q 332.204 84.69 332.378 85.057 Q 332.553 85.423 332.769 85.699 Q 333.153 86.204 333.79 86.558 Q 334.426 86.912 335.327 86.912 Q 337.405 86.912 338.486 84.642 Q 338.51 84.618 338.546 84.588 Q 338.582 84.558 338.618 84.558 Z M 346.399 89.651 Q 346.255 89.651 346.255 89.507 L 346.255 74.756 L 341.679 74.756 Q 341.535 74.756 341.535 74.612 L 341.535 72.294 Q 341.535 72.15 341.679 72.15 L 353.715 72.15 Q 353.859 72.15 353.859 72.294 L 353.859 74.612 Q 353.859 74.756 353.715 74.756 L 349.15 74.756 L 349.15 89.507 Q 349.15 89.651 349.006 89.651 Z M 354.223 89.651 Q 354.079 89.651 354.079 89.507 L 354.079 87.068 Q 354.079 86.924 354.223 86.924 L 356.674 86.924 Q 356.806 86.924 356.806 87.068 L 356.806 89.507 Q 356.806 89.651 356.674 89.651 Z M 361.364 81.915 Q 361.22 81.915 361.22 81.771 L 361.22 79.621 Q 361.22 79.477 361.364 79.477 L 362.205 79.477 Q 363.37 79.477 364.043 78.828 Q 364.704 78.204 364.704 77.183 Q 364.704 76.222 364.019 75.537 Q 363.334 74.853 362.349 74.853 Q 361.629 74.853 360.968 75.345 Q 360.307 75.826 360.127 76.798 Q 360.115 76.847 360.073 76.883 Q 360.031 76.919 359.995 76.919 L 357.533 76.919 Q 357.473 76.919 357.43 76.871 Q 357.388 76.822 357.4 76.762 Q 357.521 74.925 358.962 73.507 Q 360.379 72.114 362.253 72.114 Q 363.418 72.114 364.361 72.51 Q 365.304 72.907 366.025 73.675 Q 366.71 74.432 367.076 75.315 Q 367.442 76.198 367.442 77.135 Q 367.442 78.156 367.046 79.129 Q 366.854 79.561 366.517 79.946 Q 366.181 80.33 365.725 80.666 Q 366.686 81.351 367.154 82.312 Q 367.634 83.345 367.634 84.414 Q 367.634 86.852 366.085 88.342 Q 364.559 89.795 362.301 89.795 Q 361.4 89.795 360.602 89.507 Q 359.803 89.219 359.07 88.642 Q 358.349 88.053 357.911 87.225 Q 357.473 86.396 357.304 85.279 Q 357.28 85.123 357.449 85.123 L 359.899 85.123 Q 359.983 85.123 360.031 85.219 Q 360.187 85.639 360.397 85.975 Q 360.608 86.312 360.896 86.558 Q 361.184 86.804 361.563 86.936 Q 361.941 87.068 362.445 87.068 Q 363.394 87.068 364.151 86.384 Q 364.896 85.723 364.896 84.498 Q 364.896 83.273 364.151 82.612 Q 363.394 81.915 362.397 81.915 Z M 370.179 77.471 Q 370.035 77.471 370.035 77.327 L 370.035 72.414 Q 370.035 72.27 370.179 72.27 L 379.908 72.27 Q 380.04 72.27 380.04 72.414 L 380.04 74.877 L 374.251 89.555 Q 374.203 89.651 374.118 89.651 L 371.368 89.651 Q 371.284 89.651 371.248 89.591 Q 371.212 89.531 371.236 89.459 L 376.965 75.009 L 372.761 75.009 L 372.761 77.327 Q 372.761 77.471 372.629 77.471 Z"/>
  </g>
</svg>