<?xml version="1.0" encoding="UTF-8" standalone="no"?>
<svg
   sodipodi:docname="Vietnam_road_sign_I444ิ.svg"
   inkscape:version="1.2.2 (732a01da63, 2022-12-09)"
   id="svg848"
   version="1.1"
   viewBox="0 0 1701.0367 500"
   height="500mm"
   width="1701.0367mm"
   xml:space="preserve"
   xmlns:inkscape="http://www.inkscape.org/namespaces/inkscape"
   xmlns:sodipodi="http://sodipodi.sourceforge.net/DTD/sodipodi-0.dtd"
   xmlns="http://www.w3.org/2000/svg"
   xmlns:svg="http://www.w3.org/2000/svg"
   xmlns:rdf="http://www.w3.org/1999/02/22-rdf-syntax-ns#"
   xmlns:cc="http://creativecommons.org/ns#"
   xmlns:dc="http://purl.org/dc/elements/1.1/"><defs
     id="defs842" /><sodipodi:namedview
     inkscape:document-rotation="0"
     inkscape:measure-end="0,0"
     inkscape:measure-start="0,0"
     showguides="true"
     fit-margin-bottom="0"
     fit-margin-right="0"
     fit-margin-left="0"
     fit-margin-top="0"
     inkscape:window-maximized="1"
     inkscape:window-y="-9"
     inkscape:window-x="-9"
     inkscape:window-height="991"
     inkscape:window-width="1920"
     inkscape:snap-global="false"
     showgrid="false"
     inkscape:current-layer="text2903"
     inkscape:document-units="mm"
     inkscape:cy="1293.9759"
     inkscape:cx="1532.0367"
     inkscape:zoom="0.13021881"
     inkscape:pageshadow="2"
     inkscape:pageopacity="0.0"
     borderopacity="1.0"
     bordercolor="#666666"
     pagecolor="#ffffff"
     id="base"
     inkscape:showpageshadow="2"
     inkscape:pagecheckerboard="0"
     inkscape:deskcolor="#d1d1d1" /><metadata
     id="metadata845"><rdf:RDF><cc:Work
         rdf:about=""><dc:format>image/svg+xml</dc:format><dc:type
           rdf:resource="http://purl.org/dc/dcmitype/StillImage" /></cc:Work></rdf:RDF></metadata><g
     transform="translate(-530.52646,11.947886)"
     id="layer1"
     inkscape:groupmode="layer"
     inkscape:label="Layer 1"><path
       inkscape:connector-curvature="0"
       d=""
       style="opacity:1;fill:#d35f5f;fill-opacity:1;fill-rule:nonzero;stroke:none;stroke-width:3.92256;stroke-linecap:butt;stroke-linejoin:miter;stroke-miterlimit:4;stroke-dasharray:none;stroke-opacity:1;paint-order:stroke fill markers"
       id="path8376"
       r="150"
       cy="147"
       cx="150" /><g
       inkscape:groupmode="layer"
       transform="translate(-4496.0426,2396.6803)"
       id="text3577"
       style="font-style:normal;font-variant:normal;font-weight:bold;font-stretch:normal;font-size:299.854px;line-height:0;font-family:Giaothong1;-inkscape-font-specification:'Giaothong1 Bold';letter-spacing:0px;word-spacing:0px;fill:#ffcc00;fill-opacity:1;stroke:none;stroke-width:1.56174"
       aria-label="VỊNH"><g
         id="text3665"
         style="font-style:normal;font-variant:normal;font-weight:bold;font-stretch:normal;font-size:299.854px;line-height:0;font-family:Giaothong1;-inkscape-font-specification:'Giaothong1 Bold';letter-spacing:-2.78077px;word-spacing:0px;fill:#ffcc00;fill-opacity:1;stroke:none;stroke-width:2.43903"
         aria-label="VỊNH" /></g><g
       inkscape:groupmode="layer"
       id="text2719"
       style="font-style:normal;font-variant:normal;font-weight:bold;font-stretch:normal;font-size:184.173px;line-height:0;font-family:Giaothong1;-inkscape-font-specification:'Giaothong1 Bold';letter-spacing:0px;word-spacing:0.486833px;fill:#ffffff;fill-opacity:1;stroke:none;stroke-width:0.959232"
       aria-label="CÔNG TRƯỜNG"><g
         inkscape:groupmode="layer"
         id="text2888"
         style="font-style:normal;font-variant:normal;font-weight:bold;font-stretch:normal;font-size:187.408px;line-height:0;font-family:Giaothong1;-inkscape-font-specification:'Giaothong1 Bold';letter-spacing:0.00264583px;word-spacing:0px;fill:#ffffff;fill-opacity:1;stroke:none;stroke-width:0.936293"
         aria-label="AHEAD"><g
           inkscape:groupmode="layer"
           id="text2903"
           style="font-style:normal;font-variant:normal;font-weight:bold;font-stretch:normal;font-size:184.173px;line-height:0;font-family:Giaothong1;-inkscape-font-specification:'Giaothong1 Bold';letter-spacing:0.00529167px;word-spacing:0px;fill:#ffffff;fill-opacity:1;stroke:none;stroke-width:0.898123"
           aria-label="WORKS"><path
             d="m 708.33916,-11.947699 1523.22404,-1.87e-4 V 488.05211 H 708.33916 L 530.52646,238.0523 Z"
             style="opacity:1;fill:#0046aa;fill-opacity:1;fill-rule:nonzero;stroke:none;stroke-width:1.27163;stroke-linecap:butt;stroke-linejoin:miter;stroke-miterlimit:10;stroke-dasharray:none;stroke-opacity:1;paint-order:stroke fill markers"
             id="rect1393"
             sodipodi:nodetypes="cccccc" /><path
             id="rect1395"
             style="opacity:1;fill:#ffffff;fill-opacity:1;fill-rule:nonzero;stroke:none;stroke-width:1.22924;stroke-linecap:butt;stroke-linejoin:miter;stroke-miterlimit:10;stroke-dasharray:none;stroke-opacity:1;paint-order:stroke fill markers"
             d="M 710.47731,-3.6148361 540.46021,238.0523 710.47731,479.72219 H 2223.2254 V -3.6148361 Z m 8.3265,8.33846 h 68.59 V 471.38374 h -68.59 L 554.2984,238.0523 Z m 536.58179,0 h 959.5132 V 471.38374 h -959.5132 z"
             sodipodi:nodetypes="ccccccccccccccccc" /><g
             id="g71683"
             transform="translate(-84.093397,-614.59523)" /><g
             id="g75307"
             transform="translate(0,26.501516)"><path
               d="m 1324.8984,198.3509 c -0.5202,0 -0.768,-0.27251 -0.768,-0.79276 v -80.41622 h -24.9473 c -0.5203,0 -0.7928,-0.24772 -0.7928,-0.76799 v -12.63471 c 0,-0.54504 0.2725,-0.79276 0.7928,-0.79276 h 65.6014 c 0.5202,0 0.7927,0.24772 0.7927,0.79276 v 12.63471 c 0,0.52025 -0.2725,0.76799 -0.7927,0.76799 h -24.8731 v 80.41622 c 0,0.52025 -0.2725,0.79276 -0.7927,0.79276 h -14.2203"
               id="path72947"
               style="opacity:1;fill:#ffffff;fill-opacity:1;stroke-width:5.69601" /><path
               d="m 1391.1853,117.14192 v 26.92928 h 20.7606 c 5.0291,0 8.8195,-1.38734 11.396,-4.21157 2.5022,-2.77469 3.7904,-6.06962 3.7904,-9.93435 0,-2.15534 -0.3716,-4.13725 -1.1396,-5.82188 -0.768,-1.7094 -1.8828,-3.09674 -3.3197,-4.21157 -1.2387,-0.84231 -2.7251,-1.53598 -4.4097,-2.03146 -1.6847,-0.44593 -3.5179,-0.71845 -5.4751,-0.71845 h -21.6029 m -14.9882,81.20898 c -0.545,0 -0.7928,-0.27251 -0.7928,-0.79276 v -93.81892 c 0,-0.54504 0.2478,-0.79276 0.7928,-0.79276 h 36.715 c 4.0629,0 7.7295,0.54504 10.9996,1.65985 3.2949,1.11483 6.1192,2.70036 8.5966,4.7566 1.2387,1.16437 2.4526,2.52694 3.617,4.01338 1.1643,1.5112 2.1553,3.12151 3.0967,4.88046 0.8671,1.73418 1.5855,3.617 2.1058,5.57414 0.545,1.95714 0.7928,3.9886 0.7928,6.09439 0,3.07197 -0.4212,6.02007 -1.3131,8.79475 -0.8423,2.74991 -2.081,5.35117 -3.6665,7.75424 -1.6103,2.22966 -3.4683,4.16202 -5.6237,5.87142 -2.1305,1.65986 -4.5584,3.02243 -7.2587,4.03816 3.5179,6.73851 7.0605,13.55134 10.6527,20.38895 3.5675,6.81284 7.1349,13.62566 10.6776,20.38895 0.1239,0.29729 0.1239,0.5698 0,0.81754 -0.1238,0.22297 -0.322,0.37161 -0.6441,0.37161 h -16.8958 c -0.1239,0 -0.2725,-0.0495 -0.3964,-0.17342 -0.1239,-0.0991 -0.223,-0.19819 -0.3221,-0.29728 l -19.1998,-39.61354 h -16.9454 v 39.29148 c 0,0.52025 -0.2725,0.79276 -0.7927,0.79276 h -14.1955"
               id="path72951"
               style="opacity:1;fill:#ffffff;fill-opacity:1;stroke-width:5.69601" /><path
               d="m 1448.7576,198.27658 c -0.2973,0 -0.5202,-0.0991 -0.6441,-0.32206 -0.1486,-0.19819 -0.1734,-0.47071 -0.074,-0.71845 l 34.3119,-93.89323 c 0.049,-0.32205 0.2973,-0.52024 0.6441,-0.52024 h 11.7181 c 0.1486,0 0.2725,0.0247 0.4459,0.14866 0.1239,0.0991 0.223,0.22298 0.2725,0.37158 l 34.2624,93.89323 c 0.05,0.24774 0.05,0.49548 -0.074,0.71845 -0.1239,0.19819 -0.3221,0.32206 -0.5946,0.32206 h -14.9882 c -0.3221,0 -0.5451,-0.17342 -0.6442,-0.52025 l -7.0853,-20.68624 h -34.5597 c -1.2139,3.51789 -2.4278,6.96147 -3.6417,10.38028 -1.1892,3.36926 -2.4031,6.78806 -3.6418,10.30596 -0.025,0.12387 -0.1239,0.22296 -0.2973,0.34683 -0.1238,0.0991 -0.2973,0.17342 -0.4211,0.17342 h -14.9883 m 52.8428,-35.30286 c -0.074,-0.27252 -0.1981,-0.61936 -0.3716,-0.96619 -0.1238,-0.32206 -0.2477,-0.6689 -0.3468,-0.91663 -0.7184,-2.13056 -1.4121,-4.08771 -2.0315,-5.92098 -0.5945,-1.80849 -1.1396,-3.36925 -1.635,-4.75659 -0.2973,-0.84232 -0.5946,-1.7094 -0.8919,-2.55172 -0.2477,-0.81754 -0.545,-1.6103 -0.8175,-2.35353 -0.1982,-0.69367 -0.4212,-1.33779 -0.6442,-2.00668 -0.1982,-0.61935 -0.4459,-1.2387 -0.6689,-1.85805 -0.3963,-1.23869 -0.7927,-2.52694 -1.2139,-3.79041 -0.3964,-1.26347 -0.8175,-2.57649 -1.2635,-3.93906 -0.1982,-0.59457 -0.4211,-1.28824 -0.6936,-2.03146 -0.223,-0.71844 -0.4955,-1.51121 -0.7433,-2.35353 -0.1486,-0.42115 -0.2477,-0.74321 -0.2972,-1.01573 -0.074,-0.22298 -0.1487,-0.47071 -0.2478,-0.71844 -0.05,-0.22299 -0.1486,-0.49551 -0.2725,-0.81754 -0.099,-0.29726 -0.2477,-0.71845 -0.4459,-1.31302 -0.446,1.43689 -0.9167,2.74991 -1.3378,3.9886 -0.3964,1.21393 -0.7928,2.35353 -1.1396,3.41881 -0.074,0.24772 -0.1239,0.47071 -0.1982,0.71844 -0.025,0.19819 -0.099,0.42118 -0.1982,0.64413 -0.1982,0.71844 -0.4212,1.43688 -0.6937,2.10578 -0.2229,0.64412 -0.4459,1.31302 -0.6689,1.95714 -0.1982,0.69367 -0.4459,1.36257 -0.6689,2.03146 -0.1982,0.64413 -0.4211,1.26348 -0.6441,1.9076 -0.4211,1.28824 -0.8918,2.67558 -1.3378,4.11247 -0.4707,1.43689 -0.9662,2.9481 -1.5607,4.50886 -0.5451,1.58553 -1.1396,3.24538 -1.759,5.07866 -0.5946,1.8085 -1.3625,4.0877 -2.3535,6.83761 h 25.1455 m -19.0511,61.16685 c -0.4707,0 -0.7185,-0.22296 -0.7185,-0.71844 v -12.63471 c 0,-0.4707 0.223,-0.71844 0.7185,-0.71844 h 12.6842 c 0.446,0 0.6689,0.22296 0.6689,0.71844 v 12.63471 c 0,0.44593 -0.1982,0.71844 -0.6689,0.71844 h -12.6842"
               id="path72963"
               style="opacity:1;fill:#ffffff;fill-opacity:1;stroke-width:5.69601" /><path
               d="m 1542.1438,198.3509 c -0.5203,0 -0.768,-0.27251 -0.768,-0.79276 v -93.81892 c 0,-0.54504 0.2477,-0.79276 0.768,-0.79276 h 13.4274 c 0.2973,0 0.5203,0.12386 0.7185,0.44591 l 26.2604,59.53178 c 4.2115,-9.9839 8.4726,-19.91824 12.7585,-29.7535 4.2612,-9.83525 8.547,-19.74483 12.8329,-29.77828 0.1487,-0.29725 0.3716,-0.44591 0.7185,-0.44591 h 13.4275 c 0.5202,0 0.7927,0.24772 0.7927,0.79276 v 93.81892 c 0,0.52025 -0.2725,0.79276 -0.7927,0.79276 h -14.1955 c -0.5203,0 -0.7928,-0.27251 -0.7928,-0.79276 v -55.39453 c -3.0472,7.11011 -6.1191,14.17069 -9.2407,21.20649 -3.0719,7.01102 -6.1439,14.09637 -9.1663,21.15694 -0.1487,0.27252 -0.3964,0.39638 -0.7185,0.39638 h -11.8419 c -0.2973,0 -0.5203,-0.12386 -0.7185,-0.39638 l -18.4565,-42.48731 v 55.51841 c 0,0.52025 -0.2725,0.79276 -0.7928,0.79276 h -14.2202"
               id="path72935"
               style="opacity:1;fill:#ffffff;fill-opacity:1;stroke-width:5.69601" /><path
               d="m 1740.2124,170.57931 c 0.2477,0 0.4459,0.0991 0.6441,0.29729 0.1734,0.19819 0.223,0.42116 0.1239,0.69367 -1.8333,8.89385 -5.8715,15.73145 -12.164,20.56237 -3.0472,2.27921 -6.3669,4.03816 -9.9592,5.22731 -3.5674,1.18914 -7.4322,1.75895 -11.5942,1.75895 -7.5313,0 -13.8734,-1.78373 -19.0511,-5.4255 -5.0291,-3.56744 -8.6957,-7.5065 -10.9997,-11.79239 -0.7927,-1.46167 -1.4368,-2.97288 -2.0314,-4.48409 -0.545,-1.51121 -0.9662,-3.07197 -1.313,-4.73182 -0.5451,-3.22061 -0.8423,-10.5537 -0.8423,-21.99926 0,-5.69801 0.074,-10.38028 0.1981,-14.02205 0.1239,-3.59222 0.3221,-6.24303 0.6442,-7.92766 0.2973,-1.63508 0.7184,-3.24539 1.313,-4.78137 0.5698,-1.51121 1.2387,-2.99765 2.0314,-4.50886 2.2545,-4.23634 5.921,-8.15063 10.9997,-11.7924 5.1034,-3.66654 11.4703,-5.49981 19.0511,-5.49981 9.0673,0 16.5738,2.79946 22.5443,8.39837 6.0201,5.62368 9.7362,12.28787 11.1731,20.01734 0.074,0.27252 0.074,0.47072 -0.1239,0.66889 -0.1486,0.14866 -0.3964,0.24773 -0.6441,0.24773 h -15.013 c -0.3716,0 -0.6194,-0.14866 -0.7185,-0.52025 -0.545,-1.73418 -1.3625,-3.36925 -2.403,-4.88047 -1.0653,-1.51121 -2.3288,-2.89855 -3.8648,-4.21156 -2.8985,-2.55172 -6.5155,-3.86474 -10.9501,-3.86474 -3.2701,0 -6.0448,0.64412 -8.3736,1.95714 -2.3039,1.31302 -4.162,2.82423 -5.5741,4.50886 -0.8175,1.06528 -1.536,2.22966 -2.1553,3.56745 -0.5946,1.31301 -1.0653,2.70035 -1.4369,4.11247 -0.3221,1.46167 -0.5946,3.76565 -0.7185,6.86239 -0.1238,3.07197 -0.1981,6.98625 -0.1981,11.66853 0,4.73182 0.074,8.67088 0.1981,11.74285 0.1239,3.07197 0.3469,5.3264 0.7185,6.8376 0.3221,1.3378 0.8175,2.70036 1.4616,4.03816 0.6442,1.31302 1.3626,2.47739 2.1306,3.49312 1.3874,1.83328 3.2454,3.36926 5.5741,4.68228 2.304,1.28824 5.1035,1.93237 8.3736,1.93237 7.5313,0 13.3036,-4.11248 17.2179,-12.3622 0.074,-0.0743 0.1982,-0.17342 0.3469,-0.29729 0.1238,-0.0991 0.2477,-0.17342 0.3716,-0.17342 h 15.013"
               id="path72955"
               style="opacity:1;fill:#ffffff;fill-opacity:1;stroke-width:5.69601" /><path
               d="m 1742.7055,198.27658 c -0.2973,0 -0.5202,-0.0991 -0.6441,-0.32206 -0.1486,-0.19819 -0.1734,-0.47071 -0.074,-0.71845 l 34.3119,-93.89323 c 0.05,-0.32205 0.2973,-0.52024 0.6441,-0.52024 h 11.7181 c 0.1486,0 0.2725,0.0247 0.4459,0.14866 0.1239,0.0991 0.223,0.22298 0.2725,0.37158 l 34.2624,93.89323 c 0.049,0.24774 0.049,0.49548 -0.074,0.71845 -0.1239,0.19819 -0.3221,0.32206 -0.5946,0.32206 h -14.9882 c -0.3221,0 -0.5451,-0.17342 -0.6442,-0.52025 l -7.0853,-20.68624 h -34.5597 c -1.2139,3.51789 -2.4278,6.96147 -3.6417,10.38028 -1.1892,3.36926 -2.4031,6.78806 -3.6418,10.30596 -0.025,0.12387 -0.1239,0.22296 -0.2973,0.34683 -0.1238,0.0991 -0.2973,0.17342 -0.4211,0.17342 h -14.9883 m 52.8428,-35.30286 c -0.074,-0.27252 -0.1981,-0.61936 -0.3716,-0.96619 -0.1238,-0.32206 -0.2477,-0.6689 -0.3468,-0.91663 -0.7184,-2.13056 -1.4121,-4.08771 -2.0315,-5.92098 -0.5945,-1.80849 -1.1396,-3.36925 -1.635,-4.75659 -0.2973,-0.84232 -0.5946,-1.7094 -0.8919,-2.55172 -0.2477,-0.81754 -0.545,-1.6103 -0.8175,-2.35353 -0.1982,-0.69367 -0.4212,-1.33779 -0.6442,-2.00668 -0.1982,-0.61935 -0.4459,-1.2387 -0.6689,-1.85805 -0.3963,-1.23869 -0.7927,-2.52694 -1.2139,-3.79041 -0.3964,-1.26347 -0.8175,-2.57649 -1.2635,-3.93906 -0.1982,-0.59457 -0.4211,-1.28824 -0.6936,-2.03146 -0.223,-0.71844 -0.4955,-1.51121 -0.7433,-2.35353 -0.1486,-0.42115 -0.2477,-0.74321 -0.2972,-1.01573 -0.074,-0.22298 -0.1487,-0.47071 -0.2478,-0.71844 -0.049,-0.22299 -0.1486,-0.49551 -0.2725,-0.81754 -0.099,-0.29726 -0.2477,-0.71845 -0.4459,-1.31302 -0.446,1.43689 -0.9167,2.74991 -1.3378,3.9886 -0.3964,1.21393 -0.7928,2.35353 -1.1396,3.41881 -0.074,0.24772 -0.1239,0.47071 -0.1982,0.71844 -0.025,0.19819 -0.099,0.42118 -0.1982,0.64413 -0.1982,0.71844 -0.4212,1.43688 -0.6937,2.10578 -0.2229,0.64412 -0.4459,1.31302 -0.6689,1.95714 -0.1982,0.69367 -0.4459,1.36257 -0.6689,2.03146 -0.1982,0.64413 -0.4211,1.26348 -0.6441,1.9076 -0.4211,1.28824 -0.8918,2.67558 -1.3378,4.11247 -0.4707,1.43689 -0.9662,2.9481 -1.5607,4.50886 -0.5451,1.58553 -1.1396,3.24538 -1.759,5.07866 -0.5946,1.8085 -1.3625,4.0877 -2.3535,6.83761 h 25.1455 m -36.0708,-68.475174 c -0.3964,0 -0.6441,-0.173394 -0.7432,-0.520245 -0.05,-0.322053 0,-0.619372 0.2725,-0.867083 l 19.2493,-15.235975 h 8.8443 l 19.5219,15.235975 c 0.2725,0.198191 0.4212,0.49551 0.2725,0.867083 -0.099,0.322053 -0.3468,0.520245 -0.7432,0.520245 h -10.9996 l -13.1055,-7.060578 c -1.8828,1.164377 -3.8647,2.353526 -5.8218,3.517903 -1.9572,1.189149 -3.8895,2.353526 -5.8219,3.542675 h -10.9253 m 37.5077,-9.562744 c -0.322,0 -0.545,-0.09913 -0.6936,-0.346851 -0.099,-0.247724 -0.099,-0.495511 0.05,-0.817545 l 13.6752,-19.125482 c 0.1734,-0.272521 0.3964,-0.396383 0.6441,-0.396383 h 14.4185 c 0.322,0 0.5945,0.123862 0.7432,0.445915 0.1486,0.297256 0.099,0.594575 -0.1487,0.86709 l -18.085,19.125482 c -0.025,0.02473 -0.1238,0.07433 -0.2477,0.148659 -0.1486,0.07433 -0.2477,0.09913 -0.3468,0.09913 h -10.0087"
               id="path72943"
               style="opacity:1;fill:#ffffff;fill-opacity:1;stroke-width:5.69601" /><path
               d="m 1850.287,118.00901 v 28.66345 h 20.3642 c 5.0044,0 8.7452,-1.48644 11.1978,-4.50885 2.4774,-2.92333 3.7161,-6.19349 3.7161,-9.81048 0,-5.40073 -1.8828,-9.36456 -5.7475,-11.86672 -2.5022,-1.63509 -5.698,-2.4774 -9.6866,-2.4774 h -19.844 m -14.9882,80.34189 c -0.545,0 -0.7928,-0.27251 -0.7928,-0.79276 v -93.81892 c 0,-0.54504 0.2478,-0.79276 0.7928,-0.79276 h 34.0394 c 3.7409,0 7.3083,0.39638 10.6776,1.18915 3.394,0.76799 7.011,2.65081 10.851,5.62368 1.4864,1.16437 2.849,2.52694 4.1124,4.0877 1.2387,1.53598 2.3536,3.24539 3.3693,5.12821 0.9414,1.90759 1.7094,4.03815 2.2296,6.3669 0.5203,2.2792 0.768,4.78137 0.768,7.38263 0,6.86239 -2.5517,13.40271 -7.7294,19.64574 -5.1282,6.19348 -12.6347,9.315 -22.4452,9.315 h -20.8845 v 35.87267 c 0,0.52025 -0.2725,0.79276 -0.7927,0.79276 h -14.1955"
               id="path72939"
               style="opacity:1;fill:#ffffff;fill-opacity:1;stroke-width:5.69601" /><path
               d="m 2009.1771,170.57931 c 0.2477,0 0.4459,0.0991 0.6441,0.29729 0.1734,0.19819 0.223,0.42116 0.1239,0.69367 -1.8333,8.89385 -5.8715,15.73145 -12.164,20.56237 -3.0472,2.27921 -6.3669,4.03816 -9.9592,5.22731 -3.5674,1.18914 -7.4322,1.75895 -11.5942,1.75895 -7.5313,0 -13.8734,-1.78373 -19.0511,-5.4255 -5.0291,-3.56744 -8.6957,-7.5065 -10.9997,-11.79239 -0.7927,-1.46167 -1.4368,-2.97288 -2.0314,-4.48409 -0.545,-1.51121 -0.9662,-3.07197 -1.313,-4.73182 -0.5451,-3.22061 -0.8423,-10.5537 -0.8423,-21.99926 0,-5.69801 0.074,-10.38028 0.1981,-14.02205 0.1239,-3.59222 0.3221,-6.24303 0.6442,-7.92766 0.2973,-1.63508 0.7184,-3.24539 1.313,-4.78137 0.5698,-1.51121 1.2387,-2.99765 2.0314,-4.50886 2.2545,-4.23634 5.921,-8.15063 10.9997,-11.7924 5.1034,-3.66654 11.4703,-5.49981 19.0511,-5.49981 9.0673,0 16.5738,2.79946 22.5443,8.39837 6.0201,5.62368 9.7362,12.28787 11.1731,20.01734 0.074,0.27252 0.074,0.47072 -0.1239,0.66889 -0.1486,0.14866 -0.3964,0.24773 -0.6441,0.24773 h -15.013 c -0.3716,0 -0.6194,-0.14866 -0.7185,-0.52025 -0.545,-1.73418 -1.3625,-3.36925 -2.403,-4.88047 -1.0653,-1.51121 -2.3288,-2.89855 -3.8648,-4.21156 -2.8985,-2.55172 -6.5155,-3.86474 -10.9501,-3.86474 -3.2701,0 -6.0448,0.64412 -8.3736,1.95714 -2.3039,1.31302 -4.162,2.82423 -5.5741,4.50886 -0.8175,1.06528 -1.536,2.22966 -2.1553,3.56745 -0.5946,1.31301 -1.0653,2.70035 -1.4369,4.11247 -0.3221,1.46167 -0.5946,3.76565 -0.7185,6.86239 -0.1238,3.07197 -0.1981,6.98625 -0.1981,11.66853 0,4.73182 0.074,8.67088 0.1981,11.74285 0.1239,3.07197 0.3469,5.3264 0.7185,6.8376 0.3221,1.3378 0.8175,2.70036 1.4616,4.03816 0.6442,1.31302 1.3626,2.47739 2.1306,3.49312 1.3874,1.83328 3.2454,3.36926 5.5741,4.68228 2.304,1.28824 5.1035,1.93237 8.3736,1.93237 7.5313,0 13.3036,-4.11248 17.2179,-12.3622 0.074,-0.0743 0.1982,-0.17342 0.3469,-0.29729 0.1238,-0.0991 0.2477,-0.17342 0.3716,-0.17342 h 15.013"
               id="path72959"
               style="opacity:1;fill:#ffffff;fill-opacity:1;stroke-width:5.69601" /><path
               d="m 2092.78,90.832003 c 0.2477,0.198191 0.5203,0.445915 0.768,0.718442 2.8986,3.022418 4.3602,6.936704 4.4593,11.792395 0.1734,5.8962 -2.4526,10.67757 -7.9276,14.39366 -2.2545,1.06528 -4.7071,1.80849 -7.3827,2.30397 v 45.75747 c 0,10.00867 -3.3444,18.10975 -10.0334,24.22892 -6.5651,6.04484 -14.5919,9.09204 -24.0803,9.09204 -9.5132,0 -17.5895,-2.99765 -24.2289,-9.09204 -6.6146,-6.09439 -9.9591,-14.17069 -9.9591,-24.22892 v -62.05872 c 0,-0.54504 0.2725,-0.79276 0.7927,-0.79276 h 14.2698 c 0.446,0 0.7185,0.24772 0.7185,0.79276 v 60.49796 c 0,6.26781 1.7342,11.02441 5.2273,14.26979 3.5427,3.27016 7.9276,4.90525 13.1797,4.90525 5.1282,0 9.4884,-1.63509 13.0311,-4.90525 3.5179,-3.27016 5.3016,-8.02675 5.3016,-14.26979 v -60.49796 c 0,-0.54504 0.2478,-0.79276 0.768,-0.79276 h 14.2203 c 0.5202,0 0.7927,0.24772 0.7927,0.79276 v 7.77902 c 3.9639,-1.7094 5.9706,-4.31066 6.0944,-7.92766 -0.049,-2.87378 -0.8918,-4.930012 -2.5765,-6.218257 l 6.5651,-6.54032 m -55.0724,3.666543 c -0.3221,0 -0.5698,-0.09913 -0.6937,-0.371585 -0.099,-0.22299 -0.099,-0.470713 0.025,-0.817539 l 13.6999,-19.100735 c 0.1735,-0.272521 0.3964,-0.396383 0.6442,-0.396383 h 14.4184 c 0.3221,0 0.5946,0.123862 0.7432,0.445915 0.1239,0.297256 0.099,0.594575 -0.1486,0.86709 l -18.085,19.100709 c -0.025,0.04947 -0.1239,0.09913 -0.2725,0.173394 -0.1239,0.07433 -0.223,0.09913 -0.3221,0.09913 h -10.0086"
               id="path72931"
               style="opacity:1;fill:#ffffff;fill-opacity:1;stroke-width:5.69601" /><path
               d="m 2105.5427,103.73922 c 0,-0.54504 0.2726,-0.79276 0.7928,-0.79276 h 14.2698 c 0.4707,0 0.7184,0.24772 0.7184,0.79276 v 60.49796 c 0,6.26781 1.7342,11.02441 5.2521,14.26979 3.5179,3.27016 7.9029,4.90525 13.155,4.90525 5.1282,0 9.4884,-1.63509 13.0311,-4.90525 3.5426,-3.27016 5.3016,-8.02675 5.3016,-14.26979 v -60.49796 c 0,-0.54504 0.2477,-0.79276 0.7928,-0.79276 h 14.1954 c 0.5203,0 0.7928,0.24772 0.7928,0.79276 v 62.05872 c 0,10.00867 -3.3445,18.10975 -10.0335,24.22892 -6.565,6.04484 -14.5918,9.09204 -24.0802,9.09204 -9.4884,0 -17.5895,-2.99765 -24.2289,-9.09204 -6.6147,-6.09439 -9.9592,-14.17069 -9.9592,-24.22892 v -62.05872"
               id="path72923"
               style="opacity:1;fill:#ffffff;fill-opacity:1;stroke-width:5.69601" /><path
               d="m 1543.4229,358.18272 c -0.4459,0 -0.6441,-0.22297 -0.6441,-0.64412 v -78.45907 c 0,-0.44592 0.1982,-0.6689 0.6441,-0.6689 h 50.1672 c 0.4212,0 0.6442,0.22299 0.6442,0.6689 v 11.27214 c 0,0.44591 -0.223,0.6689 -0.6442,0.6689 h -37.6316 v 21.77629 h 31.9832 c 0.4459,0 0.6441,0.22297 0.6441,0.66889 v 10.55371 c 0,0.44592 -0.1982,0.66889 -0.6441,0.66889 h -31.9832 v 32.85025 c 0,0.42115 -0.2229,0.64412 -0.6441,0.64412 h -11.8915"
               id="path72915"
               style="opacity:1;fill:#ffffff;fill-opacity:1;stroke-width:5.69601" /><path
               d="m 1603.2372,358.18272 c -0.446,0 -0.6442,-0.22297 -0.6442,-0.64412 v -55.5184 c 0,-0.44594 0.1982,-0.6689 0.6442,-0.6689 h 11.173 c 0.3716,0 0.5946,0.22296 0.5946,0.6689 v 55.5184 c 0,0.42115 -0.1982,0.64412 -0.5946,0.64412 h -11.173 m 0,-66.741 c -0.446,0 -0.6442,-0.22299 -0.6442,-0.64412 v -11.17305 c 0,-0.44591 0.1982,-0.66889 0.6442,-0.66889 h 11.173 c 0.3716,0 0.5946,0.22299 0.5946,0.66889 v 11.17305 c 0,0.42118 -0.1982,0.64412 -0.5946,0.64412 h -11.173"
               id="path72907"
               style="opacity:1;fill:#ffffff;fill-opacity:1;stroke-width:5.69601" /><path
               d="m 1627.3858,358.18272 c -0.3716,0 -0.5945,-0.22297 -0.5945,-0.64412 v -55.5184 c 0,-0.44594 0.1734,-0.6689 0.5945,-0.6689 h 11.2226 c 0.3964,0 0.5946,0.22296 0.5946,0.6689 v 4.48408 c 3.5179,-3.83996 8.1754,-5.74756 14.0221,-5.74756 4.1868,0 8.2001,1.46167 11.9905,4.38499 0.1487,0.0991 0.223,0.24774 0.2478,0.42116 0,0.17341 -0.025,0.34683 -0.1239,0.49547 l -8.0515,9.63707 c -0.2477,0.34683 -0.545,0.39639 -0.8919,0.12387 -2.3535,-1.75895 -4.707,-2.62604 -7.011,-2.62604 -2.5517,0 -4.93,0.86709 -7.0606,2.62604 -2.081,1.73417 -3.1215,4.53363 -3.1215,8.37359 v 33.34573 c 0,0.42115 -0.1734,0.64412 -0.5946,0.64412 h -11.2226"
               id="path72895"
               style="opacity:1;fill:#ffffff;fill-opacity:1;stroke-width:5.69601" /><path
               d="m 1674.7347,340.17206 c 0.2725,-0.27251 0.545,-0.32206 0.8175,-0.0495 4.7318,4.63273 10.4298,6.96148 17.094,6.96148 2.9729,0 5.4998,-0.5698 7.5561,-1.7094 0.8671,-0.54503 1.5607,-1.21392 2.0562,-2.03146 0.4707,-0.79277 0.7185,-1.68463 0.7185,-2.72514 0,-2.87378 -2.081,-4.48408 -6.2431,-4.83092 l -9.8352,-0.91665 c -2.304,-0.22297 -4.4346,-0.71844 -6.466,-1.48644 -2.0067,-0.76799 -3.7904,-1.83327 -5.376,-3.22061 -3.1215,-2.77468 -4.707,-6.66419 -4.707,-11.66852 0,-5.82188 2.0562,-10.25642 6.1935,-13.30361 4.0629,-2.9481 9.092,-4.43454 15.1121,-4.43454 2.4526,0 4.7566,0.17342 6.8624,0.54503 2.081,0.34684 4.0629,0.86709 5.8714,1.53599 1.8085,0.64411 3.4683,1.46166 5.0291,2.40307 1.536,0.94141 3.0472,2.00668 4.4593,3.17106 0.1486,0.12387 0.223,0.24774 0.223,0.44593 0,0.17342 -0.05,0.32206 -0.1735,0.49548 l -6.8871,8.10108 c -0.2478,0.24774 -0.545,0.29728 -0.8671,0.0991 -2.1553,-1.43688 -4.385,-2.6508 -6.689,-3.56744 -2.3039,-0.94141 -4.9052,-1.41212 -7.8285,-1.41212 -3.3941,0 -5.7228,0.59458 -7.0111,1.75895 -1.2387,1.11483 -1.858,2.55172 -1.858,4.26112 0,1.0405 0.4459,2.03146 1.3626,2.97287 0.8918,0.86709 2.6508,1.41212 5.3759,1.63508 1.536,0.0991 3.0472,0.22297 4.608,0.32207 1.536,0.12387 3.0719,0.22296 4.5831,0.34683 2.849,0.14865 5.376,0.71844 7.5809,1.7094 2.2048,0.96618 3.939,2.25443 5.2273,3.86473 2.5765,3.29494 3.8895,7.15968 3.8895,11.66853 0,5.69801 -2.304,10.05822 -6.9615,13.17974 -2.2792,1.48643 -4.8061,2.62604 -7.5808,3.39403 -2.7252,0.76799 -5.7724,1.16437 -9.1168,1.16437 -9.315,0 -17.6143,-3.34448 -24.8483,-10.08299 -0.3221,-0.32206 -0.3221,-0.64412 0,-0.99096 l 7.8286,-7.6056"
               id="path72919"
               style="opacity:1;fill:#ffffff;fill-opacity:1;stroke-width:5.69601" /><path
               d="m 1727.8285,358.23227 c -0.4211,0 -0.6441,-0.1982 -0.6441,-0.64413 v -46.37682 h -4.93 c -0.4459,0 -0.6689,-0.22296 -0.6689,-0.64412 v -8.547 c 0,-0.44594 0.223,-0.6689 0.6689,-0.6689 h 4.93 v -8.32404 l 11.3217,-12.08969 c 0.223,-0.22299 0.4707,-0.27252 0.7432,-0.17339 0.2725,0.12386 0.4212,0.32205 0.4212,0.61937 v 19.9678 h 7.4322 c 0.4459,0 0.6689,0.22296 0.6689,0.6689 v 8.54695 c 0,0.42116 -0.223,0.64412 -0.6689,0.64412 h -7.4322 v 46.37682 c 0,0.44593 -0.223,0.64413 -0.6689,0.64413 h -11.1731"
               id="path72927"
               style="opacity:1;fill:#ffffff;fill-opacity:1;stroke-width:5.69601" /><path
               d="m 1778.9564,358.13317 c -0.2477,0 -0.4459,-0.0743 -0.5698,-0.27251 -0.099,-0.17342 -0.1239,-0.39639 -0.05,-0.59458 l 28.6882,-78.50861 c 0.074,-0.27253 0.2477,-0.44592 0.545,-0.44592 h 9.8105 c 0.099,0 0.223,0.0247 0.3468,0.12386 0.1239,0.0991 0.1982,0.19819 0.2478,0.32206 l 28.6386,78.50861 c 0.05,0.19819 0.05,0.39638 -0.049,0.59458 -0.124,0.17341 -0.2726,0.27251 -0.4956,0.27251 h -12.5356 c -0.2725,0 -0.4707,-0.14864 -0.545,-0.44593 l -5.921,-17.29221 h -28.9112 c -1.0157,2.9481 -2.0067,5.82188 -3.0224,8.67087 -0.991,2.82424 -2.0067,5.69801 -3.0472,8.62134 -0.025,0.12387 -0.099,0.19819 -0.2477,0.29729 -0.099,0.0991 -0.2478,0.14864 -0.3469,0.14864 h -12.5356 m 44.1719,-29.50576 c -0.05,-0.24774 -0.1734,-0.52026 -0.2972,-0.81754 -0.1239,-0.27252 -0.223,-0.54503 -0.2973,-0.768 -0.6194,-1.78372 -1.1892,-3.4188 -1.7094,-4.95478 -0.4955,-1.51121 -0.9414,-2.82423 -1.3626,-3.96384 -0.2477,-0.71844 -0.4955,-1.43688 -0.7432,-2.15533 -0.223,-0.66889 -0.4707,-1.33779 -0.6937,-1.95714 -0.1486,-0.5698 -0.3468,-1.11483 -0.545,-1.68462 -0.1487,-0.52026 -0.3468,-1.04051 -0.545,-1.56076 -0.3221,-1.04051 -0.6442,-2.10579 -1.0158,-3.17107 -0.322,-1.04051 -0.6689,-2.13056 -1.0652,-3.27016 -0.1487,-0.49548 -0.3469,-1.06528 -0.5699,-1.7094 -0.1981,-0.59457 -0.3963,-1.26347 -0.6193,-1.95714 -0.1239,-0.37161 -0.1982,-0.64413 -0.2477,-0.86709 -0.05,-0.17342 -0.1239,-0.37161 -0.1982,-0.59458 -0.05,-0.19819 -0.1487,-0.42115 -0.2478,-0.69367 -0.074,-0.24773 -0.1982,-0.59457 -0.3468,-1.09005 -0.3964,1.21392 -0.768,2.30398 -1.1396,3.34448 -0.3221,1.01573 -0.6441,1.98192 -0.9414,2.84901 -0.05,0.22296 -0.1239,0.39638 -0.1734,0.59457 -0.025,0.17342 -0.074,0.37161 -0.1735,0.54503 -0.1486,0.61934 -0.3468,1.21392 -0.5698,1.75895 -0.1734,0.54502 -0.3716,1.09005 -0.5698,1.63508 -0.1734,0.59457 -0.3468,1.16437 -0.545,1.7094 -0.1734,0.54503 -0.3468,1.06528 -0.545,1.58553 -0.3716,1.09006 -0.7432,2.25443 -1.1148,3.44358 -0.3964,1.21393 -0.7928,2.47739 -1.2883,3.79041 -0.4707,1.31302 -0.9662,2.70036 -1.4864,4.23634 -0.4955,1.51122 -1.1396,3.41881 -1.9819,5.72279 h 21.033"
               id="path72899"
               style="opacity:1;fill:#ffffff;fill-opacity:1;stroke-width:5.69601" /><path
               d="m 1855.5573,358.18272 c -0.446,0 -0.6442,-0.22297 -0.6442,-0.64412 v -55.5184 c 0,-0.44594 0.1982,-0.6689 0.6442,-0.6689 h 11.173 c 0.3716,0 0.5946,0.22296 0.5946,0.6689 v 55.5184 c 0,0.42115 -0.1982,0.64412 -0.5946,0.64412 h -11.173 m 0,-66.741 c -0.446,0 -0.6442,-0.22299 -0.6442,-0.64412 v -11.17305 c 0,-0.44591 0.1982,-0.66889 0.6442,-0.66889 h 11.173 c 0.3716,0 0.5946,0.22299 0.5946,0.66889 v 11.17305 c 0,0.42118 -0.1982,0.64412 -0.5946,0.64412 h -11.173"
               id="path72911"
               style="opacity:1;fill:#ffffff;fill-opacity:1;stroke-width:5.69601" /><path
               d="m 1915.0831,358.18272 c -0.4459,0 -0.6689,-0.22297 -0.6689,-0.64412 v -4.16203 c -3.8399,3.64177 -8.3736,5.47504 -13.6752,5.47504 -3.5427,0 -6.5899,-0.69367 -9.1168,-2.08101 -2.5269,-1.36257 -4.6327,-3.17106 -6.2678,-5.37594 h 0.05 c -1.6846,-2.03147 -2.7994,-4.43454 -3.3444,-7.23399 -0.5451,-2.72514 -0.8176,-7.53128 -0.8176,-14.44321 0,-6.78806 0.2725,-11.51988 0.8176,-14.24502 0.2725,-1.31302 0.7184,-2.55171 1.2634,-3.81518 0.5451,-1.2387 1.2387,-2.3783 2.081,-3.44358 h -0.05 c 1.6351,-2.15534 3.7161,-3.91428 6.2678,-5.35117 2.5022,-1.38734 5.5494,-2.10579 9.1168,-2.10579 2.7252,0 5.2026,0.52026 7.4074,1.58554 2.1801,1.0405 4.3107,2.42784 6.2679,4.16202 v -26.87973 c 0,-0.44591 0.2229,-0.66889 0.6688,-0.66889 h 11.1731 c 0.4211,0 0.6441,0.22299 0.6441,0.66889 v 77.91405 c 0,0.42115 -0.223,0.64412 -0.6441,0.64412 h -11.1731 m -10.9005,-44.98948 c -4.9796,0 -8.002,1.63508 -8.9929,4.93001 h 0.074 c -0.4955,1.78373 -0.8919,3.69132 -1.1644,5.59892 -0.2477,1.90759 -0.3716,3.91428 -0.3716,5.99529 0,2.10578 0.099,4.16202 0.3716,6.14394 0.2477,1.95714 0.6441,3.81519 1.1644,5.62368 h -0.074 c 0.9909,3.29493 3.9886,4.93002 8.9929,4.93002 4.8309,0 7.7047,-1.68463 8.6461,-5.15298 1.0405,-3.76564 1.5855,-7.63038 1.5855,-11.54466 0,-3.76564 -0.5202,-7.58082 -1.5855,-11.39601 -0.9414,-3.4188 -3.84,-5.12821 -8.6461,-5.12821"
               id="path72903"
               style="opacity:1;fill:#ffffff;fill-opacity:1;stroke-width:5.69601" /></g><path
             id="path72555"
             style="opacity:1;fill:#0046aa;fill-opacity:1;stroke-width:4.19022"
             d="M 1067.9185 216.20098 L 1067.9185 216.29813 L 1067.9185 216.30381 L 934.05015 216.30381 C 924.35424 216.30381 916.59747 224.12523 916.59747 233.7565 C 916.59747 243.38776 924.35424 251.20918 934.05015 251.20918 L 1003.8929 251.20918 C 1007.1249 251.20918 1009.7106 253.79494 1009.7106 257.02691 C 1009.7106 260.25888 1006.4785 262.84464 1003.8929 262.84464 L 846.7547 262.84464 C 837.05879 262.84464 829.30202 270.66605 829.30202 280.29732 C 829.30202 289.9286 837.05879 297.75001 846.7547 297.75001 L 964.01059 297.75001 C 967.24256 297.75001 969.82781 300.33526 969.82781 303.56722 C 969.82781 306.7992 966.59617 309.38495 964.01059 309.38495 L 835.11924 309.38495 C 825.42333 309.38495 817.66656 317.20638 817.66656 326.83764 C 817.66656 336.46891 825.42333 344.29032 835.11924 344.29032 L 964.01059 344.29032 C 967.24256 344.29032 969.82781 346.87556 969.82781 350.10753 C 969.82781 353.3395 966.59617 355.92527 964.01059 355.92527 L 846.7547 355.92527 C 837.05879 355.92527 829.30202 363.74668 829.30202 373.37795 C 829.30202 383.00922 837.05879 390.83063 846.7547 390.83063 L 964.01059 390.83063 C 967.24256 390.83063 969.82781 393.4164 969.82781 396.64836 C 969.82781 399.88033 966.59617 402.46558 964.01059 402.46558 L 875.84233 402.46558 C 866.14642 402.46558 858.38965 410.28699 858.38965 419.91826 C 858.38965 429.54953 866.14642 437.37094 875.84233 437.37094 L 1067.9185 437.37094 L 1067.9185 437.36474 C 1103.4377 437.36474 1135.0143 420.59078 1155.2465 394.56374 L 1237.597 394.56374 L 1237.597 259.00198 L 1155.2465 259.00198 C 1134.885 232.98464 1103.4377 216.20098 1067.9185 216.20098 z M 1118.7252 236.07108 L 1118.7252 236.17444 C 1121.9571 236.0484 1123.896 236.82115 1126.8048 238.76033 C 1136.1775 245.51514 1144.2578 254.01502 1150.7217 263.80789 L 1187.3396 263.80789 L 1187.3396 389.77436 L 1150.7217 389.77436 C 1134.2386 415.14532 1105.7646 431.90616 1073.1864 431.90616 L 986.98955 431.90616 C 979.23282 429.96697 973.09221 421.88723 973.09221 413.35484 L 973.09221 320.36103 C 973.09221 311.82863 978.90962 304.16901 986.98955 302.22984 L 1055.6691 284.68 C 1055.6691 284.68 1076.6769 267.93846 1088.0211 260.60189 C 1098.0403 254.04099 1107.4133 236.58819 1118.7252 236.07108 z " /><path
             id="rect72739"
             style="opacity:1;fill:#f00a0a;fill-rule:evenodd;stroke-width:359.554;stroke-linecap:round;stroke-linejoin:round;paint-order:stroke fill markers;fill-opacity:1"
             d="M 1002.18,29.296133 V 78.060134 H 953.40958 V 128.95077 H 1002.18 v 48.75754 h 50.9036 v -48.75754 h 48.7382 V 78.060134 h -48.7382 V 29.296133 Z" /></g></g></g></g></svg>
