<?xml version="1.0" encoding="utf-8"?>
<!-- Generator: Adobe Illustrator 18.1.1, SVG Export Plug-In . SVG Version: 6.00 Build 0)  -->
<svg version="1.1" id="Layer_1" xmlns="http://www.w3.org/2000/svg" xmlns:xlink="http://www.w3.org/1999/xlink" x="0px" y="0px"
	 viewBox="0 0 122 57" enable-background="new 0 0 122 57" xml:space="preserve">
<path fill="#FFFFFF" stroke="#000000" stroke-width="2" stroke-miterlimit="10" d="M119,56H3c-1.1,0-2-0.9-2-2V3c0-1.1,0.9-2,2-2
	h116c1.1,0,2,0.9,2,2v51C121,55.1,120.1,56,119,56z"/>
<g>
	<path d="M36.1,46.1c-0.2,0-0.3-0.1-0.3-0.3V31.4H23v14.4c0,0.2-0.1,0.3-0.3,0.3h-5.1c-0.2,0-0.3-0.1-0.3-0.3V12.2
		c0-0.2,0.1-0.3,0.3-0.3h5.1c0.2,0,0.3,0.1,0.3,0.3v14.1h12.8V12.2c0-0.2,0.1-0.3,0.3-0.3h5.1c0.2,0,0.3,0.1,0.3,0.3v33.6
		c0,0.2-0.1,0.3-0.3,0.3H36.1z"/>
	<path d="M71.4,36.2c0.1,0,0.2,0,0.2,0.1s0.1,0.2,0,0.2c-0.7,3.2-2.1,5.6-4.4,7.4c-1.1,0.8-2.3,1.5-3.6,1.9
		c-1.3,0.4-2.7,0.6-4.1,0.6c-2.7,0-5-0.6-6.8-1.9c-1.8-1.3-3.1-2.7-3.9-4.2c-0.3-0.5-0.5-1.1-0.7-1.6s-0.4-1.1-0.5-1.7
		c-0.2-1.2-0.3-3.8-0.3-7.9c0-2,0-3.7,0.1-5s0.1-2.2,0.2-2.8s0.3-1.2,0.5-1.7s0.4-1.1,0.7-1.6c0.8-1.5,2.1-2.9,3.9-4.2
		c1.8-1.3,4.1-2,6.8-2c3.3,0,5.9,1,8.1,3c2.2,2,3.5,4.4,4,7.2c0,0.1,0,0.2,0,0.2s-0.1,0.1-0.2,0.1H66c-0.1,0-0.2-0.1-0.3-0.2
		c-0.2-0.6-0.5-1.2-0.9-1.7s-0.8-1-1.4-1.5c-1-0.9-2.3-1.4-3.9-1.4c-1.2,0-2.2,0.2-3,0.7s-1.5,1-2,1.6c-0.3,0.4-0.6,0.8-0.8,1.3
		s-0.4,1-0.5,1.5c-0.1,0.5-0.2,1.4-0.3,2.5S53,27.4,53,29c0,1.7,0,3.1,0.1,4.2s0.1,1.9,0.3,2.4c0.1,0.5,0.3,1,0.5,1.4
		s0.5,0.9,0.8,1.3c0.5,0.7,1.2,1.2,2,1.7s1.8,0.7,3,0.7c2.7,0,4.8-1.5,6.2-4.4c0,0,0.1-0.1,0.1-0.1s0.1-0.1,0.1-0.1H71.4z"/>
	<path d="M75.4,46.1c-0.2,0-0.3-0.1-0.3-0.3V12.2c0-0.2,0.1-0.3,0.3-0.3h4.8c0.1,0,0.2,0.1,0.3,0.2l9.4,21.3c1.5-3.6,3-7.1,4.6-10.7
		s3.1-7.1,4.6-10.7c0-0.1,0.1-0.2,0.3-0.2h4.8c0.2,0,0.3,0.1,0.3,0.3v33.6c0,0.2-0.1,0.3-0.3,0.3H99c-0.2,0-0.3-0.1-0.3-0.3V26
		c-1.1,2.5-2.2,5.1-3.3,7.6s-2.2,5-3.3,7.6c-0.1,0.1-0.1,0.1-0.3,0.1h-4.2c-0.1,0-0.2,0-0.3-0.1l-6.6-15.2v19.9
		c0,0.2-0.1,0.3-0.3,0.3H75.4z"/>
</g>
</svg>
