<?xml version="1.0" encoding="utf-8"?>
<svg viewBox="0 0 323.14914 200" xmlns="http://www.w3.org/2000/svg">
  <g id="layer1" transform="matrix(0.9999999999999999, 0, 0, 0.9999999999999999, -303.4596862792969, -22.960700988769517)">
    <path id="rect15575" style="opacity:1;fill:#0a9646;fill-opacity:1;fill-rule:evenodd;stroke-width:0.0420687;stroke-linecap:square;stroke-miterlimit:10;paint-order:stroke fill markers" d="M 303.45966,22.960701 H 626.6088 V 222.9607 H 303.45966 Z"/>
    <path transform="matrix(0.26458333,0,0,0.26458333,303.45966,22.960701)" d="m 30.353516,5.0117188 c -13.808655,0 -25.0781254,11.2674112 -25.0781254,25.0761722 v 332.957029 47.1211 49.04296 13.88672 252.45508 c 0,13.80862 11.2694704,25.06641 25.0781254,25.06641 H 1190.9805 c 13.8086,0 25.0781,-11.25779 25.0781,-25.06641 V 473.0957 459.57031 401.94727 363.04492 30.087891 c 0,-13.808761 -11.2695,-25.0761722 -25.0781,-25.0761722 z m 0,9.4511722 H 1190.9805 c 8.7398,0 15.6425,6.885058 15.6425,15.625 v 332.957029 38.90235 c 0,0.29959 -0.013,0.61475 -0.037,0.9375 v 7.20703 c 0,8.68754 -6.9941,15.68164 -15.6816,15.68164 h -8.0762 c -0.1869,0.007 -0.3766,0.0176 -0.5586,0.0176 H 38.023438 c -0.18105,0 -0.371847,-0.0102 -0.560547,-0.0176 h -7.097657 c -8.687546,0 -15.68164,-6.9941 -15.68164,-15.68164 V 30.152344 c 0,-1.658433 0.257595,-3.253829 0.730468,-4.751953 0.01365,-0.04461 0.03284,-0.08643 0.04688,-0.13086 1.99686,-6.321925 7.84094,-10.80664 14.892578,-10.80664 z M 30.28125,435.30469 h 6.958984 1145.628866 8.1172 c 8.6414,0 15.5996,6.95633 15.5996,15.59765 v 7.5918 c 0.024,0.37296 0.037,0.7339 0.037,1.07617 v 13.52539 252.45508 c 0,5.47634 -2.7106,10.22208 -6.8847,13.00391 -2.4923,1.6862 -5.5034,2.66992 -8.752,2.66992 H 30.28125 c -8.641361,0 -15.597656,-6.9563 -15.597656,-15.59766 V 450.90234 c 0,-8.64132 6.956295,-15.59765 15.597656,-15.59765 z" style="color:#000000;font-style:normal;font-variant:normal;font-weight:normal;font-stretch:normal;font-size:medium;line-height:normal;font-family:sans-serif;font-variant-ligatures:normal;font-variant-position:normal;font-variant-caps:normal;font-variant-numeric:normal;font-variant-alternates:normal;font-variant-east-asian:normal;font-feature-settings:normal;font-variation-settings:normal;text-indent:0;text-align:start;text-decoration:none;text-decoration-line:none;text-decoration-style:solid;text-decoration-color:#000000;letter-spacing:normal;word-spacing:normal;text-transform:none;writing-mode:lr-tb;direction:ltr;text-orientation:mixed;dominant-baseline:auto;baseline-shift:baseline;text-anchor:start;white-space:normal;shape-padding:0;shape-margin:0;inline-size:0;clip-rule:nonzero;display:inline;overflow:visible;visibility:visible;opacity:1;isolation:auto;mix-blend-mode:normal;color-interpolation:sRGB;color-interpolation-filters:linearRGB;solid-color:#000000;solid-opacity:1;vector-effect:none;fill:#ffffff;fill-opacity:1;fill-rule:evenodd;stroke:none;stroke-width:2.09199;stroke-linecap:square;stroke-linejoin:miter;stroke-miterlimit:10;stroke-dasharray:none;stroke-dashoffset:0;stroke-opacity:1;paint-order:stroke fill markers;color-rendering:auto;image-rendering:auto;shape-rendering:auto;text-rendering:auto;enable-background:accumulate;stop-color:#000000;stop-opacity:1" id="path15582"/>
    <path d="m 324.12038,67.193614 h 60.89334 v 27.821331 h -60.89334 z" style="opacity:1;fill:#ffd70f;fill-opacity:1;fill-rule:evenodd;stroke:none;stroke-width:0.553508;stroke-linecap:square;stroke-miterlimit:10;stroke-dasharray:none;stroke-opacity:1;paint-order:stroke fill markers" id="rect15605"/>
    <path id="path15631" d="m 326.18273,67.759747 c -0.81115,0 -1.47443,0.660164 -1.47443,1.471307 v 23.746432 c 0,0.811142 0.66328,1.471323 1.47443,1.471323 h 56.7905 c 0.81117,0 1.4744,-0.660181 1.4744,-1.471323 V 69.231054 c 0,-0.811143 -0.66328,-1.471307 -1.4744,-1.471307 z m 0,0.535017 h 56.7905 c 0.52266,0 0.93627,0.413622 0.93627,0.93629 v 23.746432 c 0,0.522654 -0.41353,0.933189 -0.93627,0.933189 h -56.7905 c -0.52266,0 -0.93628,-0.410555 -0.93628,-0.933189 V 69.231054 c 0,-0.522672 0.41354,-0.93629 0.93628,-0.93629 z" style="color:#000000;font-style:normal;font-variant:normal;font-weight:normal;font-stretch:normal;font-size:medium;line-height:normal;font-family:sans-serif;font-variant-ligatures:normal;font-variant-position:normal;font-variant-caps:normal;font-variant-numeric:normal;font-variant-alternates:normal;font-variant-east-asian:normal;font-feature-settings:normal;font-variation-settings:normal;text-indent:0;text-align:start;text-decoration:none;text-decoration-line:none;text-decoration-style:solid;text-decoration-color:#000000;letter-spacing:normal;word-spacing:normal;text-transform:none;writing-mode:lr-tb;direction:ltr;text-orientation:mixed;dominant-baseline:auto;baseline-shift:baseline;text-anchor:start;white-space:normal;shape-padding:0;shape-margin:0;inline-size:0;clip-rule:nonzero;display:inline;overflow:visible;visibility:visible;opacity:1;isolation:auto;mix-blend-mode:normal;color-interpolation:sRGB;color-interpolation-filters:linearRGB;solid-color:#000000;solid-opacity:1;vector-effect:none;fill:#000000;fill-opacity:1;fill-rule:evenodd;stroke:none;stroke-width:0.119062;stroke-linecap:square;stroke-linejoin:miter;stroke-miterlimit:10;stroke-dasharray:none;stroke-dashoffset:0;stroke-opacity:1;paint-order:stroke fill markers;color-rendering:auto;image-rendering:auto;shape-rendering:auto;text-rendering:auto;enable-background:accumulate;stop-color:#000000;stop-opacity:1"/>
    <path d="m 336.88947,72.205604 c -1.36961,0 -2.51552,0.330332 -3.43646,0.991507 -0.91309,0.653335 -1.5737,1.361798 -1.98303,2.125328 -0.14189,0.267612 -0.264,0.538688 -0.36613,0.814199 -0.10264,0.275473 -0.18065,0.564078 -0.23555,0.86321 -0.0552,0.299089 -0.0954,0.774434 -0.11873,1.427765 -0.0223,0.653332 -0.0362,1.495435 -0.0362,2.5266 0,2.062321 0.0516,3.383536 0.15387,3.966025 0.0552,0.299136 0.13326,0.587702 0.23556,0.863193 0.10264,0.267612 0.22467,0.534915 0.36612,0.802543 0.40948,0.771411 1.06995,1.479875 1.983,2.125324 0.92887,0.653346 2.07472,0.979855 3.43649,0.979855 0.74779,0 1.44489,-0.107189 2.09034,-0.319632 0.64544,-0.212556 1.24303,-0.525333 1.79403,-0.942508 1.1335,-0.865864 1.86473,-2.103628 2.19533,-3.709419 0.0139,-0.04714 0.009,-0.08518 -0.0223,-0.116745 -0.0315,-0.03928 -0.0694,-0.05829 -0.11656,-0.05829 h -2.70394 c -0.0223,1.5e-5 -0.0488,0.01117 -0.0722,0.03521 -0.0223,0.01589 -0.0451,0.0307 -0.0582,0.0467 -0.70836,1.487712 -1.74338,2.232636 -3.10515,2.232636 -0.59037,0 -1.09454,-0.11468 -1.51174,-0.342928 -0.41713,-0.236167 -0.75132,-0.520933 -1.00317,-0.851551 -0.14189,-0.181028 -0.27124,-0.389065 -0.3896,-0.625222 -0.11008,-0.244 -0.19597,-0.488524 -0.25924,-0.732545 -0.0628,-0.267611 -0.10709,-0.67614 -0.13048,-1.227141 -0.0223,-0.558871 -0.0359,-1.267326 -0.0359,-2.125325 0,-0.842249 0.009,-1.543133 0.0359,-2.102004 0.0223,-0.55887 0.0677,-0.97117 0.13048,-1.238798 0.0627,-0.251917 0.14857,-0.496392 0.25924,-0.732549 0.11009,-0.244 0.24028,-0.45965 0.3896,-0.64857 0.252,-0.30699 0.58598,-0.580386 1.00317,-0.816526 0.41715,-0.236167 0.92137,-0.352269 1.51174,-0.352269 0.79503,1.7e-5 1.45185,0.230844 1.97135,0.695231 0.27541,0.236167 0.50863,0.492045 0.69757,0.767539 0.18872,0.267667 0.33407,0.560022 0.4361,0.874867 0.0167,0.06294 0.0599,0.09333 0.13046,0.09333 h 2.7039 c 0.0468,0 0.0854,-0.01589 0.11658,-0.0467 0.0315,-0.03161 0.0407,-0.07184 0.0223,-0.118954 -0.25952,-1.393235 -0.93175,-2.595995 -2.01801,-3.611427 -1.07052,-1.007535 -2.42438,-1.511744 -4.0617,-1.511744 z m 27.73422,0.104956 c -1.28304,0 -2.4213,0.437369 -3.41313,1.311121 -0.99967,0.858 -1.50005,2.08205 -1.50005,3.672071 v 7.425818 c 0,1.590021 0.50038,2.814088 1.50005,3.672088 0.99183,0.865851 2.13009,1.299446 3.41313,1.299446 1.28303,0 2.42133,-0.433578 3.41313,-1.299446 1.00756,-0.86587 1.50938,-2.089917 1.50938,-3.672088 v -7.425818 c 0,-0.787127 -0.1299,-1.484222 -0.38959,-2.09033 -0.252,-0.613979 -0.62389,-1.140934 -1.11979,-1.581741 -0.49592,-0.425045 -1.03279,-0.74779 -1.6074,-0.968177 -0.56674,-0.22825 -1.16816,-0.342924 -1.80573,-0.342924 z m -21.12261,0.03521 c -0.0943,0 -0.14217,0.04776 -0.14217,0.142392 v 2.279298 c 0,0.09444 0.0479,0.142197 0.14217,0.142197 h 4.49793 V 89.409 c 0,0.09444 0.0479,0.139995 0.14217,0.139995 h 2.5616 c 0.0945,0 0.14217,-0.04555 0.14217,-0.139995 V 74.909653 h 4.48625 c 0.0943,0 0.14217,-0.04778 0.14217,-0.142196 v -2.279299 c 0,-0.09444 -0.0479,-0.142392 -0.14217,-0.142392 z m 31.22667,0.118953 -2.43331,1.759064 c -0.0139,0.01589 -0.0315,0.03477 -0.0466,0.05829 -0.009,0.02341 -0.0139,0.04468 -0.0139,0.06068 v 2.561593 c 0,0.06294 0.0278,0.110694 0.0728,0.142196 0.0468,0.02343 0.0989,0.01617 0.15388,-0.02343 0.36208,-0.259778 0.7228,-0.523245 1.08486,-0.790886 0.36206,-0.275473 0.72509,-0.548889 1.08714,-0.816528 v 14.028096 c 0,0.09444 0.048,0.142198 0.14217,0.142198 h 2.41929 c 0.0943,0 0.13994,-0.04778 0.13994,-0.142198 V 72.606811 c 0,-0.09444 -0.0455,-0.142197 -0.13994,-0.142197 z m -10.10406,2.538257 c 0.67694,0 1.21532,0.217964 1.61673,0.650912 0.40948,0.425045 0.61359,1.018854 0.61359,1.782378 v 7.143522 c 0,0.771407 -0.20461,1.368982 -0.61359,1.794059 -0.40133,0.425045 -0.93979,0.63689 -1.61673,0.63689 -0.67695,0 -1.21527,-0.211859 -1.61671,-0.63689 -0.40134,-0.425091 -0.60428,-1.022652 -0.60428,-1.794059 v -7.143497 c 0,-0.763524 0.20266,-1.357335 0.60428,-1.782377 0.40133,-0.432946 0.93976,-0.650913 1.61671,-0.650913 z m -9.98507,11.865445 c -0.0945,0 -0.14217,0.04776 -0.14217,0.14239 v 2.398281 c 0,0.09444 0.0479,0.139994 0.14217,0.139994 h 2.40762 c 0.0867,0 0.13046,-0.04555 0.13046,-0.139994 v -2.398281 c 0,-0.09444 -0.0451,-0.14239 -0.13046,-0.14239 z" style="font-style: normal; font-variant: normal; font-weight: normal; font-stretch: normal; font-size: 15.1831px; line-height: 1.46; font-family: 'Alte DIN 1451 Mittelschrift gepraegt'; text-align: center; text-anchor: middle; opacity: 1; fill-opacity: 1; stroke-width: 0.264584; visibility: hidden;" id="path15637"/>
    <path id="path17496" style="font-size:15.1831px;line-height:1.46;font-family:'Singapore Road Signs';-inkscape-font-specification:'Singapore Road Signs';text-align:center;text-anchor:middle;opacity:1;fill:#ffffff;fill-opacity:1;stroke-width:0.0756548" d="m 570.47468,59.120043 v 50.614317 h 35.43541 V 59.120043 Z m 1.38203,1.660034 h 32.65274 v 47.566083 h -32.65274 z m 13.66823,3.646909 -2.23483,8.869719 h 3.92184 l 0.28216,-8.869719 z m 3.35329,0 0.28216,8.869719 h 3.92385 l -2.23686,-8.869719 z m -15.90932,9.992316 v 1.942234 l 3.06692,1.10806 v 0.584703 h 1.411 v -0.584703 c 0,0 2.08662,-0.313671 4.52568,-0.535349 1.95306,-0.177516 4.1317,-0.271988 5.64407,-0.278037 1.79866,-0.0063 4.45804,0.09363 6.73975,0.288436 2.51319,0.214479 4.5713,0.524984 4.5713,0.524984 v 0.5847 h 1.38199 v -0.5847 l 3.06685,-1.108064 v -1.942233 z m 9.21108,3.620663 -6.70448,26.681115 h 10.04943 l 1.39442,-26.681115 z m 7.25642,0 1.39441,26.681115 h 10.0494 l -6.70443,-26.681115 z"/>
    <g style="font-size:14.7905px;line-height:0;font-family:'Singapore Road Signs';-inkscape-font-specification:'Singapore Road Signs';text-align:center;text-anchor:middle;opacity:1;fill:#860000;fill-opacity:1;stroke-width:6.45213" id="layer1-8" transform="matrix(0.08718024,0,0,0.08718024,-145.22047,195.49013)">
      <circle style="opacity:1;fill:#f00a0a;fill-opacity:1;fill-rule:nonzero;stroke:none;stroke-width:3622.55;stroke-linecap:round;stroke-linejoin:round;stroke-miterlimit:4;stroke-dasharray:none;stroke-opacity:1;paint-order:stroke fill markers" id="path815" cx="6380.9966" cy="-193.29752" r="350"/>
      <circle cy="-193.29752" cx="6380.9966" id="circle817" style="opacity:1;fill:#ffffff;fill-opacity:1;fill-rule:nonzero;stroke:none;stroke-width:2587.55;stroke-linecap:round;stroke-linejoin:round;stroke-miterlimit:4;stroke-dasharray:none;stroke-opacity:1;paint-order:stroke fill markers" r="263.821"/>
      <g aria-label="20 " style="font-style:normal;font-variant:normal;font-weight:bold;font-stretch:normal;font-size:414.864px;line-height:0;font-family:Giaothong1;-inkscape-font-specification:'Giaothong1 Bold';letter-spacing:0px;word-spacing:0px;fill:#000000;fill-opacity:1;stroke:none;stroke-width:24.7849" id="text874" transform="matrix(-1,0,0,1,1299.029,-383.45)">
        <g aria-label="90" transform="translate(2310.2259,387.54849)" style="font-style:normal;font-variant:normal;font-weight:bold;font-stretch:normal;font-size:414.864px;line-height:0;font-family:Giaothong1;-inkscape-font-specification:'Giaothong1 Bold';letter-spacing:0px;word-spacing:0px;fill:#000000;fill-opacity:1;stroke:none;stroke-width:53.5539" id="text844"/>
      </g>
    </g>
    <g style="font-size:14.7905px;line-height:0;font-family:'Singapore Road Signs';-inkscape-font-specification:'Singapore Road Signs';text-align:center;text-anchor:middle;opacity:1;fill:#fff000;fill-opacity:1;stroke-width:6.45221" id="layer1-7" transform="matrix(0.08717968,0,0,0.08717968,488.77841,183.34565)">
      <circle cy="-54" cx="351" id="circle817-6" style="opacity:1;fill:#0046aa;fill-opacity:1;fill-rule:nonzero;stroke:none;stroke-width:3622.58;stroke-linecap:round;stroke-linejoin:round;stroke-miterlimit:4;stroke-dasharray:none;stroke-opacity:1;paint-order:stroke fill markers" r="350"/>
      <path id="rect984" style="font-style: normal; font-variant: normal; font-weight: bold; font-stretch: normal; font-size: 414.864px; line-height: 0; font-family: Giaothong1; letter-spacing: 0px; word-spacing: 0px; opacity: 1; fill: rgb(255, 255, 255); fill-opacity: 1; fill-rule: nonzero; stroke: none; stroke-width: 0.344279; stroke-linecap: round; stroke-linejoin: miter; stroke-miterlimit: 10; stroke-dasharray: none; stroke-opacity: 1; paint-order: stroke; visibility: hidden;" d="m 851.18164,518.03906 c -16.32678,0 -29.4707,13.14393 -29.4707,29.47071 v 80.94921 c 0,16.32678 13.14392,29.47071 29.4707,29.47071 16.32678,0 29.4707,-13.14393 29.4707,-29.47071 v -80.94921 c 0,-16.32678 -13.14392,-29.47071 -29.4707,-29.47071 z m -69.94336,1.23828 -26.10937,69.75391 c -2.72781,7.40406 -3.70118,11.30112 -3.70118,28.44727 0,18.12042 0.7789,22.01697 4.67579,28.25195 5.26075,8.37828 14.22308,13.44336 24.93945,13.44336 10.91123,0 20.0688,-4.87023 25.13476,-13.44336 3.70197,-6.23498 4.48047,-10.13153 4.48047,-28.25195 0,-22.01726 -0.77798,-26.88814 -4.28515,-32.34375 -3.31232,-5.06591 -9.74347,-8.96289 -16.75782,-8.96289 -4.28653,0 -7.01308,0.77773 -8.37695,1.75195 l -0.39062,-0.38867 22.60156,-58.25782 z m 69.94336,18.74024 c 5.25853,0 9.49219,4.23365 9.49219,9.49219 v 80.94921 c 0,5.25853 -4.23366,9.49219 -9.49219,9.49219 -5.25853,0 -9.49219,-4.23366 -9.49219,-9.49219 v -80.94921 c 0,-5.25854 4.23366,-9.49219 9.49219,-9.49219 z m -70.13867,55.68945 c 5.0659,0 9.74219,3.89738 9.74219,9.9375 v 25.71875 c 0,6.04012 -4.67629,9.9375 -9.74219,9.9375 -5.0659,0 -9.74219,-3.89738 -9.74219,-9.9375 v -25.71875 c 0,-6.04012 4.67629,-9.9375 9.74219,-9.9375 z" transform="matrix(3.0349198,0,0,3.0349198,-2125.7104,-1839.7056)"/>
    </g>
    <g aria-label="6" id="text19759" style="font-size:31.1478px;line-height:1.3;font-family:'Singapore Road Signs';-inkscape-font-specification:'Singapore Road Signs';text-align:center;text-anchor:middle;stroke-width:0.159861" transform="matrix(1.6550836,0,0,1.6550836,-321.31659,-238.56049)"/>
    <path d="M 375.919 46.797 Q 375.84 46.797 375.823 46.726 L 371.666 34.132 Q 371.648 34.079 371.674 34.035 Q 371.701 33.991 371.762 33.991 L 373.775 33.991 Q 373.854 33.991 373.872 34.07 L 376.658 43.395 Q 377.361 41.058 378.06 38.733 Q 378.758 36.408 379.453 34.07 Q 379.47 33.991 379.549 33.991 L 381.562 33.991 Q 381.624 33.991 381.65 34.035 Q 381.676 34.079 381.659 34.132 L 377.501 46.726 Q 377.484 46.797 377.405 46.797 Z M 383.037 46.797 Q 382.932 46.797 382.932 46.691 L 382.932 34.097 Q 382.932 33.991 383.037 33.991 L 384.945 33.991 Q 385.05 33.991 385.05 34.097 L 385.05 46.691 Q 385.05 46.797 384.945 46.797 Z M 381.271 32.523 Q 381.165 32.523 381.183 32.418 Q 381.244 31.987 381.398 31.636 Q 381.552 31.284 381.789 31.012 Q 382.027 30.766 382.343 30.629 Q 382.659 30.493 383.011 30.493 Q 383.169 30.493 383.319 30.511 Q 383.468 30.528 383.617 30.581 Q 383.776 30.634 383.921 30.686 Q 384.066 30.739 384.162 30.774 Q 384.47 30.933 384.716 31.012 Q 384.883 31.091 385.112 31.091 Q 385.314 31.091 385.507 30.968 Q 385.674 30.853 385.744 30.467 Q 385.762 30.396 385.841 30.396 L 386.755 30.396 Q 386.869 30.396 386.852 30.502 Q 386.799 30.88 386.667 31.209 Q 386.535 31.539 386.333 31.811 Q 386.114 32.093 385.797 32.255 Q 385.481 32.418 385.068 32.427 Q 384.909 32.427 384.756 32.4 Q 384.602 32.374 384.461 32.312 L 384.47 32.312 Q 384.373 32.295 384.215 32.238 Q 384.057 32.181 383.846 32.101 Q 383.574 31.978 383.327 31.908 Q 383.081 31.838 382.844 31.829 Q 382.712 31.829 382.492 31.952 L 382.501 31.943 Q 382.282 32.084 382.282 32.435 Q 382.282 32.523 382.194 32.523 Z M 387.704 46.797 Q 387.599 46.797 387.599 46.691 L 387.599 34.097 Q 387.599 33.991 387.704 33.991 L 389.515 33.991 Q 389.567 33.991 389.603 34.044 L 395.14 42.763 L 395.14 34.097 Q 395.14 33.991 395.245 33.991 L 397.161 33.991 Q 397.267 33.991 397.267 34.097 L 397.267 46.691 Q 397.267 46.797 397.161 46.797 L 395.359 46.797 Q 395.307 46.797 395.271 46.744 L 389.717 38.025 L 389.717 46.691 Q 389.717 46.797 389.62 46.797 Z M 406.917 46.797 Q 406.811 46.797 406.811 46.691 L 406.811 41.295 L 402.021 41.295 L 402.021 46.691 Q 402.021 46.797 401.916 46.797 L 400.009 46.797 Q 399.903 46.797 399.903 46.691 L 399.903 34.097 Q 399.903 33.991 400.009 33.991 L 401.916 33.991 Q 402.021 33.991 402.021 34.097 L 402.021 39.388 L 406.811 39.388 L 406.811 34.097 Q 406.811 33.991 406.917 33.991 L 408.824 33.991 Q 408.93 33.991 408.93 34.097 L 408.93 46.691 Q 408.93 46.797 408.824 46.797 Z M 422.894 46.797 Q 422.788 46.797 422.788 46.691 L 422.788 41.295 L 417.998 41.295 L 417.998 46.691 Q 417.998 46.797 417.893 46.797 L 415.986 46.797 Q 415.88 46.797 415.88 46.691 L 415.88 34.097 Q 415.88 33.991 415.986 33.991 L 417.893 33.991 Q 417.998 33.991 417.998 34.097 L 417.998 39.388 L 422.788 39.388 L 422.788 34.097 Q 422.788 33.991 422.894 33.991 L 424.801 33.991 Q 424.907 33.991 424.907 34.097 L 424.907 46.691 Q 424.907 46.797 424.801 46.797 Z M 426.409 46.788 Q 426.347 46.788 426.321 46.744 Q 426.295 46.7 426.312 46.647 L 430.918 34.044 Q 430.935 33.974 431.006 33.974 L 432.579 33.974 Q 432.605 33.974 432.636 33.996 Q 432.667 34.017 432.675 34.044 L 437.272 46.647 Q 437.29 46.7 437.263 46.744 Q 437.237 46.788 437.184 46.788 L 435.172 46.788 Q 435.101 46.788 435.084 46.718 L 434.134 43.94 L 429.494 43.94 Q 429.248 44.652 429.006 45.333 Q 428.764 46.015 428.518 46.718 Q 428.509 46.744 428.479 46.766 Q 428.448 46.788 428.422 46.788 Z M 433.502 42.051 Q 433.484 41.989 433.453 41.919 Q 433.423 41.849 433.405 41.796 Q 433.256 41.365 433.133 41 Q 433.009 40.636 432.913 40.363 Q 432.851 40.187 432.794 40.02 Q 432.737 39.853 432.684 39.704 Q 432.64 39.563 432.596 39.436 Q 432.552 39.309 432.508 39.185 Q 432.429 38.931 432.346 38.676 Q 432.262 38.421 432.174 38.148 Q 432.131 38.025 432.082 37.876 Q 432.034 37.726 431.981 37.559 Q 431.955 37.472 431.942 37.423 Q 431.928 37.375 431.911 37.327 Q 431.893 37.278 431.871 37.217 Q 431.849 37.155 431.814 37.041 Q 431.717 37.331 431.634 37.577 Q 431.55 37.823 431.48 38.034 Q 431.463 38.087 431.454 38.131 Q 431.445 38.175 431.427 38.219 Q 431.383 38.368 431.335 38.5 Q 431.287 38.632 431.243 38.764 Q 431.199 38.904 431.155 39.036 Q 431.111 39.168 431.067 39.291 Q 430.979 39.555 430.887 39.845 Q 430.795 40.135 430.68 40.451 Q 430.566 40.767 430.443 41.132 Q 430.32 41.497 430.127 42.051 Z M 431.678 32.857 Q 431.678 32.857 431.496 32.857 Q 431.313 32.857 431.093 32.857 L 431.093 32.453 Q 431.19 31.899 431.779 31.548 Q 432.702 31.161 432.623 30.634 Q 432.5 30.098 431.797 30.089 Q 430.865 30.106 430.812 30.994 L 429.503 30.994 Q 429.503 30.502 429.683 30.177 Q 429.863 29.851 430.171 29.544 Q 430.777 28.964 431.753 28.946 Q 432.781 28.964 433.44 29.526 Q 433.739 29.825 433.906 30.106 Q 434.073 30.388 434.082 30.818 Q 434.029 31.425 433.405 31.882 Q 432.878 32.137 432.596 32.286 L 432.491 32.4 L 432.377 32.576 L 432.359 32.857 Q 432.043 32.857 431.678 32.857 Z M 438.334 40.398 Q 438.334 39.247 438.365 38.517 Q 438.396 37.788 438.448 37.454 Q 438.51 37.12 438.624 36.812 Q 438.738 36.505 438.905 36.206 L 438.897 36.206 Q 439.354 35.353 440.373 34.624 Q 441.401 33.886 442.931 33.886 Q 444.443 33.886 445.471 34.624 Q 446.508 35.371 446.965 36.206 Q 447.29 36.804 447.404 37.454 Q 447.466 37.788 447.497 38.517 Q 447.527 39.247 447.527 40.398 Q 447.527 42.657 447.404 43.351 Q 447.343 43.694 447.233 44.002 Q 447.123 44.309 446.974 44.591 Q 446.508 45.434 445.471 46.173 Q 444.434 46.902 442.931 46.902 Q 441.41 46.902 440.373 46.173 Q 439.354 45.452 438.897 44.591 L 438.905 44.591 Q 438.738 44.292 438.624 43.989 Q 438.51 43.685 438.448 43.351 Q 438.396 43.017 438.365 42.284 Q 438.334 41.55 438.334 40.398 Z M 440.452 40.398 Q 440.452 41.356 440.479 41.976 Q 440.505 42.596 440.575 42.894 Q 440.646 43.167 440.773 43.435 Q 440.901 43.703 441.059 43.905 Q 441.34 44.274 441.806 44.534 Q 442.272 44.793 442.931 44.793 Q 443.581 44.793 444.047 44.534 Q 444.513 44.274 444.785 43.905 Q 445.154 43.457 445.269 42.894 Q 445.409 42.332 445.409 40.398 Q 445.409 39.44 445.374 38.821 Q 445.339 38.201 445.269 37.911 Q 445.207 37.63 445.084 37.362 Q 444.961 37.094 444.794 36.883 Q 444.662 36.716 444.473 36.558 Q 444.284 36.399 444.047 36.281 Q 443.81 36.162 443.528 36.087 Q 443.247 36.013 442.931 36.013 Q 442.272 36.013 441.806 36.276 Q 441.34 36.54 441.059 36.883 Q 440.892 37.094 440.769 37.362 Q 440.646 37.63 440.575 37.911 Q 440.505 38.21 440.479 38.834 Q 440.452 39.458 440.452 40.398 Z" transform="matrix(1.310387, 0, 0, 1.310387, -59.698296, -1.169035)" style="fill: rgb(255, 255, 255);"/>
    <path transform="matrix(1.310387, 0, 0, 1.310387, -59.698296, -1.169035)" style="fill: rgb(255, 255, 255);"/>
    <path d="M 366.199 61.573 L 366.199 65.422 L 368.932 65.422 Q 369.943 65.422 370.435 64.816 Q 370.936 64.227 370.936 63.497 Q 370.936 62.408 370.163 61.907 Q 369.662 61.573 368.862 61.573 Z M 364.186 72.357 Q 364.081 72.357 364.081 72.251 L 364.081 59.657 Q 364.081 59.551 364.186 59.551 L 368.757 59.551 Q 369.512 59.551 370.189 59.709 Q 370.875 59.868 371.648 60.465 Q 371.947 60.702 372.197 61.015 Q 372.448 61.327 372.65 61.704 Q 372.843 62.091 372.949 62.557 Q 373.054 63.023 373.054 63.55 Q 373.054 64.93 372.017 66.187 Q 370.98 67.435 369.003 67.435 L 366.199 67.435 L 366.199 72.251 Q 366.199 72.357 366.093 72.357 Z M 381.764 72.357 Q 381.658 72.357 381.658 72.251 L 381.658 66.855 L 376.868 66.855 L 376.868 72.251 Q 376.868 72.357 376.763 72.357 L 374.855 72.357 Q 374.75 72.357 374.75 72.251 L 374.75 59.657 Q 374.75 59.551 374.855 59.551 L 376.763 59.551 Q 376.868 59.551 376.868 59.657 L 376.868 64.948 L 381.658 64.948 L 381.658 59.657 Q 381.658 59.551 381.764 59.551 L 383.671 59.551 Q 383.776 59.551 383.776 59.657 L 383.776 72.251 Q 383.776 72.357 383.671 72.357 Z M 385.279 72.348 Q 385.217 72.348 385.191 72.304 Q 385.164 72.26 385.182 72.207 L 389.787 59.604 Q 389.805 59.534 389.875 59.534 L 391.449 59.534 Q 391.475 59.534 391.506 59.556 Q 391.536 59.577 391.545 59.604 L 396.142 72.207 Q 396.16 72.26 396.133 72.304 Q 396.107 72.348 396.054 72.348 L 394.041 72.348 Q 393.971 72.348 393.953 72.278 L 393.004 69.5 L 388.364 69.5 Q 388.118 70.212 387.876 70.893 Q 387.634 71.575 387.388 72.278 Q 387.379 72.304 387.348 72.326 Q 387.318 72.348 387.291 72.348 Z M 392.371 67.611 Q 392.354 67.549 392.323 67.479 Q 392.292 67.409 392.275 67.356 Q 392.125 66.925 392.002 66.56 Q 391.879 66.196 391.783 65.923 Q 391.721 65.747 391.664 65.58 Q 391.607 65.413 391.554 65.264 Q 391.51 65.123 391.466 64.996 Q 391.422 64.869 391.378 64.745 Q 391.299 64.491 391.216 64.236 Q 391.132 63.981 391.044 63.708 Q 391 63.585 390.952 63.436 Q 390.904 63.286 390.851 63.119 Q 390.825 63.032 390.811 62.983 Q 390.798 62.935 390.781 62.887 Q 390.763 62.838 390.741 62.777 Q 390.719 62.715 390.684 62.601 Q 390.587 62.891 390.504 63.137 Q 390.42 63.383 390.35 63.594 Q 390.332 63.647 390.324 63.691 Q 390.315 63.735 390.297 63.779 Q 390.253 63.928 390.205 64.06 Q 390.157 64.192 390.113 64.324 Q 390.069 64.464 390.025 64.596 Q 389.981 64.728 389.937 64.851 Q 389.849 65.115 389.757 65.405 Q 389.664 65.695 389.55 66.011 Q 389.436 66.327 389.313 66.692 Q 389.19 67.057 388.996 67.611 Z M 397.731 72.357 Q 397.626 72.357 397.626 72.251 L 397.626 59.657 Q 397.626 59.551 397.731 59.551 L 399.542 59.551 Q 399.595 59.551 399.63 59.604 L 405.167 68.323 L 405.167 59.657 Q 405.167 59.551 405.272 59.551 L 407.188 59.551 Q 407.294 59.551 407.294 59.657 L 407.294 72.251 Q 407.294 72.357 407.188 72.357 L 405.387 72.357 Q 405.334 72.357 405.299 72.304 L 399.744 63.585 L 399.744 72.251 Q 399.744 72.357 399.647 72.357 Z M 416.521 72.357 Q 416.416 72.357 416.416 72.251 L 416.416 61.458 L 413.067 61.458 Q 412.962 61.458 412.962 61.353 L 412.962 59.657 Q 412.962 59.551 413.067 59.551 L 421.874 59.551 Q 421.979 59.551 421.979 59.657 L 421.979 61.353 Q 421.979 61.458 421.874 61.458 L 418.534 61.458 L 418.534 72.251 Q 418.534 72.357 418.428 72.357 Z M 430.273 72.357 Q 430.168 72.357 430.168 72.251 L 430.168 66.855 L 425.378 66.855 L 425.378 72.251 Q 425.378 72.357 425.272 72.357 L 423.365 72.357 Q 423.26 72.357 423.26 72.251 L 423.26 59.657 Q 423.26 59.551 423.365 59.551 L 425.272 59.551 Q 425.378 59.551 425.378 59.657 L 425.378 64.948 L 430.168 64.948 L 430.168 59.657 Q 430.168 59.551 430.273 59.551 L 432.181 59.551 Q 432.286 59.551 432.286 59.657 L 432.286 72.251 Q 432.286 72.357 432.181 72.357 Z M 435.001 72.357 Q 434.896 72.357 434.896 72.251 L 434.896 59.657 Q 434.896 59.551 435.001 59.551 L 436.909 59.551 Q 437.014 59.551 437.014 59.657 L 437.014 72.251 Q 437.014 72.357 436.909 72.357 Z M 439.668 72.357 Q 439.563 72.357 439.563 72.251 L 439.563 59.657 Q 439.563 59.551 439.668 59.551 L 447.719 59.551 Q 447.824 59.551 447.824 59.657 L 447.824 61.467 Q 447.824 61.573 447.719 61.573 L 441.681 61.573 L 441.681 64.948 L 446.814 64.948 Q 446.919 64.948 446.919 65.053 L 446.919 66.758 Q 446.919 66.855 446.814 66.855 L 441.681 66.855 L 441.681 70.353 L 447.719 70.353 Q 447.824 70.353 447.824 70.458 L 447.824 72.251 Q 447.824 72.357 447.719 72.357 Z M 440.521 58.417 Q 440.441 58.417 440.424 58.347 Q 440.406 58.277 440.459 58.233 L 443.043 56.185 L 444.23 56.185 L 446.849 58.233 Q 446.91 58.277 446.888 58.347 Q 446.866 58.417 446.787 58.417 L 445.311 58.417 L 443.553 57.468 Q 443.166 57.705 442.771 57.943 Q 442.375 58.18 441.988 58.417 Z M 445.557 57.134 Q 445.486 57.134 445.464 57.086 Q 445.442 57.037 445.469 56.976 L 447.306 54.41 Q 447.341 54.357 447.394 54.357 L 449.327 54.357 Q 449.398 54.357 449.428 54.418 Q 449.459 54.48 449.406 54.533 L 446.981 57.099 Q 446.972 57.108 446.945 57.121 Q 446.919 57.134 446.901 57.134 Z M 451.841 72.357 Q 451.735 72.357 451.735 72.251 L 451.735 61.458 L 448.387 61.458 Q 448.281 61.458 448.281 61.353 L 448.281 59.657 Q 448.281 59.551 448.387 59.551 L 457.193 59.551 Q 457.299 59.551 457.299 59.657 L 457.299 61.353 Q 457.299 61.458 457.193 61.458 L 453.853 61.458 L 453.853 72.251 Q 453.853 72.357 453.748 72.357 Z" transform="matrix(1.310387, 0, 0, 1.310387, -59.698296, -1.169035)" style="fill: rgb(255, 255, 255);"/>
    <path d="M 426.152 119.118 Q 426.045 119.118 426.045 119.011 L 426.045 106.277 Q 426.045 106.17 426.152 106.17 L 434.292 106.17 Q 434.399 106.17 434.399 106.277 L 434.399 108.107 Q 434.399 108.214 434.292 108.214 L 428.187 108.214 L 428.187 111.626 L 433.377 111.626 Q 433.484 111.626 433.484 111.733 L 433.484 113.457 Q 433.484 113.555 433.377 113.555 L 428.187 113.555 L 428.187 117.092 L 434.292 117.092 Q 434.399 117.092 434.399 117.198 L 434.399 119.011 Q 434.399 119.118 434.292 119.118 Z M 442.57 119.118 Q 442.517 119.118 442.481 119.065 L 439.78 114.479 Q 439.104 115.634 438.429 116.772 Q 437.753 117.909 437.078 119.065 Q 437.043 119.118 436.989 119.118 L 434.812 119.118 Q 434.741 119.118 434.714 119.069 Q 434.688 119.02 434.723 118.958 L 438.589 112.48 Q 437.673 110.933 436.776 109.405 Q 435.878 107.876 434.972 106.33 Q 434.936 106.268 434.963 106.219 Q 434.99 106.17 435.052 106.17 L 437.238 106.17 Q 437.291 106.17 437.327 106.223 L 439.78 110.489 Q 440.393 109.422 441.006 108.361 Q 441.619 107.299 442.232 106.223 Q 442.268 106.17 442.321 106.17 L 444.507 106.17 Q 444.57 106.17 444.596 106.219 Q 444.623 106.268 444.587 106.33 L 440.97 112.48 Q 441.948 114.106 442.908 115.719 Q 443.868 117.332 444.845 118.958 Q 444.881 119.02 444.854 119.069 Q 444.827 119.118 444.756 119.118 Z M 448.149 108.214 L 448.149 112.106 L 450.913 112.106 Q 451.935 112.106 452.433 111.493 Q 452.939 110.898 452.939 110.16 Q 452.939 109.058 452.157 108.552 Q 451.65 108.214 450.842 108.214 Z M 446.114 119.118 Q 446.007 119.118 446.007 119.011 L 446.007 106.277 Q 446.007 106.17 446.114 106.17 L 450.735 106.17 Q 451.499 106.17 452.184 106.33 Q 452.877 106.49 453.659 107.094 Q 453.961 107.334 454.214 107.65 Q 454.468 107.965 454.672 108.347 Q 454.867 108.738 454.974 109.209 Q 455.081 109.68 455.081 110.213 Q 455.081 111.609 454.032 112.879 Q 452.983 114.141 450.984 114.141 L 448.149 114.141 L 448.149 119.011 Q 448.149 119.118 448.042 119.118 Z M 458.764 108.098 L 458.764 111.751 L 461.581 111.751 Q 462.612 111.751 463.128 111.182 Q 463.643 110.613 463.643 109.831 Q 463.643 109.387 463.488 109.04 Q 463.332 108.694 463.039 108.472 Q 462.781 108.294 462.439 108.196 Q 462.097 108.098 461.697 108.098 Z M 456.729 119.118 Q 456.623 119.118 456.623 119.011 L 456.623 106.277 Q 456.623 106.17 456.729 106.17 L 461.715 106.17 Q 462.541 106.17 463.208 106.397 Q 463.874 106.623 464.372 107.041 Q 464.63 107.281 464.865 107.587 Q 465.101 107.894 465.283 108.249 Q 465.465 108.605 465.572 109.005 Q 465.678 109.405 465.678 109.831 Q 465.678 110.462 465.5 111.027 Q 465.323 111.591 465.003 112.08 Q 464.674 112.533 464.239 112.875 Q 463.803 113.217 463.252 113.422 Q 463.972 114.799 464.701 116.19 Q 465.429 117.58 466.149 118.958 Q 466.176 119.02 466.149 119.069 Q 466.122 119.118 466.06 119.118 L 463.768 119.118 Q 463.741 119.118 463.714 119.096 Q 463.688 119.073 463.67 119.056 L 461.066 113.679 L 458.764 113.679 L 458.764 119.011 Q 458.764 119.118 458.658 119.118 Z M 467.659 119.118 Q 467.553 119.118 467.553 119.011 L 467.553 106.277 Q 467.553 106.17 467.659 106.17 L 475.8 106.17 Q 475.906 106.17 475.906 106.277 L 475.906 108.107 Q 475.906 108.214 475.8 108.214 L 469.694 108.214 L 469.694 111.626 L 474.884 111.626 Q 474.991 111.626 474.991 111.733 L 474.991 113.457 Q 474.991 113.555 474.884 113.555 L 469.694 113.555 L 469.694 117.092 L 475.8 117.092 Q 475.906 117.092 475.906 117.198 L 475.906 119.011 Q 475.906 119.118 475.8 119.118 Z M 477.683 115.848 Q 477.71 115.812 477.754 115.812 Q 477.799 115.812 477.834 115.839 Q 478.536 116.407 479.447 116.75 Q 480.358 117.092 481.371 117.092 Q 482.509 117.092 483.166 116.621 Q 483.788 116.167 483.788 115.421 Q 483.788 114.017 482.215 113.804 L 482.224 113.804 Q 482.002 113.777 481.802 113.75 Q 481.602 113.724 481.402 113.697 Q 481.202 113.67 480.993 113.639 Q 480.785 113.608 480.536 113.573 Q 479.7 113.457 479.047 113.15 Q 478.394 112.844 477.95 112.337 Q 477.505 111.822 477.283 111.213 Q 477.061 110.604 477.061 109.885 Q 477.061 108.196 478.181 107.139 Q 479.309 106.063 481.318 106.063 Q 481.913 106.063 482.477 106.165 Q 483.042 106.268 483.571 106.445 Q 484.099 106.623 484.584 106.868 Q 485.068 107.112 485.512 107.405 Q 485.601 107.467 485.539 107.556 L 484.464 109.147 Q 484.401 109.227 484.321 109.174 Q 483.628 108.738 482.846 108.476 Q 482.064 108.214 481.229 108.214 Q 480.802 108.214 480.438 108.316 Q 480.074 108.418 479.78 108.649 Q 479.203 109.067 479.203 109.92 Q 479.203 110.409 479.594 110.871 Q 479.789 111.084 480.118 111.231 Q 480.447 111.378 480.927 111.449 Q 481.184 111.493 481.531 111.542 Q 481.878 111.591 482.349 111.644 Q 484.17 111.866 485.05 112.986 Q 485.93 114.079 485.93 115.421 Q 485.93 117.216 484.677 118.229 Q 483.415 119.225 481.353 119.225 Q 478.447 119.225 476.412 117.447 Q 476.377 117.421 476.377 117.376 Q 476.377 117.332 476.403 117.296 Z M 487.95 115.848 Q 487.977 115.812 488.021 115.812 Q 488.066 115.812 488.101 115.839 Q 488.803 116.407 489.714 116.75 Q 490.625 117.092 491.638 117.092 Q 492.776 117.092 493.433 116.621 Q 494.055 116.167 494.055 115.421 Q 494.055 114.017 492.482 113.804 L 492.491 113.804 Q 492.269 113.777 492.069 113.75 Q 491.869 113.724 491.669 113.697 Q 491.469 113.67 491.26 113.639 Q 491.052 113.608 490.803 113.573 Q 489.967 113.457 489.314 113.15 Q 488.661 112.844 488.217 112.337 Q 487.772 111.822 487.55 111.213 Q 487.328 110.604 487.328 109.885 Q 487.328 108.196 488.448 107.139 Q 489.576 106.063 491.585 106.063 Q 492.18 106.063 492.744 106.165 Q 493.309 106.268 493.838 106.445 Q 494.366 106.623 494.851 106.868 Q 495.335 107.112 495.779 107.405 Q 495.868 107.467 495.806 107.556 L 494.731 109.147 Q 494.668 109.227 494.588 109.174 Q 493.895 108.738 493.113 108.476 Q 492.331 108.214 491.496 108.214 Q 491.069 108.214 490.705 108.316 Q 490.341 108.418 490.047 108.649 Q 489.47 109.067 489.47 109.92 Q 489.47 110.409 489.861 110.871 Q 490.056 111.084 490.385 111.231 Q 490.714 111.378 491.194 111.449 Q 491.451 111.493 491.798 111.542 Q 492.145 111.591 492.616 111.644 Q 494.437 111.866 495.317 112.986 Q 496.197 114.079 496.197 115.421 Q 496.197 117.216 494.944 118.229 Q 493.682 119.225 491.62 119.225 Q 488.714 119.225 486.679 117.447 Q 486.644 117.421 486.644 117.376 Q 486.644 117.332 486.67 117.296 Z M 500.203 119.118 Q 500.114 119.118 500.096 119.038 L 496.906 106.303 Q 496.888 106.25 496.924 106.21 Q 496.959 106.17 497.013 106.17 L 499.057 106.17 Q 499.145 106.17 499.163 106.25 L 501.083 114.95 Q 501.669 112.764 502.265 110.604 Q 502.86 108.445 503.455 106.25 Q 503.473 106.17 503.562 106.17 L 504.957 106.17 Q 505.037 106.17 505.055 106.25 L 507.437 114.95 Q 507.917 112.764 508.396 110.604 Q 508.876 108.445 509.356 106.25 Q 509.374 106.17 509.463 106.17 L 511.507 106.17 Q 511.56 106.17 511.596 106.21 Q 511.631 106.25 511.613 106.303 L 508.423 119.038 Q 508.405 119.118 508.317 119.118 L 506.708 119.118 Q 506.628 119.118 506.61 119.038 L 504.255 110.196 Q 503.669 112.426 503.082 114.621 Q 502.496 116.816 501.909 119.038 Q 501.891 119.118 501.811 119.118 Z M 511.528 119.109 Q 511.466 119.109 511.439 119.065 Q 511.413 119.02 511.43 118.967 L 516.087 106.223 Q 516.105 106.152 516.176 106.152 L 517.767 106.152 Q 517.793 106.152 517.824 106.174 Q 517.855 106.197 517.864 106.223 L 522.512 118.967 Q 522.53 119.02 522.503 119.065 Q 522.477 119.109 522.423 119.109 L 520.388 119.109 Q 520.317 119.109 520.299 119.038 L 519.34 116.23 L 514.647 116.23 Q 514.398 116.95 514.154 117.638 Q 513.91 118.327 513.661 119.038 Q 513.652 119.065 513.621 119.087 Q 513.59 119.109 513.563 119.109 Z M 518.7 114.319 Q 518.682 114.257 518.651 114.186 Q 518.62 114.115 518.602 114.061 Q 518.451 113.626 518.326 113.257 Q 518.202 112.888 518.104 112.613 Q 518.042 112.435 517.984 112.266 Q 517.927 112.097 517.873 111.946 Q 517.829 111.804 517.784 111.675 Q 517.74 111.546 517.695 111.422 Q 517.615 111.164 517.531 110.907 Q 517.447 110.649 517.358 110.373 Q 517.313 110.249 517.264 110.098 Q 517.216 109.947 517.162 109.778 Q 517.136 109.689 517.122 109.64 Q 517.109 109.591 517.091 109.542 Q 517.073 109.494 517.051 109.431 Q 517.029 109.369 516.993 109.254 Q 516.896 109.547 516.811 109.796 Q 516.727 110.045 516.656 110.258 Q 516.638 110.311 516.629 110.356 Q 516.62 110.4 516.602 110.444 Q 516.558 110.596 516.509 110.729 Q 516.46 110.862 516.416 110.995 Q 516.371 111.138 516.327 111.271 Q 516.282 111.404 516.238 111.529 Q 516.149 111.795 516.056 112.088 Q 515.963 112.382 515.847 112.702 Q 515.732 113.022 515.607 113.39 Q 515.483 113.759 515.287 114.319 Z M 525.494 119.118 Q 525.396 119.118 525.396 119.011 L 525.396 113.804 Q 524.436 111.929 523.485 110.062 Q 522.534 108.196 521.584 106.321 Q 521.557 106.259 521.584 106.214 Q 521.61 106.17 521.681 106.17 L 523.708 106.17 Q 523.734 106.17 523.761 106.192 Q 523.788 106.214 523.805 106.232 L 526.418 111.689 Q 527.076 110.311 527.72 108.96 Q 528.364 107.61 529.022 106.232 Q 529.04 106.214 529.066 106.192 Q 529.093 106.17 529.12 106.17 L 531.155 106.17 Q 531.226 106.17 531.252 106.214 Q 531.279 106.259 531.252 106.321 L 527.431 113.804 L 527.431 119.011 Q 527.431 119.118 527.324 119.118 Z" style="fill: rgb(255, 255, 255);"/>
    <path d="M 343.121 84.558 Q 343.193 84.558 343.241 84.612 Q 343.29 84.666 343.265 84.738 Q 342.761 87.189 341.031 88.51 Q 340.19 89.147 339.206 89.471 Q 338.221 89.795 337.079 89.795 Q 335.001 89.795 333.584 88.798 Q 332.191 87.813 331.566 86.636 Q 331.35 86.228 331.194 85.813 Q 331.038 85.399 330.953 84.942 Q 330.797 84.054 330.797 80.906 Q 330.797 79.333 330.833 78.336 Q 330.869 77.339 330.953 76.883 Q 331.038 76.426 331.194 76.006 Q 331.35 75.585 331.566 75.177 Q 332.191 74.012 333.584 73.015 Q 334.989 72.006 337.079 72.006 Q 339.578 72.006 341.211 73.543 Q 342.869 75.093 343.265 77.219 Q 343.29 77.291 343.241 77.339 Q 343.193 77.387 343.121 77.387 L 340.371 77.387 Q 340.263 77.387 340.239 77.291 Q 340.082 76.81 339.794 76.396 Q 339.506 75.982 339.085 75.621 Q 338.293 74.913 337.079 74.913 Q 336.179 74.913 335.542 75.273 Q 334.905 75.633 334.521 76.102 Q 334.293 76.39 334.125 76.756 Q 333.956 77.123 333.86 77.507 Q 333.764 77.916 333.728 78.768 Q 333.692 79.621 333.692 80.906 Q 333.692 82.216 333.728 83.063 Q 333.764 83.909 333.86 84.318 Q 333.956 84.69 334.131 85.057 Q 334.305 85.423 334.521 85.699 Q 334.905 86.204 335.542 86.558 Q 336.179 86.912 337.079 86.912 Q 339.157 86.912 340.239 84.642 Q 340.263 84.618 340.299 84.588 Q 340.335 84.558 340.371 84.558 Z M 348.151 89.651 Q 348.007 89.651 348.007 89.507 L 348.007 74.756 L 343.43 74.756 Q 343.286 74.756 343.286 74.612 L 343.286 72.294 Q 343.286 72.15 343.43 72.15 L 355.466 72.15 Q 355.61 72.15 355.61 72.294 L 355.61 74.612 Q 355.61 74.756 355.466 74.756 L 350.901 74.756 L 350.901 89.507 Q 350.901 89.651 350.757 89.651 Z M 355.975 89.651 Q 355.831 89.651 355.831 89.507 L 355.831 87.068 Q 355.831 86.924 355.975 86.924 L 358.426 86.924 Q 358.558 86.924 358.558 87.068 L 358.558 89.507 Q 358.558 89.651 358.426 89.651 Z M 366.925 77.327 Q 366.925 76.162 366.306 75.507 Q 365.687 74.853 364.654 74.853 Q 363.621 74.853 363.009 75.507 Q 362.396 76.162 362.396 77.327 L 362.396 84.594 Q 362.396 85.771 363.009 86.42 Q 363.621 87.068 364.654 87.068 Q 365.687 87.068 366.306 86.42 Q 366.925 85.771 366.925 84.594 Z M 359.657 77.183 Q 359.657 74.756 361.183 73.447 Q 362.696 72.114 364.654 72.114 Q 365.627 72.114 366.498 72.456 Q 367.369 72.799 368.126 73.447 Q 368.882 74.12 369.273 75.051 Q 369.663 75.982 369.663 77.183 L 369.663 84.738 Q 369.663 87.153 368.126 88.474 Q 366.612 89.795 364.654 89.795 Q 362.696 89.795 361.183 88.474 Q 359.657 87.165 359.657 84.738 Z M 374.698 89.687 Q 374.553 89.687 374.553 89.543 L 374.553 75.273 Q 374.001 75.681 373.448 76.096 Q 372.896 76.51 372.343 76.907 Q 372.259 76.967 372.187 76.925 Q 372.115 76.883 372.115 76.786 L 372.115 74.18 Q 372.115 74.156 372.133 74.12 Q 372.151 74.084 372.175 74.06 L 374.649 72.27 L 377.16 72.27 Q 377.304 72.27 377.304 72.414 L 377.304 89.543 Q 377.304 89.687 377.16 89.687 Z"/>
    <path d="M 395.708 174.374 Q 395.725 172.731 396.273 171.427 Q 396.821 170.124 397.817 169.194 Q 398.763 168.331 399.942 167.858 Q 401.12 167.385 402.415 167.385 Q 405.155 167.385 407.114 169.194 Q 409.089 171.021 409.139 174.391 L 409.139 184.85 Q 409.106 186.46 408.574 187.788 Q 408.043 189.116 407.114 190.029 Q 406.167 190.876 404.98 191.358 Q 403.793 191.839 402.415 191.872 Q 400.041 191.806 398.232 190.411 L 398.232 190.428 Q 397.285 189.697 396.696 188.676 Q 396.107 187.655 395.841 186.327 Q 395.808 186.244 395.866 186.178 Q 395.924 186.111 396.024 186.111 L 399.41 186.111 Q 399.527 186.111 399.593 186.244 Q 400.34 188.104 402.415 188.104 Q 405.354 188.087 405.47 184.667 L 405.47 182.692 Q 404.374 183.024 403.295 183.206 Q 402.216 183.389 401.27 183.356 Q 398.979 183.405 397.302 181.695 L 397.319 181.695 Q 395.675 180.052 395.708 176.566 Z M 399.394 176.532 Q 399.394 179.919 402.415 179.969 Q 405.37 179.919 405.47 176.532 L 405.47 174.59 Q 405.337 171.22 402.415 171.153 Q 399.41 171.236 399.394 174.59 Z M 422.17 174.573 Q 422.17 172.963 421.315 172.058 Q 420.46 171.153 419.032 171.153 Q 417.604 171.153 416.758 172.058 Q 415.911 172.963 415.911 174.573 L 415.911 184.617 Q 415.911 186.244 416.758 187.141 Q 417.604 188.037 419.032 188.037 Q 420.46 188.037 421.315 187.141 Q 422.17 186.244 422.17 184.617 Z M 412.126 174.374 Q 412.126 171.021 414.234 169.211 Q 416.326 167.368 419.032 167.368 Q 420.377 167.368 421.58 167.841 Q 422.784 168.315 423.83 169.211 Q 424.876 170.141 425.415 171.427 Q 425.955 172.714 425.955 174.374 L 425.955 184.817 Q 425.955 188.153 423.83 189.98 Q 421.738 191.806 419.032 191.806 Q 416.326 191.806 414.234 189.98 Q 412.126 188.17 412.126 184.817 Z"/>
    <path d="M 505.006 174.391 Q 505.023 172.731 505.57 171.427 Q 506.118 170.124 507.114 169.194 Q 508.061 168.331 509.239 167.858 Q 510.418 167.385 511.713 167.385 Q 514.07 167.385 515.98 168.796 Q 517.773 170.224 518.32 172.913 Q 518.354 173.013 518.287 173.079 Q 518.221 173.146 518.121 173.146 L 514.718 173.146 Q 514.585 173.146 514.535 173.029 Q 513.788 171.203 511.696 171.153 Q 508.692 171.236 508.692 174.607 L 508.692 176.566 Q 509.771 176.25 510.841 176.068 Q 511.912 175.885 512.875 175.902 Q 515.199 175.902 516.86 177.528 Q 518.453 179.205 518.437 182.692 L 518.437 184.85 Q 518.387 188.253 516.411 190.029 Q 514.552 191.789 511.713 191.872 Q 508.957 191.789 507.114 190.046 Q 505.023 188.22 505.006 184.866 Z M 508.692 184.667 Q 508.708 188.07 511.713 188.104 Q 514.652 188.087 514.768 184.667 L 514.768 182.725 Q 514.635 179.355 511.713 179.288 Q 508.708 179.371 508.692 182.725 Z M 531.132 174.573 Q 531.132 172.963 530.277 172.058 Q 529.422 171.153 527.994 171.153 Q 526.566 171.153 525.72 172.058 Q 524.873 172.963 524.873 174.573 L 524.873 184.617 Q 524.873 186.244 525.72 187.141 Q 526.566 188.037 527.994 188.037 Q 529.422 188.037 530.277 187.141 Q 531.132 186.244 531.132 184.617 Z M 521.088 174.374 Q 521.088 171.021 523.196 169.211 Q 525.288 167.368 527.994 167.368 Q 529.339 167.368 530.542 167.841 Q 531.746 168.315 532.792 169.211 Q 533.838 170.141 534.377 171.427 Q 534.917 172.714 534.917 174.374 L 534.917 184.817 Q 534.917 188.153 532.792 189.98 Q 530.7 191.806 527.994 191.806 Q 525.288 191.806 523.196 189.98 Q 521.088 188.17 521.088 184.817 Z" style="fill: rgb(255, 255, 255);"/>
  </g>
</svg>