<?xml version="1.0" encoding="UTF-8" standalone="no"?>
<!-- Created with Inkscape (http://www.inkscape.org/) -->

<svg
   xmlns:dc="http://purl.org/dc/elements/1.1/"
   xmlns:cc="http://creativecommons.org/ns#"
   xmlns:rdf="http://www.w3.org/1999/02/22-rdf-syntax-ns#"
   xmlns:svg="http://www.w3.org/2000/svg"
   xmlns="http://www.w3.org/2000/svg"
   xmlns:sodipodi="http://sodipodi.sourceforge.net/DTD/sodipodi-0.dtd"
   xmlns:inkscape="http://www.inkscape.org/namespaces/inkscape"
   width="600mm"
   height="800mm"
   viewBox="0 0 600 800"
   version="1.1"
   id="svg848"
   inkscape:version="0.92.2 (5c3e80d, 2017-08-06)"
   sodipodi:docname="11.svg">
  <defs
     id="defs842" />
  <sodipodi:namedview
     id="base"
     pagecolor="#ffffff"
     bordercolor="#666666"
     borderopacity="1.0"
     inkscape:pageopacity="0.0"
     inkscape:pageshadow="2"
     inkscape:zoom="0.17519833"
     inkscape:cx="1467.1363"
     inkscape:cy="690.39444"
     inkscape:document-units="mm"
     inkscape:current-layer="text919"
     showgrid="false"
     inkscape:snap-global="false"
     inkscape:window-width="1920"
     inkscape:window-height="1057"
     inkscape:window-x="-8"
     inkscape:window-y="-8"
     inkscape:window-maximized="1"
     fit-margin-top="0"
     fit-margin-left="0"
     fit-margin-right="0"
     fit-margin-bottom="0"
     showguides="false"
     inkscape:measure-start="0,0"
     inkscape:measure-end="0,0" />
  <metadata
     id="metadata845">
    <rdf:RDF>
      <cc:Work
         rdf:about="">
        <dc:format>image/svg+xml</dc:format>
        <dc:type
           rdf:resource="http://purl.org/dc/dcmitype/StillImage" />
        <dc:title></dc:title>
      </cc:Work>
    </rdf:RDF>
  </metadata>
  <g
     inkscape:label="Layer 1"
     inkscape:groupmode="layer"
     id="layer1"
     transform="translate(-768.04565,1770.538)">
    <rect
       style="opacity:1;fill:#0046aa;fill-opacity:1;fill-rule:nonzero;stroke:none;stroke-width:2.93670321;stroke-linecap:butt;stroke-linejoin:miter;stroke-miterlimit:10;stroke-dasharray:none;stroke-opacity:1;paint-order:stroke fill markers"
       id="rect1393"
       width="600"
       height="800"
       x="768.04565"
       y="-1770.538" />
    <rect
       y="-1765.538"
       x="773.04565"
       height="790"
       width="590"
       id="rect1395"
       style="opacity:1;fill:#ffffff;fill-opacity:1;fill-rule:nonzero;stroke:none;stroke-width:2.89386988;stroke-linecap:butt;stroke-linejoin:miter;stroke-miterlimit:10;stroke-dasharray:none;stroke-opacity:1;paint-order:stroke fill markers" />
    <rect
       y="-1755.538"
       x="783.04565"
       height="770"
       width="570"
       id="rect1406"
       style="opacity:1;fill:#0046aa;fill-opacity:1;fill-rule:nonzero;stroke:none;stroke-width:2.80816269;stroke-linecap:butt;stroke-linejoin:miter;stroke-miterlimit:10;stroke-dasharray:none;stroke-opacity:1;paint-order:stroke fill markers" />
    <path
       id="path8376"
       style="opacity:1;fill:#d35f5f;fill-opacity:1;fill-rule:nonzero;stroke:none;stroke-width:3.92256045;stroke-linecap:butt;stroke-linejoin:miter;stroke-miterlimit:4;stroke-dasharray:none;stroke-opacity:1;paint-order:stroke fill markers"
       d=""
       inkscape:connector-curvature="0" />
    <rect
       style="opacity:1;fill:#ffffff;fill-opacity:1;fill-rule:nonzero;stroke:none;stroke-width:5.07322454;stroke-linecap:butt;stroke-linejoin:miter;stroke-miterlimit:4;stroke-dasharray:none;stroke-opacity:1;paint-order:stroke fill markers"
       id="rect828"
       width="500"
       height="500"
       x="818.04565"
       y="-1720.538" />
    <g
       transform="matrix(1.0004876,0,0,1.0004876,-290.77787,824.33304)"
       id="g924"
       style="font-style:normal;font-variant:normal;font-weight:bold;font-stretch:normal;font-size:159.07623291px;line-height:0;font-family:Giaothong2;-inkscape-font-specification:'Giaothong2 Bold';letter-spacing:0px;word-spacing:0px;fill:#000000;fill-opacity:1;stroke:none;stroke-width:0.82852203">
      <g
         id="g922"
         style="font-style:normal;font-variant:normal;font-weight:bold;font-stretch:normal;font-size:161.34654236px;line-height:0;font-family:Giaothong2;-inkscape-font-specification:'Giaothong2 Bold';letter-spacing:3.35592604px;word-spacing:0px;fill:#000000;fill-opacity:1;stroke:none;stroke-width:0.69624561" />
    </g>
    <g
       id="g7910"
       transform="matrix(8.9960605,0,0,-8.996211,672.2124,-1124.6684)"
       style="fill:#000000;stroke:none">
      <path
         style="opacity:1;fill:#000000;fill-opacity:1;fill-rule:nonzero;stroke:none;stroke-width:0.00528869;stroke-linecap:round;stroke-linejoin:round;stroke-miterlimit:10;stroke-dasharray:none;stroke-opacity:1;paint-order:stroke fill markers"
         d="m 17.600296,30.792144 h 1.43317 v 9.328 h 4.2995 c 0.62338,3.16397 1.84926,6.01792 4.2995,8.59885 h 6.46182 v 3.344 h 36.3069 v -20.54171 h -36.3069 v -2.03657 h -16.49399 z"
         id="rect34255"
         inkscape:connector-curvature="0"
         sodipodi:nodetypes="ccccccccccccc" />
    </g>
    <ellipse
       style="opacity:1;fill:#000000;fill-opacity:1;fill-rule:nonzero;stroke:none;stroke-width:0.06387111;stroke-linecap:round;stroke-linejoin:round;stroke-miterlimit:10;stroke-dasharray:none;stroke-opacity:1;paint-order:stroke fill markers"
       id="path34357"
       cx="933.01001"
       cy="-1389.4666"
       rx="28.273808"
       ry="33.92857" />
    <ellipse
       ry="33.92857"
       rx="28.273808"
       cy="-1389.4666"
       cx="1203.7599"
       id="ellipse34510"
       style="opacity:1;fill:#000000;fill-opacity:1;fill-rule:nonzero;stroke:none;stroke-width:0.06387111;stroke-linecap:round;stroke-linejoin:round;stroke-miterlimit:10;stroke-dasharray:none;stroke-opacity:1;paint-order:stroke fill markers" />
    <g
       style="font-style:normal;font-variant:normal;font-weight:bold;font-stretch:normal;font-size:105.2776947px;line-height:0;font-family:Giaothong2;-inkscape-font-specification:'Giaothong2 Bold';letter-spacing:0px;word-spacing:3.20410419px;fill:#000000;fill-opacity:1;stroke:none;stroke-width:0.54832131"
       id="text919">
      <path
         d="m 818.66254,-1070.538 q -0.61686,0 -0.61686,-0.6168 v -73.6636 q 0,-0.6168 0.61686,-0.6168 h 28.58125 q 10.84648,0 16.65526,5.8088 5.75737,5.7059 5.75737,14.599 0,4.8835 -2.26183,9.0473 -2.0562,3.9068 -7.65936,6.7855 5.19192,1.645 8.0192,6.3228 1.49075,2.5703 2.26183,5.2948 0.82248,2.673 0.82248,5.5517 0,9.8184 -6.32283,15.6786 -6.27143,5.8087 -14.75327,5.8087 z m 11.77177,-32.6936 v 20.9733 h 16.60386 q 5.80877,0 8.63606,-3.1357 2.77587,-3.1357 2.77587,-7.351 0,-4.1124 -2.77587,-7.2995 -2.67307,-3.1871 -8.63606,-3.1871 z m 0,-31.0487 v 19.8938 h 15.57575 q 5.80878,0 8.48185,-2.8787 2.77588,-2.8273 2.77588,-7.0425 0,-4.1638 -2.77588,-6.9911 -2.77588,-2.9815 -8.48185,-2.9815 z"
         style="font-style:normal;font-variant:normal;font-weight:bold;font-stretch:normal;font-family:Giaothong2;-inkscape-font-specification:'Giaothong2 Bold';word-spacing:3.20410419px;fill:#ffffff;stroke:none;stroke-width:0.54832131"
         id="path955"
         inkscape:connector-curvature="0" />
      <path
         d="m 882.81613,-1070.538 q -0.61686,0 -0.61686,-0.6168 v -73.6636 q 0,-0.6168 0.61686,-0.6168 h 47.0871 q 0.61686,0 0.61686,0.6168 v 10.5895 q 0,0.6169 -0.61686,0.6169 h -35.31532 v 19.7395 h 30.02059 q 0.61686,0 0.61686,0.6169 v 9.9726 q 0,0.5654 -0.61686,0.5654 h -30.02059 v 20.4593 h 35.31532 q 0.61686,0 0.61686,0.6168 v 10.4867 q 0,0.6168 -0.61686,0.6168 z m 4.9863,-81.5285 q -0.46265,0 -0.56546,-0.4112 -0.10281,-0.4113 0.20562,-0.6683 l 15.11311,-11.9774 h 6.93969 l 15.31873,11.9774 q 0.35983,0.257 0.20562,0.6683 -0.10281,0.4112 -0.56546,0.4112 h -8.63606 l -10.28102,-5.5517 q -2.26183,1.3879 -4.57506,2.7758 -2.31323,1.388 -4.57506,2.7759 z m 29.45514,-7.5051 q -0.41125,0 -0.56546,-0.2571 -0.10281,-0.3084 0.0514,-0.6682 l 10.74368,-15.0103 q 0.20562,-0.3084 0.51405,-0.3084 h 11.30912 q 0.41124,0 0.56546,0.3598 0.20562,0.3598 -0.10281,0.6683 l -14.18781,15.0103 q -0.0514,0.051 -0.20563,0.1542 -0.15421,0.051 -0.25702,0.051 z"
         style="font-style:normal;font-variant:normal;font-weight:bold;font-stretch:normal;font-family:Giaothong2;-inkscape-font-specification:'Giaothong2 Bold';word-spacing:3.20410419px;fill:#ffffff;stroke:none;stroke-width:0.54832131"
         id="path957"
         inkscape:connector-curvature="0" />
      <path
         d="m 941.41797,-1070.538 q -0.61686,0 -0.61686,-0.6168 v -73.6636 q 0,-0.6168 0.61686,-0.6168 h 10.58945 q 0.30844,0 0.51406,0.3084 l 32.38522,50.9939 v -50.6855 q 0,-0.6168 0.61687,-0.6168 h 11.20631 q 0.61686,0 0.61686,0.6168 v 73.6636 q 0,0.6168 -0.61686,0.6168 h -10.53805 q -0.30843,0 -0.51405,-0.3084 l -32.48804,-50.9939 v 50.6855 q 0,0.6168 -0.56545,0.6168 z"
         style="font-style:normal;font-variant:normal;font-weight:bold;font-stretch:normal;font-family:Giaothong2;-inkscape-font-specification:'Giaothong2 Bold';word-spacing:3.20410419px;fill:#ffffff;stroke:none;stroke-width:0.54832131"
         id="path959"
         inkscape:connector-curvature="0" />
      <path
         d="m 1079.3549,-1070.538 q -0.3084,0 -0.514,-0.3084 l -15.6272,-26.525 q -3.9068,6.6826 -7.8136,13.2625 -3.9068,6.5799 -7.8136,13.2625 -0.2056,0.3084 -0.514,0.3084 h -12.5943 q -0.4112,0 -0.5654,-0.257 -0.1542,-0.3084 0.051,-0.6682 l 22.3612,-37.4744 q -5.2947,-8.9445 -10.4866,-17.7862 -5.192,-8.8416 -10.4353,-17.7861 -0.2056,-0.3599 -0.051,-0.6169 0.1542,-0.3084 0.5141,-0.3084 h 12.6456 q 0.3085,0 0.5141,0.3084 l 14.1878,24.6745 q 3.547,-6.1686 7.0939,-12.2859 3.547,-6.1686 7.0939,-12.3886 0.2056,-0.3084 0.5141,-0.3084 h 12.6456 q 0.3599,0 0.5141,0.3084 0.1542,0.257 -0.051,0.6169 l -20.9219,35.5723 q 5.6545,9.4072 11.2063,18.7629 5.5518,9.3043 11.2063,18.7115 0.2056,0.3598 0.051,0.6682 -0.1542,0.257 -0.5654,0.257 z"
         style="font-style:normal;font-variant:normal;font-weight:bold;font-stretch:normal;font-family:Giaothong2;-inkscape-font-specification:'Giaothong2 Bold';word-spacing:3.20410419px;fill:#ffffff;stroke:none;stroke-width:0.54832131"
         id="path961"
         inkscape:connector-curvature="0" />
      <path
         d="m 1100.8936,-1070.538 q -0.6168,0 -0.6168,-0.6168 v -73.6636 q 0,-0.6168 0.6168,-0.6168 h 47.0871 q 0.6169,0 0.6169,0.6168 v 10.5895 q 0,0.6169 -0.6169,0.6169 h -35.3153 v 19.7395 h 30.0206 q 0.6169,0 0.6169,0.6169 v 9.9726 q 0,0.5654 -0.6169,0.5654 h -30.0206 v 20.4593 h 35.3153 q 0.6169,0 0.6169,0.6168 v 10.4867 q 0,0.6168 -0.6169,0.6168 z"
         style="font-style:normal;font-variant:normal;font-weight:bold;font-stretch:normal;font-family:Giaothong2;-inkscape-font-specification:'Giaothong2 Bold';word-spacing:3.20410419px;fill:#ffffff;stroke:none;stroke-width:0.54832131"
         id="path963"
         inkscape:connector-curvature="0" />
      <path
         d="m 1200.688,-1070.538 q -0.6169,0 -0.6169,-0.6168 v -63.1255 h -19.5853 q -0.6169,0 -0.6169,-0.6169 v -9.9212 q 0,-0.6168 0.6169,-0.6168 h 51.5079 q 0.6169,0 0.6169,0.6168 v 9.9212 q 0,0.6169 -0.6169,0.6169 h -19.534 v 63.1255 q 0,0.6168 -0.6168,0.6168 z"
         style="font-style:normal;font-variant:normal;font-weight:bold;font-stretch:normal;font-family:Giaothong2;-inkscape-font-specification:'Giaothong2 Bold';word-spacing:3.20410419px;fill:#ffffff;stroke:none;stroke-width:0.54832131"
         id="path965"
         inkscape:connector-curvature="0" />
      <path
         d="m 1233.5873,-1070.5894 q -0.3599,0 -0.5141,-0.257 -0.1542,-0.257 -0.051,-0.5654 l 26.9363,-73.715 q 0.1028,-0.4112 0.514,-0.4112 h 9.2016 q 0.1542,0 0.3084,0.1542 0.2056,0.1028 0.257,0.257 l 26.8849,73.715 q 0.1028,0.3084 -0.051,0.5654 -0.1542,0.257 -0.4627,0.257 h -11.7717 q -0.4113,0 -0.5141,-0.4112 l -5.5517,-16.244 h -27.1419 q -1.4394,4.1638 -2.8787,8.1734 -1.388,3.9582 -2.8273,8.0706 -0.051,0.1542 -0.257,0.3084 -0.1542,0.1028 -0.3085,0.1028 z m 41.4839,-27.7073 q -0.1028,-0.3599 -0.3084,-0.7711 -0.1542,-0.4112 -0.2571,-0.7197 -0.8738,-2.5188 -1.5935,-4.6264 -0.7197,-2.159 -1.2851,-3.7526 -0.3599,-1.0281 -0.7197,-2.0048 -0.3084,-0.9767 -0.6169,-1.8506 -0.257,-0.8225 -0.514,-1.5421 -0.2571,-0.7711 -0.5141,-1.4908 -0.4626,-1.4907 -0.9767,-2.9815 -0.4626,-1.4907 -0.9767,-3.0843 -0.257,-0.7197 -0.5654,-1.5936 -0.2571,-0.8738 -0.5655,-1.8505 -0.1542,-0.5141 -0.257,-0.7711 -0.051,-0.3084 -0.1542,-0.5655 -0.1028,-0.3084 -0.2571,-0.6682 -0.1028,-0.3599 -0.3084,-1.0281 -0.5654,1.6963 -1.0795,3.1357 -0.4626,1.4393 -0.8739,2.673 -0.1028,0.3085 -0.1542,0.5655 -0.051,0.257 -0.1542,0.514 -0.257,0.8739 -0.5655,1.645 -0.257,0.7711 -0.514,1.5422 -0.257,0.8224 -0.5141,1.5935 -0.257,0.7711 -0.514,1.4908 -0.5141,1.5421 -1.0795,3.2385 -0.5141,1.6964 -1.1823,3.5469 -0.6683,1.8506 -1.388,4.0096 -0.7197,2.1077 -1.8506,5.3462 z m -10.6923,-53.7698 q -2.1076,0 -3.3927,0 v -2.3646 q 0.5655,-3.2385 4.0096,-5.2947 5.3975,-2.2619 4.9349,-5.3462 -0.7197,-3.1357 -4.8321,-3.1871 -5.4489,0.1028 -5.7574,5.2947 h -7.6593 q 0,-2.8787 1.0281,-4.7806 1.0795,-1.902 2.8787,-3.7012 3.5469,-3.3927 9.2529,-3.4956 6.0144,0.1029 9.8698,3.3928 1.7477,1.7478 2.7244,3.3927 0.9767,1.645 1.0281,4.1638 -0.3084,3.547 -3.9582,6.2201 -3.0843,1.4907 -4.7292,2.3646 l -0.6169,0.6683 -0.6683,1.0281 -0.1028,1.6449 q -1.8505,0 -4.0096,0 z"
         style="font-style:normal;font-variant:normal;font-weight:bold;font-stretch:normal;font-family:Giaothong2;-inkscape-font-specification:'Giaothong2 Bold';word-spacing:3.20410419px;fill:#ffffff;stroke:none;stroke-width:0.54832131"
         id="path967"
         inkscape:connector-curvature="0" />
      <path
         d="m 1306.2741,-1070.538 q -0.6169,0 -0.6169,-0.6168 v -73.6636 q 0,-0.6168 0.6169,-0.6168 h 11.1549 q 0.6169,0 0.6169,0.6168 v 73.6636 q 0,0.6168 -0.6169,0.6168 z"
         style="font-style:normal;font-variant:normal;font-weight:bold;font-stretch:normal;font-family:Giaothong2;-inkscape-font-specification:'Giaothong2 Bold';word-spacing:3.20410419px;fill:#ffffff;stroke:none;stroke-width:0.54832131"
         id="path969"
         inkscape:connector-curvature="0" />
    </g>
  </g>
</svg>
