<?xml version="1.0" encoding="UTF-8"?>
<!DOCTYPE svg PUBLIC "-//W3C//DTD SVG 1.1//EN" "http://www.w3.org/Graphics/SVG/1.1/DTD/svg11.dtd">
<svg xmlns="http://www.w3.org/2000/svg" version="1.1" width="2560px" height="1197px" style="shape-rendering:geometricPrecision; text-rendering:geometricPrecision; image-rendering:optimizeQuality; fill-rule:evenodd; clip-rule:evenodd" xmlns:xlink="http://www.w3.org/1999/xlink">
<g><path style="opacity:0.993" fill="#000000" d="M 51.5,-0.5 C 870.167,-0.5 1688.83,-0.5 2507.5,-0.5C 2535.17,6.5 2552.5,23.8333 2559.5,51.5C 2559.5,415.5 2559.5,779.5 2559.5,1143.5C 2551.14,1175.53 2530.47,1193.19 2497.5,1196.5C 1685.5,1196.5 873.5,1196.5 61.5,1196.5C 28.5344,1193.2 7.8677,1175.53 -0.5,1143.5C -0.5,779.5 -0.5,415.5 -0.5,51.5C 6.5,23.8333 23.8333,6.5 51.5,-0.5 Z"/></g>
<g><path style="opacity:1" fill="#fefefe" d="M 56.5,41.5 C 872.554,41.0008 1688.55,41.5008 2504.5,43C 2510.39,45.8924 2514.56,50.3924 2517,56.5C 2518,417.888 2517.66,779.221 2516,1140.5C 2513.01,1146.82 2508.18,1150.99 2501.5,1153C 1686.5,1153.67 871.5,1153.67 56.5,1153C 49.2417,1150.08 44.4084,1144.91 42,1137.5C 41.3333,777.167 41.3333,416.833 42,56.5C 45.0214,49.6468 49.8548,44.6468 56.5,41.5 Z"/></g>
<g><path style="opacity:1" fill="#000000" d="M 324.5,249.5 C 381.639,248.496 429.139,269.163 467,311.5C 503.103,349.376 525.103,394.376 533,446.5C 535.138,463.435 536.472,480.435 537,497.5C 539.224,578.512 538.89,659.512 536,740.5C 535.158,771.042 529.325,800.542 518.5,829C 543.333,853.167 568.167,877.333 593,901.5C 593.755,904.303 593.422,906.97 592,909.5C 575.333,932.833 558.667,956.167 542,979.5C 540.01,982.722 537.51,983.222 534.5,981C 511.333,958.5 488.167,936 465,913.5C 402.373,973.194 330.539,987.36 249.5,956C 225.684,943.823 204.85,927.656 187,907.5C 152.941,870.036 132.274,826.036 125,775.5C 122.915,757.223 121.582,738.89 121,720.5C 119.502,659.507 119.169,598.507 120,537.5C 120.283,509.449 121.617,481.449 124,453.5C 134.584,376.31 172.084,316.143 236.5,273C 264.025,257.954 293.358,250.121 324.5,249.5 Z"/></g>
<g><path style="opacity:1" fill="#000000" d="M 1725.5,257.5 C 1772.56,255.957 1811.73,272.623 1843,307.5C 1868.36,337.908 1883.69,372.908 1889,412.5C 1890.89,425.44 1892.23,438.44 1893,451.5C 1893.67,558.167 1893.67,664.833 1893,771.5C 1893.12,817.23 1882.46,860.23 1861,900.5C 1829.28,951.947 1783.11,977.114 1722.5,976C 1674.49,968.285 1637.32,944.118 1611,903.5C 1594.73,875.033 1584.23,844.533 1579.5,812C 1579.76,810.739 1580.43,809.739 1581.5,809C 1609.84,808.167 1638.17,808.333 1666.5,809.5C 1683.1,859.635 1716.44,876.468 1766.5,860C 1785.59,848.039 1797.42,830.873 1802,808.5C 1804.65,796.637 1806.32,784.637 1807,772.5C 1807.5,750.836 1807.67,729.169 1807.5,707.5C 1781.9,716.65 1755.56,722.817 1728.5,726C 1679.28,731.799 1640.45,714.632 1612,674.5C 1596.12,650.872 1586.12,624.872 1582,596.5C 1579.23,577.933 1577.56,559.267 1577,540.5C 1576.33,509.167 1576.33,477.833 1577,446.5C 1579.14,401.413 1592.47,360.08 1617,322.5C 1643.82,285.169 1679.99,263.502 1725.5,257.5 Z"/></g>
<g><path style="opacity:1" fill="#000000" d="M 2332.5,663.5 C 2252.5,663.5 2172.5,663.5 2092.5,663.5C 2092.5,728.5 2092.5,793.5 2092.5,858.5C 2186.5,858.5 2280.5,858.5 2374.5,858.5C 2375.46,858.953 2376.29,859.619 2377,860.5C 2377.67,896.167 2377.67,931.833 2377,967.5C 2376.25,968.126 2375.42,968.626 2374.5,969C 2248.26,969.832 2122.1,969.666 1996,968.5C 1994.34,732.58 1994,496.58 1995,260.5C 1995.5,260 1996,259.5 1996.5,259C 2122.83,258.333 2249.17,258.333 2375.5,259C 2376,259.5 2376.5,260 2377,260.5C 2377.67,296.5 2377.67,332.5 2377,368.5C 2376.5,369 2376,369.5 2375.5,370C 2281.17,370.5 2186.83,370.667 2092.5,370.5C 2092.5,433.167 2092.5,495.833 2092.5,558.5C 2173.17,558.333 2253.83,558.5 2334.5,559C 2335.66,593.095 2335.83,627.262 2335,661.5C 2334.29,662.381 2333.46,663.047 2332.5,663.5 Z"/></g>
<g><path style="opacity:1" fill="#000000" d="M 1392.5,962.5 C 1392.83,768.499 1392.5,574.499 1391.5,380.5C 1390.89,380.624 1390.56,380.957 1390.5,381.5C 1366,403.164 1341.33,424.664 1316.5,446C 1312.3,449.822 1309.47,448.989 1308,443.5C 1307.01,406.415 1307.35,369.415 1309,332.5C 1337.5,308 1366,283.5 1394.5,259C 1424.17,258.333 1453.83,258.333 1483.5,259C 1484.67,259.5 1485.5,260.333 1486,261.5C 1486.67,495.5 1486.67,729.5 1486,963.5C 1485.5,964.667 1484.67,965.5 1483.5,966C 1453.83,966.667 1424.17,966.667 1394.5,966C 1393.18,965.184 1392.51,964.017 1392.5,962.5 Z"/></g>
<g><path style="opacity:1" fill="#000000" d="M 660.5,260.5 C 691.168,260.333 721.835,260.5 752.5,261C 753.126,261.75 753.626,262.584 754,263.5C 754.5,462.5 754.667,661.5 754.5,860.5C 846.834,860.333 939.167,860.5 1031.5,861C 1032,861.5 1032.5,862 1033,862.5C 1033.67,897.5 1033.67,932.5 1033,967.5C 1032.68,969.061 1031.85,970.228 1030.5,971C 907.5,971.667 784.5,971.667 661.5,971C 660.572,970.612 659.905,969.945 659.5,969C 658.335,733.527 658.168,498.027 659,262.5C 659.717,261.956 660.217,261.289 660.5,260.5 Z"/></g>
<g><path style="opacity:1" fill="#fefefe" d="M 315.5,367.5 C 366.327,365.654 402.494,387.654 424,433.5C 435.302,460.675 440.968,489.008 441,518.5C 442.557,572.823 442.89,627.156 442,681.5C 441.422,703.253 439.756,724.92 437,746.5C 436.667,746.833 436.333,747.167 436,747.5C 414.879,728.013 394.046,708.18 373.5,688C 371.097,687.37 369.263,688.203 368,690.5C 351,714.167 334,737.833 317,761.5C 316.333,763.833 316.333,766.167 317,768.5C 340.012,790.679 362.846,813.013 385.5,835.5C 372.987,846.584 358.321,853.084 341.5,855C 314.281,858.448 289.948,851.781 268.5,835C 238.861,807.845 222.361,774.011 219,733.5C 218.138,723.847 217.471,714.18 217,704.5C 215.531,650.508 215.197,596.508 216,542.5C 216.492,525.136 217.492,507.803 219,490.5C 221.653,459.527 231.987,431.527 250,406.5C 263.696,390.08 280.53,378.247 300.5,371C 305.646,369.875 310.646,368.709 315.5,367.5 Z"/></g>
<g><path style="opacity:1" fill="#fdfdfd" d="M 1729.5,367.5 C 1764.4,367.234 1787.56,383.567 1799,416.5C 1803.61,431.491 1806.28,446.824 1807,462.5C 1807.88,490.52 1807.54,518.52 1806,546.5C 1804.53,568.25 1797.53,587.917 1785,605.5C 1763.29,627.209 1737.79,633.043 1708.5,623C 1689.72,614.882 1677.22,601.049 1671,581.5C 1667.39,570.113 1665.06,558.446 1664,546.5C 1663.33,514.167 1663.33,481.833 1664,449.5C 1665.19,429.734 1670.86,411.4 1681,394.5C 1693.21,378.315 1709.37,369.315 1729.5,367.5 Z"/></g>
<g><path style="opacity:1" fill="#969696" d="M 1390.5,381.5 C 1390.56,380.957 1390.89,380.624 1391.5,380.5C 1392.5,574.499 1392.83,768.499 1392.5,962.5C 1391.83,768.833 1391.17,575.167 1390.5,381.5 Z"/></g>
<g><path style="opacity:1" fill="#dadada" d="M 2332.5,663.5 C 2253,664.499 2173.34,664.833 2093.5,664.5C 2093.5,728.833 2093.5,793.167 2093.5,857.5C 2187.33,857.167 2281,857.501 2374.5,858.5C 2280.5,858.5 2186.5,858.5 2092.5,858.5C 2092.5,793.5 2092.5,728.5 2092.5,663.5C 2172.5,663.5 2252.5,663.5 2332.5,663.5 Z"/></g>
<g><path style="opacity:1" fill="#030303" d="M 1112.5,860.5 C 1140.74,860.172 1168.91,860.505 1197,861.5C 1198.15,879.412 1198.65,897.412 1198.5,915.5C 1198.33,932.833 1198.17,950.167 1198,967.5C 1197.75,968.624 1197.25,969.624 1196.5,970.5C 1168.54,971.658 1140.54,971.825 1112.5,971C 1112,970.5 1111.5,970 1111,969.5C 1109.35,934.252 1109.01,898.918 1110,863.5C 1111.04,862.627 1111.88,861.627 1112.5,860.5 Z"/></g>
</svg>
