<?xml version="1.0" encoding="utf-8"?>
<svg viewBox="0 0 323.14914 200" xmlns="http://www.w3.org/2000/svg">
  <g id="layer1" transform="matrix(0.9999999999999999, 0, 0, 0.9999999999999999, -303.4596862792969, -22.960700988769517)">
    <path id="rect15575" style="opacity:1;fill:#0a9646;fill-opacity:1;fill-rule:evenodd;stroke-width:0.0420687;stroke-linecap:square;stroke-miterlimit:10;paint-order:stroke fill markers" d="M 303.45966,22.960701 H 626.6088 V 222.9607 H 303.45966 Z"/>
    <path transform="matrix(0.26458333,0,0,0.26458333,303.45966,22.960701)" d="m 30.353516,5.0117188 c -13.808655,0 -25.0781254,11.2674112 -25.0781254,25.0761722 v 332.957029 47.1211 49.04296 13.88672 252.45508 c 0,13.80862 11.2694704,25.06641 25.0781254,25.06641 H 1190.9805 c 13.8086,0 25.0781,-11.25779 25.0781,-25.06641 V 473.0957 459.57031 401.94727 363.04492 30.087891 c 0,-13.808761 -11.2695,-25.0761722 -25.0781,-25.0761722 z m 0,9.4511722 H 1190.9805 c 8.7398,0 15.6425,6.885058 15.6425,15.625 v 332.957029 38.90235 c 0,0.29959 -0.013,0.61475 -0.037,0.9375 v 7.20703 c 0,8.68754 -6.9941,15.68164 -15.6816,15.68164 h -8.0762 c -0.1869,0.007 -0.3766,0.0176 -0.5586,0.0176 H 38.023438 c -0.18105,0 -0.371847,-0.0102 -0.560547,-0.0176 h -7.097657 c -8.687546,0 -15.68164,-6.9941 -15.68164,-15.68164 V 30.152344 c 0,-1.658433 0.257595,-3.253829 0.730468,-4.751953 0.01365,-0.04461 0.03284,-0.08643 0.04688,-0.13086 1.99686,-6.321925 7.84094,-10.80664 14.892578,-10.80664 z M 30.28125,435.30469 h 6.958984 1145.628866 8.1172 c 8.6414,0 15.5996,6.95633 15.5996,15.59765 v 7.5918 c 0.024,0.37296 0.037,0.7339 0.037,1.07617 v 13.52539 252.45508 c 0,5.47634 -2.7106,10.22208 -6.8847,13.00391 -2.4923,1.6862 -5.5034,2.66992 -8.752,2.66992 H 30.28125 c -8.641361,0 -15.597656,-6.9563 -15.597656,-15.59766 V 450.90234 c 0,-8.64132 6.956295,-15.59765 15.597656,-15.59765 z" style="color:#000000;font-style:normal;font-variant:normal;font-weight:normal;font-stretch:normal;font-size:medium;line-height:normal;font-family:sans-serif;font-variant-ligatures:normal;font-variant-position:normal;font-variant-caps:normal;font-variant-numeric:normal;font-variant-alternates:normal;font-variant-east-asian:normal;font-feature-settings:normal;font-variation-settings:normal;text-indent:0;text-align:start;text-decoration:none;text-decoration-line:none;text-decoration-style:solid;text-decoration-color:#000000;letter-spacing:normal;word-spacing:normal;text-transform:none;writing-mode:lr-tb;direction:ltr;text-orientation:mixed;dominant-baseline:auto;baseline-shift:baseline;text-anchor:start;white-space:normal;shape-padding:0;shape-margin:0;inline-size:0;clip-rule:nonzero;display:inline;overflow:visible;visibility:visible;opacity:1;isolation:auto;mix-blend-mode:normal;color-interpolation:sRGB;color-interpolation-filters:linearRGB;solid-color:#000000;solid-opacity:1;vector-effect:none;fill:#ffffff;fill-opacity:1;fill-rule:evenodd;stroke:none;stroke-width:2.09199;stroke-linecap:square;stroke-linejoin:miter;stroke-miterlimit:10;stroke-dasharray:none;stroke-dashoffset:0;stroke-opacity:1;paint-order:stroke fill markers;color-rendering:auto;image-rendering:auto;shape-rendering:auto;text-rendering:auto;enable-background:accumulate;stop-color:#000000;stop-opacity:1" id="path15582"/>
    <path d="m 324.12038,67.193614 h 60.89334 v 27.821331 h -60.89334 z" style="opacity:1;fill:#ffd70f;fill-opacity:1;fill-rule:evenodd;stroke:none;stroke-width:0.553508;stroke-linecap:square;stroke-miterlimit:10;stroke-dasharray:none;stroke-opacity:1;paint-order:stroke fill markers" id="rect15605"/>
    <path id="path15631" d="m 326.18273,67.759747 c -0.81115,0 -1.47443,0.660164 -1.47443,1.471307 v 23.746432 c 0,0.811142 0.66328,1.471323 1.47443,1.471323 h 56.7905 c 0.81117,0 1.4744,-0.660181 1.4744,-1.471323 V 69.231054 c 0,-0.811143 -0.66328,-1.471307 -1.4744,-1.471307 z m 0,0.535017 h 56.7905 c 0.52266,0 0.93627,0.413622 0.93627,0.93629 v 23.746432 c 0,0.522654 -0.41353,0.933189 -0.93627,0.933189 h -56.7905 c -0.52266,0 -0.93628,-0.410555 -0.93628,-0.933189 V 69.231054 c 0,-0.522672 0.41354,-0.93629 0.93628,-0.93629 z" style="color:#000000;font-style:normal;font-variant:normal;font-weight:normal;font-stretch:normal;font-size:medium;line-height:normal;font-family:sans-serif;font-variant-ligatures:normal;font-variant-position:normal;font-variant-caps:normal;font-variant-numeric:normal;font-variant-alternates:normal;font-variant-east-asian:normal;font-feature-settings:normal;font-variation-settings:normal;text-indent:0;text-align:start;text-decoration:none;text-decoration-line:none;text-decoration-style:solid;text-decoration-color:#000000;letter-spacing:normal;word-spacing:normal;text-transform:none;writing-mode:lr-tb;direction:ltr;text-orientation:mixed;dominant-baseline:auto;baseline-shift:baseline;text-anchor:start;white-space:normal;shape-padding:0;shape-margin:0;inline-size:0;clip-rule:nonzero;display:inline;overflow:visible;visibility:visible;opacity:1;isolation:auto;mix-blend-mode:normal;color-interpolation:sRGB;color-interpolation-filters:linearRGB;solid-color:#000000;solid-opacity:1;vector-effect:none;fill:#000000;fill-opacity:1;fill-rule:evenodd;stroke:none;stroke-width:0.119062;stroke-linecap:square;stroke-linejoin:miter;stroke-miterlimit:10;stroke-dasharray:none;stroke-dashoffset:0;stroke-opacity:1;paint-order:stroke fill markers;color-rendering:auto;image-rendering:auto;shape-rendering:auto;text-rendering:auto;enable-background:accumulate;stop-color:#000000;stop-opacity:1"/>
    <path id="path17496" style="font-size:15.1831px;line-height:1.46;font-family:'Singapore Road Signs';-inkscape-font-specification:'Singapore Road Signs';text-align:center;text-anchor:middle;opacity:1;fill:#ffffff;fill-opacity:1;stroke-width:0.0756548" d="m 570.47468,59.120043 v 50.614317 h 35.43541 V 59.120043 Z m 1.38203,1.660034 h 32.65274 v 47.566083 h -32.65274 z m 13.66823,3.646909 -2.23483,8.869719 h 3.92184 l 0.28216,-8.869719 z m 3.35329,0 0.28216,8.869719 h 3.92385 l -2.23686,-8.869719 z m -15.90932,9.992316 v 1.942234 l 3.06692,1.10806 v 0.584703 h 1.411 v -0.584703 c 0,0 2.08662,-0.313671 4.52568,-0.535349 1.95306,-0.177516 4.1317,-0.271988 5.64407,-0.278037 1.79866,-0.0063 4.45804,0.09363 6.73975,0.288436 2.51319,0.214479 4.5713,0.524984 4.5713,0.524984 v 0.5847 h 1.38199 v -0.5847 l 3.06685,-1.108064 v -1.942233 z m 9.21108,3.620663 -6.70448,26.681115 h 10.04943 l 1.39442,-26.681115 z m 7.25642,0 1.39441,26.681115 h 10.0494 l -6.70443,-26.681115 z"/>
    <g style="font-size:14.7905px;line-height:0;font-family:'Singapore Road Signs';-inkscape-font-specification:'Singapore Road Signs';text-align:center;text-anchor:middle;opacity:1;fill:#860000;fill-opacity:1;stroke-width:6.45213" id="layer1-8" transform="matrix(0.08718024,0,0,0.08718024,-145.22047,195.49013)">
      <circle style="opacity:1;fill:#f00a0a;fill-opacity:1;fill-rule:nonzero;stroke:none;stroke-width:3622.55;stroke-linecap:round;stroke-linejoin:round;stroke-miterlimit:4;stroke-dasharray:none;stroke-opacity:1;paint-order:stroke fill markers" id="path815" cx="6380.9966" cy="-193.29752" r="350"/>
      <circle cy="-193.29752" cx="6380.9966" id="circle817" style="opacity:1;fill:#ffffff;fill-opacity:1;fill-rule:nonzero;stroke:none;stroke-width:2587.55;stroke-linecap:round;stroke-linejoin:round;stroke-miterlimit:4;stroke-dasharray:none;stroke-opacity:1;paint-order:stroke fill markers" r="263.821"/>
      <g aria-label="20 " style="font-style:normal;font-variant:normal;font-weight:bold;font-stretch:normal;font-size:414.864px;line-height:0;font-family:Giaothong1;-inkscape-font-specification:'Giaothong1 Bold';letter-spacing:0px;word-spacing:0px;fill:#000000;fill-opacity:1;stroke:none;stroke-width:24.7849" id="text874" transform="matrix(-1,0,0,1,1299.029,-383.45)">
        <g aria-label="90" transform="translate(2310.2259,387.54849)" style="font-style:normal;font-variant:normal;font-weight:bold;font-stretch:normal;font-size:414.864px;line-height:0;font-family:Giaothong1;-inkscape-font-specification:'Giaothong1 Bold';letter-spacing:0px;word-spacing:0px;fill:#000000;fill-opacity:1;stroke:none;stroke-width:53.5539" id="text844"/>
      </g>
    </g>
    <g style="font-size:14.7905px;line-height:0;font-family:'Singapore Road Signs';-inkscape-font-specification:'Singapore Road Signs';text-align:center;text-anchor:middle;opacity:1;fill:#fff000;fill-opacity:1;stroke-width:6.45221" id="layer1-7" transform="matrix(0.08717968,0,0,0.08717968,488.77841,183.34565)">
      <circle cy="-54" cx="351" id="circle817-6" style="opacity:1;fill:#0046aa;fill-opacity:1;fill-rule:nonzero;stroke:none;stroke-width:3622.58;stroke-linecap:round;stroke-linejoin:round;stroke-miterlimit:4;stroke-dasharray:none;stroke-opacity:1;paint-order:stroke fill markers" r="350"/>
      <path id="rect984" style="font-style: normal; font-variant: normal; font-weight: bold; font-stretch: normal; font-size: 414.864px; line-height: 0; font-family: Giaothong1; letter-spacing: 0px; word-spacing: 0px; opacity: 1; fill: rgb(255, 255, 255); fill-opacity: 1; fill-rule: nonzero; stroke: none; stroke-width: 0.344279; stroke-linecap: round; stroke-linejoin: miter; stroke-miterlimit: 10; stroke-dasharray: none; stroke-opacity: 1; paint-order: stroke; visibility: hidden;" d="m 851.18164,518.03906 c -16.32678,0 -29.4707,13.14393 -29.4707,29.47071 v 80.94921 c 0,16.32678 13.14392,29.47071 29.4707,29.47071 16.32678,0 29.4707,-13.14393 29.4707,-29.47071 v -80.94921 c 0,-16.32678 -13.14392,-29.47071 -29.4707,-29.47071 z m -69.94336,1.23828 -26.10937,69.75391 c -2.72781,7.40406 -3.70118,11.30112 -3.70118,28.44727 0,18.12042 0.7789,22.01697 4.67579,28.25195 5.26075,8.37828 14.22308,13.44336 24.93945,13.44336 10.91123,0 20.0688,-4.87023 25.13476,-13.44336 3.70197,-6.23498 4.48047,-10.13153 4.48047,-28.25195 0,-22.01726 -0.77798,-26.88814 -4.28515,-32.34375 -3.31232,-5.06591 -9.74347,-8.96289 -16.75782,-8.96289 -4.28653,0 -7.01308,0.77773 -8.37695,1.75195 l -0.39062,-0.38867 22.60156,-58.25782 z m 69.94336,18.74024 c 5.25853,0 9.49219,4.23365 9.49219,9.49219 v 80.94921 c 0,5.25853 -4.23366,9.49219 -9.49219,9.49219 -5.25853,0 -9.49219,-4.23366 -9.49219,-9.49219 v -80.94921 c 0,-5.25854 4.23366,-9.49219 9.49219,-9.49219 z m -70.13867,55.68945 c 5.0659,0 9.74219,3.89738 9.74219,9.9375 v 25.71875 c 0,6.04012 -4.67629,9.9375 -9.74219,9.9375 -5.0659,0 -9.74219,-3.89738 -9.74219,-9.9375 v -25.71875 c 0,-6.04012 4.67629,-9.9375 9.74219,-9.9375 z" transform="matrix(3.0349198,0,0,3.0349198,-2125.7104,-1839.7056)"/>
    </g>
    <g aria-label="6" id="text19759" style="font-size:31.1478px;line-height:1.3;font-family:'Singapore Road Signs';-inkscape-font-specification:'Singapore Road Signs';text-align:center;text-anchor:middle;stroke-width:0.159861" transform="matrix(1.6550836,0,0,1.6550836,-321.31659,-238.56049)"/>
    <path d="M 369.032 46.797 Q 368.927 46.797 368.927 46.691 L 368.927 34.097 Q 368.927 33.991 369.032 33.991 L 370.843 33.991 Q 370.896 33.991 370.931 34.044 L 376.468 42.763 L 376.468 34.097 Q 376.468 33.991 376.573 33.991 L 378.489 33.991 Q 378.595 33.991 378.595 34.097 L 378.595 46.691 Q 378.595 46.797 378.489 46.797 L 376.688 46.797 Q 376.635 46.797 376.6 46.744 L 371.045 38.025 L 371.045 46.691 Q 371.045 46.797 370.948 46.797 Z M 381.31 46.797 Q 381.204 46.797 381.204 46.691 L 381.204 34.097 Q 381.204 33.991 381.31 33.991 L 383.217 33.991 Q 383.322 33.991 383.322 34.097 L 383.322 46.691 Q 383.322 46.797 383.217 46.797 Z M 385.975 46.797 Q 385.869 46.797 385.869 46.691 L 385.869 34.097 Q 385.869 33.991 385.975 33.991 L 387.785 33.991 Q 387.838 33.991 387.873 34.044 L 393.41 42.763 L 393.41 34.097 Q 393.41 33.991 393.516 33.991 L 395.432 33.991 Q 395.537 33.991 395.537 34.097 L 395.537 46.691 Q 395.537 46.797 395.432 46.797 L 393.63 46.797 Q 393.577 46.797 393.542 46.744 L 387.988 38.025 L 387.988 46.691 Q 387.988 46.797 387.891 46.797 Z M 405.187 46.797 Q 405.082 46.797 405.082 46.691 L 405.082 41.295 L 400.292 41.295 L 400.292 46.691 Q 400.292 46.797 400.186 46.797 L 398.279 46.797 Q 398.173 46.797 398.173 46.691 L 398.173 34.097 Q 398.173 33.991 398.279 33.991 L 400.186 33.991 Q 400.292 33.991 400.292 34.097 L 400.292 39.388 L 405.082 39.388 L 405.082 34.097 Q 405.082 33.991 405.187 33.991 L 407.094 33.991 Q 407.2 33.991 407.2 34.097 L 407.2 46.691 Q 407.2 46.797 407.094 46.797 Z M 414.258 46.797 Q 414.153 46.797 414.153 46.691 L 414.153 34.097 Q 414.153 33.991 414.258 33.991 L 419.145 33.991 Q 420.999 33.991 421.992 34.984 Q 422.977 35.96 422.977 37.48 Q 422.977 38.315 422.59 39.027 Q 422.238 39.695 421.28 40.187 Q 422.168 40.469 422.652 41.268 Q 422.906 41.708 423.043 42.169 Q 423.179 42.631 423.179 43.123 Q 423.179 44.802 422.098 45.804 Q 421.026 46.797 419.575 46.797 Z M 416.271 41.207 L 416.271 44.793 L 419.11 44.793 Q 420.103 44.793 420.586 44.257 Q 421.061 43.721 421.061 43 Q 421.061 42.297 420.586 41.752 Q 420.129 41.207 419.11 41.207 Z M 416.271 35.898 L 416.271 39.3 L 418.934 39.3 Q 419.927 39.3 420.384 38.808 Q 420.859 38.324 420.859 37.603 Q 420.859 36.892 420.384 36.408 Q 419.909 35.898 418.934 35.898 Z M 425.208 46.797 Q 425.102 46.797 425.102 46.691 L 425.102 34.097 Q 425.102 33.991 425.208 33.991 L 427.115 33.991 Q 427.221 33.991 427.221 34.097 L 427.221 46.691 Q 427.221 46.797 427.115 46.797 Z M 426.553 32.857 Q 426.535 32.857 426.509 32.844 Q 426.482 32.831 426.473 32.822 L 424.048 30.256 Q 423.995 30.203 424.026 30.142 Q 424.056 30.08 424.127 30.08 L 426.06 30.08 Q 426.113 30.08 426.148 30.133 L 427.985 32.699 Q 428.012 32.761 427.99 32.809 Q 427.968 32.857 427.897 32.857 Z M 429.876 46.797 Q 429.771 46.797 429.771 46.691 L 429.771 34.097 Q 429.771 33.991 429.876 33.991 L 431.687 33.991 Q 431.74 33.991 431.775 34.044 L 437.312 42.763 L 437.312 34.097 Q 437.312 33.991 437.417 33.991 L 439.333 33.991 Q 439.439 33.991 439.439 34.097 L 439.439 46.691 Q 439.439 46.797 439.333 46.797 L 437.532 46.797 Q 437.479 46.797 437.444 46.744 L 431.889 38.025 L 431.889 46.691 Q 431.889 46.797 431.792 46.797 Z M 449.088 46.797 Q 448.983 46.797 448.983 46.691 L 448.983 41.295 L 444.193 41.295 L 444.193 46.691 Q 444.193 46.797 444.087 46.797 L 442.18 46.797 Q 442.075 46.797 442.075 46.691 L 442.075 34.097 Q 442.075 33.991 442.18 33.991 L 444.087 33.991 Q 444.193 33.991 444.193 34.097 L 444.193 39.388 L 448.983 39.388 L 448.983 34.097 Q 448.983 33.991 449.088 33.991 L 450.996 33.991 Q 451.101 33.991 451.101 34.097 L 451.101 46.691 Q 451.101 46.797 450.996 46.797 Z" transform="matrix(1.310387, 0, 0, 1.310387, -59.698296, -1.169035)" style="fill: rgb(255, 255, 255); text-wrap-mode: nowrap;"/>
    <path transform="matrix(1.310387, 0, 0, 1.310387, -59.698296, -1.169035)" style="fill: rgb(255, 255, 255); text-wrap-mode: nowrap;"/>
    <path d="M 374.134 72.357 Q 374.029 72.357 374.029 72.251 L 374.029 66.855 L 369.239 66.855 L 369.239 72.251 Q 369.239 72.357 369.133 72.357 L 367.226 72.357 Q 367.121 72.357 367.121 72.251 L 367.121 59.657 Q 367.121 59.551 367.226 59.551 L 369.133 59.551 Q 369.239 59.551 369.239 59.657 L 369.239 64.948 L 374.029 64.948 L 374.029 59.657 Q 374.029 59.551 374.134 59.551 L 376.042 59.551 Q 376.147 59.551 376.147 59.657 L 376.147 72.251 Q 376.147 72.357 376.042 72.357 Z M 377.648 72.348 Q 377.587 72.348 377.56 72.304 Q 377.534 72.26 377.552 72.207 L 382.157 59.604 Q 382.175 59.534 382.245 59.534 L 383.818 59.534 Q 383.845 59.534 383.875 59.556 Q 383.906 59.577 383.915 59.604 L 388.512 72.207 Q 388.529 72.26 388.503 72.304 Q 388.477 72.348 388.424 72.348 L 386.411 72.348 Q 386.341 72.348 386.323 72.278 L 385.374 69.5 L 380.733 69.5 Q 380.487 70.212 380.246 70.893 Q 380.004 71.575 379.758 72.278 Q 379.749 72.304 379.718 72.326 Q 379.687 72.348 379.661 72.348 Z M 384.741 67.611 Q 384.724 67.549 384.693 67.479 Q 384.662 67.409 384.644 67.356 Q 384.495 66.925 384.372 66.56 Q 384.249 66.196 384.152 65.923 Q 384.091 65.747 384.034 65.58 Q 383.977 65.413 383.924 65.264 Q 383.88 65.123 383.836 64.996 Q 383.792 64.869 383.748 64.745 Q 383.669 64.491 383.585 64.236 Q 383.502 63.981 383.414 63.708 Q 383.37 63.585 383.322 63.436 Q 383.273 63.286 383.221 63.119 Q 383.194 63.032 383.181 62.983 Q 383.168 62.935 383.15 62.887 Q 383.133 62.838 383.111 62.777 Q 383.089 62.715 383.054 62.601 Q 382.957 62.891 382.873 63.137 Q 382.79 63.383 382.72 63.594 Q 382.702 63.647 382.693 63.691 Q 382.685 63.735 382.667 63.779 Q 382.623 63.928 382.575 64.06 Q 382.526 64.192 382.482 64.324 Q 382.438 64.464 382.394 64.596 Q 382.351 64.728 382.307 64.851 Q 382.219 65.115 382.126 65.405 Q 382.034 65.695 381.92 66.011 Q 381.806 66.327 381.683 66.692 Q 381.56 67.057 381.366 67.611 Z M 382.917 58.417 Q 382.917 58.417 382.735 58.417 Q 382.553 58.417 382.333 58.417 L 382.333 58.013 Q 382.43 57.459 383.018 57.108 Q 383.941 56.721 383.862 56.194 Q 383.739 55.658 383.036 55.649 Q 382.104 55.666 382.052 56.554 L 380.742 56.554 Q 380.742 56.062 380.922 55.737 Q 381.102 55.411 381.41 55.104 Q 382.017 54.524 382.992 54.506 Q 384.02 54.524 384.68 55.086 Q 384.978 55.385 385.145 55.666 Q 385.312 55.948 385.321 56.378 Q 385.268 56.985 384.644 57.442 Q 384.117 57.697 383.836 57.846 L 383.73 57.96 L 383.616 58.136 L 383.599 58.417 Q 383.282 58.417 382.917 58.417 Z M 390.076 72.357 Q 389.97 72.357 389.97 72.251 L 389.97 59.657 Q 389.97 59.551 390.076 59.551 L 391.983 59.551 Q 392.089 59.551 392.089 59.657 L 392.089 72.251 Q 392.089 72.357 391.983 72.357 Z M 401.071 61.573 L 401.071 65.422 L 403.805 65.422 Q 404.815 65.422 405.308 64.816 Q 405.809 64.227 405.809 63.497 Q 405.809 62.408 405.035 61.907 Q 404.534 61.573 403.734 61.573 Z M 399.059 72.357 Q 398.953 72.357 398.953 72.251 L 398.953 59.657 Q 398.953 59.551 399.059 59.551 L 403.629 59.551 Q 404.385 59.551 405.062 59.709 Q 405.747 59.868 406.521 60.465 Q 406.819 60.702 407.07 61.015 Q 407.32 61.327 407.522 61.704 Q 407.716 62.091 407.821 62.557 Q 407.927 63.023 407.927 63.55 Q 407.927 64.93 406.89 66.187 Q 405.853 67.435 403.875 67.435 L 401.071 67.435 L 401.071 72.251 Q 401.071 72.357 400.966 72.357 Z M 416.635 72.357 Q 416.53 72.357 416.53 72.251 L 416.53 66.855 L 411.74 66.855 L 411.74 72.251 Q 411.74 72.357 411.634 72.357 L 409.727 72.357 Q 409.621 72.357 409.621 72.251 L 409.621 59.657 Q 409.621 59.551 409.727 59.551 L 411.634 59.551 Q 411.74 59.551 411.74 59.657 L 411.74 64.948 L 416.53 64.948 L 416.53 59.657 Q 416.53 59.551 416.635 59.551 L 418.542 59.551 Q 418.648 59.551 418.648 59.657 L 418.648 72.251 Q 418.648 72.357 418.542 72.357 Z M 420.861 65.958 Q 420.861 64.807 420.892 64.077 Q 420.923 63.348 420.975 63.014 Q 421.037 62.68 421.151 62.372 Q 421.265 62.065 421.432 61.766 L 421.424 61.766 Q 421.881 60.913 422.9 60.184 Q 423.928 59.446 425.458 59.446 Q 426.969 59.446 427.998 60.184 Q 429.035 60.931 429.492 61.766 Q 429.817 62.364 429.931 63.014 Q 429.993 63.348 430.024 64.077 Q 430.054 64.807 430.054 65.958 Q 430.054 68.217 429.931 68.911 Q 429.87 69.254 429.76 69.562 Q 429.65 69.869 429.501 70.151 Q 429.035 70.994 427.998 71.733 Q 426.961 72.462 425.458 72.462 Q 423.937 72.462 422.9 71.733 Q 421.881 71.012 421.424 70.151 L 421.432 70.151 Q 421.265 69.852 421.151 69.549 Q 421.037 69.245 420.975 68.911 Q 420.923 68.577 420.892 67.844 Q 420.861 67.11 420.861 65.958 Z M 422.979 65.958 Q 422.979 66.916 423.006 67.536 Q 423.032 68.156 423.102 68.454 Q 423.173 68.727 423.3 68.995 Q 423.427 69.263 423.586 69.465 Q 423.867 69.834 424.333 70.094 Q 424.799 70.353 425.458 70.353 Q 426.108 70.353 426.574 70.094 Q 427.04 69.834 427.312 69.465 Q 427.681 69.017 427.796 68.454 Q 427.936 67.892 427.936 65.958 Q 427.936 65 427.901 64.381 Q 427.866 63.761 427.796 63.471 Q 427.734 63.19 427.611 62.922 Q 427.488 62.654 427.321 62.443 Q 427.189 62.276 427 62.118 Q 426.811 61.959 426.574 61.841 Q 426.337 61.722 426.055 61.647 Q 425.774 61.573 425.458 61.573 Q 424.799 61.573 424.333 61.836 Q 423.867 62.1 423.586 62.443 Q 423.419 62.654 423.296 62.922 Q 423.173 63.19 423.102 63.471 Q 423.032 63.77 423.006 64.394 Q 422.979 65.018 422.979 65.958 Z M 426.003 58.417 Q 425.985 58.417 425.959 58.404 Q 425.932 58.391 425.924 58.382 L 423.498 55.816 Q 423.445 55.763 423.476 55.702 Q 423.507 55.64 423.577 55.64 L 425.51 55.64 Q 425.563 55.64 425.598 55.693 L 427.435 58.259 Q 427.462 58.321 427.44 58.369 Q 427.418 58.417 427.347 58.417 Z M 432.368 72.357 Q 432.262 72.357 432.262 72.251 L 432.262 59.657 Q 432.262 59.551 432.368 59.551 L 434.178 59.551 Q 434.231 59.551 434.266 59.604 L 439.803 68.323 L 439.803 59.657 Q 439.803 59.551 439.909 59.551 L 441.825 59.551 Q 441.93 59.551 441.93 59.657 L 441.93 72.251 Q 441.93 72.357 441.825 72.357 L 440.023 72.357 Q 439.97 72.357 439.935 72.304 L 434.381 63.585 L 434.381 72.251 Q 434.381 72.357 434.284 72.357 Z M 448.759 67.233 Q 448.653 67.233 448.653 67.127 L 448.653 65.317 Q 448.653 65.22 448.759 65.22 L 453.232 65.22 Q 453.338 65.22 453.338 65.317 L 453.338 67.883 Q 453.338 69.826 452.002 71.135 Q 450.648 72.462 448.741 72.462 Q 447.221 72.462 446.184 71.733 Q 445.164 71.012 444.707 70.151 L 444.716 70.151 Q 444.549 69.852 444.434 69.549 Q 444.32 69.245 444.259 68.911 Q 444.206 68.577 444.175 67.844 Q 444.144 67.11 444.144 65.958 Q 444.144 64.807 444.175 64.077 Q 444.206 63.348 444.259 63.014 Q 444.32 62.68 444.434 62.372 Q 444.549 62.065 444.716 61.766 L 444.707 61.766 Q 445.164 60.913 446.184 60.184 Q 447.212 59.446 448.741 59.446 Q 450.569 59.446 451.765 60.571 Q 452.977 61.696 453.267 63.26 Q 453.285 63.313 453.25 63.348 Q 453.215 63.383 453.162 63.383 L 451.149 63.383 Q 451.07 63.383 451.053 63.313 Q 450.938 62.961 450.727 62.658 Q 450.517 62.355 450.209 62.091 Q 449.629 61.573 448.741 61.573 Q 448.082 61.573 447.616 61.836 Q 447.15 62.1 446.869 62.443 Q 446.702 62.654 446.579 62.922 Q 446.456 63.19 446.386 63.471 Q 446.315 63.77 446.289 64.394 Q 446.263 65.018 446.263 65.958 Q 446.263 66.916 446.289 67.536 Q 446.315 68.156 446.386 68.454 Q 446.456 68.727 446.583 68.995 Q 446.711 69.263 446.869 69.465 Q 447.15 69.834 447.616 70.094 Q 448.082 70.353 448.741 70.353 Q 449.787 70.353 450.499 69.641 Q 451.22 68.929 451.22 67.778 L 451.22 67.233 Z" transform="matrix(1.310387, 0, 0, 1.310387, -59.698296, -1.169035)" style="fill: rgb(255, 255, 255); text-wrap-mode: nowrap;"/>
    <path d="M 426.152 119.118 Q 426.045 119.118 426.045 119.011 L 426.045 106.277 Q 426.045 106.17 426.152 106.17 L 434.292 106.17 Q 434.399 106.17 434.399 106.277 L 434.399 108.107 Q 434.399 108.214 434.292 108.214 L 428.187 108.214 L 428.187 111.626 L 433.377 111.626 Q 433.484 111.626 433.484 111.733 L 433.484 113.457 Q 433.484 113.555 433.377 113.555 L 428.187 113.555 L 428.187 117.092 L 434.292 117.092 Q 434.399 117.092 434.399 117.198 L 434.399 119.011 Q 434.399 119.118 434.292 119.118 Z M 442.571 119.118 Q 442.517 119.118 442.482 119.065 L 439.78 114.479 Q 439.105 115.634 438.429 116.772 Q 437.754 117.909 437.079 119.065 Q 437.043 119.118 436.99 119.118 L 434.813 119.118 Q 434.741 119.118 434.715 119.069 Q 434.688 119.02 434.724 118.958 L 438.589 112.48 Q 437.674 110.933 436.776 109.405 Q 435.879 107.876 434.972 106.33 Q 434.937 106.268 434.964 106.219 Q 434.99 106.17 435.052 106.17 L 437.239 106.17 Q 437.292 106.17 437.327 106.223 L 439.78 110.489 Q 440.393 109.422 441.007 108.361 Q 441.62 107.299 442.233 106.223 Q 442.268 106.17 442.322 106.17 L 444.508 106.17 Q 444.57 106.17 444.597 106.219 Q 444.623 106.268 444.588 106.33 L 440.971 112.48 Q 441.949 114.106 442.908 115.719 Q 443.868 117.332 444.846 118.958 Q 444.881 119.02 444.855 119.069 Q 444.828 119.118 444.757 119.118 Z M 448.15 108.214 L 448.15 112.106 L 450.914 112.106 Q 451.936 112.106 452.433 111.493 Q 452.94 110.898 452.94 110.16 Q 452.94 109.058 452.158 108.552 Q 451.651 108.214 450.843 108.214 Z M 446.115 119.118 Q 446.008 119.118 446.008 119.011 L 446.008 106.277 Q 446.008 106.17 446.115 106.17 L 450.736 106.17 Q 451.5 106.17 452.184 106.33 Q 452.878 106.49 453.66 107.094 Q 453.962 107.334 454.215 107.65 Q 454.468 107.965 454.673 108.347 Q 454.868 108.738 454.975 109.209 Q 455.081 109.68 455.081 110.213 Q 455.081 111.609 454.033 112.879 Q 452.984 114.141 450.985 114.141 L 448.15 114.141 L 448.15 119.011 Q 448.15 119.118 448.043 119.118 Z M 458.767 108.098 L 458.767 111.751 L 461.584 111.751 Q 462.615 111.751 463.13 111.182 Q 463.646 110.613 463.646 109.831 Q 463.646 109.387 463.49 109.04 Q 463.335 108.694 463.041 108.472 Q 462.784 108.294 462.441 108.196 Q 462.099 108.098 461.699 108.098 Z M 456.732 119.118 Q 456.625 119.118 456.625 119.011 L 456.625 106.277 Q 456.625 106.17 456.732 106.17 L 461.717 106.17 Q 462.544 106.17 463.21 106.397 Q 463.877 106.623 464.374 107.041 Q 464.632 107.281 464.868 107.587 Q 465.103 107.894 465.285 108.249 Q 465.467 108.605 465.574 109.005 Q 465.681 109.405 465.681 109.831 Q 465.681 110.462 465.503 111.027 Q 465.325 111.591 465.005 112.08 Q 464.676 112.533 464.241 112.875 Q 463.806 113.217 463.255 113.422 Q 463.974 114.799 464.703 116.19 Q 465.432 117.58 466.152 118.958 Q 466.178 119.02 466.152 119.069 Q 466.125 119.118 466.063 119.118 L 463.77 119.118 Q 463.743 119.118 463.717 119.096 Q 463.69 119.073 463.672 119.056 L 461.068 113.679 L 458.767 113.679 L 458.767 119.011 Q 458.767 119.118 458.66 119.118 Z M 467.661 119.118 Q 467.554 119.118 467.554 119.011 L 467.554 106.277 Q 467.554 106.17 467.661 106.17 L 475.801 106.17 Q 475.908 106.17 475.908 106.277 L 475.908 108.107 Q 475.908 108.214 475.801 108.214 L 469.696 108.214 L 469.696 111.626 L 474.886 111.626 Q 474.993 111.626 474.993 111.733 L 474.993 113.457 Q 474.993 113.555 474.886 113.555 L 469.696 113.555 L 469.696 117.092 L 475.801 117.092 Q 475.908 117.092 475.908 117.198 L 475.908 119.011 Q 475.908 119.118 475.801 119.118 Z M 477.686 115.848 Q 477.712 115.812 477.757 115.812 Q 477.801 115.812 477.837 115.839 Q 478.539 116.407 479.45 116.75 Q 480.36 117.092 481.374 117.092 Q 482.511 117.092 483.169 116.621 Q 483.791 116.167 483.791 115.421 Q 483.791 114.017 482.218 113.804 L 482.227 113.804 Q 482.005 113.777 481.805 113.75 Q 481.605 113.724 481.405 113.697 Q 481.205 113.67 480.996 113.639 Q 480.787 113.608 480.538 113.573 Q 479.703 113.457 479.05 113.15 Q 478.396 112.844 477.952 112.337 Q 477.508 111.822 477.286 111.213 Q 477.063 110.604 477.063 109.885 Q 477.063 108.196 478.183 107.139 Q 479.312 106.063 481.32 106.063 Q 481.916 106.063 482.48 106.165 Q 483.044 106.268 483.573 106.445 Q 484.102 106.623 484.586 106.868 Q 485.07 107.112 485.515 107.405 Q 485.604 107.467 485.541 107.556 L 484.466 109.147 Q 484.404 109.227 484.324 109.174 Q 483.631 108.738 482.849 108.476 Q 482.067 108.214 481.231 108.214 Q 480.805 108.214 480.44 108.316 Q 480.076 108.418 479.783 108.649 Q 479.205 109.067 479.205 109.92 Q 479.205 110.409 479.596 110.871 Q 479.792 111.084 480.121 111.231 Q 480.449 111.378 480.929 111.449 Q 481.187 111.493 481.534 111.542 Q 481.88 111.591 482.351 111.644 Q 484.173 111.866 485.053 112.986 Q 485.932 114.079 485.932 115.421 Q 485.932 117.216 484.679 118.229 Q 483.417 119.225 481.356 119.225 Q 478.45 119.225 476.415 117.447 Q 476.379 117.421 476.379 117.376 Q 476.379 117.332 476.406 117.296 Z M 487.955 115.848 Q 487.982 115.812 488.027 115.812 Q 488.071 115.812 488.107 115.839 Q 488.809 116.407 489.719 116.75 Q 490.63 117.092 491.643 117.092 Q 492.781 117.092 493.439 116.621 Q 494.061 116.167 494.061 115.421 Q 494.061 114.017 492.488 113.804 L 492.497 113.804 Q 492.274 113.777 492.074 113.75 Q 491.874 113.724 491.675 113.697 Q 491.475 113.67 491.266 113.639 Q 491.057 113.608 490.808 113.573 Q 489.973 113.457 489.32 113.15 Q 488.666 112.844 488.222 112.337 Q 487.778 111.822 487.556 111.213 Q 487.333 110.604 487.333 109.885 Q 487.333 108.196 488.453 107.139 Q 489.582 106.063 491.59 106.063 Q 492.186 106.063 492.75 106.165 Q 493.314 106.268 493.843 106.445 Q 494.372 106.623 494.856 106.868 Q 495.34 107.112 495.785 107.405 Q 495.873 107.467 495.811 107.556 L 494.736 109.147 Q 494.674 109.227 494.594 109.174 Q 493.901 108.738 493.119 108.476 Q 492.337 108.214 491.501 108.214 Q 491.075 108.214 490.71 108.316 Q 490.346 108.418 490.053 108.649 Q 489.475 109.067 489.475 109.92 Q 489.475 110.409 489.866 110.871 Q 490.062 111.084 490.39 111.231 Q 490.719 111.378 491.199 111.449 Q 491.457 111.493 491.803 111.542 Q 492.15 111.591 492.621 111.644 Q 494.443 111.866 495.323 112.986 Q 496.202 114.079 496.202 115.421 Q 496.202 117.216 494.949 118.229 Q 493.687 119.225 491.626 119.225 Q 488.72 119.225 486.685 117.447 Q 486.649 117.421 486.649 117.376 Q 486.649 117.332 486.676 117.296 Z M 500.211 119.118 Q 500.123 119.118 500.105 119.038 L 496.914 106.303 Q 496.897 106.25 496.932 106.21 Q 496.968 106.17 497.021 106.17 L 499.065 106.17 Q 499.154 106.17 499.172 106.25 L 501.091 114.95 Q 501.678 112.764 502.273 110.604 Q 502.869 108.445 503.464 106.25 Q 503.482 106.17 503.571 106.17 L 504.966 106.17 Q 505.046 106.17 505.064 106.25 L 507.445 114.95 Q 507.925 112.764 508.405 110.604 Q 508.885 108.445 509.365 106.25 Q 509.382 106.17 509.471 106.17 L 511.515 106.17 Q 511.569 106.17 511.604 106.21 Q 511.64 106.25 511.622 106.303 L 508.432 119.038 Q 508.414 119.118 508.325 119.118 L 506.716 119.118 Q 506.636 119.118 506.619 119.038 L 504.264 110.196 Q 503.677 112.426 503.091 114.621 Q 502.504 116.816 501.918 119.038 Q 501.9 119.118 501.82 119.118 Z M 511.536 119.109 Q 511.473 119.109 511.447 119.065 Q 511.42 119.02 511.438 118.967 L 516.095 106.223 Q 516.112 106.152 516.183 106.152 L 517.774 106.152 Q 517.801 106.152 517.832 106.174 Q 517.863 106.197 517.872 106.223 L 522.52 118.967 Q 522.537 119.02 522.511 119.065 Q 522.484 119.109 522.431 119.109 L 520.396 119.109 Q 520.325 119.109 520.307 119.038 L 519.347 116.23 L 514.655 116.23 Q 514.406 116.95 514.162 117.638 Q 513.917 118.327 513.668 119.038 Q 513.66 119.065 513.628 119.087 Q 513.597 119.109 513.571 119.109 Z M 518.707 114.319 Q 518.689 114.257 518.658 114.186 Q 518.627 114.115 518.609 114.061 Q 518.458 113.626 518.334 113.257 Q 518.21 112.888 518.112 112.613 Q 518.05 112.435 517.992 112.266 Q 517.934 112.097 517.881 111.946 Q 517.836 111.804 517.792 111.675 Q 517.747 111.546 517.703 111.422 Q 517.623 111.164 517.539 110.907 Q 517.454 110.649 517.365 110.373 Q 517.321 110.249 517.272 110.098 Q 517.223 109.947 517.17 109.778 Q 517.143 109.689 517.13 109.64 Q 517.117 109.591 517.099 109.542 Q 517.081 109.494 517.059 109.431 Q 517.037 109.369 517.001 109.254 Q 516.903 109.547 516.819 109.796 Q 516.734 110.045 516.663 110.258 Q 516.646 110.311 516.637 110.356 Q 516.628 110.4 516.61 110.444 Q 516.566 110.596 516.517 110.729 Q 516.468 110.862 516.423 110.995 Q 516.379 111.138 516.334 111.271 Q 516.29 111.404 516.246 111.529 Q 516.157 111.795 516.063 112.088 Q 515.97 112.382 515.855 112.702 Q 515.739 113.022 515.615 113.39 Q 515.49 113.759 515.295 114.319 Z M 525.5 119.118 Q 525.402 119.118 525.402 119.011 L 525.402 113.804 Q 524.443 111.929 523.492 110.062 Q 522.541 108.196 521.59 106.321 Q 521.563 106.259 521.59 106.214 Q 521.617 106.17 521.688 106.17 L 523.714 106.17 Q 523.741 106.17 523.767 106.192 Q 523.794 106.214 523.812 106.232 L 526.424 111.689 Q 527.082 110.311 527.726 108.96 Q 528.371 107.61 529.028 106.232 Q 529.046 106.214 529.073 106.192 Q 529.099 106.17 529.126 106.17 L 531.161 106.17 Q 531.232 106.17 531.259 106.214 Q 531.285 106.259 531.259 106.321 L 527.437 113.804 L 527.437 119.011 Q 527.437 119.118 527.331 119.118 Z" style="fill: rgb(255, 255, 255); text-wrap-mode: nowrap;"/>
    <path d="M 341.366 84.558 Q 341.438 84.558 341.486 84.612 Q 341.534 84.666 341.51 84.738 Q 341.005 87.189 339.276 88.51 Q 338.435 89.147 337.45 89.471 Q 336.465 89.795 335.324 89.795 Q 333.246 89.795 331.828 88.798 Q 330.435 87.813 329.81 86.636 Q 329.594 86.228 329.438 85.813 Q 329.282 85.399 329.198 84.942 Q 329.042 84.054 329.042 80.906 Q 329.042 79.333 329.078 78.336 Q 329.114 77.339 329.198 76.883 Q 329.282 76.426 329.438 76.006 Q 329.594 75.585 329.81 75.177 Q 330.435 74.012 331.828 73.015 Q 333.234 72.006 335.324 72.006 Q 337.822 72.006 339.456 73.543 Q 341.113 75.093 341.51 77.219 Q 341.534 77.291 341.486 77.339 Q 341.438 77.387 341.366 77.387 L 338.615 77.387 Q 338.507 77.387 338.483 77.291 Q 338.327 76.81 338.038 76.396 Q 337.75 75.982 337.33 75.621 Q 336.537 74.913 335.324 74.913 Q 334.423 74.913 333.786 75.273 Q 333.15 75.633 332.765 76.102 Q 332.537 76.39 332.369 76.756 Q 332.201 77.123 332.105 77.507 Q 332.008 77.916 331.972 78.768 Q 331.936 79.621 331.936 80.906 Q 331.936 82.216 331.972 83.063 Q 332.008 83.909 332.105 84.318 Q 332.201 84.69 332.375 85.057 Q 332.549 85.423 332.765 85.699 Q 333.15 86.204 333.786 86.558 Q 334.423 86.912 335.324 86.912 Q 337.402 86.912 338.483 84.642 Q 338.507 84.618 338.543 84.588 Q 338.579 84.558 338.615 84.558 Z M 346.396 89.651 Q 346.252 89.651 346.252 89.507 L 346.252 74.756 L 341.676 74.756 Q 341.532 74.756 341.532 74.612 L 341.532 72.294 Q 341.532 72.15 341.676 72.15 L 353.711 72.15 Q 353.856 72.15 353.856 72.294 L 353.856 74.612 Q 353.856 74.756 353.711 74.756 L 349.147 74.756 L 349.147 89.507 Q 349.147 89.651 349.003 89.651 Z M 354.222 89.651 Q 354.078 89.651 354.078 89.507 L 354.078 87.068 Q 354.078 86.924 354.222 86.924 L 356.672 86.924 Q 356.804 86.924 356.804 87.068 L 356.804 89.507 Q 356.804 89.651 356.672 89.651 Z M 365.171 77.327 Q 365.171 76.162 364.553 75.507 Q 363.934 74.853 362.901 74.853 Q 361.868 74.853 361.255 75.507 Q 360.643 76.162 360.643 77.327 L 360.643 84.594 Q 360.643 85.771 361.255 86.42 Q 361.868 87.068 362.901 87.068 Q 363.934 87.068 364.553 86.42 Q 365.171 85.771 365.171 84.594 Z M 357.904 77.183 Q 357.904 74.756 359.43 73.447 Q 360.943 72.114 362.901 72.114 Q 363.874 72.114 364.745 72.456 Q 365.616 72.799 366.372 73.447 Q 367.129 74.12 367.52 75.051 Q 367.91 75.982 367.91 77.183 L 367.91 84.738 Q 367.91 87.153 366.372 88.474 Q 364.859 89.795 362.901 89.795 Q 360.943 89.795 359.43 88.474 Q 357.904 87.165 357.904 84.738 Z M 372.401 77.159 Q 372.401 78.312 373.097 78.889 Q 373.83 79.477 374.707 79.477 Q 375.584 79.477 376.304 78.889 Q 377.025 78.3 377.025 77.159 Q 377.025 76.042 376.304 75.453 Q 375.62 74.853 374.707 74.853 Q 373.818 74.853 373.097 75.453 Q 372.401 76.03 372.401 77.159 Z M 369.362 84.522 Q 369.362 83.285 369.848 82.324 Q 370.335 81.363 371.284 80.666 Q 370.551 79.982 370.106 79.153 Q 369.662 78.324 369.662 77.207 Q 369.662 75.081 371.103 73.603 Q 372.581 72.114 374.707 72.114 Q 376.845 72.114 378.298 73.603 Q 379.764 75.105 379.764 77.207 Q 379.764 77.759 379.644 78.24 Q 379.524 78.72 379.307 79.147 Q 379.091 79.573 378.791 79.952 Q 378.491 80.33 378.142 80.666 Q 380.064 82.048 380.064 84.522 Q 380.064 85.675 379.662 86.636 Q 379.259 87.597 378.467 88.342 Q 377.686 89.038 376.737 89.417 Q 375.788 89.795 374.707 89.795 Q 372.509 89.795 370.947 88.342 Q 369.362 86.852 369.362 84.522 Z M 372.088 84.498 Q 372.088 85.051 372.299 85.519 Q 372.509 85.987 372.869 86.336 Q 373.674 87.068 374.707 87.068 Q 375.74 87.068 376.545 86.336 Q 376.929 85.975 377.133 85.513 Q 377.337 85.051 377.337 84.498 Q 377.337 83.381 376.545 82.66 Q 375.764 81.915 374.707 81.915 Q 373.674 81.915 372.869 82.66 Q 372.088 83.381 372.088 84.498 Z" style="text-wrap-mode: nowrap;"/>
    <path d="M 394.303 191.656 Q 394.104 191.656 394.104 191.457 L 394.104 171.735 Q 393.34 172.299 392.577 172.872 Q 391.813 173.444 391.049 173.992 Q 390.933 174.075 390.834 174.017 Q 390.734 173.959 390.734 173.826 L 390.734 170.224 Q 390.734 170.191 390.759 170.141 Q 390.784 170.091 390.817 170.058 L 394.237 167.584 L 397.707 167.584 Q 397.906 167.584 397.906 167.783 L 397.906 191.457 Q 397.906 191.656 397.707 191.656 Z M 411.349 174.573 Q 411.349 172.963 410.494 172.058 Q 409.639 171.153 408.211 171.153 Q 406.783 171.153 405.937 172.058 Q 405.09 172.963 405.09 174.573 L 405.09 184.617 Q 405.09 186.244 405.937 187.141 Q 406.783 188.037 408.211 188.037 Q 409.639 188.037 410.494 187.141 Q 411.349 186.244 411.349 184.617 Z M 401.305 174.374 Q 401.305 171.021 403.413 169.211 Q 405.505 167.368 408.211 167.368 Q 409.556 167.368 410.76 167.841 Q 411.963 168.315 413.009 169.211 Q 414.055 170.141 414.594 171.427 Q 415.134 172.714 415.134 174.374 L 415.134 184.817 Q 415.134 188.153 413.009 189.98 Q 410.917 191.806 408.211 191.806 Q 405.505 191.806 403.413 189.98 Q 401.305 188.17 401.305 184.817 Z M 427.671 174.573 Q 427.671 172.963 426.816 172.058 Q 425.961 171.153 424.534 171.153 Q 423.106 171.153 422.259 172.058 Q 421.413 172.963 421.413 174.573 L 421.413 184.617 Q 421.413 186.244 422.259 187.141 Q 423.106 188.037 424.534 188.037 Q 425.961 188.037 426.816 187.141 Q 427.671 186.244 427.671 184.617 Z M 417.627 174.374 Q 417.627 171.021 419.736 169.211 Q 421.828 167.368 424.534 167.368 Q 425.878 167.368 427.082 167.841 Q 428.286 168.315 429.331 169.211 Q 430.377 170.141 430.917 171.427 Q 431.456 172.714 431.456 174.374 L 431.456 184.817 Q 431.456 188.153 429.331 189.98 Q 427.24 191.806 424.534 191.806 Q 421.828 191.806 419.736 189.98 Q 417.627 188.17 417.627 184.817 Z" style="text-wrap-mode: nowrap;"/>
    <path d="M 505.003 174.391 Q 505.02 172.731 505.568 171.427 Q 506.116 170.124 507.112 169.194 Q 508.058 168.331 509.237 167.858 Q 510.415 167.385 511.71 167.385 Q 514.068 167.385 515.977 168.796 Q 517.77 170.224 518.318 172.913 Q 518.351 173.013 518.285 173.079 Q 518.218 173.146 518.119 173.146 L 514.715 173.146 Q 514.582 173.146 514.533 173.029 Q 513.786 171.203 511.694 171.153 Q 508.689 171.236 508.689 174.607 L 508.689 176.566 Q 509.768 176.25 510.839 176.068 Q 511.91 175.885 512.873 175.902 Q 515.197 175.902 516.857 177.528 Q 518.451 179.205 518.434 182.692 L 518.434 184.85 Q 518.384 188.253 516.409 190.029 Q 514.549 191.789 511.71 191.872 Q 508.955 191.789 507.112 190.046 Q 505.02 188.22 505.003 184.866 Z M 508.689 184.667 Q 508.706 188.07 511.71 188.104 Q 514.649 188.087 514.765 184.667 L 514.765 182.725 Q 514.632 179.355 511.71 179.288 Q 508.706 179.371 508.689 182.725 Z M 531.13 174.573 Q 531.13 172.963 530.275 172.058 Q 529.42 171.153 527.993 171.153 Q 526.565 171.153 525.718 172.058 Q 524.872 172.963 524.872 174.573 L 524.872 184.617 Q 524.872 186.244 525.718 187.141 Q 526.565 188.037 527.993 188.037 Q 529.42 188.037 530.275 187.141 Q 531.13 186.244 531.13 184.617 Z M 521.086 174.374 Q 521.086 171.021 523.195 169.211 Q 525.287 167.368 527.993 167.368 Q 529.337 167.368 530.541 167.841 Q 531.745 168.315 532.791 169.211 Q 533.836 170.141 534.376 171.427 Q 534.916 172.714 534.916 174.374 L 534.916 184.817 Q 534.916 188.153 532.791 189.98 Q 530.699 191.806 527.993 191.806 Q 525.287 191.806 523.195 189.98 Q 521.086 188.17 521.086 184.817 Z" style="fill: rgb(255, 255, 255); text-wrap-mode: nowrap;"/>
  </g>
</svg>