<?xml version="1.0" encoding="utf-8"?>
<svg viewBox="0 0 323.14914 200" xmlns="http://www.w3.org/2000/svg">
  <g id="layer1" transform="matrix(0.9999999999999999, 0, 0, 0.9999999999999999, -303.4596862792969, -22.960700988769517)">
    <path id="rect15575" style="opacity:1;fill:#0a9646;fill-opacity:1;fill-rule:evenodd;stroke-width:0.0420687;stroke-linecap:square;stroke-miterlimit:10;paint-order:stroke fill markers" d="M 303.45966,22.960701 H 626.6088 V 222.9607 H 303.45966 Z"/>
    <path transform="matrix(0.26458333,0,0,0.26458333,303.45966,22.960701)" d="m 30.353516,5.0117188 c -13.808655,0 -25.0781254,11.2674112 -25.0781254,25.0761722 v 332.957029 47.1211 49.04296 13.88672 252.45508 c 0,13.80862 11.2694704,25.06641 25.0781254,25.06641 H 1190.9805 c 13.8086,0 25.0781,-11.25779 25.0781,-25.06641 V 473.0957 459.57031 401.94727 363.04492 30.087891 c 0,-13.808761 -11.2695,-25.0761722 -25.0781,-25.0761722 z m 0,9.4511722 H 1190.9805 c 8.7398,0 15.6425,6.885058 15.6425,15.625 v 332.957029 38.90235 c 0,0.29959 -0.013,0.61475 -0.037,0.9375 v 7.20703 c 0,8.68754 -6.9941,15.68164 -15.6816,15.68164 h -8.0762 c -0.1869,0.007 -0.3766,0.0176 -0.5586,0.0176 H 38.023438 c -0.18105,0 -0.371847,-0.0102 -0.560547,-0.0176 h -7.097657 c -8.687546,0 -15.68164,-6.9941 -15.68164,-15.68164 V 30.152344 c 0,-1.658433 0.257595,-3.253829 0.730468,-4.751953 0.01365,-0.04461 0.03284,-0.08643 0.04688,-0.13086 1.99686,-6.321925 7.84094,-10.80664 14.892578,-10.80664 z M 30.28125,435.30469 h 6.958984 1145.628866 8.1172 c 8.6414,0 15.5996,6.95633 15.5996,15.59765 v 7.5918 c 0.024,0.37296 0.037,0.7339 0.037,1.07617 v 13.52539 252.45508 c 0,5.47634 -2.7106,10.22208 -6.8847,13.00391 -2.4923,1.6862 -5.5034,2.66992 -8.752,2.66992 H 30.28125 c -8.641361,0 -15.597656,-6.9563 -15.597656,-15.59766 V 450.90234 c 0,-8.64132 6.956295,-15.59765 15.597656,-15.59765 z" style="color:#000000;font-style:normal;font-variant:normal;font-weight:normal;font-stretch:normal;font-size:medium;line-height:normal;font-family:sans-serif;font-variant-ligatures:normal;font-variant-position:normal;font-variant-caps:normal;font-variant-numeric:normal;font-variant-alternates:normal;font-variant-east-asian:normal;font-feature-settings:normal;font-variation-settings:normal;text-indent:0;text-align:start;text-decoration:none;text-decoration-line:none;text-decoration-style:solid;text-decoration-color:#000000;letter-spacing:normal;word-spacing:normal;text-transform:none;writing-mode:lr-tb;direction:ltr;text-orientation:mixed;dominant-baseline:auto;baseline-shift:baseline;text-anchor:start;white-space:normal;shape-padding:0;shape-margin:0;inline-size:0;clip-rule:nonzero;display:inline;overflow:visible;visibility:visible;opacity:1;isolation:auto;mix-blend-mode:normal;color-interpolation:sRGB;color-interpolation-filters:linearRGB;solid-color:#000000;solid-opacity:1;vector-effect:none;fill:#ffffff;fill-opacity:1;fill-rule:evenodd;stroke:none;stroke-width:2.09199;stroke-linecap:square;stroke-linejoin:miter;stroke-miterlimit:10;stroke-dasharray:none;stroke-dashoffset:0;stroke-opacity:1;paint-order:stroke fill markers;color-rendering:auto;image-rendering:auto;shape-rendering:auto;text-rendering:auto;enable-background:accumulate;stop-color:#000000;stop-opacity:1" id="path15582"/>
    <path d="m 324.12038,67.193614 h 60.89334 v 27.821331 h -60.89334 z" style="opacity:1;fill:#ffd70f;fill-opacity:1;fill-rule:evenodd;stroke:none;stroke-width:0.553508;stroke-linecap:square;stroke-miterlimit:10;stroke-dasharray:none;stroke-opacity:1;paint-order:stroke fill markers" id="rect15605"/>
    <path id="path15631" d="m 326.18273,67.759747 c -0.81115,0 -1.47443,0.660164 -1.47443,1.471307 v 23.746432 c 0,0.811142 0.66328,1.471323 1.47443,1.471323 h 56.7905 c 0.81117,0 1.4744,-0.660181 1.4744,-1.471323 V 69.231054 c 0,-0.811143 -0.66328,-1.471307 -1.4744,-1.471307 z m 0,0.535017 h 56.7905 c 0.52266,0 0.93627,0.413622 0.93627,0.93629 v 23.746432 c 0,0.522654 -0.41353,0.933189 -0.93627,0.933189 h -56.7905 c -0.52266,0 -0.93628,-0.410555 -0.93628,-0.933189 V 69.231054 c 0,-0.522672 0.41354,-0.93629 0.93628,-0.93629 z" style="color:#000000;font-style:normal;font-variant:normal;font-weight:normal;font-stretch:normal;font-size:medium;line-height:normal;font-family:sans-serif;font-variant-ligatures:normal;font-variant-position:normal;font-variant-caps:normal;font-variant-numeric:normal;font-variant-alternates:normal;font-variant-east-asian:normal;font-feature-settings:normal;font-variation-settings:normal;text-indent:0;text-align:start;text-decoration:none;text-decoration-line:none;text-decoration-style:solid;text-decoration-color:#000000;letter-spacing:normal;word-spacing:normal;text-transform:none;writing-mode:lr-tb;direction:ltr;text-orientation:mixed;dominant-baseline:auto;baseline-shift:baseline;text-anchor:start;white-space:normal;shape-padding:0;shape-margin:0;inline-size:0;clip-rule:nonzero;display:inline;overflow:visible;visibility:visible;opacity:1;isolation:auto;mix-blend-mode:normal;color-interpolation:sRGB;color-interpolation-filters:linearRGB;solid-color:#000000;solid-opacity:1;vector-effect:none;fill:#000000;fill-opacity:1;fill-rule:evenodd;stroke:none;stroke-width:0.119062;stroke-linecap:square;stroke-linejoin:miter;stroke-miterlimit:10;stroke-dasharray:none;stroke-dashoffset:0;stroke-opacity:1;paint-order:stroke fill markers;color-rendering:auto;image-rendering:auto;shape-rendering:auto;text-rendering:auto;enable-background:accumulate;stop-color:#000000;stop-opacity:1"/>
    <path d="m 336.88947,72.205604 c -1.36961,0 -2.51552,0.330332 -3.43646,0.991507 -0.91309,0.653335 -1.5737,1.361798 -1.98303,2.125328 -0.14189,0.267612 -0.264,0.538688 -0.36613,0.814199 -0.10264,0.275473 -0.18065,0.564078 -0.23555,0.86321 -0.0552,0.299089 -0.0954,0.774434 -0.11873,1.427765 -0.0223,0.653332 -0.0362,1.495435 -0.0362,2.5266 0,2.062321 0.0516,3.383536 0.15387,3.966025 0.0552,0.299136 0.13326,0.587702 0.23556,0.863193 0.10264,0.267612 0.22467,0.534915 0.36612,0.802543 0.40948,0.771411 1.06995,1.479875 1.983,2.125324 0.92887,0.653346 2.07472,0.979855 3.43649,0.979855 0.74779,0 1.44489,-0.107189 2.09034,-0.319632 0.64544,-0.212556 1.24303,-0.525333 1.79403,-0.942508 1.1335,-0.865864 1.86473,-2.103628 2.19533,-3.709419 0.0139,-0.04714 0.009,-0.08518 -0.0223,-0.116745 -0.0315,-0.03928 -0.0694,-0.05829 -0.11656,-0.05829 h -2.70394 c -0.0223,1.5e-5 -0.0488,0.01117 -0.0722,0.03521 -0.0223,0.01589 -0.0451,0.0307 -0.0582,0.0467 -0.70836,1.487712 -1.74338,2.232636 -3.10515,2.232636 -0.59037,0 -1.09454,-0.11468 -1.51174,-0.342928 -0.41713,-0.236167 -0.75132,-0.520933 -1.00317,-0.851551 -0.14189,-0.181028 -0.27124,-0.389065 -0.3896,-0.625222 -0.11008,-0.244 -0.19597,-0.488524 -0.25924,-0.732545 -0.0628,-0.267611 -0.10709,-0.67614 -0.13048,-1.227141 -0.0223,-0.558871 -0.0359,-1.267326 -0.0359,-2.125325 0,-0.842249 0.009,-1.543133 0.0359,-2.102004 0.0223,-0.55887 0.0677,-0.97117 0.13048,-1.238798 0.0627,-0.251917 0.14857,-0.496392 0.25924,-0.732549 0.11009,-0.244 0.24028,-0.45965 0.3896,-0.64857 0.252,-0.30699 0.58598,-0.580386 1.00317,-0.816526 0.41715,-0.236167 0.92137,-0.352269 1.51174,-0.352269 0.79503,1.7e-5 1.45185,0.230844 1.97135,0.695231 0.27541,0.236167 0.50863,0.492045 0.69757,0.767539 0.18872,0.267667 0.33407,0.560022 0.4361,0.874867 0.0167,0.06294 0.0599,0.09333 0.13046,0.09333 h 2.7039 c 0.0468,0 0.0854,-0.01589 0.11658,-0.0467 0.0315,-0.03161 0.0407,-0.07184 0.0223,-0.118954 -0.25952,-1.393235 -0.93175,-2.595995 -2.01801,-3.611427 -1.07052,-1.007535 -2.42438,-1.511744 -4.0617,-1.511744 z m 27.73422,0.104956 c -1.28304,0 -2.4213,0.437369 -3.41313,1.311121 -0.99967,0.858 -1.50005,2.08205 -1.50005,3.672071 v 7.425818 c 0,1.590021 0.50038,2.814088 1.50005,3.672088 0.99183,0.865851 2.13009,1.299446 3.41313,1.299446 1.28303,0 2.42133,-0.433578 3.41313,-1.299446 1.00756,-0.86587 1.50938,-2.089917 1.50938,-3.672088 v -7.425818 c 0,-0.787127 -0.1299,-1.484222 -0.38959,-2.09033 -0.252,-0.613979 -0.62389,-1.140934 -1.11979,-1.581741 -0.49592,-0.425045 -1.03279,-0.74779 -1.6074,-0.968177 -0.56674,-0.22825 -1.16816,-0.342924 -1.80573,-0.342924 z m -21.12261,0.03521 c -0.0943,0 -0.14217,0.04776 -0.14217,0.142392 v 2.279298 c 0,0.09444 0.0479,0.142197 0.14217,0.142197 h 4.49793 V 89.409 c 0,0.09444 0.0479,0.139995 0.14217,0.139995 h 2.5616 c 0.0945,0 0.14217,-0.04555 0.14217,-0.139995 V 74.909653 h 4.48625 c 0.0943,0 0.14217,-0.04778 0.14217,-0.142196 v -2.279299 c 0,-0.09444 -0.0479,-0.142392 -0.14217,-0.142392 z m 31.22667,0.118953 -2.43331,1.759064 c -0.0139,0.01589 -0.0315,0.03477 -0.0466,0.05829 -0.009,0.02341 -0.0139,0.04468 -0.0139,0.06068 v 2.561593 c 0,0.06294 0.0278,0.110694 0.0728,0.142196 0.0468,0.02343 0.0989,0.01617 0.15388,-0.02343 0.36208,-0.259778 0.7228,-0.523245 1.08486,-0.790886 0.36206,-0.275473 0.72509,-0.548889 1.08714,-0.816528 v 14.028096 c 0,0.09444 0.048,0.142198 0.14217,0.142198 h 2.41929 c 0.0943,0 0.13994,-0.04778 0.13994,-0.142198 V 72.606811 c 0,-0.09444 -0.0455,-0.142197 -0.13994,-0.142197 z m -10.10406,2.538257 c 0.67694,0 1.21532,0.217964 1.61673,0.650912 0.40948,0.425045 0.61359,1.018854 0.61359,1.782378 v 7.143522 c 0,0.771407 -0.20461,1.368982 -0.61359,1.794059 -0.40133,0.425045 -0.93979,0.63689 -1.61673,0.63689 -0.67695,0 -1.21527,-0.211859 -1.61671,-0.63689 -0.40134,-0.425091 -0.60428,-1.022652 -0.60428,-1.794059 v -7.143497 c 0,-0.763524 0.20266,-1.357335 0.60428,-1.782377 0.40133,-0.432946 0.93976,-0.650913 1.61671,-0.650913 z m -9.98507,11.865445 c -0.0945,0 -0.14217,0.04776 -0.14217,0.14239 v 2.398281 c 0,0.09444 0.0479,0.139994 0.14217,0.139994 h 2.40762 c 0.0867,0 0.13046,-0.04555 0.13046,-0.139994 v -2.398281 c 0,-0.09444 -0.0451,-0.14239 -0.13046,-0.14239 z" style="font-style: normal; font-variant: normal; font-weight: normal; font-stretch: normal; font-size: 15.1831px; line-height: 1.46; font-family: 'Alte DIN 1451 Mittelschrift gepraegt'; text-align: center; text-anchor: middle; opacity: 1; fill-opacity: 1; stroke-width: 0.264584; visibility: hidden;" id="path15637"/>
    <path id="path17496" style="font-size:15.1831px;line-height:1.46;font-family:'Singapore Road Signs';-inkscape-font-specification:'Singapore Road Signs';text-align:center;text-anchor:middle;opacity:1;fill:#ffffff;fill-opacity:1;stroke-width:0.0756548" d="m 570.47468,59.120043 v 50.614317 h 35.43541 V 59.120043 Z m 1.38203,1.660034 h 32.65274 v 47.566083 h -32.65274 z m 13.66823,3.646909 -2.23483,8.869719 h 3.92184 l 0.28216,-8.869719 z m 3.35329,0 0.28216,8.869719 h 3.92385 l -2.23686,-8.869719 z m -15.90932,9.992316 v 1.942234 l 3.06692,1.10806 v 0.584703 h 1.411 v -0.584703 c 0,0 2.08662,-0.313671 4.52568,-0.535349 1.95306,-0.177516 4.1317,-0.271988 5.64407,-0.278037 1.79866,-0.0063 4.45804,0.09363 6.73975,0.288436 2.51319,0.214479 4.5713,0.524984 4.5713,0.524984 v 0.5847 h 1.38199 v -0.5847 l 3.06685,-1.108064 v -1.942233 z m 9.21108,3.620663 -6.70448,26.681115 h 10.04943 l 1.39442,-26.681115 z m 7.25642,0 1.39441,26.681115 h 10.0494 l -6.70443,-26.681115 z"/>
    <g style="font-size:14.7905px;line-height:0;font-family:'Singapore Road Signs';-inkscape-font-specification:'Singapore Road Signs';text-align:center;text-anchor:middle;opacity:1;fill:#860000;fill-opacity:1;stroke-width:6.45213" id="layer1-8" transform="matrix(0.08718024,0,0,0.08718024,-145.22047,195.49013)">
      <circle style="opacity:1;fill:#f00a0a;fill-opacity:1;fill-rule:nonzero;stroke:none;stroke-width:3622.55;stroke-linecap:round;stroke-linejoin:round;stroke-miterlimit:4;stroke-dasharray:none;stroke-opacity:1;paint-order:stroke fill markers" id="path815" cx="6380.9966" cy="-193.29752" r="350"/>
      <circle cy="-193.29752" cx="6380.9966" id="circle817" style="opacity:1;fill:#ffffff;fill-opacity:1;fill-rule:nonzero;stroke:none;stroke-width:2587.55;stroke-linecap:round;stroke-linejoin:round;stroke-miterlimit:4;stroke-dasharray:none;stroke-opacity:1;paint-order:stroke fill markers" r="250"/>
      <g aria-label="20 " style="font-style:normal;font-variant:normal;font-weight:bold;font-stretch:normal;font-size:414.864px;line-height:0;font-family:Giaothong1;-inkscape-font-specification:'Giaothong1 Bold';letter-spacing:0px;word-spacing:0px;fill:#000000;fill-opacity:1;stroke:none;stroke-width:24.7849" id="text874" transform="matrix(-1,0,0,1,1299.029,-383.45)">
        <g aria-label="90" transform="translate(2310.2259,387.54849)" style="font-style:normal;font-variant:normal;font-weight:bold;font-stretch:normal;font-size:414.864px;line-height:0;font-family:Giaothong1;-inkscape-font-specification:'Giaothong1 Bold';letter-spacing:0px;word-spacing:0px;fill:#000000;fill-opacity:1;stroke:none;stroke-width:53.5539" id="text844"/>
      </g>
    </g>
    <g style="font-size:14.7905px;line-height:0;font-family:'Singapore Road Signs';-inkscape-font-specification:'Singapore Road Signs';text-align:center;text-anchor:middle;opacity:1;fill:#fff000;fill-opacity:1;stroke-width:6.45221" id="layer1-7" transform="matrix(0.08717968,0,0,0.08717968,488.77841,183.34565)">
      <circle cy="-54" cx="351" id="circle817-6" style="opacity:1;fill:#0046aa;fill-opacity:1;fill-rule:nonzero;stroke:none;stroke-width:3622.58;stroke-linecap:round;stroke-linejoin:round;stroke-miterlimit:4;stroke-dasharray:none;stroke-opacity:1;paint-order:stroke fill markers" r="350"/>
      <path id="rect984" style="font-style:normal;font-variant:normal;font-weight:bold;font-stretch:normal;font-size:414.864px;line-height:0;font-family:Giaothong1;-inkscape-font-specification:'Giaothong1 Bold';letter-spacing:0px;word-spacing:0px;opacity:1;fill:#ffffff;fill-opacity:1;fill-rule:nonzero;stroke:none;stroke-width:0.344279;stroke-linecap:round;stroke-linejoin:miter;stroke-miterlimit:10;stroke-dasharray:none;stroke-opacity:1;paint-order:stroke fill markers" d="m 851.18164,518.03906 c -16.32678,0 -29.4707,13.14393 -29.4707,29.47071 v 80.94921 c 0,16.32678 13.14392,29.47071 29.4707,29.47071 16.32678,0 29.4707,-13.14393 29.4707,-29.47071 v -80.94921 c 0,-16.32678 -13.14392,-29.47071 -29.4707,-29.47071 z m -69.94336,1.23828 -26.10937,69.75391 c -2.72781,7.40406 -3.70118,11.30112 -3.70118,28.44727 0,18.12042 0.7789,22.01697 4.67579,28.25195 5.26075,8.37828 14.22308,13.44336 24.93945,13.44336 10.91123,0 20.0688,-4.87023 25.13476,-13.44336 3.70197,-6.23498 4.48047,-10.13153 4.48047,-28.25195 0,-22.01726 -0.77798,-26.88814 -4.28515,-32.34375 -3.31232,-5.06591 -9.74347,-8.96289 -16.75782,-8.96289 -4.28653,0 -7.01308,0.77773 -8.37695,1.75195 l -0.39062,-0.38867 22.60156,-58.25782 z m 69.94336,18.74024 c 5.25853,0 9.49219,4.23365 9.49219,9.49219 v 80.94921 c 0,5.25853 -4.23366,9.49219 -9.49219,9.49219 -5.25853,0 -9.49219,-4.23366 -9.49219,-9.49219 v -80.94921 c 0,-5.25854 4.23366,-9.49219 9.49219,-9.49219 z m -70.13867,55.68945 c 5.0659,0 9.74219,3.89738 9.74219,9.9375 v 25.71875 c 0,6.04012 -4.67629,9.9375 -9.74219,9.9375 -5.0659,0 -9.74219,-3.89738 -9.74219,-9.9375 v -25.71875 c 0,-6.04012 4.67629,-9.9375 9.74219,-9.9375 z" transform="matrix(3.0349198,0,0,3.0349198,-2125.7104,-1839.7056)"/>
    </g>
    <g aria-label="6" id="text19759" style="font-size:31.1478px;line-height:1.3;font-family:'Singapore Road Signs';-inkscape-font-specification:'Singapore Road Signs';text-align:center;text-anchor:middle;stroke-width:0.159861" transform="matrix(1.6550836,0,0,1.6550836,-321.31659,-238.56049)"/>
    <path d="M 373.315 46.797 Q 373.21 46.797 373.21 46.691 L 373.21 41.295 L 368.42 41.295 L 368.42 46.691 Q 368.42 46.797 368.314 46.797 L 366.407 46.797 Q 366.302 46.797 366.302 46.691 L 366.302 34.097 Q 366.302 33.991 366.407 33.991 L 368.314 33.991 Q 368.42 33.991 368.42 34.097 L 368.42 39.388 L 373.21 39.388 L 373.21 34.097 Q 373.21 33.991 373.315 33.991 L 375.223 33.991 Q 375.328 33.991 375.328 34.097 L 375.328 46.691 Q 375.328 46.797 375.223 46.797 Z M 377.541 40.398 Q 377.541 39.247 377.572 38.517 Q 377.602 37.788 377.655 37.454 Q 377.717 37.12 377.831 36.812 Q 377.945 36.505 378.112 36.206 L 378.103 36.206 Q 378.56 35.353 379.58 34.624 Q 380.608 33.886 382.138 33.886 Q 383.649 33.886 384.678 34.624 Q 385.715 35.371 386.172 36.206 Q 386.497 36.804 386.611 37.454 Q 386.673 37.788 386.703 38.517 Q 386.734 39.247 386.734 40.398 Q 386.734 42.657 386.611 43.351 Q 386.55 43.694 386.44 44.002 Q 386.33 44.309 386.181 44.591 Q 385.715 45.434 384.678 46.173 Q 383.64 46.902 382.138 46.902 Q 380.617 46.902 379.58 46.173 Q 378.56 45.452 378.103 44.591 L 378.112 44.591 Q 377.945 44.292 377.831 43.989 Q 377.717 43.685 377.655 43.351 Q 377.602 43.017 377.572 42.284 Q 377.541 41.55 377.541 40.398 Z M 379.659 40.398 Q 379.659 41.356 379.685 41.976 Q 379.712 42.596 379.782 42.894 Q 379.852 43.167 379.98 43.435 Q 380.107 43.703 380.265 43.905 Q 380.547 44.274 381.013 44.534 Q 381.478 44.793 382.138 44.793 Q 382.788 44.793 383.254 44.534 Q 383.72 44.274 383.992 43.905 Q 384.361 43.457 384.475 42.894 Q 384.616 42.332 384.616 40.398 Q 384.616 39.44 384.581 38.821 Q 384.546 38.201 384.475 37.911 Q 384.414 37.63 384.291 37.362 Q 384.168 37.094 384.001 36.883 Q 383.869 36.716 383.68 36.558 Q 383.491 36.399 383.254 36.281 Q 383.016 36.162 382.735 36.087 Q 382.454 36.013 382.138 36.013 Q 381.478 36.013 381.013 36.276 Q 380.547 36.54 380.265 36.883 Q 380.098 37.094 379.975 37.362 Q 379.852 37.63 379.782 37.911 Q 379.712 38.21 379.685 38.834 Q 379.659 39.458 379.659 40.398 Z M 387.807 46.788 Q 387.745 46.788 387.719 46.744 Q 387.693 46.7 387.71 46.647 L 392.316 34.044 Q 392.333 33.974 392.404 33.974 L 393.977 33.974 Q 394.003 33.974 394.034 33.996 Q 394.065 34.017 394.073 34.044 L 398.67 46.647 Q 398.688 46.7 398.661 46.744 Q 398.635 46.788 398.582 46.788 L 396.57 46.788 Q 396.499 46.788 396.482 46.718 L 395.532 43.94 L 390.892 43.94 Q 390.646 44.652 390.404 45.333 Q 390.162 46.015 389.916 46.718 Q 389.907 46.744 389.877 46.766 Q 389.846 46.788 389.82 46.788 Z M 394.9 42.051 Q 394.882 41.989 394.851 41.919 Q 394.821 41.849 394.803 41.796 Q 394.654 41.365 394.53 41 Q 394.407 40.636 394.311 40.363 Q 394.249 40.187 394.192 40.02 Q 394.135 39.853 394.082 39.704 Q 394.038 39.563 393.994 39.436 Q 393.95 39.309 393.906 39.185 Q 393.827 38.931 393.744 38.676 Q 393.66 38.421 393.572 38.148 Q 393.529 38.025 393.48 37.876 Q 393.432 37.726 393.379 37.559 Q 393.353 37.472 393.34 37.423 Q 393.326 37.375 393.309 37.327 Q 393.291 37.278 393.269 37.217 Q 393.247 37.155 393.212 37.041 Q 393.115 37.331 393.032 37.577 Q 392.948 37.823 392.878 38.034 Q 392.861 38.087 392.852 38.131 Q 392.843 38.175 392.825 38.219 Q 392.781 38.368 392.733 38.5 Q 392.685 38.632 392.641 38.764 Q 392.597 38.904 392.553 39.036 Q 392.509 39.168 392.465 39.291 Q 392.377 39.555 392.285 39.845 Q 392.193 40.135 392.078 40.451 Q 391.964 40.767 391.841 41.132 Q 391.718 41.497 391.525 42.051 Z M 393.739 32.857 Q 393.722 32.857 393.696 32.844 Q 393.669 32.831 393.66 32.822 L 391.235 30.256 Q 391.182 30.203 391.213 30.142 Q 391.243 30.08 391.314 30.08 L 393.247 30.08 Q 393.3 30.08 393.335 30.133 L 395.172 32.699 Q 395.198 32.761 395.176 32.809 Q 395.155 32.857 395.084 32.857 Z M 400.233 46.797 Q 400.128 46.797 400.128 46.691 L 400.128 34.097 Q 400.128 33.991 400.233 33.991 L 402.141 33.991 Q 402.246 33.991 402.246 34.097 L 402.246 46.691 Q 402.246 46.797 402.141 46.797 Z M 409.216 46.797 Q 409.11 46.797 409.11 46.691 L 409.11 34.097 Q 409.11 33.991 409.216 33.991 L 411.026 33.991 Q 411.079 33.991 411.114 34.044 L 416.651 42.763 L 416.651 34.097 Q 416.651 33.991 416.757 33.991 L 418.673 33.991 Q 418.778 33.991 418.778 34.097 L 418.778 46.691 Q 418.778 46.797 418.673 46.797 L 416.871 46.797 Q 416.818 46.797 416.783 46.744 L 411.228 38.025 L 411.228 46.691 Q 411.228 46.797 411.132 46.797 Z M 428.429 46.797 Q 428.323 46.797 428.323 46.691 L 428.323 41.295 L 423.533 41.295 L 423.533 46.691 Q 423.533 46.797 423.428 46.797 L 421.52 46.797 Q 421.415 46.797 421.415 46.691 L 421.415 34.097 Q 421.415 33.991 421.52 33.991 L 423.428 33.991 Q 423.533 33.991 423.533 34.097 L 423.533 39.388 L 428.323 39.388 L 428.323 34.097 Q 428.323 33.991 428.429 33.991 L 430.336 33.991 Q 430.441 33.991 430.441 34.097 L 430.441 46.691 Q 430.441 46.797 430.336 46.797 Z M 434.775 40.398 Q 434.775 41.356 434.802 41.976 Q 434.828 42.596 434.898 42.894 Q 434.969 43.167 435.096 43.435 Q 435.223 43.703 435.382 43.905 Q 435.663 44.274 436.129 44.534 Q 436.595 44.793 437.254 44.793 Q 437.904 44.793 438.37 44.534 Q 438.836 44.274 439.108 43.905 Q 439.477 43.457 439.592 42.894 Q 439.732 42.332 439.732 40.398 Q 439.732 39.44 439.697 38.821 Q 439.662 38.201 439.592 37.911 Q 439.53 37.63 439.407 37.362 Q 439.284 37.094 439.117 36.883 Q 438.985 36.716 438.796 36.558 Q 438.607 36.399 438.37 36.281 Q 438.133 36.162 437.851 36.087 Q 437.57 36.013 437.254 36.013 Q 436.595 36.013 436.129 36.276 Q 435.663 36.54 435.382 36.883 Q 435.215 37.094 435.092 37.362 Q 434.969 37.63 434.898 37.911 Q 434.828 38.21 434.802 38.834 Q 434.775 39.458 434.775 40.398 Z M 441.938 32.339 Q 442.009 32.4 442.07 32.462 Q 442.65 33.068 442.668 34.044 Q 442.703 35.23 441.604 35.977 Q 441.429 36.057 441.244 36.127 Q 441.262 36.162 441.288 36.206 Q 441.613 36.804 441.727 37.454 Q 441.789 37.788 441.82 38.517 Q 441.85 39.247 441.85 40.398 Q 441.85 42.657 441.727 43.351 Q 441.666 43.694 441.556 44.002 Q 441.446 44.309 441.297 44.591 Q 440.831 45.434 439.794 46.173 Q 438.757 46.902 437.254 46.902 Q 435.733 46.902 434.696 46.173 Q 433.677 45.452 433.22 44.591 L 433.228 44.591 Q 433.061 44.292 432.947 43.989 Q 432.833 43.685 432.771 43.351 Q 432.719 43.017 432.688 42.284 Q 432.657 41.55 432.657 40.398 Q 432.657 39.247 432.688 38.517 Q 432.719 37.788 432.771 37.454 Q 432.833 37.12 432.947 36.812 Q 433.061 36.505 433.228 36.206 L 433.22 36.206 Q 433.677 35.353 434.696 34.624 Q 435.724 33.886 437.254 33.886 Q 438.765 33.886 439.794 34.624 Q 440.181 34.905 440.488 35.195 Q 441.402 34.861 441.429 34.079 Q 441.42 33.481 441.051 33.226 Z M 444.162 46.797 Q 444.057 46.797 444.057 46.691 L 444.057 34.097 Q 444.057 33.991 444.162 33.991 L 445.973 33.991 Q 446.026 33.991 446.061 34.044 L 451.598 42.763 L 451.598 34.097 Q 451.598 33.991 451.703 33.991 L 453.619 33.991 Q 453.725 33.991 453.725 34.097 L 453.725 46.691 Q 453.725 46.797 453.619 46.797 L 451.818 46.797 Q 451.765 46.797 451.73 46.744 L 446.175 38.025 L 446.175 46.691 Q 446.175 46.797 446.078 46.797 Z" transform="matrix(1.310387, 0, 0, 1.310387, -59.698296, -1.169035)" style="fill: rgb(255, 255, 255);"/>
    <path transform="matrix(1.310387, 0, 0, 1.310387, -59.698296, -1.169035)" style="fill: rgb(255, 255, 255);"/>
    <path d="M 373.161 68.815 Q 373.126 68.788 373.122 68.744 Q 373.117 68.701 373.144 68.665 L 374.278 67.365 Q 374.348 67.285 374.418 67.356 L 375.763 68.41 Q 375.833 68.068 375.864 67.47 Q 375.895 66.872 375.895 65.958 Q 375.895 65 375.86 64.381 Q 375.824 63.761 375.754 63.471 Q 375.684 63.19 375.561 62.922 Q 375.438 62.654 375.28 62.443 Q 375.148 62.276 374.959 62.118 Q 374.77 61.959 374.532 61.841 Q 374.295 61.722 374.014 61.647 Q 373.733 61.573 373.407 61.573 Q 372.757 61.573 372.287 61.836 Q 371.817 62.1 371.544 62.443 Q 371.368 62.654 371.25 62.922 Q 371.131 63.19 371.061 63.471 Q 370.929 64.069 370.929 65.958 Q 370.929 67.866 371.061 68.454 Q 371.131 68.727 371.254 68.995 Q 371.377 69.263 371.544 69.465 Q 371.817 69.834 372.287 70.094 Q 372.757 70.353 373.407 70.353 Q 374.119 70.353 374.656 70.001 Z M 378.057 72.612 Q 378.031 72.638 377.987 72.638 Q 377.943 72.638 377.907 72.612 L 376.387 71.408 Q 375.816 71.873 375.069 72.168 Q 374.322 72.462 373.407 72.462 Q 371.896 72.462 370.85 71.733 Q 369.848 71.012 369.373 70.151 L 369.382 70.151 Q 369.224 69.852 369.11 69.549 Q 368.995 69.245 368.934 68.911 Q 368.811 68.217 368.811 65.958 Q 368.811 64.807 368.842 64.077 Q 368.872 63.348 368.934 63.014 Q 368.995 62.68 369.11 62.372 Q 369.224 62.065 369.382 61.766 L 369.373 61.766 Q 369.602 61.344 369.971 60.949 Q 370.34 60.553 370.85 60.184 Q 371.887 59.446 373.407 59.446 Q 374.928 59.446 375.956 60.184 Q 376.976 60.931 377.45 61.766 Q 377.6 62.056 377.714 62.368 Q 377.828 62.68 377.89 63.014 Q 377.951 63.348 377.982 64.077 Q 378.013 64.807 378.013 65.958 Q 378.013 68.015 377.907 68.727 Q 377.864 69.061 377.78 69.347 Q 377.697 69.632 377.573 69.878 Q 377.969 70.186 378.373 70.515 Q 378.778 70.845 379.173 71.153 Q 379.208 71.179 379.217 71.223 Q 379.226 71.267 379.191 71.302 Z M 380.331 59.657 Q 380.331 59.551 380.436 59.551 L 382.352 59.551 Q 382.449 59.551 382.449 59.657 L 382.449 67.778 Q 382.449 69.043 383.152 69.694 Q 383.864 70.353 384.918 70.353 Q 385.956 70.353 386.668 69.694 Q 387.379 69.035 387.379 67.778 L 387.379 59.657 Q 387.379 59.551 387.485 59.551 L 389.392 59.551 Q 389.498 59.551 389.498 59.657 L 389.498 67.989 Q 389.498 70.01 388.153 71.241 Q 386.826 72.462 384.918 72.462 Q 383.002 72.462 381.667 71.241 Q 380.331 70.01 380.331 67.989 Z M 394.507 72.357 Q 394.41 72.357 394.41 72.251 L 394.41 67.101 Q 393.461 65.246 392.521 63.401 Q 391.58 61.555 390.64 59.701 Q 390.613 59.639 390.64 59.595 Q 390.666 59.551 390.737 59.551 L 392.74 59.551 Q 392.767 59.551 392.793 59.573 Q 392.82 59.595 392.837 59.613 L 395.421 65.009 Q 396.072 63.647 396.709 62.311 Q 397.346 60.975 397.996 59.613 Q 398.014 59.595 398.04 59.573 Q 398.067 59.551 398.093 59.551 L 400.106 59.551 Q 400.176 59.551 400.202 59.595 Q 400.229 59.639 400.202 59.701 L 396.423 67.101 L 396.423 72.251 Q 396.423 72.357 396.318 72.357 Z M 405.933 72.357 Q 405.828 72.357 405.828 72.251 L 405.828 59.657 Q 405.828 59.551 405.933 59.551 L 407.744 59.551 Q 407.796 59.551 407.832 59.604 L 413.369 68.323 L 413.369 59.657 Q 413.369 59.551 413.474 59.551 L 415.39 59.551 Q 415.496 59.551 415.496 59.657 L 415.496 72.251 Q 415.496 72.357 415.39 72.357 L 413.588 72.357 Q 413.536 72.357 413.5 72.304 L 407.946 63.585 L 407.946 72.251 Q 407.946 72.357 407.849 72.357 Z M 425.146 72.357 Q 425.041 72.357 425.041 72.251 L 425.041 66.855 L 420.251 66.855 L 420.251 72.251 Q 420.251 72.357 420.145 72.357 L 418.238 72.357 Q 418.132 72.357 418.132 72.251 L 418.132 59.657 Q 418.132 59.551 418.238 59.551 L 420.145 59.551 Q 420.251 59.551 420.251 59.657 L 420.251 64.948 L 425.041 64.948 L 425.041 59.657 Q 425.041 59.551 425.146 59.551 L 427.053 59.551 Q 427.159 59.551 427.159 59.657 L 427.159 72.251 Q 427.159 72.357 427.053 72.357 Z M 431.493 65.958 Q 431.493 66.916 431.519 67.536 Q 431.545 68.156 431.616 68.454 Q 431.686 68.727 431.814 68.995 Q 431.941 69.263 432.099 69.465 Q 432.38 69.834 432.846 70.094 Q 433.312 70.353 433.971 70.353 Q 434.622 70.353 435.087 70.094 Q 435.553 69.834 435.826 69.465 Q 436.195 69.017 436.309 68.454 Q 436.45 67.892 436.45 65.958 Q 436.45 65 436.415 64.381 Q 436.379 63.761 436.309 63.471 Q 436.248 63.19 436.125 62.922 Q 436.002 62.654 435.835 62.443 Q 435.703 62.276 435.514 62.118 Q 435.325 61.959 435.087 61.841 Q 434.85 61.722 434.569 61.647 Q 434.288 61.573 433.971 61.573 Q 433.312 61.573 432.846 61.836 Q 432.38 62.1 432.099 62.443 Q 431.932 62.654 431.809 62.922 Q 431.686 63.19 431.616 63.471 Q 431.545 63.77 431.519 64.394 Q 431.493 65.018 431.493 65.958 Z M 438.656 57.899 Q 438.726 57.96 438.788 58.022 Q 439.368 58.628 439.385 59.604 Q 439.42 60.79 438.322 61.537 Q 438.146 61.617 437.961 61.687 Q 437.979 61.722 438.005 61.766 Q 438.331 62.364 438.445 63.014 Q 438.506 63.348 438.537 64.077 Q 438.568 64.807 438.568 65.958 Q 438.568 68.217 438.445 68.911 Q 438.383 69.254 438.273 69.562 Q 438.164 69.869 438.014 70.151 Q 437.548 70.994 436.511 71.733 Q 435.474 72.462 433.971 72.462 Q 432.451 72.462 431.414 71.733 Q 430.394 71.012 429.937 70.151 L 429.946 70.151 Q 429.779 69.852 429.665 69.549 Q 429.55 69.245 429.489 68.911 Q 429.436 68.577 429.405 67.844 Q 429.375 67.11 429.375 65.958 Q 429.375 64.807 429.405 64.077 Q 429.436 63.348 429.489 63.014 Q 429.55 62.68 429.665 62.372 Q 429.779 62.065 429.946 61.766 L 429.937 61.766 Q 430.394 60.913 431.414 60.184 Q 432.442 59.446 433.971 59.446 Q 435.483 59.446 436.511 60.184 Q 436.898 60.465 437.206 60.755 Q 438.12 60.421 438.146 59.639 Q 438.137 59.041 437.768 58.786 Z M 440.88 72.357 Q 440.774 72.357 440.774 72.251 L 440.774 59.657 Q 440.774 59.551 440.88 59.551 L 442.69 59.551 Q 442.743 59.551 442.778 59.604 L 448.315 68.323 L 448.315 59.657 Q 448.315 59.551 448.421 59.551 L 450.337 59.551 Q 450.442 59.551 450.442 59.657 L 450.442 72.251 Q 450.442 72.357 450.337 72.357 L 448.535 72.357 Q 448.482 72.357 448.447 72.304 L 442.893 63.585 L 442.893 72.251 Q 442.893 72.357 442.796 72.357 Z" transform="matrix(1.310387, 0, 0, 1.310387, -59.698296, -1.169035)" style="fill: rgb(255, 255, 255);"/>
    <path d="M 426.152 119.118 Q 426.045 119.118 426.045 119.011 L 426.045 106.277 Q 426.045 106.17 426.152 106.17 L 434.292 106.17 Q 434.399 106.17 434.399 106.277 L 434.399 108.107 Q 434.399 108.214 434.292 108.214 L 428.187 108.214 L 428.187 111.626 L 433.377 111.626 Q 433.484 111.626 433.484 111.733 L 433.484 113.457 Q 433.484 113.555 433.377 113.555 L 428.187 113.555 L 428.187 117.092 L 434.292 117.092 Q 434.399 117.092 434.399 117.198 L 434.399 119.011 Q 434.399 119.118 434.292 119.118 Z M 442.572 119.118 Q 442.519 119.118 442.483 119.065 L 439.781 114.479 Q 439.106 115.634 438.431 116.772 Q 437.755 117.909 437.08 119.065 Q 437.044 119.118 436.991 119.118 L 434.814 119.118 Q 434.743 119.118 434.716 119.069 Q 434.689 119.02 434.725 118.958 L 438.591 112.48 Q 437.675 110.933 436.778 109.405 Q 435.88 107.876 434.974 106.33 Q 434.938 106.268 434.965 106.219 Q 434.992 106.17 435.054 106.17 L 437.24 106.17 Q 437.293 106.17 437.329 106.223 L 439.781 110.489 Q 440.395 109.422 441.008 108.361 Q 441.621 107.299 442.234 106.223 Q 442.27 106.17 442.323 106.17 L 444.509 106.17 Q 444.571 106.17 444.598 106.219 Q 444.625 106.268 444.589 106.33 L 440.972 112.48 Q 441.95 114.106 442.91 115.719 Q 443.869 117.332 444.847 118.958 Q 444.882 119.02 444.856 119.069 Q 444.829 119.118 444.758 119.118 Z M 448.149 108.214 L 448.149 112.106 L 450.913 112.106 Q 451.935 112.106 452.433 111.493 Q 452.939 110.898 452.939 110.16 Q 452.939 109.058 452.157 108.552 Q 451.65 108.214 450.842 108.214 Z M 446.114 119.118 Q 446.007 119.118 446.007 119.011 L 446.007 106.277 Q 446.007 106.17 446.114 106.17 L 450.735 106.17 Q 451.499 106.17 452.184 106.33 Q 452.877 106.49 453.659 107.094 Q 453.961 107.334 454.214 107.65 Q 454.468 107.965 454.672 108.347 Q 454.867 108.738 454.974 109.209 Q 455.081 109.68 455.081 110.213 Q 455.081 111.609 454.032 112.879 Q 452.983 114.141 450.984 114.141 L 448.149 114.141 L 448.149 119.011 Q 448.149 119.118 448.042 119.118 Z M 458.768 108.098 L 458.768 111.751 L 461.585 111.751 Q 462.616 111.751 463.131 111.182 Q 463.647 110.613 463.647 109.831 Q 463.647 109.387 463.491 109.04 Q 463.336 108.694 463.042 108.472 Q 462.785 108.294 462.442 108.196 Q 462.1 108.098 461.7 108.098 Z M 456.733 119.118 Q 456.626 119.118 456.626 119.011 L 456.626 106.277 Q 456.626 106.17 456.733 106.17 L 461.718 106.17 Q 462.545 106.17 463.211 106.397 Q 463.878 106.623 464.375 107.041 Q 464.633 107.281 464.869 107.587 Q 465.104 107.894 465.286 108.249 Q 465.468 108.605 465.575 109.005 Q 465.682 109.405 465.682 109.831 Q 465.682 110.462 465.504 111.027 Q 465.326 111.591 465.006 112.08 Q 464.677 112.533 464.242 112.875 Q 463.807 113.217 463.256 113.422 Q 463.975 114.799 464.704 116.19 Q 465.433 117.58 466.153 118.958 Q 466.179 119.02 466.153 119.069 Q 466.126 119.118 466.064 119.118 L 463.771 119.118 Q 463.744 119.118 463.718 119.096 Q 463.691 119.073 463.673 119.056 L 461.069 113.679 L 458.768 113.679 L 458.768 119.011 Q 458.768 119.118 458.661 119.118 Z M 467.66 119.118 Q 467.554 119.118 467.554 119.011 L 467.554 106.277 Q 467.554 106.17 467.66 106.17 L 475.801 106.17 Q 475.907 106.17 475.907 106.277 L 475.907 108.107 Q 475.907 108.214 475.801 108.214 L 469.695 108.214 L 469.695 111.626 L 474.885 111.626 Q 474.992 111.626 474.992 111.733 L 474.992 113.457 Q 474.992 113.555 474.885 113.555 L 469.695 113.555 L 469.695 117.092 L 475.801 117.092 Q 475.907 117.092 475.907 117.198 L 475.907 119.011 Q 475.907 119.118 475.801 119.118 Z M 477.682 115.848 Q 477.708 115.812 477.753 115.812 Q 477.797 115.812 477.833 115.839 Q 478.535 116.407 479.446 116.75 Q 480.357 117.092 481.37 117.092 Q 482.507 117.092 483.165 116.621 Q 483.787 116.168 483.787 115.421 Q 483.787 114.017 482.214 113.804 L 482.223 113.804 Q 482.001 113.777 481.801 113.75 Q 481.601 113.724 481.401 113.697 Q 481.201 113.67 480.992 113.639 Q 480.783 113.608 480.534 113.573 Q 479.699 113.457 479.046 113.15 Q 478.393 112.844 477.948 112.337 Q 477.504 111.822 477.282 111.213 Q 477.06 110.604 477.06 109.885 Q 477.06 108.196 478.179 107.139 Q 479.308 106.063 481.316 106.063 Q 481.912 106.063 482.476 106.166 Q 483.04 106.268 483.569 106.445 Q 484.098 106.623 484.582 106.868 Q 485.067 107.112 485.511 107.405 Q 485.6 107.467 485.538 107.556 L 484.462 109.147 Q 484.4 109.227 484.32 109.174 Q 483.627 108.738 482.845 108.476 Q 482.063 108.214 481.228 108.214 Q 480.801 108.214 480.437 108.316 Q 480.072 108.418 479.779 108.649 Q 479.201 109.067 479.201 109.92 Q 479.201 110.409 479.592 110.871 Q 479.788 111.084 480.117 111.231 Q 480.445 111.378 480.925 111.449 Q 481.183 111.493 481.53 111.542 Q 481.876 111.591 482.347 111.644 Q 484.169 111.866 485.049 112.986 Q 485.929 114.079 485.929 115.421 Q 485.929 117.216 484.676 118.229 Q 483.414 119.225 481.352 119.225 Q 478.446 119.225 476.411 117.447 Q 476.375 117.421 476.375 117.376 Q 476.375 117.332 476.402 117.296 Z M 487.952 115.848 Q 487.978 115.812 488.023 115.812 Q 488.067 115.812 488.103 115.839 Q 488.805 116.407 489.716 116.75 Q 490.627 117.092 491.64 117.092 Q 492.777 117.092 493.435 116.621 Q 494.057 116.168 494.057 115.421 Q 494.057 114.017 492.484 113.804 L 492.493 113.804 Q 492.271 113.777 492.071 113.75 Q 491.871 113.724 491.671 113.697 Q 491.471 113.67 491.262 113.639 Q 491.053 113.608 490.804 113.573 Q 489.969 113.457 489.316 113.15 Q 488.663 112.844 488.218 112.337 Q 487.774 111.822 487.552 111.213 Q 487.33 110.604 487.33 109.885 Q 487.33 108.196 488.449 107.139 Q 489.578 106.063 491.586 106.063 Q 492.182 106.063 492.746 106.166 Q 493.311 106.268 493.839 106.445 Q 494.368 106.623 494.852 106.868 Q 495.337 107.112 495.781 107.405 Q 495.87 107.467 495.808 107.556 L 494.732 109.147 Q 494.67 109.227 494.59 109.174 Q 493.897 108.738 493.115 108.476 Q 492.333 108.214 491.498 108.214 Q 491.071 108.214 490.707 108.316 Q 490.342 108.418 490.049 108.649 Q 489.471 109.067 489.471 109.92 Q 489.471 110.409 489.862 110.871 Q 490.058 111.084 490.387 111.231 Q 490.716 111.378 491.195 111.449 Q 491.453 111.493 491.8 111.542 Q 492.146 111.591 492.617 111.644 Q 494.439 111.866 495.319 112.986 Q 496.199 114.079 496.199 115.421 Q 496.199 117.216 494.946 118.229 Q 493.684 119.225 491.622 119.225 Q 488.716 119.225 486.681 117.447 Q 486.645 117.421 486.645 117.376 Q 486.645 117.332 486.672 117.296 Z M 500.204 119.118 Q 500.115 119.118 500.097 119.038 L 496.907 106.303 Q 496.889 106.25 496.924 106.21 Q 496.96 106.17 497.013 106.17 L 499.057 106.17 Q 499.146 106.17 499.164 106.25 L 501.083 114.95 Q 501.67 112.764 502.265 110.604 Q 502.861 108.445 503.456 106.25 Q 503.474 106.17 503.563 106.17 L 504.958 106.17 Q 505.038 106.17 505.056 106.25 L 507.437 114.95 Q 507.917 112.764 508.397 110.604 Q 508.877 108.445 509.357 106.25 Q 509.375 106.17 509.464 106.17 L 511.508 106.17 Q 511.561 106.17 511.596 106.21 Q 511.632 106.25 511.614 106.303 L 508.424 119.038 Q 508.406 119.118 508.317 119.118 L 506.709 119.118 Q 506.629 119.118 506.611 119.038 L 504.256 110.196 Q 503.669 112.426 503.083 114.621 Q 502.496 116.816 501.91 119.038 Q 501.892 119.118 501.812 119.118 Z M 511.528 119.109 Q 511.466 119.109 511.439 119.065 Q 511.412 119.02 511.43 118.967 L 516.087 106.223 Q 516.104 106.152 516.175 106.152 L 517.766 106.152 Q 517.793 106.152 517.824 106.174 Q 517.855 106.197 517.864 106.223 L 522.512 118.967 Q 522.529 119.02 522.503 119.065 Q 522.476 119.109 522.423 119.109 L 520.388 119.109 Q 520.317 119.109 520.299 119.038 L 519.339 116.23 L 514.647 116.23 Q 514.398 116.95 514.154 117.638 Q 513.909 118.327 513.661 119.038 Q 513.652 119.065 513.621 119.087 Q 513.589 119.109 513.563 119.109 Z M 518.699 114.319 Q 518.682 114.257 518.65 114.186 Q 518.619 114.115 518.602 114.061 Q 518.45 113.626 518.326 113.257 Q 518.202 112.888 518.104 112.613 Q 518.042 112.435 517.984 112.266 Q 517.926 112.097 517.873 111.946 Q 517.828 111.804 517.784 111.675 Q 517.74 111.546 517.695 111.422 Q 517.615 111.164 517.531 110.907 Q 517.446 110.649 517.357 110.373 Q 517.313 110.249 517.264 110.098 Q 517.215 109.947 517.162 109.778 Q 517.135 109.689 517.122 109.64 Q 517.109 109.591 517.091 109.542 Q 517.073 109.494 517.051 109.431 Q 517.029 109.369 516.993 109.254 Q 516.895 109.547 516.811 109.796 Q 516.726 110.045 516.655 110.258 Q 516.638 110.311 516.629 110.356 Q 516.62 110.4 516.602 110.444 Q 516.558 110.596 516.509 110.729 Q 516.46 110.862 516.415 110.995 Q 516.371 111.138 516.327 111.271 Q 516.282 111.404 516.238 111.529 Q 516.149 111.795 516.056 112.089 Q 515.962 112.382 515.847 112.702 Q 515.731 113.022 515.607 113.39 Q 515.482 113.759 515.287 114.319 Z M 525.493 119.118 Q 525.395 119.118 525.395 119.011 L 525.395 113.804 Q 524.435 111.929 523.484 110.062 Q 522.533 108.196 521.582 106.321 Q 521.556 106.259 521.582 106.214 Q 521.609 106.17 521.68 106.17 L 523.706 106.17 Q 523.733 106.17 523.76 106.192 Q 523.786 106.214 523.804 106.232 L 526.417 111.689 Q 527.074 110.311 527.719 108.96 Q 528.363 107.61 529.021 106.232 Q 529.038 106.214 529.065 106.192 Q 529.092 106.17 529.118 106.17 L 531.153 106.17 Q 531.224 106.17 531.251 106.214 Q 531.278 106.259 531.251 106.321 L 527.43 113.804 L 527.43 119.011 Q 527.43 119.118 527.323 119.118 Z" style="fill: rgb(255, 255, 255);"/>
    <path d="M 399.651 178.435 Q 399.404 177.922 399.351 177.471 Q 399.298 177.021 399.298 176.119 L 399.298 171.188 Q 399.298 170.463 399.572 169.774 Q 399.846 169.084 400.836 167.679 Q 401.826 166.274 404.406 166.274 Q 406.828 166.274 408.224 167.918 Q 409.621 169.561 409.621 171.665 L 409.621 175.607 Q 409.621 176.985 409.037 178.435 L 404.477 190.631 L 400.571 190.631 L 404.583 180.467 Q 403.646 180.68 403.134 180.68 Q 402.02 180.68 401.057 180.043 Q 400.093 179.407 399.651 178.435 Z M 404.512 169.668 Q 403.646 169.668 403.213 170.251 Q 402.78 170.834 402.78 171.665 L 402.78 175.607 Q 402.78 176.508 403.248 177.091 Q 403.717 177.675 404.618 177.675 Q 405.414 177.675 405.794 177.109 Q 406.174 176.543 406.174 175.607 L 406.174 171.665 Q 406.174 170.763 405.794 170.215 Q 405.414 169.668 404.512 169.668 Z M 415.498 190.856 Q 411.697 190.131 411.079 186.401 Q 411.079 182.53 411.079 178.642 Q 411.079 174.753 411.079 170.847 Q 411.556 168.019 413.58 167.038 Q 415.604 166.057 418.202 166.64 Q 419.51 167.435 420.305 168.319 Q 421.101 169.203 421.401 170.847 Q 421.401 174.753 421.401 178.624 Q 421.401 182.495 421.401 186.331 Q 420.889 189.848 417.636 190.82 Q 417.23 190.82 416.956 190.838 Q 416.682 190.856 415.498 190.856 Z M 415.851 187.374 Q 417.442 187.374 417.884 185.977 Q 417.884 182.318 417.884 178.677 Q 417.884 175.036 417.884 171.377 Q 417.672 170.723 417.407 170.299 Q 416.364 169.503 415.639 169.954 Q 414.914 170.405 414.596 171.377 Q 414.596 175.001 414.596 178.642 Q 414.596 182.283 414.596 185.906 Q 414.808 187.02 415.851 187.374 Z"/>
    <path d="M 343.122 84.558 Q 343.194 84.558 343.242 84.612 Q 343.29 84.666 343.266 84.738 Q 342.761 87.189 341.032 88.51 Q 340.191 89.147 339.206 89.471 Q 338.221 89.795 337.08 89.795 Q 335.002 89.795 333.584 88.798 Q 332.191 87.813 331.566 86.636 Q 331.35 86.228 331.194 85.813 Q 331.038 85.399 330.954 84.942 Q 330.798 84.054 330.798 80.906 Q 330.798 79.333 330.834 78.336 Q 330.87 77.339 330.954 76.883 Q 331.038 76.426 331.194 76.006 Q 331.35 75.585 331.566 75.177 Q 332.191 74.012 333.584 73.015 Q 334.99 72.006 337.08 72.006 Q 339.578 72.006 341.212 73.543 Q 342.869 75.093 343.266 77.219 Q 343.29 77.291 343.242 77.339 Q 343.194 77.387 343.122 77.387 L 340.371 77.387 Q 340.263 77.387 340.239 77.291 Q 340.083 76.81 339.794 76.396 Q 339.506 75.982 339.086 75.621 Q 338.293 74.913 337.08 74.913 Q 336.179 74.913 335.542 75.273 Q 334.906 75.633 334.521 76.102 Q 334.293 76.39 334.125 76.756 Q 333.957 77.123 333.861 77.507 Q 333.765 77.916 333.729 78.768 Q 333.693 79.621 333.693 80.906 Q 333.693 82.216 333.729 83.063 Q 333.765 83.909 333.861 84.318 Q 333.957 84.69 334.131 85.057 Q 334.305 85.423 334.521 85.699 Q 334.906 86.204 335.542 86.558 Q 336.179 86.912 337.08 86.912 Q 339.158 86.912 340.239 84.642 Q 340.263 84.618 340.299 84.588 Q 340.335 84.558 340.371 84.558 Z M 348.15 89.651 Q 348.006 89.651 348.006 89.507 L 348.006 74.756 L 343.429 74.756 Q 343.285 74.756 343.285 74.612 L 343.285 72.294 Q 343.285 72.15 343.429 72.15 L 355.465 72.15 Q 355.609 72.15 355.609 72.294 L 355.609 74.612 Q 355.609 74.756 355.465 74.756 L 350.9 74.756 L 350.9 89.507 Q 350.9 89.651 350.756 89.651 Z M 355.978 89.651 Q 355.834 89.651 355.834 89.507 L 355.834 87.068 Q 355.834 86.924 355.978 86.924 L 358.428 86.924 Q 358.56 86.924 358.56 87.068 L 358.56 89.507 Q 358.56 89.651 358.428 89.651 Z M 366.923 77.327 Q 366.923 76.162 366.304 75.507 Q 365.686 74.853 364.653 74.853 Q 363.62 74.853 363.007 75.507 Q 362.395 76.162 362.395 77.327 L 362.395 84.594 Q 362.395 85.771 363.007 86.42 Q 363.62 87.068 364.653 87.068 Q 365.686 87.068 366.304 86.42 Q 366.923 85.771 366.923 84.594 Z M 359.656 77.183 Q 359.656 74.756 361.181 73.447 Q 362.695 72.114 364.653 72.114 Q 365.626 72.114 366.497 72.456 Q 367.367 72.799 368.124 73.447 Q 368.881 74.12 369.271 75.051 Q 369.662 75.982 369.662 77.183 L 369.662 84.738 Q 369.662 87.153 368.124 88.474 Q 366.611 89.795 364.653 89.795 Q 362.695 89.795 361.181 88.474 Q 359.656 87.165 359.656 84.738 Z M 374.694 89.687 Q 374.55 89.687 374.55 89.543 L 374.55 75.273 Q 373.997 75.681 373.445 76.096 Q 372.892 76.51 372.34 76.907 Q 372.256 76.967 372.183 76.925 Q 372.111 76.883 372.111 76.786 L 372.111 74.18 Q 372.111 74.156 372.129 74.12 Q 372.147 74.084 372.171 74.06 L 374.646 72.27 L 377.156 72.27 Q 377.3 72.27 377.3 72.414 L 377.3 89.543 Q 377.3 89.687 377.156 89.687 Z"/>
  </g>
</svg>