<?xml version="1.0" encoding="utf-8"?>
<svg viewBox="0 0 323.14914 200" xmlns="http://www.w3.org/2000/svg">
  <g id="layer1" transform="matrix(0.9999999999999999, 0, 0, 0.9999999999999999, -303.4596862792969, -22.960700988769517)">
    <path id="rect15575" style="opacity:1;fill:#0a9646;fill-opacity:1;fill-rule:evenodd;stroke-width:0.0420687;stroke-linecap:square;stroke-miterlimit:10;paint-order:stroke fill markers" d="M 303.45966,22.960701 H 626.6088 V 222.9607 H 303.45966 Z"/>
    <path transform="matrix(0.26458333,0,0,0.26458333,303.45966,22.960701)" d="m 30.353516,5.0117188 c -13.808655,0 -25.0781254,11.2674112 -25.0781254,25.0761722 v 332.957029 47.1211 49.04296 13.88672 252.45508 c 0,13.80862 11.2694704,25.06641 25.0781254,25.06641 H 1190.9805 c 13.8086,0 25.0781,-11.25779 25.0781,-25.06641 V 473.0957 459.57031 401.94727 363.04492 30.087891 c 0,-13.808761 -11.2695,-25.0761722 -25.0781,-25.0761722 z m 0,9.4511722 H 1190.9805 c 8.7398,0 15.6425,6.885058 15.6425,15.625 v 332.957029 38.90235 c 0,0.29959 -0.013,0.61475 -0.037,0.9375 v 7.20703 c 0,8.68754 -6.9941,15.68164 -15.6816,15.68164 h -8.0762 c -0.1869,0.007 -0.3766,0.0176 -0.5586,0.0176 H 38.023438 c -0.18105,0 -0.371847,-0.0102 -0.560547,-0.0176 h -7.097657 c -8.687546,0 -15.68164,-6.9941 -15.68164,-15.68164 V 30.152344 c 0,-1.658433 0.257595,-3.253829 0.730468,-4.751953 0.01365,-0.04461 0.03284,-0.08643 0.04688,-0.13086 1.99686,-6.321925 7.84094,-10.80664 14.892578,-10.80664 z M 30.28125,435.30469 h 6.958984 1145.628866 8.1172 c 8.6414,0 15.5996,6.95633 15.5996,15.59765 v 7.5918 c 0.024,0.37296 0.037,0.7339 0.037,1.07617 v 13.52539 252.45508 c 0,5.47634 -2.7106,10.22208 -6.8847,13.00391 -2.4923,1.6862 -5.5034,2.66992 -8.752,2.66992 H 30.28125 c -8.641361,0 -15.597656,-6.9563 -15.597656,-15.59766 V 450.90234 c 0,-8.64132 6.956295,-15.59765 15.597656,-15.59765 z" style="color:#000000;font-style:normal;font-variant:normal;font-weight:normal;font-stretch:normal;font-size:medium;line-height:normal;font-family:sans-serif;font-variant-ligatures:normal;font-variant-position:normal;font-variant-caps:normal;font-variant-numeric:normal;font-variant-alternates:normal;font-variant-east-asian:normal;font-feature-settings:normal;font-variation-settings:normal;text-indent:0;text-align:start;text-decoration:none;text-decoration-line:none;text-decoration-style:solid;text-decoration-color:#000000;letter-spacing:normal;word-spacing:normal;text-transform:none;writing-mode:lr-tb;direction:ltr;text-orientation:mixed;dominant-baseline:auto;baseline-shift:baseline;text-anchor:start;white-space:normal;shape-padding:0;shape-margin:0;inline-size:0;clip-rule:nonzero;display:inline;overflow:visible;visibility:visible;opacity:1;isolation:auto;mix-blend-mode:normal;color-interpolation:sRGB;color-interpolation-filters:linearRGB;solid-color:#000000;solid-opacity:1;vector-effect:none;fill:#ffffff;fill-opacity:1;fill-rule:evenodd;stroke:none;stroke-width:2.09199;stroke-linecap:square;stroke-linejoin:miter;stroke-miterlimit:10;stroke-dasharray:none;stroke-dashoffset:0;stroke-opacity:1;paint-order:stroke fill markers;color-rendering:auto;image-rendering:auto;shape-rendering:auto;text-rendering:auto;enable-background:accumulate;stop-color:#000000;stop-opacity:1" id="path15582"/>
    <path d="m 324.12038,67.193614 h 60.89334 v 27.821331 h -60.89334 z" style="opacity:1;fill:#ffd70f;fill-opacity:1;fill-rule:evenodd;stroke:none;stroke-width:0.553508;stroke-linecap:square;stroke-miterlimit:10;stroke-dasharray:none;stroke-opacity:1;paint-order:stroke fill markers" id="rect15605"/>
    <path id="path15631" d="m 326.18273,67.759747 c -0.81115,0 -1.47443,0.660164 -1.47443,1.471307 v 23.746432 c 0,0.811142 0.66328,1.471323 1.47443,1.471323 h 56.7905 c 0.81117,0 1.4744,-0.660181 1.4744,-1.471323 V 69.231054 c 0,-0.811143 -0.66328,-1.471307 -1.4744,-1.471307 z m 0,0.535017 h 56.7905 c 0.52266,0 0.93627,0.413622 0.93627,0.93629 v 23.746432 c 0,0.522654 -0.41353,0.933189 -0.93627,0.933189 h -56.7905 c -0.52266,0 -0.93628,-0.410555 -0.93628,-0.933189 V 69.231054 c 0,-0.522672 0.41354,-0.93629 0.93628,-0.93629 z" style="color:#000000;font-style:normal;font-variant:normal;font-weight:normal;font-stretch:normal;font-size:medium;line-height:normal;font-family:sans-serif;font-variant-ligatures:normal;font-variant-position:normal;font-variant-caps:normal;font-variant-numeric:normal;font-variant-alternates:normal;font-variant-east-asian:normal;font-feature-settings:normal;font-variation-settings:normal;text-indent:0;text-align:start;text-decoration:none;text-decoration-line:none;text-decoration-style:solid;text-decoration-color:#000000;letter-spacing:normal;word-spacing:normal;text-transform:none;writing-mode:lr-tb;direction:ltr;text-orientation:mixed;dominant-baseline:auto;baseline-shift:baseline;text-anchor:start;white-space:normal;shape-padding:0;shape-margin:0;inline-size:0;clip-rule:nonzero;display:inline;overflow:visible;visibility:visible;opacity:1;isolation:auto;mix-blend-mode:normal;color-interpolation:sRGB;color-interpolation-filters:linearRGB;solid-color:#000000;solid-opacity:1;vector-effect:none;fill:#000000;fill-opacity:1;fill-rule:evenodd;stroke:none;stroke-width:0.119062;stroke-linecap:square;stroke-linejoin:miter;stroke-miterlimit:10;stroke-dasharray:none;stroke-dashoffset:0;stroke-opacity:1;paint-order:stroke fill markers;color-rendering:auto;image-rendering:auto;shape-rendering:auto;text-rendering:auto;enable-background:accumulate;stop-color:#000000;stop-opacity:1"/>
    <path d="m 336.88947,72.205604 c -1.36961,0 -2.51552,0.330332 -3.43646,0.991507 -0.91309,0.653335 -1.5737,1.361798 -1.98303,2.125328 -0.14189,0.267612 -0.264,0.538688 -0.36613,0.814199 -0.10264,0.275473 -0.18065,0.564078 -0.23555,0.86321 -0.0552,0.299089 -0.0954,0.774434 -0.11873,1.427765 -0.0223,0.653332 -0.0362,1.495435 -0.0362,2.5266 0,2.062321 0.0516,3.383536 0.15387,3.966025 0.0552,0.299136 0.13326,0.587702 0.23556,0.863193 0.10264,0.267612 0.22467,0.534915 0.36612,0.802543 0.40948,0.771411 1.06995,1.479875 1.983,2.125324 0.92887,0.653346 2.07472,0.979855 3.43649,0.979855 0.74779,0 1.44489,-0.107189 2.09034,-0.319632 0.64544,-0.212556 1.24303,-0.525333 1.79403,-0.942508 1.1335,-0.865864 1.86473,-2.103628 2.19533,-3.709419 0.0139,-0.04714 0.009,-0.08518 -0.0223,-0.116745 -0.0315,-0.03928 -0.0694,-0.05829 -0.11656,-0.05829 h -2.70394 c -0.0223,1.5e-5 -0.0488,0.01117 -0.0722,0.03521 -0.0223,0.01589 -0.0451,0.0307 -0.0582,0.0467 -0.70836,1.487712 -1.74338,2.232636 -3.10515,2.232636 -0.59037,0 -1.09454,-0.11468 -1.51174,-0.342928 -0.41713,-0.236167 -0.75132,-0.520933 -1.00317,-0.851551 -0.14189,-0.181028 -0.27124,-0.389065 -0.3896,-0.625222 -0.11008,-0.244 -0.19597,-0.488524 -0.25924,-0.732545 -0.0628,-0.267611 -0.10709,-0.67614 -0.13048,-1.227141 -0.0223,-0.558871 -0.0359,-1.267326 -0.0359,-2.125325 0,-0.842249 0.009,-1.543133 0.0359,-2.102004 0.0223,-0.55887 0.0677,-0.97117 0.13048,-1.238798 0.0627,-0.251917 0.14857,-0.496392 0.25924,-0.732549 0.11009,-0.244 0.24028,-0.45965 0.3896,-0.64857 0.252,-0.30699 0.58598,-0.580386 1.00317,-0.816526 0.41715,-0.236167 0.92137,-0.352269 1.51174,-0.352269 0.79503,1.7e-5 1.45185,0.230844 1.97135,0.695231 0.27541,0.236167 0.50863,0.492045 0.69757,0.767539 0.18872,0.267667 0.33407,0.560022 0.4361,0.874867 0.0167,0.06294 0.0599,0.09333 0.13046,0.09333 h 2.7039 c 0.0468,0 0.0854,-0.01589 0.11658,-0.0467 0.0315,-0.03161 0.0407,-0.07184 0.0223,-0.118954 -0.25952,-1.393235 -0.93175,-2.595995 -2.01801,-3.611427 -1.07052,-1.007535 -2.42438,-1.511744 -4.0617,-1.511744 z m 27.73422,0.104956 c -1.28304,0 -2.4213,0.437369 -3.41313,1.311121 -0.99967,0.858 -1.50005,2.08205 -1.50005,3.672071 v 7.425818 c 0,1.590021 0.50038,2.814088 1.50005,3.672088 0.99183,0.865851 2.13009,1.299446 3.41313,1.299446 1.28303,0 2.42133,-0.433578 3.41313,-1.299446 1.00756,-0.86587 1.50938,-2.089917 1.50938,-3.672088 v -7.425818 c 0,-0.787127 -0.1299,-1.484222 -0.38959,-2.09033 -0.252,-0.613979 -0.62389,-1.140934 -1.11979,-1.581741 -0.49592,-0.425045 -1.03279,-0.74779 -1.6074,-0.968177 -0.56674,-0.22825 -1.16816,-0.342924 -1.80573,-0.342924 z m -21.12261,0.03521 c -0.0943,0 -0.14217,0.04776 -0.14217,0.142392 v 2.279298 c 0,0.09444 0.0479,0.142197 0.14217,0.142197 h 4.49793 V 89.409 c 0,0.09444 0.0479,0.139995 0.14217,0.139995 h 2.5616 c 0.0945,0 0.14217,-0.04555 0.14217,-0.139995 V 74.909653 h 4.48625 c 0.0943,0 0.14217,-0.04778 0.14217,-0.142196 v -2.279299 c 0,-0.09444 -0.0479,-0.142392 -0.14217,-0.142392 z m 31.22667,0.118953 -2.43331,1.759064 c -0.0139,0.01589 -0.0315,0.03477 -0.0466,0.05829 -0.009,0.02341 -0.0139,0.04468 -0.0139,0.06068 v 2.561593 c 0,0.06294 0.0278,0.110694 0.0728,0.142196 0.0468,0.02343 0.0989,0.01617 0.15388,-0.02343 0.36208,-0.259778 0.7228,-0.523245 1.08486,-0.790886 0.36206,-0.275473 0.72509,-0.548889 1.08714,-0.816528 v 14.028096 c 0,0.09444 0.048,0.142198 0.14217,0.142198 h 2.41929 c 0.0943,0 0.13994,-0.04778 0.13994,-0.142198 V 72.606811 c 0,-0.09444 -0.0455,-0.142197 -0.13994,-0.142197 z m -10.10406,2.538257 c 0.67694,0 1.21532,0.217964 1.61673,0.650912 0.40948,0.425045 0.61359,1.018854 0.61359,1.782378 v 7.143522 c 0,0.771407 -0.20461,1.368982 -0.61359,1.794059 -0.40133,0.425045 -0.93979,0.63689 -1.61673,0.63689 -0.67695,0 -1.21527,-0.211859 -1.61671,-0.63689 -0.40134,-0.425091 -0.60428,-1.022652 -0.60428,-1.794059 v -7.143497 c 0,-0.763524 0.20266,-1.357335 0.60428,-1.782377 0.40133,-0.432946 0.93976,-0.650913 1.61671,-0.650913 z m -9.98507,11.865445 c -0.0945,0 -0.14217,0.04776 -0.14217,0.14239 v 2.398281 c 0,0.09444 0.0479,0.139994 0.14217,0.139994 h 2.40762 c 0.0867,0 0.13046,-0.04555 0.13046,-0.139994 v -2.398281 c 0,-0.09444 -0.0451,-0.14239 -0.13046,-0.14239 z" style="font-style: normal; font-variant: normal; font-weight: normal; font-stretch: normal; font-size: 15.1831px; line-height: 1.46; font-family: 'Alte DIN 1451 Mittelschrift gepraegt'; text-align: center; text-anchor: middle; opacity: 1; fill-opacity: 1; stroke-width: 0.264584; visibility: hidden;" id="path15637"/>
    <path id="path17496" style="font-size:15.1831px;line-height:1.46;font-family:'Singapore Road Signs';-inkscape-font-specification:'Singapore Road Signs';text-align:center;text-anchor:middle;opacity:1;fill:#ffffff;fill-opacity:1;stroke-width:0.0756548" d="m 570.47468,59.120043 v 50.614317 h 35.43541 V 59.120043 Z m 1.38203,1.660034 h 32.65274 v 47.566083 h -32.65274 z m 13.66823,3.646909 -2.23483,8.869719 h 3.92184 l 0.28216,-8.869719 z m 3.35329,0 0.28216,8.869719 h 3.92385 l -2.23686,-8.869719 z m -15.90932,9.992316 v 1.942234 l 3.06692,1.10806 v 0.584703 h 1.411 v -0.584703 c 0,0 2.08662,-0.313671 4.52568,-0.535349 1.95306,-0.177516 4.1317,-0.271988 5.64407,-0.278037 1.79866,-0.0063 4.45804,0.09363 6.73975,0.288436 2.51319,0.214479 4.5713,0.524984 4.5713,0.524984 v 0.5847 h 1.38199 v -0.5847 l 3.06685,-1.108064 v -1.942233 z m 9.21108,3.620663 -6.70448,26.681115 h 10.04943 l 1.39442,-26.681115 z m 7.25642,0 1.39441,26.681115 h 10.0494 l -6.70443,-26.681115 z"/>
    <g style="font-size:14.7905px;line-height:0;font-family:'Singapore Road Signs';-inkscape-font-specification:'Singapore Road Signs';text-align:center;text-anchor:middle;opacity:1;fill:#860000;fill-opacity:1;stroke-width:6.45213" id="layer1-8" transform="matrix(0.08718024,0,0,0.08718024,-145.22047,195.49013)">
      <circle style="opacity:1;fill:#f00a0a;fill-opacity:1;fill-rule:nonzero;stroke:none;stroke-width:3622.55;stroke-linecap:round;stroke-linejoin:round;stroke-miterlimit:4;stroke-dasharray:none;stroke-opacity:1;paint-order:stroke fill markers" id="path815" cx="6380.9966" cy="-193.29752" r="350"/>
      <circle cy="-193.29752" cx="6380.9966" id="circle817" style="opacity:1;fill:#ffffff;fill-opacity:1;fill-rule:nonzero;stroke:none;stroke-width:2587.55;stroke-linecap:round;stroke-linejoin:round;stroke-miterlimit:4;stroke-dasharray:none;stroke-opacity:1;paint-order:stroke fill markers" r="263.821"/>
      <g aria-label="20 " style="font-style:normal;font-variant:normal;font-weight:bold;font-stretch:normal;font-size:414.864px;line-height:0;font-family:Giaothong1;-inkscape-font-specification:'Giaothong1 Bold';letter-spacing:0px;word-spacing:0px;fill:#000000;fill-opacity:1;stroke:none;stroke-width:24.7849" id="text874" transform="matrix(-1,0,0,1,1299.029,-383.45)">
        <g aria-label="90" transform="translate(2310.2259,387.54849)" style="font-style:normal;font-variant:normal;font-weight:bold;font-stretch:normal;font-size:414.864px;line-height:0;font-family:Giaothong1;-inkscape-font-specification:'Giaothong1 Bold';letter-spacing:0px;word-spacing:0px;fill:#000000;fill-opacity:1;stroke:none;stroke-width:53.5539" id="text844"/>
      </g>
    </g>
    <g style="font-size:14.7905px;line-height:0;font-family:'Singapore Road Signs';-inkscape-font-specification:'Singapore Road Signs';text-align:center;text-anchor:middle;opacity:1;fill:#fff000;fill-opacity:1;stroke-width:6.45221" id="layer1-7" transform="matrix(0.08717968,0,0,0.08717968,488.77841,183.34565)">
      <circle cy="-54" cx="351" id="circle817-6" style="opacity:1;fill:#0046aa;fill-opacity:1;fill-rule:nonzero;stroke:none;stroke-width:3622.58;stroke-linecap:round;stroke-linejoin:round;stroke-miterlimit:4;stroke-dasharray:none;stroke-opacity:1;paint-order:stroke fill markers" r="350"/>
      <path id="rect984" style="font-style: normal; font-variant: normal; font-weight: bold; font-stretch: normal; font-size: 414.864px; line-height: 0; font-family: Giaothong1; letter-spacing: 0px; word-spacing: 0px; opacity: 1; fill: rgb(255, 255, 255); fill-opacity: 1; fill-rule: nonzero; stroke: none; stroke-width: 0.344279; stroke-linecap: round; stroke-linejoin: miter; stroke-miterlimit: 10; stroke-dasharray: none; stroke-opacity: 1; paint-order: stroke; visibility: hidden;" d="m 851.18164,518.03906 c -16.32678,0 -29.4707,13.14393 -29.4707,29.47071 v 80.94921 c 0,16.32678 13.14392,29.47071 29.4707,29.47071 16.32678,0 29.4707,-13.14393 29.4707,-29.47071 v -80.94921 c 0,-16.32678 -13.14392,-29.47071 -29.4707,-29.47071 z m -69.94336,1.23828 -26.10937,69.75391 c -2.72781,7.40406 -3.70118,11.30112 -3.70118,28.44727 0,18.12042 0.7789,22.01697 4.67579,28.25195 5.26075,8.37828 14.22308,13.44336 24.93945,13.44336 10.91123,0 20.0688,-4.87023 25.13476,-13.44336 3.70197,-6.23498 4.48047,-10.13153 4.48047,-28.25195 0,-22.01726 -0.77798,-26.88814 -4.28515,-32.34375 -3.31232,-5.06591 -9.74347,-8.96289 -16.75782,-8.96289 -4.28653,0 -7.01308,0.77773 -8.37695,1.75195 l -0.39062,-0.38867 22.60156,-58.25782 z m 69.94336,18.74024 c 5.25853,0 9.49219,4.23365 9.49219,9.49219 v 80.94921 c 0,5.25853 -4.23366,9.49219 -9.49219,9.49219 -5.25853,0 -9.49219,-4.23366 -9.49219,-9.49219 v -80.94921 c 0,-5.25854 4.23366,-9.49219 9.49219,-9.49219 z m -70.13867,55.68945 c 5.0659,0 9.74219,3.89738 9.74219,9.9375 v 25.71875 c 0,6.04012 -4.67629,9.9375 -9.74219,9.9375 -5.0659,0 -9.74219,-3.89738 -9.74219,-9.9375 v -25.71875 c 0,-6.04012 4.67629,-9.9375 9.74219,-9.9375 z" transform="matrix(3.0349198,0,0,3.0349198,-2125.7104,-1839.7056)"/>
    </g>
    <g aria-label="6" id="text19759" style="font-size:31.1478px;line-height:1.3;font-family:'Singapore Road Signs';-inkscape-font-specification:'Singapore Road Signs';text-align:center;text-anchor:middle;stroke-width:0.159861" transform="matrix(1.6550836,0,0,1.6550836,-321.31659,-238.56049)"/>
    <path d="M 374.136 46.797 Q 374.03 46.797 374.03 46.691 L 374.03 41.295 L 369.24 41.295 L 369.24 46.691 Q 369.24 46.797 369.135 46.797 L 367.228 46.797 Q 367.122 46.797 367.122 46.691 L 367.122 34.097 Q 367.122 33.991 367.228 33.991 L 369.135 33.991 Q 369.24 33.991 369.24 34.097 L 369.24 39.388 L 374.03 39.388 L 374.03 34.097 Q 374.03 33.991 374.136 33.991 L 376.043 33.991 Q 376.148 33.991 376.148 34.097 L 376.148 46.691 Q 376.148 46.797 376.043 46.797 Z M 377.648 46.788 Q 377.586 46.788 377.56 46.744 Q 377.533 46.7 377.551 46.647 L 382.156 34.044 Q 382.174 33.974 382.244 33.974 L 383.818 33.974 Q 383.844 33.974 383.875 33.996 Q 383.905 34.017 383.914 34.044 L 388.511 46.647 Q 388.528 46.7 388.502 46.744 Q 388.476 46.788 388.423 46.788 L 386.41 46.788 Q 386.34 46.788 386.322 46.718 L 385.373 43.94 L 380.733 43.94 Q 380.486 44.652 380.245 45.333 Q 380.003 46.015 379.757 46.718 Q 379.748 46.744 379.717 46.766 Q 379.687 46.788 379.66 46.788 Z M 384.74 42.051 Q 384.723 41.989 384.692 41.919 Q 384.661 41.849 384.644 41.796 Q 384.494 41.365 384.371 41 Q 384.248 40.636 384.152 40.363 Q 384.09 40.187 384.033 40.02 Q 383.976 39.853 383.923 39.704 Q 383.879 39.563 383.835 39.436 Q 383.791 39.309 383.747 39.185 Q 383.668 38.931 383.585 38.676 Q 383.501 38.421 383.413 38.148 Q 383.369 38.025 383.321 37.876 Q 383.273 37.726 383.22 37.559 Q 383.194 37.472 383.18 37.423 Q 383.167 37.375 383.15 37.327 Q 383.132 37.278 383.11 37.217 Q 383.088 37.155 383.053 37.041 Q 382.956 37.331 382.873 37.577 Q 382.789 37.823 382.719 38.034 Q 382.701 38.087 382.693 38.131 Q 382.684 38.175 382.666 38.219 Q 382.622 38.368 382.574 38.5 Q 382.526 38.632 382.482 38.764 Q 382.438 38.904 382.394 39.036 Q 382.35 39.168 382.306 39.291 Q 382.218 39.555 382.126 39.845 Q 382.033 40.135 381.919 40.451 Q 381.805 40.767 381.682 41.132 Q 381.559 41.497 381.365 42.051 Z M 382.917 32.857 Q 382.917 32.857 382.734 32.857 Q 382.552 32.857 382.332 32.857 L 382.332 32.453 Q 382.429 31.899 383.018 31.548 Q 383.941 31.161 383.861 30.634 Q 383.738 30.098 383.035 30.089 Q 382.104 30.106 382.051 30.994 L 380.741 30.994 Q 380.741 30.502 380.922 30.177 Q 381.102 29.851 381.409 29.544 Q 382.016 28.964 382.991 28.946 Q 384.02 28.964 384.679 29.526 Q 384.978 29.825 385.145 30.106 Q 385.312 30.388 385.32 30.818 Q 385.268 31.425 384.644 31.882 Q 384.116 32.137 383.835 32.286 L 383.73 32.4 L 383.615 32.576 L 383.598 32.857 Q 383.281 32.857 382.917 32.857 Z M 390.077 46.797 Q 389.971 46.797 389.971 46.691 L 389.971 34.097 Q 389.971 33.991 390.077 33.991 L 391.984 33.991 Q 392.09 33.991 392.09 34.097 L 392.09 46.691 Q 392.09 46.797 391.984 46.797 Z M 401.071 36.013 L 401.071 39.862 L 403.804 39.862 Q 404.815 39.862 405.307 39.256 Q 405.808 38.667 405.808 37.937 Q 405.808 36.848 405.035 36.347 Q 404.534 36.013 403.734 36.013 Z M 399.058 46.797 Q 398.953 46.797 398.953 46.691 L 398.953 34.097 Q 398.953 33.991 399.058 33.991 L 403.628 33.991 Q 404.384 33.991 405.061 34.149 Q 405.747 34.308 406.52 34.905 Q 406.819 35.142 407.069 35.455 Q 407.32 35.767 407.522 36.144 Q 407.715 36.531 407.821 36.997 Q 407.926 37.463 407.926 37.99 Q 407.926 39.37 406.889 40.627 Q 405.852 41.875 403.875 41.875 L 401.071 41.875 L 401.071 46.691 Q 401.071 46.797 400.965 46.797 Z M 416.636 46.797 Q 416.53 46.797 416.53 46.691 L 416.53 41.295 L 411.74 41.295 L 411.74 46.691 Q 411.74 46.797 411.635 46.797 L 409.727 46.797 Q 409.622 46.797 409.622 46.691 L 409.622 34.097 Q 409.622 33.991 409.727 33.991 L 411.635 33.991 Q 411.74 33.991 411.74 34.097 L 411.74 39.388 L 416.53 39.388 L 416.53 34.097 Q 416.53 33.991 416.636 33.991 L 418.543 33.991 Q 418.648 33.991 418.648 34.097 L 418.648 46.691 Q 418.648 46.797 418.543 46.797 Z M 420.863 40.398 Q 420.863 39.247 420.893 38.517 Q 420.924 37.788 420.977 37.454 Q 421.038 37.12 421.153 36.812 Q 421.267 36.505 421.434 36.206 L 421.425 36.206 Q 421.882 35.353 422.902 34.624 Q 423.93 33.886 425.459 33.886 Q 426.971 33.886 427.999 34.624 Q 429.036 35.371 429.493 36.206 Q 429.819 36.804 429.933 37.454 Q 429.994 37.788 430.025 38.517 Q 430.056 39.247 430.056 40.398 Q 430.056 42.657 429.933 43.351 Q 429.871 43.694 429.761 44.002 Q 429.652 44.309 429.502 44.591 Q 429.036 45.434 427.999 46.173 Q 426.962 46.902 425.459 46.902 Q 423.939 46.902 422.902 46.173 Q 421.882 45.452 421.425 44.591 L 421.434 44.591 Q 421.267 44.292 421.153 43.989 Q 421.038 43.685 420.977 43.351 Q 420.924 43.017 420.893 42.284 Q 420.863 41.55 420.863 40.398 Z M 422.981 40.398 Q 422.981 41.356 423.007 41.976 Q 423.033 42.596 423.104 42.894 Q 423.174 43.167 423.302 43.435 Q 423.429 43.703 423.587 43.905 Q 423.868 44.274 424.334 44.534 Q 424.8 44.793 425.459 44.793 Q 426.11 44.793 426.575 44.534 Q 427.041 44.274 427.314 43.905 Q 427.683 43.457 427.797 42.894 Q 427.938 42.332 427.938 40.398 Q 427.938 39.44 427.903 38.821 Q 427.867 38.201 427.797 37.911 Q 427.736 37.63 427.613 37.362 Q 427.49 37.094 427.323 36.883 Q 427.191 36.716 427.002 36.558 Q 426.813 36.399 426.575 36.281 Q 426.338 36.162 426.057 36.087 Q 425.776 36.013 425.459 36.013 Q 424.8 36.013 424.334 36.276 Q 423.868 36.54 423.587 36.883 Q 423.42 37.094 423.297 37.362 Q 423.174 37.63 423.104 37.911 Q 423.033 38.21 423.007 38.834 Q 422.981 39.458 422.981 40.398 Z M 426.004 32.857 Q 425.987 32.857 425.96 32.844 Q 425.934 32.831 425.925 32.822 L 423.499 30.256 Q 423.447 30.203 423.477 30.142 Q 423.508 30.08 423.578 30.08 L 425.512 30.08 Q 425.565 30.08 425.6 30.133 L 427.437 32.699 Q 427.463 32.761 427.441 32.809 Q 427.419 32.857 427.349 32.857 Z M 432.366 46.797 Q 432.26 46.797 432.26 46.691 L 432.26 34.097 Q 432.26 33.991 432.366 33.991 L 434.177 33.991 Q 434.229 33.991 434.264 34.044 L 439.802 42.763 L 439.802 34.097 Q 439.802 33.991 439.907 33.991 L 441.823 33.991 Q 441.928 33.991 441.928 34.097 L 441.928 46.691 Q 441.928 46.797 441.823 46.797 L 440.021 46.797 Q 439.969 46.797 439.933 46.744 L 434.379 38.025 L 434.379 46.691 Q 434.379 46.797 434.282 46.797 Z M 448.757 41.673 Q 448.652 41.673 448.652 41.567 L 448.652 39.757 Q 448.652 39.66 448.757 39.66 L 453.231 39.66 Q 453.337 39.66 453.337 39.757 L 453.337 42.323 Q 453.337 44.266 452.001 45.575 Q 450.647 46.902 448.74 46.902 Q 447.219 46.902 446.182 46.173 Q 445.163 45.452 444.706 44.591 L 444.715 44.591 Q 444.548 44.292 444.433 43.989 Q 444.319 43.685 444.257 43.351 Q 444.205 43.017 444.174 42.284 Q 444.143 41.55 444.143 40.398 Q 444.143 39.247 444.174 38.517 Q 444.205 37.788 444.257 37.454 Q 444.319 37.12 444.433 36.812 Q 444.548 36.505 444.715 36.206 L 444.706 36.206 Q 445.163 35.353 446.182 34.624 Q 447.211 33.886 448.74 33.886 Q 450.568 33.886 451.763 35.011 Q 452.976 36.136 453.266 37.7 Q 453.284 37.753 453.249 37.788 Q 453.214 37.823 453.161 37.823 L 451.148 37.823 Q 451.069 37.823 451.051 37.753 Q 450.937 37.401 450.726 37.098 Q 450.515 36.795 450.208 36.531 Q 449.628 36.013 448.74 36.013 Q 448.081 36.013 447.615 36.276 Q 447.149 36.54 446.868 36.883 Q 446.701 37.094 446.578 37.362 Q 446.455 37.63 446.384 37.911 Q 446.314 38.21 446.288 38.834 Q 446.261 39.458 446.261 40.398 Q 446.261 41.356 446.288 41.976 Q 446.314 42.596 446.384 42.894 Q 446.455 43.167 446.582 43.435 Q 446.71 43.703 446.868 43.905 Q 447.149 44.274 447.615 44.534 Q 448.081 44.793 448.74 44.793 Q 449.786 44.793 450.498 44.081 Q 451.218 43.369 451.218 42.218 L 451.218 41.673 Z" transform="matrix(1.310387, 0, 0, 1.310387, -59.698296, -1.169035)" style="fill: rgb(255, 255, 255);"/>
    <path transform="matrix(1.310387, 0, 0, 1.310387, -59.698296, -1.169035)" style="fill: rgb(255, 255, 255);"/>
    <path d="M 372.413 72.357 Q 372.307 72.357 372.307 72.251 L 372.307 59.657 Q 372.307 59.551 372.413 59.551 L 374.215 59.551 Q 374.276 59.551 374.311 59.613 L 377.836 67.602 Q 378.688 65.589 379.55 63.607 Q 380.411 61.625 381.272 59.613 Q 381.299 59.551 381.369 59.551 L 383.171 59.551 Q 383.276 59.551 383.276 59.657 L 383.276 72.251 Q 383.276 72.357 383.171 72.357 L 381.263 72.357 Q 381.158 72.357 381.158 72.251 L 381.158 64.816 Q 380.543 66.248 379.919 67.663 Q 379.295 69.078 378.688 70.502 Q 378.653 70.555 378.592 70.555 L 377.001 70.555 Q 376.939 70.555 376.904 70.502 L 374.426 64.798 L 374.426 72.251 Q 374.426 72.357 374.32 72.357 Z M 385.516 65.958 Q 385.516 64.807 385.547 64.077 Q 385.578 63.348 385.63 63.014 Q 385.692 62.68 385.806 62.372 Q 385.92 62.065 386.087 61.766 L 386.079 61.766 Q 386.536 60.913 387.555 60.184 Q 388.583 59.446 390.113 59.446 Q 391.625 59.446 392.653 60.184 Q 393.69 60.931 394.147 61.766 Q 394.472 62.364 394.586 63.014 Q 394.648 63.348 394.679 64.077 Q 394.709 64.807 394.709 65.958 Q 394.709 68.217 394.586 68.911 Q 394.525 69.254 394.415 69.562 Q 394.305 69.869 394.156 70.151 Q 393.69 70.994 392.653 71.733 Q 391.616 72.462 390.113 72.462 Q 388.592 72.462 387.555 71.733 Q 386.536 71.012 386.079 70.151 L 386.087 70.151 Q 385.92 69.852 385.806 69.549 Q 385.692 69.245 385.63 68.911 Q 385.578 68.577 385.547 67.844 Q 385.516 67.11 385.516 65.958 Z M 387.634 65.958 Q 387.634 66.916 387.661 67.536 Q 387.687 68.156 387.757 68.454 Q 387.828 68.727 387.955 68.995 Q 388.083 69.263 388.241 69.465 Q 388.522 69.834 388.988 70.094 Q 389.454 70.353 390.113 70.353 Q 390.763 70.353 391.229 70.094 Q 391.695 69.834 391.967 69.465 Q 392.336 69.017 392.451 68.454 Q 392.591 67.892 392.591 65.958 Q 392.591 65 392.556 64.381 Q 392.521 63.761 392.451 63.471 Q 392.389 63.19 392.266 62.922 Q 392.143 62.654 391.976 62.443 Q 391.844 62.276 391.655 62.118 Q 391.466 61.959 391.229 61.841 Q 390.992 61.722 390.71 61.647 Q 390.429 61.573 390.113 61.573 Q 389.454 61.573 388.988 61.836 Q 388.522 62.1 388.241 62.443 Q 388.074 62.654 387.951 62.922 Q 387.828 63.19 387.757 63.471 Q 387.687 63.77 387.661 64.394 Q 387.634 65.018 387.634 65.958 Z M 388.223 58.417 Q 388.153 58.417 388.131 58.369 Q 388.109 58.321 388.135 58.259 L 389.972 55.693 Q 390.007 55.64 390.06 55.64 L 391.994 55.64 Q 392.064 55.64 392.095 55.702 Q 392.125 55.763 392.073 55.816 L 389.647 58.382 Q 389.638 58.391 389.612 58.404 Q 389.585 58.417 389.568 58.417 Z M 397.02 72.357 Q 396.914 72.357 396.914 72.251 L 396.914 59.657 Q 396.914 59.551 397.02 59.551 L 398.83 59.551 Q 398.883 59.551 398.918 59.604 L 404.455 68.323 L 404.455 59.657 Q 404.455 59.551 404.561 59.551 L 406.477 59.551 Q 406.582 59.551 406.582 59.657 L 406.582 72.251 Q 406.582 72.357 406.477 72.357 L 404.675 72.357 Q 404.622 72.357 404.587 72.304 L 399.032 63.585 L 399.032 72.251 Q 399.032 72.357 398.936 72.357 Z M 413.411 67.233 Q 413.306 67.233 413.306 67.127 L 413.306 65.317 Q 413.306 65.22 413.411 65.22 L 417.885 65.22 Q 417.99 65.22 417.99 65.317 L 417.99 67.883 Q 417.99 69.826 416.654 71.135 Q 415.301 72.462 413.393 72.462 Q 411.873 72.462 410.836 71.733 Q 409.816 71.012 409.359 70.151 L 409.368 70.151 Q 409.201 69.852 409.087 69.549 Q 408.973 69.245 408.911 68.911 Q 408.858 68.577 408.828 67.844 Q 408.797 67.11 408.797 65.958 Q 408.797 64.807 408.828 64.077 Q 408.858 63.348 408.911 63.014 Q 408.973 62.68 409.087 62.372 Q 409.201 62.065 409.368 61.766 L 409.359 61.766 Q 409.816 60.913 410.836 60.184 Q 411.864 59.446 413.393 59.446 Q 415.222 59.446 416.417 60.571 Q 417.63 61.696 417.92 63.26 Q 417.937 63.313 417.902 63.348 Q 417.867 63.383 417.814 63.383 L 415.802 63.383 Q 415.723 63.383 415.705 63.313 Q 415.591 62.961 415.38 62.658 Q 415.169 62.355 414.861 62.091 Q 414.281 61.573 413.393 61.573 Q 412.734 61.573 412.268 61.836 Q 411.803 62.1 411.521 62.443 Q 411.354 62.654 411.231 62.922 Q 411.108 63.19 411.038 63.471 Q 410.968 63.77 410.941 64.394 Q 410.915 65.018 410.915 65.958 Q 410.915 66.916 410.941 67.536 Q 410.968 68.156 411.038 68.454 Q 411.108 68.727 411.236 68.995 Q 411.363 69.263 411.521 69.465 Q 411.803 69.834 412.268 70.094 Q 412.734 70.353 413.393 70.353 Q 414.439 70.353 415.151 69.641 Q 415.872 68.929 415.872 67.778 L 415.872 67.233 Z M 433.105 68.63 Q 433.158 68.63 433.193 68.67 Q 433.228 68.709 433.21 68.762 Q 432.841 70.555 431.576 71.522 Q 430.96 71.988 430.24 72.225 Q 429.519 72.462 428.684 72.462 Q 427.164 72.462 426.126 71.733 Q 425.107 71.012 424.65 70.151 Q 424.492 69.852 424.377 69.549 Q 424.263 69.245 424.202 68.911 Q 424.087 68.261 424.087 65.958 Q 424.087 64.807 424.114 64.077 Q 424.14 63.348 424.202 63.014 Q 424.263 62.68 424.377 62.372 Q 424.492 62.065 424.65 61.766 Q 425.107 60.913 426.126 60.184 Q 427.155 59.446 428.684 59.446 Q 430.512 59.446 431.707 60.571 Q 432.92 61.704 433.21 63.26 Q 433.228 63.313 433.193 63.348 Q 433.158 63.383 433.105 63.383 L 431.092 63.383 Q 431.013 63.383 430.996 63.313 Q 430.881 62.961 430.67 62.658 Q 430.459 62.355 430.152 62.091 Q 429.572 61.573 428.684 61.573 Q 428.025 61.573 427.559 61.836 Q 427.093 62.1 426.812 62.443 Q 426.645 62.654 426.522 62.922 Q 426.399 63.19 426.329 63.471 Q 426.258 63.77 426.232 64.394 Q 426.206 65.018 426.206 65.958 Q 426.206 66.916 426.232 67.536 Q 426.258 68.156 426.329 68.454 Q 426.399 68.727 426.526 68.995 Q 426.654 69.263 426.812 69.465 Q 427.093 69.834 427.559 70.094 Q 428.025 70.353 428.684 70.353 Q 430.205 70.353 430.996 68.692 Q 431.013 68.674 431.04 68.652 Q 431.066 68.63 431.092 68.63 Z M 433.377 72.348 Q 433.316 72.348 433.289 72.304 Q 433.263 72.26 433.281 72.207 L 437.886 59.604 Q 437.904 59.534 437.974 59.534 L 439.547 59.534 Q 439.574 59.534 439.604 59.556 Q 439.635 59.577 439.644 59.604 L 444.241 72.207 Q 444.258 72.26 444.232 72.304 Q 444.205 72.348 444.153 72.348 L 442.14 72.348 Q 442.07 72.348 442.052 72.278 L 441.103 69.5 L 436.462 69.5 Q 436.216 70.212 435.974 70.893 Q 435.733 71.575 435.487 72.278 Q 435.478 72.304 435.447 72.326 Q 435.416 72.348 435.39 72.348 Z M 440.47 67.611 Q 440.452 67.549 440.422 67.479 Q 440.391 67.409 440.373 67.356 Q 440.224 66.925 440.101 66.56 Q 439.978 66.196 439.881 65.923 Q 439.82 65.747 439.763 65.58 Q 439.705 65.413 439.653 65.264 Q 439.609 65.123 439.565 64.996 Q 439.521 64.869 439.477 64.745 Q 439.398 64.491 439.314 64.236 Q 439.231 63.981 439.143 63.708 Q 439.099 63.585 439.051 63.436 Q 439.002 63.286 438.95 63.119 Q 438.923 63.032 438.91 62.983 Q 438.897 62.935 438.879 62.887 Q 438.862 62.838 438.84 62.777 Q 438.818 62.715 438.783 62.601 Q 438.686 62.891 438.602 63.137 Q 438.519 63.383 438.449 63.594 Q 438.431 63.647 438.422 63.691 Q 438.413 63.735 438.396 63.779 Q 438.352 63.928 438.304 64.06 Q 438.255 64.192 438.211 64.324 Q 438.167 64.464 438.123 64.596 Q 438.079 64.728 438.035 64.851 Q 437.948 65.115 437.855 65.405 Q 437.763 65.695 437.649 66.011 Q 437.534 66.327 437.411 66.692 Q 437.288 67.057 437.095 67.611 Z M 436.867 58.417 Q 436.796 58.417 436.774 58.369 Q 436.752 58.321 436.779 58.259 L 438.616 55.693 Q 438.651 55.64 438.703 55.64 L 440.637 55.64 Q 440.707 55.64 440.738 55.702 Q 440.769 55.763 440.716 55.816 L 438.29 58.382 Q 438.282 58.391 438.255 58.404 Q 438.229 58.417 438.211 58.417 Z M 445.803 72.357 Q 445.698 72.357 445.698 72.251 L 445.698 59.657 Q 445.698 59.551 445.803 59.551 L 447.711 59.551 Q 447.816 59.551 447.816 59.657 L 447.816 72.251 Q 447.816 72.357 447.711 72.357 Z" transform="matrix(1.310387, 0, 0, 1.310387, -59.698296, -1.169035)" style="fill: rgb(255, 255, 255);"/>
    <path d="M 426.152 119.118 Q 426.045 119.118 426.045 119.011 L 426.045 106.277 Q 426.045 106.17 426.152 106.17 L 434.292 106.17 Q 434.399 106.17 434.399 106.277 L 434.399 108.107 Q 434.399 108.214 434.292 108.214 L 428.187 108.214 L 428.187 111.626 L 433.377 111.626 Q 433.484 111.626 433.484 111.733 L 433.484 113.457 Q 433.484 113.555 433.377 113.555 L 428.187 113.555 L 428.187 117.092 L 434.292 117.092 Q 434.399 117.092 434.399 117.198 L 434.399 119.011 Q 434.399 119.118 434.292 119.118 Z M 442.57 119.118 Q 442.517 119.118 442.481 119.065 L 439.78 114.479 Q 439.104 115.634 438.429 116.772 Q 437.753 117.909 437.078 119.065 Q 437.043 119.118 436.989 119.118 L 434.812 119.118 Q 434.741 119.118 434.714 119.069 Q 434.688 119.02 434.723 118.958 L 438.589 112.48 Q 437.673 110.933 436.776 109.405 Q 435.878 107.876 434.972 106.33 Q 434.936 106.268 434.963 106.219 Q 434.99 106.17 435.052 106.17 L 437.238 106.17 Q 437.291 106.17 437.327 106.223 L 439.78 110.489 Q 440.393 109.422 441.006 108.361 Q 441.619 107.299 442.232 106.223 Q 442.268 106.17 442.321 106.17 L 444.507 106.17 Q 444.57 106.17 444.596 106.219 Q 444.623 106.268 444.587 106.33 L 440.97 112.48 Q 441.948 114.106 442.908 115.719 Q 443.868 117.332 444.845 118.958 Q 444.881 119.02 444.854 119.069 Q 444.827 119.118 444.756 119.118 Z M 448.149 108.214 L 448.149 112.106 L 450.913 112.106 Q 451.935 112.106 452.433 111.493 Q 452.939 110.898 452.939 110.16 Q 452.939 109.058 452.157 108.552 Q 451.65 108.214 450.842 108.214 Z M 446.114 119.118 Q 446.007 119.118 446.007 119.011 L 446.007 106.277 Q 446.007 106.17 446.114 106.17 L 450.735 106.17 Q 451.499 106.17 452.184 106.33 Q 452.877 106.49 453.659 107.094 Q 453.961 107.334 454.214 107.65 Q 454.468 107.965 454.672 108.347 Q 454.867 108.738 454.974 109.209 Q 455.081 109.68 455.081 110.213 Q 455.081 111.609 454.032 112.879 Q 452.983 114.141 450.984 114.141 L 448.149 114.141 L 448.149 119.011 Q 448.149 119.118 448.042 119.118 Z M 458.764 108.098 L 458.764 111.751 L 461.581 111.751 Q 462.612 111.751 463.128 111.182 Q 463.643 110.613 463.643 109.831 Q 463.643 109.387 463.488 109.04 Q 463.332 108.694 463.039 108.472 Q 462.781 108.294 462.439 108.196 Q 462.097 108.098 461.697 108.098 Z M 456.729 119.118 Q 456.623 119.118 456.623 119.011 L 456.623 106.277 Q 456.623 106.17 456.729 106.17 L 461.715 106.17 Q 462.541 106.17 463.208 106.397 Q 463.874 106.623 464.372 107.041 Q 464.63 107.281 464.865 107.587 Q 465.101 107.894 465.283 108.249 Q 465.465 108.605 465.572 109.005 Q 465.678 109.405 465.678 109.831 Q 465.678 110.462 465.5 111.027 Q 465.323 111.591 465.003 112.08 Q 464.674 112.533 464.239 112.875 Q 463.803 113.217 463.252 113.422 Q 463.972 114.799 464.701 116.19 Q 465.429 117.58 466.149 118.958 Q 466.176 119.02 466.149 119.069 Q 466.122 119.118 466.06 119.118 L 463.768 119.118 Q 463.741 119.118 463.714 119.096 Q 463.688 119.073 463.67 119.056 L 461.066 113.679 L 458.764 113.679 L 458.764 119.011 Q 458.764 119.118 458.658 119.118 Z M 467.659 119.118 Q 467.553 119.118 467.553 119.011 L 467.553 106.277 Q 467.553 106.17 467.659 106.17 L 475.8 106.17 Q 475.906 106.17 475.906 106.277 L 475.906 108.107 Q 475.906 108.214 475.8 108.214 L 469.694 108.214 L 469.694 111.626 L 474.884 111.626 Q 474.991 111.626 474.991 111.733 L 474.991 113.457 Q 474.991 113.555 474.884 113.555 L 469.694 113.555 L 469.694 117.092 L 475.8 117.092 Q 475.906 117.092 475.906 117.198 L 475.906 119.011 Q 475.906 119.118 475.8 119.118 Z M 477.683 115.848 Q 477.71 115.812 477.754 115.812 Q 477.799 115.812 477.834 115.839 Q 478.536 116.407 479.447 116.75 Q 480.358 117.092 481.371 117.092 Q 482.509 117.092 483.166 116.621 Q 483.788 116.167 483.788 115.421 Q 483.788 114.017 482.215 113.804 L 482.224 113.804 Q 482.002 113.777 481.802 113.75 Q 481.602 113.724 481.402 113.697 Q 481.202 113.67 480.993 113.639 Q 480.785 113.608 480.536 113.573 Q 479.7 113.457 479.047 113.15 Q 478.394 112.844 477.95 112.337 Q 477.505 111.822 477.283 111.213 Q 477.061 110.604 477.061 109.885 Q 477.061 108.196 478.181 107.139 Q 479.309 106.063 481.318 106.063 Q 481.913 106.063 482.477 106.165 Q 483.042 106.268 483.571 106.445 Q 484.099 106.623 484.584 106.868 Q 485.068 107.112 485.512 107.405 Q 485.601 107.467 485.539 107.556 L 484.464 109.147 Q 484.401 109.227 484.321 109.174 Q 483.628 108.738 482.846 108.476 Q 482.064 108.214 481.229 108.214 Q 480.802 108.214 480.438 108.316 Q 480.074 108.418 479.78 108.649 Q 479.203 109.067 479.203 109.92 Q 479.203 110.409 479.594 110.871 Q 479.789 111.084 480.118 111.231 Q 480.447 111.378 480.927 111.449 Q 481.184 111.493 481.531 111.542 Q 481.878 111.591 482.349 111.644 Q 484.17 111.866 485.05 112.986 Q 485.93 114.079 485.93 115.421 Q 485.93 117.216 484.677 118.229 Q 483.415 119.225 481.353 119.225 Q 478.447 119.225 476.412 117.447 Q 476.377 117.421 476.377 117.376 Q 476.377 117.332 476.403 117.296 Z M 487.95 115.848 Q 487.977 115.812 488.021 115.812 Q 488.066 115.812 488.101 115.839 Q 488.803 116.407 489.714 116.75 Q 490.625 117.092 491.638 117.092 Q 492.776 117.092 493.433 116.621 Q 494.055 116.167 494.055 115.421 Q 494.055 114.017 492.482 113.804 L 492.491 113.804 Q 492.269 113.777 492.069 113.75 Q 491.869 113.724 491.669 113.697 Q 491.469 113.67 491.26 113.639 Q 491.052 113.608 490.803 113.573 Q 489.967 113.457 489.314 113.15 Q 488.661 112.844 488.217 112.337 Q 487.772 111.822 487.55 111.213 Q 487.328 110.604 487.328 109.885 Q 487.328 108.196 488.448 107.139 Q 489.576 106.063 491.585 106.063 Q 492.18 106.063 492.744 106.165 Q 493.309 106.268 493.838 106.445 Q 494.366 106.623 494.851 106.868 Q 495.335 107.112 495.779 107.405 Q 495.868 107.467 495.806 107.556 L 494.731 109.147 Q 494.668 109.227 494.588 109.174 Q 493.895 108.738 493.113 108.476 Q 492.331 108.214 491.496 108.214 Q 491.069 108.214 490.705 108.316 Q 490.341 108.418 490.047 108.649 Q 489.47 109.067 489.47 109.92 Q 489.47 110.409 489.861 110.871 Q 490.056 111.084 490.385 111.231 Q 490.714 111.378 491.194 111.449 Q 491.451 111.493 491.798 111.542 Q 492.145 111.591 492.616 111.644 Q 494.437 111.866 495.317 112.986 Q 496.197 114.079 496.197 115.421 Q 496.197 117.216 494.944 118.229 Q 493.682 119.225 491.62 119.225 Q 488.714 119.225 486.679 117.447 Q 486.644 117.421 486.644 117.376 Q 486.644 117.332 486.67 117.296 Z M 500.203 119.118 Q 500.114 119.118 500.096 119.038 L 496.906 106.303 Q 496.888 106.25 496.924 106.21 Q 496.959 106.17 497.013 106.17 L 499.057 106.17 Q 499.145 106.17 499.163 106.25 L 501.083 114.95 Q 501.669 112.764 502.265 110.604 Q 502.86 108.445 503.455 106.25 Q 503.473 106.17 503.562 106.17 L 504.957 106.17 Q 505.037 106.17 505.055 106.25 L 507.437 114.95 Q 507.917 112.764 508.396 110.604 Q 508.876 108.445 509.356 106.25 Q 509.374 106.17 509.463 106.17 L 511.507 106.17 Q 511.56 106.17 511.596 106.21 Q 511.631 106.25 511.613 106.303 L 508.423 119.038 Q 508.405 119.118 508.317 119.118 L 506.708 119.118 Q 506.628 119.118 506.61 119.038 L 504.255 110.196 Q 503.669 112.426 503.082 114.621 Q 502.496 116.816 501.909 119.038 Q 501.891 119.118 501.811 119.118 Z M 511.528 119.109 Q 511.466 119.109 511.439 119.065 Q 511.413 119.02 511.43 118.967 L 516.087 106.223 Q 516.105 106.152 516.176 106.152 L 517.767 106.152 Q 517.793 106.152 517.824 106.174 Q 517.855 106.197 517.864 106.223 L 522.512 118.967 Q 522.53 119.02 522.503 119.065 Q 522.477 119.109 522.423 119.109 L 520.388 119.109 Q 520.317 119.109 520.299 119.038 L 519.34 116.23 L 514.647 116.23 Q 514.398 116.95 514.154 117.638 Q 513.91 118.327 513.661 119.038 Q 513.652 119.065 513.621 119.087 Q 513.59 119.109 513.563 119.109 Z M 518.7 114.319 Q 518.682 114.257 518.651 114.186 Q 518.62 114.115 518.602 114.061 Q 518.451 113.626 518.326 113.257 Q 518.202 112.888 518.104 112.613 Q 518.042 112.435 517.984 112.266 Q 517.927 112.097 517.873 111.946 Q 517.829 111.804 517.784 111.675 Q 517.74 111.546 517.695 111.422 Q 517.615 111.164 517.531 110.907 Q 517.447 110.649 517.358 110.373 Q 517.313 110.249 517.264 110.098 Q 517.216 109.947 517.162 109.778 Q 517.136 109.689 517.122 109.64 Q 517.109 109.591 517.091 109.542 Q 517.073 109.494 517.051 109.431 Q 517.029 109.369 516.993 109.254 Q 516.896 109.547 516.811 109.796 Q 516.727 110.045 516.656 110.258 Q 516.638 110.311 516.629 110.356 Q 516.62 110.4 516.602 110.444 Q 516.558 110.596 516.509 110.729 Q 516.46 110.862 516.416 110.995 Q 516.371 111.138 516.327 111.271 Q 516.282 111.404 516.238 111.529 Q 516.149 111.795 516.056 112.088 Q 515.963 112.382 515.847 112.702 Q 515.732 113.022 515.607 113.39 Q 515.483 113.759 515.287 114.319 Z M 525.494 119.118 Q 525.396 119.118 525.396 119.011 L 525.396 113.804 Q 524.436 111.929 523.485 110.062 Q 522.534 108.196 521.584 106.321 Q 521.557 106.259 521.584 106.214 Q 521.61 106.17 521.681 106.17 L 523.708 106.17 Q 523.734 106.17 523.761 106.192 Q 523.788 106.214 523.805 106.232 L 526.418 111.689 Q 527.076 110.311 527.72 108.96 Q 528.364 107.61 529.022 106.232 Q 529.04 106.214 529.066 106.192 Q 529.093 106.17 529.12 106.17 L 531.155 106.17 Q 531.226 106.17 531.252 106.214 Q 531.279 106.259 531.252 106.321 L 527.431 113.804 L 527.431 119.011 Q 527.431 119.118 527.324 119.118 Z" style="fill: rgb(255, 255, 255);"/>
    <path d="M 341.32 84.558 Q 341.392 84.558 341.441 84.612 Q 341.489 84.666 341.465 84.738 Q 340.96 87.189 339.23 88.51 Q 338.39 89.147 337.405 89.471 Q 336.42 89.795 335.278 89.795 Q 333.2 89.795 331.783 88.798 Q 330.39 87.813 329.765 86.636 Q 329.549 86.228 329.393 85.813 Q 329.237 85.399 329.153 84.942 Q 328.996 84.054 328.996 80.906 Q 328.996 79.333 329.032 78.336 Q 329.068 77.339 329.153 76.883 Q 329.237 76.426 329.393 76.006 Q 329.549 75.585 329.765 75.177 Q 330.39 74.012 331.783 73.015 Q 333.188 72.006 335.278 72.006 Q 337.777 72.006 339.411 73.543 Q 341.068 75.093 341.465 77.219 Q 341.489 77.291 341.441 77.339 Q 341.392 77.387 341.32 77.387 L 338.57 77.387 Q 338.462 77.387 338.438 77.291 Q 338.281 76.81 337.993 76.396 Q 337.705 75.982 337.284 75.621 Q 336.492 74.913 335.278 74.913 Q 334.378 74.913 333.741 75.273 Q 333.104 75.633 332.72 76.102 Q 332.492 76.39 332.324 76.756 Q 332.155 77.123 332.059 77.507 Q 331.963 77.916 331.927 78.768 Q 331.891 79.621 331.891 80.906 Q 331.891 82.216 331.927 83.063 Q 331.963 83.909 332.059 84.318 Q 332.155 84.69 332.33 85.057 Q 332.504 85.423 332.72 85.699 Q 333.104 86.204 333.741 86.558 Q 334.378 86.912 335.278 86.912 Q 337.357 86.912 338.438 84.642 Q 338.462 84.618 338.498 84.588 Q 338.534 84.558 338.57 84.558 Z M 346.35 89.651 Q 346.206 89.651 346.206 89.507 L 346.206 74.756 L 341.629 74.756 Q 341.485 74.756 341.485 74.612 L 341.485 72.294 Q 341.485 72.15 341.629 72.15 L 353.665 72.15 Q 353.809 72.15 353.809 72.294 L 353.809 74.612 Q 353.809 74.756 353.665 74.756 L 349.1 74.756 L 349.1 89.507 Q 349.1 89.651 348.956 89.651 Z M 354.174 89.651 Q 354.03 89.651 354.03 89.507 L 354.03 87.068 Q 354.03 86.924 354.174 86.924 L 356.625 86.924 Q 356.757 86.924 356.757 87.068 L 356.757 89.507 Q 356.757 89.651 356.625 89.651 Z M 365.124 77.327 Q 365.124 76.162 364.505 75.507 Q 363.886 74.853 362.853 74.853 Q 361.82 74.853 361.208 75.507 Q 360.595 76.162 360.595 77.327 L 360.595 84.594 Q 360.595 85.771 361.208 86.42 Q 361.82 87.068 362.853 87.068 Q 363.886 87.068 364.505 86.42 Q 365.124 85.771 365.124 84.594 Z M 357.856 77.183 Q 357.856 74.756 359.382 73.447 Q 360.895 72.114 362.853 72.114 Q 363.826 72.114 364.697 72.456 Q 365.568 72.799 366.325 73.447 Q 367.081 74.12 367.472 75.051 Q 367.862 75.982 367.862 77.183 L 367.862 84.738 Q 367.862 87.153 366.325 88.474 Q 364.811 89.795 362.853 89.795 Q 360.895 89.795 359.382 88.474 Q 357.856 87.165 357.856 84.738 Z M 369.93 77.195 Q 369.942 75.994 370.338 75.051 Q 370.734 74.108 371.455 73.435 Q 372.14 72.811 372.993 72.468 Q 373.845 72.126 374.782 72.126 Q 376.488 72.126 377.869 73.147 Q 379.167 74.18 379.563 76.126 Q 379.587 76.198 379.539 76.246 Q 379.491 76.294 379.419 76.294 L 376.957 76.294 Q 376.86 76.294 376.824 76.21 Q 376.284 74.889 374.77 74.853 Q 372.596 74.913 372.596 77.351 L 372.596 78.768 Q 373.377 78.54 374.152 78.408 Q 374.927 78.276 375.623 78.288 Q 377.305 78.288 378.506 79.465 Q 379.659 80.678 379.647 83.201 L 379.647 84.762 Q 379.611 87.225 378.182 88.51 Q 376.836 89.783 374.782 89.843 Q 372.788 89.783 371.455 88.522 Q 369.942 87.201 369.93 84.774 Z M 372.596 84.63 Q 372.608 87.093 374.782 87.117 Q 376.908 87.105 376.993 84.63 L 376.993 83.225 Q 376.896 80.786 374.782 80.738 Q 372.608 80.798 372.596 83.225 Z"/>
    <path d="M 394.304 191.656 Q 394.105 191.656 394.105 191.457 L 394.105 171.735 Q 393.341 172.299 392.578 172.872 Q 391.814 173.444 391.05 173.992 Q 390.934 174.075 390.835 174.017 Q 390.735 173.959 390.735 173.826 L 390.735 170.224 Q 390.735 170.191 390.76 170.141 Q 390.785 170.091 390.818 170.058 L 394.238 167.584 L 397.708 167.584 Q 397.907 167.584 397.907 167.783 L 397.907 191.457 Q 397.907 191.656 397.708 191.656 Z M 401.308 191.607 Q 401.108 191.607 401.108 191.407 L 401.108 188.17 L 410.405 176.532 L 410.405 176.549 Q 410.92 175.902 411.069 175.362 Q 411.219 174.822 411.219 174.308 Q 411.219 173.162 410.389 172.15 Q 409.559 171.153 408.147 171.153 Q 406.853 171.153 405.906 172.033 Q 405.441 172.465 405.201 173.054 Q 404.96 173.644 404.894 174.391 Q 404.894 174.474 404.835 174.524 Q 404.777 174.573 404.694 174.573 L 401.308 174.573 Q 401.108 174.573 401.108 174.374 Q 401.142 171.419 403.117 169.41 Q 405.126 167.368 407.898 167.368 Q 410.903 167.368 412.962 169.427 L 412.945 169.427 Q 414.987 171.469 414.987 174.341 Q 414.987 175.586 414.622 176.649 Q 414.257 177.711 413.526 178.624 L 413.526 178.608 Q 412.58 179.803 411.667 180.948 Q 410.754 182.094 409.841 183.231 Q 408.928 184.368 408.015 185.506 Q 407.102 186.643 406.155 187.838 L 414.788 187.838 Q 414.987 187.838 414.987 188.037 L 414.987 191.407 Q 414.987 191.607 414.788 191.607 Z M 427.67 174.573 Q 427.67 172.963 426.815 172.058 Q 425.96 171.153 424.532 171.153 Q 423.105 171.153 422.258 172.058 Q 421.411 172.963 421.411 174.573 L 421.411 184.617 Q 421.411 186.244 422.258 187.141 Q 423.105 188.037 424.532 188.037 Q 425.96 188.037 426.815 187.141 Q 427.67 186.244 427.67 184.617 Z M 417.626 174.374 Q 417.626 171.021 419.735 169.211 Q 421.826 167.368 424.532 167.368 Q 425.877 167.368 427.081 167.841 Q 428.284 168.315 429.33 169.211 Q 430.376 170.141 430.916 171.427 Q 431.455 172.714 431.455 174.374 L 431.455 184.817 Q 431.455 188.153 429.33 189.98 Q 427.238 191.806 424.532 191.806 Q 421.826 191.806 419.735 189.98 Q 417.626 188.17 417.626 184.817 Z"/>
    <path d="M 505.006 174.391 Q 505.023 172.731 505.57 171.427 Q 506.118 170.124 507.114 169.194 Q 508.061 168.331 509.239 167.858 Q 510.418 167.385 511.713 167.385 Q 514.07 167.385 515.98 168.796 Q 517.773 170.224 518.32 172.913 Q 518.354 173.013 518.287 173.079 Q 518.221 173.146 518.121 173.146 L 514.718 173.146 Q 514.585 173.146 514.535 173.029 Q 513.788 171.203 511.696 171.153 Q 508.692 171.236 508.692 174.607 L 508.692 176.566 Q 509.771 176.25 510.841 176.068 Q 511.912 175.885 512.875 175.902 Q 515.199 175.902 516.86 177.528 Q 518.453 179.205 518.437 182.692 L 518.437 184.85 Q 518.387 188.253 516.411 190.029 Q 514.552 191.789 511.713 191.872 Q 508.957 191.789 507.114 190.046 Q 505.023 188.22 505.006 184.866 Z M 508.692 184.667 Q 508.708 188.07 511.713 188.104 Q 514.652 188.087 514.768 184.667 L 514.768 182.725 Q 514.635 179.355 511.713 179.288 Q 508.708 179.371 508.692 182.725 Z M 531.132 174.573 Q 531.132 172.963 530.277 172.058 Q 529.422 171.153 527.994 171.153 Q 526.566 171.153 525.72 172.058 Q 524.873 172.963 524.873 174.573 L 524.873 184.617 Q 524.873 186.244 525.72 187.141 Q 526.566 188.037 527.994 188.037 Q 529.422 188.037 530.277 187.141 Q 531.132 186.244 531.132 184.617 Z M 521.088 174.374 Q 521.088 171.021 523.196 169.211 Q 525.288 167.368 527.994 167.368 Q 529.339 167.368 530.542 167.841 Q 531.746 168.315 532.792 169.211 Q 533.838 170.141 534.377 171.427 Q 534.917 172.714 534.917 174.374 L 534.917 184.817 Q 534.917 188.153 532.792 189.98 Q 530.7 191.806 527.994 191.806 Q 525.288 191.806 523.196 189.98 Q 521.088 188.17 521.088 184.817 Z" style="fill: rgb(255, 255, 255);"/>
  </g>
</svg>