<?xml version="1.0" encoding="UTF-8" standalone="no"?>
<!-- Created with Inkscape (http://www.inkscape.org/) -->

<svg
   xmlns:dc="http://purl.org/dc/elements/1.1/"
   xmlns:cc="http://creativecommons.org/ns#"
   xmlns:rdf="http://www.w3.org/1999/02/22-rdf-syntax-ns#"
   xmlns:svg="http://www.w3.org/2000/svg"
   xmlns="http://www.w3.org/2000/svg"
   xmlns:sodipodi="http://sodipodi.sourceforge.net/DTD/sodipodi-0.dtd"
   xmlns:inkscape="http://www.inkscape.org/namespaces/inkscape"
   width="700mm"
   height="600mm"
   viewBox="0 0 700 600"
   version="1.1"
   id="svg848"
   inkscape:version="0.92.2 (5c3e80d, 2017-08-06)"
   sodipodi:docname="11.svg">
  <defs
     id="defs842" />
  <sodipodi:namedview
     id="base"
     pagecolor="#ffffff"
     bordercolor="#666666"
     borderopacity="1.0"
     inkscape:pageopacity="0.0"
     inkscape:pageshadow="2"
     inkscape:zoom="0.17497515"
     inkscape:cx="1510.7128"
     inkscape:cy="787.62824"
     inkscape:document-units="mm"
     inkscape:current-layer="layer1"
     showgrid="false"
     inkscape:snap-global="false"
     inkscape:window-width="1920"
     inkscape:window-height="1057"
     inkscape:window-x="-8"
     inkscape:window-y="-8"
     inkscape:window-maximized="1"
     fit-margin-top="0"
     fit-margin-left="0"
     fit-margin-right="0"
     fit-margin-bottom="0"
     showguides="false" />
  <metadata
     id="metadata845">
    <rdf:RDF>
      <cc:Work
         rdf:about="">
        <dc:format>image/svg+xml</dc:format>
        <dc:type
           rdf:resource="http://purl.org/dc/dcmitype/StillImage" />
        <dc:title></dc:title>
      </cc:Work>
    </rdf:RDF>
  </metadata>
  <g
     inkscape:label="Layer 1"
     inkscape:groupmode="layer"
     id="layer1"
     transform="translate(0,303)">
    <rect
       style="opacity:1;fill:#0046aa;fill-opacity:1;fill-rule:nonzero;stroke:none;stroke-width:2.74703431;stroke-linecap:butt;stroke-linejoin:miter;stroke-miterlimit:10;stroke-dasharray:none;stroke-opacity:1;paint-order:stroke fill markers"
       id="rect1393"
       width="700"
       height="600"
       x="0"
       y="-303" />
    <rect
       y="-298"
       x="5"
       height="590"
       width="690"
       id="rect1395"
       style="opacity:1;fill:#ffffff;fill-opacity:1;fill-rule:nonzero;stroke:none;stroke-width:2.70451856;stroke-linecap:butt;stroke-linejoin:miter;stroke-miterlimit:10;stroke-dasharray:none;stroke-opacity:1;paint-order:stroke fill markers" />
    <rect
       y="-288"
       x="15"
       height="570"
       width="670"
       id="rect1406"
       style="opacity:1;fill:#0046aa;fill-opacity:1;fill-rule:nonzero;stroke:none;stroke-width:2.61947513;stroke-linecap:butt;stroke-linejoin:miter;stroke-miterlimit:10;stroke-dasharray:none;stroke-opacity:1;paint-order:stroke fill markers" />
    <path
       style="opacity:1;fill:#ffd70f;fill-opacity:1;fill-rule:nonzero;stroke:none;stroke-width:2;stroke-linecap:butt;stroke-linejoin:miter;stroke-miterlimit:10;stroke-dasharray:none;stroke-opacity:1;paint-order:stroke fill markers"
       d="M 350,-253 550,97 H 150 Z"
       id="rect828"
       inkscape:connector-curvature="0"
       sodipodi:nodetypes="cccc" />
    <g
       aria-label="CHỢ-MARKET"
       style="font-style:normal;font-variant:normal;font-weight:bold;font-stretch:normal;font-size:147.33828735px;line-height:0;font-family:Giaothong1;-inkscape-font-specification:'Giaothong1 Bold';letter-spacing:0.99747914px;word-spacing:0px;fill:#000000;fill-opacity:1;stroke:none;stroke-width:0.76738691"
       id="text3617"
       transform="translate(0,-27.698)">
      <path
         d="m 95.395732,249.08628 q 0,4.67626 -0.57554,8.05756 -0.503598,3.30935 -2.949643,7.26619 -2.374104,3.95684 -7.625908,7.12231 -5.251804,3.16547 -10.647493,3.16547 -6.474827,0 -11.870517,-2.80575 -5.395689,-2.80576 -7.913677,-7.05037 -2.517989,-4.24461 -3.165471,-7.84174 Q 50,253.33088 50,249.08628 V 198.3668 q 0,-4.10073 0.791368,-7.33814 0.86331,-3.23741 3.453241,-7.05037 2.661873,-3.88489 7.41008,-6.54677 4.820149,-2.73381 10.143896,-2.73381 10.143895,0 16.83455,6.69065 6.762597,6.69066 6.762597,16.97844 v 5.32374 H 81.510825 v -5.32374 q 0,-4.10073 -2.302161,-6.83454 -2.230218,-2.73382 -6.690654,-2.73382 -4.100724,0 -6.402885,2.73382 -2.230218,2.73381 -2.230218,6.83454 v 50.71948 q 0,1.94244 0.07194,3.88489 0.07194,1.87051 1.942448,4.82015 1.942448,2.94964 6.762597,2.94964 5.179862,0 6.690655,-2.58993 1.582735,-2.58993 1.870505,-3.81295 0.28777,-1.29497 0.28777,-3.45324 v -1.79856 -3.23742 h 13.884907 z"
         style="letter-spacing:1.00012505px;fill:#ffffff;fill-opacity:1;stroke:none;stroke-width:0.76738691"
         id="path3629"
         inkscape:connector-curvature="0" />
      <path
         d="m 108.55414,273.8345 v -98.27348 h 13.88491 v 42.01443 h 17.91369 v -42.01443 h 13.88491 v 98.27348 h -13.88491 v -43.88494 h -17.91369 v 43.88494 z"
         style="letter-spacing:1.00012505px;fill:#ffffff;fill-opacity:1;stroke:none;stroke-width:0.76738691"
         id="path3631"
         inkscape:connector-curvature="0" />
      <path
         d="m 200.34573,192.53945 q -2.94964,-4.02878 -7.6259,-4.02878 -2.51799,0 -4.96404,1.43885 -2.44604,1.36691 -3.3813,3.09353 -0.93525,1.65468 -1.22302,3.45324 -0.28777,1.72662 -0.28777,2.94964 v 50.072 q 0,1.51079 0.21583,3.30936 0.21583,1.72662 2.30216,4.7482 2.15828,3.02159 7.33814,3.02159 2.66187,0 4.7482,-1.22302 2.15828,-1.29497 3.09353,-2.8777 1.0072,-1.65468 1.29497,-3.09353 0.28777,-1.5108 0.28777,-3.8849 v -50.072 q 0,-2.94964 -0.21583,-4.10072 -0.21583,-1.22302 -1.58274,-2.80576 z M 186.46083,297 v -12.01441 h 12.0144 V 297 Z m 32.87773,-128.92101 q 0.43166,0.57554 0.86331,1.15108 3.09353,4.24461 2.94964,9.6403 -0.0719,5.39569 -4.02878,8.27339 -2.08633,1.5108 -4.60432,2.30216 0.21583,0.64749 0.43166,1.29497 1.15108,3.95684 1.15108,8.70504 v 50.072 q 0,4.46044 -0.79137,7.76979 -0.79137,3.30936 -3.45324,7.41008 -2.66188,4.10073 -7.84174,7.05037 -5.10792,2.94964 -11.15109,2.94964 -6.90648,0 -12.73382,-3.52518 -5.82735,-3.52518 -8.12951,-7.98562 -2.30216,-4.53238 -2.73382,-7.2662 -0.43165,-2.73381 -0.43165,-6.40288 v -50.072 q 0,-4.46043 0.93525,-7.84173 1.0072,-3.3813 3.30936,-6.7626 3.3813,-4.7482 8.56116,-7.41008 5.17986,-2.73381 10.79138,-2.73381 5.39569,0 10.21583,2.23021 4.82015,2.15828 7.98563,5.97123 0.28777,0.35972 0.57554,0.71943 1.00719,-0.43166 1.72662,-1.15108 2.51798,-1.79856 2.94964,-4.3885 0.35971,-2.30216 -1.0072,-5.39568 z"
         style="letter-spacing:1.00012505px;fill:#ffffff;fill-opacity:1;stroke:none;stroke-width:0.76738691"
         id="path3633"
         inkscape:connector-curvature="0" />
      <path
         d="M 231.84049,242.17979 V 228.151 h 42.01443 v 14.02879 z"
         style="letter-spacing:1.00012505px;fill:#ffffff;fill-opacity:1;stroke:none;stroke-width:0.76738691"
         id="path3635"
         inkscape:connector-curvature="0" />
      <path
         d="m 339.02778,273.8345 v -59.78423 l -14.02879,41.94249 h -7.05037 l -13.95684,-41.94249 v 59.78423 h -14.0288 v -98.27348 h 13.09354 l 18.70506,52.30221 18.2734,-52.30221 h 13.0216 v 98.27348 z"
         style="letter-spacing:1.00012505px;fill:#ffffff;fill-opacity:1;stroke:none;stroke-width:0.76738691"
         id="path3637"
         inkscape:connector-curvature="0" />
      <path
         d="m 361.75455,273.8345 21.94247,-98.27348 h 12.23023 l 21.94247,98.27348 h -15.03599 l -3.95684,-21.07916 h -18.2734 l -3.95684,21.07916 z m 21.36693,-34.1727 h 13.23742 l -6.61871,-35.82737 z"
         style="letter-spacing:1.00012505px;fill:#ffffff;fill-opacity:1;stroke:none;stroke-width:0.76738691"
         id="path3639"
         inkscape:connector-curvature="0" />
      <path
         d="m 426.78351,273.8345 v -98.27348 h 24.60435 q 9.71224,0 16.33095,6.76259 6.69066,6.7626 6.69066,16.54678 v 9.1367 q 0,13.5252 -11.51081,20.71945 l 14.8921,45.10796 h -14.8921 l -13.30937,-42.15832 h -8.77698 v 42.15832 z m 31.22306,-57.62596 q 1.36691,-1.58273 1.87051,-3.66907 0.50359,-2.08633 0.50359,-4.53238 v -9.1367 q 0,-4.60432 -2.51799,-7.41008 -2.51798,-2.80575 -7.05036,-2.80575 h -10.00001 v 30.64751 h 9.85612 q 4.3885,0 7.33814,-3.09353 z"
         style="letter-spacing:1.00012505px;fill:#ffffff;fill-opacity:1;stroke:none;stroke-width:0.76738691"
         id="path3641"
         inkscape:connector-curvature="0" />
      <path
         d="m 526.34489,273.8345 -15.75542,-43.88494 -7.76979,14.53239 v 29.35255 h -13.88491 v -98.27348 h 14.0288 v 45.25184 l 21.00721,-45.25184 h 13.88491 l -19.13671,39.20867 22.51801,59.06481 z"
         style="letter-spacing:1.00012505px;fill:#ffffff;fill-opacity:1;stroke:none;stroke-width:0.76738691"
         id="path3643"
         inkscape:connector-curvature="0" />
      <path
         d="m 594.1077,259.66183 v 14.17267 h -42.01444 v -98.27348 h 42.01444 v 12.94965 h -28.12953 v 29.06478 h 24.74823 v 13.23742 h -24.74823 v 28.84896 z"
         style="letter-spacing:1.00012505px;fill:#ffffff;fill-opacity:1;stroke:none;stroke-width:0.76738691"
         id="path3645"
         inkscape:connector-curvature="0" />
      <path
         d="m 619.20859,273.8345 v -85.17994 h -16.47484 v -13.09354 h 47.26624 v 13.09354 h -16.76261 v 85.17994 z"
         style="letter-spacing:1.00012505px;fill:#ffffff;fill-opacity:1;stroke:none;stroke-width:0.76738691"
         id="path3647"
         inkscape:connector-curvature="0" />
    </g>
  </g>
</svg>
