<?xml version="1.0" encoding="UTF-8" standalone="no"?>
<!-- Created with Inkscape (http://www.inkscape.org/) -->

<svg
   width="600mm"
   height="800mm"
   viewBox="0 0 600 800"
   version="1.1"
   id="svg848"
   inkscape:version="1.4 (86a8ad7, 2024-10-11)"
   sodipodi:docname="Vietnam_road_sign_R404e.svg"
   xmlns:inkscape="http://www.inkscape.org/namespaces/inkscape"
   xmlns:sodipodi="http://sodipodi.sourceforge.net/DTD/sodipodi-0.dtd"
   xmlns="http://www.w3.org/2000/svg"
   xmlns:svg="http://www.w3.org/2000/svg"
   xmlns:rdf="http://www.w3.org/1999/02/22-rdf-syntax-ns#"
   xmlns:cc="http://creativecommons.org/ns#"
   xmlns:dc="http://purl.org/dc/elements/1.1/">
  <defs
     id="defs842" />
  <sodipodi:namedview
     id="base"
     pagecolor="#ffffff"
     bordercolor="#666666"
     borderopacity="1.0"
     inkscape:pageopacity="0.0"
     inkscape:pageshadow="2"
     inkscape:zoom="0.12372612"
     inkscape:cx="1810.4504"
     inkscape:cy="1539.6911"
     inkscape:document-units="mm"
     inkscape:current-layer="layer1"
     showgrid="false"
     inkscape:snap-global="false"
     inkscape:window-width="1920"
     inkscape:window-height="991"
     inkscape:window-x="-9"
     inkscape:window-y="-9"
     inkscape:window-maximized="1"
     fit-margin-top="0"
     fit-margin-left="0"
     fit-margin-right="0"
     fit-margin-bottom="0"
     showguides="false"
     inkscape:showpageshadow="2"
     inkscape:pagecheckerboard="0"
     inkscape:deskcolor="#d1d1d1" />
  <metadata
     id="metadata845">
    <rdf:RDF>
      <cc:Work
         rdf:about="">
        <dc:format>image/svg+xml</dc:format>
        <dc:type
           rdf:resource="http://purl.org/dc/dcmitype/StillImage" />
      </cc:Work>
    </rdf:RDF>
  </metadata>
  <g
     inkscape:label="Layer 1"
     inkscape:groupmode="layer"
     id="layer1"
     transform="translate(0,503)">
    <rect
       style="opacity:1;fill:#0046aa;fill-opacity:1;fill-rule:nonzero;stroke:none;stroke-width:2.93670321;stroke-linecap:butt;stroke-linejoin:miter;stroke-miterlimit:10;stroke-dasharray:none;stroke-opacity:1;paint-order:stroke fill markers"
       id="rect1393"
       width="600"
       height="800"
       x="-5.6843419e-014"
       y="-503" />
    <rect
       y="-498"
       x="5"
       height="790"
       width="590"
       id="rect1395"
       style="opacity:1;fill:#ffffff;fill-opacity:1;fill-rule:nonzero;stroke:none;stroke-width:2.89386988;stroke-linecap:butt;stroke-linejoin:miter;stroke-miterlimit:10;stroke-dasharray:none;stroke-opacity:1;paint-order:stroke fill markers" />
    <rect
       y="-488"
       x="15"
       height="770"
       width="570"
       id="rect1406"
       style="opacity:1;fill:#0046aa;fill-opacity:1;fill-rule:nonzero;stroke:none;stroke-width:2.80816269;stroke-linecap:butt;stroke-linejoin:miter;stroke-miterlimit:10;stroke-dasharray:none;stroke-opacity:1;paint-order:stroke fill markers" />
    <path
       cx="150"
       cy="147"
       r="150"
       id="path8376"
       style="opacity:1;fill:#d35f5f;fill-opacity:1;fill-rule:nonzero;stroke:none;stroke-width:3.92256045;stroke-linecap:butt;stroke-linejoin:miter;stroke-miterlimit:4;stroke-dasharray:none;stroke-opacity:1;paint-order:stroke fill markers"
       d=""
       inkscape:connector-curvature="0" />
    <g
       transform="matrix(1.0004876,0,0,1.0004876,-290.77787,824.33304)"
       id="g924"
       style="font-style:normal;font-variant:normal;font-weight:bold;font-stretch:normal;font-size:159.07623291px;line-height:0;font-family:Giaothong2;-inkscape-font-specification:'Giaothong2 Bold';letter-spacing:0px;word-spacing:0px;fill:#000000;fill-opacity:1;stroke:none;stroke-width:0.82852203"
       aria-label="TRẠM">
      <g
         id="g922"
         style="font-style:normal;font-variant:normal;font-weight:bold;font-stretch:normal;font-size:161.34654236px;line-height:0;font-family:Giaothong2;-inkscape-font-specification:'Giaothong2 Bold';letter-spacing:3.35592604px;word-spacing:0px;fill:#000000;fill-opacity:1;stroke:none;stroke-width:0.69624561"
         aria-label="TRẠM" />
    </g>
    <path
       style="fill:#f00a0a;fill-opacity:1;fill-rule:nonzero;stroke:none;stroke-width:3.97018;stroke-linecap:butt;stroke-linejoin:miter;stroke-miterlimit:3.864;stroke-dasharray:none;stroke-opacity:1;paint-order:stroke fill markers"
       d="M 547.674,-488.00009 H 585 v 50.42102 L 52.326,282.00009 15,282 l 3e-4,-50.42101 z"
       id="rect7522"
       inkscape:connector-curvature="0"
       sodipodi:nodetypes="ccccccc" />
    <path
       style="opacity:1;fill:#ffffff;fill-opacity:1;fill-rule:nonzero;stroke:none;stroke-width:0.08658414;stroke-linecap:round;stroke-linejoin:miter;stroke-miterlimit:10;stroke-dasharray:none;stroke-opacity:1;paint-order:stroke fill markers"
       d="m 329.35736,-253 c -6.83893,0.0363 -15.43897,2.34477 -17.25032,15.21449 l -0.96397,1.07136 2.9999,8.0355 6.10703,1.07136 3.10725,5.14308 -2.14275,5.0357 v 1.07136 l 7.071,3.96433 v 2.14272 l 7.07154,7.07156 17.35714,-13.17861 0.9645,-1.07136 2.0354,-10.17878 C 354.28404,-244.2664 345.11711,-252.95884 329.35736,-253 Z m 30.42836,40.71402 -16.28582,14.14312 -1.92847,1.07137 c -0.96718,15.09936 -2.15882,19.10089 -5.14253,25.50009 -1.91657,3.3261 -8.67718,8.07233 -10.07133,8.14293 -2.70267,0.18785 -7.44075,-2.13355 -10.28614,-3.00038 -5.01739,-1.34686 -17.17404,-6.94152 -29.14275,-7.28526 -7.71204,0.0592 -16.17472,1.82902 -21.42847,7.07098 h -1.92836 l -49.92889,68.14314 c -31.4236,-14.95662 -56.90989,-12.26535 -79.71438,-0.96451 l 6.10702,6.10705 c 31.218,-13.39971 52.22326,-5.66898 68.89285,1.07192 l -11.30002,15.6956 c -10.20451,-6.04182 -21.84043,-9.24174 -33.69944,-9.26743 -36.68784,-1.9e-4 -66.4292,29.7412 -66.42899,66.42895 1.1e-4,36.68757 29.74136,66.4286 66.42899,66.42841 36.68733,-9e-5 66.42825,-29.74106 66.42836,-66.42841 -0.0321,-20.77836 -9.78579,-40.34459 -26.35831,-52.87827 l 11.89403,-16.12195 c 36.4455,22.42931 40.78671,40.11579 47.67814,57.21413 h 9.21429 l 7.92921,22.28601 h 89.79912 c 5.15614,32.21066 32.93723,55.91125 65.55796,55.92849 36.68741,-9e-5 66.42834,-29.74106 66.42846,-66.42841 1.9e-4,-36.68753 -29.74083,-66.42886 -66.42846,-66.42895 -14.0053,0.0291 -27.64309,4.48415 -38.96489,12.72847 l -6.64746,-9.85543 c 11.94011,-7.90686 26.25482,-12.51588 41.64804,-12.51585 13.37316,0.0325 26.50008,3.62702 38.03529,10.39305 l -1.07131,-7.17841 c -11.06679,-9.61264 -23.72819,-13.55976 -37.4999,-13.28602 l -4.92825,-15.21447 -5.14319,-2.03531 c -1.52936,4.89393 -7.07003,7.11198 -9.10681,7.17842 -11.06978,0.0213 -12.62936,-9.86622 -13.17857,-19.49992 v -11.03588 c -0.21174,-3.01927 -1.92902,-7.17841 -1.92902,-7.17841 -6.04639,-23.86083 -16.76689,-41.76287 -37.5,-58.92886 z m -70.50011,49.71459 c 4.35235,0.28168 7.81446,3.45065 9.64339,4.07119 l 34.49958,11.25014 12.10725,-11.25014 20.35703,31.60713 v 4.07174 l -45.64286,13.17861 -43.50011,-25.50011 h -26.17897 l 14.92929,-20.14273 6.10714,-3.21464 3.10715,5.14308 6.21396,-5.14308 0.85768,-1.92847 c 0,0 6.51032,-2.15917 7.49947,-2.14272 z m -30.86851,70.28586 h 39.5474 l 4.07121,12.2141 -25.28582,0.96449 3.00032,25.3927 -3.10725,8.14291 z m 125.16677,14.43654 6.86948,10.18433 c -13.09727,12.3878 -20.59727,29.56674 -20.77834,47.59345 h -13.10336 c 0.0321,-23.19873 10.52582,-43.94279 27.01222,-57.77778 z m -219.65488,10.20593 c 7.99221,0.0153 15.85522,2.01735 22.88176,5.82576 L 167.844,-35.91577 c -8.72616,0.20111 -15.69666,7.33034 -15.70115,16.05881 2.1e-4,8.87589 7.19561,16.07107 16.07154,16.071 8.87593,7e-5 16.07132,-7.19511 16.07153,-16.071 -0.0107,-5.98632 -3.33708,-11.47368 -8.64621,-14.23944 l 17.53103,-23.62092 c 11.94343,9.11063 18.95818,23.26733 18.97232,38.28891 -1e-4,26.6279 -21.58617,48.21405 -48.21407,48.21413 -26.62811,1.7e-4 -48.2146,-21.586 -48.2147,-48.21413 -2.2e-4,-26.6283 21.58638,-48.21488 48.2147,-48.21465 z m 272.1428,0 c 26.6281,8e-5 48.21438,21.58658 48.21416,48.21465 -1.2e-4,26.6279 -21.58629,48.21405 -48.21416,48.21413 -22.56762,-0.0181 -42.10343,-15.68816 -47.01816,-37.71421 h 23.04845 c 4.03748,7.39744 11.79216,11.99969 20.21968,11.99983 12.72226,0 23.03574,-10.31345 23.03574,-23.03571 0,-12.72225 -10.31348,-23.03569 -23.03574,-23.03569 -4.40559,0.009 -8.71639,1.28017 -12.42116,3.66423 l -12.61329,-18.69985 c 8.31062,-6.21713 18.40574,-9.58671 28.78448,-9.60738 z m -35.23973,15.36561 12.77217,18.93462 c -2.77574,3.87135 -4.28305,8.50807 -4.31431,13.27162 h -21.41005 c 0.16895,-11.97117 4.78585,-23.45129 12.95219,-32.20624 z"
       id="path59113"
       inkscape:connector-curvature="0" />
  </g>
</svg>
