<?xml version="1.0" encoding="UTF-8" standalone="no"?>
<svg
   xmlns:dc="http://purl.org/dc/elements/1.1/"
   xmlns:cc="http://creativecommons.org/ns#"
   xmlns:rdf="http://www.w3.org/1999/02/22-rdf-syntax-ns#"
   xmlns:svg="http://www.w3.org/2000/svg"
   xmlns="http://www.w3.org/2000/svg"
   xmlns:sodipodi="http://sodipodi.sourceforge.net/DTD/sodipodi-0.dtd"
   xmlns:inkscape="http://www.inkscape.org/namespaces/inkscape"
   width="323.14914mm"
   height="200mm"
   viewBox="0 0 323.14914 200"
   version="1.1"
   id="svg9491"
   inkscape:version="1.0 (4035a4fb49, 2020-05-01)"
   sodipodi:docname="Vietnam_road_sign_IE452.svg">
  <defs
     id="defs9485">
    <clipPath
       id="clipPath2832">
      <path
         d="M -0.24,595.138 H 317.24 V -0.138 H -0.24 Z"
         id="path2834"
         inkscape:connector-curvature="0" />
    </clipPath>
    <clipPath
       id="clipPath2840">
      <path
         d="M 0.03,595.32 H 317.49 V 0 H 0.03 Z"
         id="path2842"
         inkscape:connector-curvature="0" />
    </clipPath>
    <clipPath
       id="clipPath2858">
      <path
         d="M -0.24,595.138 H 317.24 V -0.138 H -0.24 Z"
         id="path2860"
         inkscape:connector-curvature="0" />
    </clipPath>
    <clipPath
       id="clipPath2864">
      <path
         d="M 0.03,595.32 H 317.49 V 0 H 0.03 Z"
         id="path2866"
         inkscape:connector-curvature="0" />
    </clipPath>
    <clipPath
       id="clipPath3306">
      <path
         d="m 199.238,472.977 v -29.74 h 29.744 v 29.74"
         id="path3308"
         inkscape:connector-curvature="0" />
    </clipPath>
    <clipPath
       id="clipPath3322">
      <path
         d="M -0.24,595.138 H 317.24 V -0.138 H -0.24 Z"
         id="path3324"
         inkscape:connector-curvature="0" />
    </clipPath>
    <clipPath
       id="clipPath3330">
      <path
         d="M 0.03,595.32 H 317.49 V 0 H 0.03 Z"
         id="path3332"
         inkscape:connector-curvature="0" />
    </clipPath>
    <clipPath
       id="clipPath3344">
      <path
         d="m 88.233,387.221 v -28.335 h 32.08 v 28.335"
         id="path3346"
         inkscape:connector-curvature="0" />
    </clipPath>
    <clipPath
       id="clipPath3462">
      <path
         d="M -0.24,595.138 H 317.24 V -0.138 H -0.24 Z"
         id="path3464"
         inkscape:connector-curvature="0" />
    </clipPath>
    <clipPath
       id="clipPath3470">
      <path
         d="M 0.03,595.32 H 317.49 V 0 H 0.03 Z"
         id="path3472"
         inkscape:connector-curvature="0" />
    </clipPath>
    <clipPath
       id="clipPath3490">
      <path
         d="M -0.24,595.138 H 317.24 V -0.138 H -0.24 Z"
         id="path3492"
         inkscape:connector-curvature="0" />
    </clipPath>
    <clipPath
       id="clipPath3496">
      <path
         d="M 0.03,595.32 H 317.49 V 0 H 0.03 Z"
         id="path3498"
         inkscape:connector-curvature="0" />
    </clipPath>
    <clipPath
       id="clipPath3520">
      <path
         d="m 254.788,326.215 v -28.309 h 28.326 v 28.309"
         id="path3522"
         inkscape:connector-curvature="0" />
    </clipPath>
    <clipPath
       id="clipPath3544">
      <path
         d="m 145.049,326.142 v -28.333 h 28.342 v 28.333"
         id="path3546"
         inkscape:connector-curvature="0" />
    </clipPath>
    <clipPath
       id="clipPath3682">
      <path
         d="M -0.24,595.138 H 317.24 V -0.138 H -0.24 Z"
         id="path3684"
         inkscape:connector-curvature="0" />
    </clipPath>
    <clipPath
       id="clipPath3690">
      <path
         d="M 0.03,595.32 H 317.49 V 0 H 0.03 Z"
         id="path3692"
         inkscape:connector-curvature="0" />
    </clipPath>
    <clipPath
       id="clipPath3980">
      <path
         d="M -0.24,595.138 H 317.24 V -0.138 H -0.24 Z"
         id="path3982"
         inkscape:connector-curvature="0" />
    </clipPath>
    <clipPath
       id="clipPath3988">
      <path
         d="M 0.03,595.32 H 317.49 V 0 H 0.03 Z"
         id="path3990"
         inkscape:connector-curvature="0" />
    </clipPath>
    <clipPath
       id="clipPath4010">
      <path
         d="M -0.24,595.138 H 317.24 V -0.138 H -0.24 Z"
         id="path4012"
         inkscape:connector-curvature="0" />
    </clipPath>
    <clipPath
       id="clipPath4016">
      <path
         d="M 0.03,595.32 H 317.49 V 0 H 0.03 Z"
         id="path4018"
         inkscape:connector-curvature="0" />
    </clipPath>
    <clipPath
       id="clipPath4062">
      <path
         d="m 200.163,177.773 v -28.284 h 28.283 v 28.284"
         id="path4064"
         inkscape:connector-curvature="0" />
    </clipPath>
    <clipPath
       id="clipPath4090">
      <path
         d="m 34.886,177.515 v -51.632 h 30.367 v 51.632"
         id="path4092"
         inkscape:connector-curvature="0" />
    </clipPath>
    <clipPath
       id="clipPath4106">
      <path
         d="m 34.886,177.515 v -51.632 h 30.367 v 51.632"
         id="path4108"
         inkscape:connector-curvature="0" />
    </clipPath>
    <clipPath
       id="clipPath4272">
      <path
         d="m 34.886,177.515 v -51.632 h 30.367 v 51.632"
         id="path4274"
         inkscape:connector-curvature="0" />
    </clipPath>
    <clipPath
       id="clipPath4304">
      <path
         d="m 254.653,176.442 v -48.167 h 28.317 v 48.167"
         id="path4306"
         inkscape:connector-curvature="0" />
    </clipPath>
    <clipPath
       id="clipPath4310">
      <path
         d="m 253.565,177.983 h 31.181 V 128.8 h -31.181 z"
         id="path4312"
         inkscape:connector-curvature="0" />
    </clipPath>
    <clipPath
       id="clipPath4316">
      <path
         d="M -0.24,595.138 H 317.24 V -0.138 H -0.24 Z"
         id="path4318"
         inkscape:connector-curvature="0" />
    </clipPath>
    <clipPath
       id="clipPath4322">
      <path
         d="M 0.03,595.32 H 317.49 V 0 H 0.03 Z"
         id="path4324"
         inkscape:connector-curvature="0" />
    </clipPath>
    <clipPath
       id="clipPath4456">
      <path
         d="M -0.24,595.138 H 317.24 V -0.138 H -0.24 Z"
         id="path4458"
         inkscape:connector-curvature="0" />
    </clipPath>
    <clipPath
       id="clipPath4464">
      <path
         d="M 0.03,595.32 H 317.49 V 0 H 0.03 Z"
         id="path4466"
         inkscape:connector-curvature="0" />
    </clipPath>
  </defs>
  <sodipodi:namedview
     id="base"
     pagecolor="#ffffff"
     bordercolor="#666666"
     borderopacity="1.0"
     inkscape:pageopacity="0.0"
     inkscape:pageshadow="2"
     inkscape:zoom="0.5298281"
     inkscape:cx="1138.8317"
     inkscape:cy="631.24727"
     inkscape:document-units="mm"
     inkscape:current-layer="layer1"
     showgrid="false"
     inkscape:window-width="1920"
     inkscape:window-height="1001"
     inkscape:window-x="-9"
     inkscape:window-y="-9"
     inkscape:window-maximized="1"
     inkscape:measure-start="0,0"
     inkscape:measure-end="0,0"
     inkscape:document-rotation="0" />
  <metadata
     id="metadata9488">
    <rdf:RDF>
      <cc:Work
         rdf:about="">
        <dc:format>image/svg+xml</dc:format>
        <dc:type
           rdf:resource="http://purl.org/dc/dcmitype/StillImage" />
        <dc:title />
      </cc:Work>
    </rdf:RDF>
  </metadata>
  <g
     inkscape:label="Layer 1"
     inkscape:groupmode="layer"
     id="layer1"
     transform="translate(-303.45966,-22.960701)">
    <path
       id="rect15575"
       style="opacity:1;fill:#0a9646;fill-opacity:1;fill-rule:evenodd;stroke-width:0.0420687;stroke-linecap:square;stroke-miterlimit:10;paint-order:stroke fill markers"
       d="M 303.45966,22.960701 H 626.6088 V 222.9607 H 303.45966 Z" />
    <path
       transform="matrix(0.26458333,0,0,0.26458333,303.45966,22.960701)"
       d="m 30.353516,5.0117188 c -13.808655,0 -25.0781254,11.2674112 -25.0781254,25.0761722 v 332.957029 47.1211 49.04296 13.88672 252.45508 c 0,13.80862 11.2694704,25.06641 25.0781254,25.06641 H 1190.9805 c 13.8086,0 25.0781,-11.25779 25.0781,-25.06641 V 473.0957 459.57031 401.94727 363.04492 30.087891 c 0,-13.808761 -11.2695,-25.0761722 -25.0781,-25.0761722 z m 0,9.4511722 H 1190.9805 c 8.7398,0 15.6425,6.885058 15.6425,15.625 v 332.957029 38.90235 c 0,0.29959 -0.013,0.61475 -0.037,0.9375 v 7.20703 c 0,8.68754 -6.9941,15.68164 -15.6816,15.68164 h -8.0762 c -0.1869,0.007 -0.3766,0.0176 -0.5586,0.0176 H 38.023438 c -0.18105,0 -0.371847,-0.0102 -0.560547,-0.0176 h -7.097657 c -8.687546,0 -15.68164,-6.9941 -15.68164,-15.68164 V 30.152344 c 0,-1.658433 0.257595,-3.253829 0.730468,-4.751953 0.01365,-0.04461 0.03284,-0.08643 0.04688,-0.13086 1.99686,-6.321925 7.84094,-10.80664 14.892578,-10.80664 z M 30.28125,435.30469 h 6.958984 1145.628866 8.1172 c 8.6414,0 15.5996,6.95633 15.5996,15.59765 v 7.5918 c 0.024,0.37296 0.037,0.7339 0.037,1.07617 v 13.52539 252.45508 c 0,5.47634 -2.7106,10.22208 -6.8847,13.00391 -2.4923,1.6862 -5.5034,2.66992 -8.752,2.66992 H 30.28125 c -8.641361,0 -15.597656,-6.9563 -15.597656,-15.59766 V 450.90234 c 0,-8.64132 6.956295,-15.59765 15.597656,-15.59765 z"
       style="color:#000000;font-style:normal;font-variant:normal;font-weight:normal;font-stretch:normal;font-size:medium;line-height:normal;font-family:sans-serif;font-variant-ligatures:normal;font-variant-position:normal;font-variant-caps:normal;font-variant-numeric:normal;font-variant-alternates:normal;font-variant-east-asian:normal;font-feature-settings:normal;font-variation-settings:normal;text-indent:0;text-align:start;text-decoration:none;text-decoration-line:none;text-decoration-style:solid;text-decoration-color:#000000;letter-spacing:normal;word-spacing:normal;text-transform:none;writing-mode:lr-tb;direction:ltr;text-orientation:mixed;dominant-baseline:auto;baseline-shift:baseline;text-anchor:start;white-space:normal;shape-padding:0;shape-margin:0;inline-size:0;clip-rule:nonzero;display:inline;overflow:visible;visibility:visible;opacity:1;isolation:auto;mix-blend-mode:normal;color-interpolation:sRGB;color-interpolation-filters:linearRGB;solid-color:#000000;solid-opacity:1;vector-effect:none;fill:#ffffff;fill-opacity:1;fill-rule:evenodd;stroke:none;stroke-width:2.09199;stroke-linecap:square;stroke-linejoin:miter;stroke-miterlimit:10;stroke-dasharray:none;stroke-dashoffset:0;stroke-opacity:1;paint-order:stroke fill markers;color-rendering:auto;image-rendering:auto;shape-rendering:auto;text-rendering:auto;enable-background:accumulate;stop-color:#000000;stop-opacity:1"
       id="path15582" />
    <path
       d="m 324.12038,67.193614 h 60.89334 v 27.821331 h -60.89334 z"
       style="opacity:1;fill:#ffd70f;fill-opacity:1;fill-rule:evenodd;stroke:none;stroke-width:0.553508;stroke-linecap:square;stroke-miterlimit:10;stroke-dasharray:none;stroke-opacity:1;paint-order:stroke fill markers"
       id="rect15605" />
    <path
       id="path15631"
       d="m 326.18273,67.759747 c -0.81115,0 -1.47443,0.660164 -1.47443,1.471307 v 23.746432 c 0,0.811142 0.66328,1.471323 1.47443,1.471323 h 56.7905 c 0.81117,0 1.4744,-0.660181 1.4744,-1.471323 V 69.231054 c 0,-0.811143 -0.66328,-1.471307 -1.4744,-1.471307 z m 0,0.535017 h 56.7905 c 0.52266,0 0.93627,0.413622 0.93627,0.93629 v 23.746432 c 0,0.522654 -0.41353,0.933189 -0.93627,0.933189 h -56.7905 c -0.52266,0 -0.93628,-0.410555 -0.93628,-0.933189 V 69.231054 c 0,-0.522672 0.41354,-0.93629 0.93628,-0.93629 z"
       style="color:#000000;font-style:normal;font-variant:normal;font-weight:normal;font-stretch:normal;font-size:medium;line-height:normal;font-family:sans-serif;font-variant-ligatures:normal;font-variant-position:normal;font-variant-caps:normal;font-variant-numeric:normal;font-variant-alternates:normal;font-variant-east-asian:normal;font-feature-settings:normal;font-variation-settings:normal;text-indent:0;text-align:start;text-decoration:none;text-decoration-line:none;text-decoration-style:solid;text-decoration-color:#000000;letter-spacing:normal;word-spacing:normal;text-transform:none;writing-mode:lr-tb;direction:ltr;text-orientation:mixed;dominant-baseline:auto;baseline-shift:baseline;text-anchor:start;white-space:normal;shape-padding:0;shape-margin:0;inline-size:0;clip-rule:nonzero;display:inline;overflow:visible;visibility:visible;opacity:1;isolation:auto;mix-blend-mode:normal;color-interpolation:sRGB;color-interpolation-filters:linearRGB;solid-color:#000000;solid-opacity:1;vector-effect:none;fill:#000000;fill-opacity:1;fill-rule:evenodd;stroke:none;stroke-width:0.119062;stroke-linecap:square;stroke-linejoin:miter;stroke-miterlimit:10;stroke-dasharray:none;stroke-dashoffset:0;stroke-opacity:1;paint-order:stroke fill markers;color-rendering:auto;image-rendering:auto;shape-rendering:auto;text-rendering:auto;enable-background:accumulate;stop-color:#000000;stop-opacity:1" />
    <path
       d="m 336.88947,72.205604 c -1.36961,0 -2.51552,0.330332 -3.43646,0.991507 -0.91309,0.653335 -1.5737,1.361798 -1.98303,2.125328 -0.14189,0.267612 -0.264,0.538688 -0.36613,0.814199 -0.10264,0.275473 -0.18065,0.564078 -0.23555,0.86321 -0.0552,0.299089 -0.0954,0.774434 -0.11873,1.427765 -0.0223,0.653332 -0.0362,1.495435 -0.0362,2.5266 0,2.062321 0.0516,3.383536 0.15387,3.966025 0.0552,0.299136 0.13326,0.587702 0.23556,0.863193 0.10264,0.267612 0.22467,0.534915 0.36612,0.802543 0.40948,0.771411 1.06995,1.479875 1.983,2.125324 0.92887,0.653346 2.07472,0.979855 3.43649,0.979855 0.74779,0 1.44489,-0.107189 2.09034,-0.319632 0.64544,-0.212556 1.24303,-0.525333 1.79403,-0.942508 1.1335,-0.865864 1.86473,-2.103628 2.19533,-3.709419 0.0139,-0.04714 0.009,-0.08518 -0.0223,-0.116745 -0.0315,-0.03928 -0.0694,-0.05829 -0.11656,-0.05829 h -2.70394 c -0.0223,1.5e-5 -0.0488,0.01117 -0.0722,0.03521 -0.0223,0.01589 -0.0451,0.0307 -0.0582,0.0467 -0.70836,1.487712 -1.74338,2.232636 -3.10515,2.232636 -0.59037,0 -1.09454,-0.11468 -1.51174,-0.342928 -0.41713,-0.236167 -0.75132,-0.520933 -1.00317,-0.851551 -0.14189,-0.181028 -0.27124,-0.389065 -0.3896,-0.625222 -0.11008,-0.244 -0.19597,-0.488524 -0.25924,-0.732545 -0.0628,-0.267611 -0.10709,-0.67614 -0.13048,-1.227141 -0.0223,-0.558871 -0.0359,-1.267326 -0.0359,-2.125325 0,-0.842249 0.009,-1.543133 0.0359,-2.102004 0.0223,-0.55887 0.0677,-0.97117 0.13048,-1.238798 0.0627,-0.251917 0.14857,-0.496392 0.25924,-0.732549 0.11009,-0.244 0.24028,-0.45965 0.3896,-0.64857 0.252,-0.30699 0.58598,-0.580386 1.00317,-0.816526 0.41715,-0.236167 0.92137,-0.352269 1.51174,-0.352269 0.79503,1.7e-5 1.45185,0.230844 1.97135,0.695231 0.27541,0.236167 0.50863,0.492045 0.69757,0.767539 0.18872,0.267667 0.33407,0.560022 0.4361,0.874867 0.0167,0.06294 0.0599,0.09333 0.13046,0.09333 h 2.7039 c 0.0468,0 0.0854,-0.01589 0.11658,-0.0467 0.0315,-0.03161 0.0407,-0.07184 0.0223,-0.118954 -0.25952,-1.393235 -0.93175,-2.595995 -2.01801,-3.611427 -1.07052,-1.007535 -2.42438,-1.511744 -4.0617,-1.511744 z m 27.73422,0.104956 c -1.28304,0 -2.4213,0.437369 -3.41313,1.311121 -0.99967,0.858 -1.50005,2.08205 -1.50005,3.672071 v 7.425818 c 0,1.590021 0.50038,2.814088 1.50005,3.672088 0.99183,0.865851 2.13009,1.299446 3.41313,1.299446 1.28303,0 2.42133,-0.433578 3.41313,-1.299446 1.00756,-0.86587 1.50938,-2.089917 1.50938,-3.672088 v -7.425818 c 0,-0.787127 -0.1299,-1.484222 -0.38959,-2.09033 -0.252,-0.613979 -0.62389,-1.140934 -1.11979,-1.581741 -0.49592,-0.425045 -1.03279,-0.74779 -1.6074,-0.968177 -0.56674,-0.22825 -1.16816,-0.342924 -1.80573,-0.342924 z m -21.12261,0.03521 c -0.0943,0 -0.14217,0.04776 -0.14217,0.142392 v 2.279298 c 0,0.09444 0.0479,0.142197 0.14217,0.142197 h 4.49793 V 89.409 c 0,0.09444 0.0479,0.139995 0.14217,0.139995 h 2.5616 c 0.0945,0 0.14217,-0.04555 0.14217,-0.139995 V 74.909653 h 4.48625 c 0.0943,0 0.14217,-0.04778 0.14217,-0.142196 v -2.279299 c 0,-0.09444 -0.0479,-0.142392 -0.14217,-0.142392 z m 31.22667,0.118953 -2.43331,1.759064 c -0.0139,0.01589 -0.0315,0.03477 -0.0466,0.05829 -0.009,0.02341 -0.0139,0.04468 -0.0139,0.06068 v 2.561593 c 0,0.06294 0.0278,0.110694 0.0728,0.142196 0.0468,0.02343 0.0989,0.01617 0.15388,-0.02343 0.36208,-0.259778 0.7228,-0.523245 1.08486,-0.790886 0.36206,-0.275473 0.72509,-0.548889 1.08714,-0.816528 v 14.028096 c 0,0.09444 0.048,0.142198 0.14217,0.142198 h 2.41929 c 0.0943,0 0.13994,-0.04778 0.13994,-0.142198 V 72.606811 c 0,-0.09444 -0.0455,-0.142197 -0.13994,-0.142197 z m -10.10406,2.538257 c 0.67694,0 1.21532,0.217964 1.61673,0.650912 0.40948,0.425045 0.61359,1.018854 0.61359,1.782378 v 7.143522 c 0,0.771407 -0.20461,1.368982 -0.61359,1.794059 -0.40133,0.425045 -0.93979,0.63689 -1.61673,0.63689 -0.67695,0 -1.21527,-0.211859 -1.61671,-0.63689 -0.40134,-0.425091 -0.60428,-1.022652 -0.60428,-1.794059 v -7.143497 c 0,-0.763524 0.20266,-1.357335 0.60428,-1.782377 0.40133,-0.432946 0.93976,-0.650913 1.61671,-0.650913 z m -9.98507,11.865445 c -0.0945,0 -0.14217,0.04776 -0.14217,0.14239 v 2.398281 c 0,0.09444 0.0479,0.139994 0.14217,0.139994 h 2.40762 c 0.0867,0 0.13046,-0.04555 0.13046,-0.139994 v -2.398281 c 0,-0.09444 -0.0451,-0.14239 -0.13046,-0.14239 z"
       style="font-style:normal;font-variant:normal;font-weight:normal;font-stretch:normal;font-size:15.1831px;line-height:1.46;font-family:'Alte DIN 1451 Mittelschrift gepraegt';-inkscape-font-specification:'Alte DIN 1451 Mittelschrift gepraegt';text-align:center;text-anchor:middle;opacity:1;fill:#000000;fill-opacity:1;stroke-width:0.264584"
       id="path15637" />
    <path
       sodipodi:nodetypes="ccccccccccccccccccccccccccscsccccccccccccccccc"
       id="path17496"
       style="font-size:15.1831px;line-height:1.46;font-family:'Singapore Road Signs';-inkscape-font-specification:'Singapore Road Signs';text-align:center;text-anchor:middle;opacity:1;fill:#ffffff;fill-opacity:1;stroke-width:0.0756548"
       d="m 570.47468,59.120043 v 50.614317 h 35.43541 V 59.120043 Z m 1.38203,1.660034 h 32.65274 v 47.566083 h -32.65274 z m 13.66823,3.646909 -2.23483,8.869719 h 3.92184 l 0.28216,-8.869719 z m 3.35329,0 0.28216,8.869719 h 3.92385 l -2.23686,-8.869719 z m -15.90932,9.992316 v 1.942234 l 3.06692,1.10806 v 0.584703 h 1.411 v -0.584703 c 0,0 2.08662,-0.313671 4.52568,-0.535349 1.95306,-0.177516 4.1317,-0.271988 5.64407,-0.278037 1.79866,-0.0063 4.45804,0.09363 6.73975,0.288436 2.51319,0.214479 4.5713,0.524984 4.5713,0.524984 v 0.5847 h 1.38199 v -0.5847 l 3.06685,-1.108064 v -1.942233 z m 9.21108,3.620663 -6.70448,26.681115 h 10.04943 l 1.39442,-26.681115 z m 7.25642,0 1.39441,26.681115 h 10.0494 l -6.70443,-26.681115 z" />
    <path
       d="m 493.82769,43.234905 c -1.33418,0 -2.45063,0.321753 -3.34777,0.965835 -0.88947,0.636448 -1.53297,1.327893 -1.93168,2.071683 -0.13827,0.260726 -0.25729,0.524822 -0.35712,0.793198 -0.0993,0.268393 -0.17506,0.548501 -0.22831,0.839873 -0.0538,0.291372 -0.0934,0.756329 -0.11704,1.392772 -0.0223,0.636437 -0.0315,1.45677 -0.0315,2.461278 0,2.008993 0.0496,3.295953 0.14943,3.863378 0.0538,0.291367 0.12878,0.571502 0.22857,0.839877 0.0998,0.260727 0.21884,0.520837 0.3571,0.781538 0.39863,0.751454 1.04223,1.442893 1.93169,2.071666 0.90486,0.636429 2.02125,0.954178 3.34781,0.954178 0.72846,0 1.40792,-0.103204 2.0367,-0.310285 0.62875,-0.207037 1.21061,-0.515102 1.74736,-0.92151 1.10416,-0.843465 1.81728,-2.047162 2.13936,-3.611428 0.0167,-0.04599 0.009,-0.0836 -0.0223,-0.114344 -0.0315,-0.03839 -0.0683,-0.05829 -0.11428,-0.05829 h -2.63389 c -0.0223,0 -0.0471,0.01116 -0.07,0.03521 -0.0223,0.01589 -0.0407,0.03113 -0.0561,0.04669 -0.69013,1.449234 -1.69927,2.174314 -3.02582,2.174314 -0.57512,0 -1.06571,-0.111199 -1.47211,-0.333626 -0.4063,-0.230006 -0.73211,-0.506139 -0.97754,-0.828205 -0.13826,-0.176345 -0.26539,-0.381206 -0.38012,-0.611232 -0.10733,-0.237702 -0.19039,-0.473844 -0.252,-0.711558 -0.0613,-0.260727 -0.10288,-0.660036 -0.126,-1.196804 -0.0223,-0.544422 -0.0362,-1.233542 -0.0362,-2.06934 0,-0.820461 0.0139,-1.503911 0.0362,-2.048334 0.0223,-0.544411 0.0647,-0.947763 0.126,-1.208476 0.0613,-0.245366 0.1444,-0.481517 0.252,-0.711557 0.10732,-0.2377 0.23471,-0.450504 0.38012,-0.634567 0.24559,-0.299045 0.57113,-0.563158 0.97754,-0.793199 0.40632,-0.230007 0.89699,-0.345272 1.47211,-0.345272 0.77443,0 1.4139,0.226494 1.92001,0.678891 0.26816,0.230008 0.49487,0.480511 0.67889,0.748889 0.18426,0.260727 0.3273,0.544808 0.42706,0.851519 0.0167,0.0615 0.057,0.0911 0.126,0.0911 h 2.63388 c 0.046,0 0.0837,-0.01617 0.11428,-0.0467 0.0315,-0.0307 0.0407,-0.06829 0.0223,-0.114344 -0.25284,-1.357387 -0.90847,-2.531447 -1.96667,-3.520612 -1.04284,-0.981497 -2.36178,-1.472088 -3.95668,-1.472088 z m -55.89772,0.137596 c -0.092,0 -0.13771,0.04795 -0.13771,0.139996 v 2.218631 c 0,0.09205 0.0457,0.137597 0.13771,0.137597 h 4.38133 v 14.126078 c 0,0.09205 0.0457,0.137596 0.13771,0.137596 h 2.49625 c 0.092,0 0.13772,-0.04555 0.13772,-0.137596 V 45.868719 h 4.37193 c 0.092,0 0.13771,-0.04555 0.13771,-0.137597 V 43.51249 c 0,-0.09205 -0.0454,-0.139993 -0.13771,-0.139993 z m 13.50316,0 c -0.092,0 -0.13772,0.04795 -0.13772,0.139996 v 16.482361 c 0,0.09205 0.0457,0.137596 0.13772,0.137596 h 2.49628 c 0.092,0 0.13771,-0.04555 0.13771,-0.137596 v -6.303663 h 3.66973 c 1.72529,0 3.04024,-0.544235 3.94505,-1.633072 0.9048,-1.096508 1.35545,-2.246584 1.35545,-3.450437 0,-0.460098 -0.0457,-0.893074 -0.13771,-1.299467 -0.092,-0.406398 -0.22078,-0.780104 -0.38959,-1.117485 -0.17647,-0.329701 -0.37742,-0.627483 -0.59959,-0.895854 -0.21494,-0.276059 -0.45099,-0.518515 -0.71151,-0.725557 -0.67472,-0.521414 -1.31262,-0.851153 -1.91072,-0.989172 -0.59045,-0.138097 -1.2139,-0.207678 -1.87334,-0.20762 z m 21.79457,0 c -0.092,0 -0.13772,0.04795 -0.13772,0.139996 v 16.482361 c 0,0.09205 0.0457,0.137596 0.13772,0.137596 h 2.49624 c 0.092,0 0.13769,-0.04555 0.13769,-0.137596 v -7.064206 h 6.2687 v 7.064206 c 0,0.09205 0.0457,0.137596 0.1377,0.137596 h 2.49624 c 0.092,0 0.1377,-0.04555 0.1377,-0.137596 V 43.512527 c 0,-0.09205 -0.0457,-0.139994 -0.1377,-0.139994 h -2.49624 c -0.0919,0 -0.1377,0.04795 -0.1377,0.139994 v 6.924235 h -6.2687 v -6.924235 c 0,-0.09205 -0.0457,-0.139994 -0.13769,-0.139994 z m 28.39911,0 c -0.092,0 -0.1377,0.04795 -0.1377,0.139996 v 16.482361 c 0,0.09205 0.0457,0.137596 0.1377,0.137596 h 2.49623 c 0.092,0 0.13771,-0.04555 0.13771,-0.137596 v -9.754105 l 3.24284,7.463131 c 0.0315,0.046 0.0728,0.06994 0.126,0.06994 h 2.08333 c 0.0538,0 0.0954,-0.02397 0.126,-0.06994 0.52911,-1.24219 1.06535,-2.479539 1.60977,-3.71407 0.54439,-1.234526 1.08466,-2.475862 1.62139,-3.725726 v 9.73077 c 0,0.09205 0.0457,0.137596 0.13771,0.137596 h 2.49626 c 0.0919,0 0.13772,-0.04555 0.13772,-0.137596 V 43.512527 c 0,-0.09205 -0.0457,-0.139994 -0.13772,-0.139994 h -2.35618 c -0.0613,0 -0.10503,0.02799 -0.12823,0.08171 -0.75146,1.755956 -1.50219,3.499891 -2.25363,5.232836 -0.75149,1.725287 -1.49821,3.467548 -2.24202,5.223493 l -4.61226,-10.456344 c -0.0315,-0.05368 -0.0744,-0.08171 -0.12823,-0.08171 z m -47.55975,2.64557 h 3.48548 c 0.69777,0 1.26359,0.147188 1.70069,0.438591 0.67475,0.437099 1.0125,1.130183 1.0125,2.080996 0,0.636434 -0.21855,1.212648 -0.65556,1.726402 -0.42933,0.529073 -1.08489,0.793198 -1.96667,0.793198 h -3.57644 z m 7.35584,11.503838 c -0.092,0 -0.13771,0.04555 -0.13771,0.137596 v 2.3353 c 0,0.09205 0.0457,0.137597 0.13771,0.137597 h 2.34693 c 0.0845,0 0.126,-0.04555 0.126,-0.137597 v -2.3353 c 0,-0.09205 -0.0407,-0.137596 -0.126,-0.137596 z m 59.92907,17.168246 -1.17583,1.175811 c 0.32597,0.225491 0.49153,0.601027 0.49927,1.129147 -0.0223,0.633036 -0.38916,1.090014 -1.0685,1.390462 -1.05957,-0.993625 -2.47613,-1.612079 -4.04999,-1.612079 h -0.17032 c -3.28552,0 -5.93036,2.644874 -5.93036,5.930381 v 5.195508 c 0,3.285523 2.64484,5.93038 5.93036,5.93038 h 0.17032 c 3.28546,0 5.93038,-2.644857 5.93036,-5.93038 v -5.195508 c 0,-1.129592 -0.33092,-2.171146 -0.87483,-3.067842 0.10011,-0.04065 0.20125,-0.07995 0.29885,-0.123604 0.97082,-0.660163 1.44248,-1.515423 1.41143,-2.563917 -0.0167,-0.862077 -0.28035,-1.561437 -0.7932,-2.097343 -0.054,-0.0543 -0.11512,-0.106684 -0.17728,-0.160957 z m -14.1867,0.179636 -1.11286,1.115148 c 0.28216,0.215483 0.42662,0.568731 0.43387,1.059163 -0.0139,0.571869 -0.33183,0.997369 -0.92856,1.287792 v -1.283129 c 0,-0.09205 -0.0457,-0.137597 -0.13771,-0.137597 h -2.49623 c -0.0919,0 -0.1377,0.04555 -0.1377,0.137597 v 10.628972 c 0,1.096511 -0.31196,1.932837 -0.93322,2.507938 -0.62111,0.575099 -1.3838,0.860867 -2.28867,0.860867 -0.9201,0 -1.69083,-0.285771 -2.31194,-0.860867 -0.61344,-0.567423 -0.91916,-1.403752 -0.91916,-2.507938 V 77.048765 c 0,-0.09205 -0.0407,-0.137597 -0.126,-0.137597 h -2.50793 c -0.092,0 -0.13771,0.04555 -0.13771,0.137597 v 10.904273 c 0,1.763619 0.58189,3.181799 1.74739,4.255309 1.16553,1.065843 2.58368,1.60041 4.25527,1.60041 1.66399,0 3.07651,-0.534567 4.23434,-1.60041 1.17321,-1.07351 1.75905,-2.49169 1.75905,-4.255309 v -8.137374 c 0.41039,-0.08235 0.796,-0.200485 1.15017,-0.363964 0.92884,-0.631608 1.37818,-1.451129 1.34843,-2.454264 -0.0139,-0.824794 -0.26538,-1.493623 -0.7559,-2.006339 -0.0451,-0.04468 -0.0908,-0.0841 -0.13546,-0.121345 z m -40.60758,1.903691 c -1.33417,0 -2.45062,0.321709 -3.34777,0.965836 -0.88944,0.636453 -1.53295,1.327891 -1.93167,2.071668 h 0.0139 c -0.14579,0.260727 -0.26899,0.524823 -0.36838,0.793212 -0.0998,0.268337 -0.17757,0.548487 -0.23109,0.83986 -0.046,0.291372 -0.0837,0.754018 -0.11429,1.390446 -0.0223,0.636437 -0.0362,1.456784 -0.0362,2.461277 0,1.004489 0.0139,1.828837 0.0362,2.472928 0.0315,0.636448 0.0683,1.101389 0.11429,1.39279 0.0538,0.291369 0.1313,0.571488 0.23109,0.839861 0.0993,0.260726 0.22301,0.520825 0.36838,0.781537 h -0.0139 c 0.39864,0.751457 1.04223,1.440571 1.93167,2.069344 0.90482,0.63643 2.02126,0.956502 3.34777,0.956502 1.66399,0 3.08615,-0.580196 4.26705,-1.73804 1.1655,-1.142524 1.74733,-2.560704 1.74733,-4.255327 v -3.359454 c 0,-0.0844 -0.0454,-0.125945 -0.13771,-0.125945 h -5.85339 c -0.092,0 -0.13994,0.04154 -0.13994,0.125945 v 2.370284 c 0,0.09205 0.0479,0.137597 0.13994,0.137597 h 3.2195 v 0.713865 c 0,1.004506 -0.31375,1.816846 -0.94255,2.437958 -0.62109,0.621094 -1.3878,0.930847 -2.30028,0.930847 -0.57508,0 -1.0657,-0.111139 -1.47212,-0.333626 -0.40632,-0.230062 -0.73213,-0.506157 -0.97747,-0.828203 -0.13827,-0.176373 -0.26511,-0.378862 -0.38015,-0.60891 -0.10732,-0.2377 -0.19039,-0.473844 -0.252,-0.711544 -0.0613,-0.260726 -0.10516,-0.660067 -0.12823,-1.196818 -0.0223,-0.544423 -0.0315,-1.235847 -0.0315,-2.071663 0,-0.820463 0.009,-1.501583 0.0315,-2.046011 0.0223,-0.544427 0.0668,-0.947763 0.12823,-1.208473 0.0613,-0.245366 0.14439,-0.483861 0.252,-0.713882 0.10733,-0.2377 0.23472,-0.448205 0.38015,-0.632231 0.24503,-0.299043 0.57107,-0.563168 0.97747,-0.793214 0.40629,-0.230006 0.89704,-0.345272 1.47212,-0.345272 0.77445,0 1.41394,0.226495 1.92003,0.678895 0.26817,0.230006 0.49483,0.480498 0.6789,0.748887 0.18427,0.260726 0.32504,0.542471 0.42435,0.849193 0.0167,0.06129 0.059,0.09332 0.12824,0.09332 h 2.63391 c 0.046,0 0.0837,-0.01617 0.11428,-0.0467 0.0315,-0.03069 0.0407,-0.06829 0.0223,-0.114344 -0.25284,-1.364823 -0.90851,-2.538883 -1.96667,-3.520373 -1.04283,-0.98149 -2.36178,-1.472101 -3.9567,-1.472101 z m 79.39769,0 c -1.33421,0 -2.45069,0.321709 -3.3478,0.965836 -0.88951,0.636453 -1.53296,1.327891 -1.9317,2.071668 h 0.0139 c -0.1458,0.260727 -0.26901,0.524823 -0.36883,0.793212 -0.0993,0.268337 -0.17729,0.548487 -0.2311,0.83986 -0.046,0.291372 -0.0837,0.754018 -0.11429,1.390446 -0.0223,0.636437 -0.0362,1.456784 -0.0362,2.461277 0,1.004489 0.0139,1.828837 0.0362,2.472928 0.0315,0.636448 0.0683,1.101389 0.11429,1.39279 0.0538,0.291369 0.13131,0.571488 0.2311,0.839861 0.0993,0.260726 0.223,0.520825 0.36883,0.781537 h -0.0139 c 0.39865,0.751457 1.04219,1.440571 1.9317,2.069344 0.90481,0.63643 2.02125,0.956502 3.3478,0.956502 1.66393,0 3.08611,-0.580196 4.26698,-1.73804 1.16553,-1.142524 1.74736,-2.560704 1.74736,-4.255327 v -3.359454 c 0,-0.0844 -0.0457,-0.125945 -0.13771,-0.125945 h -5.85339 c -0.092,0 -0.13771,0.04154 -0.13771,0.125945 v 2.370284 c 0,0.09205 0.0457,0.137597 0.13771,0.137597 h 3.21951 v 0.713865 c 0,1.004506 -0.31374,1.816846 -0.94255,2.437958 -0.62105,0.621094 -1.38775,0.930847 -2.30029,0.930847 -0.57505,0 -1.06566,-0.111139 -1.47212,-0.333626 -0.40629,-0.230062 -0.73211,-0.506157 -0.97747,-0.828203 -0.13826,-0.176373 -0.26539,-0.378862 -0.38013,-0.60891 -0.10732,-0.2377 -0.19039,-0.473844 -0.252,-0.711544 -0.0613,-0.260726 -0.10504,-0.660067 -0.12823,-1.196818 -0.0223,-0.544423 -0.0315,-1.235847 -0.0315,-2.071663 0,-0.820463 0.009,-1.501583 0.0315,-2.046011 0.0223,-0.544427 0.0668,-0.947763 0.12823,-1.208473 0.0613,-0.245366 0.1444,-0.483861 0.252,-0.713882 0.10733,-0.2377 0.23473,-0.448205 0.38013,-0.632231 0.24503,-0.299043 0.57113,-0.563168 0.97747,-0.793214 0.40634,-0.230006 0.89707,-0.345272 1.47212,-0.345272 0.77449,0 1.41396,0.226495 1.92003,0.678895 0.26817,0.230006 0.49486,0.480498 0.67891,0.748887 0.18425,0.260726 0.32732,0.542471 0.42708,0.849193 0.0167,0.06129 0.057,0.09332 0.126,0.09332 h 2.63394 c 0.046,0 0.0837,-0.01617 0.11428,-0.0467 0.0315,-0.03069 0.0407,-0.06829 0.0223,-0.114344 -0.25312,-1.364872 -0.90852,-2.538933 -1.96667,-3.520423 -1.04288,-0.981491 -2.3618,-1.472101 -3.9567,-1.472101 z m -143.5447,0.137597 c -0.092,0 -0.13771,0.04555 -0.13771,0.137598 v 2.220992 c 0,0.09205 0.0455,0.137597 0.13771,0.137597 h 4.38364 v 14.123749 c 0,0.09205 0.0454,0.139995 0.13771,0.139995 h 2.49628 c 0.092,0 0.13772,-0.04795 0.13772,-0.139995 V 79.407266 h 4.36966 c 0.0919,0 0.13771,-0.04572 0.13771,-0.137597 v -2.220973 c 0,-0.09205 -0.0457,-0.137598 -0.13771,-0.137598 z m 13.50316,0 c -0.092,0 -0.13772,0.04555 -0.13772,0.137598 v 16.482377 c 0,0.09205 0.0457,0.139994 0.13772,0.139994 h 2.49628 c 0.0919,0 0.13772,-0.04795 0.13772,-0.139994 v -6.900901 h 2.97912 l 3.37116,6.959223 0.0561,0.05829 c 0.0223,0.01589 0.0468,0.02343 0.07,0.02343 h 2.96751 c 0.0538,0 0.0911,-0.01979 0.11428,-0.05829 0.0223,-0.0462 0.0223,-0.0957 0,-0.149249 -0.62105,-1.188519 -1.24456,-2.382552 -1.87336,-3.578745 -0.62878,-1.203873 -1.25459,-2.399576 -1.87572,-3.58811 0.47541,-0.176345 0.90041,-0.40852 1.27615,-0.699883 0.37561,-0.299041 0.7055,-0.644763 0.98918,-1.035832 0.27598,-0.421747 0.49049,-0.874708 0.64392,-1.357786 0.1536,-0.490739 0.23111,-1.009328 0.23111,-1.553742 0,-0.368073 -0.0454,-0.723435 -0.13772,-1.068496 -0.092,-0.345049 -0.21939,-0.670789 -0.38011,-0.977516 -0.1536,-0.306716 -0.33411,-0.590833 -0.54123,-0.851529 -0.19959,-0.268393 -0.40991,-0.506858 -0.63226,-0.713883 -0.42932,-0.360396 -0.93199,-0.636496 -1.5071,-0.828204 -0.57506,-0.19937 -1.21855,-0.298637 -1.93168,-0.298637 z m 14.05607,0 c -0.092,0 -0.1377,0.04555 -0.1377,0.137598 v 10.904271 c 0,1.76362 0.58188,3.1818 1.74742,4.25531 1.1655,1.065841 2.58367,1.60041 4.25528,1.60041 1.66398,0 3.07647,-0.534569 4.23433,-1.60041 1.1732,-1.07351 1.75905,-2.49169 1.75905,-4.25531 V 77.048696 c 0,-0.09205 -0.0457,-0.137598 -0.13771,-0.137598 h -2.49623 c -0.0919,0 -0.13772,0.04555 -0.13772,0.137598 v 10.628969 c 0,1.096514 -0.31195,1.932834 -0.93321,2.50794 -0.62111,0.575099 -1.38383,0.860865 -2.28863,0.860865 -0.92017,0 -1.69083,-0.285771 -2.31194,-0.860865 -0.61345,-0.567426 -0.91922,-1.403752 -0.91922,-2.50794 V 77.048696 c 0,-0.09205 -0.0407,-0.137598 -0.126,-0.137598 z m 15.15959,0 c -0.092,0 -0.13771,0.04555 -0.13771,0.137598 v 16.482377 c 0,0.09205 0.0457,0.139994 0.13771,0.139994 h 2.50795 c 0.0845,0 0.126,-0.04795 0.126,-0.139994 V 82.190547 l 7.26952,11.410518 c 0.0315,0.04599 0.0683,0.06994 0.11428,0.06994 h 2.35859 c 0.092,0 0.13769,-0.04795 0.13769,-0.139994 V 77.048654 c 0,-0.09205 -0.0457,-0.137596 -0.13769,-0.137596 h -2.50792 c -0.092,0 -0.1377,0.04555 -0.1377,0.137596 V 88.39152 l -7.24619,-11.410522 c -0.0315,-0.046 -0.0708,-0.06994 -0.11656,-0.06994 z m 36.11653,0 c -0.0919,0 -0.13993,0.04555 -0.13993,0.137598 v 16.482377 c 0,0.09205 0.0479,0.139994 0.13993,0.139994 h 10.53566 c 0.092,0 0.1377,-0.04795 0.1377,-0.139994 v -2.344616 c 0,-0.09205 -0.0457,-0.139993 -0.1377,-0.139993 h -7.90174 V 77.048671 c 0,-0.09205 -0.0479,-0.137598 -0.13994,-0.137598 z m 43.28111,0 c -0.0919,0 -0.13769,0.04555 -0.13769,0.137598 v 16.482377 c 0,0.09205 0.0457,0.139994 0.13769,0.139994 h 2.50792 c 0.0845,0 0.126,-0.04795 0.126,-0.139994 V 82.190547 l 7.26946,11.410518 c 0.0315,0.04599 0.0683,0.06994 0.11428,0.06994 h 2.35864 c 0.092,0 0.13772,-0.04795 0.13772,-0.139994 V 77.048654 c 0,-0.09205 -0.0457,-0.137596 -0.13772,-0.137596 h -2.50794 c -0.092,0 -0.13771,0.04555 -0.13771,0.137596 V 88.39152 l -7.2462,-11.410522 c -0.0315,-0.046 -0.0683,-0.06994 -0.11429,-0.06994 z m -105.97942,2.496265 h 3.79576 c 0.34492,0 0.66278,0.04154 0.95419,0.125946 0.29889,0.0844 0.56147,0.203607 0.78386,0.356965 0.25312,0.191677 0.44379,0.438136 0.57394,0.737214 0.13772,0.299043 0.20768,0.640762 0.20768,1.024155 0,0.67479 -0.22244,1.256655 -0.66719,1.74739 -0.44467,0.490756 -1.1122,0.734876 -2.00167,0.734893 h -3.64643 z m 96.93218,0.156246 c 1.79765,0 3.24284,1.447514 3.24284,3.245152 v 5.00887 c 0,1.797587 -1.44511,3.245152 -3.24284,3.245152 -1.79756,0 -3.24512,-1.447565 -3.24512,-3.245152 v -5.00887 c 0,-1.797604 1.44756,-3.245152 3.24512,-3.245152 z m -34.01222,26.51876 c -1.33552,0 -2.37798,0.35575 -3.12851,1.07082 -0.74461,0.70325 -1.11745,1.61611 -1.11745,2.73891 0,0.47867 0.0742,0.92204 0.22162,1.32978 0.14773,0.40184 0.36927,0.77474 0.66489,1.11749 0.29524,0.33683 0.65808,0.6097 1.08943,0.81653 0.43747,0.2009 0.93293,0.33841 1.48846,0.41529 0.16558,0.0234 0.31647,0.0486 0.4526,0.0723 0.14161,0.0176 0.2782,0.0334 0.40811,0.0514 0.13603,0.0176 0.269,0.0356 0.39907,0.0537 0.13324,0.0173 0.27096,0.0361 0.41535,0.0537 1.04597,0.14176 1.57008,0.67838 1.57008,1.61208 0,0.49638 -0.20684,0.89542 -0.62059,1.1968 -0.43746,0.31318 -1.03527,0.47127 -1.79174,0.47127 -0.67365,0 -1.31364,-0.11374 -1.92234,-0.33828 -0.60276,-0.23045 -1.13819,-0.534 -1.60507,-0.91219 -0.0223,-0.0181 -0.0496,-0.028 -0.0795,-0.028 -0.0315,0 -0.0546,0.0145 -0.0722,0.0375 l -1.27378,1.44411 c -0.0167,0.0234 -0.0278,0.0521 -0.0278,0.0817 0,0.0293 0.0139,0.0522 0.0362,0.0701 1.35323,1.1819 2.99478,1.77305 4.92718,1.77305 1.37101,0 2.476,-0.332 3.31513,-0.99383 0.83324,-0.67367 1.25049,-1.60584 1.25049,-2.79955 0,-0.89234 -0.29211,-1.70175 -0.87717,-2.42862 -0.58505,-0.74457 -1.48313,-1.19139 -2.69461,-1.33912 -0.31332,-0.0356 -0.58604,-0.0685 -0.81651,-0.0979 -0.23027,-0.0356 -0.4307,-0.0685 -0.60194,-0.0979 -0.31915,-0.0473 -0.5885,-0.11769 -0.80718,-0.21227 -0.21855,-0.10049 -0.39278,-0.22212 -0.52256,-0.36393 -0.2601,-0.3073 -0.38961,-0.62218 -0.38961,-0.94719 0,-0.56732 0.19235,-0.99139 0.57618,-1.26913 0.19513,-0.15368 0.41354,-0.26162 0.65562,-0.32663 0.24251,-0.0709 0.50487,-0.10718 0.78855,-0.10718 0.55546,0 1.09204,0.0885 1.61206,0.26594 0.52003,0.17137 1.01116,0.40333 1.47209,0.69289 0.0533,0.0352 0.10059,0.0254 0.14217,-0.028 l 1.07314,-1.5864 c 0.0407,-0.0592 0.0315,-0.11039 -0.0278,-0.1516 -0.29524,-0.19502 -0.60575,-0.37236 -0.93082,-0.53192 -0.31915,-0.16545 -0.65565,-0.30641 -1.01018,-0.4246 -0.3485,-0.11833 -0.71128,-0.21029 -1.08949,-0.2753 -0.37245,-0.0711 -0.75652,-0.10496 -1.15248,-0.10496 z m 10.24639,0 c -1.33559,0 -2.37799,0.35575 -3.12851,1.07082 -0.74456,0.70325 -1.11753,1.61611 -1.11753,2.73891 0,0.47867 0.0742,0.92204 0.22162,1.32978 0.14775,0.40184 0.36929,0.77474 0.66491,1.11749 0.29523,0.33683 0.65807,0.6097 1.08943,0.81653 0.43746,0.2009 0.9353,0.33841 1.49079,0.41529 0.16558,0.0234 0.31647,0.0486 0.45259,0.0723 0.14162,0.0176 0.27599,0.0334 0.40586,0.0514 0.13602,0.0176 0.269,0.0356 0.3991,0.0537 0.13325,0.0173 0.27318,0.0361 0.41759,0.0537 1.04597,0.14176 1.56776,0.67838 1.56776,1.61208 0,0.49638 -0.20685,0.89542 -0.62055,1.1968 -0.43747,0.31318 -1.03299,0.47127 -1.7894,0.47127 -0.67366,0 -1.31599,-0.11374 -1.9247,-0.33828 -0.60274,-0.23045 -1.13822,-0.534 -1.60505,-0.91219 -0.0223,-0.0181 -0.0496,-0.028 -0.0795,-0.028 -0.0315,0 -0.0524,0.0145 -0.07,0.0375 l -1.27612,1.44411 c -0.0167,0.0234 -0.0278,0.0521 -0.0278,0.0817 0,0.0293 0.009,0.0522 0.0362,0.0701 1.35328,1.1819 2.99483,1.77305 4.92723,1.77305 1.37099,0 2.47598,-0.332 3.31514,-0.99383 0.83324,-0.67367 1.2505,-1.60584 1.2505,-2.79955 0,-0.89234 -0.29212,-1.70175 -0.87725,-2.42862 -0.58503,-0.74457 -1.48312,-1.19139 -2.69453,-1.33912 -0.31333,-0.0356 -0.5861,-0.0685 -0.81655,-0.0979 -0.23082,-0.0356 -0.4307,-0.0685 -0.60192,-0.0979 -0.31915,-0.0473 -0.58855,-0.11769 -0.80723,-0.21227 -0.21855,-0.10049 -0.39274,-0.22212 -0.52257,-0.36393 -0.26009,-0.3073 -0.3896,-0.62218 -0.3896,-0.94719 0,-0.56732 0.19235,-0.99139 0.57623,-1.26913 0.19514,-0.15368 0.41355,-0.26162 0.65558,-0.32663 0.24251,-0.0709 0.50491,-0.10718 0.78855,-0.10718 0.55546,0 1.09436,0.0885 1.6144,0.26594 0.52002,0.17137 1.00884,0.40333 1.46977,0.69289 0.0533,0.0352 0.10119,0.0254 0.14217,-0.028 l 1.07314,-1.5864 c 0.0407,-0.0592 0.0315,-0.11039 -0.0278,-0.1516 -0.29526,-0.19502 -0.60579,-0.37236 -0.93087,-0.53192 -0.31917,-0.16545 -0.65793,-0.30641 -1.01251,-0.4246 -0.34851,-0.11833 -0.71126,-0.21029 -1.08946,-0.2753 -0.37245,-0.0711 -0.75653,-0.10496 -1.15245,-0.10496 z m 24.21845,0.0864 c -0.0474,0 -0.0767,0.0248 -0.0889,0.0724 l -4.64494,12.70996 c -0.009,0.0356 -0.009,0.0685 0.009,0.0979 0.0167,0.0293 0.0474,0.0442 0.0883,0.0442 h 2.0274 c 0.0167,0 0.036,-0.008 0.0538,-0.0185 0.0223,-0.0176 0.0362,-0.0334 0.0451,-0.0513 0.16558,-0.47276 0.32818,-0.93776 0.48756,-1.3928 0.16557,-0.46092 0.33135,-0.93043 0.49697,-1.4091 h 4.67992 l 0.95648,2.8019 c 0.009,0.0473 0.0407,0.07 0.0889,0.07 h 2.02963 c 0.0362,0 0.0635,-0.0145 0.0816,-0.0442 0.0167,-0.0298 0.0223,-0.0626 0.009,-0.0979 l -4.63553,-12.70996 c -0.006,-0.0176 -0.0223,-0.0325 -0.0451,-0.0442 -0.0167,-0.0181 -0.0362,-0.0279 -0.0538,-0.0279 z m -89.70933,0.0185 c -0.0709,0 -0.10516,0.0365 -0.10516,0.10735 v 12.70063 c 0,0.0711 0.036,0.10736 0.10516,0.10736 h 8.12106 c 0.0709,0 0.10504,-0.0361 0.10504,-0.10736 v -1.80805 c 0,-0.0711 -0.036,-0.10496 -0.10504,-0.10496 h -6.0914 v -3.52977 h 5.17683 c 0.0709,0 0.10732,-0.0307 0.10732,-0.0957 v -1.71939 c 0,-0.0711 -0.0362,-0.10734 -0.10732,-0.10734 h -5.17683 v -3.40378 h 6.0914 c 0.0709,0 0.10504,-0.0365 0.10504,-0.10735 v -1.82437 c 0,-0.0709 -0.036,-0.10736 -0.10504,-0.10736 z m 8.7859,0 c -0.0407,0 -0.0708,0.0184 -0.0883,0.0537 -0.0167,0.0298 -0.0139,0.0637 0.009,0.10496 0.60274,1.02825 1.20181,2.0514 1.7987,3.06784 0.59685,1.01643 1.19936,2.03959 1.80802,3.06784 l -3.85637,6.46229 c -0.0223,0.0416 -0.0278,0.079 -0.009,0.11434 0.0167,0.0293 0.051,0.0442 0.0978,0.0442 h 2.17202 c 0.0362,0 0.065,-0.0181 0.0889,-0.0537 0.4492,-0.76822 0.89697,-1.52989 1.34608,-2.2863 0.44921,-0.7564 0.89933,-1.51807 1.34847,-2.2863 l 2.69457,4.5726 c 0.0223,0.0356 0.0533,0.0537 0.0883,0.0537 h 2.179 c 0.0468,0 0.0803,-0.0145 0.0978,-0.0442 0.0167,-0.0352 0.0139,-0.0727 -0.009,-0.11434 -0.65005,-1.08143 -1.29345,-2.1592 -1.93168,-3.22881 -0.63822,-1.07552 -1.28163,-2.15205 -1.93167,-3.23348 l 3.60675,-6.13568 c 0.0223,-0.0416 0.0278,-0.0755 0.009,-0.10496 -0.0167,-0.0352 -0.0474,-0.0537 -0.089,-0.0537 h -2.18133 c -0.036,0 -0.065,0.0184 -0.0889,0.0537 -0.40766,0.71504 -0.8147,1.42551 -1.22245,2.13465 -0.40766,0.70323 -0.81473,1.40919 -1.2225,2.11833 l -2.44727,-4.25299 c -0.0223,-0.0352 -0.0533,-0.0537 -0.0889,-0.0537 z m 11.21921,0 c -0.0709,0 -0.10732,0.0365 -0.10732,0.10735 v 12.70063 c 0,0.0711 0.0362,0.10736 0.10732,0.10736 h 1.9224 c 0.0709,0 0.10732,-0.0365 0.10732,-0.10736 V 114.138 h 2.82757 c 1.3296,0 2.34255,-0.41832 3.03987,-1.25747 0.69733,-0.84504 1.04517,-1.73178 1.04517,-2.65956 0,-0.35454 -0.0362,-0.68996 -0.10516,-1.00318 -0.0709,-0.31321 -0.17116,-0.59853 -0.30111,-0.85853 -0.13575,-0.2541 -0.29073,-0.48606 -0.46191,-0.69289 -0.16559,-0.21277 -0.34717,-0.39804 -0.54827,-0.55759 -0.52004,-0.40187 -1.0111,-0.65649 -1.47209,-0.76287 -0.45502,-0.10642 -0.93823,-0.15865 -1.44642,-0.15865 z m 10.52631,0 c -0.0709,0 -0.1048,0.0365 -0.1048,0.10735 v 12.70063 c 0,0.0711 0.0362,0.10736 0.1048,0.10736 h 1.9247 c 0.0715,0 0.10733,-0.0365 0.10733,-0.10736 v -5.31691 h 2.29566 l 2.59659,5.36115 0.0451,0.0442 c 0.0167,0.0112 0.0362,0.0184 0.0538,0.0184 h 2.28632 c 0.0407,0 0.0709,-0.0145 0.089,-0.0442 0.0167,-0.0356 0.0167,-0.0752 0,-0.11674 -0.47866,-0.91598 -0.95952,-1.83335 -1.44411,-2.75523 -0.48453,-0.92779 -0.96774,-1.85091 -1.4464,-2.7669 0.36657,-0.13584 0.69489,-0.31435 0.98453,-0.5389 0.28938,-0.23048 0.54423,-0.4965 0.76286,-0.79788 0.21269,-0.32506 0.37876,-0.67519 0.49693,-1.04749 0.11824,-0.37823 0.17728,-0.77725 0.17728,-1.19682 0,-0.28365 -0.0359,-0.5576 -0.10732,-0.82354 -0.0709,-0.26591 -0.16754,-0.51716 -0.29165,-0.75355 -0.11824,-0.23639 -0.25813,-0.45464 -0.41757,-0.65555 -0.1536,-0.20682 -0.31604,-0.39101 -0.4876,-0.55059 -0.33091,-0.27773 -0.71861,-0.48916 -1.16181,-0.63689 -0.44332,-0.15368 -0.93885,-0.23095 -1.48846,-0.23095 z m 10.92527,0 c -0.0708,0 -0.10732,0.0365 -0.10732,0.10735 v 12.70063 c 0,0.0711 0.036,0.10736 0.10732,0.10736 h 8.1187 c 0.0708,0 0.10732,-0.0361 0.10732,-0.10736 v -1.80805 c 0,-0.0711 -0.0362,-0.10496 -0.10732,-0.10496 h -6.08902 v -3.52977 h 5.17683 c 0.0708,0 0.10731,-0.0307 0.10731,-0.0957 v -1.71939 c 0,-0.0711 -0.0362,-0.10734 -0.10731,-0.10734 h -5.17683 v -3.40378 h 6.08902 c 0.0708,0 0.10732,-0.0365 0.10732,-0.10735 v -1.82437 c 0,-0.0709 -0.0362,-0.10736 -0.10732,-0.10736 z m 29.4093,0 c -0.0362,0 -0.065,0.0145 -0.089,0.0442 -0.0223,0.0234 -0.0315,0.0534 -0.0167,0.0887 l 3.18216,12.70298 c 0.0139,0.0532 0.0483,0.0793 0.10733,0.0793 h 1.60272 c 0.0532,0 0.0861,-0.0263 0.0978,-0.0793 0.39007,-1.47737 0.78112,-2.94733 1.17115,-4.40696 0.39003,-1.45965 0.7788,-2.93069 1.16879,-4.41397 l 2.34929,8.82093 c 0.0139,0.0532 0.0451,0.0793 0.0978,0.0793 h 1.60505 c 0.059,0 0.0934,-0.0263 0.10505,-0.0793 l 3.18218,-12.70298 c 0.0139,-0.0352 0.009,-0.0649 -0.0167,-0.0887 -0.0223,-0.0293 -0.0533,-0.0442 -0.089,-0.0442 h -2.03912 c -0.059,0 -0.0957,0.0262 -0.10732,0.0793 -0.31917,1.45966 -0.63739,2.90799 -0.95655,4.34399 -0.31917,1.436 -0.63738,2.8809 -0.95649,4.33464 l -2.37728,-8.6785 c -0.009,-0.0532 -0.0407,-0.0793 -0.0956,-0.0793 h -1.39275 c -0.059,0 -0.0957,0.0263 -0.10732,0.0793 -0.39593,1.45965 -0.79155,2.90797 -1.18747,4.34397 -0.39592,1.436 -0.78813,2.88091 -1.17815,4.33465 l -1.91538,-8.67862 c -0.0139,-0.0532 -0.046,-0.0793 -0.10516,-0.0793 z m 24.00618,0 c -0.0474,0 -0.0803,0.0145 -0.0978,0.0442 -0.0167,0.0298 -0.0167,0.0637 0,0.10496 0.63228,1.24689 1.26439,2.49171 1.8967,3.73273 0.63229,1.24098 1.26775,2.48582 1.90603,3.73274 v 5.19315 c 0,0.071 0.0315,0.10734 0.0978,0.10734 h 1.82433 c 0.0709,0 0.10732,-0.0361 0.10732,-0.10734 v -5.19316 l 3.81205,-7.46547 c 0.0167,-0.0416 0.0167,-0.0755 0,-0.10496 -0.0167,-0.0293 -0.0505,-0.0442 -0.0978,-0.0442 h -2.02964 c -0.0167,0 -0.0362,0.008 -0.0538,0.0257 -0.0167,0.0112 -0.0315,0.0257 -0.0451,0.0375 -0.43748,0.91597 -0.87043,1.82199 -1.30183,2.72024 -0.42528,0.89824 -0.85744,1.80425 -1.29477,2.72023 l -2.60494,-5.44047 c -0.0139,-0.0125 -0.0278,-0.0257 -0.0451,-0.0375 -0.0167,-0.0176 -0.0362,-0.0257 -0.0538,-0.0257 z m -62.30874,1.92234 h 2.92321 c 0.26595,0 0.51268,0.033 0.73724,0.0979 0.23027,0.065 0.43069,0.15703 0.60188,0.27531 0.19513,0.1478 0.34266,0.33642 0.44334,0.5669 0.10648,0.23048 0.15834,0.49308 0.15834,0.78854 0,0.52004 -0.17061,0.97025 -0.51326,1.34845 -0.34265,0.37823 -0.85661,0.56692 -1.54208,0.56692 h -2.80893 z m -10.52862,0.11674 h 2.68523 c 0.53775,0 0.97427,0.11134 1.3111,0.33597 0.52003,0.33683 0.78157,0.87229 0.78157,1.60507 0,0.49049 -0.16921,0.93385 -0.50627,1.3298 -0.33091,0.40775 -0.83681,0.61124 -1.51638,0.61124 H 448.258 Z m 68.49102,1.03583 c 0.0223,0.0769 0.0407,0.136 0.0538,0.17731 0.0167,0.0416 0.0315,0.0814 0.0451,0.11675 0.009,0.0298 0.0167,0.0626 0.0278,0.0979 0.009,0.0298 0.0278,0.0739 0.0451,0.133 0.0362,0.11214 0.0685,0.21674 0.0978,0.31728 0.0362,0.10049 0.0685,0.19261 0.0978,0.27531 0.059,0.18321 0.11452,0.36058 0.1678,0.53193 0.059,0.17138 0.11453,0.34419 0.16782,0.51558 0.0278,0.0828 0.059,0.16798 0.0889,0.2566 0.0315,0.0828 0.059,0.17146 0.0884,0.26597 0.0362,0.10049 0.0694,0.20501 0.10504,0.31727 0.0407,0.11231 0.0845,0.22943 0.126,0.34763 0.065,0.18321 0.13911,0.39805 0.22162,0.64625 0.0825,0.2423 0.17255,0.50829 0.27319,0.79786 0.009,0.0352 0.0278,0.0763 0.0451,0.1236 0.0223,0.0473 0.0407,0.0917 0.0538,0.133 h -3.4038 c 0.1299,-0.37226 0.23694,-0.67923 0.31963,-0.92151 0.0825,-0.24821 0.16334,-0.4778 0.24028,-0.69054 0.0767,-0.21273 0.14413,-0.41856 0.20323,-0.61359 0.065,-0.19502 0.12766,-0.38031 0.18649,-0.55756 0.0315,-0.0828 0.059,-0.16798 0.0889,-0.25666 0.0315,-0.0887 0.059,-0.18081 0.0883,-0.27531 0.0315,-0.0885 0.059,-0.17729 0.0889,-0.26594 0.0362,-0.0885 0.0664,-0.18406 0.0957,-0.28459 0.0139,-0.0293 0.0223,-0.0569 0.0278,-0.0863 0.006,-0.0298 0.0139,-0.0626 0.0278,-0.0979 0.0474,-0.14189 0.0984,-0.29647 0.15165,-0.46192 0.059,-0.16548 0.12154,-0.34623 0.18649,-0.54127 z"
       style="font-style:normal;font-variant:normal;font-weight:normal;font-stretch:normal;font-size:14.7905px;line-height:1.4;font-family:'Alte DIN 1451 Mittelschrift gepraegt';-inkscape-font-specification:'Alte DIN 1451 Mittelschrift gepraegt';text-align:center;text-anchor:middle;opacity:1;fill:#ffffff;fill-opacity:1;stroke-width:0.198437"
       id="path17656" />
    <g
       style="font-size:14.7905px;line-height:0;font-family:'Singapore Road Signs';-inkscape-font-specification:'Singapore Road Signs';text-align:center;text-anchor:middle;opacity:1;fill:#860000;fill-opacity:1;stroke-width:6.45213"
       inkscape:label="Layer 1"
       id="layer1-8"
       transform="matrix(0.08718024,0,0,0.08718024,-145.22047,195.49013)">
      <circle
         style="opacity:1;fill:#f00a0a;fill-opacity:1;fill-rule:nonzero;stroke:none;stroke-width:3622.55;stroke-linecap:round;stroke-linejoin:round;stroke-miterlimit:4;stroke-dasharray:none;stroke-opacity:1;paint-order:stroke fill markers"
         id="path815"
         cx="6380.9966"
         cy="-193.29752"
         r="350" />
      <circle
         cy="-193.29752"
         cx="6380.9966"
         id="circle817"
         style="opacity:1;fill:#ffffff;fill-opacity:1;fill-rule:nonzero;stroke:none;stroke-width:2587.55;stroke-linecap:round;stroke-linejoin:round;stroke-miterlimit:4;stroke-dasharray:none;stroke-opacity:1;paint-order:stroke fill markers"
         r="250" />
      <g
         aria-label="20 "
         style="font-style:normal;font-variant:normal;font-weight:bold;font-stretch:normal;font-size:414.864px;line-height:0;font-family:Giaothong1;-inkscape-font-specification:'Giaothong1 Bold';letter-spacing:0px;word-spacing:0px;fill:#000000;fill-opacity:1;stroke:none;stroke-width:24.7849"
         id="text874"
         transform="matrix(-1,0,0,1,1299.029,-383.45)">
        <g
           aria-label="90"
           transform="translate(2310.2259,387.54849)"
           style="font-style:normal;font-variant:normal;font-weight:bold;font-stretch:normal;font-size:414.864px;line-height:0;font-family:Giaothong1;-inkscape-font-specification:'Giaothong1 Bold';letter-spacing:0px;word-spacing:0px;fill:#000000;fill-opacity:1;stroke:none;stroke-width:53.5539"
           id="text844" />
      </g>
    </g>
    <g
       style="font-size:21.1643px;line-height:1.3;font-family:'Singapore Road Signs';-inkscape-font-specification:'Singapore Road Signs';text-align:center;text-anchor:middle;opacity:1;fill:#000000;fill-opacity:1;stroke-width:0.0934476"
       id="text18395"
       aria-label="100"
       transform="matrix(1.5926341,0,0,1.5926341,-553.75075,-154.51846)">
      <path
         sodipodi:nodetypes="sssssssssssssssssssssssssssscccccccc"
         d="m 610.11276,213.60276 c 0,2.01061 1.50267,3.23814 3.21698,3.23814 1.7143,0 3.21697,-1.22753 3.21697,-3.23814 v -8.84668 c 0,-2.01061 -1.50267,-3.23814 -3.21697,-3.23814 -1.71431,0 -3.21698,1.22753 -3.21698,3.23814 z m 2.15876,-8.84668 c 0,-0.61376 0.44445,-1.07938 1.05822,-1.07938 0.61376,0 1.05821,0.46562 1.05821,1.07938 v 8.84668 c 0,0.61377 -0.44445,1.07938 -1.05821,1.07938 -0.61377,0 -1.05822,-0.46561 -1.05822,-1.07938 z m -10.68775,8.84668 c 0,2.01061 1.50267,3.23814 3.21698,3.23814 1.7143,0 3.21697,-1.22753 3.21697,-3.23814 v -8.84668 c 0,-2.01061 -1.50267,-3.23814 -3.21697,-3.23814 -1.71431,0 -3.21698,1.22753 -3.21698,3.23814 z m 2.15876,-8.84668 c 0,-0.61376 0.44445,-1.07938 1.05822,-1.07938 0.61376,0 1.05821,0.46562 1.05821,1.07938 v 8.84668 c 0,0.61377 -0.44445,1.07938 -1.05821,1.07938 -0.61377,0 -1.05822,-0.46561 -1.05822,-1.07938 z m -6.77677,11.95783 h 2.15876 v -15.06898 h -2.15876 l -2.15876,1.58732 v 2.28575 l 2.15876,-1.58732 z"
         style="font-style:normal;font-variant:normal;font-weight:normal;font-stretch:normal;font-family:DINSchrift;-inkscape-font-specification:DINSchrift;fill:#000000;stroke-width:0.0934476"
         id="path18401" />
    </g>
    <g
       style="font-size:14.7905px;line-height:0;font-family:'Singapore Road Signs';-inkscape-font-specification:'Singapore Road Signs';text-align:center;text-anchor:middle;opacity:1;fill:#fff000;fill-opacity:1;stroke-width:6.45221"
       inkscape:label="Layer 1"
       id="layer1-7"
       transform="matrix(0.08717968,0,0,0.08717968,488.77841,183.34565)">
      <circle
         cy="-54"
         cx="351"
         id="circle817-6"
         style="opacity:1;fill:#0046aa;fill-opacity:1;fill-rule:nonzero;stroke:none;stroke-width:3622.58;stroke-linecap:round;stroke-linejoin:round;stroke-miterlimit:4;stroke-dasharray:none;stroke-opacity:1;paint-order:stroke fill markers"
         r="350" />
      <path
         id="rect984"
         style="font-style:normal;font-variant:normal;font-weight:bold;font-stretch:normal;font-size:414.864px;line-height:0;font-family:Giaothong1;-inkscape-font-specification:'Giaothong1 Bold';letter-spacing:0px;word-spacing:0px;opacity:1;fill:#ffffff;fill-opacity:1;fill-rule:nonzero;stroke:none;stroke-width:0.344279;stroke-linecap:round;stroke-linejoin:miter;stroke-miterlimit:10;stroke-dasharray:none;stroke-opacity:1;paint-order:stroke fill markers"
         d="m 851.18164,518.03906 c -16.32678,0 -29.4707,13.14393 -29.4707,29.47071 v 80.94921 c 0,16.32678 13.14392,29.47071 29.4707,29.47071 16.32678,0 29.4707,-13.14393 29.4707,-29.47071 v -80.94921 c 0,-16.32678 -13.14392,-29.47071 -29.4707,-29.47071 z m -69.94336,1.23828 -26.10937,69.75391 c -2.72781,7.40406 -3.70118,11.30112 -3.70118,28.44727 0,18.12042 0.7789,22.01697 4.67579,28.25195 5.26075,8.37828 14.22308,13.44336 24.93945,13.44336 10.91123,0 20.0688,-4.87023 25.13476,-13.44336 3.70197,-6.23498 4.48047,-10.13153 4.48047,-28.25195 0,-22.01726 -0.77798,-26.88814 -4.28515,-32.34375 -3.31232,-5.06591 -9.74347,-8.96289 -16.75782,-8.96289 -4.28653,0 -7.01308,0.77773 -8.37695,1.75195 l -0.39062,-0.38867 22.60156,-58.25782 z m 69.94336,18.74024 c 5.25853,0 9.49219,4.23365 9.49219,9.49219 v 80.94921 c 0,5.25853 -4.23366,9.49219 -9.49219,9.49219 -5.25853,0 -9.49219,-4.23366 -9.49219,-9.49219 v -80.94921 c 0,-5.25854 4.23366,-9.49219 9.49219,-9.49219 z m -70.13867,55.68945 c 5.0659,0 9.74219,3.89738 9.74219,9.9375 v 25.71875 c 0,6.04012 -4.67629,9.9375 -9.74219,9.9375 -5.0659,0 -9.74219,-3.89738 -9.74219,-9.9375 v -25.71875 c 0,-6.04012 4.67629,-9.9375 9.74219,-9.9375 z"
         transform="matrix(3.0349198,0,0,3.0349198,-2125.7104,-1839.7056)" />
    </g>
    <g
       aria-label="6"
       id="text19759"
       style="font-size:31.1478px;line-height:1.3;font-family:'Singapore Road Signs';-inkscape-font-specification:'Singapore Road Signs';text-align:center;text-anchor:middle;stroke-width:0.159861"
       transform="matrix(1.6550836,0,0,1.6550836,-321.31659,-238.56049)" />
  </g>
</svg>
