<?xml version="1.0" encoding="UTF-8"?>
<!DOCTYPE svg PUBLIC "-//W3C//DTD SVG 1.1//EN" "http://www.w3.org/Graphics/SVG/1.1/DTD/svg11.dtd">
<!-- Creator: CorelDRAW -->
<svg xmlns="http://www.w3.org/2000/svg" xml:space="preserve" width="32.2792mm" height="15.0813mm" version="1.1" style="shape-rendering:geometricPrecision; text-rendering:geometricPrecision; image-rendering:optimizeQuality; fill-rule:evenodd; clip-rule:evenodd"
viewBox="0 0 3227.92 1508.13"
 xmlns:xlink="http://www.w3.org/1999/xlink"
 xmlns:xodm="http://www.corel.com/coreldraw/odm/2003">
 <defs>
  <style type="text/css">
   <![CDATA[
    .str0 {stroke:black;stroke-width:52.92;stroke-miterlimit:22.9256}
    .fil1 {fill:black;fill-rule:nonzero}
    .fil0 {fill:white;fill-rule:nonzero}
   ]]>
  </style>
 </defs>
 <g id="Layer_x0020_1">
  <metadata id="CorelCorpID_0Corel-Layer"/>
  <g id="_2338390390112">
   <path class="fil0 str0" d="M3148.54 1481.67l-3069.16 0c-29.1,0 -52.92,-23.81 -52.92,-52.92l0 -1349.37c0,-29.1 23.81,-52.92 52.92,-52.92l3069.16 0.01c29.1,0 52.92,23.81 52.92,52.92l0 1349.38c0,29.09 -23.81,52.9 -52.92,52.9z"/>
   <path class="fil1" d="M138.1 1134.08c-20,-21.96 -33.26,-45 -39.78,-68.69 -6.74,-23.7 -10,-52.18 -10,-85.44l0 -433.04c0,-62.83 19.78,-115.66 59.35,-158.48 39.34,-43.05 90.65,-64.35 153.48,-64.35 56.52,0 105.43,20.22 146.73,60.43 41.53,40.44 62.18,88.7 62.18,145.22l0 450.22c0,25.22 -1.31,43.91 -3.48,56.09 -2.39,12.39 -6.09,24.13 -11.3,35l82.17 69.56 -69.35 83.48 -76.52 -62.61c-37.17,31.09 -83.26,46.52 -138.04,46.52 -28.92,0 -57.39,-6.73 -85,-20.65 -27.83,-13.69 -51.31,-31.52 -70.44,-53.26zm205.65 -186.52l42.18 32.39 0 -433.04c0,-28.05 -8.05,-51.53 -23.7,-70.66 -15.65,-19.13 -37.39,-28.69 -65,-28.69 -17.39,0 -32.61,4.35 -45.87,13.04 -13.04,8.7 -22.39,19.13 -28.04,30.87 -5.44,11.96 -8.7,21.09 -9.57,27.39 -0.65,6.52 -1.08,15.87 -1.08,28.05l0 433.04c0,15.87 1.08,29.13 3.04,40 2.17,10.65 7.39,21.3 15.65,31.74 8.26,10.43 17.83,18.7 28.7,24.78 10.87,6.31 24.56,9.35 41.09,9.35 9.34,0 19.78,-2.83 31.08,-8.26l-57.17 -46.52 68.69 -83.48z"/>
   <polygon id="_1" class="fil1" points="1017.02,1201.69 646.15,1201.69 646.15,331.69 770.49,331.69 770.49,1076.26 1017.02,1076.26 "/>
   <polygon id="_2" class="fil1" points="1105.49,1201.69 1105.49,1077.56 1229.62,1077.56 1229.62,1201.69 "/>
   <path id="_3" class="fil1" d="M1712.01 1201.69l-370.65 0 0 -114.57 231.09 -449.13c10.22,-20.87 15.22,-41.95 15.22,-63.69l0 -65c0,-17.39 -5.87,-32.18 -18.05,-44.57 -12.17,-12.17 -26.95,-18.48 -44.35,-18.48 -15.65,0 -29.78,5.44 -42.39,16.31 -12.39,10.87 -18.69,24.56 -18.69,41.09l0 77.17 -125.44 0 0 -62.61c0,-33.91 12.83,-74.78 38.48,-122.61 25.65,-47.61 77.17,-71.52 154.57,-71.52 48.69,0 91.08,18.7 126.73,56.09 35.66,37.39 53.48,80.43 53.48,129.13l0 79.13c0,18.26 -2.61,36.09 -7.39,53.48 -4.78,17.39 -11.95,35.21 -21.3,53.47l-196.09 382.18 224.78 0 0 124.13z"/>
   <polygon id="_4" class="fil1" points="1908.1,549.51 1798.54,549.51 1798.54,331.69 2170.49,331.69 2170.49,445.17 1966.58,1201.69 1834.84,1201.69 2046.15,447.56 1908.1,447.56 "/>
   <path id="_5" class="fil1" d="M2262.02 762.12c-5.87,-12.17 -9.57,-23.69 -10.87,-34.56 -1.09,-10.87 -1.74,-27.18 -1.74,-48.7l0 -177.82c0,-17.39 3.26,-34.35 9.78,-50.87 6.52,-16.52 21.74,-41.74 45.65,-75.44 23.7,-33.91 66.52,-50.65 128.48,-50.65 58.26,0 104.13,19.78 137.61,59.13 33.48,39.57 50.43,84.57 50.43,135l0 142.17c0,33.05 -7.17,66.96 -21.08,101.74l-164.35 439.57 -140.65 0 144.56 -366.3c-22.61,5.21 -40,7.82 -52.39,7.82 -26.74,0 -51.52,-7.82 -74.78,-23.04 -23.05,-15.22 -40,-34.57 -50.65,-58.05zm175.21 -315.87c-20.87,0 -36.52,7.18 -46.95,21.09 -10.22,14.13 -15.44,31.09 -15.44,50.87l0 142.17c0,21.53 5.65,39.35 16.74,53.48 11.31,13.92 27.83,21.09 49.35,21.09 19.13,0 33.26,-6.96 42.39,-20.43 9.13,-13.7 13.7,-31.74 13.7,-54.14l0 -142.17c0,-21.52 -4.57,-38.91 -13.7,-52.17 -9.13,-13.05 -24.56,-19.79 -46.09,-19.79z"/>
   <path id="_6" class="fil1" d="M2932.02 331.69c55.65,0 103.69,19.78 144.13,59.13 40.65,39.56 60.87,87.17 60.87,142.83l0 452.82c0,62.83 -19.35,114.35 -57.83,154.79 -38.69,40.21 -89.13,60.43 -151.08,60.43l-192.83 0 0 -870 196.74 0zm82.17 654.78l0 -452.82c0,-24.35 -8.91,-44.35 -26.74,-60.66 -17.82,-16.08 -39.34,-24.13 -64.34,-24.13l-65 0 0 636.96 61.08 0c63.26,0 95,-33.26 95,-99.35z"/>
  </g>
 </g>
</svg>
