<?xml version="1.0" encoding="UTF-8" standalone="no"?>
<svg
   sodipodi:docname="Vietnam_road_sign_I444a.svg"
   inkscape:version="1.2.2 (732a01da63, 2022-12-09)"
   id="svg848"
   version="1.1"
   viewBox="0 0 1701.0367 500"
   height="500mm"
   width="1701.0367mm"
   xmlns:inkscape="http://www.inkscape.org/namespaces/inkscape"
   xmlns:sodipodi="http://sodipodi.sourceforge.net/DTD/sodipodi-0.dtd"
   xmlns="http://www.w3.org/2000/svg"
   xmlns:svg="http://www.w3.org/2000/svg"
   xmlns:rdf="http://www.w3.org/1999/02/22-rdf-syntax-ns#"
   xmlns:cc="http://creativecommons.org/ns#"
   xmlns:dc="http://purl.org/dc/elements/1.1/">
  <defs
     id="defs842" />
  <sodipodi:namedview
     inkscape:document-rotation="0"
     inkscape:measure-end="0,0"
     inkscape:measure-start="0,0"
     showguides="true"
     fit-margin-bottom="0"
     fit-margin-right="0"
     fit-margin-left="0"
     fit-margin-top="0"
     inkscape:window-maximized="1"
     inkscape:window-y="-9"
     inkscape:window-x="-9"
     inkscape:window-height="991"
     inkscape:window-width="1920"
     inkscape:snap-global="false"
     showgrid="false"
     inkscape:current-layer="g72369"
     inkscape:document-units="mm"
     inkscape:cy="2730.0203"
     inkscape:cx="4396.4462"
     inkscape:zoom="0.13021881"
     inkscape:pageshadow="2"
     inkscape:pageopacity="0.0"
     borderopacity="1.0"
     bordercolor="#666666"
     pagecolor="#ffffff"
     id="base"
     inkscape:showpageshadow="2"
     inkscape:pagecheckerboard="0"
     inkscape:deskcolor="#d1d1d1" />
  <metadata
     id="metadata845">
    <rdf:RDF>
      <cc:Work
         rdf:about="">
        <dc:format>image/svg+xml</dc:format>
        <dc:type
           rdf:resource="http://purl.org/dc/dcmitype/StillImage" />
        <dc:title />
      </cc:Work>
    </rdf:RDF>
  </metadata>
  <g
     transform="translate(-530.52646,11.947886)"
     id="layer1"
     inkscape:groupmode="layer"
     inkscape:label="Layer 1">
    <path
       inkscape:connector-curvature="0"
       d=""
       style="opacity:1;fill:#d35f5f;fill-opacity:1;fill-rule:nonzero;stroke:none;stroke-width:3.92256;stroke-linecap:butt;stroke-linejoin:miter;stroke-miterlimit:4;stroke-dasharray:none;stroke-opacity:1;paint-order:stroke fill markers"
       id="path8376"
       r="150"
       cy="147"
       cx="150" />
    <g
       inkscape:groupmode="layer"
       transform="translate(-4496.0426,2396.6803)"
       id="text3577"
       style="font-style:normal;font-variant:normal;font-weight:bold;font-stretch:normal;font-size:299.854px;line-height:0;font-family:Giaothong1;-inkscape-font-specification:'Giaothong1 Bold';letter-spacing:0px;word-spacing:0px;fill:#ffcc00;fill-opacity:1;stroke:none;stroke-width:1.56174"
       aria-label="VỊNH">
      <g
         id="text3665"
         style="font-style:normal;font-variant:normal;font-weight:bold;font-stretch:normal;font-size:299.854px;line-height:0;font-family:Giaothong1;-inkscape-font-specification:'Giaothong1 Bold';letter-spacing:-2.78077px;word-spacing:0px;fill:#ffcc00;fill-opacity:1;stroke:none;stroke-width:2.43903"
         aria-label="VỊNH" />
    </g>
    <g
       inkscape:groupmode="layer"
       id="text2719"
       style="font-style:normal;font-variant:normal;font-weight:bold;font-stretch:normal;font-size:184.173px;line-height:0;font-family:Giaothong1;-inkscape-font-specification:'Giaothong1 Bold';letter-spacing:0px;word-spacing:0.486833px;fill:#ffffff;fill-opacity:1;stroke:none;stroke-width:0.959232"
       aria-label="CÔNG TRƯỜNG">
      <g
         inkscape:groupmode="layer"
         id="text2888"
         style="font-style:normal;font-variant:normal;font-weight:bold;font-stretch:normal;font-size:187.408px;line-height:0;font-family:Giaothong1;-inkscape-font-specification:'Giaothong1 Bold';letter-spacing:0.00264583px;word-spacing:0px;fill:#ffffff;fill-opacity:1;stroke:none;stroke-width:0.936293"
         aria-label="AHEAD">
        <g
           inkscape:groupmode="layer"
           id="text2903"
           style="font-style:normal;font-variant:normal;font-weight:bold;font-stretch:normal;font-size:184.173px;line-height:0;font-family:Giaothong1;-inkscape-font-specification:'Giaothong1 Bold';letter-spacing:0.00529167px;word-spacing:0px;fill:#ffffff;fill-opacity:1;stroke:none;stroke-width:0.898123"
           aria-label="WORKS">
          <path
             d="m 708.33916,-11.947699 1523.22404,-1.87e-4 V 488.05211 H 708.33916 L 530.52646,238.0523 Z"
             style="opacity:1;fill:#0046aa;fill-opacity:1;fill-rule:nonzero;stroke:none;stroke-width:1.27163;stroke-linecap:butt;stroke-linejoin:miter;stroke-miterlimit:10;stroke-dasharray:none;stroke-opacity:1;paint-order:stroke fill markers"
             id="rect1393"
             sodipodi:nodetypes="cccccc" />
          <path
             id="rect1395"
             style="opacity:1;fill:#ffffff;fill-opacity:1;fill-rule:nonzero;stroke:none;stroke-width:1.22924;stroke-linecap:butt;stroke-linejoin:miter;stroke-miterlimit:10;stroke-dasharray:none;stroke-opacity:1;paint-order:stroke fill markers"
             d="M 710.47731,-3.6148361 540.46021,238.0523 710.47731,479.72219 H 2223.2254 V -3.6148361 Z m 8.3265,8.33846 h 68.59 V 471.38374 h -68.59 L 554.2984,238.0523 Z m 547.16509,0 h 948.9299 V 471.38374 h -948.9299 z"
             sodipodi:nodetypes="ccccccccccccccccc" />
          <g
             id="g71683"
             transform="translate(-84.093397,-614.59523)" />
          <g
             id="g72369"
             transform="matrix(17.977683,0,0,17.977683,-27770.049,-15692.401)">
            <g
               id="use9360-2"
               style="fill:#ffffff;fill-opacity:1"
               transform="matrix(0.35277777,0,0,0.35277777,1617.3566,883.91132)">
              <path
                 d="m 1.632813,0.0117188 c -0.085938,0 -0.125,-0.0429688 -0.125,-0.1249998 V -14.90625 c 0,-0.08594 0.039062,-0.125 0.125,-0.125 h 5.738281 c 1.449219,0 2.566406,0.386719 3.34375,1.167969 0.769531,0.761718 1.15625,1.738281 1.15625,2.929687 0,0.652344 -0.148438,1.261719 -0.453125,1.816406 -0.273438,0.523438 -0.785156,0.976563 -1.539063,1.363282 0.691407,0.21875 1.230469,0.640625 1.613282,1.269531 0.195312,0.339844 0.351562,0.699219 0.457031,1.058594 0.105469,0.363281 0.160156,0.734375 0.160156,1.121093 0,1.3125 -0.421875,2.363282 -1.269531,3.148438 -0.835938,0.773437 -1.828125,1.1679688 -2.960938,1.1679688 H 1.632813 M 3.996094,-6.554688 v 4.210938 h 3.335937 c 0.773438,0 1.351563,-0.207031 1.734375,-0.628906 0.371094,-0.417969 0.554688,-0.910157 0.554688,-1.476563 0,-0.546875 -0.183594,-1.039062 -0.554688,-1.464844 -0.359375,-0.425781 -0.9375,-0.640625 -1.734375,-0.640625 H 3.996094 m 0,-6.238281 v 3.996094 H 7.125 c 0.773438,0 1.339844,-0.191406 1.703125,-0.578125 0.371094,-0.375 0.558594,-0.847656 0.558594,-1.414063 0,-0.558593 -0.1875,-1.019531 -0.558594,-1.402343 C 8.457031,-12.589844 7.886719,-12.792969 7.125,-12.792969 H 3.996094"
                 id="path72237" />
            </g>
            <g
               id="use9364-9"
               style="fill:#ffffff;fill-opacity:1"
               transform="matrix(0.35277777,0,0,0.35277777,1621.9082,883.91132)">
              <path
                 d="m 1.632813,0.0117188 c -0.085938,0 -0.125,-0.0429688 -0.125,-0.1249998 V -14.90625 c 0,-0.08594 0.039062,-0.125 0.125,-0.125 h 9.457031 c 0.08203,0 0.121094,0.03906 0.121094,0.125 v 2.125 c 0,0.08203 -0.03906,0.125 -0.121094,0.125 h -7.09375 v 3.964844 h 6.027344 c 0.08594,0 0.125,0.039062 0.125,0.121093 v 2.003907 c 0,0.074218 -0.03906,0.113281 -0.125,0.113281 H 3.996094 v 4.109375 h 7.09375 c 0.08203,0 0.121094,0.042969 0.121094,0.125 v 2.105469 c 0,0.082031 -0.03906,0.1249998 -0.121094,0.1249998 H 1.632813 m 1,-16.3749998 c -0.0625,0 -0.097657,-0.02734 -0.113282,-0.08203 -0.011718,-0.05078 0,-0.09766 0.039063,-0.136718 l 3.039062,-2.402344 h 1.390625 l 3.078125,2.402344 c 0.04687,0.03125 0.06641,0.07813 0.04687,0.136718 -0.01563,0.05078 -0.05859,0.08203 -0.121093,0.08203 h -1.73437 l -2.0625,-1.113282 c -0.300782,0.183594 -0.609375,0.371094 -0.917969,0.554688 -0.3125,0.1875 -0.617188,0.371094 -0.921875,0.558594 H 2.632813 m 5.914062,-1.507813 c -0.050781,0 -0.085937,-0.01563 -0.105469,-0.05469 -0.015625,-0.03906 -0.015625,-0.07813 0.00391,-0.128907 l 2.15625,-3.015625 c 0.02734,-0.04297 0.0625,-0.0625 0.105468,-0.0625 h 2.269532 c 0.05078,0 0.09375,0.01953 0.121093,0.07031 0.01953,0.04687 0.01563,0.09375 -0.02734,0.136719 l -2.847657,3.015625 c -0.0078,0.0039 -0.02344,0.01563 -0.04297,0.02344 -0.01953,0.01172 -0.03516,0.01563 -0.05078,0.01563 H 8.546875"
                 id="path72217" />
            </g>
            <g
               id="use9368-7"
               style="fill:#ffffff;fill-opacity:1"
               transform="matrix(0.35277777,0,0,0.35277777,1626.0802,883.91132)">
              <path
                 d="m 1.632813,0.0117188 c -0.085938,0 -0.125,-0.0429688 -0.125,-0.1249998 V -14.90625 c 0,-0.08594 0.039062,-0.125 0.125,-0.125 h 2.125 c 0.042968,0 0.074218,0.01953 0.101562,0.0625 l 6.507813,10.242187 V -14.90625 c 0,-0.08594 0.03906,-0.125 0.121093,-0.125 h 2.25 c 0.08594,0 0.125,0.03906 0.125,0.125 v 14.792969 c 0,0.082031 -0.03906,0.1249998 -0.125,0.1249998 H 10.625 c -0.04297,0 -0.07422,-0.0234376 -0.105469,-0.0625001 L 3.996094,-10.292969 v 10.179688 c 0,0.082031 -0.035156,0.1249998 -0.113281,0.1249998 h -2.25"
                 id="path72213" />
            </g>
            <g
               id="use9376-7"
               style="fill:#ffffff;fill-opacity:1"
               transform="matrix(0.35277777,0,0,0.35277777,1632.9941,883.91132)">
              <path
                 d="m 4.179688,0.0117188 c -0.082032,0 -0.121094,-0.0429688 -0.121094,-0.1249998 V -12.792969 H 0.125 c -0.0820312,0 -0.125,-0.03906 -0.125,-0.121094 v -1.992187 c 0,-0.08594 0.0429688,-0.125 0.125,-0.125 h 10.34375 c 0.08203,0 0.125,0.03906 0.125,0.125 v 1.992187 c 0,0.08203 -0.04297,0.121094 -0.125,0.121094 H 6.546875 v 12.679688 c 0,0.082031 -0.042969,0.1249998 -0.125,0.1249998 H 4.179688"
                 id="path72253" />
            </g>
            <g
               id="use9380-4"
               style="fill:#ffffff;fill-opacity:1"
               transform="matrix(0.35277777,0,0,0.35277777,1636.7446,883.91132)">
              <path
                 d="M 0.175781,0 C 0.128906,0 0.09375,-0.015625 0.0742188,-0.0507813 0.0507813,-0.0820313 0.046875,-0.125 0.0625,-0.164063 L 5.472656,-14.96875 c 0.00781,-0.05078 0.046875,-0.08203 0.101563,-0.08203 h 1.847656 c 0.023438,0 0.042969,0.0039 0.070313,0.02344 0.019531,0.01563 0.035156,0.03516 0.042968,0.05859 L 12.9375,-0.164063 C 12.9453,-0.125 12.9453,-0.0859375 12.92578,-0.0507813 12.90625,-0.0195313 12.875,0 12.832031,0 H 10.46875 C 10.41797,0 10.38281,-0.0273438 10.367188,-0.0820313 L 9.25,-3.34375 H 3.800781 c -0.191406,0.554687 -0.382812,1.097656 -0.574218,1.636719 -0.1875,0.53125 -0.378907,1.070312 -0.574219,1.6249997 C 2.648438,-0.0625 2.632813,-0.046875 2.605469,-0.0273438 2.585938,-0.0117188 2.558594,0 2.539063,0 H 0.175781 M 8.507813,-5.566406 C 8.496094,-5.609375 8.476563,-5.664063 8.449219,-5.71875 8.429688,-5.769531 8.410156,-5.824219 8.394531,-5.863281 8.28125,-6.199219 8.171875,-6.507813 8.074219,-6.796875 7.980469,-7.082031 7.894531,-7.328125 7.816406,-7.546875 7.769531,-7.679688 7.722656,-7.816406 7.675781,-7.949219 7.636719,-8.078125 7.589844,-8.203125 7.546875,-8.320313 7.515625,-8.429688 7.480469,-8.53125 7.445313,-8.636719 7.414063,-8.734375 7.375,-8.832031 7.339844,-8.929688 7.277344,-9.125 7.214844,-9.328125 7.148438,-9.527344 7.085938,-9.726563 7.019531,-9.933594 6.949219,-10.148438 6.917969,-10.242188 6.882813,-10.351563 6.839844,-10.46875 6.804688,-10.582031 6.761719,-10.707031 6.722656,-10.839844 6.699219,-10.90625 6.683594,-10.957031 6.675781,-11 c -0.011718,-0.03516 -0.023437,-0.07422 -0.039062,-0.113281 -0.00781,-0.03516 -0.023438,-0.07813 -0.042969,-0.128907 -0.015625,-0.04687 -0.039062,-0.113281 -0.070312,-0.207031 -0.070313,0.226563 -0.144532,0.433594 -0.210938,0.628906 -0.0625,0.191407 -0.125,0.371094 -0.179687,0.539063 -0.011719,0.03906 -0.019532,0.07422 -0.03125,0.113281 -0.00391,0.03125 -0.015625,0.06641 -0.03125,0.101563 -0.03125,0.113281 -0.066407,0.226562 -0.109375,0.332031 C 5.925781,-9.632813 5.890625,-9.527344 5.855469,-9.425781 5.824219,-9.316406 5.785156,-9.210938 5.75,-9.105469 5.71875,-9.003906 5.683594,-8.90625 5.648438,-8.804688 5.582031,-8.601563 5.507813,-8.382813 5.4375,-8.15625 5.363281,-7.929688 5.285156,-7.691406 5.191406,-7.445313 5.105469,-7.195313 5.011719,-6.933594 4.914063,-6.644531 4.820313,-6.359375 4.699219,-6 4.542969,-5.566406 H 8.507813 M 7.144531,-16.363281 c -0.011718,0 -0.03125,-0.0039 -0.050781,-0.01563 -0.023437,-0.01172 -0.03125,-0.01563 -0.042969,-0.02734 L 4.203125,-19.417969 C 4.160156,-19.460938 4.152344,-19.5 4.175781,-19.554688 c 0.019532,-0.04687 0.0625,-0.07031 0.117188,-0.07031 h 2.273437 c 0.042969,0 0.070313,0.01953 0.101563,0.0625 l 2.160156,3.011719 c 0.019531,0.04687 0.023438,0.08984 0.00391,0.128906 -0.015625,0.03906 -0.050781,0.05859 -0.109375,0.05859 H 7.144531"
                 id="path72201" />
            </g>
            <g
               id="use9384-7"
               style="fill:#ffffff;fill-opacity:1"
               transform="matrix(0.35277777,0,0,0.35277777,1641.4222,883.91132)">
              <path
                 d="m 1.238281,-14.90625 c 0,-0.08594 0.042969,-0.125 0.125,-0.125 h 2.25 c 0.074219,0 0.113282,0.03906 0.113282,0.125 v 9.539062 c 0,0.988282 0.273437,1.738282 0.828125,2.25 0.554687,0.515625 1.246093,0.773438 2.074218,0.773438 0.808594,0 1.496094,-0.257813 2.054688,-0.773438 0.558594,-0.515625 0.835937,-1.265625 0.835937,-2.25 v -9.539062 c 0,-0.08594 0.039063,-0.125 0.125,-0.125 h 2.238282 c 0.08203,0 0.125,0.03906 0.125,0.125 v 9.785156 c 0,1.578125 -0.527344,2.855469 -1.582032,3.820313 C 9.390625,-0.347656 8.125,0.132813 6.628906,0.132813 5.132813,0.132813 3.855469,-0.339844 2.808594,-1.300781 1.765625,-2.261719 1.238281,-3.535156 1.238281,-5.121094 v -9.785156"
                 id="path72205" />
            </g>
            <g
               id="use9392-5"
               style="fill:#ffffff;fill-opacity:1"
               transform="matrix(0.35277777,0,0,0.35277777,1647.9125,883.91132)">
              <path
                 d="m 4.179688,0.0117188 c -0.082032,0 -0.121094,-0.0429688 -0.121094,-0.1249998 V -12.792969 H 0.125 c -0.0820312,0 -0.125,-0.03906 -0.125,-0.121094 v -1.992187 c 0,-0.08594 0.0429688,-0.125 0.125,-0.125 h 10.34375 c 0.08203,0 0.125,0.03906 0.125,0.125 v 1.992187 c 0,0.08203 -0.04297,0.121094 -0.125,0.121094 H 6.546875 v 12.679688 c 0,0.082031 -0.042969,0.1249998 -0.125,0.1249998 H 4.179688"
                 id="path72257" />
            </g>
            <g
               id="use9396-3"
               style="fill:#ffffff;fill-opacity:1"
               transform="matrix(0.35277777,0,0,0.35277777,1651.6212,883.91132)">
              <path
                 d="m 9.746094,0.0117188 c -0.082031,0 -0.125,-0.0429688 -0.125,-0.1249998 v -6.339844 h -5.625 v 6.339844 c 0,0.082031 -0.042969,0.1249998 -0.125,0.1249998 H 1.632813 c -0.085938,0 -0.125,-0.0429688 -0.125,-0.1249998 V -14.90625 c 0,-0.08594 0.039062,-0.125 0.125,-0.125 h 2.238281 c 0.082031,0 0.125,0.03906 0.125,0.125 v 6.214844 h 5.625 v -6.214844 c 0,-0.08594 0.042969,-0.125 0.125,-0.125 h 2.242187 c 0.08203,0 0.121094,0.03906 0.121094,0.125 v 14.792969 c 0,0.082031 -0.03906,0.1249998 -0.121094,0.1249998 H 9.746094"
                 id="path72209" />
            </g>
            <g
               id="use9400-5"
               style="fill:#ffffff;fill-opacity:1"
               transform="matrix(0.35277777,0,0,0.35277777,1656.4227,883.91132)">
              <path
                 d="m 1.238281,-14.90625 c 0,-0.08594 0.042969,-0.125 0.125,-0.125 h 2.25 c 0.074219,0 0.113282,0.03906 0.113282,0.125 v 9.539062 c 0,0.988282 0.273437,1.738282 0.828125,2.25 0.554687,0.515625 1.246093,0.773438 2.074218,0.773438 0.808594,0 1.496094,-0.257813 2.054688,-0.773438 0.558594,-0.515625 0.835937,-1.265625 0.835937,-2.25 v -9.539062 c 0,-0.08594 0.039063,-0.125 0.125,-0.125 h 2.238282 c 0.08203,0 0.125,0.03906 0.125,0.125 v 9.785156 c 0,1.578125 -0.527344,2.855469 -1.582032,3.820313 C 9.390625,-0.347656 8.125,0.132813 6.628906,0.132813 5.132813,0.132813 3.855469,-0.339844 2.808594,-1.300781 1.765625,-2.261719 1.238281,-3.535156 1.238281,-5.121094 v -9.785156 m 5.25,-1.457031 c -0.285156,0 -0.511718,0 -0.6875,0 v -0.476563 c 0.074219,-0.433594 0.34375,-0.78125 0.808594,-1.0625 0.722656,-0.296875 1.050781,-0.660156 0.988281,-1.074219 -0.09375,-0.417968 -0.417968,-0.628906 -0.96875,-0.640625 -0.730468,0.01172 -1.117187,0.367188 -1.15625,1.066407 H 3.933594 c 0,-0.382813 0.066406,-0.703125 0.210937,-0.960938 0.140625,-0.253906 0.332032,-0.5 0.574219,-0.742187 0.472656,-0.457032 1.09375,-0.6875 1.859375,-0.703125 0.804688,0.0078 1.464844,0.238281 1.980469,0.679687 0.234375,0.234375 0.414062,0.460938 0.546875,0.683594 0.128906,0.214844 0.195312,0.496094 0.207031,0.835937 -0.042969,0.472657 -0.304687,0.886719 -0.792969,1.25 -0.414062,0.195313 -0.730468,0.355469 -0.953125,0.472657 l -0.121093,0.136718 -0.136719,0.203125 -0.019531,0.332032 c -0.246094,0 -0.511719,0 -0.800782,0"
                 id="path72233" />
            </g>
            <g
               id="use9404-5"
               style="fill:#ffffff;fill-opacity:1"
               transform="matrix(0.35277777,0,0,0.35277777,1661.1004,883.91132)">
              <path
                 d="M 4.574219,0.0117188 C 4.5,0.0117188 4.460938,-0.03125 4.460938,-0.113281 V -6.164063 C 3.714844,-7.613281 2.980469,-9.0625 2.242188,-10.511719 c -0.734375,-1.445312 -1.472657,-2.890625 -2.210938,-4.34375 -0.0195312,-0.04687 -0.0195312,-0.08984 0,-0.125 0.0195313,-0.03125 0.0546875,-0.05078 0.113281,-0.05078 H 2.5 c 0.019531,0 0.039063,0.0039 0.058594,0.02344 0.023437,0.01563 0.039062,0.03125 0.054687,0.04687 l 3.035157,6.339844 c 0.503906,-1.0625 1.011718,-2.121094 1.511718,-3.167969 0.496094,-1.042968 1,-2.101562 1.511719,-3.171875 0.011719,-0.0078 0.03125,-0.02344 0.050781,-0.04687 0.023438,-0.01172 0.042969,-0.02344 0.0625,-0.02344 h 2.367188 c 0.05078,0 0.08984,0.01563 0.113281,0.05078 0.01953,0.03125 0.01953,0.07422 0,0.125 l -4.441406,8.691406 v 6.050782 c 0,0.082031 -0.042969,0.1249998 -0.125,0.1249998 h -2.125"
                 id="path72197" />
            </g>
            <path
               id="path64364-2"
               style="opacity:1;fill:#0046aa;stroke-width:0.0786313;stroke-linejoin:bevel;paint-order:stroke markers fill;fill-opacity:1"
               d="m 1602.1197,874.72079 c -2.1031,1e-5 -3.808,1.70493 -3.808,3.80807 7e-4,1.70052 1.1293,3.19428 2.7648,3.66014 v 14.19775 c -2.8961,-0.3477 -5.3946,-2.12704 -6.9144,-4.6918 l 1.7686,-0.95659 -4.8461,-2.6345 v 5.25572 l 1.5234,-0.82401 c 1.9936,3.40172 5.4731,5.69384 9.5116,5.69384 4.0481,0 7.5344,-2.30297 9.5257,-5.71789 l 1.56,0.84806 v -5.25572 l -4.8461,2.62122 1.7338,0.9425 c -1.5182,2.5793 -4.0238,4.37019 -6.93,4.71917 v -14.19779 c 1.6354,-0.46585 2.7638,-1.95958 2.7648,-3.6601 0,-2.10315 -1.7049,-3.80809 -3.8081,-3.80807 z m 0,2.10876 c 0.9385,-1e-5 1.6994,0.7608 1.6994,1.69931 0,0.93853 -0.7608,1.69936 -1.6994,1.69935 -0.9385,-10e-6 -1.6993,-0.76084 -1.6993,-1.69935 0,-0.93849 0.7608,-1.69929 1.6993,-1.69931 z" />
            <g
               id="use11370-1"
               style="fill:#ffffff;fill-opacity:1"
               transform="matrix(0.35277777,0,0,0.35277777,1618.7481,892.76116)">
              <path
                 d="m 3.367188,0.0078125 c -0.054688,0 -0.089844,-0.0234375 -0.105469,-0.078125 L 0.164063,-12.4375 c -0.007813,-0.03516 -0.007813,-0.06641 0.015625,-0.09375 0.023437,-0.02344 0.054687,-0.03906 0.089843,-0.03906 h 1.984375 c 0.054688,0 0.089844,0.02734 0.101563,0.07813 l 1.867187,8.453125 c 0.378907,-1.417968 0.757813,-2.824218 1.148438,-4.222656 0.382812,-1.398437 0.765625,-2.804687 1.15625,-4.230469 0.00781,-0.05078 0.042969,-0.07813 0.101562,-0.07813 h 1.355469 c 0.050781,0 0.082031,0.02734 0.097656,0.07813 l 2.3125,8.453125 c 0.308594,-1.417968 0.621094,-2.824218 0.929688,-4.222656 0.3125,-1.398437 0.625,-2.804687 0.933594,-4.230469 0.0078,-0.05078 0.04297,-0.07813 0.105468,-0.07813 h 1.984375 c 0.03516,0 0.05859,0.01563 0.08594,0.03906 0.02344,0.02734 0.03125,0.05859 0.01953,0.09375 L 11.351563,-0.0703125 C 11.34375,-0.015625 11.308594,0.0078125 11.25,0.0078125 H 9.6875 c -0.054687,0 -0.082031,-0.0234375 -0.097656,-0.078125 L 7.304688,-8.660156 c -0.382813,1.445312 -0.761719,2.875 -1.140625,4.300781 -0.378907,1.421875 -0.761719,2.847656 -1.140625,4.2890625 -0.00781,0.0546875 -0.042969,0.078125 -0.09375,0.078125 h -1.5625"
                 id="path72161" />
            </g>
            <g
               id="use11372-0"
               style="fill:#ffffff;fill-opacity:1"
               transform="matrix(0.35277777,0,0,0.35277777,1623.9735,892.76116)">
              <path
                 d="m 5.84375,0.0429688 c -0.070312,0 -0.101562,-0.0351563 -0.101562,-0.1015626 V -0.542969 C 5.664063,-0.441406 5.566406,-0.351563 5.460938,-0.273438 5.355469,-0.195313 5.238281,-0.132813 5.121094,-0.0859375 4.941406,-0.0117188 4.734375,0.0429688 4.492188,0.0859375 4.257813,0.125 3.996094,0.148438 3.710938,0.148438 2.722656,0.125 1.96875,-0.148438 1.449219,-0.664063 v 0.007813 c -0.558594,-0.507813 -0.84375,-1.167969 -0.84375,-1.976563 0,-0.75 0.242187,-1.390625 0.722656,-1.90625 0.492188,-0.519531 1.210938,-0.78125 2.140625,-0.796875 H 5.742188 V -6.15625 C 5.75,-6.867188 5.207031,-7.210938 4.101563,-7.183594 c -0.199219,0 -0.378907,0.011719 -0.542969,0.027344 C 3.398438,-7.140625 3.25,-7.109375 3.117188,-7.0625 H 3.125 c -0.113281,0.058594 -0.214844,0.125 -0.3125,0.210937 -0.089844,0.082032 -0.167969,0.183594 -0.230469,0.300782 -0.039062,0.066406 -0.089843,0.078125 -0.15625,0.023437 l -1.347656,-1.0625 C 1.058594,-7.605469 1.042969,-7.625 1.035156,-7.652344 c -0.00391,-0.027344 0,-0.046875 0.019532,-0.074219 0.664062,-0.902343 1.652343,-1.34375 2.960937,-1.3125 0.542969,-0.00391 1.035156,0.042969 1.464844,0.148438 0.433594,0.101562 0.816406,0.265625 1.15625,0.492187 0.667969,0.46875 1.003906,1.25 1.011719,2.339844 v 6.0000002 c 0,0.0664063 -0.035157,0.1015626 -0.101563,0.1015626 H 5.84375 M 5.742188,-3.675781 H 3.789063 c -0.921875,0.023437 -1.390625,0.34375 -1.378907,0.957031 0,0.257812 0.113282,0.488281 0.351563,0.691406 0.242187,0.210938 0.625,0.316406 1.15625,0.316406 0.710937,0.00781 1.195312,-0.074218 1.46875,-0.25 h -0.00781 c 0.242188,-0.160156 0.363282,-0.550781 0.363282,-1.171875 v -0.542968"
                 id="path72241" />
            </g>
            <g
               id="use11376-3"
               style="fill:#ffffff;fill-opacity:1"
               transform="matrix(0.35277777,0,0,0.35277777,1626.9673,892.76116)">
              <path
                 d="m 1.285156,0.015625 c -0.066406,0 -0.101562,-0.03125 -0.101562,-0.1015625 V -7.398438 H 0.40625 c -0.070312,0 -0.105469,-0.035156 -0.105469,-0.101562 v -1.347656 c 0,-0.070313 0.035157,-0.105469 0.105469,-0.105469 h 0.777344 v -1.3125 l 1.785156,-1.90625 c 0.035156,-0.03516 0.074219,-0.04297 0.117188,-0.02734 0.042968,0.01953 0.066406,0.05078 0.066406,0.09766 v 3.148438 h 1.171875 c 0.070312,0 0.105469,0.035156 0.105469,0.105469 V -7.5 c 0,0.066406 -0.035157,0.101562 -0.105469,0.101562 H 3.152344 v 7.3125005 c 0,0.0703125 -0.035156,0.1015625 -0.105469,0.1015625 H 1.285156"
                 id="path72221" />
            </g>
            <g
               id="use11380-4"
               style="fill:#ffffff;fill-opacity:1"
               transform="matrix(0.35277777,0,0,0.35277777,1628.7012,892.76116)">
              <path
                 d="m 8.046875,-3.808594 c 0,0.070313 -0.035156,0.105469 -0.105469,0.105469 h -5.34375 c 0.019532,0.628906 0.199219,1.113281 0.542969,1.441406 0.382813,0.34375 0.859375,0.519531 1.445313,0.519531 0.6875,0 1.300781,-0.269531 1.84375,-0.8125 0.011718,-0.019531 0.03125,-0.027343 0.0625,-0.03125 0.027343,0 0.050781,0.00391 0.078125,0.023438 l 1.277343,1.085937 c 0.019532,0.019532 0.035157,0.039063 0.035157,0.070313 0,0.023437 -0.00781,0.050781 -0.027344,0.078125 C 7.40625,-0.8125 6.90625,-0.445313 6.347656,-0.21875 5.796875,0 5.214844,0.113281 4.609375,0.113281 c -0.921875,0 -1.8125,-0.292969 -2.667969,-0.890625 -0.871093,-0.59375 -1.3125,-1.816406 -1.3125,-3.660156 0,-1.734375 0.398438,-2.9375 1.203125,-3.609375 0.8125,-0.664063 1.652344,-1 2.511719,-1 0.988281,0 1.851563,0.339844 2.589844,1.027344 0.742187,0.691406 1.113281,1.609375 1.113281,2.761718 v 1.449219 M 6.078125,-5.351563 C 6.039063,-5.949219 5.863281,-6.40625 5.542969,-6.714844 c -0.316406,-0.3125 -0.71875,-0.46875 -1.199219,-0.46875 -0.503906,0 -0.914062,0.160156 -1.234375,0.484375 -0.148437,0.148438 -0.269531,0.335938 -0.355469,0.570313 -0.085937,0.230468 -0.136718,0.488281 -0.15625,0.777343 h 3.480469"
                 id="path72177" />
            </g>
            <g
               id="use11384-9"
               style="fill:#ffffff;fill-opacity:1"
               transform="matrix(0.35277777,0,0,0.35277777,1631.8198,892.76116)">
              <path
                 d="m 0.863281,0.0078125 c -0.058593,0 -0.09375,-0.0351563 -0.09375,-0.1015625 v -8.753906 c 0,-0.070313 0.027344,-0.105469 0.09375,-0.105469 h 1.769532 c 0.0625,0 0.09375,0.035156 0.09375,0.105469 v 0.707031 c 0.554687,-0.605469 1.289062,-0.90625 2.210937,-0.90625 0.660156,0 1.292969,0.230469 1.890625,0.691406 0.023438,0.015625 0.035156,0.039063 0.039063,0.066406 0,0.027344 -0.00391,0.054688 -0.019532,0.078125 L 5.578125,-6.691406 C 5.539063,-6.636719 5.492188,-6.628906 5.4375,-6.671875 5.066406,-6.949219 4.695313,-7.085938 4.332031,-7.085938 c -0.402343,0 -0.777343,0.136719 -1.113281,0.414063 -0.328125,0.273437 -0.492187,0.714844 -0.492187,1.320312 v 5.257813 c 0,0.0664062 -0.027344,0.1015625 -0.09375,0.1015625 H 0.863281"
                 id="path72165" />
            </g>
            <g
               id="use11388-4"
               style="fill:#ffffff;fill-opacity:1"
               transform="matrix(0.35277777,0,0,0.35277777,1634.2217,892.76116)">
              <path
                 d="m 8.167969,0.0078125 c -0.019531,0 -0.035156,-0.00390625 -0.058594,-0.0195313 -0.015625,-0.015625 -0.027344,-0.03125 -0.039062,-0.0585937 L 6.328125,-5.90625 c -0.292969,0.984375 -0.582031,1.957031 -0.875,2.921875 C 5.164063,-2.019531 4.867188,-1.050781 4.574219,-0.0703125 4.570313,-0.046875 4.558594,-0.03125 4.535156,-0.0117188 4.519531,0 4.496094,0.0078125 4.480469,0.0078125 H 2.925781 c -0.050781,0 -0.082031,-0.0195313 -0.09375,-0.0664063 L 0.0351563,-8.8125 C 0.0273438,-8.847656 0.0273438,-8.878906 0.0429688,-8.910156 0.0585938,-8.933594 0.0859375,-8.953125 0.121094,-8.953125 h 1.863281 c 0.058594,0 0.089844,0.027344 0.105469,0.078125 l 1.605469,5.855469 c 0.308593,-0.984375 0.621093,-1.960938 0.941406,-2.933594 0.3125,-0.964844 0.632812,-1.945313 0.957031,-2.929688 0,-0.042968 0.027344,-0.070312 0.085938,-0.070312 h 1.285156 c 0.054687,0 0.082031,0.023437 0.097656,0.070312 l 1.890625,5.871094 c 0.265625,-0.984375 0.535156,-1.960937 0.800781,-2.933594 0.265625,-0.964843 0.53125,-1.945312 0.804688,-2.929687 0.0078,-0.050781 0.04297,-0.078125 0.101562,-0.078125 h 1.867188 c 0.03516,0 0.05859,0.015625 0.07813,0.042969 0.01563,0.027343 0.01953,0.0625 0.0078,0.097656 L 9.816406,-0.0585938 C 9.808594,-0.015625 9.773438,0.0078125 9.71875,0.0078125 H 8.167969"
                 id="path72189" />
            </g>
            <g
               id="use11392-6"
               style="fill:#ffffff;fill-opacity:1"
               transform="matrix(0.35277777,0,0,0.35277777,1638.6886,892.76116)">
              <path
                 d="m 5.84375,0.0429688 c -0.070312,0 -0.101562,-0.0351563 -0.101562,-0.1015626 V -0.542969 C 5.664063,-0.441406 5.566406,-0.351563 5.460938,-0.273438 5.355469,-0.195313 5.238281,-0.132813 5.121094,-0.0859375 4.941406,-0.0117188 4.734375,0.0429688 4.492188,0.0859375 4.257813,0.125 3.996094,0.148438 3.710938,0.148438 2.722656,0.125 1.96875,-0.148438 1.449219,-0.664063 v 0.007813 c -0.558594,-0.507813 -0.84375,-1.167969 -0.84375,-1.976563 0,-0.75 0.242187,-1.390625 0.722656,-1.90625 0.492188,-0.519531 1.210938,-0.78125 2.140625,-0.796875 H 5.742188 V -6.15625 C 5.75,-6.867188 5.207031,-7.210938 4.101563,-7.183594 c -0.199219,0 -0.378907,0.011719 -0.542969,0.027344 C 3.398438,-7.140625 3.25,-7.109375 3.117188,-7.0625 H 3.125 c -0.113281,0.058594 -0.214844,0.125 -0.3125,0.210937 -0.089844,0.082032 -0.167969,0.183594 -0.230469,0.300782 -0.039062,0.066406 -0.089843,0.078125 -0.15625,0.023437 l -1.347656,-1.0625 C 1.058594,-7.605469 1.042969,-7.625 1.035156,-7.652344 c -0.00391,-0.027344 0,-0.046875 0.019532,-0.074219 0.664062,-0.902343 1.652343,-1.34375 2.960937,-1.3125 0.542969,-0.00391 1.035156,0.042969 1.464844,0.148438 0.433594,0.101562 0.816406,0.265625 1.15625,0.492187 0.667969,0.46875 1.003906,1.25 1.011719,2.339844 v 6.0000002 c 0,0.0664063 -0.035157,0.1015626 -0.101563,0.1015626 H 5.84375 M 5.742188,-3.675781 H 3.789063 c -0.921875,0.023437 -1.390625,0.34375 -1.378907,0.957031 0,0.257812 0.113282,0.488281 0.351563,0.691406 0.242187,0.210938 0.625,0.316406 1.15625,0.316406 0.710937,0.00781 1.195312,-0.074218 1.46875,-0.25 h -0.00781 c 0.242188,-0.160156 0.363282,-0.550781 0.363282,-1.171875 v -0.542968"
                 id="path72245" />
            </g>
            <g
               id="use11396-6"
               style="fill:#ffffff;fill-opacity:1"
               transform="matrix(0.35277777,0,0,0.35277777,1641.723,892.76116)">
              <path
                 d="M 3.140625,-0.429688 C 2.621094,-1.828125 2.097656,-3.222656 1.578125,-4.621094 1.0625,-6.015625 0.542969,-7.414063 0.015625,-8.8125 0.0078125,-8.847656 0.0078125,-8.878906 0.0273438,-8.910156 0.0429688,-8.933594 0.0703125,-8.953125 0.101563,-8.953125 h 1.859375 c 0.015625,0 0.03125,0.00391 0.054687,0.023437 0.015625,0.011719 0.03125,0.03125 0.039063,0.046875 l 2.003906,5.914063 c 0.332031,-0.992188 0.664062,-1.980469 0.996094,-2.960938 0.328125,-0.976562 0.660156,-1.960937 0.996093,-2.953125 0.00391,-0.015625 0.019532,-0.03125 0.039063,-0.046875 0.019531,-0.011718 0.039062,-0.023437 0.054687,-0.023437 h 1.867188 c 0.039062,0 0.070312,0.015625 0.085937,0.042969 0.015625,0.027343 0.019532,0.0625 0.00781,0.097656 L 4.34375,1.753906 C 4.097656,2.453125 3.742188,2.925781 3.28125,3.175781 V 3.167969 C 3.054688,3.296875 2.820313,3.398438 2.566406,3.457031 c -0.25,0.0625 -0.511718,0.089844 -0.789062,0.089844 H 1.191406 c -0.070312,0 -0.105468,-0.027344 -0.105468,-0.09375 V 1.785156 c 0,-0.066406 0.035156,-0.101562 0.105468,-0.101562 h 0.519532 c 0.472656,0 0.796875,-0.230469 0.964843,-0.691406 l 0.464844,-1.421876"
                 id="path72173" />
            </g>
            <g
               id="use11404-0"
               style="fill:#ffffff;fill-opacity:1"
               transform="matrix(0.35277777,0,0,0.35277777,1646.0609,892.76116)">
              <path
                 d="m 1.441406,-3.167969 c 0.015625,-0.023437 0.039063,-0.035156 0.070313,-0.035156 0.023437,0 0.050781,0.00781 0.078125,0.027344 0.453125,0.367187 0.972656,0.660156 1.566406,0.882812 0.585938,0.222656 1.210938,0.332031 1.867188,0.332031 0.734375,0 1.316406,-0.148437 1.746093,-0.457031 0.398438,-0.292969 0.601563,-0.679687 0.601563,-1.164062 0,-0.90625 -0.507813,-1.433594 -1.527344,-1.570313 H 5.85156 C 5.710938,-5.171875 5.574219,-5.1875 5.441406,-5.207031 5.3125,-5.222656 5.183594,-5.238281 5.054688,-5.257813 4.925781,-5.273438 4.796875,-5.292969 4.65625,-5.3125 4.523438,-5.332031 4.375,-5.351563 4.210938,-5.378906 3.671875,-5.453125 3.191406,-5.589844 2.765625,-5.789063 2.34375,-5.988281 1.988281,-6.25 1.699219,-6.578125 c -0.285156,-0.332031 -0.5,-0.695313 -0.644531,-1.09375 -0.144532,-0.390625 -0.21875,-0.824219 -0.21875,-1.289063 0,-1.089843 0.363281,-1.980468 1.089843,-2.667968 0.730469,-0.695313 1.742188,-1.042969 3.046875,-1.042969 0.382813,0 0.757813,0.03125 1.125,0.09766 0.363282,0.06641 0.71875,0.15625 1.0625,0.273438 0.339844,0.113281 0.667969,0.25 0.984375,0.410156 0.3125,0.15625 0.613282,0.332031 0.902344,0.523437 0.054688,0.03516 0.070313,0.08594 0.027344,0.144532 L 8.027344,-9.675781 C 7.988281,-9.625 7.941406,-9.617188 7.890625,-9.652344 7.441406,-9.933594 6.964844,-10.15625 6.457031,-10.328125 c -0.503906,-0.167969 -1.027343,-0.253906 -1.570312,-0.253906 -0.277344,0 -0.53125,0.02734 -0.769531,0.09766 -0.234375,0.06641 -0.449219,0.171875 -0.636719,0.324219 -0.371094,0.265625 -0.5625,0.683593 -0.5625,1.234375 0,0.316406 0.125,0.621093 0.378906,0.921875 0.125,0.140625 0.292969,0.257812 0.511719,0.351562 0.210937,0.09375 0.472656,0.164063 0.785156,0.210938 0.164063,0.027343 0.363281,0.054687 0.585938,0.089843 0.222656,0.03125 0.488281,0.066407 0.792968,0.101563 1.179688,0.140625 2.054688,0.578125 2.625,1.300781 0.570313,0.710938 0.855469,1.496094 0.855469,2.367188 0,1.160156 -0.40625,2.070312 -1.21875,2.726562 C 7.417969,-0.210938 6.34375,0.113281 5.007813,0.113281 3.125,0.113281 1.527344,-0.460938 0.207031,-1.613281 0.1875,-1.632813 0.171875,-1.652344 0.171875,-1.683594 c 0,-0.027344 0.007813,-0.050781 0.027344,-0.078125 l 1.242187,-1.40625"
                 id="path72193" />
            </g>
            <g
               id="use11408-8"
               style="fill:#ffffff;fill-opacity:1"
               transform="matrix(0.35277777,0,0,0.35277777,1649.641,892.76116)">
              <path
                 d="m 1.285156,0.015625 c -0.066406,0 -0.101562,-0.03125 -0.101562,-0.1015625 V -7.398438 H 0.40625 c -0.070312,0 -0.105469,-0.035156 -0.105469,-0.101562 v -1.347656 c 0,-0.070313 0.035157,-0.105469 0.105469,-0.105469 h 0.777344 v -1.3125 l 1.785156,-1.90625 c 0.035156,-0.03516 0.074219,-0.04297 0.117188,-0.02734 0.042968,0.01953 0.066406,0.05078 0.066406,0.09766 v 3.148438 h 1.171875 c 0.070312,0 0.105469,0.035156 0.105469,0.105469 V -7.5 c 0,0.066406 -0.035157,0.101562 -0.105469,0.101562 H 3.152344 v 7.3125005 c 0,0.0703125 -0.035156,0.1015625 -0.105469,0.1015625 H 1.285156"
                 id="path72225" />
            </g>
            <g
               id="use11412-3"
               style="fill:#ffffff;fill-opacity:1"
               transform="matrix(0.35277777,0,0,0.35277777,1651.3749,892.76116)">
              <path
                 d="m 5.84375,0.0429688 c -0.070312,0 -0.101562,-0.0351563 -0.101562,-0.1015626 V -0.542969 C 5.664063,-0.441406 5.566406,-0.351563 5.460938,-0.273438 5.355469,-0.195313 5.238281,-0.132813 5.121094,-0.0859375 4.941406,-0.0117188 4.734375,0.0429688 4.492188,0.0859375 4.257813,0.125 3.996094,0.148438 3.710938,0.148438 2.722656,0.125 1.96875,-0.148438 1.449219,-0.664063 v 0.007813 c -0.558594,-0.507813 -0.84375,-1.167969 -0.84375,-1.976563 0,-0.75 0.242187,-1.390625 0.722656,-1.90625 0.492188,-0.519531 1.210938,-0.78125 2.140625,-0.796875 H 5.742188 V -6.15625 C 5.75,-6.867188 5.207031,-7.210938 4.101563,-7.183594 c -0.199219,0 -0.378907,0.011719 -0.542969,0.027344 C 3.398438,-7.140625 3.25,-7.109375 3.117188,-7.0625 H 3.125 c -0.113281,0.058594 -0.214844,0.125 -0.3125,0.210937 -0.089844,0.082032 -0.167969,0.183594 -0.230469,0.300782 -0.039062,0.066406 -0.089843,0.078125 -0.15625,0.023437 l -1.347656,-1.0625 C 1.058594,-7.605469 1.042969,-7.625 1.035156,-7.652344 c -0.00391,-0.027344 0,-0.046875 0.019532,-0.074219 0.664062,-0.902343 1.652343,-1.34375 2.960937,-1.3125 0.542969,-0.00391 1.035156,0.042969 1.464844,0.148438 0.433594,0.101562 0.816406,0.265625 1.15625,0.492187 0.667969,0.46875 1.003906,1.25 1.011719,2.339844 v 6.0000002 c 0,0.0664063 -0.035157,0.1015626 -0.101563,0.1015626 H 5.84375 M 5.742188,-3.675781 H 3.789063 c -0.921875,0.023437 -1.390625,0.34375 -1.378907,0.957031 0,0.257812 0.113282,0.488281 0.351563,0.691406 0.242187,0.210938 0.625,0.316406 1.15625,0.316406 0.710937,0.00781 1.195312,-0.074218 1.46875,-0.25 h -0.00781 c 0.242188,-0.160156 0.363282,-0.550781 0.363282,-1.171875 v -0.542968"
                 id="path72249" />
            </g>
            <g
               id="use11416-3"
               style="fill:#ffffff;fill-opacity:1"
               transform="matrix(0.35277777,0,0,0.35277777,1654.3687,892.76116)">
              <path
                 d="m 1.285156,0.015625 c -0.066406,0 -0.101562,-0.03125 -0.101562,-0.1015625 V -7.398438 H 0.40625 c -0.070312,0 -0.105469,-0.035156 -0.105469,-0.101562 v -1.347656 c 0,-0.070313 0.035157,-0.105469 0.105469,-0.105469 h 0.777344 v -1.3125 l 1.785156,-1.90625 c 0.035156,-0.03516 0.074219,-0.04297 0.117188,-0.02734 0.042968,0.01953 0.066406,0.05078 0.066406,0.09766 v 3.148438 h 1.171875 c 0.070312,0 0.105469,0.035156 0.105469,0.105469 V -7.5 c 0,0.066406 -0.035157,0.101562 -0.105469,0.101562 H 3.152344 v 7.3125005 c 0,0.0703125 -0.035156,0.1015625 -0.105469,0.1015625 H 1.285156"
                 id="path72229" />
            </g>
            <g
               id="use11420-6"
               style="fill:#ffffff;fill-opacity:1"
               transform="matrix(0.35277777,0,0,0.35277777,1656.1387,892.76116)">
              <path
                 d="m 1.234375,0.0078125 c -0.070312,0 -0.101562,-0.0351563 -0.101562,-0.1015625 v -8.753906 c 0,-0.070313 0.03125,-0.105469 0.101562,-0.105469 h 1.761719 c 0.058594,0 0.09375,0.035156 0.09375,0.105469 v 8.753906 c 0,0.0664062 -0.03125,0.1015625 -0.09375,0.1015625 H 1.234375 m 0,-10.5234375 c -0.070312,0 -0.101562,-0.03516 -0.101562,-0.101563 v -1.761718 c 0,-0.07031 0.03125,-0.105469 0.101562,-0.105469 h 1.761719 c 0.058594,0 0.09375,0.03516 0.09375,0.105469 v 1.761718 c 0,0.06641 -0.03125,0.101563 -0.09375,0.101563 H 1.234375"
                 id="path72169" />
            </g>
            <g
               id="use11424-1"
               style="fill:#ffffff;fill-opacity:1"
               transform="matrix(0.35277777,0,0,0.35277777,1657.6138,892.76116)">
              <path
                 d="m 0.671875,-4.480469 c 0,-0.9375 0.078125,-1.648437 0.234375,-2.132812 0.148438,-0.484375 0.398438,-0.910157 0.742188,-1.285157 0.242187,-0.257812 0.578125,-0.515625 1.019531,-0.769531 0.433594,-0.25 1.007812,-0.378906 1.71875,-0.378906 0.699219,0 1.269531,0.125 1.699219,0.378906 0.226562,0.125 0.417968,0.25 0.589843,0.378906 0.171875,0.128907 0.316407,0.257813 0.445313,0.390625 0.335937,0.371094 0.589844,0.800782 0.742187,1.285157 0.148438,0.492187 0.226563,1.203125 0.226563,2.132812 0,0.953125 -0.074219,1.675781 -0.226563,2.160156 -0.152343,0.46875 -0.398437,0.894532 -0.742187,1.285157 C 6.863281,-0.757813 6.519531,-0.5 6.085938,-0.25 5.65625,-0.0078125 5.089844,0.113281 4.386719,0.113281 3.675781,0.113281 3.109375,-0.0078125 2.667969,-0.25 2.472656,-0.363281 2.289063,-0.492188 2.109375,-0.628906 1.9375,-0.769531 1.78125,-0.902344 1.648438,-1.035156 1.300781,-1.421875 1.054688,-1.847656 0.90625,-2.320313 0.75,-2.792969 0.671875,-3.511719 0.671875,-4.480469 m 5.457031,0.015625 c 0,-0.601562 -0.03125,-1.039062 -0.09375,-1.308594 C 5.976563,-6.019531 5.871094,-6.257813 5.714844,-6.484375 5.566406,-6.675781 5.382813,-6.828125 5.15625,-6.933594 4.9375,-7.035156 4.679688,-7.085938 4.386719,-7.085938 c -0.609375,0 -1.054688,0.195313 -1.332031,0.601563 -0.078125,0.113281 -0.144532,0.230469 -0.203125,0.34375 -0.050782,0.109375 -0.09375,0.230469 -0.125,0.367187 -0.054688,0.246094 -0.085938,0.675782 -0.085938,1.292969 0,0.3125 0.00391,0.578125 0.023438,0.804688 0.011718,0.222656 0.035156,0.398437 0.0625,0.535156 0.054687,0.246094 0.160156,0.476562 0.328125,0.699219 0.269531,0.394531 0.714843,0.59375 1.332031,0.59375 0.585937,0 1.027344,-0.199219 1.328125,-0.59375 0.148437,-0.226563 0.253906,-0.460938 0.320312,-0.699219 0.058594,-0.28125 0.09375,-0.722656 0.09375,-1.324219"
                 id="path72181" />
            </g>
            <g
               id="use11428-5"
               style="fill:#ffffff;fill-opacity:1"
               transform="matrix(0.35277777,0,0,0.35277777,1660.7323,892.76116)">
              <path
                 d="m 1.207031,0.0078125 c -0.066406,0 -0.101562,-0.0351563 -0.101562,-0.1015625 v -8.753906 c 0,-0.070313 0.035156,-0.105469 0.101562,-0.105469 H 2.96875 c 0.070313,0 0.105469,0.035156 0.105469,0.105469 v 0.707031 c 0.550781,-0.605469 1.285156,-0.90625 2.210937,-0.90625 0.351563,0 0.699219,0.066406 1.035157,0.199219 0.332031,0.128906 0.664062,0.328125 1,0.59375 0.65625,0.535156 0.984375,1.3125 0.984375,2.339843 v 5.820313 c 0,0.0664062 -0.035157,0.1015625 -0.105469,0.1015625 H 6.441406 c -0.070312,0 -0.105468,-0.0351563 -0.105468,-0.1015625 v -5.214844 c 0,-0.570312 -0.152344,-1.007812 -0.457032,-1.3125 -0.320312,-0.3125 -0.707031,-0.464844 -1.15625,-0.464844 -0.484375,0 -0.882812,0.152344 -1.191406,0.464844 -0.300781,0.300781 -0.457031,0.742188 -0.457031,1.3125 v 5.214844 c 0,0.0664062 -0.035156,0.1015625 -0.105469,0.1015625 H 1.207031"
                 id="path72185" />
            </g>
          </g>
        </g>
      </g>
    </g>
  </g>
</svg>
