<?xml version="1.0" encoding="UTF-8" standalone="no"?>
<svg
   xmlns:dc="http://purl.org/dc/elements/1.1/"
   xmlns:cc="http://creativecommons.org/ns#"
   xmlns:rdf="http://www.w3.org/1999/02/22-rdf-syntax-ns#"
   xmlns:svg="http://www.w3.org/2000/svg"
   xmlns="http://www.w3.org/2000/svg"
   xmlns:sodipodi="http://sodipodi.sourceforge.net/DTD/sodipodi-0.dtd"
   xmlns:inkscape="http://www.inkscape.org/namespaces/inkscape"
   sodipodi:docname="Vietnam_road_sign_I445d.svg"
   inkscape:version="1.0 (4035a4fb49, 2020-05-01)"
   id="svg848"
   version="1.1"
   viewBox="0 0 1320.6937 500"
   height="500mm"
   width="1320.6937mm">
  <defs
     id="defs842" />
  <sodipodi:namedview
     inkscape:document-rotation="0"
     inkscape:measure-end="0,0"
     inkscape:measure-start="0,0"
     showguides="true"
     fit-margin-bottom="0"
     fit-margin-right="0"
     fit-margin-left="0"
     fit-margin-top="0"
     inkscape:window-maximized="1"
     inkscape:window-y="-9"
     inkscape:window-x="-9"
     inkscape:window-height="1001"
     inkscape:window-width="1920"
     inkscape:snap-global="false"
     showgrid="false"
     inkscape:current-layer="text2888"
     inkscape:document-units="mm"
     inkscape:cy="488.6269"
     inkscape:cx="3181.8489"
     inkscape:zoom="0.092078604"
     inkscape:pageshadow="2"
     inkscape:pageopacity="0.0"
     borderopacity="1.0"
     bordercolor="#666666"
     pagecolor="#ffffff"
     id="base" />
  <metadata
     id="metadata845">
    <rdf:RDF>
      <cc:Work
         rdf:about="">
        <dc:format>image/svg+xml</dc:format>
        <dc:type
           rdf:resource="http://purl.org/dc/dcmitype/StillImage" />
        <dc:title></dc:title>
      </cc:Work>
    </rdf:RDF>
  </metadata>
  <g
     transform="translate(-1098.5453,606.31145)"
     id="layer1"
     inkscape:groupmode="layer"
     inkscape:label="Layer 1">
    <path
       inkscape:connector-curvature="0"
       d=""
       style="opacity:1;fill:#d35f5f;fill-opacity:1;fill-rule:nonzero;stroke:none;stroke-width:3.92256;stroke-linecap:butt;stroke-linejoin:miter;stroke-miterlimit:4;stroke-dasharray:none;stroke-opacity:1;paint-order:stroke fill markers"
       id="path8376"
       r="150"
       cy="147"
       cx="150" />
    <g
       inkscape:groupmode="layer"
       transform="translate(-4496.0426,2396.6803)"
       id="text3577"
       style="font-style:normal;font-variant:normal;font-weight:bold;font-stretch:normal;font-size:299.854px;line-height:0;font-family:Giaothong1;-inkscape-font-specification:'Giaothong1 Bold';letter-spacing:0px;word-spacing:0px;fill:#ffcc00;fill-opacity:1;stroke:none;stroke-width:1.56174"
       aria-label="VỊNH">
      <g
         id="text3665"
         style="font-style:normal;font-variant:normal;font-weight:bold;font-stretch:normal;font-size:299.854px;line-height:0;font-family:Giaothong1;-inkscape-font-specification:'Giaothong1 Bold';letter-spacing:-2.78077px;word-spacing:0px;fill:#ffcc00;fill-opacity:1;stroke:none;stroke-width:2.43903"
         aria-label="VỊNH" />
    </g>
    <g
       inkscape:groupmode="layer"
       id="text2719"
       style="font-style:normal;font-variant:normal;font-weight:bold;font-stretch:normal;font-size:184.173px;line-height:0;font-family:Giaothong1;-inkscape-font-specification:'Giaothong1 Bold';letter-spacing:0px;word-spacing:0.486833px;fill:#ffffff;fill-opacity:1;stroke:none;stroke-width:0.959232"
       aria-label="CÔNG TRƯỜNG">
      <g
         inkscape:groupmode="layer"
         id="text2888"
         style="font-style:normal;font-variant:normal;font-weight:bold;font-stretch:normal;font-size:187.408px;line-height:0;font-family:Giaothong1;-inkscape-font-specification:'Giaothong1 Bold';letter-spacing:0.00264583px;word-spacing:0px;fill:#ffffff;fill-opacity:1;stroke:none;stroke-width:0.936293"
         aria-label="AHEAD">
        <g
           inkscape:groupmode="layer"
           id="text2903"
           style="font-style:normal;font-variant:normal;font-weight:bold;font-stretch:normal;font-size:184.173px;line-height:0;font-family:Giaothong1;-inkscape-font-specification:'Giaothong1 Bold';letter-spacing:0.00529167px;word-spacing:0px;fill:#ffffff;fill-opacity:1;stroke:none;stroke-width:0.898123"
           aria-label="WORKS">
          <path
             id="rect7863"
             style="opacity:1;fill:#0046aa;fill-opacity:1;fill-rule:nonzero;stroke:none;stroke-width:4.58494;stroke-linecap:butt;stroke-linejoin:miter;stroke-miterlimit:10;stroke-dasharray:none;stroke-opacity:1;paint-order:stroke fill markers"
             d="M 2419.239,-606.31145 H 1098.5453 v 499.99999 H 2419.239 Z"
             sodipodi:nodetypes="ccccc" />
          <path
             d="m 1104.6412,-600.22823 v 488.37222 H 2413.924 v -488.37222 z m 9.0559,9.05805 h 35.724 v 470.25672 h -35.724 z m 513.3416,0 h 777.8288 v 470.25672 l -777.8288,5.4e-4 z"
             style="opacity:1;fill:#ffffff;fill-opacity:1;fill-rule:nonzero;stroke:none;stroke-width:4.54184;stroke-linecap:butt;stroke-linejoin:miter;stroke-miterlimit:10;stroke-dasharray:none;stroke-opacity:1;paint-order:stroke fill markers"
             id="path7865"
             sodipodi:nodetypes="ccccccccccccccc" />
        </g>
        <path
           d="m 1519.4801,-441.1936 -84.2578,46.29882 -34.2218,-32.78317 -103.2372,32.78317 -21.8553,-42.27322 -89.7221,31.34555 v 60.96502 l 89.7221,-31.34556 21.8553,42.27322 103.2372,-32.78335 34.2218,32.78335 84.2578,-46.29899 69.3047,35.37133 v -60.96502 z m 0,90.87189 -84.2578,46.29899 -34.2218,-32.78335 -103.2372,32.78335 -21.8553,-42.2725 -89.7221,31.34466 v 31.05796 l 89.7221,-31.34556 21.8553,42.2734 103.2372,-32.78334 34.2218,32.78334 84.2578,-46.29899 69.3047,35.37115 v -31.05796 z"
           style="opacity:1;fill:#0046aa;fill-opacity:1;fill-rule:nonzero;stroke:none;stroke-width:70;stroke-linecap:butt;stroke-linejoin:miter;stroke-miterlimit:4;stroke-dasharray:none;stroke-opacity:1;paint-order:stroke fill markers"
           id="rect5297" />
        <path
           d="m 1920.0916,-229.69952 q -0.737,0 -0.737,-0.80167 v -39.10465 q -7.206,-14.08023 -14.3473,-28.09395 -7.1395,-14.01355 -14.279,-28.09377 -0.1977,-0.46734 0,-0.80167 0.1977,-0.33433 0.7369,-0.33433 h 15.2155 q 0.1978,0 0.3955,0.20132 0.1977,0.12582 0.3415,0.26602 l 19.6175,40.97312 q 4.9394,-10.34349 9.744,-20.48656 4.8711,-10.14325 9.8088,-20.48656 0.1797,-0.12582 0.3415,-0.26602 0.1977,-0.20132 0.3954,-0.20132 h 15.282 q 0.5393,0 0.737,0.33433 0.1977,0.33433 0,0.80167 l -28.6947,56.18772 v 39.10465 q 0,0.80167 -0.7909,0.80167 z"
           style="font-style:normal;font-variant:normal;font-weight:normal;font-stretch:normal;font-size:21.5526px;line-height:1.3;font-family:Giaothong2;-inkscape-font-specification:Giaothong2;text-align:center;text-anchor:middle;opacity:1;stroke-width:0.264583"
           id="path8675" />
        <path
           d="m 1974.2095,-229.69952 q -0.7908,0 -0.7908,-0.80167 v -95.62616 q 0,-0.79987 0.7908,-0.79987 h 61.1263 q 0.8088,0 0.8088,0.79987 v 13.7468 q 0,0.79987 -0.8088,0.79987 h -45.8443 v 25.62478 h 38.9708 q 0.8089,0 0.8089,0.79987 V -272.21 q 0,0.73336 -0.8089,0.73336 h -38.9708 v 26.5591 h 45.8443 q 0.8088,0 0.8088,0.80167 v 13.61325 q 0,0.80166 -0.8088,0.80166 z m 6.4745,-105.83592 q -0.5932,0 -0.737,-0.53385 -0.1797,-0.53384 0.2697,-0.86817 l 19.6192,-15.5484 h 9.0071 l 19.8871,15.5484 q 0.4674,0.33433 0.2696,0.86817 -0.1797,0.53385 -0.7369,0.53385 h -11.2108 l -13.3461,-7.2071 q -2.9371,1.80177 -5.9388,3.60355 -3.0036,1.80177 -5.9407,3.60355 z m 38.2356,-9.74278 q -0.5393,0 -0.737,-0.33433 -0.1797,-0.40083 0,-0.86817 l 13.9465,-19.48555 q 0.2696,-0.40084 0.6651,-0.40084 h 14.6798 q 0.5393,0 0.737,0.46734 0.2696,0.46734 -0.1798,0.86818 l -18.4167,19.48555 q 0,0.0719 -0.2697,0.19952 -0.1977,0.0719 -0.3235,0.0719 z"
           style="font-style:normal;font-variant:normal;font-weight:normal;font-stretch:normal;font-size:21.5526px;line-height:1.3;font-family:Giaothong2;-inkscape-font-specification:Giaothong2;text-align:center;text-anchor:middle;opacity:1;stroke-width:0.264583"
           id="path8677" />
        <path
           d="m 2047.749,-326.12645 q 0,-0.79987 0.8089,-0.79987 h 14.5469 q 0.7369,0 0.7369,0.79987 v 61.65991 q 0,9.6094 5.3385,14.54739 5.4049,5.00485 13.4126,5.00485 7.8747,0 13.2797,-5.00485 5.4049,-5.00485 5.4049,-14.54739 v -61.65991 q 0,-0.79987 0.8089,-0.79987 h 14.4803 q 0.7909,0 0.7909,0.79987 v 63.26145 q 0,15.34815 -10.2096,24.69063 -10.0765,9.27562 -24.5569,9.27562 -14.5468,0 -24.6899,-9.27562 -10.1431,-9.34248 -10.1431,-24.69063 z"
           style="font-style:normal;font-variant:normal;font-weight:normal;font-stretch:normal;font-size:21.5526px;line-height:1.3;font-family:Giaothong2;-inkscape-font-specification:Giaothong2;text-align:center;text-anchor:middle;opacity:1;stroke-width:0.264583"
           id="path8679" />
        <g
           transform="matrix(6.3410417,0,0,6.3410417,225.00427,-2778.7762)"
           aria-label="NỀN ĐƯỜNG "
           id="text8654"
           style="font-size:21.3031px;line-height:1.3;font-family:'Singapore Road Signs';-inkscape-font-specification:'Singapore Road Signs';text-align:center;letter-spacing:-0.135px;text-anchor:middle;opacity:1;stroke-width:0.0417255">
          <path
             d="m 228.13308,376.48135 q -0.12482,0 -0.12482,-0.12482 V 361.4506 q 0,-0.12483 0.12482,-0.12483 h 2.14279 q 0.0624,0 0.10402,0.0624 l 6.5532,10.31868 V 361.4506 q 0,-0.12483 0.12482,-0.12483 h 2.26762 q 0.12482,0 0.12482,0.12483 v 14.90593 q 0,0.12482 -0.12482,0.12482 h -2.13239 q -0.0624,0 -0.10402,-0.0624 l -6.574,-10.31869 v 10.25628 q 0,0.12482 -0.11443,0.12482 z"
             style="font-style:normal;font-variant:normal;font-weight:normal;font-stretch:normal;font-family:Giaothong2;-inkscape-font-specification:Giaothong2;text-align:start;letter-spacing:-0.135px;text-anchor:start;stroke-width:0.0417255"
             id="path8658" />
          <path
             d="m 242.56074,376.48135 q -0.12482,0 -0.12482,-0.12482 V 361.4506 q 0,-0.12483 0.12482,-0.12483 h 9.52815 q 0.12482,0 0.12482,0.12483 v 2.14279 q 0,0.12482 -0.12482,0.12482 h -7.14611 v 3.99433 h 6.07471 q 0.12483,0 0.12483,0.12483 v 2.01797 q 0,0.11442 -0.12483,0.11442 h -6.07471 v 4.13995 h 7.14611 q 0.12482,0 0.12482,0.12483 v 2.12199 q 0,0.12482 -0.12482,0.12482 z m 1.00899,-16.49742 q -0.0936,0 -0.11442,-0.0832 -0.0208,-0.0832 0.0416,-0.13522 l 3.05816,-2.42365 h 1.40425 l 3.09977,2.42365 q 0.0728,0.052 0.0416,0.13522 -0.0208,0.0832 -0.11442,0.0832 h -1.74752 l -2.08038,-1.12341 q -0.45769,0.28085 -0.92577,0.56171 -0.46809,0.28085 -0.92577,0.5617 z m 7.29173,-1.51868 q -0.0208,0 -0.052,-0.0104 -0.0312,-0.0208 -0.0416,-0.0312 l -2.87093,-3.03735 q -0.0624,-0.0624 -0.0312,-0.13523 0.0416,-0.0728 0.12482,-0.0728 h 2.28842 q 0.0624,0 0.10402,0.0624 l 2.174,3.03736 q 0.0312,0.0728 0,0.13522 -0.0208,0.052 -0.10402,0.052 z"
             style="font-style:normal;font-variant:normal;font-weight:normal;font-stretch:normal;font-family:Giaothong2;-inkscape-font-specification:Giaothong2;text-align:start;letter-spacing:-0.135px;text-anchor:start;stroke-width:0.0417255"
             id="path8660" />
          <path
             d="m 254.28392,376.48135 q -0.12483,0 -0.12483,-0.12482 V 361.4506 q 0,-0.12483 0.12483,-0.12483 h 2.14279 q 0.0624,0 0.10402,0.0624 l 6.5532,10.31868 V 361.4506 q 0,-0.12483 0.12482,-0.12483 h 2.26762 q 0.12482,0 0.12482,0.12483 v 14.90593 q 0,0.12482 -0.12482,0.12482 h -2.13239 q -0.0624,0 -0.10402,-0.0624 l -6.57401,-10.31869 v 10.25628 q 0,0.12482 -0.11442,0.12482 z"
             style="font-style:normal;font-variant:normal;font-weight:normal;font-stretch:normal;font-family:Giaothong2;-inkscape-font-specification:Giaothong2;text-align:start;letter-spacing:-0.135px;text-anchor:start;stroke-width:0.0417255"
             id="path8662" />
          <path
             d="m 273.68392,376.48135 q -0.11442,0 -0.11442,-0.12482 v -6.40758 h -1.0922 q -0.11442,0 -0.11442,-0.11442 v -2.14279 q 0,-0.12482 0.11442,-0.12482 h 1.0922 v -6.11632 q 0,-0.12483 0.11442,-0.12483 h 5.22175 q 3.11017,0 4.64966,2.56927 0.28085,0.4993 0.45768,0.94658 0.17683,0.44728 0.22884,0.87376 0.12482,0.83215 0.12482,3.19338 0,1.26903 -0.0416,2.12199 -0.0416,0.84256 -0.12483,1.26903 -0.0832,0.43688 -0.26004,0.85296 -0.16643,0.40567 -0.42648,0.81135 v -0.0104 q -0.69693,1.07139 -1.87234,1.79953 -1.21703,0.72813 -2.88133,0.72813 z m 2.39244,-12.76314 v 3.84871 h 2.71489 q 0.12483,0 0.12483,0.12482 v 2.14279 q 0,0.11442 -0.12483,0.11442 h -2.71489 v 4.16076 h 2.57967 q 1.78913,0 2.66289,-1.24822 0.36406,-0.5513 0.43688,-1.15462 0.052,-0.33286 0.0728,-0.99858 0.0312,-0.67612 0.0312,-1.71631 0,-1.00899 -0.0312,-1.68511 -0.0208,-0.67612 -0.0728,-1.0714 -0.11442,-0.73853 -0.5409,-1.32104 -0.88416,-1.19622 -2.55887,-1.19622 z"
             style="font-style:normal;font-variant:normal;font-weight:normal;font-stretch:normal;font-family:Giaothong2;-inkscape-font-specification:Giaothong2;text-align:start;letter-spacing:-0.135px;text-anchor:start;stroke-width:0.0417255"
             id="path8664" />
          <path
             d="m 298.53429,359.40142 q 0.0624,0.052 0.12483,0.11442 0.68652,0.71773 0.70733,1.87235 0.0416,1.40425 -1.25864,2.28841 -0.54089,0.24965 -1.17541,0.36407 v 7.27093 q 0,2.39244 -1.59149,3.84871 -1.57069,1.44586 -3.8279,1.44586 -2.26762,0 -3.84871,-1.44586 -1.58109,-1.45627 -1.58109,-3.84871 v -9.861 q 0,-0.12483 0.12483,-0.12483 h 2.26761 q 0.11442,0 0.11442,0.12483 v 9.61136 q 0,1.49787 0.83215,2.26761 0.84256,0.78014 2.09079,0.78014 1.22742,0 2.06998,-0.78014 0.84255,-0.78014 0.84255,-2.26761 v -9.61136 q 0,-0.12483 0.12482,-0.12483 h 2.25722 q 0.12482,0 0.12482,0.12483 v 1.23782 q 0.94657,-0.40567 0.96738,-1.25863 -0.0104,-0.68652 -0.40568,-0.98818 z"
             style="font-style:normal;font-variant:normal;font-weight:normal;font-stretch:normal;font-family:Giaothong2;-inkscape-font-specification:Giaothong2;text-align:start;letter-spacing:-0.135px;text-anchor:start;stroke-width:0.0417255"
             id="path8666" />
          <path
             d="m 302.8097,368.90876 q 0,1.13381 0.0312,1.87235 0.0312,0.72813 0.11442,1.08179 0.0832,0.32246 0.22884,0.64492 0.15603,0.31206 0.34326,0.5513 0.33286,0.43688 0.88416,0.74894 0.5513,0.30165 1.33145,0.30165 0.76974,0 1.32104,-0.30165 0.5513,-0.31206 0.87376,-0.74894 0.43688,-0.53049 0.5721,-1.19622 0.16643,-0.66572 0.16643,-2.95414 0,-1.1338 -0.0416,-1.86194 -0.0416,-0.73853 -0.12483,-1.0818 -0.0728,-0.33286 -0.21844,-0.64491 -0.14562,-0.32246 -0.34326,-0.57211 -0.15603,-0.19764 -0.38487,-0.38487 -0.21844,-0.18723 -0.49929,-0.32246 -0.28085,-0.14563 -0.61371,-0.22884 -0.33286,-0.0936 -0.70733,-0.0936 -0.78015,0 -1.33145,0.31206 -0.5513,0.31206 -0.88416,0.71773 -0.19763,0.24965 -0.34326,0.57211 -0.14563,0.31205 -0.22884,0.64491 -0.0832,0.35367 -0.11442,1.0922 -0.0312,0.73854 -0.0312,1.85154 z m 3.57826,-8.92483 q -0.0208,0 -0.052,-0.0104 -0.0312,-0.0208 -0.0416,-0.0312 l -2.87093,-3.03736 q -0.0624,-0.0624 -0.0312,-0.13522 0.0416,-0.0728 0.12482,-0.0728 h 2.28842 q 0.0624,0 0.10402,0.0624 l 2.174,3.03735 q 0.0312,0.0728 0,0.13523 -0.0208,0.052 -0.10402,0.052 z m 4.89929,-0.61371 q 0.0832,0.0728 0.15603,0.14562 0.68653,0.71773 0.70733,1.87235 0.0416,1.40425 -1.25863,2.28841 -0.20804,0.0936 -0.42648,0.17684 0.0208,0.0416 0.052,0.0936 0.38487,0.70733 0.5201,1.47707 0.0728,0.39528 0.10402,1.25864 0.0416,0.86335 0.0416,2.226 0,2.67329 -0.14562,3.49504 -0.0728,0.40568 -0.20804,0.76974 -0.12482,0.36407 -0.30166,0.69693 -0.5513,0.99858 -1.77872,1.87234 -1.22743,0.86336 -3.00615,0.86336 -1.79953,0 -3.02696,-0.86336 -1.20662,-0.85295 -1.74752,-1.87234 h 0.0104 q -0.19764,-0.35366 -0.33287,-0.70733 -0.13522,-0.36407 -0.20803,-0.75934 -0.0624,-0.39527 -0.10402,-1.25863 -0.0312,-0.87376 -0.0312,-2.23641 0,-1.36265 0.0312,-2.226 0.0416,-0.86336 0.10402,-1.25864 0.0728,-0.39527 0.20803,-0.75933 0.13523,-0.36407 0.33287,-0.71774 h -0.0104 q 0.5409,-1.00898 1.74752,-1.87234 1.21703,-0.87376 3.02696,-0.87376 1.78913,0 3.00615,0.87376 0.45768,0.33286 0.82175,0.67613 1.0818,-0.39528 1.113,-1.32105 -0.0104,-0.70733 -0.44728,-1.00898 z"
             style="font-style:normal;font-variant:normal;font-weight:normal;font-stretch:normal;font-family:Giaothong2;-inkscape-font-specification:Giaothong2;text-align:start;letter-spacing:-0.135px;text-anchor:start;stroke-width:0.0417255"
             id="path8668" />
          <path
             d="m 313.77353,376.48135 q -0.12482,0 -0.12482,-0.12482 V 361.4506 q 0,-0.12483 0.12482,-0.12483 h 2.14279 q 0.0624,0 0.10402,0.0624 l 6.5532,10.31868 V 361.4506 q 0,-0.12483 0.12482,-0.12483 h 2.26762 q 0.12482,0 0.12482,0.12483 v 14.90593 q 0,0.12482 -0.12482,0.12482 h -2.13239 q -0.0624,0 -0.10402,-0.0624 l -6.57401,-10.31869 v 10.25628 q 0,0.12482 -0.11442,0.12482 z"
             style="font-style:normal;font-variant:normal;font-weight:normal;font-stretch:normal;font-family:Giaothong2;-inkscape-font-specification:Giaothong2;text-align:start;letter-spacing:-0.135px;text-anchor:start;stroke-width:0.0417255"
             id="path8670" />
          <path
             d="m 333.03808,370.41704 q -0.12482,0 -0.12482,-0.12482 v -2.1428 q 0,-0.11442 0.12482,-0.11442 h 5.29457 q 0.12482,0 0.12482,0.11442 v 3.03736 q 0,2.29882 -1.58109,3.8487 -1.60189,1.57069 -3.8591,1.57069 -1.79953,0 -3.02696,-0.86336 -1.20662,-0.85295 -1.74752,-1.87234 h 0.0104 q -0.19763,-0.35366 -0.33286,-0.70733 -0.13522,-0.36407 -0.20804,-0.75934 -0.0624,-0.39527 -0.10401,-1.25863 -0.0312,-0.87376 -0.0312,-2.23641 0,-1.36265 0.0312,-2.226 0.0416,-0.86336 0.10401,-1.25864 0.0728,-0.39527 0.20804,-0.75933 0.13523,-0.36407 0.33286,-0.71774 h -0.0104 q 0.5409,-1.00898 1.74752,-1.87234 1.21702,-0.87376 3.02696,-0.87376 2.16359,0 3.57825,1.33145 1.43546,1.33144 1.77873,3.18298 0.0208,0.0624 -0.0208,0.10402 -0.0416,0.0416 -0.10402,0.0416 h -2.38203 q -0.0936,0 -0.11442,-0.0832 -0.13523,-0.41608 -0.38487,-0.76974 -0.24965,-0.36407 -0.61372,-0.67613 -0.68652,-0.61371 -1.73711,-0.61371 -0.78015,0 -1.33145,0.31206 -0.5513,0.31206 -0.88416,0.71773 -0.19764,0.24965 -0.34326,0.57211 -0.14563,0.31205 -0.22884,0.64491 -0.0832,0.35367 -0.11443,1.0922 -0.0312,0.73854 -0.0312,1.85154 0,1.13381 0.0312,1.87235 0.0312,0.72813 0.11443,1.08179 0.0832,0.32246 0.22884,0.64492 0.15603,0.31206 0.34326,0.5513 0.33286,0.43688 0.88416,0.74894 0.5513,0.30165 1.33145,0.30165 1.23782,0 2.08038,-0.84255 0.85295,-0.84255 0.85295,-2.2052 v -0.64492 z"
             style="font-style:normal;font-variant:normal;font-weight:normal;font-stretch:normal;font-family:Giaothong2;-inkscape-font-specification:Giaothong2;text-align:start;letter-spacing:-0.135px;text-anchor:start;stroke-width:0.0417255"
             id="path8672" />
        </g>
      </g>
    </g>
  </g>
</svg>
