<?xml version="1.0" encoding="UTF-8" standalone="no"?>
<svg
   xmlns:dc="http://purl.org/dc/elements/1.1/"
   xmlns:cc="http://creativecommons.org/ns#"
   xmlns:rdf="http://www.w3.org/1999/02/22-rdf-syntax-ns#"
   xmlns:svg="http://www.w3.org/2000/svg"
   xmlns="http://www.w3.org/2000/svg"
   xmlns:sodipodi="http://sodipodi.sourceforge.net/DTD/sodipodi-0.dtd"
   xmlns:inkscape="http://www.inkscape.org/namespaces/inkscape"
   sodipodi:docname="Vietnam_road_sign_IE464a.svg"
   inkscape:version="1.0 (4035a4fb49, 2020-05-01)"
   id="svg8"
   version="1.1"
   viewBox="0 0 163.89145 49.992469"
   height="49.99247mm"
   width="163.89146mm">
  <defs
     id="defs2">
    <clipPath
       id="clip4">
      <path
         id="path1318"
         d="M 210,612.90625 H 364 V 754.60937 H 210 Z m 0,0" />
    </clipPath>
    <clipPath
       id="clip5">
      <path
         id="path1321"
         d="M 371,612.90625 H 515.96094 V 754.60937 H 371 Z m 0,0" />
    </clipPath>
    <clipPath
       id="clip6">
      <path
         id="path1324"
         d="M 51.410156,612.90625 H 204 V 754.60937 H 51.410156 Z m 0,0" />
    </clipPath>
  </defs>
  <sodipodi:namedview
     inkscape:window-maximized="1"
     inkscape:window-y="-9"
     inkscape:window-x="-9"
     inkscape:window-height="1001"
     inkscape:window-width="1920"
     showgrid="false"
     inkscape:document-rotation="0"
     inkscape:current-layer="layer1"
     inkscape:document-units="mm"
     inkscape:cy="149.72814"
     inkscape:cx="395.5138"
     inkscape:zoom="3.6580217"
     inkscape:pageshadow="2"
     inkscape:pageopacity="0.0"
     borderopacity="1.0"
     bordercolor="#666666"
     pagecolor="#ffffff"
     id="base" />
  <metadata
     id="metadata5">
    <rdf:RDF>
      <cc:Work
         rdf:about="">
        <dc:format>image/svg+xml</dc:format>
        <dc:type
           rdf:resource="http://purl.org/dc/dcmitype/StillImage" />
        <dc:title></dc:title>
      </cc:Work>
    </rdf:RDF>
  </metadata>
  <g
     transform="translate(-365.98932,-219.01571)"
     id="layer1"
     inkscape:groupmode="layer"
     inkscape:label="Layer 1">
    <path
       d="m 479.06292,219.01571 h 50.84254 v 49.99999 h -50.84254 z"
       style="opacity:1;fill:#028f45;fill-opacity:1;fill-rule:evenodd;stroke-width:0.0420685;stroke-linecap:square;stroke-miterlimit:10;paint-order:stroke fill markers"
       id="path5802"
       sodipodi:nodetypes="ccccc" />
    <path
       d="m 493.35654,225.87111 h 22.21889 v 10.15153 h -22.21889 z"
       style="font-size:15.1831px;line-height:1.46;font-family:'Singapore Road Signs';-inkscape-font-specification:'Singapore Road Signs';text-align:center;text-anchor:middle;opacity:1;fill:#ffffff;fill-opacity:1;fill-rule:evenodd;stroke:none;stroke-width:0.553506;stroke-linecap:square;stroke-miterlimit:10;stroke-dasharray:none;stroke-opacity:1;paint-order:stroke fill markers"
       id="path6472" />
    <path
       id="path6474"
       d="m 494.10906,226.07768 c -0.29598,0 -0.538,0.24088 -0.538,0.53685 v 8.66467 c 0,0.29599 0.24202,0.53686 0.538,0.53686 h 20.72184 c 0.29597,0 0.53797,-0.24087 0.53797,-0.53686 v -8.66467 c 0,-0.29597 -0.24201,-0.53685 -0.53797,-0.53685 z m 0,0.19522 h 20.72184 c 0.19071,0 0.34162,0.15092 0.34162,0.34163 v 8.66467 c 0,0.19071 -0.15088,0.34052 -0.34162,0.34052 h -20.72184 c -0.19072,0 -0.34163,-0.14981 -0.34163,-0.34052 v -8.66467 c 0,-0.19071 0.15089,-0.34163 0.34163,-0.34163 z"
       style="color:#000000;font-style:normal;font-variant:normal;font-weight:normal;font-stretch:normal;font-size:medium;line-height:normal;font-family:sans-serif;-inkscape-font-specification:'Singapore Road Signs';font-variant-ligatures:normal;font-variant-position:normal;font-variant-caps:normal;font-variant-numeric:normal;font-variant-alternates:normal;font-variant-east-asian:normal;font-feature-settings:normal;font-variation-settings:normal;text-indent:0;text-align:start;text-decoration:none;text-decoration-line:none;text-decoration-style:solid;text-decoration-color:#000000;letter-spacing:normal;word-spacing:normal;text-transform:none;writing-mode:lr-tb;direction:ltr;text-orientation:mixed;dominant-baseline:auto;baseline-shift:baseline;text-anchor:start;white-space:normal;shape-padding:0;shape-margin:0;inline-size:0;clip-rule:nonzero;display:inline;overflow:visible;visibility:visible;opacity:1;isolation:auto;mix-blend-mode:normal;color-interpolation:sRGB;color-interpolation-filters:linearRGB;solid-color:#000000;solid-opacity:1;vector-effect:none;fill:#000000;fill-opacity:1;fill-rule:evenodd;stroke:none;stroke-width:0.119061;stroke-linecap:square;stroke-linejoin:miter;stroke-miterlimit:10;stroke-dasharray:none;stroke-dashoffset:0;stroke-opacity:1;paint-order:stroke fill markers;color-rendering:auto;image-rendering:auto;shape-rendering:auto;text-rendering:auto;enable-background:accumulate;stop-color:#000000;stop-opacity:1" />
    <path
       d="m 510.02149,233.96431 q -0.0469,0 -0.0469,-0.0469 v -0.76248 l 2.18967,-2.741 v 0.004 q 0.12122,-0.15249 0.15641,-0.27762 0.0352,-0.12904 0.0352,-0.25025 0,-0.2698 -0.1955,-0.50831 -0.19551,-0.23461 -0.52787,-0.23461 -0.30499,0 -0.52787,0.20723 -0.10948,0.10167 -0.16813,0.24244 -0.0547,0.13685 -0.0704,0.31281 0,0.0196 -0.0157,0.0313 -0.0118,0.0117 -0.0313,0.0117 h -0.79766 q -0.0469,0 -0.0469,-0.0469 0.008,-0.696 0.47313,-1.16912 0.47313,-0.48095 1.12612,-0.48095 0.70774,0 1.19259,0.48485 h -0.004 q 0.48095,0.48095 0.48095,1.1574 0,0.29327 -0.086,0.54352 -0.086,0.25024 -0.25807,0.4653 v -0.004 q -0.22288,0.28154 -0.43793,0.55133 -0.21507,0.2698 -0.43012,0.5396 -0.21506,0.26589 -0.43011,0.53569 -0.21505,0.26589 -0.43794,0.54742 h 2.03328 q 0.0469,0 0.0469,0.0469 v 0.79376 q 0,0.0469 -0.0469,0.0469 z m -3.52871,-4.05482 q 0.004,-0.39101 0.13295,-0.696 0.12903,-0.30891 0.36364,-0.52787 0.22288,-0.20333 0.5005,-0.31282 0.27762,-0.11339 0.58261,-0.11339 0.55524,0 1.0049,0.33237 0.42229,0.33627 0.55133,0.9697 0.008,0.0234 -0.008,0.0391 -0.0156,0.0157 -0.0391,0.0157 h -0.80158 q -0.0313,0 -0.043,-0.0274 -0.17596,-0.43012 -0.66863,-0.44185 -0.70774,0.0196 -0.70774,0.81331 v 0.46139 q 0.25416,-0.0743 0.5044,-0.1173 0.25416,-0.043 0.48095,-0.0391 0.54742,0 0.93844,0.38319 0.37537,0.39493 0.37145,1.21605 v 0.50832 q -0.0117,0.80158 -0.47703,1.21996 -0.43793,0.41448 -1.10656,0.43403 -0.64909,-0.0196 -1.08312,-0.43012 -0.49267,-0.43011 -0.49658,-1.21995 z m 0.86805,2.42037 q 0.004,0.80158 0.71165,0.8094 0.69209,-0.004 0.71946,-0.8094 v -0.45748 q -0.0313,-0.79376 -0.71946,-0.8094 -0.70773,0.0196 -0.71165,0.8094 z m -2.3322,1.63445 q -0.0469,0 -0.0469,-0.0469 v -0.79376 q 0,-0.0469 0.0469,-0.0469 h 0.79767 q 0.043,0 0.043,0.0469 v 0.79376 q 0,0.0469 -0.043,0.0469 z m -4.13478,0 q -0.0469,0 -0.0469,-0.0469 v -5.60322 q 0,-0.0469 0.0469,-0.0469 h 0.8485 q 0.0469,0 0.0469,0.0469 v 4.75863 h 2.68626 q 0.0469,0 0.0469,0.0469 v 0.79767 q 0,0.0469 -0.0469,0.0469 z m -2.91481,-1.57579 q -0.0156,-0.0117 -0.0196,-0.0313 0,-0.0196 0.0118,-0.0352 l 0.5044,-0.57871 q 0.0313,-0.0352 0.0626,-0.004 l 0.59825,0.46921 q 0.0313,-0.15249 0.043,-0.41838 0.0157,-0.26589 0.0157,-0.67254 0,-0.42621 -0.0157,-0.69992 -0.0156,-0.27762 -0.0469,-0.40665 -0.0313,-0.12513 -0.086,-0.24243 -0.0547,-0.12121 -0.12513,-0.21506 -0.0586,-0.0743 -0.14467,-0.14467 -0.0821,-0.0704 -0.18769,-0.12122 -0.10558,-0.0547 -0.2307,-0.086 -0.12513,-0.0352 -0.2698,-0.0352 -0.28935,0 -0.50049,0.1173 -0.20724,0.11731 -0.32846,0.2698 -0.0782,0.0938 -0.13294,0.21506 -0.0508,0.1173 -0.0821,0.24243 -0.0586,0.26589 -0.0586,1.10657 0,0.8485 0.0586,1.11047 0.0313,0.12122 0.086,0.24243 0.0547,0.11731 0.12903,0.20724 0.12122,0.16423 0.32846,0.28152 0.21114,0.1134 0.50049,0.1134 0.31672,0 0.55524,-0.1564 z m 2.17793,1.68917 q -0.0118,0.0117 -0.0313,0.0117 -0.0196,0 -0.0352,-0.0117 l -0.67645,-0.53569 q -0.25416,0.20724 -0.58653,0.34018 -0.33236,0.12904 -0.73901,0.12904 -0.67254,0 -1.13784,-0.32454 -0.44576,-0.32063 -0.65691,-0.70382 h 0.004 q -0.0704,-0.13295 -0.12121,-0.26589 -0.0508,-0.13686 -0.0782,-0.28544 -0.0547,-0.3089 -0.0547,-1.31381 0,-0.51223 0.0117,-0.83677 0.0156,-0.32454 0.043,-0.47312 0.0273,-0.14859 0.0782,-0.28544 0.0508,-0.13686 0.12121,-0.2698 h -0.004 q 0.10167,-0.18769 0.2659,-0.36365 0.16423,-0.17595 0.39101,-0.34018 0.46139,-0.32845 1.13785,-0.32845 0.67645,0 1.13393,0.32845 0.45358,0.33236 0.66473,0.70383 0.0665,0.12904 0.11731,0.2698 0.0508,0.13685 0.0782,0.28544 0.0274,0.14858 0.0391,0.47312 0.0157,0.32454 0.0157,0.83677 0,0.91498 -0.0469,1.23169 -0.0196,0.14859 -0.0586,0.27762 -0.0352,0.12512 -0.0899,0.23461 0.17596,0.13686 0.35583,0.28544 0.17986,0.14467 0.35582,0.28153 0.0156,0.0117 0.0195,0.0313 0.004,0.0196 -0.0118,0.0352 z"
       style="font-style:normal;font-variant:normal;font-weight:normal;font-stretch:normal;font-size:24.5584px;line-height:1.3;font-family:'Alte DIN 1451 Mittelschrift gepraegt';-inkscape-font-specification:'Alte DIN 1451 Mittelschrift gepraegt';text-align:start;letter-spacing:-0.81px;text-anchor:start;opacity:1;stroke-width:0.264583"
       id="path6490" />
    <path
       sodipodi:nodetypes="ccccc"
       id="path5798"
       style="opacity:1;fill:#028f45;fill-opacity:1;fill-rule:evenodd;stroke-width:0.0420685;stroke-linecap:square;stroke-miterlimit:10;paint-order:stroke fill markers"
       d="m 422.27478,219.01571 h 53.80645 v 49.99999 h -53.80645 z" />
    <path
       id="path4925"
       d="m 450.33519,257.05528 c 0,3.26231 0,3.26231 0,3.26231 4.17746,-1.07503 4.17746,-1.07503 4.17746,-1.07503 0.0262,-0.0124 0.0524,-0.0124 0.091,-0.0124 0.19157,0 0.35834,0.16677 0.35834,0.35834 0,0.102 -0.0386,0.19158 -0.10337,0.26876 -5.71558,5.17945 -5.71558,5.17945 -5.71558,5.17945 -5.70319,-5.17945 -5.70319,-5.17945 -5.70319,-5.17945 -0.0634,-0.0772 -0.10198,-0.16676 -0.10198,-0.26876 0,-0.19157 0.16676,-0.35834 0.35834,-0.35834 0.0386,0 0.0648,0 0.091,0.0124 4.17746,1.07503 4.17746,1.07503 4.17746,1.07503 0,-3.26231 0,-3.26231 0,-3.26231 z m 0,0"
       style="opacity:1;fill:#ffffff;fill-opacity:1;fill-rule:nonzero;stroke:none;stroke-width:0.352777" />
    <path
       id="path4951"
       d="m 503.01174,257.70857 c -0.091,0.0124 -0.18054,0.0634 -0.25773,0.14058 -0.19157,0.17918 -0.19157,0.49893 0,0.69051 0.0524,0.0386 0.10337,0.0772 0.15437,0.10336 1.47472,0.66432 1.47472,0.66432 1.47472,0.66432 -4.39661,4.38695 -4.39661,4.38695 -4.39661,4.38695 1.84548,1.84272 1.84548,1.84272 1.84548,1.84272 4.3966,-4.38834 4.3966,-4.38834 4.3966,-4.38834 0.66569,1.47197 0.66569,1.47197 0.66569,1.47197 0.0262,0.051 0.0634,0.102 0.10336,0.14058 0.19158,0.19158 0.49893,0.19158 0.69189,0 0.0758,-0.0648 0.1144,-0.15436 0.14058,-0.25636 1.09019,-5.89612 1.09019,-5.89612 1.09019,-5.89612 z m 0,0"
       style="opacity:1;fill:#ffffff;fill-opacity:1;fill-rule:nonzero;stroke:none;stroke-width:0.352777" />
    <path
       d="m 424.19126,219.34925 c -0.87109,0 -1.5828,0.71163 -1.5828,1.58278 v 28.75934 2.85232 2.96743 0.84119 10.82646 c 0,0.87113 0.71173,1.58177 1.5828,1.58177 h 49.94363 c 0.87101,0 1.58333,-0.71063 1.5833,-1.58177 v -10.82646 -0.81901 -3.4871 -2.35483 -28.75934 c 0,-0.87116 -0.71226,-1.58278 -1.5833,-1.58278 z m 0.005,0.70184 h 0.002 49.93694 c 0.49483,0 0.88195,0.38623 0.88195,0.88094 v 28.75934 2.35483 0.0562 0.43607 c 0,0.49093 -0.39311,0.88456 -0.88401,0.88456 h -0.49235 -0.003 c -0.0122,10e-4 -0.0216,0.002 -0.0284,0.002 h -48.95143 c -0.007,0 -0.0157,-0.001 -0.0274,-0.002 h -0.002 -0.43298 c -0.49084,0 -0.88403,-0.39365 -0.88403,-0.88456 V 220.9361 c 0,-0.0921 0.0147,-0.18143 0.0402,-0.26526 0.001,-0.002 0.002,-0.002 0.003,-0.005 7.9e-4,-0.002 10e-4,-0.004 0.002,-0.006 v -0.001 c 0.11276,-0.35602 0.44018,-0.60742 0.83913,-0.60742 z m -0.0134,34.07849 h 0.003 0.001 0.42112 49.03586 0.4913 c 0.48815,0 0.87943,0.39131 0.87939,0.87939 v 0.45981 0.0645 0.81901 10.82646 c 0,0.30999 -0.15305,0.57619 -0.38809,0.73283 -0.14045,0.0949 -0.30983,0.15069 -0.49336,0.15069 H 424.1831 c -0.48814,0 -0.87939,-0.39129 -0.87939,-0.87939 v -12.17393 c 0,-0.48785 0.39459,-0.93809 0.87888,-0.87939 z"
       style="color:#000000;font-style:normal;font-variant:normal;font-weight:normal;font-stretch:normal;font-size:medium;line-height:normal;font-family:sans-serif;font-variant-ligatures:normal;font-variant-position:normal;font-variant-caps:normal;font-variant-numeric:normal;font-variant-alternates:normal;font-variant-east-asian:normal;font-feature-settings:normal;font-variation-settings:normal;text-indent:0;text-align:start;text-decoration:none;text-decoration-line:none;text-decoration-style:solid;text-decoration-color:#000000;letter-spacing:normal;word-spacing:normal;text-transform:none;writing-mode:lr-tb;direction:ltr;text-orientation:mixed;dominant-baseline:auto;baseline-shift:baseline;text-anchor:start;white-space:normal;shape-padding:0;shape-margin:0;inline-size:0;clip-rule:nonzero;display:inline;overflow:visible;visibility:visible;opacity:1;isolation:auto;mix-blend-mode:normal;color-interpolation:sRGB;color-interpolation-filters:linearRGB;solid-color:#000000;solid-opacity:1;vector-effect:none;fill:#ffffff;fill-opacity:1;fill-rule:evenodd;stroke:none;stroke-width:0.130175;stroke-linecap:square;stroke-linejoin:miter;stroke-miterlimit:4;stroke-dasharray:none;stroke-dashoffset:0;stroke-opacity:1;paint-order:stroke fill markers;color-rendering:auto;image-rendering:auto;shape-rendering:auto;text-rendering:auto;enable-background:accumulate;stop-color:#000000;stop-opacity:1"
       id="path5800"
       sodipodi:nodetypes="ssccccssscccccsssccsscccssccssccssscccccccccccsscccscsssssc" />
    <path
       sodipodi:nodetypes="ssccccssscccccsssccsscccssccssccssscccccccccccsscccscsssssc"
       id="path5804"
       style="color:#000000;font-style:normal;font-variant:normal;font-weight:normal;font-stretch:normal;font-size:medium;line-height:normal;font-family:sans-serif;font-variant-ligatures:normal;font-variant-position:normal;font-variant-caps:normal;font-variant-numeric:normal;font-variant-alternates:normal;font-variant-east-asian:normal;font-feature-settings:normal;font-variation-settings:normal;text-indent:0;text-align:start;text-decoration:none;text-decoration-line:none;text-decoration-style:solid;text-decoration-color:#000000;letter-spacing:normal;word-spacing:normal;text-transform:none;writing-mode:lr-tb;direction:ltr;text-orientation:mixed;dominant-baseline:auto;baseline-shift:baseline;text-anchor:start;white-space:normal;shape-padding:0;shape-margin:0;inline-size:0;clip-rule:nonzero;display:inline;overflow:visible;visibility:visible;opacity:1;isolation:auto;mix-blend-mode:normal;color-interpolation:sRGB;color-interpolation-filters:linearRGB;solid-color:#000000;solid-opacity:1;vector-effect:none;fill:#ffffff;fill-opacity:1;fill-rule:evenodd;stroke:none;stroke-width:0.130175;stroke-linecap:square;stroke-linejoin:miter;stroke-miterlimit:4;stroke-dasharray:none;stroke-dashoffset:0;stroke-opacity:1;paint-order:stroke fill markers;color-rendering:auto;image-rendering:auto;shape-rendering:auto;text-rendering:auto;enable-background:accumulate;stop-color:#000000;stop-opacity:1"
       d="m 480.97939,219.34925 c -0.87108,0 -1.58279,0.71163 -1.58279,1.58278 v 28.75934 2.85232 2.96743 0.84119 10.82646 c 0,0.87113 0.71174,1.58177 1.58279,1.58177 h 46.97973 c 0.87101,0 1.58334,-0.71063 1.58331,-1.58177 v -10.82646 -0.81901 -3.4871 -2.35483 -28.75934 c 0,-0.87116 -0.71227,-1.58278 -1.58331,-1.58278 z m 0.005,0.70184 h 0.002 46.97302 c 0.49485,0 0.8815,0.38623 0.88196,0.88094 v 28.75934 2.35483 0.0562 0.43607 c 0,0.49093 -0.39311,0.88456 -0.88402,0.88456 h -0.49233 -0.003 c -0.0122,10e-4 -0.0216,0.002 -0.0284,0.002 h -45.98749 c -0.007,0 -0.0157,-0.001 -0.0274,-0.002 h -0.002 -0.43298 c -0.49084,0 -0.88403,-0.39365 -0.88403,-0.88456 V 220.9361 c 0,-0.0921 0.0147,-0.18143 0.0402,-0.26526 10e-4,-0.002 0.002,-0.002 0.003,-0.005 7.9e-4,-0.002 10e-4,-0.004 0.002,-0.006 v -0.001 c 0.11276,-0.35602 0.44019,-0.60742 0.83913,-0.60742 z m -0.0134,34.07849 h 0.003 10e-4 0.4211 46.0719 0.49129 c 0.48814,0 0.87938,0.39131 0.87938,0.87939 v 0.45981 0.0645 0.81901 10.82646 c 0,0.30999 -0.15304,0.57619 -0.38809,0.73283 -0.14045,0.0949 -0.30982,0.15069 -0.49335,0.15069 h -46.98605 c -0.48815,0 -0.8794,-0.39129 -0.8794,-0.87939 v -12.17393 c 0,-0.48785 0.39458,-0.93809 0.87888,-0.87939 z" />
    <g
       style="font-size:7.95413px;line-height:1.3;font-family:'Singapore Road Signs';-inkscape-font-specification:'Singapore Road Signs';text-align:center;text-anchor:middle;opacity:1;fill:#ffffff;fill-opacity:1;stroke-width:0.264583"
       id="text6496"
       aria-label="LONG THÀNH">
      <path
         id="path13835"
         style="font-style:normal;font-variant:normal;font-weight:normal;font-stretch:normal;font-family:Giaothong2;-inkscape-font-specification:Giaothong2;fill:#ffffff;fill-opacity:1;stroke-width:0.264583"
         d="m 426.66118,247.62383 q -0.0466,0 -0.0466,-0.0466 v -5.56556 q 0,-0.0466 0.0466,-0.0466 h 0.84279 q 0.0466,0 0.0466,0.0466 v 4.72664 h 2.66821 q 0.0466,0 0.0466,0.0466 v 0.79231 q 0,0.0466 -0.0466,0.0466 z" />
      <path
         id="path13837"
         style="font-style:normal;font-variant:normal;font-weight:normal;font-stretch:normal;font-family:Giaothong2;-inkscape-font-specification:Giaothong2;fill:#ffffff;fill-opacity:1;stroke-width:0.264583"
         d="m 430.85574,244.79639 q 0,-0.50879 0.0116,-0.83115 0.0155,-0.32236 0.0388,-0.46994 0.0272,-0.14759 0.0777,-0.28352 0.0505,-0.13594 0.12429,-0.26799 h -0.004 q 0.20196,-0.37673 0.65249,-0.69909 0.45441,-0.32625 1.1302,-0.32625 0.66803,0 1.12244,0.32625 0.45829,0.33012 0.66025,0.69909 0.1437,0.2641 0.19419,0.55151 0.0272,0.14758 0.0388,0.46994 0.0155,0.32236 0.0155,0.83115 0,0.99815 -0.0544,1.30497 -0.0272,0.15147 -0.0777,0.28741 -0.0466,0.13593 -0.11264,0.26022 -0.20584,0.37285 -0.66413,0.69909 -0.4583,0.32236 -1.12244,0.32236 -0.6719,0 -1.1302,-0.32236 -0.45053,-0.31848 -0.65249,-0.69909 h 0.004 q -0.0738,-0.13205 -0.12429,-0.26411 -0.0505,-0.13593 -0.0777,-0.28352 -0.0233,-0.14758 -0.0388,-0.46994 -0.0116,-0.32625 -0.0116,-0.83503 z m 0.93601,0 q 0,0.42334 0.0117,0.69909 0.0116,0.27187 0.0427,0.40392 0.0311,0.1204 0.0854,0.2408 0.0583,0.11652 0.12817,0.20585 0.12429,0.16312 0.33013,0.27963 0.20584,0.11263 0.49713,0.11263 0.28741,0 0.49325,-0.11263 0.20585,-0.11651 0.32625,-0.27963 0.16312,-0.19808 0.21361,-0.44665 0.0621,-0.24856 0.0621,-1.10301 0,-0.42334 -0.0155,-0.69521 -0.0155,-0.27575 -0.0466,-0.40392 -0.0272,-0.12429 -0.0816,-0.2408 -0.0544,-0.1204 -0.12817,-0.21361 -0.0583,-0.0738 -0.1437,-0.14371 -0.0816,-0.0699 -0.18643,-0.12039 -0.10486,-0.0544 -0.22915,-0.0854 -0.12428,-0.035 -0.2641,-0.035 -0.29129,0 -0.49713,0.11651 -0.20584,0.11652 -0.33013,0.26799 -0.0738,0.0932 -0.12817,0.21361 -0.0544,0.11651 -0.0854,0.2408 -0.0311,0.13205 -0.0427,0.4078 -0.0117,0.27576 -0.0117,0.69133 z" />
      <path
         id="path13839"
         style="font-style:normal;font-variant:normal;font-weight:normal;font-stretch:normal;font-family:Giaothong2;-inkscape-font-specification:Giaothong2;fill:#ffffff;fill-opacity:1;stroke-width:0.264583"
         d="m 435.93582,247.62383 q -0.0466,0 -0.0466,-0.0466 v -5.56556 q 0,-0.0466 0.0466,-0.0466 h 0.80007 q 0.0233,0 0.0388,0.0233 l 2.44683,3.85278 v -3.82947 q 0,-0.0466 0.0466,-0.0466 h 0.84668 q 0.0466,0 0.0466,0.0466 v 5.56556 q 0,0.0466 -0.0466,0.0466 h -0.79619 q -0.0233,0 -0.0388,-0.0233 l -2.45459,-3.85278 v 3.82948 q 0,0.0466 -0.0427,0.0466 z" />
      <path
         id="path13841"
         style="font-style:normal;font-variant:normal;font-weight:normal;font-stretch:normal;font-family:Giaothong2;-inkscape-font-specification:Giaothong2;fill:#ffffff;fill-opacity:1;stroke-width:0.264583"
         d="m 443.1792,245.35955 q -0.0466,0 -0.0466,-0.0466 v -0.80007 q 0,-0.0427 0.0466,-0.0427 h 1.97688 q 0.0466,0 0.0466,0.0427 v 1.13408 q 0,0.85833 -0.59035,1.43703 -0.59811,0.58646 -1.44091,0.58646 -0.6719,0 -1.1302,-0.32236 -0.45052,-0.31848 -0.65248,-0.69909 h 0.004 q -0.0738,-0.13205 -0.12428,-0.26411 -0.0505,-0.13593 -0.0777,-0.28352 -0.0233,-0.14758 -0.0388,-0.46994 -0.0117,-0.32625 -0.0117,-0.83503 0,-0.50879 0.0117,-0.83115 0.0155,-0.32236 0.0388,-0.46994 0.0272,-0.14759 0.0777,-0.28352 0.0505,-0.13594 0.12428,-0.26799 h -0.004 q 0.20196,-0.37673 0.65248,-0.69909 0.45441,-0.32625 1.1302,-0.32625 0.80785,0 1.33605,0.49714 0.53597,0.49713 0.66414,1.18846 0.008,0.0233 -0.008,0.0388 -0.0155,0.0155 -0.0388,0.0155 h -0.8894 q -0.0349,0 -0.0427,-0.0311 -0.0505,-0.15536 -0.1437,-0.28741 -0.0932,-0.13593 -0.22915,-0.25245 -0.25634,-0.22914 -0.64861,-0.22914 -0.29128,0 -0.49713,0.11651 -0.20584,0.11652 -0.33013,0.26799 -0.0738,0.0932 -0.12816,0.21361 -0.0544,0.11651 -0.0854,0.2408 -0.0311,0.13205 -0.0427,0.4078 -0.0117,0.27576 -0.0117,0.69133 0,0.42334 0.0117,0.69909 0.0116,0.27187 0.0427,0.40392 0.0311,0.1204 0.0854,0.2408 0.0583,0.11652 0.12816,0.20585 0.12429,0.16312 0.33013,0.27963 0.20585,0.11263 0.49713,0.11263 0.46218,0 0.77678,-0.31459 0.31847,-0.31459 0.31847,-0.82337 v -0.2408 z" />
      <path
         id="path13843"
         style="font-style:normal;font-variant:normal;font-weight:normal;font-stretch:normal;font-family:Giaothong2;-inkscape-font-specification:Giaothong2;fill:#ffffff;fill-opacity:1;stroke-width:0.264583"
         d="m 449.09043,247.62383 q -0.0466,0 -0.0466,-0.0466 v -4.76937 h -1.47975 q -0.0466,0 -0.0466,-0.0466 v -0.74958 q 0,-0.0466 0.0466,-0.0466 h 3.89162 q 0.0466,0 0.0466,0.0466 v 0.74958 q 0,0.0466 -0.0466,0.0466 h -1.47586 v 4.76937 q 0,0.0466 -0.0466,0.0466 z" />
      <path
         id="path13845"
         style="font-style:normal;font-variant:normal;font-weight:normal;font-stretch:normal;font-family:Giaothong2;-inkscape-font-specification:Giaothong2;fill:#ffffff;fill-opacity:1;stroke-width:0.264583"
         d="m 455.17642,247.62383 q -0.0466,0 -0.0466,-0.0466 v -2.38469 h -2.1167 v 2.38469 q 0,0.0466 -0.0466,0.0466 h -0.8428 q -0.0466,0 -0.0466,-0.0466 v -5.56556 q 0,-0.0466 0.0466,-0.0466 h 0.8428 q 0.0466,0 0.0466,0.0466 v 2.33808 h 2.1167 v -2.33808 q 0,-0.0466 0.0466,-0.0466 h 0.8428 q 0.0466,0 0.0466,0.0466 v 5.56556 q 0,0.0466 -0.0466,0.0466 z" />
      <path
         id="path13847"
         style="font-style:normal;font-variant:normal;font-weight:normal;font-stretch:normal;font-family:Giaothong2;-inkscape-font-specification:Giaothong2;fill:#ffffff;fill-opacity:1;stroke-width:0.264583"
         d="m 456.73385,247.61995 q -0.0272,0 -0.0388,-0.0194 -0.0117,-0.0194 -0.004,-0.0427 l 2.03513,-5.56945 q 0.008,-0.0311 0.0388,-0.0311 h 0.69521 q 0.0117,0 0.0233,0.0117 0.0155,0.008 0.0194,0.0194 l 2.03125,5.56945 q 0.008,0.0233 -0.004,0.0427 -0.0117,0.0194 -0.035,0.0194 h -0.8894 q -0.0311,0 -0.0388,-0.0311 l -0.41946,-1.2273 h -2.05067 q -0.10875,0.31459 -0.2175,0.61753 -0.10486,0.29906 -0.21361,0.60977 -0.004,0.0117 -0.0194,0.0233 -0.0116,0.008 -0.0233,0.008 z m 3.13427,-2.0934 q -0.008,-0.0272 -0.0233,-0.0583 -0.0116,-0.0311 -0.0194,-0.0544 -0.066,-0.19031 -0.12039,-0.34955 -0.0544,-0.16312 -0.0971,-0.28352 -0.0272,-0.0777 -0.0544,-0.15147 -0.0233,-0.0738 -0.0466,-0.13982 -0.0194,-0.0621 -0.0388,-0.11651 -0.0194,-0.0583 -0.0388,-0.11263 -0.0349,-0.11263 -0.0738,-0.22527 -0.035,-0.11263 -0.0738,-0.23303 -0.0194,-0.0544 -0.0427,-0.1204 -0.0194,-0.066 -0.0427,-0.13982 -0.0117,-0.0388 -0.0194,-0.0582 -0.004,-0.0233 -0.0116,-0.0427 -0.008,-0.0233 -0.0194,-0.0505 -0.008,-0.0272 -0.0233,-0.0777 -0.0427,0.12816 -0.0816,0.23691 -0.035,0.10875 -0.066,0.20196 -0.008,0.0233 -0.0116,0.0427 -0.004,0.0194 -0.0117,0.0388 -0.0194,0.066 -0.0427,0.12429 -0.0194,0.0582 -0.0388,0.11651 -0.0194,0.0621 -0.0388,0.1204 -0.0194,0.0583 -0.0388,0.11263 -0.0388,0.11652 -0.0816,0.24469 -0.0388,0.12816 -0.0893,0.26798 -0.0505,0.13982 -0.10486,0.30294 -0.0544,0.15924 -0.13982,0.40392 z m -0.51267,-4.06251 q -0.008,0 -0.0194,-0.004 -0.0116,-0.008 -0.0155,-0.0117 l -1.07194,-1.13409 q -0.0233,-0.0233 -0.0117,-0.0505 0.0155,-0.0272 0.0466,-0.0272 h 0.85444 q 0.0233,0 0.0388,0.0233 l 0.81173,1.13408 q 0.0117,0.0272 0,0.0505 -0.008,0.0194 -0.0388,0.0194 z" />
      <path
         id="path13849"
         style="font-style:normal;font-variant:normal;font-weight:normal;font-stretch:normal;font-family:Giaothong2;-inkscape-font-specification:Giaothong2;fill:#ffffff;fill-opacity:1;stroke-width:0.264583"
         d="m 462.23727,247.62383 q -0.0466,0 -0.0466,-0.0466 v -5.56556 q 0,-0.0466 0.0466,-0.0466 h 0.80007 q 0.0233,0 0.0388,0.0233 l 2.44683,3.85278 v -3.82947 q 0,-0.0466 0.0466,-0.0466 h 0.84668 q 0.0466,0 0.0466,0.0466 v 5.56556 q 0,0.0466 -0.0466,0.0466 h -0.79619 q -0.0233,0 -0.0388,-0.0233 l -2.4546,-3.85278 v 3.82948 q 0,0.0466 -0.0427,0.0466 z" />
      <path
         id="path13851"
         style="font-style:normal;font-variant:normal;font-weight:normal;font-stretch:normal;font-family:Giaothong2;-inkscape-font-specification:Giaothong2;fill:#ffffff;fill-opacity:1;stroke-width:0.264583"
         d="m 470.72737,247.62383 q -0.0466,0 -0.0466,-0.0466 v -2.38469 h -2.1167 v 2.38469 q 0,0.0466 -0.0466,0.0466 h -0.8428 q -0.0466,0 -0.0466,-0.0466 v -5.56556 q 0,-0.0466 0.0466,-0.0466 h 0.8428 q 0.0466,0 0.0466,0.0466 v 2.33808 h 2.1167 v -2.33808 q 0,-0.0466 0.0466,-0.0466 h 0.8428 q 0.0466,0 0.0466,0.0466 v 5.56556 q 0,0.0466 -0.0466,0.0466 z" />
    </g>
    <g
       transform="matrix(1.0001506,0,0,1.0001506,-0.05512629,-0.03298873)"
       style="font-size:7.98071px;line-height:1.3;font-family:'Singapore Road Signs';-inkscape-font-specification:'Singapore Road Signs';text-align:start;text-anchor:start;opacity:1;fill:#ffffff;fill-opacity:1;stroke-width:0.264543"
       id="text13561"
       aria-label="TP. TÂN AN">
      <path
         id="path13818"
         style="font-style:normal;font-variant:normal;font-weight:normal;font-stretch:normal;font-family:Giaothong2;-inkscape-font-specification:Giaothong2;text-align:start;text-anchor:start;fill:#ffffff;fill-opacity:1;stroke-width:0.264543"
         d="m 486.70398,247.61716 q -0.0468,0 -0.0468,-0.0468 v -4.78531 h -1.4847 q -0.0468,0 -0.0468,-0.0468 v -0.75209 q 0,-0.0468 0.0468,-0.0468 h 3.90463 q 0.0468,0 0.0468,0.0468 v 0.75209 q 0,0.0468 -0.0468,0.0468 h -1.4808 v 4.78531 q 0,0.0468 -0.0468,0.0468 z" />
      <path
         id="path13820"
         style="font-style:normal;font-variant:normal;font-weight:normal;font-stretch:normal;font-family:Giaothong2;-inkscape-font-specification:Giaothong2;text-align:start;text-anchor:start;fill:#ffffff;fill-opacity:1;stroke-width:0.264543"
         d="m 490.63978,242.83575 v 1.70681 h 1.21191 q 0.44814,0 0.66636,-0.26888 0.22212,-0.26109 0.22212,-0.58452 0,-0.48321 -0.34292,-0.70533 -0.22212,-0.14808 -0.57673,-0.14808 z m -0.89238,4.78141 q -0.0468,0 -0.0468,-0.0468 v -5.58416 q 0,-0.0468 0.0468,-0.0468 h 2.02636 q 0.33512,0 0.63518,0.0701 0.30395,0.0701 0.64687,0.33513 0.1325,0.10521 0.24161,0.2455 0.11301,0.13639 0.20263,0.30395 0.0857,0.17146 0.1325,0.378 0.0468,0.20653 0.0468,0.44034 0,0.6118 -0.45983,1.16905 -0.45982,0.55335 -1.33661,0.55335 h -1.24309 v 2.13546 q 0,0.0468 -0.0468,0.0468 z" />
      <path
         id="path13822"
         style="font-style:normal;font-variant:normal;font-weight:normal;font-stretch:normal;font-family:Giaothong2;-inkscape-font-specification:Giaothong2;text-align:start;text-anchor:start;fill:#ffffff;fill-opacity:1;stroke-width:0.264543"
         d="m 493.24871,247.61716 q -0.0468,0 -0.0468,-0.0468 v -0.79106 q 0,-0.0468 0.0468,-0.0468 h 0.79495 q 0.0429,0 0.0429,0.0468 v 0.79106 q 0,0.0468 -0.0429,0.0468 z" />
      <path
         id="path13824"
         style="font-style:normal;font-variant:normal;font-weight:normal;font-stretch:normal;font-family:Giaothong2;-inkscape-font-specification:Giaothong2;text-align:start;text-anchor:start;fill:#ffffff;fill-opacity:1;stroke-width:0.264543"
         d="m 498.09831,247.61716 q -0.0468,0 -0.0468,-0.0468 v -4.78531 h -1.48469 q -0.0468,0 -0.0468,-0.0468 v -0.75209 q 0,-0.0468 0.0468,-0.0468 h 3.90462 q 0.0468,0 0.0468,0.0468 v 0.75209 q 0,0.0468 -0.0468,0.0468 h -1.48079 v 4.78531 q 0,0.0468 -0.0468,0.0468 z" />
      <path
         id="path13826"
         style="font-style:normal;font-variant:normal;font-weight:normal;font-stretch:normal;font-family:Giaothong2;-inkscape-font-specification:Giaothong2;text-align:start;text-anchor:start;fill:#ffffff;fill-opacity:1;stroke-width:0.264543"
         d="m 500.59229,247.61327 q -0.0273,0 -0.039,-0.0195 -0.0117,-0.0195 -0.004,-0.0429 l 2.04194,-5.58806 q 0.008,-0.0312 0.039,-0.0312 h 0.69753 q 0.0117,0 0.0234,0.0117 0.0156,0.008 0.0195,0.0195 l 2.03804,5.58806 q 0.008,0.0234 -0.004,0.0429 -0.0117,0.0195 -0.0351,0.0195 h -0.89237 q -0.0312,0 -0.039,-0.0312 l -0.42086,-1.2314 h -2.05753 q -0.10911,0.31565 -0.21822,0.6196 -0.10521,0.30005 -0.21433,0.6118 -0.004,0.0117 -0.0195,0.0234 -0.0117,0.008 -0.0234,0.008 z m 3.14474,-2.1004 q -0.008,-0.0273 -0.0234,-0.0584 -0.0117,-0.0312 -0.0195,-0.0546 -0.0662,-0.19095 -0.1208,-0.35072 -0.0546,-0.16367 -0.0974,-0.28447 -0.0273,-0.0779 -0.0546,-0.15197 -0.0234,-0.074 -0.0468,-0.14029 -0.0195,-0.0624 -0.039,-0.1169 -0.0195,-0.0585 -0.039,-0.11301 -0.0351,-0.11301 -0.074,-0.22602 -0.0351,-0.11301 -0.074,-0.23381 -0.0195,-0.0546 -0.0429,-0.1208 -0.0195,-0.0662 -0.0429,-0.14029 -0.0117,-0.039 -0.0195,-0.0584 -0.004,-0.0234 -0.0117,-0.0429 -0.008,-0.0234 -0.0195,-0.0507 -0.008,-0.0273 -0.0234,-0.0779 -0.0429,0.1286 -0.0818,0.23771 -0.0351,0.10911 -0.0662,0.20263 -0.008,0.0234 -0.0117,0.0429 -0.004,0.0195 -0.0117,0.039 -0.0195,0.0662 -0.0429,0.12469 -0.0195,0.0585 -0.039,0.11691 -0.0195,0.0623 -0.039,0.1208 -0.0195,0.0584 -0.039,0.11301 -0.039,0.1169 -0.0818,0.2455 -0.039,0.12859 -0.0896,0.26888 -0.0507,0.14029 -0.10522,0.30395 -0.0546,0.15977 -0.14029,0.40527 z m -2.14716,-4.07608 q -0.0351,0 -0.0429,-0.0312 -0.008,-0.0312 0.0156,-0.0506 l 1.14566,-0.90797 h 0.52608 l 1.16125,0.90797 q 0.0273,0.0195 0.0156,0.0506 -0.008,0.0312 -0.0429,0.0312 h -0.65466 l -0.77937,-0.42086 q -0.17146,0.10522 -0.34682,0.21043 -0.17535,0.10521 -0.34682,0.21043 z" />
      <path
         id="path13828"
         style="font-style:normal;font-variant:normal;font-weight:normal;font-stretch:normal;font-family:Giaothong2;-inkscape-font-specification:Giaothong2;text-align:start;text-anchor:start;fill:#ffffff;fill-opacity:1;stroke-width:0.264543"
         d="m 506.1141,247.61716 q -0.0468,0 -0.0468,-0.0468 v -5.58416 q 0,-0.0468 0.0468,-0.0468 h 0.80274 q 0.0234,0 0.039,0.0234 l 2.455,3.86566 v -3.84228 q 0,-0.0468 0.0468,-0.0468 h 0.84951 q 0.0468,0 0.0468,0.0468 v 5.58416 q 0,0.0468 -0.0468,0.0468 h -0.79885 q -0.0234,0 -0.039,-0.0234 l -2.4628,-3.86565 v 3.84227 q 0,0.0468 -0.0429,0.0468 z" />
      <path
         id="path13830"
         style="font-style:normal;font-variant:normal;font-weight:normal;font-stretch:normal;font-family:Giaothong2;-inkscape-font-specification:Giaothong2;text-align:start;text-anchor:start;fill:#ffffff;fill-opacity:1;stroke-width:0.264543"
         d="m 512.93745,247.61327 q -0.0273,0 -0.039,-0.0195 -0.0117,-0.0195 -0.004,-0.0429 l 2.04194,-5.58806 q 0.008,-0.0312 0.039,-0.0312 h 0.69753 q 0.0117,0 0.0234,0.0117 0.0156,0.008 0.0195,0.0195 l 2.03804,5.58806 q 0.008,0.0234 -0.004,0.0429 -0.0117,0.0195 -0.0351,0.0195 h -0.89237 q -0.0312,0 -0.039,-0.0312 l -0.42086,-1.2314 H 514.305 q -0.10911,0.31565 -0.21822,0.6196 -0.10521,0.30005 -0.21432,0.6118 -0.004,0.0117 -0.0195,0.0234 -0.0117,0.008 -0.0234,0.008 z m 3.14474,-2.1004 q -0.008,-0.0273 -0.0234,-0.0584 -0.0117,-0.0312 -0.0195,-0.0546 -0.0662,-0.19095 -0.1208,-0.35072 -0.0545,-0.16367 -0.0974,-0.28447 -0.0273,-0.0779 -0.0545,-0.15197 -0.0234,-0.074 -0.0468,-0.14029 -0.0195,-0.0624 -0.039,-0.1169 -0.0195,-0.0585 -0.039,-0.11301 -0.0351,-0.11301 -0.074,-0.22602 -0.0351,-0.11301 -0.074,-0.23381 -0.0195,-0.0546 -0.0429,-0.1208 -0.0195,-0.0662 -0.0429,-0.14029 -0.0117,-0.039 -0.0195,-0.0584 -0.004,-0.0234 -0.0117,-0.0429 -0.008,-0.0234 -0.0195,-0.0507 -0.008,-0.0273 -0.0234,-0.0779 -0.0429,0.1286 -0.0818,0.23771 -0.0351,0.10911 -0.0662,0.20263 -0.008,0.0234 -0.0117,0.0429 -0.004,0.0195 -0.0117,0.039 -0.0195,0.0662 -0.0429,0.12469 -0.0195,0.0585 -0.039,0.11691 -0.0195,0.0623 -0.039,0.1208 -0.0195,0.0584 -0.039,0.11301 -0.039,0.1169 -0.0818,0.2455 -0.039,0.12859 -0.0896,0.26888 -0.0507,0.14029 -0.10522,0.30395 -0.0545,0.15977 -0.14028,0.40527 z" />
      <path
         id="path13832"
         style="font-style:normal;font-variant:normal;font-weight:normal;font-stretch:normal;font-family:Giaothong2;-inkscape-font-specification:Giaothong2;text-align:start;text-anchor:start;fill:#ffffff;fill-opacity:1;stroke-width:0.264543"
         d="m 518.45925,247.61716 q -0.0468,0 -0.0468,-0.0468 v -5.58416 q 0,-0.0468 0.0468,-0.0468 h 0.80275 q 0.0234,0 0.039,0.0234 l 2.455,3.86566 v -3.84228 q 0,-0.0468 0.0468,-0.0468 h 0.8495 q 0.0468,0 0.0468,0.0468 v 5.58416 q 0,0.0468 -0.0468,0.0468 h -0.79885 q -0.0234,0 -0.039,-0.0234 l -2.4628,-3.86565 v 3.84227 q 0,0.0468 -0.0429,0.0468 z" />
    </g>
    <path
       d="m 365.98931,219.01571 h 53.80644 v 49.99999 h -53.80644 z"
       style="opacity:1;fill:#028f45;fill-opacity:1;fill-rule:evenodd;stroke-width:0.0420685;stroke-linecap:square;stroke-miterlimit:10;paint-order:stroke fill markers"
       id="path8953"
       sodipodi:nodetypes="ccccc" />
    <path
       d="m 398.52181,241.91054 c -0.45345,0 -0.83282,0.10902 -1.13774,0.32794 -0.30232,0.21631 -0.52138,0.45095 -0.6569,0.70376 -0.0469,0.0886 -0.0871,0.17854 -0.12099,0.26975 -0.0338,0.0912 -0.06,0.18668 -0.0782,0.28571 -0.0182,0.099 -0.0312,0.2563 -0.0391,0.4726 -0.008,0.21633 -0.0118,0.49517 -0.0118,0.83659 0,0.68282 0.017,1.12094 0.051,1.31381 0.0182,0.099 0.0443,0.19398 0.0783,0.28519 0.0338,0.0887 0.074,0.17755 0.12098,0.26617 0.13553,0.2554 0.35458,0.48951 0.65691,0.70323 0.30753,0.21632 0.68687,0.32485 1.13774,0.32485 0.24758,0 0.47821,-0.0352 0.6919,-0.10554 0.21371,-0.0703 0.41168,-0.17489 0.5941,-0.31301 0.37529,-0.28668 0.61746,-0.69564 0.72691,-1.2273 0.005,-0.0157 0.003,-0.0287 -0.008,-0.0391 -0.0104,-0.0131 -0.0235,-0.0195 -0.0391,-0.0195 h -0.89527 c -0.008,0 -0.0154,0.004 -0.0233,0.0119 -0.008,0.005 -0.0143,0.0102 -0.0195,0.0154 -0.23457,0.49257 -0.57722,0.73876 -1.0281,0.73876 -0.19545,0 -0.36227,-0.0376 -0.5004,-0.11325 -0.13813,-0.0782 -0.24916,-0.17215 -0.33256,-0.2816 -0.0469,-0.06 -0.0897,-0.12879 -0.12871,-0.20697 -0.0364,-0.0808 -0.0656,-0.16168 -0.0865,-0.24247 -0.0208,-0.0886 -0.0349,-0.22428 -0.0428,-0.40671 -0.008,-0.18503 -0.0119,-0.41968 -0.0119,-0.70375 0,-0.27886 0.004,-0.51047 0.0119,-0.69551 0.008,-0.18502 0.0219,-0.32221 0.0428,-0.41083 0.0208,-0.0834 0.05,-0.16377 0.0865,-0.24196 0.0364,-0.0808 0.0792,-0.15264 0.12871,-0.21519 0.0834,-0.10164 0.19443,-0.19158 0.33256,-0.26977 0.13813,-0.0782 0.30495,-0.11737 0.5004,-0.11737 0.26323,0 0.48077,0.0769 0.65279,0.23064 0.0912,0.0782 0.16808,0.16309 0.23064,0.25432 0.0626,0.0887 0.11078,0.18508 0.14467,0.28932 0.005,0.0208 0.0192,0.0314 0.0427,0.0314 h 0.89526 c 0.0157,0 0.0286,-0.006 0.0391,-0.0159 0.0104,-0.0105 0.0128,-0.0235 0.008,-0.0391 -0.0859,-0.46129 -0.30856,-0.8597 -0.66822,-1.19591 -0.35444,-0.33359 -0.80262,-0.5004 -1.3447,-0.5004 z m -19.24117,0.0469 c -0.0313,0 -0.0468,0.0155 -0.0468,0.0468 v 0.7542 c 0,0.0313 0.0155,0.0473 0.0468,0.0473 H 380.77 v 4.80064 c 0,0.0312 0.0155,0.0468 0.0468,0.0468 h 0.84842 c 0.0313,0 0.0468,-0.0156 0.0468,-0.0468 v -4.80066 h 1.48523 c 0.0313,0 0.0473,-0.016 0.0473,-0.0473 v -0.75421 c 0,-0.0313 -0.0161,-0.0468 -0.0473,-0.0468 z m 4.58956,0 c -0.0313,0 -0.0473,0.0155 -0.0473,0.0468 v 5.6022 c 0,0.0313 0.0161,0.0468 0.0473,0.0468 h 0.8479 c 0.0313,0 0.0473,-0.0155 0.0473,-0.0468 v -2.14265 h 1.24687 c 0.5864,0 1.03305,-0.18489 1.34058,-0.55497 0.30752,-0.37268 0.46179,-0.76358 0.46179,-1.17274 0,-0.15639 -0.016,-0.3036 -0.0474,-0.44172 -0.0312,-0.13813 -0.0755,-0.26475 -0.13281,-0.37942 -0.06,-0.11206 -0.12777,-0.21356 -0.20335,-0.30477 -0.0729,-0.0938 -0.15336,-0.17622 -0.24197,-0.24659 -0.22933,-0.17723 -0.44589,-0.28928 -0.64917,-0.33617 -0.20068,-0.0469 -0.41321,-0.07 -0.63735,-0.07 z m 7.64963,0 c -0.0312,0 -0.0468,0.0155 -0.0468,0.0468 v 5.6022 c 0,0.0313 0.0155,0.0468 0.0468,0.0468 h 0.84841 c 0.0313,0 0.0468,-0.0155 0.0468,-0.0468 v -2.40057 h 2.13081 v 2.40057 c 0,0.0313 0.0156,0.0468 0.0468,0.0468 h 0.8484 c 0.0313,0 0.0469,-0.0155 0.0469,-0.0468 v -5.6022 c 0,-0.0313 -0.0155,-0.0468 -0.0469,-0.0468 h -0.8484 c -0.0313,0 -0.0468,0.0155 -0.0468,0.0468 v 2.35321 h -2.13081 v -2.35321 c 0,-0.0313 -0.0155,-0.0468 -0.0468,-0.0468 z m 9.65225,0 c -0.0313,0 -0.0469,0.0155 -0.0469,0.0468 v 5.6022 c 0,0.0313 0.0155,0.0468 0.0469,0.0468 h 0.84841 c 0.0313,0 0.0468,-0.0155 0.0468,-0.0468 v -3.3154 l 1.10222,2.537 c 0.0104,0.0157 0.025,0.0237 0.0432,0.0237 h 0.70735 c 0.0182,0 0.0329,-0.008 0.0432,-0.0237 0.17982,-0.4222 0.36219,-0.84273 0.54724,-1.26232 0.18505,-0.41959 0.36896,-0.84214 0.55138,-1.26695 v 3.30767 c 0,0.0313 0.0156,0.0468 0.0468,0.0468 h 0.84842 c 0.0312,0 0.0468,-0.0155 0.0468,-0.0468 v -5.6022 c 0,-0.0313 -0.0155,-0.0468 -0.0468,-0.0468 h -0.80157 c -0.0208,0 -0.0355,0.009 -0.0432,0.0273 -0.2554,0.59681 -0.51062,1.18968 -0.76602,1.77868 -0.25542,0.58639 -0.50965,1.17827 -0.76246,1.77507 l -1.56759,-3.55376 c -0.0105,-0.0182 -0.0245,-0.0273 -0.0428,-0.0273 z m -16.40661,0.89885 h 1.18407 c 0.23716,0 0.4301,0.0497 0.57865,0.1488 0.22935,0.14855 0.3439,0.38419 0.3439,0.70734 0,0.21632 -0.0738,0.41177 -0.2224,0.58637 -0.14595,0.17984 -0.36903,0.26977 -0.66875,0.26977 h -1.21547 z m 2.6168,3.90954 c -0.0313,0 -0.0468,0.0156 -0.0468,0.0469 v 0.79384 c 0,0.0313 0.0155,0.0468 0.0468,0.0468 h 0.79796 c 0.0286,0 0.0427,-0.0156 0.0427,-0.0468 v -0.79384 c 0,-0.0312 -0.014,-0.0469 -0.0427,-0.0469 z"
       style="opacity:1;fill:#ffffff;fill-opacity:1;fill-rule:evenodd;stroke-width:0.119062;stroke-linecap:square;stroke-miterlimit:10;paint-order:stroke fill markers"
       id="path13542"
       sodipodi:nodetypes="scccscsccccsccccssccsccccsscccccscccsscccsssssscsssscssssscssssscscscccccccssssssccssssssssccsssssssssccsscscsssssssccccsscscscsccsssssssss" />
    <path
       id="path4975"
       d="m 394.08485,257.05528 c 0,3.26231 0,3.26231 0,3.26231 4.17746,-1.07503 4.17746,-1.07503 4.17746,-1.07503 0.0262,-0.0124 0.051,-0.0124 0.0896,-0.0124 0.19296,0 0.35973,0.16677 0.35973,0.35834 0,0.102 -0.0386,0.19158 -0.10337,0.26876 -5.70318,5.17945 -5.70318,5.17945 -5.70318,5.17945 -5.71696,-5.17945 -5.71696,-5.17945 -5.71696,-5.17945 -0.0634,-0.0772 -0.10199,-0.16676 -0.10199,-0.26876 0,-0.19157 0.16676,-0.35834 0.35834,-0.35834 0.0386,0 0.0648,0 0.0896,0.0124 4.17885,1.07503 4.17885,1.07503 4.17885,1.07503 0,-3.26231 0,-3.26231 0,-3.26231 z m 0,0"
       style="opacity:1;fill:#ffffff;fill-opacity:1;fill-rule:nonzero;stroke:none;stroke-width:0.352777" />
    <path
       sodipodi:nodetypes="ssccccssscccccsssccsscccssccssccssscccccccccccsscccscsssssc"
       id="path8997"
       style="color:#000000;font-style:normal;font-variant:normal;font-weight:normal;font-stretch:normal;font-size:medium;line-height:normal;font-family:sans-serif;font-variant-ligatures:normal;font-variant-position:normal;font-variant-caps:normal;font-variant-numeric:normal;font-variant-alternates:normal;font-variant-east-asian:normal;font-feature-settings:normal;font-variation-settings:normal;text-indent:0;text-align:start;text-decoration:none;text-decoration-line:none;text-decoration-style:solid;text-decoration-color:#000000;letter-spacing:normal;word-spacing:normal;text-transform:none;writing-mode:lr-tb;direction:ltr;text-orientation:mixed;dominant-baseline:auto;baseline-shift:baseline;text-anchor:start;white-space:normal;shape-padding:0;shape-margin:0;inline-size:0;clip-rule:nonzero;display:inline;overflow:visible;visibility:visible;opacity:1;isolation:auto;mix-blend-mode:normal;color-interpolation:sRGB;color-interpolation-filters:linearRGB;solid-color:#000000;solid-opacity:1;vector-effect:none;fill:#ffffff;fill-opacity:1;fill-rule:evenodd;stroke:none;stroke-width:0.130175;stroke-linecap:square;stroke-linejoin:miter;stroke-miterlimit:4;stroke-dasharray:none;stroke-dashoffset:0;stroke-opacity:1;paint-order:stroke fill markers;color-rendering:auto;image-rendering:auto;shape-rendering:auto;text-rendering:auto;enable-background:accumulate;stop-color:#000000;stop-opacity:1"
       d="m 367.90578,219.34925 c -0.87108,0 -1.58279,0.71163 -1.58279,1.58278 v 28.75934 2.85232 2.96743 0.84119 10.82646 c 0,0.87113 0.71174,1.58177 1.58279,1.58177 h 49.94364 c 0.871,0 1.58334,-0.71063 1.5833,-1.58177 v -10.82646 -0.81901 -3.4871 -2.35483 -28.75934 c 0,-0.87116 -0.71226,-1.58278 -1.5833,-1.58278 z m 0.005,0.70184 h 0.002 49.93693 c 0.49485,0 0.88196,0.38623 0.88196,0.88094 v 28.75934 2.35483 0.0562 0.43607 c 0,0.49093 -0.39311,0.88456 -0.88402,0.88456 h -0.49233 -0.003 c -0.0122,10e-4 -0.0216,0.002 -0.0284,0.002 H 368.3725 c -0.007,0 -0.0157,-0.001 -0.0274,-0.002 h -0.002 -0.43299 c -0.49083,0 -0.88402,-0.39365 -0.88402,-0.88456 V 220.9361 c 0,-0.0921 0.0147,-0.18143 0.0402,-0.26526 0.001,-0.002 0.002,-0.002 0.003,-0.005 7.1e-4,-0.002 10e-4,-0.004 0.002,-0.006 v -0.001 c 0.11276,-0.35602 0.44018,-0.60742 0.83912,-0.60742 z m -0.0134,34.07849 h 0.003 0.001 0.42111 49.03587 0.49129 c 0.48814,0 0.87943,0.39131 0.87938,0.87939 v 0.45981 0.0645 0.81901 10.82646 c 0,0.30999 -0.15304,0.57619 -0.38809,0.73283 -0.14045,0.0949 -0.30982,0.15069 -0.49335,0.15069 h -49.95003 c -0.48814,0 -0.87939,-0.39129 -0.87939,-0.87939 v -12.17393 c 0,-0.48785 0.39458,-0.93809 0.87887,-0.87939 z" />
    <path
       d="m 381.57984,225.87111 h 22.21888 v 10.15153 h -22.21888 z"
       style="font-size:15.1831px;line-height:1.46;font-family:'Singapore Road Signs';-inkscape-font-specification:'Singapore Road Signs';text-align:center;text-anchor:middle;opacity:1;fill:#ffd70f;fill-opacity:1;fill-rule:evenodd;stroke:none;stroke-width:0.553506;stroke-linecap:square;stroke-miterlimit:10;stroke-dasharray:none;stroke-opacity:1;paint-order:stroke fill markers"
       id="path2220-5" />
    <path
       id="path2222-4"
       d="m 382.33236,226.07768 c -0.29598,0 -0.538,0.24088 -0.538,0.53685 v 8.66467 c 0,0.29599 0.24202,0.53686 0.538,0.53686 h 20.72184 c 0.29597,0 0.53797,-0.24087 0.53797,-0.53686 v -8.66467 c 0,-0.29597 -0.24201,-0.53685 -0.53797,-0.53685 z m 0,0.19522 h 20.72184 c 0.19071,0 0.34161,0.15092 0.34161,0.34163 v 8.66467 c 0,0.19071 -0.15087,0.34052 -0.34161,0.34052 h -20.72184 c -0.19072,0 -0.34163,-0.14981 -0.34163,-0.34052 v -8.66467 c 0,-0.19071 0.15088,-0.34163 0.34163,-0.34163 z"
       style="color:#000000;font-style:normal;font-variant:normal;font-weight:normal;font-stretch:normal;font-size:medium;line-height:normal;font-family:sans-serif;-inkscape-font-specification:'Singapore Road Signs';font-variant-ligatures:normal;font-variant-position:normal;font-variant-caps:normal;font-variant-numeric:normal;font-variant-alternates:normal;font-variant-east-asian:normal;font-feature-settings:normal;font-variation-settings:normal;text-indent:0;text-align:start;text-decoration:none;text-decoration-line:none;text-decoration-style:solid;text-decoration-color:#000000;letter-spacing:normal;word-spacing:normal;text-transform:none;writing-mode:lr-tb;direction:ltr;text-orientation:mixed;dominant-baseline:auto;baseline-shift:baseline;text-anchor:start;white-space:normal;shape-padding:0;shape-margin:0;inline-size:0;clip-rule:nonzero;display:inline;overflow:visible;visibility:visible;opacity:1;isolation:auto;mix-blend-mode:normal;color-interpolation:sRGB;color-interpolation-filters:linearRGB;solid-color:#000000;solid-opacity:1;vector-effect:none;fill:#000000;fill-opacity:1;fill-rule:evenodd;stroke:none;stroke-width:0.119061;stroke-linecap:square;stroke-linejoin:miter;stroke-miterlimit:10;stroke-dasharray:none;stroke-dashoffset:0;stroke-opacity:1;paint-order:stroke fill markers;color-rendering:auto;image-rendering:auto;shape-rendering:auto;text-rendering:auto;enable-background:accumulate;stop-color:#000000;stop-opacity:1" />
    <path
       d="m 386.23901,227.6999 c -0.49972,0 -0.91782,0.12053 -1.25385,0.36179 -0.33318,0.23838 -0.57422,0.49688 -0.72358,0.77549 -0.0518,0.0976 -0.0963,0.19655 -0.13354,0.29708 -0.0374,0.10052 -0.066,0.20583 -0.0858,0.31498 -0.0202,0.10914 -0.0347,0.28257 -0.0434,0.52096 -0.007,0.23839 -0.0132,0.54567 -0.0132,0.92192 0,0.75251 0.0187,1.23459 0.0561,1.44713 0.0202,0.10915 0.0486,0.21444 0.0858,0.31497 0.0374,0.0976 0.0819,0.19519 0.13352,0.29283 0.14943,0.28149 0.39041,0.53999 0.72357,0.77549 0.33892,0.23841 0.75697,0.35753 1.25386,0.35753 0.27287,0 0.52723,-0.0392 0.76274,-0.11662 0.23552,-0.0776 0.45356,-0.19169 0.6546,-0.34392 0.41359,-0.31592 0.68043,-0.76757 0.80105,-1.35349 0.006,-0.0171 0.003,-0.0311 -0.007,-0.0426 -0.0117,-0.0143 -0.0254,-0.0213 -0.0425,-0.0213 h -0.98661 c -0.009,10e-6 -0.0177,0.004 -0.0264,0.0127 -0.009,0.006 -0.0165,0.0111 -0.0213,0.0169 -0.25847,0.54283 -0.63614,0.81463 -1.13302,0.81463 -0.2154,0 -0.39938,-0.0419 -0.55161,-0.12512 -0.15217,-0.0861 -0.27411,-0.1901 -0.366,-0.31073 -0.0517,-0.066 -0.0989,-0.14196 -0.14218,-0.22813 -0.0402,-0.089 -0.0716,-0.17826 -0.0945,-0.26729 -0.023,-0.0976 -0.0392,-0.24672 -0.0476,-0.44777 -0.007,-0.20391 -0.0132,-0.46243 -0.0132,-0.77549 0,-0.30732 0.003,-0.56307 0.0132,-0.76699 0.007,-0.20392 0.0248,-0.35437 0.0476,-0.45201 0.023,-0.0919 0.0542,-0.18113 0.0945,-0.2673 0.0402,-0.0891 0.0876,-0.16772 0.14218,-0.23666 0.0919,-0.112 0.2138,-0.21176 0.366,-0.29792 0.1522,-0.0861 0.33621,-0.12854 0.55161,-0.12854 0.2901,1e-5 0.52975,0.0843 0.71932,0.25368 0.10054,0.0861 0.1856,0.17955 0.25453,0.28005 0.0689,0.0976 0.12195,0.20436 0.15912,0.31924 0.006,0.023 0.0219,0.0339 0.0476,0.0339 h 0.98661 c 0.017,0 0.0311,-0.006 0.0425,-0.0169 0.0117,-0.0116 0.0147,-0.0263 0.009,-0.0434 -0.0947,-0.50835 -0.33999,-0.94722 -0.73635,-1.31773 -0.39059,-0.36764 -0.8846,-0.55162 -1.48204,-0.55162 z m 10.11974,0.0383 c -0.46815,0 -0.88349,0.15958 -1.24537,0.4784 -0.36477,0.31307 -0.54735,0.7597 -0.54735,1.33987 v 2.70956 c 0,0.58017 0.18258,1.02681 0.54735,1.33987 0.36188,0.31594 0.77722,0.47415 1.24537,0.47415 0.46817,0 0.88352,-0.1582 1.24541,-0.47415 0.36762,-0.31593 0.55074,-0.76256 0.55074,-1.33987 v -2.70956 c 0,-0.2872 -0.0473,-0.54156 -0.14218,-0.76272 -0.0918,-0.22404 -0.22764,-0.41631 -0.40857,-0.57715 -0.18097,-0.15509 -0.37685,-0.27285 -0.58653,-0.35327 -0.20679,-0.0833 -0.42624,-0.12514 -0.65889,-0.12514 z m -7.70727,0.0127 c -0.0345,0 -0.0519,0.0174 -0.0519,0.052 v 0.83167 c 0,0.0345 0.0174,0.0519 0.0519,0.0519 h 1.64122 v 5.29056 c 0,0.0345 0.0174,0.0511 0.0519,0.0511 h 0.9347 c 0.0345,0 0.0519,-0.0166 0.0519,-0.0511 v -5.29055 h 1.63693 c 0.0345,0 0.0519,-0.0174 0.0519,-0.0519 v -0.83168 c 0,-0.0344 -0.0174,-0.052 -0.0519,-0.052 z m 11.39408,0.0434 -0.88788,0.64184 c -0.006,0.006 -0.0117,0.0126 -0.0169,0.0213 -0.003,0.009 -0.006,0.0162 -0.006,0.0222 v 0.93467 c 0,0.023 0.0103,0.0405 0.0265,0.0519 0.0169,0.009 0.036,0.006 0.0561,-0.009 0.13205,-0.0948 0.26374,-0.19092 0.39584,-0.28859 0.13206,-0.10051 0.26458,-0.20028 0.39667,-0.29792 v 5.11861 c 0,0.0345 0.0177,0.0519 0.0519,0.0519 h 0.88276 c 0.0345,0 0.0512,-0.0174 0.0512,-0.0519 v -6.14354 c 0,-0.0344 -0.0165,-0.0519 -0.0512,-0.0519 z m -3.68681,0.92617 c 0.24701,0 0.44346,0.0795 0.58991,0.2375 0.14944,0.15509 0.22391,0.37176 0.22391,0.65036 v 2.60654 c 0,0.28148 -0.0746,0.49953 -0.22391,0.65462 -0.14642,0.1551 -0.3429,0.2324 -0.58991,0.2324 -0.24699,0 -0.44341,-0.0773 -0.5899,-0.2324 -0.14642,-0.1551 -0.22049,-0.37314 -0.22049,-0.65462 v -2.60654 c 0,-0.27859 0.0738,-0.49526 0.22049,-0.65036 0.14644,-0.15797 0.34291,-0.2375 0.5899,-0.2375 z m -3.64336,4.32951 c -0.0345,0 -0.0519,0.0174 -0.0519,0.052 v 0.87509 c 0,0.0345 0.0174,0.0511 0.0519,0.0511 h 0.8785 c 0.0317,0 0.0476,-0.0166 0.0476,-0.0511 v -0.87509 c 0,-0.0345 -0.0165,-0.052 -0.0476,-0.052 z"
       style="font-style:normal;font-variant:normal;font-weight:normal;font-stretch:normal;font-size:15.1831px;line-height:1.46;font-family:'Alte DIN 1451 Mittelschrift gepraegt';-inkscape-font-specification:'Alte DIN 1451 Mittelschrift gepraegt';text-align:center;text-anchor:middle;opacity:1;fill:#000000;fill-opacity:1;stroke-width:0.264583"
       id="path2224-6" />
    <path
       id="path6466"
       style="font-size:15.1831px;line-height:1.46;font-family:'Singapore Road Signs';-inkscape-font-specification:'Singapore Road Signs';text-align:center;text-anchor:middle;opacity:1;fill:#ffd70f;fill-opacity:1;fill-rule:evenodd;stroke:none;stroke-width:0.553506;stroke-linecap:square;stroke-miterlimit:10;stroke-dasharray:none;stroke-opacity:1;paint-order:stroke fill markers"
       d="m 437.94445,225.87111 h 22.21888 v 10.15153 h -22.21888 z" />
    <path
       style="color:#000000;font-style:normal;font-variant:normal;font-weight:normal;font-stretch:normal;font-size:medium;line-height:normal;font-family:sans-serif;-inkscape-font-specification:'Singapore Road Signs';font-variant-ligatures:normal;font-variant-position:normal;font-variant-caps:normal;font-variant-numeric:normal;font-variant-alternates:normal;font-variant-east-asian:normal;font-feature-settings:normal;font-variation-settings:normal;text-indent:0;text-align:start;text-decoration:none;text-decoration-line:none;text-decoration-style:solid;text-decoration-color:#000000;letter-spacing:normal;word-spacing:normal;text-transform:none;writing-mode:lr-tb;direction:ltr;text-orientation:mixed;dominant-baseline:auto;baseline-shift:baseline;text-anchor:start;white-space:normal;shape-padding:0;shape-margin:0;inline-size:0;clip-rule:nonzero;display:inline;overflow:visible;visibility:visible;opacity:1;isolation:auto;mix-blend-mode:normal;color-interpolation:sRGB;color-interpolation-filters:linearRGB;solid-color:#000000;solid-opacity:1;vector-effect:none;fill:#000000;fill-opacity:1;fill-rule:evenodd;stroke:none;stroke-width:0.119061;stroke-linecap:square;stroke-linejoin:miter;stroke-miterlimit:10;stroke-dasharray:none;stroke-dashoffset:0;stroke-opacity:1;paint-order:stroke fill markers;color-rendering:auto;image-rendering:auto;shape-rendering:auto;text-rendering:auto;enable-background:accumulate;stop-color:#000000;stop-opacity:1"
       d="m 438.69696,226.07768 c -0.29597,0 -0.53799,0.24088 -0.53799,0.53685 v 8.66467 c 0,0.29599 0.24202,0.53686 0.53799,0.53686 h 20.72185 c 0.29596,0 0.53797,-0.24087 0.53797,-0.53686 v -8.66467 c 0,-0.29597 -0.24202,-0.53685 -0.53797,-0.53685 z m 0,0.19522 h 20.72185 c 0.19071,0 0.34161,0.15092 0.34161,0.34163 v 8.66467 c 0,0.19071 -0.15087,0.34052 -0.34161,0.34052 h -20.72185 c -0.19071,0 -0.34162,-0.14981 -0.34162,-0.34052 v -8.66467 c 0,-0.19071 0.15088,-0.34163 0.34162,-0.34163 z"
       id="path6468" />
    <path
       id="path6470"
       style="font-style:normal;font-variant:normal;font-weight:normal;font-stretch:normal;font-size:15.1831px;line-height:1.46;font-family:'Alte DIN 1451 Mittelschrift gepraegt';-inkscape-font-specification:'Alte DIN 1451 Mittelschrift gepraegt';text-align:center;text-anchor:middle;opacity:1;fill:#000000;fill-opacity:1;stroke-width:0.264583"
       d="m 442.60362,227.6999 c -0.49974,0 -0.91782,0.12053 -1.25385,0.36179 -0.33318,0.23838 -0.57423,0.49688 -0.72358,0.77549 -0.0518,0.0976 -0.0963,0.19655 -0.13354,0.29708 -0.0374,0.10052 -0.066,0.20583 -0.0858,0.31498 -0.0202,0.10914 -0.0347,0.28257 -0.0434,0.52096 -0.007,0.23839 -0.0132,0.54567 -0.0132,0.92192 0,0.75251 0.0186,1.23459 0.0561,1.44713 0.0202,0.10915 0.0486,0.21444 0.0858,0.31497 0.0374,0.0976 0.0819,0.19519 0.13353,0.29283 0.14942,0.28149 0.39041,0.53999 0.72357,0.77549 0.33892,0.23841 0.75696,0.35753 1.25386,0.35753 0.27287,0 0.52723,-0.0392 0.76273,-0.11662 0.23553,-0.0776 0.45357,-0.19169 0.65461,-0.34392 0.41359,-0.31592 0.68042,-0.76757 0.80105,-1.35349 0.006,-0.0171 0.003,-0.0311 -0.007,-0.0426 -0.0118,-0.0143 -0.0254,-0.0213 -0.0425,-0.0213 h -0.98661 c -0.009,10e-6 -0.0177,0.004 -0.0264,0.0127 -0.009,0.006 -0.0165,0.0111 -0.0213,0.0169 -0.25847,0.54283 -0.63615,0.81463 -1.13302,0.81463 -0.2154,0 -0.39938,-0.0419 -0.55161,-0.12512 -0.15218,-0.0861 -0.27412,-0.1901 -0.366,-0.31073 -0.0517,-0.066 -0.0989,-0.14196 -0.14218,-0.22813 -0.0402,-0.089 -0.0716,-0.17826 -0.0945,-0.26729 -0.023,-0.0976 -0.0392,-0.24672 -0.0476,-0.44777 -0.007,-0.20391 -0.0132,-0.46243 -0.0132,-0.77549 0,-0.30732 0.003,-0.56307 0.0132,-0.76699 0.007,-0.20392 0.0248,-0.35437 0.0476,-0.45201 0.023,-0.0919 0.0542,-0.18113 0.0945,-0.2673 0.0402,-0.0891 0.0876,-0.16772 0.14218,-0.23666 0.0919,-0.112 0.21379,-0.21176 0.366,-0.29792 0.15221,-0.0861 0.33621,-0.12854 0.55161,-0.12854 0.2901,1e-5 0.52975,0.0843 0.71932,0.25368 0.10054,0.0861 0.18559,0.17955 0.25452,0.28005 0.0689,0.0976 0.12195,0.20436 0.15913,0.31924 0.006,0.023 0.0219,0.0339 0.0476,0.0339 h 0.9866 c 0.017,0 0.0311,-0.006 0.0425,-0.0169 0.0117,-0.0116 0.0147,-0.0263 0.009,-0.0434 -0.0947,-0.50835 -0.33998,-0.94722 -0.73634,-1.31773 -0.3906,-0.36764 -0.88461,-0.55162 -1.48204,-0.55162 z m 10.11974,0.0383 c -0.46815,0 -0.88349,0.15958 -1.24539,0.4784 -0.36476,0.31307 -0.54733,0.7597 -0.54733,1.33987 v 2.70956 c 0,0.58017 0.18257,1.02681 0.54733,1.33987 0.3619,0.31594 0.77724,0.47415 1.24539,0.47415 0.46816,0 0.88351,-0.1582 1.2454,-0.47415 0.36762,-0.31593 0.55074,-0.76256 0.55074,-1.33987 v -2.70956 c 0,-0.2872 -0.0473,-0.54156 -0.14217,-0.76272 -0.0918,-0.22404 -0.22764,-0.41631 -0.40857,-0.57715 -0.18097,-0.15509 -0.37687,-0.27285 -0.58653,-0.35327 -0.20679,-0.0833 -0.42624,-0.12514 -0.65889,-0.12514 z m -7.70728,0.0127 c -0.0345,0 -0.0519,0.0174 -0.0519,0.052 v 0.83167 c 0,0.0345 0.0174,0.0519 0.0519,0.0519 h 1.64122 v 5.29056 c 0,0.0345 0.0174,0.0511 0.0519,0.0511 h 0.93469 c 0.0345,0 0.0519,-0.0166 0.0519,-0.0511 v -5.29055 h 1.63693 c 0.0345,0 0.0519,-0.0174 0.0519,-0.0519 v -0.83168 c 0,-0.0344 -0.0174,-0.052 -0.0519,-0.052 z m 11.39409,0.0434 -0.8879,0.64184 c -0.006,0.006 -0.0117,0.0126 -0.0169,0.0213 -0.003,0.009 -0.006,0.0162 -0.006,0.0222 v 0.93467 c 0,0.023 0.0103,0.0405 0.0265,0.0519 0.0169,0.009 0.0361,0.006 0.0561,-0.009 0.13206,-0.0948 0.26375,-0.19092 0.39585,-0.28859 0.13205,-0.10051 0.26457,-0.20028 0.39667,-0.29792 v 5.11861 c 0,0.0345 0.0176,0.0519 0.0519,0.0519 h 0.88276 c 0.0345,0 0.0512,-0.0174 0.0512,-0.0519 v -6.14354 c 0,-0.0344 -0.0165,-0.0519 -0.0512,-0.0519 z m -3.68681,0.92617 c 0.24701,0 0.44346,0.0795 0.58991,0.2375 0.14943,0.15509 0.2239,0.37176 0.2239,0.65036 v 2.60654 c 0,0.28148 -0.0746,0.49953 -0.2239,0.65462 -0.14642,0.1551 -0.3429,0.2324 -0.58991,0.2324 -0.24701,0 -0.44341,-0.0773 -0.58991,-0.2324 -0.14641,-0.1551 -0.22048,-0.37314 -0.22048,-0.65462 v -2.60654 c 0,-0.27859 0.0738,-0.49526 0.22048,-0.65036 0.14645,-0.15797 0.3429,-0.2375 0.58991,-0.2375 z m -3.64337,4.32951 c -0.0345,0 -0.0519,0.0174 -0.0519,0.052 v 0.87509 c 0,0.0345 0.0174,0.0511 0.0519,0.0511 h 0.87851 c 0.0317,0 0.0476,-0.0166 0.0476,-0.0511 v -0.87509 c 0,-0.0345 -0.0165,-0.052 -0.0476,-0.052 z" />
    <g
       aria-label="LONG THÀNH"
       id="g13872"
       style="font-size:7.95413px;line-height:1.3;font-family:'Singapore Road Signs';-inkscape-font-specification:'Singapore Road Signs';text-align:center;text-anchor:middle;opacity:1;fill:#ffffff;fill-opacity:1;stroke-width:0.264583">
      <path
         d="m 426.66118,247.62383 q -0.0466,0 -0.0466,-0.0466 v -5.56556 q 0,-0.0466 0.0466,-0.0466 h 0.84279 q 0.0466,0 0.0466,0.0466 v 4.72664 h 2.66821 q 0.0466,0 0.0466,0.0466 v 0.79231 q 0,0.0466 -0.0466,0.0466 z"
         style="font-style:normal;font-variant:normal;font-weight:normal;font-stretch:normal;font-family:Giaothong2;-inkscape-font-specification:Giaothong2;fill:#ffffff;fill-opacity:1;stroke-width:0.264583"
         id="path13854" />
      <path
         d="m 430.85574,244.79639 q 0,-0.50879 0.0116,-0.83115 0.0155,-0.32236 0.0388,-0.46994 0.0272,-0.14759 0.0777,-0.28352 0.0505,-0.13594 0.12429,-0.26799 h -0.004 q 0.20196,-0.37673 0.65249,-0.69909 0.45441,-0.32625 1.1302,-0.32625 0.66803,0 1.12244,0.32625 0.45829,0.33012 0.66025,0.69909 0.1437,0.2641 0.19419,0.55151 0.0272,0.14758 0.0388,0.46994 0.0155,0.32236 0.0155,0.83115 0,0.99815 -0.0544,1.30497 -0.0272,0.15147 -0.0777,0.28741 -0.0466,0.13593 -0.11264,0.26022 -0.20584,0.37285 -0.66413,0.69909 -0.4583,0.32236 -1.12244,0.32236 -0.6719,0 -1.1302,-0.32236 -0.45053,-0.31848 -0.65249,-0.69909 h 0.004 q -0.0738,-0.13205 -0.12429,-0.26411 -0.0505,-0.13593 -0.0777,-0.28352 -0.0233,-0.14758 -0.0388,-0.46994 -0.0116,-0.32625 -0.0116,-0.83503 z m 0.93601,0 q 0,0.42334 0.0117,0.69909 0.0116,0.27187 0.0427,0.40392 0.0311,0.1204 0.0854,0.2408 0.0583,0.11652 0.12817,0.20585 0.12429,0.16312 0.33013,0.27963 0.20584,0.11263 0.49713,0.11263 0.28741,0 0.49325,-0.11263 0.20585,-0.11651 0.32625,-0.27963 0.16312,-0.19808 0.21361,-0.44665 0.0621,-0.24856 0.0621,-1.10301 0,-0.42334 -0.0155,-0.69521 -0.0155,-0.27575 -0.0466,-0.40392 -0.0272,-0.12429 -0.0816,-0.2408 -0.0544,-0.1204 -0.12817,-0.21361 -0.0583,-0.0738 -0.1437,-0.14371 -0.0816,-0.0699 -0.18643,-0.12039 -0.10486,-0.0544 -0.22915,-0.0854 -0.12428,-0.035 -0.2641,-0.035 -0.29129,0 -0.49713,0.11651 -0.20584,0.11652 -0.33013,0.26799 -0.0738,0.0932 -0.12817,0.21361 -0.0544,0.11651 -0.0854,0.2408 -0.0311,0.13205 -0.0427,0.4078 -0.0117,0.27576 -0.0117,0.69133 z"
         style="font-style:normal;font-variant:normal;font-weight:normal;font-stretch:normal;font-family:Giaothong2;-inkscape-font-specification:Giaothong2;fill:#ffffff;fill-opacity:1;stroke-width:0.264583"
         id="path13856" />
      <path
         d="m 435.93582,247.62383 q -0.0466,0 -0.0466,-0.0466 v -5.56556 q 0,-0.0466 0.0466,-0.0466 h 0.80007 q 0.0233,0 0.0388,0.0233 l 2.44683,3.85278 v -3.82947 q 0,-0.0466 0.0466,-0.0466 h 0.84668 q 0.0466,0 0.0466,0.0466 v 5.56556 q 0,0.0466 -0.0466,0.0466 h -0.79619 q -0.0233,0 -0.0388,-0.0233 l -2.45459,-3.85278 v 3.82948 q 0,0.0466 -0.0427,0.0466 z"
         style="font-style:normal;font-variant:normal;font-weight:normal;font-stretch:normal;font-family:Giaothong2;-inkscape-font-specification:Giaothong2;fill:#ffffff;fill-opacity:1;stroke-width:0.264583"
         id="path13858" />
      <path
         d="m 443.1792,245.35955 q -0.0466,0 -0.0466,-0.0466 v -0.80007 q 0,-0.0427 0.0466,-0.0427 h 1.97688 q 0.0466,0 0.0466,0.0427 v 1.13408 q 0,0.85833 -0.59035,1.43703 -0.59811,0.58646 -1.44091,0.58646 -0.6719,0 -1.1302,-0.32236 -0.45052,-0.31848 -0.65248,-0.69909 h 0.004 q -0.0738,-0.13205 -0.12428,-0.26411 -0.0505,-0.13593 -0.0777,-0.28352 -0.0233,-0.14758 -0.0388,-0.46994 -0.0117,-0.32625 -0.0117,-0.83503 0,-0.50879 0.0117,-0.83115 0.0155,-0.32236 0.0388,-0.46994 0.0272,-0.14759 0.0777,-0.28352 0.0505,-0.13594 0.12428,-0.26799 h -0.004 q 0.20196,-0.37673 0.65248,-0.69909 0.45441,-0.32625 1.1302,-0.32625 0.80785,0 1.33605,0.49714 0.53597,0.49713 0.66414,1.18846 0.008,0.0233 -0.008,0.0388 -0.0155,0.0155 -0.0388,0.0155 h -0.8894 q -0.0349,0 -0.0427,-0.0311 -0.0505,-0.15536 -0.1437,-0.28741 -0.0932,-0.13593 -0.22915,-0.25245 -0.25634,-0.22914 -0.64861,-0.22914 -0.29128,0 -0.49713,0.11651 -0.20584,0.11652 -0.33013,0.26799 -0.0738,0.0932 -0.12816,0.21361 -0.0544,0.11651 -0.0854,0.2408 -0.0311,0.13205 -0.0427,0.4078 -0.0117,0.27576 -0.0117,0.69133 0,0.42334 0.0117,0.69909 0.0116,0.27187 0.0427,0.40392 0.0311,0.1204 0.0854,0.2408 0.0583,0.11652 0.12816,0.20585 0.12429,0.16312 0.33013,0.27963 0.20585,0.11263 0.49713,0.11263 0.46218,0 0.77678,-0.31459 0.31847,-0.31459 0.31847,-0.82337 v -0.2408 z"
         style="font-style:normal;font-variant:normal;font-weight:normal;font-stretch:normal;font-family:Giaothong2;-inkscape-font-specification:Giaothong2;fill:#ffffff;fill-opacity:1;stroke-width:0.264583"
         id="path13860" />
      <path
         d="m 449.09043,247.62383 q -0.0466,0 -0.0466,-0.0466 v -4.76937 h -1.47975 q -0.0466,0 -0.0466,-0.0466 v -0.74958 q 0,-0.0466 0.0466,-0.0466 h 3.89162 q 0.0466,0 0.0466,0.0466 v 0.74958 q 0,0.0466 -0.0466,0.0466 h -1.47586 v 4.76937 q 0,0.0466 -0.0466,0.0466 z"
         style="font-style:normal;font-variant:normal;font-weight:normal;font-stretch:normal;font-family:Giaothong2;-inkscape-font-specification:Giaothong2;fill:#ffffff;fill-opacity:1;stroke-width:0.264583"
         id="path13862" />
      <path
         d="m 455.17642,247.62383 q -0.0466,0 -0.0466,-0.0466 v -2.38469 h -2.1167 v 2.38469 q 0,0.0466 -0.0466,0.0466 h -0.8428 q -0.0466,0 -0.0466,-0.0466 v -5.56556 q 0,-0.0466 0.0466,-0.0466 h 0.8428 q 0.0466,0 0.0466,0.0466 v 2.33808 h 2.1167 v -2.33808 q 0,-0.0466 0.0466,-0.0466 h 0.8428 q 0.0466,0 0.0466,0.0466 v 5.56556 q 0,0.0466 -0.0466,0.0466 z"
         style="font-style:normal;font-variant:normal;font-weight:normal;font-stretch:normal;font-family:Giaothong2;-inkscape-font-specification:Giaothong2;fill:#ffffff;fill-opacity:1;stroke-width:0.264583"
         id="path13864" />
      <path
         d="m 456.73385,247.61995 q -0.0272,0 -0.0388,-0.0194 -0.0117,-0.0194 -0.004,-0.0427 l 2.03513,-5.56945 q 0.008,-0.0311 0.0388,-0.0311 h 0.69521 q 0.0117,0 0.0233,0.0117 0.0155,0.008 0.0194,0.0194 l 2.03125,5.56945 q 0.008,0.0233 -0.004,0.0427 -0.0117,0.0194 -0.035,0.0194 h -0.8894 q -0.0311,0 -0.0388,-0.0311 l -0.41946,-1.2273 h -2.05067 q -0.10875,0.31459 -0.2175,0.61753 -0.10486,0.29906 -0.21361,0.60977 -0.004,0.0117 -0.0194,0.0233 -0.0116,0.008 -0.0233,0.008 z m 3.13427,-2.0934 q -0.008,-0.0272 -0.0233,-0.0583 -0.0116,-0.0311 -0.0194,-0.0544 -0.066,-0.19031 -0.12039,-0.34955 -0.0544,-0.16312 -0.0971,-0.28352 -0.0272,-0.0777 -0.0544,-0.15147 -0.0233,-0.0738 -0.0466,-0.13982 -0.0194,-0.0621 -0.0388,-0.11651 -0.0194,-0.0583 -0.0388,-0.11263 -0.0349,-0.11263 -0.0738,-0.22527 -0.035,-0.11263 -0.0738,-0.23303 -0.0194,-0.0544 -0.0427,-0.1204 -0.0194,-0.066 -0.0427,-0.13982 -0.0117,-0.0388 -0.0194,-0.0582 -0.004,-0.0233 -0.0116,-0.0427 -0.008,-0.0233 -0.0194,-0.0505 -0.008,-0.0272 -0.0233,-0.0777 -0.0427,0.12816 -0.0816,0.23691 -0.035,0.10875 -0.066,0.20196 -0.008,0.0233 -0.0116,0.0427 -0.004,0.0194 -0.0117,0.0388 -0.0194,0.066 -0.0427,0.12429 -0.0194,0.0582 -0.0388,0.11651 -0.0194,0.0621 -0.0388,0.1204 -0.0194,0.0583 -0.0388,0.11263 -0.0388,0.11652 -0.0816,0.24469 -0.0388,0.12816 -0.0893,0.26798 -0.0505,0.13982 -0.10486,0.30294 -0.0544,0.15924 -0.13982,0.40392 z m -0.51267,-4.06251 q -0.008,0 -0.0194,-0.004 -0.0116,-0.008 -0.0155,-0.0117 l -1.07194,-1.13409 q -0.0233,-0.0233 -0.0117,-0.0505 0.0155,-0.0272 0.0466,-0.0272 h 0.85444 q 0.0233,0 0.0388,0.0233 l 0.81173,1.13408 q 0.0117,0.0272 0,0.0505 -0.008,0.0194 -0.0388,0.0194 z"
         style="font-style:normal;font-variant:normal;font-weight:normal;font-stretch:normal;font-family:Giaothong2;-inkscape-font-specification:Giaothong2;fill:#ffffff;fill-opacity:1;stroke-width:0.264583"
         id="path13866" />
      <path
         d="m 462.23727,247.62383 q -0.0466,0 -0.0466,-0.0466 v -5.56556 q 0,-0.0466 0.0466,-0.0466 h 0.80007 q 0.0233,0 0.0388,0.0233 l 2.44683,3.85278 v -3.82947 q 0,-0.0466 0.0466,-0.0466 h 0.84668 q 0.0466,0 0.0466,0.0466 v 5.56556 q 0,0.0466 -0.0466,0.0466 h -0.79619 q -0.0233,0 -0.0388,-0.0233 l -2.4546,-3.85278 v 3.82948 q 0,0.0466 -0.0427,0.0466 z"
         style="font-style:normal;font-variant:normal;font-weight:normal;font-stretch:normal;font-family:Giaothong2;-inkscape-font-specification:Giaothong2;fill:#ffffff;fill-opacity:1;stroke-width:0.264583"
         id="path13868" />
      <path
         d="m 470.72737,247.62383 q -0.0466,0 -0.0466,-0.0466 v -2.38469 h -2.1167 v 2.38469 q 0,0.0466 -0.0466,0.0466 h -0.8428 q -0.0466,0 -0.0466,-0.0466 v -5.56556 q 0,-0.0466 0.0466,-0.0466 h 0.8428 q 0.0466,0 0.0466,0.0466 v 2.33808 h 2.1167 v -2.33808 q 0,-0.0466 0.0466,-0.0466 h 0.8428 q 0.0466,0 0.0466,0.0466 v 5.56556 q 0,0.0466 -0.0466,0.0466 z"
         style="font-style:normal;font-variant:normal;font-weight:normal;font-stretch:normal;font-family:Giaothong2;-inkscape-font-specification:Giaothong2;fill:#ffffff;fill-opacity:1;stroke-width:0.264583"
         id="path13870" />
    </g>
  </g>
</svg>
