<?xml version="1.0" encoding="utf-8"?>
<!-- Generator: Adobe Illustrator 21.0.0, SVG Export Plug-In . SVG Version: 6.00 Build 0)  -->
<svg version="1.1" id="Layer_1" xmlns="http://www.w3.org/2000/svg" xmlns:xlink="http://www.w3.org/1999/xlink" x="0px" y="0px"
	 viewBox="0 0 122 57" style="enable-background:new 0 0 122 57;" xml:space="preserve">
<style type="text/css">
	.st0{fill:#FFFFFF;stroke:#000000;stroke-width:2;stroke-miterlimit:10;}
</style>
<path class="st0" d="M119,56H3c-1.1,0-2-0.9-2-2V3c0-1.1,0.9-2,2-2h116c1.1,0,2,0.9,2,2v51C121,55.1,120.1,56,119,56z"/>
<g>
	<path d="M29,44.9c-1.2,0.8-2.9,1.1-4.8,1.1C17.1,46,14,40.6,14,28.7s3.1-17.3,10.2-17.3s10.2,5.4,10.2,17.3c0,6.1-1,10.8-2.4,13.2
		l3.1,3.6l-2.9,2.8L29,44.9z M26.4,36.2l2,2.2c0.7-2,1-5.1,1-9.8c0-11.2-2.3-13.1-5.2-13.1s-5.2,2-5.2,13.1C18.9,40,21.2,42,24.2,42
		c0.6,0,1.2-0.1,1.8-0.3l-2.3-2.5L26.4,36.2z"/>
	<path d="M38.1,12.1H43v28.8h11.9v4.5H38.1V12.1z"/>
	<path d="M57.9,39.2h4.9v6.1h-4.9V39.2z"/>
	<path d="M65.7,40.6c-0.2,0-0.3-0.1-0.3-0.3v-4.6l10.6-24l0.1-0.1l0.1-0.1h5c0.1,0,0.2,0,0.2,0.1s0.1,0.2,0,0.3L70.9,35.4h7.5V26
		c0-0.2,0.1-0.3,0.3-0.3h4.5c0.2,0,0.3,0.1,0.3,0.3v9.4h2.3c0.2,0,0.2,0.1,0.2,0.3v4.5c0,0.2-0.1,0.3-0.2,0.3h-2.3v4.7
		c0,0.2-0.1,0.3-0.3,0.3h-4.5c-0.2,0-0.3-0.1-0.3-0.3v-4.7C78.4,40.5,65.7,40.5,65.7,40.6z"/>
	<path d="M88.7,12.1h16.6v4.5H93.6v9.2h11v4.5h-11v10.6h12v4.5h-17L88.7,12.1L88.7,12.1z"/>
</g>
</svg>
