<?xml version="1.0" encoding="UTF-8" standalone="no"?>
<!-- Created with Inkscape (http://www.inkscape.org/) -->

<svg
   width="600mm"
   height="800mm"
   viewBox="0 0 600 800"
   version="1.1"
   id="svg848"
   inkscape:version="1.2.2 (732a01da63, 2022-12-09)"
   sodipodi:docname="Vietnam_road_sign_I433a.svg"
   xmlns:inkscape="http://www.inkscape.org/namespaces/inkscape"
   xmlns:sodipodi="http://sodipodi.sourceforge.net/DTD/sodipodi-0.dtd"
   xmlns="http://www.w3.org/2000/svg"
   xmlns:svg="http://www.w3.org/2000/svg"
   xmlns:rdf="http://www.w3.org/1999/02/22-rdf-syntax-ns#"
   xmlns:cc="http://creativecommons.org/ns#"
   xmlns:dc="http://purl.org/dc/elements/1.1/">
  <defs
     id="defs842" />
  <sodipodi:namedview
     id="base"
     pagecolor="#ffffff"
     bordercolor="#666666"
     borderopacity="1.0"
     inkscape:pageopacity="0.0"
     inkscape:pageshadow="2"
     inkscape:zoom="0.12372612"
     inkscape:cx="2153.951"
     inkscape:cy="2638.8931"
     inkscape:document-units="mm"
     inkscape:current-layer="text20622"
     showgrid="false"
     inkscape:snap-global="false"
     inkscape:window-width="1920"
     inkscape:window-height="991"
     inkscape:window-x="-9"
     inkscape:window-y="-9"
     inkscape:window-maximized="1"
     fit-margin-top="0"
     fit-margin-left="0"
     fit-margin-right="0"
     fit-margin-bottom="0"
     showguides="false"
     inkscape:measure-start="0,0"
     inkscape:measure-end="0,0"
     inkscape:showpageshadow="2"
     inkscape:pagecheckerboard="0"
     inkscape:deskcolor="#d1d1d1" />
  <metadata
     id="metadata845">
    <rdf:RDF>
      <cc:Work
         rdf:about="">
        <dc:format>image/svg+xml</dc:format>
        <dc:type
           rdf:resource="http://purl.org/dc/dcmitype/StillImage" />
      </cc:Work>
    </rdf:RDF>
  </metadata>
  <g
     inkscape:label="Layer 1"
     inkscape:groupmode="layer"
     id="layer1"
     transform="translate(-50,753)">
    <rect
       style="opacity:1;fill:#0046aa;fill-opacity:1;fill-rule:nonzero;stroke:none;stroke-width:2.93670321;stroke-linecap:butt;stroke-linejoin:miter;stroke-miterlimit:10;stroke-dasharray:none;stroke-opacity:1;paint-order:stroke fill markers"
       id="rect1393"
       width="600"
       height="800"
       x="50"
       y="-753" />
    <rect
       y="-748"
       x="55"
       height="790"
       width="590"
       id="rect1395"
       style="opacity:1;fill:#ffffff;fill-opacity:1;fill-rule:nonzero;stroke:none;stroke-width:2.89386988;stroke-linecap:butt;stroke-linejoin:miter;stroke-miterlimit:10;stroke-dasharray:none;stroke-opacity:1;paint-order:stroke fill markers" />
    <rect
       y="-738"
       x="65"
       height="770"
       width="570"
       id="rect1406"
       style="opacity:1;fill:#0046aa;fill-opacity:1;fill-rule:nonzero;stroke:none;stroke-width:2.80816269;stroke-linecap:butt;stroke-linejoin:miter;stroke-miterlimit:10;stroke-dasharray:none;stroke-opacity:1;paint-order:stroke fill markers" />
    <path
       cx="150"
       cy="147"
       r="150"
       id="path8376"
       style="opacity:1;fill:#d35f5f;fill-opacity:1;fill-rule:nonzero;stroke:none;stroke-width:3.92256045;stroke-linecap:butt;stroke-linejoin:miter;stroke-miterlimit:4;stroke-dasharray:none;stroke-opacity:1;paint-order:stroke fill markers"
       d=""
       inkscape:connector-curvature="0" />
    <rect
       style="opacity:1;fill:#ffffff;fill-opacity:1;fill-rule:nonzero;stroke:none;stroke-width:5.07322454;stroke-linecap:butt;stroke-linejoin:miter;stroke-miterlimit:4;stroke-dasharray:none;stroke-opacity:1;paint-order:stroke fill markers"
       id="rect828"
       width="500"
       height="500"
       x="100"
       y="-703" />
    <g
       transform="matrix(1.0004876,0,0,1.0004876,-290.77787,824.33304)"
       id="g924"
       style="font-style:normal;font-variant:normal;font-weight:bold;font-stretch:normal;font-size:159.07623291px;line-height:0;font-family:Giaothong2;-inkscape-font-specification:'Giaothong2 Bold';letter-spacing:0px;word-spacing:0px;fill:#000000;fill-opacity:1;stroke:none;stroke-width:0.82852203"
       aria-label="TRẠM">
      <g
         id="g922"
         style="font-style:normal;font-variant:normal;font-weight:bold;font-stretch:normal;font-size:161.34654236px;line-height:0;font-family:Giaothong2;-inkscape-font-specification:'Giaothong2 Bold';letter-spacing:3.35592604px;word-spacing:0px;fill:#000000;fill-opacity:1;stroke:none;stroke-width:0.69624561"
         aria-label="TRẠM" />
    </g>
    <g
       aria-label="TRẠM RỬA XE"
       style="font-style:normal;font-variant:normal;font-weight:bold;font-stretch:normal;font-size:83.53499603px;line-height:0;font-family:Giaothong2;-inkscape-font-specification:'Giaothong2 Bold';letter-spacing:0.2460625px;word-spacing:0px;fill:#000000;fill-opacity:1;stroke:none;stroke-width:0.43507808"
       id="text20622"
       transform="translate(-157.26042,569.34396)">
      <path
         id="rect5756-7"
         style="opacity:1;fill:#000000;stroke-width:5.39892"
         d="m 445.29398,-983.14135 c -35.75418,0 -65.20305,25.99849 -70.58446,60.19429 -0.56013,2.2994 -0.88709,4.69276 -0.88709,7.16909 v 4.11726 41.3834 c 0,15.82749 12.10278,28.71154 27.59465,29.97041 v 26.03901 h -10.42416 v 7.37212 h 254.42211 v -7.37212 h -7.87098 v -26.93524 c 12.93023,-3.37469 22.43756,-15.0593 22.43756,-29.07418 v -41.3834 -4.11726 c 0,-2.46398 -0.32467,-4.84637 -0.88025,-7.13547 -5.36654,-34.21271 -34.83505,-60.22791 -70.60135,-60.22791 z m 6.82247,34.12967 h 33.88462 c 1.65989,0 2.99285,1.33296 2.99285,2.99285 v 33.88462 c 0,1.6599 -1.33296,3.00128 -2.99285,3.00128 h -33.88462 c -1.65989,0 -3.00128,-1.33979 -3.00128,-3.00128 v -33.88462 c 0,-1.65989 1.33979,-2.99285 3.00128,-2.99285 z m 90.79853,0 h 69.29105 c 1.44498,0 2.60392,1.15921 2.60392,2.60416 v 29.4713 c 0,1.44498 -1.15919,2.60391 -2.60392,2.60391 h -69.29105 c -1.44498,0 -2.61216,-1.15916 -2.61216,-2.60391 v -29.4713 c 0,-1.44495 1.16832,-2.60416 2.61216,-2.60416 z m -22.47139,92.2529 c 11.0689,0 20.60045,6.8796 24.55128,16.57006 h 43.50537 41.39209 c 0.99911,0 1.98684,-0.0457 2.95897,-0.13715 v 26.06439 h -97.94243 a 21.587063,21.587063 0 0 0 7.11853,-15.98684 21.587063,21.587063 0 0 0 -21.58381,-21.58363 21.587063,21.587063 0 0 0 -21.58363,21.58363 21.587063,21.587063 0 0 0 7.26238,15.98684 H 406.10845 v -25.92059 h 39.18553 50.59009 c 3.95078,-9.69045 13.49083,-16.57032 24.55952,-16.57032 z" />
      <path
         id="rect24067"
         style="opacity:1;fill:#000000;stroke-width:2.61906"
         d="m 505.57041,-1225.4049 -103.25778,169.0613 H 374.8691 v 15.6169 h 265.86829 v -15.6169 h -27.4385 z m 1.26434,95.636 46.78469,73.4253 h -91.63055 z" />
    </g>
  </g>
</svg>
