<?xml version="1.0" encoding="UTF-8" standalone="no"?>
<!-- Created with Inkscape (http://www.inkscape.org/) -->

<svg
   width="1601.7614mm"
   height="1000mm"
   viewBox="0 0 1601.7614 1000"
   version="1.1"
   id="svg848"
   inkscape:version="1.2.2 (732a01da63, 2022-12-09)"
   sodipodi:docname="Vietnam_road_sign_I447a.svg"
   xmlns:inkscape="http://www.inkscape.org/namespaces/inkscape"
   xmlns:sodipodi="http://sodipodi.sourceforge.net/DTD/sodipodi-0.dtd"
   xmlns="http://www.w3.org/2000/svg"
   xmlns:svg="http://www.w3.org/2000/svg"
   xmlns:rdf="http://www.w3.org/1999/02/22-rdf-syntax-ns#"
   xmlns:cc="http://creativecommons.org/ns#"
   xmlns:dc="http://purl.org/dc/elements/1.1/">
  <defs
     id="defs842">
    <clipPath
       id="clip-44-2">
      <path
         clip-rule="nonzero"
         d="M 1.5,1.980469 H 506 V 443 H 1.5 Z m 0,0"
         id="path138172" />
    </clipPath>
    <clipPath
       id="clip-45-2">
      <path
         clip-rule="nonzero"
         d="M 1.5,1.980469 H 522 V 443 H 1.5 Z m 0,0"
         id="path138175" />
    </clipPath>
    <clipPath
       id="clip-46-8">
      <path
         clip-rule="nonzero"
         d="M 7,1.980469 H 539 V 443 H 7 Z m 0,0"
         id="path138178" />
    </clipPath>
    <clipPath
       id="clip-47-8">
      <path
         clip-rule="nonzero"
         d="M 24,1.980469 H 555 V 443 H 24 Z m 0,0"
         id="path138181" />
    </clipPath>
    <clipPath
       id="clip-49-4">
      <path
         clip-rule="nonzero"
         d="M 45,1.980469 H 576 V 443 H 45 Z m 0,0"
         id="path138187" />
    </clipPath>
    <clipPath
       id="clip-50-6">
      <path
         clip-rule="nonzero"
         d="M 59,1.980469 H 591 V 443 H 59 Z m 0,0"
         id="path138190" />
    </clipPath>
    <clipPath
       id="clip-52-8">
      <path
         clip-rule="nonzero"
         d="M 82,1.980469 H 610.73828 V 443 H 82 Z m 0,0"
         id="path138196" />
    </clipPath>
    <clipPath
       clipPathUnits="userSpaceOnUse"
       id="clipPath35327">
      <g
         id="g35331"
         transform="translate(104.41316,283.31351)">
        <path
           clip-rule="nonzero"
           d="m -102.91316,-185.31351 h 494.5 v 532 h -494.5 z m 0,0"
           id="path35329" />
      </g>
    </clipPath>
    <clipPath
       clipPathUnits="userSpaceOnUse"
       id="clipPath35299">
      <g
         id="g35303"
         transform="translate(104.41316,283.31351)">
        <path
           clip-rule="nonzero"
           d="m -102.91316,-185.31351 h 510.5 v 532 h -510.5 z m 0,0"
           id="path35301" />
      </g>
    </clipPath>
    <clipPath
       clipPathUnits="userSpaceOnUse"
       id="clipPath35314">
      <g
         id="g35318"
         transform="translate(104.41316,283.31351)">
        <path
           clip-rule="nonzero"
           d="m -102.91316,-185.31351 h 527.5 v 532 h -527.5 z m 0,0"
           id="path35316" />
      </g>
    </clipPath>
  </defs>
  <sodipodi:namedview
     id="base"
     pagecolor="#ffffff"
     bordercolor="#666666"
     borderopacity="1.0"
     inkscape:pageopacity="0.0"
     inkscape:pageshadow="2"
     inkscape:zoom="0.072496858"
     inkscape:cx="772.44727"
     inkscape:cy="2848.3993"
     inkscape:document-units="mm"
     inkscape:current-layer="layer1"
     showgrid="false"
     inkscape:snap-global="false"
     inkscape:window-width="1920"
     inkscape:window-height="991"
     inkscape:window-x="-9"
     inkscape:window-y="-9"
     inkscape:window-maximized="1"
     fit-margin-top="0"
     fit-margin-left="0"
     fit-margin-right="0"
     fit-margin-bottom="0"
     showguides="false"
     inkscape:measure-start="0,0"
     inkscape:measure-end="0,0"
     inkscape:showpageshadow="2"
     inkscape:pagecheckerboard="0"
     inkscape:deskcolor="#d1d1d1" />
  <metadata
     id="metadata845">
    <rdf:RDF>
      <cc:Work
         rdf:about="">
        <dc:format>image/svg+xml</dc:format>
        <dc:type
           rdf:resource="http://purl.org/dc/dcmitype/StillImage" />
      </cc:Work>
    </rdf:RDF>
  </metadata>
  <g
     inkscape:label="Layer 1"
     inkscape:groupmode="layer"
     id="layer1"
     transform="translate(-1524.939,691.93915)">
    <path
       cx="150"
       cy="147"
       r="150"
       id="path8376"
       style="opacity:1;fill:#d35f5f;fill-opacity:1;fill-rule:nonzero;stroke:none;stroke-width:3.92256;stroke-linecap:butt;stroke-linejoin:miter;stroke-miterlimit:4;stroke-dasharray:none;stroke-opacity:1;paint-order:stroke fill markers"
       d=""
       inkscape:connector-curvature="0" />
    <path
       id="rect1393-4"
       style="opacity:1;fill:#0046aa;stroke-width:5.0751;stroke-miterlimit:10;paint-order:stroke fill markers"
       d="m 1524.939,-691.93915 h 1601.7613 v 1000 H 1524.939 Z"
       sodipodi:nodetypes="ccccc" />
    <path
       id="rect1395-2"
       style="opacity:1;fill:#ffffff;fill-opacity:1;fill-rule:nonzero;stroke:none;stroke-width:5.03159;stroke-linecap:butt;stroke-linejoin:miter;stroke-miterlimit:10;stroke-dasharray:none;stroke-opacity:1;paint-order:stroke fill markers"
       d="m 1529.9984,-686.87944 v 989.88102 h 1591.6423 v -989.88102 z m 10.1191,10.11922 H 3111.5218 V 292.88169 H 1540.1175 Z"
       sodipodi:nodetypes="cccccccccc" />
    <path
       id="path154751"
       style="fill:#ffffff;stroke-width:7.93522"
       d="m 2260.0296,-295.26357 -35.0561,34.12762 v 70.13841 h 70.1483 v -70.13841 z" />
    <g
       id="use155251"
       style="fill:#ffffff;fill-opacity:1"
       transform="matrix(7.9352152,0,0,7.9352152,2442.9987,-141.69466)">
      <path
         d="m 8.148438,0.0078125 c -0.066407,0 -0.101563,-0.0351563 -0.101563,-0.1015625 V -5.394531 H 3.339844 v 5.300781 c 0,0.0664062 -0.035156,0.1015625 -0.101563,0.1015625 h -1.875 c -0.070312,0 -0.101562,-0.0351563 -0.101562,-0.1015625 v -12.371094 c 0,-0.07031 0.03125,-0.105469 0.101562,-0.105469 h 1.875 c 0.066407,0 0.101563,0.03516 0.101563,0.105469 v 5.195313 h 4.707031 v -5.195313 c 0,-0.07031 0.035156,-0.105469 0.101563,-0.105469 h 1.875 c 0.06641,0 0.101562,0.03516 0.101562,0.105469 V -0.09375 c 0,0.0664062 -0.03516,0.1015625 -0.101562,0.1015625 h -1.875"
         id="path51339"
         style="fill:#ffffff" />
    </g>
    <g
       id="use155255"
       style="fill:#ffffff;fill-opacity:1"
       transform="matrix(7.9352152,0,0,7.9352152,2533.9085,-141.69466)">
      <path
         d="m 0.847656,-6.277344 c 0,-0.75 0.007813,-1.367187 0.027344,-1.847656 0.019531,-0.472656 0.046875,-0.824219 0.082031,-1.042969 0.039063,-0.214844 0.097657,-0.425781 0.175782,-0.628906 0.070312,-0.199219 0.164062,-0.398438 0.273437,-0.597656 H 1.39844 c 0.296875,-0.554688 0.78125,-1.074219 1.449218,-1.554688 0.675782,-0.480469 1.511719,-0.722656 2.511719,-0.722656 0.988281,0 1.824219,0.242187 2.496094,0.722656 0.679687,0.488281 1.164062,1.007813 1.46875,1.554688 0.210937,0.390625 0.351562,0.800781 0.429687,1.226562 0.039063,0.214844 0.070313,0.566406 0.089844,1.042969 0.019531,0.476562 0.03125,1.09375 0.03125,1.847656 0,1.476563 -0.039062,2.445313 -0.121094,2.902344 C 9.714846,-3.152344 9.660158,-2.9375 9.58594,-2.738281 9.519531,-2.539063 9.429688,-2.34375 9.332031,-2.15625 9.03125,-1.605469 8.539063,-1.085938 7.855469,-0.605469 7.179688,-0.128906 6.34375,0.113281 5.359375,0.113281 4.367188,0.113281 3.53125,-0.125 2.847656,-0.605469 2.183594,-1.074219 1.699219,-1.59375 1.398438,-2.15625 H 1.40625 C 1.300781,-2.351563 1.207031,-2.550781 1.132813,-2.75 1.058594,-2.949219 1,-3.15625 0.957031,-3.375 0.921875,-3.589844 0.898438,-3.941406 0.875,-4.425781 0.859375,-4.902344 0.847656,-5.519531 0.847656,-6.277344 m 2.078125,0 c 0,0.628906 0.00781,1.144531 0.027344,1.550781 0.015625,0.40625 0.046875,0.703125 0.09375,0.902344 0.042969,0.175781 0.109375,0.355469 0.195313,0.53125 0.082031,0.171875 0.175781,0.328125 0.28125,0.460938 0.179687,0.242187 0.425781,0.445312 0.734375,0.617187 0.300781,0.167969 0.671875,0.253906 1.101562,0.253906 0.425781,0 0.792969,-0.082031 1.097656,-0.253906 C 6.757813,-2.382813 7,-2.589844 7.183594,-2.832031 7.425781,-3.125 7.578125,-3.453125 7.65625,-3.824219 c 0.089844,-0.367187 0.140625,-1.183594 0.140625,-2.453125 0,-0.625 -0.011719,-1.140625 -0.035156,-1.546875 C 7.738281,-8.230469 7.703125,-8.527344 7.65625,-8.71875 7.617188,-8.898438 7.558594,-9.082031 7.476563,-9.257813 7.398438,-9.429688 7.304688,-9.589844 7.191406,-9.730469 7.105469,-9.835938 7,-9.945313 6.875,-10.046875 c -0.121094,-0.105469 -0.261719,-0.195313 -0.417969,-0.273438 -0.15625,-0.07813 -0.324218,-0.136718 -0.507812,-0.191406 -0.183594,-0.04687 -0.382813,-0.07031 -0.589844,-0.07031 -0.429687,0 -0.796875,0.08594 -1.101562,0.257812 -0.304688,0.171875 -0.550782,0.371094 -0.734375,0.59375 C 3.414063,-9.589844 3.320313,-9.433594 3.238281,-9.257813 3.160156,-9.085938 3.09375,-8.90625 3.046875,-8.71875 3.003906,-8.523438 2.96875,-8.222656 2.953125,-7.8125 2.933594,-7.40625 2.925781,-6.894531 2.925781,-6.277344 m 2.96875,-7.40625 c -0.00781,0 -0.023437,-0.0039 -0.042968,-0.01172 -0.015625,-0.0078 -0.023438,-0.01172 -0.03125,-0.02344 L 3.4375,-16.238281 c -0.035156,-0.03516 -0.042969,-0.07031 -0.023437,-0.113282 0.015625,-0.03906 0.050781,-0.05859 0.097656,-0.05859 h 1.902344 c 0.03125,0 0.058593,0.01563 0.085937,0.05078 l 1.804688,2.523437 c 0.015625,0.03516 0.019531,0.07031 0.00391,0.105469 -0.015625,0.03125 -0.042969,0.04687 -0.089844,0.04687 H 5.894531"
         id="path51343"
         style="fill:#ffffff" />
    </g>
    <g
       id="use155259"
       style="fill:#ffffff;fill-opacity:1"
       transform="matrix(7.9352152,0,0,7.9352152,2619.2197,-141.69466)">
      <path
         d="M 0.148438,0 C 0.109375,0 0.078125,-0.0117188 0.0585938,-0.0429688 0.0429688,-0.0703125 0.0390625,-0.105469 0.0507813,-0.136719 L 4.574219,-12.515625 c 0.011719,-0.04297 0.039062,-0.07031 0.085937,-0.07031 h 1.546875 c 0.015625,0 0.035157,0.0039 0.054688,0.01953 0.019531,0.01563 0.03125,0.03125 0.039062,0.05078 l 4.515625,12.378906 c 0.0078,0.03125 0.0078,0.0625002 -0.0078,0.0937502 C 10.789063,-0.015625 10.765625,0 10.730469,0 H 8.753906 C 8.710938,0 8.679688,-0.0234375 8.667969,-0.0703125 L 7.734375,-2.796875 H 3.175781 C 3.015625,-2.332031 2.859375,-1.878906 2.699219,-1.429688 2.542969,-0.984375 2.382813,-0.53125 2.21875,-0.0703125 2.21484,-0.0507813 2.203125,-0.0390625 2.179688,-0.0234375 2.164063,-0.0078125 2.140625,0 2.125,0 H 0.148438 M 7.113281,-4.652344 C 7.105469,-4.691406 7.085938,-4.734375 7.066406,-4.78125 7.046875,-4.824219 7.03125,-4.867188 7.019531,-4.902344 6.921875,-5.183594 6.832031,-5.441406 6.75,-5.683594 6.671875,-5.921875 6.601563,-6.128906 6.535156,-6.308594 6.496094,-6.421875 6.457031,-6.535156 6.417969,-6.648438 6.382813,-6.753906 6.34375,-6.859375 6.308594,-6.957031 6.285156,-7.046875 6.253906,-7.132813 6.222656,-7.222656 6.199219,-7.304688 6.167969,-7.386719 6.136719,-7.46875 6.085938,-7.632813 6.035156,-7.800781 5.976563,-7.96875 5.925781,-8.132813 5.871094,-8.304688 5.808594,-8.484375 5.785156,-8.5625 5.753906,-8.652344 5.71875,-8.753906 5.6875,-8.847656 5.65625,-8.953125 5.621094,-9.0625 5.601563,-9.121094 5.589844,-9.164063 5.582031,-9.199219 5.574219,-9.226563 5.5625,-9.257813 5.550781,-9.292969 5.542969,-9.324219 5.527344,-9.359375 5.511719,-9.402344 5.5,-9.441406 5.480469,-9.496094 5.457031,-9.574219 c -0.0625,0.191406 -0.121093,0.363281 -0.179687,0.527344 -0.050781,0.160156 -0.101563,0.3125 -0.148438,0.449219 -0.00781,0.035156 -0.019531,0.0625 -0.027343,0.09375 -0.00391,0.027343 -0.011719,0.058593 -0.027344,0.085937 -0.023438,0.097656 -0.054688,0.191406 -0.089844,0.277344 -0.027344,0.085937 -0.058594,0.171875 -0.089844,0.257812 -0.027343,0.09375 -0.054687,0.183594 -0.085937,0.269532 -0.027344,0.085937 -0.054688,0.167968 -0.085938,0.25 -0.058593,0.171875 -0.117187,0.355468 -0.175781,0.542968 -0.0625,0.191407 -0.125,0.390625 -0.203125,0.597657 -0.074219,0.207031 -0.152344,0.425781 -0.234375,0.667968 -0.078125,0.238282 -0.179687,0.539063 -0.3125,0.902344 h 3.316406"
         id="path51347"
         style="fill:#ffffff" />
    </g>
    <g
       id="use155267"
       style="fill:#ffffff;fill-opacity:1"
       transform="matrix(7.9352152,0,0,7.9352152,2740.4756,-141.69466)">
      <path
         d="m 1.363281,0.0078125 c -0.070312,0 -0.101562,-0.0351563 -0.101562,-0.1015625 v -12.371094 c 0,-0.07031 0.03125,-0.105469 0.101562,-0.105469 h 1.875 c 0.066407,0 0.101563,0.03516 0.101563,0.105469 v 10.503906 h 5.933594 c 0.066406,0 0.101562,0.035157 0.101562,0.105469 v 1.761719 c 0,0.0664062 -0.035156,0.1015625 -0.101562,0.1015625 H 1.363281"
         id="path51351"
         style="fill:#ffffff" />
    </g>
    <g
       id="use155271"
       style="fill:#ffffff;fill-opacity:1"
       transform="matrix(7.9352152,0,0,7.9352152,2818.3684,-141.69466)">
      <path
         d="M 0.148438,0 C 0.109375,0 0.078125,-0.0117188 0.0585938,-0.0429688 0.0429688,-0.0703125 0.0390625,-0.105469 0.0507813,-0.136719 L 4.574219,-12.515625 c 0.011719,-0.04297 0.039062,-0.07031 0.085937,-0.07031 h 1.546875 c 0.015625,0 0.035157,0.0039 0.054688,0.01953 0.019531,0.01563 0.03125,0.03125 0.039062,0.05078 l 4.515625,12.378906 c 0.0078,0.03125 0.0078,0.0625002 -0.0078,0.0937502 C 10.789063,-0.015625 10.765625,0 10.730469,0 H 8.753906 C 8.710938,0 8.679688,-0.0234375 8.667969,-0.0703125 L 7.734375,-2.796875 H 3.175781 C 3.015625,-2.332031 2.859375,-1.878906 2.699219,-1.429688 2.542969,-0.984375 2.382813,-0.53125 2.21875,-0.0703125 2.21484,-0.0507813 2.203125,-0.0390625 2.179688,-0.0234375 2.164063,-0.0078125 2.140625,0 2.125,0 H 0.148438 M 7.113281,-4.652344 C 7.105469,-4.691406 7.085938,-4.734375 7.066406,-4.78125 7.046875,-4.824219 7.03125,-4.867188 7.019531,-4.902344 6.921875,-5.183594 6.832031,-5.441406 6.75,-5.683594 6.671875,-5.921875 6.601563,-6.128906 6.535156,-6.308594 6.496094,-6.421875 6.457031,-6.535156 6.417969,-6.648438 6.382813,-6.753906 6.34375,-6.859375 6.308594,-6.957031 6.285156,-7.046875 6.253906,-7.132813 6.222656,-7.222656 6.199219,-7.304688 6.167969,-7.386719 6.136719,-7.46875 6.085938,-7.632813 6.035156,-7.800781 5.976563,-7.96875 5.925781,-8.132813 5.871094,-8.304688 5.808594,-8.484375 5.785156,-8.5625 5.753906,-8.652344 5.71875,-8.753906 5.6875,-8.847656 5.65625,-8.953125 5.621094,-9.0625 5.601563,-9.121094 5.589844,-9.164063 5.582031,-9.199219 5.574219,-9.226563 5.5625,-9.257813 5.550781,-9.292969 5.542969,-9.324219 5.527344,-9.359375 5.511719,-9.402344 5.5,-9.441406 5.480469,-9.496094 5.457031,-9.574219 c -0.0625,0.191406 -0.121093,0.363281 -0.179687,0.527344 -0.050781,0.160156 -0.101563,0.3125 -0.148438,0.449219 -0.00781,0.035156 -0.019531,0.0625 -0.027343,0.09375 -0.00391,0.027343 -0.011719,0.058593 -0.027344,0.085937 -0.023438,0.097656 -0.054688,0.191406 -0.089844,0.277344 -0.027344,0.085937 -0.058594,0.171875 -0.089844,0.257812 -0.027343,0.09375 -0.054687,0.183594 -0.085937,0.269532 -0.027344,0.085937 -0.054688,0.167968 -0.085938,0.25 -0.058593,0.171875 -0.117187,0.355468 -0.175781,0.542968 -0.0625,0.191407 -0.125,0.390625 -0.203125,0.597657 -0.074219,0.207031 -0.152344,0.425781 -0.234375,0.667968 -0.078125,0.238282 -0.179687,0.539063 -0.3125,0.902344 h 3.316406 m -2.511718,8.0625 c -0.0625,0 -0.09375,-0.03125 -0.09375,-0.09375 V 1.648438 c 0,-0.058594 0.027343,-0.09375 0.09375,-0.09375 h 1.675781 c 0.054687,0 0.085937,0.03125 0.085937,0.09375 v 1.667968 c 0,0.058594 -0.027343,0.09375 -0.085937,0.09375 H 4.601563"
         id="path51355"
         style="fill:#ffffff" />
    </g>
    <g
       id="use155275"
       style="fill:#ffffff;fill-opacity:1"
       transform="matrix(7.9352152,0,0,7.9352152,2905.5735,-141.69466)">
      <path
         d="m 9.703125,-3.652344 c 0.035156,0 0.0625,0.015625 0.085938,0.039063 0.023437,0.027343 0.03125,0.058593 0.019531,0.089843 C 9.566406,-2.347656 9.03125,-1.445313 8.203125,-0.8125 7.800781,-0.507813 7.363281,-0.277344 6.890625,-0.121094 6.417969,0.0351563 5.910156,0.113281 5.359375,0.113281 4.367188,0.113281 3.53125,-0.125 2.847656,-0.605469 2.183594,-1.074219 1.699219,-1.59375 1.398438,-2.15625 1.292969,-2.351563 1.207031,-2.550781 1.132813,-2.75 1.058594,-2.949219 1,-3.15625 0.957031,-3.375 0.886719,-3.796875 0.847656,-4.765625 0.847656,-6.277344 c 0,-0.75 0.007813,-1.367187 0.023438,-1.847656 0.019531,-0.472656 0.042969,-0.824219 0.085937,-1.042969 0.039063,-0.214844 0.097657,-0.425781 0.175782,-0.628906 0.070312,-0.199219 0.160156,-0.398438 0.265625,-0.597656 0.296875,-0.554688 0.78125,-1.074219 1.449218,-1.554688 0.675782,-0.480469 1.511719,-0.722656 2.511719,-0.722656 1.195313,0 2.1875,0.367187 2.972656,1.105469 0.792969,0.742187 1.285157,1.621093 1.476563,2.640625 0.00781,0.035156 0.00781,0.058593 -0.019531,0.085937 -0.019532,0.023438 -0.050782,0.035156 -0.085938,0.035156 H 7.726563 c -0.050782,0 -0.082032,-0.023437 -0.09375,-0.070312 C 7.558594,-9.101563 7.449219,-9.320313 7.3125,-9.515625 7.171875,-9.714844 7.003906,-9.902344 6.800781,-10.074219 c -0.378906,-0.335937 -0.855468,-0.507812 -1.441406,-0.507812 -0.429687,0 -0.796875,0.08594 -1.101562,0.257812 -0.304688,0.171875 -0.550782,0.371094 -0.734375,0.59375 -0.109375,0.140625 -0.203125,0.296875 -0.285157,0.472656 -0.078125,0.171875 -0.144531,0.351563 -0.191406,0.539063 -0.042969,0.195312 -0.078125,0.496094 -0.09375,0.90625 -0.019531,0.40625 -0.027344,0.917969 -0.027344,1.535156 0,0.628906 0.00781,1.144531 0.027344,1.550781 0.015625,0.40625 0.046875,0.703125 0.09375,0.902344 0.042969,0.175781 0.109375,0.355469 0.195313,0.53125 0.082031,0.171875 0.175781,0.328125 0.28125,0.460938 0.179687,0.242187 0.425781,0.445312 0.734375,0.617187 0.300781,0.167969 0.671875,0.253906 1.101562,0.253906 0.996094,0 1.753906,-0.542968 2.273438,-1.628906 0.00781,-0.011719 0.023437,-0.023437 0.042968,-0.039062 0.015625,-0.015625 0.035157,-0.023438 0.050782,-0.023438 h 1.976562"
         id="path51359"
         style="fill:#ffffff" />
    </g>
    <g
       fill="#ffffff"
       fill-opacity="1"
       id="g155287"
       transform="matrix(7.9352152,0,0,7.9352152,13.869076,-3230.4914)"
       clip-path="url(#clipPath35327)"
       style="fill:#ffffff">
      <g
         id="use155285"
         transform="translate(230.38319,364.047)"
         style="fill:#ffffff">
        <path
           d="m 7.160156,-5.207031 c -0.03125,-0.023438 -0.050781,-0.058594 -0.058593,-0.101563 0,-0.039062 0.00781,-0.078125 0.035156,-0.117187 L 8.804688,-7.34375 c 0.066406,-0.074219 0.136718,-0.082031 0.207031,-0.011719 l 1.980469,1.554688 c 0.06641,-0.335938 0.117187,-0.796875 0.152343,-1.386719 0.02344,-0.582031 0.04297,-1.328125 0.04297,-2.226563 0,-0.9375 -0.01172,-1.714843 -0.05078,-2.324218 -0.03125,-0.609375 -0.08594,-1.054688 -0.15625,-1.339844 -0.0625,-0.273438 -0.160156,-0.542969 -0.285156,-0.808594 -0.117188,-0.261719 -0.257813,-0.5 -0.414063,-0.707031 -0.128906,-0.160156 -0.285156,-0.324219 -0.472656,-0.480469 C 9.628908,-15.226563 9.414065,-15.363281 9.17969,-15.480469 8.949219,-15.597656 8.695313,-15.6875 8.417969,-15.765625 8.144531,-15.835938 7.847656,-15.875 7.523438,-15.875 c -0.632813,0 -1.183594,0.128906 -1.652344,0.386719 -0.457031,0.261718 -0.820313,0.558593 -1.09375,0.894531 -0.167969,0.207031 -0.316406,0.441406 -0.433594,0.707031 -0.117187,0.257813 -0.207031,0.53125 -0.277344,0.808594 -0.128906,0.582031 -0.195312,1.804687 -0.195312,3.664062 0,1.871094 0.066406,3.09375 0.195312,3.679688 0.0625,0.261719 0.160157,0.527344 0.285157,0.792969 0.117187,0.261718 0.257812,0.492187 0.425781,0.695312 0.265625,0.363281 0.628906,0.664063 1.09375,0.925781 0.460937,0.25 1.011719,0.382813 1.652344,0.382813 0.699218,0 1.308593,-0.171875 1.839843,-0.519531 l -2.203125,-1.75 M 14.375,0.386719 c -0.02734,0.027344 -0.05859,0.039062 -0.105469,0.039062 -0.03906,0 -0.07813,-0.011718 -0.117187,-0.039062 L 11.914063,-1.386719 C 11.355469,-0.933594 10.707031,-0.558594 9.972656,-0.265625 9.238281,0.0195313 8.421875,0.167969 7.523438,0.167969 6.039063,0.167969 4.785156,-0.1875 3.753906,-0.90625 2.769531,-1.613281 2.046875,-2.390625 1.578125,-3.238281 H 1.59375 C 1.4375,-3.527344 1.308594,-3.828125 1.191406,-4.125 1.082031,-4.421875 0.996094,-4.734375 0.933594,-5.0625 0.816406,-5.742188 0.75,-7.191406 0.75,-9.414063 c 0,-1.125 0.015625,-2.050781 0.046875,-2.769531 0.027344,-0.714844 0.070313,-1.238281 0.136719,-1.566406 0.058594,-0.324219 0.140625,-0.644531 0.257812,-0.945313 0.109375,-0.300781 0.246094,-0.597656 0.402344,-0.894531 H 1.578125 c 0.222656,-0.414062 0.519531,-0.816406 0.882813,-1.203125 0.363281,-0.390625 0.789062,-0.765625 1.292968,-1.128906 1.019532,-0.722656 2.273438,-1.085938 3.769532,-1.085938 1.488281,0 2.746093,0.363282 3.753906,1.085938 1,0.734375 1.738281,1.507812 2.203125,2.332031 0.140625,0.285156 0.273437,0.574219 0.386719,0.886719 0.113281,0.304687 0.195312,0.621094 0.261718,0.953125 0.05859,0.320312 0.101563,0.847656 0.132813,1.566406 0.02734,0.710938 0.04687,1.636719 0.04687,2.769531 0,2.019532 -0.05078,3.378907 -0.15625,4.078125 -0.03906,0.324219 -0.101563,0.628907 -0.1875,0.914063 -0.07813,0.277344 -0.179688,0.539062 -0.304688,0.785156 0.390625,0.296875 0.777344,0.613281 1.179688,0.9375 0.394531,0.324219 0.789062,0.632813 1.179687,0.9375 0.03125,0.027344 0.05078,0.058594 0.0625,0.105469 0.0078,0.039062 0,0.078125 -0.03906,0.117187 L 14.375,0.386719"
           id="path51363"
           style="fill:#ffffff" />
      </g>
    </g>
    <g
       fill="#ffffff"
       fill-opacity="1"
       id="g155293"
       transform="matrix(7.9352152,0,0,7.9352152,13.869076,-3230.4914)"
       clip-path="url(#clipPath35299)"
       style="fill:#ffffff">
      <g
         id="use155291"
         transform="translate(246.61862,364.047)"
         style="fill:#ffffff">
        <path
           d="m 1.554688,-18.699219 c 0,-0.101562 0.050781,-0.152344 0.15625,-0.152344 H 4.53125 c 0.089844,0 0.144531,0.05078 0.144531,0.152344 v 11.964844 c 0,1.246094 0.34375,2.183594 1.035157,2.824219 0.699218,0.648437 1.566406,0.972656 2.601562,0.972656 1.015625,0 1.878906,-0.324219 2.578125,-0.972656 0.699219,-0.648438 1.046875,-1.585938 1.046875,-2.824219 v -11.964844 c 0,-0.101562 0.05469,-0.152344 0.15625,-0.152344 h 2.8125 c 0.101563,0 0.152344,0.05078 0.152344,0.152344 v 12.277344 c 0,1.980469 -0.660156,3.578125 -1.980469,4.789062 -1.300781,1.199219 -2.886719,1.800782 -4.765625,1.800782 -1.875,0 -3.476562,-0.59375 -4.789062,-1.800782 -1.308594,-1.203125 -1.96875,-2.800781 -1.96875,-4.789062 v -12.277344"
           id="path51367"
           style="fill:#ffffff" />
      </g>
    </g>
    <g
       fill="#ffffff"
       fill-opacity="1"
       id="g155299"
       transform="matrix(7.9352152,0,0,7.9352152,13.869076,-3230.4914)"
       clip-path="url(#clipPath35314)"
       style="fill:#ffffff">
      <g
         id="use155297"
         transform="translate(263.23593,364.047)"
         style="fill:#ffffff">
        <path
           d="m 3.625,-20.523438 c -0.078125,0 -0.121094,-0.03125 -0.148437,-0.09766 -0.019532,-0.0625 -0.00781,-0.117187 0.058593,-0.160156 l 3.808594,-3.019531 h 1.734375 l 3.859375,3.019531 c 0.05859,0.03906 0.08203,0.09766 0.05859,0.160156 -0.01953,0.06641 -0.06641,0.09766 -0.136719,0.09766 h -2.1875 L 8.09375,-21.910156 c -0.375,0.234375 -0.765625,0.46875 -1.152344,0.699218 -0.390625,0.234375 -0.769531,0.460938 -1.152343,0.6875 H 3.625 M 1.332031,-9.570313 c 0,-1.125 0.015625,-2.050781 0.046875,-2.769531 0.027344,-0.710937 0.070313,-1.238281 0.125,-1.566406 0.054688,-0.324219 0.140625,-0.640625 0.257813,-0.945313 0.109375,-0.296875 0.246094,-0.597656 0.414062,-0.894531 H 2.164063 c 0.445312,-0.835937 1.171875,-1.613281 2.171875,-2.332031 1.011718,-0.722656 2.269531,-1.085938 3.769531,-1.085938 1.484375,0 2.734375,0.363282 3.742187,1.085938 1.015625,0.734375 1.75,1.511719 2.203125,2.332031 0.316407,0.582031 0.53125,1.199219 0.648438,1.839844 0.05469,0.324219 0.101562,0.847656 0.132812,1.566406 0.02734,0.710938 0.04687,1.636719 0.04687,2.769531 0,2.214844 -0.05859,3.664063 -0.179687,4.351563 -0.05859,0.335937 -0.144531,0.65625 -0.253906,0.957031 -0.105469,0.300781 -0.234375,0.589844 -0.382813,0.871094 C 13.609375,-2.5625 12.871094,-1.789063 11.847656,-1.0625 10.832031,-0.351563 9.582031,0.0117188 8.105469,0.0117188 6.617188,0.0117188 5.359375,-0.34375 4.335938,-1.0625 3.339844,-1.765625 2.617188,-2.542969 2.164063,-3.390625 H 2.175781 C 2.011719,-3.683594 1.878906,-3.980469 1.761719,-4.28125 1.652344,-4.578125 1.566406,-4.886719 1.503906,-5.21875 1.449219,-5.542969 1.410156,-6.066406 1.378906,-6.792969 1.351563,-7.511719 1.332031,-8.4375 1.332031,-9.570313 m 3.121094,0 c 0,0.941407 0.015625,1.714844 0.039063,2.324219 0.027343,0.609375 0.074218,1.054688 0.144531,1.355469 0.0625,0.265625 0.160156,0.53125 0.289062,0.796875 0.125,0.257812 0.265625,0.492187 0.421875,0.691406 0.273438,0.363281 0.640625,0.667969 1.101563,0.925781 0.453125,0.253907 1.007812,0.382813 1.65625,0.382813 0.636719,0 1.183594,-0.125 1.644531,-0.382813 0.453125,-0.253906 0.816406,-0.5625 1.089844,-0.925781 0.359375,-0.441406 0.59375,-0.933594 0.710937,-1.488281 0.136719,-0.550781 0.207032,-1.773438 0.207032,-3.679688 0,-0.9375 -0.01172,-1.714843 -0.05078,-2.324218 -0.03516,-0.609375 -0.08594,-1.054688 -0.15625,-1.339844 -0.05859,-0.269531 -0.148437,-0.542969 -0.273437,-0.808594 -0.113281,-0.257812 -0.257813,-0.5 -0.425781,-0.707031 -0.128907,-0.160156 -0.285157,-0.324219 -0.472657,-0.476563 -0.179687,-0.15625 -0.394531,-0.292968 -0.628906,-0.410156 -0.230469,-0.117187 -0.484375,-0.207031 -0.761719,-0.285156 -0.273437,-0.07031 -0.570312,-0.109375 -0.882812,-0.109375 -0.648438,0 -1.195313,0.128906 -1.65625,0.390625 -0.453125,0.257812 -0.824219,0.554687 -1.101563,0.890625 -0.160156,0.207031 -0.304687,0.441406 -0.425781,0.707031 -0.117187,0.257813 -0.214844,0.53125 -0.285156,0.808594 -0.066406,0.292969 -0.117188,0.746094 -0.144531,1.359375 -0.023438,0.609375 -0.039063,1.378906 -0.039063,2.304687 m 6.253906,-13.140625 c -0.0625,0 -0.109375,-0.01953 -0.132812,-0.07422 -0.01953,-0.04297 -0.01953,-0.09375 0.0039,-0.160157 l 2.707031,-3.78125 c 0.03125,-0.05078 0.07813,-0.07813 0.128907,-0.07813 h 2.851562 c 0.0625,0 0.113281,0.02734 0.148438,0.08984 0.02344,0.05859 0.01953,0.117188 -0.03516,0.167969 l -3.570312,3.78125 c -0.0078,0.0078 -0.02734,0.01953 -0.05469,0.03516 -0.02344,0.01172 -0.04297,0.01953 -0.0625,0.01953 h -1.984375"
           id="path51371"
           style="fill:#ffffff" />
      </g>
    </g>
    <g
       id="use155303"
       style="fill:#ffffff;fill-opacity:1"
       transform="matrix(7.9352152,0,0,7.9352152,2231.6091,-341.7001)">
      <path
         d="m 14.554688,-5.476563 c 0.05078,0 0.08984,0.019532 0.128906,0.058594 0.03125,0.039063 0.04687,0.082031 0.02734,0.136719 -0.363282,1.757812 -1.167969,3.113281 -2.410157,4.0625 -0.601562,0.453125 -1.253906,0.804687 -1.96875,1.039062 C 9.628906,0.0507813 8.863281,0.167969 8.042969,0.167969 6.550781,0.167969 5.296875,-0.1875 4.273438,-0.90625 3.277344,-1.613281 2.550781,-2.390625 2.097656,-3.238281 1.941406,-3.527344 1.8125,-3.824219 1.695313,-4.125 1.585938,-4.421875 1.503906,-4.734375 1.4375,-5.0625 1.328125,-5.699219 1.269531,-7.148438 1.269531,-9.414063 c 0,-1.125 0.011719,-2.050781 0.039063,-2.769531 0.023437,-0.714844 0.0625,-1.238281 0.128906,-1.566406 0.058594,-0.324219 0.140625,-0.640625 0.257813,-0.945313 0.109375,-0.300781 0.246093,-0.597656 0.402343,-0.894531 0.445313,-0.835937 1.171875,-1.613281 2.175782,-2.332031 1.011718,-0.722656 2.265625,-1.085938 3.769531,-1.085938 1.792969,0 3.273437,0.550782 4.453125,1.65625 1.191406,1.113282 1.929687,2.433594 2.214844,3.960938 0.01172,0.05469 0.01172,0.09375 -0.02734,0.132812 -0.03125,0.03125 -0.07813,0.05078 -0.128906,0.05078 h -2.964844 c -0.07813,0 -0.125,-0.03125 -0.144531,-0.105469 -0.109375,-0.34375 -0.269532,-0.664063 -0.476563,-0.964844 -0.207031,-0.296875 -0.460937,-0.574219 -0.765625,-0.832031 C 9.632813,-15.617188 8.914063,-15.875 8.042969,-15.875 c -0.648438,0 -1.199219,0.128906 -1.660156,0.386719 -0.453125,0.261718 -0.820313,0.558593 -1.097657,0.894531 -0.164062,0.207031 -0.304687,0.441406 -0.429687,0.707031 -0.117188,0.257813 -0.214844,0.53125 -0.285156,0.808594 -0.0625,0.292969 -0.117188,0.746094 -0.140625,1.359375 -0.027344,0.609375 -0.039063,1.378906 -0.039063,2.304687 0,0.9375 0.011719,1.714844 0.039063,2.324219 0.023437,0.609375 0.070312,1.054688 0.140625,1.355469 0.066406,0.265625 0.164062,0.527344 0.292968,0.792969 0.121094,0.261718 0.265625,0.492187 0.421875,0.695312 0.269532,0.363281 0.640625,0.664063 1.097657,0.925781 0.453125,0.25 1.011718,0.382813 1.660156,0.382813 1.488281,0 2.628906,-0.816406 3.402344,-2.449219 0.01563,-0.011719 0.03906,-0.03125 0.06641,-0.058594 0.02734,-0.019531 0.05078,-0.03125 0.07813,-0.03125 h 2.964844"
         id="path51375"
         style="fill:#ffffff" />
    </g>
    <g
       id="use155311"
       style="fill:#ffffff;fill-opacity:1"
       transform="matrix(7.9352152,0,0,7.9352152,2399.3928,-341.7001)">
      <path
         d="m 2.046875,0.0117188 c -0.105469,0 -0.15625,-0.0507813 -0.15625,-0.1523438 v -18.558594 c 0,-0.101562 0.050781,-0.152344 0.15625,-0.152344 h 2.808594 c 0.105469,0 0.15625,0.05078 0.15625,0.152344 V -2.9375 h 8.894531 c 0.105469,0 0.15625,0.050781 0.15625,0.152344 v 2.644531 c 0,0.1015625 -0.05078,0.1523438 -0.15625,0.1523438 H 2.046875"
         id="path51379"
         style="fill:#ffffff" />
    </g>
    <g
       id="use155315"
       style="fill:#ffffff;fill-opacity:1"
       transform="matrix(7.9352152,0,0,7.9352152,2515.997,-341.7001)">
      <path
         d="m 3.625,-20.523438 c -0.078125,0 -0.121094,-0.03125 -0.148437,-0.09766 -0.019532,-0.0625 -0.00781,-0.117187 0.058593,-0.160156 l 3.808594,-3.019531 h 1.734375 l 3.859375,3.019531 c 0.05859,0.03906 0.08203,0.09766 0.05859,0.160156 -0.01953,0.06641 -0.06641,0.09766 -0.136719,0.09766 h -2.1875 L 8.09375,-21.910156 c -0.375,0.234375 -0.765625,0.46875 -1.152344,0.699218 -0.390625,0.234375 -0.769531,0.460938 -1.152343,0.6875 H 3.625 M 1.332031,-9.570313 c 0,-1.125 0.015625,-2.050781 0.046875,-2.769531 0.027344,-0.710937 0.070313,-1.238281 0.125,-1.566406 0.054688,-0.324219 0.140625,-0.640625 0.257813,-0.945313 0.109375,-0.296875 0.246094,-0.597656 0.414062,-0.894531 H 2.164063 c 0.445312,-0.835937 1.171875,-1.613281 2.171875,-2.332031 1.011718,-0.722656 2.269531,-1.085938 3.769531,-1.085938 1.484375,0 2.734375,0.363282 3.742187,1.085938 1.015625,0.734375 1.75,1.511719 2.203125,2.332031 0.316407,0.582031 0.53125,1.199219 0.648438,1.839844 0.05469,0.324219 0.101562,0.847656 0.132812,1.566406 0.02734,0.710938 0.04687,1.636719 0.04687,2.769531 0,2.214844 -0.05859,3.664063 -0.179687,4.351563 -0.05859,0.335937 -0.144531,0.65625 -0.253906,0.957031 -0.105469,0.300781 -0.234375,0.589844 -0.382813,0.871094 C 13.609375,-2.5625 12.871094,-1.789063 11.847656,-1.0625 10.832031,-0.351563 9.582031,0.0117188 8.105469,0.0117188 6.617188,0.0117188 5.359375,-0.34375 4.335938,-1.0625 3.339844,-1.765625 2.617188,-2.542969 2.164063,-3.390625 H 2.175781 C 2.011719,-3.683594 1.878906,-3.980469 1.761719,-4.28125 1.652344,-4.578125 1.566406,-4.886719 1.503906,-5.21875 1.449219,-5.542969 1.410156,-6.066406 1.378906,-6.792969 1.351563,-7.511719 1.332031,-8.4375 1.332031,-9.570313 m 3.121094,0 c 0,0.941407 0.015625,1.714844 0.039063,2.324219 0.027343,0.609375 0.074218,1.054688 0.144531,1.355469 0.0625,0.265625 0.160156,0.53125 0.289062,0.796875 0.125,0.257812 0.265625,0.492187 0.421875,0.691406 0.273438,0.363281 0.640625,0.667969 1.101563,0.925781 0.453125,0.253907 1.007812,0.382813 1.65625,0.382813 0.636719,0 1.183594,-0.125 1.644531,-0.382813 0.453125,-0.253906 0.816406,-0.5625 1.089844,-0.925781 0.359375,-0.441406 0.59375,-0.933594 0.710937,-1.488281 0.136719,-0.550781 0.207032,-1.773438 0.207032,-3.679688 0,-0.9375 -0.01172,-1.714843 -0.05078,-2.324218 -0.03516,-0.609375 -0.08594,-1.054688 -0.15625,-1.339844 -0.05859,-0.269531 -0.148437,-0.542969 -0.273437,-0.808594 -0.113281,-0.257812 -0.257813,-0.5 -0.425781,-0.707031 -0.128907,-0.160156 -0.285157,-0.324219 -0.472657,-0.476563 -0.179687,-0.15625 -0.394531,-0.292968 -0.628906,-0.410156 -0.230469,-0.117187 -0.484375,-0.207031 -0.761719,-0.285156 -0.273437,-0.07031 -0.570312,-0.109375 -0.882812,-0.109375 -0.648438,0 -1.195313,0.128906 -1.65625,0.390625 -0.453125,0.257812 -0.824219,0.554687 -1.101563,0.890625 -0.160156,0.207031 -0.304687,0.441406 -0.425781,0.707031 -0.117187,0.257813 -0.214844,0.53125 -0.285156,0.808594 -0.066406,0.292969 -0.117188,0.746094 -0.144531,1.359375 -0.023438,0.609375 -0.039063,1.378906 -0.039063,2.304687 m 2.34375,14.683594 c -0.089844,0 -0.140625,-0.042968 -0.140625,-0.140625 v -2.5 c 0,-0.089843 0.046875,-0.140625 0.140625,-0.140625 h 2.511719 c 0.085937,0 0.132812,0.042969 0.132812,0.140625 v 2.5 c 0,0.089844 -0.039062,0.140625 -0.132812,0.140625 H 6.796875"
         id="path51383"
         style="fill:#ffffff" />
    </g>
    <g
       id="use155323"
       style="fill:#ffffff;fill-opacity:1"
       transform="matrix(7.9352152,0,0,7.9352152,2695.1444,-341.7001)">
      <path
         d="M 4.402344,0.0507813 C 4.300781,0.0507813 4.246094,0 4.246094,-0.105469 v -15.382812 c -0.394531,0.292968 -0.789063,0.589843 -1.191406,0.886718 -0.394532,0.300782 -0.789063,0.589844 -1.191407,0.875 -0.058593,0.03906 -0.117187,0.05078 -0.167968,0.01953 -0.050782,-0.02344 -0.078125,-0.07813 -0.078125,-0.148438 v -2.808594 c 0,-0.01563 0.00781,-0.03906 0.019531,-0.06641 0.015625,-0.02344 0.027344,-0.04297 0.046875,-0.0625 l 2.667969,-1.929687 h 2.707031 c 0.101562,0 0.152344,0.05078 0.152344,0.152343 v 18.46485 C 7.210938,0 7.160156,0.0507813 7.058594,0.0507813 h -2.65625"
         id="path51387"
         style="fill:#ffffff" />
    </g>
    <path
       style="color:#000000;fill:#ffffff;stroke-width:7.93522;stroke-miterlimit:10;-inkscape-stroke:none"
       d="m 2260.0296,-295.89519 -35.3823,34.42229 0.6523,0.66581 34.7323,-33.7711 34.7637,33.7711 0.6523,-0.66581 z"
       id="path155327" />
    <g
       id="use155335"
       style="fill:#ffffff;fill-opacity:1"
       transform="matrix(7.9352152,0,0,7.9352152,1741.5269,-141.69466)">
      <path
         d="m 8.148438,0.0078125 c -0.066407,0 -0.101563,-0.0351563 -0.101563,-0.1015625 V -5.394531 H 3.339844 v 5.300781 c 0,0.0664062 -0.035156,0.1015625 -0.101563,0.1015625 h -1.875 c -0.070312,0 -0.101562,-0.0351563 -0.101562,-0.1015625 v -12.371094 c 0,-0.07031 0.03125,-0.105469 0.101562,-0.105469 h 1.875 c 0.066407,0 0.101563,0.03516 0.101563,0.105469 v 5.195313 h 4.707031 v -5.195313 c 0,-0.07031 0.035156,-0.105469 0.101563,-0.105469 h 1.875 c 0.06641,0 0.101562,0.03516 0.101562,0.105469 V -0.09375 c 0,0.0664062 -0.03516,0.1015625 -0.101562,0.1015625 h -1.875"
         id="path51391"
         style="fill:#ffffff" />
    </g>
    <g
       id="use155339"
       style="fill:#ffffff;fill-opacity:1"
       transform="matrix(7.9352152,0,0,7.9352152,1832.4368,-141.69466)">
      <path
         d="M 0.148438,0 C 0.109375,0 0.078125,-0.0117188 0.0585938,-0.0429688 0.0429688,-0.0703125 0.0390625,-0.105469 0.0507813,-0.136719 L 4.574219,-12.515625 c 0.011719,-0.04297 0.039062,-0.07031 0.085937,-0.07031 h 1.546875 c 0.015625,0 0.035157,0.0039 0.054688,0.01953 0.019531,0.01563 0.03125,0.03125 0.039062,0.05078 l 4.515625,12.378906 c 0.0078,0.03125 0.0078,0.0625002 -0.0078,0.0937502 C 10.789063,-0.015625 10.765625,0 10.730469,0 H 8.753906 C 8.710938,0 8.679688,-0.0234375 8.667969,-0.0703125 L 7.734375,-2.796875 H 3.175781 C 3.015625,-2.332031 2.859375,-1.878906 2.699219,-1.429688 2.542969,-0.984375 2.382813,-0.53125 2.21875,-0.0703125 2.21484,-0.0507813 2.203125,-0.0390625 2.179688,-0.0234375 2.164063,-0.0078125 2.140625,0 2.125,0 H 0.148438 M 7.113281,-4.652344 C 7.105469,-4.691406 7.085938,-4.734375 7.066406,-4.78125 7.046875,-4.824219 7.03125,-4.867188 7.019531,-4.902344 6.921875,-5.183594 6.832031,-5.441406 6.75,-5.683594 6.671875,-5.921875 6.601563,-6.128906 6.535156,-6.308594 6.496094,-6.421875 6.457031,-6.535156 6.417969,-6.648438 6.382813,-6.753906 6.34375,-6.859375 6.308594,-6.957031 6.285156,-7.046875 6.253906,-7.132813 6.222656,-7.222656 6.199219,-7.304688 6.167969,-7.386719 6.136719,-7.46875 6.085938,-7.632813 6.035156,-7.800781 5.976563,-7.96875 5.925781,-8.132813 5.871094,-8.304688 5.808594,-8.484375 5.785156,-8.5625 5.753906,-8.652344 5.71875,-8.753906 5.6875,-8.847656 5.65625,-8.953125 5.621094,-9.0625 5.601563,-9.121094 5.589844,-9.164063 5.582031,-9.199219 5.574219,-9.226563 5.5625,-9.257813 5.550781,-9.292969 5.542969,-9.324219 5.527344,-9.359375 5.511719,-9.402344 5.5,-9.441406 5.480469,-9.496094 5.457031,-9.574219 c -0.0625,0.191406 -0.121093,0.363281 -0.179687,0.527344 -0.050781,0.160156 -0.101563,0.3125 -0.148438,0.449219 -0.00781,0.035156 -0.019531,0.0625 -0.027343,0.09375 -0.00391,0.027343 -0.011719,0.058593 -0.027344,0.085937 -0.023438,0.097656 -0.054688,0.191406 -0.089844,0.277344 -0.027344,0.085937 -0.058594,0.171875 -0.089844,0.257812 -0.027343,0.09375 -0.054687,0.183594 -0.085937,0.269532 -0.027344,0.085937 -0.054688,0.167968 -0.085938,0.25 -0.058593,0.171875 -0.117187,0.355468 -0.175781,0.542968 -0.0625,0.191407 -0.125,0.390625 -0.203125,0.597657 -0.074219,0.207031 -0.152344,0.425781 -0.234375,0.667968 -0.078125,0.238282 -0.179687,0.539063 -0.3125,0.902344 h 3.316406 m -1.140625,-9.03125 c -0.00781,0 -0.023437,-0.0039 -0.042968,-0.01172 -0.015625,-0.0078 -0.023438,-0.01172 -0.035157,-0.02344 l -2.382812,-2.519531 c -0.03125,-0.03516 -0.042969,-0.07031 -0.019531,-0.113282 0.015625,-0.03906 0.050781,-0.05859 0.097656,-0.05859 h 1.902344 c 0.03125,0 0.058593,0.01563 0.085937,0.05078 l 1.804688,2.523437 c 0.015625,0.03516 0.019531,0.07031 0.00391,0.105469 -0.015625,0.03125 -0.042969,0.04687 -0.09375,0.04687 H 5.972656"
         id="path51395"
         style="fill:#ffffff" />
    </g>
    <g
       id="use155347"
       style="fill:#ffffff;fill-opacity:1"
       transform="matrix(7.9352152,0,0,7.9352152,1953.7623,-141.69466)">
      <path
         d="m 1.363281,0.0078125 c -0.070312,0 -0.101562,-0.0351563 -0.101562,-0.1015625 v -12.371094 c 0,-0.07031 0.03125,-0.105469 0.101562,-0.105469 h 1.777344 c 0.035156,0 0.0625,0.01953 0.089844,0.05469 l 5.4375,8.5625 v -8.511719 c 0,-0.07031 0.035156,-0.105469 0.101562,-0.105469 h 1.882813 c 0.07031,0 0.105469,0.03516 0.105469,0.105469 V -0.09375 c 0,0.0664062 -0.03516,0.1015625 -0.105469,0.1015625 H 8.882813 c -0.035157,0 -0.058594,-0.015625 -0.085938,-0.0507813 L 3.339844,-8.605469 v 8.511719 c 0,0.0664062 -0.027344,0.1015625 -0.09375,0.1015625 H 1.363281"
         id="path51399"
         style="fill:#ffffff" />
    </g>
    <g
       id="use155351"
       style="fill:#ffffff;fill-opacity:1"
       transform="matrix(7.9352152,0,0,7.9352152,2049.5982,-141.69466)">
      <path
         d="m 2.417969,-13.683594 c -0.050781,0 -0.082031,-0.01953 -0.101563,-0.0625 -0.011718,-0.04297 -0.00391,-0.07813 0.039063,-0.109375 l 2.539062,-2.011719 h 1.15625 L 8.625,-13.855469 c 0.039063,0.02734 0.054688,0.06641 0.039063,0.109375 -0.015625,0.04297 -0.042969,0.0625 -0.089844,0.0625 H 7.113281 l -1.71875,-0.921875 c -0.25,0.15625 -0.507812,0.308594 -0.765625,0.464844 -0.261718,0.15625 -0.515625,0.308594 -0.769531,0.457031 H 2.417969 m -1.527344,7.304688 c 0,-0.75 0.007813,-1.367188 0.027344,-1.847657 C 0.9375,-8.703125 0.96875,-9.050781 1,-9.269531 c 0.039063,-0.21875 0.097656,-0.429688 0.175781,-0.632813 0.070313,-0.199219 0.164063,-0.394531 0.273438,-0.59375 h -0.00781 c 0.296875,-0.558594 0.78125,-1.074219 1.449219,-1.554687 0.675781,-0.484375 1.511719,-0.726563 2.511719,-0.726563 0.988281,0 1.824219,0.242188 2.496094,0.726563 0.679687,0.488281 1.167968,1.003906 1.46875,1.554687 0.210937,0.386719 0.351562,0.796875 0.429687,1.226563 0.039063,0.214843 0.070313,0.5625 0.09375,1.042968 0.015625,0.472657 0.027344,1.089844 0.027344,1.847657 0,1.476562 -0.039063,2.441406 -0.121094,2.898437 -0.039062,0.226563 -0.09375,0.4375 -0.167969,0.640625 C 9.5625,-2.640625 9.472656,-2.449219 9.375,-2.261719 9.074219,-1.710938 8.582031,-1.191406 7.898438,-0.707031 7.222656,-0.234375 6.386719,0.0078125 5.402344,0.0078125 4.410156,0.0078125 3.574219,-0.230469 2.890625,-0.707031 2.226563,-1.179688 1.742188,-1.695313 1.441406,-2.261719 h 0.00781 C 1.34375,-2.457031 1.25,-2.65625 1.175781,-2.851563 1.101563,-3.050781 1.042969,-3.257813 1,-3.480469 0.96875,-3.695313 0.941406,-4.042969 0.917969,-4.527344 0.902344,-5.007813 0.890625,-5.625 0.890625,-6.378906 m 2.078125,0 c 0,0.625 0.00781,1.144531 0.027344,1.550781 0.015625,0.402344 0.046875,0.703125 0.09375,0.898437 0.042969,0.179688 0.109375,0.355469 0.195312,0.53125 0.082032,0.175782 0.175782,0.328125 0.28125,0.464844 0.179688,0.238281 0.425782,0.441406 0.734375,0.617188 0.300782,0.167968 0.671875,0.253906 1.101563,0.253906 0.425781,0 0.792969,-0.082031 1.097656,-0.253906 0.300781,-0.167969 0.542969,-0.378907 0.726563,-0.617188 0.242187,-0.296875 0.394531,-0.625 0.472656,-0.996094 0.09375,-0.363281 0.140625,-1.179687 0.140625,-2.449218 0,-0.625 -0.011719,-1.144532 -0.035156,-1.550782 C 7.78125,-8.335938 7.746094,-8.632813 7.699219,-8.824219 7.660156,-9.003906 7.601563,-9.183594 7.519531,-9.363281 7.441406,-9.535156 7.347656,-9.695313 7.234375,-9.832031 7.148438,-9.941406 7.042969,-10.046875 6.917969,-10.152344 6.796875,-10.253906 6.65625,-10.347656 6.5,-10.421875 6.34375,-10.5 6.175781,-10.5625 5.992188,-10.613281 5.808594,-10.660156 5.609375,-10.6875 5.402344,-10.6875 c -0.429688,0 -0.796875,0.08594 -1.101563,0.257812 -0.304687,0.175782 -0.550781,0.371094 -0.734375,0.597657 -0.109375,0.136718 -0.203125,0.292968 -0.285156,0.46875 -0.078125,0.175781 -0.144531,0.355468 -0.191406,0.539062 -0.042969,0.195313 -0.078125,0.5 -0.09375,0.90625 -0.019531,0.40625 -0.027344,0.921875 -0.027344,1.539063 m 1.5625,9.789062 c -0.058594,0 -0.09375,-0.03125 -0.09375,-0.09375 V 1.648438 c 0,-0.058594 0.03125,-0.09375 0.09375,-0.09375 h 1.675781 c 0.054688,0 0.085938,0.03125 0.085938,0.09375 v 1.667968 c 0,0.058594 -0.027344,0.09375 -0.085938,0.09375 H 4.53125"
         id="path51403"
         style="fill:#ffffff" />
    </g>
    <g
       id="use155355"
       style="fill:#ffffff;fill-opacity:1"
       transform="matrix(7.9352152,0,0,7.9352152,2134.9094,-141.69466)">
      <path
         d="m 1.339844,0.0078125 c -0.070313,0 -0.105469,-0.0351563 -0.105469,-0.1015625 v -12.371094 c 0,-0.07031 0.035156,-0.105469 0.105469,-0.105469 h 1.871094 c 0.070312,0 0.105468,0.03516 0.105468,0.105469 V -0.09375 c 0,0.0664062 -0.035156,0.1015625 -0.105468,0.1015625 H 1.339844"
         id="path51407"
         style="fill:#ffffff" />
    </g>
    <path
       id="rect42900"
       style="fill:#ffffff;fill-rule:evenodd;stroke-width:67.5604;stroke-linecap:round;paint-order:stroke fill markers"
       d="m 2260.0296,-295.89114 -35.5217,34.74372 v 419.46981 h 71.0795 v -35.55731 l 0.01,-0.008 c 21.9897,-27.553888 55.8852,-62.969491 102.6604,-88.922519 43.5655,-24.1719911 98.8478,-39.8938397 151.8426,-39.8931648 45.8193,6.748e-4 90.0236,11.1781567 127.6305,25.0494628 l 24.6551,-9.7059553 -9.4855,-23.9915927 c -40.8887,-15.343957 -89.9876,-28.175613 -142.8001,-28.176063 -60.2782,-9e-4 -120.5091,17.221042 -169.7069,44.5191827 -34.883,19.3541033 -62.8964,43.0235883 -84.8096,65.5121633 v -188.252124 0 c -0.016,-0.23843 0.7648,-0.47911 0.7648,-0.71979 0,-18.59675 15.0751,-33.67326 33.6728,-33.67438 18.6021,-0.005 33.6863,15.07291 33.6863,33.67438 0,18.60191 -15.0842,33.679774 -33.6863,33.674375 h -24.5719 v 36.289477 h 24.5606 c 38.2165,0.0081 69.9864,-31.736337 69.9864,-69.952162 v -0.0225 c 0,-38.2111 -31.7654,-69.95464 -69.9751,-69.95239 h -0.01 c -12.7065,0.004 -24.4144,3.74585 -34.5118,10.01974 v -79.37874 z m -505.8343,207.741416 -18.2513,18.133154 18.2513,18.156548 h 460.3277 v -36.289702 z"
       sodipodi:nodetypes="cccccccscccssccccccccccssssccccccccc" />
  </g>
</svg>
