<?xml version="1.0" encoding="UTF-8" standalone="no"?>
<svg
   xmlns:dc="http://purl.org/dc/elements/1.1/"
   xmlns:cc="http://creativecommons.org/ns#"
   xmlns:rdf="http://www.w3.org/1999/02/22-rdf-syntax-ns#"
   xmlns:svg="http://www.w3.org/2000/svg"
   xmlns="http://www.w3.org/2000/svg"
   xmlns:sodipodi="http://sodipodi.sourceforge.net/DTD/sodipodi-0.dtd"
   xmlns:inkscape="http://www.inkscape.org/namespaces/inkscape"
   width="410.58151mm"
   height="195.25613mm"
   viewBox="0 0 410.58152 195.25613"
   version="1.1"
   id="svg9491"
   inkscape:version="1.0 (4035a4fb49, 2020-05-01)"
   sodipodi:docname="Vietnam_road_sign_IE462.svg">
  <defs
     id="defs9485">
    <clipPath
       id="clipPath2832">
      <path
         d="M -0.24,595.138 H 317.24 V -0.138 H -0.24 Z"
         id="path2834"
         inkscape:connector-curvature="0" />
    </clipPath>
    <clipPath
       id="clipPath2840">
      <path
         d="M 0.03,595.32 H 317.49 V 0 H 0.03 Z"
         id="path2842"
         inkscape:connector-curvature="0" />
    </clipPath>
    <clipPath
       id="clipPath2858">
      <path
         d="M -0.24,595.138 H 317.24 V -0.138 H -0.24 Z"
         id="path2860"
         inkscape:connector-curvature="0" />
    </clipPath>
    <clipPath
       id="clipPath2864">
      <path
         d="M 0.03,595.32 H 317.49 V 0 H 0.03 Z"
         id="path2866"
         inkscape:connector-curvature="0" />
    </clipPath>
    <clipPath
       id="clipPath3306">
      <path
         d="m 199.238,472.977 v -29.74 h 29.744 v 29.74"
         id="path3308"
         inkscape:connector-curvature="0" />
    </clipPath>
    <clipPath
       id="clipPath3322">
      <path
         d="M -0.24,595.138 H 317.24 V -0.138 H -0.24 Z"
         id="path3324"
         inkscape:connector-curvature="0" />
    </clipPath>
    <clipPath
       id="clipPath3330">
      <path
         d="M 0.03,595.32 H 317.49 V 0 H 0.03 Z"
         id="path3332"
         inkscape:connector-curvature="0" />
    </clipPath>
    <clipPath
       id="clipPath3344">
      <path
         d="m 88.233,387.221 v -28.335 h 32.08 v 28.335"
         id="path3346"
         inkscape:connector-curvature="0" />
    </clipPath>
    <clipPath
       id="clipPath3462">
      <path
         d="M -0.24,595.138 H 317.24 V -0.138 H -0.24 Z"
         id="path3464"
         inkscape:connector-curvature="0" />
    </clipPath>
    <clipPath
       id="clipPath3470">
      <path
         d="M 0.03,595.32 H 317.49 V 0 H 0.03 Z"
         id="path3472"
         inkscape:connector-curvature="0" />
    </clipPath>
    <clipPath
       id="clipPath3490">
      <path
         d="M -0.24,595.138 H 317.24 V -0.138 H -0.24 Z"
         id="path3492"
         inkscape:connector-curvature="0" />
    </clipPath>
    <clipPath
       id="clipPath3496">
      <path
         d="M 0.03,595.32 H 317.49 V 0 H 0.03 Z"
         id="path3498"
         inkscape:connector-curvature="0" />
    </clipPath>
    <clipPath
       id="clipPath3520">
      <path
         d="m 254.788,326.215 v -28.309 h 28.326 v 28.309"
         id="path3522"
         inkscape:connector-curvature="0" />
    </clipPath>
    <clipPath
       id="clipPath3544">
      <path
         d="m 145.049,326.142 v -28.333 h 28.342 v 28.333"
         id="path3546"
         inkscape:connector-curvature="0" />
    </clipPath>
    <clipPath
       id="clipPath3682">
      <path
         d="M -0.24,595.138 H 317.24 V -0.138 H -0.24 Z"
         id="path3684"
         inkscape:connector-curvature="0" />
    </clipPath>
    <clipPath
       id="clipPath3690">
      <path
         d="M 0.03,595.32 H 317.49 V 0 H 0.03 Z"
         id="path3692"
         inkscape:connector-curvature="0" />
    </clipPath>
    <clipPath
       id="clipPath3980">
      <path
         d="M -0.24,595.138 H 317.24 V -0.138 H -0.24 Z"
         id="path3982"
         inkscape:connector-curvature="0" />
    </clipPath>
    <clipPath
       id="clipPath3988">
      <path
         d="M 0.03,595.32 H 317.49 V 0 H 0.03 Z"
         id="path3990"
         inkscape:connector-curvature="0" />
    </clipPath>
    <clipPath
       id="clipPath4010">
      <path
         d="M -0.24,595.138 H 317.24 V -0.138 H -0.24 Z"
         id="path4012"
         inkscape:connector-curvature="0" />
    </clipPath>
    <clipPath
       id="clipPath4016">
      <path
         d="M 0.03,595.32 H 317.49 V 0 H 0.03 Z"
         id="path4018"
         inkscape:connector-curvature="0" />
    </clipPath>
    <clipPath
       id="clipPath4062">
      <path
         d="m 200.163,177.773 v -28.284 h 28.283 v 28.284"
         id="path4064"
         inkscape:connector-curvature="0" />
    </clipPath>
    <clipPath
       id="clipPath4090">
      <path
         d="m 34.886,177.515 v -51.632 h 30.367 v 51.632"
         id="path4092"
         inkscape:connector-curvature="0" />
    </clipPath>
    <clipPath
       id="clipPath4106">
      <path
         d="m 34.886,177.515 v -51.632 h 30.367 v 51.632"
         id="path4108"
         inkscape:connector-curvature="0" />
    </clipPath>
    <clipPath
       id="clipPath4272">
      <path
         d="m 34.886,177.515 v -51.632 h 30.367 v 51.632"
         id="path4274"
         inkscape:connector-curvature="0" />
    </clipPath>
    <clipPath
       id="clipPath4304">
      <path
         d="m 254.653,176.442 v -48.167 h 28.317 v 48.167"
         id="path4306"
         inkscape:connector-curvature="0" />
    </clipPath>
    <clipPath
       id="clipPath4310">
      <path
         d="m 253.565,177.983 h 31.181 V 128.8 h -31.181 z"
         id="path4312"
         inkscape:connector-curvature="0" />
    </clipPath>
    <clipPath
       id="clipPath4316">
      <path
         d="M -0.24,595.138 H 317.24 V -0.138 H -0.24 Z"
         id="path4318"
         inkscape:connector-curvature="0" />
    </clipPath>
    <clipPath
       id="clipPath4322">
      <path
         d="M 0.03,595.32 H 317.49 V 0 H 0.03 Z"
         id="path4324"
         inkscape:connector-curvature="0" />
    </clipPath>
    <clipPath
       id="clipPath4456">
      <path
         d="M -0.24,595.138 H 317.24 V -0.138 H -0.24 Z"
         id="path4458"
         inkscape:connector-curvature="0" />
    </clipPath>
    <clipPath
       id="clipPath4464">
      <path
         d="M 0.03,595.32 H 317.49 V 0 H 0.03 Z"
         id="path4466"
         inkscape:connector-curvature="0" />
    </clipPath>
  </defs>
  <sodipodi:namedview
     id="base"
     pagecolor="#ffffff"
     bordercolor="#666666"
     borderopacity="1.0"
     inkscape:pageopacity="0.0"
     inkscape:pageshadow="2"
     inkscape:zoom="0.30848693"
     inkscape:cx="1189.1837"
     inkscape:cy="587.01514"
     inkscape:document-units="mm"
     inkscape:current-layer="layer1"
     showgrid="false"
     inkscape:window-width="1920"
     inkscape:window-height="1001"
     inkscape:window-x="-9"
     inkscape:window-y="-9"
     inkscape:window-maximized="1"
     inkscape:measure-start="0,0"
     inkscape:measure-end="0,0"
     inkscape:document-rotation="0" />
  <metadata
     id="metadata9488">
    <rdf:RDF>
      <cc:Work
         rdf:about="">
        <dc:format>image/svg+xml</dc:format>
        <dc:type
           rdf:resource="http://purl.org/dc/dcmitype/StillImage" />
        <dc:title></dc:title>
      </cc:Work>
    </rdf:RDF>
  </metadata>
  <g
     inkscape:label="Layer 1"
     inkscape:groupmode="layer"
     id="layer1"
     transform="translate(115.55338,-436.21821)">
    <path
       style="opacity:1;fill:#028f45;fill-opacity:1;fill-rule:nonzero;stroke:none;stroke-width:0.352777"
       d="M -115.55338,631.47434 H 295.02814 V 436.21821 h -410.58152 z m 0,0"
       id="path3661" />
    <path
       transform="matrix(0.26458333,0,0,0.26458333,351.82621,437.33702)"
       d="m -1716.1094,2.03125 c -24.2916,0 -44.084,19.792281 -44.084,44.083984 V 682.42773 c 0,24.29167 19.7924,44.08399 44.084,44.08399 h 1451.15628 c 24.29173,0 44.08398,-19.79232 44.08398,-44.08399 V 46.115234 c 0,-24.291703 -19.79225,-44.083984 -44.08398,-44.083984 z m 0,15.132812 h 1451.15628 c 16.16994,0 28.95312,12.781221 28.95312,28.951172 V 682.42773 c 0,16.17007 -12.78318,28.95118 -28.95312,28.95118 H -1716.1094 c -16.1699,0 -28.9531,-12.78111 -28.9531,-28.95118 V 46.115234 c 0,-16.169951 12.7832,-28.951171 28.9531,-28.951172 z m 263.8555,94.574218 -18.8711,14.95508 c -0.2997,0.21395 -0.4079,0.49357 -0.3223,0.83594 0.1284,0.2997 0.3864,0.44922 0.7715,0.44922 h 10.7207 c 1.8829,-1.11262 3.7872,-2.24693 5.7129,-3.40235 1.9257,-1.15545 3.83,-2.31141 5.7129,-3.46679 l 12.7734,6.86914 h 10.8477 c 0.3423,0 0.5569,-0.14952 0.6426,-0.44922 0.1283,-0.3423 0.042,-0.62192 -0.2578,-0.83594 l -19.1289,-14.95508 z m 919.16796,0 -18.87109,14.95508 c -0.2997,0.21395 -0.40795,0.49357 -0.32227,0.83594 0.12838,0.2997 0.38631,0.44922 0.77149,0.44922 h 10.71875 c 1.88289,-1.11262 3.78911,-2.24693 5.71484,-3.40235 1.92569,-1.15545 3.82997,-2.31141 5.71289,-3.46679 l 12.77344,6.86914 h 10.84766 c 0.34226,0 0.55689,-0.14952 0.64257,-0.44922 0.12835,-0.3423 0.0419,-0.62192 -0.25781,-0.83594 l -19.12891,-14.95508 z m -915.38086,18.8711 c -7.4461,0 -13.6709,1.79791 -18.6777,5.39257 -4.9641,3.55186 -8.5599,7.40371 -10.7852,11.55469 h 0.064 c -0.8131,1.45498 -1.4984,2.93194 -2.0547,4.42969 -0.5562,1.49778 -0.9835,3.05938 -1.2832,4.68555 -0.2569,1.62613 -0.4716,4.21376 -0.6426,7.76562 -0.1283,3.55186 -0.1914,8.13232 -0.1914,13.73828 0,5.60593 0.063,10.20612 0.1914,13.80078 0.1712,3.55186 0.3859,6.13946 0.6426,7.76563 0.2995,1.62616 0.7269,3.18975 1.2832,4.6875 0.5563,1.45498 1.2416,2.9083 2.0547,4.36328 h -0.064 c 2.2253,4.19379 5.8192,8.04564 10.7832,11.55469 5.0496,3.55185 11.2764,5.32812 18.6797,5.32812 7.3177,0 13.5011,-1.77627 18.5508,-5.32812 5.0496,-3.59466 8.7085,-7.44651 10.9765,-11.55469 0.7275,-1.36937 1.3479,-2.803 1.8614,-4.30078 0.5562,-1.49779 0.9854,-3.08107 1.2851,-4.75 0.5991,-3.38071 0.8985,-10.56851 0.8985,-21.56641 0,-5.60596 -0.085,-10.18642 -0.2559,-13.73828 -0.1282,-3.55186 -0.3429,-6.13949 -0.6426,-7.76562 -0.5563,-3.16672 -1.6256,-6.20528 -3.209,-9.11524 -2.2252,-4.06541 -5.8644,-7.91726 -10.914,-11.55469 -5.0069,-3.59466 -11.1903,-5.39257 -18.5508,-5.39257 z m 919.16797,0 c -7.44608,0 -13.67285,1.79791 -18.67969,5.39257 -4.96406,3.55186 -8.55794,7.40371 -10.7832,11.55469 h 0.0644 c -0.81308,1.45498 -1.49836,2.93194 -2.05468,4.42969 -0.5565,1.49778 -0.98385,3.05938 -1.28321,4.68555 -0.25693,1.62613 -0.47156,4.21376 -0.64257,7.76562 -0.12835,3.55186 -0.19141,8.13232 -0.19141,13.73828 0,5.60593 0.0631,10.20612 0.19141,13.80078 0.17125,3.55186 0.38588,6.13946 0.64257,7.76563 0.29953,1.62616 0.72688,3.18975 1.28321,4.6875 0.55632,1.45498 1.2416,2.9083 2.05468,4.36328 h -0.0644 c 2.22526,4.19379 5.82109,8.04564 10.78516,11.55469 5.04964,3.55185 11.27446,5.32812 18.67773,5.32812 7.31767,0 13.5031,-1.77627 18.55274,-5.32812 5.04964,-3.59466 8.7085,-7.44651 10.97656,-11.55469 0.72747,-1.36937 1.34777,-2.803 1.86133,-4.30078 0.55615,-1.49779 0.9835,-3.08107 1.2832,-4.75 0.59913,-3.38071 0.89844,-10.56851 0.89844,-21.56641 0,-5.60596 -0.0865,-10.18642 -0.25782,-13.73828 -0.12821,-3.55186 -0.34092,-6.13949 -0.64062,-7.76562 -0.55632,-3.16672 -1.62563,-6.20528 -3.20898,-9.11524 -2.22526,-4.06541 -5.86443,-7.91726 -10.91407,-11.55469 -5.00683,-3.59466 -11.19031,-5.39257 -18.55078,-5.39257 z m -755.13277,0.77148 c -7.4461,0 -13.6709,1.79596 -18.6778,5.39062 -4.964,3.55186 -8.5599,7.40371 -10.7851,11.55469 h 0.064 c -0.813,1.45498 -1.4983,2.93191 -2.0547,4.42969 -0.5561,1.49775 -0.9835,3.05938 -1.2832,4.68555 -0.2569,1.62616 -0.4715,4.21572 -0.6425,7.76757 -0.1284,3.55186 -0.1915,8.13037 -0.1915,13.73633 0,5.60593 0.063,10.20612 0.1915,13.80078 0.1712,3.55186 0.3858,6.14142 0.6425,7.76758 0.2996,1.62617 0.7269,3.1878 1.2832,4.68555 0.5564,1.45498 1.2417,2.91025 2.0547,4.36523 h -0.064 c 2.2252,4.19379 5.8211,8.04564 10.7851,11.55469 5.0497,3.55186 11.2745,5.32617 18.6778,5.32617 9.2862,0 17.2262,-3.22959 23.8164,-9.6914 6.5046,-6.37624 9.7558,-14.29266 9.7558,-23.75 v -18.74414 c 0,-0.47072 -0.256,-0.70704 -0.7695,-0.70704 h -32.6738 c -0.5136,0 -0.7696,0.23632 -0.7696,0.70704 v 13.22265 c 0,0.51352 0.256,0.76953 0.7696,0.76953 h 17.9726 v 3.98047 c 0,5.60593 -1.7546,10.14114 -5.2637,13.60742 -3.4659,3.46628 -7.7454,5.20118 -12.8378,5.20118 -3.2095,0 -5.9468,-0.62226 -8.2149,-1.86329 -2.268,-1.28379 -4.0876,-2.82378 -5.457,-4.62109 -0.7703,-0.98427 -1.4773,-2.11855 -2.1192,-3.40234 -0.599,-1.3266 -1.0697,-2.65192 -1.4121,-3.97852 -0.3423,-1.45498 -0.5767,-3.68025 -0.705,-6.67578 -0.1284,-3.03837 -0.1934,-6.89022 -0.1934,-11.55469 0,-4.57892 0.065,-8.38744 0.1934,-11.42578 0.1283,-3.03834 0.3627,-5.28525 0.705,-6.74023 0.3424,-1.36937 0.813,-2.69664 1.4121,-3.98047 0.5991,-1.3266 1.3061,-2.50226 2.1192,-3.5293 1.3694,-1.66893 3.189,-3.14586 5.457,-4.42969 2.2681,-1.28379 5.0054,-1.92578 8.2149,-1.92578 4.3221,0 7.8963,1.26229 10.7207,3.78711 1.4977,1.2838 2.76,2.67409 3.7871,4.17188 1.027,1.45498 1.8187,3.03826 2.375,4.75 0.086,0.34237 0.3219,0.51367 0.707,0.51367 h 14.6992 c 0.2566,0 0.4693,-0.0848 0.6406,-0.25586 0.1714,-0.17125 0.2146,-0.38589 0.129,-0.64258 -1.4122,-7.61726 -5.0711,-14.16308 -10.9766,-19.64062 -5.8199,-5.47759 -13.181,-8.2168 -22.082,-8.2168 z m 315.90426,0 c -7.44608,0 -13.6709,1.79596 -18.67774,5.39062 -4.96406,3.55186 -8.5599,7.40371 -10.78515,11.55469 h 0.0644 c -0.81308,1.45498 -1.49837,2.93191 -2.05469,4.42969 -0.55648,1.49775 -0.98388,3.05938 -1.28328,4.68555 -0.2569,1.62616 -0.4718,4.21572 -0.6425,7.76757 -0.1285,3.55186 -0.1915,8.13037 -0.1915,13.73633 0,5.60593 0.063,10.20612 0.1915,13.80078 0.1709,3.55186 0.3858,6.14142 0.6425,7.76758 0.2996,1.62617 0.727,3.1878 1.28328,4.68555 0.55632,1.45498 1.24161,2.91025 2.05469,4.36523 h -0.0644 c 2.22525,4.19379 5.82109,8.04564 10.78515,11.55469 5.04964,3.55186 11.27446,5.32617 18.67774,5.32617 9.28616,0 17.22422,-3.22959 23.81445,-9.6914 6.50462,-6.37624 9.75781,-14.29266 9.75781,-23.75 v -18.74414 c 0,-0.47072 -0.25598,-0.70704 -0.76953,-0.70704 h -32.67383 c -0.51352,0 -0.76953,0.23632 -0.76953,0.70704 v 13.22265 c 0,0.51352 0.25601,0.76953 0.76953,0.76953 h 17.97266 v 3.98047 c 0,5.60593 -1.75462,10.14114 -5.26367,13.60742 -3.46628,3.46628 -7.74548,5.20118 -12.83789,5.20118 -3.20953,0 -5.94679,-0.62226 -8.21485,-1.86329 -2.26806,-1.28379 -4.08762,-2.82378 -5.45703,-4.62109 -0.77028,-0.98427 -1.47724,-2.11855 -2.11914,-3.40234 -0.59909,-1.3266 -1.06974,-2.65192 -1.41211,-3.97852 -0.34237,-1.45498 -0.57673,-3.68025 -0.70508,-6.67578 -0.12834,-3.03837 -0.19336,-6.89022 -0.19336,-11.55469 0,-4.57892 0.065,-8.38744 0.19336,-11.42578 0.12835,-3.03834 0.36271,-5.28525 0.70508,-6.74023 0.34237,-1.36937 0.81302,-2.69664 1.41211,-3.98047 0.59913,-1.3266 1.30609,-2.50226 2.11914,-3.5293 1.36941,-1.66893 3.18897,-3.14586 5.45703,-4.42969 2.26806,-1.28379 5.00532,-1.92578 8.21485,-1.92578 4.32213,0 7.89632,1.26229 10.7207,3.78711 1.49775,1.2838 2.76004,2.67409 3.78711,4.17188 1.02703,1.45498 1.81868,3.03826 2.375,4.75 0.0856,0.34237 0.31994,0.51367 0.70508,0.51367 h 14.70117 c 0.25658,0 0.46927,-0.0848 0.64062,-0.25586 0.17136,-0.17125 0.21459,-0.38589 0.12891,-0.64258 -1.41217,-7.61726 -5.07104,-14.16308 -10.97656,-19.64062 -5.81992,-5.47759 -13.18101,-8.2168 -22.08203,-8.2168 z m 187.48046,0 c -7.44605,0 -13.67285,1.79596 -18.67968,5.39062 -4.96403,3.55186 -8.55791,7.40371 -10.78321,11.55469 h 0.0645 c -0.81308,1.45498 -1.49837,2.93191 -2.05469,4.42969 -0.55615,1.49775 -0.9835,3.05938 -1.2832,4.68555 -0.25659,1.62616 -0.47122,4.21572 -0.64258,7.76757 -0.12835,3.55186 -0.19336,8.13037 -0.19336,13.73633 0,5.60593 0.065,10.20612 0.19336,13.80078 0.17125,3.55186 0.38589,6.14142 0.64258,7.76758 0.29956,1.62617 0.72691,3.1878 1.2832,4.68555 0.55632,1.45498 1.24161,2.91025 2.05469,4.36523 h -0.0645 c 2.2253,4.19379 5.81918,8.04564 10.78321,11.55469 5.04964,3.55186 11.27644,5.32617 18.67968,5.32617 7.31771,0 13.50115,-1.77431 18.55079,-5.32617 5.04964,-3.59466 8.70853,-7.44651 10.97656,-11.55469 0.72751,-1.36937 1.34781,-2.80299 1.86133,-4.30078 0.55618,-1.49778 0.98545,-3.08106 1.28515,-4.75 0.5991,-3.38067 0.89844,-10.57042 0.89844,-21.56836 0,-5.60596 -0.0865,-10.18447 -0.25781,-13.73633 -0.12855,-3.55185 -0.34322,-6.14141 -0.64258,-7.76757 -0.55632,-3.16672 -1.62563,-6.20528 -3.20898,-9.11524 -2.22526,-4.06537 -5.86247,-7.91722 -10.91211,-11.55469 -5.00687,-3.59466 -11.19031,-5.39062 -18.55079,-5.39062 z m 415.78321,0 c -7.44608,0 -13.6709,1.79596 -18.67774,5.39062 -4.96406,3.55186 -8.5599,7.40371 -10.78515,11.55469 h 0.0645 c -0.81308,1.45498 -1.49836,2.93191 -2.05469,4.42969 -0.55618,1.49775 -0.9835,3.05938 -1.2832,4.68555 -0.2569,1.62616 -0.47157,4.21572 -0.64258,7.76757 -0.12834,3.55186 -0.1914,8.13037 -0.1914,13.73633 0,5.60593 0.0631,10.20612 0.1914,13.80078 0.17122,3.55186 0.38589,6.14142 0.64258,7.76758 0.29956,1.62617 0.72688,3.1878 1.2832,4.68555 0.55633,1.45498 1.24161,2.91025 2.05469,4.36523 h -0.0645 c 2.22525,4.19379 5.82109,8.04564 10.78515,11.55469 5.04964,3.55186 11.27446,5.32617 18.67774,5.32617 9.28616,0 17.22422,-3.22959 23.81445,-9.6914 6.50462,-6.37624 9.75781,-14.29266 9.75781,-23.75 v -18.74414 c 0,-0.47072 -0.25597,-0.70704 -0.76953,-0.70704 h -32.67383 c -0.51351,0 -0.76953,0.23632 -0.76953,0.70704 v 13.22265 c 0,0.51352 0.25602,0.76953 0.76953,0.76953 h 17.97266 v 3.98047 c 0,5.60593 -1.75462,10.14114 -5.26367,13.60742 -3.46628,3.46628 -7.74548,5.20118 -12.83789,5.20118 -3.20952,0 -5.94678,-0.62226 -8.21485,-1.86329 -2.26806,-1.28379 -4.08762,-2.82378 -5.45703,-4.62109 -0.77027,-0.98427 -1.47724,-2.11855 -2.11914,-3.40234 -0.59909,-1.3266 -1.06974,-2.65192 -1.41211,-3.97852 -0.34237,-1.45498 -0.57673,-3.68025 -0.70508,-6.67578 -0.12831,-3.03837 -0.19335,-6.89022 -0.19335,-11.55469 0,-4.57892 0.065,-8.38744 0.19335,-11.42578 0.12835,-3.03834 0.36271,-5.28525 0.70508,-6.74023 0.34237,-1.36937 0.81302,-2.69664 1.41211,-3.98047 0.59913,-1.3266 1.3061,-2.50226 2.11914,-3.5293 1.36941,-1.66893 3.18897,-3.14586 5.45703,-4.42969 2.26807,-1.28379 5.00533,-1.92578 8.21485,-1.92578 4.32213,0 7.89632,1.26229 10.7207,3.78711 1.49775,1.2838 2.76004,2.67409 3.78711,4.17188 1.02704,1.45498 1.81868,3.03826 2.375,4.75 0.0856,0.34237 0.31994,0.51367 0.70508,0.51367 h 14.70117 c 0.25659,0 0.46927,-0.0848 0.64063,-0.25586 0.17135,-0.17125 0.21458,-0.38589 0.1289,-0.64258 -1.41217,-7.61726 -5.07103,-14.16308 -10.97656,-19.64062 -5.81992,-5.47759 -13.18101,-8.2168 -22.08203,-8.2168 z m -500.72071,0.64062 c -0.34219,0 -0.55689,0.17131 -0.64257,0.51368 l -33.63672,92.04882 c -0.0857,0.25669 -0.0639,0.49301 0.0645,0.70704 0.12855,0.21402 0.34322,0.32031 0.64258,0.32031 h 14.69922 c 0.12834,0 0.25642,-0.0432 0.38476,-0.12891 0.17136,-0.12834 0.2796,-0.25642 0.32227,-0.38476 1.19822,-3.42348 2.37388,-6.78303 3.5293,-10.07813 1.19822,-3.3379 2.39748,-6.7388 3.5957,-10.20508 h 33.89258 l 6.93164,20.28321 c 0.0856,0.34236 0.30021,0.51367 0.64258,0.51367 h 14.69921 c 0.2568,0 0.44979,-0.10629 0.57813,-0.32031 0.12834,-0.21403 0.15018,-0.45035 0.0644,-0.70704 l -33.57226,-92.04882 c -0.043,-0.12835 -0.1493,-0.23464 -0.32032,-0.32032 -0.12831,-0.12834 -0.25837,-0.19336 -0.38671,-0.19336 z m -767.50782,0.12891 c -0.5135,0 -0.7695,0.25601 -0.7695,0.76953 v 12.39063 c 0,0.51351 0.256,0.76953 0.7695,0.76953 h 24.457 v 78.82617 c 0,0.51352 0.2561,0.76953 0.7696,0.76953 h 13.9297 c 0.5135,0 0.7695,-0.25601 0.7695,-0.76953 v -78.82617 h 24.3926 c 0.5135,0 0.7715,-0.25602 0.7715,-0.76953 v -12.39063 c 0,-0.51352 -0.258,-0.76953 -0.7715,-0.76953 z m 72.5508,0 c -0.5135,0 -0.7715,0.25601 -0.7715,0.76953 v 91.98633 c 0,0.51352 0.258,0.76953 0.7715,0.76953 h 13.9277 c 0.5135,0 0.7715,-0.25601 0.7715,-0.76953 v -39.41406 h 34.9824 v 39.41406 c 0,0.51352 0.258,0.76953 0.7715,0.76953 h 13.9297 c 0.5135,0 0.7695,-0.25601 0.7695,-0.76953 v -91.98633 c 0,-0.51352 -0.256,-0.76953 -0.7695,-0.76953 h -13.9297 c -0.5135,0 -0.7715,0.25601 -0.7715,0.76953 v 38.64258 h -34.9824 v -38.64258 c 0,-0.51352 -0.258,-0.76953 -0.7715,-0.76953 z m 159.7344,0 c -0.5135,0 -0.7715,0.25601 -0.7715,0.76953 v 91.98633 c 0,0.51352 0.258,0.76953 0.7715,0.76953 h 13.9922 c 0.4707,0 0.707,-0.25601 0.707,-0.76953 v -63.29297 l 40.5683,63.67774 c 0.1713,0.25669 0.3859,0.38476 0.6426,0.38476 h 13.1582 c 0.5135,0 0.7696,-0.25601 0.7696,-0.76953 v -91.98633 c 0,-0.51352 -0.2561,-0.76953 -0.7696,-0.76953 h -13.9941 c -0.5135,0 -0.7695,0.25601 -0.7695,0.76953 v 63.29297 l -40.4395,-63.67773 c -0.1713,-0.25669 -0.3859,-0.38477 -0.6426,-0.38477 z m 183.5,0 c -0.5135,0 -0.7715,0.25601 -0.7715,0.76953 v 12.39063 c 0,0.51351 0.258,0.76953 0.7715,0.76953 h 24.455 v 78.82617 c 0,0.51352 0.258,0.76953 0.7715,0.76953 h 13.9297 c 0.5135,0 0.7696,-0.25601 0.7696,-0.76953 v -78.82617 h 24.3925 c 0.5135,0 0.7696,-0.25602 0.7696,-0.76953 v -12.39063 c 0,-0.51352 -0.2561,-0.76953 -0.7696,-0.76953 z m 72.3554,0 c -0.5135,0 -0.7695,0.25601 -0.7695,0.76953 v 91.98633 c 0,0.51352 0.256,0.76953 0.7695,0.76953 h 13.9297 c 0.5135,0 0.7715,-0.25601 0.7715,-0.76953 v -91.98633 c 0,-0.51352 -0.258,-0.76953 -0.7715,-0.76953 z m 31.2754,0 c -0.5135,0 -0.7695,0.25601 -0.7695,0.76953 v 91.98633 c 0,0.51352 0.256,0.76953 0.7695,0.76953 h 13.9942 c 0.4707,0 0.707,-0.25601 0.707,-0.76953 v -63.29297 l 40.5684,63.67774 c 0.1712,0.25669 0.3839,0.38476 0.6406,0.38476 h 13.1601 c 0.5136,0 0.7696,-0.25601 0.7696,-0.76953 v -91.98633 c 0,-0.51352 -0.256,-0.76953 -0.7696,-0.76953 H -1059 c -0.5135,0 -0.7695,0.25601 -0.7695,0.76953 v 63.29297 l -40.4414,-63.67773 c -0.1713,-0.25669 -0.384,-0.38477 -0.6407,-0.38477 z m 192.93753,0 c -0.51352,0 -0.77149,0.25601 -0.77149,0.76953 v 91.98633 c 0,0.51352 0.25797,0.76953 0.77149,0.76953 h 13.92773 c 0.51352,0 0.77149,-0.25601 0.77149,-0.76953 v -91.98633 c 0,-0.51352 -0.25797,-0.76953 -0.77149,-0.76953 z m 206.81445,0 c -0.51352,0 -0.76953,0.25601 -0.76953,0.76953 v 12.39063 c 0,0.51351 0.25601,0.76953 0.76953,0.76953 h 24.45703 v 78.82617 c 0,0.51352 0.25602,0.76953 0.76953,0.76953 h 13.92969 c 0.51352,0 0.76953,-0.25601 0.76953,-0.76953 v -78.82617 h 24.39258 c 0.51355,0 0.77148,-0.25602 0.77148,-0.76953 v -12.39063 c 0,-0.51352 -0.25793,-0.76953 -0.77148,-0.76953 z m 72.55078,0 c -0.51352,0 -0.77148,0.25601 -0.77148,0.76953 v 91.98633 c 0,0.51352 0.25796,0.76953 0.77148,0.76953 h 13.92774 c 0.51351,0 0.77148,-0.25601 0.77148,-0.76953 v -39.41406 h 34.98242 v 39.41406 c 0,0.51352 0.25797,0.76953 0.77149,0.76953 h 13.92969 c 0.51348,0 0.76953,-0.25601 0.76953,-0.76953 v -91.98633 c 0,-0.51352 -0.25605,-0.76953 -0.76953,-0.76953 h -13.92969 c -0.51352,0 -0.77149,0.25601 -0.77149,0.76953 v 38.64258 h -34.98242 v -38.64258 c 0,-0.51352 -0.25797,-0.76953 -0.77148,-0.76953 z m 159.73438,0 c -0.51352,0 -0.77149,0.25601 -0.77149,0.76953 v 91.98633 c 0,0.51352 0.25797,0.76953 0.77149,0.76953 h 13.99218 c 0.47075,0 0.70704,-0.25601 0.70704,-0.76953 v -63.29297 l 40.56836,63.67774 c 0.17125,0.25669 0.38393,0.38476 0.64062,0.38476 h 13.16016 c 0.51351,0 0.76953,-0.25601 0.76953,-0.76953 v -91.98633 c 0,-0.51352 -0.25602,-0.76953 -0.76953,-0.76953 h -13.99414 c -0.51352,0 -0.76952,0.25601 -0.76954,0.76953 v 63.29297 l -40.43945,-63.67773 c -0.17125,-0.25669 -0.38589,-0.38477 -0.64258,-0.38477 z m -966.42774,13.99414 c 1.5406,0 2.9958,0.19299 4.3652,0.57813 1.3694,0.34233 2.6317,0.81298 3.7871,1.41211 1.1555,0.55632 2.1834,1.218 3.0821,1.98828 0.9414,0.77027 1.7331,1.56192 2.375,2.375 0.8131,1.02703 1.5181,2.20465 2.1172,3.53125 0.599,1.28379 1.0499,2.61106 1.3496,3.98047 0.3421,1.41217 0.5981,3.63744 0.7695,6.67578 0.171,2.99556 0.2559,6.82573 0.2559,11.49023 0,9.41454 -0.3427,15.48971 -1.0274,18.22852 -0.5563,2.73877 -1.7319,5.20032 -3.5293,7.38281 -1.3266,1.79731 -3.1245,3.3373 -5.3926,4.62109 -2.268,1.24103 -4.9856,1.86133 -8.1523,1.86133 -3.2095,0 -5.9487,-0.6203 -8.2168,-1.86133 -2.2681,-1.28379 -4.0857,-2.82378 -5.4551,-4.62109 -0.7702,-0.98427 -1.4772,-2.11855 -2.1191,-3.40234 -0.5991,-1.3266 -1.0698,-2.65387 -1.4121,-3.98047 -0.3424,-1.45498 -0.5768,-3.68022 -0.7051,-6.67578 -0.1283,-3.03834 -0.1934,-6.88827 -0.1934,-11.55274 0,-4.57893 0.065,-8.38744 0.1934,-11.42578 0.1283,-3.03834 0.3627,-5.28526 0.7051,-6.74023 0.3423,-1.36941 0.813,-2.69668 1.4121,-3.98047 0.5991,-1.3266 1.3061,-2.50422 2.1191,-3.53125 1.3694,-1.66897 3.189,-3.14394 5.4571,-4.42774 2.268,-1.28379 5.0053,-1.92578 8.2148,-1.92578 z m 919.16797,0 c 1.54056,0 2.99583,0.19299 4.36524,0.57813 1.36937,0.34233 2.63166,0.81298 3.78711,1.41211 1.15541,0.55632 2.18337,1.218 3.08203,1.98828 0.94146,0.77027 1.7331,1.56192 2.375,2.375 0.81308,1.02703 1.51809,2.20465 2.11718,3.53125 0.59899,1.28379 1.04796,2.61106 1.34766,3.98047 0.34216,1.41217 0.60013,3.63744 0.77149,6.67578 0.17132,2.99556 0.25585,6.82573 0.25585,11.49023 0,9.41454 -0.34264,15.48971 -1.02734,18.22852 -0.55632,2.73877 -1.73195,5.20032 -3.5293,7.38281 -1.3266,1.79731 -3.12455,3.3373 -5.39257,4.62109 -2.26807,1.24103 -4.98563,1.86133 -8.15235,1.86133 -3.20952,0 -5.94876,-0.6203 -8.21679,-1.86133 -2.26807,-1.28379 -4.08571,-2.82378 -5.45508,-4.62109 -0.77031,-0.98427 -1.47725,-2.11855 -2.11914,-3.40234 -0.5991,-1.3266 -1.06974,-2.65387 -1.41211,-3.98047 -0.34237,-1.45498 -0.57674,-3.68022 -0.70508,-6.67578 -0.12835,-3.03834 -0.19336,-6.88827 -0.19336,-11.55274 0,-4.57893 0.065,-8.38744 0.19336,-11.42578 0.12834,-3.03834 0.36271,-5.28526 0.70508,-6.74023 0.34237,-1.36941 0.81301,-2.69668 1.41211,-3.98047 0.59912,-1.3266 1.30606,-2.50422 2.11914,-3.53125 1.36937,-1.66897 3.18701,-3.14394 5.45508,-4.42774 2.26803,-1.28379 5.00727,-1.92578 8.21679,-1.92578 z m -251.74805,0.76953 c 1.54056,0 2.99583,0.19299 4.36524,0.57813 1.3694,0.34237 2.63169,0.81301 3.78711,1.41211 1.15541,0.55632 2.18139,1.21995 3.08008,1.99023 0.94142,0.77028 1.73306,1.56192 2.375,2.375 0.81304,1.02704 1.52001,2.2027 2.11914,3.5293 0.59895,1.28383 1.04795,2.6111 1.34765,3.98047 0.34251,1.41221 0.59852,3.63744 0.76954,6.67578 0.17132,2.99553 0.25781,6.82573 0.25781,11.49023 0,9.41458 -0.34264,15.4917 -1.02735,18.23047 -0.55632,2.73878 -1.73393,5.19837 -3.53125,7.38086 -1.3266,1.79731 -3.12256,3.33925 -5.39062,4.62305 -2.26806,1.24102 -4.98563,1.86133 -8.15235,1.86133 -3.20949,0 -5.94873,-0.62031 -8.21679,-1.86133 -2.26803,-1.2838 -4.08568,-2.82574 -5.45508,-4.62305 -0.77028,-0.98427 -1.47724,-2.11855 -2.11914,-3.40234 -0.59909,-1.3266 -1.06974,-2.65192 -1.41211,-3.97852 -0.3424,-1.45498 -0.57869,-3.68025 -0.70703,-6.67578 -0.12835,-3.03837 -0.19141,-6.89022 -0.19141,-11.55469 0,-4.57892 0.0631,-8.38744 0.19141,-11.42578 0.12838,-3.03834 0.36466,-5.28525 0.70703,-6.74023 0.34233,-1.36937 0.81298,-2.69664 1.41211,-3.98047 0.59909,-1.3266 1.30411,-2.50226 2.11719,-3.5293 1.3694,-1.66893 3.189,-3.14586 5.45703,-4.42969 2.26806,-1.28379 5.0073,-1.92578 8.21679,-1.92578 z m -79.0332,7.50977 c 0.17101,0.55618 0.29909,0.98545 0.38477,1.28515 0.12834,0.29964 0.23658,0.5773 0.32226,0.83399 0.0857,0.21402 0.14874,0.44839 0.19141,0.70508 0.0857,0.21395 0.19395,0.53494 0.32226,0.96289 0.25669,0.81308 0.49106,1.58503 0.70508,2.3125 0.25669,0.7275 0.49301,1.38919 0.70703,1.98828 0.42795,1.3266 0.83362,2.61054 1.21875,3.85156 0.42795,1.24103 0.83362,2.48362 1.21875,3.72461 0.21392,0.59913 0.42856,1.21943 0.64258,1.86133 0.21392,0.59909 0.42856,1.24108 0.64258,1.92578 0.25683,0.72751 0.51284,1.49747 0.76953,2.31055 0.29974,0.81304 0.59908,1.64802 0.89844,2.5039 0.47075,1.3266 1.00638,2.88824 1.60547,4.68555 0.59913,1.75454 1.26276,3.68047 1.99023,5.77734 0.0857,0.25676 0.19197,0.55607 0.32032,0.89844 0.17098,0.3422 0.29908,0.66319 0.38476,0.96289 h -24.64844 c 0.94146,-2.696 1.71146,-4.92127 2.31055,-6.67578 0.59913,-1.79735 1.17613,-3.46726 1.73242,-5.00781 0.55632,-1.54059 1.04862,-3.01751 1.47656,-4.42969 0.47072,-1.41217 0.92167,-2.75914 1.34961,-4.04297 0.21392,-0.59909 0.42661,-1.21943 0.64063,-1.86133 0.21392,-0.64189 0.42855,-1.30553 0.64258,-1.99023 0.21388,-0.6419 0.42858,-1.28388 0.64257,-1.92578 0.25673,-0.64193 0.49106,-1.32722 0.70508,-2.05469 0.0857,-0.21392 0.1507,-0.4266 0.19336,-0.64062 0.0427,-0.21403 0.10573,-0.45035 0.19141,-0.70704 0.34233,-1.02707 0.70666,-2.13967 1.0918,-3.33789 0.42794,-1.19818 0.8769,-2.5038 1.34765,-3.91601 z m 148.94531,142.80859 c -5.70993,0 -10.48472,1.37826 -14.32421,4.13477 -3.80657,2.72378 -6.56303,5.67813 -8.26954,8.86133 h 0.0449 c -0.6235,1.11571 -1.14944,2.24793 -1.57618,3.39648 -0.42557,1.14857 -0.75407,2.34678 -0.98437,3.59375 -0.19775,1.24714 -0.36142,3.23145 -0.49219,5.95508 -0.098,2.72373 -0.14648,6.23619 -0.14648,10.53515 h -0.002 c 0,4.29886 0.0504,7.8255 0.14844,10.58204 0.13148,2.72372 0.29515,4.71003 0.49219,5.95703 0.23012,1.24701 0.55764,2.44325 0.98437,3.59179 0.42671,1.11572 0.95276,2.23182 1.57618,3.34766 h -0.0449 c 1.70646,3.216 4.46287,6.17048 8.26954,8.86133 3.87225,2.72373 8.64699,4.08594 14.32421,4.08594 5.61144,0 10.35421,-1.36221 14.22657,-4.08594 3.87225,-2.75654 6.6767,-5.71102 8.41601,-8.86133 0.55766,-1.05013 1.03358,-2.1483 1.42774,-3.29688 0.42575,-1.14856 0.75432,-2.36275 0.98437,-3.64257 0.45929,-2.59248 0.68944,-8.10543 0.68946,-16.53907 0,-4.29896 -0.0665,-7.81142 -0.19727,-10.53515 -0.0985,-2.72363 -0.26214,-4.70794 -0.49219,-5.95508 -0.42651,-2.4284 -1.2467,-4.75883 -2.46094,-6.99023 -1.70653,-3.11754 -4.49501,-6.07189 -8.36718,-8.86133 -3.8395,-2.75651 -8.58212,-4.13477 -14.22657,-4.13477 z m -229.38281,0.002 c -5.70998,0 -10.48473,1.37828 -14.32422,4.13476 -3.80676,2.72375 -6.56312,5.67618 -8.26953,8.85938 -0.59059,1.11571 -1.09871,2.24793 -1.52539,3.39648 -0.42656,1.14855 -0.75603,2.34673 -0.98633,3.59375 -0.2305,1.24702 -0.39417,3.2333 -0.49218,5.95703 -0.0983,2.72368 -0.14844,6.23422 -0.14844,10.5332 0,8.5978 0.21391,14.11067 0.64062,16.53907 0.23015,1.24696 0.55962,2.4452 0.98633,3.59375 0.42633,1.11571 0.93442,2.23181 1.52539,3.34765 1.70648,3.2159 4.46287,6.16843 8.26953,8.85938 3.87235,2.72363 8.64709,4.08594 14.32422,4.08594 3.11748,0 6.02202,-0.44223 8.71289,-1.32813 2.69095,-0.88605 5.1853,-2.20024 7.48242,-3.93945 4.72557,-3.60968 7.77606,-8.76055 9.1543,-15.45508 0.0617,-0.1978 0.0273,-0.36337 -0.10351,-0.49414 -0.13148,-0.16428 -0.29515,-0.2461 -0.49219,-0.24609 l -11.27149,0.002 c -0.099,0 -0.19886,0.0502 -0.29687,0.14844 -0.0955,0.062 -0.17734,0.12652 -0.24609,0.19531 -2.95343,6.20218 -7.26814,9.30273 -12.94532,9.30273 -2.46123,0 -4.56157,-0.4759 -6.30078,-1.42773 -1.73921,-0.98452 -3.13344,-2.16475 -4.18359,-3.54297 -0.59028,-0.7548 -1.1324,-1.62491 -1.625,-2.60938 -0.45932,-1.01732 -0.81963,-2.0335 -1.08203,-3.05078 -0.26286,-1.11569 -0.4447,-2.82202 -0.54297,-5.11914 -0.098,-2.33 -0.14649,-5.28438 -0.14649,-8.86133 0,-3.51128 0.0485,-6.43176 0.14649,-8.76171 0.0987,-2.33001 0.28057,-4.05226 0.54297,-5.16797 0.26242,-1.05011 0.62274,-2.06825 1.08203,-3.05274 0.45946,-1.0173 1.00158,-1.91945 1.625,-2.70703 1.05015,-1.27985 2.44438,-2.41199 4.18359,-3.39648 1.73921,-0.98442 3.83955,-1.47657 6.30078,-1.47657 3.31442,0 6.05483,0.96815 8.22071,2.9043 1.14854,0.98447 2.11664,2.05065 2.90429,3.19922 0.78738,1.11572 1.39358,2.32992 1.82032,3.64258 0.066,0.2624 0.24783,0.39258 0.54296,0.39258 h 11.27149 c 0.19774,0 0.36141,-0.0645 0.49219,-0.19532 0.13807,-0.13147 0.17255,-0.29514 0.10351,-0.49218 -1.08301,-5.80851 -3.88746,-10.82928 -8.41601,-15.0625 -4.463,-4.20042 -10.10792,-6.30078 -16.9336,-6.30078 z m -201.57422,0.49609 c -0.2595,0 -0.4231,0.13216 -0.4922,0.39453 l -25.793,70.58594 c -0.069,0.19638 -0.053,0.37673 0.045,0.54101 0.099,0.16429 0.2621,0.24805 0.4922,0.24805 l 11.2773,0.006 c 0.099,0 0.1969,-0.0347 0.2949,-0.10352 0.1348,-0.0988 0.2166,-0.1986 0.2461,-0.29687 0.9189,-2.62531 1.8212,-5.1997 2.707,-7.72656 0.9195,-2.55955 1.8395,-5.17001 2.7579,-7.82813 h 25.9902 l 5.3164,15.55469 c 0.066,0.2624 0.2298,0.39453 0.4922,0.39453 h 11.2773 c 0.1971,0 0.3454,-0.0818 0.4434,-0.24609 0.099,-0.16409 0.112,-0.34593 0.043,-0.54297 l -25.7442,-70.58594 c -0.034,-0.0955 -0.1153,-0.17731 -0.2461,-0.24609 -0.099,-0.098 -0.1966,-0.14844 -0.2949,-0.14844 z m 44.4941,0.0918 c -0.3941,0 -0.5918,0.19764 -0.5918,0.59179 v 70.53906 c 0,0.39416 0.1977,0.58985 0.5918,0.58985 h 10.6817 c 0.3941,0 0.5918,-0.19572 0.5918,-0.58985 v -29.53515 h 28.7461 c 0.3941,0 0.5918,-0.19665 0.5918,-0.58985 v -9.5 c 0,-0.39412 -0.1977,-0.59179 -0.5918,-0.59179 h -28.7461 v -19.58985 h 33.8164 c 0.3932,0 0.5898,-0.19764 0.5898,-0.59179 V 298.4141 c 0,-0.39415 -0.1966,-0.59179 -0.5898,-0.59179 z m 54.1465,0 c -0.3941,0 -0.5918,0.19764 -0.5918,0.59179 v 70.53906 c 0,0.39416 0.1977,0.58985 0.5918,0.58985 h 10.6836 c 0.3933,0 0.5899,-0.19572 0.5899,-0.58985 v -29.53515 h 28.7461 c 0.3941,0 0.5918,-0.19665 0.5918,-0.58985 v -9.5 c 0,-0.39412 -0.1977,-0.59179 -0.5918,-0.59179 h -28.7461 v -19.58985 h 33.81637 c 0.39416,0 0.5918,-0.19764 0.5918,-0.59179 V 298.4141 c 0,-0.39415 -0.19764,-0.59179 -0.5918,-0.59179 z m 54.00003,0 c -0.39416,0 -0.5918,0.19764 -0.5918,0.59179 v 70.53906 c 0,0.39416 0.19764,0.58985 0.5918,0.58985 h 10.67969 c 0.39412,0 0.59179,-0.19569 0.59179,-0.58985 V 298.4141 c 0,-0.39415 -0.19767,-0.59179 -0.59179,-0.59179 z m 106.32226,0 c -0.39413,0 -0.58984,0.19764 -0.58984,0.59179 v 70.53906 c 0,0.39416 0.19571,0.58985 0.58984,0.58985 h 10.68164 c 0.3932,0 0.58985,-0.19569 0.58985,-0.58985 V 298.4141 c 0,-0.39415 -0.19665,-0.59179 -0.58985,-0.59179 z m 26.13868,0 c -0.39323,0 -0.58985,0.19764 -0.58985,0.59179 v 70.53906 c 0,0.39416 0.19662,0.58985 0.58985,0.58985 h 10.73242 c 0.36061,0 0.54101,-0.19764 0.54101,-0.5918 v -48.5332 l 31.10938,48.83008 c 0.13148,0.19704 0.29515,0.29492 0.49219,0.29492 h 10.09179 c 0.39416,0 0.58985,-0.19764 0.58985,-0.5918 V 298.4141 c 0,-0.39415 -0.19569,-0.59179 -0.58985,-0.59179 h -10.73242 c -0.39415,0 -0.58984,0.19764 -0.58984,0.59179 v 48.53516 l -31.01172,-48.83008 c -0.13153,-0.19704 -0.29515,-0.29687 -0.49219,-0.29687 z m 68.91406,0 c -0.39325,0 -0.58985,0.19764 -0.58985,0.59179 v 70.53906 c 0,0.39416 0.1966,0.58985 0.58985,0.58985 h 10.68164 c 0.3932,0 0.58984,-0.19572 0.58984,-0.58985 v -29.53515 h 28.74805 c 0.39325,0 0.58984,-0.19665 0.58984,-0.58985 v -9.5 c 0,-0.39412 -0.19659,-0.59179 -0.58984,-0.59179 h -28.74805 v -19.58985 h 33.81836 c 0.39413,0 0.58985,-0.19764 0.58985,-0.59179 V 298.4141 c 0,-0.39415 -0.19572,-0.59179 -0.58985,-0.59179 z m -491.55273,0.002 c -0.3942,0 -0.5898,0.19767 -0.5899,0.5918 v 9.5 c 1e-4,0.39415 0.1957,0.59179 0.5899,0.59179 h 18.7539 v 60.44922 c 0,0.39413 0.1977,0.5918 0.5918,0.5918 l 10.6816,-0.002 c 0.3942,-10e-6 0.5899,-0.19765 0.5899,-0.5918 v -60.44727 h 18.7051 c 0.3941,0 0.5918,-0.19764 0.5918,-0.59179 v -9.5 c 0,-0.39413 -0.1977,-0.5918 -0.5918,-0.5918 z m 57.791,0.002 c -0.3941,0 -0.5918,0.19569 -0.5918,0.58985 v 70.54101 c 0,0.39413 0.1977,0.5918 0.5918,0.5918 l 10.6797,-0.008 c 0.3942,0 0.5918,-0.19765 0.5918,-0.5918 v -29.53516 h 12.748 l 14.4239,29.78125 c 0.066,0.0663 0.1478,0.14808 0.2461,0.2461 0.099,0.069 0.1966,0.10351 0.2949,0.10351 h 12.7012 c 0.2302,0 0.3939,-0.0818 0.4921,-0.24609 0.098,-0.19772 0.098,-0.41159 0,-0.64063 -2.658,-5.08649 -5.3324,-10.1893 -8.0234,-15.30859 -2.6909,-5.15218 -5.3653,-10.27104 -8.0234,-15.35742 2.0346,-0.7549 3.8549,-1.75499 5.4629,-3.00196 1.608,-1.27982 3.0202,-2.75616 4.2343,-4.42968 1.181,-1.80495 2.0991,-3.7412 2.7559,-5.8086 0.6558,-2.10018 0.9844,-4.3165 0.9844,-6.64648 0,-1.57521 -0.1977,-3.10149 -0.5918,-4.57813 -0.3937,-1.47673 -0.9357,-2.87096 -1.625,-4.18359 -0.6565,-1.31271 -1.4266,-2.52686 -2.3125,-3.64258 -0.853,-1.14867 -1.7552,-2.16483 -2.7071,-3.05078 -1.8377,-1.54265 -3.9879,-2.72486 -6.4492,-3.54492 -2.4611,-0.85344 -5.2176,-1.2793 -8.2695,-1.2793 z m 11.2715,10.6836 16.2441,0.002 c 1.4768,0 2.8371,0.18037 4.084,0.54101 1.2797,0.36047 2.3959,0.86859 3.3477,1.52539 1.0833,0.82044 1.9034,1.87055 2.4609,3.1504 0.591,1.27982 0.8867,2.74006 0.8867,4.38086 0,2.88775 -0.9521,5.38213 -2.8554,7.48242 -1.9034,2.10018 -4.7578,3.15039 -8.5645,3.15039 h -15.6035 z m 499.42773,0.63671 c 1.18128,0 2.2975,0.14631 3.34765,0.44141 1.05023,0.26243 2.01833,0.6247 2.9043,1.08399 0.8859,0.42632 1.674,0.93444 2.36328,1.52539 0.72151,0.59076 1.32767,1.19884 1.82032,1.82226 0.62356,0.7876 1.16571,1.68973 1.625,2.70703 0.45918,0.98447 0.80315,2.00063 1.0332,3.05078 0.26242,1.08284 0.45907,2.78919 0.58984,5.11914 0.13077,2.29713 0.19531,5.23548 0.19531,8.8125 0,7.21948 -0.26203,11.87824 -0.78711,13.97852 -0.4266,2.10016 -1.32873,3.98843 -2.70703,5.66211 -1.01732,1.37824 -2.39562,2.55853 -4.13476,3.54297 -1.73939,0.95181 -3.82361,1.42773 -6.25195,1.42773 -2.46111,0 -4.56147,-0.47592 -6.30079,-1.42773 -1.73923,-0.98444 -3.13346,-2.16473 -4.18359,-3.54297 -0.59029,-0.7548 -1.13238,-1.62493 -1.625,-2.60938 -0.45931,-1.01742 -0.81963,-2.03556 -1.08203,-3.05273 -0.26283,-1.11582 -0.44275,-2.82202 -0.54102,-5.11914 -0.098,-2.32985 -0.14648,-5.28241 -0.14648,-8.85938 h 0.002 c 0,-3.51125 0.0482,-6.43176 0.14649,-8.76171 0.0982,-2.32991 0.27861,-4.05213 0.54101,-5.16797 0.26243,-1.05006 0.62274,-2.06822 1.08203,-3.05274 0.45947,-1.01719 1.00156,-1.91938 1.625,-2.70703 1.05013,-1.27977 2.44428,-2.41189 4.1836,-3.39648 1.73921,-0.98447 3.83955,-1.47657 6.30078,-1.47657 z m -426.42973,5.76368 c 0.128,0.42776 0.2259,0.75533 0.295,0.98437 0.095,0.22972 0.177,0.44359 0.2461,0.64063 0.069,0.1636 0.1189,0.34397 0.1484,0.54101 0.066,0.16411 0.1481,0.40977 0.2461,0.73828 0.1968,0.62378 0.3767,1.21398 0.541,1.77149 0.1963,0.55803 0.3767,1.06805 0.541,1.52734 0.3283,1.0172 0.6405,2.00129 0.9356,2.95313 0.3282,0.95145 0.6404,1.90363 0.9355,2.85547 0.1642,0.45915 0.3279,0.93508 0.4922,1.42773 0.1643,0.45944 0.3279,0.95146 0.4922,1.47656 0.1971,0.55791 0.3947,1.14812 0.5918,1.77149 0.2293,0.62402 0.4594,1.26409 0.6894,1.91992 0.3608,1.01732 0.7712,2.21551 1.2305,3.59375 0.4597,1.34548 0.9679,2.82172 1.5254,4.42969 0.066,0.19688 0.1478,0.42705 0.2461,0.68945 0.128,0.2626 0.2259,0.50729 0.2949,0.73633 h -18.9023 c 0.7221,-2.06733 1.3122,-3.77366 1.7715,-5.11914 0.4592,-1.37827 0.9013,-2.65649 1.3281,-3.83789 0.4266,-1.18131 0.8042,-2.3135 1.1328,-3.39649 0.3607,-1.08288 0.7066,-2.11699 1.0351,-3.10156 0.1643,-0.45919 0.328,-0.93509 0.4922,-1.42774 0.1643,-0.49217 0.3279,-1.00031 0.4922,-1.52539 0.1643,-0.49191 0.3299,-0.98584 0.4942,-1.47851 0.1963,-0.49252 0.3767,-1.01674 0.541,-1.57422 0.069,-0.16423 0.117,-0.3279 0.1465,-0.49219 0.029,-0.1636 0.077,-0.34397 0.1464,-0.54101 0.2625,-0.78708 0.5409,-1.64114 0.836,-2.56055 0.3286,-0.91883 0.6745,-1.91894 1.0351,-3.00195 z m -28.5625,164.20312 v 0.004 c -4.1906,0 -8.1973,0.78154 -12.0117,2.33984 -3.8146,1.50422 -7.2501,3.65562 -10.3125,6.44922 -3.2234,3.00873 -5.7193,6.63078 -7.4922,10.875 -1.7729,4.19066 -2.6886,8.95064 -2.7422,14.26953 v 10.63086 c -0.1036,11.28234 2.4995,19.58173 7.8184,24.90039 h -0.088 c 5.4262,5.53387 11.8459,8.2258 19.2598,8.06445 3.0624,0.10319 6.3398,-0.13306 9.832,-0.7246 3.4921,-0.59124 7.0109,-1.42635 10.5567,-2.5 V 563.01 c -0.3764,11.06736 -5.3149,16.63187 -14.8243,16.68554 -6.7156,0 -11.2873,-3.01608 -13.705,-9.0332 -0.2154,-0.42943 -0.5069,-0.63867 -0.8829,-0.63867 h -16.4394 c -0.3235,0 -0.593,0.10299 -0.8086,0.32031 -0.1605,0.21506 -0.1847,0.4563 -0.074,0.72461 0.8599,4.29785 2.2269,8.11636 4.1074,11.44726 1.9341,3.27723 4.43,6.09689 7.4922,8.46094 v -0.0898 c 5.8562,4.51309 12.6299,6.88102 20.3125,7.0957 4.4593,-0.10356 8.5938,-0.94257 12.4082,-2.5 3.8683,-1.55815 7.3342,-3.7073 10.3965,-6.44726 3.0085,-2.95495 5.3688,-6.57888 7.0879,-10.87696 1.7193,-4.29789 2.6365,-9.05621 2.7441,-14.26758 v -50.76953 c -0.1607,-10.90628 -3.4386,-19.31088 -9.832,-25.2207 -6.3392,-5.85557 -13.9389,-8.78667 -22.8028,-8.78711 z m 68.584,0.9707 -16.6074,12.01368 c -0.1036,0.10356 -0.2118,0.23464 -0.3203,0.39648 -0.056,0.16063 -0.074,0.2962 -0.074,0.4043 v 17.49218 c 0,0.4294 0.1575,0.75144 0.4804,0.9668 0.3228,0.16063 0.6749,0.10378 1.0508,-0.16797 2.4714,-1.77278 4.9387,-3.56976 7.4102,-5.39648 2.4713,-1.88028 4.9426,-3.73777 7.414,-5.56445 v 95.73828 c 0,0.64429 0.3248,0.96679 0.9688,0.96679 h 16.5156 c 0.6443,0 0.9688,-0.31438 0.9688,-0.95898 V 481.05273 c 0,-0.64425 -0.3248,-0.96875 -0.9688,-0.96875 z m -68.582,17.32618 c 9.4556,0.21505 14.3964,5.77754 14.8262,16.68359 v 9.42773 c -0.3228,10.95973 -5.263,16.52221 -14.8262,16.6836 -9.778,-0.16063 -14.6719,-5.72365 -14.6719,-16.6836 v -9.42773 c 0.056,-10.85254 4.9478,-16.41521 14.6719,-16.68359 z m 179.9746,5.45703 c -0.51934,0 -0.77734,0.25815 -0.77734,0.77734 v 92.95508 c 0,0.51931 0.25815,0.78516 0.77734,0.78516 h 14.07813 c 0.51931,0 0.77734,-0.26578 0.77734,-0.78516 v -55.00586 l 18.29297,42.10156 c 0.17235,0.25966 0.41323,0.39063 0.7168,0.39063 h 11.73633 c 0.30236,0 0.54305,-0.13362 0.71679,-0.39063 2.98402,-7.00584 6.00756,-13.98856 9.07813,-20.95117 3.07049,-6.96276 6.11923,-13.97229 9.14648,-21.02148 v 54.87695 c 0,0.51931 0.25823,0.78516 0.77735,0.78516 h 14.07812 c 0.51927,0 0.7832,-0.26578 0.7832,-0.78516 v -92.95508 c 0,-0.51934 -0.26351,-0.77734 -0.7832,-0.77734 h -13.29297 c -0.34696,0 -0.58696,0.14708 -0.71679,0.44922 -4.2381,9.90345 -8.47476,19.74571 -12.7129,29.51953 -4.23813,9.73047 -8.45737,19.54764 -12.65234,29.45117 l -26.01367,-58.9707 c -0.17235,-0.30237 -0.40643,-0.44922 -0.70899,-0.44922 z m 100.61719,0 c -0.51931,0 -0.78516,0.25815 -0.78516,0.77734 v 92.95508 c 0,0.51931 0.26548,0.78516 0.78516,0.78516 h 14.06836 c 0.51931,0 0.78516,-0.26578 0.78516,-0.78516 v -39.82422 h 35.34961 v 39.82422 c 0,0.51931 0.25815,0.78516 0.77734,0.78516 h 14.07812 c 0.51931,0 0.77735,-0.26578 0.77735,-0.78516 v -92.95508 c 0,-0.51934 -0.25823,-0.77734 -0.77735,-0.77734 h -14.07812 c -0.51935,0 -0.77734,0.25815 -0.77734,0.77734 v 39.05274 h -35.34961 v -39.05274 c 0,-0.51934 -0.26582,-0.77734 -0.78516,-0.77734 z m 82.44531,27.17969 c -0.51934,0 -0.77734,0.25631 -0.77734,0.77539 v 11.74609 c 0,0.51931 0.25819,0.77734 0.77734,0.77734 h 29.58008 l -32.17187,42.55274 v 10.70117 c 0,0.51934 0.25826,0.78516 0.77734,0.78516 h 49.03906 c 0.51935,0 0.77735,-0.26582 0.77735,-0.78516 v -12.38477 c 0,-0.51934 -0.25815,-0.77734 -0.77735,-0.77734 h -31.39453 l 32.17188,-41.84375 v -10.77148 c 0,-0.51927 -0.25823,-0.77539 -0.77735,-0.77539 z"
       style="color:#000000;font-style:normal;font-variant:normal;font-weight:normal;font-stretch:normal;font-size:medium;line-height:normal;font-family:sans-serif;font-variant-ligatures:normal;font-variant-position:normal;font-variant-caps:normal;font-variant-numeric:normal;font-variant-alternates:normal;font-variant-east-asian:normal;font-feature-settings:normal;font-variation-settings:normal;text-indent:0;text-align:start;text-decoration:none;text-decoration-line:none;text-decoration-style:solid;text-decoration-color:#000000;letter-spacing:normal;word-spacing:normal;text-transform:none;writing-mode:lr-tb;direction:ltr;text-orientation:mixed;dominant-baseline:auto;baseline-shift:baseline;text-anchor:start;white-space:normal;shape-padding:0;shape-margin:0;inline-size:0;clip-rule:nonzero;display:inline;overflow:visible;visibility:visible;opacity:1;isolation:auto;mix-blend-mode:normal;color-interpolation:sRGB;color-interpolation-filters:linearRGB;solid-color:#000000;solid-opacity:1;vector-effect:none;fill:#ffffff;fill-opacity:1;fill-rule:evenodd;stroke:none;stroke-width:3.8778;stroke-linecap:square;stroke-linejoin:miter;stroke-miterlimit:4;stroke-dasharray:none;stroke-dashoffset:0;stroke-opacity:1;paint-order:stroke fill markers;color-rendering:auto;image-rendering:auto;shape-rendering:auto;text-rendering:auto;enable-background:accumulate;stop-color:#000000;stop-opacity:1"
       id="path5157" />
  </g>
</svg>
