<?xml version="1.0" encoding="UTF-8" standalone="no"?>
<!-- Created with Inkscape (http://www.inkscape.org/) -->

<svg
   width="1601.7614mm"
   height="1000mm"
   viewBox="0 0 1601.7614 1000"
   version="1.1"
   id="svg848"
   inkscape:version="1.2.2 (732a01da63, 2022-12-09)"
   sodipodi:docname="Vietnam_road_sign_I44a.svg"
   xmlns:inkscape="http://www.inkscape.org/namespaces/inkscape"
   xmlns:sodipodi="http://sodipodi.sourceforge.net/DTD/sodipodi-0.dtd"
   xmlns="http://www.w3.org/2000/svg"
   xmlns:svg="http://www.w3.org/2000/svg"
   xmlns:rdf="http://www.w3.org/1999/02/22-rdf-syntax-ns#"
   xmlns:cc="http://creativecommons.org/ns#"
   xmlns:dc="http://purl.org/dc/elements/1.1/">
  <defs
     id="defs842">
    <clipPath
       id="clip-44-2">
      <path
         clip-rule="nonzero"
         d="M 1.5,1.980469 H 506 V 443 H 1.5 Z m 0,0"
         id="path138172" />
    </clipPath>
    <clipPath
       id="clip-45-2">
      <path
         clip-rule="nonzero"
         d="M 1.5,1.980469 H 522 V 443 H 1.5 Z m 0,0"
         id="path138175" />
    </clipPath>
    <clipPath
       id="clip-46-8">
      <path
         clip-rule="nonzero"
         d="M 7,1.980469 H 539 V 443 H 7 Z m 0,0"
         id="path138178" />
    </clipPath>
    <clipPath
       id="clip-47-8">
      <path
         clip-rule="nonzero"
         d="M 24,1.980469 H 555 V 443 H 24 Z m 0,0"
         id="path138181" />
    </clipPath>
    <clipPath
       id="clip-49-4">
      <path
         clip-rule="nonzero"
         d="M 45,1.980469 H 576 V 443 H 45 Z m 0,0"
         id="path138187" />
    </clipPath>
    <clipPath
       id="clip-50-6">
      <path
         clip-rule="nonzero"
         d="M 59,1.980469 H 591 V 443 H 59 Z m 0,0"
         id="path138190" />
    </clipPath>
    <clipPath
       id="clip-52-8">
      <path
         clip-rule="nonzero"
         d="M 82,1.980469 H 610.73828 V 443 H 82 Z m 0,0"
         id="path138196" />
    </clipPath>
    <clipPath
       clipPathUnits="userSpaceOnUse"
       id="clipPath35327">
      <g
         id="g35331"
         transform="translate(104.41316,283.31351)">
        <path
           clip-rule="nonzero"
           d="m -102.91316,-185.31351 h 494.5 v 532 h -494.5 z m 0,0"
           id="path35329" />
      </g>
    </clipPath>
    <clipPath
       clipPathUnits="userSpaceOnUse"
       id="clipPath35299">
      <g
         id="g35303"
         transform="translate(104.41316,283.31351)">
        <path
           clip-rule="nonzero"
           d="m -102.91316,-185.31351 h 510.5 v 532 h -510.5 z m 0,0"
           id="path35301" />
      </g>
    </clipPath>
    <clipPath
       clipPathUnits="userSpaceOnUse"
       id="clipPath35314">
      <g
         id="g35318"
         transform="translate(104.41316,283.31351)">
        <path
           clip-rule="nonzero"
           d="m -102.91316,-185.31351 h 527.5 v 532 h -527.5 z m 0,0"
           id="path35316" />
      </g>
    </clipPath>
  </defs>
  <sodipodi:namedview
     id="base"
     pagecolor="#ffffff"
     bordercolor="#666666"
     borderopacity="1.0"
     inkscape:pageopacity="0.0"
     inkscape:pageshadow="2"
     inkscape:zoom="0.072496858"
     inkscape:cx="3220.8292"
     inkscape:cy="10338.379"
     inkscape:document-units="mm"
     inkscape:current-layer="layer1"
     showgrid="false"
     inkscape:snap-global="false"
     inkscape:window-width="1920"
     inkscape:window-height="991"
     inkscape:window-x="-9"
     inkscape:window-y="-9"
     inkscape:window-maximized="1"
     fit-margin-top="0"
     fit-margin-left="0"
     fit-margin-right="0"
     fit-margin-bottom="0"
     showguides="false"
     inkscape:measure-start="0,0"
     inkscape:measure-end="0,0"
     inkscape:showpageshadow="2"
     inkscape:pagecheckerboard="0"
     inkscape:deskcolor="#d1d1d1" />
  <metadata
     id="metadata845">
    <rdf:RDF>
      <cc:Work
         rdf:about="">
        <dc:format>image/svg+xml</dc:format>
        <dc:type
           rdf:resource="http://purl.org/dc/dcmitype/StillImage" />
      </cc:Work>
    </rdf:RDF>
  </metadata>
  <g
     inkscape:label="Layer 1"
     inkscape:groupmode="layer"
     id="layer1"
     transform="translate(-1524.939,691.93915)">
    <path
       cx="150"
       cy="147"
       r="150"
       id="path8376"
       style="opacity:1;fill:#d35f5f;fill-opacity:1;fill-rule:nonzero;stroke:none;stroke-width:3.92256;stroke-linecap:butt;stroke-linejoin:miter;stroke-miterlimit:4;stroke-dasharray:none;stroke-opacity:1;paint-order:stroke fill markers"
       d=""
       inkscape:connector-curvature="0" />
    <path
       id="rect1393-4"
       style="opacity:1;fill:#0046aa;stroke-width:5.0751;stroke-miterlimit:10;paint-order:stroke fill markers"
       d="m 1524.939,-691.93915 h 1601.7613 v 1000 H 1524.939 Z"
       sodipodi:nodetypes="ccccc" />
    <path
       id="rect1395-2"
       style="opacity:1;fill:#ffffff;fill-opacity:1;fill-rule:nonzero;stroke:none;stroke-width:5.03159;stroke-linecap:butt;stroke-linejoin:miter;stroke-miterlimit:10;stroke-dasharray:none;stroke-opacity:1;paint-order:stroke fill markers"
       d="m 1529.9984,-686.87944 v 989.88102 h 1591.6423 v -989.88102 z m 10.1191,10.11922 H 3111.5218 V 292.88169 H 1540.1175 Z"
       sodipodi:nodetypes="cccccccccc" />
    <path
       fill-rule="evenodd"
       fill="#ffffff"
       fill-opacity="1"
       d="m 2617.3905,-336.00623 -1.9209,0.92893 h 0.9605 l 0.9604,-0.92893"
       id="path2849"
       style="stroke-width:7.93485;opacity:1;fill:#ffffff" />
    <path
       d="m 2390.2732,-518.89047 c -0.5269,0 -0.8059,-0.27896 -0.8059,-0.83688 l -0.1859,-98.16272 c 0,-0.52695 0.2789,-0.80589 0.8368,-0.80589 l 14.103,-0.0309 c 0.279,0 0.4649,0.12402 0.6819,0.40293 l 43.2697,67.88013 -0.124,-67.53918 c 0,-0.5579 0.279,-0.83688 0.8369,-0.83688 h 14.9398 c 0.527,0 0.8059,0.24797 0.8059,0.80589 l 0.186,98.16272 c 0,0.55792 -0.279,0.80588 -0.8369,0.80588 l -14.0409,0.031 c -0.279,0 -0.465,-0.12398 -0.6819,-0.40294 l -43.4247,-67.88017 0.1239,67.53917 c 0,0.55793 -0.2169,0.83689 -0.7438,0.83689 l -14.9399,0.031"
       id="path6280"
       style="fill:#ffffff;fill-opacity:1;stroke-width:7.93485;opacity:1" />
    <path
       d="m 2486.7733,-519.05948 c -0.558,0 -0.8369,-0.27896 -0.8369,-0.83688 l -0.186,-98.16272 c 0,-0.52695 0.279,-0.80589 0.8369,-0.80589 l 14.8778,-0.0309 c 0.5269,0 0.8059,0.27899 0.8059,0.80588 l 0.186,98.16272 c 0,0.55792 -0.279,0.83688 -0.8369,0.83688 l -14.8468,0.0309"
       id="path6284"
       style="fill:#ffffff;fill-opacity:1;stroke-width:7.93485;opacity:1" />
    <path
       d="m 2522.9709,-519.12241 c -0.5269,0 -0.8059,-0.27896 -0.8059,-0.83688 l -0.1859,-98.16272 c 0,-0.52695 0.2789,-0.80589 0.8368,-0.80589 l 14.103,-0.0309 c 0.279,0 0.4649,0.12402 0.6819,0.40293 l 43.2697,67.88013 -0.124,-67.53918 c 0,-0.5579 0.279,-0.83688 0.8369,-0.83688 h 14.9398 c 0.527,0 0.8059,0.24797 0.8059,0.80589 l 0.186,98.16272 c 0,0.55792 -0.279,0.80588 -0.8369,0.80588 l -14.0409,0.031 c -0.279,0 -0.465,-0.12398 -0.6819,-0.40294 l -43.4247,-67.88017 0.1239,67.53917 c 0,0.55793 -0.2169,0.83689 -0.7438,0.83689 l -14.9399,0.031"
       id="path6288"
       style="fill:#ffffff;fill-opacity:1;stroke-width:7.93485;opacity:1" />
    <path
       d="m 2673.4961,-519.38449 c -0.5269,0 -0.8059,-0.27895 -0.8059,-0.83687 l -0.093,-42.06088 -37.3185,0.062 0.062,42.06088 c 0,0.55792 -0.2789,0.83688 -0.8059,0.83688 l -14.8778,0.031 c -0.5579,0 -0.8059,-0.27896 -0.8059,-0.83688 l -0.1859,-98.16271 c 0,-0.52695 0.2789,-0.80589 0.8368,-0.80589 l 14.8469,-0.0309 c 0.5579,0 0.8369,0.27899 0.8369,0.80588 l 0.062,41.255 37.3186,-0.062 -0.062,-41.255 c 0,-0.52696 0.279,-0.80588 0.8369,-0.80588 l 14.8469,-0.0311 c 0.5579,0 0.8368,0.27899 0.8368,0.80589 l 0.155,98.16272 c 0,0.55792 -0.279,0.83688 -0.8059,0.83688 l -14.8778,0.031"
       id="path6292"
       style="fill:#ffffff;fill-opacity:1;stroke-width:7.93485;opacity:1" />
    <path
       d="m 2743.8375,-520.46229 c -0.5269,0 -0.8059,-0.27896 -0.8059,-0.83688 l -0.1859,-98.16272 c 0,-0.52695 0.2789,-0.80589 0.8368,-0.80589 l 38.0625,-0.0619 c 9.6396,-0.0309 17.0475,2.54163 22.2238,7.68688 5.1142,5.05227 7.6869,11.53033 7.6869,19.43418 0.031,4.30837 -0.9609,8.36878 -2.9756,12.05724 -1.8287,3.4715 -5.2072,6.47806 -10.1975,9.08168 4.5873,1.4258 8.1518,4.21539 10.6934,8.39978 1.3018,2.26267 2.3557,4.61833 3.0686,7.00498 0.6819,2.41765 1.0848,4.8663 1.0848,7.43892 0,8.70973 -2.7896,15.68372 -8.3998,20.89096 -5.5482,5.14525 -12.1192,7.77987 -19.6511,7.77987 l -41.441,0.0929 m 15.6218,-43.61065 0.031,27.95793 22.1307,-0.031 c 5.1453,-0.031 8.9887,-1.39479 11.4994,-4.21538 2.4796,-2.7586 3.6884,-6.04413 3.6884,-9.79458 0,-3.62647 -1.2398,-6.881 -3.7194,-9.73259 -2.3557,-2.78959 -6.1991,-4.21539 -11.4994,-4.21539 l -22.1307,0.031 m -0.093,-41.37898 0.062,26.53214 20.767,-0.031 c 5.1143,-0.031 8.8957,-1.30181 11.2824,-3.87444 2.4486,-2.51063 3.6884,-5.61018 3.6884,-9.39163 0,-3.68846 -1.2398,-6.78801 -3.7194,-9.29865 -2.4797,-2.63462 -6.2301,-3.96742 -11.3134,-3.96742 l -20.7669,0.0309"
       id="path6296"
       style="fill:#ffffff;fill-opacity:1;stroke-width:7.93485;opacity:1" />
    <path
       d="m 2828.9604,-520.61146 c -0.558,0 -0.8369,-0.27896 -0.8369,-0.83688 l -0.186,-98.16272 c 0,-0.52695 0.279,-0.80589 0.8369,-0.80589 l 14.8778,-0.0309 c 0.5269,0 0.8059,0.27899 0.8059,0.80588 l 0.186,98.16272 c 0,0.55792 -0.279,0.83688 -0.8369,0.83688 l -14.8468,0.031 m 10.2905,-108.67019 c -0.093,0 -0.217,-0.0309 -0.372,-0.093 -0.124,-0.0619 -0.186,-0.12402 -0.248,-0.18599 l -18.9382,-19.9611 c -0.279,-0.27899 -0.3719,-0.5579 -0.186,-0.89887 0.124,-0.30994 0.403,-0.46491 0.7749,-0.46491 l 15.0948,-0.0309 c 0.248,0 0.465,0.12402 0.6819,0.40293 l 14.3509,19.99209 c 0.124,0.30993 0.155,0.5579 0.031,0.83688 -0.093,0.24796 -0.341,0.40293 -0.7129,0.37191 l -10.4765,0.0309"
       id="path6300"
       style="fill:#ffffff;fill-opacity:1;stroke-width:7.93485;opacity:1" />
    <path
       d="m 2865.0737,-520.67415 c -0.5269,0 -0.8059,-0.27896 -0.8059,-0.83688 l -0.1859,-98.16272 c 0,-0.52695 0.2789,-0.80589 0.8368,-0.80589 l 14.103,-0.0309 c 0.279,0 0.4649,0.12402 0.6819,0.40293 l 43.2697,67.88013 -0.124,-67.53918 c 0,-0.5579 0.279,-0.83688 0.8369,-0.83688 h 14.9398 c 0.527,0 0.8059,0.24797 0.8059,0.80589 l 0.186,98.16272 c 0,0.55792 -0.279,0.80588 -0.8369,0.80588 l -14.0409,0.031 c -0.279,0 -0.465,-0.12398 -0.6819,-0.40294 l -43.4247,-67.88017 0.1239,67.53917 c 0,0.55793 -0.2169,0.83689 -0.7438,0.83689 l -14.9399,0.031"
       id="path6304"
       style="fill:#ffffff;fill-opacity:1;stroke-width:7.93485;opacity:1" />
    <path
       d="m 3014.603,-520.93448 c -0.5269,0 -0.8059,-0.27895 -0.8059,-0.83687 l -0.093,-42.06088 -37.3185,0.062 0.062,42.06088 c 0,0.55792 -0.2789,0.83688 -0.8059,0.83688 l -14.8778,0.031 c -0.5579,0 -0.8059,-0.27896 -0.8059,-0.83688 l -0.1859,-98.16271 c 0,-0.52695 0.2789,-0.80589 0.8368,-0.80589 l 14.8469,-0.0309 c 0.5579,0 0.8369,0.27899 0.8369,0.80588 l 0.062,41.255 37.3186,-0.062 -0.062,-41.255 c 0,-0.52696 0.279,-0.80588 0.8369,-0.80588 l 14.8469,-0.0311 c 0.5579,0 0.8368,0.27899 0.8368,0.80589 l 0.155,98.16272 c 0,0.55792 -0.279,0.83688 -0.8059,0.83688 l -14.8778,0.031"
       id="path6308"
       style="fill:#ffffff;fill-opacity:1;stroke-width:7.93485;opacity:1" />
    <path
       d="m 1625.3312,-516.05242 c -0.5269,0 -0.8059,-0.27896 -0.8059,-0.83688 l -0.1859,-98.16272 c 0,-0.52695 0.2789,-0.80589 0.8368,-0.80589 l 14.103,-0.0309 c 0.279,0 0.4649,0.12402 0.6819,0.40293 l 43.2697,67.88013 -0.124,-67.53918 c 0,-0.5579 0.279,-0.83688 0.8369,-0.83688 h 14.9398 c 0.527,0 0.8059,0.24797 0.8059,0.80589 l 0.186,98.16272 c 0,0.55792 -0.279,0.80588 -0.8369,0.80588 l -14.0409,0.031 c -0.279,0 -0.465,-0.12398 -0.6819,-0.40294 l -43.4247,-67.88017 0.1239,67.53917 c 0,0.55793 -0.2169,0.83689 -0.7438,0.83689 l -14.9399,0.031"
       id="path6312"
       style="fill:#ffffff;fill-opacity:1;stroke-width:7.93485;opacity:1" />
    <path
       d="m 1712.3777,-516.28342 c -0.3099,0 -0.5579,-0.093 -0.7129,-0.34095 -0.1239,-0.21697 -0.1549,-0.49593 -0.062,-0.74389 l 35.7378,-98.28671 c 0.062,-0.34096 0.31,-0.5579 0.6819,-0.5579 l 12.2433,-0.031 c 0.1549,0 0.2789,0.031 0.4649,0.186 0.124,0.093 0.217,0.21694 0.31,0.3719 l 35.9857,98.16273 c 0.062,0.27896 0.062,0.49593 -0.062,0.74389 -0.1549,0.21697 -0.3409,0.34095 -0.6199,0.34095 l -15.6838,0.0309 c -0.3409,0 -0.5889,-0.15498 -0.6819,-0.55792 l -7.4389,-21.60386 -36.1718,0.062 c -1.2708,3.68846 -2.5106,7.28394 -3.7814,10.84842 -1.2398,3.53349 -2.4796,7.12897 -3.7815,10.78643 -0.031,0.15498 -0.1239,0.24797 -0.3099,0.37195 -0.124,0.124 -0.31,0.18599 -0.434,0.18599 l -15.6837,0.031 m 55.203,-37.00862 c -0.062,-0.30995 -0.217,-0.6509 -0.3719,-1.02285 -0.155,-0.34095 -0.279,-0.7129 -0.372,-0.96086 -0.7749,-2.23168 -1.4878,-4.27738 -2.1387,-6.1991 -0.6199,-1.89072 -1.2088,-3.53348 -1.7357,-4.95928 -0.31,-0.89887 -0.6199,-1.79773 -0.9299,-2.6966 -0.279,-0.83688 -0.5889,-1.67376 -0.8679,-2.44865 -0.1859,-0.7129 -0.4339,-1.39479 -0.6819,-2.0767 -0.2169,-0.6509 -0.4339,-1.3018 -0.6819,-1.95272 -0.4029,-1.3018 -0.8368,-2.63461 -1.2708,-3.96742 -0.4029,-1.3018 -0.8679,-2.6966 -1.3328,-4.1224 -0.217,-0.61991 -0.4649,-1.3328 -0.7439,-2.10769 -0.2479,-0.77489 -0.4959,-1.58077 -0.7749,-2.47964 -0.1549,-0.43393 -0.2479,-0.77488 -0.3099,-1.05384 -0.093,-0.24797 -0.155,-0.49593 -0.248,-0.74389 -0.062,-0.24797 -0.186,-0.52693 -0.3099,-0.86788 -0.093,-0.30996 -0.248,-0.74389 -0.465,-1.3638 -0.4649,1.48778 -0.9298,2.88258 -1.3948,4.18439 -0.4029,1.27082 -0.8059,2.44864 -1.1778,3.56448 -0.062,0.24796 -0.155,0.49593 -0.217,0.74389 -0.031,0.21697 -0.093,0.43394 -0.1859,0.68191 -0.217,0.74389 -0.465,1.51877 -0.7129,2.20067 -0.248,0.6819 -0.496,1.3638 -0.7129,2.04571 -0.217,0.71289 -0.465,1.45679 -0.6819,2.13868 -0.217,0.68191 -0.465,1.33281 -0.6819,1.98371 -0.465,1.36381 -0.9299,2.8206 -1.3948,4.30838 -0.496,1.51878 -0.9919,3.09955 -1.6118,4.74231 -0.5889,1.64276 -1.2088,3.37851 -1.8597,5.30023 -0.5889,1.89072 -1.4258,4.27737 -2.4487,7.15996 l 26.3152,-0.031"
       id="path6316"
       style="fill:#ffffff;fill-opacity:1;stroke-width:7.93485;opacity:1" />
    <path
       d="m 1809.2819,-516.37401 c -0.5269,0 -0.8059,-0.27896 -0.8059,-0.83688 l -0.1859,-98.16272 c 0,-0.52695 0.2789,-0.80589 0.8368,-0.80589 l 14.041,-0.0309 c 0.31,0 0.5269,0.12402 0.7439,0.4649 l 27.586,62.23895 c 4.4013,-10.47648 8.8337,-20.85997 13.297,-31.15047 4.4324,-10.2905 8.8957,-20.67399 13.3591,-31.18147 0.155,-0.30993 0.4029,-0.4649 0.7749,-0.4649 l 14.041,-0.0309 c 0.5269,0 0.8059,0.27899 0.8059,0.80589 l 0.1859,98.16272 c 0,0.55792 -0.2789,0.83688 -0.8368,0.83688 l -14.8469,0.031 c -0.5579,0 -0.8369,-0.27896 -0.8369,-0.83687 l -0.093,-57.93068 c -3.1615,7.43892 -6.3851,14.81585 -9.6086,22.19277 -3.2235,7.34594 -6.416,14.75386 -9.5466,22.16178 -0.186,0.24797 -0.4339,0.40294 -0.7749,0.40294 l -12.3982,0.031 c -0.3099,0 -0.5269,-0.15499 -0.7439,-0.43394 l -19.4031,-44.41654 0.093,58.08555 c 0,0.55792 -0.2479,0.83688 -0.8058,0.83688 l -14.8779,0.031"
       id="path6320"
       style="fill:#ffffff;fill-opacity:1;stroke-width:7.93485;opacity:1" />
    <path
       d="m 1949.4575,-517.57313 c -0.4649,0 -0.7439,-0.27896 -0.7439,-0.83688 l -0.093,-42.18487 h -7.191 c -0.4649,0 -0.7439,-0.21696 -0.7439,-0.74389 l -0.031,-14.10294 c 0,-0.55792 0.248,-0.83688 0.7439,-0.83688 h 7.191 l -0.062,-40.29414 c 0,-0.52695 0.248,-0.80589 0.7439,-0.80589 l 34.405,-0.0619 c 13.638,-0.0309 23.8355,5.57919 30.6545,16.86155 1.2088,2.20068 2.2317,4.24638 3.0066,6.23009 0.7749,1.95272 1.2708,3.87444 1.5188,5.73417 0.5579,3.65747 0.8368,10.66244 0.8678,21.04594 0,5.54819 -0.062,10.19751 -0.2479,13.94797 -0.186,3.68846 -0.434,6.50905 -0.8059,8.36878 -0.341,1.92172 -0.9299,3.78145 -1.6738,5.61018 -0.7439,1.76675 -1.6737,3.59548 -2.8515,5.36223 v -0.062 c -3.0376,4.6802 -7.129,8.64762 -12.3053,11.87115 -5.3312,3.19254 -11.6233,4.8043 -18.9692,4.8353 l -33.4132,0.062 m 15.6218,-84.09077 0.031,25.35432 17.8844,-0.031 c 0.5269,0 0.8059,0.27897 0.8059,0.80589 l 0.031,14.13394 c 0,0.46494 -0.279,0.74389 -0.8059,0.74389 l -17.8844,0.031 0.031,27.40001 16.9856,-0.031 c 7.8727,-0.031 13.6999,-2.75857 17.5433,-8.24478 1.5498,-2.41765 2.5107,-4.95928 2.8516,-7.62489 0.217,-1.4258 0.372,-3.65747 0.4959,-6.60204 0.124,-2.94457 0.186,-6.69502 0.155,-11.28236 0,-4.40136 -0.031,-8.08983 -0.186,-11.09639 -0.093,-2.94457 -0.2789,-5.30023 -0.5269,-7.03598 -0.4959,-3.22353 -1.6737,-6.1371 -3.5645,-8.70973 -3.8744,-5.20724 -9.5156,-7.84185 -16.8615,-7.84185 l -16.9855,0.0309"
       id="path6324"
       style="fill:#ffffff;fill-opacity:1;stroke-width:7.93485;opacity:1" />
    <path
       d="m 2037.5181,-517.72714 c -0.558,0 -0.8369,-0.27896 -0.8369,-0.83688 l -0.186,-98.16272 c 0,-0.52695 0.279,-0.80589 0.8369,-0.80589 l 14.8778,-0.0309 c 0.5269,0 0.8059,0.27899 0.8059,0.80588 l 0.186,98.16272 c 0,0.55792 -0.279,0.83688 -0.8369,0.83688 l -14.8468,0.031 m 0.8678,26.96608 c -0.4959,0 -0.7749,-0.21697 -0.7749,-0.74389 v -13.23508 c -0.031,-0.46493 0.217,-0.74389 0.7439,-0.74389 l 13.2661,-0.031 c 0.4649,0 0.7129,0.24797 0.7129,0.77489 v 13.20408 c 0,0.49593 -0.186,0.74389 -0.6819,0.77489 h -13.2661"
       id="path6328"
       style="fill:#ffffff;fill-opacity:1;stroke-width:7.93485;opacity:1" />
    <path
       d="m 2073.6878,-517.79015 c -0.5269,0 -0.8059,-0.27896 -0.8059,-0.83688 l -0.1859,-98.16272 c 0,-0.52695 0.2789,-0.80589 0.8368,-0.80589 l 14.103,-0.0309 c 0.279,0 0.4649,0.12402 0.6819,0.40293 l 43.2697,67.88013 -0.124,-67.53918 c 0,-0.5579 0.279,-0.83688 0.8369,-0.83688 h 14.9398 c 0.527,0 0.8059,0.24797 0.8059,0.80589 l 0.186,98.16272 c 0,0.55792 -0.279,0.80588 -0.8369,0.80588 l -14.0409,0.031 c -0.279,0 -0.465,-0.12398 -0.6819,-0.40294 l -43.4247,-67.88017 0.1239,67.53917 c 0,0.55793 -0.2169,0.83689 -0.7438,0.83689 l -14.9399,0.031"
       id="path6332"
       style="fill:#ffffff;fill-opacity:1;stroke-width:7.93485;opacity:1" />
    <path
       d="m 2223.2871,-518.0504 c -0.5269,0 -0.8059,-0.27895 -0.8059,-0.83687 l -0.093,-42.06088 -37.3185,0.062 0.062,42.06088 c 0,0.55792 -0.2789,0.83688 -0.8059,0.83688 l -14.8778,0.031 c -0.5579,0 -0.8059,-0.27896 -0.8059,-0.83688 l -0.1859,-98.16271 c 0,-0.52695 0.2789,-0.80589 0.8368,-0.80589 l 14.8469,-0.0309 c 0.5579,0 0.8369,0.27899 0.8369,0.80588 l 0.062,41.255 37.3186,-0.062 -0.062,-41.255 c 0,-0.52696 0.279,-0.80588 0.8369,-0.80588 l 14.8469,-0.0311 c 0.5579,0 0.8368,0.27899 0.8368,0.80589 l 0.155,98.16272 c 0,0.55792 -0.279,0.83688 -0.8059,0.83688 l -14.8778,0.031"
       id="path6336"
       style="fill:#ffffff;fill-opacity:1;stroke-width:7.93485;opacity:1" />
    <path
       d="m 2605.8736,-411.38426 c -0.5579,0 -0.8368,-0.27896 -0.8368,-0.83688 v -12.24322 c 0,-0.55792 0.2479,-0.83688 0.8058,-0.83688 h 4.8043 c 4.4014,-0.031 7.9039,-1.23982 10.4765,-3.71946 2.4797,-2.38665 3.7505,-5.4862 3.7505,-9.39163 0,-3.62647 -1.3328,-6.78801 -3.9365,-9.39163 -2.6036,-2.60362 -5.7651,-3.87444 -9.5156,-3.87444 -2.7586,0 -5.3622,0.92987 -7.8728,2.82059 -2.5107,1.82874 -4.0914,4.58733 -4.7733,8.30679 -0.031,0.15498 -0.155,0.34095 -0.31,0.46494 -0.155,0.15497 -0.3099,0.21697 -0.4649,0.21697 l -14.041,0.031 c -0.1859,0 -0.4029,-0.093 -0.5579,-0.27896 -0.155,-0.18597 -0.248,-0.37194 -0.186,-0.61991 0.434,-7.00498 3.4095,-13.17309 8.8647,-18.59729 5.3623,-5.26924 11.6233,-7.96585 18.7523,-7.96585 4.4324,0 8.4308,0.74389 12.0263,2.23168 3.5644,1.51878 6.757,3.68846 9.5156,6.63304 2.6036,2.88257 4.5873,5.98212 6.0131,9.32964 1.3638,3.3785 2.0767,6.81901 2.1077,10.38349 0,3.87443 -0.7439,7.68688 -2.2627,11.37535 -0.7129,1.64276 -1.7047,3.19253 -3.0065,4.68031 -1.2399,1.4258 -2.7586,2.7896 -4.4944,4.0914 3.6265,2.60363 6.3851,5.73418 8.1518,9.39164 1.8288,3.90544 2.7586,7.90385 2.7586,11.96426 0.031,9.26765 -2.9135,16.73757 -8.7717,22.40974 -5.7961,5.54819 -12.9871,8.33779 -21.5729,8.33779 -3.4405,0 -6.664,-0.52692 -9.7015,-1.61177 -3.0066,-1.11586 -5.9202,-2.75863 -8.7408,-4.92831 -2.7586,-2.23168 -4.9283,-4.92829 -6.633,-8.05883 -1.6428,-3.16154 -2.8206,-6.85 -3.4715,-11.09639 -0.062,-0.58891 0.155,-0.89887 0.8059,-0.89887 l 13.979,-0.031 c 0.3099,0 0.5579,0.18597 0.7748,0.55792 0.589,1.58077 1.2708,3.00656 2.0767,4.30837 0.8059,1.27081 1.7668,2.35566 2.8516,3.31652 1.1159,0.92986 2.3867,1.64276 3.8125,2.13869 1.4258,0.49593 3.1305,0.74389 5.0212,0.74389 3.5955,0 6.85,-1.30181 9.7326,-3.90543 2.8206,-2.51064 4.2464,-6.10612 4.2154,-10.75544 0,-4.68032 -1.3948,-8.2138 -4.2464,-10.75543 -2.8826,-2.63462 -6.1991,-3.96743 -10.0115,-3.96743 l -5.8892,0.031"
       id="path6340"
       style="fill:#ffffff;fill-opacity:1;stroke-width:7.93485;opacity:1" />
    <path
       d="m 2651.7139,-381.81 c -0.5579,0 -0.8369,-0.27896 -0.8369,-0.83688 l -0.031,-13.35906 32.6383,-70.04981 c 0.062,-0.0619 0.1859,-0.18599 0.3409,-0.30993 0.124,-0.093 0.279,-0.186 0.403,-0.186 h 15.6217 c 0.279,0 0.4649,0.093 0.6509,0.34096 0.124,0.186 0.186,0.46491 0.031,0.80589 l -32.3593,68.77898 23.3706,-0.062 -0.031,-27.33803 c 0,-0.46493 0.248,-0.74389 0.8059,-0.74389 l 13.979,-0.031 c 0.5579,0 0.8058,0.24796 0.8058,0.77489 l 0.062,27.30703 h 7.067 c 0.4649,0 0.7439,0.27896 0.7439,0.80588 l 0.031,13.17308 c 0,0.52693 -0.248,0.80589 -0.7749,0.80589 l -7.036,0.031 0.031,13.60703 c 0,0.55792 -0.279,0.83687 -0.8369,0.83687 l -13.979,0.031 c -0.5269,0 -0.8059,-0.27896 -0.8059,-0.83688 l -0.031,-13.60702 -39.8602,0.062"
       id="path6344"
       style="fill:#ffffff;fill-opacity:1;stroke-width:7.93485;opacity:1" />
    <path
       d="m 2759.7924,-367.54162 c -0.5579,0 -0.8369,-0.27896 -0.8369,-0.83688 l -0.155,-97.48082 c 0,-0.52696 0.248,-0.80588 0.8059,-0.80588 l 13.979,-0.0309 c 0.5579,0 0.8059,0.27899 0.8059,0.83687 l 0.124,58.76746 c 4.2773,-5.26923 8.4927,-10.47648 12.7391,-15.68372 4.2154,-5.17625 8.4308,-10.38349 12.7391,-15.68372 0.186,-0.15498 0.372,-0.27896 0.62,-0.27896 l 16.7065,-0.031 c 0.341,0 0.6199,0.15498 0.7749,0.49593 0.124,0.30995 0.093,0.61991 -0.155,0.89887 l -23.4945,26.81109 c 4.5253,7.00499 9.0196,13.94798 13.483,20.82897 4.4633,6.85001 8.9577,13.793 13.514,20.82898 0.155,0.30995 0.186,0.58891 0.062,0.86787 -0.155,0.24797 -0.372,0.37195 -0.7439,0.37195 l -17.5434,0.031 c -0.279,0 -0.496,-0.12398 -0.6819,-0.40294 l -17.9464,-31.39843 c -1.6428,1.92172 -3.3165,3.78145 -5.0213,5.67217 -1.7047,1.85973 -3.3785,3.78145 -5.0213,5.70318 l 0.031,19.65113 c 0,0.55793 -0.279,0.83689 -0.8369,0.83689 l -13.948,0.031"
       id="path6348"
       style="fill:#ffffff;fill-opacity:1;stroke-width:7.93485;opacity:1" />
    <path
       d="m 2832.8529,-367.66754 c -0.5579,0 -0.8368,-0.27896 -0.8368,-0.83688 l -0.124,-69.4609 c 0,-0.52692 0.2789,-0.80588 0.8369,-0.80588 l 13.9789,-0.031 c 0.527,0 0.8059,0.27895 0.8059,0.80588 v 5.54822 c 4.4014,-4.71131 10.1975,-7.12896 17.5435,-7.12896 4.8663,-0.031 8.8337,0.86787 11.9332,2.69661 1.3638,0.83688 2.6656,1.70475 3.9674,2.69661 1.2709,0.96086 2.4797,2.0767 3.6265,3.25452 5.6102,-5.79616 12.9251,-8.70973 21.9758,-8.74072 5.5172,0 10.9104,2.07669 16.1797,6.29207 5.2072,4.21539 7.8418,10.3835 7.8418,18.53531 l 0.093,46.18328 c 0,0.52693 -0.279,0.80589 -0.8368,0.80589 l -13.979,0.031 c -0.527,0 -0.8059,-0.27896 -0.8059,-0.83688 l -0.093,-41.34798 c 0,-4.52535 -1.2088,-7.99684 -3.6265,-10.41449 -2.4796,-2.44864 -5.5792,-3.68846 -9.2676,-3.68846 -3.8435,0 -6.974,1.23982 -9.4536,3.71946 -2.3867,2.41765 -3.5955,5.88914 -3.5955,10.41448 l 0.062,41.37899 c 0,0.55792 -0.2479,0.80588 -0.7438,0.80588 l -13.979,0.031 c -0.4649,0 -0.7439,-0.27895 -0.7439,-0.80588 l -0.093,-41.37898 c 0,-4.46335 -1.2398,-7.93485 -3.7194,-10.41449 -2.4487,-2.44864 -5.5482,-3.68846 -9.2367,-3.68846 -3.8434,0.031 -6.974,1.27082 -9.4536,3.71946 -2.3557,2.38665 -3.5645,5.82715 -3.5335,10.41449 l 0.062,41.37897 c 0,0.55793 -0.279,0.83689 -0.8059,0.83689 l -13.979,0.031"
       id="path6352"
       style="fill:#ffffff;fill-opacity:1;stroke-width:7.93485;opacity:1" />
    <path
       d="m 1760.3597,-411.37966 c -0.5579,0 -0.8368,-0.27896 -0.8368,-0.83688 v -12.24322 c 0,-0.55792 0.2479,-0.83688 0.8058,-0.83688 h 4.8043 c 4.4014,-0.031 7.9039,-1.23982 10.4765,-3.71946 2.4797,-2.38665 3.7505,-5.4862 3.7505,-9.39163 0,-3.62647 -1.3328,-6.78801 -3.9365,-9.39163 -2.6036,-2.60362 -5.7651,-3.87444 -9.5156,-3.87444 -2.7586,0 -5.3622,0.92987 -7.8728,2.82059 -2.5107,1.82874 -4.0914,4.58733 -4.7733,8.30679 -0.031,0.15498 -0.155,0.34095 -0.31,0.46494 -0.155,0.15497 -0.3099,0.21697 -0.4649,0.21697 l -14.041,0.031 c -0.1859,0 -0.4029,-0.093 -0.5579,-0.27896 -0.155,-0.18597 -0.248,-0.37194 -0.186,-0.61991 0.434,-7.00498 3.4095,-13.17309 8.8647,-18.59729 5.3623,-5.26924 11.6233,-7.96585 18.7523,-7.96585 4.4324,0 8.4308,0.74389 12.0263,2.23168 3.5644,1.51878 6.757,3.68846 9.5156,6.63304 2.6036,2.88257 4.5873,5.98212 6.0131,9.32964 1.3638,3.3785 2.0767,6.81901 2.1077,10.38349 0,3.87443 -0.7439,7.68688 -2.2627,11.37535 -0.7129,1.64276 -1.7047,3.19253 -3.0065,4.68031 -1.2399,1.4258 -2.7586,2.7896 -4.4944,4.0914 3.6265,2.60363 6.3851,5.73418 8.1518,9.39164 1.8288,3.90544 2.7586,7.90385 2.7586,11.96426 0.031,9.26765 -2.9135,16.73757 -8.7717,22.40974 -5.7961,5.54819 -12.9871,8.33779 -21.5729,8.33779 -3.4405,0 -6.664,-0.52692 -9.7015,-1.61177 -3.0066,-1.11586 -5.9202,-2.75863 -8.7408,-4.92831 -2.7586,-2.23168 -4.9283,-4.92829 -6.633,-8.05883 -1.6428,-3.16154 -2.8206,-6.85 -3.4715,-11.09639 -0.062,-0.58891 0.155,-0.89887 0.8059,-0.89887 l 13.979,-0.031 c 0.3099,0 0.5579,0.18597 0.7748,0.55792 0.589,1.58077 1.2708,3.00656 2.0767,4.30837 0.8059,1.27081 1.7668,2.35566 2.8516,3.31652 1.1159,0.92986 2.3867,1.64276 3.8125,2.13869 1.4258,0.49593 3.1305,0.74389 5.0212,0.74389 3.5955,0 6.85,-1.30181 9.7326,-3.90543 2.8206,-2.51064 4.2464,-6.10612 4.2154,-10.75544 0,-4.68032 -1.3948,-8.2138 -4.2464,-10.75543 -2.8826,-2.63462 -6.1991,-3.96743 -10.0115,-3.96743 l -5.8892,0.031"
       id="path6356"
       style="fill:#ffffff;fill-opacity:1;stroke-width:7.93485;opacity:1" />
    <path
       d="m 1850.2754,-437.72103 c 0,-4.40136 -1.1778,-7.87285 -3.5335,-10.35249 -2.3557,-2.47964 -5.4862,-3.75046 -9.4226,-3.71946 -3.9055,0 -7.067,1.23982 -9.3917,3.75046 -2.3246,2.44864 -3.4715,5.92013 -3.4715,10.38348 l 0.062,41.44098 c 0,4.43235 1.1778,7.93485 3.5025,10.38348 2.3557,2.47964 5.4552,3.68847 9.3916,3.68847 3.9055,0 7.067,-1.23982 9.4227,-3.71946 2.3246,-2.44865 3.5334,-5.92014 3.5024,-10.41448 l -0.062,-41.44098 m -41.441,-0.74389 c -0.031,-9.20566 2.8516,-16.30363 8.6477,-21.3249 5.7652,-5.08326 12.3363,-7.62489 19.8062,-7.62489 3.6884,0 7.1909,0.61995 10.5074,1.92172 3.2856,1.30181 6.4161,3.19254 9.2987,5.64118 2.8826,2.54163 5.0522,5.57919 6.54,9.14367 1.4878,3.50249 2.2627,7.5629 2.2627,12.15023 l 0.062,43.08374 c 0.031,9.17467 -2.8826,16.27263 -8.7098,21.3249 -5.7651,4.99027 -12.3362,7.53191 -19.8061,7.5629 -7.4079,0 -14.0409,-2.47964 -19.8061,-7.50091 -5.7961,-4.95928 -8.7097,-12.05725 -8.7407,-21.29391 l -0.062,-43.08373"
       id="path6360"
       style="fill:#ffffff;fill-opacity:1;stroke-width:7.93485;opacity:1" />
    <path
       d="m 1914.2785,-367.53702 c -0.5579,0 -0.8369,-0.27896 -0.8369,-0.83688 l -0.155,-97.48082 c 0,-0.52696 0.248,-0.80588 0.8059,-0.80588 l 13.979,-0.031 c 0.5579,0 0.8059,0.27899 0.8059,0.83687 l 0.124,58.76746 c 4.2773,-5.26923 8.4927,-10.47648 12.7391,-15.68372 4.2154,-5.17625 8.4308,-10.38349 12.7391,-15.68372 0.186,-0.15498 0.372,-0.27896 0.62,-0.27896 l 16.7065,-0.031 c 0.341,0 0.6199,0.15498 0.7749,0.49593 0.124,0.30995 0.093,0.61991 -0.155,0.89887 l -23.4945,26.81109 c 4.5253,7.00499 9.0196,13.94798 13.483,20.82897 4.4633,6.85001 8.9577,13.793 13.514,20.82898 0.155,0.30995 0.186,0.58891 0.062,0.86787 -0.155,0.24797 -0.372,0.37195 -0.7439,0.37195 l -17.5434,0.031 c -0.279,0 -0.496,-0.12398 -0.6819,-0.40294 l -17.9464,-31.39843 c -1.6428,1.92172 -3.3165,3.78145 -5.0213,5.67217 -1.7047,1.85973 -3.3785,3.78145 -5.0213,5.70318 l 0.031,19.65113 c 0,0.55793 -0.279,0.83689 -0.8369,0.83689 l -13.948,0.031"
       id="path6364"
       style="fill:#ffffff;fill-opacity:1;stroke-width:7.93485;opacity:1" />
    <path
       d="m 1987.3388,-367.66294 c -0.5579,0 -0.8368,-0.27896 -0.8368,-0.83688 l -0.124,-69.4609 c 0,-0.52692 0.2789,-0.80588 0.8369,-0.80588 l 13.9789,-0.031 c 0.527,0 0.8059,0.27895 0.8059,0.80588 v 5.54822 c 4.4014,-4.71131 10.1975,-7.12896 17.5435,-7.12896 4.8663,-0.031 8.8337,0.86787 11.9332,2.69661 1.3638,0.83688 2.6656,1.70475 3.9674,2.69661 1.2709,0.96086 2.4797,2.0767 3.6265,3.25452 5.6102,-5.79616 12.9251,-8.70973 21.9758,-8.74072 5.5172,0 10.9104,2.07669 16.1797,6.29207 5.2072,4.21539 7.8418,10.3835 7.8418,18.53531 l 0.093,46.18328 c 0,0.52693 -0.279,0.80589 -0.8368,0.80589 l -13.979,0.031 c -0.527,0 -0.8059,-0.27896 -0.8059,-0.83688 l -0.093,-41.34798 c 0,-4.52535 -1.2088,-7.99684 -3.6265,-10.41449 -2.4796,-2.44864 -5.5792,-3.68846 -9.2676,-3.68846 -3.8435,0 -6.974,1.23982 -9.4536,3.71946 -2.3867,2.41765 -3.5955,5.88914 -3.5955,10.41448 l 0.062,41.37899 c 0,0.55792 -0.2479,0.80588 -0.7438,0.80588 l -13.979,0.031 c -0.4649,0 -0.7439,-0.27895 -0.7439,-0.80588 l -0.093,-41.37898 c 0,-4.46335 -1.2398,-7.93485 -3.7194,-10.41449 -2.4487,-2.44864 -5.5482,-3.68846 -9.2367,-3.68846 -3.8434,0.031 -6.974,1.27082 -9.4536,3.71946 -2.3557,2.38665 -3.5645,5.82715 -3.5335,10.41449 l 0.062,41.37897 c 0,0.55793 -0.279,0.83689 -0.8059,0.83689 l -13.979,0.031"
       id="path6368"
       style="fill:#ffffff;fill-opacity:1;stroke-width:7.93485;opacity:1" />
    <path
       id="rect6268"
       style="opacity:1;fill:#ffffff;fill-opacity:1;fill-rule:evenodd;stroke-width:449.85;stroke-linecap:round;stroke-linejoin:round;paint-order:stroke fill markers"
       d="m 2617.3905,-336.01006 -212.3463,71.07645 35.3696,35.38157 -116.3956,116.39564 -115.466,-115.4658 35.3698,-35.38157 -212.3463,-71.07645 71.0996,212.32291 34.8119,-34.81161 136.7484,136.736495 V 257.33676 h 100.495 V -21.762264 l 136.7482,-136.736496 34.8118,34.81184 z" />
  </g>
</svg>
