<?xml version="1.0" encoding="utf-8"?>
<svg viewBox="0 0 323.14914 200" xmlns="http://www.w3.org/2000/svg">
  <g id="layer1" transform="matrix(0.9999999999999999, 0, 0, 0.9999999999999999, -303.4596862792969, -22.960700988769517)">
    <path id="rect15575" style="opacity:1;fill:#0a9646;fill-opacity:1;fill-rule:evenodd;stroke-width:0.0420687;stroke-linecap:square;stroke-miterlimit:10;paint-order:stroke fill markers" d="M 303.45966,22.960701 H 626.6088 V 222.9607 H 303.45966 Z"/>
    <path transform="matrix(0.26458333,0,0,0.26458333,303.45966,22.960701)" d="m 30.353516,5.0117188 c -13.808655,0 -25.0781254,11.2674112 -25.0781254,25.0761722 v 332.957029 47.1211 49.04296 13.88672 252.45508 c 0,13.80862 11.2694704,25.06641 25.0781254,25.06641 H 1190.9805 c 13.8086,0 25.0781,-11.25779 25.0781,-25.06641 V 473.0957 459.57031 401.94727 363.04492 30.087891 c 0,-13.808761 -11.2695,-25.0761722 -25.0781,-25.0761722 z m 0,9.4511722 H 1190.9805 c 8.7398,0 15.6425,6.885058 15.6425,15.625 v 332.957029 38.90235 c 0,0.29959 -0.013,0.61475 -0.037,0.9375 v 7.20703 c 0,8.68754 -6.9941,15.68164 -15.6816,15.68164 h -8.0762 c -0.1869,0.007 -0.3766,0.0176 -0.5586,0.0176 H 38.023438 c -0.18105,0 -0.371847,-0.0102 -0.560547,-0.0176 h -7.097657 c -8.687546,0 -15.68164,-6.9941 -15.68164,-15.68164 V 30.152344 c 0,-1.658433 0.257595,-3.253829 0.730468,-4.751953 0.01365,-0.04461 0.03284,-0.08643 0.04688,-0.13086 1.99686,-6.321925 7.84094,-10.80664 14.892578,-10.80664 z M 30.28125,435.30469 h 6.958984 1145.628866 8.1172 c 8.6414,0 15.5996,6.95633 15.5996,15.59765 v 7.5918 c 0.024,0.37296 0.037,0.7339 0.037,1.07617 v 13.52539 252.45508 c 0,5.47634 -2.7106,10.22208 -6.8847,13.00391 -2.4923,1.6862 -5.5034,2.66992 -8.752,2.66992 H 30.28125 c -8.641361,0 -15.597656,-6.9563 -15.597656,-15.59766 V 450.90234 c 0,-8.64132 6.956295,-15.59765 15.597656,-15.59765 z" style="color:#000000;font-style:normal;font-variant:normal;font-weight:normal;font-stretch:normal;font-size:medium;line-height:normal;font-family:sans-serif;font-variant-ligatures:normal;font-variant-position:normal;font-variant-caps:normal;font-variant-numeric:normal;font-variant-alternates:normal;font-variant-east-asian:normal;font-feature-settings:normal;font-variation-settings:normal;text-indent:0;text-align:start;text-decoration:none;text-decoration-line:none;text-decoration-style:solid;text-decoration-color:#000000;letter-spacing:normal;word-spacing:normal;text-transform:none;writing-mode:lr-tb;direction:ltr;text-orientation:mixed;dominant-baseline:auto;baseline-shift:baseline;text-anchor:start;white-space:normal;shape-padding:0;shape-margin:0;inline-size:0;clip-rule:nonzero;display:inline;overflow:visible;visibility:visible;opacity:1;isolation:auto;mix-blend-mode:normal;color-interpolation:sRGB;color-interpolation-filters:linearRGB;solid-color:#000000;solid-opacity:1;vector-effect:none;fill:#ffffff;fill-opacity:1;fill-rule:evenodd;stroke:none;stroke-width:2.09199;stroke-linecap:square;stroke-linejoin:miter;stroke-miterlimit:10;stroke-dasharray:none;stroke-dashoffset:0;stroke-opacity:1;paint-order:stroke fill markers;color-rendering:auto;image-rendering:auto;shape-rendering:auto;text-rendering:auto;enable-background:accumulate;stop-color:#000000;stop-opacity:1" id="path15582"/>
    <path d="m 324.12038,67.193614 h 60.89334 v 27.821331 h -60.89334 z" style="opacity:1;fill:#ffd70f;fill-opacity:1;fill-rule:evenodd;stroke:none;stroke-width:0.553508;stroke-linecap:square;stroke-miterlimit:10;stroke-dasharray:none;stroke-opacity:1;paint-order:stroke fill markers" id="rect15605"/>
    <path id="path15631" d="m 326.18273,67.759747 c -0.81115,0 -1.47443,0.660164 -1.47443,1.471307 v 23.746432 c 0,0.811142 0.66328,1.471323 1.47443,1.471323 h 56.7905 c 0.81117,0 1.4744,-0.660181 1.4744,-1.471323 V 69.231054 c 0,-0.811143 -0.66328,-1.471307 -1.4744,-1.471307 z m 0,0.535017 h 56.7905 c 0.52266,0 0.93627,0.413622 0.93627,0.93629 v 23.746432 c 0,0.522654 -0.41353,0.933189 -0.93627,0.933189 h -56.7905 c -0.52266,0 -0.93628,-0.410555 -0.93628,-0.933189 V 69.231054 c 0,-0.522672 0.41354,-0.93629 0.93628,-0.93629 z" style="color:#000000;font-style:normal;font-variant:normal;font-weight:normal;font-stretch:normal;font-size:medium;line-height:normal;font-family:sans-serif;font-variant-ligatures:normal;font-variant-position:normal;font-variant-caps:normal;font-variant-numeric:normal;font-variant-alternates:normal;font-variant-east-asian:normal;font-feature-settings:normal;font-variation-settings:normal;text-indent:0;text-align:start;text-decoration:none;text-decoration-line:none;text-decoration-style:solid;text-decoration-color:#000000;letter-spacing:normal;word-spacing:normal;text-transform:none;writing-mode:lr-tb;direction:ltr;text-orientation:mixed;dominant-baseline:auto;baseline-shift:baseline;text-anchor:start;white-space:normal;shape-padding:0;shape-margin:0;inline-size:0;clip-rule:nonzero;display:inline;overflow:visible;visibility:visible;opacity:1;isolation:auto;mix-blend-mode:normal;color-interpolation:sRGB;color-interpolation-filters:linearRGB;solid-color:#000000;solid-opacity:1;vector-effect:none;fill:#000000;fill-opacity:1;fill-rule:evenodd;stroke:none;stroke-width:0.119062;stroke-linecap:square;stroke-linejoin:miter;stroke-miterlimit:10;stroke-dasharray:none;stroke-dashoffset:0;stroke-opacity:1;paint-order:stroke fill markers;color-rendering:auto;image-rendering:auto;shape-rendering:auto;text-rendering:auto;enable-background:accumulate;stop-color:#000000;stop-opacity:1"/>
    <path d="m 336.88947,72.205604 c -1.36961,0 -2.51552,0.330332 -3.43646,0.991507 -0.91309,0.653335 -1.5737,1.361798 -1.98303,2.125328 -0.14189,0.267612 -0.264,0.538688 -0.36613,0.814199 -0.10264,0.275473 -0.18065,0.564078 -0.23555,0.86321 -0.0552,0.299089 -0.0954,0.774434 -0.11873,1.427765 -0.0223,0.653332 -0.0362,1.495435 -0.0362,2.5266 0,2.062321 0.0516,3.383536 0.15387,3.966025 0.0552,0.299136 0.13326,0.587702 0.23556,0.863193 0.10264,0.267612 0.22467,0.534915 0.36612,0.802543 0.40948,0.771411 1.06995,1.479875 1.983,2.125324 0.92887,0.653346 2.07472,0.979855 3.43649,0.979855 0.74779,0 1.44489,-0.107189 2.09034,-0.319632 0.64544,-0.212556 1.24303,-0.525333 1.79403,-0.942508 1.1335,-0.865864 1.86473,-2.103628 2.19533,-3.709419 0.0139,-0.04714 0.009,-0.08518 -0.0223,-0.116745 -0.0315,-0.03928 -0.0694,-0.05829 -0.11656,-0.05829 h -2.70394 c -0.0223,1.5e-5 -0.0488,0.01117 -0.0722,0.03521 -0.0223,0.01589 -0.0451,0.0307 -0.0582,0.0467 -0.70836,1.487712 -1.74338,2.232636 -3.10515,2.232636 -0.59037,0 -1.09454,-0.11468 -1.51174,-0.342928 -0.41713,-0.236167 -0.75132,-0.520933 -1.00317,-0.851551 -0.14189,-0.181028 -0.27124,-0.389065 -0.3896,-0.625222 -0.11008,-0.244 -0.19597,-0.488524 -0.25924,-0.732545 -0.0628,-0.267611 -0.10709,-0.67614 -0.13048,-1.227141 -0.0223,-0.558871 -0.0359,-1.267326 -0.0359,-2.125325 0,-0.842249 0.009,-1.543133 0.0359,-2.102004 0.0223,-0.55887 0.0677,-0.97117 0.13048,-1.238798 0.0627,-0.251917 0.14857,-0.496392 0.25924,-0.732549 0.11009,-0.244 0.24028,-0.45965 0.3896,-0.64857 0.252,-0.30699 0.58598,-0.580386 1.00317,-0.816526 0.41715,-0.236167 0.92137,-0.352269 1.51174,-0.352269 0.79503,1.7e-5 1.45185,0.230844 1.97135,0.695231 0.27541,0.236167 0.50863,0.492045 0.69757,0.767539 0.18872,0.267667 0.33407,0.560022 0.4361,0.874867 0.0167,0.06294 0.0599,0.09333 0.13046,0.09333 h 2.7039 c 0.0468,0 0.0854,-0.01589 0.11658,-0.0467 0.0315,-0.03161 0.0407,-0.07184 0.0223,-0.118954 -0.25952,-1.393235 -0.93175,-2.595995 -2.01801,-3.611427 -1.07052,-1.007535 -2.42438,-1.511744 -4.0617,-1.511744 z m 27.73422,0.104956 c -1.28304,0 -2.4213,0.437369 -3.41313,1.311121 -0.99967,0.858 -1.50005,2.08205 -1.50005,3.672071 v 7.425818 c 0,1.590021 0.50038,2.814088 1.50005,3.672088 0.99183,0.865851 2.13009,1.299446 3.41313,1.299446 1.28303,0 2.42133,-0.433578 3.41313,-1.299446 1.00756,-0.86587 1.50938,-2.089917 1.50938,-3.672088 v -7.425818 c 0,-0.787127 -0.1299,-1.484222 -0.38959,-2.09033 -0.252,-0.613979 -0.62389,-1.140934 -1.11979,-1.581741 -0.49592,-0.425045 -1.03279,-0.74779 -1.6074,-0.968177 -0.56674,-0.22825 -1.16816,-0.342924 -1.80573,-0.342924 z m -21.12261,0.03521 c -0.0943,0 -0.14217,0.04776 -0.14217,0.142392 v 2.279298 c 0,0.09444 0.0479,0.142197 0.14217,0.142197 h 4.49793 V 89.409 c 0,0.09444 0.0479,0.139995 0.14217,0.139995 h 2.5616 c 0.0945,0 0.14217,-0.04555 0.14217,-0.139995 V 74.909653 h 4.48625 c 0.0943,0 0.14217,-0.04778 0.14217,-0.142196 v -2.279299 c 0,-0.09444 -0.0479,-0.142392 -0.14217,-0.142392 z m 31.22667,0.118953 -2.43331,1.759064 c -0.0139,0.01589 -0.0315,0.03477 -0.0466,0.05829 -0.009,0.02341 -0.0139,0.04468 -0.0139,0.06068 v 2.561593 c 0,0.06294 0.0278,0.110694 0.0728,0.142196 0.0468,0.02343 0.0989,0.01617 0.15388,-0.02343 0.36208,-0.259778 0.7228,-0.523245 1.08486,-0.790886 0.36206,-0.275473 0.72509,-0.548889 1.08714,-0.816528 v 14.028096 c 0,0.09444 0.048,0.142198 0.14217,0.142198 h 2.41929 c 0.0943,0 0.13994,-0.04778 0.13994,-0.142198 V 72.606811 c 0,-0.09444 -0.0455,-0.142197 -0.13994,-0.142197 z m -10.10406,2.538257 c 0.67694,0 1.21532,0.217964 1.61673,0.650912 0.40948,0.425045 0.61359,1.018854 0.61359,1.782378 v 7.143522 c 0,0.771407 -0.20461,1.368982 -0.61359,1.794059 -0.40133,0.425045 -0.93979,0.63689 -1.61673,0.63689 -0.67695,0 -1.21527,-0.211859 -1.61671,-0.63689 -0.40134,-0.425091 -0.60428,-1.022652 -0.60428,-1.794059 v -7.143497 c 0,-0.763524 0.20266,-1.357335 0.60428,-1.782377 0.40133,-0.432946 0.93976,-0.650913 1.61671,-0.650913 z m -9.98507,11.865445 c -0.0945,0 -0.14217,0.04776 -0.14217,0.14239 v 2.398281 c 0,0.09444 0.0479,0.139994 0.14217,0.139994 h 2.40762 c 0.0867,0 0.13046,-0.04555 0.13046,-0.139994 v -2.398281 c 0,-0.09444 -0.0451,-0.14239 -0.13046,-0.14239 z" style="font-style: normal; font-variant: normal; font-weight: normal; font-stretch: normal; font-size: 15.1831px; line-height: 1.46; font-family: 'Alte DIN 1451 Mittelschrift gepraegt'; text-align: center; text-anchor: middle; opacity: 1; fill-opacity: 1; stroke-width: 0.264584; visibility: hidden;" id="path15637"/>
    <path id="path17496" style="font-size:15.1831px;line-height:1.46;font-family:'Singapore Road Signs';-inkscape-font-specification:'Singapore Road Signs';text-align:center;text-anchor:middle;opacity:1;fill:#ffffff;fill-opacity:1;stroke-width:0.0756548" d="m 570.47468,59.120043 v 50.614317 h 35.43541 V 59.120043 Z m 1.38203,1.660034 h 32.65274 v 47.566083 h -32.65274 z m 13.66823,3.646909 -2.23483,8.869719 h 3.92184 l 0.28216,-8.869719 z m 3.35329,0 0.28216,8.869719 h 3.92385 l -2.23686,-8.869719 z m -15.90932,9.992316 v 1.942234 l 3.06692,1.10806 v 0.584703 h 1.411 v -0.584703 c 0,0 2.08662,-0.313671 4.52568,-0.535349 1.95306,-0.177516 4.1317,-0.271988 5.64407,-0.278037 1.79866,-0.0063 4.45804,0.09363 6.73975,0.288436 2.51319,0.214479 4.5713,0.524984 4.5713,0.524984 v 0.5847 h 1.38199 v -0.5847 l 3.06685,-1.108064 v -1.942233 z m 9.21108,3.620663 -6.70448,26.681115 h 10.04943 l 1.39442,-26.681115 z m 7.25642,0 1.39441,26.681115 h 10.0494 l -6.70443,-26.681115 z"/>
    <g style="font-size:14.7905px;line-height:0;font-family:'Singapore Road Signs';-inkscape-font-specification:'Singapore Road Signs';text-align:center;text-anchor:middle;opacity:1;fill:#860000;fill-opacity:1;stroke-width:6.45213" id="layer1-8" transform="matrix(0.08718024,0,0,0.08718024,-145.22047,195.49013)">
      <circle style="opacity:1;fill:#f00a0a;fill-opacity:1;fill-rule:nonzero;stroke:none;stroke-width:3622.55;stroke-linecap:round;stroke-linejoin:round;stroke-miterlimit:4;stroke-dasharray:none;stroke-opacity:1;paint-order:stroke fill markers" id="path815" cx="6380.9966" cy="-193.29752" r="350"/>
      <circle cy="-193.29752" cx="6380.9966" id="circle817" style="opacity:1;fill:#ffffff;fill-opacity:1;fill-rule:nonzero;stroke:none;stroke-width:2587.55;stroke-linecap:round;stroke-linejoin:round;stroke-miterlimit:4;stroke-dasharray:none;stroke-opacity:1;paint-order:stroke fill markers" r="250"/>
      <g aria-label="20 " style="font-style:normal;font-variant:normal;font-weight:bold;font-stretch:normal;font-size:414.864px;line-height:0;font-family:Giaothong1;-inkscape-font-specification:'Giaothong1 Bold';letter-spacing:0px;word-spacing:0px;fill:#000000;fill-opacity:1;stroke:none;stroke-width:24.7849" id="text874" transform="matrix(-1,0,0,1,1299.029,-383.45)">
        <g aria-label="90" transform="translate(2310.2259,387.54849)" style="font-style:normal;font-variant:normal;font-weight:bold;font-stretch:normal;font-size:414.864px;line-height:0;font-family:Giaothong1;-inkscape-font-specification:'Giaothong1 Bold';letter-spacing:0px;word-spacing:0px;fill:#000000;fill-opacity:1;stroke:none;stroke-width:53.5539" id="text844"/>
      </g>
    </g>
    <g style="font-size:14.7905px;line-height:0;font-family:'Singapore Road Signs';-inkscape-font-specification:'Singapore Road Signs';text-align:center;text-anchor:middle;opacity:1;fill:#fff000;fill-opacity:1;stroke-width:6.45221" id="layer1-7" transform="matrix(0.08717968,0,0,0.08717968,488.77841,183.34565)">
      <circle cy="-54" cx="351" id="circle817-6" style="opacity:1;fill:#0046aa;fill-opacity:1;fill-rule:nonzero;stroke:none;stroke-width:3622.58;stroke-linecap:round;stroke-linejoin:round;stroke-miterlimit:4;stroke-dasharray:none;stroke-opacity:1;paint-order:stroke fill markers" r="350"/>
      <path id="rect984" style="font-style:normal;font-variant:normal;font-weight:bold;font-stretch:normal;font-size:414.864px;line-height:0;font-family:Giaothong1;-inkscape-font-specification:'Giaothong1 Bold';letter-spacing:0px;word-spacing:0px;opacity:1;fill:#ffffff;fill-opacity:1;fill-rule:nonzero;stroke:none;stroke-width:0.344279;stroke-linecap:round;stroke-linejoin:miter;stroke-miterlimit:10;stroke-dasharray:none;stroke-opacity:1;paint-order:stroke fill markers" d="m 851.18164,518.03906 c -16.32678,0 -29.4707,13.14393 -29.4707,29.47071 v 80.94921 c 0,16.32678 13.14392,29.47071 29.4707,29.47071 16.32678,0 29.4707,-13.14393 29.4707,-29.47071 v -80.94921 c 0,-16.32678 -13.14392,-29.47071 -29.4707,-29.47071 z m -69.94336,1.23828 -26.10937,69.75391 c -2.72781,7.40406 -3.70118,11.30112 -3.70118,28.44727 0,18.12042 0.7789,22.01697 4.67579,28.25195 5.26075,8.37828 14.22308,13.44336 24.93945,13.44336 10.91123,0 20.0688,-4.87023 25.13476,-13.44336 3.70197,-6.23498 4.48047,-10.13153 4.48047,-28.25195 0,-22.01726 -0.77798,-26.88814 -4.28515,-32.34375 -3.31232,-5.06591 -9.74347,-8.96289 -16.75782,-8.96289 -4.28653,0 -7.01308,0.77773 -8.37695,1.75195 l -0.39062,-0.38867 22.60156,-58.25782 z m 69.94336,18.74024 c 5.25853,0 9.49219,4.23365 9.49219,9.49219 v 80.94921 c 0,5.25853 -4.23366,9.49219 -9.49219,9.49219 -5.25853,0 -9.49219,-4.23366 -9.49219,-9.49219 v -80.94921 c 0,-5.25854 4.23366,-9.49219 9.49219,-9.49219 z m -70.13867,55.68945 c 5.0659,0 9.74219,3.89738 9.74219,9.9375 v 25.71875 c 0,6.04012 -4.67629,9.9375 -9.74219,9.9375 -5.0659,0 -9.74219,-3.89738 -9.74219,-9.9375 v -25.71875 c 0,-6.04012 4.67629,-9.9375 9.74219,-9.9375 z" transform="matrix(3.0349198,0,0,3.0349198,-2125.7104,-1839.7056)"/>
    </g>
    <g aria-label="6" id="text19759" style="font-size:31.1478px;line-height:1.3;font-family:'Singapore Road Signs';-inkscape-font-specification:'Singapore Road Signs';text-align:center;text-anchor:middle;stroke-width:0.159861" transform="matrix(1.6550836,0,0,1.6550836,-321.31659,-238.56049)"/>
    <path d="M 367.365 43.07 Q 367.418 43.07 367.453 43.11 Q 367.488 43.149 367.471 43.202 Q 367.102 44.995 365.836 45.962 Q 365.221 46.428 364.5 46.665 Q 363.779 46.902 362.944 46.902 Q 361.424 46.902 360.387 46.173 Q 359.367 45.452 358.91 44.591 Q 358.752 44.292 358.638 43.989 Q 358.523 43.685 358.462 43.351 Q 358.348 42.701 358.348 40.398 Q 358.348 39.247 358.374 38.517 Q 358.4 37.788 358.462 37.454 Q 358.523 37.12 358.638 36.812 Q 358.752 36.505 358.91 36.206 Q 359.367 35.353 360.387 34.624 Q 361.415 33.886 362.944 33.886 Q 364.772 33.886 365.968 35.011 Q 367.181 36.144 367.471 37.7 Q 367.488 37.753 367.453 37.788 Q 367.418 37.823 367.365 37.823 L 365.353 37.823 Q 365.273 37.823 365.256 37.753 Q 365.142 37.401 364.931 37.098 Q 364.72 36.795 364.412 36.531 Q 363.832 36.013 362.944 36.013 Q 362.285 36.013 361.819 36.276 Q 361.354 36.54 361.072 36.883 Q 360.905 37.094 360.782 37.362 Q 360.659 37.63 360.589 37.911 Q 360.519 38.21 360.492 38.834 Q 360.466 39.458 360.466 40.398 Q 360.466 41.356 360.492 41.976 Q 360.519 42.596 360.589 42.894 Q 360.659 43.167 360.787 43.435 Q 360.914 43.703 361.072 43.905 Q 361.354 44.274 361.819 44.534 Q 362.285 44.793 362.944 44.793 Q 364.465 44.793 365.256 43.132 Q 365.273 43.114 365.3 43.092 Q 365.326 43.07 365.353 43.07 Z M 375.785 46.797 Q 375.679 46.797 375.679 46.691 L 375.679 41.295 L 370.889 41.295 L 370.889 46.691 Q 370.889 46.797 370.784 46.797 L 368.877 46.797 Q 368.771 46.797 368.771 46.691 L 368.771 34.097 Q 368.771 33.991 368.877 33.991 L 370.784 33.991 Q 370.889 33.991 370.889 34.097 L 370.889 39.388 L 375.679 39.388 L 375.679 34.097 Q 375.679 33.991 375.785 33.991 L 377.692 33.991 Q 377.798 33.991 377.798 34.097 L 377.798 46.691 Q 377.798 46.797 377.692 46.797 Z M 382.128 40.398 Q 382.128 41.356 382.155 41.976 Q 382.181 42.596 382.251 42.894 Q 382.322 43.167 382.449 43.435 Q 382.577 43.703 382.735 43.905 Q 383.016 44.274 383.482 44.534 Q 383.948 44.793 384.607 44.793 Q 385.257 44.793 385.723 44.534 Q 386.189 44.274 386.461 43.905 Q 386.831 43.457 386.945 42.894 Q 387.085 42.332 387.085 40.398 Q 387.085 39.44 387.05 38.821 Q 387.015 38.201 386.945 37.911 Q 386.883 37.63 386.76 37.362 Q 386.637 37.094 386.47 36.883 Q 386.338 36.716 386.149 36.558 Q 385.96 36.399 385.723 36.281 Q 385.486 36.162 385.205 36.087 Q 384.923 36.013 384.607 36.013 Q 383.948 36.013 383.482 36.276 Q 383.016 36.54 382.735 36.883 Q 382.568 37.094 382.445 37.362 Q 382.322 37.63 382.251 37.911 Q 382.181 38.21 382.155 38.834 Q 382.128 39.458 382.128 40.398 Z M 389.292 32.339 Q 389.362 32.4 389.423 32.462 Q 390.003 33.068 390.021 34.044 Q 390.056 35.23 388.958 35.977 Q 388.782 36.057 388.597 36.127 Q 388.615 36.162 388.641 36.206 Q 388.966 36.804 389.081 37.454 Q 389.142 37.788 389.173 38.517 Q 389.204 39.247 389.204 40.398 Q 389.204 42.657 389.081 43.351 Q 389.019 43.694 388.909 44.002 Q 388.799 44.309 388.65 44.591 Q 388.184 45.434 387.147 46.173 Q 386.11 46.902 384.607 46.902 Q 383.086 46.902 382.049 46.173 Q 381.03 45.452 380.573 44.591 L 380.582 44.591 Q 380.415 44.292 380.3 43.989 Q 380.186 43.685 380.125 43.351 Q 380.072 43.017 380.041 42.284 Q 380.01 41.55 380.01 40.398 Q 380.01 39.247 380.041 38.517 Q 380.072 37.788 380.125 37.454 Q 380.186 37.12 380.3 36.812 Q 380.415 36.505 380.582 36.206 L 380.573 36.206 Q 381.03 35.353 382.049 34.624 Q 383.078 33.886 384.607 33.886 Q 386.119 33.886 387.147 34.624 Q 387.534 34.905 387.841 35.195 Q 388.755 34.861 388.782 34.079 Q 388.773 33.481 388.404 33.226 Z M 391.516 46.797 Q 391.41 46.797 391.41 46.691 L 391.41 34.097 Q 391.41 33.991 391.516 33.991 L 393.326 33.991 Q 393.379 33.991 393.414 34.044 L 398.951 42.763 L 398.951 34.097 Q 398.951 33.991 399.057 33.991 L 400.973 33.991 Q 401.078 33.991 401.078 34.097 L 401.078 46.691 Q 401.078 46.797 400.973 46.797 L 399.171 46.797 Q 399.118 46.797 399.083 46.744 L 393.528 38.025 L 393.528 46.691 Q 393.528 46.797 393.432 46.797 Z M 410.307 46.797 Q 410.202 46.797 410.202 46.691 L 410.202 35.898 L 406.853 35.898 Q 406.748 35.898 406.748 35.793 L 406.748 34.097 Q 406.748 33.991 406.853 33.991 L 415.66 33.991 Q 415.765 33.991 415.765 34.097 L 415.765 35.793 Q 415.765 35.898 415.66 35.898 L 412.32 35.898 L 412.32 46.691 Q 412.32 46.797 412.215 46.797 Z M 424.061 46.797 Q 423.956 46.797 423.956 46.691 L 423.956 41.295 L 419.165 41.295 L 419.165 46.691 Q 419.165 46.797 419.06 46.797 L 417.153 46.797 Q 417.047 46.797 417.047 46.691 L 417.047 34.097 Q 417.047 33.991 417.153 33.991 L 419.06 33.991 Q 419.165 33.991 419.165 34.097 L 419.165 39.388 L 423.956 39.388 L 423.956 34.097 Q 423.956 33.991 424.061 33.991 L 425.968 33.991 Q 426.074 33.991 426.074 34.097 L 426.074 46.691 Q 426.074 46.797 425.968 46.797 Z M 427.578 46.788 Q 427.516 46.788 427.49 46.744 Q 427.463 46.7 427.481 46.647 L 432.086 34.044 Q 432.104 33.974 432.174 33.974 L 433.747 33.974 Q 433.774 33.974 433.805 33.996 Q 433.835 34.017 433.844 34.044 L 438.441 46.647 Q 438.458 46.7 438.432 46.744 Q 438.406 46.788 438.353 46.788 L 436.34 46.788 Q 436.27 46.788 436.252 46.718 L 435.303 43.94 L 430.663 43.94 Q 430.416 44.652 430.175 45.333 Q 429.933 46.015 429.687 46.718 Q 429.678 46.744 429.647 46.766 Q 429.617 46.788 429.59 46.788 Z M 434.67 42.051 Q 434.653 41.989 434.622 41.919 Q 434.591 41.849 434.574 41.796 Q 434.424 41.365 434.301 41 Q 434.178 40.636 434.081 40.363 Q 434.02 40.187 433.963 40.02 Q 433.906 39.853 433.853 39.704 Q 433.809 39.563 433.765 39.436 Q 433.721 39.309 433.677 39.185 Q 433.598 38.931 433.515 38.676 Q 433.431 38.421 433.343 38.148 Q 433.299 38.025 433.251 37.876 Q 433.203 37.726 433.15 37.559 Q 433.123 37.472 433.11 37.423 Q 433.097 37.375 433.08 37.327 Q 433.062 37.278 433.04 37.217 Q 433.018 37.155 432.983 37.041 Q 432.886 37.331 432.803 37.577 Q 432.719 37.823 432.649 38.034 Q 432.631 38.087 432.622 38.131 Q 432.614 38.175 432.596 38.219 Q 432.552 38.368 432.504 38.5 Q 432.456 38.632 432.412 38.764 Q 432.368 38.904 432.324 39.036 Q 432.28 39.168 432.236 39.291 Q 432.148 39.555 432.056 39.845 Q 431.963 40.135 431.849 40.451 Q 431.735 40.767 431.612 41.132 Q 431.489 41.497 431.295 42.051 Z M 433.51 32.857 Q 433.493 32.857 433.466 32.844 Q 433.44 32.831 433.431 32.822 L 431.005 30.256 Q 430.953 30.203 430.983 30.142 Q 431.014 30.08 431.084 30.08 L 433.018 30.08 Q 433.071 30.08 433.106 30.133 L 434.943 32.699 Q 434.969 32.761 434.947 32.809 Q 434.925 32.857 434.855 32.857 Z M 440.03 46.797 Q 439.925 46.797 439.925 46.691 L 439.925 34.097 Q 439.925 33.991 440.03 33.991 L 441.841 33.991 Q 441.894 33.991 441.929 34.044 L 447.466 42.763 L 447.466 34.097 Q 447.466 33.991 447.572 33.991 L 449.488 33.991 Q 449.593 33.991 449.593 34.097 L 449.593 46.691 Q 449.593 46.797 449.488 46.797 L 447.686 46.797 Q 447.633 46.797 447.598 46.744 L 442.043 38.025 L 442.043 46.691 Q 442.043 46.797 441.947 46.797 Z M 459.243 46.797 Q 459.138 46.797 459.138 46.691 L 459.138 41.295 L 454.348 41.295 L 454.348 46.691 Q 454.348 46.797 454.242 46.797 L 452.335 46.797 Q 452.23 46.797 452.23 46.691 L 452.23 34.097 Q 452.23 33.991 452.335 33.991 L 454.242 33.991 Q 454.348 33.991 454.348 34.097 L 454.348 39.388 L 459.138 39.388 L 459.138 34.097 Q 459.138 33.991 459.243 33.991 L 461.151 33.991 Q 461.256 33.991 461.256 34.097 L 461.256 46.691 Q 461.256 46.797 461.151 46.797 Z" transform="matrix(1.310387, 0, 0, 1.310387, -59.698296, -1.169035)" style="fill: rgb(255, 255, 255);"/>
    <path transform="matrix(1.310387, 0, 0, 1.310387, -59.698296, -1.169035)" style="fill: rgb(255, 255, 255);"/>
    <path d="M 375.737 72.357 Q 375.64 72.357 375.64 72.251 L 375.64 66.837 L 374.717 66.837 Q 374.62 66.837 374.62 66.741 L 374.62 64.93 Q 374.62 64.825 374.717 64.825 L 375.64 64.825 L 375.64 59.657 Q 375.64 59.551 375.737 59.551 L 380.149 59.551 Q 382.777 59.551 384.077 61.722 Q 384.315 62.144 384.464 62.522 Q 384.614 62.9 384.658 63.26 Q 384.763 63.963 384.763 65.958 Q 384.763 67.031 384.728 67.747 Q 384.693 68.463 384.622 68.824 Q 384.552 69.193 384.407 69.54 Q 384.262 69.887 384.042 70.23 L 384.042 70.221 Q 383.453 71.126 382.46 71.742 Q 381.432 72.357 380.026 72.357 Z M 377.758 61.573 L 377.758 64.825 L 380.052 64.825 Q 380.158 64.825 380.158 64.93 L 380.158 66.741 Q 380.158 66.837 380.052 66.837 L 377.758 66.837 L 377.758 70.353 L 379.938 70.353 Q 381.449 70.353 382.188 69.298 Q 382.495 68.832 382.557 68.323 Q 382.601 68.041 382.623 67.474 Q 382.645 66.908 382.645 66.029 Q 382.645 65.176 382.623 64.605 Q 382.601 64.034 382.557 63.7 Q 382.46 63.076 382.1 62.583 Q 381.353 61.573 379.938 61.573 Z M 396.83 57.925 Q 396.883 57.969 396.936 58.022 Q 397.516 58.628 397.533 59.604 Q 397.568 60.79 396.47 61.537 Q 396.013 61.748 395.477 61.845 L 395.477 67.989 Q 395.477 70.01 394.132 71.241 Q 392.805 72.462 390.897 72.462 Q 388.981 72.462 387.645 71.241 Q 386.31 70.01 386.31 67.989 L 386.31 59.657 Q 386.31 59.551 386.415 59.551 L 388.331 59.551 Q 388.428 59.551 388.428 59.657 L 388.428 67.778 Q 388.428 69.043 389.131 69.694 Q 389.843 70.353 390.897 70.353 Q 391.935 70.353 392.646 69.694 Q 393.358 69.035 393.358 67.778 L 393.358 59.657 Q 393.358 59.551 393.464 59.551 L 395.371 59.551 Q 395.477 59.551 395.477 59.657 L 395.477 60.702 Q 396.276 60.36 396.294 59.639 Q 396.285 59.059 395.951 58.804 Z M 389.438 58.417 Q 389.368 58.417 389.346 58.369 Q 389.324 58.321 389.351 58.259 L 391.187 55.693 Q 391.223 55.64 391.275 55.64 L 393.209 55.64 Q 393.279 55.64 393.31 55.702 Q 393.341 55.763 393.288 55.816 L 390.862 58.382 Q 390.853 58.391 390.827 58.404 Q 390.801 58.417 390.783 58.417 Z M 407.446 68.63 Q 407.499 68.63 407.534 68.67 Q 407.569 68.709 407.551 68.762 Q 407.182 70.555 405.916 71.522 Q 405.301 71.988 404.581 72.225 Q 403.86 72.462 403.025 72.462 Q 401.504 72.462 400.467 71.733 Q 399.448 71.012 398.991 70.151 Q 398.832 69.852 398.718 69.549 Q 398.604 69.245 398.542 68.911 Q 398.428 68.261 398.428 65.958 Q 398.428 64.807 398.455 64.077 Q 398.481 63.348 398.542 63.014 Q 398.604 62.68 398.718 62.372 Q 398.832 62.065 398.991 61.766 Q 399.448 60.913 400.467 60.184 Q 401.496 59.446 403.025 59.446 Q 404.853 59.446 406.048 60.571 Q 407.261 61.704 407.551 63.26 Q 407.569 63.313 407.534 63.348 Q 407.499 63.383 407.446 63.383 L 405.433 63.383 Q 405.354 63.383 405.336 63.313 Q 405.222 62.961 405.011 62.658 Q 404.8 62.355 404.493 62.091 Q 403.913 61.573 403.025 61.573 Q 402.366 61.573 401.9 61.836 Q 401.434 62.1 401.153 62.443 Q 400.986 62.654 400.863 62.922 Q 400.74 63.19 400.669 63.471 Q 400.599 63.77 400.573 64.394 Q 400.546 65.018 400.546 65.958 Q 400.546 66.916 400.573 67.536 Q 400.599 68.156 400.669 68.454 Q 400.74 68.727 400.867 68.995 Q 400.995 69.263 401.153 69.465 Q 401.434 69.834 401.9 70.094 Q 402.366 70.353 403.025 70.353 Q 404.545 70.353 405.336 68.692 Q 405.354 68.674 405.38 68.652 Q 405.407 68.63 405.433 68.63 Z M 420.182 72.357 Q 420.076 72.357 420.076 72.251 L 420.076 66.855 L 415.286 66.855 L 415.286 72.251 Q 415.286 72.357 415.181 72.357 L 413.273 72.357 Q 413.168 72.357 413.168 72.251 L 413.168 59.657 Q 413.168 59.551 413.273 59.551 L 415.181 59.551 Q 415.286 59.551 415.286 59.657 L 415.286 64.948 L 420.076 64.948 L 420.076 59.657 Q 420.076 59.551 420.182 59.551 L 422.089 59.551 Q 422.194 59.551 422.194 59.657 L 422.194 72.251 Q 422.194 72.357 422.089 72.357 Z M 424.41 65.958 Q 424.41 64.807 424.441 64.077 Q 424.472 63.348 424.524 63.014 Q 424.586 62.68 424.7 62.372 Q 424.814 62.065 424.981 61.766 L 424.973 61.766 Q 425.43 60.913 426.449 60.184 Q 427.477 59.446 429.007 59.446 Q 430.518 59.446 431.547 60.184 Q 432.584 60.931 433.041 61.766 Q 433.366 62.364 433.48 63.014 Q 433.542 63.348 433.573 64.077 Q 433.603 64.807 433.603 65.958 Q 433.603 68.217 433.48 68.911 Q 433.419 69.254 433.309 69.562 Q 433.199 69.869 433.05 70.151 Q 432.584 70.994 431.547 71.733 Q 430.51 72.462 429.007 72.462 Q 427.486 72.462 426.449 71.733 Q 425.43 71.012 424.973 70.151 L 424.981 70.151 Q 424.814 69.852 424.7 69.549 Q 424.586 69.245 424.524 68.911 Q 424.472 68.577 424.441 67.844 Q 424.41 67.11 424.41 65.958 Z M 426.528 65.958 Q 426.528 66.916 426.555 67.536 Q 426.581 68.156 426.651 68.454 Q 426.722 68.727 426.849 68.995 Q 426.976 69.263 427.135 69.465 Q 427.416 69.834 427.882 70.094 Q 428.348 70.353 429.007 70.353 Q 429.657 70.353 430.123 70.094 Q 430.589 69.834 430.861 69.465 Q 431.23 69.017 431.345 68.454 Q 431.485 67.892 431.485 65.958 Q 431.485 65 431.45 64.381 Q 431.415 63.761 431.345 63.471 Q 431.283 63.19 431.16 62.922 Q 431.037 62.654 430.87 62.443 Q 430.738 62.276 430.549 62.118 Q 430.36 61.959 430.123 61.841 Q 429.886 61.722 429.604 61.647 Q 429.323 61.573 429.007 61.573 Q 428.348 61.573 427.882 61.836 Q 427.416 62.1 427.135 62.443 Q 426.968 62.654 426.845 62.922 Q 426.722 63.19 426.651 63.471 Q 426.581 63.77 426.555 64.394 Q 426.528 65.018 426.528 65.958 Z M 434.673 72.348 Q 434.611 72.348 434.585 72.304 Q 434.559 72.26 434.576 72.207 L 439.182 59.604 Q 439.199 59.534 439.27 59.534 L 440.843 59.534 Q 440.869 59.534 440.9 59.556 Q 440.931 59.577 440.94 59.604 L 445.536 72.207 Q 445.554 72.26 445.527 72.304 Q 445.501 72.348 445.448 72.348 L 443.436 72.348 Q 443.365 72.348 443.348 72.278 L 442.399 69.5 L 437.758 69.5 Q 437.512 70.212 437.27 70.893 Q 437.028 71.575 436.782 72.278 Q 436.774 72.304 436.743 72.326 Q 436.712 72.348 436.686 72.348 Z M 441.766 67.611 Q 441.748 67.549 441.717 67.479 Q 441.687 67.409 441.669 67.356 Q 441.52 66.925 441.397 66.56 Q 441.274 66.196 441.177 65.923 Q 441.115 65.747 441.058 65.58 Q 441.001 65.413 440.948 65.264 Q 440.904 65.123 440.861 64.996 Q 440.817 64.869 440.773 64.745 Q 440.694 64.491 440.61 64.236 Q 440.527 63.981 440.439 63.708 Q 440.395 63.585 440.346 63.436 Q 440.298 63.286 440.245 63.119 Q 440.219 63.032 440.206 62.983 Q 440.193 62.935 440.175 62.887 Q 440.157 62.838 440.135 62.777 Q 440.113 62.715 440.078 62.601 Q 439.982 62.891 439.898 63.137 Q 439.815 63.383 439.744 63.594 Q 439.727 63.647 439.718 63.691 Q 439.709 63.735 439.692 63.779 Q 439.648 63.928 439.599 64.06 Q 439.551 64.192 439.507 64.324 Q 439.463 64.464 439.419 64.596 Q 439.375 64.728 439.331 64.851 Q 439.243 65.115 439.151 65.405 Q 439.059 65.695 438.944 66.011 Q 438.83 66.327 438.707 66.692 Q 438.584 67.057 438.391 67.611 Z M 440.606 58.417 Q 440.588 58.417 440.562 58.404 Q 440.535 58.391 440.527 58.382 L 438.101 55.816 Q 438.048 55.763 438.079 55.702 Q 438.11 55.64 438.18 55.64 L 440.113 55.64 Q 440.166 55.64 440.201 55.693 L 442.038 58.259 Q 442.065 58.321 442.043 58.369 Q 442.021 58.417 441.95 58.417 Z" transform="matrix(1.310387, 0, 0, 1.310387, -59.698296, -1.169035)" style="fill: rgb(255, 255, 255);"/>
    <path d="M 426.152 119.118 Q 426.045 119.118 426.045 119.011 L 426.045 106.277 Q 426.045 106.17 426.152 106.17 L 434.292 106.17 Q 434.399 106.17 434.399 106.277 L 434.399 108.107 Q 434.399 108.214 434.292 108.214 L 428.187 108.214 L 428.187 111.626 L 433.377 111.626 Q 433.484 111.626 433.484 111.733 L 433.484 113.457 Q 433.484 113.555 433.377 113.555 L 428.187 113.555 L 428.187 117.092 L 434.292 117.092 Q 434.399 117.092 434.399 117.198 L 434.399 119.011 Q 434.399 119.118 434.292 119.118 Z M 442.572 119.118 Q 442.519 119.118 442.483 119.065 L 439.781 114.479 Q 439.106 115.634 438.431 116.772 Q 437.755 117.909 437.08 119.065 Q 437.044 119.118 436.991 119.118 L 434.814 119.118 Q 434.743 119.118 434.716 119.069 Q 434.689 119.02 434.725 118.958 L 438.591 112.48 Q 437.675 110.933 436.778 109.405 Q 435.88 107.876 434.974 106.33 Q 434.938 106.268 434.965 106.219 Q 434.992 106.17 435.054 106.17 L 437.24 106.17 Q 437.293 106.17 437.329 106.223 L 439.781 110.489 Q 440.395 109.422 441.008 108.361 Q 441.621 107.299 442.234 106.223 Q 442.27 106.17 442.323 106.17 L 444.509 106.17 Q 444.571 106.17 444.598 106.219 Q 444.625 106.268 444.589 106.33 L 440.972 112.48 Q 441.95 114.106 442.91 115.719 Q 443.869 117.332 444.847 118.958 Q 444.882 119.02 444.856 119.069 Q 444.829 119.118 444.758 119.118 Z M 448.149 108.214 L 448.149 112.106 L 450.913 112.106 Q 451.935 112.106 452.433 111.493 Q 452.939 110.898 452.939 110.16 Q 452.939 109.058 452.157 108.552 Q 451.65 108.214 450.842 108.214 Z M 446.114 119.118 Q 446.007 119.118 446.007 119.011 L 446.007 106.277 Q 446.007 106.17 446.114 106.17 L 450.735 106.17 Q 451.499 106.17 452.184 106.33 Q 452.877 106.49 453.659 107.094 Q 453.961 107.334 454.214 107.65 Q 454.468 107.965 454.672 108.347 Q 454.867 108.738 454.974 109.209 Q 455.081 109.68 455.081 110.213 Q 455.081 111.609 454.032 112.879 Q 452.983 114.141 450.984 114.141 L 448.149 114.141 L 448.149 119.011 Q 448.149 119.118 448.042 119.118 Z M 458.768 108.098 L 458.768 111.751 L 461.585 111.751 Q 462.616 111.751 463.131 111.182 Q 463.647 110.613 463.647 109.831 Q 463.647 109.387 463.491 109.04 Q 463.336 108.694 463.042 108.472 Q 462.785 108.294 462.442 108.196 Q 462.1 108.098 461.7 108.098 Z M 456.733 119.118 Q 456.626 119.118 456.626 119.011 L 456.626 106.277 Q 456.626 106.17 456.733 106.17 L 461.718 106.17 Q 462.545 106.17 463.211 106.397 Q 463.878 106.623 464.375 107.041 Q 464.633 107.281 464.869 107.587 Q 465.104 107.894 465.286 108.249 Q 465.468 108.605 465.575 109.005 Q 465.682 109.405 465.682 109.831 Q 465.682 110.462 465.504 111.027 Q 465.326 111.591 465.006 112.08 Q 464.677 112.533 464.242 112.875 Q 463.807 113.217 463.256 113.422 Q 463.975 114.799 464.704 116.19 Q 465.433 117.58 466.153 118.958 Q 466.179 119.02 466.153 119.069 Q 466.126 119.118 466.064 119.118 L 463.771 119.118 Q 463.744 119.118 463.718 119.096 Q 463.691 119.073 463.673 119.056 L 461.069 113.679 L 458.768 113.679 L 458.768 119.011 Q 458.768 119.118 458.661 119.118 Z M 467.66 119.118 Q 467.554 119.118 467.554 119.011 L 467.554 106.277 Q 467.554 106.17 467.66 106.17 L 475.801 106.17 Q 475.907 106.17 475.907 106.277 L 475.907 108.107 Q 475.907 108.214 475.801 108.214 L 469.695 108.214 L 469.695 111.626 L 474.885 111.626 Q 474.992 111.626 474.992 111.733 L 474.992 113.457 Q 474.992 113.555 474.885 113.555 L 469.695 113.555 L 469.695 117.092 L 475.801 117.092 Q 475.907 117.092 475.907 117.198 L 475.907 119.011 Q 475.907 119.118 475.801 119.118 Z M 477.682 115.848 Q 477.708 115.812 477.753 115.812 Q 477.797 115.812 477.833 115.839 Q 478.535 116.407 479.446 116.75 Q 480.357 117.092 481.37 117.092 Q 482.507 117.092 483.165 116.621 Q 483.787 116.168 483.787 115.421 Q 483.787 114.017 482.214 113.804 L 482.223 113.804 Q 482.001 113.777 481.801 113.75 Q 481.601 113.724 481.401 113.697 Q 481.201 113.67 480.992 113.639 Q 480.783 113.608 480.534 113.573 Q 479.699 113.457 479.046 113.15 Q 478.393 112.844 477.948 112.337 Q 477.504 111.822 477.282 111.213 Q 477.06 110.604 477.06 109.885 Q 477.06 108.196 478.179 107.139 Q 479.308 106.063 481.316 106.063 Q 481.912 106.063 482.476 106.166 Q 483.04 106.268 483.569 106.445 Q 484.098 106.623 484.582 106.868 Q 485.067 107.112 485.511 107.405 Q 485.6 107.467 485.538 107.556 L 484.462 109.147 Q 484.4 109.227 484.32 109.174 Q 483.627 108.738 482.845 108.476 Q 482.063 108.214 481.228 108.214 Q 480.801 108.214 480.437 108.316 Q 480.072 108.418 479.779 108.649 Q 479.201 109.067 479.201 109.92 Q 479.201 110.409 479.592 110.871 Q 479.788 111.084 480.117 111.231 Q 480.445 111.378 480.925 111.449 Q 481.183 111.493 481.53 111.542 Q 481.876 111.591 482.347 111.644 Q 484.169 111.866 485.049 112.986 Q 485.929 114.079 485.929 115.421 Q 485.929 117.216 484.676 118.229 Q 483.414 119.225 481.352 119.225 Q 478.446 119.225 476.411 117.447 Q 476.375 117.421 476.375 117.376 Q 476.375 117.332 476.402 117.296 Z M 487.952 115.848 Q 487.978 115.812 488.023 115.812 Q 488.067 115.812 488.103 115.839 Q 488.805 116.407 489.716 116.75 Q 490.627 117.092 491.64 117.092 Q 492.777 117.092 493.435 116.621 Q 494.057 116.168 494.057 115.421 Q 494.057 114.017 492.484 113.804 L 492.493 113.804 Q 492.271 113.777 492.071 113.75 Q 491.871 113.724 491.671 113.697 Q 491.471 113.67 491.262 113.639 Q 491.053 113.608 490.804 113.573 Q 489.969 113.457 489.316 113.15 Q 488.663 112.844 488.218 112.337 Q 487.774 111.822 487.552 111.213 Q 487.33 110.604 487.33 109.885 Q 487.33 108.196 488.449 107.139 Q 489.578 106.063 491.586 106.063 Q 492.182 106.063 492.746 106.166 Q 493.311 106.268 493.839 106.445 Q 494.368 106.623 494.852 106.868 Q 495.337 107.112 495.781 107.405 Q 495.87 107.467 495.808 107.556 L 494.732 109.147 Q 494.67 109.227 494.59 109.174 Q 493.897 108.738 493.115 108.476 Q 492.333 108.214 491.498 108.214 Q 491.071 108.214 490.707 108.316 Q 490.342 108.418 490.049 108.649 Q 489.471 109.067 489.471 109.92 Q 489.471 110.409 489.862 110.871 Q 490.058 111.084 490.387 111.231 Q 490.716 111.378 491.195 111.449 Q 491.453 111.493 491.8 111.542 Q 492.146 111.591 492.617 111.644 Q 494.439 111.866 495.319 112.986 Q 496.199 114.079 496.199 115.421 Q 496.199 117.216 494.946 118.229 Q 493.684 119.225 491.622 119.225 Q 488.716 119.225 486.681 117.447 Q 486.645 117.421 486.645 117.376 Q 486.645 117.332 486.672 117.296 Z M 500.204 119.118 Q 500.115 119.118 500.097 119.038 L 496.907 106.303 Q 496.889 106.25 496.924 106.21 Q 496.96 106.17 497.013 106.17 L 499.057 106.17 Q 499.146 106.17 499.164 106.25 L 501.083 114.95 Q 501.67 112.764 502.265 110.604 Q 502.861 108.445 503.456 106.25 Q 503.474 106.17 503.563 106.17 L 504.958 106.17 Q 505.038 106.17 505.056 106.25 L 507.437 114.95 Q 507.917 112.764 508.397 110.604 Q 508.877 108.445 509.357 106.25 Q 509.375 106.17 509.464 106.17 L 511.508 106.17 Q 511.561 106.17 511.596 106.21 Q 511.632 106.25 511.614 106.303 L 508.424 119.038 Q 508.406 119.118 508.317 119.118 L 506.709 119.118 Q 506.629 119.118 506.611 119.038 L 504.256 110.196 Q 503.669 112.426 503.083 114.621 Q 502.496 116.816 501.91 119.038 Q 501.892 119.118 501.812 119.118 Z M 511.528 119.109 Q 511.466 119.109 511.439 119.065 Q 511.412 119.02 511.43 118.967 L 516.087 106.223 Q 516.104 106.152 516.175 106.152 L 517.766 106.152 Q 517.793 106.152 517.824 106.174 Q 517.855 106.197 517.864 106.223 L 522.512 118.967 Q 522.529 119.02 522.503 119.065 Q 522.476 119.109 522.423 119.109 L 520.388 119.109 Q 520.317 119.109 520.299 119.038 L 519.339 116.23 L 514.647 116.23 Q 514.398 116.95 514.154 117.638 Q 513.909 118.327 513.661 119.038 Q 513.652 119.065 513.621 119.087 Q 513.589 119.109 513.563 119.109 Z M 518.699 114.319 Q 518.682 114.257 518.65 114.186 Q 518.619 114.115 518.602 114.061 Q 518.45 113.626 518.326 113.257 Q 518.202 112.888 518.104 112.613 Q 518.042 112.435 517.984 112.266 Q 517.926 112.097 517.873 111.946 Q 517.828 111.804 517.784 111.675 Q 517.74 111.546 517.695 111.422 Q 517.615 111.164 517.531 110.907 Q 517.446 110.649 517.357 110.373 Q 517.313 110.249 517.264 110.098 Q 517.215 109.947 517.162 109.778 Q 517.135 109.689 517.122 109.64 Q 517.109 109.591 517.091 109.542 Q 517.073 109.494 517.051 109.431 Q 517.029 109.369 516.993 109.254 Q 516.895 109.547 516.811 109.796 Q 516.726 110.045 516.655 110.258 Q 516.638 110.311 516.629 110.356 Q 516.62 110.4 516.602 110.444 Q 516.558 110.596 516.509 110.729 Q 516.46 110.862 516.415 110.995 Q 516.371 111.138 516.327 111.271 Q 516.282 111.404 516.238 111.529 Q 516.149 111.795 516.056 112.089 Q 515.962 112.382 515.847 112.702 Q 515.731 113.022 515.607 113.39 Q 515.482 113.759 515.287 114.319 Z M 525.493 119.118 Q 525.395 119.118 525.395 119.011 L 525.395 113.804 Q 524.435 111.929 523.484 110.062 Q 522.533 108.196 521.582 106.321 Q 521.556 106.259 521.582 106.214 Q 521.609 106.17 521.68 106.17 L 523.706 106.17 Q 523.733 106.17 523.76 106.192 Q 523.786 106.214 523.804 106.232 L 526.417 111.689 Q 527.074 110.311 527.719 108.96 Q 528.363 107.61 529.021 106.232 Q 529.038 106.214 529.065 106.192 Q 529.092 106.17 529.118 106.17 L 531.153 106.17 Q 531.224 106.17 531.251 106.214 Q 531.278 106.259 531.251 106.321 L 527.43 113.804 L 527.43 119.011 Q 527.43 119.118 527.323 119.118 Z" style="fill: rgb(255, 255, 255);"/>
    <path d="M 396.969 190.631 L 396.969 170.109 L 393.522 172.672 L 393.522 169.014 L 396.969 166.486 L 400.398 166.486 L 400.398 190.631 Z M 408.749 190.856 Q 404.949 190.131 404.33 186.401 Q 404.33 182.53 404.33 178.642 Q 404.33 174.753 404.33 170.847 Q 404.808 168.019 406.832 167.038 Q 408.855 166.057 411.454 166.64 Q 412.762 167.435 413.557 168.319 Q 414.353 169.203 414.653 170.847 Q 414.653 174.753 414.653 178.624 Q 414.653 182.495 414.653 186.331 Q 414.14 189.848 410.888 190.82 Q 410.482 190.82 410.208 190.838 Q 409.934 190.856 408.749 190.856 Z M 409.103 187.374 Q 410.694 187.374 411.136 185.977 Q 411.136 182.318 411.136 178.677 Q 411.136 175.036 411.136 171.377 Q 410.923 170.723 410.658 170.299 Q 409.615 169.503 408.891 169.954 Q 408.166 170.405 407.848 171.377 Q 407.848 175.001 407.848 178.642 Q 407.848 182.283 407.848 185.906 Q 408.06 187.02 409.103 187.374 Z M 422.246 190.856 Q 418.445 190.131 417.827 186.401 Q 417.827 182.53 417.827 178.642 Q 417.827 174.753 417.827 170.847 Q 418.304 168.019 420.328 167.038 Q 422.352 166.057 424.95 166.64 Q 426.258 167.435 427.054 168.319 Q 427.849 169.203 428.149 170.847 Q 428.149 174.753 428.149 178.624 Q 428.149 182.495 428.149 186.331 Q 427.637 189.848 424.385 190.82 Q 423.978 190.82 423.704 190.838 Q 423.43 190.856 422.246 190.856 Z M 422.599 187.374 Q 424.19 187.374 424.632 185.977 Q 424.632 182.318 424.632 178.677 Q 424.632 175.036 424.632 171.377 Q 424.42 170.723 424.155 170.299 Q 423.112 169.503 422.387 169.954 Q 421.662 170.405 421.344 171.377 Q 421.344 175.001 421.344 178.642 Q 421.344 182.283 421.344 185.906 Q 421.556 187.02 422.599 187.374 Z"/>
    <path d="M 341.369 84.558 Q 341.441 84.558 341.489 84.612 Q 341.537 84.666 341.513 84.738 Q 341.009 87.189 339.279 88.51 Q 338.438 89.147 337.453 89.471 Q 336.468 89.795 335.327 89.795 Q 333.249 89.795 331.832 88.798 Q 330.438 87.813 329.814 86.636 Q 329.598 86.228 329.441 85.813 Q 329.285 85.399 329.201 84.942 Q 329.045 84.054 329.045 80.906 Q 329.045 79.333 329.081 78.336 Q 329.117 77.339 329.201 76.883 Q 329.285 76.426 329.441 76.006 Q 329.598 75.585 329.814 75.177 Q 330.438 74.012 331.832 73.015 Q 333.237 72.006 335.327 72.006 Q 337.826 72.006 339.459 73.543 Q 341.117 75.093 341.513 77.219 Q 341.537 77.291 341.489 77.339 Q 341.441 77.387 341.369 77.387 L 338.618 77.387 Q 338.51 77.387 338.486 77.291 Q 338.33 76.81 338.042 76.396 Q 337.754 75.982 337.333 75.621 Q 336.54 74.913 335.327 74.913 Q 334.426 74.913 333.79 75.273 Q 333.153 75.633 332.769 76.102 Q 332.54 76.39 332.372 76.756 Q 332.204 77.123 332.108 77.507 Q 332.012 77.916 331.976 78.768 Q 331.94 79.621 331.94 80.906 Q 331.94 82.216 331.976 83.063 Q 332.012 83.909 332.108 84.318 Q 332.204 84.69 332.378 85.057 Q 332.552 85.423 332.769 85.699 Q 333.153 86.204 333.79 86.558 Q 334.426 86.912 335.327 86.912 Q 337.405 86.912 338.486 84.642 Q 338.51 84.618 338.546 84.588 Q 338.582 84.558 338.618 84.558 Z M 346.397 89.651 Q 346.253 89.651 346.253 89.507 L 346.253 74.756 L 341.677 74.756 Q 341.532 74.756 341.532 74.612 L 341.532 72.294 Q 341.532 72.15 341.677 72.15 L 353.712 72.15 Q 353.856 72.15 353.856 72.294 L 353.856 74.612 Q 353.856 74.756 353.712 74.756 L 349.148 74.756 L 349.148 89.507 Q 349.148 89.651 349.004 89.651 Z M 354.225 89.651 Q 354.081 89.651 354.081 89.507 L 354.081 87.068 Q 354.081 86.924 354.225 86.924 L 356.676 86.924 Q 356.808 86.924 356.808 87.068 L 356.808 89.507 Q 356.808 89.651 356.676 89.651 Z M 365.17 77.327 Q 365.17 76.162 364.552 75.507 Q 363.933 74.853 362.9 74.853 Q 361.867 74.853 361.255 75.507 Q 360.642 76.162 360.642 77.327 L 360.642 84.594 Q 360.642 85.771 361.255 86.42 Q 361.867 87.068 362.9 87.068 Q 363.933 87.068 364.552 86.42 Q 365.17 85.771 365.17 84.594 Z M 357.903 77.183 Q 357.903 74.756 359.429 73.447 Q 360.942 72.114 362.9 72.114 Q 363.873 72.114 364.744 72.456 Q 365.615 72.799 366.372 73.447 Q 367.128 74.12 367.519 75.051 Q 367.909 75.982 367.909 77.183 L 367.909 84.738 Q 367.909 87.153 366.372 88.474 Q 364.858 89.795 362.9 89.795 Q 360.942 89.795 359.429 88.474 Q 357.903 87.165 357.903 84.738 Z M 369.71 89.651 Q 369.566 89.651 369.566 89.507 L 369.566 87.165 L 376.293 78.744 L 376.293 78.756 Q 376.665 78.288 376.773 77.898 Q 376.881 77.507 376.881 77.135 Q 376.881 76.306 376.281 75.573 Q 375.68 74.853 374.659 74.853 Q 373.722 74.853 373.037 75.489 Q 372.701 75.802 372.527 76.228 Q 372.353 76.654 372.305 77.195 Q 372.305 77.255 372.263 77.291 Q 372.221 77.327 372.161 77.327 L 369.71 77.327 Q 369.566 77.327 369.566 77.183 Q 369.59 75.045 371.019 73.591 Q 372.473 72.114 374.479 72.114 Q 376.653 72.114 378.142 73.603 L 378.13 73.603 Q 379.608 75.081 379.608 77.159 Q 379.608 78.06 379.344 78.828 Q 379.079 79.597 378.551 80.258 L 378.551 80.246 Q 377.866 81.111 377.205 81.939 Q 376.545 82.768 375.884 83.591 Q 375.224 84.414 374.563 85.237 Q 373.902 86.06 373.218 86.924 L 379.464 86.924 Q 379.608 86.924 379.608 87.068 L 379.608 89.507 Q 379.608 89.651 379.464 89.651 Z"/>
  </g>
</svg>