<?xml version="1.0" encoding="UTF-8" standalone="no"?>
<svg
   xmlns:dc="http://purl.org/dc/elements/1.1/"
   xmlns:cc="http://creativecommons.org/ns#"
   xmlns:rdf="http://www.w3.org/1999/02/22-rdf-syntax-ns#"
   xmlns:svg="http://www.w3.org/2000/svg"
   xmlns="http://www.w3.org/2000/svg"
   xmlns:sodipodi="http://sodipodi.sourceforge.net/DTD/sodipodi-0.dtd"
   xmlns:inkscape="http://www.inkscape.org/namespaces/inkscape"
   width="311.47906mm"
   height="201.3298mm"
   viewBox="0 0 311.47907 201.3298"
   version="1.1"
   id="svg9491"
   inkscape:version="1.0 (4035a4fb49, 2020-05-01)"
   sodipodi:docname="Vietnam_road_sign_IE454.svg">
  <defs
     id="defs9485">
    <clipPath
       id="clipPath2832">
      <path
         d="M -0.24,595.138 H 317.24 V -0.138 H -0.24 Z"
         id="path2834"
         inkscape:connector-curvature="0" />
    </clipPath>
    <clipPath
       id="clipPath2840">
      <path
         d="M 0.03,595.32 H 317.49 V 0 H 0.03 Z"
         id="path2842"
         inkscape:connector-curvature="0" />
    </clipPath>
    <clipPath
       id="clipPath2858">
      <path
         d="M -0.24,595.138 H 317.24 V -0.138 H -0.24 Z"
         id="path2860"
         inkscape:connector-curvature="0" />
    </clipPath>
    <clipPath
       id="clipPath2864">
      <path
         d="M 0.03,595.32 H 317.49 V 0 H 0.03 Z"
         id="path2866"
         inkscape:connector-curvature="0" />
    </clipPath>
    <clipPath
       id="clipPath3306">
      <path
         d="m 199.238,472.977 v -29.74 h 29.744 v 29.74"
         id="path3308"
         inkscape:connector-curvature="0" />
    </clipPath>
    <clipPath
       id="clipPath3322">
      <path
         d="M -0.24,595.138 H 317.24 V -0.138 H -0.24 Z"
         id="path3324"
         inkscape:connector-curvature="0" />
    </clipPath>
    <clipPath
       id="clipPath3330">
      <path
         d="M 0.03,595.32 H 317.49 V 0 H 0.03 Z"
         id="path3332"
         inkscape:connector-curvature="0" />
    </clipPath>
    <clipPath
       id="clipPath3344">
      <path
         d="m 88.233,387.221 v -28.335 h 32.08 v 28.335"
         id="path3346"
         inkscape:connector-curvature="0" />
    </clipPath>
    <clipPath
       id="clipPath3462">
      <path
         d="M -0.24,595.138 H 317.24 V -0.138 H -0.24 Z"
         id="path3464"
         inkscape:connector-curvature="0" />
    </clipPath>
    <clipPath
       id="clipPath3470">
      <path
         d="M 0.03,595.32 H 317.49 V 0 H 0.03 Z"
         id="path3472"
         inkscape:connector-curvature="0" />
    </clipPath>
    <clipPath
       id="clipPath3490">
      <path
         d="M -0.24,595.138 H 317.24 V -0.138 H -0.24 Z"
         id="path3492"
         inkscape:connector-curvature="0" />
    </clipPath>
    <clipPath
       id="clipPath3496">
      <path
         d="M 0.03,595.32 H 317.49 V 0 H 0.03 Z"
         id="path3498"
         inkscape:connector-curvature="0" />
    </clipPath>
    <clipPath
       id="clipPath3520">
      <path
         d="m 254.788,326.215 v -28.309 h 28.326 v 28.309"
         id="path3522"
         inkscape:connector-curvature="0" />
    </clipPath>
    <clipPath
       id="clipPath3544">
      <path
         d="m 145.049,326.142 v -28.333 h 28.342 v 28.333"
         id="path3546"
         inkscape:connector-curvature="0" />
    </clipPath>
    <clipPath
       id="clipPath3682">
      <path
         d="M -0.24,595.138 H 317.24 V -0.138 H -0.24 Z"
         id="path3684"
         inkscape:connector-curvature="0" />
    </clipPath>
    <clipPath
       id="clipPath3690">
      <path
         d="M 0.03,595.32 H 317.49 V 0 H 0.03 Z"
         id="path3692"
         inkscape:connector-curvature="0" />
    </clipPath>
    <clipPath
       id="clipPath3980">
      <path
         d="M -0.24,595.138 H 317.24 V -0.138 H -0.24 Z"
         id="path3982"
         inkscape:connector-curvature="0" />
    </clipPath>
    <clipPath
       id="clipPath3988">
      <path
         d="M 0.03,595.32 H 317.49 V 0 H 0.03 Z"
         id="path3990"
         inkscape:connector-curvature="0" />
    </clipPath>
    <clipPath
       id="clipPath4010">
      <path
         d="M -0.24,595.138 H 317.24 V -0.138 H -0.24 Z"
         id="path4012"
         inkscape:connector-curvature="0" />
    </clipPath>
    <clipPath
       id="clipPath4016">
      <path
         d="M 0.03,595.32 H 317.49 V 0 H 0.03 Z"
         id="path4018"
         inkscape:connector-curvature="0" />
    </clipPath>
    <clipPath
       id="clipPath4062">
      <path
         d="m 200.163,177.773 v -28.284 h 28.283 v 28.284"
         id="path4064"
         inkscape:connector-curvature="0" />
    </clipPath>
    <clipPath
       id="clipPath4090">
      <path
         d="m 34.886,177.515 v -51.632 h 30.367 v 51.632"
         id="path4092"
         inkscape:connector-curvature="0" />
    </clipPath>
    <clipPath
       id="clipPath4106">
      <path
         d="m 34.886,177.515 v -51.632 h 30.367 v 51.632"
         id="path4108"
         inkscape:connector-curvature="0" />
    </clipPath>
    <clipPath
       id="clipPath4272">
      <path
         d="m 34.886,177.515 v -51.632 h 30.367 v 51.632"
         id="path4274"
         inkscape:connector-curvature="0" />
    </clipPath>
    <clipPath
       id="clipPath4304">
      <path
         d="m 254.653,176.442 v -48.167 h 28.317 v 48.167"
         id="path4306"
         inkscape:connector-curvature="0" />
    </clipPath>
    <clipPath
       id="clipPath4310">
      <path
         d="m 253.565,177.983 h 31.181 V 128.8 h -31.181 z"
         id="path4312"
         inkscape:connector-curvature="0" />
    </clipPath>
    <clipPath
       id="clipPath4316">
      <path
         d="M -0.24,595.138 H 317.24 V -0.138 H -0.24 Z"
         id="path4318"
         inkscape:connector-curvature="0" />
    </clipPath>
    <clipPath
       id="clipPath4322">
      <path
         d="M 0.03,595.32 H 317.49 V 0 H 0.03 Z"
         id="path4324"
         inkscape:connector-curvature="0" />
    </clipPath>
    <clipPath
       id="clipPath4456">
      <path
         d="M -0.24,595.138 H 317.24 V -0.138 H -0.24 Z"
         id="path4458"
         inkscape:connector-curvature="0" />
    </clipPath>
    <clipPath
       id="clipPath4464">
      <path
         d="M 0.03,595.32 H 317.49 V 0 H 0.03 Z"
         id="path4466"
         inkscape:connector-curvature="0" />
    </clipPath>
  </defs>
  <sodipodi:namedview
     id="base"
     pagecolor="#ffffff"
     bordercolor="#666666"
     borderopacity="1.0"
     inkscape:pageopacity="0.0"
     inkscape:pageshadow="2"
     inkscape:zoom="0.18732252"
     inkscape:cx="1895.4527"
     inkscape:cy="1496.6778"
     inkscape:document-units="mm"
     inkscape:current-layer="layer1"
     showgrid="false"
     inkscape:window-width="1920"
     inkscape:window-height="1001"
     inkscape:window-x="-9"
     inkscape:window-y="-9"
     inkscape:window-maximized="1"
     inkscape:measure-start="0,0"
     inkscape:measure-end="0,0"
     inkscape:document-rotation="0" />
  <metadata
     id="metadata9488">
    <rdf:RDF>
      <cc:Work
         rdf:about="">
        <dc:format>image/svg+xml</dc:format>
        <dc:type
           rdf:resource="http://purl.org/dc/dcmitype/StillImage" />
        <dc:title></dc:title>
      </cc:Work>
    </rdf:RDF>
  </metadata>
  <g
     inkscape:label="Layer 1"
     inkscape:groupmode="layer"
     id="layer1"
     transform="translate(-40.349975,-437.35589)">
    <g
       aria-label="6"
       id="text19759"
       style="font-size:31.1478px;line-height:1.3;font-family:'Singapore Road Signs';-inkscape-font-specification:'Singapore Road Signs';text-align:center;text-anchor:middle;stroke-width:0.159861"
       transform="matrix(1.6550836,0,0,1.6550836,-321.31659,-238.56049)" />
    <path
       sodipodi:nodetypes="ccccc"
       id="path12012"
       style="opacity:1;fill:#0a9646;fill-opacity:1;fill-rule:evenodd;stroke-width:0.0420684;stroke-linecap:square;stroke-miterlimit:10;paint-order:stroke fill markers"
       d="M 40.349975,437.35589 H 351.82905 v 201.3298 H 40.349975 Z" />
    <path
       id="path1267"
       d="M 54.194613,511.3822 H 129.59645 V 451.21156 H 54.194613 Z m 0,0"
       style="opacity:1;fill:#ffd70f;fill-opacity:1;fill-rule:nonzero;stroke:none;stroke-width:0.352777" />
    <path
       d="m 129.59573,534.1119 -22.73454,4.17251 c -0.27732,0 -0.83339,0.2717 -1.11072,0.5491 -0.55469,0.82647 -0.55469,1.958 0,2.77891 0.27733,0 0.55534,0.28297 0.55534,0.28297 l 5.83028,2.48355 -47.963041,48.21468 v -58.4754 h -9.977792 v 90.6782 h 9.977792 V 606.5027 l 55.168201,-54.90198 2.48979,5.82404 c 0,0 0.27652,0.27733 0.27652,0.54914 0.82647,0.55465 1.93582,0.55465 2.76225,0 0.27733,-0.27169 0.57824,-0.82578 0.57824,-1.12529 z"
       style="opacity:1;fill:#ffffff;fill-opacity:1;fill-rule:nonzero;stroke:none;stroke-width:0.352777"
       id="path1299" />
    <path
       d="m 218.96122,536.90224 c -0.0608,0 -0.10666,0.0282 -0.13645,0.0821 l -2.84999,3.9826 c -0.0322,0.0636 -0.0322,0.12317 -0.0121,0.17711 0.0322,0.0459 0.0761,0.0684 0.15175,0.0684 h 2.08668 c 0.0161,0 0.0455,-0.003 0.0761,-0.0121 0.0322,-0.0161 0.0455,-0.0322 0.0608,-0.0423 l 3.76392,-3.9826 c 0.0608,-0.0547 0.0608,-0.1123 0.0322,-0.17711 -0.0322,-0.0636 -0.0761,-0.0958 -0.15175,-0.0958 z m 51.4199,1.99221 c -0.0608,0 -0.0914,0.0282 -0.13645,0.0821 l -2.85181,3.98252 c -0.0322,0.0636 -0.0322,0.12277 -0.0121,0.17711 0.0322,0.0459 0.0761,0.0684 0.15174,0.0684 h 2.08668 c 0.0161,0 0.0455,-0.003 0.0761,-0.0121 0.0322,-0.0161 0.0455,-0.0322 0.0608,-0.0407 l 3.76558,-3.98252 c 0.0608,-0.0547 0.0608,-0.11512 0.0322,-0.17872 -0.0322,-0.0636 -0.0761,-0.0942 -0.15175,-0.0942 z m -58.17196,0.84543 -4.00889,3.17731 c -0.0608,0.0459 -0.0761,0.10667 -0.0608,0.17871 0.0161,0.0729 0.0608,0.10788 0.15175,0.10788 h 2.27755 c 0.39968,-0.24553 0.80493,-0.49142 1.21496,-0.73699 0.40855,-0.24553 0.8125,-0.49147 1.21344,-0.73704 l 2.72904,1.47403 h 2.29155 c 0.0761,0 0.13645,-0.0362 0.15175,-0.10788 0.0322,-0.0729 0.0121,-0.13363 -0.0608,-0.17871 l -4.06484,-3.17731 z m 66.79366,2.7011 -1.36526,1.36378 c 0.34615,0.26324 0.52241,0.69525 0.53151,1.29543 -0.0161,0.74568 -0.44043,1.29619 -1.26653,1.6508 v -1.62279 c 0,-0.10948 -0.0608,-0.16462 -0.16423,-0.16462 h -2.9604 c -0.10666,0 -0.16261,0.056 -0.16261,0.16462 v 12.60246 c 0,1.30026 -0.36749,2.29059 -1.10408,2.97248 -0.73654,0.68189 -1.64211,1.0241 -2.71523,1.0241 -1.09043,0 -2.00481,-0.34213 -2.7414,-1.0241 -0.72745,-0.67291 -1.09039,-1.66308 -1.09039,-2.97248 V 545.1282 c 0,-0.10948 -0.0455,-0.16462 -0.15174,-0.16462 h -2.97252 c -0.10586,0 -0.16422,0.056 -0.16422,0.16462 v 12.92982 c 0,2.09135 0.69255,3.77222 2.07436,5.04519 1.38201,1.26399 3.06308,1.89589 5.04523,1.89589 1.97309,0 3.64756,-0.63194 5.02059,-1.89589 1.39114,-1.27297 2.08684,-2.95384 2.08684,-5.04519 v -9.5337 c 0.55433,-0.10023 1.06761,-0.25962 1.54043,-0.4779 1.13584,-0.77289 1.68727,-1.773 1.65065,-3.00053 0,-1.00933 -0.33006,-1.82867 -0.92778,-2.45606 -0.0608,-0.0547 -0.10667,-0.10344 -0.16262,-0.14893 z m 9.62817,2.35974 c -1.58185,0 -2.90449,0.38118 -3.96832,1.14494 -1.05577,0.75482 -1.81893,1.57231 -2.29187,2.45428 -0.16503,0.30913 -0.30591,0.62365 -0.42344,0.94179 -0.12075,0.31879 -0.2093,0.65057 -0.26968,0.99608 -0.0604,0.34536 -0.10465,0.89603 -0.13685,1.65085 -0.0403,0.75462 -0.0443,1.72695 -0.0443,2.91817 0,2.38236 0.0604,3.9102 0.18113,4.58303 0.0604,0.34535 0.15295,0.67782 0.26968,0.99609 0.12075,0.30952 0.26163,0.61692 0.4234,0.92613 0.47254,0.89115 1.23654,1.71041 2.29191,2.45605 1.07349,0.75479 2.39528,1.13266 3.96828,1.13266 0.86423,0 1.66844,-0.12438 2.41424,-0.3695 0.74544,-0.24553 1.4382,-0.60871 2.07416,-1.09056 1.30936,-1.00023 2.15498,-2.42876 2.53656,-4.28372 0,-0.0547 0,-0.10022 -0.0403,-0.13645 -0.0403,-0.0455 -0.0765,-0.0684 -0.13685,-0.0684 l -3.12306,0.001 c -0.0403,0 -0.0604,0.0121 -0.0765,0.0407 -0.0403,0.0161 -0.0443,0.0362 -0.0765,0.0547 -0.8183,1.71854 -2.01374,2.57858 -3.58674,2.57858 -0.68185,0 -1.26347,-0.13202 -1.74527,-0.39567 -0.4814,-0.27249 -0.8674,-0.60017 -1.15882,-0.98211 -0.16503,-0.20891 -0.31395,-0.45029 -0.4496,-0.72307 -0.12075,-0.28175 -0.22943,-0.56375 -0.30188,-0.84559 -0.0765,-0.30912 -0.12075,-0.78315 -0.15295,-1.41968 -0.0403,-0.64554 -0.0443,-1.46323 -0.0443,-2.45433 0,-0.97302 0,-1.78246 0.0443,-2.42804 0.0402,-0.64558 0.0765,-1.12296 0.15295,-1.43196 0.0765,-0.29101 0.17308,-0.57273 0.30188,-0.84543 0.12075,-0.28175 0.27773,-0.53275 0.4496,-0.75099 0.28981,-0.35461 0.67742,-0.66732 1.15882,-0.9401 0.4814,-0.2725 1.06302,-0.40959 1.74527,-0.40959 0.91892,0 1.67725,0.26847 2.27739,0.80525 0.31798,0.2725 0.58645,0.5675 0.80501,0.88584 0.21735,0.30953 0.38641,0.64631 0.50434,1.01001 0,0.0729 0.0765,0.10788 0.15295,0.10788 h 3.12306 c 0.0604,0 0.10465,-0.0161 0.13685,-0.0548 0.0403,-0.0362 0.0443,-0.0821 0.0403,-0.13645 -0.30188,-1.60942 -1.07832,-3.00036 -2.33333,-4.17339 -1.23651,-1.16393 -2.80025,-1.74531 -4.69163,-1.74531 z m -138.73393,0.16302 c -0.10666,0 -0.16261,0.0559 -0.16261,0.16462 v 2.63115 c 0,0.10949 0.0608,0.16463 0.16261,0.16463 h 5.19754 v 16.74784 c 0,0.10948 0.0608,0.16463 0.16261,0.16463 h 2.9602 c 0.10666,0 0.16261,-0.0559 0.16261,-0.16463 v -16.74772 h 5.18341 c 0.10666,0 0.16261,-0.056 0.16261,-0.16463 v -2.63114 c 0,-0.10949 -0.0608,-0.16463 -0.16261,-0.16463 z m 16.35226,0 c -0.10666,0 -0.16422,0.0559 -0.16422,0.16462 v 2.63115 c 0,0.10949 0.0608,0.16463 0.16422,0.16463 h 5.19568 v 16.74784 c 0,0.10948 0.0608,0.16463 0.16423,0.16463 h 2.9602 c 0.10666,0 0.16261,-0.0559 0.16261,-0.16463 v -16.74772 h 5.18357 c 0.10666,0 0.16261,-0.056 0.16261,-0.16463 v -2.63114 c 0,-0.10949 -0.0608,-0.16463 -0.16261,-0.16463 z m 23.70111,0 c -0.10666,0 -0.16422,0.0559 -0.16422,0.16462 v 19.54358 c 0,0.10948 0.0608,0.16463 0.16422,0.16463 h 8.25237 c 1.50046,0 2.80487,-0.513 3.91426,-1.54052 1.11929,-1.03666 1.67709,-2.42438 1.67709,-4.16112 0,-0.50921 -0.0761,-0.99942 -0.21696,-1.47221 -0.13645,-0.48188 -0.3373,-0.951 -0.59985,-1.40572 -0.49963,-0.82739 -1.21038,-1.38607 -2.12874,-1.677 0.9917,-0.50921 1.66887,-1.11032 2.03258,-1.80138 0.39969,-0.73659 0.5999,-1.53625 0.5999,-2.40007 0,-1.57308 -0.5103,-2.86473 -1.52824,-3.87409 -1.02817,-1.02752 -2.4999,-1.54052 -4.41849,-1.54052 z m 17.02276,0 c -0.10667,0 -0.16422,0.0559 -0.16422,0.16462 v 19.54358 c 0,0.10948 0.0608,0.16463 0.16422,0.16463 h 12.49221 c 0.10667,0 0.16423,-0.056 0.16423,-0.16463 v -2.78165 c 0,-0.10948 -0.0608,-0.16301 -0.16423,-0.16301 h -9.36916 v -5.42854 h 7.96514 c 0.10666,0 0.16261,-0.0499 0.16261,-0.15013 v -2.64689 c 0,-0.10948 -0.0608,-0.16301 -0.16261,-0.16301 h -7.96514 v -5.23779 h 9.36916 c 0.10667,0 0.16423,-0.0535 0.16423,-0.16301 v -2.80971 c 0,-0.10948 -0.0608,-0.16462 -0.16423,-0.16462 z m 15.54873,0 c -0.10666,0 -0.16422,0.0559 -0.16422,0.16462 v 19.54358 c 0,0.10948 0.0608,0.16463 0.16422,0.16463 h 2.97248 c 0.10666,0 0.15174,-0.056 0.15174,-0.16463 v -13.44813 l 8.62002,13.53032 c 0.0322,0.0547 0.0761,0.0821 0.13645,0.0821 h 2.79557 c 0.10626,0 0.16422,-0.0535 0.16422,-0.16301 v -19.54535 c 0,-0.10948 -0.0608,-0.16462 -0.16422,-0.16462 h -2.97248 c -0.10666,0 -0.16422,0.0559 -0.16422,0.16462 v 13.44801 l -8.59176,-13.53032 c -0.0322,-0.0547 -0.0761,-0.0821 -0.13645,-0.0821 z m 25.80542,0 c -0.10666,0 -0.16422,0.0559 -0.16422,0.16462 v 19.54358 c 0,0.10948 0.0608,0.16463 0.16422,0.16463 h 12.49387 c 0.10666,0 0.16261,-0.056 0.16261,-0.16463 v -2.78165 c 0,-0.10948 -0.0608,-0.16301 -0.16261,-0.16301 h -9.37089 v -16.59904 c 0,-0.10948 -0.0608,-0.16462 -0.16262,-0.16462 z m -55.25389,2.96024 h 4.13326 c 1.00989,0 1.76013,0.26404 2.25131,0.79125 0.49049,0.50011 0.73497,1.11728 0.73497,1.85386 0,0.74569 -0.24472,1.36954 -0.73497,1.86961 -0.47231,0.50921 -1.22407,0.76327 -2.25131,0.76327 h -4.13326 z m 0,8.23827 h 4.40632 c 1.0555,4e-5 1.81877,0.28176 2.29152,0.84559 0.49057,0.56375 0.73506,1.20877 0.73506,1.93614 0,0.74569 -0.24473,1.39553 -0.73506,1.95015 -0.49963,0.55465 -1.26355,0.83331 -2.29152,0.83331 h -4.40632 z m -10.04481,5.57743 c -0.10667,0 -0.16422,0.0559 -0.16422,0.16462 v 2.76764 c 0,0.10948 0.0608,0.16463 0.16422,0.16463 h 2.78177 c 0.10626,0 0.15174,-0.056 0.15174,-0.16463 v -2.76764 c 0,-0.10948 -0.0455,-0.16462 -0.15174,-0.16462 z m 30.92064,16.59203 c -0.0608,0 -0.0914,0.0282 -0.13645,0.0821 l -2.85176,3.98261 c -0.0322,0.0636 -0.0322,0.12316 -0.0121,0.1771 0.0322,0.0459 0.0761,0.0684 0.15175,0.0684 h 2.08668 c 0.0161,0 0.0459,-0.003 0.0761,-0.0121 0.0322,-0.0161 0.0455,-0.0322 0.0608,-0.041 l 3.76557,-3.98257 c 0.0608,-0.0547 0.0608,-0.11512 0.0322,-0.17872 -0.0322,-0.0636 -0.0761,-0.0942 -0.15175,-0.0942 z m 55.70366,0 c -0.0761,0 -0.12116,0.0322 -0.16261,0.0942 -0.0322,0.0636 -0.0121,0.12438 0.0455,0.17872 l 3.76545,3.98256 c 0.0121,0.008 0.0322,0.0242 0.0608,0.0407 0.0322,0.008 0.0455,0.0121 0.0761,0.0121 h 2.08684 c 0.0761,0 0.12115,-0.0241 0.13645,-0.0684 0.0322,-0.0547 0.0322,-0.1123 0,-0.1767 l -2.85165,-3.98261 c -0.0322,-0.0547 -0.0761,-0.0821 -0.13645,-0.0821 z m -47.08199,3.54576 -1.36531,1.36382 c 0.34455,0.26324 0.52246,0.69521 0.53155,1.29543 -0.0161,0.74564 -0.44042,1.29619 -1.26657,1.65076 v -1.62279 c 0,-0.10948 -0.0608,-0.16462 -0.16422,-0.16462 h -2.96036 c -0.10626,0 -0.16261,0.0559 -0.16261,0.16462 v 12.6025 c 0,1.3003 -0.36749,2.29051 -1.10412,2.97248 -0.73655,0.68205 -1.64215,1.02402 -2.71523,1.02402 -1.09039,0 -2.00481,-0.34213 -2.74136,-1.02402 -0.72741,-0.67291 -1.09039,-1.66308 -1.09039,-2.97248 v -12.6025 c 0,-0.10948 -0.0455,-0.16462 -0.15175,-0.16462 h -2.97247 c -0.10667,0 -0.16422,0.0559 -0.16422,0.16462 v 12.92982 c 0,2.09139 0.69251,3.77222 2.07452,5.04523 1.38201,1.26395 3.06284,1.89589 5.04518,1.89589 1.97309,0 3.64756,-0.63194 5.02064,-1.89589 1.39106,-1.27301 2.0868,-2.95384 2.0868,-5.04523 v -9.53366 c 0.55433,-0.10023 1.06765,-0.26002 1.54039,-0.47798 1.136,-0.77281 1.68727,-1.77296 1.6508,-3.00049 -0.0161,-1.00933 -0.32804,-1.82863 -0.9279,-2.45606 -0.0608,-0.0547 -0.10666,-0.10304 -0.16261,-0.14893 z m 9.62829,2.35982 c -1.58213,0 -2.90477,0.38118 -3.96864,1.14494 -1.05545,0.75462 -1.81873,1.57231 -2.29151,2.45432 -0.16423,0.30953 -0.3051,0.62353 -0.42372,0.94187 -0.12156,0.31838 -0.2081,0.65061 -0.2717,0.99608 -0.0608,0.34536 -0.10666,0.89603 -0.13645,1.65085 -0.0322,0.75462 -0.0455,1.727 -0.0455,2.91817 0,2.38232 0.0608,3.9102 0.17952,4.58307 0.0608,0.34535 0.15336,0.67774 0.27169,0.99609 0.12156,0.30953 0.25962,0.61688 0.42368,0.92605 0.4723,0.89119 1.23622,1.71049 2.29156,2.45609 1.07368,0.75479 2.3954,1.13266 3.96847,1.13266 0.86411,0 1.6684,-0.12437 2.41408,-0.3695 0.74565,-0.24553 1.4382,-0.60871 2.07452,-1.09055 1.30912,-1.00024 2.15471,-2.42877 2.53652,-4.28369 0.0161,-0.0547 0.008,-0.10022 -0.0322,-0.13645 -0.0322,-0.0459 -0.0761,-0.0684 -0.13645,-0.0684 l -3.12313,9.6e-4 c -0.0322,0 -0.0608,0.0121 -0.0761,0.0407 -0.0322,0.0161 -0.0455,0.0362 -0.0761,0.0547 -0.81858,1.71858 -2.0139,2.57862 -3.58694,2.57862 -0.68189,0 -1.26355,-0.13202 -1.74527,-0.39567 -0.48144,-0.27249 -0.86869,-0.60021 -1.15878,-0.98215 -0.16422,-0.20891 -0.31436,-0.45017 -0.44952,-0.72303 -0.12156,-0.28175 -0.22782,-0.56355 -0.30067,-0.84558 -0.0761,-0.30913 -0.12156,-0.7832 -0.15175,-1.41965 -0.0322,-0.64566 -0.0455,-1.46327 -0.0455,-2.45437 0,-0.9729 0.0121,-1.78246 0.0455,-2.42808 0.0322,-0.64562 0.0761,-1.12271 0.15175,-1.43196 0.0761,-0.29101 0.17348,-0.57269 0.30067,-0.84563 0.12156,-0.28175 0.27612,-0.53272 0.44952,-0.751 0.29142,-0.3546 0.67734,-0.66731 1.15878,-0.93997 0.4814,-0.2725 1.06306,-0.40979 1.74527,-0.40979 0.91884,0 1.67737,0.26887 2.27755,0.80533 0.31757,0.2725 0.5877,0.56758 0.80489,0.88592 0.21856,0.30953 0.386,0.64631 0.50422,1.01001 0.0161,0.0729 0.0761,0.10788 0.15175,0.10788 h 3.12301 c 0.0608,0 0.10666,-0.0161 0.13645,-0.0547 0.0322,-0.0362 0.0455,-0.0821 0.0322,-0.13645 -0.30067,-1.60946 -1.07824,-3.00045 -2.33342,-4.17343 -1.23622,-1.16385 -2.80032,-1.74531 -4.69166,-1.74531 z m 40.37365,0 c -1.58214,0 -2.90643,0.38118 -3.97025,1.14494 -1.0555,0.75462 -1.81861,1.57231 -2.29156,2.45432 h 0.0121 c -0.17308,0.30953 -0.31758,0.62353 -0.43588,0.94187 -0.12115,0.31838 -0.2093,0.65061 -0.2733,0.99608 -0.0608,0.34536 -0.10666,0.89603 -0.13645,1.65085 -0.0322,0.75462 -0.0455,1.727 -0.0455,2.91817 0,1.1911 0.0121,2.16843 0.0455,2.93223 0.0322,0.75478 0.0761,1.30533 0.13645,1.65084 0.0608,0.34535 0.15497,0.67774 0.2733,0.99609 0.12156,0.30953 0.26244,0.61688 0.43588,0.92605 h -0.0121 c 0.47235,0.89119 1.23622,1.71049 2.29156,2.45609 1.07369,0.75479 2.39721,1.13097 3.97025,1.13097 1.555,0 2.8677,-0.37634 3.94066,-1.13097 1.07373,-0.76371 1.85158,-1.58314 2.33346,-2.45609 0.15496,-0.29102 0.28699,-0.59543 0.39486,-0.91378 0.12156,-0.31878 0.20809,-0.65363 0.27169,-1.00836 0.12075,-0.71839 0.1932,-2.24619 0.1932,-4.58307 0,-1.19109 0,-2.16355 -0.0604,-2.91817 -0.0403,-0.75482 -0.0765,-1.30533 -0.13685,-1.65085 -0.12076,-0.67291 -0.34455,-1.31958 -0.68004,-1.93791 -0.4723,-0.86382 -1.24681,-1.68143 -2.31945,-2.45428 -1.06306,-0.76392 -2.3766,-1.14494 -3.94054,-1.14494 z m 15.91642,0.13525 c -0.0765,0 -0.12075,0.0403 -0.13685,0.11109 l -7.14571,19.55931 c 0,0.0547 0,0.10304 0,0.14893 0.0403,0.0455 0.0765,0.0684 0.13685,0.0684 h 3.12305 c 0.0402,0 0.0604,-0.008 0.0765,-0.0282 0.0402,-0.0282 0.0604,-0.0547 0.0765,-0.0821 0.25358,-0.72745 0.50555,-1.44082 0.74983,-2.14098 0.25358,-0.70925 0.50881,-1.4324 0.764,-2.16899 h 7.20206 l 1.47156,4.30997 c 0,0.0729 0.0604,0.10787 0.13686,0.10787 h 3.12305 c 0.0604,0 0.0926,-0.0241 0.12075,-0.0684 0.0403,-0.0459 0.0403,-0.0942 0,-0.14893 l -7.13363,-19.55932 c 0,-0.0282 -0.0402,-0.0503 -0.0604,-0.0684 -0.0403,-0.0282 -0.0604,-0.0423 -0.0765,-0.0423 z m -138.59225,0.0282 c -0.10666,0 -0.16261,0.056 -0.16261,0.16463 v 2.63119 c 0,0.10948 0.0608,0.16462 0.16261,0.16462 h 5.19754 v 16.74788 c 0,0.10949 0.0608,0.16463 0.16261,0.16463 h 2.9602 c 0.10666,0 0.16261,-0.0559 0.16261,-0.16463 v -16.74788 h 5.18341 c 0.10666,0 0.16261,-0.0559 0.16261,-0.16462 v -2.63119 c 0,-0.10949 -0.0608,-0.16463 -0.16261,-0.16463 z m 16.35226,0 c -0.10666,0 -0.16422,0.056 -0.16422,0.16463 v 2.63119 c 0,0.10948 0.0608,0.16462 0.16422,0.16462 h 5.19568 v 16.74788 c 0,0.10949 0.0608,0.16463 0.16423,0.16463 h 2.9602 c 0.10666,0 0.16261,-0.0559 0.16261,-0.16463 v -16.74788 h 5.18357 c 0.10666,0 0.16261,-0.0559 0.16261,-0.16462 v -2.63119 c 0,-0.10949 -0.0608,-0.16463 -0.16261,-0.16463 z m 23.55927,0 c -0.10666,0 -0.15174,0.056 -0.15174,0.16463 v 8.01947 h -1.43217 c -0.10666,0 -0.15174,0.0531 -0.15174,0.16302 v 2.8097 c 0,0.10022 0.0455,0.15053 0.15174,0.15053 h 1.43217 v 8.40105 c 0,0.10949 0.0455,0.16463 0.15174,0.16463 h 6.65578 c 1.4549,0 2.7139,-0.31758 3.77789,-0.95402 1.02813,-0.63645 1.8467,-1.42315 2.45598,-2.35982 v 0.0121 c 0.22782,-0.35461 0.41309,-0.70801 0.55888,-1.06266 0.15497,-0.36346 0.26847,-0.73666 0.34173,-1.1186 0.0761,-0.37273 0.12115,-0.92843 0.16261,-1.66485 0.0322,-0.74569 0.0608,-1.67238 0.0608,-2.78169 0,-2.06406 -0.0608,-3.45995 -0.16261,-4.1874 -0.0455,-0.37273 -0.15175,-0.75571 -0.29906,-1.14663 -0.15497,-0.39123 -0.35542,-0.80469 -0.5999,-1.24117 -1.34554,-2.24599 -3.37845,-3.36818 -6.09734,-3.36818 z m 58.33497,0 c -0.10626,0 -0.16262,0.056 -0.16262,0.16463 v 19.54357 c 0,0.10949 0.0608,0.16463 0.16262,0.16463 h 2.96024 c 0.10586,0 0.16422,-0.056 0.16422,-0.16463 v -8.37303 h 7.43302 v 8.37303 c 0,0.10949 0.0608,0.16463 0.16261,0.16463 h 2.9602 c 0.10667,0 0.16423,-0.056 0.16423,-0.16463 V 584.5653 c 0,-0.10949 -0.0608,-0.16463 -0.16423,-0.16463 h -2.9602 c -0.10666,0 -0.16261,0.056 -0.16261,0.16463 v 8.2103 h -7.43302 v -8.2103 c 0,-0.10949 -0.0608,-0.16463 -0.16422,-0.16463 z m -55.19779,3.13702 h 3.38207 c 1.464,0 2.58301,0.5229 3.35602,1.56853 0.37192,0.50921 0.60896,1.08754 0.70918,1.73308 0.0459,0.34535 0.0761,0.81298 0.0914,1.4039 0.0322,0.59104 0.0455,1.32715 0.0455,2.20924 0,0.90923 -0.0121,1.66023 -0.0455,2.25127 -0.0161,0.58194 -0.0455,1.01842 -0.0914,1.30939 -0.0608,0.52745 -0.25358,1.03243 -0.57257,1.51432 -0.76387,1.09115 -1.92837,1.63675 -3.49243,1.63675 h -3.38215 v -5.45655 h 3.55889 c 0.10667,0 0.16422,-0.0503 0.16422,-0.15054 v -2.8097 c 0,-0.10948 -0.0608,-0.16301 -0.16422,-0.16301 h -3.55889 z m 79.62712,0 c 0.32804,0 0.63483,0.0407 0.92641,0.12317 0.29141,0.0729 0.56041,0.17388 0.80489,0.30107 0.24634,0.11834 0.46321,0.25801 0.65456,0.42191 0.20045,0.16382 0.36749,0.33167 0.50422,0.50418 0.17308,0.21816 0.32201,0.46908 0.44952,0.751 0.12156,0.2725 0.22339,0.55462 0.28699,0.84543 0.0761,0.30027 0.12115,0.77241 0.16422,1.41799 0.0322,0.63648 0.0608,1.45096 0.0608,2.44209 0,2.00046 -0.0761,3.29215 -0.21856,3.87405 -0.12156,0.58195 -0.36749,1.10468 -0.74875,1.56853 -0.28215,0.38198 -0.66514,0.70938 -1.14658,0.98212 -0.4814,0.26324 -1.05851,0.39567 -1.7313,0.39567 -0.68189,0 -1.26504,-0.13203 -1.74709,-0.39567 -0.48139,-0.2725 -0.86716,-0.60018 -1.15873,-0.98212 -0.16423,-0.2089 -0.31436,-0.45012 -0.44952,-0.72306 -0.12116,-0.28176 -0.22782,-0.56375 -0.30068,-0.84559 -0.0761,-0.30912 -0.12155,-0.78316 -0.15174,-1.41964 -0.0322,-0.64562 -0.0455,-1.46328 -0.0455,-2.45437 0,-0.97286 0.0121,-1.78246 0.0455,-2.42804 0.0322,-0.64558 0.0761,-1.12276 0.15174,-1.43196 0.0761,-0.29102 0.17187,-0.57269 0.29907,-0.84547 0.12155,-0.28175 0.27612,-0.53276 0.44952,-0.751 0.29141,-0.35461 0.67734,-0.66727 1.15878,-0.94001 0.48139,-0.2725 1.06459,-0.40963 1.74704,-0.40963 z m 17.17144,1.59655 c 0.0403,0.11833 0.0604,0.20769 0.0765,0.27129 0.0403,0.0636 0.0443,0.12437 0.0765,0.17871 0,0.0455 0.0402,0.0942 0.0443,0.14893 0,0.0455 0.0443,0.11391 0.0604,0.20487 0.0604,0.17308 0.10465,0.33771 0.15296,0.49191 0.0604,0.15456 0.10867,0.29463 0.15295,0.42191 0.0926,0.28175 0.1771,0.5555 0.26163,0.81914 0.0926,0.26324 0.1771,0.5276 0.2576,0.79125 0.0443,0.12759 0.0926,0.25921 0.13686,0.39566 0.0443,0.1276 0.0926,0.26284 0.13685,0.4079 0.0604,0.15456 0.10465,0.31919 0.16503,0.49191 0.0604,0.17307 0.12075,0.35018 0.1932,0.53215 0.10868,0.28176 0.21333,0.61246 0.34213,0.99431 0.12075,0.37273 0.26565,0.78332 0.42223,1.2289 0,0.0547 0.0443,0.11834 0.0765,0.19039 0.0403,0.0728 0.0604,0.14128 0.0765,0.20487 h -5.23782 c 0.20125,-0.57285 0.36225,-1.04684 0.49065,-1.41968 0.12076,-0.38198 0.24956,-0.73518 0.37031,-1.06258 0.12075,-0.32724 0.2254,-0.6418 0.31396,-0.94187 0.10465,-0.30027 0.19722,-0.58685 0.28578,-0.85963 0.0443,-0.1276 0.0926,-0.25881 0.13685,-0.39567 0.0443,-0.13645 0.0926,-0.27612 0.13685,-0.4219 0.0443,-0.13645 0.0926,-0.27331 0.13685,-0.40956 0.0604,-0.13645 0.10465,-0.28095 0.15296,-0.43587 0,-0.0455 0.0403,-0.0914 0.0443,-0.13645 0,-0.0459 0.0403,-0.0958 0.0443,-0.15054 0.0765,-0.21816 0.15295,-0.45435 0.22943,-0.70889 0.0926,-0.25479 0.18515,-0.53139 0.28578,-0.83146 z m -106.84526,12.04225 c -0.10666,0 -0.16261,0.056 -0.16261,0.16462 v 2.76768 c 0,0.10948 0.0608,0.16463 0.16261,0.16463 h 2.78342 c 0.10666,0 0.15174,-0.056 0.15174,-0.16463 v -2.76768 c 0,-0.10948 -0.0455,-0.16462 -0.15174,-0.16462 z"
       style="opacity:1;fill:#ffffff;fill-opacity:1;fill-rule:evenodd;stroke-width:0.119062;stroke-linecap:square;stroke-miterlimit:10;paint-order:stroke fill markers"
       id="path6100"
       sodipodi:nodetypes="ccccssccccccccccsscccccccccscsccsccccccccssssssscsssssscscscccccccccssssccccsccccccccscccccsccccsscccsscccccsssscsssscssssssssscsssscssssscsssscsccccsccccsssssssccssssccssscccsssssccssssssscccccssssssscscccscscscccccscsccsssssssssccccsscccccccccccsscccccccccssssssscsssssscsccccccccccccsssccccsccccccccscccccsccccsscccsscccccsccccccsccccccsccccsccccsscccsssccccccssccccccsssscsssscssssssssscsssscssssscscsssscsssccccccscccccssssssccssssssssccssscscccscccsccssssccccccccccscccscccccsccccscccccccccccccccccccccsccsccccccscsssssssss" />
    <path
       d="m 186.26777,462.92548 c -0.0608,0 -0.10505,0.0282 -0.13524,0.0833 l -2.85168,3.98116 c -0.0322,0.0636 -0.0322,0.12277 -0.0121,0.1767 0.0322,0.0455 0.0761,0.0688 0.15175,0.0688 h 2.08623 c 0.0161,0 0.0467,-0.002 0.0769,-0.0121 0.0322,-0.0161 0.0451,-0.0322 0.0604,-0.0419 l 3.76481,-3.98322 c 0.0608,-0.0547 0.06,-0.1123 0.0322,-0.1767 -0.0322,-0.0636 -0.0761,-0.0958 -0.15174,-0.0958 z m 51.42002,1.99266 c -0.0608,0 -0.0898,0.0282 -0.13524,0.0813 l -2.85169,3.98321 c -0.0322,0.0636 -0.0322,0.12277 -0.0161,0.17671 0.0322,0.0455 0.0761,0.0684 0.15175,0.0684 h 2.08833 c 0.0161,0 0.0447,-0.002 0.0749,-0.0121 0.0322,-0.0161 0.0451,-0.0322 0.0604,-0.0419 l 3.7669,-3.98116 c 0.0608,-0.0547 0.06,-0.11552 0.0322,-0.17872 -0.0322,-0.0636 -0.0761,-0.0938 -0.15174,-0.0938 z m -58.17171,0.8445 -4.00821,3.17827 c -0.0608,0.0455 -0.0757,0.10667 -0.0604,0.17872 0.0161,0.0729 0.0608,0.10827 0.15174,0.10827 h 2.27763 c 0.39969,-0.24553 0.80469,-0.49283 1.21472,-0.7384 0.40851,-0.24553 0.8117,-0.49077 1.21264,-0.73634 l 2.729,1.47474 h 2.29215 c 0.0761,0 0.13686,-0.0362 0.15175,-0.10827 0.0322,-0.0729 0.0121,-0.13404 -0.0624,-0.17872 l -4.06436,-3.17827 z m 66.79337,2.70195 -1.3645,1.36446 c 0.34616,0.26324 0.52129,0.6936 0.53043,1.29378 -0.0161,0.74568 -0.43853,1.29695 -1.26464,1.65152 v -1.62238 c 0,-0.10948 -0.0608,-0.16423 -0.16422,-0.16423 h -2.96193 c -0.10667,0 -0.16221,0.056 -0.16221,0.16423 v 12.60278 c 0,1.30026 -0.36789,2.29043 -1.10448,2.97235 -0.73659,0.68189 -1.64131,1.02338 -2.71443,1.02338 -1.09039,0 -2.00489,-0.34173 -2.74144,-1.02338 -0.72745,-0.67295 -1.08995,-1.66291 -1.08995,-2.97235 v -12.60278 c 0,-0.10948 -0.0459,-0.16423 -0.15174,-0.16423 h -2.97236 c -0.10626,0 -0.16422,0.056 -0.16422,0.16423 v 12.92937 c 0,2.09131 0.69195,3.77315 2.07376,5.04612 1.38201,1.26399 3.06396,1.89488 5.04611,1.89488 1.97309,0 3.64607,-0.63093 5.01906,-1.89488 1.39115,-1.27297 2.08837,-2.95481 2.08837,-5.04612 v -9.53274 c 0.55434,-0.10022 1.0664,-0.26042 1.53919,-0.47838 1.13596,-0.77289 1.68795,-1.77393 1.65153,-3.00149 -0.0161,-1.00929 -0.32764,-1.82698 -0.92766,-2.45441 -0.0608,-0.0547 -0.10626,-0.10425 -0.16221,-0.14973 z m 9.62633,2.35873 c -1.58121,3.2e-4 -2.90329,0.38278 -3.96659,1.1461 -1.05554,0.75478 -1.81732,1.57243 -2.29011,2.45441 -0.16422,0.30912 -0.3059,0.62404 -0.42432,0.94223 -0.12116,0.31878 -0.2089,0.65081 -0.2725,0.99632 -0.0608,0.34535 -0.10465,0.89462 -0.13524,1.64948 -0.0322,0.75462 -0.0459,1.72703 -0.0459,2.91825 0,2.38232 0.0604,3.91149 0.17872,4.58432 0.0608,0.34535 0.15174,0.67597 0.27048,0.99427 0.12116,0.30953 0.26042,0.6185 0.42433,0.9277 0.4723,0.89111 1.23678,1.70877 2.29215,2.45441 1.07369,0.75478 2.39565,1.13358 3.96864,1.13358 0.86419,0 1.66731,-0.12518 2.41287,-0.3703 0.74565,-0.24553 1.43953,-0.60807 2.07585,-1.08991 1.30912,-1.00023 2.15374,-2.42781 2.53548,-4.28276 0.0161,-0.0547 0.008,-0.10063 -0.0322,-0.13726 -0.0322,-0.0459 -0.0765,-0.0688 -0.13726,-0.0688 l -3.12209,0.002 c -0.0322,0 -0.062,0.0121 -0.0769,0.0403 -0.0322,0.0161 -0.0447,0.0362 -0.0749,0.0559 -0.81854,1.71854 -2.01499,2.57713 -3.58803,2.57713 -0.68189,0 -1.26335,-0.13162 -1.74511,-0.39526 -0.4814,-0.2725 -0.86696,-0.59982 -1.15858,-0.98176 -0.16422,-0.2089 -0.31234,-0.45109 -0.44928,-0.72383 -0.12155,-0.28175 -0.22862,-0.56266 -0.30147,-0.8445 -0.0761,-0.30912 -0.12156,-0.78416 -0.15175,-1.42064 -0.0322,-0.64559 -0.0459,-1.46332 -0.0459,-2.45441 0,-0.97302 0.0121,-1.78182 0.0459,-2.4274 0.0322,-0.64558 0.0761,-1.12199 0.15175,-1.43104 0.0761,-0.29101 0.17549,-0.57385 0.30147,-0.84655 0.12116,-0.28176 0.27612,-0.53268 0.44928,-0.75092 0.29142,-0.35461 0.67718,-0.6674 1.15858,-0.94013 0.48144,-0.2725 1.06294,-0.40976 1.74511,-0.40976 0.9188,0 1.67745,0.26848 2.27763,0.80494 0.31757,0.27249 0.58629,0.56777 0.80497,0.88612 0.21856,0.30953 0.3852,0.64715 0.50334,1.01085 0.0161,0.0729 0.0761,0.10828 0.15174,0.10828 h 3.12418 c 0.0608,0 0.10667,-0.0161 0.13726,-0.0559 0.0322,-0.0362 0.0447,-0.0809 0.0322,-0.13524 -0.30068,-1.60943 -1.0786,-3.00158 -2.33378,-4.17457 -1.23578,-1.16348 -2.79795,-1.7447 -4.68836,-1.74515 z m 32.39011,0.0402 c -1.5259,0 -2.8425,0.56315 -3.94819,1.68687 -1.08717,1.10548 -1.63941,2.47143 -1.65753,4.09764 0,0.10948 0.0564,0.16423 0.16503,0.16423 h 2.79542 c 0.0443,0 0.0805,-0.0161 0.10867,-0.0419 0.0403,-0.0282 0.0523,-0.0644 0.0523,-0.11028 0.0403,-0.41108 0.12075,-0.7764 0.24553,-1.09615 0.13685,-0.32885 0.33408,-0.61113 0.58846,-0.84869 0.52085,-0.48417 1.1387,-0.72797 1.85154,-0.72797 0.77643,0 1.39227,0.27531 1.84911,0.82369 0.45685,0.55727 0.68427,1.15008 0.68427,1.78049 0,0.28337 -0.0403,0.57627 -0.12478,0.87775 -0.0805,0.29222 -0.26566,0.61712 -0.54701,0.97346 v -0.0161 l -7.67541,9.60757 v 2.67075 c 0,0.10948 0.0564,0.16423 0.16503,0.16423 h 11.12812 c 0.10867,0 0.16503,-0.0548 0.16503,-0.16423 v -2.781 c 0,-0.10948 -0.0564,-0.16422 -0.16503,-0.16422 h -7.12599 c 0.52044,-0.65778 1.03243,-1.29857 1.53476,-1.91984 0.50273,-0.63037 1.00345,-1.25494 1.50618,-1.87617 l 1.50779,-1.89074 c 0.50273,-0.63036 1.01432,-1.27454 1.53517,-1.93231 v 0.0121 c 0.4025,-0.50249 0.70398,-1.04603 0.90483,-1.63076 0.20126,-0.58464 0.30188,-1.22008 0.30188,-1.90526 0,-1.58057 -0.56311,-2.93231 -1.68691,-4.05603 v 0 c -1.13305,-1.13289 -2.52492,-1.69938 -4.17883,-1.69938 z m -131.06806,0.12478 c -0.10666,0 -0.16422,0.0559 -0.16422,0.16422 v 19.54313 c 0,0.10949 0.0608,0.16423 0.16422,0.16423 h 8.25144 c 1.50043,0 2.80519,-0.5138 3.91458,-1.54132 1.1193,-1.03666 1.67854,-2.42326 1.67854,-4.16004 0,-0.50917 -0.0773,-0.99986 -0.21856,-1.47265 -0.13645,-0.48184 -0.3361,-0.95133 -0.59901,-1.40608 -0.49968,-0.82739 -1.21163,-1.38555 -2.12995,-1.67648 0.9917,-0.50921 1.67053,-1.11028 2.03423,-1.8013 0.39969,-0.73659 0.59905,-1.53653 0.59905,-2.40031 0,-1.57308 -0.51086,-2.86573 -1.5288,-3.87506 -1.02816,-1.02752 -2.49941,-1.53923 -4.41796,-1.53923 z m 17.02284,0 c -0.10667,0 -0.16423,0.0559 -0.16423,0.16422 v 19.54313 c 0,0.10949 0.0612,0.16423 0.16423,0.16423 h 12.49257 c 0.10667,0 0.16423,-0.0559 0.16423,-0.16423 v -2.781 c 0,-0.10948 -0.0612,-0.16422 -0.16423,-0.16422 h -9.37049 v -5.42886 h 7.96647 c 0.10666,0 0.16221,-0.0495 0.16221,-0.14973 v -2.64576 c 0,-0.10948 -0.0604,-0.16422 -0.16221,-0.16422 h -7.96647 v -5.23747 h 9.37049 c 0.10667,0 0.16423,-0.0527 0.16423,-0.16221 v -2.8101 c 0,-0.10948 -0.0612,-0.16422 -0.16423,-0.16422 z m 15.54809,0 c -0.10667,0 -0.16423,0.0559 -0.16423,0.16422 v 19.54313 c 0,0.10949 0.0612,0.16423 0.16423,0.16423 h 2.97235 c 0.10667,0 0.15175,-0.0559 0.15175,-0.16423 v -13.44937 l 8.61957,13.53048 c 0.0322,0.0547 0.0765,0.0833 0.13725,0.0833 h 2.79554 c 0.10666,0 0.16422,-0.0527 0.16422,-0.16221 v -19.54591 c 0,-0.10948 -0.0608,-0.16423 -0.16422,-0.16423 h -2.97232 c -0.10666,0 -0.16422,0.0559 -0.16422,0.16423 v 13.44728 l -8.59252,-13.53048 c -0.0322,-0.0547 -0.0745,-0.0813 -0.13525,-0.0813 z m 25.80675,0 c -0.10667,0 -0.16423,0.0559 -0.16423,0.16422 v 19.54313 c 0,0.10949 0.0612,0.16423 0.16423,0.16423 h 12.49253 c 0.10667,0 0.16221,-0.0559 0.16221,-0.16423 v -2.781 c 0,-0.10948 -0.0604,-0.16422 -0.16221,-0.16422 h -9.37045 v -16.59851 c 0,-0.10948 -0.0604,-0.16423 -0.16221,-0.16423 z m -55.25559,2.95987 h 4.13508 c 1.00989,0 1.75944,0.26284 2.25058,0.79041 0.49053,0.50007 0.73425,1.11881 0.73425,1.85536 0,0.74568 -0.24392,1.36985 -0.73425,1.86992 -0.47231,0.50921 -1.22334,0.76131 -2.25058,0.76131 h -4.13508 z m 145.1435,0.53039 c -0.0926,0 -0.13686,0.0447 -0.13686,0.13524 v 16.12013 c 0,0.0906 0.0443,0.13525 0.13686,0.13525 h 2.31079 c 0.0885,0 0.13685,-0.0447 0.13685,-0.13525 v -3.25101 c 0.27371,-0.31717 0.5462,-0.63053 0.82554,-0.94017 0.28578,-0.30953 0.56673,-0.62296 0.83843,-0.94014 l 2.95762,5.20003 c 0.0403,0.0451 0.0684,0.0664 0.1127,0.0664 h 2.90168 c 0.0604,0 0.10062,-0.0201 0.12477,-0.0559 0.0402,-0.0455 0,-0.095 0,-0.14772 -0.74745,-1.16301 -1.49169,-2.30963 -2.2319,-3.44245 -0.73256,-1.14034 -1.47157,-2.29191 -2.21942,-3.45492 l 3.89586,-4.43039 c 0.0403,-0.0455 0.0443,-0.095 0.0403,-0.14772 -0.0403,-0.0527 -0.0644,-0.0789 -0.12477,-0.0789 h -2.76402 c -0.0403,0 -0.0725,0.0161 -0.10063,0.0459 -0.71002,0.86841 -1.41521,1.73283 -2.11759,2.59376 -0.69472,0.85339 -1.3971,1.71492 -2.10712,2.58337 v -9.71991 c 0,-0.0906 -0.0483,-0.13524 -0.13685,-0.13524 z m 19.06113,4.5074 c -1.20833,0 -2.17475,0.39405 -2.89966,1.17934 v -0.91727 c 0,-0.0906 -0.0483,-0.13726 -0.13686,-0.13726 h -2.31079 c -0.0926,0 -0.13685,0.0467 -0.13685,0.13726 v 11.48582 c 0,0.0906 0.0443,0.13524 0.13685,0.13524 h 2.31079 c 0.0926,0 0.13686,-0.0447 0.13686,-0.13524 v -6.84314 c 0,-0.75519 0.19722,-1.32747 0.58886,-1.7202 0.40774,-0.40778 0.9298,-0.61153 1.56415,-0.61153 0.6114,0 1.12098,0.20367 1.52872,0.61153 0.40774,0.40782 0.61141,0.98011 0.61141,1.7202 v 6.84322 c 0,0.0906 0.0403,0.13525 0.12477,0.13525 h 2.3108 c 0.0845,0 0.12478,-0.0447 0.12478,-0.13525 v -6.84322 c 0,-0.74766 0.19722,-1.31995 0.59933,-1.7202 0.40774,-0.40778 0.92979,-0.61153 1.56414,-0.61153 0.61181,0 1.12098,0.20367 1.52872,0.61153 0.39849,0.40009 0.60095,0.97254 0.60095,1.7202 v 6.84322 c 0,0.0906 0.0443,0.13525 0.13685,0.13525 h 2.3112 c 0.0926,0 0.13685,-0.0447 0.13685,-0.13525 v -7.63572 c 0,-1.34425 -0.43109,-2.36775 -1.29165,-3.07008 -0.86861,-0.69481 -1.76137,-1.04209 -2.67506,-1.04209 -1.49531,0 -2.70686,0.48027 -3.63585,1.43936 -0.18918,-0.19642 -0.3864,-0.37393 -0.59893,-0.53248 -0.2093,-0.16623 -0.43068,-0.31757 -0.65729,-0.45346 -0.50595,-0.30188 -1.16405,-0.45342 -1.97189,-0.45342 z m -164.20463,3.20113 h 4.40757 c 1.0555,5e-5 1.81736,0.28055 2.29007,0.84451 0.49058,0.56375 0.73635,1.20909 0.73635,1.93646 0,0.74568 -0.24594,1.39646 -0.73635,1.95107 -0.49963,0.55466 -1.2621,0.83198 -2.29007,0.83198 h -4.40757 z"
       style="opacity:1;fill:#ffffff;fill-opacity:1;fill-rule:evenodd;stroke-width:0.119062;stroke-linecap:square;stroke-miterlimit:10;paint-order:stroke fill markers"
       id="path6959" />
    <path
       d="m 60.822176,452.32159 c -3.031563,0 -5.512054,2.4784 -5.512054,5.50996 v 46.93343 c 0,3.03153 2.480491,5.50996 5.512054,5.50996 h 61.890794 c 3.03157,0 5.50996,-2.47839 5.50996,-5.50996 v -46.93343 c 0,-3.03156 -2.47839,-5.50996 -5.50996,-5.50996 z m 0,2.50432 h 61.890794 c 1.68788,0 3.0056,1.31777 3.0056,3.00564 v 46.93343 c 0,1.68788 -1.31772,3.00979 -3.0056,3.00979 H 60.822176 c -1.687873,0 -3.007694,-1.32191 -3.007694,-3.00979 v -46.93343 c 0,-1.68787 1.319821,-3.00564 3.007694,-3.00564 z m 21.996134,4.35557 c -0.04186,0 -0.07648,0.0201 -0.103847,0.0624 l -2.177805,3.04513 c -0.02013,0.0487 -0.02415,0.0938 -0.01208,0.13524 0.02013,0.0362 0.05836,0.0519 0.114312,0.0519 h 1.595378 c 0.01207,0 0.0322,-0.003 0.05192,-0.0121 0.02013,-0.0121 0.0322,-0.0242 0.04025,-0.0322 l 2.878732,-3.04513 c 0.04186,-0.0415 0.0487,-0.0865 0.02012,-0.13524 -0.02012,-0.0487 -0.06078,-0.0729 -0.116325,-0.0729 z m -4.888048,2.41903 -3.063844,2.4274 c -0.0487,0.0362 -0.06601,0.0817 -0.05192,0.13726 0.02013,0.0483 0.06239,0.0729 0.124778,0.0729 h 1.740964 c 0.305905,-0.18073 0.615031,-0.36548 0.927658,-0.55329 0.312748,-0.18756 0.621995,-0.37594 0.927699,-0.56367 l 2.073757,1.11696 h 1.761774 c 0.05555,0 0.09016,-0.0242 0.103847,-0.0729 0.02013,-0.0555 0.008,-0.10264 -0.04146,-0.13726 l -3.105464,-2.4274 z m 0.615675,3.73156 c -1.20897,0 -2.219706,0.29223 -3.03265,0.8757 -0.80594,0.57667 -1.390018,1.20012 -1.751349,1.87407 h 0.01207 c -0.132022,0.23627 -0.242309,0.47653 -0.332873,0.71969 -0.09016,0.24311 -0.159393,0.49725 -0.208097,0.7613 -0.04186,0.26404 -0.07849,0.68378 -0.106261,1.26049 -0.02013,0.57667 -0.02818,1.32163 -0.02818,2.23186 0,0.91023 0.008,1.65652 0.02818,2.24016 0.02817,0.57667 0.0644,0.99648 0.106261,1.26049 0.0487,0.26404 0.117533,0.5181 0.208097,0.7613 0.09016,0.23627 0.200851,0.47303 0.332873,0.70926 h -0.01207 c 0.361451,0.68096 0.945409,1.30646 1.751349,1.8762 0.819907,0.57668 1.830643,0.86318 3.03265,0.86318 1.188161,0 2.191974,-0.28658 3.011881,-0.86318 0.819908,-0.58363 1.41433,-1.20917 1.782584,-1.8762 0.118337,-0.22219 0.218159,-0.45568 0.301478,-0.69888 0.09016,-0.24311 0.159393,-0.50067 0.208096,-0.77168 0.09741,-0.5489 0.14772,-1.71496 0.14772,-3.50065 0,-0.91023 -0.0161,-1.65519 -0.04347,-2.23186 -0.02013,-0.57671 -0.05555,-0.99645 -0.103847,-1.26049 -0.09016,-0.51416 -0.262838,-1.00848 -0.519999,-1.48099 -0.361452,-0.66007 -0.952292,-1.28347 -1.772199,-1.87407 -0.812944,-0.58368 -1.816757,-0.8757 -3.011841,-0.8757 z m 36.984733,0.22863 c -0.0555,0 -0.0902,0.0282 -0.10384,0.0833 l -5.46211,14.94489 c -0.0121,0.0419 -0.008,0.0817 0.0121,0.11632 0.0201,0.0362 0.0555,0.0499 0.10425,0.0499 l 2.38783,0.002 c 0.0201,0 0.0415,-0.008 0.0624,-0.0201 0.0282,-0.0201 0.0451,-0.0415 0.0519,-0.0624 0.19442,-0.55586 0.3844,-1.10194 0.57201,-1.63695 0.19441,-0.54198 0.39003,-1.09498 0.58448,-1.65777 h 5.50163 l 1.12738,3.29472 c 0.0121,0.0555 0.0483,0.0833 0.10385,0.0833 h 2.38578 c 0.0415,0 0.0728,-0.0201 0.0934,-0.0519 0.0201,-0.0362 0.0241,-0.0749 0.0121,-0.11632 l -5.45172,-14.9449 c -0.008,-0.0201 -0.0242,-0.0362 -0.0519,-0.0519 -0.0201,-0.0201 -0.0415,-0.0322 -0.0624,-0.0322 z m -53.743362,0.0201 c -0.08332,0 -0.124777,0.0415 -0.124777,0.12478 v 14.9366 c 0,0.0833 0.04146,0.12277 0.124777,0.12277 h 9.545177 c 0.08332,0 0.12679,-0.0403 0.12679,-0.12277 v -2.12789 c 0,-0.0833 -0.04387,-0.12478 -0.12679,-0.12478 h -7.159436 v -12.68389 c 0,-0.0833 -0.04146,-0.12478 -0.124777,-0.12478 z m 24.856149,0 c -0.08332,0 -0.124778,0.0415 -0.124778,0.12478 v 14.9366 c 0,0.0833 0.04186,0.12277 0.124778,0.12277 h 2.260963 c 0.08332,0 0.12679,-0.0403 0.12679,-0.12277 v -14.9366 c 0,-0.0833 -0.04307,-0.12478 -0.12679,-0.12478 z m 10.662134,0 c -0.08332,0 -0.124777,0.0415 -0.124777,0.12478 v 14.9366 c 0,0.0833 0.04146,0.12277 0.124777,0.12277 h 2.263056 c 0.08332,0 0.122765,-0.0403 0.122765,-0.12277 v -6.25464 h 2.699858 l 3.05346,6.30455 0.0519,0.0539 c 0.0201,0.0121 0.0439,0.0201 0.0644,0.0201 h 2.68738 c 0.0487,0 0.0833,-0.0161 0.10425,-0.0519 0.0201,-0.0419 0.0201,-0.0885 0,-0.13725 -0.56278,-1.07699 -1.12754,-2.15672 -1.69729,-3.24067 -0.56975,-1.09088 -1.13656,-2.1741 -1.69938,-3.25105 0.4308,-0.1598 0.81608,-0.37232 1.15652,-0.63649 0.34052,-0.27088 0.63938,-0.58375 0.89646,-0.93812 0.24996,-0.38198 0.4455,-0.79157 0.58448,-1.22926 0.13887,-0.44473 0.2081,-0.91486 0.2081,-1.40817 0,-0.33368 -0.0415,-0.65456 -0.12478,-0.96722 -0.0833,-0.31275 -0.19924,-0.60819 -0.34535,-0.88608 -0.13886,-0.27813 -0.30107,-0.53546 -0.4888,-0.77169 -0.18073,-0.24311 -0.37272,-0.45926 -0.5741,-0.64687 -0.38922,-0.32643 -0.84337,-0.57719 -1.3645,-0.75088 -0.52108,-0.18072 -1.10512,-0.27048 -1.75135,-0.27048 z m 2.385781,2.26101 h 3.440348 c 0.31275,0 0.60127,0.0402 0.86527,0.11632 0.27089,0.0765 0.5078,0.18355 0.7093,0.32241 0.22943,0.17388 0.4017,0.39687 0.52,0.66768 0.12478,0.27089 0.18918,0.57816 0.18918,0.92561 0,0.6114 -0.20246,1.14026 -0.60529,1.58495 -0.40303,0.44469 -1.0078,0.66768 -1.81378,0.66768 h -3.305149 z m -21.145435,0.0121 c 0.249957,0 0.486994,0.0322 0.709299,0.0938 0.222586,0.0555 0.426013,0.13162 0.613622,0.22862 0.187568,0.0902 0.355414,0.19924 0.501282,0.32442 0.152953,0.12478 0.280548,0.25278 0.384797,0.3848 0.132023,0.16664 0.245932,0.35863 0.343339,0.57406 0.09741,0.20849 0.17187,0.42247 0.220574,0.64481 0.05555,0.22943 0.097,0.59036 0.124777,1.08367 0.02818,0.48639 0.04146,1.10843 0.04146,1.86578 0,1.52861 -0.05514,2.51519 -0.166235,2.95988 -0.09016,0.44469 -0.282158,0.84374 -0.574056,1.19806 -0.215341,0.29182 -0.507441,0.54246 -0.875695,0.75088 -0.368294,0.20166 -0.808717,0.30389 -1.32288,0.30389 -0.521126,0 -0.967104,-0.10223 -1.335398,-0.30389 -0.368294,-0.2085 -0.661641,-0.45902 -0.883986,-0.75088 -0.124778,-0.15979 -0.241102,-0.34293 -0.345352,-0.55119 -0.09741,-0.21534 -0.173078,-0.43149 -0.228624,-0.64687 -0.05555,-0.23627 -0.09338,-0.59736 -0.114312,-1.08371 -0.02013,-0.49331 -0.0322,-1.11881 -0.0322,-1.87617 0,-0.74347 0.008,-1.36204 0.0322,-1.85535 0.02013,-0.49336 0.05877,-0.85787 0.114312,-1.0941 0.05555,-0.22218 0.13162,-0.43636 0.228624,-0.64481 0.09741,-0.21535 0.213329,-0.40734 0.345352,-0.57406 0.222184,-0.27089 0.515732,-0.51131 0.883986,-0.71968 0.368294,-0.2085 0.814272,-0.31195 1.335398,-0.31195 z m 37.943633,1.34373 c 0.0282,0.0902 0.0483,0.1594 0.0624,0.2081 0.0201,0.0483 0.0362,0.0938 0.0519,0.13524 0.0121,0.0362 0.0241,0.0749 0.0322,0.11633 0.0121,0.0362 0.0322,0.0865 0.0519,0.15617 0.0419,0.13202 0.0797,0.2564 0.11432,0.37433 0.0419,0.11834 0.0817,0.22702 0.11632,0.32442 0.0692,0.21534 0.13524,0.42251 0.19763,0.62401 0.0692,0.20125 0.13524,0.40379 0.19763,0.60529 0.0362,0.0974 0.0692,0.19723 0.10385,0.30148 0.0362,0.0974 0.0692,0.20085 0.10385,0.31194 0.0414,0.11834 0.0829,0.24432 0.12477,0.37634 0.0487,0.13203 0.097,0.26646 0.14571,0.40561 0.0765,0.21534 0.16463,0.46945 0.26203,0.76126 0.0974,0.28498 0.20448,0.59765 0.32241,0.93813 0.0121,0.0419 0.0322,0.0902 0.0519,0.1457 0.0282,0.0555 0.0483,0.10747 0.0624,0.15618 h -4.00192 c 0.15295,-0.43777 0.27732,-0.79886 0.37433,-1.08371 0.0974,-0.29182 0.1924,-0.56315 0.28296,-0.81327 0.0902,-0.25036 0.16946,-0.48832 0.23909,-0.71763 0.0765,-0.22943 0.14893,-0.44884 0.21856,-0.65729 0.0362,-0.0974 0.0692,-0.19723 0.10385,-0.30148 0.0362,-0.10425 0.0692,-0.21333 0.10384,-0.32442 0.0362,-0.10425 0.0692,-0.2077 0.10385,-0.31195 0.0419,-0.10424 0.0817,-0.21453 0.11633,-0.33287 0.0121,-0.0362 0.0241,-0.0712 0.0322,-0.10626 0.008,-0.0362 0.0161,-0.0704 0.0282,-0.1123 0.0555,-0.16664 0.11633,-0.34817 0.17871,-0.54286 0.0692,-0.19441 0.14209,-0.40718 0.21857,-0.63649 z m -42.588284,19.17565 c -0.07004,0 -0.105859,0.0362 -0.105859,0.10586 v 12.5612 c 0,0.07 0.03623,0.10385 0.105859,0.10385 h 8.028851 c 0.07004,0 0.10586,-0.0322 0.10586,-0.10385 v -1.78882 c 0,-0.07 -0.03623,-0.10425 -0.10586,-0.10425 h -6.021628 v -3.48817 h 5.118885 c 0.07004,0 0.10425,-0.0322 0.10425,-0.0978 v -1.69938 c 0,-0.07 -0.0322,-0.10627 -0.10425,-0.10627 h -5.118885 v -3.36753 h 6.021628 c 0.07004,0 0.10586,-0.0322 0.10586,-0.10385 v -1.80544 c 0,-0.07 -0.03623,-0.10586 -0.10586,-0.10586 z m 8.950311,0 c -0.04025,0 -0.07004,0.0201 -0.08734,0.0539 -0.0161,0.0282 -0.01207,0.0632 0.008,0.10385 0.596114,1.01686 1.188161,2.02747 1.778398,3.03265 0.590237,1.00514 1.186913,2.0158 1.788822,3.03265 l -3.812669,6.3919 c -0.02415,0.0402 -0.02415,0.0793 -0.008,0.11431 0.0161,0.0282 0.0483,0.0439 0.0958,0.0439 h 2.148664 c 0.03623,4e-5 0.0648,-0.0161 0.08734,-0.0519 0.444207,-0.75969 0.889179,-1.51504 1.333305,-2.26306 0.444127,-0.74802 0.887046,-1.50123 1.331212,-2.26096 l 2.664477,4.52402 c 0.02415,0.0362 0.05233,0.0519 0.08734,0.0519 h 2.156956 c 0.0475,4e-5 0.0801,-0.0121 0.09781,-0.0439 0.0161,-0.0362 0.01208,-0.0729 -0.008,-0.11431 -0.642804,-1.06946 -1.280375,-2.13297 -1.911507,-3.19076 -0.631211,-1.06358 -1.268743,-2.13172 -1.911547,-3.20114 l 3.56722,-6.0653 c 0.02415,-0.0411 0.02818,-0.0749 0.01208,-0.10385 -0.0161,-0.0362 -0.04709,-0.0539 -0.08734,-0.0539 h -2.156956 c -0.03623,0 -0.0644,0.0201 -0.08734,0.0539 -0.403232,0.70713 -0.807349,1.40991 -1.210581,2.11119 -0.403272,0.69546 -0.805215,1.39336 -1.208487,2.09457 l -2.418988,-4.20576 c -0.02415,-0.0362 -0.05233,-0.0539 -0.08734,-0.0539 z m 11.007405,0 c -0.07004,0 -0.105859,0.0362 -0.105859,0.10586 v 12.5612 c 0,0.07 0.03623,0.10385 0.105859,0.10385 h 1.903215 c 0.07004,0 0.103847,-0.0322 0.103847,-0.10385 v -12.5612 c 0,-0.07 -0.0322,-0.10586 -0.103847,-0.10586 z m 3.394585,0 c -0.06963,0 -0.103847,0.0362 -0.103847,0.10586 v 1.69105 c 0,0.07 0.03623,0.10626 0.103847,0.10626 h 3.340533 v 10.76405 c 0,0.07 0.0322,0.10385 0.10384,0.10385 h 1.90112 c 0.07,0 0.10586,-0.0322 0.10586,-0.10385 v -10.76405 h 3.33011 c 0.07,0 0.10586,-0.0362 0.10586,-0.10626 v -1.69105 c 0,-0.07 -0.0362,-0.10586 -0.10586,-0.10586 z"
       style="color:#000000;font-style:normal;font-variant:normal;font-weight:normal;font-stretch:normal;font-size:medium;line-height:normal;font-family:sans-serif;font-variant-ligatures:normal;font-variant-position:normal;font-variant-caps:normal;font-variant-numeric:normal;font-variant-alternates:normal;font-variant-east-asian:normal;font-feature-settings:normal;font-variation-settings:normal;text-indent:0;text-align:start;text-decoration:none;text-decoration-line:none;text-decoration-style:solid;text-decoration-color:#000000;letter-spacing:normal;word-spacing:normal;text-transform:none;writing-mode:lr-tb;direction:ltr;text-orientation:mixed;dominant-baseline:auto;baseline-shift:baseline;text-anchor:start;white-space:normal;shape-padding:0;shape-margin:0;inline-size:0;clip-rule:nonzero;display:inline;overflow:visible;visibility:visible;opacity:1;isolation:auto;mix-blend-mode:normal;color-interpolation:sRGB;color-interpolation-filters:linearRGB;solid-color:#000000;solid-opacity:1;vector-effect:none;fill:#000000;fill-opacity:1;fill-rule:evenodd;stroke:none;stroke-width:0.622002;stroke-linecap:square;stroke-linejoin:miter;stroke-miterlimit:4;stroke-dasharray:none;stroke-dashoffset:0;stroke-opacity:1;paint-order:stroke fill markers;color-rendering:auto;image-rendering:auto;shape-rendering:auto;text-rendering:auto;enable-background:accumulate;stop-color:#000000;stop-opacity:1"
       id="path6122" />
    <path
       sodipodi:nodetypes="ssccccssssccccssscsscscsscsscssscccccccsscscscsssscc"
       d="m 47.761381,438.57951 c -3.371521,0 -6.123181,2.75102 -6.123181,6.12282 v 61.7149 11.50519 11.97491 3.39068 97.98595 c 0,3.37169 2.75166,6.12045 6.123181,6.12045 H 344.41407 c 3.3714,0 6.12334,-2.74876 6.12334,-6.12045 v -97.98595 -3.30245 -14.0698 -9.49853 -61.7149 c 0,-3.3718 -2.75194,-6.12282 -6.12334,-6.12282 z m 0,2.30766 H 344.41407 c 2.13409,0 3.81536,1.68131 3.81939,3.81516 v 61.7149 9.49853 c 0,0.0769 0,0.15054 0,0.22903 v 1.75984 c 0,2.12125 -1.70784,3.82869 -3.82906,3.82869 h -1.97188 c -0.0483,0.004 -0.0926,0.008 -0.13685,0.008 H 49.646966 c -0.04629,0 -0.08976,-0.004 -0.136047,-0.008 h -1.732995 c -2.120891,0 -3.829091,-1.70744 -3.829091,-3.82869 v -73.18636 c 0,-0.40528 0.0648,-0.79451 0.17831,-1.16059 0.0081,-0.0161 0.0161,-0.0242 0.0161,-0.0322 0.487798,-1.54361 1.914887,-2.63884 3.636411,-2.63884 z m -0.02013,83.17397 h 1.699224 292.990425 1.98195 c 2.10994,0 3.80933,1.69793 3.80933,3.80776 v 1.85406 c 0,0.089 0,0.17912 0,0.26244 v 3.30245 97.98595 c 0,1.33721 -0.66213,2.49599 -1.68128,3.17514 -0.60859,0.41169 -1.34357,0.65182 -2.13691,0.65182 H 47.727611 c -2.110024,0 -3.808805,-1.69866 -3.808805,-3.80856 V 527.86873 c 0,-2.10982 1.698781,-3.80775 3.808805,-3.80775 z"
       style="color:#000000;font-style:normal;font-variant:normal;font-weight:normal;font-stretch:normal;font-size:medium;line-height:normal;font-family:sans-serif;font-variant-ligatures:normal;font-variant-position:normal;font-variant-caps:normal;font-variant-numeric:normal;font-variant-alternates:normal;font-variant-east-asian:normal;font-feature-settings:normal;font-variation-settings:normal;text-indent:0;text-align:start;text-decoration:none;text-decoration-line:none;text-decoration-style:solid;text-decoration-color:#000000;letter-spacing:normal;word-spacing:normal;text-transform:none;writing-mode:lr-tb;direction:ltr;text-orientation:mixed;dominant-baseline:auto;baseline-shift:baseline;text-anchor:start;white-space:normal;shape-padding:0;shape-margin:0;inline-size:0;clip-rule:nonzero;display:inline;overflow:visible;visibility:visible;opacity:1;isolation:auto;mix-blend-mode:normal;color-interpolation:sRGB;color-interpolation-filters:linearRGB;solid-color:#000000;solid-opacity:1;vector-effect:none;fill:#ffffff;fill-opacity:1;fill-rule:evenodd;stroke:none;stroke-width:0.5535;stroke-linecap:square;stroke-linejoin:miter;stroke-miterlimit:10;stroke-dasharray:none;stroke-dashoffset:0;stroke-opacity:1;paint-order:stroke fill markers;color-rendering:auto;image-rendering:auto;shape-rendering:auto;text-rendering:auto;enable-background:accumulate;stop-color:#000000;stop-opacity:1"
       id="path12014" />
  </g>
</svg>
