<?xml version="1.0" encoding="UTF-8"?>
<!DOCTYPE svg PUBLIC "-//W3C//DTD SVG 1.1//EN" "http://www.w3.org/Graphics/SVG/1.1/DTD/svg11.dtd">
<!-- Creator: CorelDRAW -->
<svg xmlns="http://www.w3.org/2000/svg" xml:space="preserve" width="85.4998mm" height="52.9166mm" version="1.1" style="shape-rendering:geometricPrecision; text-rendering:geometricPrecision; image-rendering:optimizeQuality; fill-rule:evenodd; clip-rule:evenodd"
viewBox="0 0 1791.36 1108.69"
 xmlns:xlink="http://www.w3.org/1999/xlink"
 xmlns:xodm="http://www.corel.com/coreldraw/odm/2003">
 <defs>
  <style type="text/css">
   <![CDATA[
    .fil3 {fill:black}
    .fil0 {fill:#0A9646}
    .fil2 {fill:#FFD70F}
    .fil1 {fill:white}
    .fil7 {fill:black;fill-rule:nonzero}
    .fil6 {fill:#0046AA;fill-rule:nonzero}
    .fil5 {fill:#F00A0A;fill-rule:nonzero}
    .fil4 {fill:white;fill-rule:nonzero}
   ]]>
  </style>
 </defs>
 <g id="Layer_x0020_1">
  <metadata id="CorelCorpID_0Corel-Layer"/>
  <g id="_2021666064608">
   <polygon id="rect15575" class="fil0" points="-0,0 1791.36,0 1791.36,1108.69 -0,1108.69 "/>
   <path id="path15582" class="fil1" d="M44.52 7.35c-20.25,0 -36.78,16.53 -36.78,36.78l0 488.35 0 69.11 0 71.93 0 20.37 0 370.28c0,20.25 16.53,36.77 36.78,36.77l1702.29 0c20.25,0 36.78,-16.51 36.78,-36.77l-0 -370.28 0 -19.84 0 -84.52 0 -57.06 0 -488.35c0,-20.25 -16.53,-36.78 -36.78,-36.78l-1702.29 0zm0 13.86l1702.29 0c12.82,0 22.94,10.1 22.94,22.92l0 488.35 0 57.06c0,0.44 -0.02,0.9 -0.05,1.37l0 10.57c0,12.74 -10.26,23 -23,23l-11.84 0c-0.27,0.01 -0.55,0.03 -0.82,0.03l-1678.27 0c-0.27,0 -0.54,-0.01 -0.82,-0.03l-10.41 0c-12.74,0 -23,-10.26 -23,-23l0 -557.26c0,-2.43 0.38,-4.77 1.07,-6.97 0.02,-0.06 0.05,-0.13 0.07,-0.19 2.93,-9.27 11.5,-15.85 21.84,-15.85zm-0.1 617.25l10.21 0 1680.3 0 11.91 0c12.67,0 22.88,10.2 22.88,22.88l0 11.14c0.04,0.55 0.05,1.08 0.05,1.58l0 19.84 0 370.28c0,8.03 -3.98,14.99 -10.1,19.07 -3.66,2.47 -8.07,3.92 -12.84,3.92l-1702.41 0c-12.67,0 -22.88,-10.2 -22.88,-22.88l0 -402.94c0,-12.67 10.2,-22.88 22.88,-22.88z"/>
   <polygon id="rect15605" class="fil2" points="114.53,245.2 452.09,245.2 452.09,399.43 114.53,399.43 "/>
   <path id="path15631" class="fil3" d="M125.96 248.34c-4.5,0 -8.17,3.66 -8.17,8.16l0 131.64c0,4.5 3.68,8.16 8.17,8.16l314.81 0c4.5,0 8.17,-3.66 8.17,-8.16l0 -131.64c0,-4.5 -3.68,-8.16 -8.17,-8.16l-314.81 0zm0 2.97l314.81 0c2.9,0 5.19,2.29 5.19,5.19l0 131.64c0,2.9 -2.29,5.17 -5.19,5.17l-314.81 0c-2.9,0 -5.19,-2.28 -5.19,-5.17l0 -131.64c0,-2.9 2.29,-5.19 5.19,-5.19z"/>
   <path id="path17496" class="fil4" d="M1480.18 200.45l0 280.58 196.43 0 0 -280.58 -196.43 0zm7.66 9.2l181.01 0 0 263.68 -181.01 0 0 -263.68zm75.77 20.22l-12.39 49.17 21.74 -0 1.57 -49.17 -10.92 0zm18.59 0l1.57 49.17 21.75 -0 -12.4 -49.17 -10.92 0zm-88.19 55.39l0 10.77 17 6.14 0 3.24 7.82 -0 0 -3.24c0,0 11.57,-1.74 25.09,-2.97 10.83,-0.98 22.9,-1.51 31.29,-1.54 9.97,-0.04 24.71,0.52 37.36,1.6 13.93,1.19 25.34,2.91 25.34,2.91l0 3.24 7.66 0 0 -3.24 17 -6.14 0 -10.77 -168.56 0zm51.06 20.07l-37.17 147.91 55.71 0 7.73 -147.91 -26.27 0zm40.22 0l7.73 147.91 55.71 0 -37.17 -147.91 -26.27 0z"/>
   <circle id="path815" class="fil5" cx="596.57" cy="862.99" r="169.15"/>
   <circle id="circle817" class="fil4" cx="596.57" cy="862.99" r="127.5"/>
   <circle id="circle817-6" class="fil6" cx="1196.93" cy="862.99" r="169.15"/>
   <path class="fil4" d="M680.14 533.04c-0.4,0 -0.59,-0.2 -0.59,-0.59l0 -70.59c0,-0.4 0.2,-0.59 0.59,-0.59l45.12 0c0.4,0 0.59,0.2 0.59,0.59l0 10.14c0,0.39 -0.2,0.59 -0.59,0.59l-33.84 0 0 18.91 28.77 0c0.4,0 0.59,0.2 0.59,0.59l0 9.56c0,0.36 -0.2,0.54 -0.59,0.54l-28.77 0 0 19.61 33.84 0c0.4,0 0.59,0.2 0.59,0.59l0 10.05c0,0.4 -0.2,0.59 -0.59,0.59l-45.12 0zm91.02 0c-0.2,0 -0.36,-0.1 -0.49,-0.29l-14.98 -25.42c-2.49,4.27 -4.99,8.5 -7.49,12.71 -2.5,4.2 -4.99,8.44 -7.48,12.71 -0.13,0.19 -0.3,0.29 -0.49,0.29l-12.07 0c-0.27,0 -0.45,-0.09 -0.54,-0.27 -0.1,-0.18 -0.08,-0.39 0.05,-0.61l21.43 -35.91c-3.38,-5.72 -6.73,-11.4 -10.05,-17.05 -3.31,-5.65 -6.65,-11.33 -10,-17.05 -0.13,-0.23 -0.14,-0.43 -0.04,-0.62 0.1,-0.18 0.26,-0.27 0.49,-0.27l12.12 0c0.2,0 0.36,0.1 0.49,0.29l13.6 23.65c2.27,-3.94 4.53,-7.88 6.8,-11.8 2.26,-3.93 4.53,-7.88 6.8,-11.85 0.13,-0.2 0.29,-0.29 0.49,-0.29l12.12 0c0.23,0 0.39,0.09 0.49,0.27 0.1,0.18 0.08,0.39 -0.05,0.62l-20.05 34.09c3.61,6.01 7.19,11.99 10.74,17.96 3.55,5.96 7.13,11.94 10.74,17.96 0.13,0.23 0.15,0.43 0.05,0.61 -0.1,0.18 -0.28,0.27 -0.54,0.27l-12.12 0zm30.93 -60.45l0 21.57 15.32 0c3.78,0 6.59,-1.13 8.42,-3.4 1.87,-2.2 2.81,-4.66 2.81,-7.39 0,-4.07 -1.45,-7.04 -4.33,-8.91 -1.88,-1.25 -4.3,-1.87 -7.29,-1.87l-14.93 0zm-11.28 60.45c-0.4,0 -0.59,-0.2 -0.59,-0.59l0 -70.59c0,-0.4 0.2,-0.59 0.59,-0.59l25.62 0c2.82,0 5.5,0.3 8.03,0.89 2.56,0.59 5.29,2 8.18,4.23 1.11,0.89 2.14,1.91 3.08,3.08 0.93,1.16 1.78,2.45 2.54,3.87 0.72,1.44 1.28,3.04 1.67,4.78 0.39,1.74 0.59,3.6 0.59,5.57 0,5.16 -1.94,10.08 -5.81,14.78 -3.88,4.66 -9.51,7 -16.9,7l-15.72 0 0 27c0,0.4 -0.2,0.59 -0.59,0.59l-10.69 0zm70.14 -61.09l0 20.25 15.62 0c3.81,0 6.67,-1.05 8.57,-3.15 1.91,-2.1 2.86,-4.6 2.86,-7.49 0,-1.64 -0.29,-3.1 -0.87,-4.39 -0.57,-1.28 -1.4,-2.33 -2.49,-3.15 -0.95,-0.66 -2.06,-1.17 -3.33,-1.53 -1.26,-0.36 -2.64,-0.54 -4.11,-0.54l-16.25 0zm-11.28 61.09c-0.4,0 -0.59,-0.2 -0.59,-0.59l0 -70.59c0,-0.4 0.2,-0.59 0.59,-0.59l27.63 0c3.06,0 5.82,0.42 8.28,1.26 2.47,0.84 4.62,2.03 6.45,3.57 0.95,0.89 1.87,1.9 2.74,3.03 0.87,1.13 1.64,2.36 2.31,3.67 0.67,1.32 1.21,2.71 1.6,4.19 0.4,1.48 0.59,3 0.59,4.58 0,2.33 -0.33,4.54 -0.99,6.63 -0.66,2.08 -1.58,4.03 -2.76,5.84 -1.22,1.67 -2.63,3.14 -4.24,4.41 -1.61,1.26 -3.43,2.28 -5.47,3.03 2.66,5.09 5.33,10.2 8.03,15.34 2.69,5.14 5.37,10.25 8.03,15.34 0.1,0.23 0.1,0.43 0,0.61 -0.1,0.18 -0.26,0.27 -0.49,0.27l-12.71 0c-0.1,0 -0.2,-0.04 -0.29,-0.12 -0.1,-0.09 -0.18,-0.16 -0.25,-0.22l-14.44 -29.81 -12.76 0 0 29.56c0,0.4 -0.2,0.59 -0.59,0.59l-10.69 0zm60.58 0c-0.4,0 -0.59,-0.2 -0.59,-0.59l0 -70.59c0,-0.4 0.2,-0.59 0.59,-0.59l45.12 0c0.4,0 0.59,0.2 0.59,0.59l0 10.14c0,0.39 -0.2,0.59 -0.59,0.59l-33.84 0 0 18.91 28.77 0c0.4,0 0.59,0.2 0.59,0.59l0 9.56c0,0.36 -0.2,0.54 -0.59,0.54l-28.77 0 0 19.61 33.84 0c0.4,0 0.59,0.2 0.59,0.59l0 10.05c0,0.4 -0.2,0.59 -0.59,0.59l-45.12 0zm55.57 -18.13c0.1,-0.13 0.23,-0.2 0.39,-0.2 0.16,0 0.31,0.05 0.44,0.15 2.59,2.1 5.58,3.78 8.94,5.05 3.36,1.26 6.92,1.89 10.66,1.89 4.2,0 7.52,-0.87 9.95,-2.61 2.3,-1.68 3.45,-3.89 3.45,-6.65 0,-5.19 -2.91,-8.18 -8.72,-8.96l0.05 0c-0.82,-0.1 -1.6,-0.2 -2.34,-0.3 -0.74,-0.1 -1.48,-0.19 -2.22,-0.29 -0.74,-0.1 -1.49,-0.21 -2.27,-0.32 -0.77,-0.11 -1.62,-0.24 -2.54,-0.36 -3.09,-0.43 -5.84,-1.21 -8.25,-2.34 -2.42,-1.13 -4.45,-2.63 -6.09,-4.51 -1.64,-1.9 -2.87,-3.98 -3.69,-6.23 -0.82,-2.25 -1.24,-4.71 -1.24,-7.36 0,-6.24 2.07,-11.32 6.21,-15.22 4.17,-3.98 9.97,-5.96 17.39,-5.96 2.2,0 4.35,0.19 6.43,0.57 2.08,0.38 4.1,0.9 6.06,1.55 1.95,0.66 3.83,1.44 5.62,2.34 1.79,0.9 3.51,1.89 5.15,2.98 0.33,0.23 0.38,0.51 0.14,0.84l-5.96 8.82c-0.23,0.3 -0.49,0.35 -0.79,0.15 -2.56,-1.61 -5.29,-2.9 -8.18,-3.87 -2.89,-0.97 -5.88,-1.45 -8.97,-1.45 -1.57,0 -3.04,0.19 -4.39,0.57 -1.35,0.38 -2.56,0.99 -3.64,1.85 -2.14,1.54 -3.21,3.89 -3.21,7.04 0,1.81 0.72,3.57 2.17,5.27 0.72,0.79 1.69,1.45 2.91,1.99 1.21,0.54 2.7,0.95 4.48,1.21 0.95,0.16 2.07,0.34 3.35,0.52 1.28,0.18 2.79,0.37 4.53,0.57 6.73,0.82 11.73,3.3 14.98,7.44 3.25,4.04 4.87,8.54 4.87,13.5 0,6.63 -2.32,11.82 -6.95,15.57 -4.66,3.68 -10.8,5.52 -18.42,5.52 -10.74,0 -19.87,-3.29 -27.39,-9.86 -0.13,-0.1 -0.2,-0.23 -0.2,-0.39 0,-0.16 0.05,-0.31 0.15,-0.44l7.09 -8.03zm56.93 0c0.1,-0.13 0.23,-0.2 0.4,-0.2 0.16,0 0.31,0.05 0.44,0.15 2.59,2.1 5.57,3.78 8.94,5.05 3.37,1.26 6.92,1.89 10.66,1.89 4.21,0 7.53,-0.87 9.96,-2.61 2.3,-1.68 3.45,-3.89 3.45,-6.65 0,-5.19 -2.91,-8.18 -8.72,-8.96l0.05 0c-0.82,-0.1 -1.61,-0.2 -2.34,-0.3 -0.74,-0.1 -1.48,-0.19 -2.21,-0.29 -0.74,-0.1 -1.5,-0.21 -2.27,-0.32 -0.77,-0.11 -1.62,-0.24 -2.54,-0.36 -3.09,-0.43 -5.84,-1.21 -8.25,-2.34 -2.42,-1.13 -4.45,-2.63 -6.09,-4.51 -1.64,-1.9 -2.87,-3.98 -3.69,-6.23 -0.82,-2.25 -1.24,-4.71 -1.24,-7.36 0,-6.24 2.07,-11.32 6.21,-15.22 4.17,-3.98 9.97,-5.96 17.39,-5.96 2.2,0 4.35,0.19 6.43,0.57 2.08,0.38 4.1,0.9 6.06,1.55 1.95,0.66 3.83,1.44 5.62,2.34 1.79,0.9 3.51,1.89 5.15,2.98 0.32,0.23 0.37,0.51 0.14,0.84l-5.96 8.82c-0.23,0.3 -0.49,0.35 -0.79,0.15 -2.56,-1.61 -5.29,-2.9 -8.18,-3.87 -2.89,-0.97 -5.88,-1.45 -8.97,-1.45 -1.58,0 -3.04,0.19 -4.39,0.57 -1.35,0.38 -2.56,0.99 -3.64,1.85 -2.13,1.54 -3.2,3.89 -3.2,7.04 0,1.81 0.72,3.57 2.17,5.27 0.72,0.79 1.69,1.45 2.9,1.99 1.22,0.54 2.71,0.95 4.49,1.21 0.95,0.16 2.07,0.34 3.35,0.52 1.28,0.18 2.79,0.37 4.53,0.57 6.73,0.82 11.73,3.3 14.98,7.44 3.25,4.04 4.87,8.54 4.87,13.5 0,6.63 -2.32,11.82 -6.95,15.57 -4.66,3.68 -10.8,5.52 -18.42,5.52 -10.74,0 -19.87,-3.29 -27.39,-9.86 -0.13,-0.1 -0.2,-0.23 -0.2,-0.39 0,-0.16 0.05,-0.31 0.15,-0.44l7.09 -8.03zm67.94 18.13c-0.32,0 -0.52,-0.15 -0.59,-0.44l-17.69 -70.6c-0.06,-0.19 -0.03,-0.37 0.1,-0.52 0.13,-0.15 0.3,-0.22 0.49,-0.22l11.33 0c0.33,0 0.53,0.15 0.59,0.44l10.64 48.23c2.17,-8.08 4.35,-16.11 6.55,-24.09 2.2,-7.98 4.4,-16.02 6.6,-24.14 0.07,-0.3 0.26,-0.44 0.59,-0.44l7.73 0c0.3,0 0.48,0.15 0.54,0.44l13.2 48.23c1.77,-8.08 3.55,-16.11 5.32,-24.09 1.77,-7.98 3.55,-16.02 5.32,-24.14 0.06,-0.3 0.26,-0.44 0.59,-0.44l11.33 0c0.2,0 0.36,0.07 0.49,0.22 0.13,0.15 0.17,0.32 0.1,0.52l-17.68 70.6c-0.07,0.3 -0.26,0.44 -0.59,0.44l-8.92 0c-0.3,0 -0.48,-0.15 -0.54,-0.44l-13.05 -49.01c-2.17,8.24 -4.34,16.42 -6.5,24.53 -2.17,8.11 -4.34,16.27 -6.5,24.48 -0.07,0.3 -0.25,0.44 -0.54,0.44l-8.92 0zm62.78 -0.05c-0.23,0 -0.4,-0.08 -0.49,-0.24 -0.1,-0.17 -0.12,-0.35 -0.05,-0.54l25.81 -70.64c0.06,-0.26 0.23,-0.39 0.49,-0.39l8.82 0c0.1,0 0.21,0.04 0.32,0.12 0.12,0.09 0.19,0.18 0.22,0.27l25.77 70.64c0.06,0.2 0.05,0.38 -0.05,0.54 -0.1,0.16 -0.25,0.24 -0.44,0.24l-11.28 0c-0.26,0 -0.43,-0.13 -0.49,-0.39l-5.32 -15.56 -26.01 0c-0.92,2.66 -1.83,5.26 -2.73,7.8 -0.91,2.55 -1.82,5.13 -2.74,7.76 -0.03,0.1 -0.1,0.19 -0.22,0.27 -0.12,0.08 -0.22,0.12 -0.32,0.12l-11.28 0zm39.75 -26.55c-0.07,-0.23 -0.16,-0.47 -0.27,-0.74 -0.11,-0.26 -0.2,-0.49 -0.27,-0.69 -0.56,-1.61 -1.07,-3.09 -1.53,-4.46 -0.46,-1.36 -0.87,-2.55 -1.23,-3.57 -0.23,-0.66 -0.45,-1.3 -0.67,-1.92 -0.21,-0.62 -0.42,-1.22 -0.61,-1.77 -0.17,-0.53 -0.33,-1.03 -0.49,-1.5 -0.17,-0.48 -0.33,-0.94 -0.49,-1.4 -0.3,-0.95 -0.6,-1.91 -0.91,-2.86 -0.31,-0.95 -0.64,-1.94 -0.97,-2.96 -0.16,-0.46 -0.33,-0.97 -0.52,-1.53 -0.18,-0.56 -0.37,-1.15 -0.57,-1.77 -0.1,-0.33 -0.17,-0.58 -0.22,-0.76 -0.05,-0.18 -0.11,-0.36 -0.17,-0.54 -0.07,-0.18 -0.14,-0.38 -0.22,-0.61 -0.08,-0.23 -0.19,-0.56 -0.32,-0.98 -0.36,1.08 -0.7,2.08 -1.01,3 -0.31,0.92 -0.6,1.77 -0.87,2.56 -0.06,0.19 -0.11,0.38 -0.14,0.54 -0.03,0.16 -0.08,0.32 -0.15,0.49 -0.16,0.56 -0.34,1.09 -0.52,1.58 -0.18,0.49 -0.36,0.98 -0.52,1.47 -0.16,0.53 -0.33,1.04 -0.49,1.53 -0.16,0.49 -0.33,0.97 -0.49,1.43 -0.33,0.98 -0.67,2.02 -1.01,3.1 -0.34,1.09 -0.73,2.22 -1.15,3.4 -0.43,1.18 -0.87,2.45 -1.33,3.82 -0.46,1.36 -1.05,3.08 -1.77,5.15l18.91 0zm37.66 26.6c-0.36,0 -0.54,-0.2 -0.54,-0.59l0 -28.86c-3.55,-6.93 -7.07,-13.84 -10.59,-20.74 -3.51,-6.9 -7.03,-13.81 -10.54,-20.74 -0.1,-0.23 -0.1,-0.43 0,-0.59 0.1,-0.16 0.28,-0.24 0.54,-0.24l11.23 0c0.1,0 0.2,0.04 0.29,0.12 0.1,0.08 0.18,0.16 0.25,0.22l14.48 30.25c2.43,-5.09 4.84,-10.14 7.22,-15.13 2.38,-4.99 4.79,-10.03 7.22,-15.12 0.07,-0.07 0.15,-0.14 0.25,-0.22 0.1,-0.08 0.19,-0.12 0.29,-0.12l11.28 0c0.26,0 0.44,0.08 0.54,0.24 0.1,0.17 0.09,0.36 0,0.59l-21.19 41.48 0 28.86c0,0.4 -0.19,0.59 -0.59,0.59l-10.15 0z"/>
   <path class="fil7" d="M219.86 341.46c0.27,0 0.49,0.1 0.66,0.3 0.18,0.2 0.22,0.43 0.13,0.7 -1.87,9.06 -5.99,16.03 -12.38,20.91 -3.11,2.35 -6.48,4.13 -10.12,5.33 -3.64,1.2 -7.57,1.8 -11.79,1.8 -7.68,0 -14.14,-1.84 -19.38,-5.53 -5.15,-3.64 -8.88,-7.63 -11.19,-11.98 -0.8,-1.51 -1.49,-3.03 -2.06,-4.56 -0.58,-1.53 -1.02,-3.14 -1.33,-4.83 -0.58,-3.28 -0.86,-10.74 -0.86,-22.37 0,-5.81 0.06,-10.56 0.2,-14.25 0.13,-3.68 0.35,-6.37 0.66,-8.05 0.31,-1.69 0.75,-3.31 1.33,-4.86 0.58,-1.56 1.27,-3.09 2.06,-4.6 2.31,-4.31 6.04,-8.3 11.19,-11.98 5.2,-3.73 11.66,-5.59 19.38,-5.59 9.23,0 16.87,2.84 22.9,8.52 6.12,5.73 9.92,12.52 11.39,20.38 0.09,0.27 0.04,0.49 -0.13,0.67 -0.18,0.18 -0.4,0.27 -0.66,0.27l-15.25 0c-0.4,0 -0.64,-0.18 -0.73,-0.53 -0.58,-1.78 -1.4,-3.43 -2.47,-4.96 -1.06,-1.53 -2.37,-2.96 -3.93,-4.3 -2.93,-2.62 -6.64,-3.92 -11.12,-3.92 -3.33,0 -6.17,0.66 -8.53,1.99 -2.35,1.33 -4.24,2.86 -5.66,4.6 -0.84,1.06 -1.57,2.27 -2.2,3.62 -0.62,1.36 -1.11,2.74 -1.46,4.16 -0.36,1.51 -0.61,3.84 -0.74,6.99 -0.13,3.15 -0.2,7.1 -0.2,11.85 0,4.84 0.06,8.83 0.2,11.96 0.13,3.13 0.38,5.45 0.74,6.96 0.35,1.37 0.85,2.74 1.5,4.1 0.64,1.35 1.36,2.54 2.16,3.56 1.42,1.87 3.31,3.45 5.66,4.76 2.35,1.31 5.2,1.96 8.53,1.96 7.68,0 13.52,-4.19 17.51,-12.58 0.09,-0.09 0.2,-0.19 0.33,-0.3 0.13,-0.11 0.27,-0.17 0.4,-0.17l15.25 0zm27.88 28.23c-0.53,0 -0.8,-0.27 -0.8,-0.8l0 -81.77 -25.37 0c-0.53,0 -0.8,-0.27 -0.8,-0.8l0 -12.85c0,-0.53 0.27,-0.8 0.8,-0.8l66.72 0c0.54,0 0.8,0.27 0.8,0.8l0 12.85c0,0.53 -0.27,0.8 -0.8,0.8l-25.3 0 0 81.77c0,0.53 -0.27,0.8 -0.8,0.8l-14.45 0zm43.38 0c-0.53,0 -0.8,-0.27 -0.8,-0.8l0 -13.52c0,-0.53 0.27,-0.8 0.8,-0.8l13.58 0c0.49,0 0.74,0.27 0.74,0.8l0 13.52c0,0.53 -0.25,0.8 -0.74,0.8l-13.58 0z"/>
   <path class="fil4" d="M1117.24 839.44c0.06,-6.13 1.11,-11.61 3.13,-16.43 2.02,-4.82 4.88,-8.94 8.56,-12.38 3.49,-3.19 7.42,-5.66 11.78,-7.41 4.35,-1.75 8.92,-2.62 13.71,-2.62 8.71,0 16.6,2.61 23.65,7.82 6.63,5.28 10.95,12.88 12.98,22.82 0.12,0.37 0.06,0.68 -0.18,0.92 -0.25,0.25 -0.56,0.37 -0.92,0.37l-18.87 0c-0.49,0 -0.83,-0.22 -1.01,-0.65 -2.76,-6.75 -8.01,-10.21 -15.74,-10.4 -11.11,0.31 -16.66,6.69 -16.66,19.15l0 10.86c3.99,-1.17 7.96,-2.09 11.92,-2.76 3.96,-0.68 7.72,-0.98 11.27,-0.92 8.59,0 15.95,3 22.09,9.01 5.89,6.2 8.81,15.74 8.74,28.63l0 11.96c-0.18,12.58 -3.93,22.15 -11.23,28.71 -6.87,6.5 -15.56,9.91 -26.05,10.22 -10.18,-0.31 -18.68,-3.68 -25.49,-10.12 -7.73,-6.75 -11.63,-16.32 -11.69,-28.72l0 -58.07zm20.43 56.97c0.06,12.58 5.65,18.93 16.75,19.05 10.86,-0.06 16.51,-6.41 16.94,-19.05l0 -10.77c-0.49,-12.45 -6.14,-18.8 -16.94,-19.05 -11.1,0.31 -16.68,6.66 -16.75,19.05l0 10.77zm124.4 -55.96c0,-5.95 -1.58,-10.6 -4.74,-13.94 -3.16,-3.34 -7.38,-5.02 -12.65,-5.02 -5.28,0 -9.48,1.67 -12.61,5.02 -3.13,3.34 -4.69,7.99 -4.69,13.94l0 55.68c0,6.01 1.56,10.68 4.69,13.99 3.13,3.31 7.34,4.97 12.61,4.97 5.27,0 9.49,-1.66 12.65,-4.97 3.16,-3.31 4.74,-7.98 4.74,-13.99l0 -55.68zm-55.68 -1.1c0,-12.39 3.9,-21.93 11.69,-28.62 7.73,-6.81 16.6,-10.22 26.6,-10.22 4.97,0 9.68,0.87 14.13,2.62 4.45,1.75 8.61,4.28 12.47,7.59 3.86,3.44 6.79,7.53 8.79,12.28 1.99,4.76 2.99,10.2 2.99,16.34l0 57.89c0,12.33 -3.93,21.87 -11.78,28.62 -7.73,6.75 -16.6,10.12 -26.6,10.12 -10,0 -18.86,-3.37 -26.6,-10.12 -7.79,-6.69 -11.69,-16.23 -11.69,-28.62l0 -57.89z"/>
   <path class="fil7" d="M503.33 935.14c-0.74,0 -1.1,-0.37 -1.1,-1.1l0 -109.33c-2.82,2.08 -5.64,4.18 -8.46,6.3 -2.82,2.11 -5.65,4.18 -8.47,6.21 -0.43,0.31 -0.83,0.35 -1.19,0.14 -0.37,-0.21 -0.55,-0.57 -0.55,-1.06l0 -19.97c0,-0.12 0.05,-0.28 0.14,-0.46 0.09,-0.18 0.2,-0.34 0.32,-0.46l18.96 -13.71 19.24 0c0.74,0 1.1,0.37 1.1,1.1l0 131.24c0,0.74 -0.37,1.1 -1.1,1.1l-18.87 0zm38.83 -0.27c-0.74,0 -1.11,-0.37 -1.11,-1.11l0 -17.94 51.54 -64.51 0 0.09c1.9,-2.39 3.13,-4.58 3.68,-6.58 0.55,-1.99 0.83,-3.94 0.83,-5.84 0,-4.23 -1.53,-8.22 -4.6,-11.96 -3.07,-3.69 -7.21,-5.53 -12.42,-5.53 -4.79,0 -8.93,1.63 -12.43,4.88 -1.71,1.6 -3.02,3.48 -3.91,5.66 -0.89,2.18 -1.46,4.65 -1.7,7.41 0,0.31 -0.11,0.55 -0.32,0.74 -0.22,0.18 -0.48,0.27 -0.79,0.27l-18.77 0c-0.74,0 -1.11,-0.37 -1.11,-1.1 0.13,-10.92 3.84,-20.09 11.14,-27.52 7.43,-7.55 16.26,-11.32 26.51,-11.32 11.1,0 20.46,3.8 28.07,11.41l-0.09 0c7.55,7.55 11.32,16.63 11.32,27.24 0,4.6 -0.67,8.86 -2.02,12.79 -1.35,3.92 -3.37,7.57 -6.08,10.95l0 -0.09c-3.49,4.42 -6.93,8.74 -10.3,12.97 -3.38,4.23 -6.75,8.45 -10.12,12.65 -3.37,4.2 -6.75,8.41 -10.12,12.61 -3.37,4.2 -6.81,8.51 -10.31,12.93l47.86 0c0.74,0 1.1,0.37 1.1,1.1l0 18.68c0,0.74 -0.37,1.11 -1.1,1.11l-74.72 0zm146.14 -94.43c0,-5.95 -1.58,-10.6 -4.74,-13.94 -3.16,-3.34 -7.38,-5.02 -12.66,-5.02 -5.28,0 -9.48,1.67 -12.6,5.02 -3.13,3.34 -4.7,7.99 -4.7,13.94l0 55.68c0,6.01 1.57,10.68 4.7,13.99 3.13,3.31 7.33,4.97 12.6,4.97 5.28,0 9.5,-1.66 12.66,-4.97 3.16,-3.31 4.74,-7.98 4.74,-13.99l0 -55.68zm-55.68 -1.1c0,-12.39 3.89,-21.93 11.69,-28.62 7.73,-6.81 16.6,-10.22 26.6,-10.22 4.97,0 9.68,0.87 14.13,2.62 4.45,1.75 8.61,4.28 12.47,7.59 3.87,3.44 6.79,7.53 8.79,12.28 1.99,4.76 2.99,10.2 2.99,16.34l0 57.89c0,12.33 -3.93,21.87 -11.78,28.62 -7.73,6.75 -16.6,10.12 -26.6,10.12 -10,0 -18.86,-3.37 -26.6,-10.12 -7.79,-6.69 -11.69,-16.23 -11.69,-28.62l0 -57.89z"/>
   <path class="fil7" d="M326.27 370.47c-0.53,0 -0.81,-0.28 -0.81,-0.81l0 -80.28c-2.07,1.52 -4.15,3.07 -6.23,4.63 -2.05,1.55 -4.13,3.07 -6.2,4.57 -0.32,0.21 -0.62,0.25 -0.88,0.09 -0.28,-0.16 -0.41,-0.41 -0.41,-0.79l0 -14.67c0,-0.07 0.05,-0.18 0.12,-0.32 0.07,-0.14 0.14,-0.25 0.23,-0.35l13.91 -10.05 14.14 0c0.53,0 0.81,0.25 0.81,0.81l0 96.36c0,0.53 -0.28,0.81 -0.81,0.81l-13.86 0zm31.13 -68.73c-0.53,0 -0.81,-0.25 -0.81,-0.81l0 -27.63c0,-0.55 0.28,-0.81 0.81,-0.81l54.73 0c0.51,0 0.76,0.25 0.76,0.81l0 13.84 -32.59 82.56c-0.16,0.37 -0.41,0.55 -0.74,0.55l-15.47 0c-0.3,0 -0.53,-0.12 -0.67,-0.35 -0.14,-0.21 -0.16,-0.46 -0.07,-0.74l32.24 -81.27 -23.66 0 0 13.03c0,0.56 -0.25,0.81 -0.74,0.81l-13.79 0z"/>
   <path class="fil4" d="M859.91 206.09c-0.39,0 -0.61,-0.17 -0.7,-0.52l-30.16 -91.34c-0.09,-0.26 -0.06,-0.48 0.06,-0.7 0.13,-0.22 0.33,-0.33 0.63,-0.33l14.6 0c0.39,0 0.61,0.2 0.7,0.59l20.21 67.63c3.39,-11.29 6.79,-22.56 10.16,-33.81 3.37,-11.25 6.74,-22.52 10.12,-33.81 0.09,-0.39 0.3,-0.59 0.7,-0.59l14.6 0c0.28,0 0.5,0.11 0.63,0.33 0.13,0.22 0.15,0.44 0.06,0.7l-30.16 91.34c-0.09,0.35 -0.3,0.52 -0.7,0.52l-10.77 0zm51.64 0c-0.5,0 -0.76,-0.26 -0.76,-0.76l0 -91.35c0,-0.52 0.26,-0.78 0.76,-0.78l13.84 0c0.5,0 0.76,0.26 0.76,0.78l0 91.35c0,0.5 -0.26,0.76 -0.76,0.76l-13.84 0zm33.86 0c-0.5,0 -0.76,-0.26 -0.76,-0.76l0 -91.35c0,-0.52 0.26,-0.78 0.76,-0.78l13.12 0c0.26,0 0.48,0.13 0.65,0.39l40.15 63.23 0 -62.84c0,-0.52 0.26,-0.78 0.78,-0.78l13.88 0c0.52,0 0.76,0.26 0.76,0.78l0 91.35c0,0.5 -0.24,0.76 -0.76,0.76l-13.06 0c-0.26,0 -0.48,-0.13 -0.65,-0.39l-40.28 -63.23 0 62.86c0,0.5 -0.24,0.76 -0.7,0.76l-13.91 0zm139.37 0c-0.52,0 -0.78,-0.26 -0.78,-0.76l0 -39.15 -34.73 0 0 39.15c0,0.5 -0.26,0.76 -0.76,0.76l-13.84 0c-0.5,0 -0.76,-0.26 -0.76,-0.76l0 -91.35c0,-0.52 0.26,-0.78 0.76,-0.78l13.84 0c0.5,0 0.76,0.26 0.76,0.78l0 38.36 34.73 0 0 -38.36c0,-0.52 0.26,-0.78 0.78,-0.78l13.82 0c0.52,0 0.78,0.26 0.78,0.78l0 91.35c0,0.5 -0.26,0.76 -0.78,0.76l-13.82 0z"/>
   <path class="fil4" d="M616.31 391.69c-0.52,0 -0.78,-0.26 -0.78,-0.76l0 -78.29 -24.28 0c-0.5,0 -0.76,-0.26 -0.76,-0.76l0 -12.29c0,-0.52 0.26,-0.78 0.76,-0.78l63.89 0c0.5,0 0.76,0.26 0.76,0.78l0 12.29c0,0.5 -0.26,0.76 -0.76,0.76l-24.24 0 0 78.29c0,0.5 -0.24,0.76 -0.76,0.76l-13.82 0zm99.77 0c-0.52,0 -0.78,-0.26 -0.78,-0.76l0 -39.15 -34.73 0 0 39.15c0,0.5 -0.26,0.76 -0.76,0.76l-13.84 0c-0.5,0 -0.76,-0.26 -0.76,-0.76l0 -91.35c0,-0.52 0.26,-0.78 0.76,-0.78l13.84 0c0.5,0 0.76,0.26 0.76,0.78l0 38.36 34.73 0 0 -38.36c0,-0.52 0.26,-0.78 0.78,-0.78l13.82 0c0.52,0 0.78,0.26 0.78,0.78l0 91.35c0,0.5 -0.26,0.76 -0.78,0.76l-13.82 0zm25.5 -0.06c-0.3,0 -0.52,-0.11 -0.63,-0.33 -0.13,-0.19 -0.15,-0.43 -0.06,-0.7l33.4 -91.41c0.09,-0.35 0.28,-0.52 0.63,-0.52l11.4 0c0.13,0 0.28,0.06 0.44,0.17 0.13,0.11 0.24,0.22 0.28,0.35l33.33 91.41c0.09,0.26 0.06,0.5 -0.06,0.7 -0.13,0.22 -0.33,0.33 -0.57,0.33l-14.6 0c-0.35,0 -0.57,-0.17 -0.65,-0.5l-6.88 -20.15 -33.66 0c-1.2,3.44 -2.37,6.81 -3.53,10.1 -1.18,3.29 -2.35,6.64 -3.55,10.05 -0.04,0.11 -0.13,0.24 -0.28,0.35 -0.15,0.11 -0.28,0.15 -0.41,0.15l-14.6 0zm51.44 -34.36c-0.09,-0.3 -0.2,-0.61 -0.35,-0.96 -0.15,-0.35 -0.26,-0.63 -0.35,-0.89 -0.72,-2.09 -1.39,-4 -1.98,-5.77 -0.59,-1.76 -1.13,-3.31 -1.59,-4.63 -0.3,-0.85 -0.59,-1.67 -0.87,-2.48 -0.26,-0.8 -0.54,-1.57 -0.78,-2.28 -0.22,-0.7 -0.44,-1.33 -0.65,-1.96 -0.19,-0.61 -0.41,-1.22 -0.63,-1.81 -0.39,-1.24 -0.78,-2.48 -1.18,-3.7 -0.41,-1.24 -0.83,-2.5 -1.24,-3.83 -0.22,-0.59 -0.44,-1.24 -0.67,-1.98 -0.24,-0.72 -0.48,-1.48 -0.74,-2.29 -0.13,-0.44 -0.22,-0.76 -0.28,-1 -0.06,-0.22 -0.13,-0.46 -0.22,-0.7 -0.09,-0.24 -0.19,-0.5 -0.28,-0.78 -0.11,-0.3 -0.26,-0.74 -0.41,-1.28 -0.48,1.39 -0.91,2.7 -1.31,3.89 -0.41,1.17 -0.78,2.28 -1.13,3.31 -0.09,0.26 -0.15,0.48 -0.2,0.7 -0.02,0.22 -0.09,0.44 -0.17,0.65 -0.22,0.72 -0.43,1.39 -0.67,2.02 -0.24,0.65 -0.46,1.28 -0.67,1.91 -0.22,0.67 -0.41,1.35 -0.63,1.98 -0.22,0.63 -0.44,1.26 -0.63,1.85 -0.44,1.28 -0.87,2.61 -1.33,4.02 -0.43,1.39 -0.93,2.85 -1.48,4.4 -0.57,1.52 -1.13,3.18 -1.72,4.94 -0.61,1.76 -1.37,3.98 -2.31,6.66l24.48 0zm38.88 34.42c-0.5,0 -0.76,-0.26 -0.76,-0.76l0 -91.35c0,-0.52 0.26,-0.78 0.76,-0.78l13.12 0c0.26,0 0.48,0.13 0.65,0.39l40.15 63.23 0 -62.84c0,-0.52 0.26,-0.78 0.78,-0.78l13.88 0c0.52,0 0.76,0.26 0.76,0.78l0 91.35c0,0.5 -0.24,0.76 -0.76,0.76l-13.06 0c-0.26,0 -0.48,-0.13 -0.65,-0.39l-40.28 -63.23 0 62.86c0,0.5 -0.24,0.76 -0.7,0.76l-13.91 0zm139.37 0c-0.52,0 -0.78,-0.26 -0.78,-0.76l0 -39.15 -34.73 0 0 39.15c0,0.5 -0.26,0.76 -0.76,0.76l-13.84 0c-0.5,0 -0.76,-0.26 -0.76,-0.76l0 -91.35c0,-0.52 0.26,-0.78 0.76,-0.78l13.84 0c0.5,0 0.76,0.26 0.76,0.78l0 38.36 34.73 0 0 -38.36c0,-0.52 0.26,-0.78 0.78,-0.78l13.82 0c0.52,0 0.78,0.26 0.78,0.78l0 91.35c0,0.5 -0.26,0.76 -0.78,0.76l-13.82 0zm81.53 0c-0.52,0 -0.78,-0.26 -0.78,-0.76l0 -78.29 -24.28 0c-0.5,0 -0.76,-0.26 -0.76,-0.76l0 -12.29c0,-0.52 0.26,-0.78 0.76,-0.78l63.89 0c0.5,0 0.76,0.26 0.76,0.78l0 12.29c0,0.5 -0.26,0.76 -0.76,0.76l-24.24 0 0 78.29c0,0.5 -0.24,0.76 -0.76,0.76l-13.82 0zm99.77 0c-0.52,0 -0.78,-0.26 -0.78,-0.76l0 -39.15 -34.73 0 0 39.15c0,0.5 -0.26,0.76 -0.76,0.76l-13.84 0c-0.5,0 -0.76,-0.26 -0.76,-0.76l0 -91.35c0,-0.52 0.26,-0.78 0.76,-0.78l13.84 0c0.5,0 0.76,0.26 0.76,0.78l0 38.36 34.73 0 0 -38.36c0,-0.52 0.26,-0.78 0.78,-0.78l13.82 0c0.52,0 0.78,0.26 0.78,0.78l0 91.35c0,0.5 -0.26,0.76 -0.78,0.76l-13.82 0zm32.07 -92.11c0,-0.52 0.24,-0.78 0.76,-0.78l13.88 0c0.48,0 0.72,0.26 0.72,0.78l0 58.9c0,6.11 1.7,10.75 5.09,13.88 3.44,3.2 7.72,4.79 12.82,4.79 5.01,0 9.25,-1.59 12.69,-4.79 3.44,-3.18 5.16,-7.81 5.16,-13.88l0 -58.9c0,-0.52 0.26,-0.78 0.76,-0.78l13.84 0c0.52,0 0.76,0.26 0.76,0.78l0 60.43c0,9.77 -3.24,17.62 -9.75,23.59 -6.42,5.9 -14.23,8.86 -23.46,8.86 -9.27,0 -17.12,-2.96 -23.59,-8.86 -6.46,-5.96 -9.68,-13.82 -9.68,-23.59l0 -60.43zm32.4 -9.01c-1.76,0 -3.18,0 -4.22,0l0 -2.92c0.46,-2.68 2.11,-4.87 4.96,-6.57 4.46,-1.87 6.51,-4.09 6.11,-6.64 -0.59,-2.59 -2.59,-3.89 -5.98,-3.94 -4.5,0.06 -6.9,2.26 -7.14,6.55l-9.51 0c0,-2.37 0.44,-4.35 1.31,-5.92 0.87,-1.57 2.07,-3.11 3.55,-4.59 2.94,-2.81 6.75,-4.24 11.47,-4.33 4.98,0.09 9.05,1.48 12.25,4.2 1.44,1.44 2.57,2.85 3.37,4.2 0.8,1.37 1.24,3.09 1.28,5.18 -0.26,2.94 -1.89,5.51 -4.92,7.7 -2.55,1.24 -4.5,2.22 -5.87,2.94l-0.76 0.83 -0.83 1.28 -0.13 2.02c-1.52,0 -3.18,0 -4.94,0zm70.41 101.11c-0.48,0 -0.7,-0.26 -0.7,-0.76l0 -37.36c-4.59,-8.97 -9.16,-17.91 -13.71,-26.83 -4.55,-8.94 -9.1,-17.88 -13.64,-26.85 -0.13,-0.31 -0.13,-0.54 0,-0.76 0.13,-0.22 0.35,-0.33 0.7,-0.33l14.53 0c0.13,0 0.26,0.07 0.39,0.18 0.11,0.11 0.22,0.19 0.31,0.28l18.76 39.14c3.13,-6.59 6.25,-13.12 9.33,-19.58 3.07,-6.46 6.18,-12.97 9.34,-19.56 0.09,-0.09 0.19,-0.18 0.32,-0.28 0.11,-0.11 0.24,-0.18 0.37,-0.18l14.6 0c0.35,0 0.57,0.11 0.7,0.33 0.13,0.22 0.13,0.46 0,0.76l-27.39 53.68 0 37.36c0,0.5 -0.26,0.76 -0.78,0.76l-13.12 0z"/>
  </g>
 </g>
</svg>
