<?xml version="1.0" encoding="UTF-8" standalone="no"?>
<!-- Created with Inkscape (http://www.inkscape.org/) -->

<svg
   width="300mm"
   height="300mm"
   viewBox="0 0 300 300"
   version="1.1"
   id="svg848"
   inkscape:version="1.2.2 (732a01da63, 2022-12-09)"
   sodipodi:docname="Vietnam_road_sign_I443c.svg"
   xmlns:inkscape="http://www.inkscape.org/namespaces/inkscape"
   xmlns:sodipodi="http://sodipodi.sourceforge.net/DTD/sodipodi-0.dtd"
   xmlns="http://www.w3.org/2000/svg"
   xmlns:svg="http://www.w3.org/2000/svg"
   xmlns:rdf="http://www.w3.org/1999/02/22-rdf-syntax-ns#"
   xmlns:cc="http://creativecommons.org/ns#"
   xmlns:dc="http://purl.org/dc/elements/1.1/">
  <defs
     id="defs842" />
  <sodipodi:namedview
     id="base"
     pagecolor="#ffffff"
     bordercolor="#666666"
     borderopacity="1.0"
     inkscape:pageopacity="0.0"
     inkscape:pageshadow="2"
     inkscape:zoom="0.49490446"
     inkscape:cx="300.05791"
     inkscape:cy="649.62033"
     inkscape:document-units="mm"
     inkscape:current-layer="g41843"
     showgrid="false"
     inkscape:snap-global="false"
     inkscape:window-width="1920"
     inkscape:window-height="991"
     inkscape:window-x="-9"
     inkscape:window-y="-9"
     inkscape:window-maximized="1"
     fit-margin-top="0"
     fit-margin-left="0"
     fit-margin-right="0"
     fit-margin-bottom="0"
     showguides="false"
     inkscape:showpageshadow="2"
     inkscape:pagecheckerboard="0"
     inkscape:deskcolor="#d1d1d1" />
  <metadata
     id="metadata845">
    <rdf:RDF>
      <cc:Work
         rdf:about="">
        <dc:format>image/svg+xml</dc:format>
        <dc:type
           rdf:resource="http://purl.org/dc/dcmitype/StillImage" />
      </cc:Work>
    </rdf:RDF>
  </metadata>
  <g
     inkscape:label="Layer 1"
     inkscape:groupmode="layer"
     id="layer1"
     transform="translate(0,3)">
    <rect
       style="opacity:1;fill:#0046aa;fill-opacity:1;fill-rule:nonzero;stroke:none;stroke-width:1.27162981;stroke-linecap:butt;stroke-linejoin:miter;stroke-miterlimit:10;stroke-dasharray:none;stroke-opacity:1;paint-order:stroke fill markers"
       id="rect1393"
       width="300"
       height="300"
       x="0"
       y="-3" />
    <rect
       y="2"
       x="5"
       height="290"
       width="290"
       id="rect1395"
       style="opacity:1;fill:#ffffff;fill-opacity:1;fill-rule:nonzero;stroke:none;stroke-width:1.22924209;stroke-linecap:butt;stroke-linejoin:miter;stroke-miterlimit:10;stroke-dasharray:none;stroke-opacity:1;paint-order:stroke fill markers" />
    <g
       id="g41843"
       transform="matrix(-1,0,0,1,299.99936,0)">
      <g
         id="g76773"
         transform="matrix(-1,0,0,1,299.99936,0)">
        <rect
           y="7"
           x="10"
           height="280"
           width="280"
           id="rect1406"
           style="opacity:1;fill:#0046aa;fill-opacity:1;fill-rule:nonzero;stroke:none;stroke-width:1.18686;stroke-linecap:butt;stroke-linejoin:miter;stroke-miterlimit:10;stroke-dasharray:none;stroke-opacity:1;paint-order:stroke fill markers" />
        <path
           id="rect65895"
           style="opacity:1;fill:#ffffff;fill-opacity:1;fill-rule:evenodd;stroke:none;stroke-width:10.2147;stroke-linecap:round;stroke-dasharray:none;stroke-opacity:1;paint-order:stroke fill markers"
           d="m 9.99936,198.01044 v 18.7564 h 54.46592 v 17.31833 h 53.08726 v 17.53285 h 54.46593 v 17.31865 H 224.357 v 18.06232 h 65.64027 V 268.24291 H 236.9236 v -18.06264 h -54.46119 v -17.3136 H 129.37074 V 215.32878 H 74.90481 v -17.31834 z" />
        <path
           id="path73437"
           style="color:#000000;opacity:1;fill:#ffffff;fill-rule:evenodd;stroke-width:3.21906;stroke-linecap:round;stroke-linejoin:round;-inkscape-stroke:none"
           d="m 186.31638,87.534526 v 5.16e-4 c 0.97945,0.0015 1.70687,0.0052 1.9327,0.0083 0.0653,9.81e-4 0.13057,0.02377 0.19585,0.02377 1.63682,0.02133 3.20911,0.642261 4.41833,1.74563 l 22.25653,20.531048 c 1.37251,1.2669 2.15248,3.05022 2.15077,4.91804 v 28.97136 c -10e-4,3.68968 -2.99209,6.68051 -6.68176,6.68177 -3.68965,-0.001 -6.67999,-2.9921 -6.68125,-6.68177 v -26.04802 l -9.97768,-9.20461 0.16278,1.25367 3.38119,29.86381 c 0.26565,2.34652 0.95274,7.34528 0.29352,11.19002 -0.37531,2.15391 -1.62858,3.23123 -2.67943,4.69687 -1.65606,2.30901 -4.43276,4.79071 -6.87968,6.75566 v 0.003 l -19.31923,17.42013 8.45271,33.39124 c 1.6752,3.93793 -0.15973,8.48817 -4.09794,10.16269 -3.93737,1.67384 -8.48611,-0.16033 -10.16062,-4.09742 L 147.5451,182.5866 c -1.09645,-2.57933 -0.71437,-5.54991 0.99891,-7.768 l 17.67489,-23.79131 -7.33289,-50.20055 c -0.6527,-5.198415 4.26499,-7.514584 7.70961,-9.878986 3.13295,-2.15065 10.90631,-3.315043 10.90631,-3.315043 0.4732,-0.06529 2.94104,-0.09767 5.40432,-0.09767 l -0.0326,0.0036 c 1.23196,-0.0054 2.46323,-0.0058 3.44269,-0.0041 z M 161.1267,131.50083 v 19.10685 l -14.2074,8.20001 -8.27133,-14.32935 z m 35.50223,29.28556 15.9122,73.81513 c 1.16398,5.39894 -2.26928,10.71922 -7.66826,11.88299 -5.39927,1.16358 -10.71942,-2.27044 -11.88248,-7.66981 l -13.75627,-63.81368 z" />
        <circle
           style="opacity:1;fill:#ffffff;fill-opacity:1;fill-rule:evenodd;stroke:none;stroke-width:10.4026;stroke-linecap:round;stroke-dasharray:none;stroke-opacity:1;paint-order:stroke fill markers"
           id="circle73439"
           cx="-168.14786"
           cy="71.023964"
           r="16.640337"
           transform="scale(-1,1)" />
      </g>
    </g>
  </g>
</svg>
