<?xml version="1.0" encoding="UTF-8" standalone="no"?>
<!-- Created with Inkscape (http://www.inkscape.org/) -->

<svg
   version="1.0"
   width="1437.0396"
   height="2075.1804"
   id="svg26801"
   sodipodi:version="0.32"
   inkscape:version="0.92.2 (5c3e80d, 2017-08-06)"
   sodipodi:docname="Vietnam_road_sign_439.svg"
   xmlns:inkscape="http://www.inkscape.org/namespaces/inkscape"
   xmlns:sodipodi="http://sodipodi.sourceforge.net/DTD/sodipodi-0.dtd"
   xmlns="http://www.w3.org/2000/svg"
   xmlns:svg="http://www.w3.org/2000/svg"
   xmlns:rdf="http://www.w3.org/1999/02/22-rdf-syntax-ns#"
   xmlns:cc="http://creativecommons.org/ns#"
   xmlns:dc="http://purl.org/dc/elements/1.1/">
  <metadata
     id="metadata1915">
    <rdf:RDF>
      <cc:Work
         rdf:about="">
        <dc:format>image/svg+xml</dc:format>
        <dc:type
           rdf:resource="http://purl.org/dc/dcmitype/StillImage" />
      </cc:Work>
    </rdf:RDF>
  </metadata>
  <sodipodi:namedview
     inkscape:window-height="658"
     inkscape:window-width="1280"
     inkscape:pageshadow="2"
     inkscape:pageopacity="0.0"
     guidetolerance="10.0"
     gridtolerance="10.0"
     objecttolerance="10.0"
     borderopacity="1.0"
     bordercolor="#666666"
     pagecolor="#ffffff"
     id="base"
     inkscape:zoom="0.3016"
     inkscape:cx="809.94695"
     inkscape:cy="586.87003"
     inkscape:current-layer="layer1"
     showgrid="false"
     inkscape:snap-page="true"
     inkscape:window-x="-8"
     inkscape:window-y="-8"
     inkscape:window-maximized="1"
     inkscape:showpageshadow="2"
     inkscape:pagecheckerboard="0"
     inkscape:deskcolor="#d1d1d1" />
  <defs
     id="defs26803" />
  <g
     transform="translate(-710.91761,1379.1368)"
     id="layer1">
    <path
       d="M 710.91761,696.04352 H 2147.9571 V -1379.1368 H 710.91761 Z"
       style="fill:#1e95d4;fill-opacity:1;fill-rule:nonzero;stroke:none;stroke-width:0.942297"
       id="path26431" />
    <rect
       style="fill:#ffffff;stroke-width:0.945198"
       id="rect1"
       width="1215.9709"
       height="1131.3544"
       x="833.59662"
       y="-1259.7734"
       ry="5.7874756" />
    <circle
       style="fill:#1e95d4;fill-opacity:1;stroke:none;stroke-width:3.48508;stroke-linecap:round;stroke-linejoin:round;stroke-miterlimit:4;stroke-dasharray:none;stroke-opacity:1"
       id="circle6"
       r="523.60162"
       cy="-19.535192"
       cx="3297.5193" />
    <path
       inkscape:connector-curvature="0"
       style="fill:#ffffff;stroke-width:13.7819"
       d="m 3128.1823,-256.73578 h 76.545 l -100.7874,207.294217 h 1.6262 c 11.5492,-4.036876 23.512,-6.050155 35.902,-6.050155 31.1334,0 57.6912,10.763717 79.6597,32.304719 22.1889,21.9821858 33.5176,56.629871 33.9587,103.957116 -0.8684,55.624063 -15.3393,95.660863 -43.3994,120.110023 -27.6328,24.66947 -59.9377,37.01824 -96.9147,37.01824 -33.7244,-0.46877 -63.7415,-14.03021 -90.065,-40.72599 -27.6328,-26.03369 -41.6628,-62.2664 -42.1038,-108.697744 0,-29.39709 5.9676,-56.754369 17.8752,-82.1129961 z m -9.4957,263.0834079 c -19.2396,0 -35.0751,6.5329891 -47.5202,19.5568631 -13.7681,13.271811 -20.6453,33.751786 -20.6453,61.398653 0.8683,54.190566 23.5946,81.079026 68.1655,80.624276 17.0345,0.46881 32.7735,-5.73347 47.2032,-18.55052 13.7543,-12.83116 20.8658,-33.51791 21.2931,-62.073756 -0.4272,-27.646867 -6.891,-48.126842 -19.3223,-61.398653 -13.3547,-13.037934 -29.7277,-19.5568631 -49.174,-19.5568631 z"
       id="path4162" />
    <path
       inkscape:connector-curvature="0"
       style="fill:#ffffff;stroke-width:13.7852"
       d="m 3323.8444,-120.37944 c 0.4272,-45.24282 14.4607,-80.07779 42.1,-104.50561 25.8748,-24.19277 56.7673,-36.28244 92.6638,-36.28244 36.9857,0 68.4159,12.11722 94.3046,36.35174 26.3159,24.44086 39.9219,59.34512 40.7765,104.65669 V 96.255068 c -0.8685,45.091242 -14.4606,79.871092 -40.7765,104.326032 -25.8887,24.23449 -57.3189,36.55862 -94.3046,37.02751 -35.8965,-0.46916 -66.789,-12.77893 -92.6638,-36.97225 -27.6256,-24.41322 -41.6589,-59.13842 -42.1,-104.174476 z m 201.9391,4.38176 c -1.3234,-49.24059 -23.6968,-74.31593 -67.1753,-75.21203 -43.6851,0.8961 -65.9757,25.97144 -66.8441,75.21203 V 92.420397 c 0.8685,49.681933 23.159,74.743253 66.8441,75.198653 43.4647,-0.46915 65.8519,-25.53029 67.1753,-75.198653 z"
       id="path4150" />
    <path
       inkscape:connector-curvature="0"
       d="m 2887.6984,305.25618 c 22.7014,30.24673 51.7262,59.62269 84.1712,85.13824 l 735.6844,-734.82366 c -25.0545,-31.57703 -51.909,-59.11051 -84.2164,-84.85407 l -735.6392,734.53949"
       style="fill:#f90200;fill-opacity:1;fill-rule:nonzero;stroke:none;stroke-width:1.51349"
       id="path10476"
       sodipodi:nodetypes="ccccc" />
    <path
       id="rect2"
       style="fill:#f90200;fill-opacity:1"
       d="m 1274.07,-1193.461 c -3.3922,0 -6.1231,2.7309 -6.1231,6.123 v 310.52151 H 957.42542 c -3.39215,0 -6.12304,2.73089 -6.12304,6.12305 v 332.58203 c 0,3.39216 2.73089,6.12305 6.12304,6.12305 h 310.52148 v 310.52148 c 0,3.39216 2.7309,6.12305 6.1231,6.12305 h 332.582 c 3.3921,0 6.123,-2.73089 6.123,-6.12305 v -310.52148 h 310.5215 c 3.3922,0 6.1231,-2.73089 6.1231,-6.12305 v -332.58203 c 0,-3.39216 -2.7309,-6.12305 -6.1231,-6.12305 H 1612.775 V -1187.338 c 0,-3.3921 -2.7309,-6.123 -6.123,-6.123 z" />
  </g>
</svg>
