<?xml version="1.0" encoding="UTF-8" standalone="no"?>
<svg
   xmlns:dc="http://purl.org/dc/elements/1.1/"
   xmlns:cc="http://creativecommons.org/ns#"
   xmlns:rdf="http://www.w3.org/1999/02/22-rdf-syntax-ns#"
   xmlns:svg="http://www.w3.org/2000/svg"
   xmlns="http://www.w3.org/2000/svg"
   xmlns:sodipodi="http://sodipodi.sourceforge.net/DTD/sodipodi-0.dtd"
   xmlns:inkscape="http://www.inkscape.org/namespaces/inkscape"
   sodipodi:docname="Vietnam_road_sign_I445c.svg"
   inkscape:version="1.0 (4035a4fb49, 2020-05-01)"
   id="svg848"
   version="1.1"
   viewBox="0 0 1320.6937 500"
   height="500mm"
   width="1320.6937mm">
  <defs
     id="defs842" />
  <sodipodi:namedview
     inkscape:document-rotation="0"
     inkscape:measure-end="0,0"
     inkscape:measure-start="0,0"
     showguides="true"
     fit-margin-bottom="0"
     fit-margin-right="0"
     fit-margin-left="0"
     fit-margin-top="0"
     inkscape:window-maximized="1"
     inkscape:window-y="-9"
     inkscape:window-x="-9"
     inkscape:window-height="1001"
     inkscape:window-width="1920"
     inkscape:snap-global="false"
     showgrid="false"
     inkscape:current-layer="text2888"
     inkscape:document-units="mm"
     inkscape:cy="948.19447"
     inkscape:cx="2252.46"
     inkscape:zoom="0.18415721"
     inkscape:pageshadow="2"
     inkscape:pageopacity="0.0"
     borderopacity="1.0"
     bordercolor="#666666"
     pagecolor="#ffffff"
     id="base" />
  <metadata
     id="metadata845">
    <rdf:RDF>
      <cc:Work
         rdf:about="">
        <dc:format>image/svg+xml</dc:format>
        <dc:type
           rdf:resource="http://purl.org/dc/dcmitype/StillImage" />
        <dc:title></dc:title>
      </cc:Work>
    </rdf:RDF>
  </metadata>
  <g
     transform="translate(-1098.5453,606.31145)"
     id="layer1"
     inkscape:groupmode="layer"
     inkscape:label="Layer 1">
    <path
       inkscape:connector-curvature="0"
       d=""
       style="opacity:1;fill:#d35f5f;fill-opacity:1;fill-rule:nonzero;stroke:none;stroke-width:3.92256;stroke-linecap:butt;stroke-linejoin:miter;stroke-miterlimit:4;stroke-dasharray:none;stroke-opacity:1;paint-order:stroke fill markers"
       id="path8376"
       r="150"
       cy="147"
       cx="150" />
    <g
       inkscape:groupmode="layer"
       transform="translate(-4496.0426,2396.6803)"
       id="text3577"
       style="font-style:normal;font-variant:normal;font-weight:bold;font-stretch:normal;font-size:299.854px;line-height:0;font-family:Giaothong1;-inkscape-font-specification:'Giaothong1 Bold';letter-spacing:0px;word-spacing:0px;fill:#ffcc00;fill-opacity:1;stroke:none;stroke-width:1.56174"
       aria-label="VỊNH">
      <g
         id="text3665"
         style="font-style:normal;font-variant:normal;font-weight:bold;font-stretch:normal;font-size:299.854px;line-height:0;font-family:Giaothong1;-inkscape-font-specification:'Giaothong1 Bold';letter-spacing:-2.78077px;word-spacing:0px;fill:#ffcc00;fill-opacity:1;stroke:none;stroke-width:2.43903"
         aria-label="VỊNH" />
    </g>
    <g
       inkscape:groupmode="layer"
       id="text2719"
       style="font-style:normal;font-variant:normal;font-weight:bold;font-stretch:normal;font-size:184.173px;line-height:0;font-family:Giaothong1;-inkscape-font-specification:'Giaothong1 Bold';letter-spacing:0px;word-spacing:0.486833px;fill:#ffffff;fill-opacity:1;stroke:none;stroke-width:0.959232"
       aria-label="CÔNG TRƯỜNG">
      <g
         inkscape:groupmode="layer"
         id="text2888"
         style="font-style:normal;font-variant:normal;font-weight:bold;font-stretch:normal;font-size:187.408px;line-height:0;font-family:Giaothong1;-inkscape-font-specification:'Giaothong1 Bold';letter-spacing:0.00264583px;word-spacing:0px;fill:#ffffff;fill-opacity:1;stroke:none;stroke-width:0.936293"
         aria-label="AHEAD">
        <g
           inkscape:groupmode="layer"
           id="text2903"
           style="font-style:normal;font-variant:normal;font-weight:bold;font-stretch:normal;font-size:184.173px;line-height:0;font-family:Giaothong1;-inkscape-font-specification:'Giaothong1 Bold';letter-spacing:0.00529167px;word-spacing:0px;fill:#ffffff;fill-opacity:1;stroke:none;stroke-width:0.898123"
           aria-label="WORKS">
          <path
             id="rect7863"
             style="opacity:1;fill:#0046aa;fill-opacity:1;fill-rule:nonzero;stroke:none;stroke-width:4.58494;stroke-linecap:butt;stroke-linejoin:miter;stroke-miterlimit:10;stroke-dasharray:none;stroke-opacity:1;paint-order:stroke fill markers"
             d="M 2419.239,-606.31145 H 1098.5453 v 499.99999 H 2419.239 Z"
             sodipodi:nodetypes="ccccc" />
          <path
             d="m 1104.6412,-600.22823 v 488.37222 H 2413.924 v -488.37222 z m 9.0559,9.05805 h 35.724 v 470.25672 h -35.724 z m 513.3416,0 h 777.8288 v 470.25672 l -777.8288,5.4e-4 z"
             style="opacity:1;fill:#ffffff;fill-opacity:1;fill-rule:nonzero;stroke:none;stroke-width:4.54184;stroke-linecap:butt;stroke-linejoin:miter;stroke-miterlimit:10;stroke-dasharray:none;stroke-opacity:1;paint-order:stroke fill markers"
             id="path7865"
             sodipodi:nodetypes="ccccccccccccccc" />
          <g
             aria-label="  SƯƠNG MÙ"
             transform="matrix(5.9237255,0,0,7.0236413,-214.50983,-1474.7517)"
             id="text7874"
             style="font-size:19.643px;line-height:1.3;font-family:'Singapore Road Signs';-inkscape-font-specification:'Singapore Road Signs';text-align:center;text-anchor:middle;opacity:1;fill:#ffffff;fill-opacity:1;stroke-width:0.041019">
            <path
               d="m 333.31515,173.67831 q 0.0288,-0.0384 0.0767,-0.0384 0.0479,0 0.0863,0.0288 0.75771,0.61384 1.73602,0.9879 0.98791,0.36447 2.08132,0.36447 1.22769,0 1.93744,-0.50834 0.67139,-0.48915 0.67139,-1.29482 0,-1.51543 -1.69766,-1.74562 h 0.01 q -0.23978,-0.0288 -0.46038,-0.0575 -0.21101,-0.0288 -0.43161,-0.0575 -0.21101,-0.0288 -0.4412,-0.0575 -0.2206,-0.0384 -0.48915,-0.0767 -0.90159,-0.12469 -1.61134,-0.4508 -0.70017,-0.33569 -1.17974,-0.8824 -0.47956,-0.55629 -0.71934,-1.2085 -0.23979,-0.6618 -0.23979,-1.4387 0,-1.82235 1.20851,-2.96371 1.21809,-1.16055 3.38573,-1.16055 0.64262,0 1.24687,0.1151 0.61384,0.1055 1.17973,0.29733 0.57548,0.19182 1.09341,0.46038 0.52752,0.25896 1.00709,0.57548 0.0959,0.0671 0.0288,0.16305 l -1.16055,1.71684 q -0.0671,0.0863 -0.15346,0.0288 -0.74812,-0.46998 -1.59215,-0.74812 -0.84404,-0.28774 -1.74562,-0.28774 -0.46039,0 -0.85363,0.11509 -0.39324,0.10551 -0.70976,0.35488 -0.62343,0.45079 -0.62343,1.37156 0,0.52752 0.42202,1.02627 0.21101,0.23019 0.56588,0.39324 0.35488,0.15346 0.87281,0.23019 0.27815,0.048 0.65221,0.10551 0.37406,0.0479 0.8824,0.1055 1.96622,0.23978 2.91576,1.44829 0.94954,1.17973 0.94954,2.62802 0,1.93744 -1.35237,3.03085 -1.36197,1.07423 -3.58715,1.07423 -3.13636,0 -5.33277,-1.91826 -0.0384,-0.0288 -0.0384,-0.0767 0,-0.048 0.0288,-0.0863 z"
               style="font-style:normal;font-variant:normal;font-weight:normal;font-stretch:normal;font-family:Giaothong2;-inkscape-font-specification:Giaothong2;fill:#ffffff;fill-opacity:1;stroke-width:0.041019"
               id="path7923" />
            <path
               d="m 355.14496,161.45898 q 0.0575,0.048 0.1151,0.10551 0.63303,0.6618 0.65221,1.72643 0.0384,1.29483 -1.16055,2.11009 -0.49875,0.23019 -1.08382,0.3357 v 6.70432 q 0,2.206 -1.46747,3.54879 -1.44829,1.33319 -3.5296,1.33319 -2.0909,0 -3.54878,-1.33319 -1.45788,-1.34279 -1.45788,-3.54879 v -9.09256 q 0,-0.11509 0.11509,-0.11509 h 2.09091 q 0.1055,0 0.1055,0.11509 v 8.86237 q 0,1.38115 0.76731,2.09091 0.77689,0.71934 1.92785,0.71934 1.13177,0 1.90867,-0.71934 0.7769,-0.71935 0.7769,-2.09091 v -8.86237 q 0,-0.11509 0.11509,-0.11509 h 2.08132 q 0.11509,0 0.11509,0.11509 v 1.14137 q 0.87281,-0.37406 0.89199,-1.16055 -0.01,-0.63303 -0.37406,-0.91118 z"
               style="font-style:normal;font-variant:normal;font-weight:normal;font-stretch:normal;font-family:Giaothong2;-inkscape-font-specification:Giaothong2;fill:#ffffff;fill-opacity:1;stroke-width:0.041019"
               id="path7925" />
            <path
               d="m 359.21168,170.22544 q 0,1.04545 0.0288,1.72644 0.0288,0.67139 0.10551,0.99749 0.0767,0.29733 0.21101,0.59466 0.14387,0.28774 0.31651,0.50834 0.30692,0.40284 0.81526,0.69058 0.50834,0.27814 1.22769,0.27814 0.70975,0 1.21809,-0.27814 0.50834,-0.28774 0.80567,-0.69058 0.40284,-0.48915 0.52753,-1.103 0.15346,-0.61384 0.15346,-2.72393 0,-1.04545 -0.0384,-1.71684 -0.0384,-0.68099 -0.11509,-0.9975 -0.0671,-0.30692 -0.20142,-0.59466 -0.13428,-0.29733 -0.31652,-0.52752 -0.14386,-0.18224 -0.35487,-0.35488 -0.20142,-0.17265 -0.46039,-0.29733 -0.25896,-0.13428 -0.56588,-0.21101 -0.30693,-0.0863 -0.65221,-0.0863 -0.71935,0 -1.22769,0.28774 -0.50834,0.28774 -0.81526,0.6618 -0.18224,0.23019 -0.31651,0.52752 -0.13428,0.28774 -0.21101,0.59466 -0.0767,0.3261 -0.10551,1.00709 -0.0288,0.68098 -0.0288,1.70725 z m 7.81691,-8.79523 q 0.0767,0.0671 0.14387,0.13428 0.63303,0.6618 0.65221,1.72643 0.0384,1.29483 -1.16054,2.11009 -0.19183,0.0863 -0.39325,0.16305 0.0192,0.0384 0.048,0.0863 0.35488,0.6522 0.47956,1.36196 0.0671,0.36447 0.0959,1.16055 0.0384,0.79608 0.0384,2.05254 0,2.46497 -0.13428,3.22268 -0.0671,0.37406 -0.19182,0.70976 -0.1151,0.33569 -0.27815,0.64261 -0.50834,0.92077 -1.64011,1.72644 -1.13178,0.79608 -2.77189,0.79608 -1.6593,0 -2.79107,-0.79608 -1.1126,-0.78649 -1.61134,-1.72644 h 0.01 q -0.18224,-0.3261 -0.30692,-0.65221 -0.12469,-0.33569 -0.19183,-0.70016 -0.0575,-0.36447 -0.0959,-1.16055 -0.0288,-0.80567 -0.0288,-2.06213 0,-1.25646 0.0288,-2.05254 0.0384,-0.79608 0.0959,-1.16055 0.0671,-0.36447 0.19183,-0.70016 0.12468,-0.3357 0.30692,-0.6618 h -0.01 q 0.49874,-0.93036 1.61134,-1.72644 1.12218,-0.80567 2.79107,-0.80567 1.6497,0 2.77189,0.80567 0.42201,0.30692 0.75771,0.62344 0.9975,-0.36447 1.02627,-1.2181 -0.01,-0.65221 -0.41243,-0.93036 z"
               style="font-style:normal;font-variant:normal;font-weight:normal;font-stretch:normal;font-family:Giaothong2;-inkscape-font-specification:Giaothong2;fill:#ffffff;fill-opacity:1;stroke-width:0.041019"
               id="path7927" />
            <path
               d="m 369.44561,177.20791 q -0.1151,0 -0.1151,-0.11509 v -13.74435 q 0,-0.11509 0.1151,-0.11509 h 1.9758 q 0.0575,0 0.0959,0.0575 l 6.04252,9.51458 v -9.45703 q 0,-0.11509 0.1151,-0.11509 h 2.0909 q 0.1151,0 0.1151,0.11509 v 13.74435 q 0,0.11509 -0.1151,0.11509 h -1.96622 q -0.0575,0 -0.0959,-0.0575 L 371.642,167.6358 v 9.45703 q 0,0.11509 -0.1055,0.11509 z"
               style="font-style:normal;font-variant:normal;font-weight:normal;font-stretch:normal;font-family:Giaothong2;-inkscape-font-specification:Giaothong2;fill:#ffffff;fill-opacity:1;stroke-width:0.041019"
               id="path7929" />
            <path
               d="m 387.33339,171.61618 q -0.11509,0 -0.11509,-0.1151 v -1.97581 q 0,-0.1055 0.11509,-0.1055 h 4.88198 q 0.1151,0 0.1151,0.1055 v 2.80067 q 0,2.11968 -1.45788,3.54878 -1.47707,1.44829 -3.55838,1.44829 -1.6593,0 -2.79107,-0.79608 -1.11259,-0.78649 -1.61134,-1.72644 h 0.01 q -0.18223,-0.3261 -0.30692,-0.65221 -0.12469,-0.33569 -0.19183,-0.70016 -0.0575,-0.36447 -0.0959,-1.16055 -0.0288,-0.80567 -0.0288,-2.06213 0,-1.25646 0.0288,-2.05254 0.0384,-0.79608 0.0959,-1.16055 0.0671,-0.36447 0.19183,-0.70016 0.12469,-0.3357 0.30692,-0.6618 h -0.01 q 0.49875,-0.93036 1.61134,-1.72644 1.12218,-0.80567 2.79107,-0.80567 1.99499,0 3.29941,1.22769 1.3236,1.22769 1.64011,2.93494 0.0192,0.0575 -0.0192,0.0959 -0.0384,0.0384 -0.0959,0.0384 h -2.19641 q -0.0863,0 -0.10551,-0.0767 -0.12468,-0.38366 -0.35487,-0.70976 -0.23019,-0.3357 -0.56589,-0.62344 -0.63303,-0.56588 -1.60175,-0.56588 -0.71935,0 -1.22769,0.28774 -0.50834,0.28774 -0.81526,0.6618 -0.18223,0.23019 -0.31651,0.52752 -0.13428,0.28774 -0.21101,0.59466 -0.0767,0.3261 -0.1055,1.00709 -0.0288,0.68098 -0.0288,1.70725 0,1.04545 0.0288,1.72644 0.0288,0.67139 0.1055,0.99749 0.0767,0.29733 0.21101,0.59466 0.14387,0.28774 0.31651,0.50834 0.30692,0.40284 0.81526,0.69058 0.50834,0.27814 1.22769,0.27814 1.14137,0 1.91826,-0.77689 0.78649,-0.7769 0.78649,-2.03336 v -0.59466 z"
               style="font-style:normal;font-variant:normal;font-weight:normal;font-stretch:normal;font-family:Giaothong2;-inkscape-font-specification:Giaothong2;fill:#ffffff;fill-opacity:1;stroke-width:0.041019"
               id="path7931" />
            <path
               d="m 399.5719,177.20791 q -0.11509,0 -0.11509,-0.11509 v -13.74435 q 0,-0.11509 0.11509,-0.11509 h 1.96622 q 0.0671,0 0.10551,0.0671 l 3.84611,8.71849 q 0.93036,-2.19641 1.87031,-4.35445 0.93994,-2.16764 1.87989,-4.36404 0.0288,-0.0671 0.10551,-0.0671 h 1.96621 q 0.1151,0 0.1151,0.11509 v 13.74435 q 0,0.11509 -0.1151,0.11509 h -2.08131 q -0.11509,0 -0.11509,-0.11509 v -8.11425 q -0.6714,1.56338 -1.35238,3.10758 -0.68098,1.5442 -1.34278,3.098 -0.0384,0.0575 -0.10551,0.0575 h -1.73602 q -0.0671,0 -0.10551,-0.0575 l -2.70475,-6.22476 v 8.13343 q 0,0.11509 -0.11509,0.11509 z"
               style="font-style:normal;font-variant:normal;font-weight:normal;font-stretch:normal;font-family:Giaothong2;-inkscape-font-specification:Giaothong2;fill:#ffffff;fill-opacity:1;stroke-width:0.041019"
               id="path7933" />
            <path
               d="m 414.08355,163.34847 q 0,-0.11509 0.1151,-0.11509 h 2.0909 q 0.10551,0 0.10551,0.11509 v 8.86237 q 0,1.38115 0.7673,2.09091 0.7769,0.71934 1.92786,0.71934 1.13177,0 1.90867,-0.71934 0.77689,-0.71935 0.77689,-2.09091 v -8.86237 q 0,-0.11509 0.1151,-0.11509 h 2.08131 q 0.1151,0 0.1151,0.11509 v 9.09256 q 0,2.206 -1.46747,3.54879 -1.44829,1.33319 -3.5296,1.33319 -2.09091,0 -3.54879,-1.33319 -1.45788,-1.34279 -1.45788,-3.54879 z m 5.60133,-1.35237 q -0.0192,0 -0.048,-0.01 -0.0288,-0.0192 -0.0384,-0.0288 l -2.6472,-2.80066 q -0.0576,-0.0575 -0.0288,-0.12469 0.0384,-0.0671 0.1151,-0.0671 h 2.11008 q 0.0575,0 0.0959,0.0575 l 2.00458,2.80066 q 0.0288,0.0671 0,0.12469 -0.0192,0.048 -0.0959,0.048 z"
               style="font-style:normal;font-variant:normal;font-weight:normal;font-stretch:normal;font-family:Giaothong2;-inkscape-font-specification:Giaothong2;fill:#ffffff;fill-opacity:1;stroke-width:0.041019"
               id="path7935" />
          </g>
          <g
             aria-label="ĐƯỜNG NHIỀU  "
             transform="matrix(5.9437365,0,0,6.9999943,-214.50983,-1474.7517)"
             id="text7900"
             style="font-size:19.6653px;line-height:1.3;font-family:'Singapore Road Signs';-inkscape-font-specification:'Singapore Road Signs';text-align:center;text-anchor:middle;opacity:1;fill:#ffffff;fill-opacity:1;stroke-width:0.041019">
            <path
               d="m 317.29543,154.62395 q -0.10562,0 -0.10562,-0.11522 v -5.91496 h -1.00824 q -0.10562,0 -0.10562,-0.10562 v -1.97806 q 0,-0.11522 0.10562,-0.11522 h 1.00824 v -5.64609 q 0,-0.11523 0.10562,-0.11523 h 4.8203 q 2.87106,0 4.29219,2.37174 0.25925,0.46091 0.42249,0.8738 0.16324,0.4129 0.21125,0.80659 0.11523,0.76817 0.11523,2.94787 0,1.17147 -0.0384,1.95885 -0.0384,0.77778 -0.11523,1.17147 -0.0768,0.40329 -0.24005,0.78738 -0.15364,0.37448 -0.39369,0.74897 v -0.01 q -0.64335,0.98902 -1.7284,1.66118 -1.12346,0.67215 -2.65981,0.67215 z m 2.20851,-11.78189 v 3.55281 h 2.50617 q 0.11523,0 0.11523,0.11522 v 1.97806 q 0,0.10562 -0.11523,0.10562 h -2.50617 v 3.84088 h 2.38134 q 1.65158,0 2.45816,-1.15226 0.33608,-0.50892 0.4033,-1.06585 0.048,-0.30727 0.0672,-0.92181 0.0288,-0.62414 0.0288,-1.58436 0,-0.93141 -0.0288,-1.55556 -0.0192,-0.62414 -0.0672,-0.98902 -0.10563,-0.68176 -0.49932,-1.21948 -0.81619,-1.10425 -2.36214,-1.10425 z"
               style="font-style:normal;font-variant:normal;font-weight:normal;font-stretch:normal;font-family:Giaothong2;-inkscape-font-specification:Giaothong2;fill:#ffffff;fill-opacity:1;stroke-width:0.041019"
               id="path7902" />
            <path
               d="m 340.35991,138.85714 q 0.0576,0.048 0.11522,0.10563 0.63375,0.66255 0.65295,1.72839 0.0384,1.2963 -1.16186,2.11249 -0.49932,0.23045 -1.08505,0.33607 v 6.71194 q 0,2.2085 -1.46914,3.55281 -1.44993,1.33471 -3.5336,1.33471 -2.09328,0 -3.55282,-1.33471 -1.45953,-1.34431 -1.45953,-3.55281 v -9.10288 q 0,-0.11523 0.11522,-0.11523 h 2.09328 q 0.10563,0 0.10563,0.11523 v 8.87243 q 0,1.38271 0.76817,2.09328 0.77778,0.72016 1.93005,0.72016 1.13305,0 1.91083,-0.72016 0.77778,-0.72017 0.77778,-2.09328 v -8.87243 q 0,-0.11523 0.11523,-0.11523 h 2.08367 q 0.11523,0 0.11523,0.11523 v 1.14266 q 0.8738,-0.37449 0.893,-1.16187 -0.01,-0.63374 -0.37448,-0.91221 z"
               style="font-style:normal;font-variant:normal;font-weight:normal;font-stretch:normal;font-family:Giaothong2;-inkscape-font-specification:Giaothong2;fill:#ffffff;fill-opacity:1;stroke-width:0.041019"
               id="path7904" />
            <path
               d="m 344.43124,147.63355 q 0,1.04664 0.0288,1.7284 0.0288,0.67215 0.10562,0.99863 0.0768,0.29766 0.21125,0.59533 0.14403,0.28807 0.31687,0.50892 0.30727,0.40329 0.81619,0.69136 0.50891,0.27846 1.22908,0.27846 0.71056,0 1.21948,-0.27846 0.50892,-0.28807 0.80658,-0.69136 0.4033,-0.48971 0.52812,-1.10425 0.15364,-0.61454 0.15364,-2.72703 0,-1.04664 -0.0384,-1.71879 -0.0384,-0.68176 -0.11523,-0.99863 -0.0672,-0.30727 -0.20164,-0.59534 -0.13443,-0.29766 -0.31687,-0.52812 -0.14404,-0.18244 -0.35529,-0.35528 -0.20164,-0.17284 -0.4609,-0.29767 -0.25926,-0.13443 -0.56653,-0.21124 -0.30727,-0.0864 -0.65295,-0.0864 -0.72017,0 -1.22908,0.28806 -0.50892,0.28807 -0.81619,0.66255 -0.18244,0.23046 -0.31687,0.52812 -0.13443,0.28807 -0.21125,0.59534 -0.0768,0.32647 -0.10562,1.00823 -0.0288,0.68176 -0.0288,1.70919 z m 3.30316,-8.23868 q -0.0192,0 -0.048,-0.01 -0.0288,-0.0192 -0.0384,-0.0288 l -2.65021,-2.80384 q -0.0576,-0.0576 -0.0288,-0.12483 0.0384,-0.0672 0.11523,-0.0672 h 2.11248 q 0.0576,0 0.096,0.0576 l 2.00686,2.80384 q 0.0288,0.0672 0,0.12483 -0.0192,0.048 -0.096,0.048 z m 4.52263,-0.56653 q 0.0768,0.0672 0.14403,0.13443 0.63375,0.66255 0.65295,1.72839 0.0384,1.2963 -1.16186,2.11249 -0.19205,0.0864 -0.39369,0.16323 0.0192,0.0384 0.048,0.0864 0.35528,0.65295 0.48011,1.36352 0.0672,0.36488 0.096,1.16186 0.0384,0.79698 0.0384,2.05487 0,2.46777 -0.13443,3.22634 -0.0672,0.37449 -0.19205,0.71056 -0.11522,0.33608 -0.27846,0.64335 -0.50892,0.92181 -1.64198,1.7284 -1.13305,0.79698 -2.77503,0.79698 -1.66118,0 -2.79424,-0.79698 -1.11385,-0.78738 -1.61317,-1.7284 h 0.01 q -0.18244,-0.32647 -0.30727,-0.65295 -0.12483,-0.33608 -0.19204,-0.70096 -0.0576,-0.36488 -0.096,-1.16187 -0.0288,-0.80658 -0.0288,-2.06447 0,-1.25789 0.0288,-2.05487 0.0384,-0.79698 0.096,-1.16186 0.0672,-0.36489 0.19204,-0.70096 0.12483,-0.33608 0.30727,-0.66256 h -0.01 q 0.49932,-0.93141 1.61317,-1.72839 1.12346,-0.80659 2.79424,-0.80659 1.65158,0 2.77503,0.80659 0.4225,0.30727 0.75858,0.62414 0.99863,-0.36488 1.02743,-1.21948 -0.01,-0.65295 -0.41289,-0.93141 z"
               style="font-style:normal;font-variant:normal;font-weight:normal;font-stretch:normal;font-family:Giaothong2;-inkscape-font-specification:Giaothong2;fill:#ffffff;fill-opacity:1;stroke-width:0.041019"
               id="path7906" />
            <path
               d="m 354.67679,154.62395 q -0.11523,0 -0.11523,-0.11522 v -13.75995 q 0,-0.11523 0.11523,-0.11523 h 1.97805 q 0.0576,0 0.096,0.0576 l 6.04938,9.52538 v -9.46776 q 0,-0.11523 0.11523,-0.11523 h 2.09328 q 0.11523,0 0.11523,0.11523 v 13.75995 q 0,0.11522 -0.11523,0.11522 h -1.96845 q -0.0576,0 -0.096,-0.0576 l -6.06859,-9.52538 v 9.46777 q 0,0.11522 -0.10563,0.11522 z"
               style="font-style:normal;font-variant:normal;font-weight:normal;font-stretch:normal;font-family:Giaothong2;-inkscape-font-specification:Giaothong2;fill:#ffffff;fill-opacity:1;stroke-width:0.041019"
               id="path7908" />
            <path
               d="m 372.58488,149.02587 q -0.11523,0 -0.11523,-0.11523 v -1.97805 q 0,-0.10562 0.11523,-0.10562 h 4.88752 q 0.11523,0 0.11523,0.10562 v 2.80384 q 0,2.12209 -1.45954,3.55282 -1.47874,1.44993 -3.56241,1.44993 -1.66118,0 -2.79424,-0.79698 -1.11386,-0.78738 -1.61317,-1.7284 h 0.01 q -0.18244,-0.32647 -0.30727,-0.65295 -0.12483,-0.33608 -0.19204,-0.70096 -0.0576,-0.36488 -0.096,-1.16187 -0.0288,-0.80658 -0.0288,-2.06447 0,-1.25789 0.0288,-2.05487 0.0384,-0.79698 0.096,-1.16186 0.0672,-0.36489 0.19204,-0.70096 0.12483,-0.33608 0.30727,-0.66256 h -0.01 q 0.49931,-0.93141 1.61317,-1.72839 1.12345,-0.80659 2.79424,-0.80659 1.99725,0 3.30315,1.22908 1.32511,1.22909 1.64198,2.93828 0.0192,0.0576 -0.0192,0.096 -0.0384,0.0384 -0.096,0.0384 h -2.1989 q -0.0864,0 -0.10563,-0.0768 -0.12482,-0.38409 -0.35528,-0.71056 -0.23045,-0.33608 -0.56653,-0.62415 -0.63374,-0.56652 -1.60356,-0.56652 -0.72017,0 -1.22908,0.28806 -0.50892,0.28807 -0.81619,0.66255 -0.18244,0.23046 -0.31687,0.52812 -0.13443,0.28807 -0.21125,0.59534 -0.0768,0.32647 -0.10563,1.00823 -0.0288,0.68176 -0.0288,1.70919 0,1.04664 0.0288,1.7284 0.0288,0.67215 0.10563,0.99863 0.0768,0.29766 0.21125,0.59533 0.14403,0.28807 0.31687,0.50892 0.30727,0.40329 0.81619,0.69136 0.50891,0.27846 1.22908,0.27846 1.14266,0 1.92044,-0.77778 0.78738,-0.77778 0.78738,-2.03566 v -0.59534 z"
               style="font-style:normal;font-variant:normal;font-weight:normal;font-stretch:normal;font-family:Giaothong2;-inkscape-font-specification:Giaothong2;fill:#ffffff;fill-opacity:1;stroke-width:0.041019"
               id="path7910" />
            <path
               d="m 384.82768,154.62395 q -0.11522,0 -0.11522,-0.11522 v -13.75995 q 0,-0.11523 0.11522,-0.11523 h 1.97806 q 0.0576,0 0.096,0.0576 l 6.04938,9.52538 v -9.46776 q 0,-0.11523 0.11523,-0.11523 h 2.09328 q 0.11522,0 0.11522,0.11523 v 13.75995 q 0,0.11522 -0.11522,0.11522 h -1.96845 q -0.0576,0 -0.096,-0.0576 l -6.06859,-9.52538 v 9.46777 q 0,0.11522 -0.10563,0.11522 z"
               style="font-style:normal;font-variant:normal;font-weight:normal;font-stretch:normal;font-family:Giaothong2;-inkscape-font-specification:Giaothong2;fill:#ffffff;fill-opacity:1;stroke-width:0.041019"
               id="path7912" />
            <path
               d="m 405.81809,154.62395 q -0.11523,0 -0.11523,-0.11522 v -5.89575 h -5.2332 v 5.89575 q 0,0.11522 -0.11522,0.11522 h -2.08368 q -0.11523,0 -0.11523,-0.11522 v -13.75995 q 0,-0.11523 0.11523,-0.11523 h 2.08368 q 0.11522,0 0.11522,0.11523 v 5.78052 h 5.2332 v -5.78052 q 0,-0.11523 0.11523,-0.11523 h 2.08367 q 0.11523,0 0.11523,0.11523 v 13.75995 q 0,0.11522 -0.11523,0.11522 z"
               style="font-style:normal;font-variant:normal;font-weight:normal;font-stretch:normal;font-family:Giaothong2;-inkscape-font-specification:Giaothong2;fill:#ffffff;fill-opacity:1;stroke-width:0.041019"
               id="path7914" />
            <path
               d="m 410.99367,154.62395 q -0.11523,0 -0.11523,-0.11522 v -13.75995 q 0,-0.11523 0.11523,-0.11523 h 2.08368 q 0.11522,0 0.11522,0.11523 v 13.75995 q 0,0.11522 -0.11522,0.11522 z"
               style="font-style:normal;font-variant:normal;font-weight:normal;font-stretch:normal;font-family:Giaothong2;-inkscape-font-specification:Giaothong2;fill:#ffffff;fill-opacity:1;stroke-width:0.041019"
               id="path7916" />
            <path
               d="m 416.09244,154.62395 q -0.11523,0 -0.11523,-0.11522 v -13.75995 q 0,-0.11523 0.11523,-0.11523 h 8.79561 q 0.11523,0 0.11523,0.11523 v 1.97805 q 0,0.11523 -0.11523,0.11523 h -6.59671 v 3.68724 h 5.60769 q 0.11522,0 0.11522,0.11523 v 1.86282 q 0,0.10563 -0.11522,0.10563 h -5.60769 v 3.82167 h 6.59671 q 0.11523,0 0.11523,0.11523 v 1.95885 q 0,0.11522 -0.11523,0.11522 z m 0.93141,-15.22908 q -0.0864,0 -0.10562,-0.0768 -0.0192,-0.0768 0.0384,-0.12483 l 2.82304,-2.23731 h 1.2963 l 2.86145,2.23731 q 0.0672,0.048 0.0384,0.12483 -0.0192,0.0768 -0.10562,0.0768 h -1.61317 l -1.92044,-1.03704 q -0.4225,0.25926 -0.8546,0.51852 -0.43209,0.25926 -0.85459,0.51852 z m 6.73114,-1.40192 q -0.0192,0 -0.048,-0.01 -0.0288,-0.0192 -0.0384,-0.0288 l -2.6502,-2.80384 q -0.0576,-0.0576 -0.0288,-0.12483 0.0384,-0.0672 0.11523,-0.0672 h 2.11248 q 0.0576,0 0.096,0.0576 l 2.00686,2.80385 q 0.0288,0.0672 0,0.12482 -0.0192,0.048 -0.096,0.048 z"
               style="font-style:normal;font-variant:normal;font-weight:normal;font-stretch:normal;font-family:Giaothong2;-inkscape-font-specification:Giaothong2;fill:#ffffff;fill-opacity:1;stroke-width:0.041019"
               id="path7918" />
            <path
               d="m 426.67406,140.74878 q 0,-0.11523 0.11522,-0.11523 h 2.09328 q 0.10563,0 0.10563,0.11523 v 8.87243 q 0,1.38271 0.76817,2.09328 0.77778,0.72016 1.93005,0.72016 1.13305,0 1.91083,-0.72016 0.77778,-0.72017 0.77778,-2.09328 v -8.87243 q 0,-0.11523 0.11523,-0.11523 h 2.08367 q 0.11523,0 0.11523,0.11523 v 9.10288 q 0,2.2085 -1.46914,3.55281 -1.44993,1.33471 -3.5336,1.33471 -2.09328,0 -3.55282,-1.33471 -1.45953,-1.34431 -1.45953,-3.55281 z"
               style="font-style:normal;font-variant:normal;font-weight:normal;font-stretch:normal;font-family:Giaothong2;-inkscape-font-specification:Giaothong2;fill:#ffffff;fill-opacity:1;stroke-width:0.041019"
               id="path7920" />
          </g>
          <g
             transform="matrix(6.4502804,0,0,6.4502804,-214.50983,-1474.7517)"
             aria-label="ĐI CHẬM"
             id="text7940"
             style="font-size:17.5432px;line-height:1.3;font-family:'Singapore Road Signs';-inkscape-font-specification:'Singapore Road Signs';text-align:center;text-anchor:middle;opacity:1;fill:#0046aa;fill-opacity:1;stroke-width:0.041019">
            <path
               d="m 216.74139,177.45984 q -0.0942,0 -0.0942,-0.10279 v -5.27666 h -0.89943 q -0.0942,0 -0.0942,-0.0942 v -1.7646 q 0,-0.10279 0.0942,-0.10279 h 0.89943 v -5.03682 q 0,-0.10279 0.0942,-0.10279 h 4.30014 q 2.56123,0 3.829,2.11581 0.23129,0.41116 0.37691,0.7795 0.14562,0.36834 0.18845,0.71955 0.10279,0.68528 0.10279,2.62977 0,1.04505 -0.0343,1.74746 -0.0343,0.69385 -0.10279,1.04506 -0.0685,0.35977 -0.21415,0.70241 -0.13706,0.33407 -0.35121,0.66815 v -0.009 q -0.57392,0.8823 -1.54188,1.48192 -1.00223,0.59962 -2.37279,0.59962 z m 1.97018,-10.5105 v 3.16943 h 2.23573 q 0.10279,0 0.10279,0.10279 v 1.7646 q 0,0.0942 -0.10279,0.0942 h -2.23573 v 3.4264 h 2.12437 q 1.47336,0 2.1929,-1.02792 0.29981,-0.454 0.35977,-0.95083 0.0428,-0.27411 0.06,-0.82233 0.0257,-0.55679 0.0257,-1.4134 0,-0.8309 -0.0257,-1.38769 -0.0171,-0.55679 -0.06,-0.8823 -0.0942,-0.60819 -0.44543,-1.08788 -0.72811,-0.9851 -2.10724,-0.9851 z"
               style="font-style:normal;font-variant:normal;font-weight:normal;font-stretch:normal;font-family:Giaothong2;-inkscape-font-specification:Giaothong2;fill:#0046aa;fill-opacity:1;stroke-width:0.041019"
               id="path8682" />
            <path
               d="m 227.79155,177.45984 q -0.1028,0 -0.1028,-0.10279 v -12.2751 q 0,-0.10279 0.1028,-0.10279 h 1.85882 q 0.10279,0 0.10279,0.10279 v 12.2751 q 0,0.10279 -0.10279,0.10279 z"
               style="font-style:normal;font-variant:normal;font-weight:normal;font-stretch:normal;font-family:Giaothong2;-inkscape-font-specification:Giaothong2;fill:#0046aa;fill-opacity:1;stroke-width:0.041019"
               id="path8684" />
            <path
               d="m 244.82935,173.82785 q 0.0514,0 0.0857,0.0428 0.0343,0.0343 0.0171,0.0857 -0.35977,1.74747 -1.59328,2.68973 -0.59962,0.454 -1.30203,0.68528 -0.70241,0.23129 -1.51618,0.23129 -1.48193,0 -2.49272,-0.71098 -0.99365,-0.70242 -1.43909,-1.54189 -0.15418,-0.29124 -0.26554,-0.58248 -0.11136,-0.29981 -0.17132,-0.62532 -0.11136,-0.63389 -0.11136,-2.87818 0,-1.12215 0.0257,-1.83313 0.0257,-0.71098 0.0857,-1.03649 0.06,-0.32551 0.17132,-0.62532 0.11136,-0.29981 0.26554,-0.59105 0.44544,-0.83091 1.43909,-1.54189 1.00223,-0.71954 2.49272,-0.71954 1.78173,0 2.9467,1.09645 1.18211,1.10501 1.46479,2.6212 0.0171,0.0514 -0.0171,0.0857 -0.0343,0.0343 -0.0857,0.0343 h -1.96162 q -0.0771,0 -0.0942,-0.0685 -0.11136,-0.34264 -0.31695,-0.63388 -0.20558,-0.29981 -0.50539,-0.55679 -0.56536,-0.5054 -1.43052,-0.5054 -0.64246,0 -1.09645,0.25698 -0.454,0.25698 -0.72812,0.59106 -0.16275,0.20558 -0.28267,0.47113 -0.11993,0.25698 -0.18846,0.53109 -0.0685,0.29125 -0.0942,0.89943 -0.0257,0.60819 -0.0257,1.52476 0,0.93369 0.0257,1.54188 0.0257,0.59962 0.0942,0.89086 0.0685,0.26555 0.18846,0.5311 0.12849,0.25698 0.28267,0.454 0.27412,0.35977 0.72812,0.61675 0.45399,0.24841 1.09645,0.24841 1.48192,0 2.25286,-1.61897 0.0171,-0.0171 0.0428,-0.0343 0.0257,-0.0257 0.0514,-0.0257 z"
               style="font-style:normal;font-variant:normal;font-weight:normal;font-stretch:normal;font-family:Giaothong2;-inkscape-font-specification:Giaothong2;fill:#0046aa;fill-opacity:1;stroke-width:0.041019"
               id="path8686" />
            <path
               d="m 253.05272,177.45984 q -0.10279,0 -0.10279,-0.10279 v -5.25953 h -4.66848 v 5.25953 q 0,0.10279 -0.10279,0.10279 h -1.85882 q -0.1028,0 -0.1028,-0.10279 v -12.2751 q 0,-0.10279 0.1028,-0.10279 h 1.85882 q 0.10279,0 0.10279,0.10279 v 5.15674 h 4.66848 v -5.15674 q 0,-0.10279 0.10279,-0.10279 h 1.85883 q 0.10279,0 0.10279,0.10279 v 12.2751 q 0,0.10279 -0.10279,0.10279 z"
               style="font-style:normal;font-variant:normal;font-weight:normal;font-stretch:normal;font-family:Giaothong2;-inkscape-font-specification:Giaothong2;fill:#0046aa;fill-opacity:1;stroke-width:0.041019"
               id="path8688" />
            <path
               d="m 256.4877,177.45128 q -0.06,0 -0.0857,-0.0428 -0.0257,-0.0428 -0.009,-0.0942 l 4.48859,-12.28366 q 0.0171,-0.0685 0.0857,-0.0685 h 1.53332 q 0.0257,0 0.0514,0.0257 0.0343,0.0171 0.0428,0.0428 l 4.48002,12.28366 q 0.0171,0.0514 -0.009,0.0942 -0.0257,0.0428 -0.0771,0.0428 h -1.96162 q -0.0685,0 -0.0857,-0.0685 l -0.92513,-2.70686 h -4.52285 q -0.23985,0.69385 -0.4797,1.362 -0.23128,0.65958 -0.47113,1.34486 -0.009,0.0257 -0.0428,0.0514 -0.0257,0.0171 -0.0514,0.0171 z m 6.91277,-4.61708 q -0.0171,-0.06 -0.0514,-0.12849 -0.0257,-0.0685 -0.0428,-0.11993 -0.14562,-0.41973 -0.26554,-0.77094 -0.11993,-0.35977 -0.21415,-0.62532 -0.06,-0.17132 -0.11993,-0.33407 -0.0514,-0.16276 -0.10279,-0.30838 -0.0428,-0.13706 -0.0857,-0.25698 -0.0428,-0.12849 -0.0857,-0.24841 -0.0771,-0.24842 -0.16275,-0.49683 -0.0771,-0.24842 -0.16276,-0.51396 -0.0428,-0.11993 -0.0942,-0.26555 -0.0428,-0.14562 -0.0942,-0.30838 -0.0257,-0.0857 -0.0428,-0.12849 -0.009,-0.0514 -0.0257,-0.0942 -0.0171,-0.0514 -0.0428,-0.11136 -0.0171,-0.06 -0.0514,-0.17132 -0.0942,0.28268 -0.17989,0.52252 -0.0771,0.23985 -0.14562,0.44544 -0.0171,0.0514 -0.0257,0.0942 -0.009,0.0428 -0.0257,0.0857 -0.0428,0.14563 -0.0942,0.27412 -0.0428,0.12849 -0.0857,0.25698 -0.0428,0.13705 -0.0857,0.26554 -0.0428,0.12849 -0.0857,0.24842 -0.0857,0.25698 -0.17988,0.53966 -0.0857,0.28268 -0.19702,0.59105 -0.11136,0.30838 -0.23128,0.66815 -0.11993,0.35121 -0.30838,0.89087 z m -4.71987,-8.96006 q -0.0771,0 -0.0942,-0.0685 -0.0171,-0.0685 0.0343,-0.11136 l 2.51841,-1.99588 h 1.15641 l 2.55268,1.99588 q 0.06,0.0428 0.0343,0.11136 -0.0171,0.0685 -0.0942,0.0685 h -1.4391 l -1.7132,-0.92513 q -0.3769,0.23129 -0.76237,0.46257 -0.38547,0.23128 -0.76238,0.46256 z m 2.22716,16.96071 q -0.0942,0 -0.0942,-0.0942 v -1.65324 q 0,-0.0942 0.0942,-0.0942 h 1.66181 q 0.0857,0 0.0857,0.0942 v 1.65324 q 0,0.0942 -0.0857,0.0942 z"
               style="font-style:normal;font-variant:normal;font-weight:normal;font-stretch:normal;font-family:Giaothong2;-inkscape-font-specification:Giaothong2;fill:#0046aa;fill-opacity:1;stroke-width:0.041019"
               id="path8690" />
            <path
               d="m 268.63431,177.45984 q -0.10279,0 -0.10279,-0.10279 v -12.2751 q 0,-0.10279 0.10279,-0.10279 h 1.75603 q 0.06,0 0.0942,0.06 l 3.43497,7.78651 q 0.8309,-1.96162 1.67037,-3.88897 0.83947,-1.93592 1.67894,-3.89754 0.0257,-0.06 0.0942,-0.06 h 1.75603 q 0.10279,0 0.10279,0.10279 v 12.2751 q 0,0.10279 -0.10279,0.10279 h -1.85883 q -0.10279,0 -0.10279,-0.10279 v -7.24685 q -0.59962,1.39626 -1.20781,2.77539 -0.60818,1.37913 -1.19924,2.76683 -0.0343,0.0514 -0.0942,0.0514 h -1.55045 q -0.06,0 -0.0942,-0.0514 l -2.41562,-5.55935 v 7.26398 q 0,0.10279 -0.10279,0.10279 z"
               style="font-style:normal;font-variant:normal;font-weight:normal;font-stretch:normal;font-family:Giaothong2;-inkscape-font-specification:Giaothong2;fill:#0046aa;fill-opacity:1;stroke-width:0.041019"
               id="path8692" />
          </g>
        </g>
      </g>
    </g>
  </g>
</svg>
