<?xml version="1.0" encoding="UTF-8" standalone="no"?>
<svg
   xmlns:dc="http://purl.org/dc/elements/1.1/"
   xmlns:cc="http://creativecommons.org/ns#"
   xmlns:rdf="http://www.w3.org/1999/02/22-rdf-syntax-ns#"
   xmlns:svg="http://www.w3.org/2000/svg"
   xmlns="http://www.w3.org/2000/svg"
   xmlns:sodipodi="http://sodipodi.sourceforge.net/DTD/sodipodi-0.dtd"
   xmlns:inkscape="http://www.inkscape.org/namespaces/inkscape"
   width="145.9812mm"
   height="200mm"
   viewBox="0 0 145.9812 199.99999"
   version="1.1"
   id="svg9491"
   inkscape:version="1.0 (4035a4fb49, 2020-05-01)"
   sodipodi:docname="Vietnam_road_sign_IE457b.svg">
  <defs
     id="defs9485">
    <clipPath
       id="clipPath2832">
      <path
         d="M -0.24,595.138 H 317.24 V -0.138 H -0.24 Z"
         id="path2834"
         inkscape:connector-curvature="0" />
    </clipPath>
    <clipPath
       id="clipPath2840">
      <path
         d="M 0.03,595.32 H 317.49 V 0 H 0.03 Z"
         id="path2842"
         inkscape:connector-curvature="0" />
    </clipPath>
    <clipPath
       id="clipPath2858">
      <path
         d="M -0.24,595.138 H 317.24 V -0.138 H -0.24 Z"
         id="path2860"
         inkscape:connector-curvature="0" />
    </clipPath>
    <clipPath
       id="clipPath2864">
      <path
         d="M 0.03,595.32 H 317.49 V 0 H 0.03 Z"
         id="path2866"
         inkscape:connector-curvature="0" />
    </clipPath>
    <clipPath
       id="clipPath3306">
      <path
         d="m 199.238,472.977 v -29.74 h 29.744 v 29.74"
         id="path3308"
         inkscape:connector-curvature="0" />
    </clipPath>
    <clipPath
       id="clipPath3322">
      <path
         d="M -0.24,595.138 H 317.24 V -0.138 H -0.24 Z"
         id="path3324"
         inkscape:connector-curvature="0" />
    </clipPath>
    <clipPath
       id="clipPath3330">
      <path
         d="M 0.03,595.32 H 317.49 V 0 H 0.03 Z"
         id="path3332"
         inkscape:connector-curvature="0" />
    </clipPath>
    <clipPath
       id="clipPath3344">
      <path
         d="m 88.233,387.221 v -28.335 h 32.08 v 28.335"
         id="path3346"
         inkscape:connector-curvature="0" />
    </clipPath>
    <clipPath
       id="clipPath3462">
      <path
         d="M -0.24,595.138 H 317.24 V -0.138 H -0.24 Z"
         id="path3464"
         inkscape:connector-curvature="0" />
    </clipPath>
    <clipPath
       id="clipPath3470">
      <path
         d="M 0.03,595.32 H 317.49 V 0 H 0.03 Z"
         id="path3472"
         inkscape:connector-curvature="0" />
    </clipPath>
    <clipPath
       id="clipPath3490">
      <path
         d="M -0.24,595.138 H 317.24 V -0.138 H -0.24 Z"
         id="path3492"
         inkscape:connector-curvature="0" />
    </clipPath>
    <clipPath
       id="clipPath3496">
      <path
         d="M 0.03,595.32 H 317.49 V 0 H 0.03 Z"
         id="path3498"
         inkscape:connector-curvature="0" />
    </clipPath>
    <clipPath
       id="clipPath3520">
      <path
         d="m 254.788,326.215 v -28.309 h 28.326 v 28.309"
         id="path3522"
         inkscape:connector-curvature="0" />
    </clipPath>
    <clipPath
       id="clipPath3544">
      <path
         d="m 145.049,326.142 v -28.333 h 28.342 v 28.333"
         id="path3546"
         inkscape:connector-curvature="0" />
    </clipPath>
    <clipPath
       id="clipPath3682">
      <path
         d="M -0.24,595.138 H 317.24 V -0.138 H -0.24 Z"
         id="path3684"
         inkscape:connector-curvature="0" />
    </clipPath>
    <clipPath
       id="clipPath3690">
      <path
         d="M 0.03,595.32 H 317.49 V 0 H 0.03 Z"
         id="path3692"
         inkscape:connector-curvature="0" />
    </clipPath>
    <clipPath
       id="clipPath3980">
      <path
         d="M -0.24,595.138 H 317.24 V -0.138 H -0.24 Z"
         id="path3982"
         inkscape:connector-curvature="0" />
    </clipPath>
    <clipPath
       id="clipPath3988">
      <path
         d="M 0.03,595.32 H 317.49 V 0 H 0.03 Z"
         id="path3990"
         inkscape:connector-curvature="0" />
    </clipPath>
    <clipPath
       id="clipPath4010">
      <path
         d="M -0.24,595.138 H 317.24 V -0.138 H -0.24 Z"
         id="path4012"
         inkscape:connector-curvature="0" />
    </clipPath>
    <clipPath
       id="clipPath4016">
      <path
         d="M 0.03,595.32 H 317.49 V 0 H 0.03 Z"
         id="path4018"
         inkscape:connector-curvature="0" />
    </clipPath>
    <clipPath
       id="clipPath4062">
      <path
         d="m 200.163,177.773 v -28.284 h 28.283 v 28.284"
         id="path4064"
         inkscape:connector-curvature="0" />
    </clipPath>
    <clipPath
       id="clipPath4090">
      <path
         d="m 34.886,177.515 v -51.632 h 30.367 v 51.632"
         id="path4092"
         inkscape:connector-curvature="0" />
    </clipPath>
    <clipPath
       id="clipPath4106">
      <path
         d="m 34.886,177.515 v -51.632 h 30.367 v 51.632"
         id="path4108"
         inkscape:connector-curvature="0" />
    </clipPath>
    <clipPath
       id="clipPath4272">
      <path
         d="m 34.886,177.515 v -51.632 h 30.367 v 51.632"
         id="path4274"
         inkscape:connector-curvature="0" />
    </clipPath>
    <clipPath
       id="clipPath4304">
      <path
         d="m 254.653,176.442 v -48.167 h 28.317 v 48.167"
         id="path4306"
         inkscape:connector-curvature="0" />
    </clipPath>
    <clipPath
       id="clipPath4310">
      <path
         d="m 253.565,177.983 h 31.181 V 128.8 h -31.181 z"
         id="path4312"
         inkscape:connector-curvature="0" />
    </clipPath>
    <clipPath
       id="clipPath4316">
      <path
         d="M -0.24,595.138 H 317.24 V -0.138 H -0.24 Z"
         id="path4318"
         inkscape:connector-curvature="0" />
    </clipPath>
    <clipPath
       id="clipPath4322">
      <path
         d="M 0.03,595.32 H 317.49 V 0 H 0.03 Z"
         id="path4324"
         inkscape:connector-curvature="0" />
    </clipPath>
    <clipPath
       id="clipPath4456">
      <path
         d="M -0.24,595.138 H 317.24 V -0.138 H -0.24 Z"
         id="path4458"
         inkscape:connector-curvature="0" />
    </clipPath>
    <clipPath
       id="clipPath4464">
      <path
         d="M 0.03,595.32 H 317.49 V 0 H 0.03 Z"
         id="path4466"
         inkscape:connector-curvature="0" />
    </clipPath>
  </defs>
  <sodipodi:namedview
     id="base"
     pagecolor="#ffffff"
     bordercolor="#666666"
     borderopacity="1.0"
     inkscape:pageopacity="0.0"
     inkscape:pageshadow="2"
     inkscape:zoom="0.5298281"
     inkscape:cx="-576.70828"
     inkscape:cy="149.34649"
     inkscape:document-units="mm"
     inkscape:current-layer="layer1"
     showgrid="false"
     inkscape:window-width="1920"
     inkscape:window-height="1001"
     inkscape:window-x="-9"
     inkscape:window-y="-9"
     inkscape:window-maximized="1"
     inkscape:measure-start="0,0"
     inkscape:measure-end="0,0"
     inkscape:document-rotation="0" />
  <metadata
     id="metadata9488">
    <rdf:RDF>
      <cc:Work
         rdf:about="">
        <dc:format>image/svg+xml</dc:format>
        <dc:type
           rdf:resource="http://purl.org/dc/dcmitype/StillImage" />
        <dc:title></dc:title>
      </cc:Work>
    </rdf:RDF>
  </metadata>
  <g
     inkscape:label="Layer 1"
     inkscape:groupmode="layer"
     id="layer1"
     transform="translate(-1020.9054,-125.01516)">
    <g
       aria-label="6"
       id="text19759"
       style="font-size:31.1478px;line-height:1.3;font-family:'Singapore Road Signs';-inkscape-font-specification:'Singapore Road Signs';text-align:center;text-anchor:middle;stroke-width:0.159861"
       transform="matrix(1.6550836,0,0,1.6550836,-321.31659,-238.56049)" />
    <path
       d="m 1020.9054,125.01516 h 145.9812 v 200 h -145.9812 z"
       style="opacity:1;fill:#0a9646;fill-opacity:1;fill-rule:evenodd;stroke-width:0.0420689;stroke-linecap:square;stroke-miterlimit:10;paint-order:stroke fill markers"
       id="path7081"
       sodipodi:nodetypes="ccccc" />
    <path
       id="path7083"
       style="color:#000000;font-style:normal;font-variant:normal;font-weight:normal;font-stretch:normal;font-size:medium;line-height:normal;font-family:sans-serif;font-variant-ligatures:normal;font-variant-position:normal;font-variant-caps:normal;font-variant-numeric:normal;font-variant-alternates:normal;font-variant-east-asian:normal;font-feature-settings:normal;font-variation-settings:normal;text-indent:0;text-align:start;text-decoration:none;text-decoration-line:none;text-decoration-style:solid;text-decoration-color:#000000;letter-spacing:normal;word-spacing:normal;text-transform:none;writing-mode:lr-tb;direction:ltr;text-orientation:mixed;dominant-baseline:auto;baseline-shift:baseline;text-anchor:start;white-space:normal;shape-padding:0;shape-margin:0;inline-size:0;clip-rule:nonzero;display:inline;overflow:visible;visibility:visible;opacity:1;isolation:auto;mix-blend-mode:normal;color-interpolation:sRGB;color-interpolation-filters:linearRGB;solid-color:#000000;solid-opacity:1;vector-effect:none;fill:#ffffff;fill-opacity:1;fill-rule:evenodd;stroke:none;stroke-width:0.55349;stroke-linecap:square;stroke-linejoin:miter;stroke-miterlimit:10;stroke-dasharray:none;stroke-dashoffset:0;stroke-opacity:1;paint-order:stroke fill markers;color-rendering:auto;image-rendering:auto;shape-rendering:auto;text-rendering:auto;enable-background:accumulate;stop-color:#000000;stop-opacity:1"
       d="m 1029.6053,126.45096 c -3.9581,0 -7.1886,3.22995 -7.1886,7.18836 v 70.4378 13.50488 14.05951 3.97937 80.69487 c 0,3.95766 3.2305,7.18405 7.1886,7.18405 h 128.5768 c 3.9581,0 7.1886,-3.22639 7.1886,-7.18405 v -80.69487 -3.87794 -16.51534 -11.15048 -70.4378 c 0,-3.95841 -3.2305,-7.18836 -7.1886,-7.18836 z m 0,2.70185 v 0.008 h 128.5768 c 2.5048,0 4.4822,1.97238 4.4822,4.47791 v 70.43775 11.15049 c 0,0.094 0,0.17748 0,0.26977 v 2.06525 c 0,2.49042 -2.0041,4.49516 -4.4951,4.49516 h -2.3131 c -0.063,0.003 -0.1002,0.004 -0.1587,0.004 h -123.8772 c -0.058,0 -0.1044,-0.001 -0.1628,-0.004 h -2.0329 c -2.4898,0 -4.4972,-2.00474 -4.4972,-4.49516 v -83.90376 c 0,-0.47682 0.083,-0.93418 0.213,-1.36385 0,-0.0167 0,-0.0292 0,-0.043 0.5738,-1.81231 2.2467,-3.09894 4.2687,-3.09894 z m 47.5757,11.52165 c -0.3758,0 -0.5612,0.18667 -0.5612,0.56109 v 67.07129 c 0,0.37459 0.1879,0.56105 0.5612,0.56105 h 10.1557 c 0.3759,0 0.5634,-0.18667 0.5634,-0.56105 v -25.65022 h 14.9288 c 7.0208,0 12.3719,-2.21384 16.0539,-6.64456 3.6816,-4.46191 5.5224,-9.14349 5.5224,-14.04226 0,-1.87211 -0.1879,-3.63343 -0.5613,-5.28714 -0.3758,-1.6537 -0.9041,-3.16755 -1.5906,-4.54046 -0.7175,-1.34172 -1.5293,-2.55932 -2.4342,-3.65139 -0.8736,-1.12327 -1.8416,-2.10539 -2.9024,-2.94786 -2.7457,-2.12175 -5.3352,-3.46305 -7.769,-4.02468 -2.4025,-0.56164 -4.9453,-0.84381 -7.6284,-0.84381 z m 10.7191,10.76637 h 14.1801 c 2.8397,0 5.149,0.59254 6.9272,1.7782 2.7461,1.77852 4.1196,4.60118 4.1196,8.47023 0,2.5898 -0.8907,4.9295 -2.6693,7.02006 -1.7473,2.15295 -4.4137,3.23053 -8.0021,3.23053 h -14.5555 z m -58.3207,73.34895 v 0 h 1.9898 124.2781 2.3265 c 2.4764,0 4.4712,1.99221 4.4712,4.46926 v 2.17747 c 0,0.0985 0,0.2088 0,0.30652 v 3.87794 80.69486 c 0,1.56948 -0.7759,2.92927 -1.9723,3.72689 -0.7149,0.48346 -1.5781,0.76397 -2.5098,0.76397 h -128.6002 c -2.4768,0 -4.4734,-1.99213 -4.4734,-4.46927 v -87.07829 c 0,-2.47559 1.9945,-4.46689 4.4692,-4.46927 z" />
    <path
       id="path10743"
       style="opacity:1;fill:#ffffff;fill-rule:evenodd;stroke-width:0.119062;stroke-linecap:square;stroke-miterlimit:10;paint-order:stroke fill markers"
       d="m 1122.1806,243.92115 -7.1234,38.30283 c -0.142,1.50796 -1.0612,2.64175 -2.2789,2.82049 -1.5952,0.23427 -2.838,-0.54944 -3.9614,-1.86105 l -4.3184,-9.40299 -29.0309,28.56522 -11.7509,-12.18484 28.6049,-28.59738 -9.8821,-4.37864 c -1.5894,-1.48036 -1.8124,-2.15015 -1.7548,-3.28236 0.063,-1.25097 1.3614,-2.61231 2.6259,-2.96873 z"
       sodipodi:nodetypes="ccsccccccscc" />
  </g>
</svg>
