<?xml version="1.0" encoding="UTF-8" standalone="no"?>
<!-- Created with Inkscape (http://www.inkscape.org/) -->

<svg
   xmlns:dc="http://purl.org/dc/elements/1.1/"
   xmlns:cc="http://creativecommons.org/ns#"
   xmlns:rdf="http://www.w3.org/1999/02/22-rdf-syntax-ns#"
   xmlns:svg="http://www.w3.org/2000/svg"
   xmlns="http://www.w3.org/2000/svg"
   xmlns:sodipodi="http://sodipodi.sourceforge.net/DTD/sodipodi-0.dtd"
   xmlns:inkscape="http://www.inkscape.org/namespaces/inkscape"
   width="1700mm"
   height="500mm"
   viewBox="0 0 1700 500"
   version="1.1"
   id="svg848"
   inkscape:version="0.92.2 (5c3e80d, 2017-08-06)"
   sodipodi:docname="11.svg">
  <defs
     id="defs842" />
  <sodipodi:namedview
     id="base"
     pagecolor="#ffffff"
     bordercolor="#666666"
     borderopacity="1.0"
     inkscape:pageopacity="0.0"
     inkscape:pageshadow="2"
     inkscape:zoom="0.17497515"
     inkscape:cx="2820.8912"
     inkscape:cy="792.28243"
     inkscape:document-units="mm"
     inkscape:current-layer="text830"
     showgrid="false"
     inkscape:snap-global="false"
     inkscape:window-width="1920"
     inkscape:window-height="1057"
     inkscape:window-x="-8"
     inkscape:window-y="-8"
     inkscape:window-maximized="1"
     fit-margin-top="0"
     fit-margin-left="0"
     fit-margin-right="0"
     fit-margin-bottom="0"
     showguides="false"
     inkscape:lockguides="true" />
  <metadata
     id="metadata845">
    <rdf:RDF>
      <cc:Work
         rdf:about="">
        <dc:format>image/svg+xml</dc:format>
        <dc:type
           rdf:resource="http://purl.org/dc/dcmitype/StillImage" />
        <dc:title></dc:title>
      </cc:Work>
    </rdf:RDF>
  </metadata>
  <g
     inkscape:label="Layer 1"
     inkscape:groupmode="layer"
     id="layer1"
     transform="translate(0,203)">
    <rect
       style="opacity:1;fill:#0046aa;fill-opacity:1;fill-rule:nonzero;stroke:none;stroke-width:3.90794897;stroke-linecap:butt;stroke-linejoin:miter;stroke-miterlimit:10;stroke-dasharray:none;stroke-opacity:1;paint-order:stroke fill markers"
       id="rect1393"
       width="1700"
       height="500"
       x="0"
       y="-203" />
    <rect
       y="-198"
       x="5"
       height="490"
       width="1690"
       id="rect1395"
       style="opacity:1;fill:#ffffff;fill-opacity:1;fill-rule:nonzero;stroke:none;stroke-width:3.85727692;stroke-linecap:butt;stroke-linejoin:miter;stroke-miterlimit:10;stroke-dasharray:none;stroke-opacity:1;paint-order:stroke fill markers" />
    <rect
       y="-188"
       x="15"
       height="470"
       width="1670"
       id="rect1406"
       style="opacity:1;fill:#0046aa;fill-opacity:1;fill-rule:nonzero;stroke:none;stroke-width:3.75531721;stroke-linecap:butt;stroke-linejoin:miter;stroke-miterlimit:10;stroke-dasharray:none;stroke-opacity:1;paint-order:stroke fill markers" />
    <g
       aria-label="ĐOẠN ĐƯỜNG THI CÔNG"
       style="font-style:normal;font-variant:normal;font-weight:bold;font-stretch:normal;font-size:221.00715637px;line-height:0;font-family:Giaothong1;-inkscape-font-specification:'Giaothong1 Bold';letter-spacing:0px;word-spacing:2.73314595px;fill:#000000;fill-opacity:1;stroke:none;stroke-width:1.15107894"
       id="text830"
       transform="translate(87.158,216.08892)">
      <path
         d="m 0,-272.61436 v -17.5899 h 12.84172 v -62.5899 h 33.345317 q 14.13669,0 24.38848,10.036 10.35971,10.0359 10.35971,24.1726 v 76.7266 q 0,15.9713 -9.92805,26.223 -9.82014,10.2518 -25.46762,10.2518 H 12.84172 v -67.2302 z m 47.697827,0.2159 h -13.92086 v 47.3741 h 10.2518 q 8.09352,0 11.97841,-4.3166 3.88489,-4.3165 3.88489,-12.518 v -76.7266 q 0,-6.1511 -4.53237,-10.2518 -4.53237,-4.1007 -10.68345,-4.1007 h -10.89928 v 42.7338 h 13.92086 z"
         style="word-spacing:2.73314595px;fill:#ffffff;stroke:none;stroke-width:1.15107894"
         id="path1409"
         inkscape:connector-curvature="0" />
      <path
         d="m 104.78415,-338.87326 q 5.07194,-7.1223 12.84172,-11.1151 7.76979,-4.1008 16.18705,-4.1008 8.09352,0 15.32374,3.3454 7.23021,3.2374 11.97841,9.0647 4.74821,5.7194 6.47482,11.6547 1.72662,5.9352 1.72662,13.0575 v 75.1079 q 0,6.6907 -1.18705,11.6547 -1.18705,4.964 -5.17985,11.1151 -3.99281,6.1511 -11.76259,10.5755 -7.66187,4.4245 -16.72662,4.4245 -10.35971,0 -19.10071,-5.2878 -8.74101,-5.2877 -12.19425,-11.9784 -3.453233,-6.7985 -4.100713,-10.8993 -0.64749,-4.1007 -0.64749,-9.6043 v -75.1079 q 0,-6.6906 1.40288,-11.7626 1.510793,-5.0719 4.964033,-10.1438 z m 40.89927,11.5467 q -4.42446,-6.0431 -11.43884,-6.0431 -3.77698,0 -7.44605,2.1582 -3.66906,2.0504 -5.07194,4.6403 -1.40288,2.482 -1.83453,5.1799 -0.43165,2.5899 -0.43165,4.4244 v 75.1079 q 0,2.2662 0.32374,4.9641 0.32374,2.5899 3.45323,7.1223 3.23741,4.5323 11.0072,4.5323 3.9928,0 7.1223,-1.8345 3.23741,-1.9424 4.64028,-4.3165 1.51079,-2.4821 1.94245,-4.6403 0.43165,-2.2662 0.43165,-5.8274 v -75.1079 q 0,-4.4244 -0.32374,-6.151 -0.32374,-1.8346 -2.3741,-4.2087 z"
         style="word-spacing:2.73314595px;fill:#ffffff;stroke:none;stroke-width:1.15107894"
         id="path1411"
         inkscape:connector-curvature="0" />
      <path
         d="m 179.35248,-205.38416 32.91367,-147.41 h 18.34532 l 32.91366,147.41 h -22.55395 l -5.93525,-31.6187 h -27.41007 l -5.93525,31.6187 z m 32.05036,-51.2589 h 19.85611 l -9.92806,-53.741 z m 1.07913,86.00714 v -18.02158 h 18.02158 v 18.02158 z"
         style="word-spacing:2.73314595px;fill:#ffffff;stroke:none;stroke-width:1.15107894"
         id="path1413"
         inkscape:connector-curvature="0" />
      <path
         d="m 328.27333,-205.38416 -32.91367,-89.4604 v 89.4604 H 274.3165 v -147.41 h 19.85611 l 32.69784,89.2446 v -89.2446 h 21.04316 v 147.41 z"
         style="word-spacing:2.73314595px;fill:#ffffff;stroke:none;stroke-width:1.15107894"
         id="path1415"
         inkscape:connector-curvature="0" />
      <path
         d="m 402.01618,-272.61436 v -17.5899 h 12.84172 v -62.5899 h 33.34532 q 14.13669,0 24.38848,10.036 10.35969,10.0359 10.35969,24.1726 v 76.7266 q 0,15.9713 -9.92803,26.223 -9.82014,10.2518 -25.46762,10.2518 H 414.8579 v -67.2302 z m 47.69783,0.2159 h -13.92086 v 47.3741 h 10.2518 q 8.09352,0 11.97841,-4.3166 3.88489,-4.3165 3.88489,-12.518 v -76.7266 q 0,-6.1511 -4.53237,-10.2518 -4.53237,-4.1007 -10.68345,-4.1007 h -10.89928 v 42.7338 h 13.92086 z"
         style="word-spacing:2.73314595px;fill:#ffffff;stroke:none"
         id="path1417"
         inkscape:connector-curvature="0" />
      <path
         d="m 578.88669,-364.66466 q 0.9712,1.187 1.8345,2.3741 4.6403,6.3669 4.4245,14.4604 -0.108,8.0935 -6.0432,12.4101 -5.5036,3.9928 -10.6835,4.5324 -1.187,0.1079 -2.2661,0.1079 v 90.6474 q 0,5.3957 -1.1871,10.1439 -1.0791,4.7482 -3.6691,9.1727 -4.6402,7.446 -12.41,12.0863 -7.7698,4.6403 -16.8346,4.6403 -9.2805,0 -17.5899,-4.7482 -8.2014,-4.7482 -11.5467,-10.7914 -3.3454,-6.0431 -4.3166,-10.5755 -0.9712,-4.5324 -0.9712,-9.9281 v -112.6618 h 21.0432 v 112.6618 q 0,2.9137 0.4316,5.072 0.4317,2.0503 3.3453,6.0432 3.0216,3.9928 9.9281,3.9928 6.3669,0 9.4964,-4.6403 3.2374,-4.6403 3.2374,-10.4677 v -112.6618 h 21.0432 v 11.5468 q 1.9424,0.1079 3.669,-1.1871 3.777,-2.6978 4.4245,-6.5827 0.6475,-3.777 -2.9137,-8.8489 z"
         style="word-spacing:2.73314595px;fill:#ffffff;stroke:none"
         id="path1419"
         inkscape:connector-curvature="0" />
      <path
         d="m 642.01619,-327.32656 q -4.4245,-6.0431 -11.4389,-6.0431 -3.7769,0 -7.446,2.1582 -3.6691,2.0504 -5.0719,4.6403 -1.4029,2.482 -1.8346,5.1799 -0.4316,2.5899 -0.4316,4.4244 v 75.1079 q 0,2.2662 0.3237,4.9641 0.3237,2.5899 3.4532,7.1223 3.2375,4.5323 11.0072,4.5323 3.9928,0 7.1223,-1.8345 3.2374,-1.9424 4.6403,-4.3165 1.5108,-2.4821 1.9425,-4.6403 0.4316,-2.2662 0.4316,-5.8274 v -75.1079 q 0,-4.4244 -0.3237,-6.151 -0.3238,-1.8346 -2.3741,-4.2087 z m -3.4533,-36.259 -30.2158,-30.1079 h 20.7194 l 22.9857,30.1079 z m 31.9425,-0.4316 q 0.6475,0.8633 1.2949,1.7266 4.6403,6.3669 4.4245,14.4604 -0.1079,8.0935 -6.0432,12.4101 -3.1295,2.2662 -6.9064,3.4532 0.3237,0.9713 0.6475,1.9425 1.7266,5.9352 1.7266,13.0575 v 75.1079 q 0,6.6907 -1.1871,11.6547 -1.187,4.964 -5.1798,11.1151 -3.9928,6.1511 -11.7626,10.5755 -7.6619,4.4245 -16.7266,4.4245 -10.3597,0 -19.1008,-5.2878 -8.741,-5.2877 -12.1942,-11.9784 -3.4532,-6.7985 -4.1007,-10.8993 -0.6475,-4.1007 -0.6475,-9.6043 v -75.1079 q 0,-6.6906 1.4029,-11.7626 1.5108,-5.0719 4.964,-10.1438 5.0719,-7.1223 12.8417,-11.1151 7.7698,-4.1008 16.1871,-4.1008 8.0935,0 15.3237,3.3454 7.2302,3.2374 11.9784,8.9568 0.4317,0.5396 0.8633,1.0791 1.5108,-0.6475 2.59,-1.7266 3.7769,-2.6978 4.4244,-6.5827 0.5396,-3.4533 -1.5108,-8.0936 z"
         style="word-spacing:2.73314595px;fill:#ffffff;stroke:none"
         id="path1421"
         inkscape:connector-curvature="0" />
      <path
         d="m 741.94419,-205.38416 -32.9136,-89.4604 v 89.4604 h -21.0432 v -147.41 h 19.8561 l 32.6978,89.2446 v -89.2446 h 21.0432 v 147.41 z"
         style="word-spacing:2.73314595px;fill:#ffffff;stroke:none"
         id="path1423"
         inkscape:connector-curvature="0" />
      <path
         d="m 848.77869,-220.81576 q -4.8561,7.8777 -12.8417,12.3021 -7.8777,4.4245 -17.3741,4.4245 -8.4173,0 -16.1871,-3.8849 -7.7697,-3.9928 -12.0863,-9.8201 -4.2086,-5.9353 -5.7194,-11.7626 -1.4029,-5.9353 -1.4029,-13.3813 v -73.8129 q 0,-5.9353 1.1871,-10.8993 1.2949,-5.072 8.0935,-15.7554 6.9065,-10.6835 26.7626,-10.6835 8.8489,0 16.5108,4.2087 7.7697,4.2086 11.7625,10.2518 3.9929,6.0431 5.1799,11.3309 1.1871,5.2878 1.1871,11.5468 v 6.151 h -20.7195 v -6.151 q 0,-3.777 -0.3237,-5.8274 -0.3237,-2.1583 -3.3453,-6.3669 -3.0216,-4.2086 -10.4677,-4.2086 -8.633,0 -11.4388,4.5324 -2.6978,4.5323 -3.1295,6.7985 -0.4317,2.1583 -0.4317,5.072 v 73.8129 q 0,4.2086 0.3238,6.3669 0.3237,2.0504 3.2374,6.6906 3.0216,4.6403 11.223,4.6403 8.8489,0 11.1151,-4.6403 2.3741,-4.6402 2.8058,-6.7985 0.4316,-2.2662 0.4316,-6.259 v -25.8993 h -17.0503 v -18.3453 h 37.7698 v 44.2446 q 0,9.2806 -1.0792,13.3813 -1.0791,4.1007 -3.9928,8.741 z"
         style="word-spacing:2.73314595px;fill:#ffffff;stroke:none"
         id="path1425"
         inkscape:connector-curvature="0" />
      <path
         d="m 933.20251,-205.38416 v -127.7697 h -24.71232 v -19.6403 h 70.89932 v 19.6403 h -25.1439 v 127.7697 z"
         style="word-spacing:2.73314595px;fill:#ffffff;stroke:none;stroke-width:1.15107894"
         id="path1427"
         inkscape:connector-curvature="0" />
      <path
         d="m 994.17371,-205.38416 v -147.41 h 20.82729 v 63.0216 h 26.8705 v -63.0216 h 20.8274 v 147.41 h -20.8274 v -65.8273 h -26.8705 v 65.8273 z"
         style="word-spacing:2.73314595px;fill:#ffffff;stroke:none;stroke-width:1.15107894"
         id="path1429"
         inkscape:connector-curvature="0" />
      <path
         d="m 1085.6845,-205.38416 v -147.41 h 20.8273 v 147.41 z"
         style="word-spacing:2.73314595px;fill:#ffffff;stroke:none;stroke-width:1.15107894"
         id="path1431"
         inkscape:connector-curvature="0" />
      <path
         d="m 1238.0938,-242.50646 q 0,7.0144 -0.8633,12.0864 -0.7554,4.964 -4.4245,10.8993 -3.5612,5.9352 -11.4388,10.6834 -7.8777,4.7482 -15.9713,4.7482 -9.7122,0 -17.8057,-4.2086 -8.0935,-4.2087 -11.8705,-10.5756 -3.777,-6.3669 -4.7482,-11.7625 -0.9712,-5.5036 -0.9712,-11.8706 v -76.0791 q 0,-6.1511 1.187,-11.0072 1.295,-4.8561 5.1799,-10.5755 3.9928,-5.8273 11.1151,-9.8201 7.2302,-4.1008 15.2158,-4.1008 15.2158,0 25.2518,10.036 10.1439,10.036 10.1439,25.4676 v 7.9856 h -20.8274 v -7.9856 q 0,-6.1511 -3.4532,-10.2518 -3.3453,-4.1007 -10.036,-4.1007 -6.1511,0 -9.6043,4.1007 -3.3453,4.1007 -3.3453,10.2518 v 76.0791 q 0,2.9137 0.1079,5.8274 0.1079,2.8057 2.9137,7.2302 2.9136,4.4245 10.1439,4.4245 7.7697,0 10.0359,-3.8849 2.3741,-3.8849 2.8058,-5.7195 0.4316,-1.9424 0.4316,-5.1798 v -2.6979 -4.8561 h 20.8274 z"
         style="word-spacing:2.73314595px;fill:#ffffff;stroke:none;stroke-width:1.15107894"
         id="path1433"
         inkscape:connector-curvature="0" />
      <path
         d="m 1261.1873,-338.87326 q 5.072,-7.1223 12.8418,-11.1151 7.7697,-4.1008 16.187,-4.1008 8.0935,0 15.3238,3.3454 7.2302,3.2374 11.9784,9.0647 4.7482,5.7194 6.4748,11.6547 1.7266,5.9352 1.7266,13.0575 v 75.1079 q 0,6.6907 -1.187,11.6547 -1.1871,4.964 -5.1799,11.1151 -3.9928,6.1511 -11.7626,10.5755 -7.6619,4.4245 -16.7266,4.4245 -10.3597,0 -19.1007,-5.2878 -8.741,-5.2877 -12.1943,-11.9784 -3.4532,-6.7985 -4.1007,-10.8993 -0.6475,-4.1007 -0.6475,-9.6043 v -75.1079 q 0,-6.6906 1.4029,-11.7626 1.5108,-5.0719 4.964,-10.1438 z m 40.8993,11.5467 q -4.4244,-6.0431 -11.4388,-6.0431 -3.777,0 -7.4461,2.1582 -3.669,2.0504 -5.0719,4.6403 -1.4029,2.482 -1.8345,5.1799 -0.4317,2.5899 -0.4317,4.4244 v 75.1079 q 0,2.2662 0.3237,4.9641 0.3238,2.5899 3.4533,7.1223 3.2374,4.5323 11.0072,4.5323 3.9928,0 7.1223,-1.8345 3.2374,-1.9424 4.6403,-4.3165 1.5107,-2.4821 1.9424,-4.6403 0.4317,-2.2662 0.4317,-5.8274 v -75.1079 q 0,-4.4244 -0.3238,-6.151 -0.3237,-1.8346 -2.3741,-4.2087 z m -12.0863,-45.6475 -15.1079,11.5468 h -14.5684 l 22.0144,-22.1223 h 16.1871 l 21.7985,22.1223 h -14.7841 z"
         style="word-spacing:2.73314595px;fill:#ffffff;stroke:none;stroke-width:1.15107894"
         id="path1435"
         inkscape:connector-curvature="0" />
      <path
         d="m 1400.9355,-205.38416 -32.9136,-89.4604 v 89.4604 h -21.0432 v -147.41 h 19.8561 l 32.6978,89.2446 v -89.2446 h 21.0432 v 147.41 z"
         style="word-spacing:2.73314595px;fill:#ffffff;stroke:none;stroke-width:1.15107894"
         id="path1437"
         inkscape:connector-curvature="0" />
      <path
         d="m 1507.7701,-220.81576 q -4.8561,7.8777 -12.8418,12.3021 -7.8777,4.4245 -17.3741,4.4245 -8.4172,0 -16.187,-3.8849 -7.7698,-3.9928 -12.0863,-9.8201 -4.2087,-5.9353 -5.7195,-11.7626 -1.4028,-5.9353 -1.4028,-13.3813 v -73.8129 q 0,-5.9353 1.187,-10.8993 1.295,-5.072 8.0935,-15.7554 6.9065,-10.6835 26.7626,-10.6835 8.8489,0 16.5108,4.2087 7.7698,4.2086 11.7626,10.2518 3.9928,6.0431 5.1799,11.3309 1.187,5.2878 1.187,11.5468 v 6.151 h -20.7194 v -6.151 q 0,-3.777 -0.3237,-5.8274 -0.3238,-2.1583 -3.3454,-6.3669 -3.0216,-4.2086 -10.4676,-4.2086 -8.6331,0 -11.4388,4.5324 -2.6979,4.5323 -3.1295,6.7985 -0.4317,2.1583 -0.4317,5.072 v 73.8129 q 0,4.2086 0.3237,6.3669 0.3238,2.0504 3.2375,6.6906 3.0215,4.6403 11.223,4.6403 8.8489,0 11.1151,-4.6403 2.3741,-4.6402 2.8057,-6.7985 0.4317,-2.2662 0.4317,-6.259 v -25.8993 h -17.0504 v -18.3453 h 37.7698 v 44.2446 q 0,9.2806 -1.0791,13.3813 -1.0792,4.1007 -3.9928,8.741 z"
         style="word-spacing:2.73314595px;fill:#ffffff;stroke:none;stroke-width:1.15107894"
         id="path1439"
         inkscape:connector-curvature="0" />
    </g>
    <g
       aria-label="Từ km + đến km + QL"
       style="font-style:normal;font-variant:normal;font-weight:bold;font-stretch:normal;font-size:152.18682861px;line-height:0;font-family:Giaothong1;-inkscape-font-specification:'Giaothong1 Bold';letter-spacing:0px;word-spacing:18.24037552px;fill:#ffffff;fill-opacity:1;stroke:none;stroke-width:0.79263973"
       id="text834"
       transform="translate(-435.49042,1058.4836)">
      <path
         d="m 752.5074,-849.08445 v -87.98301 h -17.01698 v -13.52442 h 48.82165 v 13.52442 h -17.31422 v 87.98301 z"
         style="word-spacing:18.24037552px;fill:#ffffff;stroke:none;stroke-width:0.79263973"
         id="path890"
         inkscape:connector-curvature="0" />
      <path
         d="m 834.4713,-907.12054 v 58.03609 h -14.63906 v -7.28238 q -2.60085,3.93843 -5.72187,6.09342 -3.12102,2.08068 -7.50531,2.08068 -4.38428,0 -8.32271,-2.37792 -3.86412,-2.45223 -5.42463,-5.57325 -1.4862,-3.12102 -1.70913,-5.05308 -0.22293,-2.00637 -0.22293,-5.87048 v -54.46922 h 14.63906 v 49.04459 q 0,1.63482 0.0743,3.41826 0.0743,1.70913 1.63482,4.01273 1.63482,2.30361 5.57325,2.30361 2.00637,0 3.64119,-1.04034 1.70913,-1.11465 2.37792,-2.52653 0.66879,-1.4862 0.81741,-3.12102 0.14862,-1.70913 0.14862,-3.04671 v -49.04459 h 14.63907 v 7.87686 q 5.27601,-0.81741 5.64756,-5.87049 0.37155,-2.45223 -1.11465,-5.72186 l 5.72187,-3.19533 q 3.04671,4.30997 2.9724,9.7346 -0.14862,5.57325 -4.23567,8.54565 -3.41826,2.45223 -8.99151,3.04671 z m -13.74734,-23.8535 -20.80679,-20.73249 h 14.26751 l 15.82803,20.73249 z"
         style="word-spacing:18.24037552px;fill:#ffffff;stroke:none;stroke-width:0.79263973"
         id="path892"
         inkscape:connector-curvature="0" />
      <path
         d="m 899.22972,-849.08445 v -101.50743 h 14.63907 v 60.41401 l 18.20594,-31.35881 h 14.49045 l -17.16561,28.75796 20.65817,43.69427 h -16.27388 l -12.6327,-30.91295 -7.28237,10.84926 v 20.06369 z"
         style="word-spacing:18.24037552px;fill:#ffffff;stroke:none;stroke-width:0.79263973"
         id="path894"
         inkscape:connector-curvature="0" />
      <path
         d="m 998.4335,-914.9974 q 2.8981,-3.64119 6.3907,-5.49894 3.4926,-1.93206 7.9512,-1.93206 7.431,0 12.1868,5.27601 4.8302,5.2017 4.8302,12.70701 v 55.36093 h -14.6391 v -51.27388 q 0,-3.49257 -1.7835,-5.72187 -1.7091,-2.2293 -5.3503,-2.2293 -3.0467,0 -5.1274,2.37792 -2.0063,2.37792 -2.0063,5.57325 v 51.27388 h -14.63909 v -51.27388 q 0,-3.34395 -2.00637,-5.64756 -1.93206,-2.30361 -5.276,-2.30361 -3.04671,0 -5.12739,2.37792 -2.00637,2.37792 -2.00637,5.57325 v 51.27388 h -14.63907 v -72.45223 h 14.63907 v 6.53928 q 4.97877,-7.431 13.67303,-7.431 4.08705,0 7.35669,1.93206 3.2696,1.85775 5.5732,5.49894 z"
         style="word-spacing:18.24037552px;fill:#ffffff;stroke:none;stroke-width:0.79263973"
         id="path896"
         inkscape:connector-curvature="0" />
      <path
         d="m 1114.8374,-935.35833 h 8.1741 v 29.64968 h 31.2102 v 7.95117 h -31.2102 v 29.64968 h -8.1741 v -29.64968 h -31.0616 v -7.95117 h 31.0616 z"
         style="word-spacing:18.24037552px;fill:#ffffff;stroke:none;stroke-width:0.79263973"
         id="path898"
         inkscape:connector-curvature="0" />
      <path
         d="m 1235.9257,-904.66831 q -2.155,-3.64119 -6.2421,-3.64119 -2.155,0 -3.9384,1.18896 -1.7091,1.11465 -2.3036,2.74947 -0.5945,1.56051 -0.6688,3.34395 -0.074,1.70913 -0.074,2.60085 v 26.0828 q 0,1.4862 0.074,3.04671 0.074,1.4862 1.4119,3.93842 1.4119,2.45223 5.6475,2.45223 4.3843,0 5.7219,-2.45223 1.4119,-2.45222 1.4119,-4.90445 v -2.08068 -26.0828 q 0,-1.4862 -0.074,-3.04671 -0.074,-1.63482 -0.966,-3.19533 z m 15.6794,-25.56263 v 81.14649 h -14.6391 v -7.431 q -2.155,3.64119 -5.6476,6.01911 -3.4925,2.30361 -7.7282,2.30361 -9.8832,0 -12.4841,-5.35032 -2.6008,-5.42463 -2.8238,-7.80255 -0.2229,-2.37792 -0.2229,-6.31634 v -39.08705 q 0,-6.53928 4.3843,-11.07219 4.4586,-4.60722 11.1465,-4.60722 4.087,0 7.6539,2.15499 3.5669,2.08068 5.7219,5.57325 v -15.53078 h -18.206 v -9.51168 h 18.206 v -10.84926 h 14.6391 v 10.84926 h 6.242 v 9.51168 z"
         style="word-spacing:18.24037552px;fill:#ffffff;stroke:none;stroke-width:0.79263973"
         id="path900"
         inkscape:connector-curvature="0" />
      <path
         d="m 1284.3758,-862.90611 q 3.1953,0 5.1273,-2.00637 2.0064,-2.00636 2.4523,-5.20169 h 14.4904 v 1.70913 q 0,3.34394 -1.4862,6.68789 -1.4119,3.34395 -6.0191,8.47134 -4.5329,5.05308 -14.2675,5.05308 -6.242,0 -11.518,-3.34395 -5.2017,-3.34395 -7.2081,-7.35669 -2.0064,-4.01274 -2.5266,-7.28237 -0.5201,-3.26964 -0.5201,-6.46497 v -27.569 q 0,-8.99151 6.4649,-15.6051 6.465,-6.61359 15.4565,-6.61359 9.2888,0 15.4565,6.46497 6.1677,6.46497 6.1677,15.75372 v 20.06369 h -28.9066 v 10.84926 q 0,2.2293 2.155,4.30997 2.2293,2.08068 4.6816,2.08068 z m 0.2972,-45.25477 q -2.8981,0 -5.0531,2.00637 -2.0807,2.00637 -2.0807,6.98514 v 7.13375 h 14.2676 v -7.13375 q 0,-3.93843 -1.7092,-6.46497 -1.6348,-2.52654 -5.4246,-2.52654 z m 13.3758,-30.98726 15.6794,-20.73248 h 14.3418 l -20.8811,20.73248 z m -13.5244,0.22293 -10.4034,7.95117 h -10.0319 l 15.1593,-15.23355 h 11.1465 l 15.0106,15.23355 h -10.1805 z"
         style="word-spacing:18.24037552px;fill:#ffffff;stroke:none;stroke-width:0.79263973"
         id="path902"
         inkscape:connector-curvature="0" />
      <path
         d="m 1359.1316,-914.9974 q 1.1889,1.85775 1.6348,4.4586 0.5202,2.52654 0.5202,5.12739 v 56.32696 h -14.6391 v -50.97664 q 0,-8.09979 -7.1337,-8.09979 -3.1954,0 -5.2017,2.45223 -1.9321,2.45223 -1.9321,5.64756 v 50.97664 h -14.6391 v -72.45223 h 14.6391 v 6.98514 q 4.8301,-7.87686 13.5244,-7.87686 8.8429,0 13.2272,7.431 z"
         style="word-spacing:18.24037552px;fill:#ffffff;stroke:none;stroke-width:0.79263973"
         id="path904"
         inkscape:connector-curvature="0" />
      <path
         d="m 1419.1341,-849.08445 v -101.50743 h 14.6391 v 60.41401 l 18.206,-31.35881 h 14.4904 l -17.1656,28.75796 20.6582,43.69427 h -16.2739 l -12.6327,-30.91295 -7.2824,10.84926 v 20.06369 z"
         style="word-spacing:18.24037552px;fill:#ffffff;stroke:none;stroke-width:0.79263973"
         id="path906"
         inkscape:connector-curvature="0" />
      <path
         d="m 1518.338,-914.9974 q 2.8981,-3.64119 6.3906,-5.49894 3.4926,-1.93206 7.9512,-1.93206 7.431,0 12.1868,5.27601 4.8302,5.2017 4.8302,12.70701 v 55.36093 h -14.6391 v -51.27388 q 0,-3.49257 -1.7834,-5.72187 -1.7091,-2.2293 -5.3503,-2.2293 -3.0467,0 -5.1274,2.37792 -2.0064,2.37792 -2.0064,5.57325 v 51.27388 h -14.6391 v -51.27388 q 0,-3.34395 -2.0063,-5.64756 -1.9321,-2.30361 -5.276,-2.30361 -3.0467,0 -5.1274,2.37792 -2.0064,2.37792 -2.0064,5.57325 v 51.27388 h -14.6391 v -72.45223 h 14.6391 v 6.53928 q 4.9788,-7.431 13.673,-7.431 4.0871,0 7.3567,1.93206 3.2697,1.85775 5.5733,5.49894 z"
         style="word-spacing:18.24037552px;fill:#ffffff;stroke:none;stroke-width:0.79263973"
         id="path908"
         inkscape:connector-curvature="0" />
      <path
         d="m 1634.745,-935.35833 h 8.1741 v 29.64968 h 31.2102 v 7.95117 h -31.2102 v 29.64968 h -8.1741 v -29.64968 h -31.0616 v -7.95117 h 31.0616 z"
         style="word-spacing:18.24037552px;fill:#ffffff;stroke:none;stroke-width:0.79263973"
         id="path910"
         inkscape:connector-curvature="0" />
      <path
         d="m 1732.8685,-856.96131 q -3.4925,-3.86412 -4.6815,-8.02548 -1.1146,-4.16135 -1.1146,-9.95753 v -50.53078 q 0,-10.99788 6.9108,-18.50319 6.9108,-7.50531 17.9087,-7.50531 9.8832,0 17.0913,7.05945 7.2824,7.05945 7.2824,16.94268 v 52.53715 q 0,4.38429 -0.4459,6.53928 -0.3716,2.15499 -1.2633,4.08704 l 9.586,8.09979 -8.0998,9.73461 -8.9172,-7.28238 q -6.5393,5.42463 -16.1252,5.42463 -5.0531,0 -9.9576,-2.37792 -4.8301,-2.45223 -8.1741,-6.24204 z m 24.0021,-21.77282 4.9045,3.78981 v -50.53078 q 0,-4.90446 -2.7495,-8.24841 -2.7494,-3.34395 -7.5796,-3.34395 -3.0467,0 -5.3503,1.56051 -2.3036,1.4862 -3.2696,3.56688 -0.9661,2.08068 -1.1147,3.19533 -0.1486,1.11465 -0.1486,3.26964 v 50.53078 q 0,2.74947 0.3715,4.68153 0.3716,1.85775 1.7835,3.7155 1.4862,1.78343 3.3439,2.89808 1.9321,1.04034 4.8302,1.04034 1.6348,0 3.6412,-0.96603 l -6.6879,-5.42462 z"
         style="word-spacing:18.24037552px;fill:#ffffff;stroke:none;stroke-width:0.79263973"
         id="path912"
         inkscape:connector-curvature="0" />
      <path
         d="m 1835.4906,-849.08445 h -43.2484 v -101.50743 h 14.4905 v 86.86836 h 28.7579 z"
         style="word-spacing:18.24037552px;fill:#ffffff;stroke:none;stroke-width:0.79263973"
         id="path914"
         inkscape:connector-curvature="0" />
    </g>
  </g>
</svg>
