<?xml version="1.0" encoding="UTF-8" standalone="no"?>
<svg
   viewBox="0 0 323.14914 200"
   version="1.1"
   id="svg5"
   sodipodi:docname="CT07 HaNoiThaiNguyen.svg"
   inkscape:version="1.3.2 (091e20e, 2023-11-25, custom)"
   xmlns:inkscape="http://www.inkscape.org/namespaces/inkscape"
   xmlns:sodipodi="http://sodipodi.sourceforge.net/DTD/sodipodi-0.dtd"
   xmlns="http://www.w3.org/2000/svg"
   xmlns:svg="http://www.w3.org/2000/svg">
  <defs
     id="defs5" />
  <sodipodi:namedview
     id="namedview5"
     pagecolor="#ffffff"
     bordercolor="#000000"
     borderopacity="0.25"
     inkscape:showpageshadow="2"
     inkscape:pageopacity="0.0"
     inkscape:pagecheckerboard="0"
     inkscape:deskcolor="#d1d1d1"
     inkscape:zoom="1.2393658"
     inkscape:cx="202.1195"
     inkscape:cy="127.88799"
     inkscape:window-width="1366"
     inkscape:window-height="697"
     inkscape:window-x="-8"
     inkscape:window-y="-8"
     inkscape:window-maximized="1"
     inkscape:current-layer="layer1" />
  <g
     id="layer1"
     transform="matrix(0.9999999999999999, 0, 0, 0.9999999999999999, -303.4596862792969, -22.960700988769517)">
    <path
       id="rect15575"
       style="opacity:1;fill:#0a9646;fill-opacity:1;fill-rule:evenodd;stroke-width:0.0420687;stroke-linecap:square;stroke-miterlimit:10;paint-order:stroke fill markers"
       d="M 303.45966,22.960701 H 626.6088 V 222.9607 H 303.45966 Z" />
    <path
       transform="matrix(0.26458333,0,0,0.26458333,303.45966,22.960701)"
       d="m 30.353516,5.0117188 c -13.808655,0 -25.0781254,11.2674112 -25.0781254,25.0761722 v 332.957029 47.1211 49.04296 13.88672 252.45508 c 0,13.80862 11.2694704,25.06641 25.0781254,25.06641 H 1190.9805 c 13.8086,0 25.0781,-11.25779 25.0781,-25.06641 V 473.0957 459.57031 401.94727 363.04492 30.087891 c 0,-13.808761 -11.2695,-25.0761722 -25.0781,-25.0761722 z m 0,9.4511722 H 1190.9805 c 8.7398,0 15.6425,6.885058 15.6425,15.625 v 332.957029 38.90235 c 0,0.29959 -0.013,0.61475 -0.037,0.9375 v 7.20703 c 0,8.68754 -6.9941,15.68164 -15.6816,15.68164 h -8.0762 c -0.1869,0.007 -0.3766,0.0176 -0.5586,0.0176 H 38.023438 c -0.18105,0 -0.371847,-0.0102 -0.560547,-0.0176 h -7.097657 c -8.687546,0 -15.68164,-6.9941 -15.68164,-15.68164 V 30.152344 c 0,-1.658433 0.257595,-3.253829 0.730468,-4.751953 0.01365,-0.04461 0.03284,-0.08643 0.04688,-0.13086 1.99686,-6.321925 7.84094,-10.80664 14.892578,-10.80664 z M 30.28125,435.30469 h 6.958984 1145.628866 8.1172 c 8.6414,0 15.5996,6.95633 15.5996,15.59765 v 7.5918 c 0.024,0.37296 0.037,0.7339 0.037,1.07617 v 13.52539 252.45508 c 0,5.47634 -2.7106,10.22208 -6.8847,13.00391 -2.4923,1.6862 -5.5034,2.66992 -8.752,2.66992 H 30.28125 c -8.641361,0 -15.597656,-6.9563 -15.597656,-15.59766 V 450.90234 c 0,-8.64132 6.956295,-15.59765 15.597656,-15.59765 z"
       style="color:#000000;font-style:normal;font-variant:normal;font-weight:normal;font-stretch:normal;font-size:medium;line-height:normal;font-family:sans-serif;font-variant-ligatures:normal;font-variant-position:normal;font-variant-caps:normal;font-variant-numeric:normal;font-variant-alternates:normal;font-variant-east-asian:normal;font-feature-settings:normal;font-variation-settings:normal;text-indent:0;text-align:start;text-decoration:none;text-decoration-line:none;text-decoration-style:solid;text-decoration-color:#000000;letter-spacing:normal;word-spacing:normal;text-transform:none;writing-mode:lr-tb;direction:ltr;text-orientation:mixed;dominant-baseline:auto;baseline-shift:baseline;text-anchor:start;white-space:normal;shape-padding:0;shape-margin:0;inline-size:0;clip-rule:nonzero;display:inline;overflow:visible;visibility:visible;opacity:1;isolation:auto;mix-blend-mode:normal;color-interpolation:sRGB;color-interpolation-filters:linearRGB;solid-color:#000000;solid-opacity:1;vector-effect:none;fill:#ffffff;fill-opacity:1;fill-rule:evenodd;stroke:none;stroke-width:2.09199;stroke-linecap:square;stroke-linejoin:miter;stroke-miterlimit:10;stroke-dasharray:none;stroke-dashoffset:0;stroke-opacity:1;paint-order:stroke fill markers;color-rendering:auto;image-rendering:auto;shape-rendering:auto;text-rendering:auto;enable-background:accumulate;stop-color:#000000;stop-opacity:1"
       id="path15582" />
    <path
       d="m 324.12038,67.193614 h 60.89334 v 27.821331 h -60.89334 z"
       style="opacity:1;fill:#ffd70f;fill-opacity:1;fill-rule:evenodd;stroke:none;stroke-width:0.553508;stroke-linecap:square;stroke-miterlimit:10;stroke-dasharray:none;stroke-opacity:1;paint-order:stroke fill markers"
       id="rect15605" />
    <path
       id="path15631"
       d="m 326.18273,67.759747 c -0.81115,0 -1.47443,0.660164 -1.47443,1.471307 v 23.746432 c 0,0.811142 0.66328,1.471323 1.47443,1.471323 h 56.7905 c 0.81117,0 1.4744,-0.660181 1.4744,-1.471323 V 69.231054 c 0,-0.811143 -0.66328,-1.471307 -1.4744,-1.471307 z m 0,0.535017 h 56.7905 c 0.52266,0 0.93627,0.413622 0.93627,0.93629 v 23.746432 c 0,0.522654 -0.41353,0.933189 -0.93627,0.933189 h -56.7905 c -0.52266,0 -0.93628,-0.410555 -0.93628,-0.933189 V 69.231054 c 0,-0.522672 0.41354,-0.93629 0.93628,-0.93629 z"
       style="color:#000000;font-style:normal;font-variant:normal;font-weight:normal;font-stretch:normal;font-size:medium;line-height:normal;font-family:sans-serif;font-variant-ligatures:normal;font-variant-position:normal;font-variant-caps:normal;font-variant-numeric:normal;font-variant-alternates:normal;font-variant-east-asian:normal;font-feature-settings:normal;font-variation-settings:normal;text-indent:0;text-align:start;text-decoration:none;text-decoration-line:none;text-decoration-style:solid;text-decoration-color:#000000;letter-spacing:normal;word-spacing:normal;text-transform:none;writing-mode:lr-tb;direction:ltr;text-orientation:mixed;dominant-baseline:auto;baseline-shift:baseline;text-anchor:start;white-space:normal;shape-padding:0;shape-margin:0;inline-size:0;clip-rule:nonzero;display:inline;overflow:visible;visibility:visible;opacity:1;isolation:auto;mix-blend-mode:normal;color-interpolation:sRGB;color-interpolation-filters:linearRGB;solid-color:#000000;solid-opacity:1;vector-effect:none;fill:#000000;fill-opacity:1;fill-rule:evenodd;stroke:none;stroke-width:0.119062;stroke-linecap:square;stroke-linejoin:miter;stroke-miterlimit:10;stroke-dasharray:none;stroke-dashoffset:0;stroke-opacity:1;paint-order:stroke fill markers;color-rendering:auto;image-rendering:auto;shape-rendering:auto;text-rendering:auto;enable-background:accumulate;stop-color:#000000;stop-opacity:1" />
    <path
       id="path17496"
       style="font-size:15.1831px;line-height:1.46;font-family:'Singapore Road Signs';-inkscape-font-specification:'Singapore Road Signs';text-align:center;text-anchor:middle;opacity:1;fill:#ffffff;fill-opacity:1;stroke-width:0.0756548"
       d="m 570.47468,59.120043 v 50.614317 h 35.43541 V 59.120043 Z m 1.38203,1.660034 h 32.65274 v 47.566083 h -32.65274 z m 13.66823,3.646909 -2.23483,8.869719 h 3.92184 l 0.28216,-8.869719 z m 3.35329,0 0.28216,8.869719 h 3.92385 l -2.23686,-8.869719 z m -15.90932,9.992316 v 1.942234 l 3.06692,1.10806 v 0.584703 h 1.411 v -0.584703 c 0,0 2.08662,-0.313671 4.52568,-0.535349 1.95306,-0.177516 4.1317,-0.271988 5.64407,-0.278037 1.79866,-0.0063 4.45804,0.09363 6.73975,0.288436 2.51319,0.214479 4.5713,0.524984 4.5713,0.524984 v 0.5847 h 1.38199 v -0.5847 l 3.06685,-1.108064 v -1.942233 z m 9.21108,3.620663 -6.70448,26.681115 h 10.04943 l 1.39442,-26.681115 z m 7.25642,0 1.39441,26.681115 h 10.0494 l -6.70443,-26.681115 z" />
    <g
       style="font-size:14.7905px;line-height:0;font-family:'Singapore Road Signs';-inkscape-font-specification:'Singapore Road Signs';text-align:center;text-anchor:middle;opacity:1;fill:#860000;fill-opacity:1;stroke-width:6.45213"
       id="layer1-8"
       transform="matrix(0.08718024,0,0,0.08718024,-145.22047,195.49013)">
      <circle
         style="opacity:1;fill:#f00a0a;fill-opacity:1;fill-rule:nonzero;stroke:none;stroke-width:3622.55;stroke-linecap:round;stroke-linejoin:round;stroke-miterlimit:4;stroke-dasharray:none;stroke-opacity:1;paint-order:stroke fill markers"
         id="path815"
         cx="6380.9966"
         cy="-193.29752"
         r="350" />
      <circle
         cy="-193.29752"
         cx="6380.9966"
         id="circle817"
         style="opacity:1;fill:#ffffff;fill-opacity:1;fill-rule:nonzero;stroke:none;stroke-width:2587.55;stroke-linecap:round;stroke-linejoin:round;stroke-miterlimit:4;stroke-dasharray:none;stroke-opacity:1;paint-order:stroke fill markers"
         r="250" />
      <g
         aria-label="20 "
         style="font-style:normal;font-variant:normal;font-weight:bold;font-stretch:normal;font-size:414.864px;line-height:0;font-family:Giaothong1;-inkscape-font-specification:'Giaothong1 Bold';letter-spacing:0px;word-spacing:0px;fill:#000000;fill-opacity:1;stroke:none;stroke-width:24.7849"
         id="text874"
         transform="matrix(-1,0,0,1,1299.029,-383.45)">
        <g
           aria-label="90"
           transform="translate(2310.2259,387.54849)"
           style="font-style:normal;font-variant:normal;font-weight:bold;font-stretch:normal;font-size:414.864px;line-height:0;font-family:Giaothong1;-inkscape-font-specification:'Giaothong1 Bold';letter-spacing:0px;word-spacing:0px;fill:#000000;fill-opacity:1;stroke:none;stroke-width:53.5539"
           id="text844" />
      </g>
    </g>
    <g
       style="font-size:14.7905px;line-height:0;font-family:'Singapore Road Signs';-inkscape-font-specification:'Singapore Road Signs';text-align:center;text-anchor:middle;opacity:1;fill:#fff000;fill-opacity:1;stroke-width:6.45221"
       id="layer1-7"
       transform="matrix(0.08717968,0,0,0.08717968,488.77841,183.34565)"
       inkscape:label="layer1-7">
      <circle
         cy="-54"
         cx="351"
         id="circle817-6"
         style="opacity:1;fill:#0046aa;fill-opacity:1;fill-rule:nonzero;stroke:none;stroke-width:3622.58;stroke-linecap:round;stroke-linejoin:round;stroke-miterlimit:4;stroke-dasharray:none;stroke-opacity:1;paint-order:stroke fill markers"
         r="350" />
      <path
         id="rect984"
         style="font-style:normal;font-variant:normal;font-weight:bold;font-stretch:normal;font-size:414.864px;line-height:0;font-family:Giaothong1;-inkscape-font-specification:'Giaothong1 Bold';letter-spacing:0px;word-spacing:0px;opacity:1;fill:#ffffff;fill-opacity:1;fill-rule:nonzero;stroke:none;stroke-width:0.344279;stroke-linecap:round;stroke-linejoin:miter;stroke-miterlimit:10;stroke-dasharray:none;stroke-opacity:1;paint-order:stroke fill markers"
         d="m 851.18164,518.03906 c -16.32678,0 -29.4707,13.14393 -29.4707,29.47071 v 80.94921 c 0,16.32678 13.14392,29.47071 29.4707,29.47071 16.32678,0 29.4707,-13.14393 29.4707,-29.47071 v -80.94921 c 0,-16.32678 -13.14392,-29.47071 -29.4707,-29.47071 z m -69.94336,1.23828 -26.10937,69.75391 c -2.72781,7.40406 -3.70118,11.30112 -3.70118,28.44727 0,18.12042 0.7789,22.01697 4.67579,28.25195 5.26075,8.37828 14.22308,13.44336 24.93945,13.44336 10.91123,0 20.0688,-4.87023 25.13476,-13.44336 3.70197,-6.23498 4.48047,-10.13153 4.48047,-28.25195 0,-22.01726 -0.77798,-26.88814 -4.28515,-32.34375 -3.31232,-5.06591 -9.74347,-8.96289 -16.75782,-8.96289 -4.28653,0 -7.01308,0.77773 -8.37695,1.75195 l -0.39062,-0.38867 22.60156,-58.25782 z m 69.94336,18.74024 c 5.25853,0 9.49219,4.23365 9.49219,9.49219 v 80.94921 c 0,5.25853 -4.23366,9.49219 -9.49219,9.49219 -5.25853,0 -9.49219,-4.23366 -9.49219,-9.49219 v -80.94921 c 0,-5.25854 4.23366,-9.49219 9.49219,-9.49219 z m -70.13867,55.68945 c 5.0659,0 9.74219,3.89738 9.74219,9.9375 v 25.71875 c 0,6.04012 -4.67629,9.9375 -9.74219,9.9375 -5.0659,0 -9.74219,-3.89738 -9.74219,-9.9375 v -25.71875 c 0,-6.04012 4.67629,-9.9375 9.74219,-9.9375 z"
         transform="matrix(3.0349198,0,0,3.0349198,-2125.7104,-1839.7056)" />
    </g>
    <g
       aria-label="6"
       id="text19759"
       style="font-size:31.1478px;line-height:1.3;font-family:'Singapore Road Signs';-inkscape-font-specification:'Singapore Road Signs';text-align:center;text-anchor:middle;stroke-width:0.159861"
       transform="matrix(1.6550836,0,0,1.6550836,-321.31659,-238.56049)"
       inkscape:label="text19759" />
    <g
       id="text2"
       style="font-size:18px;font-family:Giaothong2;-inkscape-font-specification:'Giaothong2, Normal';text-anchor:middle;white-space:pre;fill:#ffffff"
       inkscape:label="text2"
       transform="matrix(1.310387, 0, 0, 1.310387, -59.698296, -1.169035)"
       aria-label="HÀ NỘI&#10;THÁI NGUYÊN">
      <path
         d="m 390.78876,46.796787 q -0.10547,0 -0.10547,-0.105468 v -5.396485 h -4.79004 v 5.396485 q 0,0.105468 -0.10547,0.105468 h -1.90723 q -0.10546,0 -0.10546,-0.105468 V 34.096592 q 0,-0.105469 0.10546,-0.105469 h 1.90723 q 0.10547,0 0.10547,0.105469 v 5.291016 h 4.79004 v -5.291016 q 0,-0.105469 0.10547,-0.105469 h 1.90722 q 0.10547,0 0.10547,0.105469 v 12.594727 q 0,0.105468 -0.10547,0.105468 z m 3.51562,-0.0088 q -0.0615,0 -0.0879,-0.04395 -0.0264,-0.04395 -0.009,-0.09668 l 4.60547,-12.603515 q 0.0176,-0.07031 0.0879,-0.07031 h 1.57324 q 0.0264,0 0.0527,0.02637 0.0351,0.01758 0.0439,0.04395 l 4.59668,12.603515 q 0.0176,0.05273 -0.009,0.09668 -0.0264,0.04395 -0.0791,0.04395 h -2.01269 q -0.0703,0 -0.0879,-0.07031 l -0.94922,-2.777344 h -4.64063 q -0.24609,0.711914 -0.49218,1.397461 -0.23731,0.676758 -0.4834,1.379883 -0.009,0.02637 -0.044,0.05273 -0.0264,0.01758 -0.0527,0.01758 z m 7.09278,-4.737304 q -0.0176,-0.06152 -0.0527,-0.131836 -0.0264,-0.07031 -0.0439,-0.123047 -0.14942,-0.430664 -0.27246,-0.791016 -0.12305,-0.369141 -0.21973,-0.641601 -0.0615,-0.175782 -0.12305,-0.342774 -0.0527,-0.166992 -0.10547,-0.316406 -0.0439,-0.140625 -0.0879,-0.263672 -0.0439,-0.131836 -0.0879,-0.254883 -0.0791,-0.254883 -0.16699,-0.509765 -0.0791,-0.254883 -0.16699,-0.527344 -0.044,-0.123047 -0.0967,-0.272461 -0.0439,-0.149414 -0.0967,-0.316406 -0.0264,-0.08789 -0.0439,-0.131836 -0.009,-0.05273 -0.0264,-0.09668 -0.0176,-0.05273 -0.0439,-0.114258 -0.0176,-0.06152 -0.0527,-0.175781 -0.0967,0.290039 -0.18457,0.536133 -0.0791,0.246093 -0.14942,0.457031 -0.0176,0.05273 -0.0264,0.09668 -0.009,0.04395 -0.0264,0.08789 -0.0439,0.149414 -0.0967,0.28125 -0.044,0.131836 -0.0879,0.263672 -0.0439,0.140625 -0.0879,0.272461 -0.0439,0.131836 -0.0879,0.254883 -0.0879,0.263672 -0.18457,0.553711 -0.0879,0.290039 -0.20215,0.606445 -0.11426,0.316406 -0.23731,0.685547 -0.12304,0.360352 -0.3164,0.914063 z m -1.16016,-9.19336 q -0.0176,0 -0.0439,-0.0088 -0.0264,-0.01758 -0.0352,-0.02637 l -2.42578,-2.566406 q -0.0527,-0.05274 -0.0264,-0.114258 0.0352,-0.06152 0.10547,-0.06152 h 1.93359 q 0.0527,0 0.0879,0.05274 l 1.83692,2.566406 q 0.0264,0.06152 0,0.114258 -0.0176,0.04395 -0.0879,0.04395 z m 10.83691,13.939453 q -0.10547,0 -0.10547,-0.105468 V 34.096592 q 0,-0.105469 0.10547,-0.105469 h 1.81055 q 0.0527,0 0.0879,0.05273 l 5.53711,8.71875 v -8.666016 q 0,-0.105469 0.10547,-0.105469 h 1.91601 q 0.10547,0 0.10547,0.105469 v 12.594727 q 0,0.105468 -0.10547,0.105468 h -1.80175 q -0.0527,0 -0.0879,-0.05273 l -5.55469,-8.71875 v 8.666016 q 0,0.105468 -0.0967,0.105468 z m 13.37696,-13.939453 q -0.0791,0 -0.10547,-0.06152 -0.0176,-0.07031 0.0439,-0.114258 l 2.58399,-2.047852 h 1.17773 l 2.61914,2.047852 q 0.0615,0.04395 0.0352,0.114258 -0.0176,0.06152 -0.0879,0.06152 h -1.48535 l -1.74903,-0.94043 q -0.38672,0.237305 -0.78222,0.47461 -0.39551,0.237305 -0.78223,0.46582 z m -1.55567,7.435547 q 0,-1.151367 0.0264,-1.880859 0.0352,-0.729493 0.0879,-1.063477 0.0615,-0.333984 0.17578,-0.641601 0.11426,-0.307618 0.28125,-0.606446 h -0.009 q 0.45703,-0.852539 1.47657,-1.582031 1.02832,-0.738281 2.55761,-0.738281 1.51172,0 2.54004,0.738281 1.03711,0.74707 1.49414,1.582031 0.3252,0.597656 0.43946,1.248047 0.0615,0.333984 0.0879,1.063477 0.0351,0.729492 0.0351,1.880859 0,2.258789 -0.12304,2.953125 -0.0615,0.342773 -0.17579,0.650391 -0.10546,0.307617 -0.25488,0.588867 -0.46582,0.84375 -1.50293,1.582031 -1.03711,0.729492 -2.54004,0.729492 -1.52051,0 -2.55761,-0.729492 -1.01954,-0.720703 -1.47657,-1.582031 h 0.009 q -0.16699,-0.298828 -0.28125,-0.597656 -0.11426,-0.307618 -0.17578,-0.641602 -0.0527,-0.333984 -0.0879,-1.063477 -0.0264,-0.738281 -0.0264,-1.889648 z m 2.11817,0 q 0,0.958008 0.0264,1.582031 0.0264,0.615235 0.0967,0.914063 0.0703,0.272461 0.19336,0.544922 0.13184,0.263672 0.29004,0.46582 0.28125,0.369141 0.74707,0.632812 0.46582,0.254883 1.125,0.254883 0.65039,0 1.11621,-0.254883 0.46582,-0.263671 0.73828,-0.632812 0.36915,-0.448242 0.4834,-1.010742 0.14063,-0.5625 0.14063,-2.496094 0,-0.958008 -0.0352,-1.573242 -0.0352,-0.624024 -0.10547,-0.914063 -0.0615,-0.28125 -0.18457,-0.544922 -0.12304,-0.27246 -0.29004,-0.483398 -0.13183,-0.166992 -0.32519,-0.325195 -0.18457,-0.158203 -0.42188,-0.272461 -0.2373,-0.123047 -0.51855,-0.19336 -0.28125,-0.0791 -0.59766,-0.0791 -0.65918,0 -1.125,0.263672 -0.46582,0.263672 -0.74707,0.606445 -0.16699,0.210938 -0.29004,0.483398 -0.12304,0.263672 -0.19336,0.544922 -0.0703,0.298828 -0.0967,0.922852 -0.0264,0.624023 -0.0264,1.564453 z m 1.59082,9.966797 q -0.0967,0 -0.0967,-0.09668 v -1.696289 q 0,-0.09668 0.0967,-0.09668 h 1.70508 q 0.0879,0 0.0879,0.09668 v 1.696289 q 0,0.09668 -0.0879,0.09668 z m 7.72558,-3.462891 q -0.10547,0 -0.10547,-0.105468 V 34.096592 q 0,-0.105469 0.10547,-0.105469 h 1.90723 q 0.10547,0 0.10547,0.105469 v 12.594727 q 0,0.105468 -0.10547,0.105468 z"
         id="path1" />
      <path
         d="m 359.91278,69.296787 q -0.10547,0 -0.10547,-0.105468 V 58.39835 h -3.34863 q -0.10547,0 -0.10547,-0.105469 v -1.696289 q 0,-0.105469 0.10547,-0.105469 h 8.80664 q 0.10547,0 0.10547,0.105469 v 1.696289 q 0,0.105469 -0.10547,0.105469 h -3.33984 v 10.792969 q 0,0.105468 -0.10547,0.105468 z m 13.75488,0 q -0.10547,0 -0.10547,-0.105468 v -5.396485 h -4.79003 v 5.396485 q 0,0.105468 -0.10547,0.105468 h -1.90723 q -0.10547,0 -0.10547,-0.105468 V 56.596592 q 0,-0.105469 0.10547,-0.105469 h 1.90723 q 0.10547,0 0.10547,0.105469 v 5.291016 h 4.79003 v -5.291016 q 0,-0.105469 0.10547,-0.105469 h 1.90723 q 0.10547,0 0.10547,0.105469 v 12.594727 q 0,0.105468 -0.10547,0.105468 z m 3.51563,-0.0088 q -0.0615,0 -0.0879,-0.04395 -0.0264,-0.04394 -0.009,-0.09668 l 4.60547,-12.603515 q 0.0176,-0.07031 0.0879,-0.07031 h 1.57324 q 0.0264,0 0.0527,0.02637 0.0352,0.01758 0.0439,0.04395 l 4.59668,12.603515 q 0.0176,0.05273 -0.009,0.09668 -0.0264,0.04395 -0.0791,0.04395 h -2.0127 q -0.0703,0 -0.0879,-0.07031 l -0.94922,-2.777344 h -4.64062 q -0.24609,0.711914 -0.49219,1.397461 -0.2373,0.676758 -0.4834,1.379883 -0.009,0.02637 -0.0439,0.05273 -0.0264,0.01758 -0.0527,0.01758 z m 7.09277,-4.737304 q -0.0176,-0.06152 -0.0527,-0.131836 -0.0264,-0.07031 -0.0439,-0.123047 -0.14941,-0.430664 -0.27246,-0.791016 -0.12305,-0.369141 -0.21973,-0.641601 -0.0615,-0.175782 -0.12304,-0.342774 -0.0527,-0.166992 -0.10547,-0.316406 -0.0439,-0.140625 -0.0879,-0.263672 -0.0439,-0.131836 -0.0879,-0.254883 -0.0791,-0.254883 -0.16699,-0.509765 -0.0791,-0.254883 -0.167,-0.527344 -0.0439,-0.123047 -0.0967,-0.272461 -0.0439,-0.149414 -0.0967,-0.316406 -0.0264,-0.08789 -0.0439,-0.131836 -0.009,-0.05273 -0.0264,-0.09668 -0.0176,-0.05273 -0.0439,-0.114258 -0.0176,-0.06152 -0.0527,-0.175781 -0.0967,0.290039 -0.18457,0.536133 -0.0791,0.246093 -0.14941,0.457031 -0.0176,0.05273 -0.0264,0.09668 -0.009,0.04395 -0.0264,0.08789 -0.0439,0.149414 -0.0967,0.28125 -0.0439,0.131836 -0.0879,0.263672 -0.0439,0.140625 -0.0879,0.272461 -0.0439,0.131836 -0.0879,0.254883 -0.0879,0.263672 -0.18457,0.553711 -0.0879,0.290039 -0.20215,0.606445 -0.11425,0.316406 -0.2373,0.685547 -0.12305,0.360352 -0.31641,0.914063 z m -3.60351,-9.19336 q -0.0703,0 -0.0967,-0.04395 -0.0176,-0.05273 0.009,-0.114258 l 1.83691,-2.566406 q 0.0352,-0.05273 0.0879,-0.05273 h 1.93359 q 0.0703,0 0.0967,0.06152 0.0352,0.06152 -0.0176,0.114258 l -2.42579,2.566406 q -0.009,0.0088 -0.0351,0.02637 -0.0264,0.0088 -0.0439,0.0088 z m 8.93847,13.939453 q -0.10547,0 -0.10547,-0.105468 V 56.596592 q 0,-0.105469 0.10547,-0.105469 h 1.90723 q 0.10547,0 0.10547,0.105469 v 12.594727 q 0,0.105468 -0.10547,0.105468 z m 8.98242,0 q -0.10546,0 -0.10546,-0.105468 V 56.596592 q 0,-0.105469 0.10546,-0.105469 h 1.81055 q 0.0527,0 0.0879,0.05273 l 5.53711,8.71875 v -8.666016 q 0,-0.105469 0.10547,-0.105469 h 1.91602 q 0.10546,0 0.10546,0.105469 v 12.594727 q 0,0.105468 -0.10546,0.105468 h -1.80176 q -0.0527,0 -0.0879,-0.05273 l -5.55469,-8.71875 v 8.666016 q 0,0.105468 -0.0967,0.105468 z m 16.39161,-5.124023 q -0.10547,0 -0.10547,-0.105469 v -1.810547 q 0,-0.09668 0.10547,-0.09668 h 4.47363 q 0.10547,0 0.10547,0.09668 v 2.566406 q 0,1.942383 -1.33594,3.251954 -1.35352,1.327148 -3.26074,1.327148 -1.52051,0 -2.55762,-0.729492 -1.01953,-0.720703 -1.47656,-1.582031 h 0.009 q -0.16699,-0.298829 -0.28125,-0.597657 -0.11426,-0.307617 -0.17578,-0.641601 -0.0527,-0.333985 -0.0879,-1.063477 -0.0264,-0.738281 -0.0264,-1.889648 0,-1.151367 0.0264,-1.88086 0.0351,-0.729492 0.0879,-1.063476 0.0615,-0.333985 0.17578,-0.641602 0.11426,-0.307617 0.28125,-0.606445 h -0.009 q 0.45703,-0.852539 1.47656,-1.582031 1.02832,-0.738282 2.55762,-0.738282 1.82812,0 3.02344,1.125 1.21289,1.125 1.50293,2.689454 0.0176,0.05273 -0.0176,0.08789 -0.0352,0.03516 -0.0879,0.03516 h -2.0127 q -0.0791,0 -0.0967,-0.07031 -0.11426,-0.351563 -0.32519,-0.650391 -0.21094,-0.307617 -0.51856,-0.571289 -0.58008,-0.518554 -1.46777,-0.518554 -0.65918,0 -1.125,0.263671 -0.46582,0.263672 -0.74707,0.606446 -0.16699,0.210937 -0.29004,0.483398 -0.12305,0.263672 -0.19336,0.544922 -0.0703,0.298828 -0.0967,0.922852 -0.0264,0.624023 -0.0264,1.564453 0,0.958008 0.0264,1.582031 0.0264,0.615234 0.0967,0.914063 0.0703,0.27246 0.19336,0.544921 0.13183,0.263672 0.29004,0.465821 0.28125,0.36914 0.74707,0.632812 0.46582,0.254883 1.125,0.254883 1.0459,0 1.75781,-0.711914 0.7207,-0.711914 0.7207,-1.863281 v -0.544922 z m 6.55664,-7.576172 q 0,-0.105469 0.10547,-0.105469 h 1.91601 q 0.0967,0 0.0967,0.105469 v 8.121094 q 0,1.265625 0.70313,1.916015 0.71191,0.65918 1.7666,0.65918 1.03711,0 1.74902,-0.65918 0.71192,-0.659179 0.71192,-1.916015 v -8.121094 q 0,-0.105469 0.10546,-0.105469 h 1.90723 q 0.10547,0 0.10547,0.105469 v 8.332031 q 0,2.021485 -1.34473,3.251953 -1.32715,1.22168 -3.23437,1.22168 -1.91602,0 -3.25196,-1.22168 -1.33593,-1.230468 -1.33593,-3.251953 z m 14.17675,12.700195 q -0.0967,0 -0.0967,-0.105468 v -5.150391 q -0.94922,-1.854492 -1.88965,-3.700195 -0.94043,-1.845704 -1.88086,-3.700196 -0.0264,-0.06152 0,-0.105468 0.0264,-0.04395 0.0967,-0.04395 h 2.0039 q 0.0264,0 0.0527,0.02637 0.0264,0.01758 0.0439,0.03516 l 2.58399,5.396484 q 0.65039,-1.362305 1.2832,-2.698242 0.6416,-1.335938 1.29199,-2.698242 0.0176,-0.01758 0.0439,-0.03516 0.0264,-0.02637 0.0527,-0.02637 h 2.0127 q 0.0703,0 0.0967,0.04395 0.0264,0.04395 0,0.105468 l -3.7793,7.400391 v 5.150391 q 0,0.105468 -0.10547,0.105468 z m 7.11036,0 q -0.10547,0 -0.10547,-0.105468 V 56.596592 q 0,-0.105469 0.10547,-0.105469 h 8.05078 q 0.10547,0 0.10547,0.105469 v 1.810547 q 0,0.105469 -0.10547,0.105469 h -6.03809 v 3.375 h 5.13281 q 0.10547,0 0.10547,0.105468 v 1.705078 q 0,0.09668 -0.10547,0.09668 h -5.13281 v 3.498047 h 6.03809 q 0.10547,0 0.10547,0.105469 v 1.792969 q 0,0.105468 -0.10547,0.105468 z m 0.89648,-13.939453 q -0.0791,0 -0.0967,-0.07031 -0.0176,-0.07031 0.0352,-0.114258 l 2.58398,-2.047852 h 1.18653 l 2.61914,2.047852 q 0.0615,0.04395 0.0351,0.114258 -0.0176,0.07031 -0.0967,0.07031 h -1.47656 l -1.75781,-0.949219 q -0.38672,0.237305 -0.78223,0.47461 -0.39551,0.237304 -0.78223,0.474609 z m 9.10547,13.939453 q -0.10547,0 -0.10547,-0.105468 V 56.596592 q 0,-0.105469 0.10547,-0.105469 h 1.81055 q 0.0527,0 0.0879,0.05273 l 5.53711,8.71875 v -8.666016 q 0,-0.105469 0.10547,-0.105469 h 1.91601 q 0.10547,0 0.10547,0.105469 v 12.594727 q 0,0.105468 -0.10547,0.105468 h -1.80176 q -0.0527,0 -0.0879,-0.05273 l -5.55469,-8.71875 v 8.666016 q 0,0.105468 -0.0967,0.105468 z"
         id="path2" />
    </g>
    <path
       d="m 426.15209,119.11789 q -0.10664,0 -0.10664,-0.10664 v -12.73467 q 0,-0.10664 0.10664,-0.10664 h 8.14023 q 0.10664,0 0.10664,0.10664 v 1.83066 q 0,0.10664 -0.10664,0.10664 h -6.10517 v 3.4125 h 5.18984 q 0.10664,0 0.10664,0.10664 v 1.72403 q 0,0.0978 -0.10664,0.0978 h -5.18984 v 3.53692 h 6.10517 q 0.10664,0 0.10664,0.10664 v 1.81289 q 0,0.10664 -0.10664,0.10664 z m 16.4215,0 q -0.0533,0 -0.0889,-0.0533 l -2.70157,-4.58555 q -0.67539,1.15527 -1.35078,2.29277 -0.67539,1.1375 -1.35078,2.29278 -0.0356,0.0533 -0.0889,0.0533 h -2.17724 q -0.0711,0 -0.0978,-0.0444 -0.0267,-0.0533 0.009,-0.11552 l 3.86572,-6.47842 q -0.91533,-1.54629 -1.81289,-3.07481 -0.89756,-1.52851 -1.804,-3.0748 -0.0356,-0.0622 -0.009,-0.10664 0.0267,-0.0533 0.0889,-0.0533 h 2.18613 q 0.0533,0 0.0889,0.0533 l 2.45273,4.26562 q 0.61319,-1.0664 1.22637,-2.12392 0.61318,-1.06641 1.22637,-2.1417 0.0355,-0.0533 0.0889,-0.0533 h 2.18614 q 0.0622,0 0.0889,0.0533 0.0267,0.0444 -0.009,0.10664 l -3.6169,6.14961 q 0.97754,1.62627 1.93731,3.24365 0.95976,1.6085 1.9373,3.23477 0.0356,0.0622 0.009,0.11552 -0.0267,0.0444 -0.0978,0.0444 z m 5.57971,-10.90401 v 3.89239 h 2.76377 q 1.02197,0 1.51963,-0.61319 0.50654,-0.59541 0.50654,-1.333 0,-1.10196 -0.78203,-1.6085 -0.50654,-0.3377 -1.31523,-0.3377 z m -2.03506,10.90401 q -0.10664,0 -0.10664,-0.10664 v -12.73467 q 0,-0.10664 0.10664,-0.10664 h 4.6211 q 0.76425,0 1.44853,0.15996 0.69316,0.15996 1.4752,0.76426 0.30214,0.23994 0.55097,0.55986 0.25772,0.31104 0.46211,0.69316 0.19551,0.39102 0.30215,0.86202 0.10664,0.47099 0.10664,1.0042 0,1.39521 -1.04863,2.66601 -1.04863,1.26192 -3.04815,1.26192 h -2.83486 v 4.86992 q 0,0.10664 -0.10664,0.10664 z m 12.65354,-11.01953 v 3.65244 h 2.81709 q 1.03086,0 1.54629,-0.56875 0.51543,-0.56875 0.51543,-1.35078 0,-0.44434 -0.15997,-0.79092 -0.15107,-0.34658 -0.44433,-0.56875 -0.25772,-0.17774 -0.6043,-0.27549 -0.33769,-0.0978 -0.7376,-0.0978 z m -2.03506,11.01953 q -0.10664,0 -0.10664,-0.10664 v -12.73467 q 0,-0.10664 0.10664,-0.10664 h 4.98545 q 0.82646,0 1.49297,0.23105 0.6665,0.22217 1.16416,0.63985 0.25771,0.23994 0.48877,0.55097 0.23994,0.30215 0.41767,0.65762 0.18662,0.35547 0.29326,0.75537 0.10664,0.3999 0.10664,0.82647 0,0.63095 -0.17773,1.1997 -0.17773,0.55987 -0.49766,1.04864 -0.3288,0.45322 -0.76425,0.7998 -0.43545,0.3377 -0.98643,0.54209 0.71982,1.37744 1.44854,2.77266 0.72871,1.38633 1.44853,2.76377 0.0267,0.0622 0,0.11552 -0.0267,0.0444 -0.0889,0.0444 H 463.775 q -0.0267,0 -0.0533,-0.0178 -0.0267,-0.0267 -0.0444,-0.0444 l -2.60381,-5.37646 h -2.30166 v 5.33203 q 0,0.10664 -0.10664,0.10664 z m 10.92951,0 q -0.10664,0 -0.10664,-0.10664 v -12.73467 q 0,-0.10664 0.10664,-0.10664 h 8.14023 q 0.10664,0 0.10664,0.10664 v 1.83066 q 0,0.10664 -0.10664,0.10664 h -6.10517 v 3.4125 h 5.18984 q 0.10664,0 0.10664,0.10664 v 1.72403 q 0,0.0978 -0.10664,0.0978 h -5.18984 v 3.53692 h 6.10517 q 0.10664,0 0.10664,0.10664 v 1.81289 q 0,0.10664 -0.10664,0.10664 z m 10.02307,-3.27031 q 0.0267,-0.0356 0.0711,-0.0356 0.0444,0 0.08,0.0267 0.70205,0.56875 1.6085,0.91533 0.91533,0.3377 1.92842,0.3377 1.1375,0 1.79511,-0.471 0.62207,-0.45322 0.62207,-1.19971 0,-1.4041 -1.57295,-1.61738 h 0.009 q -0.22217,-0.0267 -0.42656,-0.0533 -0.19551,-0.0267 -0.3999,-0.0533 -0.19551,-0.0267 -0.40879,-0.0533 -0.2044,-0.0356 -0.45323,-0.0711 -0.83535,-0.11553 -1.49296,-0.41768 -0.64873,-0.31104 -1.09307,-0.81758 -0.44434,-0.51543 -0.6665,-1.11973 -0.22217,-0.61318 -0.22217,-1.333 0,-1.68848 1.11972,-2.746 1.12862,-1.07529 3.13702,-1.07529 0.59541,0 1.15527,0.10664 0.56875,0.0978 1.09307,0.27549 0.5332,0.17773 1.01308,0.42656 0.48877,0.23994 0.93311,0.5332 0.0889,0.0622 0.0267,0.15108 l -1.0753,1.59072 q -0.0622,0.08 -0.14218,0.0267 -0.69317,-0.43545 -1.4752,-0.69316 -0.78203,-0.26661 -1.61738,-0.26661 -0.42656,0 -0.79092,0.10664 -0.36436,0.0978 -0.65762,0.32881 -0.57763,0.41768 -0.57763,1.2708 0,0.48877 0.39101,0.95088 0.19551,0.21328 0.52432,0.36436 0.32881,0.14219 0.80869,0.21328 0.25771,0.0444 0.6043,0.0978 0.34658,0.0444 0.81758,0.0978 1.82177,0.22217 2.70156,1.34189 0.87978,1.09307 0.87978,2.43496 0,1.79512 -1.25302,2.80821 -1.26192,0.99531 -3.32364,0.99531 -2.90595,0 -4.94101,-1.77735 -0.0356,-0.0267 -0.0356,-0.0711 0,-0.0444 0.0267,-0.08 z m 10.27189,0 q 0.0267,-0.0356 0.0711,-0.0356 0.0444,0 0.08,0.0267 0.70206,0.56875 1.6085,0.91533 0.91533,0.3377 1.92842,0.3377 1.1375,0 1.79512,-0.471 0.62207,-0.45322 0.62207,-1.19971 0,-1.4041 -1.57295,-1.61738 h 0.009 q -0.22216,-0.0267 -0.42656,-0.0533 -0.19551,-0.0267 -0.3999,-0.0533 -0.19551,-0.0267 -0.40879,-0.0533 -0.20439,-0.0356 -0.45322,-0.0711 -0.83535,-0.11553 -1.49297,-0.41768 -0.64873,-0.31104 -1.09307,-0.81758 -0.44433,-0.51543 -0.6665,-1.11973 -0.22217,-0.61318 -0.22217,-1.333 0,-1.68848 1.11973,-2.746 1.12861,-1.07529 3.13701,-1.07529 0.59541,0 1.15527,0.10664 0.56875,0.0978 1.09307,0.27549 0.5332,0.17773 1.01308,0.42656 0.48877,0.23994 0.93311,0.5332 0.0889,0.0622 0.0267,0.15108 l -1.07529,1.59072 q -0.0622,0.08 -0.14219,0.0267 -0.69316,-0.43545 -1.4752,-0.69316 -0.78203,-0.26661 -1.61738,-0.26661 -0.42656,0 -0.79092,0.10664 -0.36435,0.0978 -0.65761,0.32881 -0.57764,0.41768 -0.57764,1.2708 0,0.48877 0.39101,0.95088 0.19551,0.21328 0.52432,0.36436 0.32881,0.14219 0.80869,0.21328 0.25772,0.0444 0.6043,0.0978 0.34658,0.0444 0.81758,0.0978 1.82178,0.22217 2.70156,1.34189 0.87979,1.09307 0.87979,2.43496 0,1.79512 -1.25303,2.80821 -1.26192,0.99531 -3.32363,0.99531 -2.90596,0 -4.94102,-1.77735 -0.0356,-0.0267 -0.0356,-0.0711 0,-0.0444 0.0267,-0.08 z m 12.25363,3.27031 q -0.0889,0 -0.10664,-0.08 l -3.19033,-12.73467 q -0.0178,-0.0533 0.0178,-0.0889 0.0356,-0.0444 0.0889,-0.0444 h 2.04394 q 0.0889,0 0.10664,0.08 l 1.91954,8.7001 q 0.58652,-2.18614 1.18193,-4.34561 0.59541,-2.15947 1.19082,-4.35449 0.0178,-0.08 0.10664,-0.08 h 1.39522 q 0.08,0 0.0978,0.08 l 2.38164,8.7001 q 0.47988,-2.18614 0.95977,-4.34561 0.47988,-2.15947 0.95976,-4.35449 0.0178,-0.08 0.10664,-0.08 h 2.04395 q 0.0533,0 0.0889,0.0444 0.0356,0.0356 0.0178,0.0889 l -3.19033,12.73467 q -0.0178,0.08 -0.10664,0.08 h -1.6085 q -0.08,0 -0.0978,-0.08 l -2.35499,-8.84229 q -0.58652,2.23057 -1.17304,4.42559 -0.58653,2.19502 -1.17305,4.4167 -0.0178,0.08 -0.0977,0.08 z m 11.00061,-0.009 q -0.0622,0 -0.0889,-0.0444 -0.0267,-0.0444 -0.009,-0.0978 l 4.65665,-12.74355 q 0.0178,-0.0711 0.0889,-0.0711 h 1.59072 q 0.0267,0 0.0533,0.0267 0.0355,0.0178 0.0444,0.0444 l 4.64775,12.74355 q 0.0178,0.0533 -0.009,0.0978 -0.0267,0.0444 -0.08,0.0444 h -2.03506 q -0.0711,0 -0.0889,-0.0711 l -0.95977,-2.80821 h -4.69218 q -0.24883,0.71983 -0.49766,1.41299 -0.23994,0.68428 -0.48877,1.39522 -0.009,0.0267 -0.0444,0.0533 -0.0267,0.0178 -0.0533,0.0178 z m 7.17158,-4.78994 q -0.0178,-0.0622 -0.0533,-0.1333 -0.0267,-0.0711 -0.0444,-0.12442 -0.15108,-0.43544 -0.27549,-0.7998 -0.12442,-0.37324 -0.22217,-0.64873 -0.0622,-0.17773 -0.12441,-0.34658 -0.0533,-0.16885 -0.10664,-0.31992 -0.0444,-0.14219 -0.0889,-0.26661 -0.0444,-0.1333 -0.0889,-0.25771 -0.08,-0.25772 -0.16885,-0.51543 -0.08,-0.25772 -0.16884,-0.5332 -0.0444,-0.12442 -0.0978,-0.27549 -0.0444,-0.15108 -0.0978,-0.31992 -0.0267,-0.0889 -0.0444,-0.1333 -0.009,-0.0533 -0.0267,-0.0978 -0.0178,-0.0533 -0.0444,-0.11553 -0.0178,-0.0622 -0.0533,-0.17773 -0.0978,0.29326 -0.18662,0.54209 -0.08,0.24883 -0.15107,0.46211 -0.0178,0.0533 -0.0267,0.0978 -0.009,0.0444 -0.0267,0.0889 -0.0444,0.15107 -0.0978,0.28438 -0.0444,0.1333 -0.0889,0.2666 -0.0444,0.14218 -0.0889,0.27548 -0.0444,0.13331 -0.0889,0.25772 -0.0889,0.2666 -0.18662,0.55986 -0.0889,0.29326 -0.2044,0.61319 -0.11552,0.31992 -0.23994,0.69316 -0.12441,0.36436 -0.31992,0.92422 z m 6.45949,4.79883 q -0.0978,0 -0.0978,-0.10664 v -5.20762 q -0.95977,-1.8751 -1.91065,-3.74131 -0.95088,-1.86621 -1.90176,-3.74131 -0.0267,-0.0622 0,-0.10664 0.0267,-0.0444 0.0978,-0.0444 h 2.02617 q 0.0267,0 0.0533,0.0267 0.0267,0.0178 0.0444,0.0356 l 2.6127,5.45644 q 0.65762,-1.37744 1.29746,-2.72822 0.64873,-1.35078 1.30635,-2.72822 0.0178,-0.0178 0.0444,-0.0356 0.0267,-0.0267 0.0533,-0.0267 h 2.03506 q 0.0711,0 0.0978,0.0444 0.0267,0.0444 0,0.10664 l -3.82129,7.48262 v 5.20762 q 0,0.10664 -0.10664,0.10664 z"
       id="text3"
       style="font-size:18.2px;font-family:Giaothong2;letter-spacing:-0.17px;white-space:pre;fill:#ffffff"
       aria-label="EXPRESSWAY" />
    <path
       d="m 397.27141,190.631 v -20.52159 l -3.44678,2.56299 v -3.65888 l 3.44678,-2.52764 h 3.4291 V 190.631 Z m 11.7794,0.2247 q -3.8003,-0.72471 -4.41895,-4.4543 0,-3.87099 0,-7.75967 0,-3.88867 0,-7.79501 0.47725,-2.82813 2.49229,-3.8003 2.03271,-0.98984 4.63105,-0.40654 1.30801,0.79541 2.10342,1.6792 0.79541,0.88379 1.0959,2.52764 0,3.90634 0,7.77734 0,3.871 0,7.70664 -0.5126,3.51748 -3.76494,4.48965 -0.40655,0 -0.68936,0.0177 -0.26514,0.0177 -1.44941,0.0177 z m 0.35351,-3.48213 q 1.59082,0 2.03272,-1.39639 0,-3.65888 0,-7.30009 0,-3.64121 0,-7.3001 -0.21211,-0.65401 -0.47725,-1.07822 -1.04287,-0.79541 -1.76758,-0.33584 -0.72471,0.44189 -1.04287,1.41406 0,3.62353 0,7.26474 0,3.64122 0,7.26475 0.21211,1.11358 1.25498,1.46709 z m 13.14083,3.48213 q -3.8003,-0.72471 -4.41895,-4.4543 0,-3.87099 0,-7.75967 0,-3.88867 0,-7.79501 0.47725,-2.82813 2.49229,-3.8003 2.03271,-0.98984 4.63105,-0.40654 1.30801,0.79541 2.10342,1.6792 0.79541,0.88379 1.0959,2.52764 0,3.90634 0,7.77734 0,3.871 0,7.70664 -0.5126,3.51748 -3.76494,4.48965 -0.40655,0 -0.68936,0.0177 -0.26514,0.0177 -1.44941,0.0177 z m 0.35351,-3.48213 q 1.59082,0 2.03272,-1.39639 0,-3.65888 0,-7.30009 0,-3.64121 0,-7.3001 -0.21211,-0.65401 -0.47725,-1.07822 -1.04287,-0.79541 -1.76758,-0.33584 -0.7247,0.44189 -1.04287,1.41406 0,3.62353 0,7.26474 0,3.64122 0,7.26475 0.21211,1.11358 1.25498,1.46709 z"
       id="text4"
       style="font-size:36.2px;font-family:Giaothong1;letter-spacing:0.6px;word-spacing:-1.2px;text-anchor:middle;white-space:pre"
       aria-label="100" />
    <path
       d="m 341.36742,84.558043 q 0.0721,0 0.12012,0.06006 0.048,0.04805 0.024,0.120118 -0.50449,2.45039 -2.23418,3.771679 -0.84082,0.636621 -1.82578,0.960938 -0.98496,0.324316 -2.12608,0.324316 -2.07802,0 -3.49541,-0.996972 -1.39335,-0.984961 -2.01796,-2.16211 -0.21622,-0.408398 -0.37237,-0.816797 -0.15615,-0.42041 -0.24023,-0.876855 -0.15615,-0.888867 -0.15615,-4.035938 0,-1.573535 0.036,-2.570508 0.036,-0.996972 0.12012,-1.453418 0.0841,-0.456445 0.24023,-0.876855 0.15615,-0.42041 0.37237,-0.828809 0.62461,-1.165136 2.01796,-2.162109 1.40538,-1.008984 3.49541,-1.008984 2.49844,0 4.13204,1.5375 1.65761,1.549511 2.054,3.675586 0.024,0.07207 -0.024,0.120117 -0.0481,0.04805 -0.12012,0.04805 h -2.75068 q -0.10811,0 -0.13213,-0.09609 -0.15616,-0.480469 -0.44444,-0.888867 -0.28828,-0.42041 -0.70869,-0.780762 -0.79277,-0.708691 -2.00596,-0.708691 -0.90087,0 -1.5375,0.360351 -0.63662,0.360352 -1.02099,0.828809 -0.22822,0.288281 -0.39639,0.660644 -0.16816,0.360352 -0.26426,0.744727 -0.0961,0.408398 -0.13212,1.26123 -0.036,0.852832 -0.036,2.138086 0,1.309278 0.036,2.16211 0.036,0.84082 0.13212,1.249218 0.0961,0.372364 0.26426,0.744727 0.18018,0.360352 0.39639,0.636621 0.38437,0.504492 1.02099,0.864844 0.63663,0.34834 1.5375,0.34834 2.07803,0 3.15909,-2.270215 0.024,-0.02402 0.0601,-0.04805 0.036,-0.03603 0.0721,-0.03603 z m 5.03291,5.092969 q -0.14414,0 -0.14414,-0.144141 V 74.75648 h -4.57647 q -0.14414,0 -0.14414,-0.14414 v -2.318262 q 0,-0.144141 0.14414,-0.144141 h 12.03575 q 0.14414,0 0.14414,0.144141 v 2.318262 q 0,0.14414 -0.14414,0.14414 h -4.56446 v 14.750391 q 0,0.144141 -0.14414,0.144141 z m 6.47431,0 q -0.14414,0 -0.14414,-0.144141 v -2.438379 q 0,-0.144141 0.14414,-0.144141 h 2.4504 q 0.13212,0 0.13212,0.144141 v 2.438379 q 0,0.144141 -0.13212,0.144141 z m 12.30001,-12.324024 q 0,-1.165137 -0.62461,-1.81377 -0.6126,-0.660644 -1.64561,-0.660644 -1.03301,0 -1.6456,0.660644 -0.6126,0.648633 -0.6126,1.81377 v 7.26709 q 0,1.177148 0.6126,1.825781 0.61259,0.648633 1.6456,0.648633 1.03301,0 1.64561,-0.648633 0.62461,-0.648633 0.62461,-1.825781 z m -7.26709,-0.144141 q 0,-2.426367 1.52548,-3.735644 1.51348,-1.333301 3.47139,-1.333301 0.97295,0 1.83779,0.34834 0.87686,0.336328 1.6336,0.984961 0.75674,0.672656 1.14111,1.60957 0.39639,0.924903 0.39639,2.126074 v 7.555372 q 0,2.414355 -1.5375,3.735644 -1.51348,1.321289 -3.47139,1.321289 -1.95791,0 -3.47139,-1.321289 -1.52548,-1.309277 -1.52548,-3.735644 z m 12.27597,0.288282 q -0.14414,0 -0.14414,-0.144141 v -4.912793 q 0,-0.144141 0.14414,-0.144141 h 9.7295 q 0.13213,0 0.13213,0.144141 v 2.462402 l -5.78965,14.678321 q -0.048,0.09609 -0.13213,0.09609 h -2.75069 q -0.0841,0 -0.12011,-0.06006 -0.036,-0.06006 -0.012,-0.132129 l 5.72959,-14.450098 h -4.20411 v 2.318262 q 0,0.144141 -0.13212,0.144141 z"
       id="text5"
       style="font-size:24.6px;font-family:Giaothong2;-inkscape-font-specification:'Giaothong2, Normal';text-anchor:middle;white-space:pre"
       aria-label="CT.07" />
  </g>
</svg>
