<?xml version="1.0" encoding="UTF-8" standalone="no"?>
<!-- Created with Inkscape (http://www.inkscape.org/) -->

<svg
   xmlns:dc="http://purl.org/dc/elements/1.1/"
   xmlns:cc="http://creativecommons.org/ns#"
   xmlns:rdf="http://www.w3.org/1999/02/22-rdf-syntax-ns#"
   xmlns:svg="http://www.w3.org/2000/svg"
   xmlns="http://www.w3.org/2000/svg"
   xmlns:sodipodi="http://sodipodi.sourceforge.net/DTD/sodipodi-0.dtd"
   xmlns:inkscape="http://www.inkscape.org/namespaces/inkscape"
   width="650.76001mm"
   height="926.22198mm"
   viewBox="0 0 650.76001 926.22198"
   version="1.1"
   id="svg8"
   inkscape:version="0.92.2 (5c3e80d, 2017-08-06)"
   sodipodi:docname="Vietnam_road_sign_W245b.svg">
  <defs
     id="defs2" />
  <sodipodi:namedview
     id="base"
     pagecolor="#ffffff"
     bordercolor="#666666"
     borderopacity="1.0"
     inkscape:pageopacity="0.0"
     inkscape:pageshadow="2"
     inkscape:zoom="0.14889121"
     inkscape:cx="1347.3709"
     inkscape:cy="1037.6842"
     inkscape:document-units="mm"
     inkscape:current-layer="layer1"
     showgrid="false"
     inkscape:snap-global="false"
     inkscape:window-width="1920"
     inkscape:window-height="1057"
     inkscape:window-x="-8"
     inkscape:window-y="-8"
     inkscape:window-maximized="1"
     inkscape:measure-start="0,0"
     inkscape:measure-end="0,0"
     fit-margin-top="0"
     fit-margin-left="0"
     fit-margin-right="0"
     fit-margin-bottom="0"
     showguides="false" />
  <metadata
     id="metadata5">
    <rdf:RDF>
      <cc:Work
         rdf:about="">
        <dc:format>image/svg+xml</dc:format>
        <dc:type
           rdf:resource="http://purl.org/dc/dcmitype/StillImage" />
        <dc:title></dc:title>
      </cc:Work>
    </rdf:RDF>
  </metadata>
  <g
     inkscape:label="Layer 1"
     inkscape:groupmode="layer"
     id="layer1"
     transform="translate(-115.38,632.22216)">
    <path
       sodipodi:nodetypes="cccc"
       inkscape:connector-curvature="0"
       id="path849"
       d="m 151.37766,-95.000303 578.76468,-7e-5 -289.3824,-501.224917 z"
       style="fill:none;fill-opacity:1;stroke:#f00a0a;stroke-width:70.00043488;stroke-linejoin:round;stroke-miterlimit:4;stroke-dasharray:none;stroke-opacity:1" />
    <path
       style="fill:#ffd70f;fill-opacity:1;stroke:none;stroke-width:50.82842255;stroke-linejoin:round;stroke-miterlimit:4;stroke-dasharray:none;stroke-opacity:1"
       d="m 704.68184,-109.69978 -263.9217,-457.12628 -263.9221,457.12624 z"
       id="path860"
       inkscape:connector-curvature="0"
       sodipodi:nodetypes="cccc" />
    <g
       aria-label="ĐI CHẬM"
       style="font-style:normal;font-variant:normal;font-weight:bold;font-stretch:normal;font-size:138.4230957px;line-height:0;font-family:Giaothong2;-inkscape-font-specification:'Giaothong2 Bold';letter-spacing:0px;word-spacing:0px;fill:#000000;fill-opacity:1;stroke:none;stroke-width:0.72095364"
       id="text11"
       transform="translate(116.38,-357.00003)">
      <path
         style="opacity:1;fill:#000000;fill-opacity:1;fill-rule:nonzero;stroke:none;stroke-width:70.21749878;stroke-linecap:butt;stroke-linejoin:miter;stroke-miterlimit:4;stroke-dasharray:none;stroke-opacity:1;paint-order:normal"
         d="M 376.88001,-48.700055 H 360.28 v 100.1 h 16.60001 z"
         id="rect7459"
         inkscape:connector-curvature="0" />
      <path
         style="opacity:1;fill:#000000;fill-opacity:1;fill-rule:nonzero;stroke:none;stroke-width:90.63623047;stroke-linecap:butt;stroke-linejoin:miter;stroke-miterlimit:4;stroke-dasharray:none;stroke-opacity:1;paint-order:normal"
         d="m 263.98,8.1999953 h 7.89977 V 51.399945 h 35.30018 c 19.944,0 35.99987,-16.05588 35.99987,-35.99987 v -28.1001 c 0,-19.944 -16.05587,-35.99987 -35.99987,-35.99987 H 271.87977 V -7.6000751 H 263.98 Z M 288.47981,34.799925 V 8.1999953 h 18.70014 V -7.6000751 H 288.47981 V -32.099875 h 18.70014 c 10.74761,0 19.39986,8.65225 19.39986,19.39985 v 28.1001 c 0,10.74759 -8.65225,19.39985 -19.39986,19.39985 z"
         id="rect7473"
         inkscape:connector-curvature="0"
         sodipodi:nodetypes="cccssssccccccccccssssc" />
      <path
         style="opacity:1;fill:#000000;fill-opacity:1;fill-rule:nonzero;stroke:none;stroke-width:83.81511688;stroke-linecap:butt;stroke-linejoin:miter;stroke-miterlimit:4;stroke-dasharray:none;stroke-opacity:1;paint-order:normal"
         d="m 223.25429,141.20007 c -2.32725,-17.1578 -16.9585,-30.29996 -34.77464,-30.29996 -19.44537,0 -35.09965,15.65478 -35.09965,35.10018 v 29.89998 c 0,19.4454 15.65428,35.09967 35.09965,35.09967 17.53846,0 31.9909,-12.73513 34.65732,-29.50001 h -17.01601 c -2.36242,7.49435 -9.3463,12.89999 -17.64131,12.89999 -10.24898,0 -18.49964,-8.25065 -18.49964,-18.49965 v -29.89998 c 0,-10.249 8.25066,-18.50016 18.49964,-18.50016 8.587,0 15.76798,5.79359 17.87231,13.69994 z"
         id="rect7516"
         inkscape:connector-curvature="0" />
      <path
         style="opacity:1;fill:#000000;fill-opacity:1;fill-rule:nonzero;stroke:none;stroke-width:70.21749878;stroke-linecap:butt;stroke-linejoin:miter;stroke-miterlimit:4;stroke-dasharray:none;stroke-opacity:1;paint-order:normal"
         d="m 233.48,110.9001 v 100.09984 h 16.60002 v -42.99995 h 37.39979 v 42.99995 h 16.60001 V 110.9001 h -16.60001 v 42.20001 H 250.08002 V 110.9001 Z"
         id="path7536"
         inkscape:connector-curvature="0" />
      <path
         style="opacity:1;fill:#000000;fill-opacity:1;fill-rule:nonzero;stroke:none;stroke-width:66.33692932;stroke-linecap:butt;stroke-linejoin:miter;stroke-miterlimit:4;stroke-dasharray:none;stroke-opacity:1;paint-order:normal"
         d="M 349.87985,110.89995 313.68,210.99979 h 17.19998 l 7.54786,-22.19968 h 36.20451 l 7.54786,22.19968 h 17.19998 L 363.17982,110.89995 Z m 6.65024,24.65898 13.07001,38.44105 h -26.14001 z"
         id="rect7576"
         inkscape:connector-curvature="0" />
      <path
         style="opacity:1;fill:#000000;fill-opacity:1;fill-rule:nonzero;stroke:none;stroke-width:70.55994415;stroke-linecap:butt;stroke-linejoin:miter;stroke-miterlimit:4;stroke-dasharray:none;stroke-opacity:1;paint-order:normal"
         d="m 349.13,223.29995 h 14.8 v 14.79999 h -14.8 z"
         id="rect7621"
         inkscape:connector-curvature="0" />
      <path
         style="opacity:1;fill:#000000;fill-opacity:1;fill-rule:nonzero;stroke:none;stroke-width:70;stroke-linecap:butt;stroke-linejoin:miter;stroke-miterlimit:4;stroke-dasharray:none;stroke-opacity:1;paint-order:normal"
         d="M 351.82978,84.799845 331.23,100.99991 v 1.19991 h 12.30003 l 12.99972,-8.000015 13.00024,8.000015 h 12.30002 v -1.19991 L 361.23024,84.799845 Z"
         id="rect7651"
         inkscape:connector-curvature="0"
         sodipodi:nodetypes="cccccccccc" />
      <path
         style="opacity:1;fill:#000000;fill-opacity:1;fill-rule:nonzero;stroke:none;stroke-width:70.21749878;stroke-linecap:butt;stroke-linejoin:miter;stroke-miterlimit:4;stroke-dasharray:none;stroke-opacity:1;paint-order:normal"
         d="m 409.58,110.90011 v 100.09983 h 16.60002 v -59.00001 l 19.5001,44.9001 h 13.59968 l 19.50011,-44.9001 v 59.00001 h 16.60001 V 110.90011 h -15.40009 l -27.49961,62.30008 -27.50013,-62.30008 z"
         id="path7668"
         inkscape:connector-curvature="0"
         sodipodi:nodetypes="cccccccccccccc" />
    </g>
    <rect
       style="opacity:1;fill:#000000;fill-opacity:1;fill-rule:nonzero;stroke:none;stroke-width:68.83878326;stroke-linecap:butt;stroke-linejoin:miter;stroke-miterlimit:4;stroke-dasharray:none;stroke-opacity:1;paint-order:normal"
       id="rect823"
       width="426"
       height="286"
       x="227.75999"
       y="6.9999142" />
    <rect
       y="9.9999142"
       x="230.75999"
       height="280"
       width="420"
       id="rect825"
       style="opacity:1;fill:#ffffff;fill-opacity:1;fill-rule:nonzero;stroke:none;stroke-width:67.63149261;stroke-linecap:butt;stroke-linejoin:miter;stroke-miterlimit:4;stroke-dasharray:none;stroke-opacity:1;paint-order:normal" />
    <g
       aria-label="SLOW"
       style="font-style:normal;font-variant:normal;font-weight:bold;font-stretch:normal;font-size:139.66778564px;line-height:0;font-family:Giaothong2;-inkscape-font-specification:'Giaothong2 Bold';letter-spacing:0.03439583px;word-spacing:0px;fill:#000000;fill-opacity:1;stroke:none;stroke-width:0.72743636"
       id="text838"
       transform="translate(230.76,-7.0000005)">
      <path
         d="m 42.024983,181.58498 q 0.204591,-0.27278 0.545577,-0.27278 0.340986,0 0.613774,0.20459 5.387576,4.36462 12.343687,7.0243 7.024307,2.5915 14.798783,2.5915 8.729237,0 13.775827,-3.61445 4.773801,-3.47806 4.773801,-9.20662 0,-10.77515 -12.070897,-12.41188 h 0.0682 q -1.704929,-0.20459 -3.273464,-0.40919 -1.500337,-0.20459 -3.068872,-0.40918 -1.500338,-0.20459 -3.137069,-0.40918 -1.568535,-0.27279 -3.478056,-0.54558 -6.410533,-0.88656 -11.457123,-3.20527 -4.978392,-2.3869 -8.388251,-6.27413 -3.409858,-3.95544 -5.114787,-8.59285 -1.704929,-4.7056 -1.704929,-10.22957 0,-12.95746 8.592843,-21.07292 8.661039,-8.25186 24.073597,-8.25186 4.56921,0 8.865631,0.81837 4.364619,0.75016 8.388251,2.11411 4.09183,1.36394 7.774477,3.27346 3.750843,1.84132 7.160697,4.09183 0.68198,0.47738 0.2046,1.15935 l -8.251861,12.20729 q -0.47738,0.61378 -1.091154,0.2046 -5.319379,-3.34166 -11.320729,-5.31938 -6.00135,-2.04592 -12.411883,-2.04592 -3.273464,0 -6.069547,0.81837 -2.796084,0.75017 -5.04659,2.52329 -4.432816,3.20527 -4.432816,9.7522 0,3.75084 3.000675,7.29709 1.500338,1.63674 4.023633,2.79609 2.523295,1.09115 6.205941,1.63673 1.977718,0.34099 4.637407,0.75017 2.65969,0.34098 6.274139,0.75017 13.980418,1.70493 20.731937,10.29777 6.751518,8.38825 6.751518,18.68602 0,13.77583 -9.615799,21.5503 -9.683997,7.63809 -25.505738,7.63809 -22.300471,0 -37.917621,-13.63944 Q 32,193.65588 32,193.3149 q 0,-0.34099 0.204592,-0.61378 z"
         style="font-style:normal;font-variant:normal;font-weight:bold;font-stretch:normal;font-family:Giaothong2;-inkscape-font-specification:'Giaothong2 Bold';letter-spacing:0.03439583px;fill:#000000;fill-opacity:1;stroke:none;stroke-width:0.72743636"
         id="path840"
         inkscape:connector-curvature="0" />
      <path
         d="m 121.64546,206.68154 q -0.81837,0 -0.81837,-0.81837 v -97.72653 q 0,-0.81836 0.81837,-0.81836 h 14.79879 q 0.81836,0 0.81836,0.81836 v 82.99595 h 46.85145 q 0.81837,0 0.81837,0.81836 v 13.91222 q 0,0.81837 -0.81837,0.81837 z"
         style="font-style:normal;font-variant:normal;font-weight:bold;font-stretch:normal;font-family:Giaothong2;-inkscape-font-specification:'Giaothong2 Bold';letter-spacing:0.03439583px;fill:#000000;fill-opacity:1;stroke:none;stroke-width:0.72743636"
         id="path842"
         inkscape:connector-curvature="0" />
      <path
         d="m 195.33279,157.03401 q 0,-8.93383 0.20459,-14.5942 0.27279,-5.66036 0.68197,-8.25185 0.47738,-2.59149 1.36395,-4.9784 0.88656,-2.3869 2.18231,-4.7056 h -0.0682 q 3.54625,-6.61512 11.45712,-12.27549 7.97907,-5.72856 19.84538,-5.72856 11.72991,0 19.70898,5.72856 8.04726,5.79676 11.59351,12.27549 2.5233,4.63741 3.40986,9.684 0.47738,2.59149 0.68197,8.25185 0.27279,5.66037 0.27279,14.5942 0,17.52667 -0.95476,22.91424 -0.47738,2.65969 -1.36394,5.04659 -0.81837,2.3869 -1.97772,4.56921 -3.61445,6.54693 -11.66171,12.27549 -8.04727,5.66037 -19.70898,5.66037 -11.79811,0 -19.84538,-5.66037 -7.91087,-5.59217 -11.45712,-12.27549 h 0.0682 q -1.29575,-2.3187 -2.18231,-4.6374 -0.88657,-2.38691 -1.36395,-4.9784 -0.40918,-2.59149 -0.68197,-8.25185 -0.20459,-5.72857 -0.20459,-14.66239 z m 16.43552,0 q 0,7.43349 0.20459,12.27549 0.20459,4.7738 0.75017,7.0925 0.54557,2.11411 1.50033,4.22822 1.02296,2.04592 2.25051,3.61445 2.18231,2.86428 5.79676,4.9102 3.61445,1.97772 8.72924,1.97772 5.04659,0 8.66104,-1.97772 3.61445,-2.04592 5.72856,-4.9102 2.86428,-3.47805 3.75084,-7.84267 1.09116,-4.36462 1.09116,-19.36799 0,-7.43349 -0.27279,-12.2073 -0.27279,-4.84199 -0.81837,-7.0925 -0.47738,-2.18231 -1.43214,-4.22822 -0.95476,-2.11412 -2.25051,-3.75085 -1.02295,-1.29574 -2.52329,-2.52329 -1.43214,-1.22755 -3.27346,-2.11412 -1.84133,-0.95476 -4.02364,-1.50033 -2.18231,-0.61378 -4.6374,-0.61378 -5.11479,0 -8.72924,2.04592 -3.61445,2.04591 -5.79676,4.7056 -1.29575,1.63673 -2.25051,3.75085 -0.95476,2.04591 -1.50033,4.22822 -0.54558,2.3187 -0.75017,7.1607 -0.20459,4.842 -0.20459,12.1391 z"
         style="font-style:normal;font-variant:normal;font-weight:bold;font-stretch:normal;font-family:Giaothong2;-inkscape-font-specification:'Giaothong2 Bold';letter-spacing:0.03439583px;fill:#000000;fill-opacity:1;stroke:none;stroke-width:0.72743636"
         id="path844"
         inkscape:connector-curvature="0" />
      <path
         d="m 300.38961,206.68154 q -0.68197,0 -0.81837,-0.61378 l -24.48278,-97.72653 q -0.13639,-0.40918 0.13639,-0.68197 0.27279,-0.34098 0.68198,-0.34098 h 15.68534 q 0.68197,0 0.81837,0.61377 l 14.73059,66.76502 q 4.50101,-16.7765 9.07022,-33.34841 4.56921,-16.57191 9.13842,-33.41661 0.13639,-0.61377 0.81836,-0.61377 h 10.70696 q 0.61377,0 0.75017,0.61377 l 18.27684,66.76502 q 3.68264,-16.7765 7.36529,-33.34841 3.68265,-16.57191 7.36529,-33.41661 0.1364,-0.61377 0.81837,-0.61377 h 15.68535 q 0.40918,0 0.68197,0.34098 0.27279,0.27279 0.13639,0.68197 l -24.48278,97.72653 q -0.13639,0.61378 -0.81837,0.61378 h -12.34368 q -0.61378,0 -0.75017,-0.61378 l -18.07225,-67.85617 q -4.50101,17.11749 -9.00202,33.96219 -4.50102,16.84469 -9.00203,33.89398 -0.13639,0.61378 -0.75017,0.61378 z"
         style="font-style:normal;font-variant:normal;font-weight:bold;font-stretch:normal;font-family:Giaothong2;-inkscape-font-specification:'Giaothong2 Bold';letter-spacing:0.03439583px;fill:#000000;fill-opacity:1;stroke:none;stroke-width:0.72743636"
         id="path846"
         inkscape:connector-curvature="0" />
    </g>
  </g>
</svg>
