<?xml version="1.0" encoding="UTF-8" standalone="no"?>
<svg
   xmlns:dc="http://purl.org/dc/elements/1.1/"
   xmlns:cc="http://creativecommons.org/ns#"
   xmlns:rdf="http://www.w3.org/1999/02/22-rdf-syntax-ns#"
   xmlns:svg="http://www.w3.org/2000/svg"
   xmlns="http://www.w3.org/2000/svg"
   xmlns:sodipodi="http://sodipodi.sourceforge.net/DTD/sodipodi-0.dtd"
   xmlns:inkscape="http://www.inkscape.org/namespaces/inkscape"
   width="56.865173mm"
   height="169.058mm"
   viewBox="0 0 56.865173 169.058"
   version="1.1"
   id="svg9491"
   inkscape:version="1.0 (4035a4fb49, 2020-05-01)"
   sodipodi:docname="Vietnam_road_sign_IE468b.svg">
  <defs
     id="defs9485">
    <clipPath
       id="clipPath2832">
      <path
         d="M -0.24,595.138 H 317.24 V -0.138 H -0.24 Z"
         id="path2834"
         inkscape:connector-curvature="0" />
    </clipPath>
    <clipPath
       id="clipPath2840">
      <path
         d="M 0.03,595.32 H 317.49 V 0 H 0.03 Z"
         id="path2842"
         inkscape:connector-curvature="0" />
    </clipPath>
    <clipPath
       id="clipPath2858">
      <path
         d="M -0.24,595.138 H 317.24 V -0.138 H -0.24 Z"
         id="path2860"
         inkscape:connector-curvature="0" />
    </clipPath>
    <clipPath
       id="clipPath2864">
      <path
         d="M 0.03,595.32 H 317.49 V 0 H 0.03 Z"
         id="path2866"
         inkscape:connector-curvature="0" />
    </clipPath>
    <clipPath
       id="clipPath3306">
      <path
         d="m 199.238,472.977 v -29.74 h 29.744 v 29.74"
         id="path3308"
         inkscape:connector-curvature="0" />
    </clipPath>
    <clipPath
       id="clipPath3322">
      <path
         d="M -0.24,595.138 H 317.24 V -0.138 H -0.24 Z"
         id="path3324"
         inkscape:connector-curvature="0" />
    </clipPath>
    <clipPath
       id="clipPath3330">
      <path
         d="M 0.03,595.32 H 317.49 V 0 H 0.03 Z"
         id="path3332"
         inkscape:connector-curvature="0" />
    </clipPath>
    <clipPath
       id="clipPath3344">
      <path
         d="m 88.233,387.221 v -28.335 h 32.08 v 28.335"
         id="path3346"
         inkscape:connector-curvature="0" />
    </clipPath>
    <clipPath
       id="clipPath3462">
      <path
         d="M -0.24,595.138 H 317.24 V -0.138 H -0.24 Z"
         id="path3464"
         inkscape:connector-curvature="0" />
    </clipPath>
    <clipPath
       id="clipPath3470">
      <path
         d="M 0.03,595.32 H 317.49 V 0 H 0.03 Z"
         id="path3472"
         inkscape:connector-curvature="0" />
    </clipPath>
    <clipPath
       id="clipPath3490">
      <path
         d="M -0.24,595.138 H 317.24 V -0.138 H -0.24 Z"
         id="path3492"
         inkscape:connector-curvature="0" />
    </clipPath>
    <clipPath
       id="clipPath3496">
      <path
         d="M 0.03,595.32 H 317.49 V 0 H 0.03 Z"
         id="path3498"
         inkscape:connector-curvature="0" />
    </clipPath>
    <clipPath
       id="clipPath3520">
      <path
         d="m 254.788,326.215 v -28.309 h 28.326 v 28.309"
         id="path3522"
         inkscape:connector-curvature="0" />
    </clipPath>
    <clipPath
       id="clipPath3544">
      <path
         d="m 145.049,326.142 v -28.333 h 28.342 v 28.333"
         id="path3546"
         inkscape:connector-curvature="0" />
    </clipPath>
    <clipPath
       id="clipPath3682">
      <path
         d="M -0.24,595.138 H 317.24 V -0.138 H -0.24 Z"
         id="path3684"
         inkscape:connector-curvature="0" />
    </clipPath>
    <clipPath
       id="clipPath3690">
      <path
         d="M 0.03,595.32 H 317.49 V 0 H 0.03 Z"
         id="path3692"
         inkscape:connector-curvature="0" />
    </clipPath>
    <clipPath
       id="clipPath3980">
      <path
         d="M -0.24,595.138 H 317.24 V -0.138 H -0.24 Z"
         id="path3982"
         inkscape:connector-curvature="0" />
    </clipPath>
    <clipPath
       id="clipPath3988">
      <path
         d="M 0.03,595.32 H 317.49 V 0 H 0.03 Z"
         id="path3990"
         inkscape:connector-curvature="0" />
    </clipPath>
    <clipPath
       id="clipPath4010">
      <path
         d="M -0.24,595.138 H 317.24 V -0.138 H -0.24 Z"
         id="path4012"
         inkscape:connector-curvature="0" />
    </clipPath>
    <clipPath
       id="clipPath4016">
      <path
         d="M 0.03,595.32 H 317.49 V 0 H 0.03 Z"
         id="path4018"
         inkscape:connector-curvature="0" />
    </clipPath>
    <clipPath
       id="clipPath4062">
      <path
         d="m 200.163,177.773 v -28.284 h 28.283 v 28.284"
         id="path4064"
         inkscape:connector-curvature="0" />
    </clipPath>
    <clipPath
       id="clipPath4090">
      <path
         d="m 34.886,177.515 v -51.632 h 30.367 v 51.632"
         id="path4092"
         inkscape:connector-curvature="0" />
    </clipPath>
    <clipPath
       id="clipPath4106">
      <path
         d="m 34.886,177.515 v -51.632 h 30.367 v 51.632"
         id="path4108"
         inkscape:connector-curvature="0" />
    </clipPath>
    <clipPath
       id="clipPath4272">
      <path
         d="m 34.886,177.515 v -51.632 h 30.367 v 51.632"
         id="path4274"
         inkscape:connector-curvature="0" />
    </clipPath>
    <clipPath
       id="clipPath4304">
      <path
         d="m 254.653,176.442 v -48.167 h 28.317 v 48.167"
         id="path4306"
         inkscape:connector-curvature="0" />
    </clipPath>
    <clipPath
       id="clipPath4310">
      <path
         d="m 253.565,177.983 h 31.181 V 128.8 h -31.181 z"
         id="path4312"
         inkscape:connector-curvature="0" />
    </clipPath>
    <clipPath
       id="clipPath4316">
      <path
         d="M -0.24,595.138 H 317.24 V -0.138 H -0.24 Z"
         id="path4318"
         inkscape:connector-curvature="0" />
    </clipPath>
    <clipPath
       id="clipPath4322">
      <path
         d="M 0.03,595.32 H 317.49 V 0 H 0.03 Z"
         id="path4324"
         inkscape:connector-curvature="0" />
    </clipPath>
    <clipPath
       id="clipPath4456">
      <path
         d="M -0.24,595.138 H 317.24 V -0.138 H -0.24 Z"
         id="path4458"
         inkscape:connector-curvature="0" />
    </clipPath>
    <clipPath
       id="clipPath4464">
      <path
         d="M 0.03,595.32 H 317.49 V 0 H 0.03 Z"
         id="path4466"
         inkscape:connector-curvature="0" />
    </clipPath>
    <clipPath
       id="clip10">
      <path
         d="M 166.26172,138 H 228 v 183.76172 h -61.73828 z m 0,0"
         id="path486" />
    </clipPath>
    <clipPath
       id="clip11">
      <path
         d="M 166.26172,137.5625 H 241 v 184.19922 h -74.73828 z m 0,0"
         id="path489" />
    </clipPath>
    <clipPath
       id="clip1">
      <path
         d="m 281,138 h 62 v 183.76172 h -62 z m 0,0"
         id="path459" />
    </clipPath>
    <clipPath
       id="clip18">
      <path
         d="m 268,137.5625 h 88 v 184.19922 h -88 z m 0,0"
         id="path510" />
    </clipPath>
  </defs>
  <sodipodi:namedview
     id="base"
     pagecolor="#ffffff"
     bordercolor="#666666"
     borderopacity="1.0"
     inkscape:pageopacity="0.0"
     inkscape:pageshadow="2"
     inkscape:zoom="0.5298281"
     inkscape:cx="214.63453"
     inkscape:cy="449.65111"
     inkscape:document-units="mm"
     inkscape:current-layer="layer1"
     showgrid="false"
     inkscape:window-width="1920"
     inkscape:window-height="1001"
     inkscape:window-x="-9"
     inkscape:window-y="-9"
     inkscape:window-maximized="1"
     inkscape:measure-start="0,0"
     inkscape:measure-end="0,0"
     inkscape:document-rotation="0" />
  <metadata
     id="metadata9488">
    <rdf:RDF>
      <cc:Work
         rdf:about="">
        <dc:format>image/svg+xml</dc:format>
        <dc:type
           rdf:resource="http://purl.org/dc/dcmitype/StillImage" />
        <dc:title></dc:title>
      </cc:Work>
    </rdf:RDF>
  </metadata>
  <g
     inkscape:label="Layer 1"
     inkscape:groupmode="layer"
     id="layer1"
     transform="translate(-1184.2761,-158.84348)">
    <g
       style="stroke-width:0.38383"
       transform="matrix(0.91909835,0,0,0.91909835,926.10421,32.170815)"
       clip-path="url(#clip1)"
       clip-rule="nonzero"
       id="g2024">
      <path
         style="fill:#ffd70f;fill-opacity:1;fill-rule:nonzero;stroke:none;stroke-width:0.38383"
         d="m 342.3125,145.82422 c 0,-1.96875 -0.71484,-3.95313 -2.14453,-5.38281 -1.44922,-1.25391 -3.41797,-2.16407 -5.38281,-2.16407 -22.94922,0 -22.94922,0 -22.94922,0 -22.77344,0 -22.77344,0 -22.77344,0 -2.14844,0 -4.11719,0.91016 -5.38281,2.16407 -1.42969,1.42968 -2.32813,3.41406 -2.32813,5.38281 0,84.00781 0,84.00781 0,84.00781 0,84.01563 0,84.01563 0,84.01563 0,2.16015 0.89844,3.94921 2.32813,5.38281 1.26562,1.44531 3.23437,2.16406 5.38281,2.16406 22.77344,0 22.77344,0 22.77344,0 22.94922,0 22.94922,0 22.94922,0 1.96484,0 3.93359,-0.71875 5.38281,-2.16406 1.42969,-1.4336 2.14453,-3.22266 2.14453,-5.38281 0,-84.01563 0,-84.01563 0,-84.01563 z m 0,0"
         id="path2022" />
    </g>
    <g
       style="stroke-width:0.38383"
       transform="matrix(0.91909835,0,0,0.91909835,926.10421,32.170815)"
       clip-path="url(#clip18)"
       clip-rule="nonzero"
       id="g2092">
      <path
         id="path4657"
         style="color:#000000;font-style:normal;font-variant:normal;font-weight:normal;font-stretch:normal;font-size:medium;line-height:normal;font-family:sans-serif;font-variant-ligatures:normal;font-variant-position:normal;font-variant-caps:normal;font-variant-numeric:normal;font-variant-alternates:normal;font-variant-east-asian:normal;font-feature-settings:normal;font-variation-settings:normal;text-indent:0;text-align:start;text-decoration:none;text-decoration-line:none;text-decoration-style:solid;text-decoration-color:#000000;letter-spacing:normal;word-spacing:normal;text-transform:none;writing-mode:lr-tb;direction:ltr;text-orientation:mixed;dominant-baseline:auto;baseline-shift:baseline;text-anchor:start;white-space:normal;shape-padding:0;shape-margin:0;inline-size:0;clip-rule:nonzero;display:inline;overflow:visible;visibility:visible;opacity:1;isolation:auto;mix-blend-mode:normal;color-interpolation:sRGB;color-interpolation-filters:linearRGB;solid-color:#000000;solid-opacity:1;vector-effect:none;fill:#000000;fill-opacity:1;fill-rule:nonzero;stroke:none;stroke-width:0.465609;stroke-linecap:butt;stroke-linejoin:miter;stroke-miterlimit:10;stroke-dasharray:none;stroke-dashoffset:0;stroke-opacity:1;color-rendering:auto;image-rendering:auto;shape-rendering:auto;text-rendering:auto;enable-background:accumulate;stop-color:#000000;stop-opacity:1"
         d="m 385.41602,183.76367 c -3.03581,0 -5.79687,1.27061 -7.60352,3.06055 l -0.002,0.002 c -2.01484,2.01484 -3.28125,4.79586 -3.28125,7.60547 v 112.01172 112.01953 c 0,3.04301 1.28483,5.59519 3.27343,7.59375 1.8276,2.07395 4.62247,3.07617 7.61329,3.07617 h 30.36523 30.59961 c 2.76764,0 5.54989,-1.01246 7.60547,-3.0625 v -0.002 c 2.01303,-2.01853 3.03711,-4.59139 3.03711,-7.60547 V 306.44336 194.43164 c 0,-2.77189 -1.00391,-5.57227 -3.03711,-7.60547 l -0.0156,-0.0156 -0.0176,-0.0156 c -2.02793,-1.75468 -4.76524,-3.03125 -7.57226,-3.03125 h -30.59961 z m 22.34179,1.21289 h 8.02344 8.01953 l 32.00977,32.0586 v 28.72461 l -40.0293,-40.06641 -40.03906,40.06445 V 217.0332 Z m 8.02344,49.43555 40.0293,40.08203 v 28.96289 l -40.0293,-40.0918 -40.03906,40.08985 v -28.96289 z m 0,57.67578 40.0293,40.08789 v 28.71875 l -40.0293,-40.08789 -40.03906,40.08594 v -28.71875 z m 0,57.4375 40.0293,40.32422 v 28.61328 c 0,0.0354 -0.004,0.0683 -0.004,0.10352 l -40.02539,-40.08203 -40.0332,40.08007 c -3.6e-4,-0.0345 -0.006,-0.0669 -0.006,-0.10156 v -28.61523 z m 0,57.69922 20.89844,20.69531 h -20.89844 -20.66992 z"
         transform="scale(0.75000001)" />
    </g>
  </g>
</svg>
