<?xml version="1.0" encoding="UTF-8"?>
<svg version="1.1" xmlns="http://www.w3.org/2000/svg" width="2560" height="1197">
<path d="M0 0 C844.8 0 1689.6 0 2560 0 C2560 395.01 2560 790.02 2560 1197 C1715.2 1197 870.4 1197 0 1197 C0 801.99 0 406.98 0 0 Z " fill="#FEFEFE" transform="translate(0,0)"/>
<path d="M0 0 C0.88455494 -0.00720654 1.76910988 -0.01441309 2.68046951 -0.02183801 C4.13969645 -0.01077658 4.13969645 -0.01077658 5.62840271 0.00050831 C6.66138866 -0.0034661 7.69437462 -0.0074405 8.75866318 -0.01153535 C12.23808597 -0.02119873 15.71710622 -0.00931474 19.19651794 0.00241566 C21.68514152 -0.00001133 24.17376413 -0.00372973 26.66238403 -0.00864697 C32.73709146 -0.01710183 38.81164012 -0.01151519 44.88632935 0.00061598 C51.98134942 0.01425308 59.07634138 0.0125959 66.17137122 0.01048265 C78.86027897 0.00728874 91.54913073 0.01897237 104.23802185 0.03854847 C116.49813044 0.05745772 128.75817315 0.06466184 141.01829529 0.05905628 C154.38979527 0.05296058 167.76126623 0.05325165 181.13276386 0.06454211 C182.56749789 0.06574921 184.00223191 0.0669552 185.43696594 0.06816006 C186.14265809 0.0687636 186.84835024 0.06936713 187.575427 0.06998896 C192.49503598 0.07383141 197.41463403 0.07348853 202.33424377 0.07157421 C209.00566995 0.06919523 215.67700162 0.0779863 222.34841347 0.09363461 C224.77525808 0.09781749 227.20211118 0.09876945 229.62895775 0.0959444 C278.06157916 0.04819358 325.51934828 6.1663616 368.69261169 29.37473011 C369.6797113 29.89438343 369.6797113 29.89438343 370.68675232 30.4245348 C400.42086329 46.12471996 426.30260661 70.04166318 445.69261169 97.37473011 C446.51801085 98.51544316 447.34352515 99.65607291 448.16917419 100.79660511 C463.43913817 122.31098735 475.14657378 145.82900821 484.69261169 170.37473011 C485.04976257 171.29270374 485.40691345 172.21067738 485.77488708 173.15646839 C488.11300266 179.35677207 489.86546328 185.52406207 491.25511169 191.99973011 C491.45040466 192.83762074 491.64569763 193.67551136 491.84690857 194.53879261 C496.52491814 215.99363779 497.43104675 238.09139688 498.2901001 259.96483326 C498.38167238 262.28934741 498.47652403 264.613713 498.57164001 266.9380846 C500.76615624 321.31139738 500.71208034 375.99409168 498.69261169 430.37473011 C498.66102966 431.23687122 498.62944763 432.09901234 498.59690857 432.98727894 C496.90515586 478.47801175 494.95751793 524.70621331 474.69261169 566.37473011 C474.34923767 567.09128773 474.00586365 567.80784534 473.65208435 568.54611683 C444.59396056 628.51328277 389.67140156 676.16704437 327.00120544 698.03488636 C294.89962426 708.84629971 261.99024178 711.52156083 228.35960388 711.53586292 C225.80909149 711.54049821 223.25857977 711.54552382 220.70806885 711.55090809 C213.81848719 711.56395185 206.92891664 711.57049681 200.03932476 711.57491875 C195.7352378 711.5776934 191.43115303 711.58193236 187.12706757 711.58642292 C175.19743873 711.59859127 163.26781163 711.60890222 151.33817673 711.61229801 C150.57756023 711.61251758 149.81694373 711.61273714 149.03327824 711.61296336 C147.88978743 711.61329078 147.88978743 711.61329078 146.72319579 711.61362481 C145.17865864 711.61406827 143.6341215 711.61451483 142.08958435 711.61496449 C140.94039298 711.61529663 140.94039298 711.61529663 139.76798561 711.61563548 C127.31243674 711.61959639 114.85694589 711.63710042 102.40141949 711.66032401 C89.5979238 711.68400354 76.79445734 711.69649794 63.99093938 711.69766593 C56.80789462 711.69858347 49.62492598 711.70435755 42.44190216 711.72248554 C35.70145055 711.73943859 28.96116873 711.74116523 22.22069359 711.73234653 C19.74140473 711.73157181 17.26210832 711.7359756 14.78283882 711.74580479 C11.41223411 711.75839023 8.04215445 711.75272136 4.67155457 711.74222279 C3.67917432 711.75027919 2.68679407 711.7583356 1.66434169 711.76663613 C0.31802004 711.75675137 0.31802004 711.75675137 -1.05550003 711.74666691 C-2.22314813 711.74756254 -2.22314813 711.74756254 -3.41438508 711.74847627 C-4.35142168 711.56347192 -4.35142168 711.56347192 -5.30738831 711.37473011 C-7.47548957 708.12257821 -7.55770165 707.24065259 -7.5592373 703.48510599 C-7.56713219 701.96030749 -7.56713219 701.96030749 -7.57518658 700.40470499 C-7.5707901 699.28238004 -7.56639361 698.16005508 -7.5618639 697.00372028 C-7.56507038 695.81085409 -7.56827686 694.6179879 -7.5715805 693.38897425 C-7.5784846 690.05736994 -7.57635623 686.72598686 -7.57052478 683.39439458 C-7.5663714 679.77769487 -7.57374676 676.16101622 -7.57967728 672.54432154 C-7.58846262 666.19881279 -7.58974315 659.85333631 -7.58617401 653.50782299 C-7.58088063 644.07205093 -7.58694848 634.63631027 -7.59525694 625.20054163 C-7.61052409 607.37076456 -7.61219926 589.54100166 -7.60973392 571.71121943 C-7.60790367 557.94701091 -7.6096552 544.18280706 -7.61395836 530.41859913 C-7.61456075 528.44349101 -7.61516195 526.4683829 -7.61576196 524.49327478 C-7.61666918 521.51725383 -7.61757784 518.54123289 -7.61849431 515.56521194 C-7.62692789 487.88414627 -7.63125671 460.20308235 -7.62708759 432.52201557 C-7.62693122 431.47777279 -7.62677484 430.43353001 -7.62661373 429.35764351 C-7.6258079 424.06459263 -7.62496213 418.77154176 -7.62410042 413.47849089 C-7.62392934 412.42720904 -7.62375825 411.37592718 -7.62358198 410.2927883 C-7.62323532 408.16684001 -7.62288679 406.04089171 -7.62253639 403.91494342 C-7.61717751 370.82486829 -7.6251127 337.7348198 -7.64356995 304.64474964 C-7.66426577 267.49756895 -7.67501735 230.35040476 -7.67099446 193.20321798 C-7.67059909 189.24576569 -7.67023755 185.28831339 -7.66989708 181.33086109 C-7.66976098 179.86914211 -7.66976098 179.86914211 -7.66962213 178.37789346 C-7.66845407 163.63970542 -7.67512024 148.90153399 -7.685709 134.16335011 C-7.69773216 117.41121862 -7.69935332 100.65912384 -7.68691883 83.90699184 C-7.68026581 74.52275606 -7.68197723 65.13860792 -7.69550735 55.75437906 C-7.70370746 49.49538551 -7.7011126 43.23645811 -7.68953208 36.97747001 C-7.68323124 33.40508452 -7.68178783 29.83287092 -7.69339541 26.26049489 C-7.70575321 22.422155 -7.69518481 18.58408233 -7.68211842 14.74573994 C-7.68942776 13.62341498 -7.69673711 12.50109003 -7.70426795 11.34475523 C-7.69701362 10.3282229 -7.68975929 9.31169057 -7.68228513 8.26435423 C-7.68230559 7.38576267 -7.68232605 6.50717111 -7.68234714 5.60195556 C-6.92048251 1.07654064 -4.2601131 -0.0003064 0 0 Z " fill="#000000" transform="translate(1991.307388305664,250.62526988983154)"/>
<path d="M0 0 C1.56309151 -0.00855011 1.56309151 -0.00855011 3.15776062 -0.01727295 C5.35361742 -0.02665884 7.5494879 -0.03323117 9.74536133 -0.03710938 C13.02777196 -0.04673874 16.30953456 -0.07779343 19.59179688 -0.109375 C33.56724716 -0.17964009 46.98383572 0.882988 60.76171875 3.203125 C61.98947021 3.40196289 63.21722168 3.60080078 64.48217773 3.80566406 C103.22470186 10.40599823 138.21079307 26.61275398 168.76171875 51.203125 C169.7775 52.00621094 170.79328125 52.80929687 171.83984375 53.63671875 C177.73090241 58.35798148 183.31419234 63.36638322 188.83984375 68.50390625 C191.55049904 71.00800091 194.30445485 73.45239345 197.07421875 75.890625 C200.63979513 79.09340824 203.85427057 82.40493485 206.9375 86.0703125 C209.03422268 88.52172703 211.24137637 90.8513692 213.44921875 93.203125 C233.45850327 115.21637428 246.45497768 140.38720859 256.63085938 168.1484375 C257.57282043 170.69287117 258.55545874 173.21379558 259.55859375 175.734375 C271.67663433 207.74230035 269.59883482 245.27163019 269.6235199 278.89875793 C269.64431974 284.44400716 269.78551369 289.95793185 270.12074184 295.49193287 C270.94219636 309.09166755 270.92582906 322.68003528 270.9296875 336.30078125 C270.9311177 337.64657548 270.93271511 338.99236954 270.93447304 340.33816338 C270.9436868 347.41791069 270.94781504 354.49763947 270.94702148 361.57739258 C270.94649428 367.31407514 270.95342072 373.05068857 270.9675293 378.78735352 C271.23904948 491.76049415 271.23904948 491.76049415 260.51171875 544.47875977 C259.99334128 547.05292913 259.49175214 549.62563102 259.01171875 552.20678711 C257.78649671 558.72475298 256.51373969 564.83474558 253.76171875 570.890625 C253.26671875 572.00824219 252.77171875 573.12585938 252.26171875 574.27734375 C250.76171875 577.203125 250.76171875 577.203125 249.07421875 579.41015625 C247.46637998 581.23624143 247.46637998 581.23624143 247.76171875 584.203125 C250.07087835 586.27458429 250.07087835 586.27458429 253.07421875 588.328125 C254.18764098 589.13342521 255.29959028 589.94076534 256.41015625 590.75 C256.97444336 591.15927734 257.53873047 591.56855469 258.12011719 591.99023438 C269.47732719 600.3814627 280.04705175 610.01022549 290.76171875 619.203125 C291.9426848 620.21487122 293.12367428 621.22659009 294.3046875 622.23828125 C296.52039023 624.13648434 298.73069409 626.04068558 300.9375 627.94921875 C308.32105849 634.30245978 315.95294975 640.28130352 323.71875 646.16015625 C324.3782666 646.66498535 325.0377832 647.16981445 325.71728516 647.68994141 C327.13318324 648.73791565 328.58132059 649.74317814 330.05224609 650.71240234 C335.54067441 654.42484331 335.54067441 654.42484331 336.6015625 658.16015625 C335.46685895 662.27147749 333.171235 664.84595265 330.32421875 667.890625 C329.21371724 669.12789609 328.10435248 670.36618834 326.99609375 671.60546875 C326.44501953 672.21374512 325.89394531 672.82202148 325.32617188 673.44873047 C323.15613391 675.88223434 321.11428533 678.41027605 319.07421875 680.953125 C315.51903971 685.33464295 311.79402338 689.52023181 307.99609375 693.69140625 C305.76037342 696.20463732 303.62794193 698.77623979 301.51171875 701.390625 C297.35744036 706.52195493 293.06819092 711.52058076 288.71557617 716.48364258 C285.97701655 719.61325328 283.28798665 722.76365405 280.6953125 726.015625 C280.21046387 726.61584473 279.72561523 727.21606445 279.22607422 727.83447266 C278.31759012 728.96446106 277.42118946 730.10431489 276.53955078 731.25537109 C274.47900484 733.79846532 272.90357673 735.14801062 269.8359375 736.33984375 C265.6610378 736.15417477 263.53268345 734.28130356 260.51171875 731.640625 C259.27834944 730.61727628 258.04392116 729.5952029 256.80859375 728.57421875 C256.15568359 728.02620605 255.50277344 727.47819336 254.83007812 726.91357422 C251.21073859 723.92052739 247.48001923 721.07151696 243.76171875 718.203125 C242.21947126 717.0059562 240.67779826 715.80804693 239.13671875 714.609375 C238.39421875 714.031875 237.65171875 713.454375 236.88671875 712.859375 C233.83786706 710.48306413 230.79882163 708.09442243 227.76171875 705.703125 C219.45729735 699.16598677 211.10800643 692.68666287 202.76171875 686.203125 C199.49054895 683.66189098 196.21977832 681.12014432 192.94921875 678.578125 C192.2025293 677.99828857 191.45583984 677.41845215 190.68652344 676.82104492 C187.02373545 673.97412073 183.37465386 671.11334778 179.76171875 668.203125 C177.03466381 669.49824181 174.61651524 670.92793281 172.1796875 672.70703125 C171.50341309 673.19558594 170.82713867 673.68414063 170.13037109 674.1875 C169.41059082 674.70828125 168.69081055 675.2290625 167.94921875 675.765625 C160.10850566 681.34923883 152.16942149 686.51674134 143.76171875 691.203125 C142.92930664 691.6671875 142.09689453 692.13125 141.23925781 692.609375 C127.9594643 699.93352682 114.50294453 706.11858042 100.24902344 711.29833984 C98.1118698 712.0757536 95.98707481 712.87850596 93.86328125 713.69140625 C86.27181926 716.44650987 78.60234478 718.21484724 70.69921875 719.828125 C69.27440186 720.11961426 69.27440186 720.11961426 67.82080078 720.41699219 C64.4748452 721.06516447 61.12412444 721.64594105 57.76171875 722.203125 C56.98677063 722.33160828 56.21182251 722.46009155 55.41339111 722.59246826 C41.14176156 724.90017613 27.20595062 725.69664817 12.76171875 725.578125 C11.23449692 725.57114594 11.23449692 725.57114594 9.67642212 725.56402588 C-16.59648744 725.42399944 -41.81156275 723.25769405 -67.23828125 716.203125 C-68.60339844 715.82462402 -68.60339844 715.82462402 -69.99609375 715.43847656 C-92.24581141 709.063834 -113.24994888 698.57583115 -131.80078125 684.765625 C-132.44007568 684.2924585 -133.07937012 683.81929199 -133.73803711 683.33178711 C-139.0083098 679.41211724 -144.17996587 675.39385795 -149.23828125 671.203125 C-150.73294922 669.98689453 -150.73294922 669.98689453 -152.2578125 668.74609375 C-167.23553205 656.3744529 -181.65335871 642.6033068 -193.06005859 626.82568359 C-194.24844546 625.18912762 -195.46845594 623.58051212 -196.6953125 621.97265625 C-211.61539071 602.14879667 -220.66787443 580.26723579 -229.23828125 557.203125 C-229.61984375 556.20829102 -230.00140625 555.21345703 -230.39453125 554.18847656 C-242.06702194 523.31606511 -241.29853272 487.31746109 -242.34765625 454.73046875 C-242.38952812 453.46452314 -242.43139999 452.19857754 -242.47454071 450.89426994 C-243.44309598 420.99284801 -243.54603707 391.09767792 -243.49541998 361.18310964 C-243.48779942 356.15370308 -243.49067381 351.12437458 -243.49902344 346.0949707 C-243.5491972 315.08476333 -243.52646415 284.14762377 -241.23828125 253.203125 C-241.14280082 251.85612632 -241.04792966 250.50908432 -240.95362854 249.16200256 C-240.54019086 243.25904089 -240.11399877 237.35733705 -239.6640625 231.45703125 C-239.30819813 226.56108665 -239.09786864 221.67552326 -238.94897461 216.76953125 C-237.17655972 162.39527611 -205.93178915 108.80729202 -167.23828125 72.203125 C-165.28613431 70.42653084 -163.31170205 68.69313491 -161.296875 66.98828125 C-159.21797982 65.18552016 -157.22359747 63.30647205 -155.22607422 61.41455078 C-113.70103124 22.36983528 -56.8875807 0.24978341 0 0 Z " fill="#000000" transform="translate(312.23828125,247.796875)"/>
<path d="M0 0 C844.8 0 1689.6 0 2560 0 C2560 395.01 2560 790.02 2560 1197 C1715.2 1197 870.4 1197 0 1197 C0 801.99 0 406.98 0 0 Z M46.125 50.0625 C42.54110414 55.01670898 41.70749396 58.3201533 41.74700034 64.41899228 C41.74394724 65.17378671 41.74089415 65.92858115 41.73774853 66.70624814 C41.72990716 69.25498389 41.73639714 71.80348528 41.74273109 74.35222244 C41.74003974 76.19803252 41.73647307 78.0438415 41.73210663 79.88964838 C41.7226041 84.99603362 41.72566361 90.10234795 41.73066217 95.2087368 C41.73391595 100.75119972 41.72565702 106.29364707 41.71884382 111.83610511 C41.70851293 121.56140048 41.70570536 131.28667593 41.70775604 141.01197624 C41.71065587 154.79782034 41.70348692 168.58364458 41.6934769 182.36948451 C41.67317288 210.37319296 41.66706436 238.37689343 41.66589268 266.38060841 C41.66576318 269.39622964 41.66562731 272.41185088 41.66548586 275.42747211 C41.66545185 276.17577927 41.66541784 276.92408642 41.6653828 277.69506955 C41.66456636 294.26751058 41.66018804 310.83995007 41.65517417 327.41239029 C41.65311749 334.23346546 41.65113745 341.05454065 41.64914167 347.87561584 C41.64892049 348.62925689 41.64869931 349.38289794 41.64847143 350.15937661 C41.63582052 393.35582478 41.62757349 436.55227196 41.62848854 479.74872208 C41.6285201 481.36579897 41.62855157 482.98287587 41.62858296 484.59995277 C41.62872973 491.90114602 41.62890607 499.20233927 41.62909073 506.50353252 C41.62917297 509.7594115 41.62925327 513.01529049 41.62933335 516.27116947 C41.62937414 517.90079701 41.62941618 519.53042455 41.62945947 521.16005209 C41.63082007 572.69444099 41.61618472 624.2288024 41.58837891 675.76318359 C41.58137706 688.74729021 41.57443822 701.73139686 41.56785011 714.71550369 C41.56744436 715.51495061 41.56703862 716.31439752 41.56662057 717.1380701 C41.55419359 741.77170728 41.54666003 766.40534221 41.54413414 791.03898239 C41.54405424 791.81220991 41.54397434 792.58543743 41.54389201 793.38209609 C41.54218558 810.35509503 41.54166303 827.32809384 41.54223277 844.30109286 C41.54242574 850.37414034 41.54252982 856.44718782 41.54259023 862.5202353 C41.54260605 864.03109914 41.54262646 865.54196297 41.54265147 867.0528268 C41.54300434 891.14218144 41.53159919 915.23151258 41.51434384 939.32086048 C41.49705555 963.57949813 41.49265147 987.83810321 41.50586648 1012.09674441 C41.51406604 1027.15323045 41.51155348 1042.20963074 41.49108342 1057.2661087 C41.47913479 1066.86295738 41.48161718 1076.459731 41.49602441 1086.05657615 C41.50383086 1091.53128333 41.50521507 1097.0057904 41.48910971 1102.48048392 C41.474596 1107.45750217 41.47837232 1112.4341529 41.49695744 1117.41115455 C41.5004103 1119.20379327 41.49711007 1120.99646046 41.48635503 1122.78907024 C41.25545336 1136.39366785 41.25545336 1136.39366785 47.78125 1148.0234375 C48.3484375 1148.46945312 48.915625 1148.91546875 49.5 1149.375 C50.0671875 1149.83648438 50.634375 1150.29796875 51.21875 1150.7734375 C55.56029308 1153.76300883 58.59966093 1154.25021147 63.92691787 1154.251233 C64.97986828 1154.25552777 64.97986828 1154.25552777 66.05409043 1154.25990929 C68.42447984 1154.2671092 70.7946131 1154.25997515 73.1650002 1154.25299966 C74.88418667 1154.25523253 76.60337219 1154.25834217 78.32255566 1154.26225147 C83.0854698 1154.27050427 87.84830484 1154.26618531 92.61121906 1154.25995973 C97.79760258 1154.25537372 102.98397231 1154.26235971 108.17035311 1154.26789337 C117.30812536 1154.27602319 126.44587487 1154.27664275 135.58364943 1154.27248149 C149.26331886 1154.26628597 162.94296729 1154.27154273 176.62263519 1154.2790789 C199.93243869 1154.29157507 223.24223224 1154.29450164 246.55203819 1154.29224396 C270.1872322 1154.28998193 293.82241995 1154.29203699 317.45761299 1154.29938889 C318.963286 1154.29985287 320.46895901 1154.30031681 321.97463202 1154.30078072 C328.04528959 1154.30265974 334.11594715 1154.30457233 340.18660471 1154.3065231 C357.30096893 1154.3120146 374.41533332 1154.31677317 391.5296979 1154.32102704 C392.31405296 1154.32122214 393.09840803 1154.32141724 393.90653143 1154.32161825 C438.54406721 1154.332636 483.18160335 1154.33323766 527.81914025 1154.33405997 C534.6440099 1154.33418646 541.46887954 1154.33431951 548.29374919 1154.33446108 C550.00429364 1154.33449646 551.71483809 1154.33453121 553.42538254 1154.33456532 C591.79317039 1154.33534045 630.1609575 1154.33969601 668.52874498 1154.34482583 C677.08825318 1154.34596894 685.64776139 1154.34707688 694.20726959 1154.3481871 C695.05690075 1154.34829734 695.9065319 1154.34840758 696.78190945 1154.34852117 C701.93926913 1154.34919017 707.09662881 1154.3498577 712.25398849 1154.35052429 C714.83750543 1154.35085845 717.42102238 1154.35119347 720.00453933 1154.35152857 C760.17563229 1154.35673262 800.34672532 1154.36119312 840.51781845 1154.36489296 C841.3931346 1154.3649737 842.26845074 1154.36505444 843.17029162 1154.36513763 C898.95893889 1154.37026483 954.74758575 1154.37206253 1010.53623324 1154.37153696 C1013.28006718 1154.37151145 1016.02390111 1154.37148753 1018.76773504 1154.37146414 C1038.04486526 1154.37129945 1057.32199549 1154.37109403 1076.59912571 1154.37087838 C1082.12644673 1154.37081684 1087.65376775 1154.37075671 1093.18108877 1154.37069675 C1097.79159991 1154.37064656 1102.40211105 1154.37059498 1107.01262219 1154.37054053 C1194.09998969 1154.3695176 1281.18735349 1154.37235474 1368.27471924 1154.39123535 C1369.65009672 1154.39153343 1369.65009672 1154.39153343 1371.05325961 1154.39183752 C1399.7020104 1154.3980602 1428.35076107 1154.40479319 1456.99951172 1154.41162109 C1486.39465964 1154.41862378 1515.78980758 1154.42556463 1545.1849556 1154.43214989 C1546.54254741 1154.43245447 1546.54254741 1154.43245447 1547.92756532 1154.4327652 C1604.59671311 1154.44546075 1661.26585984 1154.4533067 1717.935009 1154.45586586 C1718.81006422 1154.45590592 1719.68511943 1154.45594597 1720.58669148 1154.45598724 C1759.01445699 1154.45773777 1797.44222246 1154.45837747 1835.86998801 1154.45780547 C1851.32892727 1154.4575769 1866.78786653 1154.45746477 1882.24680579 1154.45739883 C1884.8100279 1154.45738603 1887.37325001 1154.45736787 1889.93647211 1154.45734853 C1929.15896433 1154.45707543 1968.38145316 1154.45977371 2007.60394382 1154.47143888 C2008.45023958 1154.47169023 2009.29653533 1154.47194157 2010.16847641 1154.47220053 C2023.78288202 1154.47625876 2037.39728756 1154.48054675 2051.01169309 1154.48485415 C2089.64813269 1154.49706812 2128.28456775 1154.50716223 2166.92100954 1154.50291181 C2167.70452237 1154.50282638 2168.4880352 1154.50274095 2169.29529085 1154.50265294 C2186.38658449 1154.50074648 2203.47787775 1154.49771513 2220.56917099 1154.49357951 C2227.38504156 1154.4919468 2234.20091215 1154.49045957 2241.01678276 1154.48901749 C2242.13204539 1154.48877553 2242.13204539 1154.48877553 2243.26983859 1154.48852869 C2266.87443375 1154.48347647 2290.47900371 1154.49072749 2314.08359449 1154.50505312 C2337.95656018 1154.51948831 2361.82947536 1154.52018387 2385.70244291 1154.50397559 C2399.29490801 1154.49517658 2412.88726509 1154.49744167 2426.47972137 1154.51570916 C2435.49084917 1154.52673687 2444.50189581 1154.52343065 2453.51301727 1154.50814359 C2458.63158279 1154.49987046 2463.74993473 1154.49797301 2468.86848774 1154.51364497 C2473.50863367 1154.52773675 2478.14838412 1154.52357001 2482.78850933 1154.50457759 C2484.45636472 1154.50098494 2486.12425132 1154.50412984 2487.79207678 1154.51474985 C2500.87842248 1154.60787879 2500.87842248 1154.60787879 2512.0234375 1148.25390625 C2512.46945313 1147.69574219 2512.91546875 1147.13757812 2513.375 1146.5625 C2513.83648438 1146.00691406 2514.29796875 1145.45132812 2514.7734375 1144.87890625 C2517.8235468 1140.20660507 2518.28879027 1135.92745402 2518.25415033 1130.45680922 C2518.25732766 1129.7007367 2518.26050498 1128.94466418 2518.26377859 1128.16568037 C2518.27202421 1125.61862038 2518.26597869 1123.07179338 2518.26006222 1120.52472973 C2518.2630575 1118.67775401 2518.26692713 1116.83077954 2518.27159455 1114.9838073 C2518.28192248 1109.87884953 2518.27970906 1104.77396073 2518.27553919 1099.66899701 C2518.27318187 1094.12634047 2518.28233042 1088.58370126 2518.29002339 1083.04105121 C2518.30189399 1073.31696961 2518.30623523 1063.59290679 2518.30570221 1053.86881828 C2518.30494748 1040.08483354 2518.31424988 1026.30087013 2518.32634189 1012.51689151 C2518.35086479 984.51654926 2518.36100957 956.5162131 2518.36586904 928.51586135 C2518.36639273 925.50095222 2518.36691857 922.48604308 2518.36744571 919.47113395 C2518.36757477 918.72299989 2518.36770383 917.97486584 2518.3678368 917.20406106 C2518.37074108 900.63358348 2518.37689881 884.06310761 2518.38354302 867.49263117 C2518.38626644 860.6718527 2518.38889748 853.85107418 2518.39152867 847.03029567 C2518.39196504 845.89987741 2518.39196504 845.89987741 2518.39241022 844.74662241 C2518.40903549 801.55413126 2518.42089084 758.36164092 2518.42332363 715.16914654 C2518.42341826 713.55233834 2518.42351327 711.93553015 2518.42360866 710.31872195 C2518.42403641 703.01877742 2518.42444179 695.71883288 2518.42484702 688.41888835 C2518.42502862 685.1635796 2518.42521351 681.90827084 2518.42539909 678.65296209 C2518.42549111 677.02362045 2518.42558151 675.3942788 2518.42567028 673.76493716 C2518.42848506 622.23723551 2518.45021617 570.70957297 2518.48706055 519.18188477 C2518.51452865 480.75971218 2518.5404179 442.33754707 2518.54700565 403.91536427 C2518.54720581 402.75562367 2518.54720581 402.75562367 2518.54741001 401.57245396 C2518.55028211 384.60097783 2518.55169956 367.62950186 2518.55176822 350.65802549 C2518.55180791 344.58555224 2518.55196486 338.51307899 2518.55218274 332.44060574 C2518.55223639 330.92988916 2518.5522845 329.41917258 2518.55232707 327.90845601 C2518.55307098 303.82191243 2518.56874794 279.73540738 2518.59193837 255.64887585 C2518.61518835 231.39371572 2518.62244866 207.13860521 2518.6077575 182.8834368 C2518.59864535 167.82925038 2518.60295031 152.77519912 2518.62971413 137.72102809 C2518.64540141 128.12567905 2518.64305448 118.53044581 2518.6258074 108.93509968 C2518.61648538 103.46123311 2518.61519502 97.9876801 2518.63577347 92.5138373 C2518.65432304 87.53756122 2518.65000868 82.56185764 2518.62718253 77.58560413 C2518.62301338 75.79326104 2518.62728696 74.00087415 2518.64088022 72.20857776 C2519.02695956 59.61365274 2519.02695956 59.61365274 2513 49 C2508.80984212 44.75842534 2504.75710844 42.21196538 2498.73905609 41.74929995 C2496.86268675 41.74880217 2496.86268675 41.74880217 2494.94841097 41.74829433 C2494.24511477 41.74537999 2493.54181857 41.74246564 2492.81721037 41.73946299 C2490.44832143 41.73210481 2488.07968886 41.73904235 2485.7108013 41.74584967 C2483.99032378 41.74349056 2482.26984727 41.74025505 2480.54937285 41.73622141 C2475.78753734 41.72762946 2471.02578012 41.73158837 2466.26394349 41.73746906 C2461.07699051 41.74167947 2455.89005209 41.7343129 2450.70310256 41.72840545 C2441.5658845 41.71961785 2432.42868865 41.71833461 2423.29146739 41.72183973 C2409.61264186 41.72705435 2395.93383808 41.72082359 2382.25501505 41.71232625 C2358.9462602 41.69819411 2335.63751467 41.69364413 2312.32875633 41.69429779 C2288.69559461 41.69493469 2265.06243943 41.6912644 2241.42927933 41.68231773 C2239.92357734 41.6817522 2238.41787535 41.68118676 2236.91217335 41.68062141 C2230.84137266 41.67833382 2224.77057198 41.67601423 2218.69977131 41.67365811 C2201.58523754 41.66702544 2184.47070355 41.66114342 2167.35616934 41.65578258 C2166.57181802 41.65553683 2165.78746671 41.65529108 2164.97934717 41.65503789 C2119.49371728 41.64087798 2074.00808629 41.63761477 2028.52245458 41.63413096 C2022.54983444 41.63367297 2016.57721429 41.63321389 2010.60459415 41.63275199 C2008.89422492 41.63262015 2007.18385568 41.6324891 2005.47348645 41.63235885 C1967.96112933 41.62950028 1930.44877299 41.62355926 1892.93641638 41.61691041 C1876.64739254 41.61402544 1860.35836868 41.61124772 1844.06934482 41.60847133 C1843.21681904 41.60832587 1842.36429327 41.6081804 1841.48593338 41.60803053 C1800.45430295 41.60103314 1759.42267243 41.5948057 1718.39104176 41.5894537 C1717.51575224 41.58933945 1716.64046273 41.58922521 1715.7386493 41.58910751 C1659.95291107 41.58184865 1604.16717318 41.57812692 1548.38143452 41.57674492 C1543.80729572 41.5766306 1539.23315692 41.57651058 1534.65901812 41.57639134 C1519.05451145 41.57598662 1503.45000479 41.57560315 1487.84549813 41.57522071 C1480.47794154 41.57503994 1473.11038494 41.57485617 1465.74282835 41.5746705 C1461.13267458 41.57455449 1456.52252082 41.5744402 1451.91236706 41.57432972 C1364.83057258 41.57223663 1277.74878337 41.56548526 1190.66699219 41.5401001 C1189.75011138 41.53983295 1188.83323057 41.53956579 1187.88856549 41.53929055 C1159.24089574 41.53092845 1130.59322618 41.52198762 1101.94555664 41.51293945 C1072.55144857 41.50365726 1043.15734047 41.49445634 1013.76323223 41.48571873 C1012.85820206 41.48544939 1011.95317189 41.48518006 1011.02071656 41.48490256 C954.35359055 41.46806417 897.68646601 41.45727775 841.01933765 41.45299435 C840.14431598 41.45292751 839.2692943 41.45286067 838.36775682 41.4527918 C799.94151292 41.44986603 761.51526906 41.44830197 723.08902505 41.44823663 C707.63073182 41.44820765 692.17243858 41.44802505 676.71414535 41.4477759 C674.1510338 41.44773677 671.58792225 41.44770419 669.0248107 41.44767293 C629.80424588 41.44716313 590.58368658 41.44285123 551.36312461 41.42716718 C550.09375257 41.42666011 550.09375257 41.42666011 548.79873666 41.42614281 C535.1851218 41.42068476 521.57150707 41.41492784 507.95789235 41.40913959 C469.32386062 41.39272318 430.68983588 41.37888954 392.05580008 41.38295543 C391.27233791 41.38303688 390.48887574 41.38311834 389.6816723 41.38320226 C372.59150218 41.38503193 355.50133263 41.38825945 338.41116304 41.3928586 C331.59575001 41.39467174 324.78033695 41.396302 317.96492386 41.39787483 C317.22146562 41.39805137 316.47800737 41.39822791 315.7120201 41.3984098 C292.10902966 41.40392773 268.50607915 41.39405779 244.90309641 41.37533815 C221.03178389 41.35647175 197.16054967 41.35477168 173.28923292 41.3741926 C159.69771319 41.38471264 146.1063628 41.38139765 132.51485806 41.35807384 C123.50436477 41.34396436 114.49399765 41.34777203 105.48351308 41.36655534 C100.36527724 41.37671168 95.24737546 41.37889756 90.12916027 41.35911978 C85.48927562 41.34133448 80.85000816 41.34637369 76.2101544 41.36994614 C74.54242163 41.37437614 72.8746404 41.37038356 71.20695508 41.35704676 C60.65398695 41.27829614 53.36475133 41.9013825 46.125 50.0625 Z " fill="#000000" transform="translate(0,0)"/>
<path d="M0 0 C0.96164062 0.82886719 1.92328125 1.65773438 2.9140625 2.51171875 C15.32684872 13.39228594 25.39622965 25.9455652 34 40 C34.40959961 40.66418945 34.81919922 41.32837891 35.24121094 42.01269531 C45.75200486 59.30094105 53.37479908 78.43084014 58.4765625 97.99414062 C59.03970663 100.15215938 59.62924268 102.30216949 60.21875 104.453125 C60.60597249 105.90576983 60.99144982 107.35888123 61.375 108.8125 C61.64546143 109.80938843 61.64546143 109.80938843 61.92138672 110.82641602 C62.7701459 114.17236891 63.40373359 116.7623564 62 120 C59.5899539 122.4100461 59.04590667 122.25199116 55.75550842 122.26069641 C54.86519424 122.26778122 53.97488007 122.27486603 53.05758667 122.28216553 C52.07831207 122.27968811 51.09903748 122.27721069 50.09008789 122.2746582 C49.06073624 122.27976913 48.03138458 122.28488007 46.97084045 122.29014587 C43.55472056 122.30409117 40.13880129 122.30308139 36.72265625 122.30078125 C34.35615462 122.30466547 31.9896537 122.30899957 29.62315369 122.31376648 C24.65735619 122.32123933 19.69162977 122.3209297 14.72583008 122.31567383 C8.35204762 122.30987791 1.97855562 122.32680824 -4.39517879 122.3500185 C-9.2841208 122.3647273 -14.17299239 122.36563143 -19.06195259 122.36250877 C-21.41236509 122.36302343 -23.76278139 122.36828797 -26.11317253 122.37832069 C-29.39587324 122.39061234 -32.67800228 122.38393695 -35.96069336 122.37231445 C-36.93794373 122.37995819 -37.91519409 122.38760193 -38.92205811 122.39547729 C-39.81519211 122.38846298 -40.70832611 122.38144867 -41.62852478 122.3742218 C-42.40484221 122.37438954 -43.18115965 122.37455729 -43.98100185 122.37473011 C-46.56690054 121.89478212 -47.3847012 121.04274708 -49 119 C-50.23951883 116.55531389 -51.41252884 114.11058136 -52.5625 111.625 C-62.58630901 90.88892064 -78.97559869 76.71644001 -100.70703125 69.03125 C-125.60919678 61.23270706 -153.32653076 63.08510951 -177 74 C-195.13202977 83.52274108 -207.83558079 99.57385569 -214.14190674 118.93441772 C-220.8131695 140.72698677 -220.52371149 163.26879641 -220.66955566 185.81842041 C-220.69980616 190.02293114 -220.74617789 194.22726464 -220.79101562 198.43164062 C-220.87606443 206.62100482 -220.94383577 214.81038689 -221 223 C-219.9555497 222.71138092 -219.9555497 222.71138092 -218.88999939 222.41693115 C-205.18287985 218.64230345 -191.51271451 215.00426077 -177.5625 212.25 C-176.10048336 211.95624153 -174.6384883 211.66237569 -173.17651367 211.3684082 C-162.82544752 209.30148164 -152.48095112 207.28597839 -142 206 C-141.19353027 205.89848633 -140.38706055 205.79697266 -139.55615234 205.69238281 C-90.96816415 199.85261324 -39.33544749 204.17218528 0.8125 234.875 C43.73432095 269.40730992 59.18816163 315.35534879 65 369 C66.08996446 380.46762636 66.17996085 391.89325764 66.203125 403.40234375 C66.20595238 404.36580782 66.20877975 405.32927189 66.21169281 406.32193184 C66.22659995 411.43459459 66.23587928 416.54722982 66.24023438 421.65991211 C66.24459238 425.81462515 66.25839197 429.96912741 66.28125 434.1237793 C66.53085812 480.44455087 64.72870762 526.60306795 44 569 C43.67773438 569.66370605 43.35546875 570.32741211 43.0234375 571.01123047 C31.78407858 593.86116697 14.92527171 613.28765143 -5 629 C-6.010625 629.81597656 -7.02125 630.63195312 -8.0625 631.47265625 C-48.15221511 663.50098747 -102.27012115 676.88197393 -152.890625 671.7578125 C-199.8401099 666.35694823 -239.60627062 646.06332343 -273.42285156 613.51416016 C-274.7161309 612.27253192 -276.02404572 611.04616477 -277.3359375 609.82421875 C-302.70938579 585.64176905 -316.0855139 552.40826344 -324 519 C-324.17015625 518.30841797 -324.3403125 517.61683594 -324.515625 516.90429688 C-329.84785439 495.04675314 -329.30540727 472.10579131 -329.29076743 449.75842118 C-329.29035221 445.78673357 -329.30146428 441.81507326 -329.31088257 437.84339905 C-329.32734487 430.09418785 -329.33298537 422.34500711 -329.33410732 414.59577987 C-329.33506504 408.28134515 -329.33921095 401.9669203 -329.34550858 395.65248871 C-329.36308191 377.65992122 -329.37235378 359.66737739 -329.37084763 341.67480126 C-329.37076772 340.70913345 -329.3706878 339.74346563 -329.37060547 338.74853516 C-329.37052371 337.78165688 -329.37044195 336.8147786 -329.37035771 335.81860098 C-329.36954628 320.17924527 -329.38865823 304.5399862 -329.4168822 288.9006584 C-329.44578624 272.75410078 -329.4594129 256.60759001 -329.45769465 240.46100593 C-329.45703667 231.43148438 -329.46226432 222.40206411 -329.48405075 213.37256622 C-329.5024954 205.6801767 -329.50642344 197.98793431 -329.4930319 190.29553196 C-329.48661658 186.39013844 -329.48595406 182.48502512 -329.5037384 178.57966042 C-329.57325136 162.23261688 -328.98717968 146.13236064 -327.20401001 129.87322998 C-327.08581504 128.76959507 -327.08581504 128.76959507 -326.9652323 127.64366451 C-324.54751573 105.57539209 -318.75543978 83.98405818 -309 64 C-308.62649414 63.22156738 -308.25298828 62.44313477 -307.86816406 61.64111328 C-285.23303855 14.96676829 -244.66916018 -19.14429894 -196.046875 -36.43359375 C-130.42056686 -58.10647946 -52.62485309 -46.38256571 0 0 Z " fill="#000000" transform="translate(1803,297)"/>
<path d="M0 0 C0.95900208 -0.00990463 1.91800415 -0.01980927 2.90606689 -0.03001404 C4.48179474 -0.02326157 4.48179474 -0.02326157 6.08935547 -0.01637268 C7.19688171 -0.02323593 8.30440796 -0.03009918 9.44549561 -0.03717041 C13.11597417 -0.05551106 16.78602831 -0.05159074 20.45654297 -0.0459137 C23.00097799 -0.0504717 25.54541177 -0.05577613 28.08984375 -0.0617981 C33.42632625 -0.0707433 38.76265318 -0.06852243 44.09912109 -0.05836487 C50.26987632 -0.04687894 56.44019717 -0.06096549 62.61089516 -0.08776134 C68.54561655 -0.11256858 74.4802026 -0.11510027 80.41497803 -0.10864449 C82.9412305 -0.10849071 85.46749112 -0.11458073 87.99371338 -0.12693596 C91.52071795 -0.14175529 95.04675685 -0.13123501 98.57373047 -0.11402893 C99.6242157 -0.1236969 100.67470093 -0.13336487 101.75701904 -0.14332581 C102.71602112 -0.13349167 103.67502319 -0.12365753 104.66308594 -0.11352539 C105.4970993 -0.11331611 106.33111267 -0.11310682 107.19039917 -0.1128912 C109.33154297 0.38768005 109.33154297 0.38768005 110.94229299 1.8025524 C113.10829936 5.83307466 112.73798756 9.74399191 112.70068645 14.25029373 C112.70587875 15.77675311 112.70587875 15.77675311 112.71117595 17.33405006 C112.71916811 20.77185144 112.70561519 24.20923817 112.69230652 27.64701843 C112.69361376 30.12535188 112.69623867 32.60368493 112.70007402 35.08201575 C112.7053983 40.48464216 112.7013539 45.88714251 112.68915939 51.28974915 C112.67107686 59.32324013 112.67014987 67.3566685 112.67278536 75.39017612 C112.6767301 88.90285433 112.66669134 102.41548858 112.64873314 115.92815399 C112.63099312 129.31090258 112.61943754 142.69363287 112.6161747 156.07639313 C112.61596848 156.90792624 112.61576226 157.73945935 112.61554979 158.59619043 C112.61453482 162.81898153 112.61363066 167.04177264 112.61276916 171.26456377 C112.60646488 201.18875302 112.5862443 231.11291835 112.55786133 261.03709412 C112.53031633 290.11131157 112.50906143 319.18552248 112.49633789 348.25975037 C112.49594331 349.15565781 112.49554873 350.05156525 112.4951422 350.9746214 C112.4911867 359.97154283 112.48735925 368.96846431 112.48362562 377.96538583 C112.47601661 396.29379334 112.46755285 414.62220042 112.45857239 432.9506073 C112.45795458 434.21472359 112.45795458 434.21472359 112.4573243 435.50437758 C112.42971382 491.79882178 112.38211492 548.09325239 112.33154297 604.38768005 C113.04945377 604.38616117 113.76736457 604.38464229 114.50703025 604.38307738 C157.02774969 604.29362374 199.54845892 604.22496353 242.06925355 604.18341874 C247.17133195 604.17841573 252.27341016 604.17323846 257.37548828 604.16795349 C258.39124806 604.16690425 259.40700784 604.16585501 260.45354822 604.16477397 C276.91465191 604.1473544 293.3756999 604.11580818 309.8367705 604.07906887 C326.71917161 604.0417026 343.60154347 604.01945335 360.48398423 604.01132607 C370.90683378 604.00582933 381.32952589 603.98844969 391.752327 603.95601419 C398.89332443 603.93491952 406.03424012 603.92846852 413.17526647 603.93367454 C417.29931275 603.93624422 421.42308336 603.93222205 425.54708099 603.91085815 C429.31983291 603.89145593 433.09212261 603.89036832 436.86489537 603.90408447 C438.88207777 603.90658665 440.89925439 603.8892779 442.91635871 603.87135482 C444.1086774 603.87931901 445.30099609 603.88728321 446.52944565 603.89548874 C448.07642627 603.89321042 448.07642627 603.89321042 449.65465903 603.89088607 C453.03654047 604.51851819 454.22029673 605.72841337 456.33154297 608.38768005 C456.83211422 610.50852203 456.83211422 610.50852203 456.83274841 612.82798767 C456.84258255 613.71119186 456.85241669 614.59439606 456.86254883 615.50436401 C456.85288086 616.46552628 456.84321289 617.42668854 456.83325195 618.41697693 C456.84135643 619.94440269 456.84135643 619.94440269 456.84962463 621.50268555 C456.86213873 624.87089543 456.84560242 628.23825505 456.82763672 631.60643005 C456.82779164 633.94525701 456.82927954 636.28408422 456.83204651 638.62290955 C456.83343171 643.52557214 456.82085178 648.42794261 456.7980957 653.33055115 C456.76971107 659.61901837 456.77244696 665.90700009 456.78518581 672.19550323 C456.79213641 677.02531592 456.78436072 681.85501613 456.77192879 686.68481445 C456.76740829 689.00368824 456.76708269 691.32257408 456.77099419 693.64144897 C456.77390026 696.88067939 456.7574276 700.11923763 456.7355957 703.35838318 C456.74234818 704.80012657 456.74234818 704.80012657 456.74923706 706.27099609 C456.73933243 707.15420029 456.7294278 708.03740448 456.71922302 708.94737244 C456.71557818 710.09550793 456.71557818 710.09550793 456.7118597 711.26683807 C456.1939526 714.15495483 455.44528606 715.32631192 453.33154297 717.38768005 C450.68451199 717.78731801 448.44882297 717.92337256 445.799613 717.8882513 C444.63287421 717.89652255 444.63287421 717.89652255 443.44256493 717.9049609 C440.81433502 717.9186468 438.18703613 717.90361069 435.55882263 717.8888855 C433.66437123 717.89277511 431.76992274 717.89841281 429.87548119 717.9056564 C424.65269514 717.92047775 419.43020854 717.91019033 414.20743191 717.89591968 C408.58161152 717.88485166 402.95583459 717.89673859 397.33001709 717.90576172 C386.3026331 717.91972445 375.27536329 717.91211578 364.2479847 717.89708614 C351.41844033 717.88026289 338.5889247 717.8834316 325.75937272 717.88718022 C302.18398603 717.89324221 278.60867326 717.87743483 255.03330474 717.85199258 C233.49671198 717.82887374 211.96018635 717.82348991 190.42358398 717.83372498 C184.90868095 717.83632684 179.3937779 717.8389118 173.87887478 717.8413229 C172.86055376 717.84176907 172.86055376 717.84176907 171.82166059 717.84222425 C153.8423824 717.84983309 135.8631118 717.8433734 117.88383538 717.83262688 C115.30789793 717.83110097 112.73196048 717.82958061 110.15602303 717.82806587 C108.8884628 717.82730806 107.62090257 717.82655024 106.31493143 717.82576947 C97.3620278 717.82101738 88.4091393 717.82288459 79.45623589 717.82713127 C68.55348606 717.83204662 57.65080581 717.82612422 46.74807196 717.80623697 C41.18031226 717.79633287 35.61265872 717.79129332 30.04489326 717.79912949 C24.9555474 717.80614603 19.8664165 717.79947686 14.77709914 717.78152586 C12.92858275 717.77745506 11.08004701 717.77852477 9.23153763 717.78504472 C6.7333063 717.79310723 4.23581488 717.78299131 1.7376318 717.76799679 C0.64220732 717.77810326 0.64220732 717.77810326 -0.47534695 717.78841391 C-2.48039061 717.76487821 -2.48039061 717.76487821 -5.66845703 717.38768005 C-7.84244187 714.1267028 -7.9187776 713.22930727 -7.92030603 709.45958376 C-7.92556929 708.43445092 -7.93083255 707.40931809 -7.93625531 706.35312063 C-7.93185882 705.2211696 -7.92746234 704.08921857 -7.92293262 702.922966 C-7.9261391 701.71996957 -7.92934558 700.51697314 -7.93264922 699.27752227 C-7.93955351 695.91750751 -7.93742484 692.5577121 -7.9315935 689.19770928 C-7.92744023 685.55021152 -7.93481542 681.90273465 -7.94074601 678.25524187 C-7.94953146 671.85565892 -7.95081183 665.45610795 -7.94724274 659.05652046 C-7.94194942 649.54034097 -7.94801715 640.02419261 -7.95632567 630.50801651 C-7.97159292 612.52631072 -7.97326797 594.54461897 -7.97080264 576.56290805 C-7.96897241 562.68142264 -7.97072391 548.79994186 -7.97502708 534.91845703 C-7.97562947 532.92652854 -7.97623067 530.93460006 -7.97683069 528.94267157 C-7.97773791 525.94130721 -7.97864657 522.93994285 -7.97956304 519.93857849 C-7.98799663 492.02173776 -7.99232543 464.10489877 -7.98815632 436.18805695 C-7.98799994 435.134917 -7.98784357 434.08177706 -7.98768245 432.99672379 C-7.98687663 427.65857361 -7.98603086 422.32042345 -7.98516915 416.98227328 C-7.98499806 415.92203379 -7.98482697 414.8617943 -7.9846507 413.76942634 C-7.98430405 411.62536351 -7.98395552 409.48130067 -7.98360512 407.33723784 C-7.97824623 373.96520683 -7.98618142 340.59320223 -8.00463867 307.22117615 C-8.02533444 269.75756921 -8.03608608 232.29397864 -8.03206319 194.83036566 C-8.03166782 190.83921147 -8.03130627 186.84805727 -8.03096581 182.85690308 C-8.03087507 181.87412485 -8.03078434 180.89134663 -8.03069086 179.87878725 C-8.02952279 165.01500983 -8.03618901 150.15124889 -8.04677773 135.28747559 C-8.05880083 118.39261277 -8.06042212 101.49778636 -8.04798756 84.60292304 C-8.04133448 75.13870326 -8.04304608 65.67457039 -8.05657607 56.21035748 C-8.06477607 49.89804887 -8.06218147 43.58580585 -8.05060081 37.27350265 C-8.04429985 33.67066642 -8.04285685 30.06800063 -8.05446414 26.46517378 C-8.06682149 22.59415973 -8.05625379 18.72341065 -8.04318714 14.8523941 C-8.05049649 13.72044308 -8.05780583 12.58849205 -8.06533667 11.42223948 C-8.05808234 10.39710665 -8.05082801 9.37197381 -8.04335386 8.31577635 C-8.04337432 7.42969772 -8.04339478 6.54361909 -8.04341586 5.63068959 C-7.25005344 0.88478332 -4.40699424 0.01283976 0 0 Z " fill="#000000" transform="translate(731.66845703125,249.61231994628906)"/>
<path d="M0 0 C184.12086093 0 184.12086093 0 221 33 C221.96292969 33.81984375 222.92585938 34.6396875 223.91796875 35.484375 C236.3056031 46.19458005 245.56492761 58.77520606 253.09521484 73.26367188 C253.87208479 74.7545243 254.67746404 76.23045962 255.48828125 77.703125 C265.01061774 95.50959942 267.90268541 115.67079446 269.6875 135.5 C269.74834778 136.17585144 269.80919556 136.85170288 269.87188721 137.54803467 C270.29639915 142.36194466 270.65458711 147.17982062 271 152 C271.09000275 153.22752991 271.18000549 154.45505981 271.2727356 155.7197876 C272.33478956 171.86227558 272.16471464 188.0451158 272.16725707 204.21426105 C272.16797585 206.79107433 272.17012558 209.36788253 272.17275429 211.94469452 C272.1819659 220.99308094 272.18609483 230.04145279 272.18530273 239.08984375 C272.18470445 247.42786912 272.1952181 255.76582928 272.2110464 264.10383821 C272.22427579 271.33946852 272.22948023 278.57507794 272.22884732 285.81072021 C272.22859662 290.09775713 272.23120293 294.38473606 272.24202538 298.67176056 C272.43943773 382.76192197 272.43943773 382.76192197 254 418 C253.68804688 418.60038086 253.37609375 419.20076172 253.0546875 419.81933594 C237.15429251 450.0850268 209.00971736 471.13273746 176.75390625 481.375 C121.05525292 497.83476035 51.47470452 488 0 488 C0 326.96 0 165.92 0 0 Z " fill="#FEFEFE" transform="translate(2101,363)"/>
<path d="M0 0 C16.38894328 14.03842378 28.181035 34.17754002 35.03955078 54.43847656 C35.68002414 56.30510415 36.36787656 58.15528124 37.05859375 60.00390625 C43.5751297 78.5829662 44.86293163 98.984436 46.47630882 118.50330734 C46.63828491 120.45060633 46.80378847 122.39761503 46.9727726 124.34431839 C48.46374893 141.63629442 49.00423101 158.7779531 48.94921875 176.12890625 C48.94802102 178.6855975 48.94757503 181.2422892 48.9478302 183.79898071 C48.94628327 189.10478073 48.93838876 194.41052819 48.92456055 199.71630859 C48.90879944 205.78481074 48.90356495 211.8532493 48.9042961 217.92177045 C48.90491344 223.85432446 48.89963358 229.78686085 48.89150429 235.71940994 C48.88836393 238.20286566 48.88636131 240.68632314 48.88561058 243.16978073 C48.87396809 261.5309208 48.55751072 279.87006391 46.90625 298.16796875 C46.78648804 299.52305542 46.78648804 299.52305542 46.66430664 300.90551758 C45.82258327 309.99027322 44.74764387 319.0479702 43.65625 328.10546875 C43.5683017 328.83882446 43.48035339 329.57218018 43.38973999 330.32775879 C43.13688771 332.42466302 42.87989328 334.52100977 42.62109375 336.6171875 C42.47148193 337.83237061 42.32187012 339.04755371 42.16772461 340.29956055 C41.81565435 342.74490771 41.38718585 345.04478235 40.71875 347.41796875 C36.19564648 345.93277058 32.8596864 343.38603484 29.21875 340.41796875 C27.96403787 339.4134424 26.70881892 338.4095488 25.453125 337.40625 C24.82470703 336.90174316 24.19628906 336.39723633 23.54882812 335.87744141 C20.88220578 333.75083143 18.17748319 331.67826838 15.46875 329.60546875 C5.3055044 321.8124389 -4.80703726 313.95204476 -14.8671875 306.02636719 C-16.00610241 305.13030913 -17.14669491 304.23637868 -18.2890625 303.34472656 C-21.15573297 301.10597749 -23.99016292 298.83872718 -26.7890625 296.515625 C-27.93228266 295.5872285 -29.07551151 294.65884268 -30.21875 293.73046875 C-31.71728516 292.48716797 -31.71728516 292.48716797 -33.24609375 291.21875 C-37.03362234 288.97158053 -38.94982194 288.60521764 -43.28125 289.41796875 C-45.55540035 291.44285499 -47.15579919 293.1623768 -48.96875 295.54296875 C-50.01377111 296.83768517 -51.0593599 298.13194355 -52.10546875 299.42578125 C-52.63188965 300.09125977 -53.15831055 300.75673828 -53.70068359 301.44238281 C-56.14890268 304.50246759 -58.71595965 307.45604473 -61.28125 310.41796875 C-62.28190759 311.58407144 -63.28190598 312.75074013 -64.28125 313.91796875 C-82.28125 334.91796875 -82.28125 334.91796875 -83.78320312 336.67016602 C-84.77680008 337.82941644 -85.77029078 338.98875795 -86.76367188 340.14819336 C-89.36074595 343.17910849 -91.95999713 346.20811944 -94.5625 349.234375 C-95.10132813 349.86150391 -95.64015625 350.48863281 -96.1953125 351.13476562 C-97.22066633 352.32806534 -98.24666414 353.52081213 -99.2734375 354.71289062 C-100.61580683 356.275898 -101.94881664 357.84649333 -103.28125 359.41796875 C-104.41820312 360.73667969 -104.41820312 360.73667969 -105.578125 362.08203125 C-107.79450692 365.12193122 -107.99110027 367.71855964 -108.28125 371.41796875 C-107.70761719 371.6809375 -107.13398438 371.94390625 -106.54296875 372.21484375 C-104.13502422 373.4957538 -102.20897549 374.94583826 -100.09375 376.66796875 C-99.21976563 377.37824219 -98.34578125 378.08851563 -97.4453125 378.8203125 C-96.3903837 379.68590392 -95.33572028 380.55181882 -94.28125 381.41796875 C-93.64928711 381.93504395 -93.01732422 382.45211914 -92.36621094 382.98486328 C-84.43477696 389.47541383 -76.54734162 396.0127728 -68.74291992 402.65551758 C-64.8495044 405.96078536 -60.87777359 409.15319032 -56.875 412.32421875 C-53.80044962 414.80608472 -50.78962375 417.35663821 -47.78125 419.91796875 C-39.8195618 426.68964546 -31.6947001 433.21363683 -23.28125 439.41796875 C-24.49540745 443.06044109 -25.88571898 443.54038077 -29.19262695 445.22192383 C-30.22649536 445.72115356 -30.22649536 445.72115356 -31.28125 446.23046875 C-31.99821045 446.57940186 -32.7151709 446.92833496 -33.45385742 447.2878418 C-65.21733194 462.39077472 -104.03147192 464.57870531 -137.49291992 453.49902344 C-173.93350586 440.47713112 -199.82139982 412.12784664 -216.17919922 377.85205078 C-224.49993258 359.47417936 -227.93053965 340.49063796 -229.96875 320.54296875 C-230.08831055 319.39401123 -230.20787109 318.24505371 -230.33105469 317.0612793 C-233.15847463 286.55177901 -232.46905661 255.71022846 -232.46655273 225.10888672 C-232.46647158 219.99589493 -232.47341113 214.88299294 -232.48706055 209.77001953 C-232.67471069 138.39588104 -232.67471069 138.39588104 -228.56103516 103.90771484 C-228.23473833 101.00407173 -227.96739656 98.09707566 -227.69921875 95.1875 C-225.1791136 69.07614436 -218.38205952 42.66302031 -202.28125 21.41796875 C-201.74242187 20.66 -201.20359375 19.90203125 -200.6484375 19.12109375 C-182.63024917 -5.42542368 -153.02264549 -25.12368362 -123.27392578 -31.17529297 C-121.58315676 -31.52040706 -119.89821415 -31.893875 -118.21484375 -32.2734375 C-75.95561943 -40.49530019 -32.86946298 -26.22844834 0 0 Z " fill="#FEFEFE" transform="translate(417.28125,398.58203125)"/>
<path d="M0 0 C1.57201172 0.00845947 1.57201172 0.00845947 3.17578125 0.01708984 C27.07949531 0.38783234 48.33102009 8.16092179 65.3125 25.3125 C82.88366511 44.11332308 90.43473821 71.34022664 90.47363281 96.63012695 C90.47859772 97.42007553 90.48356262 98.21002411 90.48867798 99.02391052 C90.50318048 101.61620996 90.51008482 104.20844804 90.515625 106.80078125 C90.51986607 108.14430696 90.51986607 108.14430696 90.52419281 109.51497459 C90.53914399 114.26364811 90.54839671 119.01229162 90.55273438 123.76098633 C90.55818498 128.61070937 90.58215206 133.46014684 90.61070633 138.30978107 C90.62955179 142.08587886 90.63454999 145.86191119 90.63607025 149.63805199 C90.63905284 151.42261487 90.64692769 153.20717789 90.66025543 154.9916935 C90.86767128 184.92175161 84.68933036 215.24027837 63.94140625 237.90234375 C46.58307842 254.57659955 22.51375625 260.7211237 -0.99365234 260.61547852 C-24.8580602 260.0308571 -47.10254914 253.35229825 -64.5859375 236.48046875 C-85.59388682 213.90405262 -88.82803738 182.8564978 -88.890625 153.48046875 C-88.89345238 152.57808283 -88.89627975 151.67569691 -88.89919281 150.74596596 C-88.91412373 145.9625584 -88.9233895 141.17918048 -88.92773438 136.39575195 C-88.93318509 131.51938014 -88.95715844 126.64329231 -88.98570633 121.76700878 C-89.00457784 117.96166767 -89.0095513 114.15639135 -89.01107025 110.35100746 C-89.01404655 108.55693334 -89.02189845 106.76285889 -89.03525543 104.96883202 C-89.1504808 88.29151684 -88.16408757 71.0660556 -82.4375 55.25 C-82.13376465 54.38205811 -81.8300293 53.51411621 -81.51708984 52.61987305 C-77.33693626 41.08726264 -71.36525643 32.03335787 -62.6875 23.3125 C-61.95015625 22.54035156 -61.2128125 21.76820313 -60.453125 20.97265625 C-44.82680108 5.63473763 -21.3455244 -0.12159723 0 0 Z " fill="#FEFEFE" transform="translate(1670.6875,599.6875)"/>
<path d="M0 0 C0.900103 -0.00845947 1.80020599 -0.01691895 2.72758484 -0.02563477 C3.7126149 -0.01956207 4.69764496 -0.01348938 5.71252441 -0.00723267 C7.27140129 -0.0151181 7.27140129 -0.0151181 8.86177063 -0.02316284 C12.30501227 -0.03639174 15.7477935 -0.02761429 19.19104004 -0.01748657 C21.57853281 -0.01950647 23.96602497 -0.0224172 26.35351562 -0.02618408 C31.36045193 -0.03061136 36.36722783 -0.02416323 41.37414551 -0.01016235 C47.80060341 0.00692956 54.22668547 -0.00290943 60.65312958 -0.02087975 C65.58411505 -0.03170656 70.51501102 -0.02827627 75.44599915 -0.02049637 C77.81594385 -0.01849132 80.18589661 -0.02096427 82.55583191 -0.02793503 C85.86479295 -0.03553121 89.17314046 -0.02397051 92.48205566 -0.00723267 C93.46708572 -0.01330536 94.45211578 -0.01937805 95.46699524 -0.02563477 C96.36709824 -0.01717529 97.26720123 -0.00871582 98.19458008 0 C99.36816952 0.00169662 99.36816952 0.00169662 100.56546783 0.00342751 C103.18677534 0.49048045 104.05703204 1.21983569 105.59729004 3.38095093 C105.97202015 5.41277313 105.97202015 5.41277313 105.97151184 7.78366089 C105.97852615 8.68376389 105.98554047 9.58386688 105.99276733 10.51124573 C105.9851236 11.49627579 105.97747986 12.48130585 105.96960449 13.4961853 C105.97325516 14.53543655 105.97690582 15.57468781 105.98066711 16.64543152 C105.98878848 20.08868635 105.97514899 23.53147293 105.96057129 26.97470093 C105.96005287 29.36219279 105.96056985 31.74968508 105.96208191 34.13717651 C105.96199211 39.14411785 105.9515477 44.15089841 105.93347168 49.1578064 C105.91078441 55.5842031 105.91023969 62.01036474 105.91698933 68.43679047 C105.92032666 73.36776834 105.91370364 78.29869237 105.90386009 83.22966003 C105.90000374 85.59960142 105.89886167 87.9695488 105.90044594 90.3394928 C105.90081572 93.64835068 105.88822064 96.95690426 105.87194824 100.26571655 C105.87442566 101.25074661 105.87690308 102.23577667 105.87945557 103.25065613 C105.87237076 104.15075912 105.86528595 105.05086212 105.85798645 105.97824097 C105.85490715 107.15183041 105.85490715 107.15183041 105.85176563 108.34912872 C105.59729004 110.38095093 105.59729004 110.38095093 103.59729004 113.38095093 C101.65448761 113.75847435 101.65448761 113.75847435 99.23217773 113.76190186 C97.85667503 113.77459106 97.85667503 113.77459106 96.4533844 113.78753662 C95.44448654 113.78146393 94.43558868 113.77539124 93.39611816 113.76913452 C91.80579018 113.77701996 91.80579018 113.77701996 90.18333435 113.7850647 C86.66492145 113.79831122 83.14695785 113.78950995 79.62854004 113.77938843 C77.19238192 113.78140782 74.7562244 113.78431812 72.32006836 113.78808594 C67.20880389 113.79251561 62.09769645 113.78605744 56.9864502 113.77206421 C50.42198437 113.75497216 43.85788646 113.76480988 37.29343414 113.7827816 C32.2612631 113.79360199 27.22917985 113.7901811 22.19700623 113.78239822 C19.77599545 113.78039139 17.35497681 113.78287232 14.93397522 113.78983688 C11.5552548 113.79742256 8.17713722 113.78588725 4.79846191 113.76913452 C3.78956406 113.77520721 2.7806662 113.78127991 1.74119568 113.78753662 C0.82419388 113.77907715 -0.09280792 113.77061768 -1.03759766 113.76190186 C-1.83695992 113.76077078 -2.63632217 113.7596397 -3.45990753 113.75847435 C-4.10103233 113.63389162 -4.74215714 113.50930889 -5.40270996 113.38095093 C-7.49120089 110.24821453 -7.6540566 109.54164017 -7.66340637 105.97824097 C-7.67049118 105.07813797 -7.67757599 104.17803497 -7.68487549 103.25065613 C-7.68239807 102.26562607 -7.67992065 101.28059601 -7.67736816 100.26571655 C-7.6824791 99.2264653 -7.68759003 98.18721405 -7.69285583 97.11647034 C-7.70678228 93.67332234 -7.70579292 90.23037378 -7.70349121 86.78720093 C-7.70737612 84.3997083 -7.71171036 82.01221637 -7.71647644 79.62472534 C-7.72394498 74.61782593 -7.72364251 69.61099703 -7.71838379 64.60409546 C-7.71258476 58.17765563 -7.72952779 51.7515036 -7.75272846 45.32511139 C-7.76743578 40.39413761 -7.76834166 35.46323365 -7.76521873 30.53224182 C-7.76573334 28.16229176 -7.77099702 25.79233793 -7.78103065 23.42240906 C-7.79332106 20.11347554 -7.78664795 16.80510925 -7.77502441 13.4961853 C-7.78266815 12.51115524 -7.79031189 11.52612518 -7.79818726 10.51124573 C-7.79117294 9.61114273 -7.78415863 8.71103973 -7.77693176 7.78366089 C-7.7770995 7.00126793 -7.77726725 6.21887497 -7.77744007 5.41277313 C-6.94785219 0.91466894 -4.21891151 0.00609913 0 0 Z " fill="#000000" transform="translate(1285.4027099609375,853.6190490722656)"/>
</svg>
