<?xml version="1.0" encoding="utf-8"?>
<svg viewBox="0 0 323.14914 200" xmlns="http://www.w3.org/2000/svg">
  <g id="layer1" transform="matrix(0.9999999999999999, 0, 0, 0.9999999999999999, -303.4596862792969, -22.960700988769517)">
    <path id="rect15575" style="opacity:1;fill:#0a9646;fill-opacity:1;fill-rule:evenodd;stroke-width:0.0420687;stroke-linecap:square;stroke-miterlimit:10;paint-order:stroke fill markers" d="M 303.45966,22.960701 H 626.6088 V 222.9607 H 303.45966 Z"/>
    <path transform="matrix(0.26458333,0,0,0.26458333,303.45966,22.960701)" d="m 30.353516,5.0117188 c -13.808655,0 -25.0781254,11.2674112 -25.0781254,25.0761722 v 332.957029 47.1211 49.04296 13.88672 252.45508 c 0,13.80862 11.2694704,25.06641 25.0781254,25.06641 H 1190.9805 c 13.8086,0 25.0781,-11.25779 25.0781,-25.06641 V 473.0957 459.57031 401.94727 363.04492 30.087891 c 0,-13.808761 -11.2695,-25.0761722 -25.0781,-25.0761722 z m 0,9.4511722 H 1190.9805 c 8.7398,0 15.6425,6.885058 15.6425,15.625 v 332.957029 38.90235 c 0,0.29959 -0.013,0.61475 -0.037,0.9375 v 7.20703 c 0,8.68754 -6.9941,15.68164 -15.6816,15.68164 h -8.0762 c -0.1869,0.007 -0.3766,0.0176 -0.5586,0.0176 H 38.023438 c -0.18105,0 -0.371847,-0.0102 -0.560547,-0.0176 h -7.097657 c -8.687546,0 -15.68164,-6.9941 -15.68164,-15.68164 V 30.152344 c 0,-1.658433 0.257595,-3.253829 0.730468,-4.751953 0.01365,-0.04461 0.03284,-0.08643 0.04688,-0.13086 1.99686,-6.321925 7.84094,-10.80664 14.892578,-10.80664 z M 30.28125,435.30469 h 6.958984 1145.628866 8.1172 c 8.6414,0 15.5996,6.95633 15.5996,15.59765 v 7.5918 c 0.024,0.37296 0.037,0.7339 0.037,1.07617 v 13.52539 252.45508 c 0,5.47634 -2.7106,10.22208 -6.8847,13.00391 -2.4923,1.6862 -5.5034,2.66992 -8.752,2.66992 H 30.28125 c -8.641361,0 -15.597656,-6.9563 -15.597656,-15.59766 V 450.90234 c 0,-8.64132 6.956295,-15.59765 15.597656,-15.59765 z" style="color:#000000;font-style:normal;font-variant:normal;font-weight:normal;font-stretch:normal;font-size:medium;line-height:normal;font-family:sans-serif;font-variant-ligatures:normal;font-variant-position:normal;font-variant-caps:normal;font-variant-numeric:normal;font-variant-alternates:normal;font-variant-east-asian:normal;font-feature-settings:normal;font-variation-settings:normal;text-indent:0;text-align:start;text-decoration:none;text-decoration-line:none;text-decoration-style:solid;text-decoration-color:#000000;letter-spacing:normal;word-spacing:normal;text-transform:none;writing-mode:lr-tb;direction:ltr;text-orientation:mixed;dominant-baseline:auto;baseline-shift:baseline;text-anchor:start;white-space:normal;shape-padding:0;shape-margin:0;inline-size:0;clip-rule:nonzero;display:inline;overflow:visible;visibility:visible;opacity:1;isolation:auto;mix-blend-mode:normal;color-interpolation:sRGB;color-interpolation-filters:linearRGB;solid-color:#000000;solid-opacity:1;vector-effect:none;fill:#ffffff;fill-opacity:1;fill-rule:evenodd;stroke:none;stroke-width:2.09199;stroke-linecap:square;stroke-linejoin:miter;stroke-miterlimit:10;stroke-dasharray:none;stroke-dashoffset:0;stroke-opacity:1;paint-order:stroke fill markers;color-rendering:auto;image-rendering:auto;shape-rendering:auto;text-rendering:auto;enable-background:accumulate;stop-color:#000000;stop-opacity:1" id="path15582"/>
    <path d="m 324.12038,67.193614 h 60.89334 v 27.821331 h -60.89334 z" style="opacity: 1; fill: rgb(255, 215, 15); fill-opacity: 1; fill-rule: evenodd; stroke: none; stroke-width: 0.553508; stroke-linecap: square; stroke-miterlimit: 10; stroke-dasharray: none; stroke-opacity: 1; paint-order: stroke; visibility: hidden;" id="rect15605"/>
    <path id="path15631" d="m 326.18273,67.759747 c -0.81115,0 -1.47443,0.660164 -1.47443,1.471307 v 23.746432 c 0,0.811142 0.66328,1.471323 1.47443,1.471323 h 56.7905 c 0.81117,0 1.4744,-0.660181 1.4744,-1.471323 V 69.231054 c 0,-0.811143 -0.66328,-1.471307 -1.4744,-1.471307 z m 0,0.535017 h 56.7905 c 0.52266,0 0.93627,0.413622 0.93627,0.93629 v 23.746432 c 0,0.522654 -0.41353,0.933189 -0.93627,0.933189 h -56.7905 c -0.52266,0 -0.93628,-0.410555 -0.93628,-0.933189 V 69.231054 c 0,-0.522672 0.41354,-0.93629 0.93628,-0.93629 z" style="color: rgb(0, 0, 0); font-style: normal; font-weight: normal; font-stretch: normal; font-size: medium; line-height: normal; font-family: sans-serif; font-variant: normal; font-feature-settings: normal; font-variation-settings: normal; text-indent: 0px; text-align: start; text-decoration: none solid rgb(0, 0, 0); letter-spacing: normal; word-spacing: normal; text-transform: none; writing-mode: lr-tb; direction: ltr; text-orientation: mixed; dominant-baseline: auto; baseline-shift: baseline; text-anchor: start; white-space: normal; shape-margin: 0px; inline-size: 0px; clip-rule: nonzero; display: inline; overflow: visible; opacity: 1; isolation: auto; mix-blend-mode: normal; color-interpolation: srgb; color-interpolation-filters: linearrgb; vector-effect: none; fill: rgb(0, 0, 0); fill-opacity: 1; fill-rule: evenodd; stroke: none; stroke-width: 0.119062; stroke-linecap: square; stroke-linejoin: miter; stroke-miterlimit: 10; stroke-dasharray: none; stroke-dashoffset: 0; stroke-opacity: 1; paint-order: stroke; color-rendering: auto; image-rendering: auto; shape-rendering: auto; text-rendering: auto; stop-color: rgb(0, 0, 0); stop-opacity: 1; visibility: hidden;"/>
    <path d="m 336.88947,72.205604 c -1.36961,0 -2.51552,0.330332 -3.43646,0.991507 -0.91309,0.653335 -1.5737,1.361798 -1.98303,2.125328 -0.14189,0.267612 -0.264,0.538688 -0.36613,0.814199 -0.10264,0.275473 -0.18065,0.564078 -0.23555,0.86321 -0.0552,0.299089 -0.0954,0.774434 -0.11873,1.427765 -0.0223,0.653332 -0.0362,1.495435 -0.0362,2.5266 0,2.062321 0.0516,3.383536 0.15387,3.966025 0.0552,0.299136 0.13326,0.587702 0.23556,0.863193 0.10264,0.267612 0.22467,0.534915 0.36612,0.802543 0.40948,0.771411 1.06995,1.479875 1.983,2.125324 0.92887,0.653346 2.07472,0.979855 3.43649,0.979855 0.74779,0 1.44489,-0.107189 2.09034,-0.319632 0.64544,-0.212556 1.24303,-0.525333 1.79403,-0.942508 1.1335,-0.865864 1.86473,-2.103628 2.19533,-3.709419 0.0139,-0.04714 0.009,-0.08518 -0.0223,-0.116745 -0.0315,-0.03928 -0.0694,-0.05829 -0.11656,-0.05829 h -2.70394 c -0.0223,1.5e-5 -0.0488,0.01117 -0.0722,0.03521 -0.0223,0.01589 -0.0451,0.0307 -0.0582,0.0467 -0.70836,1.487712 -1.74338,2.232636 -3.10515,2.232636 -0.59037,0 -1.09454,-0.11468 -1.51174,-0.342928 -0.41713,-0.236167 -0.75132,-0.520933 -1.00317,-0.851551 -0.14189,-0.181028 -0.27124,-0.389065 -0.3896,-0.625222 -0.11008,-0.244 -0.19597,-0.488524 -0.25924,-0.732545 -0.0628,-0.267611 -0.10709,-0.67614 -0.13048,-1.227141 -0.0223,-0.558871 -0.0359,-1.267326 -0.0359,-2.125325 0,-0.842249 0.009,-1.543133 0.0359,-2.102004 0.0223,-0.55887 0.0677,-0.97117 0.13048,-1.238798 0.0627,-0.251917 0.14857,-0.496392 0.25924,-0.732549 0.11009,-0.244 0.24028,-0.45965 0.3896,-0.64857 0.252,-0.30699 0.58598,-0.580386 1.00317,-0.816526 0.41715,-0.236167 0.92137,-0.352269 1.51174,-0.352269 0.79503,1.7e-5 1.45185,0.230844 1.97135,0.695231 0.27541,0.236167 0.50863,0.492045 0.69757,0.767539 0.18872,0.267667 0.33407,0.560022 0.4361,0.874867 0.0167,0.06294 0.0599,0.09333 0.13046,0.09333 h 2.7039 c 0.0468,0 0.0854,-0.01589 0.11658,-0.0467 0.0315,-0.03161 0.0407,-0.07184 0.0223,-0.118954 -0.25952,-1.393235 -0.93175,-2.595995 -2.01801,-3.611427 -1.07052,-1.007535 -2.42438,-1.511744 -4.0617,-1.511744 z m 27.73422,0.104956 c -1.28304,0 -2.4213,0.437369 -3.41313,1.311121 -0.99967,0.858 -1.50005,2.08205 -1.50005,3.672071 v 7.425818 c 0,1.590021 0.50038,2.814088 1.50005,3.672088 0.99183,0.865851 2.13009,1.299446 3.41313,1.299446 1.28303,0 2.42133,-0.433578 3.41313,-1.299446 1.00756,-0.86587 1.50938,-2.089917 1.50938,-3.672088 v -7.425818 c 0,-0.787127 -0.1299,-1.484222 -0.38959,-2.09033 -0.252,-0.613979 -0.62389,-1.140934 -1.11979,-1.581741 -0.49592,-0.425045 -1.03279,-0.74779 -1.6074,-0.968177 -0.56674,-0.22825 -1.16816,-0.342924 -1.80573,-0.342924 z m -21.12261,0.03521 c -0.0943,0 -0.14217,0.04776 -0.14217,0.142392 v 2.279298 c 0,0.09444 0.0479,0.142197 0.14217,0.142197 h 4.49793 V 89.409 c 0,0.09444 0.0479,0.139995 0.14217,0.139995 h 2.5616 c 0.0945,0 0.14217,-0.04555 0.14217,-0.139995 V 74.909653 h 4.48625 c 0.0943,0 0.14217,-0.04778 0.14217,-0.142196 v -2.279299 c 0,-0.09444 -0.0479,-0.142392 -0.14217,-0.142392 z m 31.22667,0.118953 -2.43331,1.759064 c -0.0139,0.01589 -0.0315,0.03477 -0.0466,0.05829 -0.009,0.02341 -0.0139,0.04468 -0.0139,0.06068 v 2.561593 c 0,0.06294 0.0278,0.110694 0.0728,0.142196 0.0468,0.02343 0.0989,0.01617 0.15388,-0.02343 0.36208,-0.259778 0.7228,-0.523245 1.08486,-0.790886 0.36206,-0.275473 0.72509,-0.548889 1.08714,-0.816528 v 14.028096 c 0,0.09444 0.048,0.142198 0.14217,0.142198 h 2.41929 c 0.0943,0 0.13994,-0.04778 0.13994,-0.142198 V 72.606811 c 0,-0.09444 -0.0455,-0.142197 -0.13994,-0.142197 z m -10.10406,2.538257 c 0.67694,0 1.21532,0.217964 1.61673,0.650912 0.40948,0.425045 0.61359,1.018854 0.61359,1.782378 v 7.143522 c 0,0.771407 -0.20461,1.368982 -0.61359,1.794059 -0.40133,0.425045 -0.93979,0.63689 -1.61673,0.63689 -0.67695,0 -1.21527,-0.211859 -1.61671,-0.63689 -0.40134,-0.425091 -0.60428,-1.022652 -0.60428,-1.794059 v -7.143497 c 0,-0.763524 0.20266,-1.357335 0.60428,-1.782377 0.40133,-0.432946 0.93976,-0.650913 1.61671,-0.650913 z m -9.98507,11.865445 c -0.0945,0 -0.14217,0.04776 -0.14217,0.14239 v 2.398281 c 0,0.09444 0.0479,0.139994 0.14217,0.139994 h 2.40762 c 0.0867,0 0.13046,-0.04555 0.13046,-0.139994 v -2.398281 c 0,-0.09444 -0.0451,-0.14239 -0.13046,-0.14239 z" style="font-style: normal; font-variant: normal; font-weight: normal; font-stretch: normal; font-size: 15.1831px; line-height: 1.46; font-family: 'Alte DIN 1451 Mittelschrift gepraegt'; text-align: center; text-anchor: middle; opacity: 1; fill-opacity: 1; stroke-width: 0.264584; visibility: hidden;" id="path15637"/>
    <path id="path17496" style="font-size: 15.1831px; line-height: 1.46; font-family: 'Singapore Road Signs'; text-align: center; text-anchor: middle; opacity: 1; fill: rgb(255, 255, 255); fill-opacity: 1; stroke-width: 0.0756548; visibility: hidden;" d="m 570.47468,59.120043 v 50.614317 h 35.43541 V 59.120043 Z m 1.38203,1.660034 h 32.65274 v 47.566083 h -32.65274 z m 13.66823,3.646909 -2.23483,8.869719 h 3.92184 l 0.28216,-8.869719 z m 3.35329,0 0.28216,8.869719 h 3.92385 l -2.23686,-8.869719 z m -15.90932,9.992316 v 1.942234 l 3.06692,1.10806 v 0.584703 h 1.411 v -0.584703 c 0,0 2.08662,-0.313671 4.52568,-0.535349 1.95306,-0.177516 4.1317,-0.271988 5.64407,-0.278037 1.79866,-0.0063 4.45804,0.09363 6.73975,0.288436 2.51319,0.214479 4.5713,0.524984 4.5713,0.524984 v 0.5847 h 1.38199 v -0.5847 l 3.06685,-1.108064 v -1.942233 z m 9.21108,3.620663 -6.70448,26.681115 h 10.04943 l 1.39442,-26.681115 z m 7.25642,0 1.39441,26.681115 h 10.0494 l -6.70443,-26.681115 z"/>
    <g style="font-size: 14.7905px; line-height: 0; font-family: 'Singapore Road Signs'; text-align: center; text-anchor: middle; opacity: 1; fill: rgb(134, 0, 0); fill-opacity: 1; stroke-width: 6.45213; visibility: hidden;" id="layer1-8" transform="matrix(0.08718024,0,0,0.08718024,-145.22047,195.49013)">
      <circle style="opacity:1;fill:#f00a0a;fill-opacity:1;fill-rule:nonzero;stroke:none;stroke-width:3622.55;stroke-linecap:round;stroke-linejoin:round;stroke-miterlimit:4;stroke-dasharray:none;stroke-opacity:1;paint-order:stroke fill markers" id="path815" cx="6380.9966" cy="-193.29752" r="350"/>
      <circle cy="-193.29752" cx="6380.9966" id="circle817" style="opacity:1;fill:#ffffff;fill-opacity:1;fill-rule:nonzero;stroke:none;stroke-width:2587.55;stroke-linecap:round;stroke-linejoin:round;stroke-miterlimit:4;stroke-dasharray:none;stroke-opacity:1;paint-order:stroke fill markers" r="250"/>
      <g aria-label="20 " style="font-style:normal;font-variant:normal;font-weight:bold;font-stretch:normal;font-size:414.864px;line-height:0;font-family:Giaothong1;-inkscape-font-specification:'Giaothong1 Bold';letter-spacing:0px;word-spacing:0px;fill:#000000;fill-opacity:1;stroke:none;stroke-width:24.7849" id="text874" transform="matrix(-1,0,0,1,1299.029,-383.45)">
        <g aria-label="90" transform="translate(2310.2259,387.54849)" style="font-style:normal;font-variant:normal;font-weight:bold;font-stretch:normal;font-size:414.864px;line-height:0;font-family:Giaothong1;-inkscape-font-specification:'Giaothong1 Bold';letter-spacing:0px;word-spacing:0px;fill:#000000;fill-opacity:1;stroke:none;stroke-width:53.5539" id="text844"/>
      </g>
    </g>
    <g style="font-size: 14.7905px; line-height: 0; font-family: 'Singapore Road Signs'; text-align: center; text-anchor: middle; opacity: 1; fill: rgb(255, 240, 0); fill-opacity: 1; stroke-width: 6.45221; visibility: hidden;" id="layer1-7" transform="matrix(0.08717968,0,0,0.08717968,488.77841,183.34565)">
      <circle cy="-54" cx="351" id="circle817-6" style="opacity:1;fill:#0046aa;fill-opacity:1;fill-rule:nonzero;stroke:none;stroke-width:3622.58;stroke-linecap:round;stroke-linejoin:round;stroke-miterlimit:4;stroke-dasharray:none;stroke-opacity:1;paint-order:stroke fill markers" r="350"/>
      <path id="rect984" style="font-style:normal;font-variant:normal;font-weight:bold;font-stretch:normal;font-size:414.864px;line-height:0;font-family:Giaothong1;-inkscape-font-specification:'Giaothong1 Bold';letter-spacing:0px;word-spacing:0px;opacity:1;fill:#ffffff;fill-opacity:1;fill-rule:nonzero;stroke:none;stroke-width:0.344279;stroke-linecap:round;stroke-linejoin:miter;stroke-miterlimit:10;stroke-dasharray:none;stroke-opacity:1;paint-order:stroke fill markers" d="m 851.18164,518.03906 c -16.32678,0 -29.4707,13.14393 -29.4707,29.47071 v 80.94921 c 0,16.32678 13.14392,29.47071 29.4707,29.47071 16.32678,0 29.4707,-13.14393 29.4707,-29.47071 v -80.94921 c 0,-16.32678 -13.14392,-29.47071 -29.4707,-29.47071 z m -69.94336,1.23828 -26.10937,69.75391 c -2.72781,7.40406 -3.70118,11.30112 -3.70118,28.44727 0,18.12042 0.7789,22.01697 4.67579,28.25195 5.26075,8.37828 14.22308,13.44336 24.93945,13.44336 10.91123,0 20.0688,-4.87023 25.13476,-13.44336 3.70197,-6.23498 4.48047,-10.13153 4.48047,-28.25195 0,-22.01726 -0.77798,-26.88814 -4.28515,-32.34375 -3.31232,-5.06591 -9.74347,-8.96289 -16.75782,-8.96289 -4.28653,0 -7.01308,0.77773 -8.37695,1.75195 l -0.39062,-0.38867 22.60156,-58.25782 z m 69.94336,18.74024 c 5.25853,0 9.49219,4.23365 9.49219,9.49219 v 80.94921 c 0,5.25853 -4.23366,9.49219 -9.49219,9.49219 -5.25853,0 -9.49219,-4.23366 -9.49219,-9.49219 v -80.94921 c 0,-5.25854 4.23366,-9.49219 9.49219,-9.49219 z m -70.13867,55.68945 c 5.0659,0 9.74219,3.89738 9.74219,9.9375 v 25.71875 c 0,6.04012 -4.67629,9.9375 -9.74219,9.9375 -5.0659,0 -9.74219,-3.89738 -9.74219,-9.9375 v -25.71875 c 0,-6.04012 4.67629,-9.9375 9.74219,-9.9375 z" transform="matrix(3.0349198,0,0,3.0349198,-2125.7104,-1839.7056)"/>
    </g>
    <g aria-label="6" id="text19759" style="font-size: 31.1478px; line-height: 1.3; font-family: 'Singapore Road Signs'; text-align: center; text-anchor: middle; stroke-width: 0.159861; visibility: hidden;" transform="matrix(1.6550836,0,0,1.6550836,-321.31659,-238.56049)"/>
    <path d="M 368.126 46.797 Q 368.021 46.797 368.021 46.691 L 368.021 34.097 Q 368.021 33.991 368.126 33.991 L 373.013 33.991 Q 374.867 33.991 375.861 34.984 Q 376.845 35.96 376.845 37.48 Q 376.845 38.315 376.458 39.027 Q 376.107 39.695 375.149 40.187 Q 376.036 40.469 376.52 41.268 Q 376.775 41.708 376.911 42.169 Q 377.047 42.631 377.047 43.123 Q 377.047 44.802 375.966 45.804 Q 374.894 46.797 373.444 46.797 Z M 370.139 41.207 L 370.139 44.793 L 372.978 44.793 Q 373.971 44.793 374.454 44.257 Q 374.929 43.721 374.929 43 Q 374.929 42.297 374.454 41.752 Q 373.997 41.207 372.978 41.207 Z M 370.139 35.898 L 370.139 39.3 L 372.802 39.3 Q 373.795 39.3 374.252 38.808 Q 374.727 38.324 374.727 37.603 Q 374.727 36.892 374.252 36.408 Q 373.778 35.898 372.802 35.898 Z M 377.857 46.788 Q 377.796 46.788 377.769 46.744 Q 377.743 46.7 377.761 46.647 L 382.366 34.044 Q 382.384 33.974 382.454 33.974 L 384.027 33.974 Q 384.054 33.974 384.084 33.996 Q 384.115 34.017 384.124 34.044 L 388.721 46.647 Q 388.738 46.7 388.712 46.744 Q 388.685 46.788 388.633 46.788 L 386.62 46.788 Q 386.55 46.788 386.532 46.718 L 385.583 43.94 L 380.942 43.94 Q 380.696 44.652 380.454 45.333 Q 380.213 46.015 379.967 46.718 Q 379.958 46.744 379.927 46.766 Q 379.896 46.788 379.87 46.788 Z M 384.95 42.051 Q 384.933 41.989 384.902 41.919 Q 384.871 41.849 384.853 41.796 Q 384.704 41.365 384.581 41 Q 384.458 40.636 384.361 40.363 Q 384.3 40.187 384.243 40.02 Q 384.185 39.853 384.133 39.704 Q 384.089 39.563 384.045 39.436 Q 384.001 39.309 383.957 39.185 Q 383.878 38.931 383.794 38.676 Q 383.711 38.421 383.623 38.148 Q 383.579 38.025 383.531 37.876 Q 383.482 37.726 383.43 37.559 Q 383.403 37.472 383.39 37.423 Q 383.377 37.375 383.359 37.327 Q 383.342 37.278 383.32 37.217 Q 383.298 37.155 383.263 37.041 Q 383.166 37.331 383.082 37.577 Q 382.999 37.823 382.929 38.034 Q 382.911 38.087 382.902 38.131 Q 382.893 38.175 382.876 38.219 Q 382.832 38.368 382.784 38.5 Q 382.735 38.632 382.691 38.764 Q 382.647 38.904 382.603 39.036 Q 382.559 39.168 382.516 39.291 Q 382.428 39.555 382.335 39.845 Q 382.243 40.135 382.129 40.451 Q 382.015 40.767 381.892 41.132 Q 381.768 41.497 381.575 42.051 Z M 382.603 30.185 Q 382.533 30.185 382.511 30.137 Q 382.489 30.089 382.516 30.027 L 384.352 27.461 Q 384.388 27.408 384.44 27.408 L 386.374 27.408 Q 386.444 27.408 386.475 27.47 Q 386.506 27.531 386.453 27.584 L 384.027 30.15 Q 384.018 30.159 383.992 30.172 Q 383.966 30.185 383.948 30.185 Z M 381.751 30.449 Q 381.962 31.495 383.245 31.504 Q 384.581 31.486 384.642 30.449 L 385.908 30.449 Q 385.908 31.02 385.702 31.412 Q 385.495 31.803 385.135 32.163 Q 384.423 32.84 383.289 32.857 Q 382.085 32.84 381.32 32.181 Q 380.969 31.829 380.775 31.495 Q 380.582 31.161 380.573 30.449 Z M 398.801 43.07 Q 398.854 43.07 398.889 43.11 Q 398.924 43.149 398.906 43.202 Q 398.537 44.995 397.272 45.962 Q 396.656 46.428 395.936 46.665 Q 395.215 46.902 394.38 46.902 Q 392.859 46.902 391.822 46.173 Q 390.803 45.452 390.346 44.591 Q 390.188 44.292 390.073 43.989 Q 389.959 43.685 389.898 43.351 Q 389.783 42.701 389.783 40.398 Q 389.783 39.247 389.81 38.517 Q 389.836 37.788 389.898 37.454 Q 389.959 37.12 390.073 36.812 Q 390.188 36.505 390.346 36.206 Q 390.803 35.353 391.822 34.624 Q 392.851 33.886 394.38 33.886 Q 396.208 33.886 397.403 35.011 Q 398.616 36.144 398.906 37.7 Q 398.924 37.753 398.889 37.788 Q 398.854 37.823 398.801 37.823 L 396.788 37.823 Q 396.709 37.823 396.691 37.753 Q 396.577 37.401 396.366 37.098 Q 396.155 36.795 395.848 36.531 Q 395.268 36.013 394.38 36.013 Q 393.721 36.013 393.255 36.276 Q 392.789 36.54 392.508 36.883 Q 392.341 37.094 392.218 37.362 Q 392.095 37.63 392.025 37.911 Q 391.954 38.21 391.928 38.834 Q 391.901 39.458 391.901 40.398 Q 391.901 41.356 391.928 41.976 Q 391.954 42.596 392.025 42.894 Q 392.095 43.167 392.222 43.435 Q 392.35 43.703 392.508 43.905 Q 392.789 44.274 393.255 44.534 Q 393.721 44.793 394.38 44.793 Q 395.9 44.793 396.691 43.132 Q 396.709 43.114 396.735 43.092 Q 396.762 43.07 396.788 43.07 Z M 408.72 41.673 Q 408.614 41.673 408.614 41.567 L 408.614 39.757 Q 408.614 39.66 408.72 39.66 L 413.194 39.66 Q 413.299 39.66 413.299 39.757 L 413.299 42.323 Q 413.299 44.266 411.963 45.575 Q 410.61 46.902 408.702 46.902 Q 407.182 46.902 406.145 46.173 Q 405.125 45.452 404.668 44.591 L 404.677 44.591 Q 404.51 44.292 404.396 43.989 Q 404.281 43.685 404.22 43.351 Q 404.167 43.017 404.136 42.284 Q 404.106 41.55 404.106 40.398 Q 404.106 39.247 404.136 38.517 Q 404.167 37.788 404.22 37.454 Q 404.281 37.12 404.396 36.812 Q 404.51 36.505 404.677 36.206 L 404.668 36.206 Q 405.125 35.353 406.145 34.624 Q 407.173 33.886 408.702 33.886 Q 410.53 33.886 411.726 35.011 Q 412.939 36.136 413.229 37.7 Q 413.246 37.753 413.211 37.788 Q 413.176 37.823 413.123 37.823 L 411.111 37.823 Q 411.031 37.823 411.014 37.753 Q 410.9 37.401 410.689 37.098 Q 410.478 36.795 410.17 36.531 Q 409.59 36.013 408.702 36.013 Q 408.043 36.013 407.577 36.276 Q 407.111 36.54 406.83 36.883 Q 406.663 37.094 406.54 37.362 Q 406.417 37.63 406.347 37.911 Q 406.277 38.21 406.25 38.834 Q 406.224 39.458 406.224 40.398 Q 406.224 41.356 406.25 41.976 Q 406.277 42.596 406.347 42.894 Q 406.417 43.167 406.545 43.435 Q 406.672 43.703 406.83 43.905 Q 407.111 44.274 407.577 44.534 Q 408.043 44.793 408.702 44.793 Q 409.748 44.793 410.46 44.081 Q 411.181 43.369 411.181 42.218 L 411.181 41.673 Z M 415.584 46.797 Q 415.478 46.797 415.478 46.691 L 415.478 34.097 Q 415.478 33.991 415.584 33.991 L 417.491 33.991 Q 417.596 33.991 417.596 34.097 L 417.596 46.691 Q 417.596 46.797 417.491 46.797 Z M 419.009 46.788 Q 418.948 46.788 418.922 46.744 Q 418.895 46.7 418.913 46.647 L 423.518 34.044 Q 423.536 33.974 423.606 33.974 L 425.179 33.974 Q 425.206 33.974 425.237 33.996 Q 425.267 34.017 425.276 34.044 L 429.873 46.647 Q 429.89 46.7 429.864 46.744 Q 429.838 46.788 429.785 46.788 L 427.772 46.788 Q 427.702 46.788 427.684 46.718 L 426.735 43.94 L 422.094 43.94 Q 421.848 44.652 421.607 45.333 Q 421.365 46.015 421.119 46.718 Q 421.11 46.744 421.079 46.766 Q 421.049 46.788 421.022 46.788 Z M 426.102 42.051 Q 426.085 41.989 426.054 41.919 Q 426.023 41.849 426.006 41.796 Q 425.856 41.365 425.733 41 Q 425.61 40.636 425.513 40.363 Q 425.452 40.187 425.395 40.02 Q 425.338 39.853 425.285 39.704 Q 425.241 39.563 425.197 39.436 Q 425.153 39.309 425.109 39.185 Q 425.03 38.931 424.946 38.676 Q 424.863 38.421 424.775 38.148 Q 424.731 38.025 424.683 37.876 Q 424.634 37.726 424.582 37.559 Q 424.555 37.472 424.542 37.423 Q 424.529 37.375 424.511 37.327 Q 424.494 37.278 424.472 37.217 Q 424.45 37.155 424.415 37.041 Q 424.318 37.331 424.235 37.577 Q 424.151 37.823 424.081 38.034 Q 424.063 38.087 424.054 38.131 Q 424.046 38.175 424.028 38.219 Q 423.984 38.368 423.936 38.5 Q 423.887 38.632 423.843 38.764 Q 423.799 38.904 423.756 39.036 Q 423.712 39.168 423.668 39.291 Q 423.58 39.555 423.487 39.845 Q 423.395 40.135 423.281 40.451 Q 423.167 40.767 423.044 41.132 Q 422.921 41.497 422.727 42.051 Z M 431.463 46.797 Q 431.357 46.797 431.357 46.691 L 431.357 34.097 Q 431.357 33.991 431.463 33.991 L 433.273 33.991 Q 433.326 33.991 433.361 34.044 L 438.898 42.763 L 438.898 34.097 Q 438.898 33.991 439.004 33.991 L 440.92 33.991 Q 441.025 33.991 441.025 34.097 L 441.025 46.691 Q 441.025 46.797 440.92 46.797 L 439.118 46.797 Q 439.065 46.797 439.03 46.744 L 433.475 38.025 L 433.475 46.691 Q 433.475 46.797 433.379 46.797 Z M 447.854 41.673 Q 447.749 41.673 447.749 41.567 L 447.749 39.757 Q 447.749 39.66 447.854 39.66 L 452.328 39.66 Q 452.433 39.66 452.433 39.757 L 452.433 42.323 Q 452.433 44.266 451.097 45.575 Q 449.744 46.902 447.836 46.902 Q 446.316 46.902 445.279 46.173 Q 444.259 45.452 443.802 44.591 L 443.811 44.591 Q 443.644 44.292 443.53 43.989 Q 443.416 43.685 443.354 43.351 Q 443.301 43.017 443.271 42.284 Q 443.24 41.55 443.24 40.398 Q 443.24 39.247 443.271 38.517 Q 443.301 37.788 443.354 37.454 Q 443.416 37.12 443.53 36.812 Q 443.644 36.505 443.811 36.206 L 443.802 36.206 Q 444.259 35.353 445.279 34.624 Q 446.307 33.886 447.836 33.886 Q 449.665 33.886 450.86 35.011 Q 452.073 36.136 452.363 37.7 Q 452.38 37.753 452.345 37.788 Q 452.31 37.823 452.257 37.823 L 450.245 37.823 Q 450.166 37.823 450.148 37.753 Q 450.034 37.401 449.823 37.098 Q 449.612 36.795 449.304 36.531 Q 448.724 36.013 447.836 36.013 Q 447.177 36.013 446.711 36.276 Q 446.246 36.54 445.964 36.883 Q 445.797 37.094 445.674 37.362 Q 445.551 37.63 445.481 37.911 Q 445.411 38.21 445.384 38.834 Q 445.358 39.458 445.358 40.398 Q 445.358 41.356 445.384 41.976 Q 445.411 42.596 445.481 42.894 Q 445.551 43.167 445.679 43.435 Q 445.806 43.703 445.964 43.905 Q 446.246 44.274 446.711 44.534 Q 447.177 44.793 447.836 44.793 Q 448.882 44.793 449.594 44.081 Q 450.315 43.369 450.315 42.218 L 450.315 41.673 Z" transform="matrix(1.310387, 0, 0, 1.310387, -59.698296, -1.169035)" style="fill: rgb(255, 255, 255); visibility: hidden;"/>
    <path d="M 368.126 47.297 C 368.011 47.284 367.789 47.22 367.692 47.122 C 367.596 47.026 367.534 46.805 367.521 46.691 L 367.521 34.097 C 367.534 33.983 367.596 33.762 367.692 33.666 C 367.788 33.568 368.011 33.504 368.126 33.491 L 373.013 33.491 C 374.331 33.505 375.457 33.909 376.214 34.63 C 376.926 35.366 377.345 36.375 377.345 37.48 C 377.345 38.097 377.179 38.729 376.9 39.261 C 376.61 39.777 376.461 39.872 376.127 40.142 C 376.452 40.377 376.571 40.418 376.953 41.017 C 377.136 41.336 377.29 41.692 377.391 42.028 C 377.489 42.371 377.547 42.76 377.547 43.123 C 377.547 44.336 377.088 45.413 376.306 46.171 C 375.513 46.882 374.502 47.28 373.444 47.297 Z M 368.521 34.491 L 368.521 46.297 L 373.444 46.297 C 374.319 46.314 374.99 46.05 375.626 45.437 C 376.285 44.859 376.547 44.149 376.547 43.123 C 376.547 42.83 376.514 42.583 376.431 42.31 C 376.351 42.032 376.244 41.786 376.087 41.519 C 375.824 41.053 375.51 40.81 374.998 40.663 L 373.773 40.314 L 374.921 39.742 C 375.508 39.45 375.837 39.169 376.015 38.794 C 376.251 38.378 376.345 37.976 376.345 37.48 C 376.345 36.558 376.108 35.904 375.509 35.339 C 374.941 34.736 374.167 34.477 373.013 34.491 Z M 372.978 40.707 C 373.744 40.722 374.425 40.993 374.835 41.429 C 375.195 41.867 375.429 42.442 375.429 43 C 375.429 43.569 375.189 44.157 374.825 44.592 C 374.403 45.017 373.725 45.278 372.978 45.293 L 369.639 45.293 L 369.639 40.707 Z M 370.639 41.707 L 370.639 44.293 L 372.978 44.293 C 373.555 44.308 373.86 44.213 374.082 43.923 C 374.35 43.644 374.429 43.392 374.429 43 C 374.429 42.62 374.349 42.369 374.077 42.081 C 373.877 41.791 373.571 41.692 372.978 41.707 Z M 372.802 35.398 C 373.536 35.412 374.198 35.66 374.614 36.064 C 374.985 36.469 375.227 37.037 375.227 37.603 C 375.227 38.175 374.982 38.746 374.615 39.152 C 374.207 39.546 373.544 39.787 372.802 39.8 L 369.639 39.8 L 369.639 35.398 Z M 370.639 36.398 L 370.639 38.8 L 372.802 38.8 C 373.384 38.813 373.684 38.729 373.886 38.468 C 374.148 38.228 374.227 37.992 374.227 37.603 C 374.227 37.221 374.158 36.998 373.895 36.758 C 373.679 36.484 373.37 36.384 372.802 36.398 Z M 377.857 47.288 C 377.705 47.262 377.458 47.121 377.339 46.998 C 377.287 46.862 377.267 46.612 377.291 46.475 L 381.882 33.919 C 381.915 33.831 382.001 33.667 382.086 33.6 C 382.172 33.532 382.357 33.485 382.454 33.474 L 384.027 33.474 C 384.135 33.491 384.29 33.543 384.371 33.588 C 384.444 33.652 384.543 33.774 384.594 33.873 L 389.197 46.494 C 389.219 46.629 389.189 46.872 389.138 47.006 C 389.029 47.122 388.789 47.256 388.633 47.288 L 386.62 47.288 C 386.523 47.277 386.338 47.23 386.252 47.162 C 386.167 47.095 386.092 46.968 386.059 46.88 L 385.225 44.44 L 381.298 44.44 C 381.173 44.799 381.087 45.045 380.925 45.5 C 380.765 45.954 380.603 46.413 380.44 46.882 C 380.389 46.977 380.289 47.122 380.216 47.174 C 380.146 47.224 379.977 47.271 379.87 47.288 Z M 386.913 46.288 L 388.058 46.288 L 383.749 34.474 L 382.739 34.474 L 378.424 46.288 L 379.588 46.288 C 379.72 45.91 379.852 45.535 379.983 45.166 C 380.144 44.713 380.306 44.25 380.469 43.777 L 380.586 43.44 L 385.941 43.44 Z M 381.103 41.887 C 381.231 41.518 381.336 41.214 381.418 40.972 C 381.501 40.726 381.582 40.495 381.659 40.281 C 381.733 40.075 381.799 39.881 381.859 39.692 C 381.921 39.498 381.985 39.303 382.044 39.126 C 382.072 39.046 382.1 38.964 382.129 38.878 C 382.157 38.792 382.188 38.697 382.217 38.606 C 382.247 38.514 382.281 38.419 382.315 38.327 C 382.344 38.248 382.382 38.131 382.41 38.039 C 382.411 38.036 382.412 38.035 382.412 38.034 C 382.412 38.034 382.412 38.034 382.412 38.031 C 382.422 37.984 382.438 37.925 382.454 37.877 C 382.501 37.735 382.553 37.58 382.609 37.415 C 382.665 37.252 382.724 37.075 382.789 36.882 L 383.284 35.403 L 383.741 36.894 C 383.763 36.967 383.778 37.013 383.791 37.048 C 383.806 37.09 383.819 37.127 383.831 37.161 C 383.846 37.204 383.861 37.251 383.873 37.295 C 383.88 37.321 383.89 37.356 383.907 37.41 C 383.942 37.52 383.975 37.624 384.007 37.723 C 384.038 37.819 384.071 37.917 384.099 37.995 C 384.157 38.176 384.214 38.351 384.269 38.52 C 384.326 38.692 384.379 38.859 384.432 39.027 C 384.46 39.108 384.488 39.187 384.517 39.272 C 384.548 39.361 384.578 39.452 384.608 39.547 C 384.642 39.644 384.677 39.747 384.716 39.859 C 384.754 39.969 384.793 40.081 384.833 40.197 C 384.898 40.382 384.972 40.596 385.055 40.84 C 385.136 41.083 385.227 41.349 385.326 41.635 C 385.334 41.658 385.342 41.679 385.359 41.717 C 385.387 41.779 385.415 41.858 385.432 41.919 L 385.614 42.551 L 380.871 42.551 Z M 384.24 41.551 C 384.194 41.415 384.149 41.285 384.107 41.16 C 384.026 40.919 383.954 40.71 383.89 40.53 C 383.849 40.413 383.808 40.295 383.77 40.183 C 383.732 40.072 383.696 39.968 383.661 39.869 C 383.633 39.778 383.601 39.681 383.573 39.6 C 383.544 39.516 383.515 39.434 383.486 39.352 C 383.434 39.185 383.374 39 383.319 38.832 C 383.3 38.773 383.28 38.713 383.261 38.652 C 383.258 38.659 383.256 38.665 383.254 38.671 C 383.223 38.755 383.195 38.834 383.167 38.918 C 383.137 39.012 383.107 39.104 383.077 39.194 C 383.047 39.284 383.018 39.37 382.989 39.453 C 382.931 39.626 382.873 39.805 382.811 39.997 C 382.748 40.195 382.677 40.406 382.599 40.621 C 382.524 40.829 382.447 41.051 382.366 41.292 C 382.283 41.536 382.309 41.458 382.277 41.551 Z M 382.603 30.685 C 382.52 30.671 382.401 30.627 382.293 30.566 C 382.337 30.681 382.406 30.748 382.518 30.827 C 382.696 30.953 382.881 31.009 383.244 31.004 C 383.628 31.007 383.803 30.952 383.961 30.832 C 384.043 30.771 384.092 30.726 384.118 30.652 C 384.062 30.667 383.997 30.679 383.948 30.685 Z M 382.058 29.827 L 382.067 29.795 L 382.109 29.736 L 383.938 27.18 C 384.04 27.071 384.276 26.944 384.44 26.908 L 386.374 26.908 C 386.551 26.945 386.808 27.103 386.921 27.245 C 386.955 27.338 386.996 27.519 386.976 27.624 C 386.957 27.724 386.873 27.859 386.816 27.928 L 384.905 29.949 L 386.414 29.949 L 386.408 30.449 C 386.402 30.882 386.304 31.321 386.144 31.646 C 385.984 31.94 385.742 32.259 385.48 32.525 C 384.921 33.03 384.122 33.33 383.282 33.357 C 382.402 33.332 381.558 33.02 380.966 32.534 C 380.713 32.278 380.492 31.998 380.342 31.745 C 380.184 31.445 380.084 30.974 380.073 30.455 L 380.063 29.949 L 382.032 29.949 C 382.038 29.903 382.048 29.861 382.058 29.827 Z M 383.779 29.685 L 385.459 27.908 L 384.647 27.908 L 383.375 29.685 Z M 381.103 30.949 C 381.124 31.078 381.108 31.1 381.208 31.245 C 381.317 31.437 381.456 31.61 381.667 31.821 C 382.09 32.2 382.559 32.359 383.284 32.357 C 383.954 32.361 384.4 32.199 384.79 31.801 C 385.008 31.587 385.143 31.406 385.26 31.179 C 385.374 30.982 385.334 31.031 385.358 30.949 L 385.032 30.949 C 384.932 31.224 384.887 31.386 384.564 31.63 C 384.256 31.863 383.758 31.989 383.252 32.004 C 382.762 31.993 382.262 31.87 381.942 31.644 C 381.611 31.411 381.534 31.226 381.403 30.949 Z M 398.801 42.57 C 398.94 42.592 399.153 42.689 399.262 42.778 C 399.345 42.927 399.401 43.202 399.379 43.363 L 399.375 43.393 C 399.089 44.626 398.459 45.662 397.574 46.361 C 397.129 46.693 396.61 46.966 396.092 47.14 C 395.571 47.308 394.974 47.402 394.38 47.402 C 393.297 47.402 392.3 47.103 391.533 46.581 C 390.815 46.067 390.247 45.452 389.904 44.825 C 389.792 44.612 389.688 44.381 389.605 44.165 C 389.522 43.94 389.451 43.682 389.406 43.438 C 389.325 42.971 389.283 41.943 389.283 40.398 C 389.283 39.627 389.292 38.992 389.31 38.499 C 389.328 38.001 389.362 37.611 389.406 37.363 C 389.452 37.12 389.522 36.863 389.605 36.637 C 389.688 36.417 389.793 36.183 389.905 35.97 C 390.247 35.349 390.814 34.736 391.531 34.218 C 392.293 33.689 393.291 33.386 394.38 33.386 C 395.686 33.386 396.864 33.844 397.745 34.646 C 398.572 35.435 399.137 36.425 399.374 37.496 L 399.379 37.539 C 399.4 37.702 399.365 38.019 399.243 38.142 C 399.149 38.235 398.929 38.305 398.801 38.323 L 396.788 38.323 C 396.695 38.314 396.519 38.274 396.432 38.211 C 396.34 38.145 396.252 38.002 396.215 37.907 C 396.153 37.706 396.075 37.556 395.956 37.384 C 395.834 37.209 395.698 37.059 395.515 36.904 C 395.212 36.608 394.889 36.513 394.38 36.513 C 393.998 36.513 393.746 36.562 393.501 36.711 C 393.225 36.864 393.047 37.006 392.896 37.199 C 392.802 37.314 392.743 37.418 392.672 37.571 C 392.6 37.728 392.551 37.862 392.511 38.027 C 392.47 38.194 392.444 38.455 392.428 38.856 C 392.41 39.265 392.401 39.776 392.401 40.398 C 392.401 41.032 392.41 41.548 392.428 41.955 C 392.444 42.353 392.469 42.603 392.509 42.77 C 392.549 42.929 392.598 43.063 392.673 43.22 C 392.747 43.377 392.817 43.491 392.906 43.602 C 393.055 43.808 393.227 43.951 393.498 44.097 C 393.743 44.245 393.997 44.293 394.38 44.293 C 395.247 44.293 395.792 43.929 396.24 42.917 L 396.273 42.842 L 396.337 42.778 C 396.358 42.758 396.395 42.725 396.419 42.704 C 396.499 42.653 396.675 42.589 396.788 42.57 Z M 398.306 43.57 L 397.022 43.57 C 396.408 44.641 395.466 45.293 394.38 45.293 C 393.885 45.293 393.388 45.169 393.012 44.971 C 392.662 44.771 392.336 44.494 392.111 44.209 C 391.99 44.051 391.868 43.851 391.771 43.65 C 391.677 43.45 391.595 43.224 391.541 43.018 C 391.488 42.788 391.447 42.426 391.428 41.997 C 391.41 41.577 391.401 41.041 391.401 40.398 C 391.401 39.767 391.41 39.235 391.428 38.812 C 391.447 38.381 391.486 38.026 391.539 37.795 C 391.592 37.586 391.672 37.353 391.764 37.153 C 391.857 36.949 391.987 36.739 392.116 36.573 C 392.339 36.308 392.663 36.04 393.009 35.841 C 393.385 35.64 393.884 35.513 394.38 35.513 C 395.055 35.513 395.711 35.763 396.181 36.158 C 396.407 36.355 396.617 36.583 396.776 36.812 C 396.883 36.966 396.98 37.143 397.06 37.323 L 398.308 37.323 C 398.096 36.577 397.695 35.954 397.062 35.376 C 396.349 34.679 395.511 34.386 394.38 34.386 C 393.43 34.386 392.723 34.575 392.113 35.03 C 391.471 35.484 391.054 35.926 390.787 36.442 C 390.688 36.627 390.612 36.796 390.542 36.986 C 390.473 37.17 390.426 37.342 390.39 37.544 C 390.352 37.742 390.326 38.061 390.31 38.535 C 390.292 39.016 390.283 39.634 390.283 40.398 C 390.283 41.924 390.317 42.863 390.39 43.263 C 390.426 43.464 390.472 43.632 390.541 43.813 C 390.612 44 390.689 44.171 390.788 44.357 C 391.054 44.877 391.469 45.317 392.11 45.764 C 392.726 46.214 393.435 46.402 394.38 46.402 C 394.899 46.402 395.34 46.338 395.78 46.19 C 396.221 46.048 396.593 45.853 396.969 45.564 C 397.635 45.075 398.061 44.441 398.306 43.57 Z M 408.72 42.173 C 408.606 42.16 408.384 42.097 408.287 42 C 408.19 41.903 408.127 41.681 408.114 41.567 L 408.114 39.757 C 408.129 39.639 408.2 39.41 408.303 39.315 C 408.4 39.227 408.612 39.171 408.72 39.16 L 413.194 39.16 C 413.303 39.171 413.515 39.227 413.612 39.317 C 413.714 39.411 413.784 39.64 413.799 39.757 L 413.799 42.323 C 413.78 43.713 413.26 44.976 412.313 45.932 C 411.33 46.87 410.068 47.402 408.702 47.402 C 407.62 47.402 406.623 47.103 405.856 46.581 C 405.138 46.067 404.569 45.453 404.226 44.825 L 403.825 44.091 L 403.828 44.091 L 404.24 44.835 C 404.121 44.619 404.012 44.385 403.928 44.166 C 403.844 43.941 403.772 43.674 403.726 43.429 C 403.689 43.187 403.658 42.802 403.636 42.304 C 403.616 41.809 403.606 41.17 403.606 40.398 C 403.606 39.627 403.616 38.989 403.636 38.496 C 403.658 38.001 403.69 37.606 403.728 37.364 C 403.774 37.12 403.844 36.864 403.927 36.637 C 404.011 36.415 404.121 36.178 404.24 35.962 L 403.828 36.706 L 403.822 36.706 L 404.227 35.97 C 404.57 35.349 405.137 34.736 405.854 34.218 C 406.615 33.689 407.613 33.386 408.702 33.386 C 410.008 33.386 411.186 33.844 412.068 34.646 C 412.901 35.435 413.468 36.434 413.702 37.517 L 413.705 37.547 C 413.723 37.709 413.685 38.021 413.565 38.142 C 413.471 38.235 413.251 38.305 413.123 38.323 L 411.111 38.323 C 411.019 38.314 410.842 38.274 410.754 38.211 C 410.661 38.144 410.575 38.004 410.538 37.907 C 410.476 37.706 410.398 37.556 410.279 37.384 C 410.157 37.209 410.021 37.059 409.837 36.904 C 409.534 36.608 409.211 36.513 408.702 36.513 C 408.32 36.513 408.068 36.562 407.823 36.711 C 407.547 36.864 407.369 37.006 407.218 37.199 C 407.124 37.314 407.065 37.418 406.994 37.571 C 406.922 37.728 406.874 37.86 406.834 38.025 C 406.792 38.193 406.766 38.454 406.75 38.855 C 406.732 39.265 406.724 39.775 406.724 40.398 C 406.724 41.033 406.732 41.547 406.75 41.954 C 406.766 42.352 406.792 42.605 406.832 42.773 C 406.871 42.931 406.921 43.064 406.997 43.221 C 407.069 43.377 407.139 43.492 407.228 43.602 C 407.377 43.808 407.549 43.951 407.82 44.097 C 408.065 44.245 408.319 44.293 408.702 44.293 C 409.305 44.293 409.717 44.145 410.109 43.725 C 410.532 43.338 410.698 42.895 410.681 42.218 L 410.681 42.173 Z M 412.799 40.16 L 409.114 40.16 L 409.114 41.173 L 411.681 41.173 L 411.681 42.218 C 411.664 43.076 411.35 43.873 410.812 44.436 C 410.255 44.965 409.493 45.293 408.702 45.293 C 408.207 45.293 407.71 45.169 407.334 44.971 C 406.984 44.771 406.658 44.494 406.433 44.209 C 406.312 44.051 406.19 43.851 406.093 43.65 C 405.999 43.449 405.917 43.224 405.863 43.018 C 405.811 42.789 405.77 42.426 405.75 41.998 C 405.733 41.578 405.724 41.041 405.724 40.398 C 405.724 39.767 405.733 39.235 405.75 38.813 C 405.77 38.382 405.808 38.027 405.86 37.797 C 405.914 37.587 405.994 37.353 406.086 37.153 C 406.179 36.949 406.309 36.739 406.438 36.573 C 406.661 36.308 406.985 36.04 407.331 35.841 C 407.707 35.64 408.206 35.513 408.702 35.513 C 409.377 35.513 410.033 35.763 410.503 36.158 C 410.73 36.355 410.94 36.583 411.099 36.812 C 411.206 36.966 411.303 37.143 411.383 37.323 L 412.632 37.323 C 412.42 36.573 412.019 35.951 411.386 35.378 C 410.673 34.68 409.833 34.386 408.702 34.386 C 407.752 34.386 407.045 34.575 406.437 35.03 C 405.922 35.393 405.552 35.749 405.287 36.141 L 405.114 36.45 C 405.011 36.632 404.933 36.8 404.865 36.986 C 404.795 37.17 404.749 37.336 404.713 37.538 C 404.68 37.741 404.656 38.061 404.636 38.538 C 404.616 39.018 404.606 39.635 404.606 40.398 C 404.606 41.162 404.616 41.78 404.636 42.263 C 404.656 42.743 404.68 43.064 404.713 43.267 C 404.749 43.466 404.794 43.631 404.864 43.812 C 404.932 43.996 405.01 44.164 405.114 44.347 L 405.297 44.673 C 405.56 45.061 405.925 45.411 406.433 45.764 C 407.049 46.214 407.757 46.402 408.702 46.402 C 409.88 46.402 410.792 46.05 411.613 45.218 C 412.447 44.429 412.818 43.523 412.799 42.323 Z M 415.584 47.297 C 415.47 47.284 415.248 47.221 415.151 47.124 C 415.054 47.027 414.991 46.805 414.978 46.691 L 414.978 34.097 C 414.991 33.983 415.054 33.761 415.151 33.664 C 415.248 33.567 415.47 33.504 415.584 33.491 L 417.491 33.491 C 417.606 33.504 417.828 33.568 417.925 33.666 C 418.021 33.762 418.083 33.983 418.096 34.097 L 418.096 46.691 C 418.083 46.805 418.021 47.026 417.925 47.122 C 417.829 47.22 417.606 47.284 417.491 47.297 Z M 417.096 46.297 L 417.096 34.491 L 415.978 34.491 L 415.978 46.297 Z M 419.009 47.288 C 418.856 47.261 418.615 47.126 418.494 47.001 C 418.44 46.864 418.419 46.614 418.443 46.475 L 423.034 33.919 C 423.067 33.831 423.153 33.667 423.238 33.6 C 423.324 33.532 423.509 33.485 423.606 33.474 L 425.179 33.474 C 425.286 33.49 425.448 33.543 425.525 33.587 C 425.596 33.649 425.697 33.776 425.746 33.873 L 430.349 46.494 C 430.371 46.629 430.366 46.877 430.294 46.998 C 430.213 47.136 429.942 47.256 429.785 47.288 L 427.772 47.288 C 427.675 47.277 427.49 47.23 427.404 47.162 C 427.319 47.095 427.244 46.968 427.211 46.88 L 426.377 44.44 L 422.45 44.44 C 422.325 44.799 422.239 45.045 422.078 45.5 C 421.917 45.954 421.755 46.413 421.592 46.882 C 421.541 46.977 421.439 47.111 421.371 47.171 C 421.292 47.217 421.13 47.271 421.022 47.288 Z M 428.065 46.288 L 429.21 46.288 L 424.901 34.474 L 423.891 34.474 L 419.576 46.288 L 420.74 46.288 C 420.873 45.909 421.005 45.535 421.136 45.166 C 421.296 44.713 421.458 44.251 421.621 43.777 L 421.738 43.44 L 427.093 43.44 Z M 422.255 41.886 C 422.384 41.518 422.489 41.214 422.57 40.972 C 422.653 40.727 422.734 40.495 422.811 40.281 C 422.885 40.075 422.951 39.881 423.011 39.692 C 423.073 39.498 423.138 39.3 423.197 39.123 C 423.226 39.043 423.253 38.964 423.281 38.88 C 423.309 38.793 423.34 38.698 423.369 38.606 C 423.399 38.514 423.433 38.419 423.467 38.327 C 423.496 38.248 423.521 38.17 423.548 38.077 L 423.56 38.037 L 423.564 38.031 C 423.564 38.031 423.564 38.031 423.564 38.031 C 423.574 37.985 423.59 37.925 423.606 37.877 C 423.653 37.735 423.705 37.581 423.762 37.416 C 423.817 37.253 423.876 37.075 423.941 36.882 L 424.436 35.403 L 424.893 36.894 C 424.915 36.967 424.93 37.013 424.943 37.048 C 424.958 37.09 424.971 37.127 424.983 37.161 C 424.997 37.202 425.013 37.251 425.025 37.295 C 425.032 37.321 425.043 37.356 425.059 37.41 C 425.094 37.52 425.127 37.624 425.159 37.723 C 425.19 37.819 425.223 37.917 425.251 37.995 C 425.309 38.176 425.366 38.35 425.421 38.52 C 425.478 38.692 425.531 38.859 425.584 39.027 C 425.613 39.111 425.64 39.187 425.669 39.272 C 425.7 39.361 425.73 39.451 425.759 39.546 C 425.794 39.644 425.83 39.746 425.868 39.858 C 425.906 39.969 425.945 40.081 425.985 40.197 C 426.05 40.382 426.124 40.596 426.207 40.84 C 426.288 41.082 426.382 41.357 426.482 41.643 C 426.488 41.664 426.495 41.68 426.511 41.717 C 426.539 41.779 426.567 41.858 426.584 41.919 L 426.766 42.551 L 422.022 42.551 Z M 425.392 41.551 C 425.346 41.416 425.302 41.286 425.259 41.16 C 425.178 40.919 425.106 40.71 425.042 40.53 C 425.001 40.413 424.96 40.293 424.922 40.182 C 424.884 40.072 424.849 39.969 424.814 39.872 C 424.786 39.781 424.753 39.681 424.725 39.6 C 424.696 39.516 424.667 39.434 424.638 39.352 C 424.586 39.185 424.526 39 424.471 38.832 C 424.452 38.773 424.432 38.713 424.413 38.652 C 424.41 38.659 424.408 38.665 424.406 38.671 C 424.375 38.755 424.347 38.834 424.319 38.918 C 424.289 39.011 424.26 39.102 424.231 39.191 C 424.201 39.281 424.17 39.371 424.141 39.454 C 424.083 39.627 424.025 39.805 423.963 39.997 C 423.9 40.195 423.829 40.406 423.751 40.621 C 423.676 40.829 423.599 41.051 423.518 41.292 C 423.435 41.537 423.462 41.458 423.43 41.551 Z M 431.463 47.297 C 431.349 47.284 431.127 47.221 431.03 47.124 C 430.933 47.027 430.87 46.805 430.857 46.691 L 430.857 34.097 C 430.87 33.983 430.933 33.761 431.03 33.664 C 431.127 33.567 431.349 33.504 431.463 33.491 L 433.273 33.491 C 433.437 33.527 433.68 33.664 433.783 33.776 L 438.398 41.043 L 438.398 34.097 C 438.411 33.983 438.474 33.761 438.571 33.664 C 438.668 33.567 438.89 33.504 439.004 33.491 L 440.92 33.491 C 441.035 33.504 441.258 33.568 441.354 33.666 C 441.45 33.762 441.512 33.983 441.525 34.097 L 441.525 46.691 C 441.512 46.805 441.45 47.026 441.354 47.122 C 441.258 47.22 441.035 47.284 440.92 47.297 L 439.118 47.297 C 438.954 47.261 438.711 47.124 438.608 47.013 L 433.975 39.74 L 433.975 46.691 C 433.964 46.799 433.91 47.009 433.822 47.106 C 433.728 47.21 433.497 47.282 433.379 47.297 Z M 433.053 34.491 L 431.857 34.491 L 431.857 46.297 L 432.975 46.297 L 432.975 36.31 L 439.338 46.297 L 440.525 46.297 L 440.525 34.491 L 439.398 34.491 L 439.398 44.483 Z M 447.854 42.173 C 447.739 42.16 447.517 42.096 447.42 41.998 C 447.324 41.902 447.262 41.681 447.249 41.567 L 447.249 39.757 C 447.264 39.64 447.334 39.411 447.436 39.317 C 447.533 39.227 447.745 39.171 447.854 39.16 L 452.328 39.16 C 452.437 39.171 452.649 39.227 452.746 39.317 C 452.848 39.411 452.918 39.64 452.933 39.757 L 452.933 42.323 C 452.914 43.713 452.394 44.976 451.447 45.932 C 450.464 46.87 449.202 47.402 447.836 47.402 C 446.754 47.402 445.757 47.103 444.99 46.581 C 444.272 46.067 443.703 45.453 443.36 44.825 L 442.959 44.091 L 442.962 44.091 L 443.374 44.835 C 443.255 44.619 443.145 44.384 443.062 44.165 C 442.979 43.941 442.906 43.673 442.86 43.429 C 442.822 43.187 442.792 42.803 442.771 42.305 C 442.751 41.809 442.74 41.17 442.74 40.398 C 442.74 39.627 442.751 38.989 442.771 38.496 C 442.792 38.001 442.825 37.605 442.862 37.363 C 442.908 37.12 442.979 36.864 443.061 36.638 C 443.145 36.415 443.255 36.178 443.374 35.962 L 442.962 36.706 L 442.956 36.706 L 443.361 35.97 C 443.704 35.349 444.271 34.736 444.988 34.218 C 445.749 33.689 446.747 33.386 447.836 33.386 C 449.142 33.386 450.321 33.844 451.202 34.646 C 452.034 35.435 452.602 36.434 452.836 37.517 L 452.839 37.547 C 452.857 37.709 452.819 38.021 452.699 38.142 C 452.605 38.235 452.385 38.305 452.257 38.323 L 450.245 38.323 C 450.152 38.314 449.976 38.274 449.889 38.211 C 449.797 38.145 449.709 38.002 449.672 37.907 C 449.61 37.706 449.532 37.556 449.413 37.384 C 449.291 37.209 449.155 37.059 448.971 36.904 C 448.668 36.608 448.345 36.513 447.836 36.513 C 447.454 36.513 447.202 36.562 446.957 36.711 C 446.681 36.864 446.503 37.007 446.351 37.2 C 446.258 37.315 446.199 37.418 446.128 37.571 C 446.056 37.728 446.008 37.86 445.968 38.025 C 445.926 38.193 445.9 38.454 445.884 38.855 C 445.866 39.265 445.858 39.775 445.858 40.398 C 445.858 41.033 445.866 41.547 445.884 41.954 C 445.9 42.352 445.926 42.605 445.966 42.773 C 446.005 42.931 446.055 43.064 446.131 43.221 C 446.203 43.377 446.273 43.491 446.361 43.601 C 446.512 43.808 446.684 43.951 446.954 44.097 C 447.2 44.245 447.453 44.293 447.836 44.293 C 448.439 44.293 448.851 44.145 449.243 43.725 C 449.666 43.338 449.832 42.895 449.815 42.218 L 449.815 42.173 Z M 451.933 40.16 L 448.249 40.16 L 448.249 41.173 L 450.815 41.173 L 450.815 42.218 C 450.798 43.076 450.484 43.873 449.946 44.436 C 449.389 44.965 448.627 45.293 447.836 45.293 C 447.341 45.293 446.844 45.169 446.468 44.971 C 446.119 44.771 445.793 44.495 445.568 44.21 C 445.446 44.051 445.324 43.851 445.227 43.65 C 445.133 43.449 445.051 43.224 444.997 43.018 C 444.945 42.789 444.904 42.426 444.884 41.998 C 444.867 41.578 444.858 41.041 444.858 40.398 C 444.858 39.767 444.867 39.235 444.884 38.813 C 444.904 38.382 444.942 38.027 444.994 37.797 C 445.048 37.587 445.128 37.353 445.22 37.153 C 445.313 36.949 445.443 36.739 445.572 36.573 C 445.795 36.309 446.12 36.041 446.464 35.841 C 446.841 35.64 447.34 35.513 447.836 35.513 C 448.511 35.513 449.167 35.763 449.637 36.158 C 449.864 36.355 450.074 36.583 450.233 36.812 C 450.34 36.966 450.437 37.143 450.517 37.323 L 451.766 37.323 C 451.554 36.573 451.153 35.951 450.52 35.378 C 449.808 34.68 448.968 34.386 447.836 34.386 C 446.886 34.386 446.179 34.575 445.571 35.03 C 445.056 35.393 444.686 35.749 444.421 36.141 L 444.248 36.45 C 444.145 36.632 444.067 36.799 443.999 36.986 C 443.93 37.17 443.883 37.336 443.847 37.539 C 443.814 37.742 443.79 38.061 443.771 38.538 C 443.75 39.018 443.74 39.635 443.74 40.398 C 443.74 41.162 443.75 41.78 443.771 42.263 C 443.79 42.742 443.814 43.063 443.847 43.267 C 443.883 43.465 443.929 43.632 443.998 43.813 C 444.067 43.997 444.144 44.164 444.248 44.347 L 444.431 44.673 C 444.694 45.061 445.059 45.41 445.567 45.764 C 446.183 46.214 446.891 46.402 447.836 46.402 C 449.014 46.402 449.926 46.05 450.747 45.218 C 451.581 44.429 451.952 43.523 451.933 42.323 Z" style="fill: none;" transform="matrix(1.3103870153427124, 0, 0, 1.3103870153427124, -59.698296482835644, -1.1690349753057205)"/>
    <path transform="matrix(1.310387, 0, 0, 1.310387, -59.698296, -1.169035)" style="fill: rgb(255, 255, 255); visibility: hidden;"/>
    <path d="M 370.229 72.357 Q 370.123 72.357 370.123 72.251 L 370.123 59.657 Q 370.123 59.551 370.229 59.551 L 372.136 59.551 Q 372.242 59.551 372.242 59.657 L 372.242 70.353 L 378.28 70.353 Q 378.385 70.353 378.385 70.458 L 378.385 72.251 Q 378.385 72.357 378.28 72.357 Z M 378.985 72.348 Q 378.923 72.348 378.897 72.304 Q 378.871 72.26 378.888 72.207 L 383.494 59.604 Q 383.511 59.534 383.582 59.534 L 385.155 59.534 Q 385.181 59.534 385.212 59.556 Q 385.243 59.577 385.251 59.604 L 389.848 72.207 Q 389.866 72.26 389.839 72.304 Q 389.813 72.348 389.76 72.348 L 387.748 72.348 Q 387.677 72.348 387.66 72.278 L 386.71 69.5 L 382.07 69.5 Q 381.824 70.212 381.582 70.893 Q 381.34 71.575 381.094 72.278 Q 381.085 72.304 381.055 72.326 Q 381.024 72.348 380.998 72.348 Z M 386.078 67.611 Q 386.06 67.549 386.029 67.479 Q 385.999 67.409 385.981 67.356 Q 385.832 66.925 385.708 66.56 Q 385.585 66.196 385.489 65.923 Q 385.427 65.747 385.37 65.58 Q 385.313 65.413 385.26 65.264 Q 385.216 65.123 385.172 64.996 Q 385.128 64.868 385.084 64.745 Q 385.005 64.491 384.922 64.236 Q 384.838 63.981 384.75 63.708 Q 384.707 63.585 384.658 63.436 Q 384.61 63.286 384.557 63.119 Q 384.531 63.032 384.518 62.983 Q 384.504 62.935 384.487 62.887 Q 384.469 62.838 384.447 62.777 Q 384.425 62.715 384.39 62.601 Q 384.293 62.891 384.21 63.137 Q 384.126 63.383 384.056 63.594 Q 384.039 63.647 384.03 63.691 Q 384.021 63.735 384.003 63.779 Q 383.959 63.928 383.911 64.06 Q 383.863 64.192 383.819 64.324 Q 383.775 64.464 383.731 64.596 Q 383.687 64.728 383.643 64.851 Q 383.555 65.115 383.463 65.405 Q 383.371 65.695 383.256 66.011 Q 383.142 66.327 383.019 66.692 Q 382.896 67.057 382.703 67.611 Z M 383.52 75.82 Q 383.423 75.82 383.423 75.723 L 383.423 74.027 Q 383.423 73.93 383.52 73.93 L 385.225 73.93 Q 385.313 73.93 385.313 74.027 L 385.313 75.723 Q 385.313 75.82 385.225 75.82 Z M 391.438 72.357 Q 391.333 72.357 391.333 72.251 L 391.333 59.657 Q 391.333 59.551 391.438 59.551 L 393.249 59.551 Q 393.301 59.551 393.337 59.604 L 398.874 68.323 L 398.874 59.657 Q 398.874 59.551 398.979 59.551 L 400.895 59.551 Q 401.001 59.551 401.001 59.657 L 401.001 72.251 Q 401.001 72.357 400.895 72.357 L 399.093 72.357 Q 399.041 72.357 399.006 72.304 L 393.451 63.585 L 393.451 72.251 Q 393.451 72.357 393.354 72.357 Z M 407.829 67.233 Q 407.724 67.233 407.724 67.127 L 407.724 65.317 Q 407.724 65.22 407.829 65.22 L 412.303 65.22 Q 412.409 65.22 412.409 65.317 L 412.409 67.883 Q 412.409 69.826 411.073 71.135 Q 409.719 72.462 407.812 72.462 Q 406.291 72.462 405.254 71.733 Q 404.235 71.012 403.778 70.151 L 403.786 70.151 Q 403.619 69.852 403.505 69.549 Q 403.391 69.245 403.329 68.911 Q 403.277 68.577 403.246 67.844 Q 403.215 67.11 403.215 65.958 Q 403.215 64.807 403.246 64.077 Q 403.277 63.348 403.329 63.014 Q 403.391 62.68 403.505 62.372 Q 403.619 62.065 403.786 61.766 L 403.778 61.766 Q 404.235 60.913 405.254 60.184 Q 406.283 59.446 407.812 59.446 Q 409.64 59.446 410.835 60.571 Q 412.048 61.696 412.338 63.26 Q 412.356 63.313 412.321 63.348 Q 412.285 63.383 412.233 63.383 L 410.22 63.383 Q 410.141 63.383 410.123 63.313 Q 410.009 62.961 409.798 62.658 Q 409.587 62.355 409.28 62.091 Q 408.7 61.573 407.812 61.573 Q 407.153 61.573 406.687 61.836 Q 406.221 62.1 405.94 62.443 Q 405.773 62.654 405.65 62.922 Q 405.527 63.19 405.456 63.471 Q 405.386 63.77 405.36 64.394 Q 405.333 65.018 405.333 65.958 Q 405.333 66.916 405.36 67.536 Q 405.386 68.156 405.456 68.454 Q 405.527 68.727 405.654 68.995 Q 405.782 69.263 405.94 69.465 Q 406.221 69.834 406.687 70.094 Q 407.153 70.353 407.812 70.353 Q 408.858 70.353 409.57 69.641 Q 410.29 68.929 410.29 67.778 L 410.29 67.233 Z M 419.119 69.122 Q 419.145 69.087 419.189 69.087 Q 419.233 69.087 419.268 69.114 Q 419.963 69.676 420.864 70.014 Q 421.765 70.353 422.767 70.353 Q 423.892 70.353 424.542 69.887 Q 425.157 69.439 425.157 68.701 Q 425.157 67.312 423.601 67.101 L 423.61 67.101 Q 423.391 67.075 423.193 67.048 Q 422.995 67.022 422.797 66.995 Q 422.6 66.969 422.393 66.938 Q 422.186 66.908 421.94 66.872 Q 421.114 66.758 420.468 66.455 Q 419.822 66.152 419.383 65.651 Q 418.943 65.141 418.724 64.539 Q 418.504 63.937 418.504 63.225 Q 418.504 61.555 419.611 60.509 Q 420.727 59.446 422.714 59.446 Q 423.303 59.446 423.861 59.547 Q 424.419 59.648 424.942 59.824 Q 425.465 59.999 425.944 60.241 Q 426.423 60.483 426.862 60.773 Q 426.95 60.834 426.889 60.922 L 425.825 62.495 Q 425.764 62.575 425.684 62.522 Q 424.999 62.091 424.225 61.832 Q 423.452 61.573 422.626 61.573 Q 422.204 61.573 421.844 61.674 Q 421.483 61.775 421.193 62.003 Q 420.622 62.416 420.622 63.26 Q 420.622 63.743 421.009 64.201 Q 421.202 64.411 421.527 64.556 Q 421.852 64.702 422.327 64.772 Q 422.582 64.816 422.925 64.864 Q 423.267 64.912 423.733 64.965 Q 425.535 65.185 426.405 66.292 Q 427.275 67.373 427.275 68.701 Q 427.275 70.476 426.036 71.478 Q 424.788 72.462 422.749 72.462 Q 419.875 72.462 417.862 70.704 Q 417.827 70.678 417.827 70.634 Q 417.827 70.59 417.853 70.555 Z M 430.951 65.958 Q 430.951 66.916 430.977 67.536 Q 431.004 68.156 431.074 68.454 Q 431.144 68.727 431.272 68.995 Q 431.399 69.263 431.557 69.465 Q 431.839 69.834 432.304 70.094 Q 432.77 70.353 433.429 70.353 Q 434.08 70.353 434.546 70.094 Q 435.012 69.834 435.284 69.465 Q 435.653 69.017 435.767 68.454 Q 435.908 67.892 435.908 65.958 Q 435.908 65 435.873 64.381 Q 435.838 63.761 435.767 63.471 Q 435.706 63.19 435.583 62.922 Q 435.46 62.654 435.293 62.443 Q 435.161 62.276 434.972 62.118 Q 434.783 61.959 434.546 61.841 Q 434.308 61.722 434.027 61.647 Q 433.746 61.573 433.429 61.573 Q 432.77 61.573 432.304 61.836 Q 431.839 62.1 431.557 62.443 Q 431.39 62.654 431.267 62.922 Q 431.144 63.19 431.074 63.471 Q 431.004 63.77 430.977 64.394 Q 430.951 65.018 430.951 65.958 Z M 438.114 57.899 Q 438.184 57.96 438.246 58.022 Q 438.826 58.628 438.844 59.604 Q 438.879 60.79 437.78 61.537 Q 437.604 61.617 437.42 61.687 Q 437.437 61.722 437.464 61.766 Q 437.789 62.364 437.903 63.014 Q 437.965 63.348 437.995 64.077 Q 438.026 64.807 438.026 65.958 Q 438.026 68.217 437.903 68.911 Q 437.842 69.254 437.732 69.562 Q 437.622 69.869 437.472 70.151 Q 437.007 70.994 435.97 71.733 Q 434.932 72.462 433.429 72.462 Q 431.909 72.462 430.872 71.733 Q 429.852 71.012 429.395 70.151 L 429.404 70.151 Q 429.237 69.852 429.123 69.549 Q 429.009 69.245 428.947 68.911 Q 428.894 68.577 428.864 67.844 Q 428.833 67.11 428.833 65.958 Q 428.833 64.807 428.864 64.077 Q 428.894 63.348 428.947 63.014 Q 429.009 62.68 429.123 62.372 Q 429.237 62.065 429.404 61.766 L 429.395 61.766 Q 429.852 60.913 430.872 60.184 Q 431.9 59.446 433.429 59.446 Q 434.941 59.446 435.97 60.184 Q 436.356 60.465 436.664 60.755 Q 437.578 60.421 437.604 59.639 Q 437.595 59.041 437.226 58.786 Z M 440.337 72.357 Q 440.232 72.357 440.232 72.251 L 440.232 59.657 Q 440.232 59.551 440.337 59.551 L 442.148 59.551 Q 442.2 59.551 442.236 59.604 L 447.773 68.323 L 447.773 59.657 Q 447.773 59.551 447.878 59.551 L 449.794 59.551 Q 449.9 59.551 449.9 59.657 L 449.9 72.251 Q 449.9 72.357 449.794 72.357 L 447.992 72.357 Q 447.94 72.357 447.905 72.304 L 442.35 63.585 L 442.35 72.251 Q 442.35 72.357 442.253 72.357 Z" transform="matrix(1.310387, 0, 0, 1.310387, -59.698296, -1.169035)" style="fill: rgb(255, 255, 255); visibility: hidden;"/>
    <path d="M 426.152 119.118 Q 426.045 119.118 426.045 119.011 L 426.045 106.277 Q 426.045 106.17 426.152 106.17 L 434.292 106.17 Q 434.399 106.17 434.399 106.277 L 434.399 108.107 Q 434.399 108.214 434.292 108.214 L 428.187 108.214 L 428.187 111.626 L 433.377 111.626 Q 433.484 111.626 433.484 111.733 L 433.484 113.457 Q 433.484 113.555 433.377 113.555 L 428.187 113.555 L 428.187 117.092 L 434.292 117.092 Q 434.399 117.092 434.399 117.198 L 434.399 119.011 Q 434.399 119.118 434.292 119.118 Z M 442.569 119.118 Q 442.516 119.118 442.48 119.065 L 439.779 114.479 Q 439.103 115.634 438.428 116.772 Q 437.752 117.909 437.077 119.065 Q 437.041 119.118 436.988 119.118 L 434.811 119.118 Q 434.74 119.118 434.713 119.069 Q 434.686 119.02 434.722 118.958 L 438.588 112.48 Q 437.672 110.933 436.775 109.405 Q 435.877 107.876 434.971 106.33 Q 434.935 106.268 434.962 106.219 Q 434.989 106.17 435.051 106.17 L 437.237 106.17 Q 437.29 106.17 437.326 106.223 L 439.779 110.489 Q 440.392 109.422 441.005 108.361 Q 441.618 107.299 442.231 106.223 Q 442.267 106.17 442.32 106.17 L 444.506 106.17 Q 444.569 106.17 444.595 106.219 Q 444.622 106.268 444.586 106.33 L 440.969 112.48 Q 441.947 114.106 442.907 115.719 Q 443.866 117.332 444.844 118.958 Q 444.88 119.02 444.853 119.069 Q 444.826 119.118 444.755 119.118 Z M 448.144 108.214 L 448.144 112.106 L 450.908 112.106 Q 451.93 112.106 452.427 111.493 Q 452.934 110.898 452.934 110.16 Q 452.934 109.058 452.152 108.552 Q 451.645 108.214 450.837 108.214 Z M 446.109 119.118 Q 446.002 119.118 446.002 119.011 L 446.002 106.277 Q 446.002 106.17 446.109 106.17 L 450.73 106.17 Q 451.494 106.17 452.179 106.33 Q 452.872 106.49 453.654 107.094 Q 453.956 107.334 454.209 107.65 Q 454.462 107.965 454.667 108.347 Q 454.862 108.738 454.969 109.209 Q 455.076 109.68 455.076 110.213 Q 455.076 111.609 454.027 112.879 Q 452.978 114.141 450.979 114.141 L 448.144 114.141 L 448.144 119.011 Q 448.144 119.118 448.037 119.118 Z M 458.757 108.098 L 458.757 111.751 L 461.574 111.751 Q 462.605 111.751 463.12 111.182 Q 463.636 110.613 463.636 109.831 Q 463.636 109.387 463.48 109.04 Q 463.325 108.694 463.031 108.472 Q 462.774 108.294 462.432 108.196 Q 462.089 108.098 461.69 108.098 Z M 456.722 119.118 Q 456.615 119.118 456.615 119.011 L 456.615 106.277 Q 456.615 106.17 456.722 106.17 L 461.707 106.17 Q 462.534 106.17 463.2 106.397 Q 463.867 106.623 464.364 107.041 Q 464.622 107.281 464.858 107.587 Q 465.093 107.894 465.275 108.249 Q 465.457 108.605 465.564 109.005 Q 465.671 109.405 465.671 109.831 Q 465.671 110.462 465.493 111.027 Q 465.315 111.591 464.995 112.08 Q 464.667 112.533 464.231 112.875 Q 463.796 113.217 463.245 113.422 Q 463.965 114.799 464.693 116.19 Q 465.422 117.58 466.142 118.958 Q 466.168 119.02 466.142 119.069 Q 466.115 119.118 466.053 119.118 L 463.76 119.118 Q 463.733 119.118 463.707 119.096 Q 463.68 119.073 463.662 119.056 L 461.059 113.679 L 458.757 113.679 L 458.757 119.011 Q 458.757 119.118 458.65 119.118 Z M 467.654 119.118 Q 467.548 119.118 467.548 119.011 L 467.548 106.277 Q 467.548 106.17 467.654 106.17 L 475.794 106.17 Q 475.901 106.17 475.901 106.277 L 475.901 108.107 Q 475.901 108.214 475.794 108.214 L 469.689 108.214 L 469.689 111.626 L 474.879 111.626 Q 474.986 111.626 474.986 111.733 L 474.986 113.457 Q 474.986 113.555 474.879 113.555 L 469.689 113.555 L 469.689 117.092 L 475.794 117.092 Q 475.901 117.092 475.901 117.198 L 475.901 119.011 Q 475.901 119.118 475.794 119.118 Z M 477.673 115.848 Q 477.699 115.812 477.744 115.812 Q 477.788 115.812 477.824 115.839 Q 478.526 116.407 479.437 116.75 Q 480.348 117.092 481.361 117.092 Q 482.498 117.092 483.156 116.621 Q 483.778 116.168 483.778 115.421 Q 483.778 114.017 482.205 113.804 L 482.214 113.804 Q 481.992 113.777 481.792 113.75 Q 481.592 113.724 481.392 113.697 Q 481.192 113.67 480.983 113.639 Q 480.774 113.608 480.525 113.573 Q 479.69 113.457 479.037 113.15 Q 478.384 112.844 477.939 112.337 Q 477.495 111.822 477.273 111.213 Q 477.051 110.604 477.051 109.885 Q 477.051 108.196 478.17 107.139 Q 479.299 106.063 481.307 106.063 Q 481.903 106.063 482.467 106.166 Q 483.031 106.268 483.56 106.445 Q 484.089 106.623 484.573 106.868 Q 485.058 107.112 485.502 107.405 Q 485.591 107.467 485.529 107.556 L 484.453 109.147 Q 484.391 109.227 484.311 109.174 Q 483.618 108.738 482.836 108.476 Q 482.054 108.214 481.218 108.214 Q 480.792 108.214 480.428 108.316 Q 480.063 108.418 479.77 108.649 Q 479.192 109.067 479.192 109.92 Q 479.192 110.409 479.583 110.871 Q 479.779 111.084 480.108 111.231 Q 480.436 111.378 480.916 111.449 Q 481.174 111.493 481.521 111.542 Q 481.867 111.591 482.338 111.644 Q 484.16 111.866 485.04 112.986 Q 485.92 114.079 485.92 115.421 Q 485.92 117.216 484.667 118.229 Q 483.405 119.225 481.343 119.225 Q 478.437 119.225 476.402 117.447 Q 476.366 117.421 476.366 117.376 Q 476.366 117.332 476.393 117.296 Z M 487.939 115.848 Q 487.966 115.812 488.011 115.812 Q 488.055 115.812 488.091 115.839 Q 488.793 116.407 489.704 116.75 Q 490.614 117.092 491.627 117.092 Q 492.765 117.092 493.423 116.621 Q 494.045 116.168 494.045 115.421 Q 494.045 114.017 492.472 113.804 L 492.481 113.804 Q 492.258 113.777 492.058 113.75 Q 491.859 113.724 491.659 113.697 Q 491.459 113.67 491.25 113.639 Q 491.041 113.608 490.792 113.573 Q 489.957 113.457 489.304 113.15 Q 488.65 112.844 488.206 112.337 Q 487.762 111.822 487.54 111.213 Q 487.317 110.604 487.317 109.885 Q 487.317 108.196 488.437 107.139 Q 489.566 106.063 491.574 106.063 Q 492.17 106.063 492.734 106.166 Q 493.298 106.268 493.827 106.445 Q 494.356 106.623 494.84 106.868 Q 495.324 107.112 495.769 107.405 Q 495.858 107.467 495.795 107.556 L 494.72 109.147 Q 494.658 109.227 494.578 109.174 Q 493.885 108.738 493.103 108.476 Q 492.321 108.214 491.485 108.214 Q 491.059 108.214 490.694 108.316 Q 490.33 108.418 490.037 108.649 Q 489.459 109.067 489.459 109.92 Q 489.459 110.409 489.85 110.871 Q 490.046 111.084 490.374 111.231 Q 490.703 111.378 491.183 111.449 Q 491.441 111.493 491.787 111.542 Q 492.134 111.591 492.605 111.644 Q 494.427 111.866 495.307 112.986 Q 496.186 114.079 496.186 115.421 Q 496.186 117.216 494.933 118.229 Q 493.671 119.225 491.61 119.225 Q 488.704 119.225 486.669 117.447 Q 486.633 117.421 486.633 117.376 Q 486.633 117.332 486.66 117.296 Z M 500.197 119.118 Q 500.108 119.118 500.09 119.038 L 496.9 106.303 Q 496.882 106.25 496.918 106.21 Q 496.953 106.17 497.007 106.17 L 499.051 106.17 Q 499.139 106.17 499.157 106.25 L 501.077 114.95 Q 501.663 112.764 502.259 110.604 Q 502.854 108.445 503.449 106.25 Q 503.467 106.17 503.556 106.17 L 504.951 106.17 Q 505.031 106.17 505.049 106.25 L 507.431 114.95 Q 507.911 112.764 508.39 110.604 Q 508.87 108.445 509.35 106.25 Q 509.368 106.17 509.457 106.17 L 511.501 106.17 Q 511.554 106.17 511.59 106.21 Q 511.625 106.25 511.607 106.303 L 508.417 119.038 Q 508.399 119.118 508.311 119.118 L 506.702 119.118 Q 506.622 119.118 506.604 119.038 L 504.249 110.196 Q 503.663 112.426 503.076 114.621 Q 502.49 116.816 501.903 119.038 Q 501.885 119.118 501.805 119.118 Z M 511.515 119.109 Q 511.453 119.109 511.426 119.065 Q 511.399 119.02 511.417 118.967 L 516.074 106.223 Q 516.092 106.152 516.163 106.152 L 517.753 106.152 Q 517.78 106.152 517.811 106.174 Q 517.842 106.197 517.851 106.223 L 522.499 118.967 Q 522.517 119.02 522.49 119.065 Q 522.463 119.109 522.41 119.109 L 520.375 119.109 Q 520.304 119.109 520.286 119.038 L 519.326 116.23 L 514.634 116.23 Q 514.385 116.95 514.141 117.638 Q 513.896 118.327 513.648 119.038 Q 513.639 119.065 513.608 119.087 Q 513.577 119.109 513.55 119.109 Z M 518.686 114.319 Q 518.669 114.257 518.638 114.186 Q 518.606 114.115 518.589 114.061 Q 518.438 113.626 518.313 113.257 Q 518.189 112.888 518.091 112.613 Q 518.029 112.435 517.971 112.266 Q 517.913 112.097 517.86 111.946 Q 517.816 111.804 517.771 111.675 Q 517.727 111.546 517.682 111.422 Q 517.602 111.164 517.518 110.907 Q 517.433 110.649 517.345 110.373 Q 517.3 110.249 517.251 110.098 Q 517.202 109.947 517.149 109.778 Q 517.122 109.689 517.109 109.64 Q 517.096 109.591 517.078 109.542 Q 517.06 109.494 517.038 109.431 Q 517.016 109.369 516.98 109.254 Q 516.882 109.547 516.798 109.796 Q 516.714 110.045 516.642 110.258 Q 516.625 110.311 516.616 110.356 Q 516.607 110.4 516.589 110.444 Q 516.545 110.596 516.496 110.729 Q 516.447 110.862 516.403 110.995 Q 516.358 111.138 516.314 111.271 Q 516.269 111.404 516.225 111.529 Q 516.136 111.795 516.043 112.089 Q 515.949 112.382 515.834 112.702 Q 515.718 113.022 515.594 113.39 Q 515.469 113.759 515.274 114.319 Z M 525.479 119.118 Q 525.381 119.118 525.381 119.011 L 525.381 113.804 Q 524.421 111.929 523.47 110.062 Q 522.519 108.196 521.569 106.321 Q 521.542 106.259 521.569 106.214 Q 521.595 106.17 521.666 106.17 L 523.692 106.17 Q 523.719 106.17 523.746 106.192 Q 523.772 106.214 523.79 106.232 L 526.403 111.689 Q 527.061 110.311 527.705 108.96 Q 528.349 107.61 529.007 106.232 Q 529.024 106.214 529.051 106.192 Q 529.078 106.17 529.104 106.17 L 531.14 106.17 Q 531.211 106.17 531.237 106.214 Q 531.264 106.259 531.237 106.321 L 527.416 113.804 L 527.416 119.011 Q 527.416 119.118 527.309 119.118 Z" style="fill: rgb(255, 255, 255); visibility: hidden;"/>
    <path d="M 396.964 190.631 L 396.964 170.109 L 393.518 172.672 L 393.518 169.014 L 396.964 166.486 L 400.394 166.486 L 400.394 190.631 Z M 408.745 190.856 Q 404.945 190.131 404.327 186.401 Q 404.327 182.53 404.327 178.642 Q 404.327 174.753 404.327 170.847 Q 404.804 168.019 406.828 167.038 Q 408.852 166.057 411.45 166.64 Q 412.758 167.435 413.553 168.319 Q 414.349 169.203 414.649 170.847 Q 414.649 174.753 414.649 178.624 Q 414.649 182.495 414.649 186.331 Q 414.137 189.848 410.884 190.82 Q 410.478 190.82 410.204 190.838 Q 409.93 190.856 408.745 190.856 Z M 409.099 187.374 Q 410.69 187.374 411.132 185.977 Q 411.132 182.318 411.132 178.677 Q 411.132 175.036 411.132 171.377 Q 410.92 170.723 410.654 170.299 Q 409.612 169.503 408.887 169.954 Q 408.162 170.405 407.844 171.377 Q 407.844 175.001 407.844 178.642 Q 407.844 182.283 407.844 185.906 Q 408.056 187.02 409.099 187.374 Z M 422.246 190.856 Q 418.446 190.131 417.827 186.401 Q 417.827 182.53 417.827 178.642 Q 417.827 174.753 417.827 170.847 Q 418.304 168.019 420.328 167.038 Q 422.352 166.057 424.95 166.64 Q 426.258 167.435 427.054 168.319 Q 427.849 169.203 428.15 170.847 Q 428.15 174.753 428.15 178.624 Q 428.15 182.495 428.15 186.331 Q 427.637 189.848 424.385 190.82 Q 423.978 190.82 423.704 190.838 Q 423.43 190.856 422.246 190.856 Z M 422.6 187.374 Q 424.19 187.374 424.632 185.977 Q 424.632 182.318 424.632 178.677 Q 424.632 175.036 424.632 171.377 Q 424.42 170.723 424.155 170.299 Q 423.112 169.503 422.387 169.954 Q 421.663 170.405 421.345 171.377 Q 421.345 175.001 421.345 178.642 Q 421.345 182.283 421.345 185.906 Q 421.557 187.02 422.6 187.374 Z" style="visibility: hidden;"/>
    <path d="M 343.123 84.558 Q 343.195 84.558 343.243 84.612 Q 343.291 84.666 343.267 84.738 Q 342.762 87.189 341.033 88.51 Q 340.192 89.147 339.207 89.471 Q 338.222 89.795 337.081 89.795 Q 335.003 89.795 333.585 88.798 Q 332.192 87.813 331.567 86.636 Q 331.351 86.228 331.195 85.813 Q 331.039 85.399 330.955 84.942 Q 330.799 84.054 330.799 80.906 Q 330.799 79.333 330.835 78.336 Q 330.871 77.339 330.955 76.883 Q 331.039 76.426 331.195 76.006 Q 331.351 75.585 331.567 75.177 Q 332.192 74.012 333.585 73.015 Q 334.991 72.006 337.081 72.006 Q 339.579 72.006 341.213 73.543 Q 342.87 75.093 343.267 77.219 Q 343.291 77.291 343.243 77.339 Q 343.195 77.387 343.123 77.387 L 340.372 77.387 Q 340.264 77.387 340.24 77.291 Q 340.084 76.81 339.795 76.396 Q 339.507 75.982 339.087 75.621 Q 338.294 74.913 337.081 74.913 Q 336.18 74.913 335.543 75.273 Q 334.907 75.633 334.522 76.102 Q 334.294 76.39 334.126 76.756 Q 333.958 77.123 333.862 77.507 Q 333.765 77.916 333.729 78.768 Q 333.693 79.621 333.693 80.906 Q 333.693 82.216 333.729 83.063 Q 333.765 83.909 333.862 84.318 Q 333.958 84.69 334.132 85.057 Q 334.306 85.423 334.522 85.699 Q 334.907 86.204 335.543 86.558 Q 336.18 86.912 337.081 86.912 Q 339.159 86.912 340.24 84.642 Q 340.264 84.618 340.3 84.588 Q 340.336 84.558 340.372 84.558 Z M 348.152 89.651 Q 348.007 89.651 348.007 89.507 L 348.007 74.756 L 343.431 74.756 Q 343.287 74.756 343.287 74.612 L 343.287 72.294 Q 343.287 72.15 343.431 72.15 L 355.467 72.15 Q 355.611 72.15 355.611 72.294 L 355.611 74.612 Q 355.611 74.756 355.467 74.756 L 350.902 74.756 L 350.902 89.507 Q 350.902 89.651 350.758 89.651 Z M 355.972 89.651 Q 355.828 89.651 355.828 89.507 L 355.828 87.068 Q 355.828 86.924 355.972 86.924 L 358.423 86.924 Q 358.555 86.924 358.555 87.068 L 358.555 89.507 Q 358.555 89.651 358.423 89.651 Z M 366.918 77.327 Q 366.918 76.162 366.299 75.507 Q 365.681 74.853 364.648 74.853 Q 363.615 74.853 363.002 75.507 Q 362.39 76.162 362.39 77.327 L 362.39 84.594 Q 362.39 85.771 363.002 86.42 Q 363.615 87.068 364.648 87.068 Q 365.681 87.068 366.299 86.42 Q 366.918 85.771 366.918 84.594 Z M 359.651 77.183 Q 359.651 74.756 361.176 73.447 Q 362.69 72.114 364.648 72.114 Q 365.621 72.114 366.492 72.456 Q 367.362 72.799 368.119 73.447 Q 368.876 74.12 369.266 75.051 Q 369.657 75.982 369.657 77.183 L 369.657 84.738 Q 369.657 87.153 368.119 88.474 Q 366.606 89.795 364.648 89.795 Q 362.69 89.795 361.176 88.474 Q 359.651 87.165 359.651 84.738 Z M 374.693 89.687 Q 374.549 89.687 374.549 89.543 L 374.549 75.273 Q 373.996 75.681 373.444 76.096 Q 372.891 76.51 372.339 76.907 Q 372.254 76.967 372.182 76.925 Q 372.11 76.883 372.11 76.786 L 372.11 74.18 Q 372.11 74.156 372.128 74.12 Q 372.146 74.084 372.17 74.06 L 374.645 72.27 L 377.155 72.27 Q 377.299 72.27 377.299 72.414 L 377.299 89.543 Q 377.299 89.687 377.155 89.687 Z" style="visibility: hidden;"/>
    <path d="M 307.855 122.961 H 622.2 V 148.125 H 307.855 V 122.961 Z" style="stroke: rgb(10, 150, 70); fill: rgb(10, 150, 70);"/>
    <path d="M 333.182 76.777 C 333.049 76.777 332.982 76.71 332.982 76.577 L 332.982 52.787 C 332.982 52.654 333.049 52.588 333.182 52.588 L 342.412 52.588 C 344.747 52.588 346.54 53.213 347.791 54.464 C 349.03 55.693 349.65 57.264 349.65 59.179 C 349.65 60.23 349.407 61.204 348.92 62.101 C 348.477 62.942 347.653 63.673 346.446 64.292 C 347.564 64.646 348.427 65.327 349.036 66.334 C 349.357 66.887 349.604 67.455 349.775 68.036 C 349.946 68.617 350.032 69.217 350.032 69.837 C 350.032 71.951 349.351 73.639 347.99 74.901 C 346.64 76.152 345.052 76.777 343.226 76.777 L 333.182 76.777 Z M 336.983 66.218 L 336.983 72.991 L 342.346 72.991 C 343.597 72.991 344.526 72.654 345.135 71.979 C 345.732 71.304 346.031 70.512 346.031 69.605 C 346.031 68.72 345.732 67.934 345.135 67.247 C 344.559 66.561 343.629 66.218 342.346 66.218 L 336.983 66.218 Z M 336.983 56.191 L 336.983 62.615 L 342.014 62.615 C 343.265 62.615 344.178 62.305 344.753 61.686 C 345.35 61.077 345.649 60.319 345.649 59.411 C 345.649 58.515 345.35 57.763 344.753 57.154 C 344.155 56.512 343.242 56.191 342.014 56.191 L 336.983 56.191 Z M 351.57 76.76 C 351.492 76.76 351.437 76.732 351.404 76.677 C 351.371 76.622 351.365 76.561 351.387 76.494 L 360.086 52.688 C 360.108 52.599 360.163 52.555 360.252 52.555 L 363.224 52.555 C 363.257 52.555 363.293 52.569 363.332 52.596 C 363.371 52.624 363.396 52.655 363.407 52.688 L 372.089 76.494 C 372.111 76.561 372.106 76.622 372.073 76.677 C 372.04 76.732 371.99 76.76 371.923 76.76 L 368.121 76.76 C 368.033 76.76 367.978 76.716 367.955 76.627 L 366.162 71.381 L 357.397 71.381 C 357.087 72.278 356.78 73.155 356.475 74.012 C 356.171 74.87 355.864 75.742 355.554 76.627 C 355.543 76.66 355.518 76.691 355.479 76.719 C 355.44 76.746 355.404 76.76 355.371 76.76 L 351.57 76.76 Z M 364.967 67.812 C 364.945 67.735 364.915 67.652 364.876 67.563 C 364.837 67.474 364.807 67.397 364.784 67.33 C 364.596 66.788 364.425 66.287 364.27 65.828 C 364.115 65.369 363.976 64.967 363.855 64.624 C 363.778 64.403 363.703 64.187 363.631 63.977 C 363.559 63.766 363.49 63.567 363.423 63.379 C 363.368 63.202 363.312 63.034 363.257 62.873 C 363.202 62.712 363.146 62.555 363.091 62.4 C 362.992 62.079 362.889 61.758 362.784 61.437 C 362.679 61.116 362.571 60.784 362.46 60.441 C 362.405 60.286 362.347 60.114 362.286 59.926 C 362.225 59.738 362.162 59.539 362.095 59.328 C 362.062 59.217 362.037 59.132 362.02 59.071 C 362.003 59.01 361.984 58.949 361.962 58.888 C 361.94 58.827 361.915 58.758 361.887 58.681 C 361.86 58.604 361.824 58.493 361.78 58.349 C 361.658 58.714 361.544 59.052 361.439 59.362 C 361.334 59.671 361.238 59.959 361.149 60.225 C 361.127 60.291 361.11 60.352 361.099 60.407 C 361.088 60.462 361.071 60.518 361.049 60.573 C 360.994 60.762 360.936 60.939 360.875 61.105 C 360.814 61.271 360.755 61.437 360.7 61.603 C 360.645 61.78 360.589 61.951 360.534 62.117 C 360.479 62.283 360.423 62.444 360.368 62.599 C 360.257 62.931 360.144 63.28 360.028 63.645 C 359.912 64.01 359.782 64.392 359.638 64.79 C 359.494 65.189 359.345 65.618 359.19 66.077 C 359.035 66.536 358.835 67.115 358.592 67.812 L 364.967 67.812 Z M 360.534 45.4 C 360.446 45.4 360.388 45.369 360.36 45.308 C 360.333 45.247 360.335 45.178 360.368 45.101 L 363.838 40.253 C 363.883 40.187 363.938 40.154 364.004 40.154 L 367.657 40.154 C 367.745 40.154 367.808 40.193 367.847 40.27 C 367.886 40.347 367.873 40.419 367.806 40.486 L 363.224 45.333 C 363.213 45.344 363.191 45.358 363.158 45.375 C 363.125 45.392 363.097 45.4 363.075 45.4 L 360.534 45.4 Z M 358.924 45.898 C 359.19 47.215 360.131 47.879 361.746 47.89 C 363.429 47.868 364.309 47.204 364.386 45.898 L 366.777 45.898 C 366.777 46.617 366.647 47.223 366.387 47.716 C 366.126 48.208 365.769 48.681 365.316 49.135 C 364.419 49.987 363.257 50.424 361.829 50.447 C 360.313 50.424 359.074 49.998 358.111 49.168 C 357.668 48.725 357.325 48.294 357.081 47.873 C 356.838 47.452 356.711 46.794 356.7 45.898 L 358.924 45.898 Z M 379.192 76.777 C 379.059 76.777 378.993 76.71 378.993 76.577 L 378.993 56.191 L 372.668 56.191 C 372.535 56.191 372.469 56.124 372.469 55.991 L 372.469 52.787 C 372.469 52.654 372.535 52.588 372.668 52.588 L 389.303 52.588 C 389.436 52.588 389.502 52.654 389.502 52.787 L 389.502 55.991 C 389.502 56.124 389.436 56.191 389.303 56.191 L 382.994 56.191 L 382.994 76.577 C 382.994 76.71 382.928 76.777 382.795 76.777 L 379.192 76.777 Z M 400.259 76.777 C 400.137 76.777 400.076 76.71 400.076 76.577 L 400.076 66.351 L 398.333 66.351 C 398.211 66.351 398.15 66.29 398.15 66.168 L 398.15 62.748 C 398.15 62.615 398.211 62.549 398.333 62.549 L 400.076 62.549 L 400.076 52.787 C 400.076 52.654 400.137 52.588 400.259 52.588 L 408.593 52.588 C 411.902 52.588 414.376 53.955 416.014 56.689 C 416.313 57.22 416.556 57.724 416.744 58.199 C 416.932 58.675 417.054 59.14 417.109 59.594 C 417.242 60.479 417.309 62.178 417.309 64.691 C 417.309 66.041 417.287 67.167 417.242 68.069 C 417.198 68.971 417.132 69.649 417.043 70.103 C 416.954 70.568 416.819 71.019 416.636 71.456 C 416.453 71.893 416.224 72.328 415.947 72.759 L 415.947 72.742 C 415.206 73.882 414.21 74.839 412.959 75.614 C 411.664 76.389 410.131 76.777 408.36 76.777 L 400.259 76.777 Z M 404.077 56.406 L 404.077 62.549 L 408.41 62.549 C 408.543 62.549 408.609 62.615 408.609 62.748 L 408.609 66.168 C 408.609 66.29 408.543 66.351 408.41 66.351 L 404.077 66.351 L 404.077 72.991 L 408.194 72.991 C 410.098 72.991 411.515 72.327 412.444 70.999 C 412.831 70.412 413.064 69.798 413.142 69.156 C 413.197 68.802 413.239 68.268 413.266 67.554 C 413.294 66.841 413.308 65.93 413.308 64.823 C 413.308 63.75 413.294 62.853 413.266 62.134 C 413.239 61.415 413.197 60.845 413.142 60.424 C 413.02 59.638 412.732 58.935 412.278 58.316 C 411.337 57.043 409.976 56.406 408.194 56.406 L 404.077 56.406 Z M 419.347 76.76 C 419.269 76.76 419.214 76.732 419.181 76.677 C 419.148 76.622 419.142 76.561 419.164 76.494 L 427.863 52.688 C 427.885 52.599 427.94 52.555 428.029 52.555 L 431.001 52.555 C 431.034 52.555 431.07 52.569 431.109 52.596 C 431.148 52.624 431.173 52.655 431.184 52.688 L 439.866 76.494 C 439.888 76.561 439.883 76.622 439.85 76.677 C 439.817 76.732 439.767 76.76 439.7 76.76 L 435.898 76.76 C 435.81 76.76 435.755 76.716 435.732 76.627 L 433.939 71.381 L 425.174 71.381 C 424.864 72.278 424.557 73.155 424.252 74.012 C 423.948 74.87 423.641 75.742 423.331 76.627 C 423.32 76.66 423.295 76.691 423.256 76.719 C 423.217 76.746 423.181 76.76 423.148 76.76 L 419.347 76.76 Z M 432.744 67.812 C 432.722 67.735 432.692 67.652 432.653 67.563 C 432.614 67.474 432.584 67.397 432.561 67.33 C 432.373 66.788 432.202 66.287 432.047 65.828 C 431.892 65.369 431.753 64.967 431.632 64.624 C 431.555 64.403 431.48 64.187 431.408 63.977 C 431.336 63.766 431.267 63.567 431.2 63.379 C 431.145 63.202 431.089 63.034 431.034 62.873 C 430.979 62.712 430.923 62.555 430.868 62.4 C 430.769 62.079 430.666 61.758 430.561 61.437 C 430.456 61.116 430.348 60.784 430.237 60.441 C 430.182 60.286 430.124 60.114 430.063 59.926 C 430.002 59.738 429.939 59.539 429.872 59.328 C 429.839 59.217 429.814 59.132 429.797 59.071 C 429.78 59.01 429.761 58.949 429.739 58.888 C 429.717 58.827 429.692 58.758 429.664 58.681 C 429.637 58.604 429.601 58.493 429.557 58.349 C 429.435 58.714 429.321 59.052 429.216 59.362 C 429.111 59.671 429.015 59.959 428.926 60.225 C 428.904 60.291 428.887 60.352 428.876 60.407 C 428.865 60.462 428.848 60.518 428.826 60.573 C 428.771 60.762 428.713 60.939 428.652 61.105 C 428.591 61.271 428.532 61.437 428.477 61.603 C 428.422 61.78 428.366 61.951 428.311 62.117 C 428.256 62.283 428.2 62.444 428.145 62.599 C 428.034 62.931 427.921 63.28 427.805 63.645 C 427.689 64.01 427.559 64.392 427.415 64.79 C 427.271 65.189 427.122 65.618 426.967 66.077 C 426.812 66.536 426.612 67.115 426.369 67.812 L 432.744 67.812 Z M 423.597 50.447 C 423.497 50.447 423.436 50.403 423.414 50.314 C 423.392 50.225 423.414 50.153 423.48 50.098 L 428.361 46.23 L 430.602 46.23 L 435.55 50.098 C 435.627 50.153 435.652 50.225 435.624 50.314 C 435.597 50.403 435.533 50.447 435.434 50.447 L 432.644 50.447 L 429.324 48.654 C 428.837 48.953 428.345 49.251 427.847 49.55 C 427.349 49.849 426.856 50.148 426.369 50.447 L 423.597 50.447 Z M 435.234 48.023 C 435.212 48.023 435.184 48.015 435.151 47.998 C 435.118 47.981 435.096 47.967 435.085 47.956 L 430.503 43.109 C 430.436 43.042 430.422 42.97 430.461 42.893 C 430.5 42.816 430.563 42.777 430.652 42.777 L 434.305 42.777 C 434.371 42.777 434.426 42.81 434.471 42.876 L 437.94 47.724 C 437.973 47.801 437.976 47.87 437.949 47.931 C 437.921 47.992 437.863 48.023 437.774 48.023 L 435.234 48.023 Z M 442.238 52.787 C 442.238 52.654 442.304 52.588 442.437 52.588 L 446.056 52.588 C 446.178 52.588 446.239 52.654 446.239 52.787 L 446.239 68.127 C 446.239 69.721 446.682 70.927 447.567 71.746 C 448.464 72.576 449.576 72.991 450.904 72.991 C 452.21 72.991 453.311 72.576 454.208 71.746 C 455.104 70.916 455.552 69.71 455.552 68.127 L 455.552 52.787 C 455.552 52.654 455.619 52.588 455.752 52.588 L 459.354 52.588 C 459.487 52.588 459.553 52.654 459.553 52.787 L 459.553 68.526 C 459.553 71.071 458.706 73.119 457.013 74.668 C 455.342 76.207 453.306 76.976 450.904 76.976 C 448.491 76.976 446.444 76.207 444.761 74.668 C 443.079 73.119 442.238 71.071 442.238 68.526 L 442.238 52.787 Z M 476.229 56.406 L 476.229 63.678 L 481.392 63.678 C 482.665 63.678 483.611 63.296 484.231 62.532 C 484.862 61.791 485.177 60.961 485.177 60.042 C 485.177 58.67 484.69 57.668 483.716 57.037 C 483.085 56.616 482.266 56.406 481.259 56.406 L 476.229 56.406 Z M 472.427 76.777 C 472.294 76.777 472.228 76.71 472.228 76.577 L 472.228 52.787 C 472.228 52.654 472.294 52.588 472.427 52.588 L 481.06 52.588 C 482.012 52.588 482.914 52.688 483.766 52.887 C 484.629 53.086 485.548 53.562 486.522 54.315 C 486.898 54.614 487.244 54.959 487.559 55.352 C 487.874 55.745 488.159 56.18 488.414 56.656 C 488.658 57.143 488.846 57.679 488.979 58.266 C 489.112 58.853 489.178 59.478 489.178 60.142 C 489.178 61.879 488.525 63.539 487.219 65.122 C 485.913 66.694 484.015 67.48 481.525 67.48 L 476.229 67.48 L 476.229 76.577 C 476.229 76.71 476.163 76.777 476.03 76.777 L 472.427 76.777 Z M 505.628 76.777 C 505.495 76.777 505.429 76.71 505.429 76.577 L 505.429 66.384 L 496.381 66.384 L 496.381 76.577 C 496.381 76.71 496.315 76.777 496.182 76.777 L 492.579 76.777 C 492.446 76.777 492.38 76.71 492.38 76.577 L 492.38 52.787 C 492.38 52.654 492.446 52.588 492.579 52.588 L 496.182 52.588 C 496.315 52.588 496.381 52.654 496.381 52.787 L 496.381 62.781 L 505.429 62.781 L 505.429 52.787 C 505.429 52.654 505.495 52.588 505.628 52.588 L 509.23 52.588 C 509.363 52.588 509.43 52.654 509.43 52.787 L 509.43 76.577 C 509.43 76.71 509.363 76.777 509.23 76.777 L 505.628 76.777 Z M 512.263 76.76 C 512.185 76.76 512.13 76.732 512.097 76.677 C 512.064 76.622 512.058 76.561 512.08 76.494 L 520.779 52.688 C 520.801 52.599 520.856 52.555 520.945 52.555 L 523.917 52.555 C 523.95 52.555 523.986 52.569 524.025 52.596 C 524.064 52.624 524.089 52.655 524.1 52.688 L 532.782 76.494 C 532.804 76.561 532.799 76.622 532.766 76.677 C 532.733 76.732 532.683 76.76 532.616 76.76 L 528.814 76.76 C 528.726 76.76 528.671 76.716 528.648 76.627 L 526.855 71.381 L 518.09 71.381 C 517.78 72.278 517.473 73.155 517.168 74.012 C 516.864 74.87 516.557 75.742 516.247 76.627 C 516.236 76.66 516.211 76.691 516.172 76.719 C 516.133 76.746 516.097 76.76 516.064 76.76 L 512.263 76.76 Z M 525.66 67.812 C 525.638 67.735 525.608 67.652 525.569 67.563 C 525.53 67.474 525.5 67.397 525.478 67.33 C 525.289 66.788 525.118 66.287 524.963 65.828 C 524.808 65.369 524.669 64.967 524.548 64.624 C 524.471 64.403 524.396 64.187 524.324 63.977 C 524.252 63.766 524.183 63.567 524.116 63.379 C 524.061 63.202 524.005 63.034 523.95 62.873 C 523.895 62.712 523.839 62.555 523.784 62.4 C 523.685 62.079 523.582 61.758 523.477 61.437 C 523.372 61.116 523.264 60.784 523.153 60.441 C 523.098 60.286 523.04 60.114 522.979 59.926 C 522.918 59.738 522.855 59.539 522.788 59.328 C 522.755 59.217 522.73 59.132 522.713 59.071 C 522.696 59.01 522.677 58.949 522.655 58.888 C 522.633 58.827 522.608 58.758 522.581 58.681 C 522.553 58.604 522.517 58.493 522.473 58.349 C 522.351 58.714 522.237 59.052 522.132 59.362 C 522.027 59.671 521.931 59.959 521.842 60.225 C 521.82 60.291 521.803 60.352 521.792 60.407 C 521.781 60.462 521.764 60.518 521.742 60.573 C 521.687 60.762 521.629 60.939 521.568 61.105 C 521.507 61.271 521.449 61.437 521.394 61.603 C 521.339 61.78 521.283 61.951 521.228 62.117 C 521.173 62.283 521.117 62.444 521.062 62.599 C 520.951 62.931 520.837 63.28 520.721 63.645 C 520.605 64.01 520.475 64.392 520.331 64.79 C 520.187 65.189 520.038 65.618 519.883 66.077 C 519.728 66.536 519.528 67.115 519.285 67.812 L 525.66 67.812 Z M 520.829 83.318 C 520.707 83.318 520.646 83.257 520.646 83.135 L 520.646 79.931 C 520.646 79.809 520.707 79.748 520.829 79.748 L 524.05 79.748 C 524.161 79.748 524.216 79.809 524.216 79.931 L 524.216 83.135 C 524.216 83.257 524.161 83.318 524.05 83.318 L 520.829 83.318 Z M 535.802 76.777 C 535.669 76.777 535.602 76.71 535.602 76.577 L 535.602 52.787 C 535.602 52.654 535.669 52.588 535.802 52.588 L 539.205 52.588 C 539.282 52.588 539.343 52.627 539.387 52.704 L 546.045 67.795 C 547.118 65.26 548.197 62.745 549.282 60.25 C 550.367 57.754 551.451 55.239 552.536 52.704 C 552.569 52.627 552.63 52.588 552.719 52.588 L 556.122 52.588 C 556.255 52.588 556.321 52.654 556.321 52.787 L 556.321 76.577 C 556.321 76.71 556.255 76.777 556.122 76.777 L 552.519 76.777 C 552.386 76.777 552.32 76.71 552.32 76.577 L 552.32 62.532 C 551.545 64.337 550.765 66.13 549.979 67.911 C 549.194 69.693 548.419 71.481 547.655 73.274 C 547.611 73.34 547.55 73.373 547.472 73.373 L 544.468 73.373 C 544.39 73.373 544.329 73.34 544.285 73.274 L 539.603 62.499 L 539.603 76.577 C 539.603 76.71 539.537 76.777 539.404 76.777 L 535.802 76.777 Z M 575.145 76.777 C 575.046 76.777 574.985 76.733 574.963 76.644 L 567.11 52.854 C 567.088 52.787 567.094 52.726 567.127 52.671 C 567.16 52.616 567.216 52.588 567.293 52.588 L 571.095 52.588 C 571.194 52.588 571.255 52.638 571.277 52.738 L 576.54 70.352 C 577.425 67.408 578.308 64.472 579.188 61.545 C 580.068 58.618 580.945 55.682 581.819 52.738 C 581.841 52.638 581.902 52.588 582.002 52.588 L 585.804 52.588 C 585.881 52.588 585.937 52.616 585.97 52.671 C 586.003 52.726 586.008 52.787 585.986 52.854 L 578.134 76.644 C 578.111 76.733 578.05 76.777 577.951 76.777 L 575.145 76.777 Z M 588.587 76.777 C 588.454 76.777 588.387 76.71 588.387 76.577 L 588.387 52.787 C 588.387 52.654 588.454 52.588 588.587 52.588 L 592.189 52.588 C 592.322 52.588 592.388 52.654 592.388 52.787 L 592.388 76.577 C 592.388 76.71 592.322 76.777 592.189 76.777 L 588.587 76.777 Z" style="fill: rgb(255, 255, 255);"/>
    <path style="fill: rgb(255, 255, 255);"/>
    <path d="M 408.134 124.377 C 408.035 124.377 407.974 124.333 407.952 124.244 L 400.099 100.454 C 400.077 100.387 400.083 100.326 400.116 100.271 C 400.149 100.216 400.205 100.188 400.282 100.188 L 404.083 100.188 C 404.183 100.188 404.244 100.238 404.266 100.338 L 409.529 117.952 C 410.414 115.008 411.297 112.072 412.177 109.145 C 413.057 106.218 413.934 103.282 414.808 100.338 C 414.83 100.238 414.891 100.188 414.991 100.188 L 418.792 100.188 C 418.87 100.188 418.925 100.216 418.958 100.271 C 418.991 100.326 418.997 100.387 418.975 100.454 L 411.123 124.244 C 411.1 124.333 411.039 124.377 410.94 124.377 L 408.134 124.377 Z M 440.036 97.117 C 440.103 97.172 440.169 97.233 440.236 97.299 C 440.966 98.063 441.342 99.059 441.365 100.288 C 441.409 101.782 440.739 102.999 439.356 103.94 C 438.781 104.206 438.155 104.4 437.48 104.521 L 437.48 116.126 C 437.48 118.671 436.633 120.719 434.94 122.268 C 433.269 123.807 431.232 124.576 428.83 124.576 C 426.417 124.576 424.37 123.807 422.688 122.268 C 421.005 120.719 420.164 118.671 420.164 116.126 L 420.164 100.387 C 420.164 100.254 420.231 100.188 420.364 100.188 L 423.983 100.188 C 424.104 100.188 424.165 100.254 424.165 100.387 L 424.165 115.727 C 424.165 117.321 424.608 118.527 425.494 119.346 C 426.39 120.176 427.502 120.591 428.83 120.591 C 430.136 120.591 431.237 120.176 432.134 119.346 C 433.031 118.516 433.479 117.31 433.479 115.727 L 433.479 100.387 C 433.479 100.254 433.545 100.188 433.678 100.188 L 437.281 100.188 C 437.414 100.188 437.48 100.254 437.48 100.387 L 437.48 102.363 C 438.487 101.931 439.002 101.261 439.024 100.354 C 439.013 99.623 438.797 99.098 438.376 98.777 L 440.036 97.117 Z M 447.054 112.291 C 447.054 113.497 447.071 114.49 447.104 115.271 C 447.137 116.051 447.198 116.629 447.286 117.006 C 447.375 117.349 447.499 117.689 447.66 118.027 C 447.821 118.364 448 118.66 448.199 118.915 C 448.554 119.38 449.024 119.775 449.611 120.102 C 450.197 120.428 450.905 120.591 451.736 120.591 C 452.555 120.591 453.257 120.428 453.844 120.102 C 454.431 119.775 454.896 119.38 455.239 118.915 C 455.704 118.35 456.008 117.714 456.152 117.006 C 456.329 116.297 456.417 114.726 456.417 112.291 C 456.417 111.084 456.395 110.091 456.351 109.311 C 456.306 108.53 456.24 107.957 456.152 107.592 C 456.074 107.238 455.958 106.892 455.803 106.555 C 455.648 106.217 455.466 105.915 455.255 105.65 C 455.089 105.44 454.887 105.235 454.649 105.036 C 454.411 104.837 454.143 104.662 453.844 104.513 C 453.545 104.364 453.219 104.242 452.865 104.148 C 452.51 104.053 452.134 104.006 451.736 104.006 C 450.905 104.006 450.197 104.172 449.611 104.505 C 449.024 104.837 448.554 105.219 448.199 105.65 C 447.989 105.915 447.807 106.217 447.652 106.555 C 447.497 106.892 447.375 107.238 447.286 107.592 C 447.198 107.969 447.137 108.55 447.104 109.336 C 447.071 110.121 447.054 111.106 447.054 112.291 Z M 450.142 130.918 C 450.02 130.918 449.959 130.857 449.959 130.735 L 449.959 127.531 C 449.959 127.409 450.02 127.348 450.142 127.348 L 453.363 127.348 C 453.474 127.348 453.529 127.409 453.529 127.531 L 453.529 130.735 C 453.529 130.857 453.474 130.918 453.363 130.918 L 450.142 130.918 Z M 460.584 97.067 C 460.673 97.144 460.756 97.222 460.833 97.299 C 461.564 98.063 461.94 99.059 461.962 100.288 C 462.007 101.782 461.337 102.999 459.953 103.94 C 459.732 104.039 459.505 104.133 459.273 104.222 C 459.295 104.267 459.323 104.317 459.356 104.372 C 459.765 105.125 460.042 105.91 460.186 106.729 C 460.263 107.15 460.321 107.819 460.36 108.738 C 460.399 109.657 460.418 110.841 460.418 112.291 C 460.418 115.135 460.341 116.994 460.186 117.869 C 460.109 118.3 460.001 118.71 459.862 119.097 C 459.724 119.484 459.561 119.855 459.372 120.21 C 458.785 121.272 457.839 122.268 456.533 123.198 C 455.227 124.117 453.628 124.576 451.736 124.576 C 449.821 124.576 448.211 124.117 446.905 123.198 C 445.621 122.291 444.691 121.295 444.115 120.21 L 444.132 120.21 C 443.922 119.833 443.745 119.454 443.601 119.072 C 443.457 118.691 443.346 118.29 443.269 117.869 C 443.202 117.448 443.15 116.776 443.111 115.852 C 443.072 114.927 443.053 113.74 443.053 112.291 C 443.053 110.841 443.072 109.657 443.111 108.738 C 443.15 107.819 443.202 107.15 443.269 106.729 C 443.346 106.308 443.457 105.904 443.601 105.517 C 443.745 105.13 443.922 104.748 444.132 104.372 L 444.115 104.372 C 444.691 103.298 445.621 102.302 446.905 101.383 C 448.2 100.454 449.81 99.989 451.736 99.989 C 453.639 99.989 455.238 100.454 456.533 101.383 C 457.02 101.738 457.458 102.098 457.845 102.463 C 458.996 102.042 459.588 101.339 459.621 100.354 C 459.61 99.601 459.372 99.065 458.907 98.744 L 460.584 97.067 Z M 468.887 124.377 C 468.754 124.377 468.688 124.31 468.688 124.177 L 468.688 103.791 L 462.363 103.791 C 462.23 103.791 462.164 103.724 462.164 103.591 L 462.164 100.387 C 462.164 100.254 462.23 100.188 462.363 100.188 L 478.998 100.188 C 479.131 100.188 479.197 100.254 479.197 100.387 L 479.197 103.591 C 479.197 103.724 479.131 103.791 478.998 103.791 L 472.689 103.791 L 472.689 124.177 C 472.689 124.31 472.623 124.377 472.49 124.377 L 468.887 124.377 Z M 502.064 124.377 C 501.997 124.377 501.942 124.344 501.898 124.277 L 496.851 115.711 C 496.01 117.15 495.169 118.577 494.328 119.994 C 493.487 121.411 492.645 122.838 491.804 124.277 C 491.76 124.344 491.705 124.377 491.638 124.377 L 487.571 124.377 C 487.482 124.377 487.421 124.346 487.388 124.285 C 487.355 124.224 487.36 124.155 487.405 124.078 L 494.626 111.975 C 493.486 110.05 492.357 108.135 491.24 106.231 C 490.122 104.328 488.999 102.413 487.87 100.487 C 487.825 100.41 487.82 100.34 487.853 100.279 C 487.886 100.218 487.942 100.188 488.019 100.188 L 492.103 100.188 C 492.17 100.188 492.225 100.221 492.269 100.288 L 496.851 108.256 C 497.615 106.928 498.379 105.603 499.142 104.28 C 499.906 102.958 500.67 101.627 501.433 100.288 C 501.477 100.221 501.532 100.188 501.599 100.188 L 505.683 100.188 C 505.76 100.188 505.816 100.218 505.849 100.279 C 505.882 100.34 505.877 100.41 505.832 100.487 L 499.076 111.975 C 500.293 114 501.5 116.018 502.695 118.027 C 503.89 120.036 505.097 122.053 506.314 124.078 C 506.358 124.155 506.364 124.224 506.331 124.285 C 506.298 124.346 506.237 124.377 506.148 124.377 L 502.064 124.377 Z M 509.004 124.377 C 508.871 124.377 508.805 124.31 508.805 124.177 L 508.805 100.387 C 508.805 100.254 508.871 100.188 509.004 100.188 L 524.211 100.188 C 524.344 100.188 524.41 100.254 524.41 100.387 L 524.41 103.807 C 524.41 103.94 524.344 104.006 524.211 104.006 L 512.806 104.006 L 512.806 110.381 L 522.501 110.381 C 522.634 110.381 522.701 110.448 522.701 110.581 L 522.701 113.801 C 522.701 113.923 522.634 113.984 522.501 113.984 L 512.806 113.984 L 512.806 120.591 L 524.211 120.591 C 524.344 120.591 524.41 120.658 524.41 120.791 L 524.41 124.177 C 524.41 124.31 524.344 124.377 524.211 124.377 L 509.004 124.377 Z" style="fill: rgb(255, 255, 255);"/>
    <path d="M 410.956 146.785 L 520.859 146.785 C 521.957 146.785 522.848 147.676 522.848 148.774 L 522.848 195.001 C 522.848 196.099 521.957 196.99 520.859 196.99 L 410.956 196.99 C 409.857 196.99 408.967 196.099 408.967 195.001 L 408.967 148.774 C 408.967 147.676 409.857 146.785 410.956 146.785 Z" style="fill: rgb(216, 216, 216); fill-opacity: 0; stroke-linejoin: round; stroke-linecap: round; stroke: rgb(255, 255, 255); stroke-width: 1.5px;"/>
    <path d="M 440.113 178.189 C 440.039 178.189 440.002 178.152 440.002 178.078 L 440.002 176.269 L 445.197 169.765 L 445.197 169.775 C 445.389 169.534 445.513 169.312 445.569 169.111 C 445.624 168.91 445.652 168.714 445.652 168.522 C 445.652 168.095 445.497 167.693 445.188 167.316 C 444.879 166.945 444.461 166.76 443.936 166.76 C 443.453 166.76 443.036 166.924 442.683 167.251 C 442.51 167.412 442.379 167.603 442.289 167.822 C 442.199 168.041 442.142 168.29 442.117 168.569 C 442.117 168.6 442.106 168.624 442.085 168.643 C 442.063 168.662 442.037 168.671 442.006 168.671 L 440.113 168.671 C 440.039 168.671 440.002 168.634 440.002 168.559 C 440.015 167.458 440.389 166.534 441.125 165.785 C 441.873 165.024 442.764 164.644 443.797 164.644 C 444.916 164.644 445.859 165.028 446.626 165.795 L 446.617 165.795 C 447.378 166.556 447.758 167.471 447.758 168.541 C 447.758 169.005 447.69 169.435 447.554 169.83 C 447.418 170.226 447.214 170.594 446.942 170.934 L 446.942 170.925 C 446.589 171.37 446.243 171.806 445.903 172.233 C 445.562 172.66 445.222 173.085 444.882 173.509 C 444.542 173.932 444.202 174.356 443.862 174.78 C 443.521 175.203 443.175 175.638 442.822 176.083 L 447.647 176.083 C 447.721 176.083 447.758 176.12 447.758 176.195 L 447.758 178.078 C 447.758 178.152 447.721 178.189 447.647 178.189 L 440.113 178.189 Z M 454.839 168.671 C 454.839 168.071 454.68 167.602 454.362 167.265 C 454.043 166.928 453.618 166.76 453.086 166.76 C 452.554 166.76 452.13 166.928 451.815 167.265 C 451.5 167.602 451.342 168.071 451.342 168.671 L 451.342 174.284 C 451.342 174.89 451.5 175.36 451.815 175.694 C 452.13 176.028 452.554 176.195 453.086 176.195 C 453.618 176.195 454.043 176.028 454.362 175.694 C 454.68 175.36 454.839 174.89 454.839 174.284 L 454.839 168.671 Z M 449.227 168.559 C 449.227 167.31 449.62 166.348 450.405 165.674 C 451.184 164.987 452.078 164.644 453.086 164.644 C 453.587 164.644 454.062 164.732 454.51 164.909 C 454.959 165.085 455.378 165.34 455.767 165.674 C 456.157 166.021 456.452 166.434 456.653 166.913 C 456.854 167.392 456.955 167.941 456.955 168.559 L 456.955 174.395 C 456.955 175.638 456.559 176.6 455.767 177.28 C 454.988 177.961 454.094 178.301 453.086 178.301 C 452.078 178.301 451.184 177.961 450.405 177.28 C 449.62 176.606 449.227 175.644 449.227 174.395 L 449.227 168.559 Z M 463.962 168.671 C 463.962 168.071 463.803 167.602 463.484 167.265 C 463.165 166.928 462.74 166.76 462.208 166.76 C 461.676 166.76 461.252 166.928 460.937 167.265 C 460.622 167.602 460.464 168.071 460.464 168.671 L 460.464 174.284 C 460.464 174.89 460.622 175.36 460.937 175.694 C 461.252 176.028 461.676 176.195 462.208 176.195 C 462.74 176.195 463.165 176.028 463.484 175.694 C 463.803 175.36 463.962 174.89 463.962 174.284 L 463.962 168.671 Z M 458.349 168.559 C 458.349 167.31 458.742 166.348 459.527 165.674 C 460.306 164.987 461.2 164.644 462.208 164.644 C 462.709 164.644 463.184 164.732 463.632 164.909 C 464.081 165.085 464.5 165.34 464.889 165.674 C 465.279 166.021 465.574 166.434 465.775 166.913 C 465.976 167.392 466.077 167.941 466.077 168.559 L 466.077 174.395 C 466.077 175.638 465.681 176.6 464.889 177.28 C 464.11 177.961 463.216 178.301 462.208 178.301 C 461.2 178.301 460.306 177.961 459.527 177.28 C 458.742 176.606 458.349 175.644 458.349 174.395 L 458.349 168.559 Z M 473.075 168.671 C 473.075 168.071 472.916 167.602 472.597 167.265 C 472.278 166.928 471.853 166.76 471.321 166.76 C 470.79 166.76 470.366 166.928 470.05 167.265 C 469.735 167.602 469.577 168.071 469.577 168.671 L 469.577 174.284 C 469.577 174.89 469.735 175.36 470.05 175.694 C 470.366 176.028 470.79 176.195 471.321 176.195 C 471.853 176.195 472.278 176.028 472.597 175.694 C 472.916 175.36 473.075 174.89 473.075 174.284 L 473.075 168.671 Z M 467.462 168.559 C 467.462 167.31 467.855 166.348 468.64 165.674 C 469.419 164.987 470.313 164.644 471.321 164.644 C 471.822 164.644 472.297 164.732 472.746 164.909 C 473.194 165.085 473.613 165.34 474.003 165.674 C 474.392 166.021 474.688 166.434 474.889 166.913 C 475.09 167.392 475.19 167.941 475.19 168.559 L 475.19 174.395 C 475.19 175.638 474.794 176.6 474.003 177.28 C 473.224 177.961 472.33 178.301 471.321 178.301 C 470.313 178.301 469.419 177.961 468.64 177.28 C 467.855 176.606 467.462 175.644 467.462 174.395 L 467.462 168.559 Z M 481.925 178.189 C 481.851 178.189 481.814 178.152 481.814 178.078 L 481.814 168.671 C 481.814 168.596 481.851 168.559 481.925 168.559 L 483.818 168.559 C 483.892 168.559 483.929 168.596 483.929 168.671 L 483.929 169.422 C 484.522 168.779 485.314 168.457 486.304 168.457 C 486.966 168.457 487.504 168.581 487.918 168.828 C 488.103 168.939 488.283 169.062 488.456 169.195 C 488.629 169.328 488.793 169.475 488.948 169.636 C 489.709 168.85 490.701 168.457 491.926 168.457 C 492.674 168.457 493.404 168.742 494.115 169.311 C 494.82 169.886 495.173 170.724 495.173 171.825 L 495.173 178.078 C 495.173 178.152 495.136 178.189 495.062 178.189 L 493.169 178.189 C 493.095 178.189 493.058 178.152 493.058 178.078 L 493.058 172.474 C 493.058 171.862 492.894 171.392 492.566 171.064 C 492.232 170.73 491.815 170.563 491.314 170.563 C 490.794 170.563 490.367 170.73 490.033 171.064 C 489.706 171.392 489.542 171.862 489.542 172.474 L 489.542 178.078 C 489.542 178.152 489.508 178.189 489.44 178.189 L 487.547 178.189 C 487.479 178.189 487.445 178.152 487.445 178.078 L 487.445 172.474 C 487.445 171.868 487.278 171.398 486.944 171.064 C 486.61 170.73 486.193 170.563 485.692 170.563 C 485.172 170.563 484.745 170.73 484.411 171.064 C 484.09 171.386 483.929 171.856 483.929 172.474 L 483.929 178.078 C 483.929 178.152 483.892 178.189 483.818 178.189 L 481.925 178.189 Z" style="fill: rgb(255, 255, 255);"/>
    <path d="M 416.57 161.836 L 419.913 161.836 L 419.913 189.281 L 416.57 189.281 L 416.57 161.836 Z M 418.239 154.297 L 423.3 161.836 L 413.178 161.836 L 418.239 154.297 Z" style="fill: rgb(255, 255, 255);"/>
    <path d="M 511.18 161.836 L 514.523 161.836 L 514.523 189.281 L 511.18 189.281 L 511.18 161.836 Z M 512.849 154.297 L 517.91 161.836 L 507.788 161.836 L 512.849 154.297 Z" style="fill: rgb(255, 255, 255);"/>
  </g>
</svg>