<?xml version="1.0" encoding="UTF-8" standalone="no"?>
<svg
   xmlns:dc="http://purl.org/dc/elements/1.1/"
   xmlns:cc="http://creativecommons.org/ns#"
   xmlns:rdf="http://www.w3.org/1999/02/22-rdf-syntax-ns#"
   xmlns:svg="http://www.w3.org/2000/svg"
   xmlns="http://www.w3.org/2000/svg"
   xmlns:sodipodi="http://sodipodi.sourceforge.net/DTD/sodipodi-0.dtd"
   xmlns:inkscape="http://www.inkscape.org/namespaces/inkscape"
   sodipodi:docname="Vietnam_road_sign_IE456a.svg"
   inkscape:version="1.0 (4035a4fb49, 2020-05-01)"
   id="svg9491"
   version="1.1"
   viewBox="0 0 349.99999 286.31719"
   height="286.3172mm"
   width="350mm">
  <defs
     id="defs9485">
    <clipPath
       id="clipPath2832">
      <path
         inkscape:connector-curvature="0"
         id="path2834"
         d="M -0.24,595.138 H 317.24 V -0.138 H -0.24 Z" />
    </clipPath>
    <clipPath
       id="clipPath2840">
      <path
         inkscape:connector-curvature="0"
         id="path2842"
         d="M 0.03,595.32 H 317.49 V 0 H 0.03 Z" />
    </clipPath>
    <clipPath
       id="clipPath2858">
      <path
         inkscape:connector-curvature="0"
         id="path2860"
         d="M -0.24,595.138 H 317.24 V -0.138 H -0.24 Z" />
    </clipPath>
    <clipPath
       id="clipPath2864">
      <path
         inkscape:connector-curvature="0"
         id="path2866"
         d="M 0.03,595.32 H 317.49 V 0 H 0.03 Z" />
    </clipPath>
    <clipPath
       id="clipPath3306">
      <path
         inkscape:connector-curvature="0"
         id="path3308"
         d="m 199.238,472.977 v -29.74 h 29.744 v 29.74" />
    </clipPath>
    <clipPath
       id="clipPath3322">
      <path
         inkscape:connector-curvature="0"
         id="path3324"
         d="M -0.24,595.138 H 317.24 V -0.138 H -0.24 Z" />
    </clipPath>
    <clipPath
       id="clipPath3330">
      <path
         inkscape:connector-curvature="0"
         id="path3332"
         d="M 0.03,595.32 H 317.49 V 0 H 0.03 Z" />
    </clipPath>
    <clipPath
       id="clipPath3344">
      <path
         inkscape:connector-curvature="0"
         id="path3346"
         d="m 88.233,387.221 v -28.335 h 32.08 v 28.335" />
    </clipPath>
    <clipPath
       id="clipPath3462">
      <path
         inkscape:connector-curvature="0"
         id="path3464"
         d="M -0.24,595.138 H 317.24 V -0.138 H -0.24 Z" />
    </clipPath>
    <clipPath
       id="clipPath3470">
      <path
         inkscape:connector-curvature="0"
         id="path3472"
         d="M 0.03,595.32 H 317.49 V 0 H 0.03 Z" />
    </clipPath>
    <clipPath
       id="clipPath3490">
      <path
         inkscape:connector-curvature="0"
         id="path3492"
         d="M -0.24,595.138 H 317.24 V -0.138 H -0.24 Z" />
    </clipPath>
    <clipPath
       id="clipPath3496">
      <path
         inkscape:connector-curvature="0"
         id="path3498"
         d="M 0.03,595.32 H 317.49 V 0 H 0.03 Z" />
    </clipPath>
    <clipPath
       id="clipPath3520">
      <path
         inkscape:connector-curvature="0"
         id="path3522"
         d="m 254.788,326.215 v -28.309 h 28.326 v 28.309" />
    </clipPath>
    <clipPath
       id="clipPath3544">
      <path
         inkscape:connector-curvature="0"
         id="path3546"
         d="m 145.049,326.142 v -28.333 h 28.342 v 28.333" />
    </clipPath>
    <clipPath
       id="clipPath3682">
      <path
         inkscape:connector-curvature="0"
         id="path3684"
         d="M -0.24,595.138 H 317.24 V -0.138 H -0.24 Z" />
    </clipPath>
    <clipPath
       id="clipPath3690">
      <path
         inkscape:connector-curvature="0"
         id="path3692"
         d="M 0.03,595.32 H 317.49 V 0 H 0.03 Z" />
    </clipPath>
    <clipPath
       id="clipPath3980">
      <path
         inkscape:connector-curvature="0"
         id="path3982"
         d="M -0.24,595.138 H 317.24 V -0.138 H -0.24 Z" />
    </clipPath>
    <clipPath
       id="clipPath3988">
      <path
         inkscape:connector-curvature="0"
         id="path3990"
         d="M 0.03,595.32 H 317.49 V 0 H 0.03 Z" />
    </clipPath>
    <clipPath
       id="clipPath4010">
      <path
         inkscape:connector-curvature="0"
         id="path4012"
         d="M -0.24,595.138 H 317.24 V -0.138 H -0.24 Z" />
    </clipPath>
    <clipPath
       id="clipPath4016">
      <path
         inkscape:connector-curvature="0"
         id="path4018"
         d="M 0.03,595.32 H 317.49 V 0 H 0.03 Z" />
    </clipPath>
    <clipPath
       id="clipPath4062">
      <path
         inkscape:connector-curvature="0"
         id="path4064"
         d="m 200.163,177.773 v -28.284 h 28.283 v 28.284" />
    </clipPath>
    <clipPath
       id="clipPath4090">
      <path
         inkscape:connector-curvature="0"
         id="path4092"
         d="m 34.886,177.515 v -51.632 h 30.367 v 51.632" />
    </clipPath>
    <clipPath
       id="clipPath4106">
      <path
         inkscape:connector-curvature="0"
         id="path4108"
         d="m 34.886,177.515 v -51.632 h 30.367 v 51.632" />
    </clipPath>
    <clipPath
       id="clipPath4272">
      <path
         inkscape:connector-curvature="0"
         id="path4274"
         d="m 34.886,177.515 v -51.632 h 30.367 v 51.632" />
    </clipPath>
    <clipPath
       id="clipPath4304">
      <path
         inkscape:connector-curvature="0"
         id="path4306"
         d="m 254.653,176.442 v -48.167 h 28.317 v 48.167" />
    </clipPath>
    <clipPath
       id="clipPath4310">
      <path
         inkscape:connector-curvature="0"
         id="path4312"
         d="m 253.565,177.983 h 31.181 V 128.8 h -31.181 z" />
    </clipPath>
    <clipPath
       id="clipPath4316">
      <path
         inkscape:connector-curvature="0"
         id="path4318"
         d="M -0.24,595.138 H 317.24 V -0.138 H -0.24 Z" />
    </clipPath>
    <clipPath
       id="clipPath4322">
      <path
         inkscape:connector-curvature="0"
         id="path4324"
         d="M 0.03,595.32 H 317.49 V 0 H 0.03 Z" />
    </clipPath>
    <clipPath
       id="clipPath4456">
      <path
         inkscape:connector-curvature="0"
         id="path4458"
         d="M -0.24,595.138 H 317.24 V -0.138 H -0.24 Z" />
    </clipPath>
    <clipPath
       id="clipPath4464">
      <path
         inkscape:connector-curvature="0"
         id="path4466"
         d="M 0.03,595.32 H 317.49 V 0 H 0.03 Z" />
    </clipPath>
  </defs>
  <sodipodi:namedview
     inkscape:document-rotation="0"
     inkscape:measure-end="0,0"
     inkscape:measure-start="0,0"
     inkscape:window-maximized="1"
     inkscape:window-y="-9"
     inkscape:window-x="-9"
     inkscape:window-height="1001"
     inkscape:window-width="1920"
     showgrid="true"
     inkscape:current-layer="layer1"
     inkscape:document-units="mm"
     inkscape:cy="225.78603"
     inkscape:cx="240.6942"
     inkscape:zoom="0.13245703"
     inkscape:pageshadow="2"
     inkscape:pageopacity="0.0"
     borderopacity="1.0"
     bordercolor="#666666"
     pagecolor="#ffffff"
     id="base">
    <inkscape:grid
       originy="9.9999992e-06"
       originx="0.0001"
       type="xygrid"
       id="grid46396" />
  </sodipodi:namedview>
  <metadata
     id="metadata9488">
    <rdf:RDF>
      <cc:Work
         rdf:about="">
        <dc:format>image/svg+xml</dc:format>
        <dc:type
           rdf:resource="http://purl.org/dc/dcmitype/StillImage" />
        <dc:title />
      </cc:Work>
    </rdf:RDF>
  </metadata>
  <g
     transform="translate(-1813.0699,-309.57973)"
     id="layer1"
     inkscape:groupmode="layer"
     inkscape:label="Layer 1">
    <path
       id="path1436"
       d="m 1813.0699,595.89694 h 350 V 309.57973 h -350 z m 0,0"
       style="opacity:1;fill:#00a34f;fill-opacity:1;fill-rule:nonzero;stroke:none;stroke-width:0.352777" />
    <path
       id="path4367-8"
       d="m 1838.9548,439.72483 c 46.3823,0 46.3823,0 46.3823,0 2.7891,0 5.0456,2.2528 5.0456,5.03721 0,46.32997 0,46.32997 0,46.32997 0,2.78424 -2.2565,5.03536 -5.0456,5.03536 -46.3823,0 -46.3823,0 -46.3823,0 -2.7214,0 -4.9748,-2.25112 -4.9748,-5.03536 0,-46.32997 0,-46.32997 0,-46.32997 0,-2.78441 2.2534,-5.03721 4.9748,-5.03721 z m 0,0"
       style="opacity:1;fill:#000000;fill-opacity:1;fill-rule:nonzero;stroke:none;stroke-width:0.352777" />
    <path
       id="path4369-2"
       d="m 1838.9548,494.60316 c -1.9219,0 -3.5144,-1.58986 -3.5144,-3.51115 0,-46.32997 0,-46.32997 0,-46.32997 0,-1.92138 1.5925,-3.51146 3.5144,-3.51146 46.3823,0 46.3823,0 46.3823,0 1.9925,0 3.5204,1.59008 3.5204,3.51146 0,46.32997 0,46.32997 0,46.32997 0,1.92129 -1.5279,3.51115 -3.5204,3.51115 z m 0,0"
       style="opacity:1;fill:#ffffff;fill-opacity:1;fill-rule:nonzero;stroke:none;stroke-width:0.352777" />
    <path
       style="opacity:1;fill:#000000;fill-opacity:1;fill-rule:nonzero;stroke:none;stroke-width:0.352777"
       d="m 1922.9663,439.72483 c 46.3823,0 46.3823,0 46.3823,0 2.7891,0 5.0456,2.2528 5.0456,5.03721 0,46.32997 0,46.32997 0,46.32997 0,2.78424 -2.2565,5.03536 -5.0456,5.03536 -46.3823,0 -46.3823,0 -46.3823,0 -2.7214,0 -4.9748,-2.25112 -4.9748,-5.03536 0,-46.32997 0,-46.32997 0,-46.32997 0,-2.78441 2.2534,-5.03721 4.9748,-5.03721 z m 0,0"
       id="path33347-7" />
    <path
       style="opacity:1;fill:#ffffff;fill-opacity:1;fill-rule:nonzero;stroke:none;stroke-width:0.352777"
       d="m 1922.9663,494.60316 c -1.9219,0 -3.5143,-1.58986 -3.5143,-3.51115 0,-46.32997 0,-46.32997 0,-46.32997 0,-1.92138 1.5924,-3.51146 3.5143,-3.51146 46.3823,0 46.3823,0 46.3823,0 1.9927,0 3.5205,1.59008 3.5205,3.51146 0,46.32997 0,46.32997 0,46.32997 0,1.92129 -1.5278,3.51115 -3.5205,3.51115 z m 0,0"
       id="path33349-9" />
    <path
       id="path33351-1"
       d="m 2007.2109,439.72483 c 46.3818,0 46.3818,0 46.3818,0 2.7891,0 5.0457,2.2528 5.0457,5.03721 0,46.32997 0,46.32997 0,46.32997 0,2.78424 -2.2566,5.03536 -5.0457,5.03536 -46.3818,0 -46.3818,0 -46.3818,0 -2.7214,0 -4.9749,-2.25112 -4.9749,-5.03536 0,-46.32997 0,-46.32997 0,-46.32997 0,-2.78441 2.2535,-5.03721 4.9749,-5.03721 z m 0,0"
       style="opacity:1;fill:#000000;fill-opacity:1;fill-rule:nonzero;stroke:none;stroke-width:0.352777" />
    <path
       id="path33353-6"
       d="m 2007.2109,494.60316 c -1.9223,0 -3.5143,-1.58986 -3.5143,-3.51115 0,-46.32997 0,-46.32997 0,-46.32997 0,-1.92138 1.592,-3.51146 3.5143,-3.51146 46.3818,0 46.3818,0 46.3818,0 1.9931,0 3.521,1.59008 3.521,3.51146 0,46.32997 0,46.32997 0,46.32997 0,1.92129 -1.5279,3.51115 -3.521,3.51115 z m 0,0"
       style="opacity:1;fill:#ffffff;fill-opacity:1;fill-rule:nonzero;stroke:none;stroke-width:0.352777" />
    <path
       d="m 2030.6373,447.54507 c -0.255,0 -0.5031,0.0132 -0.7498,0.0396 -0.3122,0.0308 -0.6153,0.0897 -0.9139,0.15921 -0.1759,0.0396 -0.3518,0.0827 -0.5224,0.13634 -0.6905,0.21636 -1.3396,0.53143 -1.9272,0.92952 -0.1979,0.13281 -0.387,0.27443 -0.5681,0.42483 -0.3651,0.30081 -0.6998,0.63826 -1.0001,1.00227 -0.1495,0.18207 -0.2903,0.36985 -0.4266,0.56587 0,0 0,0.003 0,0.003 -0.048,0.0739 -0.092,0.15392 -0.1407,0.22957 -0.2948,0.4728 -0.5415,0.97816 -0.7249,1.5136 0,0.0611 -0.048,0.12006 -0.065,0.18163 0,0 0,0.001 0,0.001 -0.071,0.22957 -0.1321,0.46388 -0.1805,0.70225 0,0 0,10e-4 0,10e-4 0,0.0308 0,0.0637 0,0.0955 -0.088,0.4488 -0.1363,0.90899 -0.1363,1.38176 0,0.25684 0,0.5109 0.044,0.76136 0,0.0396 0,0.0739 0,0.11127 0.4003,3.44399 3.1431,6.11475 6.5633,6.45884 0.2463,0.0264 0.497,0.0396 0.7503,0.0396 0.2507,0 0.5036,-0.0132 0.7499,-0.0396 0.044,-0.003 0.067,-0.009 0.097,-0.0132 3.4167,-0.38965 6.1442,-3.09754 6.4908,-6.56796 0.044,-0.24672 0.044,-0.49696 0.044,-0.74996 0,-0.25288 0,-0.50329 -0.044,-0.74997 -0.053,-0.49269 -0.1495,-0.97192 -0.2947,-1.4318 0,0 0,-0.003 0,-0.003 -0.1451,-0.4605 -0.3342,-0.90067 -0.561,-1.31812 -0.2288,-0.41736 -0.4944,-0.81052 -0.7957,-1.17497 -0.7533,-0.91088 -1.7205,-1.64093 -2.8225,-2.10903 -0.4407,-0.18734 -0.9029,-0.33292 -1.3818,-0.43186 -0.4789,-0.0985 -0.975,-0.14997 -1.4817,-0.14997 z m -10.8952,15.66534 v 2.72718 0.066 h 3.3934 c 0.2462,0 0.4952,0.15128 0.6043,0.39536 0.044,0.0844 0.057,0.17679 0.057,0.27266 v 18.11981 c 0,0.13194 -0.061,0.25904 -0.1451,0.37031 -0.044,0.0308 -0.044,0.0607 -0.061,0.0862 -0.061,0.0624 -0.1363,0.11566 -0.211,0.15217 -0.079,0.0352 -0.1584,0.0567 -0.2419,0.0567 h -3.3934 v 2.78854 h 21.5925 v -2.78854 h -3.5887 c -0.1407,0 -0.2638,-0.0492 -0.3738,-0.11611 -0.048,-0.0308 -0.1013,-0.0554 -0.1407,-0.0932 -0.1319,-0.1249 -0.2155,-0.29025 -0.2155,-0.4568 v -21.58106 z"
       style="opacity:1;fill:#000000;fill-opacity:1;fill-rule:nonzero;stroke:none;stroke-width:0.352777"
       id="path1988-0" />
    <path
       style="opacity:1;fill:#000000;fill-opacity:1;fill-rule:nonzero;stroke:none;stroke-width:0.352777"
       d="m 2090.9897,439.72483 c 46.3819,0 46.3819,0 46.3819,0 2.7891,0 5.0456,2.2528 5.0456,5.03721 0,46.32997 0,46.32997 0,46.32997 0,2.78424 -2.2565,5.03536 -5.0456,5.03536 -46.3819,0 -46.3819,0 -46.3819,0 -2.7213,0 -4.9748,-2.25112 -4.9748,-5.03536 0,-46.32997 0,-46.32997 0,-46.32997 0,-2.78441 2.2535,-5.03721 4.9748,-5.03721 z m 0,0"
       id="path33357-8" />
    <path
       style="opacity:1;fill:#ffffff;fill-opacity:1;fill-rule:nonzero;stroke:none;stroke-width:0.352777"
       d="m 2090.9897,494.60316 c -1.9222,0 -3.5142,-1.58986 -3.5142,-3.51115 0,-46.32997 0,-46.32997 0,-46.32997 0,-1.92138 1.592,-3.51146 3.5142,-3.51146 46.3819,0 46.3819,0 46.3819,0 1.9931,0 3.5209,1.59008 3.5209,3.51146 0,46.32997 0,46.32997 0,46.32997 0,1.92129 -1.5278,3.51115 -3.5209,3.51115 z m 0,0"
       id="path33359-7" />
    <path
       id="path39862-3"
       style="opacity:1;fill:#000000;fill-opacity:1;fill-rule:nonzero;stroke:none;stroke-width:0.352777"
       d="m 1945.6798,443.96136 c -0.5273,0 -0.9249,0.26387 -1.0559,0.7256 l -1.3893,3.84139 h -3.3076 c -0.6663,0 -1.2591,0.26387 -1.6553,0.72559 l -1.7917,1.98769 h 18.9318 l -1.7926,-1.98769 c -0.3958,-0.4619 -1.0533,-0.72559 -1.6527,-0.72559 h -3.3075 l -1.3902,-3.84139 c -0.132,-0.46186 -0.5951,-0.7256 -1.0551,-0.7256 z m -5.2923,9.52894 -7.7425,4.50027 h 1.3247 l 7.8093,-4.50027 z m 2.5837,0 -2.5837,4.50027 h 0.7256 l 2.6492,-4.50027 z m 2.6414,0 v 4.50027 h 0.6649 v -4.50027 z m 2.5172,0 2.5843,4.50027 h 0.7911 l -2.5828,-4.50027 z m 1.9861,0 7.8066,4.50027 h 1.3251 l -7.8084,-4.50027 z m -4.1696,14.92442 c -2.9606,0 -5.9212,0.16492 -8.8674,0.49503 l -2.5164,6.28667 c -3.0441,3.24248 -3.4391,8.13864 -0.8567,11.77583 v 4.23816 h 2.5108 v -4.23816 h 19.4591 v 4.23816 h 2.5102 v -4.23816 c 2.517,-3.63719 2.1897,-8.53335 -0.8575,-11.77583 l -2.5173,-6.28667 c -2.9444,-0.32984 -5.9046,-0.49503 -8.8648,-0.49503 z m 0,1.68755 c 2.5635,0 5.127,0.13149 7.6742,0.39448 l 1.9253,4.69975 h -19.1957 l 1.9228,-4.69975 c 2.5472,-0.26299 5.1103,-0.39448 7.6734,-0.39448 z m -9.5962,6.94612 c 1.0613,0 1.9228,0.86325 1.9228,1.91808 0,1.06102 -0.8615,1.92387 -1.9228,1.92387 -1.055,0 -1.9174,-0.86285 -1.9174,-1.92387 0,-1.05483 0.8624,-1.91808 1.9174,-1.91808 z m 19.1957,0 c 1.0533,0 1.9162,0.86325 1.9162,1.91808 0,1.06102 -0.8629,1.92387 -1.9162,1.92387 -1.128,0 -1.9891,-0.86285 -1.9891,-1.92387 0,-1.05483 0.8611,-1.91808 1.9891,-1.91808 z m -15.8871,2.51723 h 2.7147 v 3.04389 h -3.5059 c -0.3959,-1.1266 -0.066,-2.31832 0.7912,-3.04389 z m 3.9083,0 h 4.7638 v 3.04389 h -4.7638 z m 5.8891,0 h 2.7082 c 0.8647,0.72557 1.1923,1.91729 0.8647,3.04389 h -3.5729 z" />
    <path
       sodipodi:nodetypes="ccccccccccccccccccccccccccccccccccccccc"
       inkscape:connector-curvature="0"
       style="opacity:1;fill:#000000;fill-opacity:1;fill-rule:nonzero;stroke:none;stroke-width:0.0591872"
       d="m 2100.5793,456.18226 c -4.3078,0.53245 -6.738,2.56671 -6.738,2.56671 -0.8941,0.70243 -1.8884,1.45248 -1.9003,2.70256 v 7.77429 c 0,0.37953 1.6057,0.3637 1.6043,0 v -2.01145 l 26.6549,6.87352 v 2.9123 c 0,0.47132 2.3524,0.70009 2.3445,-0.61763 l 0.1627,-1.93682 11.7608,-3.2825 v 2.03616 c 0,0.23661 1.8892,0.39756 1.8999,-0.51829 v -6.28116 c 0,-1.2793 -0.5076,-2.38575 -1.6044,-2.75191 -1.1734,-0.29422 -2.465,-0.39142 -3.517,-0.14821 0,0 -4.2386,0.67318 -5.7629,2.25825 -7.3281,-3.0569 -14.3096,-3.90594 -18.6091,-4.29441 v -2.96163 c 0,-0.73792 -1.9271,-1.78249 -2.7147,-1.97441 -0.9438,-0.33996 -2.3234,-0.44727 -3.5785,-0.34568 z m 4.0719,4.7633 c 0.7666,0.19043 0.8356,0.77556 0,1.02422 -1.1535,0.26519 -3.2508,0.8636 -3.8745,1.30866 -0.6016,0.47457 -0.7322,1.27929 -0.3562,2.19598 -0.2155,0.0955 -0.7129,0.076 -0.9504,0 -0.9117,-0.29994 -1.9522,-0.78985 -2.7147,-1.41915 -0.4569,-0.39844 -0.5155,-0.81513 -0.3563,-1.13529 0.3431,-0.66756 1.541,-1.16121 3.2949,-1.61656 1.0397,-0.30081 4.196,-0.50285 4.9608,-0.35798 z m 8.4901,2.4927 c 2.7499,0.554 8.0498,2.233 10.44,3.41826 -0.632,0.27838 -2.2403,2.5851 -2.1224,4.01058 l -0.2946,0.0132 -16.2149,-4.02289 c -1.4675,-0.46239 -2.1386,-1.01643 -2.7768,-1.60424 -0.4398,-0.3813 -0.7788,-0.92267 -0.6042,-1.39442 0.1979,-0.41736 1.033,-0.66192 1.4807,-0.72811 4.8789,-0.9279 8.1905,-0.0396 10.0939,0.30829 z"
       id="path1718-7" />
    <path
       sodipodi:nodetypes="ssccccccccscssccccccccsssssscsssscssccccsssccscsscsccssccssscscsssscsc"
       d="m 1825.39,311.57437 c -5.7779,0 -10.4862,4.70577 -10.4862,10.48371 v 86.27879 5.67937 17.35393 13.15636 54.57079 5.26347 17.25168 13.67451 48.11419 c 0,5.77797 4.7083,10.48375 10.4862,10.48375 h 325.2385 c 5.7779,0 10.4862,-4.70578 10.4862,-10.48375 v -48.11419 -13.67451 -17.25168 -5.26347 -54.57079 -13.15636 -17.35393 -5.67937 -86.27879 c 0,-5.77794 -4.7083,-10.48371 -10.4862,-10.48371 z m 0,3.64757 h 325.2385 c 3.8194,0 6.8386,3.01666 6.8386,6.83614 v 86.27879 5.67937 c 0,3.81944 -3.0192,6.83838 -6.8386,6.83838 H 1825.39 c -3.8195,0 -6.8386,-3.01894 -6.8386,-6.83838 v -5.67937 -86.27879 c 0,-3.81948 3.0191,-6.83614 6.8386,-6.83614 z m 332.0771,106.72357 v 1.49539 c -0.3078,-0.26607 -0.6355,-0.50878 -0.9727,-0.73862 0.3386,-0.23133 0.6618,-0.48812 0.9727,-0.75677 z M 1825.39,424.5295 h 325.2385 c 3.8194,0 6.8386,3.02119 6.8386,6.84067 v 13.15636 54.57079 5.26347 c 0,3.57593 -2.6462,6.44807 -6.1182,6.79977 -0.2375,-0.0176 -0.4768,-0.0352 -0.7204,-0.0352 H 1825.39 c -0.2418,0 -0.481,0.022 -0.7203,0.0352 -3.4721,-0.35183 -6.1183,-3.22384 -6.1183,-6.79977 v -5.26347 -54.57079 -13.15636 c 0,-3.81948 3.0191,-6.84067 6.8386,-6.84067 z m -0.7089,90.28092 c 9e-4,8e-5 0,-10e-5 0,0 0.2331,0.0176 0.4671,0.0352 0.7045,0.0352 h 325.2389 c 0.2375,0 0.4706,-0.0176 0.7041,-0.0352 0,-10e-5 0,8e-5 0,0 3.4769,0.34742 6.1293,3.22282 6.1293,6.80205 v 13.67451 48.11419 c 0,3.81953 -3.0188,6.83614 -6.8382,6.83614 h -325.2389 c -3.8195,0 -6.8386,-3.01661 -6.8386,-6.83614 v -48.11419 -13.67451 c 0,-3.57923 2.6528,-6.45463 6.1297,-6.80205 z"
       style="color:#000000;font-style:normal;font-variant:normal;font-weight:normal;font-stretch:normal;font-size:medium;line-height:normal;font-family:sans-serif;font-variant-ligatures:normal;font-variant-position:normal;font-variant-caps:normal;font-variant-numeric:normal;font-variant-alternates:normal;font-variant-east-asian:normal;font-feature-settings:normal;font-variation-settings:normal;text-indent:0;text-align:start;text-decoration:none;text-decoration-line:none;text-decoration-style:solid;text-decoration-color:#000000;letter-spacing:normal;word-spacing:normal;text-transform:none;writing-mode:lr-tb;direction:ltr;text-orientation:mixed;dominant-baseline:auto;baseline-shift:baseline;text-anchor:start;white-space:normal;shape-padding:0;shape-margin:0;inline-size:0;clip-rule:nonzero;display:inline;overflow:visible;visibility:visible;opacity:1;isolation:auto;mix-blend-mode:normal;color-interpolation:sRGB;color-interpolation-filters:linearRGB;solid-color:#000000;solid-opacity:1;vector-effect:none;fill:#ffffff;fill-opacity:1;fill-rule:evenodd;stroke:none;stroke-width:0.829735;stroke-linecap:square;stroke-linejoin:miter;stroke-miterlimit:4;stroke-dasharray:none;stroke-dashoffset:0;stroke-opacity:1;paint-order:stroke fill markers;color-rendering:auto;image-rendering:auto;shape-rendering:auto;text-rendering:auto;enable-background:accumulate;stop-color:#000000;stop-opacity:1"
       id="path43589" />
    <path
       d="m 2122.3746,333.04503 c -0.9276,0 -1.7267,0.26739 -2.3204,0.86135 -0.2682,0.26651 -0.5348,0.60076 -0.6684,0.93407 -0.1979,0.3272 -0.2639,0.72573 -0.2639,1.18632 h 1.9272 c 0,-0.86057 0.5325,-1.32723 1.3932,-1.32723 0.7331,0 1.1285,0.27267 1.1953,0.79997 0.066,0.52726 -0.3342,0.92724 -1.1953,1.32722 -0.6004,0.33336 -0.9267,0.80071 -0.9935,1.33404 v 0.59318 h 0.8615 0.9931 v -0.39316 l 0.1363,-0.26607 0.1979,-0.2001 c 0.2682,-0.13326 0.6658,-0.33995 1.1931,-0.60682 0.5999,-0.39405 0.9333,-0.92649 1.0001,-1.52038 -0.066,-0.46665 -0.1319,-0.79544 -0.2682,-1.06815 -0.1979,-0.26079 -0.4003,-0.5265 -0.7341,-0.79314 -0.5941,-0.59393 -1.4544,-0.86137 -2.4544,-0.86137 z m -47.3688,2.72266 -3.3138,3.32032 h 2.1862 l 2.2548,-1.72721 2.3999,1.72721 h 2.1884 l -3.2544,-3.32032 z m 53.8841,2.79307 -1.1337,1.05451 c 0.3342,0.46666 0.4666,0.93406 0.4001,1.33404 -0.066,0.39405 -0.2682,0.72573 -0.6609,0.98631 -0.1275,0.12841 -0.4886,0.13149 -0.5163,0.13193 v -1.75219 h -3.1814 v 16.91076 c 0,1.55996 -0.8426,2.309 -1.9659,2.309 -1.1232,0 -1.9658,-0.74904 -1.9658,-2.309 v -16.91076 h -3.1818 v 17.22209 c 0,2.90155 2.3084,5.17937 5.1476,5.17937 2.8393,0 5.1473,-2.27782 5.1473,-5.17937 v -13.86768 h 0.3166 c 0.5273,-0.0668 1.0621,-0.26607 1.5952,-0.66587 0.5941,-0.46666 0.9274,-1.06666 0.9274,-1.92723 0,-0.7939 -0.2023,-1.52873 -0.6614,-2.12266 -0.071,-0.13326 -0.2067,-0.26607 -0.2683,-0.39317 z m -19.6671,1.58858 c -0.8,0 -1.5265,0.20011 -2.2658,0.60001 -0.7274,0.46054 -1.2608,0.92644 -1.6549,1.52038 -0.4002,0.53327 -0.6663,1.06664 -0.8,1.59992 -0.1319,0.46666 -0.1978,0.99392 -0.1978,1.65452 v 11.42458 c 0,0.6 0.066,1.19239 0.1363,1.78631 0.1319,0.53329 0.3298,1.13329 0.7318,1.72721 0.3958,0.67269 0.9943,1.19995 1.7882,1.59993 0.806,0.46059 1.7389,0.66136 2.6659,0.66136 0.8607,0 1.6616,-0.26651 2.3885,-0.72728 0.7999,-0.46661 1.3941,-0.99387 1.7275,-1.59993 0.4002,-0.59388 0.5928,-1.128 0.6658,-1.66129 0.1275,-0.52725 0.1275,-1.12571 0.1275,-1.78631 v -0.72727 h -3.1202 v 0.72727 0.4002 c 0,0.3272 -10e-4,0.59319 -0.061,0.79315 0,0.13325 -0.1979,0.4674 -0.4003,0.86132 -0.2682,0.33336 -0.7331,0.53183 -1.5272,0.53183 -0.727,0 -1.1936,-0.19922 -1.527,-0.66592 -0.2683,-0.39404 -0.4002,-0.79465 -0.4002,-1.06129 -0.065,-0.26079 -0.065,-0.59239 -0.065,-0.85908 v -11.42458 c 0,-0.66059 0.2022,-1.128 0.5338,-1.58858 0.3254,-0.4002 0.7925,-0.59999 1.4593,-0.59999 0.6667,0 1.1271,0.20009 1.5268,0.59999 0.3343,0.46058 0.4613,0.92799 0.4613,1.58858 v 1.19996 h 3.1208 v -1.19996 c 0,-1.58783 -0.4591,-2.85371 -1.4592,-3.84762 -1.0608,-0.99993 -2.3225,-1.52719 -3.8499,-1.52719 z m 22.4716,0.16581 v 17.22211 c 0,2.90157 2.3085,5.17939 5.1478,5.17939 2.8391,0 5.1476,-2.27782 5.1476,-5.17939 v -17.22211 h -3.1819 v 16.91079 c 0,1.55996 -0.8426,2.309 -1.9657,2.309 -1.1233,0 -1.9659,-0.74904 -1.9659,-2.309 v -16.91079 z m -86.7786,0.0352 v 2.98626 h 3.7157 v 19.18796 h 3.1933 v -19.18796 h 3.7817 v -2.98626 z m 12.8861,0 v 22.17422 h 3.1929 V 352.634 h 3.9818 v 9.89057 h 3.1884 v -22.17422 h -3.1884 v 9.49516 h -3.9818 v -9.49516 z m 17.0104,0 -4.9155,22.17422 h 3.3156 l 0.9341,-4.78164 h 4.1137 l 0.8682,4.78164 h 3.3863 l -4.9137,-22.17422 z m 9.3635,0 v 22.17422 h 3.1202 v -13.47903 l 4.9819,13.47903 h 2.9273 v -22.17422 h -3.1208 v 13.4109 l -4.9203,-13.4109 z m -7.9703,6.3748 1.4544,8.09744 h -2.9813 z m 16.013,22.3742 c -0.066,0 -0.066,0.0677 -0.1319,0.13413 -0.066,0.3272 -0.1364,0.52801 -0.3342,0.66135 -0.1979,0.0668 -0.4002,0.13193 -0.5999,0.13193 -0.1979,0 -0.4002,7.1e-4 -0.5273,-0.0655 -0.2683,-0.0668 -0.5335,-0.20011 -0.8,-0.3272 -0.1319,0 -0.2682,-0.0735 -0.3914,-0.13414 -0.1319,0 -0.2726,-0.0655 -0.4661,-0.13193 -0.132,-0.0668 -0.2683,-0.0682 -0.4002,-0.0682 -0.132,-0.0668 -0.3342,-0.066 -0.4684,-0.066 -0.3343,0 -0.6668,0.0668 -0.9997,0.2001 -0.2682,0.1271 -0.5334,0.3272 -0.7999,0.52726 -0.1935,0.2001 -0.3958,0.46666 -0.5273,0.79997 -0.1979,0.3272 -0.2639,0.66135 -0.3299,1.06133 0,0.0668 -8e-4,0.12709 0.132,0.12709 h 1.3272 c 0.066,0 0.1363,-0.0607 0.1363,-0.12709 0,-0.26651 0.1364,-0.53482 0.3344,-0.66817 v 0.0682 c 0.1979,-0.13325 0.4002,-0.2001 0.5321,-0.2001 0.1979,0 0.4679,0.0655 0.668,0.13193 0.2683,0.0668 0.5326,0.13502 0.7929,0.26827 0.198,0.0668 0.3343,0.0655 0.5343,0.13194 0.132,0.0668 0.2639,0.13413 0.3299,0.13413 0.1319,0.0668 0.2682,0.0677 0.4684,0.13414 h 0.3914 c 0.4665,0 0.8008,-0.0668 1.1337,-0.2001 0.2595,-0.13326 0.5273,-0.33336 0.7274,-0.59996 0.1979,-0.2608 0.4002,-0.5288 0.5317,-0.79543 0.132,-0.33336 0.1935,-0.59323 0.2683,-0.99313 0,-0.0668 -0.075,-0.13414 -0.1363,-0.13414 z m -26.4354,4.81119 c -2.5996,0 -5.3566,1.81674 -5.3566,5.44981 v 11.77682 c 0,3.6331 2.757,5.44985 5.3566,5.44985 2.5996,0 5.3544,-1.81675 5.3544,-5.44985 v -7.01561 h -5.7312 v 2.81805 h 2.5384 v 4.19756 c 0,1.53472 -1.0028,2.25451 -2.1616,2.25451 -1.1588,0 -2.1611,-0.71979 -2.1611,-2.25451 v -11.7768 c 0,-1.53467 1.0023,-2.25451 2.1611,-2.25451 1.1588,0 2.1616,0.71984 2.1616,2.25451 v 1.12721 h 3.1928 v -1.12721 c 0,-3.63311 -2.7548,-5.44985 -5.3544,-5.44985 z m -19.606,0.23881 v 22.17422 h 3.1203 v -13.47908 l 4.9818,13.47908 h 2.9224 v -22.17422 h -3.1224 v 13.4109 l -4.9133,-13.4109 z m 28.0353,0 v 22.17422 h 3.1203 v -9.89058 h 4.0544 v 9.89058 h 3.1229 v -22.17422 h -3.1229 v 9.49058 h -4.0544 v -9.49058 z m 13.7521,0 v 22.17422 h 3.1203 v -22.17422 z m 9.8358,0 -4.9226,22.17422 h 3.3226 l 0.9271,-4.78165 h 4.1204 l 0.8659,4.78165 h 3.3885 l -4.9155,-22.17422 z m 1.3932,6.36798 1.4614,8.10425 h -2.9953 z"
       style="opacity:1;fill:#ffffff;fill-opacity:1;fill-rule:nonzero;stroke:none;stroke-width:0.352777"
       id="path1944-0" />
    <path
       id="path1966-2"
       d="m 1833.5239,405.81295 h 188.3388 V 330.5186 h -188.3388 z m 0,0"
       style="opacity:1;fill:#ffffff;fill-opacity:1;fill-rule:nonzero;stroke:none;stroke-width:0.352777" />
    <path
       d="m 1838.0458,332.7797 c -1.2667,0 -2.2685,1.06055 -2.2685,2.25443 v 66.2636 c 0,1.26662 1.0018,2.26128 2.2685,2.26128 h 179.23 c 1.2666,0 2.2587,-0.99466 2.2587,-2.26128 v -66.2636 c 0,-1.19388 -0.9921,-2.25443 -2.2587,-2.25443 z m 172.321,3.51578 c 1.0001,0 1.8651,0.26606 2.4588,0.86584 0.3342,0.3272 0.5344,0.59921 0.7344,0.86589 0.132,0.33336 0.1979,0.6606 0.1979,1.12725 0,0.59393 -0.3342,1.19388 -0.934,1.65447 -0.5269,0.26651 -0.9262,0.46675 -1.1932,0.6 l -0.1979,0.20011 -0.1275,0.26826 -0.075,0.39317 h -1.0001 -0.793 v -0.59314 c 0.067,-0.53332 0.3915,-1.06208 0.9931,-1.39543 0.8725,-0.39976 1.2665,-0.86585 1.2001,-1.39311 -0.1319,-0.59999 -0.5277,-0.86136 -1.2001,-0.86136 -0.9271,0 -1.3946,0.46133 -1.4614,1.38862 h -1.9272 c 0,-0.46063 0.1364,-0.92729 0.2683,-1.25453 0.2023,-0.33335 0.4653,-0.67273 0.7318,-0.99998 0.5937,-0.59995 1.3954,-0.86585 2.3225,-0.86585 z m -89.883,1.25905 h 3.1224 l 3.4544,4.71572 h -1.9886 z m 9.6971,4.58163 c 0.132,0.13325 0.1979,0.26694 0.2683,0.4002 0.4667,0.6606 0.734,1.40071 0.734,2.26128 -0.065,0.86053 -0.3343,1.52799 -0.9341,1.98857 -0.5942,0.40021 -1.1263,0.66509 -1.5933,0.73181 h -0.3914 v 14.34497 c 0,0.59388 -4e-4,1.12804 -0.1319,1.66128 -0.132,0.46058 -0.3344,0.92733 -0.6004,1.4545 -0.4665,0.73334 -1.0612,1.39315 -1.8611,1.86582 -0.7939,0.52726 -1.5877,0.72728 -2.5271,0.72728 -0.9275,0 -1.7881,-0.20011 -2.6545,-0.72728 -0.7999,-0.47267 -1.3941,-1.06506 -1.7275,-1.73174 -0.3342,-0.59392 -0.5255,-1.19388 -0.6588,-1.65446 -0.065,-0.46666 -0.1319,-1.00152 -0.1319,-1.5954 V 344.0045 h 3.1884 v 17.85849 c 0,0.33335 -9e-4,0.59542 0.067,0.79543 0,0.26651 0.1935,0.59996 0.4613,0.99994 0.3342,0.39405 0.7999,0.59318 1.5274,0.59318 0.5998,5e-5 1.1333,-0.2001 1.3997,-0.72727 0.3344,-0.46656 0.5317,-1.00069 0.5317,-1.66128 V 344.0045 h 3.123 v 1.85447 c 0.1935,0 0.3914,-0.0668 0.5928,-0.20009 0.3343,-0.26079 0.5994,-0.66136 0.6658,-1.06134 0.065,-0.39404 -0.065,-0.86066 -0.4657,-1.39996 z m 22.5244,1.64541 c 2.7219,0 5.6064,1.90026 5.6064,5.70435 v 1.18178 h -3.3427 v -1.18178 c 0,-1.60689 -1.0502,-2.36129 -2.2637,-2.36129 -1.2133,0 -2.2635,0.7544 -2.2635,2.36129 v 12.33137 c 0,1.60688 1.0502,2.36129 2.2635,2.36129 1.2135,5e-5 2.2637,-0.75441 2.2637,-2.36129 V 357.422 h -2.6568 v -2.9499 h 5.9995 v 7.34519 c 0,3.80404 -2.8845,5.70664 -5.6064,5.70664 -2.7222,0 -5.6089,-1.9026 -5.6089,-5.70664 v -12.33137 c 0,-3.80409 2.8867,-5.70435 5.6089,-5.70435 z m 34.0917,0 c 2.7218,0 5.609,1.90026 5.609,5.70435 v 1.18178 h -3.3455 v -1.18178 c 0,-1.60689 -1.0502,-2.36129 -2.2635,-2.36129 -1.2134,0 -2.2609,0.7544 -2.2609,2.36129 v 12.33137 c 0,1.60688 1.0475,2.36129 2.2609,2.36129 1.2133,5e-5 2.2635,-0.75441 2.2635,-2.36129 V 357.422 h -2.6567 v -2.9499 h 6.0022 v 7.34519 c 0,3.80404 -2.8872,5.70664 -5.609,5.70664 -2.7218,0 -5.6064,-1.9026 -5.6064,-5.70664 v -12.33137 c 0,-3.80409 2.8846,-5.70435 5.6064,-5.70435 z m -144.5038,0.22253 h 10.6972 v 3.11354 h -3.7882 v 20.25381 h -3.1889 v -20.25381 h -3.7201 z m 12.8834,0 h 5.5158 c 1.5274,0 2.7267,0.52651 3.7206,1.59311 0.9996,1.12717 1.5269,2.38782 1.5269,3.98173 v 2.12037 c 0,2.18779 -0.8589,3.8544 -2.5859,4.98165 l 3.3203,10.69049 h -3.3203 l -3.0548,-10.02236 h -1.9952 v 10.02236 h -3.1274 z m 17.0131,0 h 2.7865 l 4.9225,23.36735 h -3.3886 l -0.8725,-4.97479 h -4.1819 l -0.8611,4.97479 h -3.3863 z m 9.3634,0 h 2.9202 l 4.2545,12.47685 4.1203,-12.47685 h 2.9954 v 23.36735 h -3.195 v -14.21087 l -3.1867,9.96331 h -1.5951 l -3.1932,-9.96331 v 14.21087 h -3.1204 z m 23.5857,0 h 4.9814 c 1.4605,0 2.6563,0.52651 3.7228,1.59311 1.0001,1.05448 1.5273,2.31437 1.5273,3.84763 v 12.15181 c 0,1.72717 -0.4621,3.11513 -1.4685,4.18169 -0.9938,1.06665 -2.2534,1.59311 -3.8476,1.59311 h -4.9154 z m 27.8308,0 h 2.9997 l 4.909,14.13813 V 344.0041 h 3.1932 v 23.36735 h -2.9272 l -4.9819,-14.14495 v 14.14495 h -3.1928 z m 34.0169,0 h 2.9861 l 4.9225,14.13813 V 344.0041 h 3.1867 v 23.36735 h -2.9865 l -4.9225,-14.14495 v 14.14495 h -3.1863 z m 28.1013,0 h 3.1884 v 10.01784 h 4.0593 V 344.0041 h 3.1224 v 23.36735 h -3.1224 V 356.9491 h -4.0593 v 10.42235 h -3.1884 z m 13.8176,0 h 3.1272 v 23.36735 h -3.1272 z m -150.6014,3.11354 v 7.30428 h 2.2613 c 0.6606,0 1.1941,-0.2665 1.6545,-0.72722 0.1979,-0.26651 0.3343,-0.53412 0.4002,-0.86136 0.1319,-0.33336 0.1319,-0.73409 0.1319,-1.13403 v -2.12037 c 0,-0.7333 -0.2022,-1.33255 -0.5339,-1.79314 -0.3958,-0.46665 -0.9279,-0.66816 -1.5885,-0.66816 z m 49.9572,0.0682 v 17.06535 h 1.5274 c 1.6606,0 2.4589,-0.86067 2.4589,-2.65446 v -12.15185 c 0,-0.66662 -0.2639,-1.19845 -0.6659,-1.65904 -0.4666,-0.4002 -0.9948,-0.59996 -1.661,-0.59996 z m -34.7442,3.58627 -1.4614,8.49742 h 2.9887 z m -1.3273,19.25388 h 2.7205 v 2.86124 h -2.7205 z m 38.4512,7.12248 c 2.5464,0 4.2453,2.0479 4.2453,4.02029 v 1.2477 h -2.5478 v -0.57272 c 0,-1.17344 -0.4995,-2.14764 -1.7978,-2.14764 -1.398,0 -1.7226,1.12193 -1.7226,2.29536 0,1.37318 0.1232,1.84833 1.4477,2.37263 l 1.9479,0.77499 c 2.2469,0.84888 2.6726,2.27141 2.6726,4.86802 0,2.99607 -1.0996,5.218 -4.3952,5.218 -2.4721,0 -4.3434,-1.82344 -4.3434,-4.22031 v -0.94769 h 2.5455 v 0.79997 c 0,0.92376 0.4996,1.82039 1.7979,1.82039 1.7226,0 1.8474,-1.02249 1.8474,-2.64539 0,-1.89748 -0.2243,-2.19825 -1.4728,-2.69763 l -1.8224,-0.74768 c -2.1972,-0.89883 -2.7729,-2.34818 -2.7729,-4.57028 0,-2.69649 1.4491,-4.86801 4.3706,-4.86801 z m -24.7013,0.18163 h 4.4496 c 1.1334,0 2.1273,0.39932 2.9273,1.26588 0.7938,0.79389 1.1931,1.78855 1.1931,2.9885 v 1.5863 c 0,1.66661 -0.6676,2.92796 -2.0613,3.78853 l 2.6611,8.09743 h -2.6611 l -2.3862,-7.56336 h -1.5956 v 7.56336 h -2.5269 z m 10.9629,0 h 7.5704 v 2.32716 h -5.0478 v 5.24755 h 4.4475 v 2.38856 h -4.4475 v 5.24754 h 5.0478 v 2.51583 h -7.5704 z m 19.1997,0 h 8.5701 v 2.39308 h -3.0615 v 15.33356 h -2.5204 v -15.33356 h -2.9882 z m 17.6058,0 h 2.1932 l 3.9818,17.72664 h -2.7205 l -0.734,-3.77712 h -3.2588 l -0.7274,3.77712 h -2.7227 z m 7.5705,0 h 4.4541 c 1.1272,0 2.1206,0.39932 2.9206,1.26588 0.7938,0.79389 1.1931,1.78855 1.1931,2.9885 v 1.5863 c 0,1.66661 -0.6605,2.92796 -2.0546,3.78853 l 2.6545,8.09743 h -2.6545 l -2.3929,-7.56336 h -1.5934 v 7.56336 h -2.5269 z m 10.9563,0 h 7.5748 v 2.32716 h -5.0408 v 5.24755 h 4.4476 v 2.38856 h -4.4476 v 5.24754 h 5.0408 v 2.51583 h -7.5748 z m 12.4973,0 h 2.1933 l 3.9813,17.72664 h -2.7201 l -0.7344,-3.77712 h -3.2544 l -0.727,3.77712 h -2.6615 z m -76.2656,2.39308 v 5.50892 h 1.7887 c 0.5334,0 0.9341,-0.19395 1.3338,-0.52726 0.132,-0.2001 0.2595,-0.46744 0.3255,-0.66135 0.065,-0.27266 0.065,-0.5394 0.065,-0.87271 v -1.5863 c 0,-0.59999 -0.1319,-1.06814 -0.4613,-1.39539 -0.2683,-0.33335 -0.7322,-0.46591 -1.2658,-0.46591 z m 55.3389,0 v 5.50892 h 1.7931 c 0.5334,0 0.9275,-0.19395 1.3272,-0.52726 0.132,-0.2001 0.2683,-0.46744 0.3343,-0.66135 0.065,-0.27266 0.065,-0.5394 0.065,-0.87271 v -1.5863 c 0,-0.59999 -0.1319,-1.06814 -0.4657,-1.39539 -0.2683,-0.33335 -0.7283,-0.46591 -1.2613,-0.46591 z m -9.0358,2.72038 -1.2001,6.43615 h 2.3998 z m 31.0897,0 -1.1953,6.43615 h 2.3885 z"
       style="opacity:1;fill:#0046aa;fill-opacity:1;fill-rule:nonzero;stroke:none;stroke-width:0.352777"
       id="path1968" />
    <path
       id="rect1732-5-7"
       style="opacity:1;fill:#000000;fill-opacity:1;fill-rule:nonzero;stroke:none;stroke-width:1.44069;stroke-linecap:square;stroke-linejoin:round;stroke-miterlimit:4;stroke-dasharray:none;stroke-opacity:1;paint-order:stroke fill markers"
       d="m 1857.7845,447.79047 c -0.8967,0 -1.6183,0.72178 -1.6183,1.61849 v 2.29335 h -1.4843 c -1.0463,0 -1.888,0.84215 -1.888,1.8883 v 0.86299 l -4.1951,2.46825 c -0.2507,0.1869 -0.5682,0.26695 -0.6746,0.66152 l -0.607,2.07723 0.3783,0.11259 c -1.1637,4.0738 -2.794,10.00258 -2.9708,14.20102 -0.061,1.3993 -0.044,3.55034 0.3299,5.41405 0.1847,0.93182 0.4472,1.79493 0.8751,2.47384 0.4267,0.67885 1.0899,1.19524 1.9175,1.20104 0.8018,0.004 1.5203,-0.34611 2.0758,-0.90345 0.5554,-0.55721 0.975,-1.31178 1.3013,-2.19218 0.6531,-1.76086 0.9324,-4.04378 0.891,-6.36205 -0.097,-5.25855 -0.321,-7.5544 -0.7089,-10.05915 -0.1979,-1.29278 -0.4222,-2.24474 -0.5084,-2.88441 -0.044,-0.31972 -0.044,-0.55724 0,-0.70123 0.044,-0.14381 0.057,-0.19043 0.1319,-0.25552 v -0.003 l 0.048,-0.044 0.075,0.0712 0.8092,-0.34171 0.7283,0.26958 0.1187,0.32325 v 25.03537 h -9.0371 v 3.23712 h 37.7687 v -3.23712 h -9.0375 V 453.5871 c 0,-1.0462 -0.8422,-1.8883 -1.888,-1.8883 h -1.4843 v -2.29335 c 0,-0.89671 -0.7217,-1.61853 -1.6184,-1.61853 z m 0.5388,5.93467 h 8.6329 v 2.96806 h -8.6329 z m -7.8352,3.84288 c 0.3343,-0.0264 0.5269,0.33203 0.2419,0.62243 l -0.5251,0.66086 0.092,0.0862 c -0.2418,0.2221 -0.4002,0.52969 -0.4534,0.83929 -0.057,0.3228 -0.044,0.6519 0,1.02184 0.097,0.73998 0.3167,1.65842 0.5106,2.90882 0.3826,2.47114 0.6016,4.68225 0.6958,9.91625 0.044,2.21919 -0.242,4.40734 -0.8246,5.97799 -0.2903,0.78528 -0.6558,1.41324 -1.059,1.81789 -0.4047,0.4046 -0.8176,0.59643 -1.323,0.59274 -0.4221,-0.003 -0.7225,-0.21505 -1.0352,-0.711 -0.3123,-0.49665 -0.5634,-1.25646 -0.7326,-2.11558 -0.3387,-1.71806 -0.3695,-3.82639 -0.3124,-5.16649 0.1673,-3.95912 1.7698,-9.87536 2.9291,-13.94464 l 0.4222,0.12535 0.2682,-1.00382 c 0.2815,-1.20988 0.7591,-1.60666 1.0933,-1.62829 z m 7.8352,0.33863 h 8.6329 v 5.2607 h -8.6329 z" />
    <path
       d="m 1991.2198,537.42904 c -2.6855,0 -5.065,0.91469 -7.1411,2.7436 -2.0924,1.79592 -3.1408,4.35885 -3.1408,7.6871 v 15.5462 c 0,3.32826 1.0484,5.88883 3.1408,7.68481 2.0761,1.81241 4.4556,2.72035 7.1411,2.72035 2.6859,0 5.0676,-0.90794 7.1437,-2.72035 2.1089,-1.81243 3.164,-4.373 3.164,-7.68481 v -15.5462 c 0,-1.64762 -0.2738,-3.10569 -0.8178,-4.37435 -0.5272,-1.28521 -1.3082,-2.39006 -2.3462,-3.31275 -1.0381,-0.88974 -2.1588,-1.56444 -3.3616,-2.02575 -1.1863,-0.47782 -2.4473,-0.71785 -3.7821,-0.71785 z m -57.5987,0.32279 c -0.1979,0 -0.2971,0.097 -0.2971,0.2949 v 10.11013 c 0,0.1978 0.1,0.2949 0.2971,0.2949 h 5.0411 c 0.1811,0 0.2719,-0.0971 0.2719,-0.2949 v -4.77164 h 8.6512 l -11.7895,29.73332 c -0.032,0.0989 -0.023,0.18925 0.027,0.27197 0.049,0.0823 0.1309,0.12317 0.2464,0.12317 h 5.659 c 0.1162,0 0.206,-0.0656 0.272,-0.19734 l 11.9129,-30.20258 v -5.06668 c 0,-0.1978 -0.09,-0.2949 -0.272,-0.2949 z m 24.0069,0 c -0.1813,0 -0.272,0.097 -0.272,0.2949 v 19.0308 c 0,0.18116 0.09,0.27198 0.272,0.27198 h 4.7692 c 0.098,0 0.183,-0.0499 0.2486,-0.1488 1.038,-1.8454 2.4621,-2.76679 4.2745,-2.76679 1.9773,0 3.2631,0.5841 3.8564,1.75391 0.3129,0.62612 0.553,1.34383 0.7178,2.15122 0.1651,0.79089 0.2463,1.65572 0.2463,2.59486 0,1.58179 -0.2153,3.23 -0.6435,4.9436 -0.346,1.54877 -1.6886,2.32307 -4.0283,2.32307 -2.5867,0 -4.1669,-1.29506 -4.7437,-3.88188 -0.032,-0.14836 -0.1326,-0.22074 -0.2971,-0.22074 h -5.0411 c -0.082,0 -0.1573,0.0314 -0.223,0.0975 -0.066,0.0661 -0.09,0.14071 -0.074,0.22298 0.3623,3.34476 1.6484,5.75819 3.8562,7.24108 2.1585,1.43347 4.3977,2.15121 6.7208,2.15121 1.796,0 3.3786,-0.41223 4.7462,-1.2359 1.3015,-0.80732 2.3384,-1.69038 3.1128,-2.64603 0.791,-1.03801 1.3593,-2.12474 1.7051,-3.26159 l -0.023,0.0269 c 0.1979,-0.60967 0.3381,-1.35901 0.4204,-2.24876 0.099,-0.88974 0.1487,-1.92896 0.1487,-3.11526 0,-2.91636 -0.24,-5.01741 -0.7177,-6.30261 -0.2306,-0.62609 -0.5273,-1.23509 -0.8898,-1.82827 -0.3623,-0.60963 -0.7835,-1.17789 -1.2613,-1.70513 -0.3296,-0.34614 -0.7326,-0.67661 -1.2105,-0.98963 -0.4614,-0.32952 -0.9639,-0.62612 -1.5077,-0.88979 -0.56,-0.26344 -1.16,-0.46055 -1.8028,-0.59237 -0.6259,-0.14835 -1.2871,-0.22298 -1.9792,-0.22298 -1.9606,0 -3.7402,0.56154 -5.3384,1.68194 v -7.09474 h 13.6923 c 0.1978,0 0.2972,-0.0972 0.2972,-0.29491 v -5.04346 c 0,-0.1978 -0.1,-0.29491 -0.2972,-0.29491 z m 33.5918,5.31292 c 1.4171,0 2.5469,0.45284 3.3871,1.35903 0.8569,0.88973 1.2846,2.13498 1.2846,3.7332 v 14.95144 c 0,1.61474 -0.4277,2.86677 -1.2846,3.75646 -0.8402,0.88974 -1.97,1.3358 -3.3871,1.3358 -1.4169,0 -2.5443,-0.44596 -3.3846,-1.3358 -0.8403,-0.88969 -1.2614,-2.14172 -1.2614,-3.75646 v -14.95144 c 0,-1.59822 0.4211,-2.84347 1.2614,-3.7332 0.8403,-0.90619 1.9677,-1.35903 3.3846,-1.35903 z m 37.1604,8.79525 c -2.2018,0 -3.964,0.71532 -5.285,2.14654 v -1.67263 c 0,-0.16498 -0.081,-0.24635 -0.2465,-0.24635 h -4.2117 c -0.165,0 -0.2486,0.0813 -0.2486,0.24635 v 20.93112 c 0,0.16499 0.083,0.24861 0.2486,0.24861 h 4.2117 c 0.1651,0 0.2465,-0.0832 0.2465,-0.24861 v -12.46809 c 0,-1.37615 0.3578,-2.42053 1.0731,-3.13617 0.7433,-0.74311 1.6946,-1.11505 2.8506,-1.1151 1.1148,0 2.0422,0.37177 2.7854,1.1151 0.7431,0.74314 1.115,1.78753 1.115,3.13617 v 12.46809 c 0,0.16499 0.076,0.24861 0.2275,0.24861 h 4.2095 c 0.1514,0 0.2274,-0.0832 0.2274,-0.24861 v -12.46809 c 0,-1.36239 0.3651,-2.40678 1.0943,-3.13617 0.7431,-0.74311 1.6921,-1.11505 2.8481,-1.1151 1.1146,0 2.0446,0.37177 2.7877,1.1151 0.7293,0.72939 1.0941,1.77378 1.0941,3.13617 v 12.46809 c 0,0.16499 0.083,0.24861 0.2487,0.24861 h 4.2094 c 0.1651,0 0.2486,-0.0832 0.2486,-0.24861 v -13.91302 c 0,-2.44963 -0.7845,-4.31421 -2.3533,-5.59402 -1.5827,-1.26611 -3.2064,-1.89799 -4.8715,-1.89799 -2.7248,0 -4.9351,0.8727 -6.6279,2.62046 -0.3438,-0.35784 -0.7064,-0.67972 -1.0917,-0.96874 -0.3855,-0.30299 -0.786,-0.57928 -1.1986,-0.82702 -0.9223,-0.55048 -2.1191,-0.8247 -3.5917,-0.8247 z"
       style="font-style:normal;font-variant:normal;font-weight:normal;font-stretch:normal;font-size:31.9163px;line-height:1.3;font-family:'Alte DIN 1451 Mittelschrift gepraegt';-inkscape-font-specification:'Alte DIN 1451 Mittelschrift gepraegt';text-align:center;text-anchor:middle;opacity:1;fill:#ffffff;fill-opacity:1;stroke-width:0.198439"
       id="path9144" />
  </g>
</svg>
