<?xml version="1.0" encoding="UTF-8" standalone="no"?>
<svg
   xmlns:dc="http://purl.org/dc/elements/1.1/"
   xmlns:cc="http://creativecommons.org/ns#"
   xmlns:rdf="http://www.w3.org/1999/02/22-rdf-syntax-ns#"
   xmlns:svg="http://www.w3.org/2000/svg"
   xmlns="http://www.w3.org/2000/svg"
   xmlns:sodipodi="http://sodipodi.sourceforge.net/DTD/sodipodi-0.dtd"
   xmlns:inkscape="http://www.inkscape.org/namespaces/inkscape"
   width="705.29999mm"
   height="238.90578mm"
   viewBox="0 0 705.29999 238.90578"
   version="1.1"
   id="svg848"
   inkscape:version="1.0 (4035a4fb49, 2020-05-01)"
   sodipodi:docname="Vietnam_road_sign_SG8.svg">
  <defs
     id="defs842">
    <clipPath
       id="clip88">
      <path
         id="path1418"
         d="M 361,1.980469 H 581 V 151 H 361 Z m 0,0" />
    </clipPath>
    <clipPath
       id="clip90">
      <path
         id="path1424"
         d="M 376,1.980469 H 587 V 151 H 376 Z m 0,0" />
    </clipPath>
    <clipPath
       id="clip91">
      <path
         id="path1427"
         d="M 383,1.980469 H 595 V 151 H 383 Z m 0,0" />
    </clipPath>
    <clipPath
       id="clip92">
      <path
         id="path1430"
         d="M 389,1.980469 H 600 V 151 H 389 Z m 0,0" />
    </clipPath>
    <clipPath
       id="clip93">
      <path
         id="path1433"
         d="M 395,1.980469 H 610.73828 V 151 H 395 Z m 0,0" />
    </clipPath>
    <clipPath
       id="clip94">
      <path
         id="path1436"
         d="M 407,1.980469 H 610.73828 V 151 H 407 Z m 0,0" />
    </clipPath>
    <clipPath
       id="clip95">
      <path
         id="path1439"
         d="M 413,1.980469 H 610.73828 V 151 H 413 Z m 0,0" />
    </clipPath>
    <clipPath
       id="clip96">
      <path
         id="path1442"
         d="M 415,1.980469 H 610.73828 V 151 H 415 Z m 0,0" />
    </clipPath>
    <clipPath
       id="clip132">
      <path
         id="path1550"
         d="M 149,1.980469 H 360 V 186 H 149 Z m 0,0" />
    </clipPath>
    <clipPath
       id="clip133">
      <path
         id="path1553"
         d="M 155,1.980469 H 366 V 186 H 155 Z m 0,0" />
    </clipPath>
    <clipPath
       id="clip135">
      <path
         id="path1559"
         d="M 164,1.980469 H 375 V 186 H 164 Z m 0,0" />
    </clipPath>
    <clipPath
       id="clip136">
      <path
         id="path1562"
         d="M 167,1.980469 H 378 V 186 H 167 Z m 0,0" />
    </clipPath>
    <clipPath
       id="clip137">
      <path
         id="path1565"
         d="M 170,1.980469 H 381 V 186 H 170 Z m 0,0" />
    </clipPath>
    <clipPath
       id="clip138">
      <path
         id="path1568"
         d="M 177,1.980469 H 388 V 186 H 177 Z m 0,0" />
    </clipPath>
    <clipPath
       id="clip140">
      <path
         id="path1574"
         d="M 185,1.980469 H 397 V 186 H 185 Z m 0,0" />
    </clipPath>
    <clipPath
       id="clip141">
      <path
         id="path1577"
         d="M 191,1.980469 H 402 V 186 H 191 Z m 0,0" />
    </clipPath>
  </defs>
  <sodipodi:namedview
     id="base"
     pagecolor="#ffffff"
     bordercolor="#666666"
     borderopacity="1.0"
     inkscape:pageopacity="0.0"
     inkscape:pageshadow="2"
     inkscape:zoom="0.35707209"
     inkscape:cx="1081.901"
     inkscape:cy="710.48214"
     inkscape:document-units="mm"
     inkscape:current-layer="layer1"
     showgrid="false"
     inkscape:snap-global="false"
     inkscape:window-width="1920"
     inkscape:window-height="1001"
     inkscape:window-x="-9"
     inkscape:window-y="-9"
     inkscape:window-maximized="1"
     fit-margin-top="0"
     fit-margin-left="0"
     fit-margin-right="0"
     fit-margin-bottom="0"
     showguides="false"
     inkscape:measure-start="0,0"
     inkscape:measure-end="0,0"
     inkscape:document-rotation="0" />
  <metadata
     id="metadata845">
    <rdf:RDF>
      <cc:Work
         rdf:about="">
        <dc:format>image/svg+xml</dc:format>
        <dc:type
           rdf:resource="http://purl.org/dc/dcmitype/StillImage" />
        <dc:title></dc:title>
      </cc:Work>
    </rdf:RDF>
  </metadata>
  <g
     inkscape:label="Layer 1"
     inkscape:groupmode="layer"
     id="layer1"
     transform="translate(667.55341,545.95904)">
    <path
       id="rect22511"
       style="opacity:1;fill:#000000;fill-opacity:1;fill-rule:evenodd;stroke:none;stroke-width:5.3;stroke-linejoin:round;stroke-miterlimit:4;stroke-dasharray:none;stroke-opacity:1;paint-order:stroke fill markers"
       d="m -664.90341,-543.30904 h 632.608601 l 67.391423,117.01627 -67.391423,116.58951 H -664.90341 Z"
       sodipodi:nodetypes="cccccc" />
    <path
       sodipodi:nodetypes="cccccc"
       d="m -660.0269,-537.99168 h 624.828502 l 63.802988,111.70479 -63.802988,111.7156 H -660.0269 Z"
       style="opacity:1;fill:#ffffff;fill-opacity:1;fill-rule:evenodd;stroke:none;stroke-width:0.582083;stroke-linejoin:round;stroke-miterlimit:4;stroke-dasharray:none;stroke-opacity:1;paint-order:stroke fill markers"
       id="path22518" />
    <path
       id="rect22413"
       style="opacity:1;fill:#000000;fill-rule:evenodd;stroke:none;stroke-width:0.352692;stroke-linejoin:round;stroke-miterlimit:10;stroke-dasharray:none;stroke-opacity:1;paint-order:stroke fill markers"
       d="m -606.28771,-492.68365 c -2.55135,14.09268 -2.54451,30.55391 -10.8563,39.31294 4.27957,-1.32694 8.63924,-2.16759 12.28865,-7.27553 -2.95701,14.21469 -4.40272,28.42937 -14.37205,42.64414 4.76995,-0.95224 9.49206,1.51248 15.54393,-6.97179 -0.46299,14.05037 -3.29422,27.2039 -13.19469,37.67436 9.90226,-1.16789 19.7772,-3.59849 29.36806,-18.159 1.43341,4.50507 4.22097,13.40899 5.37114,19.08681 1.23697,6.10635 1.75687,18.2853 1.84465,20.42687 h -37.97276 v 9.72241 h 178.47593 v -9.72241 h -12.15311 v -55.03589 h 10.27592 l -52.98505,-41.32033 -51.98134,41.32033 h 9.44566 v 55.03589 h -36.97988 c -0.063,-1.83121 -0.47665,-14.21175 -1.9803,-21.63678 -1.17052,-5.77808 -4.41143,-13.89886 -6.4943,-18.83714 l 1.43782,-0.147 c 8.40259,0.71288 14.90865,4.96797 27.85422,-2.79953 -10.81355,-6.97305 -23.54315,-10.62017 -28.52699,-27.71867 14.7896,0.92283 22.47248,-1.39972 25.81975,-5.70752 -22.09683,0.74436 -31.51698,-10.67133 -37.70703,-25.185 6.3194,1.08317 11.40044,2.1442 14.62708,-1.93684 -15.87812,-6.00054 -23.16405,-14.0006 -27.14901,-22.77076 z m 97.74511,82.81422 h 28.47283 v 44.35859 h -28.47283 z" />
    <path
       id="rect22441"
       style="opacity:1;fill:#000000;fill-opacity:1;fill-rule:evenodd;stroke:none;stroke-width:0.582083;stroke-linejoin:round;stroke-miterlimit:4;stroke-dasharray:none;stroke-opacity:1;paint-order:stroke fill markers"
       d="m -283.33718,-474.83383 c -14.37931,0 -25.95541,11.5761 -25.95541,25.95538 v 42.14503 c 0,14.37919 11.5761,25.9554 25.95541,25.9554 h 1.44861 c 14.37932,0 25.95542,-11.57621 25.95542,-25.9554 v -42.14503 c 0,-14.37928 -11.5761,-25.95538 -25.95542,-25.95538 z m 62.91363,0 c -14.37929,0 -25.95538,11.5761 -25.95538,25.95538 v 42.14503 c 0,14.37919 11.57609,25.9554 25.95538,25.9554 h 1.44865 c 14.3793,0 25.95538,-11.57621 25.95538,-25.9554 v -42.14503 c 0,-14.37928 -11.57608,-25.95538 -25.95538,-25.95538 z m -150.55652,0.72757 v 14.62698 35.02675 1.134 0.0315 h 13.59074 c 1.79816,-4.46223 6.1913,-7.61192 11.37725,-7.61192 3.81856,0 6.22342,0.79792 8.12729,2.42514 0.33598,0.28664 0.46826,0.49348 0.79162,0.84097 2.73119,2.92636 3.34214,11.53453 3.34214,11.53453 v 2.92981 c 0,0 0.1176,2.57696 -0.68873,6.7004 -0.26564,1.35825 -0.43573,4.87223 -1.58965,6.95007 -0.67508,1.2165 -1.41998,2.08844 -2.96237,2.94053 -1.536,0.84831 -3.63105,1.30219 -7.02051,1.30219 -3.13414,0 -5.95876,-0.82628 -8.12196,-2.71817 -2.18756,-1.91364 -3.68365,-4.83254 -4.04733,-7.92122 h -12.7987 -1.71992 c 0.60998,14.00534 12.04959,25.10907 26.21042,25.10907 h 0.98164 c 14.55443,0 26.27551,-11.72108 26.27551,-26.27549 v -12.1422 c 0,-14.55442 -10.05542,-26.2755 -24.60986,-26.2755 -4.63359,-0.084 -9.22107,1.62585 -13.34674,4.38371 v -18.36512 h 36.19331 v -14.62694 h -36.19331 z m 87.90336,13.80773 h 0.88401 c 6.42701,0 11.5996,5.17262 11.5996,11.59962 v 41.8141 c 0,6.42701 -5.17259,11.60498 -11.5996,11.60498 h -0.88401 c -6.42711,0 -11.59971,-5.17797 -11.59971,-11.60498 v -41.8141 c 0,-6.427 5.1726,-11.59962 11.59971,-11.59962 z m 62.91355,0 h 0.88398 c 6.42703,0 11.59962,5.17262 11.59962,11.59962 v 41.8141 c 0,6.42701 -5.17259,11.60498 -11.59962,11.60498 h -0.88398 c -6.42703,0 -11.59962,-5.17797 -11.59962,-11.60498 v -41.8141 c 0,-6.427 5.17259,-11.59962 11.59962,-11.59962 z" />
    <path
       id="rect22483"
       style="opacity:1;fill:#000000;fill-opacity:1;fill-rule:evenodd;stroke:none;stroke-width:0.582083;stroke-linejoin:round;stroke-miterlimit:4;stroke-dasharray:none;stroke-opacity:1;paint-order:stroke fill markers"
       d="m -117.5623,-448.63436 c -6.20959,0 -11.7908,2.56206 -15.77724,6.67881 v -5.96803 h -14.57815 v 66.35341 h 14.59443 v -40.74519 c 0,-6.54618 5.27066,-11.81663 11.81674,-11.81675 h 0.59108 c 6.54617,1.2e-4 11.81673,5.27057 11.81673,11.81675 v 40.74519 h 14.388224 v -40.74519 c 0,-6.54618 5.270557,-11.81663 11.816735,-11.81675 h 0.59108 c 6.546062,1.2e-4 11.816631,5.27057 11.816631,11.81675 v 40.74519 h 14.599877 v -45.10729 c 0,-12.16402 -9.792755,-21.9569 -21.956772,-21.9569 h -2.05086 c -6.951654,0 -14.303404,3.28031 -18.842601,8.13825 -5.122424,-5.35024 -10.419744,-8.13825 -17.372344,-8.13825 z" />
    <g
       transform="translate(-18.207335,-20.827096)"
       style="font-size:31.1478px;line-height:1.46;font-family:'Singapore Road Signs';-inkscape-font-specification:'Singapore Road Signs';text-align:center;text-anchor:middle;fill:#501616;stroke-width:0.264583"
       id="text22557"
       aria-label="5" />
  </g>
</svg>
