<?xml version="1.0" encoding="UTF-8" standalone="no"?>
<svg
   xmlns:dc="http://purl.org/dc/elements/1.1/"
   xmlns:cc="http://creativecommons.org/ns#"
   xmlns:rdf="http://www.w3.org/1999/02/22-rdf-syntax-ns#"
   xmlns:svg="http://www.w3.org/2000/svg"
   xmlns="http://www.w3.org/2000/svg"
   xmlns:sodipodi="http://sodipodi.sourceforge.net/DTD/sodipodi-0.dtd"
   xmlns:inkscape="http://www.inkscape.org/namespaces/inkscape"
   sodipodi:docname="Vietnam_road_sign_IE455.svg"
   inkscape:version="1.0 (4035a4fb49, 2020-05-01)"
   id="svg9491"
   version="1.1"
   viewBox="0 0 320.47394 199.87993"
   height="199.87993mm"
   width="320.47394mm">
  <defs
     id="defs9485">
    <clipPath
       id="clipPath2832">
      <path
         inkscape:connector-curvature="0"
         id="path2834"
         d="M -0.24,595.138 H 317.24 V -0.138 H -0.24 Z" />
    </clipPath>
    <clipPath
       id="clipPath2840">
      <path
         inkscape:connector-curvature="0"
         id="path2842"
         d="M 0.03,595.32 H 317.49 V 0 H 0.03 Z" />
    </clipPath>
    <clipPath
       id="clipPath2858">
      <path
         inkscape:connector-curvature="0"
         id="path2860"
         d="M -0.24,595.138 H 317.24 V -0.138 H -0.24 Z" />
    </clipPath>
    <clipPath
       id="clipPath2864">
      <path
         inkscape:connector-curvature="0"
         id="path2866"
         d="M 0.03,595.32 H 317.49 V 0 H 0.03 Z" />
    </clipPath>
    <clipPath
       id="clipPath3306">
      <path
         inkscape:connector-curvature="0"
         id="path3308"
         d="m 199.238,472.977 v -29.74 h 29.744 v 29.74" />
    </clipPath>
    <clipPath
       id="clipPath3322">
      <path
         inkscape:connector-curvature="0"
         id="path3324"
         d="M -0.24,595.138 H 317.24 V -0.138 H -0.24 Z" />
    </clipPath>
    <clipPath
       id="clipPath3330">
      <path
         inkscape:connector-curvature="0"
         id="path3332"
         d="M 0.03,595.32 H 317.49 V 0 H 0.03 Z" />
    </clipPath>
    <clipPath
       id="clipPath3344">
      <path
         inkscape:connector-curvature="0"
         id="path3346"
         d="m 88.233,387.221 v -28.335 h 32.08 v 28.335" />
    </clipPath>
    <clipPath
       id="clipPath3462">
      <path
         inkscape:connector-curvature="0"
         id="path3464"
         d="M -0.24,595.138 H 317.24 V -0.138 H -0.24 Z" />
    </clipPath>
    <clipPath
       id="clipPath3470">
      <path
         inkscape:connector-curvature="0"
         id="path3472"
         d="M 0.03,595.32 H 317.49 V 0 H 0.03 Z" />
    </clipPath>
    <clipPath
       id="clipPath3490">
      <path
         inkscape:connector-curvature="0"
         id="path3492"
         d="M -0.24,595.138 H 317.24 V -0.138 H -0.24 Z" />
    </clipPath>
    <clipPath
       id="clipPath3496">
      <path
         inkscape:connector-curvature="0"
         id="path3498"
         d="M 0.03,595.32 H 317.49 V 0 H 0.03 Z" />
    </clipPath>
    <clipPath
       id="clipPath3520">
      <path
         inkscape:connector-curvature="0"
         id="path3522"
         d="m 254.788,326.215 v -28.309 h 28.326 v 28.309" />
    </clipPath>
    <clipPath
       id="clipPath3544">
      <path
         inkscape:connector-curvature="0"
         id="path3546"
         d="m 145.049,326.142 v -28.333 h 28.342 v 28.333" />
    </clipPath>
    <clipPath
       id="clipPath3682">
      <path
         inkscape:connector-curvature="0"
         id="path3684"
         d="M -0.24,595.138 H 317.24 V -0.138 H -0.24 Z" />
    </clipPath>
    <clipPath
       id="clipPath3690">
      <path
         inkscape:connector-curvature="0"
         id="path3692"
         d="M 0.03,595.32 H 317.49 V 0 H 0.03 Z" />
    </clipPath>
    <clipPath
       id="clipPath3980">
      <path
         inkscape:connector-curvature="0"
         id="path3982"
         d="M -0.24,595.138 H 317.24 V -0.138 H -0.24 Z" />
    </clipPath>
    <clipPath
       id="clipPath3988">
      <path
         inkscape:connector-curvature="0"
         id="path3990"
         d="M 0.03,595.32 H 317.49 V 0 H 0.03 Z" />
    </clipPath>
    <clipPath
       id="clipPath4010">
      <path
         inkscape:connector-curvature="0"
         id="path4012"
         d="M -0.24,595.138 H 317.24 V -0.138 H -0.24 Z" />
    </clipPath>
    <clipPath
       id="clipPath4016">
      <path
         inkscape:connector-curvature="0"
         id="path4018"
         d="M 0.03,595.32 H 317.49 V 0 H 0.03 Z" />
    </clipPath>
    <clipPath
       id="clipPath4062">
      <path
         inkscape:connector-curvature="0"
         id="path4064"
         d="m 200.163,177.773 v -28.284 h 28.283 v 28.284" />
    </clipPath>
    <clipPath
       id="clipPath4090">
      <path
         inkscape:connector-curvature="0"
         id="path4092"
         d="m 34.886,177.515 v -51.632 h 30.367 v 51.632" />
    </clipPath>
    <clipPath
       id="clipPath4106">
      <path
         inkscape:connector-curvature="0"
         id="path4108"
         d="m 34.886,177.515 v -51.632 h 30.367 v 51.632" />
    </clipPath>
    <clipPath
       id="clipPath4272">
      <path
         inkscape:connector-curvature="0"
         id="path4274"
         d="m 34.886,177.515 v -51.632 h 30.367 v 51.632" />
    </clipPath>
    <clipPath
       id="clipPath4304">
      <path
         inkscape:connector-curvature="0"
         id="path4306"
         d="m 254.653,176.442 v -48.167 h 28.317 v 48.167" />
    </clipPath>
    <clipPath
       id="clipPath4310">
      <path
         inkscape:connector-curvature="0"
         id="path4312"
         d="m 253.565,177.983 h 31.181 V 128.8 h -31.181 z" />
    </clipPath>
    <clipPath
       id="clipPath4316">
      <path
         inkscape:connector-curvature="0"
         id="path4318"
         d="M -0.24,595.138 H 317.24 V -0.138 H -0.24 Z" />
    </clipPath>
    <clipPath
       id="clipPath4322">
      <path
         inkscape:connector-curvature="0"
         id="path4324"
         d="M 0.03,595.32 H 317.49 V 0 H 0.03 Z" />
    </clipPath>
    <clipPath
       id="clipPath4456">
      <path
         inkscape:connector-curvature="0"
         id="path4458"
         d="M -0.24,595.138 H 317.24 V -0.138 H -0.24 Z" />
    </clipPath>
    <clipPath
       id="clipPath4464">
      <path
         inkscape:connector-curvature="0"
         id="path4466"
         d="M 0.03,595.32 H 317.49 V 0 H 0.03 Z" />
    </clipPath>
  </defs>
  <sodipodi:namedview
     inkscape:document-rotation="0"
     inkscape:measure-end="0,0"
     inkscape:measure-start="0,0"
     inkscape:window-maximized="1"
     inkscape:window-y="-9"
     inkscape:window-x="-9"
     inkscape:window-height="1001"
     inkscape:window-width="1920"
     showgrid="false"
     inkscape:current-layer="layer1"
     inkscape:document-units="mm"
     inkscape:cy="835.33929"
     inkscape:cx="-881.29782"
     inkscape:zoom="0.26491405"
     inkscape:pageshadow="2"
     inkscape:pageopacity="0.0"
     borderopacity="1.0"
     bordercolor="#666666"
     pagecolor="#ffffff"
     id="base" />
  <metadata
     id="metadata9488">
    <rdf:RDF>
      <cc:Work
         rdf:about="">
        <dc:format>image/svg+xml</dc:format>
        <dc:type
           rdf:resource="http://purl.org/dc/dcmitype/StillImage" />
        <dc:title></dc:title>
      </cc:Work>
    </rdf:RDF>
  </metadata>
  <g
     transform="translate(-354.27033,-437.29112)"
     id="layer1"
     inkscape:groupmode="layer"
     inkscape:label="Layer 1">
    <g
       transform="matrix(1.6550836,0,0,1.6550836,-321.31659,-238.56049)"
       style="font-size:31.1478px;line-height:1.3;font-family:'Singapore Road Signs';-inkscape-font-specification:'Singapore Road Signs';text-align:center;text-anchor:middle;stroke-width:0.159861"
       id="text19759"
       aria-label="6" />
    <path
       d="M 354.27033,437.29112 H 674.74428 V 637.17105 H 354.27033 Z"
       style="opacity:1;fill:#0a9646;fill-opacity:1;fill-rule:evenodd;stroke-width:0.0420686;stroke-linecap:square;stroke-miterlimit:10;paint-order:stroke fill markers"
       id="path8953"
       sodipodi:nodetypes="ccccc" />
    <path
       style="opacity:1;fill:#ffd70f;fill-opacity:1;fill-rule:nonzero;stroke:none;stroke-width:0.352777"
       d="m 370.34058,523.83111 h 88.3268 v -70.48475 h -88.3268 z m 0,0"
       id="path8955" />
    <path
       id="path8959"
       style="opacity:1;fill:#ffffff;fill-opacity:1;fill-rule:evenodd;stroke-width:0.119062;stroke-linecap:square;stroke-miterlimit:10;paint-order:stroke fill markers"
       d="m 619.16688,479.86686 c -0.10899,0 -0.16089,0.0523 -0.16089,0.15889 v 18.92638 c 0,0.1066 0.0523,0.15889 0.16089,0.15889 h 2.71293 c 0.1038,0 0.16088,-0.0523 0.16088,-0.15889 v -3.81663 c 0.32137,-0.37247 0.63964,-0.74024 0.9676,-1.10373 0.33535,-0.36329 0.66711,-0.73134 0.98612,-1.10373 l 3.4721,6.10457 c 0.0471,0.0531 0.0798,0.0783 0.13215,0.0783 h 3.40613 c 0.0707,0 0.11818,-0.0239 0.14652,-0.0658 0.0475,-0.0535 0,-0.11138 0,-0.17326 -0.87746,-1.36539 -1.75104,-2.71157 -2.62007,-4.04151 -0.86005,-1.33876 -1.72764,-2.69053 -2.60561,-4.05592 l 4.57379,-5.20097 c 0.0471,-0.0535 0.0523,-0.11138 0.0475,-0.17326 -0.0471,-0.0619 -0.0755,-0.0931 -0.14652,-0.0931 h -3.24517 c -0.0471,0 -0.0866,0.02 -0.11976,0.0535 -0.83362,1.01951 -1.66141,2.03433 -2.48601,3.04505 -0.81562,1.00189 -1.63997,2.01312 -2.4736,3.03266 v -11.41072 c 0,-0.10659 -0.0567,-0.15889 -0.16088,-0.15889 z m 22.37788,5.29171 c -1.41861,0 -2.55297,0.46443 -3.40404,1.38636 v -1.07692 c 0,-0.10659 -0.0567,-0.16288 -0.16088,-0.16288 h -2.71289 c -0.10899,0 -0.16089,0.0567 -0.16089,0.16288 v 13.48408 c 0,0.1066 0.0523,0.15889 0.16089,0.15889 h 2.71289 c 0.10898,0 0.16088,-0.0523 0.16088,-0.15889 v -8.0335 c 0,-0.88661 0.23156,-1.55866 0.69114,-2.01972 0.47872,-0.47875 1.0914,-0.71793 1.83612,-0.71793 0.7178,0 1.31612,0.23914 1.79482,0.71793 0.47868,0.47883 0.71797,1.15089 0.71797,2.01972 v 8.0335 c 0,0.1066 0.0471,0.15889 0.14652,0.15889 h 2.71288 c 0.0994,0 0.14652,-0.0523 0.14652,-0.15889 v -8.0335 c 0,-0.87778 0.23155,-1.5498 0.70352,-2.01972 0.4787,-0.47875 1.09139,-0.71793 1.8361,-0.71793 0.71829,0 1.31617,0.23914 1.79484,0.71793 0.46785,0.46973 0.70559,1.14194 0.70559,2.01972 v 8.0335 c 0,0.1066 0.0519,0.15889 0.16088,0.15889 h 2.71293 c 0.10899,0 0.16089,-0.0523 0.16089,-0.15889 v -8.96394 c 0,-1.57813 -0.50606,-2.7796 -1.51633,-3.60416 -1.01978,-0.81569 -2.06735,-1.22338 -3.13998,-1.22338 -1.75555,0 -3.17782,0.56367 -4.26847,1.68968 -0.22197,-0.23076 -0.45396,-0.43903 -0.70347,-0.62514 -0.24552,-0.19523 -0.50557,-0.37288 -0.77158,-0.53225 -0.59401,-0.35451 -1.36635,-0.53229 -2.31474,-0.53229 z m -22.37788,91.88609 c -0.10899,0 -0.16089,0.0523 -0.16089,0.15888 v 18.92643 c 0,0.10659 0.0523,0.15889 0.16089,0.15889 h 2.71293 c 0.1038,0 0.16088,-0.0523 0.16088,-0.15889 v -3.81666 c 0.32137,-0.37248 0.63964,-0.74021 0.9676,-1.10374 0.33535,-0.3633 0.66711,-0.73134 0.98612,-1.10369 l 3.4721,6.10453 c 0.0471,0.0531 0.0798,0.0787 0.13215,0.0787 h 3.40613 c 0.0707,0 0.11818,-0.024 0.14652,-0.0658 0.0475,-0.0535 0,-0.11138 0,-0.17326 -0.87746,-1.36539 -1.75104,-2.71153 -2.62007,-4.04151 -0.86005,-1.33875 -1.72764,-2.69052 -2.60561,-4.05592 l 4.57379,-5.20097 c 0.0471,-0.0535 0.0523,-0.11138 0.0475,-0.17326 -0.0471,-0.0619 -0.0755,-0.0931 -0.14652,-0.0931 h -3.24517 c -0.0471,0 -0.0866,0.02 -0.11976,0.0535 -0.83362,1.01949 -1.66141,2.03432 -2.48601,3.04504 -0.81562,1.00189 -1.63997,2.01313 -2.4736,3.03267 v -11.41071 c 0,-0.10659 -0.0567,-0.15889 -0.16088,-0.15889 z m 22.37788,5.29171 c -1.41861,0 -2.55297,0.46442 -3.40404,1.38635 v -1.07687 c 0,-0.10659 -0.0567,-0.16288 -0.16088,-0.16288 h -2.71289 c -0.10899,0 -0.16089,0.0567 -0.16089,0.16288 v 13.48408 c 0,0.10659 0.0523,0.15889 0.16089,0.15889 h 2.71289 c 0.10898,0 0.16088,-0.0523 0.16088,-0.15889 v -8.03351 c 0,-0.8866 0.23156,-1.55865 0.69114,-2.01976 0.47872,-0.47871 1.0914,-0.71792 1.83612,-0.71792 0.7178,0 1.31612,0.23913 1.79482,0.71792 0.47868,0.47883 0.71797,1.15089 0.71797,2.01976 v 8.03351 c 0,0.10659 0.0471,0.15889 0.14652,0.15889 h 2.71288 c 0.0994,0 0.14652,-0.0523 0.14652,-0.15889 v -8.03351 c 0,-0.87777 0.23155,-1.54979 0.70352,-2.01976 0.4787,-0.47871 1.09139,-0.71792 1.8361,-0.71792 0.71829,0 1.31617,0.23913 1.79484,0.71792 0.46785,0.46973 0.70559,1.14199 0.70559,2.01976 v 8.03351 c 0,0.10659 0.0519,0.15889 0.16088,0.15889 h 2.71293 c 0.10899,0 0.16089,-0.0523 0.16089,-0.15889 v -8.96395 c 0,-1.57817 -0.50606,-2.77959 -1.51633,-3.60415 -1.01978,-0.81569 -2.06735,-1.22338 -3.13998,-1.22338 -1.75555,0 -3.17782,0.56362 -4.26847,1.68963 -0.22197,-0.23075 -0.45396,-0.43898 -0.70347,-0.6251 -0.24552,-0.19523 -0.50557,-0.37288 -0.77158,-0.53229 -0.59401,-0.35451 -1.36635,-0.53224 -2.31474,-0.53224 z" />
    <path
       id="path8961"
       style="color:#000000;font-style:normal;font-variant:normal;font-weight:normal;font-stretch:normal;font-size:medium;line-height:normal;font-family:sans-serif;font-variant-ligatures:normal;font-variant-position:normal;font-variant-caps:normal;font-variant-numeric:normal;font-variant-alternates:normal;font-variant-east-asian:normal;font-feature-settings:normal;font-variation-settings:normal;text-indent:0;text-align:start;text-decoration:none;text-decoration-line:none;text-decoration-style:solid;text-decoration-color:#000000;letter-spacing:normal;word-spacing:normal;text-transform:none;writing-mode:lr-tb;direction:ltr;text-orientation:mixed;dominant-baseline:auto;baseline-shift:baseline;text-anchor:start;white-space:normal;shape-padding:0;shape-margin:0;inline-size:0;clip-rule:nonzero;display:inline;overflow:visible;visibility:visible;opacity:1;isolation:auto;mix-blend-mode:normal;color-interpolation:sRGB;color-interpolation-filters:linearRGB;solid-color:#000000;solid-opacity:1;vector-effect:none;fill:#000000;fill-opacity:1;fill-rule:evenodd;stroke:none;stroke-width:0.622002;stroke-linecap:square;stroke-linejoin:miter;stroke-miterlimit:4;stroke-dasharray:none;stroke-dashoffset:0;stroke-opacity:1;paint-order:stroke fill markers;color-rendering:auto;image-rendering:auto;shape-rendering:auto;text-rendering:auto;enable-background:accumulate;stop-color:#000000;stop-opacity:1"
       d="m 378.10421,454.64667 c -3.55122,0 -6.45689,2.90324 -6.45689,6.45446 v 54.97844 c 0,3.55121 2.90567,6.45449 6.45689,6.45449 h 72.49976 c 3.55121,0 6.45445,-2.90324 6.45445,-6.45449 v -54.97844 c 0,-3.55122 -2.90324,-6.45446 -6.45445,-6.45446 z m 0,2.93358 h 72.49976 c 1.97723,0 3.52079,1.54368 3.52079,3.52088 v 54.97844 c 0,1.97724 -1.54356,3.52575 -3.52079,3.52575 h -72.49976 c -1.97719,0 -3.52327,-1.54851 -3.52327,-3.52575 v -54.97844 c 0,-1.9772 1.54608,-3.52088 3.52327,-3.52088 z m 25.76657,5.10217 c -0.0491,0 -0.0894,0.0239 -0.12137,0.0731 l -2.55108,3.56711 c -0.0239,0.0571 -0.0279,0.10978 -0.012,0.1585 0.0239,0.0423 0.0683,0.0611 0.13375,0.0611 h 1.86884 c 0.012,0 0.0359,-0.003 0.0607,-0.012 0.024,-0.012 0.0359,-0.0279 0.0471,-0.0359 l 3.37216,-3.56711 c 0.0491,-0.0486 0.0571,-0.1014 0.0239,-0.15849 -0.0239,-0.0571 -0.071,-0.0854 -0.13613,-0.0854 z m -5.72591,2.83369 -3.58903,2.84351 c -0.0571,0.0423 -0.0774,0.0958 -0.0606,0.16089 0.0239,0.0567 0.0731,0.0854 0.14611,0.0854 h 2.0394 c 0.3585,-0.21159 0.72044,-0.42812 1.08665,-0.64814 0.36648,-0.21957 0.72862,-0.44034 1.08673,-0.66028 l 2.42924,1.30842 h 2.06374 c 0.0651,0 0.1058,-0.028 0.12137,-0.0854 0.0239,-0.0651 0.008,-0.12057 -0.0483,-0.16089 l -3.63777,-2.84351 z m 0.72119,4.37123 c -1.4162,0 -2.60018,0.34213 -3.55249,1.0258 -0.94408,0.67552 -1.62827,1.40583 -2.05153,2.19529 h 0.012 c -0.1545,0.27667 -0.28385,0.5582 -0.39004,0.84304 -0.10579,0.28465 -0.18684,0.58251 -0.24392,0.89183 -0.0491,0.3094 -0.0918,0.80101 -0.12457,1.47657 -0.0239,0.67549 -0.032,1.54815 -0.032,2.6144 0,1.06629 0.008,1.94051 0.032,2.62414 0.032,0.67553 0.0755,1.16733 0.12457,1.47657 0.0571,0.3094 0.13772,0.60694 0.24392,0.89183 0.10579,0.27666 0.23514,0.55412 0.39004,0.83082 h -0.012 c 0.42341,0.79769 1.10745,1.53039 2.05153,2.19781 0.96045,0.67553 2.14447,1.01112 3.55249,1.01112 1.39186,0 2.56773,-0.33575 3.52819,-1.01112 0.96045,-0.6837 1.65674,-1.41644 2.08811,-2.19781 0.13852,-0.26029 0.2555,-0.5338 0.3533,-0.81869 0.1058,-0.28464 0.18684,-0.5865 0.24393,-0.90396 0.11418,-0.64298 0.17326,-2.00893 0.17326,-4.10071 0,-1.06625 -0.02,-1.93891 -0.0507,-2.6144 -0.0239,-0.67556 -0.0651,-1.16729 -0.12176,-1.47657 -0.1058,-0.60231 -0.30781,-1.18134 -0.60914,-1.73487 -0.42341,-0.77321 -1.11551,-1.50347 -2.076,-2.19529 -0.95228,-0.68375 -2.12815,-1.0258 -3.52807,-1.0258 z m 43.32445,0.26788 c -0.0651,0 -0.10579,0.0319 -0.12176,0.0978 l -6.39841,17.5067 c -0.012,0.0491 -0.012,0.0958 0.012,0.13614 0.0239,0.0423 0.0651,0.0583 0.12216,0.0583 l 2.79717,0.003 c 0.0239,0 0.0488,-0.008 0.0731,-0.024 0.0319,-0.0239 0.0527,-0.0487 0.0607,-0.0731 0.22795,-0.65113 0.45028,-1.29084 0.67006,-1.91759 0.22755,-0.63485 0.45686,-1.28262 0.68467,-1.9419 h 6.44467 l 1.32063,3.85949 c 0.0159,0.0651 0.0567,0.0978 0.12177,0.0978 h 2.79473 c 0.0487,0 0.085,-0.0239 0.10939,-0.0611 0.0239,-0.0423 0.0279,-0.0879 0.012,-0.13614 l -6.38519,-17.5071 c -0.008,-0.0239 -0.028,-0.0423 -0.0607,-0.0611 -0.024,-0.0239 -0.0488,-0.0359 -0.0731,-0.0359 z m -62.95573,0.0239 c -0.0978,0 -0.14613,0.0486 -0.14613,0.14611 v 17.49692 c 0,0.0978 0.0483,0.14372 0.14613,0.14372 h 11.18134 c 0.0978,0 0.14852,-0.0467 0.14852,-0.14372 v -2.49263 c 0,-0.0974 -0.0511,-0.14612 -0.14852,-0.14612 h -8.38665 v -14.85809 c 0,-0.0974 -0.0483,-0.14611 -0.14613,-0.14611 z m 29.11685,0 c -0.0978,0 -0.14611,0.0486 -0.14611,0.14611 v 17.49692 c 0,0.0978 0.0491,0.14372 0.14611,0.14372 h 2.64849 c 0.0978,0 0.14852,-0.0467 0.14852,-0.14372 v -17.49692 c 0,-0.0978 -0.0503,-0.14611 -0.14852,-0.14611 z m 12.48977,0 c -0.0978,0 -0.14612,0.0486 -0.14612,0.14611 v 17.49692 c 0,0.0978 0.0483,0.14372 0.14612,0.14372 h 2.65097 c 0.0978,0 0.14372,-0.0467 0.14372,-0.14372 v -7.32676 h 3.16266 l 3.57688,7.38521 0.0607,0.063 c 0.0239,0.012 0.0515,0.0239 0.0755,0.0239 h 3.14804 c 0.0571,0 0.0978,-0.02 0.12216,-0.0607 0.0239,-0.0491 0.0239,-0.10379 0,-0.16088 -0.65924,-1.26158 -1.3208,-2.5264 -1.98822,-3.79619 -0.66742,-1.27787 -1.33141,-2.54672 -1.99069,-3.80831 0.50466,-0.18724 0.95595,-0.43612 1.35477,-0.7456 0.39882,-0.31737 0.74898,-0.68378 1.05012,-1.09894 0.29263,-0.44744 0.52187,-0.92724 0.68467,-1.43996 0.16248,-0.52094 0.24393,-1.07164 0.24393,-1.64955 0,-0.39085 -0.0488,-0.76675 -0.14612,-1.133 -0.0978,-0.36649 -0.23354,-0.71245 -0.40457,-1.03799 -0.16289,-0.32576 -0.35252,-0.62726 -0.57257,-0.90396 -0.21159,-0.28465 -0.43664,-0.53799 -0.67249,-0.75772 -0.45596,-0.38246 -0.98796,-0.67617 -1.59842,-0.87958 -0.61037,-0.21159 -1.29452,-0.31698 -2.05153,-0.31698 z m 2.79473,2.64857 h 4.03009 c 0.36648,0 0.70431,0.0475 1.01359,0.13614 0.31738,0.0894 0.59484,0.21517 0.83086,0.37766 0.26868,0.2036 0.47057,0.4649 0.60914,0.78212 0.14611,0.31738 0.22157,0.67725 0.22157,1.08425 0,0.71625 -0.23714,1.33573 -0.70906,1.85664 -0.47209,0.5209 -1.18055,0.78216 -2.12467,0.78216 h -3.87172 z m -24.77007,0.012 c 0.29263,0 0.57046,0.0359 0.83087,0.10978 0.26069,0.0651 0.49907,0.1541 0.71884,0.26788 0.21958,0.1058 0.41636,0.23355 0.58719,0.38006 0.17924,0.14612 0.32855,0.29623 0.45076,0.45076 0.15449,0.19523 0.28824,0.42011 0.40221,0.67243 0.11418,0.24432 0.20121,0.49491 0.2583,0.75536 0.0651,0.26868 0.11378,0.69158 0.14612,1.26946 0.032,0.56973 0.0487,1.29839 0.0487,2.18559 0,1.7906 -0.0647,2.94631 -0.19483,3.46722 -0.10579,0.52095 -0.33055,0.9884 -0.67245,1.40347 -0.25231,0.34174 -0.59445,0.63541 -1.02584,0.87958 -0.4314,0.23634 -0.94732,0.35611 -1.5496,0.35611 -0.61049,0 -1.13291,-0.11977 -1.56431,-0.35611 -0.43145,-0.24433 -0.77509,-0.53772 -1.03551,-0.87958 -0.14611,-0.18723 -0.28226,-0.40174 -0.40457,-0.64571 -0.11418,-0.2523 -0.20281,-0.50545 -0.26788,-0.75776 -0.0651,-0.27666 -0.10939,-0.69976 -0.13375,-1.26945 -0.0239,-0.57788 -0.0359,-1.31057 -0.0359,-2.19777 0,-0.87091 0.008,-1.59554 0.0359,-2.17338 0.0239,-0.57796 0.0686,-1.00496 0.13375,-1.28167 0.0651,-0.26029 0.1541,-0.51117 0.26788,-0.75536 0.11418,-0.25232 0.24991,-0.47712 0.40457,-0.67243 0.26029,-0.31737 0.60411,-0.59895 1.03551,-0.84307 0.4314,-0.24433 0.95382,-0.3653 1.56431,-0.3653 z m 44.44771,1.57405 c 0.032,0.1058 0.0567,0.18685 0.0731,0.24393 0.0239,0.0567 0.0423,0.10979 0.0607,0.1585 0.012,0.0423 0.028,0.0879 0.0359,0.13613 0.012,0.0423 0.04,0.10141 0.0607,0.18285 0.0491,0.15449 0.0935,0.30021 0.13374,0.4385 0.0491,0.13854 0.0958,0.26588 0.13613,0.38006 0.0811,0.25232 0.15849,0.49492 0.23155,0.73098 0.081,0.23555 0.15849,0.473 0.23156,0.70902 0.0423,0.11419 0.0811,0.23116 0.12176,0.35332 0.0423,0.11418 0.081,0.23514 0.12176,0.36529 0.0483,0.13853 0.097,0.28625 0.14612,0.44087 0.0567,0.15449 0.11377,0.31219 0.17087,0.47515 0.0898,0.25231 0.19282,0.54989 0.30699,0.89171 0.11418,0.33375 0.23954,0.70012 0.37768,1.09894 0.012,0.0491 0.04,0.10579 0.0607,0.17087 0.032,0.0651 0.0567,0.12575 0.0731,0.18285 h -4.68788 c 0.17924,-0.5128 0.32496,-0.93579 0.4385,-1.26946 0.11418,-0.34174 0.22516,-0.65971 0.33135,-0.95266 0.1058,-0.29344 0.19842,-0.57205 0.28026,-0.84066 0.0899,-0.26868 0.17447,-0.52577 0.25591,-0.76998 0.0423,-0.11418 0.081,-0.23115 0.12175,-0.35331 0.0423,-0.12217 0.0811,-0.24992 0.12137,-0.38007 0.0423,-0.12216 0.081,-0.24312 0.12176,-0.36528 0.0491,-0.12217 0.0958,-0.25111 0.13614,-0.39004 0.012,-0.0423 0.0279,-0.0834 0.0359,-0.12456 0.008,-0.0423 0.02,-0.0822 0.032,-0.13175 0.0651,-0.19521 0.13613,-0.40788 0.20919,-0.63592 0.081,-0.22796 0.16648,-0.47699 0.2559,-0.7456 z m -49.88853,22.46339 c -0.0822,0 -0.12416,0.0423 -0.12416,0.12416 v 14.71441 c 0,0.0819 0.0427,0.12176 0.12416,0.12176 h 9.40512 c 0.0822,0 0.12416,-0.0359 0.12416,-0.12176 v -2.09549 c 0,-0.0819 -0.0423,-0.12216 -0.12416,-0.12216 h -7.05381 v -4.0861 h 5.99634 c 0.0822,0 0.12217,-0.0359 0.12217,-0.11458 v -1.99065 c 0,-0.0819 -0.0359,-0.12455 -0.12217,-0.12455 h -5.99634 v -3.94474 h 7.05381 c 0.0822,0 0.12416,-0.0359 0.12416,-0.12176 v -2.1149 c 0,-0.0819 -0.0423,-0.12416 -0.12416,-0.12416 z m 10.48455,0 c -0.0471,0 -0.0823,0.024 -0.10221,0.063 -0.02,0.032 -0.012,0.0739 0.008,0.12176 0.69829,1.19116 1.39182,2.37502 2.08324,3.55249 0.69141,1.17743 1.39038,2.36133 2.09545,3.5525 l -4.4662,7.48753 c -0.028,0.0471 -0.028,0.0931 -0.008,0.13374 0.02,0.0319 0.0563,0.0516 0.11218,0.0516 h 2.517 c 0.0423,4e-5 0.0759,-0.02 0.10219,-0.0611 0.52031,-0.88995 1.04158,-1.77475 1.56181,-2.65101 0.52031,-0.87621 1.03914,-1.75854 1.55941,-2.6485 l 3.12125,5.29951 c 0.0279,0.0423 0.0615,0.0611 0.1026,0.0611 h 2.52669 c 0.0555,4e-5 0.0938,-0.012 0.11458,-0.0516 0.02,-0.0423 0.012,-0.0854 -0.012,-0.13374 -0.75303,-1.25277 -1.49989,-2.49859 -2.23917,-3.7377 -0.73945,-1.2459 -1.48624,-2.49714 -2.23925,-3.74983 l 4.17872,-7.10499 c 0.028,-0.0483 0.0319,-0.0879 0.012,-0.12176 -0.02,-0.0423 -0.0551,-0.063 -0.10221,-0.063 h -2.52665 c -0.0423,0 -0.0755,0.024 -0.1022,0.063 -0.4724,0.8283 -0.94577,1.65158 -1.41813,2.47307 -0.4724,0.81465 -0.94324,1.63218 -1.4156,2.45359 l -2.83362,-4.92614 c -0.028,-0.0423 -0.0615,-0.063 -0.1022,-0.063 z m 12.89421,0 c -0.0822,0 -0.12416,0.0423 -0.12416,0.12416 v 14.71441 c 0,0.0819 0.0428,0.12176 0.12416,0.12176 h 2.22947 c 0.0822,0 0.12177,-0.0359 0.12177,-0.12176 v -14.7144 c 0,-0.0819 -0.04,-0.12416 -0.12177,-0.12416 z m 3.97648,0 c -0.0815,0 -0.12177,0.0423 -0.12177,0.12416 v 1.98091 c 0,0.0819 0.0427,0.12416 0.12177,0.12416 h 3.91315 v 12.60922 c 0,0.0819 0.04,0.12177 0.12177,0.12177 h 2.22699 c 0.0819,0 0.12376,-0.0359 0.12376,-0.12177 v -12.60922 h 3.90094 c 0.0819,0 0.12416,-0.0423 0.12416,-0.12416 v -1.98094 c 0,-0.0819 -0.0423,-0.12416 -0.12416,-0.12416 z" />
    <path
       id="path8997"
       style="color:#000000;font-style:normal;font-variant:normal;font-weight:normal;font-stretch:normal;font-size:medium;line-height:normal;font-family:sans-serif;font-variant-ligatures:normal;font-variant-position:normal;font-variant-caps:normal;font-variant-numeric:normal;font-variant-alternates:normal;font-variant-east-asian:normal;font-feature-settings:normal;font-variation-settings:normal;text-indent:0;text-align:start;text-decoration:none;text-decoration-line:none;text-decoration-style:solid;text-decoration-color:#000000;letter-spacing:normal;word-spacing:normal;text-transform:none;writing-mode:lr-tb;direction:ltr;text-orientation:mixed;dominant-baseline:auto;baseline-shift:baseline;text-anchor:start;white-space:normal;shape-padding:0;shape-margin:0;inline-size:0;clip-rule:nonzero;display:inline;overflow:visible;visibility:visible;opacity:1;isolation:auto;mix-blend-mode:normal;color-interpolation:sRGB;color-interpolation-filters:linearRGB;solid-color:#000000;solid-opacity:1;vector-effect:none;fill:#ffffff;fill-opacity:1;fill-rule:evenodd;stroke:none;stroke-width:0.130175;stroke-linecap:square;stroke-linejoin:miter;stroke-miterlimit:4;stroke-dasharray:none;stroke-dashoffset:0;stroke-opacity:1;paint-order:stroke fill markers;color-rendering:auto;image-rendering:auto;shape-rendering:auto;text-rendering:auto;enable-background:accumulate;stop-color:#000000;stop-opacity:1"
       d="m 361.9316,438.62445 c -3.48223,0 -6.32738,2.84487 -6.32738,6.32737 v 75.76546 11.40244 11.86255 3.36274 82.48272 c 0,3.48243 2.84526,6.32326 6.32738,6.32326 h 305.032 c 3.48194,0 6.32954,-2.84079 6.32941,-6.32326 v -82.48272 -3.27404 -13.94003 -9.41366 -75.76546 c 0,-3.48254 -2.84734,-6.32737 -6.32941,-6.32737 z m 0.02,2.80574 h 0.008 305.00517 c 1.9782,0 3.52575,1.54396 3.52575,3.52163 v 75.76546 9.41366 0.22477 1.74325 c 0,1.96251 -1.57151,3.53609 -3.53397,3.53609 h -1.96818 -0.012 c -0.0487,0.004 -0.0862,0.008 -0.11338,0.008 H 363.79865 c -0.0279,0 -0.0627,-0.004 -0.10939,-0.008 h -0.008 -1.73092 c -1.96214,0 -3.53397,-1.57362 -3.53397,-3.53609 V 444.9682 c 0,-0.36809 0.0587,-0.72532 0.16088,-1.06042 0.004,-0.008 0.008,-0.008 0.012,-0.02 0.003,-0.008 0.004,-0.0159 0.008,-0.0239 v -0.004 c 0.45076,-1.42324 1.75966,-2.42821 3.35448,-2.42821 z m -0.0535,97.02929 h 0.012 0.004 1.68344 301.40309 1.96398 c 1.95142,0 3.51545,1.56428 3.51545,3.51545 v 1.83814 0.2579 3.27404 82.48272 c 0,1.23926 -0.61181,2.30339 -1.55142,2.92954 -0.56147,0.37967 -1.23856,0.60243 -1.97225,0.60243 H 361.89874 c -1.95141,0 -3.51545,-1.56424 -3.51545,-3.51545 v -87.86932 c 0,-1.95025 1.56321,-3.51397 3.51338,-3.51545 z" />
    <path
       id="path9003"
       d="m 369.96236,620.85001 h 88.32678 v -70.48475 h -88.32678 z m 0,0"
       style="opacity:1;fill:#ffd70f;fill-opacity:1;fill-rule:nonzero;stroke:none;stroke-width:0.352777" />
    <path
       d="m 377.72598,551.66557 c -3.55121,0 -6.45689,2.9032 -6.45689,6.45446 v 54.97844 c 0,3.55118 2.90568,6.45446 6.45689,6.45446 h 72.49976 c 3.55126,0 6.45446,-2.90324 6.45446,-6.45446 v -54.97844 c 0,-3.55126 -2.9032,-6.45446 -6.45446,-6.45446 z m 0,2.93358 h 72.49976 c 1.97724,0 3.5208,1.54368 3.5208,3.52088 v 54.97844 c 0,1.97724 -1.54356,3.52575 -3.5208,3.52575 h -72.49976 c -1.9772,0 -3.52327,-1.54851 -3.52327,-3.52575 v -54.97844 c 0,-1.9772 1.54607,-3.52088 3.52327,-3.52088 z m 25.76657,5.10216 c -0.0491,0 -0.0894,0.024 -0.12136,0.0731 l -2.55108,3.5671 c -0.0239,0.0571 -0.028,0.10979 -0.012,0.15849 0.0239,0.0423 0.0683,0.0611 0.13374,0.0611 h 1.86885 c 0.012,0 0.0359,-0.003 0.0607,-0.012 0.0239,-0.012 0.0359,-0.028 0.0471,-0.0359 l 3.37216,-3.56711 c 0.0491,-0.0487 0.0571,-0.1014 0.0239,-0.15849 -0.0239,-0.0571 -0.0711,-0.0854 -0.13614,-0.0854 z m -5.72591,2.83371 -3.58903,2.84351 c -0.0571,0.0423 -0.0774,0.0958 -0.0606,0.16088 0.0239,0.0567 0.0731,0.0854 0.14611,0.0854 h 2.0394 c 0.3585,-0.21159 0.72044,-0.42813 1.08664,-0.64814 0.36649,-0.21957 0.72863,-0.44035 1.08673,-0.66028 l 2.42924,1.30842 h 2.06375 c 0.0651,0 0.1058,-0.028 0.12137,-0.0854 0.0239,-0.0651 0.008,-0.12056 -0.0483,-0.16088 l -3.63778,-2.84351 z m 0.7212,4.37121 c -1.41621,0 -2.60018,0.34214 -3.55249,1.02582 -0.94409,0.67552 -1.62829,1.40582 -2.05154,2.19529 h 0.012 c -0.15449,0.27667 -0.28384,0.5582 -0.39004,0.84304 -0.10579,0.28464 -0.18683,0.58251 -0.24393,0.89182 -0.0491,0.30941 -0.0918,0.80097 -0.12455,1.47657 -0.0239,0.6755 -0.032,1.54816 -0.032,2.61441 0,1.06628 0.008,1.94047 0.032,2.62414 0.0319,0.67553 0.0755,1.16733 0.12455,1.47657 0.0571,0.3094 0.13774,0.60694 0.24393,0.89179 0.1058,0.27666 0.23514,0.55412 0.39004,0.83086 h -0.012 c 0.42342,0.79769 1.10745,1.53039 2.05154,2.19781 0.96044,0.67553 2.14447,1.01111 3.55249,1.01111 1.39185,0 2.56773,-0.33574 3.52819,-1.01111 0.96045,-0.68372 1.65673,-1.41645 2.08809,-2.19781 0.13854,-0.26029 0.25551,-0.5338 0.35332,-0.81869 0.1058,-0.28465 0.18683,-0.5865 0.24393,-0.90396 0.11417,-0.64299 0.17326,-2.00893 0.17326,-4.10071 0,-1.06625 -0.02,-1.93891 -0.0507,-2.61441 -0.0239,-0.6756 -0.0651,-1.16728 -0.12175,-1.47657 -0.1058,-0.6023 -0.30781,-1.18134 -0.60914,-1.73486 -0.42342,-0.77322 -1.11551,-1.50348 -2.07597,-2.19529 -0.95231,-0.68376 -2.12819,-1.02582 -3.5281,-1.02582 z m 43.32445,0.26788 c -0.0651,0 -0.1058,0.032 -0.12177,0.0978 l -6.39836,17.5067 c -0.012,0.0491 -0.012,0.0958 0.012,0.13614 0.0239,0.0423 0.0651,0.0583 0.12216,0.0583 l 2.79712,0.003 c 0.0239,0 0.0487,-0.008 0.0731,-0.0239 0.032,-0.0239 0.0527,-0.0488 0.0607,-0.0731 0.22796,-0.65113 0.45029,-1.29085 0.6701,-1.91759 0.22755,-0.63485 0.45683,-1.28264 0.68463,-1.94191 h 6.44468 l 1.32063,3.8595 c 0.0159,0.0651 0.0567,0.0978 0.12176,0.0978 h 2.79473 c 0.0487,0 0.085,-0.0239 0.10939,-0.0611 0.0239,-0.0423 0.0279,-0.0879 0.012,-0.13614 l -6.38519,-17.50709 c -0.008,-0.0239 -0.028,-0.0423 -0.0607,-0.0611 -0.0239,-0.0239 -0.0488,-0.0359 -0.0731,-0.0359 z m -62.95574,0.0239 c -0.0978,0 -0.14612,0.0487 -0.14612,0.14612 v 17.49696 c 0,0.0978 0.0483,0.14371 0.14612,0.14371 h 11.18135 c 0.0978,0 0.14852,-0.0471 0.14852,-0.14371 v -2.49264 c 0,-0.0978 -0.0511,-0.14611 -0.14852,-0.14611 h -8.38666 v -14.8581 c 0,-0.0978 -0.0483,-0.14611 -0.14612,-0.14611 z m 29.11686,0 c -0.0978,0 -0.14612,0.0487 -0.14612,0.14612 v 17.49696 c 0,0.0978 0.0491,0.14371 0.14612,0.14371 h 2.64849 c 0.0978,0 0.14851,-0.0471 0.14851,-0.14371 v -17.49696 c 0,-0.0974 -0.0503,-0.14612 -0.14851,-0.14612 z m 12.48977,0 c -0.0978,0 -0.14612,0.0487 -0.14612,0.14612 v 17.49696 c 0,0.0978 0.0483,0.14371 0.14612,0.14371 h 2.65096 c 0.0978,0 0.14373,-0.0471 0.14373,-0.14371 v -7.32677 h 3.16265 l 3.57689,7.38521 0.0607,0.0634 c 0.0239,0.012 0.0515,0.0239 0.0754,0.0239 h 3.14804 c 0.0571,0 0.0978,-0.02 0.12217,-0.0607 0.0239,-0.0491 0.0239,-0.1038 0,-0.1609 -0.65924,-1.26158 -1.32084,-2.5264 -1.98826,-3.79617 -0.66738,-1.27789 -1.33137,-2.54678 -1.99065,-3.80833 0.50462,-0.18724 0.95595,-0.43611 1.35473,-0.74558 0.39882,-0.31739 0.74898,-0.68384 1.05016,-1.09895 0.29263,-0.44745 0.52186,-0.92724 0.68467,-1.43996 0.16248,-0.52095 0.24393,-1.07168 0.24393,-1.64956 0,-0.39083 -0.0488,-0.76675 -0.14613,-1.133 -0.0978,-0.36648 -0.23354,-0.71245 -0.40457,-1.03798 -0.16288,-0.32577 -0.35251,-0.62726 -0.57257,-0.90396 -0.21158,-0.28465 -0.43663,-0.538 -0.67248,-0.75773 -0.45596,-0.38245 -0.98797,-0.67617 -1.59842,-0.87961 -0.61037,-0.21159 -1.29452,-0.31699 -2.05158,-0.31699 z m 2.79473,2.64857 h 4.03008 c 0.36649,0 0.70431,0.0475 1.01359,0.13614 0.31739,0.0894 0.59485,0.21478 0.83091,0.37767 0.26868,0.2036 0.47052,0.4649 0.6091,0.78212 0.14611,0.31738 0.22156,0.67724 0.22156,1.08425 0,0.71621 -0.23714,1.33573 -0.70906,1.85663 -0.47208,0.52091 -1.18054,0.78213 -2.12467,0.78213 h -3.87171 z m -24.77007,0.012 c 0.29263,0 0.57049,0.0359 0.83091,0.10979 0.26068,0.0651 0.49902,0.1541 0.7188,0.26788 0.21958,0.1058 0.41635,0.23314 0.58718,0.38006 0.17925,0.14612 0.32856,0.29622 0.4508,0.45076 0.1545,0.19522 0.28824,0.4201 0.40218,0.67241 0.11418,0.24434 0.20121,0.49492 0.25829,0.75534 0.0651,0.26867 0.11379,0.69161 0.14613,1.26949 0.0319,0.56973 0.0487,1.2984 0.0487,2.18559 0,1.79061 -0.0647,2.94632 -0.19483,3.46723 -0.10579,0.5209 -0.33055,0.98839 -0.67245,1.40347 -0.25231,0.34173 -0.5944,0.63541 -1.0258,0.87957 -0.43144,0.23634 -0.94736,0.35611 -1.54964,0.35611 -0.61045,0 -1.13291,-0.11977 -1.56431,-0.35611 -0.43145,-0.24433 -0.77505,-0.53771 -1.03551,-0.87957 -0.14611,-0.18724 -0.28225,-0.40178 -0.40457,-0.64571 -0.11419,-0.25231 -0.20281,-0.50545 -0.26788,-0.75776 -0.0651,-0.27667 -0.10939,-0.69976 -0.13375,-1.26945 -0.0239,-0.57788 -0.0359,-1.31058 -0.0359,-2.19778 0,-0.8709 0.008,-1.59553 0.0359,-2.17337 0.024,-0.57796 0.0686,-1.00497 0.13375,-1.28171 0.0651,-0.2603 0.1541,-0.51113 0.26788,-0.75534 0.11418,-0.25231 0.24991,-0.47711 0.40457,-0.67241 0.26029,-0.31738 0.60415,-0.59895 1.03551,-0.84308 0.4314,-0.24433 0.95386,-0.36529 1.56431,-0.36529 z m 44.44775,1.57406 c 0.0319,0.1058 0.0567,0.18684 0.0731,0.24393 0.0239,0.0567 0.0423,0.10978 0.0607,0.15849 0.012,0.0423 0.028,0.0879 0.0359,0.13614 0.012,0.0423 0.0399,0.1014 0.0606,0.18284 0.0491,0.1545 0.0935,0.30021 0.13375,0.43851 0.0491,0.13853 0.0958,0.26588 0.13613,0.38006 0.0811,0.25231 0.15849,0.49492 0.23155,0.73094 0.0811,0.23554 0.15849,0.47304 0.23155,0.70906 0.0423,0.11418 0.0811,0.23115 0.12177,0.35332 0.0423,0.11417 0.081,0.23514 0.12176,0.36528 0.0483,0.13854 0.097,0.28624 0.14612,0.44087 0.0571,0.1545 0.11377,0.31219 0.17086,0.47512 0.0898,0.2523 0.19282,0.54993 0.30701,0.89175 0.11418,0.33374 0.23953,0.70011 0.37767,1.09894 0.012,0.0491 0.04,0.10579 0.0607,0.17087 0.032,0.0651 0.0567,0.12575 0.0731,0.18284 h -4.68793 c 0.17925,-0.51281 0.32497,-0.93578 0.43851,-1.26945 0.11418,-0.34174 0.22556,-0.65973 0.33135,-0.95268 0.1058,-0.29342 0.19842,-0.57205 0.28026,-0.84068 0.0898,-0.26868 0.17447,-0.52574 0.25591,-0.76994 0.0423,-0.11418 0.081,-0.23115 0.12175,-0.35332 0.0427,-0.12216 0.0811,-0.24991 0.12137,-0.38006 0.0427,-0.12216 0.081,-0.24313 0.12176,-0.36529 0.0491,-0.12216 0.0958,-0.25111 0.13614,-0.39004 0.012,-0.0423 0.028,-0.0834 0.0359,-0.12455 0.012,-0.0423 0.02,-0.0823 0.032,-0.13175 0.0651,-0.19523 0.13613,-0.40788 0.20919,-0.63592 0.0811,-0.22796 0.16647,-0.477 0.2559,-0.7456 z m -49.88854,22.46339 c -0.0822,0 -0.12416,0.0423 -0.12416,0.12416 v 14.7144 c 0,0.0819 0.0428,0.12177 0.12416,0.12177 h 9.40509 c 0.0822,0 0.12416,-0.0359 0.12416,-0.12177 v -2.09548 c 0,-0.0819 -0.0423,-0.12217 -0.12416,-0.12217 h -7.05378 v -4.08609 h 5.99631 c 0.0822,0 0.12217,-0.0359 0.12217,-0.11459 v -1.99068 c 0,-0.0819 -0.0359,-0.12416 -0.12217,-0.12416 h -5.99631 v -3.94473 h 7.05378 c 0.0822,0 0.12416,-0.0359 0.12416,-0.12177 V 594.02 c 0,-0.0819 -0.0423,-0.12416 -0.12416,-0.12416 z m 10.48451,0 c -0.0471,0 -0.0822,0.0239 -0.10221,0.063 -0.02,0.032 -0.012,0.0738 0.008,0.12176 0.69828,1.19121 1.39182,2.37503 2.08324,3.55254 0.69141,1.17739 1.39037,2.36129 2.09544,3.55246 l -4.4662,7.48757 c -0.028,0.0471 -0.028,0.0931 -0.008,0.13373 0.02,0.032 0.0563,0.0516 0.11218,0.0516 h 2.51699 c 0.0423,3e-5 0.0759,-0.02 0.1022,-0.0611 0.52031,-0.88996 1.04158,-1.77476 1.56184,-2.65097 0.52028,-0.87626 1.0391,-1.75859 1.55937,-2.64854 l 3.12126,5.29951 c 0.0279,0.0423 0.0615,0.0611 0.10259,0.0611 h 2.5267 c 0.0555,3e-5 0.0938,-0.012 0.11457,-0.0516 0.02,-0.0423 0.012,-0.0854 -0.012,-0.13373 -0.75298,-1.25277 -1.49988,-2.49859 -2.23917,-3.73771 -0.73945,-1.24589 -1.48623,-2.49714 -2.23925,-3.74986 l 4.17872,-7.105 c 0.028,-0.0483 0.032,-0.0879 0.012,-0.12176 -0.02,-0.0423 -0.0551,-0.063 -0.10219,-0.063 H 411.931 c -0.0423,0 -0.0755,0.0239 -0.1026,0.063 -0.4724,0.82834 -0.94577,1.65159 -1.41813,2.47312 -0.47236,0.81465 -0.9432,1.63218 -1.4156,2.45358 l -2.83366,-4.9267 c -0.028,-0.0423 -0.0615,-0.063 -0.1022,-0.063 z m 12.89422,0 c -0.0822,0 -0.12416,0.0423 -0.12416,0.12416 v 14.7144 c 0,0.0819 0.0427,0.12177 0.12416,0.12177 h 2.22947 c 0.0822,0 0.12176,-0.0359 0.12176,-0.12177 v -14.7144 c 0,-0.0819 -0.04,-0.12416 -0.12176,-0.12416 z m 3.97647,0 c -0.0815,0 -0.12176,0.0423 -0.12176,0.12416 v 1.98091 c 0,0.0819 0.0428,0.12455 0.12176,0.12455 h 3.91316 v 12.60922 c 0,0.0819 0.04,0.12177 0.12176,0.12177 h 2.227 c 0.0819,0 0.12375,-0.0359 0.12375,-0.12177 v -12.60922 h 3.90095 c 0.0819,0 0.12416,-0.0423 0.12416,-0.12455 v -1.98095 c 0,-0.0819 -0.0423,-0.12416 -0.12416,-0.12416 z"
       style="color:#000000;font-style:normal;font-variant:normal;font-weight:normal;font-stretch:normal;font-size:medium;line-height:normal;font-family:sans-serif;font-variant-ligatures:normal;font-variant-position:normal;font-variant-caps:normal;font-variant-numeric:normal;font-variant-alternates:normal;font-variant-east-asian:normal;font-feature-settings:normal;font-variation-settings:normal;text-indent:0;text-align:start;text-decoration:none;text-decoration-line:none;text-decoration-style:solid;text-decoration-color:#000000;letter-spacing:normal;word-spacing:normal;text-transform:none;writing-mode:lr-tb;direction:ltr;text-orientation:mixed;dominant-baseline:auto;baseline-shift:baseline;text-anchor:start;white-space:normal;shape-padding:0;shape-margin:0;inline-size:0;clip-rule:nonzero;display:inline;overflow:visible;visibility:visible;opacity:1;isolation:auto;mix-blend-mode:normal;color-interpolation:sRGB;color-interpolation-filters:linearRGB;solid-color:#000000;solid-opacity:1;vector-effect:none;fill:#000000;fill-opacity:1;fill-rule:evenodd;stroke:none;stroke-width:0.622002;stroke-linecap:square;stroke-linejoin:miter;stroke-miterlimit:4;stroke-dasharray:none;stroke-dashoffset:0;stroke-opacity:1;paint-order:stroke fill markers;color-rendering:auto;image-rendering:auto;shape-rendering:auto;text-rendering:auto;enable-background:accumulate;stop-color:#000000;stop-opacity:1"
       id="path9005" />
    <path
       id="path12020"
       style="font-style:normal;font-variant:normal;font-weight:normal;font-stretch:normal;font-size:24.8363px;line-height:1.3;font-family:DINSchrift;-inkscape-font-specification:DINSchrift;text-align:center;text-anchor:middle;opacity:1;fill:#ffffff;stroke-width:0.264583"
       d="m 503.26483,473.52826 -2.80535,3.70959 h 1.63622 l 3.73503,-3.70959 z m 31.88899,1.19611 -2.90113,3.83679 h 1.6916 l 3.84876,-3.83679 z m -38.04311,1.24997 -2.71258,2.72455 h 1.79488 l 1.86083,-1.42212 1.9146,1.42212 h 1.82038 l -2.68411,-2.72455 z m 42.89193,2.39076 -0.96409,0.86672 c 0.30262,0.43076 0.42633,0.80646 0.37128,1.12725 -0.0551,0.33015 -0.24233,0.60921 -0.56287,0.83832 -0.10379,0.0783 -0.21478,0.11538 -0.32776,0.13334 v -1.48052 h -2.58981 v 13.75738 c 0,1.2691 -0.68507,1.87872 -1.59881,1.87872 -0.91371,0 -1.59878,-0.60962 -1.59878,-1.87872 v -13.75738 h -2.58828 v 14.01185 c 0,2.3605 1.87734,4.21258 4.18706,4.21258 2.30971,0 4.18862,-1.85208 4.18862,-4.21258 v -11.18554 c 0.0495,-0.003 0.0959,-0.003 0.14811,-0.008 0.43991,-0.046 0.89335,-0.23874 1.36072,-0.57784 0.50405,-0.36649 0.7618,-0.8935 0.77098,-1.58085 0.0159,-0.68738 -0.17047,-1.30207 -0.56435,-1.84282 -0.0731,-0.101 -0.14931,-0.20161 -0.23194,-0.30221 z m 6.38771,1.33381 c -2.51281,0 -4.21258,1.80117 -4.21258,4.16162 v 9.95055 c 0,3.29959 2.28368,4.26344 4.26343,4.26344 2.30968,0 4.11225,-1.95353 4.11225,-4.1871 v -1.11676 h -2.5898 v 0.88772 c 0,1.42135 -0.91355,1.82784 -1.62425,1.82784 -1.16757,0 -1.57334,-0.81265 -1.57334,-1.85331 v -9.23945 c 0,-1.21827 0.30421,-2.10627 1.59877,-2.10627 0.98987,0 1.59882,0.86349 1.59882,1.87876 v 0.86224 h 2.5898 v -1.01495 c 0,-2.51275 -1.7773,-4.31433 -4.1631,-4.31433 z m -62.90529,0.1513 v 18.07172 h 3.52839 c 3.35037,0 4.8473,-1.77631 4.8473,-4.92359 v -1.01498 c 0,-1.87824 -0.55716,-2.97012 -1.77547,-3.55386 1.14218,-0.71069 1.77547,-1.42128 1.77547,-3.35029 v -0.66015 c 0,-2.3605 -1.24247,-4.56885 -4.59279,-4.56885 z m 10.8068,0 v 18.07172 h 7.71701 v -2.58833 h -5.12723 v -5.30532 h 4.46707 v -2.43559 h -4.46707 v -5.30537 h 5.12723 v -2.43711 z m 10.11072,0 v 18.07172 h 2.5898 v -10.8622 h 0.0511 l 3.95955,10.8622 h 2.43563 v -18.07172 h -2.58833 v 10.88912 h -0.0511 l -3.90873,-10.88912 z m 16.60165,0 v 18.07172 h 7.71553 v -2.58833 h -5.12719 v -15.48339 z m -34.92939,2.43711 h 1.06589 c 1.70053,0 2.28439,0.83809 2.28439,2.4371 0,1.6498 -0.45671,2.53739 -2.18259,2.53739 h -1.16769 z m 0,7.25893 h 1.14217 c 1.87828,0 2.20811,0.93889 2.20811,2.74099 0,1.77671 -0.1521,3.04636 -2.2335,3.04636 h -1.11678 z" />
    <g
       aria-label="CHỢ ĐỆM"
       id="text9028"
       style="font-size:19.6634px;line-height:1.3;font-family:'Singapore Road Signs';-inkscape-font-specification:'Singapore Road Signs';text-align:center;text-anchor:middle;opacity:1;fill:#ffffff;stroke-width:0.187864"
       transform="matrix(1.4083742,0,0,1.4083742,115.18279,-65.105873)">
      <path
         d="m 266.9324,465.55526 q 0,0.62408 -0.0768,1.07534 -0.0672,0.44166 -0.39365,0.96973 -0.31684,0.52807 -1.01774,0.95052 -0.70089,0.42246 -1.42098,0.42246 -0.86412,0 -1.58421,-0.37445 -0.7201,-0.37445 -1.05614,-0.94093 -0.33605,-0.56647 -0.42246,-1.04653 -0.0864,-0.48967 -0.0864,-1.05614 v -6.7689 q 0,-0.54727 0.10561,-0.97933 0.11522,-0.43206 0.46086,-0.94092 0.35525,-0.51847 0.98894,-0.87372 0.64328,-0.36485 1.35377,-0.36485 1.35378,0 2.2467,0.89292 0.90252,0.89292 0.90252,2.2659 v 0.7105 h -1.85304 v -0.7105 q 0,-0.54727 -0.30725,-0.91212 -0.29763,-0.36485 -0.89291,-0.36485 -0.54728,0 -0.85452,0.36485 -0.29764,0.36485 -0.29764,0.91212 v 6.7689 q 0,0.25923 0.01,0.51847 0.01,0.24963 0.25923,0.64328 0.25923,0.39365 0.90252,0.39365 0.69129,0 0.89292,-0.34564 0.21123,-0.34565 0.24963,-0.50887 0.0384,-0.17282 0.0384,-0.46086 v -0.24003 -0.43206 h 1.85304 z"
         style="font-style:normal;font-variant:normal;font-weight:normal;font-stretch:normal;font-family:Giaothong1;-inkscape-font-specification:Giaothong1;fill:#ffffff;stroke-width:0.187864"
         id="path9043" />
      <path
         d="m 268.55502,468.85809 v -13.11533 h 1.85304 v 5.60714 h 2.39072 v -5.60714 h 1.85304 v 13.11533 h -1.85304 v -5.85677 h -2.39072 v 5.85677 z"
         style="font-style:normal;font-variant:normal;font-weight:normal;font-stretch:normal;font-family:Giaothong1;-inkscape-font-specification:Giaothong1;fill:#ffffff;stroke-width:0.187864"
         id="path9045" />
      <path
         d="m 280.67182,458.00866 q -0.39365,-0.53767 -1.01774,-0.53767 -0.33604,0 -0.66248,0.19202 -0.32645,0.18243 -0.45126,0.41286 -0.12482,0.22083 -0.16323,0.46086 -0.0384,0.23043 -0.0384,0.39365 v 6.68248 q 0,0.20163 0.0288,0.44166 0.0288,0.23043 0.30724,0.63369 0.28804,0.40325 0.97933,0.40325 0.35525,0 0.63369,-0.16322 0.28804,-0.17282 0.41285,-0.38405 0.13442,-0.22083 0.17282,-0.41286 0.0384,-0.20162 0.0384,-0.51847 v -6.68248 q 0,-0.39365 -0.0288,-0.54727 -0.0288,-0.16322 -0.21123,-0.37445 z m -1.85305,13.94104 v -1.60341 h 1.60342 v 1.60341 z m 4.38778,-17.20547 q 0.0576,0.0768 0.11522,0.15362 0.41285,0.56647 0.39365,1.28657 -0.01,0.72009 -0.53767,1.10414 -0.27844,0.20163 -0.61448,0.30724 0.0288,0.0864 0.0576,0.17283 0.15362,0.52807 0.15362,1.16175 v 6.68248 q 0,0.59528 -0.10562,1.03694 -0.10561,0.44166 -0.46086,0.98893 -0.35525,0.54727 -1.04654,0.94093 -0.68169,0.39365 -1.48819,0.39365 -0.92173,0 -1.69943,-0.47046 -0.7777,-0.47047 -1.08494,-1.06574 -0.30724,-0.60488 -0.36485,-0.96973 -0.0576,-0.36485 -0.0576,-0.85452 v -6.68248 q 0,-0.59528 0.12482,-1.04654 0.13442,-0.45126 0.44166,-0.90252 0.45126,-0.63368 1.14255,-0.98893 0.69129,-0.36485 1.44019,-0.36485 0.72009,0 1.36338,0.29764 0.64328,0.28804 1.06574,0.79691 0.0384,0.048 0.0768,0.096 0.13442,-0.0576 0.23043,-0.15362 0.33604,-0.24003 0.39365,-0.58568 0.048,-0.30724 -0.13442,-0.72009 z"
         style="font-style:normal;font-variant:normal;font-weight:normal;font-stretch:normal;font-family:Giaothong1;-inkscape-font-specification:Giaothong1;fill:#ffffff;stroke-width:0.187864"
         id="path9047" />
      <path
         d="m 287.27749,462.8765 v -1.565 h 1.14255 v -5.56874 h 2.9668 q 1.25776,0 2.16988,0.89292 0.92172,0.89291 0.92172,2.15068 v 6.8265 q 0,1.42099 -0.88331,2.33311 -0.87372,0.91212 -2.2659,0.91212 h -2.90919 v -5.98159 z m 4.24376,0.0192 h -1.23856 v 4.21496 h 0.91212 q 0.7201,0 1.06574,-0.38405 0.34565,-0.38405 0.34565,-1.11375 v -6.8265 q 0,-0.54727 -0.40326,-0.91212 -0.40325,-0.36485 -0.95052,-0.36485 h -0.96973 v 3.80211 h 1.23856 z"
         style="font-style:normal;font-variant:normal;font-weight:normal;font-stretch:normal;font-family:Giaothong1;-inkscape-font-specification:Giaothong1;fill:#ffffff;stroke-width:0.187864"
         id="path9049" />
      <path
         d="m 301.77541,466.96664 v 1.89145 h -5.60714 v -13.11533 h 5.60714 v 1.72823 h -3.7541 v 3.87891 h 3.30284 v 1.76663 h -3.30284 v 3.85011 z m -3.65808,4.98306 v -1.60341 h 1.60341 v 1.60341 z m 0.82571,-18.00238 -1.34418,1.02734 h -1.29617 l 1.95866,-1.96826 h 1.44019 l 1.93945,1.96826 h -1.31537 z"
         style="font-style:normal;font-variant:normal;font-weight:normal;font-stretch:normal;font-family:Giaothong1;-inkscape-font-specification:Giaothong1;fill:#ffffff;stroke-width:0.187864"
         id="path9051" />
      <path
         d="m 310.0517,468.85809 v -7.97865 l -1.87224,5.59754 h -0.94093 l -1.86264,-5.59754 v 7.97865 h -1.87225 v -13.11533 h 1.74743 l 2.49633,6.98012 2.43872,-6.98012 h 1.73783 v 13.11533 z"
         style="font-style:normal;font-variant:normal;font-weight:normal;font-stretch:normal;font-family:Giaothong1;-inkscape-font-specification:Giaothong1;fill:#ffffff;stroke-width:0.187864"
         id="path9053" />
    </g>
    <g
       aria-label="27"
       id="text9032"
       style="font-size:23.011px;line-height:1.3;font-family:'Singapore Road Signs';-inkscape-font-specification:'Singapore Road Signs';text-align:center;text-anchor:middle;opacity:1;fill:#ffffff;stroke-width:0.187864"
       transform="matrix(1.4083742,0,0,1.4083742,115.18279,-65.105873)">
      <path
         d="m 329.36158,469.43018 q -0.13483,0 -0.13483,-0.13483 v -2.19099 l 6.29207,-7.87632 v 0.0112 q 0.34831,-0.43819 0.44944,-0.79774 0.10112,-0.37078 0.10112,-0.71909 0,-0.77528 -0.56179,-1.46066 -0.5618,-0.67415 -1.51684,-0.67415 -0.8764,0 -1.51684,0.5955 -0.3146,0.29213 -0.48314,0.69662 -0.1573,0.39325 -0.20225,0.89887 0,0.0562 -0.0449,0.0899 -0.0337,0.0337 -0.0899,0.0337 h -2.29211 q -0.13483,0 -0.13483,-0.13483 0.0225,-1.99998 1.35954,-3.35952 1.35954,-1.382 3.23592,-1.382 2.03369,0 3.42693,1.39324 h -0.0112 q 1.382,1.38201 1.382,3.32581 0,0.84269 -0.24718,1.56178 -0.24719,0.71909 -0.74157,1.33706 v -0.0112 q -0.64044,0.80898 -1.25841,1.58425 -0.61798,0.77528 -1.23595,1.55055 -0.61797,0.76404 -1.23594,1.53931 -0.61797,0.76404 -1.25841,1.57302 h 5.84263 q 0.13483,0 0.13483,0.13483 v 2.28087 q 0,0.13483 -0.13483,0.13483 z"
         style="font-style:normal;font-variant:normal;font-weight:normal;font-stretch:normal;font-family:'Alte DIN 1451 Mittelschrift gepraegt';-inkscape-font-specification:'Alte DIN 1451 Mittelschrift gepraegt';fill:#ffffff;stroke-width:0.187864"
         id="path9056" />
      <path
         d="m 340.85585,458.03704 q -0.13483,0 -0.13483,-0.13483 v -4.59546 q 0,-0.13483 0.13483,-0.13483 h 9.10103 q 0.12359,0 0.12359,0.13483 v 2.30335 l -5.41567,13.73019 q -0.045,0.0899 -0.1236,0.0899 h -2.57301 q -0.0786,0 -0.11235,-0.0562 -0.0337,-0.0562 -0.0112,-0.12359 l 5.3595,-13.51672 h -3.93255 v 2.16852 q 0,0.13483 -0.12359,0.13483 z"
         style="font-style:normal;font-variant:normal;font-weight:normal;font-stretch:normal;font-family:'Alte DIN 1451 Mittelschrift gepraegt';-inkscape-font-specification:'Alte DIN 1451 Mittelschrift gepraegt';fill:#ffffff;stroke-width:0.187864"
         id="path9058" />
    </g>
    <g
       aria-label="16"
       id="text9036"
       style="font-size:23.011px;line-height:1.3;font-family:'Singapore Road Signs';-inkscape-font-specification:'Singapore Road Signs';text-align:center;text-anchor:middle;opacity:1;fill:#ffffff;stroke-width:0.187864"
       transform="matrix(1.4083742,0,0,1.4083742,115.18279,-65.105873)">
      <path
         d="m 335.70446,400.46389 q -0.13483,0 -0.13483,-0.13483 v -13.34818 q -0.51685,0.38202 -1.0337,0.77527 -0.51685,0.38202 -1.0337,0.75281 -0.0786,0.0562 -0.14606,0.0225 -0.0674,-0.045 -0.0674,-0.13483 v -2.43818 q 0,-0.0225 0.0112,-0.0562 0.0225,-0.0337 0.0449,-0.0562 l 2.31458,-1.67414 h 2.34829 q 0.13483,0 0.13483,0.13483 v 16.02231 q 0,0.13483 -0.13483,0.13483 z"
         style="font-style:normal;font-variant:normal;font-weight:normal;font-stretch:normal;font-family:'Alte DIN 1451 Mittelschrift gepraegt';-inkscape-font-specification:'Alte DIN 1451 Mittelschrift gepraegt';fill:#ffffff;stroke-width:0.187864"
         id="path9038" />
      <path
         d="m 340.70441,388.77862 q 0.0112,-1.12359 0.38201,-1.99998 0.37079,-0.88764 1.04494,-1.51684 0.64044,-0.58427 1.43818,-0.89887 0.79775,-0.32584 1.67414,-0.32584 1.59549,0 2.88762,0.95505 1.21347,0.96628 1.58425,2.78649 0.0225,0.0674 -0.0225,0.11235 -0.045,0.0449 -0.11236,0.0449 h -2.30335 q -0.0899,0 -0.12359,-0.0786 -0.50562,-1.23595 -1.92133,-1.26965 -2.03369,0.0562 -2.03369,2.33705 v 1.32583 q 0.73033,-0.21348 1.44943,-0.33707 0.73032,-0.1236 1.382,-0.11236 1.57302,0 2.69661,1.10111 1.07864,1.13482 1.0674,3.49435 v 1.46065 q -0.0337,2.30335 -1.37077,3.50559 -1.25842,1.191 -3.17975,1.24717 -1.86514,-0.0562 -3.11232,-1.23594 -1.41572,-1.23594 -1.42695,-3.50558 z m 2.49435,6.95498 q 0.0112,2.30335 2.04492,2.32582 1.98875,-0.0112 2.0674,-2.32582 v -1.31459 q -0.0899,-2.28088 -2.0674,-2.32582 -2.03368,0.0562 -2.04492,2.32582 z"
         style="font-style:normal;font-variant:normal;font-weight:normal;font-stretch:normal;font-family:'Alte DIN 1451 Mittelschrift gepraegt';-inkscape-font-specification:'Alte DIN 1451 Mittelschrift gepraegt';fill:#ffffff;stroke-width:0.187864"
         id="path9040" />
    </g>
  </g>
</svg>
