<?xml version="1.0" encoding="UTF-8" standalone="no"?>
<svg
   xmlns:dc="http://purl.org/dc/elements/1.1/"
   xmlns:cc="http://creativecommons.org/ns#"
   xmlns:rdf="http://www.w3.org/1999/02/22-rdf-syntax-ns#"
   xmlns:svg="http://www.w3.org/2000/svg"
   xmlns="http://www.w3.org/2000/svg"
   xmlns:sodipodi="http://sodipodi.sourceforge.net/DTD/sodipodi-0.dtd"
   xmlns:inkscape="http://www.inkscape.org/namespaces/inkscape"
   width="1606.1937mm"
   height="500mm"
   viewBox="0 0 1606.1937 500"
   version="1.1"
   id="svg848"
   inkscape:version="1.0 (4035a4fb49, 2020-05-01)"
   sodipodi:docname="Vietnam_road_sign_I445g.svg">
  <defs
     id="defs842" />
  <sodipodi:namedview
     id="base"
     pagecolor="#ffffff"
     bordercolor="#666666"
     borderopacity="1.0"
     inkscape:pageopacity="0.0"
     inkscape:pageshadow="2"
     inkscape:zoom="0.13021881"
     inkscape:cx="3849.3394"
     inkscape:cy="2526.0857"
     inkscape:document-units="mm"
     inkscape:current-layer="text2903"
     showgrid="false"
     inkscape:snap-global="false"
     inkscape:window-width="1920"
     inkscape:window-height="1001"
     inkscape:window-x="-9"
     inkscape:window-y="-9"
     inkscape:window-maximized="1"
     fit-margin-top="0"
     fit-margin-left="0"
     fit-margin-right="0"
     fit-margin-bottom="0"
     showguides="true"
     inkscape:measure-start="0,0"
     inkscape:measure-end="0,0"
     inkscape:document-rotation="0" />
  <metadata
     id="metadata845">
    <rdf:RDF>
      <cc:Work
         rdf:about="">
        <dc:format>image/svg+xml</dc:format>
        <dc:type
           rdf:resource="http://purl.org/dc/dcmitype/StillImage" />
        <dc:title></dc:title>
      </cc:Work>
    </rdf:RDF>
  </metadata>
  <g
     inkscape:label="Layer 1"
     inkscape:groupmode="layer"
     id="layer1"
     transform="translate(-1098.5453,606.31145)">
    <path
       cx="150"
       cy="147"
       r="150"
       id="path8376"
       style="opacity:1;fill:#d35f5f;fill-opacity:1;fill-rule:nonzero;stroke:none;stroke-width:3.92256;stroke-linecap:butt;stroke-linejoin:miter;stroke-miterlimit:4;stroke-dasharray:none;stroke-opacity:1;paint-order:stroke fill markers"
       d=""
       inkscape:connector-curvature="0" />
    <g
       aria-label="VỊNH"
       style="font-style:normal;font-variant:normal;font-weight:bold;font-stretch:normal;font-size:299.854px;line-height:0;font-family:Giaothong1;-inkscape-font-specification:'Giaothong1 Bold';letter-spacing:0px;word-spacing:0px;fill:#ffcc00;fill-opacity:1;stroke:none;stroke-width:1.56174"
       id="text3577"
       transform="translate(-4496.0426,2396.6803)"
       inkscape:groupmode="layer">
      <g
         aria-label="VỊNH"
         style="font-style:normal;font-variant:normal;font-weight:bold;font-stretch:normal;font-size:299.854px;line-height:0;font-family:Giaothong1;-inkscape-font-specification:'Giaothong1 Bold';letter-spacing:-2.78077px;word-spacing:0px;fill:#ffcc00;fill-opacity:1;stroke:none;stroke-width:2.43903"
         id="text3665" />
    </g>
    <g
       aria-label="CÔNG TRƯỜNG"
       style="font-style:normal;font-variant:normal;font-weight:bold;font-stretch:normal;font-size:184.173px;line-height:0;font-family:Giaothong1;-inkscape-font-specification:'Giaothong1 Bold';letter-spacing:0px;word-spacing:0.486833px;fill:#ffffff;fill-opacity:1;stroke:none;stroke-width:0.959232"
       id="text2719"
       inkscape:groupmode="layer">
      <g
         aria-label="AHEAD"
         style="font-style:normal;font-variant:normal;font-weight:bold;font-stretch:normal;font-size:187.408px;line-height:0;font-family:Giaothong1;-inkscape-font-specification:'Giaothong1 Bold';letter-spacing:0.00264583px;word-spacing:0px;fill:#ffffff;fill-opacity:1;stroke:none;stroke-width:0.936293"
         id="text2888"
         inkscape:groupmode="layer">
        <g
           aria-label="WORKS"
           style="font-style:normal;font-variant:normal;font-weight:bold;font-stretch:normal;font-size:184.173px;line-height:0;font-family:Giaothong1;-inkscape-font-specification:'Giaothong1 Bold';letter-spacing:0.00529167px;word-spacing:0px;fill:#ffffff;fill-opacity:1;stroke:none;stroke-width:0.898123"
           id="text2903"
           inkscape:groupmode="layer">
          <path
             sodipodi:nodetypes="ccccc"
             d="M 2704.739,-606.31145 H 1098.5453 v 499.99999 H 2704.739 Z"
             style="opacity:1;fill:#0046aa;fill-opacity:1;fill-rule:nonzero;stroke:none;stroke-width:4.58494;stroke-linecap:butt;stroke-linejoin:miter;stroke-miterlimit:10;stroke-dasharray:none;stroke-opacity:1;paint-order:stroke fill markers"
             id="rect7863" />
          <path
             sodipodi:nodetypes="ccccccccccccccc"
             id="path7865"
             style="opacity:1;fill:#ffffff;fill-opacity:1;fill-rule:nonzero;stroke:none;stroke-width:4.54184;stroke-linecap:butt;stroke-linejoin:miter;stroke-miterlimit:10;stroke-dasharray:none;stroke-opacity:1;paint-order:stroke fill markers"
             d="m 1104.6412,-600.22823 v 488.37222 H 2699.424 v -488.37222 z m 9.0559,9.05805 h 35.724 v 470.25672 h -35.724 z m 513.3416,0 h 1063.3288 v 470.25672 l -1063.3288,5.4e-4 z" />
          <path
             id="rect10535"
             style="opacity:1;fill:#0046aa;fill-opacity:1;fill-rule:nonzero;stroke:none;stroke-width:70;stroke-linecap:butt;stroke-linejoin:miter;stroke-miterlimit:4;stroke-dasharray:none;stroke-opacity:1;paint-order:stroke fill markers"
             d="m 1390.0452,-501.19478 c -2.2429,0.018 -4.4374,0.6542 -6.3353,1.8481 -3.9197,2.46744 -6.0746,6.9618 -5.5444,11.56309 l 6.3352,54.95406 c 0.3235,2.86067 2.748,5.0152 5.6272,5.0152 2.8792,0 5.2983,-2.15453 5.629,-5.0152 l 6.3334,-54.95406 c 0.5392,-4.60129 -1.6175,-9.09565 -5.5445,-11.56309 -1.9446,-1.22392 -4.2037,-1.86374 -6.5006,-1.8481 z m 0,81.56275 c -4.6405,0 -8.4039,3.76396 -8.4039,8.40516 1.4198,11.93008 16.54,8.88592 16.8096,0 0,-4.6412 -3.7634,-8.40516 -8.4057,-8.40516 z m -146.5848,44.07859 -22.9022,39.67608 h 69.1273 v -39.67608 z m 60.3784,0 v 39.67608 h 71.4672 v -39.67608 z m -91.5928,54.06245 -32.5535,56.39365 h 53.1445 c 6.9625,-17.75944 24.083,-29.44941 43.1589,-29.46918 19.0903,0.003 36.227,11.69608 43.1949,29.46918 h 56.1152 v -56.39365 z m 301.5932,29.93359 -75.8795,9.98421 -9.9837,12.29655 -52.67,16.70823 v 8.58164 l -14.1532,2.08965 -2.3221,15.5474 h 27.7602 c 1.9662,-11.00271 11.5311,-19.0202 22.7082,-19.03027 8.3104,0.0144 15.9792,4.49562 20.0698,11.73023 l 78.906,-13.65256 c 2.0561,-9.56671 10.5085,-16.40593 20.2945,-16.41114 7.1889,0.005 13.8639,3.73035 17.6453,9.84474 l 0.5751,-0.0899 37.3646,-11.13571 -12.0648,-9.98403 h -40.6141 z m -3.2512,3.25067 14.155,13.22536 -30.8622,5.32181 v -15.90019 z m -234.5921,0.46369 c -20.6341,0 -37.3646,16.73105 -37.3646,37.36356 0,20.63269 16.7305,37.3544 37.3646,37.3544 20.6323,0 37.3539,-16.72171 37.3539,-37.3544 0,-20.63269 -16.7216,-37.36356 -37.3539,-37.36356 z m 212.5435,3.02781 v 15.97442 l -28.5402,4.91311 v -16.36459 z m -32.9416,5.21955 v 16.42948 l -34.5789,5.95336 19.2628,-19.9589 z m -179.6019,14.4978 c 8.0732,0 14.6188,6.54483 14.617,14.6184 0,8.07339 -6.5438,14.6184 -14.617,14.61858 -8.075,1.8e-4 -14.6188,-6.54484 -14.6188,-14.61858 0,-8.07375 6.5438,-14.61876 14.6188,-14.6184 z m 252.108,6.84479 c -7.8809,0 -14.2647,6.38416 -14.2647,14.2656 0,7.88144 6.3838,14.27495 14.2647,14.27495 7.8827,0 14.2755,-6.39351 14.2755,-14.27495 0,-7.88144 -6.3928,-14.2656 -14.2755,-14.2656 z m 0,7.3092 c 3.8461,0 6.9661,3.11175 6.9661,6.9564 0,3.84448 -3.1218,6.96575 -6.9661,6.96557 -3.8443,1.8e-4 -6.9553,-3.12109 -6.9553,-6.96557 0,-3.84465 3.111,-6.9564 6.9553,-6.9564 z m -119.734,9.27826 c -7.8809,3.6e-4 -14.2647,6.38452 -14.2647,14.2656 0,7.88126 6.3838,14.27459 14.2647,14.27495 7.8809,1.8e-4 14.2755,-6.39351 14.2755,-14.27495 0,-7.88144 -6.3946,-14.2656 -14.2755,-14.2656 z m 0,7.3092 c 3.8443,-3.6e-4 6.9661,3.11156 6.9661,6.9564 0,3.84484 -3.1218,6.96611 -6.9661,6.96575 -3.8443,-3.6e-4 -6.9553,-3.12145 -6.9553,-6.96575 0,-3.84448 3.111,-6.95622 6.9553,-6.9564 z" />
          <path
             inkscape:connector-curvature="0"
             id="path15720"
             style="opacity:1;fill:#0046aa;fill-opacity:1;stroke:none;stroke-width:0.946174;stroke-linecap:butt;stroke-linejoin:miter;stroke-miterlimit:10;stroke-dasharray:none;stroke-opacity:1"
             d="m 1368.428,-262.08481 -35.9664,15.7787 v 3.48054 l 38.7503,-10.44179"
             sodipodi:nodetypes="cccc" />
          <g
             transform="matrix(1.1602048,0,0,1.1602039,1004.4943,-404.78985)"
             id="g15726"
             style="opacity:1;stroke-width:0.86191">
            <path
               style="color:#000000;font-style:normal;font-variant:normal;font-weight:normal;font-stretch:normal;font-size:medium;line-height:normal;font-family:sans-serif;font-variant-ligatures:normal;font-variant-position:normal;font-variant-caps:normal;font-variant-numeric:normal;font-variant-alternates:normal;font-variant-east-asian:normal;font-feature-settings:normal;font-variation-settings:normal;text-indent:0;text-align:start;text-decoration:none;text-decoration-line:none;text-decoration-style:solid;text-decoration-color:#000000;letter-spacing:normal;word-spacing:normal;text-transform:none;writing-mode:lr-tb;direction:ltr;text-orientation:mixed;dominant-baseline:auto;baseline-shift:baseline;text-anchor:start;white-space:normal;shape-padding:0;shape-margin:0;inline-size:0;clip-rule:nonzero;display:inline;overflow:visible;visibility:visible;isolation:auto;mix-blend-mode:normal;color-interpolation:sRGB;color-interpolation-filters:linearRGB;solid-color:#000000;solid-opacity:1;vector-effect:none;fill:#ffffff;fill-opacity:1;fill-rule:nonzero;stroke:none;stroke-width:0.86191;stroke-linecap:butt;stroke-linejoin:miter;stroke-miterlimit:10;stroke-dasharray:none;stroke-dashoffset:0;stroke-opacity:1;color-rendering:auto;image-rendering:auto;shape-rendering:auto;text-rendering:auto;enable-background:accumulate;stop-color:#000000;stop-opacity:1"
               d="m 362.28002,113.39994 2.8,-11.6 c 0.5396,-2.638419 -2.8475,-8.085258 -5.6,-9.599998 -3.065,-1.01084 -6.9318,-1.12304 -11.4,-1 l -11.4,-4.8 h -4.8 c -1.1857,1.1991 -2.237,2.7991 -2.8,4.8 -2.0047,8.478399 -6.2441,8.815448 -11.4,9.699998 l -5.6,16.3 c 0.023,5.7304 2.0627,13.41881 5.6,17.4 l 9.6,-2 c 1.9147,2.50923 4.9735,5.81042 8.4,7.8 3.5716,-0.64931 6.0205,-3.98949 8.6,-7.8 0.5088,-0.70538 3.8349,-1.27453 4.8,-0.8 4.0473,2.13342 7.5764,2.42774 11.3,0.8 3.1946,-1.68805 5.7242,-6.42752 5.7,-9.6 0.014,-2.5226 -0.8322,-5.78113 -3.8,-9.6 z"
               id="path15722" />
            <path
               style="color:#000000;font-style:normal;font-variant:normal;font-weight:normal;font-stretch:normal;font-size:medium;line-height:normal;font-family:sans-serif;font-variant-ligatures:normal;font-variant-position:normal;font-variant-caps:normal;font-variant-numeric:normal;font-variant-alternates:normal;font-variant-east-asian:normal;font-feature-settings:normal;font-variation-settings:normal;text-indent:0;text-align:start;text-decoration:none;text-decoration-line:none;text-decoration-style:solid;text-decoration-color:#000000;letter-spacing:normal;word-spacing:normal;text-transform:none;writing-mode:lr-tb;direction:ltr;text-orientation:mixed;dominant-baseline:auto;baseline-shift:baseline;text-anchor:start;white-space:normal;shape-padding:0;shape-margin:0;inline-size:0;clip-rule:nonzero;display:inline;overflow:visible;visibility:visible;isolation:auto;mix-blend-mode:normal;color-interpolation:sRGB;color-interpolation-filters:linearRGB;solid-color:#000000;solid-opacity:1;vector-effect:none;fill:#0046aa;fill-opacity:1;fill-rule:nonzero;stroke:none;stroke-width:0.86191;stroke-linecap:butt;stroke-linejoin:miter;stroke-miterlimit:10;stroke-dasharray:none;stroke-dashoffset:0;stroke-opacity:1;color-rendering:auto;image-rendering:auto;shape-rendering:auto;text-rendering:auto;enable-background:accumulate;stop-color:#000000;stop-opacity:1"
               d="m 331.67188,85.900391 -0.14649,0.148437 c -1.23816,1.252153 -2.33765,2.925401 -2.92578,5.015625 l -0.004,0.0098 -0.002,0.0098 c -0.98453,4.163837 -2.46998,6.216354 -4.30273,7.392578 -1.83276,1.176225 -4.10529,1.485341 -6.69532,1.929689 l -0.29297,0.0508 -5.72265,16.66016 v 0.084 c 0.0235,5.84725 2.04035,13.58169 5.72656,17.73047 l 0.19141,0.2168 9.60351,-2 c 1.94959,2.51363 4.9102,5.69899 8.32813,7.68359 l 0.1582,0.0937 0.18164,-0.0332 c 3.82481,-0.69534 6.33314,-4.18497 8.91602,-8 -0.005,0.007 0.2351,-0.18186 0.59375,-0.3125 0.35864,-0.13064 0.82933,-0.24867 1.3125,-0.33008 0.48316,-0.0814 0.98251,-0.12716 1.40039,-0.125 0.41788,0.002 0.76348,0.072 0.86719,0.12305 4.1317,2.17463 7.87441,2.49192 11.7207,0.81054 l 0.0176,-0.008 0.0156,-0.008 c 1.72,-0.90886 3.19368,-2.58333 4.25781,-4.4375 1.06303,-1.85225 1.72071,-3.88363 1.70899,-5.60352 V 123 c 0.014,-2.58728 -0.87434,-5.8963 -3.76367,-9.69531 l 2.75195,-11.39649 0.002,-0.008 c 0.32449,-1.58659 -0.47038,-3.641712 -1.62695,-5.578124 -1.15657,-1.936412 -2.70052,-3.722894 -4.22266,-4.560547 l -0.041,-0.02148 -0.043,-0.01563 c -3.14372,-1.036801 -7.02109,-1.141543 -11.45313,-1.023437 l -11.40234,-4.800781 z m 0.44921,1 h 4.45703 l 11.40821,4.802734 0.10742,-0.0039 c 4.42698,-0.121905 8.2241,0.0047 11.17383,0.964843 1.2255,0.6871 2.73632,2.358304 3.81836,4.169922 1.0902,1.825298 1.71902,3.81341 1.5039,4.86524 l -2.85156,11.81836 0.14649,0.18945 c 2.91149,3.74642 3.70867,6.88262 3.69531,9.29102 v 0.002 0.004 c 0.0111,1.45146 -0.58291,3.37282 -1.57617,5.10351 -0.99068,1.72618 -2.37541,3.26186 -3.84571,4.04297 -3.58855,1.56168 -6.89579,1.28911 -10.8457,-0.79297 l -0.006,-0.004 -0.006,-0.002 c -0.37884,-0.18627 -0.81159,-0.22401 -1.30469,-0.22656 -0.4931,-0.003 -1.03771,0.0489 -1.57031,0.13867 -0.5326,0.0897 -1.05002,0.21732 -1.48828,0.37695 -0.43826,0.15964 -0.80276,0.30593 -1.0625,0.66602 l -0.004,0.008 -0.006,0.006 c -2.52418,3.7288 -4.8807,6.83271 -8.09765,7.51953 -3.26173,-1.94514 -6.23573,-5.11313 -8.08985,-7.54296 l -0.1914,-0.25 -9.57813,1.99609 c -3.27904,-3.85703 -5.285,-11.26039 -5.32226,-16.77735 l 5.47265,-15.92968 c 2.45297,-0.41391 4.77875,-0.73743 6.77344,-2.017585 2.0771,-1.333037 3.71421,-3.689343 4.73438,-8.003906 l -0.006,0.02148 c 0.51797,-1.840861 1.47894,-3.3048 2.56054,-4.435547 z"
               id="path15724" />
          </g>
          <path
             inkscape:connector-curvature="0"
             id="path15728"
             style="opacity:1;fill:#0046aa;fill-opacity:1;stroke:none;stroke-width:0.946174;stroke-linecap:butt;stroke-linejoin:miter;stroke-miterlimit:10;stroke-dasharray:none;stroke-opacity:1"
             d="m 1400.6813,-336.80186 c 2.4694,2.22588 3.2943,3.38797 3.2494,10.90583 0,2.59216 -2.18,10.6093 -7.658,26.68472 -0.4673,1.18977 -0.8268,1.93095 -1.2581,2.32042 -0.1797,-0.63982 -0.1797,-1.31019 0.1797,-2.32042 3.1542,-16.36891 1.1862,-25.31468 1.1682,-27.72891 0.1977,-3.99599 1.6535,-7.88126 4.4087,-9.86164 z"
             sodipodi:nodetypes="cccccccc" />
          <path
             sodipodi:nodetypes="cccccccc"
             inkscape:connector-curvature="0"
             id="path15730"
             style="opacity:1;fill:#0046aa;fill-opacity:1;stroke:none;stroke-width:0.946174;stroke-linecap:butt;stroke-linejoin:miter;stroke-miterlimit:10;stroke-dasharray:none;stroke-opacity:1"
             d="m 1422.0289,-290.39369 19.3132,-14.4437 c 5.6631,-4.32506 8.7705,-6.71665 8.7633,-8.76048 0,0 -0.2516,-1.15562 -2.2034,-1.15922 -4.1876,0.0128 -18.215,4.70141 -23.0892,9.97775 l -7.6562,9.97774 c -1.7074,2.65183 -2.5647,5.56983 -3.1092,8.58524 2.6599,-1.13046 5.5121,-2.50715 7.9815,-4.17643 z" />
          <path
             id="path15795"
             style="font-style:normal;font-variant:normal;font-weight:normal;font-stretch:normal;font-size:21.4014px;line-height:1.3;font-family:Giaothong2;-inkscape-font-specification:Giaothong2;text-align:start;letter-spacing:-0.6975px;text-anchor:start;opacity:1;stroke-width:0.264586"
             d="m 2198.8738,-512.74852 c -0.3595,0 -0.6111,0.16175 -0.7908,0.46369 -0.1797,0.30912 0,0.59848 0.1977,0.86447 l 18.2869,19.34586 c 0,0.036 0.1797,0.10783 0.2696,0.1959 0.1797,0.0359 0.2336,0.0719 0.3235,0.0719 h 10.1418 c 0.3595,0 0.5751,-0.10784 0.665,-0.33429 0.1797,-0.26599 0.1797,-0.55535 0,-0.86447 l -13.8459,-19.34586 c -0.1798,-0.2642 -0.3954,-0.39899 -0.665,-0.39899 z m 49.4942,17.03335 -6.6876,6.68699 c 1.8548,1.28144 2.8073,3.42339 2.8523,6.42694 -0.1798,3.93128 -2.5036,6.73606 -7.0955,8.4145 -1.5457,-1.45756 -3.2854,-2.89607 -5.23,-4.30943 -5.1671,-3.71022 -11.5527,-5.56317 -19.1514,-5.56317 -7.685,0 -14.1119,1.85295 -19.2808,5.56317 -5.1221,3.6662 -8.8281,7.64996 -11.1249,11.9344 v 0 c -0.8447,1.5025 -1.5457,3.0235 -2.128,4.56949 -0.5751,1.54563 -1.0064,3.16027 -1.312,4.83889 -0.2695,1.67862 -0.4852,4.34896 -0.6649,8.01498 -0.1798,3.66619 -0.1977,8.38646 -0.1977,14.17268 0,5.7864 0,10.53686 0.1977,14.24709 0.1797,3.66619 0.3954,6.33671 0.6649,8.01515 0.3056,1.67863 0.7369,3.29291 1.312,4.83872 0.5752,1.50249 1.294,3.00265 2.128,4.50442 v 0 c 2.2968,4.32866 6.0028,8.30326 11.1249,11.92524 5.212,3.66619 11.6407,5.49811 19.2808,5.49811 7.5538,0 13.9394,-1.83192 19.1514,-5.49811 5.212,-3.71023 8.9898,-7.68483 11.3316,-11.92524 0.7548,-1.41263 1.3839,-2.89338 1.9212,-4.43936 0.5752,-1.54563 1.0065,-3.18112 1.312,-4.90378 0.6111,-3.48952 0.9346,-10.91033 0.9346,-22.26224 0,-5.78622 0,-10.50649 -0.2516,-14.17268 -0.1797,-3.66602 -0.3595,-6.33654 -0.665,-8.01498 -0.5751,-3.26864 -1.6714,-6.40483 -3.3159,-9.40838 -0.1797,-0.22106 -0.2336,-0.42774 -0.3235,-0.60387 0.9346,-0.35406 1.8296,-0.72608 2.712,-1.12327 5.5212,-3.75444 8.2008,-8.60897 8.0247,-14.57203 0,-4.90288 -1.5995,-8.8773 -4.5129,-11.92506 -0.3055,-0.30912 -0.647,-0.62005 -0.9884,-0.92917 z m -77.6624,0.1959 -6.6318,6.62193 c 1.6714,1.28144 2.5485,3.38169 2.5916,6.297 0,3.6218 -2.1477,6.29232 -6.1663,8.01497 v -7.88503 c 0,-0.53019 -0.2516,-0.78899 -0.7908,-0.78899 h -14.3761 c -0.5212,0 -0.7908,0.2606 -0.7908,0.78899 v 61.22319 c 0,6.3164 -1.7973,11.12924 -5.3684,14.44209 -3.5783,3.31267 -7.9761,4.96883 -13.1881,4.96883 -5.3019,0 -9.7321,-1.65526 -13.3104,-4.96883 -3.5334,-3.26864 -5.3019,-8.08165 -5.3019,-14.44209 v -61.22319 c 0,-0.53019 -0.2516,-0.78899 -0.7368,-0.78899 h -14.4409 c -0.5212,0 -0.7908,0.2606 -0.7908,0.78899 v 62.81141 c 0,10.15909 3.3555,18.3351 10.0682,24.51886 6.7145,6.13974 14.8811,9.20403 24.5108,9.20403 9.5846,0 17.719,-3.06429 24.3885,-9.20403 6.7576,-6.18376 10.1329,-14.35977 10.1329,-24.51886 v -46.30753 c 2.694,-0.48525 5.1886,-1.26166 7.4855,-2.32186 5.5211,-3.75443 8.2008,-8.60914 8.0247,-14.57203 0,-4.90287 -1.5996,-8.87747 -4.5147,-11.92523 -0.2696,-0.26599 -0.5212,-0.51401 -0.7908,-0.73327 z m -398.8797,11.46064 c -7.685,0 -14.1029,1.86231 -19.2718,5.57253 -5.1239,3.66619 -8.8388,7.64061 -11.1357,11.92523 v 0 c -0.8447,1.5025 -1.5456,3.0235 -2.1171,4.56949 -0.5752,1.54562 -1.0245,3.16027 -1.33,4.83871 -0.2696,1.67862 -0.4852,4.34896 -0.665,8.01516 -0.1797,3.66601 -0.1977,8.38646 -0.1977,14.17268 0,5.78622 0,10.53668 0.1977,14.24709 0.1798,3.66601 0.3954,6.33653 0.665,8.01497 0.3055,1.67863 0.7548,3.29291 1.33,4.8389 0.5751,1.50249 1.276,3.00265 2.1171,4.50442 v 0 c 2.2969,4.32866 6.0118,8.30325 11.1357,11.92505 5.212,3.6662 11.63,5.4983 19.2718,5.4983 7.5538,0 13.9394,-1.8321 19.1514,-5.4983 5.212,-3.71022 8.9898,-7.68482 11.3298,-11.92505 0.7549,-1.41263 1.4019,-2.89338 1.9231,-4.43954 0.5751,-1.54563 1.0244,-3.18112 1.33,-4.90378 0.611,-3.48934 0.9165,-10.91033 0.9165,-22.26206 0,-5.78622 0,-10.50667 -0.2516,-14.17268 -0.1797,-3.6662 -0.3594,-6.33672 -0.6649,-8.01516 -0.5752,-3.26864 -1.6895,-6.40465 -3.316,-9.4082 -2.2968,-4.1962 -6.0531,-8.17079 -11.2651,-11.92523 -5.1688,-3.71022 -11.5544,-5.57253 -19.1514,-5.57253 z m 607.8305,0 c -7.6868,0 -14.1137,1.85296 -19.2808,5.56336 -5.1239,3.66602 -8.8298,7.64978 -11.1267,11.9344 v 0 c -0.8447,1.5025 -1.5456,3.0235 -2.1261,4.56949 -0.5751,1.54562 -1.0065,3.16027 -1.312,4.83871 -0.2696,1.67862 -0.4853,4.34896 -0.665,8.01516 -0.1797,3.66601 -0.1977,8.38646 -0.1977,14.17268 0,5.78622 0,10.53668 0.1977,14.24709 0.1797,3.66601 0.3954,6.33653 0.665,8.01497 0.3055,1.67863 0.7369,3.29291 1.312,4.8389 0.5751,1.50249 1.294,3.00265 2.1261,4.50442 v 0 c 2.2969,4.32866 6.0028,8.30325 11.1267,11.92505 5.212,3.6662 11.639,5.4983 19.2808,5.4983 9.5847,0 17.7819,-3.33298 24.5827,-10.00272 6.7145,-6.58132 10.0681,-14.74816 10.0681,-24.5097 v -19.34586 c 0,-0.48525 -0.2695,-0.73327 -0.7907,-0.73327 h -33.7235 c -0.5212,0 -0.7908,0.24802 -0.7908,0.73327 v 13.6434 c 0,0.53018 0.2517,0.79797 0.7908,0.79797 h 18.5565 v 4.10508 c 0,5.78622 -1.8116,10.46498 -5.433,14.04274 -3.5783,3.57777 -7.9977,5.36818 -13.2529,5.36818 -3.3141,0 -6.1393,-0.64161 -8.4794,-1.92251 -2.3418,-1.32456 -4.2163,-2.90937 -5.6289,-4.76448 -0.7908,-1.01544 -1.5277,-2.18563 -2.1926,-3.51073 -0.6111,-1.3695 -1.0964,-2.74511 -1.4558,-4.11425 -0.3595,-1.50249 -0.5931,-3.79954 -0.7189,-6.89134 -0.1797,-3.13618 -0.1977,-7.11078 -0.1977,-11.92523 0,-4.7262 0,-8.64976 0.1977,-11.78577 0.1797,-3.13618 0.3774,-5.46397 0.7189,-6.96574 0.3594,-1.41264 0.8447,-2.77998 1.4558,-4.10508 0.611,-1.3695 1.3479,-2.58048 2.1926,-3.64067 1.4198,-1.72176 3.2871,-3.24438 5.6289,-4.56949 2.3401,-1.32457 5.1653,-1.98739 8.4794,-1.98739 4.4608,0 8.1451,1.29402 11.0602,3.90073 1.5457,1.32457 2.8505,2.76344 3.9108,4.30925 1.0604,1.50249 1.8782,3.13708 2.4515,4.90395 0,0.35226 0.3415,0.52839 0.7368,0.52839 h 15.167 c 0.2696,0 0.4852,-0.0899 0.6649,-0.2606 0.1798,-0.17972 0.2157,-0.40438 0.1798,-0.66857 -1.4558,-7.86221 -5.2336,-14.62074 -11.3298,-20.2745 -6.0082,-5.65376 -13.6052,-8.47956 -22.7909,-8.47956 z m -534.9326,0.66858 c -0.3594,0 -0.5751,0.17972 -0.665,0.53018 l -34.7173,95.01115 c 0,0.26599 0,0.50323 0,0.72429 0.1798,0.22106 0.3415,0.33428 0.665,0.33428 h 15.1759 c 0.1798,0 0.2696,-0.0539 0.3954,-0.14377 0.1797,-0.12581 0.2876,-0.25701 0.3415,-0.39001 1.2401,-3.53355 2.4478,-7.00079 3.6394,-10.40189 1.2401,-3.44531 2.4784,-6.96359 3.7149,-10.54136 h 34.9779 l 7.1602,20.94325 c 0,0.35406 0.3055,0.53019 0.665,0.53019 h 15.1759 c 0.2696,0 0.4673,-0.10783 0.5931,-0.33429 0.1797,-0.22106 0.1797,-0.46009 0,-0.72428 l -34.6526,-95.01115 c 0,-0.12581 -0.1797,-0.24622 -0.3415,-0.33429 -0.1797,-0.1258 -0.2696,-0.1959 -0.3954,-0.1959 z m 719.5668,0 c -0.3594,0 -0.5751,0.17972 -0.665,0.53018 l -34.7155,95.0018 c 0,0.266 0,0.51222 0,0.73328 0.1797,0.22106 0.3595,0.33428 0.665,0.33428 h 15.1759 c 0.1797,0 0.2696,-0.0539 0.3954,-0.14377 0.1797,-0.12581 0.2875,-0.25701 0.3235,-0.39001 1.2401,-3.53355 2.4568,-7.00079 3.6502,-10.40189 1.2401,-3.44531 2.4694,-6.96359 3.7059,-10.54135 h 34.9851 l 7.1512,20.94324 c 0.1797,0.35406 0.3235,0.53019 0.665,0.53019 h 15.1651 c 0.2696,0 0.4673,-0.10783 0.6111,-0.33429 0.1797,-0.22106 0.1797,-0.46908 0,-0.73327 l -34.6508,-95.0018 c 0,-0.12581 -0.1798,-0.24622 -0.3415,-0.33429 -0.1797,-0.1258 -0.2696,-0.1959 -0.3954,-0.1959 z m -904.3789,0.1258 c -0.4852,0 -0.7368,0.2606 -0.7368,0.78899 v 38.96113 h -6.9571 c -0.4853,0 -0.7189,0.26779 -0.7189,0.79798 v 13.64339 c 0,0.48526 0.2336,0.73328 0.7189,0.73328 h 6.9571 v 40.80923 c 0,0.53019 0.2516,0.79798 0.7368,0.79798 h 32.3306 c 7.0668,0 13.1828,-1.54204 18.3516,-4.63437 4.991,-3.09197 8.9647,-6.92064 11.9247,-11.47017 v 0.0719 c 1.0963,-1.72356 2.0147,-3.44118 2.7211,-5.16383 0.7548,-1.76669 1.294,-3.57813 1.6534,-5.43324 0.3595,-1.8109 0.629,-4.50227 0.7908,-8.08004 0.1797,-3.62198 0.2516,-8.13395 0.2516,-13.52262 0,-10.02663 -0.2696,-16.806 -0.7908,-20.33974 -0.2156,-1.8109 -0.7009,-3.66385 -1.4557,-5.56318 -0.7549,-1.89932 -1.7254,-3.90738 -2.917,-6.02758 -6.5365,-10.90998 -16.4106,-16.3646 -29.6185,-16.3646 z m 239.6262,0 c -0.5392,0 -0.7908,0.2606 -0.7908,0.78899 v 94.94609 c 0,0.53019 0.2696,0.79797 0.7908,0.79797 h 14.4426 c 0.4853,0 0.7369,-0.26778 0.7369,-0.79797 v -65.32827 l 41.8685,65.72762 c 0.1797,0.26419 0.3954,0.39898 0.665,0.39898 h 13.5871 c 0.5392,-1.8e-4 0.7908,-0.26779 0.7908,-0.79797 v -94.94627 c 0,-0.53018 -0.2516,-0.78899 -0.7908,-0.78899 h -14.4426 c -0.5212,0 -0.7908,0.25881 -0.7908,0.78899 v 65.32828 l -41.7373,-65.71828 c -0.1797,-0.26419 -0.4134,-0.39899 -0.665,-0.39899 z m 116.4468,0 c -0.4852,0 -0.7368,0.2606 -0.7368,0.78899 v 38.96113 h -6.9572 c -0.4852,0 -0.7189,0.26779 -0.7189,0.79798 v 13.64339 c 0,0.48526 0.2337,0.73328 0.7189,0.73328 h 6.9572 v 40.80923 c 0,0.53019 0.2516,0.79798 0.7368,0.79798 h 32.3306 c 7.0667,0 13.1845,-1.55102 18.3516,-4.64372 4.991,-3.09179 8.9665,-6.91129 11.9247,-11.46082 v 0.0719 c 1.1143,-1.72356 2.0147,-3.44118 2.721,-5.16383 0.7549,-1.76669 1.294,-3.57813 1.6535,-5.43324 0.3594,-1.8109 0.6111,-4.50227 0.7908,-8.08004 0.1797,-3.62198 0.2696,-8.13395 0.2696,-13.52262 0,-10.02663 -0.2696,-16.806 -0.7908,-20.33974 -0.2157,-1.8109 -0.7009,-3.66385 -1.4558,-5.56318 -0.7548,-1.89932 -1.7074,-3.90738 -2.9079,-6.02758 -6.5366,-10.90998 -16.4106,-16.3646 -29.6186,-16.3646 z m 244.6602,0 c -0.5212,0 -0.7908,0.2606 -0.7908,0.78899 v 94.94609 c 0,0.53019 0.2696,0.79797 0.7908,0.79797 h 14.4427 c 0.4852,0 0.7368,-0.26778 0.7368,-0.79797 v -65.32827 l 41.8686,65.72762 c 0.1797,0.26419 0.4133,0.39898 0.6649,0.39898 h 13.5782 c 0.5392,0 0.7908,-0.26779 0.7908,-0.79797 v -94.94627 c 0,-0.53018 -0.2696,-0.78899 -0.7908,-0.78899 h -14.4408 c -0.5392,0 -0.7908,0.25881 -0.7908,0.78899 v 65.32828 l -41.7374,-65.71828 c -0.1797,-0.26419 -0.3953,-0.39899 -0.6649,-0.39899 z m 194.7778,0 c -0.5391,0 -0.7908,0.2606 -0.7908,0.78899 v 94.94609 c 0,0.53019 0.2696,0.79797 0.7908,0.79797 h 14.378 c 0.5212,0 0.7907,-0.26778 0.7907,-0.79797 v -40.67929 h 36.1102 v 40.67929 c 0,0.53019 0.2696,0.79797 0.7908,0.79797 h 14.3779 c 0.5212,0 0.7908,-0.26778 0.7908,-0.79797 v -94.94609 c 0,-0.53018 -0.2516,-0.78899 -0.7908,-0.78899 h -14.3779 c -0.5212,0 -0.7908,0.2606 -0.7908,0.78899 v 39.88977 h -36.1102 v -39.88977 c 0,-0.53018 -0.2516,-0.78899 -0.7907,-0.78899 z m 144.1711,0 c -0.3594,0 -0.6111,0.10784 -0.7369,0.32531 -0.1797,0.22106 -0.1797,0.48884 0,0.79797 4.7268,9.31995 9.4571,18.61474 14.1821,27.89048 4.7267,9.27575 9.4768,18.5797 14.2467,27.89966 v 38.82166 c 0,0.53019 0.2336,0.79797 0.7189,0.79797 h 13.6518 c 0.5392,-1.8e-4 0.7908,-0.26778 0.7908,-0.79797 v -38.82166 l 28.4953,-55.79014 c 0.1797,-0.30913 0.1797,-0.57691 0,-0.79797 -0.1797,-0.22107 -0.3774,-0.32531 -0.7369,-0.32531 h -15.1651 c -0.1797,0 -0.2696,0.0539 -0.3954,0.1959 -0.1797,0.0899 -0.2516,0.18153 -0.3415,0.26959 -3.2674,6.84641 -6.5078,13.62578 -9.732,20.33956 -3.1812,6.71395 -6.409,13.49332 -9.6782,20.33973 l -19.4767,-40.67929 c 0,-0.0899 -0.1977,-0.18152 -0.3415,-0.26959 -0.1797,-0.1258 -0.2695,-0.1959 -0.3954,-0.1959 z m -924.4504,15.24079 h 16.4393 c 7.1099,0 12.5448,2.53626 16.2992,7.61581 1.8098,2.47354 2.9493,5.27849 3.4363,8.4145 0.2157,1.67862 0.3774,3.95519 0.4673,6.82628 0.1797,2.87109 0.1977,6.45192 0.1977,10.73636 0,4.41708 0,8.06027 -0.1977,10.93136 0,2.82688 -0.2516,4.93936 -0.4673,6.35271 -0.3055,2.56178 -1.2401,5.01466 -2.7767,7.35574 -3.7113,5.30025 -9.3618,7.9501 -16.9588,7.9501 h -16.4393 v -26.49726 h 17.293 c 0.5392,0 0.7908,-0.24802 0.7908,-0.73328 v -13.64339 c 0,-0.53019 -0.2696,-0.79798 -0.7908,-0.79798 h -17.293 z m 96.6825,0 c 1.5996,0 3.1003,0.19769 4.5147,0.59488 1.4198,0.35406 2.7067,0.83932 3.9,1.45757 1.1862,0.57511 2.2574,1.25807 3.1847,2.05245 0.9705,0.79438 1.7973,1.61212 2.4533,2.45197 0.8447,1.06037 1.5636,2.27136 2.1818,3.64067 0.6111,1.32457 1.0784,2.7009 1.4019,4.11443 0.3594,1.45756 0.629,3.74599 0.7907,6.88199 0.1798,3.09198 0.2517,7.04555 0.2517,11.86018 0,9.71732 -0.3595,15.98951 -1.0604,18.81657 -0.5751,2.8267 -1.7793,5.37231 -3.6394,7.62497 -1.3659,1.85512 -3.2333,3.43938 -5.5733,4.76449 -2.3418,1.28143 -5.1455,1.92251 -8.4146,1.92251 -3.3124,0 -6.1376,-0.64162 -8.4794,-1.92251 -2.3418,-1.32457 -4.2146,-2.90937 -5.629,-4.76449 -0.7908,-1.01544 -1.5276,-2.18562 -2.1908,-3.51073 -0.6111,-1.36949 -1.0963,-2.7451 -1.4558,-4.11424 -0.3594,-1.50249 -0.6111,-3.7902 -0.7369,-6.88218 -0.1797,-3.136 -0.1977,-7.11995 -0.1977,-11.93439 0,-4.72621 0,-8.64977 0.1977,-11.78577 0.1798,-3.13619 0.3775,-5.45463 0.7369,-6.9564 0.3595,-1.41443 0.8267,-2.78932 1.4558,-4.11443 0.611,-1.36949 1.3479,-2.58066 2.1908,-3.64067 1.4198,-1.72175 3.2872,-3.24438 5.629,-4.56948 2.3418,-1.32457 5.167,-1.98757 8.4794,-1.98757 z m 259.3904,0 h 16.4394 c 7.1117,0 12.5358,2.53626 16.2902,7.61581 1.8116,2.47354 2.9601,5.27849 3.4453,8.4145 0.2157,1.67862 0.3774,3.95519 0.4673,6.82628 0.1797,2.87109 0.1977,6.44257 0.1977,10.72701 0,4.41708 0,8.06962 -0.1977,10.94071 0,2.82688 -0.2516,4.93936 -0.4673,6.35271 -0.3055,2.56178 -1.2401,5.01466 -2.7767,7.35574 -3.7095,5.30025 -9.3619,7.9501 -16.9588,7.9501 h -16.4394 v -26.49726 h 17.2931 c 0.5212,0 0.7908,-0.24802 0.7908,-0.73328 v -13.64339 c 0,-0.53019 -0.2696,-0.79798 -0.7908,-0.79798 h -17.2931 z m 181.8395,0 c 1.5816,0 3.0912,0.19769 4.5057,0.59488 1.4198,0.35406 2.7174,0.83932 3.909,1.45757 1.1862,0.57511 2.2501,1.25807 3.1775,2.05245 0.9705,0.79438 1.7972,1.61212 2.4514,2.45197 0.8447,1.06037 1.5816,2.27136 2.1909,3.64067 0.611,1.32457 1.0783,2.69173 1.4018,4.10508 0.3595,1.45756 0.6111,3.75534 0.7908,6.89134 0.1797,3.09198 0.2696,7.04555 0.2696,11.86018 0,9.71732 -0.3595,15.98951 -1.0604,18.81657 -0.5751,2.8267 -1.7972,5.37231 -3.6502,7.62497 -1.3659,1.85512 -3.2224,3.43938 -5.5642,4.76449 -2.34,1.28143 -5.1455,1.92251 -8.4147,1.92251 -3.3123,0 -6.1376,-0.64162 -8.4794,-1.92251 -2.34,-1.32457 -4.2145,-2.90937 -5.6272,-4.76449 -0.7908,-1.01544 -1.5276,-2.18562 -2.1926,-3.51073 -0.6111,-1.36949 -1.1143,-2.7451 -1.4558,-4.11424 -0.3594,-1.50249 -0.5931,-3.79955 -0.7189,-6.89134 -0.1797,-3.13619 -0.1977,-7.11079 -0.1977,-11.92523 0,-4.72621 0,-8.64977 0.1977,-11.78577 0.1798,-3.13619 0.3775,-5.45463 0.7189,-6.9564 0.3595,-1.41443 0.8447,-2.78932 1.4558,-4.11443 0.6111,-1.36949 1.3479,-2.58066 2.1926,-3.64067 1.4199,-1.72175 3.2872,-3.24438 5.6272,-4.56948 2.3418,-1.32457 5.1671,-1.98757 8.4794,-1.98757 z m -362.2303,7.74593 c 0.1797,0.57511 0.3055,1.01903 0.3954,1.32816 0.1797,0.30912 0.2516,0.59848 0.3414,0.86447 0,0.22106 0.1798,0.46009 0.1977,0.72429 0,0.22106 0.1977,0.55175 0.3235,0.99387 0.2696,0.83932 0.5033,1.63549 0.7369,2.38692 0.2696,0.75125 0.5032,1.4342 0.7189,2.05263 0.4493,1.3695 0.8627,2.69406 1.2581,3.97496 0.4313,1.28143 0.8626,2.56412 1.258,3.84501 0.2157,0.61825 0.4493,1.25987 0.665,1.92251 0.2157,0.61825 0.4314,1.28144 0.665,1.98757 0.2696,0.75125 0.5392,1.54743 0.8088,2.38692 0.3055,0.83931 0.611,1.69839 0.9165,2.58191 0.4853,1.3695 1.0424,2.9836 1.6535,4.83872 0.6111,1.81108 1.294,3.79828 2.0543,5.9627 0,0.2642 0.1976,0.57512 0.3414,0.92918 0.1798,0.35405 0.3056,0.68474 0.3954,0.99387 h -25.4381 c 0.9705,-2.78285 1.7613,-5.08044 2.3867,-6.89134 0.6111,-1.85511 1.2042,-3.58298 1.7793,-5.17318 0.5751,-1.59056 1.0783,-3.11192 1.5276,-4.56948 0.4853,-1.45757 0.9526,-2.84504 1.3839,-4.16996 0.2157,-0.61825 0.4493,-1.25987 0.665,-1.92269 0.2157,-0.66318 0.4313,-1.34614 0.665,-2.05245 0.2156,-0.66318 0.4313,-1.32457 0.6649,-1.98757 0.2696,-0.66318 0.5212,-1.37669 0.7369,-2.12686 0,-0.22106 0.1797,-0.43852 0.1977,-0.65958 0,-0.22106 0.1797,-0.46908 0.1977,-0.73328 0.3595,-1.06037 0.7189,-2.20899 1.1143,-3.44567 0.4493,-1.2365 0.9166,-2.58245 1.4018,-4.04002 z m 719.5685,0 c 0.1798,0.57511 0.3056,1.01903 0.3954,1.32816 0.1797,0.30912 0.2516,0.59848 0.3415,0.86447 0.1797,0.22106 0.1797,0.46009 0.1977,0.72429 0,0.22106 0.1977,0.55175 0.3415,0.99387 0.2696,0.83932 0.5032,1.63549 0.7368,2.38692 0.2696,0.75125 0.5033,1.4342 0.7189,2.05263 0.4493,1.3695 0.8627,2.69406 1.2581,3.97496 0.4493,1.28143 0.8627,2.56412 1.2581,3.84501 0.2156,0.61825 0.4313,1.25987 0.665,1.92251 0.2156,0.61825 0.4493,1.28144 0.6649,1.98757 0.2696,0.75125 0.5212,1.54743 0.7908,2.38692 0.3055,0.83931 0.6111,1.69839 0.9346,2.58191 0.4852,1.3695 1.0424,2.9836 1.6534,4.83872 0.6111,1.81108 1.2941,3.79828 2.0525,5.9627 0,0.2642 0.1977,0.57512 0.3235,0.92918 0.1797,0.35405 0.3055,0.68474 0.3954,0.99387 h -25.4382 c 0.9706,-2.78285 1.7613,-5.08044 2.3868,-6.89134 0.611,-1.85511 1.2041,-3.58298 1.7792,-5.17318 0.5752,-1.59056 1.0784,-3.11192 1.5277,-4.56948 0.4853,-1.45757 0.9525,-2.84504 1.4018,-4.16996 0.2157,-0.61825 0.4314,-1.25987 0.665,-1.92269 0.2157,-0.66318 0.4493,-1.35512 0.665,-2.0618 0.2157,-0.66318 0.4313,-1.32456 0.665,-1.98739 0.2696,-0.66318 0.5032,-1.3677 0.7369,-2.11769 0,-0.22106 0.1797,-0.43852 0.1977,-0.65958 0,-0.22106 0.1797,-0.46908 0.1976,-0.73328 0.3595,-1.06037 0.7369,-2.20899 1.1323,-3.44567 0.4493,-1.2365 0.9166,-2.58245 1.4019,-4.04002 z m -726.1357,85.40812 c -0.4852,0 -0.7189,0.23904 -0.7189,0.72429 v 12.78899 c 0,0.48525 0.2337,0.73327 0.7189,0.73327 h 12.8557 c 0.4313,0 0.665,-0.24802 0.665,-0.73327 v -12.78899 c 0,-0.48525 -0.2337,-0.72429 -0.665,-0.72429 z m -41.811,13.08608 c -4.8723,0.0899 -8.8226,1.57977 -11.851,4.47656 -1.5276,1.53664 -2.7659,3.11247 -3.6879,4.73663 -0.8807,1.62471 -1.312,3.67159 -1.312,6.12967 h 9.8183 c 0.2696,-4.43307 2.721,-6.70119 7.3741,-6.78908 3.5118,0.0359 5.5715,1.40904 6.1843,4.08639 0.3954,2.63368 -1.7074,4.91366 -6.3155,6.84497 -2.9403,1.75591 -4.6531,4.0145 -5.1347,6.77991 v 3.02764 h 4.3367 5.1365 l 0.1798,-2.099 0.8626,-1.31918 0.7908,-0.85369 c 1.4019,-0.74585 3.422,-1.7541 6.0549,-3.02763 3.1165,-2.28249 4.8077,-4.94007 5.0719,-7.96878 0,-2.15076 -0.4853,-3.92644 -1.312,-5.33098 -0.8268,-1.40544 -2.0004,-2.8542 -3.4921,-4.34663 -3.2925,-2.80909 -7.5053,-4.25856 -12.64,-4.34645 z m -5.5912,37.66082 c -0.3415,0 -0.5751,0.16175 -0.665,0.5194 l -34.5034,94.41662 c 0,0.2642 0,0.50503 0,0.72429 0.1797,0.21926 0.3594,0.33429 0.665,0.33429 h 15.0734 c 0.1798,0 0.2696,-0.0359 0.3954,-0.12581 0.1798,-0.12581 0.2876,-0.26779 0.3235,-0.39899 1.2222,-3.51145 2.4371,-6.95712 3.6215,-10.33701 1.2221,-3.42374 2.4586,-6.91165 3.6879,-10.46695 h 34.7623 l 7.1134,20.80396 c 0,0.35226 0.3056,0.53019 0.665,0.53019 h 15.0735 c 0.2696,0 0.4673,-0.10784 0.5931,-0.33429 0.1797,-0.21926 0.1797,-0.46189 0,-0.72429 l -34.428,-94.41661 c 0,-0.12581 -0.1797,-0.23724 -0.3415,-0.32531 -0.1797,-0.1258 -0.2516,-0.19589 -0.3954,-0.19589 z m 269.7641,0 c -0.3415,0 -0.5751,0.16175 -0.665,0.5194 l -34.4926,94.41662 c 0,0.2642 0,0.50503 0,0.72429 0.1797,0.21926 0.3594,0.33429 0.6649,0.33429 h 15.0735 c 0.1797,0 0.2696,-0.0359 0.3954,-0.12581 0.1797,-0.12581 0.2876,-0.26779 0.3235,-0.39899 1.2221,-3.51145 2.4371,-6.95712 3.6232,-10.33701 1.2222,-3.42374 2.4569,-6.91165 3.6862,-10.46695 h 34.764 l 7.1135,20.80396 c 0,0.35226 0.3055,0.53019 0.647,0.53019 h 15.0824 c 0.2696,0 0.4673,-0.10784 0.5931,-0.33429 0.1798,-0.21926 0.1798,-0.46189 0,-0.72429 l -34.4387,-94.41661 c 0,-0.12581 -0.1797,-0.23724 -0.3235,-0.32531 -0.1797,-0.1258 -0.2696,-0.19589 -0.3954,-0.19589 z m 183.7625,0 c -0.3415,0 -0.5572,0.16175 -0.647,0.5194 l -34.5017,94.41662 c 0,0.2642 0,0.50503 0,0.72429 0.1798,0.21926 0.3595,0.33429 0.665,0.33429 h 15.0735 c 0.1797,0 0.2696,-0.0359 0.3954,-0.12581 0.1797,-0.12581 0.2875,-0.26779 0.3235,-0.39899 1.2221,-3.51145 2.437,-6.95712 3.6232,-10.33701 1.2221,-3.42374 2.4568,-6.91165 3.6862,-10.46695 h 34.764 l 7.1135,20.80396 c 0,0.35226 0.3055,0.53019 0.665,0.53019 h 15.0734 c 0.2696,0 0.4673,-0.10784 0.5931,-0.33429 0.1797,-0.21926 0.1797,-0.46189 0,-0.72429 l -34.4387,-94.41661 c 0,-0.12581 -0.1798,-0.23724 -0.3235,-0.32531 -0.1798,-0.1258 -0.2696,-0.19589 -0.3954,-0.19589 z m 240.1473,0 c -0.3414,0 -0.5571,0.16175 -0.647,0.5194 l -34.5034,94.41662 c 0,0.2642 0,0.50503 0,0.72429 0.1797,0.21926 0.3415,0.33429 0.665,0.33429 h 15.0734 c 0.1798,0 0.2696,-0.0359 0.3954,-0.12581 0.1797,-0.12581 0.2876,-0.26779 0.3235,-0.39899 1.2222,-3.51145 2.4371,-6.95712 3.6215,-10.33701 1.2221,-3.42374 2.4586,-6.91165 3.6879,-10.46695 h 34.7622 l 7.1153,20.80396 c 0,0.35226 0.3056,0.53019 0.665,0.53019 h 15.0735 c 0.2695,0 0.4672,-0.10784 0.593,-0.33429 0.1798,-0.21926 0.1798,-0.46189 0,-0.72429 l -34.4387,-94.41661 c 0,-0.12581 -0.1797,-0.23724 -0.3235,-0.32531 -0.1797,-0.1258 -0.2696,-0.19589 -0.3954,-0.19589 z m -802.1158,0.12581 c -0.3055,0 -0.5212,0.1258 -0.665,0.39 -0.1797,0.21926 -0.1797,0.49065 0,0.79797 4.4769,7.63756 8.9305,15.22317 13.3643,22.77284 4.4338,7.54968 8.9089,15.14482 13.429,22.78237 l -28.6319,47.99766 c -0.1797,0.30733 -0.2156,0.59129 0,0.85548 0.1798,0.21927 0.3774,0.33429 0.7189,0.33429 h 16.1339 c 0.2695,0 0.4852,-0.14378 0.6649,-0.39899 3.3375,-5.70624 6.6768,-11.36844 10.0125,-16.9868 3.3356,-5.61835 6.6677,-11.28056 10.0034,-16.9868 l 20.0141,33.9736 c 0.1797,0.2642 0.3954,0.39899 0.665,0.39899 h 16.1967 c 0.3594,0 0.5931,-0.10783 0.7189,-0.33429 0.1797,-0.26419 0.1797,-0.54636 0,-0.85548 -4.8274,-8.03259 -9.6081,-16.01683 -14.3492,-23.96172 -4.7411,-7.98855 -9.5307,-16.00353 -14.3581,-24.03594 l 26.795,-45.55521 c 0.1798,-0.30732 0.1977,-0.57871 0,-0.79797 -0.1797,-0.2642 -0.3594,-0.39 -0.6649,-0.39 h -16.1968 c -0.2696,0 -0.4852,0.1258 -0.665,0.39 -3.0283,5.31103 -6.0549,10.60498 -9.0832,15.87233 -3.0284,5.22332 -6.0639,10.4657 -9.0923,15.73287 l -18.1665,-31.6052 c -0.1797,-0.2642 -0.3954,-0.39 -0.665,-0.39 z m 157.8229,0 c -0.3594,0 -0.5931,0.10783 -0.7189,0.3253 -0.1797,0.21926 -0.1797,0.48166 0,0.78899 4.6962,9.26154 9.3924,18.50547 14.0886,27.72334 4.698,9.21751 9.4139,18.46144 14.1551,27.72316 v 38.58029 c 0,0.5266 0.2336,0.78899 0.7188,0.78899 h 13.5602 c 0.5212,0 0.7908,-0.26239 0.7908,-0.78899 v -38.58029 l 28.3173,-55.4465 c 0.1798,-0.30733 0.1798,-0.56973 0,-0.78899 -0.1797,-0.21926 -0.3774,-0.3253 -0.7188,-0.3253 h -15.0825 c -0.1797,0 -0.2516,0.0719 -0.3954,0.1959 -0.1797,0.0899 -0.2516,0.17972 -0.3415,0.2606 -3.2476,6.80345 -6.4736,13.54706 -9.6781,20.21896 -3.1596,6.67172 -6.364,13.40598 -9.6117,20.20961 l -19.3562,-40.42857 c 0,-0.0899 -0.1977,-0.17973 -0.3415,-0.2606 -0.1797,-0.12581 -0.2516,-0.1959 -0.3954,-0.1959 z m 114.0332,0 c -0.5212,0 -0.7908,0.26239 -0.7908,0.78899 v 94.35173 c 0,0.5266 0.2696,0.78899 0.7908,0.78899 h 14.2826 c 0.5212,0 0.7908,-0.26239 0.7908,-0.78899 v -39.5091 h 17.0612 l 19.2898,39.83405 c 0,0.0899 0.1977,0.20308 0.3235,0.33428 0.1797,0.0899 0.2696,0.12581 0.3954,0.12581 h 16.9875 c 0.3056,0 0.5212,-0.10784 0.665,-0.33429 0.1797,-0.26419 0.1797,-0.54636 0,-0.85548 -3.5567,-6.80346 -7.1386,-13.62219 -10.7367,-20.4695 -3.5999,-6.89134 -7.1818,-13.74045 -10.7367,-20.54408 2.721,-1.01005 5.1581,-2.35349 7.3093,-4.02151 2.1513,-1.71097 4.0402,-3.68686 5.665,-5.92532 1.5815,-2.41424 2.809,-4.99903 3.6879,-7.76444 0.8806,-2.80909 1.312,-5.77166 1.312,-8.88808 0,-2.10691 -0.2696,-4.1545 -0.7908,-6.12985 -0.5212,-1.97517 -1.2581,-3.83513 -2.1729,-5.59104 -0.8806,-1.7559 -1.9068,-3.38348 -3.093,-4.87591 -1.1323,-1.53664 -2.349,-2.89194 -3.6215,-4.07722 -2.4586,-2.06288 -5.336,-3.64858 -8.6285,-4.7458 -3.2926,-1.14124 -6.9787,-1.70917 -11.062,-1.70917 z m 188.4982,0 c -0.5212,0 -0.7908,0.26239 -0.7908,0.78899 v 12.70523 c 0,0.52659 0.2696,0.78899 0.7908,0.78899 h 25.0859 v 80.85715 c 0,0.5266 0.2696,0.78899 0.7908,0.78899 h 14.2934 c 0.5212,0 0.7908,-0.26239 0.7908,-0.78899 v -80.85715 h 25.0212 c 0.5212,0 0.7908,-0.2624 0.7908,-0.78899 v -12.70523 c 0,-0.5266 -0.2696,-0.78899 -0.7908,-0.78899 z m 159.9401,0 c -0.5212,0 -0.7908,0.26239 -0.7908,0.78899 v 94.35173 c 0,0.5266 0.2696,0.78899 0.7908,0.78899 h 14.2844 c 0.5212,0 0.7908,-0.26239 0.7908,-0.78899 v -94.35173 c 0,-0.5266 -0.2696,-0.78899 -0.7908,-0.78899 z m 65.4483,0 c -0.5212,0 -0.7908,0.26239 -0.7908,0.78899 v 94.35173 c 0,0.5266 0.2696,0.78899 0.7908,0.78899 h 14.3492 c 0.4852,0 0.7188,-0.26239 0.7188,-0.78899 v -64.91958 l 41.6188,65.30977 c 0.1797,0.26419 0.3954,0.39898 0.6649,0.39898 h 13.4937 c 0.5212,0 0.7908,-0.26239 0.7908,-0.78899 v -94.35173 c 0,-0.5266 -0.2696,-0.78899 -0.7908,-0.78899 h -14.3581 c -0.5212,0 -0.7908,0.26239 -0.7908,0.78899 v 64.91958 l -41.4785,-65.31893 c -0.1798,-0.2642 -0.3954,-0.39 -0.665,-0.39 z m 174.2892,0 c -0.5212,0 -0.7908,0.26239 -0.7908,0.78899 v 94.35173 c 0,0.5266 0.2696,0.78899 0.7908,0.78899 h 14.3492 c 0.4853,0 0.7189,-0.26239 0.7189,-0.78899 v -64.91958 l 41.6187,65.30977 c 0.1797,0.26419 0.3954,0.39898 0.647,0.39898 h 13.5045 c 0.5212,0 0.7908,-0.26239 0.7908,-0.78899 v -94.35173 c 0,-0.5266 -0.2696,-0.78899 -0.7908,-0.78899 h -14.3582 c -0.5212,0 -0.7908,0.26239 -0.7908,0.78899 v 64.91958 l -41.4785,-65.31893 c -0.1797,-0.2642 -0.3954,-0.39 -0.665,-0.39 z m -573.1024,14.28411 h 21.7322 c 1.9752,0 3.7922,0.24263 5.4601,0.72429 1.7073,0.48346 3.2044,1.16461 4.4769,2.04328 1.4558,1.09812 2.5521,2.50464 3.2979,4.21651 0.7908,1.71277 1.1862,3.66583 1.1862,5.86044 0,3.86263 -1.276,7.19346 -3.8173,10.00273 -2.5449,2.80908 -6.3587,4.2165 -11.452,4.2165 h -20.8768 z m -172.4327,8.56313 c 0.1797,0.56973 0.3055,1.01185 0.3954,1.31918 0.1797,0.30733 0.2337,0.59129 0.3235,0.85369 0,0.21926 0.1797,0.46189 0.1977,0.72429 0,0.21926 0.1977,0.54636 0.3415,0.98488 0.2696,0.83392 0.5032,1.62291 0.7189,2.36841 0.2696,0.74585 0.5032,1.42881 0.7189,2.0431 0.4313,1.36051 0.8447,2.6743 1.2401,3.94728 0.4313,1.27245 0.8627,2.55352 1.258,3.82633 0.2157,0.61466 0.4314,1.24549 0.665,1.904 0.2157,0.61465 0.4314,1.27604 0.665,1.97822 0.2696,0.74585 0.5212,1.53484 0.7908,2.3684 0.3055,0.83392 0.611,1.6948 0.9166,2.57257 0.4852,1.36052 1.0244,2.95808 1.6355,4.80169 0.611,1.79958 1.294,3.77457 2.0434,5.92533 0,0.26419 0.1977,0.56793 0.3235,0.92018 0.1798,0.35047 0.3056,0.68655 0.3954,0.99388 h -25.2818 c 0.9706,-2.76542 1.7613,-5.05456 2.3688,-6.85432 0.6111,-1.84343 1.2221,-3.55566 1.7793,-5.13597 0.5751,-1.57978 1.0783,-3.09306 1.5097,-4.54145 0.4852,-1.44858 0.9345,-2.82545 1.3659,-4.14228 0.2156,-0.61466 0.4313,-1.25448 0.6649,-1.91317 0.2157,-0.65779 0.4314,-1.34074 0.665,-2.04328 0.2157,-0.65779 0.4493,-1.31019 0.665,-1.96906 0.2696,-0.65779 0.5032,-1.36231 0.7189,-2.10816 0,-0.21926 0.1797,-0.44033 0.1977,-0.65959 0,-0.21926 0.1797,-0.46189 0.1977,-0.72429 0.3594,-1.05318 0.7189,-2.19802 1.1143,-3.42716 0.4313,-1.22931 0.8986,-2.56358 1.3839,-4.01216 z m 269.7659,0 c 0.1797,0.56973 0.3055,1.01185 0.3954,1.31918 0.1797,0.30733 0.2336,0.59129 0.3235,0.85369 0,0.21926 0.1797,0.46189 0.1977,0.72429 0,0.21926 0.1977,0.54636 0.3235,0.98488 0.2696,0.83392 0.5032,1.62291 0.7189,2.36841 0.2696,0.74585 0.5032,1.42881 0.7189,2.0431 0.4313,1.36051 0.8627,2.6743 1.258,3.94728 0.4314,1.27245 0.8627,2.55352 1.2581,3.82633 0.2157,0.61466 0.4314,1.24549 0.647,1.904 0.2157,0.61465 0.4314,1.27604 0.665,1.97822 0.2696,0.74585 0.5212,1.53484 0.7908,2.3684 0.3055,0.83392 0.629,1.6948 0.9346,2.57257 0.4852,1.36052 1.0244,2.95808 1.6354,4.80169 0.6111,1.79958 1.2941,3.77457 2.0435,5.92533 0,0.26419 0.1977,0.56793 0.3235,0.92018 0.1797,0.35047 0.3055,0.68655 0.3954,0.99388 h -25.289 c 0.9705,-2.76542 1.7613,-5.05456 2.3778,-6.85432 0.611,-1.84343 1.2041,-3.55566 1.7792,-5.13597 0.5752,-1.57978 1.0784,-3.09306 1.5097,-4.54145 0.4853,-1.44858 0.9526,-2.82545 1.3839,-4.14228 0.2157,-0.61466 0.4313,-1.25448 0.665,-1.91317 0.2157,-0.65779 0.4313,-1.34074 0.665,-2.04328 0.2156,-0.65779 0.4313,-1.31019 0.6649,-1.96906 0.2696,-0.65779 0.5033,-1.36231 0.7189,-2.10816 0,-0.21926 0.1798,-0.44033 0.1977,-0.65959 0,-0.21926 0.1798,-0.46189 0.1977,-0.72429 0.3595,-1.05318 0.7369,-2.19802 1.1143,-3.42716 0.4314,-1.22931 0.8986,-2.56358 1.3659,-4.01216 z m 183.7715,0 c 0.1797,0.56973 0.3055,1.01185 0.3954,1.31918 0.1797,0.30733 0.2516,0.59129 0.3414,0.85369 0,0.21926 0.1798,0.46189 0.1977,0.72429 0,0.21926 0.1977,0.54636 0.3235,0.98488 0.2696,0.83392 0.5033,1.62291 0.7189,2.36841 0.2696,0.74585 0.5033,1.42881 0.7189,2.0431 0.4314,1.36051 0.8627,2.6743 1.2581,3.94728 0.4313,1.27245 0.8627,2.55352 1.2581,3.82633 0.2156,0.61466 0.4493,1.24549 0.665,1.904 0.2156,0.61465 0.4313,1.27604 0.6649,1.97822 0.2696,0.74585 0.5212,1.53484 0.7908,2.3684 0.3056,0.83392 0.6111,1.6948 0.9166,2.57257 0.4853,1.36052 1.0244,2.95808 1.6535,4.80169 0.611,1.79958 1.294,3.77457 2.0434,5.92533 0,0.26419 0.1977,0.56793 0.3235,0.92018 0.1798,0.35047 0.3056,0.68655 0.3954,0.99388 h -25.28 c 0.9706,-2.76542 1.7434,-5.05456 2.367,-6.85432 0.6111,-1.84343 1.2042,-3.55566 1.7793,-5.13597 0.5751,-1.57978 1.0783,-3.09306 1.5097,-4.54145 0.4852,-1.44858 0.9525,-2.82545 1.3838,-4.14228 0.2157,-0.61466 0.4314,-1.25448 0.665,-1.91317 0.2157,-0.65779 0.4314,-1.34074 0.665,-2.04328 0.2157,-0.65779 0.4313,-1.31019 0.665,-1.96906 0.2696,-0.65779 0.5032,-1.36231 0.7189,-2.10816 0,-0.21926 0.1797,-0.44033 0.1977,-0.65959 0,-0.21926 0.1797,-0.46189 0.1977,-0.72429 0.3594,-1.05318 0.7368,-2.19802 1.1322,-3.42716 0.4314,-1.22931 0.8986,-2.56358 1.3839,-4.01216 z m 240.1455,0 c 0.1797,0.56973 0.3056,1.01185 0.3954,1.31918 0.1797,0.30733 0.2516,0.59129 0.3415,0.85369 0,0.21926 0.1797,0.46189 0.1977,0.72429 0,0.21926 0.1977,0.54636 0.3235,0.98488 0.2696,0.83392 0.5032,1.62291 0.7189,2.36841 0.2696,0.74585 0.5032,1.42881 0.7189,2.0431 0.4313,1.36051 0.8627,2.6743 1.2581,3.94728 0.4313,1.27245 0.8626,2.55352 1.258,3.82633 0.2157,0.61466 0.4314,1.24549 0.665,1.904 0.2157,0.61465 0.4313,1.27604 0.665,1.97822 0.2696,0.74585 0.5212,1.53484 0.7908,2.3684 0.3055,0.83392 0.611,1.6948 0.9166,2.57257 0.4852,1.36052 1.0244,2.95808 1.6354,4.80169 0.6111,1.79958 1.2941,3.77457 2.0417,5.92533 0,0.26419 0.1977,0.56793 0.3235,0.92018 0.1797,0.35047 0.3055,0.68655 0.3954,0.99388 h -25.2818 c 0.9705,-2.76542 1.7613,-5.05456 2.3688,-6.85432 0.611,-1.84343 1.2041,-3.55566 1.7793,-5.13597 0.5751,-1.57978 1.0783,-3.09306 1.5096,-4.54145 0.4853,-1.44858 0.9526,-2.82545 1.3839,-4.14228 0.2157,-0.61466 0.4313,-1.25448 0.665,-1.91317 0.2157,-0.65779 0.4313,-1.34074 0.665,-2.04328 0.2156,-0.65779 0.4313,-1.31019 0.6649,-1.96906 0.2696,-0.65779 0.5033,-1.36231 0.7189,-2.10816 0,-0.21926 0.1798,-0.44033 0.1977,-0.65959 0,-0.21926 0.1798,-0.46189 0.1977,-0.72429 0.3415,-1.05318 0.7369,-2.19802 1.1143,-3.42716 0.4314,-1.22931 0.8986,-2.56358 1.3839,-4.01216 z m -6.5186,84.86914 c -0.4852,0 -0.7189,0.24083 -0.7189,0.72429 v 12.70541 c 0,0.48346 0.2337,0.72429 0.7189,0.72429 h 12.7694 c 0.4314,0 0.665,-0.24083 0.665,-0.72429 v -12.70541 c 0,-0.48346 -0.2157,-0.72429 -0.665,-0.72429 z" />
        </g>
      </g>
    </g>
  </g>
</svg>
