<?xml version="1.0" encoding="utf-8"?>
<svg viewBox="0 0 323.14914 200" xmlns="http://www.w3.org/2000/svg">
  <g id="layer1" transform="matrix(0.9999999999999999, 0, 0, 0.9999999999999999, -303.4596862792969, -22.960700988769517)">
    <path id="rect15575" style="opacity:1;fill:#0a9646;fill-opacity:1;fill-rule:evenodd;stroke-width:0.0420687;stroke-linecap:square;stroke-miterlimit:10;paint-order:stroke fill markers" d="M 303.45966,22.960701 H 626.6088 V 222.9607 H 303.45966 Z"/>
    <path transform="matrix(0.26458333,0,0,0.26458333,303.45966,22.960701)" d="m 30.353516,5.0117188 c -13.808655,0 -25.0781254,11.2674112 -25.0781254,25.0761722 v 332.957029 47.1211 49.04296 13.88672 252.45508 c 0,13.80862 11.2694704,25.06641 25.0781254,25.06641 H 1190.9805 c 13.8086,0 25.0781,-11.25779 25.0781,-25.06641 V 473.0957 459.57031 401.94727 363.04492 30.087891 c 0,-13.808761 -11.2695,-25.0761722 -25.0781,-25.0761722 z m 0,9.4511722 H 1190.9805 c 8.7398,0 15.6425,6.885058 15.6425,15.625 v 332.957029 38.90235 c 0,0.29959 -0.013,0.61475 -0.037,0.9375 v 7.20703 c 0,8.68754 -6.9941,15.68164 -15.6816,15.68164 h -8.0762 c -0.1869,0.007 -0.3766,0.0176 -0.5586,0.0176 H 38.023438 c -0.18105,0 -0.371847,-0.0102 -0.560547,-0.0176 h -7.097657 c -8.687546,0 -15.68164,-6.9941 -15.68164,-15.68164 V 30.152344 c 0,-1.658433 0.257595,-3.253829 0.730468,-4.751953 0.01365,-0.04461 0.03284,-0.08643 0.04688,-0.13086 1.99686,-6.321925 7.84094,-10.80664 14.892578,-10.80664 z M 30.28125,435.30469 h 6.958984 1145.628866 8.1172 c 8.6414,0 15.5996,6.95633 15.5996,15.59765 v 7.5918 c 0.024,0.37296 0.037,0.7339 0.037,1.07617 v 13.52539 252.45508 c 0,5.47634 -2.7106,10.22208 -6.8847,13.00391 -2.4923,1.6862 -5.5034,2.66992 -8.752,2.66992 H 30.28125 c -8.641361,0 -15.597656,-6.9563 -15.597656,-15.59766 V 450.90234 c 0,-8.64132 6.956295,-15.59765 15.597656,-15.59765 z" style="color:#000000;font-style:normal;font-variant:normal;font-weight:normal;font-stretch:normal;font-size:medium;line-height:normal;font-family:sans-serif;font-variant-ligatures:normal;font-variant-position:normal;font-variant-caps:normal;font-variant-numeric:normal;font-variant-alternates:normal;font-variant-east-asian:normal;font-feature-settings:normal;font-variation-settings:normal;text-indent:0;text-align:start;text-decoration:none;text-decoration-line:none;text-decoration-style:solid;text-decoration-color:#000000;letter-spacing:normal;word-spacing:normal;text-transform:none;writing-mode:lr-tb;direction:ltr;text-orientation:mixed;dominant-baseline:auto;baseline-shift:baseline;text-anchor:start;white-space:normal;shape-padding:0;shape-margin:0;inline-size:0;clip-rule:nonzero;display:inline;overflow:visible;visibility:visible;opacity:1;isolation:auto;mix-blend-mode:normal;color-interpolation:sRGB;color-interpolation-filters:linearRGB;solid-color:#000000;solid-opacity:1;vector-effect:none;fill:#ffffff;fill-opacity:1;fill-rule:evenodd;stroke:none;stroke-width:2.09199;stroke-linecap:square;stroke-linejoin:miter;stroke-miterlimit:10;stroke-dasharray:none;stroke-dashoffset:0;stroke-opacity:1;paint-order:stroke fill markers;color-rendering:auto;image-rendering:auto;shape-rendering:auto;text-rendering:auto;enable-background:accumulate;stop-color:#000000;stop-opacity:1" id="path15582"/>
    <path d="m 324.12038,67.193614 h 60.89334 v 27.821331 h -60.89334 z" style="opacity:1;fill:#ffd70f;fill-opacity:1;fill-rule:evenodd;stroke:none;stroke-width:0.553508;stroke-linecap:square;stroke-miterlimit:10;stroke-dasharray:none;stroke-opacity:1;paint-order:stroke fill markers" id="rect15605"/>
    <path id="path15631" d="m 326.18273,67.759747 c -0.81115,0 -1.47443,0.660164 -1.47443,1.471307 v 23.746432 c 0,0.811142 0.66328,1.471323 1.47443,1.471323 h 56.7905 c 0.81117,0 1.4744,-0.660181 1.4744,-1.471323 V 69.231054 c 0,-0.811143 -0.66328,-1.471307 -1.4744,-1.471307 z m 0,0.535017 h 56.7905 c 0.52266,0 0.93627,0.413622 0.93627,0.93629 v 23.746432 c 0,0.522654 -0.41353,0.933189 -0.93627,0.933189 h -56.7905 c -0.52266,0 -0.93628,-0.410555 -0.93628,-0.933189 V 69.231054 c 0,-0.522672 0.41354,-0.93629 0.93628,-0.93629 z" style="color:#000000;font-style:normal;font-variant:normal;font-weight:normal;font-stretch:normal;font-size:medium;line-height:normal;font-family:sans-serif;font-variant-ligatures:normal;font-variant-position:normal;font-variant-caps:normal;font-variant-numeric:normal;font-variant-alternates:normal;font-variant-east-asian:normal;font-feature-settings:normal;font-variation-settings:normal;text-indent:0;text-align:start;text-decoration:none;text-decoration-line:none;text-decoration-style:solid;text-decoration-color:#000000;letter-spacing:normal;word-spacing:normal;text-transform:none;writing-mode:lr-tb;direction:ltr;text-orientation:mixed;dominant-baseline:auto;baseline-shift:baseline;text-anchor:start;white-space:normal;shape-padding:0;shape-margin:0;inline-size:0;clip-rule:nonzero;display:inline;overflow:visible;visibility:visible;opacity:1;isolation:auto;mix-blend-mode:normal;color-interpolation:sRGB;color-interpolation-filters:linearRGB;solid-color:#000000;solid-opacity:1;vector-effect:none;fill:#000000;fill-opacity:1;fill-rule:evenodd;stroke:none;stroke-width:0.119062;stroke-linecap:square;stroke-linejoin:miter;stroke-miterlimit:10;stroke-dasharray:none;stroke-dashoffset:0;stroke-opacity:1;paint-order:stroke fill markers;color-rendering:auto;image-rendering:auto;shape-rendering:auto;text-rendering:auto;enable-background:accumulate;stop-color:#000000;stop-opacity:1"/>
    <path id="path17496" style="font-size:15.1831px;line-height:1.46;font-family:'Singapore Road Signs';-inkscape-font-specification:'Singapore Road Signs';text-align:center;text-anchor:middle;opacity:1;fill:#ffffff;fill-opacity:1;stroke-width:0.0756548" d="m 570.47468,59.120043 v 50.614317 h 35.43541 V 59.120043 Z m 1.38203,1.660034 h 32.65274 v 47.566083 h -32.65274 z m 13.66823,3.646909 -2.23483,8.869719 h 3.92184 l 0.28216,-8.869719 z m 3.35329,0 0.28216,8.869719 h 3.92385 l -2.23686,-8.869719 z m -15.90932,9.992316 v 1.942234 l 3.06692,1.10806 v 0.584703 h 1.411 v -0.584703 c 0,0 2.08662,-0.313671 4.52568,-0.535349 1.95306,-0.177516 4.1317,-0.271988 5.64407,-0.278037 1.79866,-0.0063 4.45804,0.09363 6.73975,0.288436 2.51319,0.214479 4.5713,0.524984 4.5713,0.524984 v 0.5847 h 1.38199 v -0.5847 l 3.06685,-1.108064 v -1.942233 z m 9.21108,3.620663 -6.70448,26.681115 h 10.04943 l 1.39442,-26.681115 z m 7.25642,0 1.39441,26.681115 h 10.0494 l -6.70443,-26.681115 z"/>
    <g style="font-size:14.7905px;line-height:0;font-family:'Singapore Road Signs';-inkscape-font-specification:'Singapore Road Signs';text-align:center;text-anchor:middle;opacity:1;fill:#860000;fill-opacity:1;stroke-width:6.45213" id="layer1-8" transform="matrix(0.08718024,0,0,0.08718024,-145.22047,195.49013)">
      <circle style="opacity:1;fill:#f00a0a;fill-opacity:1;fill-rule:nonzero;stroke:none;stroke-width:3622.55;stroke-linecap:round;stroke-linejoin:round;stroke-miterlimit:4;stroke-dasharray:none;stroke-opacity:1;paint-order:stroke fill markers" id="path815" cx="6380.9966" cy="-193.29752" r="350"/>
      <circle cy="-193.29752" cx="6380.9966" id="circle817" style="opacity:1;fill:#ffffff;fill-opacity:1;fill-rule:nonzero;stroke:none;stroke-width:2587.55;stroke-linecap:round;stroke-linejoin:round;stroke-miterlimit:4;stroke-dasharray:none;stroke-opacity:1;paint-order:stroke fill markers" r="263.821"/>
      <g aria-label="20 " style="font-style:normal;font-variant:normal;font-weight:bold;font-stretch:normal;font-size:414.864px;line-height:0;font-family:Giaothong1;-inkscape-font-specification:'Giaothong1 Bold';letter-spacing:0px;word-spacing:0px;fill:#000000;fill-opacity:1;stroke:none;stroke-width:24.7849" id="text874" transform="matrix(-1,0,0,1,1299.029,-383.45)">
        <g aria-label="90" transform="translate(2310.2259,387.54849)" style="font-style:normal;font-variant:normal;font-weight:bold;font-stretch:normal;font-size:414.864px;line-height:0;font-family:Giaothong1;-inkscape-font-specification:'Giaothong1 Bold';letter-spacing:0px;word-spacing:0px;fill:#000000;fill-opacity:1;stroke:none;stroke-width:53.5539" id="text844"/>
      </g>
    </g>
    <g style="font-size:14.7905px;line-height:0;font-family:'Singapore Road Signs';-inkscape-font-specification:'Singapore Road Signs';text-align:center;text-anchor:middle;opacity:1;fill:#fff000;fill-opacity:1;stroke-width:6.45221" id="layer1-7" transform="matrix(0.08717968,0,0,0.08717968,488.77841,183.34565)">
      <circle cy="-54" cx="351" id="circle817-6" style="opacity:1;fill:#0046aa;fill-opacity:1;fill-rule:nonzero;stroke:none;stroke-width:3622.58;stroke-linecap:round;stroke-linejoin:round;stroke-miterlimit:4;stroke-dasharray:none;stroke-opacity:1;paint-order:stroke fill markers" r="350"/>
      <path id="rect984" style="font-style: normal; font-variant: normal; font-weight: bold; font-stretch: normal; font-size: 414.864px; line-height: 0; font-family: Giaothong1; letter-spacing: 0px; word-spacing: 0px; opacity: 1; fill: rgb(255, 255, 255); fill-opacity: 1; fill-rule: nonzero; stroke: none; stroke-width: 0.344279; stroke-linecap: round; stroke-linejoin: miter; stroke-miterlimit: 10; stroke-dasharray: none; stroke-opacity: 1; paint-order: stroke; visibility: hidden;" d="m 851.18164,518.03906 c -16.32678,0 -29.4707,13.14393 -29.4707,29.47071 v 80.94921 c 0,16.32678 13.14392,29.47071 29.4707,29.47071 16.32678,0 29.4707,-13.14393 29.4707,-29.47071 v -80.94921 c 0,-16.32678 -13.14392,-29.47071 -29.4707,-29.47071 z m -69.94336,1.23828 -26.10937,69.75391 c -2.72781,7.40406 -3.70118,11.30112 -3.70118,28.44727 0,18.12042 0.7789,22.01697 4.67579,28.25195 5.26075,8.37828 14.22308,13.44336 24.93945,13.44336 10.91123,0 20.0688,-4.87023 25.13476,-13.44336 3.70197,-6.23498 4.48047,-10.13153 4.48047,-28.25195 0,-22.01726 -0.77798,-26.88814 -4.28515,-32.34375 -3.31232,-5.06591 -9.74347,-8.96289 -16.75782,-8.96289 -4.28653,0 -7.01308,0.77773 -8.37695,1.75195 l -0.39062,-0.38867 22.60156,-58.25782 z m 69.94336,18.74024 c 5.25853,0 9.49219,4.23365 9.49219,9.49219 v 80.94921 c 0,5.25853 -4.23366,9.49219 -9.49219,9.49219 -5.25853,0 -9.49219,-4.23366 -9.49219,-9.49219 v -80.94921 c 0,-5.25854 4.23366,-9.49219 9.49219,-9.49219 z m -70.13867,55.68945 c 5.0659,0 9.74219,3.89738 9.74219,9.9375 v 25.71875 c 0,6.04012 -4.67629,9.9375 -9.74219,9.9375 -5.0659,0 -9.74219,-3.89738 -9.74219,-9.9375 v -25.71875 c 0,-6.04012 4.67629,-9.9375 9.74219,-9.9375 z" transform="matrix(3.0349198,0,0,3.0349198,-2125.7104,-1839.7056)"/>
    </g>
    <g aria-label="6" id="text19759" style="font-size:31.1478px;line-height:1.3;font-family:'Singapore Road Signs';-inkscape-font-specification:'Singapore Road Signs';text-align:center;text-anchor:middle;stroke-width:0.159861" transform="matrix(1.6550836,0,0,1.6550836,-321.31659,-238.56049)"/>
    <path d="M 369.485 46.797 Q 369.406 46.797 369.388 46.726 L 365.231 34.132 Q 365.213 34.079 365.24 34.035 Q 365.266 33.991 365.328 33.991 L 367.34 33.991 Q 367.419 33.991 367.437 34.07 L 370.223 43.395 Q 370.926 41.058 371.625 38.733 Q 372.324 36.408 373.018 34.07 Q 373.036 33.991 373.115 33.991 L 375.127 33.991 Q 375.189 33.991 375.215 34.035 Q 375.242 34.079 375.224 34.132 L 371.067 46.726 Q 371.049 46.797 370.97 46.797 Z M 375.389 46.788 Q 375.327 46.788 375.301 46.744 Q 375.274 46.7 375.292 46.647 L 379.897 34.044 Q 379.915 33.974 379.985 33.974 L 381.559 33.974 Q 381.585 33.974 381.616 33.996 Q 381.646 34.017 381.655 34.044 L 386.252 46.647 Q 386.269 46.7 386.243 46.744 Q 386.217 46.788 386.164 46.788 L 384.151 46.788 Q 384.081 46.788 384.063 46.718 L 383.114 43.94 L 378.474 43.94 Q 378.227 44.652 377.986 45.333 Q 377.744 46.015 377.498 46.718 Q 377.489 46.744 377.458 46.766 Q 377.428 46.788 377.401 46.788 Z M 382.481 42.051 Q 382.464 41.989 382.433 41.919 Q 382.402 41.849 382.385 41.796 Q 382.235 41.365 382.112 41 Q 381.989 40.636 381.892 40.363 Q 381.831 40.187 381.774 40.02 Q 381.717 39.853 381.664 39.704 Q 381.62 39.563 381.576 39.436 Q 381.532 39.309 381.488 39.185 Q 381.409 38.931 381.326 38.676 Q 381.242 38.421 381.154 38.148 Q 381.11 38.025 381.062 37.876 Q 381.014 37.726 380.961 37.559 Q 380.934 37.472 380.921 37.423 Q 380.908 37.375 380.891 37.327 Q 380.873 37.278 380.851 37.217 Q 380.829 37.155 380.794 37.041 Q 380.697 37.331 380.614 37.577 Q 380.53 37.823 380.46 38.034 Q 380.442 38.087 380.434 38.131 Q 380.425 38.175 380.407 38.219 Q 380.363 38.368 380.315 38.5 Q 380.267 38.632 380.223 38.764 Q 380.179 38.904 380.135 39.036 Q 380.091 39.168 380.047 39.291 Q 379.959 39.555 379.867 39.845 Q 379.774 40.135 379.66 40.451 Q 379.546 40.767 379.423 41.132 Q 379.3 41.497 379.106 42.051 Z M 381.321 32.857 Q 381.304 32.857 381.277 32.844 Q 381.251 32.831 381.242 32.822 L 378.816 30.256 Q 378.764 30.203 378.794 30.142 Q 378.825 30.08 378.895 30.08 L 380.829 30.08 Q 380.882 30.08 380.917 30.133 L 382.754 32.699 Q 382.78 32.761 382.758 32.809 Q 382.736 32.857 382.666 32.857 Z M 387.842 46.797 Q 387.737 46.797 387.737 46.691 L 387.737 34.097 Q 387.737 33.991 387.842 33.991 L 389.653 33.991 Q 389.706 33.991 389.741 34.044 L 395.278 42.763 L 395.278 34.097 Q 395.278 33.991 395.383 33.991 L 397.299 33.991 Q 397.405 33.991 397.405 34.097 L 397.405 46.691 Q 397.405 46.797 397.299 46.797 L 395.498 46.797 Q 395.445 46.797 395.41 46.744 L 389.855 38.025 L 389.855 46.691 Q 389.855 46.797 389.758 46.797 Z M 407.055 46.797 Q 406.949 46.797 406.949 46.691 L 406.949 41.295 L 402.159 41.295 L 402.159 46.691 Q 402.159 46.797 402.054 46.797 L 400.146 46.797 Q 400.041 46.797 400.041 46.691 L 400.041 34.097 Q 400.041 33.991 400.146 33.991 L 402.054 33.991 Q 402.159 33.991 402.159 34.097 L 402.159 39.388 L 406.949 39.388 L 406.949 34.097 Q 406.949 33.991 407.055 33.991 L 408.962 33.991 Q 409.067 33.991 409.067 34.097 L 409.067 46.691 Q 409.067 46.797 408.962 46.797 Z M 416.117 46.797 Q 416.02 46.797 416.02 46.691 L 416.02 41.277 L 415.097 41.277 Q 415 41.277 415 41.181 L 415 39.37 Q 415 39.265 415.097 39.265 L 416.02 39.265 L 416.02 34.097 Q 416.02 33.991 416.117 33.991 L 420.529 33.991 Q 423.157 33.991 424.458 36.162 Q 424.695 36.584 424.844 36.962 Q 424.994 37.34 425.038 37.7 Q 425.143 38.403 425.143 40.398 Q 425.143 41.471 425.108 42.187 Q 425.073 42.903 425.002 43.264 Q 424.932 43.633 424.787 43.98 Q 424.642 44.327 424.422 44.67 L 424.422 44.661 Q 423.833 45.566 422.84 46.182 Q 421.812 46.797 420.406 46.797 Z M 418.138 36.013 L 418.138 39.265 L 420.432 39.265 Q 420.538 39.265 420.538 39.37 L 420.538 41.181 Q 420.538 41.277 420.432 41.277 L 418.138 41.277 L 418.138 44.793 L 420.318 44.793 Q 421.83 44.793 422.568 43.738 Q 422.875 43.272 422.937 42.763 Q 422.981 42.481 423.003 41.914 Q 423.025 41.348 423.025 40.469 Q 423.025 39.616 423.003 39.045 Q 422.981 38.474 422.937 38.14 Q 422.84 37.516 422.48 37.023 Q 421.733 36.013 420.318 36.013 Z M 426.223 46.788 Q 426.162 46.788 426.135 46.744 Q 426.109 46.7 426.127 46.647 L 430.732 34.044 Q 430.75 33.974 430.82 33.974 L 432.393 33.974 Q 432.42 33.974 432.45 33.996 Q 432.481 34.017 432.49 34.044 L 437.087 46.647 Q 437.104 46.7 437.078 46.744 Q 437.051 46.788 436.999 46.788 L 434.986 46.788 Q 434.916 46.788 434.898 46.718 L 433.949 43.94 L 429.308 43.94 Q 429.062 44.652 428.82 45.333 Q 428.579 46.015 428.333 46.718 Q 428.324 46.744 428.293 46.766 Q 428.262 46.788 428.236 46.788 Z M 433.316 42.051 Q 433.298 41.989 433.268 41.919 Q 433.237 41.849 433.219 41.796 Q 433.07 41.365 432.947 41 Q 432.824 40.636 432.727 40.363 Q 432.666 40.187 432.609 40.02 Q 432.551 39.853 432.499 39.704 Q 432.455 39.563 432.411 39.436 Q 432.367 39.309 432.323 39.185 Q 432.244 38.931 432.16 38.676 Q 432.077 38.421 431.989 38.148 Q 431.945 38.025 431.897 37.876 Q 431.848 37.726 431.796 37.559 Q 431.769 37.472 431.756 37.423 Q 431.743 37.375 431.725 37.327 Q 431.708 37.278 431.686 37.217 Q 431.664 37.155 431.629 37.041 Q 431.532 37.331 431.448 37.577 Q 431.365 37.823 431.295 38.034 Q 431.277 38.087 431.268 38.131 Q 431.259 38.175 431.242 38.219 Q 431.198 38.368 431.15 38.5 Q 431.101 38.632 431.057 38.764 Q 431.013 38.904 430.969 39.036 Q 430.925 39.168 430.882 39.291 Q 430.794 39.555 430.701 39.845 Q 430.609 40.135 430.495 40.451 Q 430.381 40.767 430.257 41.132 Q 430.134 41.497 429.941 42.051 Z M 438.651 46.797 Q 438.545 46.797 438.545 46.691 L 438.545 34.097 Q 438.545 33.991 438.651 33.991 L 440.558 33.991 Q 440.663 33.991 440.663 34.097 L 440.663 46.691 Q 440.663 46.797 440.558 46.797 Z M 449.4 41.137 Q 449.295 41.137 449.295 41.031 L 449.295 39.458 Q 449.295 39.352 449.4 39.352 L 450.015 39.352 Q 450.868 39.352 451.36 38.878 Q 451.844 38.421 451.844 37.674 Q 451.844 36.971 451.343 36.47 Q 450.842 35.969 450.121 35.969 Q 449.594 35.969 449.11 36.329 Q 448.627 36.681 448.495 37.392 Q 448.486 37.428 448.455 37.454 Q 448.425 37.48 448.398 37.48 L 446.596 37.48 Q 446.552 37.48 446.522 37.445 Q 446.491 37.41 446.5 37.366 Q 446.588 36.021 447.642 34.984 Q 448.679 33.965 450.051 33.965 Q 450.903 33.965 451.593 34.255 Q 452.283 34.545 452.81 35.107 Q 453.311 35.661 453.579 36.307 Q 453.847 36.953 453.847 37.639 Q 453.847 38.386 453.557 39.098 Q 453.417 39.414 453.171 39.695 Q 452.925 39.976 452.591 40.223 Q 453.294 40.724 453.636 41.427 Q 453.988 42.183 453.988 42.965 Q 453.988 44.749 452.854 45.839 Q 451.738 46.902 450.086 46.902 Q 449.427 46.902 448.842 46.691 Q 448.258 46.48 447.721 46.059 Q 447.194 45.628 446.873 45.021 Q 446.552 44.415 446.429 43.598 Q 446.412 43.483 446.535 43.483 L 448.328 43.483 Q 448.389 43.483 448.425 43.554 Q 448.539 43.861 448.693 44.107 Q 448.846 44.353 449.057 44.534 Q 449.268 44.714 449.545 44.81 Q 449.822 44.907 450.191 44.907 Q 450.885 44.907 451.439 44.406 Q 451.984 43.923 451.984 43.026 Q 451.984 42.13 451.439 41.646 Q 450.885 41.137 450.156 41.137 Z" transform="matrix(1.310387, 0, 0, 1.310387, -59.698296, -1.169035)" style="fill: rgb(255, 255, 255); text-wrap-mode: nowrap;"/>
    <path transform="matrix(1.310387, 0, 0, 1.310387, -59.698296, -1.169035)" style="fill: rgb(255, 255, 255); text-wrap-mode: nowrap;"/>
    <path d="M 383.12 72.357 Q 383.014 72.357 383.014 72.251 L 383.014 61.458 L 379.666 61.458 Q 379.56 61.458 379.56 61.353 L 379.56 59.657 Q 379.56 59.551 379.666 59.551 L 388.472 59.551 Q 388.578 59.551 388.578 59.657 L 388.578 61.353 Q 388.578 61.458 388.472 61.458 L 385.132 61.458 L 385.132 72.251 Q 385.132 72.357 385.027 72.357 Z M 391.977 61.573 L 391.977 65.422 L 394.711 65.422 Q 395.722 65.422 396.214 64.816 Q 396.715 64.227 396.715 63.497 Q 396.715 62.408 395.941 61.907 Q 395.44 61.573 394.641 61.573 Z M 389.965 72.357 Q 389.859 72.357 389.859 72.251 L 389.859 59.657 Q 389.859 59.551 389.965 59.551 L 394.535 59.551 Q 395.291 59.551 395.968 59.709 Q 396.653 59.868 397.427 60.465 Q 397.726 60.702 397.976 61.015 Q 398.227 61.327 398.429 61.704 Q 398.622 62.091 398.727 62.557 Q 398.833 63.023 398.833 63.55 Q 398.833 64.93 397.796 66.187 Q 396.759 67.435 394.781 67.435 L 391.977 67.435 L 391.977 72.251 Q 391.977 72.357 391.872 72.357 Z M 399.18 72.357 Q 399.075 72.357 399.075 72.251 L 399.075 70.467 Q 399.075 70.362 399.18 70.362 L 400.973 70.362 Q 401.07 70.362 401.07 70.467 L 401.07 72.251 Q 401.07 72.357 400.973 72.357 Z M 413.528 72.357 Q 413.422 72.357 413.422 72.251 L 413.422 66.855 L 408.632 66.855 L 408.632 72.251 Q 408.632 72.357 408.527 72.357 L 406.619 72.357 Q 406.514 72.357 406.514 72.251 L 406.514 59.657 Q 406.514 59.551 406.619 59.551 L 408.527 59.551 Q 408.632 59.551 408.632 59.657 L 408.632 64.948 L 413.422 64.948 L 413.422 59.657 Q 413.422 59.551 413.528 59.551 L 415.435 59.551 Q 415.54 59.551 415.54 59.657 L 415.54 72.251 Q 415.54 72.357 415.435 72.357 Z M 426.771 68.63 Q 426.824 68.63 426.859 68.67 Q 426.894 68.709 426.877 68.762 Q 426.508 70.555 425.242 71.522 Q 424.627 71.988 423.906 72.225 Q 423.185 72.462 422.35 72.462 Q 420.83 72.462 419.793 71.733 Q 418.773 71.012 418.316 70.151 Q 418.158 69.852 418.044 69.549 Q 417.929 69.245 417.868 68.911 Q 417.754 68.261 417.754 65.958 Q 417.754 64.807 417.78 64.077 Q 417.806 63.348 417.868 63.014 Q 417.929 62.68 418.044 62.372 Q 418.158 62.065 418.316 61.766 Q 418.773 60.913 419.793 60.184 Q 420.821 59.446 422.35 59.446 Q 424.178 59.446 425.374 60.571 Q 426.587 61.704 426.877 63.26 Q 426.894 63.313 426.859 63.348 Q 426.824 63.383 426.771 63.383 L 424.759 63.383 Q 424.679 63.383 424.662 63.313 Q 424.548 62.961 424.337 62.658 Q 424.126 62.355 423.818 62.091 Q 423.238 61.573 422.35 61.573 Q 421.691 61.573 421.225 61.836 Q 420.759 62.1 420.478 62.443 Q 420.311 62.654 420.188 62.922 Q 420.065 63.19 419.995 63.471 Q 419.925 63.77 419.898 64.394 Q 419.872 65.018 419.872 65.958 Q 419.872 66.916 419.898 67.536 Q 419.925 68.156 419.995 68.454 Q 420.065 68.727 420.193 68.995 Q 420.32 69.263 420.478 69.465 Q 420.759 69.834 421.225 70.094 Q 421.691 70.353 422.35 70.353 Q 423.871 70.353 424.662 68.692 Q 424.679 68.674 424.706 68.652 Q 424.732 68.63 424.759 68.63 Z M 428.292 72.357 Q 428.187 72.357 428.187 72.251 L 428.187 59.657 Q 428.187 59.551 428.292 59.551 L 430.094 59.551 Q 430.156 59.551 430.191 59.613 L 433.715 67.602 Q 434.568 65.589 435.429 63.607 Q 436.291 61.625 437.152 59.613 Q 437.178 59.551 437.249 59.551 L 439.05 59.551 Q 439.156 59.551 439.156 59.657 L 439.156 72.251 Q 439.156 72.357 439.05 72.357 L 437.143 72.357 Q 437.038 72.357 437.038 72.251 L 437.038 64.816 Q 436.422 66.248 435.798 67.663 Q 435.174 69.078 434.568 70.502 Q 434.533 70.555 434.471 70.555 L 432.88 70.555 Q 432.819 70.555 432.784 70.502 L 430.305 64.798 L 430.305 72.251 Q 430.305 72.357 430.2 72.357 Z" transform="matrix(1.310387, 0, 0, 1.310387, -59.698296, -1.169035)" style="fill: rgb(255, 255, 255); text-wrap-mode: nowrap;"/>
    <path d="M 426.152 119.118 Q 426.045 119.118 426.045 119.011 L 426.045 106.277 Q 426.045 106.17 426.152 106.17 L 434.292 106.17 Q 434.399 106.17 434.399 106.277 L 434.399 108.107 Q 434.399 108.214 434.292 108.214 L 428.187 108.214 L 428.187 111.626 L 433.377 111.626 Q 433.484 111.626 433.484 111.733 L 433.484 113.457 Q 433.484 113.555 433.377 113.555 L 428.187 113.555 L 428.187 117.092 L 434.292 117.092 Q 434.399 117.092 434.399 117.198 L 434.399 119.011 Q 434.399 119.118 434.292 119.118 Z M 442.571 119.118 Q 442.517 119.118 442.482 119.065 L 439.78 114.479 Q 439.105 115.634 438.429 116.772 Q 437.754 117.909 437.079 119.065 Q 437.043 119.118 436.99 119.118 L 434.813 119.118 Q 434.741 119.118 434.715 119.069 Q 434.688 119.02 434.724 118.958 L 438.589 112.48 Q 437.674 110.933 436.776 109.405 Q 435.879 107.876 434.972 106.33 Q 434.937 106.268 434.964 106.219 Q 434.99 106.17 435.052 106.17 L 437.239 106.17 Q 437.292 106.17 437.327 106.223 L 439.78 110.489 Q 440.393 109.422 441.007 108.361 Q 441.62 107.299 442.233 106.223 Q 442.268 106.17 442.322 106.17 L 444.508 106.17 Q 444.57 106.17 444.597 106.219 Q 444.623 106.268 444.588 106.33 L 440.971 112.48 Q 441.949 114.106 442.908 115.719 Q 443.868 117.332 444.846 118.958 Q 444.881 119.02 444.855 119.069 Q 444.828 119.118 444.757 119.118 Z M 448.15 108.214 L 448.15 112.106 L 450.914 112.106 Q 451.936 112.106 452.433 111.493 Q 452.94 110.898 452.94 110.16 Q 452.94 109.058 452.158 108.552 Q 451.651 108.214 450.843 108.214 Z M 446.115 119.118 Q 446.008 119.118 446.008 119.011 L 446.008 106.277 Q 446.008 106.17 446.115 106.17 L 450.736 106.17 Q 451.5 106.17 452.184 106.33 Q 452.878 106.49 453.66 107.094 Q 453.962 107.334 454.215 107.65 Q 454.468 107.965 454.673 108.347 Q 454.868 108.738 454.975 109.209 Q 455.081 109.68 455.081 110.213 Q 455.081 111.609 454.033 112.879 Q 452.984 114.141 450.985 114.141 L 448.15 114.141 L 448.15 119.011 Q 448.15 119.118 448.043 119.118 Z M 458.767 108.098 L 458.767 111.751 L 461.584 111.751 Q 462.615 111.751 463.13 111.182 Q 463.646 110.613 463.646 109.831 Q 463.646 109.387 463.49 109.04 Q 463.335 108.694 463.041 108.472 Q 462.784 108.294 462.441 108.196 Q 462.099 108.098 461.699 108.098 Z M 456.732 119.118 Q 456.625 119.118 456.625 119.011 L 456.625 106.277 Q 456.625 106.17 456.732 106.17 L 461.717 106.17 Q 462.544 106.17 463.21 106.397 Q 463.877 106.623 464.374 107.041 Q 464.632 107.281 464.868 107.587 Q 465.103 107.894 465.285 108.249 Q 465.467 108.605 465.574 109.005 Q 465.681 109.405 465.681 109.831 Q 465.681 110.462 465.503 111.027 Q 465.325 111.591 465.005 112.08 Q 464.676 112.533 464.241 112.875 Q 463.806 113.217 463.255 113.422 Q 463.974 114.799 464.703 116.19 Q 465.432 117.58 466.152 118.958 Q 466.178 119.02 466.152 119.069 Q 466.125 119.118 466.063 119.118 L 463.77 119.118 Q 463.743 119.118 463.717 119.096 Q 463.69 119.073 463.672 119.056 L 461.068 113.679 L 458.767 113.679 L 458.767 119.011 Q 458.767 119.118 458.66 119.118 Z M 467.661 119.118 Q 467.554 119.118 467.554 119.011 L 467.554 106.277 Q 467.554 106.17 467.661 106.17 L 475.801 106.17 Q 475.908 106.17 475.908 106.277 L 475.908 108.107 Q 475.908 108.214 475.801 108.214 L 469.696 108.214 L 469.696 111.626 L 474.886 111.626 Q 474.993 111.626 474.993 111.733 L 474.993 113.457 Q 474.993 113.555 474.886 113.555 L 469.696 113.555 L 469.696 117.092 L 475.801 117.092 Q 475.908 117.092 475.908 117.198 L 475.908 119.011 Q 475.908 119.118 475.801 119.118 Z M 477.686 115.848 Q 477.712 115.812 477.757 115.812 Q 477.801 115.812 477.837 115.839 Q 478.539 116.407 479.45 116.75 Q 480.36 117.092 481.374 117.092 Q 482.511 117.092 483.169 116.621 Q 483.791 116.167 483.791 115.421 Q 483.791 114.017 482.218 113.804 L 482.227 113.804 Q 482.005 113.777 481.805 113.75 Q 481.605 113.724 481.405 113.697 Q 481.205 113.67 480.996 113.639 Q 480.787 113.608 480.538 113.573 Q 479.703 113.457 479.05 113.15 Q 478.396 112.844 477.952 112.337 Q 477.508 111.822 477.286 111.213 Q 477.063 110.604 477.063 109.885 Q 477.063 108.196 478.183 107.139 Q 479.312 106.063 481.32 106.063 Q 481.916 106.063 482.48 106.165 Q 483.044 106.268 483.573 106.445 Q 484.102 106.623 484.586 106.868 Q 485.07 107.112 485.515 107.405 Q 485.604 107.467 485.541 107.556 L 484.466 109.147 Q 484.404 109.227 484.324 109.174 Q 483.631 108.738 482.849 108.476 Q 482.067 108.214 481.231 108.214 Q 480.805 108.214 480.44 108.316 Q 480.076 108.418 479.783 108.649 Q 479.205 109.067 479.205 109.92 Q 479.205 110.409 479.596 110.871 Q 479.792 111.084 480.121 111.231 Q 480.449 111.378 480.929 111.449 Q 481.187 111.493 481.534 111.542 Q 481.88 111.591 482.351 111.644 Q 484.173 111.866 485.053 112.986 Q 485.932 114.079 485.932 115.421 Q 485.932 117.216 484.679 118.229 Q 483.417 119.225 481.356 119.225 Q 478.45 119.225 476.415 117.447 Q 476.379 117.421 476.379 117.376 Q 476.379 117.332 476.406 117.296 Z M 487.955 115.848 Q 487.982 115.812 488.027 115.812 Q 488.071 115.812 488.107 115.839 Q 488.809 116.407 489.719 116.75 Q 490.63 117.092 491.643 117.092 Q 492.781 117.092 493.439 116.621 Q 494.061 116.167 494.061 115.421 Q 494.061 114.017 492.488 113.804 L 492.497 113.804 Q 492.274 113.777 492.074 113.75 Q 491.874 113.724 491.675 113.697 Q 491.475 113.67 491.266 113.639 Q 491.057 113.608 490.808 113.573 Q 489.973 113.457 489.32 113.15 Q 488.666 112.844 488.222 112.337 Q 487.778 111.822 487.556 111.213 Q 487.333 110.604 487.333 109.885 Q 487.333 108.196 488.453 107.139 Q 489.582 106.063 491.59 106.063 Q 492.186 106.063 492.75 106.165 Q 493.314 106.268 493.843 106.445 Q 494.372 106.623 494.856 106.868 Q 495.34 107.112 495.785 107.405 Q 495.873 107.467 495.811 107.556 L 494.736 109.147 Q 494.674 109.227 494.594 109.174 Q 493.901 108.738 493.119 108.476 Q 492.337 108.214 491.501 108.214 Q 491.075 108.214 490.71 108.316 Q 490.346 108.418 490.053 108.649 Q 489.475 109.067 489.475 109.92 Q 489.475 110.409 489.866 110.871 Q 490.062 111.084 490.39 111.231 Q 490.719 111.378 491.199 111.449 Q 491.457 111.493 491.803 111.542 Q 492.15 111.591 492.621 111.644 Q 494.443 111.866 495.323 112.986 Q 496.202 114.079 496.202 115.421 Q 496.202 117.216 494.949 118.229 Q 493.687 119.225 491.626 119.225 Q 488.72 119.225 486.685 117.447 Q 486.649 117.421 486.649 117.376 Q 486.649 117.332 486.676 117.296 Z M 500.211 119.118 Q 500.123 119.118 500.105 119.038 L 496.914 106.303 Q 496.897 106.25 496.932 106.21 Q 496.968 106.17 497.021 106.17 L 499.065 106.17 Q 499.154 106.17 499.172 106.25 L 501.091 114.95 Q 501.678 112.764 502.273 110.604 Q 502.869 108.445 503.464 106.25 Q 503.482 106.17 503.571 106.17 L 504.966 106.17 Q 505.046 106.17 505.064 106.25 L 507.445 114.95 Q 507.925 112.764 508.405 110.604 Q 508.885 108.445 509.365 106.25 Q 509.382 106.17 509.471 106.17 L 511.515 106.17 Q 511.569 106.17 511.604 106.21 Q 511.64 106.25 511.622 106.303 L 508.432 119.038 Q 508.414 119.118 508.325 119.118 L 506.716 119.118 Q 506.636 119.118 506.619 119.038 L 504.264 110.196 Q 503.677 112.426 503.091 114.621 Q 502.504 116.816 501.918 119.038 Q 501.9 119.118 501.82 119.118 Z M 511.536 119.109 Q 511.473 119.109 511.447 119.065 Q 511.42 119.02 511.438 118.967 L 516.095 106.223 Q 516.112 106.152 516.183 106.152 L 517.774 106.152 Q 517.801 106.152 517.832 106.174 Q 517.863 106.197 517.872 106.223 L 522.52 118.967 Q 522.537 119.02 522.511 119.065 Q 522.484 119.109 522.431 119.109 L 520.396 119.109 Q 520.325 119.109 520.307 119.038 L 519.347 116.23 L 514.655 116.23 Q 514.406 116.95 514.162 117.638 Q 513.917 118.327 513.668 119.038 Q 513.66 119.065 513.628 119.087 Q 513.597 119.109 513.571 119.109 Z M 518.707 114.319 Q 518.689 114.257 518.658 114.186 Q 518.627 114.115 518.609 114.061 Q 518.458 113.626 518.334 113.257 Q 518.21 112.888 518.112 112.613 Q 518.05 112.435 517.992 112.266 Q 517.934 112.097 517.881 111.946 Q 517.836 111.804 517.792 111.675 Q 517.747 111.546 517.703 111.422 Q 517.623 111.164 517.539 110.907 Q 517.454 110.649 517.365 110.373 Q 517.321 110.249 517.272 110.098 Q 517.223 109.947 517.17 109.778 Q 517.143 109.689 517.13 109.64 Q 517.117 109.591 517.099 109.542 Q 517.081 109.494 517.059 109.431 Q 517.037 109.369 517.001 109.254 Q 516.903 109.547 516.819 109.796 Q 516.734 110.045 516.663 110.258 Q 516.646 110.311 516.637 110.356 Q 516.628 110.4 516.61 110.444 Q 516.566 110.596 516.517 110.729 Q 516.468 110.862 516.423 110.995 Q 516.379 111.138 516.334 111.271 Q 516.29 111.404 516.246 111.529 Q 516.157 111.795 516.063 112.088 Q 515.97 112.382 515.855 112.702 Q 515.739 113.022 515.615 113.39 Q 515.49 113.759 515.295 114.319 Z M 525.5 119.118 Q 525.402 119.118 525.402 119.011 L 525.402 113.804 Q 524.443 111.929 523.492 110.062 Q 522.541 108.196 521.59 106.321 Q 521.563 106.259 521.59 106.214 Q 521.617 106.17 521.688 106.17 L 523.714 106.17 Q 523.741 106.17 523.767 106.192 Q 523.794 106.214 523.812 106.232 L 526.424 111.689 Q 527.082 110.311 527.726 108.96 Q 528.371 107.61 529.028 106.232 Q 529.046 106.214 529.073 106.192 Q 529.099 106.17 529.126 106.17 L 531.161 106.17 Q 531.232 106.17 531.259 106.214 Q 531.285 106.259 531.259 106.321 L 527.437 113.804 L 527.437 119.011 Q 527.437 119.118 527.331 119.118 Z" style="fill: rgb(255, 255, 255); text-wrap-mode: nowrap;"/>
    <path d="M 341.366 84.558 Q 341.438 84.558 341.486 84.612 Q 341.534 84.666 341.51 84.738 Q 341.005 87.189 339.276 88.51 Q 338.435 89.147 337.45 89.471 Q 336.465 89.795 335.324 89.795 Q 333.246 89.795 331.828 88.798 Q 330.435 87.813 329.81 86.636 Q 329.594 86.228 329.438 85.813 Q 329.282 85.399 329.198 84.942 Q 329.042 84.054 329.042 80.906 Q 329.042 79.333 329.078 78.336 Q 329.114 77.339 329.198 76.883 Q 329.282 76.426 329.438 76.006 Q 329.594 75.585 329.81 75.177 Q 330.435 74.012 331.828 73.015 Q 333.234 72.006 335.324 72.006 Q 337.822 72.006 339.456 73.543 Q 341.113 75.093 341.51 77.219 Q 341.534 77.291 341.486 77.339 Q 341.438 77.387 341.366 77.387 L 338.615 77.387 Q 338.507 77.387 338.483 77.291 Q 338.327 76.81 338.038 76.396 Q 337.75 75.982 337.33 75.621 Q 336.537 74.913 335.324 74.913 Q 334.423 74.913 333.786 75.273 Q 333.15 75.633 332.765 76.102 Q 332.537 76.39 332.369 76.756 Q 332.201 77.123 332.105 77.507 Q 332.008 77.916 331.972 78.768 Q 331.936 79.621 331.936 80.906 Q 331.936 82.216 331.972 83.063 Q 332.008 83.909 332.105 84.318 Q 332.201 84.69 332.375 85.057 Q 332.549 85.423 332.765 85.699 Q 333.15 86.204 333.786 86.558 Q 334.423 86.912 335.324 86.912 Q 337.402 86.912 338.483 84.642 Q 338.507 84.618 338.543 84.588 Q 338.579 84.558 338.615 84.558 Z M 346.396 89.651 Q 346.252 89.651 346.252 89.507 L 346.252 74.756 L 341.676 74.756 Q 341.532 74.756 341.532 74.612 L 341.532 72.294 Q 341.532 72.15 341.676 72.15 L 353.711 72.15 Q 353.856 72.15 353.856 72.294 L 353.856 74.612 Q 353.856 74.756 353.711 74.756 L 349.147 74.756 L 349.147 89.507 Q 349.147 89.651 349.003 89.651 Z M 354.222 89.651 Q 354.078 89.651 354.078 89.507 L 354.078 87.068 Q 354.078 86.924 354.222 86.924 L 356.672 86.924 Q 356.804 86.924 356.804 87.068 L 356.804 89.507 Q 356.804 89.651 356.672 89.651 Z M 357.424 87.117 Q 357.28 87.117 357.28 86.972 L 357.28 84.63 L 363.021 72.354 Q 363.045 72.33 363.081 72.3 Q 363.117 72.27 363.153 72.27 L 365.892 72.27 Q 365.964 72.27 366.006 72.33 Q 366.048 72.39 366.012 72.474 L 360.319 84.522 L 364.415 84.522 L 364.415 79.729 Q 364.415 79.597 364.559 79.597 L 367.009 79.597 Q 367.153 79.597 367.153 79.729 L 367.153 84.522 L 368.39 84.522 Q 368.523 84.522 368.523 84.666 L 368.523 86.972 Q 368.523 87.117 368.39 87.117 L 367.153 87.117 L 367.153 89.507 Q 367.153 89.651 367.009 89.651 L 364.559 89.651 Q 364.415 89.651 364.415 89.507 L 364.415 87.117 Z M 376.977 77.327 Q 376.977 76.162 376.358 75.507 Q 375.74 74.853 374.707 74.853 Q 373.674 74.853 373.061 75.507 Q 372.449 76.162 372.449 77.327 L 372.449 84.594 Q 372.449 85.771 373.061 86.42 Q 373.674 87.068 374.707 87.068 Q 375.74 87.068 376.358 86.42 Q 376.977 85.771 376.977 84.594 Z M 369.71 77.183 Q 369.71 74.756 371.235 73.447 Q 372.749 72.114 374.707 72.114 Q 375.68 72.114 376.551 72.456 Q 377.422 72.799 378.178 73.447 Q 378.935 74.12 379.325 75.051 Q 379.716 75.982 379.716 77.183 L 379.716 84.738 Q 379.716 87.153 378.178 88.474 Q 376.665 89.795 374.707 89.795 Q 372.749 89.795 371.235 88.474 Q 369.71 87.165 369.71 84.738 Z" style="text-wrap-mode: nowrap;"/>
    <path d="M 394.303 191.656 Q 394.104 191.656 394.104 191.457 L 394.104 171.735 Q 393.34 172.299 392.577 172.872 Q 391.813 173.444 391.049 173.992 Q 390.933 174.075 390.834 174.017 Q 390.734 173.959 390.734 173.826 L 390.734 170.224 Q 390.734 170.191 390.759 170.141 Q 390.784 170.091 390.817 170.058 L 394.237 167.584 L 397.707 167.584 Q 397.906 167.584 397.906 167.783 L 397.906 191.457 Q 397.906 191.656 397.707 191.656 Z M 411.349 174.573 Q 411.349 172.963 410.494 172.058 Q 409.639 171.153 408.211 171.153 Q 406.783 171.153 405.937 172.058 Q 405.09 172.963 405.09 174.573 L 405.09 184.617 Q 405.09 186.244 405.937 187.141 Q 406.783 188.037 408.211 188.037 Q 409.639 188.037 410.494 187.141 Q 411.349 186.244 411.349 184.617 Z M 401.305 174.374 Q 401.305 171.021 403.413 169.211 Q 405.505 167.368 408.211 167.368 Q 409.556 167.368 410.76 167.841 Q 411.963 168.315 413.009 169.211 Q 414.055 170.141 414.594 171.427 Q 415.134 172.714 415.134 174.374 L 415.134 184.817 Q 415.134 188.153 413.009 189.98 Q 410.917 191.806 408.211 191.806 Q 405.505 191.806 403.413 189.98 Q 401.305 188.17 401.305 184.817 Z M 427.671 174.573 Q 427.671 172.963 426.816 172.058 Q 425.961 171.153 424.534 171.153 Q 423.106 171.153 422.259 172.058 Q 421.413 172.963 421.413 174.573 L 421.413 184.617 Q 421.413 186.244 422.259 187.141 Q 423.106 188.037 424.534 188.037 Q 425.961 188.037 426.816 187.141 Q 427.671 186.244 427.671 184.617 Z M 417.627 174.374 Q 417.627 171.021 419.736 169.211 Q 421.828 167.368 424.534 167.368 Q 425.878 167.368 427.082 167.841 Q 428.286 168.315 429.331 169.211 Q 430.377 170.141 430.917 171.427 Q 431.456 172.714 431.456 174.374 L 431.456 184.817 Q 431.456 188.153 429.331 189.98 Q 427.24 191.806 424.534 191.806 Q 421.828 191.806 419.736 189.98 Q 417.627 188.17 417.627 184.817 Z" style="text-wrap-mode: nowrap;"/>
    <path d="M 505.003 174.391 Q 505.02 172.731 505.568 171.427 Q 506.116 170.124 507.112 169.194 Q 508.058 168.331 509.237 167.858 Q 510.415 167.385 511.71 167.385 Q 514.068 167.385 515.977 168.796 Q 517.77 170.224 518.318 172.913 Q 518.351 173.013 518.285 173.079 Q 518.218 173.146 518.119 173.146 L 514.715 173.146 Q 514.582 173.146 514.533 173.029 Q 513.786 171.203 511.694 171.153 Q 508.689 171.236 508.689 174.607 L 508.689 176.566 Q 509.768 176.25 510.839 176.068 Q 511.91 175.885 512.873 175.902 Q 515.197 175.902 516.857 177.528 Q 518.451 179.205 518.434 182.692 L 518.434 184.85 Q 518.384 188.253 516.409 190.029 Q 514.549 191.789 511.71 191.872 Q 508.955 191.789 507.112 190.046 Q 505.02 188.22 505.003 184.866 Z M 508.689 184.667 Q 508.706 188.07 511.71 188.104 Q 514.649 188.087 514.765 184.667 L 514.765 182.725 Q 514.632 179.355 511.71 179.288 Q 508.706 179.371 508.689 182.725 Z M 531.13 174.573 Q 531.13 172.963 530.275 172.058 Q 529.42 171.153 527.993 171.153 Q 526.565 171.153 525.718 172.058 Q 524.872 172.963 524.872 174.573 L 524.872 184.617 Q 524.872 186.244 525.718 187.141 Q 526.565 188.037 527.993 188.037 Q 529.42 188.037 530.275 187.141 Q 531.13 186.244 531.13 184.617 Z M 521.086 174.374 Q 521.086 171.021 523.195 169.211 Q 525.287 167.368 527.993 167.368 Q 529.337 167.368 530.541 167.841 Q 531.745 168.315 532.791 169.211 Q 533.836 170.141 534.376 171.427 Q 534.916 172.714 534.916 174.374 L 534.916 184.817 Q 534.916 188.153 532.791 189.98 Q 530.699 191.806 527.993 191.806 Q 525.287 191.806 523.195 189.98 Q 521.086 188.17 521.086 184.817 Z" style="fill: rgb(255, 255, 255); text-wrap-mode: nowrap;"/>
  </g>
</svg>