<?xml version="1.0" encoding="UTF-8"?>
<!DOCTYPE svg PUBLIC "-//W3C//DTD SVG 1.0//EN" "http://www.w3.org/TR/2001/REC-SVG-20010904/DTD/svg10.dtd">
<!-- Creator: CorelDRAW -->
<svg xmlns="http://www.w3.org/2000/svg" xml:space="preserve" width="85.4998mm" height="52.9166mm" version="1.0" style="shape-rendering:geometricPrecision; text-rendering:geometricPrecision; image-rendering:optimizeQuality; fill-rule:evenodd; clip-rule:evenodd"
viewBox="0 0 8549.98 5291.66"
 xmlns:xlink="http://www.w3.org/1999/xlink"
 xmlns:xodm="http://www.corel.com/coreldraw/odm/2003">
 <defs>
  <style type="text/css">
   <![CDATA[
    .fil3 {fill:black}
    .fil0 {fill:#0A9646}
    .fil2 {fill:#FFD70F}
    .fil1 {fill:white}
    .fil8 {fill:#FEFEFE;fill-rule:nonzero}
    .fil7 {fill:#282829;fill-rule:nonzero}
    .fil6 {fill:#0046AA;fill-rule:nonzero}
    .fil5 {fill:#F00A0A;fill-rule:nonzero}
    .fil4 {fill:white;fill-rule:nonzero}
   ]]>
  </style>
 </defs>
 <g id="Layer_x0020_1">
  <metadata id="CorelCorpID_0Corel-Layer"/>
  <g id="_2490203548032">
   <polygon id="rect15575" class="fil0" points="-0,0 8549.98,0 8549.98,5291.66 -0,5291.66 "/>
   <path id="path15582" class="fil1" d="M212.48 35.08c-96.67,0 -175.56,78.88 -175.56,175.54l0 2330.84 0 329.87 0 343.32 0 97.21 0 1767.3c0,96.67 78.89,175.48 175.56,175.48l8124.9 0c96.67,0 175.56,-78.81 175.56,-175.48l-0.01 -1767.29 0 -94.68 0 -403.39 0 -272.33 0 -2330.85c0,-96.67 -78.89,-175.54 -175.56,-175.54l-8124.89 0zm0 66.16l8124.9 0c61.18,0 109.5,48.2 109.5,109.38l0 2330.84 0 272.33c0,2.1 -0.09,4.3 -0.26,6.56l0 50.45c0,60.82 -48.96,109.78 -109.78,109.78l-56.53 0.02c-1.31,0.05 -2.64,0.12 -3.91,0.12l-8010.22 0c-1.27,0 -2.6,-0.07 -3.92,-0.12l-49.69 0c-60.82,0 -109.78,-48.96 -109.78,-109.78l0 -2659.74c0,-11.61 1.8,-22.78 5.11,-33.27 0.1,-0.31 0.23,-0.61 0.33,-0.92 13.98,-44.26 54.89,-75.65 104.25,-75.65zm-0.5 2946.08l48.71 0 8019.9 0 56.83 0c60.49,0 109.2,48.7 109.2,109.19l0 53.15c0.17,2.61 0.26,5.14 0.26,7.53l0 94.68 0 1767.3c0,38.34 -18.98,71.56 -48.2,91.03 -17.45,11.8 -38.53,18.69 -61.27,18.69l-8125.43 0c-60.49,0 -109.19,-48.7 -109.19,-109.19l0 -1923.19c0,-60.49 48.7,-109.19 109.19,-109.19z"/>
   <polygon id="rect15605" class="fil2" points="546.64,1170.33 2157.78,1170.33 2157.78,1906.44 546.64,1906.43 "/>
   <path id="path15631" class="fil3" d="M601.21 1185.3c-21.46,0 -39.01,17.47 -39.01,38.93l0 628.29c0,21.46 17.55,38.93 39.01,38.93l1502.58 0c21.46,0 39.01,-17.47 39.01,-38.93l0 -628.29c0,-21.46 -17.55,-38.93 -39.01,-38.93l-1502.58 0zm0 14.16l1502.58 0c13.83,0 24.77,10.94 24.77,24.77l0 628.29c0,13.83 -10.94,24.69 -24.77,24.69l-1502.58 0c-13.83,0 -24.77,-10.86 -24.77,-24.69l0 -628.29c0,-13.83 10.94,-24.77 24.77,-24.77z"/>
   <path id="path17496" class="fil4" d="M7064.77 956.71l0 1339.17 937.56 0 0 -1339.17 -937.56 0zm36.56 43.92l863.94 0 0 1258.52 -863.94 0 0 -1258.52zm361.64 96.5l-59.13 234.68 103.77 -0.01 7.47 -234.68 -52.11 0.01zm88.73 0l7.47 234.68 103.81 -0.01 -59.18 -234.68 -52.1 0.01zm-420.94 264.38l0 51.39 81.15 29.32 0 15.47 37.33 -0.01 0 -15.47c0,0 55.21,-8.3 119.74,-14.16 51.67,-4.7 109.32,-7.2 149.33,-7.36 47.59,-0.17 117.95,2.48 178.32,7.63 66.49,5.67 120.95,13.89 120.95,13.89l0 15.47 36.57 0 0 -15.47 81.14 -29.32 0 -51.39 -804.53 0.01zm243.71 95.79l-177.39 705.94 265.89 0 36.89 -705.94 -125.39 0zm191.99 0l36.89 705.94 265.9 0 -177.39 -705.94 -125.4 0z"/>
   <path id="path815" class="fil5" d="M3654.68 4118.97c0,-445.87 -361.45,-807.33 -807.33,-807.33 -445.87,0 -807.32,361.46 -807.32,807.33 0,445.87 361.45,807.32 807.32,807.32 445.88,0 807.33,-361.45 807.33,-807.32z"/>
   <path id="circle817" class="fil4" d="M3455.89 4118.97c0,-336.09 -272.45,-608.54 -608.54,-608.54 -336.08,0 -608.54,272.45 -608.54,608.54 0,336.09 272.46,608.54 608.54,608.54 336.09,0 608.54,-272.45 608.54,-608.54z"/>
   <path id="circle817-6" class="fil6" d="M6520.17 4118.96c0,-445.87 -361.45,-807.32 -807.32,-807.32 -445.87,0 -807.32,361.45 -807.32,807.32 0,445.87 361.45,807.32 807.32,807.32 445.87,0 807.32,-361.45 807.32,-807.32z"/>
   <path class="fil7" d="M708.09 1652.94l0 -231.58c0,-48.32 14.26,-85.25 42.68,-111.01 26.82,-24.37 63.11,-36.5 108.87,-36.5 45.13,0 81.74,12.56 109.73,37.67 27.67,25.01 41.5,61.52 41.5,109.84l0 47.04 -117.6 0 0 -57.37c0,-12.24 -1.17,-22.03 -3.72,-29.26 -5.22,-11.5 -15.11,-17.25 -29.91,-17.25 -14.15,0 -24.05,5.54 -29.58,16.61 -2.98,8.94 -4.37,18.83 -4.37,29.9l0 252.23c0,15.44 2.56,27.36 7.77,35.87 5,7.24 13.73,10.96 26.18,10.96 13.94,0 23.74,-6.06 29.27,-18.09 2.98,-8.94 4.36,-18.52 4.36,-28.74l0 -74.81 117.6 0 0 64.49c0,45.13 -13.62,80.89 -40.86,107.28 -27.25,26.82 -64.07,40.23 -110.37,40.23 -46.19,0 -82.8,-13.2 -110.04,-39.59 -27.67,-26.4 -41.51,-62.37 -41.51,-107.92zm335.57 -272.45l0 -98.55 269.68 0 0 98.55 -76.09 0 0 411.87 -117.6 0 0 -411.87 -75.99 0zm339.17 411.87l-106 0 0 -117.5 106 0 0 117.5zm45.87 -119.41l0 -263.19c0,-39.06 12.13,-70.14 36.5,-93.23 24.27,-23.1 58.97,-34.59 104.09,-34.59 44.7,0 79.39,11.39 104.19,33.95 24.05,23.09 36.08,54.38 36.08,93.87l0 263.19c0,39.48 -12.24,70.56 -36.72,93.23 -24.79,22.88 -59.28,34.27 -103.55,34.27 -45.12,0 -79.82,-11.39 -104.09,-34.27 -24.37,-22.67 -36.5,-53.75 -36.5,-93.23zm113.77 -271.6l0 279.69c0,12.45 2.34,21.07 7.02,25.75 4.69,4.69 11.29,7.03 19.8,7.03 7.24,0 13.41,-2.02 18.41,-5.96 5.64,-5.43 8.41,-14.37 8.41,-26.82l0 -279.69c0,-12.24 -2.34,-20.75 -7.02,-25.44 -4.69,-4.68 -11.29,-7.02 -19.8,-7.02 -8.94,0 -15.54,2.13 -19.9,6.28 -4.58,4.79 -6.92,13.51 -6.92,26.18zm218.92 14.05l0 -71.42c20.97,0 40.44,-4.25 58.32,-12.77 17.46,-8.51 29.48,-22.13 36.08,-40.86l96.1 0 0 502.01 -110.04 0 0 -376.96 -80.46 0z"/>
   <path class="fil7" d="M2821.13 3962.6l0 348.97c0,52.36 -16.23,93.56 -48.68,123.62 -32.88,30.34 -78.6,45.43 -137.3,45.43 -55.88,0 -98.92,-12.98 -128.98,-38.8 -31.47,-28.08 -47.13,-72.11 -47.13,-131.94l135.19 0c0,18.48 3.1,32.31 9.45,41.35 6.35,9.73 16.93,14.53 31.47,14.53 14.67,0 25.12,-4.8 31.47,-14.53 6.06,-9.6 9.03,-23.43 9.03,-41.35l0 -75.64 -1.7 -1.69c-10.72,14.39 -22.57,24.84 -35.56,31.47l-20.18 4.94 -28.92 1.69c-50.8,0 -87.92,-16.79 -111.62,-50.52 -19.34,-30.48 -28.93,-72.67 -28.93,-126.43l0 -131.1c0,-51.78 16.09,-92.99 48.4,-123.61 32.17,-30.62 78.18,-45.86 138.01,-45.86 59.26,0 105.27,15.1 138.15,45.01 31.89,30.62 47.83,72.11 47.83,124.46zm-150.42 149.72l0 -160.86c0,-16.23 -3.11,-27.52 -9.32,-33.73 -6.2,-6.21 -14.95,-9.31 -26.24,-9.31 -11.29,0 -20.18,3.1 -26.39,9.17 -6.07,5.22 -9.17,16.51 -9.17,33.87l0 160.86c0,16.51 3.1,27.94 9.31,34.15 6.21,6.07 14.96,9.17 26.25,9.17 11.85,0 20.74,-3.1 26.81,-9.45 5.78,-5.5 8.75,-16.79 8.75,-33.87zm201.37 199.25l0 -348.97c0,-51.78 16.09,-92.99 48.4,-123.61 32.17,-30.62 78.18,-45.86 138.01,-45.86 59.26,0 105.27,15.1 138.15,45.01 31.89,30.62 47.83,72.11 47.83,124.46l0 348.97c0,52.36 -16.23,93.56 -48.68,123.62 -32.88,30.34 -78.6,45.43 -137.3,45.43 -59.83,0 -105.84,-15.09 -138.01,-45.43 -32.31,-30.06 -48.4,-71.26 -48.4,-123.62zm150.85 -360.11l0 370.84c0,16.51 3.1,27.94 9.31,34.15 6.21,6.21 14.96,9.31 26.25,9.31 9.59,0 17.78,-2.68 24.41,-7.9 7.48,-7.2 11.15,-19.05 11.15,-35.56l0 -370.84c0,-16.23 -3.11,-27.52 -9.32,-33.73 -6.2,-6.21 -14.95,-9.31 -26.24,-9.31 -11.86,0 -20.6,2.82 -26.39,8.32 -6.07,6.35 -9.17,17.92 -9.17,34.72z"/>
   <path class="fil8" d="M5334.84 4310.09l0 -348.97c0,-51.78 16.09,-92.99 48.4,-123.61 32.17,-30.62 78.18,-45.86 138.01,-45.86 56.02,0 99.34,13.69 130.24,40.92 30.62,27.09 45.86,70.42 45.86,130.25l-135.6 0c0,-18.49 -2.97,-32.6 -9.03,-42.2 -6.35,-9.03 -16.8,-13.68 -31.47,-13.68 -14.54,0 -25.12,4.94 -31.47,14.53 -6.35,9.6 -9.45,23.43 -9.45,41.35l0 75.21 2.11 1.69c11.86,-15.24 23.71,-25.26 35.56,-30.2 11.29,-5.22 27.52,-7.9 48.69,-7.9 51.08,0 88.33,16.94 112.04,50.94 19.05,30.48 28.5,72.54 28.5,126.02l0 131.51c0,52.36 -16.23,93.56 -48.68,123.62 -32.88,30.34 -78.6,45.43 -137.3,45.43 -59.83,0 -105.84,-15.09 -138.01,-45.43 -32.31,-30.06 -48.4,-71.26 -48.4,-123.62zm150.85 -150.14l0 160.87c0,16.51 3.1,27.94 9.31,34.15 6.21,6.21 14.96,9.31 26.25,9.31 9.59,0 17.78,-2.68 24.41,-7.9 7.48,-7.2 11.15,-19.05 11.15,-35.56l0 -160.87c0,-16.23 -3.11,-27.38 -9.32,-33.58 -6.2,-6.21 -14.95,-9.32 -26.24,-9.32 -11.86,0 -20.6,2.68 -26.39,8.19 -6.07,6.35 -9.17,17.92 -9.17,34.71zm272.49 150.14l0 -348.97c0,-51.78 16.09,-92.99 48.4,-123.61 32.17,-30.62 78.18,-45.86 138.01,-45.86 59.26,0 105.27,15.1 138.15,45.01 31.89,30.62 47.83,72.11 47.83,124.46l0 348.97c0,52.36 -16.23,93.56 -48.68,123.62 -32.88,30.34 -78.6,45.43 -137.3,45.43 -59.83,0 -105.84,-15.09 -138.01,-45.43 -32.31,-30.06 -48.4,-71.26 -48.4,-123.62zm150.85 -360.11l0 370.84c0,16.51 3.1,27.94 9.31,34.15 6.21,6.21 14.96,9.31 26.25,9.31 9.59,0 17.78,-2.68 24.41,-7.9 7.48,-7.2 11.15,-19.05 11.15,-35.56l0 -370.84c0,-16.23 -3.11,-27.52 -9.32,-33.73 -6.2,-6.21 -14.95,-9.31 -26.24,-9.31 -11.86,0 -20.6,2.82 -26.39,8.32 -6.07,6.35 -9.17,17.92 -9.17,34.72z"/>
   <path class="fil8" d="M3258.21 558.24l0 367.77 20.01 0c35.94,0 53.85,-15.82 53.85,-47.46l0 -272.86c0,-31.63 -17.91,-47.45 -53.85,-47.45l-20.01 0zm-128.52 462.79l0 -557.81 191.21 0c51.76,0 88.75,14.18 111.08,42.56 19.07,24.31 28.61,60.02 28.61,107.01l0 265.18c0,46.52 -14.66,82.93 -43.97,109.33 -25.23,22.45 -57.1,33.73 -95.72,33.73l-191.21 0zm391.84 0l0 -557.81 128.52 0 0 557.81 -128.52 0zm189.82 -558.51l285.54 0 0 107.7 -157.02 0 0 111.42 137.6 0 0 107.7 -137.6 0 0 123.99 163.18 0 0 107.7 -291.7 0 0 -558.51zm42.57 -33.38l57.92 -94.68 98.52 0 50.12 94.68 -72.57 0 -30.71 -53.16 -34.77 53.16 -68.51 0zm225.99 -179.23c-6.86,19.54 -15.12,34.19 -24.89,43.96 -12.33,12.45 -27.68,18.73 -46.41,18.73 -8.37,0 -17.91,-2.1 -28.61,-6.28 -10.59,-4.19 -19.19,-7.45 -25.47,-9.77 -7.1,-1.75 -13.26,-3.14 -18.5,-4.08 -4.53,0 -10.23,2.1 -17.33,6.17 -5,4.3 -9.42,9.65 -13.25,16.05l-30.01 -11.28c6.63,-16.63 14.07,-30.24 22.45,-40.94 11.63,-14.54 24.77,-21.75 39.54,-21.75 9.77,0 23.73,3.49 41.87,10.58 18.26,6.98 30.59,10.59 37.22,10.59 7.44,0 13.96,-2.21 19.42,-6.52 5.24,-3.6 9.89,-9.88 13.96,-18.72l30.01 13.26zm80.37 771.12l0 -557.81 140.39 0 103.28 328.8 1.39 -328.8 124.34 0 0 557.81 -139.69 0 -103.98 -344.85 -1.39 344.85 -124.34 0zm599.34 -152.36l0 -253.09c0,-52.8 15.59,-93.16 46.64,-121.31 29.31,-26.64 68.97,-39.89 118.98,-39.89 49.32,0 89.33,13.72 119.92,41.17 30.24,27.33 45.36,67.23 45.36,120.03l0 51.41 -128.52 0 0 -62.69c0,-13.38 -1.28,-24.08 -4.07,-31.99 -5.7,-12.56 -16.52,-18.84 -32.69,-18.84 -15.46,0 -26.28,6.05 -32.33,18.14 -3.26,9.77 -4.77,20.59 -4.77,32.69l0 275.65c0,16.86 2.79,29.89 8.49,39.19 5.47,7.91 15.01,11.98 28.61,11.98 15.24,0 25.94,-6.63 31.99,-19.77 3.26,-9.77 4.77,-20.24 4.77,-31.4l0 -81.77 128.52 0 0 70.49c0,49.31 -14.89,88.39 -44.66,117.23 -29.78,29.31 -70.02,43.97 -120.62,43.97 -50.47,0 -90.48,-14.42 -120.26,-43.27 -30.24,-28.84 -45.36,-68.15 -45.36,-117.93zm387.77 152.36l0 -557.81 128.52 0 0 208.88 73.86 0 0 -208.88 128.52 0 0 557.81 -128.52 0 0 -237.5 -73.86 0 0 237.5 -128.52 0zm467.21 -558.51l170.39 0 105.26 558.51 -135.27 0 -11.98 -99.21 -89.9 0 -13.26 99.21 -128.52 0 103.28 -558.51zm-17.45 -33.38l57.93 -94.68 98.51 0 50.13 94.68 -72.58 0 -30.7 -53.16 -34.78 53.16 -68.51 0zm69.21 393.58l64.08 0 -30 -273.67 -34.08 273.67zm256.57 45.95l0 -405.45 128.52 0 0 406.84c0,19.54 1.75,33.73 5.35,42.57 3.49,9.31 14.08,13.96 31.75,13.96 11.98,0 21.41,-3.61 27.92,-10.82 5.93,-7.09 8.84,-22.33 8.84,-45.71l0 -406.84 128.52 0 0 405.45c0,49.31 -14.89,88.39 -44.66,117.23 -29.78,29.31 -70.02,43.97 -120.62,43.97 -50.47,0 -90.48,-14.42 -120.26,-43.27 -30.24,-28.84 -45.36,-68.15 -45.36,-117.93zm-2260.57 1184.48l0 -557.81 177.84 0c48.38,0 83.86,9.77 106.42,29.3 21.75,20.01 32.68,53.97 32.68,101.89 0,35.94 -3.95,62.46 -11.98,79.79 -9.77,23.14 -29.31,40.24 -58.62,51.41 30.24,5.7 51.88,19.89 64.9,42.8 13.15,22.79 19.66,51.76 19.66,87 0,50.01 -10.47,89.32 -31.4,117.93 -23.85,31.76 -62.93,47.69 -117.13,47.69l-182.37 0zm128.52 -246.34l0 151.32 26.52 0c19.08,0 31.99,-4.89 38.5,-14.66 5.93,-10.7 8.84,-31.17 8.84,-61.41 0,-24.31 -2.21,-41.75 -6.75,-52.45 -6.63,-15.24 -19.19,-22.8 -37.8,-22.8l-29.31 0zm0 -216.45l0 125.84 23.85 0c18.14,0 30.58,-6.39 37.45,-19.19 4.77,-10.11 7.21,-25.47 7.21,-45.94 0,-20.93 -2.79,-36.29 -8.38,-46.06 -5.58,-9.77 -16.16,-14.65 -31.52,-14.65l-28.61 0zm338.69 -95.72l170.39 0 105.26 558.51 -135.27 0 -11.98 -99.21 -89.9 0 -13.26 99.21 -128.52 0 103.28 -558.51zm199.7 -110.73c-9.42,22.68 -18.96,38.97 -28.73,48.74 -13.37,14.07 -30.35,21.16 -51.06,21.16 -12.09,0 -26.51,-4.07 -43.26,-11.98 -16.63,-7.44 -28.85,-11.28 -36.76,-11.28 -5.23,0 -11.98,2.91 -20.12,8.61 -1.16,0.81 -3.14,2.91 -5.81,6.05 -2.79,3.72 -5.47,7.21 -8.14,10.58l-33.73 -12.56c3.37,-8.84 6.16,-15.94 8.49,-21.17 4.53,-10.23 9.88,-18.49 15.93,-24.89 13.03,-15.82 27.92,-23.84 44.66,-23.84 12.56,0 28.03,3.6 46.76,10.58 18.14,7.33 31.64,11.75 40.47,13.26 8.84,0 16.52,-2.56 23.03,-7.68 6.52,-5.11 11.4,-11.86 14.78,-20.23l33.49 14.65zm-147.94 470.93l64.08 0 -30 -273.67 -34.08 273.67zm260.64 198.31l0 -557.81 128.52 0 0 557.81 -128.52 0zm424.19 0l-85.14 -557.81 131.19 0 35.13 396.61 43.96 -396.61 128.76 0 -94.68 557.81 -159.22 0zm416.15 -141.08c0,16.86 2.79,29.89 8.49,39.19 5.47,7.91 15.01,11.98 28.61,11.98 15.24,0 25.94,-6.63 31.99,-19.77 3.26,-9.77 4.77,-20.24 4.77,-31.4l0 -276.35c0,-13.38 -1.28,-24.08 -4.07,-31.99 -5.7,-12.56 -16.52,-18.72 -32.69,-18.72 -15.46,0 -26.28,5.93 -32.33,18.03 -3.26,9.77 -4.77,20.7 -4.77,32.68l0 276.35zm-128.52 -265.07c0,-52.69 15.59,-93.28 46.64,-121.66 29.31,-26.4 68.97,-39.54 118.98,-39.54 49.32,0 89.33,13.49 119.92,40.59 30.7,27.22 46.06,67.46 46.06,120.61l0 253.79c0,48.85 -14.89,87.93 -44.67,117.23 -29.77,29.31 -70.25,43.97 -121.31,43.97 -50.47,0 -90.48,-14.42 -120.26,-43.27 -30.24,-28.84 -45.36,-68.15 -45.36,-117.93l0 -253.79zm107.01 459.65l119.91 0 0 82.46 -119.91 0 0 -82.46zm259.71 -503.61l0 -107.7 294.73 0 0 107.7 -83.17 0 0 450.11 -128.52 0 0 -450.11 -83.04 0z"/>
   <path class="fil8" d="M3274.94 2744.56l0 -386.34 197.76 0 0 74.59 -108.75 0 0 76.69 95.3 0 0 74.59 -95.3 0 0 85.88 113.02 0 0 74.59 -202.03 0zm226.59 0l75 -208.4 -70.57 -177.94 95.62 0 30.45 109.71 31.82 -109.71 92.56 0 -71.29 180.76 75.48 205.58 -93.2 0 -37.78 -124.86 -35.85 124.86 -92.24 0zm372.65 -317.63l0 95.78 22.15 0c12.89,0 21.75,-3.38 26.67,-10.15 4.27,-7.73 6.36,-20.62 6.36,-38.66 0,-21.27 -3.79,-34.97 -11.28,-41.09 -4.75,-3.95 -16.03,-5.88 -33.75,-5.88l-10.15 0zm-89.01 317.63l0 -386.34 95.37 0c51.08,0 86.2,6.93 105.21,20.78 21.59,16.19 32.38,48.41 32.38,96.75 0,13.21 -0.16,22.23 -0.48,27.15 -0.65,5.15 -1.94,12.56 -3.79,22.15 -1.85,9.91 -6.04,19.73 -12.48,29.56 -15.31,24.49 -40.93,36.81 -76.93,36.81l-50.27 0 0 153.14 -89.01 0zm268.57 0l0 -386.34 117.53 0c39.63,0 68.31,6.93 85.95,20.78 17.72,14.02 26.66,38.27 26.66,72.66 0,24.73 -2.98,43.34 -8.78,55.99 -7.73,15.54 -22.63,26.74 -44.79,33.51 16.03,2.82 28.52,10.07 37.46,21.67 9.51,10.87 14.18,24.41 14.18,40.6l0 68.23 0 27.39c0,3.86 0,7.41 0,10.55 0,3.62 0.32,7.33 0.97,11.12 0,9.42 2.73,17.4 8.21,23.84l-87.96 0c-2.9,-3.3 -5.48,-10.96 -7.82,-22.88 -1.29,-10.23 -1.93,-19.81 -1.93,-28.84 -0.24,-9.1 -0.4,-16.19 -0.4,-21.18l0 -62.11c0,-10.55 -2.66,-18.53 -7.82,-24.09 -5.07,-5.15 -13.69,-7.73 -25.94,-7.73l-16.51 0 0 166.83 -89.01 0zm89.01 -320.53l0 88.05 21.67 0c12.89,0 21.83,-4.35 26.66,-13.21l2.82 -11.52 0.97 -20.79c0,-15.14 -1.37,-25.61 -4.27,-31.41 -4.51,-7.41 -14.66,-11.12 -30.45,-11.12l-17.4 0zm179.56 320.53l0 -386.34 197.76 0 0 74.59 -108.75 0 0 76.69 95.3 0 0 74.59 -95.3 0 0 85.88 113.02 0 0 74.59 -202.03 0zm238.11 -130.98l86.2 0 0 28.51c0,12.81 1.69,22.08 5.15,27.88 5.16,8.21 13.45,12.32 24.81,12.32 9.27,0 16.84,-3.14 22.64,-9.26 5.48,-5.8 8.21,-12.73 8.21,-20.79 0,-17.4 -10.71,-35.36 -32.3,-53.81l-38.26 -28.51c-27.95,-23.12 -44.39,-37.62 -49.3,-43.42 -6.77,-8.38 -12.41,-18.37 -17,-29.97 -3.46,-11.36 -5.15,-23.36 -5.15,-36.09 0,-36.25 9.82,-63.39 29.48,-81.44 19.33,-17.96 47.37,-26.9 84.02,-26.9 37.46,0 65.25,8.45 83.53,25.45 18.45,17.16 27.63,41 27.63,71.53l0 34.97 -83.05 0 0 -20.79c0,-11.68 -1.53,-21.18 -4.51,-28.6 -4.43,-9.26 -12.24,-13.93 -23.6,-13.93 -9.27,0 -16.68,2.42 -22.23,7.09 -5.48,5.23 -8.22,12.48 -8.22,21.75 0,12.24 11.52,27.79 34.48,46.48l39.39 30.45c35.2,31.33 55.1,50.99 59.45,58.96 9.74,17.48 14.66,39.8 14.66,66.78 0,23.77 -8.62,44.87 -25.7,63.32 -21.91,23.44 -53.65,35.12 -95.13,35.12 -39.64,0 -69.76,-10.95 -90.39,-32.78 -16.51,-17.32 -24.81,-38.27 -24.81,-62.76l0 -41.56zm268.57 0l86.2 0 0 28.51c0,12.81 1.69,22.08 5.15,27.88 5.16,8.21 13.45,12.32 24.81,12.32 9.27,0 16.84,-3.14 22.64,-9.26 5.48,-5.8 8.21,-12.73 8.21,-20.79 0,-17.4 -10.71,-35.36 -32.3,-53.81l-38.26 -28.51c-27.95,-23.12 -44.39,-37.62 -49.3,-43.42 -6.77,-8.38 -12.41,-18.37 -17,-29.97 -3.46,-11.36 -5.15,-23.36 -5.15,-36.09 0,-36.25 9.82,-63.39 29.48,-81.44 19.33,-17.96 47.37,-26.9 84.02,-26.9 37.46,0 65.25,8.45 83.53,25.45 18.45,17.16 27.63,41 27.63,71.53l0 34.97 -83.05 0 0 -20.79c0,-11.68 -1.53,-21.18 -4.51,-28.6 -4.43,-9.26 -12.24,-13.93 -23.6,-13.93 -9.27,0 -16.68,2.42 -22.23,7.09 -5.48,5.23 -8.22,12.48 -8.22,21.75 0,12.24 11.52,27.79 34.48,46.48l39.39 30.45c35.2,31.33 55.1,50.99 59.45,58.96 9.74,17.48 14.66,39.8 14.66,66.78 0,23.77 -8.62,44.87 -25.7,63.32 -21.91,23.44 -53.65,35.12 -95.13,35.12 -39.64,0 -69.76,-10.95 -90.39,-32.78 -16.51,-17.32 -24.81,-38.27 -24.81,-62.76l0 -41.56zm325.2 130.98l-65.81 -386.34 91.59 0 31.34 274.69 29.48 -274.69 86.43 0 27.15 274.69 32.79 -274.69 89.41 0 -67.74 386.34 -99.09 0 -25.93 -237.88 -30.45 237.88 -99.17 0zm315.77 0l71.54 -386.34 118.01 0 72.42 386.34 -93.2 0 -8.3 -68.71 -62.27 0 -9.18 68.71 -89.02 0zm107.38 -137.35l44.39 0 -20.78 -189.06 -23.61 189.06zm198.9 -15.38l-72.42 -233.61 91.83 0 24.73 130.5 26.9 -130.5 90.39 0 -72.42 227.24 0 159.1 -89.01 0 0 -152.73z"/>
  </g>
 </g>
</svg>
