<?xml version="1.0" encoding="UTF-8"?>
<!DOCTYPE svg PUBLIC "-//W3C//DTD SVG 1.1//EN" "http://www.w3.org/Graphics/SVG/1.1/DTD/svg11.dtd">
<!-- Creator: CorelDRAW -->
<svg xmlns="http://www.w3.org/2000/svg" xml:space="preserve" width="85.4998mm" height="52.9166mm" version="1.1" style="shape-rendering:geometricPrecision; text-rendering:geometricPrecision; image-rendering:optimizeQuality; fill-rule:evenodd; clip-rule:evenodd"
viewBox="0 0 1751.78 1084.19"
 xmlns:xlink="http://www.w3.org/1999/xlink"
 xmlns:xodm="http://www.corel.com/coreldraw/odm/2003">
 <defs>
  <style type="text/css">
   <![CDATA[
    .fil3 {fill:black}
    .fil0 {fill:#0A9646}
    .fil2 {fill:#FFD70F}
    .fil1 {fill:white}
    .fil7 {fill:black;fill-rule:nonzero}
    .fil6 {fill:#0046AA;fill-rule:nonzero}
    .fil5 {fill:#F00A0A;fill-rule:nonzero}
    .fil4 {fill:white;fill-rule:nonzero}
   ]]>
  </style>
 </defs>
 <g id="Layer_x0020_1">
  <metadata id="CorelCorpID_0Corel-Layer"/>
  <g id="_2416218756656">
   <polygon id="rect15575" class="fil0" points="-0,0 1751.78,0 1751.78,1084.19 -0,1084.19 "/>
   <path id="path15582" class="fil1" d="M43.53 7.19c-19.81,0 -35.97,16.16 -35.97,35.97l0 477.56 0 67.59 0 70.34 0 19.92 0 362.1c0,19.81 16.16,35.95 35.97,35.95l1664.68 0c19.81,0 35.97,-16.15 35.97,-35.95l-0 -362.09 0 -19.4 0 -82.65 0 -55.8 0 -477.56c0,-19.81 -16.16,-35.97 -35.97,-35.97l-1664.68 0zm0 13.56l1664.68 0c12.53,0 22.44,9.88 22.44,22.41l0 477.56 0 55.8c0,0.43 -0.02,0.88 -0.05,1.34l0 10.34c0,12.46 -10.03,22.49 -22.49,22.49l-11.58 0c-0.27,0.01 -0.54,0.02 -0.8,0.02l-1641.19 0c-0.26,0 -0.53,-0.01 -0.8,-0.02l-10.18 0c-12.46,0 -22.49,-10.03 -22.49,-22.49l0 -544.95c0,-2.38 0.37,-4.67 1.05,-6.82 0.02,-0.06 0.05,-0.12 0.07,-0.19 2.86,-9.07 11.25,-15.5 21.36,-15.5zm-0.1 603.61l9.98 0 1643.17 0 11.64 0c12.39,0 22.37,9.98 22.37,22.37l0 10.89c0.03,0.53 0.05,1.05 0.05,1.54l0 19.4 0 362.1c0,7.86 -3.89,14.66 -9.88,18.65 -3.58,2.42 -7.89,3.83 -12.55,3.83l-1664.79 0c-12.39,0 -22.37,-9.98 -22.37,-22.37l0 -394.04c0,-12.39 9.98,-22.37 22.37,-22.37z"/>
   <polygon id="rect15605" class="fil2" points="112,239.79 442.1,239.79 442.1,390.6 112,390.6 "/>
   <path id="path15631" class="fil3" d="M123.18 242.85c-4.4,0 -7.99,3.58 -7.99,7.98l0 128.73c0,4.4 3.6,7.98 7.99,7.98l307.86 0c4.4,0 7.99,-3.58 7.99,-7.98l0 -128.73c0,-4.4 -3.6,-7.98 -7.99,-7.98l-307.86 0zm0 2.9l307.86 0c2.83,0 5.08,2.24 5.08,5.08l0 128.73c0,2.83 -2.24,5.06 -5.08,5.06l-307.86 0c-2.83,0 -5.08,-2.23 -5.08,-5.06l0 -128.73c0,-2.83 2.24,-5.08 5.08,-5.08z"/>
   <path id="path17496" class="fil4" d="M1447.48 196.02l0 274.38 192.09 0 0 -274.38 -192.09 0zm7.49 9l177.01 0 0 257.85 -177.01 0 0 -257.85zm74.1 19.77l-12.11 48.08 21.26 -0 1.53 -48.08 -10.68 0zm18.18 0l1.53 48.08 21.27 -0 -12.13 -48.08 -10.67 0zm-86.25 54.17l0 10.53 16.63 6.01 0 3.17 7.65 -0 0 -3.17c0,0 11.31,-1.7 24.53,-2.9 10.59,-0.96 22.4,-1.48 30.6,-1.51 9.75,-0.03 24.17,0.51 36.54,1.56 13.62,1.16 24.78,2.85 24.78,2.85l0 3.17 7.49 0 0 -3.17 16.62 -6.01 0 -10.53 -164.84 0zm49.93 19.63l-36.34 144.64 54.48 0 7.56 -144.64 -25.69 0zm39.34 0l7.56 144.64 54.48 0 -36.34 -144.64 -25.69 0z"/>
   <circle id="path815" class="fil5" cx="583.39" cy="843.92" r="165.41"/>
   <circle id="circle817" class="fil4" cx="583.39" cy="843.92" r="124.68"/>
   <circle id="circle817-6" class="fil6" cx="1170.49" cy="843.92" r="165.41"/>
   <path class="fil4" d="M665.11 521.26c-0.39,0 -0.58,-0.19 -0.58,-0.58l0 -69.03c0,-0.39 0.19,-0.58 0.58,-0.58l44.13 0c0.39,0 0.58,0.19 0.58,0.58l0 9.92c0,0.39 -0.19,0.58 -0.58,0.58l-33.1 0 0 18.5 28.14 0c0.39,0 0.58,0.19 0.58,0.58l0 9.35c0,0.35 -0.19,0.53 -0.58,0.53l-28.14 0 0 19.17 33.1 0c0.39,0 0.58,0.19 0.58,0.58l0 9.83c0,0.39 -0.19,0.58 -0.58,0.58l-44.13 0zm89.01 0c-0.19,0 -0.36,-0.1 -0.48,-0.29l-14.65 -24.86c-2.44,4.17 -4.88,8.32 -7.32,12.43 -2.44,4.11 -4.88,8.25 -7.32,12.43 -0.13,0.19 -0.29,0.29 -0.48,0.29l-11.8 0c-0.26,0 -0.44,-0.09 -0.53,-0.27 -0.1,-0.18 -0.08,-0.38 0.05,-0.6l20.95 -35.12c-3.31,-5.59 -6.58,-11.15 -9.83,-16.67 -3.24,-5.53 -6.5,-11.08 -9.78,-16.67 -0.13,-0.22 -0.14,-0.42 -0.04,-0.6 0.09,-0.18 0.25,-0.26 0.48,-0.26l11.85 0c0.19,0 0.35,0.09 0.48,0.29l13.3 23.13c2.22,-3.86 4.43,-7.7 6.65,-11.54 2.21,-3.84 4.43,-7.7 6.65,-11.59 0.13,-0.19 0.29,-0.29 0.48,-0.29l11.85 0c0.22,0 0.39,0.09 0.48,0.26 0.09,0.18 0.08,0.38 -0.05,0.6l-19.61 33.34c3.53,5.88 7.03,11.73 10.5,17.56 3.47,5.83 6.97,11.68 10.5,17.56 0.13,0.22 0.14,0.42 0.05,0.6 -0.1,0.18 -0.27,0.27 -0.53,0.27l-11.85 0zm30.24 -59.11l0 21.1 14.98 0c3.69,0 6.44,-1.11 8.23,-3.32 1.83,-2.15 2.75,-4.56 2.75,-7.23 0,-3.98 -1.41,-6.89 -4.24,-8.72 -1.83,-1.22 -4.21,-1.83 -7.13,-1.83l-14.6 0zm-11.03 59.11c-0.39,0 -0.58,-0.19 -0.58,-0.58l0 -69.03c0,-0.39 0.19,-0.58 0.58,-0.58l25.05 0c2.76,0 5.38,0.29 7.85,0.87 2.51,0.58 5.18,1.96 8,4.14 1.09,0.87 2.09,1.87 3.01,3.01 0.91,1.14 1.74,2.4 2.48,3.78 0.7,1.41 1.25,2.97 1.64,4.67 0.38,1.7 0.57,3.52 0.57,5.44 0,5.04 -1.89,9.86 -5.68,14.45 -3.79,4.56 -9.3,6.84 -16.52,6.84l-15.37 0 0 26.4c0,0.39 -0.19,0.58 -0.58,0.58l-10.45 0zm68.59 -59.74l0 19.8 15.27 0c3.73,0 6.52,-1.03 8.38,-3.08 1.86,-2.06 2.8,-4.5 2.8,-7.32 0,-1.6 -0.28,-3.03 -0.85,-4.29 -0.56,-1.25 -1.37,-2.28 -2.43,-3.08 -0.93,-0.64 -2.01,-1.14 -3.25,-1.5 -1.24,-0.35 -2.58,-0.53 -4.02,-0.53l-15.89 0zm-11.03 59.74c-0.39,0 -0.58,-0.19 -0.58,-0.58l0 -69.03c0,-0.39 0.19,-0.58 0.58,-0.58l27.02 0c2.99,0 5.69,0.41 8.09,1.23 2.41,0.82 4.51,1.98 6.31,3.49 0.93,0.87 1.83,1.85 2.68,2.96 0.85,1.11 1.6,2.3 2.26,3.59 0.66,1.29 1.18,2.65 1.57,4.1 0.39,1.44 0.58,2.94 0.58,4.48 0,2.28 -0.32,4.44 -0.97,6.48 -0.64,2.04 -1.54,3.94 -2.7,5.71 -1.19,1.64 -2.57,3.08 -4.14,4.31 -1.57,1.24 -3.35,2.23 -5.35,2.96 2.6,4.98 5.22,9.98 7.85,15.01 2.63,5.02 5.25,10.03 7.85,15.01 0.09,0.22 0.09,0.42 0,0.6 -0.1,0.18 -0.26,0.27 -0.48,0.27l-12.43 0c-0.1,0 -0.19,-0.04 -0.29,-0.12 -0.1,-0.08 -0.18,-0.16 -0.24,-0.22l-14.12 -29.15 -12.47 0 0 28.91c0,0.39 -0.19,0.58 -0.58,0.58l-10.45 0zm59.25 0c-0.39,0 -0.58,-0.19 -0.58,-0.58l0 -69.03c0,-0.39 0.19,-0.58 0.58,-0.58l44.13 0c0.39,0 0.58,0.19 0.58,0.58l0 9.92c0,0.39 -0.19,0.58 -0.58,0.58l-33.1 0 0 18.5 28.14 0c0.39,0 0.58,0.19 0.58,0.58l0 9.35c0,0.35 -0.19,0.53 -0.58,0.53l-28.14 0 0 19.17 33.1 0c0.39,0 0.58,0.19 0.58,0.58l0 9.83c0,0.39 -0.19,0.58 -0.58,0.58l-44.13 0zm54.34 -17.73c0.09,-0.13 0.22,-0.19 0.39,-0.19 0.16,0 0.3,0.05 0.43,0.15 2.54,2.05 5.45,3.7 8.74,4.94 3.29,1.24 6.77,1.85 10.43,1.85 4.11,0 7.35,-0.85 9.73,-2.55 2.25,-1.64 3.37,-3.81 3.37,-6.51 0,-5.07 -2.84,-7.99 -8.53,-8.77l0.05 0c-0.8,-0.1 -1.57,-0.19 -2.29,-0.29 -0.72,-0.09 -1.45,-0.19 -2.17,-0.29 -0.72,-0.1 -1.46,-0.2 -2.22,-0.32 -0.76,-0.11 -1.58,-0.23 -2.48,-0.36 -3.02,-0.42 -5.71,-1.18 -8.07,-2.29 -2.36,-1.11 -4.35,-2.58 -5.95,-4.41 -1.6,-1.86 -2.81,-3.89 -3.61,-6.09 -0.81,-2.2 -1.21,-4.6 -1.21,-7.2 0,-6.1 2.02,-11.07 6.07,-14.89 4.08,-3.89 9.75,-5.83 17.01,-5.83 2.16,0 4.25,0.18 6.29,0.55 2.04,0.37 4.01,0.88 5.92,1.52 1.91,0.64 3.74,1.41 5.49,2.29 1.75,0.88 3.43,1.85 5.04,2.91 0.32,0.22 0.37,0.5 0.14,0.82l-5.83 8.62c-0.22,0.29 -0.48,0.34 -0.77,0.15 -2.5,-1.58 -5.17,-2.84 -7.99,-3.78 -2.83,-0.95 -5.75,-1.42 -8.77,-1.42 -1.54,0 -2.97,0.18 -4.29,0.55 -1.32,0.37 -2.5,0.97 -3.56,1.81 -2.09,1.51 -3.13,3.81 -3.13,6.89 0,1.77 0.71,3.49 2.12,5.16 0.71,0.77 1.66,1.42 2.85,1.95 1.19,0.53 2.65,0.93 4.38,1.18 0.93,0.16 2.03,0.33 3.28,0.5 1.25,0.18 2.72,0.36 4.43,0.55 6.59,0.8 11.47,3.23 14.65,7.28 3.18,3.95 4.77,8.35 4.77,13.2 0,6.49 -2.26,11.56 -6.79,15.22 -4.56,3.6 -10.57,5.4 -18.01,5.4 -10.5,0 -19.43,-3.21 -26.78,-9.64 -0.13,-0.09 -0.2,-0.22 -0.2,-0.39 0,-0.16 0.05,-0.3 0.15,-0.43l6.94 -7.85zm55.67 0c0.1,-0.13 0.23,-0.19 0.39,-0.19 0.16,0 0.3,0.05 0.43,0.15 2.54,2.05 5.45,3.7 8.74,4.94 3.29,1.24 6.77,1.85 10.43,1.85 4.11,0 7.36,-0.85 9.74,-2.55 2.25,-1.64 3.37,-3.81 3.37,-6.51 0,-5.07 -2.84,-7.99 -8.53,-8.77l0.05 0c-0.81,-0.1 -1.57,-0.19 -2.29,-0.29 -0.72,-0.09 -1.44,-0.19 -2.16,-0.29 -0.72,-0.1 -1.46,-0.2 -2.22,-0.32 -0.76,-0.11 -1.58,-0.23 -2.48,-0.36 -3.02,-0.42 -5.71,-1.18 -8.07,-2.29 -2.36,-1.11 -4.35,-2.58 -5.95,-4.41 -1.6,-1.86 -2.81,-3.89 -3.61,-6.09 -0.81,-2.2 -1.21,-4.6 -1.21,-7.2 0,-6.1 2.02,-11.07 6.07,-14.89 4.08,-3.89 9.75,-5.83 17.01,-5.83 2.15,0 4.25,0.18 6.29,0.55 2.04,0.37 4.01,0.88 5.93,1.52 1.91,0.64 3.74,1.41 5.49,2.29 1.75,0.88 3.43,1.85 5.04,2.91 0.32,0.22 0.36,0.5 0.14,0.82l-5.83 8.62c-0.22,0.29 -0.48,0.34 -0.77,0.15 -2.5,-1.58 -5.17,-2.84 -7.99,-3.78 -2.83,-0.95 -5.75,-1.42 -8.77,-1.42 -1.54,0 -2.97,0.18 -4.29,0.55 -1.32,0.37 -2.5,0.97 -3.56,1.81 -2.09,1.51 -3.13,3.81 -3.13,6.89 0,1.77 0.71,3.49 2.12,5.16 0.71,0.77 1.66,1.42 2.84,1.95 1.19,0.53 2.65,0.93 4.39,1.18 0.93,0.16 2.02,0.33 3.27,0.5 1.25,0.18 2.73,0.36 4.43,0.55 6.59,0.8 11.47,3.23 14.65,7.28 3.18,3.95 4.77,8.35 4.77,13.2 0,6.49 -2.26,11.56 -6.79,15.22 -4.56,3.6 -10.56,5.4 -18.01,5.4 -10.5,0 -19.43,-3.21 -26.78,-9.64 -0.13,-0.09 -0.19,-0.22 -0.19,-0.39 0,-0.16 0.05,-0.3 0.15,-0.43l6.93 -7.85zm66.44 17.73c-0.32,0 -0.51,-0.15 -0.58,-0.43l-17.3 -69.04c-0.06,-0.19 -0.03,-0.36 0.1,-0.5 0.13,-0.14 0.29,-0.22 0.48,-0.22l11.08 0c0.32,0 0.51,0.14 0.58,0.43l10.4 47.16c2.12,-7.9 4.26,-15.75 6.41,-23.56 2.15,-7.8 4.3,-15.67 6.46,-23.6 0.07,-0.29 0.26,-0.43 0.58,-0.43l7.56 0c0.29,0 0.47,0.14 0.53,0.43l12.91 47.16c1.74,-7.9 3.47,-15.75 5.2,-23.56 1.74,-7.8 3.47,-15.67 5.2,-23.6 0.06,-0.29 0.25,-0.43 0.57,-0.43l11.08 0c0.19,0 0.36,0.07 0.48,0.22 0.13,0.15 0.16,0.31 0.1,0.5l-17.29 69.04c-0.07,0.29 -0.26,0.43 -0.58,0.43l-8.72 0c-0.29,0 -0.47,-0.15 -0.53,-0.43l-12.77 -47.93c-2.12,8.06 -4.24,16.05 -6.36,23.99 -2.12,7.93 -4.24,15.91 -6.36,23.94 -0.07,0.29 -0.24,0.43 -0.53,0.43l-8.72 0zm61.39 -0.05c-0.23,0 -0.39,-0.08 -0.48,-0.24 -0.1,-0.16 -0.11,-0.34 -0.05,-0.53l25.24 -69.08c0.06,-0.26 0.22,-0.39 0.48,-0.39l8.63 0c0.1,0 0.2,0.04 0.31,0.12 0.11,0.08 0.18,0.17 0.22,0.27l25.2 69.08c0.06,0.19 0.05,0.37 -0.05,0.53 -0.1,0.16 -0.24,0.24 -0.43,0.24l-11.03 0c-0.26,0 -0.42,-0.13 -0.48,-0.39l-5.2 -15.22 -25.43 0c-0.9,2.6 -1.79,5.14 -2.67,7.63 -0.89,2.49 -1.78,5.02 -2.68,7.59 -0.03,0.1 -0.1,0.19 -0.22,0.27 -0.11,0.08 -0.22,0.12 -0.31,0.12l-11.03 0zm38.87 -25.97c-0.07,-0.22 -0.15,-0.46 -0.27,-0.72 -0.11,-0.26 -0.2,-0.48 -0.26,-0.68 -0.54,-1.57 -1.04,-3.03 -1.49,-4.36 -0.45,-1.33 -0.85,-2.5 -1.2,-3.49 -0.22,-0.64 -0.44,-1.27 -0.65,-1.88 -0.21,-0.61 -0.41,-1.19 -0.6,-1.74 -0.16,-0.51 -0.32,-1 -0.48,-1.47 -0.16,-0.47 -0.32,-0.92 -0.48,-1.37 -0.29,-0.93 -0.59,-1.86 -0.89,-2.79 -0.31,-0.93 -0.62,-1.9 -0.94,-2.9 -0.16,-0.45 -0.33,-0.94 -0.5,-1.49 -0.18,-0.54 -0.36,-1.12 -0.55,-1.73 -0.1,-0.32 -0.17,-0.57 -0.22,-0.75 -0.05,-0.18 -0.1,-0.35 -0.17,-0.53 -0.07,-0.17 -0.14,-0.37 -0.22,-0.6 -0.08,-0.23 -0.18,-0.54 -0.32,-0.96 -0.35,1.06 -0.68,2.04 -0.99,2.94 -0.31,0.9 -0.59,1.74 -0.85,2.51 -0.06,0.19 -0.11,0.37 -0.14,0.53 -0.03,0.16 -0.08,0.32 -0.15,0.48 -0.16,0.55 -0.33,1.06 -0.5,1.54 -0.18,0.48 -0.35,0.96 -0.51,1.44 -0.16,0.52 -0.32,1.01 -0.48,1.5 -0.16,0.48 -0.32,0.95 -0.48,1.4 -0.32,0.96 -0.65,1.97 -0.99,3.03 -0.34,1.06 -0.71,2.17 -1.13,3.33 -0.42,1.16 -0.85,2.4 -1.3,3.73 -0.45,1.33 -1.03,3.01 -1.73,5.03l18.5 0zm36.82 26.02c-0.35,0 -0.53,-0.19 -0.53,-0.58l0 -28.23c-3.47,-6.78 -6.92,-13.54 -10.35,-20.29 -3.44,-6.74 -6.87,-13.5 -10.31,-20.28 -0.1,-0.22 -0.1,-0.42 0,-0.58 0.1,-0.16 0.27,-0.24 0.53,-0.24l10.98 0c0.1,0 0.19,0.04 0.29,0.12 0.1,0.08 0.18,0.15 0.24,0.22l14.16 29.58c2.38,-4.98 4.73,-9.91 7.06,-14.79 2.33,-4.88 4.68,-9.81 7.06,-14.79 0.07,-0.07 0.15,-0.14 0.24,-0.22 0.09,-0.08 0.19,-0.12 0.29,-0.12l11.03 0c0.26,0 0.43,0.08 0.53,0.24 0.09,0.16 0.09,0.36 0,0.58l-20.72 40.57 0 28.23c0,0.39 -0.19,0.58 -0.57,0.58l-9.93 0z"/>
   <path class="fil7" d="M204.91 334.07c0.27,0 0.5,0.09 0.65,0.29 0.18,0.2 0.23,0.43 0.14,0.7 -1.85,8.98 -5.93,15.9 -12.29,20.75 -3.07,2.32 -6.43,4.08 -10.04,5.28 -3.61,1.19 -7.51,1.78 -11.71,1.78 -7.62,0 -14.03,-1.83 -19.22,-5.48 -5.12,-3.61 -8.82,-7.58 -11.09,-11.88 -0.81,-1.51 -1.49,-3.02 -2.05,-4.53 -0.59,-1.51 -1.01,-3.11 -1.33,-4.8 -0.56,-3.25 -0.86,-10.64 -0.86,-22.19 0,-5.77 0.07,-10.49 0.2,-14.14 0.14,-3.65 0.36,-6.31 0.65,-7.98 0.32,-1.69 0.75,-3.29 1.33,-4.83 0.56,-1.56 1.24,-3.07 2.05,-4.55 2.28,-4.29 5.98,-8.25 11.09,-11.91 5.14,-3.7 11.57,-5.55 19.22,-5.55 9.18,0 16.76,2.82 22.73,8.46 6.09,5.68 9.86,12.43 11.3,20.23 0.09,0.25 0.05,0.47 -0.14,0.65 -0.16,0.18 -0.38,0.27 -0.65,0.27l-15.13 0c-0.38,0 -0.63,-0.18 -0.72,-0.54 -0.59,-1.76 -1.4,-3.41 -2.46,-4.92 -1.04,-1.51 -2.35,-2.93 -3.88,-4.26 -2.91,-2.59 -6.59,-3.9 -11.05,-3.9 -3.29,0 -6.11,0.65 -8.46,1.99 -2.32,1.33 -4.2,2.84 -5.62,4.55 -0.83,1.06 -1.56,2.26 -2.17,3.61 -0.63,1.33 -1.1,2.71 -1.46,4.13 -0.34,1.49 -0.59,3.81 -0.72,6.95 -0.14,3.11 -0.2,7.04 -0.2,11.75 0,4.8 0.07,8.75 0.2,11.86 0.14,3.11 0.38,5.41 0.72,6.9 0.36,1.38 0.86,2.73 1.49,4.06 0.63,1.35 1.35,2.52 2.14,3.54 1.42,1.85 3.29,3.43 5.62,4.71 2.35,1.31 5.17,1.96 8.46,1.96 7.62,0 13.42,-4.17 17.39,-12.49 0.09,-0.09 0.2,-0.18 0.34,-0.29 0.11,-0.11 0.25,-0.16 0.38,-0.16l15.13 0z"/>
   <path id="_1" class="fil7" d="M232.6 362.08c-0.54,0 -0.81,-0.27 -0.81,-0.79l0 -81.15 -25.17 0c-0.52,0 -0.79,-0.27 -0.79,-0.79l0 -12.74c0,-0.54 0.27,-0.81 0.79,-0.81l66.22 0c0.52,0 0.79,0.27 0.79,0.81l0 12.74c0,0.52 -0.27,0.79 -0.79,0.79l-25.12 0 0 81.15c0,0.52 -0.25,0.79 -0.79,0.79l-14.32 0z"/>
   <path id="_2" class="fil7" d="M268.22 362.08c-0.52,0 -0.79,-0.27 -0.79,-0.79l0 -13.42c0,-0.52 0.27,-0.79 0.79,-0.79l13.49 0c0.47,0 0.72,0.27 0.72,0.79l0 13.42c0,0.52 -0.25,0.79 -0.72,0.79l-13.49 0z"/>
   <path id="_3" class="fil7" d="M335.85 294.28c0,-4.26 -1.13,-7.6 -3.38,-10.01 -2.28,-2.39 -5.3,-3.59 -9.09,-3.59 -3.79,0 -6.81,1.19 -9.07,3.59 -2.23,2.41 -3.36,5.75 -3.36,10.01l0 39.99c0,4.31 1.13,7.64 3.36,10.04 2.25,2.37 5.28,3.56 9.07,3.56 3.79,0 6.81,-1.19 9.09,-3.56 2.25,-2.39 3.38,-5.73 3.38,-10.04l0 -39.99zm-39.96 -0.79c0,-8.91 2.79,-15.74 8.39,-20.55 5.55,-4.89 11.91,-7.33 19.1,-7.33 3.56,0 6.95,0.61 10.13,1.87 3.2,1.26 6.18,3.07 8.95,5.46 2.8,2.46 4.89,5.41 6.31,8.82 1.44,3.41 2.14,7.33 2.14,11.73l0 41.57c0,8.84 -2.82,15.7 -8.46,20.55 -5.55,4.85 -11.91,7.26 -19.08,7.26 -7.2,0 -13.56,-2.41 -19.1,-7.26 -5.59,-4.8 -8.39,-11.66 -8.39,-20.55l0 -41.57z"/>
   <path id="_4" class="fil7" d="M360.84 362.08c-0.52,0 -0.79,-0.27 -0.79,-0.79l0 -12.9 37.01 -46.3 0 0.07c1.35,-1.71 2.23,-3.29 2.64,-4.73 0.39,-1.42 0.59,-2.82 0.59,-4.2 0,-3.04 -1.11,-5.91 -3.29,-8.59 -2.21,-2.64 -5.19,-3.95 -8.93,-3.95 -3.43,0 -6.41,1.15 -8.91,3.5 -1.24,1.15 -2.19,2.5 -2.82,4.06 -0.63,1.56 -1.04,3.34 -1.22,5.32 0,0.23 -0.09,0.38 -0.23,0.52 -0.16,0.14 -0.36,0.2 -0.56,0.2l-13.49 0c-0.52,0 -0.79,-0.27 -0.79,-0.79 0.09,-7.85 2.75,-14.43 7.98,-19.76 5.35,-5.41 11.68,-8.12 19.03,-8.12 7.98,0 14.68,2.73 20.16,8.19l-0.07 0c5.41,5.41 8.12,11.93 8.12,19.55 0,3.32 -0.47,6.36 -1.44,9.18 -0.97,2.82 -2.44,5.44 -4.37,7.87l0 -0.07c-2.5,3.18 -4.96,6.27 -7.4,9.31 -2.41,3.04 -4.85,6.07 -7.26,9.09 -2.44,3.02 -4.85,6.02 -7.26,9.04 -2.43,3.02 -4.89,6.11 -7.4,9.29l34.35 0c0.52,0 0.79,0.27 0.79,0.79l0 13.42c0,0.52 -0.27,0.79 -0.79,0.79l-53.65 0z"/>
   <path class="fil4" d="M680.16 200.89c-0.51,0 -0.77,-0.25 -0.77,-0.74l0 -76.56 -23.75 0c-0.49,0 -0.74,-0.26 -0.74,-0.75l0 -12.02c0,-0.51 0.26,-0.77 0.74,-0.77l62.47 0c0.49,0 0.75,0.26 0.75,0.77l0 12.02c0,0.49 -0.26,0.75 -0.75,0.75l-23.7 0 0 76.56c0,0.49 -0.23,0.74 -0.75,0.74l-13.51 0z"/>
   <path id="_1_0" class="fil4" d="M719.93 200.83c-0.3,0 -0.51,-0.11 -0.62,-0.32 -0.13,-0.19 -0.15,-0.42 -0.06,-0.68l32.66 -89.39c0.08,-0.34 0.28,-0.51 0.62,-0.51l11.15 0c0.13,0 0.28,0.06 0.43,0.17 0.13,0.11 0.23,0.21 0.28,0.34l32.6 89.39c0.09,0.26 0.06,0.49 -0.06,0.68 -0.13,0.21 -0.32,0.32 -0.55,0.32l-14.28 0c-0.34,0 -0.55,-0.17 -0.64,-0.49l-6.72 -19.7 -32.92 0c-1.17,3.36 -2.32,6.66 -3.45,9.87 -1.15,3.21 -2.3,6.49 -3.47,9.83 -0.04,0.11 -0.13,0.23 -0.28,0.34 -0.15,0.11 -0.28,0.15 -0.4,0.15l-14.28 0zm50.3 -33.6c-0.09,-0.3 -0.19,-0.59 -0.34,-0.94 -0.15,-0.34 -0.25,-0.62 -0.34,-0.87 -0.7,-2.04 -1.36,-3.92 -1.94,-5.64 -0.57,-1.72 -1.11,-3.23 -1.55,-4.53 -0.3,-0.83 -0.57,-1.64 -0.85,-2.43 -0.26,-0.79 -0.53,-1.53 -0.77,-2.23 -0.21,-0.68 -0.43,-1.3 -0.64,-1.92 -0.19,-0.6 -0.4,-1.19 -0.62,-1.77 -0.38,-1.21 -0.77,-2.43 -1.15,-3.62 -0.4,-1.21 -0.81,-2.45 -1.21,-3.75 -0.21,-0.58 -0.43,-1.21 -0.66,-1.94 -0.23,-0.7 -0.47,-1.45 -0.72,-2.24 -0.13,-0.43 -0.21,-0.74 -0.28,-0.98 -0.06,-0.21 -0.13,-0.45 -0.21,-0.68 -0.08,-0.23 -0.19,-0.49 -0.28,-0.77 -0.11,-0.3 -0.25,-0.72 -0.4,-1.25 -0.47,1.36 -0.89,2.64 -1.28,3.81 -0.41,1.15 -0.77,2.23 -1.11,3.23 -0.09,0.26 -0.15,0.47 -0.19,0.68 -0.02,0.21 -0.08,0.43 -0.17,0.64 -0.21,0.7 -0.42,1.36 -0.66,1.98 -0.23,0.64 -0.45,1.26 -0.66,1.87 -0.21,0.66 -0.4,1.32 -0.62,1.94 -0.21,0.62 -0.43,1.23 -0.62,1.81 -0.43,1.25 -0.85,2.55 -1.3,3.94 -0.42,1.36 -0.91,2.79 -1.45,4.3 -0.55,1.49 -1.11,3.11 -1.68,4.83 -0.6,1.73 -1.34,3.89 -2.26,6.51l23.94 0zm-34.35 -65.22c-0.38,0 -0.62,-0.15 -0.68,-0.49 -0.08,-0.34 0,-0.6 0.23,-0.81l18.34 -14.53 8.4 0 18.58 14.53c0.3,0.21 0.38,0.47 0.28,0.81 -0.08,0.34 -0.34,0.49 -0.7,0.49l-10.47 0 -12.47 -6.72c-1.83,1.13 -3.68,2.23 -5.55,3.36 -1.87,1.13 -3.72,2.26 -5.55,3.36l-10.41 0z"/>
   <path id="_2_1" class="fil4" d="M808.25 200.89c-0.49,0 -0.74,-0.25 -0.74,-0.74l0 -89.33c0,-0.51 0.26,-0.77 0.74,-0.77l12.83 0c0.26,0 0.47,0.13 0.64,0.38l39.26 61.84 0 -61.45c0,-0.51 0.25,-0.77 0.77,-0.77l13.58 0c0.51,0 0.74,0.26 0.74,0.77l0 89.33c0,0.49 -0.23,0.74 -0.74,0.74l-12.77 0c-0.25,0 -0.47,-0.13 -0.64,-0.38l-39.39 -61.83 0 61.47c0,0.49 -0.23,0.74 -0.68,0.74l-13.6 0z"/>
   <path id="_3_2" class="fil4" d="M975.14 200.89c-0.51,0 -0.77,-0.25 -0.77,-0.74l0 -38.28 -33.96 0 0 38.28c0,0.49 -0.25,0.74 -0.74,0.74l-13.53 0c-0.49,0 -0.74,-0.25 -0.74,-0.74l0 -89.33c0,-0.51 0.26,-0.77 0.74,-0.77l13.53 0c0.49,0 0.74,0.26 0.74,0.77l0 37.51 33.96 0 0 -37.51c0,-0.51 0.26,-0.77 0.77,-0.77l13.51 0c0.51,0 0.77,0.26 0.77,0.77l0 89.33c0,0.49 -0.26,0.74 -0.77,0.74l-13.51 0z"/>
   <path id="_4_3" class="fil4" d="M1000.08 200.83c-0.3,0 -0.51,-0.11 -0.62,-0.32 -0.13,-0.19 -0.15,-0.42 -0.06,-0.68l32.66 -89.39c0.08,-0.34 0.28,-0.51 0.62,-0.51l11.15 0c0.13,0 0.28,0.06 0.43,0.17 0.13,0.11 0.23,0.21 0.28,0.34l32.6 89.39c0.09,0.26 0.06,0.49 -0.06,0.68 -0.13,0.21 -0.32,0.32 -0.55,0.32l-14.28 0c-0.34,0 -0.55,-0.17 -0.64,-0.49l-6.72 -19.7 -32.92 0c-1.17,3.36 -2.32,6.66 -3.45,9.87 -1.15,3.21 -2.3,6.49 -3.47,9.83 -0.04,0.11 -0.13,0.23 -0.28,0.34 -0.15,0.11 -0.28,0.15 -0.4,0.15l-14.28 0zm50.3 -33.6c-0.09,-0.3 -0.19,-0.59 -0.34,-0.94 -0.15,-0.34 -0.25,-0.62 -0.34,-0.87 -0.7,-2.04 -1.36,-3.92 -1.94,-5.64 -0.57,-1.72 -1.11,-3.23 -1.55,-4.53 -0.3,-0.83 -0.57,-1.64 -0.85,-2.43 -0.26,-0.79 -0.53,-1.53 -0.77,-2.23 -0.21,-0.68 -0.43,-1.3 -0.64,-1.92 -0.19,-0.6 -0.4,-1.19 -0.62,-1.77 -0.38,-1.21 -0.77,-2.43 -1.15,-3.62 -0.4,-1.21 -0.81,-2.45 -1.21,-3.75 -0.21,-0.58 -0.43,-1.21 -0.66,-1.94 -0.23,-0.7 -0.47,-1.45 -0.72,-2.24 -0.13,-0.43 -0.21,-0.74 -0.28,-0.98 -0.06,-0.21 -0.13,-0.45 -0.21,-0.68 -0.08,-0.23 -0.19,-0.49 -0.28,-0.77 -0.11,-0.3 -0.25,-0.72 -0.4,-1.25 -0.47,1.36 -0.89,2.64 -1.28,3.81 -0.41,1.15 -0.77,2.23 -1.11,3.23 -0.09,0.26 -0.15,0.47 -0.19,0.68 -0.02,0.21 -0.08,0.43 -0.17,0.64 -0.21,0.7 -0.42,1.36 -0.66,1.98 -0.23,0.64 -0.45,1.26 -0.66,1.87 -0.21,0.66 -0.4,1.32 -0.62,1.94 -0.21,0.62 -0.43,1.23 -0.62,1.81 -0.43,1.25 -0.85,2.55 -1.3,3.94 -0.42,1.36 -0.91,2.79 -1.45,4.3 -0.55,1.49 -1.11,3.11 -1.68,4.83 -0.6,1.73 -1.34,3.89 -2.26,6.51l23.94 0zm-18.13 58.22c-0.47,0 -0.7,-0.23 -0.7,-0.68l0 -12.02c0,-0.47 0.24,-0.7 0.7,-0.7l12.09 0c0.4,0 0.62,0.23 0.62,0.7l0 12.02c0,0.45 -0.21,0.68 -0.62,0.68l-12.09 0z"/>
   <path id="_5" class="fil4" d="M1088.41 200.89c-0.49,0 -0.74,-0.25 -0.74,-0.74l0 -89.33c0,-0.51 0.26,-0.77 0.74,-0.77l12.83 0c0.26,0 0.47,0.13 0.64,0.38l39.26 61.84 0 -61.45c0,-0.51 0.25,-0.77 0.77,-0.77l13.58 0c0.51,0 0.74,0.26 0.74,0.77l0 89.33c0,0.49 -0.23,0.74 -0.74,0.74l-12.77 0c-0.25,0 -0.47,-0.13 -0.64,-0.38l-39.39 -61.83 0 61.47c0,0.49 -0.23,0.74 -0.68,0.74l-13.6 0z"/>
   <path id="_6" class="fil4" d="M1224.69 200.89c-0.51,0 -0.77,-0.25 -0.77,-0.74l0 -38.28 -33.96 0 0 38.28c0,0.49 -0.25,0.74 -0.74,0.74l-13.53 0c-0.49,0 -0.74,-0.25 -0.74,-0.74l0 -89.33c0,-0.51 0.26,-0.77 0.74,-0.77l13.53 0c0.49,0 0.74,0.26 0.74,0.77l0 37.51 33.96 0 0 -37.51c0,-0.51 0.26,-0.77 0.77,-0.77l13.51 0c0.51,0 0.77,0.26 0.77,0.77l0 89.33c0,0.49 -0.26,0.74 -0.77,0.74l-13.51 0z"/>
   <path class="fil4" d="M777.48 383.04c-0.51,0 -0.75,-0.25 -0.75,-0.74l0 -89.33c0,-0.51 0.23,-0.77 0.75,-0.77l12.77 0c0.3,0 0.53,0.15 0.7,0.45l24.98 56.66c4.04,-9.51 8.09,-18.96 12.17,-28.34 4.06,-9.36 8.15,-18.81 12.21,-28.32 0.13,-0.3 0.36,-0.45 0.68,-0.45l12.79 0c0.49,0 0.75,0.26 0.75,0.77l0 89.33c0,0.49 -0.26,0.74 -0.75,0.74l-13.53 0c-0.49,0 -0.75,-0.25 -0.75,-0.74l0 -52.75c-2.91,6.79 -5.85,13.51 -8.79,20.19 -2.96,6.7 -5.87,13.41 -8.72,20.15 -0.17,0.23 -0.4,0.36 -0.7,0.36l-11.28 0c-0.3,0 -0.51,-0.13 -0.68,-0.36l-17.58 -40.47 0 52.88c0,0.49 -0.25,0.74 -0.74,0.74l-13.53 0z"/>
   <path id="_1_4" class="fil4" d="M891.94 383.04c-0.47,0 -0.68,-0.25 -0.68,-0.74l0 -36.54c-4.49,-8.77 -8.96,-17.51 -13.41,-26.24 -4.45,-8.74 -8.89,-17.49 -13.34,-26.26 -0.13,-0.3 -0.13,-0.53 0,-0.75 0.13,-0.21 0.34,-0.32 0.68,-0.32l14.21 0c0.13,0 0.26,0.07 0.38,0.17 0.11,0.1 0.21,0.19 0.3,0.28l18.34 38.28c3.06,-6.45 6.11,-12.83 9.13,-19.15 3,-6.32 6.04,-12.68 9.13,-19.13 0.08,-0.09 0.19,-0.17 0.32,-0.28 0.11,-0.11 0.24,-0.17 0.36,-0.17l14.28 0c0.34,0 0.55,0.11 0.68,0.32 0.13,0.21 0.13,0.45 0,0.75l-26.79 52.49 0 36.54c0,0.49 -0.26,0.74 -0.77,0.74l-12.83 0zm-12.96 -100.63c-0.51,0 -0.72,-0.23 -0.64,-0.74 0.3,-2.02 0.81,-3.87 1.53,-5.55 0.72,-1.66 1.66,-3.13 2.77,-4.41 1.13,-1.17 2.45,-2.09 3.94,-2.72 1.49,-0.64 3.07,-0.96 4.75,-0.96 0.75,0 1.47,0.04 2.17,0.13 0.7,0.06 1.42,0.23 2.13,0.49 0.75,0.25 1.47,0.49 2.15,0.74 0.68,0.26 1.26,0.47 1.7,0.62 1.47,0.77 2.77,1.32 3.94,1.7 0.79,0.36 1.72,0.55 2.81,0.55 0.96,0 1.89,-0.3 2.81,-0.87 0.79,-0.55 1.34,-1.72 1.68,-3.55 0.09,-0.34 0.3,-0.51 0.68,-0.51l6.49 0c0.53,0 0.77,0.25 0.68,0.77 -0.26,1.79 -0.68,3.45 -1.32,5 -0.62,1.58 -1.41,3 -2.36,4.28 -1.04,1.34 -2.3,2.38 -3.81,3.15 -1.49,0.77 -3.21,1.17 -5.17,1.21 -0.74,0 -1.49,-0.06 -2.21,-0.19 -0.72,-0.13 -1.43,-0.32 -2.09,-0.62l0.07 0c-0.47,-0.08 -1.07,-0.25 -1.81,-0.53 -0.75,-0.28 -1.62,-0.6 -2.62,-0.96 -1.3,-0.6 -2.51,-1.04 -3.68,-1.38 -1.17,-0.32 -2.3,-0.51 -3.43,-0.55 -0.62,0 -1.45,0.3 -2.49,0.87l0.06 -0.06c-1.04,0.66 -1.58,1.83 -1.58,3.49 0,0.43 -0.19,0.62 -0.62,0.62l-6.53 0z"/>
   <path id="_2_5" class="fil4" d="M964.18 382.97c-0.3,0 -0.51,-0.11 -0.62,-0.32 -0.13,-0.19 -0.15,-0.42 -0.06,-0.68l32.66 -89.39c0.08,-0.34 0.28,-0.51 0.62,-0.51l11.15 0c0.13,0 0.28,0.06 0.43,0.17 0.13,0.11 0.23,0.21 0.28,0.34l32.6 89.39c0.09,0.26 0.06,0.49 -0.06,0.68 -0.13,0.21 -0.32,0.32 -0.55,0.32l-14.28 0c-0.34,0 -0.55,-0.17 -0.64,-0.49l-6.72 -19.7 -32.92 0c-1.17,3.36 -2.32,6.66 -3.45,9.87 -1.15,3.21 -2.3,6.49 -3.47,9.83 -0.04,0.11 -0.13,0.23 -0.28,0.34 -0.15,0.11 -0.28,0.15 -0.4,0.15l-14.28 0zm50.3 -33.6c-0.09,-0.3 -0.19,-0.59 -0.34,-0.94 -0.15,-0.34 -0.25,-0.62 -0.34,-0.87 -0.7,-2.04 -1.36,-3.92 -1.94,-5.64 -0.57,-1.72 -1.11,-3.23 -1.55,-4.53 -0.3,-0.83 -0.57,-1.64 -0.85,-2.43 -0.26,-0.79 -0.53,-1.53 -0.77,-2.23 -0.21,-0.68 -0.43,-1.3 -0.64,-1.92 -0.19,-0.6 -0.4,-1.19 -0.62,-1.77 -0.38,-1.21 -0.77,-2.43 -1.15,-3.62 -0.4,-1.21 -0.81,-2.45 -1.21,-3.75 -0.21,-0.58 -0.43,-1.21 -0.66,-1.94 -0.23,-0.7 -0.47,-1.45 -0.72,-2.24 -0.13,-0.43 -0.21,-0.74 -0.28,-0.98 -0.06,-0.21 -0.13,-0.45 -0.21,-0.68 -0.08,-0.23 -0.19,-0.49 -0.28,-0.77 -0.11,-0.3 -0.25,-0.72 -0.4,-1.25 -0.47,1.36 -0.89,2.64 -1.28,3.81 -0.41,1.15 -0.77,2.23 -1.11,3.23 -0.09,0.26 -0.15,0.47 -0.19,0.68 -0.02,0.21 -0.08,0.43 -0.17,0.64 -0.21,0.7 -0.42,1.36 -0.66,1.98 -0.23,0.64 -0.45,1.26 -0.66,1.87 -0.21,0.66 -0.4,1.32 -0.62,1.94 -0.21,0.62 -0.43,1.23 -0.62,1.81 -0.43,1.25 -0.85,2.55 -1.3,3.94 -0.42,1.36 -0.91,2.79 -1.45,4.3 -0.55,1.49 -1.11,3.11 -1.68,4.83 -0.6,1.73 -1.34,3.89 -2.26,6.51l23.94 0z"/>
   <path id="_3_6" class="fil4" d="M1052.51 383.04c-0.49,0 -0.74,-0.25 -0.74,-0.74l0 -89.33c0,-0.51 0.26,-0.77 0.74,-0.77l12.83 0c0.26,0 0.47,0.13 0.64,0.38l39.26 61.84 0 -61.45c0,-0.51 0.25,-0.77 0.77,-0.77l13.58 0c0.51,0 0.74,0.26 0.74,0.77l0 89.33c0,0.49 -0.23,0.74 -0.74,0.74l-12.77 0c-0.25,0 -0.47,-0.13 -0.64,-0.38l-39.39 -61.83 0 61.47c0,0.49 -0.23,0.74 -0.68,0.74l-13.6 0z"/>
   <path class="fil4" d="M1089.02 821.63c0.06,-6.02 1.11,-11.43 3.09,-16.16 2.01,-4.73 4.79,-8.8 8.43,-12.17 3.43,-3.15 7.29,-5.56 11.58,-7.29 4.26,-1.73 8.77,-2.59 13.47,-2.59 8.56,0 16.31,2.56 23.26,7.72 6.52,5.16 10.78,12.67 12.76,22.43 0.12,0.37 0.06,0.68 -0.19,0.9 -0.25,0.25 -0.52,0.37 -0.9,0.37l-18.56 0c-0.47,0 -0.8,-0.22 -0.99,-0.62 -2.72,-6.64 -7.88,-10.07 -15.48,-10.23 -10.9,0.28 -16.37,6.55 -16.37,18.81l0 10.69c3.92,-1.14 7.82,-2.07 11.71,-2.72 3.89,-0.68 7.6,-0.99 11.09,-0.93 8.47,0 15.69,2.96 21.72,8.9 5.81,6.09 8.68,15.45 8.62,28.14l0 11.74c-0.18,12.39 -3.86,21.81 -11.06,28.27 -6.77,6.39 -15.29,9.73 -25.61,10.04 -10.01,-0.31 -18.38,-3.61 -25.05,-9.95 -7.63,-6.64 -11.46,-16.06 -11.52,-28.27l0 -57.09zm20.11 56.01c0.06,12.39 5.56,18.63 16.47,18.75 10.69,-0.06 16.22,-6.3 16.65,-18.75l0 -10.59c-0.49,-12.23 -6.02,-18.47 -16.65,-18.72 -10.91,0.31 -16.4,6.55 -16.47,18.72l0 10.59z"/>
   <path id="_1_7" class="fil4" d="M1231.46 822.62c0,-5.84 -1.54,-10.41 -4.63,-13.72 -3.12,-3.27 -7.26,-4.91 -12.45,-4.91 -5.19,0 -9.33,1.64 -12.42,4.91 -3.06,3.31 -4.6,7.88 -4.6,13.72l0 54.77c0,5.9 1.54,10.47 4.6,13.75 3.09,3.24 7.23,4.88 12.42,4.88 5.19,0 9.33,-1.64 12.45,-4.88 3.09,-3.27 4.63,-7.85 4.63,-13.75l0 -54.77zm-54.74 -1.08c0,-12.2 3.83,-21.56 11.49,-28.14 7.6,-6.7 16.31,-10.04 26.16,-10.04 4.88,0 9.51,0.84 13.87,2.57 4.39,1.73 8.46,4.2 12.26,7.48 3.83,3.37 6.7,7.41 8.65,12.08 1.98,4.67 2.94,10.04 2.94,16.06l0 56.93c0,12.11 -3.86,21.5 -11.58,28.14 -7.6,6.64 -16.31,9.95 -26.14,9.95 -9.85,0 -18.56,-3.3 -26.16,-9.95 -7.66,-6.58 -11.49,-15.97 -11.49,-28.14l0 -56.93z"/>
   <path class="fil7" d="M502.45 912.32c-0.66,0 -1.01,-0.35 -1.01,-1.01l0 -100.43c-2.6,1.91 -5.19,3.84 -7.79,5.8 -2.57,1.93 -5.17,3.84 -7.76,5.71 -0.4,0.26 -0.78,0.32 -1.1,0.11 -0.35,-0.2 -0.52,-0.52 -0.52,-0.98l0 -18.35c0,-0.09 0.06,-0.23 0.14,-0.4 0.09,-0.17 0.17,-0.32 0.29,-0.43l17.39 -12.58 17.69 0c0.66,0 1.01,0.32 1.01,1.01l0 120.53c0,0.66 -0.35,1.01 -1.01,1.01l-17.34 0z"/>
   <path id="_1_8" class="fil7" d="M538.11 912.06c-0.66,0 -1.01,-0.35 -1.01,-1.01l0 -16.5 47.34 -59.23 0 0.09c1.73,-2.19 2.86,-4.21 3.38,-6.06 0.49,-1.82 0.75,-3.61 0.75,-5.37 0,-3.89 -1.41,-7.56 -4.21,-10.99 -2.83,-3.37 -6.63,-5.05 -11.42,-5.05 -4.38,0 -8.19,1.47 -11.4,4.47 -1.59,1.47 -2.8,3.2 -3.61,5.19 -0.81,1.99 -1.33,4.27 -1.56,6.81 0,0.29 -0.11,0.49 -0.29,0.66 -0.2,0.17 -0.46,0.26 -0.72,0.26l-17.25 0c-0.66,0 -1.01,-0.35 -1.01,-1.01 0.11,-10.04 3.52,-18.46 10.21,-25.27 6.84,-6.92 14.94,-10.39 24.35,-10.39 10.21,0 18.78,3.49 25.79,10.47l-0.09 0c6.93,6.92 10.39,15.26 10.39,25.01 0,4.24 -0.61,8.14 -1.85,11.74 -1.24,3.61 -3.11,6.95 -5.6,10.07l0 -0.09c-3.2,4.07 -6.35,8.02 -9.46,11.92 -3.09,3.89 -6.2,7.76 -9.29,11.63 -3.11,3.87 -6.2,7.7 -9.29,11.57 -3.11,3.87 -6.26,7.82 -9.46,11.89l43.94 0c0.66,0 1.01,0.35 1.01,1.01l0 17.17c0,0.66 -0.35,1.01 -1.01,1.01l-68.63 0z"/>
   <path id="_2_9" class="fil7" d="M672.31 825.34c0,-5.45 -1.44,-9.72 -4.33,-12.81 -2.92,-3.06 -6.78,-4.59 -11.63,-4.59 -4.85,0 -8.71,1.53 -11.6,4.59 -2.86,3.09 -4.3,7.36 -4.3,12.81l0 51.15c0,5.51 1.44,9.78 4.3,12.84 2.88,3.03 6.75,4.56 11.6,4.56 4.85,0 8.71,-1.53 11.63,-4.56 2.88,-3.06 4.33,-7.33 4.33,-12.84l0 -51.15zm-51.12 -1.01c0,-11.4 3.58,-20.14 10.73,-26.28 7.1,-6.26 15.23,-9.38 24.43,-9.38 4.56,0 8.89,0.78 12.95,2.4 4.1,1.61 7.9,3.92 11.45,6.98 3.58,3.15 6.26,6.93 8.08,11.28 1.85,4.36 2.74,9.38 2.74,15l0 53.17c0,11.31 -3.61,20.08 -10.82,26.28 -7.1,6.2 -15.23,9.29 -24.41,9.29 -9.2,0 -17.34,-3.09 -24.43,-9.29 -7.15,-6.14 -10.73,-14.92 -10.73,-26.28l0 -53.17z"/>
  </g>
 </g>
</svg>
