<?xml version="1.0" encoding="utf-8"?>
<svg viewBox="0 0 323.149 230.661" xmlns="http://www.w3.org/2000/svg">
  <g id="layer1" transform="matrix(0.9999999999999999, 0, 0, 0.9999999999999999, -303.4596862792969, -22.960700988769517)">
    <path id="rect15575" style="opacity: 1; fill: rgb(10, 150, 70); fill-opacity: 1; fill-rule: evenodd; stroke-width: 0.0420687; stroke-linecap: square; stroke-miterlimit: 10; paint-order: stroke;" d="M 303.46 22.961 L 626.609 22.961 L 626.609 253.622 L 303.46 253.622 L 303.46 22.961 Z"/>
    <path d="m 30.353516,5.0117188 c -13.808655,0 -25.0781254,11.2674112 -25.0781254,25.0761722 v 332.957029 47.1211 49.04296 13.88672 252.45508 c 0,13.80862 11.2694704,25.06641 25.0781254,25.06641 H 1190.9805 c 13.8086,0 25.0781,-11.25779 25.0781,-25.06641 V 473.0957 459.57031 401.94727 363.04492 30.087891 c 0,-13.808761 -11.2695,-25.0761722 -25.0781,-25.0761722 z m 0,9.4511722 H 1190.9805 c 8.7398,0 15.6425,6.885058 15.6425,15.625 v 332.957029 38.90235 c 0,0.29959 -0.013,0.61475 -0.037,0.9375 v 7.20703 c 0,8.68754 -6.9941,15.68164 -15.6816,15.68164 h -8.0762 c -0.1869,0.007 -0.3766,0.0176 -0.5586,0.0176 H 38.023438 c -0.18105,0 -0.371847,-0.0102 -0.560547,-0.0176 h -7.097657 c -8.687546,0 -15.68164,-6.9941 -15.68164,-15.68164 V 30.152344 c 0,-1.658433 0.257595,-3.253829 0.730468,-4.751953 0.01365,-0.04461 0.03284,-0.08643 0.04688,-0.13086 1.99686,-6.321925 7.84094,-10.80664 14.892578,-10.80664 z M 30.28125,435.30469 h 6.958984 1145.628866 8.1172 c 8.6414,0 15.5996,6.95633 15.5996,15.59765 v 7.5918 c 0.024,0.37296 0.037,0.7339 0.037,1.07617 v 13.52539 252.45508 c 0,5.47634 -2.7106,10.22208 -6.8847,13.00391 -2.4923,1.6862 -5.5034,2.66992 -8.752,2.66992 H 30.28125 c -8.641361,0 -15.597656,-6.9563 -15.597656,-15.59766 V 450.90234 c 0,-8.64132 6.956295,-15.59765 15.597656,-15.59765 z" style="color: rgb(0, 0, 0); font-style: normal; font-weight: normal; font-stretch: normal; font-size: medium; line-height: normal; font-family: sans-serif; font-variant: normal; font-feature-settings: normal; font-variation-settings: normal; text-indent: 0px; text-align: start; text-decoration: none solid rgb(0, 0, 0); letter-spacing: normal; word-spacing: normal; text-transform: none; writing-mode: lr-tb; direction: ltr; text-orientation: mixed; dominant-baseline: auto; baseline-shift: baseline; text-anchor: start; white-space: normal; shape-margin: 0px; inline-size: 0px; clip-rule: nonzero; display: inline; overflow: visible; opacity: 1; isolation: auto; mix-blend-mode: normal; color-interpolation: srgb; color-interpolation-filters: linearrgb; vector-effect: none; fill: rgb(255, 255, 255); fill-opacity: 1; fill-rule: evenodd; stroke: none; stroke-width: 2.09199; stroke-linecap: square; stroke-linejoin: miter; stroke-miterlimit: 10; stroke-dasharray: none; stroke-dashoffset: 0; stroke-opacity: 1; paint-order: stroke; color-rendering: auto; image-rendering: auto; shape-rendering: auto; text-rendering: auto; stop-color: rgb(0, 0, 0); stop-opacity: 1; visibility: hidden;" id="path15582" transform="matrix(0.26458333,0,0,0.26458333,303.45966,22.960701)"/>
    <path d="M 324.12 79.034 L 385.014 79.034 L 385.014 106.856 L 324.12 106.856 L 324.12 79.034 Z" style="opacity:1;fill:#ffd70f;fill-opacity:1;fill-rule:evenodd;stroke:none;stroke-width:0.553508;stroke-linecap:square;stroke-miterlimit:10;stroke-dasharray:none;stroke-opacity:1;paint-order:stroke fill markers" id="rect15605"/>
    <path id="path15631" d="M 326.183 79.6 C 325.372 79.6 324.708 80.261 324.708 81.072 L 324.708 104.818 C 324.708 105.629 325.372 106.289 326.183 106.289 L 382.973 106.289 C 383.784 106.289 384.448 105.629 384.448 104.818 L 384.448 81.072 C 384.448 80.261 383.784 79.6 382.973 79.6 L 326.183 79.6 Z M 326.183 80.135 L 382.973 80.135 C 383.496 80.135 383.91 80.549 383.91 81.072 L 383.91 104.818 C 383.91 105.341 383.496 105.751 382.973 105.751 L 326.183 105.751 C 325.66 105.751 325.246 105.341 325.246 104.818 L 325.246 81.072 C 325.246 80.549 325.66 80.135 326.183 80.135 Z" style="color: rgb(0, 0, 0); font-style: normal; font-weight: normal; font-stretch: normal; font-size: medium; line-height: normal; font-family: sans-serif; font-variant: normal; font-feature-settings: normal; font-variation-settings: normal; text-indent: 0px; text-align: start; text-decoration: none solid rgb(0, 0, 0); letter-spacing: normal; word-spacing: normal; text-transform: none; writing-mode: lr-tb; direction: ltr; text-orientation: mixed; dominant-baseline: auto; baseline-shift: baseline; text-anchor: start; white-space: normal; shape-margin: 0px; inline-size: 0px; clip-rule: nonzero; display: inline; overflow: visible; opacity: 1; isolation: auto; mix-blend-mode: normal; color-interpolation: srgb; color-interpolation-filters: linearrgb; vector-effect: none; fill: rgb(0, 0, 0); fill-opacity: 1; fill-rule: evenodd; stroke: none; stroke-width: 0.119062; stroke-linecap: square; stroke-linejoin: miter; stroke-miterlimit: 10; stroke-dasharray: none; stroke-dashoffset: 0; stroke-opacity: 1; paint-order: stroke; color-rendering: auto; image-rendering: auto; shape-rendering: auto; text-rendering: auto; stop-color: rgb(0, 0, 0); stop-opacity: 1;"/>
    <path id="path17496" style="font-size:15.1831px;line-height:1.46;font-family:'Singapore Road Signs';-inkscape-font-specification:'Singapore Road Signs';text-align:center;text-anchor:middle;opacity:1;fill:#ffffff;fill-opacity:1;stroke-width:0.0756548" d="M 570.475 70.961 L 570.475 121.575 L 605.91 121.575 L 605.91 70.961 L 570.475 70.961 Z M 571.857 72.621 L 604.509 72.621 L 604.509 120.187 L 571.857 120.187 L 571.857 72.621 Z M 585.525 76.268 L 583.29 85.137 L 587.212 85.137 L 587.494 76.268 L 585.525 76.268 Z M 588.878 76.268 L 589.16 85.137 L 593.084 85.137 L 590.847 76.268 L 588.878 76.268 Z M 572.969 86.26 L 572.969 88.202 L 576.036 89.31 L 576.036 89.895 L 577.447 89.895 L 577.447 89.31 C 577.447 89.31 579.533 88.997 581.973 88.775 C 583.926 88.597 586.104 88.503 587.617 88.497 C 589.415 88.491 592.075 88.59 594.356 88.785 C 596.87 89 598.928 89.31 598.928 89.31 L 598.928 89.895 L 600.31 89.895 L 600.31 89.31 L 603.376 88.202 L 603.376 86.26 L 572.969 86.26 Z M 582.18 89.881 L 575.476 116.562 L 585.525 116.562 L 586.919 89.881 L 582.18 89.881 Z M 589.436 89.881 L 590.831 116.562 L 600.88 116.562 L 594.176 89.881 L 589.436 89.881 Z"/>
    <g style="font-size:14.7905px;line-height:0;font-family:'Singapore Road Signs';-inkscape-font-specification:'Singapore Road Signs';text-align:center;text-anchor:middle;opacity:1;fill:#860000;fill-opacity:1;stroke-width:6.45213" id="layer1-8" transform="matrix(0.08718, 0, 0, 0.08718, -145.220476, 226.325763)">
      <circle style="opacity:1;fill:#f00a0a;fill-opacity:1;fill-rule:nonzero;stroke:none;stroke-width:3622.55;stroke-linecap:round;stroke-linejoin:round;stroke-miterlimit:4;stroke-dasharray:none;stroke-opacity:1;paint-order:stroke fill markers" id="path815" cx="6380.9966" cy="-193.29752" r="350"/>
      <circle cy="-193.29752" cx="6380.9966" id="circle817" style="opacity:1;fill:#ffffff;fill-opacity:1;fill-rule:nonzero;stroke:none;stroke-width:2587.55;stroke-linecap:round;stroke-linejoin:round;stroke-miterlimit:4;stroke-dasharray:none;stroke-opacity:1;paint-order:stroke fill markers" r="250"/>
      <g aria-label="20 " style="font-style:normal;font-variant:normal;font-weight:bold;font-stretch:normal;font-size:414.864px;line-height:0;font-family:Giaothong1;-inkscape-font-specification:'Giaothong1 Bold';letter-spacing:0px;word-spacing:0px;fill:#000000;fill-opacity:1;stroke:none;stroke-width:24.7849" id="text874" transform="matrix(-1,0,0,1,1299.029,-383.45)">
        <g aria-label="90" transform="translate(2310.2259,387.54849)" style="font-style:normal;font-variant:normal;font-weight:bold;font-stretch:normal;font-size:414.864px;line-height:0;font-family:Giaothong1;-inkscape-font-specification:'Giaothong1 Bold';letter-spacing:0px;word-spacing:0px;fill:#000000;fill-opacity:1;stroke:none;stroke-width:53.5539" id="text844"/>
      </g>
    </g>
    <g style="font-size:14.7905px;line-height:0;font-family:'Singapore Road Signs';-inkscape-font-specification:'Singapore Road Signs';text-align:center;text-anchor:middle;opacity:1;fill:#fff000;fill-opacity:1;stroke-width:6.45221" id="layer1-7" transform="matrix(0.08718, 0, 0, 0.08718, 488.778419, 214.181293)">
      <circle cy="-54" cx="351" id="circle817-6" style="opacity:1;fill:#0046aa;fill-opacity:1;fill-rule:nonzero;stroke:none;stroke-width:3622.58;stroke-linecap:round;stroke-linejoin:round;stroke-miterlimit:4;stroke-dasharray:none;stroke-opacity:1;paint-order:stroke fill markers" r="350"/>
      <path id="rect984" style="font-style:normal;font-variant:normal;font-weight:bold;font-stretch:normal;font-size:414.864px;line-height:0;font-family:Giaothong1;-inkscape-font-specification:'Giaothong1 Bold';letter-spacing:0px;word-spacing:0px;opacity:1;fill:#ffffff;fill-opacity:1;fill-rule:nonzero;stroke:none;stroke-width:0.344279;stroke-linecap:round;stroke-linejoin:miter;stroke-miterlimit:10;stroke-dasharray:none;stroke-opacity:1;paint-order:stroke fill markers" d="m 851.18164,518.03906 c -16.32678,0 -29.4707,13.14393 -29.4707,29.47071 v 80.94921 c 0,16.32678 13.14392,29.47071 29.4707,29.47071 16.32678,0 29.4707,-13.14393 29.4707,-29.47071 v -80.94921 c 0,-16.32678 -13.14392,-29.47071 -29.4707,-29.47071 z m -69.94336,1.23828 -26.10937,69.75391 c -2.72781,7.40406 -3.70118,11.30112 -3.70118,28.44727 0,18.12042 0.7789,22.01697 4.67579,28.25195 5.26075,8.37828 14.22308,13.44336 24.93945,13.44336 10.91123,0 20.0688,-4.87023 25.13476,-13.44336 3.70197,-6.23498 4.48047,-10.13153 4.48047,-28.25195 0,-22.01726 -0.77798,-26.88814 -4.28515,-32.34375 -3.31232,-5.06591 -9.74347,-8.96289 -16.75782,-8.96289 -4.28653,0 -7.01308,0.77773 -8.37695,1.75195 l -0.39062,-0.38867 22.60156,-58.25782 z m 69.94336,18.74024 c 5.25853,0 9.49219,4.23365 9.49219,9.49219 v 80.94921 c 0,5.25853 -4.23366,9.49219 -9.49219,9.49219 -5.25853,0 -9.49219,-4.23366 -9.49219,-9.49219 v -80.94921 c 0,-5.25854 4.23366,-9.49219 9.49219,-9.49219 z m -70.13867,55.68945 c 5.0659,0 9.74219,3.89738 9.74219,9.9375 v 25.71875 c 0,6.04012 -4.67629,9.9375 -9.74219,9.9375 -5.0659,0 -9.74219,-3.89738 -9.74219,-9.9375 v -25.71875 c 0,-6.04012 4.67629,-9.9375 9.74219,-9.9375 z" transform="matrix(3.0349198,0,0,3.0349198,-2125.7104,-1839.7056)"/>
    </g>
    <g aria-label="6" id="text19759" style="font-size:31.1478px;line-height:1.3;font-family:'Singapore Road Signs';-inkscape-font-specification:'Singapore Road Signs';text-align:center;text-anchor:middle;stroke-width:0.159861" transform="matrix(1.6550836,0,0,1.6550836,-321.31659,-238.56049)"/>
    <path d="M 383.12 46.797 Q 383.014 46.797 383.014 46.691 L 383.014 35.898 L 379.666 35.898 Q 379.56 35.898 379.56 35.793 L 379.56 34.097 Q 379.56 33.991 379.666 33.991 L 388.473 33.991 Q 388.578 33.991 388.578 34.097 L 388.578 35.793 Q 388.578 35.898 388.473 35.898 L 385.133 35.898 L 385.133 46.691 Q 385.133 46.797 385.027 46.797 Z M 391.976 36.013 L 391.976 39.862 L 394.71 39.862 Q 395.72 39.862 396.213 39.256 Q 396.714 38.667 396.714 37.937 Q 396.714 36.848 395.94 36.347 Q 395.439 36.013 394.639 36.013 Z M 389.964 46.797 Q 389.858 46.797 389.858 46.691 L 389.858 34.097 Q 389.858 33.991 389.964 33.991 L 394.534 33.991 Q 395.29 33.991 395.967 34.149 Q 396.652 34.308 397.426 34.905 Q 397.724 35.142 397.975 35.455 Q 398.225 35.767 398.428 36.144 Q 398.621 36.531 398.726 36.997 Q 398.832 37.463 398.832 37.99 Q 398.832 39.37 397.795 40.627 Q 396.758 41.875 394.78 41.875 L 391.976 41.875 L 391.976 46.691 Q 391.976 46.797 391.871 46.797 Z M 399.181 46.797 Q 399.076 46.797 399.076 46.691 L 399.076 44.907 Q 399.076 44.802 399.181 44.802 L 400.974 44.802 Q 401.071 44.802 401.071 44.907 L 401.071 46.691 Q 401.071 46.797 400.974 46.797 Z M 413.528 46.797 Q 413.422 46.797 413.422 46.691 L 413.422 41.295 L 408.632 41.295 L 408.632 46.691 Q 408.632 46.797 408.527 46.797 L 406.619 46.797 Q 406.514 46.797 406.514 46.691 L 406.514 34.097 Q 406.514 33.991 406.619 33.991 L 408.527 33.991 Q 408.632 33.991 408.632 34.097 L 408.632 39.388 L 413.422 39.388 L 413.422 34.097 Q 413.422 33.991 413.528 33.991 L 415.435 33.991 Q 415.54 33.991 415.54 34.097 L 415.54 46.691 Q 415.54 46.797 415.435 46.797 Z M 426.774 43.07 Q 426.826 43.07 426.861 43.11 Q 426.897 43.149 426.879 43.202 Q 426.51 44.995 425.244 45.962 Q 424.629 46.428 423.908 46.665 Q 423.188 46.902 422.353 46.902 Q 420.832 46.902 419.795 46.173 Q 418.775 45.452 418.318 44.591 Q 418.16 44.292 418.046 43.989 Q 417.932 43.685 417.87 43.351 Q 417.756 42.701 417.756 40.398 Q 417.756 39.247 417.782 38.517 Q 417.809 37.788 417.87 37.454 Q 417.932 37.12 418.046 36.812 Q 418.16 36.505 418.318 36.206 Q 418.775 35.353 419.795 34.624 Q 420.823 33.886 422.353 33.886 Q 424.181 33.886 425.376 35.011 Q 426.589 36.144 426.879 37.7 Q 426.897 37.753 426.861 37.788 Q 426.826 37.823 426.774 37.823 L 424.761 37.823 Q 424.682 37.823 424.664 37.753 Q 424.55 37.401 424.339 37.098 Q 424.128 36.795 423.82 36.531 Q 423.24 36.013 422.353 36.013 Q 421.693 36.013 421.228 36.276 Q 420.762 36.54 420.481 36.883 Q 420.314 37.094 420.191 37.362 Q 420.067 37.63 419.997 37.911 Q 419.927 38.21 419.9 38.834 Q 419.874 39.458 419.874 40.398 Q 419.874 41.356 419.9 41.976 Q 419.927 42.596 419.997 42.894 Q 420.067 43.167 420.195 43.435 Q 420.322 43.703 420.481 43.905 Q 420.762 44.274 421.228 44.534 Q 421.693 44.793 422.353 44.793 Q 423.873 44.793 424.664 43.132 Q 424.682 43.114 424.708 43.092 Q 424.734 43.07 424.761 43.07 Z M 428.293 46.797 Q 428.188 46.797 428.188 46.691 L 428.188 34.097 Q 428.188 33.991 428.293 33.991 L 430.095 33.991 Q 430.156 33.991 430.192 34.053 L 433.716 42.042 Q 434.569 40.029 435.43 38.047 Q 436.291 36.065 437.153 34.053 Q 437.179 33.991 437.249 33.991 L 439.051 33.991 Q 439.156 33.991 439.156 34.097 L 439.156 46.691 Q 439.156 46.797 439.051 46.797 L 437.144 46.797 Q 437.038 46.797 437.038 46.691 L 437.038 39.256 Q 436.423 40.688 435.799 42.103 Q 435.175 43.518 434.569 44.942 Q 434.533 44.995 434.472 44.995 L 432.881 44.995 Q 432.82 44.995 432.784 44.942 L 430.306 39.238 L 430.306 46.691 Q 430.306 46.797 430.2 46.797 Z" transform="matrix(1.310387, 0, 0, 1.310387, -59.698296, -2.610829)" style="fill: rgb(255, 255, 255);"/>
    <path transform="matrix(1.310387, 0, 0, 1.310387, -59.698296, -2.610829)" style="fill: rgb(255, 255, 255);"/>
    <path d="M 359.218 70.197 Q 359.112 70.197 359.112 70.091 L 359.112 57.497 Q 359.112 57.391 359.218 57.391 L 361.125 57.391 Q 361.231 57.391 361.231 57.497 L 361.231 68.193 L 367.269 68.193 Q 367.374 68.193 367.374 68.298 L 367.374 70.091 Q 367.374 70.197 367.269 70.197 Z M 368.692 63.798 Q 368.692 62.647 368.722 61.917 Q 368.753 61.188 368.806 60.854 Q 368.867 60.52 368.982 60.212 Q 369.096 59.905 369.263 59.606 L 369.254 59.606 Q 369.711 58.753 370.731 58.024 Q 371.759 57.286 373.288 57.286 Q 374.8 57.286 375.828 58.024 Q 376.865 58.771 377.322 59.606 Q 377.648 60.204 377.762 60.854 Q 377.823 61.188 377.854 61.917 Q 377.885 62.647 377.885 63.798 Q 377.885 66.057 377.762 66.751 Q 377.7 67.094 377.591 67.402 Q 377.481 67.709 377.331 67.991 Q 376.865 68.834 375.828 69.573 Q 374.791 70.302 373.288 70.302 Q 371.768 70.302 370.731 69.573 Q 369.711 68.852 369.254 67.991 L 369.263 67.991 Q 369.096 67.692 368.982 67.389 Q 368.867 67.085 368.806 66.751 Q 368.753 66.417 368.722 65.684 Q 368.692 64.95 368.692 63.798 Z M 370.81 63.798 Q 370.81 64.756 370.836 65.376 Q 370.862 65.996 370.933 66.294 Q 371.003 66.567 371.131 66.835 Q 371.258 67.103 371.416 67.305 Q 371.697 67.674 372.163 67.934 Q 372.629 68.193 373.288 68.193 Q 373.939 68.193 374.404 67.934 Q 374.87 67.674 375.143 67.305 Q 375.512 66.857 375.626 66.294 Q 375.767 65.732 375.767 63.798 Q 375.767 62.84 375.732 62.221 Q 375.696 61.601 375.626 61.311 Q 375.565 61.03 375.442 60.762 Q 375.319 60.494 375.152 60.283 Q 375.02 60.116 374.831 59.958 Q 374.642 59.799 374.404 59.681 Q 374.167 59.562 373.886 59.487 Q 373.605 59.413 373.288 59.413 Q 372.629 59.413 372.163 59.676 Q 371.697 59.94 371.416 60.283 Q 371.249 60.494 371.126 60.762 Q 371.003 61.03 370.933 61.311 Q 370.862 61.61 370.836 62.234 Q 370.81 62.858 370.81 63.798 Z M 380.196 70.197 Q 380.091 70.197 380.091 70.091 L 380.091 57.497 Q 380.091 57.391 380.196 57.391 L 382.007 57.391 Q 382.059 57.391 382.095 57.444 L 387.632 66.163 L 387.632 57.497 Q 387.632 57.391 387.737 57.391 L 389.653 57.391 Q 389.759 57.391 389.759 57.497 L 389.759 70.091 Q 389.759 70.197 389.653 70.197 L 387.851 70.197 Q 387.799 70.197 387.763 70.144 L 382.209 61.425 L 382.209 70.091 Q 382.209 70.197 382.112 70.197 Z M 396.585 65.073 Q 396.479 65.073 396.479 64.967 L 396.479 63.157 Q 396.479 63.06 396.585 63.06 L 401.058 63.06 Q 401.164 63.06 401.164 63.157 L 401.164 65.723 Q 401.164 67.666 399.828 68.975 Q 398.474 70.302 396.567 70.302 Q 395.047 70.302 394.01 69.573 Q 392.99 68.852 392.533 67.991 L 392.542 67.991 Q 392.375 67.692 392.261 67.389 Q 392.146 67.085 392.085 66.751 Q 392.032 66.417 392.001 65.684 Q 391.971 64.95 391.971 63.798 Q 391.971 62.647 392.001 61.917 Q 392.032 61.188 392.085 60.854 Q 392.146 60.52 392.261 60.212 Q 392.375 59.905 392.542 59.606 L 392.533 59.606 Q 392.99 58.753 394.01 58.024 Q 395.038 57.286 396.567 57.286 Q 398.395 57.286 399.591 58.411 Q 400.804 59.536 401.094 61.1 Q 401.111 61.153 401.076 61.188 Q 401.041 61.223 400.988 61.223 L 398.975 61.223 Q 398.896 61.223 398.879 61.153 Q 398.765 60.801 398.554 60.498 Q 398.343 60.195 398.035 59.931 Q 397.455 59.413 396.567 59.413 Q 395.908 59.413 395.442 59.676 Q 394.976 59.94 394.695 60.283 Q 394.528 60.494 394.405 60.762 Q 394.282 61.03 394.212 61.311 Q 394.141 61.61 394.115 62.234 Q 394.089 62.858 394.089 63.798 Q 394.089 64.756 394.115 65.376 Q 394.141 65.996 394.212 66.294 Q 394.282 66.567 394.41 66.835 Q 394.537 67.103 394.695 67.305 Q 394.976 67.674 395.442 67.934 Q 395.908 68.193 396.567 68.193 Q 397.613 68.193 398.325 67.481 Q 399.046 66.769 399.046 65.618 L 399.046 65.073 Z M 409.962 70.197 Q 409.856 70.197 409.856 70.091 L 409.856 59.298 L 406.507 59.298 Q 406.402 59.298 406.402 59.193 L 406.402 57.497 Q 406.402 57.391 406.507 57.391 L 415.314 57.391 Q 415.42 57.391 415.42 57.497 L 415.42 59.193 Q 415.42 59.298 415.314 59.298 L 411.974 59.298 L 411.974 70.091 Q 411.974 70.197 411.869 70.197 Z M 423.717 70.197 Q 423.611 70.197 423.611 70.091 L 423.611 64.695 L 418.821 64.695 L 418.821 70.091 Q 418.821 70.197 418.716 70.197 L 416.809 70.197 Q 416.703 70.197 416.703 70.091 L 416.703 57.497 Q 416.703 57.391 416.809 57.391 L 418.716 57.391 Q 418.821 57.391 418.821 57.497 L 418.821 62.788 L 423.611 62.788 L 423.611 57.497 Q 423.611 57.391 423.717 57.391 L 425.624 57.391 Q 425.73 57.391 425.73 57.497 L 425.73 70.091 Q 425.73 70.197 425.624 70.197 Z M 427.233 70.188 Q 427.172 70.188 427.146 70.144 Q 427.119 70.1 427.137 70.047 L 431.742 57.444 Q 431.76 57.374 431.83 57.374 L 433.403 57.374 Q 433.43 57.374 433.46 57.396 Q 433.491 57.417 433.5 57.444 L 438.097 70.047 Q 438.114 70.1 438.088 70.144 Q 438.062 70.188 438.009 70.188 L 435.996 70.188 Q 435.926 70.188 435.908 70.118 L 434.959 67.34 L 430.318 67.34 Q 430.072 68.052 429.831 68.733 Q 429.589 69.415 429.343 70.118 Q 429.334 70.144 429.303 70.166 Q 429.272 70.188 429.246 70.188 Z M 434.326 65.451 Q 434.309 65.389 434.278 65.319 Q 434.247 65.249 434.229 65.196 Q 434.08 64.765 433.957 64.4 Q 433.834 64.036 433.737 63.763 Q 433.676 63.587 433.619 63.42 Q 433.562 63.253 433.509 63.104 Q 433.465 62.963 433.421 62.836 Q 433.377 62.709 433.333 62.585 Q 433.254 62.331 433.17 62.076 Q 433.087 61.821 432.999 61.548 Q 432.955 61.425 432.907 61.276 Q 432.858 61.126 432.806 60.959 Q 432.779 60.872 432.766 60.823 Q 432.753 60.775 432.735 60.727 Q 432.718 60.678 432.696 60.617 Q 432.674 60.555 432.639 60.441 Q 432.542 60.731 432.458 60.977 Q 432.375 61.223 432.305 61.434 Q 432.287 61.487 432.278 61.531 Q 432.27 61.575 432.252 61.619 Q 432.208 61.768 432.16 61.9 Q 432.111 62.032 432.067 62.164 Q 432.023 62.304 431.979 62.436 Q 431.936 62.568 431.892 62.691 Q 431.804 62.955 431.711 63.245 Q 431.619 63.535 431.505 63.851 Q 431.391 64.167 431.268 64.532 Q 431.145 64.897 430.951 65.451 Z M 433.166 56.257 Q 433.148 56.257 433.122 56.244 Q 433.096 56.231 433.087 56.222 L 430.661 53.656 Q 430.608 53.603 430.639 53.542 Q 430.67 53.48 430.74 53.48 L 432.674 53.48 Q 432.727 53.48 432.762 53.533 L 434.599 56.099 Q 434.625 56.161 434.603 56.209 Q 434.581 56.257 434.511 56.257 Z M 439.687 70.197 Q 439.581 70.197 439.581 70.091 L 439.581 57.497 Q 439.581 57.391 439.687 57.391 L 441.497 57.391 Q 441.55 57.391 441.585 57.444 L 447.122 66.163 L 447.122 57.497 Q 447.122 57.391 447.228 57.391 L 449.144 57.391 Q 449.249 57.391 449.249 57.497 L 449.249 70.091 Q 449.249 70.197 449.144 70.197 L 447.342 70.197 Q 447.289 70.197 447.254 70.144 L 441.7 61.425 L 441.7 70.091 Q 441.7 70.197 441.603 70.197 Z M 458.9 70.197 Q 458.795 70.197 458.795 70.091 L 458.795 64.695 L 454.005 64.695 L 454.005 70.091 Q 454.005 70.197 453.899 70.197 L 451.992 70.197 Q 451.887 70.197 451.887 70.091 L 451.887 57.497 Q 451.887 57.391 451.992 57.391 L 453.899 57.391 Q 454.005 57.391 454.005 57.497 L 454.005 62.788 L 458.795 62.788 L 458.795 57.497 Q 458.795 57.391 458.9 57.391 L 460.808 57.391 Q 460.913 57.391 460.913 57.497 L 460.913 70.091 Q 460.913 70.197 460.808 70.197 Z" transform="matrix(1.310387, 0, 0, 1.310387, -59.698296, -2.610829)" style="fill: rgb(255, 255, 255);"/>
    <path transform="matrix(1.310387, 0, 0, 1.310387, -59.698296, -2.610829)" style="fill: rgb(255, 255, 255);"/>
    <path d="M 374.111 93.597 Q 374.006 93.597 374.006 93.491 L 374.006 80.897 Q 374.006 80.791 374.111 80.791 L 378.524 80.791 Q 381.16 80.791 382.443 82.962 Q 382.681 83.384 382.83 83.762 Q 382.98 84.14 383.032 84.5 Q 383.138 85.203 383.138 87.198 Q 383.138 89.334 382.988 90.064 Q 382.918 90.433 382.777 90.78 Q 382.637 91.127 382.408 91.47 L 382.408 91.461 Q 381.837 92.366 380.826 92.982 Q 379.798 93.597 378.4 93.597 Z M 376.124 82.813 L 376.124 91.593 L 378.313 91.593 Q 379.824 91.593 380.563 90.538 Q 380.853 90.072 380.932 89.563 Q 380.976 89.281 380.998 88.714 Q 381.02 88.148 381.02 87.269 Q 381.02 86.416 380.993 85.845 Q 380.967 85.274 380.923 84.94 Q 380.835 84.324 380.475 83.823 Q 379.728 82.813 378.313 82.813 Z M 384.208 93.588 Q 384.147 93.588 384.121 93.544 Q 384.094 93.5 384.112 93.447 L 388.717 80.844 Q 388.735 80.774 388.805 80.774 L 390.378 80.774 Q 390.405 80.774 390.435 80.796 Q 390.466 80.817 390.475 80.844 L 395.072 93.447 Q 395.089 93.5 395.063 93.544 Q 395.037 93.588 394.984 93.588 L 392.971 93.588 Q 392.901 93.588 392.883 93.518 L 391.934 90.74 L 387.293 90.74 Q 387.047 91.452 386.806 92.133 Q 386.564 92.815 386.318 93.518 Q 386.309 93.544 386.278 93.566 Q 386.247 93.588 386.221 93.588 Z M 391.301 88.851 Q 391.284 88.789 391.253 88.719 Q 391.222 88.649 391.204 88.596 Q 391.055 88.165 390.932 87.8 Q 390.809 87.436 390.712 87.163 Q 390.651 86.987 390.594 86.82 Q 390.537 86.653 390.484 86.504 Q 390.44 86.363 390.396 86.236 Q 390.352 86.109 390.308 85.985 Q 390.229 85.731 390.145 85.476 Q 390.062 85.221 389.974 84.948 Q 389.93 84.825 389.882 84.676 Q 389.833 84.526 389.781 84.359 Q 389.754 84.272 389.741 84.223 Q 389.728 84.175 389.71 84.127 Q 389.693 84.078 389.671 84.017 Q 389.649 83.955 389.614 83.841 Q 389.517 84.131 389.434 84.377 Q 389.35 84.623 389.28 84.834 Q 389.262 84.887 389.253 84.931 Q 389.245 84.975 389.227 85.019 Q 389.183 85.168 389.135 85.3 Q 389.086 85.432 389.042 85.564 Q 388.998 85.704 388.954 85.836 Q 388.911 85.968 388.867 86.091 Q 388.779 86.355 388.686 86.645 Q 388.594 86.935 388.48 87.251 Q 388.366 87.567 388.243 87.932 Q 388.12 88.297 387.926 88.851 Z M 386.458 79.657 Q 386.379 79.657 386.362 79.587 Q 386.344 79.517 386.397 79.473 L 388.981 77.425 L 390.167 77.425 L 392.787 79.473 Q 392.848 79.517 392.826 79.587 Q 392.804 79.657 392.725 79.657 L 391.248 79.657 L 389.491 78.708 Q 389.104 78.945 388.708 79.183 Q 388.313 79.42 387.926 79.657 Z M 392.62 78.374 Q 392.602 78.374 392.576 78.361 Q 392.549 78.348 392.54 78.339 L 390.115 75.773 Q 390.062 75.72 390.093 75.658 Q 390.123 75.597 390.194 75.597 L 392.127 75.597 Q 392.18 75.597 392.215 75.65 L 394.052 78.216 Q 394.079 78.277 394.057 78.326 Q 394.035 78.374 393.964 78.374 Z M 396.328 80.897 Q 396.328 80.791 396.433 80.791 L 398.349 80.791 Q 398.446 80.791 398.446 80.897 L 398.446 89.018 Q 398.446 90.283 399.149 90.934 Q 399.861 91.593 400.916 91.593 Q 401.953 91.593 402.665 90.934 Q 403.377 90.275 403.377 89.018 L 403.377 80.897 Q 403.377 80.791 403.482 80.791 L 405.389 80.791 Q 405.495 80.791 405.495 80.897 L 405.495 89.229 Q 405.495 91.25 404.15 92.481 Q 402.823 93.702 400.916 93.702 Q 399 93.702 397.664 92.481 Q 396.328 91.25 396.328 89.229 Z M 416.401 88.473 Q 416.295 88.473 416.295 88.367 L 416.295 86.557 Q 416.295 86.46 416.401 86.46 L 420.874 86.46 Q 420.98 86.46 420.98 86.557 L 420.98 89.123 Q 420.98 91.066 419.644 92.375 Q 418.29 93.702 416.383 93.702 Q 414.862 93.702 413.825 92.973 Q 412.806 92.252 412.349 91.391 L 412.358 91.391 Q 412.191 91.092 412.076 90.789 Q 411.962 90.485 411.901 90.151 Q 411.848 89.817 411.817 89.084 Q 411.786 88.35 411.786 87.198 Q 411.786 86.047 411.817 85.317 Q 411.848 84.588 411.901 84.254 Q 411.962 83.92 412.076 83.612 Q 412.191 83.305 412.358 83.006 L 412.349 83.006 Q 412.806 82.153 413.825 81.424 Q 414.854 80.686 416.383 80.686 Q 418.211 80.686 419.406 81.811 Q 420.619 82.936 420.909 84.5 Q 420.927 84.553 420.892 84.588 Q 420.857 84.623 420.804 84.623 L 418.791 84.623 Q 418.712 84.623 418.695 84.553 Q 418.58 84.201 418.369 83.898 Q 418.158 83.595 417.851 83.331 Q 417.271 82.813 416.383 82.813 Q 415.724 82.813 415.258 83.076 Q 414.792 83.34 414.511 83.683 Q 414.344 83.894 414.221 84.162 Q 414.098 84.43 414.028 84.711 Q 413.957 85.01 413.931 85.634 Q 413.904 86.258 413.904 87.198 Q 413.904 88.156 413.931 88.776 Q 413.957 89.396 414.028 89.694 Q 414.098 89.967 414.225 90.235 Q 414.353 90.503 414.511 90.705 Q 414.792 91.074 415.258 91.334 Q 415.724 91.593 416.383 91.593 Q 417.429 91.593 418.141 90.881 Q 418.862 90.169 418.862 89.018 L 418.862 88.473 Z M 423.264 93.597 Q 423.159 93.597 423.159 93.491 L 423.159 80.897 Q 423.159 80.791 423.264 80.791 L 425.172 80.791 Q 425.277 80.791 425.277 80.897 L 425.277 93.491 Q 425.277 93.597 425.172 93.597 Z M 426.695 93.588 Q 426.633 93.588 426.607 93.544 Q 426.581 93.5 426.598 93.447 L 431.204 80.844 Q 431.221 80.774 431.291 80.774 L 432.865 80.774 Q 432.891 80.774 432.922 80.796 Q 432.953 80.817 432.961 80.844 L 437.558 93.447 Q 437.576 93.5 437.549 93.544 Q 437.523 93.588 437.47 93.588 L 435.457 93.588 Q 435.387 93.588 435.37 93.518 L 434.42 90.74 L 429.78 90.74 Q 429.534 91.452 429.292 92.133 Q 429.05 92.815 428.804 93.518 Q 428.795 93.544 428.765 93.566 Q 428.734 93.588 428.707 93.588 Z M 433.788 88.851 Q 433.77 88.789 433.739 88.719 Q 433.708 88.649 433.691 88.596 Q 433.541 88.165 433.418 87.8 Q 433.295 87.436 433.199 87.163 Q 433.137 86.987 433.08 86.82 Q 433.023 86.653 432.97 86.504 Q 432.926 86.363 432.882 86.236 Q 432.838 86.109 432.794 85.985 Q 432.715 85.731 432.632 85.476 Q 432.548 85.221 432.46 84.948 Q 432.416 84.825 432.368 84.676 Q 432.32 84.526 432.267 84.359 Q 432.241 84.272 432.228 84.223 Q 432.214 84.175 432.197 84.127 Q 432.179 84.078 432.157 84.017 Q 432.135 83.955 432.1 83.841 Q 432.003 84.131 431.92 84.377 Q 431.836 84.623 431.766 84.834 Q 431.749 84.887 431.74 84.931 Q 431.731 84.975 431.713 85.019 Q 431.669 85.168 431.621 85.3 Q 431.573 85.432 431.529 85.564 Q 431.485 85.704 431.441 85.836 Q 431.397 85.968 431.353 86.091 Q 431.265 86.355 431.173 86.645 Q 431.081 86.935 430.966 87.251 Q 430.852 87.567 430.729 87.932 Q 430.606 88.297 430.413 88.851 Z M 428.945 79.657 Q 428.866 79.657 428.848 79.587 Q 428.831 79.517 428.883 79.473 L 431.467 77.425 L 432.654 77.425 L 435.273 79.473 Q 435.334 79.517 435.312 79.587 Q 435.29 79.657 435.211 79.657 L 433.735 79.657 L 431.977 78.708 Q 431.59 78.945 431.195 79.183 Q 430.799 79.42 430.413 79.657 Z M 441.653 93.597 Q 441.556 93.597 441.556 93.491 L 441.556 88.341 Q 440.607 86.486 439.667 84.641 Q 438.726 82.795 437.786 80.941 Q 437.76 80.879 437.786 80.835 Q 437.812 80.791 437.883 80.791 L 439.887 80.791 Q 439.913 80.791 439.939 80.813 Q 439.966 80.835 439.983 80.853 L 442.567 86.249 Q 443.218 84.887 443.855 83.551 Q 444.492 82.215 445.142 80.853 Q 445.16 80.835 445.186 80.813 Q 445.213 80.791 445.239 80.791 L 447.252 80.791 Q 447.322 80.791 447.348 80.835 Q 447.375 80.879 447.348 80.941 L 443.569 88.341 L 443.569 93.491 Q 443.569 93.597 443.464 93.597 Z" transform="matrix(1.310387, 0, 0, 1.310387, -59.698296, -2.610829)" style="fill: rgb(255, 255, 255);"/>
    <path d="M 425.404 145.732 Q 425.297 145.732 425.297 145.625 L 425.297 132.891 Q 425.297 132.784 425.404 132.784 L 433.544 132.784 Q 433.651 132.784 433.651 132.891 L 433.651 134.721 Q 433.651 134.828 433.544 134.828 L 427.439 134.828 L 427.439 138.24 L 432.629 138.24 Q 432.736 138.24 432.736 138.347 L 432.736 140.071 Q 432.736 140.169 432.629 140.169 L 427.439 140.169 L 427.439 143.706 L 433.544 143.706 Q 433.651 143.706 433.651 143.812 L 433.651 145.625 Q 433.651 145.732 433.544 145.732 Z M 441.822 145.732 Q 441.769 145.732 441.733 145.679 L 439.032 141.093 Q 438.356 142.248 437.681 143.386 Q 437.006 144.523 436.33 145.679 Q 436.295 145.732 436.241 145.732 L 434.064 145.732 Q 433.993 145.732 433.966 145.683 Q 433.94 145.634 433.975 145.572 L 437.841 139.093 Q 436.926 137.547 436.028 136.019 Q 435.131 134.49 434.224 132.944 Q 434.189 132.882 434.215 132.833 Q 434.242 132.784 434.304 132.784 L 436.49 132.784 Q 436.544 132.784 436.579 132.837 L 439.032 137.103 Q 439.645 136.036 440.258 134.975 Q 440.871 133.913 441.485 132.837 Q 441.52 132.784 441.573 132.784 L 443.76 132.784 Q 443.822 132.784 443.848 132.833 Q 443.875 132.882 443.84 132.944 L 440.223 139.093 Q 441.2 140.72 442.16 142.333 Q 443.12 143.946 444.097 145.572 Q 444.133 145.634 444.106 145.683 Q 444.08 145.732 444.008 145.732 Z M 447.401 134.828 L 447.401 138.72 L 450.165 138.72 Q 451.187 138.72 451.684 138.107 Q 452.191 137.512 452.191 136.774 Q 452.191 135.672 451.409 135.166 Q 450.902 134.828 450.094 134.828 Z M 445.366 145.732 Q 445.259 145.732 445.259 145.625 L 445.259 132.891 Q 445.259 132.784 445.366 132.784 L 449.987 132.784 Q 450.751 132.784 451.435 132.944 Q 452.129 133.104 452.911 133.708 Q 453.213 133.948 453.466 134.264 Q 453.719 134.579 453.924 134.961 Q 454.119 135.352 454.226 135.823 Q 454.333 136.294 454.333 136.827 Q 454.333 138.223 453.284 139.493 Q 452.235 140.755 450.236 140.755 L 447.401 140.755 L 447.401 145.625 Q 447.401 145.732 447.294 145.732 Z M 458.021 134.712 L 458.021 138.365 L 460.838 138.365 Q 461.869 138.365 462.385 137.796 Q 462.9 137.227 462.9 136.445 Q 462.9 136.001 462.745 135.654 Q 462.589 135.308 462.296 135.086 Q 462.038 134.908 461.696 134.81 Q 461.354 134.712 460.954 134.712 Z M 455.986 145.732 Q 455.88 145.732 455.88 145.625 L 455.88 132.891 Q 455.88 132.784 455.986 132.784 L 460.972 132.784 Q 461.798 132.784 462.465 133.011 Q 463.131 133.237 463.629 133.655 Q 463.887 133.895 464.122 134.201 Q 464.358 134.508 464.54 134.863 Q 464.722 135.219 464.829 135.619 Q 464.935 136.019 464.935 136.445 Q 464.935 137.076 464.757 137.641 Q 464.58 138.205 464.26 138.694 Q 463.931 139.147 463.496 139.489 Q 463.06 139.831 462.509 140.035 Q 463.229 141.413 463.958 142.804 Q 464.686 144.194 465.406 145.572 Q 465.433 145.634 465.406 145.683 Q 465.379 145.732 465.317 145.732 L 463.025 145.732 Q 462.998 145.732 462.971 145.71 Q 462.945 145.687 462.927 145.67 L 460.323 140.293 L 458.021 140.293 L 458.021 145.625 Q 458.021 145.732 457.915 145.732 Z M 466.913 145.732 Q 466.806 145.732 466.806 145.625 L 466.806 132.891 Q 466.806 132.784 466.913 132.784 L 475.053 132.784 Q 475.16 132.784 475.16 132.891 L 475.16 134.721 Q 475.16 134.828 475.053 134.828 L 468.948 134.828 L 468.948 138.24 L 474.138 138.24 Q 474.244 138.24 474.244 138.347 L 474.244 140.071 Q 474.244 140.169 474.138 140.169 L 468.948 140.169 L 468.948 143.706 L 475.053 143.706 Q 475.16 143.706 475.16 143.812 L 475.16 145.625 Q 475.16 145.732 475.053 145.732 Z M 476.937 142.462 Q 476.964 142.426 477.008 142.426 Q 477.052 142.426 477.088 142.453 Q 477.79 143.021 478.701 143.364 Q 479.612 143.706 480.625 143.706 Q 481.762 143.706 482.42 143.235 Q 483.042 142.781 483.042 142.035 Q 483.042 140.631 481.469 140.418 L 481.478 140.418 Q 481.256 140.391 481.056 140.364 Q 480.856 140.338 480.656 140.311 Q 480.456 140.284 480.247 140.253 Q 480.038 140.222 479.79 140.187 Q 478.954 140.071 478.301 139.764 Q 477.648 139.458 477.204 138.951 Q 476.759 138.436 476.537 137.827 Q 476.315 137.218 476.315 136.499 Q 476.315 134.81 477.435 133.753 Q 478.563 132.677 480.572 132.677 Q 481.167 132.677 481.731 132.779 Q 482.296 132.882 482.824 133.059 Q 483.353 133.237 483.838 133.482 Q 484.322 133.726 484.766 134.019 Q 484.855 134.081 484.793 134.17 L 483.718 135.761 Q 483.655 135.841 483.575 135.788 Q 482.882 135.352 482.1 135.09 Q 481.318 134.828 480.483 134.828 Q 480.056 134.828 479.692 134.93 Q 479.327 135.032 479.034 135.263 Q 478.457 135.681 478.457 136.534 Q 478.457 137.023 478.848 137.485 Q 479.043 137.698 479.372 137.845 Q 479.701 137.992 480.181 138.063 Q 480.438 138.107 480.785 138.156 Q 481.131 138.205 481.602 138.258 Q 483.424 138.48 484.304 139.6 Q 485.184 140.693 485.184 142.035 Q 485.184 143.83 483.931 144.843 Q 482.669 145.839 480.607 145.839 Q 477.701 145.839 475.666 144.061 Q 475.631 144.035 475.631 143.99 Q 475.631 143.946 475.657 143.91 Z M 487.206 142.462 Q 487.232 142.426 487.277 142.426 Q 487.321 142.426 487.357 142.453 Q 488.059 143.021 488.97 143.364 Q 489.881 143.706 490.894 143.706 Q 492.031 143.706 492.689 143.235 Q 493.311 142.781 493.311 142.035 Q 493.311 140.631 491.738 140.418 L 491.747 140.418 Q 491.525 140.391 491.325 140.364 Q 491.125 140.338 490.925 140.311 Q 490.725 140.284 490.516 140.253 Q 490.307 140.222 490.058 140.187 Q 489.223 140.071 488.57 139.764 Q 487.917 139.458 487.472 138.951 Q 487.028 138.436 486.806 137.827 Q 486.584 137.218 486.584 136.499 Q 486.584 134.81 487.703 133.753 Q 488.832 132.677 490.84 132.677 Q 491.436 132.677 492 132.779 Q 492.564 132.882 493.093 133.059 Q 493.622 133.237 494.106 133.482 Q 494.59 133.726 495.035 134.019 Q 495.124 134.081 495.061 134.17 L 493.986 135.761 Q 493.924 135.841 493.844 135.788 Q 493.151 135.352 492.369 135.09 Q 491.587 134.828 490.751 134.828 Q 490.325 134.828 489.96 134.93 Q 489.596 135.032 489.303 135.263 Q 488.725 135.681 488.725 136.534 Q 488.725 137.023 489.116 137.485 Q 489.312 137.698 489.641 137.845 Q 489.969 137.992 490.449 138.063 Q 490.707 138.107 491.054 138.156 Q 491.4 138.205 491.871 138.258 Q 493.693 138.48 494.573 139.6 Q 495.452 140.693 495.452 142.035 Q 495.452 143.83 494.199 144.843 Q 492.938 145.839 490.876 145.839 Q 487.97 145.839 485.935 144.061 Q 485.899 144.035 485.899 143.99 Q 485.899 143.946 485.926 143.91 Z M 499.461 145.732 Q 499.372 145.732 499.354 145.652 L 496.164 132.917 Q 496.146 132.864 496.181 132.824 Q 496.217 132.784 496.27 132.784 L 498.314 132.784 Q 498.403 132.784 498.421 132.864 L 500.34 141.564 Q 500.927 139.378 501.522 137.218 Q 502.118 135.059 502.713 132.864 Q 502.731 132.784 502.82 132.784 L 504.215 132.784 Q 504.295 132.784 504.313 132.864 L 506.694 141.564 Q 507.174 139.378 507.654 137.218 Q 508.134 135.059 508.614 132.864 Q 508.632 132.784 508.721 132.784 L 510.764 132.784 Q 510.818 132.784 510.853 132.824 Q 510.889 132.864 510.871 132.917 L 507.681 145.652 Q 507.663 145.732 507.574 145.732 L 505.966 145.732 Q 505.886 145.732 505.868 145.652 L 503.513 136.81 Q 502.926 139.04 502.34 141.235 Q 501.753 143.43 501.167 145.652 Q 501.149 145.732 501.069 145.732 Z M 510.781 145.723 Q 510.719 145.723 510.693 145.679 Q 510.666 145.634 510.684 145.581 L 515.34 132.837 Q 515.358 132.766 515.429 132.766 L 517.02 132.766 Q 517.047 132.766 517.078 132.788 Q 517.109 132.811 517.118 132.837 L 521.765 145.581 Q 521.783 145.634 521.756 145.679 Q 521.73 145.723 521.677 145.723 L 519.641 145.723 Q 519.57 145.723 519.553 145.652 L 518.593 142.844 L 513.901 142.844 Q 513.652 143.564 513.407 144.252 Q 513.163 144.941 512.914 145.652 Q 512.905 145.679 512.874 145.701 Q 512.843 145.723 512.816 145.723 Z M 517.953 140.933 Q 517.935 140.871 517.904 140.8 Q 517.873 140.729 517.855 140.675 Q 517.704 140.24 517.58 139.871 Q 517.455 139.502 517.358 139.227 Q 517.295 139.049 517.238 138.88 Q 517.18 138.711 517.127 138.56 Q 517.082 138.418 517.038 138.289 Q 516.993 138.16 516.949 138.036 Q 516.869 137.778 516.784 137.521 Q 516.7 137.263 516.611 136.987 Q 516.567 136.863 516.518 136.712 Q 516.469 136.561 516.416 136.392 Q 516.389 136.303 516.376 136.254 Q 516.362 136.205 516.344 136.156 Q 516.327 136.108 516.304 136.045 Q 516.282 135.983 516.247 135.868 Q 516.149 136.161 516.065 136.41 Q 515.98 136.659 515.909 136.872 Q 515.891 136.925 515.882 136.97 Q 515.873 137.014 515.856 137.058 Q 515.811 137.21 515.762 137.343 Q 515.714 137.476 515.669 137.609 Q 515.625 137.752 515.58 137.885 Q 515.536 138.018 515.491 138.143 Q 515.402 138.409 515.309 138.702 Q 515.216 138.996 515.1 139.316 Q 514.985 139.636 514.86 140.004 Q 514.736 140.373 514.54 140.933 Z M 524.749 145.732 Q 524.651 145.732 524.651 145.625 L 524.651 140.418 Q 523.691 138.543 522.741 136.676 Q 521.79 134.81 520.839 132.935 Q 520.812 132.873 520.839 132.828 Q 520.866 132.784 520.937 132.784 L 522.963 132.784 Q 522.989 132.784 523.016 132.806 Q 523.043 132.828 523.061 132.846 L 525.673 138.303 Q 526.331 136.925 526.975 135.574 Q 527.619 134.224 528.277 132.846 Q 528.295 132.828 528.321 132.806 Q 528.348 132.784 528.375 132.784 L 530.41 132.784 Q 530.481 132.784 530.508 132.828 Q 530.534 132.873 530.508 132.935 L 526.686 140.418 L 526.686 145.625 Q 526.686 145.732 526.58 145.732 Z" style="fill: rgb(255, 255, 255);"/>
    <path d="M 396.428 221.467 L 396.428 200.945 L 392.982 203.508 L 392.982 199.85 L 396.428 197.322 L 399.857 197.322 L 399.857 221.467 Z M 414.644 221.621 L 404.357 221.621 L 404.357 218.439 L 410.773 205.978 Q 411.198 205.112 411.198 204.21 L 411.198 202.407 Q 411.198 201.683 410.694 201.17 Q 410.19 200.658 409.465 200.658 Q 408.811 200.658 408.29 201.108 Q 407.768 201.559 407.768 202.248 L 407.768 204.387 L 404.286 204.387 L 404.286 202.655 Q 404.286 201.241 405.356 199.252 Q 406.425 197.264 409.642 197.264 Q 411.675 197.264 413.16 198.819 Q 414.644 200.375 414.644 202.407 L 414.644 204.599 Q 414.644 205.359 414.441 206.084 Q 414.238 206.809 413.849 207.569 L 408.405 218.174 L 414.644 218.174 Z M 422.785 221.692 Q 418.985 220.967 418.366 217.237 Q 418.366 213.366 418.366 209.478 Q 418.366 205.589 418.366 201.683 Q 418.844 198.855 420.868 197.874 Q 422.891 196.893 425.49 197.476 Q 426.798 198.271 427.593 199.155 Q 428.389 200.039 428.689 201.683 Q 428.689 205.589 428.689 209.46 Q 428.689 213.331 428.689 217.167 Q 428.177 220.684 424.924 221.656 Q 424.518 221.656 424.244 221.674 Q 423.97 221.692 422.785 221.692 Z M 423.139 218.21 Q 424.73 218.21 425.172 216.813 Q 425.172 213.154 425.172 209.513 Q 425.172 205.872 425.172 202.213 Q 424.96 201.559 424.694 201.135 Q 423.652 200.339 422.927 200.79 Q 422.202 201.241 421.884 202.213 Q 421.884 205.837 421.884 209.478 Q 421.884 213.119 421.884 216.742 Q 422.096 217.856 423.139 218.21 Z"/>
    <path d="M 341.2 96.399 Q 341.272 96.399 341.32 96.453 Q 341.368 96.507 341.344 96.579 Q 340.84 99.03 339.11 100.351 Q 338.269 100.988 337.284 101.312 Q 336.299 101.636 335.158 101.636 Q 333.08 101.636 331.663 100.639 Q 330.269 99.654 329.645 98.477 Q 329.428 98.069 329.272 97.654 Q 329.116 97.24 329.032 96.783 Q 328.876 95.895 328.876 92.747 Q 328.876 91.174 328.912 90.177 Q 328.948 89.18 329.032 88.724 Q 329.116 88.267 329.272 87.847 Q 329.428 87.426 329.645 87.018 Q 330.269 85.853 331.663 84.856 Q 333.068 83.847 335.158 83.847 Q 337.656 83.847 339.29 85.384 Q 340.948 86.934 341.344 89.06 Q 341.368 89.132 341.32 89.18 Q 341.272 89.228 341.2 89.228 L 338.449 89.228 Q 338.341 89.228 338.317 89.132 Q 338.161 88.651 337.873 88.237 Q 337.584 87.823 337.164 87.462 Q 336.371 86.754 335.158 86.754 Q 334.257 86.754 333.621 87.114 Q 332.984 87.474 332.6 87.943 Q 332.371 88.231 332.203 88.597 Q 332.035 88.964 331.939 89.348 Q 331.843 89.757 331.807 90.609 Q 331.771 91.462 331.771 92.747 Q 331.771 94.057 331.807 94.904 Q 331.843 95.75 331.939 96.159 Q 332.035 96.531 332.209 96.898 Q 332.383 97.264 332.6 97.54 Q 332.984 98.045 333.621 98.399 Q 334.257 98.753 335.158 98.753 Q 337.236 98.753 338.317 96.483 Q 338.341 96.459 338.377 96.429 Q 338.413 96.399 338.449 96.399 Z M 346.231 101.492 Q 346.087 101.492 346.087 101.348 L 346.087 86.597 L 341.51 86.597 Q 341.366 86.597 341.366 86.453 L 341.366 84.135 Q 341.366 83.991 341.51 83.991 L 353.546 83.991 Q 353.69 83.991 353.69 84.135 L 353.69 86.453 Q 353.69 86.597 353.546 86.597 L 348.981 86.597 L 348.981 101.348 Q 348.981 101.492 348.837 101.492 Z M 354.056 101.492 Q 353.912 101.492 353.912 101.348 L 353.912 98.909 Q 353.912 98.765 354.056 98.765 L 356.506 98.765 Q 356.638 98.765 356.638 98.909 L 356.638 101.348 Q 356.638 101.492 356.506 101.492 Z M 357.736 101.492 Q 357.592 101.492 357.592 101.348 L 357.592 99.006 L 364.318 90.585 L 364.318 90.597 Q 364.691 90.129 364.799 89.739 Q 364.907 89.348 364.907 88.976 Q 364.907 88.147 364.306 87.414 Q 363.706 86.694 362.685 86.694 Q 361.748 86.694 361.063 87.33 Q 360.727 87.642 360.553 88.069 Q 360.379 88.495 360.33 89.036 Q 360.33 89.096 360.288 89.132 Q 360.246 89.168 360.186 89.168 L 357.736 89.168 Q 357.592 89.168 357.592 89.024 Q 357.616 86.886 359.045 85.432 Q 360.499 83.955 362.505 83.955 Q 364.679 83.955 366.168 85.444 L 366.156 85.444 Q 367.634 86.922 367.634 89 Q 367.634 89.901 367.369 90.669 Q 367.105 91.438 366.577 92.099 L 366.577 92.087 Q 365.892 92.952 365.231 93.78 Q 364.571 94.609 363.91 95.432 Q 363.249 96.255 362.589 97.078 Q 361.928 97.901 361.243 98.765 L 367.489 98.765 Q 367.634 98.765 367.634 98.909 L 367.634 101.348 Q 367.634 101.492 367.489 101.492 Z M 369.808 89.024 Q 369.82 87.835 370.217 86.892 Q 370.613 85.949 371.334 85.276 Q 372.018 84.652 372.871 84.309 Q 373.724 83.967 374.661 83.967 Q 376.643 83.967 378.06 85.276 Q 379.49 86.597 379.526 89.036 L 379.526 96.603 Q 379.502 97.768 379.117 98.729 Q 378.733 99.69 378.06 100.351 Q 377.376 100.963 376.517 101.312 Q 375.658 101.66 374.661 101.684 Q 372.943 101.636 371.634 100.627 L 371.634 100.639 Q 370.949 100.111 370.523 99.372 Q 370.097 98.633 369.904 97.672 Q 369.88 97.612 369.922 97.564 Q 369.964 97.516 370.036 97.516 L 372.487 97.516 Q 372.571 97.516 372.619 97.612 Q 373.16 98.958 374.661 98.958 Q 376.787 98.946 376.871 96.471 L 376.871 95.042 Q 376.078 95.282 375.298 95.414 Q 374.517 95.546 373.832 95.522 Q 372.175 95.558 370.961 94.321 L 370.973 94.321 Q 369.784 93.132 369.808 90.609 Z M 372.475 90.585 Q 372.475 93.036 374.661 93.072 Q 376.799 93.036 376.871 90.585 L 376.871 89.18 Q 376.775 86.742 374.661 86.694 Q 372.487 86.754 372.475 89.18 Z"/>
    <path d="M 311.417 24.287 L 618.646 24.287 C 622.27 24.287 625.208 27.225 625.208 30.849 L 625.208 245.662 C 625.208 249.286 622.27 252.224 618.646 252.224 L 311.417 252.224 C 307.793 252.224 304.855 249.286 304.855 245.662 L 304.855 30.849 C 304.855 27.225 307.793 24.287 311.417 24.287 Z M 307.324 30.904 L 307.324 161.854 C 307.324 164.133 309.171 165.98 311.45 165.98 L 618.601 165.98 C 620.88 165.98 622.727 164.133 622.727 161.854 L 622.727 30.904 C 622.727 28.625 620.88 26.778 618.601 26.778 L 311.45 26.778 C 309.171 26.778 307.324 28.625 307.324 30.904 Z M 307.324 173.048 L 307.324 245.784 C 307.324 248.063 309.171 249.91 311.45 249.91 L 618.601 249.91 C 620.88 249.91 622.727 248.063 622.727 245.784 L 622.727 173.048 C 622.727 170.769 620.88 168.922 618.601 168.922 L 311.45 168.922 C 309.171 168.922 307.324 170.769 307.324 173.048 Z" style="fill: rgb(255, 255, 255);"/>
  </g>
</svg>