<?xml version="1.0" encoding="UTF-8" standalone="no"?>
<svg
   sodipodi:docname="Vietnam_road_sign_I444m.svg"
   inkscape:version="1.2.2 (732a01da63, 2022-12-09)"
   id="svg848"
   version="1.1"
   viewBox="0 0 1595.7325 500"
   height="500mm"
   width="1595.7325mm"
   xmlns:inkscape="http://www.inkscape.org/namespaces/inkscape"
   xmlns:sodipodi="http://sodipodi.sourceforge.net/DTD/sodipodi-0.dtd"
   xmlns="http://www.w3.org/2000/svg"
   xmlns:svg="http://www.w3.org/2000/svg"
   xmlns:rdf="http://www.w3.org/1999/02/22-rdf-syntax-ns#"
   xmlns:cc="http://creativecommons.org/ns#"
   xmlns:dc="http://purl.org/dc/elements/1.1/">
  <defs
     id="defs842" />
  <sodipodi:namedview
     inkscape:document-rotation="0"
     inkscape:measure-end="0,0"
     inkscape:measure-start="0,0"
     showguides="true"
     fit-margin-bottom="0"
     fit-margin-right="0"
     fit-margin-left="0"
     fit-margin-top="0"
     inkscape:window-maximized="1"
     inkscape:window-y="-9"
     inkscape:window-x="-9"
     inkscape:window-height="991"
     inkscape:window-width="1920"
     inkscape:snap-global="false"
     showgrid="false"
     inkscape:current-layer="text2903"
     inkscape:document-units="mm"
     inkscape:cy="627.18154"
     inkscape:cx="4173.065"
     inkscape:zoom="0.18415721"
     inkscape:pageshadow="2"
     inkscape:pageopacity="0.0"
     borderopacity="1.0"
     bordercolor="#666666"
     pagecolor="#ffffff"
     id="base"
     inkscape:showpageshadow="2"
     inkscape:pagecheckerboard="0"
     inkscape:deskcolor="#d1d1d1" />
  <metadata
     id="metadata845">
    <rdf:RDF>
      <cc:Work
         rdf:about="">
        <dc:format>image/svg+xml</dc:format>
        <dc:type
           rdf:resource="http://purl.org/dc/dcmitype/StillImage" />
        <dc:title />
      </cc:Work>
    </rdf:RDF>
  </metadata>
  <g
     transform="translate(-530.52646,11.947886)"
     id="layer1"
     inkscape:groupmode="layer"
     inkscape:label="Layer 1">
    <path
       inkscape:connector-curvature="0"
       d=""
       style="opacity:1;fill:#d35f5f;fill-opacity:1;fill-rule:nonzero;stroke:none;stroke-width:3.92256;stroke-linecap:butt;stroke-linejoin:miter;stroke-miterlimit:4;stroke-dasharray:none;stroke-opacity:1;paint-order:stroke fill markers"
       id="path8376"
       r="150"
       cy="147"
       cx="150" />
    <g
       inkscape:groupmode="layer"
       transform="translate(-4496.0426,2396.6803)"
       id="text3577"
       style="font-style:normal;font-variant:normal;font-weight:bold;font-stretch:normal;font-size:299.854px;line-height:0;font-family:Giaothong1;-inkscape-font-specification:'Giaothong1 Bold';letter-spacing:0px;word-spacing:0px;fill:#ffcc00;fill-opacity:1;stroke:none;stroke-width:1.56174"
       aria-label="VỊNH">
      <g
         id="text3665"
         style="font-style:normal;font-variant:normal;font-weight:bold;font-stretch:normal;font-size:299.854px;line-height:0;font-family:Giaothong1;-inkscape-font-specification:'Giaothong1 Bold';letter-spacing:-2.78077px;word-spacing:0px;fill:#ffcc00;fill-opacity:1;stroke:none;stroke-width:2.43903"
         aria-label="VỊNH" />
    </g>
    <g
       inkscape:groupmode="layer"
       id="text2719"
       style="font-style:normal;font-variant:normal;font-weight:bold;font-stretch:normal;font-size:184.173px;line-height:0;font-family:Giaothong1;-inkscape-font-specification:'Giaothong1 Bold';letter-spacing:0px;word-spacing:0.486833px;fill:#ffffff;fill-opacity:1;stroke:none;stroke-width:0.959232"
       aria-label="CÔNG TRƯỜNG">
      <g
         inkscape:groupmode="layer"
         id="text2888"
         style="font-style:normal;font-variant:normal;font-weight:bold;font-stretch:normal;font-size:187.408px;line-height:0;font-family:Giaothong1;-inkscape-font-specification:'Giaothong1 Bold';letter-spacing:0.00264583px;word-spacing:0px;fill:#ffffff;fill-opacity:1;stroke:none;stroke-width:0.936293"
         aria-label="AHEAD">
        <g
           inkscape:groupmode="layer"
           id="text2903"
           style="font-style:normal;font-variant:normal;font-weight:bold;font-stretch:normal;font-size:184.173px;line-height:0;font-family:Giaothong1;-inkscape-font-specification:'Giaothong1 Bold';letter-spacing:0.00529167px;word-spacing:0px;fill:#ffffff;fill-opacity:1;stroke:none;stroke-width:0.898123"
           aria-label="WORKS">
          <path
             d="M 708.33916,-11.947699 2126.259,-11.947886 V 488.05211 H 708.33916 L 530.52646,238.0523 Z"
             style="opacity:1;fill:#0046aa;fill-opacity:1;fill-rule:nonzero;stroke:none;stroke-width:1.27163;stroke-linecap:butt;stroke-linejoin:miter;stroke-miterlimit:10;stroke-dasharray:none;stroke-opacity:1;paint-order:stroke fill markers"
             id="rect1393"
             sodipodi:nodetypes="cccccc" />
          <path
             id="rect1395"
             style="opacity:1;fill:#ffffff;fill-opacity:1;fill-rule:nonzero;stroke:none;stroke-width:1.22924;stroke-linecap:butt;stroke-linejoin:miter;stroke-miterlimit:10;stroke-dasharray:none;stroke-opacity:1;paint-order:stroke fill markers"
             d="M 710.47731,-3.6148361 540.46021,238.0523 710.47731,479.72219 H 2117.9212 V -3.6148361 Z m 8.3265,8.33846 h 68.59 V 471.38374 h -68.59 L 554.2984,238.0523 Z m 547.16509,0 h 843.6257 V 471.38374 h -843.6257 z"
             sodipodi:nodetypes="ccccccccccccccccc" />
          <g
             id="g49714"
             transform="translate(19.920432,-11.358818)">
            <path
               id="path34887"
               style="color:#000000;opacity:1;fill:#0046aa;fill-opacity:1;stroke-width:7.93143;-inkscape-stroke:none;paint-order:stroke fill markers"
               d="m 975.55737,52.368129 v 20.015204 c -63.09374,11.90348 -115.51256,59.202527 -132.46059,122.963137 -19.70569,74.14656 13.23238,152.87799 79.84154,190.85499 l 5.04053,2.87095 19.41798,-45.83074 a 119.94909,120.05328 0 0 1 -56.54628,-135.17928 119.94909,120.05328 0 0 1 116.18055,-89.18571 119.94909,120.05328 0 0 1 115.7824,89.69718 119.94909,120.05328 0 0 1 -57.1353,134.92356 l 23.4685,43.51783 0.7872,-0.44086 c 66.7759,-37.68416 100.0611,-116.2624 80.6789,-190.49466 C 1153.8825,132.00602 1101.3288,84.346198 1037.965,72.384215 V 52.369037 Z" />
            <path
               id="rect35000"
               style="opacity:1;fill:#0046aa;fill-opacity:1;stroke:none;stroke-width:98.8921;stroke-dasharray:none;stroke-opacity:1;paint-order:stroke fill markers"
               d="m 945.7638,206.96994 v 53.08367 l 31.54561,25.55981 v 98.18203 l -101.18252,20.20141 v 42.45999 h 262.10751 v -42.45999 l -106.1557,-20.20141 v -98.18203 l 36.519,-25.55981 v -53.08367 z" />
          </g>
          <g
             aria-label="GA TÀU"
             id="text41437"
             style="font-weight:normal;font-size:167.726px;font-family:Giaothong2;-inkscape-font-specification:Giaothong2;letter-spacing:0.595112px;opacity:1;stroke-width:232.261;paint-order:stroke fill markers">
            <path
               d="m 1488.0927,140.43843 q -0.9828,0 -0.9828,-0.98277 v -16.87088 q 0,-0.90087 0.9828,-0.90087 h 41.6858 q 0.9828,0 0.9828,0.90087 v 23.91406 q 0,18.09934 -12.4485,30.30206 -12.6122,12.36652 -30.3839,12.36652 -14.1683,0 -23.8322,-6.79749 -9.5001,-6.71559 -13.7588,-14.74154 h 0.082 q -1.556,-2.78452 -2.6207,-5.56903 -1.0646,-2.86641 -1.6379,-5.97851 -0.4914,-3.11211 -0.819,-9.9096 -0.2457,-6.87938 -0.2457,-17.60795 0,-10.72857 0.2457,-17.52606 0.3276,-6.79749 0.819,-9.90959 0.5733,-3.112103 1.6379,-5.978514 1.0647,-2.866411 2.6207,-5.650925 h -0.082 q 4.2587,-7.944054 13.7588,-14.741543 9.582,-6.879386 23.8322,-6.879386 17.0347,0 28.1727,10.482874 11.3019,10.482875 14.0045,25.060624 0.1638,0.49138 -0.1638,0.81897 -0.3276,0.32759 -0.819,0.32759 h -18.7545 q -0.7371,0 -0.9009,-0.65518 -1.0647,-3.27589 -3.0302,-6.060408 -1.9655,-2.866411 -4.8319,-5.323335 -5.4053,-4.83195 -13.6769,-4.83195 -6.1423,0 -10.4829,2.456924 -4.3406,2.456923 -6.9613,5.650924 -1.556,1.965539 -2.7026,4.504365 -1.1466,2.45692 -1.8017,5.07764 -0.6552,2.78451 -0.9009,8.59923 -0.2457,5.81472 -0.2457,14.57775 0,8.92682 0.2457,14.74154 0.2457,5.73282 0.9009,8.51734 0.6551,2.53882 1.8017,5.07764 1.2285,2.45692 2.7026,4.34057 2.6207,3.43969 6.9613,5.89661 4.3406,2.37503 10.4829,2.37503 9.7458,0 16.3795,-6.63369 6.7156,-6.6337 6.7156,-17.36227 v -5.07764 z"
               id="path49785" />
            <path
               d="m 1538.3996,188.10275 q -0.5733,0 -0.819,-0.40948 -0.2457,-0.40949 -0.082,-0.90088 l 42.9142,-117.440954 q 0.1638,-0.65518 0.819,-0.65518 h 14.6597 q 0.2457,0 0.4914,0.245692 0.3275,0.163795 0.4094,0.409488 l 42.8324,117.440954 q 0.1638,0.49139 -0.082,0.90088 -0.2457,0.40948 -0.7371,0.40948 h -18.7545 q -0.6552,0 -0.819,-0.65518 l -8.8449,-25.87959 h -43.2418 q -2.2932,6.63369 -4.5863,13.02169 -2.2112,6.30611 -4.5044,12.8579 -0.082,0.2457 -0.4094,0.49139 -0.2457,0.16379 -0.4914,0.16379 z m 66.0912,-44.14273 q -0.1638,-0.57328 -0.4914,-1.22846 -0.2457,-0.65518 -0.4095,-1.14656 -1.3922,-4.01298 -2.5388,-7.37078 -1.1466,-3.43969 -2.0474,-5.97851 -0.5733,-1.63795 -1.1466,-3.194 -0.4914,-1.55605 -0.9828,-2.94831 -0.4095,-1.31036 -0.8189,-2.45692 -0.4095,-1.22847 -0.819,-2.37503 -0.7371,-2.37503 -1.5561,-4.75005 -0.737,-2.37503 -1.556,-4.91385 -0.4095,-1.14656 -0.9009,-2.53882 -0.4095,-1.39226 -0.9009,-2.94831 -0.2457,-0.81897 -0.4094,-1.22846 -0.082,-0.49139 -0.2457,-0.900874 -0.1638,-0.491385 -0.4095,-1.064667 -0.1638,-0.573282 -0.4914,-1.637949 -0.9009,2.702616 -1.7199,4.99574 -0.737,2.29313 -1.3922,4.25867 -0.1638,0.49139 -0.2457,0.90087 -0.082,0.40949 -0.2457,0.81898 -0.4095,1.39226 -0.9009,2.62072 -0.4095,1.22846 -0.8189,2.45692 -0.4095,1.31036 -0.819,2.53882 -0.4095,1.22846 -0.819,2.37503 -0.819,2.45692 -1.7198,5.15954 -0.819,2.70262 -1.8837,5.65092 -1.0647,2.94831 -2.2112,6.38801 -1.1466,3.35779 -2.9483,8.51733 z"
               id="path49787" />
            <path
               d="m 1716.0788,188.18465 q -0.9828,0 -0.9828,-0.98277 V 86.6318 h -31.2029 q -0.9828,0 -0.9828,-0.98277 V 69.842821 q 0,-0.98277 0.9828,-0.98277 h 82.0612 q 0.9828,0 0.9828,0.98277 V 85.64903 q 0,0.98277 -0.9828,0.98277 h -31.121 v 100.57008 q 0,0.98277 -0.9828,0.98277 z"
               id="path49789" />
            <path
               d="m 1768.9245,188.10275 q -0.5733,0 -0.819,-0.40948 -0.2457,-0.40949 -0.082,-0.90088 l 42.9143,-117.440954 q 0.1638,-0.65518 0.819,-0.65518 h 14.6596 q 0.2457,0 0.4914,0.245692 0.3276,0.163795 0.4095,0.409488 l 42.8323,117.440954 q 0.1638,0.49139 -0.082,0.90088 -0.2456,0.40948 -0.737,0.40948 h -18.7545 q -0.6552,0 -0.819,-0.65518 l -8.8449,-25.87959 h -43.2419 q -2.2931,6.63369 -4.5863,13.02169 -2.2112,6.30611 -4.5043,12.8579 -0.082,0.2457 -0.4095,0.49139 -0.2457,0.16379 -0.4914,0.16379 z m 66.0912,-44.14273 q -0.1638,-0.57328 -0.4914,-1.22846 -0.2456,-0.65518 -0.4094,-1.14656 -1.3923,-4.01298 -2.5389,-7.37078 -1.1465,-3.43969 -2.0474,-5.97851 -0.5733,-1.63795 -1.1466,-3.194 -0.4913,-1.55605 -0.9827,-2.94831 -0.4095,-1.31036 -0.819,-2.45692 -0.4095,-1.22847 -0.819,-2.37503 -0.7371,-2.37503 -1.556,-4.75005 -0.7371,-2.37503 -1.5561,-4.91385 -0.4095,-1.14656 -0.9009,-2.53882 -0.4094,-1.39226 -0.9008,-2.94831 -0.2457,-0.81897 -0.4095,-1.22846 -0.082,-0.49139 -0.2457,-0.900874 -0.1638,-0.491385 -0.4095,-1.064667 -0.1638,-0.573282 -0.4914,-1.637949 -0.9009,2.702616 -1.7198,4.99574 -0.7371,2.29313 -1.3923,4.25867 -0.1638,0.49139 -0.2457,0.90087 -0.082,0.40949 -0.2457,0.81898 -0.4095,1.39226 -0.9008,2.62072 -0.4095,1.22846 -0.819,2.45692 -0.4095,1.31036 -0.819,2.53882 -0.4095,1.22846 -0.819,2.37503 -0.8189,2.45692 -1.7198,5.15954 -0.819,2.70262 -1.8837,5.65092 -1.0646,2.94831 -2.2112,6.38801 -1.1465,3.35779 -2.9483,8.51733 z m -10.8104,-85.664741 q -0.1638,0 -0.4095,-0.0819 -0.2457,-0.163795 -0.3276,-0.245692 l -22.6037,-23.914058 q -0.4914,-0.491385 -0.2457,-1.064667 0.3276,-0.573283 0.9828,-0.573283 h 18.0174 q 0.4914,0 0.819,0.491385 l 17.1166,23.914058 q 0.2456,0.573283 0,1.064667 -0.1638,0.409488 -0.819,0.409488 z"
               id="path49791" />
            <path
               d="m 1882.4562,69.842821 q 0,-0.98277 0.9828,-0.98277 h 17.8536 q 0.9009,0 0.9009,0.98277 v 75.673249 q 0,11.79324 6.5518,17.85365 6.6337,6.14231 16.4614,6.14231 9.6639,0 16.2976,-6.14231 6.6337,-6.14231 6.6337,-17.85365 V 69.842821 q 0,-0.98277 0.9827,-0.98277 h 17.7718 q 0.9828,0 0.9828,0.98277 v 77.638789 q 0,18.83642 -12.5304,30.30206 -12.3665,11.38375 -30.1382,11.38375 -17.8537,0 -30.3021,-11.38375 -12.4484,-11.46564 -12.4484,-30.30206 z"
               id="path49793" />
          </g>
          <g
             aria-label="Railway Station"
             transform="scale(0.93363429,1.0710832)"
             id="text41443"
             style="font-weight:normal;font-size:134.542px;font-family:Giaothong2;-inkscape-font-specification:Giaothong2;letter-spacing:0.477372px;opacity:1;stroke-width:186.311;paint-order:stroke fill markers">
            <path
               d="m 1396.1794,259.85404 v 27.00038 h 20.8252 q 7.6205,0 11.4308,-4.20444 3.8102,-4.20444 3.8102,-9.98554 0,-3.28472 -1.1825,-5.8468 -1.1168,-2.56208 -3.2847,-4.20444 -1.9051,-1.31388 -4.4672,-2.03652 -2.4964,-0.72264 -5.4526,-0.72264 z m -15.044,81.46098 q -0.7883,0 -0.7883,-0.78833 V 246.3867 q 0,-0.78833 0.7883,-0.78833 h 36.8546 q 6.1095,0 11.0366,1.70805 4.9271,1.64236 8.606,4.73 1.9051,1.77374 3.6132,4.07304 1.7737,2.23361 3.0876,4.86139 1.3796,2.62777 2.1679,5.58401 0.7883,2.95625 0.7883,6.10958 0,4.6643 -1.3138,8.86873 -1.3139,4.13875 -3.6789,7.75194 -2.4307,3.35041 -5.6497,5.91249 -3.2191,2.49638 -7.2921,4.00735 5.3212,10.18262 10.7082,20.49664 5.3869,10.24831 10.7081,20.43093 0.1971,0.45987 0,0.85403 -0.197,0.32847 -0.6569,0.32847 h -16.9491 q -0.1971,0 -0.3942,-0.13139 -0.1971,-0.19708 -0.3285,-0.32847 l -19.2484,-39.74507 h -17.0149 v 39.4166 q 0,0.78833 -0.7883,0.78833 z"
               id="path49796" />
            <path
               d="m 1497.7604,341.5778 q -0.7883,0 -0.7883,-0.78833 v -3.67888 q -0.9197,1.18249 -2.1679,2.10221 -1.1825,0.85403 -2.5621,1.37959 -2.0365,0.85402 -4.7957,1.31388 -2.6935,0.45986 -5.9125,0.45986 -11.2994,-0.26277 -17.2119,-6.17527 v 0.0657 q -6.4381,-5.8468 -6.4381,-15.044 0,-8.60596 5.5184,-14.51845 5.6497,-5.91249 16.2922,-6.04388 h 17.2776 v -6.24097 q 0.1314,-8.14609 -12.4819,-7.81762 -2.2994,0 -4.1388,0.19708 -1.8394,0.19708 -3.3504,0.72264 h 0.066 q -1.3139,0.65694 -2.365,1.64236 -1.0511,0.91972 -1.7738,2.2336 -0.4598,0.78834 -1.1825,0.19709 l -10.2483,-8.08041 q -0.2627,-0.19708 -0.3284,-0.45986 -0.066,-0.32847 0.1313,-0.59125 7.6206,-10.31401 22.5332,-9.98553 6.241,-0.0657 11.168,1.1168 4.9271,1.1825 8.8031,3.74458 7.6205,5.38693 7.6862,17.80316 v 45.65757 q 0,0.78833 -0.7883,0.78833 z m -0.7883,-28.31426 h -14.8469 q -10.5768,0.32847 -10.5111,7.29207 0,2.95625 2.6934,5.25555 2.7592,2.43069 8.8031,2.43069 8.0804,0.0657 11.168,-1.90514 h -0.066 q 2.7592,-1.83944 2.7592,-8.93443 z"
               id="path49798" />
            <path
               d="m 1527.8002,341.31502 q -0.7883,0 -0.7883,-0.78833 v -66.61406 q 0,-0.78833 0.7883,-0.78833 h 13.4017 q 0.7226,0 0.7226,0.78833 v 66.61406 q 0,0.78833 -0.7226,0.78833 z m 0,-80.0814 q -0.7883,0 -0.7883,-0.78833 v -13.40164 q 0,-0.78834 0.7883,-0.78834 h 13.4017 q 0.7226,0 0.7226,0.78834 v 13.40164 q 0,0.78833 -0.7226,0.78833 z"
               id="path49800" />
            <path
               d="m 1559.4167,247.04365 q 0,-0.78834 0.7227,-0.78834 h 13.4673 q 0.7226,0 0.7226,0.78834 v 76.27112 q 0,3.87597 4.2702,3.87597 h 4.5329 q 0.7883,0 0.7883,0.78833 v 12.54762 q 0,0.78833 -0.7883,0.78833 h -5.9125 q -7.4235,0 -12.6133,-3.67888 -5.1899,-3.81027 -5.1899,-13.20456 z"
               id="path49802" />
            <path
               d="m 1648.4501,341.31502 q -0.1971,0 -0.4599,-0.13139 -0.1971,-0.19708 -0.2628,-0.45986 l -13.2702,-44.40937 q -3.3505,11.23373 -6.7009,22.27038 -3.2847,10.97096 -6.6351,22.13899 -0.066,0.26278 -0.3285,0.45986 -0.197,0.13139 -0.3941,0.13139 h -11.825 q -0.5913,0 -0.7226,-0.52555 l -21.285,-66.61406 q -0.1314,-0.39417 0.066,-0.72264 0.1971,-0.32847 0.5912,-0.32847 h 14.19 q 0.6569,0 0.7883,0.59125 l 12.2192,44.54076 q 3.5475,-11.23373 7.1607,-22.27038 3.6132,-11.10234 7.292,-22.33608 0,-0.52555 0.657,-0.52555 h 9.7884 q 0.5913,0 0.7227,0.52555 l 14.387,44.67215 q 3.0877,-11.23373 6.1096,-22.27038 3.022,-11.10234 6.1096,-22.33607 0.1314,-0.59125 0.7883,-0.59125 h 14.19 q 0.3942,0 0.5912,0.32847 0.1971,0.32847 0.066,0.72264 l -21.2849,66.61406 q -0.1314,0.52555 -0.7227,0.52555 z"
               id="path49804" />
            <path
               d="m 1728.3519,341.5778 q -0.7883,0 -0.7883,-0.78833 v -3.67888 q -0.9198,1.18249 -2.1679,2.10221 -1.1825,0.85403 -2.5621,1.37959 -2.0366,0.85402 -4.7957,1.31388 -2.6935,0.45986 -5.9125,0.45986 -11.2994,-0.26277 -17.2119,-6.17527 v 0.0657 q -6.4381,-5.8468 -6.4381,-15.044 0,-8.60596 5.5184,-14.51845 5.6497,-5.91249 16.2922,-6.04388 h 17.2776 v -6.24097 q 0.1314,-8.14609 -12.482,-7.81762 -2.2993,0 -4.1387,0.19708 -1.8394,0.19708 -3.3504,0.72264 h 0.066 q -1.3139,0.65694 -2.365,1.64236 -1.0511,0.91972 -1.7738,2.2336 -0.4598,0.78834 -1.1825,0.19709 l -10.2483,-8.08041 q -0.2628,-0.19708 -0.3284,-0.45986 -0.066,-0.32847 0.1313,-0.59125 7.6206,-10.31401 22.5332,-9.98553 6.241,-0.0657 11.168,1.1168 4.9271,1.1825 8.8031,3.74458 7.6205,5.38693 7.6862,17.80316 v 45.65757 q 0,0.78833 -0.7883,0.78833 z m -0.7883,-28.31426 h -14.847 q -10.5767,0.32847 -10.511,7.29207 0,2.95625 2.6934,5.25555 2.7592,2.43069 8.8031,2.43069 8.0804,0.0657 11.168,-1.90514 h -0.066 q 2.7592,-1.83944 2.7592,-8.93443 z"
               id="path49806" />
            <path
               d="m 1772.9102,337.96461 q -5.9782,-15.96372 -11.8907,-31.86175 -5.9125,-15.96373 -11.8907,-31.92745 -0.1314,-0.39417 0.066,-0.72264 0.1971,-0.32847 0.5913,-0.32847 h 14.1243 q 0.197,0 0.3941,0.19708 0.2628,0.13139 0.3285,0.32847 l 15.2411,45.00063 q 3.8102,-11.36512 7.5548,-22.53316 3.8103,-11.16804 7.6206,-22.46747 0.066,-0.19708 0.2627,-0.32847 0.2628,-0.19708 0.4599,-0.19708 h 14.19 q 0.4598,0 0.6569,0.32847 0.1971,0.32847 0.066,0.72264 l -28.6427,80.40987 q -2.8249,8.01471 -8.0804,10.83957 v -0.0657 q -2.5621,1.51097 -5.4526,2.16791 -2.8249,0.72264 -5.9782,0.72264 h -4.4672 q -0.7884,0 -0.7884,-0.72264 v -12.679 q 0,-0.78834 0.7884,-0.78834 h 3.9416 q 5.4526,0 7.3578,-5.25554 z"
               id="path49808" />
            <path
               d="m 1854.9974,317.13951 q 0.1971,-0.26278 0.5256,-0.26278 0.3284,0 0.5912,0.19708 5.1899,4.20444 11.8907,6.76652 6.7665,2.49638 14.2557,2.49638 8.4088,0 13.2702,-3.4818 4.5986,-3.35041 4.5986,-8.86873 0,-10.37971 -11.6279,-11.95637 h 0.066 q -1.6423,-0.19709 -3.1533,-0.39417 -1.4453,-0.19708 -2.9563,-0.39416 -1.4452,-0.19709 -3.0219,-0.39417 -1.511,-0.26278 -3.3504,-0.52555 -6.1753,-0.85403 -11.0367,-3.08764 -4.7956,-2.2993 -8.0804,-6.04388 -3.2847,-3.81027 -4.927,-8.27748 -1.6424,-4.53291 -1.6424,-9.85416 0,-12.48192 8.2775,-20.29955 8.3432,-7.94901 23.1901,-7.94901 4.4015,0 8.5403,0.78833 4.2044,0.72264 8.0804,2.03652 3.9416,1.31389 7.4891,3.15333 3.6132,1.77375 6.8979,3.94166 0.657,0.45986 0.1971,1.11681 l -7.949,11.75928 q -0.4599,0.59125 -1.0511,0.19709 -5.1242,-3.21903 -10.9053,-5.12416 -5.7811,-1.97083 -11.9563,-1.97083 -3.1534,0 -5.8468,0.78833 -2.6935,0.72264 -4.8614,2.43069 -4.2702,3.08763 -4.2702,9.39429 0,3.61319 2.8906,7.0293 1.4453,1.57666 3.876,2.69346 2.4307,1.05111 5.9781,1.57667 1.9052,0.32847 4.4673,0.72264 2.562,0.32847 6.0438,0.72263 13.4674,1.64236 19.9711,9.91985 6.5038,8.0804 6.5038,18.00025 0,13.27025 -9.2629,20.75941 -9.3286,7.35777 -24.5697,7.35777 -21.4821,0 -36.5261,-13.13887 -0.2628,-0.19709 -0.2628,-0.52556 0,-0.32847 0.1971,-0.59125 z"
               id="path49810" />
            <path
               d="m 1931.4832,341.38072 q -0.7884,0 -0.7884,-0.78833 v -55.64311 h -5.9125 q -0.7883,0 -0.7883,-0.78833 v -10.24832 q 0,-0.78833 0.7883,-0.78833 h 5.9125 v -9.98554 l 13.5988,-14.51845 q 0.3941,-0.39417 0.854,-0.19708 0.5255,0.19708 0.5255,0.72263 v 23.97844 h 8.9345 q 0.7883,0 0.7883,0.78833 v 10.24832 q 0,0.78833 -0.7883,0.78833 h -8.9345 v 55.64311 q 0,0.78833 -0.7883,0.78833 z"
               id="path49812" />
            <path
               d="m 2004.0272,341.5778 q -0.7883,0 -0.7883,-0.78833 v -3.67888 q -0.9198,1.18249 -2.168,2.10221 -1.1825,0.85403 -2.562,1.37959 -2.0366,0.85402 -4.7957,1.31388 -2.6935,0.45986 -5.9125,0.45986 -11.2994,-0.26277 -17.2119,-6.17527 v 0.0657 q -6.4381,-5.8468 -6.4381,-15.044 0,-8.60596 5.5184,-14.51845 5.6497,-5.91249 16.2921,-6.04388 h 17.2777 v -6.24097 q 0.1313,-8.14609 -12.482,-7.81762 -2.2993,0 -4.1387,0.19708 -1.8394,0.19708 -3.3504,0.72264 h 0.066 q -1.3139,0.65694 -2.365,1.64236 -1.0511,0.91972 -1.7738,2.2336 -0.4598,0.78834 -1.1825,0.19709 l -10.2483,-8.08041 q -0.2628,-0.19708 -0.3285,-0.45986 -0.066,-0.32847 0.1314,-0.59125 7.6206,-10.31401 22.5332,-9.98553 6.241,-0.0657 11.168,1.1168 4.9271,1.1825 8.8031,3.74458 7.6205,5.38693 7.6862,17.80316 v 45.65757 q 0,0.78833 -0.7883,0.78833 z m -0.7883,-28.31426 h -14.847 q -10.5767,0.32847 -10.5111,7.29207 0,2.95625 2.6935,5.25555 2.7592,2.43069 8.8031,2.43069 8.0804,0.0657 11.168,-1.90514 h -0.066 q 2.7592,-1.83944 2.7592,-8.93443 z"
               id="path49814" />
            <path
               d="m 2034.4612,341.38072 q -0.7883,0 -0.7883,-0.78833 v -55.64311 h -5.9125 q -0.7884,0 -0.7884,-0.78833 v -10.24832 q 0,-0.78833 0.7884,-0.78833 h 5.9125 v -9.98554 l 13.5987,-14.51845 q 0.3941,-0.39417 0.854,-0.19708 0.5256,0.19708 0.5256,0.72263 v 23.97844 h 8.9344 q 0.7883,0 0.7883,0.78833 v 10.24832 q 0,0.78833 -0.7883,0.78833 h -8.9344 v 55.64311 q 0,0.78833 -0.7884,0.78833 z"
               id="path49816" />
            <path
               d="m 2071.9244,341.31502 q -0.7883,0 -0.7883,-0.78833 v -66.61406 q 0,-0.78833 0.7883,-0.78833 h 13.4017 q 0.7226,0 0.7226,0.78833 v 66.61406 q 0,0.78833 -0.7226,0.78833 z m 0,-80.0814 q -0.7883,0 -0.7883,-0.78833 v -13.40164 q 0,-0.78834 0.7883,-0.78834 h 13.4017 q 0.7226,0 0.7226,0.78834 v 13.40164 q 0,0.78833 -0.7226,0.78833 z"
               id="path49818" />
            <path
               d="m 2100.3876,307.15397 q 0,-10.70818 1.7738,-16.22651 1.708,-5.51832 5.6497,-9.78845 2.7592,-2.95625 7.7519,-5.8468 4.9928,-2.89055 13.0732,-2.89055 8.0147,0 12.9418,2.89055 2.5621,1.44528 4.4672,2.89055 1.9708,1.44528 3.4161,2.95625 3.876,4.27013 5.6497,9.78845 1.7081,5.64972 1.7081,16.22651 0,10.90526 -1.7081,16.42358 -1.7737,5.38694 -5.6497,9.78846 -2.9562,3.15333 -7.8833,5.97818 -4.9271,2.75917 -12.9418,2.75917 -8.0804,0 -13.0732,-2.75917 -2.2336,-1.31388 -4.2701,-2.89055 -1.9708,-1.57666 -3.4818,-3.08763 -4.0073,-4.40152 -5.6497,-9.78846 -1.7738,-5.38693 -1.7738,-16.42358 z m 41.5189,0.13139 q 0,-6.89791 -0.7227,-9.98554 -0.6569,-2.82486 -2.4307,-5.38694 -1.708,-2.23361 -4.2701,-3.41611 -2.4964,-1.18249 -5.8468,-1.18249 -6.9636,0 -10.1169,4.5986 -0.9197,1.31389 -1.5767,2.62777 -0.5912,1.2482 -0.9197,2.75917 -0.6569,2.82485 -0.6569,9.85415 0,3.54749 0.1313,6.10957 0.1971,2.56208 0.5256,4.07305 0.5912,2.82486 2.4964,5.32124 3.0876,4.53291 10.1169,4.53291 6.7008,0 10.1169,-4.53291 1.7081,-2.56208 2.4307,-5.32124 0.7227,-3.21902 0.7227,-10.05123 z"
               id="path49820" />
            <path
               d="m 2172.209,341.31502 q -0.7883,0 -0.7883,-0.78833 v -66.61406 q 0,-0.78833 0.7883,-0.78833 h 13.4017 q 0.7883,0 0.7883,0.78833 v 5.38694 q 6.3067,-6.89791 16.8178,-6.89791 4.073,0 7.8833,1.51097 3.8103,1.51097 7.6205,4.53291 7.4892,6.10957 7.4892,17.80317 v 44.27798 q 0,0.78833 -0.7883,0.78833 h -13.4017 q -0.7883,0 -0.7883,-0.78833 v -39.67938 q 0,-6.50374 -3.4818,-9.98554 -3.6789,-3.54749 -8.8031,-3.54749 -5.5183,0 -9.0658,3.54749 -3.4818,3.4818 -3.4818,9.98554 v 39.67938 q 0,0.78833 -0.7883,0.78833 z"
               id="path49822" />
          </g>
        </g>
      </g>
    </g>
  </g>
</svg>
