<?xml version="1.0" encoding="UTF-8" standalone="no"?>
<svg
   version="1.1"
   id="Layer_1"
   x="0px"
   y="0px"
   viewBox="0 0 182 57"
   enable-background="new 0 0 122 57"
   sodipodi:docname="QL_279D,_VNM.svg"
   width="182"
   height="57"
   inkscape:version="1.1 (c4e8f9e, 2021-05-24)"
   xmlns:inkscape="http://www.inkscape.org/namespaces/inkscape"
   xmlns:sodipodi="http://sodipodi.sourceforge.net/DTD/sodipodi-0.dtd"
   xmlns="http://www.w3.org/2000/svg"
   xmlns:svg="http://www.w3.org/2000/svg">
  <defs
     id="defs865" />
  <sodipodi:namedview
     id="namedview863"
     pagecolor="#ffffff"
     bordercolor="#666666"
     borderopacity="1.0"
     inkscape:pageshadow="2"
     inkscape:pageopacity="0.0"
     inkscape:pagecheckerboard="0"
     showgrid="false"
     inkscape:zoom="3.324"
     inkscape:cx="152.4"
     inkscape:cy="24.82"
     inkscape:window-width="1920"
     inkscape:window-height="965"
     inkscape:window-x="0"
     inkscape:window-y="23"
     inkscape:window-maximized="1"
     inkscape:current-layer="Layer_1" />
  <path
     fill="#ffffff"
     stroke="#000000"
     stroke-width="2"
     stroke-miterlimit="10"
     d="M 181,54 V 3 c 0,-1.1 -0.9,-2 -2,-2 H 3 C 1.9,1 1,1.9 1,3 v 51 c 0,1.1 0.9,2 2,2 h 176 c 1.1,0 2,-0.9 2,-2 z"
     id="path850"
     sodipodi:nodetypes="sssssssss" />
  <g
     aria-label="QL.279D"
     id="text4319"
     style="font-size:47.9564px;font-family:'Russian Road Sign';-inkscape-font-specification:'Russian Road Sign';letter-spacing:0px;word-spacing:0px;stroke-width:2.99728">
    <path
       d="m 26.07,39.24 c -0.95,0.72 -2.25,1.2 -3.83,1.2 -2.45,0 -4.22,-1.15 -5.28,-2.5 -1.34,-1.72 -1.72,-2.68 -1.72,-9.68 0,-7 0.38,-7.96 1.72,-9.69 1.06,-1.34 2.83,-2.49 5.28,-2.49 2.44,0 4.22,1.15 5.27,2.49 1.35,1.73 1.73,2.69 1.73,9.69 0,3.79 -0.1,5.85 -0.48,7.14 l -3.98,-3.16 -3.07,3.55 z m 8.54,6.86 3.07,-3.55 -4.51,-3.6 c 0.96,-1.77 1.25,-3.31 1.25,-10.69 0,-8.2 -0.38,-9.21 -1.49,-11.22 -1.63,-2.98 -5.32,-6.14 -10.69,-6.14 -5.37,0 -9.07,3.16 -10.7,6.14 -1.1,2.01 -1.48,3.02 -1.48,11.22 0,8.2 0.38,9.21 1.48,11.22 1.63,2.97 5.33,6.14 10.7,6.14 3.36,0 6.04,-1.25 8.05,-2.98 z"
       style="-inkscape-font-specification:'DIN 1451 Std'"
       id="path45038" />
    <path
       d="M 40.43,45.33 H 62.25 V 40.44 H 45.61 V 11.19 h -5.18 z"
       style="-inkscape-font-specification:'DIN 1451 Std'"
       id="path45040" />
    <path
       d="m 66.84,45.33 h 4.89 v -4.89 h -4.89 z"
       style="-inkscape-font-specification:'DIN 1451 Std'"
       id="path45042" />
    <path
       d="M 76.58,45.33 H 96.06 V 40.44 H 83.01 L 93.99,26.67 c 1.44,-1.77 2.07,-3.74 2.07,-5.99 0,-5.42 -4.27,-9.78 -9.98,-9.78 -5.13,0 -9.45,4.27 -9.5,9.83 h 4.9 c 0.24,-3.07 2.35,-4.94 4.98,-4.94 2.93,0 4.7,2.44 4.7,4.84 0,1.01 -0.19,2.06 -1.24,3.41 L 76.58,40.73 Z"
       style="-inkscape-font-specification:'DIN 1451 Std'"
       id="path45044" />
    <path
       d="m 100.5,21.02 h 4.9 v -4.94 h 9.1 l -11.6,29.25 h 5.5 L 120,16.08 v -4.89 h -19.5 z"
       style="-inkscape-font-specification:'DIN 1451 Std'"
       id="path45046" />
    <path
       d="m 141.1,27.01 c 0.9,-1.73 1.3,-3.69 1.3,-5.71 0,-6.42 -4.7,-10.4 -9.5,-10.4 -5.1,0 -10,3.11 -10,10.93 0,6.62 3.8,9.5 8.1,9.5 0.8,0 1.9,-0.15 2.6,-0.43 h 0.1 l -7.2,14.43 h 5.5 z m -8.5,0 c -2.6,0 -4.8,-1.77 -4.8,-5.61 0,-4.08 2.6,-5.61 4.8,-5.61 3,0 4.9,1.77 4.9,5.61 0,3.84 -2.2,5.61 -4.9,5.61 z"
       style="-inkscape-font-specification:'DIN 1451 Std'"
       id="path45048" />
    <path
       d="m 147.8,45.33 h 11.6 c 5.1,0 8.6,-2.49 10.6,-5.66 1.6,-2.4 1.9,-3.74 1.9,-11.41 0,-7.15 -0.1,-8.44 -1.8,-11.32 -2.2,-3.74 -5.9,-5.75 -10.4,-5.75 H 147.8 Z M 153,16.08 h 6.1 c 2.8,0 4.5,0.72 6.1,2.87 1.4,1.87 1.6,3.36 1.6,9.5 0,6.33 -0.2,7.29 -1.3,9.02 -1.4,1.96 -3.4,2.97 -6.4,2.97 H 153 Z"
       style="-inkscape-font-specification:'DIN 1451 Std'"
       id="path45050" />
  </g>
  <text
     xml:space="preserve"
     style="font-size:16px;line-height:1.45;font-family:SnvDExtCon;-inkscape-font-specification:SnvDExtCon;letter-spacing:0px;word-spacing:0px"
     x="30.09"
     y="-7.686"
     id="text3127"><tspan
       sodipodi:role="line"
       id="tspan3125"
       x="30.09"
       y="-7.686" /></text>
</svg>
