<?xml version="1.0" encoding="UTF-8" standalone="no"?>
<svg
   sodipodi:docname="Vietnam_road_sign_I444.svg"
   inkscape:version="1.2.2 (732a01da63, 2022-12-09)"
   id="svg848"
   version="1.1"
   viewBox="0 0 1681.3697 500"
   height="500mm"
   width="1681.3698mm"
   xml:space="preserve"
   xmlns:inkscape="http://www.inkscape.org/namespaces/inkscape"
   xmlns:sodipodi="http://sodipodi.sourceforge.net/DTD/sodipodi-0.dtd"
   xmlns="http://www.w3.org/2000/svg"
   xmlns:svg="http://www.w3.org/2000/svg"
   xmlns:rdf="http://www.w3.org/1999/02/22-rdf-syntax-ns#"
   xmlns:cc="http://creativecommons.org/ns#"
   xmlns:dc="http://purl.org/dc/elements/1.1/"><defs
     id="defs842"><clipPath
       clipPathUnits="userSpaceOnUse"
       id="clipPath92633"><g
         id="g92639"
         transform="matrix(0.99999998,0,0,-0.99999998,472.81977,521.37449)"><g
           id="g92637"><path
             clip-rule="nonzero"
             d="m -458.81977,519.39402 h 424 V 151.37449 h -424 z m 0,0"
             id="path92635" /></g></g></clipPath><clipPath
       clipPathUnits="userSpaceOnUse"
       id="clipPath92693"><g
         id="g92699"
         transform="matrix(0.99999998,0,0,-0.99999998,472.81977,521.37449)"><g
           id="g92697"><path
             clip-rule="nonzero"
             d="m -445.81977,519.39402 h 424 V 151.37449 h -424 z m 0,0"
             id="path92695" /></g></g></clipPath><clipPath
       clipPathUnits="userSpaceOnUse"
       id="clipPath92618"><g
         id="g92624"
         transform="matrix(0.99999998,0,0,-0.99999998,472.81977,521.37449)"><g
           id="g92622"><path
             clip-rule="nonzero"
             d="m -433.81977,519.39402 h 423 V 151.37449 h -423 z m 0,0"
             id="path92620" /></g></g></clipPath><clipPath
       clipPathUnits="userSpaceOnUse"
       id="clipPath92603"><g
         id="g92609"
         transform="matrix(0.99999998,0,0,-0.99999998,472.81977,521.37449)"><g
           id="g92607"><path
             clip-rule="nonzero"
             d="m -414.81977,519.39402 h 424 V 151.37449 h -424 z m 0,0"
             id="path92605" /></g></g></clipPath><clipPath
       clipPathUnits="userSpaceOnUse"
       id="clipPath92755"><g
         id="g92761"
         transform="matrix(0.99999998,0,0,-0.99999998,472.81977,521.37449)"><g
           id="g92759"><path
             clip-rule="nonzero"
             d="m -402.81977,519.39402 h 424 V 151.37449 h -424 z m 0,0"
             id="path92757" /></g></g></clipPath><clipPath
       clipPathUnits="userSpaceOnUse"
       id="clipPath92740"><g
         id="g92746"
         transform="matrix(0.99999998,0,0,-0.99999998,472.81977,521.37449)"><g
           id="g92744"><path
             clip-rule="nonzero"
             d="m -385.81977,519.39402 h 424 V 151.37449 h -424 z m 0,0"
             id="path92742" /></g></g></clipPath><clipPath
       clipPathUnits="userSpaceOnUse"
       id="clipPath92709"><g
         id="g92715"
         transform="matrix(0.99999998,0,0,-0.99999998,472.81977,521.37449)"><g
           id="g92713"><path
             clip-rule="nonzero"
             d="m -372.81977,519.39402 h 424 V 151.37449 h -424 z m 0,0"
             id="path92711" /></g></g></clipPath><clipPath
       clipPathUnits="userSpaceOnUse"
       id="clipPath92785"><g
         id="g92791"
         transform="matrix(0.99999998,0,0,-0.99999998,472.81977,521.37449)"><g
           id="g92789"><path
             clip-rule="nonzero"
             d="m -358.81977,519.39402 h 424 V 151.37449 h -424 z m 0,0"
             id="path92787" /></g></g></clipPath><clipPath
       clipPathUnits="userSpaceOnUse"
       id="clipPath92725"><g
         id="g92731"
         transform="matrix(0.99999998,0,0,-0.99999998,472.81977,521.37449)"><g
           id="g92729"><path
             clip-rule="nonzero"
             d="m -345.81977,519.39402 h 424 V 151.37449 h -424 z m 0,0"
             id="path92727" /></g></g></clipPath><clipPath
       clipPathUnits="userSpaceOnUse"
       id="clipPath92770"><g
         id="g92776"
         transform="matrix(0.99999998,0,0,-0.99999998,472.81977,521.37449)"><g
           id="g92774"><path
             clip-rule="nonzero"
             d="m -333.81977,519.39402 h 424 V 151.37449 h -424 z m 0,0"
             id="path92772" /></g></g></clipPath><clipPath
       id="clip-0"><path
         clip-rule="nonzero"
         d="M 34,1.980469 H 458 V 378 H 34 Z m 0,0"
         id="path14613" /></clipPath><clipPath
       id="clip-1"><path
         clip-rule="nonzero"
         d="M 46,1.980469 H 469 V 378 H 46 Z m 0,0"
         id="path14616" /></clipPath><clipPath
       id="clip-2"><path
         clip-rule="nonzero"
         d="M 59,1.980469 H 483 V 378 H 59 Z m 0,0"
         id="path14619" /></clipPath><clipPath
       id="clip-3"><path
         clip-rule="nonzero"
         d="M 73,1.980469 H 497 V 378 H 73 Z m 0,0"
         id="path14622" /></clipPath><clipPath
       id="clip-5"><path
         clip-rule="nonzero"
         d="M 91,1.980469 H 515 V 378 H 91 Z m 0,0"
         id="path14628" /></clipPath><clipPath
       id="clip-6"><path
         clip-rule="nonzero"
         d="M 105,1.980469 H 529 V 378 H 105 Z m 0,0"
         id="path14631" /></clipPath><clipPath
       id="clip-7"><path
         clip-rule="nonzero"
         d="M 119,1.980469 H 543 V 378 H 119 Z m 0,0"
         id="path14634" /></clipPath><clipPath
       id="clip-8"><path
         clip-rule="nonzero"
         d="M 131,1.980469 H 555 V 378 H 131 Z m 0,0"
         id="path14637" /></clipPath><clipPath
       id="clip-9"><path
         clip-rule="nonzero"
         d="M 146,1.980469 H 570 V 378 H 146 Z m 0,0"
         id="path14640" /></clipPath></defs><sodipodi:namedview
     inkscape:document-rotation="0"
     inkscape:measure-end="0,0"
     inkscape:measure-start="0,0"
     showguides="false"
     fit-margin-bottom="0"
     fit-margin-right="0"
     fit-margin-left="0"
     fit-margin-top="0"
     inkscape:window-maximized="1"
     inkscape:window-y="-9"
     inkscape:window-x="-9"
     inkscape:window-height="991"
     inkscape:window-width="1920"
     inkscape:snap-global="false"
     showgrid="false"
     inkscape:current-layer="text2903"
     inkscape:document-units="mm"
     inkscape:cy="1793.1357"
     inkscape:cx="3398.1265"
     inkscape:zoom="0.13021881"
     inkscape:pageshadow="2"
     inkscape:pageopacity="0.0"
     borderopacity="1.0"
     bordercolor="#666666"
     pagecolor="#ffffff"
     id="base"
     inkscape:showpageshadow="2"
     inkscape:pagecheckerboard="0"
     inkscape:deskcolor="#d1d1d1" /><metadata
     id="metadata845"><rdf:RDF><cc:Work
         rdf:about=""><dc:format>image/svg+xml</dc:format><dc:type
           rdf:resource="http://purl.org/dc/dcmitype/StillImage" /></cc:Work></rdf:RDF></metadata><g
     transform="translate(-530.52646,11.947886)"
     id="layer1"
     inkscape:groupmode="layer"
     inkscape:label="Layer 1"><path
       inkscape:connector-curvature="0"
       d=""
       style="opacity:1;fill:#d35f5f;fill-opacity:1;fill-rule:nonzero;stroke:none;stroke-width:3.92256;stroke-linecap:butt;stroke-linejoin:miter;stroke-miterlimit:4;stroke-dasharray:none;stroke-opacity:1;paint-order:stroke fill markers"
       id="path8376"
       r="150"
       cy="147"
       cx="150" /><g
       inkscape:groupmode="layer"
       transform="translate(-4496.0426,2396.6803)"
       id="text3577"
       style="font-style:normal;font-variant:normal;font-weight:bold;font-stretch:normal;font-size:299.854px;line-height:0;font-family:Giaothong1;-inkscape-font-specification:'Giaothong1 Bold';letter-spacing:0px;word-spacing:0px;fill:#ffcc00;fill-opacity:1;stroke:none;stroke-width:1.56174"
       aria-label="VỊNH"><g
         id="text3665"
         style="font-style:normal;font-variant:normal;font-weight:bold;font-stretch:normal;font-size:299.854px;line-height:0;font-family:Giaothong1;-inkscape-font-specification:'Giaothong1 Bold';letter-spacing:-2.78077px;word-spacing:0px;fill:#ffcc00;fill-opacity:1;stroke:none;stroke-width:2.43903"
         aria-label="VỊNH" /></g><g
       inkscape:groupmode="layer"
       id="text2719"
       style="font-style:normal;font-variant:normal;font-weight:bold;font-stretch:normal;font-size:184.173px;line-height:0;font-family:Giaothong1;-inkscape-font-specification:'Giaothong1 Bold';letter-spacing:0px;word-spacing:0.486833px;fill:#ffffff;fill-opacity:1;stroke:none;stroke-width:0.959232"
       aria-label="CÔNG TRƯỜNG"><g
         inkscape:groupmode="layer"
         id="text2888"
         style="font-style:normal;font-variant:normal;font-weight:bold;font-stretch:normal;font-size:187.408px;line-height:0;font-family:Giaothong1;-inkscape-font-specification:'Giaothong1 Bold';letter-spacing:0.00264583px;word-spacing:0px;fill:#ffffff;fill-opacity:1;stroke:none;stroke-width:0.936293"
         aria-label="AHEAD"><g
           inkscape:groupmode="layer"
           id="text2903"
           style="font-style:normal;font-variant:normal;font-weight:bold;font-stretch:normal;font-size:184.173px;line-height:0;font-family:Giaothong1;-inkscape-font-specification:'Giaothong1 Bold';letter-spacing:0.00529167px;word-spacing:0px;fill:#ffffff;fill-opacity:1;stroke:none;stroke-width:0.898123"
           aria-label="WORKS"><path
             d="m 708.33916,-11.947699 1503.55704,-1.87e-4 V 488.05211 H 708.33916 L 530.52646,238.0523 Z"
             style="opacity:1;fill:#0046aa;fill-opacity:1;fill-rule:nonzero;stroke:none;stroke-width:1.27163;stroke-linecap:butt;stroke-linejoin:miter;stroke-miterlimit:10;stroke-dasharray:none;stroke-opacity:1;paint-order:stroke fill markers"
             id="rect1393"
             sodipodi:nodetypes="cccccc" /><path
             id="rect1395"
             style="opacity:1;fill:#ffffff;fill-opacity:1;fill-rule:nonzero;stroke:none;stroke-width:1.22924;stroke-linecap:butt;stroke-linejoin:miter;stroke-miterlimit:10;stroke-dasharray:none;stroke-opacity:1;paint-order:stroke fill markers"
             d="M 710.47731,-3.6148361 540.46021,238.0523 710.47731,479.72219 H 2203.5584 V -3.6148361 Z m 8.3265,8.33846 h 68.59 V 471.38374 h -68.59 L 554.2984,238.0523 Z m 536.58179,0 h 939.8462 V 471.38374 h -939.8462 z"
             sodipodi:nodetypes="ccccccccccccccccc" /><g
             id="g71683"
             transform="translate(-84.093397,-614.59523)" /><g
             id="g18529"
             transform="translate(-2.0202787)"><g
               aria-label="TRẠM XĂNG DẦU"
               transform="scale(0.94492183,1.0582886)"
               id="text18017"
               style="font-size:125.433px;font-family:BywayEModified;-inkscape-font-specification:BywayEModified;text-align:center;text-anchor:middle;fill-rule:evenodd;stroke-width:118.519;stroke-linecap:round;stroke-linejoin:round;paint-order:stroke fill markers"><path
                 d="m 1396.9274,189.20054 q -0.735,0 -0.735,-0.73495 v -75.21081 h -23.3349 q -0.735,0 -0.735,-0.73496 v -11.82059 q 0,-0.734955 0.735,-0.734955 h 61.3691 q 0.7349,0 0.7349,0.734955 v 11.82059 q 0,0.73496 -0.7349,0.73496 h -23.2737 v 75.21081 q 0,0.73495 -0.735,0.73495 z"
                 style="font-weight:normal;font-family:Giaothong2;-inkscape-font-specification:Giaothong2"
                 id="path18486" /><path
                 d="m 1458.6692,113.25478 v 25.17235 h 19.4152 q 7.1046,0 10.6569,-3.91978 3.5523,-3.91978 3.5523,-9.30948 0,-3.06233 -1.1024,-5.45095 -1.0412,-2.38862 -3.0624,-3.91978 -1.7761,-1.22493 -4.1647,-1.89864 -2.3274,-0.67372 -5.0835,-0.67372 z m -14.0254,75.94576 q -0.735,0 -0.735,-0.73495 v -87.76636 q 0,-0.734955 0.735,-0.734955 h 34.3593 q 5.6959,0 10.2894,1.592415 4.5935,1.53116 8.0233,4.40975 1.7762,1.65366 3.3686,3.79729 1.6536,2.08238 2.8786,4.53225 1.2862,2.44986 2.0211,5.20595 0.735,2.7561 0.735,5.69594 0,4.3485 -1.225,8.26829 -1.2249,3.85853 -3.4298,7.22709 -2.2661,3.12358 -5.2672,5.51219 -3.0011,2.32737 -6.7983,3.73605 4.9609,9.49322 9.9831,19.10893 5.0223,9.55447 9.9832,19.04769 0.1838,0.42872 0,0.7962 -0.1837,0.30623 -0.6124,0.30623 h -15.8016 q -0.1838,0 -0.3675,-0.12249 -0.1838,-0.18374 -0.3063,-0.30623 l -17.9452,-37.05418 h -15.8629 v 36.74795 q 0,0.73495 -0.7349,0.73495 z"
                 style="font-weight:normal;font-family:Giaothong2;-inkscape-font-specification:Giaothong2"
                 id="path18488" /><path
                 d="m 1512.5103,189.1393 q -0.4288,0 -0.6125,-0.30624 -0.1837,-0.30623 -0.061,-0.67371 l 32.0932,-87.8276 q 0.1225,-0.489968 0.6124,-0.489968 h 10.9632 q 0.1837,0 0.3674,0.183738 0.245,0.12249 0.3063,0.30623 l 32.0319,87.8276 q 0.1225,0.36748 -0.061,0.67371 -0.1837,0.30624 -0.5512,0.30624 h -14.0255 q -0.49,0 -0.6125,-0.48998 l -6.6146,-19.35391 h -32.3382 q -1.7149,4.96097 -3.4298,9.7382 -1.6536,4.71599 -3.3686,9.61571 -0.061,0.18374 -0.3062,0.36748 -0.1837,0.1225 -0.3675,0.1225 z m 49.426,-33.01191 q -0.1225,-0.42873 -0.3675,-0.9187 -0.1838,-0.48997 -0.3063,-0.85745 -1.0411,-3.00108 -1.8986,-5.51219 -0.8574,-2.57236 -1.5312,-4.471 -0.4287,-1.22494 -0.8574,-2.38862 -0.3675,-1.16369 -0.735,-2.20488 -0.3062,-0.97994 -0.6124,-1.83739 -0.3063,-0.9187 -0.6125,-1.77616 -0.5512,-1.77615 -1.1637,-3.5523 -0.5512,-1.77615 -1.1637,-3.67479 -0.3062,-0.85745 -0.6737,-1.89865 -0.3062,-1.04119 -0.6737,-2.20487 -0.1837,-0.61247 -0.3062,-0.9187 -0.061,-0.36748 -0.1838,-0.67371 -0.1225,-0.36748 -0.3062,-0.79621 -0.1225,-0.42873 -0.3675,-1.22493 -0.6737,2.02114 -1.2862,3.73604 -0.5512,1.7149 -1.0412,3.18482 -0.1224,0.36748 -0.1837,0.67371 -0.061,0.30624 -0.1837,0.61247 -0.3063,1.04119 -0.6737,1.95989 -0.3063,0.9187 -0.6125,1.8374 -0.3062,0.97994 -0.6125,1.89864 -0.3062,0.9187 -0.6124,1.77615 -0.6125,1.8374 -1.2862,3.85854 -0.6125,2.02114 -1.4087,4.22601 -0.7962,2.20488 -1.6536,4.77724 -0.8575,2.51111 -2.2049,6.36964 z m -17.8228,57.20431 q -0.6737,0 -0.6737,-0.67372 v -11.82059 q 0,-0.67371 0.6737,-0.67371 h 11.8818 q 0.6125,0 0.6125,0.67371 v 11.82059 q 0,0.67372 -0.6125,0.67372 z"
                 style="font-weight:normal;font-family:Giaothong2;-inkscape-font-specification:Giaothong2"
                 id="path18490" /><path
                 d="m 1599.3632,189.20054 q -0.7349,0 -0.7349,-0.73495 v -87.76636 q 0,-0.734955 0.7349,-0.734955 h 12.5556 q 0.4287,0 0.6737,0.428725 l 24.5599,55.67314 q 5.9409,-14.02546 11.943,-27.80594 6.0022,-13.84173 12.0044,-27.8672 0.1837,-0.428725 0.6737,-0.428725 h 12.5555 q 0.735,0 0.735,0.734955 v 87.76636 q 0,0.73495 -0.735,0.73495 h -13.2905 q -0.7349,0 -0.7349,-0.73495 v -51.81461 q -4.2873,9.98319 -8.6358,19.84389 -4.3485,9.8607 -8.5745,19.78265 -0.245,0.36747 -0.6737,0.36747 h -11.0857 q -0.4287,0 -0.6737,-0.36747 l -17.2715,-39.74904 v 51.93711 q 0,0.73495 -0.735,0.73495 z"
                 style="font-weight:normal;font-family:Giaothong2;-inkscape-font-specification:Giaothong2"
                 id="path18492" /><path
                 d="m 1769.0881,189.20054 q -0.3675,0 -0.6125,-0.36748 l -18.619,-31.60323 q -4.6547,7.96205 -9.3094,15.80162 -4.6548,7.83956 -9.3095,15.80161 -0.245,0.36748 -0.6125,0.36748 h -15.0054 q -0.49,0 -0.6737,-0.30623 -0.1837,-0.36748 0.061,-0.7962 l 26.6423,-44.64876 q -6.3084,-10.65691 -12.4943,-21.19132 -6.1859,-10.53441 -12.4331,-21.19132 -0.2449,-0.42872 -0.061,-0.73496 0.1837,-0.367475 0.6125,-0.367475 h 15.0666 q 0.3675,0 0.6125,0.367475 l 16.904,29.39836 q 4.2261,-7.34959 8.4521,-14.63793 4.226,-7.34959 8.452,-14.76043 0.245,-0.367475 0.6125,-0.367475 h 15.0666 q 0.4288,0 0.6125,0.367475 0.1837,0.30624 -0.061,0.73496 l -24.9273,42.38264 q 6.7371,11.20812 13.3517,22.355 6.6147,11.08563 13.3518,22.29376 0.245,0.42872 0.061,0.7962 -0.1837,0.30623 -0.6737,0.30623 z"
                 style="font-weight:normal;font-family:Giaothong2;-inkscape-font-specification:Giaothong2"
                 id="path18494" /><path
                 d="m 1786.0587,189.1393 q -0.4288,0 -0.6125,-0.30624 -0.1837,-0.30623 -0.061,-0.67371 l 32.0932,-87.8276 q 0.1225,-0.489968 0.6124,-0.489968 h 10.9632 q 0.1837,0 0.3675,0.183738 0.2449,0.12249 0.3062,0.30623 l 32.0319,87.8276 q 0.1225,0.36748 -0.061,0.67371 -0.1837,0.30624 -0.5512,0.30624 h -14.0255 q -0.49,0 -0.6125,-0.48998 l -6.6146,-19.35391 h -32.3382 q -1.7149,4.96097 -3.4298,9.7382 -1.6536,4.71599 -3.3685,9.61571 -0.061,0.18374 -0.3063,0.36748 -0.1837,0.1225 -0.3675,0.1225 z m 49.426,-33.01191 q -0.1225,-0.42873 -0.3675,-0.9187 -0.1838,-0.48997 -0.3063,-0.85745 -1.0411,-3.00108 -1.8986,-5.51219 -0.8574,-2.57236 -1.5312,-4.471 -0.4287,-1.22494 -0.8574,-2.38862 -0.3675,-1.16369 -0.735,-2.20488 -0.3062,-0.97994 -0.6124,-1.83739 -0.3063,-0.9187 -0.6125,-1.77616 -0.5512,-1.77615 -1.1637,-3.5523 -0.5512,-1.77615 -1.1637,-3.67479 -0.3062,-0.85745 -0.6737,-1.89865 -0.3062,-1.04119 -0.6737,-2.20487 -0.1837,-0.61247 -0.3062,-0.9187 -0.061,-0.36748 -0.1838,-0.67371 -0.1225,-0.36748 -0.3062,-0.79621 -0.1225,-0.42873 -0.3675,-1.22493 -0.6737,2.02114 -1.2862,3.73604 -0.5512,1.7149 -1.0412,3.18482 -0.1224,0.36748 -0.1837,0.67371 -0.061,0.30624 -0.1837,0.61247 -0.3063,1.04119 -0.6737,1.95989 -0.3063,0.9187 -0.6125,1.8374 -0.3062,0.97994 -0.6125,1.89864 -0.3062,0.9187 -0.6124,1.77615 -0.6125,1.8374 -1.2862,3.85854 -0.6125,2.02114 -1.4087,4.22601 -0.7962,2.20488 -1.6536,4.77724 -0.8575,2.51111 -2.2049,6.36964 z m -22.2938,-80.845487 q 1.4699,7.288343 10.4119,7.349589 9.3095,-0.122493 9.7382,-7.349589 h 8.8195 q 0,3.981027 -1.4699,6.737124 -1.4087,2.694849 -3.9198,5.205959 -4.9609,4.715987 -12.8617,4.83848 -8.3908,-0.122493 -13.7193,-4.715987 -2.4498,-2.449863 -3.7973,-4.777233 -1.3474,-2.32737 -1.4086,-7.288343 z"
                 style="font-weight:normal;font-family:Giaothong2;-inkscape-font-specification:Giaothong2"
                 id="path18496" /><path
                 d="m 1872.8504,189.20054 q -0.735,0 -0.735,-0.73495 v -87.76636 q 0,-0.734955 0.735,-0.734955 h 12.6167 q 0.3675,0 0.6125,0.367475 l 38.5854,60.75661 v -60.38913 q 0,-0.734955 0.7349,-0.734955 h 13.3518 q 0.7349,0 0.7349,0.734955 v 87.76636 q 0,0.73495 -0.7349,0.73495 h -12.5556 q -0.3675,0 -0.6124,-0.36748 l -38.7079,-60.7566 v 60.38913 q 0,0.73495 -0.6737,0.73495 z"
                 style="font-weight:normal;font-family:Giaothong2;-inkscape-font-specification:Giaothong2"
                 id="path18498" /><path
                 d="m 1987.0805,153.49379 q -0.7349,0 -0.7349,-0.73496 v -12.6168 q 0,-0.67371 0.7349,-0.67371 h 31.1745 q 0.735,0 0.735,0.67371 v 17.884 q 0,13.5355 -9.3095,22.66124 -9.432,9.24823 -22.7225,9.24823 -10.5956,0 -17.8227,-5.08346 -7.1046,-5.02222 -10.2894,-11.02439 h 0.061 q -1.1637,-2.08238 -1.9599,-4.16477 -0.7962,-2.14363 -1.2249,-4.471 -0.3675,-2.32737 -0.6125,-7.41083 -0.1837,-5.14472 -0.1837,-13.16802 0,-8.0233 0.1837,-13.10677 0.245,-5.08346 0.6125,-7.41083 0.4287,-2.32737 1.2249,-4.471 0.7962,-2.14363 1.9599,-4.22602 h -0.061 q 3.1848,-5.94091 10.2894,-11.02438 7.1658,-5.144714 17.8227,-5.144714 12.7393,0 21.0689,7.839564 8.452,7.83956 10.4731,18.74145 0.1225,0.36748 -0.1225,0.61247 -0.245,0.24498 -0.6124,0.24498 h -14.0255 q -0.5512,0 -0.6737,-0.48997 -0.7962,-2.44986 -2.2661,-4.53225 -1.47,-2.14363 -3.6136,-3.98102 -4.0423,-3.61355 -10.2282,-3.61355 -4.5935,0 -7.8395,1.8374 -3.2461,1.83739 -5.206,4.22601 -1.1637,1.46992 -2.0211,3.36856 -0.8575,1.8374 -1.3474,3.79729 -0.49,2.08238 -0.6738,6.43089 -0.1837,4.34851 -0.1837,10.90189 0,6.67588 0.1837,11.02439 0.1838,4.28726 0.6738,6.36964 0.4899,1.89865 1.3474,3.79729 0.9187,1.8374 2.0211,3.24607 1.9599,2.57236 5.206,4.40975 3.246,1.77615 7.8395,1.77615 7.2884,0 12.2494,-4.96097 5.0222,-4.96097 5.0222,-12.98427 v -3.79729 z"
                 style="font-weight:normal;font-family:Giaothong2;-inkscape-font-specification:Giaothong2"
                 id="path18500" /><path
                 d="m 2065.1805,189.20054 q -0.7349,0 -0.7349,-0.73495 v -87.76636 q 0,-0.734955 0.7349,-0.734955 h 30.7458 q 18.374,0 27.316,15.127905 1.6536,2.93984 2.6948,5.57344 1.0412,2.6336 1.4087,5.14471 0.735,4.89973 0.735,18.8027 0,14.88292 -1.0412,19.96639 -0.49,2.57235 -1.4699,5.02222 -0.98,2.38861 -2.5724,4.77723 v -0.0613 q -3.981,6.3084 -11.0244,10.59566 -7.1658,4.28726 -16.904,4.28726 z m 14.0255,-75.14955 v 61.18533 h 15.2504 q 10.5344,0 15.6791,-7.34959 2.0212,-3.24607 2.5724,-6.79837 0.3062,-1.95989 0.4287,-5.87967 0.1837,-3.98103 0.1837,-10.10568 0,-5.94092 -0.1837,-9.92195 -0.1837,-3.98103 -0.49,-6.3084 -0.6124,-4.28726 -3.1236,-7.77831 -5.2059,-7.04336 -15.0666,-7.04336 z"
                 style="font-weight:normal;font-family:Giaothong2;-inkscape-font-specification:Giaothong2"
                 id="path18502" /><path
                 d="m 2135.5581,189.1393 q -0.4287,0 -0.6124,-0.30624 -0.1838,-0.30623 -0.061,-0.67371 l 32.0932,-87.8276 q 0.1225,-0.489968 0.6125,-0.489968 h 10.9631 q 0.1838,0 0.3675,0.183738 0.245,0.12249 0.3062,0.30623 l 32.032,87.8276 q 0.1225,0.36748 -0.061,0.67371 -0.1837,0.30624 -0.5512,0.30624 h -14.0254 q -0.49,0 -0.6125,-0.48998 l -6.6146,-19.35391 h -32.3382 q -1.7149,4.96097 -3.4298,9.7382 -1.6537,4.71599 -3.3686,9.61571 -0.061,0.18374 -0.3062,0.36748 -0.1838,0.1225 -0.3675,0.1225 z m 49.426,-33.01191 q -0.1225,-0.42873 -0.3675,-0.9187 -0.1837,-0.48997 -0.3062,-0.85745 -1.0412,-3.00108 -1.8986,-5.51219 -0.8575,-2.57236 -1.5312,-4.471 -0.4287,-1.22494 -0.8575,-2.38862 -0.3674,-1.16369 -0.7349,-2.20488 -0.3063,-0.97994 -0.6125,-1.83739 -0.3062,-0.9187 -0.6125,-1.77616 -0.5512,-1.77615 -1.1636,-3.5523 -0.5513,-1.77615 -1.1637,-3.67479 -0.3063,-0.85745 -0.6737,-1.89865 -0.3063,-1.04119 -0.6737,-2.20487 -0.1838,-0.61247 -0.3063,-0.9187 -0.061,-0.36748 -0.1837,-0.67371 -0.1225,-0.36748 -0.3063,-0.79621 -0.1224,-0.42873 -0.3674,-1.22493 -0.6737,2.02114 -1.2862,3.73604 -0.5512,1.7149 -1.0412,3.18482 -0.1225,0.36748 -0.1837,0.67371 -0.061,0.30624 -0.1838,0.61247 -0.3062,1.04119 -0.6737,1.95989 -0.3062,0.9187 -0.6125,1.8374 -0.3062,0.97994 -0.6124,1.89864 -0.3063,0.9187 -0.6125,1.77615 -0.6125,1.8374 -1.2862,3.85854 -0.6124,2.02114 -1.4086,4.22601 -0.7962,2.20488 -1.6537,4.77724 -0.8574,2.51111 -2.2049,6.36964 z m -33.7469,-64.063924 q -0.5512,0 -0.6737,-0.489973 -0.1225,-0.489972 0.245,-0.796205 l 18.0065,-14.270454 h 8.2683 l 18.2515,14.270454 q 0.4287,0.306233 0.245,0.796205 -0.1225,0.489973 -0.6737,0.489973 h -10.2895 l -12.2493,-6.614631 q -2.6948,1.653658 -5.4509,3.307316 -2.7561,1.653657 -5.451,3.307315 z m 42.9339,-8.942001 q -0.1225,0 -0.3062,-0.06125 -0.1838,-0.122494 -0.245,-0.18374 l -16.9041,-17.884002 q -0.3675,-0.367479 -0.1837,-0.796206 0.245,-0.428726 0.7349,-0.428726 h 13.4743 q 0.3675,0 0.6125,0.36748 l 12.8005,17.884002 q 0.1837,0.428726 0,0.796205 -0.1225,0.306233 -0.6125,0.306233 z"
                 style="font-weight:normal;font-family:Giaothong2;-inkscape-font-specification:Giaothong2"
                 id="path18504" /><path
                 d="m 2220.0225,100.69923 q 0,-0.734955 0.7349,-0.734955 h 13.3518 q 0.6737,0 0.6737,0.734955 v 56.59185 q 0,8.8195 4.8997,13.35175 4.961,4.59349 12.3106,4.59349 7.2271,0 12.188,-4.59349 4.961,-4.59349 4.961,-13.35175 v -56.59185 q 0,-0.734955 0.735,-0.734955 h 13.2905 q 0.7349,0 0.7349,0.734955 v 58.06176 q 0,14.08672 -9.3707,22.66124 -9.2482,8.51327 -22.5387,8.51327 -13.3518,0 -22.6613,-8.51327 -9.3094,-8.57452 -9.3094,-22.66124 z"
                 style="font-weight:normal;font-family:Giaothong2;-inkscape-font-specification:Giaothong2"
                 id="path18506" /></g><path
               d="m 1581.9165,328.77931 c -0.4459,0 -0.6689,-0.22296 -0.6689,-0.66889 v -11.27214 c 0,-0.37161 0.223,-0.59458 0.6689,-0.59458 h 27.8707 c 0.4212,0 0.6441,0.17342 0.6441,0.59458 v 15.97919 c 0,8.05152 -2.7499,14.81481 -8.324,20.26508 -5.5989,5.49981 -12.3622,8.27449 -20.3147,8.27449 -6.2925,0 -11.5942,-1.51121 -15.9296,-4.5584 -4.2116,-2.97287 -7.2835,-6.26781 -9.1911,-9.83525 h 0.049 c -0.6689,-1.2387 -1.2635,-2.50217 -1.7342,-3.76564 -0.4707,-1.26347 -0.8423,-2.57649 -1.1148,-3.96383 -0.223,-1.36257 -0.3716,-3.59222 -0.5202,-6.66419 -0.099,-3.02242 -0.1735,-6.9367 -0.1735,-11.74285 0,-4.7566 0.05,-8.67087 0.1735,-11.71807 0.1238,-2.99764 0.2972,-5.2273 0.5202,-6.61464 0.2478,-1.36257 0.6194,-2.70036 1.1148,-3.98861 0.446,-1.26347 1.0158,-2.52694 1.7342,-3.79041 h -0.049 c 1.8828,-3.5179 4.9548,-6.81283 9.1911,-9.86003 4.2859,-3.04719 9.5875,-4.58317 15.9297,-4.58317 7.5808,0 13.8734,2.32874 18.8529,7.01102 5.0291,4.6575 8.1506,10.23164 9.3646,16.74718 0.05,0.22297 0.05,0.37161 -0.1239,0.54503 -0.1239,0.14864 -0.3221,0.22296 -0.545,0.22296 h -12.5356 c -0.3221,0 -0.5203,-0.14864 -0.5946,-0.44593 -0.4707,-1.43689 -1.1644,-2.82423 -2.0315,-4.06292 -0.8919,-1.26347 -1.9571,-2.45262 -3.2454,-3.54268 -2.403,-2.13055 -5.4255,-3.22061 -9.1416,-3.22061 -2.7251,0 -5.0538,0.54505 -6.9862,1.63508 -1.9324,1.09005 -3.4931,2.35353 -4.6575,3.76564 -0.6937,0.89186 -1.2882,1.88282 -1.8085,2.99764 -0.4955,1.09006 -0.9166,2.22966 -1.2139,3.41881 -0.2725,1.2387 -0.4955,3.14629 -0.5946,5.74756 -0.1239,2.57648 -0.1734,5.82187 -0.1734,9.73615 0,3.9886 0.049,7.25876 0.1734,9.83525 0.099,2.57649 0.2973,4.45931 0.5946,5.72278 0.2725,1.11483 0.6936,2.25443 1.2387,3.36926 0.5202,1.09005 1.1148,2.08101 1.7837,2.92333 1.1396,1.53598 2.7004,2.82422 4.6575,3.91428 1.9076,1.06528 4.2611,1.6103 6.9862,1.6103 4.3355,0 8.002,-1.46166 10.9501,-4.43453 2.9977,-2.9481 4.5089,-6.81283 4.5089,-11.5942 v -3.39404 h -15.3351"
               id="path17894"
               style="fill:#ffffff;fill-opacity:1;stroke-width:5.69601" /><path
               d="m 1653.8122,360.91111 c -0.4459,0 -0.6441,-0.22296 -0.6441,-0.64412 v -3.07197 c -0.4955,0.64413 -1.1148,1.21392 -1.7837,1.7094 -0.6689,0.49548 -1.4122,0.89186 -2.1554,1.18915 -1.1396,0.47071 -2.4526,0.81754 -3.9886,1.09006 -1.4864,0.24774 -3.1463,0.39638 -4.9548,0.39638 -6.2678,-0.14864 -11.0491,-1.88282 -14.3441,-5.15298 v 0.0496 c -3.5426,-3.22062 -5.3511,-7.40741 -5.3511,-12.53562 0,-4.75659 1.5359,-8.81952 4.5831,-12.08968 3.1216,-3.29493 7.68,-4.95479 13.5762,-5.05388 h 14.4184 v -5.20253 c 0.049,-4.50886 -3.394,-6.68896 -10.4051,-6.51554 -1.2634,0 -2.403,0.0743 -3.4435,0.17342 -1.0158,0.0991 -1.9572,0.29728 -2.7995,0.59457 h 0.05 c -0.7185,0.37161 -1.3626,0.79277 -1.982,1.33779 -0.5698,0.52026 -1.0652,1.16438 -1.4616,1.9076 -0.2478,0.42115 -0.5698,0.49548 -0.991,0.14864 l -8.547,-6.73851 c -0.1239,-0.0991 -0.223,-0.22297 -0.2725,-0.39639 -0.025,-0.17341 0,-0.29728 0.1239,-0.4707 4.2115,-5.72278 10.4793,-8.52224 18.7786,-8.32404 3.4436,-0.0248 6.5651,0.27251 9.2902,0.94141 2.7499,0.64412 5.1778,1.68463 7.3331,3.12151 4.2364,2.97287 6.3669,7.92766 6.4165,14.83959 v 38.05277 c 0,0.42116 -0.223,0.64412 -0.6442,0.64412 h -10.8014 m -0.6441,-23.58478 h -12.387 c -5.8466,0.14864 -8.8195,2.1801 -8.7452,6.06961 0,1.63508 0.7185,3.09674 2.2297,4.38498 1.536,1.3378 3.9638,2.00669 7.3331,2.00669 4.5088,0.0495 7.5808,-0.4707 9.315,-1.58553 h -0.05 c 1.536,-1.01573 2.304,-3.49312 2.304,-7.43218 v -3.44357"
               id="path17886"
               style="fill:#ffffff;fill-opacity:1;stroke-width:5.69601" /><path
               d="m 1679.4411,342.6775 c 0.2725,-0.27252 0.545,-0.32207 0.8175,-0.0495 4.7318,4.63273 10.4298,6.96148 17.094,6.96148 2.9729,0 5.4998,-0.5698 7.5561,-1.7094 0.8671,-0.54502 1.5607,-1.21392 2.0562,-2.03146 0.4707,-0.79277 0.7185,-1.68463 0.7185,-2.72514 0,-2.87377 -2.081,-4.48408 -6.2431,-4.83092 l -9.8352,-0.91665 c -2.304,-0.22296 -4.4346,-0.71844 -6.466,-1.48644 -2.0067,-0.76799 -3.7904,-1.83326 -5.376,-3.2206 -3.1215,-2.77468 -4.707,-6.6642 -4.707,-11.66853 0,-5.82188 2.0562,-10.25641 6.1935,-13.3036 4.0629,-2.9481 9.092,-4.43454 15.1121,-4.43454 2.4526,0 4.7566,0.17342 6.8624,0.54502 2.081,0.34684 4.0629,0.86709 5.8714,1.53599 1.8085,0.64412 3.4683,1.46167 5.0291,2.40307 1.536,0.94141 3.0472,2.00669 4.4593,3.17107 0.1486,0.12386 0.223,0.24774 0.223,0.44593 0,0.17341 -0.05,0.32206 -0.1735,0.49548 l -6.8871,8.10107 c -0.2478,0.24774 -0.545,0.29729 -0.8671,0.0991 -2.1553,-1.43689 -4.385,-2.65081 -6.689,-3.56745 -2.3039,-0.94141 -4.9052,-1.41211 -7.8285,-1.41211 -3.3941,0 -5.7228,0.59457 -7.0111,1.75895 -1.2387,1.11482 -1.858,2.55172 -1.858,4.26112 0,1.0405 0.4459,2.03146 1.3626,2.97287 0.8918,0.86709 2.6508,1.41211 5.3759,1.63507 1.536,0.0991 3.0472,0.22298 4.608,0.32207 1.5359,0.12387 3.0719,0.22296 4.5831,0.34683 2.849,0.14865 5.376,0.71845 7.5809,1.7094 2.2048,0.96619 3.939,2.25443 5.2273,3.86474 2.5765,3.29494 3.8895,7.15967 3.8895,11.66852 0,5.69801 -2.304,10.05823 -6.9615,13.17974 -2.2792,1.48643 -4.8061,2.62604 -7.5808,3.39403 -2.7252,0.76799 -5.7724,1.16437 -9.1168,1.16437 -9.315,0 -17.6143,-3.34448 -24.8483,-10.08299 -0.3221,-0.32206 -0.3221,-0.64412 0,-0.99096 l 7.8286,-7.60559"
               id="path17890"
               style="fill:#ffffff;fill-opacity:1;stroke-width:5.69601" /><path
               d="m 1728.6545,332.22289 c 0,-5.94574 0.4955,-10.4546 1.4865,-13.52656 0.9414,-3.07197 2.5269,-5.77234 4.707,-8.15063 1.536,-1.63508 3.6665,-3.27016 6.466,-4.88047 2.7499,-1.58553 6.3917,-2.40307 10.9005,-2.40307 4.4346,0 8.0516,0.79277 10.7767,2.40307 1.4369,0.79277 2.6508,1.58553 3.7409,2.40307 1.09,0.81755 2.0067,1.63508 2.8242,2.4774 2.1305,2.35352 3.7409,5.07866 4.707,8.15063 0.9414,3.12151 1.4369,7.63037 1.4369,13.52656 0,6.04484 -0.4707,10.62802 -1.4369,13.69999 -0.9661,2.97287 -2.5269,5.67323 -4.707,8.15063 -1.6351,1.75894 -3.8152,3.39403 -6.5651,4.97956 -2.7251,1.53598 -6.3174,2.30397 -10.7767,2.30397 -4.5088,0 -8.101,-0.76799 -10.9005,-2.30397 -1.2387,-0.71844 -2.4031,-1.53599 -3.5427,-2.40307 -1.09,-0.89186 -2.081,-1.73418 -2.9233,-2.57649 -2.2049,-2.45262 -3.7656,-5.15298 -4.707,-8.15063 -0.991,-2.99765 -1.4865,-7.55605 -1.4865,-13.69999 m 34.6092,0.0991 c 0,-3.81519 -0.1982,-6.58987 -0.5946,-8.29927 -0.3716,-1.56076 -1.0405,-3.07197 -2.0314,-4.50886 -0.9414,-1.21392 -2.1058,-2.1801 -3.5427,-2.849 -1.3873,-0.64412 -3.0224,-0.96619 -4.8805,-0.96619 -3.8647,0 -6.6889,1.2387 -8.4479,3.81519 -0.4955,0.71845 -0.9166,1.46167 -1.2882,2.18011 -0.3221,0.69367 -0.5946,1.46166 -0.7928,2.32875 -0.3468,1.56076 -0.545,4.28589 -0.545,8.20017 0,1.98192 0.025,3.66654 0.1486,5.10344 0.074,1.41211 0.223,2.52693 0.3964,3.39402 0.3468,1.56076 1.0157,3.02242 2.081,4.43454 1.7094,2.50217 4.5336,3.76564 8.4479,3.76564 3.7161,0 6.5156,-1.26347 8.4232,-3.76564 0.9414,-1.43689 1.6103,-2.92333 2.0314,-4.43454 0.3716,-1.78372 0.5946,-4.58317 0.5946,-8.39836"
               id="path17878"
               style="fill:#ffffff;fill-opacity:1;stroke-width:5.69601" /><path
               d="m 1788.0959,282.12999 c 0,-0.44591 0.1981,-0.66889 0.6193,-0.66889 h 11.2226 c 0.3716,0 0.5946,0.22298 0.5946,0.66889 v 63.56992 c 0,2.13057 1.1891,3.22062 3.5674,3.22062 h 3.7657 c 0.4459,0 0.6689,0.22296 0.6689,0.66889 v 10.45461 c 0,0.42115 -0.223,0.64412 -0.6689,0.64412 h -4.9301 c -4.0877,0 -7.6056,-1.01574 -10.5041,-3.07197 -2.8738,-2.10579 -4.3354,-5.77233 -4.3354,-10.99963 v -64.48656"
               id="path17874"
               style="fill:#ffffff;fill-opacity:1;stroke-width:5.69601" /><path
               d="m 1817.8319,360.68815 c -0.446,0 -0.6442,-0.22297 -0.6442,-0.64412 v -55.5184 c 0,-0.44593 0.1982,-0.66889 0.6442,-0.66889 h 11.173 c 0.3716,0 0.5946,0.22296 0.5946,0.66889 v 55.5184 c 0,0.42115 -0.1982,0.64412 -0.5946,0.64412 h -11.173 m 0,-66.74099 c -0.446,0 -0.6442,-0.22299 -0.6442,-0.64413 v -11.17304 c 0,-0.44591 0.1982,-0.66889 0.6442,-0.66889 h 11.173 c 0.3716,0 0.5946,0.22298 0.5946,0.66889 v 11.17304 c 0,0.42119 -0.1982,0.64413 -0.5946,0.64413 h -11.173"
               id="path17882"
               style="fill:#ffffff;fill-opacity:1;stroke-width:5.69601" /><path
               d="m 1844.1767,360.68815 c -0.4211,0 -0.6441,-0.22297 -0.6441,-0.64412 v -55.5184 c 0,-0.44593 0.223,-0.66889 0.6441,-0.66889 h 11.1731 c 0.4459,0 0.6689,0.22296 0.6689,0.66889 v 4.48408 c 3.4931,-3.83996 8.1506,-5.74755 14.022,-5.74755 2.2297,0 4.4346,0.42116 6.5651,1.26347 2.1058,0.81754 4.2116,2.08101 6.3422,3.76564 4.162,3.39403 6.243,8.32404 6.243,14.83959 v 36.91317 c 0,0.42115 -0.223,0.64412 -0.6689,0.64412 h -11.1483 c -0.4459,0 -0.6689,-0.22297 -0.6689,-0.64412 v -33.07321 c 0,-3.61699 -0.9662,-6.39168 -2.8985,-8.32405 -2.0315,-1.98191 -4.4841,-2.9481 -7.3331,-2.9481 -3.072,0 -5.5989,0.96619 -7.5561,2.9481 -1.9076,1.9076 -2.8985,4.70706 -2.8985,8.32405 v 33.07321 c 0,0.42115 -0.223,0.64412 -0.6689,0.64412 h -11.1731"
               id="path17898"
               style="fill:#ffffff;fill-opacity:1;stroke-width:5.69601" /><path
               d="m 1947.3764,336.48401 c 0,0.44593 -0.223,0.6689 -0.6689,0.6689 h -33.8907 c 0.1238,3.9886 1.2634,7.06057 3.4435,9.14158 2.4279,2.18011 5.4503,3.29493 9.1664,3.29493 4.3602,0 8.2497,-1.7094 11.6933,-5.15298 0.074,-0.12387 0.1982,-0.17341 0.3964,-0.19819 0.1734,0 0.322,0.0248 0.4955,0.14865 l 8.101,6.88715 c 0.1239,0.12387 0.223,0.24774 0.223,0.44593 0,0.14864 -0.05,0.32206 -0.1734,0.49548 -2.849,3.27016 -6.0201,5.59891 -9.5628,7.0358 -3.4931,1.38734 -7.1844,2.10578 -11.0244,2.10578 -5.8466,0 -11.4951,-1.85804 -16.9206,-5.64846 -5.5245,-3.76563 -8.324,-11.51987 -8.324,-23.21317 0,-10.99963 2.5269,-18.63 7.6304,-22.89112 5.153,-4.21157 10.4794,-6.34213 15.9296,-6.34213 6.2678,0 11.7429,2.15533 16.4251,6.51555 4.7071,4.38498 7.0606,10.20686 7.0606,17.51517 v 9.19113 m -12.4861,-9.78571 c -0.2477,-3.79041 -1.3625,-6.68896 -3.394,-8.6461 -2.0067,-1.98192 -4.5584,-2.97287 -7.6056,-2.97287 -3.1958,0 -5.7971,1.01573 -7.8285,3.07197 -0.9415,0.94141 -1.7094,2.13056 -2.2545,3.61699 -0.545,1.46166 -0.8671,3.09674 -0.9909,4.93001 h 22.0735"
               id="path17869"
               style="fill:#ffffff;fill-opacity:1;stroke-width:5.69601" /></g><path
             id="rect1732-8"
             style="font-style:normal;font-variant:normal;font-weight:bold;font-stretch:normal;font-size:83.535px;line-height:0;font-family:Giaothong2;-inkscape-font-specification:'Giaothong2 Bold';letter-spacing:0.246063px;word-spacing:0px;fill:#0046aa;fill-opacity:1;fill-rule:nonzero;stroke:none;stroke-width:19.3916;stroke-linecap:square;stroke-linejoin:round;stroke-miterlimit:4;stroke-dasharray:none;stroke-opacity:1;paint-order:stroke fill markers"
             d="m 980.74728,35.068084 c -8.94723,0 -16.14985,7.2024 -16.14985,16.152591 v 22.879662 h -14.81185 c -10.43951,0 -18.84297,8.403489 -18.84297,18.843132 v 8.611311 l -41.85336,24.63033 c -2.52669,1.87291 -5.6747,2.67544 -6.73874,6.59925 l -6.05803,20.72737 3.66806,1.10024 c -11.90495,39.54965 -31.59521,93.23965 -40.62871,141.41553 -2.31853,12.33898 -7.63922,26.85686 -3.44521,41.60378 1.99166,7.06559 5.02376,15.11816 9.58642,22.12748 4.56003,7.00932 10.90633,13.22492 19.57423,15.13901 9.52408,2.11076 19.0659,-0.80181 27.26406,-5.69246 8.20124,-4.87788 15.26714,-11.80684 20.25789,-18.94974 11.93486,-17.09228 8.96218,-37.87323 8.60847,-57.56922 -0.95066,-52.63471 -5.46051,-66.30243 -6.43243,-98.84582 -0.2961,-7.96932 -1.87283,-17.50828 -2.58613,-25.63204 -0.3565,-4.06062 -0.44585,-7.74659 -0.29609,-10.3742 0.29609,-2.61594 1.10023,-3.81972 1.12954,-3.85838 l 0.0252,-0.018 0.47568,-0.41529 0.74248,0.71372 8.07024,-3.40965 7.26802,2.70492 1.21907,3.22232 V 406.598 H 840.6205 v 32.29961 h 376.8732 V 406.598 h -90.175 V 92.983379 c 0,-10.439642 -8.4032,-18.846008 -18.8429,-18.846008 h -14.8091 V 51.257889 c 0,-8.947494 -7.2024,-16.149715 -16.1528,-16.149715 z m 5.38624,59.215981 h 86.14128 v 29.609245 h -86.14128 z m -78.19844,38.348565 c 3.33811,-0.29664 5.25833,3.31149 2.40773,6.20949 l -5.24659,6.59925 0.92136,0.86113 c -3.06471,2.82393 -4.01901,6.58109 -4.44711,10.32944 -0.44584,3.87329 -0.29609,8.07935 0,12.4668 0.74248,8.77797 2.3485,18.36151 2.55664,25.05551 1.01089,33.41134 5.4784,46.65119 6.41176,98.71511 0.3565,20.43919 2.34812,38.39926 -6.70616,51.38023 -4.11978,5.90063 -10.33832,11.95264 -17.02071,15.92984 -6.6852,3.97433 -13.62301,5.7845 -19.63365,4.45577 -5.00278,-1.10023 -9.35154,-4.94332 -13.03163,-10.59712 -3.68289,-5.65381 -6.4622,-12.87976 -8.28149,-19.27981 -2.98428,-10.4961 1.15902,-23.34043 3.6682,-36.79403 8.78688,-46.85309 28.31329,-100.1776 40.38489,-140.34533 l 4.29243,1.27822 2.67517,-10.02346 c 2.82377,-12.0713 7.57714,-16.02765 10.91526,-16.24464 z m 78.19844,3.37387 h 86.14128 v 52.50095 h -86.14128 z" /></g></g></g></g></svg>
