<?xml version="1.0" encoding="UTF-8" standalone="no"?>
<svg
   xmlns:dc="http://purl.org/dc/elements/1.1/"
   xmlns:cc="http://creativecommons.org/ns#"
   xmlns:rdf="http://www.w3.org/1999/02/22-rdf-syntax-ns#"
   xmlns:svg="http://www.w3.org/2000/svg"
   xmlns="http://www.w3.org/2000/svg"
   xmlns:sodipodi="http://sodipodi.sourceforge.net/DTD/sodipodi-0.dtd"
   xmlns:inkscape="http://www.inkscape.org/namespaces/inkscape"
   width="96.632378mm"
   height="50.044991mm"
   viewBox="0 0 96.632371 50.04499"
   version="1.1"
   id="svg8"
   inkscape:version="1.0 (4035a4fb49, 2020-05-01)"
   sodipodi:docname="Vietnam_road_sign_IE464b.svg">
  <defs
     id="defs2" />
  <sodipodi:namedview
     id="base"
     pagecolor="#ffffff"
     bordercolor="#666666"
     borderopacity="1.0"
     inkscape:pageopacity="0.0"
     inkscape:pageshadow="2"
     inkscape:zoom="3.6580217"
     inkscape:cx="182.61237"
     inkscape:cy="94.57321"
     inkscape:document-units="mm"
     inkscape:current-layer="layer1"
     inkscape:document-rotation="0"
     showgrid="false"
     inkscape:window-width="1920"
     inkscape:window-height="1001"
     inkscape:window-x="-9"
     inkscape:window-y="-9"
     inkscape:window-maximized="1" />
  <metadata
     id="metadata5">
    <rdf:RDF>
      <cc:Work
         rdf:about="">
        <dc:format>image/svg+xml</dc:format>
        <dc:type
           rdf:resource="http://purl.org/dc/dcmitype/StillImage" />
        <dc:title></dc:title>
      </cc:Work>
    </rdf:RDF>
  </metadata>
  <g
     inkscape:label="Layer 1"
     inkscape:groupmode="layer"
     id="layer1"
     transform="translate(-462.54564,-282.78062)">
    <path
       id="rect4346"
       style="opacity:1;fill:#028f45;fill-opacity:1;fill-rule:evenodd;stroke-width:1.007;stroke-linecap:square;stroke-miterlimit:10;paint-order:stroke fill markers"
       d="m 462.54564,282.78062 h 82.28995 l 14.34243,25.02768 -14.34243,25.01731 h -82.28995 z"
       sodipodi:nodetypes="cccccc" />
    <path
       id="path4356"
       style="color:#000000;font-style:normal;font-variant:normal;font-weight:normal;font-stretch:normal;font-size:medium;line-height:normal;font-family:sans-serif;font-variant-ligatures:normal;font-variant-position:normal;font-variant-caps:normal;font-variant-numeric:normal;font-variant-alternates:normal;font-variant-east-asian:normal;font-feature-settings:normal;font-variation-settings:normal;text-indent:0;text-align:start;text-decoration:none;text-decoration-line:none;text-decoration-style:solid;text-decoration-color:#000000;letter-spacing:normal;word-spacing:normal;text-transform:none;writing-mode:lr-tb;direction:ltr;text-orientation:mixed;dominant-baseline:auto;baseline-shift:baseline;text-anchor:start;white-space:normal;shape-padding:0;shape-margin:0;inline-size:0;clip-rule:nonzero;display:inline;overflow:visible;visibility:visible;opacity:1;isolation:auto;mix-blend-mode:normal;color-interpolation:sRGB;color-interpolation-filters:linearRGB;solid-color:#000000;solid-opacity:1;vector-effect:none;fill:#ffffff;fill-opacity:1;fill-rule:evenodd;stroke:none;stroke-width:1.008;stroke-linecap:square;stroke-linejoin:miter;stroke-miterlimit:10;stroke-dasharray:none;stroke-dashoffset:0;stroke-opacity:1;paint-order:stroke fill markers;color-rendering:auto;image-rendering:auto;shape-rendering:auto;text-rendering:auto;enable-background:accumulate;stop-color:#000000;stop-opacity:1"
       d="m 541.86514,283.25778 c 2e-5,7.9e-4 -2e-5,10e-4 0,0.002 h -76.10511 c -1.51224,0 -2.74815,1.23476 -2.74815,2.74699 v 43.60396 c 0,1.51225 1.23591,2.747 2.74815,2.747 h 76.10856 0.29915 2.39731 l 14.1909,-24.54957 -14.1909,-24.55069 z m 0.3026,1.12143 h 1.80645 l 13.55181,23.42927 -13.55181,23.42986 h -1.80645 -0.29915 -76.10856 c -0.91111,0 -1.62787,-0.71618 -1.62787,-1.62729 v -43.60397 c 0,-0.91111 0.71676,-1.6273 1.62787,-1.6273 h 76.40771 z" />
    <path
       id="rect4373"
       style="opacity:1;fill:#ffffff;fill-opacity:1;fill-rule:evenodd;stroke:none;stroke-width:1.008;stroke-linecap:square;stroke-miterlimit:10;stroke-dasharray:none;stroke-opacity:1;paint-order:stroke fill markers"
       d="m 536.63738,286.45247 h 6.39742 l 12.33391,21.35583 -12.33391,21.36348 h -6.39742 l 12.32627,-21.36348 z"
       sodipodi:nodetypes="ccccccc" />
    <g
       transform="matrix(0.39199049,0,0,0.39199049,506.43729,262.51955)"
       aria-label="TP.TÂN AN LONG AN"
       id="text4378"
       style="font-size:31.418px;line-height:1.3;font-family:'Singapore Road Signs';-inkscape-font-specification:'Singapore Road Signs';text-align:start;text-anchor:start;fill:#ffffff;fill-opacity:1;stroke-width:0.674972">
      <path
         id="path4392"
         style="font-style:normal;font-variant:normal;font-weight:normal;font-stretch:normal;font-family:Giaothong2;-inkscape-font-specification:Giaothong2;text-align:start;letter-spacing:0.4125px;text-anchor:start;opacity:1;fill:#ffffff;fill-opacity:1;stroke-width:0.674971"
         d="m -19.467883,79.443492 -4.390133,3.480465 c -0.0594,0.0498 -0.07849,0.113767 -0.05858,0.193357 0.01995,0.07965 0.07447,0.12012 0.164063,0.12012 h 2.493165 c 0.438045,-0.268792 0.880627,-0.538327 1.328617,-0.807127 0.448013,-0.268785 0.890588,-0.536865 1.32861,-0.805665 l 2.986815,1.612792 h 2.509283 c 0.0897,0 0.144262,-0.0405 0.164062,-0.12012 0.03008,-0.07957 0.0096,-0.143557 -0.06007,-0.193357 l -4.44873,-3.480465 z m -0.298823,5.689447 c -0.07973,8e-6 -0.129615,0.0405 -0.149415,0.12012 l -7.82373,21.414551 c -0.0198,0.0597 -0.01537,0.11427 0.01463,0.16407 0.02985,0.0498 0.07974,0.0747 0.149415,0.0747 h 3.418943 c 0.02978,0 0.05932,-0.0109 0.08935,-0.0307 0.0396,-0.0296 0.0645,-0.0593 0.0747,-0.0894 0.278752,-0.79644 0.552982,-1.57718 0.821775,-2.34375 0.278752,-0.77652 0.5577,-1.56812 0.83643,-2.37451 h 7.88379 l 1.612792,4.71826 c 0.01987,0.0796 0.06982,0.12011 0.149415,0.12012 h 3.4204055 c 0.05955,0 0.1047675,-0.0249 0.1347675,-0.0747 0.03,-0.0496 0.034425,-0.10406 0.014625,-0.16406 l -7.810545,-21.414556 c -0.0102,-0.02985 -0.0351,-0.05482 -0.0747,-0.0747 -0.0297,-0.02985 -0.05933,-0.04538 -0.08936,-0.04545 z m 46.888178,0 c -0.07974,8e-6 -0.129607,0.0405 -0.149407,0.12012 l -7.8252,21.414551 c -0.01987,0.0597 -0.01537,0.11427 0.01463,0.16407 0.02985,0.0498 0.0797,0.0747 0.149415,0.0747 h 3.41895 c 0.02992,0 0.06082,-0.0109 0.09082,-0.0307 0.03968,-0.0296 0.06458,-0.0593 0.0747,-0.0894 0.278753,-0.79644 0.55152,-1.57718 0.820313,-2.34375 0.27873,-0.77652 0.557662,-1.56812 0.836422,-2.37451 h 7.885261 l 1.612792,4.71826 c 0.01987,0.0796 0.06983,0.12011 0.149408,0.12012 h 3.41895 c 0.05962,0 0.104767,-0.0249 0.134767,-0.0747 0.02992,-0.0496 0.03442,-0.10406 0.01463,-0.16406 L 29.958828,85.253074 c -0.0102,-0.02985 -0.0351,-0.05482 -0.0747,-0.0747 -0.02978,-0.02985 -0.06083,-0.04538 -0.09082,-0.04545 z m -113.197261,0.03075 c -0.11946,0 -0.18018,0.05925 -0.18018,0.17871 v 2.882813 c 0,0.119467 0.06075,0.17871 0.18018,0.17871 h 5.689448 V 106.7423 c 0,0.11946 0.05925,0.17872 0.178717,0.17872 h 3.240233 c 0.119467,0 0.180172,-0.0592 0.180172,-0.17872 V 88.403922 h 5.674808 c 0.11946,0 0.17871,-0.05925 0.17871,-0.17871 v -2.882813 c 0,-0.119467 -0.05925,-0.17871 -0.17871,-0.17871 z m 17.33349,0 c -0.119415,0 -0.180172,0.05925 -0.180172,0.17871 V 106.7423 c 0,0.11946 0.06075,0.17872 0.180172,0.17872 h 3.24024 c 0.11946,0 0.17871,-0.0592 0.17871,-0.17872 v -8.184075 h 4.76367 c 2.239965,0 3.94782,-0.705975 5.12256,-2.119635 1.174748,-1.42371 1.762208,-2.917965 1.762208,-4.480958 0,-0.597322 -0.06067,-1.15986 -0.18018,-1.6875 -0.119475,-0.527633 -0.287805,-1.010685 -0.506835,-1.44873 -0.22896,-0.428078 -0.48765,-0.81612 -0.776363,-1.164548 -0.278752,-0.358395 -0.587302,-0.671632 -0.925785,-0.940432 -0.876067,-0.676965 -1.703422,-1.10547 -2.47998,-1.284668 -0.76656,-0.179197 -1.576965,-0.268065 -2.433105,-0.268065 z m 25.775393,0 c -0.11946,0 -0.180172,0.05925 -0.180172,0.17871 v 2.882813 c 0,0.119467 0.06068,0.17871 0.180172,0.17871 h 5.689455 V 106.7423 c 0,0.11946 0.05925,0.17872 0.17871,0.17872 h 3.240233 c 0.11946,0 0.178732,-0.0592 0.17871,-0.17872 V 88.403922 h 5.674807 c 0.119468,0 0.18018,-0.05925 0.18018,-0.17871 v -2.882813 c 0,-0.119467 -0.06075,-0.17871 -0.18018,-0.17871 z m 36.3750005,0 c -0.11946,0 -0.1801725,0.05925 -0.1801725,0.17871 V 106.7423 c 0,0.11946 0.060675,0.17872 0.1801725,0.17872 h 3.2548876 c 0.1095075,0 0.1640625,-0.0592 0.1640625,-0.17872 V 92.017692 l 9.4379851,14.813968 c 0.039525,0.0598 0.089415,0.0894 0.149415,0.0894 h 3.0615226 c 0.11946,0 0.17871,-0.0592 0.17871,-0.17872 V 85.342399 c 0,-0.119467 -0.05925,-0.17871 -0.17871,-0.17871 H 6.2196172 c -0.11946,0 -0.17871,0.05925 -0.17871,0.17871 V 100.06701 L -3.3663204,85.253044 c -0.039525,-0.05978 -0.089392,-0.08935 -0.1494075,-0.08935 z m 47.0141635,0 c -0.119475,0 -0.17871,0.05925 -0.17871,0.17871 V 106.7423 c 0,0.11946 0.05925,0.17872 0.17871,0.17872 h 3.25635 c 0.109507,0 0.164062,-0.0592 0.164062,-0.17872 V 92.017692 l 9.437985,14.813968 c 0.03997,0.0598 0.08981,0.0894 0.149415,0.0894 h 3.061523 c 0.11946,0 0.17871,-0.0592 0.17871,-0.17872 V 85.342399 c 0,-0.119467 -0.05925,-0.17871 -0.17871,-0.17871 h -3.25635 c -0.11946,0 -0.17871,0.05925 -0.17871,0.17871 v 14.724611 l -9.40869,-14.813966 c -0.03968,-0.05978 -0.08813,-0.08935 -0.147945,-0.08935 z m -105.745607,3.43506 h 4.5249 c 0.905933,0 1.64298,0.188588 2.210453,0.566895 0.87606,0.567458 1.313962,1.468163 1.313962,2.702633 0,0.826305 -0.28365,1.57275 -0.85107,2.239748 -0.557482,0.686992 -1.408335,1.03125 -2.553225,1.03125 h -4.64502 z m 46.930666,1.74609 2.868165,8.512208 h -5.73633 z m 46.875001,0 2.868165,8.512208 h -5.736331 z m -83.856452,13.186531 c -0.11946,-10e-6 -0.17871,0.0593 -0.17871,0.17871 v 3.03222 c 0,0.11946 0.05925,0.17872 0.17871,0.17872 h 3.046875 c 0.1095,0 0.164063,-0.0592 0.164063,-0.17872 v -3.03222 c 0,-0.1195 -0.05452,-0.17873 -0.164063,-0.17871 z m -4.697752,22.31542 c -1.77954,0 -3.26826,0.42998 -4.46484,1.28907 -1.186365,0.84885 -2.044853,1.76919 -2.576663,2.76123 h 0.01462 c -0.194317,0.34772 -0.357765,0.69967 -0.490725,1.05762 -0.132952,0.35795 -0.236025,0.73197 -0.307612,1.1206 -0.06135,0.38864 -0.111413,1.0071 -0.152348,1.85596 -0.03068,0.84886 -0.04687,1.94295 -0.04687,3.28271 0,1.33977 0.0162,2.43975 0.04687,3.29883 0.04087,0.84886 0.09094,1.46733 0.152348,1.85596 0.07155,0.38864 0.17466,0.76118 0.307612,1.11914 0.13296,0.34773 0.296408,0.69671 0.490725,1.04443 h -0.01462 c 0.53181,1.00227 1.390298,1.9226 2.576663,2.76123 1.206802,0.84886 2.69553,1.27295 4.46484,1.27295 1.748857,0 3.22581,-0.42409 4.43262,-1.27295 1.20681,-0.85908 2.081497,-1.77941 2.623537,-2.76123 0.173828,-0.32727 0.32262,-0.67036 0.445305,-1.02832 0.13296,-0.35795 0.23457,-0.73639 0.306158,-1.13525 0.143175,-0.80794 0.215332,-2.52639 0.215332,-5.15479 0,-1.33976 -0.02062,-2.43385 -0.0615,-3.28271 -0.03068,-0.84886 -0.08222,-1.46732 -0.15381,-1.85596 -0.132952,-0.75681 -0.389175,-1.48278 -0.76758,-2.17822 -0.53181,-0.97159 -1.40061,-1.89192 -2.60742,-2.76123 -1.19658,-0.85909 -2.67354,-1.28907 -4.43262,-1.28907 z m 39.556643,0 c -1.77954,0 -3.266798,0.42998 -4.463378,1.28907 -1.186365,0.84885 -2.046315,1.76919 -2.578125,2.76123 h 0.01612 c -0.19431,0.34772 -0.359235,0.69967 -0.492187,1.05762 -0.13296,0.35795 -0.234563,0.73197 -0.30615,1.1206 -0.06135,0.38864 -0.112875,1.0071 -0.15381,1.85596 -0.03067,0.84886 -0.04545,1.94295 -0.04545,3.28271 0,1.33977 0.01478,2.43975 0.04545,3.29883 0.04088,0.84886 0.09241,1.46733 0.15381,1.85596 0.07155,0.38864 0.17319,0.76118 0.30615,1.11914 0.132952,0.34773 0.297877,0.69671 0.492187,1.04443 h -0.01612 c 0.53181,1.00227 1.39176,1.9226 2.578125,2.76123 1.20681,0.84886 2.694068,1.27295 4.463378,1.27295 2.219302,0 4.115932,-0.77307 5.690917,-2.31738 1.55454,-1.52385 2.33205,-3.41459 2.332028,-5.6748 v -4.4795 c 7e-6,-0.1125 -0.06038,-0.16992 -0.183105,-0.16992 h -7.809075 c -0.12273,0 -0.184575,0.0575 -0.184575,0.16992 v 3.15967 c 0,0.12273 0.06188,0.18457 0.184575,0.18457 h 4.29492 v 0.95069 c 0,1.33975 -0.418208,2.42354 -1.256835,3.25195 -0.828413,0.82841 -1.851818,1.24218 -3.06885,1.24218 -0.76704,0 -1.420845,-0.14725 -1.962893,-0.44384 -0.54204,-0.30682 -0.977902,-0.67495 -1.305172,-1.10449 -0.184088,-0.23523 -0.351968,-0.50617 -0.505373,-0.81299 -0.14319,-0.31704 -0.256567,-0.63511 -0.338377,-0.95215 -0.08183,-0.34769 -0.13779,-0.87931 -0.168458,-1.59522 -0.03068,-0.72612 -0.04545,-1.64646 -0.04545,-2.76123 0,-1.09431 0.01478,-2.00433 0.04545,-2.73046 0.03067,-0.72614 0.08663,-1.26361 0.168458,-1.61133 0.08181,-0.32728 0.195187,-0.64387 0.338377,-0.95069 0.143183,-0.31704 0.311055,-0.59829 0.505373,-0.84375 0.32727,-0.39885 0.763132,-0.75226 1.305172,-1.05908 0.542048,-0.30681 1.195853,-0.45996 1.962893,-0.45996 1.032945,0 1.887015,0.30187 2.562015,0.90527 0.357915,0.30682 0.65982,0.63961 0.905272,0.99756 0.245453,0.34773 0.433935,0.72617 0.566895,1.13526 0.02048,0.0818 0.07787,0.12304 0.16992,0.12304 h 3.512693 c 0.06135,0 0.112875,-0.0206 0.15381,-0.0615 0.04095,-0.041 0.05123,-0.0925 0.03075,-0.15381 -0.3375,-1.82044 -1.212188,-3.38573 -2.623538,-4.69482 -1.390897,-1.30908 -3.15057,-1.96289 -5.277832,-1.96289 z m 24.3852527,0.15381 c -0.081803,0 -0.1318725,0.0397 -0.15234,0.12159 l -8.0390626,21.99902 c -0.020475,0.0614 -0.01605,0.11732 0.014625,0.16846 0.030675,0.0512 0.082215,0.0777 0.15381,0.0776 h 3.51269252 c 0.030675,0 0.06165,-0.0103 0.0922875,-0.0308 0.04095,-0.0307 0.066,-0.0616 0.07617,-0.0923 0.28635751,-0.81817 0.56761501,-1.6207 0.84375001,-2.4082 0.28636501,-0.79769 0.57350251,-1.61056 0.85985997,-2.43896 h 8.1005852 l 1.6567427,4.84716 c 0.02048,0.0818 0.0705,0.12307 0.15234,0.12305 h 3.514162 c 0.06135,0 0.107033,-0.0265 0.137693,-0.0776 0.03068,-0.0511 0.0351,-0.10706 0.01463,-0.16846 L 6.7849972,126.12219 c -0.0102,-0.0307 -0.03525,-0.0557 -0.07617,-0.0762 -0.030675,-0.0307 -0.06165,-0.0454 -0.092288,-0.0454 z m -88.0019557,0.0293 c -0.122723,0 -0.183105,0.0619 -0.183105,0.18457 v 21.98291 c 0,0.12273 0.06037,0.18458 0.183105,0.18458 h 14.052247 c 0.12273,0 0.184575,-0.0619 0.184575,-0.18458 v -3.1289 c 0,-0.12273 -0.06188,-0.18458 -0.184575,-0.18458 h -10.538085 v -18.6694 c 0,-0.12273 -0.06188,-0.18457 -0.184567,-0.18457 z m 35.569342,0 c -0.12273,0 -0.184575,0.0619 -0.184575,0.18457 v 21.98291 c 0,0.12273 0.06188,0.18458 0.184575,0.18458 h 3.344236 c 0.1125,0 0.168457,-0.0619 0.168457,-0.18458 V 133.0714 l 9.695798,15.21827 c 0.04095,0.0613 0.09248,0.0923 0.15381,0.0923 h 3.14502 c 0.12273,0 0.183105,-0.0619 0.183105,-0.18458 V 126.2145 c 0,-0.12273 -0.06037,-0.18457 -0.183105,-0.18457 h -3.344235 c -0.12273,0 -0.184575,0.0619 -0.184575,0.18457 v 15.12598 l -9.66504,-15.21826 c -0.04095,-0.0614 -0.09248,-0.0923 -0.153803,-0.0923 z m 65.614741,0 c -0.122722,0 -0.183105,0.0619 -0.183105,0.18457 v 21.98291 c 0,0.12273 0.06038,0.18458 0.183105,0.18458 h 3.344243 c 0.1125,0 0.16992,-0.0619 0.16992,-0.18458 V 133.0714 l 9.694335,15.21827 c 0.04095,0.0613 0.09248,0.0923 0.15381,0.0923 h 3.14502 c 0.122723,0 0.184568,-0.0619 0.184568,-0.18458 V 126.2145 c 0,-0.12273 -0.06188,-0.18457 -0.184568,-0.18457 h -3.344242 c -0.122723,0 -0.184568,0.0619 -0.184568,0.18457 v 15.12598 l -9.66504,-15.21826 c -0.04095,-0.0614 -0.09101,-0.0923 -0.15234,-0.0923 z m -77.104981,3.5127 c 2.3835,0 4.302248,1.91874 4.302248,4.30224 v 6.73243 c 0,2.3835 -1.918748,4.30224 -4.302248,4.30224 -2.3835,0 -4.30371,-1.91874 -4.30371,-4.30224 v -6.73243 c 0,-2.3835 1.92021,-4.30224 4.30371,-4.30224 z m 65.3349612,1.81055 2.944335,8.74511 H 2.3363197 Z" />
    </g>
  </g>
</svg>
