<?xml version="1.0" encoding="utf-8"?>
<svg viewBox="0 0 323.14914 200" xmlns="http://www.w3.org/2000/svg">
  <g id="layer1" transform="matrix(0.9999999999999999, 0, 0, 0.9999999999999999, -303.4596862792969, -22.960700988769517)">
    <path id="rect15575" style="opacity:1;fill:#0a9646;fill-opacity:1;fill-rule:evenodd;stroke-width:0.0420687;stroke-linecap:square;stroke-miterlimit:10;paint-order:stroke fill markers" d="M 303.45966,22.960701 H 626.6088 V 222.9607 H 303.45966 Z"/>
    <path transform="matrix(0.26458333,0,0,0.26458333,303.45966,22.960701)" d="m 30.353516,5.0117188 c -13.808655,0 -25.0781254,11.2674112 -25.0781254,25.0761722 v 332.957029 47.1211 49.04296 13.88672 252.45508 c 0,13.80862 11.2694704,25.06641 25.0781254,25.06641 H 1190.9805 c 13.8086,0 25.0781,-11.25779 25.0781,-25.06641 V 473.0957 459.57031 401.94727 363.04492 30.087891 c 0,-13.808761 -11.2695,-25.0761722 -25.0781,-25.0761722 z m 0,9.4511722 H 1190.9805 c 8.7398,0 15.6425,6.885058 15.6425,15.625 v 332.957029 38.90235 c 0,0.29959 -0.013,0.61475 -0.037,0.9375 v 7.20703 c 0,8.68754 -6.9941,15.68164 -15.6816,15.68164 h -8.0762 c -0.1869,0.007 -0.3766,0.0176 -0.5586,0.0176 H 38.023438 c -0.18105,0 -0.371847,-0.0102 -0.560547,-0.0176 h -7.097657 c -8.687546,0 -15.68164,-6.9941 -15.68164,-15.68164 V 30.152344 c 0,-1.658433 0.257595,-3.253829 0.730468,-4.751953 0.01365,-0.04461 0.03284,-0.08643 0.04688,-0.13086 1.99686,-6.321925 7.84094,-10.80664 14.892578,-10.80664 z M 30.28125,435.30469 h 6.958984 1145.628866 8.1172 c 8.6414,0 15.5996,6.95633 15.5996,15.59765 v 7.5918 c 0.024,0.37296 0.037,0.7339 0.037,1.07617 v 13.52539 252.45508 c 0,5.47634 -2.7106,10.22208 -6.8847,13.00391 -2.4923,1.6862 -5.5034,2.66992 -8.752,2.66992 H 30.28125 c -8.641361,0 -15.597656,-6.9563 -15.597656,-15.59766 V 450.90234 c 0,-8.64132 6.956295,-15.59765 15.597656,-15.59765 z" style="color:#000000;font-style:normal;font-variant:normal;font-weight:normal;font-stretch:normal;font-size:medium;line-height:normal;font-family:sans-serif;font-variant-ligatures:normal;font-variant-position:normal;font-variant-caps:normal;font-variant-numeric:normal;font-variant-alternates:normal;font-variant-east-asian:normal;font-feature-settings:normal;font-variation-settings:normal;text-indent:0;text-align:start;text-decoration:none;text-decoration-line:none;text-decoration-style:solid;text-decoration-color:#000000;letter-spacing:normal;word-spacing:normal;text-transform:none;writing-mode:lr-tb;direction:ltr;text-orientation:mixed;dominant-baseline:auto;baseline-shift:baseline;text-anchor:start;white-space:normal;shape-padding:0;shape-margin:0;inline-size:0;clip-rule:nonzero;display:inline;overflow:visible;visibility:visible;opacity:1;isolation:auto;mix-blend-mode:normal;color-interpolation:sRGB;color-interpolation-filters:linearRGB;solid-color:#000000;solid-opacity:1;vector-effect:none;fill:#ffffff;fill-opacity:1;fill-rule:evenodd;stroke:none;stroke-width:2.09199;stroke-linecap:square;stroke-linejoin:miter;stroke-miterlimit:10;stroke-dasharray:none;stroke-dashoffset:0;stroke-opacity:1;paint-order:stroke fill markers;color-rendering:auto;image-rendering:auto;shape-rendering:auto;text-rendering:auto;enable-background:accumulate;stop-color:#000000;stop-opacity:1" id="path15582"/>
    <path d="m 324.12038,67.193614 h 60.89334 v 27.821331 h -60.89334 z" style="opacity:1;fill:#ffd70f;fill-opacity:1;fill-rule:evenodd;stroke:none;stroke-width:0.553508;stroke-linecap:square;stroke-miterlimit:10;stroke-dasharray:none;stroke-opacity:1;paint-order:stroke fill markers" id="rect15605"/>
    <path id="path15631" d="m 326.18273,67.759747 c -0.81115,0 -1.47443,0.660164 -1.47443,1.471307 v 23.746432 c 0,0.811142 0.66328,1.471323 1.47443,1.471323 h 56.7905 c 0.81117,0 1.4744,-0.660181 1.4744,-1.471323 V 69.231054 c 0,-0.811143 -0.66328,-1.471307 -1.4744,-1.471307 z m 0,0.535017 h 56.7905 c 0.52266,0 0.93627,0.413622 0.93627,0.93629 v 23.746432 c 0,0.522654 -0.41353,0.933189 -0.93627,0.933189 h -56.7905 c -0.52266,0 -0.93628,-0.410555 -0.93628,-0.933189 V 69.231054 c 0,-0.522672 0.41354,-0.93629 0.93628,-0.93629 z" style="color:#000000;font-style:normal;font-variant:normal;font-weight:normal;font-stretch:normal;font-size:medium;line-height:normal;font-family:sans-serif;font-variant-ligatures:normal;font-variant-position:normal;font-variant-caps:normal;font-variant-numeric:normal;font-variant-alternates:normal;font-variant-east-asian:normal;font-feature-settings:normal;font-variation-settings:normal;text-indent:0;text-align:start;text-decoration:none;text-decoration-line:none;text-decoration-style:solid;text-decoration-color:#000000;letter-spacing:normal;word-spacing:normal;text-transform:none;writing-mode:lr-tb;direction:ltr;text-orientation:mixed;dominant-baseline:auto;baseline-shift:baseline;text-anchor:start;white-space:normal;shape-padding:0;shape-margin:0;inline-size:0;clip-rule:nonzero;display:inline;overflow:visible;visibility:visible;opacity:1;isolation:auto;mix-blend-mode:normal;color-interpolation:sRGB;color-interpolation-filters:linearRGB;solid-color:#000000;solid-opacity:1;vector-effect:none;fill:#000000;fill-opacity:1;fill-rule:evenodd;stroke:none;stroke-width:0.119062;stroke-linecap:square;stroke-linejoin:miter;stroke-miterlimit:10;stroke-dasharray:none;stroke-dashoffset:0;stroke-opacity:1;paint-order:stroke fill markers;color-rendering:auto;image-rendering:auto;shape-rendering:auto;text-rendering:auto;enable-background:accumulate;stop-color:#000000;stop-opacity:1"/>
    <path d="m 336.88947,72.205604 c -1.36961,0 -2.51552,0.330332 -3.43646,0.991507 -0.91309,0.653335 -1.5737,1.361798 -1.98303,2.125328 -0.14189,0.267612 -0.264,0.538688 -0.36613,0.814199 -0.10264,0.275473 -0.18065,0.564078 -0.23555,0.86321 -0.0552,0.299089 -0.0954,0.774434 -0.11873,1.427765 -0.0223,0.653332 -0.0362,1.495435 -0.0362,2.5266 0,2.062321 0.0516,3.383536 0.15387,3.966025 0.0552,0.299136 0.13326,0.587702 0.23556,0.863193 0.10264,0.267612 0.22467,0.534915 0.36612,0.802543 0.40948,0.771411 1.06995,1.479875 1.983,2.125324 0.92887,0.653346 2.07472,0.979855 3.43649,0.979855 0.74779,0 1.44489,-0.107189 2.09034,-0.319632 0.64544,-0.212556 1.24303,-0.525333 1.79403,-0.942508 1.1335,-0.865864 1.86473,-2.103628 2.19533,-3.709419 0.0139,-0.04714 0.009,-0.08518 -0.0223,-0.116745 -0.0315,-0.03928 -0.0694,-0.05829 -0.11656,-0.05829 h -2.70394 c -0.0223,1.5e-5 -0.0488,0.01117 -0.0722,0.03521 -0.0223,0.01589 -0.0451,0.0307 -0.0582,0.0467 -0.70836,1.487712 -1.74338,2.232636 -3.10515,2.232636 -0.59037,0 -1.09454,-0.11468 -1.51174,-0.342928 -0.41713,-0.236167 -0.75132,-0.520933 -1.00317,-0.851551 -0.14189,-0.181028 -0.27124,-0.389065 -0.3896,-0.625222 -0.11008,-0.244 -0.19597,-0.488524 -0.25924,-0.732545 -0.0628,-0.267611 -0.10709,-0.67614 -0.13048,-1.227141 -0.0223,-0.558871 -0.0359,-1.267326 -0.0359,-2.125325 0,-0.842249 0.009,-1.543133 0.0359,-2.102004 0.0223,-0.55887 0.0677,-0.97117 0.13048,-1.238798 0.0627,-0.251917 0.14857,-0.496392 0.25924,-0.732549 0.11009,-0.244 0.24028,-0.45965 0.3896,-0.64857 0.252,-0.30699 0.58598,-0.580386 1.00317,-0.816526 0.41715,-0.236167 0.92137,-0.352269 1.51174,-0.352269 0.79503,1.7e-5 1.45185,0.230844 1.97135,0.695231 0.27541,0.236167 0.50863,0.492045 0.69757,0.767539 0.18872,0.267667 0.33407,0.560022 0.4361,0.874867 0.0167,0.06294 0.0599,0.09333 0.13046,0.09333 h 2.7039 c 0.0468,0 0.0854,-0.01589 0.11658,-0.0467 0.0315,-0.03161 0.0407,-0.07184 0.0223,-0.118954 -0.25952,-1.393235 -0.93175,-2.595995 -2.01801,-3.611427 -1.07052,-1.007535 -2.42438,-1.511744 -4.0617,-1.511744 z m 27.73422,0.104956 c -1.28304,0 -2.4213,0.437369 -3.41313,1.311121 -0.99967,0.858 -1.50005,2.08205 -1.50005,3.672071 v 7.425818 c 0,1.590021 0.50038,2.814088 1.50005,3.672088 0.99183,0.865851 2.13009,1.299446 3.41313,1.299446 1.28303,0 2.42133,-0.433578 3.41313,-1.299446 1.00756,-0.86587 1.50938,-2.089917 1.50938,-3.672088 v -7.425818 c 0,-0.787127 -0.1299,-1.484222 -0.38959,-2.09033 -0.252,-0.613979 -0.62389,-1.140934 -1.11979,-1.581741 -0.49592,-0.425045 -1.03279,-0.74779 -1.6074,-0.968177 -0.56674,-0.22825 -1.16816,-0.342924 -1.80573,-0.342924 z m -21.12261,0.03521 c -0.0943,0 -0.14217,0.04776 -0.14217,0.142392 v 2.279298 c 0,0.09444 0.0479,0.142197 0.14217,0.142197 h 4.49793 V 89.409 c 0,0.09444 0.0479,0.139995 0.14217,0.139995 h 2.5616 c 0.0945,0 0.14217,-0.04555 0.14217,-0.139995 V 74.909653 h 4.48625 c 0.0943,0 0.14217,-0.04778 0.14217,-0.142196 v -2.279299 c 0,-0.09444 -0.0479,-0.142392 -0.14217,-0.142392 z m 31.22667,0.118953 -2.43331,1.759064 c -0.0139,0.01589 -0.0315,0.03477 -0.0466,0.05829 -0.009,0.02341 -0.0139,0.04468 -0.0139,0.06068 v 2.561593 c 0,0.06294 0.0278,0.110694 0.0728,0.142196 0.0468,0.02343 0.0989,0.01617 0.15388,-0.02343 0.36208,-0.259778 0.7228,-0.523245 1.08486,-0.790886 0.36206,-0.275473 0.72509,-0.548889 1.08714,-0.816528 v 14.028096 c 0,0.09444 0.048,0.142198 0.14217,0.142198 h 2.41929 c 0.0943,0 0.13994,-0.04778 0.13994,-0.142198 V 72.606811 c 0,-0.09444 -0.0455,-0.142197 -0.13994,-0.142197 z m -10.10406,2.538257 c 0.67694,0 1.21532,0.217964 1.61673,0.650912 0.40948,0.425045 0.61359,1.018854 0.61359,1.782378 v 7.143522 c 0,0.771407 -0.20461,1.368982 -0.61359,1.794059 -0.40133,0.425045 -0.93979,0.63689 -1.61673,0.63689 -0.67695,0 -1.21527,-0.211859 -1.61671,-0.63689 -0.40134,-0.425091 -0.60428,-1.022652 -0.60428,-1.794059 v -7.143497 c 0,-0.763524 0.20266,-1.357335 0.60428,-1.782377 0.40133,-0.432946 0.93976,-0.650913 1.61671,-0.650913 z m -9.98507,11.865445 c -0.0945,0 -0.14217,0.04776 -0.14217,0.14239 v 2.398281 c 0,0.09444 0.0479,0.139994 0.14217,0.139994 h 2.40762 c 0.0867,0 0.13046,-0.04555 0.13046,-0.139994 v -2.398281 c 0,-0.09444 -0.0451,-0.14239 -0.13046,-0.14239 z" style="font-style: normal; font-variant: normal; font-weight: normal; font-stretch: normal; font-size: 15.1831px; line-height: 1.46; font-family: 'Alte DIN 1451 Mittelschrift gepraegt'; text-align: center; text-anchor: middle; opacity: 1; fill-opacity: 1; stroke-width: 0.264584; visibility: hidden;" id="path15637"/>
    <path id="path17496" style="font-size:15.1831px;line-height:1.46;font-family:'Singapore Road Signs';-inkscape-font-specification:'Singapore Road Signs';text-align:center;text-anchor:middle;opacity:1;fill:#ffffff;fill-opacity:1;stroke-width:0.0756548" d="m 570.47468,59.120043 v 50.614317 h 35.43541 V 59.120043 Z m 1.38203,1.660034 h 32.65274 v 47.566083 h -32.65274 z m 13.66823,3.646909 -2.23483,8.869719 h 3.92184 l 0.28216,-8.869719 z m 3.35329,0 0.28216,8.869719 h 3.92385 l -2.23686,-8.869719 z m -15.90932,9.992316 v 1.942234 l 3.06692,1.10806 v 0.584703 h 1.411 v -0.584703 c 0,0 2.08662,-0.313671 4.52568,-0.535349 1.95306,-0.177516 4.1317,-0.271988 5.64407,-0.278037 1.79866,-0.0063 4.45804,0.09363 6.73975,0.288436 2.51319,0.214479 4.5713,0.524984 4.5713,0.524984 v 0.5847 h 1.38199 v -0.5847 l 3.06685,-1.108064 v -1.942233 z m 9.21108,3.620663 -6.70448,26.681115 h 10.04943 l 1.39442,-26.681115 z m 7.25642,0 1.39441,26.681115 h 10.0494 l -6.70443,-26.681115 z"/>
    <g style="font-size:14.7905px;line-height:0;font-family:'Singapore Road Signs';-inkscape-font-specification:'Singapore Road Signs';text-align:center;text-anchor:middle;opacity:1;fill:#860000;fill-opacity:1;stroke-width:6.45213" id="layer1-8" transform="matrix(0.08718024,0,0,0.08718024,-145.22047,195.49013)">
      <circle style="opacity:1;fill:#f00a0a;fill-opacity:1;fill-rule:nonzero;stroke:none;stroke-width:3622.55;stroke-linecap:round;stroke-linejoin:round;stroke-miterlimit:4;stroke-dasharray:none;stroke-opacity:1;paint-order:stroke fill markers" id="path815" cx="6380.9966" cy="-193.29752" r="350"/>
      <circle cy="-193.29752" cx="6380.9966" id="circle817" style="opacity:1;fill:#ffffff;fill-opacity:1;fill-rule:nonzero;stroke:none;stroke-width:2587.55;stroke-linecap:round;stroke-linejoin:round;stroke-miterlimit:4;stroke-dasharray:none;stroke-opacity:1;paint-order:stroke fill markers" r="263.821"/>
      <g aria-label="20 " style="font-style:normal;font-variant:normal;font-weight:bold;font-stretch:normal;font-size:414.864px;line-height:0;font-family:Giaothong1;-inkscape-font-specification:'Giaothong1 Bold';letter-spacing:0px;word-spacing:0px;fill:#000000;fill-opacity:1;stroke:none;stroke-width:24.7849" id="text874" transform="matrix(-1,0,0,1,1299.029,-383.45)">
        <g aria-label="90" transform="translate(2310.2259,387.54849)" style="font-style:normal;font-variant:normal;font-weight:bold;font-stretch:normal;font-size:414.864px;line-height:0;font-family:Giaothong1;-inkscape-font-specification:'Giaothong1 Bold';letter-spacing:0px;word-spacing:0px;fill:#000000;fill-opacity:1;stroke:none;stroke-width:53.5539" id="text844"/>
      </g>
    </g>
    <g style="font-size:14.7905px;line-height:0;font-family:'Singapore Road Signs';-inkscape-font-specification:'Singapore Road Signs';text-align:center;text-anchor:middle;opacity:1;fill:#fff000;fill-opacity:1;stroke-width:6.45221" id="layer1-7" transform="matrix(0.08717968,0,0,0.08717968,488.77841,183.34565)">
      <circle cy="-54" cx="351" id="circle817-6" style="opacity:1;fill:#0046aa;fill-opacity:1;fill-rule:nonzero;stroke:none;stroke-width:3622.58;stroke-linecap:round;stroke-linejoin:round;stroke-miterlimit:4;stroke-dasharray:none;stroke-opacity:1;paint-order:stroke fill markers" r="350"/>
      <path id="rect984" style="font-style: normal; font-variant: normal; font-weight: bold; font-stretch: normal; font-size: 414.864px; line-height: 0; font-family: Giaothong1; letter-spacing: 0px; word-spacing: 0px; opacity: 1; fill: rgb(255, 255, 255); fill-opacity: 1; fill-rule: nonzero; stroke: none; stroke-width: 0.344279; stroke-linecap: round; stroke-linejoin: miter; stroke-miterlimit: 10; stroke-dasharray: none; stroke-opacity: 1; paint-order: stroke; visibility: hidden;" d="m 851.18164,518.03906 c -16.32678,0 -29.4707,13.14393 -29.4707,29.47071 v 80.94921 c 0,16.32678 13.14392,29.47071 29.4707,29.47071 16.32678,0 29.4707,-13.14393 29.4707,-29.47071 v -80.94921 c 0,-16.32678 -13.14392,-29.47071 -29.4707,-29.47071 z m -69.94336,1.23828 -26.10937,69.75391 c -2.72781,7.40406 -3.70118,11.30112 -3.70118,28.44727 0,18.12042 0.7789,22.01697 4.67579,28.25195 5.26075,8.37828 14.22308,13.44336 24.93945,13.44336 10.91123,0 20.0688,-4.87023 25.13476,-13.44336 3.70197,-6.23498 4.48047,-10.13153 4.48047,-28.25195 0,-22.01726 -0.77798,-26.88814 -4.28515,-32.34375 -3.31232,-5.06591 -9.74347,-8.96289 -16.75782,-8.96289 -4.28653,0 -7.01308,0.77773 -8.37695,1.75195 l -0.39062,-0.38867 22.60156,-58.25782 z m 69.94336,18.74024 c 5.25853,0 9.49219,4.23365 9.49219,9.49219 v 80.94921 c 0,5.25853 -4.23366,9.49219 -9.49219,9.49219 -5.25853,0 -9.49219,-4.23366 -9.49219,-9.49219 v -80.94921 c 0,-5.25854 4.23366,-9.49219 9.49219,-9.49219 z m -70.13867,55.68945 c 5.0659,0 9.74219,3.89738 9.74219,9.9375 v 25.71875 c 0,6.04012 -4.67629,9.9375 -9.74219,9.9375 -5.0659,0 -9.74219,-3.89738 -9.74219,-9.9375 v -25.71875 c 0,-6.04012 4.67629,-9.9375 9.74219,-9.9375 z" transform="matrix(3.0349198,0,0,3.0349198,-2125.7104,-1839.7056)"/>
    </g>
    <g aria-label="6" id="text19759" style="font-size:31.1478px;line-height:1.3;font-family:'Singapore Road Signs';-inkscape-font-specification:'Singapore Road Signs';text-align:center;text-anchor:middle;stroke-width:0.159861" transform="matrix(1.6550836,0,0,1.6550836,-321.31659,-238.56049)"/>
    <path d="M 372.684 46.797 Q 372.578 46.797 372.578 46.691 L 372.578 34.097 Q 372.578 33.991 372.684 33.991 L 374.494 33.991 Q 374.547 33.991 374.582 34.044 L 380.119 42.763 L 380.119 34.097 Q 380.119 33.991 380.225 33.991 L 382.141 33.991 Q 382.246 33.991 382.246 34.097 L 382.246 46.691 Q 382.246 46.797 382.141 46.797 L 380.339 46.797 Q 380.286 46.797 380.251 46.744 L 374.696 38.025 L 374.696 46.691 Q 374.696 46.797 374.6 46.797 Z M 389.072 41.673 Q 388.967 41.673 388.967 41.567 L 388.967 39.757 Q 388.967 39.66 389.072 39.66 L 393.546 39.66 Q 393.651 39.66 393.651 39.757 L 393.651 42.323 Q 393.651 44.266 392.315 45.575 Q 390.962 46.902 389.055 46.902 Q 387.534 46.902 386.497 46.173 Q 385.478 45.452 385.02 44.591 L 385.029 44.591 Q 384.862 44.292 384.748 43.989 Q 384.634 43.685 384.572 43.351 Q 384.52 43.017 384.489 42.284 Q 384.458 41.55 384.458 40.398 Q 384.458 39.247 384.489 38.517 Q 384.52 37.788 384.572 37.454 Q 384.634 37.12 384.748 36.812 Q 384.862 36.505 385.029 36.206 L 385.02 36.206 Q 385.478 35.353 386.497 34.624 Q 387.525 33.886 389.055 33.886 Q 390.883 33.886 392.078 35.011 Q 393.291 36.136 393.581 37.7 Q 393.599 37.753 393.563 37.788 Q 393.528 37.823 393.476 37.823 L 391.463 37.823 Q 391.384 37.823 391.366 37.753 Q 391.252 37.401 391.041 37.098 Q 390.83 36.795 390.522 36.531 Q 389.942 36.013 389.055 36.013 Q 388.395 36.013 387.93 36.276 Q 387.464 36.54 387.183 36.883 Q 387.016 37.094 386.893 37.362 Q 386.77 37.63 386.699 37.911 Q 386.629 38.21 386.603 38.834 Q 386.576 39.458 386.576 40.398 Q 386.576 41.356 386.603 41.976 Q 386.629 42.596 386.699 42.894 Q 386.77 43.167 386.897 43.435 Q 387.024 43.703 387.183 43.905 Q 387.464 44.274 387.93 44.534 Q 388.395 44.793 389.055 44.793 Q 390.101 44.793 390.812 44.081 Q 391.533 43.369 391.533 42.218 L 391.533 41.673 Z M 402.871 46.797 Q 402.766 46.797 402.766 46.691 L 402.766 41.295 L 397.976 41.295 L 397.976 46.691 Q 397.976 46.797 397.87 46.797 L 395.963 46.797 Q 395.858 46.797 395.858 46.691 L 395.858 34.097 Q 395.858 33.991 395.963 33.991 L 397.87 33.991 Q 397.976 33.991 397.976 34.097 L 397.976 39.388 L 402.766 39.388 L 402.766 34.097 Q 402.766 33.991 402.871 33.991 L 404.779 33.991 Q 404.884 33.991 404.884 34.097 L 404.884 46.691 Q 404.884 46.797 404.779 46.797 Z M 407.601 46.797 Q 407.495 46.797 407.495 46.691 L 407.495 34.097 Q 407.495 33.991 407.601 33.991 L 409.508 33.991 Q 409.614 33.991 409.614 34.097 L 409.614 46.691 Q 409.614 46.797 409.508 46.797 Z M 416.662 43.562 Q 416.689 43.527 416.732 43.527 Q 416.776 43.527 416.812 43.554 Q 417.506 44.116 418.407 44.455 Q 419.308 44.793 420.31 44.793 Q 421.435 44.793 422.085 44.327 Q 422.7 43.879 422.7 43.141 Q 422.7 41.752 421.145 41.541 L 421.153 41.541 Q 420.934 41.515 420.736 41.488 Q 420.538 41.462 420.34 41.435 Q 420.143 41.409 419.936 41.378 Q 419.73 41.348 419.483 41.312 Q 418.657 41.198 418.011 40.895 Q 417.365 40.592 416.926 40.091 Q 416.486 39.581 416.267 38.979 Q 416.047 38.377 416.047 37.665 Q 416.047 35.995 417.154 34.949 Q 418.271 33.886 420.257 33.886 Q 420.846 33.886 421.404 33.987 Q 421.962 34.088 422.485 34.264 Q 423.008 34.439 423.487 34.681 Q 423.966 34.923 424.405 35.213 Q 424.493 35.274 424.432 35.362 L 423.368 36.935 Q 423.307 37.015 423.228 36.962 Q 422.542 36.531 421.769 36.272 Q 420.995 36.013 420.169 36.013 Q 419.747 36.013 419.387 36.114 Q 419.026 36.215 418.736 36.443 Q 418.165 36.856 418.165 37.7 Q 418.165 38.184 418.552 38.641 Q 418.745 38.851 419.07 38.996 Q 419.396 39.142 419.87 39.212 Q 420.125 39.256 420.468 39.304 Q 420.811 39.352 421.276 39.405 Q 423.078 39.625 423.948 40.732 Q 424.818 41.813 424.818 43.141 Q 424.818 44.916 423.579 45.918 Q 422.331 46.902 420.292 46.902 Q 417.418 46.902 415.405 45.144 Q 415.37 45.118 415.37 45.074 Q 415.37 45.03 415.397 44.995 Z M 428.502 40.398 Q 428.502 41.356 428.528 41.976 Q 428.555 42.596 428.625 42.894 Q 428.695 43.167 428.823 43.435 Q 428.95 43.703 429.108 43.905 Q 429.39 44.274 429.855 44.534 Q 430.321 44.793 430.98 44.793 Q 431.631 44.793 432.097 44.534 Q 432.562 44.274 432.835 43.905 Q 433.204 43.457 433.318 42.894 Q 433.459 42.332 433.459 40.398 Q 433.459 39.44 433.424 38.821 Q 433.389 38.201 433.318 37.911 Q 433.257 37.63 433.134 37.362 Q 433.011 37.094 432.844 36.883 Q 432.712 36.716 432.523 36.558 Q 432.334 36.399 432.097 36.281 Q 431.859 36.162 431.578 36.087 Q 431.297 36.013 430.98 36.013 Q 430.321 36.013 429.855 36.276 Q 429.39 36.54 429.108 36.883 Q 428.941 37.094 428.818 37.362 Q 428.695 37.63 428.625 37.911 Q 428.555 38.21 428.528 38.834 Q 428.502 39.458 428.502 40.398 Z M 435.665 32.339 Q 435.735 32.4 435.797 32.462 Q 436.377 33.068 436.395 34.044 Q 436.43 35.23 435.331 35.977 Q 435.155 36.057 434.971 36.127 Q 434.988 36.162 435.015 36.206 Q 435.34 36.804 435.454 37.454 Q 435.516 37.788 435.546 38.517 Q 435.577 39.247 435.577 40.398 Q 435.577 42.657 435.454 43.351 Q 435.393 43.694 435.283 44.002 Q 435.173 44.309 435.023 44.591 Q 434.558 45.434 433.52 46.173 Q 432.483 46.902 430.98 46.902 Q 429.46 46.902 428.423 46.173 Q 427.403 45.452 426.946 44.591 L 426.955 44.591 Q 426.788 44.292 426.674 43.989 Q 426.56 43.685 426.498 43.351 Q 426.445 43.017 426.415 42.284 Q 426.384 41.55 426.384 40.398 Q 426.384 39.247 426.415 38.517 Q 426.445 37.788 426.498 37.454 Q 426.56 37.12 426.674 36.812 Q 426.788 36.505 426.955 36.206 L 426.946 36.206 Q 427.403 35.353 428.423 34.624 Q 429.451 33.886 430.98 33.886 Q 432.492 33.886 433.52 34.624 Q 433.907 34.905 434.215 35.195 Q 435.129 34.861 435.155 34.079 Q 435.146 33.481 434.777 33.226 Z M 437.889 46.797 Q 437.784 46.797 437.784 46.691 L 437.784 34.097 Q 437.784 33.991 437.889 33.991 L 439.7 33.991 Q 439.752 33.991 439.787 34.044 L 445.325 42.763 L 445.325 34.097 Q 445.325 33.991 445.43 33.991 L 447.346 33.991 Q 447.452 33.991 447.452 34.097 L 447.452 46.691 Q 447.452 46.797 447.346 46.797 L 445.544 46.797 Q 445.492 46.797 445.456 46.744 L 439.902 38.025 L 439.902 46.691 Q 439.902 46.797 439.805 46.797 Z" transform="matrix(1.310387, 0, 0, 1.310387, -59.698296, -1.169035)" style="fill: rgb(255, 255, 255);"/>
    <path transform="matrix(1.310387, 0, 0, 1.310387, -59.698296, -1.169035)" style="fill: rgb(255, 255, 255);"/>
    <path d="M 368.029 72.357 Q 367.923 72.357 367.923 72.251 L 367.923 59.657 Q 367.923 59.551 368.029 59.551 L 372.441 59.551 Q 375.078 59.551 376.361 61.722 Q 376.598 62.144 376.748 62.522 Q 376.897 62.9 376.95 63.26 Q 377.055 63.963 377.055 65.958 Q 377.055 68.094 376.906 68.824 Q 376.835 69.193 376.695 69.54 Q 376.554 69.887 376.326 70.23 L 376.326 70.221 Q 375.754 71.126 374.744 71.742 Q 373.715 72.357 372.318 72.357 Z M 370.042 61.573 L 370.042 70.353 L 372.23 70.353 Q 373.742 70.353 374.48 69.298 Q 374.77 68.832 374.849 68.323 Q 374.893 68.041 374.915 67.474 Q 374.937 66.908 374.937 66.029 Q 374.937 65.176 374.911 64.605 Q 374.884 64.034 374.84 63.7 Q 374.752 63.084 374.392 62.583 Q 373.645 61.573 372.23 61.573 Z M 379.34 72.357 Q 379.235 72.357 379.235 72.251 L 379.235 59.657 Q 379.235 59.551 379.34 59.551 L 381.247 59.551 Q 381.353 59.551 381.353 59.657 L 381.353 72.251 Q 381.353 72.357 381.247 72.357 Z M 384.006 72.357 Q 383.901 72.357 383.901 72.251 L 383.901 59.657 Q 383.901 59.551 384.006 59.551 L 392.057 59.551 Q 392.162 59.551 392.162 59.657 L 392.162 61.467 Q 392.162 61.573 392.057 61.573 L 386.019 61.573 L 386.019 64.948 L 391.152 64.948 Q 391.257 64.948 391.257 65.053 L 391.257 66.758 Q 391.257 66.855 391.152 66.855 L 386.019 66.855 L 386.019 70.353 L 392.057 70.353 Q 392.162 70.353 392.162 70.458 L 392.162 72.251 Q 392.162 72.357 392.057 72.357 Z M 384.859 58.417 Q 384.779 58.417 384.762 58.347 Q 384.744 58.277 384.797 58.233 L 387.381 56.185 L 388.568 56.185 L 391.187 58.233 Q 391.248 58.277 391.226 58.347 Q 391.204 58.417 391.125 58.417 L 389.649 58.417 L 387.891 57.468 Q 387.504 57.705 387.109 57.943 Q 386.713 58.18 386.326 58.417 Z M 385.544 55.912 Q 385.439 55.912 385.456 55.807 Q 385.518 55.376 385.672 55.025 Q 385.825 54.673 386.063 54.401 Q 386.3 54.155 386.616 54.018 Q 386.933 53.882 387.284 53.882 Q 387.443 53.882 387.592 53.9 Q 387.741 53.917 387.891 53.97 Q 388.049 54.023 388.194 54.076 Q 388.339 54.128 388.436 54.163 Q 388.743 54.322 388.989 54.401 Q 389.156 54.48 389.385 54.48 Q 389.587 54.48 389.78 54.357 Q 389.947 54.243 390.018 53.856 Q 390.035 53.785 390.114 53.785 L 391.028 53.785 Q 391.143 53.785 391.125 53.891 Q 391.072 54.269 390.941 54.598 Q 390.809 54.928 390.607 55.201 Q 390.387 55.482 390.07 55.644 Q 389.754 55.807 389.341 55.816 Q 389.183 55.816 389.029 55.789 Q 388.875 55.763 388.735 55.702 L 388.743 55.702 Q 388.647 55.684 388.488 55.627 Q 388.33 55.57 388.119 55.491 Q 387.847 55.368 387.601 55.297 Q 387.355 55.227 387.117 55.218 Q 386.986 55.218 386.766 55.341 L 386.775 55.332 Q 386.555 55.473 386.555 55.825 Q 386.555 55.912 386.467 55.912 Z M 394.008 72.357 Q 393.902 72.357 393.902 72.251 L 393.902 59.657 Q 393.902 59.551 394.008 59.551 L 395.818 59.551 Q 395.871 59.551 395.906 59.604 L 401.443 68.323 L 401.443 59.657 Q 401.443 59.551 401.549 59.551 L 403.465 59.551 Q 403.57 59.551 403.57 59.657 L 403.57 72.251 Q 403.57 72.357 403.465 72.357 L 401.663 72.357 Q 401.61 72.357 401.575 72.304 L 396.02 63.585 L 396.02 72.251 Q 396.02 72.357 395.924 72.357 Z M 419.119 68.63 Q 419.172 68.63 419.207 68.67 Q 419.242 68.709 419.224 68.762 Q 418.855 70.555 417.59 71.522 Q 416.974 71.988 416.254 72.225 Q 415.533 72.462 414.698 72.462 Q 413.177 72.462 412.14 71.733 Q 411.121 71.012 410.664 70.151 Q 410.506 69.852 410.391 69.549 Q 410.277 69.245 410.216 68.911 Q 410.101 68.261 410.101 65.958 Q 410.101 64.807 410.128 64.077 Q 410.154 63.348 410.216 63.014 Q 410.277 62.68 410.391 62.372 Q 410.506 62.065 410.664 61.766 Q 411.121 60.913 412.14 60.184 Q 413.169 59.446 414.698 59.446 Q 416.526 59.446 417.721 60.571 Q 418.934 61.704 419.224 63.26 Q 419.242 63.313 419.207 63.348 Q 419.172 63.383 419.119 63.383 L 417.106 63.383 Q 417.027 63.383 417.009 63.313 Q 416.895 62.961 416.684 62.658 Q 416.473 62.355 416.166 62.091 Q 415.586 61.573 414.698 61.573 Q 414.039 61.573 413.573 61.836 Q 413.107 62.1 412.826 62.443 Q 412.659 62.654 412.536 62.922 Q 412.413 63.19 412.342 63.471 Q 412.272 63.77 412.246 64.394 Q 412.219 65.018 412.219 65.958 Q 412.219 66.916 412.246 67.536 Q 412.272 68.156 412.342 68.454 Q 412.413 68.727 412.54 68.995 Q 412.668 69.263 412.826 69.465 Q 413.107 69.834 413.573 70.094 Q 414.039 70.353 414.698 70.353 Q 416.218 70.353 417.009 68.692 Q 417.027 68.674 417.053 68.652 Q 417.08 68.63 417.106 68.63 Z M 427.538 72.357 Q 427.433 72.357 427.433 72.251 L 427.433 66.855 L 422.643 66.855 L 422.643 72.251 Q 422.643 72.357 422.537 72.357 L 420.63 72.357 Q 420.525 72.357 420.525 72.251 L 420.525 59.657 Q 420.525 59.551 420.63 59.551 L 422.537 59.551 Q 422.643 59.551 422.643 59.657 L 422.643 64.948 L 427.433 64.948 L 427.433 59.657 Q 427.433 59.551 427.538 59.551 L 429.446 59.551 Q 429.551 59.551 429.551 59.657 L 429.551 72.251 Q 429.551 72.357 429.446 72.357 Z M 431.052 72.348 Q 430.99 72.348 430.964 72.304 Q 430.938 72.26 430.955 72.207 L 435.561 59.604 Q 435.578 59.534 435.649 59.534 L 437.222 59.534 Q 437.248 59.534 437.279 59.556 Q 437.31 59.577 437.319 59.604 L 441.915 72.207 Q 441.933 72.26 441.906 72.304 Q 441.88 72.348 441.827 72.348 L 439.815 72.348 Q 439.744 72.348 439.727 72.278 L 438.778 69.5 L 434.137 69.5 Q 433.891 70.212 433.649 70.893 Q 433.407 71.575 433.161 72.278 Q 433.153 72.304 433.122 72.326 Q 433.091 72.348 433.065 72.348 Z M 438.145 67.611 Q 438.127 67.549 438.096 67.479 Q 438.066 67.409 438.048 67.356 Q 437.899 66.925 437.776 66.56 Q 437.653 66.196 437.556 65.923 Q 437.494 65.747 437.437 65.58 Q 437.38 65.413 437.327 65.264 Q 437.283 65.123 437.239 64.996 Q 437.196 64.869 437.152 64.745 Q 437.072 64.491 436.989 64.236 Q 436.905 63.981 436.818 63.708 Q 436.774 63.585 436.725 63.436 Q 436.677 63.286 436.624 63.119 Q 436.598 63.032 436.585 62.983 Q 436.572 62.935 436.554 62.887 Q 436.536 62.838 436.514 62.777 Q 436.492 62.715 436.457 62.601 Q 436.361 62.891 436.277 63.137 Q 436.194 63.383 436.123 63.594 Q 436.106 63.647 436.097 63.691 Q 436.088 63.735 436.071 63.779 Q 436.027 63.928 435.978 64.06 Q 435.93 64.192 435.886 64.324 Q 435.842 64.464 435.798 64.596 Q 435.754 64.728 435.71 64.851 Q 435.622 65.115 435.53 65.405 Q 435.438 65.695 435.323 66.011 Q 435.209 66.327 435.086 66.692 Q 434.963 67.057 434.77 67.611 Z M 433.302 58.417 Q 433.223 58.417 433.205 58.347 Q 433.188 58.277 433.24 58.233 L 435.824 56.185 L 437.011 56.185 L 439.63 58.233 Q 439.692 58.277 439.67 58.347 Q 439.648 58.417 439.569 58.417 L 438.092 58.417 L 436.334 57.468 Q 435.947 57.705 435.552 57.943 Q 435.156 58.18 434.77 58.417 Z M 443.174 59.657 Q 443.174 59.551 443.279 59.551 L 445.195 59.551 Q 445.292 59.551 445.292 59.657 L 445.292 67.778 Q 445.292 69.043 445.995 69.694 Q 446.707 70.353 447.762 70.353 Q 448.799 70.353 449.511 69.694 Q 450.223 69.035 450.223 67.778 L 450.223 59.657 Q 450.223 59.551 450.328 59.551 L 452.235 59.551 Q 452.341 59.551 452.341 59.657 L 452.341 67.989 Q 452.341 70.01 450.996 71.241 Q 449.669 72.462 447.762 72.462 Q 445.846 72.462 444.51 71.241 Q 443.174 70.01 443.174 67.989 Z" transform="matrix(1.310387, 0, 0, 1.310387, -59.698296, -1.169035)" style="fill: rgb(255, 255, 255);"/>
    <path d="M 426.152 119.118 Q 426.045 119.118 426.045 119.011 L 426.045 106.277 Q 426.045 106.17 426.152 106.17 L 434.292 106.17 Q 434.399 106.17 434.399 106.277 L 434.399 108.107 Q 434.399 108.214 434.292 108.214 L 428.187 108.214 L 428.187 111.626 L 433.377 111.626 Q 433.484 111.626 433.484 111.733 L 433.484 113.457 Q 433.484 113.555 433.377 113.555 L 428.187 113.555 L 428.187 117.092 L 434.292 117.092 Q 434.399 117.092 434.399 117.198 L 434.399 119.011 Q 434.399 119.118 434.292 119.118 Z M 442.572 119.118 Q 442.519 119.118 442.483 119.065 L 439.781 114.479 Q 439.106 115.634 438.431 116.772 Q 437.755 117.909 437.08 119.065 Q 437.044 119.118 436.991 119.118 L 434.814 119.118 Q 434.743 119.118 434.716 119.069 Q 434.689 119.02 434.725 118.958 L 438.591 112.48 Q 437.675 110.933 436.778 109.405 Q 435.88 107.876 434.974 106.33 Q 434.938 106.268 434.965 106.219 Q 434.992 106.17 435.054 106.17 L 437.24 106.17 Q 437.293 106.17 437.329 106.223 L 439.781 110.489 Q 440.395 109.422 441.008 108.361 Q 441.621 107.299 442.234 106.223 Q 442.27 106.17 442.323 106.17 L 444.509 106.17 Q 444.571 106.17 444.598 106.219 Q 444.625 106.268 444.589 106.33 L 440.972 112.48 Q 441.95 114.106 442.91 115.719 Q 443.869 117.332 444.847 118.958 Q 444.882 119.02 444.856 119.069 Q 444.829 119.118 444.758 119.118 Z M 448.149 108.214 L 448.149 112.106 L 450.913 112.106 Q 451.935 112.106 452.433 111.493 Q 452.939 110.898 452.939 110.16 Q 452.939 109.058 452.157 108.552 Q 451.65 108.214 450.842 108.214 Z M 446.114 119.118 Q 446.007 119.118 446.007 119.011 L 446.007 106.277 Q 446.007 106.17 446.114 106.17 L 450.735 106.17 Q 451.499 106.17 452.184 106.33 Q 452.877 106.49 453.659 107.094 Q 453.961 107.334 454.214 107.65 Q 454.468 107.965 454.672 108.347 Q 454.867 108.738 454.974 109.209 Q 455.081 109.68 455.081 110.213 Q 455.081 111.609 454.032 112.879 Q 452.983 114.141 450.984 114.141 L 448.149 114.141 L 448.149 119.011 Q 448.149 119.118 448.042 119.118 Z M 458.768 108.098 L 458.768 111.751 L 461.585 111.751 Q 462.616 111.751 463.131 111.182 Q 463.647 110.613 463.647 109.831 Q 463.647 109.387 463.491 109.04 Q 463.336 108.694 463.042 108.472 Q 462.785 108.294 462.442 108.196 Q 462.1 108.098 461.7 108.098 Z M 456.733 119.118 Q 456.626 119.118 456.626 119.011 L 456.626 106.277 Q 456.626 106.17 456.733 106.17 L 461.718 106.17 Q 462.545 106.17 463.211 106.397 Q 463.878 106.623 464.375 107.041 Q 464.633 107.281 464.869 107.587 Q 465.104 107.894 465.286 108.249 Q 465.468 108.605 465.575 109.005 Q 465.682 109.405 465.682 109.831 Q 465.682 110.462 465.504 111.027 Q 465.326 111.591 465.006 112.08 Q 464.677 112.533 464.242 112.875 Q 463.807 113.217 463.256 113.422 Q 463.975 114.799 464.704 116.19 Q 465.433 117.58 466.153 118.958 Q 466.179 119.02 466.153 119.069 Q 466.126 119.118 466.064 119.118 L 463.771 119.118 Q 463.744 119.118 463.718 119.096 Q 463.691 119.073 463.673 119.056 L 461.069 113.679 L 458.768 113.679 L 458.768 119.011 Q 458.768 119.118 458.661 119.118 Z M 467.66 119.118 Q 467.554 119.118 467.554 119.011 L 467.554 106.277 Q 467.554 106.17 467.66 106.17 L 475.801 106.17 Q 475.907 106.17 475.907 106.277 L 475.907 108.107 Q 475.907 108.214 475.801 108.214 L 469.695 108.214 L 469.695 111.626 L 474.885 111.626 Q 474.992 111.626 474.992 111.733 L 474.992 113.457 Q 474.992 113.555 474.885 113.555 L 469.695 113.555 L 469.695 117.092 L 475.801 117.092 Q 475.907 117.092 475.907 117.198 L 475.907 119.011 Q 475.907 119.118 475.801 119.118 Z M 477.682 115.848 Q 477.708 115.812 477.753 115.812 Q 477.797 115.812 477.833 115.839 Q 478.535 116.407 479.446 116.75 Q 480.357 117.092 481.37 117.092 Q 482.507 117.092 483.165 116.621 Q 483.787 116.168 483.787 115.421 Q 483.787 114.017 482.214 113.804 L 482.223 113.804 Q 482.001 113.777 481.801 113.75 Q 481.601 113.724 481.401 113.697 Q 481.201 113.67 480.992 113.639 Q 480.783 113.608 480.534 113.573 Q 479.699 113.457 479.046 113.15 Q 478.393 112.844 477.948 112.337 Q 477.504 111.822 477.282 111.213 Q 477.06 110.604 477.06 109.885 Q 477.06 108.196 478.179 107.139 Q 479.308 106.063 481.316 106.063 Q 481.912 106.063 482.476 106.166 Q 483.04 106.268 483.569 106.445 Q 484.098 106.623 484.582 106.868 Q 485.067 107.112 485.511 107.405 Q 485.6 107.467 485.538 107.556 L 484.462 109.147 Q 484.4 109.227 484.32 109.174 Q 483.627 108.738 482.845 108.476 Q 482.063 108.214 481.228 108.214 Q 480.801 108.214 480.437 108.316 Q 480.072 108.418 479.779 108.649 Q 479.201 109.067 479.201 109.92 Q 479.201 110.409 479.592 110.871 Q 479.788 111.084 480.117 111.231 Q 480.445 111.378 480.925 111.449 Q 481.183 111.493 481.53 111.542 Q 481.876 111.591 482.347 111.644 Q 484.169 111.866 485.049 112.986 Q 485.929 114.079 485.929 115.421 Q 485.929 117.216 484.676 118.229 Q 483.414 119.225 481.352 119.225 Q 478.446 119.225 476.411 117.447 Q 476.375 117.421 476.375 117.376 Q 476.375 117.332 476.402 117.296 Z M 487.952 115.848 Q 487.978 115.812 488.023 115.812 Q 488.067 115.812 488.103 115.839 Q 488.805 116.407 489.716 116.75 Q 490.627 117.092 491.64 117.092 Q 492.777 117.092 493.435 116.621 Q 494.057 116.168 494.057 115.421 Q 494.057 114.017 492.484 113.804 L 492.493 113.804 Q 492.271 113.777 492.071 113.75 Q 491.871 113.724 491.671 113.697 Q 491.471 113.67 491.262 113.639 Q 491.053 113.608 490.804 113.573 Q 489.969 113.457 489.316 113.15 Q 488.663 112.844 488.218 112.337 Q 487.774 111.822 487.552 111.213 Q 487.33 110.604 487.33 109.885 Q 487.33 108.196 488.449 107.139 Q 489.578 106.063 491.586 106.063 Q 492.182 106.063 492.746 106.166 Q 493.311 106.268 493.839 106.445 Q 494.368 106.623 494.852 106.868 Q 495.337 107.112 495.781 107.405 Q 495.87 107.467 495.808 107.556 L 494.732 109.147 Q 494.67 109.227 494.59 109.174 Q 493.897 108.738 493.115 108.476 Q 492.333 108.214 491.498 108.214 Q 491.071 108.214 490.707 108.316 Q 490.342 108.418 490.049 108.649 Q 489.471 109.067 489.471 109.92 Q 489.471 110.409 489.862 110.871 Q 490.058 111.084 490.387 111.231 Q 490.716 111.378 491.195 111.449 Q 491.453 111.493 491.8 111.542 Q 492.146 111.591 492.617 111.644 Q 494.439 111.866 495.319 112.986 Q 496.199 114.079 496.199 115.421 Q 496.199 117.216 494.946 118.229 Q 493.684 119.225 491.622 119.225 Q 488.716 119.225 486.681 117.447 Q 486.645 117.421 486.645 117.376 Q 486.645 117.332 486.672 117.296 Z M 500.204 119.118 Q 500.115 119.118 500.097 119.038 L 496.907 106.303 Q 496.889 106.25 496.924 106.21 Q 496.96 106.17 497.013 106.17 L 499.057 106.17 Q 499.146 106.17 499.164 106.25 L 501.083 114.95 Q 501.67 112.764 502.265 110.604 Q 502.861 108.445 503.456 106.25 Q 503.474 106.17 503.563 106.17 L 504.958 106.17 Q 505.038 106.17 505.056 106.25 L 507.437 114.95 Q 507.917 112.764 508.397 110.604 Q 508.877 108.445 509.357 106.25 Q 509.375 106.17 509.464 106.17 L 511.508 106.17 Q 511.561 106.17 511.596 106.21 Q 511.632 106.25 511.614 106.303 L 508.424 119.038 Q 508.406 119.118 508.317 119.118 L 506.709 119.118 Q 506.629 119.118 506.611 119.038 L 504.256 110.196 Q 503.669 112.426 503.083 114.621 Q 502.496 116.816 501.91 119.038 Q 501.892 119.118 501.812 119.118 Z M 511.528 119.109 Q 511.466 119.109 511.439 119.065 Q 511.412 119.02 511.43 118.967 L 516.087 106.223 Q 516.104 106.152 516.175 106.152 L 517.766 106.152 Q 517.793 106.152 517.824 106.174 Q 517.855 106.197 517.864 106.223 L 522.512 118.967 Q 522.529 119.02 522.503 119.065 Q 522.476 119.109 522.423 119.109 L 520.388 119.109 Q 520.317 119.109 520.299 119.038 L 519.339 116.23 L 514.647 116.23 Q 514.398 116.95 514.154 117.638 Q 513.909 118.327 513.661 119.038 Q 513.652 119.065 513.621 119.087 Q 513.589 119.109 513.563 119.109 Z M 518.699 114.319 Q 518.682 114.257 518.65 114.186 Q 518.619 114.115 518.602 114.061 Q 518.45 113.626 518.326 113.257 Q 518.202 112.888 518.104 112.613 Q 518.042 112.435 517.984 112.266 Q 517.926 112.097 517.873 111.946 Q 517.828 111.804 517.784 111.675 Q 517.74 111.546 517.695 111.422 Q 517.615 111.164 517.531 110.907 Q 517.446 110.649 517.357 110.373 Q 517.313 110.249 517.264 110.098 Q 517.215 109.947 517.162 109.778 Q 517.135 109.689 517.122 109.64 Q 517.109 109.591 517.091 109.542 Q 517.073 109.494 517.051 109.431 Q 517.029 109.369 516.993 109.254 Q 516.895 109.547 516.811 109.796 Q 516.726 110.045 516.655 110.258 Q 516.638 110.311 516.629 110.356 Q 516.62 110.4 516.602 110.444 Q 516.558 110.596 516.509 110.729 Q 516.46 110.862 516.415 110.995 Q 516.371 111.138 516.327 111.271 Q 516.282 111.404 516.238 111.529 Q 516.149 111.795 516.056 112.089 Q 515.962 112.382 515.847 112.702 Q 515.731 113.022 515.607 113.39 Q 515.482 113.759 515.287 114.319 Z M 525.493 119.118 Q 525.395 119.118 525.395 119.011 L 525.395 113.804 Q 524.435 111.929 523.484 110.062 Q 522.533 108.196 521.582 106.321 Q 521.556 106.259 521.582 106.214 Q 521.609 106.17 521.68 106.17 L 523.706 106.17 Q 523.733 106.17 523.76 106.192 Q 523.786 106.214 523.804 106.232 L 526.417 111.689 Q 527.074 110.311 527.719 108.96 Q 528.363 107.61 529.021 106.232 Q 529.038 106.214 529.065 106.192 Q 529.092 106.17 529.118 106.17 L 531.153 106.17 Q 531.224 106.17 531.251 106.214 Q 531.278 106.259 531.251 106.321 L 527.43 113.804 L 527.43 119.011 Q 527.43 119.118 527.323 119.118 Z" style="fill: rgb(255, 255, 255);"/>
    <path d="M 343.122 84.558 Q 343.194 84.558 343.242 84.612 Q 343.29 84.666 343.266 84.738 Q 342.761 87.189 341.032 88.51 Q 340.191 89.147 339.206 89.471 Q 338.221 89.795 337.08 89.795 Q 335.002 89.795 333.584 88.798 Q 332.191 87.813 331.566 86.636 Q 331.35 86.228 331.194 85.813 Q 331.038 85.399 330.954 84.942 Q 330.798 84.054 330.798 80.906 Q 330.798 79.333 330.834 78.336 Q 330.87 77.339 330.954 76.883 Q 331.038 76.426 331.194 76.006 Q 331.35 75.585 331.566 75.177 Q 332.191 74.012 333.584 73.015 Q 334.99 72.006 337.08 72.006 Q 339.578 72.006 341.212 73.543 Q 342.869 75.093 343.266 77.219 Q 343.29 77.291 343.242 77.339 Q 343.194 77.387 343.122 77.387 L 340.371 77.387 Q 340.263 77.387 340.239 77.291 Q 340.083 76.81 339.794 76.396 Q 339.506 75.982 339.086 75.621 Q 338.293 74.913 337.08 74.913 Q 336.179 74.913 335.542 75.273 Q 334.906 75.633 334.521 76.102 Q 334.293 76.39 334.125 76.756 Q 333.957 77.123 333.861 77.507 Q 333.765 77.916 333.729 78.768 Q 333.693 79.621 333.693 80.906 Q 333.693 82.216 333.729 83.063 Q 333.765 83.909 333.861 84.318 Q 333.957 84.69 334.131 85.057 Q 334.305 85.423 334.521 85.699 Q 334.906 86.204 335.542 86.558 Q 336.179 86.912 337.08 86.912 Q 339.158 86.912 340.239 84.642 Q 340.263 84.618 340.299 84.588 Q 340.335 84.558 340.371 84.558 Z M 348.15 89.651 Q 348.006 89.651 348.006 89.507 L 348.006 74.756 L 343.429 74.756 Q 343.285 74.756 343.285 74.612 L 343.285 72.294 Q 343.285 72.15 343.429 72.15 L 355.465 72.15 Q 355.609 72.15 355.609 72.294 L 355.609 74.612 Q 355.609 74.756 355.465 74.756 L 350.9 74.756 L 350.9 89.507 Q 350.9 89.651 350.756 89.651 Z M 355.978 89.651 Q 355.834 89.651 355.834 89.507 L 355.834 87.068 Q 355.834 86.924 355.978 86.924 L 358.428 86.924 Q 358.56 86.924 358.56 87.068 L 358.56 89.507 Q 358.56 89.651 358.428 89.651 Z M 366.923 77.327 Q 366.923 76.162 366.304 75.507 Q 365.686 74.853 364.653 74.853 Q 363.62 74.853 363.007 75.507 Q 362.395 76.162 362.395 77.327 L 362.395 84.594 Q 362.395 85.771 363.007 86.42 Q 363.62 87.068 364.653 87.068 Q 365.686 87.068 366.304 86.42 Q 366.923 85.771 366.923 84.594 Z M 359.656 77.183 Q 359.656 74.756 361.181 73.447 Q 362.695 72.114 364.653 72.114 Q 365.626 72.114 366.497 72.456 Q 367.367 72.799 368.124 73.447 Q 368.881 74.12 369.271 75.051 Q 369.662 75.982 369.662 77.183 L 369.662 84.738 Q 369.662 87.153 368.124 88.474 Q 366.611 89.795 364.653 89.795 Q 362.695 89.795 361.181 88.474 Q 359.656 87.165 359.656 84.738 Z M 374.694 89.687 Q 374.55 89.687 374.55 89.543 L 374.55 75.273 Q 373.997 75.681 373.445 76.096 Q 372.892 76.51 372.34 76.907 Q 372.256 76.967 372.183 76.925 Q 372.111 76.883 372.111 76.786 L 372.111 74.18 Q 372.111 74.156 372.129 74.12 Q 372.147 74.084 372.171 74.06 L 374.646 72.27 L 377.156 72.27 Q 377.3 72.27 377.3 72.414 L 377.3 89.543 Q 377.3 89.687 377.156 89.687 Z"/>
    <path d="M 395.707 174.374 Q 395.724 172.731 396.272 171.427 Q 396.819 170.124 397.816 169.194 Q 398.762 168.331 399.941 167.858 Q 401.119 167.385 402.414 167.385 Q 405.153 167.385 407.112 169.194 Q 409.088 171.021 409.138 174.391 L 409.138 184.85 Q 409.105 186.46 408.573 187.788 Q 408.042 189.116 407.112 190.029 Q 406.166 190.876 404.979 191.358 Q 403.792 191.839 402.414 191.872 Q 400.04 191.806 398.231 190.411 L 398.231 190.428 Q 397.284 189.697 396.695 188.676 Q 396.106 187.655 395.84 186.327 Q 395.807 186.244 395.865 186.178 Q 395.923 186.111 396.023 186.111 L 399.409 186.111 Q 399.526 186.111 399.592 186.244 Q 400.339 188.104 402.414 188.104 Q 405.353 188.087 405.469 184.667 L 405.469 182.692 Q 404.373 183.024 403.294 183.206 Q 402.215 183.389 401.269 183.356 Q 398.978 183.405 397.301 181.695 L 397.318 181.695 Q 395.674 180.052 395.707 176.566 Z M 399.393 176.532 Q 399.393 179.919 402.414 179.969 Q 405.369 179.919 405.469 176.532 L 405.469 174.59 Q 405.336 171.22 402.414 171.153 Q 399.409 171.236 399.393 174.59 Z M 422.167 174.573 Q 422.167 172.963 421.312 172.058 Q 420.457 171.153 419.03 171.153 Q 417.602 171.153 416.755 172.058 Q 415.909 172.963 415.909 174.573 L 415.909 184.617 Q 415.909 186.244 416.755 187.141 Q 417.602 188.037 419.03 188.037 Q 420.457 188.037 421.312 187.141 Q 422.167 186.244 422.167 184.617 Z M 412.123 174.374 Q 412.123 171.021 414.232 169.211 Q 416.324 167.368 419.03 167.368 Q 420.374 167.368 421.578 167.841 Q 422.782 168.315 423.828 169.211 Q 424.873 170.141 425.413 171.427 Q 425.953 172.714 425.953 174.374 L 425.953 184.817 Q 425.953 188.153 423.828 189.98 Q 421.736 191.806 419.03 191.806 Q 416.324 191.806 414.232 189.98 Q 412.123 188.17 412.123 184.817 Z"/>
    <path d="M 505.004 174.391 Q 505.02 172.731 505.568 171.427 Q 506.116 170.124 507.112 169.194 Q 508.058 168.331 509.237 167.858 Q 510.416 167.385 511.711 167.385 Q 514.068 167.385 515.977 168.796 Q 517.77 170.224 518.318 172.913 Q 518.351 173.013 518.285 173.079 Q 518.218 173.146 518.119 173.146 L 514.715 173.146 Q 514.583 173.146 514.533 173.029 Q 513.786 171.203 511.694 171.153 Q 508.689 171.236 508.689 174.607 L 508.689 176.566 Q 509.768 176.25 510.839 176.068 Q 511.91 175.885 512.873 175.902 Q 515.197 175.902 516.857 177.528 Q 518.451 179.205 518.434 182.692 L 518.434 184.85 Q 518.384 188.253 516.409 190.029 Q 514.549 191.789 511.711 191.872 Q 508.955 191.789 507.112 190.046 Q 505.02 188.22 505.004 184.866 Z M 508.689 184.667 Q 508.706 188.07 511.711 188.104 Q 514.649 188.087 514.765 184.667 L 514.765 182.725 Q 514.632 179.355 511.711 179.288 Q 508.706 179.371 508.689 182.725 Z M 531.131 174.573 Q 531.131 172.963 530.276 172.058 Q 529.421 171.153 527.993 171.153 Q 526.566 171.153 525.719 172.058 Q 524.872 172.963 524.872 174.573 L 524.872 184.617 Q 524.872 186.244 525.719 187.141 Q 526.566 188.037 527.993 188.037 Q 529.421 188.037 530.276 187.141 Q 531.131 186.244 531.131 184.617 Z M 521.087 174.374 Q 521.087 171.021 523.196 169.211 Q 525.287 167.368 527.993 167.368 Q 529.338 167.368 530.542 167.841 Q 531.745 168.315 532.791 169.211 Q 533.837 170.141 534.377 171.427 Q 534.916 172.714 534.916 174.374 L 534.916 184.817 Q 534.916 188.153 532.791 189.98 Q 530.699 191.806 527.993 191.806 Q 525.287 191.806 523.196 189.98 Q 521.087 188.17 521.087 184.817 Z" style="fill: rgb(255, 255, 255);"/>
  </g>
</svg>