<?xml version="1.0" encoding="UTF-8" standalone="no"?>
<!-- Created with Inkscape (http://www.inkscape.org/) -->

<svg
   width="900mm"
   height="450mm"
   viewBox="0 0 900 450"
   version="1.1"
   id="svg848"
   inkscape:version="1.2.2 (732a01da63, 2022-12-09)"
   sodipodi:docname="Vietnam_road_sign_I417c.svg"
   xmlns:inkscape="http://www.inkscape.org/namespaces/inkscape"
   xmlns:sodipodi="http://sodipodi.sourceforge.net/DTD/sodipodi-0.dtd"
   xmlns="http://www.w3.org/2000/svg"
   xmlns:svg="http://www.w3.org/2000/svg"
   xmlns:rdf="http://www.w3.org/1999/02/22-rdf-syntax-ns#"
   xmlns:cc="http://creativecommons.org/ns#"
   xmlns:dc="http://purl.org/dc/elements/1.1/">
  <defs
     id="defs842">
    <clipPath
       id="clip-192">
      <path
         clip-rule="nonzero"
         d="M 1.5,1.980469 H 549 V 539 H 1.5 Z m 0,0"
         id="path14718" />
    </clipPath>
    <clipPath
       id="clip-193">
      <path
         clip-rule="nonzero"
         d="M 1.5,1.980469 H 572 V 539 H 1.5 Z m 0,0"
         id="path14721" />
    </clipPath>
    <clipPath
       id="clip-195">
      <path
         clip-rule="nonzero"
         d="M 1.5,1.980469 H 602 V 539 H 1.5 Z m 0,0"
         id="path14727" />
    </clipPath>
    <clipPath
       id="clip-196">
      <path
         clip-rule="nonzero"
         d="M 1.5,1.980469 H 610.73828 V 539 H 1.5 Z m 0,0"
         id="path14730" />
    </clipPath>
    <clipPath
       id="clip-197">
      <path
         clip-rule="nonzero"
         d="M 1.5,1.980469 H 409 V 422 H 1.5 Z m 0,0"
         id="path14733" />
    </clipPath>
    <clipPath
       id="clip-198">
      <path
         clip-rule="nonzero"
         d="M 1.5,1.980469 H 421 V 422 H 1.5 Z m 0,0"
         id="path14736" />
    </clipPath>
    <clipPath
       id="clip-200">
      <path
         clip-rule="nonzero"
         d="M 13,1.980469 H 437 V 422 H 13 Z m 0,0"
         id="path14742" />
    </clipPath>
    <clipPath
       id="clip-201">
      <path
         clip-rule="nonzero"
         d="M 19,1.980469 H 442 V 422 H 19 Z m 0,0"
         id="path14745" />
    </clipPath>
    <clipPath
       id="clip-202">
      <path
         clip-rule="nonzero"
         d="M 27,1.980469 H 451 V 422 H 27 Z m 0,0"
         id="path14748" />
    </clipPath>
    <clipPath
       id="clip-203">
      <path
         clip-rule="nonzero"
         d="M 37,1.980469 H 461 V 422 H 37 Z m 0,0"
         id="path14751" />
    </clipPath>
    <clipPath
       id="clip-205">
      <path
         clip-rule="nonzero"
         d="M 54,1.980469 H 478 V 422 H 54 Z m 0,0"
         id="path14757" />
    </clipPath>
    <clipPath
       id="clip-206">
      <path
         clip-rule="nonzero"
         d="M 61,1.980469 H 485 V 422 H 61 Z m 0,0"
         id="path14760" />
    </clipPath>
    <clipPath
       id="clip-208">
      <path
         clip-rule="nonzero"
         d="M 76,1.980469 H 500 V 422 H 76 Z m 0,0"
         id="path14766" />
    </clipPath>
    <clipPath
       id="clip-209">
      <path
         clip-rule="nonzero"
         d="M 1.5,20 H 409 V 444 H 1.5 Z m 0,0"
         id="path14769" />
    </clipPath>
    <clipPath
       id="clip-210">
      <path
         clip-rule="nonzero"
         d="M 1.5,20 H 421 V 444 H 1.5 Z m 0,0"
         id="path14772" />
    </clipPath>
    <clipPath
       id="clip-56-9">
      <path
         clip-rule="nonzero"
         d="M 1.5,249 H 549 V 790.37891 H 1.5 Z m 0,0"
         id="path14310" />
    </clipPath>
    <clipPath
       id="clip-57-4">
      <path
         clip-rule="nonzero"
         d="M 1.5,249 H 572 V 790.37891 H 1.5 Z m 0,0"
         id="path14313" />
    </clipPath>
    <clipPath
       id="clip-59-6">
      <path
         clip-rule="nonzero"
         d="M 1.5,249 H 602 V 790.37891 H 1.5 Z m 0,0"
         id="path14319" />
    </clipPath>
    <clipPath
       id="clip-60-4">
      <path
         clip-rule="nonzero"
         d="M 1.5,249 H 610.73828 V 790.37891 H 1.5 Z m 0,0"
         id="path14322" />
    </clipPath>
    <clipPath
       id="clip-61-7">
      <path
         clip-rule="nonzero"
         d="M 1.5,413 H 409 V 790.37891 H 1.5 Z m 0,0"
         id="path14325" />
    </clipPath>
    <clipPath
       id="clip-62-3">
      <path
         clip-rule="nonzero"
         d="M 1.5,413 H 421 V 790.37891 H 1.5 Z m 0,0"
         id="path14328" />
    </clipPath>
    <clipPath
       id="clip-64-5">
      <path
         clip-rule="nonzero"
         d="M 13,413 H 437 V 790.37891 H 13 Z m 0,0"
         id="path14334" />
    </clipPath>
    <clipPath
       id="clip-65-1">
      <path
         clip-rule="nonzero"
         d="M 24,413 H 447 V 790.37891 H 24 Z m 0,0"
         id="path14337" />
    </clipPath>
    <clipPath
       id="clip-66-4">
      <path
         clip-rule="nonzero"
         d="M 34,413 H 458 V 790.37891 H 34 Z m 0,0"
         id="path14340" />
    </clipPath>
    <clipPath
       id="clip-68-9">
      <path
         clip-rule="nonzero"
         d="M 50,413 H 474 V 790.37891 H 50 Z m 0,0"
         id="path14346" />
    </clipPath>
    <clipPath
       id="clip-69-1">
      <path
         clip-rule="nonzero"
         d="M 59,413 H 483 V 790.37891 H 59 Z m 0,0"
         id="path14349" />
    </clipPath>
    <clipPath
       id="clip-70-6">
      <path
         clip-rule="nonzero"
         d="M 1.5,436 H 408 V 790.37891 H 1.5 Z m 0,0"
         id="path14352" />
    </clipPath>
    <clipPath
       id="clip-71-1">
      <path
         clip-rule="nonzero"
         d="M 1.5,436 H 419 V 790.37891 H 1.5 Z m 0,0"
         id="path14355" />
    </clipPath>
    <clipPath
       id="clip-72-01">
      <path
         clip-rule="nonzero"
         d="M 6,436 H 430 V 790.37891 H 6 Z m 0,0"
         id="path14358" />
    </clipPath>
    <clipPath
       id="clip-73-8">
      <path
         clip-rule="nonzero"
         d="M 18,436 H 442 V 790.37891 H 18 Z m 0,0"
         id="path14361" />
    </clipPath>
    <clipPath
       id="clip-74-86">
      <path
         clip-rule="nonzero"
         d="M 29,436 H 453 V 790.37891 H 29 Z m 0,0"
         id="path14364" />
    </clipPath>
    <clipPath
       id="clip-76-9">
      <path
         clip-rule="nonzero"
         d="M 40,436 H 463 V 790.37891 H 40 Z m 0,0"
         id="path14370" />
    </clipPath>
    <clipPath
       id="clip-77-7">
      <path
         clip-rule="nonzero"
         d="M 50,436 H 474 V 790.37891 H 50 Z m 0,0"
         id="path14373" />
    </clipPath>
    <clipPath
       id="clip-79-5">
      <path
         clip-rule="nonzero"
         d="M 60,436 H 484 V 790.37891 H 60 Z m 0,0"
         id="path14379" />
    </clipPath>
    <clipPath
       id="clip-80-6">
      <path
         clip-rule="nonzero"
         d="M 71,436 H 495 V 790.37891 H 71 Z m 0,0"
         id="path14382" />
    </clipPath>
  </defs>
  <sodipodi:namedview
     id="base"
     pagecolor="#ffffff"
     bordercolor="#666666"
     borderopacity="1.0"
     inkscape:pageopacity="0.0"
     inkscape:pageshadow="2"
     inkscape:zoom="0.12372612"
     inkscape:cx="763.78375"
     inkscape:cy="812.27796"
     inkscape:document-units="mm"
     inkscape:current-layer="g13039"
     showgrid="false"
     inkscape:snap-global="false"
     inkscape:window-width="1920"
     inkscape:window-height="991"
     inkscape:window-x="-9"
     inkscape:window-y="-9"
     inkscape:window-maximized="1"
     fit-margin-top="0"
     fit-margin-left="0"
     fit-margin-right="0"
     fit-margin-bottom="0"
     showguides="false"
     inkscape:lockguides="true"
     inkscape:showpageshadow="2"
     inkscape:pagecheckerboard="0"
     inkscape:deskcolor="#d1d1d1" />
  <metadata
     id="metadata845">
    <rdf:RDF>
      <cc:Work
         rdf:about="">
        <dc:format>image/svg+xml</dc:format>
        <dc:type
           rdf:resource="http://purl.org/dc/dcmitype/StillImage" />
      </cc:Work>
    </rdf:RDF>
  </metadata>
  <g
     inkscape:label="Layer 1"
     inkscape:groupmode="layer"
     id="layer1"
     transform="translate(0,153)">
    <rect
       style="opacity:1;fill:#0046aa;fill-opacity:1;fill-rule:nonzero;stroke:none;stroke-width:2.69753385;stroke-linecap:butt;stroke-linejoin:miter;stroke-miterlimit:10;stroke-dasharray:none;stroke-opacity:1;paint-order:stroke fill markers"
       id="rect1393"
       width="900"
       height="450"
       x="0"
       y="-153" />
    <rect
       y="-148"
       x="5"
       height="440"
       width="890"
       id="rect1395"
       style="opacity:1;fill:#ffffff;fill-opacity:1;fill-rule:nonzero;stroke:none;stroke-width:2.65253282;stroke-linecap:butt;stroke-linejoin:miter;stroke-miterlimit:10;stroke-dasharray:none;stroke-opacity:1;paint-order:stroke fill markers" />
    <rect
       y="-138"
       x="15"
       height="420"
       width="870"
       id="rect1406"
       style="opacity:1;fill:#0046aa;fill-opacity:1;fill-rule:nonzero;stroke:none;stroke-width:2.56226325;stroke-linecap:butt;stroke-linejoin:miter;stroke-miterlimit:10;stroke-dasharray:none;stroke-opacity:1;paint-order:stroke fill markers" />
    <g
       aria-label="ĐOẠN ĐƯỜNG THI CÔNG"
       style="font-style:normal;font-variant:normal;font-weight:bold;font-stretch:normal;font-size:221.00715637px;line-height:0;font-family:Giaothong1;-inkscape-font-specification:'Giaothong1 Bold';letter-spacing:0px;word-spacing:2.73314595px;fill:#000000;fill-opacity:1;stroke:none;stroke-width:1.15107894"
       id="text830"
       transform="translate(87.158,216.08892)" />
    <path
       id="path18783"
       style="opacity:1;fill:#ffffff;stroke-width:4.08133"
       d="M 771.05895,-5.023799 V 33.474518 H 565.79179 v 38.520051 38.509181 h 205.26716 v 38.52005 l 51.66239,-38.52005 51.20891,-38.509181 -51.20891,-38.520051 z" />
    <g
       id="g13039"
       transform="matrix(21.526775,0,0,21.526775,-32464.42,-2756.9449)"
       style="fill:#800080">
      <g
         id="g18698"
         transform="translate(0,0.58077635)">
        <g
           clip-path="url(#clip-56-9)"
           id="g15611"
           transform="matrix(0.19530431,0,0,0.19530431,1472.1051,11.806804)"
           style="fill:#ffffff">
          <g
             fill="#ffffff"
             fill-opacity="1"
             id="g15609"
             style="fill:#ffffff">
            <g
               id="use15607"
               transform="translate(194.5452,603.31201)"
               style="fill:#ffffff">
              <path
                 d="m 16.296875,0.015625 c -0.136719,0 -0.207031,-0.0664063 -0.207031,-0.207031 v -10.597657 h -9.40625 v 10.597657 c 0,0.1406247 -0.070313,0.207031 -0.207031,0.207031 h -3.75 c -0.136719,0 -0.207032,-0.0664063 -0.207032,-0.207031 v -24.738282 c 0,-0.140625 0.070313,-0.207031 0.207032,-0.207031 h 3.75 c 0.136718,0 0.207031,0.06641 0.207031,0.207031 v 10.394532 h 9.40625 v -10.394532 c 0,-0.140625 0.07031,-0.207031 0.207031,-0.207031 h 3.75 c 0.136719,0 0.207031,0.06641 0.207031,0.207031 v 24.738282 c 0,0.1406247 -0.07031,0.207031 -0.207031,0.207031 h -3.75"
                 id="path12847"
                 style="fill:#ffffff" />
            </g>
          </g>
        </g>
        <g
           clip-path="url(#clip-57-4)"
           id="g15617"
           transform="matrix(0.19530431,0,0,0.19530431,1472.1051,11.806804)"
           style="fill:#ffffff">
          <g
             fill="#ffffff"
             fill-opacity="1"
             id="g15615"
             style="fill:#ffffff">
            <g
               id="use15613"
               transform="translate(217.48311,603.31201)"
               style="fill:#ffffff">
              <path
                 d="M 0.292969,0 C 0.214844,0 0.15625,-0.0273438 0.121094,-0.0859375 0.0859375,-0.136719 0.078125,-0.207031 0.105469,-0.277344 l 9.046875,-24.757812 c 0.015625,-0.08594 0.074219,-0.136719 0.171875,-0.136719 h 3.089844 c 0.03516,0 0.07031,0.0078 0.113281,0.04297 0.03125,0.02734 0.05859,0.05859 0.07813,0.09375 l 9.027344,24.757812 c 0.01953,0.070313 0.01953,0.128906 -0.01563,0.1914065 C 21.582031,-0.0351563 21.53125,0 21.460938,0 h -3.953125 c -0.08594,0 -0.148438,-0.0429688 -0.171875,-0.136719 L 15.46875,-5.59375 H 6.355469 C 6.035156,-4.660156 5.714844,-3.753906 5.394531,-2.855469 5.085938,-1.96875 4.765625,-1.0625 4.4375,-0.136719 4.429688,-0.105469 4.402344,-0.078125 4.359375,-0.0429688 4.324219,-0.015625 4.28125,0 4.246094,0 H 0.292969 m 13.933594,-9.304688 c -0.01563,-0.078125 -0.05078,-0.164062 -0.09375,-0.261718 -0.03516,-0.085938 -0.07031,-0.171875 -0.09766,-0.238282 -0.1875,-0.5625 -0.371093,-1.082031 -0.535156,-1.5625 -0.152344,-0.476562 -0.300781,-0.890625 -0.429687,-1.253906 -0.07813,-0.222656 -0.15625,-0.449219 -0.234375,-0.671875 -0.06641,-0.21875 -0.144532,-0.425781 -0.214844,-0.621094 -0.05078,-0.183593 -0.113281,-0.355468 -0.171875,-0.527343 -0.05078,-0.164063 -0.113281,-0.328125 -0.171875,-0.492188 -0.105469,-0.328125 -0.207031,-0.664062 -0.320313,-1 -0.105468,-0.328125 -0.214843,-0.675781 -0.335937,-1.039062 -0.05469,-0.152344 -0.113281,-0.335938 -0.183594,-0.535157 -0.05859,-0.1875 -0.128906,-0.394531 -0.199219,-0.621093 -0.03125,-0.113282 -0.05859,-0.199219 -0.07813,-0.265625 -0.01563,-0.0625 -0.03125,-0.121094 -0.05859,-0.191407 -0.01563,-0.05859 -0.04297,-0.128906 -0.07813,-0.214843 -0.02734,-0.07813 -0.05859,-0.191407 -0.113282,-0.347657 -0.117187,0.382813 -0.238281,0.726563 -0.351562,1.054688 -0.105469,0.320312 -0.207031,0.621094 -0.304688,0.898437 -0.01563,0.07031 -0.03125,0.128907 -0.05078,0.1875 -0.0078,0.05469 -0.02344,0.113282 -0.05078,0.175782 -0.05078,0.1875 -0.113281,0.378906 -0.179688,0.550781 -0.0625,0.171875 -0.121093,0.347656 -0.183593,0.519531 -0.050782,0.179688 -0.113282,0.359375 -0.171875,0.535156 -0.050782,0.171875 -0.113282,0.335938 -0.171875,0.5 -0.113282,0.34375 -0.234375,0.707032 -0.355469,1.085938 -0.121094,0.382812 -0.25,0.777344 -0.40625,1.191406 -0.144531,0.414063 -0.300781,0.855469 -0.464844,1.339844 -0.15625,0.472656 -0.363281,1.078125 -0.621094,1.804687 h 6.628907 m -2.277344,-18.058593 c -0.01953,0 -0.05469,-0.01172 -0.08594,-0.02734 -0.03516,-0.01563 -0.05469,-0.02734 -0.07031,-0.04297 L 7.027336,-32.47656 c -0.070313,-0.06641 -0.085938,-0.136718 -0.042969,-0.222656 0.035156,-0.07813 0.101563,-0.121094 0.199219,-0.121094 h 3.796875 c 0.07031,0 0.121094,0.03516 0.171875,0.101563 l 3.609375,5.042969 c 0.03516,0.07813 0.04297,0.148437 0.0078,0.214843 -0.02344,0.0625 -0.08594,0.09766 -0.179687,0.09766 h -2.640625"
                 id="path12859"
                 style="fill:#ffffff" />
            </g>
          </g>
        </g>
        <g
           clip-path="url(#clip-59-6)"
           id="g15629"
           transform="matrix(0.19530431,0,0,0.19530431,1472.1051,11.806804)"
           style="fill:#ffffff">
          <g
             fill="#ffffff"
             fill-opacity="1"
             id="g15627"
             style="fill:#ffffff">
            <g
               id="use15625"
               transform="translate(248.06934,603.31201)"
               style="fill:#ffffff">
              <path
                 d="m 2.726563,0.015625 c -0.136719,0 -0.207032,-0.0664063 -0.207032,-0.207031 v -24.738282 c 0,-0.140625 0.070313,-0.207031 0.207032,-0.207031 h 3.558593 c 0.070313,0 0.121094,0.03516 0.171875,0.101563 L 17.335938,-7.90625 v -17.023438 c 0,-0.140625 0.06641,-0.207031 0.207031,-0.207031 h 3.761719 c 0.140625,0 0.207031,0.06641 0.207031,0.207031 v 24.738282 c 0,0.1406247 -0.06641,0.207031 -0.207031,0.207031 h -3.539063 c -0.07031,0 -0.121094,-0.03125 -0.171875,-0.1015625 L 6.683594,-17.214844 v 17.023438 c 0,0.1406247 -0.0625,0.207031 -0.191406,0.207031 H 2.726563"
                 id="path12867"
                 style="fill:#ffffff" />
            </g>
          </g>
        </g>
        <g
           clip-path="url(#clip-60-4)"
           id="g15639"
           transform="matrix(0.19530431,0,0,0.19530431,1472.1051,11.806804)"
           style="fill:#ffffff">
          <g
             fill="#ffffff"
             fill-opacity="1"
             id="g15633"
             style="fill:#ffffff">
            <g
               id="use15631"
               transform="translate(272.19531,603.31201)"
               style="fill:#ffffff">
              <path
                 d="m 4.835938,-27.363281 c -0.105469,0 -0.164063,-0.04297 -0.199219,-0.132813 -0.027344,-0.08594 -0.00781,-0.152344 0.078125,-0.214844 l 5.074219,-4.023437 h 2.3125 L 17.25,-27.710938 c 0.07422,0.05078 0.109375,0.128907 0.07422,0.214844 -0.02344,0.08984 -0.08594,0.132813 -0.179688,0.132813 h -2.917968 l -3.433594,-1.847657 c -0.503906,0.308594 -1.019531,0.621094 -1.539063,0.929688 -0.515625,0.3125 -1.027343,0.613281 -1.535156,0.917969 H 4.835938 m -3.058594,14.605468 c 0,-1.503906 0.019531,-2.738281 0.0625,-3.695312 0.035156,-0.949219 0.09375,-1.648438 0.164062,-2.089844 0.078125,-0.429687 0.1875,-0.855469 0.34375,-1.261719 0.148438,-0.394531 0.328125,-0.792968 0.554688,-1.1875 H 2.882813 c 0.597656,-1.117187 1.5625,-2.152343 2.902343,-3.109375 1.34375,-0.96875 3.019532,-1.449218 5.023438,-1.449218 1.976562,0 3.644531,0.480468 4.988281,1.449218 1.355469,0.976563 2.332031,2.011719 2.9375,3.109375 0.421875,0.773438 0.707031,1.59375 0.863281,2.449219 0.07813,0.433594 0.136719,1.132813 0.179688,2.089844 0.03516,0.949219 0.0625,2.183594 0.0625,3.695312 0,2.949219 -0.07813,4.886719 -0.242188,5.800782 -0.07813,0.449218 -0.191406,0.871093 -0.335937,1.277343 -0.140625,0.394532 -0.3125,0.785157 -0.511719,1.15625 -0.605469,1.105469 -1.589844,2.140625 -2.953125,3.109375 -1.355469,0.949219 -3.019531,1.429688 -4.988281,1.429688 -1.984375,0 -3.660156,-0.472656 -5.023438,-1.429688 C 4.453125,-2.355469 3.488281,-3.394531 2.882813,-4.523438 H 2.902344 C 2.683594,-4.910156 2.503906,-5.308594 2.347656,-5.707031 2.203125,-6.101563 2.089844,-6.519531 2.003906,-6.957031 1.933594,-7.390625 1.882813,-8.089844 1.839844,-9.054688 1.804688,-10.015625 1.777344,-11.25 1.777344,-12.757813 m 4.160156,0 c 0,1.25 0.019531,2.285157 0.054688,3.097657 0.035156,0.8125 0.09375,1.40625 0.1875,1.804687 0.085937,0.355469 0.21875,0.707031 0.390625,1.0625 0.164062,0.34375 0.351562,0.65625 0.558593,0.921875 0.363282,0.484375 0.855469,0.890625 1.46875,1.234375 0.605469,0.335938 1.347657,0.511719 2.210938,0.511719 0.84375,0 1.578125,-0.164063 2.191406,-0.511719 0.605469,-0.335937 1.089844,-0.75 1.453125,-1.234375 0.480469,-0.585937 0.792969,-1.242187 0.949219,-1.984375 0.179687,-0.734375 0.273437,-2.367187 0.273437,-4.902344 0,-1.253906 -0.01563,-2.289062 -0.06641,-3.101562 -0.04297,-0.808594 -0.113281,-1.40625 -0.207031,-1.785156 -0.07813,-0.363282 -0.199219,-0.726563 -0.363281,-1.078125 -0.15625,-0.347657 -0.347657,-0.664063 -0.570313,-0.941407 -0.171875,-0.214843 -0.378906,-0.433593 -0.628906,-0.640625 C 13.597656,-20.511719 13.3125,-20.691406 13,-20.847656 12.691406,-21.003906 12.355469,-21.125 11.980469,-21.226563 11.621094,-21.320313 11.222656,-21.375 10.808594,-21.375 c -0.863281,0 -1.597656,0.171875 -2.210938,0.519531 -0.601562,0.34375 -1.097656,0.742188 -1.46875,1.191406 -0.214843,0.277344 -0.402343,0.585938 -0.566406,0.941407 -0.15625,0.34375 -0.285156,0.707031 -0.382812,1.078125 -0.085938,0.386718 -0.152344,0.992187 -0.1875,1.8125 -0.035157,0.8125 -0.054688,1.839843 -0.054688,3.074218 M 9.066406,6.820313 C 8.945313,6.820313 8.875,6.757813 8.875,6.628906 V 3.296875 c 0,-0.121094 0.058594,-0.1875 0.191406,-0.1875 h 3.347657 c 0.113281,0 0.171875,0.058594 0.171875,0.1875 v 3.332031 c 0,0.121094 -0.05078,0.191407 -0.171875,0.191407 H 9.066406"
                 id="path12855"
                 style="fill:#ffffff" />
            </g>
          </g>
          <g
             fill="#ffffff"
             fill-opacity="1"
             id="g15637"
             style="fill:#ffffff">
            <g
               id="use15635"
               transform="translate(293.6976,603.31201)"
               style="fill:#ffffff">
              <path
                 d="m 2.675781,0.015625 c -0.136718,0 -0.207031,-0.0664063 -0.207031,-0.207031 v -24.738282 c 0,-0.140625 0.070313,-0.207031 0.207031,-0.207031 h 3.746094 c 0.140625,0 0.207031,0.06641 0.207031,0.207031 v 24.738282 c 0,0.1406247 -0.066406,0.207031 -0.207031,0.207031 H 2.675781"
                 id="path12851"
                 style="fill:#ffffff" />
            </g>
          </g>
        </g>
        <g
           clip-path="url(#clip-61-7)"
           id="g15645"
           transform="matrix(0.19530431,0,0,0.19530431,1472.1051,11.806804)"
           style="fill:#ffffff">
          <g
             fill="#ffffff"
             fill-opacity="1"
             id="g15643"
             style="fill:#ffffff">
            <g
               id="use15641"
               transform="translate(197.0538,624.57593)"
               style="fill:#ffffff">
              <path
                 d="m 9.15625,0.0117188 c -0.039062,0 -0.070312,-0.0234376 -0.101562,-0.0625001 L 5.914063,-5.378906 C 5.394531,-4.484375 4.871094,-3.597656 4.347656,-2.714844 3.824219,-1.835938 3.304688,-0.949219 2.777344,-0.0507813 2.75,-0.0117188 2.714844,0.0117188 2.675781,0.0117188 H 0.144531 C 0.09375,0.0117188 0.0507813,-0.00390625 0.03125,-0.046875 0.0117188,-0.0820313 0.0117188,-0.125 0.0429688,-0.175781 L 4.53125,-7.703125 c -0.707031,-1.195313 -1.410156,-2.382813 -2.105469,-3.570313 -0.691406,-1.183593 -1.394531,-2.375 -2.09375,-3.574218 -0.027343,-0.04297 -0.03125,-0.08594 -0.011718,-0.128907 0.019531,-0.03516 0.050781,-0.05469 0.101562,-0.05469 h 2.542969 c 0.039062,0 0.070312,0.01953 0.101562,0.0625 l 2.847657,4.953125 c 0.476562,-0.824219 0.953125,-1.644531 1.425781,-2.472656 0.476562,-0.820313 0.949219,-1.644532 1.425781,-2.480469 0.027344,-0.04297 0.0625,-0.0625 0.101563,-0.0625 h 2.542968 c 0.04297,0 0.08203,0.01563 0.101563,0.05469 0.01953,0.03906 0.01953,0.07813 -0.01172,0.128907 L 7.30078,-7.703125 c 0.753907,1.261719 1.503907,2.515625 2.25,3.765625 0.742188,1.25 1.492188,2.503906 2.25,3.761719 0.02734,0.046875 0.03125,0.0898435 0.01172,0.128906 -0.02344,0.0351562 -0.05859,0.0585938 -0.113281,0.0585938 H 9.15625"
                 id="path12863"
                 style="fill:#ffffff" />
            </g>
          </g>
        </g>
        <g
           clip-path="url(#clip-62-3)"
           id="g15651"
           transform="matrix(0.19530431,0,0,0.19530431,1472.1051,11.806804)"
           style="fill:#ffffff">
          <g
             fill="#ffffff"
             fill-opacity="1"
             id="g15649"
             style="fill:#ffffff">
            <g
               id="use15647"
               transform="translate(209.00027,624.57593)"
               style="fill:#ffffff">
              <path
                 d="m 9.621094,-4.554688 c 0,0.085938 -0.039063,0.125 -0.121094,0.125 H 3.109375 c 0.019531,0.753907 0.234375,1.332032 0.648438,1.726563 0.453125,0.410156 1.027343,0.617187 1.722656,0.617187 0.828125,0 1.5625,-0.320312 2.210937,-0.96875 0.011719,-0.023437 0.035157,-0.03125 0.074219,-0.039062 0.027344,0 0.058594,0.00781 0.089844,0.027344 l 1.53125,1.300781 c 0.023437,0.019531 0.039062,0.046875 0.039062,0.082031 0,0.03125 -0.011718,0.0625 -0.03125,0.09375 C 8.859375,-0.96875 8.257813,-0.53125 7.59375,-0.261719 6.933594,0 6.234375,0.132813 5.511719,0.132813 c -1.101563,0 -2.167969,-0.347657 -3.1875,-1.062501 -1.042969,-0.710937 -1.570313,-2.171875 -1.570313,-4.375 0,-2.078125 0.476563,-3.515625 1.433594,-4.316406 0.976563,-0.796875 1.976563,-1.199219 3.003906,-1.199219 1.183594,0 2.214844,0.410157 3.097657,1.230469 0.890625,0.824219 1.332031,1.925781 1.332031,3.300781 v 1.734375 M 7.269531,-6.402344 C 7.222656,-7.113281 7.011719,-7.660156 6.628906,-8.03125 6.25,-8.402344 5.769531,-8.589844 5.191406,-8.589844 c -0.597656,0 -1.085937,0.191406 -1.476562,0.578125 -0.171875,0.175781 -0.316406,0.402344 -0.421875,0.683594 -0.101563,0.273437 -0.164063,0.582031 -0.183594,0.925781 h 4.160156"
                 id="path12839"
                 style="fill:#ffffff" />
            </g>
          </g>
        </g>
        <g
           clip-path="url(#clip-64-5)"
           id="g15663"
           transform="matrix(0.19530431,0,0,0.19530431,1472.1051,11.806804)"
           style="fill:#ffffff">
          <g
             fill="#ffffff"
             fill-opacity="1"
             id="g15661"
             style="fill:#ffffff">
            <g
               id="use15659"
               transform="translate(224.64909,624.57593)"
               style="fill:#ffffff">
              <path
                 d="m 5.648438,-8.476563 c -0.941407,0 -1.507813,0.308594 -1.695313,0.929688 h 0.011719 c -0.09375,0.339844 -0.164063,0.695312 -0.21875,1.058594 -0.042969,0.359375 -0.070313,0.738281 -0.070313,1.128906 0,0.398437 0.019532,0.785156 0.070313,1.15625 0.046875,0.371094 0.121094,0.722656 0.21875,1.066406 H 3.953125 c 0.1875,0.617188 0.75,0.925781 1.695313,0.925781 0.914062,0 1.453125,-0.320312 1.628906,-0.96875 0.199219,-0.710937 0.300781,-1.441406 0.300781,-2.179687 0,-0.710938 -0.097656,-1.429688 -0.300781,-2.144531 C 7.101563,-8.152344 6.554688,-8.476563 5.648438,-8.476563 m 4.285156,-3.3125 v 11.675782 c 0,0.082031 -0.042969,0.1249998 -0.125,0.1249998 H 7.703125 c -0.082031,0 -0.125,-0.0429688 -0.125,-0.1249998 V -0.898438 C 6.855469,-0.210938 6,0.132813 4.996094,0.132813 4.332031,0.132813 3.757813,0.00390625 3.277344,-0.257813 2.804688,-0.515625 2.40625,-0.855469 2.097656,-1.269531 h 0.00781 C 1.792969,-1.652344 1.578125,-2.105469 1.476563,-2.632813 1.375,-3.148438 1.320313,-4.058594 1.320313,-5.359375 c 0,-1.277344 0.054687,-2.171875 0.15625,-2.683594 0.050781,-0.246094 0.132812,-0.484375 0.238281,-0.722656 0.101562,-0.230469 0.230469,-0.449219 0.390625,-0.648438 h -0.00781 c 0.308594,-0.402343 0.699219,-0.738281 1.179688,-1.007812 0.476562,-0.261719 1.046875,-0.398438 1.71875,-0.398438 0.515625,0 0.980469,0.09766 1.398437,0.300782 0.414063,0.195312 0.8125,0.457031 1.183594,0.785156 v -2.054688 H 4.222656 v -1.816406 h 3.355469 v -1.199219 c 0,-0.08203 0.042969,-0.125 0.125,-0.125 h 2.105469 c 0.082031,0 0.125,0.04297 0.125,0.125 v 1.199219 h 1.011719 v 1.816406 H 9.933594"
                 id="path12811"
                 style="fill:#ffffff" />
            </g>
          </g>
        </g>
        <g
           clip-path="url(#clip-65-1)"
           id="g15669"
           transform="matrix(0.19530431,0,0,0.19530431,1472.1051,11.806804)"
           style="fill:#ffffff">
          <g
             fill="#ffffff"
             fill-opacity="1"
             id="g15667"
             style="fill:#ffffff">
            <g
               id="use15665"
               transform="translate(235.51933,624.57593)"
               style="fill:#ffffff">
              <path
                 d="m 6.988281,0.0507813 c -0.082031,0 -0.121093,-0.0390625 -0.121093,-0.1250001 V -0.652344 c -0.09375,0.125 -0.207032,0.234375 -0.335938,0.328125 -0.125,0.09375 -0.265625,0.164063 -0.410156,0.222656 C 5.910156,-0.015625 5.664063,0.0507813 5.375,0.101563 5.089844,0.148438 4.78125,0.175781 4.441406,0.175781 3.257813,0.148438 2.355469,-0.175781 1.734375,-0.796875 v 0.011719 C 1.0625,-1.394531 0.722656,-2.183594 0.722656,-3.148438 c 0,-0.898437 0.289063,-1.664062 0.867188,-2.28125 0.589844,-0.621093 1.445312,-0.933593 2.5625,-0.949218 H 6.867188 V -7.359375 C 6.875,-8.210938 6.226563,-8.625 4.902344,-8.589844 c -0.234375,0 -0.453125,0.011719 -0.648438,0.03125 C 4.0625,-8.539063 3.886719,-8.5 3.726563,-8.445313 h 0.011718 c -0.136718,0.066407 -0.257812,0.148438 -0.371093,0.253907 -0.109375,0.097656 -0.203125,0.214843 -0.28125,0.355468 -0.046875,0.082032 -0.105469,0.09375 -0.183594,0.03125 L 1.289063,-9.074219 C 1.265625,-9.09375 1.25,-9.121094 1.238281,-9.152344 c -0.00391,-0.03125 0,-0.058594 0.019532,-0.085937 0.796875,-1.082032 1.980468,-1.605469 3.542968,-1.570313 0.652344,-0.0039 1.238282,0.05078 1.753907,0.175781 0.519531,0.125 0.976562,0.320313 1.382812,0.585938 0.796875,0.5625 1.199219,1.5 1.210938,2.800781 v 7.1718752 c 0,0.0859376 -0.042969,0.1250001 -0.125,0.1250001 H 6.988281 M 6.867188,-4.398438 H 4.53125 c -1.105469,0.03125 -1.660156,0.414063 -1.652344,1.144532 0,0.3125 0.140625,0.585937 0.425782,0.828125 0.289062,0.253906 0.746093,0.382812 1.382812,0.382812 0.847656,0.00391 1.429688,-0.09375 1.753906,-0.300781 H 6.433594 C 6.722656,-2.535156 6.867188,-3.003906 6.867188,-3.746094 V -4.398438 M 3.945313,4.078125 c -0.074219,0 -0.113282,-0.035156 -0.113282,-0.113281 V 1.972656 c 0,-0.074218 0.035157,-0.113281 0.113282,-0.113281 h 2 c 0.070312,0 0.105468,0.035156 0.105468,0.113281 v 1.992188 c 0,0.070312 -0.03125,0.113281 -0.105468,0.113281 h -2"
                 id="path12799"
                 style="fill:#ffffff" />
            </g>
          </g>
        </g>
        <g
           clip-path="url(#clip-66-4)"
           id="g15675"
           transform="matrix(0.19530431,0,0,0.19530431,1472.1051,11.806804)"
           style="fill:#ffffff">
          <g
             fill="#ffffff"
             fill-opacity="1"
             id="g15673"
             style="fill:#ffffff">
            <g
               id="use15671"
               transform="translate(245.79329,624.57593)"
               style="fill:#ffffff">
              <path
                 d="m 1.445313,4.242188 c -0.082032,0 -0.125,-0.035157 -0.125,-0.113282 v -14.710937 c 0,-0.08203 0.042968,-0.125 0.125,-0.125 h 2.105468 c 0.082032,0 0.125,0.04297 0.125,0.125 v 0.792968 c 0.710938,-0.683593 1.574219,-1.03125 2.582032,-1.03125 0.3125,0 0.613281,0.03516 0.898437,0.113282 0.277344,0.07422 0.539063,0.175781 0.789063,0.304687 0.242187,0.125 0.464843,0.273438 0.671875,0.445313 0.199218,0.164062 0.378906,0.34375 0.539062,0.542968 0.152344,0.191407 0.28125,0.402344 0.382813,0.640625 0.105468,0.230469 0.175781,0.472657 0.226562,0.730469 v -0.00781 c 0.109375,0.476562 0.167969,1.382812 0.167969,2.714843 0,0.648438 -0.011719,1.199219 -0.042969,1.65625 -0.027344,0.449219 -0.066406,0.800782 -0.125,1.058594 V -2.632813 C 9.679688,-2.125 9.476563,-1.671875 9.15625,-1.269531 h 0.011719 c -0.316406,0.414062 -0.710938,0.75 -1.191406,1.011718 C 7.5,0 6.925781,0.132813 6.257813,0.132813 5.742188,0.132813 5.277344,0.0429688 4.859375,-0.15625 4.445313,-0.347656 4.046875,-0.609375 3.675781,-0.941406 v 5.070312 c 0,0.074219 -0.042968,0.113282 -0.125,0.113282 H 1.445313 M 5.625,-2.210938 c 0.921875,0 1.472656,-0.308593 1.652344,-0.925781 0.199219,-0.683594 0.300781,-1.417969 0.300781,-2.199219 0,-0.765625 -0.097656,-1.5 -0.300781,-2.199218 -0.175781,-0.625 -0.726563,-0.941407 -1.652344,-0.941407 -0.925781,0 -1.480469,0.320313 -1.660156,0.972657 -0.09375,0.347656 -0.164063,0.707031 -0.21875,1.066406 -0.042969,0.363281 -0.070313,0.726562 -0.070313,1.101562 0,0.355469 0.027344,0.722657 0.078125,1.09375 0.050782,0.371094 0.117188,0.726563 0.210938,1.074219 0.09375,0.308594 0.277344,0.546875 0.558594,0.710938 0.273437,0.164062 0.636718,0.246093 1.101562,0.246093"
                 id="path12795"
                 style="fill:#ffffff" />
            </g>
          </g>
        </g>
        <g
           clip-path="url(#clip-68-9)"
           id="g15687"
           transform="matrix(0.19530431,0,0,0.19530431,1472.1051,11.806804)"
           style="fill:#ffffff">
          <g
             fill="#ffffff"
             fill-opacity="1"
             id="g15685"
             style="fill:#ffffff">
            <g
               id="use15683"
               transform="translate(261.68106,624.57593)"
               style="fill:#ffffff">
              <path
                 d="m 3.964844,0.0117188 c -0.019531,0 -0.042969,-0.00781255 -0.066406,-0.0273438 C 3.875,-0.03125 3.863281,-0.0507813 3.851563,-0.0742188 L 0.0195313,-10.539063 c -0.0078125,-0.04297 -0.0078125,-0.07813 0.0117187,-0.113281 0.0195313,-0.03125 0.0507813,-0.05469 0.09375,-0.05469 h 2.230469 c 0.058594,0 0.097656,0.02734 0.113281,0.08203 l 2.363281,7.0625 C 5.222656,-4.742188 5.617188,-5.921875 6.015625,-7.09375 6.40625,-8.257813 6.804688,-9.4375 7.195313,-10.625 c 0.011718,-0.05078 0.050781,-0.08203 0.113281,-0.08203 h 2.230469 c 0.046875,0 0.082031,0.01563 0.105468,0.05469 0.019532,0.02734 0.023438,0.07031 0.00781,0.113281 L 5.8125,-0.0742188 C 5.808594,-0.0507813 5.792969,-0.0351563 5.765625,-0.015625 5.746094,0 5.71875,0.0117188 5.699219,0.0117188 H 3.964844"
                 id="path12791"
                 style="fill:#ffffff" />
            </g>
          </g>
        </g>
        <g
           clip-path="url(#clip-69-1)"
           id="g15693"
           transform="matrix(0.19530431,0,0,0.19530431,1472.1051,11.806804)"
           style="fill:#ffffff">
          <g
             fill="#ffffff"
             fill-opacity="1"
             id="g15691"
             style="fill:#ffffff">
            <g
               id="use15689"
               transform="translate(271.23822,624.57593)"
               style="fill:#ffffff">
              <path
                 d="m 6.988281,0.0507813 c -0.082031,0 -0.121093,-0.0390625 -0.121093,-0.1250001 V -0.652344 c -0.09375,0.125 -0.207032,0.234375 -0.335938,0.328125 -0.125,0.09375 -0.265625,0.164063 -0.410156,0.222656 C 5.910156,-0.015625 5.664063,0.0507813 5.375,0.101563 5.089844,0.148438 4.78125,0.175781 4.441406,0.175781 3.257813,0.148438 2.355469,-0.175781 1.734375,-0.796875 v 0.011719 C 1.0625,-1.394531 0.722656,-2.183594 0.722656,-3.148438 c 0,-0.898437 0.289063,-1.664062 0.867188,-2.28125 0.589844,-0.621093 1.445312,-0.933593 2.5625,-0.949218 H 6.867188 V -7.359375 C 6.875,-8.210938 6.226563,-8.625 4.902344,-8.589844 c -0.234375,0 -0.453125,0.011719 -0.648438,0.03125 C 4.0625,-8.539063 3.886719,-8.5 3.726563,-8.445313 h 0.011718 c -0.136718,0.066407 -0.257812,0.148438 -0.371093,0.253907 -0.109375,0.097656 -0.203125,0.214843 -0.28125,0.355468 -0.046875,0.082032 -0.105469,0.09375 -0.183594,0.03125 L 1.289063,-9.074219 C 1.265625,-9.09375 1.25,-9.121094 1.238281,-9.152344 c -0.00391,-0.03125 0,-0.058594 0.019532,-0.085937 0.796875,-1.082032 1.980468,-1.605469 3.542968,-1.570313 0.652344,-0.0039 1.238282,0.05078 1.753907,0.175781 0.519531,0.125 0.976562,0.320313 1.382812,0.585938 0.796875,0.5625 1.199219,1.5 1.210938,2.800781 v 7.1718752 c 0,0.0859376 -0.042969,0.1250001 -0.125,0.1250001 H 6.988281 M 6.867188,-4.398438 H 4.53125 c -1.105469,0.03125 -1.660156,0.414063 -1.652344,1.144532 0,0.3125 0.140625,0.585937 0.425782,0.828125 0.289062,0.253906 0.746093,0.382812 1.382812,0.382812 0.847656,0.00391 1.429688,-0.09375 1.753906,-0.300781 H 6.433596 C 6.722658,-2.535156 6.86719,-3.003906 6.86719,-3.746094 v -0.652344 m -1.292969,-7.609375 c -0.00781,0 -0.03125,-0.0039 -0.050781,-0.01563 -0.019532,-0.0078 -0.03125,-0.01563 -0.042969,-0.02344 L 2.632813,-15.0625 c -0.042969,-0.04297 -0.050782,-0.08203 -0.027344,-0.132813 0.023437,-0.04687 0.0625,-0.07422 0.121094,-0.07422 h 2.269531 c 0.042969,0 0.074219,0.01953 0.105469,0.0625 l 2.15625,3.015625 c 0.019531,0.04687 0.027343,0.08594 0.00391,0.128906 -0.015625,0.03516 -0.050781,0.05469 -0.105469,0.05469 H 5.574219"
                 id="path12835"
                 style="fill:#ffffff" />
            </g>
          </g>
        </g>
        <g
           clip-path="url(#clip-70-6)"
           id="g15699"
           transform="matrix(0.19530431,0,0,0.19530431,1472.1051,11.806804)"
           style="fill:#ffffff">
          <g
             fill="#ffffff"
             fill-opacity="1"
             id="g15697"
             style="fill:#ffffff">
            <g
               id="use15695"
               transform="translate(195.62022,647.5144)"
               style="fill:#ffffff">
              <path
                 d="m 1.445313,0.0117188 c -0.082032,0 -0.125,-0.0429688 -0.125,-0.1249998 v -10.46875 c 0,-0.08203 0.042968,-0.125 0.125,-0.125 h 2.105468 c 0.082032,0 0.125,0.04297 0.125,0.125 v 0.847656 c 0.660157,-0.722656 1.539063,-1.085938 2.644532,-1.085938 0.421875,0 0.835937,0.07813 1.238281,0.238282 0.394531,0.15625 0.792969,0.390625 1.195312,0.710937 0.785157,0.640625 1.179688,1.570313 1.179688,2.800781 v 6.957032 c 0,0.082031 -0.042969,0.1249998 -0.125,0.1249998 H 7.703125 c -0.082031,0 -0.125,-0.0429688 -0.125,-0.1249998 v -6.234375 c 0,-0.683594 -0.179687,-1.203125 -0.546875,-1.570313 -0.382812,-0.371094 -0.847656,-0.558594 -1.382812,-0.558594 -0.578125,0 -1.054688,0.1875 -1.425782,0.558594 -0.363281,0.359375 -0.546875,0.886719 -0.546875,1.570313 v 6.234375 c 0,0.082031 -0.042968,0.1249998 -0.125,0.1249998 H 1.445313"
                 id="path12827"
                 style="fill:#ffffff" />
            </g>
          </g>
        </g>
        <g
           clip-path="url(#clip-71-1)"
           id="g15705"
           transform="matrix(0.19530431,0,0,0.19530431,1472.1051,11.806804)"
           style="fill:#ffffff">
          <g
             fill="#ffffff"
             fill-opacity="1"
             id="g15703"
             style="fill:#ffffff">
            <g
               id="use15701"
               transform="translate(206.97466,647.5144)"
               style="fill:#ffffff">
              <path
                 d="M 7.207031,-0.898438 C 6.480469,-0.210938 5.617188,0.132813 4.625,0.132813 c -0.703125,0 -1.296875,-0.13671925 -1.785156,-0.421876 -0.226563,-0.132812 -0.433594,-0.285156 -0.625,-0.4375 C 2.027344,-0.882813 1.875,-1.03125 1.753906,-1.1875 1.605469,-1.382813 1.476563,-1.59375 1.363281,-1.8125 1.253906,-2.027344 1.171875,-2.246094 1.113281,-2.46875 1.007813,-2.886719 0.949219,-3.839844 0.949219,-5.335938 0.949219,-6.824219 1,-7.773438 1.113281,-8.195313 1.167969,-8.414063 1.25,-8.636719 1.359375,-8.859375 1.460938,-9.074219 1.59375,-9.285156 1.753906,-9.488281 c 0.234375,-0.296875 0.59375,-0.597657 1.085938,-0.886719 0.464844,-0.292969 1.0625,-0.445313 1.785156,-0.445313 0.957031,0 1.816406,0.351563 2.582031,1.0625 v -0.824218 c 0,-0.08203 0.035157,-0.125 0.113282,-0.125 H 9.4375 c 0.070313,0 0.113281,0.04297 0.113281,0.125 v 10.230468 c 0,1.601563 -0.46875,2.792969 -1.414062,3.574219 -0.941406,0.761719 -2.023438,1.144532 -3.242188,1.144532 -0.703125,0 -1.375,-0.164063 -2.023437,-0.496094 C 2.199219,3.535156 1.625,3.101563 1.15625,2.570313 1.136719,2.542969 1.125,2.515625 1.128906,2.476563 c 0,-0.03125 0.015625,-0.054688 0.046875,-0.070313 L 2.820313,1.105469 c 0.042968,-0.03125 0.089843,-0.035156 0.144531,0 0.246094,0.246094 0.535156,0.457031 0.875,0.640625 0.335937,0.175781 0.703125,0.265625 1.09375,0.265625 0.671875,0 1.21875,-0.179688 1.632812,-0.546875 C 6.988281,1.09375 7.207031,0.566406 7.207031,-0.125 v -0.773438 m -3.902343,-4.4375 c 0,0.402344 0,0.746094 0.00781,1.027344 0.00781,0.277344 0.023438,0.484375 0.042969,0.621094 0.027344,0.136719 0.066406,0.265625 0.117187,0.390625 0.054688,0.117187 0.121094,0.230469 0.214844,0.332031 0.058594,0.089844 0.136719,0.175781 0.242188,0.269531 0.097656,0.089844 0.210937,0.171875 0.34375,0.242188 0.128906,0.074219 0.28125,0.128906 0.445312,0.175781 0.164063,0.042969 0.34375,0.066406 0.546875,0.066406 0.191406,0 0.367188,-0.019531 0.53125,-0.066406 0.160156,-0.039062 0.304688,-0.101562 0.4375,-0.175781 0.128906,-0.070313 0.246094,-0.148438 0.347656,-0.242188 0.097657,-0.085937 0.179688,-0.175781 0.253907,-0.269531 0.070312,-0.105469 0.136718,-0.21875 0.191406,-0.34375 0.050781,-0.117187 0.085937,-0.242187 0.105469,-0.378906 0.027343,-0.132813 0.046875,-0.339844 0.058593,-0.617188 0.011719,-0.273437 0.015625,-0.621093 0.015625,-1.03125 0,-0.414062 -0.00391,-0.753906 -0.015625,-1.035156 C 7.179688,-6.644531 7.164063,-6.851563 7.132813,-6.988281 7.09375,-7.242188 6.988281,-7.484375 6.824219,-7.710938 H 6.835938 C 6.761719,-7.792969 6.675781,-7.882813 6.570313,-7.976563 6.472656,-8.066406 6.359375,-8.152344 6.226563,-8.222656 6.097656,-8.296875 5.953125,-8.351563 5.792969,-8.402344 5.636719,-8.449219 5.460938,-8.476563 5.265625,-8.476563 c -0.195312,0 -0.382812,0.019532 -0.546875,0.074219 -0.164062,0.046875 -0.308594,0.105469 -0.445312,0.179688 -0.128907,0.070312 -0.242188,0.148437 -0.34375,0.242187 -0.097657,0.085938 -0.183594,0.175781 -0.242188,0.269531 -0.167969,0.207032 -0.273437,0.441407 -0.332031,0.722657 -0.019531,0.132812 -0.03125,0.34375 -0.042969,0.625 -0.00391,0.277343 -0.00781,0.617187 -0.00781,1.027343"
                 id="path12831"
                 style="fill:#ffffff" />
            </g>
          </g>
        </g>
        <g
           clip-path="url(#clip-72-01)"
           id="g15711"
           transform="matrix(0.19530431,0,0,0.19530431,1472.1051,11.806804)"
           style="fill:#ffffff">
          <g
             fill="#ffffff"
             fill-opacity="1"
             id="g15709"
             style="fill:#ffffff">
            <g
               id="use15707"
               transform="translate(217.95908,647.5144)"
               style="fill:#ffffff">
              <path
                 d="m 11.222656,-12.699219 c 0.04297,0.03125 0.08203,0.07422 0.125,0.113281 0.453125,0.476563 0.683594,1.09375 0.699219,1.859375 0.02734,0.929688 -0.386719,1.683594 -1.246094,2.269532 -0.394531,0.175781 -0.816406,0.304687 -1.28125,0.382812 v 7.960938 c 0,0.082031 -0.042968,0.1249998 -0.125,0.1249998 H 7.289063 c -0.082032,0 -0.125,-0.0429688 -0.125,-0.1249998 V -0.941406 C 6.515625,-0.226563 5.636719,0.132813 4.542969,0.132813 3.695313,0.132813 2.878906,-0.179688 2.085938,-0.816406 1.300781,-1.457031 0.910156,-2.390625 0.910156,-3.625 v -6.957031 c 0,-0.08203 0.039063,-0.125 0.121094,-0.125 h 2.105469 c 0.085937,0 0.125,0.04297 0.125,0.125 v 6.246093 c 0,0.6875 0.179687,1.210938 0.546875,1.578125 0.363281,0.363282 0.835937,0.546875 1.425781,0.546875 0.542969,0 1,-0.179687 1.382813,-0.546875 0.363281,-0.359375 0.546875,-0.886718 0.546875,-1.578125 v -6.246093 c 0,-0.08203 0.042968,-0.125 0.125,-0.125 h 2.105468 c 0.082032,0 0.125,0.04297 0.125,0.125 v 1.199218 c 0.691407,-0.269531 1.050782,-0.703125 1.074219,-1.300781 -0.0078,-0.445312 -0.140625,-0.777344 -0.402344,-0.984375 l 1.03125,-1.03125"
                 id="path12787"
                 style="fill:#ffffff" />
            </g>
          </g>
        </g>
        <g
           clip-path="url(#clip-73-8)"
           id="g15717"
           transform="matrix(0.19530431,0,0,0.19530431,1472.1051,11.806804)"
           style="fill:#ffffff">
          <g
             fill="#ffffff"
             fill-opacity="1"
             id="g15715"
             style="fill:#ffffff">
            <g
               id="use15713"
               transform="translate(230.14447,647.5144)"
               style="fill:#ffffff">
              <path
                 d="m 7.332031,-5.335938 c 0,-0.722656 -0.039062,-1.246093 -0.117187,-1.570312 C 7.148438,-7.199219 7.019531,-7.484375 6.835938,-7.753906 6.660156,-7.984375 6.4375,-8.167969 6.167969,-8.289063 c -0.261719,-0.125 -0.570313,-0.1875 -0.921875,-0.1875 -0.730469,0 -1.261719,0.238282 -1.589844,0.722657 -0.09375,0.136718 -0.175781,0.273437 -0.242187,0.410156 -0.0625,0.132812 -0.117188,0.277344 -0.152344,0.4375 -0.066406,0.292969 -0.101563,0.808594 -0.101563,1.546875 0,0.371094 0.00391,0.691406 0.023438,0.960937 0.015625,0.269532 0.042969,0.480469 0.078125,0.640625 0.0625,0.292969 0.191406,0.574219 0.394531,0.835938 0.320313,0.476562 0.851563,0.710937 1.589844,0.710937 0.699219,0 1.226562,-0.234375 1.589844,-0.710937 0.175781,-0.269531 0.304687,-0.546875 0.378906,-0.835938 0.074219,-0.335937 0.117187,-0.863281 0.117187,-1.578125 m -1.445312,-6.671875 c -0.011719,0 -0.03125,-0.0039 -0.054688,-0.01563 -0.019531,-0.0078 -0.03125,-0.01563 -0.039062,-0.02344 L 2.941406,-15.0625 c -0.039062,-0.04297 -0.050781,-0.08203 -0.023437,-0.132813 0.019531,-0.04687 0.0625,-0.07422 0.117187,-0.07422 h 2.273438 c 0.039062,0 0.070312,0.01953 0.101562,0.0625 l 2.15625,3.015625 c 0.023438,0.04687 0.027344,0.08594 0.00781,0.128906 -0.015625,0.03516 -0.054688,0.05469 -0.109375,0.05469 H 5.886719 m 3.34375,3.644532 c 0.066406,0.144531 0.125,0.296875 0.175781,0.457031 0.175781,0.585937 0.269531,1.4375 0.269531,2.546875 0,1.140625 -0.089843,2.003906 -0.269531,2.582031 -0.1875,0.5625 -0.480469,1.074219 -0.890625,1.539063 -0.308594,0.328125 -0.722656,0.640625 -1.238281,0.9375 -0.515625,0.2890622 -1.191406,0.433594 -2.03125,0.433594 -0.847656,0 -1.53125,-0.1445318 -2.054688,-0.433594 C 2.957031,-0.433594 2.734375,-0.589844 2.523438,-0.753906 2.316406,-0.917969 2.132813,-1.078125 1.972656,-1.238281 1.554688,-1.699219 1.257813,-2.210938 1.085938,-2.777344 c -0.1875,-0.5625 -0.28125,-1.425781 -0.28125,-2.582031 0,-1.117188 0.09375,-1.96875 0.28125,-2.546875 0.171875,-0.578125 0.472656,-1.089844 0.886718,-1.539063 0.289063,-0.3125 0.691407,-0.617187 1.21875,-0.917968 0.519532,-0.300782 1.207032,-0.457032 2.054688,-0.457032 0.835937,0 1.515625,0.152344 2.03125,0.457032 0.269531,0.148437 0.503906,0.296875 0.707031,0.453125 0.203125,0.148437 0.378906,0.304687 0.53125,0.464843 0.011719,0.00781 0.027344,0.03125 0.042969,0.050782 L 8.804688,-9.46875 c 0.488281,-0.226563 0.738281,-0.628906 0.753906,-1.214844 -0.00391,-0.445312 -0.136719,-0.769531 -0.402344,-0.972656 l 1.042969,-1.042969 c 0.04297,0.03125 0.07813,0.07422 0.113281,0.113281 0.457031,0.476563 0.6875,1.09375 0.703125,1.859375 0.02734,0.929688 -0.320312,1.617188 -1.042969,2.066407 -0.269531,0.128906 -0.515625,0.226562 -0.742187,0.296875"
                 id="path12823"
                 style="fill:#ffffff" />
            </g>
          </g>
        </g>
        <g
           clip-path="url(#clip-74-86)"
           id="g15723"
           transform="matrix(0.19530431,0,0,0.19530431,1472.1051,11.806804)"
           style="fill:#ffffff">
          <g
             fill="#ffffff"
             fill-opacity="1"
             id="g15721"
             style="fill:#ffffff">
            <g
               id="use15719"
               transform="translate(241.25363,647.5144)"
               style="fill:#ffffff">
              <path
                 d="m 1.476563,0.0117188 c -0.082032,0 -0.125,-0.0429688 -0.125,-0.1249998 v -10.46875 c 0,-0.08203 0.042968,-0.125 0.125,-0.125 h 2.105468 c 0.074219,0 0.113282,0.04297 0.113282,0.125 v 10.46875 c 0,0.082031 -0.035157,0.1249998 -0.113282,0.1249998 H 1.476563 m 0,-12.5859378 c -0.082032,0 -0.125,-0.04297 -0.125,-0.125 v -2.105469 c 0,-0.08203 0.042968,-0.125 0.125,-0.125 h 2.105468 c 0.074219,0 0.113282,0.04297 0.113282,0.125 v 2.105469 c 0,0.08203 -0.035157,0.125 -0.113282,0.125 H 1.476563"
                 id="path12803"
                 style="fill:#ffffff" />
            </g>
          </g>
        </g>
        <g
           clip-path="url(#clip-76-9)"
           id="g15735"
           transform="matrix(0.19530431,0,0,0.19530431,1472.1051,11.806804)"
           style="fill:#ffffff">
          <g
             fill="#ffffff"
             fill-opacity="1"
             id="g15733"
             style="fill:#ffffff">
            <g
               id="use15731"
               transform="translate(251.52548,647.5144)"
               style="fill:#ffffff">
              <path
                 d="m 5.648438,-8.476563 c -0.941407,0 -1.507813,0.308594 -1.695313,0.929688 h 0.011719 c -0.09375,0.339844 -0.164063,0.695312 -0.21875,1.058594 -0.042969,0.359375 -0.070313,0.738281 -0.070313,1.128906 0,0.398437 0.019532,0.785156 0.070313,1.15625 0.046875,0.371094 0.121094,0.722656 0.21875,1.066406 H 3.953125 c 0.1875,0.617188 0.75,0.925781 1.695313,0.925781 0.914062,0 1.453125,-0.320312 1.628906,-0.96875 0.199219,-0.710937 0.300781,-1.441406 0.300781,-2.179687 0,-0.710938 -0.097656,-1.429688 -0.300781,-2.144531 C 7.101563,-8.152344 6.554688,-8.476563 5.648438,-8.476563 m 4.285156,-3.3125 v 11.675782 c 0,0.082031 -0.042969,0.1249998 -0.125,0.1249998 H 7.703125 c -0.082031,0 -0.125,-0.0429688 -0.125,-0.1249998 V -0.898438 C 6.855469,-0.210938 6,0.132813 4.996094,0.132813 4.332031,0.132813 3.757813,0.00390625 3.277344,-0.257813 2.804688,-0.515625 2.40625,-0.855469 2.097656,-1.269531 h 0.00781 C 1.792969,-1.652344 1.578125,-2.105469 1.476563,-2.632813 1.375,-3.148438 1.320313,-4.058594 1.320313,-5.359375 c 0,-1.277344 0.054687,-2.171875 0.15625,-2.683594 0.050781,-0.246094 0.132812,-0.484375 0.238281,-0.722656 0.101562,-0.230469 0.230469,-0.449219 0.390625,-0.648438 h -0.00781 c 0.308594,-0.402343 0.699219,-0.738281 1.179688,-1.007812 0.476562,-0.261719 1.046875,-0.398438 1.71875,-0.398438 0.515625,0 0.980469,0.09766 1.398437,0.300782 0.414063,0.195312 0.8125,0.457031 1.183594,0.785156 v -2.054688 H 4.222656 v -1.816406 h 3.355469 v -1.199219 c 0,-0.08203 0.042969,-0.125 0.125,-0.125 h 2.105469 c 0.082031,0 0.125,0.04297 0.125,0.125 v 1.199219 h 1.011719 v 1.816406 H 9.933594"
                 id="path12815"
                 style="fill:#ffffff" />
            </g>
          </g>
        </g>
        <g
           clip-path="url(#clip-77-7)"
           id="g15741"
           transform="matrix(0.19530431,0,0,0.19530431,1472.1051,11.806804)"
           style="fill:#ffffff">
          <g
             fill="#ffffff"
             fill-opacity="1"
             id="g15739"
             style="fill:#ffffff">
            <g
               id="use15737"
               transform="translate(262.39572,647.5144)"
               style="fill:#ffffff">
              <path
                 d="m 1.476563,0.0117188 c -0.082032,0 -0.125,-0.0429688 -0.125,-0.1249998 v -10.46875 c 0,-0.08203 0.042968,-0.125 0.125,-0.125 h 2.105468 c 0.074219,0 0.113282,0.04297 0.113282,0.125 v 10.46875 c 0,0.082031 -0.035157,0.1249998 -0.113282,0.1249998 H 1.476563 m 0,-12.5859378 c -0.082032,0 -0.125,-0.04297 -0.125,-0.125 v -2.105469 c 0,-0.08203 0.042968,-0.125 0.125,-0.125 h 2.105468 c 0.074219,0 0.113282,0.04297 0.113282,0.125 v 2.105469 c 0,0.08203 -0.035157,0.125 -0.113282,0.125 H 1.476563"
                 id="path12807"
                 style="fill:#ffffff" />
            </g>
          </g>
        </g>
        <g
           clip-path="url(#clip-79-5)"
           id="g15753"
           transform="matrix(0.19530431,0,0,0.19530431,1472.1051,11.806804)"
           style="fill:#ffffff">
          <g
             fill="#ffffff"
             fill-opacity="1"
             id="g15751"
             style="fill:#ffffff">
            <g
               id="use15749"
               transform="translate(272.43076,647.5144)"
               style="fill:#ffffff">
              <path
                 d="m 1.445313,0.0117188 c -0.082032,0 -0.125,-0.0429688 -0.125,-0.1249998 v -14.691407 c 0,-0.08203 0.042968,-0.125 0.125,-0.125 h 2.105468 c 0.082032,0 0.125,0.04297 0.125,0.125 v 5.070313 c 0.371094,-0.320313 0.761719,-0.585938 1.183594,-0.785156 0.410156,-0.195313 0.882813,-0.300782 1.398438,-0.300782 0.3125,0 0.613281,0.03516 0.898437,0.113282 0.277344,0.07422 0.539063,0.175781 0.789063,0.304687 0.242187,0.125 0.464843,0.273438 0.671875,0.445313 0.199218,0.164062 0.378906,0.34375 0.539062,0.542968 0.152344,0.191407 0.28125,0.402344 0.382813,0.636719 0.105468,0.234375 0.175781,0.476563 0.226562,0.734375 v -0.00781 c 0.109375,0.476562 0.167969,1.375 0.167969,2.691406 0,1.324219 -0.054688,2.230469 -0.167969,2.738281 V -2.632813 C 9.679688,-2.125 9.476563,-1.671875 9.15625,-1.269531 h 0.011719 c -0.316406,0.414062 -0.710938,0.75 -1.191406,1.011718 C 7.5,0 6.925781,0.132813 6.257813,0.132813 c -0.996094,0 -1.859375,-0.339844 -2.582032,-1.031251 v 0.785157 c 0,0.082031 -0.042968,0.1249998 -0.125,0.1249998 H 1.445313 M 5.625,-8.476563 c -0.925781,0 -1.480469,0.320313 -1.660156,0.972657 -0.09375,0.347656 -0.164063,0.699218 -0.21875,1.0625 -0.042969,0.355468 -0.070313,0.714843 -0.070313,1.082031 0,0.371094 0.019532,0.738281 0.070313,1.105469 0.046875,0.363281 0.121094,0.722656 0.21875,1.074218 0.171875,0.644532 0.722656,0.96875 1.660156,0.96875 0.921875,0 1.472656,-0.308593 1.652344,-0.925781 0.199219,-0.683594 0.300781,-1.421875 0.300781,-2.222656 0,-0.773438 -0.097656,-1.507813 -0.300781,-2.1875 C 7.101563,-8.167969 6.550781,-8.476563 5.625,-8.476563"
                 id="path12843"
                 style="fill:#ffffff" />
            </g>
          </g>
        </g>
        <g
           clip-path="url(#clip-80-6)"
           id="g15759"
           transform="matrix(0.19530431,0,0,0.19530431,1472.1051,11.806804)"
           style="fill:#ffffff">
          <g
             fill="#ffffff"
             fill-opacity="1"
             id="g15757"
             style="fill:#ffffff">
            <g
               id="use15755"
               transform="translate(283.30099,647.5144)"
               style="fill:#ffffff">
              <path
                 d="m 1.652344,-12.007813 c -0.0625,0 -0.097656,-0.02344 -0.121094,-0.08203 -0.011719,-0.05078 -0.00391,-0.09766 0.046875,-0.132812 l 3.015625,-2.394532 h 1.382813 l 3.058593,2.394532 c 0.046875,0.03125 0.066407,0.07813 0.046875,0.132812 -0.015625,0.05078 -0.058593,0.08203 -0.121093,0.08203 H 7.238281 L 5.191406,-13.113281 C 4.894531,-12.9375 4.589844,-12.75 4.28125,-12.5625 c -0.304687,0.183594 -0.609375,0.371094 -0.914062,0.554687 H 1.652344 m -0.785156,6.527344 c 0,-1.121094 0.09375,-1.972656 0.277343,-2.550781 0.175782,-0.578125 0.476563,-1.089844 0.890625,-1.539063 0.289063,-0.308593 0.691407,-0.613281 1.21875,-0.917968 0.519532,-0.300782 1.207032,-0.457032 2.054688,-0.457032 0.835937,0 1.515625,0.152344 2.03125,0.457032 0.269531,0.148437 0.5,0.296875 0.707031,0.453125 0.203125,0.148437 0.378906,0.304687 0.53125,0.464843 0.402344,0.445313 0.703125,0.960938 0.890625,1.539063 0.175781,0.585937 0.265625,1.4375 0.265625,2.550781 0,1.140625 -0.085937,2 -0.265625,2.578125 -0.1875,0.5625 -0.480469,1.074219 -0.890625,1.539063 -0.308594,0.332031 -0.722656,0.640625 -1.238281,0.941406 -0.515625,0.289062 -1.191406,0.4335938 -2.03125,0.4335938 -0.847656,0 -1.53125,-0.1445318 -2.054688,-0.4335938 C 3.019531,-0.558594 2.796875,-0.710938 2.585938,-0.878906 2.378906,-1.042969 2.195313,-1.203125 2.035156,-1.363281 1.617188,-1.820313 1.320313,-2.332031 1.144531,-2.902344 0.960938,-3.464844 0.867188,-4.324219 0.867188,-5.480469 m 6.523437,0.019531 c 0,-0.722656 -0.035156,-1.246093 -0.113281,-1.570312 C 7.210938,-7.324219 7.082031,-7.609375 6.898438,-7.878906 6.722656,-8.109375 6.5,-8.289063 6.230469,-8.414063 c -0.261719,-0.125 -0.574219,-0.1875 -0.921875,-0.1875 -0.730469,0 -1.261719,0.238282 -1.589844,0.722657 -0.09375,0.136718 -0.175781,0.273437 -0.246094,0.410156 -0.058593,0.132812 -0.113281,0.277344 -0.148437,0.4375 -0.066406,0.296875 -0.101563,0.8125 -0.101563,1.550781 0,0.371094 0.00391,0.691406 0.023438,0.957031 0.015625,0.269532 0.042969,0.480469 0.078125,0.640625 0.0625,0.296875 0.191406,0.574219 0.394531,0.835938 0.316406,0.476562 0.851563,0.714844 1.589844,0.714844 0.699219,0 1.226562,-0.238282 1.589844,-0.714844 C 7.070313,-3.3125 7.199219,-3.59375 7.277344,-3.882813 7.351563,-4.21875 7.390625,-4.742188 7.390625,-5.460938 M 4.242188,4.078125 c -0.070313,0 -0.113282,-0.035156 -0.113282,-0.113281 V 1.972656 c 0,-0.074218 0.035157,-0.113281 0.113282,-0.113281 h 2.003906 c 0.066406,0 0.101562,0.035156 0.101562,0.113281 v 1.992188 c 0,0.070312 -0.027343,0.113281 -0.101562,0.113281 H 4.242188"
                 id="path12819"
                 style="fill:#ffffff" />
            </g>
          </g>
        </g>
      </g>
    </g>
  </g>
</svg>
