<?xml version="1.0" encoding="UTF-8" standalone="no"?>
<svg
   sodipodi:docname="Vietnam_road_sign_I444ฟ.svg"
   inkscape:version="1.2.2 (732a01da63, 2022-12-09)"
   id="svg848"
   version="1.1"
   viewBox="0 0 2158.3323 500"
   height="500mm"
   width="2158.3323mm"
   xml:space="preserve"
   xmlns:inkscape="http://www.inkscape.org/namespaces/inkscape"
   xmlns:sodipodi="http://sodipodi.sourceforge.net/DTD/sodipodi-0.dtd"
   xmlns="http://www.w3.org/2000/svg"
   xmlns:svg="http://www.w3.org/2000/svg"
   xmlns:rdf="http://www.w3.org/1999/02/22-rdf-syntax-ns#"
   xmlns:cc="http://creativecommons.org/ns#"
   xmlns:dc="http://purl.org/dc/elements/1.1/"><defs
     id="defs842"><clipPath
       clipPathUnits="userSpaceOnUse"
       id="clipPath92633"><g
         id="g92639"
         transform="matrix(0.99999998,0,0,-0.99999998,472.81977,521.37449)"><g
           id="g92637"><path
             clip-rule="nonzero"
             d="m -458.81977,519.39402 h 424 V 151.37449 h -424 z m 0,0"
             id="path92635" /></g></g></clipPath><clipPath
       clipPathUnits="userSpaceOnUse"
       id="clipPath92693"><g
         id="g92699"
         transform="matrix(0.99999998,0,0,-0.99999998,472.81977,521.37449)"><g
           id="g92697"><path
             clip-rule="nonzero"
             d="m -445.81977,519.39402 h 424 V 151.37449 h -424 z m 0,0"
             id="path92695" /></g></g></clipPath><clipPath
       clipPathUnits="userSpaceOnUse"
       id="clipPath92618"><g
         id="g92624"
         transform="matrix(0.99999998,0,0,-0.99999998,472.81977,521.37449)"><g
           id="g92622"><path
             clip-rule="nonzero"
             d="m -433.81977,519.39402 h 423 V 151.37449 h -423 z m 0,0"
             id="path92620" /></g></g></clipPath><clipPath
       clipPathUnits="userSpaceOnUse"
       id="clipPath92603"><g
         id="g92609"
         transform="matrix(0.99999998,0,0,-0.99999998,472.81977,521.37449)"><g
           id="g92607"><path
             clip-rule="nonzero"
             d="m -414.81977,519.39402 h 424 V 151.37449 h -424 z m 0,0"
             id="path92605" /></g></g></clipPath><clipPath
       clipPathUnits="userSpaceOnUse"
       id="clipPath92755"><g
         id="g92761"
         transform="matrix(0.99999998,0,0,-0.99999998,472.81977,521.37449)"><g
           id="g92759"><path
             clip-rule="nonzero"
             d="m -402.81977,519.39402 h 424 V 151.37449 h -424 z m 0,0"
             id="path92757" /></g></g></clipPath><clipPath
       clipPathUnits="userSpaceOnUse"
       id="clipPath92740"><g
         id="g92746"
         transform="matrix(0.99999998,0,0,-0.99999998,472.81977,521.37449)"><g
           id="g92744"><path
             clip-rule="nonzero"
             d="m -385.81977,519.39402 h 424 V 151.37449 h -424 z m 0,0"
             id="path92742" /></g></g></clipPath><clipPath
       clipPathUnits="userSpaceOnUse"
       id="clipPath92709"><g
         id="g92715"
         transform="matrix(0.99999998,0,0,-0.99999998,472.81977,521.37449)"><g
           id="g92713"><path
             clip-rule="nonzero"
             d="m -372.81977,519.39402 h 424 V 151.37449 h -424 z m 0,0"
             id="path92711" /></g></g></clipPath><clipPath
       clipPathUnits="userSpaceOnUse"
       id="clipPath92785"><g
         id="g92791"
         transform="matrix(0.99999998,0,0,-0.99999998,472.81977,521.37449)"><g
           id="g92789"><path
             clip-rule="nonzero"
             d="m -358.81977,519.39402 h 424 V 151.37449 h -424 z m 0,0"
             id="path92787" /></g></g></clipPath><clipPath
       clipPathUnits="userSpaceOnUse"
       id="clipPath92725"><g
         id="g92731"
         transform="matrix(0.99999998,0,0,-0.99999998,472.81977,521.37449)"><g
           id="g92729"><path
             clip-rule="nonzero"
             d="m -345.81977,519.39402 h 424 V 151.37449 h -424 z m 0,0"
             id="path92727" /></g></g></clipPath><clipPath
       clipPathUnits="userSpaceOnUse"
       id="clipPath92770"><g
         id="g92776"
         transform="matrix(0.99999998,0,0,-0.99999998,472.81977,521.37449)"><g
           id="g92774"><path
             clip-rule="nonzero"
             d="m -333.81977,519.39402 h 424 V 151.37449 h -424 z m 0,0"
             id="path92772" /></g></g></clipPath><clipPath
       id="clip-0"><path
         clip-rule="nonzero"
         d="M 34,1.980469 H 458 V 378 H 34 Z m 0,0"
         id="path14613" /></clipPath><clipPath
       id="clip-1"><path
         clip-rule="nonzero"
         d="M 46,1.980469 H 469 V 378 H 46 Z m 0,0"
         id="path14616" /></clipPath><clipPath
       id="clip-2"><path
         clip-rule="nonzero"
         d="M 59,1.980469 H 483 V 378 H 59 Z m 0,0"
         id="path14619" /></clipPath><clipPath
       id="clip-3"><path
         clip-rule="nonzero"
         d="M 73,1.980469 H 497 V 378 H 73 Z m 0,0"
         id="path14622" /></clipPath><clipPath
       id="clip-5"><path
         clip-rule="nonzero"
         d="M 91,1.980469 H 515 V 378 H 91 Z m 0,0"
         id="path14628" /></clipPath><clipPath
       id="clip-6"><path
         clip-rule="nonzero"
         d="M 105,1.980469 H 529 V 378 H 105 Z m 0,0"
         id="path14631" /></clipPath><clipPath
       id="clip-7"><path
         clip-rule="nonzero"
         d="M 119,1.980469 H 543 V 378 H 119 Z m 0,0"
         id="path14634" /></clipPath><clipPath
       id="clip-8"><path
         clip-rule="nonzero"
         d="M 131,1.980469 H 555 V 378 H 131 Z m 0,0"
         id="path14637" /></clipPath><clipPath
       id="clip-9"><path
         clip-rule="nonzero"
         d="M 146,1.980469 H 570 V 378 H 146 Z m 0,0"
         id="path14640" /></clipPath><clipPath
       clipPathUnits="userSpaceOnUse"
       id="clipPath23274"><g
         id="g23280"
         transform="translate(-427.48591,34.011329)"><g
           id="g23278"><path
             clip-rule="nonzero"
             d="m 496.48591,-32.03086 h 424 v 376.01953 h -424 z m 0,0"
             id="path23276" /></g></g></clipPath><clipPath
       clipPathUnits="userSpaceOnUse"
       id="clipPath23244"><g
         id="g23250"
         transform="translate(-427.48591,34.011329)"><g
           id="g23248"><path
             clip-rule="nonzero"
             d="m 509.48591,-32.03086 h 424 v 376.01953 h -424 z m 0,0"
             id="path23246" /></g></g></clipPath><clipPath
       clipPathUnits="userSpaceOnUse"
       id="clipPath23229"><g
         id="g23235"
         transform="translate(-427.48591,34.011329)"><g
           id="g23233"><path
             clip-rule="nonzero"
             d="m 520.48591,-32.03086 h 424 v 376.01953 h -424 z m 0,0"
             id="path23231" /></g></g></clipPath><clipPath
       clipPathUnits="userSpaceOnUse"
       id="clipPath23305"><g
         id="g23311"
         transform="translate(-427.48591,34.011329)"><g
           id="g23309"><path
             clip-rule="nonzero"
             d="m 540.48591,-32.03086 h 424 v 376.01953 h -424 z m 0,0"
             id="path23307" /></g></g></clipPath><clipPath
       clipPathUnits="userSpaceOnUse"
       id="clipPath23289"><g
         id="g23295"
         transform="translate(-427.48591,34.011329)"><g
           id="g23293"><path
             clip-rule="nonzero"
             d="m 552.48591,-32.03086 h 424 v 376.01953 h -424 z m 0,0"
             id="path23291" /></g></g></clipPath><clipPath
       clipPathUnits="userSpaceOnUse"
       id="clipPath23320"><g
         id="g23327"
         transform="translate(-427.48591,34.011329)"><g
           id="g23325"><path
             clip-rule="nonzero"
             d="m 566.48591,-32.03086 h 424 v 376.01953 h -424 z m 0,0"
             id="path23322" /></g></g></clipPath></defs><sodipodi:namedview
     inkscape:document-rotation="0"
     inkscape:measure-end="0,0"
     inkscape:measure-start="0,0"
     showguides="false"
     fit-margin-bottom="0"
     fit-margin-right="0"
     fit-margin-left="0"
     fit-margin-top="0"
     inkscape:window-maximized="1"
     inkscape:window-y="-9"
     inkscape:window-x="-9"
     inkscape:window-height="991"
     inkscape:window-width="1920"
     inkscape:snap-global="false"
     showgrid="false"
     inkscape:current-layer="text2903"
     inkscape:document-units="mm"
     inkscape:cy="764.09851"
     inkscape:cx="4665.2246"
     inkscape:zoom="0.13021881"
     inkscape:pageshadow="2"
     inkscape:pageopacity="0.0"
     borderopacity="1.0"
     bordercolor="#666666"
     pagecolor="#ffffff"
     id="base"
     inkscape:showpageshadow="2"
     inkscape:pagecheckerboard="0"
     inkscape:deskcolor="#d1d1d1" /><metadata
     id="metadata845"><rdf:RDF><cc:Work
         rdf:about=""><dc:format>image/svg+xml</dc:format><dc:type
           rdf:resource="http://purl.org/dc/dcmitype/StillImage" /></cc:Work></rdf:RDF></metadata><g
     transform="translate(-530.52646,11.947886)"
     id="layer1"
     inkscape:groupmode="layer"
     inkscape:label="Layer 1"><path
       inkscape:connector-curvature="0"
       d=""
       style="opacity:1;fill:#d35f5f;fill-opacity:1;fill-rule:nonzero;stroke:none;stroke-width:3.92256;stroke-linecap:butt;stroke-linejoin:miter;stroke-miterlimit:4;stroke-dasharray:none;stroke-opacity:1;paint-order:stroke fill markers"
       id="path8376"
       r="150"
       cy="147"
       cx="150" /><g
       inkscape:groupmode="layer"
       transform="translate(-4496.0426,2396.6803)"
       id="text3577"
       style="font-style:normal;font-variant:normal;font-weight:bold;font-stretch:normal;font-size:299.854px;line-height:0;font-family:Giaothong1;-inkscape-font-specification:'Giaothong1 Bold';letter-spacing:0px;word-spacing:0px;fill:#ffcc00;fill-opacity:1;stroke:none;stroke-width:1.56174"
       aria-label="VỊNH"><g
         id="text3665"
         style="font-style:normal;font-variant:normal;font-weight:bold;font-stretch:normal;font-size:299.854px;line-height:0;font-family:Giaothong1;-inkscape-font-specification:'Giaothong1 Bold';letter-spacing:-2.78077px;word-spacing:0px;fill:#ffcc00;fill-opacity:1;stroke:none;stroke-width:2.43903"
         aria-label="VỊNH" /></g><g
       inkscape:groupmode="layer"
       id="text2719"
       style="font-style:normal;font-variant:normal;font-weight:bold;font-stretch:normal;font-size:184.173px;line-height:0;font-family:Giaothong1;-inkscape-font-specification:'Giaothong1 Bold';letter-spacing:0px;word-spacing:0.486833px;fill:#ffffff;fill-opacity:1;stroke:none;stroke-width:0.959232"
       aria-label="CÔNG TRƯỜNG"><g
         inkscape:groupmode="layer"
         id="text2888"
         style="font-style:normal;font-variant:normal;font-weight:bold;font-stretch:normal;font-size:187.408px;line-height:0;font-family:Giaothong1;-inkscape-font-specification:'Giaothong1 Bold';letter-spacing:0.00264583px;word-spacing:0px;fill:#ffffff;fill-opacity:1;stroke:none;stroke-width:0.936293"
         aria-label="AHEAD"><g
           inkscape:groupmode="layer"
           id="text2903"
           style="font-style:normal;font-variant:normal;font-weight:bold;font-stretch:normal;font-size:184.173px;line-height:0;font-family:Giaothong1;-inkscape-font-specification:'Giaothong1 Bold';letter-spacing:0.00529167px;word-spacing:0px;fill:#ffffff;fill-opacity:1;stroke:none;stroke-width:0.898123"
           aria-label="WORKS"><path
             d="m 708.33916,-11.947699 1980.51954,-1.87e-4 V 488.05211 H 708.33916 L 530.52646,238.0523 Z"
             style="opacity:1;fill:#0046aa;fill-opacity:1;fill-rule:nonzero;stroke:none;stroke-width:1.27163;stroke-linecap:butt;stroke-linejoin:miter;stroke-miterlimit:10;stroke-dasharray:none;stroke-opacity:1;paint-order:stroke fill markers"
             id="rect1393"
             sodipodi:nodetypes="cccccc" /><path
             id="rect1395"
             style="opacity:1;fill:#ffffff;fill-opacity:1;fill-rule:nonzero;stroke:none;stroke-width:1.22924;stroke-linecap:butt;stroke-linejoin:miter;stroke-miterlimit:10;stroke-dasharray:none;stroke-opacity:1;paint-order:stroke fill markers"
             d="M 710.47731,-3.6148361 540.46021,238.0523 710.47731,479.72219 H 2680.5209 V -3.6148361 Z m 8.3265,8.33846 h 68.59 V 471.38374 h -68.59 L 554.2984,238.0523 Z m 536.58179,0 H 2672.1943 V 471.38374 H 1255.3856 Z"
             sodipodi:nodetypes="ccccccccccccccccc" /><g
             id="g71683"
             transform="translate(-84.093397,-614.59523)" /><path
             d="m 1687.8358,303.37717 v 28.11753 h 21.7075 c 5.2643,0 9.228,-1.42445 11.8911,-4.36627 2.6322,-2.91084 3.9947,-6.37908 3.9947,-10.40472 0,-2.26055 -0.4026,-4.30434 -1.2077,-6.10039 -0.8051,-1.76509 -1.9509,-3.22051 -3.4683,-4.36627 -1.3005,-0.89803 -2.8179,-1.61025 -4.614,-2.13669 -1.7341,-0.46447 -3.654,-0.74319 -5.6978,-0.74319 h -22.6055 m -15.669,84.84806 c -0.5264,0 -0.8051,-0.2787 -0.8051,-0.80512 v -98.07074 c 0,-0.55738 0.2787,-0.8361 0.8051,-0.8361 h 38.3984 c 4.2424,0 8.0822,0.58837 11.4885,1.7651 3.4373,1.14575 6.4101,2.78697 8.9803,4.95463 1.3006,1.23866 2.5702,2.63214 3.7779,4.21143 1.2077,1.57929 2.2606,3.25148 3.2205,5.0785 0.929,1.82702 1.6722,3.7779 2.2296,5.82169 0.5574,2.07475 0.8361,4.18047 0.8361,6.37909 0,3.22051 -0.4645,6.28619 -1.3935,9.19703 -0.867,2.87988 -2.1676,5.57396 -3.8089,8.11321 -1.6722,2.32249 -3.623,4.3353 -5.8836,6.13135 -2.2296,1.73413 -4.7688,3.12762 -7.6177,4.21144 3.7159,7.02939 7.4009,14.15167 11.1789,21.30492 3.7159,7.12228 7.4319,14.24456 11.1479,21.30491 0.1239,0.30967 0.1239,0.58837 0,0.86707 -0.1548,0.24773 -0.3407,0.37159 -0.6813,0.37159 h -17.6509 c -0.1548,0 -0.2787,-0.031 -0.4335,-0.15483 -0.1239,-0.12387 -0.2477,-0.21676 -0.3406,-0.30966 l -20.0353,-41.40215 h -17.7438 v 41.06152 c 0,0.52642 -0.2787,0.80512 -0.8051,0.80512 h -14.8639"
             id="path8786"
             style="fill:#ffffff;fill-opacity:1;stroke-width:7.11979" /><path
             d="m 1811.332,357.97101 c 0,0.5574 -0.2787,0.8361 -0.8361,0.8361 h -42.3621 c 0.1548,4.98559 1.5793,8.82543 4.3043,11.42662 3.0347,2.72504 6.8126,4.11853 11.4576,4.11853 5.4501,0 10.3118,-2.13668 14.6162,-6.44102 0.093,-0.15483 0.2477,-0.21676 0.4954,-0.24773 0.2168,0 0.4026,0.031 0.6194,0.1858 l 10.126,8.60867 c 0.1548,0.15484 0.2787,0.30967 0.2787,0.5574 0,0.18579 -0.062,0.40256 -0.2168,0.61933 -3.5611,4.08757 -7.5248,6.99841 -11.953,8.79447 -4.3663,1.73412 -8.9803,2.63214 -13.7801,2.63214 -7.3081,0 -14.3684,-2.32248 -21.1501,-7.06034 -6.9055,-4.7069 -10.4047,-14.3994 -10.4047,-29.01556 0,-13.7491 3.1586,-23.28677 9.5377,-28.613 6.441,-5.2643 13.0988,-7.92741 19.9114,-7.92741 7.8345,0 14.6781,2.69408 20.5307,8.14418 5.8837,5.48106 8.8255,12.75817 8.8255,21.89327 v 11.48855 m -15.6071,-12.23175 c -0.3097,-4.73786 -1.7032,-8.36093 -4.2424,-10.80728 -2.5083,-2.47732 -5.6978,-3.71598 -9.5067,-3.71598 -3.9947,0 -7.2462,1.26963 -9.7854,3.83984 -1.1767,1.17673 -2.1367,2.66312 -2.818,4.52111 -0.6812,1.82701 -1.0838,3.8708 -1.2386,6.16231 h 27.5911"
             id="path8782"
             style="fill:#ffffff;fill-opacity:1;stroke-width:7.11979" /><path
             d="m 1827.7523,365.71263 c 0.3406,-0.34063 0.6812,-0.40257 1.0219,-0.0619 5.9146,5.79072 13.0369,8.70156 21.3668,8.70156 3.716,0 6.8746,-0.71222 9.4448,-2.13668 1.0838,-0.68126 1.9509,-1.51735 2.5702,-2.53924 0.5884,-0.99093 0.898,-2.10572 0.898,-3.40632 0,-3.5921 -2.6011,-5.60492 -7.8035,-6.03845 l -12.2937,-1.14578 c -2.8799,-0.2787 -5.543,-0.89803 -8.0822,-1.85799 -2.5083,-0.95996 -4.7379,-2.29151 -6.7197,-4.02564 -3.9018,-3.46824 -5.8837,-8.32998 -5.8837,-14.58519 0,-7.27712 2.5702,-12.82012 7.7416,-16.62898 5.0785,-3.68501 11.3647,-5.543 18.8896,-5.543 3.0656,0 5.9455,0.21677 8.5777,0.68126 2.6012,0.43353 5.0785,1.08383 7.339,1.91992 2.2606,0.80513 4.3353,1.82702 6.2862,3.00375 1.9199,1.17672 3.8089,2.50828 5.574,3.9637 0.1858,0.15483 0.2787,0.30967 0.2787,0.5574 0,0.21676 -0.062,0.40256 -0.2168,0.61933 l -8.6087,10.12602 c -0.3096,0.30967 -0.6812,0.3716 -1.0838,0.12387 -2.6941,-1.79605 -5.481,-3.31341 -8.3609,-4.45917 -2.8799,-1.17672 -6.1314,-1.76509 -9.7854,-1.76509 -4.2424,0 -7.1533,0.7432 -8.7635,2.19862 -1.5484,1.39349 -2.3225,3.18955 -2.3225,5.32623 0,1.30059 0.5574,2.53925 1.7031,3.71598 1.1148,1.08382 3.3134,1.76508 6.7198,2.04378 1.9199,0.12386 3.8088,0.2787 5.7597,0.40257 1.9199,0.15483 3.8399,0.27869 5.7288,0.43352 3.5611,0.18581 6.7197,0.89803 9.4757,2.13669 2.7561,1.20769 4.9237,2.81794 6.534,4.83076 3.2205,4.11854 4.8617,8.94931 4.8617,14.5852 0,7.12229 -2.8799,12.57238 -8.7016,16.47415 -2.8489,1.85799 -6.0075,3.28245 -9.4757,4.2424 -3.4063,0.95996 -7.2152,1.45542 -11.3957,1.45542 -11.6433,0 -22.0171,-4.18047 -31.0593,-12.60334 -0.4026,-0.40256 -0.4026,-0.80512 0,-1.23866 l 9.7854,-9.50669"
             id="path8818"
             style="fill:#ffffff;fill-opacity:1;stroke-width:7.11979" /><path
             d="m 1894.1289,388.28717 c -0.5265,0 -0.8052,-0.24774 -0.8052,-0.80513 v -57.96919 h -6.1623 c -0.5574,0 -0.8361,-0.2787 -0.8361,-0.80513 V 318.0243 c 0,-0.5574 0.2787,-0.83609 0.8361,-0.83609 h 6.1623 v -10.40473 l 14.1517,-15.11163 c 0.2787,-0.27872 0.5884,-0.34064 0.929,-0.21673 0.3406,0.15482 0.5264,0.40255 0.5264,0.77419 v 24.95896 h 9.29 c 0.5573,0 0.8361,0.2787 0.8361,0.83609 v 10.68336 c 0,0.52643 -0.2788,0.80513 -0.8361,0.80513 h -9.29 v 57.96919 c 0,0.55739 -0.2787,0.80513 -0.8361,0.80513 h -13.9658"
             id="path8798"
             style="fill:#ffffff;fill-opacity:1;stroke-width:7.11979" /><path
             d="m 1969.2299,388.50393 c -0.5574,0 -0.8051,-0.2787 -0.8051,-0.80513 v -3.83984 c -0.6193,0.80513 -1.3935,1.51736 -2.2296,2.13668 -0.8361,0.61933 -1.7651,1.1148 -2.6941,1.4864 -1.4244,0.58836 -3.0657,1.02189 -4.9856,1.36252 -1.858,0.30967 -3.9327,0.49547 -6.1933,0.49547 -7.8345,-0.1858 -13.811,-2.35346 -17.9295,-6.44103 v 0.0619 c -4.4283,-4.02564 -6.6888,-9.25897 -6.6888,-15.66903 0,-5.94556 1.9199,-11.02405 5.7288,-15.11162 3.9018,-4.11854 9.5996,-6.19329 16.9696,-6.31716 h 18.0225 v -6.50295 c 0.062,-5.6359 -4.2424,-8.36094 -13.0059,-8.14418 -1.5793,0 -3.0038,0.0929 -4.3044,0.21677 -1.2696,0.12387 -2.4463,0.3716 -3.4992,0.7432 h 0.062 c -0.8981,0.46449 -1.7032,0.99092 -2.4774,1.67218 -0.7122,0.6503 -1.3315,1.45542 -1.827,2.38442 -0.3096,0.52643 -0.7122,0.61933 -1.2386,0.1858 l -10.6835,-8.42288 c -0.1548,-0.12386 -0.2787,-0.27869 -0.3406,-0.49546 -0.031,-0.21677 0,-0.3716 0.1548,-0.58836 5.2643,-7.15325 13.0988,-10.65246 23.4726,-10.40473 4.3043,-0.031 8.2061,0.34063 11.6124,1.17673 3.4373,0.80512 6.472,2.10572 9.1661,3.90177 5.2953,3.71597 7.9584,9.90926 8.0203,18.5489 v 47.56446 c 0,0.52643 -0.2787,0.80513 -0.8051,0.80513 h -13.5014 m -0.8051,-29.48005 h -15.4832 c -7.3081,0.18579 -11.0241,2.72504 -10.9312,7.58677 0,2.04378 0.898,3.87081 2.787,5.48106 1.9199,1.67219 4.9546,2.50828 9.166,2.50828 5.6359,0.0619 9.4758,-0.58835 11.6434,-1.98185 h -0.062 c 1.9199,-1.26962 2.8799,-4.36627 2.8799,-9.28993 v -4.30433"
             id="path8806"
             style="fill:#ffffff;fill-opacity:1;stroke-width:7.11979" /><path
             d="m 1999.8532,318.0243 c 0,-0.5574 0.2787,-0.83609 0.8051,-0.83609 h 13.9659 c 0.5574,0 0.8361,0.27869 0.8361,0.83609 v 41.40214 c 0,4.55207 1.1767,8.02031 3.6231,10.46665 2.3844,2.38443 5.543,3.62308 9.4447,3.62308 3.5921,0 6.6269,-1.20769 9.1661,-3.62308 2.3844,-2.38441 3.6231,-5.88362 3.6231,-10.46665 V 318.0243 c 0,-0.5574 0.2787,-0.83609 0.8361,-0.83609 h 13.9658 c 0.5265,0 0.8052,0.27869 0.8052,0.83609 v 69.39581 c 0,0.52642 -0.2787,0.80512 -0.8052,0.80512 h -13.9658 c -0.5574,0 -0.8361,-0.2787 -0.8361,-0.80512 v -5.48106 c -4.3044,4.7069 -10.1261,7.12227 -17.3722,7.12227 -5.6049,0 -11.0241,-2.10571 -16.2883,-6.31715 -5.2024,-4.2424 -7.8036,-10.43569 -7.8036,-18.61083 V 318.0243"
             id="path8794"
             style="fill:#ffffff;fill-opacity:1;stroke-width:7.11979" /><path
             d="m 2072.7487,388.22523 c -0.4645,0 -0.7432,-0.2787 -0.7432,-0.80512 V 318.0243 c 0,-0.5574 0.2168,-0.83609 0.7432,-0.83609 h 14.0278 c 0.4955,0 0.7432,0.27869 0.7432,0.83609 v 5.60493 c 4.3972,-4.7998 10.2189,-7.18422 17.527,-7.18422 5.2333,0 10.2499,1.82702 14.9877,5.48106 0.1859,0.12387 0.2787,0.30967 0.3097,0.52643 0,0.21676 -0.031,0.43353 -0.1548,0.61933 l -10.0641,12.04595 c -0.3097,0.43353 -0.6813,0.49546 -1.1148,0.15483 -2.9418,-2.19862 -5.8836,-3.28245 -8.7635,-3.28245 -3.1896,0 -6.1623,1.08383 -8.8254,3.28245 -2.6012,2.16765 -3.9018,5.66686 -3.9018,10.46665 v 41.68085 c 0,0.52642 -0.2168,0.80512 -0.7432,0.80512 h -14.0278"
             id="path8814"
             style="fill:#ffffff;fill-opacity:1;stroke-width:7.11979" /><path
             d="m 2166.3029,388.50393 c -0.5574,0 -0.8051,-0.2787 -0.8051,-0.80513 v -3.83984 c -0.6193,0.80513 -1.3935,1.51736 -2.2296,2.13668 -0.8361,0.61933 -1.7651,1.1148 -2.6941,1.4864 -1.4244,0.58836 -3.0657,1.02189 -4.9856,1.36252 -1.858,0.30967 -3.9327,0.49547 -6.1933,0.49547 -7.8345,-0.1858 -13.811,-2.35346 -17.9295,-6.44103 v 0.0619 c -4.4283,-4.02564 -6.6888,-9.25897 -6.6888,-15.66903 0,-5.94556 1.9199,-11.02405 5.7288,-15.11162 3.9018,-4.11854 9.5996,-6.19329 16.9696,-6.31716 h 18.0225 v -6.50295 c 0.062,-5.6359 -4.2424,-8.36094 -13.0059,-8.14418 -1.5793,0 -3.0038,0.0929 -4.3044,0.21677 -1.2696,0.12387 -2.4463,0.3716 -3.4992,0.7432 h 0.062 c -0.8981,0.46449 -1.7032,0.99092 -2.4774,1.67218 -0.7122,0.6503 -1.3315,1.45542 -1.827,2.38442 -0.3096,0.52643 -0.7122,0.61933 -1.2386,0.1858 l -10.6835,-8.42288 c -0.1548,-0.12386 -0.2787,-0.27869 -0.3406,-0.49546 -0.031,-0.21677 0,-0.3716 0.1548,-0.58836 5.2643,-7.15325 13.0988,-10.65246 23.4726,-10.40473 4.3043,-0.031 8.2061,0.34063 11.6124,1.17673 3.4373,0.80512 6.472,2.10572 9.1661,3.90177 5.2953,3.71597 7.9584,9.90926 8.0203,18.5489 v 47.56446 c 0,0.52643 -0.2787,0.80513 -0.8051,0.80513 h -13.5014 m -0.8051,-29.48005 h -15.4832 c -7.3081,0.18579 -11.0241,2.72504 -10.9312,7.58677 0,2.04378 0.898,3.87081 2.787,5.48106 1.9199,1.67219 4.9546,2.50828 9.166,2.50828 5.6359,0.0619 9.4758,-0.58835 11.6434,-1.98185 h -0.062 c 1.9199,-1.26962 2.8799,-4.36627 2.8799,-9.28993 v -4.30433"
             id="path8810"
             style="fill:#ffffff;fill-opacity:1;stroke-width:7.11979" /><path
             d="m 2196.8206,388.22523 c -0.5264,0 -0.8051,-0.2787 -0.8051,-0.80512 V 318.0243 c 0,-0.5574 0.2787,-0.83609 0.8051,-0.83609 h 13.9659 c 0.5574,0 0.8361,0.27869 0.8361,0.83609 v 5.60493 c 4.3663,-4.7998 10.188,-7.18422 17.527,-7.18422 2.787,0 5.543,0.52643 8.2061,1.57929 2.6322,1.02189 5.2643,2.60118 7.9274,4.7069 5.2024,4.2424 7.8036,10.40473 7.8036,18.5489 v 46.14001 c 0,0.52642 -0.2787,0.80512 -0.8361,0.80512 h -13.9349 c -0.5574,0 -0.8361,-0.2787 -0.8361,-0.80512 V 346.0799 c 0,-4.5211 -1.2077,-7.98934 -3.6231,-10.40473 -2.5392,-2.47731 -5.6049,-3.68501 -9.1661,-3.68501 -3.8398,0 -6.9984,1.2077 -9.4447,3.68501 -2.3844,2.38442 -3.6231,5.88363 -3.6231,10.40473 v 41.34021 c 0,0.52642 -0.2787,0.80512 -0.8361,0.80512 h -13.9659"
             id="path8790"
             style="fill:#ffffff;fill-opacity:1;stroke-width:7.11979" /><path
             d="m 2272.2549,388.28717 c -0.5265,0 -0.8052,-0.24774 -0.8052,-0.80513 v -57.96919 h -6.1623 c -0.5574,0 -0.8361,-0.2787 -0.8361,-0.80513 V 318.0243 c 0,-0.5574 0.2787,-0.83609 0.8361,-0.83609 h 6.1623 v -10.40473 l 14.1517,-15.11163 c 0.2787,-0.27872 0.5884,-0.34064 0.929,-0.21673 0.3406,0.15482 0.5264,0.40255 0.5264,0.77419 v 24.95896 h 9.29 c 0.5573,0 0.8361,0.2787 0.8361,0.83609 v 10.68336 c 0,0.52643 -0.2788,0.80513 -0.8361,0.80513 h -9.29 v 57.96919 c 0,0.55739 -0.2787,0.80513 -0.8361,0.80513 h -13.9658"
             id="path8802"
             style="fill:#ffffff;fill-opacity:1;stroke-width:7.11979" /><path
             id="rect7937"
             style="opacity:1;fill:#0046aa;fill-opacity:1;fill-rule:evenodd;stroke-width:500.24;stroke-linecap:round;stroke-linejoin:round;paint-order:stroke fill markers"
             d="m 813.25723,66.390383 393.65907,393.659607 26.9096,-26.91467 -205.3112,-205.3131 c 0,0 -17.1031,-38.78136 -46.36075,-78.69866 -26.68227,-36.40794 -56.6746,-69.321347 -96.06732,-87.126336 -13.86629,-6.261655 -30.23217,-6.817148 -45.35583,-5.150669 -9.62966,1.008965 -27.47002,9.493267 -27.47002,9.493267 z"
             sodipodi:nodetypes="ccccsaac" /><path
             id="rect8018"
             style="opacity:1;fill:#0046aa;fill-opacity:1;fill-rule:evenodd;stroke-width:523.869;stroke-linecap:round;stroke-linejoin:round;paint-order:stroke fill markers"
             d="m 1196.1434,31.426682 -130.5861,79.955938 c -25.2128,15.45178 -26.2632,50.2438 -11.8161,76.39602 l -243.54202,243.54391 26.90447,26.91467 243.37735,-243.3774 c 25.1775,13.98732 57.8072,11.26064 77.3115,-11.21031 l 79.103,-131.437012 -89.7598,89.757292 -14.6894,-14.69428 89.7598,-89.762454 -11.3717,-11.361764 -89.7594,89.757288 -14.6944,-14.69427 z" /><g
             aria-label="NHÀ HÀNG ĂN UỐNG"
             transform="scale(0.92599362,1.079921)"
             id="text12719"
             style="font-size:158.078px;font-family:Giaothong2;-inkscape-font-specification:Giaothong2;text-align:center;text-anchor:middle;opacity:1;fill:#ffffff;fill-rule:evenodd;stroke-width:149.365;stroke-linecap:round;stroke-linejoin:round;paint-order:stroke fill markers"><path
               d="m 1417.5771,174.29414 q -0.9262,0 -0.9262,-0.92624 V 62.759608 q 0,-0.926239 0.9262,-0.926239 h 15.9004 q 0.4632,0 0.7719,0.463119 l 48.6275,76.569032 V 62.759608 q 0,-0.926239 0.9263,-0.926239 h 16.8266 q 0.9263,0 0.9263,0.926239 V 173.3679 q 0,0.92624 -0.9263,0.92624 h -15.8232 q -0.4631,0 -0.7719,-0.46312 L 1435.2528,97.261984 V 173.3679 q 0,0.92624 -0.849,0.92624 z"
               id="path13024"
               style="fill:#ffffff" /><path
               d="m 1586.3122,174.29414 q -0.9263,0 -0.9263,-0.92624 v -47.39253 h -42.0666 v 47.39253 q 0,0.92624 -0.9263,0.92624 h -16.7495 q -0.9262,0 -0.9262,-0.92624 V 62.759608 q 0,-0.926239 0.9262,-0.926239 h 16.7495 q 0.9263,0 0.9263,0.926239 V 109.2259 h 42.0666 V 62.759608 q 0,-0.926239 0.9263,-0.926239 h 16.7494 q 0.9263,0 0.9263,0.926239 V 173.3679 q 0,0.92624 -0.9263,0.92624 z"
               id="path13026"
               style="fill:#ffffff" /><path
               d="m 1617.1921,174.21695 q -0.5403,0 -0.7719,-0.38593 -0.2316,-0.38594 -0.077,-0.84905 l 40.4457,-110.685482 q 0.1544,-0.617492 0.7719,-0.617492 h 13.8164 q 0.2316,0 0.4631,0.23156 0.3088,0.154373 0.386,0.385932 l 40.3685,110.685482 q 0.1544,0.46311 -0.077,0.84905 -0.2315,0.38593 -0.6947,0.38593 h -17.6757 q -0.6175,0 -0.7718,-0.61749 l -8.3362,-24.39094 h -40.7545 q -2.1612,6.2521 -4.3224,12.27265 -2.0841,5.94337 -4.2453,12.11829 -0.077,0.23156 -0.3859,0.46312 -0.2316,0.15437 -0.4631,0.15437 z m 62.2895,-41.60354 q -0.1544,-0.5403 -0.4631,-1.1578 -0.2316,-0.61749 -0.386,-1.08061 -1.3121,-3.78214 -2.3927,-6.94678 -1.0807,-3.24184 -1.9297,-5.63462 -0.5403,-1.54373 -1.0806,-3.01027 -0.4631,-1.46655 -0.9263,-2.77872 -0.3859,-1.23498 -0.7718,-2.3156 -0.386,-1.15779 -0.7719,-2.2384 -0.6947,-2.23841 -1.4665,-4.47682 -0.6947,-2.23841 -1.4666,-4.631194 -0.3859,-1.080612 -0.849,-2.392783 -0.386,-1.312171 -0.8491,-2.778715 -0.2315,-0.771865 -0.3859,-1.157798 -0.077,-0.463119 -0.2316,-0.849051 -0.1543,-0.463119 -0.3859,-1.003425 -0.1544,-0.540306 -0.4631,-1.543731 -0.8491,2.547156 -1.6209,4.708378 -0.6947,2.161223 -1.3122,4.0137 -0.1544,0.463119 -0.2316,0.849051 -0.077,0.385933 -0.2315,0.771866 -0.386,1.312172 -0.8491,2.469972 -0.3859,1.15779 -0.7719,2.31559 -0.3859,1.23499 -0.7718,2.39278 -0.386,1.1578 -0.7719,2.23841 -0.7718,2.3156 -1.6209,4.86275 -0.7719,2.54716 -1.7753,5.32588 -1.0034,2.77871 -2.084,6.02054 -1.0806,3.16465 -2.7787,8.0274 z M 1669.293,51.876308 q -0.1544,0 -0.386,-0.07719 -0.2315,-0.154373 -0.3087,-0.23156 l -21.3035,-22.538465 q -0.4631,-0.463119 -0.2316,-1.003425 0.3088,-0.540305 0.9263,-0.540305 h 16.981 q 0.4631,0 0.7719,0.463119 l 16.132,22.538465 q 0.2315,0.540306 0,1.003425 -0.1544,0.385933 -0.7719,0.385933 z"
               id="path13028"
               style="fill:#ffffff" /><path
               d="m 1825.1431,174.29414 q -0.9262,0 -0.9262,-0.92624 v -47.39253 h -42.0667 v 47.39253 q 0,0.92624 -0.9262,0.92624 h -16.7495 q -0.9262,0 -0.9262,-0.92624 V 62.759608 q 0,-0.926239 0.9262,-0.926239 h 16.7495 q 0.9262,0 0.9262,0.926239 V 109.2259 h 42.0667 V 62.759608 q 0,-0.926239 0.9262,-0.926239 h 16.7495 q 0.9262,0 0.9262,0.926239 V 173.3679 q 0,0.92624 -0.9262,0.92624 z"
               id="path13030"
               style="fill:#ffffff" /><path
               d="m 1856.023,174.21695 q -0.5403,0 -0.7718,-0.38593 -0.2316,-0.38594 -0.077,-0.84905 l 40.4457,-110.685482 q 0.1544,-0.617492 0.7719,-0.617492 h 13.8164 q 0.2315,0 0.4631,0.23156 0.3087,0.154373 0.3859,0.385932 l 40.3686,110.685482 q 0.1544,0.46311 -0.077,0.84905 -0.2316,0.38593 -0.6947,0.38593 h -17.6757 q -0.6175,0 -0.7719,-0.61749 l -8.3361,-24.39094 h -40.7545 q -2.1612,6.2521 -4.3224,12.27265 -2.0841,5.94337 -4.2453,12.11829 -0.077,0.23156 -0.3859,0.46312 -0.2316,0.15437 -0.4631,0.15437 z m 62.2896,-41.60354 q -0.1544,-0.5403 -0.4632,-1.1578 -0.2315,-0.61749 -0.3859,-1.08061 -1.3122,-3.78214 -2.3928,-6.94678 -1.0806,-3.24184 -1.9296,-5.63462 -0.5403,-1.54373 -1.0806,-3.01027 -0.4632,-1.46655 -0.9263,-2.77872 -0.3859,-1.23498 -0.7718,-2.3156 -0.386,-1.15779 -0.7719,-2.2384 -0.6947,-2.23841 -1.4666,-4.47682 -0.6946,-2.23841 -1.4665,-4.631194 -0.3859,-1.080612 -0.8491,-2.392783 -0.3859,-1.312171 -0.849,-2.778715 -0.2316,-0.771865 -0.3859,-1.157798 -0.077,-0.463119 -0.2316,-0.849051 -0.1544,-0.463119 -0.3859,-1.003425 -0.1544,-0.540306 -0.4631,-1.543731 -0.8491,2.547156 -1.621,4.708378 -0.6946,2.161223 -1.3121,4.0137 -0.1544,0.463119 -0.2316,0.849051 -0.077,0.385933 -0.2316,0.771866 -0.3859,1.312172 -0.849,2.469972 -0.3859,1.15779 -0.7719,2.31559 -0.3859,1.23499 -0.7718,2.39278 -0.386,1.1578 -0.7719,2.23841 -0.7719,2.3156 -1.6209,4.86275 -0.7719,2.54716 -1.7753,5.32588 -1.0034,2.77871 -2.084,6.02054 -1.0807,3.16465 -2.7788,8.0274 z m -10.1887,-80.737102 q -0.1543,0 -0.3859,-0.07719 -0.2316,-0.154373 -0.3087,-0.23156 l -21.3035,-22.538465 q -0.4631,-0.463119 -0.2316,-1.003425 0.3088,-0.540305 0.9263,-0.540305 h 16.981 q 0.4631,0 0.7719,0.463119 l 16.1319,22.538465 q 0.2316,0.540306 0,1.003425 -0.1543,0.385933 -0.7718,0.385933 z"
               id="path13032"
               style="fill:#ffffff" /><path
               d="m 1965.4016,174.29414 q -0.9262,0 -0.9262,-0.92624 V 62.759608 q 0,-0.926239 0.9262,-0.926239 h 15.9005 q 0.4631,0 0.7718,0.463119 l 48.6275,76.569032 V 62.759608 q 0,-0.926239 0.9263,-0.926239 h 16.8266 q 0.9263,0 0.9263,0.926239 V 173.3679 q 0,0.92624 -0.9263,0.92624 h -15.8232 q -0.4631,0 -0.7719,-0.46312 L 1983.0774,97.261984 V 173.3679 q 0,0.92624 -0.8491,0.92624 z"
               id="path13034"
               style="fill:#ffffff" /><path
               d="m 2109.3598,129.29439 q -0.9263,0 -0.9263,-0.92624 v -15.90042 q 0,-0.84905 0.9263,-0.84905 h 39.2879 q 0.9263,0 0.9263,0.84905 v 22.53846 q 0,17.05823 -11.7324,28.55902 -11.8867,11.65516 -28.6362,11.65516 -13.3533,0 -22.4613,-6.40648 -8.9536,-6.32929 -12.9673,-13.89357 h 0.077 q -1.4666,-2.62434 -2.47,-5.24869 -1.0034,-2.70152 -1.5437,-5.63461 -0.4631,-2.93309 -0.7719,-9.33957 -0.2315,-6.48367 -0.2315,-16.5951 0,-10.11144 0.2315,-16.51792 0.3088,-6.406482 0.7719,-9.33957 0.5403,-2.933088 1.5437,-5.634616 1.0034,-2.701529 2.47,-5.32587 h -0.077 q 4.0137,-7.487093 12.9673,-13.893575 9.0308,-6.483668 22.4613,-6.483668 16.0548,0 26.5522,9.879875 10.6517,9.879875 13.1989,23.619077 0.1543,0.463119 -0.1544,0.771865 -0.3088,0.308746 -0.7719,0.308746 h -17.6757 q -0.6947,0 -0.849,-0.617492 -1.0035,-3.087461 -2.8559,-5.711803 -1.8525,-2.701528 -4.554,-5.017124 -5.0944,-4.554005 -12.8902,-4.554005 -5.789,0 -9.8799,2.315596 -4.0909,2.315595 -6.5608,5.32587 -1.4666,1.852477 -2.5472,4.245259 -1.0806,2.315596 -1.6981,4.785564 -0.6175,2.624342 -0.849,8.104581 -0.2316,5.48025 -0.2316,13.73921 0,8.41333 0.2316,13.89357 0.2315,5.40306 0.849,8.0274 0.6175,2.39278 1.6981,4.78556 1.1578,2.3156 2.5472,4.09089 2.4699,3.24183 6.5608,5.55743 4.0909,2.23841 9.8799,2.23841 9.1852,0 15.4373,-6.25211 6.3293,-6.25211 6.3293,-16.36354 v -4.78557 z"
               id="path13036"
               style="fill:#ffffff" /><path
               d="m 2196.8999,174.21695 q -0.5403,0 -0.7719,-0.38593 -0.2316,-0.38594 -0.077,-0.84905 l 40.4458,-110.685482 q 0.1543,-0.617492 0.7718,-0.617492 h 13.8164 q 0.2316,0 0.4631,0.23156 0.3088,0.154373 0.386,0.385932 l 40.3685,110.685482 q 0.1544,0.46311 -0.077,0.84905 -0.2315,0.38593 -0.6947,0.38593 h -17.6757 q -0.6175,0 -0.7718,-0.61749 l -8.3362,-24.39094 h -40.7545 q -2.1612,6.2521 -4.3224,12.27265 -2.084,5.94337 -4.2453,12.11829 -0.077,0.23156 -0.3859,0.46312 -0.2316,0.15437 -0.4631,0.15437 z m 62.2895,-41.60354 q -0.1544,-0.5403 -0.4631,-1.1578 -0.2316,-0.61749 -0.386,-1.08061 -1.3121,-3.78214 -2.3927,-6.94678 -1.0807,-3.24184 -1.9297,-5.63462 -0.5403,-1.54373 -1.0806,-3.01027 -0.4631,-1.46655 -0.9263,-2.77872 -0.3859,-1.23498 -0.7718,-2.3156 -0.386,-1.15779 -0.7719,-2.2384 -0.6947,-2.23841 -1.4665,-4.47682 -0.6947,-2.23841 -1.4666,-4.631194 -0.3859,-1.080612 -0.849,-2.392783 -0.386,-1.312171 -0.8491,-2.778715 -0.2315,-0.771865 -0.3859,-1.157798 -0.077,-0.463119 -0.2316,-0.849051 -0.1543,-0.463119 -0.3859,-1.003425 -0.1544,-0.540306 -0.4631,-1.543731 -0.8491,2.547156 -1.6209,4.708378 -0.6947,2.161223 -1.3122,4.0137 -0.1544,0.463119 -0.2316,0.849051 -0.077,0.385933 -0.2315,0.771866 -0.386,1.312172 -0.8491,2.469972 -0.3859,1.15779 -0.7718,2.31559 -0.386,1.23499 -0.7719,2.39278 -0.3859,1.1578 -0.7719,2.23841 -0.7718,2.3156 -1.6209,4.86275 -0.7719,2.54716 -1.7753,5.32588 -1.0034,2.77871 -2.084,6.02054 -1.0806,3.16465 -2.7787,8.0274 z M 2231.0935,30.7272 q 1.8525,9.185196 13.1217,9.262383 11.7324,-0.154373 12.2727,-9.262383 h 11.1148 q 0,5.017124 -1.8525,8.490517 -1.7752,3.396208 -4.9399,6.560855 -6.2521,5.943362 -16.2092,6.097736 -10.5745,-0.154374 -17.2897,-5.943363 -3.0875,-3.087461 -4.7856,-6.020549 -1.6981,-2.933088 -1.7753,-9.185196 z"
               id="path13038"
               style="fill:#ffffff" /><path
               d="m 2306.2785,174.29414 q -0.9263,0 -0.9263,-0.92624 V 62.759608 q 0,-0.926239 0.9263,-0.926239 h 15.9004 q 0.4631,0 0.7719,0.463119 l 48.6275,76.569032 V 62.759608 q 0,-0.926239 0.9262,-0.926239 h 16.8267 q 0.9262,0 0.9262,0.926239 V 173.3679 q 0,0.92624 -0.9262,0.92624 h -15.8233 q -0.4631,0 -0.7718,-0.46312 L 2323.9542,97.261984 V 173.3679 q 0,0.92624 -0.8491,0.92624 z"
               id="path13040"
               style="fill:#ffffff" /><path
               d="m 2449.3157,62.759608 q 0,-0.926239 0.9262,-0.926239 h 16.8267 q 0.849,0 0.849,0.926239 v 71.320352 q 0,11.11486 6.1749,16.82666 6.2521,5.78899 15.5145,5.78899 9.108,0 15.3601,-5.78899 6.2521,-5.78899 6.2521,-16.82666 V 62.759608 q 0,-0.926239 0.9263,-0.926239 h 16.7495 q 0.9262,0 0.9262,0.926239 v 73.172822 q 0,17.7529 -11.8095,28.55902 -11.6552,10.72892 -28.4047,10.72892 -16.8266,0 -28.559,-10.72892 -11.7323,-10.80612 -11.7323,-28.55902 z"
               id="path13042"
               style="fill:#ffffff" /><path
               d="m 2561.2414,51.876308 q -0.6947,0 -0.9262,-0.540306 -0.1544,-0.617492 0.3859,-1.003425 l 22.6929,-17.98446 h 10.343 l 23.0015,17.98446 q 0.5403,0.385933 0.3088,1.003425 -0.1544,0.540306 -0.7719,0.540306 h -13.0445 l -15.3601,-8.258959 q -3.3962,2.084037 -6.8696,4.168073 -3.4734,2.084036 -6.8696,4.090886 z m -13.662,65.299802 q 0,-10.11144 0.2316,-16.51792 0.3087,-6.40648 0.7718,-9.339568 0.5403,-2.933088 1.5438,-5.634617 1.0034,-2.701528 2.4699,-5.32587 h -0.077 q 4.0137,-7.487093 12.9673,-13.893574 9.0308,-6.483668 22.4613,-6.483668 13.276,0 22.3069,6.483668 9.108,6.560854 13.1217,13.893574 2.8559,5.248684 3.8593,10.960487 0.5403,2.933088 0.7719,9.339568 0.3087,6.40648 0.3087,16.51792 0,19.83693 -1.0806,25.93467 -0.5403,3.01027 -1.5437,5.7118 -0.9263,2.70153 -2.2384,5.1715 -4.0909,7.40991 -13.1989,13.89357 -9.108,6.40649 -22.3069,6.40649 -13.3533,0 -22.4613,-6.40649 -8.9536,-6.32929 -12.9673,-13.89357 h 0.077 q -1.4665,-2.62434 -2.4699,-5.24868 -1.0035,-2.70153 -1.5438,-5.63462 -0.4631,-2.93309 -0.7718,-9.33957 -0.2316,-6.48367 -0.2316,-16.5951 z m 18.602,0 q 0,8.41333 0.2315,13.89357 0.2316,5.40306 0.8491,8.0274 0.6175,2.39278 1.6981,4.78557 1.1578,2.31559 2.5471,4.09088 2.47,3.24184 6.5609,5.55743 4.0909,2.23841 9.8799,2.23841 5.7118,0 9.8027,-2.23841 4.0908,-2.31559 6.4836,-5.55743 3.2419,-3.93651 4.2453,-8.87645 1.235,-4.93994 1.235,-21.92097 0,-8.41333 -0.3088,-13.81639 -0.3087,-5.480244 -0.9262,-8.027399 -0.5403,-2.469969 -1.6209,-4.785564 -1.0806,-2.392783 -2.5472,-4.245259 -1.1578,-1.466544 -2.8559,-2.855902 -1.6209,-1.389357 -3.7049,-2.392782 -2.0841,-1.080611 -4.5541,-1.698104 -2.4699,-0.694678 -5.2486,-0.694678 -5.789,0 -9.8799,2.315595 -4.0909,2.315596 -6.5609,5.325871 -1.4665,1.852476 -2.5471,4.245259 -1.0806,2.315595 -1.6981,4.785564 -0.6175,2.624342 -0.8491,8.104589 -0.2315,5.48024 -0.2315,13.7392 z m 37.2811,-78.344325 q -0.6175,0 -0.8491,-0.385933 -0.1544,-0.463119 0.077,-1.003425 l 16.132,-22.538465 q 0.3087,-0.463119 0.7718,-0.463119 h 16.9811 q 0.6175,0 0.849,0.540306 0.3088,0.540305 -0.1543,1.003424 l -21.3035,22.538466 q -0.077,0.07719 -0.3088,0.231559 -0.2315,0.07719 -0.3859,0.07719 z"
               id="path13044"
               style="fill:#ffffff" /><path
               d="m 2648.2359,174.29414 q -0.9262,0 -0.9262,-0.92624 V 62.759608 q 0,-0.926239 0.9262,-0.926239 h 15.9005 q 0.4631,0 0.7718,0.463119 l 48.6275,76.569032 V 62.759608 q 0,-0.926239 0.9263,-0.926239 h 16.8266 q 0.9263,0 0.9263,0.926239 V 173.3679 q 0,0.92624 -0.9263,0.92624 h -15.8232 q -0.4631,0 -0.7719,-0.46312 L 2665.9116,97.261984 V 173.3679 q 0,0.92624 -0.849,0.92624 z"
               id="path13046"
               style="fill:#ffffff" /><path
               d="m 2792.1941,129.29439 q -0.9263,0 -0.9263,-0.92624 v -15.90042 q 0,-0.84905 0.9263,-0.84905 h 39.2879 q 0.9262,0 0.9262,0.84905 v 22.53846 q 0,17.05823 -11.7323,28.55902 -11.8867,11.65516 -28.6362,11.65516 -13.3533,0 -22.4613,-6.40648 -8.9536,-6.32929 -12.9673,-13.89357 h 0.077 q -1.4666,-2.62434 -2.47,-5.24869 -1.0034,-2.70152 -1.5437,-5.63461 -0.4632,-2.93309 -0.7719,-9.33957 -0.2316,-6.48367 -0.2316,-16.5951 0,-10.11144 0.2316,-16.51792 0.3087,-6.406482 0.7719,-9.33957 0.5403,-2.933088 1.5437,-5.634616 1.0034,-2.701529 2.47,-5.32587 h -0.077 q 4.0137,-7.487093 12.9673,-13.893575 9.0308,-6.483668 22.4613,-6.483668 16.0548,0 26.5522,9.879875 10.6517,9.879875 13.1989,23.619077 0.1543,0.463119 -0.1544,0.771865 -0.3088,0.308746 -0.7719,0.308746 h -17.6757 q -0.6947,0 -0.849,-0.617492 -1.0035,-3.087461 -2.856,-5.711803 -1.8524,-2.701528 -4.554,-5.017124 -5.0943,-4.554005 -12.8901,-4.554005 -5.789,0 -9.8799,2.315596 -4.0909,2.315595 -6.5608,5.32587 -1.4666,1.852477 -2.5472,4.245259 -1.0806,2.315596 -1.6981,4.785564 -0.6175,2.624342 -0.849,8.104581 -0.2316,5.48025 -0.2316,13.73921 0,8.41333 0.2316,13.89357 0.2315,5.40306 0.849,8.0274 0.6175,2.39278 1.6981,4.78556 1.1578,2.3156 2.5472,4.09089 2.4699,3.24183 6.5608,5.55743 4.0909,2.23841 9.8799,2.23841 9.1852,0 15.4373,-6.25211 6.3293,-6.25211 6.3293,-16.36354 v -4.78557 z"
               id="path13048"
               style="fill:#ffffff" /></g></g></g></g></g></svg>
