<?xml version="1.0" encoding="UTF-8" standalone="no"?>
<svg
   xmlns:dc="http://purl.org/dc/elements/1.1/"
   xmlns:cc="http://creativecommons.org/ns#"
   xmlns:rdf="http://www.w3.org/1999/02/22-rdf-syntax-ns#"
   xmlns:svg="http://www.w3.org/2000/svg"
   xmlns="http://www.w3.org/2000/svg"
   xmlns:sodipodi="http://sodipodi.sourceforge.net/DTD/sodipodi-0.dtd"
   xmlns:inkscape="http://www.inkscape.org/namespaces/inkscape"
   width="323.73849mm"
   height="200.36485mm"
   viewBox="0 0 323.7385 200.36485"
   version="1.1"
   id="svg9491"
   inkscape:version="1.0 (4035a4fb49, 2020-05-01)"
   sodipodi:docname="Vietnam_road_sign_IE453b.svg">
  <defs
     id="defs9485">
    <clipPath
       id="clipPath2832">
      <path
         d="M -0.24,595.138 H 317.24 V -0.138 H -0.24 Z"
         id="path2834"
         inkscape:connector-curvature="0" />
    </clipPath>
    <clipPath
       id="clipPath2840">
      <path
         d="M 0.03,595.32 H 317.49 V 0 H 0.03 Z"
         id="path2842"
         inkscape:connector-curvature="0" />
    </clipPath>
    <clipPath
       id="clipPath2858">
      <path
         d="M -0.24,595.138 H 317.24 V -0.138 H -0.24 Z"
         id="path2860"
         inkscape:connector-curvature="0" />
    </clipPath>
    <clipPath
       id="clipPath2864">
      <path
         d="M 0.03,595.32 H 317.49 V 0 H 0.03 Z"
         id="path2866"
         inkscape:connector-curvature="0" />
    </clipPath>
    <clipPath
       id="clipPath3306">
      <path
         d="m 199.238,472.977 v -29.74 h 29.744 v 29.74"
         id="path3308"
         inkscape:connector-curvature="0" />
    </clipPath>
    <clipPath
       id="clipPath3322">
      <path
         d="M -0.24,595.138 H 317.24 V -0.138 H -0.24 Z"
         id="path3324"
         inkscape:connector-curvature="0" />
    </clipPath>
    <clipPath
       id="clipPath3330">
      <path
         d="M 0.03,595.32 H 317.49 V 0 H 0.03 Z"
         id="path3332"
         inkscape:connector-curvature="0" />
    </clipPath>
    <clipPath
       id="clipPath3344">
      <path
         d="m 88.233,387.221 v -28.335 h 32.08 v 28.335"
         id="path3346"
         inkscape:connector-curvature="0" />
    </clipPath>
    <clipPath
       id="clipPath3462">
      <path
         d="M -0.24,595.138 H 317.24 V -0.138 H -0.24 Z"
         id="path3464"
         inkscape:connector-curvature="0" />
    </clipPath>
    <clipPath
       id="clipPath3470">
      <path
         d="M 0.03,595.32 H 317.49 V 0 H 0.03 Z"
         id="path3472"
         inkscape:connector-curvature="0" />
    </clipPath>
    <clipPath
       id="clipPath3490">
      <path
         d="M -0.24,595.138 H 317.24 V -0.138 H -0.24 Z"
         id="path3492"
         inkscape:connector-curvature="0" />
    </clipPath>
    <clipPath
       id="clipPath3496">
      <path
         d="M 0.03,595.32 H 317.49 V 0 H 0.03 Z"
         id="path3498"
         inkscape:connector-curvature="0" />
    </clipPath>
    <clipPath
       id="clipPath3520">
      <path
         d="m 254.788,326.215 v -28.309 h 28.326 v 28.309"
         id="path3522"
         inkscape:connector-curvature="0" />
    </clipPath>
    <clipPath
       id="clipPath3544">
      <path
         d="m 145.049,326.142 v -28.333 h 28.342 v 28.333"
         id="path3546"
         inkscape:connector-curvature="0" />
    </clipPath>
    <clipPath
       id="clipPath3682">
      <path
         d="M -0.24,595.138 H 317.24 V -0.138 H -0.24 Z"
         id="path3684"
         inkscape:connector-curvature="0" />
    </clipPath>
    <clipPath
       id="clipPath3690">
      <path
         d="M 0.03,595.32 H 317.49 V 0 H 0.03 Z"
         id="path3692"
         inkscape:connector-curvature="0" />
    </clipPath>
    <clipPath
       id="clipPath3980">
      <path
         d="M -0.24,595.138 H 317.24 V -0.138 H -0.24 Z"
         id="path3982"
         inkscape:connector-curvature="0" />
    </clipPath>
    <clipPath
       id="clipPath3988">
      <path
         d="M 0.03,595.32 H 317.49 V 0 H 0.03 Z"
         id="path3990"
         inkscape:connector-curvature="0" />
    </clipPath>
    <clipPath
       id="clipPath4010">
      <path
         d="M -0.24,595.138 H 317.24 V -0.138 H -0.24 Z"
         id="path4012"
         inkscape:connector-curvature="0" />
    </clipPath>
    <clipPath
       id="clipPath4016">
      <path
         d="M 0.03,595.32 H 317.49 V 0 H 0.03 Z"
         id="path4018"
         inkscape:connector-curvature="0" />
    </clipPath>
    <clipPath
       id="clipPath4062">
      <path
         d="m 200.163,177.773 v -28.284 h 28.283 v 28.284"
         id="path4064"
         inkscape:connector-curvature="0" />
    </clipPath>
    <clipPath
       id="clipPath4090">
      <path
         d="m 34.886,177.515 v -51.632 h 30.367 v 51.632"
         id="path4092"
         inkscape:connector-curvature="0" />
    </clipPath>
    <clipPath
       id="clipPath4106">
      <path
         d="m 34.886,177.515 v -51.632 h 30.367 v 51.632"
         id="path4108"
         inkscape:connector-curvature="0" />
    </clipPath>
    <clipPath
       id="clipPath4272">
      <path
         d="m 34.886,177.515 v -51.632 h 30.367 v 51.632"
         id="path4274"
         inkscape:connector-curvature="0" />
    </clipPath>
    <clipPath
       id="clipPath4304">
      <path
         d="m 254.653,176.442 v -48.167 h 28.317 v 48.167"
         id="path4306"
         inkscape:connector-curvature="0" />
    </clipPath>
    <clipPath
       id="clipPath4310">
      <path
         d="m 253.565,177.983 h 31.181 V 128.8 h -31.181 z"
         id="path4312"
         inkscape:connector-curvature="0" />
    </clipPath>
    <clipPath
       id="clipPath4316">
      <path
         d="M -0.24,595.138 H 317.24 V -0.138 H -0.24 Z"
         id="path4318"
         inkscape:connector-curvature="0" />
    </clipPath>
    <clipPath
       id="clipPath4322">
      <path
         d="M 0.03,595.32 H 317.49 V 0 H 0.03 Z"
         id="path4324"
         inkscape:connector-curvature="0" />
    </clipPath>
    <clipPath
       id="clipPath4456">
      <path
         d="M -0.24,595.138 H 317.24 V -0.138 H -0.24 Z"
         id="path4458"
         inkscape:connector-curvature="0" />
    </clipPath>
    <clipPath
       id="clipPath4464">
      <path
         d="M 0.03,595.32 H 317.49 V 0 H 0.03 Z"
         id="path4466"
         inkscape:connector-curvature="0" />
    </clipPath>
  </defs>
  <sodipodi:namedview
     id="base"
     pagecolor="#ffffff"
     bordercolor="#666666"
     borderopacity="1.0"
     inkscape:pageopacity="0.0"
     inkscape:pageshadow="2"
     inkscape:zoom="1.0596562"
     inkscape:cx="353.43649"
     inkscape:cy="270.12558"
     inkscape:document-units="mm"
     inkscape:current-layer="layer1"
     showgrid="false"
     inkscape:window-width="1920"
     inkscape:window-height="1001"
     inkscape:window-x="-9"
     inkscape:window-y="-9"
     inkscape:window-maximized="1"
     inkscape:measure-start="0,0"
     inkscape:measure-end="0,0"
     inkscape:document-rotation="0" />
  <metadata
     id="metadata9488">
    <rdf:RDF>
      <cc:Work
         rdf:about="">
        <dc:format>image/svg+xml</dc:format>
        <dc:type
           rdf:resource="http://purl.org/dc/dcmitype/StillImage" />
        <dc:title></dc:title>
      </cc:Work>
    </rdf:RDF>
  </metadata>
  <g
     inkscape:label="Layer 1"
     inkscape:groupmode="layer"
     id="layer1"
     transform="translate(24.015624,-22.939143)">
    <g
       aria-label="6"
       id="text19759"
       style="font-size:31.1478px;line-height:1.3;font-family:'Singapore Road Signs';-inkscape-font-specification:'Singapore Road Signs';text-align:center;text-anchor:middle;stroke-width:0.159861"
       transform="matrix(1.6550836,0,0,1.6550836,-321.31659,-238.56049)" />
    <path
       id="path13073"
       d="m 193.86815,167.84531 c -0.84295,1.97428 -2.22939,2.81167 -3.62693,2.81167 -0.83184,0 -1.39195,-0.27728 -1.94655,-0.56011 -0.28292,-0.27728 -0.84295,-0.57678 -1.12578,-0.85406 0,-0.28291 -0.29942,-0.56011 -0.29942,-0.83739 -0.27728,-0.27728 -0.27728,-0.56011 -0.27728,-0.83743 -0.28291,-0.27728 -0.28291,-0.83739 -0.28291,-1.39195 0,-0.83744 0,-1.39755 0,-2.53444 0,-1.11467 0,-1.9521 0,-2.50666 0,-0.56012 0,-1.11472 0.28291,-1.392 0,-0.28291 0,-0.56011 0.27728,-0.83739 0,-0.27728 0.29942,-0.58233 0.29942,-0.85961 0.28291,-0.27728 0.84294,-0.56011 1.12578,-0.83739 0.5546,-0.27728 1.11471,-0.5546 1.94655,-0.5546 0.83743,0 1.66927,0.27728 2.22938,0.83188 0.28292,0.28291 0.5546,0.56011 0.83744,0.83739 0.28854,0.30505 0.28854,0.85961 0.56011,1.13689 3.37183,0 3.37183,0 3.37183,0 -0.28292,-1.69145 -1.11472,-3.08899 -2.25712,-4.20367 -1.38644,-1.39199 -2.78954,-1.94655 -4.74164,-1.94655 -1.67479,0 -3.07233,0.55456 -4.20367,1.11467 -0.84294,0.83188 -1.67482,1.66928 -2.22938,2.50671 -0.28855,0.27728 -0.28855,0.83739 -0.28855,1.11467 -0.27165,0.27728 -0.27165,0.58229 -0.27165,0.85961 -0.28291,0.55456 -0.28291,1.11467 -0.28291,1.66927 0,0.8374 0,1.95211 0,3.06678 0,2.53444 0,3.92639 0.28291,4.76382 0,0.27728 0,0.55456 0.27165,0.83739 0,0.27728 0,0.57678 0.28855,1.13689 0.55456,0.83184 1.38644,1.66927 2.22938,2.22939 1.13134,0.83188 2.52888,1.39199 4.20367,1.39199 0.83743,0 1.66927,-0.27728 2.51226,-0.56011 0.55456,-0.27728 1.3975,-0.5546 1.95762,-1.11472 1.41416,-0.83188 2.24604,-2.50666 2.52888,-4.19815 0,0 0,-0.28291 0,-0.28291 z m -22.08873,-16.23242 c 3.90976,-3.90421 3.90976,-3.90421 3.90976,-3.90421 0,0 0,-0.27728 0,-0.27728 -3.07233,0 -3.07233,0 -3.07233,0 -0.27165,0 -0.27165,0 -0.27165,0 -2.79505,4.18149 -2.79505,4.18149 -2.79505,4.18149 z m -6.43306,15.11771 c 0,2.22938 0.83188,3.92638 2.22939,5.31837 1.39755,1.11472 3.08899,1.95211 5.0411,1.95211 1.95766,0 3.63244,-0.83739 5.02999,-1.95211 1.41417,-1.39199 2.24601,-3.08899 2.24601,-5.31837 0,-13.14343 0,-13.14343 0,-13.14343 0,0 0,0 -0.27165,0 -3.10006,0 -3.10006,0 -3.10006,0 0,12.86615 0,12.86615 0,12.86615 0,1.39199 -0.27164,2.22938 -1.11471,3.06677 -0.83184,0.57678 -1.66927,1.13689 -2.7895,1.13689 -1.11471,0 -1.95211,-0.56011 -2.78399,-1.13689 -0.85956,-0.56011 -1.1424,-1.67478 -1.1424,-3.06677 0,-12.86615 0,-12.86615 0,-12.86615 -3.07237,0 -3.07237,0 -3.07237,0 -0.27164,0 -0.27164,0 -0.27164,0 z m -3.90421,6.9932 c 0,0 0.27165,0 0.27165,-0.28291 0,-19.8538 0,-19.8538 0,-19.8538 0,0 -0.27165,0 -0.27165,0 -3.10006,0 -3.10006,0 -3.10006,0 0,8.38516 0,8.38516 0,8.38516 -7.54776,0 -7.54776,0 -7.54776,0 0,-8.38516 0,-8.38516 0,-8.38516 0,0 0,0 -0.28292,0 -3.07233,0 -3.07233,0 -3.07233,0 0,19.8538 0,19.8538 0,19.8538 0,0.28291 0,0.28291 0,0.28291 3.07233,0 3.07233,0 3.07233,0 0.28292,0 0.28292,0 0.28292,-0.28291 0,-8.37965 0,-8.37965 0,-8.37965 7.54776,0 7.54776,0 7.54776,0 0,8.37965 0,8.37965 0,8.37965 0,0.28291 0,0.28291 0,0.28291 z m -21.56186,0 c 0,0 0,0 0,-0.28291 0,-16.78702 0,-16.78702 0,-16.78702 5.32945,0 5.32945,0 5.32945,0 0,0 0.28291,-0.28291 0.28291,-0.28291 0,-2.78395 0,-2.78395 0,-2.78395 0,0 -0.28291,0 -0.28291,0 -13.99189,0 -13.99189,0 -13.99189,0 0,2.78395 0,2.78395 0,2.78395 0,0 0,0.28291 0,0.28291 5.31834,0 5.31834,0 5.31834,0 0,16.78702 0,16.78702 0,16.78702 0,0.28291 0,0.28291 0.28292,0.28291 z m -21.24579,0 c 0.28292,0 0.28292,0 0.28292,-0.28291 0,-16.78702 0,-16.78702 0,-16.78702 5.30175,0 5.30175,0 5.30175,0 0,0 0,-0.28291 0,-0.28291 0,-2.78395 0,-2.78395 0,-2.78395 -13.9753,0 -13.9753,0 -13.9753,0 0,2.78395 0,2.78395 0,2.78395 0,0 0,0.28291 0,0.28291 5.30176,0 5.30176,0 5.30176,0 0,16.78702 0,16.78702 0,16.78702 0,0.28291 0,0.28291 0.28291,0.28291 z m -10.62009,-24.06301 c 3.90421,-3.92639 3.90421,-3.92639 3.90421,-3.92639 0,-0.27728 0,-0.27728 0,-0.27728 -3.06123,0 -3.06123,0 -3.06123,0 0,0 -0.28855,0 -0.28855,0 -2.81171,3.92639 -2.81171,3.92639 -2.81171,3.92639 0,0.27728 0,0.27728 0,0.27728 z m -7.8306,1.9521 c 0.5546,0 0.83188,-0.28291 1.38644,-0.56011 0.28291,-0.27728 0.84294,-0.5546 1.11471,-0.83743 2.79505,1.39754 2.79505,1.39754 2.79505,1.39754 2.25156,0 2.25156,0 2.25156,0 0.28292,0 0.28292,0 0.28292,0 0,0 0,0 0,-0.28291 -4.20367,-3.06127 -4.20367,-3.06127 -4.20367,-3.06127 -1.95766,0 -1.95766,0 -1.95766,0 -3.931928,3.06127 -3.931928,3.06127 -3.931928,3.06127 -0.271643,0.28291 -0.271643,0.28291 -0.271643,0.28291 0.271643,0 0.271643,0 0.271643,0 z m 9.22814,22.11091 c 0,0 0,0 0,-0.28291 0,-2.78399 0,-2.78399 0,-2.78399 -9.510977,0 -9.510977,0 -9.510977,0 0,-5.59566 0,-5.59566 0,-5.59566 7.830597,0 7.830597,0 7.830597,0 0.28292,0 0.28292,0 0.28292,-0.28291 0,-2.52888 0,-2.52888 0,-2.52888 0,-0.27728 0,-0.27728 -0.28292,-0.27728 -7.830597,0 -7.830597,0 -7.830597,0 0,-5.31834 0,-5.31834 0,-5.31834 9.510977,0 9.510977,0 9.510977,0 0,-3.06682 0,-3.06682 0,-3.06682 -12.888308,0 -12.888308,0 -12.888308,0 0,19.8538 0,19.8538 0,19.8538 0,0.28291 0,0.28291 0,0.28291 z m -27.689932,0 c 0.282914,0 0.282914,0 0.282914,-0.28291 0,-5.87298 0,-5.87298 0,-5.87298 0.554599,-0.56012 1.114713,-1.11468 1.669272,-1.67479 0.27728,-0.5546 0.83188,-1.11471 1.391993,-1.66927 5.329446,9.49987 5.329446,9.49987 5.329446,9.49987 0.271645,0 0.271645,0 0.271645,0 3.626892,0 3.626892,0 3.626892,0 0,-0.28291 0,-0.28291 0,-0.28291 -1.114672,-1.94656 -2.229385,-3.92084 -3.344058,-5.87298 -1.114713,-1.95207 -2.52888,-3.92639 -3.643553,-6.15577 6.433052,-7.54773 6.433052,-7.54773 6.433052,-7.54773 0,0 0,-0.27728 0,-0.27728 0,0 0,0 -0.27728,0 -3.349652,0 -3.349652,0 -3.349652,0 -0.27728,0 -0.27728,0 -0.27728,0 -1.414167,1.66927 -2.52884,3.34406 -3.93194,5.04106 -1.397506,1.66927 -2.783945,3.3441 -3.898658,5.01337 0,-10.05443 0,-10.05443 0,-10.05443 0,0 0,0 -0.282914,0 -3.088993,0 -3.088993,0 -3.088993,0 0,19.85376 0,19.85376 0,19.85376 0,0.28291 0,0.28291 0,0.28291 z m 0,0"
       style="fill:#ffffff;fill-opacity:1;fill-rule:nonzero;stroke:none;stroke-width:0.352777" />
    <path
       id="path13075"
       d="m 150.51149,191.631 c 1.14241,0 1.97428,0.27728 2.5344,1.13689 0.55456,0.55456 0.55456,0.83739 0.55456,1.39199 0.28291,0.28292 0.28291,0.56012 0.28291,1.11468 0,0.56011 0,1.11471 0,1.67482 0,0.83743 0,1.41417 0,1.97428 0,0.27728 0,0.55456 -0.28291,0.83743 0,0.55456 0,0.83184 -0.27165,1.39196 -0.56011,0.83739 -1.67482,1.11471 -2.81723,1.11471 -2.78949,0 -2.78949,0 -2.78949,0 0,-10.63676 0,-10.63676 0,-10.63676 z m 0,13.16564 c 1.14241,0 2.25712,-0.27728 3.08896,-0.83188 0.84298,-0.58233 1.39754,-1.14244 1.95766,-1.697 0.27164,-0.27728 0.27164,-0.56011 0.5546,-0.83743 0,-0.27728 0,-0.55456 0,-1.11468 0.28291,-0.55456 0.28291,-1.66927 0.28291,-3.36627 0,-1.67482 0,-2.7895 0,-3.3441 0,-0.28291 -0.28291,-0.56011 -0.28291,-0.83739 -0.28292,-0.27728 -0.28292,-0.58233 -0.5546,-1.13689 -1.11468,-1.67482 -2.51222,-2.50666 -4.76378,-2.50666 -5.30176,0 -5.30176,0 -5.30176,0 -0.28291,0 -0.28291,0 -0.28291,0 0,15.39498 0,15.39498 0,15.39498 0,0.27728 0,0.27728 0.28291,0.27728 z m -17.90168,0 c 0,0 0,0 0,-0.27728 0,-10.63676 0,-10.63676 0,-10.63676 6.99875,10.91404 6.99875,10.91404 6.99875,10.91404 2.22935,0 2.22935,0 2.22935,0 0,0 0.28291,0 0.28291,-0.27728 0,-15.39498 0,-15.39498 0,-15.39498 0,0 -0.28291,0 -0.28291,0 -2.22935,0 -2.22935,0 -2.22935,0 -0.28291,0 -0.28291,0 -0.28291,0 0,10.63676 0,10.63676 0,10.63676 -6.71588,-10.63676 -6.71588,-10.63676 -6.71588,-10.63676 -2.22939,0 -2.22939,0 -2.22939,0 -0.27728,0 -0.27728,0 -0.27728,0 0,15.39498 0,15.39498 0,15.39498 0,0.27728 0,0.27728 0.27728,0.27728 z m -4.74716,0 c 0,0 0.28291,0 0.28291,-0.27728 0,-1.97428 0,-1.97428 0,-1.97428 0,-0.27728 -0.28291,-0.27728 -0.28291,-0.27728 -7.27049,0 -7.27049,0 -7.27049,0 0,-4.18153 0,-4.18153 0,-4.18153 6.15581,0 6.15581,0 6.15581,0 0,0 0.28292,0 0.28292,-0.29942 0,-1.9521 0,-1.9521 0,-1.9521 0,0 -0.28292,-0.27728 -0.28292,-0.27728 -6.15581,0 -6.15581,0 -6.15581,0 0,-3.92639 0,-3.92639 0,-3.92639 7.27049,0 7.27049,0 7.27049,0 0,0 0.28291,0 0.28291,-0.27728 0,-2.22938 0,-2.22938 0,-2.22938 0,0 -0.28291,0 -0.28291,0 -9.78826,0 -9.78826,0 -9.78826,0 0,0 -0.27165,0 -0.27165,0 0,15.39498 0,15.39498 0,15.39498 0,0.27728 0.27165,0.27728 0.27165,0.27728 z m 0,0"
       style="fill:#ffffff;fill-opacity:1;fill-rule:nonzero;stroke:none;stroke-width:0.352777" />
    <path
       id="path2232"
       style="font-size:15.1831px;line-height:1.46;font-family:'Singapore Road Signs';-inkscape-font-specification:'Singapore Road Signs';text-align:center;text-anchor:middle;opacity:1;fill:#0a9646;fill-opacity:1;fill-rule:evenodd;stroke-width:0.0420689;stroke-linecap:square;stroke-miterlimit:10;paint-order:stroke fill markers"
       d="M -24.015624,22.939143 H 299.72286 V 223.304 H -24.015624 Z" />
    <g
       style="font-size:19.8994px;line-height:1.3;font-family:'Singapore Road Signs';-inkscape-font-specification:'Singapore Road Signs';text-align:center;text-anchor:middle;opacity:1;fill:#ffffff;fill-opacity:1;stroke-width:0.139787"
       id="g2158"
       aria-label="KET THUC"
       transform="matrix(1.4196307,0,0,1.4195014,-53.020933,-477.7761)">
      <path
         id="path2156"
         style="font-style:normal;font-variant:normal;font-weight:normal;font-stretch:normal;font-family:'Alte DIN 1451 Mittelschrift gepraegt';-inkscape-font-specification:'Alte DIN 1451 Mittelschrift gepraegt';fill:#ffffff;fill-opacity:1;stroke-width:0.139787"
         d="m 176.11147,454.77117 q 0.0583,0 0.0972,0.0486 0.0389,0.0389 0.0194,0.0972 -0.40809,1.98217 -1.80727,3.05098 -0.68015,0.51498 -1.47691,0.77733 -0.79675,0.26234 -1.71982,0.26234 -1.68095,0 -2.8275,-0.80647 -1.12711,-0.79675 -1.63237,-1.74897 -0.1749,-0.33036 -0.30121,-0.66072 -0.12632,-0.34008 -0.19433,-0.70931 -0.12632,-0.71902 -0.12632,-3.26474 0,-1.27286 0.0292,-2.07933 0.0291,-0.80647 0.0972,-1.1757 0.068,-0.36923 0.19433,-0.70931 0.12631,-0.34007 0.30121,-0.67044 0.50526,-0.9425 1.63237,-1.74897 1.13683,-0.81618 2.8275,-0.81618 2.02104,0 3.34248,1.24371 1.34088,1.25343 1.66152,2.97325 0.0194,0.0583 -0.0194,0.0972 -0.0389,0.0389 -0.0972,0.0389 h -2.22508 q -0.0874,0 -0.10688,-0.0777 -0.12631,-0.38866 -0.35951,-0.71902 -0.23319,-0.34008 -0.57327,-0.63157 -0.64129,-0.57328 -1.62266,-0.57328 -0.72874,0 -1.24371,0.2915 -0.51497,0.29149 -0.8259,0.67044 -0.18462,0.23319 -0.32065,0.5344 -0.13603,0.2915 -0.21376,0.60243 -0.0777,0.33036 -0.10688,1.02023 -0.0292,0.68987 -0.0292,1.72954 0,1.0591 0.0292,1.74897 0.0291,0.68015 0.10688,1.01051 0.0777,0.30122 0.21376,0.60243 0.14575,0.29149 0.32065,0.51497 0.31093,0.4081 0.8259,0.69959 0.51497,0.28178 1.24371,0.28178 1.68096,0 2.55544,-1.83642 0.0194,-0.0194 0.0486,-0.0389 0.0291,-0.0292 0.0583,-0.0292 z m -22.30909,-9.92055 q 0,-0.11659 0.1166,-0.11659 h 2.1182 q 0.10688,0 0.10688,0.11659 v 8.97805 q 0,1.39918 0.77732,2.1182 0.78704,0.72874 1.95302,0.72874 1.14654,0 1.93358,-0.72874 0.78704,-0.72874 0.78704,-2.1182 v -8.97805 q 0,-0.11659 0.1166,-0.11659 h 2.10848 q 0.1166,0 0.1166,0.11659 v 9.21125 q 0,2.2348 -1.48663,3.59511 -1.46719,1.35059 -3.57567,1.35059 -2.1182,0 -3.59511,-1.35059 -1.47691,-1.36031 -1.47691,-3.59511 z m -4.89712,14.04035 q -0.1166,0 -0.1166,-0.1166 v -5.96593 h -5.29549 v 5.96593 q 0,0.1166 -0.1166,0.1166 h -2.10848 q -0.1166,0 -0.1166,-0.1166 v -13.92375 q 0,-0.11659 0.1166,-0.11659 h 2.10848 q 0.1166,0 0.1166,0.11659 v 5.84934 h 5.29549 v -5.84934 q 0,-0.11659 0.1166,-0.11659 h 2.10848 q 0.1166,0 0.1166,0.11659 v 13.92375 q 0,0.1166 -0.1166,0.1166 z m -15.22576,0 q -0.1166,0 -0.1166,-0.1166 v -11.93186 h -3.70199 q -0.11659,0 -0.11659,-0.1166 v -1.87529 q 0,-0.11659 0.11659,-0.11659 h 9.73594 q 0.1166,0 0.1166,0.11659 v 1.87529 q 0,0.1166 -0.1166,0.1166 h -3.69227 v 11.93186 q 0,0.1166 -0.1166,0.1166 z m -14.73022,0 q -0.1166,0 -0.1166,-0.1166 v -11.93186 h -3.70199 q -0.11659,0 -0.11659,-0.1166 v -1.87529 q 0,-0.11659 0.11659,-0.11659 h 9.73594 q 0.1166,0 0.1166,0.11659 v 1.87529 q 0,0.1166 -0.1166,0.1166 h -3.69227 v 11.93186 q 0,0.1166 -0.1166,0.1166 z m -13.43793,0 q -0.11659,0 -0.11659,-0.1166 v -13.92375 q 0,-0.11659 0.11659,-0.11659 h 8.90032 q 0.1166,0 0.1166,0.11659 v 2.0016 q 0,0.1166 -0.1166,0.1166 h -6.67524 v 3.73114 h 5.67444 q 0.1166,0 0.1166,0.1166 v 1.885 q 0,0.10688 -0.1166,0.10688 h -5.67444 v 3.86717 h 6.67524 q 0.1166,0 0.1166,0.1166 v 1.98216 q 0,0.1166 -0.1166,0.1166 z m -12.553719,0 q -0.106882,0 -0.106882,-0.1166 v -13.92375 q 0,-0.11659 0.106882,-0.11659 h 2.118198 q 0.116598,0 0.116598,0.11659 v 6.91815 q 1.38946,-1.75868 2.77892,-3.48822 1.38946,-1.73925 2.788633,-3.49794 0.0486,-0.0486 0.0875,-0.0486 h 2.50686 q 0.0777,0 0.10688,0.068 0.0292,0.068 -0.0194,0.12632 l -4.411294,5.43152 q 1.233994,2.10848 2.438844,4.1781 1.21456,2.06961 2.45827,4.1781 0.0292,0.068 0,0.12631 -0.0194,0.0486 -0.0972,0.0486 h -2.50686 q -0.0583,0 -0.0972,-0.0583 l -3.731142,-6.66552 q -0.602423,0.62186 -1.156264,1.20485 -0.55384,0.58299 -1.146547,1.20484 v 4.19753 q 0,0.1166 -0.116598,0.1166 z m 63.961399,-15.5732 c -0.0519,0 -0.0875,-0.0162 -0.10682,-0.0485 -0.0131,-0.0389 -0.0105,-0.081 0.008,-0.12646 l 2.03201,-2.83897 c 0.0259,-0.0389 0.0584,-0.0583 0.0973,-0.0583 h 2.13897 c 0.0519,0 0.0875,0.0227 0.10683,0.068 0.0259,0.0453 0.0194,0.0875 -0.0197,0.12647 l -2.68341,2.83896 c -0.005,0.005 -0.0183,0.0151 -0.0389,0.0293 -0.0195,0.005 -0.0357,0.008 -0.0485,0.008 z m -50.51077,0.0319 c -0.0584,0 -0.0941,-0.0259 -0.10706,-0.0778 -0.013,-0.0519 0,-0.094 0.039,-0.12654 l 2.86179,-2.26802 h 1.31409 l 2.90073,2.26802 c 0.0454,0.0325 0.0584,0.0746 0.039,0.12654 -0.013,0.0519 -0.0487,0.0778 -0.10705,0.0778 h -1.63532 l -1.9468,-1.05127 c -0.28553,0.17521 -0.5743,0.35043 -0.86632,0.52564 -0.29202,0.17521 -0.58079,0.35042 -0.86632,0.52563 z m 5.57758,-1.42116 c -0.0519,0 -0.0875,-0.0162 -0.10706,-0.0487 -0.013,-0.0389 -0.01,-0.0811 0.01,-0.12654 l 2.03442,-2.84234 c 0.026,-0.0389 0.0584,-0.0583 0.0973,-0.0583 h 2.14148 c 0.0519,0 0.0875,0.0227 0.10705,0.0682 0.026,0.0454 0.0195,0.0876 -0.0195,0.12654 l -2.68659,2.84232 c -0.007,0.007 -0.0197,0.0164 -0.039,0.0292 -0.0195,0.007 -0.0357,0.01 -0.0487,0.01 z m 27.75267,38.78499 q -0.091,0 -0.091,-0.091 v -10.86427 q 0,-0.091 0.091,-0.091 h 3.80581 q 2.27438,0 3.38125,1.87263 0.2047,0.36391 0.33358,0.68992 0.12888,0.32599 0.17437,0.63684 0.091,0.60652 0.091,2.32752 0,1.8423 -0.12888,2.47156 -0.0606,0.31843 -0.18195,0.62168 -0.1213,0.29568 -0.31842,0.59136 v -0.008 q -0.49278,0.78089 -1.36463,1.31159 -0.88701,0.53071 -2.09244,0.53071 z m 1.73611,-9.30249 v 7.57391 h 1.88774 q 1.30399,0 1.94082,-0.90978 0.25018,-0.40182 0.31842,-0.84155 0.0379,-0.24261 0.0531,-0.72781 0.0227,-0.4928 0.0227,-1.25096 0,-0.7354 -0.0227,-1.2282 -0.0227,-0.49279 -0.0606,-0.78089 -0.0758,-0.5307 -0.38665,-0.96285 -0.64441,-0.87187 -1.865,-0.87187 z m -12.34993,9.30249 q -0.091,0 -0.091,-0.091 v -10.86427 q 0,-0.091 0.091,-0.091 h 1.56174 q 0.0455,0 0.0758,0.0455 l 4.77622,7.52083 v -7.47534 q 0,-0.091 0.091,-0.091 h 1.65272 q 0.091,0 0.091,0.091 v 10.86427 q 0,0.091 -0.091,0.091 H 135.728 q -0.0455,0 -0.0758,-0.0455 l -4.79138,-7.52084 v 7.47535 q 0,0.091 -0.0834,0.091 z m -8.64268,0 q -0.091,0 -0.091,-0.091 v -10.86427 q 0,-0.091 0.091,-0.091 h 6.94447 q 0.091,0 0.091,0.091 V 471.32 q 0,0.091 -0.091,0.091 h -5.20835 v 2.9113 h 4.42748 q 0.091,0 0.091,0.091 v 1.4708 q 0,0.0834 -0.091,0.0834 h -4.42748 v 3.01743 h 5.20835 q 0.091,0 0.091,0.091 v 1.54663 q 0,0.091 -0.091,0.091 z" />
    </g>
    <path
       id="path2234"
       style="color:#000000;font-style:normal;font-variant:normal;font-weight:normal;font-stretch:normal;font-size:medium;line-height:normal;font-family:sans-serif;-inkscape-font-specification:'Singapore Road Signs';font-variant-ligatures:normal;font-variant-position:normal;font-variant-caps:normal;font-variant-numeric:normal;font-variant-alternates:normal;font-variant-east-asian:normal;font-feature-settings:normal;font-variation-settings:normal;text-indent:0;text-align:start;text-decoration:none;text-decoration-line:none;text-decoration-style:solid;text-decoration-color:#000000;letter-spacing:normal;word-spacing:normal;text-transform:none;writing-mode:lr-tb;direction:ltr;text-orientation:mixed;dominant-baseline:auto;baseline-shift:baseline;text-anchor:start;white-space:normal;shape-padding:0;shape-margin:0;inline-size:0;clip-rule:nonzero;display:inline;overflow:visible;visibility:visible;opacity:1;isolation:auto;mix-blend-mode:normal;color-interpolation:sRGB;color-interpolation-filters:linearRGB;solid-color:#000000;solid-opacity:1;vector-effect:none;fill:#ffffff;fill-opacity:1;fill-rule:evenodd;stroke:none;stroke-width:0.553505;stroke-linecap:square;stroke-linejoin:miter;stroke-miterlimit:10;stroke-dasharray:none;stroke-dashoffset:0;stroke-opacity:1;paint-order:stroke fill markers;color-rendering:auto;image-rendering:auto;shape-rendering:auto;text-rendering:auto;enable-background:accumulate;stop-color:#000000;stop-opacity:1"
       d="m -15.969923,24.267591 c -3.660213,0 -6.64739,2.986612 -6.64739,6.646866 v 88.255573 12.49019 12.99963 3.6809 66.91723 c 0,3.66025 2.987177,6.64425 6.64739,6.64425 H 291.67269 c 3.66018,0 6.64731,-2.984 6.64731,-6.64425 v -66.91723 -3.58512 -15.27389 -10.31171 -88.255573 c 0,-3.660254 -2.98713,-6.646866 -6.64731,-6.646866 z m 0,2.505216 H 291.67269 c 2.3166,0 4.14628,1.824976 4.14628,4.14165 v 88.255573 10.31171 c 0,0.0793 -0.003,0.16299 -0.008,0.2483 v 1.91034 c 0,2.30275 -1.85387,4.15666 -4.15662,4.15666 h -2.14073 c -0.0495,0.003 -0.0998,0.004 -0.14809,0.004 H -13.935317 c -0.04789,0 -0.0986,-0.003 -0.148499,-0.004 h -1.881358 c -2.30279,0 -4.156661,-1.85391 -4.156661,-4.15666 V 30.931521 c 0,-0.439583 0.06841,-0.862465 0.193573,-1.259551 0.0028,-0.01207 0.008,-0.02415 0.01207,-0.03622 0.529327,-1.675712 2.078391,-2.864473 3.947554,-2.864473 z m -0.02012,111.550863 h 1.844614 303.667089 2.1516 c 2.29055,0 4.13493,1.84385 4.13493,4.13436 v 2.01235 c 0.004,0.099 0.008,0.19438 0.008,0.28533 v 3.58512 66.91723 c 0,1.45159 -0.71847,2.70953 -1.82489,3.44692 -0.6606,0.44695 -1.45876,0.70768 -2.31985,0.70768 H -15.991533 c -2.290557,0 -4.134407,-1.84385 -4.134407,-4.1344 v -72.82015 c 0,-2.29051 1.84385,-4.13436 4.134407,-4.13436 z" />
    <path
       id="path2236"
       style="font-size:15.1831px;line-height:1.46;font-family:'Singapore Road Signs';-inkscape-font-specification:'Singapore Road Signs';text-align:center;text-anchor:middle;opacity:1;fill:#ffd70f;fill-opacity:1;fill-rule:evenodd;stroke:none;stroke-width:0.553509;stroke-linecap:square;stroke-miterlimit:10;stroke-dasharray:none;stroke-opacity:1;paint-order:stroke fill markers"
       d="M -3.3171908,67.252756 H 57.687094 v 27.87213 H -3.3171908 Z" />
    <path
       style="color:#000000;font-style:normal;font-variant:normal;font-weight:normal;font-stretch:normal;font-size:medium;line-height:normal;font-family:sans-serif;-inkscape-font-specification:'Singapore Road Signs';font-variant-ligatures:normal;font-variant-position:normal;font-variant-caps:normal;font-variant-numeric:normal;font-variant-alternates:normal;font-variant-east-asian:normal;font-feature-settings:normal;font-variation-settings:normal;text-indent:0;text-align:start;text-decoration:none;text-decoration-line:none;text-decoration-style:solid;text-decoration-color:#000000;letter-spacing:normal;word-spacing:normal;text-transform:none;writing-mode:lr-tb;direction:ltr;text-orientation:mixed;dominant-baseline:auto;baseline-shift:baseline;text-anchor:start;white-space:normal;shape-padding:0;shape-margin:0;inline-size:0;clip-rule:nonzero;display:inline;overflow:visible;visibility:visible;opacity:1;isolation:auto;mix-blend-mode:normal;color-interpolation:sRGB;color-interpolation-filters:linearRGB;solid-color:#000000;solid-opacity:1;vector-effect:none;fill:#000000;fill-opacity:1;fill-rule:evenodd;stroke:none;stroke-width:0.119061;stroke-linecap:square;stroke-linejoin:miter;stroke-miterlimit:10;stroke-dasharray:none;stroke-dashoffset:0;stroke-opacity:1;paint-order:stroke fill markers;color-rendering:auto;image-rendering:auto;shape-rendering:auto;text-rendering:auto;enable-background:accumulate;stop-color:#000000;stop-opacity:1"
       d="m -1.2511143,67.819952 c -0.8126029,0 -1.4771085,0.661326 -1.4771085,1.473969 V 93.08368 c 0,0.812643 0.6645056,1.47401 1.4771085,1.47401 H 55.64287 c 0.812643,0 1.477108,-0.661367 1.477108,-1.47401 V 69.293921 c 0,-0.812643 -0.664506,-1.473969 -1.477108,-1.473969 z m 0,0.535967 H 55.64287 c 0.523612,0 0.938002,0.41439 0.938002,0.938002 V 93.08368 c 0,0.523612 -0.41431,0.934904 -0.938002,0.934904 H -1.2511143 c -0.5235719,0 -0.9379622,-0.411332 -0.9379622,-0.934904 V 69.293921 c 0,-0.523612 0.4142696,-0.938002 0.9379622,-0.938002 z"
       id="path2238" />
    <path
       id="path2240"
       style="font-style:normal;font-variant:normal;font-weight:normal;font-stretch:normal;font-size:15.1831px;line-height:1.46;font-family:'Alte DIN 1451 Mittelschrift gepraegt';-inkscape-font-specification:'Alte DIN 1451 Mittelschrift gepraegt';text-align:center;text-anchor:middle;opacity:1;fill:#000000;fill-opacity:1;stroke-width:0.264583"
       d="m 9.4750643,72.273894 c -1.3721111,0 -2.5199854,0.330804 -3.4426147,0.993338 -0.9147415,0.654525 -1.576591,1.364264 -1.9866351,2.129178 -0.1420606,0.268024 -0.2644018,0.53971 -0.3670234,0.815702 -0.1026217,0.276072 -0.1810971,0.565103 -0.2358287,0.864799 -0.055536,0.299816 -0.095378,0.77582 -0.1191216,1.430345 -0.024146,0.654525 -0.036219,1.498196 -0.036219,2.531214 0,2.066117 0.051512,3.389695 0.1541338,3.97327 0.055536,0.299816 0.1336094,0.588767 0.2358286,0.864759 0.1026217,0.268024 0.2249629,0.535886 0.366621,0.803991 0.4102453,0.772841 1.0718936,1.482581 1.9866351,2.129218 0.9305576,0.654526 2.0783509,0.981627 3.442615,0.981627 0.7491787,0 1.4475287,-0.107451 2.0941667,-0.320341 0.646637,-0.212889 1.245304,-0.526268 1.797288,-0.9442 1.135559,-0.867455 1.868157,-2.107487 2.199363,-3.716192 0.0161,-0.04709 0.008,-0.08532 -0.02415,-0.11711 -0.0322,-0.04024 -0.06962,-0.05835 -0.116707,-0.05835 h -2.70889 c -0.02415,4e-5 -0.0487,0.01207 -0.07244,0.03622 -0.02415,0.0161 -0.04507,0.0322 -0.05835,0.04668 -0.709659,1.490429 -1.746581,2.23671 -3.1108447,2.23671 -0.5914224,0 -1.0965221,-0.115097 -1.5144541,-0.343682 -0.4178513,-0.236634 -0.7526393,-0.521882 -1.0048883,-0.853128 -0.1420597,-0.1815 -0.2716447,-0.389963 -0.3903637,-0.626315 -0.110268,-0.244279 -0.19639,-0.489445 -0.259573,-0.733926 -0.06278,-0.268023 -0.1074513,-0.677383 -0.1307928,-1.229367 -0.024146,-0.559872 -0.036219,-1.269652 -0.036219,-2.129179 0,-0.843792 0.00805,-1.545965 0.036219,-2.105877 0.024146,-0.559872 0.068012,-0.972934 0.1307928,-1.241039 0.06278,-0.252328 0.148902,-0.497292 0.259573,-0.733885 0.110268,-0.24428 0.240658,-0.46051 0.3903637,-0.649777 0.252329,-0.307462 0.586956,-0.581402 1.0048883,-0.817995 0.417892,-0.236634 0.9230317,-0.352938 1.5144541,-0.352938 0.7965047,4e-5 1.4545307,0.231401 1.9749637,0.696499 0.276073,0.236634 0.509567,0.492946 0.698834,0.768938 0.189145,0.268024 0.334828,0.561039 0.436927,0.87647 0.0161,0.06318 0.05996,0.09337 0.130389,0.09337 h 2.70881 c 0.04709,0 0.08532,-0.0161 0.116707,-0.04668 0.0322,-0.0322 0.04065,-0.07204 0.02415,-0.119122 -0.259975,-1.395776 -0.933415,-2.600715 -2.021647,-3.617998 -1.072457,-1.009395 -2.428794,-1.514535 -4.0691307,-1.514535 z M 37.259865,72.37893 c -1.285387,0 -2.425695,0.438175 -3.419355,1.313518 -1.001507,0.859567 -1.502784,2.085876 -1.502784,3.678766 v 7.439388 c 0,1.59293 0.501277,2.819198 1.502784,3.678766 0.99366,0.867415 2.133968,1.301846 3.419355,1.301846 1.285387,0 2.425735,-0.434391 3.419354,-1.301846 1.009395,-0.867455 1.512121,-2.093724 1.512121,-3.678766 v -7.439388 c 0,-0.788537 -0.129988,-1.486928 -0.390365,-2.094127 -0.252329,-0.615086 -0.625026,-1.143004 -1.121836,-1.584639 -0.49681,-0.42582 -1.034668,-0.749139 -1.610315,-0.969956 -0.5678,-0.228585 -1.17029,-0.343682 -1.80904,-0.343682 z M 16.09871,72.41515 c -0.09457,0 -0.142463,0.04789 -0.142463,0.142463 v 2.283473 c 0,0.09457 0.04789,0.142463 0.142463,0.142463 h 4.506138 v 14.525798 c 0,0.09457 0.04789,0.140451 0.142463,0.140451 h 2.566307 c 0.09457,0 0.142463,-0.04548 0.142463,-0.140451 V 74.983549 h 4.494428 c 0.09457,0 0.142463,-0.04789 0.142463,-0.142463 v -2.283473 c 0,-0.09457 -0.04789,-0.142463 -0.142463,-0.142463 z m 31.283637,0.119121 -2.437728,1.762276 c -0.0161,0.0161 -0.0322,0.03622 -0.04668,0.05835 -0.008,0.02415 -0.0161,0.04467 -0.0161,0.06077 v 2.566266 c 0,0.06318 0.02817,0.111073 0.07284,0.142463 0.04668,0.02415 0.099,0.0161 0.154134,-0.02415 0.362597,-0.260377 0.724147,-0.524175 1.086864,-0.79232 0.362597,-0.276072 0.726441,-0.549891 1.089118,-0.817995 v 14.053698 c 0,0.09457 0.04829,0.142463 0.142463,0.142463 h 2.423723 c 0.09457,0 0.140451,-0.04789 0.140451,-0.142463 V 72.67605 c 0,-0.09457 -0.04548,-0.142463 -0.140451,-0.142463 z m -10.122482,2.542925 c 0.678148,0 1.217536,0.218524 1.619692,0.652071 0.410205,0.42586 0.614684,1.020743 0.614684,1.785657 v 7.156515 c 0,0.772842 -0.204841,1.371508 -0.614684,1.797368 -0.402036,0.42582 -0.941544,0.638025 -1.619692,0.638025 -0.678189,0 -1.217496,-0.212085 -1.619652,-0.638025 -0.402036,-0.4259 -0.605387,-1.024526 -0.605387,-1.797368 v -7.156515 c 0,-0.764914 0.203231,-1.359797 0.605387,-1.785617 0.402036,-0.433748 0.941463,-0.652111 1.619652,-0.652111 z m -10.00328,11.887093 c -0.09457,0 -0.142463,0.04789 -0.142463,0.142463 v 2.402635 c 0,0.09457 0.04789,0.140451 0.142463,0.140451 h 2.412012 c 0.08693,0 0.130792,-0.04548 0.130792,-0.140451 v -2.402635 c 0,-0.09457 -0.04507,-0.142463 -0.130792,-0.142463 z" />
    <path
       d="M 243.48634,59.164477 V 109.8711 H 278.9864 V 59.164477 Z m 1.38459,1.663075 h 32.71229 v 47.652838 h -32.71229 z m 13.69315,3.653533 -2.23892,8.885911 h 3.929 l 0.28251,-8.885911 z m 3.35939,0 0.28251,8.885911 h 3.93102 l -2.24094,-8.885911 z m -15.93831,10.010564 v 1.945748 l 3.07249,1.110125 v 0.585748 h 1.41356 v -0.585748 c 0,0 2.09043,-0.314304 4.53395,-0.536329 1.95665,-0.177878 4.13924,-0.272451 5.65437,-0.278487 1.80192,-0.004 4.46618,0.09377 6.75203,0.28895 2.51781,0.214902 4.57966,0.525906 4.57966,0.525906 v 0.585789 h 1.38451 v -0.585789 l 3.07245,-1.110085 V 74.49173 Z m 9.22786,3.627254 -6.71673,26.729807 h 10.06779 l 1.39694,-26.729807 z m 7.26964,0 1.39698,26.729807 h 10.06771 L 267.2307,78.118903 Z"
       style="font-size:15.1831px;line-height:1.46;font-family:'Singapore Road Signs';-inkscape-font-specification:'Singapore Road Signs';text-align:center;text-anchor:middle;opacity:1;fill:#ffffff;fill-opacity:1;stroke-width:0.0756547"
       id="path2242"
       sodipodi:nodetypes="ccccccccccccccccccccccccccscsccccccccccccccccc" />
    <path
       id="path2244"
       style="font-style:normal;font-variant:normal;font-weight:normal;font-stretch:normal;font-size:14.7905px;line-height:1.4;font-family:'Alte DIN 1451 Mittelschrift gepraegt';-inkscape-font-specification:'Alte DIN 1451 Mittelschrift gepraegt';text-align:center;text-anchor:middle;opacity:1;fill:#ffffff;fill-opacity:1;stroke-width:0.198437"
       d="m 166.69956,43.250349 c -1.33662,0 -2.45511,0.322352 -3.35388,0.967621 -0.89107,0.637583 -1.53578,1.330299 -1.9352,2.075454 -0.13844,0.261182 -0.25796,0.525785 -0.35777,0.794654 -0.0994,0.268828 -0.17546,0.549488 -0.22858,0.841417 -0.0539,0.291767 -0.0934,0.75767 -0.11711,1.395293 -0.0242,0.637582 -0.0322,1.459401 -0.0322,2.465777 0,2.012633 0.0499,3.301964 0.14971,3.870407 0.0539,0.291768 0.12878,0.572549 0.22899,0.841418 0.10021,0.261182 0.21933,0.521801 0.35777,0.782983 0.39921,0.752801 1.04412,1.445517 1.9352,2.075413 0.90649,0.637583 2.02491,0.955911 3.35392,0.955911 0.72978,0 1.41046,-0.103427 2.0404,-0.310682 0.62993,-0.207256 1.21283,-0.516006 1.75056,-0.923153 1.10618,-0.845039 1.82059,-2.050904 2.14327,-3.618038 0.0161,-0.04588 0.008,-0.08371 -0.0241,-0.114695 -0.0322,-0.04024 -0.0684,-0.05835 -0.11469,-0.05835 h -2.63871 c -0.0242,0 -0.0471,0.01207 -0.0704,0.03622 -0.0241,0.0161 -0.0406,0.0322 -0.0563,0.04668 -0.69139,1.451876 -1.70235,2.178316 -3.03132,2.178316 -0.57621,0 -1.06767,-0.111475 -1.47482,-0.334426 -0.40702,-0.230597 -0.73344,-0.507071 -0.97933,-0.829746 -0.13844,-0.17667 -0.26601,-0.381914 -0.3807,-0.61231 -0.10746,-0.238243 -0.19076,-0.474715 -0.25233,-0.712838 -0.0616,-0.261182 -0.10303,-0.661286 -0.12637,-1.199024 -0.0241,-0.545424 -0.0362,-1.235806 -0.0362,-2.073119 0,-0.821939 0.0161,-1.506647 0.0362,-2.052071 0.0242,-0.545384 0.0648,-0.949472 0.12637,-1.210654 0.0616,-0.24589 0.14487,-0.482403 0.25233,-0.712879 0.10745,-0.238243 0.23502,-0.451334 0.3807,-0.635731 0.24589,-0.299414 0.57219,-0.564178 0.97933,-0.794654 0.40707,-0.230597 0.89861,-0.346097 1.47482,-0.346097 0.77582,0 1.41646,0.226975 1.92349,0.68012 0.26883,0.230597 0.49576,0.481396 0.68016,0.750265 0.18472,0.261183 0.32799,0.545827 0.42783,0.853088 0.0161,0.06157 0.0571,0.09135 0.12637,0.09135 h 2.63866 c 0.0459,0 0.0837,-0.0161 0.1147,-0.04668 0.0322,-0.0322 0.0406,-0.06842 0.0241,-0.114695 -0.25314,-1.359878 -0.91012,-2.536084 -1.97026,-3.527047 -1.04473,-0.983277 -2.36609,-1.474774 -3.96389,-1.474774 z m -55.99969,0.137633 c -0.0922,0 -0.13803,0.04789 -0.13803,0.140049 v 2.222665 c 0,0.09216 0.0455,0.137634 0.13803,0.137634 h 4.38932 v 14.151852 c 0,0.09216 0.0455,0.137634 0.13763,0.137634 h 2.50083 c 0.0922,0 0.13763,-0.04548 0.13763,-0.137634 V 45.88833 h 4.3799 c 0.0922,0 0.13803,-0.04548 0.13803,-0.137634 v -2.222665 c 0,-0.09216 -0.0455,-0.140049 -0.13803,-0.140049 z m 13.5278,0 c -0.0922,0 -0.13804,0.04789 -0.13804,0.140049 v 16.512433 c 0,0.09216 0.0459,0.137633 0.13804,0.137633 h 2.50083 c 0.0922,0 0.13803,-0.04548 0.13803,-0.137633 v -6.315138 h 3.67639 c 1.72848,0 3.04582,-0.545263 3.95227,-1.636071 0.90645,-1.098495 1.35794,-2.250675 1.35794,-3.456701 0,-0.460952 -0.0455,-0.89474 -0.13803,-1.301887 -0.0922,-0.407106 -0.22134,-0.781494 -0.39037,-1.119502 -0.17667,-0.330401 -0.37829,-0.628648 -0.60064,-0.897477 -0.2153,-0.276475 -0.45185,-0.519467 -0.71283,-0.726883 -0.67594,-0.522365 -1.31501,-0.852686 -1.9142,-0.991004 -0.59154,-0.138438 -1.21613,-0.20806 -1.87677,-0.20806 z m 21.83431,0 c -0.0922,0 -0.13763,0.04789 -0.13763,0.140049 v 16.512433 c 0,0.09216 0.0455,0.137633 0.13763,0.137633 h 2.50079 c 0.0922,0 0.13804,-0.04548 0.13804,-0.137633 V 52.96339 h 6.28012 v 7.077074 c 0,0.09216 0.0455,0.137633 0.13763,0.137633 h 2.50083 c 0.0922,0 0.13764,-0.04548 0.13764,-0.137633 V 43.528071 c 0,-0.09216 -0.0455,-0.140048 -0.13764,-0.140048 h -2.50083 c -0.0922,0 -0.13763,0.04829 -0.13763,0.140048 v 6.936864 h -6.28012 v -6.936864 c 0,-0.09216 -0.0455,-0.140048 -0.13804,-0.140048 z m 28.45092,0 c -0.0922,0 -0.13804,0.04789 -0.13804,0.140049 v 16.512433 c 0,0.09216 0.0455,0.137633 0.13804,0.137633 h 2.50079 c 0.0922,0 0.13763,-0.04548 0.13763,-0.137633 v -9.771879 l 3.24876,7.476734 c 0.0322,0.04588 0.0728,0.07003 0.12637,0.07003 h 2.08712 c 0.0539,0 0.0954,-0.02415 0.12637,-0.07003 0.53009,-1.244418 1.0673,-2.484048 1.61268,-3.72082 0.54543,-1.236813 1.08667,-2.480427 1.62437,-3.732532 v 9.748497 c 0,0.09216 0.0455,0.137633 0.13763,0.137633 h 2.50083 c 0.0922,0 0.13763,-0.04548 0.13763,-0.137633 V 43.528071 c 0,-0.09216 -0.0455,-0.140048 -0.13763,-0.140048 h -2.36046 c -0.0616,0 -0.10544,0.02817 -0.12838,0.0817 -0.7528,1.759177 -1.50492,3.506281 -2.25772,5.242398 -0.75288,1.728431 -1.50093,3.473845 -2.24608,5.233022 l -4.62067,-10.47542 c -0.0322,-0.05393 -0.0745,-0.0817 -0.12838,-0.0817 z m -47.64653,2.650376 h 3.49184 c 0.69907,0 1.2659,0.147695 1.7038,0.439382 0.67601,0.437933 1.01438,1.1323 1.01438,2.08483 0,0.637583 -0.21892,1.21484 -0.65678,1.729558 -0.43012,0.530051 -1.08686,0.794654 -1.97025,0.794654 h -3.58299 z m 7.36928,11.524858 c -0.0922,0 -0.13803,0.04548 -0.13803,0.137634 v 2.339573 c 0,0.09216 0.0455,0.137634 0.13803,0.137634 h 2.35121 c 0.0845,0 0.12636,-0.04548 0.12636,-0.137634 V 57.70085 c 0,-0.09216 -0.0406,-0.137634 -0.12636,-0.137634 z m 60.0384,17.199556 -1.17798,1.177976 c 0.32638,0.225768 0.49243,0.602087 0.50019,1.131173 -0.0241,0.634202 -0.38996,1.092015 -1.07048,1.392998 -1.06147,-0.99543 -2.48063,-1.614983 -4.05738,-1.614983 h -0.17064 c -3.29154,0 -5.94119,2.649692 -5.94119,5.941192 V 87.9961 c 0,3.2915 2.64965,5.941191 5.94119,5.941191 h 0.17064 c 3.29146,0 5.94123,-2.649691 5.94119,-5.941191 v -5.204972 c 0,-1.131656 -0.33161,-2.175137 -0.87643,-3.073459 0.10021,-0.04065 0.20162,-0.08009 0.29941,-0.123951 0.97258,-0.661367 1.44512,-1.518198 1.41401,-2.568601 -0.0161,-0.863632 -0.2809,-1.564276 -0.79465,-2.101169 -0.0539,-0.05433 -0.1155,-0.107048 -0.17748,-0.161378 z m -14.21258,0.179889 -1.11492,1.117209 c 0.28252,0.215706 0.42743,0.569771 0.43468,1.061108 -0.0161,0.57291 -0.33242,0.999173 -0.93024,1.290135 v -1.285346 c 0,-0.09216 -0.0455,-0.137634 -0.13763,-0.137634 h -2.50083 c -0.0922,0 -0.13764,0.04547 -0.13764,0.137634 v 10.648348 c 0,1.098535 -0.31269,1.93637 -0.93494,2.512501 -0.62225,0.57617 -1.38632,0.862424 -2.29285,0.862424 -0.92174,0 -1.6939,-0.286133 -2.31611,-0.862424 -0.6146,-0.568444 -0.92086,-1.40632 -0.92086,-2.512501 V 77.125767 c 0,-0.09216 -0.0406,-0.137634 -0.12636,-0.137634 h -2.51255 c -0.0922,0 -0.13803,0.04547 -0.13803,0.137634 v 10.924138 c 0,1.766864 0.58293,3.187591 1.75056,4.263066 1.16768,1.067789 2.5884,1.603353 4.26303,1.603353 1.66702,0 3.08211,-0.535564 4.24206,-1.603353 1.17536,-1.075475 1.76227,-2.496202 1.76227,-4.263066 v -8.152186 c 0.41117,-0.0825 0.79743,-0.200816 1.15226,-0.364608 0.93056,-0.632794 1.38073,-1.453808 1.35091,-2.458736 -0.0161,-0.826325 -0.26601,-1.496385 -0.75731,-2.010016 -0.0451,-0.04467 -0.0909,-0.08411 -0.13562,-0.121537 z m -40.68165,1.907194 c -1.33662,0 -2.45511,0.322353 -3.35388,0.967582 -0.89108,0.637623 -1.53574,1.330299 -1.9352,2.075453 h 0.0161 c -0.14608,0.261182 -0.26963,0.525785 -0.36903,0.794654 -0.0998,0.268829 -0.17788,0.549489 -0.2314,0.841377 -0.0459,0.291768 -0.0837,0.755417 -0.1147,1.392999 -0.0241,0.637582 -0.0362,1.459441 -0.0362,2.465778 0,1.006336 0.0161,1.832179 0.0362,2.477448 0.0322,0.637583 0.0684,1.103364 0.1147,1.395333 0.0539,0.291768 0.13159,0.572508 0.2314,0.841377 0.0994,0.261182 0.22335,0.521801 0.36903,0.782984 h -0.0161 c 0.39922,0.7528 1.04412,1.443142 1.9352,2.073078 0.90645,0.637583 2.02491,0.958245 3.35388,0.958245 1.66702,0 3.09177,-0.581241 4.27482,-1.741188 1.16763,-1.144614 1.75052,-2.565381 1.75052,-4.263106 V 84.54628 c 0,-0.08451 -0.0455,-0.125963 -0.13763,-0.125963 h -5.86409 c -0.0922,0 -0.14005,0.04145 -0.14005,0.125963 v 2.374626 c 0,0.09216 0.0479,0.137634 0.14005,0.137634 h 3.22538 v 0.715172 c 0,1.006337 -0.3143,1.820147 -0.94428,2.442396 -0.62221,0.62225 -1.3903,0.93253 -2.30448,0.93253 -0.57609,0 -1.06763,-0.111476 -1.47477,-0.334426 -0.40711,-0.230597 -0.73349,-0.507072 -0.97926,-0.829707 -0.13844,-0.17667 -0.26561,-0.379499 -0.3807,-0.610015 -0.10745,-0.238243 -0.19076,-0.474716 -0.25233,-0.712839 -0.0616,-0.261182 -0.10544,-0.661286 -0.12838,-1.199023 -0.0241,-0.545424 -0.0322,-1.238101 -0.0322,-2.075413 0,-0.82198 0.008,-1.504313 0.0322,-2.049778 0.0242,-0.545384 0.0668,-0.949472 0.12838,-1.210654 0.0616,-0.24589 0.14447,-0.484737 0.25233,-0.715172 0.10745,-0.238244 0.23502,-0.449041 0.3807,-0.633398 0.24549,-0.299413 0.57211,-0.564177 0.97926,-0.794654 0.40702,-0.230597 0.89868,-0.345694 1.47477,-0.345694 0.77586,0 1.41654,0.226975 1.92353,0.68012 0.26883,0.230597 0.49577,0.481397 0.68016,0.750265 0.18472,0.261183 0.32558,0.543453 0.42514,0.850714 0.0161,0.06157 0.0592,0.09337 0.12838,0.09337 h 2.6387 c 0.0459,0 0.0837,-0.0161 0.1147,-0.04668 0.0322,-0.0322 0.0406,-0.06842 0.0241,-0.114695 -0.25313,-1.367283 -0.91015,-2.543488 -1.97021,-3.526765 -1.04473,-0.983317 -2.3661,-1.474815 -3.96394,-1.474815 z m 79.54251,0 c -1.33662,0 -2.45515,0.322353 -3.35392,0.967582 -0.89112,0.637623 -1.53574,1.330299 -1.9352,2.075453 h 0.0161 c -0.14608,0.261182 -0.26963,0.525785 -0.36943,0.794654 -0.0994,0.268829 -0.17748,0.549489 -0.23141,0.841377 -0.0459,0.291768 -0.0837,0.755417 -0.11469,1.392999 -0.0201,0.637582 -0.0362,1.459441 -0.0362,2.465778 0,1.006336 0.0161,1.832179 0.0362,2.477448 0.0322,0.637583 0.0684,1.103364 0.11469,1.395333 0.0539,0.291768 0.1316,0.572508 0.23141,0.841377 0.0994,0.261182 0.22335,0.521801 0.36943,0.782984 h -0.0161 c 0.39922,0.7528 1.04408,1.443142 1.9352,2.073078 0.90649,0.637583 2.02495,0.958245 3.35392,0.958245 1.66698,0 3.09173,-0.581241 4.27478,-1.741188 1.16763,-1.144614 1.75056,-2.565381 1.75056,-4.263106 V 84.54628 c 0,-0.08451 -0.0455,-0.125963 -0.13804,-0.125963 h -5.86408 c -0.0922,0 -0.13763,0.04145 -0.13763,0.125963 v 2.374626 c 0,0.09216 0.0455,0.137634 0.13763,0.137634 h 3.22538 v 0.715172 c 0,1.006337 -0.3143,1.820147 -0.94424,2.442396 -0.62217,0.62225 -1.39026,0.93253 -2.30448,0.93253 -0.57609,0 -1.06763,-0.111476 -1.47482,-0.334426 -0.40706,-0.230597 -0.73344,-0.507072 -0.97929,-0.829707 -0.13844,-0.17667 -0.26601,-0.379499 -0.38071,-0.610015 -0.10745,-0.238243 -0.19075,-0.474716 -0.25232,-0.712839 -0.0616,-0.261182 -0.10544,-0.661286 -0.12838,-1.199023 -0.0241,-0.545424 -0.0322,-1.238101 -0.0322,-2.075413 0,-0.82198 0.008,-1.504313 0.0322,-2.049778 0.0241,-0.545384 0.0668,-0.949472 0.12838,-1.210654 0.0616,-0.24589 0.14447,-0.484737 0.25232,-0.715172 0.10746,-0.238244 0.23503,-0.449041 0.38071,-0.633398 0.24549,-0.299413 0.57219,-0.564177 0.97929,-0.794654 0.40707,-0.230597 0.89873,-0.345694 1.47482,-0.345694 0.7759,0 1.4165,0.226975 1.92349,0.68012 0.26883,0.230597 0.4958,0.481397 0.68016,0.750265 0.18472,0.261183 0.32799,0.543453 0.42787,0.850714 0.0161,0.06157 0.0572,0.09337 0.12637,0.09337 h 2.63874 c 0.0459,0 0.0837,-0.0161 0.1147,-0.04668 0.0322,-0.0322 0.0406,-0.06842 0.0241,-0.114695 -0.25354,-1.367363 -0.91016,-2.543569 -1.97026,-3.526846 -1.04477,-0.983276 -2.36609,-1.474774 -3.96393,-1.474774 z M 75.115757,76.987489 c -0.09216,0 -0.138036,0.04548 -0.138036,0.137634 v 2.225039 c 0,0.09216 0.04547,0.137634 0.138036,0.137634 h 4.391685 v 14.149518 c 0,0.09216 0.04548,0.140049 0.137634,0.140049 h 2.50083 c 0.09216,0 0.138036,-0.04829 0.138036,-0.140049 V 79.487796 h 4.37764 c 0.09216,0 0.138036,-0.04588 0.138036,-0.137634 v -2.225039 c 0,-0.09216 -0.04588,-0.137634 -0.138036,-0.137634 z m 13.527832,0 c -0.09216,0 -0.138036,0.04548 -0.138036,0.137634 v 16.512513 c 0,0.09216 0.04547,0.140049 0.138036,0.140049 h 2.50083 c 0.09216,0 0.138036,-0.04829 0.138036,-0.140049 v -6.913522 h 2.98452 l 3.377294,6.971956 0.0563,0.05835 c 0.0241,0.0161 0.0467,0.02415 0.0704,0.02415 h 2.972881 c 0.0539,0 0.091,-0.02012 0.1147,-0.05835 0.0201,-0.04628 0.0201,-0.09578 0,-0.149707 -0.62217,-1.190693 -1.246837,-2.386899 -1.876804,-3.585279 -0.629894,-1.206067 -1.256857,-2.403964 -1.879107,-3.594657 0.47625,-0.17667 0.902033,-0.409279 1.278473,-0.701167 0.376277,-0.299414 0.706794,-0.645913 0.990954,-1.037687 0.276477,-0.422519 0.491417,-0.876309 0.645104,-1.36028 0.15373,-0.491619 0.2314,-1.011166 0.2314,-1.55659 0,-0.368633 -0.0455,-0.724751 -0.13763,-1.070445 -0.0922,-0.345694 -0.219727,-0.671991 -0.380707,-0.979293 -0.15373,-0.307462 -0.334827,-0.591905 -0.542197,-0.853088 -0.20002,-0.268828 -0.410647,-0.507796 -0.633397,-0.715172 -0.430127,-0.360987 -0.9337,-0.637663 -1.50987,-0.829707 -0.576127,-0.199609 -1.220791,-0.299011 -1.935199,-0.299011 z m 14.081651,0 c -0.0921,0 -0.13763,0.04548 -0.13763,0.137634 v 10.924139 c 0,1.766823 0.58297,3.18759 1.75061,4.263065 1.16767,1.067789 2.5884,1.603353 4.26306,1.603353 1.66702,0 3.08207,-0.535564 4.24206,-1.603353 1.17532,-1.075475 1.76224,-2.496242 1.76224,-4.263065 V 77.125123 c 0,-0.09216 -0.0455,-0.137634 -0.13764,-0.137634 h -2.50079 c -0.0922,0 -0.13803,0.04548 -0.13803,0.137634 v 10.648348 c 0,1.098535 -0.3127,1.93637 -0.93491,2.512541 -0.62221,0.57613 -1.38636,0.862424 -2.29281,0.862424 -0.92182,0 -1.6939,-0.286133 -2.31615,-0.862424 -0.61456,-0.568484 -0.9209,-1.40632 -0.9209,-2.512541 V 77.125123 c 0,-0.09216 -0.0406,-0.137634 -0.12636,-0.137634 z m 15.18729,0 c -0.0922,0 -0.13763,0.04548 -0.13763,0.137634 v 16.512513 c 0,0.09216 0.0455,0.140049 0.13763,0.140049 h 2.5125 c 0.0845,0 0.12637,-0.04829 0.12637,-0.140049 V 82.27645 l 7.28279,11.431331 c 0.0322,0.04588 0.0684,0.07002 0.1147,0.07002 h 2.36291 c 0.0922,0 0.13764,-0.04829 0.13764,-0.140048 V 77.125324 c 0,-0.09216 -0.0455,-0.137634 -0.13764,-0.137634 h -2.5125 c -0.0922,0 -0.13763,0.04548 -0.13763,0.137634 v 11.363521 l -7.25942,-11.431332 c -0.0322,-0.04588 -0.0712,-0.07002 -0.11671,-0.07002 z m 36.18239,0 c -0.0922,0 -0.14005,0.04548 -0.14005,0.137634 v 16.512513 c 0,0.09216 0.0479,0.140049 0.14005,0.140049 h 10.5549 c 0.0922,0 0.13804,-0.04829 0.13804,-0.140049 v -2.34891 c 0,-0.09216 -0.0459,-0.140048 -0.13804,-0.140048 h -7.91615 V 77.125364 c 0,-0.09216 -0.0479,-0.137633 -0.14005,-0.137633 z m 43.36008,0 c -0.0922,0 -0.13804,0.04548 -0.13804,0.137634 v 16.512513 c 0,0.09216 0.0455,0.140049 0.13804,0.140049 h 2.5125 c 0.0845,0 0.12637,-0.04829 0.12637,-0.140049 V 82.27645 l 7.28271,11.431331 c 0.0322,0.04588 0.0684,0.07002 0.1147,0.07002 h 2.36295 c 0.0922,0 0.13764,-0.04829 0.13764,-0.140048 V 77.125324 c 0,-0.09216 -0.0455,-0.137634 -0.13764,-0.137634 h -2.5125 c -0.0922,0 -0.13803,0.04548 -0.13803,0.137634 v 11.363521 l -7.25942,-11.431332 c -0.0322,-0.04588 -0.0684,-0.07002 -0.1147,-0.07002 z M 91.282294,79.48848 h 3.802677 c 0.345694,0 0.663942,0.04145 0.955911,0.125963 0.29941,0.08451 0.56249,0.204036 0.785277,0.357768 0.25353,0.191963 0.44461,0.438939 0.575,0.738594 0.13763,0.299414 0.20806,0.641889 0.20806,1.025975 0,0.676056 -0.22295,1.258947 -0.66837,1.750606 -0.445497,0.491618 -1.114225,0.73622 -2.005344,0.73622 h -3.65305 z m 97.108996,0.156549 c 1.80091,0 3.24872,1.450185 3.24872,3.251095 v 5.017999 c 0,1.80087 -1.44773,3.251095 -3.24872,3.251095 -1.80087,0 -3.25109,-1.450225 -3.25109,-3.251095 v -5.017999 c 0,-1.80087 1.45022,-3.251095 3.25109,-3.251095 z m -34.0743,26.567181 c -1.33795,0 -2.38231,0.35616 -3.13423,1.07274 -0.74596,0.70455 -1.11946,1.61905 -1.11946,2.7439 0,0.47955 0.0744,0.92376 0.22214,1.33219 0.1481,0.4026 0.36985,0.77619 0.66608,1.11955 0.29579,0.33764 0.65931,0.61082 1.09145,0.81803 0.43826,0.20122 0.93462,0.33886 1.49116,0.41604 0.1658,0.0242 0.31712,0.0487 0.45342,0.0724 0.14206,0.0161 0.27889,0.0322 0.40884,0.0515 0.13602,0.0161 0.26963,0.0362 0.39962,0.0539 0.13361,0.0161 0.27165,0.0362 0.41612,0.0539 1.04787,0.14206 1.57293,0.67959 1.57293,1.61502 0,0.49729 -0.20726,0.89708 -0.62173,1.19898 -0.43825,0.31391 -1.03716,0.47215 -1.79499,0.47215 -0.67489,0 -1.31605,-0.11389 -1.92587,-0.33886 -0.60386,-0.231 -1.14027,-0.535 -1.60798,-0.91385 -0.0241,-0.0201 -0.0499,-0.0282 -0.0797,-0.0282 -0.0322,0 -0.0547,0.0161 -0.0724,0.0362 l -1.27609,1.44673 c -0.0161,0.0242 -0.0282,0.0519 -0.0282,0.0817 0,0.0282 0.0161,0.0523 0.0362,0.0704 1.35569,1.18405 3.00025,1.77628 4.93618,1.77628 1.37352,0 2.48051,-0.33281 3.32116,-0.99567 0.83478,-0.67489 1.25279,-1.60875 1.25279,-2.80463 0,-0.89398 -0.29257,-1.70485 -0.87876,-2.43306 -0.58615,-0.74596 -1.48588,-1.19355 -2.69956,-1.34157 -0.3139,-0.0362 -0.58711,-0.0688 -0.81799,-0.0982 -0.2306,-0.0362 -0.4315,-0.0688 -0.60302,-0.0982 -0.31993,-0.0475 -0.58961,-0.11791 -0.80865,-0.21248 -0.21893,-0.10061 -0.39359,-0.22255 -0.52354,-0.36461 -0.26078,-0.30787 -0.39036,-0.6233 -0.39036,-0.94891 0,-0.56837 0.19277,-0.99318 0.57726,-1.27142 0.19558,-0.15414 0.41427,-0.26199 0.65682,-0.32719 0.24307,-0.0708 0.50578,-0.10745 0.78994,-0.10745 0.55649,0 1.09407,0.0885 1.61502,0.26642 0.521,0.17184 1.01302,0.40404 1.47478,0.69412 0.0535,0.0362 0.10061,0.0242 0.14246,-0.0282 l 1.07511,-1.58931 c 0.0406,-0.0592 0.0322,-0.11067 -0.0282,-0.15172 -0.29579,-0.19558 -0.60687,-0.37306 -0.93253,-0.5329 -0.31993,-0.16581 -0.65685,-0.30706 -1.01201,-0.42534 -0.34931,-0.11872 -0.71255,-0.21088 -1.09149,-0.27567 -0.37306,-0.0712 -0.75791,-0.10504 -1.15459,-0.10504 z m 10.26506,0 c -1.33798,0 -2.38231,0.35616 -3.13418,1.07274 -0.74592,0.70455 -1.11959,1.61905 -1.11959,2.7439 0,0.47955 0.074,0.92376 0.22215,1.33219 0.1481,0.4026 0.36984,0.77619 0.66616,1.11955 0.29579,0.33764 0.65923,0.61082 1.09137,0.81803 0.43825,0.20122 0.93699,0.33886 1.49353,0.41604 0.1658,0.0242 0.31712,0.0487 0.45342,0.0724 0.14206,0.0161 0.27648,0.0322 0.40659,0.0515 0.13602,0.0161 0.26963,0.0362 0.40002,0.0539 0.13361,0.0161 0.27366,0.0362 0.41837,0.0539 1.04787,0.14206 1.57064,0.67959 1.57064,1.61502 0,0.49729 -0.20726,0.89708 -0.62173,1.19898 -0.43825,0.31391 -1.03487,0.47215 -1.79266,0.47215 -0.67489,0 -1.31834,-0.11389 -1.9282,-0.33886 -0.60382,-0.231 -1.14031,-0.535 -1.60798,-0.91385 -0.0241,-0.0201 -0.0499,-0.0282 -0.0797,-0.0282 -0.0322,0 -0.0523,0.0161 -0.0704,0.0362 l -1.27846,1.44673 c -0.0161,0.0242 -0.0282,0.0519 -0.0282,0.0817 0,0.0282 0.008,0.0523 0.0362,0.0704 1.35574,1.18405 3.0003,1.77628 4.93623,1.77628 1.37348,0 2.4805,-0.33281 3.32116,-0.99567 0.83477,-0.67489 1.25279,-1.60875 1.25279,-2.80463 0,-0.89398 -0.29258,-1.70485 -0.87885,-2.43306 -0.58607,-0.74596 -1.4858,-1.19355 -2.69943,-1.34157 -0.3139,-0.0362 -0.58716,-0.0688 -0.81804,-0.0982 -0.2314,-0.0362 -0.43149,-0.0688 -0.60301,-0.0982 -0.31994,-0.0475 -0.58965,-0.11791 -0.8087,-0.21248 -0.21892,-0.10061 -0.39358,-0.22255 -0.52353,-0.36461 -0.26078,-0.30787 -0.39036,-0.6233 -0.39036,-0.94891 0,-0.56837 0.19276,-0.99318 0.57729,-1.27142 0.19559,-0.15414 0.41431,-0.26199 0.65678,-0.32719 0.24307,-0.0708 0.50583,-0.10745 0.78999,-0.10745 0.55645,0 1.09636,0.0885 1.61731,0.26642 0.521,0.17184 1.01069,0.40404 1.47249,0.69412 0.0535,0.0362 0.10141,0.0242 0.14246,-0.0282 l 1.07507,-1.58931 c 0.0406,-0.0592 0.0322,-0.11067 -0.0282,-0.15172 -0.29579,-0.19558 -0.60688,-0.37306 -0.93257,-0.5329 -0.31994,-0.16581 -0.65915,-0.30706 -1.01434,-0.42534 -0.34932,-0.11872 -0.71256,-0.21088 -1.09146,-0.27567 -0.37306,-0.0712 -0.75791,-0.10504 -1.15455,-0.10504 z m 24.26267,0.0865 c -0.0475,0 -0.0769,0.0241 -0.0889,0.0728 l -4.65343,12.73314 c -0.008,0.0362 -0.008,0.0688 0.008,0.0978 0.0161,0.0282 0.0475,0.0443 0.0885,0.0443 H 186.23 c 0.0161,0 0.0362,-0.008 0.0539,-0.0201 0.0242,-0.0161 0.0362,-0.0322 0.0451,-0.0515 0.1658,-0.47363 0.32879,-0.93949 0.48844,-1.39537 0.1658,-0.46176 0.33201,-0.93213 0.49789,-1.41167 h 4.68845 l 0.95824,2.80704 c 0.008,0.0475 0.0406,0.07 0.0889,0.07 h 2.03336 c 0.0362,0 0.0636,-0.0161 0.0817,-0.0443 0.0161,-0.0282 0.0242,-0.0628 0.008,-0.0982 l -4.64397,-12.73313 c -0.004,-0.0161 -0.0241,-0.0322 -0.0451,-0.0443 -0.0161,-0.0201 -0.0362,-0.0282 -0.0539,-0.0282 z m -89.873014,0.0201 c -0.0708,0 -0.105427,0.0362 -0.105427,0.10745 v 12.72376 c 0,0.0712 0.0362,0.10745 0.105427,0.10745 h 8.135884 c 0.0712,0 0.10544,-0.0362 0.10544,-0.10745 v -1.81121 c 0,-0.0712 -0.0362,-0.10504 -0.10544,-0.10504 h -6.10249 v -3.53618 h 5.18626 c 0.0712,0 0.10745,-0.0322 0.10745,-0.0958 v -1.72252 c 0,-0.0712 -0.0362,-0.10745 -0.10745,-0.10745 h -5.18626 v -3.41001 h 6.10249 c 0.0712,0 0.10544,-0.0362 0.10544,-0.10746 v -1.82771 c 0,-0.0712 -0.0362,-0.10745 -0.10544,-0.10745 z m 8.801964,0 c -0.0406,0 -0.0712,0.0201 -0.0885,0.0539 -0.0161,0.0282 -0.0161,0.064 0.008,0.10503 0.60386,1.03008 1.20401,2.05513 1.802,3.07342 0.5979,1.01829 1.20152,2.0433 1.81129,3.07342 l -3.86341,6.4741 c -0.0241,0.0414 -0.0282,0.0793 -0.008,0.1147 0.0161,0.0282 0.0511,0.0443 0.0978,0.0443 h 2.17594 c 0.0362,0 0.0652,-0.0201 0.0889,-0.0539 0.45001,-0.76963 0.8986,-1.53269 1.34853,-2.29048 0.45004,-0.75779 0.90098,-1.52081 1.35094,-2.29043 l 2.69948,4.58091 c 0.0241,0.0362 0.0535,0.0539 0.0885,0.0539 h 2.18299 c 0.0467,0 0.0805,-0.0161 0.0978,-0.0443 0.0161,-0.0362 0.0161,-0.0729 -0.008,-0.1147 -0.65122,-1.0834 -1.29581,-2.16314 -1.93516,-3.23472 -0.6394,-1.07748 -1.28398,-2.15598 -1.93521,-3.23938 l 3.61333,-6.14684 c 0.0242,-0.0414 0.0282,-0.0757 0.008,-0.10503 -0.0161,-0.0362 -0.0475,-0.0539 -0.0889,-0.0539 h -2.18532 c -0.0362,0 -0.0652,0.0201 -0.0889,0.0539 -0.4084,0.71634 -0.81615,1.42809 -1.22466,2.13851 -0.4084,0.70451 -0.81623,1.41179 -1.22474,2.12222 l -2.45174,-4.26077 c -0.0241,-0.0362 -0.0535,-0.0539 -0.0889,-0.0539 z m 11.23969,0 c -0.0712,0 -0.10745,0.0362 -0.10745,0.10745 v 12.72376 c 0,0.0712 0.0362,0.10745 0.10745,0.10745 h 1.92586 c 0.0712,0 0.10746,-0.0362 0.10746,-0.10745 v -4.86588 h 2.83272 c 1.33203,0 2.34681,-0.41906 3.04541,-1.25975 0.69859,-0.84657 1.0471,-1.73491 1.0471,-2.66442 0,-0.35535 -0.0362,-0.69119 -0.10544,-1.00501 -0.0712,-0.3139 -0.17144,-0.59963 -0.30183,-0.86009 -0.13602,-0.25434 -0.29136,-0.48695 -0.46272,-0.69416 -0.16581,-0.2133 -0.34771,-0.39882 -0.54929,-0.55859 -0.521,-0.4026 -1.01294,-0.6577 -1.47477,-0.76427 -0.45584,-0.10664 -0.93994,-0.15896 -1.44906,-0.15896 z m 10.54548,0 c -0.0712,0 -0.10503,0.0362 -0.10503,0.10745 v 12.72376 c 0,0.0712 0.0362,0.10745 0.10503,0.10745 h 1.9282 c 0.0716,0 0.10745,-0.0362 0.10745,-0.10745 v -5.32659 h 2.29986 l 2.60136,5.37094 0.0451,0.0443 c 0.0161,0.0121 0.0362,0.0201 0.0539,0.0201 h 2.29047 c 0.0406,0 0.0712,-0.0161 0.0893,-0.0443 0.0161,-0.0362 0.0161,-0.0752 0,-0.11711 -0.47954,-0.91768 -0.96126,-1.83668 -1.44672,-2.76028 -0.48546,-0.92947 -0.96955,-1.85427 -1.44906,-2.77191 0.36743,-0.13603 0.69614,-0.31471 0.98634,-0.53991 0.28975,-0.231 0.54522,-0.49738 0.76423,-0.79933 0.21329,-0.32557 0.37949,-0.67641 0.49785,-1.04939 0.11832,-0.3787 0.17748,-0.77868 0.17748,-1.19899 0,-0.28412 -0.0362,-0.55862 -0.10745,-0.82507 -0.0712,-0.26642 -0.16782,-0.5181 -0.29217,-0.75494 -0.11872,-0.23663 -0.25877,-0.45544 -0.41838,-0.65674 -0.15373,-0.20725 -0.31672,-0.39157 -0.48848,-0.55158 -0.33161,-0.27808 -0.71992,-0.49005 -1.16393,-0.63806 -0.44413,-0.15414 -0.94058,-0.2314 -1.49115,-0.2314 z m 10.94519,0 c -0.0708,0 -0.10745,0.0362 -0.10745,0.10745 v 12.72376 c 0,0.0712 0.0362,0.10745 0.10745,0.10745 h 8.13351 c 0.0712,0 0.10745,-0.0362 0.10745,-0.10745 v -1.81121 c 0,-0.0712 -0.0362,-0.10504 -0.10745,-0.10504 h -6.10011 v -3.53618 h 5.18626 c 0.0712,0 0.10745,-0.0322 0.10745,-0.0958 v -1.72252 c 0,-0.0712 -0.0362,-0.10745 -0.10745,-0.10745 h -5.18626 v -3.41001 h 6.10011 c 0.0712,0 0.10745,-0.0362 0.10745,-0.10746 v -1.82771 c 0,-0.0712 -0.0362,-0.10745 -0.10745,-0.10745 z m 29.46297,0 c -0.0362,0 -0.0652,0.0161 -0.0893,0.0443 -0.0241,0.0241 -0.0322,0.0535 -0.0161,0.0889 l 3.18795,12.72613 c 0.0161,0.0531 0.0483,0.0793 0.10745,0.0793 h 1.60565 c 0.0531,0 0.0861,-0.0282 0.0978,-0.0793 0.39077,-1.48004 0.78254,-2.95269 1.17331,-4.41498 0.39077,-1.46234 0.78021,-2.93603 1.17089,-4.42203 l 2.35358,8.83701 c 0.0161,0.0531 0.0451,0.0793 0.0978,0.0793 h 1.60794 c 0.0592,0 0.0938,-0.0282 0.10544,-0.0793 l 3.18779,-12.72605 c 0.0161,-0.0362 0.008,-0.0652 -0.0161,-0.0889 -0.0241,-0.0282 -0.0531,-0.0443 -0.0889,-0.0443 h -2.04286 c -0.0592,0 -0.0958,0.0282 -0.10745,0.0793 -0.31994,1.46234 -0.63859,2.91333 -0.95828,4.35192 -0.31994,1.43864 -0.63855,2.88617 -0.95825,4.34255 l -2.38163,-8.69435 c -0.008,-0.0531 -0.0406,-0.0793 -0.0958,-0.0793 h -1.39529 c -0.0592,0 -0.0958,0.0282 -0.10745,0.0793 -0.39681,1.46234 -0.79301,2.91329 -1.18965,4.35192 -0.3968,1.4386 -0.78958,2.88617 -1.18031,4.34255 l -1.91886,-8.69447 c -0.0161,-0.0531 -0.0459,-0.0793 -0.10544,-0.0793 z m 24.04997,0 c -0.0475,0 -0.0805,0.0161 -0.0978,0.0443 -0.0161,0.0282 -0.0161,0.064 0,0.10503 0.63344,1.24917 1.26671,2.49625 1.90015,3.73954 0.63344,1.24325 1.27005,2.49032 1.90953,3.73953 v 5.20264 c 0,0.0712 0.0322,0.10745 0.0978,0.10745 h 1.82767 c 0.0712,0 0.10745,-0.0362 0.10745,-0.10745 v -5.20264 l 3.81902,-7.47911 c 0.0161,-0.0414 0.0161,-0.0756 0,-0.10503 -0.0161,-0.0282 -0.0507,-0.0443 -0.0978,-0.0443 h -2.03336 c -0.0161,0 -0.0362,0.008 -0.0539,0.0241 -0.0161,0.0121 -0.0322,0.0241 -0.0451,0.0362 -0.4383,0.91764 -0.872,1.8253 -1.30422,2.72523 -0.42606,0.89986 -0.85901,1.80755 -1.29714,2.72519 l -2.60969,-5.45042 c -0.0161,-0.0121 -0.0282,-0.0241 -0.0451,-0.0362 -0.0161,-0.0161 -0.0362,-0.0241 -0.0539,-0.0241 z m -62.42239,1.92583 h 2.92854 c 0.26641,0 0.51359,0.0322 0.73859,0.0978 0.2306,0.0652 0.43145,0.15735 0.60293,0.27567 0.19559,0.1481 0.34328,0.33724 0.44417,0.56792 0.10665,0.231 0.15856,0.49399 0.15856,0.78998 0,0.521 -0.17103,0.97205 -0.51419,1.35091 -0.34328,0.3791 -0.8582,0.56796 -1.54492,0.56796 h -2.81405 z m -10.54786,0.11711 h 2.69013 c 0.53875,0 0.97604,0.11147 1.31352,0.33643 0.52096,0.33765 0.78298,0.8739 0.78298,1.60803 0,0.49137 -0.16942,0.93554 -0.50719,1.33223 -0.33161,0.40847 -0.83836,0.61235 -1.51916,0.61235 h -2.76028 z m 68.61595,1.03776 c 0.0241,0.0769 0.0406,0.13603 0.0539,0.17748 0.0161,0.0414 0.0322,0.0813 0.0451,0.11711 0.008,0.0282 0.0161,0.0628 0.0282,0.0978 0.008,0.0282 0.0282,0.074 0.0451,0.13321 0.0362,0.11228 0.0688,0.21731 0.0978,0.31792 0.0362,0.10061 0.0688,0.19277 0.0978,0.27567 0.0592,0.18351 0.1147,0.36139 0.16822,0.53291 0.0592,0.17184 0.1147,0.34489 0.16822,0.51653 0.0282,0.0829 0.0592,0.16822 0.0889,0.25716 0.0322,0.0829 0.0592,0.17184 0.0885,0.26641 0.0362,0.10061 0.0696,0.20524 0.10544,0.31793 0.0406,0.11268 0.0845,0.22979 0.12637,0.34811 0.0652,0.18351 0.13924,0.39881 0.22214,0.64744 0.0825,0.24267 0.17305,0.5092 0.27366,0.79932 0.008,0.0362 0.0282,0.0765 0.0451,0.12395 0.0201,0.0475 0.0406,0.0918 0.0539,0.13321 h -3.40998 c 0.12999,-0.37306 0.23744,-0.68048 0.32035,-0.92319 0.0825,-0.24871 0.16379,-0.4787 0.24065,-0.69183 0.0769,-0.2133 0.14448,-0.41935 0.20364,-0.61469 0.0652,-0.19558 0.12757,-0.38111 0.18673,-0.55858 0.0322,-0.0829 0.0592,-0.16822 0.0889,-0.25716 0.0322,-0.0885 0.0592,-0.1811 0.0885,-0.27567 0.0322,-0.0885 0.0592,-0.17748 0.0889,-0.26641 0.0362,-0.0885 0.0664,-0.18432 0.0958,-0.28493 0.0161,-0.0282 0.0241,-0.0572 0.0282,-0.0865 0.004,-0.0282 0.0161,-0.0628 0.0282,-0.0978 0.0475,-0.14206 0.0986,-0.297 0.15213,-0.46276 0.0591,-0.16581 0.12153,-0.3469 0.18673,-0.54225 z" />
    <path
       sodipodi:nodetypes="ccccccc"
       d="m 276.99715,59.171519 h 1.97899 v 2.771349 l -33.8221,47.928232 h -1.6677 l -6.9e-4,-2.52192 z"
       style="font-size:15.1831px;line-height:1.46;font-family:'Singapore Road Signs';-inkscape-font-specification:'Singapore Road Signs';text-align:center;text-anchor:middle;opacity:1;fill:#f00a0a;fill-opacity:1;fill-rule:evenodd;stroke:none;stroke-width:0.119062;stroke-linecap:square;stroke-miterlimit:10;stroke-dasharray:none;stroke-opacity:1;paint-order:stroke fill markers"
       id="path2246" />
  </g>
</svg>
