<?xml version="1.0" encoding="UTF-8"?>
<svg version="1.1" xmlns="http://www.w3.org/2000/svg" width="2560" height="1197">
<path d="M0 0 C844.8 0 1689.6 0 2560 0 C2560 395.01 2560 790.02 2560 1197 C1715.2 1197 870.4 1197 0 1197 C0 801.99 0 406.98 0 0 Z " fill="#FEFEFE" transform="translate(0,0)"/>
<path d="M0 0 C1.56309151 -0.00855011 1.56309151 -0.00855011 3.15776062 -0.01727295 C5.35361742 -0.02665884 7.5494879 -0.03323117 9.74536133 -0.03710938 C13.02777196 -0.04673874 16.30953456 -0.07779343 19.59179688 -0.109375 C33.56724716 -0.17964009 46.98383572 0.882988 60.76171875 3.203125 C61.98947021 3.40196289 63.21722168 3.60080078 64.48217773 3.80566406 C103.22470186 10.40599823 138.21079307 26.61275398 168.76171875 51.203125 C169.7775 52.00621094 170.79328125 52.80929687 171.83984375 53.63671875 C177.73090241 58.35798148 183.31419234 63.36638322 188.83984375 68.50390625 C191.55049904 71.00800091 194.30445485 73.45239345 197.07421875 75.890625 C200.63979513 79.09340824 203.85427057 82.40493485 206.9375 86.0703125 C209.03422268 88.52172703 211.24137637 90.8513692 213.44921875 93.203125 C233.45850327 115.21637428 246.45497768 140.38720859 256.63085938 168.1484375 C257.57282043 170.69287117 258.55545874 173.21379558 259.55859375 175.734375 C271.67663433 207.74230035 269.59883482 245.27163019 269.6235199 278.89875793 C269.64431974 284.44400716 269.78551369 289.95793185 270.12074184 295.49193287 C270.94219636 309.09166755 270.92582906 322.68003528 270.9296875 336.30078125 C270.9311177 337.64657548 270.93271511 338.99236954 270.93447304 340.33816338 C270.9436868 347.41791069 270.94781504 354.49763947 270.94702148 361.57739258 C270.94649428 367.31407514 270.95342072 373.05068857 270.9675293 378.78735352 C271.23904948 491.76049415 271.23904948 491.76049415 260.51171875 544.47875977 C259.99334128 547.05292913 259.49175214 549.62563102 259.01171875 552.20678711 C257.78649671 558.72475298 256.51373969 564.83474558 253.76171875 570.890625 C253.26671875 572.00824219 252.77171875 573.12585938 252.26171875 574.27734375 C250.76171875 577.203125 250.76171875 577.203125 249.07421875 579.41015625 C247.46637998 581.23624143 247.46637998 581.23624143 247.76171875 584.203125 C250.07087835 586.27458429 250.07087835 586.27458429 253.07421875 588.328125 C254.18764098 589.13342521 255.29959028 589.94076534 256.41015625 590.75 C256.97444336 591.15927734 257.53873047 591.56855469 258.12011719 591.99023438 C269.47732719 600.3814627 280.04705175 610.01022549 290.76171875 619.203125 C291.9426848 620.21487122 293.12367428 621.22659009 294.3046875 622.23828125 C296.52039023 624.13648434 298.73069409 626.04068558 300.9375 627.94921875 C308.32105849 634.30245978 315.95294975 640.28130352 323.71875 646.16015625 C324.3782666 646.66498535 325.0377832 647.16981445 325.71728516 647.68994141 C327.13318324 648.73791565 328.58132059 649.74317814 330.05224609 650.71240234 C335.54067441 654.42484331 335.54067441 654.42484331 336.6015625 658.16015625 C335.46685895 662.27147749 333.171235 664.84595265 330.32421875 667.890625 C329.21371724 669.12789609 328.10435248 670.36618834 326.99609375 671.60546875 C326.44501953 672.21374512 325.89394531 672.82202148 325.32617188 673.44873047 C323.15613391 675.88223434 321.11428533 678.41027605 319.07421875 680.953125 C315.51903971 685.33464295 311.79402338 689.52023181 307.99609375 693.69140625 C305.76037342 696.20463732 303.62794193 698.77623979 301.51171875 701.390625 C297.35744036 706.52195493 293.06819092 711.52058076 288.71557617 716.48364258 C285.97701655 719.61325328 283.28798665 722.76365405 280.6953125 726.015625 C280.21046387 726.61584473 279.72561523 727.21606445 279.22607422 727.83447266 C278.31759012 728.96446106 277.42118946 730.10431489 276.53955078 731.25537109 C274.47900484 733.79846532 272.90357673 735.14801062 269.8359375 736.33984375 C265.6610378 736.15417477 263.53268345 734.28130356 260.51171875 731.640625 C259.27834944 730.61727628 258.04392116 729.5952029 256.80859375 728.57421875 C256.15568359 728.02620605 255.50277344 727.47819336 254.83007812 726.91357422 C251.21073859 723.92052739 247.48001923 721.07151696 243.76171875 718.203125 C242.21947126 717.0059562 240.67779826 715.80804693 239.13671875 714.609375 C238.39421875 714.031875 237.65171875 713.454375 236.88671875 712.859375 C233.83786706 710.48306413 230.79882163 708.09442243 227.76171875 705.703125 C219.45729735 699.16598677 211.10800643 692.68666287 202.76171875 686.203125 C199.49054895 683.66189098 196.21977832 681.12014432 192.94921875 678.578125 C192.2025293 677.99828857 191.45583984 677.41845215 190.68652344 676.82104492 C187.02373545 673.97412073 183.37465386 671.11334778 179.76171875 668.203125 C177.03466381 669.49824181 174.61651524 670.92793281 172.1796875 672.70703125 C171.50341309 673.19558594 170.82713867 673.68414063 170.13037109 674.1875 C169.41059082 674.70828125 168.69081055 675.2290625 167.94921875 675.765625 C160.10850566 681.34923883 152.16942149 686.51674134 143.76171875 691.203125 C142.92930664 691.6671875 142.09689453 692.13125 141.23925781 692.609375 C127.9594643 699.93352682 114.50294453 706.11858042 100.24902344 711.29833984 C98.1118698 712.0757536 95.98707481 712.87850596 93.86328125 713.69140625 C86.27181926 716.44650987 78.60234478 718.21484724 70.69921875 719.828125 C69.27440186 720.11961426 69.27440186 720.11961426 67.82080078 720.41699219 C64.4748452 721.06516447 61.12412444 721.64594105 57.76171875 722.203125 C56.98677063 722.33160828 56.21182251 722.46009155 55.41339111 722.59246826 C41.14176156 724.90017613 27.20595062 725.69664817 12.76171875 725.578125 C11.23449692 725.57114594 11.23449692 725.57114594 9.67642212 725.56402588 C-16.59648744 725.42399944 -41.81156275 723.25769405 -67.23828125 716.203125 C-68.60339844 715.82462402 -68.60339844 715.82462402 -69.99609375 715.43847656 C-92.24581141 709.063834 -113.24994888 698.57583115 -131.80078125 684.765625 C-132.44007568 684.2924585 -133.07937012 683.81929199 -133.73803711 683.33178711 C-139.0083098 679.41211724 -144.17996587 675.39385795 -149.23828125 671.203125 C-150.73294922 669.98689453 -150.73294922 669.98689453 -152.2578125 668.74609375 C-167.23553205 656.3744529 -181.65335871 642.6033068 -193.06005859 626.82568359 C-194.24844546 625.18912762 -195.46845594 623.58051212 -196.6953125 621.97265625 C-211.61539071 602.14879667 -220.66787443 580.26723579 -229.23828125 557.203125 C-229.61984375 556.20829102 -230.00140625 555.21345703 -230.39453125 554.18847656 C-242.06702194 523.31606511 -241.29853272 487.31746109 -242.34765625 454.73046875 C-242.38952812 453.46452314 -242.43139999 452.19857754 -242.47454071 450.89426994 C-243.44309598 420.99284801 -243.54603707 391.09767792 -243.49541998 361.18310964 C-243.48779942 356.15370308 -243.49067381 351.12437458 -243.49902344 346.0949707 C-243.5491972 315.08476333 -243.52646415 284.14762377 -241.23828125 253.203125 C-241.14280082 251.85612632 -241.04792966 250.50908432 -240.95362854 249.16200256 C-240.54019086 243.25904089 -240.11399877 237.35733705 -239.6640625 231.45703125 C-239.30819813 226.56108665 -239.09786864 221.67552326 -238.94897461 216.76953125 C-237.17655972 162.39527611 -205.93178915 108.80729202 -167.23828125 72.203125 C-165.28613431 70.42653084 -163.31170205 68.69313491 -161.296875 66.98828125 C-159.21797982 65.18552016 -157.22359747 63.30647205 -155.22607422 61.41455078 C-113.70103124 22.36983528 -56.8875807 0.24978341 0 0 Z " fill="#000000" transform="translate(312.23828125,247.796875)"/>
<path d="M0 0 C844.8 0 1689.6 0 2560 0 C2560 395.01 2560 790.02 2560 1197 C1715.2 1197 870.4 1197 0 1197 C0 801.99 0 406.98 0 0 Z M46.125 50.0625 C42.54110414 55.01670898 41.70749396 58.3201533 41.74700034 64.41899228 C41.74394724 65.17378671 41.74089415 65.92858115 41.73774853 66.70624814 C41.72990716 69.25498389 41.73639714 71.80348528 41.74273109 74.35222244 C41.74003974 76.19803252 41.73647307 78.0438415 41.73210663 79.88964838 C41.7226041 84.99603362 41.72566361 90.10234795 41.73066217 95.2087368 C41.73391595 100.75119972 41.72565702 106.29364707 41.71884382 111.83610511 C41.70851293 121.56140048 41.70570536 131.28667593 41.70775604 141.01197624 C41.71065587 154.79782034 41.70348692 168.58364458 41.6934769 182.36948451 C41.67317288 210.37319296 41.66706436 238.37689343 41.66589268 266.38060841 C41.66576318 269.39622964 41.66562731 272.41185088 41.66548586 275.42747211 C41.66545185 276.17577927 41.66541784 276.92408642 41.6653828 277.69506955 C41.66456636 294.26751058 41.66018804 310.83995007 41.65517417 327.41239029 C41.65311749 334.23346546 41.65113745 341.05454065 41.64914167 347.87561584 C41.64892049 348.62925689 41.64869931 349.38289794 41.64847143 350.15937661 C41.63582052 393.35582478 41.62757349 436.55227196 41.62848854 479.74872208 C41.6285201 481.36579897 41.62855157 482.98287587 41.62858296 484.59995277 C41.62872973 491.90114602 41.62890607 499.20233927 41.62909073 506.50353252 C41.62917297 509.7594115 41.62925327 513.01529049 41.62933335 516.27116947 C41.62937414 517.90079701 41.62941618 519.53042455 41.62945947 521.16005209 C41.63082007 572.69444099 41.61618472 624.2288024 41.58837891 675.76318359 C41.58137706 688.74729021 41.57443822 701.73139686 41.56785011 714.71550369 C41.56744436 715.51495061 41.56703862 716.31439752 41.56662057 717.1380701 C41.55419359 741.77170728 41.54666003 766.40534221 41.54413414 791.03898239 C41.54405424 791.81220991 41.54397434 792.58543743 41.54389201 793.38209609 C41.54218558 810.35509503 41.54166303 827.32809384 41.54223277 844.30109286 C41.54242574 850.37414034 41.54252982 856.44718782 41.54259023 862.5202353 C41.54260605 864.03109914 41.54262646 865.54196297 41.54265147 867.0528268 C41.54300434 891.14218144 41.53159919 915.23151258 41.51434384 939.32086048 C41.49705555 963.57949813 41.49265147 987.83810321 41.50586648 1012.09674441 C41.51406604 1027.15323045 41.51155348 1042.20963074 41.49108342 1057.2661087 C41.47913479 1066.86295738 41.48161718 1076.459731 41.49602441 1086.05657615 C41.50383086 1091.53128333 41.50521507 1097.0057904 41.48910971 1102.48048392 C41.474596 1107.45750217 41.47837232 1112.4341529 41.49695744 1117.41115455 C41.5004103 1119.20379327 41.49711007 1120.99646046 41.48635503 1122.78907024 C41.25545336 1136.39366785 41.25545336 1136.39366785 47.78125 1148.0234375 C48.3484375 1148.46945312 48.915625 1148.91546875 49.5 1149.375 C50.0671875 1149.83648438 50.634375 1150.29796875 51.21875 1150.7734375 C55.56029308 1153.76300883 58.59966093 1154.25021147 63.92691787 1154.251233 C64.97986828 1154.25552777 64.97986828 1154.25552777 66.05409043 1154.25990929 C68.42447984 1154.2671092 70.7946131 1154.25997515 73.1650002 1154.25299966 C74.88418667 1154.25523253 76.60337219 1154.25834217 78.32255566 1154.26225147 C83.0854698 1154.27050427 87.84830484 1154.26618531 92.61121906 1154.25995973 C97.79760258 1154.25537372 102.98397231 1154.26235971 108.17035311 1154.26789337 C117.30812536 1154.27602319 126.44587487 1154.27664275 135.58364943 1154.27248149 C149.26331886 1154.26628597 162.94296729 1154.27154273 176.62263519 1154.2790789 C199.93243869 1154.29157507 223.24223224 1154.29450164 246.55203819 1154.29224396 C270.1872322 1154.28998193 293.82241995 1154.29203699 317.45761299 1154.29938889 C318.963286 1154.29985287 320.46895901 1154.30031681 321.97463202 1154.30078072 C328.04528959 1154.30265974 334.11594715 1154.30457233 340.18660471 1154.3065231 C357.30096893 1154.3120146 374.41533332 1154.31677317 391.5296979 1154.32102704 C392.31405296 1154.32122214 393.09840803 1154.32141724 393.90653143 1154.32161825 C438.54406721 1154.332636 483.18160335 1154.33323766 527.81914025 1154.33405997 C534.6440099 1154.33418646 541.46887954 1154.33431951 548.29374919 1154.33446108 C550.00429364 1154.33449646 551.71483809 1154.33453121 553.42538254 1154.33456532 C591.79317039 1154.33534045 630.1609575 1154.33969601 668.52874498 1154.34482583 C677.08825318 1154.34596894 685.64776139 1154.34707688 694.20726959 1154.3481871 C695.05690075 1154.34829734 695.9065319 1154.34840758 696.78190945 1154.34852117 C701.93926913 1154.34919017 707.09662881 1154.3498577 712.25398849 1154.35052429 C714.83750543 1154.35085845 717.42102238 1154.35119347 720.00453933 1154.35152857 C760.17563229 1154.35673262 800.34672532 1154.36119312 840.51781845 1154.36489296 C841.3931346 1154.3649737 842.26845074 1154.36505444 843.17029162 1154.36513763 C898.95893889 1154.37026483 954.74758575 1154.37206253 1010.53623324 1154.37153696 C1013.28006718 1154.37151145 1016.02390111 1154.37148753 1018.76773504 1154.37146414 C1038.04486526 1154.37129945 1057.32199549 1154.37109403 1076.59912571 1154.37087838 C1082.12644673 1154.37081684 1087.65376775 1154.37075671 1093.18108877 1154.37069675 C1097.79159991 1154.37064656 1102.40211105 1154.37059498 1107.01262219 1154.37054053 C1194.09998969 1154.3695176 1281.18735349 1154.37235474 1368.27471924 1154.39123535 C1369.65009672 1154.39153343 1369.65009672 1154.39153343 1371.05325961 1154.39183752 C1399.7020104 1154.3980602 1428.35076107 1154.40479319 1456.99951172 1154.41162109 C1486.39465964 1154.41862378 1515.78980758 1154.42556463 1545.1849556 1154.43214989 C1546.54254741 1154.43245447 1546.54254741 1154.43245447 1547.92756532 1154.4327652 C1604.59671311 1154.44546075 1661.26585984 1154.4533067 1717.935009 1154.45586586 C1718.81006422 1154.45590592 1719.68511943 1154.45594597 1720.58669148 1154.45598724 C1759.01445699 1154.45773777 1797.44222246 1154.45837747 1835.86998801 1154.45780547 C1851.32892727 1154.4575769 1866.78786653 1154.45746477 1882.24680579 1154.45739883 C1884.8100279 1154.45738603 1887.37325001 1154.45736787 1889.93647211 1154.45734853 C1929.15896433 1154.45707543 1968.38145316 1154.45977371 2007.60394382 1154.47143888 C2008.45023958 1154.47169023 2009.29653533 1154.47194157 2010.16847641 1154.47220053 C2023.78288202 1154.47625876 2037.39728756 1154.48054675 2051.01169309 1154.48485415 C2089.64813269 1154.49706812 2128.28456775 1154.50716223 2166.92100954 1154.50291181 C2167.70452237 1154.50282638 2168.4880352 1154.50274095 2169.29529085 1154.50265294 C2186.38658449 1154.50074648 2203.47787775 1154.49771513 2220.56917099 1154.49357951 C2227.38504156 1154.4919468 2234.20091215 1154.49045957 2241.01678276 1154.48901749 C2242.13204539 1154.48877553 2242.13204539 1154.48877553 2243.26983859 1154.48852869 C2266.87443375 1154.48347647 2290.47900371 1154.49072749 2314.08359449 1154.50505312 C2337.95656018 1154.51948831 2361.82947536 1154.52018387 2385.70244291 1154.50397559 C2399.29490801 1154.49517658 2412.88726509 1154.49744167 2426.47972137 1154.51570916 C2435.49084917 1154.52673687 2444.50189581 1154.52343065 2453.51301727 1154.50814359 C2458.63158279 1154.49987046 2463.74993473 1154.49797301 2468.86848774 1154.51364497 C2473.50863367 1154.52773675 2478.14838412 1154.52357001 2482.78850933 1154.50457759 C2484.45636472 1154.50098494 2486.12425132 1154.50412984 2487.79207678 1154.51474985 C2500.87842248 1154.60787879 2500.87842248 1154.60787879 2512.0234375 1148.25390625 C2512.46945313 1147.69574219 2512.91546875 1147.13757812 2513.375 1146.5625 C2513.83648438 1146.00691406 2514.29796875 1145.45132812 2514.7734375 1144.87890625 C2517.8235468 1140.20660507 2518.28879027 1135.92745402 2518.25415033 1130.45680922 C2518.25732766 1129.7007367 2518.26050498 1128.94466418 2518.26377859 1128.16568037 C2518.27202421 1125.61862038 2518.26597869 1123.07179338 2518.26006222 1120.52472973 C2518.2630575 1118.67775401 2518.26692713 1116.83077954 2518.27159455 1114.9838073 C2518.28192248 1109.87884953 2518.27970906 1104.77396073 2518.27553919 1099.66899701 C2518.27318187 1094.12634047 2518.28233042 1088.58370126 2518.29002339 1083.04105121 C2518.30189399 1073.31696961 2518.30623523 1063.59290679 2518.30570221 1053.86881828 C2518.30494748 1040.08483354 2518.31424988 1026.30087013 2518.32634189 1012.51689151 C2518.35086479 984.51654926 2518.36100957 956.5162131 2518.36586904 928.51586135 C2518.36639273 925.50095222 2518.36691857 922.48604308 2518.36744571 919.47113395 C2518.36757477 918.72299989 2518.36770383 917.97486584 2518.3678368 917.20406106 C2518.37074108 900.63358348 2518.37689881 884.06310761 2518.38354302 867.49263117 C2518.38626644 860.6718527 2518.38889748 853.85107418 2518.39152867 847.03029567 C2518.39196504 845.89987741 2518.39196504 845.89987741 2518.39241022 844.74662241 C2518.40903549 801.55413126 2518.42089084 758.36164092 2518.42332363 715.16914654 C2518.42341826 713.55233834 2518.42351327 711.93553015 2518.42360866 710.31872195 C2518.42403641 703.01877742 2518.42444179 695.71883288 2518.42484702 688.41888835 C2518.42502862 685.1635796 2518.42521351 681.90827084 2518.42539909 678.65296209 C2518.42549111 677.02362045 2518.42558151 675.3942788 2518.42567028 673.76493716 C2518.42848506 622.23723551 2518.45021617 570.70957297 2518.48706055 519.18188477 C2518.51452865 480.75971218 2518.5404179 442.33754707 2518.54700565 403.91536427 C2518.54720581 402.75562367 2518.54720581 402.75562367 2518.54741001 401.57245396 C2518.55028211 384.60097783 2518.55169956 367.62950186 2518.55176822 350.65802549 C2518.55180791 344.58555224 2518.55196486 338.51307899 2518.55218274 332.44060574 C2518.55223639 330.92988916 2518.5522845 329.41917258 2518.55232707 327.90845601 C2518.55307098 303.82191243 2518.56874794 279.73540738 2518.59193837 255.64887585 C2518.61518835 231.39371572 2518.62244866 207.13860521 2518.6077575 182.8834368 C2518.59864535 167.82925038 2518.60295031 152.77519912 2518.62971413 137.72102809 C2518.64540141 128.12567905 2518.64305448 118.53044581 2518.6258074 108.93509968 C2518.61648538 103.46123311 2518.61519502 97.9876801 2518.63577347 92.5138373 C2518.65432304 87.53756122 2518.65000868 82.56185764 2518.62718253 77.58560413 C2518.62301338 75.79326104 2518.62728696 74.00087415 2518.64088022 72.20857776 C2519.02695956 59.61365274 2519.02695956 59.61365274 2513 49 C2508.80984212 44.75842534 2504.75710844 42.21196538 2498.73905609 41.74929995 C2496.86268675 41.74880217 2496.86268675 41.74880217 2494.94841097 41.74829433 C2494.24511477 41.74537999 2493.54181857 41.74246564 2492.81721037 41.73946299 C2490.44832143 41.73210481 2488.07968886 41.73904235 2485.7108013 41.74584967 C2483.99032378 41.74349056 2482.26984727 41.74025505 2480.54937285 41.73622141 C2475.78753734 41.72762946 2471.02578012 41.73158837 2466.26394349 41.73746906 C2461.07699051 41.74167947 2455.89005209 41.7343129 2450.70310256 41.72840545 C2441.5658845 41.71961785 2432.42868865 41.71833461 2423.29146739 41.72183973 C2409.61264186 41.72705435 2395.93383808 41.72082359 2382.25501505 41.71232625 C2358.9462602 41.69819411 2335.63751467 41.69364413 2312.32875633 41.69429779 C2288.69559461 41.69493469 2265.06243943 41.6912644 2241.42927933 41.68231773 C2239.92357734 41.6817522 2238.41787535 41.68118676 2236.91217335 41.68062141 C2230.84137266 41.67833382 2224.77057198 41.67601423 2218.69977131 41.67365811 C2201.58523754 41.66702544 2184.47070355 41.66114342 2167.35616934 41.65578258 C2166.57181802 41.65553683 2165.78746671 41.65529108 2164.97934717 41.65503789 C2119.49371728 41.64087798 2074.00808629 41.63761477 2028.52245458 41.63413096 C2022.54983444 41.63367297 2016.57721429 41.63321389 2010.60459415 41.63275199 C2008.89422492 41.63262015 2007.18385568 41.6324891 2005.47348645 41.63235885 C1967.96112933 41.62950028 1930.44877299 41.62355926 1892.93641638 41.61691041 C1876.64739254 41.61402544 1860.35836868 41.61124772 1844.06934482 41.60847133 C1843.21681904 41.60832587 1842.36429327 41.6081804 1841.48593338 41.60803053 C1800.45430295 41.60103314 1759.42267243 41.5948057 1718.39104176 41.5894537 C1717.51575224 41.58933945 1716.64046273 41.58922521 1715.7386493 41.58910751 C1659.95291107 41.58184865 1604.16717318 41.57812692 1548.38143452 41.57674492 C1543.80729572 41.5766306 1539.23315692 41.57651058 1534.65901812 41.57639134 C1519.05451145 41.57598662 1503.45000479 41.57560315 1487.84549813 41.57522071 C1480.47794154 41.57503994 1473.11038494 41.57485617 1465.74282835 41.5746705 C1461.13267458 41.57455449 1456.52252082 41.5744402 1451.91236706 41.57432972 C1364.83057258 41.57223663 1277.74878337 41.56548526 1190.66699219 41.5401001 C1189.75011138 41.53983295 1188.83323057 41.53956579 1187.88856549 41.53929055 C1159.24089574 41.53092845 1130.59322618 41.52198762 1101.94555664 41.51293945 C1072.55144857 41.50365726 1043.15734047 41.49445634 1013.76323223 41.48571873 C1012.85820206 41.48544939 1011.95317189 41.48518006 1011.02071656 41.48490256 C954.35359055 41.46806417 897.68646601 41.45727775 841.01933765 41.45299435 C840.14431598 41.45292751 839.2692943 41.45286067 838.36775682 41.4527918 C799.94151292 41.44986603 761.51526906 41.44830197 723.08902505 41.44823663 C707.63073182 41.44820765 692.17243858 41.44802505 676.71414535 41.4477759 C674.1510338 41.44773677 671.58792225 41.44770419 669.0248107 41.44767293 C629.80424588 41.44716313 590.58368658 41.44285123 551.36312461 41.42716718 C550.09375257 41.42666011 550.09375257 41.42666011 548.79873666 41.42614281 C535.1851218 41.42068476 521.57150707 41.41492784 507.95789235 41.40913959 C469.32386062 41.39272318 430.68983588 41.37888954 392.05580008 41.38295543 C391.27233791 41.38303688 390.48887574 41.38311834 389.6816723 41.38320226 C372.59150218 41.38503193 355.50133263 41.38825945 338.41116304 41.3928586 C331.59575001 41.39467174 324.78033695 41.396302 317.96492386 41.39787483 C317.22146562 41.39805137 316.47800737 41.39822791 315.7120201 41.3984098 C292.10902966 41.40392773 268.50607915 41.39405779 244.90309641 41.37533815 C221.03178389 41.35647175 197.16054967 41.35477168 173.28923292 41.3741926 C159.69771319 41.38471264 146.1063628 41.38139765 132.51485806 41.35807384 C123.50436477 41.34396436 114.49399765 41.34777203 105.48351308 41.36655534 C100.36527724 41.37671168 95.24737546 41.37889756 90.12916027 41.35911978 C85.48927562 41.34133448 80.85000816 41.34637369 76.2101544 41.36994614 C74.54242163 41.37437614 72.8746404 41.37038356 71.20695508 41.35704676 C60.65398695 41.27829614 53.36475133 41.9013825 46.125 50.0625 Z " fill="#000000" transform="translate(0,0)"/>
<path d="M0 0 C1.96260801 -0.00782324 1.96260801 -0.00782324 3.96486467 -0.01580453 C5.43075771 -0.01147971 6.89665021 -0.00696637 8.36254215 -0.002285 C9.90893182 -0.0045873 11.45532039 -0.00776226 13.00170666 -0.01173949 C17.26701579 -0.02012803 21.53223601 -0.01594391 25.79754555 -0.00976706 C30.39134567 -0.00526003 34.98513001 -0.01221761 39.57892704 -0.0177269 C48.58475471 -0.02664155 57.59054914 -0.02468964 66.59637814 -0.01890162 C73.91324214 -0.01439297 81.23009679 -0.01376876 88.54696178 -0.01594925 C89.5865851 -0.01625572 90.62620842 -0.01656218 91.69733547 -0.01687793 C93.80903021 -0.01751736 95.92072495 -0.01816578 98.03241969 -0.01882312 C117.85553809 -0.02453255 137.67863802 -0.01795906 157.5017534 -0.00722238 C174.52518821 0.00171237 191.54859575 0.0001629 208.57203007 -0.00905991 C228.32052038 -0.01975399 248.06899449 -0.02398178 267.8174873 -0.01783538 C269.92191255 -0.01719825 272.0263378 -0.01656951 274.13076305 -0.01594925 C275.16629229 -0.0156407 276.20182153 -0.01533215 277.26873044 -0.01501425 C284.57957077 -0.01328462 291.89040085 -0.01620819 299.20123959 -0.02090836 C308.10682759 -0.02650769 317.01238033 -0.02502082 325.91796427 -0.01434687 C330.4650929 -0.00907714 335.01216264 -0.00705543 339.55929089 -0.01364517 C343.71730971 -0.01958003 347.87521474 -0.01637053 352.03322316 -0.00569007 C353.54195394 -0.00344551 355.05069423 -0.00461578 356.55941897 -0.00944164 C358.60150598 -0.0154753 360.6436197 -0.00812384 362.68569946 0 C363.82263715 0.0003247 364.95957483 0.00064941 366.13096517 0.00098395 C368.9057703 0.25168228 368.9057703 0.25168228 371.9057703 2.25168228 C372.28329372 4.16324997 372.28329372 4.16324997 372.28672123 6.54086685 C372.2951807 7.44104034 372.30364017 8.34121384 372.312356 9.26866531 C372.30324696 10.75395988 372.30324696 10.75395988 372.2939539 12.26926041 C372.30183933 13.83032768 372.30183933 13.83032768 372.30988407 15.42293167 C372.32312999 18.87641614 372.31432956 22.32944281 372.3042078 25.78293228 C372.30622721 28.17424992 372.30913753 30.56556696 372.31290531 32.95688248 C372.3173349 37.97399114 372.31087709 42.99093983 372.29688358 48.00802994 C372.27979153 54.45142984 372.2896293 60.8944549 372.30760098 67.33784103 C372.31842159 72.27736632 372.31500037 77.21680218 372.3072176 82.15633011 C372.30521083 84.5326835 372.30769148 86.90904491 372.31465626 89.28538895 C372.32224232 92.60184736 372.31070613 95.91769169 372.2939539 99.23410416 C372.30002659 100.22430054 372.30609928 101.21449692 372.312356 102.23469925 C372.30389652 103.13487274 372.29543705 104.03504623 372.28672123 104.96249771 C372.28559015 105.74711128 372.28445908 106.53172485 372.28329372 107.34011459 C372.15871099 107.97093193 372.03412827 108.60174927 371.9057703 109.25168228 C368.71193582 111.38090527 367.93298504 111.50113411 364.27308464 111.49777794 C362.83767443 111.50375108 362.83767443 111.50375108 361.37326604 111.5098449 C360.31977568 111.50401922 359.26628532 111.49819353 358.18087101 111.49219131 C356.50481141 111.49475459 356.50481141 111.49475459 354.79489201 111.49736965 C351.03141291 111.50067744 347.26811007 111.48963953 343.50464725 111.47873306 C340.81457967 111.47816923 338.12452306 111.47839679 335.43445683 111.47961807 C329.63298354 111.48066775 323.83155518 111.47438251 318.03009319 111.4631424 C309.64211707 111.44690157 301.25416271 111.44168084 292.86617257 111.43916641 C279.25785885 111.43478708 265.64956907 111.42147152 252.04126835 111.40256119 C238.82056643 111.38420855 225.59987104 111.37007196 212.37915897 111.36154556 C211.55618464 111.36100957 210.73321031 111.36047357 209.88529736 111.35992134 C203.44928133 111.35576259 197.01326516 111.35184871 190.57724893 111.34801221 C159.02006741 111.32913829 127.46294582 111.28890325 95.9057703 111.25168228 C95.9057703 157.45168228 95.9057703 203.65168228 95.9057703 251.25168228 C102.5057703 247.29168228 109.1057703 243.33168228 115.9057703 239.25168228 C121.54851074 236.45004192 127.13597326 233.74689294 132.9057703 231.25168228 C133.95248905 230.78246353 134.9992078 230.31324478 136.0776453 229.82980728 C142.81029118 227.00418906 149.68584381 225.20733893 156.7807703 223.56418228 C157.65370731 223.36155777 158.52664433 223.15893326 159.42603397 222.95016861 C173.33591001 219.88930633 186.90737949 218.87132283 201.0932703 218.93918228 C202.31324711 218.94241501 202.31324711 218.94241501 203.55786991 218.94571304 C247.11657857 219.13068252 287.89126933 234.69997099 320.9057703 263.25168228 C321.73463749 263.94648697 322.56350468 264.64129166 323.41748905 265.35715103 C361.10582366 297.83893392 378.5995972 347.64237411 383.54126835 395.72580338 C383.81023202 398.32752696 384.10708586 400.91960548 384.42066288 403.51584244 C386.36041829 420.67583277 386.24613457 437.86901806 386.22144413 455.11349869 C386.21684503 458.59735514 386.22362648 462.08085975 386.24195194 465.56467056 C386.33860092 484.12273478 386.08415605 502.55267815 384.50342655 521.05246353 C384.4402606 521.79310673 384.37709465 522.53374992 384.31201458 523.29683685 C383.25083019 535.4337267 381.61343444 547.3699289 378.9057703 559.25168228 C378.72820194 560.05766861 378.55063358 560.86365494 378.36768436 561.69406509 C373.02237104 585.50500625 362.18325982 608.4849832 347.9057703 628.25168228 C347.25221561 629.20172134 346.59866093 630.15176041 345.92530155 631.13058853 C334.28413323 647.26339348 319.13650227 661.77234555 302.9057703 673.25168228 C302.19775272 673.7610231 301.48973515 674.27036392 300.76026249 674.79513931 C277.19404356 691.68176116 253.31747125 703.08738165 224.9057703 709.25168228 C223.32022343 709.60359634 223.32022343 709.60359634 221.7026453 709.96261978 C165.18756672 721.36478476 104.28539507 702.71384662 56.9057703 672.25168228 C15.36266573 644.32683955 -8.4844049 601.71576837 -18.05126095 553.04465103 C-19.18993929 546.88183202 -20.20233485 540.70495968 -21.0942297 534.50168228 C-21.31816402 533.0271962 -21.31816402 533.0271962 -21.54662228 531.52292252 C-21.66545773 530.61356949 -21.78429317 529.70421646 -21.9067297 528.76730728 C-22.01630001 527.96583267 -22.12587032 527.16435806 -22.23876095 526.33859634 C-22.0942297 524.25168228 -22.0942297 524.25168228 -20.8584137 522.64463902 C-18.64758441 520.89902203 -17.51698684 520.87685672 -14.72275448 520.87746048 C-13.82962048 520.87044617 -12.93648647 520.86343185 -12.0162878 520.85620499 C-11.03903744 520.86384872 -10.06178707 520.87149246 -9.05492306 520.87936783 C-7.5082671 520.87389183 -7.5082671 520.87389183 -5.93036556 520.86830521 C-2.51476845 520.86018484 0.90035651 520.87382156 4.31592655 520.88840103 C6.68339379 520.88891942 9.05086147 520.88840255 11.41832829 520.88689041 C16.3823879 520.8869802 21.34628533 520.8974239 26.31031132 520.91550064 C32.68524095 520.93820026 39.05993372 520.93873034 45.43489265 520.93198299 C50.32379622 520.92864782 55.2126454 520.93526438 60.10153866 520.94511223 C62.45276893 520.94897138 64.80400524 520.9501095 67.15523815 520.94852638 C70.43556295 520.94815711 73.71557952 520.96073686 76.99585819 520.97702408 C77.97513279 520.97454666 78.95440739 520.97206924 79.96335697 520.96951675 C80.85367115 520.97660156 81.74398533 520.98368637 82.66127872 520.99098587 C83.43721913 520.99303874 84.21315954 520.99509161 85.0126133 520.99720669 C86.9057703 521.25168228 86.9057703 521.25168228 88.9057703 523.25168228 C89.58838749 525.09250259 89.58838749 525.09250259 90.2026453 527.32980728 C90.43580448 528.15416275 90.66896366 528.97851822 90.90918827 529.82785416 C91.15556034 530.71021744 91.40193241 531.59258072 91.6557703 532.50168228 C98.37223033 555.55069758 109.92834856 577.22617571 131.60498905 589.38449478 C158.60495941 603.82234586 192.93165582 605.31817513 222.14161015 596.55807877 C236.45263558 591.86972913 248.89925878 584.41331429 256.5542078 571.09933853 C260.41172793 562.9717889 262.94716014 554.9161888 264.8432703 546.12668228 C265.22177128 544.3886232 265.22177128 544.3886232 265.60791874 542.61545181 C277.69965194 485.50211477 285.30457421 412.99894632 253.9526453 360.38058853 C244.34363218 345.69200168 229.96352416 337.42968959 213.0698328 333.31808853 C184.73690178 327.40832547 155.99616564 328.42485592 130.9057703 344.25168228 C118.033881 353.31189584 108.71340554 364.34811843 100.16455936 377.35519791 C94.43525007 385.9869424 94.43525007 385.9869424 91.9057703 387.25168228 C88.83462484 387.35571024 85.78596652 387.39848232 82.71436405 387.39694595 C81.28496998 387.40198387 81.28496998 387.40198387 79.82669926 387.40712357 C76.66554315 387.41665038 73.50443989 387.41857744 70.3432703 387.41965103 C68.15373557 387.42286201 65.96420106 387.42622595 63.77466679 387.42973709 C59.18131862 387.43573242 54.58798929 387.43757654 49.99463749 387.43698502 C44.09612504 387.43688328 38.19773265 387.45054565 32.2992487 387.46775723 C27.77665491 387.4788504 23.25409042 387.48090507 18.73148441 387.48037529 C16.5560855 387.48155908 14.38068592 387.48600298 12.20530033 387.49370766 C9.16917229 387.50345512 6.13330843 387.50065053 3.09717655 387.4946022 C2.19113682 387.50022171 1.28509708 387.50584122 0.3516016 387.51163101 C-5.86591347 387.47999851 -5.86591347 387.47999851 -8.0942297 385.25168228 C-8.34492803 382.54977942 -8.34492803 382.54977942 -8.34591198 379.02972031 C-8.34881886 378.38136469 -8.35172574 377.73300907 -8.35472071 377.06500632 C-8.36207574 374.87140216 -8.35505205 372.67807293 -8.34819698 370.48447037 C-8.35049925 368.90436964 -8.35367419 367.32426998 -8.35765147 365.74417257 C-8.36604034 361.38572087 -8.36185575 357.02735618 -8.35567904 352.66890407 C-8.35117219 347.97491777 -8.35812948 343.28094692 -8.36363888 338.58696365 C-8.3725535 329.38495346 -8.37060169 320.1829758 -8.3648136 310.9809643 C-8.36030522 303.50533888 -8.35968062 296.02972261 -8.36186123 288.55409622 C-8.3621677 287.49198129 -8.36247416 286.42986636 -8.36278991 285.33556613 C-8.36342934 283.17820966 -8.36407776 281.02085319 -8.3647351 278.86349672 C-8.37044445 258.61215885 -8.36387102 238.36083907 -8.35313436 218.10950416 C-8.34419831 200.71564432 -8.34575018 183.32181117 -8.35497189 165.92795181 C-8.36566384 145.75134354 -8.36989507 125.57475114 -8.36374736 105.39814043 C-8.36311023 103.2485164 -8.36248149 101.09889237 -8.36186123 98.94926834 C-8.36155268 97.89148551 -8.36124413 96.83370268 -8.36092623 95.74386582 C-8.35919606 88.27325679 -8.3621213 80.80265779 -8.36682034 73.33205032 C-8.37241726 64.23356358 -8.37093787 55.13511137 -8.36025885 46.0366286 C-8.35498605 41.39038623 -8.35297259 36.74420152 -8.35955715 32.09795952 C-8.36548566 27.85055675 -8.36229321 23.60326548 -8.35160205 19.35587293 C-8.34935477 17.81351276 -8.35053372 16.27114331 -8.35535362 14.72878903 C-8.36137359 12.64360395 -8.35526075 10.55880845 -8.34591198 8.47364426 C-8.34558728 7.31202475 -8.34526257 6.15040524 -8.34492803 4.95358515 C-7.83917947 -0.49712317 -4.66804732 0.00133337 0 0 Z " fill="#000000" transform="translate(1508.0942296981812,255.74831771850586)"/>
<path d="M0 0 C0.98262314 -0.00701431 1.96524628 -0.01402863 2.97764587 -0.02125549 C6.12837365 -0.03864926 9.27891349 -0.04510697 12.4296875 -0.046875 C14.04422318 -0.04788712 14.04422318 -0.04788712 15.69137573 -0.04891968 C31.42194435 -0.03323616 46.80159078 0.27329534 62.3046875 3.203125 C63.28034668 3.38536621 64.25600586 3.56760742 65.26123047 3.75537109 C71.99096704 5.04942646 78.65479663 6.5492332 85.3046875 8.203125 C86.42399658 8.47697021 86.42399658 8.47697021 87.56591797 8.75634766 C125.82617701 18.34576227 159.38691976 39.88330059 187.3046875 67.203125 C187.96952148 67.84749512 188.63435547 68.49186523 189.31933594 69.15576172 C197.18250168 76.78765788 204.59993733 84.51316947 211.3046875 93.203125 C212.08972656 94.1828125 212.87476562 95.1625 213.68359375 96.171875 C229.98153379 116.64630273 242.95806898 139.7859109 252.3046875 164.203125 C252.60713379 164.97769043 252.90958008 165.75225586 253.22119141 166.55029297 C267.04619709 202.303601 267.04619709 202.303601 265.3046875 215.203125 C262.39946408 217.95021507 260.39037412 218.57948349 256.44004822 218.59080505 C255.46284317 218.60070969 254.48563812 218.61061432 253.4788208 218.62081909 C252.41322937 218.61631744 251.34763794 218.6118158 250.24975586 218.60717773 C249.12257645 218.61404099 247.99539703 218.62090424 246.83406067 218.62797546 C243.10408983 218.64629397 239.37453747 218.64239926 235.64453125 218.63671875 C233.056685 218.64127747 230.46883996 218.64658211 227.8809967 218.65260315 C222.45633447 218.66154374 217.03183347 218.65933267 211.60717773 218.64916992 C205.33472574 218.63767864 199.06270081 218.65178156 192.79030508 218.6785664 C186.75570875 218.70337155 180.72133267 218.70590599 174.68667793 218.69944954 C172.11855928 218.69929578 169.55043261 218.70538499 166.98234367 218.71774101 C163.39797701 218.73255849 159.81456078 218.72204177 156.23022461 218.70483398 C155.16260895 218.71450195 154.09499329 218.72416992 152.99502563 218.73413086 C151.5334478 218.71937965 151.5334478 218.71937965 150.04234314 218.70433044 C149.1948799 218.70412116 148.34741667 218.70391188 147.47427273 218.70369625 C145.3046875 218.203125 145.3046875 218.203125 143.56981754 216.29827976 C142.3303781 214.24567066 141.36059735 212.26879876 140.47265625 210.04296875 C140.15264648 209.25519043 139.83263672 208.46741211 139.50292969 207.65576172 C139.16938477 206.8257666 138.83583984 205.99577148 138.4921875 205.140625 C129.05281861 182.34664581 114.70396641 161.70825769 95.3046875 146.203125 C94.38816406 145.43742188 93.47164062 144.67171875 92.52734375 143.8828125 C65.08918867 121.43459731 31.00114192 115.85426639 -3.640625 118.42138672 C-36.97024685 121.95954993 -67.89405414 140.00185315 -89.6953125 165.203125 C-123.87611864 208.17230045 -122.85383608 264.8947248 -122.86256957 316.9414773 C-122.86329071 319.36775462 -122.86544465 321.79402661 -122.86806679 324.22030258 C-122.87726685 332.75575864 -122.88140892 341.2911993 -122.88061523 349.82666016 C-122.88001766 357.66648177 -122.89052028 365.50623388 -122.9063589 373.34603798 C-122.91963219 380.16992091 -122.92479095 386.99378171 -122.92415982 393.81767738 C-122.92391031 397.85164279 -122.92644505 401.88554641 -122.93733788 405.91949844 C-122.97987765 422.87054603 -122.71500964 439.75562379 -121.7668457 456.68310547 C-121.70451675 457.80568988 -121.70451675 457.80568988 -121.64092863 458.95095277 C-119.14897236 502.83869084 -106.52608615 543.04675933 -73.50976562 573.60009766 C-43.9021902 599.75770533 -8.09163793 606.14996457 30.3046875 604.203125 C37.16845617 603.58153499 43.71223043 602.18131376 50.3046875 600.203125 C51.0373584 599.98881836 51.7700293 599.77451172 52.52490234 599.55371094 C72.72149915 593.47482287 88.99892802 582.64988778 104.3046875 568.203125 C104.98015625 567.58050781 105.655625 566.95789063 106.3515625 566.31640625 C120.2797052 553.02895812 129.98406365 535.87053985 138.99414062 519.05395508 C139.38408203 518.33361084 139.77402344 517.6132666 140.17578125 516.87109375 C140.51536865 516.23453857 140.85495605 515.5979834 141.20483398 514.94213867 C142.4367553 512.99430837 143.51472086 511.66716617 145.3046875 510.203125 C147.49268341 509.82560158 147.49268341 509.82560158 150.08703613 509.82217407 C151.07128067 509.8137146 152.05552521 509.80525513 153.06959534 509.79653931 C154.14813278 509.802612 155.22667023 509.80868469 156.33789062 509.81494141 C158.04307106 509.80705597 158.04307106 509.80705597 159.78269958 509.79901123 C163.55058421 509.78577806 167.31804838 509.79456139 171.0859375 509.8046875 C173.69763266 509.80266773 176.30932728 509.7997571 178.92102051 509.79598999 C184.39872822 509.79053101 189.87631461 509.7977277 195.35400391 509.81201172 C201.68828888 509.82833864 208.02228418 509.82305022 214.35656214 509.8065325 C220.44827273 509.7912827 226.53985481 509.79289099 232.63157654 509.8016777 C235.22480815 509.8036832 237.81804712 509.80120827 240.41127014 509.79423904 C244.03154261 509.78664555 247.65125385 509.79820001 251.27148438 509.81494141 C252.88929054 509.80583237 252.88929054 509.80583237 254.53977966 509.79653931 C255.5240242 509.80499878 256.50826874 509.81345825 257.52233887 509.82217407 C258.37847527 509.82330515 259.23461166 509.82443623 260.11669159 509.82560158 C262.3046875 510.203125 262.3046875 510.203125 264.10968781 511.48840904 C265.92389305 514.0916287 265.29529951 516.43174757 264.84326172 519.44189453 C263.745703 525.06899749 262.34468477 530.60250119 260.8671875 536.140625 C260.69372803 536.79219574 260.52026855 537.44376648 260.34155273 538.11508179 C256.64897731 551.86749922 251.85466227 565.08688389 246.3046875 578.203125 C245.96469727 579.01023926 245.62470703 579.81735352 245.27441406 580.64892578 C234.39588203 606.04505208 218.29427766 628.8835982 198.96337891 648.51367188 C197.50134111 650.0028243 196.0631693 651.51532818 194.62890625 653.03125 C188.08485781 659.8430582 180.84371599 665.55142072 173.3046875 671.203125 C172.74797363 671.6259375 172.19125977 672.04875 171.61767578 672.484375 C149.43347741 689.26178942 123.8627292 702.04956518 97.3046875 710.203125 C96.44053223 710.46963867 95.57637695 710.73615234 94.68603516 711.01074219 C48.24728661 725.06870185 -1.29199223 725.41851078 -48.6953125 716.203125 C-49.47841797 716.05117676 -50.26152344 715.89922852 -51.06835938 715.74267578 C-90.1370415 707.91336725 -124.3796231 687.48912366 -154.10717773 661.58642578 C-155.25083943 660.59027095 -156.39939847 659.59972861 -157.55102539 658.61279297 C-169.24407973 648.52629751 -180.34737579 637.51278423 -189.6953125 625.203125 C-190.43910156 624.25308594 -191.18289063 623.30304687 -191.94921875 622.32421875 C-221.81399732 583.56569901 -235.46286268 538.36883613 -238.6953125 490.203125 C-238.77895302 488.99686211 -238.86259354 487.79059921 -238.94876862 486.5477829 C-240.5248109 463.43580842 -240.99756578 440.42025951 -240.96396351 417.25874233 C-240.95875578 412.51097364 -240.96363542 407.76321105 -240.96673584 403.01544189 C-240.97033814 395.04185572 -240.96568077 387.068307 -240.95605469 379.09472656 C-240.94641799 371.02178519 -240.9463948 362.94891785 -240.95605469 354.87597656 C-241.04625413 277.40554432 -241.04625413 277.40554432 -239.8046875 249.53125 C-239.76585701 248.65638695 -239.72702652 247.7815239 -239.68701935 246.88014984 C-239.23723438 237.21816631 -238.51709173 227.58381427 -237.69775391 217.9465332 C-237.61636547 216.98442806 -237.53497704 216.02232292 -237.45112228 215.03106308 C-236.82521479 207.95688747 -235.83675489 201.08452189 -234.3203125 194.140625 C-234.10044678 193.09463135 -233.88058105 192.0486377 -233.65405273 190.97094727 C-222.09552324 137.04091821 -191.03939884 89.18816436 -147.6953125 55.203125 C-146.53059259 54.25109014 -145.36795183 53.29650787 -144.20703125 52.33984375 C-103.35252896 18.82604922 -53.0429692 0.25515057 0 0 Z " fill="#000000" transform="translate(2221.6953125,245.796875)"/>
<path d="M0 0 C0.95900208 -0.00990463 1.91800415 -0.01980927 2.90606689 -0.03001404 C4.48179474 -0.02326157 4.48179474 -0.02326157 6.08935547 -0.01637268 C7.19688171 -0.02323593 8.30440796 -0.03009918 9.44549561 -0.03717041 C13.11597417 -0.05551106 16.78602831 -0.05159074 20.45654297 -0.0459137 C23.00097799 -0.0504717 25.54541177 -0.05577613 28.08984375 -0.0617981 C33.42632625 -0.0707433 38.76265318 -0.06852243 44.09912109 -0.05836487 C50.26987632 -0.04687894 56.44019717 -0.06096549 62.61089516 -0.08776134 C68.54561655 -0.11256858 74.4802026 -0.11510027 80.41497803 -0.10864449 C82.9412305 -0.10849071 85.46749112 -0.11458073 87.99371338 -0.12693596 C91.52071795 -0.14175529 95.04675685 -0.13123501 98.57373047 -0.11402893 C99.6242157 -0.1236969 100.67470093 -0.13336487 101.75701904 -0.14332581 C102.71602112 -0.13349167 103.67502319 -0.12365753 104.66308594 -0.11352539 C105.4970993 -0.11331611 106.33111267 -0.11310682 107.19039917 -0.1128912 C109.33154297 0.38768005 109.33154297 0.38768005 110.94229299 1.8025524 C113.10829936 5.83307466 112.73798756 9.74399191 112.70068645 14.25029373 C112.70587875 15.77675311 112.70587875 15.77675311 112.71117595 17.33405006 C112.71916811 20.77185144 112.70561519 24.20923817 112.69230652 27.64701843 C112.69361376 30.12535188 112.69623867 32.60368493 112.70007402 35.08201575 C112.7053983 40.48464216 112.7013539 45.88714251 112.68915939 51.28974915 C112.67107686 59.32324013 112.67014987 67.3566685 112.67278536 75.39017612 C112.6767301 88.90285433 112.66669134 102.41548858 112.64873314 115.92815399 C112.63099312 129.31090258 112.61943754 142.69363287 112.6161747 156.07639313 C112.61596848 156.90792624 112.61576226 157.73945935 112.61554979 158.59619043 C112.61453482 162.81898153 112.61363066 167.04177264 112.61276916 171.26456377 C112.60646488 201.18875302 112.5862443 231.11291835 112.55786133 261.03709412 C112.53031633 290.11131157 112.50906143 319.18552248 112.49633789 348.25975037 C112.49594331 349.15565781 112.49554873 350.05156525 112.4951422 350.9746214 C112.4911867 359.97154283 112.48735925 368.96846431 112.48362562 377.96538583 C112.47601661 396.29379334 112.46755285 414.62220042 112.45857239 432.9506073 C112.45795458 434.21472359 112.45795458 434.21472359 112.4573243 435.50437758 C112.42971382 491.79882178 112.38211492 548.09325239 112.33154297 604.38768005 C113.04945377 604.38616117 113.76736457 604.38464229 114.50703025 604.38307738 C157.02774969 604.29362374 199.54845892 604.22496353 242.06925355 604.18341874 C247.17133195 604.17841573 252.27341016 604.17323846 257.37548828 604.16795349 C258.39124806 604.16690425 259.40700784 604.16585501 260.45354822 604.16477397 C276.91465191 604.1473544 293.3756999 604.11580818 309.8367705 604.07906887 C326.71917161 604.0417026 343.60154347 604.01945335 360.48398423 604.01132607 C370.90683378 604.00582933 381.32952589 603.98844969 391.752327 603.95601419 C398.89332443 603.93491952 406.03424012 603.92846852 413.17526647 603.93367454 C417.29931275 603.93624422 421.42308336 603.93222205 425.54708099 603.91085815 C429.31983291 603.89145593 433.09212261 603.89036832 436.86489537 603.90408447 C438.88207777 603.90658665 440.89925439 603.8892779 442.91635871 603.87135482 C444.1086774 603.87931901 445.30099609 603.88728321 446.52944565 603.89548874 C448.07642627 603.89321042 448.07642627 603.89321042 449.65465903 603.89088607 C453.03654047 604.51851819 454.22029673 605.72841337 456.33154297 608.38768005 C456.83211422 610.50852203 456.83211422 610.50852203 456.83274841 612.82798767 C456.84258255 613.71119186 456.85241669 614.59439606 456.86254883 615.50436401 C456.85288086 616.46552628 456.84321289 617.42668854 456.83325195 618.41697693 C456.84135643 619.94440269 456.84135643 619.94440269 456.84962463 621.50268555 C456.86213873 624.87089543 456.84560242 628.23825505 456.82763672 631.60643005 C456.82779164 633.94525701 456.82927954 636.28408422 456.83204651 638.62290955 C456.83343171 643.52557214 456.82085178 648.42794261 456.7980957 653.33055115 C456.76971107 659.61901837 456.77244696 665.90700009 456.78518581 672.19550323 C456.79213641 677.02531592 456.78436072 681.85501613 456.77192879 686.68481445 C456.76740829 689.00368824 456.76708269 691.32257408 456.77099419 693.64144897 C456.77390026 696.88067939 456.7574276 700.11923763 456.7355957 703.35838318 C456.74234818 704.80012657 456.74234818 704.80012657 456.74923706 706.27099609 C456.73933243 707.15420029 456.7294278 708.03740448 456.71922302 708.94737244 C456.71557818 710.09550793 456.71557818 710.09550793 456.7118597 711.26683807 C456.1939526 714.15495483 455.44528606 715.32631192 453.33154297 717.38768005 C450.68451199 717.78731801 448.44882297 717.92337256 445.799613 717.8882513 C444.63287421 717.89652255 444.63287421 717.89652255 443.44256493 717.9049609 C440.81433502 717.9186468 438.18703613 717.90361069 435.55882263 717.8888855 C433.66437123 717.89277511 431.76992274 717.89841281 429.87548119 717.9056564 C424.65269514 717.92047775 419.43020854 717.91019033 414.20743191 717.89591968 C408.58161152 717.88485166 402.95583459 717.89673859 397.33001709 717.90576172 C386.3026331 717.91972445 375.27536329 717.91211578 364.2479847 717.89708614 C351.41844033 717.88026289 338.5889247 717.8834316 325.75937272 717.88718022 C302.18398603 717.89324221 278.60867326 717.87743483 255.03330474 717.85199258 C233.49671198 717.82887374 211.96018635 717.82348991 190.42358398 717.83372498 C184.90868095 717.83632684 179.3937779 717.8389118 173.87887478 717.8413229 C172.86055376 717.84176907 172.86055376 717.84176907 171.82166059 717.84222425 C153.8423824 717.84983309 135.8631118 717.8433734 117.88383538 717.83262688 C115.30789793 717.83110097 112.73196048 717.82958061 110.15602303 717.82806587 C108.8884628 717.82730806 107.62090257 717.82655024 106.31493143 717.82576947 C97.3620278 717.82101738 88.4091393 717.82288459 79.45623589 717.82713127 C68.55348606 717.83204662 57.65080581 717.82612422 46.74807196 717.80623697 C41.18031226 717.79633287 35.61265872 717.79129332 30.04489326 717.79912949 C24.9555474 717.80614603 19.8664165 717.79947686 14.77709914 717.78152586 C12.92858275 717.77745506 11.08004701 717.77852477 9.23153763 717.78504472 C6.7333063 717.79310723 4.23581488 717.78299131 1.7376318 717.76799679 C0.64220732 717.77810326 0.64220732 717.77810326 -0.47534695 717.78841391 C-2.48039061 717.76487821 -2.48039061 717.76487821 -5.66845703 717.38768005 C-7.84244187 714.1267028 -7.9187776 713.22930727 -7.92030603 709.45958376 C-7.92556929 708.43445092 -7.93083255 707.40931809 -7.93625531 706.35312063 C-7.93185882 705.2211696 -7.92746234 704.08921857 -7.92293262 702.922966 C-7.9261391 701.71996957 -7.92934558 700.51697314 -7.93264922 699.27752227 C-7.93955351 695.91750751 -7.93742484 692.5577121 -7.9315935 689.19770928 C-7.92744023 685.55021152 -7.93481542 681.90273465 -7.94074601 678.25524187 C-7.94953146 671.85565892 -7.95081183 665.45610795 -7.94724274 659.05652046 C-7.94194942 649.54034097 -7.94801715 640.02419261 -7.95632567 630.50801651 C-7.97159292 612.52631072 -7.97326797 594.54461897 -7.97080264 576.56290805 C-7.96897241 562.68142264 -7.97072391 548.79994186 -7.97502708 534.91845703 C-7.97562947 532.92652854 -7.97623067 530.93460006 -7.97683069 528.94267157 C-7.97773791 525.94130721 -7.97864657 522.93994285 -7.97956304 519.93857849 C-7.98799663 492.02173776 -7.99232543 464.10489877 -7.98815632 436.18805695 C-7.98799994 435.134917 -7.98784357 434.08177706 -7.98768245 432.99672379 C-7.98687663 427.65857361 -7.98603086 422.32042345 -7.98516915 416.98227328 C-7.98499806 415.92203379 -7.98482697 414.8617943 -7.9846507 413.76942634 C-7.98430405 411.62536351 -7.98395552 409.48130067 -7.98360512 407.33723784 C-7.97824623 373.96520683 -7.98618142 340.59320223 -8.00463867 307.22117615 C-8.02533444 269.75756921 -8.03608608 232.29397864 -8.03206319 194.83036566 C-8.03166782 190.83921147 -8.03130627 186.84805727 -8.03096581 182.85690308 C-8.03087507 181.87412485 -8.03078434 180.89134663 -8.03069086 179.87878725 C-8.02952279 165.01500983 -8.03618901 150.15124889 -8.04677773 135.28747559 C-8.05880083 118.39261277 -8.06042212 101.49778636 -8.04798756 84.60292304 C-8.04133448 75.13870326 -8.04304608 65.67457039 -8.05657607 56.21035748 C-8.06477607 49.89804887 -8.06218147 43.58580585 -8.05060081 37.27350265 C-8.04429985 33.67066642 -8.04285685 30.06800063 -8.05446414 26.46517378 C-8.06682149 22.59415973 -8.05625379 18.72341065 -8.04318714 14.8523941 C-8.05049649 13.72044308 -8.05780583 12.58849205 -8.06533667 11.42223948 C-8.05808234 10.39710665 -8.05082801 9.37197381 -8.04335386 8.31577635 C-8.04337432 7.42969772 -8.04339478 6.54361909 -8.04341586 5.63068959 C-7.25005344 0.88478332 -4.40699424 0.01283976 0 0 Z " fill="#000000" transform="translate(731.66845703125,249.61231994628906)"/>
<path d="M0 0 C16.38894328 14.03842378 28.181035 34.17754002 35.03955078 54.43847656 C35.68002414 56.30510415 36.36787656 58.15528124 37.05859375 60.00390625 C43.5751297 78.5829662 44.86293163 98.984436 46.47630882 118.50330734 C46.63828491 120.45060633 46.80378847 122.39761503 46.9727726 124.34431839 C48.46374893 141.63629442 49.00423101 158.7779531 48.94921875 176.12890625 C48.94802102 178.6855975 48.94757503 181.2422892 48.9478302 183.79898071 C48.94628327 189.10478073 48.93838876 194.41052819 48.92456055 199.71630859 C48.90879944 205.78481074 48.90356495 211.8532493 48.9042961 217.92177045 C48.90491344 223.85432446 48.89963358 229.78686085 48.89150429 235.71940994 C48.88836393 238.20286566 48.88636131 240.68632314 48.88561058 243.16978073 C48.87396809 261.5309208 48.55751072 279.87006391 46.90625 298.16796875 C46.78648804 299.52305542 46.78648804 299.52305542 46.66430664 300.90551758 C45.82258327 309.99027322 44.74764387 319.0479702 43.65625 328.10546875 C43.5683017 328.83882446 43.48035339 329.57218018 43.38973999 330.32775879 C43.13688771 332.42466302 42.87989328 334.52100977 42.62109375 336.6171875 C42.47148193 337.83237061 42.32187012 339.04755371 42.16772461 340.29956055 C41.81565435 342.74490771 41.38718585 345.04478235 40.71875 347.41796875 C36.19564648 345.93277058 32.8596864 343.38603484 29.21875 340.41796875 C27.96403787 339.4134424 26.70881892 338.4095488 25.453125 337.40625 C24.82470703 336.90174316 24.19628906 336.39723633 23.54882812 335.87744141 C20.88220578 333.75083143 18.17748319 331.67826838 15.46875 329.60546875 C5.3055044 321.8124389 -4.80703726 313.95204476 -14.8671875 306.02636719 C-16.00610241 305.13030913 -17.14669491 304.23637868 -18.2890625 303.34472656 C-21.15573297 301.10597749 -23.99016292 298.83872718 -26.7890625 296.515625 C-27.93228266 295.5872285 -29.07551151 294.65884268 -30.21875 293.73046875 C-31.71728516 292.48716797 -31.71728516 292.48716797 -33.24609375 291.21875 C-37.03362234 288.97158053 -38.94982194 288.60521764 -43.28125 289.41796875 C-45.55540035 291.44285499 -47.15579919 293.1623768 -48.96875 295.54296875 C-50.01377111 296.83768517 -51.0593599 298.13194355 -52.10546875 299.42578125 C-52.63188965 300.09125977 -53.15831055 300.75673828 -53.70068359 301.44238281 C-56.14890268 304.50246759 -58.71595965 307.45604473 -61.28125 310.41796875 C-62.28190759 311.58407144 -63.28190598 312.75074013 -64.28125 313.91796875 C-82.28125 334.91796875 -82.28125 334.91796875 -83.78320312 336.67016602 C-84.77680008 337.82941644 -85.77029078 338.98875795 -86.76367188 340.14819336 C-89.36074595 343.17910849 -91.95999713 346.20811944 -94.5625 349.234375 C-95.10132813 349.86150391 -95.64015625 350.48863281 -96.1953125 351.13476562 C-97.22066633 352.32806534 -98.24666414 353.52081213 -99.2734375 354.71289062 C-100.61580683 356.275898 -101.94881664 357.84649333 -103.28125 359.41796875 C-104.41820312 360.73667969 -104.41820312 360.73667969 -105.578125 362.08203125 C-107.79450692 365.12193122 -107.99110027 367.71855964 -108.28125 371.41796875 C-107.70761719 371.6809375 -107.13398438 371.94390625 -106.54296875 372.21484375 C-104.13502422 373.4957538 -102.20897549 374.94583826 -100.09375 376.66796875 C-99.21976563 377.37824219 -98.34578125 378.08851563 -97.4453125 378.8203125 C-96.3903837 379.68590392 -95.33572028 380.55181882 -94.28125 381.41796875 C-93.64928711 381.93504395 -93.01732422 382.45211914 -92.36621094 382.98486328 C-84.43477696 389.47541383 -76.54734162 396.0127728 -68.74291992 402.65551758 C-64.8495044 405.96078536 -60.87777359 409.15319032 -56.875 412.32421875 C-53.80044962 414.80608472 -50.78962375 417.35663821 -47.78125 419.91796875 C-39.8195618 426.68964546 -31.6947001 433.21363683 -23.28125 439.41796875 C-24.49540745 443.06044109 -25.88571898 443.54038077 -29.19262695 445.22192383 C-30.22649536 445.72115356 -30.22649536 445.72115356 -31.28125 446.23046875 C-31.99821045 446.57940186 -32.7151709 446.92833496 -33.45385742 447.2878418 C-65.21733194 462.39077472 -104.03147192 464.57870531 -137.49291992 453.49902344 C-173.93350586 440.47713112 -199.82139982 412.12784664 -216.17919922 377.85205078 C-224.49993258 359.47417936 -227.93053965 340.49063796 -229.96875 320.54296875 C-230.08831055 319.39401123 -230.20787109 318.24505371 -230.33105469 317.0612793 C-233.15847463 286.55177901 -232.46905661 255.71022846 -232.46655273 225.10888672 C-232.46647158 219.99589493 -232.47341113 214.88299294 -232.48706055 209.77001953 C-232.67471069 138.39588104 -232.67471069 138.39588104 -228.56103516 103.90771484 C-228.23473833 101.00407173 -227.96739656 98.09707566 -227.69921875 95.1875 C-225.1791136 69.07614436 -218.38205952 42.66302031 -202.28125 21.41796875 C-201.74242187 20.66 -201.20359375 19.90203125 -200.6484375 19.12109375 C-182.63024917 -5.42542368 -153.02264549 -25.12368362 -123.27392578 -31.17529297 C-121.58315676 -31.52040706 -119.89821415 -31.893875 -118.21484375 -32.2734375 C-75.95561943 -40.49530019 -32.86946298 -26.22844834 0 0 Z " fill="#FEFEFE" transform="translate(417.28125,398.58203125)"/>
<path d="M0 0 C0.900103 -0.00845947 1.80020599 -0.01691895 2.72758484 -0.02563477 C3.7126149 -0.01956207 4.69764496 -0.01348938 5.71252441 -0.00723267 C7.27140129 -0.0151181 7.27140129 -0.0151181 8.86177063 -0.02316284 C12.30501227 -0.03639174 15.7477935 -0.02761429 19.19104004 -0.01748657 C21.57853281 -0.01950647 23.96602497 -0.0224172 26.35351562 -0.02618408 C31.36045193 -0.03061136 36.36722783 -0.02416323 41.37414551 -0.01016235 C47.80060341 0.00692956 54.22668547 -0.00290943 60.65312958 -0.02087975 C65.58411505 -0.03170656 70.51501102 -0.02827627 75.44599915 -0.02049637 C77.81594385 -0.01849132 80.18589661 -0.02096427 82.55583191 -0.02793503 C85.86479295 -0.03553121 89.17314046 -0.02397051 92.48205566 -0.00723267 C93.46708572 -0.01330536 94.45211578 -0.01937805 95.46699524 -0.02563477 C96.36709824 -0.01717529 97.26720123 -0.00871582 98.19458008 0 C99.36816952 0.00169662 99.36816952 0.00169662 100.56546783 0.00342751 C103.18677534 0.49048045 104.05703204 1.21983569 105.59729004 3.38095093 C105.97202015 5.41277313 105.97202015 5.41277313 105.97151184 7.78366089 C105.97852615 8.68376389 105.98554047 9.58386688 105.99276733 10.51124573 C105.9851236 11.49627579 105.97747986 12.48130585 105.96960449 13.4961853 C105.97325516 14.53543655 105.97690582 15.57468781 105.98066711 16.64543152 C105.98878848 20.08868635 105.97514899 23.53147293 105.96057129 26.97470093 C105.96005287 29.36219279 105.96056985 31.74968508 105.96208191 34.13717651 C105.96199211 39.14411785 105.9515477 44.15089841 105.93347168 49.1578064 C105.91078441 55.5842031 105.91023969 62.01036474 105.91698933 68.43679047 C105.92032666 73.36776834 105.91370364 78.29869237 105.90386009 83.22966003 C105.90000374 85.59960142 105.89886167 87.9695488 105.90044594 90.3394928 C105.90081572 93.64835068 105.88822064 96.95690426 105.87194824 100.26571655 C105.87442566 101.25074661 105.87690308 102.23577667 105.87945557 103.25065613 C105.87237076 104.15075912 105.86528595 105.05086212 105.85798645 105.97824097 C105.85490715 107.15183041 105.85490715 107.15183041 105.85176563 108.34912872 C105.59729004 110.38095093 105.59729004 110.38095093 103.59729004 113.38095093 C101.65448761 113.75847435 101.65448761 113.75847435 99.23217773 113.76190186 C97.85667503 113.77459106 97.85667503 113.77459106 96.4533844 113.78753662 C95.44448654 113.78146393 94.43558868 113.77539124 93.39611816 113.76913452 C91.80579018 113.77701996 91.80579018 113.77701996 90.18333435 113.7850647 C86.66492145 113.79831122 83.14695785 113.78950995 79.62854004 113.77938843 C77.19238192 113.78140782 74.7562244 113.78431812 72.32006836 113.78808594 C67.20880389 113.79251561 62.09769645 113.78605744 56.9864502 113.77206421 C50.42198437 113.75497216 43.85788646 113.76480988 37.29343414 113.7827816 C32.2612631 113.79360199 27.22917985 113.7901811 22.19700623 113.78239822 C19.77599545 113.78039139 17.35497681 113.78287232 14.93397522 113.78983688 C11.5552548 113.79742256 8.17713722 113.78588725 4.79846191 113.76913452 C3.78956406 113.77520721 2.7806662 113.78127991 1.74119568 113.78753662 C0.82419388 113.77907715 -0.09280792 113.77061768 -1.03759766 113.76190186 C-1.83695992 113.76077078 -2.63632217 113.7596397 -3.45990753 113.75847435 C-4.10103233 113.63389162 -4.74215714 113.50930889 -5.40270996 113.38095093 C-7.49120089 110.24821453 -7.6540566 109.54164017 -7.66340637 105.97824097 C-7.67049118 105.07813797 -7.67757599 104.17803497 -7.68487549 103.25065613 C-7.68239807 102.26562607 -7.67992065 101.28059601 -7.67736816 100.26571655 C-7.6824791 99.2264653 -7.68759003 98.18721405 -7.69285583 97.11647034 C-7.70678228 93.67332234 -7.70579292 90.23037378 -7.70349121 86.78720093 C-7.70737612 84.3997083 -7.71171036 82.01221637 -7.71647644 79.62472534 C-7.72394498 74.61782593 -7.72364251 69.61099703 -7.71838379 64.60409546 C-7.71258476 58.17765563 -7.72952779 51.7515036 -7.75272846 45.32511139 C-7.76743578 40.39413761 -7.76834166 35.46323365 -7.76521873 30.53224182 C-7.76573334 28.16229176 -7.77099702 25.79233793 -7.78103065 23.42240906 C-7.79332106 20.11347554 -7.78664795 16.80510925 -7.77502441 13.4961853 C-7.78266815 12.51115524 -7.79031189 11.52612518 -7.79818726 10.51124573 C-7.79117294 9.61114273 -7.78415863 8.71103973 -7.77693176 7.78366089 C-7.7770995 7.00126793 -7.77726725 6.21887497 -7.77744007 5.41277313 C-6.94785219 0.91466894 -4.21891151 0.00609913 0 0 Z " fill="#000000" transform="translate(1285.4027099609375,853.6190490722656)"/>
</svg>
