<?xml version="1.0" encoding="UTF-8"?>
<!DOCTYPE svg PUBLIC "-//W3C//DTD SVG 1.1//EN" "http://www.w3.org/Graphics/SVG/1.1/DTD/svg11.dtd">
<svg xmlns="http://www.w3.org/2000/svg" version="1.1" width="2560px" height="1197px" style="shape-rendering:geometricPrecision; text-rendering:geometricPrecision; image-rendering:optimizeQuality; fill-rule:evenodd; clip-rule:evenodd" xmlns:xlink="http://www.w3.org/1999/xlink">
<g><path style="opacity:0.993" fill="#000000" d="M 51.5,-0.5 C 870.167,-0.5 1688.83,-0.5 2507.5,-0.5C 2535.17,6.5 2552.5,23.8333 2559.5,51.5C 2559.5,415.5 2559.5,779.5 2559.5,1143.5C 2551.14,1175.53 2530.47,1193.19 2497.5,1196.5C 1685.5,1196.5 873.5,1196.5 61.5,1196.5C 28.5344,1193.2 7.8677,1175.53 -0.5,1143.5C -0.5,779.5 -0.5,415.5 -0.5,51.5C 6.5,23.8333 23.8333,6.5 51.5,-0.5 Z"/></g>
<g><path style="opacity:1" fill="#fefefe" d="M 56.5,41.5 C 872.554,41.0008 1688.55,41.5008 2504.5,43C 2510.39,45.8924 2514.56,50.3924 2517,56.5C 2518,417.888 2517.66,779.221 2516,1140.5C 2513.01,1146.82 2508.18,1150.99 2501.5,1153C 1686.5,1153.67 871.5,1153.67 56.5,1153C 49.2417,1150.08 44.4084,1144.91 42,1137.5C 41.3333,777.167 41.3333,416.833 42,56.5C 45.0214,49.6468 49.8548,44.6468 56.5,41.5 Z"/></g>
<g><path style="opacity:1" fill="#000000" d="M 275.5,249.5 C 311.566,247.879 345.566,255.379 377.5,272C 444.257,315.971 482.757,377.804 493,457.5C 497.739,538.445 498.739,619.445 496,700.5C 496.132,735.92 492.465,770.92 485,805.5C 482.799,813.271 480.299,820.938 477.5,828.5C 477.608,829.442 477.941,830.275 478.5,831C 502.97,853.802 527.137,876.969 551,900.5C 553,903.167 553,905.833 551,908.5C 533.622,932.755 516.122,956.922 498.5,981C 496.833,981.667 495.167,981.667 493.5,981C 473.833,962 454.167,943 434.5,924C 430.655,920.82 426.822,917.653 423,914.5C 361.945,972.112 291.778,986.612 212.5,958C 184.182,944.58 160.015,925.746 140,901.5C 104.591,858.307 84.924,808.64 81,752.5C 76.3465,658.166 76.3465,563.833 81,469.5C 87.1915,386.919 124.025,322.085 191.5,275C 217.635,259.972 245.635,251.472 275.5,249.5 Z"/></g>
<g><path style="opacity:1" fill="#000000" d="M 1780.5,252.5 C 1837.79,249.234 1883.29,270.567 1917,316.5C 1962.12,382.646 1973.45,454.312 1951,531.5C 1941.99,558.003 1927.16,580.669 1906.5,599.5C 1938.56,629.615 1958.06,666.615 1965,710.5C 1973.33,766.223 1966.33,819.889 1944,871.5C 1927.5,905.005 1903.33,931.505 1871.5,951C 1800.73,985.067 1738.23,973.9 1684,917.5C 1652.17,878.012 1635.33,832.845 1633.5,782C 1662.17,781.167 1690.84,781.333 1719.5,782.5C 1724.45,798.72 1731.28,814.054 1740,828.5C 1760.89,857.184 1788.39,866.351 1822.5,856C 1856.55,839.582 1875.38,812.415 1879,774.5C 1881.45,750.97 1879.11,727.97 1872,705.5C 1860.54,677.038 1840.04,658.871 1810.5,651C 1794.5,650.667 1778.5,650.333 1762.5,650C 1762,649.5 1761.5,649 1761,648.5C 1760.33,616.833 1760.33,585.167 1761,553.5C 1838.76,558.739 1876.09,522.406 1873,444.5C 1869.24,411.09 1853.07,385.924 1824.5,369C 1799.47,358.828 1776.47,362.162 1755.5,379C 1746.08,387.412 1738.58,397.245 1733,408.5C 1728.61,420.925 1724.77,433.425 1721.5,446C 1693.5,446.667 1665.5,446.667 1637.5,446C 1636.56,410.261 1644.72,376.428 1662,344.5C 1677.47,316.023 1698.31,292.19 1724.5,273C 1741.77,262.079 1760.44,255.245 1780.5,252.5 Z"/></g>
<g><path style="opacity:1" fill="#000000" d="M 1345.5,456.5 C 1344.5,480.328 1344.17,504.328 1344.5,528.5C 1345.79,528.737 1346.79,528.404 1347.5,527.5C 1371.64,519.512 1396.3,513.679 1421.5,510C 1482.55,502.114 1529.38,523.947 1562,575.5C 1578.03,608.614 1586.69,643.614 1588,680.5C 1588.9,719.849 1588.57,759.183 1587,798.5C 1584.84,832.463 1575.84,864.463 1560,894.5C 1517.75,961.533 1457.58,987.366 1379.5,972C 1353.67,964.095 1331.34,950.595 1312.5,931.5C 1284.48,903.806 1266.65,870.472 1259,831.5C 1256.51,818.271 1254.85,804.937 1254,791.5C 1253.33,676.5 1253.33,561.5 1254,446.5C 1255.98,399.893 1270.64,357.893 1298,320.5C 1345.14,264.012 1403.97,246.512 1474.5,268C 1516.25,283.749 1546.42,311.916 1565,352.5C 1575.58,375.818 1582.25,400.152 1585,425.5C 1584.25,426.126 1583.42,426.626 1582.5,427C 1553.17,427.667 1523.83,427.667 1494.5,427C 1493.58,426.626 1492.75,426.126 1492,425.5C 1474.43,377.466 1440.93,360.3 1391.5,374C 1372.06,382.777 1358.89,397.277 1352,417.5C 1347.96,430.196 1345.79,443.196 1345.5,456.5 Z"/></g>
<g><path style="opacity:1" fill="#000000" d="M 2059.5,258.5 C 2140.83,258.333 2222.17,258.5 2303.5,259C 2371.41,262.623 2419.57,295.123 2448,356.5C 2470.16,411.755 2472.16,467.755 2454,524.5C 2446.35,547.145 2433.52,566.312 2415.5,582C 2406.62,589.056 2397.62,595.89 2388.5,602.5C 2421.01,617.175 2443.84,641.175 2457,674.5C 2476.79,723.08 2481.13,773.08 2470,824.5C 2457.16,883.973 2423.99,927.807 2370.5,956C 2353.57,963.315 2335.91,967.648 2317.5,969C 2231.5,969.667 2145.5,969.667 2059.5,969C 2059,968.5 2058.5,968 2058,967.5C 2057.83,849.5 2057.67,731.5 2057.5,613.5C 2057.5,494.959 2058.17,376.625 2059.5,258.5 Z"/></g>
<g><path style="opacity:1" fill="#000000" d="M 712.5,263.5 C 712.5,462.5 712.5,661.5 712.5,860.5C 804.5,860.5 896.5,860.5 988.5,860.5C 989.458,860.953 990.292,861.619 991,862.5C 991.667,898.167 991.667,933.833 991,969.5C 990.25,970.126 989.416,970.626 988.5,971C 865.5,971.667 742.5,971.667 619.5,971C 619,970.5 618.5,970 618,969.5C 617.333,733.833 617.333,498.167 618,262.5C 618.5,262 619,261.5 619.5,261C 649.833,260.333 680.167,260.333 710.5,261C 711.381,261.708 712.047,262.542 712.5,263.5 Z"/></g>
<g><path style="opacity:1" fill="#a6a6a6" d="M 2289.5,364.5 C 2244.83,364.5 2200.17,364.5 2155.5,364.5C 2155.5,427.167 2155.5,489.833 2155.5,552.5C 2200.5,552.5 2245.5,552.5 2290.5,552.5C 2245.34,553.499 2200,553.832 2154.5,553.5C 2154.5,490.167 2154.5,426.833 2154.5,363.5C 2199.67,363.168 2244.67,363.501 2289.5,364.5 Z"/></g>
<g><path style="opacity:1" fill="#fefefe" d="M 2289.5,364.5 C 2326.37,367.532 2350.87,386.532 2363,421.5C 2374.54,458.915 2369.21,493.582 2347,525.5C 2332.29,542.808 2313.46,551.808 2290.5,552.5C 2245.5,552.5 2200.5,552.5 2155.5,552.5C 2155.5,489.833 2155.5,427.167 2155.5,364.5C 2200.17,364.5 2244.83,364.5 2289.5,364.5 Z"/></g>
<g><path style="opacity:1" fill="#fefefe" d="M 273.5,367.5 C 319.149,365.237 353.649,383.57 377,422.5C 391.237,450.78 398.57,480.78 399,512.5C 402.316,578.831 402.316,645.165 399,711.5C 398.486,723.64 396.986,735.64 394.5,747.5C 374.348,728.516 354.348,709.349 334.5,690C 332.049,687.16 329.549,686.994 327,689.5C 310.245,713.343 293.245,737.01 276,760.5C 274.578,763.03 274.245,765.697 275,768.5C 298.167,791 321.333,813.5 344.5,836C 323.244,852.315 299.244,858.649 272.5,855C 247.598,850.799 227.098,838.965 211,819.5C 192.874,795.897 181.874,769.231 178,739.5C 174.607,696.573 173.107,653.573 173.5,610.5C 173.093,568.093 174.593,525.76 178,483.5C 181.781,447.442 196.614,416.942 222.5,392C 237.215,378.975 254.215,370.808 273.5,367.5 Z"/></g>
<g><path style="opacity:1" fill="#a8a8a8" d="M 1345.5,456.5 C 1344.84,480.524 1345.51,504.19 1347.5,527.5C 1346.79,528.404 1345.79,528.737 1344.5,528.5C 1344.17,504.328 1344.5,480.328 1345.5,456.5 Z"/></g>
<g><path style="opacity:1" fill="#fdfdfd" d="M 1408.5,608.5 C 1451.21,604.926 1478.71,623.593 1491,664.5C 1494.3,676.28 1496.3,688.28 1497,700.5C 1497.67,725.5 1497.67,750.5 1497,775.5C 1496.48,800.28 1489.48,822.947 1476,843.5C 1455.94,864.927 1431.44,872.427 1402.5,866C 1375,858.669 1357.67,841.169 1350.5,813.5C 1348.35,805.961 1346.85,798.294 1346,790.5C 1344.42,759.188 1344.09,727.855 1345,696.5C 1345.67,675.815 1351,656.482 1361,638.5C 1372.63,621.771 1388.47,611.771 1408.5,608.5 Z"/></g>
<g><path style="opacity:1" fill="#a5a5a5" d="M 2298.5,659.5 C 2250.83,659.5 2203.17,659.5 2155.5,659.5C 2155.5,725.833 2155.5,792.167 2155.5,858.5C 2154.5,792.002 2154.17,725.335 2154.5,658.5C 2202.67,658.168 2250.67,658.501 2298.5,659.5 Z"/></g>
<g><path style="opacity:1" fill="#fefefe" d="M 2298.5,659.5 C 2326.1,660.707 2346.94,673.04 2361,696.5C 2384.81,739.555 2384.14,782.222 2359,824.5C 2346.32,842.266 2329.15,853.099 2307.5,857C 2256.86,858.463 2206.19,858.963 2155.5,858.5C 2155.5,792.167 2155.5,725.833 2155.5,659.5C 2203.17,659.5 2250.83,659.5 2298.5,659.5 Z"/></g>
<g><path style="opacity:1" fill="#d1d1d1" d="M 712.5,263.5 C 713.5,461.999 713.833,660.666 713.5,859.5C 805.335,859.167 897.002,859.501 988.5,860.5C 896.5,860.5 804.5,860.5 712.5,860.5C 712.5,661.5 712.5,462.5 712.5,263.5 Z"/></g>
<g><path style="opacity:1" fill="#010101" d="M 1070.5,860.5 C 1098.5,860.333 1126.5,860.5 1154.5,861C 1155,861.5 1155.5,862 1156,862.5C 1156.67,898.167 1156.67,933.833 1156,969.5C 1155.5,970 1155,970.5 1154.5,971C 1126.5,971.667 1098.5,971.667 1070.5,971C 1070,970.5 1069.5,970 1069,969.5C 1068.33,934.167 1068.33,898.833 1069,863.5C 1069.51,862.473 1070.01,861.473 1070.5,860.5 Z"/></g>
</svg>
