<?xml version="1.0" encoding="utf-8"?>
<svg viewBox="0 0 323.14914 200" xmlns="http://www.w3.org/2000/svg">
  <g id="layer1" transform="matrix(0.9999999999999999, 0, 0, 0.9999999999999999, -303.4596862792969, -22.960700988769517)">
    <path id="rect15575" style="opacity:1;fill:#0a9646;fill-opacity:1;fill-rule:evenodd;stroke-width:0.0420687;stroke-linecap:square;stroke-miterlimit:10;paint-order:stroke fill markers" d="M 303.45966,22.960701 H 626.6088 V 222.9607 H 303.45966 Z"/>
    <path transform="matrix(0.26458333,0,0,0.26458333,303.45966,22.960701)" d="m 30.353516,5.0117188 c -13.808655,0 -25.0781254,11.2674112 -25.0781254,25.0761722 v 332.957029 47.1211 49.04296 13.88672 252.45508 c 0,13.80862 11.2694704,25.06641 25.0781254,25.06641 H 1190.9805 c 13.8086,0 25.0781,-11.25779 25.0781,-25.06641 V 473.0957 459.57031 401.94727 363.04492 30.087891 c 0,-13.808761 -11.2695,-25.0761722 -25.0781,-25.0761722 z m 0,9.4511722 H 1190.9805 c 8.7398,0 15.6425,6.885058 15.6425,15.625 v 332.957029 38.90235 c 0,0.29959 -0.013,0.61475 -0.037,0.9375 v 7.20703 c 0,8.68754 -6.9941,15.68164 -15.6816,15.68164 h -8.0762 c -0.1869,0.007 -0.3766,0.0176 -0.5586,0.0176 H 38.023438 c -0.18105,0 -0.371847,-0.0102 -0.560547,-0.0176 h -7.097657 c -8.687546,0 -15.68164,-6.9941 -15.68164,-15.68164 V 30.152344 c 0,-1.658433 0.257595,-3.253829 0.730468,-4.751953 0.01365,-0.04461 0.03284,-0.08643 0.04688,-0.13086 1.99686,-6.321925 7.84094,-10.80664 14.892578,-10.80664 z M 30.28125,435.30469 h 6.958984 1145.628866 8.1172 c 8.6414,0 15.5996,6.95633 15.5996,15.59765 v 7.5918 c 0.024,0.37296 0.037,0.7339 0.037,1.07617 v 13.52539 252.45508 c 0,5.47634 -2.7106,10.22208 -6.8847,13.00391 -2.4923,1.6862 -5.5034,2.66992 -8.752,2.66992 H 30.28125 c -8.641361,0 -15.597656,-6.9563 -15.597656,-15.59766 V 450.90234 c 0,-8.64132 6.956295,-15.59765 15.597656,-15.59765 z" style="color:#000000;font-style:normal;font-variant:normal;font-weight:normal;font-stretch:normal;font-size:medium;line-height:normal;font-family:sans-serif;font-variant-ligatures:normal;font-variant-position:normal;font-variant-caps:normal;font-variant-numeric:normal;font-variant-alternates:normal;font-variant-east-asian:normal;font-feature-settings:normal;font-variation-settings:normal;text-indent:0;text-align:start;text-decoration:none;text-decoration-line:none;text-decoration-style:solid;text-decoration-color:#000000;letter-spacing:normal;word-spacing:normal;text-transform:none;writing-mode:lr-tb;direction:ltr;text-orientation:mixed;dominant-baseline:auto;baseline-shift:baseline;text-anchor:start;white-space:normal;shape-padding:0;shape-margin:0;inline-size:0;clip-rule:nonzero;display:inline;overflow:visible;visibility:visible;opacity:1;isolation:auto;mix-blend-mode:normal;color-interpolation:sRGB;color-interpolation-filters:linearRGB;solid-color:#000000;solid-opacity:1;vector-effect:none;fill:#ffffff;fill-opacity:1;fill-rule:evenodd;stroke:none;stroke-width:2.09199;stroke-linecap:square;stroke-linejoin:miter;stroke-miterlimit:10;stroke-dasharray:none;stroke-dashoffset:0;stroke-opacity:1;paint-order:stroke fill markers;color-rendering:auto;image-rendering:auto;shape-rendering:auto;text-rendering:auto;enable-background:accumulate;stop-color:#000000;stop-opacity:1" id="path15582"/>
    <path d="m 324.12038,67.193614 h 60.89334 v 27.821331 h -60.89334 z" style="opacity:1;fill:#ffd70f;fill-opacity:1;fill-rule:evenodd;stroke:none;stroke-width:0.553508;stroke-linecap:square;stroke-miterlimit:10;stroke-dasharray:none;stroke-opacity:1;paint-order:stroke fill markers" id="rect15605"/>
    <path id="path15631" d="m 326.18273,67.759747 c -0.81115,0 -1.47443,0.660164 -1.47443,1.471307 v 23.746432 c 0,0.811142 0.66328,1.471323 1.47443,1.471323 h 56.7905 c 0.81117,0 1.4744,-0.660181 1.4744,-1.471323 V 69.231054 c 0,-0.811143 -0.66328,-1.471307 -1.4744,-1.471307 z m 0,0.535017 h 56.7905 c 0.52266,0 0.93627,0.413622 0.93627,0.93629 v 23.746432 c 0,0.522654 -0.41353,0.933189 -0.93627,0.933189 h -56.7905 c -0.52266,0 -0.93628,-0.410555 -0.93628,-0.933189 V 69.231054 c 0,-0.522672 0.41354,-0.93629 0.93628,-0.93629 z" style="color:#000000;font-style:normal;font-variant:normal;font-weight:normal;font-stretch:normal;font-size:medium;line-height:normal;font-family:sans-serif;font-variant-ligatures:normal;font-variant-position:normal;font-variant-caps:normal;font-variant-numeric:normal;font-variant-alternates:normal;font-variant-east-asian:normal;font-feature-settings:normal;font-variation-settings:normal;text-indent:0;text-align:start;text-decoration:none;text-decoration-line:none;text-decoration-style:solid;text-decoration-color:#000000;letter-spacing:normal;word-spacing:normal;text-transform:none;writing-mode:lr-tb;direction:ltr;text-orientation:mixed;dominant-baseline:auto;baseline-shift:baseline;text-anchor:start;white-space:normal;shape-padding:0;shape-margin:0;inline-size:0;clip-rule:nonzero;display:inline;overflow:visible;visibility:visible;opacity:1;isolation:auto;mix-blend-mode:normal;color-interpolation:sRGB;color-interpolation-filters:linearRGB;solid-color:#000000;solid-opacity:1;vector-effect:none;fill:#000000;fill-opacity:1;fill-rule:evenodd;stroke:none;stroke-width:0.119062;stroke-linecap:square;stroke-linejoin:miter;stroke-miterlimit:10;stroke-dasharray:none;stroke-dashoffset:0;stroke-opacity:1;paint-order:stroke fill markers;color-rendering:auto;image-rendering:auto;shape-rendering:auto;text-rendering:auto;enable-background:accumulate;stop-color:#000000;stop-opacity:1"/>
    <path d="m 336.88947,72.205604 c -1.36961,0 -2.51552,0.330332 -3.43646,0.991507 -0.91309,0.653335 -1.5737,1.361798 -1.98303,2.125328 -0.14189,0.267612 -0.264,0.538688 -0.36613,0.814199 -0.10264,0.275473 -0.18065,0.564078 -0.23555,0.86321 -0.0552,0.299089 -0.0954,0.774434 -0.11873,1.427765 -0.0223,0.653332 -0.0362,1.495435 -0.0362,2.5266 0,2.062321 0.0516,3.383536 0.15387,3.966025 0.0552,0.299136 0.13326,0.587702 0.23556,0.863193 0.10264,0.267612 0.22467,0.534915 0.36612,0.802543 0.40948,0.771411 1.06995,1.479875 1.983,2.125324 0.92887,0.653346 2.07472,0.979855 3.43649,0.979855 0.74779,0 1.44489,-0.107189 2.09034,-0.319632 0.64544,-0.212556 1.24303,-0.525333 1.79403,-0.942508 1.1335,-0.865864 1.86473,-2.103628 2.19533,-3.709419 0.0139,-0.04714 0.009,-0.08518 -0.0223,-0.116745 -0.0315,-0.03928 -0.0694,-0.05829 -0.11656,-0.05829 h -2.70394 c -0.0223,1.5e-5 -0.0488,0.01117 -0.0722,0.03521 -0.0223,0.01589 -0.0451,0.0307 -0.0582,0.0467 -0.70836,1.487712 -1.74338,2.232636 -3.10515,2.232636 -0.59037,0 -1.09454,-0.11468 -1.51174,-0.342928 -0.41713,-0.236167 -0.75132,-0.520933 -1.00317,-0.851551 -0.14189,-0.181028 -0.27124,-0.389065 -0.3896,-0.625222 -0.11008,-0.244 -0.19597,-0.488524 -0.25924,-0.732545 -0.0628,-0.267611 -0.10709,-0.67614 -0.13048,-1.227141 -0.0223,-0.558871 -0.0359,-1.267326 -0.0359,-2.125325 0,-0.842249 0.009,-1.543133 0.0359,-2.102004 0.0223,-0.55887 0.0677,-0.97117 0.13048,-1.238798 0.0627,-0.251917 0.14857,-0.496392 0.25924,-0.732549 0.11009,-0.244 0.24028,-0.45965 0.3896,-0.64857 0.252,-0.30699 0.58598,-0.580386 1.00317,-0.816526 0.41715,-0.236167 0.92137,-0.352269 1.51174,-0.352269 0.79503,1.7e-5 1.45185,0.230844 1.97135,0.695231 0.27541,0.236167 0.50863,0.492045 0.69757,0.767539 0.18872,0.267667 0.33407,0.560022 0.4361,0.874867 0.0167,0.06294 0.0599,0.09333 0.13046,0.09333 h 2.7039 c 0.0468,0 0.0854,-0.01589 0.11658,-0.0467 0.0315,-0.03161 0.0407,-0.07184 0.0223,-0.118954 -0.25952,-1.393235 -0.93175,-2.595995 -2.01801,-3.611427 -1.07052,-1.007535 -2.42438,-1.511744 -4.0617,-1.511744 z m 27.73422,0.104956 c -1.28304,0 -2.4213,0.437369 -3.41313,1.311121 -0.99967,0.858 -1.50005,2.08205 -1.50005,3.672071 v 7.425818 c 0,1.590021 0.50038,2.814088 1.50005,3.672088 0.99183,0.865851 2.13009,1.299446 3.41313,1.299446 1.28303,0 2.42133,-0.433578 3.41313,-1.299446 1.00756,-0.86587 1.50938,-2.089917 1.50938,-3.672088 v -7.425818 c 0,-0.787127 -0.1299,-1.484222 -0.38959,-2.09033 -0.252,-0.613979 -0.62389,-1.140934 -1.11979,-1.581741 -0.49592,-0.425045 -1.03279,-0.74779 -1.6074,-0.968177 -0.56674,-0.22825 -1.16816,-0.342924 -1.80573,-0.342924 z m -21.12261,0.03521 c -0.0943,0 -0.14217,0.04776 -0.14217,0.142392 v 2.279298 c 0,0.09444 0.0479,0.142197 0.14217,0.142197 h 4.49793 V 89.409 c 0,0.09444 0.0479,0.139995 0.14217,0.139995 h 2.5616 c 0.0945,0 0.14217,-0.04555 0.14217,-0.139995 V 74.909653 h 4.48625 c 0.0943,0 0.14217,-0.04778 0.14217,-0.142196 v -2.279299 c 0,-0.09444 -0.0479,-0.142392 -0.14217,-0.142392 z m 31.22667,0.118953 -2.43331,1.759064 c -0.0139,0.01589 -0.0315,0.03477 -0.0466,0.05829 -0.009,0.02341 -0.0139,0.04468 -0.0139,0.06068 v 2.561593 c 0,0.06294 0.0278,0.110694 0.0728,0.142196 0.0468,0.02343 0.0989,0.01617 0.15388,-0.02343 0.36208,-0.259778 0.7228,-0.523245 1.08486,-0.790886 0.36206,-0.275473 0.72509,-0.548889 1.08714,-0.816528 v 14.028096 c 0,0.09444 0.048,0.142198 0.14217,0.142198 h 2.41929 c 0.0943,0 0.13994,-0.04778 0.13994,-0.142198 V 72.606811 c 0,-0.09444 -0.0455,-0.142197 -0.13994,-0.142197 z m -10.10406,2.538257 c 0.67694,0 1.21532,0.217964 1.61673,0.650912 0.40948,0.425045 0.61359,1.018854 0.61359,1.782378 v 7.143522 c 0,0.771407 -0.20461,1.368982 -0.61359,1.794059 -0.40133,0.425045 -0.93979,0.63689 -1.61673,0.63689 -0.67695,0 -1.21527,-0.211859 -1.61671,-0.63689 -0.40134,-0.425091 -0.60428,-1.022652 -0.60428,-1.794059 v -7.143497 c 0,-0.763524 0.20266,-1.357335 0.60428,-1.782377 0.40133,-0.432946 0.93976,-0.650913 1.61671,-0.650913 z m -9.98507,11.865445 c -0.0945,0 -0.14217,0.04776 -0.14217,0.14239 v 2.398281 c 0,0.09444 0.0479,0.139994 0.14217,0.139994 h 2.40762 c 0.0867,0 0.13046,-0.04555 0.13046,-0.139994 v -2.398281 c 0,-0.09444 -0.0451,-0.14239 -0.13046,-0.14239 z" style="font-style: normal; font-variant: normal; font-weight: normal; font-stretch: normal; font-size: 15.1831px; line-height: 1.46; font-family: 'Alte DIN 1451 Mittelschrift gepraegt'; text-align: center; text-anchor: middle; opacity: 1; fill-opacity: 1; stroke-width: 0.264584; visibility: hidden;" id="path15637"/>
    <path id="path17496" style="font-size:15.1831px;line-height:1.46;font-family:'Singapore Road Signs';-inkscape-font-specification:'Singapore Road Signs';text-align:center;text-anchor:middle;opacity:1;fill:#ffffff;fill-opacity:1;stroke-width:0.0756548" d="m 570.47468,59.120043 v 50.614317 h 35.43541 V 59.120043 Z m 1.38203,1.660034 h 32.65274 v 47.566083 h -32.65274 z m 13.66823,3.646909 -2.23483,8.869719 h 3.92184 l 0.28216,-8.869719 z m 3.35329,0 0.28216,8.869719 h 3.92385 l -2.23686,-8.869719 z m -15.90932,9.992316 v 1.942234 l 3.06692,1.10806 v 0.584703 h 1.411 v -0.584703 c 0,0 2.08662,-0.313671 4.52568,-0.535349 1.95306,-0.177516 4.1317,-0.271988 5.64407,-0.278037 1.79866,-0.0063 4.45804,0.09363 6.73975,0.288436 2.51319,0.214479 4.5713,0.524984 4.5713,0.524984 v 0.5847 h 1.38199 v -0.5847 l 3.06685,-1.108064 v -1.942233 z m 9.21108,3.620663 -6.70448,26.681115 h 10.04943 l 1.39442,-26.681115 z m 7.25642,0 1.39441,26.681115 h 10.0494 l -6.70443,-26.681115 z"/>
    <g style="font-size:14.7905px;line-height:0;font-family:'Singapore Road Signs';-inkscape-font-specification:'Singapore Road Signs';text-align:center;text-anchor:middle;opacity:1;fill:#860000;fill-opacity:1;stroke-width:6.45213" id="layer1-8" transform="matrix(0.08718024,0,0,0.08718024,-145.22047,195.49013)">
      <circle style="opacity:1;fill:#f00a0a;fill-opacity:1;fill-rule:nonzero;stroke:none;stroke-width:3622.55;stroke-linecap:round;stroke-linejoin:round;stroke-miterlimit:4;stroke-dasharray:none;stroke-opacity:1;paint-order:stroke fill markers" id="path815" cx="6380.9966" cy="-193.29752" r="350"/>
      <circle cy="-193.29752" cx="6380.9966" id="circle817" style="opacity:1;fill:#ffffff;fill-opacity:1;fill-rule:nonzero;stroke:none;stroke-width:2587.55;stroke-linecap:round;stroke-linejoin:round;stroke-miterlimit:4;stroke-dasharray:none;stroke-opacity:1;paint-order:stroke fill markers" r="263.821"/>
      <g aria-label="20 " style="font-style:normal;font-variant:normal;font-weight:bold;font-stretch:normal;font-size:414.864px;line-height:0;font-family:Giaothong1;-inkscape-font-specification:'Giaothong1 Bold';letter-spacing:0px;word-spacing:0px;fill:#000000;fill-opacity:1;stroke:none;stroke-width:24.7849" id="text874" transform="matrix(-1,0,0,1,1299.029,-383.45)">
        <g aria-label="90" transform="translate(2310.2259,387.54849)" style="font-style:normal;font-variant:normal;font-weight:bold;font-stretch:normal;font-size:414.864px;line-height:0;font-family:Giaothong1;-inkscape-font-specification:'Giaothong1 Bold';letter-spacing:0px;word-spacing:0px;fill:#000000;fill-opacity:1;stroke:none;stroke-width:53.5539" id="text844"/>
      </g>
    </g>
    <g style="font-size:14.7905px;line-height:0;font-family:'Singapore Road Signs';-inkscape-font-specification:'Singapore Road Signs';text-align:center;text-anchor:middle;opacity:1;fill:#fff000;fill-opacity:1;stroke-width:6.45221" id="layer1-7" transform="matrix(0.08717968,0,0,0.08717968,488.77841,183.34565)">
      <circle cy="-54" cx="351" id="circle817-6" style="opacity:1;fill:#0046aa;fill-opacity:1;fill-rule:nonzero;stroke:none;stroke-width:3622.58;stroke-linecap:round;stroke-linejoin:round;stroke-miterlimit:4;stroke-dasharray:none;stroke-opacity:1;paint-order:stroke fill markers" r="350"/>
      <path id="rect984" style="font-style: normal; font-variant: normal; font-weight: bold; font-stretch: normal; font-size: 414.864px; line-height: 0; font-family: Giaothong1; letter-spacing: 0px; word-spacing: 0px; opacity: 1; fill: rgb(255, 255, 255); fill-opacity: 1; fill-rule: nonzero; stroke: none; stroke-width: 0.344279; stroke-linecap: round; stroke-linejoin: miter; stroke-miterlimit: 10; stroke-dasharray: none; stroke-opacity: 1; paint-order: stroke; visibility: hidden;" d="m 851.18164,518.03906 c -16.32678,0 -29.4707,13.14393 -29.4707,29.47071 v 80.94921 c 0,16.32678 13.14392,29.47071 29.4707,29.47071 16.32678,0 29.4707,-13.14393 29.4707,-29.47071 v -80.94921 c 0,-16.32678 -13.14392,-29.47071 -29.4707,-29.47071 z m -69.94336,1.23828 -26.10937,69.75391 c -2.72781,7.40406 -3.70118,11.30112 -3.70118,28.44727 0,18.12042 0.7789,22.01697 4.67579,28.25195 5.26075,8.37828 14.22308,13.44336 24.93945,13.44336 10.91123,0 20.0688,-4.87023 25.13476,-13.44336 3.70197,-6.23498 4.48047,-10.13153 4.48047,-28.25195 0,-22.01726 -0.77798,-26.88814 -4.28515,-32.34375 -3.31232,-5.06591 -9.74347,-8.96289 -16.75782,-8.96289 -4.28653,0 -7.01308,0.77773 -8.37695,1.75195 l -0.39062,-0.38867 22.60156,-58.25782 z m 69.94336,18.74024 c 5.25853,0 9.49219,4.23365 9.49219,9.49219 v 80.94921 c 0,5.25853 -4.23366,9.49219 -9.49219,9.49219 -5.25853,0 -9.49219,-4.23366 -9.49219,-9.49219 v -80.94921 c 0,-5.25854 4.23366,-9.49219 9.49219,-9.49219 z m -70.13867,55.68945 c 5.0659,0 9.74219,3.89738 9.74219,9.9375 v 25.71875 c 0,6.04012 -4.67629,9.9375 -9.74219,9.9375 -5.0659,0 -9.74219,-3.89738 -9.74219,-9.9375 v -25.71875 c 0,-6.04012 4.67629,-9.9375 9.74219,-9.9375 z" transform="matrix(3.0349198,0,0,3.0349198,-2125.7104,-1839.7056)"/>
    </g>
    <g aria-label="6" id="text19759" style="font-size:31.1478px;line-height:1.3;font-family:'Singapore Road Signs';-inkscape-font-specification:'Singapore Road Signs';text-align:center;text-anchor:middle;stroke-width:0.159861" transform="matrix(1.6550836,0,0,1.6550836,-321.31659,-238.56049)"/>
    <path d="M 374.594 46.797 Q 374.497 46.797 374.497 46.691 L 374.497 41.277 L 373.575 41.277 Q 373.478 41.277 373.478 41.181 L 373.478 39.37 Q 373.478 39.265 373.575 39.265 L 374.497 39.265 L 374.497 34.097 Q 374.497 33.991 374.594 33.991 L 379.006 33.991 Q 381.634 33.991 382.935 36.162 Q 383.172 36.584 383.322 36.962 Q 383.471 37.34 383.515 37.7 Q 383.62 38.403 383.62 40.398 Q 383.62 41.471 383.585 42.187 Q 383.55 42.903 383.48 43.264 Q 383.409 43.633 383.264 43.98 Q 383.119 44.327 382.9 44.67 L 382.9 44.661 Q 382.311 45.566 381.318 46.182 Q 380.289 46.797 378.883 46.797 Z M 376.616 36.013 L 376.616 39.265 L 378.909 39.265 Q 379.015 39.265 379.015 39.37 L 379.015 41.181 Q 379.015 41.277 378.909 41.277 L 376.616 41.277 L 376.616 44.793 L 378.795 44.793 Q 380.307 44.793 381.045 43.738 Q 381.353 43.272 381.414 42.763 Q 381.458 42.481 381.48 41.914 Q 381.502 41.348 381.502 40.469 Q 381.502 39.616 381.48 39.045 Q 381.458 38.474 381.414 38.14 Q 381.318 37.516 380.957 37.023 Q 380.21 36.013 378.795 36.013 Z M 384.701 46.788 Q 384.64 46.788 384.613 46.744 Q 384.587 46.7 384.604 46.647 L 389.21 34.044 Q 389.228 33.974 389.298 33.974 L 390.871 33.974 Q 390.897 33.974 390.928 33.996 Q 390.959 34.017 390.968 34.044 L 395.564 46.647 Q 395.582 46.7 395.556 46.744 Q 395.529 46.788 395.477 46.788 L 393.464 46.788 Q 393.394 46.788 393.376 46.718 L 392.427 43.94 L 387.786 43.94 Q 387.54 44.652 387.298 45.333 Q 387.057 46.015 386.811 46.718 Q 386.802 46.744 386.771 46.766 Q 386.74 46.788 386.714 46.788 Z M 391.794 42.051 Q 391.776 41.989 391.746 41.919 Q 391.715 41.849 391.697 41.796 Q 391.548 41.365 391.425 41 Q 391.302 40.636 391.205 40.363 Q 391.144 40.187 391.086 40.02 Q 391.029 39.853 390.977 39.704 Q 390.933 39.563 390.889 39.436 Q 390.845 39.309 390.801 39.185 Q 390.722 38.931 390.638 38.676 Q 390.555 38.421 390.467 38.148 Q 390.423 38.025 390.375 37.876 Q 390.326 37.726 390.273 37.559 Q 390.247 37.472 390.234 37.423 Q 390.221 37.375 390.203 37.327 Q 390.186 37.278 390.164 37.217 Q 390.142 37.155 390.106 37.041 Q 390.01 37.331 389.926 37.577 Q 389.843 37.823 389.772 38.034 Q 389.755 38.087 389.746 38.131 Q 389.737 38.175 389.72 38.219 Q 389.676 38.368 389.627 38.5 Q 389.579 38.632 389.535 38.764 Q 389.491 38.904 389.447 39.036 Q 389.403 39.168 389.359 39.291 Q 389.271 39.555 389.179 39.845 Q 389.087 40.135 388.973 40.451 Q 388.858 40.767 388.735 41.132 Q 388.612 41.497 388.419 42.051 Z M 390.634 32.857 Q 390.616 32.857 390.59 32.844 Q 390.563 32.831 390.555 32.822 L 388.129 30.256 Q 388.076 30.203 388.107 30.142 Q 388.138 30.08 388.208 30.08 L 390.142 30.08 Q 390.194 30.08 390.229 30.133 L 392.066 32.699 Q 392.093 32.761 392.071 32.809 Q 392.049 32.857 391.979 32.857 Z M 401.47 46.797 Q 401.365 46.797 401.365 46.691 L 401.365 34.097 Q 401.365 33.991 401.47 33.991 L 403.281 33.991 Q 403.334 33.991 403.369 34.044 L 408.906 42.763 L 408.906 34.097 Q 408.906 33.991 409.011 33.991 L 410.927 33.991 Q 411.033 33.991 411.033 34.097 L 411.033 46.691 Q 411.033 46.797 410.927 46.797 L 409.126 46.797 Q 409.073 46.797 409.038 46.744 L 403.483 38.025 L 403.483 46.691 Q 403.483 46.797 403.386 46.797 Z M 412.536 46.788 Q 412.474 46.788 412.448 46.744 Q 412.422 46.7 412.439 46.647 L 417.045 34.044 Q 417.062 33.974 417.133 33.974 L 418.706 33.974 Q 418.732 33.974 418.763 33.996 Q 418.794 34.017 418.802 34.044 L 423.399 46.647 Q 423.417 46.7 423.39 46.744 Q 423.364 46.788 423.311 46.788 L 421.299 46.788 Q 421.228 46.788 421.211 46.718 L 420.261 43.94 L 415.621 43.94 Q 415.375 44.652 415.133 45.333 Q 414.891 46.015 414.645 46.718 Q 414.636 46.744 414.606 46.766 Q 414.575 46.788 414.549 46.788 Z M 419.629 42.051 Q 419.611 41.989 419.58 41.919 Q 419.55 41.849 419.532 41.796 Q 419.383 41.365 419.259 41 Q 419.136 40.636 419.04 40.363 Q 418.978 40.187 418.921 40.02 Q 418.864 39.853 418.811 39.704 Q 418.767 39.563 418.723 39.436 Q 418.679 39.309 418.635 39.185 Q 418.556 38.931 418.473 38.676 Q 418.389 38.421 418.301 38.148 Q 418.258 38.025 418.209 37.876 Q 418.161 37.726 418.108 37.559 Q 418.082 37.472 418.069 37.423 Q 418.055 37.375 418.038 37.327 Q 418.02 37.278 417.998 37.217 Q 417.976 37.155 417.941 37.041 Q 417.844 37.331 417.761 37.577 Q 417.677 37.823 417.607 38.034 Q 417.59 38.087 417.581 38.131 Q 417.572 38.175 417.554 38.219 Q 417.51 38.368 417.462 38.5 Q 417.414 38.632 417.37 38.764 Q 417.326 38.904 417.282 39.036 Q 417.238 39.168 417.194 39.291 Q 417.106 39.555 417.014 39.845 Q 416.922 40.135 416.807 40.451 Q 416.693 40.767 416.57 41.132 Q 416.447 41.497 416.254 42.051 Z M 416.676 29.728 Q 416.57 29.728 416.588 29.623 Q 416.649 29.192 416.803 28.841 Q 416.957 28.489 417.194 28.217 Q 417.431 27.971 417.748 27.834 Q 418.064 27.698 418.416 27.698 Q 418.574 27.698 418.723 27.716 Q 418.873 27.733 419.022 27.786 Q 419.18 27.839 419.325 27.892 Q 419.47 27.944 419.567 27.979 Q 419.875 28.138 420.121 28.217 Q 420.288 28.296 420.516 28.296 Q 420.718 28.296 420.912 28.173 Q 421.079 28.059 421.149 27.672 Q 421.167 27.601 421.246 27.601 L 422.16 27.601 Q 422.274 27.601 422.257 27.707 Q 422.204 28.085 422.072 28.414 Q 421.94 28.744 421.738 29.017 Q 421.518 29.298 421.202 29.46 Q 420.885 29.623 420.472 29.632 Q 420.314 29.632 420.16 29.605 Q 420.007 29.579 419.866 29.517 L 419.875 29.517 Q 419.778 29.5 419.62 29.443 Q 419.462 29.386 419.251 29.307 Q 418.978 29.184 418.732 29.113 Q 418.486 29.043 418.249 29.034 Q 418.117 29.034 417.897 29.157 L 417.906 29.148 Q 417.686 29.289 417.686 29.641 Q 417.686 29.728 417.598 29.728 Z M 416.429 30.449 Q 416.64 31.495 417.924 31.504 Q 419.259 31.486 419.321 30.449 L 420.587 30.449 Q 420.587 31.02 420.38 31.412 Q 420.174 31.803 419.813 32.163 Q 419.101 32.84 417.967 32.857 Q 416.763 32.84 415.999 32.181 Q 415.647 31.829 415.454 31.495 Q 415.26 31.161 415.252 30.449 Z M 424.989 46.797 Q 424.883 46.797 424.883 46.691 L 424.883 34.097 Q 424.883 33.991 424.989 33.991 L 426.799 33.991 Q 426.852 33.991 426.887 34.044 L 432.424 42.763 L 432.424 34.097 Q 432.424 33.991 432.53 33.991 L 434.446 33.991 Q 434.551 33.991 434.551 34.097 L 434.551 46.691 Q 434.551 46.797 434.446 46.797 L 432.644 46.797 Q 432.591 46.797 432.556 46.744 L 427.001 38.025 L 427.001 46.691 Q 427.001 46.797 426.905 46.797 Z M 441.38 41.673 Q 441.275 41.673 441.275 41.567 L 441.275 39.757 Q 441.275 39.66 441.38 39.66 L 445.854 39.66 Q 445.96 39.66 445.96 39.757 L 445.96 42.323 Q 445.96 44.266 444.624 45.575 Q 443.27 46.902 441.363 46.902 Q 439.842 46.902 438.805 46.173 Q 437.786 45.452 437.329 44.591 L 437.337 44.591 Q 437.171 44.292 437.056 43.989 Q 436.942 43.685 436.88 43.351 Q 436.828 43.017 436.797 42.284 Q 436.766 41.55 436.766 40.398 Q 436.766 39.247 436.797 38.517 Q 436.828 37.788 436.88 37.454 Q 436.942 37.12 437.056 36.812 Q 437.171 36.505 437.337 36.206 L 437.329 36.206 Q 437.786 35.353 438.805 34.624 Q 439.834 33.886 441.363 33.886 Q 443.191 33.886 444.386 35.011 Q 445.599 36.136 445.889 37.7 Q 445.907 37.753 445.872 37.788 Q 445.837 37.823 445.784 37.823 L 443.771 37.823 Q 443.692 37.823 443.674 37.753 Q 443.56 37.401 443.349 37.098 Q 443.138 36.795 442.831 36.531 Q 442.251 36.013 441.363 36.013 Q 440.704 36.013 440.238 36.276 Q 439.772 36.54 439.491 36.883 Q 439.324 37.094 439.201 37.362 Q 439.078 37.63 439.007 37.911 Q 438.937 38.21 438.911 38.834 Q 438.884 39.458 438.884 40.398 Q 438.884 41.356 438.911 41.976 Q 438.937 42.596 439.007 42.894 Q 439.078 43.167 439.205 43.435 Q 439.333 43.703 439.491 43.905 Q 439.772 44.274 440.238 44.534 Q 440.704 44.793 441.363 44.793 Q 442.409 44.793 443.121 44.081 Q 443.841 43.369 443.841 42.218 L 443.841 41.673 Z" transform="matrix(1.310387, 0, 0, 1.310387, -59.698296, -1.169035)" style="fill: rgb(255, 255, 255);"/>
    <path transform="matrix(1.310387, 0, 0, 1.310387, -59.698296, -1.169035)" style="fill: rgb(255, 255, 255);"/>
    <path d="M 364.777 68.815 Q 364.742 68.788 364.737 68.744 Q 364.733 68.701 364.759 68.665 L 365.893 67.365 Q 365.963 67.285 366.034 67.356 L 367.378 68.41 Q 367.449 68.068 367.479 67.47 Q 367.51 66.872 367.51 65.958 Q 367.51 65 367.475 64.381 Q 367.44 63.761 367.37 63.471 Q 367.299 63.19 367.176 62.922 Q 367.053 62.654 366.895 62.443 Q 366.763 62.276 366.574 62.118 Q 366.385 61.959 366.148 61.841 Q 365.911 61.722 365.629 61.647 Q 365.348 61.573 365.023 61.573 Q 364.373 61.573 363.902 61.836 Q 363.432 62.1 363.16 62.443 Q 362.984 62.654 362.865 62.922 Q 362.747 63.19 362.676 63.471 Q 362.544 64.069 362.544 65.958 Q 362.544 67.866 362.676 68.454 Q 362.747 68.727 362.87 68.995 Q 362.993 69.263 363.16 69.465 Q 363.432 69.834 363.902 70.094 Q 364.373 70.353 365.023 70.353 Q 365.735 70.353 366.271 70.001 Z M 369.672 72.612 Q 369.646 72.638 369.602 72.638 Q 369.558 72.638 369.523 72.612 L 368.002 71.408 Q 367.431 71.873 366.684 72.168 Q 365.937 72.462 365.023 72.462 Q 363.511 72.462 362.465 71.733 Q 361.463 71.012 360.989 70.151 L 360.998 70.151 Q 360.839 69.852 360.725 69.549 Q 360.611 69.245 360.549 68.911 Q 360.426 68.217 360.426 65.958 Q 360.426 64.807 360.457 64.077 Q 360.488 63.348 360.549 63.014 Q 360.611 62.68 360.725 62.372 Q 360.839 62.065 360.998 61.766 L 360.989 61.766 Q 361.217 61.344 361.586 60.949 Q 361.956 60.553 362.465 60.184 Q 363.502 59.446 365.023 59.446 Q 366.543 59.446 367.572 60.184 Q 368.591 60.931 369.066 61.766 Q 369.215 62.056 369.33 62.368 Q 369.444 62.68 369.505 63.014 Q 369.567 63.348 369.598 64.077 Q 369.628 64.807 369.628 65.958 Q 369.628 68.015 369.523 68.727 Q 369.479 69.061 369.395 69.347 Q 369.312 69.632 369.189 69.878 Q 369.584 70.186 369.989 70.515 Q 370.393 70.845 370.789 71.153 Q 370.824 71.179 370.832 71.223 Q 370.841 71.267 370.806 71.302 Z M 371.946 59.657 Q 371.946 59.551 372.052 59.551 L 373.968 59.551 Q 374.064 59.551 374.064 59.657 L 374.064 67.778 Q 374.064 69.043 374.767 69.694 Q 375.479 70.353 376.534 70.353 Q 377.571 70.353 378.283 69.694 Q 378.995 69.035 378.995 67.778 L 378.995 59.657 Q 378.995 59.551 379.1 59.551 L 381.008 59.551 Q 381.113 59.551 381.113 59.657 L 381.113 67.989 Q 381.113 70.01 379.768 71.241 Q 378.441 72.462 376.534 72.462 Q 374.618 72.462 373.282 71.241 Q 371.946 70.01 371.946 67.989 Z M 382.378 72.348 Q 382.317 72.348 382.29 72.304 Q 382.264 72.26 382.282 72.207 L 386.887 59.604 Q 386.905 59.534 386.975 59.534 L 388.548 59.534 Q 388.575 59.534 388.605 59.556 Q 388.636 59.577 388.645 59.604 L 393.242 72.207 Q 393.259 72.26 393.233 72.304 Q 393.206 72.348 393.154 72.348 L 391.141 72.348 Q 391.071 72.348 391.053 72.278 L 390.104 69.5 L 385.463 69.5 Q 385.217 70.212 384.976 70.893 Q 384.734 71.575 384.488 72.278 Q 384.479 72.304 384.448 72.326 Q 384.417 72.348 384.391 72.348 Z M 389.471 67.611 Q 389.454 67.549 389.423 67.479 Q 389.392 67.409 389.374 67.356 Q 389.225 66.925 389.102 66.56 Q 388.979 66.196 388.882 65.923 Q 388.821 65.747 388.764 65.58 Q 388.706 65.413 388.654 65.264 Q 388.61 65.123 388.566 64.996 Q 388.522 64.869 388.478 64.745 Q 388.399 64.491 388.315 64.236 Q 388.232 63.981 388.144 63.708 Q 388.1 63.585 388.052 63.436 Q 388.003 63.286 387.951 63.119 Q 387.924 63.032 387.911 62.983 Q 387.898 62.935 387.88 62.887 Q 387.863 62.838 387.841 62.777 Q 387.819 62.715 387.784 62.601 Q 387.687 62.891 387.603 63.137 Q 387.52 63.383 387.45 63.594 Q 387.432 63.647 387.423 63.691 Q 387.414 63.735 387.397 63.779 Q 387.353 63.928 387.305 64.06 Q 387.256 64.192 387.212 64.324 Q 387.168 64.464 387.124 64.596 Q 387.081 64.728 387.037 64.851 Q 386.949 65.115 386.856 65.405 Q 386.764 65.695 386.65 66.011 Q 386.536 66.327 386.413 66.692 Q 386.289 67.057 386.096 67.611 Z M 387.647 58.417 Q 387.647 58.417 387.465 58.417 Q 387.283 58.417 387.063 58.417 L 387.063 58.013 Q 387.16 57.459 387.748 57.108 Q 388.671 56.721 388.592 56.194 Q 388.469 55.658 387.766 55.649 Q 386.834 55.666 386.782 56.554 L 385.472 56.554 Q 385.472 56.062 385.652 55.737 Q 385.832 55.411 386.14 55.104 Q 386.747 54.524 387.722 54.506 Q 388.75 54.524 389.41 55.086 Q 389.708 55.385 389.875 55.666 Q 390.042 55.948 390.051 56.378 Q 389.998 56.985 389.374 57.442 Q 388.847 57.697 388.566 57.846 L 388.46 57.96 L 388.346 58.136 L 388.329 58.417 Q 388.012 58.417 387.647 58.417 Z M 394.834 72.357 Q 394.729 72.357 394.729 72.251 L 394.729 59.657 Q 394.729 59.551 394.834 59.551 L 396.645 59.551 Q 396.698 59.551 396.733 59.604 L 402.27 68.323 L 402.27 59.657 Q 402.27 59.551 402.375 59.551 L 404.291 59.551 Q 404.397 59.551 404.397 59.657 L 404.397 72.251 Q 404.397 72.357 404.291 72.357 L 402.49 72.357 Q 402.437 72.357 402.402 72.304 L 396.847 63.585 L 396.847 72.251 Q 396.847 72.357 396.75 72.357 Z M 411.226 67.233 Q 411.121 67.233 411.121 67.127 L 411.121 65.317 Q 411.121 65.22 411.226 65.22 L 415.7 65.22 Q 415.805 65.22 415.805 65.317 L 415.805 67.883 Q 415.805 69.826 414.469 71.135 Q 413.116 72.462 411.208 72.462 Q 409.688 72.462 408.651 71.733 Q 407.631 71.012 407.174 70.151 L 407.183 70.151 Q 407.016 69.852 406.902 69.549 Q 406.788 69.245 406.726 68.911 Q 406.673 68.577 406.643 67.844 Q 406.612 67.11 406.612 65.958 Q 406.612 64.807 406.643 64.077 Q 406.673 63.348 406.726 63.014 Q 406.788 62.68 406.902 62.372 Q 407.016 62.065 407.183 61.766 L 407.174 61.766 Q 407.631 60.913 408.651 60.184 Q 409.679 59.446 411.208 59.446 Q 413.037 59.446 414.232 60.571 Q 415.445 61.696 415.735 63.26 Q 415.752 63.313 415.717 63.348 Q 415.682 63.383 415.629 63.383 L 413.617 63.383 Q 413.538 63.383 413.52 63.313 Q 413.406 62.961 413.195 62.658 Q 412.984 62.355 412.676 62.091 Q 412.096 61.573 411.208 61.573 Q 410.549 61.573 410.083 61.836 Q 409.618 62.1 409.336 62.443 Q 409.169 62.654 409.046 62.922 Q 408.923 63.19 408.853 63.471 Q 408.783 63.77 408.756 64.394 Q 408.73 65.018 408.73 65.958 Q 408.73 66.916 408.756 67.536 Q 408.783 68.156 408.853 68.454 Q 408.923 68.727 409.051 68.995 Q 409.178 69.263 409.336 69.465 Q 409.618 69.834 410.083 70.094 Q 410.549 70.353 411.208 70.353 Q 412.254 70.353 412.966 69.641 Q 413.687 68.929 413.687 67.778 L 413.687 67.233 Z M 422.43 72.357 Q 422.325 72.357 422.325 72.251 L 422.325 59.657 Q 422.325 59.551 422.43 59.551 L 424.241 59.551 Q 424.293 59.551 424.329 59.604 L 429.866 68.323 L 429.866 59.657 Q 429.866 59.551 429.971 59.551 L 431.887 59.551 Q 431.993 59.551 431.993 59.657 L 431.993 72.251 Q 431.993 72.357 431.887 72.357 L 430.085 72.357 Q 430.033 72.357 429.998 72.304 L 424.443 63.585 L 424.443 72.251 Q 424.443 72.357 424.346 72.357 Z M 438.822 67.233 Q 438.716 67.233 438.716 67.127 L 438.716 65.317 Q 438.716 65.22 438.822 65.22 L 443.296 65.22 Q 443.401 65.22 443.401 65.317 L 443.401 67.883 Q 443.401 69.826 442.065 71.135 Q 440.712 72.462 438.804 72.462 Q 437.284 72.462 436.247 71.733 Q 435.227 71.012 434.77 70.151 L 434.779 70.151 Q 434.612 69.852 434.498 69.549 Q 434.383 69.245 434.322 68.911 Q 434.269 68.577 434.238 67.844 Q 434.208 67.11 434.208 65.958 Q 434.208 64.807 434.238 64.077 Q 434.269 63.348 434.322 63.014 Q 434.383 62.68 434.498 62.372 Q 434.612 62.065 434.779 61.766 L 434.77 61.766 Q 435.227 60.913 436.247 60.184 Q 437.275 59.446 438.804 59.446 Q 440.632 59.446 441.828 60.571 Q 443.041 61.696 443.331 63.26 Q 443.348 63.313 443.313 63.348 Q 443.278 63.383 443.225 63.383 L 441.213 63.383 Q 441.133 63.383 441.116 63.313 Q 441.002 62.961 440.791 62.658 Q 440.58 62.355 440.272 62.091 Q 439.692 61.573 438.804 61.573 Q 438.145 61.573 437.679 61.836 Q 437.214 62.1 436.932 62.443 Q 436.765 62.654 436.642 62.922 Q 436.519 63.19 436.449 63.471 Q 436.379 63.77 436.352 64.394 Q 436.326 65.018 436.326 65.958 Q 436.326 66.916 436.352 67.536 Q 436.379 68.156 436.449 68.454 Q 436.519 68.727 436.647 68.995 Q 436.774 69.263 436.932 69.465 Q 437.214 69.834 437.679 70.094 Q 438.145 70.353 438.804 70.353 Q 439.85 70.353 440.562 69.641 Q 441.283 68.929 441.283 67.778 L 441.283 67.233 Z M 444.474 72.348 Q 444.412 72.348 444.386 72.304 Q 444.359 72.26 444.377 72.207 L 448.982 59.604 Q 449 59.534 449.07 59.534 L 450.644 59.534 Q 450.67 59.534 450.701 59.556 Q 450.731 59.577 450.74 59.604 L 455.337 72.207 Q 455.354 72.26 455.328 72.304 Q 455.302 72.348 455.249 72.348 L 453.236 72.348 Q 453.166 72.348 453.148 72.278 L 452.199 69.5 L 447.559 69.5 Q 447.312 70.212 447.071 70.893 Q 446.829 71.575 446.583 72.278 Q 446.574 72.304 446.543 72.326 Q 446.513 72.348 446.486 72.348 Z M 451.566 67.611 Q 451.549 67.549 451.518 67.479 Q 451.487 67.409 451.47 67.356 Q 451.32 66.925 451.197 66.56 Q 451.074 66.196 450.978 65.923 Q 450.916 65.747 450.859 65.58 Q 450.802 65.413 450.749 65.264 Q 450.705 65.123 450.661 64.996 Q 450.617 64.869 450.573 64.745 Q 450.494 64.491 450.411 64.236 Q 450.327 63.981 450.239 63.708 Q 450.195 63.585 450.147 63.436 Q 450.099 63.286 450.046 63.119 Q 450.02 63.032 450.006 62.983 Q 449.993 62.935 449.976 62.887 Q 449.958 62.838 449.936 62.777 Q 449.914 62.715 449.879 62.601 Q 449.782 62.891 449.699 63.137 Q 449.615 63.383 449.545 63.594 Q 449.527 63.647 449.519 63.691 Q 449.51 63.735 449.492 63.779 Q 449.448 63.928 449.4 64.06 Q 449.352 64.192 449.308 64.324 Q 449.264 64.464 449.22 64.596 Q 449.176 64.728 449.132 64.851 Q 449.044 65.115 448.952 65.405 Q 448.859 65.695 448.745 66.011 Q 448.631 66.327 448.508 66.692 Q 448.385 67.057 448.191 67.611 Z M 447.11 58.083 Q 447.005 58.083 447.022 57.978 Q 447.084 57.547 447.238 57.196 Q 447.392 56.844 447.629 56.572 Q 447.866 56.326 448.183 56.189 Q 448.499 56.053 448.851 56.053 Q 449.009 56.053 449.158 56.071 Q 449.308 56.088 449.457 56.141 Q 449.615 56.194 449.76 56.246 Q 449.905 56.299 450.002 56.334 Q 450.31 56.493 450.556 56.572 Q 450.723 56.651 450.951 56.651 Q 451.153 56.651 451.347 56.528 Q 451.514 56.413 451.584 56.027 Q 451.602 55.956 451.681 55.956 L 452.595 55.956 Q 452.709 55.956 452.691 56.062 Q 452.639 56.44 452.507 56.769 Q 452.375 57.099 452.173 57.371 Q 451.953 57.653 451.637 57.815 Q 451.32 57.978 450.907 57.987 Q 450.749 57.987 450.595 57.96 Q 450.441 57.934 450.301 57.872 L 450.31 57.872 Q 450.213 57.855 450.055 57.798 Q 449.896 57.741 449.686 57.661 Q 449.413 57.538 449.167 57.468 Q 448.921 57.398 448.684 57.389 Q 448.552 57.389 448.332 57.512 L 448.341 57.503 Q 448.121 57.644 448.121 57.995 Q 448.121 58.083 448.033 58.083 Z M 456.9 72.357 Q 456.795 72.357 456.795 72.251 L 456.795 59.657 Q 456.795 59.551 456.9 59.551 L 458.807 59.551 Q 458.913 59.551 458.913 59.657 L 458.913 72.251 Q 458.913 72.357 458.807 72.357 Z" transform="matrix(1.310387, 0, 0, 1.310387, -59.698296, -1.169035)" style="fill: rgb(255, 255, 255);"/>
    <path d="M 426.152 119.118 Q 426.045 119.118 426.045 119.011 L 426.045 106.277 Q 426.045 106.17 426.152 106.17 L 434.292 106.17 Q 434.399 106.17 434.399 106.277 L 434.399 108.107 Q 434.399 108.214 434.292 108.214 L 428.187 108.214 L 428.187 111.626 L 433.377 111.626 Q 433.484 111.626 433.484 111.733 L 433.484 113.457 Q 433.484 113.555 433.377 113.555 L 428.187 113.555 L 428.187 117.092 L 434.292 117.092 Q 434.399 117.092 434.399 117.198 L 434.399 119.011 Q 434.399 119.118 434.292 119.118 Z M 442.572 119.118 Q 442.519 119.118 442.483 119.065 L 439.781 114.479 Q 439.106 115.634 438.431 116.772 Q 437.755 117.909 437.08 119.065 Q 437.044 119.118 436.991 119.118 L 434.814 119.118 Q 434.743 119.118 434.716 119.069 Q 434.689 119.02 434.725 118.958 L 438.591 112.48 Q 437.675 110.933 436.778 109.405 Q 435.88 107.876 434.974 106.33 Q 434.938 106.268 434.965 106.219 Q 434.992 106.17 435.054 106.17 L 437.24 106.17 Q 437.293 106.17 437.329 106.223 L 439.781 110.489 Q 440.395 109.422 441.008 108.361 Q 441.621 107.299 442.234 106.223 Q 442.27 106.17 442.323 106.17 L 444.509 106.17 Q 444.571 106.17 444.598 106.219 Q 444.625 106.268 444.589 106.33 L 440.972 112.48 Q 441.95 114.106 442.91 115.719 Q 443.869 117.332 444.847 118.958 Q 444.882 119.02 444.856 119.069 Q 444.829 119.118 444.758 119.118 Z M 448.149 108.214 L 448.149 112.106 L 450.913 112.106 Q 451.935 112.106 452.433 111.493 Q 452.939 110.898 452.939 110.16 Q 452.939 109.058 452.157 108.552 Q 451.65 108.214 450.842 108.214 Z M 446.114 119.118 Q 446.007 119.118 446.007 119.011 L 446.007 106.277 Q 446.007 106.17 446.114 106.17 L 450.735 106.17 Q 451.499 106.17 452.184 106.33 Q 452.877 106.49 453.659 107.094 Q 453.961 107.334 454.214 107.65 Q 454.468 107.965 454.672 108.347 Q 454.867 108.738 454.974 109.209 Q 455.081 109.68 455.081 110.213 Q 455.081 111.609 454.032 112.879 Q 452.983 114.141 450.984 114.141 L 448.149 114.141 L 448.149 119.011 Q 448.149 119.118 448.042 119.118 Z M 458.768 108.098 L 458.768 111.751 L 461.585 111.751 Q 462.616 111.751 463.131 111.182 Q 463.647 110.613 463.647 109.831 Q 463.647 109.387 463.491 109.04 Q 463.336 108.694 463.042 108.472 Q 462.785 108.294 462.442 108.196 Q 462.1 108.098 461.7 108.098 Z M 456.733 119.118 Q 456.626 119.118 456.626 119.011 L 456.626 106.277 Q 456.626 106.17 456.733 106.17 L 461.718 106.17 Q 462.545 106.17 463.211 106.397 Q 463.878 106.623 464.375 107.041 Q 464.633 107.281 464.869 107.587 Q 465.104 107.894 465.286 108.249 Q 465.468 108.605 465.575 109.005 Q 465.682 109.405 465.682 109.831 Q 465.682 110.462 465.504 111.027 Q 465.326 111.591 465.006 112.08 Q 464.677 112.533 464.242 112.875 Q 463.807 113.217 463.256 113.422 Q 463.975 114.799 464.704 116.19 Q 465.433 117.58 466.153 118.958 Q 466.179 119.02 466.153 119.069 Q 466.126 119.118 466.064 119.118 L 463.771 119.118 Q 463.744 119.118 463.718 119.096 Q 463.691 119.073 463.673 119.056 L 461.069 113.679 L 458.768 113.679 L 458.768 119.011 Q 458.768 119.118 458.661 119.118 Z M 467.66 119.118 Q 467.554 119.118 467.554 119.011 L 467.554 106.277 Q 467.554 106.17 467.66 106.17 L 475.801 106.17 Q 475.907 106.17 475.907 106.277 L 475.907 108.107 Q 475.907 108.214 475.801 108.214 L 469.695 108.214 L 469.695 111.626 L 474.885 111.626 Q 474.992 111.626 474.992 111.733 L 474.992 113.457 Q 474.992 113.555 474.885 113.555 L 469.695 113.555 L 469.695 117.092 L 475.801 117.092 Q 475.907 117.092 475.907 117.198 L 475.907 119.011 Q 475.907 119.118 475.801 119.118 Z M 477.682 115.848 Q 477.708 115.812 477.753 115.812 Q 477.797 115.812 477.833 115.839 Q 478.535 116.407 479.446 116.75 Q 480.357 117.092 481.37 117.092 Q 482.507 117.092 483.165 116.621 Q 483.787 116.168 483.787 115.421 Q 483.787 114.017 482.214 113.804 L 482.223 113.804 Q 482.001 113.777 481.801 113.75 Q 481.601 113.724 481.401 113.697 Q 481.201 113.67 480.992 113.639 Q 480.783 113.608 480.534 113.573 Q 479.699 113.457 479.046 113.15 Q 478.393 112.844 477.948 112.337 Q 477.504 111.822 477.282 111.213 Q 477.06 110.604 477.06 109.885 Q 477.06 108.196 478.179 107.139 Q 479.308 106.063 481.316 106.063 Q 481.912 106.063 482.476 106.166 Q 483.04 106.268 483.569 106.445 Q 484.098 106.623 484.582 106.868 Q 485.067 107.112 485.511 107.405 Q 485.6 107.467 485.538 107.556 L 484.462 109.147 Q 484.4 109.227 484.32 109.174 Q 483.627 108.738 482.845 108.476 Q 482.063 108.214 481.228 108.214 Q 480.801 108.214 480.437 108.316 Q 480.072 108.418 479.779 108.649 Q 479.201 109.067 479.201 109.92 Q 479.201 110.409 479.592 110.871 Q 479.788 111.084 480.117 111.231 Q 480.445 111.378 480.925 111.449 Q 481.183 111.493 481.53 111.542 Q 481.876 111.591 482.347 111.644 Q 484.169 111.866 485.049 112.986 Q 485.929 114.079 485.929 115.421 Q 485.929 117.216 484.676 118.229 Q 483.414 119.225 481.352 119.225 Q 478.446 119.225 476.411 117.447 Q 476.375 117.421 476.375 117.376 Q 476.375 117.332 476.402 117.296 Z M 487.952 115.848 Q 487.978 115.812 488.023 115.812 Q 488.067 115.812 488.103 115.839 Q 488.805 116.407 489.716 116.75 Q 490.627 117.092 491.64 117.092 Q 492.777 117.092 493.435 116.621 Q 494.057 116.168 494.057 115.421 Q 494.057 114.017 492.484 113.804 L 492.493 113.804 Q 492.271 113.777 492.071 113.75 Q 491.871 113.724 491.671 113.697 Q 491.471 113.67 491.262 113.639 Q 491.053 113.608 490.804 113.573 Q 489.969 113.457 489.316 113.15 Q 488.663 112.844 488.218 112.337 Q 487.774 111.822 487.552 111.213 Q 487.33 110.604 487.33 109.885 Q 487.33 108.196 488.449 107.139 Q 489.578 106.063 491.586 106.063 Q 492.182 106.063 492.746 106.166 Q 493.311 106.268 493.839 106.445 Q 494.368 106.623 494.852 106.868 Q 495.337 107.112 495.781 107.405 Q 495.87 107.467 495.808 107.556 L 494.732 109.147 Q 494.67 109.227 494.59 109.174 Q 493.897 108.738 493.115 108.476 Q 492.333 108.214 491.498 108.214 Q 491.071 108.214 490.707 108.316 Q 490.342 108.418 490.049 108.649 Q 489.471 109.067 489.471 109.92 Q 489.471 110.409 489.862 110.871 Q 490.058 111.084 490.387 111.231 Q 490.716 111.378 491.195 111.449 Q 491.453 111.493 491.8 111.542 Q 492.146 111.591 492.617 111.644 Q 494.439 111.866 495.319 112.986 Q 496.199 114.079 496.199 115.421 Q 496.199 117.216 494.946 118.229 Q 493.684 119.225 491.622 119.225 Q 488.716 119.225 486.681 117.447 Q 486.645 117.421 486.645 117.376 Q 486.645 117.332 486.672 117.296 Z M 500.204 119.118 Q 500.115 119.118 500.097 119.038 L 496.907 106.303 Q 496.889 106.25 496.924 106.21 Q 496.96 106.17 497.013 106.17 L 499.057 106.17 Q 499.146 106.17 499.164 106.25 L 501.083 114.95 Q 501.67 112.764 502.265 110.604 Q 502.861 108.445 503.456 106.25 Q 503.474 106.17 503.563 106.17 L 504.958 106.17 Q 505.038 106.17 505.056 106.25 L 507.437 114.95 Q 507.917 112.764 508.397 110.604 Q 508.877 108.445 509.357 106.25 Q 509.375 106.17 509.464 106.17 L 511.508 106.17 Q 511.561 106.17 511.596 106.21 Q 511.632 106.25 511.614 106.303 L 508.424 119.038 Q 508.406 119.118 508.317 119.118 L 506.709 119.118 Q 506.629 119.118 506.611 119.038 L 504.256 110.196 Q 503.669 112.426 503.083 114.621 Q 502.496 116.816 501.91 119.038 Q 501.892 119.118 501.812 119.118 Z M 511.528 119.109 Q 511.466 119.109 511.439 119.065 Q 511.412 119.02 511.43 118.967 L 516.087 106.223 Q 516.104 106.152 516.175 106.152 L 517.766 106.152 Q 517.793 106.152 517.824 106.174 Q 517.855 106.197 517.864 106.223 L 522.512 118.967 Q 522.529 119.02 522.503 119.065 Q 522.476 119.109 522.423 119.109 L 520.388 119.109 Q 520.317 119.109 520.299 119.038 L 519.339 116.23 L 514.647 116.23 Q 514.398 116.95 514.154 117.638 Q 513.909 118.327 513.661 119.038 Q 513.652 119.065 513.621 119.087 Q 513.589 119.109 513.563 119.109 Z M 518.699 114.319 Q 518.682 114.257 518.65 114.186 Q 518.619 114.115 518.602 114.061 Q 518.45 113.626 518.326 113.257 Q 518.202 112.888 518.104 112.613 Q 518.042 112.435 517.984 112.266 Q 517.926 112.097 517.873 111.946 Q 517.828 111.804 517.784 111.675 Q 517.74 111.546 517.695 111.422 Q 517.615 111.164 517.531 110.907 Q 517.446 110.649 517.357 110.373 Q 517.313 110.249 517.264 110.098 Q 517.215 109.947 517.162 109.778 Q 517.135 109.689 517.122 109.64 Q 517.109 109.591 517.091 109.542 Q 517.073 109.494 517.051 109.431 Q 517.029 109.369 516.993 109.254 Q 516.895 109.547 516.811 109.796 Q 516.726 110.045 516.655 110.258 Q 516.638 110.311 516.629 110.356 Q 516.62 110.4 516.602 110.444 Q 516.558 110.596 516.509 110.729 Q 516.46 110.862 516.415 110.995 Q 516.371 111.138 516.327 111.271 Q 516.282 111.404 516.238 111.529 Q 516.149 111.795 516.056 112.089 Q 515.962 112.382 515.847 112.702 Q 515.731 113.022 515.607 113.39 Q 515.482 113.759 515.287 114.319 Z M 525.493 119.118 Q 525.395 119.118 525.395 119.011 L 525.395 113.804 Q 524.435 111.929 523.484 110.062 Q 522.533 108.196 521.582 106.321 Q 521.556 106.259 521.582 106.214 Q 521.609 106.17 521.68 106.17 L 523.706 106.17 Q 523.733 106.17 523.76 106.192 Q 523.786 106.214 523.804 106.232 L 526.417 111.689 Q 527.074 110.311 527.719 108.96 Q 528.363 107.61 529.021 106.232 Q 529.038 106.214 529.065 106.192 Q 529.092 106.17 529.118 106.17 L 531.153 106.17 Q 531.224 106.17 531.251 106.214 Q 531.278 106.259 531.251 106.321 L 527.43 113.804 L 527.43 119.011 Q 527.43 119.118 527.323 119.118 Z" style="fill: rgb(255, 255, 255);"/>
    <path d="M 343.122 84.558 Q 343.194 84.558 343.242 84.612 Q 343.29 84.666 343.266 84.738 Q 342.761 87.189 341.032 88.51 Q 340.191 89.147 339.206 89.471 Q 338.221 89.795 337.08 89.795 Q 335.002 89.795 333.584 88.798 Q 332.191 87.813 331.566 86.636 Q 331.35 86.228 331.194 85.813 Q 331.038 85.399 330.954 84.942 Q 330.798 84.054 330.798 80.906 Q 330.798 79.333 330.834 78.336 Q 330.87 77.339 330.954 76.883 Q 331.038 76.426 331.194 76.006 Q 331.35 75.585 331.566 75.177 Q 332.191 74.012 333.584 73.015 Q 334.99 72.006 337.08 72.006 Q 339.578 72.006 341.212 73.543 Q 342.869 75.093 343.266 77.219 Q 343.29 77.291 343.242 77.339 Q 343.194 77.387 343.122 77.387 L 340.371 77.387 Q 340.263 77.387 340.239 77.291 Q 340.083 76.81 339.794 76.396 Q 339.506 75.982 339.086 75.621 Q 338.293 74.913 337.08 74.913 Q 336.179 74.913 335.542 75.273 Q 334.906 75.633 334.521 76.102 Q 334.293 76.39 334.125 76.756 Q 333.957 77.123 333.861 77.507 Q 333.765 77.916 333.729 78.768 Q 333.693 79.621 333.693 80.906 Q 333.693 82.216 333.729 83.063 Q 333.765 83.909 333.861 84.318 Q 333.957 84.69 334.131 85.057 Q 334.305 85.423 334.521 85.699 Q 334.906 86.204 335.542 86.558 Q 336.179 86.912 337.08 86.912 Q 339.158 86.912 340.239 84.642 Q 340.263 84.618 340.299 84.588 Q 340.335 84.558 340.371 84.558 Z M 348.15 89.651 Q 348.006 89.651 348.006 89.507 L 348.006 74.756 L 343.429 74.756 Q 343.285 74.756 343.285 74.612 L 343.285 72.294 Q 343.285 72.15 343.429 72.15 L 355.465 72.15 Q 355.609 72.15 355.609 72.294 L 355.609 74.612 Q 355.609 74.756 355.465 74.756 L 350.9 74.756 L 350.9 89.507 Q 350.9 89.651 350.756 89.651 Z M 355.978 89.651 Q 355.834 89.651 355.834 89.507 L 355.834 87.068 Q 355.834 86.924 355.978 86.924 L 358.428 86.924 Q 358.56 86.924 358.56 87.068 L 358.56 89.507 Q 358.56 89.651 358.428 89.651 Z M 366.923 77.327 Q 366.923 76.162 366.304 75.507 Q 365.686 74.853 364.653 74.853 Q 363.62 74.853 363.007 75.507 Q 362.395 76.162 362.395 77.327 L 362.395 84.594 Q 362.395 85.771 363.007 86.42 Q 363.62 87.068 364.653 87.068 Q 365.686 87.068 366.304 86.42 Q 366.923 85.771 366.923 84.594 Z M 359.656 77.183 Q 359.656 74.756 361.181 73.447 Q 362.695 72.114 364.653 72.114 Q 365.626 72.114 366.497 72.456 Q 367.367 72.799 368.124 73.447 Q 368.881 74.12 369.271 75.051 Q 369.662 75.982 369.662 77.183 L 369.662 84.738 Q 369.662 87.153 368.124 88.474 Q 366.611 89.795 364.653 89.795 Q 362.695 89.795 361.181 88.474 Q 359.656 87.165 359.656 84.738 Z M 374.694 89.687 Q 374.55 89.687 374.55 89.543 L 374.55 75.273 Q 373.997 75.681 373.445 76.096 Q 372.892 76.51 372.34 76.907 Q 372.256 76.967 372.183 76.925 Q 372.111 76.883 372.111 76.786 L 372.111 74.18 Q 372.111 74.156 372.129 74.12 Q 372.147 74.084 372.171 74.06 L 374.646 72.27 L 377.156 72.27 Q 377.3 72.27 377.3 72.414 L 377.3 89.543 Q 377.3 89.687 377.156 89.687 Z"/>
    <path d="M 394.304 191.656 Q 394.105 191.656 394.105 191.457 L 394.105 171.735 Q 393.341 172.299 392.578 172.872 Q 391.814 173.444 391.05 173.992 Q 390.934 174.075 390.835 174.017 Q 390.735 173.959 390.735 173.826 L 390.735 170.224 Q 390.735 170.191 390.76 170.141 Q 390.785 170.091 390.818 170.058 L 394.238 167.584 L 397.708 167.584 Q 397.907 167.584 397.907 167.783 L 397.907 191.457 Q 397.907 191.656 397.708 191.656 Z M 401.309 191.607 Q 401.109 191.607 401.109 191.407 L 401.109 188.17 L 410.406 176.532 L 410.406 176.549 Q 410.921 175.902 411.07 175.362 Q 411.22 174.822 411.22 174.308 Q 411.22 173.162 410.39 172.15 Q 409.56 171.153 408.149 171.153 Q 406.854 171.153 405.907 172.033 Q 405.443 172.465 405.202 173.054 Q 404.961 173.644 404.895 174.391 Q 404.895 174.474 404.837 174.524 Q 404.778 174.573 404.695 174.573 L 401.309 174.573 Q 401.109 174.573 401.109 174.374 Q 401.143 171.419 403.118 169.41 Q 405.127 167.368 407.9 167.368 Q 410.904 167.368 412.963 169.427 L 412.946 169.427 Q 414.988 171.469 414.988 174.341 Q 414.988 175.586 414.623 176.649 Q 414.258 177.711 413.527 178.624 L 413.527 178.608 Q 412.581 179.803 411.668 180.948 Q 410.755 182.094 409.842 183.231 Q 408.929 184.368 408.016 185.506 Q 407.103 186.643 406.156 187.838 L 414.789 187.838 Q 414.988 187.838 414.988 188.037 L 414.988 191.407 Q 414.988 191.607 414.789 191.607 Z M 427.671 174.573 Q 427.671 172.963 426.816 172.058 Q 425.961 171.153 424.533 171.153 Q 423.105 171.153 422.259 172.058 Q 421.412 172.963 421.412 174.573 L 421.412 184.617 Q 421.412 186.244 422.259 187.141 Q 423.105 188.037 424.533 188.037 Q 425.961 188.037 426.816 187.141 Q 427.671 186.244 427.671 184.617 Z M 417.627 174.374 Q 417.627 171.021 419.735 169.211 Q 421.827 167.368 424.533 167.368 Q 425.878 167.368 427.081 167.841 Q 428.285 168.315 429.331 169.211 Q 430.377 170.141 430.916 171.427 Q 431.456 172.714 431.456 174.374 L 431.456 184.817 Q 431.456 188.153 429.331 189.98 Q 427.239 191.806 424.533 191.806 Q 421.827 191.806 419.735 189.98 Q 417.627 188.17 417.627 184.817 Z"/>
    <path d="M 505.004 174.391 Q 505.02 172.731 505.568 171.427 Q 506.116 170.124 507.112 169.194 Q 508.058 168.331 509.237 167.858 Q 510.416 167.385 511.711 167.385 Q 514.068 167.385 515.977 168.796 Q 517.77 170.224 518.318 172.913 Q 518.351 173.013 518.285 173.079 Q 518.218 173.146 518.119 173.146 L 514.715 173.146 Q 514.583 173.146 514.533 173.029 Q 513.786 171.203 511.694 171.153 Q 508.689 171.236 508.689 174.607 L 508.689 176.566 Q 509.768 176.25 510.839 176.068 Q 511.91 175.885 512.873 175.902 Q 515.197 175.902 516.857 177.528 Q 518.451 179.205 518.434 182.692 L 518.434 184.85 Q 518.384 188.253 516.409 190.029 Q 514.549 191.789 511.711 191.872 Q 508.955 191.789 507.112 190.046 Q 505.02 188.22 505.004 184.866 Z M 508.689 184.667 Q 508.706 188.07 511.711 188.104 Q 514.649 188.087 514.765 184.667 L 514.765 182.725 Q 514.632 179.355 511.711 179.288 Q 508.706 179.371 508.689 182.725 Z M 531.131 174.573 Q 531.131 172.963 530.276 172.058 Q 529.421 171.153 527.993 171.153 Q 526.566 171.153 525.719 172.058 Q 524.872 172.963 524.872 174.573 L 524.872 184.617 Q 524.872 186.244 525.719 187.141 Q 526.566 188.037 527.993 188.037 Q 529.421 188.037 530.276 187.141 Q 531.131 186.244 531.131 184.617 Z M 521.087 174.374 Q 521.087 171.021 523.196 169.211 Q 525.287 167.368 527.993 167.368 Q 529.338 167.368 530.542 167.841 Q 531.745 168.315 532.791 169.211 Q 533.837 170.141 534.377 171.427 Q 534.916 172.714 534.916 174.374 L 534.916 184.817 Q 534.916 188.153 532.791 189.98 Q 530.699 191.806 527.993 191.806 Q 525.287 191.806 523.196 189.98 Q 521.087 188.17 521.087 184.817 Z" style="fill: rgb(255, 255, 255);"/>
  </g>
</svg>