<?xml version="1.0" encoding="UTF-8" standalone="no"?>
<svg xmlns="http://www.w3.org/2000/svg" width="124.24479mm" height="50mm" viewBox="0 0 124.24478 49.999999">
  <g transform="translate(-338.30085 -282.82561)">
    <path fill="#028f45" fill-rule="evenodd" d="M338.30085 282.82561h124.24479v50H338.30085Z" paint-order="stroke fill markers"/>
    <path fill="#fff" fill-rule="evenodd" d="M342.58865 283.2319c-2.13855 0-3.8796 1.74104-3.8796 3.8796v41.43331c0 2.13856 1.74104 3.8796 3.8796 3.8796h115.67882c2.13855 0 3.87876-1.74104 3.87876-3.8796V287.1115c0-2.13856-1.74021-3.8796-3.87876-3.8796zm0 1.20994h115.67882c1.48921 0 2.66883 1.18045 2.66883 2.66966v41.43331c0 1.48921-1.17962 2.66965-2.66883 2.66965H342.58865c-1.4892 0-2.66965-1.18044-2.66965-2.66965V287.1115c0-1.48921 1.18045-2.66966 2.66965-2.66966z" color="#000" font-family="sans-serif" font-weight="400" overflow="visible" paint-order="stroke fill markers" style="line-height:normal;font-variant-ligatures:normal;font-variant-position:normal;font-variant-caps:normal;font-variant-numeric:normal;font-variant-alternates:normal;font-variant-east-asian:normal;font-feature-settings:normal;font-variation-settings:normal;text-indent:0;text-align:start;text-decoration-line:none;text-decoration-style:solid;text-decoration-color:#000;text-transform:none;text-orientation:mixed;white-space:normal;shape-padding:0;shape-margin:0;inline-size:0;isolation:auto;mix-blend-mode:normal;solid-color:#000;solid-opacity:1"/>
    <path fill="#fff" d="M430.46347 293.63885c-.75512 0-1.39499.26492-1.91974.79394-.51196.52476-.76852 1.16461-.76852 1.91975 0 .39677.0791.7421.23694 1.03647.15786.29437.36685.56318.6271.80636-.33703.24745-.59298.54196-.76789.88327-.17066.3413-.25556.73164-.25556 1.17107 0 .82767.28104 1.50609.84419 2.03511.55462.51623 1.22276.77411 2.00348.77411.38396 0 .7441-.0662 1.08113-.19849.33705-.13652.64442-.32816.92174-.57562.28157-.26451.49251-.56739.63329-.9087.14506-.34129.21771-.71684.21771-1.12641 0-.87886-.34146-1.56371-1.02406-2.05434.12373-.11943.23946-.24549.34611-.37774.1067-.13653.19799-.2793.27478-.42862.0768-.15358.1366-.31563.17926-.48629.0426-.17065.0639-.35393.0639-.55018 0-.7466-.25982-1.38646-.7803-1.91975-.51623-.52902-1.15414-.79394-1.91355-.79394zm7.02769.0831c-.0511 0-.0763.0257-.0763.0769v9.10623c0 .0512.0251.0769.0763.0769h1.30568c.0513 0 .0769-.0257.0769-.0769v-1.83663c.15359-.17918.30921-.35603.46706-.53095.16212-.17492.31969-.35178.47326-.53096l1.6704 2.937c.017.0256.0383.0384.0639.0384h1.63876c.0341 0 .0573-.0108.0701-.0317.0128-.0256.0108-.0533-.006-.0831-.42236-.65701-.84291-1.30586-1.26101-1.9458-.41383-.64421-.83182-1.29499-1.25418-1.952l2.20134-2.50218c.0214-.0256.0258-.0533.0131-.0831-.0128-.0299-.0366-.0446-.0707-.0446h-1.56123c-.0214 0-.0406.008-.0577.0255-.40102.49062-.79974.97935-1.1965 1.46571-.39251.48209-.78928.96826-1.1903 1.45888v-5.49065c0-.0511-.0257-.0769-.0769-.0769zm-7.02769 1.37639c.32424 0 .60784.1061.85101.31944.25598.20905.38396.51193.38396.9087 0 .4053-.12798.71267-.38396.92173-.25597.20904-.53957.31385-.85101.31385-.31143 0-.59759-.10478-.85783-.31385-.24746-.20479-.37093-.51217-.37093-.92173 0-.40103.12347-.70391.37093-.9087.25597-.21331.54213-.31944.85783-.31944zm16.85157 1.17107c-.6826 0-1.22857.22186-1.63814.66555v-.51854c0-.0512-.0257-.0769-.0769-.0769h-1.30505c-.0513 0-.0769.0257-.0769.0769v6.48867c0 .0513.0257.0769.0769.0769H445.6c.0513 0 .0769-.0257.0769-.0769v-3.86492c0-.42662.11127-.75074.33309-.97259.23038-.23037.52428-.34548.88265-.34548.34557 0 .63366.11511.86404.34548.23038.23039.34549.5545.34549.97259v3.86492c0 .0513.0238.0769.0707.0769h1.30567c.0469 0 .0701-.0257.0701-.0769v-3.86492c0-.42236.11319-.74648.33929-.97259.23039-.23037.52491-.34548.88328-.34548.34557 0 .63304.11511.86341.34548.22611.22611.33929.55023.33929.97259v3.86492c0 .0513.0257.0769.0769.0769h1.30568c.0512 0 .0769-.0257.0769-.0769v-4.31275c0-.75941-.24371-1.33752-.73006-1.73429-.49064-.3925-.99353-.58864-1.50975-.58864-.84473 0-1.52958.27074-2.05434.81257-.10671-.11091-.21984-.21124-.33929-.30085-.11943-.0939-.24293-.17937-.37092-.25616-.28585-.17065-.65753-.25556-1.11402-.25556zm-16.85157 2.59151c.37543 0 .70149.13245.9788.39696.28158.25599.42239.58204.42239.9788 0 .19625-.036.37759-.1085.54398-.0725.16211-.17733.30744-.31386.43543-.28585.26024-.6119.39015-.97879.39015-.3669 0-.69357-.12991-.97941-.39015-.12799-.12373-.23025-.26905-.30704-.43543-.0725-.16639-.10851-.34773-.10851-.54398 0-.39676.13828-.72281.41558-.9788.28584-.26451.61252-.39696.97941-.39696zm-52.6531 10.70838-1.88129 1.49052c-.0256.0214-.0346.0496-.026.0838.008.0341.0323.0509.0707.0509h1.06873c.18772-.11522.37743-.2303.56941-.34549.19198-.11523.38169-.2303.56941-.34549l1.28025.69098h1.07493c.0384 0 .0622-.0168.0707-.0509.0128-.0341.004-.0624-.026-.0838l-1.90671-1.49052zm46.38959 2.43147c-.71247 0-1.32723.26238-1.84346.78714-.50769.51621-.76557 1.15413-.7741 1.91353 0 .0513.0257.0769.0769.0769h1.30506c.0214 0 .0386-.006.0515-.0192.017-.0128.0254-.0301.0254-.0515.017-.19199.0556-.36241.11535-.51172.064-.15359.15596-.28606.27541-.39698.24317-.22611.53066-.33929.86342-.33929.36264 0 .65073.12798.86404.38395.21331.26024.32006.53804.32006.83241 0 .13225-.0193.26859-.0577.40938-.0384.13652-.12392.28765-.25618.45404v-.006l-3.58331 4.48582v1.24799c0 .0513.0257.0769.0769.0769h5.19602c.0511 0 .0769-.0257.0769-.0769v-1.29885c0-.0511-.0257-.0769-.0769-.0769h-3.32776c.24318-.30718.48239-.60557.71703-.89568.23465-.29437.46937-.58695.70402-.87706.23463-.29438.46935-.5889.704-.88327.23464-.29438.47324-.5947.71642-.90187v.006c.18772-.23465.32855-.48866.4224-.7617.0939-.27305.14081-.5695.14081-.88947 0-.73807-.26238-1.36956-.78712-1.89432h.006c-.52902-.52902-1.17918-.79332-1.95138-.79332zm6.0185 0c-.66554 0-1.25009.24758-1.7535.74247-.51196.50342-.78913 1.08153-.83179 1.73428-.005.0214.00023.0406.0131.0577.017.017.0364.0254.0577.0254h1.31187c.0128 0 .0257-.006.0384-.0192.017-.0128.0274-.0276.0316-.0446.064-.34557.21319-.60407.44784-.77472.23465-.17492.48028-.26238.73626-.26238.34983 0 .64629.12154.88948.36472.24318.24319.36471.53577.36471.87708 0 .36263-.11703.65459-.35169.87643-.23892.23039-.56558.3455-.97941.3455h-.44783c-.0513 0-.0769.0257-.0769.0769v1.14564c0 .0512.0257.0769.0769.0769h.55017c.35411 0 .66536.12347.93413.37092.26451.23465.39698.56968.39698 1.00484 0 .43517-.13247.77019-.39698 1.00484-.26877.24318-.57165.36472-.9087.36472-.17918 0-.33674-.0238-.47327-.0707-.13224-.0469-.24992-.11259-.35231-.19787-.10238-.0896-.19178-.1944-.26858-.31386-.0725-.11943-.1362-.25386-.19166-.40318-.0171-.0341-.0408-.0515-.0707-.0515h-1.30567c-.0598 0-.0849.0283-.0763.0838.0598.39677.16584.74211.31943 1.03648.15785.29438.36492.54583.62089.75487.26025.20479.53099.35847.81256.46087.28584.10239.58935.15382.90932.15382.80207 0 1.47346-.2585 2.01527-.77472.55035-.52902.82558-1.22612.82558-2.09218 0-.3797-.0849-.75331-.25555-1.12021-.16638-.34131-.4204-.63327-.76169-.87645.16211-.11943.30294-.24742.4224-.38394.11943-.13652.21334-.28186.28161-.43543.14079-.34557.21088-.69928.21088-1.06191 0-.33277-.0663-.65495-.19848-.96639-.12799-.3157-.3132-.60829-.55639-.87707-.25597-.27303-.55242-.4801-.88947-.62089-.33277-.14079-.70637-.21089-1.1202-.21089zm-52.53586.006c-.0341 0-.0559.0174-.0646.0515l-3.35319 9.17694c-.008.0256-.006.0487.007.0701.0128.0214.034.0323.0639.0323h1.46509c.0129 0 .0257-.005.0384-.0131.017-.0128.028-.0257.0323-.0384.11943-.34131.23651-.67635.3517-1.00484.11943-.33278.23905-.67168.35851-1.01726h3.37925l.69098 2.0221c.008.0341.0298.0515.0639.0515h1.4657c.0256 0 .0443-.0108.057-.0323.0128-.0214.0154-.0445.007-.0701l-3.34699-9.17694c-.005-.0128-.0151-.0238-.0323-.0323-.0128-.0128-.0257-.0192-.0384-.0192zm19.70979 0c-.0341 0-.0559.0174-.0646.0515l-3.35319 9.17694c-.008.0256-.006.0487.007.0701.0128.0214.034.0323.0639.0323h1.46508c.0128 0 .0257-.005.0384-.0131.017-.0128.028-.0257.0323-.0384.11943-.34131.2365-.67635.3517-1.00484.11943-.33278.23905-.67168.35851-1.01726h3.37925l.69099 2.0221c.008.0341.0298.0515.0639.0515h1.46572c.0256 0 .0443-.0108.057-.0323.0128-.0214.0154-.0445.007-.0701l-3.347-9.17694c-.005-.0128-.0151-.0238-.0323-.0323-.0128-.0128-.0257-.0192-.0384-.0192zm-48.52333.0131c-.0512 0-.0769.0257-.0769.0769v1.23495c0 .0513.0257.0769.0769.0769h2.43829v7.85824c0 .0511.0251.0769.0763.0769h1.3888c.0511 0 .0769-.0257.0769-.0769v-7.85824h2.43148c.0511 0 .0769-.0257.0769-.0769v-1.23495c0-.0513-.0257-.0769-.0769-.0769zm7.68457 0c-.0513 0-.0763.0257-.0763.0769v9.17011c0 .0511.0251.0769.0763.0769h1.38878c.0512 0 .0769-.0257.0769-.0769v-3.50702h2.04132c.95991 0 1.69173-.3029 2.19514-.9087.50342-.61009.75487-1.24995.75487-1.91975 0-.25598-.0251-.49713-.0763-.72324-.0513-.22611-.12386-.43255-.21771-.62027-.0982-.18345-.20937-.35001-.33309-.49932-.11943-.15359-.2513-.28799-.39635-.40317-.37543-.29012-.72976-.4734-1.06253-.55019-.3285-.0768-.6764-.11534-1.04331-.11534zm10.99929 0c-.0512 0-.0769.0257-.0769.0769v1.23495c0 .0513.0257.0769.0769.0769h2.43829v7.85824c0 .0511.0251.0769.0763.0769h1.3888c.0511 0 .0769-.0257.0769-.0769v-7.85824h2.43146c.0513 0 .0769-.0257.0769-.0769v-1.23495c0-.0513-.0257-.0769-.0769-.0769zm15.48263 0c-.0513 0-.0769.0257-.0769.0769v9.17011c0 .0511.0257.0769.0769.0769h1.395c.0469 0 .0707-.0257.0707-.0769v-6.30942l4.04417 6.34787c.0171.0256.0383.0384.0639.0384h1.31187c.0512 0 .0769-.0257.0769-.0769v-9.1701c0-.0513-.0257-.0769-.0769-.0769h-1.39499c-.0513 0-.0763.0257-.0763.0769v6.31003l-4.03178-6.34849c-.017-.0256-.0383-.0384-.0639-.0384zm19.83694 0c-.0513 0-.0769.0257-.0769.0769v9.17011c0 .0511.0257.0769.0769.0769h1.39501c.0469 0 .0707-.0257.0707-.0769v-6.30942l4.04418 6.34787c.017.0256.0389.0384.0645.0384h1.31189c.0512 0 .0763-.0257.0763-.0769v-9.1701c0-.0513-.0251-.0769-.0763-.0769h-1.39562c-.0512 0-.0763.0257-.0763.0769v6.31003l-4.03177-6.34849c-.017-.0256-.0383-.0384-.0639-.0384zm34.47849.0639c-.0511 0-.0769.0257-.0769.0769v9.10623c0 .0513.0257.0769.0769.0769h1.30567c.0513 0 .0769-.0257.0769-.0769v-1.83663c.15359-.17918.30921-.35603.46706-.53095.16213-.17492.31969-.35177.47328-.53095l1.67039 2.93699c.017.0256.0383.0384.0639.0384h1.63813c.0342 0 .058-.0108.0707-.0323.0128-.0256.0108-.0533-.006-.0831-.42237-.65701-.84291-1.30523-1.26102-1.94517-.41382-.64422-.83183-1.29499-1.25419-1.952l2.20134-2.50219c.0214-.0256.0258-.0533.0131-.0831-.0128-.0299-.0366-.0447-.0707-.0447h-1.56122c-.0214 0-.0406.008-.0577.0255-.40103.49063-.79975.97935-1.19651 1.46571-.3925.48209-.78928.96826-1.1903 1.45888v-5.49066c0-.0512-.0257-.0769-.0769-.0769zm-79.33165 1.40803h1.93896c.38824 0 .70399.081.94716.24314.37544.24319.56322.62903.56322 1.15805 0 .35411-.12154.67435-.36473.96019-.23892.29437-.60353.44163-1.09415.44163h-1.99046zm20.25191.74866 1.22876 3.64783h-2.45753zm19.70979 0 1.22876 3.64783h-2.45752zm49.62554.39016c-.6826 0-1.22857.22185-1.63814.66556v-.51793c0-.0513-.0257-.0769-.0769-.0769h-1.30505c-.0511 0-.0769.0257-.0769.0769v6.48867c0 .0512.0257.0769.0769.0769h1.30505c.0511 0 .0769-.0257.0769-.0769V317.402c0-.42663.11127-.75074.33309-.9726.23038-.23037.5249-.3461.88327-.3461.34557 0 .63304.11571.86342.3461.23038.23039.34549.55451.34549.9726v3.86492c0 .0512.0238.0769.0707.0769h1.30567c.0469 0 .0701-.0257.0701-.0769V317.402c0-.42237.11319-.74648.33929-.9726.23039-.23037.5249-.3461.88328-.3461.34557 0 .63365.11571.86404.3461.22611.22612.33866.55023.33866.9726v3.86492c0 .0512.0257.0769.0769.0769h1.30568c.0511 0 .0769-.0257.0769-.0769v-4.31274c0-.7594-.2437-1.33752-.73005-1.73428-.49064-.3925-.99353-.58927-1.50976-.58927-.84472 0-1.52959.27137-2.05434.81318-.1067-.1109-.21983-.21124-.33928-.30083-.11943-.0939-.24295-.17938-.37093-.25618-.28584-.17065-.65752-.25617-1.11401-.25617zm-85.13059 5.26054c-.0511 0-.0769.0257-.0769.0769v1.29885c0 .0511.0257.0769.0769.0769h1.30506c.0469 0 .0707-.0257.0707-.0769V319.968c0-.0513-.0238-.0769-.0707-.0769z" font-family="Giaothong2" font-size="30.9514" font-weight="400" letter-spacing=".406374" style="line-height:1.4;-inkscape-font-specification:Giaothong2;text-align:start"/>
    <path fill="#fff" fill-rule="evenodd" d="M347.70893 290.86741h37.65044V306.038h-37.65044z" font-family="Singapore Road Signs" font-size="30.9514" paint-order="stroke fill markers" style="line-height:1.4;-inkscape-font-specification:'Singapore Road Signs';text-align:start"/>
    <path fill-rule="evenodd" d="M348.83351 291.1761c-.44232 0-.80399.35999-.80399.8023v12.94861c0 .44231.36167.80229.80399.80229h35.41318c.44236 0 .80401-.35998.80401-.80229V291.9784c0-.44231-.36169-.8023-.80401-.8023zm0 .29176h35.41318c.28501 0 .51053.22549.51053.51054v12.94861c0 .28499-.22548.50886-.51053.50886h-35.41318c-.28499 0-.51055-.22391-.51055-.50886V291.9784c0-.28501.2255-.51054.51055-.51054z" color="#000" font-family="sans-serif" font-weight="400" overflow="visible" paint-order="stroke fill markers" style="line-height:normal;-inkscape-font-specification:'Singapore Road Signs';font-variant-ligatures:normal;font-variant-position:normal;font-variant-caps:normal;font-variant-numeric:normal;font-variant-alternates:normal;font-variant-east-asian:normal;font-feature-settings:normal;font-variation-settings:normal;text-indent:0;text-align:start;text-decoration-line:none;text-decoration-style:solid;text-decoration-color:#000;text-transform:none;text-orientation:mixed;white-space:normal;shape-padding:0;shape-margin:0;inline-size:0;isolation:auto;mix-blend-mode:normal;solid-color:#000;solid-opacity:1"/>
    <path d="M369.13485 293.8759c-.69248 0-1.27877.25539-1.75996.76697-.46951.50747-.70455 1.12691-.70455 1.85717 0 .38372.0732.71726.21802 1.00197.14488.28466.33568.54487.57431.78006-.3091.23929-.54412.52399-.70455.85403-.15659.33007-.23448.7082-.23448 1.13315 0 .80041.25809 1.45532.77446 1.9669.50859.49923 1.12078.74907 1.83672.74907.35212 0 .68334-.0641.99239-.19205.30911-.13197.59145-.31773.84572-.55702.25836-.25578.45071-.54782.57984-.8779.13281-.33005.19999-.69293.19999-1.089 0-.84992-.31293-1.51272-.93891-1.98718.11343-.11547.21882-.23711.31663-.365.0978-.13197.18169-.2707.25223-.41506.0703-.14843.12552-.30494.16441-.46998.0388-.16504.0589-.34219.0589-.53199 0-.72199-.23821-1.34144-.71552-1.85717-.47341-.51158-1.05945-.76697-1.75587-.76697zm5.45818 0c-.61033 0-1.14622.23949-1.60786.71809-.46952.48682-.72301 1.0458-.76212 1.67706-.005.0208-.00031.0383.01.055.0154.0161.034.0252.0535.0252h1.20209c.01 0 .0239-.005.0357-.0185.0154-.012.0238-.0276.0289-.0441.0586-.33421.19602-.58286.41122-.74789.21511-.1692.43965-.25407.67438-.25407.32081 0 .59392.11799.81693.35308.22308.23516.33447.5168.33447.84687 0 .35068-.10815.63354-.3235.84808-.21911.22274-.5183.33396-.89781.33396h-.41122c-.0469 0-.0699.0257-.0699.0753v1.10691c0 .0497.0239.0753.0699.0753h.50579c.32473 0 .61021.11991.85671.35901.2427.2269.36323.55011.36323.97094 0 .42082-.12075.74521-.36323.97211-.24643.23519-.52432.35188-.83341.35188-.16439 0-.3093-.0231-.43452-.0682-.12125-.0455-.22968-.10934-.32345-.19203-.0939-.0867-.17507-.18742-.24536-.30296-.0666-.11547-.12602-.24565-.17693-.39004-.0154-.033-.0372-.0489-.0646-.0489h-1.19662c-.0549 0-.079.0263-.0713.0798.0549.38368.15251.71843.29333 1.0031.14488.2847.33546.52784.57019.72998.23876.19804.48613.34709.74434.4461.26207.099.53994.14795.83339.14795.73553 0 1.35221-.24983 1.8491-.74903.50468-.51161.75662-1.18544.75662-2.02299 0-.36717-.078-.72821-.23449-1.08304-.15251-.33005-.3847-.61289-.69768-.84807.14878-.11546.27699-.23894.38654-.37096.10959-.13197.19656-.27252.25915-.42105.12925-.33418.19336-.6763.19336-1.02698 0-.32184-.061-.63398-.18222-.93516-.11751-.30531-.28689-.58813-.50991-.84808-.23473-.26403-.50649-.46381-.81556-.59995-.30517-.13627-.64853-.20405-1.02803-.20405zm6.09142 0c-.63775 0-1.20262.22921-1.69557.68706-.49687.44972-.74568 1.09057-.74568 1.92396v3.89325c0 .83341.24881 1.47547.74568 1.92518.49295.45383 1.05782.67987 1.69557.67987.6377 0 1.20396-.22597 1.69692-.67987.50078-.45385.75116-1.09588.75116-1.92518v-3.89325c0-.41255-.0655-.77729-.1947-1.09498-.12517-.32179-.31002-.59793-.55649-.82898-.24645-.22274-.51355-.39259-.79914-.50812-.2817-.11955-.58092-.17888-.8978-.17888zm-29.95818.0185c-.0469 0-.0713.0245-.0713.0739v3.75849h-1.12537c-.0388 0-.07.0269-.07.0609v1.31563c0 .0339.0309.0621.07.0621h1.12537v3.67139c0 .0497.0239.0752.0713.0752h2.8634c.62205 0 1.16242-.14542 1.62017-.43417.44992-.28881.80115-.64498 1.05544-1.06992v.007c.10154-.16088.18408-.32217.24667-.48307.0625-.16505.10971-.33365.14115-.50696.0666-.34244.1-1.01561.1-2.01818 0-.93653-.0239-1.56884-.0713-1.89891-.024-.16919-.0676-.34265-.13415-.52004-.0666-.17752-.15337-.36497-.25916-.563-.57121-1.01908-1.44297-1.52915-2.61671-1.52915zm6.70138 0c-.0469 0-.07.0257-.07.0753v1.19401c0 .0497.024.0739.07.0739h2.23561v7.60044c0 .0497.0239.0739.0713.0739h1.27341c.0469 0 .0699-.0245.0699-.0739v-7.60045h2.23012c.0469 0 .07-.0245.07-.0739v-1.194c0-.0493-.0239-.0753-.07-.0753zm11.7072 1.3932c.29734 0 .55829.10275.7813.30894.23478.20219.35227.49537.35227.87906 0 .39196-.11751.68887-.35227.89104-.23472.2022-.49568.30294-.7813.30294-.28559 0-.54675-.10095-.78541-.30294-.22703-.19804-.34132-.49495-.34132-.89104 0-.38782.11427-.68105.34132-.87906.23478-.20635.49589-.30894.78541-.30894zm11.5496 0c.33646 0 .60504.11307.80459.33993.20345.22275.30568.53495.30568.93517v3.74414c0 .40432-.10202.71713-.30568.93991-.19946.22276-.46813.33517-.80459.33517-.33647 0-.60371-.11247-.80325-.33517-.19947-.22274-.30018-.53559-.30018-.9399v-3.74418c0-.4002.10071-.71234.30018-.93517.19946-.22688.46678-.33991.80325-.33991zm-28.61491.0298h1.46119c.62988 0 1.11078.23764 1.44336.71212.16049.23513.26101.49722.30016.786.0185.15674.0347.36879.0466.63695.01.26819.0185.60294.0185 1.00314 0 .41259-.005.75286-.0185 1.02103-.008.26406-.0212.46197-.0412.594-.0351.23932-.11751.46838-.24669.68708-.32859.49506-.82933.74307-1.50227.74307h-1.46117v-2.33545h1.05271c.0388 0 .07-.0281.07-.0621v-1.31564c0-.0338-.0308-.0609-.07-.0609h-1.05271zm17.06531 3.60939c.34429 0 .64487.12724.89919.38287.25835.24754.38656.56334.38656.94706 0 .18975-.0337.36512-.1.52602-.0666.15672-.16135.29727-.28647.42106-.26206.25166-.56272.3781-.89921.3781-.33645 0-.63564-.1265-.8978-.3781-.11751-.11955-.21059-.26016-.28097-.42106-.0666-.16087-.1-.33622-.1-.52602 0-.38372.12687-.69952.38105-.94706.26208-.25578.56134-.38287.89782-.38287zm-4.90577 2.58c-.0469 0-.0699.0244-.0699.0739v1.25719c0 .0496.024.0739.0699.0739h1.198c.043 0 .0646-.0245.0646-.0739v-1.25719c0-.0496-.0213-.0739-.0646-.0739z" font-family="Alte DIN 1451 Mittelschrift gepraegt" font-size="14.1395" font-weight="400" style="line-height:1.3;-inkscape-font-specification:'Alte DIN 1451 Mittelschrift gepraegt';text-align:center" text-anchor="middle"/>
  </g>
</svg>