<?xml version="1.0" encoding="utf-8"?>
<svg viewBox="0 0 323.14914 200" xmlns="http://www.w3.org/2000/svg">
  <g id="layer1" transform="matrix(0.9999999999999999, 0, 0, 0.9999999999999999, -303.4596862792969, -22.960700988769517)">
    <path id="rect15575" style="opacity:1;fill:#0a9646;fill-opacity:1;fill-rule:evenodd;stroke-width:0.0420687;stroke-linecap:square;stroke-miterlimit:10;paint-order:stroke fill markers" d="M 303.45966,22.960701 H 626.6088 V 222.9607 H 303.45966 Z"/>
    <path transform="matrix(0.26458333,0,0,0.26458333,303.45966,22.960701)" d="m 30.353516,5.0117188 c -13.808655,0 -25.0781254,11.2674112 -25.0781254,25.0761722 v 332.957029 47.1211 49.04296 13.88672 252.45508 c 0,13.80862 11.2694704,25.06641 25.0781254,25.06641 H 1190.9805 c 13.8086,0 25.0781,-11.25779 25.0781,-25.06641 V 473.0957 459.57031 401.94727 363.04492 30.087891 c 0,-13.808761 -11.2695,-25.0761722 -25.0781,-25.0761722 z m 0,9.4511722 H 1190.9805 c 8.7398,0 15.6425,6.885058 15.6425,15.625 v 332.957029 38.90235 c 0,0.29959 -0.013,0.61475 -0.037,0.9375 v 7.20703 c 0,8.68754 -6.9941,15.68164 -15.6816,15.68164 h -8.0762 c -0.1869,0.007 -0.3766,0.0176 -0.5586,0.0176 H 38.023438 c -0.18105,0 -0.371847,-0.0102 -0.560547,-0.0176 h -7.097657 c -8.687546,0 -15.68164,-6.9941 -15.68164,-15.68164 V 30.152344 c 0,-1.658433 0.257595,-3.253829 0.730468,-4.751953 0.01365,-0.04461 0.03284,-0.08643 0.04688,-0.13086 1.99686,-6.321925 7.84094,-10.80664 14.892578,-10.80664 z M 30.28125,435.30469 h 6.958984 1145.628866 8.1172 c 8.6414,0 15.5996,6.95633 15.5996,15.59765 v 7.5918 c 0.024,0.37296 0.037,0.7339 0.037,1.07617 v 13.52539 252.45508 c 0,5.47634 -2.7106,10.22208 -6.8847,13.00391 -2.4923,1.6862 -5.5034,2.66992 -8.752,2.66992 H 30.28125 c -8.641361,0 -15.597656,-6.9563 -15.597656,-15.59766 V 450.90234 c 0,-8.64132 6.956295,-15.59765 15.597656,-15.59765 z" style="color:#000000;font-style:normal;font-variant:normal;font-weight:normal;font-stretch:normal;font-size:medium;line-height:normal;font-family:sans-serif;font-variant-ligatures:normal;font-variant-position:normal;font-variant-caps:normal;font-variant-numeric:normal;font-variant-alternates:normal;font-variant-east-asian:normal;font-feature-settings:normal;font-variation-settings:normal;text-indent:0;text-align:start;text-decoration:none;text-decoration-line:none;text-decoration-style:solid;text-decoration-color:#000000;letter-spacing:normal;word-spacing:normal;text-transform:none;writing-mode:lr-tb;direction:ltr;text-orientation:mixed;dominant-baseline:auto;baseline-shift:baseline;text-anchor:start;white-space:normal;shape-padding:0;shape-margin:0;inline-size:0;clip-rule:nonzero;display:inline;overflow:visible;visibility:visible;opacity:1;isolation:auto;mix-blend-mode:normal;color-interpolation:sRGB;color-interpolation-filters:linearRGB;solid-color:#000000;solid-opacity:1;vector-effect:none;fill:#ffffff;fill-opacity:1;fill-rule:evenodd;stroke:none;stroke-width:2.09199;stroke-linecap:square;stroke-linejoin:miter;stroke-miterlimit:10;stroke-dasharray:none;stroke-dashoffset:0;stroke-opacity:1;paint-order:stroke fill markers;color-rendering:auto;image-rendering:auto;shape-rendering:auto;text-rendering:auto;enable-background:accumulate;stop-color:#000000;stop-opacity:1" id="path15582"/>
    <path d="m 324.12038,67.193614 h 60.89334 v 27.821331 h -60.89334 z" style="opacity:1;fill:#ffd70f;fill-opacity:1;fill-rule:evenodd;stroke:none;stroke-width:0.553508;stroke-linecap:square;stroke-miterlimit:10;stroke-dasharray:none;stroke-opacity:1;paint-order:stroke fill markers" id="rect15605"/>
    <path id="path15631" d="m 326.18273,67.759747 c -0.81115,0 -1.47443,0.660164 -1.47443,1.471307 v 23.746432 c 0,0.811142 0.66328,1.471323 1.47443,1.471323 h 56.7905 c 0.81117,0 1.4744,-0.660181 1.4744,-1.471323 V 69.231054 c 0,-0.811143 -0.66328,-1.471307 -1.4744,-1.471307 z m 0,0.535017 h 56.7905 c 0.52266,0 0.93627,0.413622 0.93627,0.93629 v 23.746432 c 0,0.522654 -0.41353,0.933189 -0.93627,0.933189 h -56.7905 c -0.52266,0 -0.93628,-0.410555 -0.93628,-0.933189 V 69.231054 c 0,-0.522672 0.41354,-0.93629 0.93628,-0.93629 z" style="color:#000000;font-style:normal;font-variant:normal;font-weight:normal;font-stretch:normal;font-size:medium;line-height:normal;font-family:sans-serif;font-variant-ligatures:normal;font-variant-position:normal;font-variant-caps:normal;font-variant-numeric:normal;font-variant-alternates:normal;font-variant-east-asian:normal;font-feature-settings:normal;font-variation-settings:normal;text-indent:0;text-align:start;text-decoration:none;text-decoration-line:none;text-decoration-style:solid;text-decoration-color:#000000;letter-spacing:normal;word-spacing:normal;text-transform:none;writing-mode:lr-tb;direction:ltr;text-orientation:mixed;dominant-baseline:auto;baseline-shift:baseline;text-anchor:start;white-space:normal;shape-padding:0;shape-margin:0;inline-size:0;clip-rule:nonzero;display:inline;overflow:visible;visibility:visible;opacity:1;isolation:auto;mix-blend-mode:normal;color-interpolation:sRGB;color-interpolation-filters:linearRGB;solid-color:#000000;solid-opacity:1;vector-effect:none;fill:#000000;fill-opacity:1;fill-rule:evenodd;stroke:none;stroke-width:0.119062;stroke-linecap:square;stroke-linejoin:miter;stroke-miterlimit:10;stroke-dasharray:none;stroke-dashoffset:0;stroke-opacity:1;paint-order:stroke fill markers;color-rendering:auto;image-rendering:auto;shape-rendering:auto;text-rendering:auto;enable-background:accumulate;stop-color:#000000;stop-opacity:1"/>
    <path d="m 336.88947,72.205604 c -1.36961,0 -2.51552,0.330332 -3.43646,0.991507 -0.91309,0.653335 -1.5737,1.361798 -1.98303,2.125328 -0.14189,0.267612 -0.264,0.538688 -0.36613,0.814199 -0.10264,0.275473 -0.18065,0.564078 -0.23555,0.86321 -0.0552,0.299089 -0.0954,0.774434 -0.11873,1.427765 -0.0223,0.653332 -0.0362,1.495435 -0.0362,2.5266 0,2.062321 0.0516,3.383536 0.15387,3.966025 0.0552,0.299136 0.13326,0.587702 0.23556,0.863193 0.10264,0.267612 0.22467,0.534915 0.36612,0.802543 0.40948,0.771411 1.06995,1.479875 1.983,2.125324 0.92887,0.653346 2.07472,0.979855 3.43649,0.979855 0.74779,0 1.44489,-0.107189 2.09034,-0.319632 0.64544,-0.212556 1.24303,-0.525333 1.79403,-0.942508 1.1335,-0.865864 1.86473,-2.103628 2.19533,-3.709419 0.0139,-0.04714 0.009,-0.08518 -0.0223,-0.116745 -0.0315,-0.03928 -0.0694,-0.05829 -0.11656,-0.05829 h -2.70394 c -0.0223,1.5e-5 -0.0488,0.01117 -0.0722,0.03521 -0.0223,0.01589 -0.0451,0.0307 -0.0582,0.0467 -0.70836,1.487712 -1.74338,2.232636 -3.10515,2.232636 -0.59037,0 -1.09454,-0.11468 -1.51174,-0.342928 -0.41713,-0.236167 -0.75132,-0.520933 -1.00317,-0.851551 -0.14189,-0.181028 -0.27124,-0.389065 -0.3896,-0.625222 -0.11008,-0.244 -0.19597,-0.488524 -0.25924,-0.732545 -0.0628,-0.267611 -0.10709,-0.67614 -0.13048,-1.227141 -0.0223,-0.558871 -0.0359,-1.267326 -0.0359,-2.125325 0,-0.842249 0.009,-1.543133 0.0359,-2.102004 0.0223,-0.55887 0.0677,-0.97117 0.13048,-1.238798 0.0627,-0.251917 0.14857,-0.496392 0.25924,-0.732549 0.11009,-0.244 0.24028,-0.45965 0.3896,-0.64857 0.252,-0.30699 0.58598,-0.580386 1.00317,-0.816526 0.41715,-0.236167 0.92137,-0.352269 1.51174,-0.352269 0.79503,1.7e-5 1.45185,0.230844 1.97135,0.695231 0.27541,0.236167 0.50863,0.492045 0.69757,0.767539 0.18872,0.267667 0.33407,0.560022 0.4361,0.874867 0.0167,0.06294 0.0599,0.09333 0.13046,0.09333 h 2.7039 c 0.0468,0 0.0854,-0.01589 0.11658,-0.0467 0.0315,-0.03161 0.0407,-0.07184 0.0223,-0.118954 -0.25952,-1.393235 -0.93175,-2.595995 -2.01801,-3.611427 -1.07052,-1.007535 -2.42438,-1.511744 -4.0617,-1.511744 z m 27.73422,0.104956 c -1.28304,0 -2.4213,0.437369 -3.41313,1.311121 -0.99967,0.858 -1.50005,2.08205 -1.50005,3.672071 v 7.425818 c 0,1.590021 0.50038,2.814088 1.50005,3.672088 0.99183,0.865851 2.13009,1.299446 3.41313,1.299446 1.28303,0 2.42133,-0.433578 3.41313,-1.299446 1.00756,-0.86587 1.50938,-2.089917 1.50938,-3.672088 v -7.425818 c 0,-0.787127 -0.1299,-1.484222 -0.38959,-2.09033 -0.252,-0.613979 -0.62389,-1.140934 -1.11979,-1.581741 -0.49592,-0.425045 -1.03279,-0.74779 -1.6074,-0.968177 -0.56674,-0.22825 -1.16816,-0.342924 -1.80573,-0.342924 z m -21.12261,0.03521 c -0.0943,0 -0.14217,0.04776 -0.14217,0.142392 v 2.279298 c 0,0.09444 0.0479,0.142197 0.14217,0.142197 h 4.49793 V 89.409 c 0,0.09444 0.0479,0.139995 0.14217,0.139995 h 2.5616 c 0.0945,0 0.14217,-0.04555 0.14217,-0.139995 V 74.909653 h 4.48625 c 0.0943,0 0.14217,-0.04778 0.14217,-0.142196 v -2.279299 c 0,-0.09444 -0.0479,-0.142392 -0.14217,-0.142392 z m 31.22667,0.118953 -2.43331,1.759064 c -0.0139,0.01589 -0.0315,0.03477 -0.0466,0.05829 -0.009,0.02341 -0.0139,0.04468 -0.0139,0.06068 v 2.561593 c 0,0.06294 0.0278,0.110694 0.0728,0.142196 0.0468,0.02343 0.0989,0.01617 0.15388,-0.02343 0.36208,-0.259778 0.7228,-0.523245 1.08486,-0.790886 0.36206,-0.275473 0.72509,-0.548889 1.08714,-0.816528 v 14.028096 c 0,0.09444 0.048,0.142198 0.14217,0.142198 h 2.41929 c 0.0943,0 0.13994,-0.04778 0.13994,-0.142198 V 72.606811 c 0,-0.09444 -0.0455,-0.142197 -0.13994,-0.142197 z m -10.10406,2.538257 c 0.67694,0 1.21532,0.217964 1.61673,0.650912 0.40948,0.425045 0.61359,1.018854 0.61359,1.782378 v 7.143522 c 0,0.771407 -0.20461,1.368982 -0.61359,1.794059 -0.40133,0.425045 -0.93979,0.63689 -1.61673,0.63689 -0.67695,0 -1.21527,-0.211859 -1.61671,-0.63689 -0.40134,-0.425091 -0.60428,-1.022652 -0.60428,-1.794059 v -7.143497 c 0,-0.763524 0.20266,-1.357335 0.60428,-1.782377 0.40133,-0.432946 0.93976,-0.650913 1.61671,-0.650913 z m -9.98507,11.865445 c -0.0945,0 -0.14217,0.04776 -0.14217,0.14239 v 2.398281 c 0,0.09444 0.0479,0.139994 0.14217,0.139994 h 2.40762 c 0.0867,0 0.13046,-0.04555 0.13046,-0.139994 v -2.398281 c 0,-0.09444 -0.0451,-0.14239 -0.13046,-0.14239 z" style="font-style: normal; font-variant: normal; font-weight: normal; font-stretch: normal; font-size: 15.1831px; line-height: 1.46; font-family: 'Alte DIN 1451 Mittelschrift gepraegt'; text-align: center; text-anchor: middle; opacity: 1; fill-opacity: 1; stroke-width: 0.264584; visibility: hidden;" id="path15637"/>
    <path id="path17496" style="font-size:15.1831px;line-height:1.46;font-family:'Singapore Road Signs';-inkscape-font-specification:'Singapore Road Signs';text-align:center;text-anchor:middle;opacity:1;fill:#ffffff;fill-opacity:1;stroke-width:0.0756548" d="m 570.47468,59.120043 v 50.614317 h 35.43541 V 59.120043 Z m 1.38203,1.660034 h 32.65274 v 47.566083 h -32.65274 z m 13.66823,3.646909 -2.23483,8.869719 h 3.92184 l 0.28216,-8.869719 z m 3.35329,0 0.28216,8.869719 h 3.92385 l -2.23686,-8.869719 z m -15.90932,9.992316 v 1.942234 l 3.06692,1.10806 v 0.584703 h 1.411 v -0.584703 c 0,0 2.08662,-0.313671 4.52568,-0.535349 1.95306,-0.177516 4.1317,-0.271988 5.64407,-0.278037 1.79866,-0.0063 4.45804,0.09363 6.73975,0.288436 2.51319,0.214479 4.5713,0.524984 4.5713,0.524984 v 0.5847 h 1.38199 v -0.5847 l 3.06685,-1.108064 v -1.942233 z m 9.21108,3.620663 -6.70448,26.681115 h 10.04943 l 1.39442,-26.681115 z m 7.25642,0 1.39441,26.681115 h 10.0494 l -6.70443,-26.681115 z"/>
    <g style="font-size:14.7905px;line-height:0;font-family:'Singapore Road Signs';-inkscape-font-specification:'Singapore Road Signs';text-align:center;text-anchor:middle;opacity:1;fill:#860000;fill-opacity:1;stroke-width:6.45213" id="layer1-8" transform="matrix(0.08718024,0,0,0.08718024,-145.22047,195.49013)">
      <circle style="opacity:1;fill:#f00a0a;fill-opacity:1;fill-rule:nonzero;stroke:none;stroke-width:3622.55;stroke-linecap:round;stroke-linejoin:round;stroke-miterlimit:4;stroke-dasharray:none;stroke-opacity:1;paint-order:stroke fill markers" id="path815" cx="6380.9966" cy="-193.29752" r="350"/>
      <circle cy="-193.29752" cx="6380.9966" id="circle817" style="opacity:1;fill:#ffffff;fill-opacity:1;fill-rule:nonzero;stroke:none;stroke-width:2587.55;stroke-linecap:round;stroke-linejoin:round;stroke-miterlimit:4;stroke-dasharray:none;stroke-opacity:1;paint-order:stroke fill markers" r="263.821"/>
      <g aria-label="20 " style="font-style:normal;font-variant:normal;font-weight:bold;font-stretch:normal;font-size:414.864px;line-height:0;font-family:Giaothong1;-inkscape-font-specification:'Giaothong1 Bold';letter-spacing:0px;word-spacing:0px;fill:#000000;fill-opacity:1;stroke:none;stroke-width:24.7849" id="text874" transform="matrix(-1,0,0,1,1299.029,-383.45)">
        <g aria-label="90" transform="translate(2310.2259,387.54849)" style="font-style:normal;font-variant:normal;font-weight:bold;font-stretch:normal;font-size:414.864px;line-height:0;font-family:Giaothong1;-inkscape-font-specification:'Giaothong1 Bold';letter-spacing:0px;word-spacing:0px;fill:#000000;fill-opacity:1;stroke:none;stroke-width:53.5539" id="text844"/>
      </g>
    </g>
    <g style="font-size:14.7905px;line-height:0;font-family:'Singapore Road Signs';-inkscape-font-specification:'Singapore Road Signs';text-align:center;text-anchor:middle;opacity:1;fill:#fff000;fill-opacity:1;stroke-width:6.45221" id="layer1-7" transform="matrix(0.08717968,0,0,0.08717968,488.77841,183.34565)">
      <circle cy="-54" cx="351" id="circle817-6" style="opacity:1;fill:#0046aa;fill-opacity:1;fill-rule:nonzero;stroke:none;stroke-width:3622.58;stroke-linecap:round;stroke-linejoin:round;stroke-miterlimit:4;stroke-dasharray:none;stroke-opacity:1;paint-order:stroke fill markers" r="350"/>
      <path id="rect984" style="font-style: normal; font-variant: normal; font-weight: bold; font-stretch: normal; font-size: 414.864px; line-height: 0; font-family: Giaothong1; letter-spacing: 0px; word-spacing: 0px; opacity: 1; fill: rgb(255, 255, 255); fill-opacity: 1; fill-rule: nonzero; stroke: none; stroke-width: 0.344279; stroke-linecap: round; stroke-linejoin: miter; stroke-miterlimit: 10; stroke-dasharray: none; stroke-opacity: 1; paint-order: stroke; visibility: hidden;" d="m 851.18164,518.03906 c -16.32678,0 -29.4707,13.14393 -29.4707,29.47071 v 80.94921 c 0,16.32678 13.14392,29.47071 29.4707,29.47071 16.32678,0 29.4707,-13.14393 29.4707,-29.47071 v -80.94921 c 0,-16.32678 -13.14392,-29.47071 -29.4707,-29.47071 z m -69.94336,1.23828 -26.10937,69.75391 c -2.72781,7.40406 -3.70118,11.30112 -3.70118,28.44727 0,18.12042 0.7789,22.01697 4.67579,28.25195 5.26075,8.37828 14.22308,13.44336 24.93945,13.44336 10.91123,0 20.0688,-4.87023 25.13476,-13.44336 3.70197,-6.23498 4.48047,-10.13153 4.48047,-28.25195 0,-22.01726 -0.77798,-26.88814 -4.28515,-32.34375 -3.31232,-5.06591 -9.74347,-8.96289 -16.75782,-8.96289 -4.28653,0 -7.01308,0.77773 -8.37695,1.75195 l -0.39062,-0.38867 22.60156,-58.25782 z m 69.94336,18.74024 c 5.25853,0 9.49219,4.23365 9.49219,9.49219 v 80.94921 c 0,5.25853 -4.23366,9.49219 -9.49219,9.49219 -5.25853,0 -9.49219,-4.23366 -9.49219,-9.49219 v -80.94921 c 0,-5.25854 4.23366,-9.49219 9.49219,-9.49219 z m -70.13867,55.68945 c 5.0659,0 9.74219,3.89738 9.74219,9.9375 v 25.71875 c 0,6.04012 -4.67629,9.9375 -9.74219,9.9375 -5.0659,0 -9.74219,-3.89738 -9.74219,-9.9375 v -25.71875 c 0,-6.04012 4.67629,-9.9375 9.74219,-9.9375 z" transform="matrix(3.0349198,0,0,3.0349198,-2125.7104,-1839.7056)"/>
    </g>
    <g aria-label="6" id="text19759" style="font-size:31.1478px;line-height:1.3;font-family:'Singapore Road Signs';-inkscape-font-specification:'Singapore Road Signs';text-align:center;text-anchor:middle;stroke-width:0.159861" transform="matrix(1.6550836,0,0,1.6550836,-321.31659,-238.56049)"/>
    <path d="M 368.029 46.797 Q 367.923 46.797 367.923 46.691 L 367.923 34.097 Q 367.923 33.991 368.029 33.991 L 372.441 33.991 Q 375.078 33.991 376.361 36.162 Q 376.598 36.584 376.748 36.962 Q 376.897 37.34 376.95 37.7 Q 377.055 38.403 377.055 40.398 Q 377.055 42.534 376.906 43.264 Q 376.835 43.633 376.695 43.98 Q 376.554 44.327 376.326 44.67 L 376.326 44.661 Q 375.754 45.566 374.744 46.182 Q 373.715 46.797 372.318 46.797 Z M 370.042 36.013 L 370.042 44.793 L 372.23 44.793 Q 373.742 44.793 374.48 43.738 Q 374.77 43.272 374.849 42.763 Q 374.893 42.481 374.915 41.914 Q 374.937 41.348 374.937 40.469 Q 374.937 39.616 374.911 39.045 Q 374.884 38.474 374.84 38.14 Q 374.752 37.524 374.392 37.023 Q 373.645 36.013 372.23 36.013 Z M 379.34 46.797 Q 379.235 46.797 379.235 46.691 L 379.235 34.097 Q 379.235 33.991 379.34 33.991 L 381.247 33.991 Q 381.353 33.991 381.353 34.097 L 381.353 46.691 Q 381.353 46.797 381.247 46.797 Z M 384.006 46.797 Q 383.901 46.797 383.901 46.691 L 383.901 34.097 Q 383.901 33.991 384.006 33.991 L 392.057 33.991 Q 392.162 33.991 392.162 34.097 L 392.162 35.907 Q 392.162 36.013 392.057 36.013 L 386.019 36.013 L 386.019 39.388 L 391.152 39.388 Q 391.257 39.388 391.257 39.493 L 391.257 41.198 Q 391.257 41.295 391.152 41.295 L 386.019 41.295 L 386.019 44.793 L 392.057 44.793 Q 392.162 44.793 392.162 44.898 L 392.162 46.691 Q 392.162 46.797 392.057 46.797 Z M 384.859 32.857 Q 384.779 32.857 384.762 32.787 Q 384.744 32.717 384.797 32.673 L 387.381 30.625 L 388.568 30.625 L 391.187 32.673 Q 391.248 32.717 391.226 32.787 Q 391.204 32.857 391.125 32.857 L 389.649 32.857 L 387.891 31.908 Q 387.504 32.145 387.109 32.383 Q 386.713 32.62 386.326 32.857 Z M 385.544 30.352 Q 385.439 30.352 385.456 30.247 Q 385.518 29.816 385.672 29.465 Q 385.825 29.113 386.063 28.841 Q 386.3 28.595 386.616 28.458 Q 386.933 28.322 387.284 28.322 Q 387.443 28.322 387.592 28.34 Q 387.741 28.357 387.891 28.41 Q 388.049 28.463 388.194 28.516 Q 388.339 28.568 388.436 28.603 Q 388.743 28.762 388.989 28.841 Q 389.156 28.92 389.385 28.92 Q 389.587 28.92 389.78 28.797 Q 389.947 28.683 390.018 28.296 Q 390.035 28.225 390.114 28.225 L 391.028 28.225 Q 391.143 28.225 391.125 28.331 Q 391.072 28.709 390.941 29.038 Q 390.809 29.368 390.607 29.641 Q 390.387 29.922 390.07 30.084 Q 389.754 30.247 389.341 30.256 Q 389.183 30.256 389.029 30.229 Q 388.875 30.203 388.735 30.142 L 388.743 30.142 Q 388.647 30.124 388.488 30.067 Q 388.33 30.01 388.119 29.931 Q 387.847 29.808 387.601 29.737 Q 387.355 29.667 387.117 29.658 Q 386.986 29.658 386.766 29.781 L 386.775 29.772 Q 386.555 29.913 386.555 30.265 Q 386.555 30.352 386.467 30.352 Z M 394.008 46.797 Q 393.902 46.797 393.902 46.691 L 393.902 34.097 Q 393.902 33.991 394.008 33.991 L 395.818 33.991 Q 395.871 33.991 395.906 34.044 L 401.443 42.763 L 401.443 34.097 Q 401.443 33.991 401.549 33.991 L 403.465 33.991 Q 403.57 33.991 403.57 34.097 L 403.57 46.691 Q 403.57 46.797 403.465 46.797 L 401.663 46.797 Q 401.61 46.797 401.575 46.744 L 396.02 38.025 L 396.02 46.691 Q 396.02 46.797 395.924 46.797 Z M 419.119 43.07 Q 419.172 43.07 419.207 43.11 Q 419.242 43.149 419.224 43.202 Q 418.855 44.995 417.59 45.962 Q 416.974 46.428 416.254 46.665 Q 415.533 46.902 414.698 46.902 Q 413.177 46.902 412.14 46.173 Q 411.121 45.452 410.664 44.591 Q 410.506 44.292 410.391 43.989 Q 410.277 43.685 410.216 43.351 Q 410.101 42.701 410.101 40.398 Q 410.101 39.247 410.128 38.517 Q 410.154 37.788 410.216 37.454 Q 410.277 37.12 410.391 36.812 Q 410.506 36.505 410.664 36.206 Q 411.121 35.353 412.14 34.624 Q 413.169 33.886 414.698 33.886 Q 416.526 33.886 417.721 35.011 Q 418.934 36.144 419.224 37.7 Q 419.242 37.753 419.207 37.788 Q 419.172 37.823 419.119 37.823 L 417.106 37.823 Q 417.027 37.823 417.009 37.753 Q 416.895 37.401 416.684 37.098 Q 416.473 36.795 416.166 36.531 Q 415.586 36.013 414.698 36.013 Q 414.039 36.013 413.573 36.276 Q 413.107 36.54 412.826 36.883 Q 412.659 37.094 412.536 37.362 Q 412.413 37.63 412.342 37.911 Q 412.272 38.21 412.246 38.834 Q 412.219 39.458 412.219 40.398 Q 412.219 41.356 412.246 41.976 Q 412.272 42.596 412.342 42.894 Q 412.413 43.167 412.54 43.435 Q 412.668 43.703 412.826 43.905 Q 413.107 44.274 413.573 44.534 Q 414.039 44.793 414.698 44.793 Q 416.218 44.793 417.009 43.132 Q 417.027 43.114 417.053 43.092 Q 417.08 43.07 417.106 43.07 Z M 427.538 46.797 Q 427.433 46.797 427.433 46.691 L 427.433 41.295 L 422.643 41.295 L 422.643 46.691 Q 422.643 46.797 422.537 46.797 L 420.63 46.797 Q 420.525 46.797 420.525 46.691 L 420.525 34.097 Q 420.525 33.991 420.63 33.991 L 422.537 33.991 Q 422.643 33.991 422.643 34.097 L 422.643 39.388 L 427.433 39.388 L 427.433 34.097 Q 427.433 33.991 427.538 33.991 L 429.446 33.991 Q 429.551 33.991 429.551 34.097 L 429.551 46.691 Q 429.551 46.797 429.446 46.797 Z M 431.052 46.788 Q 430.99 46.788 430.964 46.744 Q 430.938 46.7 430.955 46.647 L 435.561 34.044 Q 435.578 33.974 435.649 33.974 L 437.222 33.974 Q 437.248 33.974 437.279 33.996 Q 437.31 34.017 437.319 34.044 L 441.915 46.647 Q 441.933 46.7 441.906 46.744 Q 441.88 46.788 441.827 46.788 L 439.815 46.788 Q 439.744 46.788 439.727 46.718 L 438.778 43.94 L 434.137 43.94 Q 433.891 44.652 433.649 45.333 Q 433.407 46.015 433.161 46.718 Q 433.153 46.744 433.122 46.766 Q 433.091 46.788 433.065 46.788 Z M 438.145 42.051 Q 438.127 41.989 438.096 41.919 Q 438.066 41.849 438.048 41.796 Q 437.899 41.365 437.776 41 Q 437.653 40.636 437.556 40.363 Q 437.494 40.187 437.437 40.02 Q 437.38 39.853 437.327 39.704 Q 437.283 39.563 437.239 39.436 Q 437.196 39.309 437.152 39.185 Q 437.072 38.931 436.989 38.676 Q 436.905 38.421 436.818 38.148 Q 436.774 38.025 436.725 37.876 Q 436.677 37.726 436.624 37.559 Q 436.598 37.472 436.585 37.423 Q 436.572 37.375 436.554 37.327 Q 436.536 37.278 436.514 37.217 Q 436.492 37.155 436.457 37.041 Q 436.361 37.331 436.277 37.577 Q 436.194 37.823 436.123 38.034 Q 436.106 38.087 436.097 38.131 Q 436.088 38.175 436.071 38.219 Q 436.027 38.368 435.978 38.5 Q 435.93 38.632 435.886 38.764 Q 435.842 38.904 435.798 39.036 Q 435.754 39.168 435.71 39.291 Q 435.622 39.555 435.53 39.845 Q 435.438 40.135 435.323 40.451 Q 435.209 40.767 435.086 41.132 Q 434.963 41.497 434.77 42.051 Z M 433.302 32.857 Q 433.223 32.857 433.205 32.787 Q 433.188 32.717 433.24 32.673 L 435.824 30.625 L 437.011 30.625 L 439.63 32.673 Q 439.692 32.717 439.67 32.787 Q 439.648 32.857 439.569 32.857 L 438.092 32.857 L 436.334 31.908 Q 435.947 32.145 435.552 32.383 Q 435.156 32.62 434.77 32.857 Z M 443.174 34.097 Q 443.174 33.991 443.279 33.991 L 445.195 33.991 Q 445.292 33.991 445.292 34.097 L 445.292 42.218 Q 445.292 43.483 445.995 44.134 Q 446.707 44.793 447.762 44.793 Q 448.799 44.793 449.511 44.134 Q 450.223 43.475 450.223 42.218 L 450.223 34.097 Q 450.223 33.991 450.328 33.991 L 452.235 33.991 Q 452.341 33.991 452.341 34.097 L 452.341 42.429 Q 452.341 44.45 450.996 45.681 Q 449.669 46.902 447.762 46.902 Q 445.846 46.902 444.51 45.681 Q 443.174 44.45 443.174 42.429 Z" transform="matrix(1.310387, 0, 0, 1.310387, -59.698296, -1.169035)" style="fill: rgb(255, 255, 255);"/>
    <path transform="matrix(1.310387, 0, 0, 1.310387, -59.698296, -1.169035)" style="fill: rgb(255, 255, 255);"/>
    <path d="M 380.852 72.357 Q 380.747 72.357 380.747 72.251 L 380.747 59.657 Q 380.747 59.551 380.852 59.551 L 385.739 59.551 Q 387.593 59.551 388.586 60.544 Q 389.571 61.52 389.571 63.04 Q 389.571 63.875 389.184 64.587 Q 388.832 65.255 387.874 65.747 Q 388.762 66.029 389.246 66.828 Q 389.5 67.268 389.637 67.729 Q 389.773 68.191 389.773 68.683 Q 389.773 70.362 388.692 71.364 Q 387.62 72.357 386.169 72.357 Z M 382.865 66.767 L 382.865 70.353 L 385.704 70.353 Q 386.697 70.353 387.18 69.817 Q 387.655 69.281 387.655 68.56 Q 387.655 67.857 387.18 67.312 Q 386.723 66.767 385.704 66.767 Z M 382.865 61.458 L 382.865 64.86 L 385.528 64.86 Q 386.521 64.86 386.978 64.368 Q 387.453 63.884 387.453 63.163 Q 387.453 62.452 386.978 61.968 Q 386.503 61.458 385.528 61.458 Z M 390.588 72.348 Q 390.526 72.348 390.5 72.304 Q 390.473 72.26 390.491 72.207 L 395.096 59.604 Q 395.114 59.534 395.184 59.534 L 396.758 59.534 Q 396.784 59.534 396.815 59.556 Q 396.845 59.577 396.854 59.604 L 401.451 72.207 Q 401.468 72.26 401.442 72.304 Q 401.416 72.348 401.363 72.348 L 399.35 72.348 Q 399.28 72.348 399.262 72.278 L 398.313 69.5 L 393.673 69.5 Q 393.426 70.212 393.185 70.893 Q 392.943 71.575 392.697 72.278 Q 392.688 72.304 392.657 72.326 Q 392.627 72.348 392.6 72.348 Z M 397.68 67.611 Q 397.663 67.549 397.632 67.479 Q 397.601 67.409 397.584 67.356 Q 397.434 66.925 397.311 66.56 Q 397.188 66.196 397.091 65.923 Q 397.03 65.747 396.973 65.58 Q 396.916 65.413 396.863 65.264 Q 396.819 65.123 396.775 64.996 Q 396.731 64.869 396.687 64.745 Q 396.608 64.491 396.525 64.236 Q 396.441 63.981 396.353 63.708 Q 396.309 63.585 396.261 63.436 Q 396.213 63.286 396.16 63.119 Q 396.133 63.032 396.12 62.983 Q 396.107 62.935 396.09 62.887 Q 396.072 62.838 396.05 62.777 Q 396.028 62.715 395.993 62.601 Q 395.896 62.891 395.813 63.137 Q 395.729 63.383 395.659 63.594 Q 395.641 63.647 395.633 63.691 Q 395.624 63.735 395.606 63.779 Q 395.562 63.928 395.514 64.06 Q 395.466 64.192 395.422 64.324 Q 395.378 64.464 395.334 64.596 Q 395.29 64.728 395.246 64.851 Q 395.158 65.115 395.066 65.405 Q 394.973 65.695 394.859 66.011 Q 394.745 66.327 394.622 66.692 Q 394.499 67.057 394.305 67.611 Z M 393.224 58.083 Q 393.119 58.083 393.136 57.978 Q 393.198 57.547 393.352 57.196 Q 393.506 56.844 393.743 56.572 Q 393.98 56.326 394.297 56.189 Q 394.613 56.053 394.965 56.053 Q 395.123 56.053 395.272 56.071 Q 395.422 56.088 395.571 56.141 Q 395.729 56.194 395.874 56.246 Q 396.019 56.299 396.116 56.334 Q 396.424 56.493 396.67 56.572 Q 396.837 56.651 397.065 56.651 Q 397.267 56.651 397.461 56.528 Q 397.628 56.413 397.698 56.027 Q 397.716 55.956 397.795 55.956 L 398.709 55.956 Q 398.823 55.956 398.805 56.062 Q 398.753 56.44 398.621 56.769 Q 398.489 57.099 398.287 57.371 Q 398.067 57.653 397.751 57.815 Q 397.434 57.978 397.021 57.987 Q 396.863 57.987 396.709 57.96 Q 396.555 57.934 396.415 57.872 L 396.424 57.872 Q 396.327 57.855 396.169 57.798 Q 396.01 57.741 395.799 57.661 Q 395.527 57.538 395.281 57.468 Q 395.035 57.398 394.798 57.389 Q 394.666 57.389 394.446 57.512 L 394.455 57.503 Q 394.235 57.644 394.235 57.995 Q 394.235 58.083 394.147 58.083 Z M 403.017 72.357 Q 402.912 72.357 402.912 72.251 L 402.912 59.657 Q 402.912 59.551 403.017 59.551 L 404.924 59.551 Q 405.03 59.551 405.03 59.657 L 405.03 72.251 Q 405.03 72.357 404.924 72.357 Z M 414.882 72.357 Q 414.803 72.357 414.785 72.286 L 410.628 59.692 Q 410.611 59.639 410.637 59.595 Q 410.663 59.551 410.725 59.551 L 412.738 59.551 Q 412.817 59.551 412.834 59.63 L 415.62 68.955 Q 416.324 66.618 417.022 64.293 Q 417.721 61.968 418.415 59.63 Q 418.433 59.551 418.512 59.551 L 420.525 59.551 Q 420.586 59.551 420.613 59.595 Q 420.639 59.639 420.621 59.692 L 416.464 72.286 Q 416.447 72.357 416.368 72.357 Z M 421.501 65.958 Q 421.501 64.807 421.532 64.077 Q 421.562 63.348 421.615 63.014 Q 421.677 62.68 421.791 62.372 Q 421.905 62.065 422.072 61.766 L 422.063 61.766 Q 422.52 60.913 423.54 60.184 Q 424.568 59.446 426.098 59.446 Q 427.609 59.446 428.638 60.184 Q 429.675 60.931 430.132 61.766 Q 430.457 62.364 430.571 63.014 Q 430.633 63.348 430.663 64.077 Q 430.694 64.807 430.694 65.958 Q 430.694 68.217 430.571 68.911 Q 430.51 69.254 430.4 69.562 Q 430.29 69.869 430.14 70.151 Q 429.675 70.994 428.638 71.733 Q 427.6 72.462 426.098 72.462 Q 424.577 72.462 423.54 71.733 Q 422.52 71.012 422.063 70.151 L 422.072 70.151 Q 421.905 69.852 421.791 69.549 Q 421.677 69.245 421.615 68.911 Q 421.562 68.577 421.532 67.844 Q 421.501 67.11 421.501 65.958 Z M 423.619 65.958 Q 423.619 66.916 423.645 67.536 Q 423.672 68.156 423.742 68.454 Q 423.812 68.727 423.94 68.995 Q 424.067 69.263 424.225 69.465 Q 424.507 69.834 424.973 70.094 Q 425.438 70.353 426.098 70.353 Q 426.748 70.353 427.214 70.094 Q 427.68 69.834 427.952 69.465 Q 428.321 69.017 428.435 68.454 Q 428.576 67.892 428.576 65.958 Q 428.576 65 428.541 64.381 Q 428.506 63.761 428.435 63.471 Q 428.374 63.19 428.251 62.922 Q 428.128 62.654 427.961 62.443 Q 427.829 62.276 427.64 62.118 Q 427.451 61.959 427.214 61.841 Q 426.976 61.722 426.695 61.647 Q 426.414 61.573 426.098 61.573 Q 425.438 61.573 424.973 61.836 Q 424.507 62.1 424.225 62.443 Q 424.058 62.654 423.935 62.922 Q 423.812 63.19 423.742 63.471 Q 423.672 63.77 423.645 64.394 Q 423.619 65.018 423.619 65.958 Z M 425.254 75.82 Q 425.157 75.82 425.157 75.723 L 425.157 74.027 Q 425.157 73.93 425.254 73.93 L 426.959 73.93 Q 427.047 73.93 427.047 74.027 L 427.047 75.723 Q 427.047 75.82 426.959 75.82 Z M 435.174 72.357 Q 435.068 72.357 435.068 72.251 L 435.068 61.458 L 431.72 61.458 Q 431.614 61.458 431.614 61.353 L 431.614 59.657 Q 431.614 59.551 431.72 59.551 L 440.526 59.551 Q 440.632 59.551 440.632 59.657 L 440.632 61.353 Q 440.632 61.458 440.526 61.458 L 437.187 61.458 L 437.187 72.251 Q 437.187 72.357 437.081 72.357 Z" transform="matrix(1.310387, 0, 0, 1.310387, -59.698296, -1.169035)" style="fill: rgb(255, 255, 255);"/>
    <path d="M 426.152 119.118 Q 426.045 119.118 426.045 119.011 L 426.045 106.277 Q 426.045 106.17 426.152 106.17 L 434.292 106.17 Q 434.399 106.17 434.399 106.277 L 434.399 108.107 Q 434.399 108.214 434.292 108.214 L 428.187 108.214 L 428.187 111.626 L 433.377 111.626 Q 433.484 111.626 433.484 111.733 L 433.484 113.457 Q 433.484 113.555 433.377 113.555 L 428.187 113.555 L 428.187 117.092 L 434.292 117.092 Q 434.399 117.092 434.399 117.198 L 434.399 119.011 Q 434.399 119.118 434.292 119.118 Z M 442.572 119.118 Q 442.519 119.118 442.483 119.065 L 439.781 114.479 Q 439.106 115.634 438.431 116.772 Q 437.755 117.909 437.08 119.065 Q 437.044 119.118 436.991 119.118 L 434.814 119.118 Q 434.743 119.118 434.716 119.069 Q 434.689 119.02 434.725 118.958 L 438.591 112.48 Q 437.675 110.933 436.778 109.405 Q 435.88 107.876 434.974 106.33 Q 434.938 106.268 434.965 106.219 Q 434.992 106.17 435.054 106.17 L 437.24 106.17 Q 437.293 106.17 437.329 106.223 L 439.781 110.489 Q 440.395 109.422 441.008 108.361 Q 441.621 107.299 442.234 106.223 Q 442.27 106.17 442.323 106.17 L 444.509 106.17 Q 444.571 106.17 444.598 106.219 Q 444.625 106.268 444.589 106.33 L 440.972 112.48 Q 441.95 114.106 442.91 115.719 Q 443.869 117.332 444.847 118.958 Q 444.882 119.02 444.856 119.069 Q 444.829 119.118 444.758 119.118 Z M 448.149 108.214 L 448.149 112.106 L 450.913 112.106 Q 451.935 112.106 452.433 111.493 Q 452.939 110.898 452.939 110.16 Q 452.939 109.058 452.157 108.552 Q 451.65 108.214 450.842 108.214 Z M 446.114 119.118 Q 446.007 119.118 446.007 119.011 L 446.007 106.277 Q 446.007 106.17 446.114 106.17 L 450.735 106.17 Q 451.499 106.17 452.184 106.33 Q 452.877 106.49 453.659 107.094 Q 453.961 107.334 454.214 107.65 Q 454.468 107.965 454.672 108.347 Q 454.867 108.738 454.974 109.209 Q 455.081 109.68 455.081 110.213 Q 455.081 111.609 454.032 112.879 Q 452.983 114.141 450.984 114.141 L 448.149 114.141 L 448.149 119.011 Q 448.149 119.118 448.042 119.118 Z M 458.768 108.098 L 458.768 111.751 L 461.585 111.751 Q 462.616 111.751 463.131 111.182 Q 463.647 110.613 463.647 109.831 Q 463.647 109.387 463.491 109.04 Q 463.336 108.694 463.042 108.472 Q 462.785 108.294 462.442 108.196 Q 462.1 108.098 461.7 108.098 Z M 456.733 119.118 Q 456.626 119.118 456.626 119.011 L 456.626 106.277 Q 456.626 106.17 456.733 106.17 L 461.718 106.17 Q 462.545 106.17 463.211 106.397 Q 463.878 106.623 464.375 107.041 Q 464.633 107.281 464.869 107.587 Q 465.104 107.894 465.286 108.249 Q 465.468 108.605 465.575 109.005 Q 465.682 109.405 465.682 109.831 Q 465.682 110.462 465.504 111.027 Q 465.326 111.591 465.006 112.08 Q 464.677 112.533 464.242 112.875 Q 463.807 113.217 463.256 113.422 Q 463.975 114.799 464.704 116.19 Q 465.433 117.58 466.153 118.958 Q 466.179 119.02 466.153 119.069 Q 466.126 119.118 466.064 119.118 L 463.771 119.118 Q 463.744 119.118 463.718 119.096 Q 463.691 119.073 463.673 119.056 L 461.069 113.679 L 458.768 113.679 L 458.768 119.011 Q 458.768 119.118 458.661 119.118 Z M 467.66 119.118 Q 467.554 119.118 467.554 119.011 L 467.554 106.277 Q 467.554 106.17 467.66 106.17 L 475.801 106.17 Q 475.907 106.17 475.907 106.277 L 475.907 108.107 Q 475.907 108.214 475.801 108.214 L 469.695 108.214 L 469.695 111.626 L 474.885 111.626 Q 474.992 111.626 474.992 111.733 L 474.992 113.457 Q 474.992 113.555 474.885 113.555 L 469.695 113.555 L 469.695 117.092 L 475.801 117.092 Q 475.907 117.092 475.907 117.198 L 475.907 119.011 Q 475.907 119.118 475.801 119.118 Z M 477.682 115.848 Q 477.708 115.812 477.753 115.812 Q 477.797 115.812 477.833 115.839 Q 478.535 116.407 479.446 116.75 Q 480.357 117.092 481.37 117.092 Q 482.507 117.092 483.165 116.621 Q 483.787 116.168 483.787 115.421 Q 483.787 114.017 482.214 113.804 L 482.223 113.804 Q 482.001 113.777 481.801 113.75 Q 481.601 113.724 481.401 113.697 Q 481.201 113.67 480.992 113.639 Q 480.783 113.608 480.534 113.573 Q 479.699 113.457 479.046 113.15 Q 478.393 112.844 477.948 112.337 Q 477.504 111.822 477.282 111.213 Q 477.06 110.604 477.06 109.885 Q 477.06 108.196 478.179 107.139 Q 479.308 106.063 481.316 106.063 Q 481.912 106.063 482.476 106.166 Q 483.04 106.268 483.569 106.445 Q 484.098 106.623 484.582 106.868 Q 485.067 107.112 485.511 107.405 Q 485.6 107.467 485.538 107.556 L 484.462 109.147 Q 484.4 109.227 484.32 109.174 Q 483.627 108.738 482.845 108.476 Q 482.063 108.214 481.228 108.214 Q 480.801 108.214 480.437 108.316 Q 480.072 108.418 479.779 108.649 Q 479.201 109.067 479.201 109.92 Q 479.201 110.409 479.592 110.871 Q 479.788 111.084 480.117 111.231 Q 480.445 111.378 480.925 111.449 Q 481.183 111.493 481.53 111.542 Q 481.876 111.591 482.347 111.644 Q 484.169 111.866 485.049 112.986 Q 485.929 114.079 485.929 115.421 Q 485.929 117.216 484.676 118.229 Q 483.414 119.225 481.352 119.225 Q 478.446 119.225 476.411 117.447 Q 476.375 117.421 476.375 117.376 Q 476.375 117.332 476.402 117.296 Z M 487.952 115.848 Q 487.978 115.812 488.023 115.812 Q 488.067 115.812 488.103 115.839 Q 488.805 116.407 489.716 116.75 Q 490.627 117.092 491.64 117.092 Q 492.777 117.092 493.435 116.621 Q 494.057 116.168 494.057 115.421 Q 494.057 114.017 492.484 113.804 L 492.493 113.804 Q 492.271 113.777 492.071 113.75 Q 491.871 113.724 491.671 113.697 Q 491.471 113.67 491.262 113.639 Q 491.053 113.608 490.804 113.573 Q 489.969 113.457 489.316 113.15 Q 488.663 112.844 488.218 112.337 Q 487.774 111.822 487.552 111.213 Q 487.33 110.604 487.33 109.885 Q 487.33 108.196 488.449 107.139 Q 489.578 106.063 491.586 106.063 Q 492.182 106.063 492.746 106.166 Q 493.311 106.268 493.839 106.445 Q 494.368 106.623 494.852 106.868 Q 495.337 107.112 495.781 107.405 Q 495.87 107.467 495.808 107.556 L 494.732 109.147 Q 494.67 109.227 494.59 109.174 Q 493.897 108.738 493.115 108.476 Q 492.333 108.214 491.498 108.214 Q 491.071 108.214 490.707 108.316 Q 490.342 108.418 490.049 108.649 Q 489.471 109.067 489.471 109.92 Q 489.471 110.409 489.862 110.871 Q 490.058 111.084 490.387 111.231 Q 490.716 111.378 491.195 111.449 Q 491.453 111.493 491.8 111.542 Q 492.146 111.591 492.617 111.644 Q 494.439 111.866 495.319 112.986 Q 496.199 114.079 496.199 115.421 Q 496.199 117.216 494.946 118.229 Q 493.684 119.225 491.622 119.225 Q 488.716 119.225 486.681 117.447 Q 486.645 117.421 486.645 117.376 Q 486.645 117.332 486.672 117.296 Z M 500.204 119.118 Q 500.115 119.118 500.097 119.038 L 496.907 106.303 Q 496.889 106.25 496.924 106.21 Q 496.96 106.17 497.013 106.17 L 499.057 106.17 Q 499.146 106.17 499.164 106.25 L 501.083 114.95 Q 501.67 112.764 502.265 110.604 Q 502.861 108.445 503.456 106.25 Q 503.474 106.17 503.563 106.17 L 504.958 106.17 Q 505.038 106.17 505.056 106.25 L 507.437 114.95 Q 507.917 112.764 508.397 110.604 Q 508.877 108.445 509.357 106.25 Q 509.375 106.17 509.464 106.17 L 511.508 106.17 Q 511.561 106.17 511.596 106.21 Q 511.632 106.25 511.614 106.303 L 508.424 119.038 Q 508.406 119.118 508.317 119.118 L 506.709 119.118 Q 506.629 119.118 506.611 119.038 L 504.256 110.196 Q 503.669 112.426 503.083 114.621 Q 502.496 116.816 501.91 119.038 Q 501.892 119.118 501.812 119.118 Z M 511.528 119.109 Q 511.466 119.109 511.439 119.065 Q 511.412 119.02 511.43 118.967 L 516.087 106.223 Q 516.104 106.152 516.175 106.152 L 517.766 106.152 Q 517.793 106.152 517.824 106.174 Q 517.855 106.197 517.864 106.223 L 522.512 118.967 Q 522.529 119.02 522.503 119.065 Q 522.476 119.109 522.423 119.109 L 520.388 119.109 Q 520.317 119.109 520.299 119.038 L 519.339 116.23 L 514.647 116.23 Q 514.398 116.95 514.154 117.638 Q 513.909 118.327 513.661 119.038 Q 513.652 119.065 513.621 119.087 Q 513.589 119.109 513.563 119.109 Z M 518.699 114.319 Q 518.682 114.257 518.65 114.186 Q 518.619 114.115 518.602 114.061 Q 518.45 113.626 518.326 113.257 Q 518.202 112.888 518.104 112.613 Q 518.042 112.435 517.984 112.266 Q 517.926 112.097 517.873 111.946 Q 517.828 111.804 517.784 111.675 Q 517.74 111.546 517.695 111.422 Q 517.615 111.164 517.531 110.907 Q 517.446 110.649 517.357 110.373 Q 517.313 110.249 517.264 110.098 Q 517.215 109.947 517.162 109.778 Q 517.135 109.689 517.122 109.64 Q 517.109 109.591 517.091 109.542 Q 517.073 109.494 517.051 109.431 Q 517.029 109.369 516.993 109.254 Q 516.895 109.547 516.811 109.796 Q 516.726 110.045 516.655 110.258 Q 516.638 110.311 516.629 110.356 Q 516.62 110.4 516.602 110.444 Q 516.558 110.596 516.509 110.729 Q 516.46 110.862 516.415 110.995 Q 516.371 111.138 516.327 111.271 Q 516.282 111.404 516.238 111.529 Q 516.149 111.795 516.056 112.089 Q 515.962 112.382 515.847 112.702 Q 515.731 113.022 515.607 113.39 Q 515.482 113.759 515.287 114.319 Z M 525.493 119.118 Q 525.395 119.118 525.395 119.011 L 525.395 113.804 Q 524.435 111.929 523.484 110.062 Q 522.533 108.196 521.582 106.321 Q 521.556 106.259 521.582 106.214 Q 521.609 106.17 521.68 106.17 L 523.706 106.17 Q 523.733 106.17 523.76 106.192 Q 523.786 106.214 523.804 106.232 L 526.417 111.689 Q 527.074 110.311 527.719 108.96 Q 528.363 107.61 529.021 106.232 Q 529.038 106.214 529.065 106.192 Q 529.092 106.17 529.118 106.17 L 531.153 106.17 Q 531.224 106.17 531.251 106.214 Q 531.278 106.259 531.251 106.321 L 527.43 113.804 L 527.43 119.011 Q 527.43 119.118 527.323 119.118 Z" style="fill: rgb(255, 255, 255);"/>
    <path d="M 343.122 84.558 Q 343.194 84.558 343.242 84.612 Q 343.29 84.666 343.266 84.738 Q 342.761 87.189 341.032 88.51 Q 340.191 89.147 339.206 89.471 Q 338.221 89.795 337.08 89.795 Q 335.002 89.795 333.584 88.798 Q 332.191 87.813 331.566 86.636 Q 331.35 86.228 331.194 85.813 Q 331.038 85.399 330.954 84.942 Q 330.798 84.054 330.798 80.906 Q 330.798 79.333 330.834 78.336 Q 330.87 77.339 330.954 76.883 Q 331.038 76.426 331.194 76.006 Q 331.35 75.585 331.566 75.177 Q 332.191 74.012 333.584 73.015 Q 334.99 72.006 337.08 72.006 Q 339.578 72.006 341.212 73.543 Q 342.869 75.093 343.266 77.219 Q 343.29 77.291 343.242 77.339 Q 343.194 77.387 343.122 77.387 L 340.371 77.387 Q 340.263 77.387 340.239 77.291 Q 340.083 76.81 339.794 76.396 Q 339.506 75.982 339.086 75.621 Q 338.293 74.913 337.08 74.913 Q 336.179 74.913 335.542 75.273 Q 334.906 75.633 334.521 76.102 Q 334.293 76.39 334.125 76.756 Q 333.957 77.123 333.861 77.507 Q 333.765 77.916 333.729 78.768 Q 333.693 79.621 333.693 80.906 Q 333.693 82.216 333.729 83.063 Q 333.765 83.909 333.861 84.318 Q 333.957 84.69 334.131 85.057 Q 334.305 85.423 334.521 85.699 Q 334.906 86.204 335.542 86.558 Q 336.179 86.912 337.08 86.912 Q 339.158 86.912 340.239 84.642 Q 340.263 84.618 340.299 84.588 Q 340.335 84.558 340.371 84.558 Z M 348.15 89.651 Q 348.006 89.651 348.006 89.507 L 348.006 74.756 L 343.429 74.756 Q 343.285 74.756 343.285 74.612 L 343.285 72.294 Q 343.285 72.15 343.429 72.15 L 355.465 72.15 Q 355.609 72.15 355.609 72.294 L 355.609 74.612 Q 355.609 74.756 355.465 74.756 L 350.9 74.756 L 350.9 89.507 Q 350.9 89.651 350.756 89.651 Z M 355.978 89.651 Q 355.834 89.651 355.834 89.507 L 355.834 87.068 Q 355.834 86.924 355.978 86.924 L 358.428 86.924 Q 358.56 86.924 358.56 87.068 L 358.56 89.507 Q 358.56 89.651 358.428 89.651 Z M 366.923 77.327 Q 366.923 76.162 366.304 75.507 Q 365.686 74.853 364.653 74.853 Q 363.62 74.853 363.007 75.507 Q 362.395 76.162 362.395 77.327 L 362.395 84.594 Q 362.395 85.771 363.007 86.42 Q 363.62 87.068 364.653 87.068 Q 365.686 87.068 366.304 86.42 Q 366.923 85.771 366.923 84.594 Z M 359.656 77.183 Q 359.656 74.756 361.181 73.447 Q 362.695 72.114 364.653 72.114 Q 365.626 72.114 366.497 72.456 Q 367.367 72.799 368.124 73.447 Q 368.881 74.12 369.271 75.051 Q 369.662 75.982 369.662 77.183 L 369.662 84.738 Q 369.662 87.153 368.124 88.474 Q 366.611 89.795 364.653 89.795 Q 362.695 89.795 361.181 88.474 Q 359.656 87.165 359.656 84.738 Z M 374.694 89.687 Q 374.55 89.687 374.55 89.543 L 374.55 75.273 Q 373.997 75.681 373.445 76.096 Q 372.892 76.51 372.34 76.907 Q 372.256 76.967 372.183 76.925 Q 372.111 76.883 372.111 76.786 L 372.111 74.18 Q 372.111 74.156 372.129 74.12 Q 372.147 74.084 372.171 74.06 L 374.646 72.27 L 377.156 72.27 Q 377.3 72.27 377.3 72.414 L 377.3 89.543 Q 377.3 89.687 377.156 89.687 Z"/>
    <path d="M 395.707 174.374 Q 395.724 172.731 396.272 171.427 Q 396.819 170.124 397.816 169.194 Q 398.762 168.331 399.941 167.858 Q 401.119 167.385 402.414 167.385 Q 405.153 167.385 407.112 169.194 Q 409.088 171.021 409.138 174.391 L 409.138 184.85 Q 409.105 186.46 408.573 187.788 Q 408.042 189.116 407.112 190.029 Q 406.166 190.876 404.979 191.358 Q 403.792 191.839 402.414 191.872 Q 400.04 191.806 398.231 190.411 L 398.231 190.428 Q 397.284 189.697 396.695 188.676 Q 396.106 187.655 395.84 186.327 Q 395.807 186.244 395.865 186.178 Q 395.923 186.111 396.023 186.111 L 399.409 186.111 Q 399.526 186.111 399.592 186.244 Q 400.339 188.104 402.414 188.104 Q 405.353 188.087 405.469 184.667 L 405.469 182.692 Q 404.373 183.024 403.294 183.206 Q 402.215 183.389 401.269 183.356 Q 398.978 183.405 397.301 181.695 L 397.318 181.695 Q 395.674 180.052 395.707 176.566 Z M 399.393 176.532 Q 399.393 179.919 402.414 179.969 Q 405.369 179.919 405.469 176.532 L 405.469 174.59 Q 405.336 171.22 402.414 171.153 Q 399.409 171.236 399.393 174.59 Z M 422.167 174.573 Q 422.167 172.963 421.312 172.058 Q 420.457 171.153 419.03 171.153 Q 417.602 171.153 416.755 172.058 Q 415.909 172.963 415.909 174.573 L 415.909 184.617 Q 415.909 186.244 416.755 187.141 Q 417.602 188.037 419.03 188.037 Q 420.457 188.037 421.312 187.141 Q 422.167 186.244 422.167 184.617 Z M 412.123 174.374 Q 412.123 171.021 414.232 169.211 Q 416.324 167.368 419.03 167.368 Q 420.374 167.368 421.578 167.841 Q 422.782 168.315 423.828 169.211 Q 424.873 170.141 425.413 171.427 Q 425.953 172.714 425.953 174.374 L 425.953 184.817 Q 425.953 188.153 423.828 189.98 Q 421.736 191.806 419.03 191.806 Q 416.324 191.806 414.232 189.98 Q 412.123 188.17 412.123 184.817 Z"/>
    <path d="M 505.004 174.391 Q 505.02 172.731 505.568 171.427 Q 506.116 170.124 507.112 169.194 Q 508.058 168.331 509.237 167.858 Q 510.416 167.385 511.711 167.385 Q 514.068 167.385 515.977 168.796 Q 517.77 170.224 518.318 172.913 Q 518.351 173.013 518.285 173.079 Q 518.218 173.146 518.119 173.146 L 514.715 173.146 Q 514.583 173.146 514.533 173.029 Q 513.786 171.203 511.694 171.153 Q 508.689 171.236 508.689 174.607 L 508.689 176.566 Q 509.768 176.25 510.839 176.068 Q 511.91 175.885 512.873 175.902 Q 515.197 175.902 516.857 177.528 Q 518.451 179.205 518.434 182.692 L 518.434 184.85 Q 518.384 188.253 516.409 190.029 Q 514.549 191.789 511.711 191.872 Q 508.955 191.789 507.112 190.046 Q 505.02 188.22 505.004 184.866 Z M 508.689 184.667 Q 508.706 188.07 511.711 188.104 Q 514.649 188.087 514.765 184.667 L 514.765 182.725 Q 514.632 179.355 511.711 179.288 Q 508.706 179.371 508.689 182.725 Z M 531.131 174.573 Q 531.131 172.963 530.276 172.058 Q 529.421 171.153 527.993 171.153 Q 526.566 171.153 525.719 172.058 Q 524.872 172.963 524.872 174.573 L 524.872 184.617 Q 524.872 186.244 525.719 187.141 Q 526.566 188.037 527.993 188.037 Q 529.421 188.037 530.276 187.141 Q 531.131 186.244 531.131 184.617 Z M 521.087 174.374 Q 521.087 171.021 523.196 169.211 Q 525.287 167.368 527.993 167.368 Q 529.338 167.368 530.542 167.841 Q 531.745 168.315 532.791 169.211 Q 533.837 170.141 534.377 171.427 Q 534.916 172.714 534.916 174.374 L 534.916 184.817 Q 534.916 188.153 532.791 189.98 Q 530.699 191.806 527.993 191.806 Q 525.287 191.806 523.196 189.98 Q 521.087 188.17 521.087 184.817 Z" style="fill: rgb(255, 255, 255);"/>
  </g>
</svg>