<?xml version="1.0" encoding="UTF-8" standalone="no"?>
<!-- Created with Inkscape (http://www.inkscape.org/) -->

<svg
   width="600mm"
   height="800mm"
   viewBox="0 0 600 800"
   version="1.1"
   id="svg848"
   inkscape:version="1.2.2 (732a01da63, 2022-12-09)"
   sodipodi:docname="Vietnam_road_sign_I426.svg"
   xmlns:inkscape="http://www.inkscape.org/namespaces/inkscape"
   xmlns:sodipodi="http://sodipodi.sourceforge.net/DTD/sodipodi-0.dtd"
   xmlns="http://www.w3.org/2000/svg"
   xmlns:svg="http://www.w3.org/2000/svg"
   xmlns:rdf="http://www.w3.org/1999/02/22-rdf-syntax-ns#"
   xmlns:cc="http://creativecommons.org/ns#"
   xmlns:dc="http://purl.org/dc/elements/1.1/">
  <defs
     id="defs842" />
  <sodipodi:namedview
     id="base"
     pagecolor="#ffffff"
     bordercolor="#666666"
     borderopacity="1.0"
     inkscape:pageopacity="0.0"
     inkscape:pageshadow="2"
     inkscape:zoom="0.24745223"
     inkscape:cx="2944.0026"
     inkscape:cy="1376.0232"
     inkscape:document-units="mm"
     inkscape:current-layer="layer1"
     showgrid="false"
     inkscape:snap-global="false"
     inkscape:window-width="1920"
     inkscape:window-height="991"
     inkscape:window-x="-9"
     inkscape:window-y="-9"
     inkscape:window-maximized="1"
     fit-margin-top="0"
     fit-margin-left="0"
     fit-margin-right="0"
     fit-margin-bottom="0"
     showguides="false"
     inkscape:showpageshadow="2"
     inkscape:pagecheckerboard="0"
     inkscape:deskcolor="#d1d1d1" />
  <metadata
     id="metadata845">
    <rdf:RDF>
      <cc:Work
         rdf:about="">
        <dc:format>image/svg+xml</dc:format>
        <dc:type
           rdf:resource="http://purl.org/dc/dcmitype/StillImage" />
        <dc:title />
      </cc:Work>
    </rdf:RDF>
  </metadata>
  <g
     inkscape:label="Layer 1"
     inkscape:groupmode="layer"
     id="layer1"
     transform="translate(0,503)">
    <rect
       style="opacity:1;fill:#0046aa;fill-opacity:1;fill-rule:nonzero;stroke:none;stroke-width:2.93670321;stroke-linecap:butt;stroke-linejoin:miter;stroke-miterlimit:10;stroke-dasharray:none;stroke-opacity:1;paint-order:stroke fill markers"
       id="rect1393"
       width="600"
       height="800"
       x="0"
       y="-503" />
    <rect
       y="-498"
       x="5"
       height="790"
       width="590"
       id="rect1395"
       style="opacity:1;fill:#ffffff;fill-opacity:1;fill-rule:nonzero;stroke:none;stroke-width:2.89386988;stroke-linecap:butt;stroke-linejoin:miter;stroke-miterlimit:10;stroke-dasharray:none;stroke-opacity:1;paint-order:stroke fill markers" />
    <rect
       y="-488"
       x="15"
       height="770"
       width="570"
       id="rect1406"
       style="opacity:1;fill:#0046aa;fill-opacity:1;fill-rule:nonzero;stroke:none;stroke-width:2.80816269;stroke-linecap:butt;stroke-linejoin:miter;stroke-miterlimit:10;stroke-dasharray:none;stroke-opacity:1;paint-order:stroke fill markers" />
    <path
       cx="150"
       cy="147"
       r="150"
       id="path8376"
       style="opacity:1;fill:#d35f5f;fill-opacity:1;fill-rule:nonzero;stroke:none;stroke-width:3.92256045;stroke-linecap:butt;stroke-linejoin:miter;stroke-miterlimit:4;stroke-dasharray:none;stroke-opacity:1;paint-order:stroke fill markers"
       d=""
       inkscape:connector-curvature="0" />
    <g
       fill="#ffffff"
       fill-opacity="1"
       id="g95266"
       transform="matrix(7.934754,0,0,7.934754,-2135.631,-3076.4521)"
       style="fill:#ffffff">
      <g
         id="use95264"
         transform="translate(276.6138,412.1868)"
         style="fill:#ffffff">
        <path
           d="m 2.472656,-4.425781 c -0.058593,0 -0.085937,-0.027344 -0.085937,-0.082032 v -1.230468 c 0,-0.058594 0.027344,-0.085938 0.085937,-0.085938 h 0.480469 c 0.445313,0 0.792969,-0.121094 1.050781,-0.371094 0.253907,-0.238281 0.378907,-0.550781 0.378907,-0.941406 0,-0.367187 -0.128907,-0.683594 -0.390625,-0.945312 -0.261719,-0.257813 -0.578125,-0.390625 -0.957032,-0.390625 -0.273437,0 -0.535156,0.09375 -0.792968,0.28125 -0.25,0.183593 -0.410157,0.460937 -0.480469,0.832031 C 1.757813,-7.339844 1.75,-7.324219 1.730469,-7.308594 1.71875,-7.296875 1.699219,-7.289063 1.6875,-7.289063 H 0.273438 c -0.019532,0 -0.039063,-0.00781 -0.054688,-0.027343 -0.015625,-0.015625 -0.027344,-0.039063 -0.019531,-0.0625 0.046875,-0.703125 0.34375,-1.320313 0.894531,-1.863282 0.539063,-0.53125 1.171875,-0.800781 1.886719,-0.800781 0.445312,0 0.847656,0.078125 1.207031,0.226563 0.359375,0.152343 0.679688,0.375 0.953125,0.667968 0.261719,0.289063 0.460938,0.605469 0.601563,0.941407 0.140625,0.335937 0.210937,0.683593 0.210937,1.042968 0,0.386719 -0.074219,0.769532 -0.226562,1.140625 -0.074219,0.167969 -0.171875,0.320313 -0.304688,0.46875 -0.125,0.144532 -0.277344,0.28125 -0.453125,0.414063 0.367188,0.261719 0.640625,0.574219 0.820313,0.941406 0.183593,0.394531 0.273437,0.796875 0.273437,1.207031 0,0.925782 -0.292969,1.675782 -0.886719,2.25 C 4.59375,-0.1875 3.871094,0.0898438 3.007813,0.0898438 c -0.34375,0 -0.667969,-0.0546875 -0.972657,-0.1640626 C 1.730469,-0.1875 1.4375,-0.351563 1.15625,-0.570313 0.882813,-0.792969 0.660156,-1.066406 0.492188,-1.382813 0.328125,-1.699219 0.210938,-2.070313 0.144531,-2.5 0.136719,-2.558594 0.160156,-2.585938 0.226563,-2.585938 h 1.40625 c 0.03125,0 0.054687,0.015625 0.074218,0.054688 0.058594,0.15625 0.128907,0.300781 0.210938,0.433594 0.078125,0.125 0.175781,0.234375 0.285156,0.332031 0.109375,0.09375 0.238281,0.164062 0.382813,0.21875 0.144531,0.046875 0.3125,0.074219 0.503906,0.074219 0.363281,0 0.6875,-0.128907 0.976562,-0.390625 0.285157,-0.253907 0.429688,-0.613282 0.429688,-1.082032 0,-0.46875 -0.144531,-0.828125 -0.429688,-1.082031 C 3.777344,-4.292969 3.445313,-4.425781 3.0625,-4.425781 H 2.472656"
           id="path8490"
           style="fill:#ffffff" />
      </g>
    </g>
    <path
       id="rect127810"
       style="fill:#ffffff;stroke:none;stroke-width:51.7216;stroke-linecap:square;stroke-linejoin:round;paint-order:stroke markers fill"
       d="m 359.2205,-452.7562 v 320.38115 h 50.23569 V 21.864427 C 396.94939,6.0926552 381.98531,-9.7094913 363.89325,-24.256329 313.68702,-64.623786 226.60772,-111.50857 141.61145,-157.85312 c -14.72454,-8.02859 -28.07322,-15.1928 -41.41312,-22.36289 l -40.425934,70.02954 C 152.74869,-60.243638 273.43069,6.6918351 313.26238,38.718062 c 49.83576,40.069667 67.00116,90.298608 77.64311,116.824568 11.50792,28.68635 17.96049,59.72922 18.46904,92.1369 h 0.0899 0.47683 80.09593 v -380.05458 h 50.2467 V -452.7562 Z" />
    <path
       id="rect6040"
       style="fill:#f00a0a;stroke-width:14.3095;stroke-linecap:square;stroke-linejoin:round;paint-order:stroke fill markers;fill-opacity:1"
       d="m 467.26972,-417.70075 v 36.04356 h -35.06694 v -36.02039 h -36.96169 v 36.98508 h 36.01994 v 35.04377 h -36.00867 v 36.98508 h 36.02059 v 35.07862 h -36.02059 v 36.98508 h 36.02059 v 35.04379 h -35.99697 v 36.98485 h 36.96165 v -36.00847 h 35.06696 v 35.98531 h 36.96168 v -36.98486 h -36.03163 v -35.04401 h 36.00869 v -36.98484 h -36.00869 v -35.07886 h 36.00869 v -36.98484 h -36.02061 v -35.04402 h 36.00869 v -36.98485 z m -35.0557,73.02841 h 35.06763 v 35.04398 h -35.06763 z m 0,72.02884 h 35.06763 v 35.07865 h -35.06763 z" />
    <g
       id="use95268"
       transform="matrix(7.934754,0,0,7.934754,113.25528,194.14851)"
       style="fill:#ffffff">
      <path
         d="m 4.652344,-7.054688 c 0,-0.445312 -0.117188,-0.792968 -0.355469,-1.042968 -0.234375,-0.246094 -0.550781,-0.375 -0.945312,-0.375 -0.390625,0 -0.707032,0.125 -0.941407,0.375 -0.234375,0.246093 -0.351562,0.59375 -0.351562,1.042968 v 4.164063 c 0,0.449219 0.117187,0.796875 0.351562,1.046875 0.234375,0.246094 0.546875,0.371094 0.941407,0.371094 0.394531,0 0.710937,-0.125 0.945312,-0.371094 0.234375,-0.25 0.355469,-0.597656 0.355469,-1.046875 V -7.054688 M 0.488281,-7.136719 c 0,-0.925781 0.289063,-1.636719 0.875,-2.140625 0.578125,-0.511719 1.238282,-0.765625 1.988282,-0.765625 0.371093,0 0.722656,0.066406 1.058593,0.199219 0.328125,0.128906 0.640625,0.316406 0.929688,0.566406 C 5.628906,-9.023438 5.847656,-8.71875 6,-8.359375 c 0.144531,0.355469 0.222656,0.761719 0.222656,1.222656 v 4.328125 c 0,0.921875 -0.292968,1.636719 -0.882812,2.140625 -0.578125,0.503906 -1.238281,0.7578128 -1.988281,0.7578128 -0.746094,0 -1.410157,-0.2499998 -1.988282,-0.7578128 -0.582031,-0.5 -0.875,-1.210937 -0.875,-2.140625 v -4.328125"
         id="path8482"
         style="fill:#ffffff" />
    </g>
    <g
       id="use95272"
       transform="matrix(7.934754,0,0,7.934754,166.33872,194.14851)"
       style="fill:#ffffff">
      <path
         d="m 4.652344,-7.054688 c 0,-0.445312 -0.117188,-0.792968 -0.355469,-1.042968 -0.234375,-0.246094 -0.550781,-0.375 -0.945312,-0.375 -0.390625,0 -0.707032,0.125 -0.941407,0.375 -0.234375,0.246093 -0.351562,0.59375 -0.351562,1.042968 v 4.164063 c 0,0.449219 0.117187,0.796875 0.351562,1.046875 0.234375,0.246094 0.546875,0.371094 0.941407,0.371094 0.394531,0 0.710937,-0.125 0.945312,-0.371094 0.234375,-0.25 0.355469,-0.597656 0.355469,-1.046875 V -7.054688 M 0.488281,-7.136719 c 0,-0.925781 0.289063,-1.636719 0.875,-2.140625 0.578125,-0.511719 1.238282,-0.765625 1.988282,-0.765625 0.371093,0 0.722656,0.066406 1.058593,0.199219 0.328125,0.128906 0.640625,0.316406 0.929688,0.566406 C 5.628906,-9.023438 5.847656,-8.71875 6,-8.359375 c 0.144531,0.355469 0.222656,0.761719 0.222656,1.222656 v 4.328125 c 0,0.921875 -0.292968,1.636719 -0.882812,2.140625 -0.578125,0.503906 -1.238281,0.7578128 -1.988281,0.7578128 -0.746094,0 -1.410157,-0.2499998 -1.988282,-0.7578128 -0.582031,-0.5 -0.875,-1.210937 -0.875,-2.140625 v -4.328125"
         id="path8486"
         style="fill:#ffffff" />
    </g>
    <g
       id="use95280"
       transform="matrix(7.934754,0,0,7.934754,246.90381,194.14851)"
       style="fill:#ffffff">
      <path
         d="m 1.074219,0.0078125 c -0.054688,0 -0.082031,-0.0273438 -0.082031,-0.0820313 V -7.054688 c 0,-0.054687 0.027343,-0.082031 0.082031,-0.082031 h 1.402344 c 0.054687,0 0.082031,0.027344 0.082031,0.082031 v 0.558594 C 3,-6.972656 3.585938,-7.214844 4.324219,-7.214844 c 0.488281,0 0.886719,0.089844 1.195312,0.277344 0.136719,0.082031 0.269532,0.171875 0.398438,0.273437 0.128906,0.09375 0.25,0.203125 0.367187,0.324219 0.5625,-0.582031 1.300782,-0.875 2.207032,-0.875 0.554687,0 1.09375,0.210938 1.625,0.636719 0.523437,0.425781 0.785156,1.042969 0.785156,1.863281 v 4.6406252 c 0,0.0546875 -0.02734,0.0820313 -0.08203,0.0820313 h -1.40625 c -0.054688,0 -0.082032,-0.0273438 -0.082032,-0.0820313 V -4.234375 c 0,-0.453125 -0.121093,-0.800781 -0.363281,-1.042969 -0.25,-0.25 -0.558594,-0.375 -0.929687,-0.375 -0.386719,0 -0.703125,0.125 -0.949219,0.375 -0.242188,0.238281 -0.367188,0.589844 -0.367188,1.042969 v 4.1601562 c 0,0.0546875 -0.023437,0.0820313 -0.074218,0.0820313 H 5.246094 c -0.050781,0 -0.078125,-0.0273438 -0.078125,-0.0820313 V -4.234375 c 0,-0.445313 -0.121094,-0.796875 -0.371094,-1.042969 -0.246094,-0.25 -0.558594,-0.375 -0.929687,-0.375 -0.382813,0 -0.699219,0.125 -0.949219,0.375 -0.238281,0.234375 -0.359375,0.582031 -0.359375,1.042969 v 4.1601562 c 0,0.0546875 -0.027344,0.0820313 -0.082031,0.0820313 H 1.074219"
         id="path8478"
         style="fill:#ffffff" />
    </g>
  </g>
</svg>
