<?xml version="1.0" encoding="utf-8"?>
<svg viewBox="0 0 323.14914 200" xmlns="http://www.w3.org/2000/svg">
  <g id="layer1" transform="matrix(0.9999999999999999, 0, 0, 0.9999999999999999, -303.4596862792969, -22.960700988769517)">
    <path id="rect15575" style="opacity:1;fill:#0a9646;fill-opacity:1;fill-rule:evenodd;stroke-width:0.0420687;stroke-linecap:square;stroke-miterlimit:10;paint-order:stroke fill markers" d="M 303.45966,22.960701 H 626.6088 V 222.9607 H 303.45966 Z"/>
    <path transform="matrix(0.26458333,0,0,0.26458333,303.45966,22.960701)" d="m 30.353516,5.0117188 c -13.808655,0 -25.0781254,11.2674112 -25.0781254,25.0761722 v 332.957029 47.1211 49.04296 13.88672 252.45508 c 0,13.80862 11.2694704,25.06641 25.0781254,25.06641 H 1190.9805 c 13.8086,0 25.0781,-11.25779 25.0781,-25.06641 V 473.0957 459.57031 401.94727 363.04492 30.087891 c 0,-13.808761 -11.2695,-25.0761722 -25.0781,-25.0761722 z m 0,9.4511722 H 1190.9805 c 8.7398,0 15.6425,6.885058 15.6425,15.625 v 332.957029 38.90235 c 0,0.29959 -0.013,0.61475 -0.037,0.9375 v 7.20703 c 0,8.68754 -6.9941,15.68164 -15.6816,15.68164 h -8.0762 c -0.1869,0.007 -0.3766,0.0176 -0.5586,0.0176 H 38.023438 c -0.18105,0 -0.371847,-0.0102 -0.560547,-0.0176 h -7.097657 c -8.687546,0 -15.68164,-6.9941 -15.68164,-15.68164 V 30.152344 c 0,-1.658433 0.257595,-3.253829 0.730468,-4.751953 0.01365,-0.04461 0.03284,-0.08643 0.04688,-0.13086 1.99686,-6.321925 7.84094,-10.80664 14.892578,-10.80664 z M 30.28125,435.30469 h 6.958984 1145.628866 8.1172 c 8.6414,0 15.5996,6.95633 15.5996,15.59765 v 7.5918 c 0.024,0.37296 0.037,0.7339 0.037,1.07617 v 13.52539 252.45508 c 0,5.47634 -2.7106,10.22208 -6.8847,13.00391 -2.4923,1.6862 -5.5034,2.66992 -8.752,2.66992 H 30.28125 c -8.641361,0 -15.597656,-6.9563 -15.597656,-15.59766 V 450.90234 c 0,-8.64132 6.956295,-15.59765 15.597656,-15.59765 z" style="color:#000000;font-style:normal;font-variant:normal;font-weight:normal;font-stretch:normal;font-size:medium;line-height:normal;font-family:sans-serif;font-variant-ligatures:normal;font-variant-position:normal;font-variant-caps:normal;font-variant-numeric:normal;font-variant-alternates:normal;font-variant-east-asian:normal;font-feature-settings:normal;font-variation-settings:normal;text-indent:0;text-align:start;text-decoration:none;text-decoration-line:none;text-decoration-style:solid;text-decoration-color:#000000;letter-spacing:normal;word-spacing:normal;text-transform:none;writing-mode:lr-tb;direction:ltr;text-orientation:mixed;dominant-baseline:auto;baseline-shift:baseline;text-anchor:start;white-space:normal;shape-padding:0;shape-margin:0;inline-size:0;clip-rule:nonzero;display:inline;overflow:visible;visibility:visible;opacity:1;isolation:auto;mix-blend-mode:normal;color-interpolation:sRGB;color-interpolation-filters:linearRGB;solid-color:#000000;solid-opacity:1;vector-effect:none;fill:#ffffff;fill-opacity:1;fill-rule:evenodd;stroke:none;stroke-width:2.09199;stroke-linecap:square;stroke-linejoin:miter;stroke-miterlimit:10;stroke-dasharray:none;stroke-dashoffset:0;stroke-opacity:1;paint-order:stroke fill markers;color-rendering:auto;image-rendering:auto;shape-rendering:auto;text-rendering:auto;enable-background:accumulate;stop-color:#000000;stop-opacity:1" id="path15582"/>
    <path d="m 324.12038,67.193614 h 60.89334 v 27.821331 h -60.89334 z" style="opacity:1;fill:#ffd70f;fill-opacity:1;fill-rule:evenodd;stroke:none;stroke-width:0.553508;stroke-linecap:square;stroke-miterlimit:10;stroke-dasharray:none;stroke-opacity:1;paint-order:stroke fill markers" id="rect15605"/>
    <path id="path15631" d="m 326.18273,67.759747 c -0.81115,0 -1.47443,0.660164 -1.47443,1.471307 v 23.746432 c 0,0.811142 0.66328,1.471323 1.47443,1.471323 h 56.7905 c 0.81117,0 1.4744,-0.660181 1.4744,-1.471323 V 69.231054 c 0,-0.811143 -0.66328,-1.471307 -1.4744,-1.471307 z m 0,0.535017 h 56.7905 c 0.52266,0 0.93627,0.413622 0.93627,0.93629 v 23.746432 c 0,0.522654 -0.41353,0.933189 -0.93627,0.933189 h -56.7905 c -0.52266,0 -0.93628,-0.410555 -0.93628,-0.933189 V 69.231054 c 0,-0.522672 0.41354,-0.93629 0.93628,-0.93629 z" style="color:#000000;font-style:normal;font-variant:normal;font-weight:normal;font-stretch:normal;font-size:medium;line-height:normal;font-family:sans-serif;font-variant-ligatures:normal;font-variant-position:normal;font-variant-caps:normal;font-variant-numeric:normal;font-variant-alternates:normal;font-variant-east-asian:normal;font-feature-settings:normal;font-variation-settings:normal;text-indent:0;text-align:start;text-decoration:none;text-decoration-line:none;text-decoration-style:solid;text-decoration-color:#000000;letter-spacing:normal;word-spacing:normal;text-transform:none;writing-mode:lr-tb;direction:ltr;text-orientation:mixed;dominant-baseline:auto;baseline-shift:baseline;text-anchor:start;white-space:normal;shape-padding:0;shape-margin:0;inline-size:0;clip-rule:nonzero;display:inline;overflow:visible;visibility:visible;opacity:1;isolation:auto;mix-blend-mode:normal;color-interpolation:sRGB;color-interpolation-filters:linearRGB;solid-color:#000000;solid-opacity:1;vector-effect:none;fill:#000000;fill-opacity:1;fill-rule:evenodd;stroke:none;stroke-width:0.119062;stroke-linecap:square;stroke-linejoin:miter;stroke-miterlimit:10;stroke-dasharray:none;stroke-dashoffset:0;stroke-opacity:1;paint-order:stroke fill markers;color-rendering:auto;image-rendering:auto;shape-rendering:auto;text-rendering:auto;enable-background:accumulate;stop-color:#000000;stop-opacity:1"/>
    <path id="path17496" style="font-size:15.1831px;line-height:1.46;font-family:'Singapore Road Signs';-inkscape-font-specification:'Singapore Road Signs';text-align:center;text-anchor:middle;opacity:1;fill:#ffffff;fill-opacity:1;stroke-width:0.0756548" d="m 570.47468,59.120043 v 50.614317 h 35.43541 V 59.120043 Z m 1.38203,1.660034 h 32.65274 v 47.566083 h -32.65274 z m 13.66823,3.646909 -2.23483,8.869719 h 3.92184 l 0.28216,-8.869719 z m 3.35329,0 0.28216,8.869719 h 3.92385 l -2.23686,-8.869719 z m -15.90932,9.992316 v 1.942234 l 3.06692,1.10806 v 0.584703 h 1.411 v -0.584703 c 0,0 2.08662,-0.313671 4.52568,-0.535349 1.95306,-0.177516 4.1317,-0.271988 5.64407,-0.278037 1.79866,-0.0063 4.45804,0.09363 6.73975,0.288436 2.51319,0.214479 4.5713,0.524984 4.5713,0.524984 v 0.5847 h 1.38199 v -0.5847 l 3.06685,-1.108064 v -1.942233 z m 9.21108,3.620663 -6.70448,26.681115 h 10.04943 l 1.39442,-26.681115 z m 7.25642,0 1.39441,26.681115 h 10.0494 l -6.70443,-26.681115 z"/>
    <g style="font-size:14.7905px;line-height:0;font-family:'Singapore Road Signs';-inkscape-font-specification:'Singapore Road Signs';text-align:center;text-anchor:middle;opacity:1;fill:#860000;fill-opacity:1;stroke-width:6.45213" id="layer1-8" transform="matrix(0.08718024,0,0,0.08718024,-145.22047,195.49013)">
      <circle style="opacity:1;fill:#f00a0a;fill-opacity:1;fill-rule:nonzero;stroke:none;stroke-width:3622.55;stroke-linecap:round;stroke-linejoin:round;stroke-miterlimit:4;stroke-dasharray:none;stroke-opacity:1;paint-order:stroke fill markers" id="path815" cx="6380.9966" cy="-193.29752" r="350"/>
      <circle cy="-193.29752" cx="6380.9966" id="circle817" style="opacity:1;fill:#ffffff;fill-opacity:1;fill-rule:nonzero;stroke:none;stroke-width:2587.55;stroke-linecap:round;stroke-linejoin:round;stroke-miterlimit:4;stroke-dasharray:none;stroke-opacity:1;paint-order:stroke fill markers" r="263.821"/>
      <g aria-label="20 " style="font-style:normal;font-variant:normal;font-weight:bold;font-stretch:normal;font-size:414.864px;line-height:0;font-family:Giaothong1;-inkscape-font-specification:'Giaothong1 Bold';letter-spacing:0px;word-spacing:0px;fill:#000000;fill-opacity:1;stroke:none;stroke-width:24.7849" id="text874" transform="matrix(-1,0,0,1,1299.029,-383.45)">
        <g aria-label="90" transform="translate(2310.2259,387.54849)" style="font-style:normal;font-variant:normal;font-weight:bold;font-stretch:normal;font-size:414.864px;line-height:0;font-family:Giaothong1;-inkscape-font-specification:'Giaothong1 Bold';letter-spacing:0px;word-spacing:0px;fill:#000000;fill-opacity:1;stroke:none;stroke-width:53.5539" id="text844"/>
      </g>
    </g>
    <g style="font-size:14.7905px;line-height:0;font-family:'Singapore Road Signs';-inkscape-font-specification:'Singapore Road Signs';text-align:center;text-anchor:middle;opacity:1;fill:#fff000;fill-opacity:1;stroke-width:6.45221" id="layer1-7" transform="matrix(0.08717968,0,0,0.08717968,488.77841,183.34565)">
      <circle cy="-54" cx="351" id="circle817-6" style="opacity:1;fill:#0046aa;fill-opacity:1;fill-rule:nonzero;stroke:none;stroke-width:3622.58;stroke-linecap:round;stroke-linejoin:round;stroke-miterlimit:4;stroke-dasharray:none;stroke-opacity:1;paint-order:stroke fill markers" r="350"/>
      <path id="rect984" style="font-style: normal; font-variant: normal; font-weight: bold; font-stretch: normal; font-size: 414.864px; line-height: 0; font-family: Giaothong1; letter-spacing: 0px; word-spacing: 0px; opacity: 1; fill: rgb(255, 255, 255); fill-opacity: 1; fill-rule: nonzero; stroke: none; stroke-width: 0.344279; stroke-linecap: round; stroke-linejoin: miter; stroke-miterlimit: 10; stroke-dasharray: none; stroke-opacity: 1; paint-order: stroke; visibility: hidden;" d="m 851.18164,518.03906 c -16.32678,0 -29.4707,13.14393 -29.4707,29.47071 v 80.94921 c 0,16.32678 13.14392,29.47071 29.4707,29.47071 16.32678,0 29.4707,-13.14393 29.4707,-29.47071 v -80.94921 c 0,-16.32678 -13.14392,-29.47071 -29.4707,-29.47071 z m -69.94336,1.23828 -26.10937,69.75391 c -2.72781,7.40406 -3.70118,11.30112 -3.70118,28.44727 0,18.12042 0.7789,22.01697 4.67579,28.25195 5.26075,8.37828 14.22308,13.44336 24.93945,13.44336 10.91123,0 20.0688,-4.87023 25.13476,-13.44336 3.70197,-6.23498 4.48047,-10.13153 4.48047,-28.25195 0,-22.01726 -0.77798,-26.88814 -4.28515,-32.34375 -3.31232,-5.06591 -9.74347,-8.96289 -16.75782,-8.96289 -4.28653,0 -7.01308,0.77773 -8.37695,1.75195 l -0.39062,-0.38867 22.60156,-58.25782 z m 69.94336,18.74024 c 5.25853,0 9.49219,4.23365 9.49219,9.49219 v 80.94921 c 0,5.25853 -4.23366,9.49219 -9.49219,9.49219 -5.25853,0 -9.49219,-4.23366 -9.49219,-9.49219 v -80.94921 c 0,-5.25854 4.23366,-9.49219 9.49219,-9.49219 z m -70.13867,55.68945 c 5.0659,0 9.74219,3.89738 9.74219,9.9375 v 25.71875 c 0,6.04012 -4.67629,9.9375 -9.74219,9.9375 -5.0659,0 -9.74219,-3.89738 -9.74219,-9.9375 v -25.71875 c 0,-6.04012 4.67629,-9.9375 9.74219,-9.9375 z" transform="matrix(3.0349198,0,0,3.0349198,-2125.7104,-1839.7056)"/>
    </g>
    <g aria-label="6" id="text19759" style="font-size:31.1478px;line-height:1.3;font-family:'Singapore Road Signs';-inkscape-font-specification:'Singapore Road Signs';text-align:center;text-anchor:middle;stroke-width:0.159861" transform="matrix(1.6550836,0,0,1.6550836,-321.31659,-238.56049)"/>
    <path d="M 363.263 46.797 Q 363.166 46.797 363.166 46.691 L 363.166 34.097 Q 363.166 33.991 363.263 33.991 L 365.179 33.991 Q 365.284 33.991 365.284 34.097 L 365.284 40.354 Q 366.541 38.764 367.798 37.195 Q 369.055 35.626 370.32 34.035 Q 370.364 33.991 370.399 33.991 L 372.667 33.991 Q 372.737 33.991 372.764 34.053 Q 372.79 34.114 372.746 34.167 L 368.756 39.08 Q 369.872 40.987 370.966 42.859 Q 372.061 44.731 373.186 46.639 Q 373.212 46.7 373.19 46.748 Q 373.168 46.797 373.098 46.797 L 370.83 46.797 Q 370.777 46.797 370.742 46.744 L 367.367 40.715 Q 366.822 41.277 366.321 41.805 Q 365.82 42.332 365.284 42.894 L 365.284 46.691 Q 365.284 46.797 365.179 46.797 Z M 381.508 46.797 Q 381.403 46.797 381.403 46.691 L 381.403 41.295 L 376.613 41.295 L 376.613 46.691 Q 376.613 46.797 376.507 46.797 L 374.6 46.797 Q 374.494 46.797 374.494 46.691 L 374.494 34.097 Q 374.494 33.991 374.6 33.991 L 376.507 33.991 Q 376.613 33.991 376.613 34.097 L 376.613 39.388 L 381.403 39.388 L 381.403 34.097 Q 381.403 33.991 381.508 33.991 L 383.415 33.991 Q 383.521 33.991 383.521 34.097 L 383.521 46.691 Q 383.521 46.797 383.415 46.797 Z M 385.022 46.788 Q 384.961 46.788 384.934 46.744 Q 384.908 46.7 384.925 46.647 L 389.531 34.044 Q 389.548 33.974 389.619 33.974 L 391.192 33.974 Q 391.218 33.974 391.249 33.996 Q 391.28 34.017 391.289 34.044 L 395.885 46.647 Q 395.903 46.7 395.877 46.744 Q 395.85 46.788 395.797 46.788 L 393.785 46.788 Q 393.714 46.788 393.697 46.718 L 392.748 43.94 L 388.107 43.94 Q 387.861 44.652 387.619 45.333 Q 387.378 46.015 387.131 46.718 Q 387.123 46.744 387.092 46.766 Q 387.061 46.788 387.035 46.788 Z M 392.115 42.051 Q 392.097 41.989 392.067 41.919 Q 392.036 41.849 392.018 41.796 Q 391.869 41.365 391.746 41 Q 391.623 40.636 391.526 40.363 Q 391.464 40.187 391.407 40.02 Q 391.35 39.853 391.297 39.704 Q 391.254 39.563 391.21 39.436 Q 391.166 39.309 391.122 39.185 Q 391.043 38.931 390.959 38.676 Q 390.876 38.421 390.788 38.148 Q 390.744 38.025 390.695 37.876 Q 390.647 37.726 390.594 37.559 Q 390.568 37.472 390.555 37.423 Q 390.542 37.375 390.524 37.327 Q 390.506 37.278 390.484 37.217 Q 390.463 37.155 390.427 37.041 Q 390.331 37.331 390.247 37.577 Q 390.164 37.823 390.093 38.034 Q 390.076 38.087 390.067 38.131 Q 390.058 38.175 390.041 38.219 Q 389.997 38.368 389.948 38.5 Q 389.9 38.632 389.856 38.764 Q 389.812 38.904 389.768 39.036 Q 389.724 39.168 389.68 39.291 Q 389.592 39.555 389.5 39.845 Q 389.408 40.135 389.294 40.451 Q 389.179 40.767 389.056 41.132 Q 388.933 41.497 388.74 42.051 Z M 388.511 32.857 Q 388.441 32.857 388.419 32.809 Q 388.397 32.761 388.423 32.699 L 390.26 30.133 Q 390.296 30.08 390.348 30.08 L 392.282 30.08 Q 392.352 30.08 392.383 30.142 Q 392.414 30.203 392.361 30.256 L 389.935 32.822 Q 389.926 32.831 389.9 32.844 Q 389.874 32.857 389.856 32.857 Z M 397.476 46.797 Q 397.37 46.797 397.37 46.691 L 397.37 34.097 Q 397.37 33.991 397.476 33.991 L 399.286 33.991 Q 399.339 33.991 399.374 34.044 L 404.911 42.763 L 404.911 34.097 Q 404.911 33.991 405.017 33.991 L 406.933 33.991 Q 407.038 33.991 407.038 34.097 L 407.038 46.691 Q 407.038 46.797 406.933 46.797 L 405.131 46.797 Q 405.078 46.797 405.043 46.744 L 399.489 38.025 L 399.489 46.691 Q 399.489 46.797 399.392 46.797 Z M 416.688 46.797 Q 416.583 46.797 416.583 46.691 L 416.583 41.295 L 411.793 41.295 L 411.793 46.691 Q 411.793 46.797 411.687 46.797 L 409.78 46.797 Q 409.674 46.797 409.674 46.691 L 409.674 34.097 Q 409.674 33.991 409.78 33.991 L 411.687 33.991 Q 411.793 33.991 411.793 34.097 L 411.793 39.388 L 416.583 39.388 L 416.583 34.097 Q 416.583 33.991 416.688 33.991 L 418.595 33.991 Q 418.701 33.991 418.701 34.097 L 418.701 46.691 Q 418.701 46.797 418.595 46.797 Z M 432.667 46.797 Q 432.562 46.797 432.562 46.691 L 432.562 41.295 L 427.772 41.295 L 427.772 46.691 Q 427.772 46.797 427.666 46.797 L 425.759 46.797 Q 425.654 46.797 425.654 46.691 L 425.654 34.097 Q 425.654 33.991 425.759 33.991 L 427.666 33.991 Q 427.772 33.991 427.772 34.097 L 427.772 39.388 L 432.562 39.388 L 432.562 34.097 Q 432.562 33.991 432.667 33.991 L 434.574 33.991 Q 434.68 33.991 434.68 34.097 L 434.68 46.691 Q 434.68 46.797 434.574 46.797 Z M 436.893 40.398 Q 436.893 39.247 436.924 38.517 Q 436.955 37.788 437.007 37.454 Q 437.069 37.12 437.183 36.812 Q 437.298 36.505 437.465 36.206 L 437.456 36.206 Q 437.913 35.353 438.932 34.624 Q 439.961 33.886 441.49 33.886 Q 443.002 33.886 444.03 34.624 Q 445.067 35.371 445.524 36.206 Q 445.849 36.804 445.964 37.454 Q 446.025 37.788 446.056 38.517 Q 446.087 39.247 446.087 40.398 Q 446.087 42.657 445.964 43.351 Q 445.902 43.694 445.792 44.002 Q 445.682 44.309 445.533 44.591 Q 445.067 45.434 444.03 46.173 Q 442.993 46.902 441.49 46.902 Q 439.969 46.902 438.932 46.173 Q 437.913 45.452 437.456 44.591 L 437.465 44.591 Q 437.298 44.292 437.183 43.989 Q 437.069 43.685 437.007 43.351 Q 436.955 43.017 436.924 42.284 Q 436.893 41.55 436.893 40.398 Z M 439.011 40.398 Q 439.011 41.356 439.038 41.976 Q 439.064 42.596 439.134 42.894 Q 439.205 43.167 439.332 43.435 Q 439.46 43.703 439.618 43.905 Q 439.899 44.274 440.365 44.534 Q 440.831 44.793 441.49 44.793 Q 442.14 44.793 442.606 44.534 Q 443.072 44.274 443.344 43.905 Q 443.714 43.457 443.828 42.894 Q 443.968 42.332 443.968 40.398 Q 443.968 39.44 443.933 38.821 Q 443.898 38.201 443.828 37.911 Q 443.766 37.63 443.643 37.362 Q 443.52 37.094 443.353 36.883 Q 443.221 36.716 443.032 36.558 Q 442.843 36.399 442.606 36.281 Q 442.369 36.162 442.088 36.087 Q 441.806 36.013 441.49 36.013 Q 440.831 36.013 440.365 36.276 Q 439.899 36.54 439.618 36.883 Q 439.451 37.094 439.328 37.362 Q 439.205 37.63 439.134 37.911 Q 439.064 38.21 439.038 38.834 Q 439.011 39.458 439.011 40.398 Z M 447.157 46.788 Q 447.096 46.788 447.07 46.744 Q 447.043 46.7 447.061 46.647 L 451.666 34.044 Q 451.684 33.974 451.754 33.974 L 453.327 33.974 Q 453.354 33.974 453.385 33.996 Q 453.415 34.017 453.424 34.044 L 458.021 46.647 Q 458.038 46.7 458.012 46.744 Q 457.986 46.788 457.933 46.788 L 455.92 46.788 Q 455.85 46.788 455.832 46.718 L 454.883 43.94 L 450.242 43.94 Q 449.996 44.652 449.755 45.333 Q 449.513 46.015 449.267 46.718 Q 449.258 46.744 449.227 46.766 Q 449.197 46.788 449.17 46.788 Z M 454.25 42.051 Q 454.233 41.989 454.202 41.919 Q 454.171 41.849 454.154 41.796 Q 454.004 41.365 453.881 41 Q 453.758 40.636 453.661 40.363 Q 453.6 40.187 453.543 40.02 Q 453.486 39.853 453.433 39.704 Q 453.389 39.563 453.345 39.436 Q 453.301 39.309 453.257 39.185 Q 453.178 38.931 453.094 38.676 Q 453.011 38.421 452.923 38.148 Q 452.879 38.025 452.831 37.876 Q 452.782 37.726 452.73 37.559 Q 452.703 37.472 452.69 37.423 Q 452.677 37.375 452.659 37.327 Q 452.642 37.278 452.62 37.217 Q 452.598 37.155 452.563 37.041 Q 452.466 37.331 452.383 37.577 Q 452.299 37.823 452.229 38.034 Q 452.211 38.087 452.202 38.131 Q 452.194 38.175 452.176 38.219 Q 452.132 38.368 452.084 38.5 Q 452.035 38.632 451.991 38.764 Q 451.948 38.904 451.904 39.036 Q 451.86 39.168 451.816 39.291 Q 451.728 39.555 451.635 39.845 Q 451.543 40.135 451.429 40.451 Q 451.315 40.767 451.192 41.132 Q 451.069 41.497 450.875 42.051 Z M 453.09 32.857 Q 453.073 32.857 453.046 32.844 Q 453.02 32.831 453.011 32.822 L 450.585 30.256 Q 450.532 30.203 450.563 30.142 Q 450.594 30.08 450.664 30.08 L 452.598 30.08 Q 452.651 30.08 452.686 30.133 L 454.523 32.699 Q 454.549 32.761 454.527 32.809 Q 454.505 32.857 454.435 32.857 Z" transform="matrix(1.310387, 0, 0, 1.310387, -59.698296, -1.169035)" style="fill: rgb(255, 255, 255); text-wrap-mode: nowrap;"/>
    <path transform="matrix(1.310387, 0, 0, 1.310387, -59.698296, -1.169035)" style="fill: rgb(255, 255, 255); text-wrap-mode: nowrap;"/>
    <path d="M 345.891 72.357 Q 345.786 72.357 345.786 72.251 L 345.786 59.657 Q 345.786 59.551 345.891 59.551 L 350.778 59.551 Q 352.632 59.551 353.626 60.544 Q 354.61 61.52 354.61 63.04 Q 354.61 63.875 354.223 64.587 Q 353.872 65.255 352.914 65.747 Q 353.801 66.029 354.285 66.828 Q 354.54 67.268 354.676 67.729 Q 354.812 68.191 354.812 68.683 Q 354.812 70.362 353.731 71.364 Q 352.659 72.357 351.209 72.357 Z M 347.904 66.767 L 347.904 70.353 L 350.743 70.353 Q 351.736 70.353 352.219 69.817 Q 352.694 69.281 352.694 68.56 Q 352.694 67.857 352.219 67.312 Q 351.762 66.767 350.743 66.767 Z M 347.904 61.458 L 347.904 64.86 L 350.567 64.86 Q 351.56 64.86 352.017 64.368 Q 352.492 63.884 352.492 63.163 Q 352.492 62.452 352.017 61.968 Q 351.543 61.458 350.567 61.458 Z M 356.533 59.657 Q 356.533 59.551 356.639 59.551 L 358.555 59.551 Q 358.652 59.551 358.652 59.657 L 358.652 67.778 Q 358.652 69.043 359.355 69.694 Q 360.067 70.353 361.121 70.353 Q 362.158 70.353 362.87 69.694 Q 363.582 69.035 363.582 67.778 L 363.582 59.657 Q 363.582 59.551 363.688 59.551 L 365.595 59.551 Q 365.7 59.551 365.7 59.657 L 365.7 67.989 Q 365.7 70.01 364.356 71.241 Q 363.029 72.462 361.121 72.462 Q 359.205 72.462 357.869 71.241 Q 356.533 70.01 356.533 67.989 Z M 369.277 58.417 Q 369.198 58.417 369.176 58.351 Q 369.154 58.285 369.215 58.242 L 371.799 56.194 L 372.977 56.194 L 375.596 58.242 Q 375.658 58.285 375.636 58.351 Q 375.614 58.417 375.543 58.417 L 374.058 58.417 L 372.309 57.477 Q 371.922 57.714 371.527 57.952 Q 371.131 58.189 370.745 58.417 Z M 367.721 65.853 Q 367.721 64.702 367.752 63.972 Q 367.783 63.243 367.835 62.909 Q 367.897 62.575 368.011 62.267 Q 368.125 61.959 368.292 61.66 L 368.284 61.66 Q 368.741 60.808 369.76 60.078 Q 370.788 59.34 372.318 59.34 Q 373.829 59.34 374.858 60.078 Q 375.895 60.826 376.352 61.66 Q 376.677 62.258 376.791 62.909 Q 376.853 63.243 376.884 63.972 Q 376.914 64.702 376.914 65.853 Q 376.914 68.112 376.791 68.806 Q 376.73 69.149 376.62 69.456 Q 376.51 69.764 376.361 70.045 Q 375.895 70.889 374.858 71.627 Q 373.821 72.357 372.318 72.357 Q 370.797 72.357 369.76 71.627 Q 368.741 70.907 368.284 70.045 L 368.292 70.045 Q 368.125 69.746 368.011 69.443 Q 367.897 69.14 367.835 68.806 Q 367.783 68.472 367.752 67.738 Q 367.721 67.004 367.721 65.853 Z M 369.839 65.853 Q 369.839 66.811 369.866 67.431 Q 369.892 68.05 369.962 68.349 Q 370.033 68.621 370.16 68.89 Q 370.288 69.158 370.446 69.36 Q 370.727 69.729 371.193 69.988 Q 371.659 70.247 372.318 70.247 Q 372.968 70.247 373.434 69.988 Q 373.9 69.729 374.172 69.36 Q 374.541 68.911 374.656 68.349 Q 374.796 67.786 374.796 65.853 Q 374.796 64.895 374.761 64.275 Q 374.726 63.656 374.656 63.366 Q 374.594 63.084 374.471 62.816 Q 374.348 62.548 374.181 62.337 Q 374.049 62.17 373.86 62.012 Q 373.671 61.854 373.434 61.735 Q 373.197 61.617 372.915 61.542 Q 372.634 61.467 372.318 61.467 Q 371.659 61.467 371.193 61.731 Q 370.727 61.994 370.446 62.337 Q 370.279 62.548 370.156 62.816 Q 370.033 63.084 369.962 63.366 Q 369.892 63.664 369.866 64.288 Q 369.839 64.912 369.839 65.853 Z M 379.181 72.357 Q 379.075 72.357 379.075 72.251 L 379.075 59.657 Q 379.075 59.551 379.181 59.551 L 380.991 59.551 Q 381.044 59.551 381.079 59.604 L 386.616 68.323 L 386.616 59.657 Q 386.616 59.551 386.722 59.551 L 388.638 59.551 Q 388.743 59.551 388.743 59.657 L 388.743 72.251 Q 388.743 72.357 388.638 72.357 L 386.836 72.357 Q 386.783 72.357 386.748 72.304 L 381.193 63.585 L 381.193 72.251 Q 381.193 72.357 381.097 72.357 Z M 395.811 72.357 Q 395.706 72.357 395.706 72.251 L 395.706 59.657 Q 395.706 59.551 395.811 59.551 L 397.613 59.551 Q 397.674 59.551 397.709 59.613 L 401.234 67.602 Q 402.086 65.589 402.948 63.607 Q 403.809 61.625 404.67 59.613 Q 404.697 59.551 404.767 59.551 L 406.569 59.551 Q 406.674 59.551 406.674 59.657 L 406.674 72.251 Q 406.674 72.357 406.569 72.357 L 404.662 72.357 Q 404.556 72.357 404.556 72.251 L 404.556 64.816 Q 403.941 66.248 403.317 67.663 Q 402.693 69.078 402.086 70.502 Q 402.051 70.555 401.99 70.555 L 400.399 70.555 Q 400.337 70.555 400.302 70.502 L 397.824 64.798 L 397.824 72.251 Q 397.824 72.357 397.718 72.357 Z M 408.201 72.348 Q 408.14 72.348 408.113 72.304 Q 408.087 72.26 408.105 72.207 L 412.71 59.604 Q 412.728 59.534 412.798 59.534 L 414.371 59.534 Q 414.397 59.534 414.428 59.556 Q 414.459 59.577 414.468 59.604 L 419.064 72.207 Q 419.082 72.26 419.056 72.304 Q 419.029 72.348 418.977 72.348 L 416.964 72.348 Q 416.894 72.348 416.876 72.278 L 415.927 69.5 L 411.286 69.5 Q 411.04 70.212 410.798 70.893 Q 410.557 71.575 410.311 72.278 Q 410.302 72.304 410.271 72.326 Q 410.24 72.348 410.214 72.348 Z M 415.294 67.611 Q 415.276 67.549 415.246 67.479 Q 415.215 67.409 415.197 67.356 Q 415.048 66.925 414.925 66.56 Q 414.802 66.196 414.705 65.923 Q 414.644 65.747 414.586 65.58 Q 414.529 65.413 414.477 65.264 Q 414.433 65.123 414.389 64.996 Q 414.345 64.869 414.301 64.745 Q 414.222 64.491 414.138 64.236 Q 414.055 63.981 413.967 63.708 Q 413.923 63.585 413.875 63.436 Q 413.826 63.286 413.773 63.119 Q 413.747 63.032 413.734 62.983 Q 413.721 62.935 413.703 62.887 Q 413.686 62.838 413.664 62.777 Q 413.642 62.715 413.606 62.601 Q 413.51 62.891 413.426 63.137 Q 413.343 63.383 413.272 63.594 Q 413.255 63.647 413.246 63.691 Q 413.237 63.735 413.22 63.779 Q 413.176 63.928 413.127 64.06 Q 413.079 64.192 413.035 64.324 Q 412.991 64.464 412.947 64.596 Q 412.903 64.728 412.859 64.851 Q 412.772 65.115 412.679 65.405 Q 412.587 65.695 412.473 66.011 Q 412.358 66.327 412.235 66.692 Q 412.112 67.057 411.919 67.611 Z M 427.144 72.357 Q 427.038 72.357 427.038 72.251 L 427.038 61.458 L 423.689 61.458 Q 423.584 61.458 423.584 61.353 L 423.584 59.657 Q 423.584 59.551 423.689 59.551 L 432.496 59.551 Q 432.602 59.551 432.602 59.657 L 432.602 61.353 Q 432.602 61.458 432.496 61.458 L 429.156 61.458 L 429.156 72.251 Q 429.156 72.357 429.051 72.357 Z M 440.897 72.357 Q 440.791 72.357 440.791 72.251 L 440.791 66.855 L 436.001 66.855 L 436.001 72.251 Q 436.001 72.357 435.896 72.357 L 433.989 72.357 Q 433.883 72.357 433.883 72.251 L 433.883 59.657 Q 433.883 59.551 433.989 59.551 L 435.896 59.551 Q 436.001 59.551 436.001 59.657 L 436.001 64.948 L 440.791 64.948 L 440.791 59.657 Q 440.791 59.551 440.897 59.551 L 442.804 59.551 Q 442.91 59.551 442.91 59.657 L 442.91 72.251 Q 442.91 72.357 442.804 72.357 Z M 445.316 59.657 Q 445.316 59.551 445.422 59.551 L 447.338 59.551 Q 447.434 59.551 447.434 59.657 L 447.434 67.778 Q 447.434 69.043 448.138 69.694 Q 448.849 70.353 449.904 70.353 Q 450.941 70.353 451.653 69.694 Q 452.365 69.035 452.365 67.778 L 452.365 59.657 Q 452.365 59.551 452.471 59.551 L 454.378 59.551 Q 454.483 59.551 454.483 59.657 L 454.483 67.989 Q 454.483 70.01 453.138 71.241 Q 451.811 72.462 449.904 72.462 Q 447.988 72.462 446.652 71.241 Q 445.316 70.01 445.316 67.989 Z M 458.06 58.417 Q 457.98 58.417 457.958 58.351 Q 457.936 58.285 457.998 58.242 L 460.582 56.194 L 461.76 56.194 L 464.379 58.242 Q 464.44 58.285 464.418 58.351 Q 464.396 58.417 464.326 58.417 L 462.841 58.417 L 461.092 57.477 Q 460.705 57.714 460.31 57.952 Q 459.914 58.189 459.527 58.417 Z M 456.504 65.853 Q 456.504 64.702 456.535 63.972 Q 456.565 63.243 456.618 62.909 Q 456.68 62.575 456.794 62.267 Q 456.908 61.959 457.075 61.66 L 457.066 61.66 Q 457.523 60.808 458.543 60.078 Q 459.571 59.34 461.101 59.34 Q 462.612 59.34 463.641 60.078 Q 464.678 60.826 465.135 61.66 Q 465.46 62.258 465.574 62.909 Q 465.636 63.243 465.666 63.972 Q 465.697 64.702 465.697 65.853 Q 465.697 68.112 465.574 68.806 Q 465.513 69.149 465.403 69.456 Q 465.293 69.764 465.144 70.045 Q 464.678 70.889 463.641 71.627 Q 462.603 72.357 461.101 72.357 Q 459.58 72.357 458.543 71.627 Q 457.523 70.907 457.066 70.045 L 457.075 70.045 Q 456.908 69.746 456.794 69.443 Q 456.68 69.14 456.618 68.806 Q 456.565 68.472 456.535 67.738 Q 456.504 67.004 456.504 65.853 Z M 458.622 65.853 Q 458.622 66.811 458.648 67.431 Q 458.675 68.05 458.745 68.349 Q 458.815 68.621 458.943 68.89 Q 459.07 69.158 459.228 69.36 Q 459.51 69.729 459.976 69.988 Q 460.441 70.247 461.101 70.247 Q 461.751 70.247 462.217 69.988 Q 462.683 69.729 462.955 69.36 Q 463.324 68.911 463.438 68.349 Q 463.579 67.786 463.579 65.853 Q 463.579 64.895 463.544 64.275 Q 463.509 63.656 463.438 63.366 Q 463.377 63.084 463.254 62.816 Q 463.131 62.548 462.964 62.337 Q 462.832 62.17 462.643 62.012 Q 462.454 61.854 462.217 61.735 Q 461.979 61.617 461.698 61.542 Q 461.417 61.467 461.101 61.467 Q 460.441 61.467 459.976 61.731 Q 459.51 61.994 459.228 62.337 Q 459.061 62.548 458.938 62.816 Q 458.815 63.084 458.745 63.366 Q 458.675 63.664 458.648 64.288 Q 458.622 64.912 458.622 65.853 Z M 460.213 75.82 Q 460.116 75.82 460.116 75.723 L 460.116 74.027 Q 460.116 73.93 460.213 73.93 L 461.918 73.93 Q 462.006 73.93 462.006 74.027 L 462.006 75.723 Q 462.006 75.82 461.918 75.82 Z M 470.138 72.357 Q 470.032 72.357 470.032 72.251 L 470.032 61.458 L 466.684 61.458 Q 466.578 61.458 466.578 61.353 L 466.578 59.657 Q 466.578 59.551 466.684 59.551 L 475.49 59.551 Q 475.596 59.551 475.596 59.657 L 475.596 61.353 Q 475.596 61.458 475.49 61.458 L 472.15 61.458 L 472.15 72.251 Q 472.15 72.357 472.045 72.357 Z" transform="matrix(1.310387, 0, 0, 1.310387, -59.698296, -1.169035)" style="fill: rgb(255, 255, 255); text-wrap-mode: nowrap;"/>
    <path d="M 426.152 119.118 Q 426.045 119.118 426.045 119.011 L 426.045 106.277 Q 426.045 106.17 426.152 106.17 L 434.292 106.17 Q 434.399 106.17 434.399 106.277 L 434.399 108.107 Q 434.399 108.214 434.292 108.214 L 428.187 108.214 L 428.187 111.626 L 433.377 111.626 Q 433.484 111.626 433.484 111.733 L 433.484 113.457 Q 433.484 113.555 433.377 113.555 L 428.187 113.555 L 428.187 117.092 L 434.292 117.092 Q 434.399 117.092 434.399 117.198 L 434.399 119.011 Q 434.399 119.118 434.292 119.118 Z M 442.571 119.118 Q 442.517 119.118 442.482 119.065 L 439.78 114.479 Q 439.105 115.634 438.429 116.772 Q 437.754 117.909 437.079 119.065 Q 437.043 119.118 436.99 119.118 L 434.813 119.118 Q 434.741 119.118 434.715 119.069 Q 434.688 119.02 434.724 118.958 L 438.589 112.48 Q 437.674 110.933 436.776 109.405 Q 435.879 107.876 434.972 106.33 Q 434.937 106.268 434.964 106.219 Q 434.99 106.17 435.052 106.17 L 437.239 106.17 Q 437.292 106.17 437.327 106.223 L 439.78 110.489 Q 440.393 109.422 441.007 108.361 Q 441.62 107.299 442.233 106.223 Q 442.268 106.17 442.322 106.17 L 444.508 106.17 Q 444.57 106.17 444.597 106.219 Q 444.623 106.268 444.588 106.33 L 440.971 112.48 Q 441.949 114.106 442.908 115.719 Q 443.868 117.332 444.846 118.958 Q 444.881 119.02 444.855 119.069 Q 444.828 119.118 444.757 119.118 Z M 448.15 108.214 L 448.15 112.106 L 450.914 112.106 Q 451.936 112.106 452.433 111.493 Q 452.94 110.898 452.94 110.16 Q 452.94 109.058 452.158 108.552 Q 451.651 108.214 450.843 108.214 Z M 446.115 119.118 Q 446.008 119.118 446.008 119.011 L 446.008 106.277 Q 446.008 106.17 446.115 106.17 L 450.736 106.17 Q 451.5 106.17 452.184 106.33 Q 452.878 106.49 453.66 107.094 Q 453.962 107.334 454.215 107.65 Q 454.468 107.965 454.673 108.347 Q 454.868 108.738 454.975 109.209 Q 455.081 109.68 455.081 110.213 Q 455.081 111.609 454.033 112.879 Q 452.984 114.141 450.985 114.141 L 448.15 114.141 L 448.15 119.011 Q 448.15 119.118 448.043 119.118 Z M 458.767 108.098 L 458.767 111.751 L 461.584 111.751 Q 462.615 111.751 463.13 111.182 Q 463.646 110.613 463.646 109.831 Q 463.646 109.387 463.49 109.04 Q 463.335 108.694 463.041 108.472 Q 462.784 108.294 462.441 108.196 Q 462.099 108.098 461.699 108.098 Z M 456.732 119.118 Q 456.625 119.118 456.625 119.011 L 456.625 106.277 Q 456.625 106.17 456.732 106.17 L 461.717 106.17 Q 462.544 106.17 463.21 106.397 Q 463.877 106.623 464.374 107.041 Q 464.632 107.281 464.868 107.587 Q 465.103 107.894 465.285 108.249 Q 465.467 108.605 465.574 109.005 Q 465.681 109.405 465.681 109.831 Q 465.681 110.462 465.503 111.027 Q 465.325 111.591 465.005 112.08 Q 464.676 112.533 464.241 112.875 Q 463.806 113.217 463.255 113.422 Q 463.974 114.799 464.703 116.19 Q 465.432 117.58 466.152 118.958 Q 466.178 119.02 466.152 119.069 Q 466.125 119.118 466.063 119.118 L 463.77 119.118 Q 463.743 119.118 463.717 119.096 Q 463.69 119.073 463.672 119.056 L 461.068 113.679 L 458.767 113.679 L 458.767 119.011 Q 458.767 119.118 458.66 119.118 Z M 467.661 119.118 Q 467.554 119.118 467.554 119.011 L 467.554 106.277 Q 467.554 106.17 467.661 106.17 L 475.801 106.17 Q 475.908 106.17 475.908 106.277 L 475.908 108.107 Q 475.908 108.214 475.801 108.214 L 469.696 108.214 L 469.696 111.626 L 474.886 111.626 Q 474.993 111.626 474.993 111.733 L 474.993 113.457 Q 474.993 113.555 474.886 113.555 L 469.696 113.555 L 469.696 117.092 L 475.801 117.092 Q 475.908 117.092 475.908 117.198 L 475.908 119.011 Q 475.908 119.118 475.801 119.118 Z M 477.686 115.848 Q 477.712 115.812 477.757 115.812 Q 477.801 115.812 477.837 115.839 Q 478.539 116.407 479.45 116.75 Q 480.36 117.092 481.374 117.092 Q 482.511 117.092 483.169 116.621 Q 483.791 116.167 483.791 115.421 Q 483.791 114.017 482.218 113.804 L 482.227 113.804 Q 482.005 113.777 481.805 113.75 Q 481.605 113.724 481.405 113.697 Q 481.205 113.67 480.996 113.639 Q 480.787 113.608 480.538 113.573 Q 479.703 113.457 479.05 113.15 Q 478.396 112.844 477.952 112.337 Q 477.508 111.822 477.286 111.213 Q 477.063 110.604 477.063 109.885 Q 477.063 108.196 478.183 107.139 Q 479.312 106.063 481.32 106.063 Q 481.916 106.063 482.48 106.165 Q 483.044 106.268 483.573 106.445 Q 484.102 106.623 484.586 106.868 Q 485.07 107.112 485.515 107.405 Q 485.604 107.467 485.541 107.556 L 484.466 109.147 Q 484.404 109.227 484.324 109.174 Q 483.631 108.738 482.849 108.476 Q 482.067 108.214 481.231 108.214 Q 480.805 108.214 480.44 108.316 Q 480.076 108.418 479.783 108.649 Q 479.205 109.067 479.205 109.92 Q 479.205 110.409 479.596 110.871 Q 479.792 111.084 480.121 111.231 Q 480.449 111.378 480.929 111.449 Q 481.187 111.493 481.534 111.542 Q 481.88 111.591 482.351 111.644 Q 484.173 111.866 485.053 112.986 Q 485.932 114.079 485.932 115.421 Q 485.932 117.216 484.679 118.229 Q 483.417 119.225 481.356 119.225 Q 478.45 119.225 476.415 117.447 Q 476.379 117.421 476.379 117.376 Q 476.379 117.332 476.406 117.296 Z M 487.955 115.848 Q 487.982 115.812 488.027 115.812 Q 488.071 115.812 488.107 115.839 Q 488.809 116.407 489.719 116.75 Q 490.63 117.092 491.643 117.092 Q 492.781 117.092 493.439 116.621 Q 494.061 116.167 494.061 115.421 Q 494.061 114.017 492.488 113.804 L 492.497 113.804 Q 492.274 113.777 492.074 113.75 Q 491.874 113.724 491.675 113.697 Q 491.475 113.67 491.266 113.639 Q 491.057 113.608 490.808 113.573 Q 489.973 113.457 489.32 113.15 Q 488.666 112.844 488.222 112.337 Q 487.778 111.822 487.556 111.213 Q 487.333 110.604 487.333 109.885 Q 487.333 108.196 488.453 107.139 Q 489.582 106.063 491.59 106.063 Q 492.186 106.063 492.75 106.165 Q 493.314 106.268 493.843 106.445 Q 494.372 106.623 494.856 106.868 Q 495.34 107.112 495.785 107.405 Q 495.873 107.467 495.811 107.556 L 494.736 109.147 Q 494.674 109.227 494.594 109.174 Q 493.901 108.738 493.119 108.476 Q 492.337 108.214 491.501 108.214 Q 491.075 108.214 490.71 108.316 Q 490.346 108.418 490.053 108.649 Q 489.475 109.067 489.475 109.92 Q 489.475 110.409 489.866 110.871 Q 490.062 111.084 490.39 111.231 Q 490.719 111.378 491.199 111.449 Q 491.457 111.493 491.803 111.542 Q 492.15 111.591 492.621 111.644 Q 494.443 111.866 495.323 112.986 Q 496.202 114.079 496.202 115.421 Q 496.202 117.216 494.949 118.229 Q 493.687 119.225 491.626 119.225 Q 488.72 119.225 486.685 117.447 Q 486.649 117.421 486.649 117.376 Q 486.649 117.332 486.676 117.296 Z M 500.211 119.118 Q 500.123 119.118 500.105 119.038 L 496.914 106.303 Q 496.897 106.25 496.932 106.21 Q 496.968 106.17 497.021 106.17 L 499.065 106.17 Q 499.154 106.17 499.172 106.25 L 501.091 114.95 Q 501.678 112.764 502.273 110.604 Q 502.869 108.445 503.464 106.25 Q 503.482 106.17 503.571 106.17 L 504.966 106.17 Q 505.046 106.17 505.064 106.25 L 507.445 114.95 Q 507.925 112.764 508.405 110.604 Q 508.885 108.445 509.365 106.25 Q 509.382 106.17 509.471 106.17 L 511.515 106.17 Q 511.569 106.17 511.604 106.21 Q 511.64 106.25 511.622 106.303 L 508.432 119.038 Q 508.414 119.118 508.325 119.118 L 506.716 119.118 Q 506.636 119.118 506.619 119.038 L 504.264 110.196 Q 503.677 112.426 503.091 114.621 Q 502.504 116.816 501.918 119.038 Q 501.9 119.118 501.82 119.118 Z M 511.536 119.109 Q 511.473 119.109 511.447 119.065 Q 511.42 119.02 511.438 118.967 L 516.095 106.223 Q 516.112 106.152 516.183 106.152 L 517.774 106.152 Q 517.801 106.152 517.832 106.174 Q 517.863 106.197 517.872 106.223 L 522.52 118.967 Q 522.537 119.02 522.511 119.065 Q 522.484 119.109 522.431 119.109 L 520.396 119.109 Q 520.325 119.109 520.307 119.038 L 519.347 116.23 L 514.655 116.23 Q 514.406 116.95 514.162 117.638 Q 513.917 118.327 513.668 119.038 Q 513.66 119.065 513.628 119.087 Q 513.597 119.109 513.571 119.109 Z M 518.707 114.319 Q 518.689 114.257 518.658 114.186 Q 518.627 114.115 518.609 114.061 Q 518.458 113.626 518.334 113.257 Q 518.21 112.888 518.112 112.613 Q 518.05 112.435 517.992 112.266 Q 517.934 112.097 517.881 111.946 Q 517.836 111.804 517.792 111.675 Q 517.747 111.546 517.703 111.422 Q 517.623 111.164 517.539 110.907 Q 517.454 110.649 517.365 110.373 Q 517.321 110.249 517.272 110.098 Q 517.223 109.947 517.17 109.778 Q 517.143 109.689 517.13 109.64 Q 517.117 109.591 517.099 109.542 Q 517.081 109.494 517.059 109.431 Q 517.037 109.369 517.001 109.254 Q 516.903 109.547 516.819 109.796 Q 516.734 110.045 516.663 110.258 Q 516.646 110.311 516.637 110.356 Q 516.628 110.4 516.61 110.444 Q 516.566 110.596 516.517 110.729 Q 516.468 110.862 516.423 110.995 Q 516.379 111.138 516.334 111.271 Q 516.29 111.404 516.246 111.529 Q 516.157 111.795 516.063 112.088 Q 515.97 112.382 515.855 112.702 Q 515.739 113.022 515.615 113.39 Q 515.49 113.759 515.295 114.319 Z M 525.5 119.118 Q 525.402 119.118 525.402 119.011 L 525.402 113.804 Q 524.443 111.929 523.492 110.062 Q 522.541 108.196 521.59 106.321 Q 521.563 106.259 521.59 106.214 Q 521.617 106.17 521.688 106.17 L 523.714 106.17 Q 523.741 106.17 523.767 106.192 Q 523.794 106.214 523.812 106.232 L 526.424 111.689 Q 527.082 110.311 527.726 108.96 Q 528.371 107.61 529.028 106.232 Q 529.046 106.214 529.073 106.192 Q 529.099 106.17 529.126 106.17 L 531.161 106.17 Q 531.232 106.17 531.259 106.214 Q 531.285 106.259 531.259 106.321 L 527.437 113.804 L 527.437 119.011 Q 527.437 119.118 527.331 119.118 Z" style="fill: rgb(255, 255, 255); text-wrap-mode: nowrap;"/>
    <path d="M 341.366 84.558 Q 341.438 84.558 341.486 84.612 Q 341.534 84.666 341.51 84.738 Q 341.005 87.189 339.276 88.51 Q 338.435 89.147 337.45 89.471 Q 336.465 89.795 335.324 89.795 Q 333.246 89.795 331.828 88.798 Q 330.435 87.813 329.81 86.636 Q 329.594 86.228 329.438 85.813 Q 329.282 85.399 329.198 84.942 Q 329.042 84.054 329.042 80.906 Q 329.042 79.333 329.078 78.336 Q 329.114 77.339 329.198 76.883 Q 329.282 76.426 329.438 76.006 Q 329.594 75.585 329.81 75.177 Q 330.435 74.012 331.828 73.015 Q 333.234 72.006 335.324 72.006 Q 337.822 72.006 339.456 73.543 Q 341.113 75.093 341.51 77.219 Q 341.534 77.291 341.486 77.339 Q 341.438 77.387 341.366 77.387 L 338.615 77.387 Q 338.507 77.387 338.483 77.291 Q 338.327 76.81 338.038 76.396 Q 337.75 75.982 337.33 75.621 Q 336.537 74.913 335.324 74.913 Q 334.423 74.913 333.786 75.273 Q 333.15 75.633 332.765 76.102 Q 332.537 76.39 332.369 76.756 Q 332.201 77.123 332.105 77.507 Q 332.008 77.916 331.972 78.768 Q 331.936 79.621 331.936 80.906 Q 331.936 82.216 331.972 83.063 Q 332.008 83.909 332.105 84.318 Q 332.201 84.69 332.375 85.057 Q 332.549 85.423 332.765 85.699 Q 333.15 86.204 333.786 86.558 Q 334.423 86.912 335.324 86.912 Q 337.402 86.912 338.483 84.642 Q 338.507 84.618 338.543 84.588 Q 338.579 84.558 338.615 84.558 Z M 346.396 89.651 Q 346.252 89.651 346.252 89.507 L 346.252 74.756 L 341.676 74.756 Q 341.532 74.756 341.532 74.612 L 341.532 72.294 Q 341.532 72.15 341.676 72.15 L 353.711 72.15 Q 353.856 72.15 353.856 72.294 L 353.856 74.612 Q 353.856 74.756 353.711 74.756 L 349.147 74.756 L 349.147 89.507 Q 349.147 89.651 349.003 89.651 Z M 354.222 89.651 Q 354.078 89.651 354.078 89.507 L 354.078 87.068 Q 354.078 86.924 354.222 86.924 L 356.672 86.924 Q 356.804 86.924 356.804 87.068 L 356.804 89.507 Q 356.804 89.651 356.672 89.651 Z M 357.904 89.651 Q 357.76 89.651 357.76 89.507 L 357.76 87.165 L 364.487 78.744 L 364.487 78.756 Q 364.859 78.288 364.967 77.898 Q 365.075 77.507 365.075 77.135 Q 365.075 76.306 364.475 75.573 Q 363.874 74.853 362.853 74.853 Q 361.916 74.853 361.231 75.489 Q 360.895 75.801 360.721 76.228 Q 360.547 76.654 360.499 77.195 Q 360.499 77.255 360.457 77.291 Q 360.415 77.327 360.355 77.327 L 357.904 77.327 Q 357.76 77.327 357.76 77.183 Q 357.784 75.045 359.213 73.591 Q 360.667 72.114 362.673 72.114 Q 364.847 72.114 366.336 73.603 L 366.324 73.603 Q 367.802 75.081 367.802 77.159 Q 367.802 78.06 367.538 78.828 Q 367.273 79.597 366.745 80.258 L 366.745 80.246 Q 366.06 81.111 365.399 81.939 Q 364.739 82.768 364.078 83.591 Q 363.418 84.414 362.757 85.237 Q 362.096 86.06 361.412 86.924 L 367.658 86.924 Q 367.802 86.924 367.802 87.068 L 367.802 89.507 Q 367.802 89.651 367.658 89.651 Z M 369.23 87.117 Q 369.085 87.117 369.085 86.972 L 369.085 84.63 L 374.827 72.354 Q 374.851 72.33 374.887 72.3 Q 374.923 72.27 374.959 72.27 L 377.698 72.27 Q 377.77 72.27 377.812 72.33 Q 377.854 72.39 377.818 72.474 L 372.124 84.522 L 376.22 84.522 L 376.22 79.729 Q 376.22 79.597 376.364 79.597 L 378.815 79.597 Q 378.959 79.597 378.959 79.729 L 378.959 84.522 L 380.196 84.522 Q 380.328 84.522 380.328 84.666 L 380.328 86.972 Q 380.328 87.117 380.196 87.117 L 378.959 87.117 L 378.959 89.507 Q 378.959 89.651 378.815 89.651 L 376.364 89.651 Q 376.22 89.651 376.22 89.507 L 376.22 87.117 Z" style="text-wrap-mode: nowrap;"/>
    <path d="M 395.707 174.374 Q 395.723 172.731 396.271 171.427 Q 396.819 170.124 397.815 169.194 Q 398.761 168.331 399.94 167.858 Q 401.119 167.385 402.414 167.385 Q 405.153 167.385 407.112 169.194 Q 409.087 171.021 409.137 174.391 L 409.137 184.85 Q 409.104 186.46 408.573 187.788 Q 408.041 189.116 407.112 190.029 Q 406.165 190.876 404.978 191.358 Q 403.791 191.839 402.414 191.872 Q 400.04 191.806 398.23 190.411 L 398.23 190.428 Q 397.284 189.697 396.694 188.676 Q 396.105 187.655 395.839 186.327 Q 395.806 186.244 395.864 186.178 Q 395.922 186.111 396.022 186.111 L 399.409 186.111 Q 399.525 186.111 399.591 186.244 Q 400.338 188.104 402.414 188.104 Q 405.352 188.087 405.468 184.667 L 405.468 182.692 Q 404.373 183.024 403.293 183.206 Q 402.214 183.389 401.268 183.356 Q 398.977 183.405 397.3 181.695 L 397.317 181.695 Q 395.673 180.052 395.707 176.566 Z M 399.392 176.532 Q 399.392 179.919 402.414 179.969 Q 405.369 179.919 405.468 176.532 L 405.468 174.59 Q 405.335 171.22 402.414 171.153 Q 399.409 171.236 399.392 174.59 Z M 422.168 174.573 Q 422.168 172.963 421.313 172.058 Q 420.458 171.153 419.03 171.153 Q 417.602 171.153 416.755 172.058 Q 415.909 172.963 415.909 174.573 L 415.909 184.617 Q 415.909 186.244 416.755 187.141 Q 417.602 188.037 419.03 188.037 Q 420.458 188.037 421.313 187.141 Q 422.168 186.244 422.168 184.617 Z M 412.124 174.374 Q 412.124 171.021 414.232 169.211 Q 416.324 167.368 419.03 167.368 Q 420.375 167.368 421.578 167.841 Q 422.782 168.315 423.828 169.211 Q 424.874 170.141 425.413 171.427 Q 425.953 172.714 425.953 174.374 L 425.953 184.817 Q 425.953 188.153 423.828 189.98 Q 421.736 191.806 419.03 191.806 Q 416.324 191.806 414.232 189.98 Q 412.124 188.17 412.124 184.817 Z" style="text-wrap-mode: nowrap;"/>
    <path d="M 505.003 174.391 Q 505.02 172.731 505.568 171.427 Q 506.116 170.124 507.112 169.194 Q 508.058 168.331 509.237 167.858 Q 510.415 167.385 511.71 167.385 Q 514.068 167.385 515.977 168.796 Q 517.77 170.224 518.318 172.913 Q 518.351 173.013 518.285 173.079 Q 518.218 173.146 518.119 173.146 L 514.715 173.146 Q 514.582 173.146 514.533 173.029 Q 513.786 171.203 511.694 171.153 Q 508.689 171.236 508.689 174.607 L 508.689 176.566 Q 509.768 176.25 510.839 176.068 Q 511.91 175.885 512.873 175.902 Q 515.197 175.902 516.857 177.528 Q 518.451 179.205 518.434 182.692 L 518.434 184.85 Q 518.384 188.253 516.409 190.029 Q 514.549 191.789 511.71 191.872 Q 508.955 191.789 507.112 190.046 Q 505.02 188.22 505.003 184.866 Z M 508.689 184.667 Q 508.706 188.07 511.71 188.104 Q 514.649 188.087 514.765 184.667 L 514.765 182.725 Q 514.632 179.355 511.71 179.288 Q 508.706 179.371 508.689 182.725 Z M 531.13 174.573 Q 531.13 172.963 530.275 172.058 Q 529.42 171.153 527.993 171.153 Q 526.565 171.153 525.718 172.058 Q 524.872 172.963 524.872 174.573 L 524.872 184.617 Q 524.872 186.244 525.718 187.141 Q 526.565 188.037 527.993 188.037 Q 529.42 188.037 530.275 187.141 Q 531.13 186.244 531.13 184.617 Z M 521.086 174.374 Q 521.086 171.021 523.195 169.211 Q 525.287 167.368 527.993 167.368 Q 529.337 167.368 530.541 167.841 Q 531.745 168.315 532.791 169.211 Q 533.836 170.141 534.376 171.427 Q 534.916 172.714 534.916 174.374 L 534.916 184.817 Q 534.916 188.153 532.791 189.98 Q 530.699 191.806 527.993 191.806 Q 525.287 191.806 523.195 189.98 Q 521.086 188.17 521.086 184.817 Z" style="fill: rgb(255, 255, 255); text-wrap-mode: nowrap;"/>
  </g>
</svg>