<?xml version="1.0" encoding="utf-8"?>
<svg viewBox="0 0 323.14914 200" xmlns="http://www.w3.org/2000/svg">
  <g id="layer1" transform="matrix(0.9999999999999999, 0, 0, 0.9999999999999999, -303.4596862792969, -22.960700988769517)">
    <path id="rect15575" style="opacity:1;fill:#0a9646;fill-opacity:1;fill-rule:evenodd;stroke-width:0.0420687;stroke-linecap:square;stroke-miterlimit:10;paint-order:stroke fill markers" d="M 303.45966,22.960701 H 626.6088 V 222.9607 H 303.45966 Z"/>
    <path transform="matrix(0.26458333,0,0,0.26458333,303.45966,22.960701)" d="m 30.353516,5.0117188 c -13.808655,0 -25.0781254,11.2674112 -25.0781254,25.0761722 v 332.957029 47.1211 49.04296 13.88672 252.45508 c 0,13.80862 11.2694704,25.06641 25.0781254,25.06641 H 1190.9805 c 13.8086,0 25.0781,-11.25779 25.0781,-25.06641 V 473.0957 459.57031 401.94727 363.04492 30.087891 c 0,-13.808761 -11.2695,-25.0761722 -25.0781,-25.0761722 z m 0,9.4511722 H 1190.9805 c 8.7398,0 15.6425,6.885058 15.6425,15.625 v 332.957029 38.90235 c 0,0.29959 -0.013,0.61475 -0.037,0.9375 v 7.20703 c 0,8.68754 -6.9941,15.68164 -15.6816,15.68164 h -8.0762 c -0.1869,0.007 -0.3766,0.0176 -0.5586,0.0176 H 38.023438 c -0.18105,0 -0.371847,-0.0102 -0.560547,-0.0176 h -7.097657 c -8.687546,0 -15.68164,-6.9941 -15.68164,-15.68164 V 30.152344 c 0,-1.658433 0.257595,-3.253829 0.730468,-4.751953 0.01365,-0.04461 0.03284,-0.08643 0.04688,-0.13086 1.99686,-6.321925 7.84094,-10.80664 14.892578,-10.80664 z M 30.28125,435.30469 h 6.958984 1145.628866 8.1172 c 8.6414,0 15.5996,6.95633 15.5996,15.59765 v 7.5918 c 0.024,0.37296 0.037,0.7339 0.037,1.07617 v 13.52539 252.45508 c 0,5.47634 -2.7106,10.22208 -6.8847,13.00391 -2.4923,1.6862 -5.5034,2.66992 -8.752,2.66992 H 30.28125 c -8.641361,0 -15.597656,-6.9563 -15.597656,-15.59766 V 450.90234 c 0,-8.64132 6.956295,-15.59765 15.597656,-15.59765 z" style="color:#000000;font-style:normal;font-variant:normal;font-weight:normal;font-stretch:normal;font-size:medium;line-height:normal;font-family:sans-serif;font-variant-ligatures:normal;font-variant-position:normal;font-variant-caps:normal;font-variant-numeric:normal;font-variant-alternates:normal;font-variant-east-asian:normal;font-feature-settings:normal;font-variation-settings:normal;text-indent:0;text-align:start;text-decoration:none;text-decoration-line:none;text-decoration-style:solid;text-decoration-color:#000000;letter-spacing:normal;word-spacing:normal;text-transform:none;writing-mode:lr-tb;direction:ltr;text-orientation:mixed;dominant-baseline:auto;baseline-shift:baseline;text-anchor:start;white-space:normal;shape-padding:0;shape-margin:0;inline-size:0;clip-rule:nonzero;display:inline;overflow:visible;visibility:visible;opacity:1;isolation:auto;mix-blend-mode:normal;color-interpolation:sRGB;color-interpolation-filters:linearRGB;solid-color:#000000;solid-opacity:1;vector-effect:none;fill:#ffffff;fill-opacity:1;fill-rule:evenodd;stroke:none;stroke-width:2.09199;stroke-linecap:square;stroke-linejoin:miter;stroke-miterlimit:10;stroke-dasharray:none;stroke-dashoffset:0;stroke-opacity:1;paint-order:stroke fill markers;color-rendering:auto;image-rendering:auto;shape-rendering:auto;text-rendering:auto;enable-background:accumulate;stop-color:#000000;stop-opacity:1" id="path15582"/>
    <path d="m 324.12038,67.193614 h 60.89334 v 27.821331 h -60.89334 z" style="opacity:1;fill:#ffd70f;fill-opacity:1;fill-rule:evenodd;stroke:none;stroke-width:0.553508;stroke-linecap:square;stroke-miterlimit:10;stroke-dasharray:none;stroke-opacity:1;paint-order:stroke fill markers" id="rect15605"/>
    <path id="path15631" d="m 326.18273,67.759747 c -0.81115,0 -1.47443,0.660164 -1.47443,1.471307 v 23.746432 c 0,0.811142 0.66328,1.471323 1.47443,1.471323 h 56.7905 c 0.81117,0 1.4744,-0.660181 1.4744,-1.471323 V 69.231054 c 0,-0.811143 -0.66328,-1.471307 -1.4744,-1.471307 z m 0,0.535017 h 56.7905 c 0.52266,0 0.93627,0.413622 0.93627,0.93629 v 23.746432 c 0,0.522654 -0.41353,0.933189 -0.93627,0.933189 h -56.7905 c -0.52266,0 -0.93628,-0.410555 -0.93628,-0.933189 V 69.231054 c 0,-0.522672 0.41354,-0.93629 0.93628,-0.93629 z" style="color:#000000;font-style:normal;font-variant:normal;font-weight:normal;font-stretch:normal;font-size:medium;line-height:normal;font-family:sans-serif;font-variant-ligatures:normal;font-variant-position:normal;font-variant-caps:normal;font-variant-numeric:normal;font-variant-alternates:normal;font-variant-east-asian:normal;font-feature-settings:normal;font-variation-settings:normal;text-indent:0;text-align:start;text-decoration:none;text-decoration-line:none;text-decoration-style:solid;text-decoration-color:#000000;letter-spacing:normal;word-spacing:normal;text-transform:none;writing-mode:lr-tb;direction:ltr;text-orientation:mixed;dominant-baseline:auto;baseline-shift:baseline;text-anchor:start;white-space:normal;shape-padding:0;shape-margin:0;inline-size:0;clip-rule:nonzero;display:inline;overflow:visible;visibility:visible;opacity:1;isolation:auto;mix-blend-mode:normal;color-interpolation:sRGB;color-interpolation-filters:linearRGB;solid-color:#000000;solid-opacity:1;vector-effect:none;fill:#000000;fill-opacity:1;fill-rule:evenodd;stroke:none;stroke-width:0.119062;stroke-linecap:square;stroke-linejoin:miter;stroke-miterlimit:10;stroke-dasharray:none;stroke-dashoffset:0;stroke-opacity:1;paint-order:stroke fill markers;color-rendering:auto;image-rendering:auto;shape-rendering:auto;text-rendering:auto;enable-background:accumulate;stop-color:#000000;stop-opacity:1"/>
    <path d="m 336.88947,72.205604 c -1.36961,0 -2.51552,0.330332 -3.43646,0.991507 -0.91309,0.653335 -1.5737,1.361798 -1.98303,2.125328 -0.14189,0.267612 -0.264,0.538688 -0.36613,0.814199 -0.10264,0.275473 -0.18065,0.564078 -0.23555,0.86321 -0.0552,0.299089 -0.0954,0.774434 -0.11873,1.427765 -0.0223,0.653332 -0.0362,1.495435 -0.0362,2.5266 0,2.062321 0.0516,3.383536 0.15387,3.966025 0.0552,0.299136 0.13326,0.587702 0.23556,0.863193 0.10264,0.267612 0.22467,0.534915 0.36612,0.802543 0.40948,0.771411 1.06995,1.479875 1.983,2.125324 0.92887,0.653346 2.07472,0.979855 3.43649,0.979855 0.74779,0 1.44489,-0.107189 2.09034,-0.319632 0.64544,-0.212556 1.24303,-0.525333 1.79403,-0.942508 1.1335,-0.865864 1.86473,-2.103628 2.19533,-3.709419 0.0139,-0.04714 0.009,-0.08518 -0.0223,-0.116745 -0.0315,-0.03928 -0.0694,-0.05829 -0.11656,-0.05829 h -2.70394 c -0.0223,1.5e-5 -0.0488,0.01117 -0.0722,0.03521 -0.0223,0.01589 -0.0451,0.0307 -0.0582,0.0467 -0.70836,1.487712 -1.74338,2.232636 -3.10515,2.232636 -0.59037,0 -1.09454,-0.11468 -1.51174,-0.342928 -0.41713,-0.236167 -0.75132,-0.520933 -1.00317,-0.851551 -0.14189,-0.181028 -0.27124,-0.389065 -0.3896,-0.625222 -0.11008,-0.244 -0.19597,-0.488524 -0.25924,-0.732545 -0.0628,-0.267611 -0.10709,-0.67614 -0.13048,-1.227141 -0.0223,-0.558871 -0.0359,-1.267326 -0.0359,-2.125325 0,-0.842249 0.009,-1.543133 0.0359,-2.102004 0.0223,-0.55887 0.0677,-0.97117 0.13048,-1.238798 0.0627,-0.251917 0.14857,-0.496392 0.25924,-0.732549 0.11009,-0.244 0.24028,-0.45965 0.3896,-0.64857 0.252,-0.30699 0.58598,-0.580386 1.00317,-0.816526 0.41715,-0.236167 0.92137,-0.352269 1.51174,-0.352269 0.79503,1.7e-5 1.45185,0.230844 1.97135,0.695231 0.27541,0.236167 0.50863,0.492045 0.69757,0.767539 0.18872,0.267667 0.33407,0.560022 0.4361,0.874867 0.0167,0.06294 0.0599,0.09333 0.13046,0.09333 h 2.7039 c 0.0468,0 0.0854,-0.01589 0.11658,-0.0467 0.0315,-0.03161 0.0407,-0.07184 0.0223,-0.118954 -0.25952,-1.393235 -0.93175,-2.595995 -2.01801,-3.611427 -1.07052,-1.007535 -2.42438,-1.511744 -4.0617,-1.511744 z m 27.73422,0.104956 c -1.28304,0 -2.4213,0.437369 -3.41313,1.311121 -0.99967,0.858 -1.50005,2.08205 -1.50005,3.672071 v 7.425818 c 0,1.590021 0.50038,2.814088 1.50005,3.672088 0.99183,0.865851 2.13009,1.299446 3.41313,1.299446 1.28303,0 2.42133,-0.433578 3.41313,-1.299446 1.00756,-0.86587 1.50938,-2.089917 1.50938,-3.672088 v -7.425818 c 0,-0.787127 -0.1299,-1.484222 -0.38959,-2.09033 -0.252,-0.613979 -0.62389,-1.140934 -1.11979,-1.581741 -0.49592,-0.425045 -1.03279,-0.74779 -1.6074,-0.968177 -0.56674,-0.22825 -1.16816,-0.342924 -1.80573,-0.342924 z m -21.12261,0.03521 c -0.0943,0 -0.14217,0.04776 -0.14217,0.142392 v 2.279298 c 0,0.09444 0.0479,0.142197 0.14217,0.142197 h 4.49793 V 89.409 c 0,0.09444 0.0479,0.139995 0.14217,0.139995 h 2.5616 c 0.0945,0 0.14217,-0.04555 0.14217,-0.139995 V 74.909653 h 4.48625 c 0.0943,0 0.14217,-0.04778 0.14217,-0.142196 v -2.279299 c 0,-0.09444 -0.0479,-0.142392 -0.14217,-0.142392 z m 31.22667,0.118953 -2.43331,1.759064 c -0.0139,0.01589 -0.0315,0.03477 -0.0466,0.05829 -0.009,0.02341 -0.0139,0.04468 -0.0139,0.06068 v 2.561593 c 0,0.06294 0.0278,0.110694 0.0728,0.142196 0.0468,0.02343 0.0989,0.01617 0.15388,-0.02343 0.36208,-0.259778 0.7228,-0.523245 1.08486,-0.790886 0.36206,-0.275473 0.72509,-0.548889 1.08714,-0.816528 v 14.028096 c 0,0.09444 0.048,0.142198 0.14217,0.142198 h 2.41929 c 0.0943,0 0.13994,-0.04778 0.13994,-0.142198 V 72.606811 c 0,-0.09444 -0.0455,-0.142197 -0.13994,-0.142197 z m -10.10406,2.538257 c 0.67694,0 1.21532,0.217964 1.61673,0.650912 0.40948,0.425045 0.61359,1.018854 0.61359,1.782378 v 7.143522 c 0,0.771407 -0.20461,1.368982 -0.61359,1.794059 -0.40133,0.425045 -0.93979,0.63689 -1.61673,0.63689 -0.67695,0 -1.21527,-0.211859 -1.61671,-0.63689 -0.40134,-0.425091 -0.60428,-1.022652 -0.60428,-1.794059 v -7.143497 c 0,-0.763524 0.20266,-1.357335 0.60428,-1.782377 0.40133,-0.432946 0.93976,-0.650913 1.61671,-0.650913 z m -9.98507,11.865445 c -0.0945,0 -0.14217,0.04776 -0.14217,0.14239 v 2.398281 c 0,0.09444 0.0479,0.139994 0.14217,0.139994 h 2.40762 c 0.0867,0 0.13046,-0.04555 0.13046,-0.139994 v -2.398281 c 0,-0.09444 -0.0451,-0.14239 -0.13046,-0.14239 z" style="font-style: normal; font-variant: normal; font-weight: normal; font-stretch: normal; font-size: 15.1831px; line-height: 1.46; font-family: 'Alte DIN 1451 Mittelschrift gepraegt'; text-align: center; text-anchor: middle; opacity: 1; fill-opacity: 1; stroke-width: 0.264584; visibility: hidden;" id="path15637"/>
    <path id="path17496" style="font-size:15.1831px;line-height:1.46;font-family:'Singapore Road Signs';-inkscape-font-specification:'Singapore Road Signs';text-align:center;text-anchor:middle;opacity:1;fill:#ffffff;fill-opacity:1;stroke-width:0.0756548" d="m 570.47468,59.120043 v 50.614317 h 35.43541 V 59.120043 Z m 1.38203,1.660034 h 32.65274 v 47.566083 h -32.65274 z m 13.66823,3.646909 -2.23483,8.869719 h 3.92184 l 0.28216,-8.869719 z m 3.35329,0 0.28216,8.869719 h 3.92385 l -2.23686,-8.869719 z m -15.90932,9.992316 v 1.942234 l 3.06692,1.10806 v 0.584703 h 1.411 v -0.584703 c 0,0 2.08662,-0.313671 4.52568,-0.535349 1.95306,-0.177516 4.1317,-0.271988 5.64407,-0.278037 1.79866,-0.0063 4.45804,0.09363 6.73975,0.288436 2.51319,0.214479 4.5713,0.524984 4.5713,0.524984 v 0.5847 h 1.38199 v -0.5847 l 3.06685,-1.108064 v -1.942233 z m 9.21108,3.620663 -6.70448,26.681115 h 10.04943 l 1.39442,-26.681115 z m 7.25642,0 1.39441,26.681115 h 10.0494 l -6.70443,-26.681115 z"/>
    <g style="font-size:14.7905px;line-height:0;font-family:'Singapore Road Signs';-inkscape-font-specification:'Singapore Road Signs';text-align:center;text-anchor:middle;opacity:1;fill:#860000;fill-opacity:1;stroke-width:6.45213" id="layer1-8" transform="matrix(0.08718024,0,0,0.08718024,-145.22047,195.49013)">
      <circle style="opacity:1;fill:#f00a0a;fill-opacity:1;fill-rule:nonzero;stroke:none;stroke-width:3622.55;stroke-linecap:round;stroke-linejoin:round;stroke-miterlimit:4;stroke-dasharray:none;stroke-opacity:1;paint-order:stroke fill markers" id="path815" cx="6380.9966" cy="-193.29752" r="350"/>
      <circle cy="-193.29752" cx="6380.9966" id="circle817" style="opacity:1;fill:#ffffff;fill-opacity:1;fill-rule:nonzero;stroke:none;stroke-width:2587.55;stroke-linecap:round;stroke-linejoin:round;stroke-miterlimit:4;stroke-dasharray:none;stroke-opacity:1;paint-order:stroke fill markers" r="263.821"/>
      <g aria-label="20 " style="font-style:normal;font-variant:normal;font-weight:bold;font-stretch:normal;font-size:414.864px;line-height:0;font-family:Giaothong1;-inkscape-font-specification:'Giaothong1 Bold';letter-spacing:0px;word-spacing:0px;fill:#000000;fill-opacity:1;stroke:none;stroke-width:24.7849" id="text874" transform="matrix(-1,0,0,1,1299.029,-383.45)">
        <g aria-label="90" transform="translate(2310.2259,387.54849)" style="font-style:normal;font-variant:normal;font-weight:bold;font-stretch:normal;font-size:414.864px;line-height:0;font-family:Giaothong1;-inkscape-font-specification:'Giaothong1 Bold';letter-spacing:0px;word-spacing:0px;fill:#000000;fill-opacity:1;stroke:none;stroke-width:53.5539" id="text844"/>
      </g>
    </g>
    <g style="font-size:14.7905px;line-height:0;font-family:'Singapore Road Signs';-inkscape-font-specification:'Singapore Road Signs';text-align:center;text-anchor:middle;opacity:1;fill:#fff000;fill-opacity:1;stroke-width:6.45221" id="layer1-7" transform="matrix(0.08717968,0,0,0.08717968,488.77841,183.34565)">
      <circle cy="-54" cx="351" id="circle817-6" style="opacity:1;fill:#0046aa;fill-opacity:1;fill-rule:nonzero;stroke:none;stroke-width:3622.58;stroke-linecap:round;stroke-linejoin:round;stroke-miterlimit:4;stroke-dasharray:none;stroke-opacity:1;paint-order:stroke fill markers" r="350"/>
      <path id="rect984" style="font-style: normal; font-variant: normal; font-weight: bold; font-stretch: normal; font-size: 414.864px; line-height: 0; font-family: Giaothong1; letter-spacing: 0px; word-spacing: 0px; opacity: 1; fill: rgb(255, 255, 255); fill-opacity: 1; fill-rule: nonzero; stroke: none; stroke-width: 0.344279; stroke-linecap: round; stroke-linejoin: miter; stroke-miterlimit: 10; stroke-dasharray: none; stroke-opacity: 1; paint-order: stroke; visibility: hidden;" d="m 851.18164,518.03906 c -16.32678,0 -29.4707,13.14393 -29.4707,29.47071 v 80.94921 c 0,16.32678 13.14392,29.47071 29.4707,29.47071 16.32678,0 29.4707,-13.14393 29.4707,-29.47071 v -80.94921 c 0,-16.32678 -13.14392,-29.47071 -29.4707,-29.47071 z m -69.94336,1.23828 -26.10937,69.75391 c -2.72781,7.40406 -3.70118,11.30112 -3.70118,28.44727 0,18.12042 0.7789,22.01697 4.67579,28.25195 5.26075,8.37828 14.22308,13.44336 24.93945,13.44336 10.91123,0 20.0688,-4.87023 25.13476,-13.44336 3.70197,-6.23498 4.48047,-10.13153 4.48047,-28.25195 0,-22.01726 -0.77798,-26.88814 -4.28515,-32.34375 -3.31232,-5.06591 -9.74347,-8.96289 -16.75782,-8.96289 -4.28653,0 -7.01308,0.77773 -8.37695,1.75195 l -0.39062,-0.38867 22.60156,-58.25782 z m 69.94336,18.74024 c 5.25853,0 9.49219,4.23365 9.49219,9.49219 v 80.94921 c 0,5.25853 -4.23366,9.49219 -9.49219,9.49219 -5.25853,0 -9.49219,-4.23366 -9.49219,-9.49219 v -80.94921 c 0,-5.25854 4.23366,-9.49219 9.49219,-9.49219 z m -70.13867,55.68945 c 5.0659,0 9.74219,3.89738 9.74219,9.9375 v 25.71875 c 0,6.04012 -4.67629,9.9375 -9.74219,9.9375 -5.0659,0 -9.74219,-3.89738 -9.74219,-9.9375 v -25.71875 c 0,-6.04012 4.67629,-9.9375 9.74219,-9.9375 z" transform="matrix(3.0349198,0,0,3.0349198,-2125.7104,-1839.7056)"/>
    </g>
    <g aria-label="6" id="text19759" style="font-size:31.1478px;line-height:1.3;font-family:'Singapore Road Signs';-inkscape-font-specification:'Singapore Road Signs';text-align:center;text-anchor:middle;stroke-width:0.159861" transform="matrix(1.6550836,0,0,1.6550836,-321.31659,-238.56049)"/>
    <path d="M 377.737 46.797 Q 377.632 46.797 377.632 46.691 L 377.632 34.097 Q 377.632 33.991 377.737 33.991 L 379.539 33.991 Q 379.6 33.991 379.635 34.053 L 383.16 42.042 Q 384.012 40.029 384.874 38.047 Q 385.735 36.065 386.596 34.053 Q 386.623 33.991 386.693 33.991 L 388.495 33.991 Q 388.6 33.991 388.6 34.097 L 388.6 46.691 Q 388.6 46.797 388.495 46.797 L 386.588 46.797 Q 386.482 46.797 386.482 46.691 L 386.482 39.256 Q 385.867 40.688 385.243 42.103 Q 384.619 43.518 384.012 44.942 Q 383.977 44.995 383.916 44.995 L 382.325 44.995 Q 382.263 44.995 382.228 44.942 L 379.75 39.238 L 379.75 46.691 Q 379.75 46.797 379.644 46.797 Z M 390.127 46.788 Q 390.065 46.788 390.039 46.744 Q 390.012 46.7 390.03 46.647 L 394.635 34.044 Q 394.653 33.974 394.723 33.974 L 396.297 33.974 Q 396.323 33.974 396.354 33.996 Q 396.384 34.017 396.393 34.044 L 400.99 46.647 Q 401.008 46.7 400.981 46.744 Q 400.955 46.788 400.902 46.788 L 398.889 46.788 Q 398.819 46.788 398.801 46.718 L 397.852 43.94 L 393.212 43.94 Q 392.966 44.652 392.724 45.333 Q 392.482 46.015 392.236 46.718 Q 392.227 46.744 392.196 46.766 Q 392.166 46.788 392.139 46.788 Z M 397.219 42.051 Q 397.202 41.989 397.171 41.919 Q 397.14 41.849 397.123 41.796 Q 396.973 41.365 396.85 41 Q 396.727 40.636 396.631 40.363 Q 396.569 40.187 396.512 40.02 Q 396.455 39.853 396.402 39.704 Q 396.358 39.563 396.314 39.436 Q 396.27 39.309 396.226 39.185 Q 396.147 38.931 396.064 38.676 Q 395.98 38.421 395.892 38.148 Q 395.848 38.025 395.8 37.876 Q 395.752 37.726 395.699 37.559 Q 395.673 37.472 395.659 37.423 Q 395.646 37.375 395.629 37.327 Q 395.611 37.278 395.589 37.217 Q 395.567 37.155 395.532 37.041 Q 395.435 37.331 395.352 37.577 Q 395.268 37.823 395.198 38.034 Q 395.18 38.087 395.172 38.131 Q 395.163 38.175 395.145 38.219 Q 395.101 38.368 395.053 38.5 Q 395.005 38.632 394.961 38.764 Q 394.917 38.904 394.873 39.036 Q 394.829 39.168 394.785 39.291 Q 394.697 39.555 394.605 39.845 Q 394.512 40.135 394.398 40.451 Q 394.284 40.767 394.161 41.132 Q 394.038 41.497 393.844 42.051 Z M 402.556 46.797 Q 402.451 46.797 402.451 46.691 L 402.451 34.097 Q 402.451 33.991 402.556 33.991 L 404.463 33.991 Q 404.569 33.991 404.569 34.097 L 404.569 46.691 Q 404.569 46.797 404.463 46.797 Z M 411.618 43.562 Q 411.644 43.527 411.688 43.527 Q 411.732 43.527 411.767 43.554 Q 412.461 44.116 413.362 44.455 Q 414.263 44.793 415.265 44.793 Q 416.39 44.793 417.04 44.327 Q 417.656 43.879 417.656 43.141 Q 417.656 41.752 416.1 41.541 L 416.109 41.541 Q 415.889 41.515 415.691 41.488 Q 415.493 41.462 415.296 41.435 Q 415.098 41.409 414.891 41.378 Q 414.685 41.348 414.439 41.312 Q 413.613 41.198 412.967 40.895 Q 412.321 40.592 411.881 40.091 Q 411.442 39.581 411.222 38.979 Q 411.002 38.377 411.002 37.665 Q 411.002 35.995 412.11 34.949 Q 413.226 33.886 415.212 33.886 Q 415.801 33.886 416.359 33.987 Q 416.917 34.088 417.44 34.264 Q 417.963 34.439 418.442 34.681 Q 418.921 34.923 419.361 35.213 Q 419.449 35.274 419.387 35.362 L 418.324 36.935 Q 418.262 37.015 418.183 36.962 Q 417.497 36.531 416.724 36.272 Q 415.951 36.013 415.124 36.013 Q 414.702 36.013 414.342 36.114 Q 413.982 36.215 413.692 36.443 Q 413.12 36.856 413.12 37.7 Q 413.12 38.184 413.507 38.641 Q 413.701 38.851 414.026 38.996 Q 414.351 39.142 414.826 39.212 Q 415.08 39.256 415.423 39.304 Q 415.766 39.352 416.232 39.405 Q 418.034 39.625 418.904 40.732 Q 419.774 41.813 419.774 43.141 Q 419.774 44.916 418.535 45.918 Q 417.286 46.902 415.247 46.902 Q 412.373 46.902 410.361 45.144 Q 410.326 45.118 410.326 45.074 Q 410.326 45.03 410.352 44.995 Z M 423.457 40.398 Q 423.457 41.356 423.484 41.976 Q 423.51 42.596 423.58 42.894 Q 423.651 43.167 423.778 43.435 Q 423.906 43.703 424.064 43.905 Q 424.345 44.274 424.811 44.534 Q 425.277 44.793 425.936 44.793 Q 426.586 44.793 427.052 44.534 Q 427.518 44.274 427.79 43.905 Q 428.159 43.457 428.274 42.894 Q 428.414 42.332 428.414 40.398 Q 428.414 39.44 428.379 38.821 Q 428.344 38.201 428.274 37.911 Q 428.212 37.63 428.089 37.362 Q 427.966 37.094 427.799 36.883 Q 427.667 36.716 427.478 36.558 Q 427.289 36.399 427.052 36.281 Q 426.815 36.162 426.533 36.087 Q 426.252 36.013 425.936 36.013 Q 425.277 36.013 424.811 36.276 Q 424.345 36.54 424.064 36.883 Q 423.897 37.094 423.774 37.362 Q 423.651 37.63 423.58 37.911 Q 423.51 38.21 423.484 38.834 Q 423.457 39.458 423.457 40.398 Z M 430.62 32.339 Q 430.691 32.4 430.752 32.462 Q 431.332 33.068 431.35 34.044 Q 431.385 35.23 430.286 35.977 Q 430.111 36.057 429.926 36.127 Q 429.944 36.162 429.97 36.206 Q 430.295 36.804 430.409 37.454 Q 430.471 37.788 430.502 38.517 Q 430.532 39.247 430.532 40.398 Q 430.532 42.657 430.409 43.351 Q 430.348 43.694 430.238 44.002 Q 430.128 44.309 429.979 44.591 Q 429.513 45.434 428.476 46.173 Q 427.439 46.902 425.936 46.902 Q 424.415 46.902 423.378 46.173 Q 422.359 45.452 421.902 44.591 L 421.91 44.591 Q 421.743 44.292 421.629 43.989 Q 421.515 43.685 421.453 43.351 Q 421.401 43.017 421.37 42.284 Q 421.339 41.55 421.339 40.398 Q 421.339 39.247 421.37 38.517 Q 421.401 37.788 421.453 37.454 Q 421.515 37.12 421.629 36.812 Q 421.743 36.505 421.91 36.206 L 421.902 36.206 Q 422.359 35.353 423.378 34.624 Q 424.406 33.886 425.936 33.886 Q 427.448 33.886 428.476 34.624 Q 428.863 34.905 429.17 35.195 Q 430.084 34.861 430.111 34.079 Q 430.102 33.481 429.733 33.226 Z M 432.841 46.797 Q 432.736 46.797 432.736 46.691 L 432.736 34.097 Q 432.736 33.991 432.841 33.991 L 434.652 33.991 Q 434.705 33.991 434.74 34.044 L 440.277 42.763 L 440.277 34.097 Q 440.277 33.991 440.382 33.991 L 442.298 33.991 Q 442.404 33.991 442.404 34.097 L 442.404 46.691 Q 442.404 46.797 442.298 46.797 L 440.497 46.797 Q 440.444 46.797 440.409 46.744 L 434.854 38.025 L 434.854 46.691 Q 434.854 46.797 434.757 46.797 Z" transform="matrix(1.310387, 0, 0, 1.310387, -59.698296, -1.169035)" style="fill: rgb(255, 255, 255);"/>
    <path transform="matrix(1.310387, 0, 0, 1.310387, -59.698296, -1.169035)" style="fill: rgb(255, 255, 255);"/>
    <path d="M 369.817 68.815 Q 369.782 68.788 369.777 68.744 Q 369.773 68.701 369.799 68.665 L 370.933 67.365 Q 371.003 67.285 371.074 67.356 L 372.418 68.41 Q 372.489 68.068 372.52 67.47 Q 372.55 66.872 372.55 65.958 Q 372.55 65 372.515 64.381 Q 372.48 63.761 372.41 63.471 Q 372.339 63.19 372.216 62.922 Q 372.093 62.654 371.935 62.443 Q 371.803 62.276 371.614 62.118 Q 371.425 61.959 371.188 61.841 Q 370.951 61.722 370.669 61.647 Q 370.388 61.573 370.063 61.573 Q 369.413 61.573 368.942 61.836 Q 368.472 62.1 368.2 62.443 Q 368.024 62.654 367.905 62.922 Q 367.787 63.19 367.716 63.471 Q 367.585 64.069 367.585 65.958 Q 367.585 67.866 367.716 68.454 Q 367.787 68.727 367.91 68.995 Q 368.033 69.263 368.2 69.465 Q 368.472 69.834 368.942 70.094 Q 369.413 70.353 370.063 70.353 Q 370.775 70.353 371.311 70.001 Z M 374.712 72.612 Q 374.686 72.638 374.642 72.638 Q 374.598 72.638 374.563 72.612 L 373.043 71.408 Q 372.471 71.873 371.724 72.168 Q 370.977 72.462 370.063 72.462 Q 368.551 72.462 367.505 71.733 Q 366.503 71.012 366.029 70.151 L 366.038 70.151 Q 365.879 69.852 365.765 69.549 Q 365.651 69.245 365.589 68.911 Q 365.466 68.217 365.466 65.958 Q 365.466 64.807 365.497 64.077 Q 365.528 63.348 365.589 63.014 Q 365.651 62.68 365.765 62.372 Q 365.879 62.065 366.038 61.766 L 366.029 61.766 Q 366.257 61.344 366.626 60.949 Q 366.996 60.553 367.505 60.184 Q 368.543 59.446 370.063 59.446 Q 371.584 59.446 372.612 60.184 Q 373.631 60.931 374.106 61.766 Q 374.255 62.056 374.37 62.368 Q 374.484 62.68 374.545 63.014 Q 374.607 63.348 374.638 64.077 Q 374.668 64.807 374.668 65.958 Q 374.668 68.015 374.563 68.727 Q 374.519 69.061 374.436 69.347 Q 374.352 69.632 374.229 69.878 Q 374.625 70.186 375.029 70.515 Q 375.433 70.845 375.829 71.153 Q 375.864 71.179 375.873 71.223 Q 375.881 71.267 375.846 71.302 Z M 376.986 59.657 Q 376.986 59.551 377.092 59.551 L 379.008 59.551 Q 379.104 59.551 379.104 59.657 L 379.104 67.778 Q 379.104 69.043 379.807 69.694 Q 380.519 70.353 381.574 70.353 Q 382.611 70.353 383.323 69.694 Q 384.035 69.035 384.035 67.778 L 384.035 59.657 Q 384.035 59.551 384.14 59.551 L 386.048 59.551 Q 386.153 59.551 386.153 59.657 L 386.153 67.989 Q 386.153 70.01 384.808 71.241 Q 383.481 72.462 381.574 72.462 Q 379.658 72.462 378.322 71.241 Q 376.986 70.01 376.986 67.989 Z M 389.73 58.417 Q 389.651 58.417 389.629 58.351 Q 389.607 58.285 389.668 58.242 L 392.252 56.194 L 393.43 56.194 L 396.049 58.242 Q 396.111 58.285 396.089 58.351 Q 396.067 58.417 395.997 58.417 L 394.511 58.417 L 392.762 57.477 Q 392.375 57.714 391.98 57.952 Q 391.584 58.189 391.198 58.417 Z M 388.174 65.853 Q 388.174 64.702 388.205 63.972 Q 388.236 63.243 388.289 62.909 Q 388.35 62.575 388.464 62.267 Q 388.579 61.959 388.746 61.66 L 388.737 61.66 Q 389.194 60.808 390.213 60.078 Q 391.242 59.34 392.771 59.34 Q 394.283 59.34 395.311 60.078 Q 396.348 60.826 396.805 61.66 Q 397.13 62.258 397.245 62.909 Q 397.306 63.243 397.337 63.972 Q 397.368 64.702 397.368 65.853 Q 397.368 68.112 397.245 68.806 Q 397.183 69.149 397.073 69.456 Q 396.963 69.764 396.814 70.045 Q 396.348 70.889 395.311 71.627 Q 394.274 72.357 392.771 72.357 Q 391.25 72.357 390.213 71.627 Q 389.194 70.907 388.737 70.045 L 388.746 70.045 Q 388.579 69.746 388.464 69.443 Q 388.35 69.14 388.289 68.806 Q 388.236 68.472 388.205 67.738 Q 388.174 67.004 388.174 65.853 Z M 390.292 65.853 Q 390.292 66.811 390.319 67.431 Q 390.345 68.05 390.416 68.349 Q 390.486 68.621 390.613 68.89 Q 390.741 69.158 390.899 69.36 Q 391.18 69.729 391.646 69.988 Q 392.112 70.247 392.771 70.247 Q 393.421 70.247 393.887 69.988 Q 394.353 69.729 394.625 69.36 Q 394.995 68.911 395.109 68.349 Q 395.25 67.786 395.25 65.853 Q 395.25 64.895 395.214 64.275 Q 395.179 63.656 395.109 63.366 Q 395.047 63.084 394.924 62.816 Q 394.801 62.548 394.634 62.337 Q 394.502 62.17 394.313 62.012 Q 394.125 61.854 393.887 61.735 Q 393.65 61.617 393.369 61.542 Q 393.087 61.467 392.771 61.467 Q 392.112 61.467 391.646 61.731 Q 391.18 61.994 390.899 62.337 Q 390.732 62.548 390.609 62.816 Q 390.486 63.084 390.416 63.366 Q 390.345 63.664 390.319 64.288 Q 390.292 64.912 390.292 65.853 Z M 394.538 56.932 Q 394.467 56.932 394.445 56.884 Q 394.423 56.835 394.45 56.774 L 396.287 54.207 Q 396.322 54.155 396.375 54.155 L 398.308 54.155 Q 398.378 54.155 398.409 54.216 Q 398.44 54.278 398.387 54.33 L 395.961 56.897 Q 395.953 56.906 395.926 56.919 Q 395.9 56.932 395.882 56.932 Z M 408.126 68.63 Q 408.179 68.63 408.214 68.67 Q 408.249 68.709 408.231 68.762 Q 407.862 70.555 406.597 71.522 Q 405.981 71.988 405.261 72.225 Q 404.54 72.462 403.705 72.462 Q 402.184 72.462 401.147 71.733 Q 400.128 71.012 399.671 70.151 Q 399.513 69.852 399.398 69.549 Q 399.284 69.245 399.223 68.911 Q 399.108 68.261 399.108 65.958 Q 399.108 64.807 399.135 64.077 Q 399.161 63.348 399.223 63.014 Q 399.284 62.68 399.398 62.372 Q 399.513 62.065 399.671 61.766 Q 400.128 60.913 401.147 60.184 Q 402.176 59.446 403.705 59.446 Q 405.533 59.446 406.728 60.571 Q 407.941 61.704 408.231 63.26 Q 408.249 63.313 408.214 63.348 Q 408.179 63.383 408.126 63.383 L 406.113 63.383 Q 406.034 63.383 406.016 63.313 Q 405.902 62.961 405.691 62.658 Q 405.48 62.355 405.173 62.091 Q 404.593 61.573 403.705 61.573 Q 403.046 61.573 402.58 61.836 Q 402.114 62.1 401.833 62.443 Q 401.666 62.654 401.543 62.922 Q 401.42 63.19 401.349 63.471 Q 401.279 63.77 401.253 64.394 Q 401.226 65.018 401.226 65.958 Q 401.226 66.916 401.253 67.536 Q 401.279 68.156 401.349 68.454 Q 401.42 68.727 401.547 68.995 Q 401.675 69.263 401.833 69.465 Q 402.114 69.834 402.58 70.094 Q 403.046 70.353 403.705 70.353 Q 405.225 70.353 406.016 68.692 Q 406.034 68.674 406.06 68.652 Q 406.087 68.63 406.113 68.63 Z M 413.953 72.357 Q 413.848 72.357 413.848 72.251 L 413.848 59.657 Q 413.848 59.551 413.953 59.551 L 415.861 59.551 Q 415.966 59.551 415.966 59.657 L 415.966 70.353 L 422.004 70.353 Q 422.11 70.353 422.11 70.458 L 422.11 72.251 Q 422.11 72.357 422.004 72.357 Z M 425.027 58.417 Q 424.948 58.417 424.926 58.351 Q 424.904 58.285 424.966 58.242 L 427.55 56.194 L 428.728 56.194 L 431.347 58.242 Q 431.408 58.285 431.386 58.351 Q 431.364 58.417 431.294 58.417 L 429.809 58.417 L 428.06 57.477 Q 427.673 57.714 427.277 57.952 Q 426.882 58.189 426.495 58.417 Z M 423.472 65.853 Q 423.472 64.702 423.502 63.972 Q 423.533 63.243 423.586 62.909 Q 423.647 62.575 423.762 62.267 Q 423.876 61.959 424.043 61.66 L 424.034 61.66 Q 424.491 60.808 425.511 60.078 Q 426.539 59.34 428.068 59.34 Q 429.58 59.34 430.608 60.078 Q 431.645 60.826 432.103 61.66 Q 432.428 62.258 432.542 62.909 Q 432.603 63.243 432.634 63.972 Q 432.665 64.702 432.665 65.853 Q 432.665 68.112 432.542 68.806 Q 432.48 69.149 432.371 69.456 Q 432.261 69.764 432.111 70.045 Q 431.645 70.889 430.608 71.627 Q 429.571 72.357 428.068 72.357 Q 426.548 72.357 425.511 71.627 Q 424.491 70.907 424.034 70.045 L 424.043 70.045 Q 423.876 69.746 423.762 69.443 Q 423.647 69.14 423.586 68.806 Q 423.533 68.472 423.502 67.738 Q 423.472 67.004 423.472 65.853 Z M 425.59 65.853 Q 425.59 66.811 425.616 67.431 Q 425.643 68.05 425.713 68.349 Q 425.783 68.621 425.911 68.89 Q 426.038 69.158 426.196 69.36 Q 426.478 69.729 426.943 69.988 Q 427.409 70.247 428.068 70.247 Q 428.719 70.247 429.185 69.988 Q 429.65 69.729 429.923 69.36 Q 430.292 68.911 430.406 68.349 Q 430.547 67.786 430.547 65.853 Q 430.547 64.895 430.512 64.275 Q 430.477 63.656 430.406 63.366 Q 430.345 63.084 430.222 62.816 Q 430.099 62.548 429.932 62.337 Q 429.8 62.17 429.611 62.012 Q 429.422 61.854 429.185 61.735 Q 428.947 61.617 428.666 61.542 Q 428.385 61.467 428.068 61.467 Q 427.409 61.467 426.943 61.731 Q 426.478 61.994 426.196 62.337 Q 426.029 62.548 425.906 62.816 Q 425.783 63.084 425.713 63.366 Q 425.643 63.664 425.616 64.288 Q 425.59 64.912 425.59 65.853 Z M 427.181 75.82 Q 427.084 75.82 427.084 75.723 L 427.084 74.027 Q 427.084 73.93 427.181 73.93 L 428.886 73.93 Q 428.974 73.93 428.974 74.027 L 428.974 75.723 Q 428.974 75.82 428.886 75.82 Z M 438.133 70.502 Q 438.027 70.502 438.027 70.397 L 438.027 68.683 L 442.229 59.701 Q 442.246 59.683 442.273 59.661 Q 442.299 59.639 442.325 59.639 L 444.329 59.639 Q 444.382 59.639 444.413 59.683 Q 444.443 59.727 444.417 59.788 L 440.251 68.604 L 443.248 68.604 L 443.248 65.097 Q 443.248 65 443.354 65 L 445.147 65 Q 445.252 65 445.252 65.097 L 445.252 68.604 L 446.157 68.604 Q 446.254 68.604 446.254 68.709 L 446.254 70.397 Q 446.254 70.502 446.157 70.502 L 445.252 70.502 L 445.252 72.251 Q 445.252 72.357 445.147 72.357 L 443.354 72.357 Q 443.248 72.357 443.248 72.251 L 443.248 70.502 Z M 447.439 66.609 Q 447.343 66.609 447.343 66.512 L 447.343 59.744 Q 447.343 59.639 447.439 59.639 L 454.101 59.639 Q 454.207 59.639 454.207 59.744 L 454.207 61.537 Q 454.207 61.643 454.101 61.643 L 449.232 61.643 L 449.232 64.165 Q 450.085 63.568 451.131 63.568 Q 451.5 63.568 451.838 63.642 Q 452.177 63.717 452.475 63.858 Q 452.766 63.998 453.016 64.17 Q 453.267 64.341 453.442 64.526 Q 453.697 64.807 453.891 65.128 Q 454.084 65.449 454.207 65.783 Q 454.462 66.468 454.462 68.024 Q 454.462 68.657 454.413 69.131 Q 454.365 69.606 454.26 69.931 L 454.268 69.922 Q 454.084 70.529 453.662 71.082 Q 453.249 71.592 452.555 72.023 Q 451.825 72.462 450.867 72.462 Q 449.628 72.462 448.476 71.698 Q 447.299 70.907 447.105 69.122 Q 447.097 69.078 447.132 69.043 Q 447.167 69.008 447.211 69.008 L 449.004 69.008 Q 449.092 69.008 449.109 69.087 Q 449.417 70.467 450.797 70.467 Q 452.045 70.467 452.229 69.641 Q 452.458 68.727 452.458 67.883 Q 452.458 67.382 452.37 66.956 Q 452.282 66.53 452.115 66.196 Q 451.799 65.572 450.744 65.572 Q 449.777 65.572 449.224 66.556 Q 449.188 66.609 449.136 66.609 Z" transform="matrix(1.310387, 0, 0, 1.310387, -59.698296, -1.169035)" style="fill: rgb(255, 255, 255);"/>
    <path d="M 426.152 119.118 Q 426.045 119.118 426.045 119.011 L 426.045 106.277 Q 426.045 106.17 426.152 106.17 L 434.292 106.17 Q 434.399 106.17 434.399 106.277 L 434.399 108.107 Q 434.399 108.214 434.292 108.214 L 428.187 108.214 L 428.187 111.626 L 433.377 111.626 Q 433.484 111.626 433.484 111.733 L 433.484 113.457 Q 433.484 113.555 433.377 113.555 L 428.187 113.555 L 428.187 117.092 L 434.292 117.092 Q 434.399 117.092 434.399 117.198 L 434.399 119.011 Q 434.399 119.118 434.292 119.118 Z M 442.572 119.118 Q 442.519 119.118 442.483 119.065 L 439.781 114.479 Q 439.106 115.634 438.431 116.772 Q 437.755 117.909 437.08 119.065 Q 437.044 119.118 436.991 119.118 L 434.814 119.118 Q 434.743 119.118 434.716 119.069 Q 434.689 119.02 434.725 118.958 L 438.591 112.48 Q 437.675 110.933 436.778 109.405 Q 435.88 107.876 434.974 106.33 Q 434.938 106.268 434.965 106.219 Q 434.992 106.17 435.054 106.17 L 437.24 106.17 Q 437.293 106.17 437.329 106.223 L 439.781 110.489 Q 440.395 109.422 441.008 108.361 Q 441.621 107.299 442.234 106.223 Q 442.27 106.17 442.323 106.17 L 444.509 106.17 Q 444.571 106.17 444.598 106.219 Q 444.625 106.268 444.589 106.33 L 440.972 112.48 Q 441.95 114.106 442.91 115.719 Q 443.869 117.332 444.847 118.958 Q 444.882 119.02 444.856 119.069 Q 444.829 119.118 444.758 119.118 Z M 448.149 108.214 L 448.149 112.106 L 450.913 112.106 Q 451.935 112.106 452.433 111.493 Q 452.939 110.898 452.939 110.16 Q 452.939 109.058 452.157 108.552 Q 451.65 108.214 450.842 108.214 Z M 446.114 119.118 Q 446.007 119.118 446.007 119.011 L 446.007 106.277 Q 446.007 106.17 446.114 106.17 L 450.735 106.17 Q 451.499 106.17 452.184 106.33 Q 452.877 106.49 453.659 107.094 Q 453.961 107.334 454.214 107.65 Q 454.468 107.965 454.672 108.347 Q 454.867 108.738 454.974 109.209 Q 455.081 109.68 455.081 110.213 Q 455.081 111.609 454.032 112.879 Q 452.983 114.141 450.984 114.141 L 448.149 114.141 L 448.149 119.011 Q 448.149 119.118 448.042 119.118 Z M 458.768 108.098 L 458.768 111.751 L 461.585 111.751 Q 462.616 111.751 463.131 111.182 Q 463.647 110.613 463.647 109.831 Q 463.647 109.387 463.491 109.04 Q 463.336 108.694 463.042 108.472 Q 462.785 108.294 462.442 108.196 Q 462.1 108.098 461.7 108.098 Z M 456.733 119.118 Q 456.626 119.118 456.626 119.011 L 456.626 106.277 Q 456.626 106.17 456.733 106.17 L 461.718 106.17 Q 462.545 106.17 463.211 106.397 Q 463.878 106.623 464.375 107.041 Q 464.633 107.281 464.869 107.587 Q 465.104 107.894 465.286 108.249 Q 465.468 108.605 465.575 109.005 Q 465.682 109.405 465.682 109.831 Q 465.682 110.462 465.504 111.027 Q 465.326 111.591 465.006 112.08 Q 464.677 112.533 464.242 112.875 Q 463.807 113.217 463.256 113.422 Q 463.975 114.799 464.704 116.19 Q 465.433 117.58 466.153 118.958 Q 466.179 119.02 466.153 119.069 Q 466.126 119.118 466.064 119.118 L 463.771 119.118 Q 463.744 119.118 463.718 119.096 Q 463.691 119.073 463.673 119.056 L 461.069 113.679 L 458.768 113.679 L 458.768 119.011 Q 458.768 119.118 458.661 119.118 Z M 467.66 119.118 Q 467.554 119.118 467.554 119.011 L 467.554 106.277 Q 467.554 106.17 467.66 106.17 L 475.801 106.17 Q 475.907 106.17 475.907 106.277 L 475.907 108.107 Q 475.907 108.214 475.801 108.214 L 469.695 108.214 L 469.695 111.626 L 474.885 111.626 Q 474.992 111.626 474.992 111.733 L 474.992 113.457 Q 474.992 113.555 474.885 113.555 L 469.695 113.555 L 469.695 117.092 L 475.801 117.092 Q 475.907 117.092 475.907 117.198 L 475.907 119.011 Q 475.907 119.118 475.801 119.118 Z M 477.682 115.848 Q 477.708 115.812 477.753 115.812 Q 477.797 115.812 477.833 115.839 Q 478.535 116.407 479.446 116.75 Q 480.357 117.092 481.37 117.092 Q 482.507 117.092 483.165 116.621 Q 483.787 116.168 483.787 115.421 Q 483.787 114.017 482.214 113.804 L 482.223 113.804 Q 482.001 113.777 481.801 113.75 Q 481.601 113.724 481.401 113.697 Q 481.201 113.67 480.992 113.639 Q 480.783 113.608 480.534 113.573 Q 479.699 113.457 479.046 113.15 Q 478.393 112.844 477.948 112.337 Q 477.504 111.822 477.282 111.213 Q 477.06 110.604 477.06 109.885 Q 477.06 108.196 478.179 107.139 Q 479.308 106.063 481.316 106.063 Q 481.912 106.063 482.476 106.166 Q 483.04 106.268 483.569 106.445 Q 484.098 106.623 484.582 106.868 Q 485.067 107.112 485.511 107.405 Q 485.6 107.467 485.538 107.556 L 484.462 109.147 Q 484.4 109.227 484.32 109.174 Q 483.627 108.738 482.845 108.476 Q 482.063 108.214 481.228 108.214 Q 480.801 108.214 480.437 108.316 Q 480.072 108.418 479.779 108.649 Q 479.201 109.067 479.201 109.92 Q 479.201 110.409 479.592 110.871 Q 479.788 111.084 480.117 111.231 Q 480.445 111.378 480.925 111.449 Q 481.183 111.493 481.53 111.542 Q 481.876 111.591 482.347 111.644 Q 484.169 111.866 485.049 112.986 Q 485.929 114.079 485.929 115.421 Q 485.929 117.216 484.676 118.229 Q 483.414 119.225 481.352 119.225 Q 478.446 119.225 476.411 117.447 Q 476.375 117.421 476.375 117.376 Q 476.375 117.332 476.402 117.296 Z M 487.952 115.848 Q 487.978 115.812 488.023 115.812 Q 488.067 115.812 488.103 115.839 Q 488.805 116.407 489.716 116.75 Q 490.627 117.092 491.64 117.092 Q 492.777 117.092 493.435 116.621 Q 494.057 116.168 494.057 115.421 Q 494.057 114.017 492.484 113.804 L 492.493 113.804 Q 492.271 113.777 492.071 113.75 Q 491.871 113.724 491.671 113.697 Q 491.471 113.67 491.262 113.639 Q 491.053 113.608 490.804 113.573 Q 489.969 113.457 489.316 113.15 Q 488.663 112.844 488.218 112.337 Q 487.774 111.822 487.552 111.213 Q 487.33 110.604 487.33 109.885 Q 487.33 108.196 488.449 107.139 Q 489.578 106.063 491.586 106.063 Q 492.182 106.063 492.746 106.166 Q 493.311 106.268 493.839 106.445 Q 494.368 106.623 494.852 106.868 Q 495.337 107.112 495.781 107.405 Q 495.87 107.467 495.808 107.556 L 494.732 109.147 Q 494.67 109.227 494.59 109.174 Q 493.897 108.738 493.115 108.476 Q 492.333 108.214 491.498 108.214 Q 491.071 108.214 490.707 108.316 Q 490.342 108.418 490.049 108.649 Q 489.471 109.067 489.471 109.92 Q 489.471 110.409 489.862 110.871 Q 490.058 111.084 490.387 111.231 Q 490.716 111.378 491.195 111.449 Q 491.453 111.493 491.8 111.542 Q 492.146 111.591 492.617 111.644 Q 494.439 111.866 495.319 112.986 Q 496.199 114.079 496.199 115.421 Q 496.199 117.216 494.946 118.229 Q 493.684 119.225 491.622 119.225 Q 488.716 119.225 486.681 117.447 Q 486.645 117.421 486.645 117.376 Q 486.645 117.332 486.672 117.296 Z M 500.204 119.118 Q 500.115 119.118 500.097 119.038 L 496.907 106.303 Q 496.889 106.25 496.924 106.21 Q 496.96 106.17 497.013 106.17 L 499.057 106.17 Q 499.146 106.17 499.164 106.25 L 501.083 114.95 Q 501.67 112.764 502.265 110.604 Q 502.861 108.445 503.456 106.25 Q 503.474 106.17 503.563 106.17 L 504.958 106.17 Q 505.038 106.17 505.056 106.25 L 507.437 114.95 Q 507.917 112.764 508.397 110.604 Q 508.877 108.445 509.357 106.25 Q 509.375 106.17 509.464 106.17 L 511.508 106.17 Q 511.561 106.17 511.596 106.21 Q 511.632 106.25 511.614 106.303 L 508.424 119.038 Q 508.406 119.118 508.317 119.118 L 506.709 119.118 Q 506.629 119.118 506.611 119.038 L 504.256 110.196 Q 503.669 112.426 503.083 114.621 Q 502.496 116.816 501.91 119.038 Q 501.892 119.118 501.812 119.118 Z M 511.528 119.109 Q 511.466 119.109 511.439 119.065 Q 511.412 119.02 511.43 118.967 L 516.087 106.223 Q 516.104 106.152 516.175 106.152 L 517.766 106.152 Q 517.793 106.152 517.824 106.174 Q 517.855 106.197 517.864 106.223 L 522.512 118.967 Q 522.529 119.02 522.503 119.065 Q 522.476 119.109 522.423 119.109 L 520.388 119.109 Q 520.317 119.109 520.299 119.038 L 519.339 116.23 L 514.647 116.23 Q 514.398 116.95 514.154 117.638 Q 513.909 118.327 513.661 119.038 Q 513.652 119.065 513.621 119.087 Q 513.589 119.109 513.563 119.109 Z M 518.699 114.319 Q 518.682 114.257 518.65 114.186 Q 518.619 114.115 518.602 114.061 Q 518.45 113.626 518.326 113.257 Q 518.202 112.888 518.104 112.613 Q 518.042 112.435 517.984 112.266 Q 517.926 112.097 517.873 111.946 Q 517.828 111.804 517.784 111.675 Q 517.74 111.546 517.695 111.422 Q 517.615 111.164 517.531 110.907 Q 517.446 110.649 517.357 110.373 Q 517.313 110.249 517.264 110.098 Q 517.215 109.947 517.162 109.778 Q 517.135 109.689 517.122 109.64 Q 517.109 109.591 517.091 109.542 Q 517.073 109.494 517.051 109.431 Q 517.029 109.369 516.993 109.254 Q 516.895 109.547 516.811 109.796 Q 516.726 110.045 516.655 110.258 Q 516.638 110.311 516.629 110.356 Q 516.62 110.4 516.602 110.444 Q 516.558 110.596 516.509 110.729 Q 516.46 110.862 516.415 110.995 Q 516.371 111.138 516.327 111.271 Q 516.282 111.404 516.238 111.529 Q 516.149 111.795 516.056 112.089 Q 515.962 112.382 515.847 112.702 Q 515.731 113.022 515.607 113.39 Q 515.482 113.759 515.287 114.319 Z M 525.493 119.118 Q 525.395 119.118 525.395 119.011 L 525.395 113.804 Q 524.435 111.929 523.484 110.062 Q 522.533 108.196 521.582 106.321 Q 521.556 106.259 521.582 106.214 Q 521.609 106.17 521.68 106.17 L 523.706 106.17 Q 523.733 106.17 523.76 106.192 Q 523.786 106.214 523.804 106.232 L 526.417 111.689 Q 527.074 110.311 527.719 108.96 Q 528.363 107.61 529.021 106.232 Q 529.038 106.214 529.065 106.192 Q 529.092 106.17 529.118 106.17 L 531.153 106.17 Q 531.224 106.17 531.251 106.214 Q 531.278 106.259 531.251 106.321 L 527.43 113.804 L 527.43 119.011 Q 527.43 119.118 527.323 119.118 Z" style="fill: rgb(255, 255, 255);"/>
    <path d="M 343.122 84.558 Q 343.194 84.558 343.242 84.612 Q 343.29 84.666 343.266 84.738 Q 342.761 87.189 341.032 88.51 Q 340.191 89.147 339.206 89.471 Q 338.221 89.795 337.08 89.795 Q 335.002 89.795 333.584 88.798 Q 332.191 87.813 331.566 86.636 Q 331.35 86.228 331.194 85.813 Q 331.038 85.399 330.954 84.942 Q 330.798 84.054 330.798 80.906 Q 330.798 79.333 330.834 78.336 Q 330.87 77.339 330.954 76.883 Q 331.038 76.426 331.194 76.006 Q 331.35 75.585 331.566 75.177 Q 332.191 74.012 333.584 73.015 Q 334.99 72.006 337.08 72.006 Q 339.578 72.006 341.212 73.543 Q 342.869 75.093 343.266 77.219 Q 343.29 77.291 343.242 77.339 Q 343.194 77.387 343.122 77.387 L 340.371 77.387 Q 340.263 77.387 340.239 77.291 Q 340.083 76.81 339.794 76.396 Q 339.506 75.982 339.086 75.621 Q 338.293 74.913 337.08 74.913 Q 336.179 74.913 335.542 75.273 Q 334.906 75.633 334.521 76.102 Q 334.293 76.39 334.125 76.756 Q 333.957 77.123 333.861 77.507 Q 333.765 77.916 333.729 78.768 Q 333.693 79.621 333.693 80.906 Q 333.693 82.216 333.729 83.063 Q 333.765 83.909 333.861 84.318 Q 333.957 84.69 334.131 85.057 Q 334.305 85.423 334.521 85.699 Q 334.906 86.204 335.542 86.558 Q 336.179 86.912 337.08 86.912 Q 339.158 86.912 340.239 84.642 Q 340.263 84.618 340.299 84.588 Q 340.335 84.558 340.371 84.558 Z M 348.15 89.651 Q 348.006 89.651 348.006 89.507 L 348.006 74.756 L 343.429 74.756 Q 343.285 74.756 343.285 74.612 L 343.285 72.294 Q 343.285 72.15 343.429 72.15 L 355.465 72.15 Q 355.609 72.15 355.609 72.294 L 355.609 74.612 Q 355.609 74.756 355.465 74.756 L 350.9 74.756 L 350.9 89.507 Q 350.9 89.651 350.756 89.651 Z M 355.978 89.651 Q 355.834 89.651 355.834 89.507 L 355.834 87.068 Q 355.834 86.924 355.978 86.924 L 358.428 86.924 Q 358.56 86.924 358.56 87.068 L 358.56 89.507 Q 358.56 89.651 358.428 89.651 Z M 366.923 77.327 Q 366.923 76.162 366.304 75.507 Q 365.686 74.853 364.653 74.853 Q 363.62 74.853 363.007 75.507 Q 362.395 76.162 362.395 77.327 L 362.395 84.594 Q 362.395 85.771 363.007 86.42 Q 363.62 87.068 364.653 87.068 Q 365.686 87.068 366.304 86.42 Q 366.923 85.771 366.923 84.594 Z M 359.656 77.183 Q 359.656 74.756 361.181 73.447 Q 362.695 72.114 364.653 72.114 Q 365.626 72.114 366.497 72.456 Q 367.367 72.799 368.124 73.447 Q 368.881 74.12 369.271 75.051 Q 369.662 75.982 369.662 77.183 L 369.662 84.738 Q 369.662 87.153 368.124 88.474 Q 366.611 89.795 364.653 89.795 Q 362.695 89.795 361.181 88.474 Q 359.656 87.165 359.656 84.738 Z M 374.694 89.687 Q 374.55 89.687 374.55 89.543 L 374.55 75.273 Q 373.997 75.681 373.445 76.096 Q 372.892 76.51 372.34 76.907 Q 372.256 76.967 372.183 76.925 Q 372.111 76.883 372.111 76.786 L 372.111 74.18 Q 372.111 74.156 372.129 74.12 Q 372.147 74.084 372.171 74.06 L 374.646 72.27 L 377.156 72.27 Q 377.3 72.27 377.3 72.414 L 377.3 89.543 Q 377.3 89.687 377.156 89.687 Z"/>
    <path d="M 395.707 174.374 Q 395.724 172.731 396.272 171.427 Q 396.819 170.124 397.816 169.194 Q 398.762 168.331 399.941 167.858 Q 401.119 167.385 402.414 167.385 Q 405.153 167.385 407.112 169.194 Q 409.088 171.021 409.138 174.391 L 409.138 184.85 Q 409.105 186.46 408.573 187.788 Q 408.042 189.116 407.112 190.029 Q 406.166 190.876 404.979 191.358 Q 403.792 191.839 402.414 191.872 Q 400.04 191.806 398.231 190.411 L 398.231 190.428 Q 397.284 189.697 396.695 188.676 Q 396.106 187.655 395.84 186.327 Q 395.807 186.244 395.865 186.178 Q 395.923 186.111 396.023 186.111 L 399.409 186.111 Q 399.526 186.111 399.592 186.244 Q 400.339 188.104 402.414 188.104 Q 405.353 188.087 405.469 184.667 L 405.469 182.692 Q 404.373 183.024 403.294 183.206 Q 402.215 183.389 401.269 183.356 Q 398.978 183.405 397.301 181.695 L 397.318 181.695 Q 395.674 180.052 395.707 176.566 Z M 399.393 176.532 Q 399.393 179.919 402.414 179.969 Q 405.369 179.919 405.469 176.532 L 405.469 174.59 Q 405.336 171.22 402.414 171.153 Q 399.409 171.236 399.393 174.59 Z M 422.167 174.573 Q 422.167 172.963 421.312 172.058 Q 420.457 171.153 419.03 171.153 Q 417.602 171.153 416.755 172.058 Q 415.909 172.963 415.909 174.573 L 415.909 184.617 Q 415.909 186.244 416.755 187.141 Q 417.602 188.037 419.03 188.037 Q 420.457 188.037 421.312 187.141 Q 422.167 186.244 422.167 184.617 Z M 412.123 174.374 Q 412.123 171.021 414.232 169.211 Q 416.324 167.368 419.03 167.368 Q 420.374 167.368 421.578 167.841 Q 422.782 168.315 423.828 169.211 Q 424.873 170.141 425.413 171.427 Q 425.953 172.714 425.953 174.374 L 425.953 184.817 Q 425.953 188.153 423.828 189.98 Q 421.736 191.806 419.03 191.806 Q 416.324 191.806 414.232 189.98 Q 412.123 188.17 412.123 184.817 Z"/>
    <path d="M 505.004 174.391 Q 505.02 172.731 505.568 171.427 Q 506.116 170.124 507.112 169.194 Q 508.058 168.331 509.237 167.858 Q 510.416 167.385 511.711 167.385 Q 514.068 167.385 515.977 168.796 Q 517.77 170.224 518.318 172.913 Q 518.351 173.013 518.285 173.079 Q 518.218 173.146 518.119 173.146 L 514.715 173.146 Q 514.583 173.146 514.533 173.029 Q 513.786 171.203 511.694 171.153 Q 508.689 171.236 508.689 174.607 L 508.689 176.566 Q 509.768 176.25 510.839 176.068 Q 511.91 175.885 512.873 175.902 Q 515.197 175.902 516.857 177.528 Q 518.451 179.205 518.434 182.692 L 518.434 184.85 Q 518.384 188.253 516.409 190.029 Q 514.549 191.789 511.711 191.872 Q 508.955 191.789 507.112 190.046 Q 505.02 188.22 505.004 184.866 Z M 508.689 184.667 Q 508.706 188.07 511.711 188.104 Q 514.649 188.087 514.765 184.667 L 514.765 182.725 Q 514.632 179.355 511.711 179.288 Q 508.706 179.371 508.689 182.725 Z M 531.131 174.573 Q 531.131 172.963 530.276 172.058 Q 529.421 171.153 527.993 171.153 Q 526.566 171.153 525.719 172.058 Q 524.872 172.963 524.872 174.573 L 524.872 184.617 Q 524.872 186.244 525.719 187.141 Q 526.566 188.037 527.993 188.037 Q 529.421 188.037 530.276 187.141 Q 531.131 186.244 531.131 184.617 Z M 521.087 174.374 Q 521.087 171.021 523.196 169.211 Q 525.287 167.368 527.993 167.368 Q 529.338 167.368 530.542 167.841 Q 531.745 168.315 532.791 169.211 Q 533.837 170.141 534.377 171.427 Q 534.916 172.714 534.916 174.374 L 534.916 184.817 Q 534.916 188.153 532.791 189.98 Q 530.699 191.806 527.993 191.806 Q 525.287 191.806 523.196 189.98 Q 521.087 188.17 521.087 184.817 Z" style="fill: rgb(255, 255, 255);"/>
  </g>
</svg>