<?xml version="1.0" encoding="UTF-8"?>
<!DOCTYPE svg PUBLIC "-//W3C//DTD SVG 1.1//EN" "http://www.w3.org/Graphics/SVG/1.1/DTD/svg11.dtd">
<svg xmlns="http://www.w3.org/2000/svg" version="1.1" width="2560px" height="1197px" style="shape-rendering:geometricPrecision; text-rendering:geometricPrecision; image-rendering:optimizeQuality; fill-rule:evenodd; clip-rule:evenodd" xmlns:xlink="http://www.w3.org/1999/xlink">
<g><path style="opacity:0.993" fill="#000000" d="M 51.5,-0.5 C 870.167,-0.5 1688.83,-0.5 2507.5,-0.5C 2535.17,6.5 2552.5,23.8333 2559.5,51.5C 2559.5,415.5 2559.5,779.5 2559.5,1143.5C 2551.14,1175.53 2530.47,1193.19 2497.5,1196.5C 1685.5,1196.5 873.5,1196.5 61.5,1196.5C 28.5344,1193.2 7.8677,1175.53 -0.5,1143.5C -0.5,779.5 -0.5,415.5 -0.5,51.5C 6.5,23.8333 23.8333,6.5 51.5,-0.5 Z"/></g>
<g><path style="opacity:1" fill="#fefefe" d="M 56.5,41.5 C 872.554,41.0008 1688.55,41.5008 2504.5,43C 2510.39,45.8924 2514.56,50.3924 2517,56.5C 2518,417.888 2517.66,779.221 2516,1140.5C 2513.01,1146.82 2508.18,1150.99 2501.5,1153C 1686.5,1153.67 871.5,1153.67 56.5,1153C 49.2417,1150.08 44.4084,1144.91 42,1137.5C 41.3333,777.167 41.3333,416.833 42,56.5C 45.0214,49.6468 49.8548,44.6468 56.5,41.5 Z"/></g>
<g><path style="opacity:1" fill="#000000" d="M 275.5,249.5 C 311.566,247.879 345.566,255.379 377.5,272C 444.257,315.971 482.757,377.804 493,457.5C 497.739,538.445 498.739,619.445 496,700.5C 496.132,735.92 492.465,770.92 485,805.5C 482.799,813.271 480.299,820.938 477.5,828.5C 477.608,829.442 477.941,830.275 478.5,831C 502.97,853.802 527.137,876.969 551,900.5C 553,903.167 553,905.833 551,908.5C 533.622,932.755 516.122,956.922 498.5,981C 496.833,981.667 495.167,981.667 493.5,981C 473.833,962 454.167,943 434.5,924C 430.655,920.82 426.822,917.653 423,914.5C 361.945,972.112 291.778,986.612 212.5,958C 184.182,944.58 160.015,925.746 140,901.5C 104.591,858.307 84.924,808.64 81,752.5C 76.3465,658.166 76.3465,563.833 81,469.5C 87.1915,386.919 124.025,322.085 191.5,275C 217.635,259.972 245.635,251.472 275.5,249.5 Z"/></g>
<g><path style="opacity:1" fill="#000000" d="M 1800.5,252.5 C 1837.07,249.972 1870.07,259.472 1899.5,281C 1938.74,310.633 1962.91,349.799 1972,398.5C 1974.81,413.035 1976.47,427.701 1977,442.5C 1977.67,555.167 1977.67,667.833 1977,780.5C 1976.28,821.393 1965.61,859.393 1945,894.5C 1924.38,925.453 1896.88,947.953 1862.5,962C 1810.75,978.382 1763.75,969.715 1721.5,936C 1686.78,906.904 1665.44,869.904 1657.5,825C 1655.05,810.914 1653.22,796.747 1652,782.5C 1651.33,669.5 1651.33,556.5 1652,443.5C 1652.87,402.321 1663.54,363.988 1684,328.5C 1706.26,294.794 1736.43,271.294 1774.5,258C 1783.19,255.613 1791.86,253.78 1800.5,252.5 Z"/></g>
<g><path style="opacity:1" fill="#000000" d="M 2233.5,252.5 C 2302.98,248.335 2359.14,273.335 2402,327.5C 2433.7,368.413 2453.53,414.58 2461.5,466C 2460.9,467.605 2459.9,468.938 2458.5,470C 2425.83,470.667 2393.17,470.667 2360.5,470C 2350.82,438.004 2333.48,411.004 2308.5,389C 2284.45,371.763 2257.78,366.096 2228.5,372C 2190.87,383.63 2164.7,407.796 2150,444.5C 2141.82,466.079 2137.48,488.412 2137,511.5C 2135,579.833 2135,648.167 2137,716.5C 2137.38,756.976 2150.05,792.976 2175,824.5C 2201.79,853.43 2234.63,863.93 2273.5,856C 2294.8,849.93 2312.63,838.43 2327,821.5C 2340.22,804.398 2350.89,785.731 2359,765.5C 2359.83,764.667 2360.67,763.833 2361.5,763C 2393.5,762.333 2425.5,762.333 2457.5,763C 2458.42,763.374 2459.25,763.874 2460,764.5C 2454.24,821.842 2432.24,871.842 2394,914.5C 2334.51,971.411 2265.01,988.245 2185.5,965C 2157.84,954.844 2133.84,939.178 2113.5,918C 2066.73,869.916 2042.23,812.082 2040,744.5C 2036.74,657.169 2036.74,569.835 2040,482.5C 2044.03,394.574 2082.2,326.074 2154.5,277C 2179.19,263.267 2205.53,255.1 2233.5,252.5 Z"/></g>
<g><path style="opacity:1" fill="#000000" d="M 1378.5,258.5 C 1434.06,254.399 1480.56,272.733 1518,313.5C 1574.7,384.351 1587.7,462.685 1557,548.5C 1546.49,570.182 1532.33,589.182 1514.5,605.5C 1548.24,635.303 1568.74,672.637 1576,717.5C 1585.06,774.404 1577.06,828.738 1552,880.5C 1509.34,954.909 1445.51,985.409 1360.5,972C 1315.69,959.507 1280.85,933.673 1256,894.5C 1238.08,862.815 1227.24,828.815 1223.5,792.5C 1223.33,790.307 1223.99,788.473 1225.5,787C 1254.83,786.333 1284.17,786.333 1313.5,787C 1315.33,787.5 1316.5,788.667 1317,790.5C 1322.89,812.021 1333.39,830.855 1348.5,847C 1371.03,865.44 1396.37,870.44 1424.5,862C 1461.73,845.735 1481.9,817.235 1485,776.5C 1487.57,753.841 1484.91,731.841 1477,710.5C 1462.84,680.177 1439.34,662.011 1406.5,656C 1391.17,655.667 1375.83,655.333 1360.5,655C 1359.87,654.25 1359.37,653.416 1359,652.5C 1358.02,621.081 1358.35,589.748 1360,558.5C 1374.09,557.676 1388.26,557.176 1402.5,557C 1439.4,552.098 1463.57,531.931 1475,496.5C 1483.75,463.334 1479.09,432.334 1461,403.5C 1447.39,384.233 1428.89,372.733 1405.5,369C 1385.47,367.456 1367.8,373.122 1352.5,386C 1333.66,402.509 1322.83,423.342 1320,448.5C 1319.53,449.931 1318.7,451.097 1317.5,452C 1287.83,452.667 1258.17,452.667 1228.5,452C 1227.87,451.25 1227.37,450.416 1227,449.5C 1230.84,378.967 1261.01,322.8 1317.5,281C 1336.25,268.947 1356.58,261.447 1378.5,258.5 Z"/></g>
<g><path style="opacity:1" fill="#000000" d="M 712.5,263.5 C 712.5,462.5 712.5,661.5 712.5,860.5C 804.5,860.5 896.5,860.5 988.5,860.5C 989.458,860.953 990.292,861.619 991,862.5C 991.667,898.167 991.667,933.833 991,969.5C 990.25,970.126 989.416,970.626 988.5,971C 865.5,971.667 742.5,971.667 619.5,971C 619,970.5 618.5,970 618,969.5C 617.333,733.833 617.333,498.167 618,262.5C 618.5,262 619,261.5 619.5,261C 649.833,260.333 680.167,260.333 710.5,261C 711.381,261.708 712.047,262.542 712.5,263.5 Z"/></g>
<g><path style="opacity:1" fill="#fefefe" d="M 1808.5,362.5 C 1844.22,362.385 1868.39,379.052 1881,412.5C 1884.61,422.543 1886.94,432.876 1888,443.5C 1888.67,554.833 1888.67,666.167 1888,777.5C 1886.76,802.242 1877.93,823.742 1861.5,842C 1840.22,860.166 1816.22,864.832 1789.5,856C 1764.15,843.628 1748.98,823.462 1744,795.5C 1742.61,788.22 1741.61,780.886 1741,773.5C 1740.33,665.5 1740.33,557.5 1741,449.5C 1741.87,426.647 1748.87,405.98 1762,387.5C 1774.27,372.95 1789.77,364.616 1808.5,362.5 Z"/></g>
<g><path style="opacity:1" fill="#fefefe" d="M 273.5,367.5 C 319.149,365.237 353.649,383.57 377,422.5C 391.237,450.78 398.57,480.78 399,512.5C 402.316,578.831 402.316,645.165 399,711.5C 398.486,723.64 396.986,735.64 394.5,747.5C 374.348,728.516 354.348,709.349 334.5,690C 332.049,687.16 329.549,686.994 327,689.5C 310.245,713.343 293.245,737.01 276,760.5C 274.578,763.03 274.245,765.697 275,768.5C 298.167,791 321.333,813.5 344.5,836C 323.244,852.315 299.244,858.649 272.5,855C 247.598,850.799 227.098,838.965 211,819.5C 192.874,795.897 181.874,769.231 178,739.5C 174.607,696.573 173.107,653.573 173.5,610.5C 173.093,568.093 174.593,525.76 178,483.5C 181.781,447.442 196.614,416.942 222.5,392C 237.215,378.975 254.215,370.808 273.5,367.5 Z"/></g>
<g><path style="opacity:1" fill="#d1d1d1" d="M 712.5,263.5 C 713.5,461.999 713.833,660.666 713.5,859.5C 805.335,859.167 897.002,859.501 988.5,860.5C 896.5,860.5 804.5,860.5 712.5,860.5C 712.5,661.5 712.5,462.5 712.5,263.5 Z"/></g>
<g><path style="opacity:1" fill="#010101" d="M 1070.5,860.5 C 1098.5,860.333 1126.5,860.5 1154.5,861C 1155,861.5 1155.5,862 1156,862.5C 1156.67,898.167 1156.67,933.833 1156,969.5C 1155.5,970 1155,970.5 1154.5,971C 1126.5,971.667 1098.5,971.667 1070.5,971C 1070,970.5 1069.5,970 1069,969.5C 1068.33,934.167 1068.33,898.833 1069,863.5C 1069.51,862.473 1070.01,861.473 1070.5,860.5 Z"/></g>
</svg>
