<?xml version="1.0" encoding="UTF-8" standalone="no"?>
<svg
   xmlns:dc="http://purl.org/dc/elements/1.1/"
   xmlns:cc="http://creativecommons.org/ns#"
   xmlns:rdf="http://www.w3.org/1999/02/22-rdf-syntax-ns#"
   xmlns:svg="http://www.w3.org/2000/svg"
   xmlns="http://www.w3.org/2000/svg"
   xmlns:sodipodi="http://sodipodi.sourceforge.net/DTD/sodipodi-0.dtd"
   xmlns:inkscape="http://www.inkscape.org/namespaces/inkscape"
   sodipodi:docname="Vietnam_road_sign_IE460a.svg"
   inkscape:version="1.0 (4035a4fb49, 2020-05-01)"
   id="svg6000"
   version="1.1"
   viewBox="0 0 53.871621 96.867887"
   height="96.867889mm"
   width="53.87162mm">
  <defs
     id="defs5994" />
  <sodipodi:namedview
     inkscape:window-maximized="1"
     inkscape:window-y="-9"
     inkscape:window-x="-9"
     inkscape:window-height="1001"
     inkscape:window-width="1920"
     showgrid="false"
     inkscape:document-rotation="0"
     inkscape:current-layer="layer1"
     inkscape:document-units="mm"
     inkscape:cy="653.77954"
     inkscape:cx="340.46456"
     inkscape:zoom="0.48744516"
     inkscape:pageshadow="2"
     inkscape:pageopacity="0.0"
     borderopacity="1.0"
     bordercolor="#666666"
     pagecolor="#ffffff"
     id="base" />
  <metadata
     id="metadata5997">
    <rdf:RDF>
      <cc:Work
         rdf:about="">
        <dc:format>image/svg+xml</dc:format>
        <dc:type
           rdf:resource="http://purl.org/dc/dcmitype/StillImage" />
        <dc:title></dc:title>
      </cc:Work>
    </rdf:RDF>
  </metadata>
  <g
     transform="translate(291.00172,-83.128712)"
     id="layer1"
     inkscape:groupmode="layer"
     inkscape:label="Layer 1">
    <path
       sodipodi:nodetypes="sssssssss"
       id="path7680"
       d="m -284.32777,83.128712 c -3.66141,0 -6.67395,3.01093 -6.67395,6.67247 v 83.522948 c 0,3.66155 3.01254,6.67247 6.67395,6.67247 h 40.52372 c 3.66142,0 6.67395,-3.01092 6.67395,-6.67247 V 89.801182 c 0,-3.66154 -3.01253,-6.67247 -6.67395,-6.67247 z"
       style="color:#000000;font-style:normal;font-variant:normal;font-weight:normal;font-stretch:normal;font-size:medium;line-height:normal;font-family:sans-serif;font-variant-ligatures:normal;font-variant-position:normal;font-variant-caps:normal;font-variant-numeric:normal;font-variant-alternates:normal;font-variant-east-asian:normal;font-feature-settings:normal;font-variation-settings:normal;text-indent:0;text-align:start;text-decoration:none;text-decoration-line:none;text-decoration-style:solid;text-decoration-color:#000000;letter-spacing:normal;word-spacing:normal;text-transform:none;writing-mode:lr-tb;direction:ltr;text-orientation:mixed;dominant-baseline:auto;baseline-shift:baseline;text-anchor:start;white-space:normal;shape-padding:0;shape-margin:0;inline-size:0;clip-rule:nonzero;display:inline;overflow:visible;visibility:visible;opacity:1;isolation:auto;mix-blend-mode:normal;color-interpolation:sRGB;color-interpolation-filters:linearRGB;solid-color:#000000;solid-opacity:1;vector-effect:none;fill:#0a9646;fill-opacity:1;fill-rule:evenodd;stroke:none;stroke-width:0.399034;stroke-linecap:square;stroke-linejoin:miter;stroke-miterlimit:4;stroke-dasharray:none;stroke-dashoffset:0;stroke-opacity:1;paint-order:stroke fill markers;color-rendering:auto;image-rendering:auto;shape-rendering:auto;text-rendering:auto;enable-background:accumulate;stop-color:#000000;stop-opacity:1" />
    <path
       d="m -284.32777,83.558712 c -3.42632,0 -6.24432,2.81578 -6.24432,6.2421 v 83.522958 c 0,3.42632 2.818,6.24322 6.24432,6.24322 h 40.52372 c 3.42633,0 6.24434,-2.8169 6.24432,-6.24322 V 89.800812 c 0,-3.42632 -2.81799,-6.2421 -6.24432,-6.2421 z m 0,1.88664 h 40.52372 c 2.41348,0 4.35658,1.9431 4.35658,4.35658 v 83.521838 c 0,2.41348 -1.9431,4.35658 -4.35658,4.35658 h -40.52372 c -2.41348,0 -4.35658,-1.9431 -4.35658,-4.35658 V 89.801932 c 0,-2.41348 1.9431,-4.35658 4.35658,-4.35658 z"
       style="color:#000000;font-style:normal;font-variant:normal;font-weight:normal;font-stretch:normal;font-size:medium;line-height:normal;font-family:sans-serif;font-variant-ligatures:normal;font-variant-position:normal;font-variant-caps:normal;font-variant-numeric:normal;font-variant-alternates:normal;font-variant-east-asian:normal;font-feature-settings:normal;font-variation-settings:normal;text-indent:0;text-align:start;text-decoration:none;text-decoration-line:none;text-decoration-style:solid;text-decoration-color:#000000;letter-spacing:normal;word-spacing:normal;text-transform:none;writing-mode:lr-tb;direction:ltr;text-orientation:mixed;dominant-baseline:auto;baseline-shift:baseline;text-anchor:start;white-space:normal;shape-padding:0;shape-margin:0;inline-size:0;clip-rule:nonzero;display:inline;overflow:visible;visibility:visible;opacity:1;isolation:auto;mix-blend-mode:normal;color-interpolation:sRGB;color-interpolation-filters:linearRGB;solid-color:#000000;solid-opacity:1;vector-effect:none;fill:#ffffff;fill-opacity:1;fill-rule:evenodd;stroke:none;stroke-width:0.399034;stroke-linecap:square;stroke-linejoin:miter;stroke-miterlimit:4;stroke-dasharray:none;stroke-dashoffset:0;stroke-opacity:1;paint-order:stroke fill markers;color-rendering:auto;image-rendering:auto;shape-rendering:auto;text-rendering:auto;enable-background:accumulate;stop-color:#000000;stop-opacity:1"
       id="path7682" />
    <path
       d="m -266.25327,149.33097 q -0.26027,0 -0.26027,-0.26027 v -3.8824 q 0,-0.26029 0.26027,-0.26029 h 1.51827 q 2.10388,0 3.31849,-1.17122 1.19291,-1.12785 1.19291,-2.97145 0,-1.73515 -1.2363,-2.97145 -1.2363,-1.2363 -3.01484,-1.2363 -1.30136,0 -2.49428,0.88927 -1.19291,0.86757 -1.51824,2.62441 -0.0217,0.0867 -0.10837,0.15179 -0.0651,0.0651 -0.13008,0.0651 h -4.44632 q -0.10837,0 -0.19523,-0.0866 -0.0652,-0.0866 -0.0434,-0.19522 0.2169,-3.31848 2.81961,-5.87784 2.55936,-2.51598 5.94292,-2.51598 2.10386,0 3.79564,0.71575 1.71348,0.71576 3.01484,2.10389 1.23628,1.36642 1.88697,2.97145 0.67238,1.58332 0.67238,3.2751 0,1.8436 -0.71575,3.60044 -0.34705,0.78083 -0.95434,1.47488 -0.60732,0.69407 -1.43151,1.30136 1.73517,1.23631 2.58106,2.97145 0.86756,1.86529 0.86756,3.79565 0,4.40296 -2.79794,7.09244 -2.75455,2.62443 -6.83215,2.62443 -1.62672,0 -3.0799,-0.52054 -1.43151,-0.52056 -2.75455,-1.56165 -1.30139,-1.06277 -2.10389,-2.55935 -0.78081,-1.49657 -1.08446,-3.51368 -0.0434,-0.28196 0.26027,-0.28196 h 4.42463 q 0.15179,0 0.23859,0.17351 0.28197,0.75913 0.65069,1.36643 0.39039,0.60731 0.91095,1.06279 0.52053,0.43378 1.19291,0.67238 0.69407,0.23857 1.60502,0.23857 1.71348,0 3.0799,-1.2363 1.34474,-1.19292 1.34474,-3.40523 0,-2.21234 -1.34474,-3.40526 -1.36642,-1.25797 -3.16665,-1.25797 z m 2.05282,-28.79621 q -0.17416,0 -0.17416,-0.17416 v -14.71921 q 0,-0.17416 0.17416,-0.17416 h 2.96128 q 0.17416,0 0.17416,0.17416 v 1.1758 q 1.39354,-1.50967 3.71609,-1.50967 1.55323,0 2.5258,0.58063 0.43548,0.2613 0.84191,0.58066 0.40646,0.30482 0.76935,0.68224 1.78548,-1.84353 4.65963,-1.84353 1.75646,0 3.42579,1.33547 1.65482,1.35 1.65482,3.93383 v 9.78378 q 0,0.17416 -0.17416,0.17416 h -2.96128 q -0.17416,0 -0.17416,-0.17416 v -8.76765 q 0,-1.43708 -0.76934,-2.20645 -0.78386,-0.78386 -1.95964,-0.78386 -1.21936,0 -2.00322,0.78386 -0.76935,0.76937 -0.76935,2.20645 v 8.76765 q 0,0.17416 -0.15975,0.17416 h -2.96125 q -0.15976,0 -0.15976,-0.17416 v -8.76765 q 0,-1.42257 -0.78388,-2.20645 -0.78386,-0.78386 -1.95966,-0.78386 -1.21934,0 -2.0032,0.78386 -0.75483,0.75484 -0.75483,2.20645 v 8.76765 q 0,0.17416 -0.17415,0.17416 z m -18.72563,0 q -0.15975,0 -0.15975,-0.17416 V 99.559182 q 0,-0.17415 0.15975,-0.17415 h 3.16449 q 0.17415,0 0.17415,0.17415 v 10.335388 q 2.07581,-2.62739 4.1516,-5.21124 2.07578,-2.59837 4.16608,-5.225758 0.0727,-0.0727 0.13073,-0.0727 h 3.74513 q 0.11611,0 0.15976,0.1017 0.0434,0.10169 -0.029,0.18877 l -6.59025,8.114428 q 1.84351,3.14997 3.6435,6.24189 1.81451,3.0919 3.67255,6.24187 0.0434,0.1017 0,0.18878 -0.029,0.0727 -0.14513,0.0727 h -3.74514 q -0.0871,0 -0.14513,-0.0871 l -5.57416,-9.95799 q -0.89998,0.92904 -1.7274,1.8 -0.8274,0.87096 -1.71287,1.79999 v 6.27089 q 0,0.17416 -0.17416,0.17416 z"
       style="font-style:normal;font-variant:normal;font-weight:normal;font-stretch:normal;font-size:58.5625px;line-height:1.3;font-family:'Alte DIN 1451 Mittelschrift gepraegt';-inkscape-font-specification:'Alte DIN 1451 Mittelschrift gepraegt';text-align:center;text-anchor:middle;opacity:1;fill:#ffffff;fill-opacity:1;stroke-width:0.264582"
       id="path7756" />
  </g>
</svg>
