<?xml version="1.0" encoding="UTF-8" standalone="no"?>
<!-- Created with Inkscape (http://www.inkscape.org/) -->

<svg
   xmlns:dc="http://purl.org/dc/elements/1.1/"
   xmlns:cc="http://creativecommons.org/ns#"
   xmlns:rdf="http://www.w3.org/1999/02/22-rdf-syntax-ns#"
   xmlns:svg="http://www.w3.org/2000/svg"
   xmlns="http://www.w3.org/2000/svg"
   xmlns:sodipodi="http://sodipodi.sourceforge.net/DTD/sodipodi-0.dtd"
   xmlns:inkscape="http://www.inkscape.org/namespaces/inkscape"
   width="600mm"
   height="800mm"
   viewBox="0 0 600 800"
   version="1.1"
   id="svg848"
   inkscape:version="0.92.2 (5c3e80d, 2017-08-06)"
   sodipodi:docname="11.svg">
  <defs
     id="defs842" />
  <sodipodi:namedview
     id="base"
     pagecolor="#ffffff"
     bordercolor="#666666"
     borderopacity="1.0"
     inkscape:pageopacity="0.0"
     inkscape:pageshadow="2"
     inkscape:zoom="0.17519833"
     inkscape:cx="1537.5335"
     inkscape:cy="1367.8892"
     inkscape:document-units="mm"
     inkscape:current-layer="layer1"
     showgrid="false"
     inkscape:snap-global="false"
     inkscape:window-width="1920"
     inkscape:window-height="1057"
     inkscape:window-x="-8"
     inkscape:window-y="-8"
     inkscape:window-maximized="1"
     fit-margin-top="0"
     fit-margin-left="0"
     fit-margin-right="0"
     fit-margin-bottom="0"
     showguides="false"
     inkscape:measure-start="0,0"
     inkscape:measure-end="0,0" />
  <metadata
     id="metadata845">
    <rdf:RDF>
      <cc:Work
         rdf:about="">
        <dc:format>image/svg+xml</dc:format>
        <dc:type
           rdf:resource="http://purl.org/dc/dcmitype/StillImage" />
        <dc:title></dc:title>
      </cc:Work>
    </rdf:RDF>
  </metadata>
  <g
     inkscape:label="Layer 1"
     inkscape:groupmode="layer"
     id="layer1"
     transform="translate(-718.04565,1520.5381)">
    <rect
       style="opacity:1;fill:#0046aa;fill-opacity:1;fill-rule:nonzero;stroke:none;stroke-width:2.93670321;stroke-linecap:butt;stroke-linejoin:miter;stroke-miterlimit:10;stroke-dasharray:none;stroke-opacity:1;paint-order:stroke fill markers"
       id="rect1393"
       width="600"
       height="800"
       x="718.04565"
       y="-1520.5381" />
    <rect
       y="-1515.5381"
       x="723.04565"
       height="790"
       width="590"
       id="rect1395"
       style="opacity:1;fill:#ffffff;fill-opacity:1;fill-rule:nonzero;stroke:none;stroke-width:2.89386988;stroke-linecap:butt;stroke-linejoin:miter;stroke-miterlimit:10;stroke-dasharray:none;stroke-opacity:1;paint-order:stroke fill markers" />
    <rect
       y="-1505.5381"
       x="733.04565"
       height="770"
       width="570"
       id="rect1406"
       style="opacity:1;fill:#0046aa;fill-opacity:1;fill-rule:nonzero;stroke:none;stroke-width:2.80816269;stroke-linecap:butt;stroke-linejoin:miter;stroke-miterlimit:10;stroke-dasharray:none;stroke-opacity:1;paint-order:stroke fill markers" />
    <path
       id="path8376"
       style="opacity:1;fill:#d35f5f;fill-opacity:1;fill-rule:nonzero;stroke:none;stroke-width:3.92256045;stroke-linecap:butt;stroke-linejoin:miter;stroke-miterlimit:4;stroke-dasharray:none;stroke-opacity:1;paint-order:stroke fill markers"
       d=""
       inkscape:connector-curvature="0" />
    <rect
       style="opacity:1;fill:#ffffff;fill-opacity:1;fill-rule:nonzero;stroke:none;stroke-width:5.07322454;stroke-linecap:butt;stroke-linejoin:miter;stroke-miterlimit:4;stroke-dasharray:none;stroke-opacity:1;paint-order:stroke fill markers"
       id="rect828"
       width="500"
       height="500"
       x="768.04565"
       y="-1470.538" />
    <g
       transform="matrix(1.0004876,0,0,1.0004876,-290.77787,824.33304)"
       id="g924"
       style="font-style:normal;font-variant:normal;font-weight:bold;font-stretch:normal;font-size:159.07623291px;line-height:0;font-family:Giaothong2;-inkscape-font-specification:'Giaothong2 Bold';letter-spacing:0px;word-spacing:0px;fill:#000000;fill-opacity:1;stroke:none;stroke-width:0.82852203">
      <g
         id="g922"
         style="font-style:normal;font-variant:normal;font-weight:bold;font-stretch:normal;font-size:161.34654236px;line-height:0;font-family:Giaothong2;-inkscape-font-specification:'Giaothong2 Bold';letter-spacing:3.35592604px;word-spacing:0px;fill:#000000;fill-opacity:1;stroke:none;stroke-width:0.69624561" />
    </g>
    <circle
       style="opacity:1;fill:#000000;fill-opacity:1;fill-rule:nonzero;stroke:none;stroke-width:99.30258942;stroke-linecap:butt;stroke-linejoin:miter;stroke-miterlimit:4;stroke-dasharray:none;stroke-opacity:1;paint-order:normal"
       id="path10509-7"
       cx="855.21655"
       cy="-1115.209"
       r="24.671036" />
    <circle
       r="24.671036"
       cy="-1115.209"
       cx="904.55872"
       id="circle10511-3"
       style="opacity:1;fill:#000000;fill-opacity:1;fill-rule:nonzero;stroke:none;stroke-width:99.30258942;stroke-linecap:butt;stroke-linejoin:miter;stroke-miterlimit:4;stroke-dasharray:none;stroke-opacity:1;paint-order:normal" />
    <circle
       r="24.671036"
       cy="-1115.209"
       cx="1131.5321"
       id="circle11521-0"
       style="opacity:1;fill:#000000;fill-opacity:1;fill-rule:nonzero;stroke:none;stroke-width:99.30258942;stroke-linecap:butt;stroke-linejoin:miter;stroke-miterlimit:4;stroke-dasharray:none;stroke-opacity:1;paint-order:normal" />
    <circle
       style="opacity:1;fill:#000000;fill-opacity:1;fill-rule:nonzero;stroke:none;stroke-width:99.30258942;stroke-linecap:butt;stroke-linejoin:miter;stroke-miterlimit:4;stroke-dasharray:none;stroke-opacity:1;paint-order:normal"
       id="circle11523-2"
       cx="1180.8741"
       cy="-1115.209"
       r="24.671036" />
    <path
       style="opacity:1;fill:#000000;fill-opacity:1;fill-rule:nonzero;stroke:none;stroke-width:114.32756042;stroke-linecap:butt;stroke-linejoin:miter;stroke-miterlimit:4;stroke-dasharray:none;stroke-opacity:1;paint-order:normal"
       d="m 1051.4569,-1334.1469 v 21.4286 h 145.0662 c 25.7733,0 46.5225,20.7489 46.5225,46.5226 v 126.3151 H 793.0457 v -126.3151 c 0,-25.7737 20.7491,-46.5226 46.5226,-46.5226 h 145.0658 v -21.4286 z"
       id="rect11525-8"
       inkscape:connector-curvature="0" />
    <path
       style="opacity:1;fill:#ffffff;fill-opacity:1;fill-rule:nonzero;stroke:none;stroke-width:98.96527863;stroke-linecap:butt;stroke-linejoin:miter;stroke-miterlimit:4;stroke-dasharray:none;stroke-opacity:1;paint-order:normal"
       d="m 810.5269,-1258.3012 h 38.9097 v 68.5151 h -38.9097 z"
       id="rect12410-4"
       inkscape:connector-curvature="0"
       sodipodi:nodetypes="ccccc" />
    <path
       sodipodi:nodetypes="ccccc"
       inkscape:connector-curvature="0"
       id="path12413-2"
       d="m 864.3802,-1258.3012 h 38.9097 v 98.1203 h -38.9097 z"
       style="opacity:1;fill:#ffffff;fill-opacity:1;fill-rule:nonzero;stroke:none;stroke-width:98.96527863;stroke-linecap:butt;stroke-linejoin:miter;stroke-miterlimit:4;stroke-dasharray:none;stroke-opacity:1;paint-order:normal" />
    <path
       sodipodi:nodetypes="ccccc"
       inkscape:connector-curvature="0"
       id="path12415-6"
       d="m 918.0926,-1258.3012 h 38.9097 v 68.5151 h -38.9097 z"
       style="opacity:1;fill:#ffffff;fill-opacity:1;fill-rule:nonzero;stroke:none;stroke-width:98.96527863;stroke-linecap:butt;stroke-linejoin:miter;stroke-miterlimit:4;stroke-dasharray:none;stroke-opacity:1;paint-order:normal" />
    <path
       style="opacity:1;fill:#ffffff;fill-opacity:1;fill-rule:nonzero;stroke:none;stroke-width:98.96527863;stroke-linecap:butt;stroke-linejoin:miter;stroke-miterlimit:4;stroke-dasharray:none;stroke-opacity:1;paint-order:normal"
       d="m 971.8049,-1258.3012 h 38.9098 v 68.5151 h -38.9098 z"
       id="path12417-9"
       inkscape:connector-curvature="0"
       sodipodi:nodetypes="ccccc" />
    <path
       style="opacity:1;fill:#ffffff;fill-opacity:1;fill-rule:nonzero;stroke:none;stroke-width:98.96527863;stroke-linecap:butt;stroke-linejoin:miter;stroke-miterlimit:4;stroke-dasharray:none;stroke-opacity:1;paint-order:normal"
       d="m 1025.5173,-1258.3012 h 38.9097 v 68.5151 h -38.9097 z"
       id="path12419-5"
       inkscape:connector-curvature="0"
       sodipodi:nodetypes="ccccc" />
    <path
       sodipodi:nodetypes="ccccc"
       inkscape:connector-curvature="0"
       id="path12421-3"
       d="m 1079.2295,-1258.3012 h 38.91 v 68.5151 h -38.91 z"
       style="opacity:1;fill:#ffffff;fill-opacity:1;fill-rule:nonzero;stroke:none;stroke-width:98.96527863;stroke-linecap:butt;stroke-linejoin:miter;stroke-miterlimit:4;stroke-dasharray:none;stroke-opacity:1;paint-order:normal" />
    <path
       style="opacity:1;fill:#ffffff;fill-opacity:1;fill-rule:nonzero;stroke:none;stroke-width:98.96527863;stroke-linecap:butt;stroke-linejoin:miter;stroke-miterlimit:4;stroke-dasharray:none;stroke-opacity:1;paint-order:normal"
       d="m 1132.9419,-1258.3012 h 38.9099 v 98.1203 h -38.9099 z"
       id="path12423-3"
       inkscape:connector-curvature="0"
       sodipodi:nodetypes="ccccc" />
    <path
       sodipodi:nodetypes="ccccc"
       inkscape:connector-curvature="0"
       id="path12425-8"
       d="m 1186.6544,-1258.3012 h 38.9097 v 68.5151 h -38.9097 z"
       style="opacity:1;fill:#ffffff;fill-opacity:1;fill-rule:nonzero;stroke:none;stroke-width:98.96527863;stroke-linecap:butt;stroke-linejoin:miter;stroke-miterlimit:4;stroke-dasharray:none;stroke-opacity:1;paint-order:normal" />
    <path
       style="opacity:1;fill:#000000;fill-opacity:1;fill-rule:nonzero;stroke:none;stroke-width:98.68414307;stroke-linecap:butt;stroke-linejoin:miter;stroke-miterlimit:4;stroke-dasharray:none;stroke-opacity:1;paint-order:normal"
       d="m 1157.7194,-1364.1859 -112.7259,36.5283 -1.9287,-5.2991 109.8327,-44.4768 8.6693,-9.1562 14.9376,8.0656 -6.2586,15.78 z"
       id="rect13003-6"
       inkscape:connector-curvature="0"
       sodipodi:nodetypes="cccccccc" />
    <g
       style="font-style:normal;font-variant:normal;font-weight:bold;font-stretch:normal;font-size:88.40287781px;line-height:0;font-family:Giaothong1;-inkscape-font-specification:'Giaothong1 Bold';letter-spacing:1.85208333px;word-spacing:7.9375px;fill:#ffffff;fill-opacity:1;stroke:none;stroke-width:0.46043164"
       id="text949"
       transform="translate(-992.23905,548.006)">
      <path
         d="m 1770.1696,-1319.0621 v -51.1079 h -9.8849 v -7.8561 h 28.3597 v 7.8561 h -10.0575 v 51.1079 z"
         style="font-style:normal;font-variant:normal;font-weight:bold;font-stretch:normal;font-family:Giaothong1;-inkscape-font-specification:'Giaothong1 Bold';letter-spacing:1.85208333px;word-spacing:7.9375px;fill:#ffffff;stroke:none;stroke-width:0.46043164"
         id="path955"
         inkscape:connector-curvature="0" />
      <path
         d="m 1796.3059,-1319.0621 v -58.964 h 14.7625 q 5.8274,0 9.7986,4.0575 4.0144,4.0576 4.0144,9.9281 v 5.482 q 0,8.1151 -6.9065,12.4316 l 8.9353,27.0648 h -8.9353 l -7.9856,-25.295 h -5.2662 v 25.295 z m 18.7338,-34.5755 q 0.8201,-0.9497 1.1223,-2.2015 0.3021,-1.2518 0.3021,-2.7194 v -5.482 q 0,-2.7626 -1.5108,-4.4461 -1.5108,-1.6834 -4.2302,-1.6834 h -6 v 18.3885 h 5.9137 q 2.6331,0 4.4029,-1.8561 z"
         style="font-style:normal;font-variant:normal;font-weight:bold;font-stretch:normal;font-family:Giaothong1;-inkscape-font-specification:'Giaothong1 Bold';letter-spacing:1.85208333px;word-spacing:7.9375px;fill:#ffffff;stroke:none;stroke-width:0.46043164"
         id="path957"
         inkscape:connector-curvature="0" />
      <path
         d="m 1827.0968,-1319.0621 13.1655,-58.964 h 7.3381 l 13.1654,58.964 h -9.0215 l -2.3741,-12.6475 h -10.9641 l -2.3741,12.6475 z m 12.8201,-20.5036 h 7.9425 l -3.9712,-21.4964 z"
         style="font-style:normal;font-variant:normal;font-weight:bold;font-stretch:normal;font-family:Giaothong1;-inkscape-font-specification:'Giaothong1 Bold';letter-spacing:1.85208333px;word-spacing:7.9375px;fill:#ffffff;stroke:none;stroke-width:0.46043164"
         id="path959"
         inkscape:connector-curvature="0" />
      <path
         d="m 1896.8913,-1319.0621 v -35.8705 l -8.4173,25.1655 h -4.2302 l -8.3741,-25.1655 v 35.8705 h -8.4172 v -58.964 h 7.8561 l 11.223,31.3813 10.964,-31.3813 h 7.813 v 58.964 z"
         style="font-style:normal;font-variant:normal;font-weight:bold;font-stretch:normal;font-family:Giaothong1;-inkscape-font-specification:'Giaothong1 Bold';letter-spacing:1.85208333px;word-spacing:7.9375px;fill:#ffffff;stroke:none;stroke-width:0.46043164"
         id="path961"
         inkscape:connector-curvature="0" />
      <path
         d="m 1942.2542,-1319.0621 -6.8633,-35.8705 -6.8202,35.8705 h -7.7697 l -8.59,-58.964 h 9.0216 l 4.1439,35.6115 6.8201,-35.6115 h 6.259 l 6.9065,35.6115 4.2302,-35.6115 h 8.9353 l -8.2878,58.964 z"
         style="font-style:normal;font-variant:normal;font-weight:bold;font-stretch:normal;font-family:Giaothong1;-inkscape-font-specification:'Giaothong1 Bold';letter-spacing:1.85208333px;word-spacing:7.9375px;fill:#ffffff;stroke:none;stroke-width:0.46043164"
         id="path963"
         inkscape:connector-curvature="0" />
      <path
         d="m 1957.8329,-1319.0621 13.1655,-58.964 h 7.3381 l 13.1654,58.964 h -9.0215 l -2.3741,-12.6475 h -10.9641 l -2.3741,12.6475 z m 12.8201,-20.5036 h 7.9425 l -3.9712,-21.4964 z"
         style="font-style:normal;font-variant:normal;font-weight:bold;font-stretch:normal;font-family:Giaothong1;-inkscape-font-specification:'Giaothong1 Bold';letter-spacing:1.85208333px;word-spacing:7.9375px;fill:#ffffff;stroke:none;stroke-width:0.46043164"
         id="path965"
         inkscape:connector-curvature="0" />
      <path
         d="m 1998.7066,-1319.0621 v -25.3813 l -11.3957,-33.5827 h 8.8489 l 6.777,23.0935 6.9928,-23.0935 h 8.8489 l -11.6547,33.5827 v 25.3813 z"
         style="font-style:normal;font-variant:normal;font-weight:bold;font-stretch:normal;font-family:Giaothong1;-inkscape-font-specification:'Giaothong1 Bold';letter-spacing:1.85208333px;word-spacing:7.9375px;fill:#ffffff;stroke:none;stroke-width:0.46043164"
         id="path967"
         inkscape:connector-curvature="0" />
      <path
         d="m 2057.7765,-1333.7384 q 0,1.6835 0.1295,2.5468 0.1295,0.8201 1.295,2.5468 1.2086,1.7266 4.4029,1.7266 1.7697,0 3.2374,-0.7338 1.5108,-0.777 2.2014,-1.9425 0.7338,-1.2086 0.777,-2.5036 0.043,-1.2949 0.043,-1.7266 v -4.1439 q 0,-1.7698 -0.1295,-2.6331 -0.1295,-0.9064 -1.0792,-1.8993 -0.9065,-1.0359 -2.6331,-1.8561 -1.7266,-0.8633 -6,-2.4604 -4.2734,-1.5971 -7.2086,-5.0072 -2.9353,-3.4101 -2.9353,-9.3237 v -2.6331 q 0,-6.0432 4.0144,-10.4029 4.0576,-4.3597 10.0576,-4.3597 6.0863,0 10.187,4.2734 4.1439,4.2733 4.1439,10.4892 v 2.6331 h -8.4172 v -2.6331 q 0,-1.2518 -0.1727,-2.1151 -0.1727,-0.9065 -1.4245,-2.59 -1.2086,-1.6834 -4.1439,-1.6834 -2.5467,0 -4.187,1.8129 -1.6403,1.813 -1.6403,4.5756 v 2.6331 q 0,1.6834 0.1295,2.4604 0.1295,0.7338 0.9065,1.7266 0.8201,0.9497 2.3309,1.6835 1.5108,0.6906 5.7842,2.2446 4.2734,1.5108 7.5539,5.0072 3.2806,3.4964 3.2806,9.4964 v 4.7913 q 0,2.9353 -0.6043,5.1367 -0.561,2.2015 -3.5827,6.1295 -2.9783,3.9281 -10.3166,3.9281 -7.597,0 -11.0503,-4.964 -3.4533,-5.0072 -3.4533,-10.2303 v -2.1151 h 8.5036 z"
         style="font-style:normal;font-variant:normal;font-weight:bold;font-stretch:normal;font-family:Giaothong1;-inkscape-font-specification:'Giaothong1 Bold';letter-spacing:1.85208333px;word-spacing:7.9375px;fill:#ffffff;stroke:none;stroke-width:0.46043164"
         id="path969"
         inkscape:connector-curvature="0" />
      <path
         d="m 2094.2905,-1319.0621 v -51.1079 h -9.8849 v -7.8561 h 28.3597 v 7.8561 h -10.0576 v 51.1079 z"
         style="font-style:normal;font-variant:normal;font-weight:bold;font-stretch:normal;font-family:Giaothong1;-inkscape-font-specification:'Giaothong1 Bold';letter-spacing:1.85208333px;word-spacing:7.9375px;fill:#ffffff;stroke:none;stroke-width:0.46043164"
         id="path971"
         inkscape:connector-curvature="0" />
      <path
         d="m 2108.013,-1319.0621 13.1655,-58.964 h 7.3381 l 13.1655,58.964 h -9.0216 l -2.3741,-12.6475 h -10.964 l -2.3741,12.6475 z m 12.8202,-20.5036 h 7.9424 l -3.9712,-21.4964 z"
         style="font-style:normal;font-variant:normal;font-weight:bold;font-stretch:normal;font-family:Giaothong1;-inkscape-font-specification:'Giaothong1 Bold';letter-spacing:1.85208333px;word-spacing:7.9375px;fill:#ffffff;stroke:none;stroke-width:0.46043164"
         id="path973"
         inkscape:connector-curvature="0" />
      <path
         d="m 2146.9443,-1319.0621 v -51.1079 h -9.8849 v -7.8561 h 28.3597 v 7.8561 h -10.0576 v 51.1079 z"
         style="font-style:normal;font-variant:normal;font-weight:bold;font-stretch:normal;font-family:Giaothong1;-inkscape-font-specification:'Giaothong1 Bold';letter-spacing:1.85208333px;word-spacing:7.9375px;fill:#ffffff;stroke:none;stroke-width:0.46043164"
         id="path975"
         inkscape:connector-curvature="0" />
      <path
         d="m 2173.2712,-1319.0621 v -58.964 h 8.3309 v 58.964 z"
         style="font-style:normal;font-variant:normal;font-weight:bold;font-stretch:normal;font-family:Giaothong1;-inkscape-font-specification:'Giaothong1 Bold';letter-spacing:1.85208333px;word-spacing:7.9375px;fill:#ffffff;stroke:none;stroke-width:0.46043164"
         id="path977"
         inkscape:connector-curvature="0" />
      <path
         d="m 2194.6772,-1372.4578 q 2.0288,-2.8489 5.1367,-4.446 3.1079,-1.6403 6.4748,-1.6403 3.2374,0 6.1295,1.3381 2.8921,1.295 4.7914,3.6259 1.8993,2.2878 2.5899,4.6619 0.6907,2.3741 0.6907,5.223 v 30.0432 q 0,2.6762 -0.4749,4.6618 -0.4748,1.9856 -2.0719,4.4461 -1.597,2.4604 -4.7049,4.2302 -3.0649,1.7698 -6.6908,1.7698 -4.1439,0 -7.6403,-2.1151 -3.4964,-2.1151 -4.8777,-4.7914 -1.3813,-2.7194 -1.6403,-4.3597 -0.2589,-1.6403 -0.2589,-3.8417 v -30.0432 q 0,-2.6763 0.5611,-4.705 0.6043,-2.0288 1.9856,-4.0576 z m 16.3597,4.6187 q -1.7698,-2.4173 -4.5755,-2.4173 -1.5108,0 -2.9784,0.8634 -1.4677,0.8201 -2.0288,1.8561 -0.5612,0.9928 -0.7338,2.0719 -0.1727,1.036 -0.1727,1.7698 v 30.0432 q 0,0.9064 0.1295,1.9856 0.1295,1.0359 1.3813,2.8489 1.295,1.8129 4.4029,1.8129 1.5971,0 2.8489,-0.7338 1.295,-0.7769 1.8561,-1.7266 0.6043,-0.9928 0.777,-1.8561 0.1727,-0.9065 0.1727,-2.3309 v -30.0432 q 0,-1.7698 -0.1295,-2.4604 -0.1295,-0.7338 -0.9497,-1.6835 z"
         style="font-style:normal;font-variant:normal;font-weight:bold;font-stretch:normal;font-family:Giaothong1;-inkscape-font-specification:'Giaothong1 Bold';letter-spacing:1.85208333px;word-spacing:7.9375px;fill:#ffffff;stroke:none;stroke-width:0.46043164"
         id="path979"
         inkscape:connector-curvature="0" />
      <path
         d="m 2252.4286,-1319.0621 -13.1655,-35.7842 v 35.7842 h -8.4172 v -58.964 h 7.9424 l 13.0791,35.6978 v -35.6978 h 8.4173 v 58.964 z"
         style="font-style:normal;font-variant:normal;font-weight:bold;font-stretch:normal;font-family:Giaothong1;-inkscape-font-specification:'Giaothong1 Bold';letter-spacing:1.85208333px;word-spacing:7.9375px;fill:#ffffff;stroke:none;stroke-width:0.46043164"
         id="path981"
         inkscape:connector-curvature="0" />
    </g>
    <g
       style="font-style:normal;font-variant:normal;font-weight:bold;font-stretch:normal;font-size:89.95615387px;line-height:0;font-family:Giaothong1;-inkscape-font-specification:'Giaothong1 Bold';letter-spacing:0px;word-spacing:1.64835417px;fill:#ffffff;fill-opacity:1;stroke:none;stroke-width:0.46852162"
       id="text953"
       transform="translate(-22.22375,133.71598)">
      <path
         d="m 889.4129,-1064.2537 q 2.5915,0 5.183,1.186 2.6354,1.142 5.4905,4.041 2.899,2.855 2.899,8.9165 v 4.5681 q 0,6.8521 -5.4027,9.7072 5.4027,3.1625 5.4027,9.9707 v 7.0278 q 0,6.3251 -4.085,10.4539 -4.041,4.1289 -10.4099,4.1289 h -13.2211 v -60.0001 z m 5.0951,17.7892 v -3.6457 q 0,-2.8111 -1.6251,-4.4363 -1.5813,-1.6252 -4.3046,-1.6252 h -4.8316 v 16.5593 h 5.0952 q 2.9868,0 4.3045,-1.8448 1.3616,-1.8448 1.3616,-5.0073 z m 0,27.6281 v -7.0278 q 0,-2.855 -1.5812,-4.5241 -1.5374,-1.6692 -4.3485,-1.6692 h -4.8316 v 19.2387 h 4.9195 q 2.6354,0 4.2167,-1.6691 1.6251,-1.713 1.6251,-4.3485 z"
         style="font-style:normal;font-variant:normal;font-weight:bold;font-stretch:normal;font-family:Giaothong1;-inkscape-font-specification:'Giaothong1 Bold';word-spacing:1.64835417px;fill:#ffffff;stroke:none;stroke-width:0.46852162"
         id="path1022"
         inkscape:connector-curvature="0" />
      <path
         d="m 937.1142,-1012.9066 v 8.653 h -25.6515 v -60.0001 h 25.6515 v 7.9063 H 919.94 v 17.7453 h 15.1098 v 8.082 H 919.94 v 17.6135 z m -5.2708,-59.6926 9.2679,-12.2548 h 8.4773 l -12.3426,12.2548 z m -7.9503,0.1318 -6.1493,4.6998 h -5.9297 l 8.9604,-9.0044 h 6.5886 l 8.8726,9.0044 h -6.0175 z"
         style="font-style:normal;font-variant:normal;font-weight:bold;font-stretch:normal;font-family:Giaothong1;-inkscape-font-specification:'Giaothong1 Bold';word-spacing:1.64835417px;fill:#ffffff;stroke:none;stroke-width:0.46852162"
         id="path1024"
         inkscape:connector-curvature="0" />
      <path
         d="m 966.9825,-1004.2536 -13.3968,-36.4129 v 36.4129 h -8.5652 v -60.0001 h 8.082 l 13.309,36.3251 v -36.3251 h 8.5651 v 60.0001 z"
         style="font-style:normal;font-variant:normal;font-weight:bold;font-stretch:normal;font-family:Giaothong1;-inkscape-font-specification:'Giaothong1 Bold';word-spacing:1.64835417px;fill:#ffffff;stroke:none;stroke-width:0.46852162"
         id="path1026"
         inkscape:connector-curvature="0" />
      <path
         d="m 1022.0862,-1004.2536 -7.467,-20.3368 -7.555,20.3368 h -9.0922 l 12.3426,-31.6692 -11.1567,-28.3309 h 8.9605 l 6.5008,17.6135 6.4568,-17.6135 h 9.0044 l -11.2445,28.3309 12.3426,31.6692 z"
         style="font-style:normal;font-variant:normal;font-weight:bold;font-stretch:normal;font-family:Giaothong1;-inkscape-font-specification:'Giaothong1 Bold';word-spacing:1.64835417px;fill:#ffffff;stroke:none;stroke-width:0.46852162"
         id="path1028"
         inkscape:connector-curvature="0" />
      <path
         d="m 1062.1009,-1012.9066 v 8.653 h -25.6516 v -60.0001 h 25.6516 v 7.9063 h -17.1743 v 17.7453 h 15.1099 v 8.082 h -15.1099 v 17.6135 z"
         style="font-style:normal;font-variant:normal;font-weight:bold;font-stretch:normal;font-family:Giaothong1;-inkscape-font-specification:'Giaothong1 Bold';word-spacing:1.64835417px;fill:#ffffff;stroke:none;stroke-width:0.46852162"
         id="path1030"
         inkscape:connector-curvature="0" />
      <path
         d="m 1083.1614,-1031.6182 v -7.1596 h 5.2269 v -25.4759 h 13.5725 q 5.754,0 9.9268,4.0849 4.2167,4.085 4.2167,9.839 v 31.2299 q 0,6.5007 -4.041,10.6735 -3.9971,4.1728 -10.366,4.1728 h -13.309 v -27.3646 z m 19.4143,0.088 h -5.6661 v 19.2826 h 4.1727 q 3.2943,0 4.8756,-1.757 1.5812,-1.7569 1.5812,-5.0952 v -31.2298 q 0,-2.5037 -1.8448,-4.1728 -1.8448,-1.6691 -4.3484,-1.6691 h -4.4363 v 17.3938 h 5.6661 z"
         style="font-style:normal;font-variant:normal;font-weight:bold;font-stretch:normal;font-family:Giaothong1;-inkscape-font-specification:'Giaothong1 Bold';word-spacing:1.64835417px;fill:#ffffff;stroke:none;stroke-width:0.46852162"
         id="path1032"
         inkscape:connector-curvature="0" />
      <path
         d="m 1123.8349,-1004.2536 v -60.0001 h 8.4773 v 60.0001 z"
         style="font-style:normal;font-variant:normal;font-weight:bold;font-stretch:normal;font-family:Giaothong1;-inkscape-font-specification:'Giaothong1 Bold';word-spacing:1.64835417px;fill:#ffffff;stroke:none;stroke-width:0.46852162"
         id="path1034"
         inkscape:connector-curvature="0" />
      <path
         d="m 1167.4074,-1012.9066 v 8.653 h -25.6515 v -60.0001 h 25.6515 v 7.9063 h -17.1742 v 17.7453 h 15.1098 v 8.082 h -15.1098 v 17.6135 z m -16.735,22.79652 v -7.3353 h 7.3353 v 7.3353 z m 3.7775,-82.35732 -6.1494,4.6998 h -5.9297 l 8.9605,-9.0044 h 6.5886 l 8.8726,9.0044 h -6.0176 z"
         style="font-style:normal;font-variant:normal;font-weight:bold;font-stretch:normal;font-family:Giaothong1;-inkscape-font-specification:'Giaothong1 Bold';word-spacing:1.64835417px;fill:#ffffff;stroke:none;stroke-width:0.46852162"
         id="path1036"
         inkscape:connector-curvature="0" />
      <path
         d="m 1197.2757,-1004.2536 -13.3968,-36.4129 v 36.4129 h -8.5652 v -60.0001 h 8.082 l 13.309,36.3251 v -36.3251 h 8.5651 v 60.0001 z"
         style="font-style:normal;font-variant:normal;font-weight:bold;font-stretch:normal;font-family:Giaothong1;-inkscape-font-specification:'Giaothong1 Bold';word-spacing:1.64835417px;fill:#ffffff;stroke:none;stroke-width:0.46852162"
         id="path1038"
         inkscape:connector-curvature="0" />
    </g>
  </g>
</svg>
