<?xml version="1.0" encoding="utf-8"?>
<svg viewBox="0 0 323.14914 200" xmlns="http://www.w3.org/2000/svg">
  <g id="layer1" transform="matrix(0.9999999999999999, 0, 0, 0.9999999999999999, -303.4596862792969, -22.960700988769517)">
    <path id="rect15575" style="opacity:1;fill:#0a9646;fill-opacity:1;fill-rule:evenodd;stroke-width:0.0420687;stroke-linecap:square;stroke-miterlimit:10;paint-order:stroke fill markers" d="M 303.45966,22.960701 H 626.6088 V 222.9607 H 303.45966 Z"/>
    <path transform="matrix(0.26458333,0,0,0.26458333,303.45966,22.960701)" d="m 30.353516,5.0117188 c -13.808655,0 -25.0781254,11.2674112 -25.0781254,25.0761722 v 332.957029 47.1211 49.04296 13.88672 252.45508 c 0,13.80862 11.2694704,25.06641 25.0781254,25.06641 H 1190.9805 c 13.8086,0 25.0781,-11.25779 25.0781,-25.06641 V 473.0957 459.57031 401.94727 363.04492 30.087891 c 0,-13.808761 -11.2695,-25.0761722 -25.0781,-25.0761722 z m 0,9.4511722 H 1190.9805 c 8.7398,0 15.6425,6.885058 15.6425,15.625 v 332.957029 38.90235 c 0,0.29959 -0.013,0.61475 -0.037,0.9375 v 7.20703 c 0,8.68754 -6.9941,15.68164 -15.6816,15.68164 h -8.0762 c -0.1869,0.007 -0.3766,0.0176 -0.5586,0.0176 H 38.023438 c -0.18105,0 -0.371847,-0.0102 -0.560547,-0.0176 h -7.097657 c -8.687546,0 -15.68164,-6.9941 -15.68164,-15.68164 V 30.152344 c 0,-1.658433 0.257595,-3.253829 0.730468,-4.751953 0.01365,-0.04461 0.03284,-0.08643 0.04688,-0.13086 1.99686,-6.321925 7.84094,-10.80664 14.892578,-10.80664 z M 30.28125,435.30469 h 6.958984 1145.628866 8.1172 c 8.6414,0 15.5996,6.95633 15.5996,15.59765 v 7.5918 c 0.024,0.37296 0.037,0.7339 0.037,1.07617 v 13.52539 252.45508 c 0,5.47634 -2.7106,10.22208 -6.8847,13.00391 -2.4923,1.6862 -5.5034,2.66992 -8.752,2.66992 H 30.28125 c -8.641361,0 -15.597656,-6.9563 -15.597656,-15.59766 V 450.90234 c 0,-8.64132 6.956295,-15.59765 15.597656,-15.59765 z" style="color:#000000;font-style:normal;font-variant:normal;font-weight:normal;font-stretch:normal;font-size:medium;line-height:normal;font-family:sans-serif;font-variant-ligatures:normal;font-variant-position:normal;font-variant-caps:normal;font-variant-numeric:normal;font-variant-alternates:normal;font-variant-east-asian:normal;font-feature-settings:normal;font-variation-settings:normal;text-indent:0;text-align:start;text-decoration:none;text-decoration-line:none;text-decoration-style:solid;text-decoration-color:#000000;letter-spacing:normal;word-spacing:normal;text-transform:none;writing-mode:lr-tb;direction:ltr;text-orientation:mixed;dominant-baseline:auto;baseline-shift:baseline;text-anchor:start;white-space:normal;shape-padding:0;shape-margin:0;inline-size:0;clip-rule:nonzero;display:inline;overflow:visible;visibility:visible;opacity:1;isolation:auto;mix-blend-mode:normal;color-interpolation:sRGB;color-interpolation-filters:linearRGB;solid-color:#000000;solid-opacity:1;vector-effect:none;fill:#ffffff;fill-opacity:1;fill-rule:evenodd;stroke:none;stroke-width:2.09199;stroke-linecap:square;stroke-linejoin:miter;stroke-miterlimit:10;stroke-dasharray:none;stroke-dashoffset:0;stroke-opacity:1;paint-order:stroke fill markers;color-rendering:auto;image-rendering:auto;shape-rendering:auto;text-rendering:auto;enable-background:accumulate;stop-color:#000000;stop-opacity:1" id="path15582"/>
    <path d="m 324.12038,67.193614 h 60.89334 v 27.821331 h -60.89334 z" style="opacity:1;fill:#ffd70f;fill-opacity:1;fill-rule:evenodd;stroke:none;stroke-width:0.553508;stroke-linecap:square;stroke-miterlimit:10;stroke-dasharray:none;stroke-opacity:1;paint-order:stroke fill markers" id="rect15605"/>
    <path id="path15631" d="m 326.18273,67.759747 c -0.81115,0 -1.47443,0.660164 -1.47443,1.471307 v 23.746432 c 0,0.811142 0.66328,1.471323 1.47443,1.471323 h 56.7905 c 0.81117,0 1.4744,-0.660181 1.4744,-1.471323 V 69.231054 c 0,-0.811143 -0.66328,-1.471307 -1.4744,-1.471307 z m 0,0.535017 h 56.7905 c 0.52266,0 0.93627,0.413622 0.93627,0.93629 v 23.746432 c 0,0.522654 -0.41353,0.933189 -0.93627,0.933189 h -56.7905 c -0.52266,0 -0.93628,-0.410555 -0.93628,-0.933189 V 69.231054 c 0,-0.522672 0.41354,-0.93629 0.93628,-0.93629 z" style="color:#000000;font-style:normal;font-variant:normal;font-weight:normal;font-stretch:normal;font-size:medium;line-height:normal;font-family:sans-serif;font-variant-ligatures:normal;font-variant-position:normal;font-variant-caps:normal;font-variant-numeric:normal;font-variant-alternates:normal;font-variant-east-asian:normal;font-feature-settings:normal;font-variation-settings:normal;text-indent:0;text-align:start;text-decoration:none;text-decoration-line:none;text-decoration-style:solid;text-decoration-color:#000000;letter-spacing:normal;word-spacing:normal;text-transform:none;writing-mode:lr-tb;direction:ltr;text-orientation:mixed;dominant-baseline:auto;baseline-shift:baseline;text-anchor:start;white-space:normal;shape-padding:0;shape-margin:0;inline-size:0;clip-rule:nonzero;display:inline;overflow:visible;visibility:visible;opacity:1;isolation:auto;mix-blend-mode:normal;color-interpolation:sRGB;color-interpolation-filters:linearRGB;solid-color:#000000;solid-opacity:1;vector-effect:none;fill:#000000;fill-opacity:1;fill-rule:evenodd;stroke:none;stroke-width:0.119062;stroke-linecap:square;stroke-linejoin:miter;stroke-miterlimit:10;stroke-dasharray:none;stroke-dashoffset:0;stroke-opacity:1;paint-order:stroke fill markers;color-rendering:auto;image-rendering:auto;shape-rendering:auto;text-rendering:auto;enable-background:accumulate;stop-color:#000000;stop-opacity:1"/>
    <path id="path17496" style="font-size:15.1831px;line-height:1.46;font-family:'Singapore Road Signs';-inkscape-font-specification:'Singapore Road Signs';text-align:center;text-anchor:middle;opacity:1;fill:#ffffff;fill-opacity:1;stroke-width:0.0756548" d="m 570.47468,59.120043 v 50.614317 h 35.43541 V 59.120043 Z m 1.38203,1.660034 h 32.65274 v 47.566083 h -32.65274 z m 13.66823,3.646909 -2.23483,8.869719 h 3.92184 l 0.28216,-8.869719 z m 3.35329,0 0.28216,8.869719 h 3.92385 l -2.23686,-8.869719 z m -15.90932,9.992316 v 1.942234 l 3.06692,1.10806 v 0.584703 h 1.411 v -0.584703 c 0,0 2.08662,-0.313671 4.52568,-0.535349 1.95306,-0.177516 4.1317,-0.271988 5.64407,-0.278037 1.79866,-0.0063 4.45804,0.09363 6.73975,0.288436 2.51319,0.214479 4.5713,0.524984 4.5713,0.524984 v 0.5847 h 1.38199 v -0.5847 l 3.06685,-1.108064 v -1.942233 z m 9.21108,3.620663 -6.70448,26.681115 h 10.04943 l 1.39442,-26.681115 z m 7.25642,0 1.39441,26.681115 h 10.0494 l -6.70443,-26.681115 z"/>
    <g style="font-size:14.7905px;line-height:0;font-family:'Singapore Road Signs';-inkscape-font-specification:'Singapore Road Signs';text-align:center;text-anchor:middle;opacity:1;fill:#860000;fill-opacity:1;stroke-width:6.45213" id="layer1-8" transform="matrix(0.08718024,0,0,0.08718024,-145.22047,195.49013)">
      <circle style="opacity:1;fill:#f00a0a;fill-opacity:1;fill-rule:nonzero;stroke:none;stroke-width:3622.55;stroke-linecap:round;stroke-linejoin:round;stroke-miterlimit:4;stroke-dasharray:none;stroke-opacity:1;paint-order:stroke fill markers" id="path815" cx="6380.9966" cy="-193.29752" r="350"/>
      <circle cy="-193.29752" cx="6380.9966" id="circle817" style="opacity:1;fill:#ffffff;fill-opacity:1;fill-rule:nonzero;stroke:none;stroke-width:2587.55;stroke-linecap:round;stroke-linejoin:round;stroke-miterlimit:4;stroke-dasharray:none;stroke-opacity:1;paint-order:stroke fill markers" r="263.821"/>
      <g aria-label="20 " style="font-style:normal;font-variant:normal;font-weight:bold;font-stretch:normal;font-size:414.864px;line-height:0;font-family:Giaothong1;-inkscape-font-specification:'Giaothong1 Bold';letter-spacing:0px;word-spacing:0px;fill:#000000;fill-opacity:1;stroke:none;stroke-width:24.7849" id="text874" transform="matrix(-1,0,0,1,1299.029,-383.45)">
        <g aria-label="90" transform="translate(2310.2259,387.54849)" style="font-style:normal;font-variant:normal;font-weight:bold;font-stretch:normal;font-size:414.864px;line-height:0;font-family:Giaothong1;-inkscape-font-specification:'Giaothong1 Bold';letter-spacing:0px;word-spacing:0px;fill:#000000;fill-opacity:1;stroke:none;stroke-width:53.5539" id="text844"/>
      </g>
    </g>
    <g style="font-size:14.7905px;line-height:0;font-family:'Singapore Road Signs';-inkscape-font-specification:'Singapore Road Signs';text-align:center;text-anchor:middle;opacity:1;fill:#fff000;fill-opacity:1;stroke-width:6.45221" id="layer1-7" transform="matrix(0.08717968,0,0,0.08717968,488.77841,183.34565)">
      <circle cy="-54" cx="351" id="circle817-6" style="opacity:1;fill:#0046aa;fill-opacity:1;fill-rule:nonzero;stroke:none;stroke-width:3622.58;stroke-linecap:round;stroke-linejoin:round;stroke-miterlimit:4;stroke-dasharray:none;stroke-opacity:1;paint-order:stroke fill markers" r="350"/>
      <path id="rect984" style="font-style: normal; font-variant: normal; font-weight: bold; font-stretch: normal; font-size: 414.864px; line-height: 0; font-family: Giaothong1; letter-spacing: 0px; word-spacing: 0px; opacity: 1; fill: rgb(255, 255, 255); fill-opacity: 1; fill-rule: nonzero; stroke: none; stroke-width: 0.344279; stroke-linecap: round; stroke-linejoin: miter; stroke-miterlimit: 10; stroke-dasharray: none; stroke-opacity: 1; paint-order: stroke; visibility: hidden;" d="m 851.18164,518.03906 c -16.32678,0 -29.4707,13.14393 -29.4707,29.47071 v 80.94921 c 0,16.32678 13.14392,29.47071 29.4707,29.47071 16.32678,0 29.4707,-13.14393 29.4707,-29.47071 v -80.94921 c 0,-16.32678 -13.14392,-29.47071 -29.4707,-29.47071 z m -69.94336,1.23828 -26.10937,69.75391 c -2.72781,7.40406 -3.70118,11.30112 -3.70118,28.44727 0,18.12042 0.7789,22.01697 4.67579,28.25195 5.26075,8.37828 14.22308,13.44336 24.93945,13.44336 10.91123,0 20.0688,-4.87023 25.13476,-13.44336 3.70197,-6.23498 4.48047,-10.13153 4.48047,-28.25195 0,-22.01726 -0.77798,-26.88814 -4.28515,-32.34375 -3.31232,-5.06591 -9.74347,-8.96289 -16.75782,-8.96289 -4.28653,0 -7.01308,0.77773 -8.37695,1.75195 l -0.39062,-0.38867 22.60156,-58.25782 z m 69.94336,18.74024 c 5.25853,0 9.49219,4.23365 9.49219,9.49219 v 80.94921 c 0,5.25853 -4.23366,9.49219 -9.49219,9.49219 -5.25853,0 -9.49219,-4.23366 -9.49219,-9.49219 v -80.94921 c 0,-5.25854 4.23366,-9.49219 9.49219,-9.49219 z m -70.13867,55.68945 c 5.0659,0 9.74219,3.89738 9.74219,9.9375 v 25.71875 c 0,6.04012 -4.67629,9.9375 -9.74219,9.9375 -5.0659,0 -9.74219,-3.89738 -9.74219,-9.9375 v -25.71875 c 0,-6.04012 4.67629,-9.9375 9.74219,-9.9375 z" transform="matrix(3.0349198,0,0,3.0349198,-2125.7104,-1839.7056)"/>
    </g>
    <g aria-label="6" id="text19759" style="font-size:31.1478px;line-height:1.3;font-family:'Singapore Road Signs';-inkscape-font-specification:'Singapore Road Signs';text-align:center;text-anchor:middle;stroke-width:0.159861" transform="matrix(1.6550836,0,0,1.6550836,-321.31659,-238.56049)"/>
    <path d="M 369.485 46.797 Q 369.406 46.797 369.388 46.726 L 365.231 34.132 Q 365.213 34.079 365.24 34.035 Q 365.266 33.991 365.328 33.991 L 367.34 33.991 Q 367.419 33.991 367.437 34.07 L 370.223 43.395 Q 370.926 41.058 371.625 38.733 Q 372.324 36.408 373.018 34.07 Q 373.036 33.991 373.115 33.991 L 375.127 33.991 Q 375.189 33.991 375.215 34.035 Q 375.242 34.079 375.224 34.132 L 371.067 46.726 Q 371.049 46.797 370.97 46.797 Z M 375.389 46.788 Q 375.327 46.788 375.301 46.744 Q 375.274 46.7 375.292 46.647 L 379.897 34.044 Q 379.915 33.974 379.985 33.974 L 381.559 33.974 Q 381.585 33.974 381.616 33.996 Q 381.646 34.017 381.655 34.044 L 386.252 46.647 Q 386.269 46.7 386.243 46.744 Q 386.217 46.788 386.164 46.788 L 384.151 46.788 Q 384.081 46.788 384.063 46.718 L 383.114 43.94 L 378.474 43.94 Q 378.227 44.652 377.986 45.333 Q 377.744 46.015 377.498 46.718 Q 377.489 46.744 377.458 46.766 Q 377.428 46.788 377.401 46.788 Z M 382.481 42.051 Q 382.464 41.989 382.433 41.919 Q 382.402 41.849 382.385 41.796 Q 382.235 41.365 382.112 41 Q 381.989 40.636 381.892 40.363 Q 381.831 40.187 381.774 40.02 Q 381.717 39.853 381.664 39.704 Q 381.62 39.563 381.576 39.436 Q 381.532 39.309 381.488 39.185 Q 381.409 38.931 381.326 38.676 Q 381.242 38.421 381.154 38.148 Q 381.11 38.025 381.062 37.876 Q 381.014 37.726 380.961 37.559 Q 380.934 37.472 380.921 37.423 Q 380.908 37.375 380.891 37.327 Q 380.873 37.278 380.851 37.217 Q 380.829 37.155 380.794 37.041 Q 380.697 37.331 380.614 37.577 Q 380.53 37.823 380.46 38.034 Q 380.442 38.087 380.434 38.131 Q 380.425 38.175 380.407 38.219 Q 380.363 38.368 380.315 38.5 Q 380.267 38.632 380.223 38.764 Q 380.179 38.904 380.135 39.036 Q 380.091 39.168 380.047 39.291 Q 379.959 39.555 379.867 39.845 Q 379.774 40.135 379.66 40.451 Q 379.546 40.767 379.423 41.132 Q 379.3 41.497 379.106 42.051 Z M 381.321 32.857 Q 381.304 32.857 381.277 32.844 Q 381.251 32.831 381.242 32.822 L 378.816 30.256 Q 378.764 30.203 378.794 30.142 Q 378.825 30.08 378.895 30.08 L 380.829 30.08 Q 380.882 30.08 380.917 30.133 L 382.754 32.699 Q 382.78 32.761 382.758 32.809 Q 382.736 32.857 382.666 32.857 Z M 387.842 46.797 Q 387.737 46.797 387.737 46.691 L 387.737 34.097 Q 387.737 33.991 387.842 33.991 L 389.653 33.991 Q 389.706 33.991 389.741 34.044 L 395.278 42.763 L 395.278 34.097 Q 395.278 33.991 395.383 33.991 L 397.299 33.991 Q 397.405 33.991 397.405 34.097 L 397.405 46.691 Q 397.405 46.797 397.299 46.797 L 395.498 46.797 Q 395.445 46.797 395.41 46.744 L 389.855 38.025 L 389.855 46.691 Q 389.855 46.797 389.758 46.797 Z M 407.055 46.797 Q 406.949 46.797 406.949 46.691 L 406.949 41.295 L 402.159 41.295 L 402.159 46.691 Q 402.159 46.797 402.054 46.797 L 400.146 46.797 Q 400.041 46.797 400.041 46.691 L 400.041 34.097 Q 400.041 33.991 400.146 33.991 L 402.054 33.991 Q 402.159 33.991 402.159 34.097 L 402.159 39.388 L 406.949 39.388 L 406.949 34.097 Q 406.949 33.991 407.055 33.991 L 408.962 33.991 Q 409.067 33.991 409.067 34.097 L 409.067 46.691 Q 409.067 46.797 408.962 46.797 Z M 416.117 46.797 Q 416.02 46.797 416.02 46.691 L 416.02 41.277 L 415.097 41.277 Q 415 41.277 415 41.181 L 415 39.37 Q 415 39.265 415.097 39.265 L 416.02 39.265 L 416.02 34.097 Q 416.02 33.991 416.117 33.991 L 420.529 33.991 Q 423.157 33.991 424.458 36.162 Q 424.695 36.584 424.844 36.962 Q 424.994 37.34 425.038 37.7 Q 425.143 38.403 425.143 40.398 Q 425.143 41.471 425.108 42.187 Q 425.073 42.903 425.002 43.264 Q 424.932 43.633 424.787 43.98 Q 424.642 44.327 424.422 44.67 L 424.422 44.661 Q 423.833 45.566 422.84 46.182 Q 421.812 46.797 420.406 46.797 Z M 418.138 36.013 L 418.138 39.265 L 420.432 39.265 Q 420.538 39.265 420.538 39.37 L 420.538 41.181 Q 420.538 41.277 420.432 41.277 L 418.138 41.277 L 418.138 44.793 L 420.318 44.793 Q 421.83 44.793 422.568 43.738 Q 422.875 43.272 422.937 42.763 Q 422.981 42.481 423.003 41.914 Q 423.025 41.348 423.025 40.469 Q 423.025 39.616 423.003 39.045 Q 422.981 38.474 422.937 38.14 Q 422.84 37.516 422.48 37.023 Q 421.733 36.013 420.318 36.013 Z M 426.223 46.788 Q 426.162 46.788 426.135 46.744 Q 426.109 46.7 426.127 46.647 L 430.732 34.044 Q 430.75 33.974 430.82 33.974 L 432.393 33.974 Q 432.42 33.974 432.45 33.996 Q 432.481 34.017 432.49 34.044 L 437.087 46.647 Q 437.104 46.7 437.078 46.744 Q 437.051 46.788 436.999 46.788 L 434.986 46.788 Q 434.916 46.788 434.898 46.718 L 433.949 43.94 L 429.308 43.94 Q 429.062 44.652 428.82 45.333 Q 428.579 46.015 428.333 46.718 Q 428.324 46.744 428.293 46.766 Q 428.262 46.788 428.236 46.788 Z M 433.316 42.051 Q 433.298 41.989 433.268 41.919 Q 433.237 41.849 433.219 41.796 Q 433.07 41.365 432.947 41 Q 432.824 40.636 432.727 40.363 Q 432.666 40.187 432.609 40.02 Q 432.551 39.853 432.499 39.704 Q 432.455 39.563 432.411 39.436 Q 432.367 39.309 432.323 39.185 Q 432.244 38.931 432.16 38.676 Q 432.077 38.421 431.989 38.148 Q 431.945 38.025 431.897 37.876 Q 431.848 37.726 431.796 37.559 Q 431.769 37.472 431.756 37.423 Q 431.743 37.375 431.725 37.327 Q 431.708 37.278 431.686 37.217 Q 431.664 37.155 431.629 37.041 Q 431.532 37.331 431.448 37.577 Q 431.365 37.823 431.295 38.034 Q 431.277 38.087 431.268 38.131 Q 431.259 38.175 431.242 38.219 Q 431.198 38.368 431.15 38.5 Q 431.101 38.632 431.057 38.764 Q 431.013 38.904 430.969 39.036 Q 430.925 39.168 430.882 39.291 Q 430.794 39.555 430.701 39.845 Q 430.609 40.135 430.495 40.451 Q 430.381 40.767 430.257 41.132 Q 430.134 41.497 429.941 42.051 Z M 438.651 46.797 Q 438.545 46.797 438.545 46.691 L 438.545 34.097 Q 438.545 33.991 438.651 33.991 L 440.558 33.991 Q 440.663 33.991 440.663 34.097 L 440.663 46.691 Q 440.663 46.797 440.558 46.797 Z M 446.517 44.942 Q 446.412 44.942 446.412 44.837 L 446.412 43.123 L 450.613 34.141 Q 450.631 34.123 450.657 34.101 Q 450.683 34.079 450.71 34.079 L 452.714 34.079 Q 452.766 34.079 452.797 34.123 Q 452.828 34.167 452.802 34.228 L 448.635 43.044 L 451.633 43.044 L 451.633 39.537 Q 451.633 39.44 451.738 39.44 L 453.531 39.44 Q 453.636 39.44 453.636 39.537 L 453.636 43.044 L 454.542 43.044 Q 454.638 43.044 454.638 43.149 L 454.638 44.837 Q 454.638 44.942 454.542 44.942 L 453.636 44.942 L 453.636 46.691 Q 453.636 46.797 453.531 46.797 L 451.738 46.797 Q 451.633 46.797 451.633 46.691 L 451.633 44.942 Z" transform="matrix(1.310387, 0, 0, 1.310387, -59.698296, -1.169035)" style="fill: rgb(255, 255, 255); text-wrap-mode: nowrap;"/>
    <path transform="matrix(1.310387, 0, 0, 1.310387, -59.698296, -1.169035)" style="fill: rgb(255, 255, 255); text-wrap-mode: nowrap;"/>
    <path d="M 373.215 72.357 Q 373.109 72.357 373.109 72.251 L 373.109 61.458 L 369.761 61.458 Q 369.655 61.458 369.655 61.353 L 369.655 59.657 Q 369.655 59.551 369.761 59.551 L 378.567 59.551 Q 378.673 59.551 378.673 59.657 L 378.673 61.353 Q 378.673 61.458 378.567 61.458 L 375.227 61.458 L 375.227 72.251 Q 375.227 72.357 375.122 72.357 Z M 382.072 61.573 L 382.072 65.422 L 384.806 65.422 Q 385.817 65.422 386.309 64.816 Q 386.81 64.227 386.81 63.497 Q 386.81 62.408 386.036 61.907 Q 385.535 61.573 384.736 61.573 Z M 380.06 72.357 Q 379.954 72.357 379.954 72.251 L 379.954 59.657 Q 379.954 59.551 380.06 59.551 L 384.63 59.551 Q 385.386 59.551 386.063 59.709 Q 386.748 59.868 387.522 60.465 Q 387.82 60.702 388.071 61.015 Q 388.321 61.327 388.524 61.704 Q 388.717 62.091 388.822 62.557 Q 388.928 63.023 388.928 63.55 Q 388.928 64.93 387.891 66.187 Q 386.854 67.435 384.876 67.435 L 382.072 67.435 L 382.072 72.251 Q 382.072 72.357 381.967 72.357 Z M 389.275 72.357 Q 389.17 72.357 389.17 72.251 L 389.17 70.467 Q 389.17 70.362 389.275 70.362 L 391.068 70.362 Q 391.165 70.362 391.165 70.467 L 391.165 72.251 Q 391.165 72.357 391.068 72.357 Z M 403.623 72.357 Q 403.517 72.357 403.517 72.251 L 403.517 66.855 L 398.727 66.855 L 398.727 72.251 Q 398.727 72.357 398.622 72.357 L 396.714 72.357 Q 396.609 72.357 396.609 72.251 L 396.609 59.657 Q 396.609 59.551 396.714 59.551 L 398.622 59.551 Q 398.727 59.551 398.727 59.657 L 398.727 64.948 L 403.517 64.948 L 403.517 59.657 Q 403.517 59.551 403.623 59.551 L 405.53 59.551 Q 405.635 59.551 405.635 59.657 L 405.635 72.251 Q 405.635 72.357 405.53 72.357 Z M 407.137 72.348 Q 407.075 72.348 407.049 72.304 Q 407.022 72.26 407.04 72.207 L 411.645 59.604 Q 411.663 59.534 411.733 59.534 L 413.307 59.534 Q 413.333 59.534 413.364 59.556 Q 413.395 59.577 413.403 59.604 L 418 72.207 Q 418.018 72.26 417.991 72.304 Q 417.965 72.348 417.912 72.348 L 415.899 72.348 Q 415.829 72.348 415.811 72.278 L 414.862 69.5 L 410.222 69.5 Q 409.976 70.212 409.734 70.893 Q 409.492 71.575 409.246 72.278 Q 409.237 72.304 409.207 72.326 Q 409.176 72.348 409.149 72.348 Z M 414.229 67.611 Q 414.212 67.549 414.181 67.479 Q 414.15 67.409 414.133 67.356 Q 413.983 66.925 413.86 66.56 Q 413.737 66.196 413.641 65.923 Q 413.579 65.747 413.522 65.58 Q 413.465 65.413 413.412 65.264 Q 413.368 65.123 413.324 64.996 Q 413.28 64.869 413.236 64.745 Q 413.157 64.491 413.074 64.236 Q 412.99 63.981 412.902 63.708 Q 412.858 63.585 412.81 63.436 Q 412.762 63.286 412.709 63.119 Q 412.683 63.032 412.669 62.983 Q 412.656 62.935 412.639 62.887 Q 412.621 62.838 412.599 62.777 Q 412.577 62.715 412.542 62.601 Q 412.445 62.891 412.362 63.137 Q 412.278 63.383 412.208 63.594 Q 412.19 63.647 412.182 63.691 Q 412.173 63.735 412.155 63.779 Q 412.111 63.928 412.063 64.06 Q 412.015 64.192 411.971 64.324 Q 411.927 64.464 411.883 64.596 Q 411.839 64.728 411.795 64.851 Q 411.707 65.115 411.615 65.405 Q 411.522 65.695 411.408 66.011 Q 411.294 66.327 411.171 66.692 Q 411.048 67.057 410.854 67.611 Z M 413.069 58.417 Q 413.052 58.417 413.025 58.404 Q 412.999 58.391 412.99 58.382 L 410.564 55.816 Q 410.512 55.763 410.542 55.702 Q 410.573 55.64 410.644 55.64 L 412.577 55.64 Q 412.63 55.64 412.665 55.693 L 414.502 58.259 Q 414.528 58.321 414.506 58.369 Q 414.484 58.417 414.414 58.417 Z M 423.908 72.357 Q 423.803 72.357 423.803 72.251 L 423.803 59.657 Q 423.803 59.551 423.908 59.551 L 425.719 59.551 Q 425.771 59.551 425.807 59.604 L 431.344 68.323 L 431.344 59.657 Q 431.344 59.551 431.449 59.551 L 433.365 59.551 Q 433.471 59.551 433.471 59.657 L 433.471 72.251 Q 433.471 72.357 433.365 72.357 L 431.563 72.357 Q 431.511 72.357 431.475 72.304 L 425.921 63.585 L 425.921 72.251 Q 425.921 72.357 425.824 72.357 Z M 437.284 58.417 Q 437.205 58.417 437.183 58.351 Q 437.161 58.285 437.223 58.242 L 439.807 56.194 L 440.984 56.194 L 443.604 58.242 Q 443.665 58.285 443.643 58.351 Q 443.621 58.417 443.551 58.417 L 442.066 58.417 L 440.317 57.477 Q 439.93 57.714 439.534 57.952 Q 439.139 58.189 438.752 58.417 Z M 435.729 65.853 Q 435.729 64.702 435.759 63.972 Q 435.79 63.243 435.843 62.909 Q 435.904 62.575 436.019 62.267 Q 436.133 61.959 436.3 61.66 L 436.291 61.66 Q 436.748 60.808 437.768 60.078 Q 438.796 59.34 440.325 59.34 Q 441.837 59.34 442.865 60.078 Q 443.902 60.826 444.359 61.66 Q 444.685 62.258 444.799 62.909 Q 444.86 63.243 444.891 63.972 Q 444.922 64.702 444.922 65.853 Q 444.922 68.112 444.799 68.806 Q 444.737 69.149 444.628 69.456 Q 444.518 69.764 444.368 70.045 Q 443.902 70.889 442.865 71.627 Q 441.828 72.357 440.325 72.357 Q 438.805 72.357 437.768 71.627 Q 436.748 70.907 436.291 70.045 L 436.3 70.045 Q 436.133 69.746 436.019 69.443 Q 435.904 69.14 435.843 68.806 Q 435.79 68.472 435.759 67.738 Q 435.729 67.004 435.729 65.853 Z M 437.847 65.853 Q 437.847 66.811 437.873 67.431 Q 437.9 68.05 437.97 68.349 Q 438.04 68.621 438.168 68.89 Q 438.295 69.158 438.453 69.36 Q 438.734 69.729 439.2 69.988 Q 439.666 70.247 440.325 70.247 Q 440.976 70.247 441.442 69.988 Q 441.907 69.729 442.18 69.36 Q 442.549 68.911 442.663 68.349 Q 442.804 67.786 442.804 65.853 Q 442.804 64.895 442.769 64.275 Q 442.734 63.656 442.663 63.366 Q 442.602 63.084 442.479 62.816 Q 442.356 62.548 442.189 62.337 Q 442.057 62.17 441.868 62.012 Q 441.679 61.854 441.442 61.735 Q 441.204 61.617 440.923 61.542 Q 440.642 61.467 440.325 61.467 Q 439.666 61.467 439.2 61.731 Q 438.734 61.994 438.453 62.337 Q 438.286 62.548 438.163 62.816 Q 438.04 63.084 437.97 63.366 Q 437.9 63.664 437.873 64.288 Q 437.847 64.912 437.847 65.853 Z M 439.438 75.82 Q 439.341 75.82 439.341 75.723 L 439.341 74.027 Q 439.341 73.93 439.438 73.93 L 441.143 73.93 Q 441.231 73.93 441.231 74.027 L 441.231 75.723 Q 441.231 75.82 441.143 75.82 Z M 447.162 72.357 Q 447.056 72.357 447.056 72.251 L 447.056 59.657 Q 447.056 59.551 447.162 59.551 L 449.069 59.551 Q 449.175 59.551 449.175 59.657 L 449.175 72.251 Q 449.175 72.357 449.069 72.357 Z" transform="matrix(1.310387, 0, 0, 1.310387, -59.698296, -1.169035)" style="fill: rgb(255, 255, 255); text-wrap-mode: nowrap;"/>
    <path d="M 426.152 119.118 Q 426.045 119.118 426.045 119.011 L 426.045 106.277 Q 426.045 106.17 426.152 106.17 L 434.292 106.17 Q 434.399 106.17 434.399 106.277 L 434.399 108.107 Q 434.399 108.214 434.292 108.214 L 428.187 108.214 L 428.187 111.626 L 433.377 111.626 Q 433.484 111.626 433.484 111.733 L 433.484 113.457 Q 433.484 113.555 433.377 113.555 L 428.187 113.555 L 428.187 117.092 L 434.292 117.092 Q 434.399 117.092 434.399 117.198 L 434.399 119.011 Q 434.399 119.118 434.292 119.118 Z M 442.571 119.118 Q 442.517 119.118 442.482 119.065 L 439.78 114.479 Q 439.105 115.634 438.429 116.772 Q 437.754 117.909 437.079 119.065 Q 437.043 119.118 436.99 119.118 L 434.813 119.118 Q 434.741 119.118 434.715 119.069 Q 434.688 119.02 434.724 118.958 L 438.589 112.48 Q 437.674 110.933 436.776 109.405 Q 435.879 107.876 434.972 106.33 Q 434.937 106.268 434.964 106.219 Q 434.99 106.17 435.052 106.17 L 437.239 106.17 Q 437.292 106.17 437.327 106.223 L 439.78 110.489 Q 440.393 109.422 441.007 108.361 Q 441.62 107.299 442.233 106.223 Q 442.268 106.17 442.322 106.17 L 444.508 106.17 Q 444.57 106.17 444.597 106.219 Q 444.623 106.268 444.588 106.33 L 440.971 112.48 Q 441.949 114.106 442.908 115.719 Q 443.868 117.332 444.846 118.958 Q 444.881 119.02 444.855 119.069 Q 444.828 119.118 444.757 119.118 Z M 448.15 108.214 L 448.15 112.106 L 450.914 112.106 Q 451.936 112.106 452.433 111.493 Q 452.94 110.898 452.94 110.16 Q 452.94 109.058 452.158 108.552 Q 451.651 108.214 450.843 108.214 Z M 446.115 119.118 Q 446.008 119.118 446.008 119.011 L 446.008 106.277 Q 446.008 106.17 446.115 106.17 L 450.736 106.17 Q 451.5 106.17 452.184 106.33 Q 452.878 106.49 453.66 107.094 Q 453.962 107.334 454.215 107.65 Q 454.468 107.965 454.673 108.347 Q 454.868 108.738 454.975 109.209 Q 455.081 109.68 455.081 110.213 Q 455.081 111.609 454.033 112.879 Q 452.984 114.141 450.985 114.141 L 448.15 114.141 L 448.15 119.011 Q 448.15 119.118 448.043 119.118 Z M 458.767 108.098 L 458.767 111.751 L 461.584 111.751 Q 462.615 111.751 463.13 111.182 Q 463.646 110.613 463.646 109.831 Q 463.646 109.387 463.49 109.04 Q 463.335 108.694 463.041 108.472 Q 462.784 108.294 462.441 108.196 Q 462.099 108.098 461.699 108.098 Z M 456.732 119.118 Q 456.625 119.118 456.625 119.011 L 456.625 106.277 Q 456.625 106.17 456.732 106.17 L 461.717 106.17 Q 462.544 106.17 463.21 106.397 Q 463.877 106.623 464.374 107.041 Q 464.632 107.281 464.868 107.587 Q 465.103 107.894 465.285 108.249 Q 465.467 108.605 465.574 109.005 Q 465.681 109.405 465.681 109.831 Q 465.681 110.462 465.503 111.027 Q 465.325 111.591 465.005 112.08 Q 464.676 112.533 464.241 112.875 Q 463.806 113.217 463.255 113.422 Q 463.974 114.799 464.703 116.19 Q 465.432 117.58 466.152 118.958 Q 466.178 119.02 466.152 119.069 Q 466.125 119.118 466.063 119.118 L 463.77 119.118 Q 463.743 119.118 463.717 119.096 Q 463.69 119.073 463.672 119.056 L 461.068 113.679 L 458.767 113.679 L 458.767 119.011 Q 458.767 119.118 458.66 119.118 Z M 467.661 119.118 Q 467.554 119.118 467.554 119.011 L 467.554 106.277 Q 467.554 106.17 467.661 106.17 L 475.801 106.17 Q 475.908 106.17 475.908 106.277 L 475.908 108.107 Q 475.908 108.214 475.801 108.214 L 469.696 108.214 L 469.696 111.626 L 474.886 111.626 Q 474.993 111.626 474.993 111.733 L 474.993 113.457 Q 474.993 113.555 474.886 113.555 L 469.696 113.555 L 469.696 117.092 L 475.801 117.092 Q 475.908 117.092 475.908 117.198 L 475.908 119.011 Q 475.908 119.118 475.801 119.118 Z M 477.686 115.848 Q 477.712 115.812 477.757 115.812 Q 477.801 115.812 477.837 115.839 Q 478.539 116.407 479.45 116.75 Q 480.36 117.092 481.374 117.092 Q 482.511 117.092 483.169 116.621 Q 483.791 116.167 483.791 115.421 Q 483.791 114.017 482.218 113.804 L 482.227 113.804 Q 482.005 113.777 481.805 113.75 Q 481.605 113.724 481.405 113.697 Q 481.205 113.67 480.996 113.639 Q 480.787 113.608 480.538 113.573 Q 479.703 113.457 479.05 113.15 Q 478.396 112.844 477.952 112.337 Q 477.508 111.822 477.286 111.213 Q 477.063 110.604 477.063 109.885 Q 477.063 108.196 478.183 107.139 Q 479.312 106.063 481.32 106.063 Q 481.916 106.063 482.48 106.165 Q 483.044 106.268 483.573 106.445 Q 484.102 106.623 484.586 106.868 Q 485.07 107.112 485.515 107.405 Q 485.604 107.467 485.541 107.556 L 484.466 109.147 Q 484.404 109.227 484.324 109.174 Q 483.631 108.738 482.849 108.476 Q 482.067 108.214 481.231 108.214 Q 480.805 108.214 480.44 108.316 Q 480.076 108.418 479.783 108.649 Q 479.205 109.067 479.205 109.92 Q 479.205 110.409 479.596 110.871 Q 479.792 111.084 480.121 111.231 Q 480.449 111.378 480.929 111.449 Q 481.187 111.493 481.534 111.542 Q 481.88 111.591 482.351 111.644 Q 484.173 111.866 485.053 112.986 Q 485.932 114.079 485.932 115.421 Q 485.932 117.216 484.679 118.229 Q 483.417 119.225 481.356 119.225 Q 478.45 119.225 476.415 117.447 Q 476.379 117.421 476.379 117.376 Q 476.379 117.332 476.406 117.296 Z M 487.955 115.848 Q 487.982 115.812 488.027 115.812 Q 488.071 115.812 488.107 115.839 Q 488.809 116.407 489.719 116.75 Q 490.63 117.092 491.643 117.092 Q 492.781 117.092 493.439 116.621 Q 494.061 116.167 494.061 115.421 Q 494.061 114.017 492.488 113.804 L 492.497 113.804 Q 492.274 113.777 492.074 113.75 Q 491.874 113.724 491.675 113.697 Q 491.475 113.67 491.266 113.639 Q 491.057 113.608 490.808 113.573 Q 489.973 113.457 489.32 113.15 Q 488.666 112.844 488.222 112.337 Q 487.778 111.822 487.556 111.213 Q 487.333 110.604 487.333 109.885 Q 487.333 108.196 488.453 107.139 Q 489.582 106.063 491.59 106.063 Q 492.186 106.063 492.75 106.165 Q 493.314 106.268 493.843 106.445 Q 494.372 106.623 494.856 106.868 Q 495.34 107.112 495.785 107.405 Q 495.873 107.467 495.811 107.556 L 494.736 109.147 Q 494.674 109.227 494.594 109.174 Q 493.901 108.738 493.119 108.476 Q 492.337 108.214 491.501 108.214 Q 491.075 108.214 490.71 108.316 Q 490.346 108.418 490.053 108.649 Q 489.475 109.067 489.475 109.92 Q 489.475 110.409 489.866 110.871 Q 490.062 111.084 490.39 111.231 Q 490.719 111.378 491.199 111.449 Q 491.457 111.493 491.803 111.542 Q 492.15 111.591 492.621 111.644 Q 494.443 111.866 495.323 112.986 Q 496.202 114.079 496.202 115.421 Q 496.202 117.216 494.949 118.229 Q 493.687 119.225 491.626 119.225 Q 488.72 119.225 486.685 117.447 Q 486.649 117.421 486.649 117.376 Q 486.649 117.332 486.676 117.296 Z M 500.211 119.118 Q 500.123 119.118 500.105 119.038 L 496.914 106.303 Q 496.897 106.25 496.932 106.21 Q 496.968 106.17 497.021 106.17 L 499.065 106.17 Q 499.154 106.17 499.172 106.25 L 501.091 114.95 Q 501.678 112.764 502.273 110.604 Q 502.869 108.445 503.464 106.25 Q 503.482 106.17 503.571 106.17 L 504.966 106.17 Q 505.046 106.17 505.064 106.25 L 507.445 114.95 Q 507.925 112.764 508.405 110.604 Q 508.885 108.445 509.365 106.25 Q 509.382 106.17 509.471 106.17 L 511.515 106.17 Q 511.569 106.17 511.604 106.21 Q 511.64 106.25 511.622 106.303 L 508.432 119.038 Q 508.414 119.118 508.325 119.118 L 506.716 119.118 Q 506.636 119.118 506.619 119.038 L 504.264 110.196 Q 503.677 112.426 503.091 114.621 Q 502.504 116.816 501.918 119.038 Q 501.9 119.118 501.82 119.118 Z M 511.536 119.109 Q 511.473 119.109 511.447 119.065 Q 511.42 119.02 511.438 118.967 L 516.095 106.223 Q 516.112 106.152 516.183 106.152 L 517.774 106.152 Q 517.801 106.152 517.832 106.174 Q 517.863 106.197 517.872 106.223 L 522.52 118.967 Q 522.537 119.02 522.511 119.065 Q 522.484 119.109 522.431 119.109 L 520.396 119.109 Q 520.325 119.109 520.307 119.038 L 519.347 116.23 L 514.655 116.23 Q 514.406 116.95 514.162 117.638 Q 513.917 118.327 513.668 119.038 Q 513.66 119.065 513.628 119.087 Q 513.597 119.109 513.571 119.109 Z M 518.707 114.319 Q 518.689 114.257 518.658 114.186 Q 518.627 114.115 518.609 114.061 Q 518.458 113.626 518.334 113.257 Q 518.21 112.888 518.112 112.613 Q 518.05 112.435 517.992 112.266 Q 517.934 112.097 517.881 111.946 Q 517.836 111.804 517.792 111.675 Q 517.747 111.546 517.703 111.422 Q 517.623 111.164 517.539 110.907 Q 517.454 110.649 517.365 110.373 Q 517.321 110.249 517.272 110.098 Q 517.223 109.947 517.17 109.778 Q 517.143 109.689 517.13 109.64 Q 517.117 109.591 517.099 109.542 Q 517.081 109.494 517.059 109.431 Q 517.037 109.369 517.001 109.254 Q 516.903 109.547 516.819 109.796 Q 516.734 110.045 516.663 110.258 Q 516.646 110.311 516.637 110.356 Q 516.628 110.4 516.61 110.444 Q 516.566 110.596 516.517 110.729 Q 516.468 110.862 516.423 110.995 Q 516.379 111.138 516.334 111.271 Q 516.29 111.404 516.246 111.529 Q 516.157 111.795 516.063 112.088 Q 515.97 112.382 515.855 112.702 Q 515.739 113.022 515.615 113.39 Q 515.49 113.759 515.295 114.319 Z M 525.5 119.118 Q 525.402 119.118 525.402 119.011 L 525.402 113.804 Q 524.443 111.929 523.492 110.062 Q 522.541 108.196 521.59 106.321 Q 521.563 106.259 521.59 106.214 Q 521.617 106.17 521.688 106.17 L 523.714 106.17 Q 523.741 106.17 523.767 106.192 Q 523.794 106.214 523.812 106.232 L 526.424 111.689 Q 527.082 110.311 527.726 108.96 Q 528.371 107.61 529.028 106.232 Q 529.046 106.214 529.073 106.192 Q 529.099 106.17 529.126 106.17 L 531.161 106.17 Q 531.232 106.17 531.259 106.214 Q 531.285 106.259 531.259 106.321 L 527.437 113.804 L 527.437 119.011 Q 527.437 119.118 527.331 119.118 Z" style="fill: rgb(255, 255, 255); text-wrap-mode: nowrap;"/>
    <path d="M 341.366 84.558 Q 341.438 84.558 341.486 84.612 Q 341.534 84.666 341.51 84.738 Q 341.005 87.189 339.276 88.51 Q 338.435 89.147 337.45 89.471 Q 336.465 89.795 335.324 89.795 Q 333.246 89.795 331.828 88.798 Q 330.435 87.813 329.81 86.636 Q 329.594 86.228 329.438 85.813 Q 329.282 85.399 329.198 84.942 Q 329.042 84.054 329.042 80.906 Q 329.042 79.333 329.078 78.336 Q 329.114 77.339 329.198 76.883 Q 329.282 76.426 329.438 76.006 Q 329.594 75.585 329.81 75.177 Q 330.435 74.012 331.828 73.015 Q 333.234 72.006 335.324 72.006 Q 337.822 72.006 339.456 73.543 Q 341.113 75.093 341.51 77.219 Q 341.534 77.291 341.486 77.339 Q 341.438 77.387 341.366 77.387 L 338.615 77.387 Q 338.507 77.387 338.483 77.291 Q 338.327 76.81 338.038 76.396 Q 337.75 75.982 337.33 75.621 Q 336.537 74.913 335.324 74.913 Q 334.423 74.913 333.786 75.273 Q 333.15 75.633 332.765 76.102 Q 332.537 76.39 332.369 76.756 Q 332.201 77.123 332.105 77.507 Q 332.008 77.916 331.972 78.768 Q 331.936 79.621 331.936 80.906 Q 331.936 82.216 331.972 83.063 Q 332.008 83.909 332.105 84.318 Q 332.201 84.69 332.375 85.057 Q 332.549 85.423 332.765 85.699 Q 333.15 86.204 333.786 86.558 Q 334.423 86.912 335.324 86.912 Q 337.402 86.912 338.483 84.642 Q 338.507 84.618 338.543 84.588 Q 338.579 84.558 338.615 84.558 Z M 346.396 89.651 Q 346.252 89.651 346.252 89.507 L 346.252 74.756 L 341.676 74.756 Q 341.532 74.756 341.532 74.612 L 341.532 72.294 Q 341.532 72.15 341.676 72.15 L 353.711 72.15 Q 353.856 72.15 353.856 72.294 L 353.856 74.612 Q 353.856 74.756 353.711 74.756 L 349.147 74.756 L 349.147 89.507 Q 349.147 89.651 349.003 89.651 Z M 354.222 89.651 Q 354.078 89.651 354.078 89.507 L 354.078 87.068 Q 354.078 86.924 354.222 86.924 L 356.672 86.924 Q 356.804 86.924 356.804 87.068 L 356.804 89.507 Q 356.804 89.651 356.672 89.651 Z M 361.364 81.915 Q 361.219 81.915 361.219 81.771 L 361.219 79.621 Q 361.219 79.477 361.364 79.477 L 362.204 79.477 Q 363.369 79.477 364.042 78.828 Q 364.703 78.204 364.703 77.183 Q 364.703 76.222 364.018 75.537 Q 363.333 74.853 362.348 74.853 Q 361.628 74.853 360.967 75.345 Q 360.307 75.826 360.126 76.798 Q 360.114 76.847 360.072 76.883 Q 360.03 76.919 359.994 76.919 L 357.532 76.919 Q 357.472 76.919 357.43 76.871 Q 357.388 76.822 357.4 76.762 Q 357.52 74.925 358.961 73.507 Q 360.379 72.114 362.252 72.114 Q 363.418 72.114 364.36 72.51 Q 365.303 72.907 366.024 73.675 Q 366.709 74.432 367.075 75.315 Q 367.441 76.198 367.441 77.135 Q 367.441 78.156 367.045 79.129 Q 366.853 79.561 366.517 79.946 Q 366.18 80.33 365.724 80.666 Q 366.685 81.351 367.153 82.312 Q 367.634 83.345 367.634 84.414 Q 367.634 86.852 366.084 88.342 Q 364.559 89.795 362.3 89.795 Q 361.4 89.795 360.601 89.507 Q 359.802 89.219 359.069 88.642 Q 358.349 88.053 357.91 87.225 Q 357.472 86.396 357.304 85.279 Q 357.28 85.123 357.448 85.123 L 359.898 85.123 Q 359.982 85.123 360.03 85.219 Q 360.186 85.639 360.397 85.975 Q 360.607 86.312 360.895 86.558 Q 361.183 86.804 361.562 86.936 Q 361.94 87.068 362.445 87.068 Q 363.394 87.068 364.15 86.384 Q 364.895 85.723 364.895 84.498 Q 364.895 83.273 364.15 82.612 Q 363.394 81.915 362.397 81.915 Z M 372.401 77.159 Q 372.401 78.312 373.097 78.889 Q 373.83 79.477 374.707 79.477 Q 375.584 79.477 376.304 78.889 Q 377.025 78.3 377.025 77.159 Q 377.025 76.042 376.304 75.453 Q 375.62 74.853 374.707 74.853 Q 373.818 74.853 373.097 75.453 Q 372.401 76.03 372.401 77.159 Z M 369.362 84.522 Q 369.362 83.285 369.848 82.324 Q 370.335 81.363 371.284 80.666 Q 370.551 79.982 370.106 79.153 Q 369.662 78.324 369.662 77.207 Q 369.662 75.081 371.103 73.603 Q 372.581 72.114 374.707 72.114 Q 376.845 72.114 378.298 73.603 Q 379.764 75.105 379.764 77.207 Q 379.764 77.759 379.644 78.24 Q 379.524 78.72 379.307 79.147 Q 379.091 79.573 378.791 79.952 Q 378.491 80.33 378.142 80.666 Q 380.064 82.048 380.064 84.522 Q 380.064 85.675 379.662 86.636 Q 379.259 87.597 378.467 88.342 Q 377.686 89.038 376.737 89.417 Q 375.788 89.795 374.707 89.795 Q 372.509 89.795 370.947 88.342 Q 369.362 86.852 369.362 84.522 Z M 372.088 84.498 Q 372.088 85.051 372.299 85.519 Q 372.509 85.987 372.869 86.336 Q 373.674 87.068 374.707 87.068 Q 375.74 87.068 376.545 86.336 Q 376.929 85.975 377.133 85.513 Q 377.337 85.051 377.337 84.498 Q 377.337 83.381 376.545 82.66 Q 375.764 81.915 374.707 81.915 Q 373.674 81.915 372.869 82.66 Q 372.088 83.381 372.088 84.498 Z" style="text-wrap-mode: nowrap;"/>
    <path d="M 394.303 191.656 Q 394.104 191.656 394.104 191.457 L 394.104 171.735 Q 393.34 172.299 392.577 172.872 Q 391.813 173.444 391.049 173.992 Q 390.933 174.075 390.834 174.017 Q 390.734 173.959 390.734 173.826 L 390.734 170.224 Q 390.734 170.191 390.759 170.141 Q 390.784 170.091 390.817 170.058 L 394.237 167.584 L 397.707 167.584 Q 397.906 167.584 397.906 167.783 L 397.906 191.457 Q 397.906 191.656 397.707 191.656 Z M 401.305 191.607 Q 401.106 191.607 401.106 191.407 L 401.106 188.17 L 410.403 176.532 L 410.403 176.549 Q 410.917 175.902 411.067 175.362 Q 411.216 174.822 411.216 174.308 Q 411.216 173.162 410.386 172.15 Q 409.556 171.153 408.145 171.153 Q 406.85 171.153 405.904 172.033 Q 405.439 172.465 405.198 173.054 Q 404.957 173.644 404.891 174.391 Q 404.891 174.474 404.833 174.524 Q 404.775 174.573 404.692 174.573 L 401.305 174.573 Q 401.106 174.573 401.106 174.374 Q 401.139 171.419 403.115 169.41 Q 405.123 167.368 407.896 167.368 Q 410.901 167.368 412.959 169.427 L 412.943 169.427 Q 414.985 171.469 414.985 174.341 Q 414.985 175.586 414.619 176.649 Q 414.254 177.711 413.524 178.624 L 413.524 178.608 Q 412.577 179.803 411.664 180.948 Q 410.751 182.094 409.838 183.231 Q 408.925 184.368 408.012 185.506 Q 407.099 186.643 406.153 187.838 L 414.785 187.838 Q 414.985 187.838 414.985 188.037 L 414.985 191.407 Q 414.985 191.607 414.785 191.607 Z M 427.671 174.573 Q 427.671 172.963 426.816 172.058 Q 425.961 171.153 424.534 171.153 Q 423.106 171.153 422.259 172.058 Q 421.413 172.963 421.413 174.573 L 421.413 184.617 Q 421.413 186.244 422.259 187.141 Q 423.106 188.037 424.534 188.037 Q 425.961 188.037 426.816 187.141 Q 427.671 186.244 427.671 184.617 Z M 417.627 174.374 Q 417.627 171.021 419.736 169.211 Q 421.828 167.368 424.534 167.368 Q 425.878 167.368 427.082 167.841 Q 428.286 168.315 429.331 169.211 Q 430.377 170.141 430.917 171.427 Q 431.456 172.714 431.456 174.374 L 431.456 184.817 Q 431.456 188.153 429.331 189.98 Q 427.24 191.806 424.534 191.806 Q 421.828 191.806 419.736 189.98 Q 417.627 188.17 417.627 184.817 Z" style="text-wrap-mode: nowrap;"/>
    <path d="M 505.003 174.391 Q 505.02 172.731 505.568 171.427 Q 506.116 170.124 507.112 169.194 Q 508.058 168.331 509.237 167.858 Q 510.415 167.385 511.71 167.385 Q 514.068 167.385 515.977 168.796 Q 517.77 170.224 518.318 172.913 Q 518.351 173.013 518.285 173.079 Q 518.218 173.146 518.119 173.146 L 514.715 173.146 Q 514.582 173.146 514.533 173.029 Q 513.786 171.203 511.694 171.153 Q 508.689 171.236 508.689 174.607 L 508.689 176.566 Q 509.768 176.25 510.839 176.068 Q 511.91 175.885 512.873 175.902 Q 515.197 175.902 516.857 177.528 Q 518.451 179.205 518.434 182.692 L 518.434 184.85 Q 518.384 188.253 516.409 190.029 Q 514.549 191.789 511.71 191.872 Q 508.955 191.789 507.112 190.046 Q 505.02 188.22 505.003 184.866 Z M 508.689 184.667 Q 508.706 188.07 511.71 188.104 Q 514.649 188.087 514.765 184.667 L 514.765 182.725 Q 514.632 179.355 511.71 179.288 Q 508.706 179.371 508.689 182.725 Z M 531.13 174.573 Q 531.13 172.963 530.275 172.058 Q 529.42 171.153 527.993 171.153 Q 526.565 171.153 525.718 172.058 Q 524.872 172.963 524.872 174.573 L 524.872 184.617 Q 524.872 186.244 525.718 187.141 Q 526.565 188.037 527.993 188.037 Q 529.42 188.037 530.275 187.141 Q 531.13 186.244 531.13 184.617 Z M 521.086 174.374 Q 521.086 171.021 523.195 169.211 Q 525.287 167.368 527.993 167.368 Q 529.337 167.368 530.541 167.841 Q 531.745 168.315 532.791 169.211 Q 533.836 170.141 534.376 171.427 Q 534.916 172.714 534.916 174.374 L 534.916 184.817 Q 534.916 188.153 532.791 189.98 Q 530.699 191.806 527.993 191.806 Q 525.287 191.806 523.195 189.98 Q 521.086 188.17 521.086 184.817 Z" style="fill: rgb(255, 255, 255); text-wrap-mode: nowrap;"/>
  </g>
</svg>