<?xml version="1.0" encoding="UTF-8" standalone="no"?>
<!-- Created with Inkscape (http://www.inkscape.org/) -->

<svg
   width="1601.7614mm"
   height="1000mm"
   viewBox="0 0 1601.7614 1000"
   version="1.1"
   id="svg848"
   inkscape:version="1.2.2 (732a01da63, 2022-12-09)"
   sodipodi:docname="Vietnam_road_sign_I44b.svg"
   xmlns:inkscape="http://www.inkscape.org/namespaces/inkscape"
   xmlns:sodipodi="http://sodipodi.sourceforge.net/DTD/sodipodi-0.dtd"
   xmlns="http://www.w3.org/2000/svg"
   xmlns:svg="http://www.w3.org/2000/svg"
   xmlns:rdf="http://www.w3.org/1999/02/22-rdf-syntax-ns#"
   xmlns:cc="http://creativecommons.org/ns#"
   xmlns:dc="http://purl.org/dc/elements/1.1/">
  <defs
     id="defs842">
    <clipPath
       id="clip-44-2">
      <path
         clip-rule="nonzero"
         d="M 1.5,1.980469 H 506 V 443 H 1.5 Z m 0,0"
         id="path138172" />
    </clipPath>
    <clipPath
       id="clip-45-2">
      <path
         clip-rule="nonzero"
         d="M 1.5,1.980469 H 522 V 443 H 1.5 Z m 0,0"
         id="path138175" />
    </clipPath>
    <clipPath
       id="clip-46-8">
      <path
         clip-rule="nonzero"
         d="M 7,1.980469 H 539 V 443 H 7 Z m 0,0"
         id="path138178" />
    </clipPath>
    <clipPath
       id="clip-47-8">
      <path
         clip-rule="nonzero"
         d="M 24,1.980469 H 555 V 443 H 24 Z m 0,0"
         id="path138181" />
    </clipPath>
    <clipPath
       id="clip-49-4">
      <path
         clip-rule="nonzero"
         d="M 45,1.980469 H 576 V 443 H 45 Z m 0,0"
         id="path138187" />
    </clipPath>
    <clipPath
       id="clip-50-6">
      <path
         clip-rule="nonzero"
         d="M 59,1.980469 H 591 V 443 H 59 Z m 0,0"
         id="path138190" />
    </clipPath>
    <clipPath
       id="clip-52-8">
      <path
         clip-rule="nonzero"
         d="M 82,1.980469 H 610.73828 V 443 H 82 Z m 0,0"
         id="path138196" />
    </clipPath>
    <clipPath
       clipPathUnits="userSpaceOnUse"
       id="clipPath35327">
      <g
         id="g35331"
         transform="translate(104.41316,283.31351)">
        <path
           clip-rule="nonzero"
           d="m -102.91316,-185.31351 h 494.5 v 532 h -494.5 z m 0,0"
           id="path35329" />
      </g>
    </clipPath>
    <clipPath
       clipPathUnits="userSpaceOnUse"
       id="clipPath35299">
      <g
         id="g35303"
         transform="translate(104.41316,283.31351)">
        <path
           clip-rule="nonzero"
           d="m -102.91316,-185.31351 h 510.5 v 532 h -510.5 z m 0,0"
           id="path35301" />
      </g>
    </clipPath>
    <clipPath
       clipPathUnits="userSpaceOnUse"
       id="clipPath35314">
      <g
         id="g35318"
         transform="translate(104.41316,283.31351)">
        <path
           clip-rule="nonzero"
           d="m -102.91316,-185.31351 h 527.5 v 532 h -527.5 z m 0,0"
           id="path35316" />
      </g>
    </clipPath>
  </defs>
  <sodipodi:namedview
     id="base"
     pagecolor="#ffffff"
     bordercolor="#666666"
     borderopacity="1.0"
     inkscape:pageopacity="0.0"
     inkscape:pageshadow="2"
     inkscape:zoom="0.072496858"
     inkscape:cx="3220.8292"
     inkscape:cy="862.10633"
     inkscape:document-units="mm"
     inkscape:current-layer="layer1"
     showgrid="false"
     inkscape:snap-global="false"
     inkscape:window-width="1920"
     inkscape:window-height="991"
     inkscape:window-x="-9"
     inkscape:window-y="-9"
     inkscape:window-maximized="1"
     fit-margin-top="0"
     fit-margin-left="0"
     fit-margin-right="0"
     fit-margin-bottom="0"
     showguides="false"
     inkscape:measure-start="0,0"
     inkscape:measure-end="0,0"
     inkscape:showpageshadow="2"
     inkscape:pagecheckerboard="0"
     inkscape:deskcolor="#d1d1d1" />
  <metadata
     id="metadata845">
    <rdf:RDF>
      <cc:Work
         rdf:about="">
        <dc:format>image/svg+xml</dc:format>
        <dc:type
           rdf:resource="http://purl.org/dc/dcmitype/StillImage" />
      </cc:Work>
    </rdf:RDF>
  </metadata>
  <g
     inkscape:label="Layer 1"
     inkscape:groupmode="layer"
     id="layer1"
     transform="translate(-1524.939,691.93915)">
    <path
       cx="150"
       cy="147"
       r="150"
       id="path8376"
       style="opacity:1;fill:#d35f5f;fill-opacity:1;fill-rule:nonzero;stroke:none;stroke-width:3.92256;stroke-linecap:butt;stroke-linejoin:miter;stroke-miterlimit:4;stroke-dasharray:none;stroke-opacity:1;paint-order:stroke fill markers"
       d=""
       inkscape:connector-curvature="0" />
    <path
       id="rect1393-4"
       style="opacity:1;fill:#0046aa;stroke-width:5.0751;stroke-miterlimit:10;paint-order:stroke fill markers"
       d="m 1524.939,-691.93915 h 1601.7613 v 1000 H 1524.939 Z"
       sodipodi:nodetypes="ccccc" />
    <path
       id="rect1395-2"
       style="opacity:1;fill:#ffffff;fill-opacity:1;fill-rule:nonzero;stroke:none;stroke-width:5.03159;stroke-linecap:butt;stroke-linejoin:miter;stroke-miterlimit:10;stroke-dasharray:none;stroke-opacity:1;paint-order:stroke fill markers"
       d="m 1529.9984,-686.87944 v 989.88102 h 1591.6423 v -989.88102 z m 10.1191,10.11922 H 3111.5218 V 292.88169 H 1540.1175 Z"
       sodipodi:nodetypes="cccccccccc" />
    <path
       id="rect8743"
       style="opacity:1;fill:#ffffff;fill-opacity:1;fill-rule:evenodd;stroke-width:449.849;stroke-linecap:round;stroke-linejoin:round;paint-order:stroke fill markers"
       d="m 2224.9515,-372.05316 -99.5179,200.0137 h 49.7489 v 79.7707 l -151.2669,151.2655 -17.958,-17.9579 -35.927,108.4454 108.108,-36.2646 -17.958,-17.958 115.0019,-115.0011 v 277.5644 h 100.483 v -69.5771 l 150.3709,-150.3706 17.958,17.9463 35.927,-108.4454 -108.1079,36.2765 17.958,17.958 -114.106,114.0944 v -287.7465 h 49.746 z" />
    <g
       fill="#ffffff"
       fill-opacity="1"
       id="g4003"
       transform="matrix(7.934839,0,0,7.934839,-83.67856,-4736.4976)"
       style="opacity:1;fill:#ffffff">
      <g
         id="use4001"
         transform="translate(273.2688,550.27618)"
         style="fill:#ffffff">
        <path
           d="m 3.097656,-5.550781 c -0.066406,0 -0.101562,-0.035157 -0.101562,-0.105469 v -1.542969 c 0,-0.070312 0.035156,-0.105469 0.101562,-0.105469 h 0.605469 c 0.558594,0 0.996094,-0.152343 1.320313,-0.464843 C 5.339844,-8.066406 5.5,-8.460938 5.5,-8.953125 5.5,-9.410156 5.335938,-9.804688 5.007813,-10.132813 4.679688,-10.460938 4.28125,-10.625 3.808594,-10.625 c -0.347656,0 -0.675781,0.113281 -0.996094,0.351562 -0.3125,0.230469 -0.515625,0.578125 -0.601562,1.046875 -0.00391,0.019532 -0.019532,0.042969 -0.039063,0.058594 -0.019531,0.015625 -0.039062,0.027344 -0.058594,0.027344 H 0.34375 c -0.023437,0 -0.050781,-0.011719 -0.070312,-0.035156 C 0.253906,-9.199219 0.242188,-9.222656 0.25,-9.253906 c 0.054688,-0.878907 0.433594,-1.65625 1.121094,-2.339844 0.679687,-0.664063 1.46875,-1 2.367187,-1 0.554688,0 1.0625,0.09375 1.515625,0.285156 0.449219,0.1875 0.847657,0.464844 1.195313,0.835938 0.328125,0.363281 0.578125,0.753906 0.753906,1.179687 0.171875,0.421875 0.265625,0.859375 0.265625,1.304688 0,0.488281 -0.097656,0.96875 -0.285156,1.433593 -0.09375,0.207032 -0.21875,0.402344 -0.382813,0.589844 -0.15625,0.179688 -0.347656,0.351563 -0.566406,0.515625 0.457031,0.328125 0.800781,0.722656 1.027344,1.183594 0.226562,0.492187 0.34375,0.996094 0.34375,1.511719 0,1.164062 -0.371094,2.105468 -1.113281,2.820312 -0.730469,0.695313 -1.636719,1.046875 -2.71875,1.046875 -0.433594,0 -0.839844,-0.0703122 -1.222657,-0.207031 C 2.171875,-0.234375 1.804688,-0.441406 1.449219,-0.714844 1.105469,-0.996094 0.828125,-1.339844 0.617188,-1.734375 0.410156,-2.132813 0.261719,-2.597656 0.179688,-3.132813 0.171875,-3.207031 0.203125,-3.246094 0.285156,-3.246094 h 1.761719 c 0.039063,0 0.066406,0.023438 0.09375,0.070313 0.074219,0.199218 0.160156,0.378906 0.261719,0.542968 0.101562,0.160157 0.222656,0.296875 0.359375,0.417969 0.140625,0.117188 0.296875,0.207031 0.480469,0.273438 0.179687,0.058593 0.390625,0.09375 0.632812,0.09375 0.453125,0 0.863281,-0.164063 1.226563,-0.492188 0.355468,-0.316406 0.535156,-0.769531 0.535156,-1.355469 0,-0.585937 -0.175781,-1.035156 -0.535156,-1.355468 -0.363282,-0.332032 -0.78125,-0.5 -1.261719,-0.5 H 3.097656"
           id="path10712"
           style="fill:#ffffff" />
      </g>
    </g>
    <g
       fill="#ffffff"
       fill-opacity="1"
       id="g4007"
       transform="matrix(7.934839,0,0,7.934839,-83.67856,-4736.4976)"
       style="opacity:1;fill:#ffffff">
      <g
         id="use4005"
         transform="translate(281.87006,550.27618)"
         style="fill:#ffffff">
        <path
           d="m 5.835938,-8.847656 c 0,-0.558594 -0.148438,-0.992188 -0.445313,-1.308594 -0.292969,-0.3125 -0.691406,-0.46875 -1.1875,-0.46875 -0.492187,0 -0.886719,0.152344 -1.179687,0.46875 -0.296875,0.3125 -0.441407,0.746094 -0.441407,1.308594 V -3.625 c 0,0.558594 0.144532,1 0.441407,1.3125 0.292968,0.308594 0.683593,0.464844 1.179687,0.464844 0.492188,0 0.890625,-0.15625 1.1875,-0.464844 C 5.683594,-2.625 5.835938,-3.058594 5.835938,-3.625 V -8.847656 M 0.613281,-8.953125 c 0,-1.160156 0.363282,-2.054688 1.097657,-2.683594 0.722656,-0.640625 1.550781,-0.957031 2.492187,-0.957031 0.46875,0 0.90625,0.08203 1.328125,0.246094 0.414063,0.164062 0.804688,0.398437 1.167969,0.710937 0.363281,0.320313 0.632812,0.703125 0.824219,1.152344 0.1875,0.445312 0.28125,0.953125 0.28125,1.53125 v 5.429687 c 0,1.15625 -0.367188,2.050782 -1.105469,2.6875 -0.726563,0.628907 -1.554688,0.949219 -2.496094,0.949219 -0.933594,0 -1.769531,-0.316406 -2.492187,-0.949219 -0.730469,-0.628906 -1.097657,-1.519531 -1.097657,-2.6875 v -5.429687"
           id="path10704"
           style="fill:#ffffff" />
      </g>
    </g>
    <g
       fill="#ffffff"
       fill-opacity="1"
       id="g4015"
       transform="matrix(7.934839,0,0,7.934839,-83.67856,-4736.4976)"
       style="opacity:1;fill:#ffffff">
      <g
         id="use4013"
         transform="translate(294.53772,550.27618)"
         style="fill:#ffffff">
        <path
           d="m 1.21875,0.0078125 c -0.070312,0 -0.105469,-0.0351563 -0.105469,-0.1015625 v -12.285156 c 0,-0.07031 0.035157,-0.105469 0.105469,-0.105469 h 1.757813 c 0.070312,0 0.105468,0.03516 0.105468,0.105469 v 7.40625 C 3.621094,-5.632813 4.15625,-6.289063 4.691406,-6.945313 5.222656,-7.597656 5.757813,-8.253906 6.300781,-8.917969 6.324219,-8.9375 6.347656,-8.953125 6.378906,-8.953125 h 2.105469 c 0.042969,0 0.078125,0.019531 0.097656,0.0625 C 8.597656,-8.851563 8.59375,-8.8125 8.5625,-8.777344 l -2.96875,3.375 c 0.570313,0.882813 1.136719,1.757813 1.695313,2.628906 0.5625,0.863282 1.128906,1.738282 1.699218,2.625 0.019532,0.039063 0.023438,0.0742192 0.00781,0.1093755 -0.019531,0.03125 -0.046875,0.046875 -0.09375,0.046875 H 6.691406 c -0.035156,0 -0.0625,-0.015625 -0.085937,-0.0507813 L 4.351563,-4.003906 C 4.144531,-3.765625 3.933594,-3.527344 3.714844,-3.289063 3.5,-3.054688 3.289063,-2.8125 3.082031,-2.574219 v 2.480469 c 0,0.0664062 -0.035156,0.1015625 -0.105468,0.1015625 H 1.21875"
           id="path10692"
           style="fill:#ffffff" />
      </g>
    </g>
    <g
       fill="#ffffff"
       fill-opacity="1"
       id="g4019"
       transform="matrix(7.934839,0,0,7.934839,-83.67856,-4736.4976)"
       style="opacity:1;fill:#ffffff">
      <g
         id="use4017"
         transform="translate(303.61633,550.27618)"
         style="fill:#ffffff">
        <path
           d="m 1.347656,0.0078125 c -0.070312,0 -0.105468,-0.0351563 -0.105468,-0.1015625 v -8.753906 c 0,-0.070313 0.035156,-0.105469 0.105468,-0.105469 h 1.761719 c 0.066406,0 0.101563,0.035156 0.101563,0.105469 v 0.699218 c 0.554687,-0.597656 1.285156,-0.898437 2.210937,-0.898437 0.613281,0 1.113281,0.113281 1.5,0.34375 0.175781,0.105469 0.339844,0.21875 0.503906,0.34375 0.15625,0.121094 0.308594,0.257812 0.457032,0.410156 0.707031,-0.730469 1.628906,-1.097656 2.769531,-1.097656 0.695312,0 1.371094,0.261719 2.039062,0.792969 0.65625,0.535156 0.984375,1.3125 0.984375,2.339843 v 5.820313 c 0,0.0664062 -0.03516,0.1015625 -0.105468,0.1015625 h -1.761719 c -0.06641,0 -0.101563,-0.0351563 -0.101563,-0.1015625 v -5.214844 c 0,-0.570312 -0.152343,-1.007812 -0.457031,-1.3125 -0.3125,-0.3125 -0.699219,-0.464844 -1.167969,-0.464844 -0.480468,0 -0.878906,0.152344 -1.191406,0.464844 -0.300781,0.300781 -0.457031,0.742188 -0.457031,1.3125 v 5.214844 c 0,0.0664062 -0.03125,0.1015625 -0.09375,0.1015625 H 6.578125 c -0.058594,0 -0.09375,-0.0351563 -0.09375,-0.1015625 v -5.214844 c 0,-0.5625 -0.15625,-1 -0.46875,-1.3125 -0.308594,-0.3125 -0.699219,-0.464844 -1.164062,-0.464844 -0.484375,0 -0.878907,0.152344 -1.191407,0.464844 -0.296875,0.296875 -0.449218,0.734375 -0.449218,1.3125 v 5.214844 c 0,0.0664062 -0.035157,0.1015625 -0.101563,0.1015625 H 1.347656"
           id="path10680"
           style="fill:#ffffff" />
      </g>
    </g>
    <g
       fill="#ffffff"
       fill-opacity="1"
       id="g4029"
       transform="matrix(7.934839,0,0,7.934839,-83.67856,-4736.4976)"
       style="opacity:1;fill:#ffffff">
      <g
         id="use4027"
         transform="translate(221.5434,591.4884)"
         style="fill:#ffffff">
        <path
           d="m 2.546875,-8.96875 c 0,0.550781 0.164063,0.964844 0.5,1.242187 0.351563,0.28125 0.734375,0.421875 1.15625,0.421875 0.417969,0 0.804688,-0.136718 1.148438,-0.421875 0.347656,-0.28125 0.519531,-0.695312 0.519531,-1.242187 0,-0.535156 -0.171875,-0.941406 -0.519531,-1.226563 C 5.023438,-10.480469 4.644531,-10.625 4.203125,-10.625 c -0.421875,0 -0.808594,0.140625 -1.15625,0.429687 -0.332031,0.277344 -0.5,0.683594 -0.5,1.226563 m -2.183594,5.292969 c 0,-0.59375 0.117188,-1.121094 0.347657,-1.582032 0.234375,-0.457031 0.574218,-0.855468 1.03125,-1.191406 C 1.394531,-6.777344 1.113281,-7.140625 0.898438,-7.535156 0.6875,-7.933594 0.578125,-8.398438 0.578125,-8.933594 c 0,-1.019531 0.34375,-1.882812 1.035156,-2.589844 0.707032,-0.714843 1.570313,-1.070312 2.589844,-1.070312 1.023438,0 1.882813,0.351562 2.582031,1.070312 0.699219,0.714844 1.054688,1.578125 1.054688,2.589844 0,0.261719 -0.027344,0.507813 -0.085938,0.742188 -0.058593,0.226562 -0.140625,0.445312 -0.242187,0.652343 -0.105469,0.203125 -0.226563,0.394532 -0.371094,0.578125 -0.144531,0.179688 -0.300781,0.347657 -0.46875,0.511719 0.921875,0.660156 1.382813,1.585938 1.382813,2.773438 0,0.550781 -0.09375,1.054687 -0.289063,1.519531 -0.191406,0.457031 -0.480469,0.867187 -0.859375,1.222656 -0.371094,0.332031 -0.785156,0.59375 -1.242187,0.773438 -0.453125,0.1835935 -0.941407,0.273437 -1.460938,0.273437 -1.050781,0 -1.949219,-0.347656 -2.699219,-1.046875 -0.761718,-0.710937 -1.140625,-1.625 -1.140625,-2.742187 m 1.957032,-0.019532 c 0,0.265625 0.050781,0.511719 0.152343,0.734375 0.101563,0.222657 0.238282,0.417969 0.410157,0.585938 0.382812,0.351562 0.824218,0.527344 1.320312,0.527344 0.492188,0 0.933594,-0.171875 1.320313,-0.527344 0.183593,-0.171875 0.324218,-0.367188 0.425781,-0.589844 0.09375,-0.21875 0.144531,-0.460937 0.144531,-0.730469 0,-0.535156 -0.1875,-0.976562 -0.570312,-1.320312 -0.371094,-0.355469 -0.808594,-0.535156 -1.320313,-0.535156 -0.492187,0 -0.929687,0.175781 -1.320312,0.535156 -0.371094,0.34375 -0.5625,0.785156 -0.5625,1.320312"
           id="path10638"
           style="fill:#ffffff" />
      </g>
    </g>
    <g
       fill="#ffffff"
       fill-opacity="1"
       id="g4037"
       transform="matrix(7.934839,0,0,7.934839,-83.67856,-4736.4976)"
       style="opacity:1;fill:#ffffff">
      <g
         id="use4035"
         transform="translate(234.32597,591.4884)"
         style="fill:#ffffff">
        <path
           d="m 1.21875,0.0078125 c -0.070312,0 -0.105469,-0.0351563 -0.105469,-0.1015625 v -12.285156 c 0,-0.07031 0.035157,-0.105469 0.105469,-0.105469 h 1.757813 c 0.070312,0 0.105468,0.03516 0.105468,0.105469 v 7.40625 C 3.621094,-5.632813 4.15625,-6.289063 4.691406,-6.945313 5.222656,-7.597656 5.757813,-8.253906 6.300781,-8.917969 6.324219,-8.9375 6.347656,-8.953125 6.378906,-8.953125 h 2.105469 c 0.042969,0 0.078125,0.019531 0.097656,0.0625 C 8.597656,-8.851563 8.59375,-8.8125 8.5625,-8.777344 l -2.96875,3.375 c 0.570313,0.882813 1.136719,1.757813 1.695313,2.628906 0.5625,0.863282 1.128906,1.738282 1.699218,2.625 0.019532,0.039063 0.023438,0.0742192 0.00781,0.1093755 -0.019531,0.03125 -0.046875,0.046875 -0.09375,0.046875 H 6.691406 c -0.035156,0 -0.0625,-0.015625 -0.085937,-0.0507813 L 4.351563,-4.003906 C 4.144531,-3.765625 3.933594,-3.527344 3.714844,-3.289063 3.5,-3.054688 3.289063,-2.8125 3.082031,-2.574219 v 2.480469 c 0,0.0664062 -0.035156,0.1015625 -0.105468,0.1015625 H 1.21875"
           id="path10696"
           style="fill:#ffffff" />
      </g>
    </g>
    <g
       fill="#ffffff"
       fill-opacity="1"
       id="g4041"
       transform="matrix(7.934839,0,0,7.934839,-83.67856,-4736.4976)"
       style="opacity:1;fill:#ffffff">
      <g
         id="use4039"
         transform="translate(243.4046,591.4884)"
         style="fill:#ffffff">
        <path
           d="m 1.347656,0.0078125 c -0.070312,0 -0.105468,-0.0351563 -0.105468,-0.1015625 v -8.753906 c 0,-0.070313 0.035156,-0.105469 0.105468,-0.105469 h 1.761719 c 0.066406,0 0.101563,0.035156 0.101563,0.105469 v 0.699218 c 0.554687,-0.597656 1.285156,-0.898437 2.210937,-0.898437 0.613281,0 1.113281,0.113281 1.5,0.34375 0.175781,0.105469 0.339844,0.21875 0.503906,0.34375 0.15625,0.121094 0.308594,0.257812 0.457032,0.410156 0.707031,-0.730469 1.628906,-1.097656 2.769531,-1.097656 0.695312,0 1.371094,0.261719 2.039062,0.792969 0.65625,0.535156 0.984375,1.3125 0.984375,2.339843 v 5.820313 c 0,0.0664062 -0.03516,0.1015625 -0.105468,0.1015625 h -1.761719 c -0.06641,0 -0.101563,-0.0351563 -0.101563,-0.1015625 v -5.214844 c 0,-0.570312 -0.152343,-1.007812 -0.457031,-1.3125 -0.3125,-0.3125 -0.699219,-0.464844 -1.167969,-0.464844 -0.480468,0 -0.878906,0.152344 -1.191406,0.464844 -0.300781,0.300781 -0.457031,0.742188 -0.457031,1.3125 v 5.214844 c 0,0.0664062 -0.03125,0.1015625 -0.09375,0.1015625 H 6.578125 c -0.058594,0 -0.09375,-0.0351563 -0.09375,-0.1015625 v -5.214844 c 0,-0.5625 -0.15625,-1 -0.46875,-1.3125 -0.308594,-0.3125 -0.699219,-0.464844 -1.164062,-0.464844 -0.484375,0 -0.878907,0.152344 -1.191407,0.464844 -0.296875,0.296875 -0.449218,0.734375 -0.449218,1.3125 v 5.214844 c 0,0.0664062 -0.035157,0.1015625 -0.101563,0.1015625 H 1.347656"
           id="path10684"
           style="fill:#ffffff" />
      </g>
    </g>
    <g
       fill="#ffffff"
       fill-opacity="1"
       id="g4047"
       transform="matrix(7.934839,0,0,7.934839,-83.67856,-4736.4976)"
       style="opacity:1;fill:#ffffff">
      <g
         id="use4045"
         transform="translate(317.22961,572.73358)"
         style="fill:#ffffff">
        <path
           d="m 4.195313,0.0078125 c -0.050782,0 -0.082032,-0.0195313 -0.09375,-0.0664063 L 0.015625,-12.429688 c -0.0078125,-0.03516 -0.0078125,-0.06641 0.0117188,-0.09766 0.015625,-0.02344 0.0429687,-0.04297 0.0859372,-0.04297 h 1.976563 c 0.050781,0 0.082031,0.02734 0.09375,0.07813 l 2.738281,9.160157 c 0.457031,-1.527344 0.917969,-3.054688 1.375,-4.578125 0.457031,-1.519532 0.910156,-3.046875 1.367188,-4.582032 0.011718,-0.05078 0.046875,-0.07813 0.097656,-0.07813 h 1.976562 c 0.039063,0 0.070313,0.01563 0.085938,0.04297 0.015625,0.02734 0.023437,0.0625 0.00781,0.09766 L 5.75,-0.0585938 C 5.742188,-0.015625 5.707031,0.0078125 5.65625,0.0078125 H 4.195313"
           id="path10642"
           style="fill:#ffffff" />
      </g>
    </g>
    <g
       fill="#ffffff"
       fill-opacity="1"
       id="g4051"
       transform="matrix(7.934839,0,0,7.934839,-83.67856,-4736.4976)"
       style="opacity:1;fill:#ffffff">
      <g
         id="use4049"
         transform="translate(327.1445,572.73358)"
         style="fill:#ffffff">
        <path
           d="M 0.148438,0 C 0.109375,0 0.078125,-0.0117188 0.0585938,-0.0429688 0.0429688,-0.0703125 0.0390625,-0.105469 0.0507813,-0.136719 L 4.574219,-12.515625 c 0.011719,-0.04297 0.039062,-0.07031 0.085937,-0.07031 h 1.546875 c 0.015625,0 0.035157,0.0039 0.054688,0.01953 0.019531,0.01563 0.03125,0.03125 0.039062,0.05078 l 4.515625,12.378906 c 0.0078,0.03125 0.0078,0.0625002 -0.0078,0.0937502 C 10.789063,-0.015625 10.765625,0 10.730469,0 H 8.753906 C 8.710938,0 8.679688,-0.0234375 8.667969,-0.0703125 L 7.734375,-2.796875 H 3.175781 C 3.015625,-2.332031 2.859375,-1.878906 2.699219,-1.429688 2.542969,-0.984375 2.382813,-0.53125 2.21875,-0.0703125 2.21484,-0.0507813 2.203125,-0.0390625 2.179688,-0.0234375 2.164063,-0.0078125 2.140625,0 2.125,0 H 0.148438 M 7.113281,-4.652344 C 7.105469,-4.691406 7.085938,-4.734375 7.066406,-4.78125 7.046875,-4.824219 7.03125,-4.867188 7.019531,-4.902344 6.921875,-5.183594 6.832031,-5.441406 6.75,-5.683594 6.671875,-5.921875 6.601563,-6.128906 6.535156,-6.308594 6.496094,-6.421875 6.457031,-6.535156 6.417969,-6.648438 6.382813,-6.753906 6.34375,-6.859375 6.308594,-6.957031 6.285156,-7.046875 6.253906,-7.132813 6.222656,-7.222656 6.199219,-7.304688 6.167969,-7.386719 6.136719,-7.46875 6.085938,-7.632813 6.035156,-7.800781 5.976563,-7.96875 5.925781,-8.132813 5.871094,-8.304688 5.808594,-8.484375 5.785156,-8.5625 5.753906,-8.652344 5.71875,-8.753906 5.6875,-8.847656 5.65625,-8.953125 5.621094,-9.0625 5.601563,-9.121094 5.589844,-9.164063 5.582031,-9.199219 5.574219,-9.226563 5.5625,-9.257813 5.550781,-9.292969 5.542969,-9.324219 5.527344,-9.359375 5.511719,-9.402344 5.5,-9.441406 5.480469,-9.496094 5.457031,-9.574219 c -0.0625,0.191406 -0.121093,0.363281 -0.179687,0.527344 -0.050781,0.160156 -0.101563,0.3125 -0.148438,0.449219 -0.00781,0.035156 -0.019531,0.0625 -0.027343,0.09375 -0.00391,0.027343 -0.011719,0.058593 -0.027344,0.085937 -0.023438,0.097656 -0.054688,0.191406 -0.089844,0.277344 -0.027344,0.085937 -0.058594,0.171875 -0.089844,0.257812 -0.027343,0.09375 -0.054687,0.183594 -0.085937,0.269532 -0.027344,0.085937 -0.054688,0.167968 -0.085938,0.25 -0.058593,0.171875 -0.117187,0.355468 -0.175781,0.542968 -0.0625,0.191407 -0.125,0.390625 -0.203125,0.597657 -0.074219,0.207031 -0.152344,0.425781 -0.234375,0.667968 -0.078125,0.238282 -0.179687,0.539063 -0.3125,0.902344 H 7.113281 M 3.972656,-16.046875 c 0.136719,0.679687 0.625,1.027344 1.464844,1.035156 0.871094,-0.0078 1.332031,-0.355469 1.375,-1.035156 h 1.242188 c 0,0.371094 -0.066407,0.683594 -0.203125,0.945312 -0.132813,0.253907 -0.320313,0.5 -0.558594,0.738282 -0.464844,0.4375 -1.070313,0.667968 -1.8125,0.679687 -0.785156,-0.0078 -1.433594,-0.230469 -1.933594,-0.664062 -0.226562,-0.226563 -0.40625,-0.453125 -0.535156,-0.671875 -0.125,-0.21875 -0.1875,-0.5625 -0.199219,-1.027344 h 1.160156"
           id="path10618"
           style="fill:#ffffff" />
      </g>
    </g>
    <g
       fill="#ffffff"
       fill-opacity="1"
       id="g4055"
       transform="matrix(7.934839,0,0,7.934839,-83.67856,-4736.4976)"
       style="opacity:1;fill:#ffffff">
      <g
         id="use4053"
         transform="translate(338.13431,572.73358)"
         style="fill:#ffffff">
        <path
           d="m 1.363281,0.0078125 c -0.070312,0 -0.101562,-0.0351563 -0.101562,-0.1015625 v -12.371094 c 0,-0.07031 0.03125,-0.105469 0.101562,-0.105469 h 1.777344 c 0.035156,0 0.0625,0.01953 0.089844,0.05469 l 5.4375,8.5625 v -8.511719 c 0,-0.07031 0.035156,-0.105469 0.101562,-0.105469 h 1.882813 c 0.07031,0 0.105469,0.03516 0.105469,0.105469 V -0.09375 c 0,0.0664062 -0.03516,0.1015625 -0.105469,0.1015625 H 8.882813 c -0.035157,0 -0.058594,-0.015625 -0.085938,-0.0507813 L 3.339844,-8.605469 v 8.511719 c 0,0.0664062 -0.027344,0.1015625 -0.09375,0.1015625 H 1.363281"
           id="path10610"
           style="fill:#ffffff" />
      </g>
    </g>
    <g
       fill="#ffffff"
       fill-opacity="1"
       id="g4063"
       transform="matrix(7.934839,0,0,7.934839,-83.67856,-4736.4976)"
       style="opacity:1;fill:#ffffff">
      <g
         id="use4061"
         transform="translate(354.50061,572.73358)"
         style="fill:#ffffff">
        <path
           d="m 1.355469,0.0078125 c -0.0625,0 -0.09375,-0.0351563 -0.09375,-0.1015625 v -5.320313 h -0.90625 c -0.0625,0 -0.097656,-0.027343 -0.097656,-0.09375 v -1.777343 c 0,-0.070313 0.03125,-0.105469 0.097656,-0.105469 h 0.90625 v -5.074219 c 0,-0.07031 0.027344,-0.105469 0.09375,-0.105469 H 5.6875 c 1.71875,0 3.003906,0.710938 3.859375,2.132813 0.15625,0.277344 0.28125,0.535156 0.378906,0.785156 0.097657,0.246094 0.160157,0.488281 0.191407,0.726563 0.07031,0.457031 0.105468,1.34375 0.105468,2.648437 0,0.699219 -0.01172,1.289063 -0.03516,1.757813 -0.02344,0.464843 -0.05859,0.820312 -0.105469,1.058593 -0.04297,0.242188 -0.117187,0.472657 -0.210937,0.703125 -0.09375,0.222657 -0.210938,0.453125 -0.359375,0.675782 v -0.00781 C 9.128906,-1.496094 8.609375,-1 7.960938,-0.59375 7.285156,-0.195313 6.492188,0.0078125 5.566406,0.0078125 H 1.355469 M 3.339844,-10.582031 v 3.191406 H 5.59375 c 0.070313,0 0.105469,0.035156 0.105469,0.105469 v 1.777343 c 0,0.0625 -0.035156,0.09375 -0.105469,0.09375 H 3.339844 v 3.453125 h 2.140625 c 0.988281,0 1.726562,-0.34375 2.210937,-1.035156 0.199219,-0.300781 0.320313,-0.621094 0.363282,-0.957031 0.027343,-0.183594 0.046875,-0.460938 0.066406,-0.832031 0.011719,-0.371094 0.019531,-0.84375 0.019531,-1.421875 0,-0.554688 -0.00391,-1.023438 -0.019531,-1.398438 C 8.105469,-7.976563 8.085938,-8.273438 8.054688,-8.496094 7.992188,-8.898438 7.84375,-9.265625 7.605469,-9.589844 7.117188,-10.25 6.410156,-10.582031 5.480469,-10.582031 H 3.339844"
           id="path10626"
           style="fill:#ffffff" />
      </g>
    </g>
    <g
       fill="#ffffff"
       fill-opacity="1"
       id="g4067"
       transform="matrix(7.934839,0,0,7.934839,-83.67856,-4736.4976)"
       style="opacity:1;fill:#ffffff">
      <g
         id="use4065"
         transform="translate(365.61066,572.73358)"
         style="fill:#ffffff">
        <path
           d="m 1.339844,0.0078125 c -0.070313,0 -0.105469,-0.0351563 -0.105469,-0.1015625 v -12.371094 c 0,-0.07031 0.035156,-0.105469 0.105469,-0.105469 h 1.871094 c 0.070312,0 0.105468,0.03516 0.105468,0.105469 V -0.09375 c 0,0.0664062 -0.035156,0.1015625 -0.105468,0.1015625 H 1.339844"
           id="path10598"
           style="fill:#ffffff" />
      </g>
    </g>
    <g
       fill="#ffffff"
       fill-opacity="1"
       id="g4071"
       transform="matrix(7.934839,0,0,7.934839,-83.67856,-4736.4976)"
       style="opacity:1;fill:#ffffff">
      <g
         id="use4069"
         transform="translate(370.15085,572.73358)"
         style="fill:#ffffff">
        <path
           d="m 1.363281,0.0078125 c -0.070312,0 -0.101562,-0.0351563 -0.101562,-0.1015625 v -12.371094 c 0,-0.07031 0.03125,-0.105469 0.101562,-0.105469 h 7.910157 c 0.066406,0 0.101562,0.03516 0.101562,0.105469 v 1.777344 c 0,0.07031 -0.035156,0.105469 -0.101562,0.105469 H 3.339844 v 3.3125 h 5.042969 c 0.070312,0 0.101562,0.035156 0.101562,0.105468 v 1.675782 c 0,0.058593 -0.03125,0.09375 -0.101562,0.09375 H 3.339844 v 3.433593 h 5.933594 c 0.066406,0 0.101562,0.035157 0.101562,0.105469 v 1.761719 c 0,0.0664062 -0.035156,0.1015625 -0.101562,0.1015625 H 1.363281 M 2.203125,-13.683594 c -0.054687,0 -0.082031,-0.01953 -0.097656,-0.06641 -0.00781,-0.04297 0,-0.08203 0.035156,-0.113281 L 4.679688,-15.875 H 5.84375 l 2.574219,2.011719 c 0.039062,0.02734 0.054687,0.0625 0.039062,0.113281 -0.015625,0.04297 -0.046875,0.06641 -0.101562,0.06641 H 6.90625 l -1.726562,-0.929687 c -0.25,0.152343 -0.507813,0.308593 -0.769532,0.464843 -0.257812,0.15625 -0.511718,0.3125 -0.765625,0.464844 H 2.203125 m 5.433594,-1.257812 c -0.238281,0 -0.429688,0 -0.574219,0 v -0.398438 c 0.058594,-0.363281 0.285156,-0.65625 0.671875,-0.890625 0.605469,-0.25 0.882813,-0.550781 0.828125,-0.894531 -0.078125,-0.351563 -0.347656,-0.527344 -0.808594,-0.535156 -0.609375,0.0078 -0.933593,0.304687 -0.96875,0.886718 H 5.5 c 0,-0.320312 0.054688,-0.585937 0.175781,-0.800781 0.117188,-0.214844 0.277344,-0.421875 0.480469,-0.625 0.394531,-0.378906 0.914063,-0.574219 1.554688,-0.585937 0.671875,0.0078 1.222656,0.199218 1.65625,0.570312 0.195312,0.195313 0.34375,0.386719 0.457031,0.570313 0.109375,0.179687 0.164062,0.414062 0.171875,0.699218 -0.035156,0.398438 -0.253906,0.742188 -0.664063,1.042969 -0.34375,0.164063 -0.609375,0.300781 -0.792968,0.398438 l -0.105469,0.113281 -0.113281,0.171875 -0.015625,0.277344 c -0.207032,0 -0.425782,0 -0.667969,0"
           id="path10606"
           style="fill:#ffffff" />
      </g>
    </g>
    <g
       fill="#ffffff"
       fill-opacity="1"
       id="g4075"
       transform="matrix(7.934839,0,0,7.934839,-83.67856,-4736.4976)"
       style="opacity:1;fill:#ffffff">
      <g
         id="use4073"
         transform="translate(379.94727,572.73358)"
         style="fill:#ffffff">
        <path
           d="m 1.363281,0.0078125 c -0.070312,0 -0.101562,-0.0351563 -0.101562,-0.1015625 v -12.371094 c 0,-0.07031 0.03125,-0.105469 0.101562,-0.105469 h 1.777344 c 0.035156,0 0.0625,0.01953 0.089844,0.05469 l 5.4375,8.5625 v -8.511719 c 0,-0.07031 0.035156,-0.105469 0.101562,-0.105469 h 1.882813 c 0.07031,0 0.105469,0.03516 0.105469,0.105469 V -0.09375 c 0,0.0664062 -0.03516,0.1015625 -0.105469,0.1015625 H 8.882813 c -0.035157,0 -0.058594,-0.015625 -0.085938,-0.0507813 L 3.339844,-8.605469 v 8.511719 c 0,0.0664062 -0.027344,0.1015625 -0.09375,0.1015625 H 1.363281"
           id="path10614"
           style="fill:#ffffff" />
      </g>
    </g>
    <g
       fill="#ffffff"
       fill-opacity="1"
       id="g4079"
       transform="matrix(7.934839,0,0,7.934839,-83.67856,-4736.4976)"
       style="opacity:1;fill:#ffffff">
      <g
         id="use4077"
         transform="translate(338.13608,591.48779)"
         style="fill:#ffffff">
        <path
           d="m 0.613281,0.0078125 c -0.070312,0 -0.105468,-0.0351563 -0.105468,-0.1015625 V -1.777344 L 5.34375,-7.828125 v 0.00781 C 5.519531,-8.046875 5.636719,-8.25 5.6875,-8.4375 5.742188,-8.625 5.765625,-8.804688 5.765625,-8.988281 5.765625,-9.382813 5.625,-9.753906 5.335938,-10.109375 5.050781,-10.453125 4.660156,-10.625 4.167969,-10.625 c -0.449219,0 -0.835938,0.148437 -1.164063,0.457031 -0.160156,0.144531 -0.28125,0.324219 -0.367187,0.53125 -0.082031,0.203125 -0.132813,0.433594 -0.160156,0.695313 0,0.023437 -0.00781,0.050781 -0.027344,0.066406 C 2.429688,-8.855469 2.402344,-8.847656 2.375,-8.847656 H 0.613281 c -0.070312,0 -0.105468,-0.035157 -0.105468,-0.105469 0.011718,-1.023438 0.359375,-1.878906 1.046875,-2.578125 0.695312,-0.710938 1.523437,-1.0625 2.484375,-1.0625 1.042968,0 1.917968,0.351562 2.632812,1.070312 h -0.00781 c 0.707031,0.707032 1.0625,1.558594 1.0625,2.554688 0,0.429687 -0.0625,0.828125 -0.191407,1.199219 -0.125,0.367187 -0.3125,0.707031 -0.570312,1.027343 V -6.75 C 6.636719,-6.335938 6.320313,-5.929688 6,-5.535156 5.683594,-5.136719 5.371094,-4.742188 5.050781,-4.347656 4.734375,-3.953125 4.421875,-3.5625 4.101563,-3.164063 3.785156,-2.769531 3.460938,-2.367188 3.132813,-1.949219 h 4.488281 c 0.070312,0 0.105469,0.03125 0.105469,0.101563 v 1.753906 c 0,0.0664062 -0.035157,0.1015625 -0.105469,0.1015625 H 0.613281"
           id="path10630"
           style="fill:#ffffff" />
      </g>
    </g>
    <g
       fill="#ffffff"
       fill-opacity="1"
       id="g4083"
       transform="matrix(7.934839,0,0,7.934839,-83.67856,-4736.4976)"
       style="opacity:1;fill:#ffffff">
      <g
         id="use4081"
         transform="translate(346.73737,591.48779)"
         style="fill:#ffffff">
        <path
           d="m 5.835938,-8.847656 c 0,-0.558594 -0.148438,-0.992188 -0.445313,-1.308594 -0.292969,-0.3125 -0.691406,-0.46875 -1.1875,-0.46875 -0.492187,0 -0.886719,0.152344 -1.179687,0.46875 -0.296875,0.3125 -0.441407,0.746094 -0.441407,1.308594 V -3.625 c 0,0.558594 0.144532,1 0.441407,1.3125 0.292968,0.308594 0.683593,0.464844 1.179687,0.464844 0.492188,0 0.890625,-0.15625 1.1875,-0.464844 C 5.683594,-2.625 5.835938,-3.058594 5.835938,-3.625 V -8.847656 M 0.613281,-8.953125 c 0,-1.160156 0.363282,-2.054688 1.097657,-2.683594 0.722656,-0.640625 1.550781,-0.957031 2.492187,-0.957031 0.46875,0 0.90625,0.08203 1.328125,0.246094 0.414063,0.164062 0.804688,0.398437 1.167969,0.710937 0.363281,0.320313 0.632812,0.703125 0.824219,1.152344 0.1875,0.445312 0.28125,0.953125 0.28125,1.53125 v 5.429687 c 0,1.15625 -0.367188,2.050782 -1.105469,2.6875 -0.726563,0.628907 -1.554688,0.949219 -2.496094,0.949219 -0.933594,0 -1.769531,-0.316406 -2.492187,-0.949219 -0.730469,-0.628906 -1.097657,-1.519531 -1.097657,-2.6875 v -5.429687"
           id="path10708"
           style="fill:#ffffff" />
      </g>
    </g>
    <g
       fill="#ffffff"
       fill-opacity="1"
       id="g4091"
       transform="matrix(7.934839,0,0,7.934839,-83.67856,-4736.4976)"
       style="opacity:1;fill:#ffffff">
      <g
         id="use4089"
         transform="translate(359.405,591.48779)"
         style="fill:#ffffff">
        <path
           d="m 1.21875,0.0078125 c -0.070312,0 -0.105469,-0.0351563 -0.105469,-0.1015625 v -12.285156 c 0,-0.07031 0.035157,-0.105469 0.105469,-0.105469 h 1.757813 c 0.070312,0 0.105468,0.03516 0.105468,0.105469 v 7.40625 C 3.621094,-5.632813 4.15625,-6.289063 4.691406,-6.945313 5.222656,-7.597656 5.757813,-8.253906 6.300781,-8.917969 6.324219,-8.9375 6.347656,-8.953125 6.378906,-8.953125 h 2.105469 c 0.042969,0 0.078125,0.019531 0.097656,0.0625 C 8.597656,-8.851563 8.59375,-8.8125 8.5625,-8.777344 l -2.96875,3.375 c 0.570313,0.882813 1.136719,1.757813 1.695313,2.628906 0.5625,0.863282 1.128906,1.738282 1.699218,2.625 0.019532,0.039063 0.023438,0.0742192 0.00781,0.1093755 -0.019531,0.03125 -0.046875,0.046875 -0.09375,0.046875 H 6.691406 c -0.035156,0 -0.0625,-0.015625 -0.085937,-0.0507813 L 4.351563,-4.003906 C 4.144531,-3.765625 3.933594,-3.527344 3.714844,-3.289063 3.5,-3.054688 3.289063,-2.8125 3.082031,-2.574219 v 2.480469 c 0,0.0664062 -0.035156,0.1015625 -0.105468,0.1015625 H 1.21875"
           id="path10700"
           style="fill:#ffffff" />
      </g>
    </g>
    <g
       fill="#ffffff"
       fill-opacity="1"
       id="g4095"
       transform="matrix(7.934839,0,0,7.934839,-83.67856,-4736.4976)"
       style="opacity:1;fill:#ffffff">
      <g
         id="use4093"
         transform="translate(368.48364,591.48779)"
         style="fill:#ffffff">
        <path
           d="m 1.347656,0.0078125 c -0.070312,0 -0.105468,-0.0351563 -0.105468,-0.1015625 v -8.753906 c 0,-0.070313 0.035156,-0.105469 0.105468,-0.105469 h 1.761719 c 0.066406,0 0.101563,0.035156 0.101563,0.105469 v 0.699218 c 0.554687,-0.597656 1.285156,-0.898437 2.210937,-0.898437 0.613281,0 1.113281,0.113281 1.5,0.34375 0.175781,0.105469 0.339844,0.21875 0.503906,0.34375 0.15625,0.121094 0.308594,0.257812 0.457032,0.410156 0.707031,-0.730469 1.628906,-1.097656 2.769531,-1.097656 0.695312,0 1.371094,0.261719 2.039062,0.792969 0.65625,0.535156 0.984375,1.3125 0.984375,2.339843 v 5.820313 c 0,0.0664062 -0.03516,0.1015625 -0.105468,0.1015625 h -1.761719 c -0.06641,0 -0.101563,-0.0351563 -0.101563,-0.1015625 v -5.214844 c 0,-0.570312 -0.152343,-1.007812 -0.457031,-1.3125 -0.3125,-0.3125 -0.699219,-0.464844 -1.167969,-0.464844 -0.480468,0 -0.878906,0.152344 -1.191406,0.464844 -0.300781,0.300781 -0.457031,0.742188 -0.457031,1.3125 v 5.214844 c 0,0.0664062 -0.03125,0.1015625 -0.09375,0.1015625 H 6.578125 c -0.058594,0 -0.09375,-0.0351563 -0.09375,-0.1015625 v -5.214844 c 0,-0.5625 -0.15625,-1 -0.46875,-1.3125 -0.308594,-0.3125 -0.699219,-0.464844 -1.164062,-0.464844 -0.484375,0 -0.878907,0.152344 -1.191407,0.464844 -0.296875,0.296875 -0.449218,0.734375 -0.449218,1.3125 v 5.214844 c 0,0.0664062 -0.035157,0.1015625 -0.101563,0.1015625 H 1.347656"
           id="path10688"
           style="fill:#ffffff" />
      </g>
    </g>
    <g
       fill="#ffffff"
       fill-opacity="1"
       id="g4099"
       transform="matrix(7.934839,0,0,7.934839,-83.67856,-4736.4976)"
       style="opacity:1;fill:#ffffff">
      <g
         id="use4097"
         transform="translate(240.8952,533.55298)"
         style="fill:#ffffff">
        <path
           d="m 1.796875,0.0117188 c -0.089844,0 -0.136719,-0.0468751 -0.136719,-0.1367188 v -16.300781 c 0,-0.08984 0.046875,-0.132813 0.136719,-0.132813 h 2.34375 c 0.046875,0 0.078125,0.01953 0.113281,0.06641 l 7.164063,11.28125 v -11.214843 c 0,-0.08984 0.04687,-0.132813 0.136719,-0.132813 h 2.480468 c 0.08984,0 0.136719,0.04297 0.136719,0.132813 V -0.125 c 0,0.0898437 -0.04687,0.1367188 -0.136719,0.1367188 h -2.332031 c -0.04297,0 -0.07813,-0.0234376 -0.113281,-0.0703126 L 4.402344,-11.339844 V -0.125 c 0,0.0898437 -0.039063,0.1367188 -0.125,0.1367188 H 1.796875"
           id="path10672"
           style="fill:#ffffff" />
      </g>
    </g>
    <g
       fill="#ffffff"
       fill-opacity="1"
       id="g4103"
       transform="matrix(7.934839,0,0,7.934839,-83.67856,-4736.4976)"
       style="opacity:1;fill:#ffffff">
      <g
         id="use4101"
         transform="translate(256.90317,533.55298)"
         style="fill:#ffffff">
        <path
           d="M 0.195313,0 C 0.140625,0 0.101563,-0.015625 0.078125,-0.0585938 0.0585938,-0.0898438 0.0507813,-0.136719 0.0664063,-0.183594 L 6.027344,-16.492188 c 0.011719,-0.05859 0.050781,-0.08984 0.113281,-0.08984 h 2.039063 c 0.019531,0 0.042968,0.0039 0.074218,0.02734 0.019532,0.01563 0.039063,0.03906 0.050782,0.0625 L 14.25,-0.183594 c 0.01172,0.046875 0.01172,0.0859377 -0.0078,0.1250002 C 14.21875,-0.0234375 14.183594,0 14.136719,0 H 11.535156 C 11.476563,0 11.4375,-0.0273438 11.417969,-0.0898438 L 10.191406,-3.683594 H 4.1875 c -0.210937,0.613281 -0.421875,1.210938 -0.632812,1.800781 -0.203125,0.585938 -0.414063,1.183594 -0.632813,1.7929692 -0.00391,0.0234375 -0.019531,0.0390625 -0.050781,0.0625 C 2.847656,-0.0117188 2.820313,0 2.796875,0 H 0.195313 M 9.371094,-6.128906 C 9.359375,-6.183594 9.339844,-6.238281 9.308594,-6.300781 9.285156,-6.359375 9.265625,-6.414063 9.246094,-6.460938 9.121094,-6.828125 9.003906,-7.171875 8.894531,-7.488281 8.792969,-7.800781 8.695313,-8.074219 8.609375,-8.3125 8.558594,-8.460938 8.507813,-8.609375 8.457031,-8.757813 8.410156,-8.898438 8.359375,-9.035156 8.316406,-9.167969 8.28125,-9.285156 8.242188,-9.398438 8.199219,-9.515625 8.167969,-9.621094 8.128906,-9.730469 8.085938,-9.839844 8.019531,-10.054688 7.949219,-10.277344 7.875,-10.496094 7.808594,-10.714844 7.734375,-10.941406 7.65625,-11.179688 7.621094,-11.28125 7.582031,-11.402344 7.535156,-11.53125 7.496094,-11.660156 7.449219,-11.792969 7.40625,-11.941406 c -0.023437,-0.07422 -0.042969,-0.132813 -0.054687,-0.175782 -0.00781,-0.04297 -0.019532,-0.08203 -0.039063,-0.125 -0.011719,-0.04297 -0.027344,-0.08594 -0.050781,-0.144531 -0.015625,-0.05078 -0.039063,-0.125 -0.074219,-0.226562 -0.078125,0.25 -0.15625,0.476562 -0.230469,0.695312 -0.070312,0.207031 -0.136718,0.40625 -0.199218,0.589844 -0.011719,0.04687 -0.023438,0.08594 -0.035157,0.125 -0.00781,0.03516 -0.015625,0.07422 -0.035156,0.113281 -0.035156,0.125 -0.074219,0.25 -0.117187,0.363281 -0.042969,0.113282 -0.082032,0.230469 -0.121094,0.34375 -0.035156,0.117188 -0.074219,0.238282 -0.113281,0.351563 -0.035157,0.113281 -0.074219,0.222656 -0.113282,0.328125 -0.074218,0.230469 -0.15625,0.46875 -0.234375,0.71875 -0.078125,0.25 -0.164062,0.511719 -0.265625,0.785156 -0.097656,0.273438 -0.199218,0.5625 -0.308593,0.878906 -0.101563,0.3125 -0.238282,0.710938 -0.410157,1.191407 h 4.367188"
           id="path10668"
           style="fill:#ffffff" />
      </g>
    </g>
    <g
       fill="#ffffff"
       fill-opacity="1"
       id="g4109"
       transform="matrix(7.934839,0,0,7.934839,-83.67856,-4736.4976)"
       style="opacity:1;fill:#ffffff">
      <g
         id="use4105"
         transform="translate(271.4902,533.55298)"
         style="fill:#ffffff">
        <path
           d="m 1.808594,0.0117188 c -0.089844,0 -0.136719,-0.0468751 -0.136719,-0.1367188 v -16.300781 c 0,-0.08984 0.046875,-0.132813 0.136719,-0.132813 h 2.332031 c 0.050781,0 0.089844,0.01953 0.125,0.07813 l 4.5625,10.339844 c 0.730469,-1.734375 1.472656,-3.457031 2.214844,-5.171875 0.742187,-1.703125 1.484375,-3.429688 2.230469,-5.167969 0.02344,-0.05078 0.0625,-0.07813 0.125,-0.07813 h 2.332031 c 0.08984,0 0.136719,0.04297 0.136719,0.132813 V -0.125 c 0,0.0898437 -0.04687,0.1367188 -0.136719,0.1367188 h -2.46875 C 13.171875,0.0117188 13.125,-0.0351563 13.125,-0.125 v -9.621094 c -0.527344,1.234375 -1.0625,2.460938 -1.601562,3.683594 -0.535157,1.21875 -1.070313,2.445312 -1.59375,3.675781 -0.027344,0.042969 -0.066407,0.066406 -0.125,0.066406 H 7.746094 c -0.050781,0 -0.089844,-0.023437 -0.125,-0.066406 L 4.414063,-9.769531 V -0.125 c 0,0.0898437 -0.046875,0.1367188 -0.136719,0.1367188 h -2.46875"
           id="path10660"
           style="fill:#ffffff" />
      </g>
      <g
         id="use4107"
         transform="translate(289.17072,533.55298)"
         style="fill:#ffffff" />
    </g>
    <g
       fill="#ffffff"
       fill-opacity="1"
       id="g4113"
       transform="matrix(7.934839,0,0,7.934839,-83.67856,-4736.4976)"
       style="opacity:1;fill:#ffffff">
      <g
         id="use4111"
         transform="translate(294.77304,533.55298)"
         style="fill:#ffffff">
        <path
           d="m 1.785156,0.0117188 c -0.078125,0 -0.125,-0.0468751 -0.125,-0.1367188 V -7.132813 H 0.464844 c -0.078125,0 -0.125,-0.039062 -0.125,-0.125 v -2.339843 c 0,-0.09375 0.042969,-0.136719 0.125,-0.136719 h 1.195312 v -6.691406 c 0,-0.08984 0.039063,-0.132813 0.125,-0.132813 h 5.710938 c 2.261719,0 3.957031,0.929688 5.082031,2.808594 0.207031,0.363281 0.371094,0.703125 0.503906,1.035156 0.125,0.324219 0.207032,0.640625 0.25,0.953125 0.08984,0.605469 0.136719,1.769531 0.136719,3.492188 0,0.921875 -0.01172,1.695312 -0.04687,2.316406 -0.02734,0.613281 -0.07422,1.078125 -0.136719,1.390625 -0.05859,0.320312 -0.152343,0.628906 -0.277343,0.929687 -0.125,0.292969 -0.28125,0.597657 -0.472657,0.890625 v -0.011718 c -0.507812,0.78125 -1.1875,1.433593 -2.046875,1.96875 C 9.601563,-0.257813 8.554688,0.0117188 7.335938,0.0117188 H 1.785156 M 4.402344,-13.945313 v 4.210938 h 2.96875 c 0.089844,0 0.136719,0.042969 0.136719,0.136719 v 2.339843 c 0,0.082032 -0.046875,0.125 -0.136719,0.125 h -2.96875 v 4.550782 h 2.820312 c 1.300782,0 2.273438,-0.453125 2.910157,-1.363282 0.261718,-0.398437 0.421875,-0.820312 0.480468,-1.265625 0.03125,-0.238281 0.0625,-0.605468 0.08594,-1.097656 0.01563,-0.488281 0.02734,-1.105469 0.02734,-1.867187 0,-0.734375 -0.0078,-1.351563 -0.02734,-1.84375 -0.01953,-0.488282 -0.04687,-0.882813 -0.08594,-1.171875 -0.08203,-0.535157 -0.28125,-1.019532 -0.59375,-1.445313 -0.640625,-0.871094 -1.574218,-1.308594 -2.796875,-1.308594 H 4.402344"
           id="path10654"
           style="fill:#ffffff" />
      </g>
    </g>
    <g
       fill="#ffffff"
       fill-opacity="1"
       id="g4117"
       transform="matrix(7.934839,0,0,7.934839,-83.67856,-4736.4976)"
       style="opacity:1;fill:#ffffff">
      <g
         id="use4115"
         transform="translate(309.3461,533.55298)"
         style="fill:#ffffff">
        <path
           d="M 1.761719,0.0117188 C 1.671875,0.0117188 1.625,-0.0351563 1.625,-0.125 v -16.300781 c 0,-0.08984 0.046875,-0.132813 0.136719,-0.132813 h 2.46875 c 0.089844,0 0.136719,0.04297 0.136719,0.132813 V -0.125 c 0,0.0898437 -0.046875,0.1367188 -0.136719,0.1367188 H 1.761719 M 1.898438,4.492188 c -0.078125,0 -0.125,-0.039063 -0.125,-0.125 V 2.171875 c 0,-0.078125 0.039062,-0.125 0.125,-0.125 h 2.207031 c 0.074219,0 0.113281,0.039063 0.113281,0.125 v 2.195313 c 0,0.078125 -0.03125,0.125 -0.113281,0.125 H 1.898438"
           id="path10650"
           style="fill:#ffffff" />
      </g>
    </g>
    <g
       fill="#ffffff"
       fill-opacity="1"
       id="g4121"
       transform="matrix(7.934839,0,0,7.934839,-83.67856,-4736.4976)"
       style="opacity:1;fill:#ffffff">
      <g
         id="use4119"
         transform="translate(315.31879,533.55298)"
         style="fill:#ffffff">
        <path
           d="m 1.796875,0.0117188 c -0.089844,0 -0.136719,-0.0468751 -0.136719,-0.1367188 v -16.300781 c 0,-0.08984 0.046875,-0.132813 0.136719,-0.132813 h 2.34375 c 0.046875,0 0.078125,0.01953 0.113281,0.06641 l 7.164063,11.28125 v -11.214843 c 0,-0.08984 0.04687,-0.132813 0.136719,-0.132813 h 2.480468 c 0.08984,0 0.136719,0.04297 0.136719,0.132813 V -0.125 c 0,0.0898437 -0.04687,0.1367188 -0.136719,0.1367188 h -2.332031 c -0.04297,0 -0.07813,-0.0234376 -0.113281,-0.0703126 L 4.402344,-11.339844 V -0.125 c 0,0.0898437 -0.039063,0.1367188 -0.125,0.1367188 H 1.796875"
           id="path10676"
           style="fill:#ffffff" />
      </g>
    </g>
    <g
       fill="#ffffff"
       fill-opacity="1"
       id="g4125"
       transform="matrix(7.934839,0,0,7.934839,-83.67856,-4736.4976)"
       style="opacity:1;fill:#ffffff">
      <g
         id="use4123"
         transform="translate(331.20798,533.55298)"
         style="fill:#ffffff">
        <path
           d="m 10.738281,0.0117188 c -0.09375,0 -0.136718,-0.0468751 -0.136718,-0.1367188 V -7.109375 H 4.402344 V -0.125 c 0,0.0898437 -0.046875,0.1367188 -0.136719,0.1367188 h -2.46875 c -0.089844,0 -0.136719,-0.0468751 -0.136719,-0.1367188 v -16.300781 c 0,-0.08984 0.046875,-0.132813 0.136719,-0.132813 h 2.46875 c 0.089844,0 0.136719,0.04297 0.136719,0.132813 v 6.847656 h 6.199219 v -6.847656 c 0,-0.08984 0.04297,-0.132813 0.136718,-0.132813 h 2.46875 c 0.08984,0 0.136719,0.04297 0.136719,0.132813 V -0.125 c 0,0.0898437 -0.04687,0.1367188 -0.136719,0.1367188 h -2.46875"
           id="path10646"
           style="fill:#ffffff" />
      </g>
    </g>
    <g
       fill="#ffffff"
       fill-opacity="1"
       id="g4289"
       transform="matrix(7.934839,0,0,7.934839,-83.67856,-4736.4976)"
       style="opacity:1;fill:#ffffff">
      <g
         id="use4287"
         transform="translate(214.49519,572.6142)"
         style="fill:#ffffff">
        <path
           d="m 9.703125,-3.652344 c 0.035156,0 0.0625,0.015625 0.085938,0.039063 0.023437,0.027343 0.03125,0.058593 0.019531,0.089843 C 9.566406,-2.347656 9.03125,-1.445313 8.203125,-0.8125 7.800781,-0.507813 7.363281,-0.277344 6.890625,-0.121094 6.417969,0.0351563 5.910156,0.113281 5.359375,0.113281 4.367188,0.113281 3.53125,-0.125 2.847656,-0.605469 2.183594,-1.074219 1.699219,-1.59375 1.398438,-2.15625 1.292969,-2.351563 1.207031,-2.550781 1.132813,-2.75 1.058594,-2.949219 1,-3.15625 0.957031,-3.375 0.886719,-3.796875 0.847656,-4.765625 0.847656,-6.277344 c 0,-0.75 0.007813,-1.367187 0.023438,-1.847656 0.019531,-0.472656 0.042969,-0.824219 0.085937,-1.042969 0.039063,-0.214844 0.097657,-0.425781 0.175782,-0.628906 0.070312,-0.199219 0.160156,-0.398438 0.265625,-0.597656 0.296875,-0.554688 0.78125,-1.074219 1.449218,-1.554688 0.675782,-0.480469 1.511719,-0.722656 2.511719,-0.722656 1.195313,0 2.1875,0.367187 2.972656,1.105469 0.792969,0.742187 1.285157,1.621093 1.476563,2.640625 0.00781,0.035156 0.00781,0.058593 -0.019531,0.085937 -0.019532,0.023438 -0.050782,0.035156 -0.085938,0.035156 H 7.726563 c -0.050782,0 -0.082032,-0.023437 -0.09375,-0.070312 C 7.558594,-9.101563 7.449219,-9.320313 7.3125,-9.515625 7.171875,-9.714844 7.003906,-9.902344 6.800781,-10.074219 c -0.378906,-0.335937 -0.855468,-0.507812 -1.441406,-0.507812 -0.429687,0 -0.796875,0.08594 -1.101562,0.257812 -0.304688,0.171875 -0.550782,0.371094 -0.734375,0.59375 -0.109375,0.140625 -0.203125,0.296875 -0.285157,0.472656 -0.078125,0.171875 -0.144531,0.351563 -0.191406,0.539063 -0.042969,0.195312 -0.078125,0.496094 -0.09375,0.90625 -0.019531,0.40625 -0.027344,0.917969 -0.027344,1.535156 0,0.628906 0.00781,1.144531 0.027344,1.550781 0.015625,0.40625 0.046875,0.703125 0.09375,0.902344 0.042969,0.175781 0.109375,0.355469 0.195313,0.53125 0.082031,0.171875 0.175781,0.328125 0.28125,0.460938 0.179687,0.242187 0.425781,0.445312 0.734375,0.617187 0.300781,0.167969 0.671875,0.253906 1.101562,0.253906 0.996094,0 1.753906,-0.542968 2.273438,-1.628906 0.00781,-0.011719 0.023437,-0.023437 0.042968,-0.039062 0.015625,-0.015625 0.035157,-0.023438 0.050782,-0.023438 h 1.976562"
           id="path10634"
           style="fill:#ffffff" />
      </g>
    </g>
    <g
       fill="#ffffff"
       fill-opacity="1"
       id="g4293"
       transform="matrix(7.934839,0,0,7.934839,-83.67856,-4736.4976)"
       style="opacity:1;fill:#ffffff">
      <g
         id="use4291"
         transform="translate(224.4101,572.6142)"
         style="fill:#ffffff">
        <path
           d="m 8.148438,0.0078125 c -0.066407,0 -0.101563,-0.0351563 -0.101563,-0.1015625 V -5.394531 H 3.339844 v 5.300781 c 0,0.0664062 -0.035156,0.1015625 -0.101563,0.1015625 h -1.875 c -0.070312,0 -0.101562,-0.0351563 -0.101562,-0.1015625 v -12.371094 c 0,-0.07031 0.03125,-0.105469 0.101562,-0.105469 h 1.875 c 0.066407,0 0.101563,0.03516 0.101563,0.105469 v 5.195313 h 4.707031 v -5.195313 c 0,-0.07031 0.035156,-0.105469 0.101563,-0.105469 h 1.875 c 0.06641,0 0.101562,0.03516 0.101562,0.105469 V -0.09375 c 0,0.0664062 -0.03516,0.1015625 -0.101562,0.1015625 h -1.875"
           id="path10622"
           style="fill:#ffffff" />
      </g>
    </g>
    <g
       fill="#ffffff"
       fill-opacity="1"
       id="g4297"
       transform="matrix(7.934839,0,0,7.934839,-83.67856,-4736.4976)"
       style="opacity:1;fill:#ffffff">
      <g
         id="use4295"
         transform="translate(235.75882,572.6142)"
         style="fill:#ffffff">
        <path
           d="m 1.363281,0.0078125 c -0.070312,0 -0.101562,-0.0351563 -0.101562,-0.1015625 v -12.371094 c 0,-0.07031 0.03125,-0.105469 0.101562,-0.105469 h 7.910157 c 0.066406,0 0.101562,0.03516 0.101562,0.105469 v 1.777344 c 0,0.07031 -0.035156,0.105469 -0.101562,0.105469 H 3.339844 v 3.3125 h 5.042969 c 0.070312,0 0.101562,0.035156 0.101562,0.105468 v 1.675782 c 0,0.058593 -0.03125,0.09375 -0.101562,0.09375 H 3.339844 v 3.433593 h 5.933594 c 0.066406,0 0.101562,0.035157 0.101562,0.105469 v 1.761719 c 0,0.0664062 -0.035156,0.1015625 -0.101562,0.1015625 H 1.363281 M 5.851563,-13.683594 c -0.00781,0 -0.023438,-0.0039 -0.042969,-0.01172 -0.015625,-0.0078 -0.023438,-0.01172 -0.035156,-0.02344 l -2.378907,-2.519531 c -0.035156,-0.03516 -0.046875,-0.07031 -0.023437,-0.113282 0.015625,-0.03906 0.050781,-0.05859 0.097656,-0.05859 h 1.902344 c 0.03125,0 0.058594,0.01563 0.085937,0.05078 l 1.804688,2.523437 c 0.015625,0.03516 0.019531,0.07031 0.00391,0.105469 -0.015625,0.03125 -0.042969,0.04687 -0.09375,0.04687 H 5.851563"
           id="path10602"
           style="fill:#ffffff" />
      </g>
    </g>
    <g
       fill="#ffffff"
       fill-opacity="1"
       id="g4301"
       transform="matrix(7.934839,0,0,7.934839,-83.67856,-4736.4976)"
       style="opacity:1;fill:#ffffff">
      <g
         id="use4299"
         transform="translate(245.55525,572.6142)"
         style="fill:#ffffff">
        <path
           d="m 1.371094,0.0078125 c -0.066406,0 -0.101563,-0.0351563 -0.101563,-0.1015625 v -12.371094 c 0,-0.07031 0.035157,-0.105469 0.101563,-0.105469 h 1.769531 c 0.039063,0 0.070313,0.01953 0.097656,0.0625 l 3.460938,7.847657 c 0.554687,-1.316407 1.117187,-2.625 1.683594,-3.925782 0.5625,-1.292968 1.125,-2.601562 1.691406,-3.921875 0.01563,-0.03906 0.04687,-0.0625 0.09375,-0.0625 H 11.9375 c 0.07031,0 0.105469,0.03516 0.105469,0.105469 V -0.09375 c 0,0.0664062 -0.03516,0.1015625 -0.105469,0.1015625 h -1.871094 c -0.070312,0 -0.105468,-0.0351563 -0.105468,-0.1015625 v -7.304688 c -0.398438,0.9375 -0.804688,1.871094 -1.214844,2.796875 -0.40625,0.925782 -0.8125,1.855469 -1.210938,2.789063 -0.019531,0.035156 -0.050781,0.050781 -0.09375,0.050781 h -1.5625 c -0.039062,0 -0.070312,-0.015625 -0.09375,-0.050781 l -2.4375,-5.601563 v 7.320313 c 0,0.0664062 -0.03125,0.1015625 -0.101562,0.1015625 h -1.875"
           id="path10664"
           style="fill:#ffffff" />
      </g>
    </g>
  </g>
</svg>
