<?xml version="1.0" encoding="UTF-8" standalone="no"?>
<!-- Created with Inkscape (http://www.inkscape.org/) -->

<svg
   xmlns:dc="http://purl.org/dc/elements/1.1/"
   xmlns:cc="http://creativecommons.org/ns#"
   xmlns:rdf="http://www.w3.org/1999/02/22-rdf-syntax-ns#"
   xmlns:svg="http://www.w3.org/2000/svg"
   xmlns="http://www.w3.org/2000/svg"
   xmlns:sodipodi="http://sodipodi.sourceforge.net/DTD/sodipodi-0.dtd"
   xmlns:inkscape="http://www.inkscape.org/namespaces/inkscape"
   width="900mm"
   height="1300mm"
   viewBox="0 0 900 1300"
   version="1.1"
   id="svg848"
   inkscape:version="0.92.2 (5c3e80d, 2017-08-06)"
   sodipodi:docname="11.svg">
  <defs
     id="defs842" />
  <sodipodi:namedview
     id="base"
     pagecolor="#ffffff"
     bordercolor="#666666"
     borderopacity="1.0"
     inkscape:pageopacity="0.0"
     inkscape:pageshadow="2"
     inkscape:zoom="0.11799047"
     inkscape:cx="2130.0091"
     inkscape:cy="2053.8384"
     inkscape:document-units="mm"
     inkscape:current-layer="text2903"
     showgrid="false"
     inkscape:snap-global="false"
     inkscape:window-width="1920"
     inkscape:window-height="1057"
     inkscape:window-x="-8"
     inkscape:window-y="-8"
     inkscape:window-maximized="1"
     fit-margin-top="0"
     fit-margin-left="0"
     fit-margin-right="0"
     fit-margin-bottom="0"
     showguides="true"
     inkscape:measure-start="0,0"
     inkscape:measure-end="0,0" />
  <metadata
     id="metadata845">
    <rdf:RDF>
      <cc:Work
         rdf:about="">
        <dc:format>image/svg+xml</dc:format>
        <dc:type
           rdf:resource="http://purl.org/dc/dcmitype/StillImage" />
        <dc:title></dc:title>
      </cc:Work>
    </rdf:RDF>
  </metadata>
  <g
     inkscape:label="Layer 1"
     inkscape:groupmode="layer"
     id="layer1"
     transform="translate(0,1003)">
    <rect
       style="opacity:1;fill:#0046aa;fill-opacity:1;fill-rule:nonzero;stroke:none;stroke-width:4.58492613;stroke-linecap:butt;stroke-linejoin:miter;stroke-miterlimit:10;stroke-dasharray:none;stroke-opacity:1;paint-order:stroke fill markers"
       id="rect1393"
       width="900"
       height="1300"
       x="-4.5474735e-013"
       y="-1003" />
    <rect
       y="-998"
       x="5"
       height="1290"
       width="890"
       id="rect1395"
       style="opacity:1;fill:#ffffff;fill-opacity:1;fill-rule:nonzero;stroke:none;stroke-width:4.54181337;stroke-linecap:butt;stroke-linejoin:miter;stroke-miterlimit:10;stroke-dasharray:none;stroke-opacity:1;paint-order:stroke fill markers" />
    <rect
       y="-988"
       x="15"
       height="1270"
       width="870"
       id="rect1406"
       style="opacity:1;fill:#0046aa;fill-opacity:1;fill-rule:nonzero;stroke:none;stroke-width:4.4555459;stroke-linecap:butt;stroke-linejoin:miter;stroke-miterlimit:10;stroke-dasharray:none;stroke-opacity:1;paint-order:stroke fill markers" />
    <path
       cx="150"
       cy="147"
       r="150"
       id="path8376"
       style="opacity:1;fill:#d35f5f;fill-opacity:1;fill-rule:nonzero;stroke:none;stroke-width:3.92256045;stroke-linecap:butt;stroke-linejoin:miter;stroke-miterlimit:4;stroke-dasharray:none;stroke-opacity:1;paint-order:stroke fill markers"
       d=""
       inkscape:connector-curvature="0" />
    <g
       aria-label="VỊNH"
       style="font-style:normal;font-variant:normal;font-weight:bold;font-stretch:normal;font-size:299.85394287px;line-height:0;font-family:Giaothong1;-inkscape-font-specification:'Giaothong1 Bold';letter-spacing:0px;word-spacing:0px;fill:#ffcc00;fill-opacity:1;stroke:none;stroke-width:1.56173933"
       id="text3577"
       transform="translate(-4496.0426,2396.6803)">
      <g
         aria-label="VỊNH"
         style="font-style:normal;font-variant:normal;font-weight:bold;font-stretch:normal;font-size:299.85391235px;line-height:0;font-family:Giaothong1;-inkscape-font-specification:'Giaothong1 Bold';letter-spacing:-2.78077078px;word-spacing:0px;fill:#ffcc00;fill-opacity:1;stroke:none;stroke-width:2.43902946"
         id="text3665" />
    </g>
    <g
       aria-label="PHÍA TRƯỚC"
       style="font-style:normal;font-variant:normal;font-weight:bold;font-stretch:normal;font-size:184.17253113px;line-height:0;font-family:Giaothong1;-inkscape-font-specification:'Giaothong1 Bold';letter-spacing:0px;word-spacing:1.03981245px;fill:#ffffff;fill-opacity:1;stroke:none;stroke-width:0.95923197"
       id="text2715"
       transform="translate(-2537.0005,716.70264)">
      <path
         d="m 2668.0005,-1520.7819 v -122.8416 h 28.687 q 5.3957,0 10.7014,2.2482 5.3957,2.1583 8.9928,5.7554 3.5972,3.5971 6.0252,8.6331 2.518,4.946 2.518,9.5323 v 17.8058 q 0,6.8345 -1.8885,12.2302 -1.7985,5.3057 -6.2949,9.8021 -4.4964,4.4964 -9.8022,6.4749 -5.2158,1.8884 -12.2302,1.8884 h -9.1727 v 48.4712 z m 37.2302,-68.5251 q 1.6187,-1.6187 2.0683,-3.4173 0.4497,-1.8884 0.4497,-4.6762 v -2.2482 -16.0072 q 0,-5.1259 -3.1475,-8.4532 -3.0576,-3.3274 -8.4533,-3.3274 h -10.6115 v 41.6367 h 9.1727 q 3.687,0 5.9352,-0.6295 2.3382,-0.6295 4.5864,-2.8777 z"
         style="word-spacing:1.03981245px;fill:#ffffff;fill-opacity:1;stroke:none;stroke-width:0.95923197;stroke-opacity:1"
         id="path2781"
         inkscape:connector-curvature="0" />
      <path
         d="m 2737.4249,-1520.7819 v -122.8416 h 17.3561 v 52.5179 h 22.3921 v -52.5179 h 17.3561 v 122.8416 h -17.3561 v -54.856 h -22.3921 v 54.856 z"
         style="word-spacing:1.03981245px;fill:#ffffff;fill-opacity:1;stroke:none;stroke-width:0.95923197;stroke-opacity:1"
         id="path2783"
         inkscape:connector-curvature="0" />
      <path
         d="m 2813.6838,-1520.7819 v -122.8416 h 17.3561 v 122.8416 z m -9.5323,-131.8344 18.9748,-25.0899 h 17.2661 l -25.1798,25.0899 z"
         style="word-spacing:1.03981245px;fill:#ffffff;fill-opacity:1;stroke:none;stroke-width:0.95923197;stroke-opacity:1"
         id="path2785"
         inkscape:connector-curvature="0" />
      <path
         d="m 2841.0219,-1520.7819 27.4281,-122.8416 h 15.2877 l 27.4281,122.8416 h -18.795 l -4.946,-26.3489 h -22.8417 l -4.9461,26.3489 z m 26.7086,-42.7158 h 16.5468 l -8.2734,-44.7841 z"
         style="word-spacing:1.03981245px;fill:#ffffff;fill-opacity:1;stroke:none;stroke-width:0.95923197;stroke-opacity:1"
         id="path2787"
         inkscape:connector-curvature="0" />
      <path
         d="m 2968.5904,-1520.7819 v -106.4747 h -20.5935 v -16.3669 h 59.0827 v 16.3669 h -20.9532 v 106.4747 z"
         style="word-spacing:1.03981245px;fill:#ffffff;fill-opacity:1;stroke:none;stroke-width:0.95923197;stroke-opacity:1"
         id="path2789"
         inkscape:connector-curvature="0" />
      <path
         d="m 3019.2199,-1520.7819 v -122.8416 h 30.7554 q 12.1402,0 20.4136,8.4532 8.3633,8.4533 8.3633,20.6835 v 11.4208 q 0,16.9065 -14.3885,25.8993 l 18.6151,56.3848 h -18.6151 l -16.6366,-52.6978 h -10.9713 v 52.6978 z m 39.0287,-72.0323 q 1.7087,-1.9784 2.3382,-4.5863 0.6295,-2.6079 0.6295,-5.6655 v -11.4208 q 0,-5.7554 -3.1475,-9.2626 -3.1475,-3.5072 -8.813,-3.5072 h -12.5 v 38.3093 h 12.3202 q 5.4856,0 9.1726,-3.8669 z"
         style="word-spacing:1.03981245px;fill:#ffffff;fill-opacity:1;stroke:none;stroke-width:0.95923197;stroke-opacity:1"
         id="path2791"
         inkscape:connector-curvature="0" />
      <path
         d="m 3159.4176,-1653.5156 q 0.8094,0.9892 1.5288,1.9784 3.8669,5.3058 3.6871,12.0504 -0.09,6.7446 -5.036,10.3417 -4.5863,3.3273 -8.9029,3.777 -0.9892,0.09 -1.8885,0.09 v 75.5395 q 0,4.4964 -0.9892,8.4532 -0.8993,3.9569 -3.0575,7.6439 -3.8669,6.205 -10.3417,10.0719 -6.4749,3.867 -14.0288,3.867 -7.7338,0 -14.6583,-3.9569 -6.8345,-3.9568 -9.6223,-8.9928 -2.7877,-5.0359 -3.5971,-8.8129 -0.8093,-3.777 -0.8093,-8.2734 v -93.8848 h 17.5359 v 93.8848 q 0,2.4281 0.3597,4.2266 0.3597,1.7087 2.7878,5.036 2.518,3.3273 8.2734,3.3273 5.3057,0 7.9136,-3.8669 2.6979,-3.8669 2.6979,-8.723 v -93.8848 h 17.5359 v 9.6223 q 1.6187,0.09 3.0576,-0.9892 3.1475,-2.2482 3.687,-5.4856 0.5396,-3.1475 -2.428,-7.3741 z"
         style="word-spacing:1.03981245px;fill:#ffffff;fill-opacity:1;stroke:none;stroke-width:0.95923197;stroke-opacity:1"
         id="path2793"
         inkscape:connector-curvature="0" />
      <path
         d="m 3212.0255,-1622.4005 q -3.687,-5.036 -9.5324,-5.036 -3.1474,0 -6.205,1.7986 -3.0575,1.7086 -4.2266,3.8669 -1.1691,2.0683 -1.5288,4.3165 -0.3597,2.1583 -0.3597,3.6871 v 62.5899 q 0,1.8885 0.2698,4.1367 0.2698,2.1582 2.8777,5.9352 2.6978,3.777 9.1726,3.777 3.3274,0 5.9353,-1.5288 2.6978,-1.6187 3.8669,-3.5971 1.259,-2.0684 1.6187,-3.8669 0.3597,-1.8885 0.3597,-4.8561 v -62.5899 q 0,-3.6871 -0.2698,-5.1259 -0.2698,-1.5288 -1.9784,-3.5072 z m -27.9676,-30.2158 18.9748,-25.0899 h 17.3561 l -25.2698,25.0899 z m 51.7086,-0.3597 q 0.5396,0.7194 1.0791,1.4388 3.8669,5.3058 3.6871,12.0504 -0.09,6.7446 -5.036,10.3417 -2.6079,1.8885 -5.7554,2.8777 0.2698,0.8093 0.5396,1.6187 1.4388,4.946 1.4388,10.8813 v 62.5899 q 0,5.5755 -0.9892,9.7122 -0.9892,4.1367 -4.3165,9.2626 -3.3274,5.1259 -9.8022,8.8129 -6.3849,3.6871 -13.9388,3.6871 -8.6331,0 -15.9173,-4.4065 -7.2841,-4.4065 -10.1618,-9.982 -2.8777,-5.6655 -3.4173,-9.0827 -0.5396,-3.4173 -0.5396,-8.0036 v -62.5899 q 0,-5.5755 1.1691,-9.8022 1.259,-4.2266 4.1367,-8.4532 4.2266,-5.9352 10.7014,-9.2626 6.4748,-3.4172 13.4892,-3.4172 6.7446,0 12.7698,2.7877 6.0252,2.6979 9.982,7.464 0.3597,0.4497 0.7194,0.8993 1.259,-0.5395 2.1583,-1.4388 3.1475,-2.2482 3.6871,-5.4856 0.4496,-2.8777 -1.259,-6.7446 z"
         style="word-spacing:1.03981245px;fill:#ffffff;fill-opacity:1;stroke:none;stroke-width:0.95923197;stroke-opacity:1"
         id="path2795"
         inkscape:connector-curvature="0" />
      <path
         d="m 3306.0003,-1551.7171 q 0,5.8453 -0.7195,10.0719 -0.6295,4.1367 -3.687,9.0828 -2.9676,4.946 -9.5324,8.9028 -6.5647,3.9569 -13.3093,3.9569 -8.0935,0 -14.8381,-3.5072 -6.7446,-3.5072 -9.8921,-8.813 -3.1475,-5.3057 -3.9568,-9.8021 -0.8094,-4.5863 -0.8094,-9.8921 v -63.3992 q 0,-5.1259 0.9892,-9.1727 1.0791,-4.0467 4.3166,-8.8129 3.3273,-4.8561 9.2625,-8.1835 6.0252,-3.4172 12.6799,-3.4172 12.6798,0 21.0431,8.3633 8.4533,8.3633 8.4533,21.223 v 6.6546 h -17.3561 v -6.6546 q 0,-5.1259 -2.8777,-8.5432 -2.7878,-3.4173 -8.3633,-3.4173 -5.1259,0 -8.0036,3.4173 -2.7878,3.4173 -2.7878,8.5432 v 63.3992 q 0,2.4281 0.09,4.8561 0.09,2.3381 2.4281,6.0252 2.428,3.687 8.4532,3.687 6.4748,0 8.3633,-3.2374 1.9784,-3.2374 2.3381,-4.7662 0.3597,-1.6187 0.3597,-4.3165 v -2.2482 -4.0468 h 17.3561 z"
         style="word-spacing:1.03981245px;fill:#ffffff;fill-opacity:1;stroke:none;stroke-width:0.95923197;stroke-opacity:1"
         id="path2797"
         inkscape:connector-curvature="0" />
    </g>
    <g
       aria-label="CÔNG TRƯỜNG"
       style="font-style:normal;font-variant:normal;font-weight:bold;font-stretch:normal;font-size:184.17256165px;line-height:0;font-family:Giaothong1;-inkscape-font-specification:'Giaothong1 Bold';letter-spacing:0px;word-spacing:0.48683333px;fill:#ffffff;fill-opacity:1;stroke:none;stroke-width:0.95923203"
       id="text2719">
      <path
         d="m 121.7445,-85.01437 q 0,5.84532 -0.7194,10.07194 -0.6295,4.13669 -3.687,9.08273 -2.9677,4.94604 -9.5324,8.90287 Q 101.2409,-53 94.4963,-53 q -8.0935,0 -14.8381,-3.50719 -6.7446,-3.50719 -9.8921,-8.81294 -3.1474,-5.30576 -3.9568,-9.80216 Q 65,-79.70861 65,-85.01437 v -63.39924 q 0,-5.1259 0.9892,-9.17266 1.0791,-4.04676 4.3165,-8.81294 3.3273,-4.85612 9.2626,-8.18345 6.0252,-3.41727 12.6798,-3.41727 12.6799,0 21.0432,8.36331 8.4532,8.3633 8.4532,21.22301 v 6.65467 h -17.3561 v -6.65467 q 0,-5.1259 -2.8777,-8.54316 -2.7877,-3.41727 -8.3633,-3.41727 -5.1259,0 -8.0036,3.41727 -2.7877,3.41726 -2.7877,8.54316 v 63.39924 q 0,2.42806 0.09,4.85612 0.09,2.33812 2.428,6.02517 2.4281,3.68705 8.4533,3.68705 6.4748,0 8.3633,-3.23741 1.9784,-3.23741 2.3381,-4.76618 0.3597,-1.61871 0.3597,-4.31655 v -2.2482 -4.04676 h 17.3561 z"
         style="word-spacing:0.48683333px;fill:#ffffff;fill-opacity:1;stroke:none;stroke-width:0.95923203;stroke-opacity:1"
         id="path2865"
         inkscape:connector-curvature="0" />
      <path
         d="m 140.9891,-165.32008 q 4.2266,-5.93525 10.7015,-9.26258 6.4748,-3.41727 13.4892,-3.41727 6.7446,0 12.7697,2.78777 6.0252,2.69784 9.982,7.55395 3.9569,4.76619 5.3957,9.71223 1.4389,4.94604 1.4389,10.88129 v 62.58989 q 0,5.57554 -0.9892,9.71223 -0.9892,4.13668 -4.3166,9.26258 -3.3273,5.1259 -9.8021,8.81295 Q 173.2733,-53 165.7193,-53 q -8.6331,0 -15.9172,-4.40647 -7.2842,-4.40647 -10.1619,-9.98201 -2.8777,-5.66546 -3.4173,-9.08273 -0.5395,-3.41726 -0.5395,-8.00359 v -62.58989 q 0,-5.57554 1.169,-9.80216 1.259,-4.22661 4.1367,-8.45323 z m 34.0827,9.6223 q -3.687,-5.03597 -9.5323,-5.03597 -3.1475,0 -6.2051,1.79856 -3.0575,1.70863 -4.2266,3.8669 -1.169,2.06835 -1.5288,4.31655 -0.3597,2.15827 -0.3597,3.68705 v 62.58989 q 0,1.88849 0.2698,4.13669 0.2698,2.15827 2.8777,5.93525 2.6979,3.77697 9.1727,3.77697 3.3273,0 5.9352,-1.52877 2.6979,-1.61871 3.8669,-3.59712 1.259,-2.06835 1.6187,-3.86691 0.3597,-1.88848 0.3597,-4.85611 v -62.58989 q 0,-3.68705 -0.2697,-5.1259 -0.2698,-1.52878 -1.9785,-3.50719 z m -10.0719,-38.03955 -12.5899,9.6223 h -12.1403 l 18.3453,-18.43524 h 13.4892 l 18.1655,18.43524 h -12.3202 z"
         style="word-spacing:0.48683333px;fill:#ffffff;fill-opacity:1;stroke:none;stroke-width:0.95923203;stroke-opacity:1"
         id="path2867"
         inkscape:connector-curvature="0" />
      <path
         d="m 257.4459,-54.07913 -27.428,-74.55032 v 74.55032 h -17.536 v -122.84166 h 16.5467 l 27.2482,74.37046 v -74.37046 h 17.536 v 122.84166 z"
         style="word-spacing:0.48683333px;fill:#ffffff;fill-opacity:1;stroke:none;stroke-width:0.95923203;stroke-opacity:1"
         id="path2869"
         inkscape:connector-curvature="0" />
      <path
         d="m 346.4746,-66.93884 q -4.0467,6.56475 -10.7014,10.2518 Q 329.2085,-53 321.2948,-53 q -7.0144,0 -13.4892,-3.2374 -6.4748,-3.32734 -10.072,-8.18345 -3.5071,-4.94604 -4.7661,-9.80216 -1.1691,-4.94604 -1.1691,-11.15107 v -61.51076 q 0,-4.94604 0.9892,-9.08273 1.0791,-4.22661 6.7446,-13.12949 5.7554,-8.90287 22.3022,-8.90287 7.3741,0 13.7589,3.50719 6.4749,3.5072 9.8022,8.54317 3.3273,5.03596 4.3165,9.44244 0.9892,4.40647 0.9892,9.62229 v 5.1259 h -17.2661 v -5.1259 q 0,-3.14748 -0.2698,-4.85611 -0.2698,-1.79856 -2.7878,-5.30575 -2.518,-3.50719 -8.723,-3.50719 -7.1942,0 -9.5324,3.77697 -2.2482,3.77698 -2.6079,5.66547 -0.3597,1.79856 -0.3597,4.22661 v 61.51076 q 0,3.50719 0.2698,5.30575 0.2698,1.70864 2.6978,5.57554 2.518,3.8669 9.3525,3.8669 7.3741,0 9.2626,-3.8669 1.9784,-3.8669 2.3382,-5.66546 0.3597,-1.88849 0.3597,-5.21583 v -21.58272 h -14.2087 v -15.28776 h 31.4748 v 36.87048 q 0,7.73381 -0.8992,11.15107 -0.8993,3.41727 -3.3274,7.28417 z"
         style="word-spacing:0.48683333px;fill:#ffffff;fill-opacity:1;stroke:none;stroke-width:0.95923203;stroke-opacity:1"
         id="path2871"
         inkscape:connector-curvature="0" />
      <path
         d="m 415.036,-54.07913 v -106.47476 h -20.5935 v -16.3669 h 59.0827 v 16.3669 h -20.9533 v 106.47476 z"
         style="word-spacing:0.48683333px;fill:#ffffff;fill-opacity:1;stroke:none;stroke-width:0.95923203;stroke-opacity:1"
         id="path2873"
         inkscape:connector-curvature="0" />
      <path
         d="m 465.6654,-54.07913 v -122.84166 h 30.7554 q 12.1403,0 20.4137,8.45323 8.3633,8.45323 8.3633,20.68344 v 11.42086 q 0,16.90647 -14.3885,25.89927 l 18.6151,56.38486 h -18.6151 l -16.6367,-52.69782 h -10.9712 v 52.69782 z m 39.0288,-72.03234 q 1.7086,-1.97841 2.3381,-4.58633 0.6295,-2.60791 0.6295,-5.66546 v -11.42086 q 0,-5.75539 -3.1475,-9.26258 -3.1474,-3.50719 -8.8129,-3.50719 h -12.5 v 38.30933 h 12.3201 q 5.4857,0 9.1727,-3.86691 z"
         style="word-spacing:0.48683333px;fill:#ffffff;fill-opacity:1;stroke:none;stroke-width:0.95923203;stroke-opacity:1"
         id="path2875"
         inkscape:connector-curvature="0" />
      <path
         d="m 605.8632,-186.81287 q 0.8094,0.98921 1.5288,1.97841 3.8669,5.30576 3.687,12.05036 -0.09,6.7446 -5.0359,10.34172 -4.5864,3.32733 -8.9029,3.77697 -0.9892,0.0899 -1.8885,0.0899 v 75.53953 q 0,4.4964 -0.9892,8.45323 -0.8993,3.95683 -3.0576,7.64388 -3.8669,6.20504 -10.3417,10.07194 Q 574.3884,-53 566.8344,-53 q -7.7338,0 -14.6582,-3.95683 -6.8345,-3.95683 -9.6223,-8.9928 -2.7878,-5.03597 -3.5971,-8.81294 -0.8094,-3.77698 -0.8094,-8.27338 v -93.88484 h 17.536 v 93.88484 q 0,2.42806 0.3597,4.22662 0.3597,1.70863 2.7878,5.03596 2.5179,3.32734 8.2733,3.32734 5.3058,0 7.9137,-3.8669 2.6978,-3.86691 2.6978,-8.72302 v -93.88484 h 17.536 v 9.6223 q 1.6187,0.0899 3.0576,-0.98921 3.1474,-2.2482 3.687,-5.48561 0.5396,-3.14748 -2.4281,-7.3741 z"
         style="word-spacing:0.48683333px;fill:#ffffff;fill-opacity:1;stroke:none;stroke-width:0.95923203;stroke-opacity:1"
         id="path2877"
         inkscape:connector-curvature="0" />
      <path
         d="m 658.4711,-155.69778 q -3.6871,-5.03597 -9.5324,-5.03597 -3.1475,0 -6.205,1.79856 -3.0576,1.70863 -4.2267,3.8669 -1.169,2.06835 -1.5287,4.31655 -0.3597,2.15827 -0.3597,3.68705 v 62.58989 q 0,1.88849 0.2697,4.13669 0.2698,2.15827 2.8777,5.93525 2.6979,3.77697 9.1727,3.77697 3.3273,0 5.9352,-1.52877 2.6979,-1.61871 3.867,-3.59712 1.2589,-2.06835 1.6187,-3.86691 0.3597,-1.88848 0.3597,-4.85611 v -62.58989 q 0,-3.68705 -0.2698,-5.1259 -0.2698,-1.52878 -1.9784,-3.50719 z m -2.8777,-30.21581 -25.1799,-25.08992 h 17.2662 l 19.1547,25.08992 z m 26.6187,-0.35971 q 0.5395,0.71942 1.0791,1.43884 3.8669,5.30576 3.687,12.05036 -0.09,6.7446 -5.0359,10.34172 -2.6079,1.88849 -5.7554,2.87769 0.2698,0.80936 0.5396,1.61871 1.4388,4.94604 1.4388,10.88129 v 62.58989 q 0,5.57554 -0.9892,9.71223 -0.9892,4.13668 -4.3166,9.26258 -3.3273,5.1259 -9.8021,8.81295 Q 656.6725,-53 649.1186,-53 q -8.6331,0 -15.9173,-4.40647 -7.2842,-4.40647 -10.1619,-9.98201 -2.8777,-5.66546 -3.4172,-9.08273 -0.5396,-3.41726 -0.5396,-8.00359 v -62.58989 q 0,-5.57554 1.1691,-9.80216 1.259,-4.22661 4.1367,-8.45323 4.2266,-5.93525 10.7014,-9.26258 6.4748,-3.41727 13.4892,-3.41727 6.7446,0 12.7698,2.78777 6.0251,2.69784 9.982,7.46403 0.3597,0.44964 0.7194,0.89928 1.259,-0.53957 2.1583,-1.43885 3.1474,-2.2482 3.687,-5.48561 0.4497,-2.8777 -1.259,-6.7446 z"
         style="word-spacing:0.48683333px;fill:#ffffff;fill-opacity:1;stroke:none;stroke-width:0.95923203;stroke-opacity:1"
         id="path2879"
         inkscape:connector-curvature="0" />
      <path
         d="m 741.7444,-54.07913 -27.428,-74.55032 v 74.55032 h -17.536 v -122.84166 h 16.5468 l 27.2482,74.37046 v -74.37046 h 17.5359 v 122.84166 z"
         style="word-spacing:0.48683333px;fill:#ffffff;fill-opacity:1;stroke:none;stroke-width:0.95923203;stroke-opacity:1"
         id="path2881"
         inkscape:connector-curvature="0" />
      <path
         d="m 830.7732,-66.93884 q -4.0468,6.56475 -10.7015,10.2518 Q 813.507,-53 805.5933,-53 q -7.0144,0 -13.4892,-3.2374 -6.4748,-3.32734 -10.0719,-8.18345 -3.5072,-4.94604 -4.7662,-9.80216 -1.1691,-4.94604 -1.1691,-11.15107 v -61.51076 q 0,-4.94604 0.9892,-9.08273 1.0792,-4.22661 6.7446,-13.12949 5.7554,-8.90287 22.3022,-8.90287 7.3741,0 13.759,3.50719 6.4748,3.5072 9.8021,8.54317 3.3274,5.03596 4.3166,9.44244 0.9892,4.40647 0.9892,9.62229 v 5.1259 h -17.2662 v -5.1259 q 0,-3.14748 -0.2698,-4.85611 -0.2698,-1.79856 -2.7878,-5.30575 -2.5179,-3.50719 -8.723,-3.50719 -7.1942,0 -9.5323,3.77697 -2.2482,3.77698 -2.608,5.66547 -0.3597,1.79856 -0.3597,4.22661 v 61.51076 q 0,3.50719 0.2698,5.30575 0.2698,1.70864 2.6979,5.57554 2.5179,3.8669 9.3525,3.8669 7.3741,0 9.2626,-3.8669 1.9784,-3.8669 2.3381,-5.66546 0.3597,-1.88849 0.3597,-5.21583 V -106.9568 H 803.525 v -15.28776 h 31.4748 v 36.87048 q 0,7.73381 -0.8993,11.15107 -0.8993,3.41727 -3.3273,7.28417 z"
         style="word-spacing:0.48683333px;fill:#ffffff;fill-opacity:1;stroke:none;stroke-width:0.95923203;stroke-opacity:1"
         id="path2883"
         inkscape:connector-curvature="0" />
      <g
         aria-label="AHEAD"
         style="font-style:normal;font-variant:normal;font-weight:bold;font-stretch:normal;font-size:187.40849304px;line-height:0;font-family:Giaothong1;-inkscape-font-specification:'Giaothong1 Bold';letter-spacing:0.00264583px;word-spacing:0px;fill:#ffffff;fill-opacity:1;stroke:none;stroke-width:0.93629289"
         id="text2888">
        <path
           d="m 270.5,-553 27.9099,-125 h 15.5564 l 27.9099,125 h -19.1251 l -5.033,-26.8119 h -23.243 L 289.4421,-553 Z m 27.1778,-43.4664 h 16.8375 l -8.4187,-45.571 z"
           style="letter-spacing:0.00264583px;fill:#ffffff;stroke:none;stroke-width:0.93629289;stroke-opacity:1"
           id="path2890"
           inkscape:connector-curvature="0" />
        <path
           d="m 352.1278,-553 v -125 h 17.661 v 53.4407 h 22.7855 V -678 h 17.6611 v 125 h -17.6611 v -55.8199 H 369.7888 V -553 Z"
           style="letter-spacing:0.00264583px;fill:#ffffff;stroke:none;stroke-width:0.93629289;stroke-opacity:1"
           id="path2892"
           inkscape:connector-curvature="0" />
        <path
           d="M 483.17,-571.0271 V -553 H 429.7293 V -678 H 483.17 v 16.4714 h -35.7797 v 36.9693 h 31.4788 v 16.8375 h -31.4788 v 36.6947 z"
           style="letter-spacing:0.00264583px;fill:#ffffff;stroke:none;stroke-width:0.93629289;stroke-opacity:1"
           id="path2894"
           inkscape:connector-curvature="0" />
        <path
           d="m 490.1309,-553 27.91,-125 h 15.5564 l 27.9099,125 H 542.382 l -5.0329,-26.8119 H 514.106 L 509.0731,-553 Z m 27.1779,-43.4664 h 16.8375 l -8.4187,-45.571 z"
           style="letter-spacing:0.00264583px;fill:#ffffff;stroke:none;stroke-width:0.93629289;stroke-opacity:1"
           id="path2896"
           inkscape:connector-curvature="0" />
        <path
           d="m 600.0347,-678 q 11.9876,0 20.6809,8.5102 8.7847,8.5103 8.7847,20.4978 v 65.0623 q 0,13.5431 -8.3272,22.2364 Q 612.8459,-553 599.4857,-553 h -27.727 v -125 z m 11.8046,94.0703 v -65.0623 q 0,-5.2159 -3.8434,-8.6932 -3.8433,-3.4773 -9.2423,-3.4773 h -9.3338 v 91.508 h 8.7848 q 13.6347,0 13.6347,-14.2752 z"
           style="letter-spacing:0.00264583px;fill:#ffffff;stroke:none;stroke-width:0.93629289;stroke-opacity:1"
           id="path2898"
           inkscape:connector-curvature="0" />
        <g
           aria-label="WORKS"
           style="font-style:normal;font-variant:normal;font-weight:bold;font-stretch:normal;font-size:184.17266846px;line-height:0;font-family:Giaothong1;-inkscape-font-specification:'Giaothong1 Bold';letter-spacing:0.00529167px;word-spacing:0px;fill:#ffffff;fill-opacity:1;stroke:none;stroke-width:0.89812267"
           id="text2903">
          <path
             d="m 316.4899,195.92087 -14.2986,-74.73022 -14.2086,74.73022 h -16.187 L 253.9,73.079137 h 18.7949 l 8.6331,74.190653 14.2087,-74.190653 h 13.0395 l 14.3885,74.190653 8.813,-74.190653 h 18.6151 L 333.1266,195.92087 Z"
             style="letter-spacing:0.00529167px;fill:#ffffff;stroke:none;stroke-width:0.89812267;stroke-opacity:1"
             id="path2905"
             inkscape:connector-curvature="0" />
          <path
             d="m 364.9695,84.679857 q 4.2266,-5.93525 10.7015,-9.26259 6.4748,-3.41727 13.4892,-3.41727 6.7446,0 12.7698,2.78777 6.0251,2.69785 9.982,7.55396 3.9568,4.76619 5.3957,9.71223 1.4388,4.94604 1.4388,10.881303 v 62.58993 q 0,5.57553 -0.9892,9.71222 -0.9892,4.1367 -4.3166,9.26259 -3.3273,5.1259 -9.8021,8.81295 Q 397.2537,197 389.6997,197 q -8.6331,0 -15.9172,-4.40647 -7.2842,-4.40648 -10.1619,-9.98201 -2.8777,-5.66547 -3.4173,-9.08274 -0.5395,-3.41727 -0.5395,-8.00359 v -62.58993 q 0,-5.575543 1.169,-9.802163 1.259,-4.22662 4.1367,-8.45324 z m 34.0828,9.6223 q -3.6871,-5.03597 -9.5324,-5.03597 -3.1475,0 -6.2051,1.79856 -3.0575,1.70864 -4.2266,3.86691 -1.169,2.06834 -1.5288,4.31655 -0.3597,2.158273 -0.3597,3.687053 v 62.58993 q 0,1.88849 0.2698,4.13668 0.2698,2.15828 2.8777,5.93526 2.6979,3.77698 9.1727,3.77698 3.3273,0 5.9352,-1.52878 2.6979,-1.61871 3.8669,-3.59712 1.259,-2.06835 1.6187,-3.86691 0.3598,-1.88849 0.3598,-4.85611 v -62.58993 q 0,-3.687053 -0.2698,-5.125903 -0.2698,-1.52878 -1.9784,-3.5072 z"
             style="letter-spacing:0.00529167px;fill:#ffffff;stroke:none;stroke-width:0.89812267;stroke-opacity:1"
             id="path2907"
             inkscape:connector-curvature="0" />
          <path
             d="M 436.2878,195.92087 V 73.079137 h 30.7554 q 12.1402,0 20.4136,8.45324 8.3633,8.45324 8.3633,20.683453 v 11.42087 q 0,16.90647 -14.3885,25.89928 l 18.6152,56.38489 H 481.4316 L 464.795,143.22303 h -10.9713 v 52.69784 z m 39.0287,-72.03237 q 1.7087,-1.97842 2.3382,-4.58634 0.6295,-2.60791 0.6295,-5.66546 v -11.42087 q 0,-5.755393 -3.1475,-9.262593 -3.1475,-3.50719 -8.813,-3.50719 h -12.5 V 127.7554 h 12.3202 q 5.4856,0 9.1726,-3.8669 z"
             style="letter-spacing:0.00529167px;fill:#ffffff;stroke:none;stroke-width:0.89812267;stroke-opacity:1"
             id="path2909"
             inkscape:connector-curvature="0" />
          <path
             d="m 559.4945,195.92087 -19.6943,-54.85612 -9.7122,18.16547 v 36.69065 H 512.7319 V 73.079137 h 17.536 v 56.564753 l 26.259,-56.564753 h 17.3561 l -23.9209,49.010793 28.1475,73.83094 z"
             style="letter-spacing:0.00529167px;fill:#ffffff;stroke:none;stroke-width:0.89812267;stroke-opacity:1"
             id="path2911"
             inkscape:connector-curvature="0" />
          <path
             d="m 603.38379,165.34533 q 0,3.50719 0.2698,5.30575 0.2698,1.70864 2.6978,5.30576 2.518,3.59712 9.1727,3.59712 3.6871,0 6.7446,-1.52878 3.1475,-1.6187 4.5863,-4.04676 1.5288,-2.51798 1.6187,-5.21583 0.09,-2.69783 0.09,-3.59712 v -8.63309 q 0,-3.68705 -0.2697,-5.48561 -0.2698,-1.88849 -2.2482,-3.95684 -1.8885,-2.15827 -5.4856,-3.8669 -3.5972,-1.79856 -12.5001,-5.1259 -8.9028,-3.32734 -15.0179,-10.43166 -6.1151,-7.10431 -6.1151,-19.42446 v -5.48561 q 0,-12.589933 8.3633,-21.672663 8.4532,-9.08274 20.9532,-9.08274 12.6799,0 21.223,8.90288 8.6331,8.90288 8.6331,21.852523 v 5.48561 h -17.536 v -5.48561 q 0,-2.60791 -0.3597,-4.406473 -0.3597,-1.88849 -2.9676,-5.39569 -2.518,-3.50719 -8.6331,-3.50719 -5.3057,0 -8.723,3.77698 -3.4173,3.77697 -3.4173,9.532373 v 5.48561 q 0,3.5072 0.2698,5.1259 0.2698,1.52878 1.8885,3.59712 1.7086,1.97842 4.8561,3.5072 3.1475,1.43885 12.0504,4.67626 8.9029,3.14748 15.7374,10.43165 6.8345,7.28418 6.8345,19.78418 v 9.98201 q 0,6.11511 -1.259,10.70144 -1.169,4.58633 -7.464,12.76978 -6.205,8.18345 -21.4928,8.18345 -15.8273,0 -23.0216,-10.34172 -7.1942,-10.43166 -7.1942,-21.31295 v -4.40647 h 17.7158 z"
             style="letter-spacing:0.00529167px;fill:#ffffff;stroke:none;stroke-width:0.89812267;stroke-opacity:1"
             id="path2913"
             inkscape:connector-curvature="0" />
          <g
             aria-label="50 m"
             style="font-style:normal;font-variant:normal;font-weight:bold;font-stretch:normal;font-size:184.1414032px;line-height:0;font-family:Giaothong1;-inkscape-font-specification:'Giaothong1 Bold';letter-spacing:0px;word-spacing:0px;fill:#ffffff;fill-opacity:1;stroke:none;stroke-width:0.86136234"
             id="text859"
             transform="translate(741.26636,397.57605)">
            <path
               d="m -382.57758,-780.68835 q 4.67546,0 9.35093,2.6075 4.67547,2.6075 6.92329,6.0242 2.33773,3.4167 3.14694,7.193 0.89913,3.6864 0.89913,8.0022 v 27.6033 q 0,4.046 -0.26974,6.8333 -0.26974,2.6974 -2.1579,7.7325 -1.79826,4.9452 -8.90137,9.5308 -7.10311,4.5855 -15.19526,4.5855 -6.2939,0 -11.95841,-2.9671 -5.57459,-3.057 -8.72154,-7.4627 -3.05703,-4.4957 -4.2259,-8.9913 -1.07895,-4.4957 -1.07895,-9.261 v -3.147 h 17.89264 v 3.147 q 0,1.7982 0.0899,3.6864 0.0899,1.7982 1.88817,4.5855 1.88817,2.7873 6.47372,2.7873 4.9452,0 6.56363,-2.6974 1.70834,-2.6973 1.88817,-4.2259 0.17983,-1.6184 0.17983,-3.4166 v -2.068 -23.9168 q 0,-1.6185 -0.0899,-3.4167 -0.0899,-1.8882 -2.06799,-4.6755 -1.88817,-2.7873 -6.2939,-2.7873 -6.47372,0 -8.63163,6.4737 h -15.64482 v -65.5464 h 50.26125 v 16.3641 h -34.61643 v 32.998 q 6.38381,-5.5746 14.29614,-5.5746 z"
               style="stroke-width:0.86136234;fill:#ffffff;stroke:none"
               id="path861"
               inkscape:connector-curvature="0" />
            <path
               d="m -328.45008,-701.29535 q -19.33125,-3.6864 -22.4782,-22.658 0,-19.6909 0,-39.4717 0,-19.7808 0,-39.6515 2.42765,-14.3861 12.67771,-19.3313 10.33997,-5.0351 23.55715,-2.068 6.65355,4.0461 10.69962,8.5417 4.04608,4.4957 5.5746,12.8576 0,19.8707 0,39.5616 0,19.6909 0,39.202 -2.60748,17.8926 -19.15143,22.8378 -2.06799,0 -3.5066,0.09 -1.34869,0.09 -7.37285,0.09 z m 1.79826,-17.7128 q 8.09215,0 10.33997,-7.1031 0,-18.6119 0,-37.134 0,-18.522 0,-37.134 -1.07895,-3.3267 -2.42765,-5.4846 -5.30485,-4.0461 -8.99128,-1.7084 -3.68642,2.2478 -5.30485,7.193 0,18.4322 0,36.9542 0,18.522 0,36.9542 1.07895,5.6645 6.38381,7.4627 z"
               style="stroke-width:0.86136234;fill:#ffffff;stroke:none"
               id="path863"
               inkscape:connector-curvature="0" />
            <path
               d="m -205.70919,-781.40765 q 3.5066,-4.4057 7.7325,-6.6535 4.2259,-2.3377 9.62067,-2.3377 8.99128,0 14.7457,6.3838 5.84433,6.2939 5.84433,15.3751 v 66.985 h -17.71282 v -62.0398 q 0,-4.2259 -2.15791,-6.9233 -2.06799,-2.6974 -6.47372,-2.6974 -3.68642,0 -6.20398,2.8772 -2.42765,2.8772 -2.42765,6.7435 v 62.0398 h -17.71282 v -62.0398 q 0,-4.0461 -2.42764,-6.8334 -2.33774,-2.7873 -6.38381,-2.7873 -3.68643,0 -6.20399,2.8772 -2.42764,2.8772 -2.42764,6.7435 v 62.0398 h -17.71282 v -87.665 h 17.71282 v 7.9123 q 6.02416,-8.9912 16.54395,-8.9912 4.94521,0 8.90137,2.3377 3.95616,2.2478 6.74346,6.6535 z"
               style="stroke-width:0.86136234;fill:#ffffff;stroke:none"
               id="path865"
               inkscape:connector-curvature="0" />
          </g>
        </g>
      </g>
    </g>
  </g>
</svg>
