<?xml version="1.0" encoding="UTF-8" standalone="no"?>
<!-- Created with Inkscape (http://www.inkscape.org/) -->

<svg
   width="600mm"
   height="800mm"
   viewBox="0 0 600 800"
   version="1.1"
   id="svg848"
   inkscape:version="1.2.2 (732a01da63, 2022-12-09)"
   sodipodi:docname="Vietnam_road_sign_I431.svg"
   xmlns:inkscape="http://www.inkscape.org/namespaces/inkscape"
   xmlns:sodipodi="http://sodipodi.sourceforge.net/DTD/sodipodi-0.dtd"
   xmlns="http://www.w3.org/2000/svg"
   xmlns:svg="http://www.w3.org/2000/svg"
   xmlns:rdf="http://www.w3.org/1999/02/22-rdf-syntax-ns#"
   xmlns:cc="http://creativecommons.org/ns#"
   xmlns:dc="http://purl.org/dc/elements/1.1/">
  <defs
     id="defs842" />
  <sodipodi:namedview
     id="base"
     pagecolor="#ffffff"
     bordercolor="#666666"
     borderopacity="1.0"
     inkscape:pageopacity="0.0"
     inkscape:pageshadow="2"
     inkscape:zoom="0.12372612"
     inkscape:cx="1111.3255"
     inkscape:cy="2347.9278"
     inkscape:document-units="mm"
     inkscape:current-layer="layer1"
     showgrid="false"
     inkscape:snap-global="false"
     inkscape:window-width="1920"
     inkscape:window-height="991"
     inkscape:window-x="-9"
     inkscape:window-y="-9"
     inkscape:window-maximized="1"
     fit-margin-top="0"
     fit-margin-left="0"
     fit-margin-right="0"
     fit-margin-bottom="0"
     showguides="false"
     inkscape:measure-start="0,0"
     inkscape:measure-end="0,0"
     inkscape:showpageshadow="2"
     inkscape:pagecheckerboard="0"
     inkscape:deskcolor="#d1d1d1" />
  <metadata
     id="metadata845">
    <rdf:RDF>
      <cc:Work
         rdf:about="">
        <dc:format>image/svg+xml</dc:format>
        <dc:type
           rdf:resource="http://purl.org/dc/dcmitype/StillImage" />
        <dc:title />
      </cc:Work>
    </rdf:RDF>
  </metadata>
  <g
     inkscape:label="Layer 1"
     inkscape:groupmode="layer"
     id="layer1"
     transform="translate(-50,753)">
    <rect
       style="opacity:1;fill:#0046aa;fill-opacity:1;fill-rule:nonzero;stroke:none;stroke-width:2.93670321;stroke-linecap:butt;stroke-linejoin:miter;stroke-miterlimit:10;stroke-dasharray:none;stroke-opacity:1;paint-order:stroke fill markers"
       id="rect1393"
       width="600"
       height="800"
       x="50"
       y="-753" />
    <rect
       y="-748"
       x="55"
       height="790"
       width="590"
       id="rect1395"
       style="opacity:1;fill:#ffffff;fill-opacity:1;fill-rule:nonzero;stroke:none;stroke-width:2.89386988;stroke-linecap:butt;stroke-linejoin:miter;stroke-miterlimit:10;stroke-dasharray:none;stroke-opacity:1;paint-order:stroke fill markers" />
    <rect
       y="-738"
       x="65"
       height="770"
       width="570"
       id="rect1406"
       style="opacity:1;fill:#0046aa;fill-opacity:1;fill-rule:nonzero;stroke:none;stroke-width:2.80816269;stroke-linecap:butt;stroke-linejoin:miter;stroke-miterlimit:10;stroke-dasharray:none;stroke-opacity:1;paint-order:stroke fill markers" />
    <path
       cx="150"
       cy="147"
       r="150"
       id="path8376"
       style="opacity:1;fill:#d35f5f;fill-opacity:1;fill-rule:nonzero;stroke:none;stroke-width:3.92256045;stroke-linecap:butt;stroke-linejoin:miter;stroke-miterlimit:4;stroke-dasharray:none;stroke-opacity:1;paint-order:stroke fill markers"
       d=""
       inkscape:connector-curvature="0" />
    <rect
       style="opacity:1;fill:#ffffff;fill-opacity:1;fill-rule:nonzero;stroke:none;stroke-width:5.07322454;stroke-linecap:butt;stroke-linejoin:miter;stroke-miterlimit:4;stroke-dasharray:none;stroke-opacity:1;paint-order:stroke fill markers"
       id="rect828"
       width="500"
       height="500"
       x="100"
       y="-703" />
    <g
       transform="matrix(1.0004876,0,0,1.0004876,-290.77787,824.33304)"
       id="g924"
       style="font-style:normal;font-variant:normal;font-weight:bold;font-stretch:normal;font-size:159.07623291px;line-height:0;font-family:Giaothong2;-inkscape-font-specification:'Giaothong2 Bold';letter-spacing:0px;word-spacing:0px;fill:#000000;fill-opacity:1;stroke:none;stroke-width:0.82852203"
       aria-label="TRẠM">
      <g
         id="g922"
         style="font-style:normal;font-variant:normal;font-weight:bold;font-stretch:normal;font-size:161.34654236px;line-height:0;font-family:Giaothong2;-inkscape-font-specification:'Giaothong2 Bold';letter-spacing:3.35592604px;word-spacing:0px;fill:#000000;fill-opacity:1;stroke:none;stroke-width:0.69624561"
         aria-label="TRẠM" />
    </g>
    <g
       aria-label="TRẠM RỬA XE"
       style="font-style:normal;font-variant:normal;font-weight:bold;font-stretch:normal;font-size:83.53499603px;line-height:0;font-family:Giaothong2;-inkscape-font-specification:'Giaothong2 Bold';letter-spacing:0.2460625px;word-spacing:0px;fill:#000000;fill-opacity:1;stroke:none;stroke-width:0.43507808"
       id="text20622"
       transform="translate(-157.26042,569.34396)">
      <g
         id="rect8735"
         style="opacity:1;fill:#000000"
         transform="matrix(5.1197839,1.2387352,0,5.267509,-73.702467,-3567.6714)">
        <path
           id="path9206"
           style="color:#000000;fill:#000000;-inkscape-stroke:none;paint-order:stroke fill markers"
           d="m 125.85725,423.96818 c -1.69197,0.39591 -2.93434,1.91731 -2.93434,3.81896 v 3.0498 l -35.91594,29.45204 -6.141473,-7e-5 c -0.200567,0 -0.397659,0.0209 -0.587773,0.0606 -1.33079,0.27782 -2.354106,1.47727 -2.354106,2.88124 v 4.84277 6.86719 1.86914 10.3667 l 1.451347,-0.34131 2.305878,-0.54226 v -9.11865 l 18.064221,1.75192 v 8.98828 l 3.630626,-0.8538 v -9.62695 l 41.08684,-34.04892 v 10.72266 l 4.40227,-2.80186 v -0.0161 -18.35303 -2.87256 c 0,-2.34049 -1.88201,-4.43423 -4.16716,-4.63478 L 127.09158,423.883 c -0.42848,-0.0376 -0.84386,-0.006 -1.23433,0.0852 z m 0.39637,1.3643 c 0.0516,-0.0118 0.1069,-0.0156 0.15976,-0.0244 v 5.90478 l -1.26899,-0.19376 v -5.11231 c 0.30984,-0.2772 0.68789,-0.47764 1.10923,-0.57433 z m 1.56137,0.008 1.35338,0.11826 v 6.17724 l -1.35338,-0.20761 z m 2.755,0.24128 1.35338,0.11972 v 6.35596 l -1.35338,-0.20614 z m 2.75499,0.24275 1.35188,0.11861 v 6.53613 l -1.35188,-0.2065 z m 2.75349,0.24163 1.35339,0.11826 v 6.71777 l -1.35339,-0.20761 z m 2.755,0.24129 1.35339,0.11825 v 6.89795 l -1.35339,-0.20615 z m 2.755,0.24274 1.35188,0.11861 v 7.07666 l -1.35188,-0.2065 z m -17.83514,5.06432 20.07772,3.07578 -40.45536,31.86868 v -3.32813 c 0,-1.60445 -1.33734,-2.94098 -2.94188,-2.94098 l -11.649957,-0.001 z m 20.58863,-4.82268 0.35568,0.0306 c 0.43993,0.0386 0.85084,0.18579 1.22075,0.4014 v 5.85205 l -1.02784,0.77931 -0.20196,0.15882 -0.34663,-0.0532 z m -63.777885,34.97881 c 0.09718,-0.0198 0.198228,-0.0313 0.301422,-0.0313 l 0.134133,6.9e-4 v 6.54199 l -1.624665,-0.0676 v -4.9834 c 0,-0.72236 0.508847,-1.32181 1.18911,-1.4603 z m 1.561366,-0.0317 1.90348,6.1e-4 v 6.66943 l -1.90348,-0.0797 z m 3.029291,9.9e-4 1.90348,-8.5e-4 v 6.79687 l -1.90348,-0.0797 z m 3.029291,-4.7e-4 1.901973,9.7e-4 v 6.92138 l -1.901973,-0.0786 z m 3.029291,10e-4 1.901973,-5e-4 v 7.04882 l -1.901973,-0.0801 z m 3.029292,-4.7e-4 1.901972,-5e-4 v 7.17627 l -1.901972,-0.0801 z m 3.027784,-1.2e-4 1.90348,6.1e-4 v 7.30078 l -1.90348,-0.0782 z m 3.02929,0.001 0.13263,-4.3e-4 c 0.82555,0 1.49053,0.66377 1.49053,1.48932 l 0.0784,5.9303 -1.70153,-0.0715 z" />
      </g>
      <path
         id="text11033"
         style="font-size:99.508px;opacity:1;fill:#ffffff;stroke:none;stroke-width:13.8206;stroke-dasharray:none;stroke-opacity:1;paint-order:stroke fill markers"
         d="M 404.41789 -693.94666 C 404.22354 -693.94666 404.0617 -693.84956 403.93214 -693.6552 L 393.7772 -679.46744 C 393.68 -679.24069 393.66386 -679.0303 393.72862 -678.83595 C 393.82582 -678.67399 394.00382 -678.59307 394.26296 -678.59307 L 401.69713 -678.59307 C 401.76193 -678.59307 401.84283 -678.60925 401.94001 -678.64165 C 402.03721 -678.70645 402.10192 -678.75498 402.13431 -678.78738 L 415.54435 -692.97462 C 415.7387 -693.16898 415.77112 -693.37988 415.6415 -693.60663 C 415.5443 -693.83337 415.3663 -693.94666 415.10716 -693.94666 L 404.41789 -693.94666 z M 466.56501 -672.90815 C 460.92882 -672.90815 456.21566 -671.54766 452.42582 -668.82674 C 448.66836 -666.13823 445.94739 -663.22304 444.26301 -660.08102 C 443.67995 -658.97971 443.17773 -657.86197 442.75664 -656.72826 C 442.33554 -655.59454 442.01187 -654.41208 441.78512 -653.18119 C 441.55838 -651.9503 441.39654 -649.99099 441.29936 -647.30248 C 441.20216 -644.61395 441.15364 -641.148 441.15364 -636.90466 C 441.15364 -628.41799 441.36403 -622.97604 441.78512 -620.57904 C 442.01187 -619.34815 442.33554 -618.16569 442.75664 -617.03197 C 443.17773 -615.93065 443.67995 -614.82911 444.26301 -613.72778 C 445.94739 -610.55338 448.66836 -607.6382 452.42582 -604.98206 C 456.24805 -602.29353 460.96121 -600.94923 466.56501 -600.94923 C 469.64223 -600.94923 472.50886 -601.38672 475.165 -602.2613 C 477.82112 -603.13588 480.28317 -604.43163 482.55059 -606.1484 C 487.21503 -609.71151 490.22731 -614.7969 491.58777 -621.40483 C 491.65257 -621.59918 491.62012 -621.76102 491.49062 -621.89059 C 491.36105 -622.05255 491.19921 -622.13399 491.00486 -622.13399 L 479.87789 -622.13399 C 479.78069 -622.13399 479.68361 -622.08489 479.58643 -621.98774 C 479.48923 -621.92294 479.40834 -621.85822 479.34355 -621.79344 C 476.42829 -615.67138 472.16879 -612.61054 466.56501 -612.61054 C 464.13561 -612.61054 462.06252 -613.08039 460.34575 -614.01975 C 458.62898 -614.99151 457.25231 -616.15727 456.21577 -617.51773 C 455.63271 -618.26274 455.09812 -619.12154 454.61225 -620.09328 C 454.15876 -621.09743 453.80271 -622.10136 453.54358 -623.1055 C 453.28444 -624.20683 453.1059 -625.89099 453.00873 -628.15843 C 452.91153 -630.45824 452.863 -633.37395 452.863 -636.90466 C 452.863 -640.37059 452.9115 -643.2534 453.00873 -645.55323 C 453.10593 -647.85305 453.28444 -649.5534 453.54358 -650.65473 C 453.80271 -651.69127 454.15876 -652.69571 454.61225 -653.66746 C 455.06573 -654.67161 455.60032 -655.56225 456.21577 -656.33965 C 457.25231 -657.60293 458.62898 -658.72066 460.34575 -659.69242 C 462.06252 -660.66417 464.13561 -661.14969 466.56501 -661.14969 C 469.83658 -661.14969 472.54137 -660.19432 474.67924 -658.2832 C 475.81296 -657.31144 476.76832 -656.25845 477.54573 -655.12474 C 478.32314 -654.02341 478.92246 -652.82528 479.34355 -651.52961 C 479.40835 -651.27047 479.58636 -651.14049 479.87789 -651.14049 L 491.00486 -651.14049 C 491.19921 -651.14049 491.36105 -651.20569 491.49062 -651.33531 C 491.62018 -651.46487 491.6526 -651.62671 491.58777 -651.82106 C 490.51883 -657.55443 487.74931 -662.51034 483.27923 -666.68889 C 478.87394 -670.83505 473.30251 -672.90815 466.56501 -672.90815 z M 608.74237 -672.90815 C 601.42181 -672.90815 595.70473 -670.94834 591.59097 -667.02892 C 587.50959 -663.17429 585.46886 -658.16982 585.46886 -652.01537 C 585.46886 -649.39162 585.87397 -646.96196 586.68377 -644.72692 C 587.49357 -642.52428 588.70788 -640.48354 590.32748 -638.60482 C 591.94707 -636.75848 593.93925 -635.26852 596.30386 -634.1348 C 598.70085 -633.03349 601.42183 -632.27232 604.46667 -631.85122 C 605.37364 -631.72166 606.19954 -631.59218 606.94455 -631.46262 C 607.72196 -631.36542 608.46693 -631.26834 609.17956 -631.17116 C 609.92457 -631.07396 610.65336 -630.97688 611.36599 -630.87971 C 612.111 -630.78251 612.88886 -630.68543 613.69866 -630.58825 L 613.65008 -630.58825 C 619.38345 -629.81085 622.25008 -626.86278 622.25008 -621.74486 C 622.25008 -619.02395 621.11617 -616.83756 618.84873 -615.18557 C 616.45174 -613.46881 613.17998 -612.61054 609.03383 -612.61054 C 605.34115 -612.61054 601.82664 -613.22604 598.49029 -614.45694 C 595.18631 -615.72021 592.25495 -617.3882 589.69599 -619.46128 C 589.56642 -619.55848 589.42077 -619.60701 589.25881 -619.60701 C 589.09685 -619.60701 588.96738 -619.54231 588.8702 -619.41271 L 581.87321 -611.49278 C 581.77601 -611.36321 581.72749 -611.21755 581.72749 -611.05559 C 581.72749 -610.89363 581.79218 -610.76416 581.92179 -610.66699 C 589.33952 -604.18861 598.34454 -600.94923 608.93668 -600.94923 C 616.45159 -600.94923 622.50906 -602.76339 627.10869 -606.39128 C 631.67595 -610.08394 633.95944 -615.20171 633.95944 -621.74486 C 633.95944 -626.63604 632.35618 -631.07407 629.1494 -635.05826 C 625.9426 -639.13964 621.01906 -641.58497 614.37872 -642.39477 C 612.66195 -642.58912 611.17199 -642.76714 609.90871 -642.9291 C 608.64543 -643.12345 607.54388 -643.30199 606.60452 -643.46395 C 604.85536 -643.72309 603.38158 -644.1115 602.18308 -644.62977 C 600.98459 -645.18043 600.02921 -645.84449 599.31659 -646.6219 C 597.89135 -648.30628 597.17874 -650.03952 597.17874 -651.82106 C 597.17874 -654.93069 598.23122 -657.24654 600.33669 -658.76896 C 601.40562 -659.61115 602.60426 -660.21047 603.93233 -660.56678 C 605.2604 -660.95549 606.70181 -661.14969 608.25662 -661.14969 C 611.30145 -661.14969 614.249 -660.66417 617.09949 -659.69242 C 619.94996 -658.75305 622.63859 -657.48967 625.16514 -655.90247 C 625.45667 -655.70812 625.71561 -655.75667 625.94236 -656.0482 L 631.82159 -664.74534 C 632.04834 -665.06926 631.99978 -665.34439 631.67586 -665.57113 C 630.05626 -666.64006 628.35591 -667.61213 626.57436 -668.48671 C 624.8252 -669.39369 622.97868 -670.17103 621.03516 -670.81887 C 619.12405 -671.46671 617.13187 -671.96893 615.05878 -672.32524 C 613.0181 -672.71394 610.91263 -672.90815 608.74237 -672.90815 z M 400.38507 -672.42239 C 400.12593 -672.42239 399.96409 -672.2924 399.89931 -672.03327 L 374.43936 -602.35845 C 374.37456 -602.1641 374.39074 -601.98607 374.48794 -601.82412 C 374.58514 -601.66216 374.74695 -601.58124 374.9737 -601.58124 L 386.10015 -601.58124 C 386.19735 -601.58124 386.29443 -601.61359 386.3916 -601.67839 C 386.52117 -601.77559 386.60209 -601.87267 386.63448 -601.96984 C 387.54146 -604.56119 388.43261 -607.10363 389.30719 -609.5978 C 390.21416 -612.12437 391.12098 -614.69968 392.02795 -617.32343 L 417.6822 -617.32343 L 422.92994 -601.96984 C 422.99474 -601.71071 423.15657 -601.58124 423.4157 -601.58124 L 434.54215 -601.58124 C 434.73651 -601.58124 434.88268 -601.66214 434.97985 -601.82412 C 435.07705 -601.98607 435.09319 -602.1641 435.02843 -602.35845 L 409.61706 -672.03327 C 409.58466 -672.13047 409.50323 -672.21188 409.37366 -672.27666 C 409.27646 -672.37386 409.17938 -672.42239 409.08221 -672.42239 L 400.38507 -672.42239 z M 664.3302 -672.42239 C 664.07107 -672.42239 663.90922 -672.2924 663.84444 -672.03327 L 638.38398 -602.35845 C 638.31918 -602.1641 638.33535 -601.98607 638.43255 -601.82412 C 638.52975 -601.66216 638.69208 -601.58124 638.91883 -601.58124 L 650.04528 -601.58124 C 650.14248 -601.58124 650.23956 -601.61359 650.33673 -601.67839 C 650.4663 -601.77559 650.54722 -601.87267 650.57961 -601.96984 C 651.48659 -604.56119 652.37774 -607.10363 653.25232 -609.5978 C 654.15929 -612.12437 655.06611 -614.69968 655.97308 -617.32343 L 681.62733 -617.32343 L 686.87507 -601.96984 C 686.93987 -601.71071 687.1017 -601.58124 687.36083 -601.58124 L 698.48728 -601.58124 C 698.68163 -601.58124 698.82781 -601.66214 698.92498 -601.82412 C 699.02218 -601.98607 699.03832 -602.1641 698.97356 -602.35845 L 673.56167 -672.03327 C 673.52927 -672.13047 673.44836 -672.21188 673.31879 -672.27666 C 673.22159 -672.37386 673.12451 -672.42239 673.02734 -672.42239 L 664.3302 -672.42239 z M 254.17797 -672.32524 C 253.82166 -672.32524 253.64364 -672.13051 253.64364 -671.74181 L 253.64364 -602.11557 C 253.64364 -601.72687 253.82166 -601.53266 254.17797 -601.53266 L 264.77009 -601.53266 C 265.15879 -601.53266 265.353 -601.72687 265.353 -602.11557 L 265.353 -623.1055 C 267.3289 -625.17859 269.24016 -627.18695 271.0865 -629.13046 C 272.93284 -631.07397 274.86029 -633.08234 276.86857 -635.15541 L 295.52635 -601.82412 C 295.65592 -601.62976 295.81776 -601.53266 296.01211 -601.53266 L 308.54778 -601.53266 C 308.80691 -601.53266 308.96875 -601.61356 309.03354 -601.77554 C 309.13074 -601.96989 309.13074 -602.18028 309.03354 -602.40703 C 304.88737 -609.43606 300.78972 -616.40033 296.74075 -623.29981 C 292.72415 -630.19927 288.65887 -637.16356 284.54511 -644.19259 L 306.60423 -671.3532 C 306.76619 -671.54756 306.7986 -671.75795 306.70138 -671.98469 C 306.60418 -672.21143 306.42618 -672.32524 306.16704 -672.32524 L 293.63138 -672.32524 C 293.50182 -672.32524 293.35615 -672.24384 293.19419 -672.08184 C 288.52977 -666.21892 283.88134 -660.38855 279.24931 -654.5904 C 274.61727 -648.82466 269.98503 -643.01046 265.353 -637.14754 L 265.353 -671.74181 C 265.353 -672.13051 265.15879 -672.32524 264.77009 -672.32524 L 254.17797 -672.32524 z M 317.10229 -672.32524 C 316.71359 -672.32524 316.51938 -672.13051 316.51938 -671.74181 L 316.51938 -602.11557 C 316.51938 -601.72687 316.71359 -601.53266 317.10229 -601.53266 L 327.64584 -601.53266 C 328.03454 -601.53266 328.22875 -601.72687 328.22875 -602.11557 L 328.22875 -631.94837 L 354.7093 -631.94837 L 354.7093 -602.11557 C 354.7093 -601.72687 354.90351 -601.53266 355.29221 -601.53266 L 365.83575 -601.53266 C 366.22446 -601.53266 366.41918 -601.72687 366.41918 -602.11557 L 366.41918 -671.74181 C 366.41918 -672.13051 366.22446 -672.32524 365.83575 -672.32524 L 355.29221 -672.32524 C 354.90351 -672.32524 354.7093 -672.13051 354.7093 -671.74181 L 354.7093 -642.49192 L 328.22875 -642.49192 L 328.22875 -671.74181 C 328.22875 -672.13051 328.03454 -672.32524 327.64584 -672.32524 L 317.10229 -672.32524 z M 499.60795 -672.32524 C 499.21925 -672.32524 499.02452 -672.13051 499.02452 -671.74181 L 499.02452 -602.11557 C 499.02452 -601.72687 499.21925 -601.53266 499.60795 -601.53266 L 510.15149 -601.53266 C 510.54019 -601.53266 510.7344 -601.72687 510.7344 -602.11557 L 510.7344 -631.94837 L 537.21496 -631.94837 L 537.21496 -602.11557 C 537.21496 -601.72687 537.40916 -601.53266 537.79787 -601.53266 L 548.34141 -601.53266 C 548.73011 -601.53266 548.92432 -601.72687 548.92432 -602.11557 L 548.92432 -671.74181 C 548.92432 -672.13051 548.73011 -672.32524 548.34141 -672.32524 L 537.79787 -672.32524 C 537.40916 -672.32524 537.21496 -672.13051 537.21496 -671.74181 L 537.21496 -642.49192 L 510.7344 -642.49192 L 510.7344 -671.74181 C 510.7344 -672.13051 510.54019 -672.32524 510.15149 -672.32524 L 499.60795 -672.32524 z M 708.01383 -672.32524 C 707.62513 -672.32524 707.43092 -672.13051 707.43092 -671.74181 L 707.43092 -602.11557 C 707.43092 -601.72687 707.62513 -601.53266 708.01383 -601.53266 L 718.60595 -601.53266 C 718.96226 -601.53266 719.14029 -601.72687 719.14029 -602.11557 L 719.14029 -650.02324 L 749.84797 -601.82412 C 749.97754 -601.62976 750.13938 -601.53266 750.33373 -601.53266 L 760.29436 -601.53266 C 760.68307 -601.53266 760.87727 -601.72687 760.87727 -602.11557 L 760.87727 -671.74181 C 760.87727 -672.13051 760.68307 -672.32524 760.29436 -672.32524 L 749.70225 -672.32524 C 749.31355 -672.32524 749.11934 -672.13051 749.11934 -671.74181 L 749.11934 -623.83414 L 718.5088 -672.03327 C 718.37923 -672.22762 718.21739 -672.32524 718.02304 -672.32524 L 708.01383 -672.32524 z M 404.85508 -655.46477 L 414.18422 -627.76982 L 395.52645 -627.76982 L 404.85508 -655.46477 z M 668.80021 -655.46477 L 678.12935 -627.76982 L 659.47158 -627.76982 L 668.80021 -655.46477 z M 663.99016 -592.835 C 663.63385 -592.835 663.45531 -592.65698 663.45531 -592.30067 L 663.45531 -582.92346 C 663.45531 -582.56715 663.63385 -582.38861 663.99016 -582.38861 L 673.41595 -582.38861 C 673.73986 -582.38861 673.90222 -582.56715 673.90222 -582.92346 L 673.90222 -592.30067 C 673.90222 -592.65698 673.73986 -592.835 673.41595 -592.835 L 663.99016 -592.835 z " />
    </g>
  </g>
</svg>
