<?xml version="1.0" encoding="UTF-8" standalone="no"?>
<!-- Created with Inkscape (http://www.inkscape.org/) -->

<svg
   xmlns:dc="http://purl.org/dc/elements/1.1/"
   xmlns:cc="http://creativecommons.org/ns#"
   xmlns:rdf="http://www.w3.org/1999/02/22-rdf-syntax-ns#"
   xmlns:svg="http://www.w3.org/2000/svg"
   xmlns="http://www.w3.org/2000/svg"
   xmlns:sodipodi="http://sodipodi.sourceforge.net/DTD/sodipodi-0.dtd"
   xmlns:inkscape="http://www.inkscape.org/namespaces/inkscape"
   width="650.76001mm"
   height="573.22198mm"
   viewBox="0 0 650.76001 573.22198"
   version="1.1"
   id="svg8"
   inkscape:version="0.92.2 (5c3e80d, 2017-08-06)"
   sodipodi:docname="11.svg">
  <defs
     id="defs2" />
  <sodipodi:namedview
     id="base"
     pagecolor="#ffffff"
     bordercolor="#666666"
     borderopacity="1.0"
     inkscape:pageopacity="0.0"
     inkscape:pageshadow="2"
     inkscape:zoom="0.21461795"
     inkscape:cx="1591.6356"
     inkscape:cy="800.04964"
     inkscape:document-units="mm"
     inkscape:current-layer="layer1"
     showgrid="false"
     inkscape:snap-global="false"
     inkscape:window-width="1920"
     inkscape:window-height="1057"
     inkscape:window-x="-8"
     inkscape:window-y="-8"
     inkscape:window-maximized="1"
     inkscape:measure-start="0,0"
     inkscape:measure-end="0,0" />
  <metadata
     id="metadata5">
    <rdf:RDF>
      <cc:Work
         rdf:about="">
        <dc:format>image/svg+xml</dc:format>
        <dc:type
           rdf:resource="http://purl.org/dc/dcmitype/StillImage" />
        <dc:title></dc:title>
      </cc:Work>
    </rdf:RDF>
  </metadata>
  <g
     inkscape:label="Layer 1"
     inkscape:groupmode="layer"
     id="layer1"
     transform="translate(0,276.22207)">
    <path
       sodipodi:nodetypes="cccc"
       inkscape:connector-curvature="0"
       id="path849"
       d="m 35.997656,260.99973 578.764734,-7e-5 -289.3824,-501.22492 z"
       style="fill:none;fill-opacity:1;stroke:#f00a0a;stroke-width:70.00043488;stroke-linejoin:round;stroke-miterlimit:4;stroke-dasharray:none;stroke-opacity:1" />
    <path
       style="fill:#ffd70f;fill-opacity:1;stroke:none;stroke-width:50.82842255;stroke-linejoin:round;stroke-miterlimit:4;stroke-dasharray:none;stroke-opacity:1"
       d="M 589.30189,246.30025 325.38019,-210.82603 61.458036,246.30021 Z"
       id="path860"
       inkscape:connector-curvature="0"
       sodipodi:nodetypes="cccc" />
    <g
       aria-label="ĐI CHẬM"
       style="font-style:normal;font-variant:normal;font-weight:bold;font-stretch:normal;font-size:138.4230957px;line-height:0;font-family:Giaothong2;-inkscape-font-specification:'Giaothong2 Bold';letter-spacing:0px;word-spacing:0px;fill:#000000;fill-opacity:1;stroke:none;stroke-width:0.72095364"
       id="text11"
       transform="translate(1.0000002,-1.0000026)">
      <path
         style="opacity:1;fill:#000000;fill-opacity:1;fill-rule:nonzero;stroke:none;stroke-width:70.21749878;stroke-linecap:butt;stroke-linejoin:miter;stroke-miterlimit:4;stroke-dasharray:none;stroke-opacity:1;paint-order:normal"
         d="M 376.88001,-48.700055 H 360.28 v 100.1 h 16.60001 z"
         id="rect7459"
         inkscape:connector-curvature="0" />
      <path
         style="opacity:1;fill:#000000;fill-opacity:1;fill-rule:nonzero;stroke:none;stroke-width:90.63623047;stroke-linecap:butt;stroke-linejoin:miter;stroke-miterlimit:4;stroke-dasharray:none;stroke-opacity:1;paint-order:normal"
         d="m 263.98,8.1999953 h 7.89977 V 51.399945 h 35.30018 c 19.944,0 35.99987,-16.05588 35.99987,-35.99987 v -28.1001 c 0,-19.944 -16.05587,-35.99987 -35.99987,-35.99987 H 271.87977 V -7.6000751 H 263.98 Z M 288.47981,34.799925 V 8.1999953 h 18.70014 V -7.6000751 H 288.47981 V -32.099875 h 18.70014 c 10.74761,0 19.39986,8.65225 19.39986,19.39985 v 28.1001 c 0,10.74759 -8.65225,19.39985 -19.39986,19.39985 z"
         id="rect7473"
         inkscape:connector-curvature="0"
         sodipodi:nodetypes="cccssssccccccccccssssc" />
      <path
         style="opacity:1;fill:#000000;fill-opacity:1;fill-rule:nonzero;stroke:none;stroke-width:83.81511688;stroke-linecap:butt;stroke-linejoin:miter;stroke-miterlimit:4;stroke-dasharray:none;stroke-opacity:1;paint-order:normal"
         d="m 223.25429,141.20007 c -2.32725,-17.1578 -16.9585,-30.29996 -34.77464,-30.29996 -19.44537,0 -35.09965,15.65478 -35.09965,35.10018 v 29.89998 c 0,19.4454 15.65428,35.09967 35.09965,35.09967 17.53846,0 31.9909,-12.73513 34.65732,-29.50001 h -17.01601 c -2.36242,7.49435 -9.3463,12.89999 -17.64131,12.89999 -10.24898,0 -18.49964,-8.25065 -18.49964,-18.49965 v -29.89998 c 0,-10.249 8.25066,-18.50016 18.49964,-18.50016 8.587,0 15.76798,5.79359 17.87231,13.69994 z"
         id="rect7516"
         inkscape:connector-curvature="0" />
      <path
         style="opacity:1;fill:#000000;fill-opacity:1;fill-rule:nonzero;stroke:none;stroke-width:70.21749878;stroke-linecap:butt;stroke-linejoin:miter;stroke-miterlimit:4;stroke-dasharray:none;stroke-opacity:1;paint-order:normal"
         d="m 233.48,110.9001 v 100.09984 h 16.60002 v -42.99995 h 37.39979 v 42.99995 h 16.60001 V 110.9001 h -16.60001 v 42.20001 H 250.08002 V 110.9001 Z"
         id="path7536"
         inkscape:connector-curvature="0" />
      <path
         style="opacity:1;fill:#000000;fill-opacity:1;fill-rule:nonzero;stroke:none;stroke-width:66.33692932;stroke-linecap:butt;stroke-linejoin:miter;stroke-miterlimit:4;stroke-dasharray:none;stroke-opacity:1;paint-order:normal"
         d="M 349.87985,110.89995 313.68,210.99979 h 17.19998 l 7.54786,-22.19968 h 36.20451 l 7.54786,22.19968 h 17.19998 L 363.17982,110.89995 Z m 6.65024,24.65898 13.07001,38.44105 h -26.14001 z"
         id="rect7576"
         inkscape:connector-curvature="0" />
      <path
         style="opacity:1;fill:#000000;fill-opacity:1;fill-rule:nonzero;stroke:none;stroke-width:70.55994415;stroke-linecap:butt;stroke-linejoin:miter;stroke-miterlimit:4;stroke-dasharray:none;stroke-opacity:1;paint-order:normal"
         d="m 349.13,223.29995 h 14.8 v 14.79999 h -14.8 z"
         id="rect7621"
         inkscape:connector-curvature="0" />
      <path
         style="opacity:1;fill:#000000;fill-opacity:1;fill-rule:nonzero;stroke:none;stroke-width:70;stroke-linecap:butt;stroke-linejoin:miter;stroke-miterlimit:4;stroke-dasharray:none;stroke-opacity:1;paint-order:normal"
         d="M 351.82978,84.799845 331.23,100.99991 v 1.19991 h 12.30003 l 12.99972,-8.000015 13.00024,8.000015 h 12.30002 v -1.19991 L 361.23024,84.799845 Z"
         id="rect7651"
         inkscape:connector-curvature="0"
         sodipodi:nodetypes="cccccccccc" />
      <path
         style="opacity:1;fill:#000000;fill-opacity:1;fill-rule:nonzero;stroke:none;stroke-width:70.21749878;stroke-linecap:butt;stroke-linejoin:miter;stroke-miterlimit:4;stroke-dasharray:none;stroke-opacity:1;paint-order:normal"
         d="m 409.58,110.90011 v 100.09983 h 16.60002 v -59.00001 l 19.5001,44.9001 h 13.59968 l 19.50011,-44.9001 v 59.00001 h 16.60001 V 110.90011 h -15.40009 l -27.49961,62.30008 -27.50013,-62.30008 z"
         id="path7668"
         inkscape:connector-curvature="0"
         sodipodi:nodetypes="cccccccccccccc" />
    </g>
  </g>
</svg>
