<?xml version="1.0" encoding="utf-8"?>
<!-- Generator: Adobe Illustrator 21.0.0, SVG Export Plug-In . SVG Version: 6.00 Build 0)  -->
<svg version="1.1" id="Layer_1" xmlns="http://www.w3.org/2000/svg" xmlns:xlink="http://www.w3.org/1999/xlink" x="0px" y="0px"
	 viewBox="0 0 122 57" style="enable-background:new 0 0 122 57;" xml:space="preserve">
<style type="text/css">
	.st0{fill:#FFFFFF;stroke:#000000;stroke-width:2;stroke-miterlimit:10;}
	.st1{enable-background:new    ;}
</style>
<path class="st0" d="M119,56H3c-1.1,0-2-0.9-2-2V3c0-1.1,0.9-2,2-2h116c1.1,0,2,0.9,2,2v51C121,55.1,120.1,56,119,56z"/>
<g class="st1">
	<path d="M19.3,44.6c-1.2,0.8-2.8,1.1-4.8,1.1c-7,0-10-5.4-10-17.3s3.1-17.3,10-17.3c7,0,10,5.4,10,17.3c0,6.2-1,10.8-2.4,13.2
		l3.1,3.6l-2.9,2.8L19.3,44.6z M16.7,35.9l2,2.2c0.7-2,1-5.1,1-9.8c0-11.2-2.3-13.1-5.2-13.1c-2.9,0-5.2,2-5.2,13.1
		c0,11.5,2.3,13.4,5.2,13.4c0.6,0,1.2-0.1,1.7-0.3L14,39L16.7,35.9z"/>
	<path d="M28.2,11.8h4.8v28.8h11.7v4.5H28.2V11.8z"/>
	<path d="M47.8,39h4.8v6.2h-4.8V39z"/>
	<path d="M64.1,45.1v-24h-6.2v-3.4h0.5c2.9,0,6.2-0.7,7.1-4.9v-0.7h3.5v33H64.1z"/>
	<path d="M77,36.2h4.6v0.9c0,2.5,1.2,4.7,3.9,4.7c3.4,0,4.3-3.6,4.3-7.5c0-3.8-0.9-7-4-7c-2,0-3.5,1.2-3.9,3l-4.3-0.2l1.5-17.3h14.5
		V17H82.7l-1,8.7l0.1,0.1c1.3-1.6,3.1-2.6,5-2.6c6.3,0,7.8,5.8,7.8,10.9c0,6.6-2.8,11.7-9.2,11.7c-5.3,0-8.4-3-8.4-8.9V36.2z"/>
	<path d="M98.5,11.8h9.8c4.5,0,8.1,2.2,8.1,8.1c0,4.1-1.4,6.5-4.5,7.5v0.1c3.3,0.7,5.4,2.8,5.4,8.5c0,5.5-3.6,9.1-9.3,9.1h-9.6V11.8
		z M107.2,25.9c2.9,0,4.5-2.1,4.5-5.3c0-4-2.2-4.8-4.9-4.8h-3.4v10H107.2z M108.2,41.1c2.9,0,4.5-2.1,4.5-5.9c0-3.6-2-5.6-4.8-5.6
		h-4.5v11.5H108.2z"/>
</g>
</svg>
