<?xml version="1.0" encoding="UTF-8" standalone="no"?>
<svg
   xmlns:dc="http://purl.org/dc/elements/1.1/"
   xmlns:cc="http://creativecommons.org/ns#"
   xmlns:rdf="http://www.w3.org/1999/02/22-rdf-syntax-ns#"
   xmlns:svg="http://www.w3.org/2000/svg"
   xmlns="http://www.w3.org/2000/svg"
   xmlns:sodipodi="http://sodipodi.sourceforge.net/DTD/sodipodi-0.dtd"
   xmlns:inkscape="http://www.inkscape.org/namespaces/inkscape"
   sodipodi:docname="Vietnam_road_sign_IE461d.svg"
   inkscape:version="1.0 (4035a4fb49, 2020-05-01)"
   id="svg9491"
   version="1.1"
   viewBox="0 0 199.99999 72.422697"
   height="72.422699mm"
   width="199.99998mm">
  <defs
     id="defs9485">
    <clipPath
       id="clipPath2832">
      <path
         inkscape:connector-curvature="0"
         id="path2834"
         d="M -0.24,595.138 H 317.24 V -0.138 H -0.24 Z" />
    </clipPath>
    <clipPath
       id="clipPath2840">
      <path
         inkscape:connector-curvature="0"
         id="path2842"
         d="M 0.03,595.32 H 317.49 V 0 H 0.03 Z" />
    </clipPath>
    <clipPath
       id="clipPath2858">
      <path
         inkscape:connector-curvature="0"
         id="path2860"
         d="M -0.24,595.138 H 317.24 V -0.138 H -0.24 Z" />
    </clipPath>
    <clipPath
       id="clipPath2864">
      <path
         inkscape:connector-curvature="0"
         id="path2866"
         d="M 0.03,595.32 H 317.49 V 0 H 0.03 Z" />
    </clipPath>
    <clipPath
       id="clipPath3306">
      <path
         inkscape:connector-curvature="0"
         id="path3308"
         d="m 199.238,472.977 v -29.74 h 29.744 v 29.74" />
    </clipPath>
    <clipPath
       id="clipPath3322">
      <path
         inkscape:connector-curvature="0"
         id="path3324"
         d="M -0.24,595.138 H 317.24 V -0.138 H -0.24 Z" />
    </clipPath>
    <clipPath
       id="clipPath3330">
      <path
         inkscape:connector-curvature="0"
         id="path3332"
         d="M 0.03,595.32 H 317.49 V 0 H 0.03 Z" />
    </clipPath>
    <clipPath
       id="clipPath3344">
      <path
         inkscape:connector-curvature="0"
         id="path3346"
         d="m 88.233,387.221 v -28.335 h 32.08 v 28.335" />
    </clipPath>
    <clipPath
       id="clipPath3462">
      <path
         inkscape:connector-curvature="0"
         id="path3464"
         d="M -0.24,595.138 H 317.24 V -0.138 H -0.24 Z" />
    </clipPath>
    <clipPath
       id="clipPath3470">
      <path
         inkscape:connector-curvature="0"
         id="path3472"
         d="M 0.03,595.32 H 317.49 V 0 H 0.03 Z" />
    </clipPath>
    <clipPath
       id="clipPath3490">
      <path
         inkscape:connector-curvature="0"
         id="path3492"
         d="M -0.24,595.138 H 317.24 V -0.138 H -0.24 Z" />
    </clipPath>
    <clipPath
       id="clipPath3496">
      <path
         inkscape:connector-curvature="0"
         id="path3498"
         d="M 0.03,595.32 H 317.49 V 0 H 0.03 Z" />
    </clipPath>
    <clipPath
       id="clipPath3520">
      <path
         inkscape:connector-curvature="0"
         id="path3522"
         d="m 254.788,326.215 v -28.309 h 28.326 v 28.309" />
    </clipPath>
    <clipPath
       id="clipPath3544">
      <path
         inkscape:connector-curvature="0"
         id="path3546"
         d="m 145.049,326.142 v -28.333 h 28.342 v 28.333" />
    </clipPath>
    <clipPath
       id="clipPath3682">
      <path
         inkscape:connector-curvature="0"
         id="path3684"
         d="M -0.24,595.138 H 317.24 V -0.138 H -0.24 Z" />
    </clipPath>
    <clipPath
       id="clipPath3690">
      <path
         inkscape:connector-curvature="0"
         id="path3692"
         d="M 0.03,595.32 H 317.49 V 0 H 0.03 Z" />
    </clipPath>
    <clipPath
       id="clipPath3980">
      <path
         inkscape:connector-curvature="0"
         id="path3982"
         d="M -0.24,595.138 H 317.24 V -0.138 H -0.24 Z" />
    </clipPath>
    <clipPath
       id="clipPath3988">
      <path
         inkscape:connector-curvature="0"
         id="path3990"
         d="M 0.03,595.32 H 317.49 V 0 H 0.03 Z" />
    </clipPath>
    <clipPath
       id="clipPath4010">
      <path
         inkscape:connector-curvature="0"
         id="path4012"
         d="M -0.24,595.138 H 317.24 V -0.138 H -0.24 Z" />
    </clipPath>
    <clipPath
       id="clipPath4016">
      <path
         inkscape:connector-curvature="0"
         id="path4018"
         d="M 0.03,595.32 H 317.49 V 0 H 0.03 Z" />
    </clipPath>
    <clipPath
       id="clipPath4062">
      <path
         inkscape:connector-curvature="0"
         id="path4064"
         d="m 200.163,177.773 v -28.284 h 28.283 v 28.284" />
    </clipPath>
    <clipPath
       id="clipPath4090">
      <path
         inkscape:connector-curvature="0"
         id="path4092"
         d="m 34.886,177.515 v -51.632 h 30.367 v 51.632" />
    </clipPath>
    <clipPath
       id="clipPath4106">
      <path
         inkscape:connector-curvature="0"
         id="path4108"
         d="m 34.886,177.515 v -51.632 h 30.367 v 51.632" />
    </clipPath>
    <clipPath
       id="clipPath4272">
      <path
         inkscape:connector-curvature="0"
         id="path4274"
         d="m 34.886,177.515 v -51.632 h 30.367 v 51.632" />
    </clipPath>
    <clipPath
       id="clipPath4304">
      <path
         inkscape:connector-curvature="0"
         id="path4306"
         d="m 254.653,176.442 v -48.167 h 28.317 v 48.167" />
    </clipPath>
    <clipPath
       id="clipPath4310">
      <path
         inkscape:connector-curvature="0"
         id="path4312"
         d="m 253.565,177.983 h 31.181 V 128.8 h -31.181 z" />
    </clipPath>
    <clipPath
       id="clipPath4316">
      <path
         inkscape:connector-curvature="0"
         id="path4318"
         d="M -0.24,595.138 H 317.24 V -0.138 H -0.24 Z" />
    </clipPath>
    <clipPath
       id="clipPath4322">
      <path
         inkscape:connector-curvature="0"
         id="path4324"
         d="M 0.03,595.32 H 317.49 V 0 H 0.03 Z" />
    </clipPath>
    <clipPath
       id="clipPath4456">
      <path
         inkscape:connector-curvature="0"
         id="path4458"
         d="M -0.24,595.138 H 317.24 V -0.138 H -0.24 Z" />
    </clipPath>
    <clipPath
       id="clipPath4464">
      <path
         inkscape:connector-curvature="0"
         id="path4466"
         d="M 0.03,595.32 H 317.49 V 0 H 0.03 Z" />
    </clipPath>
  </defs>
  <sodipodi:namedview
     inkscape:document-rotation="0"
     inkscape:measure-end="0,0"
     inkscape:measure-start="0,0"
     inkscape:window-maximized="1"
     inkscape:window-y="-9"
     inkscape:window-x="-9"
     inkscape:window-height="1001"
     inkscape:window-width="1920"
     showgrid="false"
     inkscape:current-layer="layer1"
     inkscape:document-units="mm"
     inkscape:cy="6.1972926"
     inkscape:cx="430.36697"
     inkscape:zoom="1.2665904"
     inkscape:pageshadow="2"
     inkscape:pageopacity="0.0"
     borderopacity="1.0"
     bordercolor="#666666"
     pagecolor="#ffffff"
     id="base" />
  <metadata
     id="metadata9488">
    <rdf:RDF>
      <cc:Work
         rdf:about="">
        <dc:format>image/svg+xml</dc:format>
        <dc:type
           rdf:resource="http://purl.org/dc/dcmitype/StillImage" />
        <dc:title></dc:title>
      </cc:Work>
    </rdf:RDF>
  </metadata>
  <g
     transform="translate(-208.34043,-938.1101)"
     id="layer1"
     inkscape:groupmode="layer"
     inkscape:label="Layer 1">
    <path
       id="rect4346-1"
       style="opacity:1;fill:#8a5c3a;fill-opacity:1;fill-rule:evenodd;stroke-width:1.007;stroke-linecap:square;stroke-miterlimit:10;paint-order:stroke fill markers"
       d="m 208.34043,938.1101 h 179.24432 l 20.75567,36.21886 -20.75567,36.20384 H 208.34043 Z"
       sodipodi:nodetypes="cccccc" />
    <path
       sodipodi:nodetypes="ccssssccccccccccccsssscc"
       id="path4356-2"
       style="color:#000000;font-style:normal;font-variant:normal;font-weight:normal;font-stretch:normal;font-size:medium;line-height:normal;font-family:sans-serif;font-variant-ligatures:normal;font-variant-position:normal;font-variant-caps:normal;font-variant-numeric:normal;font-variant-alternates:normal;font-variant-east-asian:normal;font-feature-settings:normal;font-variation-settings:normal;text-indent:0;text-align:start;text-decoration:none;text-decoration-line:none;text-decoration-style:solid;text-decoration-color:#000000;letter-spacing:normal;word-spacing:normal;text-transform:none;writing-mode:lr-tb;direction:ltr;text-orientation:mixed;dominant-baseline:auto;baseline-shift:baseline;text-anchor:start;white-space:normal;shape-padding:0;shape-margin:0;inline-size:0;clip-rule:nonzero;display:inline;overflow:visible;visibility:visible;opacity:1;isolation:auto;mix-blend-mode:normal;color-interpolation:sRGB;color-interpolation-filters:linearRGB;solid-color:#000000;solid-opacity:1;vector-effect:none;fill:#ffffff;fill-opacity:1;fill-rule:evenodd;stroke:none;stroke-width:1.008;stroke-linecap:square;stroke-linejoin:miter;stroke-miterlimit:10;stroke-dasharray:none;stroke-dashoffset:0;stroke-opacity:1;paint-order:stroke fill markers;color-rendering:auto;image-rendering:auto;shape-rendering:auto;text-rendering:auto;enable-background:accumulate;stop-color:#000000;stop-opacity:1"
       d="m 383.28607,938.80064 c 1e-5,10e-4 -5e-5,0.002 0,0.003 H 212.99215 c -2.18844,0 -3.977,1.78688 -3.977,3.97531 v 63.10155 c 0,2.1884 1.78856,3.9753 3.977,3.9753 h 170.29889 0.43291 3.46928 l 20.5364,-35.5271 -20.5364,-35.52859 z m 0.43788,1.62285 h 2.61422 l 19.61153,33.90575 -19.61153,33.90656 h -2.61422 -0.43291 -170.29889 c -1.31851,0 -2.35577,-1.0364 -2.35577,-2.3549 v -63.10161 c 0,-1.31852 1.03726,-2.35496 2.35577,-2.35496 h 170.7318 z" />
    <path
       id="rect4373-7"
       style="opacity:1;fill:#ffffff;fill-opacity:1;fill-rule:evenodd;stroke:none;stroke-width:1.008;stroke-linecap:square;stroke-miterlimit:10;stroke-dasharray:none;stroke-opacity:1;paint-order:stroke fill markers"
       d="m 375.72068,943.42384 h 9.25806 l 17.84905,30.90512 -17.84905,30.91624 h -9.25806 l 17.83799,-30.91624 z"
       sodipodi:nodetypes="ccccccc" />
    <path
       id="path1581"
       style="fill:#ffffff;fill-opacity:1;fill-rule:nonzero;stroke:none;stroke-width:0.352777;opacity:1"
       d="m 307.68111,954.10326 -2.44551,1.9576 c -0.054,0.0269 -0.054,0.0563 -0.054,0.0809 0.0269,0.0563 0.054,0.0835 0.10795,0.0835 h 1.38709 c 0.2427,-0.16405 0.48736,-0.29944 0.75927,-0.46349 0.24495,-0.13486 0.48963,-0.29833 0.73232,-0.43315 l 1.68541,0.89664 h 1.41574 c 0.0269,0 0.054,-0.0272 0.0809,-0.0835 0,-0.0248 2e-5,-0.054 -0.0269,-0.0809 l -2.50116,-1.9576 z m 0.4871,2.9916 c -0.94832,0 -1.76378,0.24494 -2.41772,0.70787 -0.6517,0.46068 -1.11435,0.97727 -1.41323,1.52109 -0.11008,0.191 -0.19129,0.38173 -0.27219,0.57051 -0.054,0.19101 -0.10812,0.40956 -0.16433,0.62529 -0.0269,0.19101 -0.054,0.54326 -0.0809,1.00619 -0.0269,0.46292 -0.0269,1.06068 -0.0269,1.79327 0,0.73485 -2e-5,1.33261 0.0269,1.79328 0.0269,0.46518 0.054,0.81854 0.0809,1.03652 0.0563,0.18878 0.1104,0.40648 0.16433,0.59749 0.0809,0.18877 0.1621,0.38006 0.27219,0.56883 0.29888,0.54607 0.76153,1.06293 1.41323,1.52361 0.65394,0.46069 1.4694,0.6809 2.41772,0.6809 0.97978,0 1.7666,-0.22021 2.44974,-0.6809 0.65169,-0.48765 1.13963,-0.97754 1.41154,-1.52361 0.11007,-0.16177 0.19043,-0.35085 0.27135,-0.56883 0.054,-0.19101 0.1104,-0.38174 0.16431,-0.59749 0.054,-0.46291 0.10779,-1.38932 0.10779,-2.8298 0,-0.73259 -0.0269,-1.33035 -0.0269,-1.79327 -0.0269,-0.46293 -0.054,-0.81518 -0.0809,-1.00619 -0.0832,-0.43371 -0.2177,-0.81377 -0.43568,-1.1958 -0.29887,-0.54382 -0.75984,-1.03345 -1.41152,-1.52109 -0.65619,-0.46293 -1.46996,-0.70787 -2.44975,-0.70787 z m -44.19149,0.10779 c -0.9798,0 -1.79329,0.24721 -2.44723,0.70789 -0.65169,0.46067 -1.11405,0.95057 -1.38373,1.49664 -0.11007,0.18876 -0.19128,0.3795 -0.27218,0.59748 -0.0832,0.18876 -0.13731,0.37949 -0.16433,0.59747 -0.054,0.21573 -0.0809,0.54186 -0.0809,1.034 -0.0269,0.46069 -0.0269,1.05845 -0.0269,1.79329 0,1.44046 0.0269,2.39356 0.10779,2.8003 0.0269,0.218 0.0812,0.43568 0.16433,0.62446 0.0809,0.191 0.16209,0.37976 0.27218,0.57304 0.26968,0.54381 0.73204,1.03175 1.38373,1.49243 0.67866,0.46517 1.49441,0.70955 2.44723,0.70955 0.54157,0 1.03428,-0.0804 1.49496,-0.21743 0.46292,-0.16628 0.86938,-0.38201 1.27838,-0.68089 0.78652,-0.62474 1.30309,-1.49664 1.54804,-2.63599 0.0269,-0.0292 4.4e-4,-0.0541 -0.0287,-0.0835 0,-0.0269 -0.0248,-0.054 -0.0809,-0.054 h -1.90116 c -0.0269,0 -0.054,0.0269 -0.054,0.0269 -0.0269,0.0269 -0.0269,0.0272 -0.054,0.0564 -0.4899,1.03147 -1.22305,1.57756 -2.20284,1.57756 -0.40899,0 -0.76125,-0.0835 -1.06013,-0.24523 -0.29886,-0.16631 -0.54439,-0.38429 -0.73314,-0.60002 -0.0832,-0.13714 -0.19074,-0.29858 -0.27389,-0.46264 -0.0809,-0.16176 -0.13486,-0.32613 -0.18877,-0.5149 -0.0269,-0.19099 -0.054,-0.49242 -0.0809,-0.8722 -0.0269,-0.40674 -0.0269,-0.89635 -0.0269,-1.49411 0,-0.60001 0,-1.11433 0.0269,-1.49411 0.0269,-0.40901 0.054,-0.7104 0.0809,-0.89918 0.054,-0.16405 0.10779,-0.35253 0.18877,-0.51656 0.0832,-0.16177 0.19073,-0.32613 0.27389,-0.46096 0.18875,-0.21798 0.43428,-0.40873 0.73314,-0.57053 0.29888,-0.16404 0.65114,-0.24774 1.06013,-0.24774 0.56855,0 1.03427,0.16628 1.41407,0.49214 0.19101,0.16176 0.35252,0.35308 0.48961,0.54186 0.13487,0.191 0.24522,0.38201 0.29916,0.62697 0.0269,0.0248 0.054,0.054 0.10779,0.054 h 1.90115 c 0.0563,0 0.0809,-2.6e-4 0.0809,-0.0295 0.0292,-0.0248 0.0556,-0.054 0.0287,-0.0809 -0.19102,-1.0045 -0.65366,-1.84946 -1.44018,-2.58206 -0.76181,-0.70561 -1.71266,-1.06012 -2.88122,-1.06012 z m 33.67452,0 c -0.95282,0 -1.76603,0.24721 -2.41773,0.70789 -0.65394,0.46067 -1.11434,0.95057 -1.41321,1.49664 -0.11007,0.18876 -0.1913,0.3795 -0.2722,0.59748 -0.054,0.18876 -0.10779,0.37949 -0.16177,0.59747 -0.0269,0.21573 -0.0559,0.54186 -0.0851,1.034 -0.0269,0.46069 -0.0269,1.05845 -0.0269,1.79329 0,0.73483 0,1.33035 0.0269,1.79327 0.0292,0.46293 0.0582,0.78905 0.0851,1.00703 0.054,0.218 0.10779,0.43568 0.16177,0.62446 0.0809,0.191 0.1621,0.37976 0.2722,0.57304 0.29887,0.54381 0.75927,1.03175 1.41321,1.49243 0.6517,0.46517 1.46491,0.70955 2.41773,0.70955 1.22248,0 2.25676,-0.43792 3.12643,-1.27838 0.8427,-0.81573 1.27587,-1.84947 1.27587,-3.10116 v -2.44722 c 0,-0.054 -0.0269,-0.0809 -0.10779,-0.0809 h -4.26747 c -0.0563,0 -0.10959,0.0269 -0.10959,0.0809 v 1.74188 c 0,0.054 0.0533,0.0809 0.10959,0.0809 h 2.36633 v 0.51658 c 0,0.73484 -0.24496,1.3326 -0.70787,1.79329 -0.43596,0.46516 -1.00675,0.68342 -1.68542,0.68342 -0.40898,0 -0.76124,-0.0835 -1.06012,-0.24523 -0.29888,-0.16628 -0.54439,-0.38426 -0.70619,-0.59999 -0.10796,-0.13715 -0.19045,-0.29861 -0.27136,-0.46266 -0.0809,-0.16177 -0.16432,-0.32613 -0.1913,-0.51489 -0.054,-0.19101 -0.0809,-0.49242 -0.10779,-0.8722 0,-0.40674 -0.0269,-0.89636 -0.0269,-1.49411 0,-0.60001 0.0269,-1.11435 0.0269,-1.49413 0.0269,-0.40899 0.054,-0.7104 0.10779,-0.89915 0.0269,-0.16406 0.1104,-0.35254 0.1913,-0.51659 0.054,-0.16177 0.16349,-0.32613 0.27136,-0.46096 0.16177,-0.21798 0.40731,-0.40871 0.70619,-0.57051 0.29888,-0.16405 0.65114,-0.24776 1.06012,-0.24776 0.57079,0 1.03203,0.16629 1.41405,0.49214 0.19102,0.16177 0.35478,0.3531 0.48963,0.54186 0.13486,0.19103 0.24523,0.38202 0.32613,0.62697 0,0.0248 0.0269,0.054 0.0809,0.054 h 1.92981 c 0.0269,0 0.054,-2.8e-4 0.0809,-0.0295 0.0269,-0.0248 0.0269,-0.054 0,-0.0809 -0.16404,-1.0045 -0.65142,-1.84945 -1.41321,-2.58206 -0.75957,-0.7056 -1.73962,-1.06011 -2.90818,-1.06011 z m -28.02251,0.10959 c -0.054,0 -0.0809,0.0271 -0.0809,0.0809 v 12.04563 c 0,0.054 0.0269,0.0809 0.0809,0.0809 h 7.69223 c 0.0832,0 0.1104,-0.0269 0.1104,-0.0809 v -1.71237 c 0,-0.0832 -0.0272,-0.1078 -0.1104,-0.1078 h -5.7599 v -10.2254 c 0,-0.054 -0.0287,-0.0809 -0.10959,-0.0809 z m 9.56893,0 c -0.0832,0 -0.1104,0.0271 -0.1104,0.0809 v 12.04563 c 0,0.054 0.0272,0.0809 0.1104,0.0809 h 5.05372 c 0.9236,0 1.73906,-0.30139 2.41772,-0.9531 0.6809,-0.62472 1.03652,-1.46743 1.03652,-2.55508 0,-0.29887 -0.0568,-0.59804 -0.13992,-0.89918 -0.0809,-0.29888 -0.21518,-0.59523 -0.37921,-0.86714 -0.29888,-0.51686 -0.73287,-0.84298 -1.30368,-1.03398 0.62474,-0.2989 1.03175,-0.67811 1.24973,-1.11407 0.24496,-0.43371 0.37923,-0.92585 0.37923,-1.46967 0,-0.94834 -0.32584,-1.76689 -0.95057,-2.3916 -0.62474,-0.62472 -1.52136,-0.92362 -2.71689,-0.92362 z m 35.52174,0 c -0.054,0 -0.0809,0.0271 -0.0809,0.0809 v 12.04563 c 0,0.054 0.0269,0.0809 0.0809,0.0809 h 1.8489 c 0.054,0 0.0835,-0.0269 0.0835,-0.0809 v -8.29476 l 5.29894,8.32173 c 0.0269,0.054 0.054,0.054 0.0809,0.054 h 1.73934 c 0.054,0 0.0809,-0.0269 0.0809,-0.0809 v -12.04562 c 0,-0.054 -0.0269,-0.0809 -0.0809,-0.0809 h -1.8472 c -0.054,0 -0.0809,0.0269 -0.0809,0.0809 v 8.29222 l -5.30146,-8.34617 c -0.0269,-0.0269 -0.054,-0.0269 -0.0809,-0.0269 z m -33.62059,1.82026 h 2.55508 c 0.62474,0 1.08737,0.16242 1.38626,0.46347 0.29888,0.3281 0.43568,0.70731 0.43568,1.14104 0,0.46067 -0.13682,0.84325 -0.43568,1.17136 -0.29889,0.29663 -0.76152,0.46011 -1.38626,0.46011 h -2.55508 z m 27.0694,0 c 0.21798,0 0.40955,0.0269 0.57135,0.0809 0.19102,0.0269 0.35478,0.11073 0.51658,0.16684 0.13715,0.0809 0.27219,0.16177 0.40702,0.26968 0.11007,0.11007 0.21742,0.21741 0.29832,0.29831 0.11008,0.13714 0.19129,0.29945 0.27219,0.46349 0.0832,0.19102 0.13682,0.35253 0.19298,0.54355 0.0269,0.16177 0.054,0.46292 0.0809,0.8427 0.0269,0.40676 0.0269,0.89637 0.0269,1.52109 0,1.22473 -0.0269,2.01125 -0.10779,2.39328 -0.0832,0.35281 -0.2472,0.67894 -0.46518,0.9531 -0.18876,0.2427 -0.40646,0.434 -0.70534,0.5958 -0.29888,0.16629 -0.65197,0.2469 -1.08793,0.24691 -0.40676,0 -0.75957,-0.0806 -1.05845,-0.24691 -0.29888,-0.16176 -0.54354,-0.3531 -0.70534,-0.5958 -0.11007,-0.13715 -0.19128,-0.27388 -0.27219,-0.43568 -0.0809,-0.18876 -0.16349,-0.35337 -0.19045,-0.51742 -0.054,-0.18877 -0.0809,-0.48934 -0.10779,-0.89832 0,-0.37979 -0.0269,-0.89495 -0.0269,-1.49496 0,-0.59777 0.0269,-1.08513 0.0269,-1.49412 0.0269,-0.40675 0.054,-0.68091 0.10779,-0.86967 0.0269,-0.19102 0.10959,-0.35253 0.19045,-0.54355 0.0538,-0.16404 0.1621,-0.32641 0.27219,-0.46349 0.16177,-0.21573 0.40646,-0.40619 0.70534,-0.56799 0.29888,-0.16628 0.65169,-0.24774 1.05845,-0.24774 z m -27.0694,5.05875 h 2.71856 c 0.65169,0 1.11518,0.1621 1.41406,0.51489 0.29888,0.35283 0.43316,0.73681 0.43316,1.1975 0,0.46066 -0.13421,0.86995 -0.43316,1.1958 -0.29888,0.35506 -0.78932,0.51909 -1.41406,0.51909 h -2.71856 z m 33.89194,12.74845 c -0.0269,0 -0.054,0.0295 -0.0809,0.0564 -0.0269,0.0269 -0.0269,0.0809 0.0269,0.10779 l 2.3107,2.44891 0.0287,0.0269 h 0.054 1.2767 c 0.054,0 0.0809,2e-5 0.0809,-0.0269 0.0269,-0.0271 0.0269,-0.0827 0,-0.10959 l -1.76632,-2.44721 c 0,-0.0563 -0.0269,-0.0564 -0.0809,-0.0564 z m -42.34427,3.61774 c -0.95058,0 -1.76632,0.24326 -2.42026,0.70619 -0.65169,0.46517 -1.1413,0.9798 -1.41321,1.52361 -0.10779,0.18878 -0.18878,0.37922 -0.26968,0.56799 -0.0563,0.19326 -0.1373,0.41152 -0.16433,0.6295 -0.0269,0.21573 -0.0538,0.5413 -0.0809,1.00197 -0.0292,0.46293 -0.0287,1.06322 -0.0287,1.79581 0,0.73485 -4.3e-4,1.33289 0.0287,1.7958 0.0269,0.48989 0.054,0.81294 0.0809,1.03317 0.0269,0.21796 0.10812,0.40731 0.16433,0.59832 0.0809,0.19101 0.16177,0.37949 0.26968,0.57051 0.27191,0.56854 0.76152,1.0604 1.41321,1.52108 0.65394,0.46292 1.46968,0.70787 2.42026,0.70787 0.97752,0 1.76686,-0.24495 2.44551,-0.70787 0.65169,-0.46068 1.11463,-0.97726 1.41576,-1.52108 0.10779,-0.16405 0.1882,-0.35253 0.24438,-0.54354 0.0809,-0.21798 0.13486,-0.40733 0.16177,-0.62529 0.0832,-0.43598 0.13731,-1.38625 0.13731,-2.82897 0,-0.73259 -0.0295,-1.33288 -0.0295,-1.79581 -0.0248,-0.46067 -0.054,-0.78624 -0.10779,-1.00197 -0.054,-0.40899 -0.19046,-0.8177 -0.40619,-1.19749 -0.30113,-0.54381 -0.76406,-1.03372 -1.41575,-1.52361 -0.65168,-0.46293 -1.46799,-0.70619 -2.44552,-0.70619 z m 22.23225,0 c -0.97754,0 -1.79327,0.24326 -2.44721,0.70619 -0.65169,0.46517 -1.11265,0.9798 -1.41153,1.52361 h 0.0269 c -0.11007,0.18878 -0.21825,0.37922 -0.2722,0.56799 -0.0809,0.19326 -0.13649,0.41152 -0.19043,0.6295 -0.0269,0.21573 -0.054,0.5413 -0.054,1.00197 -0.0269,0.46293 -0.054,1.06322 -0.054,1.79581 0,0.73485 0.0269,1.33289 0.054,1.7958 0,0.48989 0.0269,0.81294 0.054,1.03317 0.054,0.21796 0.10958,0.40731 0.19043,0.59832 0.054,0.19101 0.1621,0.37949 0.2722,0.57051 h -0.0269 c 0.29888,0.56854 0.75984,1.0604 1.41153,1.52108 0.65394,0.46292 1.46967,0.70787 2.44721,0.70787 1.22475,0 2.25593,-0.43315 3.09863,-1.27585 0.86968,-0.84495 1.27838,-1.87642 1.27838,-3.10115 v -2.44723 c 0,-0.0809 -0.0269,-0.10779 -0.0809,-0.10779 h -4.29612 c -0.054,0 -0.0809,0.0269 -0.0809,0.10779 v 1.71406 c 0,0.0809 0.0269,0.1078 0.0809,0.1078 h 2.3638 v 0.51741 c 0,0.73259 -0.24467,1.33261 -0.67838,1.76632 -0.46069,0.46293 -1.03148,0.67837 -1.68542,0.67838 -0.43371,0 -0.78652,-0.0809 -1.0854,-0.2427 -0.29888,-0.16405 -0.5191,-0.35478 -0.70787,-0.59748 -0.11007,-0.11008 -0.1913,-0.27248 -0.2722,-0.43652 -0.0832,-0.16177 -0.13731,-0.35478 -0.19129,-0.51658 -0.0269,-0.19101 -0.0809,-0.48989 -0.0809,-0.86968 -0.0269,-0.40673 -0.0269,-0.89889 -0.0269,-1.52361 0,-0.59776 -1e-5,-1.0854 0.0269,-1.49664 0,-0.37978 0.054,-0.67838 0.0809,-0.86716 0.054,-0.19099 0.10812,-0.35336 0.19129,-0.51741 0.0809,-0.18876 0.16209,-0.32556 0.2722,-0.46264 0.18877,-0.21798 0.40899,-0.40646 0.70787,-0.59749 0.29888,-0.16403 0.65169,-0.24523 1.0854,-0.24523 0.57079,0 1.03345,0.16378 1.38626,0.48961 0.21796,0.18878 0.37949,0.35338 0.51657,0.54439 0.13486,0.19103 0.21602,0.40873 0.29917,0.62446 0,0.054 0.054,0.0835 0.0809,0.0835 h 1.93063 c 0.0292,0 0.0533,-0.0295 0.0827,-0.0295 0.0269,-0.0248 0.0269,-0.054 0.0269,-0.1078 -0.19326,-0.97977 -0.6809,-1.84946 -1.4427,-2.55508 -0.76181,-0.70787 -1.71183,-1.08793 -2.88038,-1.08793 z m -35.65657,0.10779 c -0.0563,0 -0.0835,0.0272 -0.0835,0.1104 v 12.01614 c 0,0.0809 0.0272,0.10779 0.0835,0.10779 h 7.68969 c 0.054,0 0.10779,-0.0269 0.10779,-0.10779 v -1.71237 c 0,-0.054 -0.054,-0.1104 -0.10779,-0.1104 h -5.76159 v -10.19338 c 0,-0.0832 -0.0269,-0.1104 -0.10779,-0.1104 z m 20.02943,0 c -0.0809,0 -0.1104,0.0272 -0.1104,0.1104 v 12.01614 c 0,0.0809 0.0295,0.10779 0.1104,0.10779 h 1.82024 c 0.054,0 0.10796,-0.0269 0.10796,-0.10779 v -8.26525 l 5.30062,8.3192 c 0,0.0269 0.0538,0.054 0.0809,0.054 h 1.71237 c 0.0563,0 0.1104,-0.0269 0.1104,-0.1078 v -12.01614 c 0,-0.0832 -0.0541,-0.1104 -0.1104,-0.1104 h -1.82025 c -0.0832,0 -0.10958,0.0272 -0.10958,0.1104 v 8.26273 l -5.27197,-8.3192 c -0.0269,-0.0269 -0.054,-0.054 -0.0809,-0.054 z m 26.33709,0 c -0.0809,0 -0.10779,0.0272 -0.10779,0.1104 v 12.01614 c 0,0.0809 0.0269,0.10779 0.10779,0.10779 h 5.0832 c 0.9236,0 1.71042,-0.3236 2.38908,-0.95057 0.70787,-0.65394 1.03315,-1.49466 1.03315,-2.55761 0,-0.32359 -0.0269,-0.62219 -0.13486,-0.92107 -0.0832,-0.27191 -0.19073,-0.57079 -0.35478,-0.84272 -0.32361,-0.51911 -0.75985,-0.8722 -1.30366,-1.03398 0.59774,-0.32585 1.00477,-0.67896 1.22276,-1.1149 0.2719,-0.46294 0.38175,-0.95282 0.38175,-1.46969 0,-0.97754 -0.30058,-1.76603 -0.9253,-2.39075 -0.65169,-0.62697 -1.54833,-0.9531 -2.71688,-0.9531 z m 10.43355,0 c -0.054,0 -0.0809,0.0272 -0.0809,0.1104 v 12.01614 c 0,0.0809 0.0269,0.10779 0.0809,0.10779 h 1.8253 c 0.0809,0 0.10779,-0.0269 0.10779,-0.10779 v -12.01614 c 0,-0.0832 -0.0269,-0.1104 -0.10779,-0.1104 z m 4.45875,0 c -0.054,0 -0.0809,0.0272 -0.0809,0.1104 v 12.01614 c 0,0.0809 0.0269,0.10779 0.0809,0.10779 h 1.84973 c 0.054,0 0.0827,-0.0269 0.0827,-0.10779 v -8.26525 l 5.29894,8.3192 c 0.0269,0.0269 0.054,0.054 0.0809,0.054 h 1.71238 c 0.0809,0 0.1078,-0.0269 0.1078,-0.1078 v -12.01614 c 0,-0.0832 -0.0269,-0.1104 -0.1078,-0.1104 h -1.82024 c -0.054,0 -0.10779,0.0272 -0.10779,0.1104 v 8.26273 l -5.27365,-8.3192 c -0.0269,-0.0269 -0.054,-0.054 -0.0809,-0.054 z m 11.74143,0 c -0.054,0 -0.0809,0.0272 -0.0809,0.1104 v 12.01614 c 0,0.0809 0.0269,0.10779 0.0809,0.10779 h 1.82277 c 0.0809,0 0.1104,-0.0269 0.1104,-0.10779 v -5.13712 h 4.56158 v 5.13712 c 0,0.0809 0.0295,0.10779 0.1104,0.10779 h 1.82194 c 0.054,0 0.10779,-0.0269 0.10779,-0.10779 v -12.01614 c 0,-0.0832 -0.054,-0.1104 -0.10779,-0.1104 h -1.82194 c -0.0809,0 -0.1104,0.0272 -0.1104,0.1104 v 5.05625 h -4.56158 v -5.05625 c 0,-0.0832 -0.0295,-0.1104 -0.1104,-0.1104 z M 307.5168,982.488 h 2.52559 c 0.62921,0 1.08988,0.16433 1.38876,0.48792 0.2989,0.29888 0.46351,0.68289 0.46351,1.14355 0,0.46294 -0.16461,0.843 -0.46351,1.14188 -0.29888,0.32808 -0.75955,0.48961 -1.38876,0.48961 h -2.52559 z m -34.87032,0.1078 c 0.21798,0 0.40729,0.0269 0.57134,0.0809 0.19101,0.0561 0.35253,0.1104 0.51658,0.1913 0.13487,0.054 0.26994,0.16348 0.40704,0.24438 0.10779,0.1078 0.21741,0.21826 0.29831,0.32613 0.10779,0.13715 0.18905,0.27389 0.27218,0.46264 0.0809,0.16406 0.13486,0.32643 0.16177,0.51742 0.0563,0.18877 0.0835,0.46041 0.1104,0.86716 0.0269,0.38427 0.0269,0.89888 0.0269,1.49664 0,1.22473 -0.0272,2.04047 -0.13731,2.39328 -0.054,0.35506 -0.21601,0.68119 -0.43399,0.9531 -0.191,0.24271 -0.43566,0.43344 -0.70534,0.59749 -0.29888,0.16177 -0.65422,0.24268 -1.08793,0.2427 -0.40675,0 -0.75899,-0.0809 -1.06012,-0.2427 -0.29888,-0.16405 -0.54214,-0.35478 -0.70619,-0.59749 -0.10779,-0.11007 -0.18821,-0.27248 -0.27136,-0.43651 -0.0809,-0.16177 -0.16433,-0.35478 -0.1913,-0.51659 -0.0563,-0.191 -0.0835,-0.48989 -0.1104,-0.86967 0,-0.40674 -0.0269,-0.89889 -0.0269,-1.52361 0,-0.59776 0.0269,-1.0854 0.0269,-1.49664 0.0269,-0.37978 0.0541,-0.67839 0.1104,-0.86716 0.0269,-0.19099 0.1104,-0.35336 0.16435,-0.51742 0.0809,-0.18875 0.19045,-0.32556 0.29831,-0.46264 0.16405,-0.21798 0.40731,-0.40646 0.70619,-0.59748 0.30113,-0.16404 0.65337,-0.24523 1.06012,-0.24523 z m 34.87032,4.97786 h 2.68991 c 0.65395,0 1.11686,0.16161 1.41574,0.51659 0.29889,0.32359 0.46096,0.73259 0.46096,1.19326 0,0.43822 -0.16209,0.84469 -0.46096,1.1975 -0.29888,0.32583 -0.76179,0.48791 -1.41574,0.48793 h -2.68991 z" />
    <path
       id="path4367"
       d="m 225.55788,962.44237 c 18.89338,0 18.89338,0 18.89338,0 1.13603,0 2.05521,0.91766 2.05521,2.05186 0,18.87212 0,18.87212 0,18.87212 0,1.13414 -0.91918,2.05112 -2.05521,2.05112 -18.89338,0 -18.89338,0 -18.89338,0 -1.10852,0 -2.02642,-0.91698 -2.02642,-2.05112 0,-18.87212 0,-18.87212 0,-18.87212 0,-1.1342 0.9179,-2.05186 2.02642,-2.05186 z m 0,0"
       style="opacity:1;fill:#000000;fill-opacity:1;fill-rule:nonzero;stroke:none;stroke-width:0.352777" />
    <path
       id="path4369"
       d="m 225.55788,984.79659 c -0.78293,0 -1.43154,-0.64762 -1.43154,-1.43024 0,-18.87212 0,-18.87212 0,-18.87212 0,-0.78266 0.64861,-1.43036 1.43154,-1.43036 18.89338,0 18.89338,0 18.89338,0 0.81173,0 1.43411,0.6477 1.43411,1.43036 0,18.87212 0,18.87212 0,18.87212 0,0.78262 -0.62238,1.43024 -1.43411,1.43024 z m 0,0"
       style="opacity:1;fill:#ffffff;fill-opacity:1;fill-rule:nonzero;stroke:none;stroke-width:0.352777" />
    <path
       id="path1597"
       style="fill:#000000;fill-opacity:1;fill-rule:evenodd;stroke:none;stroke-width:0.352777;opacity:1"
       d="m 239.39105,963.85284 -9.78213,1.9568 c -0.70787,0.16177 -1.00874,0.60057 -1.06265,1.22529 -0.054,0.70565 0.78822,1.05815 1.0062,0.67838 l 0.16433,-1.00702 c 0.0269,-0.24272 0.16375,-0.43543 0.43566,-0.4062 l 8.06976,-1.63147 c 0.13715,2.2562 -0.78624,3.58598 -2.41773,4.377 -1.1146,0.27193 -1.49411,0.95085 -1.27838,2.01155 l 1.17051,3.15255 -1.74185,4.0787 -2.82476,2.91072 1.05844,1.22445 3.26296,-3.31943 0.78877,-1.98372 v 6.06242 h 1.54889 v -9.02707 l -1.22276,-3.53261 c -0.0809,-0.24495 0.0537,-0.43823 0.51657,-0.57304 2.20002,-1.65621 2.79806,-3.75005 2.30817,-6.1973 z m -4.83798,2.30989 c -0.70562,0 -1.30366,0.57276 -1.30366,1.27838 0,0.70562 0.59804,1.27923 1.30366,1.27923 0.73486,0 1.30788,-0.57361 1.30788,-1.27923 0,-0.70562 -0.57302,-1.27838 -1.30788,-1.27838 z" />
  </g>
</svg>
