<?xml version="1.0" encoding="UTF-8" standalone="no"?>
<svg
   xmlns:dc="http://purl.org/dc/elements/1.1/"
   xmlns:cc="http://creativecommons.org/ns#"
   xmlns:rdf="http://www.w3.org/1999/02/22-rdf-syntax-ns#"
   xmlns:svg="http://www.w3.org/2000/svg"
   xmlns="http://www.w3.org/2000/svg"
   xmlns:sodipodi="http://sodipodi.sourceforge.net/DTD/sodipodi-0.dtd"
   xmlns:inkscape="http://www.inkscape.org/namespaces/inkscape"
   sodipodi:docname="Vietnam_road_sign_IE450a.svg"
   inkscape:version="1.0 (4035a4fb49, 2020-05-01)"
   id="svg9491"
   version="1.1"
   viewBox="0 0 286.11991 200"
   height="200mm"
   width="286.1199mm">
  <defs
     id="defs9485">
    <clipPath
       id="clipPath2832">
      <path
         inkscape:connector-curvature="0"
         id="path2834"
         d="M -0.24,595.138 H 317.24 V -0.138 H -0.24 Z" />
    </clipPath>
    <clipPath
       id="clipPath2840">
      <path
         inkscape:connector-curvature="0"
         id="path2842"
         d="M 0.03,595.32 H 317.49 V 0 H 0.03 Z" />
    </clipPath>
    <clipPath
       id="clipPath2858">
      <path
         inkscape:connector-curvature="0"
         id="path2860"
         d="M -0.24,595.138 H 317.24 V -0.138 H -0.24 Z" />
    </clipPath>
    <clipPath
       id="clipPath2864">
      <path
         inkscape:connector-curvature="0"
         id="path2866"
         d="M 0.03,595.32 H 317.49 V 0 H 0.03 Z" />
    </clipPath>
    <clipPath
       id="clipPath3306">
      <path
         inkscape:connector-curvature="0"
         id="path3308"
         d="m 199.238,472.977 v -29.74 h 29.744 v 29.74" />
    </clipPath>
    <clipPath
       id="clipPath3322">
      <path
         inkscape:connector-curvature="0"
         id="path3324"
         d="M -0.24,595.138 H 317.24 V -0.138 H -0.24 Z" />
    </clipPath>
    <clipPath
       id="clipPath3330">
      <path
         inkscape:connector-curvature="0"
         id="path3332"
         d="M 0.03,595.32 H 317.49 V 0 H 0.03 Z" />
    </clipPath>
    <clipPath
       id="clipPath3344">
      <path
         inkscape:connector-curvature="0"
         id="path3346"
         d="m 88.233,387.221 v -28.335 h 32.08 v 28.335" />
    </clipPath>
    <clipPath
       id="clipPath3462">
      <path
         inkscape:connector-curvature="0"
         id="path3464"
         d="M -0.24,595.138 H 317.24 V -0.138 H -0.24 Z" />
    </clipPath>
    <clipPath
       id="clipPath3470">
      <path
         inkscape:connector-curvature="0"
         id="path3472"
         d="M 0.03,595.32 H 317.49 V 0 H 0.03 Z" />
    </clipPath>
    <clipPath
       id="clipPath3490">
      <path
         inkscape:connector-curvature="0"
         id="path3492"
         d="M -0.24,595.138 H 317.24 V -0.138 H -0.24 Z" />
    </clipPath>
    <clipPath
       id="clipPath3496">
      <path
         inkscape:connector-curvature="0"
         id="path3498"
         d="M 0.03,595.32 H 317.49 V 0 H 0.03 Z" />
    </clipPath>
    <clipPath
       id="clipPath3520">
      <path
         inkscape:connector-curvature="0"
         id="path3522"
         d="m 254.788,326.215 v -28.309 h 28.326 v 28.309" />
    </clipPath>
    <clipPath
       id="clipPath3544">
      <path
         inkscape:connector-curvature="0"
         id="path3546"
         d="m 145.049,326.142 v -28.333 h 28.342 v 28.333" />
    </clipPath>
    <clipPath
       id="clipPath3682">
      <path
         inkscape:connector-curvature="0"
         id="path3684"
         d="M -0.24,595.138 H 317.24 V -0.138 H -0.24 Z" />
    </clipPath>
    <clipPath
       id="clipPath3690">
      <path
         inkscape:connector-curvature="0"
         id="path3692"
         d="M 0.03,595.32 H 317.49 V 0 H 0.03 Z" />
    </clipPath>
    <clipPath
       id="clipPath3980">
      <path
         inkscape:connector-curvature="0"
         id="path3982"
         d="M -0.24,595.138 H 317.24 V -0.138 H -0.24 Z" />
    </clipPath>
    <clipPath
       id="clipPath3988">
      <path
         inkscape:connector-curvature="0"
         id="path3990"
         d="M 0.03,595.32 H 317.49 V 0 H 0.03 Z" />
    </clipPath>
    <clipPath
       id="clipPath4010">
      <path
         inkscape:connector-curvature="0"
         id="path4012"
         d="M -0.24,595.138 H 317.24 V -0.138 H -0.24 Z" />
    </clipPath>
    <clipPath
       id="clipPath4016">
      <path
         inkscape:connector-curvature="0"
         id="path4018"
         d="M 0.03,595.32 H 317.49 V 0 H 0.03 Z" />
    </clipPath>
    <clipPath
       id="clipPath4062">
      <path
         inkscape:connector-curvature="0"
         id="path4064"
         d="m 200.163,177.773 v -28.284 h 28.283 v 28.284" />
    </clipPath>
    <clipPath
       id="clipPath4090">
      <path
         inkscape:connector-curvature="0"
         id="path4092"
         d="m 34.886,177.515 v -51.632 h 30.367 v 51.632" />
    </clipPath>
    <clipPath
       id="clipPath4106">
      <path
         inkscape:connector-curvature="0"
         id="path4108"
         d="m 34.886,177.515 v -51.632 h 30.367 v 51.632" />
    </clipPath>
    <clipPath
       id="clipPath4272">
      <path
         inkscape:connector-curvature="0"
         id="path4274"
         d="m 34.886,177.515 v -51.632 h 30.367 v 51.632" />
    </clipPath>
    <clipPath
       id="clipPath4304">
      <path
         inkscape:connector-curvature="0"
         id="path4306"
         d="m 254.653,176.442 v -48.167 h 28.317 v 48.167" />
    </clipPath>
    <clipPath
       id="clipPath4310">
      <path
         inkscape:connector-curvature="0"
         id="path4312"
         d="m 253.565,177.983 h 31.181 V 128.8 h -31.181 z" />
    </clipPath>
    <clipPath
       id="clipPath4316">
      <path
         inkscape:connector-curvature="0"
         id="path4318"
         d="M -0.24,595.138 H 317.24 V -0.138 H -0.24 Z" />
    </clipPath>
    <clipPath
       id="clipPath4322">
      <path
         inkscape:connector-curvature="0"
         id="path4324"
         d="M 0.03,595.32 H 317.49 V 0 H 0.03 Z" />
    </clipPath>
    <clipPath
       id="clipPath4456">
      <path
         inkscape:connector-curvature="0"
         id="path4458"
         d="M -0.24,595.138 H 317.24 V -0.138 H -0.24 Z" />
    </clipPath>
    <clipPath
       id="clipPath4464">
      <path
         inkscape:connector-curvature="0"
         id="path4466"
         d="M 0.03,595.32 H 317.49 V 0 H 0.03 Z" />
    </clipPath>
  </defs>
  <sodipodi:namedview
     inkscape:document-rotation="0"
     inkscape:measure-end="0,0"
     inkscape:measure-start="0,0"
     inkscape:window-maximized="1"
     inkscape:window-y="-9"
     inkscape:window-x="-9"
     inkscape:window-height="1001"
     inkscape:window-width="1920"
     showgrid="false"
     inkscape:current-layer="layer1"
     inkscape:document-units="mm"
     inkscape:cy="597.65007"
     inkscape:cx="955.58001"
     inkscape:zoom="0.52982812"
     inkscape:pageshadow="2"
     inkscape:pageopacity="0.0"
     borderopacity="1.0"
     bordercolor="#666666"
     pagecolor="#ffffff"
     id="base" />
  <metadata
     id="metadata9488">
    <rdf:RDF>
      <cc:Work
         rdf:about="">
        <dc:format>image/svg+xml</dc:format>
        <dc:type
           rdf:resource="http://purl.org/dc/dcmitype/StillImage" />
        <dc:title></dc:title>
      </cc:Work>
    </rdf:RDF>
  </metadata>
  <g
     transform="translate(-660.38138,-68.675692)"
     id="layer1"
     inkscape:groupmode="layer"
     inkscape:label="Layer 1">
    <g
       transform="matrix(1.6550836,0,0,1.6550836,-321.31659,-238.56049)"
       style="font-size:31.1478px;line-height:1.3;font-family:'Singapore Road Signs';-inkscape-font-specification:'Singapore Road Signs';text-align:center;text-anchor:middle;stroke-width:0.159861"
       id="text19759"
       aria-label="6" />
    <path
       sodipodi:nodetypes="ccccc"
       d="M 660.38138,68.675692 V 268.67569 H 946.50129 V 68.675692 Z"
       style="font-size:15.1831px;line-height:1.46;font-family:'Singapore Road Signs';-inkscape-font-specification:'Singapore Road Signs';text-align:center;text-anchor:middle;opacity:1;fill:#0046aa;fill-opacity:1;fill-rule:evenodd;stroke-width:0.042069;stroke-linecap:square;stroke-miterlimit:10;paint-order:stroke fill markers"
       id="path14281" />
    <path
       sodipodi:nodetypes="scccccssssccccsssccssccccccccscsssccscccc"
       d="m 668.41223,70.001862 c -3.65353,0 -6.6355,2.98095 -6.63554,6.63452 v 88.094798 12.46744 12.97605 3.6742 66.79546 c 0,3.6536 2.98201,6.63194 6.63554,6.63194 h 270.05356 c 3.65352,0 6.63503,-2.97834 6.63503,-6.63194 V 193.84887 190.2701 175.02442 164.73118 76.636382 c 0,-3.6536 -2.98151,-6.63452 -6.63503,-6.63452 z m 0,2.49916 v 10e-4 h 270.05356 c 2.31239,0 4.13844,1.82137 4.13844,4.13383 v 88.094798 10.29325 l -0.007,0.24745 v 1.90701 l -0.004,10.79772 v 2.00861 l 0.007,0.28488 v 3.57878 66.79546 c 0,1.44894 -0.71697,2.70447 -1.82133,3.44051 -0.65941,0.44615 -1.45654,0.70618 -2.31606,0.70618 H 668.39097 c -2.28637,0 -4.1266,-1.84019 -4.1266,-4.1266 v -72.68786 l 0.004,-10.79775 V 76.652912 c 0,-0.43881 0.0683,-0.86072 0.19331,-1.25709 0.003,-0.0109 0.007,-0.0254 0.0109,-0.0363 0.52838,-1.67264 2.0746,-2.8592 3.94037,-2.8592 z"
       style="color:#000000;font-style:normal;font-variant:normal;font-weight:normal;font-stretch:normal;font-size:medium;line-height:normal;font-family:sans-serif;-inkscape-font-specification:'Singapore Road Signs';font-variant-ligatures:normal;font-variant-position:normal;font-variant-caps:normal;font-variant-numeric:normal;font-variant-alternates:normal;font-variant-east-asian:normal;font-feature-settings:normal;font-variation-settings:normal;text-indent:0;text-align:start;text-decoration:none;text-decoration-line:none;text-decoration-style:solid;text-decoration-color:#000000;letter-spacing:normal;word-spacing:normal;text-transform:none;writing-mode:lr-tb;direction:ltr;text-orientation:mixed;dominant-baseline:auto;baseline-shift:baseline;text-anchor:start;white-space:normal;shape-padding:0;shape-margin:0;inline-size:0;clip-rule:nonzero;display:inline;overflow:visible;visibility:visible;opacity:1;isolation:auto;mix-blend-mode:normal;color-interpolation:sRGB;color-interpolation-filters:linearRGB;solid-color:#000000;solid-opacity:1;vector-effect:none;fill:#ffffff;fill-opacity:1;fill-rule:evenodd;stroke:none;stroke-width:0.553507;stroke-linecap:square;stroke-linejoin:miter;stroke-miterlimit:10;stroke-dasharray:none;stroke-dashoffset:0;stroke-opacity:1;paint-order:stroke fill markers;color-rendering:auto;image-rendering:auto;shape-rendering:auto;text-rendering:auto;enable-background:accumulate;stop-color:#000000;stop-opacity:1"
       id="path14283" />
    <path
       id="rect15605"
       style="opacity:1;fill:#ffd70f;fill-opacity:1;fill-rule:evenodd;stroke:none;stroke-width:0.553507;stroke-linecap:square;stroke-miterlimit:10;stroke-dasharray:none;stroke-opacity:1;paint-order:stroke fill markers"
       d="m 742.51492,156.87769 h 52.27285 v 23.88274 h -52.27285 z" />
    <path
       style="color:#000000;font-style:normal;font-variant:normal;font-weight:normal;font-stretch:normal;font-size:medium;line-height:normal;font-family:sans-serif;font-variant-ligatures:normal;font-variant-position:normal;font-variant-caps:normal;font-variant-numeric:normal;font-variant-alternates:normal;font-variant-east-asian:normal;font-feature-settings:normal;font-variation-settings:normal;text-indent:0;text-align:start;text-decoration:none;text-decoration-line:none;text-decoration-style:solid;text-decoration-color:#000000;letter-spacing:normal;word-spacing:normal;text-transform:none;writing-mode:lr-tb;direction:ltr;text-orientation:mixed;dominant-baseline:auto;baseline-shift:baseline;text-anchor:start;white-space:normal;shape-padding:0;shape-margin:0;inline-size:0;clip-rule:nonzero;display:inline;overflow:visible;visibility:visible;opacity:1;isolation:auto;mix-blend-mode:normal;color-interpolation:sRGB;color-interpolation-filters:linearRGB;solid-color:#000000;solid-opacity:1;vector-effect:none;fill:#000000;fill-opacity:1;fill-rule:evenodd;stroke:none;stroke-width:0.119062;stroke-linecap:square;stroke-linejoin:miter;stroke-miterlimit:10;stroke-dasharray:none;stroke-dashoffset:0;stroke-opacity:1;paint-order:stroke fill markers;color-rendering:auto;image-rendering:auto;shape-rendering:auto;text-rendering:auto;enable-background:accumulate;stop-color:#000000;stop-opacity:1"
       d="m 744.2853,157.36366 c -0.69629,0 -1.2657,0.56672 -1.2657,1.26301 v 20.38474 c 0,0.69629 0.56941,1.26301 1.2657,1.26301 h 48.75084 c 0.69633,0 1.2657,-0.56672 1.2657,-1.26301 v -20.38474 c 0,-0.69629 -0.56941,-1.26301 -1.2657,-1.26301 z m 0,0.45927 h 48.75084 c 0.44865,0 0.80374,0.35501 0.80374,0.80374 v 20.38474 c 0,0.44866 -0.35501,0.80105 -0.80374,0.80105 H 744.2853 c -0.44865,0 -0.8037,-0.35247 -0.8037,-0.80105 v -20.38474 c 0,-0.44865 0.35501,-0.80374 0.8037,-0.80374 z"
       id="path15631" />
    <path
       id="path15637"
       style="font-style:normal;font-variant:normal;font-weight:normal;font-stretch:normal;font-size:15.1831px;line-height:1.46;font-family:'Alte DIN 1451 Mittelschrift gepraegt';-inkscape-font-specification:'Alte DIN 1451 Mittelschrift gepraegt';text-align:center;text-anchor:middle;opacity:1;fill:#000000;fill-opacity:1;stroke-width:0.264583"
       d="m 753.47633,161.18012 c -1.17573,0 -2.15941,0.28344 -2.94997,0.85117 -0.78383,0.56083 -1.35091,1.169 -1.70229,1.82445 -0.12173,0.22965 -0.22674,0.46243 -0.31431,0.69891 -0.0879,0.23656 -0.15516,0.48423 -0.2024,0.74103 -0.0472,0.2569 -0.0818,0.66479 -0.10175,1.22561 -0.0182,0.56087 -0.0327,1.28376 -0.0327,2.16894 0,1.77038 0.0443,2.90454 0.13191,3.40457 0.0476,0.25691 0.11446,0.50451 0.20239,0.74099 0.0879,0.22965 0.19295,0.4592 0.31432,0.68892 0.35138,0.66221 0.9185,1.27039 1.70229,1.82446 0.79735,0.56086 1.781,0.84113 2.95,0.84113 0.64193,0 1.24033,-0.0919 1.7944,-0.27435 0.55407,-0.18241 1.06705,-0.45094 1.54005,-0.80908 0.97303,-0.74328 1.60076,-1.80582 1.88455,-3.18427 0.0109,-0.0403 0.007,-0.073 -0.0182,-0.10029 -0.0254,-0.0327 -0.0596,-0.0501 -0.0999,-0.0501 h -2.32119 c -0.0182,0 -0.0418,0.007 -0.0618,0.0291 -0.0182,0.0145 -0.0385,0.0254 -0.0498,0.04 -0.60811,1.27707 -1.49659,1.91653 -2.66559,1.91653 -0.5068,0 -0.93957,-0.0985 -1.29771,-0.29433 -0.35792,-0.20276 -0.64495,-0.44717 -0.86116,-0.73096 -0.12173,-0.15552 -0.23292,-0.33394 -0.3343,-0.53674 -0.0945,-0.2093 -0.16824,-0.41936 -0.22238,-0.62881 -0.0538,-0.22965 -0.0919,-0.58045 -0.11192,-1.05345 -0.0182,-0.47973 -0.0291,-1.0879 -0.0291,-1.82442 0,-0.72304 0.007,-1.32468 0.0291,-1.80444 0.0182,-0.47976 0.0581,-0.83368 0.11192,-1.06344 0.0538,-0.21621 0.12754,-0.42609 0.22238,-0.62885 0.0945,-0.2093 0.2064,-0.39455 0.3343,-0.55672 0.21621,-0.26345 0.50302,-0.49822 0.86116,-0.70095 0.35792,-0.20276 0.79091,-0.30233 1.29771,-0.30233 0.68248,0 1.24633,0.19804 1.69226,0.59681 0.23655,0.20276 0.43663,0.42238 0.59884,0.6589 0.16206,0.22965 0.2867,0.48074 0.37434,0.75102 0.0145,0.0538 0.0512,0.0799 0.11192,0.0799 h 2.32115 c 0.04,0 0.0734,-0.0145 0.10029,-0.04 0.0254,-0.0254 0.0363,-0.0618 0.0182,-0.10211 -0.22275,-1.196 -0.79986,-2.22849 -1.7323,-3.10018 -0.91901,-0.8649 -2.08118,-1.29771 -3.48671,-1.29771 z m 23.80795,0.0901 c -1.10138,0 -2.07852,0.37547 -2.92994,1.12551 -0.85814,0.73656 -1.28768,1.78732 -1.28768,3.15225 v 6.37457 c 0,1.36493 0.42954,2.41569 1.28768,3.15225 0.85142,0.74328 1.82856,1.11548 2.92994,1.11548 1.10139,0 2.07857,-0.3722 2.92995,-1.11548 0.86493,-0.74331 1.29571,-1.79408 1.29571,-3.15225 V 165.548 c 0,-0.67572 -0.11156,-1.27409 -0.3343,-1.7944 -0.21621,-0.52707 -0.53558,-0.97943 -0.96127,-1.35785 -0.42569,-0.36486 -0.88655,-0.6419 -1.37983,-0.8311 -0.48652,-0.19586 -1.0028,-0.29434 -1.55011,-0.29434 z m -18.13234,0.0291 c -0.081,0 -0.12209,0.0411 -0.12209,0.12246 v 1.95665 c 0,0.081 0.0411,0.12209 0.12209,0.12209 h 3.86116 v 12.44669 c 0,0.081 0.0411,0.12028 0.12209,0.12028 h 2.19899 c 0.081,0 0.12209,-0.0392 0.12209,-0.12028 v -12.44669 h 3.85116 c 0.081,0 0.12209,-0.0411 0.12209,-0.12209 v -1.95665 c 0,-0.081 -0.0411,-0.1221 -0.12209,-0.1221 z m 26.806,0.10211 -2.08881,1.51006 c -0.0109,0.0145 -0.0254,0.0291 -0.04,0.0502 -0.007,0.0182 -0.0109,0.0382 -0.0109,0.052 v 2.19895 c 0,0.0538 0.0254,0.0948 0.0625,0.12209 0.0403,0.0218 0.085,0.0145 0.1319,-0.0182 0.31069,-0.22311 0.6205,-0.44916 0.93129,-0.67892 0.31068,-0.23656 0.62246,-0.47119 0.93325,-0.70095 v 12.04219 c 0,0.081 0.0411,0.12209 0.12209,0.12209 h 2.07678 c 0.081,0 0.12028,-0.0411 0.12028,-0.12209 V 161.5254 c 0,-0.081 -0.0392,-0.12209 -0.12028,-0.12209 z m -8.67366,2.17896 c 0.58111,0 1.04328,0.18714 1.38787,0.55872 0.35138,0.3649 0.52674,0.87464 0.52674,1.53009 v 6.13223 c 0,0.66217 -0.17551,1.17518 -0.52674,1.54008 -0.34448,0.36486 -0.80676,0.54673 -1.38787,0.54673 -0.5811,0 -1.0432,-0.18169 -1.38782,-0.54673 -0.34448,-0.3649 -0.51872,-0.87791 -0.51872,-1.54008 v -6.13223 c 0,-0.65545 0.17406,-1.16519 0.51872,-1.53005 0.34447,-0.37166 0.80672,-0.55876 1.38782,-0.55876 z m -8.57147,10.18568 c -0.081,0 -0.12209,0.0411 -0.12209,0.12246 v 2.05876 c 0,0.081 0.0411,0.12027 0.12209,0.12027 h 2.06675 c 0.0745,0 0.11192,-0.0392 0.11192,-0.12027 v -2.05876 c 0,-0.081 -0.0389,-0.12246 -0.11192,-0.12246 z" />
    <path
       d="m 677.13825,114.57511 h 52.27282 v 23.88274 h -52.27282 z"
       style="opacity:1;fill:#ffffff;fill-opacity:1;fill-rule:evenodd;stroke:none;stroke-width:0.553507;stroke-linecap:square;stroke-miterlimit:10;stroke-dasharray:none;stroke-opacity:1;paint-order:stroke fill markers"
       id="path14336" />
    <path
       id="path14338"
       d="m 678.90863,115.06108 c -0.69633,0 -1.2657,0.56672 -1.2657,1.26305 v 20.3847 c 0,0.69633 0.56937,1.26305 1.2657,1.26305 h 48.7508 c 0.69637,0 1.2657,-0.56672 1.2657,-1.26305 v -20.3847 c 0,-0.69633 -0.56937,-1.26305 -1.2657,-1.26305 z m 0,0.45931 h 48.7508 c 0.44869,0 0.80374,0.35501 0.80374,0.80374 v 20.3847 c 0,0.44866 -0.35501,0.80109 -0.80374,0.80109 h -48.7508 c -0.44865,0 -0.80374,-0.35247 -0.80374,-0.80109 v -20.3847 c 0,-0.44869 0.35501,-0.80374 0.80374,-0.80374 z"
       style="color:#000000;font-style:normal;font-variant:normal;font-weight:normal;font-stretch:normal;font-size:medium;line-height:normal;font-family:sans-serif;font-variant-ligatures:normal;font-variant-position:normal;font-variant-caps:normal;font-variant-numeric:normal;font-variant-alternates:normal;font-variant-east-asian:normal;font-feature-settings:normal;font-variation-settings:normal;text-indent:0;text-align:start;text-decoration:none;text-decoration-line:none;text-decoration-style:solid;text-decoration-color:#000000;letter-spacing:normal;word-spacing:normal;text-transform:none;writing-mode:lr-tb;direction:ltr;text-orientation:mixed;dominant-baseline:auto;baseline-shift:baseline;text-anchor:start;white-space:normal;shape-padding:0;shape-margin:0;inline-size:0;clip-rule:nonzero;display:inline;overflow:visible;visibility:visible;opacity:1;isolation:auto;mix-blend-mode:normal;color-interpolation:sRGB;color-interpolation-filters:linearRGB;solid-color:#000000;solid-opacity:1;vector-effect:none;fill:#000000;fill-opacity:1;fill-rule:evenodd;stroke:none;stroke-width:0.119062;stroke-linecap:square;stroke-linejoin:miter;stroke-miterlimit:10;stroke-dasharray:none;stroke-dashoffset:0;stroke-opacity:1;paint-order:stroke fill markers;color-rendering:auto;image-rendering:auto;shape-rendering:auto;text-rendering:auto;enable-background:accumulate;stop-color:#000000;stop-opacity:1" />
    <path
       id="path14348"
       style="font-style:normal;font-variant:normal;font-weight:normal;font-stretch:normal;font-size:14.1395px;line-height:1.3;font-family:'Alte DIN 1451 Mittelschrift gepraegt';-inkscape-font-specification:'Alte DIN 1451 Mittelschrift gepraegt';text-align:center;text-anchor:middle;opacity:1;stroke-width:0.264583"
       d="m 706.71637,119.31134 c -0.94865,0 -1.75182,0.40203 -2.41105,1.20741 -0.64316,0.79891 -0.96518,1.77406 -0.96518,2.92369 0,0.60407 0.10029,1.12918 0.29869,1.57737 0.1984,0.44814 0.45984,0.85781 0.78677,1.22805 -0.42344,0.37671 -0.74542,0.82489 -0.96519,1.34447 -0.21439,0.51963 -0.32122,1.1149 -0.32122,1.78391 0,1.26006 0.35356,2.29106 1.06094,3.09644 0.69676,0.78593 1.53539,1.17925 2.5162,1.17925 0.48238,0 0.93612,-0.10102 1.35952,-0.30233 0.42344,-0.20785 0.81022,-0.50022 1.15858,-0.87692 0.35392,-0.40269 0.61744,-0.86243 0.79433,-1.38205 0.18205,-0.51959 0.27398,-1.09088 0.27398,-1.71439 0,-1.33801 -0.4287,-2.38147 -1.28626,-3.12838 0.15552,-0.18169 0.29978,-0.37326 0.43376,-0.5746 0.13408,-0.20785 0.24891,-0.42617 0.34556,-0.65345 0.0963,-0.23365 0.17188,-0.48006 0.22529,-0.73987 0.0534,-0.25981 0.0807,-0.5387 0.0807,-0.8375 0,-1.13662 -0.32631,-2.11181 -0.98019,-2.92369 -0.64855,-0.80538 -1.45138,-1.20741 -2.40545,-1.20741 z m 7.47733,0 c -0.83612,0 -1.57021,0.377 -2.20266,1.13045 -0.6432,0.76639 -0.99048,1.64637 -1.04404,2.64015 -0.007,0.0327 -9.4e-4,0.0603 0.0145,0.0865 0.0218,0.0254 0.0465,0.0396 0.0734,0.0396 h 1.6468 c 0.0145,0 0.0327,-0.007 0.0487,-0.0291 0.0218,-0.0182 0.0327,-0.0436 0.0396,-0.0694 0.0803,-0.52613 0.26853,-0.91759 0.56334,-1.1774 0.29469,-0.26635 0.60229,-0.39996 0.92387,-0.39996 0.4395,0 0.81363,0.18568 1.11915,0.55585 0.3056,0.3702 0.45818,0.81359 0.45818,1.33321 0,0.55207 -0.14826,0.99735 -0.44317,1.3351 -0.30015,0.35065 -0.71003,0.52576 -1.22994,0.52576 h -0.56334 c -0.0643,0 -0.0956,0.0403 -0.0956,0.11846 v 1.74259 c 0,0.0781 0.0327,0.11846 0.0956,0.11846 h 0.69291 c 0.44484,0 0.83594,0.18859 1.17362,0.56519 0.33249,0.35719 0.4976,0.86602 0.4976,1.52852 0,0.6625 -0.16533,1.17315 -0.4976,1.53038 -0.33757,0.37024 -0.71827,0.55396 -1.14171,0.55396 -0.22529,0 -0.42373,-0.0363 -0.59524,-0.10719 -0.16606,-0.0716 -0.31468,-0.17224 -0.44313,-0.30233 -0.12864,-0.13626 -0.23983,-0.29506 -0.33612,-0.47696 -0.0912,-0.18169 -0.17261,-0.3867 -0.24237,-0.61403 -0.0218,-0.052 -0.0509,-0.077 -0.0883,-0.077 h -1.63928 c -0.0752,0 -0.10829,0.0414 -0.0978,0.12572 0.0752,0.60404 0.20894,1.13104 0.40185,1.57918 0.1984,0.44819 0.45956,0.83096 0.78114,1.1492 0.32704,0.31178 0.66592,0.54641 1.01966,0.70229 0.35901,0.15589 0.73968,0.23292 1.14168,0.23292 1.00763,0 1.85244,-0.39331 2.53314,-1.17921 0.69139,-0.80541 1.03652,-1.86621 1.03652,-3.18474 0,-0.57805 -0.10683,-1.1464 -0.32122,-1.70501 -0.20894,-0.51959 -0.527,-0.96486 -0.95578,-1.3351 0.20385,-0.18169 0.37947,-0.37613 0.52954,-0.58398 0.15008,-0.20785 0.26926,-0.42903 0.35502,-0.66286 0.17696,-0.52609 0.2649,-1.06468 0.2649,-1.61675 0,-0.50665 -0.0836,-0.99804 -0.24964,-1.47221 -0.16097,-0.48063 -0.39302,-0.92587 -0.69855,-1.3351 -0.32158,-0.41566 -0.69386,-0.73016 -1.11726,-0.94451 -0.41806,-0.21439 -0.88844,-0.32122 -1.40832,-0.32122 z m 8.34484,0 c -0.87366,0 -1.6475,0.36083 -2.32282,1.08161 -0.68067,0.70796 -1.02152,1.71686 -1.02152,3.02885 v 6.12907 c 0,1.31199 0.34085,2.32279 1.02152,3.03074 0.67532,0.71447 1.44916,1.07032 2.32282,1.07032 0.87362,0 1.64934,-0.35574 2.32467,-1.07032 0.68605,-0.71446 1.02903,-1.72521 1.02903,-3.03074 v -6.12907 c 0,-0.64949 -0.0897,-1.22369 -0.26671,-1.7238 -0.17151,-0.50661 -0.42471,-0.94131 -0.76239,-1.30505 -0.33758,-0.35065 -0.70349,-0.61806 -1.09473,-0.79993 -0.38591,-0.18822 -0.79583,-0.28161 -1.22995,-0.28161 z m -41.0407,0.0291 c -0.0643,0 -0.0978,0.0385 -0.0978,0.11628 v 5.91689 h -1.54168 c -0.053,0 -0.0959,0.0425 -0.0959,0.0959 v 2.07119 c 0,0.0534 0.0425,0.0977 0.0959,0.0977 h 1.54168 v 5.77979 c 0,0.0781 0.0327,0.11846 0.0978,0.11846 h 3.92267 c 0.85218,0 1.59245,-0.22892 2.21952,-0.6835 0.61638,-0.45469 1.09753,-1.01541 1.44589,-1.68438 v 0.0109 c 0.13917,-0.25328 0.25218,-0.5072 0.33794,-0.76051 0.0857,-0.25981 0.15043,-0.52525 0.19331,-0.79807 0.0912,-0.5391 0.13699,-1.59887 0.13699,-3.17718 0,-1.47438 -0.0327,-2.4698 -0.0978,-2.98943 -0.0327,-0.26635 -0.0927,-0.53942 -0.18386,-0.81871 -0.0912,-0.27943 -0.21003,-0.57453 -0.35502,-0.8863 -0.78252,-1.60429 -1.97674,-2.4073 -3.5847,-2.4073 z m 9.18045,0 c -0.0643,0 -0.0959,0.0403 -0.0959,0.11846 v 1.87969 c 0,0.0781 0.0327,0.11627 0.0959,0.11627 h 3.06264 v 11.96519 c 0,0.0781 0.0327,0.11628 0.0978,0.11628 h 1.74448 c 0.0643,0 0.0956,-0.0385 0.0956,-0.11628 v -11.96519 h 3.05512 c 0.0643,0 0.0959,-0.0385 0.0959,-0.11627 v -1.87969 c 0,-0.0778 -0.0327,-0.11846 -0.0959,-0.11846 z m 16.03808,2.19328 c 0.40734,0 0.76483,0.1617 1.07035,0.48633 0.32158,0.31832 0.48259,0.77987 0.48259,1.38391 0,0.61704 -0.16097,1.08444 -0.48259,1.40272 -0.32158,0.31832 -0.67907,0.47693 -1.07035,0.47693 -0.39124,0 -0.74902,-0.1588 -1.07594,-0.47693 -0.31105,-0.31177 -0.46759,-0.77918 -0.46759,-1.40272 0,-0.61054 0.15661,-1.07217 0.46759,-1.38391 0.32158,-0.32485 0.67932,-0.48633 1.07594,-0.48633 z m 15.82217,0 c 0.46093,0 0.82888,0.17805 1.10225,0.53513 0.27871,0.35066 0.41875,0.84216 0.41875,1.47221 v 5.89433 c 0,0.63652 -0.1399,1.12896 -0.41875,1.47969 -0.27326,0.35065 -0.64132,0.52765 -1.10225,0.52765 -0.46094,0 -0.82704,-0.17696 -1.1004,-0.52765 -0.27326,-0.35066 -0.41123,-0.84317 -0.41123,-1.47969 v -5.89433 c 0,-0.63005 0.13808,-1.12144 0.41123,-1.47221 0.27325,-0.35719 0.63946,-0.53513 1.1004,-0.53513 z m -39.20048,0.0469 h 2.00171 c 0.8629,0 1.5217,0.37409 1.97729,1.12104 0.21984,0.3702 0.35756,0.78278 0.41123,1.23743 0.0254,0.24673 0.0476,0.58056 0.0639,1.00272 0.0145,0.42221 0.0254,0.9492 0.0254,1.57922 0,0.64953 -0.007,1.18521 -0.0254,1.60737 -0.0109,0.4157 -0.0291,0.72729 -0.0563,0.93514 -0.0483,0.37675 -0.16097,0.73736 -0.33794,1.08162 -0.45018,0.77939 -1.13615,1.16984 -2.05803,1.16984 h -2.0017 v -3.67668 h 1.44215 c 0.053,0 0.0959,-0.0443 0.0959,-0.0977 v -2.07119 c 0,-0.0534 -0.0425,-0.0959 -0.0959,-0.0959 h -1.44215 z m 23.37831,5.68216 c 0.47166,0 0.88343,0.20022 1.23183,0.60276 0.35393,0.38968 0.52954,0.88688 0.52954,1.49095 0,0.2987 -0.0461,0.57479 -0.13699,0.82809 -0.0912,0.24673 -0.22093,0.46799 -0.39244,0.66287 -0.35901,0.39618 -0.77089,0.59524 -1.23183,0.59524 -0.46094,0 -0.87082,-0.19913 -1.22994,-0.59524 -0.16098,-0.18823 -0.28852,-0.40956 -0.38492,-0.66287 -0.0912,-0.25327 -0.13699,-0.52932 -0.13699,-0.82809 0,-0.60407 0.17369,-1.10127 0.52202,-1.49095 0.35901,-0.40269 0.769,-0.60276 1.22994,-0.60276 z m -6.72057,4.06163 c -0.0643,0 -0.0956,0.0385 -0.0956,0.11628 v 1.97918 c 0,0.0781 0.0327,0.11627 0.0956,0.11627 h 1.64117 c 0.0589,0 0.0883,-0.0385 0.0883,-0.11627 v -1.97918 c 0,-0.0781 -0.0291,-0.11628 -0.0883,-0.11628 z" />
    <rect
       style="font-size:14.1395px;line-height:1.3;font-family:'Singapore Road Signs';-inkscape-font-specification:'Singapore Road Signs';text-align:center;text-anchor:middle;opacity:1;fill:#0a9646;fill-opacity:1;fill-rule:evenodd;stroke-width:0.119061;stroke-linecap:square;stroke-miterlimit:10;paint-order:stroke fill markers"
       id="rect3177-9"
       width="30.156137"
       height="43.073635"
       x="853.03674"
       y="90.671577"
       ry="0.9748466"
       rx="0.9748466" />
    <path
       sodipodi:nodetypes="ccccccccccccccccccccccccccscsccccccccccccccccc"
       id="path2226-7"
       style="font-size:15.1831px;line-height:1.46;font-family:'Singapore Road Signs';-inkscape-font-specification:'Singapore Road Signs';text-align:center;text-anchor:middle;opacity:1;fill:#ffffff;fill-opacity:1;stroke-width:0.0756548"
       d="M 853.03675,90.671592 V 133.7452 H 883.1929 V 90.671592 Z m 1.1753,1.1754 27.80537,1e-4 v 40.722568 l -27.80537,-7e-5 z m 11.63277,3.34088 -1.90189,7.548288 h 3.33754 l 0.24019,-7.548288 z m 2.85367,0 0.24019,7.548288 h 3.33924 l -1.90359,-7.548288 z m -13.53906,8.503628 v 1.65287 l 2.60999,0.94299 v 0.4976 h 1.20076 v -0.4976 c 0,0 1.77577,-0.26672 3.85146,-0.4556 1.66206,-0.15116 3.51613,-0.23147 4.80316,-0.23655 1.5307,-0.007 3.79389,0.0796 5.73565,0.24563 2.13877,0.18242 3.89029,0.44677 3.89029,0.44677 v 0.49757 h 1.17609 v -0.49757 l 2.60992,-0.94299 v -1.65287 z m 7.83877,3.08125 -5.70563,22.7061 h 8.55225 l 1.18667,-22.7061 z m 6.17533,0 1.18666,22.7061 h 8.55222 l -5.7056,-22.7061 z" />
    <path
       id="path8884"
       style="opacity:1;fill:#ffffff;fill-rule:evenodd;stroke-width:0.119062;stroke-linecap:square;stroke-miterlimit:10;paint-order:stroke fill markers;fill-opacity:1"
       d="m 698.8635,82.796802 -2.31904,0.001 c -0.0421,0 -0.0756,0.0182 -0.1032,0.0618 l -2.19887,3.07391 c -0.0218,0.0498 -0.0254,0.0948 -0.007,0.13699 0.0218,0.0363 0.0585,0.0527 0.11446,0.0527 h 1.61112 c 0.0145,0 0.0291,-0.007 0.0527,-0.0109 0.0218,-0.0145 0.0327,-0.0218 0.0393,-0.0291 l 2.90679,-3.07391 c 0.0443,-0.0425 0.0512,-0.0879 0.0218,-0.13699 -0.0218,-0.048 -0.0603,-0.0752 -0.11628,-0.0752 z m 36.64106,0 c -0.056,0 -0.0927,0.0254 -0.11446,0.0752 -0.0291,0.0494 -0.0218,0.0948 0.0218,0.13699 l 2.90683,3.07391 c 0.007,0.007 0.0182,0.0145 0.0393,0.0291 0.0218,0.003 0.0392,0.0109 0.0545,0.0109 h 1.60927 c 0.056,0 0.0934,-0.0182 0.11446,-0.0527 0.0182,-0.0422 0.0145,-0.0876 -0.007,-0.137 l -2.19891,-3.07391 c -0.0291,-0.0425 -0.0629,-0.0618 -0.10501,-0.0618 z m -32.95123,2.67021 -0.92573,0.92761 c 0.23474,0.17915 0.35647,0.47264 0.36228,0.88071 -0.0109,0.4758 -0.27725,0.83052 -0.77362,1.0722 v -1.06661 c 0,-0.0767 -0.0378,-0.11446 -0.11446,-0.11446 h -2.07685 c -0.0767,0 -0.11447,0.0378 -0.11447,0.11446 v 8.84248 c 0,0.91236 -0.26053,1.60956 -0.77739,2.08808 -0.51679,0.47853 -1.1512,0.71545 -1.90407,0.71545 -0.76559,0 -1.40607,-0.23692 -1.92286,-0.71545 -0.51043,-0.47213 -0.76424,-1.16936 -0.76424,-2.08808 v -8.84248 c 0,-0.0767 -0.0327,-0.11446 -0.10502,-0.11446 h -2.08623 c -0.0767,0 -0.11628,0.0378 -0.11628,0.11446 v 9.07155 c 0,1.46741 0.48554,2.64829 1.45531,3.5415 0.96977,0.886808 2.14876,1.331398 3.53961,1.331358 1.38448,0 2.55934,-0.44455 3.52267,-1.331358 0.97616,-0.89321 1.46468,-2.07409 1.46468,-3.5415 v -6.76936 c 0.34157,-0.0683 0.66297,-0.16825 0.95767,-0.30415 0.77285,-0.52554 1.14582,-1.2065 1.12104,-2.04113 -0.0145,-0.6863 -0.22093,-1.24277 -0.62907,-1.66937 -0.0374,-0.0371 -0.0756,-0.0705 -0.11265,-0.10138 z m 6.72619,1.57732 c -1.11068,0 -2.03978,0.26745 -2.78662,0.80371 -0.74045,0.5298 -1.27733,1.10461 -1.60923,1.7238 -0.11483,0.21693 -0.21367,0.43754 -0.29651,0.66097 -0.0828,0.22348 -0.14681,0.45596 -0.1915,0.69851 -0.0447,0.24274 -0.0767,0.62882 -0.0959,1.15862 -0.0182,0.52979 -0.0291,1.21242 -0.0291,2.04865 0,1.67239 0.0411,2.74426 0.12391,3.21661 0.0447,0.24273 0.10865,0.47514 0.1915,0.69854 0.0828,0.21694 0.18168,0.43456 0.29651,0.6516 0.33176,0.62555 0.86878,1.20037 1.60923,1.723798 0.75323,0.5298 1.68234,0.7943 2.78662,0.7943 0.6064,0 1.17032,-0.085 1.69375,-0.25727 0.52344,-0.17224 1.00847,-0.42783 1.45527,-0.76613 0.91919,-0.702178 1.51396,-1.704138 1.78205,-3.006318 0.0145,-0.0382 0.007,-0.0701 -0.0182,-0.0959 -0.0254,-0.0327 -0.0574,-0.0487 -0.0959,-0.0487 h -2.19324 c -0.0182,0 -0.0389,0.007 -0.0581,0.0291 -0.0182,0.0145 -0.0327,0.0254 -0.0469,0.0396 -0.57446,1.20643 -1.41377,1.80829 -2.5181,1.80829 -0.4787,0 -0.8879,-0.0908 -1.22616,-0.27617 -0.3383,-0.19149 -0.60883,-0.42293 -0.81312,-0.69102 -0.11482,-0.1468 -0.21984,-0.31541 -0.31541,-0.50702 -0.0894,-0.19803 -0.16097,-0.39545 -0.2122,-0.59335 -0.0512,-0.21693 -0.0861,-0.5484 -0.10502,-0.99524 -0.0182,-0.45319 -0.0291,-1.02801 -0.0291,-1.7238 0,-0.68299 0.007,-1.25181 0.0291,-1.70501 0.0182,-0.4532 0.0541,-0.78757 0.10502,-1.00462 0.0509,-0.20421 0.12282,-0.40188 0.2122,-0.59338 0.0894,-0.19804 0.19405,-0.37446 0.31541,-0.52765 0.20422,-0.24891 0.47478,-0.46948 0.81312,-0.66098 0.3383,-0.1915 0.74746,-0.28561 1.22616,-0.28561 0.64473,0 1.17671,0.18677 1.598,0.56334 0.22348,0.19149 0.41203,0.40003 0.56523,0.62343 0.15298,0.21694 0.2718,0.45258 0.35501,0.70793 0.0145,0.0512 0.0476,0.077 0.10502,0.077 h 2.19324 c 0.0385,0 0.0701,-0.0109 0.0959,-0.0374 0.0254,-0.0254 0.0327,-0.0574 0.0182,-0.0959 -0.21076,-1.12983 -0.75654,-2.10777 -1.63743,-2.93121 -0.86813,-0.81708 -1.96591,-1.22427 -3.2936,-1.22435 z m 28.34132,0 c -1.11068,0 -2.03794,0.26745 -2.78474,0.80371 -0.74048,0.5298 -1.27736,1.10461 -1.60926,1.7238 h 0.0109 c -0.12137,0.21693 -0.22311,0.43754 -0.30596,0.66097 -0.0829,0.22348 -0.1468,0.45596 -0.1915,0.69851 -0.0385,0.24274 -0.0701,0.62882 -0.0959,1.15862 -0.0182,0.52979 -0.0291,1.21242 -0.0291,2.04865 0,0.83619 0.0109,1.52184 0.0291,2.05803 0.0254,0.5298 0.0574,0.91603 0.0959,1.15858 0.0447,0.24273 0.10865,0.47514 0.1915,0.69854 0.0829,0.21694 0.18459,0.43456 0.30596,0.6516 h -0.0109 c 0.33175,0.62555 0.86878,1.20037 1.60926,1.723798 0.7532,0.5298 1.68045,0.7943 2.78474,0.7943 1.0915,0 2.01461,-0.26454 2.76784,-0.7943 0.7532,-0.536188 1.29909,-1.111008 1.63739,-1.723798 0.10865,-0.20421 0.20131,-0.41689 0.27798,-0.64033 0.0829,-0.22347 0.1468,-0.46083 0.1915,-0.70981 0.0894,-0.50425 0.13336,-1.57613 0.13336,-3.21661 0,-0.83623 -0.0109,-1.51886 -0.0374,-2.04865 -0.0182,-0.5298 -0.0509,-0.91603 -0.0956,-1.15862 -0.0829,-0.47234 -0.24273,-0.92543 -0.47885,-1.35948 -0.33176,-0.60643 -0.87478,-1.18125 -1.62802,-1.7238 -0.74683,-0.53619 -1.66991,-0.80371 -2.76784,-0.80371 z m 10.59815,0.0959 c -0.0512,0 -0.0829,0.0254 -0.0956,0.0752 l -5.01741,13.730308 c -0.0145,0.0382 -0.0109,0.073 0.007,0.10501 0.0182,0.0327 0.0509,0.0487 0.0956,0.0487 h 2.19324 c 0.0182,0 0.0389,-0.007 0.0581,-0.0182 0.0254,-0.0182 0.0407,-0.0392 0.0469,-0.0581 0.17878,-0.51064 0.35538,-1.01071 0.52766,-1.502208 0.17878,-0.49789 0.35647,-1.00585 0.53514,-1.52289 h 5.05686 l 1.03278,3.025098 c 0.0145,0.0512 0.0447,0.077 0.0956,0.077 h 2.19327 c 0.0385,0 0.0672,-0.0182 0.0865,-0.0487 0.0182,-0.0327 0.0218,-0.0669 0.007,-0.10502 L 750.0336,87.216132 c -0.007,-0.0182 -0.0218,-0.0327 -0.0487,-0.0469 -0.0182,-0.0182 -0.0371,-0.0291 -0.0563,-0.0291 z m -68.66654,0.007 c -0.0709,0 -0.10719,0.0389 -0.10719,0.11628 v 5.68405 h -1.01399 c -0.0709,0 -0.1072,0.0392 -0.1072,0.11628 v 1.99044 c 0,0.0709 0.0363,0.1072 0.1072,0.1072 h 1.01399 v 5.952568 c 0,0.0774 0.0363,0.11628 0.10719,0.11628 h 4.71697 c 1.03104,0 1.92377,-0.22492 2.67769,-0.67601 0.7282,-0.45109 1.30709,-1.009378 1.73885,-1.673108 v 0.0109 c 0.16097,-0.25146 0.29505,-0.50353 0.39807,-0.75484 0.10974,-0.25763 0.18895,-0.52176 0.24019,-0.79244 0.0516,-0.26417 0.0905,-0.65726 0.11628,-1.17921 0.0254,-0.52842 0.0396,-1.1855 0.0396,-1.9717 0,-1.46275 -0.0393,-2.45134 -0.11628,-2.96686 -0.0327,-0.26417 -0.10284,-0.53601 -0.21221,-0.81311 -0.10974,-0.27726 -0.25218,-0.56948 -0.42624,-0.87878 -0.95374,-1.59168 -2.394,-2.38852 -4.32078,-2.38852 z m 40.43979,0.0109 c -0.0767,0 -0.11446,0.0378 -0.11446,0.11446 v 13.720928 c 0,0.0767 0.0378,0.11447 0.11446,0.11447 h 2.07682 c 0.0767,0 0.11446,-0.0378 0.11446,-0.11447 v -5.879318 h 5.21835 v 5.879318 c 0,0.0767 0.0396,0.11447 0.11628,0.11447 h 2.07682 c 0.0767,0 0.11446,-0.0378 0.11446,-0.11447 V 87.272592 c 0,-0.0767 -0.0378,-0.11446 -0.11446,-0.11446 h -2.07682 c -0.0767,0 -0.11628,0.0378 -0.11628,0.11446 v 5.76476 h -5.21835 v -5.76476 c 0,-0.0767 -0.0378,-0.11446 -0.11446,-0.11446 z m 17.6286,2.20262 c 0.22965,0 0.44731,0.0254 0.65156,0.0847 0.20422,0.0509 0.39288,0.12282 0.56523,0.21221 0.17224,0.0829 0.32594,0.18169 0.46003,0.29651 0.14062,0.11483 0.25726,0.23184 0.35319,0.35284 0.12137,0.15334 0.22602,0.32958 0.31541,0.52769 0.0894,0.1915 0.15807,0.3891 0.20276,0.59335 0.0509,0.21075 0.089,0.542 0.11447,0.99524 0.0254,0.4468 0.0374,1.0186 0.0374,1.71439 0,1.40432 -0.0498,2.3105 -0.15225,2.71904 -0.0828,0.40854 -0.25945,0.77482 -0.52765,1.10036 -0.19804,0.26817 -0.46537,0.49953 -0.80367,0.69103 -0.3383,0.18495 -0.74444,0.27616 -1.21679,0.27616 -0.47874,0 -0.8879,-0.0908 -1.2262,-0.27616 -0.3383,-0.1915 -0.60879,-0.42293 -0.81308,-0.69103 -0.11483,-0.1468 -0.21984,-0.31541 -0.31541,-0.50701 -0.0894,-0.19804 -0.15916,-0.39546 -0.21039,-0.59335 -0.0512,-0.21693 -0.0861,-0.5484 -0.10502,-0.99524 -0.0182,-0.4532 -0.0291,-1.02802 -0.0291,-1.7238 0,-0.683 0.0109,-1.25178 0.0291,-1.70502 0.0182,-0.45319 0.0538,-0.78757 0.10502,-1.00461 0.0509,-0.20422 0.121,-0.40185 0.21039,-0.59335 0.0894,-0.19804 0.19404,-0.37446 0.31541,-0.52769 0.20421,-0.24891 0.47478,-0.46759 0.81308,-0.65909 0.3383,-0.19149 0.74746,-0.28742 1.2262,-0.28742 z m -55.84513,0.007 h 2.39793 c 1.0375,0 1.82954,0.3706 2.37729,1.11166 0.26417,0.36083 0.43234,0.77053 0.50323,1.22805 0.0327,0.24492 0.0549,0.57638 0.0676,0.99524 0.0182,0.41886 0.0291,0.94099 0.0291,1.56606 0,0.64441 -0.007,1.17537 -0.0291,1.59423 -0.0145,0.41242 -0.0363,0.7214 -0.0676,0.92761 -0.0451,0.37377 -0.18205,0.73256 -0.40748,1.07409 -0.54132,0.7733 -1.36465,1.16047 -2.47304,1.16047 h -2.39793 v -3.86635 h 2.52187 c 0.0774,0 0.11628,-0.0363 0.11628,-0.1072 v -1.99044 c 0,-0.0774 -0.0392,-0.11628 -0.11628,-0.11628 h -2.52187 z m 67.32395,1.10977 1.83837,5.45869 h -3.67671 z M 880.94028,146.9741 c -1.10556,0 -2.03002,0.26636 -2.77347,0.79993 -0.7371,0.5274 -1.27133,1.09989 -1.60175,1.71628 -0.11446,0.21584 -0.21403,0.43481 -0.29651,0.65723 -0.0821,0.22239 -0.1439,0.45516 -0.18786,0.69666 -0.0447,0.24128 -0.0781,0.6274 -0.0978,1.15483 -0.0182,0.5274 -0.0254,1.20683 -0.0254,2.03925 0,1.66479 0.0411,2.73139 0.12391,3.20159 0.0447,0.24165 0.10683,0.47428 0.18968,0.69666 0.0825,0.21584 0.18024,0.42991 0.2947,0.64597 0.3303,0.62271 0.86468,1.19713 1.60174,1.71817 0.74986,0.52743 1.67417,0.79055 2.77348,0.79055 0.60367,0 1.16707,-0.0858 1.68811,-0.25727 0.52104,-0.17151 1.00302,-0.42747 1.44779,-0.76424 0.915,-0.69899 1.5057,-1.69691 1.7726,-2.99321 0.0145,-0.0382 0.007,-0.0687 -0.0145,-0.0941 -0.0254,-0.0327 -0.0578,-0.0487 -0.0959,-0.0487 h -2.18197 c -0.0182,0 -0.0389,0.0109 -0.0581,0.0291 -0.0218,0.0145 -0.0327,0.0254 -0.0469,0.0374 -0.57191,1.20099 -1.40945,1.80269 -2.50872,1.80269 -0.4766,0 -0.8819,-0.0937 -1.21868,-0.27798 -0.33684,-0.19077 -0.60781,-0.41853 -0.81119,-0.68539 -0.11446,-0.14607 -0.21875,-0.3165 -0.31359,-0.50701 -0.089,-0.19695 -0.15734,-0.39263 -0.20857,-0.58961 -0.0509,-0.21621 -0.0861,-0.54669 -0.10502,-0.99146 -0.0182,-0.45116 -0.0291,-1.0218 -0.0291,-1.71443 0,-0.67987 0.0145,-1.24636 0.0291,-1.69749 0.0182,-0.45116 0.0541,-0.78481 0.10502,-1.00087 0.0509,-0.20349 0.11955,-0.39902 0.20857,-0.58961 0.089,-0.19695 0.19295,-0.37329 0.31359,-0.5258 0.20349,-0.24782 0.47442,-0.46846 0.81119,-0.65908 0.33685,-0.19077 0.74208,-0.28561 1.21868,-0.28561 0.64175,0 1.17289,0.18859 1.59237,0.56333 0.22238,0.19077 0.40894,0.39728 0.56145,0.61966 0.15298,0.21621 0.27216,0.45189 0.35501,0.70603 0.0145,0.0509 0.048,0.0752 0.10502,0.0752 h 2.18197 c 0.0382,0 0.0683,-0.0109 0.0937,-0.0374 0.0254,-0.0254 0.0327,-0.0578 0.0218,-0.0959 -0.2093,-1.12481 -0.75301,-2.09836 -1.6299,-2.91806 -0.86414,-0.81337 -1.9569,-1.21864 -3.2786,-1.21864 z m -46.321,0.11447 c -0.0763,0 -0.11447,0.0385 -0.11447,0.11446 v 1.83833 c 0,0.0763 0.0382,0.11447 0.11447,0.11447 h 3.62976 v 11.70606 c 0,0.0763 0.0381,0.11447 0.11446,0.11447 h 2.06929 c 0.0763,0 0.11265,-0.0382 0.11265,-0.11447 V 149.1564 h 3.62409 c 0.0763,0 0.11446,-0.0382 0.11446,-0.11447 v -1.83833 c 0,-0.0763 -0.0382,-0.11446 -0.11446,-0.11446 z m 11.18968,0 c -0.0763,0 -0.11447,0.0385 -0.11447,0.11446 v 13.65894 c 0,0.0763 0.0378,0.11446 0.11447,0.11446 h 2.06744 c 0.0763,0 0.11446,-0.0382 0.11446,-0.11446 v -5.22398 h 3.04201 c 1.42972,0 2.5194,-0.44971 3.26922,-1.352 0.74978,-0.90869 1.12289,-1.86229 1.12289,-2.85985 0,-0.38129 -0.0378,-0.74106 -0.11446,-1.07784 -0.0763,-0.33684 -0.18314,-0.64618 -0.32304,-0.92576 -0.14607,-0.27325 -0.31359,-0.51929 -0.4976,-0.74171 -0.17805,-0.22893 -0.37373,-0.42933 -0.58961,-0.60091 -0.55915,-0.43209 -1.08739,-0.70618 -1.58296,-0.82057 -0.48931,-0.11446 -1.00461,-0.17078 -1.55105,-0.17078 z m 18.06046,0 c -0.0763,0 -0.11446,0.0385 -0.11446,0.11446 v 13.65894 c 0,0.0763 0.0378,0.11446 0.11446,0.11446 h 2.06933 c 0.0763,0 0.11265,-0.0382 0.11265,-0.11446 v -5.85305 h 5.19582 v 5.85305 c 0,0.0763 0.0378,0.11446 0.11446,0.11446 h 2.06741 c 0.0763,0 0.11446,-0.0382 0.11446,-0.11446 V 147.2032 c 0,-0.0763 -0.0378,-0.11446 -0.11446,-0.11446 h -2.06741 c -0.0763,0 -0.11446,0.0382 -0.11446,0.11446 v 5.73852 h -5.19582 v -5.73852 c 0,-0.0763 -0.0363,-0.11446 -0.11265,-0.11446 z m 23.53419,0 c -0.0763,0 -0.11446,0.0385 -0.11446,0.11446 v 13.65894 c 0,0.0763 0.0378,0.11446 0.11446,0.11446 h 2.06741 c 0.0763,0 0.11446,-0.0382 0.11446,-0.11446 v -8.08198 l 2.6871,6.18354 c 0.0254,0.0382 0.0611,0.0581 0.10502,0.0581 h 1.72569 c 0.0447,0 0.0796,-0.0218 0.10501,-0.0581 0.43845,-1.02936 0.88209,-2.05465 1.33321,-3.07769 0.45113,-1.02304 0.89971,-2.05131 1.34452,-3.08706 v 8.06319 c 0,0.0763 0.0378,0.11446 0.11446,0.11446 h 2.06741 c 0.0763,0 0.11446,-0.0382 0.11446,-0.11446 V 147.2032 c 0,-0.0763 -0.0382,-0.11446 -0.11446,-0.11446 h -1.95288 c -0.0509,0 -0.0861,0.0218 -0.10501,0.0676 -0.62267,1.45516 -1.24568,2.89975 -1.86839,4.3358 -0.62278,1.42972 -1.24073,2.87314 -1.85712,4.3283 l -3.82129,-8.6641 c -0.0254,-0.0443 -0.0625,-0.0676 -0.10683,-0.0676 z m -39.41268,2.19135 h 2.88805 c 0.57823,0 1.04796,0.12282 1.41017,0.36428 0.55916,0.36228 0.83939,0.93586 0.83939,1.7238 0,0.5274 -0.18241,1.00516 -0.54455,1.43089 -0.35574,0.43844 -0.89731,0.65719 -1.62805,0.65719 h -2.96501 z m -158.88437,2.22329 -10.95683,15.91228 c -0.47199,0.5758 -0.53925,1.29175 -0.17478,1.77449 0.47779,0.63263 1.18205,0.78718 2.02801,0.71545 l 4.76581,-1.8778 v 56.63942 h 8.47064 v -14.22416 l 29.84727,-29.99001 2.19888,4.83718 c 0.73524,0.77416 1.06609,0.88063 1.62238,0.84691 0.61468,-0.0374 1.27856,-0.67984 1.44778,-1.30324 l 3.45887,-19.00872 -18.99182,3.54899 c -0.74074,0.0752 -1.29434,0.53477 -1.37642,1.13419 -0.10756,0.78543 0.28488,1.39197 0.93514,1.93786 l 4.70192,2.03176 -23.844,23.95672 v -30.4069 l 4.97235,1.8778 c 1.06726,0.0291 1.37583,-0.12646 1.74633,-0.5427 0.40941,-0.45999 0.42492,-1.38605 0.10501,-1.94724 z m 164.97965,7.31017 c -0.0763,0 -0.11265,0.0382 -0.11265,0.11447 v 1.93412 c 0,0.0763 0.0363,0.11446 0.11265,0.11446 h 1.94538 c 0.0701,0 0.10502,-0.0382 0.10502,-0.11446 v -1.93412 c 0,-0.0763 -0.0327,-0.11447 -0.10502,-0.11447 z m 49.66344,14.22606 -0.97456,0.97456 c 0.26999,0.18678 0.40672,0.49938 0.41312,0.93703 -0.0218,0.52456 -0.32159,0.90211 -0.88445,1.15105 -0.87802,-0.82336 -2.05323,-1.3351 -3.35745,-1.3351 h -0.14099 c -2.72264,0 -4.91413,2.19154 -4.91413,4.91414 v 4.30577 c 0,2.72264 2.19149,4.91414 4.91413,4.91414 h 0.14099 c 2.7226,0 4.91414,-2.1915 4.91414,-4.91414 v -4.30577 c 0,-0.93605 -0.27435,-1.79942 -0.72482,-2.54248 0.0832,-0.0327 0.16715,-0.0669 0.24782,-0.1032 0.80447,-0.54706 1.1956,-1.2549 1.16987,-2.12376 -0.0145,-0.71439 -0.23219,-1.2947 -0.65723,-1.73881 -0.0447,-0.0451 -0.0952,-0.0883 -0.14644,-0.13336 z m -11.75675,0.15007 -0.92199,0.92387 c 0.23365,0.17842 0.35247,0.4705 0.35865,0.87693 -0.0109,0.47387 -0.27362,0.82591 -0.76802,1.06657 v -1.06243 c 0,-0.0763 -0.0382,-0.11264 -0.11447,-0.11264 h -2.06929 c -0.0763,0 -0.11446,0.0363 -0.11446,0.11264 v 8.80869 c 0,0.90865 -0.25691,1.6021 -0.77177,2.0787 -0.51468,0.47657 -1.14673,0.71356 -1.89655,0.71356 -0.76246,0 -1.4025,-0.23692 -1.91722,-0.71356 -0.50836,-0.47024 -0.7605,-1.1637 -0.7605,-2.0787 v -8.80869 c 0,-0.0763 -0.0327,-0.11264 -0.10502,-0.11264 h -2.07899 c -0.0763,0 -0.11447,0.0363 -0.11447,0.11264 v 9.03587 c 0,1.46148 0.4838,2.63692 1.44964,3.52649 0.96588,0.88325 2.13939,1.32758 3.5246,1.32758 1.37889,0 2.55011,-0.44433 3.50956,-1.32758 0.9722,-0.88957 1.45716,-2.06501 1.45716,-3.52649 v -6.7431 c 0.34011,-0.0679 0.66042,-0.16497 0.95392,-0.30051 0.76969,-0.52343 1.14193,-1.20236 1.11726,-2.03361 -0.0145,-0.68354 -0.22093,-1.23884 -0.62718,-1.66373 -0.0374,-0.0371 -0.0738,-0.0687 -0.11083,-0.0996 z m -33.65353,1.57736 c -1.10472,2.9e-4 -2.02856,0.26635 -2.77158,0.79989 -0.73707,0.5274 -1.26944,1.09997 -1.59989,1.71632 h 0.0109 c -0.12101,0.21621 -0.22384,0.43477 -0.30596,0.65719 -0.0825,0.22239 -0.14535,0.45524 -0.18968,0.69666 -0.0378,0.24164 -0.0701,0.62555 -0.0956,1.15298 -0.0218,0.5274 -0.0291,1.20687 -0.0291,2.03924 0,0.83245 0.0109,1.5149 0.0291,2.0487 0.0254,0.52739 0.0578,0.91333 0.0956,1.15479 0.0447,0.24128 0.10719,0.47246 0.18968,0.69481 0.0821,0.2162 0.18568,0.43183 0.30596,0.64785 h -0.0109 c 0.3303,0.62268 0.86282,1.19335 1.59989,1.71439 0.74981,0.5274 1.6742,0.7943 2.77343,0.7943 1.37893,0 2.55916,-0.48074 3.53776,-1.44026 0.96581,-0.94677 1.44778,-2.12217 1.44778,-3.52646 v -2.78477 c 0,-0.0701 -0.0382,-0.1032 -0.11446,-0.1032 h -4.85029 c -0.0763,0 -0.11628,0.0327 -0.11628,0.1032 v 1.96417 c 0,0.0763 0.0403,0.11446 0.11628,0.11446 h 2.66646 v 0.5915 c 0,0.83245 -0.25836,1.50578 -0.77929,2.02049 -0.51468,0.51468 -1.15163,0.77177 -1.90785,0.77177 -0.47656,0 -0.88186,-0.0937 -1.21864,-0.27798 -0.33684,-0.19077 -0.60792,-0.41853 -0.81123,-0.68539 -0.11446,-0.14608 -0.21838,-0.31432 -0.31359,-0.50513 -0.089,-0.19694 -0.15734,-0.39266 -0.20857,-0.5896 -0.0509,-0.21621 -0.0883,-0.5467 -0.10683,-0.9915 -0.0182,-0.45116 -0.0254,-1.02366 -0.0254,-1.71628 0,-0.67987 0.007,-1.24444 0.0254,-1.69564 0.0218,-0.45113 0.056,-0.7867 0.10683,-1.00273 0.0509,-0.20312 0.11918,-0.4009 0.20857,-0.59149 0.0887,-0.19695 0.19295,-0.3714 0.31359,-0.52391 0.20313,-0.24782 0.47442,-0.46654 0.81123,-0.6572 0.33685,-0.19077 0.74208,-0.28561 1.21864,-0.28561 0.64179,0 1.173,0.18859 1.59237,0.5633 0.22239,0.19077 0.4089,0.39731 0.56148,0.61966 0.15262,0.21621 0.27072,0.45004 0.35284,0.70418 0.0145,0.0509 0.048,0.077 0.10501,0.077 h 2.18194 c 0.0382,0 0.0705,-0.0145 0.0959,-0.0396 0.0254,-0.0254 0.0327,-0.056 0.0182,-0.0937 -0.2093,-1.13096 -0.75298,-2.10473 -1.6299,-2.91806 -0.86374,-0.81294 -1.95589,-1.21828 -3.27671,-1.21868 z m 65.79731,0 c -1.10563,0 -2.03005,0.26599 -2.77347,0.79989 -0.7371,0.5274 -1.27133,1.09997 -1.60175,1.71632 h 0.0145 c -0.121,0.21621 -0.22348,0.43477 -0.30596,0.65719 -0.0821,0.22239 -0.1468,0.45524 -0.1915,0.69666 -0.0378,0.24164 -0.0701,0.62555 -0.0959,1.15298 -0.0182,0.5274 -0.0291,1.20687 -0.0291,2.03924 0,0.83245 0.0145,1.5149 0.0291,2.0487 0.0254,0.52739 0.0578,0.91333 0.0959,1.15479 0.0447,0.24128 0.10901,0.47246 0.1915,0.69481 0.0821,0.2162 0.18532,0.43183 0.30596,0.64785 h -0.0145 c 0.33031,0.62268 0.86465,1.19335 1.60175,1.71439 0.74978,0.5274 1.67416,0.7943 2.77347,0.7943 1.37885,0 2.55731,-0.48074 3.53587,-1.44026 0.96588,-0.94677 1.44963,-2.12217 1.44963,-3.52646 v -2.78477 c 0,-0.0701 -0.0378,-0.1032 -0.11446,-0.1032 h -4.85029 c -0.0763,0 -0.11446,0.0327 -0.11446,0.1032 v 1.96417 c 0,0.0763 0.0381,0.11446 0.11446,0.11446 h 2.66642 v 0.5915 c 0,0.83245 -0.26017,1.50578 -0.78114,2.02049 -0.51464,0.51468 -1.14974,0.77177 -1.90596,0.77177 -0.47652,0 -0.88186,-0.0937 -1.21867,-0.27798 -0.33685,-0.19077 -0.60785,-0.41853 -0.8112,-0.68539 -0.11446,-0.14608 -0.21875,-0.31432 -0.31359,-0.50513 -0.089,-0.19694 -0.15952,-0.39266 -0.21039,-0.5896 -0.0509,-0.21621 -0.0861,-0.5467 -0.10501,-0.9915 -0.0182,-0.45116 -0.0254,-1.02366 -0.0254,-1.71628 0,-0.67987 0.007,-1.24444 0.0254,-1.69564 0.0182,-0.45113 0.0541,-0.7867 0.10501,-1.00273 0.0509,-0.20312 0.12137,-0.4009 0.21039,-0.59149 0.089,-0.19695 0.19296,-0.3714 0.31359,-0.52391 0.20313,-0.24782 0.47446,-0.46654 0.8112,-0.6572 0.33684,-0.19077 0.74215,-0.28561 1.21867,-0.28561 0.64183,0 1.17301,0.18859 1.59237,0.5633 0.22239,0.19077 0.40898,0.39731 0.56145,0.61966 0.15298,0.21621 0.27217,0.45004 0.35501,0.70418 0.0145,0.0509 0.0462,0.077 0.1032,0.077 h 2.18383 c 0.0378,0 0.0683,-0.0145 0.0937,-0.0396 0.0254,-0.0254 0.0327,-0.056 0.0218,-0.0937 -0.20966,-1.13104 -0.75301,-2.10473 -1.6299,-2.91806 -0.86421,-0.81334 -1.95694,-1.21868 -3.2786,-1.21868 z m -118.95156,0.11265 c -0.0763,0 -0.11446,0.0385 -0.11446,0.11446 v 1.84023 c 0,0.0763 0.0381,0.11446 0.11446,0.11446 h 3.63165 v 11.70421 c 0,0.0763 0.0378,0.11628 0.11446,0.11628 h 2.0693 c 0.0763,0 0.11264,-0.0403 0.11264,-0.11628 v -11.70421 h 3.62224 c 0.0763,0 0.11446,-0.0385 0.11446,-0.11446 v -1.83979 c 0,-0.0763 -0.0378,-0.11447 -0.11446,-0.11447 z m 11.18968,0 c -0.0763,0 -0.11446,0.0385 -0.11446,0.11446 v 13.65898 c 0,0.0763 0.0382,0.11627 0.11446,0.11627 h 2.06933 c 0.0763,0 0.11265,-0.0403 0.11265,-0.11627 v -5.71788 h 2.46926 l 2.79415,5.76668 0.045,0.0469 c 0.0218,0.0145 0.0385,0.0218 0.0585,0.0218 h 2.45992 c 0.0447,0 0.0759,-0.0182 0.0956,-0.0487 0.0182,-0.0385 0.0182,-0.0792 0,-0.12391 -0.51468,-0.98481 -1.03186,-1.97376 -1.55294,-2.96501 -0.52108,-0.99763 -1.04004,-1.98949 -1.5548,-2.97441 0.39401,-0.14608 0.74579,-0.33685 1.0572,-0.57835 0.31141,-0.24782 0.58554,-0.53597 0.8206,-0.86003 0.22856,-0.34956 0.40614,-0.72445 0.53329,-1.12478 0.12718,-0.40668 0.19149,-0.83514 0.19149,-1.2863 0,-0.30487 -0.0378,-0.60036 -0.11446,-0.8863 -0.0763,-0.28597 -0.18241,-0.55512 -0.31541,-0.8093 -0.12718,-0.254 -0.27543,-0.49001 -0.44691,-0.70607 -0.16533,-0.22238 -0.34157,-0.41995 -0.5258,-0.5915 -0.35574,-0.29869 -0.77213,-0.52838 -1.24869,-0.68724 -0.47656,-0.16534 -1.00894,-0.24601 -1.59989,-0.24601 z m 11.64786,0 c -0.0763,0 -0.11447,0.0385 -0.11447,0.11446 v 9.03587 c 0,1.46148 0.48187,2.63688 1.44775,3.52645 0.96584,0.88325 2.14117,1.32573 3.52649,1.32573 1.37885,0 2.55007,-0.44248 3.50956,-1.32573 0.9722,-0.88957 1.45716,-2.06497 1.45716,-3.52645 v -9.03543 c 0,-0.0763 -0.0382,-0.11447 -0.11447,-0.11447 h -2.06744 c -0.0763,0 -0.11446,0.0385 -0.11446,0.11447 v 8.80868 c 0,0.90865 -0.25908,1.60211 -0.77366,2.07871 -0.51471,0.47656 -1.14676,0.71166 -1.89654,0.71166 -0.76258,0 -1.40062,-0.2351 -1.91534,-0.71166 -0.50839,-0.47021 -0.76239,-1.1637 -0.76239,-2.07871 v -8.80868 c 0,-0.0763 -0.0327,-0.11447 -0.1032,-0.11447 z m 12.56231,0 c -0.0763,0 -0.11446,0.0385 -0.11446,0.11446 v 13.65898 c 0,0.0763 0.0378,0.11627 0.11446,0.11627 h 2.07871 c 0.0701,0 0.1032,-0.0403 0.1032,-0.11627 v -9.39833 l 6.0258,9.4565 c 0.0254,0.0382 0.0556,0.0581 0.0937,0.0581 h 1.95476 c 0.0763,0 0.11446,-0.0403 0.11446,-0.11628 v -13.65897 c 0,-0.0763 -0.0378,-0.11265 -0.11446,-0.11265 h -2.07871 c -0.0763,0 -0.11446,0.0363 -0.11446,0.11265 v 9.40018 l -6.00512,-9.45651 c -0.0254,-0.0382 -0.0585,-0.0563 -0.0956,-0.0563 z m 29.92991,0 c -0.0763,0 -0.11628,0.0385 -0.11628,0.11446 v 13.65898 c 0,0.0763 0.0403,0.11627 0.11628,0.11627 h 8.7298 c 0.0763,0 0.11446,-0.0403 0.11446,-0.11627 v -1.94354 c 0,-0.0763 -0.0382,-0.11446 -0.11446,-0.11446 h -6.54782 v -11.60094 c 0,-0.0763 -0.0403,-0.11265 -0.11628,-0.11265 z m 35.86555,0 c -0.0763,0 -0.11446,0.0385 -0.11446,0.11446 v 13.65898 c 0,0.0763 0.0381,0.11627 0.11446,0.11627 h 2.07871 c 0.0701,0 0.1032,-0.0403 0.1032,-0.11627 v -9.39833 l 6.02391,9.4565 c 0.0254,0.0382 0.0578,0.0581 0.0956,0.0581 h 1.95476 c 0.0763,0 0.11265,-0.0403 0.11265,-0.11628 v -13.65897 c 0,-0.0763 -0.0363,-0.11265 -0.11265,-0.11265 h -2.07867 c -0.0763,0 -0.11446,0.0363 -0.11446,0.11265 v 9.40018 l -6.00516,-9.45651 c -0.0254,-0.0382 -0.0556,-0.0563 -0.0937,-0.0563 z m -87.82365,2.06929 h 3.14527 c 0.28598,0 0.54909,0.0363 0.79056,0.10502 0.24781,0.0701 0.46544,0.16788 0.6497,0.29469 0.20967,0.1588 0.36912,0.36228 0.47697,0.61025 0.1141,0.24782 0.17078,0.53107 0.17078,0.84876 0,0.5592 -0.1835,1.04299 -0.55203,1.44964 -0.36854,0.40669 -0.92104,0.60839 -1.65811,0.60843 h -3.02322 z m 80.32569,0.12973 c 1.48964,0 2.6871,1.19931 2.6871,2.68895 v 4.15178 c 0,1.48961 -1.19739,2.68899 -2.6871,2.68899 -1.48961,0 -2.68899,-1.19938 -2.68899,-2.68899 v -4.15178 c 0,-1.48964 1.19938,-2.68895 2.68899,-2.68895 z M 689.5103,237.31051 c -1.05094,0 -1.98365,0.35829 -2.79604,1.0741 -0.81882,0.70279 -1.22805,1.70581 -1.22805,3.00821 v 6.08212 c 0,1.3024 0.40923,2.30352 1.22805,3.00632 0.81239,0.70916 1.7451,1.06472 2.79604,1.06468 1.05091,0 1.98172,-0.35538 2.79412,-1.06468 0.82525,-0.70919 1.2375,-1.71035 1.23746,-3.00632 v -6.08212 c 0,-0.64473 -0.10647,-1.2161 -0.3194,-1.71254 -0.2064,-0.50287 -0.51207,-0.93459 -0.91825,-1.29567 -0.40617,-0.34812 -0.84567,-0.61378 -1.31631,-0.7943 -0.46421,-0.18677 -0.95556,-0.2798 -1.4778,-0.2798 z m 9.51657,0 c -1.05091,0 -1.98361,0.35829 -2.796,1.0741 -0.81882,0.70279 -1.22809,1.70581 -1.22809,3.00821 v 6.08212 c 0,1.3024 0.40927,2.30352 1.22809,3.00632 0.81239,0.70916 1.74509,1.06472 2.796,1.06468 1.05087,0 1.98172,-0.35538 2.79412,-1.06468 0.82525,-0.70919 1.23746,-1.71035 1.23746,-3.00632 v -6.08212 c 0,-0.64473 -0.10647,-1.2161 -0.3194,-1.71254 -0.2064,-0.50287 -0.51207,-0.93459 -0.91825,-1.29567 -0.40621,-0.34812 -0.84564,-0.61378 -1.31631,-0.7943 -0.46421,-0.18677 -0.95556,-0.2798 -1.4778,-0.2798 z m -22.815,0.12573 c -0.0709,0 -0.1072,0.0371 -0.1072,0.11446 v 7.44728 c 0,0.0712 0.0363,0.10719 0.1072,0.10719 h 1.86653 c 0.0385,0 0.072,-0.0182 0.0978,-0.0581 0.40617,-0.72209 0.96388,-1.08346 1.67311,-1.08346 0.77365,0 1.27569,0.22928 1.50784,0.68724 0.12246,0.24491 0.21694,0.52529 0.28162,0.84124 0.0643,0.3096 0.0956,0.64841 0.0956,1.01588 0,0.61897 -0.0839,1.26359 -0.25146,1.93412 -0.13517,0.606 -0.65995,0.90887 -1.57547,0.90887 -1.01225,0 -1.63147,-0.50694 -1.85712,-1.51915 -0.0145,-0.0585 -0.052,-0.0865 -0.11628,-0.0865 h -1.9717 c -0.0327,0 -0.0625,0.0145 -0.0883,0.0374 -0.0254,0.0254 -0.0367,0.0563 -0.0291,0.0883 0.14207,1.30876 0.64385,2.25328 1.50784,2.83354 0.84459,0.56087 1.72359,0.84125 2.63264,0.84125 0.70276,0 1.32198,-0.16207 1.85712,-0.48445 0.50937,-0.31577 0.9157,-0.66068 1.21871,-1.03467 0.30959,-0.4061 0.53121,-0.83201 0.66661,-1.27689 l -0.0109,0.0145 c 0.0774,-0.23874 0.13299,-0.53067 0.16533,-0.87878 0.0385,-0.34811 0.0581,-0.75451 0.0581,-1.21871 0,-1.14121 -0.0945,-1.9645 -0.28161,-2.46737 -0.0901,-0.24492 -0.20567,-0.4834 -0.34739,-0.71545 -0.14208,-0.23873 -0.30705,-0.46032 -0.49386,-0.6666 -0.12899,-0.13554 -0.28633,-0.26417 -0.47322,-0.38685 -0.18059,-0.129 -0.37685,-0.246 -0.5896,-0.3492 -0.21912,-0.10356 -0.45647,-0.17987 -0.70792,-0.2311 -0.24492,-0.0581 -0.50288,-0.0883 -0.77366,-0.0883 -0.76726,0 -1.46268,0.22056 -2.08808,0.65912 v -2.77537 h 5.35916 c 0.0774,0 0.11446,-0.0392 0.11446,-0.11627 v -1.97352 c 0,-0.077 -0.0374,-0.11446 -0.11446,-0.11446 z m 13.29843,2.07871 c 0.55447,0 0.99688,0.17878 1.32569,0.53328 0.3354,0.34775 0.50138,0.83365 0.50138,1.45905 v 5.85113 c 0,0.63183 -0.16606,1.1222 -0.50138,1.47031 -0.32885,0.34811 -0.77122,0.52202 -1.32569,0.52202 -0.5545,0 -0.99691,-0.17406 -1.32572,-0.52202 -0.32886,-0.34811 -0.49386,-0.83848 -0.49386,-1.47031 v -5.85113 c 0,-0.6254 0.16497,-1.1113 0.49386,-1.45905 0.32885,-0.35465 0.77122,-0.53328 1.32572,-0.53328 z m 9.51657,0 c 0.55447,0 0.99502,0.17878 1.32384,0.53328 0.33539,0.34775 0.50323,0.83365 0.50323,1.45905 v 5.85113 c 0,0.63183 -0.16787,1.1222 -0.50323,1.47031 -0.32885,0.34811 -0.76937,0.52202 -1.32384,0.52202 -0.5545,0 -0.99691,-0.17406 -1.32569,-0.52202 -0.32885,-0.34811 -0.49389,-0.83848 -0.49389,-1.47031 v -5.85113 c 0,-0.6254 0.16497,-1.1113 0.49389,-1.45905 0.32885,-0.35465 0.77119,-0.53328 1.32569,-0.53328 z m 14.85324,3.23728 c -0.88223,7e-5 -1.58878,0.2867 -2.11814,0.86003 v -0.67035 c 0,-0.0658 -0.0327,-0.0996 -0.0977,-0.0996 h -1.68812 c -0.0661,0 -0.0978,0.0327 -0.0978,0.0996 v 8.3899 c 0,0.0658 0.0327,0.0977 0.0978,0.0977 h 1.68812 c 0.0661,0 0.0977,-0.0327 0.0977,-0.0977 v -4.99866 c 0,-0.55152 0.14535,-0.9694 0.43187,-1.25625 0.29797,-0.2976 0.67845,-0.44691 1.14172,-0.44691 0.44669,0 0.8194,0.14935 1.11726,0.44691 0.29796,0.29797 0.44691,0.71574 0.44691,1.25625 v 4.99866 c 0,0.0658 0.0291,0.0977 0.0901,0.0977 h 1.68623 c 0.0607,0 0.0919,-0.0327 0.0919,-0.0977 v -4.99866 c 0,-0.54604 0.14498,-0.96388 0.43753,-1.25625 0.29797,-0.2976 0.67835,-0.44691 1.14168,-0.44691 0.44669,0 0.81948,0.14935 1.1173,0.44691 0.29215,0.29252 0.43939,0.71021 0.43939,1.25625 v 4.99866 c 0,0.0658 0.0327,0.0977 0.0977,0.0977 h 1.69001 c 0.0661,0 0.0978,-0.0327 0.0978,-0.0977 v -5.57686 c 0,-0.98172 -0.31396,-1.7291 -0.94263,-2.24207 -0.63426,-0.50734 -1.28557,-0.76051 -1.9529,-0.76051 -1.09201,0 -1.97682,0.3492 -2.65516,1.04968 -0.13808,-0.14354 -0.28489,-0.2729 -0.43943,-0.3887 -0.15443,-0.12137 -0.31322,-0.23147 -0.47881,-0.33031 -0.36944,-0.22056 -0.85033,-0.3303 -1.44026,-0.33067 z" />
  </g>
</svg>
