<?xml version="1.0" encoding="UTF-8"?>
<!DOCTYPE svg PUBLIC "-//W3C//DTD SVG 1.1//EN" "http://www.w3.org/Graphics/SVG/1.1/DTD/svg11.dtd">
<!-- Creator: CorelDRAW -->
<svg xmlns="http://www.w3.org/2000/svg" xml:space="preserve" width="85.4998mm" height="52.9166mm" version="1.1" style="shape-rendering:geometricPrecision; text-rendering:geometricPrecision; image-rendering:optimizeQuality; fill-rule:evenodd; clip-rule:evenodd"
viewBox="0 0 8549.98 5291.66"
 xmlns:xlink="http://www.w3.org/1999/xlink"
 xmlns:xodm="http://www.corel.com/coreldraw/odm/2003">
 <defs>
  <style type="text/css">
   <![CDATA[
    .fil3 {fill:black}
    .fil0 {fill:#0A9646}
    .fil2 {fill:#FFD70F}
    .fil1 {fill:white}
    .fil9 {fill:#FEFEFE;fill-rule:nonzero}
    .fil8 {fill:#282829;fill-rule:nonzero}
    .fil7 {fill:black;fill-rule:nonzero}
    .fil6 {fill:#0046AA;fill-rule:nonzero}
    .fil5 {fill:#F00A0A;fill-rule:nonzero}
    .fil4 {fill:white;fill-rule:nonzero}
   ]]>
  </style>
 </defs>
 <g id="Layer_x0020_1">
  <metadata id="CorelCorpID_0Corel-Layer"/>
  <g id="_2404025848800">
   <polygon id="rect15575" class="fil0" points="-0,0 8549.98,0 8549.98,5291.66 -0,5291.66 "/>
   <path id="path15582" class="fil1" d="M212.48 35.08c-96.67,0 -175.56,78.88 -175.56,175.54l0 2330.84 0 329.87 0 343.32 0 97.21 0 1767.3c0,96.67 78.89,175.48 175.56,175.48l8124.9 0c96.67,0 175.56,-78.81 175.56,-175.48l-0.01 -1767.29 0 -94.68 0 -403.39 0 -272.33 0 -2330.85c0,-96.67 -78.89,-175.54 -175.56,-175.54l-8124.89 0zm0 66.16l8124.9 0c61.18,0 109.5,48.2 109.5,109.38l0 2330.84 0 272.33c0,2.1 -0.09,4.3 -0.26,6.56l0 50.45c0,60.82 -48.96,109.78 -109.78,109.78l-56.53 0.02c-1.31,0.05 -2.64,0.12 -3.91,0.12l-8010.22 0c-1.27,0 -2.6,-0.07 -3.92,-0.12l-49.69 0c-60.82,0 -109.78,-48.96 -109.78,-109.78l0 -2659.74c0,-11.61 1.8,-22.78 5.11,-33.27 0.1,-0.31 0.23,-0.61 0.33,-0.92 13.98,-44.26 54.89,-75.65 104.25,-75.65zm-0.5 2946.08l48.71 0 8019.9 0 56.83 0c60.49,0 109.2,48.7 109.2,109.19l0 53.15c0.17,2.61 0.26,5.14 0.26,7.53l0 94.68 0 1767.3c0,38.34 -18.98,71.56 -48.2,91.03 -17.45,11.8 -38.53,18.69 -61.27,18.69l-8125.43 0c-60.49,0 -109.19,-48.7 -109.19,-109.19l0 -1923.19c0,-60.49 48.7,-109.19 109.19,-109.19z"/>
   <polygon id="rect15605" class="fil2" points="546.64,1170.33 2157.78,1170.33 2157.78,1906.44 546.64,1906.43 "/>
   <path id="path15631" class="fil3" d="M601.21 1185.3c-21.46,0 -39.01,17.47 -39.01,38.93l0 628.29c0,21.46 17.55,38.93 39.01,38.93l1502.58 0c21.46,0 39.01,-17.47 39.01,-38.93l0 -628.29c0,-21.46 -17.55,-38.93 -39.01,-38.93l-1502.58 0zm0 14.16l1502.58 0c13.83,0 24.77,10.94 24.77,24.77l0 628.29c0,13.83 -10.94,24.69 -24.77,24.69l-1502.58 0c-13.83,0 -24.77,-10.86 -24.77,-24.69l0 -628.29c0,-13.83 10.94,-24.77 24.77,-24.77z"/>
   <path id="path17496" class="fil4" d="M7064.77 956.71l0 1339.17 937.56 0 0 -1339.17 -937.56 0zm36.56 43.92l863.94 0 0 1258.52 -863.94 0 0 -1258.52zm361.64 96.5l-59.13 234.68 103.77 -0.01 7.47 -234.68 -52.11 0.01zm88.73 0l7.47 234.68 103.81 -0.01 -59.18 -234.68 -52.1 0.01zm-420.94 264.38l0 51.39 81.15 29.32 0 15.47 37.33 -0.01 0 -15.47c0,0 55.21,-8.3 119.74,-14.16 51.67,-4.7 109.32,-7.2 149.33,-7.36 47.59,-0.17 117.95,2.48 178.32,7.63 66.49,5.67 120.95,13.89 120.95,13.89l0 15.47 36.57 0 0 -15.47 81.14 -29.32 0 -51.39 -804.53 0.01zm243.71 95.79l-177.39 705.94 265.89 0 36.89 -705.94 -125.39 0zm191.99 0l36.89 705.94 265.9 0 -177.39 -705.94 -125.4 0z"/>
   <path id="path815" class="fil5" d="M3654.68 4118.97c0,-445.87 -361.45,-807.33 -807.33,-807.33 -445.87,0 -807.32,361.46 -807.32,807.33 0,445.87 361.45,807.32 807.32,807.32 445.88,0 807.33,-361.45 807.33,-807.32z"/>
   <path id="circle817" class="fil4" d="M3455.89 4118.97c0,-336.09 -272.45,-608.54 -608.54,-608.54 -336.08,0 -608.54,272.45 -608.54,608.54 0,336.09 272.46,608.54 608.54,608.54 336.09,0 608.54,-272.45 608.54,-608.54z"/>
   <path id="circle817-6" class="fil6" d="M6520.17 4118.96c0,-445.87 -361.45,-807.32 -807.32,-807.32 -445.87,0 -807.32,361.45 -807.32,807.32 0,445.87 361.45,807.32 807.32,807.32 445.87,0 807.32,-361.45 807.32,-807.32z"/>
   <path class="fil4" d="M3201.76 984.05c-1.82,0 -2.94,-0.82 -3.36,-2.46l-144.13 -436.65c-0.41,-1.22 -0.31,-2.34 0.32,-3.36 0.6,-1.02 1.6,-1.53 3.01,-1.53l69.79 0c1.83,0 2.95,0.92 3.37,2.74l96.59 323.31c16.25,-54.02 32.45,-107.9 48.61,-161.64 16.16,-53.74 32.25,-107.63 48.29,-161.67 0.4,-1.82 1.52,-2.74 3.37,-2.74l69.76 0c1.43,0 2.45,0.51 3.05,1.53 0.6,1.02 0.7,2.14 0.31,3.36l-144.13 436.65c-0.41,1.64 -1.53,2.46 -3.36,2.46l-51.49 0zm204.73 -0.32c-1.43,0 -2.45,-0.5 -3.05,-1.52 -0.62,-1.02 -0.73,-2.14 -0.31,-3.36l159.69 -436.96c0.4,-1.62 1.4,-2.43 3.02,-2.43l54.57 0c0.6,0 1.26,0.26 1.98,0.77 0.71,0.48 1.16,1.04 1.35,1.66l159.38 436.96c0.42,1.22 0.31,2.34 -0.31,3.36 -0.6,1.02 -1.52,1.52 -2.74,1.52l-69.79 0c-1.62,0 -2.63,-0.8 -3.02,-2.42l-32.94 -96.32 -160.87 0c-5.68,16.46 -11.32,32.56 -16.92,48.3 -5.59,15.76 -11.23,31.77 -16.92,48.02 -0.21,0.6 -0.65,1.15 -1.35,1.66 -0.72,0.51 -1.39,0.76 -2.01,0.76l-69.76 0zm245.89 -164.23c-0.39,-1.43 -0.95,-2.96 -1.67,-4.58 -0.71,-1.62 -1.27,-3.04 -1.66,-4.26 -3.47,-9.96 -6.62,-19.16 -9.47,-27.6 -2.84,-8.41 -5.37,-15.77 -7.59,-22.08 -1.43,-4.07 -2.81,-8.04 -4.12,-11.9 -1.32,-3.86 -2.59,-7.51 -3.82,-10.95 -1.02,-3.26 -2.03,-6.36 -3.05,-9.29 -1.02,-2.94 -2.03,-5.84 -3.05,-8.71 -1.83,-5.87 -3.7,-11.75 -5.62,-17.64 -1.94,-5.9 -3.93,-12 -5.96,-18.31 -1.02,-2.84 -2.08,-5.99 -3.19,-9.43 -1.11,-3.47 -2.28,-7.13 -3.5,-10.99 -0.6,-2.01 -1.06,-3.58 -1.39,-4.72 -0.3,-1.11 -0.65,-2.21 -1.04,-3.32 -0.42,-1.14 -0.88,-2.41 -1.39,-3.82 -0.51,-1.43 -1.16,-3.47 -1.97,-6.1 -2.24,6.7 -4.32,12.9 -6.24,18.58 -1.94,5.69 -3.72,10.97 -5.34,15.85 -0.42,1.22 -0.72,2.34 -0.9,3.36 -0.21,1.02 -0.52,2.03 -0.94,3.05 -1.02,3.45 -2.08,6.69 -3.19,9.74 -1.11,3.05 -2.17,6.11 -3.19,9.16 -1.02,3.23 -2.03,6.38 -3.05,9.43 -1.02,3.05 -2.03,6 -3.05,8.84 -2.03,6.1 -4.11,12.5 -6.24,19.21 -2.15,6.7 -4.54,13.7 -7.18,21.01 -2.63,7.3 -5.37,15.17 -8.22,23.61 -2.84,8.43 -6.5,19.05 -10.99,31.86l117.02 0zm-40.22 -318.76c-0.39,0 -0.9,-0.15 -1.53,-0.45 -0.6,-0.3 -1,-0.56 -1.21,-0.77l-84.11 -88.96c-1.2,-1.23 -1.46,-2.54 -0.76,-3.95 0.71,-1.44 1.89,-2.15 3.53,-2.15l67.02 0c1.23,0 2.24,0.61 3.05,1.83l63.69 88.97c0.6,1.43 0.65,2.7 0.14,3.81 -0.51,1.11 -1.57,1.67 -3.19,1.67l-46.63 0zm226.05 483.31c-2.43,0 -3.64,-1.23 -3.64,-3.68l0 -436.64c0,-2.45 1.22,-3.68 3.64,-3.68l62.79 0c1.23,0 2.24,0.62 3.05,1.84l191.97 302.3 0 -300.46c0,-2.45 1.22,-3.68 3.64,-3.68l66.43 0c2.45,0 3.68,1.23 3.68,3.68l0 436.64c0,2.45 -1.23,3.68 -3.68,3.68l-62.44 0c-1.22,0 -2.24,-0.62 -3.05,-1.84l-192.6 -302.29 0 300.45c0,2.45 -1.12,3.68 -3.36,3.68l-66.43 0zm666.13 0c-2.43,0 -3.64,-1.23 -3.64,-3.68l0 -187.08 -166.07 0 0 187.08c0,2.45 -1.23,3.68 -3.68,3.68l-66.12 0c-2.45,0 -3.67,-1.23 -3.67,-3.68l0 -436.64c0,-2.45 1.22,-3.68 3.67,-3.68l66.12 0c2.45,0 3.68,1.23 3.68,3.68l0 183.44 166.07 0 0 -183.44c0,-2.45 1.21,-3.68 3.64,-3.68l66.12 0c2.45,0 3.67,1.23 3.67,3.68l0 436.64c0,2.45 -1.22,3.68 -3.67,3.68l-66.12 0zm314.12 0c-2.24,0 -3.37,-1.23 -3.37,-3.68l0 -187.71 -31.96 0c-2.24,0 -3.37,-1.1 -3.37,-3.32l0 -62.79c0,-2.43 1.12,-3.64 3.37,-3.64l31.96 0 0 -179.18c0,-2.45 1.12,-3.68 3.37,-3.68l152.96 0c60.74,0 106.15,25.09 136.22,75.27 5.48,9.76 9.95,19 13.42,27.74 3.44,8.74 5.68,17.27 6.69,25.59 2.43,16.25 3.64,47.43 3.64,93.54 0,24.8 -0.4,45.48 -1.21,62.03 -0.81,16.55 -2.02,28.99 -3.64,37.34 -1.64,8.53 -4.14,16.8 -7.49,24.82 -3.35,8.02 -7.56,15.99 -12.62,23.92l0 -0.31c-13.61,20.92 -31.9,38.5 -54.85,52.73 -23.78,14.22 -51.92,21.33 -84.42,21.33l-148.7 0zm70.1 -373.89l0 112.75 79.5 0c2.45,0 3.67,1.21 3.67,3.64l0 62.79c0,2.22 -1.22,3.32 -3.67,3.32l-79.5 0 0 121.91 75.55 0c34.95,0 60.95,-12.2 78.01,-36.58 7.12,-10.77 11.38,-22.04 12.79,-33.8 1.02,-6.52 1.78,-16.33 2.29,-29.44 0.51,-13.08 0.76,-29.78 0.76,-50.1 0,-19.72 -0.25,-36.17 -0.76,-49.37 -0.51,-13.2 -1.27,-23.66 -2.29,-31.38 -2.22,-14.42 -7.5,-27.33 -15.84,-38.72 -17.27,-23.35 -42.26,-35.02 -74.96,-35.02l-75.55 0zm280.28 373.57c-1.41,0 -2.43,-0.5 -3.05,-1.52 -0.6,-1.02 -0.7,-2.14 -0.28,-3.36l159.66 -436.96c0.41,-1.62 1.43,-2.43 3.05,-2.43l54.54 0c0.62,0 1.28,0.26 1.97,0.77 0.72,0.48 1.18,1.04 1.39,1.66l159.38 436.96c0.39,1.22 0.29,2.34 -0.31,3.36 -0.63,1.02 -1.54,1.52 -2.74,1.52l-69.79 0c-1.62,0 -2.64,-0.8 -3.05,-2.42l-32.91 -96.32 -160.9 0c-5.69,16.46 -11.33,32.56 -16.92,48.3 -5.57,15.76 -11.2,31.77 -16.89,48.02 -0.21,0.6 -0.67,1.15 -1.38,1.66 -0.72,0.51 -1.38,0.76 -1.98,0.76l-69.79 0zm245.92 -164.23c-0.42,-1.43 -0.97,-2.96 -1.67,-4.58 -0.71,-1.62 -1.28,-3.04 -1.7,-4.26 -3.44,-9.96 -6.58,-19.16 -9.43,-27.6 -2.84,-8.41 -5.38,-15.77 -7.62,-22.08 -1.41,-4.07 -2.78,-8.04 -4.1,-11.9 -1.34,-3.86 -2.61,-7.51 -3.81,-10.95 -1.02,-3.26 -2.03,-6.36 -3.05,-9.29 -1.02,-2.94 -2.03,-5.84 -3.05,-8.71 -1.83,-5.87 -3.71,-11.75 -5.65,-17.64 -1.92,-5.9 -3.9,-12 -5.93,-18.31 -1.02,-2.84 -2.08,-5.99 -3.19,-9.43 -1.13,-3.47 -2.3,-7.13 -3.5,-10.99 -0.63,-2.01 -1.09,-3.58 -1.39,-4.72 -0.3,-1.11 -0.66,-2.21 -1.07,-3.32 -0.4,-1.14 -0.85,-2.41 -1.36,-3.82 -0.51,-1.43 -1.16,-3.47 -1.97,-6.1 -2.24,6.7 -4.34,12.9 -6.28,18.58 -1.92,5.69 -3.68,10.97 -5.3,15.85 -0.42,1.22 -0.73,2.34 -0.94,3.36 -0.21,1.02 -0.51,2.03 -0.9,3.05 -1.02,3.45 -2.08,6.69 -3.19,9.74 -1.13,3.05 -2.21,6.11 -3.22,9.16 -1.02,3.23 -2.04,6.38 -3.06,9.43 -1.01,3.05 -2.03,6 -3.05,8.84 -2.01,6.1 -4.09,12.5 -6.24,19.21 -2.12,6.7 -4.5,13.7 -7.14,21.01 -2.66,7.3 -5.41,15.17 -8.25,23.61 -2.84,8.43 -6.5,19.05 -10.96,31.86l117.02 0zm184.9 164.55c-2.43,0 -3.65,-1.23 -3.65,-3.68l0 -436.64c0,-2.45 1.22,-3.68 3.65,-3.68l66.15 0c2.42,0 3.64,1.23 3.64,3.68l0 436.64c0,2.45 -1.22,3.68 -3.64,3.68l-66.15 0zm456.08 -99.72c4.16,-8.76 6.25,-19.11 6.25,-31.03 0,-12.23 -2.2,-22.79 -6.59,-31.7l10.95 -6.64c11.51,23.01 0.75,48.31 11.4,70.69 1.37,2.88 2.32,5.79 3.01,8.72 -8.83,-4.75 -17.24,-8.36 -25.02,-10.04z"/>
   <path class="fil4" d="M3331.08 1870.23c-2.42,0 -3.64,-1.23 -3.64,-3.68l0 -374.2 -116.11 0c-2.43,0 -3.64,-1.21 -3.64,-3.64l0 -58.8c0,-2.45 1.22,-3.67 3.64,-3.67l305.35 0c2.42,0 3.64,1.22 3.64,3.67l0 58.8c0,2.43 -1.22,3.64 -3.64,3.64l-115.8 0 0 374.2c0,2.45 -1.22,3.68 -3.64,3.68l-66.16 0zm307.08 -373.89l0 133.45 94.76 0c23.37,0 40.74,-7.01 52.11,-21.01 11.58,-13.62 17.37,-28.86 17.37,-45.73 0,-25.17 -8.94,-43.55 -26.8,-55.13 -11.58,-7.72 -26.62,-11.58 -45.11,-11.58l-92.33 0zm-69.79 373.89c-2.43,0 -3.64,-1.23 -3.64,-3.68l0 -436.64c0,-2.45 1.21,-3.67 3.64,-3.67l158.48 0c17.47,0 34.02,1.82 49.65,5.47 15.86,3.68 32.72,12.42 50.58,26.22 6.91,5.47 13.27,11.83 19.07,19.06 5.78,7.21 11,15.18 15.67,23.89 4.49,8.95 7.94,18.81 10.37,29.58 2.45,10.77 3.67,22.24 3.67,34.42 0,31.9 -11.99,62.38 -35.98,91.43 -23.97,28.85 -58.8,43.27 -104.5,43.27l-97.22 0 0 166.97c0,2.45 -1.21,3.68 -3.64,3.68l-66.15 0zm319.53 0c-2.45,0 -3.68,-1.23 -3.68,-3.68l0 -61.85c0,-2.43 1.23,-3.64 3.68,-3.64l62.16 0c2.22,0 3.33,1.21 3.33,3.64l0 61.85c0,2.45 -1.11,3.68 -3.33,3.68l-62.16 0zm497.38 0c-2.43,0 -3.64,-1.23 -3.64,-3.68l0 -187.08 -166.07 0 0 187.08c0,2.45 -1.22,3.68 -3.64,3.68l-66.15 0c-2.43,0 -3.64,-1.23 -3.64,-3.68l0 -436.64c0,-2.45 1.21,-3.67 3.64,-3.67l66.15 0c2.43,0 3.64,1.22 3.64,3.67l0 183.44 166.07 0 0 -183.44c0,-2.45 1.21,-3.67 3.64,-3.67l66.15 0c2.43,0 3.64,1.22 3.64,3.67l0 436.64c0,2.45 -1.21,3.68 -3.64,3.68l-66.15 0zm121.87 -0.31c-1.41,0 -2.42,-0.51 -3.02,-1.53 -0.62,-1.02 -0.73,-2.14 -0.31,-3.36l159.66 -436.96c0.41,-1.62 1.43,-2.42 3.05,-2.42l54.54 0c0.62,0 1.29,0.25 2.01,0.76 0.69,0.49 1.14,1.04 1.35,1.66l159.38 436.96c0.39,1.22 0.29,2.34 -0.31,3.36 -0.6,1.02 -1.52,1.53 -2.74,1.53l-69.79 0c-1.62,0 -2.64,-0.81 -3.05,-2.43l-32.91 -96.32 -160.9 0c-5.69,16.46 -11.32,32.56 -16.89,48.3 -5.59,15.76 -11.23,31.77 -16.92,48.02 -0.21,0.6 -0.67,1.16 -1.38,1.66 -0.7,0.51 -1.36,0.77 -1.98,0.77l-69.79 0zm245.92 -164.24c-0.39,-1.43 -0.95,-2.96 -1.67,-4.57 -0.71,-1.62 -1.27,-3.04 -1.66,-4.27 -3.47,-9.96 -6.62,-19.16 -9.47,-27.6 -2.84,-8.41 -5.38,-15.77 -7.62,-22.08 -1.41,-4.07 -2.78,-8.03 -4.1,-11.89 -1.31,-3.86 -2.58,-7.52 -3.81,-10.96 -1.02,-3.26 -2.03,-6.36 -3.05,-9.29 -1.02,-2.94 -2.03,-5.84 -3.05,-8.7 -1.83,-5.87 -3.71,-11.76 -5.65,-17.65 -1.92,-5.9 -3.9,-12 -5.93,-18.31 -1.02,-2.84 -2.08,-5.98 -3.19,-9.43 -1.13,-3.47 -2.3,-7.13 -3.5,-10.99 -0.63,-2.01 -1.09,-3.58 -1.39,-4.71 -0.3,-1.11 -0.66,-2.22 -1.07,-3.33 -0.4,-1.13 -0.85,-2.41 -1.36,-3.82 -0.51,-1.43 -1.16,-3.46 -1.97,-6.1 -2.24,6.7 -4.32,12.9 -6.24,18.59 -1.94,5.68 -3.72,10.96 -5.34,15.84 -0.42,1.22 -0.73,2.35 -0.94,3.36 -0.18,1.02 -0.48,2.04 -0.9,3.05 -1.02,3.45 -2.08,6.7 -3.19,9.75 -1.13,3.05 -2.21,6.1 -3.22,9.15 -1,3.24 -2,6.38 -3.02,9.43 -1.02,3.05 -2.03,6 -3.05,8.84 -2.03,6.1 -4.12,12.51 -6.24,19.21 -2.15,6.7 -4.54,13.7 -7.18,21.01 -2.63,7.3 -5.37,15.17 -8.22,23.61 -2.84,8.44 -6.5,19.06 -10.99,31.86l117.02 0zm-40.22 -318.76c-0.39,0 -0.9,-0.15 -1.53,-0.45 -0.6,-0.3 -1,-0.56 -1.21,-0.76l-84.11 -88.97c-1.23,-1.22 -1.48,-2.54 -0.76,-3.95 0.71,-1.43 1.88,-2.15 3.5,-2.15l67.05 0c1.23,0 2.24,0.61 3.05,1.84l63.69 88.96c0.6,1.43 0.65,2.71 0.14,3.82 -0.51,1.11 -1.57,1.66 -3.19,1.66l-46.63 0zm375.76 483.31c-2.45,0 -3.68,-1.23 -3.68,-3.68l0 -436.64c0,-2.45 1.23,-3.67 3.68,-3.67l62.75 0c1.23,0 2.25,0.61 3.05,1.83l191.98 302.3 0 -300.46c0,-2.45 1.22,-3.67 3.67,-3.67l66.43 0c2.43,0 3.64,1.22 3.64,3.67l0 436.64c0,2.45 -1.21,3.68 -3.64,3.68l-62.48 0c-1.22,0 -2.24,-0.61 -3.05,-1.84l-192.59 -302.29 0 300.45c0,2.45 -1.11,3.68 -3.33,3.68l-66.43 0zm463.79 -483.31c-1.83,0 -2.99,-0.76 -3.5,-2.29 -0.51,-1.52 -0.06,-2.78 1.35,-3.78l89.59 -71 40.84 0 90.8 71c1.41,1 1.86,2.26 1.36,3.78 -0.49,1.53 -1.55,2.29 -3.19,2.29l-51.49 0 -60.64 -32.59c-8.94,5.48 -17.98,10.97 -27.11,16.47 -9.15,5.48 -18.2,10.85 -27.15,16.12l-50.86 0zm-53.95 257.81c0,-26.6 0.36,-48.34 1.08,-65.21 0.69,-16.85 1.65,-29.14 2.87,-36.86 1.44,-7.72 3.47,-15.14 6.11,-22.26 2.63,-7.12 5.88,-14.13 9.74,-21.04l-0.31 0c10.56,-19.7 27.63,-37.98 51.2,-54.85 23.76,-17.06 53.33,-25.59 88.69,-25.59 34.93,0 64.28,8.53 88.07,25.59 23.97,17.29 41.23,35.57 51.79,54.85 7.51,13.82 12.59,28.25 15.22,43.3 1.44,7.72 2.51,20.01 3.23,36.86 0.69,16.87 1.04,38.61 1.04,65.21 0,52.21 -1.42,86.34 -4.27,102.38 -1.41,7.93 -3.38,15.44 -5.92,22.54 -2.55,7.12 -5.54,13.93 -8.98,20.42 -10.77,19.51 -28.15,37.79 -52.11,54.85 -23.97,16.87 -53.33,25.31 -88.07,25.31 -35.15,0 -64.72,-8.44 -88.69,-25.31 -23.57,-16.64 -40.64,-34.93 -51.2,-54.85l0.31 0c-3.86,-6.91 -7.11,-13.87 -9.74,-20.87 -2.64,-7 -4.67,-14.37 -6.11,-22.09 -1.22,-7.72 -2.18,-20.06 -2.87,-37.03 -0.72,-16.96 -1.08,-38.75 -1.08,-65.35zm73.43 0c0,22.14 0.3,40.38 0.91,54.71 0.62,14.31 1.74,24.92 3.36,31.83 1.62,6.29 3.9,12.54 6.86,18.76 2.94,6.19 6.24,11.62 9.92,16.29 6.49,8.53 15.13,15.79 25.9,21.77 10.75,5.99 23.75,8.98 39,8.98 15.03,0 27.92,-2.99 38.69,-8.98 10.77,-5.98 19.3,-13.24 25.59,-21.77 8.53,-10.38 14.12,-22.06 16.78,-35.05 3.24,-13.01 4.86,-41.86 4.86,-86.54 0,-22.14 -0.41,-40.38 -1.22,-54.71 -0.81,-14.31 -2.02,-24.81 -3.64,-31.52 -1.43,-6.51 -3.57,-12.87 -6.41,-19.06 -2.84,-6.2 -6.2,-11.73 -10.06,-16.61 -3.05,-3.86 -6.76,-7.62 -11.13,-11.27 -4.37,-3.65 -9.29,-6.85 -14.77,-9.6 -5.47,-2.73 -11.47,-4.96 -17.99,-6.69 -6.49,-1.74 -13.39,-2.6 -20.7,-2.6 -15.25,0 -28.25,3.05 -39,9.15 -10.77,6.08 -19.41,13.08 -25.9,21.01 -3.86,4.88 -7.21,10.41 -10.06,16.61 -2.86,6.19 -5.1,12.55 -6.72,19.06 -1.62,6.89 -2.74,17.55 -3.36,31.97 -0.6,14.42 -0.91,32.51 -0.91,54.26zm55.16 345.56c-2.24,0 -3.36,-1.12 -3.36,-3.36l0 -58.8c0,-2.24 1.12,-3.36 3.36,-3.36l59.12 0c2.03,0 3.05,1.12 3.05,3.36l0 58.8c0,2.24 -1.02,3.36 -3.05,3.36l-59.12 0zm267.8 -120.06c-2.43,0 -3.64,-1.23 -3.64,-3.68l0 -436.64c0,-2.45 1.21,-3.67 3.64,-3.67l66.12 0c2.45,0 3.67,1.22 3.67,3.67l0 436.64c0,2.45 -1.22,3.68 -3.67,3.68l-66.12 0z"/>
   <path class="fil4" d="M3246.23 2544.16c-1.89,0 -2.83,-0.95 -2.83,-2.83l0 -336.92c0,-1.89 0.94,-2.83 2.83,-2.83l215.37 0c1.89,0 2.83,0.94 2.83,2.83l0 48.42c0,1.88 -0.94,2.83 -2.83,2.83l-161.53 0 0 90.27 137.32 0c1.89,0 2.83,0.95 2.83,2.83l0 45.62c0,1.73 -0.94,2.59 -2.83,2.59l-137.32 0 0 93.58 161.53 0c1.89,0 2.83,0.94 2.83,2.81l0 47.97c0,1.89 -0.94,2.83 -2.83,2.83l-215.37 0zm434.39 0c-0.93,0 -1.72,-0.47 -2.35,-1.4l-71.47 -121.34c-11.92,20.37 -23.83,40.59 -35.74,60.67 -11.92,20.05 -23.84,40.28 -35.75,60.67 -0.61,0.93 -1.4,1.4 -2.35,1.4l-57.6 0c-1.25,0 -2.12,-0.43 -2.59,-1.3 -0.46,-0.86 -0.38,-1.84 0.23,-2.93l102.29 -171.4c-16.16,-27.29 -32.14,-54.41 -47.97,-81.36 -15.84,-26.97 -31.75,-54.09 -47.73,-81.36 -0.63,-1.09 -0.71,-2.07 -0.24,-2.94 0.48,-0.86 1.27,-1.29 2.36,-1.29l57.84 0c0.93,0 1.72,0.46 2.35,1.4l64.9 112.87c10.82,-18.82 21.63,-37.59 32.44,-56.3 10.81,-18.74 21.63,-37.59 32.44,-56.57 0.64,-0.94 1.42,-1.4 2.36,-1.4l57.83 0c1.11,0 1.9,0.43 2.36,1.29 0.47,0.87 0.39,1.85 -0.24,2.94l-95.7 162.72c17.25,28.68 34.34,57.25 51.28,85.7 16.93,28.45 34.01,57.01 51.25,85.7 0.63,1.09 0.71,2.07 0.23,2.93 -0.47,0.87 -1.34,1.3 -2.59,1.3l-57.84 0zm147.61 -288.5l0 102.97 73.14 0c18.02,0 31.43,-5.4 40.21,-16.22 8.93,-10.49 13.39,-22.25 13.39,-35.27 0,-19.43 -6.9,-33.61 -20.69,-42.54 -8.94,-5.96 -20.54,-8.94 -34.79,-8.94l-71.26 0zm-53.84 288.5c-1.89,0 -2.83,-0.95 -2.83,-2.83l0 -336.92c0,-1.89 0.94,-2.83 2.83,-2.83l122.27 0c13.47,0 26.25,1.41 38.33,4.23 12.23,2.82 25.24,9.56 39.03,20.21 5.33,4.24 10.22,9.14 14.68,14.71 4.48,5.56 8.52,11.71 12.12,18.45 3.44,6.89 6.11,14.49 7.99,22.8 1.89,8.31 2.83,17.17 2.83,26.57 0,24.62 -9.25,48.13 -27.75,70.53 -18.5,22.26 -45.39,33.4 -80.65,33.4l-75.01 0 0 128.85c0,1.89 -0.94,2.83 -2.83,2.83l-51.01 0zm334.7 -291.57l0 96.65 74.53 0c18.19,0 31.83,-5.02 40.93,-15.05 9.09,-10.04 13.63,-21.96 13.63,-35.75 0,-7.83 -1.37,-14.81 -4.1,-20.93 -2.75,-6.1 -6.71,-11.11 -11.88,-15.03 -4.55,-3.14 -9.84,-5.57 -15.88,-7.3 -6.03,-1.73 -12.57,-2.59 -19.63,-2.59l-77.6 0zm-53.84 291.57c-1.87,0 -2.81,-0.95 -2.81,-2.83l0 -336.92c0,-1.89 0.94,-2.83 2.81,-2.83l131.92 0c14.57,0 27.74,2 39.5,6 11.75,3.99 22.01,9.67 30.8,17.04 4.55,4.23 8.9,9.05 13.04,14.45 4.16,5.41 7.85,11.25 11.06,17.51 3.21,6.28 5.76,12.95 7.65,20.01 1.87,7.05 2.8,14.34 2.8,21.85 0,11.13 -1.57,21.68 -4.71,31.64 -3.12,9.95 -7.5,19.24 -13.15,27.86 -5.8,7.99 -12.54,15.01 -20.21,21.04 -7.69,6.03 -16.4,10.86 -26.12,14.47 12.7,24.29 25.48,48.7 38.34,73.24 12.84,24.52 25.61,48.93 38.31,73.24 0.48,1.09 0.48,2.07 0,2.93 -0.47,0.87 -1.26,1.3 -2.35,1.3l-60.64 0c-0.48,0 -0.96,-0.2 -1.43,-0.58 -0.46,-0.41 -0.85,-0.76 -1.17,-1.06l-68.89 -142.27 -60.91 0 0 141.08c0,1.89 -0.94,2.83 -2.81,2.83l-51.03 0zm289.19 0c-1.87,0 -2.81,-0.95 -2.81,-2.83l0 -336.92c0,-1.89 0.94,-2.83 2.81,-2.83l215.39 0c1.87,0 2.81,0.94 2.81,2.83l0 48.42c0,1.88 -0.94,2.83 -2.81,2.83l-161.55 0 0 90.27 137.32 0c1.89,0 2.83,0.95 2.83,2.83l0 45.62c0,1.73 -0.94,2.59 -2.83,2.59l-137.32 0 0 93.58 161.55 0c1.87,0 2.81,0.94 2.81,2.81l0 47.97c0,1.89 -0.94,2.83 -2.81,2.83l-215.39 0zm265.21 -86.52c0.48,-0.64 1.11,-0.95 1.88,-0.95 0.8,0 1.5,0.24 2.12,0.71 12.38,10.02 26.61,18.06 42.68,24.11 16.07,6.03 33.03,9.04 50.9,9.04 20.08,0 35.91,-4.15 47.5,-12.46 10.97,-8.01 16.45,-18.59 16.45,-31.75 0,-24.76 -13.87,-39.02 -41.62,-42.78l0.24 0c-3.91,-0.48 -7.64,-0.95 -11.16,-1.43 -3.53,-0.46 -7.06,-0.93 -10.59,-1.4 -3.53,-0.48 -7.13,-0.99 -10.82,-1.54 -3.67,-0.54 -7.7,-1.13 -12.09,-1.74 -14.75,-2.05 -27.88,-5.78 -39.4,-11.19 -11.52,-5.4 -21.19,-12.57 -29.02,-21.52 -7.85,-9.08 -13.73,-18.99 -17.65,-29.73 -3.91,-10.75 -5.87,-22.46 -5.87,-35.14 0,-29.79 9.88,-54.01 29.63,-72.66 19.9,-18.98 47.56,-28.47 83,-28.47 10.5,0 20.72,0.9 30.67,2.7 9.96,1.82 19.61,4.29 28.94,7.41 9.31,3.14 18.25,6.87 26.8,11.19 8.54,4.31 16.73,9.04 24.56,14.21 1.57,1.09 1.8,2.43 0.71,4l-28.44 42.09c-1.11,1.41 -2.37,1.65 -3.78,0.72 -12.23,-7.69 -25.24,-13.85 -39.03,-18.47 -13.79,-4.62 -28.06,-6.93 -42.78,-6.93 -7.53,0 -14.51,0.9 -20.93,2.7 -6.42,1.8 -12.23,4.73 -17.41,8.81 -10.18,7.37 -15.27,18.58 -15.27,33.62 0,8.63 3.45,17.02 10.35,25.17 3.44,3.75 8.06,6.93 13.86,9.52 5.8,2.59 12.94,4.52 21.41,5.77 4.53,0.78 9.86,1.6 15.98,2.46 6.12,0.86 13.33,1.76 21.64,2.7 32.12,3.92 55.94,15.75 71.46,35.51 15.52,19.28 23.29,40.75 23.29,64.42 0,31.66 -11.05,56.43 -33.16,74.3 -22.26,17.57 -51.57,26.35 -87.94,26.35 -51.26,0 -94.84,-15.68 -130.73,-47.04 -0.62,-0.46 -0.93,-1.09 -0.93,-1.88 0,-0.78 0.23,-1.48 0.69,-2.12l33.86 -38.31zm271.65 0c0.48,-0.64 1.1,-0.95 1.88,-0.95 0.79,0 1.5,0.24 2.12,0.71 12.38,10.02 26.61,18.06 42.67,24.11 16.07,6.03 33.04,9.04 50.91,9.04 20.07,0 35.9,-4.15 47.49,-12.46 10.97,-8.01 16.46,-18.59 16.46,-31.75 0,-24.76 -13.87,-39.02 -41.62,-42.78l0.24 0c-3.92,-0.48 -7.64,-0.95 -11.17,-1.43 -3.52,-0.46 -7.05,-0.93 -10.58,-1.4 -3.53,-0.48 -7.13,-0.99 -10.82,-1.54 -3.67,-0.54 -7.7,-1.13 -12.09,-1.74 -14.75,-2.05 -27.88,-5.78 -39.4,-11.19 -11.52,-5.4 -21.19,-12.57 -29.02,-21.52 -7.85,-9.08 -13.74,-18.99 -17.65,-29.73 -3.92,-10.75 -5.87,-22.46 -5.87,-35.14 0,-29.79 9.87,-54.01 29.63,-72.66 19.9,-18.98 47.56,-28.47 83,-28.47 10.49,0 20.72,0.9 30.66,2.7 9.97,1.82 19.62,4.29 28.95,7.41 9.31,3.14 18.25,6.87 26.8,11.19 8.54,4.31 16.72,9.04 24.55,14.21 1.57,1.09 1.81,2.43 0.72,4l-28.44 42.09c-1.11,1.41 -2.38,1.65 -3.79,0.72 -12.22,-7.69 -25.23,-13.85 -39.02,-18.47 -13.8,-4.62 -28.06,-6.93 -42.79,-6.93 -7.53,0 -14.5,0.9 -20.92,2.7 -6.42,1.8 -12.23,4.73 -17.41,8.81 -10.18,7.37 -15.27,18.58 -15.27,33.62 0,8.63 3.45,17.02 10.34,25.17 3.44,3.75 8.07,6.93 13.87,9.52 5.8,2.59 12.94,4.52 21.4,5.77 4.54,0.78 9.86,1.6 15.98,2.46 6.12,0.86 13.34,1.76 21.65,2.7 32.12,3.92 55.94,15.75 71.46,35.51 15.52,19.28 23.28,40.75 23.28,64.42 0,31.66 -11.05,56.43 -33.15,74.3 -22.26,17.57 -51.57,26.35 -87.95,26.35 -51.26,0 -94.83,-15.68 -130.73,-47.04 -0.61,-0.46 -0.92,-1.09 -0.92,-1.88 0,-0.78 0.23,-1.48 0.69,-2.12l33.86 -38.31zm324.2 86.52c-1.57,0 -2.52,-0.71 -2.83,-2.12l-84.41 -336.95c-0.32,-0.93 -0.16,-1.75 0.48,-2.46 0.62,-0.7 1.4,-1.05 2.35,-1.05l54.09 0c1.55,0 2.48,0.7 2.8,2.11l50.8 230.19c10.34,-38.56 20.76,-76.89 31.27,-114.99 10.5,-38.08 20.99,-76.48 31.49,-115.2 0.32,-1.41 1.26,-2.11 2.83,-2.11l36.91 0c1.41,0 2.27,0.7 2.59,2.11l63.03 230.19c8.46,-38.56 16.92,-76.89 25.37,-114.99 8.47,-38.08 16.93,-76.48 25.4,-115.2 0.32,-1.41 1.26,-2.11 2.83,-2.11l54.08 0c0.94,0 1.72,0.35 2.36,1.05 0.61,0.71 0.76,1.53 0.45,2.46l-84.41 336.95c-0.31,1.41 -1.25,2.12 -2.8,2.12l-42.57 0c-1.41,0 -2.28,-0.71 -2.6,-2.12l-62.3 -233.94c-10.34,39.33 -20.69,78.36 -31.04,117.08 -10.34,38.71 -20.68,77.67 -31.04,116.86 -0.31,1.41 -1.18,2.12 -2.59,2.12l-42.54 0zm299.64 -0.24c-1.1,0 -1.88,-0.39 -2.36,-1.16 -0.46,-0.8 -0.54,-1.66 -0.24,-2.6l123.22 -337.18c0.32,-1.25 1.1,-1.88 2.36,-1.88l42.09 0c0.46,0 0.96,0.19 1.51,0.58 0.55,0.41 0.9,0.84 1.06,1.3l122.98 337.18c0.31,0.94 0.23,1.8 -0.24,2.6 -0.46,0.77 -1.17,1.16 -2.12,1.16l-53.84 0c-1.25,0 -2.04,-0.63 -2.36,-1.88l-25.37 -74.29 -124.17 0c-4.39,12.7 -8.74,25.11 -13.04,37.25 -4.31,12.15 -8.66,24.5 -13.05,37.04 -0.16,0.48 -0.51,0.91 -1.06,1.3 -0.54,0.39 -1.05,0.58 -1.53,0.58l-53.84 0zm189.76 -126.74c-0.32,-1.09 -0.75,-2.26 -1.3,-3.51 -0.55,-1.26 -0.98,-2.36 -1.3,-3.31 -2.66,-7.67 -5.09,-14.77 -7.3,-21.27 -2.19,-6.51 -4.14,-12.19 -5.87,-17.04 -1.1,-3.14 -2.15,-6.2 -3.18,-9.18 -1,-2.98 -1.98,-5.81 -2.93,-8.47 -0.78,-2.51 -1.57,-4.9 -2.36,-7.17 -0.78,-2.28 -1.56,-4.51 -2.35,-6.69 -1.41,-4.55 -2.86,-9.1 -4.34,-13.63 -1.48,-4.55 -3.01,-9.26 -4.58,-14.13 -0.79,-2.19 -1.62,-4.61 -2.49,-7.28 -0.85,-2.66 -1.74,-5.48 -2.7,-8.46 -0.46,-1.57 -0.81,-2.79 -1.06,-3.65 -0.23,-0.87 -0.5,-1.73 -0.82,-2.6 -0.31,-0.84 -0.67,-1.82 -1.05,-2.93 -0.39,-1.1 -0.9,-2.66 -1.54,-4.69 -1.71,5.17 -3.31,9.95 -4.81,14.34 -1.48,4.39 -2.85,8.47 -4.1,12.23 -0.32,0.93 -0.56,1.8 -0.72,2.59 -0.16,0.78 -0.4,1.55 -0.71,2.33 -0.78,2.68 -1.6,5.19 -2.46,7.54 -0.87,2.35 -1.69,4.69 -2.46,7.04 -0.8,2.52 -1.58,4.95 -2.36,7.3 -0.79,2.35 -1.58,4.62 -2.35,6.83 -1.57,4.69 -3.18,9.62 -4.82,14.79 -1.64,5.18 -3.48,10.6 -5.53,16.24 -2.03,5.65 -4.14,11.71 -6.35,18.21 -2.19,6.51 -5.01,14.7 -8.47,24.57l90.31 0zm179.75 126.98c-1.73,0 -2.59,-0.95 -2.59,-2.83l0 -137.77c-16.93,-33.07 -33.79,-66.08 -50.56,-99.01 -16.78,-32.91 -33.54,-65.91 -50.3,-98.98 -0.47,-1.09 -0.47,-2.04 0,-2.83 0.46,-0.78 1.32,-1.16 2.57,-1.16l53.63 0c0.46,0 0.93,0.19 1.4,0.58 0.48,0.39 0.87,0.74 1.17,1.06l69.13 144.38c11.61,-24.31 23.09,-48.38 34.45,-72.21 11.36,-23.81 22.84,-47.87 34.45,-72.17 0.32,-0.32 0.7,-0.67 1.16,-1.06 0.48,-0.39 0.96,-0.58 1.43,-0.58l53.84 0c1.26,0 2.11,0.38 2.57,1.16 0.48,0.79 0.48,1.74 0,2.83l-101.1 197.99 0 137.77c0,1.89 -0.94,2.83 -2.83,2.83l-48.42 0z"/>
   <path class="fil7" d="M1002.99 1629.76c1.27,0 2.33,0.47 3.17,1.43 0.85,0.95 1.06,2.06 0.64,3.33 -8.89,43.23 -28.6,76.5 -59.11,99.8 -14.83,11.24 -30.94,19.71 -48.31,25.43 -17.38,5.71 -36.13,8.57 -56.25,8.57 -36.66,0 -67.48,-8.79 -92.48,-26.38 -24.59,-17.37 -42.38,-36.44 -53.39,-57.2 -3.81,-7.2 -7.1,-14.46 -9.87,-21.78 -2.75,-7.3 -4.87,-14.98 -6.35,-23.04 -2.75,-15.66 -4.13,-51.26 -4.13,-106.79 0,-27.74 0.32,-50.41 0.96,-68 0.63,-17.58 1.69,-30.4 3.17,-38.44 1.48,-8.06 3.6,-15.79 6.35,-23.2 2.77,-7.43 6.06,-14.74 9.87,-21.94 11.01,-20.55 28.81,-39.61 53.39,-57.2 24.79,-17.8 55.61,-26.7 92.48,-26.7 44.08,0 80.52,13.56 109.32,40.67 29.25,27.34 47.36,59.76 54.35,97.26 0.42,1.27 0.21,2.33 -0.64,3.18 -0.85,0.84 -1.9,1.27 -3.17,1.27l-72.79 0c-1.9,0 -3.07,-0.85 -3.49,-2.54 -2.75,-8.49 -6.67,-16.38 -11.75,-23.68 -5.08,-7.31 -11.33,-14.14 -18.76,-20.51 -13.99,-12.49 -31.68,-18.73 -53.07,-18.73 -15.9,0 -29.45,3.17 -40.67,9.52 -11.24,6.35 -20.24,13.66 -27.01,21.94 -4.04,5.08 -7.55,10.84 -10.51,17.3 -2.96,6.47 -5.29,13.1 -6.98,19.87 -1.7,7.21 -2.86,18.34 -3.5,33.36 -0.63,15.05 -0.95,33.91 -0.95,56.57 0,23.11 0.32,42.13 0.95,57.07 0.64,14.92 1.8,25.99 3.5,33.21 1.69,6.56 4.07,13.08 7.14,19.55 3.07,6.46 6.52,12.12 10.35,16.99 6.77,8.91 15.77,16.48 27.01,22.73 11.22,6.24 24.77,9.36 40.67,9.36 36.65,0 64.51,-20.02 83.58,-60.06 0.42,-0.42 0.95,-0.9 1.59,-1.43 0.63,-0.53 1.27,-0.79 1.9,-0.79l72.79 0zm133.06 134.75c-2.54,0 -3.81,-1.27 -3.81,-3.81l0 -390.29 -121.08 0c-2.54,0 -3.81,-1.27 -3.81,-3.81l0 -61.33c0,-2.54 1.27,-3.81 3.81,-3.81l318.46 0c2.54,0 3.81,1.27 3.81,3.81l0 61.33c0,2.54 -1.27,3.81 -3.81,3.81l-120.79 0 0 390.29c0,2.54 -1.27,3.81 -3.81,3.81l-68.97 0zm207.03 0c-2.54,0 -3.81,-1.27 -3.81,-3.81l0 -64.53c0,-2.54 1.27,-3.81 3.81,-3.81l64.83 0c2.34,0 3.51,1.27 3.51,3.81l0 64.53c0,2.54 -1.17,3.81 -3.51,3.81l-64.83 0z"/>
   <path class="fil7" d="M2403.59 4463.39c-3.51,0 -5.27,-1.75 -5.27,-5.26l0 -521.81c-13.48,9.95 -26.94,19.97 -40.4,30.08 -13.48,10.09 -26.95,19.97 -40.43,29.63 -2.05,1.47 -3.94,1.69 -5.69,0.66 -1.76,-1.02 -2.64,-2.7 -2.64,-5.05l0 -95.3c0,-0.58 0.22,-1.32 0.66,-2.2 0.44,-0.88 0.95,-1.61 1.53,-2.19l90.49 -65.46 91.81 0c3.51,0 5.26,1.75 5.26,5.26l0 626.38c0,3.51 -1.75,5.26 -5.26,5.26l-90.06 0zm451.06 -451.98c0,-28.4 -7.54,-50.58 -22.62,-66.55 -15.08,-15.96 -35.22,-23.94 -60.41,-23.94 -25.19,0 -45.25,7.98 -60.19,23.94 -14.92,15.96 -22.39,38.15 -22.39,66.55l0 265.74c0,28.7 7.47,50.96 22.39,66.78 14.94,15.81 35,23.71 60.19,23.71 25.19,0 45.32,-7.9 60.41,-23.71 15.08,-15.82 22.62,-38.08 22.62,-66.78l0 -265.74zm-265.75 -5.27c0,-59.14 18.59,-104.68 55.77,-136.6 36.9,-32.51 79.22,-48.77 126.95,-48.77 23.72,0 46.2,4.17 67.42,12.52 21.23,8.36 41.08,20.44 59.53,36.25 18.45,16.4 32.43,35.94 41.93,58.63 9.53,22.7 14.29,48.69 14.29,77.97l0 276.3c0,58.85 -18.74,104.38 -56.22,136.61 -36.9,32.21 -79.22,48.31 -126.95,48.31 -47.73,0 -90.05,-16.1 -126.95,-48.31 -37.18,-31.93 -55.77,-77.46 -55.77,-136.61l0 -276.3zm697.49 5.27c0,-28.4 -7.54,-50.58 -22.62,-66.55 -15.08,-15.96 -35.21,-23.94 -60.4,-23.94 -25.17,0 -45.23,7.98 -60.17,23.94 -14.94,15.96 -22.41,38.15 -22.41,66.55l0 265.74c0,28.7 7.47,50.96 22.41,66.78 14.94,15.81 35,23.71 60.17,23.71 25.19,0 45.32,-7.9 60.4,-23.71 15.08,-15.82 22.62,-38.08 22.62,-66.78l0 -265.74zm-265.74 -5.27c0,-59.14 18.6,-104.68 55.8,-136.6 36.88,-32.51 79.19,-48.77 126.92,-48.77 23.72,0 46.2,4.17 67.44,12.52 21.22,8.36 41.05,20.44 59.5,36.25 18.45,16.4 32.44,35.94 41.97,58.63 9.51,22.7 14.26,48.69 14.26,77.97l0 276.3c0,58.85 -18.74,104.38 -56.23,136.61 -36.9,32.21 -79.21,48.31 -126.94,48.31 -47.73,0 -90.04,-16.1 -126.92,-48.31 -37.2,-31.93 -55.8,-77.46 -55.8,-136.61l0 -276.3z"/>
   <path class="fil4" d="M5332.58 4006.59c0.3,-29.28 5.27,-55.42 14.92,-78.42 9.66,-22.99 23.28,-42.68 40.85,-59.08 16.7,-15.23 35.45,-27.01 56.22,-35.35 20.8,-8.34 42.62,-12.52 65.46,-12.52 41.58,0 79.21,12.45 112.9,37.34 31.63,25.19 52.26,61.49 61.91,108.92 0.6,1.77 0.31,3.23 -0.87,4.4 -1.16,1.18 -2.63,1.77 -4.39,1.77l-90.04 0c-2.35,0 -3.96,-1.03 -4.84,-3.1 -13.18,-32.21 -38.22,-48.75 -75.12,-49.63 -52.99,1.46 -79.48,31.92 -79.48,91.38l0 51.84c19.03,-5.58 37.99,-9.97 56.86,-13.18 18.89,-3.23 36.83,-4.69 53.82,-4.39 40.99,0 76.13,14.34 105.43,43.02 28.1,29.58 42.01,75.12 41.73,136.63l0 57.1c-0.88,60.02 -18.75,105.7 -53.61,137.03 -32.79,31.04 -74.22,47.29 -124.3,48.76 -48.61,-1.47 -89.17,-17.57 -121.68,-48.31 -36.88,-32.21 -55.47,-77.9 -55.77,-137.06l0 -277.15zm97.52 271.89c0.28,60.02 26.93,90.33 79.93,90.93 51.84,-0.3 78.79,-30.61 80.83,-90.93l0 -51.39c-2.34,-59.44 -29.29,-89.75 -80.83,-90.93 -53,1.46 -79.65,31.77 -79.93,90.93l0 51.39zm593.73 -267.07c0,-28.4 -7.54,-50.58 -22.63,-66.55 -15.08,-15.96 -35.21,-23.94 -60.4,-23.94 -25.19,0 -45.24,7.98 -60.17,23.94 -14.94,15.96 -22.41,38.15 -22.41,66.55l0 265.74c0,28.7 7.47,50.96 22.41,66.78 14.92,15.81 34.98,23.71 60.17,23.71 25.19,0 45.32,-7.9 60.4,-23.71 15.08,-15.82 22.63,-38.08 22.63,-66.78l0 -265.74zm-265.75 -5.27c0,-59.14 18.59,-104.68 55.77,-136.6 36.9,-32.51 79.22,-48.77 126.95,-48.77 23.72,0 46.2,4.17 67.42,12.52 21.23,8.36 41.08,20.44 59.53,36.25 18.45,16.4 32.43,35.94 41.93,58.63 9.53,22.7 14.29,48.69 14.29,77.97l0 276.3c0,58.85 -18.74,104.38 -56.22,136.61 -36.9,32.21 -79.22,48.31 -126.95,48.31 -47.73,0 -90.05,-16.1 -126.95,-48.31 -37.18,-31.93 -55.77,-77.46 -55.77,-136.61l0 -276.3z"/>
   <path class="fil8" d="M1570.22 1562.34c-2.49,0 -3.64,-1.33 -3.64,-3.89l0 -58.17c0,-2.67 1.15,-4 3.64,-4l21.29 0c19.62,0 35.19,-5.77 46.51,-17.54 11.21,-11.22 16.71,-26.09 16.71,-44.52 0,-17.32 -5.7,-32.2 -17.34,-44.64 -11.52,-12.32 -25.64,-18.43 -42.26,-18.43 -12.14,0 -23.77,4.44 -34.98,13.33 -11.11,8.66 -18.27,21.76 -21.28,39.3 -0.21,0.89 -0.63,1.67 -1.35,2.33 -0.73,0.67 -1.36,0.89 -1.97,0.89l-62.4 0c-1.04,0 -1.87,-0.33 -2.6,-1.22 -0.72,-0.89 -0.93,-1.89 -0.72,-3 2.07,-33.08 15.15,-62.51 39.55,-88.15 23.88,-25.1 51.71,-37.64 83.37,-37.64 19.62,0 37.38,3.55 53.37,10.66 15.88,7.21 29.89,17.65 42.15,31.53 11.53,13.65 20.34,28.53 26.58,44.41 6.13,15.99 9.24,32.42 9.24,49.29 0,18.43 -3.33,36.42 -9.97,53.96 -3.32,7.88 -7.79,15.21 -13.39,22.21 -5.71,6.88 -12.46,13.43 -20.14,19.43 16.3,12.43 28.34,27.31 36.23,44.63 8.1,18.65 12.15,37.64 12.15,56.95 0,43.97 -13.08,79.39 -39.25,106.37 -25.75,26.2 -57.72,39.3 -95.83,39.3 -15.16,0 -29.48,-2.55 -42.98,-7.77 -13.5,-5.22 -26.47,-12.99 -38.83,-23.43 -12.15,-10.66 -21.91,-23.43 -29.39,-38.41 -7.37,-14.99 -12.45,-32.53 -15.26,-52.74 -0.41,-2.78 0.73,-4.22 3.64,-4.22l61.98 0c1.46,0 2.6,0.89 3.43,2.67 2.59,7.54 5.71,14.43 9.24,20.42 3.53,6.11 7.78,11.44 12.66,15.88 4.78,4.44 10.49,7.77 16.83,10.21 6.43,2.34 13.8,3.56 22.32,3.56 16.09,0 30.42,-6.22 43.18,-18.54 12.67,-11.88 18.9,-28.98 18.9,-51.08 0,-22.09 -6.23,-39.08 -18.9,-51.07 -12.76,-12.54 -27.51,-18.87 -44.32,-18.87l-26.17 0zm279.5 -128.79c0,20.87 5.91,36.42 17.64,46.85 12.36,10.66 25.96,15.88 40.8,15.88 14.75,0 28.24,-5.22 40.39,-15.88 12.25,-10.66 18.27,-26.2 18.27,-46.85 0,-20.21 -6.02,-35.53 -18.27,-46.19 -11.52,-10.88 -25.02,-16.21 -40.39,-16.21 -15.05,0 -28.65,5.33 -40.8,16.21 -11.73,10.44 -17.64,25.76 -17.64,46.19zm-76.94 199.4c0,-22.32 4.16,-42.19 12.36,-59.51 8.2,-17.32 20.34,-32.31 36.34,-44.96 -12.37,-12.33 -22.33,-25.98 -29.81,-40.97 -7.57,-14.88 -11.31,-32.53 -11.31,-52.63 0,-38.41 12.25,-70.94 36.54,-97.59 24.92,-26.87 55.34,-40.3 91.26,-40.3 36.03,0 66.35,13.43 90.95,40.3 24.71,27.09 37.07,59.62 37.07,97.59 0,9.99 -1.03,19.32 -3.01,27.98 -2.07,8.66 -4.88,16.88 -8.52,24.54 -3.62,7.66 -7.99,14.99 -13.08,21.76 -5.09,6.88 -10.58,13.32 -16.4,19.32 32.39,24.98 48.59,59.84 48.59,104.47 0,20.76 -3.32,39.86 -10.18,57.29 -6.75,17.32 -16.82,32.64 -30.21,46.19 -13.19,12.54 -27.82,22.2 -43.81,29.08 -15.99,6.78 -33.12,10.22 -51.4,10.22 -37.16,0 -68.83,-13.1 -95.2,-39.3 -26.79,-26.98 -40.18,-61.4 -40.18,-103.48zm69.04 -0.67c0,10 1.77,19.21 5.3,27.65 3.63,8.44 8.4,15.88 14.53,22.09 13.5,13.22 29.07,19.88 46.51,19.88 17.44,0 32.92,-6.66 46.52,-19.88 6.54,-6.44 11.42,-13.87 14.95,-22.2 3.42,-8.44 5.09,-17.54 5.09,-27.54 0,-20.2 -6.65,-36.74 -20.04,-49.73 -13.19,-13.44 -28.66,-20.21 -46.52,-20.21 -17.44,0 -33.01,6.77 -46.51,20.21 -13.19,12.99 -19.83,29.53 -19.83,49.73z"/>
   <path class="fil9" d="M5869.85 922.01c-2.51,0 -3.66,-1.26 -3.66,-3.66l0 -59.77 146.31 -312.89c0.41,-0.42 0.94,-0.84 1.56,-1.36 0.63,-0.52 1.15,-0.73 1.78,-0.73l69.81 0c1.26,0 2.2,0.52 2.93,1.46 0.73,1.05 0.73,2.3 0.21,3.66l-145.15 307.13 104.39 0 0 -122.16c0,-2.2 1.25,-3.34 3.66,-3.34l62.49 0c2.41,0 3.66,1.14 3.66,3.34l0 122.16 31.56 0c2.2,0 3.34,1.26 3.34,3.66l0 58.84c0,2.4 -1.14,3.66 -3.34,3.66l-31.56 0 0 60.93c0,2.39 -1.25,3.66 -3.66,3.66l-62.49 0c-2.41,0 -3.66,-1.27 -3.66,-3.66l0 -60.93 -178.18 0z"/>
  </g>
 </g>
</svg>
