<?xml version="1.0" encoding="UTF-8" standalone="no"?>
<svg
   xmlns:dc="http://purl.org/dc/elements/1.1/"
   xmlns:cc="http://creativecommons.org/ns#"
   xmlns:rdf="http://www.w3.org/1999/02/22-rdf-syntax-ns#"
   xmlns:svg="http://www.w3.org/2000/svg"
   xmlns="http://www.w3.org/2000/svg"
   xmlns:sodipodi="http://sodipodi.sourceforge.net/DTD/sodipodi-0.dtd"
   xmlns:inkscape="http://www.inkscape.org/namespaces/inkscape"
   sodipodi:docname="Vietnam_road_sign_IE463c.svg"
   inkscape:version="1.0 (4035a4fb49, 2020-05-01)"
   id="svg9491"
   version="1.1"
   viewBox="0 0 264.56497 133.14284"
   height="133.14284mm"
   width="264.56497mm">
  <defs
     id="defs9485">
    <clipPath
       id="clipPath2832">
      <path
         inkscape:connector-curvature="0"
         id="path2834"
         d="M -0.24,595.138 H 317.24 V -0.138 H -0.24 Z" />
    </clipPath>
    <clipPath
       id="clipPath2840">
      <path
         inkscape:connector-curvature="0"
         id="path2842"
         d="M 0.03,595.32 H 317.49 V 0 H 0.03 Z" />
    </clipPath>
    <clipPath
       id="clipPath2858">
      <path
         inkscape:connector-curvature="0"
         id="path2860"
         d="M -0.24,595.138 H 317.24 V -0.138 H -0.24 Z" />
    </clipPath>
    <clipPath
       id="clipPath2864">
      <path
         inkscape:connector-curvature="0"
         id="path2866"
         d="M 0.03,595.32 H 317.49 V 0 H 0.03 Z" />
    </clipPath>
    <clipPath
       id="clipPath3306">
      <path
         inkscape:connector-curvature="0"
         id="path3308"
         d="m 199.238,472.977 v -29.74 h 29.744 v 29.74" />
    </clipPath>
    <clipPath
       id="clipPath3322">
      <path
         inkscape:connector-curvature="0"
         id="path3324"
         d="M -0.24,595.138 H 317.24 V -0.138 H -0.24 Z" />
    </clipPath>
    <clipPath
       id="clipPath3330">
      <path
         inkscape:connector-curvature="0"
         id="path3332"
         d="M 0.03,595.32 H 317.49 V 0 H 0.03 Z" />
    </clipPath>
    <clipPath
       id="clipPath3344">
      <path
         inkscape:connector-curvature="0"
         id="path3346"
         d="m 88.233,387.221 v -28.335 h 32.08 v 28.335" />
    </clipPath>
    <clipPath
       id="clipPath3462">
      <path
         inkscape:connector-curvature="0"
         id="path3464"
         d="M -0.24,595.138 H 317.24 V -0.138 H -0.24 Z" />
    </clipPath>
    <clipPath
       id="clipPath3470">
      <path
         inkscape:connector-curvature="0"
         id="path3472"
         d="M 0.03,595.32 H 317.49 V 0 H 0.03 Z" />
    </clipPath>
    <clipPath
       id="clipPath3490">
      <path
         inkscape:connector-curvature="0"
         id="path3492"
         d="M -0.24,595.138 H 317.24 V -0.138 H -0.24 Z" />
    </clipPath>
    <clipPath
       id="clipPath3496">
      <path
         inkscape:connector-curvature="0"
         id="path3498"
         d="M 0.03,595.32 H 317.49 V 0 H 0.03 Z" />
    </clipPath>
    <clipPath
       id="clipPath3520">
      <path
         inkscape:connector-curvature="0"
         id="path3522"
         d="m 254.788,326.215 v -28.309 h 28.326 v 28.309" />
    </clipPath>
    <clipPath
       id="clipPath3544">
      <path
         inkscape:connector-curvature="0"
         id="path3546"
         d="m 145.049,326.142 v -28.333 h 28.342 v 28.333" />
    </clipPath>
    <clipPath
       id="clipPath3682">
      <path
         inkscape:connector-curvature="0"
         id="path3684"
         d="M -0.24,595.138 H 317.24 V -0.138 H -0.24 Z" />
    </clipPath>
    <clipPath
       id="clipPath3690">
      <path
         inkscape:connector-curvature="0"
         id="path3692"
         d="M 0.03,595.32 H 317.49 V 0 H 0.03 Z" />
    </clipPath>
    <clipPath
       id="clipPath3980">
      <path
         inkscape:connector-curvature="0"
         id="path3982"
         d="M -0.24,595.138 H 317.24 V -0.138 H -0.24 Z" />
    </clipPath>
    <clipPath
       id="clipPath3988">
      <path
         inkscape:connector-curvature="0"
         id="path3990"
         d="M 0.03,595.32 H 317.49 V 0 H 0.03 Z" />
    </clipPath>
    <clipPath
       id="clipPath4010">
      <path
         inkscape:connector-curvature="0"
         id="path4012"
         d="M -0.24,595.138 H 317.24 V -0.138 H -0.24 Z" />
    </clipPath>
    <clipPath
       id="clipPath4016">
      <path
         inkscape:connector-curvature="0"
         id="path4018"
         d="M 0.03,595.32 H 317.49 V 0 H 0.03 Z" />
    </clipPath>
    <clipPath
       id="clipPath4062">
      <path
         inkscape:connector-curvature="0"
         id="path4064"
         d="m 200.163,177.773 v -28.284 h 28.283 v 28.284" />
    </clipPath>
    <clipPath
       id="clipPath4090">
      <path
         inkscape:connector-curvature="0"
         id="path4092"
         d="m 34.886,177.515 v -51.632 h 30.367 v 51.632" />
    </clipPath>
    <clipPath
       id="clipPath4106">
      <path
         inkscape:connector-curvature="0"
         id="path4108"
         d="m 34.886,177.515 v -51.632 h 30.367 v 51.632" />
    </clipPath>
    <clipPath
       id="clipPath4272">
      <path
         inkscape:connector-curvature="0"
         id="path4274"
         d="m 34.886,177.515 v -51.632 h 30.367 v 51.632" />
    </clipPath>
    <clipPath
       id="clipPath4304">
      <path
         inkscape:connector-curvature="0"
         id="path4306"
         d="m 254.653,176.442 v -48.167 h 28.317 v 48.167" />
    </clipPath>
    <clipPath
       id="clipPath4310">
      <path
         inkscape:connector-curvature="0"
         id="path4312"
         d="m 253.565,177.983 h 31.181 V 128.8 h -31.181 z" />
    </clipPath>
    <clipPath
       id="clipPath4316">
      <path
         inkscape:connector-curvature="0"
         id="path4318"
         d="M -0.24,595.138 H 317.24 V -0.138 H -0.24 Z" />
    </clipPath>
    <clipPath
       id="clipPath4322">
      <path
         inkscape:connector-curvature="0"
         id="path4324"
         d="M 0.03,595.32 H 317.49 V 0 H 0.03 Z" />
    </clipPath>
    <clipPath
       id="clipPath4456">
      <path
         inkscape:connector-curvature="0"
         id="path4458"
         d="M -0.24,595.138 H 317.24 V -0.138 H -0.24 Z" />
    </clipPath>
    <clipPath
       id="clipPath4464">
      <path
         inkscape:connector-curvature="0"
         id="path4466"
         d="M 0.03,595.32 H 317.49 V 0 H 0.03 Z" />
    </clipPath>
  </defs>
  <sodipodi:namedview
     inkscape:document-rotation="0"
     inkscape:measure-end="0,0"
     inkscape:measure-start="0,0"
     inkscape:window-maximized="1"
     inkscape:window-y="-9"
     inkscape:window-x="-9"
     inkscape:window-height="1001"
     inkscape:window-width="1920"
     showgrid="false"
     inkscape:current-layer="layer1"
     inkscape:document-units="mm"
     inkscape:cy="279.65977"
     inkscape:cx="503.94196"
     inkscape:zoom="0.95748903"
     inkscape:pageshadow="2"
     inkscape:pageopacity="0.0"
     borderopacity="1.0"
     bordercolor="#666666"
     pagecolor="#ffffff"
     id="base" />
  <metadata
     id="metadata9488">
    <rdf:RDF>
      <cc:Work
         rdf:about="">
        <dc:format>image/svg+xml</dc:format>
        <dc:type
           rdf:resource="http://purl.org/dc/dcmitype/StillImage" />
        <dc:title></dc:title>
      </cc:Work>
    </rdf:RDF>
  </metadata>
  <g
     transform="translate(-255.4467,-502.69599)"
     id="layer1"
     inkscape:groupmode="layer"
     inkscape:label="Layer 1">
    <g
       transform="matrix(1.6550836,0,0,1.6550836,-321.31659,-238.56049)"
       style="font-size:31.1478px;line-height:1.3;font-family:'Singapore Road Signs';-inkscape-font-specification:'Singapore Road Signs';text-align:center;text-anchor:middle;stroke-width:0.159861"
       id="text19759"
       aria-label="6" />
    <path
       sodipodi:nodetypes="cccccc"
       d="m 255.4467,502.69599 h 226.40749 l 38.15748,66.58519 -38.15748,66.55765 H 255.4467 Z"
       style="opacity:1;fill:#028f45;fill-opacity:1;fill-rule:evenodd;stroke-width:1.007;stroke-linecap:square;stroke-miterlimit:10;paint-order:stroke fill markers"
       id="rect4346" />
    <path
       d="m 473.95142,503.96547 c 3e-5,0.002 -9e-5,0.003 0,0.006 H 263.99848 c -4.02327,0 -7.31137,3.28504 -7.31137,7.30827 v 116.00674 c 0,4.02326 3.2881,7.3083 7.31137,7.3083 h 209.9621 0.79588 6.37795 l 37.75436,-65.31355 -37.75436,-65.31619 z m 0.80504,2.98349 h 4.806 l 36.05407,62.33273 -36.05407,62.33428 h -4.806 -0.79588 -209.9621 c -2.42397,0 -4.33088,-1.90539 -4.33088,-4.32934 V 511.27987 c 0,-2.42397 1.90691,-4.32937 4.33088,-4.32937 h 210.75798 z"
       style="color:#000000;font-style:normal;font-variant:normal;font-weight:normal;font-stretch:normal;font-size:medium;line-height:normal;font-family:sans-serif;font-variant-ligatures:normal;font-variant-position:normal;font-variant-caps:normal;font-variant-numeric:normal;font-variant-alternates:normal;font-variant-east-asian:normal;font-feature-settings:normal;font-variation-settings:normal;text-indent:0;text-align:start;text-decoration:none;text-decoration-line:none;text-decoration-style:solid;text-decoration-color:#000000;letter-spacing:normal;word-spacing:normal;text-transform:none;writing-mode:lr-tb;direction:ltr;text-orientation:mixed;dominant-baseline:auto;baseline-shift:baseline;text-anchor:start;white-space:normal;shape-padding:0;shape-margin:0;inline-size:0;clip-rule:nonzero;display:inline;overflow:visible;visibility:visible;opacity:1;isolation:auto;mix-blend-mode:normal;color-interpolation:sRGB;color-interpolation-filters:linearRGB;solid-color:#000000;solid-opacity:1;vector-effect:none;fill:#ffffff;fill-opacity:1;fill-rule:evenodd;stroke:none;stroke-width:1.008;stroke-linecap:square;stroke-linejoin:miter;stroke-miterlimit:10;stroke-dasharray:none;stroke-dashoffset:0;stroke-opacity:1;paint-order:stroke fill markers;color-rendering:auto;image-rendering:auto;shape-rendering:auto;text-rendering:auto;enable-background:accumulate;stop-color:#000000;stop-opacity:1"
       id="path4356"
       sodipodi:nodetypes="ccssssccccccccccccsssscc" />
    <path
       sodipodi:nodetypes="ccccccc"
       d="m 460.04314,512.46483 h 17.02011 l 32.81392,56.81635 -32.81392,56.83677 h -17.02011 l 32.79358,-56.83677 z"
       style="opacity:1;fill:#ffffff;fill-opacity:1;fill-rule:evenodd;stroke:none;stroke-width:1.008;stroke-linecap:square;stroke-miterlimit:10;stroke-dasharray:none;stroke-opacity:1;paint-order:stroke fill markers"
       id="rect4373" />
    <path
       d="m 318.81858,537.76083 c -0.0824,0 -0.13476,0.0419 -0.15529,0.12466 l -8.10668,22.18456 c -0.0208,0.0619 -0.0149,0.11751 0.0149,0.16898 0.0309,0.0515 0.083,0.0785 0.1553,0.0785 h 3.54217 c 0.0309,0 0.0628,-0.0119 0.0937,-0.0321 0.0414,-0.0309 0.0666,-0.0613 0.0768,-0.0922 0.28887,-0.82507 0.57171,-1.63497 0.85017,-2.42909 0.28888,-0.80445 0.57832,-1.62446 0.86708,-2.45982 h 8.16817 l 1.67114,4.88891 c 0.0208,0.0824 0.0711,0.12465 0.15381,0.12465 h 3.54372 c 0.0619,0 0.1074,-0.0268 0.13834,-0.0782 0.0309,-0.0518 0.036,-0.1074 0.0149,-0.16899 l -8.09133,-22.18459 c -0.009,-0.0309 -0.0357,-0.0562 -0.0768,-0.077 -0.0309,-0.0309 -0.0613,-0.0476 -0.0922,-0.0476 z m -43.22382,0.0324 c -0.12376,0 -0.18594,0.0607 -0.18594,0.18445 v 2.9856 c 0,0.12376 0.0622,0.18594 0.18594,0.18594 h 5.89438 v 18.99758 c 0,0.12377 0.0607,0.18594 0.18446,0.18594 h 3.35765 c 0.12377,0 0.18594,-0.0622 0.18594,-0.18594 v -18.99758 h 5.87746 c 0.12376,0 0.18594,-0.0622 0.18594,-0.18594 v -2.9856 c 0,-0.12376 -0.0622,-0.18445 -0.18594,-0.18445 z m 18.16124,0 c -0.12376,0 -0.18594,0.0607 -0.18594,0.18445 v 22.16921 c 0,0.12377 0.0622,0.18594 0.18594,0.18594 h 3.35766 c 0.12376,0 0.18594,-0.0622 0.18594,-0.18594 v -9.28277 h 4.00645 l 4.53223,9.35965 0.0768,0.0785 c 0.0309,0.0208 0.0628,0.0306 0.0937,0.0306 h 3.99108 c 0.0723,0 0.12435,-0.0268 0.15529,-0.0785 0.0309,-0.0619 0.0309,-0.12763 0,-0.19992 -0.83539,-1.59858 -1.67717,-3.20317 -2.52286,-4.81204 -0.84571,-1.61922 -1.68595,-3.22732 -2.52134,-4.82589 0.63942,-0.23712 1.21194,-0.55202 1.71728,-0.94395 0.50534,-0.40223 0.94826,-0.8669 1.32984,-1.39289 0.37129,-0.56722 0.66082,-1.17514 0.86711,-1.82489 0.20617,-0.66004 0.30901,-1.35706 0.30901,-2.08931 0,-0.49504 -0.0622,-0.97337 -0.18594,-1.43748 -0.12376,-0.46407 -0.29393,-0.90345 -0.51042,-1.316 -0.20617,-0.41252 -0.44873,-0.79315 -0.72719,-1.14382 -0.26805,-0.36096 -0.5511,-0.68086 -0.85018,-0.95933 -0.57754,-0.48472 -1.25279,-0.85678 -2.0263,-1.11459 -0.77348,-0.26806 -1.64055,-0.40128 -2.59974,-0.40128 z m 39.0621,0 c -0.12376,0 -0.18594,0.0607 -0.18594,0.18445 v 22.16921 c 0,0.12377 0.0622,0.18594 0.18594,0.18594 h 3.35766 c 0.12376,0 0.18445,-0.0622 0.18445,-0.18594 v -13.11858 l 4.36313,10.03918 c 0.0414,0.0619 0.0985,0.0937 0.17077,0.0937 h 2.79957 c 0.0723,0 0.12942,-0.0318 0.17077,-0.0937 0.71163,-1.67075 1.43394,-3.33606 2.16618,-4.99652 0.73228,-1.66045 1.4581,-3.33082 2.18005,-5.01189 v 13.08781 c 0,0.12377 0.0622,0.18594 0.18594,0.18594 h 3.35766 c 0.12376,0 0.18445,-0.0622 0.18445,-0.18594 v -22.16921 c 0,-0.12376 -0.0607,-0.18445 -0.18445,-0.18445 h -3.17163 c -0.0824,0 -0.13983,0.0354 -0.17077,0.1077 -1.01071,2.36176 -2.02103,4.70737 -3.03174,7.03819 -1.01071,2.32053 -2.01597,4.6626 -3.01636,7.02437 l -6.2034,-14.06256 c -0.0413,-0.0723 -0.0985,-0.1077 -0.17077,-0.1077 z m 31.60574,0 c -0.11335,0 -0.17077,0.0607 -0.17077,0.18445 v 22.16921 c 0,0.12377 0.0571,0.18594 0.17077,0.18594 h 3.37304 c 0.12376,0 0.18445,-0.0622 0.18445,-0.18594 v -6.68303 c 0.6291,-0.66007 1.23854,-1.29989 1.8264,-1.91869 0.58787,-0.61878 1.20085,-1.25859 1.84027,-1.91867 l 5.9405,10.61265 c 0.0413,0.0619 0.0934,0.0937 0.1553,0.0937 h 3.99107 c 0.0824,0 0.13298,-0.0268 0.15381,-0.0782 0.0309,-0.0619 0.0309,-0.12763 0,-0.19992 -1.32014,-2.23801 -2.62351,-4.45557 -3.91268,-6.65231 -1.27885,-2.19674 -2.57365,-4.4143 -3.88347,-6.6523 l 7.02282,-8.64784 c 0.0515,-0.0619 0.0616,-0.12912 0.0306,-0.20141 -0.0309,-0.0723 -0.0866,-0.1077 -0.16898,-0.1077 h -3.99107 c -0.0414,0 -0.0884,0.0268 -0.13983,0.0768 -1.48511,1.86671 -2.96519,3.72233 -4.43998,5.56844 -1.47481,1.83577 -2.94981,3.68788 -4.42462,5.5546 v -11.01544 c 0,-0.12376 -0.0607,-0.18445 -0.18446,-0.18445 z m 17.66619,0 c -0.12376,0 -0.18445,0.0607 -0.18445,0.18445 v 2.9856 c 0,0.12376 0.0607,0.18594 0.18445,0.18594 h 5.89435 v 18.99758 c 0,0.12377 0.0622,0.18594 0.18594,0.18594 h 3.35615 c 0.12376,0 0.18593,-0.0622 0.18593,-0.18594 v -18.99758 h 5.87898 c 0.12376,0 0.18594,-0.0622 0.18594,-0.18594 v -2.9856 c 0,-0.12376 -0.0622,-0.18445 -0.18594,-0.18445 z m 16.94362,0 c -0.12376,0 -0.18446,0.0607 -0.18446,0.18445 v 2.9856 c 0,0.12376 0.0607,0.18594 0.18446,0.18594 h 5.89435 v 18.99758 c 0,0.12377 0.0622,0.18594 0.18594,0.18594 h 3.35614 c 0.12376,0 0.18594,-0.0622 0.18594,-0.18594 v -18.99758 h 5.87897 c 0.12377,0 0.18594,-0.0622 0.18594,-0.18594 v -2.9856 c 0,-0.12376 -0.0622,-0.18445 -0.18594,-0.18445 z m 16.86519,0 c -0.12376,0 -0.18594,0.0607 -0.18594,0.18445 v 2.9856 c 0,0.12376 0.0622,0.18594 0.18594,0.18594 h 5.89438 v 18.99758 c 0,0.12377 0.0607,0.18594 0.18446,0.18594 h 3.35765 c 0.12377,0 0.18594,-0.0622 0.18594,-0.18594 v -18.99758 h 5.87901 c 0.12376,0 0.18445,-0.0622 0.18445,-0.18594 v -2.9856 c 0,-0.12376 -0.0607,-0.18445 -0.18445,-0.18445 z m -118.59915,3.35611 h 5.10415 c 0.46411,0 0.89183,0.0571 1.28373,0.17077 0.40222,0.11335 0.75402,0.2734 1.0531,0.47963 0.34035,0.25794 0.59799,0.58787 0.77331,0.9901 0.18564,0.40222 0.27816,0.86029 0.27816,1.37595 0,0.9076 -0.29964,1.69217 -0.89784,2.35225 -0.59816,0.66004 -1.49561,0.99006 -2.69196,0.99006 h -4.90274 z m 22.94099,2.01092 c 0.0411,0.13417 0.0732,0.2383 0.0937,0.31056 0.0309,0.0723 0.0562,0.13804 0.0768,0.19993 0.0208,0.0515 0.0357,0.10888 0.0461,0.17076 0.0208,0.0515 0.0473,0.12912 0.0782,0.23206 0.0619,0.19605 0.11751,0.38122 0.16898,0.55654 0.0619,0.17523 0.119,0.33528 0.17077,0.47966 0.10323,0.31973 0.20081,0.62949 0.29363,0.92857 0.10324,0.29911 0.20082,0.59876 0.29364,0.89787 0.0515,0.14429 0.10383,0.29274 0.1553,0.44735 0.0515,0.14429 0.10383,0.29929 0.15529,0.46432 0.0619,0.17523 0.12258,0.36057 0.18446,0.55654 0.0723,0.19605 0.14458,0.39791 0.21688,0.60417 0.11335,0.31973 0.24306,0.69529 0.38741,1.12846 0.14429,0.42284 0.30434,0.88751 0.47966,1.39288 0.0208,0.0619 0.0458,0.13418 0.0768,0.21688 0.041,0.0824 0.0717,0.16006 0.0922,0.23206 h -5.94037 c 0.22699,-0.64972 0.41371,-1.18681 0.55808,-1.60965 0.14429,-0.43316 0.28263,-0.83402 0.41663,-1.2053 0.13417,-0.37129 0.25347,-0.72815 0.35668,-1.06849 l 0.32439,-0.97471 c 0.0515,-0.14429 0.10383,-0.29423 0.1553,-0.44893 0.0515,-0.15471 0.10204,-0.31313 0.15381,-0.47812 l 0.1553,-0.46432 c 0.0619,-0.1547 0.119,-0.31969 0.17076,-0.49501 0.0208,-0.0515 0.0357,-0.10383 0.0461,-0.1553 0.0119,-0.0515 0.0268,-0.10889 0.0461,-0.17077 0.0824,-0.24752 0.17017,-0.51527 0.26299,-0.80403 0.10324,-0.28888 0.21093,-0.60364 0.3244,-0.94398 z m -1.23761,19.77856 c -0.13448,0 -0.24306,0.10829 -0.24306,0.24276 v 2.91337 c 0,0.13447 0.10829,0.24276 0.24306,0.24276 h 2.93181 c 0.13447,0 0.24306,-0.10829 0.24306,-0.24276 v -2.91337 c 0,-0.13447 -0.10829,-0.24276 -0.24306,-0.24276 z"
       style="font-style:normal;font-variant:normal;font-weight:normal;font-stretch:normal;font-size:30.1876px;line-height:1.3;font-family:'Alte DIN 1451 Mittelschrift gepraegt';-inkscape-font-specification:'Alte DIN 1451 Mittelschrift gepraegt';text-align:center;text-anchor:middle;opacity:1;fill:#ffffff;stroke-width:0.264583"
       id="path6506" />
    <path
       d="m 322.90804,580.66332 c -1.37381,0 -2.52304,0.33303 -3.44682,0.99625 -0.91589,0.65532 -1.57882,1.36495 -1.98938,2.13082 h 0.0119 c -0.14994,0.26834 -0.27697,0.54154 -0.37973,0.81789 -0.10264,0.27638 -0.18148,0.56398 -0.23681,0.86401 -0.0473,0.30004 -0.0869,0.77753 -0.11841,1.43287 -0.0238,0.65531 -0.0354,1.50082 -0.0354,2.53515 0,1.0343 0.0119,1.88269 0.0354,2.54592 0.0315,0.65534 0.0711,1.13283 0.11841,1.43287 0.0553,0.3 0.13417,0.58766 0.23681,0.86401 0.10264,0.26835 0.22967,0.53714 0.37973,0.80558 h -0.0119 c 0.41056,0.77378 1.07349,1.48493 1.98938,2.13239 0.93167,0.65531 2.08092,0.98238 3.44682,0.98238 1.71333,0 3.17797,-0.59578 4.3939,-1.78799 1.2001,-1.17642 1.80028,-2.63666 1.80028,-4.38158 v -3.45914 c 0,-0.0869 -0.0482,-0.12911 -0.1431,-0.12911 h -6.02811 c -0.0949,0 -0.14131,0.0422 -0.14131,0.12911 v 2.43986 c 0,0.0946 0.0467,0.1431 0.14131,0.1431 h 3.31616 v 0.73332 c 0,1.0343 -0.32268,1.87103 -0.97011,2.51057 -0.63954,0.63955 -1.42956,0.95933 -2.36914,0.95933 -0.59215,0 -1.0974,-0.11394 -1.51587,-0.34284 -0.41844,-0.23681 -0.75432,-0.52164 -1.00699,-0.85324 -0.14221,-0.18148 -0.27222,-0.39039 -0.39047,-0.62726 -0.11038,-0.24484 -0.19814,-0.49014 -0.26151,-0.73489 -0.0631,-0.26835 -0.10532,-0.67876 -0.12912,-1.23146 -0.0238,-0.56056 -0.0369,-1.27019 -0.0369,-2.13081 0,-0.84482 0.0119,-1.54875 0.0369,-2.1093 0.0238,-0.56059 0.0661,-0.97376 0.12912,-1.24223 0.0631,-0.25258 0.15084,-0.49799 0.26151,-0.73486 0.11067,-0.24485 0.24038,-0.46236 0.39047,-0.65187 0.25258,-0.30791 0.58855,-0.57947 1.00699,-0.81635 0.41847,-0.23681 0.92372,-0.35513 1.51587,-0.35513 0.79746,0 1.45599,0.23206 1.97709,0.69798 0.27639,0.23681 0.51002,0.49388 0.69953,0.77024 0.18951,0.26834 0.33552,0.56049 0.43816,0.87632 0.0149,0.0631 0.0595,0.0952 0.1306,0.0952 h 2.71196 c 0.0473,0 0.0869,-0.0149 0.11841,-0.0476 0.0315,-0.0315 0.039,-0.0711 0.0238,-0.1184 -0.26062,-1.40541 -0.93518,-2.61456 -2.02476,-3.62521 -1.07378,-1.01062 -2.43182,-1.51584 -4.0741,-1.51584 z m 35.80283,0 c -1.78437,0 -3.17898,0.47904 -4.18171,1.43439 -0.99483,0.93957 -1.49127,2.15886 -1.49127,3.659 0,0.63954 0.0979,1.23244 0.29512,1.77723 0.19725,0.5369 0.49383,1.03335 0.88862,1.49126 0.39479,0.45007 0.87954,0.81368 1.45592,1.09003 0.58427,0.26835 1.24874,0.4539 1.99093,0.55654 0.22104,0.0315 0.42105,0.0637 0.60265,0.0952 0.18951,0.0238 0.37206,0.047 0.54577,0.0708 0.18148,0.0238 0.35977,0.047 0.53349,0.0708 0.18147,0.0238 0.36988,0.047 0.56728,0.0708 h -0.0119 c 1.39749,0.18951 2.09546,0.90792 2.09546,2.15541 0,0.66323 -0.27608,1.19623 -0.82863,1.59888 -0.58427,0.41847 -1.38158,0.6288 -2.3922,0.6288 -0.9001,0 -1.7573,-0.15054 -2.57052,-0.45045 -0.80535,-0.30792 -1.51939,-0.71538 -2.14313,-1.22069 -0.0315,-0.0238 -0.0681,-0.0354 -0.1077,-0.0354 -0.0396,0 -0.0702,0.0149 -0.0937,0.0476 l -1.70497,1.93098 c -0.0238,0.0315 -0.0369,0.0666 -0.0369,0.10621 0,0.0396 0.0149,0.0717 0.0476,0.0952 1.80808,1.57912 4.00283,2.36759 6.58466,2.36759 1.83176,0 3.30806,-0.44093 4.42923,-1.32523 1.11326,-0.9001 1.67114,-2.14866 1.67114,-3.74355 0,-1.19221 -0.39137,-2.2743 -1.17303,-3.24544 -0.78166,-0.99482 -1.982,-1.5906 -3.60057,-1.788 -0.41847,-0.0473 -0.78208,-0.0895 -1.09002,-0.12911 -0.30792,-0.0473 -0.57508,-0.0913 -0.80406,-0.13061 -0.42633,-0.0631 -0.78556,-0.15797 -1.07771,-0.28441 -0.29215,-0.13417 -0.52581,-0.29631 -0.69949,-0.48582 -0.34743,-0.41056 -0.5212,-0.83257 -0.5212,-1.2668 0,-0.75798 0.25704,-1.32312 0.77024,-1.69423 0.26061,-0.20528 0.55261,-0.35129 0.87632,-0.43813 0.32372,-0.0946 0.67412,-0.14161 1.05311,-0.14161 0.74218,0 1.46062,0.1184 2.15541,0.35513 0.69482,0.22907 1.35049,0.53711 1.96635,0.92398 0.0711,0.0473 0.13537,0.0357 0.1907,-0.0354 l 1.43284,-2.12007 c 0.0553,-0.0788 0.0437,-0.14608 -0.0354,-0.20141 -0.39479,-0.26062 -0.80951,-0.4971 -1.24374,-0.71029 -0.42636,-0.22105 -0.87764,-0.41091 -1.35139,-0.56883 -0.46583,-0.15797 -0.95058,-0.28055 -1.45589,-0.36745 -0.49743,-0.0949 -1.00994,-0.1431 -1.53896,-0.1431 z m 56.17021,0 c -1.37381,0 -2.52304,0.33303 -3.44682,0.99625 -0.91589,0.65532 -1.57882,1.36495 -1.98941,2.13082 h 0.0119 c -0.14994,0.26834 -0.27697,0.54154 -0.37973,0.81789 -0.10264,0.27638 -0.18148,0.56398 -0.23681,0.86401 -0.0473,0.30004 -0.0869,0.77753 -0.11841,1.43287 -0.0238,0.65531 -0.0354,1.50082 -0.0354,2.53515 0,1.0343 0.0119,1.88269 0.0354,2.54592 0.0315,0.65534 0.0711,1.13283 0.11841,1.43287 0.0553,0.3 0.13417,0.58766 0.23681,0.86401 0.10264,0.26835 0.22967,0.53714 0.37973,0.80558 h -0.0119 c 0.41059,0.77378 1.07352,1.48493 1.98941,2.13239 0.93166,0.65531 2.08089,0.98238 3.44682,0.98238 1.35013,0 2.49058,-0.32707 3.42225,-0.98238 0.93166,-0.66323 1.60783,-1.37441 2.02626,-2.13239 0.13418,-0.25258 0.24812,-0.51694 0.34285,-0.7933 0.10264,-0.27638 0.18148,-0.56838 0.23681,-0.87629 0.11038,-0.62375 0.16601,-1.94964 0.16601,-3.97879 0,-1.03433 -0.0149,-1.87984 -0.0476,-2.53515 -0.0238,-0.65534 -0.0631,-1.13283 -0.11841,-1.43287 -0.10264,-0.58426 -0.29976,-1.145 -0.59188,-1.6819 -0.41056,-0.75007 -1.08232,-1.45971 -2.01398,-2.13082 -0.92378,-0.66322 -2.06423,-0.99625 -3.42225,-0.99625 z m -32.52508,0.11841 c -0.0631,0 -0.10264,0.0321 -0.11841,0.0952 l -6.20495,16.9836 c -0.0149,0.0473 -0.0119,0.0913 0.0119,0.13061 0.0238,0.0396 0.0631,0.0583 0.11841,0.0583 h 2.7135 c 0.0238,0 0.047,-0.006 0.0708,-0.0238 0.0315,-0.0238 0.0506,-0.047 0.0583,-0.0708 0.22105,-0.63166 0.43867,-1.25228 0.65186,-1.86026 0.22105,-0.61583 0.44156,-1.24378 0.66263,-1.88332 h 6.2541 l 1.27911,3.74358 c 0.0149,0.0631 0.0553,0.0937 0.11841,0.0937 h 2.71196 c 0.0473,0 0.0824,-0.0178 0.10621,-0.0583 0.0238,-0.0396 0.0268,-0.0833 0.0119,-0.1306 l -6.19415,-16.98357 c -0.009,-0.0238 -0.0297,-0.0426 -0.0601,-0.0583 -0.0238,-0.0238 -0.047,-0.0369 -0.0708,-0.0369 z m -106.37074,0.0238 c -0.0473,0 -0.0869,0.0179 -0.1184,0.0583 -0.0315,0.0315 -0.0405,0.0711 -0.0238,0.11841 l 4.25243,16.97283 c 0.0149,0.0711 0.0625,0.10621 0.14131,0.10621 h 2.14468 c 0.0711,0 0.11335,-0.0351 0.12911,-0.10621 0.52111,-1.97388 1.04243,-3.93648 1.56353,-5.88668 0.52111,-1.9502 1.04243,-3.91569 1.56354,-5.89745 l 3.13935,11.78413 c 0.0149,0.0711 0.058,0.10621 0.12911,0.10621 h 2.14465 c 0.0788,0 0.12554,-0.0351 0.14131,-0.10621 l 4.25243,-16.97283 c 0.0149,-0.0473 0.006,-0.0869 -0.0238,-0.11841 -0.0315,-0.0396 -0.0711,-0.0583 -0.1184,-0.0583 h -2.72425 c -0.0788,0 -0.12554,0.0351 -0.14131,0.10621 -0.42635,1.95017 -0.85277,3.88504 -1.27912,5.80364 -0.42635,1.91861 -0.85276,3.84908 -1.27912,5.79136 l -3.17469,-11.595 c -0.0149,-0.0711 -0.058,-0.10621 -0.12912,-0.10621 h -1.86026 c -0.0788,0 -0.12554,0.0351 -0.14131,0.10621 -0.52899,1.95017 -1.0576,3.88504 -1.58659,5.80364 -0.52899,1.91861 -1.05474,3.84908 -1.57582,5.79136 l -2.55823,-11.595 c -0.0149,-0.0711 -0.0625,-0.10621 -0.14132,-0.10621 z m 21.68494,0 c -0.0946,0 -0.1431,0.0467 -0.1431,0.14131 v 16.97129 c 0,0.0949 0.0482,0.1431 0.1431,0.1431 h 10.84785 c 0.0949,0 0.1431,-0.0482 0.1431,-0.1431 v -2.41523 c 0,-0.0949 -0.0482,-0.1431 -0.1431,-0.1431 h -8.1359 v -4.71365 h 6.91676 c 0.0946,0 0.14131,-0.0422 0.14131,-0.12911 v -2.2984 c 0,-0.0946 -0.0467,-0.14161 -0.14131,-0.14161 h -6.91676 v -4.54759 h 8.1359 c 0.0949,0 0.1431,-0.0482 0.1431,-0.14309 v -2.4398 c 0,-0.0949 -0.0482,-0.14162 -0.1431,-0.14162 z m 13.46603,0 c -0.0946,0 -0.1431,0.0467 -0.1431,0.14131 v 16.97129 c 0,0.0949 0.0482,0.1431 0.1431,0.1431 h 2.56898 c 0.0949,0 0.1431,-0.0482 0.1431,-0.1431 V 580.9469 c 0,-0.0949 -0.0482,-0.14161 -0.1431,-0.14161 z m 21.06845,0 c -0.0949,0 -0.14131,0.0467 -0.14131,0.14131 v 16.97129 c 0,0.0949 0.0467,0.1431 0.14131,0.1431 h 2.57052 c 0.0946,0 0.14132,-0.0482 0.14132,-0.1431 v -7.27186 h 6.4555 v 7.27186 c 0,0.0949 0.0467,0.1431 0.14132,0.1431 h 2.57052 c 0.0949,0 0.14131,-0.0482 0.14131,-0.1431 V 580.9469 c 0,-0.0949 -0.0467,-0.14161 -0.14131,-0.14161 h -2.57052 c -0.0949,0 -0.14132,0.0467 -0.14132,0.14161 v 7.13043 h -6.4555 v -7.13043 c 0,-0.0949 -0.0467,-0.14161 -0.14132,-0.14161 z m 33.96717,0 c -0.0946,0 -0.14131,0.0467 -0.14131,0.14131 v 2.28611 c 0,0.0946 0.0467,0.1431 0.14131,0.1431 h 4.51224 v 14.5422 c 0,0.0949 0.0482,0.1431 0.1431,0.1431 h 2.57052 c 0.0946,0 0.14132,-0.0482 0.14132,-0.1431 v -14.5422 h 4.49995 c 0.0946,0 0.1431,-0.0482 0.1431,-0.1431 v -2.28605 c 0,-0.0949 -0.0482,-0.14161 -0.1431,-0.14161 z m 22.83184,0 c -0.0949,0 -0.14131,0.0467 -0.14131,0.14131 v 2.28611 c 0,0.0946 0.0467,0.1431 0.14131,0.1431 h 4.51224 v 14.5422 c 0,0.0949 0.0482,0.1431 0.1431,0.1431 h 2.56898 c 0.0949,0 0.1431,-0.0482 0.1431,-0.1431 v -14.5422 h 4.49995 c 0.0949,0 0.1431,-0.0482 0.1431,-0.1431 v -2.28605 c 0,-0.0949 -0.0482,-0.14161 -0.1431,-0.14161 z m 13.94722,0 c -0.0949,0 -0.14132,0.0467 -0.14132,0.14131 v 16.97129 c 0,0.0949 0.0467,0.1431 0.14132,0.1431 h 2.57052 c 0.0949,0 0.14132,-0.0482 0.14132,-0.1431 V 580.9469 c 0,-0.0949 -0.0467,-0.14161 -0.14132,-0.14161 z m 21.22681,0 c -0.0949,0 -0.14132,0.0467 -0.14132,0.14131 v 16.97129 c 0,0.0949 0.0467,0.1431 0.14132,0.1431 h 2.58126 c 0.0869,0 0.1306,-0.0482 0.1306,-0.1431 v -11.67649 l 7.48559,11.74875 c 0.0315,0.0473 0.0711,0.0708 0.1184,0.0708 h 2.42755 c 0.0946,0 0.14131,-0.0482 0.14131,-0.1431 V 580.9468 c 0,-0.0949 -0.0467,-0.14161 -0.14131,-0.14161 h -2.5813 c -0.0949,0 -0.1431,0.0467 -0.1431,0.14161 v 11.67804 l -7.46095,-11.74878 c -0.0315,-0.0473 -0.0711,-0.0708 -0.1184,-0.0708 z m -9.29664,2.72427 c 0.28412,0 0.55294,0.0351 0.80561,0.10591 0.25258,0.0631 0.48478,0.15084 0.69797,0.26151 0.21302,0.10264 0.40303,0.22372 0.56883,0.3659 0.17374,0.14221 0.31973,0.28828 0.43817,0.43816 0.14994,0.18951 0.27995,0.40711 0.3905,0.65186 0.11037,0.23682 0.19367,0.4822 0.24901,0.73487 0.0634,0.26061 0.11127,0.67087 0.1431,1.23145 0.0315,0.55271 0.0461,1.25946 0.0461,2.12008 0,1.737 -0.0628,2.8585 -0.18921,3.36381 -0.10264,0.50531 -0.32023,0.95791 -0.65186,1.36061 -0.24485,0.33159 -0.57624,0.61637 -0.99468,0.85324 -0.41846,0.22908 -0.91931,0.34284 -1.50358,0.34284 -0.59215,0 -1.0974,-0.11394 -1.51587,-0.34284 -0.41847,-0.23682 -0.75435,-0.52165 -1.00699,-0.85324 -0.14221,-0.18178 -0.27222,-0.39042 -0.39051,-0.62729 -0.11037,-0.24485 -0.19813,-0.48856 -0.2615,-0.73332 -0.0634,-0.26835 -0.10561,-0.6803 -0.12912,-1.233 -0.0238,-0.56059 -0.0354,-1.27022 -0.0354,-2.13081 0,-0.84483 0.0119,-1.5472 0.0354,-2.10779 0.0238,-0.56055 0.066,-0.97531 0.12912,-1.24374 0.0631,-0.25258 0.15083,-0.49802 0.2615,-0.73487 0.11038,-0.24484 0.24039,-0.46238 0.39051,-0.65186 0.25258,-0.30794 0.58852,-0.57948 1.00699,-0.81635 0.41847,-0.23681 0.92372,-0.35513 1.51587,-0.35513 z m -31.43509,1.38518 c 0.0315,0.10264 0.055,0.18148 0.0708,0.23681 0.0238,0.0553 0.044,0.10651 0.0601,0.15381 0.0149,0.0396 0.0268,0.0833 0.0354,0.13061 0.0149,0.0396 0.0348,0.0994 0.0583,0.1782 0.0473,0.14994 0.0913,0.29155 0.1306,0.42585 0.0473,0.13417 0.0913,0.25674 0.13061,0.36744 0.0788,0.24485 0.15351,0.48131 0.22432,0.71027 0.0788,0.22907 0.15499,0.45824 0.2261,0.68723 0.0396,0.11037 0.0788,0.22432 0.1184,0.34284 0.0396,0.11067 0.0788,0.22878 0.11841,0.35513 0.0473,0.13418 0.094,0.27579 0.14132,0.42585 0.0553,0.14994 0.11067,0.30485 0.166,0.46277 0.0869,0.24484 0.18624,0.53238 0.29661,0.86401 0.11038,0.32371 0.23176,0.68006 0.3659,1.06694 0.0149,0.0473 0.0363,0.10144 0.0601,0.16452 0.0315,0.0631 0.055,0.12316 0.0708,0.1782 h -4.54762 c 0.17374,-0.49743 0.31533,-0.90771 0.42588,-1.23146 0.11037,-0.3316 0.21718,-0.63972 0.31979,-0.92396 0.10263,-0.28411 0.19456,-0.55734 0.2737,-0.81789 l 0.24752,-0.74564 c 0.0396,-0.11067 0.0788,-0.22431 0.11841,-0.34284 0.0396,-0.11841 0.0788,-0.24098 0.11841,-0.36745 0.0396,-0.1184 0.0788,-0.23681 0.1184,-0.35513 0.0473,-0.1184 0.0913,-0.24544 0.13061,-0.37973 0.0149,-0.0396 0.0268,-0.0788 0.0354,-0.11841 0.009,-0.0396 0.0208,-0.0833 0.0354,-0.1306 0.0634,-0.18951 0.13031,-0.39387 0.20141,-0.61494 0.0788,-0.22105 0.16214,-0.46203 0.24901,-0.72258 z"
       style="font-style:normal;font-variant:normal;font-weight:normal;font-stretch:normal;font-size:23.1104px;line-height:1.3;font-family:'Alte DIN 1451 Mittelschrift gepraegt';-inkscape-font-specification:'Alte DIN 1451 Mittelschrift gepraegt';text-align:center;text-anchor:middle;opacity:1;stroke-width:0.264583;fill:#ffffff"
       id="path6528" />
  </g>
</svg>
