<?xml version="1.0" encoding="utf-8"?>
<svg viewBox="0 0 323.14914 200" xmlns="http://www.w3.org/2000/svg">
  <g id="layer1" transform="matrix(0.9999999999999999, 0, 0, 0.9999999999999999, -303.4596862792969, -22.960700988769517)">
    <path id="rect15575" style="opacity:1;fill:#0a9646;fill-opacity:1;fill-rule:evenodd;stroke-width:0.0420687;stroke-linecap:square;stroke-miterlimit:10;paint-order:stroke fill markers" d="M 303.45966,22.960701 H 626.6088 V 222.9607 H 303.45966 Z"/>
    <path transform="matrix(0.26458333,0,0,0.26458333,303.45966,22.960701)" d="m 30.353516,5.0117188 c -13.808655,0 -25.0781254,11.2674112 -25.0781254,25.0761722 v 332.957029 47.1211 49.04296 13.88672 252.45508 c 0,13.80862 11.2694704,25.06641 25.0781254,25.06641 H 1190.9805 c 13.8086,0 25.0781,-11.25779 25.0781,-25.06641 V 473.0957 459.57031 401.94727 363.04492 30.087891 c 0,-13.808761 -11.2695,-25.0761722 -25.0781,-25.0761722 z m 0,9.4511722 H 1190.9805 c 8.7398,0 15.6425,6.885058 15.6425,15.625 v 332.957029 38.90235 c 0,0.29959 -0.013,0.61475 -0.037,0.9375 v 7.20703 c 0,8.68754 -6.9941,15.68164 -15.6816,15.68164 h -8.0762 c -0.1869,0.007 -0.3766,0.0176 -0.5586,0.0176 H 38.023438 c -0.18105,0 -0.371847,-0.0102 -0.560547,-0.0176 h -7.097657 c -8.687546,0 -15.68164,-6.9941 -15.68164,-15.68164 V 30.152344 c 0,-1.658433 0.257595,-3.253829 0.730468,-4.751953 0.01365,-0.04461 0.03284,-0.08643 0.04688,-0.13086 1.99686,-6.321925 7.84094,-10.80664 14.892578,-10.80664 z M 30.28125,435.30469 h 6.958984 1145.628866 8.1172 c 8.6414,0 15.5996,6.95633 15.5996,15.59765 v 7.5918 c 0.024,0.37296 0.037,0.7339 0.037,1.07617 v 13.52539 252.45508 c 0,5.47634 -2.7106,10.22208 -6.8847,13.00391 -2.4923,1.6862 -5.5034,2.66992 -8.752,2.66992 H 30.28125 c -8.641361,0 -15.597656,-6.9563 -15.597656,-15.59766 V 450.90234 c 0,-8.64132 6.956295,-15.59765 15.597656,-15.59765 z" style="color:#000000;font-style:normal;font-variant:normal;font-weight:normal;font-stretch:normal;font-size:medium;line-height:normal;font-family:sans-serif;font-variant-ligatures:normal;font-variant-position:normal;font-variant-caps:normal;font-variant-numeric:normal;font-variant-alternates:normal;font-variant-east-asian:normal;font-feature-settings:normal;font-variation-settings:normal;text-indent:0;text-align:start;text-decoration:none;text-decoration-line:none;text-decoration-style:solid;text-decoration-color:#000000;letter-spacing:normal;word-spacing:normal;text-transform:none;writing-mode:lr-tb;direction:ltr;text-orientation:mixed;dominant-baseline:auto;baseline-shift:baseline;text-anchor:start;white-space:normal;shape-padding:0;shape-margin:0;inline-size:0;clip-rule:nonzero;display:inline;overflow:visible;visibility:visible;opacity:1;isolation:auto;mix-blend-mode:normal;color-interpolation:sRGB;color-interpolation-filters:linearRGB;solid-color:#000000;solid-opacity:1;vector-effect:none;fill:#ffffff;fill-opacity:1;fill-rule:evenodd;stroke:none;stroke-width:2.09199;stroke-linecap:square;stroke-linejoin:miter;stroke-miterlimit:10;stroke-dasharray:none;stroke-dashoffset:0;stroke-opacity:1;paint-order:stroke fill markers;color-rendering:auto;image-rendering:auto;shape-rendering:auto;text-rendering:auto;enable-background:accumulate;stop-color:#000000;stop-opacity:1" id="path15582"/>
    <path d="m 324.12038,67.193614 h 60.89334 v 27.821331 h -60.89334 z" style="opacity:1;fill:#ffd70f;fill-opacity:1;fill-rule:evenodd;stroke:none;stroke-width:0.553508;stroke-linecap:square;stroke-miterlimit:10;stroke-dasharray:none;stroke-opacity:1;paint-order:stroke fill markers" id="rect15605"/>
    <path id="path15631" d="m 326.18273,67.759747 c -0.81115,0 -1.47443,0.660164 -1.47443,1.471307 v 23.746432 c 0,0.811142 0.66328,1.471323 1.47443,1.471323 h 56.7905 c 0.81117,0 1.4744,-0.660181 1.4744,-1.471323 V 69.231054 c 0,-0.811143 -0.66328,-1.471307 -1.4744,-1.471307 z m 0,0.535017 h 56.7905 c 0.52266,0 0.93627,0.413622 0.93627,0.93629 v 23.746432 c 0,0.522654 -0.41353,0.933189 -0.93627,0.933189 h -56.7905 c -0.52266,0 -0.93628,-0.410555 -0.93628,-0.933189 V 69.231054 c 0,-0.522672 0.41354,-0.93629 0.93628,-0.93629 z" style="color:#000000;font-style:normal;font-variant:normal;font-weight:normal;font-stretch:normal;font-size:medium;line-height:normal;font-family:sans-serif;font-variant-ligatures:normal;font-variant-position:normal;font-variant-caps:normal;font-variant-numeric:normal;font-variant-alternates:normal;font-variant-east-asian:normal;font-feature-settings:normal;font-variation-settings:normal;text-indent:0;text-align:start;text-decoration:none;text-decoration-line:none;text-decoration-style:solid;text-decoration-color:#000000;letter-spacing:normal;word-spacing:normal;text-transform:none;writing-mode:lr-tb;direction:ltr;text-orientation:mixed;dominant-baseline:auto;baseline-shift:baseline;text-anchor:start;white-space:normal;shape-padding:0;shape-margin:0;inline-size:0;clip-rule:nonzero;display:inline;overflow:visible;visibility:visible;opacity:1;isolation:auto;mix-blend-mode:normal;color-interpolation:sRGB;color-interpolation-filters:linearRGB;solid-color:#000000;solid-opacity:1;vector-effect:none;fill:#000000;fill-opacity:1;fill-rule:evenodd;stroke:none;stroke-width:0.119062;stroke-linecap:square;stroke-linejoin:miter;stroke-miterlimit:10;stroke-dasharray:none;stroke-dashoffset:0;stroke-opacity:1;paint-order:stroke fill markers;color-rendering:auto;image-rendering:auto;shape-rendering:auto;text-rendering:auto;enable-background:accumulate;stop-color:#000000;stop-opacity:1"/>
    <path d="m 336.88947,72.205604 c -1.36961,0 -2.51552,0.330332 -3.43646,0.991507 -0.91309,0.653335 -1.5737,1.361798 -1.98303,2.125328 -0.14189,0.267612 -0.264,0.538688 -0.36613,0.814199 -0.10264,0.275473 -0.18065,0.564078 -0.23555,0.86321 -0.0552,0.299089 -0.0954,0.774434 -0.11873,1.427765 -0.0223,0.653332 -0.0362,1.495435 -0.0362,2.5266 0,2.062321 0.0516,3.383536 0.15387,3.966025 0.0552,0.299136 0.13326,0.587702 0.23556,0.863193 0.10264,0.267612 0.22467,0.534915 0.36612,0.802543 0.40948,0.771411 1.06995,1.479875 1.983,2.125324 0.92887,0.653346 2.07472,0.979855 3.43649,0.979855 0.74779,0 1.44489,-0.107189 2.09034,-0.319632 0.64544,-0.212556 1.24303,-0.525333 1.79403,-0.942508 1.1335,-0.865864 1.86473,-2.103628 2.19533,-3.709419 0.0139,-0.04714 0.009,-0.08518 -0.0223,-0.116745 -0.0315,-0.03928 -0.0694,-0.05829 -0.11656,-0.05829 h -2.70394 c -0.0223,1.5e-5 -0.0488,0.01117 -0.0722,0.03521 -0.0223,0.01589 -0.0451,0.0307 -0.0582,0.0467 -0.70836,1.487712 -1.74338,2.232636 -3.10515,2.232636 -0.59037,0 -1.09454,-0.11468 -1.51174,-0.342928 -0.41713,-0.236167 -0.75132,-0.520933 -1.00317,-0.851551 -0.14189,-0.181028 -0.27124,-0.389065 -0.3896,-0.625222 -0.11008,-0.244 -0.19597,-0.488524 -0.25924,-0.732545 -0.0628,-0.267611 -0.10709,-0.67614 -0.13048,-1.227141 -0.0223,-0.558871 -0.0359,-1.267326 -0.0359,-2.125325 0,-0.842249 0.009,-1.543133 0.0359,-2.102004 0.0223,-0.55887 0.0677,-0.97117 0.13048,-1.238798 0.0627,-0.251917 0.14857,-0.496392 0.25924,-0.732549 0.11009,-0.244 0.24028,-0.45965 0.3896,-0.64857 0.252,-0.30699 0.58598,-0.580386 1.00317,-0.816526 0.41715,-0.236167 0.92137,-0.352269 1.51174,-0.352269 0.79503,1.7e-5 1.45185,0.230844 1.97135,0.695231 0.27541,0.236167 0.50863,0.492045 0.69757,0.767539 0.18872,0.267667 0.33407,0.560022 0.4361,0.874867 0.0167,0.06294 0.0599,0.09333 0.13046,0.09333 h 2.7039 c 0.0468,0 0.0854,-0.01589 0.11658,-0.0467 0.0315,-0.03161 0.0407,-0.07184 0.0223,-0.118954 -0.25952,-1.393235 -0.93175,-2.595995 -2.01801,-3.611427 -1.07052,-1.007535 -2.42438,-1.511744 -4.0617,-1.511744 z m 27.73422,0.104956 c -1.28304,0 -2.4213,0.437369 -3.41313,1.311121 -0.99967,0.858 -1.50005,2.08205 -1.50005,3.672071 v 7.425818 c 0,1.590021 0.50038,2.814088 1.50005,3.672088 0.99183,0.865851 2.13009,1.299446 3.41313,1.299446 1.28303,0 2.42133,-0.433578 3.41313,-1.299446 1.00756,-0.86587 1.50938,-2.089917 1.50938,-3.672088 v -7.425818 c 0,-0.787127 -0.1299,-1.484222 -0.38959,-2.09033 -0.252,-0.613979 -0.62389,-1.140934 -1.11979,-1.581741 -0.49592,-0.425045 -1.03279,-0.74779 -1.6074,-0.968177 -0.56674,-0.22825 -1.16816,-0.342924 -1.80573,-0.342924 z m -21.12261,0.03521 c -0.0943,0 -0.14217,0.04776 -0.14217,0.142392 v 2.279298 c 0,0.09444 0.0479,0.142197 0.14217,0.142197 h 4.49793 V 89.409 c 0,0.09444 0.0479,0.139995 0.14217,0.139995 h 2.5616 c 0.0945,0 0.14217,-0.04555 0.14217,-0.139995 V 74.909653 h 4.48625 c 0.0943,0 0.14217,-0.04778 0.14217,-0.142196 v -2.279299 c 0,-0.09444 -0.0479,-0.142392 -0.14217,-0.142392 z m 31.22667,0.118953 -2.43331,1.759064 c -0.0139,0.01589 -0.0315,0.03477 -0.0466,0.05829 -0.009,0.02341 -0.0139,0.04468 -0.0139,0.06068 v 2.561593 c 0,0.06294 0.0278,0.110694 0.0728,0.142196 0.0468,0.02343 0.0989,0.01617 0.15388,-0.02343 0.36208,-0.259778 0.7228,-0.523245 1.08486,-0.790886 0.36206,-0.275473 0.72509,-0.548889 1.08714,-0.816528 v 14.028096 c 0,0.09444 0.048,0.142198 0.14217,0.142198 h 2.41929 c 0.0943,0 0.13994,-0.04778 0.13994,-0.142198 V 72.606811 c 0,-0.09444 -0.0455,-0.142197 -0.13994,-0.142197 z m -10.10406,2.538257 c 0.67694,0 1.21532,0.217964 1.61673,0.650912 0.40948,0.425045 0.61359,1.018854 0.61359,1.782378 v 7.143522 c 0,0.771407 -0.20461,1.368982 -0.61359,1.794059 -0.40133,0.425045 -0.93979,0.63689 -1.61673,0.63689 -0.67695,0 -1.21527,-0.211859 -1.61671,-0.63689 -0.40134,-0.425091 -0.60428,-1.022652 -0.60428,-1.794059 v -7.143497 c 0,-0.763524 0.20266,-1.357335 0.60428,-1.782377 0.40133,-0.432946 0.93976,-0.650913 1.61671,-0.650913 z m -9.98507,11.865445 c -0.0945,0 -0.14217,0.04776 -0.14217,0.14239 v 2.398281 c 0,0.09444 0.0479,0.139994 0.14217,0.139994 h 2.40762 c 0.0867,0 0.13046,-0.04555 0.13046,-0.139994 v -2.398281 c 0,-0.09444 -0.0451,-0.14239 -0.13046,-0.14239 z" style="font-style: normal; font-variant: normal; font-weight: normal; font-stretch: normal; font-size: 15.1831px; line-height: 1.46; font-family: 'Alte DIN 1451 Mittelschrift gepraegt'; text-align: center; text-anchor: middle; opacity: 1; fill-opacity: 1; stroke-width: 0.264584; visibility: hidden;" id="path15637"/>
    <path id="path17496" style="font-size:15.1831px;line-height:1.46;font-family:'Singapore Road Signs';-inkscape-font-specification:'Singapore Road Signs';text-align:center;text-anchor:middle;opacity:1;fill:#ffffff;fill-opacity:1;stroke-width:0.0756548" d="m 570.47468,59.120043 v 50.614317 h 35.43541 V 59.120043 Z m 1.38203,1.660034 h 32.65274 v 47.566083 h -32.65274 z m 13.66823,3.646909 -2.23483,8.869719 h 3.92184 l 0.28216,-8.869719 z m 3.35329,0 0.28216,8.869719 h 3.92385 l -2.23686,-8.869719 z m -15.90932,9.992316 v 1.942234 l 3.06692,1.10806 v 0.584703 h 1.411 v -0.584703 c 0,0 2.08662,-0.313671 4.52568,-0.535349 1.95306,-0.177516 4.1317,-0.271988 5.64407,-0.278037 1.79866,-0.0063 4.45804,0.09363 6.73975,0.288436 2.51319,0.214479 4.5713,0.524984 4.5713,0.524984 v 0.5847 h 1.38199 v -0.5847 l 3.06685,-1.108064 v -1.942233 z m 9.21108,3.620663 -6.70448,26.681115 h 10.04943 l 1.39442,-26.681115 z m 7.25642,0 1.39441,26.681115 h 10.0494 l -6.70443,-26.681115 z"/>
    <g style="font-size:14.7905px;line-height:0;font-family:'Singapore Road Signs';-inkscape-font-specification:'Singapore Road Signs';text-align:center;text-anchor:middle;opacity:1;fill:#860000;fill-opacity:1;stroke-width:6.45213" id="layer1-8" transform="matrix(0.08718024,0,0,0.08718024,-145.22047,195.49013)">
      <circle style="opacity:1;fill:#f00a0a;fill-opacity:1;fill-rule:nonzero;stroke:none;stroke-width:3622.55;stroke-linecap:round;stroke-linejoin:round;stroke-miterlimit:4;stroke-dasharray:none;stroke-opacity:1;paint-order:stroke fill markers" id="path815" cx="6380.9966" cy="-193.29752" r="350"/>
      <circle cy="-193.29752" cx="6380.9966" id="circle817" style="opacity:1;fill:#ffffff;fill-opacity:1;fill-rule:nonzero;stroke:none;stroke-width:2587.55;stroke-linecap:round;stroke-linejoin:round;stroke-miterlimit:4;stroke-dasharray:none;stroke-opacity:1;paint-order:stroke fill markers" r="263.821"/>
      <g aria-label="20 " style="font-style:normal;font-variant:normal;font-weight:bold;font-stretch:normal;font-size:414.864px;line-height:0;font-family:Giaothong1;-inkscape-font-specification:'Giaothong1 Bold';letter-spacing:0px;word-spacing:0px;fill:#000000;fill-opacity:1;stroke:none;stroke-width:24.7849" id="text874" transform="matrix(-1,0,0,1,1299.029,-383.45)">
        <g aria-label="90" transform="translate(2310.2259,387.54849)" style="font-style:normal;font-variant:normal;font-weight:bold;font-stretch:normal;font-size:414.864px;line-height:0;font-family:Giaothong1;-inkscape-font-specification:'Giaothong1 Bold';letter-spacing:0px;word-spacing:0px;fill:#000000;fill-opacity:1;stroke:none;stroke-width:53.5539" id="text844"/>
      </g>
    </g>
    <g style="font-size:14.7905px;line-height:0;font-family:'Singapore Road Signs';-inkscape-font-specification:'Singapore Road Signs';text-align:center;text-anchor:middle;opacity:1;fill:#fff000;fill-opacity:1;stroke-width:6.45221" id="layer1-7" transform="matrix(0.08717968,0,0,0.08717968,488.77841,183.34565)">
      <circle cy="-54" cx="351" id="circle817-6" style="opacity:1;fill:#0046aa;fill-opacity:1;fill-rule:nonzero;stroke:none;stroke-width:3622.58;stroke-linecap:round;stroke-linejoin:round;stroke-miterlimit:4;stroke-dasharray:none;stroke-opacity:1;paint-order:stroke fill markers" r="350"/>
      <path id="rect984" style="font-style: normal; font-variant: normal; font-weight: bold; font-stretch: normal; font-size: 414.864px; line-height: 0; font-family: Giaothong1; letter-spacing: 0px; word-spacing: 0px; opacity: 1; fill: rgb(255, 255, 255); fill-opacity: 1; fill-rule: nonzero; stroke: none; stroke-width: 0.344279; stroke-linecap: round; stroke-linejoin: miter; stroke-miterlimit: 10; stroke-dasharray: none; stroke-opacity: 1; paint-order: stroke; visibility: hidden;" d="m 851.18164,518.03906 c -16.32678,0 -29.4707,13.14393 -29.4707,29.47071 v 80.94921 c 0,16.32678 13.14392,29.47071 29.4707,29.47071 16.32678,0 29.4707,-13.14393 29.4707,-29.47071 v -80.94921 c 0,-16.32678 -13.14392,-29.47071 -29.4707,-29.47071 z m -69.94336,1.23828 -26.10937,69.75391 c -2.72781,7.40406 -3.70118,11.30112 -3.70118,28.44727 0,18.12042 0.7789,22.01697 4.67579,28.25195 5.26075,8.37828 14.22308,13.44336 24.93945,13.44336 10.91123,0 20.0688,-4.87023 25.13476,-13.44336 3.70197,-6.23498 4.48047,-10.13153 4.48047,-28.25195 0,-22.01726 -0.77798,-26.88814 -4.28515,-32.34375 -3.31232,-5.06591 -9.74347,-8.96289 -16.75782,-8.96289 -4.28653,0 -7.01308,0.77773 -8.37695,1.75195 l -0.39062,-0.38867 22.60156,-58.25782 z m 69.94336,18.74024 c 5.25853,0 9.49219,4.23365 9.49219,9.49219 v 80.94921 c 0,5.25853 -4.23366,9.49219 -9.49219,9.49219 -5.25853,0 -9.49219,-4.23366 -9.49219,-9.49219 v -80.94921 c 0,-5.25854 4.23366,-9.49219 9.49219,-9.49219 z m -70.13867,55.68945 c 5.0659,0 9.74219,3.89738 9.74219,9.9375 v 25.71875 c 0,6.04012 -4.67629,9.9375 -9.74219,9.9375 -5.0659,0 -9.74219,-3.89738 -9.74219,-9.9375 v -25.71875 c 0,-6.04012 4.67629,-9.9375 9.74219,-9.9375 z" transform="matrix(3.0349198,0,0,3.0349198,-2125.7104,-1839.7056)"/>
    </g>
    <g aria-label="6" id="text19759" style="font-size:31.1478px;line-height:1.3;font-family:'Singapore Road Signs';-inkscape-font-specification:'Singapore Road Signs';text-align:center;text-anchor:middle;stroke-width:0.159861" transform="matrix(1.6550836,0,0,1.6550836,-321.31659,-238.56049)"/>
    <path d="M 356.077 46.797 Q 355.972 46.797 355.972 46.691 L 355.972 35.898 L 352.623 35.898 Q 352.518 35.898 352.518 35.793 L 352.518 34.097 Q 352.518 33.991 352.623 33.991 L 361.43 33.991 Q 361.535 33.991 361.535 34.097 L 361.535 35.793 Q 361.535 35.898 361.43 35.898 L 358.09 35.898 L 358.09 46.691 Q 358.09 46.797 357.985 46.797 Z M 364.935 35.898 L 364.935 39.511 L 367.722 39.511 Q 368.741 39.511 369.251 38.948 Q 369.761 38.386 369.761 37.612 Q 369.761 37.173 369.607 36.83 Q 369.453 36.487 369.163 36.267 Q 368.908 36.092 368.57 35.995 Q 368.231 35.898 367.836 35.898 Z M 362.923 46.797 Q 362.817 46.797 362.817 46.691 L 362.817 34.097 Q 362.817 33.991 362.923 33.991 L 367.853 33.991 Q 368.671 33.991 369.33 34.215 Q 369.989 34.439 370.481 34.852 Q 370.736 35.09 370.969 35.393 Q 371.202 35.696 371.382 36.048 Q 371.562 36.399 371.668 36.795 Q 371.773 37.19 371.773 37.612 Q 371.773 38.236 371.598 38.794 Q 371.422 39.352 371.105 39.836 Q 370.78 40.284 370.35 40.622 Q 369.919 40.961 369.374 41.163 Q 370.086 42.525 370.807 43.901 Q 371.527 45.276 372.239 46.639 Q 372.266 46.7 372.239 46.748 Q 372.213 46.797 372.151 46.797 L 369.884 46.797 Q 369.857 46.797 369.831 46.775 Q 369.805 46.753 369.787 46.735 L 367.212 41.418 L 364.935 41.418 L 364.935 46.691 Q 364.935 46.797 364.83 46.797 Z M 373.564 34.097 Q 373.564 33.991 373.67 33.991 L 375.586 33.991 Q 375.682 33.991 375.682 34.097 L 375.682 42.218 Q 375.682 43.483 376.386 44.134 Q 377.098 44.793 378.152 44.793 Q 379.189 44.793 379.901 44.134 Q 380.613 43.475 380.613 42.218 L 380.613 34.097 Q 380.613 33.991 380.719 33.991 L 382.626 33.991 Q 382.731 33.991 382.731 34.097 L 382.731 42.429 Q 382.731 44.45 381.387 45.681 Q 380.059 46.902 378.152 46.902 Q 376.236 46.902 374.9 45.681 Q 373.564 44.45 373.564 42.429 Z M 385.237 46.797 Q 385.132 46.797 385.132 46.691 L 385.132 34.097 Q 385.132 33.991 385.237 33.991 L 387.048 33.991 Q 387.1 33.991 387.135 34.044 L 392.673 42.763 L 392.673 34.097 Q 392.673 33.991 392.778 33.991 L 394.694 33.991 Q 394.799 33.991 394.799 34.097 L 394.799 46.691 Q 394.799 46.797 394.694 46.797 L 392.892 46.797 Q 392.84 46.797 392.804 46.744 L 387.25 38.025 L 387.25 46.691 Q 387.25 46.797 387.153 46.797 Z M 401.628 41.673 Q 401.523 41.673 401.523 41.567 L 401.523 39.757 Q 401.523 39.66 401.628 39.66 L 406.102 39.66 Q 406.207 39.66 406.207 39.757 L 406.207 42.323 Q 406.207 44.266 404.871 45.575 Q 403.518 46.902 401.611 46.902 Q 400.09 46.902 399.053 46.173 Q 398.033 45.452 397.576 44.591 L 397.585 44.591 Q 397.418 44.292 397.304 43.989 Q 397.19 43.685 397.128 43.351 Q 397.075 43.017 397.045 42.284 Q 397.014 41.55 397.014 40.398 Q 397.014 39.247 397.045 38.517 Q 397.075 37.788 397.128 37.454 Q 397.19 37.12 397.304 36.812 Q 397.418 36.505 397.585 36.206 L 397.576 36.206 Q 398.033 35.353 399.053 34.624 Q 400.081 33.886 401.611 33.886 Q 403.439 33.886 404.634 35.011 Q 405.847 36.136 406.137 37.7 Q 406.154 37.753 406.119 37.788 Q 406.084 37.823 406.031 37.823 L 404.019 37.823 Q 403.94 37.823 403.922 37.753 Q 403.808 37.401 403.597 37.098 Q 403.386 36.795 403.078 36.531 Q 402.498 36.013 401.611 36.013 Q 400.951 36.013 400.486 36.276 Q 400.02 36.54 399.738 36.883 Q 399.571 37.094 399.448 37.362 Q 399.325 37.63 399.255 37.911 Q 399.185 38.21 399.158 38.834 Q 399.132 39.458 399.132 40.398 Q 399.132 41.356 399.158 41.976 Q 399.185 42.596 399.255 42.894 Q 399.325 43.167 399.453 43.435 Q 399.58 43.703 399.738 43.905 Q 400.02 44.274 400.486 44.534 Q 400.951 44.793 401.611 44.793 Q 402.656 44.793 403.368 44.081 Q 404.089 43.369 404.089 42.218 L 404.089 41.673 Z M 412.835 46.797 Q 412.729 46.797 412.729 46.691 L 412.729 34.097 Q 412.729 33.991 412.835 33.991 L 414.742 33.991 Q 414.848 33.991 414.848 34.097 L 414.848 44.793 L 420.886 44.793 Q 420.991 44.793 420.991 44.898 L 420.991 46.691 Q 420.991 46.797 420.886 46.797 Z M 432.583 32.365 Q 432.636 32.409 432.689 32.462 Q 433.269 33.068 433.287 34.044 Q 433.322 35.23 432.223 35.977 Q 431.766 36.188 431.23 36.285 L 431.23 42.429 Q 431.23 44.45 429.885 45.681 Q 428.558 46.902 426.651 46.902 Q 424.735 46.902 423.399 45.681 Q 422.063 44.45 422.063 42.429 L 422.063 34.097 Q 422.063 33.991 422.168 33.991 L 424.084 33.991 Q 424.181 33.991 424.181 34.097 L 424.181 42.218 Q 424.181 43.483 424.884 44.134 Q 425.596 44.793 426.651 44.793 Q 427.688 44.793 428.4 44.134 Q 429.112 43.475 429.112 42.218 L 429.112 34.097 Q 429.112 33.991 429.217 33.991 L 431.125 33.991 Q 431.23 33.991 431.23 34.097 L 431.23 35.142 Q 432.03 34.8 432.047 34.079 Q 432.039 33.499 431.705 33.244 Z M 436.301 40.398 Q 436.301 41.356 436.327 41.976 Q 436.353 42.596 436.424 42.894 Q 436.494 43.167 436.622 43.435 Q 436.749 43.703 436.907 43.905 Q 437.188 44.274 437.654 44.534 Q 438.12 44.793 438.779 44.793 Q 439.43 44.793 439.895 44.534 Q 440.361 44.274 440.634 43.905 Q 441.003 43.457 441.117 42.894 Q 441.258 42.332 441.258 40.398 Q 441.258 39.44 441.223 38.821 Q 441.187 38.201 441.117 37.911 Q 441.056 37.63 440.933 37.362 Q 440.81 37.094 440.643 36.883 Q 440.511 36.716 440.322 36.558 Q 440.133 36.399 439.895 36.281 Q 439.658 36.162 439.377 36.087 Q 439.096 36.013 438.779 36.013 Q 438.12 36.013 437.654 36.276 Q 437.188 36.54 436.907 36.883 Q 436.74 37.094 436.617 37.362 Q 436.494 37.63 436.424 37.911 Q 436.353 38.21 436.327 38.834 Q 436.301 39.458 436.301 40.398 Z M 443.464 32.339 Q 443.534 32.4 443.596 32.462 Q 444.176 33.068 444.193 34.044 Q 444.228 35.23 443.13 35.977 Q 442.954 36.057 442.77 36.127 Q 442.787 36.162 442.813 36.206 Q 443.139 36.804 443.253 37.454 Q 443.314 37.788 443.345 38.517 Q 443.376 39.247 443.376 40.398 Q 443.376 42.657 443.253 43.351 Q 443.191 43.694 443.082 44.002 Q 442.972 44.309 442.822 44.591 Q 442.356 45.434 441.319 46.173 Q 440.282 46.902 438.779 46.902 Q 437.259 46.902 436.222 46.173 Q 435.202 45.452 434.745 44.591 L 434.754 44.591 Q 434.587 44.292 434.473 43.989 Q 434.358 43.685 434.297 43.351 Q 434.244 43.017 434.213 42.284 Q 434.183 41.55 434.183 40.398 Q 434.183 39.247 434.213 38.517 Q 434.244 37.788 434.297 37.454 Q 434.358 37.12 434.473 36.812 Q 434.587 36.505 434.754 36.206 L 434.745 36.206 Q 435.202 35.353 436.222 34.624 Q 437.25 33.886 438.779 33.886 Q 440.291 33.886 441.319 34.624 Q 441.706 34.905 442.014 35.195 Q 442.928 34.861 442.954 34.079 Q 442.945 33.481 442.576 33.226 Z M 445.688 46.797 Q 445.583 46.797 445.583 46.691 L 445.583 34.097 Q 445.583 33.991 445.688 33.991 L 447.499 33.991 Q 447.552 33.991 447.587 34.044 L 453.124 42.763 L 453.124 34.097 Q 453.124 33.991 453.229 33.991 L 455.145 33.991 Q 455.251 33.991 455.251 34.097 L 455.251 46.691 Q 455.251 46.797 455.145 46.797 L 453.344 46.797 Q 453.291 46.797 453.256 46.744 L 447.701 38.025 L 447.701 46.691 Q 447.701 46.797 447.604 46.797 Z M 462.079 41.673 Q 461.974 41.673 461.974 41.567 L 461.974 39.757 Q 461.974 39.66 462.079 39.66 L 466.553 39.66 Q 466.659 39.66 466.659 39.757 L 466.659 42.323 Q 466.659 44.266 465.323 45.575 Q 463.969 46.902 462.062 46.902 Q 460.541 46.902 459.504 46.173 Q 458.485 45.452 458.028 44.591 L 458.036 44.591 Q 457.869 44.292 457.755 43.989 Q 457.641 43.685 457.579 43.351 Q 457.527 43.017 457.496 42.284 Q 457.465 41.55 457.465 40.398 Q 457.465 39.247 457.496 38.517 Q 457.527 37.788 457.579 37.454 Q 457.641 37.12 457.755 36.812 Q 457.869 36.505 458.036 36.206 L 458.028 36.206 Q 458.485 35.353 459.504 34.624 Q 460.533 33.886 462.062 33.886 Q 463.89 33.886 465.085 35.011 Q 466.298 36.136 466.588 37.7 Q 466.606 37.753 466.571 37.788 Q 466.535 37.823 466.483 37.823 L 464.47 37.823 Q 464.391 37.823 464.373 37.753 Q 464.259 37.401 464.048 37.098 Q 463.837 36.795 463.53 36.531 Q 462.95 36.013 462.062 36.013 Q 461.403 36.013 460.937 36.276 Q 460.471 36.54 460.19 36.883 Q 460.023 37.094 459.9 37.362 Q 459.777 37.63 459.706 37.911 Q 459.636 38.21 459.61 38.834 Q 459.583 39.458 459.583 40.398 Q 459.583 41.356 459.61 41.976 Q 459.636 42.596 459.706 42.894 Q 459.777 43.167 459.904 43.435 Q 460.032 43.703 460.19 43.905 Q 460.471 44.274 460.937 44.534 Q 461.403 44.793 462.062 44.793 Q 463.108 44.793 463.82 44.081 Q 464.54 43.369 464.54 42.218 L 464.54 41.673 Z" transform="matrix(1.310387, 0, 0, 1.310387, -59.698296, -1.169035)" style="fill: rgb(255, 255, 255);"/>
    <path transform="matrix(1.310387, 0, 0, 1.310387, -59.698296, -1.169035)" style="fill: rgb(255, 255, 255);"/>
    <path d="M 369.893 72.357 Q 369.788 72.357 369.788 72.251 L 369.788 59.657 Q 369.788 59.551 369.893 59.551 L 371.695 59.551 Q 371.756 59.551 371.791 59.613 L 375.316 67.602 Q 376.168 65.589 377.03 63.607 Q 377.891 61.625 378.752 59.613 Q 378.779 59.551 378.849 59.551 L 380.651 59.551 Q 380.756 59.551 380.756 59.657 L 380.756 72.251 Q 380.756 72.357 380.651 72.357 L 378.744 72.357 Q 378.638 72.357 378.638 72.251 L 378.638 64.816 Q 378.023 66.248 377.399 67.663 Q 376.775 69.078 376.168 70.502 Q 376.133 70.555 376.072 70.555 L 374.481 70.555 Q 374.419 70.555 374.384 70.502 L 371.906 64.798 L 371.906 72.251 Q 371.906 72.357 371.8 72.357 Z M 386.028 72.357 Q 385.931 72.357 385.931 72.251 L 385.931 67.101 Q 384.982 65.246 384.041 63.401 Q 383.101 61.555 382.16 59.701 Q 382.134 59.639 382.16 59.595 Q 382.187 59.551 382.257 59.551 L 384.261 59.551 Q 384.287 59.551 384.314 59.573 Q 384.34 59.595 384.358 59.613 L 386.942 65.009 Q 387.592 63.647 388.229 62.311 Q 388.866 60.975 389.517 59.613 Q 389.534 59.595 389.561 59.573 Q 389.587 59.551 389.613 59.551 L 391.626 59.551 Q 391.697 59.551 391.723 59.595 Q 391.749 59.639 391.723 59.701 L 387.944 67.101 L 387.944 72.251 Q 387.944 72.357 387.838 72.357 Z M 384.199 58.171 Q 384.094 58.171 384.112 58.066 Q 384.173 57.635 384.327 57.284 Q 384.481 56.932 384.718 56.66 Q 384.955 56.413 385.272 56.277 Q 385.588 56.141 385.94 56.141 Q 386.098 56.141 386.247 56.159 Q 386.397 56.176 386.546 56.229 Q 386.704 56.282 386.849 56.334 Q 386.994 56.387 387.091 56.422 Q 387.399 56.58 387.645 56.66 Q 387.812 56.739 388.04 56.739 Q 388.242 56.739 388.436 56.616 Q 388.603 56.501 388.673 56.115 Q 388.691 56.044 388.77 56.044 L 389.684 56.044 Q 389.798 56.044 389.78 56.15 Q 389.728 56.528 389.596 56.857 Q 389.464 57.187 389.262 57.459 Q 389.042 57.741 388.726 57.903 Q 388.409 58.066 387.996 58.075 Q 387.838 58.075 387.684 58.048 Q 387.53 58.022 387.39 57.96 L 387.399 57.96 Q 387.302 57.943 387.144 57.886 Q 386.986 57.828 386.775 57.749 Q 386.502 57.626 386.256 57.556 Q 386.01 57.486 385.773 57.477 Q 385.641 57.477 385.421 57.6 L 385.43 57.591 Q 385.21 57.732 385.21 58.083 Q 385.21 58.171 385.122 58.171 Z M 399.625 72.357 Q 399.519 72.357 399.519 72.251 L 399.519 61.458 L 396.171 61.458 Q 396.065 61.458 396.065 61.353 L 396.065 59.657 Q 396.065 59.551 396.171 59.551 L 404.977 59.551 Q 405.083 59.551 405.083 59.657 L 405.083 61.353 Q 405.083 61.458 404.977 61.458 L 401.638 61.458 L 401.638 72.251 Q 401.638 72.357 401.532 72.357 Z M 413.378 72.357 Q 413.273 72.357 413.273 72.251 L 413.273 66.855 L 408.483 66.855 L 408.483 72.251 Q 408.483 72.357 408.377 72.357 L 406.47 72.357 Q 406.365 72.357 406.365 72.251 L 406.365 59.657 Q 406.365 59.551 406.47 59.551 L 408.377 59.551 Q 408.483 59.551 408.483 59.657 L 408.483 64.948 L 413.273 64.948 L 413.273 59.657 Q 413.273 59.551 413.378 59.551 L 415.286 59.551 Q 415.391 59.551 415.391 59.657 L 415.391 72.251 Q 415.391 72.357 415.286 72.357 Z M 417.799 59.657 Q 417.799 59.551 417.904 59.551 L 419.82 59.551 Q 419.917 59.551 419.917 59.657 L 419.917 67.778 Q 419.917 69.043 420.62 69.694 Q 421.332 70.353 422.387 70.353 Q 423.424 70.353 424.136 69.694 Q 424.847 69.035 424.847 67.778 L 424.847 59.657 Q 424.847 59.551 424.953 59.551 L 426.86 59.551 Q 426.966 59.551 426.966 59.657 L 426.966 67.989 Q 426.966 70.01 425.621 71.241 Q 424.294 72.462 422.387 72.462 Q 420.471 72.462 419.135 71.241 Q 417.799 70.01 417.799 67.989 Z M 428.232 72.348 Q 428.171 72.348 428.144 72.304 Q 428.118 72.26 428.135 72.207 L 432.741 59.604 Q 432.758 59.534 432.829 59.534 L 434.402 59.534 Q 434.428 59.534 434.459 59.556 Q 434.49 59.577 434.499 59.604 L 439.095 72.207 Q 439.113 72.26 439.087 72.304 Q 439.06 72.348 439.007 72.348 L 436.995 72.348 Q 436.924 72.348 436.907 72.278 L 435.958 69.5 L 431.317 69.5 Q 431.071 70.212 430.829 70.893 Q 430.588 71.575 430.341 72.278 Q 430.333 72.304 430.302 72.326 Q 430.271 72.348 430.245 72.348 Z M 435.325 67.611 Q 435.307 67.549 435.276 67.479 Q 435.246 67.409 435.228 67.356 Q 435.079 66.925 434.956 66.56 Q 434.833 66.196 434.736 65.923 Q 434.674 65.747 434.617 65.58 Q 434.56 65.413 434.507 65.264 Q 434.464 65.123 434.42 64.996 Q 434.376 64.868 434.332 64.745 Q 434.253 64.491 434.169 64.236 Q 434.086 63.981 433.998 63.708 Q 433.954 63.585 433.905 63.436 Q 433.857 63.286 433.804 63.119 Q 433.778 63.032 433.765 62.983 Q 433.752 62.935 433.734 62.887 Q 433.716 62.838 433.694 62.777 Q 433.672 62.715 433.637 62.601 Q 433.541 62.891 433.457 63.137 Q 433.374 63.383 433.303 63.594 Q 433.286 63.647 433.277 63.691 Q 433.268 63.735 433.251 63.779 Q 433.207 63.928 433.158 64.06 Q 433.11 64.192 433.066 64.324 Q 433.022 64.464 432.978 64.596 Q 432.934 64.728 432.89 64.851 Q 432.802 65.115 432.71 65.405 Q 432.618 65.695 432.504 66.011 Q 432.389 66.327 432.266 66.692 Q 432.143 67.057 431.95 67.611 Z M 430.482 58.417 Q 430.403 58.417 430.385 58.347 Q 430.368 58.277 430.421 58.233 L 433.005 56.185 L 434.191 56.185 L 436.81 58.233 Q 436.872 58.277 436.85 58.347 Q 436.828 58.417 436.749 58.417 L 435.272 58.417 L 433.514 57.468 Q 433.128 57.705 432.732 57.943 Q 432.337 58.18 431.95 58.417 Z M 432.767 75.82 Q 432.671 75.82 432.671 75.723 L 432.671 74.027 Q 432.671 73.93 432.767 73.93 L 434.472 73.93 Q 434.56 73.93 434.56 74.027 L 434.56 75.723 Q 434.56 75.82 434.472 75.82 Z M 440.686 72.357 Q 440.581 72.357 440.581 72.251 L 440.581 59.657 Q 440.581 59.551 440.686 59.551 L 442.497 59.551 Q 442.549 59.551 442.585 59.604 L 448.122 68.323 L 448.122 59.657 Q 448.122 59.551 448.227 59.551 L 450.143 59.551 Q 450.249 59.551 450.249 59.657 L 450.249 72.251 Q 450.249 72.357 450.143 72.357 L 448.341 72.357 Q 448.289 72.357 448.253 72.304 L 442.699 63.585 L 442.699 72.251 Q 442.699 72.357 442.602 72.357 Z" transform="matrix(1.310387, 0, 0, 1.310387, -59.698296, -1.169035)" style="fill: rgb(255, 255, 255);"/>
    <path d="M 426.152 119.118 Q 426.045 119.118 426.045 119.011 L 426.045 106.277 Q 426.045 106.17 426.152 106.17 L 434.292 106.17 Q 434.399 106.17 434.399 106.277 L 434.399 108.107 Q 434.399 108.214 434.292 108.214 L 428.187 108.214 L 428.187 111.626 L 433.377 111.626 Q 433.484 111.626 433.484 111.733 L 433.484 113.457 Q 433.484 113.555 433.377 113.555 L 428.187 113.555 L 428.187 117.092 L 434.292 117.092 Q 434.399 117.092 434.399 117.198 L 434.399 119.011 Q 434.399 119.118 434.292 119.118 Z M 442.572 119.118 Q 442.518 119.118 442.483 119.065 L 439.781 114.479 Q 439.106 115.634 438.43 116.772 Q 437.755 117.909 437.08 119.065 Q 437.044 119.118 436.991 119.118 L 434.813 119.118 Q 434.742 119.118 434.716 119.069 Q 434.689 119.02 434.725 118.958 L 438.59 112.48 Q 437.675 110.933 436.777 109.405 Q 435.88 107.876 434.973 106.33 Q 434.938 106.268 434.964 106.219 Q 434.991 106.17 435.053 106.17 L 437.239 106.17 Q 437.293 106.17 437.328 106.223 L 439.781 110.489 Q 440.394 109.422 441.007 108.361 Q 441.621 107.299 442.234 106.223 Q 442.269 106.17 442.323 106.17 L 444.509 106.17 Q 444.571 106.17 444.598 106.219 Q 444.624 106.268 444.589 106.33 L 440.972 112.48 Q 441.949 114.106 442.909 115.719 Q 443.869 117.332 444.847 118.958 Q 444.882 119.02 444.855 119.069 Q 444.829 119.118 444.758 119.118 Z M 448.15 108.214 L 448.15 112.106 L 450.914 112.106 Q 451.936 112.106 452.434 111.493 Q 452.94 110.898 452.94 110.16 Q 452.94 109.058 452.158 108.552 Q 451.652 108.214 450.843 108.214 Z M 446.115 119.118 Q 446.009 119.118 446.009 119.011 L 446.009 106.277 Q 446.009 106.17 446.115 106.17 L 450.736 106.17 Q 451.501 106.17 452.185 106.33 Q 452.878 106.49 453.66 107.094 Q 453.962 107.334 454.216 107.65 Q 454.469 107.965 454.673 108.347 Q 454.869 108.738 454.975 109.209 Q 455.082 109.68 455.082 110.213 Q 455.082 111.609 454.033 112.879 Q 452.985 114.141 450.985 114.141 L 448.15 114.141 L 448.15 119.011 Q 448.15 119.118 448.044 119.118 Z M 458.77 108.098 L 458.77 111.751 L 461.587 111.751 Q 462.618 111.751 463.133 111.182 Q 463.649 110.613 463.649 109.831 Q 463.649 109.387 463.493 109.04 Q 463.338 108.694 463.045 108.472 Q 462.787 108.294 462.445 108.196 Q 462.103 108.098 461.703 108.098 Z M 456.735 119.118 Q 456.628 119.118 456.628 119.011 L 456.628 106.277 Q 456.628 106.17 456.735 106.17 L 461.72 106.17 Q 462.547 106.17 463.213 106.397 Q 463.88 106.623 464.378 107.041 Q 464.635 107.281 464.871 107.587 Q 465.106 107.894 465.288 108.249 Q 465.471 108.605 465.577 109.005 Q 465.684 109.405 465.684 109.831 Q 465.684 110.462 465.506 111.027 Q 465.328 111.591 465.009 112.08 Q 464.68 112.533 464.244 112.875 Q 463.809 113.217 463.258 113.422 Q 463.978 114.799 464.706 116.19 Q 465.435 117.58 466.155 118.958 Q 466.182 119.02 466.155 119.069 Q 466.128 119.118 466.066 119.118 L 463.773 119.118 Q 463.747 119.118 463.72 119.096 Q 463.693 119.073 463.676 119.056 L 461.072 113.679 L 458.77 113.679 L 458.77 119.011 Q 458.77 119.118 458.663 119.118 Z M 467.661 119.118 Q 467.554 119.118 467.554 119.011 L 467.554 106.277 Q 467.554 106.17 467.661 106.17 L 475.801 106.17 Q 475.908 106.17 475.908 106.277 L 475.908 108.107 Q 475.908 108.214 475.801 108.214 L 469.696 108.214 L 469.696 111.626 L 474.886 111.626 Q 474.992 111.626 474.992 111.733 L 474.992 113.457 Q 474.992 113.555 474.886 113.555 L 469.696 113.555 L 469.696 117.092 L 475.801 117.092 Q 475.908 117.092 475.908 117.198 L 475.908 119.011 Q 475.908 119.118 475.801 119.118 Z M 477.686 115.848 Q 477.712 115.812 477.757 115.812 Q 477.801 115.812 477.837 115.839 Q 478.539 116.407 479.45 116.75 Q 480.361 117.092 481.374 117.092 Q 482.511 117.092 483.169 116.621 Q 483.791 116.167 483.791 115.421 Q 483.791 114.017 482.218 113.804 L 482.227 113.804 Q 482.005 113.777 481.805 113.75 Q 481.605 113.724 481.405 113.697 Q 481.205 113.67 480.996 113.639 Q 480.787 113.608 480.538 113.573 Q 479.703 113.457 479.05 113.15 Q 478.397 112.844 477.952 112.337 Q 477.508 111.822 477.286 111.213 Q 477.064 110.604 477.064 109.885 Q 477.064 108.196 478.183 107.139 Q 479.312 106.063 481.32 106.063 Q 481.916 106.063 482.48 106.165 Q 483.044 106.268 483.573 106.445 Q 484.102 106.623 484.586 106.868 Q 485.07 107.112 485.515 107.405 Q 485.604 107.467 485.541 107.556 L 484.466 109.147 Q 484.404 109.227 484.324 109.174 Q 483.631 108.738 482.849 108.476 Q 482.067 108.214 481.231 108.214 Q 480.805 108.214 480.441 108.316 Q 480.076 108.418 479.783 108.649 Q 479.205 109.067 479.205 109.92 Q 479.205 110.409 479.596 110.871 Q 479.792 111.084 480.121 111.231 Q 480.449 111.378 480.929 111.449 Q 481.187 111.493 481.534 111.542 Q 481.88 111.591 482.351 111.644 Q 484.173 111.866 485.053 112.986 Q 485.932 114.079 485.932 115.421 Q 485.932 117.216 484.679 118.229 Q 483.418 119.225 481.356 119.225 Q 478.45 119.225 476.415 117.447 Q 476.379 117.421 476.379 117.376 Q 476.379 117.332 476.406 117.296 Z M 487.955 115.848 Q 487.982 115.812 488.026 115.812 Q 488.07 115.812 488.106 115.839 Q 488.808 116.407 489.719 116.75 Q 490.63 117.092 491.643 117.092 Q 492.78 117.092 493.438 116.621 Q 494.06 116.167 494.06 115.421 Q 494.06 114.017 492.487 113.804 L 492.496 113.804 Q 492.274 113.777 492.074 113.75 Q 491.874 113.724 491.674 113.697 Q 491.474 113.67 491.265 113.639 Q 491.056 113.608 490.808 113.573 Q 489.972 113.457 489.319 113.15 Q 488.666 112.844 488.222 112.337 Q 487.777 111.822 487.555 111.213 Q 487.333 110.604 487.333 109.885 Q 487.333 108.196 488.453 107.139 Q 489.581 106.063 491.59 106.063 Q 492.185 106.063 492.749 106.165 Q 493.314 106.268 493.842 106.445 Q 494.371 106.623 494.855 106.868 Q 495.34 107.112 495.784 107.405 Q 495.873 107.467 495.811 107.556 L 494.736 109.147 Q 494.673 109.227 494.593 109.174 Q 493.9 108.738 493.118 108.476 Q 492.336 108.214 491.501 108.214 Q 491.074 108.214 490.71 108.316 Q 490.345 108.418 490.052 108.649 Q 489.475 109.067 489.475 109.92 Q 489.475 110.409 489.866 110.871 Q 490.061 111.084 490.39 111.231 Q 490.719 111.378 491.199 111.449 Q 491.456 111.493 491.803 111.542 Q 492.149 111.591 492.62 111.644 Q 494.442 111.866 495.322 112.986 Q 496.202 114.079 496.202 115.421 Q 496.202 117.216 494.949 118.229 Q 493.687 119.225 491.625 119.225 Q 488.719 119.225 486.684 117.447 Q 486.649 117.421 486.649 117.376 Q 486.649 117.332 486.675 117.296 Z M 500.21 119.118 Q 500.121 119.118 500.103 119.038 L 496.913 106.303 Q 496.895 106.25 496.93 106.21 Q 496.966 106.17 497.019 106.17 L 499.063 106.17 Q 499.152 106.17 499.17 106.25 L 501.089 114.95 Q 501.676 112.764 502.271 110.604 Q 502.867 108.445 503.462 106.25 Q 503.48 106.17 503.569 106.17 L 504.964 106.17 Q 505.044 106.17 505.062 106.25 L 507.443 114.95 Q 507.923 112.764 508.403 110.604 Q 508.883 108.445 509.363 106.25 Q 509.381 106.17 509.47 106.17 L 511.514 106.17 Q 511.567 106.17 511.602 106.21 Q 511.638 106.25 511.62 106.303 L 508.43 119.038 Q 508.412 119.118 508.323 119.118 L 506.715 119.118 Q 506.635 119.118 506.617 119.038 L 504.262 110.196 Q 503.676 112.426 503.089 114.621 Q 502.502 116.816 501.916 119.038 Q 501.898 119.118 501.818 119.118 Z M 511.535 119.109 Q 511.473 119.109 511.446 119.065 Q 511.42 119.02 511.438 118.967 L 516.094 106.223 Q 516.112 106.152 516.183 106.152 L 517.774 106.152 Q 517.8 106.152 517.832 106.174 Q 517.863 106.197 517.872 106.223 L 522.519 118.967 Q 522.537 119.02 522.51 119.065 Q 522.484 119.109 522.43 119.109 L 520.395 119.109 Q 520.324 119.109 520.307 119.038 L 519.347 116.23 L 514.655 116.23 Q 514.406 116.95 514.161 117.638 Q 513.917 118.327 513.668 119.038 Q 513.659 119.065 513.628 119.087 Q 513.597 119.109 513.57 119.109 Z M 518.707 114.319 Q 518.689 114.257 518.658 114.186 Q 518.627 114.115 518.609 114.061 Q 518.458 113.626 518.334 113.257 Q 518.209 112.888 518.112 112.613 Q 518.049 112.435 517.992 112.266 Q 517.934 112.097 517.88 111.946 Q 517.836 111.804 517.792 111.675 Q 517.747 111.546 517.703 111.422 Q 517.623 111.164 517.538 110.907 Q 517.454 110.649 517.365 110.373 Q 517.321 110.249 517.272 110.098 Q 517.223 109.947 517.17 109.778 Q 517.143 109.689 517.13 109.64 Q 517.116 109.591 517.098 109.542 Q 517.081 109.494 517.058 109.431 Q 517.036 109.369 517.001 109.254 Q 516.903 109.547 516.819 109.796 Q 516.734 110.045 516.663 110.258 Q 516.645 110.311 516.636 110.356 Q 516.627 110.4 516.61 110.444 Q 516.565 110.596 516.516 110.729 Q 516.467 110.862 516.423 110.995 Q 516.379 111.138 516.334 111.271 Q 516.29 111.404 516.245 111.529 Q 516.156 111.795 516.063 112.088 Q 515.97 112.382 515.854 112.702 Q 515.739 113.022 515.614 113.39 Q 515.49 113.759 515.294 114.319 Z M 525.502 119.118 Q 525.404 119.118 525.404 119.011 L 525.404 113.804 Q 524.444 111.929 523.493 110.062 Q 522.543 108.196 521.592 106.321 Q 521.565 106.259 521.592 106.214 Q 521.618 106.17 521.689 106.17 L 523.716 106.17 Q 523.742 106.17 523.769 106.192 Q 523.796 106.214 523.813 106.232 L 526.426 111.689 Q 527.084 110.311 527.728 108.96 Q 528.372 107.61 529.03 106.232 Q 529.048 106.214 529.074 106.192 Q 529.101 106.17 529.128 106.17 L 531.163 106.17 Q 531.234 106.17 531.26 106.214 Q 531.287 106.259 531.26 106.321 L 527.439 113.804 L 527.439 119.011 Q 527.439 119.118 527.333 119.118 Z" style="fill: rgb(255, 255, 255);"/>
    <path d="M 343.121 84.558 Q 343.193 84.558 343.241 84.612 Q 343.29 84.666 343.265 84.738 Q 342.761 87.189 341.031 88.51 Q 340.19 89.147 339.206 89.471 Q 338.221 89.795 337.079 89.795 Q 335.001 89.795 333.584 88.798 Q 332.191 87.813 331.566 86.636 Q 331.35 86.228 331.194 85.813 Q 331.038 85.399 330.953 84.942 Q 330.797 84.054 330.797 80.906 Q 330.797 79.333 330.833 78.336 Q 330.869 77.339 330.953 76.883 Q 331.038 76.426 331.194 76.006 Q 331.35 75.585 331.566 75.177 Q 332.191 74.012 333.584 73.015 Q 334.989 72.006 337.079 72.006 Q 339.578 72.006 341.211 73.543 Q 342.869 75.093 343.265 77.219 Q 343.29 77.291 343.241 77.339 Q 343.193 77.387 343.121 77.387 L 340.371 77.387 Q 340.263 77.387 340.239 77.291 Q 340.082 76.81 339.794 76.396 Q 339.506 75.982 339.085 75.621 Q 338.293 74.913 337.079 74.913 Q 336.179 74.913 335.542 75.273 Q 334.905 75.633 334.521 76.102 Q 334.293 76.39 334.125 76.756 Q 333.956 77.123 333.86 77.507 Q 333.764 77.916 333.728 78.768 Q 333.692 79.621 333.692 80.906 Q 333.692 82.216 333.728 83.063 Q 333.764 83.909 333.86 84.318 Q 333.956 84.69 334.131 85.057 Q 334.305 85.423 334.521 85.699 Q 334.905 86.204 335.542 86.558 Q 336.179 86.912 337.079 86.912 Q 339.157 86.912 340.239 84.642 Q 340.263 84.618 340.299 84.588 Q 340.335 84.558 340.371 84.558 Z M 348.152 89.651 Q 348.007 89.651 348.007 89.507 L 348.007 74.756 L 343.431 74.756 Q 343.287 74.756 343.287 74.612 L 343.287 72.294 Q 343.287 72.15 343.431 72.15 L 355.467 72.15 Q 355.611 72.15 355.611 72.294 L 355.611 74.612 Q 355.611 74.756 355.467 74.756 L 350.902 74.756 L 350.902 89.507 Q 350.902 89.651 350.758 89.651 Z M 355.978 89.651 Q 355.834 89.651 355.834 89.507 L 355.834 87.068 Q 355.834 86.924 355.978 86.924 L 358.429 86.924 Q 358.561 86.924 358.561 87.068 L 358.561 89.507 Q 358.561 89.651 358.429 89.651 Z M 366.925 77.327 Q 366.925 76.162 366.306 75.507 Q 365.688 74.853 364.655 74.853 Q 363.622 74.853 363.009 75.507 Q 362.397 76.162 362.397 77.327 L 362.397 84.594 Q 362.397 85.771 363.009 86.42 Q 363.622 87.068 364.655 87.068 Q 365.688 87.068 366.306 86.42 Q 366.925 85.771 366.925 84.594 Z M 359.658 77.183 Q 359.658 74.756 361.183 73.447 Q 362.697 72.114 364.655 72.114 Q 365.628 72.114 366.499 72.456 Q 367.369 72.799 368.126 73.447 Q 368.883 74.12 369.273 75.051 Q 369.664 75.982 369.664 77.183 L 369.664 84.738 Q 369.664 87.153 368.126 88.474 Q 366.613 89.795 364.655 89.795 Q 362.697 89.795 361.183 88.474 Q 359.658 87.165 359.658 84.738 Z M 374.697 89.687 Q 374.552 89.687 374.552 89.543 L 374.552 75.273 Q 374 75.681 373.447 76.096 Q 372.895 76.51 372.342 76.907 Q 372.258 76.967 372.186 76.925 Q 372.114 76.883 372.114 76.786 L 372.114 74.18 Q 372.114 74.156 372.132 74.12 Q 372.15 74.084 372.174 74.06 L 374.649 72.27 L 377.159 72.27 Q 377.303 72.27 377.303 72.414 L 377.303 89.543 Q 377.303 89.687 377.159 89.687 Z"/>
    <path d="M 395.706 174.374 Q 395.723 172.731 396.27 171.427 Q 396.818 170.124 397.814 169.194 Q 398.761 168.331 399.939 167.858 Q 401.118 167.385 402.413 167.385 Q 405.152 167.385 407.111 169.194 Q 409.087 171.021 409.137 174.391 L 409.137 184.85 Q 409.103 186.46 408.572 187.788 Q 408.041 189.116 407.111 190.029 Q 406.165 190.876 404.978 191.358 Q 403.791 191.839 402.413 191.872 Q 400.039 191.806 398.229 190.411 L 398.229 190.428 Q 397.283 189.697 396.694 188.676 Q 396.104 187.655 395.839 186.327 Q 395.806 186.244 395.864 186.178 Q 395.922 186.111 396.021 186.111 L 399.408 186.111 Q 399.524 186.111 399.591 186.244 Q 400.338 188.104 402.413 188.104 Q 405.351 188.087 405.468 184.667 L 405.468 182.692 Q 404.372 183.024 403.293 183.206 Q 402.214 183.389 401.267 183.356 Q 398.976 183.405 397.3 181.695 L 397.316 181.695 Q 395.673 180.052 395.706 176.566 Z M 399.392 176.532 Q 399.392 179.919 402.413 179.969 Q 405.368 179.919 405.468 176.532 L 405.468 174.59 Q 405.335 171.22 402.413 171.153 Q 399.408 171.236 399.392 174.59 Z M 422.168 174.573 Q 422.168 172.963 421.313 172.058 Q 420.458 171.153 419.031 171.153 Q 417.603 171.153 416.756 172.058 Q 415.909 172.963 415.909 174.573 L 415.909 184.617 Q 415.909 186.244 416.756 187.141 Q 417.603 188.037 419.031 188.037 Q 420.458 188.037 421.313 187.141 Q 422.168 186.244 422.168 184.617 Z M 412.124 174.374 Q 412.124 171.021 414.233 169.211 Q 416.324 167.368 419.031 167.368 Q 420.375 167.368 421.579 167.841 Q 422.782 168.315 423.828 169.211 Q 424.874 170.141 425.414 171.427 Q 425.953 172.714 425.953 174.374 L 425.953 184.817 Q 425.953 188.153 423.828 189.98 Q 421.737 191.806 419.031 191.806 Q 416.324 191.806 414.233 189.98 Q 412.124 188.17 412.124 184.817 Z"/>
    <path d="M 505.004 174.391 Q 505.021 172.731 505.568 171.427 Q 506.116 170.124 507.112 169.194 Q 508.059 168.331 509.237 167.858 Q 510.416 167.385 511.711 167.385 Q 514.068 167.385 515.978 168.796 Q 517.771 170.224 518.318 172.913 Q 518.352 173.013 518.285 173.079 Q 518.219 173.146 518.119 173.146 L 514.716 173.146 Q 514.583 173.146 514.533 173.029 Q 513.786 171.203 511.694 171.153 Q 508.689 171.236 508.689 174.607 L 508.689 176.566 Q 509.769 176.25 510.839 176.068 Q 511.91 175.885 512.873 175.902 Q 515.197 175.902 516.857 177.528 Q 518.451 179.205 518.435 182.692 L 518.435 184.85 Q 518.385 188.253 516.409 190.029 Q 514.55 191.789 511.711 191.872 Q 508.955 191.789 507.112 190.046 Q 505.021 188.22 505.004 184.866 Z M 508.689 184.667 Q 508.706 188.07 511.711 188.104 Q 514.649 188.087 514.766 184.667 L 514.766 182.725 Q 514.633 179.355 511.711 179.288 Q 508.706 179.371 508.689 182.725 Z M 531.134 174.573 Q 531.134 172.963 530.279 172.058 Q 529.424 171.153 527.997 171.153 Q 526.569 171.153 525.722 172.058 Q 524.875 172.963 524.875 174.573 L 524.875 184.617 Q 524.875 186.244 525.722 187.141 Q 526.569 188.037 527.997 188.037 Q 529.424 188.037 530.279 187.141 Q 531.134 186.244 531.134 184.617 Z M 521.09 174.374 Q 521.09 171.021 523.199 169.211 Q 525.29 167.368 527.997 167.368 Q 529.341 167.368 530.545 167.841 Q 531.748 168.315 532.794 169.211 Q 533.84 170.141 534.38 171.427 Q 534.919 172.714 534.919 174.374 L 534.919 184.817 Q 534.919 188.153 532.794 189.98 Q 530.703 191.806 527.997 191.806 Q 525.29 191.806 523.199 189.98 Q 521.09 188.17 521.09 184.817 Z" style="fill: rgb(255, 255, 255);"/>
  </g>
</svg>