<?xml version="1.0" encoding="utf-8"?>
<svg viewBox="0 0 323.14914 200" xmlns="http://www.w3.org/2000/svg">
  <g id="layer1" transform="matrix(0.9999999999999999, 0, 0, 0.9999999999999999, -303.4596862792969, -22.960700988769517)">
    <path id="rect15575" style="opacity:1;fill:#0a9646;fill-opacity:1;fill-rule:evenodd;stroke-width:0.0420687;stroke-linecap:square;stroke-miterlimit:10;paint-order:stroke fill markers" d="M 303.45966,22.960701 H 626.6088 V 222.9607 H 303.45966 Z"/>
    <path transform="matrix(0.26458333,0,0,0.26458333,303.45966,22.960701)" d="m 30.353516,5.0117188 c -13.808655,0 -25.0781254,11.2674112 -25.0781254,25.0761722 v 332.957029 47.1211 49.04296 13.88672 252.45508 c 0,13.80862 11.2694704,25.06641 25.0781254,25.06641 H 1190.9805 c 13.8086,0 25.0781,-11.25779 25.0781,-25.06641 V 473.0957 459.57031 401.94727 363.04492 30.087891 c 0,-13.808761 -11.2695,-25.0761722 -25.0781,-25.0761722 z m 0,9.4511722 H 1190.9805 c 8.7398,0 15.6425,6.885058 15.6425,15.625 v 332.957029 38.90235 c 0,0.29959 -0.013,0.61475 -0.037,0.9375 v 7.20703 c 0,8.68754 -6.9941,15.68164 -15.6816,15.68164 h -8.0762 c -0.1869,0.007 -0.3766,0.0176 -0.5586,0.0176 H 38.023438 c -0.18105,0 -0.371847,-0.0102 -0.560547,-0.0176 h -7.097657 c -8.687546,0 -15.68164,-6.9941 -15.68164,-15.68164 V 30.152344 c 0,-1.658433 0.257595,-3.253829 0.730468,-4.751953 0.01365,-0.04461 0.03284,-0.08643 0.04688,-0.13086 1.99686,-6.321925 7.84094,-10.80664 14.892578,-10.80664 z M 30.28125,435.30469 h 6.958984 1145.628866 8.1172 c 8.6414,0 15.5996,6.95633 15.5996,15.59765 v 7.5918 c 0.024,0.37296 0.037,0.7339 0.037,1.07617 v 13.52539 252.45508 c 0,5.47634 -2.7106,10.22208 -6.8847,13.00391 -2.4923,1.6862 -5.5034,2.66992 -8.752,2.66992 H 30.28125 c -8.641361,0 -15.597656,-6.9563 -15.597656,-15.59766 V 450.90234 c 0,-8.64132 6.956295,-15.59765 15.597656,-15.59765 z" style="color:#000000;font-style:normal;font-variant:normal;font-weight:normal;font-stretch:normal;font-size:medium;line-height:normal;font-family:sans-serif;font-variant-ligatures:normal;font-variant-position:normal;font-variant-caps:normal;font-variant-numeric:normal;font-variant-alternates:normal;font-variant-east-asian:normal;font-feature-settings:normal;font-variation-settings:normal;text-indent:0;text-align:start;text-decoration:none;text-decoration-line:none;text-decoration-style:solid;text-decoration-color:#000000;letter-spacing:normal;word-spacing:normal;text-transform:none;writing-mode:lr-tb;direction:ltr;text-orientation:mixed;dominant-baseline:auto;baseline-shift:baseline;text-anchor:start;white-space:normal;shape-padding:0;shape-margin:0;inline-size:0;clip-rule:nonzero;display:inline;overflow:visible;visibility:visible;opacity:1;isolation:auto;mix-blend-mode:normal;color-interpolation:sRGB;color-interpolation-filters:linearRGB;solid-color:#000000;solid-opacity:1;vector-effect:none;fill:#ffffff;fill-opacity:1;fill-rule:evenodd;stroke:none;stroke-width:2.09199;stroke-linecap:square;stroke-linejoin:miter;stroke-miterlimit:10;stroke-dasharray:none;stroke-dashoffset:0;stroke-opacity:1;paint-order:stroke fill markers;color-rendering:auto;image-rendering:auto;shape-rendering:auto;text-rendering:auto;enable-background:accumulate;stop-color:#000000;stop-opacity:1" id="path15582"/>
    <path d="m 324.12038,67.193614 h 60.89334 v 27.821331 h -60.89334 z" style="opacity:1;fill:#ffd70f;fill-opacity:1;fill-rule:evenodd;stroke:none;stroke-width:0.553508;stroke-linecap:square;stroke-miterlimit:10;stroke-dasharray:none;stroke-opacity:1;paint-order:stroke fill markers" id="rect15605"/>
    <path id="path15631" d="m 326.18273,67.759747 c -0.81115,0 -1.47443,0.660164 -1.47443,1.471307 v 23.746432 c 0,0.811142 0.66328,1.471323 1.47443,1.471323 h 56.7905 c 0.81117,0 1.4744,-0.660181 1.4744,-1.471323 V 69.231054 c 0,-0.811143 -0.66328,-1.471307 -1.4744,-1.471307 z m 0,0.535017 h 56.7905 c 0.52266,0 0.93627,0.413622 0.93627,0.93629 v 23.746432 c 0,0.522654 -0.41353,0.933189 -0.93627,0.933189 h -56.7905 c -0.52266,0 -0.93628,-0.410555 -0.93628,-0.933189 V 69.231054 c 0,-0.522672 0.41354,-0.93629 0.93628,-0.93629 z" style="color:#000000;font-style:normal;font-variant:normal;font-weight:normal;font-stretch:normal;font-size:medium;line-height:normal;font-family:sans-serif;font-variant-ligatures:normal;font-variant-position:normal;font-variant-caps:normal;font-variant-numeric:normal;font-variant-alternates:normal;font-variant-east-asian:normal;font-feature-settings:normal;font-variation-settings:normal;text-indent:0;text-align:start;text-decoration:none;text-decoration-line:none;text-decoration-style:solid;text-decoration-color:#000000;letter-spacing:normal;word-spacing:normal;text-transform:none;writing-mode:lr-tb;direction:ltr;text-orientation:mixed;dominant-baseline:auto;baseline-shift:baseline;text-anchor:start;white-space:normal;shape-padding:0;shape-margin:0;inline-size:0;clip-rule:nonzero;display:inline;overflow:visible;visibility:visible;opacity:1;isolation:auto;mix-blend-mode:normal;color-interpolation:sRGB;color-interpolation-filters:linearRGB;solid-color:#000000;solid-opacity:1;vector-effect:none;fill:#000000;fill-opacity:1;fill-rule:evenodd;stroke:none;stroke-width:0.119062;stroke-linecap:square;stroke-linejoin:miter;stroke-miterlimit:10;stroke-dasharray:none;stroke-dashoffset:0;stroke-opacity:1;paint-order:stroke fill markers;color-rendering:auto;image-rendering:auto;shape-rendering:auto;text-rendering:auto;enable-background:accumulate;stop-color:#000000;stop-opacity:1"/>
    <path d="m 336.88947,72.205604 c -1.36961,0 -2.51552,0.330332 -3.43646,0.991507 -0.91309,0.653335 -1.5737,1.361798 -1.98303,2.125328 -0.14189,0.267612 -0.264,0.538688 -0.36613,0.814199 -0.10264,0.275473 -0.18065,0.564078 -0.23555,0.86321 -0.0552,0.299089 -0.0954,0.774434 -0.11873,1.427765 -0.0223,0.653332 -0.0362,1.495435 -0.0362,2.5266 0,2.062321 0.0516,3.383536 0.15387,3.966025 0.0552,0.299136 0.13326,0.587702 0.23556,0.863193 0.10264,0.267612 0.22467,0.534915 0.36612,0.802543 0.40948,0.771411 1.06995,1.479875 1.983,2.125324 0.92887,0.653346 2.07472,0.979855 3.43649,0.979855 0.74779,0 1.44489,-0.107189 2.09034,-0.319632 0.64544,-0.212556 1.24303,-0.525333 1.79403,-0.942508 1.1335,-0.865864 1.86473,-2.103628 2.19533,-3.709419 0.0139,-0.04714 0.009,-0.08518 -0.0223,-0.116745 -0.0315,-0.03928 -0.0694,-0.05829 -0.11656,-0.05829 h -2.70394 c -0.0223,1.5e-5 -0.0488,0.01117 -0.0722,0.03521 -0.0223,0.01589 -0.0451,0.0307 -0.0582,0.0467 -0.70836,1.487712 -1.74338,2.232636 -3.10515,2.232636 -0.59037,0 -1.09454,-0.11468 -1.51174,-0.342928 -0.41713,-0.236167 -0.75132,-0.520933 -1.00317,-0.851551 -0.14189,-0.181028 -0.27124,-0.389065 -0.3896,-0.625222 -0.11008,-0.244 -0.19597,-0.488524 -0.25924,-0.732545 -0.0628,-0.267611 -0.10709,-0.67614 -0.13048,-1.227141 -0.0223,-0.558871 -0.0359,-1.267326 -0.0359,-2.125325 0,-0.842249 0.009,-1.543133 0.0359,-2.102004 0.0223,-0.55887 0.0677,-0.97117 0.13048,-1.238798 0.0627,-0.251917 0.14857,-0.496392 0.25924,-0.732549 0.11009,-0.244 0.24028,-0.45965 0.3896,-0.64857 0.252,-0.30699 0.58598,-0.580386 1.00317,-0.816526 0.41715,-0.236167 0.92137,-0.352269 1.51174,-0.352269 0.79503,1.7e-5 1.45185,0.230844 1.97135,0.695231 0.27541,0.236167 0.50863,0.492045 0.69757,0.767539 0.18872,0.267667 0.33407,0.560022 0.4361,0.874867 0.0167,0.06294 0.0599,0.09333 0.13046,0.09333 h 2.7039 c 0.0468,0 0.0854,-0.01589 0.11658,-0.0467 0.0315,-0.03161 0.0407,-0.07184 0.0223,-0.118954 -0.25952,-1.393235 -0.93175,-2.595995 -2.01801,-3.611427 -1.07052,-1.007535 -2.42438,-1.511744 -4.0617,-1.511744 z m 27.73422,0.104956 c -1.28304,0 -2.4213,0.437369 -3.41313,1.311121 -0.99967,0.858 -1.50005,2.08205 -1.50005,3.672071 v 7.425818 c 0,1.590021 0.50038,2.814088 1.50005,3.672088 0.99183,0.865851 2.13009,1.299446 3.41313,1.299446 1.28303,0 2.42133,-0.433578 3.41313,-1.299446 1.00756,-0.86587 1.50938,-2.089917 1.50938,-3.672088 v -7.425818 c 0,-0.787127 -0.1299,-1.484222 -0.38959,-2.09033 -0.252,-0.613979 -0.62389,-1.140934 -1.11979,-1.581741 -0.49592,-0.425045 -1.03279,-0.74779 -1.6074,-0.968177 -0.56674,-0.22825 -1.16816,-0.342924 -1.80573,-0.342924 z m -21.12261,0.03521 c -0.0943,0 -0.14217,0.04776 -0.14217,0.142392 v 2.279298 c 0,0.09444 0.0479,0.142197 0.14217,0.142197 h 4.49793 V 89.409 c 0,0.09444 0.0479,0.139995 0.14217,0.139995 h 2.5616 c 0.0945,0 0.14217,-0.04555 0.14217,-0.139995 V 74.909653 h 4.48625 c 0.0943,0 0.14217,-0.04778 0.14217,-0.142196 v -2.279299 c 0,-0.09444 -0.0479,-0.142392 -0.14217,-0.142392 z m 31.22667,0.118953 -2.43331,1.759064 c -0.0139,0.01589 -0.0315,0.03477 -0.0466,0.05829 -0.009,0.02341 -0.0139,0.04468 -0.0139,0.06068 v 2.561593 c 0,0.06294 0.0278,0.110694 0.0728,0.142196 0.0468,0.02343 0.0989,0.01617 0.15388,-0.02343 0.36208,-0.259778 0.7228,-0.523245 1.08486,-0.790886 0.36206,-0.275473 0.72509,-0.548889 1.08714,-0.816528 v 14.028096 c 0,0.09444 0.048,0.142198 0.14217,0.142198 h 2.41929 c 0.0943,0 0.13994,-0.04778 0.13994,-0.142198 V 72.606811 c 0,-0.09444 -0.0455,-0.142197 -0.13994,-0.142197 z m -10.10406,2.538257 c 0.67694,0 1.21532,0.217964 1.61673,0.650912 0.40948,0.425045 0.61359,1.018854 0.61359,1.782378 v 7.143522 c 0,0.771407 -0.20461,1.368982 -0.61359,1.794059 -0.40133,0.425045 -0.93979,0.63689 -1.61673,0.63689 -0.67695,0 -1.21527,-0.211859 -1.61671,-0.63689 -0.40134,-0.425091 -0.60428,-1.022652 -0.60428,-1.794059 v -7.143497 c 0,-0.763524 0.20266,-1.357335 0.60428,-1.782377 0.40133,-0.432946 0.93976,-0.650913 1.61671,-0.650913 z m -9.98507,11.865445 c -0.0945,0 -0.14217,0.04776 -0.14217,0.14239 v 2.398281 c 0,0.09444 0.0479,0.139994 0.14217,0.139994 h 2.40762 c 0.0867,0 0.13046,-0.04555 0.13046,-0.139994 v -2.398281 c 0,-0.09444 -0.0451,-0.14239 -0.13046,-0.14239 z" style="font-style: normal; font-variant: normal; font-weight: normal; font-stretch: normal; font-size: 15.1831px; line-height: 1.46; font-family: 'Alte DIN 1451 Mittelschrift gepraegt'; text-align: center; text-anchor: middle; opacity: 1; fill-opacity: 1; stroke-width: 0.264584; visibility: hidden;" id="path15637"/>
    <path id="path17496" style="font-size:15.1831px;line-height:1.46;font-family:'Singapore Road Signs';-inkscape-font-specification:'Singapore Road Signs';text-align:center;text-anchor:middle;opacity:1;fill:#ffffff;fill-opacity:1;stroke-width:0.0756548" d="m 570.47468,59.120043 v 50.614317 h 35.43541 V 59.120043 Z m 1.38203,1.660034 h 32.65274 v 47.566083 h -32.65274 z m 13.66823,3.646909 -2.23483,8.869719 h 3.92184 l 0.28216,-8.869719 z m 3.35329,0 0.28216,8.869719 h 3.92385 l -2.23686,-8.869719 z m -15.90932,9.992316 v 1.942234 l 3.06692,1.10806 v 0.584703 h 1.411 v -0.584703 c 0,0 2.08662,-0.313671 4.52568,-0.535349 1.95306,-0.177516 4.1317,-0.271988 5.64407,-0.278037 1.79866,-0.0063 4.45804,0.09363 6.73975,0.288436 2.51319,0.214479 4.5713,0.524984 4.5713,0.524984 v 0.5847 h 1.38199 v -0.5847 l 3.06685,-1.108064 v -1.942233 z m 9.21108,3.620663 -6.70448,26.681115 h 10.04943 l 1.39442,-26.681115 z m 7.25642,0 1.39441,26.681115 h 10.0494 l -6.70443,-26.681115 z"/>
    <g style="font-size:14.7905px;line-height:0;font-family:'Singapore Road Signs';-inkscape-font-specification:'Singapore Road Signs';text-align:center;text-anchor:middle;opacity:1;fill:#860000;fill-opacity:1;stroke-width:6.45213" id="layer1-8" transform="matrix(0.08718024,0,0,0.08718024,-145.22047,195.49013)">
      <circle style="opacity:1;fill:#f00a0a;fill-opacity:1;fill-rule:nonzero;stroke:none;stroke-width:3622.55;stroke-linecap:round;stroke-linejoin:round;stroke-miterlimit:4;stroke-dasharray:none;stroke-opacity:1;paint-order:stroke fill markers" id="path815" cx="6380.9966" cy="-193.29752" r="350"/>
      <circle cy="-193.29752" cx="6380.9966" id="circle817" style="opacity:1;fill:#ffffff;fill-opacity:1;fill-rule:nonzero;stroke:none;stroke-width:2587.55;stroke-linecap:round;stroke-linejoin:round;stroke-miterlimit:4;stroke-dasharray:none;stroke-opacity:1;paint-order:stroke fill markers" r="263.821"/>
      <g aria-label="20 " style="font-style:normal;font-variant:normal;font-weight:bold;font-stretch:normal;font-size:414.864px;line-height:0;font-family:Giaothong1;-inkscape-font-specification:'Giaothong1 Bold';letter-spacing:0px;word-spacing:0px;fill:#000000;fill-opacity:1;stroke:none;stroke-width:24.7849" id="text874" transform="matrix(-1,0,0,1,1299.029,-383.45)">
        <g aria-label="90" transform="translate(2310.2259,387.54849)" style="font-style:normal;font-variant:normal;font-weight:bold;font-stretch:normal;font-size:414.864px;line-height:0;font-family:Giaothong1;-inkscape-font-specification:'Giaothong1 Bold';letter-spacing:0px;word-spacing:0px;fill:#000000;fill-opacity:1;stroke:none;stroke-width:53.5539" id="text844"/>
      </g>
    </g>
    <g style="font-size:14.7905px;line-height:0;font-family:'Singapore Road Signs';-inkscape-font-specification:'Singapore Road Signs';text-align:center;text-anchor:middle;opacity:1;fill:#fff000;fill-opacity:1;stroke-width:6.45221" id="layer1-7" transform="matrix(0.08717968,0,0,0.08717968,488.77841,183.34565)">
      <circle cy="-54" cx="351" id="circle817-6" style="opacity:1;fill:#0046aa;fill-opacity:1;fill-rule:nonzero;stroke:none;stroke-width:3622.58;stroke-linecap:round;stroke-linejoin:round;stroke-miterlimit:4;stroke-dasharray:none;stroke-opacity:1;paint-order:stroke fill markers" r="350"/>
      <path id="rect984" style="font-style: normal; font-variant: normal; font-weight: bold; font-stretch: normal; font-size: 414.864px; line-height: 0; font-family: Giaothong1; letter-spacing: 0px; word-spacing: 0px; opacity: 1; fill: rgb(255, 255, 255); fill-opacity: 1; fill-rule: nonzero; stroke: none; stroke-width: 0.344279; stroke-linecap: round; stroke-linejoin: miter; stroke-miterlimit: 10; stroke-dasharray: none; stroke-opacity: 1; paint-order: stroke; visibility: hidden;" d="m 851.18164,518.03906 c -16.32678,0 -29.4707,13.14393 -29.4707,29.47071 v 80.94921 c 0,16.32678 13.14392,29.47071 29.4707,29.47071 16.32678,0 29.4707,-13.14393 29.4707,-29.47071 v -80.94921 c 0,-16.32678 -13.14392,-29.47071 -29.4707,-29.47071 z m -69.94336,1.23828 -26.10937,69.75391 c -2.72781,7.40406 -3.70118,11.30112 -3.70118,28.44727 0,18.12042 0.7789,22.01697 4.67579,28.25195 5.26075,8.37828 14.22308,13.44336 24.93945,13.44336 10.91123,0 20.0688,-4.87023 25.13476,-13.44336 3.70197,-6.23498 4.48047,-10.13153 4.48047,-28.25195 0,-22.01726 -0.77798,-26.88814 -4.28515,-32.34375 -3.31232,-5.06591 -9.74347,-8.96289 -16.75782,-8.96289 -4.28653,0 -7.01308,0.77773 -8.37695,1.75195 l -0.39062,-0.38867 22.60156,-58.25782 z m 69.94336,18.74024 c 5.25853,0 9.49219,4.23365 9.49219,9.49219 v 80.94921 c 0,5.25853 -4.23366,9.49219 -9.49219,9.49219 -5.25853,0 -9.49219,-4.23366 -9.49219,-9.49219 v -80.94921 c 0,-5.25854 4.23366,-9.49219 9.49219,-9.49219 z m -70.13867,55.68945 c 5.0659,0 9.74219,3.89738 9.74219,9.9375 v 25.71875 c 0,6.04012 -4.67629,9.9375 -9.74219,9.9375 -5.0659,0 -9.74219,-3.89738 -9.74219,-9.9375 v -25.71875 c 0,-6.04012 4.67629,-9.9375 9.74219,-9.9375 z" transform="matrix(3.0349198,0,0,3.0349198,-2125.7104,-1839.7056)"/>
    </g>
    <g aria-label="6" id="text19759" style="font-size:31.1478px;line-height:1.3;font-family:'Singapore Road Signs';-inkscape-font-specification:'Singapore Road Signs';text-align:center;text-anchor:middle;stroke-width:0.159861" transform="matrix(1.6550836,0,0,1.6550836,-321.31659,-238.56049)"/>
    <path d="M 366.198 36.013 L 366.198 39.862 L 368.931 39.862 Q 369.942 39.862 370.434 39.256 Q 370.935 38.667 370.935 37.937 Q 370.935 36.848 370.162 36.347 Q 369.661 36.013 368.861 36.013 Z M 364.185 46.797 Q 364.08 46.797 364.08 46.691 L 364.08 34.097 Q 364.08 33.991 364.185 33.991 L 368.756 33.991 Q 369.511 33.991 370.188 34.149 Q 370.874 34.308 371.647 34.905 Q 371.946 35.142 372.197 35.454 Q 372.447 35.767 372.649 36.144 Q 372.843 36.531 372.948 36.997 Q 373.053 37.463 373.053 37.99 Q 373.053 39.37 372.016 40.627 Q 370.979 41.875 369.002 41.875 L 366.198 41.875 L 366.198 46.691 Q 366.198 46.797 366.093 46.797 Z M 381.762 46.797 Q 381.657 46.797 381.657 46.691 L 381.657 41.295 L 376.867 41.295 L 376.867 46.691 Q 376.867 46.797 376.761 46.797 L 374.854 46.797 Q 374.749 46.797 374.749 46.691 L 374.749 34.097 Q 374.749 33.991 374.854 33.991 L 376.761 33.991 Q 376.867 33.991 376.867 34.097 L 376.867 39.388 L 381.657 39.388 L 381.657 34.097 Q 381.657 33.991 381.762 33.991 L 383.669 33.991 Q 383.775 33.991 383.775 34.097 L 383.775 46.691 Q 383.775 46.797 383.669 46.797 Z M 385.277 46.788 Q 385.216 46.788 385.189 46.744 Q 385.163 46.7 385.18 46.647 L 389.786 34.044 Q 389.803 33.974 389.874 33.974 L 391.447 33.974 Q 391.473 33.974 391.504 33.996 Q 391.535 34.017 391.544 34.044 L 396.14 46.647 Q 396.158 46.7 396.132 46.744 Q 396.105 46.788 396.053 46.788 L 394.04 46.788 Q 393.97 46.788 393.952 46.718 L 393.003 43.94 L 388.362 43.94 Q 388.116 44.652 387.874 45.333 Q 387.633 46.015 387.387 46.718 Q 387.378 46.744 387.347 46.766 Q 387.316 46.788 387.29 46.788 Z M 392.37 42.051 Q 392.352 41.989 392.322 41.919 Q 392.291 41.849 392.273 41.796 Q 392.124 41.365 392.001 41 Q 391.878 40.636 391.781 40.363 Q 391.72 40.187 391.662 40.02 Q 391.605 39.853 391.553 39.704 Q 391.509 39.563 391.465 39.436 Q 391.421 39.309 391.377 39.185 Q 391.298 38.931 391.214 38.676 Q 391.131 38.421 391.043 38.148 Q 390.999 38.025 390.95 37.876 Q 390.902 37.726 390.849 37.559 Q 390.823 37.472 390.81 37.423 Q 390.797 37.375 390.779 37.327 Q 390.762 37.278 390.74 37.217 Q 390.718 37.155 390.682 37.041 Q 390.586 37.331 390.502 37.577 Q 390.419 37.823 390.348 38.034 Q 390.331 38.087 390.322 38.131 Q 390.313 38.175 390.296 38.219 Q 390.252 38.368 390.203 38.5 Q 390.155 38.632 390.111 38.764 Q 390.067 38.904 390.023 39.036 Q 389.979 39.168 389.935 39.291 Q 389.847 39.555 389.755 39.845 Q 389.663 40.135 389.549 40.451 Q 389.434 40.767 389.311 41.132 Q 389.188 41.497 388.995 42.051 Z M 397.731 46.797 Q 397.626 46.797 397.626 46.691 L 397.626 34.097 Q 397.626 33.991 397.731 33.991 L 399.542 33.991 Q 399.594 33.991 399.63 34.044 L 405.167 42.763 L 405.167 34.097 Q 405.167 33.991 405.272 33.991 L 407.188 33.991 Q 407.294 33.991 407.294 34.097 L 407.294 46.691 Q 407.294 46.797 407.188 46.797 L 405.386 46.797 Q 405.334 46.797 405.299 46.744 L 399.744 38.025 L 399.744 46.691 Q 399.744 46.797 399.647 46.797 Z M 416.522 46.797 Q 416.416 46.797 416.416 46.691 L 416.416 35.898 L 413.068 35.898 Q 412.962 35.898 412.962 35.793 L 412.962 34.097 Q 412.962 33.991 413.068 33.991 L 421.874 33.991 Q 421.98 33.991 421.98 34.097 L 421.98 35.793 Q 421.98 35.898 421.874 35.898 L 418.534 35.898 L 418.534 46.691 Q 418.534 46.797 418.429 46.797 Z M 430.275 46.797 Q 430.17 46.797 430.17 46.691 L 430.17 41.295 L 425.38 41.295 L 425.38 46.691 Q 425.38 46.797 425.274 46.797 L 423.367 46.797 Q 423.262 46.797 423.262 46.691 L 423.262 34.097 Q 423.262 33.991 423.367 33.991 L 425.274 33.991 Q 425.38 33.991 425.38 34.097 L 425.38 39.388 L 430.17 39.388 L 430.17 34.097 Q 430.17 33.991 430.275 33.991 L 432.182 33.991 Q 432.288 33.991 432.288 34.097 L 432.288 46.691 Q 432.288 46.797 432.182 46.797 Z M 435.003 46.797 Q 434.898 46.797 434.898 46.691 L 434.898 34.097 Q 434.898 33.991 435.003 33.991 L 436.91 33.991 Q 437.016 33.991 437.016 34.097 L 437.016 46.691 Q 437.016 46.797 436.91 46.797 Z M 439.671 46.797 Q 439.566 46.797 439.566 46.691 L 439.566 34.097 Q 439.566 33.991 439.671 33.991 L 447.722 33.991 Q 447.828 33.991 447.828 34.097 L 447.828 35.907 Q 447.828 36.013 447.722 36.013 L 441.684 36.013 L 441.684 39.388 L 446.817 39.388 Q 446.922 39.388 446.922 39.493 L 446.922 41.198 Q 446.922 41.295 446.817 41.295 L 441.684 41.295 L 441.684 44.793 L 447.722 44.793 Q 447.828 44.793 447.828 44.898 L 447.828 46.691 Q 447.828 46.797 447.722 46.797 Z M 440.524 32.857 Q 440.445 32.857 440.427 32.787 Q 440.41 32.717 440.462 32.673 L 443.046 30.625 L 444.233 30.625 L 446.852 32.673 Q 446.914 32.717 446.892 32.787 Q 446.87 32.857 446.79 32.857 L 445.314 32.857 L 443.556 31.908 Q 443.169 32.145 442.774 32.383 Q 442.378 32.62 441.992 32.857 Z M 445.56 31.574 Q 445.49 31.574 445.468 31.526 Q 445.446 31.477 445.472 31.416 L 447.309 28.85 Q 447.344 28.797 447.397 28.797 L 449.331 28.797 Q 449.401 28.797 449.432 28.858 Q 449.462 28.92 449.41 28.973 L 446.984 31.539 Q 446.975 31.548 446.949 31.561 Q 446.922 31.574 446.905 31.574 Z M 451.844 46.797 Q 451.738 46.797 451.738 46.691 L 451.738 35.898 L 448.39 35.898 Q 448.284 35.898 448.284 35.793 L 448.284 34.097 Q 448.284 33.991 448.39 33.991 L 457.196 33.991 Q 457.302 33.991 457.302 34.097 L 457.302 35.793 Q 457.302 35.898 457.196 35.898 L 453.856 35.898 L 453.856 46.691 Q 453.856 46.797 453.751 46.797 Z" transform="matrix(1.310387, 0, 0, 1.310387, -59.698296, -1.169035)" style="fill: rgb(255, 255, 255);"/>
    <path transform="matrix(1.310387, 0, 0, 1.310387, -59.698296, -1.169035)" style="fill: rgb(255, 255, 255);"/>
    <path d="M 374.112 72.357 Q 374.007 72.357 374.007 72.251 L 374.007 59.657 Q 374.007 59.551 374.112 59.551 L 378.524 59.551 Q 381.161 59.551 382.444 61.722 Q 382.682 62.144 382.831 62.522 Q 382.98 62.9 383.033 63.26 Q 383.139 63.963 383.139 65.958 Q 383.139 68.094 382.989 68.824 Q 382.919 69.193 382.778 69.54 Q 382.638 69.887 382.409 70.23 L 382.409 70.221 Q 381.838 71.126 380.827 71.742 Q 379.799 72.357 378.401 72.357 Z M 376.125 61.573 L 376.125 70.353 L 378.313 70.353 Q 379.825 70.353 380.563 69.298 Q 380.853 68.832 380.933 68.323 Q 380.977 68.041 380.998 67.474 Q 381.02 66.908 381.02 66.029 Q 381.02 65.176 380.994 64.605 Q 380.968 64.034 380.924 63.7 Q 380.836 63.084 380.476 62.583 Q 379.728 61.573 378.313 61.573 Z M 384.209 72.348 Q 384.147 72.348 384.121 72.304 Q 384.095 72.26 384.112 72.207 L 388.718 59.604 Q 388.735 59.534 388.806 59.534 L 390.379 59.534 Q 390.405 59.534 390.436 59.556 Q 390.467 59.577 390.475 59.604 L 395.072 72.207 Q 395.09 72.26 395.063 72.304 Q 395.037 72.348 394.984 72.348 L 392.972 72.348 Q 392.901 72.348 392.884 72.278 L 391.934 69.5 L 387.294 69.5 Q 387.048 70.212 386.806 70.893 Q 386.564 71.575 386.318 72.278 Q 386.309 72.304 386.279 72.326 Q 386.248 72.348 386.222 72.348 Z M 391.302 67.611 Q 391.284 67.549 391.253 67.479 Q 391.223 67.409 391.205 67.356 Q 391.056 66.925 390.932 66.56 Q 390.809 66.196 390.713 65.923 Q 390.651 65.747 390.594 65.58 Q 390.537 65.413 390.484 65.264 Q 390.44 65.123 390.396 64.996 Q 390.352 64.868 390.308 64.745 Q 390.229 64.491 390.146 64.236 Q 390.062 63.981 389.974 63.708 Q 389.931 63.585 389.882 63.436 Q 389.834 63.286 389.781 63.119 Q 389.755 63.032 389.742 62.983 Q 389.728 62.935 389.711 62.887 Q 389.693 62.838 389.671 62.777 Q 389.649 62.715 389.614 62.601 Q 389.517 62.891 389.434 63.137 Q 389.35 63.383 389.28 63.594 Q 389.263 63.647 389.254 63.691 Q 389.245 63.735 389.227 63.779 Q 389.183 63.928 389.135 64.06 Q 389.087 64.192 389.043 64.324 Q 388.999 64.464 388.955 64.596 Q 388.911 64.728 388.867 64.851 Q 388.779 65.115 388.687 65.405 Q 388.595 65.695 388.48 66.011 Q 388.366 66.327 388.243 66.692 Q 388.12 67.057 387.927 67.611 Z M 386.459 58.417 Q 386.38 58.417 386.362 58.347 Q 386.345 58.277 386.397 58.233 L 388.981 56.185 L 390.168 56.185 L 392.787 58.233 Q 392.849 58.277 392.827 58.347 Q 392.805 58.417 392.725 58.417 L 391.249 58.417 L 389.491 57.468 Q 389.104 57.705 388.709 57.943 Q 388.313 58.18 387.927 58.417 Z M 392.62 57.134 Q 392.602 57.134 392.576 57.121 Q 392.55 57.108 392.541 57.099 L 390.115 54.533 Q 390.062 54.48 390.093 54.418 Q 390.124 54.357 390.194 54.357 L 392.128 54.357 Q 392.181 54.357 392.216 54.41 L 394.053 56.976 Q 394.079 57.037 394.057 57.086 Q 394.035 57.134 393.965 57.134 Z M 396.329 59.657 Q 396.329 59.551 396.434 59.551 L 398.35 59.551 Q 398.447 59.551 398.447 59.657 L 398.447 67.778 Q 398.447 69.043 399.15 69.694 Q 399.862 70.353 400.917 70.353 Q 401.954 70.353 402.666 69.694 Q 403.378 69.035 403.378 67.778 L 403.378 59.657 Q 403.378 59.551 403.483 59.551 L 405.39 59.551 Q 405.496 59.551 405.496 59.657 L 405.496 67.989 Q 405.496 70.01 404.151 71.241 Q 402.824 72.462 400.917 72.462 Q 399.001 72.462 397.665 71.241 Q 396.329 70.01 396.329 67.989 Z M 416.404 67.233 Q 416.298 67.233 416.298 67.127 L 416.298 65.317 Q 416.298 65.22 416.404 65.22 L 420.877 65.22 Q 420.983 65.22 420.983 65.317 L 420.983 67.883 Q 420.983 69.826 419.647 71.135 Q 418.293 72.462 416.386 72.462 Q 414.866 72.462 413.829 71.733 Q 412.809 71.012 412.352 70.151 L 412.361 70.151 Q 412.194 69.852 412.08 69.549 Q 411.965 69.245 411.904 68.911 Q 411.851 68.577 411.82 67.844 Q 411.79 67.11 411.79 65.958 Q 411.79 64.807 411.82 64.077 Q 411.851 63.348 411.904 63.014 Q 411.965 62.68 412.08 62.372 Q 412.194 62.065 412.361 61.766 L 412.352 61.766 Q 412.809 60.913 413.829 60.184 Q 414.857 59.446 416.386 59.446 Q 418.214 59.446 419.41 60.571 Q 420.623 61.696 420.913 63.26 Q 420.93 63.313 420.895 63.348 Q 420.86 63.383 420.807 63.383 L 418.794 63.383 Q 418.715 63.383 418.698 63.313 Q 418.584 62.961 418.373 62.658 Q 418.162 62.355 417.854 62.091 Q 417.274 61.573 416.386 61.573 Q 415.727 61.573 415.261 61.836 Q 414.795 62.1 414.514 62.443 Q 414.347 62.654 414.224 62.922 Q 414.101 63.19 414.031 63.471 Q 413.96 63.77 413.934 64.394 Q 413.908 65.018 413.908 65.958 Q 413.908 66.916 413.934 67.536 Q 413.96 68.156 414.031 68.454 Q 414.101 68.727 414.229 68.995 Q 414.356 69.263 414.514 69.465 Q 414.795 69.834 415.261 70.094 Q 415.727 70.353 416.386 70.353 Q 417.432 70.353 418.144 69.641 Q 418.865 68.929 418.865 67.778 L 418.865 67.233 Z M 423.266 72.357 Q 423.161 72.357 423.161 72.251 L 423.161 59.657 Q 423.161 59.551 423.266 59.551 L 425.173 59.551 Q 425.279 59.551 425.279 59.657 L 425.279 72.251 Q 425.279 72.357 425.173 72.357 Z M 426.695 72.348 Q 426.634 72.348 426.607 72.304 Q 426.581 72.26 426.598 72.207 L 431.204 59.604 Q 431.221 59.534 431.292 59.534 L 432.865 59.534 Q 432.891 59.534 432.922 59.556 Q 432.953 59.577 432.962 59.604 L 437.558 72.207 Q 437.576 72.26 437.55 72.304 Q 437.523 72.348 437.47 72.348 L 435.458 72.348 Q 435.387 72.348 435.37 72.278 L 434.421 69.5 L 429.78 69.5 Q 429.534 70.212 429.292 70.893 Q 429.051 71.575 428.804 72.278 Q 428.796 72.304 428.765 72.326 Q 428.734 72.348 428.708 72.348 Z M 433.788 67.611 Q 433.77 67.549 433.74 67.479 Q 433.709 67.409 433.691 67.356 Q 433.542 66.925 433.419 66.56 Q 433.296 66.196 433.199 65.923 Q 433.137 65.747 433.08 65.58 Q 433.023 65.413 432.97 65.264 Q 432.927 65.123 432.883 64.996 Q 432.839 64.868 432.795 64.745 Q 432.716 64.491 432.632 64.236 Q 432.549 63.981 432.461 63.708 Q 432.417 63.585 432.368 63.436 Q 432.32 63.286 432.267 63.119 Q 432.241 63.032 432.228 62.983 Q 432.215 62.935 432.197 62.887 Q 432.179 62.838 432.157 62.777 Q 432.135 62.715 432.1 62.601 Q 432.004 62.891 431.92 63.137 Q 431.837 63.383 431.766 63.594 Q 431.749 63.647 431.74 63.691 Q 431.731 63.735 431.714 63.779 Q 431.67 63.928 431.621 64.06 Q 431.573 64.192 431.529 64.324 Q 431.485 64.464 431.441 64.596 Q 431.397 64.728 431.353 64.851 Q 431.265 65.115 431.173 65.405 Q 431.081 65.695 430.967 66.011 Q 430.852 66.327 430.729 66.692 Q 430.606 67.057 430.413 67.611 Z M 428.945 58.417 Q 428.866 58.417 428.848 58.347 Q 428.831 58.277 428.884 58.233 L 431.468 56.185 L 432.654 56.185 L 435.273 58.233 Q 435.335 58.277 435.313 58.347 Q 435.291 58.417 435.212 58.417 L 433.735 58.417 L 431.977 57.468 Q 431.591 57.705 431.195 57.943 Q 430.8 58.18 430.413 58.417 Z M 441.654 72.357 Q 441.557 72.357 441.557 72.251 L 441.557 67.101 Q 440.608 65.246 439.668 63.401 Q 438.727 61.555 437.787 59.701 Q 437.76 59.639 437.787 59.595 Q 437.813 59.551 437.884 59.551 L 439.887 59.551 Q 439.914 59.551 439.94 59.573 Q 439.967 59.595 439.984 59.613 L 442.568 65.009 Q 443.218 63.647 443.856 62.311 Q 444.493 60.975 445.143 59.613 Q 445.161 59.595 445.187 59.573 Q 445.214 59.551 445.24 59.551 L 447.253 59.551 Q 447.323 59.551 447.349 59.595 Q 447.376 59.639 447.349 59.701 L 443.57 67.101 L 443.57 72.251 Q 443.57 72.357 443.465 72.357 Z" transform="matrix(1.310387, 0, 0, 1.310387, -59.698296, -1.169035)" style="fill: rgb(255, 255, 255);"/>
    <path d="M 426.152 119.118 Q 426.045 119.118 426.045 119.011 L 426.045 106.277 Q 426.045 106.17 426.152 106.17 L 434.292 106.17 Q 434.399 106.17 434.399 106.277 L 434.399 108.107 Q 434.399 108.214 434.292 108.214 L 428.187 108.214 L 428.187 111.626 L 433.377 111.626 Q 433.484 111.626 433.484 111.733 L 433.484 113.457 Q 433.484 113.555 433.377 113.555 L 428.187 113.555 L 428.187 117.092 L 434.292 117.092 Q 434.399 117.092 434.399 117.198 L 434.399 119.011 Q 434.399 119.118 434.292 119.118 Z M 442.572 119.118 Q 442.518 119.118 442.483 119.065 L 439.781 114.479 Q 439.106 115.634 438.43 116.772 Q 437.755 117.909 437.08 119.065 Q 437.044 119.118 436.991 119.118 L 434.813 119.118 Q 434.742 119.118 434.716 119.069 Q 434.689 119.02 434.725 118.958 L 438.59 112.48 Q 437.675 110.933 436.777 109.405 Q 435.88 107.876 434.973 106.33 Q 434.938 106.268 434.964 106.219 Q 434.991 106.17 435.053 106.17 L 437.239 106.17 Q 437.293 106.17 437.328 106.223 L 439.781 110.489 Q 440.394 109.422 441.007 108.361 Q 441.621 107.299 442.234 106.223 Q 442.269 106.17 442.323 106.17 L 444.509 106.17 Q 444.571 106.17 444.598 106.219 Q 444.624 106.268 444.589 106.33 L 440.972 112.48 Q 441.949 114.106 442.909 115.719 Q 443.869 117.332 444.847 118.958 Q 444.882 119.02 444.855 119.069 Q 444.829 119.118 444.758 119.118 Z M 448.15 108.214 L 448.15 112.106 L 450.914 112.106 Q 451.936 112.106 452.434 111.493 Q 452.94 110.898 452.94 110.16 Q 452.94 109.058 452.158 108.552 Q 451.652 108.214 450.843 108.214 Z M 446.115 119.118 Q 446.009 119.118 446.009 119.011 L 446.009 106.277 Q 446.009 106.17 446.115 106.17 L 450.736 106.17 Q 451.501 106.17 452.185 106.33 Q 452.878 106.49 453.66 107.094 Q 453.962 107.334 454.216 107.65 Q 454.469 107.965 454.673 108.347 Q 454.869 108.738 454.975 109.209 Q 455.082 109.68 455.082 110.213 Q 455.082 111.609 454.033 112.879 Q 452.985 114.141 450.985 114.141 L 448.15 114.141 L 448.15 119.011 Q 448.15 119.118 448.044 119.118 Z M 458.77 108.098 L 458.77 111.751 L 461.587 111.751 Q 462.618 111.751 463.133 111.182 Q 463.649 110.613 463.649 109.831 Q 463.649 109.387 463.493 109.04 Q 463.338 108.694 463.045 108.472 Q 462.787 108.294 462.445 108.196 Q 462.103 108.098 461.703 108.098 Z M 456.735 119.118 Q 456.628 119.118 456.628 119.011 L 456.628 106.277 Q 456.628 106.17 456.735 106.17 L 461.72 106.17 Q 462.547 106.17 463.213 106.397 Q 463.88 106.623 464.378 107.041 Q 464.635 107.281 464.871 107.587 Q 465.106 107.894 465.288 108.249 Q 465.471 108.605 465.577 109.005 Q 465.684 109.405 465.684 109.831 Q 465.684 110.462 465.506 111.027 Q 465.328 111.591 465.009 112.08 Q 464.68 112.533 464.244 112.875 Q 463.809 113.217 463.258 113.422 Q 463.978 114.799 464.706 116.19 Q 465.435 117.58 466.155 118.958 Q 466.182 119.02 466.155 119.069 Q 466.128 119.118 466.066 119.118 L 463.773 119.118 Q 463.747 119.118 463.72 119.096 Q 463.693 119.073 463.676 119.056 L 461.072 113.679 L 458.77 113.679 L 458.77 119.011 Q 458.77 119.118 458.663 119.118 Z M 467.661 119.118 Q 467.554 119.118 467.554 119.011 L 467.554 106.277 Q 467.554 106.17 467.661 106.17 L 475.801 106.17 Q 475.908 106.17 475.908 106.277 L 475.908 108.107 Q 475.908 108.214 475.801 108.214 L 469.696 108.214 L 469.696 111.626 L 474.886 111.626 Q 474.992 111.626 474.992 111.733 L 474.992 113.457 Q 474.992 113.555 474.886 113.555 L 469.696 113.555 L 469.696 117.092 L 475.801 117.092 Q 475.908 117.092 475.908 117.198 L 475.908 119.011 Q 475.908 119.118 475.801 119.118 Z M 477.686 115.848 Q 477.712 115.812 477.757 115.812 Q 477.801 115.812 477.837 115.839 Q 478.539 116.407 479.45 116.75 Q 480.361 117.092 481.374 117.092 Q 482.511 117.092 483.169 116.621 Q 483.791 116.167 483.791 115.421 Q 483.791 114.017 482.218 113.804 L 482.227 113.804 Q 482.005 113.777 481.805 113.75 Q 481.605 113.724 481.405 113.697 Q 481.205 113.67 480.996 113.639 Q 480.787 113.608 480.538 113.573 Q 479.703 113.457 479.05 113.15 Q 478.397 112.844 477.952 112.337 Q 477.508 111.822 477.286 111.213 Q 477.064 110.604 477.064 109.885 Q 477.064 108.196 478.183 107.139 Q 479.312 106.063 481.32 106.063 Q 481.916 106.063 482.48 106.165 Q 483.044 106.268 483.573 106.445 Q 484.102 106.623 484.586 106.868 Q 485.07 107.112 485.515 107.405 Q 485.604 107.467 485.541 107.556 L 484.466 109.147 Q 484.404 109.227 484.324 109.174 Q 483.631 108.738 482.849 108.476 Q 482.067 108.214 481.231 108.214 Q 480.805 108.214 480.441 108.316 Q 480.076 108.418 479.783 108.649 Q 479.205 109.067 479.205 109.92 Q 479.205 110.409 479.596 110.871 Q 479.792 111.084 480.121 111.231 Q 480.449 111.378 480.929 111.449 Q 481.187 111.493 481.534 111.542 Q 481.88 111.591 482.351 111.644 Q 484.173 111.866 485.053 112.986 Q 485.932 114.079 485.932 115.421 Q 485.932 117.216 484.679 118.229 Q 483.418 119.225 481.356 119.225 Q 478.45 119.225 476.415 117.447 Q 476.379 117.421 476.379 117.376 Q 476.379 117.332 476.406 117.296 Z M 487.955 115.848 Q 487.982 115.812 488.026 115.812 Q 488.07 115.812 488.106 115.839 Q 488.808 116.407 489.719 116.75 Q 490.63 117.092 491.643 117.092 Q 492.78 117.092 493.438 116.621 Q 494.06 116.167 494.06 115.421 Q 494.06 114.017 492.487 113.804 L 492.496 113.804 Q 492.274 113.777 492.074 113.75 Q 491.874 113.724 491.674 113.697 Q 491.474 113.67 491.265 113.639 Q 491.056 113.608 490.808 113.573 Q 489.972 113.457 489.319 113.15 Q 488.666 112.844 488.222 112.337 Q 487.777 111.822 487.555 111.213 Q 487.333 110.604 487.333 109.885 Q 487.333 108.196 488.453 107.139 Q 489.581 106.063 491.59 106.063 Q 492.185 106.063 492.749 106.165 Q 493.314 106.268 493.842 106.445 Q 494.371 106.623 494.855 106.868 Q 495.34 107.112 495.784 107.405 Q 495.873 107.467 495.811 107.556 L 494.736 109.147 Q 494.673 109.227 494.593 109.174 Q 493.9 108.738 493.118 108.476 Q 492.336 108.214 491.501 108.214 Q 491.074 108.214 490.71 108.316 Q 490.345 108.418 490.052 108.649 Q 489.475 109.067 489.475 109.92 Q 489.475 110.409 489.866 110.871 Q 490.061 111.084 490.39 111.231 Q 490.719 111.378 491.199 111.449 Q 491.456 111.493 491.803 111.542 Q 492.149 111.591 492.62 111.644 Q 494.442 111.866 495.322 112.986 Q 496.202 114.079 496.202 115.421 Q 496.202 117.216 494.949 118.229 Q 493.687 119.225 491.625 119.225 Q 488.719 119.225 486.684 117.447 Q 486.649 117.421 486.649 117.376 Q 486.649 117.332 486.675 117.296 Z M 500.21 119.118 Q 500.121 119.118 500.103 119.038 L 496.913 106.303 Q 496.895 106.25 496.93 106.21 Q 496.966 106.17 497.019 106.17 L 499.063 106.17 Q 499.152 106.17 499.17 106.25 L 501.089 114.95 Q 501.676 112.764 502.271 110.604 Q 502.867 108.445 503.462 106.25 Q 503.48 106.17 503.569 106.17 L 504.964 106.17 Q 505.044 106.17 505.062 106.25 L 507.443 114.95 Q 507.923 112.764 508.403 110.604 Q 508.883 108.445 509.363 106.25 Q 509.381 106.17 509.47 106.17 L 511.514 106.17 Q 511.567 106.17 511.602 106.21 Q 511.638 106.25 511.62 106.303 L 508.43 119.038 Q 508.412 119.118 508.323 119.118 L 506.715 119.118 Q 506.635 119.118 506.617 119.038 L 504.262 110.196 Q 503.676 112.426 503.089 114.621 Q 502.502 116.816 501.916 119.038 Q 501.898 119.118 501.818 119.118 Z M 511.535 119.109 Q 511.473 119.109 511.446 119.065 Q 511.42 119.02 511.438 118.967 L 516.094 106.223 Q 516.112 106.152 516.183 106.152 L 517.774 106.152 Q 517.8 106.152 517.832 106.174 Q 517.863 106.197 517.872 106.223 L 522.519 118.967 Q 522.537 119.02 522.51 119.065 Q 522.484 119.109 522.43 119.109 L 520.395 119.109 Q 520.324 119.109 520.307 119.038 L 519.347 116.23 L 514.655 116.23 Q 514.406 116.95 514.161 117.638 Q 513.917 118.327 513.668 119.038 Q 513.659 119.065 513.628 119.087 Q 513.597 119.109 513.57 119.109 Z M 518.707 114.319 Q 518.689 114.257 518.658 114.186 Q 518.627 114.115 518.609 114.061 Q 518.458 113.626 518.334 113.257 Q 518.209 112.888 518.112 112.613 Q 518.049 112.435 517.992 112.266 Q 517.934 112.097 517.88 111.946 Q 517.836 111.804 517.792 111.675 Q 517.747 111.546 517.703 111.422 Q 517.623 111.164 517.538 110.907 Q 517.454 110.649 517.365 110.373 Q 517.321 110.249 517.272 110.098 Q 517.223 109.947 517.17 109.778 Q 517.143 109.689 517.13 109.64 Q 517.116 109.591 517.098 109.542 Q 517.081 109.494 517.058 109.431 Q 517.036 109.369 517.001 109.254 Q 516.903 109.547 516.819 109.796 Q 516.734 110.045 516.663 110.258 Q 516.645 110.311 516.636 110.356 Q 516.627 110.4 516.61 110.444 Q 516.565 110.596 516.516 110.729 Q 516.467 110.862 516.423 110.995 Q 516.379 111.138 516.334 111.271 Q 516.29 111.404 516.245 111.529 Q 516.156 111.795 516.063 112.088 Q 515.97 112.382 515.854 112.702 Q 515.739 113.022 515.614 113.39 Q 515.49 113.759 515.294 114.319 Z M 525.502 119.118 Q 525.404 119.118 525.404 119.011 L 525.404 113.804 Q 524.444 111.929 523.493 110.062 Q 522.543 108.196 521.592 106.321 Q 521.565 106.259 521.592 106.214 Q 521.618 106.17 521.689 106.17 L 523.716 106.17 Q 523.742 106.17 523.769 106.192 Q 523.796 106.214 523.813 106.232 L 526.426 111.689 Q 527.084 110.311 527.728 108.96 Q 528.372 107.61 529.03 106.232 Q 529.048 106.214 529.074 106.192 Q 529.101 106.17 529.128 106.17 L 531.163 106.17 Q 531.234 106.17 531.26 106.214 Q 531.287 106.259 531.26 106.321 L 527.439 113.804 L 527.439 119.011 Q 527.439 119.118 527.333 119.118 Z" style="fill: rgb(255, 255, 255);"/>
    <path d="M 343.121 84.558 Q 343.193 84.558 343.241 84.612 Q 343.29 84.666 343.265 84.738 Q 342.761 87.189 341.031 88.51 Q 340.19 89.147 339.206 89.471 Q 338.221 89.795 337.079 89.795 Q 335.001 89.795 333.584 88.798 Q 332.191 87.813 331.566 86.636 Q 331.35 86.228 331.194 85.813 Q 331.038 85.399 330.953 84.942 Q 330.797 84.054 330.797 80.906 Q 330.797 79.333 330.833 78.336 Q 330.869 77.339 330.953 76.883 Q 331.038 76.426 331.194 76.006 Q 331.35 75.585 331.566 75.177 Q 332.191 74.012 333.584 73.015 Q 334.989 72.006 337.079 72.006 Q 339.578 72.006 341.211 73.543 Q 342.869 75.093 343.265 77.219 Q 343.29 77.291 343.241 77.339 Q 343.193 77.387 343.121 77.387 L 340.371 77.387 Q 340.263 77.387 340.239 77.291 Q 340.082 76.81 339.794 76.396 Q 339.506 75.982 339.085 75.621 Q 338.293 74.913 337.079 74.913 Q 336.179 74.913 335.542 75.273 Q 334.905 75.633 334.521 76.102 Q 334.293 76.39 334.125 76.756 Q 333.956 77.123 333.86 77.507 Q 333.764 77.916 333.728 78.768 Q 333.692 79.621 333.692 80.906 Q 333.692 82.216 333.728 83.063 Q 333.764 83.909 333.86 84.318 Q 333.956 84.69 334.131 85.057 Q 334.305 85.423 334.521 85.699 Q 334.905 86.204 335.542 86.558 Q 336.179 86.912 337.079 86.912 Q 339.157 86.912 340.239 84.642 Q 340.263 84.618 340.299 84.588 Q 340.335 84.558 340.371 84.558 Z M 348.152 89.651 Q 348.007 89.651 348.007 89.507 L 348.007 74.756 L 343.431 74.756 Q 343.287 74.756 343.287 74.612 L 343.287 72.294 Q 343.287 72.15 343.431 72.15 L 355.467 72.15 Q 355.611 72.15 355.611 72.294 L 355.611 74.612 Q 355.611 74.756 355.467 74.756 L 350.902 74.756 L 350.902 89.507 Q 350.902 89.651 350.758 89.651 Z M 355.978 89.651 Q 355.834 89.651 355.834 89.507 L 355.834 87.068 Q 355.834 86.924 355.978 86.924 L 358.429 86.924 Q 358.561 86.924 358.561 87.068 L 358.561 89.507 Q 358.561 89.651 358.429 89.651 Z M 366.925 77.327 Q 366.925 76.162 366.306 75.507 Q 365.688 74.853 364.655 74.853 Q 363.622 74.853 363.009 75.507 Q 362.397 76.162 362.397 77.327 L 362.397 84.594 Q 362.397 85.771 363.009 86.42 Q 363.622 87.068 364.655 87.068 Q 365.688 87.068 366.306 86.42 Q 366.925 85.771 366.925 84.594 Z M 359.658 77.183 Q 359.658 74.756 361.183 73.447 Q 362.697 72.114 364.655 72.114 Q 365.628 72.114 366.499 72.456 Q 367.369 72.799 368.126 73.447 Q 368.883 74.12 369.273 75.051 Q 369.664 75.982 369.664 77.183 L 369.664 84.738 Q 369.664 87.153 368.126 88.474 Q 366.613 89.795 364.655 89.795 Q 362.697 89.795 361.183 88.474 Q 359.658 87.165 359.658 84.738 Z M 374.697 89.687 Q 374.552 89.687 374.552 89.543 L 374.552 75.273 Q 374 75.681 373.447 76.096 Q 372.895 76.51 372.342 76.907 Q 372.258 76.967 372.186 76.925 Q 372.114 76.883 372.114 76.786 L 372.114 74.18 Q 372.114 74.156 372.132 74.12 Q 372.15 74.084 372.174 74.06 L 374.649 72.27 L 377.159 72.27 Q 377.303 72.27 377.303 72.414 L 377.303 89.543 Q 377.303 89.687 377.159 89.687 Z"/>
    <path d="M 394.303 191.656 Q 394.104 191.656 394.104 191.457 L 394.104 171.735 Q 393.34 172.299 392.576 172.872 Q 391.813 173.444 391.049 173.992 Q 390.933 174.075 390.833 174.017 Q 390.734 173.959 390.734 173.826 L 390.734 170.224 Q 390.734 170.191 390.759 170.141 Q 390.783 170.091 390.817 170.058 L 394.237 167.584 L 397.706 167.584 Q 397.906 167.584 397.906 167.783 L 397.906 191.457 Q 397.906 191.656 397.706 191.656 Z M 401.305 191.607 Q 401.106 191.607 401.106 191.407 L 401.106 188.17 L 410.403 176.532 L 410.403 176.549 Q 410.918 175.902 411.067 175.362 Q 411.216 174.822 411.216 174.308 Q 411.216 173.162 410.386 172.15 Q 409.556 171.153 408.145 171.153 Q 406.85 171.153 405.904 172.033 Q 405.439 172.465 405.198 173.054 Q 404.958 173.644 404.891 174.391 Q 404.891 174.474 404.833 174.524 Q 404.775 174.573 404.692 174.573 L 401.305 174.573 Q 401.106 174.573 401.106 174.374 Q 401.139 171.419 403.115 169.41 Q 405.124 167.368 407.896 167.368 Q 410.901 167.368 412.96 169.427 L 412.943 169.427 Q 414.985 171.469 414.985 174.341 Q 414.985 175.586 414.62 176.649 Q 414.255 177.711 413.524 178.624 L 413.524 178.608 Q 412.578 179.803 411.665 180.948 Q 410.752 182.094 409.839 183.231 Q 408.925 184.368 408.012 185.506 Q 407.099 186.643 406.153 187.838 L 414.786 187.838 Q 414.985 187.838 414.985 188.037 L 414.985 191.407 Q 414.985 191.607 414.786 191.607 Z M 427.672 174.573 Q 427.672 172.963 426.817 172.058 Q 425.962 171.153 424.534 171.153 Q 423.106 171.153 422.26 172.058 Q 421.413 172.963 421.413 174.573 L 421.413 184.617 Q 421.413 186.244 422.26 187.141 Q 423.106 188.037 424.534 188.037 Q 425.962 188.037 426.817 187.141 Q 427.672 186.244 427.672 184.617 Z M 417.628 174.374 Q 417.628 171.021 419.736 169.211 Q 421.828 167.368 424.534 167.368 Q 425.879 167.368 427.082 167.841 Q 428.286 168.315 429.332 169.211 Q 430.378 170.141 430.917 171.427 Q 431.457 172.714 431.457 174.374 L 431.457 184.817 Q 431.457 188.153 429.332 189.98 Q 427.24 191.806 424.534 191.806 Q 421.828 191.806 419.736 189.98 Q 417.628 188.17 417.628 184.817 Z"/>
    <path d="M 505.004 174.391 Q 505.021 172.731 505.568 171.427 Q 506.116 170.124 507.112 169.194 Q 508.059 168.331 509.237 167.858 Q 510.416 167.385 511.711 167.385 Q 514.068 167.385 515.978 168.796 Q 517.771 170.224 518.318 172.913 Q 518.352 173.013 518.285 173.079 Q 518.219 173.146 518.119 173.146 L 514.716 173.146 Q 514.583 173.146 514.533 173.029 Q 513.786 171.203 511.694 171.153 Q 508.689 171.236 508.689 174.607 L 508.689 176.566 Q 509.769 176.25 510.839 176.068 Q 511.91 175.885 512.873 175.902 Q 515.197 175.902 516.857 177.528 Q 518.451 179.205 518.435 182.692 L 518.435 184.85 Q 518.385 188.253 516.409 190.029 Q 514.55 191.789 511.711 191.872 Q 508.955 191.789 507.112 190.046 Q 505.021 188.22 505.004 184.866 Z M 508.689 184.667 Q 508.706 188.07 511.711 188.104 Q 514.649 188.087 514.766 184.667 L 514.766 182.725 Q 514.633 179.355 511.711 179.288 Q 508.706 179.371 508.689 182.725 Z M 531.134 174.573 Q 531.134 172.963 530.279 172.058 Q 529.424 171.153 527.997 171.153 Q 526.569 171.153 525.722 172.058 Q 524.875 172.963 524.875 174.573 L 524.875 184.617 Q 524.875 186.244 525.722 187.141 Q 526.569 188.037 527.997 188.037 Q 529.424 188.037 530.279 187.141 Q 531.134 186.244 531.134 184.617 Z M 521.09 174.374 Q 521.09 171.021 523.199 169.211 Q 525.29 167.368 527.997 167.368 Q 529.341 167.368 530.545 167.841 Q 531.748 168.315 532.794 169.211 Q 533.84 170.141 534.38 171.427 Q 534.919 172.714 534.919 174.374 L 534.919 184.817 Q 534.919 188.153 532.794 189.98 Q 530.703 191.806 527.997 191.806 Q 525.29 191.806 523.199 189.98 Q 521.09 188.17 521.09 184.817 Z" style="fill: rgb(255, 255, 255);"/>
  </g>
</svg>