<?xml version="1.0" encoding="UTF-8" standalone="no"?>
<!-- Created with Inkscape (http://www.inkscape.org/) -->

<svg
   xmlns:dc="http://purl.org/dc/elements/1.1/"
   xmlns:cc="http://creativecommons.org/ns#"
   xmlns:rdf="http://www.w3.org/1999/02/22-rdf-syntax-ns#"
   xmlns:svg="http://www.w3.org/2000/svg"
   xmlns="http://www.w3.org/2000/svg"
   xmlns:sodipodi="http://sodipodi.sourceforge.net/DTD/sodipodi-0.dtd"
   xmlns:inkscape="http://www.inkscape.org/namespaces/inkscape"
   width="1400mm"
   height="1000mm"
   viewBox="0 0 1400 1000"
   version="1.1"
   id="svg848"
   inkscape:version="0.92.2 (5c3e80d, 2017-08-06)"
   sodipodi:docname="11.svg">
  <defs
     id="defs842" />
  <sodipodi:namedview
     id="base"
     pagecolor="#ffffff"
     bordercolor="#666666"
     borderopacity="1.0"
     inkscape:pageopacity="0.0"
     inkscape:pageshadow="2"
     inkscape:zoom="0.087487575"
     inkscape:cx="2509.3993"
     inkscape:cy="260.70741"
     inkscape:document-units="mm"
     inkscape:current-layer="layer1"
     showgrid="false"
     inkscape:snap-global="false"
     inkscape:window-width="1920"
     inkscape:window-height="1057"
     inkscape:window-x="-8"
     inkscape:window-y="-8"
     inkscape:window-maximized="1"
     fit-margin-top="0"
     fit-margin-left="0"
     fit-margin-right="0"
     fit-margin-bottom="0"
     showguides="false"
     inkscape:measure-start="0,0"
     inkscape:measure-end="0,0" />
  <metadata
     id="metadata845">
    <rdf:RDF>
      <cc:Work
         rdf:about="">
        <dc:format>image/svg+xml</dc:format>
        <dc:type
           rdf:resource="http://purl.org/dc/dcmitype/StillImage" />
        <dc:title></dc:title>
      </cc:Work>
    </rdf:RDF>
  </metadata>
  <g
     inkscape:label="Layer 1"
     inkscape:groupmode="layer"
     id="layer1"
     transform="translate(0,703)">
    <rect
       style="opacity:1;fill:#0046aa;fill-opacity:1;fill-rule:nonzero;stroke:none;stroke-width:5.01537561;stroke-linecap:butt;stroke-linejoin:miter;stroke-miterlimit:10;stroke-dasharray:none;stroke-opacity:1;paint-order:stroke fill markers"
       id="rect1393"
       width="1400"
       height="1000"
       x="0"
       y="-703" />
    <rect
       y="-698"
       x="5"
       height="990"
       width="1390"
       id="rect1395"
       style="opacity:1;fill:#ffffff;fill-opacity:1;fill-rule:nonzero;stroke:none;stroke-width:4.97238159;stroke-linecap:butt;stroke-linejoin:miter;stroke-miterlimit:10;stroke-dasharray:none;stroke-opacity:1;paint-order:stroke fill markers" />
    <rect
       y="-688"
       x="15"
       height="970"
       width="1370"
       id="rect1406"
       style="opacity:1;fill:#0046aa;fill-opacity:1;fill-rule:nonzero;stroke:none;stroke-width:4.8863616;stroke-linecap:butt;stroke-linejoin:miter;stroke-miterlimit:10;stroke-dasharray:none;stroke-opacity:1;paint-order:stroke fill markers" />
    <path
       cx="150"
       cy="147"
       r="150"
       id="path8376"
       style="opacity:1;fill:#d35f5f;fill-opacity:1;fill-rule:nonzero;stroke:none;stroke-width:3.92256045;stroke-linecap:butt;stroke-linejoin:miter;stroke-miterlimit:4;stroke-dasharray:none;stroke-opacity:1;paint-order:stroke fill markers"
       d=""
       inkscape:connector-curvature="0" />
    <g
       aria-label="VỊNH"
       style="font-style:normal;font-variant:normal;font-weight:bold;font-stretch:normal;font-size:299.85394287px;line-height:0;font-family:Giaothong1;-inkscape-font-specification:'Giaothong1 Bold';letter-spacing:0px;word-spacing:0px;fill:#ff7f2a;fill-opacity:1;stroke:none;stroke-width:1.56173933"
       id="text3577"
       transform="translate(-4496.0426,1545.3861)">
      <g
         aria-label="VỊNH"
         style="font-style:normal;font-variant:normal;font-weight:bold;font-stretch:normal;font-size:299.85391235px;line-height:0;font-family:Giaothong1;-inkscape-font-specification:'Giaothong1 Bold';letter-spacing:-2.78077078px;word-spacing:0px;fill:#ff7f2a;fill-opacity:1;stroke:none;stroke-width:2.43902946"
         id="text3665">
        <path
           d="m 5036.8918,-1848.3861 -40.8492,-200.0002 h 30.0147 l 22.9868,138.7995 23.7189,-138.7995 h 30.3075 l -41.7277,200.0002 z"
           style="letter-spacing:-2.78077078px;fill:#ffffff;fill-opacity:1;stroke:none;stroke-width:2.43902946"
           id="path3688"
           inkscape:connector-curvature="0" />
        <path
           d="m 5117.7129,-1848.3861 v -200.0002 h 28.2577 v 200.0002 z m 1.9034,47.145 v -24.451 h 24.451 v 24.451 z"
           style="letter-spacing:-2.78077078px;fill:#ffffff;fill-opacity:1;stroke:none;stroke-width:2.43902946"
           id="path3690"
           inkscape:connector-curvature="0" />
        <path
           d="m 5247.8711,-1848.3861 -44.656,-121.3764 v 121.3764 h -28.5505 v -200.0002 h 26.94 l 44.3631,121.0835 v -121.0835 h 28.5506 v 200.0002 z"
           style="letter-spacing:-2.78077078px;fill:#ffffff;fill-opacity:1;stroke:none;stroke-width:2.43902946"
           id="path3692"
           inkscape:connector-curvature="0" />
        <path
           d="m 5303.0699,-1848.3861 v -200.0002 h 28.2577 v 85.5052 h 36.4568 v -85.5052 h 28.2578 v 200.0002 h -28.2578 v -89.312 h -36.4568 v 89.312 z"
           style="letter-spacing:-2.78077078px;fill:#ffffff;fill-opacity:1;stroke:none;stroke-width:2.43902946"
           id="path3694"
           inkscape:connector-curvature="0" />
      </g>
    </g>
    <g
       aria-label="HẠ LONG"
       style="font-style:normal;font-variant:normal;font-weight:bold;font-stretch:normal;font-size:442.01452637px;line-height:0;font-family:Giaothong1;-inkscape-font-specification:'Giaothong1 Bold';letter-spacing:0px;word-spacing:0px;fill:#ff7f2a;fill-opacity:1;stroke:none;stroke-width:2.30215907"
       id="text3581"
       transform="translate(1503.5243,144.97135)">
      <path
         d="M -1353.5243,-50.561773 V -345.38201 h 41.6547 v 126.0432 h 53.741 v -126.0432 h 41.6547 v 294.820237 h -41.6547 V -182.21649 h -53.741 v 131.654717 z"
         style="fill:#ffffff;fill-opacity:1;stroke:none;stroke-width:2.30215907"
         id="path3650"
         inkscape:connector-curvature="0" />
      <path
         d="m -1192.9487,-50.561773 65.8273,-294.820237 h 36.6907 l 65.8273,294.820237 h -45.1079 l -11.8705,-63.237427 h -54.8202 l -11.8705,63.237427 z m 64.1007,-102.518017 h 39.7122 l -19.8561,-107.48205 z m 2.1583,172.01444 v -36.04318 h 36.0431 v 36.04318 z"
         style="fill:#ffffff;fill-opacity:1;stroke:none;stroke-width:2.30215907"
         id="path3652"
         inkscape:connector-curvature="0" />
      <path
         d="M -798.48875,-50.561773 H -924.1003 V -345.38201 h 42.08634 v 252.302238 h 83.52521 z"
         style="fill:#ffffff;fill-opacity:1;stroke:none;stroke-width:2.30215907"
         id="path3654"
         inkscape:connector-curvature="0" />
      <path
         d="m -756.83404,-317.54027 q 10.14389,-14.24461 25.68346,-22.23023 15.53958,-8.20144 32.37411,-8.20144 16.18706,0 30.6475,6.69065 14.46043,6.47482 23.95684,18.1295 9.4964,11.43886 12.94964,23.30936 3.45324,11.87051 3.45324,26.11512 v 150.21587 q 0,13.3813 -2.3741,23.30936 -2.3741,9.928064 -10.35972,22.230226 -7.98561,12.302162 -23.52518,21.151086 -15.32375,8.848923 -33.45325,8.848923 -20.71943,0 -38.20145,-10.575542 -17.48202,-10.575543 -24.3885,-23.956842 -6.90648,-13.597127 -8.20144,-21.798571 -1.29496,-8.20144 -1.29496,-19.20864 v -150.21587 q 0,-13.3813 2.80575,-23.52519 3.02159,-10.14389 9.92806,-20.28777 z m 81.79859,23.09353 q -8.84892,-12.08634 -22.87771,-12.08634 -7.55396,0 -14.89209,4.31655 -7.33813,4.10072 -10.14389,9.28058 -2.80575,4.96403 -3.66906,10.35972 -0.86331,5.17985 -0.86331,8.84892 v 150.21587 q 0,4.53238 0.64748,9.92806 0.64748,5.17986 6.90648,14.244613 6.47482,9.064751 22.01439,9.064751 7.98562,0 14.24461,-3.669066 6.47482,-3.884893 9.28058,-8.633098 3.02158,-4.96403 3.88489,-9.28058 0.86331,-4.53237 0.86331,-11.65468 v -150.21587 q 0,-8.84892 -0.64748,-12.30216 -0.64748,-3.66907 -4.7482,-8.41727 z"
         style="fill:#ffffff;fill-opacity:1;stroke:none;stroke-width:2.30215907"
         id="path3656"
         inkscape:connector-curvature="0" />
      <path
         d="m -477.33759,-50.561773 -65.82735,-178.920917 v 178.920917 h -42.08635 V -345.38201 h 39.71224 l 65.39571,178.48926 v -178.48926 h 42.08634 v 294.820237 z"
         style="fill:#ffffff;fill-opacity:1;stroke:none;stroke-width:2.30215907"
         id="path3658"
         inkscape:connector-curvature="0" />
      <path
         d="m -263.66846,-81.425092 q -9.71223,15.7554 -25.68346,24.604324 -15.7554,8.848923 -34.74822,8.848923 -16.83453,0 -32.37411,-7.769786 -15.53957,-7.985614 -24.17267,-19.640294 -8.41726,-11.870507 -11.43885,-23.525187 -2.80575,-11.870508 -2.80575,-26.762598 v -147.62595 q 0,-11.8705 2.3741,-21.79856 2.58993,-10.14389 16.18705,-31.51081 13.81296,-21.36691 53.5252,-21.36691 17.69785,0 33.02159,8.41727 15.53958,8.41727 23.52519,20.5036 7.98561,12.08634 10.35971,22.66188 2.37411,10.57554 2.37411,23.09353 v 12.30217 h -41.43887 v -12.30217 q 0,-7.55396 -0.64748,-11.65468 -0.64748,-4.31654 -6.69065,-12.73381 -6.04317,-8.41727 -20.93526,-8.41727 -17.26619,0 -22.8777,9.06475 -5.39569,9.06475 -6.259,13.59713 -0.86331,4.31654 -0.86331,10.14388 v 147.62595 q 0,8.41727 0.64749,12.73382 0.64748,4.10072 6.47482,13.381296 6.04317,9.280578 22.44605,9.280578 17.69785,0 22.23022,-9.280578 4.7482,-9.280576 5.61151,-13.597126 0.86331,-4.53238 0.86331,-12.51799 v -51.79858 h -34.10073 v -36.69066 h 75.5396 v 88.48924 q 0,18.56116 -2.15828,26.762598 -2.15827,8.201441 -7.98561,17.48202 z"
         style="fill:#ffffff;fill-opacity:1;stroke:none;stroke-width:2.30215907"
         id="path3660"
         inkscape:connector-curvature="0" />
    </g>
  </g>
</svg>
