<?xml version="1.0" encoding="UTF-8" standalone="no"?>
<svg
   xmlns:dc="http://purl.org/dc/elements/1.1/"
   xmlns:cc="http://creativecommons.org/ns#"
   xmlns:rdf="http://www.w3.org/1999/02/22-rdf-syntax-ns#"
   xmlns:svg="http://www.w3.org/2000/svg"
   xmlns="http://www.w3.org/2000/svg"
   xmlns:sodipodi="http://sodipodi.sourceforge.net/DTD/sodipodi-0.dtd"
   xmlns:inkscape="http://www.inkscape.org/namespaces/inkscape"
   sodipodi:docname="Vietnam_road_sign_I415.svg"
   inkscape:version="1.0 (4035a4fb49, 2020-05-01)"
   id="svg9491"
   version="1.1"
   viewBox="0 0 346.95602 88.337708"
   height="88.337708mm"
   width="346.95602mm">
  <defs
     id="defs9485">
    <clipPath
       id="clipPath2832">
      <path
         inkscape:connector-curvature="0"
         id="path2834"
         d="M -0.24,595.138 H 317.24 V -0.138 H -0.24 Z" />
    </clipPath>
    <clipPath
       id="clipPath2840">
      <path
         inkscape:connector-curvature="0"
         id="path2842"
         d="M 0.03,595.32 H 317.49 V 0 H 0.03 Z" />
    </clipPath>
    <clipPath
       id="clipPath2858">
      <path
         inkscape:connector-curvature="0"
         id="path2860"
         d="M -0.24,595.138 H 317.24 V -0.138 H -0.24 Z" />
    </clipPath>
    <clipPath
       id="clipPath2864">
      <path
         inkscape:connector-curvature="0"
         id="path2866"
         d="M 0.03,595.32 H 317.49 V 0 H 0.03 Z" />
    </clipPath>
    <clipPath
       id="clipPath3306">
      <path
         inkscape:connector-curvature="0"
         id="path3308"
         d="m 199.238,472.977 v -29.74 h 29.744 v 29.74" />
    </clipPath>
    <clipPath
       id="clipPath3322">
      <path
         inkscape:connector-curvature="0"
         id="path3324"
         d="M -0.24,595.138 H 317.24 V -0.138 H -0.24 Z" />
    </clipPath>
    <clipPath
       id="clipPath3330">
      <path
         inkscape:connector-curvature="0"
         id="path3332"
         d="M 0.03,595.32 H 317.49 V 0 H 0.03 Z" />
    </clipPath>
    <clipPath
       id="clipPath3344">
      <path
         inkscape:connector-curvature="0"
         id="path3346"
         d="m 88.233,387.221 v -28.335 h 32.08 v 28.335" />
    </clipPath>
    <clipPath
       id="clipPath3462">
      <path
         inkscape:connector-curvature="0"
         id="path3464"
         d="M -0.24,595.138 H 317.24 V -0.138 H -0.24 Z" />
    </clipPath>
    <clipPath
       id="clipPath3470">
      <path
         inkscape:connector-curvature="0"
         id="path3472"
         d="M 0.03,595.32 H 317.49 V 0 H 0.03 Z" />
    </clipPath>
    <clipPath
       id="clipPath3490">
      <path
         inkscape:connector-curvature="0"
         id="path3492"
         d="M -0.24,595.138 H 317.24 V -0.138 H -0.24 Z" />
    </clipPath>
    <clipPath
       id="clipPath3496">
      <path
         inkscape:connector-curvature="0"
         id="path3498"
         d="M 0.03,595.32 H 317.49 V 0 H 0.03 Z" />
    </clipPath>
    <clipPath
       id="clipPath3520">
      <path
         inkscape:connector-curvature="0"
         id="path3522"
         d="m 254.788,326.215 v -28.309 h 28.326 v 28.309" />
    </clipPath>
    <clipPath
       id="clipPath3544">
      <path
         inkscape:connector-curvature="0"
         id="path3546"
         d="m 145.049,326.142 v -28.333 h 28.342 v 28.333" />
    </clipPath>
    <clipPath
       id="clipPath3682">
      <path
         inkscape:connector-curvature="0"
         id="path3684"
         d="M -0.24,595.138 H 317.24 V -0.138 H -0.24 Z" />
    </clipPath>
    <clipPath
       id="clipPath3690">
      <path
         inkscape:connector-curvature="0"
         id="path3692"
         d="M 0.03,595.32 H 317.49 V 0 H 0.03 Z" />
    </clipPath>
    <clipPath
       id="clipPath3980">
      <path
         inkscape:connector-curvature="0"
         id="path3982"
         d="M -0.24,595.138 H 317.24 V -0.138 H -0.24 Z" />
    </clipPath>
    <clipPath
       id="clipPath3988">
      <path
         inkscape:connector-curvature="0"
         id="path3990"
         d="M 0.03,595.32 H 317.49 V 0 H 0.03 Z" />
    </clipPath>
    <clipPath
       id="clipPath4010">
      <path
         inkscape:connector-curvature="0"
         id="path4012"
         d="M -0.24,595.138 H 317.24 V -0.138 H -0.24 Z" />
    </clipPath>
    <clipPath
       id="clipPath4016">
      <path
         inkscape:connector-curvature="0"
         id="path4018"
         d="M 0.03,595.32 H 317.49 V 0 H 0.03 Z" />
    </clipPath>
    <clipPath
       id="clipPath4062">
      <path
         inkscape:connector-curvature="0"
         id="path4064"
         d="m 200.163,177.773 v -28.284 h 28.283 v 28.284" />
    </clipPath>
    <clipPath
       id="clipPath4090">
      <path
         inkscape:connector-curvature="0"
         id="path4092"
         d="m 34.886,177.515 v -51.632 h 30.367 v 51.632" />
    </clipPath>
    <clipPath
       id="clipPath4106">
      <path
         inkscape:connector-curvature="0"
         id="path4108"
         d="m 34.886,177.515 v -51.632 h 30.367 v 51.632" />
    </clipPath>
    <clipPath
       id="clipPath4272">
      <path
         inkscape:connector-curvature="0"
         id="path4274"
         d="m 34.886,177.515 v -51.632 h 30.367 v 51.632" />
    </clipPath>
    <clipPath
       id="clipPath4304">
      <path
         inkscape:connector-curvature="0"
         id="path4306"
         d="m 254.653,176.442 v -48.167 h 28.317 v 48.167" />
    </clipPath>
    <clipPath
       id="clipPath4310">
      <path
         inkscape:connector-curvature="0"
         id="path4312"
         d="m 253.565,177.983 h 31.181 V 128.8 h -31.181 z" />
    </clipPath>
    <clipPath
       id="clipPath4316">
      <path
         inkscape:connector-curvature="0"
         id="path4318"
         d="M -0.24,595.138 H 317.24 V -0.138 H -0.24 Z" />
    </clipPath>
    <clipPath
       id="clipPath4322">
      <path
         inkscape:connector-curvature="0"
         id="path4324"
         d="M 0.03,595.32 H 317.49 V 0 H 0.03 Z" />
    </clipPath>
    <clipPath
       id="clipPath4456">
      <path
         inkscape:connector-curvature="0"
         id="path4458"
         d="M -0.24,595.138 H 317.24 V -0.138 H -0.24 Z" />
    </clipPath>
    <clipPath
       id="clipPath4464">
      <path
         inkscape:connector-curvature="0"
         id="path4466"
         d="M 0.03,595.32 H 317.49 V 0 H 0.03 Z" />
    </clipPath>
  </defs>
  <sodipodi:namedview
     inkscape:document-rotation="0"
     inkscape:measure-end="0,0"
     inkscape:measure-start="0,0"
     inkscape:window-maximized="1"
     inkscape:window-y="-9"
     inkscape:window-x="-9"
     inkscape:window-height="1001"
     inkscape:window-width="1920"
     showgrid="false"
     inkscape:current-layer="layer1"
     inkscape:document-units="mm"
     inkscape:cy="185.2079"
     inkscape:cx="821.76684"
     inkscape:zoom="0.5"
     inkscape:pageshadow="2"
     inkscape:pageopacity="0.0"
     borderopacity="1.0"
     bordercolor="#666666"
     pagecolor="#ffffff"
     id="base" />
  <metadata
     id="metadata9488">
    <rdf:RDF>
      <cc:Work
         rdf:about="">
        <dc:format>image/svg+xml</dc:format>
        <dc:type
           rdf:resource="http://purl.org/dc/dcmitype/StillImage" />
        <dc:title></dc:title>
      </cc:Work>
    </rdf:RDF>
  </metadata>
  <g
     transform="translate(-304.45844,-241.93697)"
     id="layer1"
     inkscape:groupmode="layer"
     inkscape:label="Layer 1">
    <path
       id="rect24824"
       style="opacity:1;fill:#ffd70f;fill-opacity:1;fill-rule:evenodd;stroke-width:0.502706;stroke-linecap:square;stroke-miterlimit:10;paint-order:stroke fill markers"
       d="M 627.60758,241.93697 H 304.45844 v 88.33771 h 323.14914 l 23.80687,-44.06559 z"
       sodipodi:nodetypes="cccccc" />
    <path
       sodipodi:nodetypes="cccccc"
       d="m 626.21774,244.51654 -319.14809,0.0316 -0.008,83.13368 319.14879,-4.1e-4 22.47196,-41.38889 z"
       style="opacity:1;fill:#0a9646;fill-opacity:1;fill-rule:evenodd;stroke-width:0.502706;stroke-linecap:square;stroke-miterlimit:10;paint-order:stroke fill markers"
       id="path24829" />
    <path
       id="rect25795"
       style="opacity:1;fill:#ffd70f;fill-opacity:1;fill-rule:evenodd;stroke-width:0.119062;stroke-linecap:square;stroke-miterlimit:10;paint-order:stroke fill markers"
       d="m 601.94516,251.18187 h 17.6385 l 20.16189,34.81818 -20.16189,34.81567 h -17.6385 l 20.01663,-34.81567 z"
       sodipodi:nodetypes="ccccccc" />
    <path
       id="path25802"
       style="font-style:normal;font-variant:normal;font-weight:normal;font-stretch:normal;font-size:26.9443px;line-height:1.3;font-family:'Alte DIN 1451 Mittelschrift gepraegt';-inkscape-font-specification:'Alte DIN 1451 Mittelschrift gepraegt';text-align:center;text-anchor:middle;opacity:1;fill:#ffffff;fill-opacity:1;stroke-width:0.264583"
       d="m 362.73453,259.76917 c -0.12381,0 -0.20815,0.0493 -0.25501,0.1608 -0.0562,0.10802 -0.0444,0.20963 0.0493,0.30335 l 6.41057,6.7801 c 0.005,0.005 0.0395,0.0345 0.0917,0.0715 0.0493,0.005 0.0873,0.0197 0.11739,0.0197 l 3.54806,0.002 c 0.12479,0 0.21062,-0.0345 0.25748,-0.11739 0.0296,-0.0922 0.0247,-0.19138 -0.0247,-0.30088 l -4.85313,-6.78266 c -0.0562,-0.0922 -0.1391,-0.13762 -0.23183,-0.13762 z m 74.86422,1.80464 -6.76229,5.28645 c -0.10556,0.076 -0.13713,0.17461 -0.0917,0.29546 0.0345,0.12084 0.11394,0.18102 0.24959,0.18102 h 3.81318 l 4.14454,-2.44951 c 0.66593,0.40841 1.34059,0.81499 2.02127,1.2235 0.68137,0.4084 1.74564,0.81755 2.41128,1.22601 h 3.79024 c 0.13663,0 0.21802,-0.0626 0.24712,-0.18102 0.0345,-0.12036 10e-4,-0.22098 -0.0893,-0.29546 l -6.6705,-5.28645 z m 1.15207,8.02396 c -2.65558,0 -4.87721,0.64246 -6.66285,1.92445 -1.77036,1.26675 -3.05013,2.63866 -3.84376,4.11904 h 0.0247 c -0.29003,0.51894 -0.53567,1.04617 -0.7341,1.58036 -0.19828,0.53413 -0.34922,1.09214 -0.45625,1.6721 -0.0917,0.57991 -0.16869,1.50134 -0.22936,2.76809 -0.0444,1.26676 -0.0686,2.89969 -0.0686,4.89901 0,1.99932 0.0247,3.63996 0.0686,4.92195 0.0612,1.26675 0.13762,2.19075 0.22936,2.77071 0.10703,0.57995 0.25797,1.13791 0.45625,1.67205 0.19829,0.51894 0.44392,1.03853 0.7341,1.55742 h -0.0247 c 0.79363,1.49567 2.0734,2.86753 3.84376,4.11904 1.80094,1.26676 4.02256,1.90146 6.66285,1.90146 2.60981,0 4.8161,-0.6347 6.61699,-1.90146 1.80093,-1.28199 3.10369,-2.6539 3.91262,-4.11904 0.25944,-0.48831 0.4819,-1.0003 0.66524,-1.53444 0.19828,-0.53418 0.35217,-1.09983 0.45871,-1.69503 0.21358,-1.20574 0.31864,-3.77032 0.31864,-7.69266 0,-1.99932 -0.0296,-3.63225 -0.0917,-4.89901 -0.0444,-1.26675 -0.11986,-2.18818 -0.2269,-2.76809 -0.19828,-1.12943 -0.57976,-2.21462 -1.14442,-3.25246 -0.79363,-1.44989 -2.09131,-2.82176 -3.8922,-4.11904 -1.78565,-1.28199 -3.99193,-1.92445 -6.61699,-1.92445 z m -73.30167,0.22936 c -0.12232,0 -0.19878,0.0617 -0.22936,0.18349 l -11.99774,32.82749 c -0.0296,0.0917 -0.0247,0.17609 0.0247,0.25255 0.0444,0.0765 0.12232,0.11443 0.22936,0.11443 h 5.24315 c 0.0444,0 0.0917,-0.0148 0.13761,-0.0444 0.0612,-0.0444 0.0996,-0.0917 0.11493,-0.13762 0.42715,-1.22093 0.8471,-2.41877 1.25915,-3.59398 0.42715,-1.1904 0.85475,-2.40363 1.2821,-3.63981 h 12.08697 l 2.47244,7.23379 c 0.0296,0.12233 0.10753,0.18349 0.22936,0.18349 h 5.24058 c 0.0917,0 0.1608,-0.0395 0.20667,-0.11443 0.0444,-0.0765 0.0538,-0.1608 0.0247,-0.25255 l -11.97232,-32.82743 c -0.0148,-0.0444 -0.0538,-0.0844 -0.11493,-0.11493 -0.0444,-0.0444 -0.0917,-0.0686 -0.13761,-0.0686 z m -38.52689,0.0444 c -0.183,0 -0.27523,0.0922 -0.27523,0.27523 v 32.80455 c 0,0.183 0.0922,0.27524 0.27523,0.27524 h 4.96787 c 0.18299,0 0.27523,-0.0922 0.27523,-0.27524 v -14.05477 h 12.47437 v 14.05473 c 0,0.18299 0.0922,0.27523 0.27523,0.27523 h 4.96787 c 0.18299,0 0.27523,-0.0922 0.27523,-0.27523 v -32.80456 c 0,-0.183 -0.0922,-0.27523 -0.27523,-0.27523 h -4.96787 c -0.183,0 -0.27523,0.0922 -0.27523,0.27523 v 13.78201 h -12.47437 v -13.78201 c 0,-0.183 -0.0922,-0.27523 -0.27523,-0.27523 z m 69.96265,0 c -0.183,0 -0.27523,0.0922 -0.27523,0.27523 v 32.80455 c 0,0.183 0.0922,0.27524 0.27523,0.27524 h 4.99075 c 0.1677,0 0.25254,-0.0922 0.25254,-0.27524 v -22.57312 l 14.46767,22.71084 c 0.0612,0.0917 0.13762,0.13761 0.22936,0.13761 h 4.69254 c 0.183,0 0.27523,-0.0922 0.27523,-0.27523 V 270.1469 c 0,-0.18299 -0.0922,-0.27523 -0.27523,-0.27523 h -4.9908 c -0.183,0 -0.27523,0.0922 -0.27523,0.27523 v 22.57061 l -14.42175,-22.70827 c -0.0612,-0.0913 -0.13762,-0.13762 -0.22936,-0.13762 z m 59.50698,0 c -0.183,0 -0.27277,0.0922 -0.27277,0.27523 v 32.80455 c 0,0.183 0.0898,0.27524 0.27277,0.27524 h 4.96782 c 0.18299,0 0.27523,-0.0922 0.27523,-0.27524 v -32.80455 c 0,-0.183 -0.0922,-0.27523 -0.27523,-0.27523 z m 30.11287,0.45131 c -2.50958,0 -4.67375,0.92232 -6.49205,2.77071 -1.78831,1.8183 -2.69731,4.06696 -2.7274,6.74187 0,0.18053 0.0898,0.2703 0.2703,0.2703 h 4.59828 c 0.075,0 0.13614,-0.0247 0.18102,-0.0686 0.0602,-0.0444 0.0893,-0.10555 0.0893,-0.18102 0.0602,-0.67624 0.19483,-1.27612 0.40545,-1.80207 0.22541,-0.54099 0.5478,-1.00612 0.96858,-1.39682 0.85657,-0.79644 1.87128,-1.19543 3.04342,-1.19543 1.27736,0 2.29202,0.45181 3.04338,1.35346 0.75136,0.9167 1.12662,1.8918 1.12662,2.9287 0,0.46562 -0.0661,0.94678 -0.20125,1.44269 -0.13514,0.48091 -0.43652,1.01465 -0.90234,1.60073 v -0.0247 l -12.62224,15.80328 v 4.39432 c 0,0.18053 0.0898,0.2703 0.2703,0.2703 h 18.30378 c 0.18053,0 0.2703,-0.0898 0.2703,-0.2703 v -4.57529 c 0,-0.18053 -0.0898,-0.2703 -0.2703,-0.2703 h -11.72246 c 0.85657,-1.08198 1.69947,-2.13368 2.52596,-3.15559 0.82653,-1.0369 1.65104,-2.06743 2.47757,-3.08924 0.82648,-1.03695 1.65355,-2.07282 2.48008,-3.10972 0.82649,-1.0369 1.66939,-2.09649 2.52596,-3.17847 v 0.0247 c 0.66125,-0.82653 1.15543,-1.72226 1.48605,-2.68399 0.33048,-0.96178 0.49699,-2.00558 0.49699,-3.13265 5e-5,-2.59975 -0.92478,-4.82468 -2.77317,-6.67307 h 0.0247 c -1.86343,-1.86338 -4.1544,-2.79359 -6.8744,-2.79359 z m 22.83321,0.0197 c -1.17215,0 -2.29251,0.2195 -3.35949,0.65508 -1.06694,0.42074 -2.02877,1.02068 -2.88534,1.80212 -0.90165,0.84153 -1.59935,1.85623 -2.09526,3.04338 -0.49581,1.17214 -0.7521,2.50391 -0.76719,3.99158 v 2.97462 c -0.0296,3.15578 0.69922,5.47847 2.18695,6.9662 h -0.0247 c 1.51776,1.54785 3.31456,2.29833 5.38836,2.25324 0.85662,0.0296 1.77351,-0.0395 2.75028,-0.20371 0.97683,-0.16523 1.95986,-0.39805 2.95168,-0.69843 v 2.68404 c -0.10506,3.09556 -1.48723,4.64943 -4.14711,4.66447 -1.87842,0 -3.15479,-0.84034 -3.83103,-2.52339 -0.0602,-0.12035 -0.14452,-0.18102 -0.24958,-0.18102 h -4.59823 c -0.0903,0 -0.16425,0.0296 -0.22443,0.0893 -0.0444,0.0602 -0.0528,0.12873 -0.0247,0.20371 0.24021,1.20218 0.62356,2.26971 1.14951,3.2014 0.54099,0.91665 1.2412,1.70417 2.09777,2.36541 v -0.0247 c 1.63802,1.26231 3.53005,1.92553 5.67898,1.98561 1.24732,-0.0296 2.40462,-0.26537 3.47165,-0.70095 1.08194,-0.43554 2.05171,-1.03567 2.90828,-1.80207 0.84152,-0.82654 1.50218,-1.84124 1.98309,-3.04343 0.48091,-1.20218 0.73715,-2.53138 0.76719,-3.98907 v -14.20255 c -0.0444,-3.05058 -0.96202,-5.40237 -2.75028,-7.05538 -1.77322,-1.63802 -3.90039,-2.45715 -6.37993,-2.45715 z m 25.03032,0.73667 c -0.17954,0 -0.26783,0.0883 -0.26783,0.26783 v 31.93792 c 0,0.17955 0.0883,0.2703 0.26783,0.2703 h 4.57786 c 0.17954,0 0.2703,-0.0907 0.2703,-0.2703 v -6.44094 c 0.53862,-0.62839 1.08534,-1.24983 1.63895,-1.86328 0.56857,-0.61345 1.12071,-1.23479 1.65933,-1.86324 l 5.85995,10.30271 c 0.0597,0.0898 0.13466,0.13515 0.22443,0.13515 h 5.74522 c 0.11986,0 0.20223,-0.0345 0.24712,-0.11196 0.0444,-0.0898 0.0345,-0.18842 -0.0247,-0.29299 -1.48126,-2.30415 -2.95611,-4.57914 -4.42238,-6.82346 -1.45138,-2.25926 -2.91819,-4.53968 -4.39941,-6.84383 l 7.72062,-8.77591 c 0.075,-0.0898 0.0908,-0.18596 0.0444,-0.29053 -0.0444,-0.10456 -0.12726,-0.15783 -0.24712,-0.15783 h -5.47507 c -0.075,0 -0.14403,0.0296 -0.20371,0.0893 -1.40644,1.72064 -2.80405,3.43541 -4.19555,5.1412 -1.3765,1.69069 -2.76868,3.395 -4.17512,5.11564 v -19.25703 c 0,-0.17955 -0.0908,-0.26784 -0.2703,-0.26784 z m -95.61747,4.05788 c 0.54943,0 1.06901,0.0691 1.55743,0.20667 0.48831,0.12183 0.93884,0.28854 1.3509,0.50212 0.41186,0.19828 0.77809,0.43652 1.0986,0.71116 0.3359,0.27474 0.6173,0.55628 0.84621,0.84621 0.29003,0.36648 0.54336,0.78609 0.75704,1.25921 0.21357,0.45773 0.3724,0.93134 0.47894,1.41975 0.12232,0.50361 0.21407,1.29704 0.27523,2.38065 0.0612,1.06837 0.0917,2.43259 0.0917,4.09611 0,3.35762 -0.12282,5.52553 -0.36697,6.5023 -0.19829,0.97678 -0.61814,1.85465 -1.25916,2.63304 -0.47302,0.64098 -1.11301,1.19124 -1.92188,1.64912 -0.80887,0.44244 -1.77894,0.66273 -2.90832,0.66273 -1.14463,0 -2.12234,-0.21999 -2.93126,-0.66273 -0.80887,-0.45773 -1.45641,-1.00814 -1.94482,-1.64912 -0.27474,-0.35119 -0.5256,-0.75545 -0.75447,-1.21328 -0.21357,-0.47302 -0.38275,-0.94664 -0.50468,-1.41976 -0.12184,-0.51889 -0.20667,-1.31237 -0.25255,-2.38069 -0.0444,-1.08362 -0.0686,-2.45804 -0.0686,-4.12161 0,-1.63299 0.0247,-2.98956 0.0686,-4.07317 0.0444,-1.08356 0.13022,-1.88469 0.25255,-2.40359 0.12183,-0.48831 0.29101,-0.96192 0.50468,-1.41975 0.21358,-0.47302 0.46464,-0.89288 0.75447,-1.25921 0.48832,-0.5952 1.13595,-1.12238 1.94482,-1.58031 0.80892,-0.45773 1.78663,-0.68566 2.93126,-0.68566 z m 70.58715,0.32356 c 2.64483,0.0602 4.02685,1.61647 4.14706,4.66704 v 2.63561 c -0.0903,3.06557 -1.47219,4.62195 -4.14706,4.66704 -2.73505,-0.0444 -4.10124,-1.60142 -4.10124,-4.66704 v -2.63561 c 0.0148,-3.03548 1.38124,-4.59186 4.10124,-4.66704 z m -141.78345,2.3552 c 0.0612,0.19829 0.10703,0.34922 0.13762,0.45625 0.0444,0.10704 0.0843,0.20667 0.11443,0.29842 0.0296,0.0765 0.0538,0.16079 0.0686,0.25254 0.0296,0.0765 0.0661,0.18891 0.11197,0.34182 0.0917,0.29003 0.17609,0.56639 0.25254,0.82584 0.0917,0.25944 0.17609,0.49497 0.25254,0.70859 0.15241,0.47303 0.29841,0.9313 0.43603,1.37389 0.15241,0.44244 0.29595,0.88537 0.43356,1.32801 0.0764,0.21358 0.15291,0.43357 0.22936,0.66268 0.076,0.21357 0.15291,0.44392 0.22936,0.68822 0.0917,0.25945 0.18398,0.53335 0.27523,0.82328 0.10703,0.29003 0.2116,0.58686 0.31864,0.89213 0.1677,0.47302 0.35957,1.03113 0.57349,1.6721 0.21358,0.62578 0.44935,1.31169 0.7086,2.0595 0.0296,0.0917 0.0691,0.19927 0.11493,0.3211 0.0612,0.12233 0.10703,0.23725 0.13761,0.34429 h -8.79121 c 0.3359,-0.96149 0.61217,-1.75492 0.82584,-2.3807 0.21358,-0.64097 0.41827,-1.23736 0.61681,-1.78678 0.19828,-0.54943 0.37486,-1.07414 0.52767,-1.57775 0.1677,-0.50365 0.32653,-0.98486 0.47894,-1.44269 0.0764,-0.21357 0.15291,-0.43652 0.22936,-0.66529 0.0765,-0.22886 0.15291,-0.46463 0.22936,-0.70859 0.0765,-0.22887 0.1529,-0.45922 0.22936,-0.68823 0.0917,-0.22886 0.17609,-0.47203 0.25254,-0.73153 0.0296,-0.0765 0.0538,-0.15291 0.0686,-0.22936 0.0148,-0.0765 0.0345,-0.1608 0.0661,-0.25254 0.12232,-0.36648 0.25254,-0.76295 0.39015,-1.1903 0.15241,-0.42715 0.31371,-0.89065 0.4819,-1.39426 z m 201.62431,2.1946 c -2.39392,0 -4.30884,0.77878 -5.74527,2.33482 v -1.81721 c 0,-0.17954 -0.0908,-0.2703 -0.2703,-0.2703 h -4.57786 c -0.17954,0 -0.2703,0.0908 -0.2703,0.2703 v 22.75671 c 0,0.17954 0.0908,0.2703 0.2703,0.2703 h 4.57786 c 0.17954,5e-5 0.2703,-0.0908 0.2703,-0.2703 v -13.55509 c 0,-1.49621 0.38917,-2.63497 1.16746,-3.41301 0.80794,-0.80794 1.84005,-1.21072 3.09689,-1.21072 1.21195,0 2.2202,0.40298 3.02813,1.21072 0.80794,0.80798 1.21329,1.94674 1.21329,3.41301 v 13.55512 c 0,0.17954 0.0829,0.2703 0.24711,0.2703 h 4.57781 c 0.16474,5e-5 0.24712,-0.0908 0.24712,-0.2703 v -13.55512 c 0,-1.48122 0.39459,-2.62002 1.18778,-3.41301 0.80799,-0.80794 1.84015,-1.21072 3.09694,-1.21072 1.21195,0 2.22271,0.40298 3.03065,1.21072 0.79299,0.79299 1.19035,1.93174 1.19035,3.41301 v 13.55512 c 0,0.17954 0.0883,0.2703 0.26783,0.2703 h 4.58042 c 0.17954,5e-5 0.26783,-0.0908 0.26783,-0.2703 v -15.12783 c 0,-2.66328 -0.85089,-4.69022 -2.55659,-6.08172 -1.72063,-1.3765 -3.48625,-2.06462 -5.29661,-2.06462 -2.96253,0 -5.36538,0.94954 -7.20582,2.84972 -0.37388,-0.38917 -0.76882,-0.73854 -1.18779,-1.05273 -0.41876,-0.329 -0.85361,-0.63047 -1.30251,-0.89973 -1.00242,-0.59851 -2.30395,-0.89726 -3.90492,-0.89726 z m -132.73985,27.08479 c -0.16326,0 -0.29545,0.0602 -0.29545,0.13268 v 4.56765 c 0,0.072 0.13219,0.12972 0.29545,0.12972 h 4.25923 c 0.16326,0 0.29594,-0.0577 0.29594,-0.12972 v -4.56765 c 0,-0.072 -0.13219,-0.13268 -0.29594,-0.13268 z" />
  </g>
</svg>
