<?xml version="1.0" encoding="utf-8"?>
<svg viewBox="0 0 323.149 230.661" xmlns="http://www.w3.org/2000/svg">
  <g id="layer1" transform="matrix(0.9999999999999999, 0, 0, 0.9999999999999999, -303.4596862792969, -22.960700988769517)">
    <path id="rect15575" style="opacity: 1; fill: rgb(10, 150, 70); fill-opacity: 1; fill-rule: evenodd; stroke-width: 0.0420687; stroke-linecap: square; stroke-miterlimit: 10; paint-order: stroke;" d="M 303.46 22.961 L 626.609 22.961 L 626.609 253.622 L 303.46 253.622 L 303.46 22.961 Z"/>
    <path d="m 30.353516,5.0117188 c -13.808655,0 -25.0781254,11.2674112 -25.0781254,25.0761722 v 332.957029 47.1211 49.04296 13.88672 252.45508 c 0,13.80862 11.2694704,25.06641 25.0781254,25.06641 H 1190.9805 c 13.8086,0 25.0781,-11.25779 25.0781,-25.06641 V 473.0957 459.57031 401.94727 363.04492 30.087891 c 0,-13.808761 -11.2695,-25.0761722 -25.0781,-25.0761722 z m 0,9.4511722 H 1190.9805 c 8.7398,0 15.6425,6.885058 15.6425,15.625 v 332.957029 38.90235 c 0,0.29959 -0.013,0.61475 -0.037,0.9375 v 7.20703 c 0,8.68754 -6.9941,15.68164 -15.6816,15.68164 h -8.0762 c -0.1869,0.007 -0.3766,0.0176 -0.5586,0.0176 H 38.023438 c -0.18105,0 -0.371847,-0.0102 -0.560547,-0.0176 h -7.097657 c -8.687546,0 -15.68164,-6.9941 -15.68164,-15.68164 V 30.152344 c 0,-1.658433 0.257595,-3.253829 0.730468,-4.751953 0.01365,-0.04461 0.03284,-0.08643 0.04688,-0.13086 1.99686,-6.321925 7.84094,-10.80664 14.892578,-10.80664 z M 30.28125,435.30469 h 6.958984 1145.628866 8.1172 c 8.6414,0 15.5996,6.95633 15.5996,15.59765 v 7.5918 c 0.024,0.37296 0.037,0.7339 0.037,1.07617 v 13.52539 252.45508 c 0,5.47634 -2.7106,10.22208 -6.8847,13.00391 -2.4923,1.6862 -5.5034,2.66992 -8.752,2.66992 H 30.28125 c -8.641361,0 -15.597656,-6.9563 -15.597656,-15.59766 V 450.90234 c 0,-8.64132 6.956295,-15.59765 15.597656,-15.59765 z" style="color: rgb(0, 0, 0); font-style: normal; font-weight: normal; font-stretch: normal; font-size: medium; line-height: normal; font-family: sans-serif; font-variant: normal; font-feature-settings: normal; font-variation-settings: normal; text-indent: 0px; text-align: start; text-decoration: none solid rgb(0, 0, 0); letter-spacing: normal; word-spacing: normal; text-transform: none; writing-mode: lr-tb; direction: ltr; text-orientation: mixed; dominant-baseline: auto; baseline-shift: baseline; text-anchor: start; white-space: normal; shape-margin: 0px; inline-size: 0px; clip-rule: nonzero; display: inline; overflow: visible; opacity: 1; isolation: auto; mix-blend-mode: normal; color-interpolation: srgb; color-interpolation-filters: linearrgb; vector-effect: none; fill: rgb(255, 255, 255); fill-opacity: 1; fill-rule: evenodd; stroke: none; stroke-width: 2.09199; stroke-linecap: square; stroke-linejoin: miter; stroke-miterlimit: 10; stroke-dasharray: none; stroke-dashoffset: 0; stroke-opacity: 1; paint-order: stroke; color-rendering: auto; image-rendering: auto; shape-rendering: auto; text-rendering: auto; stop-color: rgb(0, 0, 0); stop-opacity: 1; visibility: hidden;" id="path15582" transform="matrix(0.26458333,0,0,0.26458333,303.45966,22.960701)"/>
    <path d="M 324.12 79.034 L 385.014 79.034 L 385.014 106.856 L 324.12 106.856 L 324.12 79.034 Z" style="opacity:1;fill:#ffd70f;fill-opacity:1;fill-rule:evenodd;stroke:none;stroke-width:0.553508;stroke-linecap:square;stroke-miterlimit:10;stroke-dasharray:none;stroke-opacity:1;paint-order:stroke fill markers" id="rect15605"/>
    <path id="path15631" d="M 326.183 79.6 C 325.372 79.6 324.708 80.261 324.708 81.072 L 324.708 104.818 C 324.708 105.629 325.372 106.289 326.183 106.289 L 382.973 106.289 C 383.784 106.289 384.448 105.629 384.448 104.818 L 384.448 81.072 C 384.448 80.261 383.784 79.6 382.973 79.6 L 326.183 79.6 Z M 326.183 80.135 L 382.973 80.135 C 383.496 80.135 383.91 80.549 383.91 81.072 L 383.91 104.818 C 383.91 105.341 383.496 105.751 382.973 105.751 L 326.183 105.751 C 325.66 105.751 325.246 105.341 325.246 104.818 L 325.246 81.072 C 325.246 80.549 325.66 80.135 326.183 80.135 Z" style="color: rgb(0, 0, 0); font-style: normal; font-weight: normal; font-stretch: normal; font-size: medium; line-height: normal; font-family: sans-serif; font-variant: normal; font-feature-settings: normal; font-variation-settings: normal; text-indent: 0px; text-align: start; text-decoration: none solid rgb(0, 0, 0); letter-spacing: normal; word-spacing: normal; text-transform: none; writing-mode: lr-tb; direction: ltr; text-orientation: mixed; dominant-baseline: auto; baseline-shift: baseline; text-anchor: start; white-space: normal; shape-margin: 0px; inline-size: 0px; clip-rule: nonzero; display: inline; overflow: visible; opacity: 1; isolation: auto; mix-blend-mode: normal; color-interpolation: srgb; color-interpolation-filters: linearrgb; vector-effect: none; fill: rgb(0, 0, 0); fill-opacity: 1; fill-rule: evenodd; stroke: none; stroke-width: 0.119062; stroke-linecap: square; stroke-linejoin: miter; stroke-miterlimit: 10; stroke-dasharray: none; stroke-dashoffset: 0; stroke-opacity: 1; paint-order: stroke; color-rendering: auto; image-rendering: auto; shape-rendering: auto; text-rendering: auto; stop-color: rgb(0, 0, 0); stop-opacity: 1;"/>
    <path id="path17496" style="font-size:15.1831px;line-height:1.46;font-family:'Singapore Road Signs';-inkscape-font-specification:'Singapore Road Signs';text-align:center;text-anchor:middle;opacity:1;fill:#ffffff;fill-opacity:1;stroke-width:0.0756548" d="M 570.475 70.961 L 570.475 121.575 L 605.91 121.575 L 605.91 70.961 L 570.475 70.961 Z M 571.857 72.621 L 604.509 72.621 L 604.509 120.187 L 571.857 120.187 L 571.857 72.621 Z M 585.525 76.268 L 583.29 85.137 L 587.212 85.137 L 587.494 76.268 L 585.525 76.268 Z M 588.878 76.268 L 589.16 85.137 L 593.084 85.137 L 590.847 76.268 L 588.878 76.268 Z M 572.969 86.26 L 572.969 88.202 L 576.036 89.31 L 576.036 89.895 L 577.447 89.895 L 577.447 89.31 C 577.447 89.31 579.533 88.997 581.973 88.775 C 583.926 88.597 586.104 88.503 587.617 88.497 C 589.415 88.491 592.075 88.59 594.356 88.785 C 596.87 89 598.928 89.31 598.928 89.31 L 598.928 89.895 L 600.31 89.895 L 600.31 89.31 L 603.376 88.202 L 603.376 86.26 L 572.969 86.26 Z M 582.18 89.881 L 575.476 116.562 L 585.525 116.562 L 586.919 89.881 L 582.18 89.881 Z M 589.436 89.881 L 590.831 116.562 L 600.88 116.562 L 594.176 89.881 L 589.436 89.881 Z"/>
    <g style="font-size:14.7905px;line-height:0;font-family:'Singapore Road Signs';-inkscape-font-specification:'Singapore Road Signs';text-align:center;text-anchor:middle;opacity:1;fill:#860000;fill-opacity:1;stroke-width:6.45213" id="layer1-8" transform="matrix(0.08718, 0, 0, 0.08718, -145.220476, 226.325763)">
      <circle style="opacity:1;fill:#f00a0a;fill-opacity:1;fill-rule:nonzero;stroke:none;stroke-width:3622.55;stroke-linecap:round;stroke-linejoin:round;stroke-miterlimit:4;stroke-dasharray:none;stroke-opacity:1;paint-order:stroke fill markers" id="path815" cx="6380.9966" cy="-193.29752" r="350"/>
      <circle cy="-193.29752" cx="6380.9966" id="circle817" style="opacity:1;fill:#ffffff;fill-opacity:1;fill-rule:nonzero;stroke:none;stroke-width:2587.55;stroke-linecap:round;stroke-linejoin:round;stroke-miterlimit:4;stroke-dasharray:none;stroke-opacity:1;paint-order:stroke fill markers" r="250"/>
      <g aria-label="20 " style="font-style:normal;font-variant:normal;font-weight:bold;font-stretch:normal;font-size:414.864px;line-height:0;font-family:Giaothong1;-inkscape-font-specification:'Giaothong1 Bold';letter-spacing:0px;word-spacing:0px;fill:#000000;fill-opacity:1;stroke:none;stroke-width:24.7849" id="text874" transform="matrix(-1,0,0,1,1299.029,-383.45)">
        <g aria-label="90" transform="translate(2310.2259,387.54849)" style="font-style:normal;font-variant:normal;font-weight:bold;font-stretch:normal;font-size:414.864px;line-height:0;font-family:Giaothong1;-inkscape-font-specification:'Giaothong1 Bold';letter-spacing:0px;word-spacing:0px;fill:#000000;fill-opacity:1;stroke:none;stroke-width:53.5539" id="text844"/>
      </g>
    </g>
    <g style="font-size:14.7905px;line-height:0;font-family:'Singapore Road Signs';-inkscape-font-specification:'Singapore Road Signs';text-align:center;text-anchor:middle;opacity:1;fill:#fff000;fill-opacity:1;stroke-width:6.45221" id="layer1-7" transform="matrix(0.08718, 0, 0, 0.08718, 488.778419, 214.181293)">
      <circle cy="-54" cx="351" id="circle817-6" style="opacity:1;fill:#0046aa;fill-opacity:1;fill-rule:nonzero;stroke:none;stroke-width:3622.58;stroke-linecap:round;stroke-linejoin:round;stroke-miterlimit:4;stroke-dasharray:none;stroke-opacity:1;paint-order:stroke fill markers" r="350"/>
      <path id="rect984" style="font-style:normal;font-variant:normal;font-weight:bold;font-stretch:normal;font-size:414.864px;line-height:0;font-family:Giaothong1;-inkscape-font-specification:'Giaothong1 Bold';letter-spacing:0px;word-spacing:0px;opacity:1;fill:#ffffff;fill-opacity:1;fill-rule:nonzero;stroke:none;stroke-width:0.344279;stroke-linecap:round;stroke-linejoin:miter;stroke-miterlimit:10;stroke-dasharray:none;stroke-opacity:1;paint-order:stroke fill markers" d="m 851.18164,518.03906 c -16.32678,0 -29.4707,13.14393 -29.4707,29.47071 v 80.94921 c 0,16.32678 13.14392,29.47071 29.4707,29.47071 16.32678,0 29.4707,-13.14393 29.4707,-29.47071 v -80.94921 c 0,-16.32678 -13.14392,-29.47071 -29.4707,-29.47071 z m -69.94336,1.23828 -26.10937,69.75391 c -2.72781,7.40406 -3.70118,11.30112 -3.70118,28.44727 0,18.12042 0.7789,22.01697 4.67579,28.25195 5.26075,8.37828 14.22308,13.44336 24.93945,13.44336 10.91123,0 20.0688,-4.87023 25.13476,-13.44336 3.70197,-6.23498 4.48047,-10.13153 4.48047,-28.25195 0,-22.01726 -0.77798,-26.88814 -4.28515,-32.34375 -3.31232,-5.06591 -9.74347,-8.96289 -16.75782,-8.96289 -4.28653,0 -7.01308,0.77773 -8.37695,1.75195 l -0.39062,-0.38867 22.60156,-58.25782 z m 69.94336,18.74024 c 5.25853,0 9.49219,4.23365 9.49219,9.49219 v 80.94921 c 0,5.25853 -4.23366,9.49219 -9.49219,9.49219 -5.25853,0 -9.49219,-4.23366 -9.49219,-9.49219 v -80.94921 c 0,-5.25854 4.23366,-9.49219 9.49219,-9.49219 z m -70.13867,55.68945 c 5.0659,0 9.74219,3.89738 9.74219,9.9375 v 25.71875 c 0,6.04012 -4.67629,9.9375 -9.74219,9.9375 -5.0659,0 -9.74219,-3.89738 -9.74219,-9.9375 v -25.71875 c 0,-6.04012 4.67629,-9.9375 9.74219,-9.9375 z" transform="matrix(3.0349198,0,0,3.0349198,-2125.7104,-1839.7056)"/>
    </g>
    <g aria-label="6" id="text19759" style="font-size:31.1478px;line-height:1.3;font-family:'Singapore Road Signs';-inkscape-font-specification:'Singapore Road Signs';text-align:center;text-anchor:middle;stroke-width:0.159861" transform="matrix(1.6550836,0,0,1.6550836,-321.31659,-238.56049)"/>
    <path d="M 383.12 46.797 Q 383.014 46.797 383.014 46.691 L 383.014 35.898 L 379.666 35.898 Q 379.56 35.898 379.56 35.793 L 379.56 34.097 Q 379.56 33.991 379.666 33.991 L 388.472 33.991 Q 388.578 33.991 388.578 34.097 L 388.578 35.793 Q 388.578 35.898 388.472 35.898 L 385.132 35.898 L 385.132 46.691 Q 385.132 46.797 385.027 46.797 Z M 391.979 36.013 L 391.979 39.862 L 394.712 39.862 Q 395.723 39.862 396.215 39.256 Q 396.716 38.667 396.716 37.937 Q 396.716 36.848 395.943 36.347 Q 395.442 36.013 394.642 36.013 Z M 389.966 46.797 Q 389.861 46.797 389.861 46.691 L 389.861 34.097 Q 389.861 33.991 389.966 33.991 L 394.537 33.991 Q 395.292 33.991 395.969 34.149 Q 396.655 34.308 397.428 34.905 Q 397.727 35.142 397.977 35.455 Q 398.228 35.767 398.43 36.144 Q 398.623 36.531 398.729 36.997 Q 398.834 37.463 398.834 37.99 Q 398.834 39.37 397.797 40.627 Q 396.76 41.875 394.783 41.875 L 391.979 41.875 L 391.979 46.691 Q 391.979 46.797 391.873 46.797 Z M 399.178 46.797 Q 399.073 46.797 399.073 46.691 L 399.073 44.907 Q 399.073 44.802 399.178 44.802 L 400.971 44.802 Q 401.068 44.802 401.068 44.907 L 401.068 46.691 Q 401.068 46.797 400.971 46.797 Z M 413.529 46.797 Q 413.423 46.797 413.423 46.691 L 413.423 41.295 L 408.633 41.295 L 408.633 46.691 Q 408.633 46.797 408.528 46.797 L 406.621 46.797 Q 406.515 46.797 406.515 46.691 L 406.515 34.097 Q 406.515 33.991 406.621 33.991 L 408.528 33.991 Q 408.633 33.991 408.633 34.097 L 408.633 39.388 L 413.423 39.388 L 413.423 34.097 Q 413.423 33.991 413.529 33.991 L 415.436 33.991 Q 415.541 33.991 415.541 34.097 L 415.541 46.691 Q 415.541 46.797 415.436 46.797 Z M 426.773 43.07 Q 426.825 43.07 426.86 43.11 Q 426.896 43.149 426.878 43.202 Q 426.509 44.995 425.243 45.962 Q 424.628 46.428 423.907 46.665 Q 423.187 46.902 422.352 46.902 Q 420.831 46.902 419.794 46.173 Q 418.775 45.452 418.317 44.591 Q 418.159 44.292 418.045 43.989 Q 417.931 43.685 417.869 43.351 Q 417.755 42.701 417.755 40.398 Q 417.755 39.247 417.781 38.517 Q 417.808 37.788 417.869 37.454 Q 417.931 37.12 418.045 36.812 Q 418.159 36.505 418.317 36.206 Q 418.775 35.353 419.794 34.624 Q 420.822 33.886 422.352 33.886 Q 424.18 33.886 425.375 35.011 Q 426.588 36.144 426.878 37.7 Q 426.896 37.753 426.86 37.788 Q 426.825 37.823 426.773 37.823 L 424.76 37.823 Q 424.681 37.823 424.663 37.753 Q 424.549 37.401 424.338 37.098 Q 424.127 36.795 423.819 36.531 Q 423.239 36.013 422.352 36.013 Q 421.692 36.013 421.227 36.276 Q 420.761 36.54 420.48 36.883 Q 420.313 37.094 420.19 37.362 Q 420.066 37.63 419.996 37.911 Q 419.926 38.21 419.9 38.834 Q 419.873 39.458 419.873 40.398 Q 419.873 41.356 419.9 41.976 Q 419.926 42.596 419.996 42.894 Q 420.066 43.167 420.194 43.435 Q 420.321 43.703 420.48 43.905 Q 420.761 44.274 421.227 44.534 Q 421.692 44.793 422.352 44.793 Q 423.872 44.793 424.663 43.132 Q 424.681 43.114 424.707 43.092 Q 424.733 43.07 424.76 43.07 Z M 428.295 46.797 Q 428.19 46.797 428.19 46.691 L 428.19 34.097 Q 428.19 33.991 428.295 33.991 L 430.097 33.991 Q 430.158 33.991 430.193 34.053 L 433.718 42.042 Q 434.57 40.029 435.432 38.047 Q 436.293 36.065 437.154 34.053 Q 437.181 33.991 437.251 33.991 L 439.053 33.991 Q 439.158 33.991 439.158 34.097 L 439.158 46.691 Q 439.158 46.797 439.053 46.797 L 437.146 46.797 Q 437.04 46.797 437.04 46.691 L 437.04 39.256 Q 436.425 40.688 435.801 42.103 Q 435.177 43.518 434.57 44.942 Q 434.535 44.995 434.474 44.995 L 432.883 44.995 Q 432.821 44.995 432.786 44.942 L 430.308 39.238 L 430.308 46.691 Q 430.308 46.797 430.202 46.797 Z" transform="matrix(1.310387, 0, 0, 1.310387, -59.698296, -2.610829)" style="fill: rgb(255, 255, 255);"/>
    <path transform="matrix(1.310387, 0, 0, 1.310387, -59.698296, -2.610829)" style="fill: rgb(255, 255, 255);"/>
    <path d="M 359.218 70.197 Q 359.112 70.197 359.112 70.091 L 359.112 57.497 Q 359.112 57.391 359.218 57.391 L 361.125 57.391 Q 361.23 57.391 361.23 57.497 L 361.23 68.193 L 367.268 68.193 Q 367.374 68.193 367.374 68.298 L 367.374 70.091 Q 367.374 70.197 367.268 70.197 Z M 368.69 63.798 Q 368.69 62.647 368.721 61.917 Q 368.752 61.188 368.805 60.854 Q 368.866 60.52 368.98 60.212 Q 369.095 59.905 369.262 59.606 L 369.253 59.606 Q 369.71 58.753 370.729 58.024 Q 371.758 57.286 373.287 57.286 Q 374.799 57.286 375.827 58.024 Q 376.864 58.771 377.321 59.606 Q 377.646 60.204 377.761 60.854 Q 377.822 61.188 377.853 61.917 Q 377.884 62.647 377.884 63.798 Q 377.884 66.057 377.761 66.751 Q 377.699 67.094 377.589 67.402 Q 377.479 67.709 377.33 67.991 Q 376.864 68.834 375.827 69.573 Q 374.79 70.302 373.287 70.302 Q 371.767 70.302 370.729 69.573 Q 369.71 68.852 369.253 67.991 L 369.262 67.991 Q 369.095 67.692 368.98 67.389 Q 368.866 67.085 368.805 66.751 Q 368.752 66.417 368.721 65.684 Q 368.69 64.95 368.69 63.798 Z M 370.809 63.798 Q 370.809 64.756 370.835 65.376 Q 370.861 65.996 370.932 66.294 Q 371.002 66.567 371.129 66.835 Q 371.257 67.103 371.415 67.305 Q 371.696 67.674 372.162 67.934 Q 372.628 68.193 373.287 68.193 Q 373.937 68.193 374.403 67.934 Q 374.869 67.674 375.142 67.305 Q 375.511 66.857 375.625 66.294 Q 375.766 65.732 375.766 63.798 Q 375.766 62.84 375.73 62.221 Q 375.695 61.601 375.625 61.311 Q 375.563 61.03 375.44 60.762 Q 375.317 60.494 375.15 60.283 Q 375.018 60.116 374.829 59.958 Q 374.641 59.799 374.403 59.681 Q 374.166 59.562 373.885 59.487 Q 373.603 59.413 373.287 59.413 Q 372.628 59.413 372.162 59.676 Q 371.696 59.94 371.415 60.283 Q 371.248 60.494 371.125 60.762 Q 371.002 61.03 370.932 61.311 Q 370.861 61.61 370.835 62.234 Q 370.809 62.858 370.809 63.798 Z M 380.197 70.197 Q 380.091 70.197 380.091 70.091 L 380.091 57.497 Q 380.091 57.391 380.197 57.391 L 382.007 57.391 Q 382.06 57.391 382.095 57.444 L 387.632 66.163 L 387.632 57.497 Q 387.632 57.391 387.738 57.391 L 389.654 57.391 Q 389.759 57.391 389.759 57.497 L 389.759 70.091 Q 389.759 70.197 389.654 70.197 L 387.852 70.197 Q 387.799 70.197 387.764 70.144 L 382.209 61.425 L 382.209 70.091 Q 382.209 70.197 382.113 70.197 Z M 396.587 65.073 Q 396.481 65.073 396.481 64.967 L 396.481 63.157 Q 396.481 63.06 396.587 63.06 L 401.061 63.06 Q 401.166 63.06 401.166 63.157 L 401.166 65.723 Q 401.166 67.666 399.83 68.975 Q 398.477 70.302 396.569 70.302 Q 395.049 70.302 394.012 69.573 Q 392.992 68.852 392.535 67.991 L 392.544 67.991 Q 392.377 67.692 392.263 67.389 Q 392.148 67.085 392.087 66.751 Q 392.034 66.417 392.003 65.684 Q 391.973 64.95 391.973 63.798 Q 391.973 62.647 392.003 61.917 Q 392.034 61.188 392.087 60.854 Q 392.148 60.52 392.263 60.212 Q 392.377 59.905 392.544 59.606 L 392.535 59.606 Q 392.992 58.753 394.012 58.024 Q 395.04 57.286 396.569 57.286 Q 398.397 57.286 399.593 58.411 Q 400.806 59.536 401.096 61.1 Q 401.113 61.153 401.078 61.188 Q 401.043 61.223 400.99 61.223 L 398.978 61.223 Q 398.898 61.223 398.881 61.153 Q 398.767 60.801 398.556 60.498 Q 398.345 60.195 398.037 59.931 Q 397.457 59.413 396.569 59.413 Q 395.91 59.413 395.444 59.676 Q 394.979 59.94 394.697 60.283 Q 394.53 60.494 394.407 60.762 Q 394.284 61.03 394.214 61.311 Q 394.144 61.61 394.117 62.234 Q 394.091 62.858 394.091 63.798 Q 394.091 64.756 394.117 65.376 Q 394.144 65.996 394.214 66.294 Q 394.284 66.567 394.412 66.835 Q 394.539 67.103 394.697 67.305 Q 394.979 67.674 395.444 67.934 Q 395.91 68.193 396.569 68.193 Q 397.615 68.193 398.327 67.481 Q 399.048 66.769 399.048 65.618 L 399.048 65.073 Z M 409.964 70.197 Q 409.858 70.197 409.858 70.091 L 409.858 59.298 L 406.51 59.298 Q 406.404 59.298 406.404 59.193 L 406.404 57.497 Q 406.404 57.391 406.51 57.391 L 415.316 57.391 Q 415.422 57.391 415.422 57.497 L 415.422 59.193 Q 415.422 59.298 415.316 59.298 L 411.976 59.298 L 411.976 70.091 Q 411.976 70.197 411.871 70.197 Z M 423.718 70.197 Q 423.613 70.197 423.613 70.091 L 423.613 64.695 L 418.823 64.695 L 418.823 70.091 Q 418.823 70.197 418.717 70.197 L 416.81 70.197 Q 416.705 70.197 416.705 70.091 L 416.705 57.497 Q 416.705 57.391 416.81 57.391 L 418.717 57.391 Q 418.823 57.391 418.823 57.497 L 418.823 62.788 L 423.613 62.788 L 423.613 57.497 Q 423.613 57.391 423.718 57.391 L 425.625 57.391 Q 425.731 57.391 425.731 57.497 L 425.731 70.091 Q 425.731 70.197 425.625 70.197 Z M 427.233 70.188 Q 427.171 70.188 427.145 70.144 Q 427.118 70.1 427.136 70.047 L 431.741 57.444 Q 431.759 57.374 431.829 57.374 L 433.403 57.374 Q 433.429 57.374 433.46 57.396 Q 433.49 57.417 433.499 57.444 L 438.096 70.047 Q 438.113 70.1 438.087 70.144 Q 438.061 70.188 438.008 70.188 L 435.995 70.188 Q 435.925 70.188 435.907 70.118 L 434.958 67.34 L 430.318 67.34 Q 430.071 68.052 429.83 68.733 Q 429.588 69.415 429.342 70.118 Q 429.333 70.144 429.302 70.166 Q 429.272 70.188 429.245 70.188 Z M 434.325 65.451 Q 434.308 65.389 434.277 65.319 Q 434.246 65.249 434.229 65.196 Q 434.079 64.765 433.956 64.4 Q 433.833 64.036 433.737 63.763 Q 433.675 63.587 433.618 63.42 Q 433.561 63.253 433.508 63.104 Q 433.464 62.963 433.42 62.836 Q 433.376 62.709 433.332 62.585 Q 433.253 62.331 433.17 62.076 Q 433.086 61.821 432.998 61.548 Q 432.954 61.425 432.906 61.276 Q 432.858 61.126 432.805 60.959 Q 432.779 60.872 432.765 60.823 Q 432.752 60.775 432.735 60.727 Q 432.717 60.678 432.695 60.617 Q 432.673 60.555 432.638 60.441 Q 432.541 60.731 432.458 60.977 Q 432.374 61.223 432.304 61.434 Q 432.286 61.487 432.278 61.531 Q 432.269 61.575 432.251 61.619 Q 432.207 61.768 432.159 61.9 Q 432.111 62.032 432.067 62.164 Q 432.023 62.304 431.979 62.436 Q 431.935 62.568 431.891 62.691 Q 431.803 62.955 431.711 63.245 Q 431.618 63.535 431.504 63.851 Q 431.39 64.167 431.267 64.532 Q 431.144 64.897 430.95 65.451 Z M 433.165 56.257 Q 433.148 56.257 433.121 56.244 Q 433.095 56.231 433.086 56.222 L 430.66 53.656 Q 430.608 53.603 430.638 53.542 Q 430.669 53.48 430.739 53.48 L 432.673 53.48 Q 432.726 53.48 432.761 53.533 L 434.598 56.099 Q 434.624 56.161 434.602 56.209 Q 434.58 56.257 434.51 56.257 Z M 439.687 70.197 Q 439.582 70.197 439.582 70.091 L 439.582 57.497 Q 439.582 57.391 439.687 57.391 L 441.498 57.391 Q 441.551 57.391 441.586 57.444 L 447.123 66.163 L 447.123 57.497 Q 447.123 57.391 447.228 57.391 L 449.144 57.391 Q 449.25 57.391 449.25 57.497 L 449.25 70.091 Q 449.25 70.197 449.144 70.197 L 447.343 70.197 Q 447.29 70.197 447.255 70.144 L 441.7 61.425 L 441.7 70.091 Q 441.7 70.197 441.603 70.197 Z M 458.902 70.197 Q 458.797 70.197 458.797 70.091 L 458.797 64.695 L 454.007 64.695 L 454.007 70.091 Q 454.007 70.197 453.901 70.197 L 451.994 70.197 Q 451.889 70.197 451.889 70.091 L 451.889 57.497 Q 451.889 57.391 451.994 57.391 L 453.901 57.391 Q 454.007 57.391 454.007 57.497 L 454.007 62.788 L 458.797 62.788 L 458.797 57.497 Q 458.797 57.391 458.902 57.391 L 460.81 57.391 Q 460.915 57.391 460.915 57.497 L 460.915 70.091 Q 460.915 70.197 460.81 70.197 Z" transform="matrix(1.310387, 0, 0, 1.310387, -59.698296, -2.610829)" style="fill: rgb(255, 255, 255);"/>
    <path transform="matrix(1.310387, 0, 0, 1.310387, -59.698296, -2.610829)" style="fill: rgb(255, 255, 255);"/>
    <path d="M 374.111 93.597 Q 374.005 93.597 374.005 93.491 L 374.005 80.897 Q 374.005 80.791 374.111 80.791 L 378.523 80.791 Q 381.16 80.791 382.443 82.962 Q 382.68 83.384 382.83 83.762 Q 382.979 84.14 383.032 84.5 Q 383.137 85.203 383.137 87.198 Q 383.137 89.334 382.988 90.064 Q 382.917 90.433 382.777 90.78 Q 382.636 91.127 382.408 91.47 L 382.408 91.461 Q 381.836 92.366 380.826 92.982 Q 379.797 93.597 378.4 93.597 Z M 376.124 82.813 L 376.124 91.593 L 378.312 91.593 Q 379.824 91.593 380.562 90.538 Q 380.852 90.072 380.931 89.563 Q 380.975 89.281 380.997 88.714 Q 381.019 88.148 381.019 87.269 Q 381.019 86.416 380.993 85.845 Q 380.966 85.274 380.922 84.94 Q 380.834 84.324 380.474 83.823 Q 379.727 82.813 378.312 82.813 Z M 384.207 93.588 Q 384.146 93.588 384.119 93.544 Q 384.093 93.5 384.11 93.447 L 388.716 80.844 Q 388.733 80.774 388.804 80.774 L 390.377 80.774 Q 390.403 80.774 390.434 80.796 Q 390.465 80.817 390.474 80.844 L 395.07 93.447 Q 395.088 93.5 395.062 93.544 Q 395.035 93.588 394.982 93.588 L 392.97 93.588 Q 392.899 93.588 392.882 93.518 L 391.933 90.74 L 387.292 90.74 Q 387.046 91.452 386.804 92.133 Q 386.563 92.815 386.316 93.518 Q 386.308 93.544 386.277 93.566 Q 386.246 93.588 386.22 93.588 Z M 391.3 88.851 Q 391.282 88.789 391.251 88.719 Q 391.221 88.649 391.203 88.596 Q 391.054 88.165 390.931 87.8 Q 390.808 87.436 390.711 87.163 Q 390.649 86.987 390.592 86.82 Q 390.535 86.653 390.482 86.504 Q 390.438 86.363 390.395 86.236 Q 390.351 86.109 390.307 85.985 Q 390.228 85.731 390.144 85.476 Q 390.061 85.221 389.973 84.948 Q 389.929 84.825 389.88 84.676 Q 389.832 84.526 389.779 84.359 Q 389.753 84.272 389.74 84.223 Q 389.727 84.175 389.709 84.127 Q 389.691 84.078 389.669 84.017 Q 389.647 83.955 389.612 83.841 Q 389.516 84.131 389.432 84.377 Q 389.349 84.623 389.278 84.834 Q 389.261 84.887 389.252 84.931 Q 389.243 84.975 389.226 85.019 Q 389.182 85.168 389.133 85.3 Q 389.085 85.432 389.041 85.564 Q 388.997 85.704 388.953 85.836 Q 388.909 85.968 388.865 86.091 Q 388.777 86.355 388.685 86.645 Q 388.593 86.935 388.479 87.251 Q 388.364 87.567 388.241 87.932 Q 388.118 88.297 387.925 88.851 Z M 386.457 79.657 Q 386.378 79.657 386.36 79.587 Q 386.343 79.517 386.396 79.473 L 388.979 77.425 L 390.166 77.425 L 392.785 79.473 Q 392.847 79.517 392.825 79.587 Q 392.803 79.657 392.724 79.657 L 391.247 79.657 L 389.489 78.708 Q 389.103 78.945 388.707 79.183 Q 388.312 79.42 387.925 79.657 Z M 392.618 78.374 Q 392.601 78.374 392.574 78.361 Q 392.548 78.348 392.539 78.339 L 390.113 75.773 Q 390.061 75.72 390.091 75.658 Q 390.122 75.597 390.192 75.597 L 392.126 75.597 Q 392.179 75.597 392.214 75.65 L 394.051 78.216 Q 394.077 78.277 394.055 78.326 Q 394.033 78.374 393.963 78.374 Z M 396.328 80.897 Q 396.328 80.791 396.433 80.791 L 398.349 80.791 Q 398.446 80.791 398.446 80.897 L 398.446 89.018 Q 398.446 90.283 399.149 90.934 Q 399.861 91.593 400.916 91.593 Q 401.953 91.593 402.665 90.934 Q 403.377 90.275 403.377 89.018 L 403.377 80.897 Q 403.377 80.791 403.482 80.791 L 405.389 80.791 Q 405.495 80.791 405.495 80.897 L 405.495 89.229 Q 405.495 91.25 404.15 92.481 Q 402.823 93.702 400.916 93.702 Q 399 93.702 397.664 92.481 Q 396.328 91.25 396.328 89.229 Z M 416.401 88.473 Q 416.296 88.473 416.296 88.367 L 416.296 86.557 Q 416.296 86.46 416.401 86.46 L 420.875 86.46 Q 420.981 86.46 420.981 86.557 L 420.981 89.123 Q 420.981 91.066 419.645 92.375 Q 418.291 93.702 416.384 93.702 Q 414.863 93.702 413.826 92.973 Q 412.807 92.252 412.35 91.391 L 412.358 91.391 Q 412.191 91.092 412.077 90.789 Q 411.963 90.485 411.901 90.151 Q 411.849 89.817 411.818 89.084 Q 411.787 88.35 411.787 87.198 Q 411.787 86.047 411.818 85.317 Q 411.849 84.588 411.901 84.254 Q 411.963 83.92 412.077 83.612 Q 412.191 83.305 412.358 83.006 L 412.35 83.006 Q 412.807 82.153 413.826 81.424 Q 414.855 80.686 416.384 80.686 Q 418.212 80.686 419.407 81.811 Q 420.62 82.936 420.91 84.5 Q 420.928 84.553 420.893 84.588 Q 420.857 84.623 420.805 84.623 L 418.792 84.623 Q 418.713 84.623 418.695 84.553 Q 418.581 84.201 418.37 83.898 Q 418.159 83.595 417.852 83.331 Q 417.272 82.813 416.384 82.813 Q 415.725 82.813 415.259 83.076 Q 414.793 83.34 414.512 83.683 Q 414.345 83.894 414.222 84.162 Q 414.099 84.43 414.028 84.711 Q 413.958 85.01 413.932 85.634 Q 413.905 86.258 413.905 87.198 Q 413.905 88.156 413.932 88.776 Q 413.958 89.396 414.028 89.694 Q 414.099 89.967 414.226 90.235 Q 414.354 90.503 414.512 90.705 Q 414.793 91.074 415.259 91.334 Q 415.725 91.593 416.384 91.593 Q 417.43 91.593 418.142 90.881 Q 418.862 90.169 418.862 89.018 L 418.862 88.473 Z M 423.267 93.597 Q 423.162 93.597 423.162 93.491 L 423.162 80.897 Q 423.162 80.791 423.267 80.791 L 425.174 80.791 Q 425.28 80.791 425.28 80.897 L 425.28 93.491 Q 425.28 93.597 425.174 93.597 Z M 426.694 93.588 Q 426.633 93.588 426.606 93.544 Q 426.58 93.5 426.598 93.447 L 431.203 80.844 Q 431.221 80.774 431.291 80.774 L 432.864 80.774 Q 432.891 80.774 432.921 80.796 Q 432.952 80.817 432.961 80.844 L 437.558 93.447 Q 437.575 93.5 437.549 93.544 Q 437.522 93.588 437.47 93.588 L 435.457 93.588 Q 435.387 93.588 435.369 93.518 L 434.42 90.74 L 429.779 90.74 Q 429.533 91.452 429.292 92.133 Q 429.05 92.815 428.804 93.518 Q 428.795 93.544 428.764 93.566 Q 428.733 93.588 428.707 93.588 Z M 433.787 88.851 Q 433.77 88.789 433.739 88.719 Q 433.708 88.649 433.69 88.596 Q 433.541 88.165 433.418 87.8 Q 433.295 87.436 433.198 87.163 Q 433.137 86.987 433.08 86.82 Q 433.022 86.653 432.97 86.504 Q 432.926 86.363 432.882 86.236 Q 432.838 86.109 432.794 85.985 Q 432.715 85.731 432.631 85.476 Q 432.548 85.221 432.46 84.948 Q 432.416 84.825 432.368 84.676 Q 432.319 84.526 432.267 84.359 Q 432.24 84.272 432.227 84.223 Q 432.214 84.175 432.196 84.127 Q 432.179 84.078 432.157 84.017 Q 432.135 83.955 432.1 83.841 Q 432.003 84.131 431.919 84.377 Q 431.836 84.623 431.766 84.834 Q 431.748 84.887 431.739 84.931 Q 431.73 84.975 431.713 85.019 Q 431.669 85.168 431.621 85.3 Q 431.572 85.432 431.528 85.564 Q 431.484 85.704 431.44 85.836 Q 431.396 85.968 431.353 86.091 Q 431.265 86.355 431.172 86.645 Q 431.08 86.935 430.966 87.251 Q 430.852 87.567 430.729 87.932 Q 430.605 88.297 430.412 88.851 Z M 428.944 79.657 Q 428.865 79.657 428.848 79.587 Q 428.83 79.517 428.883 79.473 L 431.467 77.425 L 432.653 77.425 L 435.272 79.473 Q 435.334 79.517 435.312 79.587 Q 435.29 79.657 435.211 79.657 L 433.734 79.657 L 431.977 78.708 Q 431.59 78.945 431.194 79.183 Q 430.799 79.42 430.412 79.657 Z M 441.654 93.597 Q 441.557 93.597 441.557 93.491 L 441.557 88.341 Q 440.608 86.486 439.668 84.641 Q 438.727 82.795 437.787 80.941 Q 437.76 80.879 437.787 80.835 Q 437.813 80.791 437.883 80.791 L 439.887 80.791 Q 439.914 80.791 439.94 80.813 Q 439.966 80.835 439.984 80.853 L 442.568 86.249 Q 443.218 84.887 443.856 83.551 Q 444.493 82.215 445.143 80.853 Q 445.161 80.835 445.187 80.813 Q 445.213 80.791 445.24 80.791 L 447.253 80.791 Q 447.323 80.791 447.349 80.835 Q 447.376 80.879 447.349 80.941 L 443.57 88.341 L 443.57 93.491 Q 443.57 93.597 443.464 93.597 Z" transform="matrix(1.310387, 0, 0, 1.310387, -59.698296, -2.610829)" style="fill: rgb(255, 255, 255);"/>
    <path d="M 425.404 145.732 Q 425.297 145.732 425.297 145.625 L 425.297 132.891 Q 425.297 132.784 425.404 132.784 L 433.544 132.784 Q 433.651 132.784 433.651 132.891 L 433.651 134.721 Q 433.651 134.828 433.544 134.828 L 427.439 134.828 L 427.439 138.24 L 432.629 138.24 Q 432.736 138.24 432.736 138.347 L 432.736 140.071 Q 432.736 140.169 432.629 140.169 L 427.439 140.169 L 427.439 143.706 L 433.544 143.706 Q 433.651 143.706 433.651 143.812 L 433.651 145.625 Q 433.651 145.732 433.544 145.732 Z M 441.821 145.732 Q 441.768 145.732 441.732 145.679 L 439.031 141.093 Q 438.355 142.248 437.68 143.386 Q 437.005 144.523 436.329 145.679 Q 436.294 145.732 436.24 145.732 L 434.063 145.732 Q 433.992 145.732 433.965 145.683 Q 433.939 145.634 433.974 145.572 L 437.84 139.094 Q 436.925 137.547 436.027 136.019 Q 435.129 134.49 434.223 132.944 Q 434.187 132.882 434.214 132.833 Q 434.241 132.784 434.303 132.784 L 436.489 132.784 Q 436.542 132.784 436.578 132.837 L 439.031 137.103 Q 439.644 136.036 440.257 134.975 Q 440.87 133.913 441.483 132.837 Q 441.519 132.784 441.572 132.784 L 443.758 132.784 Q 443.821 132.784 443.847 132.833 Q 443.874 132.882 443.838 132.944 L 440.222 139.094 Q 441.199 140.72 442.159 142.333 Q 443.119 143.946 444.096 145.572 Q 444.132 145.634 444.105 145.683 Q 444.078 145.732 444.007 145.732 Z M 447.4 134.828 L 447.4 138.72 L 450.164 138.72 Q 451.186 138.72 451.683 138.107 Q 452.19 137.512 452.19 136.774 Q 452.19 135.672 451.408 135.166 Q 450.901 134.828 450.093 134.828 Z M 445.365 145.732 Q 445.258 145.732 445.258 145.625 L 445.258 132.891 Q 445.258 132.784 445.365 132.784 L 449.986 132.784 Q 450.75 132.784 451.435 132.944 Q 452.128 133.104 452.91 133.708 Q 453.212 133.948 453.465 134.264 Q 453.718 134.579 453.923 134.961 Q 454.118 135.352 454.225 135.823 Q 454.332 136.294 454.332 136.827 Q 454.332 138.223 453.283 139.493 Q 452.234 140.755 450.235 140.755 L 447.4 140.755 L 447.4 145.625 Q 447.4 145.732 447.293 145.732 Z M 458.017 134.712 L 458.017 138.365 L 460.834 138.365 Q 461.865 138.365 462.38 137.796 Q 462.896 137.227 462.896 136.445 Q 462.896 136.001 462.74 135.654 Q 462.585 135.308 462.291 135.086 Q 462.034 134.908 461.691 134.81 Q 461.349 134.712 460.949 134.712 Z M 455.982 145.732 Q 455.875 145.732 455.875 145.625 L 455.875 132.891 Q 455.875 132.784 455.982 132.784 L 460.967 132.784 Q 461.794 132.784 462.46 133.011 Q 463.127 133.237 463.624 133.655 Q 463.882 133.895 464.118 134.201 Q 464.353 134.508 464.535 134.863 Q 464.717 135.219 464.824 135.619 Q 464.931 136.019 464.931 136.445 Q 464.931 137.076 464.753 137.641 Q 464.575 138.205 464.255 138.694 Q 463.926 139.147 463.491 139.489 Q 463.056 139.831 462.505 140.036 Q 463.224 141.413 463.953 142.804 Q 464.682 144.194 465.402 145.572 Q 465.428 145.634 465.402 145.683 Q 465.375 145.732 465.313 145.732 L 463.02 145.732 Q 462.993 145.732 462.967 145.71 Q 462.94 145.687 462.922 145.67 L 460.318 140.293 L 458.017 140.293 L 458.017 145.625 Q 458.017 145.732 457.91 145.732 Z M 466.913 145.732 Q 466.807 145.732 466.807 145.625 L 466.807 132.891 Q 466.807 132.784 466.913 132.784 L 475.053 132.784 Q 475.16 132.784 475.16 132.891 L 475.16 134.721 Q 475.16 134.828 475.053 134.828 L 468.948 134.828 L 468.948 138.24 L 474.138 138.24 Q 474.245 138.24 474.245 138.347 L 474.245 140.071 Q 474.245 140.169 474.138 140.169 L 468.948 140.169 L 468.948 143.706 L 475.053 143.706 Q 475.16 143.706 475.16 143.812 L 475.16 145.625 Q 475.16 145.732 475.053 145.732 Z M 476.932 142.462 Q 476.958 142.426 477.003 142.426 Q 477.047 142.426 477.083 142.453 Q 477.785 143.021 478.696 143.364 Q 479.607 143.706 480.62 143.706 Q 481.757 143.706 482.415 143.235 Q 483.037 142.782 483.037 142.035 Q 483.037 140.631 481.464 140.418 L 481.473 140.418 Q 481.251 140.391 481.051 140.364 Q 480.851 140.338 480.651 140.311 Q 480.451 140.284 480.242 140.253 Q 480.033 140.222 479.784 140.187 Q 478.949 140.071 478.296 139.764 Q 477.643 139.458 477.198 138.951 Q 476.754 138.436 476.532 137.827 Q 476.31 137.218 476.31 136.499 Q 476.31 134.81 477.429 133.753 Q 478.558 132.677 480.567 132.677 Q 481.162 132.677 481.726 132.78 Q 482.291 132.882 482.819 133.059 Q 483.348 133.237 483.832 133.482 Q 484.317 133.726 484.761 134.019 Q 484.85 134.081 484.788 134.17 L 483.712 135.761 Q 483.65 135.841 483.57 135.788 Q 482.877 135.352 482.095 135.09 Q 481.313 134.828 480.478 134.828 Q 480.051 134.828 479.687 134.93 Q 479.322 135.032 479.029 135.263 Q 478.451 135.681 478.451 136.534 Q 478.451 137.023 478.842 137.485 Q 479.038 137.698 479.367 137.845 Q 479.696 137.992 480.175 138.063 Q 480.433 138.107 480.78 138.156 Q 481.126 138.205 481.597 138.258 Q 483.419 138.48 484.299 139.6 Q 485.179 140.693 485.179 142.035 Q 485.179 143.83 483.926 144.843 Q 482.664 145.839 480.602 145.839 Q 477.696 145.839 475.661 144.061 Q 475.625 144.035 475.625 143.99 Q 475.625 143.946 475.652 143.91 Z M 487.205 142.462 Q 487.231 142.426 487.276 142.426 Q 487.32 142.426 487.356 142.453 Q 488.058 143.021 488.969 143.364 Q 489.88 143.706 490.893 143.706 Q 492.03 143.706 492.688 143.235 Q 493.31 142.782 493.31 142.035 Q 493.31 140.631 491.737 140.418 L 491.746 140.418 Q 491.524 140.391 491.324 140.364 Q 491.124 140.338 490.924 140.311 Q 490.724 140.284 490.515 140.253 Q 490.306 140.222 490.057 140.187 Q 489.222 140.071 488.569 139.764 Q 487.916 139.458 487.471 138.951 Q 487.027 138.436 486.805 137.827 Q 486.583 137.218 486.583 136.499 Q 486.583 134.81 487.702 133.753 Q 488.831 132.677 490.839 132.677 Q 491.435 132.677 491.999 132.78 Q 492.563 132.882 493.092 133.059 Q 493.621 133.237 494.105 133.482 Q 494.59 133.726 495.034 134.019 Q 495.123 134.081 495.061 134.17 L 493.985 135.761 Q 493.923 135.841 493.843 135.788 Q 493.15 135.352 492.368 135.09 Q 491.586 134.828 490.75 134.828 Q 490.324 134.828 489.96 134.93 Q 489.595 135.032 489.302 135.263 Q 488.724 135.681 488.724 136.534 Q 488.724 137.023 489.115 137.485 Q 489.311 137.698 489.64 137.845 Q 489.968 137.992 490.448 138.063 Q 490.706 138.107 491.053 138.156 Q 491.399 138.205 491.87 138.258 Q 493.692 138.48 494.572 139.6 Q 495.452 140.693 495.452 142.035 Q 495.452 143.83 494.199 144.843 Q 492.937 145.839 490.875 145.839 Q 487.969 145.839 485.934 144.061 Q 485.898 144.035 485.898 143.99 Q 485.898 143.946 485.925 143.91 Z M 499.459 145.732 Q 499.37 145.732 499.353 145.652 L 496.162 132.917 Q 496.144 132.864 496.18 132.824 Q 496.216 132.784 496.269 132.784 L 498.313 132.784 Q 498.402 132.784 498.419 132.864 L 500.339 141.564 Q 500.926 139.378 501.521 137.218 Q 502.116 135.059 502.712 132.864 Q 502.73 132.784 502.818 132.784 L 504.214 132.784 Q 504.294 132.784 504.311 132.864 L 506.693 141.564 Q 507.173 139.378 507.653 137.218 Q 508.133 135.059 508.613 132.864 Q 508.63 132.784 508.719 132.784 L 510.763 132.784 Q 510.816 132.784 510.852 132.824 Q 510.888 132.864 510.87 132.917 L 507.679 145.652 Q 507.662 145.732 507.573 145.732 L 505.964 145.732 Q 505.884 145.732 505.867 145.652 L 503.512 136.81 Q 502.925 139.04 502.339 141.235 Q 501.752 143.43 501.165 145.652 Q 501.148 145.732 501.068 145.732 Z M 510.782 145.723 Q 510.72 145.723 510.693 145.679 Q 510.667 145.634 510.684 145.581 L 515.341 132.837 Q 515.359 132.766 515.43 132.766 L 517.021 132.766 Q 517.047 132.766 517.078 132.788 Q 517.109 132.811 517.118 132.837 L 521.766 145.581 Q 521.784 145.634 521.757 145.679 Q 521.73 145.723 521.677 145.723 L 519.642 145.723 Q 519.571 145.723 519.553 145.652 L 518.593 142.844 L 513.901 142.844 Q 513.652 143.564 513.408 144.252 Q 513.164 144.941 512.915 145.652 Q 512.906 145.679 512.875 145.701 Q 512.844 145.723 512.817 145.723 Z M 517.954 140.933 Q 517.936 140.871 517.905 140.8 Q 517.874 140.729 517.856 140.675 Q 517.705 140.24 517.58 139.871 Q 517.456 139.502 517.358 139.227 Q 517.296 139.049 517.238 138.88 Q 517.18 138.711 517.127 138.56 Q 517.083 138.418 517.038 138.289 Q 516.994 138.16 516.949 138.036 Q 516.869 137.778 516.785 137.521 Q 516.701 137.263 516.612 136.987 Q 516.567 136.863 516.518 136.712 Q 516.47 136.561 516.416 136.392 Q 516.39 136.303 516.376 136.254 Q 516.363 136.205 516.345 136.156 Q 516.327 136.108 516.305 136.045 Q 516.283 135.983 516.247 135.868 Q 516.15 136.161 516.065 136.41 Q 515.981 136.659 515.91 136.872 Q 515.892 136.925 515.883 136.97 Q 515.874 137.014 515.856 137.058 Q 515.812 137.21 515.763 137.343 Q 515.714 137.476 515.67 137.609 Q 515.625 137.752 515.581 137.885 Q 515.536 138.018 515.492 138.143 Q 515.403 138.409 515.31 138.702 Q 515.217 138.996 515.101 139.316 Q 514.985 139.636 514.861 140.004 Q 514.737 140.373 514.541 140.933 Z M 524.747 145.732 Q 524.649 145.732 524.649 145.625 L 524.649 140.418 Q 523.69 138.543 522.739 136.676 Q 521.788 134.81 520.837 132.935 Q 520.81 132.873 520.837 132.828 Q 520.864 132.784 520.935 132.784 L 522.961 132.784 Q 522.988 132.784 523.014 132.806 Q 523.041 132.828 523.059 132.846 L 525.671 138.303 Q 526.329 136.925 526.973 135.574 Q 527.618 134.224 528.275 132.846 Q 528.293 132.828 528.32 132.806 Q 528.346 132.784 528.373 132.784 L 530.408 132.784 Q 530.479 132.784 530.506 132.828 Q 530.532 132.873 530.506 132.935 L 526.685 140.418 L 526.685 145.625 Q 526.685 145.732 526.578 145.732 Z" style="fill: rgb(255, 255, 255);"/>
    <path d="M 396.429 221.467 L 396.429 200.945 L 392.982 203.508 L 392.982 199.85 L 396.429 197.322 L 399.858 197.322 L 399.858 221.467 Z M 414.645 221.621 L 404.358 221.621 L 404.358 218.439 L 410.774 205.978 Q 411.199 205.112 411.199 204.21 L 411.199 202.407 Q 411.199 201.683 410.695 201.17 Q 410.191 200.658 409.466 200.658 Q 408.812 200.658 408.291 201.108 Q 407.77 201.559 407.77 202.248 L 407.77 204.387 L 404.287 204.387 L 404.287 202.655 Q 404.287 201.241 405.357 199.252 Q 406.426 197.264 409.643 197.264 Q 411.676 197.264 413.161 198.819 Q 414.645 200.375 414.645 202.407 L 414.645 204.599 Q 414.645 205.359 414.442 206.084 Q 414.239 206.809 413.85 207.569 L 408.406 218.174 L 414.645 218.174 Z M 422.788 221.692 Q 418.987 220.967 418.369 217.237 Q 418.369 213.366 418.369 209.478 Q 418.369 205.589 418.369 201.683 Q 418.846 198.855 420.87 197.874 Q 422.894 196.893 425.492 197.476 Q 426.8 198.271 427.595 199.155 Q 428.391 200.039 428.691 201.683 Q 428.691 205.589 428.691 209.46 Q 428.691 213.331 428.691 217.167 Q 428.179 220.684 424.926 221.656 Q 424.52 221.656 424.246 221.674 Q 423.972 221.692 422.788 221.692 Z M 423.141 218.21 Q 424.732 218.21 425.174 216.813 Q 425.174 213.154 425.174 209.513 Q 425.174 205.872 425.174 202.213 Q 424.962 201.559 424.697 201.135 Q 423.654 200.339 422.929 200.79 Q 422.204 201.241 421.886 202.213 Q 421.886 205.837 421.886 209.478 Q 421.886 213.119 421.886 216.742 Q 422.098 217.856 423.141 218.21 Z"/>
    <path d="M 343.119 96.399 Q 343.191 96.399 343.239 96.453 Q 343.288 96.507 343.263 96.579 Q 342.759 99.03 341.029 100.351 Q 340.188 100.988 339.204 101.312 Q 338.219 101.636 337.077 101.636 Q 334.999 101.636 333.582 100.639 Q 332.189 99.654 331.564 98.477 Q 331.348 98.069 331.192 97.654 Q 331.036 97.24 330.951 96.783 Q 330.795 95.895 330.795 92.747 Q 330.795 91.174 330.831 90.177 Q 330.867 89.18 330.951 88.724 Q 331.036 88.267 331.192 87.847 Q 331.348 87.426 331.564 87.018 Q 332.189 85.853 333.582 84.856 Q 334.987 83.847 337.077 83.847 Q 339.576 83.847 341.209 85.384 Q 342.867 86.934 343.263 89.06 Q 343.288 89.132 343.239 89.18 Q 343.191 89.228 343.119 89.228 L 340.369 89.228 Q 340.261 89.228 340.237 89.132 Q 340.08 88.651 339.792 88.237 Q 339.504 87.823 339.083 87.462 Q 338.291 86.754 337.077 86.754 Q 336.177 86.754 335.54 87.114 Q 334.903 87.474 334.519 87.943 Q 334.291 88.231 334.123 88.597 Q 333.954 88.964 333.858 89.348 Q 333.762 89.757 333.726 90.609 Q 333.69 91.462 333.69 92.747 Q 333.69 94.057 333.726 94.904 Q 333.762 95.75 333.858 96.159 Q 333.954 96.531 334.129 96.898 Q 334.303 97.264 334.519 97.54 Q 334.903 98.045 335.54 98.399 Q 336.177 98.753 337.077 98.753 Q 339.155 98.753 340.237 96.483 Q 340.261 96.459 340.297 96.429 Q 340.333 96.399 340.369 96.399 Z M 348.147 101.492 Q 348.003 101.492 348.003 101.348 L 348.003 86.597 L 343.427 86.597 Q 343.283 86.597 343.283 86.453 L 343.283 84.135 Q 343.283 83.991 343.427 83.991 L 355.462 83.991 Q 355.607 83.991 355.607 84.135 L 355.607 86.453 Q 355.607 86.597 355.462 86.597 L 350.898 86.597 L 350.898 101.348 Q 350.898 101.492 350.754 101.492 Z M 355.976 101.492 Q 355.832 101.492 355.832 101.348 L 355.832 98.91 Q 355.832 98.765 355.976 98.765 L 358.426 98.765 Q 358.558 98.765 358.558 98.91 L 358.558 101.348 Q 358.558 101.492 358.426 101.492 Z M 366.925 89.168 Q 366.925 88.003 366.306 87.348 Q 365.687 86.694 364.654 86.694 Q 363.621 86.694 363.009 87.348 Q 362.396 88.003 362.396 89.168 L 362.396 96.435 Q 362.396 97.612 363.009 98.261 Q 363.621 98.91 364.654 98.91 Q 365.687 98.91 366.306 98.261 Q 366.925 97.612 366.925 96.435 Z M 359.658 89.024 Q 359.658 86.597 361.183 85.288 Q 362.697 83.955 364.654 83.955 Q 365.627 83.955 366.498 84.297 Q 367.369 84.64 368.126 85.288 Q 368.883 85.961 369.273 86.892 Q 369.663 87.823 369.663 89.024 L 369.663 96.579 Q 369.663 98.994 368.126 100.315 Q 366.612 101.636 364.654 101.636 Q 362.697 101.636 361.183 100.315 Q 359.658 99.006 359.658 96.579 Z M 374.695 101.528 Q 374.551 101.528 374.551 101.384 L 374.551 87.114 Q 373.998 87.522 373.446 87.937 Q 372.893 88.351 372.341 88.748 Q 372.257 88.808 372.185 88.766 Q 372.113 88.724 372.113 88.627 L 372.113 86.021 Q 372.113 85.997 372.131 85.961 Q 372.149 85.925 372.173 85.901 L 374.647 84.111 L 377.158 84.111 Q 377.302 84.111 377.302 84.255 L 377.302 101.384 Q 377.302 101.528 377.158 101.528 Z"/>
    <path d="M 311.417 24.287 L 618.646 24.287 C 622.27 24.287 625.208 27.225 625.208 30.849 L 625.208 245.662 C 625.208 249.286 622.27 252.224 618.646 252.224 L 311.417 252.224 C 307.793 252.224 304.855 249.286 304.855 245.662 L 304.855 30.849 C 304.855 27.225 307.793 24.287 311.417 24.287 Z M 307.324 30.904 L 307.324 161.854 C 307.324 164.133 309.171 165.98 311.45 165.98 L 618.601 165.98 C 620.88 165.98 622.727 164.133 622.727 161.854 L 622.727 30.904 C 622.727 28.625 620.88 26.778 618.601 26.778 L 311.45 26.778 C 309.171 26.778 307.324 28.625 307.324 30.904 Z M 307.324 173.048 L 307.324 245.784 C 307.324 248.063 309.171 249.91 311.45 249.91 L 618.601 249.91 C 620.88 249.91 622.727 248.063 622.727 245.784 L 622.727 173.048 C 622.727 170.769 620.88 168.922 618.601 168.922 L 311.45 168.922 C 309.171 168.922 307.324 170.769 307.324 173.048 Z" style="fill: rgb(255, 255, 255);"/>
  </g>
</svg>