<?xml version="1.0" encoding="utf-8"?>
<svg viewBox="0 0 323.14914 200" xmlns="http://www.w3.org/2000/svg">
  <g id="layer1" transform="matrix(0.9999999999999999, 0, 0, 0.9999999999999999, -303.4596862792969, -22.960700988769517)">
    <path id="rect15575" style="opacity:1;fill:#0a9646;fill-opacity:1;fill-rule:evenodd;stroke-width:0.0420687;stroke-linecap:square;stroke-miterlimit:10;paint-order:stroke fill markers" d="M 303.45966,22.960701 H 626.6088 V 222.9607 H 303.45966 Z"/>
    <path transform="matrix(0.26458333,0,0,0.26458333,303.45966,22.960701)" d="m 30.353516,5.0117188 c -13.808655,0 -25.0781254,11.2674112 -25.0781254,25.0761722 v 332.957029 47.1211 49.04296 13.88672 252.45508 c 0,13.80862 11.2694704,25.06641 25.0781254,25.06641 H 1190.9805 c 13.8086,0 25.0781,-11.25779 25.0781,-25.06641 V 473.0957 459.57031 401.94727 363.04492 30.087891 c 0,-13.808761 -11.2695,-25.0761722 -25.0781,-25.0761722 z m 0,9.4511722 H 1190.9805 c 8.7398,0 15.6425,6.885058 15.6425,15.625 v 332.957029 38.90235 c 0,0.29959 -0.013,0.61475 -0.037,0.9375 v 7.20703 c 0,8.68754 -6.9941,15.68164 -15.6816,15.68164 h -8.0762 c -0.1869,0.007 -0.3766,0.0176 -0.5586,0.0176 H 38.023438 c -0.18105,0 -0.371847,-0.0102 -0.560547,-0.0176 h -7.097657 c -8.687546,0 -15.68164,-6.9941 -15.68164,-15.68164 V 30.152344 c 0,-1.658433 0.257595,-3.253829 0.730468,-4.751953 0.01365,-0.04461 0.03284,-0.08643 0.04688,-0.13086 1.99686,-6.321925 7.84094,-10.80664 14.892578,-10.80664 z M 30.28125,435.30469 h 6.958984 1145.628866 8.1172 c 8.6414,0 15.5996,6.95633 15.5996,15.59765 v 7.5918 c 0.024,0.37296 0.037,0.7339 0.037,1.07617 v 13.52539 252.45508 c 0,5.47634 -2.7106,10.22208 -6.8847,13.00391 -2.4923,1.6862 -5.5034,2.66992 -8.752,2.66992 H 30.28125 c -8.641361,0 -15.597656,-6.9563 -15.597656,-15.59766 V 450.90234 c 0,-8.64132 6.956295,-15.59765 15.597656,-15.59765 z" style="color:#000000;font-style:normal;font-variant:normal;font-weight:normal;font-stretch:normal;font-size:medium;line-height:normal;font-family:sans-serif;font-variant-ligatures:normal;font-variant-position:normal;font-variant-caps:normal;font-variant-numeric:normal;font-variant-alternates:normal;font-variant-east-asian:normal;font-feature-settings:normal;font-variation-settings:normal;text-indent:0;text-align:start;text-decoration:none;text-decoration-line:none;text-decoration-style:solid;text-decoration-color:#000000;letter-spacing:normal;word-spacing:normal;text-transform:none;writing-mode:lr-tb;direction:ltr;text-orientation:mixed;dominant-baseline:auto;baseline-shift:baseline;text-anchor:start;white-space:normal;shape-padding:0;shape-margin:0;inline-size:0;clip-rule:nonzero;display:inline;overflow:visible;visibility:visible;opacity:1;isolation:auto;mix-blend-mode:normal;color-interpolation:sRGB;color-interpolation-filters:linearRGB;solid-color:#000000;solid-opacity:1;vector-effect:none;fill:#ffffff;fill-opacity:1;fill-rule:evenodd;stroke:none;stroke-width:2.09199;stroke-linecap:square;stroke-linejoin:miter;stroke-miterlimit:10;stroke-dasharray:none;stroke-dashoffset:0;stroke-opacity:1;paint-order:stroke fill markers;color-rendering:auto;image-rendering:auto;shape-rendering:auto;text-rendering:auto;enable-background:accumulate;stop-color:#000000;stop-opacity:1" id="path15582"/>
    <path d="m 324.12038,67.193614 h 60.89334 v 27.821331 h -60.89334 z" style="opacity:1;fill:#ffd70f;fill-opacity:1;fill-rule:evenodd;stroke:none;stroke-width:0.553508;stroke-linecap:square;stroke-miterlimit:10;stroke-dasharray:none;stroke-opacity:1;paint-order:stroke fill markers" id="rect15605"/>
    <path id="path15631" d="m 326.18273,67.759747 c -0.81115,0 -1.47443,0.660164 -1.47443,1.471307 v 23.746432 c 0,0.811142 0.66328,1.471323 1.47443,1.471323 h 56.7905 c 0.81117,0 1.4744,-0.660181 1.4744,-1.471323 V 69.231054 c 0,-0.811143 -0.66328,-1.471307 -1.4744,-1.471307 z m 0,0.535017 h 56.7905 c 0.52266,0 0.93627,0.413622 0.93627,0.93629 v 23.746432 c 0,0.522654 -0.41353,0.933189 -0.93627,0.933189 h -56.7905 c -0.52266,0 -0.93628,-0.410555 -0.93628,-0.933189 V 69.231054 c 0,-0.522672 0.41354,-0.93629 0.93628,-0.93629 z" style="color:#000000;font-style:normal;font-variant:normal;font-weight:normal;font-stretch:normal;font-size:medium;line-height:normal;font-family:sans-serif;font-variant-ligatures:normal;font-variant-position:normal;font-variant-caps:normal;font-variant-numeric:normal;font-variant-alternates:normal;font-variant-east-asian:normal;font-feature-settings:normal;font-variation-settings:normal;text-indent:0;text-align:start;text-decoration:none;text-decoration-line:none;text-decoration-style:solid;text-decoration-color:#000000;letter-spacing:normal;word-spacing:normal;text-transform:none;writing-mode:lr-tb;direction:ltr;text-orientation:mixed;dominant-baseline:auto;baseline-shift:baseline;text-anchor:start;white-space:normal;shape-padding:0;shape-margin:0;inline-size:0;clip-rule:nonzero;display:inline;overflow:visible;visibility:visible;opacity:1;isolation:auto;mix-blend-mode:normal;color-interpolation:sRGB;color-interpolation-filters:linearRGB;solid-color:#000000;solid-opacity:1;vector-effect:none;fill:#000000;fill-opacity:1;fill-rule:evenodd;stroke:none;stroke-width:0.119062;stroke-linecap:square;stroke-linejoin:miter;stroke-miterlimit:10;stroke-dasharray:none;stroke-dashoffset:0;stroke-opacity:1;paint-order:stroke fill markers;color-rendering:auto;image-rendering:auto;shape-rendering:auto;text-rendering:auto;enable-background:accumulate;stop-color:#000000;stop-opacity:1"/>
    <path id="path17496" style="font-size:15.1831px;line-height:1.46;font-family:'Singapore Road Signs';-inkscape-font-specification:'Singapore Road Signs';text-align:center;text-anchor:middle;opacity:1;fill:#ffffff;fill-opacity:1;stroke-width:0.0756548" d="m 570.47468,59.120043 v 50.614317 h 35.43541 V 59.120043 Z m 1.38203,1.660034 h 32.65274 v 47.566083 h -32.65274 z m 13.66823,3.646909 -2.23483,8.869719 h 3.92184 l 0.28216,-8.869719 z m 3.35329,0 0.28216,8.869719 h 3.92385 l -2.23686,-8.869719 z m -15.90932,9.992316 v 1.942234 l 3.06692,1.10806 v 0.584703 h 1.411 v -0.584703 c 0,0 2.08662,-0.313671 4.52568,-0.535349 1.95306,-0.177516 4.1317,-0.271988 5.64407,-0.278037 1.79866,-0.0063 4.45804,0.09363 6.73975,0.288436 2.51319,0.214479 4.5713,0.524984 4.5713,0.524984 v 0.5847 h 1.38199 v -0.5847 l 3.06685,-1.108064 v -1.942233 z m 9.21108,3.620663 -6.70448,26.681115 h 10.04943 l 1.39442,-26.681115 z m 7.25642,0 1.39441,26.681115 h 10.0494 l -6.70443,-26.681115 z"/>
    <g style="font-size:14.7905px;line-height:0;font-family:'Singapore Road Signs';-inkscape-font-specification:'Singapore Road Signs';text-align:center;text-anchor:middle;opacity:1;fill:#860000;fill-opacity:1;stroke-width:6.45213" id="layer1-8" transform="matrix(0.08718024,0,0,0.08718024,-145.22047,195.49013)">
      <circle style="opacity:1;fill:#f00a0a;fill-opacity:1;fill-rule:nonzero;stroke:none;stroke-width:3622.55;stroke-linecap:round;stroke-linejoin:round;stroke-miterlimit:4;stroke-dasharray:none;stroke-opacity:1;paint-order:stroke fill markers" id="path815" cx="6380.9966" cy="-193.29752" r="350"/>
      <circle cy="-193.29752" cx="6380.9966" id="circle817" style="opacity:1;fill:#ffffff;fill-opacity:1;fill-rule:nonzero;stroke:none;stroke-width:2587.55;stroke-linecap:round;stroke-linejoin:round;stroke-miterlimit:4;stroke-dasharray:none;stroke-opacity:1;paint-order:stroke fill markers" r="263.821"/>
      <g aria-label="20 " style="font-style:normal;font-variant:normal;font-weight:bold;font-stretch:normal;font-size:414.864px;line-height:0;font-family:Giaothong1;-inkscape-font-specification:'Giaothong1 Bold';letter-spacing:0px;word-spacing:0px;fill:#000000;fill-opacity:1;stroke:none;stroke-width:24.7849" id="text874" transform="matrix(-1,0,0,1,1299.029,-383.45)">
        <g aria-label="90" transform="translate(2310.2259,387.54849)" style="font-style:normal;font-variant:normal;font-weight:bold;font-stretch:normal;font-size:414.864px;line-height:0;font-family:Giaothong1;-inkscape-font-specification:'Giaothong1 Bold';letter-spacing:0px;word-spacing:0px;fill:#000000;fill-opacity:1;stroke:none;stroke-width:53.5539" id="text844"/>
      </g>
    </g>
    <g style="font-size:14.7905px;line-height:0;font-family:'Singapore Road Signs';-inkscape-font-specification:'Singapore Road Signs';text-align:center;text-anchor:middle;opacity:1;fill:#fff000;fill-opacity:1;stroke-width:6.45221" id="layer1-7" transform="matrix(0.08717968,0,0,0.08717968,488.77841,183.34565)">
      <circle cy="-54" cx="351" id="circle817-6" style="opacity:1;fill:#0046aa;fill-opacity:1;fill-rule:nonzero;stroke:none;stroke-width:3622.58;stroke-linecap:round;stroke-linejoin:round;stroke-miterlimit:4;stroke-dasharray:none;stroke-opacity:1;paint-order:stroke fill markers" r="350"/>
      <path id="rect984" style="font-style: normal; font-variant: normal; font-weight: bold; font-stretch: normal; font-size: 414.864px; line-height: 0; font-family: Giaothong1; letter-spacing: 0px; word-spacing: 0px; opacity: 1; fill: rgb(255, 255, 255); fill-opacity: 1; fill-rule: nonzero; stroke: none; stroke-width: 0.344279; stroke-linecap: round; stroke-linejoin: miter; stroke-miterlimit: 10; stroke-dasharray: none; stroke-opacity: 1; paint-order: stroke; visibility: hidden;" d="m 851.18164,518.03906 c -16.32678,0 -29.4707,13.14393 -29.4707,29.47071 v 80.94921 c 0,16.32678 13.14392,29.47071 29.4707,29.47071 16.32678,0 29.4707,-13.14393 29.4707,-29.47071 v -80.94921 c 0,-16.32678 -13.14392,-29.47071 -29.4707,-29.47071 z m -69.94336,1.23828 -26.10937,69.75391 c -2.72781,7.40406 -3.70118,11.30112 -3.70118,28.44727 0,18.12042 0.7789,22.01697 4.67579,28.25195 5.26075,8.37828 14.22308,13.44336 24.93945,13.44336 10.91123,0 20.0688,-4.87023 25.13476,-13.44336 3.70197,-6.23498 4.48047,-10.13153 4.48047,-28.25195 0,-22.01726 -0.77798,-26.88814 -4.28515,-32.34375 -3.31232,-5.06591 -9.74347,-8.96289 -16.75782,-8.96289 -4.28653,0 -7.01308,0.77773 -8.37695,1.75195 l -0.39062,-0.38867 22.60156,-58.25782 z m 69.94336,18.74024 c 5.25853,0 9.49219,4.23365 9.49219,9.49219 v 80.94921 c 0,5.25853 -4.23366,9.49219 -9.49219,9.49219 -5.25853,0 -9.49219,-4.23366 -9.49219,-9.49219 v -80.94921 c 0,-5.25854 4.23366,-9.49219 9.49219,-9.49219 z m -70.13867,55.68945 c 5.0659,0 9.74219,3.89738 9.74219,9.9375 v 25.71875 c 0,6.04012 -4.67629,9.9375 -9.74219,9.9375 -5.0659,0 -9.74219,-3.89738 -9.74219,-9.9375 v -25.71875 c 0,-6.04012 4.67629,-9.9375 9.74219,-9.9375 z" transform="matrix(3.0349198,0,0,3.0349198,-2125.7104,-1839.7056)"/>
    </g>
    <g aria-label="6" id="text19759" style="font-size:31.1478px;line-height:1.3;font-family:'Singapore Road Signs';-inkscape-font-specification:'Singapore Road Signs';text-align:center;text-anchor:middle;stroke-width:0.159861" transform="matrix(1.6550836,0,0,1.6550836,-321.31659,-238.56049)"/>
    <path d="M 377.509 46.797 Q 377.404 46.797 377.404 46.691 L 377.404 35.898 L 374.055 35.898 Q 373.949 35.898 373.949 35.793 L 373.949 34.097 Q 373.949 33.991 374.055 33.991 L 382.862 33.991 Q 382.967 33.991 382.967 34.097 L 382.967 35.793 Q 382.967 35.898 382.862 35.898 L 379.522 35.898 L 379.522 46.691 Q 379.522 46.797 379.416 46.797 Z M 384.328 46.797 Q 384.222 46.797 384.222 46.691 L 384.222 34.097 Q 384.222 33.991 384.328 33.991 L 386.235 33.991 Q 386.341 33.991 386.341 34.097 L 386.341 46.691 Q 386.341 46.797 386.235 46.797 Z M 388.993 46.797 Q 388.888 46.797 388.888 46.691 L 388.888 34.097 Q 388.888 33.991 388.993 33.991 L 397.044 33.991 Q 397.149 33.991 397.149 34.097 L 397.149 35.907 Q 397.149 36.013 397.044 36.013 L 391.006 36.013 L 391.006 39.388 L 396.138 39.388 Q 396.244 39.388 396.244 39.493 L 396.244 41.198 Q 396.244 41.295 396.138 41.295 L 391.006 41.295 L 391.006 44.793 L 397.044 44.793 Q 397.149 44.793 397.149 44.898 L 397.149 46.691 Q 397.149 46.797 397.044 46.797 Z M 389.889 32.857 Q 389.81 32.857 389.793 32.787 Q 389.775 32.717 389.828 32.673 L 392.412 30.625 L 393.598 30.625 L 396.218 32.673 Q 396.279 32.717 396.257 32.787 Q 396.235 32.857 396.156 32.857 L 394.68 32.857 L 392.922 31.908 Q 392.535 32.145 392.139 32.383 Q 391.744 32.62 391.357 32.857 Z M 398.996 46.797 Q 398.89 46.797 398.89 46.691 L 398.89 34.097 Q 398.89 33.991 398.996 33.991 L 400.806 33.991 Q 400.859 33.991 400.894 34.044 L 406.431 42.763 L 406.431 34.097 Q 406.431 33.991 406.537 33.991 L 408.453 33.991 Q 408.558 33.991 408.558 34.097 L 408.558 46.691 Q 408.558 46.797 408.453 46.797 L 406.651 46.797 Q 406.598 46.797 406.563 46.744 L 401.008 38.025 L 401.008 46.691 Q 401.008 46.797 400.912 46.797 Z M 418.122 46.797 Q 418.025 46.797 418.025 46.691 L 418.025 41.541 Q 417.076 39.686 416.136 37.841 Q 415.195 35.995 414.255 34.141 Q 414.229 34.079 414.255 34.035 Q 414.281 33.991 414.352 33.991 L 416.355 33.991 Q 416.382 33.991 416.408 34.013 Q 416.435 34.035 416.452 34.053 L 419.036 39.449 Q 419.687 38.087 420.324 36.751 Q 420.961 35.415 421.611 34.053 Q 421.629 34.035 421.655 34.013 Q 421.682 33.991 421.708 33.991 L 423.721 33.991 Q 423.791 33.991 423.817 34.035 Q 423.844 34.079 423.817 34.141 L 420.038 41.541 L 420.038 46.691 Q 420.038 46.797 419.933 46.797 Z M 425.229 46.797 Q 425.124 46.797 425.124 46.691 L 425.124 34.097 Q 425.124 33.991 425.229 33.991 L 433.28 33.991 Q 433.385 33.991 433.385 34.097 L 433.385 35.907 Q 433.385 36.013 433.28 36.013 L 427.242 36.013 L 427.242 39.388 L 432.375 39.388 Q 432.48 39.388 432.48 39.493 L 432.48 41.198 Q 432.48 41.295 432.375 41.295 L 427.242 41.295 L 427.242 44.793 L 433.28 44.793 Q 433.385 44.793 433.385 44.898 L 433.385 46.691 Q 433.385 46.797 433.28 46.797 Z M 426.126 32.857 Q 426.047 32.857 426.029 32.787 Q 426.011 32.717 426.064 32.673 L 428.648 30.625 L 429.835 30.625 L 432.454 32.673 Q 432.515 32.717 432.493 32.787 Q 432.471 32.857 432.392 32.857 L 430.916 32.857 L 429.158 31.908 Q 428.771 32.145 428.376 32.383 Q 427.98 32.62 427.594 32.857 Z M 435.232 46.797 Q 435.126 46.797 435.126 46.691 L 435.126 34.097 Q 435.126 33.991 435.232 33.991 L 437.043 33.991 Q 437.095 33.991 437.13 34.044 L 442.668 42.763 L 442.668 34.097 Q 442.668 33.991 442.773 33.991 L 444.689 33.991 Q 444.794 33.991 444.794 34.097 L 444.794 46.691 Q 444.794 46.797 444.689 46.797 L 442.887 46.797 Q 442.835 46.797 442.799 46.744 L 437.245 38.025 L 437.245 46.691 Q 437.245 46.797 437.148 46.797 Z" transform="matrix(1.310387, 0, 0, 1.310387, -59.698296, -1.169035)" style="fill: rgb(255, 255, 255); text-wrap-mode: nowrap;"/>
    <path transform="matrix(1.310387, 0, 0, 1.310387, -59.698296, -1.169035)" style="fill: rgb(255, 255, 255); text-wrap-mode: nowrap;"/>
    <path d="M 379.254 68.63 Q 379.307 68.63 379.342 68.67 Q 379.377 68.709 379.36 68.762 Q 378.991 70.555 377.725 71.522 Q 377.11 71.988 376.389 72.225 Q 375.668 72.462 374.833 72.462 Q 373.313 72.462 372.276 71.733 Q 371.256 71.012 370.799 70.151 Q 370.641 69.852 370.527 69.549 Q 370.412 69.245 370.351 68.911 Q 370.237 68.261 370.237 65.958 Q 370.237 64.807 370.263 64.077 Q 370.289 63.348 370.351 63.014 Q 370.412 62.68 370.527 62.372 Q 370.641 62.065 370.799 61.766 Q 371.256 60.913 372.276 60.184 Q 373.304 59.446 374.833 59.446 Q 376.661 59.446 377.857 60.571 Q 379.07 61.704 379.36 63.26 Q 379.377 63.313 379.342 63.348 Q 379.307 63.383 379.254 63.383 L 377.241 63.383 Q 377.162 63.383 377.145 63.313 Q 377.031 62.961 376.82 62.658 Q 376.609 62.355 376.301 62.091 Q 375.721 61.573 374.833 61.573 Q 374.174 61.573 373.708 61.836 Q 373.242 62.1 372.961 62.443 Q 372.794 62.654 372.671 62.922 Q 372.548 63.19 372.478 63.471 Q 372.408 63.77 372.381 64.394 Q 372.355 65.018 372.355 65.958 Q 372.355 66.916 372.381 67.536 Q 372.408 68.156 372.478 68.454 Q 372.548 68.727 372.676 68.995 Q 372.803 69.263 372.961 69.465 Q 373.242 69.834 373.708 70.094 Q 374.174 70.353 374.833 70.353 Q 376.354 70.353 377.145 68.692 Q 377.162 68.674 377.189 68.652 Q 377.215 68.63 377.241 68.63 Z M 379.365 72.348 Q 379.304 72.348 379.277 72.304 Q 379.251 72.26 379.268 72.207 L 383.874 59.604 Q 383.892 59.534 383.962 59.534 L 385.535 59.534 Q 385.561 59.534 385.592 59.556 Q 385.623 59.577 385.632 59.604 L 390.228 72.207 Q 390.246 72.26 390.22 72.304 Q 390.193 72.348 390.141 72.348 L 388.128 72.348 Q 388.058 72.348 388.04 72.278 L 387.091 69.5 L 382.45 69.5 Q 382.204 70.212 381.962 70.893 Q 381.721 71.575 381.475 72.278 Q 381.466 72.304 381.435 72.326 Q 381.404 72.348 381.378 72.348 Z M 386.458 67.611 Q 386.44 67.549 386.41 67.479 Q 386.379 67.409 386.361 67.356 Q 386.212 66.925 386.089 66.56 Q 385.966 66.196 385.869 65.923 Q 385.808 65.747 385.75 65.58 Q 385.693 65.413 385.641 65.264 Q 385.597 65.123 385.553 64.996 Q 385.509 64.869 385.465 64.745 Q 385.386 64.491 385.302 64.236 Q 385.219 63.981 385.131 63.708 Q 385.087 63.585 385.039 63.436 Q 384.99 63.286 384.937 63.119 Q 384.911 63.032 384.898 62.983 Q 384.885 62.935 384.867 62.887 Q 384.85 62.838 384.828 62.777 Q 384.806 62.715 384.77 62.601 Q 384.674 62.891 384.59 63.137 Q 384.507 63.383 384.436 63.594 Q 384.419 63.647 384.41 63.691 Q 384.401 63.735 384.384 63.779 Q 384.34 63.928 384.291 64.06 Q 384.243 64.192 384.199 64.324 Q 384.155 64.464 384.111 64.596 Q 384.067 64.728 384.023 64.851 Q 383.935 65.115 383.843 65.405 Q 383.751 65.695 383.637 66.011 Q 383.522 66.327 383.399 66.692 Q 383.276 67.057 383.083 67.611 Z M 390.977 65.958 Q 390.977 64.807 391.008 64.077 Q 391.039 63.348 391.091 63.014 Q 391.153 62.68 391.267 62.372 Q 391.381 62.065 391.548 61.766 L 391.54 61.766 Q 391.997 60.913 393.016 60.184 Q 394.044 59.446 395.574 59.446 Q 397.085 59.446 398.114 60.184 Q 399.151 60.931 399.608 61.766 Q 399.933 62.364 400.047 63.014 Q 400.109 63.348 400.14 64.077 Q 400.17 64.807 400.17 65.958 Q 400.17 68.217 400.047 68.911 Q 399.986 69.254 399.876 69.562 Q 399.766 69.869 399.617 70.151 Q 399.151 70.994 398.114 71.733 Q 397.077 72.462 395.574 72.462 Q 394.053 72.462 393.016 71.733 Q 391.997 71.012 391.54 70.151 L 391.548 70.151 Q 391.381 69.852 391.267 69.549 Q 391.153 69.245 391.091 68.911 Q 391.039 68.577 391.008 67.844 Q 390.977 67.11 390.977 65.958 Z M 393.095 65.958 Q 393.095 66.916 393.122 67.536 Q 393.148 68.156 393.218 68.454 Q 393.289 68.727 393.416 68.995 Q 393.543 69.263 393.702 69.465 Q 393.983 69.834 394.449 70.094 Q 394.915 70.353 395.574 70.353 Q 396.224 70.353 396.69 70.094 Q 397.156 69.834 397.428 69.465 Q 397.797 69.017 397.912 68.454 Q 398.052 67.892 398.052 65.958 Q 398.052 65 398.017 64.381 Q 397.982 63.761 397.912 63.471 Q 397.85 63.19 397.727 62.922 Q 397.604 62.654 397.437 62.443 Q 397.305 62.276 397.116 62.118 Q 396.927 61.959 396.69 61.841 Q 396.453 61.722 396.171 61.647 Q 395.89 61.573 395.574 61.573 Q 394.915 61.573 394.449 61.836 Q 393.983 62.1 393.702 62.443 Q 393.535 62.654 393.412 62.922 Q 393.289 63.19 393.218 63.471 Q 393.148 63.77 393.122 64.394 Q 393.095 65.018 393.095 65.958 Z M 406.639 72.357 Q 406.534 72.357 406.534 72.251 L 406.534 59.657 Q 406.534 59.551 406.639 59.551 L 411.526 59.551 Q 413.38 59.551 414.374 60.544 Q 415.358 61.52 415.358 63.04 Q 415.358 63.875 414.971 64.587 Q 414.62 65.255 413.662 65.747 Q 414.549 66.029 415.033 66.828 Q 415.288 67.268 415.424 67.729 Q 415.56 68.191 415.56 68.683 Q 415.56 70.362 414.479 71.364 Q 413.407 72.357 411.957 72.357 Z M 408.652 66.767 L 408.652 70.353 L 411.491 70.353 Q 412.484 70.353 412.967 69.817 Q 413.442 69.281 413.442 68.56 Q 413.442 67.857 412.967 67.312 Q 412.51 66.767 411.491 66.767 Z M 408.652 61.458 L 408.652 64.86 L 411.315 64.86 Q 412.308 64.86 412.765 64.368 Q 413.24 63.884 413.24 63.163 Q 413.24 62.452 412.765 61.968 Q 412.291 61.458 411.315 61.458 Z M 416.376 72.348 Q 416.315 72.348 416.288 72.304 Q 416.262 72.26 416.28 72.207 L 420.885 59.604 Q 420.903 59.534 420.973 59.534 L 422.546 59.534 Q 422.572 59.534 422.603 59.556 Q 422.634 59.577 422.643 59.604 L 427.239 72.207 Q 427.257 72.26 427.231 72.304 Q 427.204 72.348 427.152 72.348 L 425.139 72.348 Q 425.069 72.348 425.051 72.278 L 424.102 69.5 L 419.461 69.5 Q 419.215 70.212 418.973 70.893 Q 418.732 71.575 418.486 72.278 Q 418.477 72.304 418.446 72.326 Q 418.415 72.348 418.389 72.348 Z M 423.469 67.611 Q 423.451 67.549 423.421 67.479 Q 423.39 67.409 423.372 67.356 Q 423.223 66.925 423.1 66.56 Q 422.977 66.196 422.88 65.923 Q 422.819 65.747 422.761 65.58 Q 422.704 65.413 422.652 65.264 Q 422.608 65.123 422.564 64.996 Q 422.52 64.869 422.476 64.745 Q 422.397 64.491 422.313 64.236 Q 422.23 63.981 422.142 63.708 Q 422.098 63.585 422.05 63.436 Q 422.001 63.286 421.948 63.119 Q 421.922 63.032 421.909 62.983 Q 421.896 62.935 421.878 62.887 Q 421.861 62.838 421.839 62.777 Q 421.817 62.715 421.781 62.601 Q 421.685 62.891 421.601 63.137 Q 421.518 63.383 421.447 63.594 Q 421.43 63.647 421.421 63.691 Q 421.412 63.735 421.395 63.779 Q 421.351 63.928 421.302 64.06 Q 421.254 64.192 421.21 64.324 Q 421.166 64.464 421.122 64.596 Q 421.078 64.728 421.034 64.851 Q 420.947 65.115 420.854 65.405 Q 420.762 65.695 420.648 66.011 Q 420.533 66.327 420.41 66.692 Q 420.287 67.057 420.094 67.611 Z M 421.14 55.745 Q 421.122 55.745 421.096 55.732 Q 421.07 55.719 421.061 55.71 L 418.635 53.144 Q 418.582 53.091 418.613 53.03 Q 418.644 52.968 418.714 52.968 L 420.648 52.968 Q 420.7 52.968 420.736 53.021 L 422.572 55.587 Q 422.599 55.649 422.577 55.697 Q 422.555 55.745 422.485 55.745 Z M 420.27 56.009 Q 420.481 57.055 421.764 57.064 Q 423.1 57.046 423.161 56.009 L 424.427 56.009 Q 424.427 56.58 424.22 56.972 Q 424.014 57.363 423.654 57.723 Q 422.942 58.4 421.808 58.417 Q 420.604 58.4 419.839 57.741 Q 419.488 57.389 419.294 57.055 Q 419.101 56.721 419.092 56.009 Z M 428.83 72.357 Q 428.725 72.357 428.725 72.251 L 428.725 59.657 Q 428.725 59.551 428.83 59.551 L 430.641 59.551 Q 430.693 59.551 430.728 59.604 L 436.266 68.323 L 436.266 59.657 Q 436.266 59.551 436.371 59.551 L 438.287 59.551 Q 438.393 59.551 438.393 59.657 L 438.393 72.251 Q 438.393 72.357 438.287 72.357 L 436.485 72.357 Q 436.433 72.357 436.397 72.304 L 430.843 63.585 L 430.843 72.251 Q 430.843 72.357 430.746 72.357 Z M 445.221 67.233 Q 445.115 67.233 445.115 67.127 L 445.115 65.317 Q 445.115 65.22 445.221 65.22 L 449.694 65.22 Q 449.8 65.22 449.8 65.317 L 449.8 67.883 Q 449.8 69.826 448.464 71.135 Q 447.11 72.462 445.203 72.462 Q 443.683 72.462 442.646 71.733 Q 441.626 71.012 441.169 70.151 L 441.178 70.151 Q 441.011 69.852 440.897 69.549 Q 440.782 69.245 440.721 68.911 Q 440.668 68.577 440.637 67.844 Q 440.607 67.11 440.607 65.958 Q 440.607 64.807 440.637 64.077 Q 440.668 63.348 440.721 63.014 Q 440.782 62.68 440.897 62.372 Q 441.011 62.065 441.178 61.766 L 441.169 61.766 Q 441.626 60.913 442.646 60.184 Q 443.674 59.446 445.203 59.446 Q 447.031 59.446 448.227 60.571 Q 449.44 61.696 449.73 63.26 Q 449.747 63.313 449.712 63.348 Q 449.677 63.383 449.624 63.383 L 447.611 63.383 Q 447.532 63.383 447.515 63.313 Q 447.401 62.961 447.19 62.658 Q 446.979 62.355 446.671 62.091 Q 446.091 61.573 445.203 61.573 Q 444.544 61.573 444.078 61.836 Q 443.612 62.1 443.331 62.443 Q 443.164 62.654 443.041 62.922 Q 442.918 63.19 442.848 63.471 Q 442.777 63.77 442.751 64.394 Q 442.725 65.018 442.725 65.958 Q 442.725 66.916 442.751 67.536 Q 442.777 68.156 442.848 68.454 Q 442.918 68.727 443.046 68.995 Q 443.173 69.263 443.331 69.465 Q 443.612 69.834 444.078 70.094 Q 444.544 70.353 445.203 70.353 Q 446.249 70.353 446.961 69.641 Q 447.682 68.929 447.682 67.778 L 447.682 67.233 Z" transform="matrix(1.310387, 0, 0, 1.310387, -59.698296, -1.169035)" style="fill: rgb(255, 255, 255); text-wrap-mode: nowrap;"/>
    <path d="M 426.152 119.118 Q 426.045 119.118 426.045 119.011 L 426.045 106.277 Q 426.045 106.17 426.152 106.17 L 434.292 106.17 Q 434.399 106.17 434.399 106.277 L 434.399 108.107 Q 434.399 108.214 434.292 108.214 L 428.187 108.214 L 428.187 111.626 L 433.377 111.626 Q 433.484 111.626 433.484 111.733 L 433.484 113.457 Q 433.484 113.555 433.377 113.555 L 428.187 113.555 L 428.187 117.092 L 434.292 117.092 Q 434.399 117.092 434.399 117.198 L 434.399 119.011 Q 434.399 119.118 434.292 119.118 Z M 442.571 119.118 Q 442.517 119.118 442.482 119.065 L 439.78 114.479 Q 439.105 115.634 438.429 116.772 Q 437.754 117.909 437.079 119.065 Q 437.043 119.118 436.99 119.118 L 434.813 119.118 Q 434.741 119.118 434.715 119.069 Q 434.688 119.02 434.724 118.958 L 438.589 112.48 Q 437.674 110.933 436.776 109.405 Q 435.879 107.876 434.972 106.33 Q 434.937 106.268 434.964 106.219 Q 434.99 106.17 435.052 106.17 L 437.239 106.17 Q 437.292 106.17 437.327 106.223 L 439.78 110.489 Q 440.393 109.422 441.007 108.361 Q 441.62 107.299 442.233 106.223 Q 442.268 106.17 442.322 106.17 L 444.508 106.17 Q 444.57 106.17 444.597 106.219 Q 444.623 106.268 444.588 106.33 L 440.971 112.48 Q 441.949 114.106 442.908 115.719 Q 443.868 117.332 444.846 118.958 Q 444.881 119.02 444.855 119.069 Q 444.828 119.118 444.757 119.118 Z M 448.15 108.214 L 448.15 112.106 L 450.914 112.106 Q 451.936 112.106 452.433 111.493 Q 452.94 110.898 452.94 110.16 Q 452.94 109.058 452.158 108.552 Q 451.651 108.214 450.843 108.214 Z M 446.115 119.118 Q 446.008 119.118 446.008 119.011 L 446.008 106.277 Q 446.008 106.17 446.115 106.17 L 450.736 106.17 Q 451.5 106.17 452.184 106.33 Q 452.878 106.49 453.66 107.094 Q 453.962 107.334 454.215 107.65 Q 454.468 107.965 454.673 108.347 Q 454.868 108.738 454.975 109.209 Q 455.081 109.68 455.081 110.213 Q 455.081 111.609 454.033 112.879 Q 452.984 114.141 450.985 114.141 L 448.15 114.141 L 448.15 119.011 Q 448.15 119.118 448.043 119.118 Z M 458.767 108.098 L 458.767 111.751 L 461.584 111.751 Q 462.615 111.751 463.13 111.182 Q 463.646 110.613 463.646 109.831 Q 463.646 109.387 463.49 109.04 Q 463.335 108.694 463.041 108.472 Q 462.784 108.294 462.441 108.196 Q 462.099 108.098 461.699 108.098 Z M 456.732 119.118 Q 456.625 119.118 456.625 119.011 L 456.625 106.277 Q 456.625 106.17 456.732 106.17 L 461.717 106.17 Q 462.544 106.17 463.21 106.397 Q 463.877 106.623 464.374 107.041 Q 464.632 107.281 464.868 107.587 Q 465.103 107.894 465.285 108.249 Q 465.467 108.605 465.574 109.005 Q 465.681 109.405 465.681 109.831 Q 465.681 110.462 465.503 111.027 Q 465.325 111.591 465.005 112.08 Q 464.676 112.533 464.241 112.875 Q 463.806 113.217 463.255 113.422 Q 463.974 114.799 464.703 116.19 Q 465.432 117.58 466.152 118.958 Q 466.178 119.02 466.152 119.069 Q 466.125 119.118 466.063 119.118 L 463.77 119.118 Q 463.743 119.118 463.717 119.096 Q 463.69 119.073 463.672 119.056 L 461.068 113.679 L 458.767 113.679 L 458.767 119.011 Q 458.767 119.118 458.66 119.118 Z M 467.661 119.118 Q 467.554 119.118 467.554 119.011 L 467.554 106.277 Q 467.554 106.17 467.661 106.17 L 475.801 106.17 Q 475.908 106.17 475.908 106.277 L 475.908 108.107 Q 475.908 108.214 475.801 108.214 L 469.696 108.214 L 469.696 111.626 L 474.886 111.626 Q 474.993 111.626 474.993 111.733 L 474.993 113.457 Q 474.993 113.555 474.886 113.555 L 469.696 113.555 L 469.696 117.092 L 475.801 117.092 Q 475.908 117.092 475.908 117.198 L 475.908 119.011 Q 475.908 119.118 475.801 119.118 Z M 477.686 115.848 Q 477.712 115.812 477.757 115.812 Q 477.801 115.812 477.837 115.839 Q 478.539 116.407 479.45 116.75 Q 480.36 117.092 481.374 117.092 Q 482.511 117.092 483.169 116.621 Q 483.791 116.167 483.791 115.421 Q 483.791 114.017 482.218 113.804 L 482.227 113.804 Q 482.005 113.777 481.805 113.75 Q 481.605 113.724 481.405 113.697 Q 481.205 113.67 480.996 113.639 Q 480.787 113.608 480.538 113.573 Q 479.703 113.457 479.05 113.15 Q 478.396 112.844 477.952 112.337 Q 477.508 111.822 477.286 111.213 Q 477.063 110.604 477.063 109.885 Q 477.063 108.196 478.183 107.139 Q 479.312 106.063 481.32 106.063 Q 481.916 106.063 482.48 106.165 Q 483.044 106.268 483.573 106.445 Q 484.102 106.623 484.586 106.868 Q 485.07 107.112 485.515 107.405 Q 485.604 107.467 485.541 107.556 L 484.466 109.147 Q 484.404 109.227 484.324 109.174 Q 483.631 108.738 482.849 108.476 Q 482.067 108.214 481.231 108.214 Q 480.805 108.214 480.44 108.316 Q 480.076 108.418 479.783 108.649 Q 479.205 109.067 479.205 109.92 Q 479.205 110.409 479.596 110.871 Q 479.792 111.084 480.121 111.231 Q 480.449 111.378 480.929 111.449 Q 481.187 111.493 481.534 111.542 Q 481.88 111.591 482.351 111.644 Q 484.173 111.866 485.053 112.986 Q 485.932 114.079 485.932 115.421 Q 485.932 117.216 484.679 118.229 Q 483.417 119.225 481.356 119.225 Q 478.45 119.225 476.415 117.447 Q 476.379 117.421 476.379 117.376 Q 476.379 117.332 476.406 117.296 Z M 487.955 115.848 Q 487.982 115.812 488.027 115.812 Q 488.071 115.812 488.107 115.839 Q 488.809 116.407 489.719 116.75 Q 490.63 117.092 491.643 117.092 Q 492.781 117.092 493.439 116.621 Q 494.061 116.167 494.061 115.421 Q 494.061 114.017 492.488 113.804 L 492.497 113.804 Q 492.274 113.777 492.074 113.75 Q 491.874 113.724 491.675 113.697 Q 491.475 113.67 491.266 113.639 Q 491.057 113.608 490.808 113.573 Q 489.973 113.457 489.32 113.15 Q 488.666 112.844 488.222 112.337 Q 487.778 111.822 487.556 111.213 Q 487.333 110.604 487.333 109.885 Q 487.333 108.196 488.453 107.139 Q 489.582 106.063 491.59 106.063 Q 492.186 106.063 492.75 106.165 Q 493.314 106.268 493.843 106.445 Q 494.372 106.623 494.856 106.868 Q 495.34 107.112 495.785 107.405 Q 495.873 107.467 495.811 107.556 L 494.736 109.147 Q 494.674 109.227 494.594 109.174 Q 493.901 108.738 493.119 108.476 Q 492.337 108.214 491.501 108.214 Q 491.075 108.214 490.71 108.316 Q 490.346 108.418 490.053 108.649 Q 489.475 109.067 489.475 109.92 Q 489.475 110.409 489.866 110.871 Q 490.062 111.084 490.39 111.231 Q 490.719 111.378 491.199 111.449 Q 491.457 111.493 491.803 111.542 Q 492.15 111.591 492.621 111.644 Q 494.443 111.866 495.323 112.986 Q 496.202 114.079 496.202 115.421 Q 496.202 117.216 494.949 118.229 Q 493.687 119.225 491.626 119.225 Q 488.72 119.225 486.685 117.447 Q 486.649 117.421 486.649 117.376 Q 486.649 117.332 486.676 117.296 Z M 500.211 119.118 Q 500.123 119.118 500.105 119.038 L 496.914 106.303 Q 496.897 106.25 496.932 106.21 Q 496.968 106.17 497.021 106.17 L 499.065 106.17 Q 499.154 106.17 499.172 106.25 L 501.091 114.95 Q 501.678 112.764 502.273 110.604 Q 502.869 108.445 503.464 106.25 Q 503.482 106.17 503.571 106.17 L 504.966 106.17 Q 505.046 106.17 505.064 106.25 L 507.445 114.95 Q 507.925 112.764 508.405 110.604 Q 508.885 108.445 509.365 106.25 Q 509.382 106.17 509.471 106.17 L 511.515 106.17 Q 511.569 106.17 511.604 106.21 Q 511.64 106.25 511.622 106.303 L 508.432 119.038 Q 508.414 119.118 508.325 119.118 L 506.716 119.118 Q 506.636 119.118 506.619 119.038 L 504.264 110.196 Q 503.677 112.426 503.091 114.621 Q 502.504 116.816 501.918 119.038 Q 501.9 119.118 501.82 119.118 Z M 511.536 119.109 Q 511.473 119.109 511.447 119.065 Q 511.42 119.02 511.438 118.967 L 516.095 106.223 Q 516.112 106.152 516.183 106.152 L 517.774 106.152 Q 517.801 106.152 517.832 106.174 Q 517.863 106.197 517.872 106.223 L 522.52 118.967 Q 522.537 119.02 522.511 119.065 Q 522.484 119.109 522.431 119.109 L 520.396 119.109 Q 520.325 119.109 520.307 119.038 L 519.347 116.23 L 514.655 116.23 Q 514.406 116.95 514.162 117.638 Q 513.917 118.327 513.668 119.038 Q 513.66 119.065 513.628 119.087 Q 513.597 119.109 513.571 119.109 Z M 518.707 114.319 Q 518.689 114.257 518.658 114.186 Q 518.627 114.115 518.609 114.061 Q 518.458 113.626 518.334 113.257 Q 518.21 112.888 518.112 112.613 Q 518.05 112.435 517.992 112.266 Q 517.934 112.097 517.881 111.946 Q 517.836 111.804 517.792 111.675 Q 517.747 111.546 517.703 111.422 Q 517.623 111.164 517.539 110.907 Q 517.454 110.649 517.365 110.373 Q 517.321 110.249 517.272 110.098 Q 517.223 109.947 517.17 109.778 Q 517.143 109.689 517.13 109.64 Q 517.117 109.591 517.099 109.542 Q 517.081 109.494 517.059 109.431 Q 517.037 109.369 517.001 109.254 Q 516.903 109.547 516.819 109.796 Q 516.734 110.045 516.663 110.258 Q 516.646 110.311 516.637 110.356 Q 516.628 110.4 516.61 110.444 Q 516.566 110.596 516.517 110.729 Q 516.468 110.862 516.423 110.995 Q 516.379 111.138 516.334 111.271 Q 516.29 111.404 516.246 111.529 Q 516.157 111.795 516.063 112.088 Q 515.97 112.382 515.855 112.702 Q 515.739 113.022 515.615 113.39 Q 515.49 113.759 515.295 114.319 Z M 525.5 119.118 Q 525.402 119.118 525.402 119.011 L 525.402 113.804 Q 524.443 111.929 523.492 110.062 Q 522.541 108.196 521.59 106.321 Q 521.563 106.259 521.59 106.214 Q 521.617 106.17 521.688 106.17 L 523.714 106.17 Q 523.741 106.17 523.767 106.192 Q 523.794 106.214 523.812 106.232 L 526.424 111.689 Q 527.082 110.311 527.726 108.96 Q 528.371 107.61 529.028 106.232 Q 529.046 106.214 529.073 106.192 Q 529.099 106.17 529.126 106.17 L 531.161 106.17 Q 531.232 106.17 531.259 106.214 Q 531.285 106.259 531.259 106.321 L 527.437 113.804 L 527.437 119.011 Q 527.437 119.118 527.331 119.118 Z" style="fill: rgb(255, 255, 255); text-wrap-mode: nowrap;"/>
    <path d="M 343.121 84.558 Q 343.193 84.558 343.241 84.612 Q 343.289 84.666 343.265 84.738 Q 342.76 87.189 341.031 88.51 Q 340.19 89.147 339.205 89.471 Q 338.22 89.795 337.079 89.795 Q 335.001 89.795 333.583 88.798 Q 332.19 87.813 331.565 86.636 Q 331.349 86.228 331.193 85.813 Q 331.037 85.399 330.953 84.942 Q 330.797 84.054 330.797 80.906 Q 330.797 79.333 330.833 78.336 Q 330.869 77.339 330.953 76.883 Q 331.037 76.426 331.193 76.006 Q 331.349 75.585 331.565 75.177 Q 332.19 74.012 333.583 73.015 Q 334.989 72.006 337.079 72.006 Q 339.577 72.006 341.211 73.543 Q 342.868 75.093 343.265 77.219 Q 343.289 77.291 343.241 77.339 Q 343.193 77.387 343.121 77.387 L 340.37 77.387 Q 340.262 77.387 340.238 77.291 Q 340.082 76.81 339.793 76.396 Q 339.505 75.982 339.085 75.621 Q 338.292 74.913 337.079 74.913 Q 336.178 74.913 335.541 75.273 Q 334.905 75.633 334.52 76.102 Q 334.292 76.39 334.124 76.756 Q 333.956 77.123 333.86 77.507 Q 333.763 77.916 333.727 78.768 Q 333.691 79.621 333.691 80.906 Q 333.691 82.216 333.727 83.063 Q 333.763 83.909 333.86 84.318 Q 333.956 84.69 334.13 85.057 Q 334.304 85.423 334.52 85.699 Q 334.905 86.204 335.541 86.558 Q 336.178 86.912 337.079 86.912 Q 339.157 86.912 340.238 84.642 Q 340.262 84.618 340.298 84.588 Q 340.334 84.558 340.37 84.558 Z M 348.151 89.651 Q 348.007 89.651 348.007 89.507 L 348.007 74.756 L 343.431 74.756 Q 343.287 74.756 343.287 74.612 L 343.287 72.294 Q 343.287 72.15 343.431 72.15 L 355.466 72.15 Q 355.611 72.15 355.611 72.294 L 355.611 74.612 Q 355.611 74.756 355.466 74.756 L 350.902 74.756 L 350.902 89.507 Q 350.902 89.651 350.758 89.651 Z M 355.977 89.651 Q 355.833 89.651 355.833 89.507 L 355.833 87.068 Q 355.833 86.924 355.977 86.924 L 358.427 86.924 Q 358.56 86.924 358.56 87.068 L 358.56 89.507 Q 358.56 89.651 358.427 89.651 Z M 362.89 89.687 Q 362.746 89.687 362.746 89.543 L 362.746 75.273 Q 362.194 75.681 361.641 76.096 Q 361.089 76.51 360.536 76.907 Q 360.452 76.967 360.38 76.925 Q 360.308 76.883 360.308 76.786 L 360.308 74.18 Q 360.308 74.156 360.326 74.12 Q 360.344 74.084 360.368 74.06 L 362.842 72.27 L 365.353 72.27 Q 365.497 72.27 365.497 72.414 L 365.497 89.543 Q 365.497 89.687 365.353 89.687 Z M 375.226 77.327 Q 375.226 76.162 374.608 75.507 Q 373.989 74.853 372.956 74.853 Q 371.923 74.853 371.311 75.507 Q 370.698 76.162 370.698 77.327 L 370.698 84.594 Q 370.698 85.771 371.311 86.42 Q 371.923 87.068 372.956 87.068 Q 373.989 87.068 374.608 86.42 Q 375.226 85.771 375.226 84.594 Z M 367.959 77.183 Q 367.959 74.756 369.485 73.447 Q 370.998 72.114 372.956 72.114 Q 373.929 72.114 374.8 72.456 Q 375.671 72.799 376.428 73.447 Q 377.184 74.12 377.575 75.051 Q 377.965 75.982 377.965 77.183 L 377.965 84.738 Q 377.965 87.153 376.428 88.474 Q 374.914 89.795 372.956 89.795 Q 370.998 89.795 369.485 88.474 Q 367.959 87.165 367.959 84.738 Z" style="text-wrap-mode: nowrap;"/>
    <path d="M 394.303 191.656 Q 394.104 191.656 394.104 191.457 L 394.104 171.735 Q 393.34 172.299 392.577 172.872 Q 391.813 173.444 391.049 173.992 Q 390.933 174.075 390.834 174.017 Q 390.734 173.959 390.734 173.826 L 390.734 170.224 Q 390.734 170.191 390.759 170.141 Q 390.784 170.091 390.817 170.058 L 394.237 167.584 L 397.707 167.584 Q 397.906 167.584 397.906 167.783 L 397.906 191.457 Q 397.906 191.656 397.707 191.656 Z M 411.349 174.573 Q 411.349 172.963 410.494 172.058 Q 409.639 171.153 408.211 171.153 Q 406.783 171.153 405.937 172.058 Q 405.09 172.963 405.09 174.573 L 405.09 184.617 Q 405.09 186.244 405.937 187.141 Q 406.783 188.037 408.211 188.037 Q 409.639 188.037 410.494 187.141 Q 411.349 186.244 411.349 184.617 Z M 401.305 174.374 Q 401.305 171.021 403.413 169.211 Q 405.505 167.368 408.211 167.368 Q 409.556 167.368 410.76 167.841 Q 411.963 168.315 413.009 169.211 Q 414.055 170.141 414.594 171.427 Q 415.134 172.714 415.134 174.374 L 415.134 184.817 Q 415.134 188.153 413.009 189.98 Q 410.917 191.806 408.211 191.806 Q 405.505 191.806 403.413 189.98 Q 401.305 188.17 401.305 184.817 Z M 427.671 174.573 Q 427.671 172.963 426.816 172.058 Q 425.961 171.153 424.534 171.153 Q 423.106 171.153 422.259 172.058 Q 421.413 172.963 421.413 174.573 L 421.413 184.617 Q 421.413 186.244 422.259 187.141 Q 423.106 188.037 424.534 188.037 Q 425.961 188.037 426.816 187.141 Q 427.671 186.244 427.671 184.617 Z M 417.627 174.374 Q 417.627 171.021 419.736 169.211 Q 421.828 167.368 424.534 167.368 Q 425.878 167.368 427.082 167.841 Q 428.286 168.315 429.331 169.211 Q 430.377 170.141 430.917 171.427 Q 431.456 172.714 431.456 174.374 L 431.456 184.817 Q 431.456 188.153 429.331 189.98 Q 427.24 191.806 424.534 191.806 Q 421.828 191.806 419.736 189.98 Q 417.627 188.17 417.627 184.817 Z" style="text-wrap-mode: nowrap;"/>
    <path d="M 505.003 174.391 Q 505.02 172.731 505.568 171.427 Q 506.116 170.124 507.112 169.194 Q 508.058 168.331 509.237 167.858 Q 510.415 167.385 511.71 167.385 Q 514.068 167.385 515.977 168.796 Q 517.77 170.224 518.318 172.913 Q 518.351 173.013 518.285 173.079 Q 518.218 173.146 518.119 173.146 L 514.715 173.146 Q 514.582 173.146 514.533 173.029 Q 513.786 171.203 511.694 171.153 Q 508.689 171.236 508.689 174.607 L 508.689 176.566 Q 509.768 176.25 510.839 176.068 Q 511.91 175.885 512.873 175.902 Q 515.197 175.902 516.857 177.528 Q 518.451 179.205 518.434 182.692 L 518.434 184.85 Q 518.384 188.253 516.409 190.029 Q 514.549 191.789 511.71 191.872 Q 508.955 191.789 507.112 190.046 Q 505.02 188.22 505.003 184.866 Z M 508.689 184.667 Q 508.706 188.07 511.71 188.104 Q 514.649 188.087 514.765 184.667 L 514.765 182.725 Q 514.632 179.355 511.71 179.288 Q 508.706 179.371 508.689 182.725 Z M 531.13 174.573 Q 531.13 172.963 530.275 172.058 Q 529.42 171.153 527.993 171.153 Q 526.565 171.153 525.718 172.058 Q 524.872 172.963 524.872 174.573 L 524.872 184.617 Q 524.872 186.244 525.718 187.141 Q 526.565 188.037 527.993 188.037 Q 529.42 188.037 530.275 187.141 Q 531.13 186.244 531.13 184.617 Z M 521.086 174.374 Q 521.086 171.021 523.195 169.211 Q 525.287 167.368 527.993 167.368 Q 529.337 167.368 530.541 167.841 Q 531.745 168.315 532.791 169.211 Q 533.836 170.141 534.376 171.427 Q 534.916 172.714 534.916 174.374 L 534.916 184.817 Q 534.916 188.153 532.791 189.98 Q 530.699 191.806 527.993 191.806 Q 525.287 191.806 523.195 189.98 Q 521.086 188.17 521.086 184.817 Z" style="fill: rgb(255, 255, 255); text-wrap-mode: nowrap;"/>
  </g>
</svg>