<?xml version="1.0" encoding="utf-8"?>
<svg viewBox="0 0 323.14914 200" xmlns="http://www.w3.org/2000/svg">
  <g id="layer1" transform="matrix(0.9999999999999999, 0, 0, 0.9999999999999999, -303.4596862792969, -22.960700988769517)">
    <path id="rect15575" style="opacity:1;fill:#0a9646;fill-opacity:1;fill-rule:evenodd;stroke-width:0.0420687;stroke-linecap:square;stroke-miterlimit:10;paint-order:stroke fill markers" d="M 303.45966,22.960701 H 626.6088 V 222.9607 H 303.45966 Z"/>
    <path transform="matrix(0.26458333,0,0,0.26458333,303.45966,22.960701)" d="m 30.353516,5.0117188 c -13.808655,0 -25.0781254,11.2674112 -25.0781254,25.0761722 v 332.957029 47.1211 49.04296 13.88672 252.45508 c 0,13.80862 11.2694704,25.06641 25.0781254,25.06641 H 1190.9805 c 13.8086,0 25.0781,-11.25779 25.0781,-25.06641 V 473.0957 459.57031 401.94727 363.04492 30.087891 c 0,-13.808761 -11.2695,-25.0761722 -25.0781,-25.0761722 z m 0,9.4511722 H 1190.9805 c 8.7398,0 15.6425,6.885058 15.6425,15.625 v 332.957029 38.90235 c 0,0.29959 -0.013,0.61475 -0.037,0.9375 v 7.20703 c 0,8.68754 -6.9941,15.68164 -15.6816,15.68164 h -8.0762 c -0.1869,0.007 -0.3766,0.0176 -0.5586,0.0176 H 38.023438 c -0.18105,0 -0.371847,-0.0102 -0.560547,-0.0176 h -7.097657 c -8.687546,0 -15.68164,-6.9941 -15.68164,-15.68164 V 30.152344 c 0,-1.658433 0.257595,-3.253829 0.730468,-4.751953 0.01365,-0.04461 0.03284,-0.08643 0.04688,-0.13086 1.99686,-6.321925 7.84094,-10.80664 14.892578,-10.80664 z M 30.28125,435.30469 h 6.958984 1145.628866 8.1172 c 8.6414,0 15.5996,6.95633 15.5996,15.59765 v 7.5918 c 0.024,0.37296 0.037,0.7339 0.037,1.07617 v 13.52539 252.45508 c 0,5.47634 -2.7106,10.22208 -6.8847,13.00391 -2.4923,1.6862 -5.5034,2.66992 -8.752,2.66992 H 30.28125 c -8.641361,0 -15.597656,-6.9563 -15.597656,-15.59766 V 450.90234 c 0,-8.64132 6.956295,-15.59765 15.597656,-15.59765 z" style="color:#000000;font-style:normal;font-variant:normal;font-weight:normal;font-stretch:normal;font-size:medium;line-height:normal;font-family:sans-serif;font-variant-ligatures:normal;font-variant-position:normal;font-variant-caps:normal;font-variant-numeric:normal;font-variant-alternates:normal;font-variant-east-asian:normal;font-feature-settings:normal;font-variation-settings:normal;text-indent:0;text-align:start;text-decoration:none;text-decoration-line:none;text-decoration-style:solid;text-decoration-color:#000000;letter-spacing:normal;word-spacing:normal;text-transform:none;writing-mode:lr-tb;direction:ltr;text-orientation:mixed;dominant-baseline:auto;baseline-shift:baseline;text-anchor:start;white-space:normal;shape-padding:0;shape-margin:0;inline-size:0;clip-rule:nonzero;display:inline;overflow:visible;visibility:visible;opacity:1;isolation:auto;mix-blend-mode:normal;color-interpolation:sRGB;color-interpolation-filters:linearRGB;solid-color:#000000;solid-opacity:1;vector-effect:none;fill:#ffffff;fill-opacity:1;fill-rule:evenodd;stroke:none;stroke-width:2.09199;stroke-linecap:square;stroke-linejoin:miter;stroke-miterlimit:10;stroke-dasharray:none;stroke-dashoffset:0;stroke-opacity:1;paint-order:stroke fill markers;color-rendering:auto;image-rendering:auto;shape-rendering:auto;text-rendering:auto;enable-background:accumulate;stop-color:#000000;stop-opacity:1" id="path15582"/>
    <path d="m 324.12038,67.193614 h 60.89334 v 27.821331 h -60.89334 z" style="opacity:1;fill:#ffd70f;fill-opacity:1;fill-rule:evenodd;stroke:none;stroke-width:0.553508;stroke-linecap:square;stroke-miterlimit:10;stroke-dasharray:none;stroke-opacity:1;paint-order:stroke fill markers" id="rect15605"/>
    <path id="path15631" d="m 326.18273,67.759747 c -0.81115,0 -1.47443,0.660164 -1.47443,1.471307 v 23.746432 c 0,0.811142 0.66328,1.471323 1.47443,1.471323 h 56.7905 c 0.81117,0 1.4744,-0.660181 1.4744,-1.471323 V 69.231054 c 0,-0.811143 -0.66328,-1.471307 -1.4744,-1.471307 z m 0,0.535017 h 56.7905 c 0.52266,0 0.93627,0.413622 0.93627,0.93629 v 23.746432 c 0,0.522654 -0.41353,0.933189 -0.93627,0.933189 h -56.7905 c -0.52266,0 -0.93628,-0.410555 -0.93628,-0.933189 V 69.231054 c 0,-0.522672 0.41354,-0.93629 0.93628,-0.93629 z" style="color:#000000;font-style:normal;font-variant:normal;font-weight:normal;font-stretch:normal;font-size:medium;line-height:normal;font-family:sans-serif;font-variant-ligatures:normal;font-variant-position:normal;font-variant-caps:normal;font-variant-numeric:normal;font-variant-alternates:normal;font-variant-east-asian:normal;font-feature-settings:normal;font-variation-settings:normal;text-indent:0;text-align:start;text-decoration:none;text-decoration-line:none;text-decoration-style:solid;text-decoration-color:#000000;letter-spacing:normal;word-spacing:normal;text-transform:none;writing-mode:lr-tb;direction:ltr;text-orientation:mixed;dominant-baseline:auto;baseline-shift:baseline;text-anchor:start;white-space:normal;shape-padding:0;shape-margin:0;inline-size:0;clip-rule:nonzero;display:inline;overflow:visible;visibility:visible;opacity:1;isolation:auto;mix-blend-mode:normal;color-interpolation:sRGB;color-interpolation-filters:linearRGB;solid-color:#000000;solid-opacity:1;vector-effect:none;fill:#000000;fill-opacity:1;fill-rule:evenodd;stroke:none;stroke-width:0.119062;stroke-linecap:square;stroke-linejoin:miter;stroke-miterlimit:10;stroke-dasharray:none;stroke-dashoffset:0;stroke-opacity:1;paint-order:stroke fill markers;color-rendering:auto;image-rendering:auto;shape-rendering:auto;text-rendering:auto;enable-background:accumulate;stop-color:#000000;stop-opacity:1"/>
    <path d="m 336.88947,72.205604 c -1.36961,0 -2.51552,0.330332 -3.43646,0.991507 -0.91309,0.653335 -1.5737,1.361798 -1.98303,2.125328 -0.14189,0.267612 -0.264,0.538688 -0.36613,0.814199 -0.10264,0.275473 -0.18065,0.564078 -0.23555,0.86321 -0.0552,0.299089 -0.0954,0.774434 -0.11873,1.427765 -0.0223,0.653332 -0.0362,1.495435 -0.0362,2.5266 0,2.062321 0.0516,3.383536 0.15387,3.966025 0.0552,0.299136 0.13326,0.587702 0.23556,0.863193 0.10264,0.267612 0.22467,0.534915 0.36612,0.802543 0.40948,0.771411 1.06995,1.479875 1.983,2.125324 0.92887,0.653346 2.07472,0.979855 3.43649,0.979855 0.74779,0 1.44489,-0.107189 2.09034,-0.319632 0.64544,-0.212556 1.24303,-0.525333 1.79403,-0.942508 1.1335,-0.865864 1.86473,-2.103628 2.19533,-3.709419 0.0139,-0.04714 0.009,-0.08518 -0.0223,-0.116745 -0.0315,-0.03928 -0.0694,-0.05829 -0.11656,-0.05829 h -2.70394 c -0.0223,1.5e-5 -0.0488,0.01117 -0.0722,0.03521 -0.0223,0.01589 -0.0451,0.0307 -0.0582,0.0467 -0.70836,1.487712 -1.74338,2.232636 -3.10515,2.232636 -0.59037,0 -1.09454,-0.11468 -1.51174,-0.342928 -0.41713,-0.236167 -0.75132,-0.520933 -1.00317,-0.851551 -0.14189,-0.181028 -0.27124,-0.389065 -0.3896,-0.625222 -0.11008,-0.244 -0.19597,-0.488524 -0.25924,-0.732545 -0.0628,-0.267611 -0.10709,-0.67614 -0.13048,-1.227141 -0.0223,-0.558871 -0.0359,-1.267326 -0.0359,-2.125325 0,-0.842249 0.009,-1.543133 0.0359,-2.102004 0.0223,-0.55887 0.0677,-0.97117 0.13048,-1.238798 0.0627,-0.251917 0.14857,-0.496392 0.25924,-0.732549 0.11009,-0.244 0.24028,-0.45965 0.3896,-0.64857 0.252,-0.30699 0.58598,-0.580386 1.00317,-0.816526 0.41715,-0.236167 0.92137,-0.352269 1.51174,-0.352269 0.79503,1.7e-5 1.45185,0.230844 1.97135,0.695231 0.27541,0.236167 0.50863,0.492045 0.69757,0.767539 0.18872,0.267667 0.33407,0.560022 0.4361,0.874867 0.0167,0.06294 0.0599,0.09333 0.13046,0.09333 h 2.7039 c 0.0468,0 0.0854,-0.01589 0.11658,-0.0467 0.0315,-0.03161 0.0407,-0.07184 0.0223,-0.118954 -0.25952,-1.393235 -0.93175,-2.595995 -2.01801,-3.611427 -1.07052,-1.007535 -2.42438,-1.511744 -4.0617,-1.511744 z m 27.73422,0.104956 c -1.28304,0 -2.4213,0.437369 -3.41313,1.311121 -0.99967,0.858 -1.50005,2.08205 -1.50005,3.672071 v 7.425818 c 0,1.590021 0.50038,2.814088 1.50005,3.672088 0.99183,0.865851 2.13009,1.299446 3.41313,1.299446 1.28303,0 2.42133,-0.433578 3.41313,-1.299446 1.00756,-0.86587 1.50938,-2.089917 1.50938,-3.672088 v -7.425818 c 0,-0.787127 -0.1299,-1.484222 -0.38959,-2.09033 -0.252,-0.613979 -0.62389,-1.140934 -1.11979,-1.581741 -0.49592,-0.425045 -1.03279,-0.74779 -1.6074,-0.968177 -0.56674,-0.22825 -1.16816,-0.342924 -1.80573,-0.342924 z m -21.12261,0.03521 c -0.0943,0 -0.14217,0.04776 -0.14217,0.142392 v 2.279298 c 0,0.09444 0.0479,0.142197 0.14217,0.142197 h 4.49793 V 89.409 c 0,0.09444 0.0479,0.139995 0.14217,0.139995 h 2.5616 c 0.0945,0 0.14217,-0.04555 0.14217,-0.139995 V 74.909653 h 4.48625 c 0.0943,0 0.14217,-0.04778 0.14217,-0.142196 v -2.279299 c 0,-0.09444 -0.0479,-0.142392 -0.14217,-0.142392 z m 31.22667,0.118953 -2.43331,1.759064 c -0.0139,0.01589 -0.0315,0.03477 -0.0466,0.05829 -0.009,0.02341 -0.0139,0.04468 -0.0139,0.06068 v 2.561593 c 0,0.06294 0.0278,0.110694 0.0728,0.142196 0.0468,0.02343 0.0989,0.01617 0.15388,-0.02343 0.36208,-0.259778 0.7228,-0.523245 1.08486,-0.790886 0.36206,-0.275473 0.72509,-0.548889 1.08714,-0.816528 v 14.028096 c 0,0.09444 0.048,0.142198 0.14217,0.142198 h 2.41929 c 0.0943,0 0.13994,-0.04778 0.13994,-0.142198 V 72.606811 c 0,-0.09444 -0.0455,-0.142197 -0.13994,-0.142197 z m -10.10406,2.538257 c 0.67694,0 1.21532,0.217964 1.61673,0.650912 0.40948,0.425045 0.61359,1.018854 0.61359,1.782378 v 7.143522 c 0,0.771407 -0.20461,1.368982 -0.61359,1.794059 -0.40133,0.425045 -0.93979,0.63689 -1.61673,0.63689 -0.67695,0 -1.21527,-0.211859 -1.61671,-0.63689 -0.40134,-0.425091 -0.60428,-1.022652 -0.60428,-1.794059 v -7.143497 c 0,-0.763524 0.20266,-1.357335 0.60428,-1.782377 0.40133,-0.432946 0.93976,-0.650913 1.61671,-0.650913 z m -9.98507,11.865445 c -0.0945,0 -0.14217,0.04776 -0.14217,0.14239 v 2.398281 c 0,0.09444 0.0479,0.139994 0.14217,0.139994 h 2.40762 c 0.0867,0 0.13046,-0.04555 0.13046,-0.139994 v -2.398281 c 0,-0.09444 -0.0451,-0.14239 -0.13046,-0.14239 z" style="font-style: normal; font-variant: normal; font-weight: normal; font-stretch: normal; font-size: 15.1831px; line-height: 1.46; font-family: 'Alte DIN 1451 Mittelschrift gepraegt'; text-align: center; text-anchor: middle; opacity: 1; fill-opacity: 1; stroke-width: 0.264584; visibility: hidden;" id="path15637"/>
    <path id="path17496" style="font-size:15.1831px;line-height:1.46;font-family:'Singapore Road Signs';-inkscape-font-specification:'Singapore Road Signs';text-align:center;text-anchor:middle;opacity:1;fill:#ffffff;fill-opacity:1;stroke-width:0.0756548" d="m 570.47468,59.120043 v 50.614317 h 35.43541 V 59.120043 Z m 1.38203,1.660034 h 32.65274 v 47.566083 h -32.65274 z m 13.66823,3.646909 -2.23483,8.869719 h 3.92184 l 0.28216,-8.869719 z m 3.35329,0 0.28216,8.869719 h 3.92385 l -2.23686,-8.869719 z m -15.90932,9.992316 v 1.942234 l 3.06692,1.10806 v 0.584703 h 1.411 v -0.584703 c 0,0 2.08662,-0.313671 4.52568,-0.535349 1.95306,-0.177516 4.1317,-0.271988 5.64407,-0.278037 1.79866,-0.0063 4.45804,0.09363 6.73975,0.288436 2.51319,0.214479 4.5713,0.524984 4.5713,0.524984 v 0.5847 h 1.38199 v -0.5847 l 3.06685,-1.108064 v -1.942233 z m 9.21108,3.620663 -6.70448,26.681115 h 10.04943 l 1.39442,-26.681115 z m 7.25642,0 1.39441,26.681115 h 10.0494 l -6.70443,-26.681115 z"/>
    <g style="font-size:14.7905px;line-height:0;font-family:'Singapore Road Signs';-inkscape-font-specification:'Singapore Road Signs';text-align:center;text-anchor:middle;opacity:1;fill:#860000;fill-opacity:1;stroke-width:6.45213" id="layer1-8" transform="matrix(0.08718024,0,0,0.08718024,-145.22047,195.49013)">
      <circle style="opacity:1;fill:#f00a0a;fill-opacity:1;fill-rule:nonzero;stroke:none;stroke-width:3622.55;stroke-linecap:round;stroke-linejoin:round;stroke-miterlimit:4;stroke-dasharray:none;stroke-opacity:1;paint-order:stroke fill markers" id="path815" cx="6380.9966" cy="-193.29752" r="350"/>
      <circle cy="-193.29752" cx="6380.9966" id="circle817" style="opacity:1;fill:#ffffff;fill-opacity:1;fill-rule:nonzero;stroke:none;stroke-width:2587.55;stroke-linecap:round;stroke-linejoin:round;stroke-miterlimit:4;stroke-dasharray:none;stroke-opacity:1;paint-order:stroke fill markers" r="250"/>
      <g aria-label="20 " style="font-style:normal;font-variant:normal;font-weight:bold;font-stretch:normal;font-size:414.864px;line-height:0;font-family:Giaothong1;-inkscape-font-specification:'Giaothong1 Bold';letter-spacing:0px;word-spacing:0px;fill:#000000;fill-opacity:1;stroke:none;stroke-width:24.7849" id="text874" transform="matrix(-1,0,0,1,1299.029,-383.45)">
        <g aria-label="90" transform="translate(2310.2259,387.54849)" style="font-style:normal;font-variant:normal;font-weight:bold;font-stretch:normal;font-size:414.864px;line-height:0;font-family:Giaothong1;-inkscape-font-specification:'Giaothong1 Bold';letter-spacing:0px;word-spacing:0px;fill:#000000;fill-opacity:1;stroke:none;stroke-width:53.5539" id="text844"/>
      </g>
    </g>
    <g style="font-size:14.7905px;line-height:0;font-family:'Singapore Road Signs';-inkscape-font-specification:'Singapore Road Signs';text-align:center;text-anchor:middle;opacity:1;fill:#fff000;fill-opacity:1;stroke-width:6.45221" id="layer1-7" transform="matrix(0.08717968,0,0,0.08717968,488.77841,183.34565)">
      <circle cy="-54" cx="351" id="circle817-6" style="opacity:1;fill:#0046aa;fill-opacity:1;fill-rule:nonzero;stroke:none;stroke-width:3622.58;stroke-linecap:round;stroke-linejoin:round;stroke-miterlimit:4;stroke-dasharray:none;stroke-opacity:1;paint-order:stroke fill markers" r="350"/>
      <path id="rect984" style="font-style:normal;font-variant:normal;font-weight:bold;font-stretch:normal;font-size:414.864px;line-height:0;font-family:Giaothong1;-inkscape-font-specification:'Giaothong1 Bold';letter-spacing:0px;word-spacing:0px;opacity:1;fill:#ffffff;fill-opacity:1;fill-rule:nonzero;stroke:none;stroke-width:0.344279;stroke-linecap:round;stroke-linejoin:miter;stroke-miterlimit:10;stroke-dasharray:none;stroke-opacity:1;paint-order:stroke fill markers" d="m 851.18164,518.03906 c -16.32678,0 -29.4707,13.14393 -29.4707,29.47071 v 80.94921 c 0,16.32678 13.14392,29.47071 29.4707,29.47071 16.32678,0 29.4707,-13.14393 29.4707,-29.47071 v -80.94921 c 0,-16.32678 -13.14392,-29.47071 -29.4707,-29.47071 z m -69.94336,1.23828 -26.10937,69.75391 c -2.72781,7.40406 -3.70118,11.30112 -3.70118,28.44727 0,18.12042 0.7789,22.01697 4.67579,28.25195 5.26075,8.37828 14.22308,13.44336 24.93945,13.44336 10.91123,0 20.0688,-4.87023 25.13476,-13.44336 3.70197,-6.23498 4.48047,-10.13153 4.48047,-28.25195 0,-22.01726 -0.77798,-26.88814 -4.28515,-32.34375 -3.31232,-5.06591 -9.74347,-8.96289 -16.75782,-8.96289 -4.28653,0 -7.01308,0.77773 -8.37695,1.75195 l -0.39062,-0.38867 22.60156,-58.25782 z m 69.94336,18.74024 c 5.25853,0 9.49219,4.23365 9.49219,9.49219 v 80.94921 c 0,5.25853 -4.23366,9.49219 -9.49219,9.49219 -5.25853,0 -9.49219,-4.23366 -9.49219,-9.49219 v -80.94921 c 0,-5.25854 4.23366,-9.49219 9.49219,-9.49219 z m -70.13867,55.68945 c 5.0659,0 9.74219,3.89738 9.74219,9.9375 v 25.71875 c 0,6.04012 -4.67629,9.9375 -9.74219,9.9375 -5.0659,0 -9.74219,-3.89738 -9.74219,-9.9375 v -25.71875 c 0,-6.04012 4.67629,-9.9375 9.74219,-9.9375 z" transform="matrix(3.0349198,0,0,3.0349198,-2125.7104,-1839.7056)"/>
    </g>
    <g aria-label="6" id="text19759" style="font-size:31.1478px;line-height:1.3;font-family:'Singapore Road Signs';-inkscape-font-specification:'Singapore Road Signs';text-align:center;text-anchor:middle;stroke-width:0.159861" transform="matrix(1.6550836,0,0,1.6550836,-321.31659,-238.56049)"/>
    <path d="M 389.28 46.797 Q 389.175 46.797 389.175 46.691 L 389.175 34.097 Q 389.175 33.991 389.28 33.991 L 391.188 33.991 Q 391.293 33.991 391.293 34.097 L 391.293 44.793 L 397.331 44.793 Q 397.437 44.793 397.437 44.898 L 397.437 46.691 Q 397.437 46.797 397.331 46.797 Z M 400.354 32.857 Q 400.275 32.857 400.253 32.791 Q 400.231 32.725 400.293 32.682 L 402.877 30.634 L 404.054 30.634 L 406.674 32.682 Q 406.735 32.725 406.713 32.791 Q 406.691 32.857 406.621 32.857 L 405.135 32.857 L 403.386 31.917 Q 403 32.154 402.604 32.392 Q 402.209 32.629 401.822 32.857 Z M 398.799 40.293 Q 398.799 39.142 398.829 38.412 Q 398.86 37.683 398.913 37.349 Q 398.974 37.015 399.089 36.707 Q 399.203 36.399 399.37 36.1 L 399.361 36.1 Q 399.818 35.248 400.838 34.518 Q 401.866 33.78 403.395 33.78 Q 404.907 33.78 405.935 34.518 Q 406.972 35.266 407.429 36.1 Q 407.755 36.698 407.869 37.349 Q 407.93 37.683 407.961 38.412 Q 407.992 39.142 407.992 40.293 Q 407.992 42.552 407.869 43.246 Q 407.807 43.589 407.698 43.896 Q 407.588 44.204 407.438 44.485 Q 406.972 45.329 405.935 46.067 Q 404.898 46.797 403.395 46.797 Q 401.875 46.797 400.838 46.067 Q 399.818 45.347 399.361 44.485 L 399.37 44.485 Q 399.203 44.186 399.089 43.883 Q 398.974 43.58 398.913 43.246 Q 398.86 42.912 398.829 42.178 Q 398.799 41.444 398.799 40.293 Z M 400.917 40.293 Q 400.917 41.251 400.943 41.871 Q 400.969 42.49 401.04 42.789 Q 401.11 43.061 401.238 43.33 Q 401.365 43.598 401.523 43.8 Q 401.804 44.169 402.27 44.428 Q 402.736 44.687 403.395 44.687 Q 404.046 44.687 404.511 44.428 Q 404.977 44.169 405.25 43.8 Q 405.619 43.351 405.733 42.789 Q 405.874 42.226 405.874 40.293 Q 405.874 39.335 405.839 38.715 Q 405.803 38.096 405.733 37.806 Q 405.672 37.524 405.549 37.256 Q 405.426 36.988 405.259 36.777 Q 405.127 36.61 404.938 36.452 Q 404.749 36.294 404.511 36.175 Q 404.274 36.057 403.993 35.982 Q 403.712 35.907 403.395 35.907 Q 402.736 35.907 402.27 36.171 Q 401.804 36.434 401.523 36.777 Q 401.356 36.988 401.233 37.256 Q 401.11 37.524 401.04 37.806 Q 400.969 38.104 400.943 38.728 Q 400.917 39.352 400.917 40.293 Z M 402.508 50.26 Q 402.411 50.26 402.411 50.163 L 402.411 48.467 Q 402.411 48.37 402.508 48.37 L 404.213 48.37 Q 404.301 48.37 404.301 48.467 L 404.301 50.163 Q 404.301 50.26 404.213 50.26 Z M 416.744 46.797 Q 416.638 46.797 416.638 46.691 L 416.638 35.898 L 413.29 35.898 Q 413.184 35.898 413.184 35.793 L 413.184 34.097 Q 413.184 33.991 413.29 33.991 L 422.096 33.991 Q 422.202 33.991 422.202 34.097 L 422.202 35.793 Q 422.202 35.898 422.096 35.898 L 418.757 35.898 L 418.757 46.691 Q 418.757 46.797 418.651 46.797 Z M 423.592 46.797 Q 423.487 46.797 423.487 46.691 L 423.487 34.097 Q 423.487 33.991 423.592 33.991 L 431.643 33.991 Q 431.749 33.991 431.749 34.097 L 431.749 35.907 Q 431.749 36.013 431.643 36.013 L 425.605 36.013 L 425.605 39.388 L 430.738 39.388 Q 430.843 39.388 430.843 39.493 L 430.843 41.198 Q 430.843 41.295 430.738 41.295 L 425.605 41.295 L 425.605 44.793 L 431.643 44.793 Q 431.749 44.793 431.749 44.898 L 431.749 46.691 Q 431.749 46.797 431.643 46.797 Z M 427.508 32.857 Q 427.508 32.857 427.326 32.857 Q 427.143 32.857 426.923 32.857 L 426.923 32.453 Q 427.02 31.899 427.609 31.548 Q 428.532 31.161 428.453 30.634 Q 428.33 30.098 427.627 30.089 Q 426.695 30.106 426.642 30.994 L 425.333 30.994 Q 425.333 30.502 425.513 30.177 Q 425.693 29.851 426.001 29.544 Q 426.607 28.964 427.583 28.946 Q 428.611 28.964 429.27 29.526 Q 429.569 29.825 429.736 30.106 Q 429.903 30.388 429.912 30.818 Q 429.859 31.425 429.235 31.882 Q 428.708 32.137 428.426 32.286 L 428.321 32.4 L 428.207 32.576 L 428.189 32.857 Q 427.873 32.857 427.508 32.857 Z" transform="matrix(1.310387, 0, 0, 1.310387, -59.698296, -1.169035)" style="fill: rgb(255, 255, 255);"/>
    <path transform="matrix(1.310387, 0, 0, 1.310387, -59.698296, -1.169035)" style="fill: rgb(255, 255, 255);"/>
    <path d="M 376.392 61.458 L 376.392 65.071 L 379.178 65.071 Q 380.198 65.071 380.707 64.508 Q 381.217 63.946 381.217 63.172 Q 381.217 62.733 381.063 62.39 Q 380.909 62.047 380.619 61.827 Q 380.365 61.652 380.026 61.555 Q 379.688 61.458 379.292 61.458 Z M 374.379 72.357 Q 374.274 72.357 374.274 72.251 L 374.274 59.657 Q 374.274 59.551 374.379 59.551 L 379.31 59.551 Q 380.127 59.551 380.786 59.775 Q 381.446 59.999 381.938 60.412 Q 382.193 60.65 382.426 60.953 Q 382.658 61.256 382.839 61.608 Q 383.019 61.959 383.124 62.355 Q 383.23 62.75 383.23 63.172 Q 383.23 63.796 383.054 64.354 Q 382.878 64.912 382.562 65.396 Q 382.237 65.844 381.806 66.182 Q 381.375 66.521 380.83 66.723 Q 381.542 68.085 382.263 69.461 Q 382.984 70.836 383.696 72.199 Q 383.722 72.26 383.696 72.308 Q 383.669 72.357 383.608 72.357 L 381.34 72.357 Q 381.314 72.357 381.287 72.335 Q 381.261 72.313 381.243 72.295 L 378.668 66.978 L 376.392 66.978 L 376.392 72.251 Q 376.392 72.357 376.286 72.357 Z M 384.115 72.348 Q 384.053 72.348 384.027 72.304 Q 384.001 72.26 384.018 72.207 L 388.624 59.604 Q 388.641 59.534 388.711 59.534 L 390.285 59.534 Q 390.311 59.534 390.342 59.556 Q 390.373 59.577 390.381 59.604 L 394.978 72.207 Q 394.996 72.26 394.969 72.304 Q 394.943 72.348 394.89 72.348 L 392.878 72.348 Q 392.807 72.348 392.79 72.278 L 391.84 69.5 L 387.2 69.5 Q 386.954 70.212 386.712 70.893 Q 386.47 71.575 386.224 72.278 Q 386.215 72.304 386.185 72.326 Q 386.154 72.348 386.128 72.348 Z M 391.208 67.611 Q 391.19 67.549 391.159 67.479 Q 391.128 67.409 391.111 67.356 Q 390.961 66.925 390.838 66.56 Q 390.715 66.196 390.619 65.923 Q 390.557 65.747 390.5 65.58 Q 390.443 65.413 390.39 65.264 Q 390.346 65.123 390.302 64.996 Q 390.258 64.869 390.214 64.745 Q 390.135 64.491 390.052 64.236 Q 389.968 63.981 389.88 63.708 Q 389.836 63.585 389.788 63.436 Q 389.74 63.286 389.687 63.119 Q 389.661 63.032 389.648 62.983 Q 389.634 62.935 389.617 62.887 Q 389.599 62.838 389.577 62.777 Q 389.555 62.715 389.52 62.601 Q 389.423 62.891 389.34 63.137 Q 389.256 63.383 389.186 63.594 Q 389.169 63.647 389.16 63.691 Q 389.151 63.735 389.133 63.779 Q 389.089 63.928 389.041 64.06 Q 388.993 64.192 388.949 64.324 Q 388.905 64.464 388.861 64.596 Q 388.817 64.728 388.773 64.851 Q 388.685 65.115 388.593 65.405 Q 388.501 65.695 388.386 66.011 Q 388.272 66.327 388.149 66.692 Q 388.026 67.057 387.833 67.611 Z M 388.65 75.82 Q 388.553 75.82 388.553 75.723 L 388.553 74.027 Q 388.553 73.93 388.65 73.93 L 390.355 73.93 Q 390.443 73.93 390.443 74.027 L 390.443 75.723 Q 390.443 75.82 390.355 75.82 Z M 405.061 68.63 Q 405.114 68.63 405.149 68.67 Q 405.184 68.709 405.166 68.762 Q 404.797 70.555 403.532 71.522 Q 402.916 71.988 402.196 72.225 Q 401.475 72.462 400.64 72.462 Q 399.12 72.462 398.082 71.733 Q 397.063 71.012 396.606 70.151 Q 396.448 69.852 396.333 69.549 Q 396.219 69.245 396.158 68.911 Q 396.043 68.261 396.043 65.958 Q 396.043 64.807 396.07 64.077 Q 396.096 63.348 396.158 63.014 Q 396.219 62.68 396.333 62.372 Q 396.448 62.065 396.606 61.766 Q 397.063 60.913 398.082 60.184 Q 399.111 59.446 400.64 59.446 Q 402.468 59.446 403.664 60.571 Q 404.876 61.704 405.166 63.26 Q 405.184 63.313 405.149 63.348 Q 405.114 63.383 405.061 63.383 L 403.048 63.383 Q 402.969 63.383 402.952 63.313 Q 402.837 62.961 402.626 62.658 Q 402.415 62.355 402.108 62.091 Q 401.528 61.573 400.64 61.573 Q 399.981 61.573 399.515 61.836 Q 399.049 62.1 398.768 62.443 Q 398.601 62.654 398.478 62.922 Q 398.355 63.19 398.285 63.471 Q 398.214 63.77 398.188 64.394 Q 398.162 65.018 398.162 65.958 Q 398.162 66.916 398.188 67.536 Q 398.214 68.156 398.285 68.454 Q 398.355 68.727 398.482 68.995 Q 398.61 69.263 398.768 69.465 Q 399.049 69.834 399.515 70.094 Q 399.981 70.353 400.64 70.353 Q 402.161 70.353 402.952 68.692 Q 402.969 68.674 402.996 68.652 Q 403.022 68.63 403.048 68.63 Z M 413.481 72.357 Q 413.375 72.357 413.375 72.251 L 413.375 66.855 L 408.585 66.855 L 408.585 72.251 Q 408.585 72.357 408.48 72.357 L 406.572 72.357 Q 406.467 72.357 406.467 72.251 L 406.467 59.657 Q 406.467 59.551 406.572 59.551 L 408.48 59.551 Q 408.585 59.551 408.585 59.657 L 408.585 64.948 L 413.375 64.948 L 413.375 59.657 Q 413.375 59.551 413.481 59.551 L 415.388 59.551 Q 415.493 59.551 415.493 59.657 L 415.493 72.251 Q 415.493 72.357 415.388 72.357 Z M 422.629 69.122 Q 422.655 69.087 422.699 69.087 Q 422.743 69.087 422.778 69.114 Q 423.472 69.676 424.373 70.015 Q 425.274 70.353 426.276 70.353 Q 427.401 70.353 428.052 69.887 Q 428.667 69.439 428.667 68.701 Q 428.667 67.312 427.111 67.101 L 427.12 67.101 Q 426.9 67.075 426.702 67.048 Q 426.505 67.022 426.307 66.995 Q 426.109 66.969 425.903 66.938 Q 425.696 66.908 425.45 66.872 Q 424.624 66.758 423.978 66.455 Q 423.332 66.152 422.892 65.651 Q 422.453 65.141 422.233 64.539 Q 422.013 63.937 422.013 63.225 Q 422.013 61.555 423.121 60.509 Q 424.237 59.446 426.223 59.446 Q 426.812 59.446 427.37 59.547 Q 427.928 59.648 428.451 59.824 Q 428.974 59.999 429.453 60.241 Q 429.932 60.483 430.372 60.773 Q 430.46 60.834 430.398 60.922 L 429.335 62.495 Q 429.273 62.575 429.194 62.522 Q 428.509 62.091 427.735 61.832 Q 426.962 61.573 426.135 61.573 Q 425.714 61.573 425.353 61.674 Q 424.993 61.775 424.703 62.003 Q 424.132 62.416 424.132 63.26 Q 424.132 63.744 424.518 64.201 Q 424.712 64.411 425.037 64.556 Q 425.362 64.702 425.837 64.772 Q 426.092 64.816 426.434 64.864 Q 426.777 64.912 427.243 64.965 Q 429.045 65.185 429.915 66.292 Q 430.785 67.373 430.785 68.701 Q 430.785 70.476 429.546 71.478 Q 428.298 72.462 426.259 72.462 Q 423.385 72.462 421.372 70.704 Q 421.337 70.678 421.337 70.634 Q 421.337 70.59 421.363 70.555 Z M 432.35 65.958 Q 432.35 64.807 432.381 64.077 Q 432.412 63.348 432.465 63.014 Q 432.526 62.68 432.64 62.372 Q 432.755 62.065 432.922 61.766 L 432.913 61.766 Q 433.37 60.913 434.389 60.184 Q 435.418 59.446 436.947 59.446 Q 438.459 59.446 439.487 60.184 Q 440.524 60.931 440.981 61.766 Q 441.306 62.364 441.421 63.014 Q 441.482 63.348 441.513 64.077 Q 441.544 64.807 441.544 65.958 Q 441.544 68.217 441.421 68.911 Q 441.359 69.254 441.249 69.562 Q 441.139 69.869 440.99 70.151 Q 440.524 70.994 439.487 71.733 Q 438.45 72.462 436.947 72.462 Q 435.426 72.462 434.389 71.733 Q 433.37 71.012 432.913 70.151 L 432.922 70.151 Q 432.755 69.852 432.64 69.549 Q 432.526 69.245 432.465 68.911 Q 432.412 68.577 432.381 67.844 Q 432.35 67.11 432.35 65.958 Z M 434.468 65.958 Q 434.468 66.916 434.495 67.536 Q 434.521 68.156 434.591 68.454 Q 434.662 68.727 434.789 68.995 Q 434.917 69.263 435.075 69.465 Q 435.356 69.834 435.822 70.094 Q 436.288 70.353 436.947 70.353 Q 437.597 70.353 438.063 70.094 Q 438.529 69.834 438.801 69.465 Q 439.171 69.017 439.285 68.454 Q 439.425 67.892 439.425 65.958 Q 439.425 65 439.39 64.381 Q 439.355 63.761 439.285 63.471 Q 439.223 63.19 439.1 62.922 Q 438.977 62.654 438.81 62.443 Q 438.678 62.276 438.489 62.118 Q 438.3 61.959 438.063 61.841 Q 437.826 61.722 437.545 61.647 Q 437.263 61.573 436.947 61.573 Q 436.288 61.573 435.822 61.836 Q 435.356 62.1 435.075 62.443 Q 434.908 62.654 434.785 62.922 Q 434.662 63.19 434.591 63.471 Q 434.521 63.77 434.495 64.394 Q 434.468 65.018 434.468 65.958 Z M 436.837 58.417 Q 436.837 58.417 436.655 58.417 Q 436.472 58.417 436.253 58.417 L 436.253 58.013 Q 436.349 57.459 436.938 57.108 Q 437.861 56.721 437.782 56.194 Q 437.659 55.658 436.956 55.649 Q 436.024 55.666 435.971 56.554 L 434.662 56.554 Q 434.662 56.062 434.842 55.737 Q 435.022 55.411 435.33 55.104 Q 435.936 54.524 436.912 54.506 Q 437.94 54.524 438.599 55.086 Q 438.898 55.385 439.065 55.666 Q 439.232 55.948 439.241 56.378 Q 439.188 56.985 438.564 57.442 Q 438.037 57.697 437.756 57.846 L 437.65 57.96 L 437.536 58.136 L 437.518 58.417 Q 437.202 58.417 436.837 58.417 Z M 443.829 72.357 Q 443.724 72.357 443.724 72.251 L 443.724 59.657 Q 443.724 59.551 443.829 59.551 L 445.736 59.551 Q 445.842 59.551 445.842 59.657 L 445.842 72.251 Q 445.842 72.357 445.736 72.357 Z" transform="matrix(1.310387, 0, 0, 1.310387, -59.698296, -1.169035)" style="fill: rgb(255, 255, 255);"/>
    <path d="M 426.152 119.118 Q 426.045 119.118 426.045 119.011 L 426.045 106.277 Q 426.045 106.17 426.152 106.17 L 434.292 106.17 Q 434.399 106.17 434.399 106.277 L 434.399 108.107 Q 434.399 108.214 434.292 108.214 L 428.187 108.214 L 428.187 111.626 L 433.377 111.626 Q 433.484 111.626 433.484 111.733 L 433.484 113.457 Q 433.484 113.555 433.377 113.555 L 428.187 113.555 L 428.187 117.092 L 434.292 117.092 Q 434.399 117.092 434.399 117.198 L 434.399 119.011 Q 434.399 119.118 434.292 119.118 Z M 442.572 119.118 Q 442.519 119.118 442.483 119.065 L 439.781 114.479 Q 439.106 115.634 438.431 116.772 Q 437.755 117.909 437.08 119.065 Q 437.044 119.118 436.991 119.118 L 434.814 119.118 Q 434.743 119.118 434.716 119.069 Q 434.689 119.02 434.725 118.958 L 438.591 112.48 Q 437.675 110.933 436.778 109.405 Q 435.88 107.876 434.974 106.33 Q 434.938 106.268 434.965 106.219 Q 434.992 106.17 435.054 106.17 L 437.24 106.17 Q 437.293 106.17 437.329 106.223 L 439.781 110.489 Q 440.395 109.422 441.008 108.361 Q 441.621 107.299 442.234 106.223 Q 442.27 106.17 442.323 106.17 L 444.509 106.17 Q 444.571 106.17 444.598 106.219 Q 444.625 106.268 444.589 106.33 L 440.972 112.48 Q 441.95 114.106 442.91 115.719 Q 443.869 117.332 444.847 118.958 Q 444.882 119.02 444.856 119.069 Q 444.829 119.118 444.758 119.118 Z M 448.149 108.214 L 448.149 112.106 L 450.913 112.106 Q 451.935 112.106 452.433 111.493 Q 452.939 110.898 452.939 110.16 Q 452.939 109.058 452.157 108.552 Q 451.65 108.214 450.842 108.214 Z M 446.114 119.118 Q 446.007 119.118 446.007 119.011 L 446.007 106.277 Q 446.007 106.17 446.114 106.17 L 450.735 106.17 Q 451.499 106.17 452.184 106.33 Q 452.877 106.49 453.659 107.094 Q 453.961 107.334 454.214 107.65 Q 454.468 107.965 454.672 108.347 Q 454.867 108.738 454.974 109.209 Q 455.081 109.68 455.081 110.213 Q 455.081 111.609 454.032 112.879 Q 452.983 114.141 450.984 114.141 L 448.149 114.141 L 448.149 119.011 Q 448.149 119.118 448.042 119.118 Z M 458.768 108.098 L 458.768 111.751 L 461.585 111.751 Q 462.616 111.751 463.131 111.182 Q 463.647 110.613 463.647 109.831 Q 463.647 109.387 463.491 109.04 Q 463.336 108.694 463.042 108.472 Q 462.785 108.294 462.442 108.196 Q 462.1 108.098 461.7 108.098 Z M 456.733 119.118 Q 456.626 119.118 456.626 119.011 L 456.626 106.277 Q 456.626 106.17 456.733 106.17 L 461.718 106.17 Q 462.545 106.17 463.211 106.397 Q 463.878 106.623 464.375 107.041 Q 464.633 107.281 464.869 107.587 Q 465.104 107.894 465.286 108.249 Q 465.468 108.605 465.575 109.005 Q 465.682 109.405 465.682 109.831 Q 465.682 110.462 465.504 111.027 Q 465.326 111.591 465.006 112.08 Q 464.677 112.533 464.242 112.875 Q 463.807 113.217 463.256 113.422 Q 463.975 114.799 464.704 116.19 Q 465.433 117.58 466.153 118.958 Q 466.179 119.02 466.153 119.069 Q 466.126 119.118 466.064 119.118 L 463.771 119.118 Q 463.744 119.118 463.718 119.096 Q 463.691 119.073 463.673 119.056 L 461.069 113.679 L 458.768 113.679 L 458.768 119.011 Q 458.768 119.118 458.661 119.118 Z M 467.66 119.118 Q 467.554 119.118 467.554 119.011 L 467.554 106.277 Q 467.554 106.17 467.66 106.17 L 475.801 106.17 Q 475.907 106.17 475.907 106.277 L 475.907 108.107 Q 475.907 108.214 475.801 108.214 L 469.695 108.214 L 469.695 111.626 L 474.885 111.626 Q 474.992 111.626 474.992 111.733 L 474.992 113.457 Q 474.992 113.555 474.885 113.555 L 469.695 113.555 L 469.695 117.092 L 475.801 117.092 Q 475.907 117.092 475.907 117.198 L 475.907 119.011 Q 475.907 119.118 475.801 119.118 Z M 477.682 115.848 Q 477.708 115.812 477.753 115.812 Q 477.797 115.812 477.833 115.839 Q 478.535 116.407 479.446 116.75 Q 480.357 117.092 481.37 117.092 Q 482.507 117.092 483.165 116.621 Q 483.787 116.168 483.787 115.421 Q 483.787 114.017 482.214 113.804 L 482.223 113.804 Q 482.001 113.777 481.801 113.75 Q 481.601 113.724 481.401 113.697 Q 481.201 113.67 480.992 113.639 Q 480.783 113.608 480.534 113.573 Q 479.699 113.457 479.046 113.15 Q 478.393 112.844 477.948 112.337 Q 477.504 111.822 477.282 111.213 Q 477.06 110.604 477.06 109.885 Q 477.06 108.196 478.179 107.139 Q 479.308 106.063 481.316 106.063 Q 481.912 106.063 482.476 106.166 Q 483.04 106.268 483.569 106.445 Q 484.098 106.623 484.582 106.868 Q 485.067 107.112 485.511 107.405 Q 485.6 107.467 485.538 107.556 L 484.462 109.147 Q 484.4 109.227 484.32 109.174 Q 483.627 108.738 482.845 108.476 Q 482.063 108.214 481.228 108.214 Q 480.801 108.214 480.437 108.316 Q 480.072 108.418 479.779 108.649 Q 479.201 109.067 479.201 109.92 Q 479.201 110.409 479.592 110.871 Q 479.788 111.084 480.117 111.231 Q 480.445 111.378 480.925 111.449 Q 481.183 111.493 481.53 111.542 Q 481.876 111.591 482.347 111.644 Q 484.169 111.866 485.049 112.986 Q 485.929 114.079 485.929 115.421 Q 485.929 117.216 484.676 118.229 Q 483.414 119.225 481.352 119.225 Q 478.446 119.225 476.411 117.447 Q 476.375 117.421 476.375 117.376 Q 476.375 117.332 476.402 117.296 Z M 487.952 115.848 Q 487.978 115.812 488.023 115.812 Q 488.067 115.812 488.103 115.839 Q 488.805 116.407 489.716 116.75 Q 490.627 117.092 491.64 117.092 Q 492.777 117.092 493.435 116.621 Q 494.057 116.168 494.057 115.421 Q 494.057 114.017 492.484 113.804 L 492.493 113.804 Q 492.271 113.777 492.071 113.75 Q 491.871 113.724 491.671 113.697 Q 491.471 113.67 491.262 113.639 Q 491.053 113.608 490.804 113.573 Q 489.969 113.457 489.316 113.15 Q 488.663 112.844 488.218 112.337 Q 487.774 111.822 487.552 111.213 Q 487.33 110.604 487.33 109.885 Q 487.33 108.196 488.449 107.139 Q 489.578 106.063 491.586 106.063 Q 492.182 106.063 492.746 106.166 Q 493.311 106.268 493.839 106.445 Q 494.368 106.623 494.852 106.868 Q 495.337 107.112 495.781 107.405 Q 495.87 107.467 495.808 107.556 L 494.732 109.147 Q 494.67 109.227 494.59 109.174 Q 493.897 108.738 493.115 108.476 Q 492.333 108.214 491.498 108.214 Q 491.071 108.214 490.707 108.316 Q 490.342 108.418 490.049 108.649 Q 489.471 109.067 489.471 109.92 Q 489.471 110.409 489.862 110.871 Q 490.058 111.084 490.387 111.231 Q 490.716 111.378 491.195 111.449 Q 491.453 111.493 491.8 111.542 Q 492.146 111.591 492.617 111.644 Q 494.439 111.866 495.319 112.986 Q 496.199 114.079 496.199 115.421 Q 496.199 117.216 494.946 118.229 Q 493.684 119.225 491.622 119.225 Q 488.716 119.225 486.681 117.447 Q 486.645 117.421 486.645 117.376 Q 486.645 117.332 486.672 117.296 Z M 500.204 119.118 Q 500.115 119.118 500.097 119.038 L 496.907 106.303 Q 496.889 106.25 496.924 106.21 Q 496.96 106.17 497.013 106.17 L 499.057 106.17 Q 499.146 106.17 499.164 106.25 L 501.083 114.95 Q 501.67 112.764 502.265 110.604 Q 502.861 108.445 503.456 106.25 Q 503.474 106.17 503.563 106.17 L 504.958 106.17 Q 505.038 106.17 505.056 106.25 L 507.437 114.95 Q 507.917 112.764 508.397 110.604 Q 508.877 108.445 509.357 106.25 Q 509.375 106.17 509.464 106.17 L 511.508 106.17 Q 511.561 106.17 511.596 106.21 Q 511.632 106.25 511.614 106.303 L 508.424 119.038 Q 508.406 119.118 508.317 119.118 L 506.709 119.118 Q 506.629 119.118 506.611 119.038 L 504.256 110.196 Q 503.669 112.426 503.083 114.621 Q 502.496 116.816 501.91 119.038 Q 501.892 119.118 501.812 119.118 Z M 511.528 119.109 Q 511.466 119.109 511.439 119.065 Q 511.412 119.02 511.43 118.967 L 516.087 106.223 Q 516.104 106.152 516.175 106.152 L 517.766 106.152 Q 517.793 106.152 517.824 106.174 Q 517.855 106.197 517.864 106.223 L 522.512 118.967 Q 522.529 119.02 522.503 119.065 Q 522.476 119.109 522.423 119.109 L 520.388 119.109 Q 520.317 119.109 520.299 119.038 L 519.339 116.23 L 514.647 116.23 Q 514.398 116.95 514.154 117.638 Q 513.909 118.327 513.661 119.038 Q 513.652 119.065 513.621 119.087 Q 513.589 119.109 513.563 119.109 Z M 518.699 114.319 Q 518.682 114.257 518.65 114.186 Q 518.619 114.115 518.602 114.061 Q 518.45 113.626 518.326 113.257 Q 518.202 112.888 518.104 112.613 Q 518.042 112.435 517.984 112.266 Q 517.926 112.097 517.873 111.946 Q 517.828 111.804 517.784 111.675 Q 517.74 111.546 517.695 111.422 Q 517.615 111.164 517.531 110.907 Q 517.446 110.649 517.357 110.373 Q 517.313 110.249 517.264 110.098 Q 517.215 109.947 517.162 109.778 Q 517.135 109.689 517.122 109.64 Q 517.109 109.591 517.091 109.542 Q 517.073 109.494 517.051 109.431 Q 517.029 109.369 516.993 109.254 Q 516.895 109.547 516.811 109.796 Q 516.726 110.045 516.655 110.258 Q 516.638 110.311 516.629 110.356 Q 516.62 110.4 516.602 110.444 Q 516.558 110.596 516.509 110.729 Q 516.46 110.862 516.415 110.995 Q 516.371 111.138 516.327 111.271 Q 516.282 111.404 516.238 111.529 Q 516.149 111.795 516.056 112.089 Q 515.962 112.382 515.847 112.702 Q 515.731 113.022 515.607 113.39 Q 515.482 113.759 515.287 114.319 Z M 525.493 119.118 Q 525.395 119.118 525.395 119.011 L 525.395 113.804 Q 524.435 111.929 523.484 110.062 Q 522.533 108.196 521.582 106.321 Q 521.556 106.259 521.582 106.214 Q 521.609 106.17 521.68 106.17 L 523.706 106.17 Q 523.733 106.17 523.76 106.192 Q 523.786 106.214 523.804 106.232 L 526.417 111.689 Q 527.074 110.311 527.719 108.96 Q 528.363 107.61 529.021 106.232 Q 529.038 106.214 529.065 106.192 Q 529.092 106.17 529.118 106.17 L 531.153 106.17 Q 531.224 106.17 531.251 106.214 Q 531.278 106.259 531.251 106.321 L 527.43 113.804 L 527.43 119.011 Q 527.43 119.118 527.323 119.118 Z" style="fill: rgb(255, 255, 255);"/>
    <path d="M 409.621 185.664 Q 409.621 186.76 409.073 187.953 Q 408.525 189.146 407.296 189.995 Q 406.068 190.843 404.618 190.843 Q 403.063 190.843 401.764 190.048 Q 400.465 189.252 399.987 188.262 Q 399.51 187.273 399.404 186.619 Q 399.298 185.965 399.298 185.275 L 399.298 181.033 Q 399.298 180.061 399.749 179.283 Q 400.199 178.505 401.03 177.887 Q 399.298 176.579 399.298 174.299 L 399.298 171.046 Q 399.298 170.357 399.572 169.65 Q 399.846 168.943 400.871 167.608 Q 401.896 166.274 404.548 166.274 Q 405.555 166.274 406.465 166.689 Q 407.376 167.105 408.498 168.28 Q 409.621 169.455 409.621 171.453 L 409.621 174.564 Q 409.621 176.649 407.871 177.887 Q 409.621 179.089 409.621 181.298 Z M 404.477 169.703 Q 403.717 169.703 403.213 170.215 Q 402.709 170.728 402.709 171.453 L 402.709 174.564 Q 402.709 175.394 403.16 175.987 Q 403.611 176.579 404.442 176.579 Q 405.343 176.579 405.758 176.022 Q 406.174 175.465 406.174 174.564 L 406.174 171.453 Q 406.174 170.763 405.688 170.233 Q 405.202 169.703 404.477 169.703 Z M 404.477 179.195 Q 403.682 179.195 403.195 179.716 Q 402.709 180.238 402.709 181.033 L 402.709 185.275 Q 402.709 186.212 403.142 186.795 Q 403.576 187.379 404.548 187.379 Q 405.484 187.379 405.829 186.76 Q 406.174 186.141 406.174 185.275 L 406.174 181.033 Q 406.174 180.238 405.723 179.716 Q 405.272 179.195 404.477 179.195 Z M 415.498 190.856 Q 411.697 190.131 411.079 186.401 Q 411.079 182.53 411.079 178.642 Q 411.079 174.753 411.079 170.847 Q 411.556 168.019 413.58 167.038 Q 415.604 166.057 418.202 166.64 Q 419.51 167.435 420.305 168.319 Q 421.101 169.203 421.401 170.847 Q 421.401 174.753 421.401 178.624 Q 421.401 182.495 421.401 186.331 Q 420.889 189.848 417.636 190.82 Q 417.23 190.82 416.956 190.838 Q 416.682 190.856 415.498 190.856 Z M 415.851 187.374 Q 417.442 187.374 417.884 185.977 Q 417.884 182.318 417.884 178.677 Q 417.884 175.036 417.884 171.377 Q 417.672 170.723 417.407 170.299 Q 416.364 169.503 415.639 169.954 Q 414.914 170.405 414.596 171.377 Q 414.596 175.001 414.596 178.642 Q 414.596 182.283 414.596 185.906 Q 414.808 187.02 415.851 187.374 Z"/>
    <path d="M 341.369 84.558 Q 341.441 84.558 341.489 84.612 Q 341.537 84.666 341.513 84.738 Q 341.009 87.189 339.279 88.51 Q 338.438 89.147 337.453 89.471 Q 336.468 89.795 335.327 89.795 Q 333.249 89.795 331.832 88.798 Q 330.438 87.813 329.814 86.636 Q 329.598 86.228 329.441 85.813 Q 329.285 85.399 329.201 84.942 Q 329.045 84.054 329.045 80.906 Q 329.045 79.333 329.081 78.336 Q 329.117 77.339 329.201 76.883 Q 329.285 76.426 329.441 76.006 Q 329.598 75.585 329.814 75.177 Q 330.438 74.012 331.832 73.015 Q 333.237 72.006 335.327 72.006 Q 337.826 72.006 339.459 73.543 Q 341.117 75.093 341.513 77.219 Q 341.537 77.291 341.489 77.339 Q 341.441 77.387 341.369 77.387 L 338.618 77.387 Q 338.51 77.387 338.486 77.291 Q 338.33 76.81 338.042 76.396 Q 337.754 75.982 337.333 75.621 Q 336.54 74.913 335.327 74.913 Q 334.426 74.913 333.79 75.273 Q 333.153 75.633 332.769 76.102 Q 332.54 76.39 332.372 76.756 Q 332.204 77.123 332.108 77.507 Q 332.012 77.916 331.976 78.768 Q 331.94 79.621 331.94 80.906 Q 331.94 82.216 331.976 83.063 Q 332.012 83.909 332.108 84.318 Q 332.204 84.69 332.378 85.057 Q 332.552 85.423 332.769 85.699 Q 333.153 86.204 333.79 86.558 Q 334.426 86.912 335.327 86.912 Q 337.405 86.912 338.486 84.642 Q 338.51 84.618 338.546 84.588 Q 338.582 84.558 338.618 84.558 Z M 346.397 89.651 Q 346.253 89.651 346.253 89.507 L 346.253 74.756 L 341.677 74.756 Q 341.532 74.756 341.532 74.612 L 341.532 72.294 Q 341.532 72.15 341.677 72.15 L 353.712 72.15 Q 353.856 72.15 353.856 72.294 L 353.856 74.612 Q 353.856 74.756 353.712 74.756 L 349.148 74.756 L 349.148 89.507 Q 349.148 89.651 349.004 89.651 Z M 354.225 89.651 Q 354.081 89.651 354.081 89.507 L 354.081 87.068 Q 354.081 86.924 354.225 86.924 L 356.676 86.924 Q 356.808 86.924 356.808 87.068 L 356.808 89.507 Q 356.808 89.651 356.676 89.651 Z M 365.17 77.327 Q 365.17 76.162 364.552 75.507 Q 363.933 74.853 362.9 74.853 Q 361.867 74.853 361.255 75.507 Q 360.642 76.162 360.642 77.327 L 360.642 84.594 Q 360.642 85.771 361.255 86.42 Q 361.867 87.068 362.9 87.068 Q 363.933 87.068 364.552 86.42 Q 365.17 85.771 365.17 84.594 Z M 357.903 77.183 Q 357.903 74.756 359.429 73.447 Q 360.942 72.114 362.9 72.114 Q 363.873 72.114 364.744 72.456 Q 365.615 72.799 366.372 73.447 Q 367.128 74.12 367.519 75.051 Q 367.909 75.982 367.909 77.183 L 367.909 84.738 Q 367.909 87.153 366.372 88.474 Q 364.858 89.795 362.9 89.795 Q 360.942 89.795 359.429 88.474 Q 357.903 87.165 357.903 84.738 Z M 369.71 89.651 Q 369.566 89.651 369.566 89.507 L 369.566 87.165 L 376.293 78.744 L 376.293 78.756 Q 376.665 78.288 376.773 77.898 Q 376.881 77.507 376.881 77.135 Q 376.881 76.306 376.281 75.573 Q 375.68 74.853 374.659 74.853 Q 373.722 74.853 373.037 75.489 Q 372.701 75.802 372.527 76.228 Q 372.353 76.654 372.305 77.195 Q 372.305 77.255 372.263 77.291 Q 372.221 77.327 372.161 77.327 L 369.71 77.327 Q 369.566 77.327 369.566 77.183 Q 369.59 75.045 371.019 73.591 Q 372.473 72.114 374.479 72.114 Q 376.653 72.114 378.142 73.603 L 378.13 73.603 Q 379.608 75.081 379.608 77.159 Q 379.608 78.06 379.344 78.828 Q 379.079 79.597 378.551 80.258 L 378.551 80.246 Q 377.866 81.111 377.205 81.939 Q 376.545 82.768 375.884 83.591 Q 375.224 84.414 374.563 85.237 Q 373.902 86.06 373.218 86.924 L 379.464 86.924 Q 379.608 86.924 379.608 87.068 L 379.608 89.507 Q 379.608 89.651 379.464 89.651 Z"/>
  </g>
</svg>