<?xml version="1.0" encoding="utf-8"?>
<svg viewBox="0 0 323.14914 200" xmlns="http://www.w3.org/2000/svg">
  <g id="layer1" transform="matrix(0.9999999999999999, 0, 0, 0.9999999999999999, -303.4596862792969, -22.960700988769517)">
    <path id="rect15575" style="opacity:1;fill:#0a9646;fill-opacity:1;fill-rule:evenodd;stroke-width:0.0420687;stroke-linecap:square;stroke-miterlimit:10;paint-order:stroke fill markers" d="M 303.45966,22.960701 H 626.6088 V 222.9607 H 303.45966 Z"/>
    <path transform="matrix(0.26458333,0,0,0.26458333,303.45966,22.960701)" d="m 30.353516,5.0117188 c -13.808655,0 -25.0781254,11.2674112 -25.0781254,25.0761722 v 332.957029 47.1211 49.04296 13.88672 252.45508 c 0,13.80862 11.2694704,25.06641 25.0781254,25.06641 H 1190.9805 c 13.8086,0 25.0781,-11.25779 25.0781,-25.06641 V 473.0957 459.57031 401.94727 363.04492 30.087891 c 0,-13.808761 -11.2695,-25.0761722 -25.0781,-25.0761722 z m 0,9.4511722 H 1190.9805 c 8.7398,0 15.6425,6.885058 15.6425,15.625 v 332.957029 38.90235 c 0,0.29959 -0.013,0.61475 -0.037,0.9375 v 7.20703 c 0,8.68754 -6.9941,15.68164 -15.6816,15.68164 h -8.0762 c -0.1869,0.007 -0.3766,0.0176 -0.5586,0.0176 H 38.023438 c -0.18105,0 -0.371847,-0.0102 -0.560547,-0.0176 h -7.097657 c -8.687546,0 -15.68164,-6.9941 -15.68164,-15.68164 V 30.152344 c 0,-1.658433 0.257595,-3.253829 0.730468,-4.751953 0.01365,-0.04461 0.03284,-0.08643 0.04688,-0.13086 1.99686,-6.321925 7.84094,-10.80664 14.892578,-10.80664 z M 30.28125,435.30469 h 6.958984 1145.628866 8.1172 c 8.6414,0 15.5996,6.95633 15.5996,15.59765 v 7.5918 c 0.024,0.37296 0.037,0.7339 0.037,1.07617 v 13.52539 252.45508 c 0,5.47634 -2.7106,10.22208 -6.8847,13.00391 -2.4923,1.6862 -5.5034,2.66992 -8.752,2.66992 H 30.28125 c -8.641361,0 -15.597656,-6.9563 -15.597656,-15.59766 V 450.90234 c 0,-8.64132 6.956295,-15.59765 15.597656,-15.59765 z" style="color:#000000;font-style:normal;font-variant:normal;font-weight:normal;font-stretch:normal;font-size:medium;line-height:normal;font-family:sans-serif;font-variant-ligatures:normal;font-variant-position:normal;font-variant-caps:normal;font-variant-numeric:normal;font-variant-alternates:normal;font-variant-east-asian:normal;font-feature-settings:normal;font-variation-settings:normal;text-indent:0;text-align:start;text-decoration:none;text-decoration-line:none;text-decoration-style:solid;text-decoration-color:#000000;letter-spacing:normal;word-spacing:normal;text-transform:none;writing-mode:lr-tb;direction:ltr;text-orientation:mixed;dominant-baseline:auto;baseline-shift:baseline;text-anchor:start;white-space:normal;shape-padding:0;shape-margin:0;inline-size:0;clip-rule:nonzero;display:inline;overflow:visible;visibility:visible;opacity:1;isolation:auto;mix-blend-mode:normal;color-interpolation:sRGB;color-interpolation-filters:linearRGB;solid-color:#000000;solid-opacity:1;vector-effect:none;fill:#ffffff;fill-opacity:1;fill-rule:evenodd;stroke:none;stroke-width:2.09199;stroke-linecap:square;stroke-linejoin:miter;stroke-miterlimit:10;stroke-dasharray:none;stroke-dashoffset:0;stroke-opacity:1;paint-order:stroke fill markers;color-rendering:auto;image-rendering:auto;shape-rendering:auto;text-rendering:auto;enable-background:accumulate;stop-color:#000000;stop-opacity:1" id="path15582"/>
    <path d="m 324.12038,67.193614 h 60.89334 v 27.821331 h -60.89334 z" style="opacity:1;fill:#ffd70f;fill-opacity:1;fill-rule:evenodd;stroke:none;stroke-width:0.553508;stroke-linecap:square;stroke-miterlimit:10;stroke-dasharray:none;stroke-opacity:1;paint-order:stroke fill markers" id="rect15605"/>
    <path id="path15631" d="m 326.18273,67.759747 c -0.81115,0 -1.47443,0.660164 -1.47443,1.471307 v 23.746432 c 0,0.811142 0.66328,1.471323 1.47443,1.471323 h 56.7905 c 0.81117,0 1.4744,-0.660181 1.4744,-1.471323 V 69.231054 c 0,-0.811143 -0.66328,-1.471307 -1.4744,-1.471307 z m 0,0.535017 h 56.7905 c 0.52266,0 0.93627,0.413622 0.93627,0.93629 v 23.746432 c 0,0.522654 -0.41353,0.933189 -0.93627,0.933189 h -56.7905 c -0.52266,0 -0.93628,-0.410555 -0.93628,-0.933189 V 69.231054 c 0,-0.522672 0.41354,-0.93629 0.93628,-0.93629 z" style="color:#000000;font-style:normal;font-variant:normal;font-weight:normal;font-stretch:normal;font-size:medium;line-height:normal;font-family:sans-serif;font-variant-ligatures:normal;font-variant-position:normal;font-variant-caps:normal;font-variant-numeric:normal;font-variant-alternates:normal;font-variant-east-asian:normal;font-feature-settings:normal;font-variation-settings:normal;text-indent:0;text-align:start;text-decoration:none;text-decoration-line:none;text-decoration-style:solid;text-decoration-color:#000000;letter-spacing:normal;word-spacing:normal;text-transform:none;writing-mode:lr-tb;direction:ltr;text-orientation:mixed;dominant-baseline:auto;baseline-shift:baseline;text-anchor:start;white-space:normal;shape-padding:0;shape-margin:0;inline-size:0;clip-rule:nonzero;display:inline;overflow:visible;visibility:visible;opacity:1;isolation:auto;mix-blend-mode:normal;color-interpolation:sRGB;color-interpolation-filters:linearRGB;solid-color:#000000;solid-opacity:1;vector-effect:none;fill:#000000;fill-opacity:1;fill-rule:evenodd;stroke:none;stroke-width:0.119062;stroke-linecap:square;stroke-linejoin:miter;stroke-miterlimit:10;stroke-dasharray:none;stroke-dashoffset:0;stroke-opacity:1;paint-order:stroke fill markers;color-rendering:auto;image-rendering:auto;shape-rendering:auto;text-rendering:auto;enable-background:accumulate;stop-color:#000000;stop-opacity:1"/>
    <path d="m 336.88947,72.205604 c -1.36961,0 -2.51552,0.330332 -3.43646,0.991507 -0.91309,0.653335 -1.5737,1.361798 -1.98303,2.125328 -0.14189,0.267612 -0.264,0.538688 -0.36613,0.814199 -0.10264,0.275473 -0.18065,0.564078 -0.23555,0.86321 -0.0552,0.299089 -0.0954,0.774434 -0.11873,1.427765 -0.0223,0.653332 -0.0362,1.495435 -0.0362,2.5266 0,2.062321 0.0516,3.383536 0.15387,3.966025 0.0552,0.299136 0.13326,0.587702 0.23556,0.863193 0.10264,0.267612 0.22467,0.534915 0.36612,0.802543 0.40948,0.771411 1.06995,1.479875 1.983,2.125324 0.92887,0.653346 2.07472,0.979855 3.43649,0.979855 0.74779,0 1.44489,-0.107189 2.09034,-0.319632 0.64544,-0.212556 1.24303,-0.525333 1.79403,-0.942508 1.1335,-0.865864 1.86473,-2.103628 2.19533,-3.709419 0.0139,-0.04714 0.009,-0.08518 -0.0223,-0.116745 -0.0315,-0.03928 -0.0694,-0.05829 -0.11656,-0.05829 h -2.70394 c -0.0223,1.5e-5 -0.0488,0.01117 -0.0722,0.03521 -0.0223,0.01589 -0.0451,0.0307 -0.0582,0.0467 -0.70836,1.487712 -1.74338,2.232636 -3.10515,2.232636 -0.59037,0 -1.09454,-0.11468 -1.51174,-0.342928 -0.41713,-0.236167 -0.75132,-0.520933 -1.00317,-0.851551 -0.14189,-0.181028 -0.27124,-0.389065 -0.3896,-0.625222 -0.11008,-0.244 -0.19597,-0.488524 -0.25924,-0.732545 -0.0628,-0.267611 -0.10709,-0.67614 -0.13048,-1.227141 -0.0223,-0.558871 -0.0359,-1.267326 -0.0359,-2.125325 0,-0.842249 0.009,-1.543133 0.0359,-2.102004 0.0223,-0.55887 0.0677,-0.97117 0.13048,-1.238798 0.0627,-0.251917 0.14857,-0.496392 0.25924,-0.732549 0.11009,-0.244 0.24028,-0.45965 0.3896,-0.64857 0.252,-0.30699 0.58598,-0.580386 1.00317,-0.816526 0.41715,-0.236167 0.92137,-0.352269 1.51174,-0.352269 0.79503,1.7e-5 1.45185,0.230844 1.97135,0.695231 0.27541,0.236167 0.50863,0.492045 0.69757,0.767539 0.18872,0.267667 0.33407,0.560022 0.4361,0.874867 0.0167,0.06294 0.0599,0.09333 0.13046,0.09333 h 2.7039 c 0.0468,0 0.0854,-0.01589 0.11658,-0.0467 0.0315,-0.03161 0.0407,-0.07184 0.0223,-0.118954 -0.25952,-1.393235 -0.93175,-2.595995 -2.01801,-3.611427 -1.07052,-1.007535 -2.42438,-1.511744 -4.0617,-1.511744 z m 27.73422,0.104956 c -1.28304,0 -2.4213,0.437369 -3.41313,1.311121 -0.99967,0.858 -1.50005,2.08205 -1.50005,3.672071 v 7.425818 c 0,1.590021 0.50038,2.814088 1.50005,3.672088 0.99183,0.865851 2.13009,1.299446 3.41313,1.299446 1.28303,0 2.42133,-0.433578 3.41313,-1.299446 1.00756,-0.86587 1.50938,-2.089917 1.50938,-3.672088 v -7.425818 c 0,-0.787127 -0.1299,-1.484222 -0.38959,-2.09033 -0.252,-0.613979 -0.62389,-1.140934 -1.11979,-1.581741 -0.49592,-0.425045 -1.03279,-0.74779 -1.6074,-0.968177 -0.56674,-0.22825 -1.16816,-0.342924 -1.80573,-0.342924 z m -21.12261,0.03521 c -0.0943,0 -0.14217,0.04776 -0.14217,0.142392 v 2.279298 c 0,0.09444 0.0479,0.142197 0.14217,0.142197 h 4.49793 V 89.409 c 0,0.09444 0.0479,0.139995 0.14217,0.139995 h 2.5616 c 0.0945,0 0.14217,-0.04555 0.14217,-0.139995 V 74.909653 h 4.48625 c 0.0943,0 0.14217,-0.04778 0.14217,-0.142196 v -2.279299 c 0,-0.09444 -0.0479,-0.142392 -0.14217,-0.142392 z m 31.22667,0.118953 -2.43331,1.759064 c -0.0139,0.01589 -0.0315,0.03477 -0.0466,0.05829 -0.009,0.02341 -0.0139,0.04468 -0.0139,0.06068 v 2.561593 c 0,0.06294 0.0278,0.110694 0.0728,0.142196 0.0468,0.02343 0.0989,0.01617 0.15388,-0.02343 0.36208,-0.259778 0.7228,-0.523245 1.08486,-0.790886 0.36206,-0.275473 0.72509,-0.548889 1.08714,-0.816528 v 14.028096 c 0,0.09444 0.048,0.142198 0.14217,0.142198 h 2.41929 c 0.0943,0 0.13994,-0.04778 0.13994,-0.142198 V 72.606811 c 0,-0.09444 -0.0455,-0.142197 -0.13994,-0.142197 z m -10.10406,2.538257 c 0.67694,0 1.21532,0.217964 1.61673,0.650912 0.40948,0.425045 0.61359,1.018854 0.61359,1.782378 v 7.143522 c 0,0.771407 -0.20461,1.368982 -0.61359,1.794059 -0.40133,0.425045 -0.93979,0.63689 -1.61673,0.63689 -0.67695,0 -1.21527,-0.211859 -1.61671,-0.63689 -0.40134,-0.425091 -0.60428,-1.022652 -0.60428,-1.794059 v -7.143497 c 0,-0.763524 0.20266,-1.357335 0.60428,-1.782377 0.40133,-0.432946 0.93976,-0.650913 1.61671,-0.650913 z m -9.98507,11.865445 c -0.0945,0 -0.14217,0.04776 -0.14217,0.14239 v 2.398281 c 0,0.09444 0.0479,0.139994 0.14217,0.139994 h 2.40762 c 0.0867,0 0.13046,-0.04555 0.13046,-0.139994 v -2.398281 c 0,-0.09444 -0.0451,-0.14239 -0.13046,-0.14239 z" style="font-style: normal; font-variant: normal; font-weight: normal; font-stretch: normal; font-size: 15.1831px; line-height: 1.46; font-family: 'Alte DIN 1451 Mittelschrift gepraegt'; text-align: center; text-anchor: middle; opacity: 1; fill-opacity: 1; stroke-width: 0.264584; visibility: hidden;" id="path15637"/>
    <path id="path17496" style="font-size:15.1831px;line-height:1.46;font-family:'Singapore Road Signs';-inkscape-font-specification:'Singapore Road Signs';text-align:center;text-anchor:middle;opacity:1;fill:#ffffff;fill-opacity:1;stroke-width:0.0756548" d="m 570.47468,59.120043 v 50.614317 h 35.43541 V 59.120043 Z m 1.38203,1.660034 h 32.65274 v 47.566083 h -32.65274 z m 13.66823,3.646909 -2.23483,8.869719 h 3.92184 l 0.28216,-8.869719 z m 3.35329,0 0.28216,8.869719 h 3.92385 l -2.23686,-8.869719 z m -15.90932,9.992316 v 1.942234 l 3.06692,1.10806 v 0.584703 h 1.411 v -0.584703 c 0,0 2.08662,-0.313671 4.52568,-0.535349 1.95306,-0.177516 4.1317,-0.271988 5.64407,-0.278037 1.79866,-0.0063 4.45804,0.09363 6.73975,0.288436 2.51319,0.214479 4.5713,0.524984 4.5713,0.524984 v 0.5847 h 1.38199 v -0.5847 l 3.06685,-1.108064 v -1.942233 z m 9.21108,3.620663 -6.70448,26.681115 h 10.04943 l 1.39442,-26.681115 z m 7.25642,0 1.39441,26.681115 h 10.0494 l -6.70443,-26.681115 z"/>
    <g style="font-size:14.7905px;line-height:0;font-family:'Singapore Road Signs';-inkscape-font-specification:'Singapore Road Signs';text-align:center;text-anchor:middle;opacity:1;fill:#860000;fill-opacity:1;stroke-width:6.45213" id="layer1-8" transform="matrix(0.08718024,0,0,0.08718024,-145.22047,195.49013)">
      <circle style="opacity:1;fill:#f00a0a;fill-opacity:1;fill-rule:nonzero;stroke:none;stroke-width:3622.55;stroke-linecap:round;stroke-linejoin:round;stroke-miterlimit:4;stroke-dasharray:none;stroke-opacity:1;paint-order:stroke fill markers" id="path815" cx="6380.9966" cy="-193.29752" r="350"/>
      <circle cy="-193.29752" cx="6380.9966" id="circle817" style="opacity:1;fill:#ffffff;fill-opacity:1;fill-rule:nonzero;stroke:none;stroke-width:2587.55;stroke-linecap:round;stroke-linejoin:round;stroke-miterlimit:4;stroke-dasharray:none;stroke-opacity:1;paint-order:stroke fill markers" r="250"/>
      <g aria-label="20 " style="font-style:normal;font-variant:normal;font-weight:bold;font-stretch:normal;font-size:414.864px;line-height:0;font-family:Giaothong1;-inkscape-font-specification:'Giaothong1 Bold';letter-spacing:0px;word-spacing:0px;fill:#000000;fill-opacity:1;stroke:none;stroke-width:24.7849" id="text874" transform="matrix(-1,0,0,1,1299.029,-383.45)">
        <g aria-label="90" transform="translate(2310.2259,387.54849)" style="font-style:normal;font-variant:normal;font-weight:bold;font-stretch:normal;font-size:414.864px;line-height:0;font-family:Giaothong1;-inkscape-font-specification:'Giaothong1 Bold';letter-spacing:0px;word-spacing:0px;fill:#000000;fill-opacity:1;stroke:none;stroke-width:53.5539" id="text844"/>
      </g>
    </g>
    <g style="font-size:14.7905px;line-height:0;font-family:'Singapore Road Signs';-inkscape-font-specification:'Singapore Road Signs';text-align:center;text-anchor:middle;opacity:1;fill:#fff000;fill-opacity:1;stroke-width:6.45221" id="layer1-7" transform="matrix(0.08717968,0,0,0.08717968,488.77841,183.34565)">
      <circle cy="-54" cx="351" id="circle817-6" style="opacity:1;fill:#0046aa;fill-opacity:1;fill-rule:nonzero;stroke:none;stroke-width:3622.58;stroke-linecap:round;stroke-linejoin:round;stroke-miterlimit:4;stroke-dasharray:none;stroke-opacity:1;paint-order:stroke fill markers" r="350"/>
      <path id="rect984" style="font-style:normal;font-variant:normal;font-weight:bold;font-stretch:normal;font-size:414.864px;line-height:0;font-family:Giaothong1;-inkscape-font-specification:'Giaothong1 Bold';letter-spacing:0px;word-spacing:0px;opacity:1;fill:#ffffff;fill-opacity:1;fill-rule:nonzero;stroke:none;stroke-width:0.344279;stroke-linecap:round;stroke-linejoin:miter;stroke-miterlimit:10;stroke-dasharray:none;stroke-opacity:1;paint-order:stroke fill markers" d="m 851.18164,518.03906 c -16.32678,0 -29.4707,13.14393 -29.4707,29.47071 v 80.94921 c 0,16.32678 13.14392,29.47071 29.4707,29.47071 16.32678,0 29.4707,-13.14393 29.4707,-29.47071 v -80.94921 c 0,-16.32678 -13.14392,-29.47071 -29.4707,-29.47071 z m -69.94336,1.23828 -26.10937,69.75391 c -2.72781,7.40406 -3.70118,11.30112 -3.70118,28.44727 0,18.12042 0.7789,22.01697 4.67579,28.25195 5.26075,8.37828 14.22308,13.44336 24.93945,13.44336 10.91123,0 20.0688,-4.87023 25.13476,-13.44336 3.70197,-6.23498 4.48047,-10.13153 4.48047,-28.25195 0,-22.01726 -0.77798,-26.88814 -4.28515,-32.34375 -3.31232,-5.06591 -9.74347,-8.96289 -16.75782,-8.96289 -4.28653,0 -7.01308,0.77773 -8.37695,1.75195 l -0.39062,-0.38867 22.60156,-58.25782 z m 69.94336,18.74024 c 5.25853,0 9.49219,4.23365 9.49219,9.49219 v 80.94921 c 0,5.25853 -4.23366,9.49219 -9.49219,9.49219 -5.25853,0 -9.49219,-4.23366 -9.49219,-9.49219 v -80.94921 c 0,-5.25854 4.23366,-9.49219 9.49219,-9.49219 z m -70.13867,55.68945 c 5.0659,0 9.74219,3.89738 9.74219,9.9375 v 25.71875 c 0,6.04012 -4.67629,9.9375 -9.74219,9.9375 -5.0659,0 -9.74219,-3.89738 -9.74219,-9.9375 v -25.71875 c 0,-6.04012 4.67629,-9.9375 9.74219,-9.9375 z" transform="matrix(3.0349198,0,0,3.0349198,-2125.7104,-1839.7056)"/>
    </g>
    <g aria-label="6" id="text19759" style="font-size:31.1478px;line-height:1.3;font-family:'Singapore Road Signs';-inkscape-font-specification:'Singapore Road Signs';text-align:center;text-anchor:middle;stroke-width:0.159861" transform="matrix(1.6550836,0,0,1.6550836,-321.31659,-238.56049)"/>
    <path d="M 379.398 43.07 Q 379.451 43.07 379.486 43.11 Q 379.521 43.149 379.503 43.202 Q 379.134 44.995 377.869 45.962 Q 377.253 46.428 376.533 46.665 Q 375.812 46.902 374.977 46.902 Q 373.457 46.902 372.419 46.173 Q 371.4 45.452 370.943 44.591 Q 370.785 44.292 370.67 43.989 Q 370.556 43.685 370.495 43.351 Q 370.38 42.701 370.38 40.398 Q 370.38 39.247 370.407 38.517 Q 370.433 37.788 370.495 37.454 Q 370.556 37.12 370.67 36.812 Q 370.785 36.505 370.943 36.206 Q 371.4 35.353 372.419 34.624 Q 373.448 33.886 374.977 33.886 Q 376.805 33.886 378.001 35.011 Q 379.213 36.144 379.503 37.7 Q 379.521 37.753 379.486 37.788 Q 379.451 37.823 379.398 37.823 L 377.385 37.823 Q 377.306 37.823 377.289 37.753 Q 377.174 37.401 376.963 37.098 Q 376.753 36.795 376.445 36.531 Q 375.865 36.013 374.977 36.013 Q 374.318 36.013 373.852 36.276 Q 373.386 36.54 373.105 36.883 Q 372.938 37.094 372.815 37.362 Q 372.692 37.63 372.622 37.911 Q 372.551 38.21 372.525 38.834 Q 372.499 39.458 372.499 40.398 Q 372.499 41.356 372.525 41.976 Q 372.551 42.596 372.622 42.894 Q 372.692 43.167 372.819 43.435 Q 372.947 43.703 373.105 43.905 Q 373.386 44.274 373.852 44.534 Q 374.318 44.793 374.977 44.793 Q 376.498 44.793 377.289 43.132 Q 377.306 43.114 377.333 43.092 Q 377.359 43.07 377.385 43.07 Z M 379.51 46.788 Q 379.448 46.788 379.422 46.744 Q 379.396 46.7 379.413 46.647 L 384.019 34.044 Q 384.036 33.974 384.107 33.974 L 385.68 33.974 Q 385.706 33.974 385.737 33.996 Q 385.768 34.017 385.777 34.044 L 390.373 46.647 Q 390.391 46.7 390.364 46.744 Q 390.338 46.788 390.285 46.788 L 388.273 46.788 Q 388.202 46.788 388.185 46.718 L 387.236 43.94 L 382.595 43.94 Q 382.349 44.652 382.107 45.333 Q 381.865 46.015 381.619 46.718 Q 381.611 46.744 381.58 46.766 Q 381.549 46.788 381.523 46.788 Z M 386.603 42.051 Q 386.585 41.989 386.554 41.919 Q 386.524 41.849 386.506 41.796 Q 386.357 41.365 386.234 41 Q 386.111 40.636 386.014 40.363 Q 385.952 40.187 385.895 40.02 Q 385.838 39.853 385.785 39.704 Q 385.741 39.563 385.697 39.436 Q 385.654 39.309 385.61 39.185 Q 385.53 38.931 385.447 38.676 Q 385.363 38.421 385.276 38.148 Q 385.232 38.025 385.183 37.876 Q 385.135 37.726 385.082 37.559 Q 385.056 37.472 385.043 37.423 Q 385.029 37.375 385.012 37.327 Q 384.994 37.278 384.972 37.217 Q 384.95 37.155 384.915 37.041 Q 384.819 37.331 384.735 37.577 Q 384.652 37.823 384.581 38.034 Q 384.564 38.087 384.555 38.131 Q 384.546 38.175 384.529 38.219 Q 384.485 38.368 384.436 38.5 Q 384.388 38.632 384.344 38.764 Q 384.3 38.904 384.256 39.036 Q 384.212 39.168 384.168 39.291 Q 384.08 39.555 383.988 39.845 Q 383.896 40.135 383.781 40.451 Q 383.667 40.767 383.544 41.132 Q 383.421 41.497 383.228 42.051 Z M 391.121 40.398 Q 391.121 39.247 391.152 38.517 Q 391.183 37.788 391.235 37.454 Q 391.297 37.12 391.411 36.812 Q 391.525 36.505 391.692 36.206 L 391.684 36.206 Q 392.141 35.353 393.16 34.624 Q 394.189 33.886 395.718 33.886 Q 397.23 33.886 398.258 34.624 Q 399.295 35.371 399.752 36.206 Q 400.077 36.804 400.191 37.454 Q 400.253 37.788 400.284 38.517 Q 400.315 39.247 400.315 40.398 Q 400.315 42.657 400.191 43.351 Q 400.13 43.694 400.02 44.002 Q 399.91 44.309 399.761 44.591 Q 399.295 45.434 398.258 46.173 Q 397.221 46.902 395.718 46.902 Q 394.197 46.902 393.16 46.173 Q 392.141 45.452 391.684 44.591 L 391.692 44.591 Q 391.525 44.292 391.411 43.989 Q 391.297 43.685 391.235 43.351 Q 391.183 43.017 391.152 42.284 Q 391.121 41.55 391.121 40.398 Z M 393.239 40.398 Q 393.239 41.356 393.266 41.976 Q 393.292 42.596 393.362 42.894 Q 393.433 43.167 393.56 43.435 Q 393.688 43.703 393.846 43.905 Q 394.127 44.274 394.593 44.534 Q 395.059 44.793 395.718 44.793 Q 396.368 44.793 396.834 44.534 Q 397.3 44.274 397.572 43.905 Q 397.941 43.457 398.056 42.894 Q 398.196 42.332 398.196 40.398 Q 398.196 39.44 398.161 38.821 Q 398.126 38.201 398.056 37.911 Q 397.994 37.63 397.871 37.362 Q 397.748 37.094 397.581 36.883 Q 397.449 36.716 397.26 36.558 Q 397.071 36.399 396.834 36.281 Q 396.597 36.162 396.316 36.087 Q 396.034 36.013 395.718 36.013 Q 395.059 36.013 394.593 36.276 Q 394.127 36.54 393.846 36.883 Q 393.679 37.094 393.556 37.362 Q 393.433 37.63 393.362 37.911 Q 393.292 38.21 393.266 38.834 Q 393.239 39.458 393.239 40.398 Z M 406.782 46.797 Q 406.677 46.797 406.677 46.691 L 406.677 34.097 Q 406.677 33.991 406.782 33.991 L 408.69 33.991 Q 408.795 33.991 408.795 34.097 L 408.795 44.793 L 414.833 44.793 Q 414.939 44.793 414.939 44.898 L 414.939 46.691 Q 414.939 46.797 414.833 46.797 Z M 415.545 46.788 Q 415.483 46.788 415.457 46.744 Q 415.431 46.7 415.448 46.647 L 420.054 34.044 Q 420.071 33.974 420.141 33.974 L 421.715 33.974 Q 421.741 33.974 421.772 33.996 Q 421.803 34.017 421.811 34.044 L 426.408 46.647 Q 426.426 46.7 426.399 46.744 Q 426.373 46.788 426.32 46.788 L 424.307 46.788 Q 424.237 46.788 424.22 46.718 L 423.27 43.94 L 418.63 43.94 Q 418.384 44.652 418.142 45.333 Q 417.9 46.015 417.654 46.718 Q 417.645 46.744 417.615 46.766 Q 417.584 46.788 417.557 46.788 Z M 422.638 42.051 Q 422.62 41.989 422.589 41.919 Q 422.558 41.849 422.541 41.796 Q 422.391 41.365 422.268 41 Q 422.145 40.636 422.049 40.363 Q 421.987 40.187 421.93 40.02 Q 421.873 39.853 421.82 39.704 Q 421.776 39.563 421.732 39.436 Q 421.688 39.309 421.644 39.185 Q 421.565 38.931 421.482 38.676 Q 421.398 38.421 421.31 38.148 Q 421.266 38.025 421.218 37.876 Q 421.17 37.726 421.117 37.559 Q 421.091 37.472 421.078 37.423 Q 421.064 37.375 421.047 37.327 Q 421.029 37.278 421.007 37.217 Q 420.985 37.155 420.95 37.041 Q 420.853 37.331 420.77 37.577 Q 420.686 37.823 420.616 38.034 Q 420.599 38.087 420.59 38.131 Q 420.581 38.175 420.563 38.219 Q 420.519 38.368 420.471 38.5 Q 420.423 38.632 420.379 38.764 Q 420.335 38.904 420.291 39.036 Q 420.247 39.168 420.203 39.291 Q 420.115 39.555 420.023 39.845 Q 419.931 40.135 419.816 40.451 Q 419.702 40.767 419.579 41.132 Q 419.456 41.497 419.263 42.051 Z M 418.182 32.523 Q 418.076 32.523 418.094 32.418 Q 418.155 31.987 418.309 31.636 Q 418.463 31.284 418.7 31.012 Q 418.937 30.766 419.254 30.629 Q 419.57 30.493 419.922 30.493 Q 420.08 30.493 420.229 30.511 Q 420.379 30.528 420.528 30.581 Q 420.686 30.634 420.831 30.686 Q 420.976 30.739 421.073 30.774 Q 421.381 30.933 421.627 31.012 Q 421.794 31.091 422.022 31.091 Q 422.224 31.091 422.418 30.968 Q 422.585 30.853 422.655 30.467 Q 422.673 30.396 422.752 30.396 L 423.666 30.396 Q 423.78 30.396 423.763 30.502 Q 423.71 30.88 423.578 31.209 Q 423.446 31.539 423.244 31.811 Q 423.024 32.093 422.708 32.255 Q 422.391 32.418 421.978 32.427 Q 421.82 32.427 421.666 32.4 Q 421.513 32.374 421.372 32.312 L 421.381 32.312 Q 421.284 32.295 421.126 32.238 Q 420.968 32.181 420.757 32.101 Q 420.484 31.978 420.238 31.908 Q 419.992 31.838 419.755 31.829 Q 419.623 31.829 419.403 31.952 L 419.412 31.943 Q 419.192 32.084 419.192 32.435 Q 419.192 32.523 419.104 32.523 Z M 428.001 46.797 Q 427.895 46.797 427.895 46.691 L 427.895 34.097 Q 427.895 33.991 428.001 33.991 L 429.811 33.991 Q 429.864 33.991 429.899 34.044 L 435.436 42.763 L 435.436 34.097 Q 435.436 33.991 435.542 33.991 L 437.458 33.991 Q 437.563 33.991 437.563 34.097 L 437.563 46.691 Q 437.563 46.797 437.458 46.797 L 435.656 46.797 Q 435.603 46.797 435.568 46.744 L 430.013 38.025 L 430.013 46.691 Q 430.013 46.797 429.917 46.797 Z M 447.214 46.797 Q 447.108 46.797 447.108 46.691 L 447.108 41.295 L 442.318 41.295 L 442.318 46.691 Q 442.318 46.797 442.213 46.797 L 440.306 46.797 Q 440.2 46.797 440.2 46.691 L 440.2 34.097 Q 440.2 33.991 440.306 33.991 L 442.213 33.991 Q 442.318 33.991 442.318 34.097 L 442.318 39.388 L 447.108 39.388 L 447.108 34.097 Q 447.108 33.991 447.214 33.991 L 449.121 33.991 Q 449.226 33.991 449.226 34.097 L 449.226 46.691 Q 449.226 46.797 449.121 46.797 Z" transform="matrix(1.310387, 0, 0, 1.310387, -59.698296, -1.169035)" style="fill: rgb(255, 255, 255);"/>
    <path transform="matrix(1.310387, 0, 0, 1.310387, -59.698296, -1.169035)" style="fill: rgb(255, 255, 255);"/>
    <path d="M 372.591 72.357 Q 372.512 72.357 372.494 72.286 L 368.337 59.692 Q 368.319 59.639 368.346 59.595 Q 368.372 59.551 368.433 59.551 L 370.446 59.551 Q 370.525 59.551 370.543 59.63 L 373.329 68.955 Q 374.032 66.618 374.731 64.293 Q 375.43 61.968 376.124 59.63 Q 376.141 59.551 376.221 59.551 L 378.233 59.551 Q 378.295 59.551 378.321 59.595 Q 378.347 59.639 378.33 59.692 L 374.173 72.286 Q 374.155 72.357 374.076 72.357 Z M 378.494 72.348 Q 378.433 72.348 378.406 72.304 Q 378.38 72.26 378.398 72.207 L 383.003 59.604 Q 383.021 59.534 383.091 59.534 L 384.664 59.534 Q 384.691 59.534 384.721 59.556 Q 384.752 59.577 384.761 59.604 L 389.358 72.207 Q 389.375 72.26 389.349 72.304 Q 389.323 72.348 389.27 72.348 L 387.257 72.348 Q 387.187 72.348 387.169 72.278 L 386.22 69.5 L 381.579 69.5 Q 381.333 70.212 381.092 70.893 Q 380.85 71.575 380.604 72.278 Q 380.595 72.304 380.564 72.326 Q 380.533 72.348 380.507 72.348 Z M 385.587 67.611 Q 385.57 67.549 385.539 67.479 Q 385.508 67.409 385.49 67.356 Q 385.341 66.925 385.218 66.56 Q 385.095 66.196 384.998 65.923 Q 384.937 65.747 384.88 65.58 Q 384.823 65.413 384.77 65.264 Q 384.726 65.123 384.682 64.996 Q 384.638 64.869 384.594 64.745 Q 384.515 64.491 384.431 64.236 Q 384.348 63.981 384.26 63.708 Q 384.216 63.585 384.168 63.436 Q 384.119 63.286 384.067 63.119 Q 384.04 63.032 384.027 62.983 Q 384.014 62.935 383.996 62.887 Q 383.979 62.838 383.957 62.777 Q 383.935 62.715 383.9 62.601 Q 383.803 62.891 383.719 63.137 Q 383.636 63.383 383.566 63.594 Q 383.548 63.647 383.539 63.691 Q 383.531 63.735 383.513 63.779 Q 383.469 63.928 383.421 64.06 Q 383.372 64.192 383.328 64.324 Q 383.284 64.464 383.24 64.596 Q 383.197 64.728 383.153 64.851 Q 383.065 65.115 382.972 65.405 Q 382.88 65.695 382.766 66.011 Q 382.652 66.327 382.529 66.692 Q 382.406 67.057 382.212 67.611 Z M 384.427 58.417 Q 384.409 58.417 384.383 58.404 Q 384.357 58.391 384.348 58.382 L 381.922 55.816 Q 381.869 55.763 381.9 55.702 Q 381.931 55.64 382.001 55.64 L 383.935 55.64 Q 383.988 55.64 384.023 55.693 L 385.86 58.259 Q 385.886 58.321 385.864 58.369 Q 385.842 58.417 385.772 58.417 Z M 390.959 72.357 Q 390.854 72.357 390.854 72.251 L 390.854 59.657 Q 390.854 59.551 390.959 59.551 L 392.761 59.551 Q 392.822 59.551 392.858 59.613 L 396.382 67.602 Q 397.234 65.589 398.096 63.607 Q 398.957 61.625 399.818 59.613 Q 399.845 59.551 399.915 59.551 L 401.717 59.551 Q 401.822 59.551 401.822 59.657 L 401.822 72.251 Q 401.822 72.357 401.717 72.357 L 399.81 72.357 Q 399.704 72.357 399.704 72.251 L 399.704 64.816 Q 399.089 66.248 398.465 67.663 Q 397.841 69.078 397.234 70.502 Q 397.199 70.555 397.138 70.555 L 395.547 70.555 Q 395.485 70.555 395.45 70.502 L 392.972 64.798 L 392.972 72.251 Q 392.972 72.357 392.866 72.357 Z M 417.395 68.63 Q 417.447 68.63 417.482 68.67 Q 417.518 68.709 417.5 68.762 Q 417.131 70.555 415.865 71.522 Q 415.25 71.988 414.529 72.225 Q 413.809 72.462 412.974 72.462 Q 411.453 72.462 410.416 71.733 Q 409.396 71.012 408.939 70.151 Q 408.781 69.852 408.667 69.549 Q 408.553 69.245 408.491 68.911 Q 408.377 68.261 408.377 65.958 Q 408.377 64.807 408.403 64.077 Q 408.43 63.348 408.491 63.014 Q 408.553 62.68 408.667 62.372 Q 408.781 62.065 408.939 61.766 Q 409.396 60.913 410.416 60.184 Q 411.444 59.446 412.974 59.446 Q 414.802 59.446 415.997 60.571 Q 417.21 61.704 417.5 63.26 Q 417.518 63.313 417.482 63.348 Q 417.447 63.383 417.395 63.383 L 415.382 63.383 Q 415.303 63.383 415.285 63.313 Q 415.171 62.961 414.96 62.658 Q 414.749 62.355 414.441 62.091 Q 413.861 61.573 412.974 61.573 Q 412.314 61.573 411.849 61.836 Q 411.383 62.1 411.102 62.443 Q 410.935 62.654 410.811 62.922 Q 410.688 63.19 410.618 63.471 Q 410.548 63.77 410.521 64.394 Q 410.495 65.018 410.495 65.958 Q 410.495 66.916 410.521 67.536 Q 410.548 68.156 410.618 68.454 Q 410.688 68.727 410.816 68.995 Q 410.943 69.263 411.102 69.465 Q 411.383 69.834 411.849 70.094 Q 412.314 70.353 412.974 70.353 Q 414.494 70.353 415.285 68.692 Q 415.303 68.674 415.329 68.652 Q 415.355 68.63 415.382 68.63 Z M 419.978 58.417 Q 419.899 58.417 419.877 58.351 Q 419.855 58.285 419.917 58.242 L 422.501 56.194 L 423.678 56.194 L 426.297 58.242 Q 426.359 58.285 426.337 58.351 Q 426.315 58.417 426.245 58.417 L 424.759 58.417 L 423.01 57.477 Q 422.624 57.714 422.228 57.952 Q 421.833 58.189 421.446 58.417 Z M 418.422 65.853 Q 418.422 64.702 418.453 63.972 Q 418.484 63.243 418.537 62.909 Q 418.598 62.575 418.713 62.267 Q 418.827 61.959 418.994 61.66 L 418.985 61.66 Q 419.442 60.808 420.462 60.078 Q 421.49 59.34 423.019 59.34 Q 424.531 59.34 425.559 60.078 Q 426.596 60.826 427.053 61.66 Q 427.379 62.258 427.493 62.909 Q 427.554 63.243 427.585 63.972 Q 427.616 64.702 427.616 65.853 Q 427.616 68.112 427.493 68.806 Q 427.431 69.149 427.321 69.456 Q 427.212 69.764 427.062 70.045 Q 426.596 70.889 425.559 71.627 Q 424.522 72.357 423.019 72.357 Q 421.499 72.357 420.462 71.627 Q 419.442 70.907 418.985 70.045 L 418.994 70.045 Q 418.827 69.746 418.713 69.443 Q 418.598 69.14 418.537 68.806 Q 418.484 68.472 418.453 67.738 Q 418.422 67.004 418.422 65.853 Z M 420.541 65.853 Q 420.541 66.811 420.567 67.431 Q 420.593 68.05 420.664 68.349 Q 420.734 68.621 420.861 68.89 Q 420.989 69.158 421.147 69.36 Q 421.428 69.729 421.894 69.988 Q 422.36 70.247 423.019 70.247 Q 423.67 70.247 424.135 69.988 Q 424.601 69.729 424.874 69.36 Q 425.243 68.911 425.357 68.349 Q 425.498 67.786 425.498 65.853 Q 425.498 64.895 425.463 64.275 Q 425.427 63.656 425.357 63.366 Q 425.296 63.084 425.172 62.816 Q 425.049 62.548 424.882 62.337 Q 424.751 62.17 424.562 62.012 Q 424.373 61.854 424.135 61.735 Q 423.898 61.617 423.617 61.542 Q 423.336 61.467 423.019 61.467 Q 422.36 61.467 421.894 61.731 Q 421.428 61.994 421.147 62.337 Q 420.98 62.548 420.857 62.816 Q 420.734 63.084 420.664 63.366 Q 420.593 63.664 420.567 64.288 Q 420.541 64.912 420.541 65.853 Z M 424.786 56.932 Q 424.715 56.932 424.693 56.884 Q 424.672 56.835 424.698 56.774 L 426.535 54.207 Q 426.57 54.155 426.623 54.155 L 428.556 54.155 Q 428.627 54.155 428.657 54.216 Q 428.688 54.278 428.635 54.33 L 426.21 56.897 Q 426.201 56.906 426.174 56.919 Q 426.148 56.932 426.13 56.932 Z M 429.884 72.357 Q 429.778 72.357 429.778 72.251 L 429.778 59.657 Q 429.778 59.551 429.884 59.551 L 431.694 59.551 Q 431.747 59.551 431.782 59.604 L 437.319 68.323 L 437.319 59.657 Q 437.319 59.551 437.425 59.551 L 439.341 59.551 Q 439.446 59.551 439.446 59.657 L 439.446 72.251 Q 439.446 72.357 439.341 72.357 L 437.539 72.357 Q 437.486 72.357 437.451 72.304 L 431.896 63.585 L 431.896 72.251 Q 431.896 72.357 431.8 72.357 Z M 446.275 67.233 Q 446.17 67.233 446.17 67.127 L 446.17 65.317 Q 446.17 65.22 446.275 65.22 L 450.749 65.22 Q 450.855 65.22 450.855 65.317 L 450.855 67.883 Q 450.855 69.826 449.519 71.135 Q 448.165 72.462 446.258 72.462 Q 444.737 72.462 443.7 71.733 Q 442.681 71.012 442.224 70.151 L 442.233 70.151 Q 442.066 69.852 441.951 69.549 Q 441.837 69.245 441.775 68.911 Q 441.723 68.577 441.692 67.844 Q 441.661 67.11 441.661 65.958 Q 441.661 64.807 441.692 64.077 Q 441.723 63.348 441.775 63.014 Q 441.837 62.68 441.951 62.372 Q 442.066 62.065 442.233 61.766 L 442.224 61.766 Q 442.681 60.913 443.7 60.184 Q 444.729 59.446 446.258 59.446 Q 448.086 59.446 449.281 60.571 Q 450.494 61.696 450.784 63.26 Q 450.802 63.313 450.767 63.348 Q 450.732 63.383 450.679 63.383 L 448.666 63.383 Q 448.587 63.383 448.569 63.313 Q 448.455 62.961 448.244 62.658 Q 448.033 62.355 447.726 62.091 Q 447.146 61.573 446.258 61.573 Q 445.599 61.573 445.133 61.836 Q 444.667 62.1 444.386 62.443 Q 444.219 62.654 444.096 62.922 Q 443.973 63.19 443.902 63.471 Q 443.832 63.77 443.806 64.394 Q 443.779 65.018 443.779 65.958 Q 443.779 66.916 443.806 67.536 Q 443.832 68.156 443.902 68.454 Q 443.973 68.727 444.1 68.995 Q 444.228 69.263 444.386 69.465 Q 444.667 69.834 445.133 70.094 Q 445.599 70.353 446.258 70.353 Q 447.304 70.353 448.016 69.641 Q 448.736 68.929 448.736 67.778 L 448.736 67.233 Z" transform="matrix(1.310387, 0, 0, 1.310387, -59.698296, -1.169035)" style="fill: rgb(255, 255, 255);"/>
    <path d="M 426.152 119.118 Q 426.045 119.118 426.045 119.011 L 426.045 106.277 Q 426.045 106.17 426.152 106.17 L 434.292 106.17 Q 434.399 106.17 434.399 106.277 L 434.399 108.107 Q 434.399 108.214 434.292 108.214 L 428.187 108.214 L 428.187 111.626 L 433.377 111.626 Q 433.484 111.626 433.484 111.733 L 433.484 113.457 Q 433.484 113.555 433.377 113.555 L 428.187 113.555 L 428.187 117.092 L 434.292 117.092 Q 434.399 117.092 434.399 117.198 L 434.399 119.011 Q 434.399 119.118 434.292 119.118 Z M 442.572 119.118 Q 442.519 119.118 442.483 119.065 L 439.781 114.479 Q 439.106 115.634 438.431 116.772 Q 437.755 117.909 437.08 119.065 Q 437.044 119.118 436.991 119.118 L 434.814 119.118 Q 434.743 119.118 434.716 119.069 Q 434.689 119.02 434.725 118.958 L 438.591 112.48 Q 437.675 110.933 436.778 109.405 Q 435.88 107.876 434.974 106.33 Q 434.938 106.268 434.965 106.219 Q 434.992 106.17 435.054 106.17 L 437.24 106.17 Q 437.293 106.17 437.329 106.223 L 439.781 110.489 Q 440.395 109.422 441.008 108.361 Q 441.621 107.299 442.234 106.223 Q 442.27 106.17 442.323 106.17 L 444.509 106.17 Q 444.571 106.17 444.598 106.219 Q 444.625 106.268 444.589 106.33 L 440.972 112.48 Q 441.95 114.106 442.91 115.719 Q 443.869 117.332 444.847 118.958 Q 444.882 119.02 444.856 119.069 Q 444.829 119.118 444.758 119.118 Z M 448.149 108.214 L 448.149 112.106 L 450.913 112.106 Q 451.935 112.106 452.433 111.493 Q 452.939 110.898 452.939 110.16 Q 452.939 109.058 452.157 108.552 Q 451.65 108.214 450.842 108.214 Z M 446.114 119.118 Q 446.007 119.118 446.007 119.011 L 446.007 106.277 Q 446.007 106.17 446.114 106.17 L 450.735 106.17 Q 451.499 106.17 452.184 106.33 Q 452.877 106.49 453.659 107.094 Q 453.961 107.334 454.214 107.65 Q 454.468 107.965 454.672 108.347 Q 454.867 108.738 454.974 109.209 Q 455.081 109.68 455.081 110.213 Q 455.081 111.609 454.032 112.879 Q 452.983 114.141 450.984 114.141 L 448.149 114.141 L 448.149 119.011 Q 448.149 119.118 448.042 119.118 Z M 458.768 108.098 L 458.768 111.751 L 461.585 111.751 Q 462.616 111.751 463.131 111.182 Q 463.647 110.613 463.647 109.831 Q 463.647 109.387 463.491 109.04 Q 463.336 108.694 463.042 108.472 Q 462.785 108.294 462.442 108.196 Q 462.1 108.098 461.7 108.098 Z M 456.733 119.118 Q 456.626 119.118 456.626 119.011 L 456.626 106.277 Q 456.626 106.17 456.733 106.17 L 461.718 106.17 Q 462.545 106.17 463.211 106.397 Q 463.878 106.623 464.375 107.041 Q 464.633 107.281 464.869 107.587 Q 465.104 107.894 465.286 108.249 Q 465.468 108.605 465.575 109.005 Q 465.682 109.405 465.682 109.831 Q 465.682 110.462 465.504 111.027 Q 465.326 111.591 465.006 112.08 Q 464.677 112.533 464.242 112.875 Q 463.807 113.217 463.256 113.422 Q 463.975 114.799 464.704 116.19 Q 465.433 117.58 466.153 118.958 Q 466.179 119.02 466.153 119.069 Q 466.126 119.118 466.064 119.118 L 463.771 119.118 Q 463.744 119.118 463.718 119.096 Q 463.691 119.073 463.673 119.056 L 461.069 113.679 L 458.768 113.679 L 458.768 119.011 Q 458.768 119.118 458.661 119.118 Z M 467.66 119.118 Q 467.554 119.118 467.554 119.011 L 467.554 106.277 Q 467.554 106.17 467.66 106.17 L 475.801 106.17 Q 475.907 106.17 475.907 106.277 L 475.907 108.107 Q 475.907 108.214 475.801 108.214 L 469.695 108.214 L 469.695 111.626 L 474.885 111.626 Q 474.992 111.626 474.992 111.733 L 474.992 113.457 Q 474.992 113.555 474.885 113.555 L 469.695 113.555 L 469.695 117.092 L 475.801 117.092 Q 475.907 117.092 475.907 117.198 L 475.907 119.011 Q 475.907 119.118 475.801 119.118 Z M 477.682 115.848 Q 477.708 115.812 477.753 115.812 Q 477.797 115.812 477.833 115.839 Q 478.535 116.407 479.446 116.75 Q 480.357 117.092 481.37 117.092 Q 482.507 117.092 483.165 116.621 Q 483.787 116.168 483.787 115.421 Q 483.787 114.017 482.214 113.804 L 482.223 113.804 Q 482.001 113.777 481.801 113.75 Q 481.601 113.724 481.401 113.697 Q 481.201 113.67 480.992 113.639 Q 480.783 113.608 480.534 113.573 Q 479.699 113.457 479.046 113.15 Q 478.393 112.844 477.948 112.337 Q 477.504 111.822 477.282 111.213 Q 477.06 110.604 477.06 109.885 Q 477.06 108.196 478.179 107.139 Q 479.308 106.063 481.316 106.063 Q 481.912 106.063 482.476 106.166 Q 483.04 106.268 483.569 106.445 Q 484.098 106.623 484.582 106.868 Q 485.067 107.112 485.511 107.405 Q 485.6 107.467 485.538 107.556 L 484.462 109.147 Q 484.4 109.227 484.32 109.174 Q 483.627 108.738 482.845 108.476 Q 482.063 108.214 481.228 108.214 Q 480.801 108.214 480.437 108.316 Q 480.072 108.418 479.779 108.649 Q 479.201 109.067 479.201 109.92 Q 479.201 110.409 479.592 110.871 Q 479.788 111.084 480.117 111.231 Q 480.445 111.378 480.925 111.449 Q 481.183 111.493 481.53 111.542 Q 481.876 111.591 482.347 111.644 Q 484.169 111.866 485.049 112.986 Q 485.929 114.079 485.929 115.421 Q 485.929 117.216 484.676 118.229 Q 483.414 119.225 481.352 119.225 Q 478.446 119.225 476.411 117.447 Q 476.375 117.421 476.375 117.376 Q 476.375 117.332 476.402 117.296 Z M 487.952 115.848 Q 487.978 115.812 488.023 115.812 Q 488.067 115.812 488.103 115.839 Q 488.805 116.407 489.716 116.75 Q 490.627 117.092 491.64 117.092 Q 492.777 117.092 493.435 116.621 Q 494.057 116.168 494.057 115.421 Q 494.057 114.017 492.484 113.804 L 492.493 113.804 Q 492.271 113.777 492.071 113.75 Q 491.871 113.724 491.671 113.697 Q 491.471 113.67 491.262 113.639 Q 491.053 113.608 490.804 113.573 Q 489.969 113.457 489.316 113.15 Q 488.663 112.844 488.218 112.337 Q 487.774 111.822 487.552 111.213 Q 487.33 110.604 487.33 109.885 Q 487.33 108.196 488.449 107.139 Q 489.578 106.063 491.586 106.063 Q 492.182 106.063 492.746 106.166 Q 493.311 106.268 493.839 106.445 Q 494.368 106.623 494.852 106.868 Q 495.337 107.112 495.781 107.405 Q 495.87 107.467 495.808 107.556 L 494.732 109.147 Q 494.67 109.227 494.59 109.174 Q 493.897 108.738 493.115 108.476 Q 492.333 108.214 491.498 108.214 Q 491.071 108.214 490.707 108.316 Q 490.342 108.418 490.049 108.649 Q 489.471 109.067 489.471 109.92 Q 489.471 110.409 489.862 110.871 Q 490.058 111.084 490.387 111.231 Q 490.716 111.378 491.195 111.449 Q 491.453 111.493 491.8 111.542 Q 492.146 111.591 492.617 111.644 Q 494.439 111.866 495.319 112.986 Q 496.199 114.079 496.199 115.421 Q 496.199 117.216 494.946 118.229 Q 493.684 119.225 491.622 119.225 Q 488.716 119.225 486.681 117.447 Q 486.645 117.421 486.645 117.376 Q 486.645 117.332 486.672 117.296 Z M 500.204 119.118 Q 500.115 119.118 500.097 119.038 L 496.907 106.303 Q 496.889 106.25 496.924 106.21 Q 496.96 106.17 497.013 106.17 L 499.057 106.17 Q 499.146 106.17 499.164 106.25 L 501.083 114.95 Q 501.67 112.764 502.265 110.604 Q 502.861 108.445 503.456 106.25 Q 503.474 106.17 503.563 106.17 L 504.958 106.17 Q 505.038 106.17 505.056 106.25 L 507.437 114.95 Q 507.917 112.764 508.397 110.604 Q 508.877 108.445 509.357 106.25 Q 509.375 106.17 509.464 106.17 L 511.508 106.17 Q 511.561 106.17 511.596 106.21 Q 511.632 106.25 511.614 106.303 L 508.424 119.038 Q 508.406 119.118 508.317 119.118 L 506.709 119.118 Q 506.629 119.118 506.611 119.038 L 504.256 110.196 Q 503.669 112.426 503.083 114.621 Q 502.496 116.816 501.91 119.038 Q 501.892 119.118 501.812 119.118 Z M 511.528 119.109 Q 511.466 119.109 511.439 119.065 Q 511.412 119.02 511.43 118.967 L 516.087 106.223 Q 516.104 106.152 516.175 106.152 L 517.766 106.152 Q 517.793 106.152 517.824 106.174 Q 517.855 106.197 517.864 106.223 L 522.512 118.967 Q 522.529 119.02 522.503 119.065 Q 522.476 119.109 522.423 119.109 L 520.388 119.109 Q 520.317 119.109 520.299 119.038 L 519.339 116.23 L 514.647 116.23 Q 514.398 116.95 514.154 117.638 Q 513.909 118.327 513.661 119.038 Q 513.652 119.065 513.621 119.087 Q 513.589 119.109 513.563 119.109 Z M 518.699 114.319 Q 518.682 114.257 518.65 114.186 Q 518.619 114.115 518.602 114.061 Q 518.45 113.626 518.326 113.257 Q 518.202 112.888 518.104 112.613 Q 518.042 112.435 517.984 112.266 Q 517.926 112.097 517.873 111.946 Q 517.828 111.804 517.784 111.675 Q 517.74 111.546 517.695 111.422 Q 517.615 111.164 517.531 110.907 Q 517.446 110.649 517.357 110.373 Q 517.313 110.249 517.264 110.098 Q 517.215 109.947 517.162 109.778 Q 517.135 109.689 517.122 109.64 Q 517.109 109.591 517.091 109.542 Q 517.073 109.494 517.051 109.431 Q 517.029 109.369 516.993 109.254 Q 516.895 109.547 516.811 109.796 Q 516.726 110.045 516.655 110.258 Q 516.638 110.311 516.629 110.356 Q 516.62 110.4 516.602 110.444 Q 516.558 110.596 516.509 110.729 Q 516.46 110.862 516.415 110.995 Q 516.371 111.138 516.327 111.271 Q 516.282 111.404 516.238 111.529 Q 516.149 111.795 516.056 112.089 Q 515.962 112.382 515.847 112.702 Q 515.731 113.022 515.607 113.39 Q 515.482 113.759 515.287 114.319 Z M 525.493 119.118 Q 525.395 119.118 525.395 119.011 L 525.395 113.804 Q 524.435 111.929 523.484 110.062 Q 522.533 108.196 521.582 106.321 Q 521.556 106.259 521.582 106.214 Q 521.609 106.17 521.68 106.17 L 523.706 106.17 Q 523.733 106.17 523.76 106.192 Q 523.786 106.214 523.804 106.232 L 526.417 111.689 Q 527.074 110.311 527.719 108.96 Q 528.363 107.61 529.021 106.232 Q 529.038 106.214 529.065 106.192 Q 529.092 106.17 529.118 106.17 L 531.153 106.17 Q 531.224 106.17 531.251 106.214 Q 531.278 106.259 531.251 106.321 L 527.43 113.804 L 527.43 119.011 Q 527.43 119.118 527.323 119.118 Z" style="fill: rgb(255, 255, 255);"/>
    <path d="M 409.621 185.664 Q 409.621 186.76 409.073 187.953 Q 408.525 189.146 407.296 189.995 Q 406.068 190.843 404.618 190.843 Q 403.063 190.843 401.764 190.048 Q 400.465 189.252 399.987 188.262 Q 399.51 187.273 399.404 186.619 Q 399.298 185.965 399.298 185.275 L 399.298 181.033 Q 399.298 180.061 399.749 179.283 Q 400.199 178.505 401.03 177.887 Q 399.298 176.579 399.298 174.299 L 399.298 171.046 Q 399.298 170.357 399.572 169.65 Q 399.846 168.943 400.871 167.608 Q 401.896 166.274 404.548 166.274 Q 405.555 166.274 406.465 166.689 Q 407.376 167.105 408.498 168.28 Q 409.621 169.455 409.621 171.453 L 409.621 174.564 Q 409.621 176.649 407.871 177.887 Q 409.621 179.089 409.621 181.298 Z M 404.477 169.703 Q 403.717 169.703 403.213 170.215 Q 402.709 170.728 402.709 171.453 L 402.709 174.564 Q 402.709 175.394 403.16 175.987 Q 403.611 176.579 404.442 176.579 Q 405.343 176.579 405.758 176.022 Q 406.174 175.465 406.174 174.564 L 406.174 171.453 Q 406.174 170.763 405.688 170.233 Q 405.202 169.703 404.477 169.703 Z M 404.477 179.195 Q 403.682 179.195 403.195 179.716 Q 402.709 180.238 402.709 181.033 L 402.709 185.275 Q 402.709 186.212 403.142 186.795 Q 403.576 187.379 404.548 187.379 Q 405.484 187.379 405.829 186.76 Q 406.174 186.141 406.174 185.275 L 406.174 181.033 Q 406.174 180.238 405.723 179.716 Q 405.272 179.195 404.477 179.195 Z M 415.498 190.856 Q 411.697 190.131 411.079 186.401 Q 411.079 182.53 411.079 178.642 Q 411.079 174.753 411.079 170.847 Q 411.556 168.019 413.58 167.038 Q 415.604 166.057 418.202 166.64 Q 419.51 167.435 420.305 168.319 Q 421.101 169.203 421.401 170.847 Q 421.401 174.753 421.401 178.624 Q 421.401 182.495 421.401 186.331 Q 420.889 189.848 417.636 190.82 Q 417.23 190.82 416.956 190.838 Q 416.682 190.856 415.498 190.856 Z M 415.851 187.374 Q 417.442 187.374 417.884 185.977 Q 417.884 182.318 417.884 178.677 Q 417.884 175.036 417.884 171.377 Q 417.672 170.723 417.407 170.299 Q 416.364 169.503 415.639 169.954 Q 414.914 170.405 414.596 171.377 Q 414.596 175.001 414.596 178.642 Q 414.596 182.283 414.596 185.906 Q 414.808 187.02 415.851 187.374 Z"/>
    <path d="M 341.369 84.558 Q 341.441 84.558 341.489 84.612 Q 341.537 84.666 341.513 84.738 Q 341.009 87.189 339.279 88.51 Q 338.438 89.147 337.453 89.471 Q 336.468 89.795 335.327 89.795 Q 333.249 89.795 331.832 88.798 Q 330.438 87.813 329.814 86.636 Q 329.598 86.228 329.441 85.813 Q 329.285 85.399 329.201 84.942 Q 329.045 84.054 329.045 80.906 Q 329.045 79.333 329.081 78.336 Q 329.117 77.339 329.201 76.883 Q 329.285 76.426 329.441 76.006 Q 329.598 75.585 329.814 75.177 Q 330.438 74.012 331.832 73.015 Q 333.237 72.006 335.327 72.006 Q 337.826 72.006 339.459 73.543 Q 341.117 75.093 341.513 77.219 Q 341.537 77.291 341.489 77.339 Q 341.441 77.387 341.369 77.387 L 338.618 77.387 Q 338.51 77.387 338.486 77.291 Q 338.33 76.81 338.042 76.396 Q 337.754 75.982 337.333 75.621 Q 336.54 74.913 335.327 74.913 Q 334.426 74.913 333.79 75.273 Q 333.153 75.633 332.769 76.102 Q 332.54 76.39 332.372 76.756 Q 332.204 77.123 332.108 77.507 Q 332.012 77.916 331.976 78.768 Q 331.94 79.621 331.94 80.906 Q 331.94 82.216 331.976 83.063 Q 332.012 83.909 332.108 84.318 Q 332.204 84.69 332.378 85.057 Q 332.552 85.423 332.769 85.699 Q 333.153 86.204 333.79 86.558 Q 334.426 86.912 335.327 86.912 Q 337.405 86.912 338.486 84.642 Q 338.51 84.618 338.546 84.588 Q 338.582 84.558 338.618 84.558 Z M 346.397 89.651 Q 346.253 89.651 346.253 89.507 L 346.253 74.756 L 341.677 74.756 Q 341.532 74.756 341.532 74.612 L 341.532 72.294 Q 341.532 72.15 341.677 72.15 L 353.712 72.15 Q 353.856 72.15 353.856 72.294 L 353.856 74.612 Q 353.856 74.756 353.712 74.756 L 349.148 74.756 L 349.148 89.507 Q 349.148 89.651 349.004 89.651 Z M 354.225 89.651 Q 354.081 89.651 354.081 89.507 L 354.081 87.068 Q 354.081 86.924 354.225 86.924 L 356.676 86.924 Q 356.808 86.924 356.808 87.068 L 356.808 89.507 Q 356.808 89.651 356.676 89.651 Z M 365.17 77.327 Q 365.17 76.162 364.552 75.507 Q 363.933 74.853 362.9 74.853 Q 361.867 74.853 361.255 75.507 Q 360.642 76.162 360.642 77.327 L 360.642 84.594 Q 360.642 85.771 361.255 86.42 Q 361.867 87.068 362.9 87.068 Q 363.933 87.068 364.552 86.42 Q 365.17 85.771 365.17 84.594 Z M 357.903 77.183 Q 357.903 74.756 359.429 73.447 Q 360.942 72.114 362.9 72.114 Q 363.873 72.114 364.744 72.456 Q 365.615 72.799 366.372 73.447 Q 367.128 74.12 367.519 75.051 Q 367.909 75.982 367.909 77.183 L 367.909 84.738 Q 367.909 87.153 366.372 88.474 Q 364.858 89.795 362.9 89.795 Q 360.942 89.795 359.429 88.474 Q 357.903 87.165 357.903 84.738 Z M 369.71 89.651 Q 369.566 89.651 369.566 89.507 L 369.566 87.165 L 376.293 78.744 L 376.293 78.756 Q 376.665 78.288 376.773 77.898 Q 376.881 77.507 376.881 77.135 Q 376.881 76.306 376.281 75.573 Q 375.68 74.853 374.659 74.853 Q 373.722 74.853 373.037 75.489 Q 372.701 75.802 372.527 76.228 Q 372.353 76.654 372.305 77.195 Q 372.305 77.255 372.263 77.291 Q 372.221 77.327 372.161 77.327 L 369.71 77.327 Q 369.566 77.327 369.566 77.183 Q 369.59 75.045 371.019 73.591 Q 372.473 72.114 374.479 72.114 Q 376.653 72.114 378.142 73.603 L 378.13 73.603 Q 379.608 75.081 379.608 77.159 Q 379.608 78.06 379.344 78.828 Q 379.079 79.597 378.551 80.258 L 378.551 80.246 Q 377.866 81.111 377.205 81.939 Q 376.545 82.768 375.884 83.591 Q 375.224 84.414 374.563 85.237 Q 373.902 86.06 373.218 86.924 L 379.464 86.924 Q 379.608 86.924 379.608 87.068 L 379.608 89.507 Q 379.608 89.651 379.464 89.651 Z"/>
  </g>
</svg>