<?xml version="1.0" encoding="UTF-8" standalone="no"?>
<svg
   version="1.1"
   id="Layer_1"
   x="0px"
   y="0px"
   viewBox="0 0 122 57"
   enable-background="new 0 0 122 57"
   sodipodi:docname="QL_2D,_VNM.svg"
   inkscape:version="1.1 (c4e8f9e, 2021-05-24)"
   xmlns:inkscape="http://www.inkscape.org/namespaces/inkscape"
   xmlns:sodipodi="http://sodipodi.sourceforge.net/DTD/sodipodi-0.dtd"
   xmlns="http://www.w3.org/2000/svg"
   xmlns:svg="http://www.w3.org/2000/svg">
  <defs
     id="defs865" />
  <sodipodi:namedview
     id="namedview863"
     pagecolor="#ffffff"
     bordercolor="#666666"
     borderopacity="1.0"
     inkscape:pageshadow="2"
     inkscape:pageopacity="0.0"
     inkscape:pagecheckerboard="0"
     showgrid="false"
     inkscape:zoom="6.648"
     inkscape:cx="61.3"
     inkscape:cy="29.11"
     inkscape:window-width="1920"
     inkscape:window-height="965"
     inkscape:window-x="0"
     inkscape:window-y="23"
     inkscape:window-maximized="1"
     inkscape:current-layer="Layer_1" />
  <path
     fill="#FFFFFF"
     stroke="#000000"
     stroke-width="2"
     stroke-miterlimit="10"
     d="M119,56H3c-1.1,0-2-0.9-2-2V3c0-1.1,0.9-2,2-2 h116c1.1,0,2,0.9,2,2v51C121,55.1,120.1,56,119,56z"
     id="path850" />
  <g
     aria-label="QL.2D"
     id="text4319"
     style="font-size:47.9564px;font-family:'Russian Road Sign';-inkscape-font-specification:'Russian Road Sign';letter-spacing:0px;word-spacing:0px;stroke-width:2.99728">
    <path
       d="m 19.12,39.24 c -0.96,0.72 -2.26,1.2 -3.84,1.2 -2.45,0 -4.22,-1.15 -5.28,-2.5 -1.338,-1.72 -1.722,-2.68 -1.722,-9.68 0,-7 0.384,-7.96 1.722,-9.69 1.06,-1.34 2.83,-2.49 5.28,-2.49 2.45,0 4.22,1.15 5.27,2.49 1.35,1.73 1.73,2.69 1.73,9.69 0,3.79 -0.1,5.85 -0.48,7.14 l -3.98,-3.16 -3.07,3.55 z m 8.53,6.86 3.07,-3.55 -4.51,-3.6 c 0.96,-1.77 1.25,-3.31 1.25,-10.69 0,-8.2 -0.38,-9.21 -1.49,-11.22 -1.63,-2.98 -5.32,-6.14 -10.69,-6.14 -5.371,0 -9.064,3.16 -10.695,6.14 -1.103,2.01 -1.486,3.02 -1.486,11.22 0,8.2 0.383,9.21 1.486,11.22 1.631,2.97 5.324,6.14 10.695,6.14 3.36,0 6.04,-1.25 8.06,-2.98 z"
       style="-inkscape-font-specification:'DIN 1451 Std'"
       id="path21437" />
    <path
       d="M 33.47,45.33 H 55.29 V 40.44 H 38.65 V 11.19 h -5.18 z"
       style="-inkscape-font-specification:'DIN 1451 Std'"
       id="path21439" />
    <path
       d="m 59.88,45.33 h 4.89 v -4.89 h -4.89 z"
       style="-inkscape-font-specification:'DIN 1451 Std'"
       id="path21441" />
    <path
       d="M 69.63,45.33 H 89.1 V 40.44 H 76.05 L 87.03,26.67 c 1.44,-1.77 2.07,-3.74 2.07,-5.99 0,-5.42 -4.27,-9.78 -9.98,-9.78 -5.13,0 -9.45,4.27 -9.49,9.83 h 4.89 c 0.24,-3.07 2.35,-4.94 4.99,-4.94 2.92,0 4.7,2.44 4.7,4.84 0,1.01 -0.2,2.06 -1.25,3.41 L 69.63,40.73 Z"
       style="-inkscape-font-specification:'DIN 1451 Std'"
       id="path21443" />
    <path
       d="m 94.73,45.33 h 11.57 c 5.1,0 8.7,-2.49 10.7,-5.66 1.5,-2.4 1.9,-3.74 1.9,-11.41 0,-7.15 -0.1,-8.44 -1.8,-11.32 -2.2,-3.74 -5.9,-5.75 -10.4,-5.75 H 94.73 Z m 5.18,-29.25 h 6.19 c 2.8,0 4.5,0.72 6.1,2.87 1.4,1.87 1.5,3.36 1.5,9.5 0,6.33 -0.1,7.29 -1.3,9.02 -1.3,1.96 -3.4,2.97 -6.3,2.97 h -6.19 z"
       style="-inkscape-font-specification:'DIN 1451 Std'"
       id="path21445" />
  </g>
  <text
     xml:space="preserve"
     style="font-size:16px;line-height:1.45;font-family:SnvDExtCon;-inkscape-font-specification:SnvDExtCon;letter-spacing:0px;word-spacing:0px"
     x="30.09"
     y="-7.686"
     id="text3127"><tspan
       sodipodi:role="line"
       id="tspan3125"
       x="30.09"
       y="-7.686" /></text>
</svg>
