<?xml version="1.0" encoding="utf-8"?>
<!-- Generator: Adobe Illustrator 21.0.0, SVG Export Plug-In . SVG Version: 6.00 Build 0)  -->
<svg version="1.1" id="Layer_1" xmlns="http://www.w3.org/2000/svg" xmlns:xlink="http://www.w3.org/1999/xlink" x="0px" y="0px"
	 viewBox="0 0 122 57" style="enable-background:new 0 0 122 57;" xml:space="preserve">
<style type="text/css">
	.st0{fill:#FFFFFF;stroke:#000000;stroke-width:2;stroke-miterlimit:10;}
	.st1{enable-background:new    ;}
</style>
<path class="st0" d="M119,56H3c-1.1,0-2-0.9-2-2V3c0-1.1,0.9-2,2-2h116c1.1,0,2,0.9,2,2v51C121,55.1,120.1,56,119,56z"/>
<g class="st1">
	<path d="M29.4,44.6c-1.2,0.8-2.8,1.1-4.8,1.1c-7,0-10-5.4-10-17.3s3.1-17.3,10-17.3c7,0,10,5.4,10,17.3c0,6.2-1,10.8-2.4,13.2
		l3.1,3.6L32.4,48L29.4,44.6z M26.9,35.9l2,2.2c0.7-2,1-5.1,1-9.8c0-11.2-2.3-13.1-5.2-13.1s-5.2,2-5.2,13.1
		c0,11.5,2.3,13.4,5.2,13.4c0.6,0,1.2-0.1,1.7-0.3L24.1,39L26.9,35.9z"/>
	<path d="M38.4,11.8h4.8v28.8H55v4.5H38.4V11.8z"/>
	<path d="M58,39h4.8v6.2H58V39z"/>
	<path d="M71.9,37.8c0,1.9,0.8,4.3,3.2,4.3c4.5,0,4.8-6.6,4.8-11.4l-0.1-0.1c-1.2,2.4-3.2,3.5-5.9,3.5c-4.1,0-7.4-3.3-7.4-9.8
		c0-7.6,2.8-12.1,9.2-12.1c7.6,0,9,6.3,9,15.8c0,9.9-1.7,17.8-9.6,17.8c-5.3,0-8.1-2.6-8.1-8H71.9z M75.4,15.9c-3,0-4,3.2-4,7.1
		c0,4.6,1.2,7.1,4,7.1c3.5,0,4.2-3.4,4.2-7.4C79.5,18.9,78.2,15.9,75.4,15.9z"/>
	<path d="M107.7,33.7v0.7c0,6-2.2,11.9-9.3,11.9c-7.6,0-10-5.4-10-17.3s2.4-17.3,10.1-17.3c8.6,0,9.1,7,9.1,10.4v0.6h-4.8v-0.6
		c0-3.1-0.8-6.6-4.3-6.5c-3.6,0-5.2,2.4-5.2,13.1s1.6,13.4,5.2,13.4c4,0,4.5-4.9,4.5-8v-0.6h4.7V33.7z"/>
</g>
</svg>
