<svg version="1.2" xmlns="http://www.w3.org/2000/svg" viewBox="0 0 122 57" width="512" height="239">
	<title>QL_N2,_VNM-svg</title>
	<style>
		.s0 { fill: #ffffff;stroke: #000000;stroke-miterlimit:10;stroke-width: 2 } 
		.s1 { fill: #000000 } 
	</style>
	<g id="Layer">
		<path id="Layer" class="s0" d="m119 56h-116c-1.1 0-2-0.9-2-2v-51c0-1.1 0.9-2 2-2h116c1.1 0 2 0.9 2 2v51c0 1.1-0.9 2-2 2z"/>
		<path id="QL.N2B" fill-rule="evenodd" class="s1" d="m25.8 43.2l-2.3 3.5q0 0.1-0.1 0.1-0.1 0-0.2-0.1l-3-3.2q-1.2 1.2-2.7 2-1.5 0.8-3.3 0.8-3 0-5.1-1.9-2-2-3-4.3h0.1q-0.4-0.8-0.6-1.6-0.2-0.8-0.3-1.7-0.3-1.8-0.3-7.8 0-3.1 0.1-5.1 0-1.9 0.2-2.8 0.1-0.9 0.3-1.7 0.2-0.8 0.6-1.6h-0.1q0.5-1.1 1.2-2.2 0.8-1.1 1.8-2 2.1-2 5.1-2 3.1 0 5.1 2 2 2 3 4.2 0.3 0.8 0.5 1.6 0.3 0.8 0.4 1.7 0.1 0.9 0.2 2.8 0 2 0 5.1 0 5.4-0.2 7.3-0.1 0.9-0.3 1.7-0.1 0.8-0.4 1.4 0.8 0.8 1.6 1.7 0.9 0.9 1.6 1.7 0.1 0.1 0.1 0.2 0 0.1 0 0.2zm-9.1-3.5l-3-3.1q0-0.1-0.1-0.2 0-0.1 0.1-0.2l2.3-3.5q0.1-0.2 0.2 0l2.7 2.8q0.2-0.9 0.2-2.5 0.1-1.6 0.1-4 0-2.6-0.1-4.2-0.1-1.7-0.2-2.5-0.1-0.7-0.4-1.4-0.2-0.8-0.5-1.3-0.3-0.5-0.7-0.9-0.4-0.4-0.8-0.7-0.5-0.3-1.1-0.5-0.5-0.2-1.2-0.2-1.3 0-2.2 0.7-1 0.7-1.5 1.6-0.4 0.5-0.6 1.3-0.2 0.7-0.4 1.4-0.2 1.6-0.2 6.7 0 5 0.2 6.6 0.2 0.7 0.4 1.5 0.3 0.7 0.6 1.2 0.5 1 1.5 1.7 0.9 0.7 2.2 0.7 1.4 0 2.5-1zm28.1 6.3h-16.1q-0.2 0-0.2-0.3v-33.5q0-0.3 0.2-0.3h3.8q0.3 0 0.3 0.3v28.5h12q0.2 0 0.2 0.3v4.7q0 0.3-0.2 0.3zm7.3 0h-3.6q-0.2 0-0.2-0.3v-4.7q0-0.3 0.2-0.3h3.6q0.2 0 0.2 0.3v4.7q0 0.3-0.2 0.3zm9.1 0h-3.8q-0.2 0-0.2-0.3v-33.5q0-0.3 0.2-0.3h3.6q0.1 0 0.2 0.1l11 23.3v-23.1q0-0.3 0.2-0.3h3.9q0.2 0 0.2 0.3v33.5q0 0.3-0.2 0.3h-3.6q-0.1 0-0.2-0.1l-11.1-23.3v23.1q0 0.3-0.2 0.3zm33.5 0h-14.3q-0.2 0-0.2-0.3v-4.5l9.9-16.5v0.1q0.5-0.9 0.7-1.7 0.1-0.8 0.1-1.5 0-1.6-0.8-3-0.9-1.5-2.4-1.5-1.4 0-2.4 1.3-0.5 0.6-0.7 1.4-0.3 0.9-0.4 1.9 0 0.1 0 0.2-0.1 0.1-0.2 0.1h-3.6q-0.2 0-0.2-0.3 0.1-4.2 2.2-7 2.1-2.9 5-2.9 3.2 0 5.4 2.9 2.1 2.9 2.1 6.9 0 1.8-0.4 3.3-0.3 1.5-1.1 2.8-1 1.7-2 3.3-1 1.6-1.9 3.2-1 1.6-2 3.2-0.9 1.6-1.9 3.3h9.1q0.2 0 0.2 0.3v4.7q0 0.3-0.2 0.3zm15.2 0h-10.6q-0.3 0-0.3-0.3v-33.5q0-0.3 0.3-0.3h9.7q3.7 0 5.7 2.6 2 2.6 2 6.7 0 2.2-0.8 4.1-0.7 1.8-2.6 3.1 1.8 0.7 2.7 2.9 0.6 1.2 0.8 2.4 0.3 1.2 0.3 2.5 0 4.5-2.2 7.2-2.1 2.6-5 2.6zm-0.9-14.9h-5.7v9.6h5.7q1.9 0 2.9-1.5 1-1.4 1-3.3 0-1.9-1-3.3-0.9-1.5-2.9-1.5zm-0.4-14.1h-5.3v9h5.3q2 0 2.9-1.3 1-1.3 1-3.2 0-1.9-1-3.2-0.9-1.3-2.9-1.3z"/>
	</g>
</svg>