<?xml version="1.0" encoding="UTF-8" standalone="no"?>
<!-- Created with Inkscape (http://www.inkscape.org/) -->

<svg
   xmlns:dc="http://purl.org/dc/elements/1.1/"
   xmlns:cc="http://creativecommons.org/ns#"
   xmlns:rdf="http://www.w3.org/1999/02/22-rdf-syntax-ns#"
   xmlns:svg="http://www.w3.org/2000/svg"
   xmlns="http://www.w3.org/2000/svg"
   xmlns:sodipodi="http://sodipodi.sourceforge.net/DTD/sodipodi-0.dtd"
   xmlns:inkscape="http://www.inkscape.org/namespaces/inkscape"
   width="600mm"
   height="800mm"
   viewBox="0 0 600 800"
   version="1.1"
   id="svg848"
   inkscape:version="0.92.2 (5c3e80d, 2017-08-06)"
   sodipodi:docname="11.svg">
  <defs
     id="defs842" />
  <sodipodi:namedview
     id="base"
     pagecolor="#ffffff"
     bordercolor="#666666"
     borderopacity="1.0"
     inkscape:pageopacity="0.0"
     inkscape:pageshadow="2"
     inkscape:zoom="0.17519833"
     inkscape:cx="1191.9126"
     inkscape:cy="1504.2839"
     inkscape:document-units="mm"
     inkscape:current-layer="layer1"
     showgrid="false"
     inkscape:snap-global="false"
     inkscape:window-width="1920"
     inkscape:window-height="1057"
     inkscape:window-x="-8"
     inkscape:window-y="-8"
     inkscape:window-maximized="1"
     fit-margin-top="0"
     fit-margin-left="0"
     fit-margin-right="0"
     fit-margin-bottom="0"
     showguides="false"
     inkscape:measure-start="0,0"
     inkscape:measure-end="0,0" />
  <metadata
     id="metadata845">
    <rdf:RDF>
      <cc:Work
         rdf:about="">
        <dc:format>image/svg+xml</dc:format>
        <dc:type
           rdf:resource="http://purl.org/dc/dcmitype/StillImage" />
        <dc:title></dc:title>
      </cc:Work>
    </rdf:RDF>
  </metadata>
  <g
     inkscape:label="Layer 1"
     inkscape:groupmode="layer"
     id="layer1"
     transform="translate(-668.04565,1270.5381)">
    <rect
       style="opacity:1;fill:#0046aa;fill-opacity:1;fill-rule:nonzero;stroke:none;stroke-width:2.93670321;stroke-linecap:butt;stroke-linejoin:miter;stroke-miterlimit:10;stroke-dasharray:none;stroke-opacity:1;paint-order:stroke fill markers"
       id="rect1393"
       width="600"
       height="800"
       x="668.04565"
       y="-1270.5381" />
    <rect
       y="-1265.5381"
       x="673.04565"
       height="790"
       width="590"
       id="rect1395"
       style="opacity:1;fill:#ffffff;fill-opacity:1;fill-rule:nonzero;stroke:none;stroke-width:2.89386988;stroke-linecap:butt;stroke-linejoin:miter;stroke-miterlimit:10;stroke-dasharray:none;stroke-opacity:1;paint-order:stroke fill markers" />
    <rect
       y="-1255.5381"
       x="683.04565"
       height="770"
       width="570"
       id="rect1406"
       style="opacity:1;fill:#0046aa;fill-opacity:1;fill-rule:nonzero;stroke:none;stroke-width:2.80816269;stroke-linecap:butt;stroke-linejoin:miter;stroke-miterlimit:10;stroke-dasharray:none;stroke-opacity:1;paint-order:stroke fill markers" />
    <path
       cx="150"
       cy="147"
       r="150"
       id="path8376"
       style="opacity:1;fill:#d35f5f;fill-opacity:1;fill-rule:nonzero;stroke:none;stroke-width:3.92256045;stroke-linecap:butt;stroke-linejoin:miter;stroke-miterlimit:4;stroke-dasharray:none;stroke-opacity:1;paint-order:stroke fill markers"
       d=""
       inkscape:connector-curvature="0" />
    <rect
       style="opacity:1;fill:#ffffff;fill-opacity:1;fill-rule:nonzero;stroke:none;stroke-width:5.07322454;stroke-linecap:butt;stroke-linejoin:miter;stroke-miterlimit:4;stroke-dasharray:none;stroke-opacity:1;paint-order:stroke fill markers"
       id="rect828"
       width="500"
       height="500"
       x="718.04565"
       y="-1220.5381" />
    <g
       transform="matrix(1.0004876,0,0,1.0004876,-290.77787,824.33304)"
       id="g924"
       style="font-style:normal;font-variant:normal;font-weight:bold;font-stretch:normal;font-size:159.07623291px;line-height:0;font-family:Giaothong2;-inkscape-font-specification:'Giaothong2 Bold';letter-spacing:0px;word-spacing:0px;fill:#000000;fill-opacity:1;stroke:none;stroke-width:0.82852203"
       aria-label="TRẠM">
      <g
         id="g922"
         style="font-style:normal;font-variant:normal;font-weight:bold;font-stretch:normal;font-size:161.34654236px;line-height:0;font-family:Giaothong2;-inkscape-font-specification:'Giaothong2 Bold';letter-spacing:3.35592604px;word-spacing:0px;fill:#000000;fill-opacity:1;stroke:none;stroke-width:0.69624561"
         aria-label="TRẠM" />
    </g>
    <g
       aria-label="TRẠM RỬA XE"
       style="font-style:normal;font-variant:normal;font-weight:bold;font-stretch:normal;font-size:83.53499603px;line-height:0;font-family:Giaothong2;-inkscape-font-specification:'Giaothong2 Bold';letter-spacing:0.2460625px;word-spacing:0px;fill:#000000;fill-opacity:1;stroke:none;stroke-width:0.43507808"
       id="text20622"
       transform="translate(-84.863704,461.87866)">
      <path
         style="opacity:1;fill:#000000;fill-opacity:1;fill-rule:nonzero;stroke:none;stroke-width:2.5;stroke-linecap:butt;stroke-linejoin:miter;stroke-miterlimit:4;stroke-dasharray:none;stroke-opacity:1;paint-order:stroke fill markers"
         d="m 952.90935,-1469.8168 v -18.9 c 0.052,-60.5981 16.0658,-133.1927 49.99995,-140.5 12.8409,-2.1465 20.0589,-3.1313 51.8,-3.2 15.8351,0.104 18.2931,11.985 18.4,25.4 -0.075,20.2211 -4.7612,35.0352 -11.4,48 -2.1677,3.7925 -4.1828,7.4181 -8.8,7.6 h -24.8 c -5.1362,-5.4389 -9.5039,-8.4495 -13.2,-8.2 -3.1493,0.3709 -5.8029,2.1055 -5.8,5 0.4843,18.7412 14.282,60.3095 14,95.6 v 26.6 c -0.1202,35.4655 -15.3564,74.4759 -14.6,92.4 0.1795,2.1087 1.3904,5.4633 4.4,5.6 h 2.6 c 11.9451,-0.1969 26.7867,-24.8988 44.2,-25.2 h 5.2 c 27.3705,0.6913 72.7595,46.0545 73.2,87.2 0.1269,6.3328 -37.1704,24.5397 -56.2,23.6 l -15.8,-0.6 c -1.4557,-0.058 -1.9129,3.1937 0,3.7 10.122,2.2097 22.6417,2.8761 34.1,1.9 20.785,-3.1448 77.6577,-28.7814 112.7,-29.8 h 8 c 2.9374,0.047 7.0182,1.079 7,5.2 0.01,3.5516 -0.7171,5.0092 -2.6,5.6 -5.1491,1.9397 -13.8136,4.4973 -21.4,4.4 h -24 c -5.1995,0.2108 -13.5689,2.4633 -20.2,5.2 -16.7512,8.7411 -47.1495,20.8154 -63.8,20.8 h -11 c -41.212,0.031 -89.00545,-23.2023 -111.19995,-93 -17.8487,-52.5085 -20.5393,-91.2726 -20.8,-144.4 z"
         id="rect18974"
         inkscape:connector-curvature="0"
         sodipodi:nodetypes="ccccccccccccccccccccccccccccccccc" />
    </g>
    <g
       aria-label="1900565656"
       style="font-style:normal;font-variant:normal;font-weight:bold;font-stretch:normal;font-size:104.06504059px;line-height:0;font-family:Giaothong2;-inkscape-font-specification:'Giaothong2 Bold';letter-spacing:2.56910419px;word-spacing:0px;fill:#ffffff;fill-opacity:1;stroke:none;stroke-width:0.54200536"
       id="text20399"
       transform="translate(5.627,-28.216814)">
      <path
         d="m 723.34345,-537.98187 q -0.60976,0 -0.60976,-0.60975 v -60.36586 q -2.3374,1.72764 -4.67479,3.5061 -2.3374,1.72764 -4.6748,3.40447 -0.35569,0.25407 -0.66057,0.10163 -0.30488,-0.20325 -0.30488,-0.60976 v -11.02642 q 0,-0.10163 0.0508,-0.25407 0.10163,-0.15244 0.20326,-0.25406 l 10.46748,-7.57114 h 10.61991 q 0.60976,0 0.60976,0.60976 v 72.45935 q 0,0.60975 -0.60976,0.60975 z"
         style="font-style:normal;font-variant:normal;font-weight:bold;font-stretch:normal;font-family:Giaothong2;-inkscape-font-specification:'Giaothong2 Bold';letter-spacing:2.56910419px;word-spacing:0px;fill:#ffffff;stroke:none;stroke-width:0.54200536"
         id="path20422"
         inkscape:connector-curvature="0" />
      <path
         d="m 748.52534,-590.87821 q 0.0508,-5.03049 1.72764,-8.9939 1.67683,-4.01423 4.72561,-6.85976 2.89634,-2.64227 6.50407,-4.06504 3.60772,-1.47358 7.57113,-1.47358 8.38415,0 14.38009,5.53862 6.04674,5.58943 6.19918,15.90447 v 32.0122 q -0.10162,4.92886 -1.72764,8.9939 -1.62602,4.06504 -4.47154,6.85976 -2.89635,2.59146 -6.55488,4.06504 -3.60773,1.47358 -7.82521,1.5752 -7.26626,-0.20325 -12.80487,-4.47154 v 0.0508 q -2.89634,-2.23577 -4.72561,-5.33537 -1.77846,-3.1504 -2.59147,-7.21544 -0.10162,-0.25407 0.0508,-0.45732 0.20325,-0.20325 0.50813,-0.20325 h 10.36585 q 0.35569,0 0.55894,0.4065 2.28659,5.69106 8.63821,5.69106 8.99391,-0.0508 9.3496,-10.51829 v -6.04675 q -3.35366,1.01626 -6.65651,1.5752 -3.30284,0.55894 -6.19918,0.45732 -7.0122,0.15244 -12.14431,-5.0813 h 0.0508 q -5.03049,-5.03049 -4.92886,-15.70122 z m 11.28049,6.60569 q 0,10.36586 9.24796,10.51829 9.04472,-0.15243 9.3496,-10.51829 v -5.94512 q -0.40651,-10.31504 -9.3496,-10.51829 -9.19715,0.25406 -9.24796,10.51829 z"
         style="font-style:normal;font-variant:normal;font-weight:bold;font-stretch:normal;font-family:Giaothong2;-inkscape-font-specification:'Giaothong2 Bold';letter-spacing:2.56910419px;word-spacing:0px;fill:#ffffff;stroke:none;stroke-width:0.54200536"
         id="path20424"
         inkscape:connector-curvature="0" />
      <path
         d="m 832.13774,-590.26845 q 0,-4.92886 -2.64228,-7.67277 -2.59146,-2.79471 -6.96138,-2.79471 -4.36992,0 -6.96138,2.79471 -2.59146,2.74391 -2.59146,7.67277 v 30.74187 q 0,4.97967 2.59146,7.72357 2.59146,2.74391 6.96138,2.74391 4.36992,0 6.96138,-2.74391 2.64228,-2.7439 2.64228,-7.72357 z m -30.74187,-0.60976 q 0,-10.26423 6.45325,-15.80284 6.40244,-5.64025 14.68496,-5.64025 4.11586,0 7.77439,1.47358 3.70935,1.42276 6.91057,4.16667 3.20122,2.84552 4.82724,6.80894 1.67683,3.9126 1.67683,8.9939 v 31.96138 q 0,10.21342 -6.50407,15.80285 -6.40244,5.58943 -14.68496,5.58943 -8.28252,0 -14.68496,-5.58943 -6.45325,-5.53862 -6.45325,-15.80285 z"
         style="font-style:normal;font-variant:normal;font-weight:bold;font-stretch:normal;font-family:Giaothong2;-inkscape-font-specification:'Giaothong2 Bold';letter-spacing:2.56910419px;word-spacing:0px;fill:#ffffff;stroke:none;stroke-width:0.54200536"
         id="path20426"
         inkscape:connector-curvature="0" />
      <path
         d="m 884.70685,-590.26845 q 0,-4.92886 -2.64228,-7.67277 -2.59146,-2.79471 -6.96138,-2.79471 -4.36992,0 -6.96138,2.79471 -2.59147,2.74391 -2.59147,7.67277 v 30.74187 q 0,4.97967 2.59147,7.72357 2.59146,2.74391 6.96138,2.74391 4.36992,0 6.96138,-2.74391 2.64228,-2.7439 2.64228,-7.72357 z m -30.74187,-0.60976 q 0,-10.26423 6.45325,-15.80284 6.40244,-5.64025 14.68496,-5.64025 4.11585,0 7.77439,1.47358 3.70935,1.42276 6.91057,4.16667 3.20122,2.84552 4.82723,6.80894 1.67683,3.9126 1.67683,8.9939 v 31.96138 q 0,10.21342 -6.50406,15.80285 -6.40244,5.58943 -14.68496,5.58943 -8.28252,0 -14.68496,-5.58943 -6.45325,-5.53862 -6.45325,-15.80285 z"
         style="font-style:normal;font-variant:normal;font-weight:bold;font-stretch:normal;font-family:Giaothong2;-inkscape-font-specification:'Giaothong2 Bold';letter-spacing:2.56910419px;word-spacing:0px;fill:#ffffff;stroke:none;stroke-width:0.54200536"
         id="path20428"
         inkscape:connector-curvature="0" />
      <path
         d="m 908.36335,-571.36601 q -0.55894,0 -0.55894,-0.55895 v -39.12601 q 0,-0.60976 0.55894,-0.60976 h 38.51626 q 0.60976,0 0.60976,0.60976 v 10.36585 q 0,0.60976 -0.60976,0.60976 h -28.1504 v 14.58333 q 4.92886,-3.45528 10.97561,-3.45528 2.13414,0 4.06504,0.45731 1.9817,0.40651 3.70935,1.21951 1.67683,0.81301 3.09959,1.82927 1.47358,0.96545 2.48984,2.03252 1.47357,1.62602 2.59146,3.5061 1.11789,1.82927 1.82927,3.76016 1.47358,3.96342 1.47358,12.95732 0,3.65854 -0.30488,6.40244 -0.25407,2.7439 -0.86382,4.62398 l 0.0508,-0.0508 q -1.06707,3.5061 -3.5061,6.70732 -2.38821,2.94715 -6.40244,5.43699 -4.21748,2.54065 -9.75609,2.54065 -7.16464,0 -13.82114,-4.42073 -6.80895,-4.57317 -7.92683,-14.88821 -0.0508,-0.25407 0.15244,-0.45732 0.20325,-0.20325 0.45731,-0.20325 h 10.36586 q 0.50813,0 0.60975,0.45731 1.77846,7.97765 9.7561,7.97765 7.21545,0 8.28252,-4.77643 1.32114,-5.28455 1.32114,-10.1626 0,-2.89634 -0.50813,-5.33536 -0.50813,-2.48984 -1.47358,-4.42074 -1.82927,-3.60772 -7.92683,-3.60772 -5.58943,0 -8.79065,5.69106 -0.20325,0.30488 -0.50813,0.30488 z"
         style="font-style:normal;font-variant:normal;font-weight:bold;font-stretch:normal;font-family:Giaothong2;-inkscape-font-specification:'Giaothong2 Bold';letter-spacing:2.56910419px;word-spacing:0px;fill:#ffffff;stroke:none;stroke-width:0.54200536"
         id="path20430"
         inkscape:connector-curvature="0" />
      <path
         d="m 960.22108,-590.8274 q 0.0508,-5.0813 1.72764,-9.04471 1.67683,-4.01423 4.72561,-6.85976 2.89634,-2.64227 6.50406,-4.06504 3.60773,-1.47358 7.57114,-1.47358 7.21545,0 13.05895,4.31911 5.4878,4.36992 7.16462,12.60163 0.1016,0.30487 -0.1016,0.50813 -0.2033,0.20325 -0.5081,0.20325 h -10.41671 q -0.40651,0 -0.55895,-0.35569 -2.28658,-5.58943 -8.68902,-5.74187 -9.19715,0.25406 -9.19715,10.5691 v 5.99594 q 3.30284,-0.96545 6.55487,-1.52439 3.30285,-0.55895 6.25,-0.50813 7.11382,0 12.19513,4.97967 4.87803,5.13212 4.82723,15.80285 v 6.60569 q -0.1524,10.41667 -6.19919,15.85366 -5.69105,5.38618 -14.38008,5.64024 -8.43496,-0.25406 -14.0752,-5.58943 -6.40244,-5.58943 -6.45325,-15.85366 z m 11.28049,31.45326 q 0.0508,10.41666 9.24796,10.51829 8.99391,-0.0508 9.3496,-10.51829 v -5.94513 q -0.40651,-10.31504 -9.3496,-10.51829 -9.19715,0.25407 -9.24796,10.51829 z"
         style="font-style:normal;font-variant:normal;font-weight:bold;font-stretch:normal;font-family:Giaothong2;-inkscape-font-specification:'Giaothong2 Bold';letter-spacing:2.56910419px;word-spacing:0px;fill:#ffffff;stroke:none;stroke-width:0.54200536"
         id="path20432"
         inkscape:connector-curvature="0" />
      <path
         d="m 1013.9081,-571.36601 q -0.559,0 -0.559,-0.55895 v -39.12601 q 0,-0.60976 0.559,-0.60976 h 38.5162 q 0.6098,0 0.6098,0.60976 v 10.36585 q 0,0.60976 -0.6098,0.60976 h -28.1504 v 14.58333 q 4.9289,-3.45528 10.9756,-3.45528 2.1342,0 4.0651,0.45731 1.9817,0.40651 3.7093,1.21951 1.6768,0.81301 3.0996,1.82927 1.4736,0.96545 2.4898,2.03252 1.4736,1.62602 2.5915,3.5061 1.1179,1.82927 1.8293,3.76016 1.4736,3.96342 1.4736,12.95732 0,3.65854 -0.3049,6.40244 -0.2541,2.7439 -0.8638,4.62398 l 0.051,-0.0508 q -1.0671,3.5061 -3.5061,6.70732 -2.3882,2.94715 -6.4025,5.43699 -4.2174,2.54065 -9.7561,2.54065 -7.1646,0 -13.8211,-4.42073 -6.8089,-4.57317 -7.9268,-14.88821 -0.051,-0.25407 0.1524,-0.45732 0.2033,-0.20325 0.4573,-0.20325 h 10.3659 q 0.5081,0 0.6097,0.45731 1.7785,7.97765 9.7561,7.97765 7.2155,0 8.2826,-4.77643 1.3211,-5.28455 1.3211,-10.1626 0,-2.89634 -0.5081,-5.33536 -0.5082,-2.48984 -1.4736,-4.42074 -1.8293,-3.60772 -7.9268,-3.60772 -5.5895,0 -8.7907,5.69106 -0.2033,0.30488 -0.5081,0.30488 z"
         style="font-style:normal;font-variant:normal;font-weight:bold;font-stretch:normal;font-family:Giaothong2;-inkscape-font-specification:'Giaothong2 Bold';letter-spacing:2.56910419px;word-spacing:0px;fill:#ffffff;stroke:none;stroke-width:0.54200536"
         id="path20434"
         inkscape:connector-curvature="0" />
      <path
         d="m 1065.7658,-590.8274 q 0.051,-5.0813 1.7276,-9.04471 1.6768,-4.01423 4.7256,-6.85976 2.8964,-2.64227 6.5041,-4.06504 3.6077,-1.47358 7.5711,-1.47358 7.2155,0 13.059,4.31911 5.4878,4.36992 7.1646,12.60163 0.1016,0.30487 -0.1016,0.50813 -0.2033,0.20325 -0.5082,0.20325 h -10.4166 q -0.4065,0 -0.559,-0.35569 -2.2865,-5.58943 -8.689,-5.74187 -9.1971,0.25406 -9.1971,10.5691 v 5.99594 q 3.3028,-0.96545 6.5548,-1.52439 3.3029,-0.55895 6.25,-0.50813 7.1139,0 12.1952,4.97967 4.878,5.13212 4.8272,15.80285 v 6.60569 q -0.1524,10.41667 -6.1992,15.85366 -5.691,5.38618 -14.3801,5.64024 -8.4349,-0.25406 -14.0752,-5.58943 -6.4024,-5.58943 -6.4532,-15.85366 z m 11.2805,31.45326 q 0.051,10.41666 9.2479,10.51829 8.9939,-0.0508 9.3496,-10.51829 v -5.94513 q -0.4065,-10.31504 -9.3496,-10.51829 -9.1971,0.25407 -9.2479,10.51829 z"
         style="font-style:normal;font-variant:normal;font-weight:bold;font-stretch:normal;font-family:Giaothong2;-inkscape-font-specification:'Giaothong2 Bold';letter-spacing:2.56910419px;word-spacing:0px;fill:#ffffff;stroke:none;stroke-width:0.54200536"
         id="path20436"
         inkscape:connector-curvature="0" />
      <path
         d="m 1119.4528,-571.36601 q -0.559,0 -0.559,-0.55895 v -39.12601 q 0,-0.60976 0.559,-0.60976 h 38.5162 q 0.6098,0 0.6098,0.60976 v 10.36585 q 0,0.60976 -0.6098,0.60976 h -28.1504 v 14.58333 q 4.9289,-3.45528 10.9756,-3.45528 2.1342,0 4.0651,0.45731 1.9817,0.40651 3.7093,1.21951 1.6769,0.81301 3.0996,1.82927 1.4736,0.96545 2.4899,2.03252 1.4735,1.62602 2.5914,3.5061 1.1179,1.82927 1.8293,3.76016 1.4736,3.96342 1.4736,12.95732 0,3.65854 -0.3049,6.40244 -0.2541,2.7439 -0.8638,4.62398 l 0.051,-0.0508 q -1.0671,3.5061 -3.5061,6.70732 -2.3882,2.94715 -6.4025,5.43699 -4.2174,2.54065 -9.7561,2.54065 -7.1646,0 -13.8211,-4.42073 -6.8089,-4.57317 -7.9268,-14.88821 -0.051,-0.25407 0.1524,-0.45732 0.2033,-0.20325 0.4573,-0.20325 h 10.3659 q 0.5081,0 0.6097,0.45731 1.7785,7.97765 9.7561,7.97765 7.2155,0 8.2826,-4.77643 1.3211,-5.28455 1.3211,-10.1626 0,-2.89634 -0.5081,-5.33536 -0.5082,-2.48984 -1.4736,-4.42074 -1.8293,-3.60772 -7.9268,-3.60772 -5.5895,0 -8.7907,5.69106 -0.2032,0.30488 -0.5081,0.30488 z"
         style="font-style:normal;font-variant:normal;font-weight:bold;font-stretch:normal;font-family:Giaothong2;-inkscape-font-specification:'Giaothong2 Bold';letter-spacing:2.56910419px;word-spacing:0px;fill:#ffffff;stroke:none;stroke-width:0.54200536"
         id="path20438"
         inkscape:connector-curvature="0" />
      <path
         d="m 1171.3105,-590.8274 q 0.051,-5.0813 1.7277,-9.04471 1.6768,-4.01423 4.7256,-6.85976 2.8963,-2.64227 6.504,-4.06504 3.6078,-1.47358 7.5712,-1.47358 7.2154,0 13.0589,4.31911 5.4878,4.36992 7.1646,12.60163 0.1017,0.30487 -0.1016,0.50813 -0.2032,0.20325 -0.5081,0.20325 h -10.4167 q -0.4065,0 -0.5589,-0.35569 -2.2866,-5.58943 -8.689,-5.74187 -9.1972,0.25406 -9.1972,10.5691 v 5.99594 q 3.3028,-0.96545 6.5549,-1.52439 3.3028,-0.55895 6.25,-0.50813 7.1138,0 12.1951,4.97967 4.878,5.13212 4.8272,15.80285 v 6.60569 q -0.1524,10.41667 -6.1992,15.85366 -5.691,5.38618 -14.38,5.64024 -8.435,-0.25406 -14.0752,-5.58943 -6.4025,-5.58943 -6.4533,-15.85366 z m 11.2805,31.45326 q 0.051,10.41666 9.248,10.51829 8.9939,-0.0508 9.3496,-10.51829 v -5.94513 q -0.4065,-10.31504 -9.3496,-10.51829 -9.1972,0.25407 -9.248,10.51829 z"
         style="font-style:normal;font-variant:normal;font-weight:bold;font-stretch:normal;font-family:Giaothong2;-inkscape-font-specification:'Giaothong2 Bold';letter-spacing:2.56910419px;word-spacing:0px;fill:#ffffff;stroke:none;stroke-width:0.54200536"
         id="path20440"
         inkscape:connector-curvature="0" />
    </g>
  </g>
</svg>
