<?xml version="1.0" encoding="UTF-8" standalone="no"?>
<!-- Created with Inkscape (http://www.inkscape.org/) -->

<svg
   width="300mm"
   height="300mm"
   viewBox="0 0 300 300"
   version="1.1"
   id="svg848"
   inkscape:version="1.2.2 (732a01da63, 2022-12-09)"
   sodipodi:docname="Vietnam_road_sign_I443d.svg"
   xmlns:inkscape="http://www.inkscape.org/namespaces/inkscape"
   xmlns:sodipodi="http://sodipodi.sourceforge.net/DTD/sodipodi-0.dtd"
   xmlns="http://www.w3.org/2000/svg"
   xmlns:svg="http://www.w3.org/2000/svg"
   xmlns:rdf="http://www.w3.org/1999/02/22-rdf-syntax-ns#"
   xmlns:cc="http://creativecommons.org/ns#"
   xmlns:dc="http://purl.org/dc/elements/1.1/">
  <defs
     id="defs842" />
  <sodipodi:namedview
     id="base"
     pagecolor="#ffffff"
     bordercolor="#666666"
     borderopacity="1.0"
     inkscape:pageopacity="0.0"
     inkscape:pageshadow="2"
     inkscape:zoom="0.6999006"
     inkscape:cx="310.75841"
     inkscape:cy="753.67845"
     inkscape:document-units="mm"
     inkscape:current-layer="g41843"
     showgrid="false"
     inkscape:snap-global="false"
     inkscape:window-width="1920"
     inkscape:window-height="991"
     inkscape:window-x="-9"
     inkscape:window-y="-9"
     inkscape:window-maximized="1"
     fit-margin-top="0"
     fit-margin-left="0"
     fit-margin-right="0"
     fit-margin-bottom="0"
     showguides="false"
     inkscape:showpageshadow="2"
     inkscape:pagecheckerboard="0"
     inkscape:deskcolor="#d1d1d1" />
  <metadata
     id="metadata845">
    <rdf:RDF>
      <cc:Work
         rdf:about="">
        <dc:format>image/svg+xml</dc:format>
        <dc:type
           rdf:resource="http://purl.org/dc/dcmitype/StillImage" />
      </cc:Work>
    </rdf:RDF>
  </metadata>
  <g
     inkscape:label="Layer 1"
     inkscape:groupmode="layer"
     id="layer1"
     transform="translate(0,3)">
    <rect
       style="opacity:1;fill:#0046aa;fill-opacity:1;fill-rule:nonzero;stroke:none;stroke-width:1.27162981;stroke-linecap:butt;stroke-linejoin:miter;stroke-miterlimit:10;stroke-dasharray:none;stroke-opacity:1;paint-order:stroke fill markers"
       id="rect1393"
       width="300"
       height="300"
       x="0"
       y="-3" />
    <rect
       y="2"
       x="5"
       height="290"
       width="290"
       id="rect1395"
       style="opacity:1;fill:#ffffff;fill-opacity:1;fill-rule:nonzero;stroke:none;stroke-width:1.22924209;stroke-linecap:butt;stroke-linejoin:miter;stroke-miterlimit:10;stroke-dasharray:none;stroke-opacity:1;paint-order:stroke fill markers" />
    <g
       id="g41843"
       transform="matrix(-1,0,0,1,299.99936,0)">
      <rect
         y="7"
         x="10"
         height="280"
         width="280"
         id="rect1406"
         style="opacity:1;fill:#0046aa;fill-opacity:1;fill-rule:nonzero;stroke:none;stroke-width:1.18686;stroke-linecap:butt;stroke-linejoin:miter;stroke-miterlimit:10;stroke-dasharray:none;stroke-opacity:1;paint-order:stroke fill markers" />
      <path
         id="rect65895"
         style="opacity:1;fill:#ffffff;fill-opacity:1;fill-rule:evenodd;stroke:none;stroke-width:10.2147;stroke-linecap:round;stroke-dasharray:none;stroke-opacity:1;paint-order:stroke fill markers"
         d="m 9.99936,198.01044 v 18.7564 h 54.46592 v 17.31833 h 53.08726 v 17.53285 h 54.46593 v 17.31865 H 224.357 v 18.06232 h 65.64027 V 268.24291 H 236.9236 v -18.06264 h -54.46119 v -17.3136 H 129.37074 V 215.32878 H 74.90481 v -17.31834 z" />
      <path
         id="path73437"
         style="color:#000000;opacity:1;fill:#ffffff;fill-rule:evenodd;stroke-width:3.21906;stroke-linecap:round;stroke-linejoin:round;-inkscape-stroke:none"
         d="M 186.31638 87.534526 L 186.31638 87.535042 C 187.29583 87.536542 188.02325 87.540211 188.24908 87.543311 C 188.31438 87.544292 188.37965 87.567082 188.44493 87.567082 C 190.08175 87.588412 191.65404 88.209343 192.86326 89.312712 L 215.11979 109.84376 C 216.4923 111.11066 217.27227 112.89398 217.27056 114.7618 L 217.27056 143.73316 C 217.26956 147.42284 214.27847 150.41367 210.5888 150.41493 C 206.89915 150.41393 203.90881 147.42283 203.90755 143.73316 L 203.90755 117.68514 L 193.92987 108.48053 L 194.09265 109.7342 L 197.47384 139.59801 C 197.73949 141.94453 198.42658 146.94329 197.76736 150.78803 C 197.39205 152.94194 196.13878 154.01926 195.08793 155.4849 C 193.43187 157.79391 190.65517 160.27561 188.20825 162.24056 L 188.20825 162.24314 L 168.88902 179.66327 L 177.34173 213.05451 C 179.01693 216.99244 177.182 221.54268 173.24379 223.2172 C 169.30642 224.89104 164.75768 223.05687 163.08317 219.11978 L 147.5451 182.5866 C 146.44865 180.00727 146.83073 177.03669 148.54401 174.8186 L 166.2189 151.02729 L 158.88601 100.82674 C 158.23331 95.628325 163.151 93.312156 166.59562 90.947754 C 169.72857 88.797104 177.50193 87.632711 177.50193 87.632711 C 177.97513 87.567421 180.44297 87.535042 182.90625 87.535042 L 182.87369 87.53866 C 184.10565 87.53326 185.33692 87.532826 186.31638 87.534526 z M 161.1267 131.50083 L 161.1267 150.60768 L 146.9193 158.80769 L 138.64797 144.47834 L 161.1267 131.50083 z M 196.62893 160.78639 L 212.54113 234.60152 C 213.70511 240.00046 210.27185 245.32074 204.87287 246.48451 C 199.4736 247.64809 194.15345 244.21407 192.99039 238.8147 L 179.23412 175.00102 L 196.62893 160.78639 z " />
      <circle
         style="fill:#ffffff;fill-opacity:1;fill-rule:evenodd;stroke:none;stroke-width:10.4026;stroke-linecap:round;stroke-dasharray:none;stroke-opacity:1;paint-order:stroke fill markers;opacity:1"
         id="circle73439"
         cx="-168.14786"
         cy="71.023964"
         r="16.640337"
         transform="scale(-1,1)" />
    </g>
  </g>
</svg>
