<?xml version="1.0" encoding="UTF-8"?>
<!DOCTYPE svg PUBLIC "-//W3C//DTD SVG 1.1//EN" "http://www.w3.org/Graphics/SVG/1.1/DTD/svg11.dtd">
<!-- Creator: CorelDRAW -->
<svg xmlns="http://www.w3.org/2000/svg" xml:space="preserve" width="85.4998mm" height="52.9166mm" version="1.1" style="shape-rendering:geometricPrecision; text-rendering:geometricPrecision; image-rendering:optimizeQuality; fill-rule:evenodd; clip-rule:evenodd"
viewBox="0 0 1759.85 1089.19"
 xmlns:xlink="http://www.w3.org/1999/xlink"
 xmlns:xodm="http://www.corel.com/coreldraw/odm/2003">
 <defs>
  <style type="text/css">
   <![CDATA[
    .fil3 {fill:black}
    .fil0 {fill:#0A9646}
    .fil2 {fill:#FFD70F}
    .fil1 {fill:white}
    .fil7 {fill:black;fill-rule:nonzero}
    .fil6 {fill:#0046AA;fill-rule:nonzero}
    .fil5 {fill:#F00A0A;fill-rule:nonzero}
    .fil4 {fill:white;fill-rule:nonzero}
   ]]>
  </style>
 </defs>
 <g id="Layer_x0020_1">
  <metadata id="CorelCorpID_0Corel-Layer"/>
  <g id="_2379550490208">
   <polygon id="rect15575" class="fil0" points="-0,0 1759.85,0 1759.85,1089.19 -0,1089.19 "/>
   <path id="path15582" class="fil1" d="M43.74 7.22c-19.9,0 -36.14,16.24 -36.14,36.13l0 479.76 0 67.9 0 70.67 0 20.01 0 363.77c0,19.9 16.24,36.12 36.14,36.12l1672.36 0c19.9,0 36.14,-16.22 36.14,-36.12l-0 -363.76 0 -19.49 0 -83.03 0 -56.05 0 -479.76c0,-19.9 -16.24,-36.13 -36.14,-36.13l-1672.36 0zm0 13.62l1672.36 0c12.59,0 22.54,9.92 22.54,22.51l0 479.76 0 56.05c0,0.43 -0.02,0.89 -0.05,1.35l0 10.38c0,12.52 -10.08,22.6 -22.6,22.6l-11.64 0c-0.27,0.01 -0.54,0.02 -0.8,0.02l-1648.75 0c-0.26,0 -0.54,-0.01 -0.81,-0.02l-10.23 0c-12.52,0 -22.6,-10.08 -22.6,-22.6l0 -547.46c0,-2.39 0.37,-4.69 1.05,-6.85 0.02,-0.06 0.05,-0.13 0.07,-0.19 2.88,-9.11 11.3,-15.57 21.46,-15.57zm-0.1 606.4l10.03 0 1650.75 0 11.7 0c12.45,0 22.48,10.02 22.48,22.47l0 10.94c0.03,0.54 0.05,1.06 0.05,1.55l0 19.49 0 363.77c0,7.89 -3.91,14.73 -9.92,18.74 -3.59,2.43 -7.93,3.85 -12.61,3.85l-1672.47 0c-12.45,0 -22.47,-10.02 -22.47,-22.47l0 -395.85c0,-12.45 10.02,-22.47 22.47,-22.47z"/>
   <polygon id="rect15605" class="fil2" points="112.52,240.89 444.14,240.89 444.14,392.4 112.52,392.4 "/>
   <path id="path15631" class="fil3" d="M123.75 243.97c-4.42,0 -8.03,3.6 -8.03,8.01l0 129.32c0,4.42 3.61,8.01 8.03,8.01l309.28 0c4.42,0 8.03,-3.6 8.03,-8.01l0 -129.32c0,-4.42 -3.61,-8.01 -8.03,-8.01l-309.28 0zm0 2.91l309.28 0c2.85,0 5.1,2.25 5.1,5.1l0 129.32c0,2.85 -2.25,5.08 -5.1,5.08l-309.28 0c-2.85,0 -5.1,-2.24 -5.1,-5.08l0 -129.32c0,-2.85 2.25,-5.1 5.1,-5.1z"/>
   <path id="path17496" class="fil4" d="M1454.15 196.92l0 275.64 192.98 0 0 -275.64 -192.98 0zm7.53 9.04l177.83 0 0 259.04 -177.83 0 0 -259.04zm74.44 19.86l-12.17 48.3 21.36 -0 1.54 -48.3 -10.73 0zm18.26 0l1.54 48.3 21.37 -0 -12.18 -48.3 -10.72 0zm-86.64 54.42l0 10.58 16.7 6.03 0 3.18 7.68 -0 0 -3.18c0,0 11.36,-1.71 24.65,-2.91 10.64,-0.97 22.5,-1.48 30.74,-1.51 9.8,-0.03 24.28,0.51 36.7,1.57 13.69,1.17 24.9,2.86 24.9,2.86l0 3.18 7.53 0 0 -3.18 16.7 -6.03 0 -10.58 -165.6 0zm50.16 19.72l-36.51 145.3 54.73 0 7.59 -145.3 -25.81 0zm39.52 0l7.59 145.3 54.73 0 -36.51 -145.3 -25.81 0z"/>
   <circle id="path815" class="fil5" cx="586.07" cy="847.81" r="166.17"/>
   <circle id="circle817" class="fil4" cx="586.07" cy="847.81" r="125.26"/>
   <circle id="circle817-6" class="fil6" cx="1175.88" cy="847.81" r="166.17"/>
   <path class="fil4" d="M668.18 523.67c-0.39,0 -0.58,-0.2 -0.58,-0.58l0 -69.35c0,-0.39 0.19,-0.58 0.58,-0.58l44.33 0c0.39,0 0.58,0.19 0.58,0.58l0 9.97c0,0.39 -0.19,0.58 -0.58,0.58l-33.25 0 0 18.58 28.26 0c0.39,0 0.58,0.2 0.58,0.58l0 9.39c0,0.36 -0.19,0.53 -0.58,0.53l-28.26 0 0 19.26 33.25 0c0.39,0 0.58,0.19 0.58,0.58l0 9.87c0,0.39 -0.19,0.58 -0.58,0.58l-44.33 0zm89.42 0c-0.2,0 -0.36,-0.1 -0.49,-0.29l-14.71 -24.98c-2.45,4.19 -4.9,8.35 -7.36,12.49 -2.45,4.13 -4.9,8.29 -7.35,12.49 -0.13,0.19 -0.29,0.29 -0.48,0.29l-11.86 0c-0.26,0 -0.44,-0.09 -0.54,-0.27 -0.1,-0.18 -0.08,-0.38 0.05,-0.6l21.05 -35.28c-3.32,-5.62 -6.61,-11.2 -9.87,-16.75 -3.26,-5.55 -6.53,-11.13 -9.82,-16.75 -0.13,-0.22 -0.14,-0.43 -0.04,-0.61 0.09,-0.18 0.26,-0.27 0.48,-0.27l11.91 0c0.19,0 0.35,0.09 0.48,0.29l13.36 23.23c2.23,-3.87 4.45,-7.74 6.68,-11.59 2.23,-3.86 4.45,-7.74 6.68,-11.64 0.13,-0.19 0.29,-0.29 0.48,-0.29l11.91 0c0.22,0 0.39,0.09 0.48,0.27 0.09,0.18 0.08,0.38 -0.05,0.61l-19.7 33.49c3.55,5.9 7.07,11.78 10.55,17.64 3.48,5.86 7,11.73 10.55,17.64 0.13,0.22 0.14,0.43 0.05,0.6 -0.1,0.18 -0.28,0.27 -0.53,0.27l-11.91 0zm30.38 -59.38l0 21.19 15.05 0c3.71,0 6.47,-1.11 8.27,-3.34 1.84,-2.16 2.76,-4.58 2.76,-7.26 0,-4 -1.42,-6.92 -4.26,-8.76 -1.84,-1.23 -4.23,-1.84 -7.16,-1.84l-14.67 0zm-11.08 59.38c-0.39,0 -0.58,-0.2 -0.58,-0.58l0 -69.35c0,-0.39 0.19,-0.58 0.58,-0.58l25.16 0c2.77,0 5.4,0.29 7.89,0.87 2.52,0.58 5.2,1.97 8.04,4.16 1.1,0.87 2.1,1.88 3.02,3.03 0.92,1.14 1.75,2.41 2.49,3.8 0.71,1.42 1.26,2.98 1.64,4.69 0.38,1.71 0.58,3.53 0.58,5.47 0,5.07 -1.9,9.91 -5.71,14.52 -3.81,4.58 -9.34,6.87 -16.6,6.87l-15.44 0 0 26.52c0,0.39 -0.19,0.58 -0.58,0.58l-10.5 0zm68.9 -60.01l0 19.89 15.34 0c3.74,0 6.55,-1.03 8.42,-3.1 1.87,-2.07 2.81,-4.52 2.81,-7.36 0,-1.61 -0.28,-3.05 -0.85,-4.31 -0.56,-1.26 -1.38,-2.29 -2.45,-3.09 -0.93,-0.65 -2.02,-1.15 -3.27,-1.5 -1.24,-0.36 -2.59,-0.53 -4.04,-0.53l-15.97 0zm-11.08 60.01c-0.39,0 -0.58,-0.2 -0.58,-0.58l0 -69.35c0,-0.39 0.19,-0.58 0.58,-0.58l27.15 0c3,0 5.71,0.41 8.13,1.23 2.42,0.82 4.53,1.99 6.34,3.51 0.94,0.87 1.83,1.86 2.69,2.97 0.85,1.11 1.61,2.32 2.27,3.6 0.66,1.29 1.19,2.67 1.57,4.12 0.39,1.45 0.58,2.95 0.58,4.5 0,2.29 -0.32,4.46 -0.97,6.51 -0.65,2.05 -1.55,3.96 -2.71,5.73 -1.2,1.64 -2.58,3.09 -4.16,4.33 -1.58,1.24 -3.37,2.24 -5.37,2.98 2.61,5 5.24,10.02 7.89,15.08 2.65,5.05 5.28,10.07 7.89,15.08 0.09,0.22 0.09,0.43 0,0.6 -0.1,0.18 -0.26,0.27 -0.48,0.27l-12.49 0c-0.1,0 -0.19,-0.04 -0.29,-0.12 -0.1,-0.08 -0.18,-0.16 -0.24,-0.22l-14.18 -29.28 -12.53 0 0 29.04c0,0.39 -0.19,0.58 -0.58,0.58l-10.5 0zm59.52 0c-0.39,0 -0.58,-0.2 -0.58,-0.58l0 -69.35c0,-0.39 0.19,-0.58 0.58,-0.58l44.33 0c0.39,0 0.58,0.19 0.58,0.58l0 9.97c0,0.39 -0.19,0.58 -0.58,0.58l-33.25 0 0 18.58 28.26 0c0.39,0 0.58,0.2 0.58,0.58l0 9.39c0,0.36 -0.19,0.53 -0.58,0.53l-28.26 0 0 19.26 33.25 0c0.39,0 0.58,0.19 0.58,0.58l0 9.87c0,0.39 -0.19,0.58 -0.58,0.58l-44.33 0zm54.59 -17.81c0.09,-0.13 0.22,-0.2 0.39,-0.2 0.16,0 0.3,0.05 0.44,0.15 2.55,2.06 5.48,3.72 8.78,4.96 3.3,1.24 6.8,1.86 10.48,1.86 4.13,0 7.39,-0.85 9.78,-2.56 2.26,-1.65 3.39,-3.83 3.39,-6.54 0,-5.1 -2.85,-8.03 -8.57,-8.81l0.05 0c-0.8,-0.1 -1.57,-0.2 -2.3,-0.29 -0.73,-0.09 -1.45,-0.19 -2.18,-0.29 -0.73,-0.1 -1.47,-0.2 -2.23,-0.32 -0.76,-0.11 -1.59,-0.23 -2.49,-0.36 -3.03,-0.42 -5.73,-1.19 -8.1,-2.3 -2.37,-1.11 -4.37,-2.59 -5.98,-4.43 -1.61,-1.87 -2.82,-3.91 -3.63,-6.12 -0.81,-2.21 -1.21,-4.62 -1.21,-7.23 0,-6.13 2.03,-11.12 6.1,-14.96 4.1,-3.91 9.79,-5.86 17.08,-5.86 2.17,0 4.27,0.19 6.32,0.56 2.05,0.37 4.03,0.88 5.95,1.53 1.92,0.65 3.76,1.41 5.52,2.3 1.76,0.89 3.44,1.86 5.06,2.92 0.32,0.22 0.37,0.5 0.14,0.82l-5.85 8.66c-0.22,0.29 -0.48,0.34 -0.77,0.15 -2.52,-1.58 -5.19,-2.85 -8.03,-3.8 -2.84,-0.95 -5.78,-1.43 -8.81,-1.43 -1.55,0 -2.98,0.19 -4.31,0.56 -1.32,0.37 -2.51,0.97 -3.58,1.81 -2.1,1.52 -3.15,3.82 -3.15,6.92 0,1.78 0.71,3.5 2.13,5.18 0.71,0.77 1.67,1.43 2.86,1.96 1.19,0.53 2.66,0.93 4.4,1.19 0.94,0.16 2.04,0.33 3.3,0.51 1.26,0.18 2.74,0.36 4.45,0.56 6.62,0.81 11.52,3.24 14.71,7.31 3.19,3.97 4.79,8.39 4.79,13.26 0,6.52 -2.27,11.62 -6.82,15.29 -4.58,3.62 -10.61,5.42 -18.1,5.42 -10.55,0 -19.52,-3.23 -26.91,-9.68 -0.13,-0.09 -0.2,-0.22 -0.2,-0.39 0,-0.16 0.05,-0.3 0.15,-0.44l6.97 -7.89zm55.92 0c0.1,-0.13 0.23,-0.2 0.39,-0.2 0.16,0 0.3,0.05 0.44,0.15 2.55,2.06 5.48,3.72 8.78,4.96 3.31,1.24 6.8,1.86 10.48,1.86 4.13,0 7.39,-0.85 9.78,-2.56 2.26,-1.65 3.39,-3.83 3.39,-6.54 0,-5.1 -2.85,-8.03 -8.57,-8.81l0.05 0c-0.81,-0.1 -1.58,-0.2 -2.3,-0.29 -0.73,-0.09 -1.45,-0.19 -2.17,-0.29 -0.73,-0.1 -1.47,-0.2 -2.23,-0.32 -0.76,-0.11 -1.59,-0.23 -2.49,-0.36 -3.03,-0.42 -5.73,-1.19 -8.1,-2.3 -2.38,-1.11 -4.37,-2.59 -5.98,-4.43 -1.61,-1.87 -2.82,-3.91 -3.63,-6.12 -0.81,-2.21 -1.21,-4.62 -1.21,-7.23 0,-6.13 2.03,-11.12 6.1,-14.96 4.1,-3.91 9.79,-5.86 17.08,-5.86 2.16,0 4.27,0.19 6.32,0.56 2.05,0.37 4.03,0.88 5.95,1.53 1.92,0.65 3.76,1.41 5.52,2.3 1.76,0.89 3.44,1.86 5.06,2.92 0.32,0.22 0.37,0.5 0.14,0.82l-5.85 8.66c-0.22,0.29 -0.48,0.34 -0.77,0.15 -2.52,-1.58 -5.19,-2.85 -8.03,-3.8 -2.84,-0.95 -5.78,-1.43 -8.81,-1.43 -1.55,0 -2.98,0.19 -4.31,0.56 -1.32,0.37 -2.52,0.97 -3.58,1.81 -2.1,1.52 -3.15,3.82 -3.15,6.92 0,1.78 0.71,3.5 2.13,5.18 0.71,0.77 1.66,1.43 2.85,1.96 1.19,0.53 2.66,0.93 4.41,1.19 0.94,0.16 2.03,0.33 3.29,0.51 1.26,0.18 2.74,0.36 4.45,0.56 6.62,0.81 11.52,3.24 14.71,7.31 3.19,3.97 4.79,8.39 4.79,13.26 0,6.52 -2.27,11.62 -6.83,15.29 -4.58,3.62 -10.61,5.42 -18.1,5.42 -10.55,0 -19.52,-3.23 -26.91,-9.68 -0.13,-0.09 -0.2,-0.22 -0.2,-0.39 0,-0.16 0.05,-0.3 0.15,-0.44l6.97 -7.89zm66.75 17.81c-0.32,0 -0.51,-0.15 -0.58,-0.44l-17.38 -69.35c-0.06,-0.19 -0.03,-0.36 0.1,-0.51 0.13,-0.14 0.29,-0.22 0.49,-0.22l11.13 0c0.32,0 0.52,0.14 0.58,0.43l10.45 47.38c2.13,-7.94 4.28,-15.83 6.44,-23.67 2.16,-7.84 4.32,-15.74 6.49,-23.71 0.07,-0.29 0.26,-0.43 0.58,-0.43l7.6 0c0.29,0 0.47,0.14 0.53,0.43l12.97 47.38c1.74,-7.94 3.48,-15.83 5.23,-23.67 1.74,-7.84 3.48,-15.74 5.23,-23.71 0.06,-0.29 0.25,-0.43 0.58,-0.43l11.13 0c0.2,0 0.36,0.07 0.49,0.22 0.13,0.15 0.16,0.31 0.1,0.51l-17.37 69.35c-0.07,0.29 -0.26,0.44 -0.58,0.44l-8.76 0c-0.29,0 -0.47,-0.15 -0.53,-0.44l-12.83 -48.15c-2.13,8.1 -4.26,16.13 -6.39,24.1 -2.13,7.97 -4.26,15.99 -6.39,24.05 -0.07,0.29 -0.24,0.44 -0.53,0.44l-8.76 0zm61.68 -0.05c-0.23,0 -0.39,-0.08 -0.49,-0.24 -0.1,-0.16 -0.11,-0.34 -0.05,-0.54l25.36 -69.4c0.06,-0.26 0.22,-0.39 0.48,-0.39l8.67 0c0.1,0 0.2,0.04 0.31,0.12 0.11,0.08 0.19,0.17 0.22,0.27l25.31 69.4c0.06,0.19 0.05,0.37 -0.05,0.54 -0.1,0.16 -0.24,0.24 -0.44,0.24l-11.08 0c-0.26,0 -0.42,-0.13 -0.49,-0.39l-5.23 -15.29 -25.55 0c-0.9,2.61 -1.8,5.17 -2.68,7.67 -0.89,2.5 -1.79,5.04 -2.69,7.62 -0.03,0.1 -0.1,0.19 -0.22,0.27 -0.11,0.08 -0.22,0.12 -0.31,0.12l-11.08 0zm39.05 -26.09c-0.07,-0.22 -0.15,-0.47 -0.27,-0.72 -0.11,-0.26 -0.2,-0.49 -0.27,-0.68 -0.55,-1.58 -1.05,-3.04 -1.5,-4.38 -0.45,-1.34 -0.85,-2.51 -1.21,-3.51 -0.22,-0.65 -0.44,-1.28 -0.65,-1.89 -0.21,-0.61 -0.41,-1.2 -0.6,-1.74 -0.16,-0.52 -0.33,-1.01 -0.49,-1.48 -0.16,-0.47 -0.33,-0.93 -0.48,-1.38 -0.29,-0.94 -0.59,-1.87 -0.89,-2.81 -0.31,-0.94 -0.63,-1.91 -0.95,-2.91 -0.16,-0.45 -0.33,-0.95 -0.51,-1.5 -0.18,-0.55 -0.36,-1.13 -0.56,-1.74 -0.1,-0.32 -0.17,-0.57 -0.22,-0.75 -0.05,-0.18 -0.1,-0.36 -0.17,-0.54 -0.07,-0.17 -0.14,-0.37 -0.22,-0.6 -0.08,-0.23 -0.19,-0.55 -0.32,-0.97 -0.36,1.06 -0.69,2.05 -0.99,2.95 -0.31,0.9 -0.59,1.74 -0.85,2.52 -0.06,0.19 -0.11,0.37 -0.14,0.53 -0.03,0.16 -0.08,0.32 -0.15,0.48 -0.16,0.55 -0.33,1.07 -0.51,1.55 -0.18,0.48 -0.35,0.97 -0.51,1.45 -0.16,0.52 -0.32,1.02 -0.48,1.5 -0.16,0.48 -0.32,0.95 -0.48,1.41 -0.32,0.97 -0.66,1.98 -1,3.04 -0.34,1.07 -0.72,2.18 -1.13,3.34 -0.42,1.16 -0.86,2.41 -1.31,3.75 -0.45,1.34 -1.03,3.03 -1.74,5.06l18.58 0zm36.99 26.14c-0.36,0 -0.53,-0.2 -0.53,-0.58l0 -28.36c-3.48,-6.81 -6.95,-13.6 -10.4,-20.38 -3.45,-6.77 -6.9,-13.57 -10.36,-20.37 -0.1,-0.22 -0.1,-0.42 0,-0.58 0.1,-0.16 0.28,-0.24 0.53,-0.24l11.03 0c0.1,0 0.19,0.04 0.29,0.12 0.1,0.08 0.18,0.15 0.24,0.22l14.22 29.72c2.39,-5 4.75,-9.96 7.09,-14.86 2.34,-4.9 4.71,-9.85 7.09,-14.85 0.07,-0.07 0.15,-0.14 0.24,-0.22 0.09,-0.08 0.19,-0.12 0.29,-0.12l11.08 0c0.26,0 0.44,0.08 0.54,0.24 0.09,0.16 0.09,0.36 0,0.58l-20.82 40.75 0 28.36c0,0.39 -0.19,0.58 -0.58,0.58l-9.97 0z"/>
   <path class="fil7" d="M215.55 335.61c0.27,0 0.5,0.09 0.66,0.29 0.18,0.2 0.23,0.43 0.14,0.7 -1.86,9.02 -5.96,15.97 -12.35,20.84 -3.08,2.33 -6.46,4.1 -10.08,5.3 -3.63,1.2 -7.55,1.79 -11.76,1.79 -7.66,0 -14.09,-1.83 -19.3,-5.51 -5.14,-3.62 -8.86,-7.61 -11.15,-11.94 -0.82,-1.52 -1.5,-3.04 -2.06,-4.56 -0.59,-1.52 -1.02,-3.13 -1.34,-4.83 -0.57,-3.26 -0.86,-10.69 -0.86,-22.29 0,-5.8 0.07,-10.53 0.2,-14.21 0.14,-3.67 0.36,-6.34 0.66,-8.02 0.32,-1.7 0.75,-3.31 1.34,-4.85 0.57,-1.56 1.25,-3.08 2.06,-4.58 2.29,-4.31 6,-8.29 11.15,-11.96 5.17,-3.72 11.62,-5.57 19.3,-5.57 9.22,0 16.83,2.83 22.84,8.5 6.12,5.71 9.9,12.48 11.35,20.32 0.09,0.25 0.05,0.48 -0.14,0.66 -0.16,0.18 -0.38,0.27 -0.66,0.27l-15.2 0c-0.38,0 -0.64,-0.18 -0.73,-0.55 -0.59,-1.77 -1.4,-3.42 -2.47,-4.94 -1.04,-1.52 -2.36,-2.95 -3.9,-4.28 -2.92,-2.61 -6.62,-3.92 -11.1,-3.92 -3.31,0 -6.14,0.66 -8.5,1.99 -2.33,1.34 -4.22,2.85 -5.64,4.58 -0.84,1.07 -1.56,2.27 -2.18,3.62 -0.63,1.34 -1.11,2.72 -1.47,4.15 -0.34,1.49 -0.59,3.83 -0.72,6.98 -0.14,3.13 -0.21,7.07 -0.21,11.8 0,4.83 0.07,8.79 0.21,11.92 0.14,3.13 0.38,5.44 0.72,6.93 0.36,1.38 0.86,2.74 1.49,4.08 0.63,1.36 1.36,2.54 2.15,3.56 1.43,1.86 3.31,3.44 5.64,4.73 2.36,1.32 5.19,1.97 8.5,1.97 7.66,0 13.48,-4.19 17.47,-12.55 0.09,-0.09 0.2,-0.18 0.34,-0.29 0.11,-0.11 0.25,-0.16 0.38,-0.16l15.2 0z"/>
   <path id="_1" class="fil7" d="M243.37 363.75c-0.54,0 -0.82,-0.27 -0.82,-0.79l0 -81.52 -25.29 0c-0.52,0 -0.79,-0.27 -0.79,-0.79l0 -12.8c0,-0.54 0.27,-0.82 0.79,-0.82l66.52 0c0.52,0 0.79,0.27 0.79,0.82l0 12.8c0,0.52 -0.27,0.79 -0.79,0.79l-25.24 0 0 81.52c0,0.52 -0.25,0.79 -0.79,0.79l-14.39 0z"/>
   <path id="_2" class="fil7" d="M279.15 363.75c-0.52,0 -0.79,-0.27 -0.79,-0.79l0 -13.48c0,-0.52 0.27,-0.79 0.79,-0.79l13.55 0c0.48,0 0.72,0.27 0.72,0.79l0 13.48c0,0.52 -0.25,0.79 -0.72,0.79l-13.55 0z"/>
   <path id="_3" class="fil7" d="M347.1 295.64c0,-4.28 -1.13,-7.63 -3.4,-10.06 -2.29,-2.4 -5.32,-3.6 -9.13,-3.6 -3.81,0 -6.84,1.2 -9.11,3.6 -2.24,2.42 -3.38,5.78 -3.38,10.06l0 40.17c0,4.33 1.13,7.68 3.38,10.08 2.26,2.38 5.3,3.58 9.11,3.58 3.81,0 6.84,-1.2 9.13,-3.58 2.26,-2.4 3.4,-5.76 3.4,-10.08l0 -40.17zm-40.15 -0.79c0,-8.95 2.81,-15.81 8.43,-20.64 5.57,-4.92 11.96,-7.36 19.19,-7.36 3.58,0 6.98,0.61 10.17,1.88 3.22,1.27 6.21,3.08 8.99,5.48 2.81,2.47 4.92,5.44 6.34,8.86 1.45,3.42 2.15,7.36 2.15,11.78l0 41.76c0,8.88 -2.83,15.77 -8.5,20.64 -5.57,4.87 -11.96,7.29 -19.17,7.29 -7.23,0 -13.62,-2.42 -19.19,-7.29 -5.62,-4.83 -8.43,-11.71 -8.43,-20.64l0 -41.76z"/>
   <path id="_4" class="fil7" d="M390.06 363.95c-0.52,0 -0.79,-0.27 -0.79,-0.79l0 -78.87c-2.04,1.49 -4.08,3.01 -6.12,4.55 -2.02,1.52 -4.05,3.01 -6.09,4.49 -0.32,0.2 -0.61,0.25 -0.86,0.09 -0.27,-0.16 -0.41,-0.41 -0.41,-0.77l0 -14.41c0,-0.07 0.05,-0.18 0.11,-0.32 0.07,-0.14 0.14,-0.25 0.23,-0.34l13.66 -9.88 13.89 0c0.52,0 0.79,0.25 0.79,0.79l0 94.66c0,0.52 -0.27,0.79 -0.79,0.79l-13.62 0z"/>
   <path class="fil4" d="M697.83 202.46c-0.51,0 -0.77,-0.26 -0.77,-0.75l0 -76.91 -23.86 0c-0.49,0 -0.75,-0.26 -0.75,-0.75l0 -12.08c0,-0.51 0.26,-0.77 0.75,-0.77l62.76 0c0.49,0 0.75,0.26 0.75,0.77l0 12.08c0,0.49 -0.26,0.75 -0.75,0.75l-23.81 0 0 76.91c0,0.49 -0.23,0.75 -0.75,0.75l-13.57 0z"/>
   <path id="_1_0" class="fil4" d="M744.23 111.97c0,-0.51 0.23,-0.77 0.75,-0.77l13.64 0c0.47,0 0.71,0.26 0.71,0.77l0 57.87c0,6.01 1.67,10.56 5,13.64 3.38,3.14 7.59,4.7 12.59,4.7 4.92,0 9.09,-1.56 12.46,-4.7 3.38,-3.12 5.07,-7.68 5.07,-13.64l0 -57.87c0,-0.51 0.26,-0.77 0.75,-0.77l13.6 0c0.51,0 0.75,0.26 0.75,0.77l0 59.36c0,9.6 -3.18,17.31 -9.58,23.17 -6.31,5.79 -13.98,8.7 -23.04,8.7 -9.11,0 -16.82,-2.91 -23.17,-8.7 -6.35,-5.86 -9.51,-13.57 -9.51,-23.17l0 -59.36zm19.15 -8.85c-0.34,0 -0.56,-0.11 -0.66,-0.34 -0.11,-0.21 -0.08,-0.49 0.04,-0.77l13.08 -18.3c0.17,-0.24 0.38,-0.36 0.62,-0.36l13.79 0c0.34,0 0.58,0.15 0.73,0.43 0.13,0.3 0.08,0.58 -0.17,0.81l-17.27 18.3c-0.04,0.04 -0.13,0.09 -0.26,0.15 -0.13,0.06 -0.24,0.09 -0.32,0.09l-9.58 0z"/>
   <path id="_2_1" class="fil4" d="M845.24 202.46c-0.47,0 -0.68,-0.26 -0.68,-0.75l0 -36.7c-4.51,-8.81 -9,-17.59 -13.47,-26.36 -4.47,-8.78 -8.94,-17.57 -13.4,-26.38 -0.13,-0.3 -0.13,-0.54 0,-0.75 0.13,-0.21 0.34,-0.32 0.69,-0.32l14.28 0c0.13,0 0.26,0.07 0.38,0.17 0.11,0.1 0.21,0.19 0.3,0.28l18.43 38.46c3.08,-6.48 6.14,-12.89 9.17,-19.24 3.02,-6.35 6.07,-12.74 9.17,-19.22 0.08,-0.09 0.19,-0.17 0.32,-0.28 0.11,-0.11 0.24,-0.17 0.36,-0.17l14.34 0c0.34,0 0.56,0.11 0.68,0.32 0.13,0.21 0.13,0.45 0,0.75l-26.91 52.74 0 36.7c0,0.49 -0.26,0.75 -0.77,0.75l-12.89 0z"/>
   <path id="_3_2" class="fil4" d="M926.64 202.46c-0.49,0 -0.75,-0.26 -0.75,-0.75l0 -89.74c0,-0.51 0.26,-0.77 0.75,-0.77l13.6 0c0.49,0 0.75,0.26 0.75,0.77l0 76.21 43.03 0c0.49,0 0.75,0.26 0.75,0.75l0 12.78c0,0.49 -0.26,0.75 -0.75,0.75l-57.38 0z"/>
   <path id="_4_3" class="fil4" d="M994.15 156.87c0,-5.47 0.08,-9.94 0.21,-13.4 0.15,-3.46 0.34,-5.99 0.6,-7.57 0.3,-1.6 0.71,-3.12 1.26,-4.58 0.54,-1.47 1.2,-2.91 2.01,-4.32l-0.06 0c2.16,-4.06 5.66,-7.82 10.52,-11.29 4.87,-3.51 10.97,-5.26 18.21,-5.26 7.18,0 13.23,1.75 18.11,5.26 4.94,3.55 8.49,7.31 10.65,11.29 1.54,2.82 2.59,5.79 3.14,8.89 0.28,1.58 0.49,4.1 0.64,7.57 0.15,3.46 0.23,7.93 0.23,13.4 0,10.73 -0.3,17.74 -0.88,21.03 -0.3,1.65 -0.7,3.19 -1.24,4.64 -0.51,1.47 -1.13,2.87 -1.84,4.21 -2.22,4 -5.77,7.76 -10.71,11.27 -4.92,3.46 -10.97,5.2 -18.11,5.2 -7.22,0 -13.3,-1.73 -18.21,-5.2 -4.85,-3.42 -8.36,-7.18 -10.52,-11.27l0.06 0c-0.81,-1.43 -1.47,-2.87 -2.01,-4.3 -0.56,-1.43 -0.96,-2.95 -1.26,-4.55 -0.26,-1.58 -0.45,-4.1 -0.6,-7.59 -0.13,-3.51 -0.21,-7.97 -0.21,-13.44zm15.09 0c0,4.55 0.06,8.29 0.19,11.24 0.13,2.95 0.36,5.13 0.69,6.54 0.34,1.3 0.81,2.59 1.41,3.85 0.6,1.28 1.28,2.39 2.03,3.36 1.35,1.75 3.12,3.25 5.32,4.47 2.22,1.24 4.89,1.86 8.02,1.86 3.1,0 5.75,-0.62 7.95,-1.86 2.22,-1.22 3.97,-2.71 5.28,-4.47 1.75,-2.14 2.89,-4.53 3.44,-7.2 0.66,-2.67 1,-8.59 1,-17.79 0,-4.55 -0.09,-8.3 -0.26,-11.24 -0.17,-2.93 -0.43,-5.11 -0.75,-6.48 -0.3,-1.35 -0.75,-2.65 -1.33,-3.91 -0.58,-1.28 -1.26,-2.42 -2.07,-3.42 -0.62,-0.79 -1.37,-1.56 -2.27,-2.31 -0.9,-0.75 -1.92,-1.41 -3.06,-1.97 -1.11,-0.58 -2.35,-1.03 -3.68,-1.39 -1.35,-0.36 -2.76,-0.54 -4.28,-0.54 -3.12,0 -5.79,0.62 -8.02,1.88 -2.2,1.26 -3.98,2.69 -5.32,4.32 -0.79,1 -1.48,2.14 -2.05,3.42 -0.6,1.26 -1.05,2.56 -1.39,3.91 -0.32,1.41 -0.56,3.61 -0.69,6.58 -0.13,2.95 -0.19,6.67 -0.19,11.14z"/>
   <path id="_5" class="fil4" d="M1065.06 202.4c-0.3,0 -0.51,-0.11 -0.62,-0.32 -0.13,-0.19 -0.15,-0.43 -0.06,-0.68l32.81 -89.8c0.08,-0.34 0.28,-0.51 0.62,-0.51l11.2 0c0.13,0 0.28,0.06 0.43,0.17 0.13,0.11 0.23,0.21 0.28,0.34l32.75 89.8c0.09,0.26 0.06,0.49 -0.06,0.68 -0.13,0.21 -0.32,0.32 -0.56,0.32l-14.34 0c-0.34,0 -0.56,-0.17 -0.64,-0.49l-6.76 -19.79 -33.07 0c-1.18,3.38 -2.33,6.69 -3.46,9.92 -1.15,3.23 -2.31,6.52 -3.48,9.88 -0.04,0.11 -0.13,0.23 -0.28,0.34 -0.15,0.11 -0.28,0.15 -0.41,0.15l-14.34 0zm50.54 -33.75c-0.09,-0.3 -0.19,-0.6 -0.34,-0.94 -0.15,-0.34 -0.26,-0.62 -0.34,-0.87 -0.7,-2.05 -1.37,-3.93 -1.95,-5.67 -0.58,-1.73 -1.11,-3.25 -1.56,-4.55 -0.3,-0.83 -0.58,-1.64 -0.85,-2.44 -0.26,-0.79 -0.54,-1.54 -0.77,-2.24 -0.21,-0.69 -0.43,-1.3 -0.64,-1.92 -0.19,-0.6 -0.41,-1.2 -0.62,-1.77 -0.38,-1.22 -0.77,-2.44 -1.15,-3.63 -0.41,-1.22 -0.81,-2.46 -1.22,-3.76 -0.21,-0.58 -0.43,-1.22 -0.66,-1.95 -0.23,-0.71 -0.47,-1.46 -0.73,-2.25 -0.13,-0.43 -0.21,-0.75 -0.28,-0.98 -0.06,-0.21 -0.13,-0.45 -0.21,-0.68 -0.08,-0.23 -0.19,-0.49 -0.28,-0.77 -0.11,-0.3 -0.26,-0.73 -0.41,-1.26 -0.47,1.37 -0.9,2.65 -1.28,3.83 -0.41,1.15 -0.77,2.24 -1.11,3.25 -0.09,0.26 -0.15,0.47 -0.19,0.68 -0.02,0.21 -0.08,0.43 -0.17,0.64 -0.21,0.71 -0.43,1.37 -0.66,1.99 -0.23,0.64 -0.45,1.26 -0.66,1.88 -0.21,0.66 -0.41,1.33 -0.62,1.95 -0.21,0.62 -0.43,1.24 -0.62,1.82 -0.43,1.26 -0.85,2.56 -1.3,3.95 -0.43,1.37 -0.92,2.8 -1.45,4.32 -0.56,1.5 -1.11,3.12 -1.69,4.85 -0.6,1.73 -1.35,3.91 -2.27,6.54l24.05 0z"/>
   <path id="_6" class="fil4" d="M1153.79 202.46c-0.49,0 -0.75,-0.26 -0.75,-0.75l0 -89.74c0,-0.51 0.26,-0.77 0.75,-0.77l12.89 0c0.26,0 0.47,0.13 0.64,0.38l39.44 62.12 0 -61.74c0,-0.51 0.26,-0.77 0.77,-0.77l13.64 0c0.51,0 0.75,0.26 0.75,0.77l0 89.74c0,0.49 -0.23,0.75 -0.75,0.75l-12.83 0c-0.26,0 -0.47,-0.13 -0.64,-0.38l-39.57 -62.12 0 61.76c0,0.49 -0.23,0.75 -0.68,0.75l-13.66 0z"/>
   <path class="fil4" d="M630.55 359.56c-0.17,-0.13 -0.26,-0.28 -0.28,-0.49 -0.02,-0.21 0.02,-0.41 0.15,-0.58l8.08 -9.26c0.34,-0.38 0.66,-0.41 1,-0.06l9.58 7.5c0.34,-1.62 0.58,-3.85 0.73,-6.69 0.15,-2.84 0.21,-6.43 0.21,-10.77 0,-4.55 -0.09,-8.3 -0.24,-11.24 -0.17,-2.93 -0.43,-5.11 -0.77,-6.48 -0.32,-1.35 -0.79,-2.65 -1.37,-3.91 -0.58,-1.28 -1.26,-2.42 -2.01,-3.42 -0.62,-0.79 -1.39,-1.56 -2.29,-2.31 -0.9,-0.75 -1.9,-1.41 -3.03,-1.97 -1.13,-0.58 -2.35,-1.03 -3.7,-1.39 -1.33,-0.36 -2.78,-0.54 -4.32,-0.54 -3.08,0 -5.75,0.62 -7.97,1.88 -2.24,1.26 -4,2.69 -5.3,4.32 -0.83,1 -1.54,2.14 -2.1,3.42 -0.56,1.26 -1,2.56 -1.35,3.91 -0.62,2.84 -0.94,8.74 -0.94,17.72 0,9.06 0.32,14.98 0.94,17.79 0.34,1.3 0.79,2.59 1.37,3.85 0.6,1.28 1.28,2.39 2.07,3.36 1.3,1.75 3.06,3.25 5.3,4.47 2.22,1.24 4.9,1.86 7.97,1.86 3.38,0 6.35,-0.83 8.89,-2.5l-10.64 -8.47zm34.89 27.06c-0.13,0.13 -0.3,0.19 -0.49,0.19 -0.21,0 -0.41,-0.06 -0.58,-0.19l-10.84 -8.59c-2.71,2.22 -5.84,4.02 -9.38,5.43 -3.55,1.39 -7.5,2.1 -11.84,2.1 -7.18,0 -13.25,-1.73 -18.21,-5.2 -4.77,-3.42 -8.27,-7.18 -10.54,-11.27l0.06 0c-0.75,-1.43 -1.39,-2.87 -1.92,-4.3 -0.56,-1.43 -0.96,-2.95 -1.26,-4.55 -0.58,-3.29 -0.87,-10.3 -0.87,-21.03 0,-5.47 0.06,-9.94 0.21,-13.4 0.15,-3.46 0.36,-5.99 0.66,-7.57 0.3,-1.6 0.71,-3.12 1.26,-4.58 0.54,-1.47 1.18,-2.91 1.92,-4.32l-0.06 0c1.09,-2.01 2.52,-3.95 4.28,-5.84 1.75,-1.88 3.83,-3.7 6.26,-5.45 4.92,-3.51 10.99,-5.26 18.21,-5.26 7.22,0 13.28,1.75 18.17,5.26 4.83,3.55 8.38,7.31 10.65,11.29 0.7,1.37 1.33,2.8 1.88,4.28 0.53,1.5 0.96,3.02 1.24,4.62 0.3,1.58 0.51,4.1 0.66,7.57 0.15,3.46 0.21,7.93 0.21,13.4 0,9.77 -0.23,16.35 -0.75,19.73 -0.21,1.58 -0.51,3.06 -0.9,4.4 -0.41,1.37 -0.9,2.63 -1.47,3.81 1.88,1.45 3.78,2.97 5.69,4.53 1.92,1.56 3.83,3.08 5.71,4.56 0.17,0.1 0.28,0.28 0.32,0.49 0.04,0.21 -0.02,0.41 -0.19,0.56l-8.08 9.34z"/>
   <path id="_1_4" class="fil4" d="M681.66 294.31c0,-0.51 0.23,-0.77 0.75,-0.77l13.64 0c0.47,0 0.71,0.26 0.71,0.77l0 57.87c0,6.01 1.67,10.56 5,13.64 3.38,3.14 7.59,4.7 12.59,4.7 4.92,0 9.09,-1.56 12.46,-4.7 3.38,-3.12 5.07,-7.68 5.07,-13.64l0 -57.87c0,-0.51 0.26,-0.77 0.75,-0.77l13.6 0c0.51,0 0.75,0.26 0.75,0.77l0 59.36c0,9.6 -3.18,17.31 -9.58,23.17 -6.31,5.79 -13.98,8.7 -23.04,8.7 -9.11,0 -16.82,-2.91 -23.17,-8.7 -6.35,-5.86 -9.51,-13.57 -9.51,-23.17l0 -59.36z"/>
   <path id="_2_5" class="fil4" d="M755.98 384.74c-0.3,0 -0.51,-0.11 -0.62,-0.32 -0.13,-0.19 -0.15,-0.43 -0.06,-0.68l32.81 -89.8c0.08,-0.34 0.28,-0.51 0.62,-0.51l11.2 0c0.13,0 0.28,0.06 0.43,0.17 0.13,0.11 0.23,0.21 0.28,0.34l32.75 89.8c0.09,0.26 0.06,0.49 -0.06,0.68 -0.13,0.21 -0.32,0.32 -0.56,0.32l-14.34 0c-0.34,0 -0.56,-0.17 -0.64,-0.49l-6.76 -19.79 -33.07 0c-1.18,3.38 -2.33,6.69 -3.46,9.92 -1.15,3.23 -2.31,6.52 -3.48,9.88 -0.04,0.11 -0.13,0.23 -0.28,0.34 -0.15,0.11 -0.28,0.15 -0.41,0.15l-14.34 0zm50.54 -33.75c-0.09,-0.3 -0.19,-0.6 -0.34,-0.94 -0.15,-0.34 -0.26,-0.62 -0.34,-0.87 -0.7,-2.05 -1.37,-3.93 -1.95,-5.67 -0.58,-1.73 -1.11,-3.25 -1.56,-4.55 -0.3,-0.83 -0.58,-1.64 -0.85,-2.44 -0.26,-0.79 -0.54,-1.54 -0.77,-2.24 -0.21,-0.69 -0.43,-1.3 -0.64,-1.92 -0.19,-0.6 -0.41,-1.2 -0.62,-1.77 -0.38,-1.22 -0.77,-2.44 -1.15,-3.63 -0.41,-1.22 -0.81,-2.46 -1.22,-3.76 -0.21,-0.58 -0.43,-1.22 -0.66,-1.95 -0.23,-0.71 -0.47,-1.46 -0.73,-2.25 -0.13,-0.43 -0.21,-0.75 -0.28,-0.98 -0.06,-0.21 -0.13,-0.45 -0.21,-0.68 -0.08,-0.23 -0.19,-0.49 -0.28,-0.77 -0.11,-0.3 -0.26,-0.73 -0.41,-1.26 -0.47,1.37 -0.9,2.65 -1.28,3.83 -0.41,1.15 -0.77,2.24 -1.11,3.25 -0.09,0.26 -0.15,0.47 -0.19,0.68 -0.02,0.21 -0.08,0.43 -0.17,0.64 -0.21,0.71 -0.43,1.37 -0.66,1.99 -0.23,0.64 -0.45,1.26 -0.66,1.88 -0.21,0.66 -0.41,1.33 -0.62,1.95 -0.21,0.62 -0.43,1.24 -0.62,1.82 -0.43,1.26 -0.85,2.56 -1.3,3.95 -0.43,1.37 -0.92,2.8 -1.45,4.32 -0.56,1.5 -1.11,3.12 -1.69,4.85 -0.6,1.73 -1.35,3.91 -2.27,6.54l24.05 0zm-13 -65.52c-1.73,0 -3.12,0 -4.17,0l0 -2.87c0.47,-2.63 2.1,-4.79 4.89,-6.45 4.38,-1.84 6.39,-4.02 6.01,-6.52 -0.58,-2.54 -2.54,-3.83 -5.88,-3.87 -4.43,0.06 -6.78,2.22 -7.01,6.43l-9.34 0c0,-2.33 0.43,-4.28 1.28,-5.81 0.85,-1.54 2.01,-3.06 3.48,-4.51 2.89,-2.76 6.63,-4.17 11.27,-4.25 4.89,0.09 8.89,1.46 12.03,4.13 1.41,1.41 2.52,2.8 3.31,4.12 0.79,1.35 1.2,3.04 1.24,5.09 -0.23,2.89 -1.84,5.41 -4.81,7.57 -2.5,1.22 -4.43,2.18 -5.77,2.89l-0.75 0.81 -0.81 1.26 -0.13 1.99c-1.5,0 -3.12,0 -4.85,0z"/>
   <path id="_3_6" class="fil4" d="M844.72 384.8c-0.49,0 -0.75,-0.26 -0.75,-0.75l0 -89.74c0,-0.51 0.26,-0.77 0.75,-0.77l12.89 0c0.26,0 0.47,0.13 0.64,0.38l39.44 62.12 0 -61.74c0,-0.51 0.26,-0.77 0.77,-0.77l13.64 0c0.51,0 0.75,0.26 0.75,0.77l0 89.74c0,0.49 -0.23,0.75 -0.75,0.75l-12.83 0c-0.26,0 -0.47,-0.13 -0.64,-0.38l-39.57 -62.12 0 61.76c0,0.49 -0.23,0.75 -0.68,0.75l-13.66 0z"/>
   <path id="_4_7" class="fil4" d="M961.52 348.29c-0.49,0 -0.75,-0.26 -0.75,-0.75l0 -12.91c0,-0.45 0.26,-0.68 0.75,-0.68l31.87 0c0.51,0 0.77,0.23 0.77,0.68l0 18.3c0,9.22 -3.18,16.95 -9.53,23.17 -6.41,6.31 -14.17,9.45 -23.24,9.45 -7.22,0 -13.3,-1.73 -18.21,-5.2 -4.85,-3.42 -8.36,-7.18 -10.52,-11.27l0.06 0c-0.81,-1.43 -1.47,-2.87 -2.01,-4.3 -0.56,-1.43 -0.96,-2.95 -1.26,-4.55 -0.26,-1.58 -0.45,-4.1 -0.6,-7.59 -0.13,-3.51 -0.21,-7.97 -0.21,-13.44 0,-5.47 0.08,-9.94 0.21,-13.4 0.15,-3.46 0.34,-5.99 0.6,-7.57 0.3,-1.6 0.71,-3.12 1.26,-4.58 0.54,-1.47 1.2,-2.91 2.01,-4.32l-0.06 0c2.16,-4.06 5.66,-7.82 10.52,-11.29 4.87,-3.51 10.97,-5.26 18.21,-5.26 8.7,0 15.88,2.67 21.55,8.02 5.77,5.34 9.34,11.73 10.71,19.17 0.08,0.24 0.04,0.45 -0.13,0.62 -0.15,0.17 -0.36,0.26 -0.62,0.26l-14.34 0c-0.36,0 -0.6,-0.17 -0.69,-0.51 -0.56,-1.67 -1.32,-3.23 -2.33,-4.66 -0.98,-1.43 -2.22,-2.78 -3.68,-4.04 -2.76,-2.46 -6.24,-3.7 -10.47,-3.7 -3.12,0 -5.79,0.62 -8.02,1.88 -2.2,1.26 -3.98,2.69 -5.32,4.32 -0.79,1 -1.48,2.14 -2.05,3.42 -0.6,1.26 -1.05,2.56 -1.39,3.91 -0.32,1.41 -0.56,3.61 -0.69,6.58 -0.13,2.95 -0.19,6.67 -0.19,11.14 0,4.55 0.06,8.29 0.19,11.24 0.13,2.95 0.36,5.13 0.69,6.54 0.34,1.3 0.81,2.59 1.41,3.85 0.6,1.28 1.28,2.39 2.03,3.36 1.35,1.75 3.12,3.25 5.32,4.47 2.22,1.24 4.89,1.86 8.02,1.86 4.98,0 9.15,-1.69 12.53,-5.07 3.42,-3.4 5.15,-7.82 5.15,-13.27l0 -3.89 -17.55 0z"/>
   <path id="_5_8" class="fil4" d="M1041.36 384.8c-0.49,0 -0.75,-0.26 -0.75,-0.75l0 -89.74c0,-0.51 0.26,-0.77 0.75,-0.77l12.89 0c0.26,0 0.47,0.13 0.64,0.38l39.44 62.12 0 -61.74c0,-0.51 0.26,-0.77 0.77,-0.77l13.64 0c0.51,0 0.75,0.26 0.75,0.77l0 89.74c0,0.49 -0.23,0.75 -0.75,0.75l-12.83 0c-0.26,0 -0.47,-0.13 -0.64,-0.38l-39.57 -62.12 0 61.76c0,0.49 -0.23,0.75 -0.68,0.75l-13.66 0z"/>
   <path id="_6_9" class="fil4" d="M1158.16 348.29c-0.49,0 -0.75,-0.26 -0.75,-0.75l0 -12.91c0,-0.45 0.26,-0.68 0.75,-0.68l31.87 0c0.51,0 0.77,0.23 0.77,0.68l0 18.3c0,9.22 -3.18,16.95 -9.53,23.17 -6.41,6.31 -14.17,9.45 -23.24,9.45 -7.22,0 -13.3,-1.73 -18.21,-5.2 -4.85,-3.42 -8.36,-7.18 -10.52,-11.27l0.06 0c-0.81,-1.43 -1.47,-2.87 -2.01,-4.3 -0.56,-1.43 -0.96,-2.95 -1.26,-4.55 -0.26,-1.58 -0.45,-4.1 -0.6,-7.59 -0.13,-3.51 -0.21,-7.97 -0.21,-13.44 0,-5.47 0.08,-9.94 0.21,-13.4 0.15,-3.46 0.34,-5.99 0.6,-7.57 0.3,-1.6 0.71,-3.12 1.26,-4.58 0.54,-1.47 1.2,-2.91 2.01,-4.32l-0.06 0c2.16,-4.06 5.66,-7.82 10.52,-11.29 4.87,-3.51 10.97,-5.26 18.21,-5.26 8.7,0 15.88,2.67 21.55,8.02 5.77,5.34 9.34,11.73 10.71,19.17 0.08,0.24 0.04,0.45 -0.13,0.62 -0.15,0.17 -0.36,0.26 -0.62,0.26l-14.34 0c-0.36,0 -0.6,-0.17 -0.69,-0.51 -0.56,-1.67 -1.32,-3.23 -2.33,-4.66 -0.98,-1.43 -2.22,-2.78 -3.68,-4.04 -2.76,-2.46 -6.24,-3.7 -10.47,-3.7 -3.12,0 -5.79,0.62 -8.02,1.88 -2.2,1.26 -3.98,2.69 -5.32,4.32 -0.79,1 -1.48,2.14 -2.05,3.42 -0.6,1.26 -1.05,2.56 -1.39,3.91 -0.32,1.41 -0.56,3.61 -0.69,6.58 -0.13,2.95 -0.19,6.67 -0.19,11.14 0,4.55 0.06,8.29 0.19,11.24 0.13,2.95 0.36,5.13 0.69,6.54 0.34,1.3 0.81,2.59 1.41,3.85 0.6,1.28 1.28,2.39 2.03,3.36 1.35,1.75 3.12,3.25 5.32,4.47 2.22,1.24 4.89,1.86 8.02,1.86 4.98,0 9.15,-1.69 12.53,-5.07 3.42,-3.4 5.15,-7.82 5.15,-13.27l0 -3.89 -17.55 0z"/>
   <path id="_7" class="fil4" d="M1198.44 384.74c-0.3,0 -0.51,-0.11 -0.62,-0.32 -0.13,-0.19 -0.15,-0.43 -0.06,-0.68l32.81 -89.8c0.08,-0.34 0.28,-0.51 0.62,-0.51l11.2 0c0.13,0 0.28,0.06 0.43,0.17 0.13,0.11 0.23,0.21 0.28,0.34l32.75 89.8c0.09,0.26 0.06,0.49 -0.06,0.68 -0.13,0.21 -0.32,0.32 -0.56,0.32l-14.34 0c-0.34,0 -0.56,-0.17 -0.64,-0.49l-6.76 -19.79 -33.07 0c-1.18,3.38 -2.33,6.69 -3.46,9.92 -1.15,3.23 -2.31,6.52 -3.48,9.88 -0.04,0.11 -0.13,0.23 -0.28,0.34 -0.15,0.11 -0.28,0.15 -0.41,0.15l-14.34 0zm50.54 -33.75c-0.09,-0.3 -0.19,-0.6 -0.34,-0.94 -0.15,-0.34 -0.26,-0.62 -0.34,-0.87 -0.7,-2.05 -1.37,-3.93 -1.95,-5.67 -0.58,-1.73 -1.11,-3.25 -1.56,-4.55 -0.3,-0.83 -0.58,-1.64 -0.85,-2.44 -0.26,-0.79 -0.54,-1.54 -0.77,-2.24 -0.21,-0.69 -0.43,-1.3 -0.64,-1.92 -0.19,-0.6 -0.41,-1.2 -0.62,-1.77 -0.38,-1.22 -0.77,-2.44 -1.15,-3.63 -0.41,-1.22 -0.81,-2.46 -1.22,-3.76 -0.21,-0.58 -0.43,-1.22 -0.66,-1.95 -0.23,-0.71 -0.47,-1.46 -0.73,-2.25 -0.13,-0.43 -0.21,-0.75 -0.28,-0.98 -0.06,-0.21 -0.13,-0.45 -0.21,-0.68 -0.08,-0.23 -0.19,-0.49 -0.28,-0.77 -0.11,-0.3 -0.26,-0.73 -0.41,-1.26 -0.47,1.37 -0.9,2.65 -1.28,3.83 -0.41,1.15 -0.77,2.24 -1.11,3.25 -0.09,0.26 -0.15,0.47 -0.19,0.68 -0.02,0.21 -0.08,0.43 -0.17,0.64 -0.21,0.71 -0.43,1.37 -0.66,1.99 -0.23,0.64 -0.45,1.26 -0.66,1.88 -0.21,0.66 -0.41,1.33 -0.62,1.95 -0.21,0.62 -0.43,1.24 -0.62,1.82 -0.43,1.26 -0.85,2.56 -1.3,3.95 -0.43,1.37 -0.92,2.8 -1.45,4.32 -0.56,1.5 -1.11,3.12 -1.69,4.85 -0.6,1.73 -1.35,3.91 -2.27,6.54l24.05 0zm-31.75 -67.89c-0.51,0 -0.71,-0.26 -0.64,-0.75 0.3,-2.05 0.81,-3.91 1.54,-5.58 0.73,-1.67 1.67,-3.14 2.8,-4.45 1.11,-1.18 2.44,-2.07 3.93,-2.71 1.5,-0.66 3.1,-0.98 4.77,-0.98 0.75,0 1.47,0.04 2.18,0.13 0.73,0.09 1.43,0.26 2.14,0.51 0.75,0.23 1.47,0.49 2.16,0.75 0.68,0.23 1.26,0.45 1.73,0.62 1.45,0.75 2.76,1.33 3.93,1.69 0.79,0.38 1.73,0.58 2.82,0.58 0.96,0 1.9,-0.3 2.82,-0.88 0.79,-0.56 1.35,-1.73 1.69,-3.57 0.08,-0.34 0.32,-0.51 0.68,-0.51l6.52 0c0.53,0 0.77,0.26 0.68,0.75 -0.26,1.8 -0.68,3.48 -1.3,5.04 -0.64,1.56 -1.43,2.99 -2.4,4.3 -1.05,1.32 -2.31,2.39 -3.8,3.16 -1.52,0.77 -3.25,1.18 -5.22,1.22 -0.75,0 -1.48,-0.07 -2.22,-0.19 -0.73,-0.13 -1.43,-0.34 -2.1,-0.62l0.06 0c-0.45,-0.09 -1.07,-0.26 -1.82,-0.54 -0.75,-0.28 -1.62,-0.6 -2.63,-0.98 -1.28,-0.58 -2.52,-1.03 -3.7,-1.37 -1.15,-0.34 -2.31,-0.51 -3.44,-0.56 -0.62,0 -1.45,0.28 -2.5,0.88l0.06 -0.06c-1.05,0.66 -1.56,1.84 -1.56,3.51 0,0.41 -0.21,0.62 -0.64,0.62l-6.56 0z"/>
   <path id="_8" class="fil4" d="M1286.98 384.8c-0.49,0 -0.75,-0.26 -0.75,-0.75l0 -89.74c0,-0.51 0.26,-0.77 0.75,-0.77l13.6 0c0.49,0 0.75,0.26 0.75,0.77l0 89.74c0,0.49 -0.26,0.75 -0.75,0.75l-13.6 0z"/>
   <path class="fil4" d="M1094.04 825.41c0.06,-6.05 1.12,-11.48 3.1,-16.23 2.02,-4.75 4.81,-8.84 8.47,-12.23 3.44,-3.17 7.32,-5.59 11.64,-7.32 4.28,-1.74 8.81,-2.61 13.53,-2.61 8.6,0 16.38,2.57 23.37,7.76 6.55,5.18 10.83,12.72 12.82,22.53 0.12,0.37 0.06,0.68 -0.19,0.9 -0.25,0.25 -0.53,0.37 -0.9,0.37l-18.65 0c-0.47,0 -0.81,-0.22 -0.99,-0.62 -2.73,-6.67 -7.91,-10.12 -15.55,-10.27 -10.95,0.28 -16.45,6.58 -16.45,18.9l0 10.74c3.94,-1.15 7.85,-2.08 11.76,-2.73 3.91,-0.68 7.63,-0.99 11.14,-0.93 8.5,0 15.77,2.98 21.82,8.94 5.83,6.11 8.72,15.52 8.66,28.27l0 11.79c-0.19,12.44 -3.88,21.91 -11.11,28.4 -6.8,6.42 -15.36,9.77 -25.73,10.09 -10.05,-0.31 -18.47,-3.63 -25.17,-9.99 -7.67,-6.67 -11.51,-16.14 -11.58,-28.4l0 -57.35zm20.2 56.26c0.06,12.45 5.59,18.71 16.54,18.84 10.74,-0.06 16.29,-6.33 16.73,-18.84l0 -10.64c-0.5,-12.29 -6.05,-18.56 -16.73,-18.81 -10.96,0.31 -16.48,6.58 -16.54,18.81l0 10.64z"/>
   <path id="_1_10" class="fil4" d="M1237.13 826.41c0,-5.87 -1.55,-10.46 -4.65,-13.78 -3.13,-3.29 -7.29,-4.93 -12.51,-4.93 -5.21,0 -9.37,1.64 -12.48,4.93 -3.07,3.32 -4.62,7.91 -4.62,13.78l0 55.02c0,5.93 1.55,10.52 4.62,13.81 3.1,3.26 7.26,4.9 12.48,4.9 5.21,0 9.37,-1.65 12.51,-4.9 3.1,-3.29 4.65,-7.88 4.65,-13.81l0 -55.02zm-54.99 -1.09c0,-12.26 3.85,-21.66 11.55,-28.27 7.63,-6.73 16.39,-10.09 26.28,-10.09 4.9,0 9.56,0.84 13.93,2.58 4.41,1.74 8.5,4.22 12.32,7.51 3.85,3.38 6.73,7.45 8.69,12.13 1.99,4.69 2.95,10.09 2.95,16.14l0 57.2c0,12.16 -3.88,21.6 -11.64,28.27 -7.63,6.67 -16.39,9.99 -26.26,9.99 -9.9,0 -18.65,-3.32 -26.28,-9.99 -7.7,-6.61 -11.55,-16.04 -11.55,-28.27l0 -57.2z"/>
   <path class="fil7" d="M504.76 916.52c-0.67,0 -1.01,-0.35 -1.01,-1.01l0 -100.89c-2.61,1.91 -5.22,3.86 -7.83,5.83 -2.58,1.94 -5.19,3.85 -7.8,5.74 -0.41,0.26 -0.78,0.32 -1.1,0.12 -0.35,-0.2 -0.52,-0.52 -0.52,-0.99l0 -18.43c0,-0.09 0.06,-0.23 0.14,-0.41 0.09,-0.17 0.17,-0.32 0.29,-0.44l17.48 -12.64 17.77 0c0.67,0 1.01,0.32 1.01,1.01l0 121.09c0,0.67 -0.35,1.01 -1.01,1.01l-17.42 0z"/>
   <path id="_1_11" class="fil7" d="M540.59 916.26c-0.67,0 -1.01,-0.35 -1.01,-1.01l0 -16.58 47.56 -59.5 0 0.09c1.74,-2.2 2.87,-4.23 3.39,-6.09 0.49,-1.83 0.75,-3.62 0.75,-5.39 0,-3.91 -1.42,-7.59 -4.23,-11.04 -2.84,-3.39 -6.66,-5.07 -11.48,-5.07 -4.4,0 -8.23,1.48 -11.45,4.49 -1.59,1.48 -2.81,3.22 -3.62,5.22 -0.81,2 -1.33,4.29 -1.56,6.84 0,0.29 -0.12,0.49 -0.29,0.67 -0.2,0.17 -0.46,0.26 -0.72,0.26l-17.33 0c-0.67,0 -1.01,-0.35 -1.01,-1.01 0.12,-10.09 3.54,-18.55 10.26,-25.39 6.87,-6.96 15.01,-10.43 24.46,-10.43 10.26,0 18.87,3.51 25.91,10.52l-0.09 0c6.96,6.96 10.44,15.33 10.44,25.13 0,4.26 -0.61,8.17 -1.86,11.8 -1.25,3.62 -3.13,6.99 -5.62,10.11l0 -0.09c-3.22,4.09 -6.38,8.06 -9.51,11.97 -3.1,3.91 -6.23,7.79 -9.33,11.68 -3.13,3.88 -6.23,7.74 -9.33,11.62 -3.13,3.88 -6.29,7.85 -9.51,11.94l44.14 0c0.67,0 1.01,0.35 1.01,1.01l0 17.24c0,0.67 -0.35,1.01 -1.01,1.01l-68.95 0z"/>
   <path id="_2_12" class="fil7" d="M675.41 829.14c0,-5.48 -1.45,-9.77 -4.35,-12.87 -2.93,-3.07 -6.81,-4.61 -11.68,-4.61 -4.87,0 -8.75,1.54 -11.65,4.61 -2.87,3.1 -4.32,7.39 -4.32,12.87l0 51.39c0,5.53 1.45,9.82 4.32,12.9 2.9,3.04 6.78,4.58 11.65,4.58 4.87,0 8.75,-1.54 11.68,-4.58 2.9,-3.07 4.35,-7.36 4.35,-12.9l0 -51.39zm-51.36 -1.01c0,-11.45 3.59,-20.23 10.78,-26.4 7.13,-6.29 15.3,-9.42 24.55,-9.42 4.58,0 8.93,0.78 13.01,2.41 4.12,1.62 7.94,3.94 11.51,7.01 3.59,3.16 6.29,6.96 8.12,11.33 1.85,4.38 2.75,9.42 2.75,15.07l0 53.42c0,11.36 -3.62,20.17 -10.87,26.4 -7.13,6.23 -15.3,9.33 -24.52,9.33 -9.25,0 -17.42,-3.1 -24.55,-9.33 -7.19,-6.17 -10.78,-14.98 -10.78,-26.4l0 -53.42z"/>
  </g>
 </g>
</svg>
