<?xml version="1.0" encoding="UTF-8" standalone="no"?>
<svg
   xmlns:dc="http://purl.org/dc/elements/1.1/"
   xmlns:cc="http://creativecommons.org/ns#"
   xmlns:rdf="http://www.w3.org/1999/02/22-rdf-syntax-ns#"
   xmlns:svg="http://www.w3.org/2000/svg"
   xmlns="http://www.w3.org/2000/svg"
   xmlns:sodipodi="http://sodipodi.sourceforge.net/DTD/sodipodi-0.dtd"
   xmlns:inkscape="http://www.inkscape.org/namespaces/inkscape"
   width="323.14896mm"
   height="200mm"
   viewBox="0 0 323.14896 200"
   version="1.1"
   id="svg9491"
   inkscape:version="1.0 (4035a4fb49, 2020-05-01)"
   sodipodi:docname="Vietnam_road_sign_IE453a.svg">
  <defs
     id="defs9485">
    <clipPath
       id="clipPath2832">
      <path
         d="M -0.24,595.138 H 317.24 V -0.138 H -0.24 Z"
         id="path2834"
         inkscape:connector-curvature="0" />
    </clipPath>
    <clipPath
       id="clipPath2840">
      <path
         d="M 0.03,595.32 H 317.49 V 0 H 0.03 Z"
         id="path2842"
         inkscape:connector-curvature="0" />
    </clipPath>
    <clipPath
       id="clipPath2858">
      <path
         d="M -0.24,595.138 H 317.24 V -0.138 H -0.24 Z"
         id="path2860"
         inkscape:connector-curvature="0" />
    </clipPath>
    <clipPath
       id="clipPath2864">
      <path
         d="M 0.03,595.32 H 317.49 V 0 H 0.03 Z"
         id="path2866"
         inkscape:connector-curvature="0" />
    </clipPath>
    <clipPath
       id="clipPath3306">
      <path
         d="m 199.238,472.977 v -29.74 h 29.744 v 29.74"
         id="path3308"
         inkscape:connector-curvature="0" />
    </clipPath>
    <clipPath
       id="clipPath3322">
      <path
         d="M -0.24,595.138 H 317.24 V -0.138 H -0.24 Z"
         id="path3324"
         inkscape:connector-curvature="0" />
    </clipPath>
    <clipPath
       id="clipPath3330">
      <path
         d="M 0.03,595.32 H 317.49 V 0 H 0.03 Z"
         id="path3332"
         inkscape:connector-curvature="0" />
    </clipPath>
    <clipPath
       id="clipPath3344">
      <path
         d="m 88.233,387.221 v -28.335 h 32.08 v 28.335"
         id="path3346"
         inkscape:connector-curvature="0" />
    </clipPath>
    <clipPath
       id="clipPath3462">
      <path
         d="M -0.24,595.138 H 317.24 V -0.138 H -0.24 Z"
         id="path3464"
         inkscape:connector-curvature="0" />
    </clipPath>
    <clipPath
       id="clipPath3470">
      <path
         d="M 0.03,595.32 H 317.49 V 0 H 0.03 Z"
         id="path3472"
         inkscape:connector-curvature="0" />
    </clipPath>
    <clipPath
       id="clipPath3490">
      <path
         d="M -0.24,595.138 H 317.24 V -0.138 H -0.24 Z"
         id="path3492"
         inkscape:connector-curvature="0" />
    </clipPath>
    <clipPath
       id="clipPath3496">
      <path
         d="M 0.03,595.32 H 317.49 V 0 H 0.03 Z"
         id="path3498"
         inkscape:connector-curvature="0" />
    </clipPath>
    <clipPath
       id="clipPath3520">
      <path
         d="m 254.788,326.215 v -28.309 h 28.326 v 28.309"
         id="path3522"
         inkscape:connector-curvature="0" />
    </clipPath>
    <clipPath
       id="clipPath3544">
      <path
         d="m 145.049,326.142 v -28.333 h 28.342 v 28.333"
         id="path3546"
         inkscape:connector-curvature="0" />
    </clipPath>
    <clipPath
       id="clipPath3682">
      <path
         d="M -0.24,595.138 H 317.24 V -0.138 H -0.24 Z"
         id="path3684"
         inkscape:connector-curvature="0" />
    </clipPath>
    <clipPath
       id="clipPath3690">
      <path
         d="M 0.03,595.32 H 317.49 V 0 H 0.03 Z"
         id="path3692"
         inkscape:connector-curvature="0" />
    </clipPath>
    <clipPath
       id="clipPath3980">
      <path
         d="M -0.24,595.138 H 317.24 V -0.138 H -0.24 Z"
         id="path3982"
         inkscape:connector-curvature="0" />
    </clipPath>
    <clipPath
       id="clipPath3988">
      <path
         d="M 0.03,595.32 H 317.49 V 0 H 0.03 Z"
         id="path3990"
         inkscape:connector-curvature="0" />
    </clipPath>
    <clipPath
       id="clipPath4010">
      <path
         d="M -0.24,595.138 H 317.24 V -0.138 H -0.24 Z"
         id="path4012"
         inkscape:connector-curvature="0" />
    </clipPath>
    <clipPath
       id="clipPath4016">
      <path
         d="M 0.03,595.32 H 317.49 V 0 H 0.03 Z"
         id="path4018"
         inkscape:connector-curvature="0" />
    </clipPath>
    <clipPath
       id="clipPath4062">
      <path
         d="m 200.163,177.773 v -28.284 h 28.283 v 28.284"
         id="path4064"
         inkscape:connector-curvature="0" />
    </clipPath>
    <clipPath
       id="clipPath4090">
      <path
         d="m 34.886,177.515 v -51.632 h 30.367 v 51.632"
         id="path4092"
         inkscape:connector-curvature="0" />
    </clipPath>
    <clipPath
       id="clipPath4106">
      <path
         d="m 34.886,177.515 v -51.632 h 30.367 v 51.632"
         id="path4108"
         inkscape:connector-curvature="0" />
    </clipPath>
    <clipPath
       id="clipPath4272">
      <path
         d="m 34.886,177.515 v -51.632 h 30.367 v 51.632"
         id="path4274"
         inkscape:connector-curvature="0" />
    </clipPath>
    <clipPath
       id="clipPath4304">
      <path
         d="m 254.653,176.442 v -48.167 h 28.317 v 48.167"
         id="path4306"
         inkscape:connector-curvature="0" />
    </clipPath>
    <clipPath
       id="clipPath4310">
      <path
         d="m 253.565,177.983 h 31.181 V 128.8 h -31.181 z"
         id="path4312"
         inkscape:connector-curvature="0" />
    </clipPath>
    <clipPath
       id="clipPath4316">
      <path
         d="M -0.24,595.138 H 317.24 V -0.138 H -0.24 Z"
         id="path4318"
         inkscape:connector-curvature="0" />
    </clipPath>
    <clipPath
       id="clipPath4322">
      <path
         d="M 0.03,595.32 H 317.49 V 0 H 0.03 Z"
         id="path4324"
         inkscape:connector-curvature="0" />
    </clipPath>
    <clipPath
       id="clipPath4456">
      <path
         d="M -0.24,595.138 H 317.24 V -0.138 H -0.24 Z"
         id="path4458"
         inkscape:connector-curvature="0" />
    </clipPath>
    <clipPath
       id="clipPath4464">
      <path
         d="M 0.03,595.32 H 317.49 V 0 H 0.03 Z"
         id="path4466"
         inkscape:connector-curvature="0" />
    </clipPath>
  </defs>
  <sodipodi:namedview
     id="base"
     pagecolor="#ffffff"
     bordercolor="#666666"
     borderopacity="1.0"
     inkscape:pageopacity="0.0"
     inkscape:pageshadow="2"
     inkscape:zoom="1.0596562"
     inkscape:cx="610.67519"
     inkscape:cy="377.95276"
     inkscape:document-units="mm"
     inkscape:current-layer="layer1"
     showgrid="false"
     inkscape:window-width="1920"
     inkscape:window-height="1001"
     inkscape:window-x="-9"
     inkscape:window-y="-9"
     inkscape:window-maximized="1"
     inkscape:measure-start="0,0"
     inkscape:measure-end="0,0"
     inkscape:document-rotation="0" />
  <metadata
     id="metadata9488">
    <rdf:RDF>
      <cc:Work
         rdf:about="">
        <dc:format>image/svg+xml</dc:format>
        <dc:type
           rdf:resource="http://purl.org/dc/dcmitype/StillImage" />
        <dc:title></dc:title>
      </cc:Work>
    </rdf:RDF>
  </metadata>
  <g
     inkscape:label="Layer 1"
     inkscape:groupmode="layer"
     id="layer1"
     transform="translate(-336.26164,-67.957874)">
    <g
       aria-label="6"
       id="text19759"
       style="font-size:31.1478px;line-height:1.3;font-family:'Singapore Road Signs';-inkscape-font-specification:'Singapore Road Signs';text-align:center;text-anchor:middle;stroke-width:0.159861"
       transform="matrix(1.6550836,0,0,1.6550836,-321.31659,-238.56049)" />
    <path
       id="path2214"
       style="font-size:15.1831px;line-height:1.46;font-family:'Singapore Road Signs';-inkscape-font-specification:'Singapore Road Signs';text-align:center;text-anchor:middle;opacity:1;fill:#0a9646;fill-opacity:1;fill-rule:evenodd;stroke-width:0.0420686;stroke-linecap:square;stroke-miterlimit:10;paint-order:stroke fill markers"
       d="M 336.26164,67.957874 H 659.4106 V 267.95788 H 336.26164 Z" />
    <path
       id="path2216"
       style="font-style:normal;font-variant:normal;font-weight:normal;font-stretch:normal;font-size:19.8994px;line-height:1.3;font-family:'Alte DIN 1451 Mittelschrift gepraegt';-inkscape-font-specification:'Alte DIN 1451 Mittelschrift gepraegt';text-align:center;text-anchor:middle;opacity:1;fill:#ffffff;fill-opacity:1;stroke-width:0.198437"
       d="m 390.9094,189.96842 h -3.03492 c -0.055,0 -0.10203,0.0257 -0.13899,0.0808 l -2.88131,4.02925 c -0.0281,0.0647 -0.0321,0.12344 -0.0161,0.17855 0.0281,0.0456 0.0779,0.068 0.15144,0.068 h 2.11117 c 0.0201,0 0.041,3.1e-4 0.0683,-0.0149 0.0281,-0.0181 0.0462,-0.0317 0.0558,-0.0413 l 3.80712,-4.02711 c 0.0554,-0.0553 0.0639,-0.11634 0.0281,-0.18069 -0.0281,-0.0647 -0.0779,-0.0978 -0.15144,-0.0978 z m 60.63406,1.97838 c -0.055,0 -0.10043,0.0253 -0.13698,0.0808 l -2.87927,4.02296 c -0.0281,0.0647 -0.0321,0.12557 -0.0121,0.18061 0.0281,0.0456 0.0779,0.068 0.15145,0.068 h 2.10702 c 0.0201,0 0.041,-0.01 0.0687,-0.0129 0.0281,-0.0205 0.047,-0.0341 0.0538,-0.0413 l 3.80294,-4.023 c 0.0554,-0.0553 0.0659,-0.11421 0.0281,-0.17844 -0.0281,-0.0638 -0.0783,-0.0978 -0.15144,-0.0978 z m -70.49857,0.8947 -4.05417,3.21341 c -0.0554,0.0456 -0.0747,0.10697 -0.0558,0.18056 0.0201,0.0734 0.0687,0.10999 0.15145,0.10999 h 2.30422 c 0.40464,-0.24797 0.81506,-0.49689 1.22889,-0.74517 0.41384,-0.24829 0.82221,-0.49699 1.22685,-0.74527 l 2.75883,1.49044 h 2.31668 c 0.0827,0 0.13296,-0.0361 0.15144,-0.10999 0.0281,-0.0732 0.008,-0.13449 -0.0538,-0.18056 l -4.11025,-3.21341 z m 87.89433,5.29966 c -1.59726,0 -2.93237,0.38524 -4.00641,1.15627 -1.06484,0.76196 -1.83724,1.5881 -2.31458,2.47856 -0.1651,0.31213 -0.3061,0.62951 -0.42557,0.95084 -0.11931,0.32136 -0.2117,0.65586 -0.27597,1.00466 -0.0643,0.34868 -0.10967,0.90504 -0.13698,1.66688 -0.0281,0.76195 -0.0414,1.74316 -0.0414,2.94566 0,2.40513 0.059,3.94784 0.17836,4.62712 0.0643,0.34868 0.15666,0.68342 0.27597,1.00471 0.11931,0.31212 0.26031,0.62409 0.42553,0.93625 0.47734,0.89958 1.24978,1.72585 2.31462,2.47856 1.0832,0.76196 2.41835,1.14382 4.00641,1.14382 0.87206,0 1.68435,-0.12373 2.43706,-0.37158 0.75276,-0.24785 1.44992,-0.61581 2.09248,-1.10228 1.3219,-1.00981 2.17608,-2.45132 2.56164,-4.32407 0.0201,-0.0554 0.008,-0.10003 -0.0281,-0.13698 -0.0361,-0.0458 -0.084,-0.0679 -0.13899,-0.0679 h -3.15323 c -0.0281,0 -0.0534,0.0161 -0.0807,0.0414 -0.0281,0.0161 -0.0522,0.0362 -0.0707,0.0542 -0.82615,1.73501 -2.03222,2.60313 -3.62033,2.60313 -0.68848,0 -1.27589,-0.13216 -1.7624,-0.39849 -0.48654,-0.27557 -0.87704,-0.60669 -1.17081,-0.99229 -0.1651,-0.2109 -0.31694,-0.45533 -0.45461,-0.7307 -0.12854,-0.28441 -0.22977,-0.5685 -0.30328,-0.85314 -0.0735,-0.31213 -0.12413,-0.7898 -0.15145,-1.4324 -0.0281,-0.65173 -0.0418,-1.478 -0.0418,-2.47857 0,-0.98216 0.0161,-1.79779 0.0418,-2.44951 0.0281,-0.65177 0.0783,-1.1347 0.15145,-1.44686 0.0735,-0.29365 0.17474,-0.57778 0.30328,-0.85315 0.12855,-0.2848 0.27999,-0.53736 0.45461,-0.75773 0.29365,-0.35792 0.68427,-0.67543 1.17081,-0.9508 0.48651,-0.27517 1.07392,-0.41303 1.7624,-0.41303 0.92714,0 1.6942,0.27195 2.30009,0.81373 0.32136,0.27557 0.59135,0.5734 0.81164,0.89468 0.22014,0.31213 0.38925,0.65209 0.5086,1.01929 0.0201,0.0731 0.0691,0.11006 0.15144,0.11006 h 3.15327 c 0.055,0 0.10243,-0.0201 0.13899,-0.0566 0.0362,-0.0362 0.045,-0.0815 0.0281,-0.13698 -0.30289,-1.62489 -1.08726,-3.02986 -2.35407,-4.21408 -1.24842,-1.17499 -2.82777,-1.76245 -4.73715,-1.76245 z m -110.91364,0.16631 c -0.10083,0 -0.15144,0.0542 -0.15144,0.16389 v 19.73329 c 0,0.11006 0.0506,0.16389 0.15144,0.16389 h 3.0017 c 0.11007,0 0.16591,-0.0542 0.16591,-0.16389 v -5.94946 c 0.55993,-0.58757 1.10006,-1.15566 1.62333,-1.70644 0.52322,-0.55074 1.07078,-1.12088 1.63992,-1.70841 l 5.28724,9.44521 c 0.0362,0.0554 0.082,0.0828 0.13698,0.0828 h 3.5518 c 0.0735,0 0.12091,-0.0241 0.13899,-0.0679 0.0281,-0.0554 0.0281,-0.11408 0,-0.17835 -1.17499,-1.99198 -2.33584,-3.96716 -3.48331,-5.92238 -1.13827,-1.95534 -2.29048,-3.9284 -3.45631,-5.92037 l 6.25045,-7.69736 c 0.0458,-0.0554 0.0546,-0.11448 0.0281,-0.17835 -0.0281,-0.0639 -0.0779,-0.0956 -0.15144,-0.0956 h -3.55184 c -0.0361,0 -0.0787,0.0201 -0.12453,0.0679 -1.32185,1.66157 -2.63767,3.31407 -3.95036,4.95724 -1.3127,1.6339 -2.62523,3.28109 -3.93792,4.94262 v -9.80442 c 0,-0.10966 -0.0558,-0.16389 -0.1659,-0.16389 z m 17.79019,0 c -0.11006,0 -0.1659,0.0542 -0.1659,0.16389 v 19.73329 c 0,0.11006 0.0558,0.16389 0.1659,0.16389 h 12.61298 c 0.11007,0 0.16591,-0.0542 0.16591,-0.16389 v -2.81081 c 0,-0.11007 -0.0558,-0.1639 -0.16591,-0.1639 H 378.969 v -5.48026 h 8.04193 c 0.11007,0 0.1639,-0.051 0.1639,-0.15144 v -2.67167 c 0,-0.11006 -0.0538,-0.1659 -0.1639,-0.1659 H 378.969 v -5.28724 h 9.45975 c 0.11007,0 0.16591,-0.0542 0.16591,-0.1639 v -2.8378 c 0,-0.10967 -0.0558,-0.1639 -0.16591,-0.1639 z m 13.63223,0 c -0.11007,0 -0.1659,0.0542 -0.1659,0.16389 v 2.65712 c 0,0.11007 0.0558,0.16591 0.1659,0.16591 h 5.24571 v 16.91006 c 0,0.11006 0.0558,0.16389 0.1659,0.16389 h 2.9872 c 0.11007,0 0.1659,-0.0542 0.1659,-0.16389 v -16.91006 h 5.23117 c 0.11007,0 0.16631,-0.0562 0.16631,-0.16591 v -2.65712 c 0,-0.10966 -0.0558,-0.16389 -0.16631,-0.16389 z m 20.87493,0 c -0.11007,0 -0.16591,0.0542 -0.16591,0.16389 v 2.65712 c 0,0.11007 0.0558,0.16591 0.16591,0.16591 h 5.2457 v 16.91006 c 0,0.11006 0.0538,0.16389 0.1639,0.16389 h 2.98925 c 0.11007,0 0.16389,-0.0542 0.16389,-0.16389 v -16.91006 h 5.23326 c 0.11007,0 0.1663,-0.0562 0.1663,-0.16591 v -2.65712 c 0,-0.10966 -0.0558,-0.16389 -0.1663,-0.16389 z m 16.16477,0 c -0.11006,0 -0.1659,0.0542 -0.1659,0.16389 v 19.73329 c 0,0.11006 0.0558,0.16389 0.1659,0.16389 h 2.9872 c 0.11007,0 0.16591,-0.0542 0.16591,-0.16389 v -8.45505 h 7.50425 v 8.45505 c 0,0.11006 0.0558,0.16389 0.16631,0.16389 h 2.98716 c 0.11006,0 0.1659,-0.0542 0.1659,-0.16389 v -19.73333 c 0,-0.10966 -0.0558,-0.16389 -0.1659,-0.16389 h -2.98716 c -0.11007,0 -0.16631,0.0542 -0.16631,0.16389 v 8.28903 h -7.50425 v -8.28903 c 0,-0.10966 -0.0558,-0.16389 -0.16591,-0.16389 z m 17.92722,0 c -0.11007,0 -0.1639,0.0542 -0.1639,0.16389 v 13.05309 c 0,2.11136 0.69716,3.81114 2.09249,5.09627 1.39528,1.2759 3.09296,1.91397 5.09414,1.91397 1.99201,0 3.68106,-0.63807 5.06723,-1.91397 1.40448,-1.28513 2.10698,-2.98491 2.10698,-5.09627 v -13.05309 c 0,-0.10966 -0.0558,-0.16389 -0.1659,-0.16389 h -2.98716 c -0.11007,0 -0.16591,0.0542 -0.16591,0.16389 v 12.72309 c 0,1.31261 -0.37117,2.31318 -1.11477,3.0017 -0.74355,0.6884 -1.65691,1.03371 -2.74015,1.03371 -1.10156,0 -2.02355,-0.34547 -2.76711,-1.03371 -0.73439,-0.6794 -1.10227,-1.67985 -1.10227,-3.0017 v -12.72313 c 0,-0.10966 -0.0506,-0.16389 -0.15145,-0.16389 z m 148.76093,14.3234 c -1.47526,0 -2.78301,0.50253 -3.92341,1.50712 -1.14944,0.98654 -1.72505,2.39408 -1.72505,4.22228 v 8.53804 c 0,1.82828 0.57561,3.23581 1.72505,4.22236 1.1404,0.99555 2.44815,1.49467 3.92341,1.49459 1.47526,0 2.78297,-0.49904 3.92337,-1.49459 1.15848,-0.99558 1.7375,-2.40308 1.7375,-4.22236 v -8.53808 c 0,-0.905 -0.14984,-1.70693 -0.44839,-2.40381 -0.28962,-0.70595 -0.71893,-1.31156 -1.28911,-1.81843 -0.57018,-0.4888 -1.18683,-0.86134 -1.84752,-1.11474 -0.65165,-0.26231 -1.34274,-0.39246 -2.07585,-0.39246 z m 13.35818,0 c -1.47522,0 -2.78297,0.50253 -3.92337,1.50712 -1.14944,0.98654 -1.72504,2.39408 -1.72504,4.22228 v 8.53804 c 0,1.82828 0.5756,3.23581 1.72504,4.22236 1.1404,0.99555 2.44815,1.49467 3.92337,1.49459 1.47526,0 2.78301,-0.49904 3.92341,-1.49459 1.15848,-0.99558 1.7375,-2.40308 1.7375,-4.22236 v -8.53808 c 0,-0.905 -0.14984,-1.70693 -0.44838,-2.40381 -0.28963,-0.70595 -0.71893,-1.31156 -1.28912,-1.81843 -0.57022,-0.4888 -1.18683,-0.86134 -1.84752,-1.11474 -0.65164,-0.26231 -1.34278,-0.39246 -2.07589,-0.39246 z m -32.0265,0.17635 c -0.0996,0 -0.14944,0.053 -0.14944,0.16188 v 10.45406 c 0,0.10002 0.0498,0.14943 0.14944,0.14943 h 2.62185 c 0.0542,0 0.0988,-0.0281 0.13497,-0.0828 0.57018,-1.01366 1.35431,-1.51957 2.34989,-1.51957 1.08605,0 1.79153,0.32056 2.11739,0.96329 0.17193,0.34386 0.30369,0.73761 0.39448,1.18113 0.0904,0.43437 0.13497,0.91023 0.13497,1.4261 0,0.86889 -0.1177,1.77401 -0.3531,2.71528 -0.19001,0.85069 -0.9277,1.2767 -2.21287,1.2767 -1.42099,0 -2.29057,-0.71106 -2.60731,-2.13197 -0.0201,-0.082 -0.0715,-0.12252 -0.16189,-0.12252 h -2.76919 c -0.0454,0 -0.0864,0.0201 -0.12252,0.0542 -0.0362,0.0362 -0.051,0.0775 -0.0418,0.12252 0.19925,1.8372 0.90456,3.16279 2.11739,3.97737 1.18559,0.78734 2.41686,1.18113 3.69295,1.18113 0.98651,0 1.85608,-0.22616 2.60731,-0.67884 0.715,-0.4434 1.28518,-0.92818 1.7105,-1.45313 0.43441,-0.5701 0.74617,-1.16691 0.93622,-1.7914 l -0.0161,0.0161 c 0.10846,-0.33502 0.18719,-0.74644 0.23258,-1.23512 0.0542,-0.48883 0.0812,-1.05893 0.0812,-1.71054 0,-1.60204 -0.13176,-2.75662 -0.39448,-3.46254 -0.12653,-0.34386 -0.28882,-0.67896 -0.48783,-1.00474 -0.19924,-0.33502 -0.43086,-0.64663 -0.69334,-0.93626 -0.18117,-0.19 -0.40182,-0.37198 -0.6643,-0.54387 -0.25347,-0.18116 -0.52957,-0.34305 -0.82823,-0.48783 -0.30771,-0.14501 -0.63932,-0.25428 -0.9923,-0.32578 -0.34386,-0.0815 -0.70555,-0.12252 -1.08564,-0.12252 -1.07706,0 -2.05324,0.30811 -2.93117,0.92384 v -3.89654 h 7.52089 c 0.10846,0 0.16188,-0.0554 0.16188,-0.16389 v -2.76912 c 0,-0.10846 -0.0534,-0.16188 -0.16188,-0.16188 z m 18.66832,2.91871 c 0.77834,0 1.39837,0.24945 1.85997,0.74737 0.47064,0.48815 0.7058,1.17093 0.7058,2.04885 v 8.21419 c 0,0.88693 -0.235,1.57473 -0.7058,2.0634 -0.4616,0.48871 -1.08163,0.73283 -1.85997,0.73283 -0.77838,0 -1.39842,-0.24424 -1.85998,-0.73283 -0.4616,-0.48867 -0.69338,-1.17647 -0.69338,-2.0634 v -8.21419 c 0,-0.87792 0.23178,-1.5607 0.69338,-2.04885 0.46156,-0.49784 1.0816,-0.74737 1.85998,-0.74737 z m 13.35818,0 c 0.77839,0 1.39842,0.24945 1.86002,0.74737 0.47059,0.48815 0.70575,1.17093 0.70575,2.04885 v 8.21419 c 0,0.88693 -0.235,1.57473 -0.70575,2.0634 -0.4616,0.48871 -1.08163,0.73283 -1.86002,0.73283 -0.77834,0 -1.39837,-0.24424 -1.85997,-0.73283 -0.46156,-0.48867 -0.69335,-1.17647 -0.69335,-2.0634 v -8.21419 c 0,-0.87792 0.23179,-1.5607 0.69335,-2.04885 0.4616,-0.49784 1.08163,-0.74737 1.85997,-0.74737 z m 20.85211,4.54408 c -1.2387,0 -2.22942,0.40091 -2.97266,1.20612 v -0.94043 c 0,-0.0924 -0.0462,-0.13899 -0.13899,-0.13899 h -2.36853 c -0.0928,0 -0.13899,0.0458 -0.13899,0.13899 v 11.77643 c 0,0.0924 0.0462,0.13899 0.13899,0.13899 h 2.36853 c 0.0928,0 0.13899,-0.0454 0.13899,-0.13899 v -7.01433 c 0,-0.77421 0.20166,-1.36195 0.60409,-1.76457 0.41809,-0.41798 0.95228,-0.62687 1.60256,-0.62687 0.6271,0 1.15129,0.20889 1.56938,0.62687 0.41806,0.41813 0.6269,1.00578 0.6269,1.76457 v 7.01433 c 0,0.0924 0.0414,0.13899 0.12654,0.13899 h 2.36857 c 0.0852,0 0.12855,-0.0454 0.12855,-0.13899 v -7.01433 c 0,-0.76654 0.20407,-1.35419 0.61445,-1.76457 0.41809,-0.41798 0.95224,-0.62687 1.6026,-0.62687 0.62706,0 1.15129,0.20889 1.56934,0.62687 0.4103,0.41038 0.61445,0.99803 0.61445,1.76457 v 7.01433 c 0,0.0924 0.0462,0.13899 0.13899,0.13899 h 2.37066 c 0.0928,0 0.13899,-0.0454 0.13899,-0.13899 v -7.82807 c 0,-1.37809 -0.44183,-2.42698 -1.32442,-3.14708 -0.89034,-0.71222 -1.80337,-1.06697 -2.74015,-1.06697 -1.53291,0 -2.77598,0.49061 -3.72826,1.47382 -0.19363,-0.20125 -0.3997,-0.38323 -0.61654,-0.54588 -0.21692,-0.17032 -0.44031,-0.32578 -0.67258,-0.46497 -0.51872,-0.30972 -1.1935,-0.46297 -2.0219,-0.46297 z m -269.79858,13.3624 c -0.086,0 -0.12855,0.0426 -0.12855,0.12855 v 15.39467 c 0,0.0864 0.0426,0.12854 0.12855,0.12854 h 9.83961 c 0.086,0 0.13095,-0.0426 0.13095,-0.12854 v -2.1901 c 0,-0.086 -0.0446,-0.13096 -0.13095,-0.13096 h -7.37969 v -4.27426 h 6.27327 c 0.086,0 0.12855,-0.0402 0.12855,-0.1185 v -2.08413 c 0,-0.0864 -0.0426,-0.13096 -0.12855,-0.13096 h -6.27327 v -4.12482 h 7.37969 c 0.086,0 0.13095,-0.0426 0.13095,-0.12855 v -2.21283 c 0,-0.086 -0.0446,-0.12855 -0.13095,-0.12855 z m 12.24763,0 c -0.086,0 -0.12855,0.0426 -0.12855,0.12855 v 15.39467 c 0,0.0864 0.0426,0.12854 0.12855,0.12854 h 2.34158 c 0.0787,0 0.1185,-0.0426 0.1185,-0.12854 v -10.59317 l 6.79014,10.65744 c 0.0281,0.0426 0.0651,0.0647 0.10806,0.0647 h 2.20251 c 0.086,0 0.12855,-0.0426 0.12855,-0.12854 v -15.39467 c 0,-0.0864 -0.0426,-0.12854 -0.12855,-0.12854 h -2.34367 c -0.086,0 -0.12854,0.0426 -0.12854,0.12854 v 10.59317 L 372.15644,233.697 c -0.0281,-0.0426 -0.0651,-0.0647 -0.10806,-0.0647 z m 15.04173,0 c -0.086,0 -0.13096,0.0426 -0.13096,0.12855 v 15.39467 c 0,0.0864 0.0446,0.12854 0.13096,0.12854 h 5.24157 c 1.13883,0 2.12843,-0.25026 2.96643,-0.75143 0.82369,-0.50137 1.46706,-1.12228 1.93264,-1.86001 v 0.012 c 0.18639,-0.27919 0.33783,-0.55926 0.45252,-0.83856 0.11449,-0.28642 0.20005,-0.57938 0.25749,-0.88026 0.12172,-0.59444 0.18278,-1.76144 0.18278,-3.50198 0,-1.62582 -0.043,-2.72553 -0.12855,-3.29852 -0.043,-0.29365 -0.12533,-0.59497 -0.24704,-0.903 -0.12172,-0.30811 -0.27999,-0.63389 -0.47329,-0.97771 -1.04572,-1.76923 -2.64238,-2.65298 -4.79114,-2.65298 z m 2.45992,2.47025 h 2.6758 c 1.15313,0 2.03375,0.41143 2.64257,1.23512 0.29365,0.40826 0.47643,0.8625 0.54805,1.36387 0.0362,0.27236 0.0635,0.64289 0.0852,1.10855 0.0201,0.46553 0.0321,1.04475 0.0321,1.73954 0,0.71624 -0.012,1.30719 -0.0321,1.77281 -0.0161,0.45842 -0.0402,0.80244 -0.0747,1.03174 -0.0647,0.41536 -0.21611,0.81188 -0.45256,1.19153 -0.60163,0.85953 -1.51856,1.28916 -2.75051,1.28916 h -2.67371 z" />
    <path
       id="path2218"
       style="color:#000000;font-style:normal;font-variant:normal;font-weight:normal;font-stretch:normal;font-size:medium;line-height:normal;font-family:sans-serif;-inkscape-font-specification:'Singapore Road Signs';font-variant-ligatures:normal;font-variant-position:normal;font-variant-caps:normal;font-variant-numeric:normal;font-variant-alternates:normal;font-variant-east-asian:normal;font-feature-settings:normal;font-variation-settings:normal;text-indent:0;text-align:start;text-decoration:none;text-decoration-line:none;text-decoration-style:solid;text-decoration-color:#000000;letter-spacing:normal;word-spacing:normal;text-transform:none;writing-mode:lr-tb;direction:ltr;text-orientation:mixed;dominant-baseline:auto;baseline-shift:baseline;text-anchor:start;white-space:normal;shape-padding:0;shape-margin:0;inline-size:0;clip-rule:nonzero;display:inline;overflow:visible;visibility:visible;opacity:1;isolation:auto;mix-blend-mode:normal;color-interpolation:sRGB;color-interpolation-filters:linearRGB;solid-color:#000000;solid-opacity:1;vector-effect:none;fill:#ffffff;fill-opacity:1;fill-rule:evenodd;stroke:none;stroke-width:0.553505;stroke-linecap:square;stroke-linejoin:miter;stroke-miterlimit:10;stroke-dasharray:none;stroke-dashoffset:0;stroke-opacity:1;paint-order:stroke fill markers;color-rendering:auto;image-rendering:auto;shape-rendering:auto;text-rendering:auto;enable-background:accumulate;stop-color:#000000;stop-opacity:1"
       d="m 344.29265,69.283907 c -3.65351,0 -6.63525,2.981166 -6.63525,6.634746 v 88.094857 12.46745 12.97594 3.67421 66.7954 c 0,3.65354 2.98174,6.63211 6.63525,6.63211 h 307.0824 c 3.65355,0 6.63524,-2.97857 6.63524,-6.63211 v -66.7954 -3.57859 -15.2461 -10.29291 -88.094857 c 0,-3.65358 -2.98169,-6.634746 -6.63524,-6.634746 z m 0,2.500618 h 307.0824 c 2.31241,0 4.13873,1.821677 4.13873,4.134128 v 88.094857 10.29291 c 0,0.0792 -0.003,0.16265 -0.008,0.24806 v 1.90685 c 0,2.29859 -1.85053,4.1491 -4.14905,4.1491 h -2.13683 c -0.0494,0.003 -0.0996,0.005 -0.14783,0.005 H 346.32351 c -0.0478,0 -0.0984,-0.003 -0.14823,-0.005 h -1.87793 c -2.29856,0 -4.14909,-1.85051 -4.14909,-4.1491 V 75.935702 c 0,-0.438787 0.0683,-0.860919 0.19322,-1.257289 0.004,-0.01125 0.008,-0.0229 0.012,-0.03455 0.52836,-1.672664 2.0746,-2.859252 3.94032,-2.859252 z m -0.0201,111.347725 h 1.84126 303.11412 2.14767 c 2.28639,0 4.1274,1.84052 4.1274,4.12686 v 2.00866 c 0.004,0.0986 0.008,0.19419 0.008,0.28473 v 3.57859 66.79538 c 0,1.44899 -0.71717,2.70464 -1.82158,3.44064 -0.65944,0.44613 -1.4561,0.7064 -2.31563,0.7064 H 344.27108 c -2.28639,0 -4.12692,-1.84049 -4.12692,-4.12684 v -72.68756 c 0,-2.28634 1.84053,-4.12686 4.12692,-4.12686 z" />
    <path
       id="path2220"
       style="font-size:15.1831px;line-height:1.46;font-family:'Singapore Road Signs';-inkscape-font-specification:'Singapore Road Signs';text-align:center;text-anchor:middle;opacity:1;fill:#ffd70f;fill-opacity:1;fill-rule:evenodd;stroke:none;stroke-width:0.553509;stroke-linecap:square;stroke-miterlimit:10;stroke-dasharray:none;stroke-opacity:1;paint-order:stroke fill markers"
       d="m 356.92234,112.19079 h 60.89319 v 27.82134 h -60.89319 z" />
    <path
       style="color:#000000;font-style:normal;font-variant:normal;font-weight:normal;font-stretch:normal;font-size:medium;line-height:normal;font-family:sans-serif;-inkscape-font-specification:'Singapore Road Signs';font-variant-ligatures:normal;font-variant-position:normal;font-variant-caps:normal;font-variant-numeric:normal;font-variant-alternates:normal;font-variant-east-asian:normal;font-feature-settings:normal;font-variation-settings:normal;text-indent:0;text-align:start;text-decoration:none;text-decoration-line:none;text-decoration-style:solid;text-decoration-color:#000000;letter-spacing:normal;word-spacing:normal;text-transform:none;writing-mode:lr-tb;direction:ltr;text-orientation:mixed;dominant-baseline:auto;baseline-shift:baseline;text-anchor:start;white-space:normal;shape-padding:0;shape-margin:0;inline-size:0;clip-rule:nonzero;display:inline;overflow:visible;visibility:visible;opacity:1;isolation:auto;mix-blend-mode:normal;color-interpolation:sRGB;color-interpolation-filters:linearRGB;solid-color:#000000;solid-opacity:1;vector-effect:none;fill:#000000;fill-opacity:1;fill-rule:evenodd;stroke:none;stroke-width:0.119061;stroke-linecap:square;stroke-linejoin:miter;stroke-miterlimit:10;stroke-dasharray:none;stroke-dashoffset:0;stroke-opacity:1;paint-order:stroke fill markers;color-rendering:auto;image-rendering:auto;shape-rendering:auto;text-rendering:auto;enable-background:accumulate;stop-color:#000000;stop-opacity:1"
       d="m 358.98469,112.75694 c -0.81116,0 -1.47442,0.66014 -1.47442,1.47129 v 23.74643 c 0,0.81115 0.66326,1.47132 1.47442,1.47132 h 56.79038 c 0.81116,0 1.47438,-0.66017 1.47438,-1.47132 v -23.74643 c 0,-0.81115 -0.66326,-1.47129 -1.47438,-1.47129 z m 0,0.53501 h 56.79038 c 0.52266,0 0.93625,0.41361 0.93625,0.93628 v 23.74643 c 0,0.52266 -0.41351,0.93319 -0.93625,0.93319 h -56.79038 c -0.52266,0 -0.93625,-0.41056 -0.93625,-0.93319 v -23.74643 c 0,-0.52267 0.41351,-0.93628 0.93625,-0.93628 z"
       id="path2222" />
    <path
       id="path2224"
       style="font-style:normal;font-variant:normal;font-weight:normal;font-stretch:normal;font-size:15.1831px;line-height:1.46;font-family:'Alte DIN 1451 Mittelschrift gepraegt';-inkscape-font-specification:'Alte DIN 1451 Mittelschrift gepraegt';text-align:center;text-anchor:middle;opacity:1;fill:#000000;fill-opacity:1;stroke-width:0.264583"
       d="m 369.6913,117.20279 c -1.36958,0 -2.51536,0.33032 -3.43631,0.99149 -0.91311,0.65336 -1.57372,1.3618 -1.98306,2.12534 -0.1418,0.26761 -0.26392,0.53869 -0.36595,0.81419 -0.10243,0.27549 -0.18077,0.56408 -0.2354,0.86322 -0.0554,0.29911 -0.0952,0.77441 -0.1189,1.42777 -0.0201,0.65332 -0.0362,1.49543 -0.0362,2.52659 0,2.06233 0.0514,3.38353 0.15386,3.96601 0.0554,0.29915 0.13336,0.58771 0.2354,0.8632 0.10243,0.26762 0.22455,0.53493 0.36595,0.80255 0.4095,0.77141 1.06994,1.47988 1.98302,2.12532 0.92886,0.65336 2.07456,0.97986 3.43634,0.97986 0.74782,0 1.4449,-0.10729 2.09036,-0.31964 0.64546,-0.21254 1.24303,-0.52533 1.79401,-0.9425 1.13349,-0.86588 1.86476,-2.10363 2.19536,-3.70941 0.0161,-0.047 0.008,-0.0852 -0.0201,-0.11678 -0.0321,-0.0394 -0.0695,-0.0582 -0.11649,-0.0582 h -2.70392 c -0.0241,3e-5 -0.0486,0.0112 -0.0723,0.0349 -0.0241,0.0157 -0.045,0.0305 -0.0582,0.0466 -0.70837,1.48773 -1.74344,2.23262 -3.10518,2.23262 -0.59035,0 -1.09453,-0.1148 -1.51174,-0.34293 -0.41705,-0.23616 -0.75123,-0.52094 -1.00306,-0.85155 -0.1418,-0.18101 -0.27115,-0.38905 -0.38965,-0.62521 -0.11007,-0.24399 -0.19603,-0.48854 -0.2591,-0.73256 -0.0627,-0.26761 -0.10726,-0.67615 -0.13056,-1.22714 -0.0201,-0.55887 -0.0361,-1.26734 -0.0361,-2.12532 0,-0.84224 0.008,-1.54314 0.0361,-2.10201 0.0201,-0.55887 0.0679,-0.97116 0.13056,-1.2388 0.0627,-0.25191 0.14863,-0.49639 0.2591,-0.73254 0.11007,-0.24403 0.24022,-0.45966 0.38965,-0.64859 0.25187,-0.30698 0.58593,-0.58037 1.00306,-0.8165 0.41713,-0.23617 0.92139,-0.35226 1.51174,-0.35226 0.79505,3e-5 1.45184,0.23082 1.97137,0.69523 0.27556,0.23616 0.50863,0.49206 0.69756,0.76753 0.1888,0.26766 0.33421,0.56004 0.43609,0.87488 0.0161,0.0629 0.0598,0.0932 0.13055,0.0932 h 2.70392 c 0.0466,0 0.0852,-0.0161 0.11649,-0.0466 0.0321,-0.0317 0.0406,-0.0719 0.0241,-0.11902 -0.25951,-1.39322 -0.93176,-2.59599 -2.01801,-3.61143 -1.0705,-1.00754 -2.42437,-1.51175 -4.06172,-1.51175 z m 27.7342,0.10501 c -1.283,0 -2.42128,0.43736 -3.41309,1.31112 -0.99968,0.85799 -1.50004,2.08204 -1.50004,3.67206 v 7.42582 c 0,1.59002 0.50036,2.81409 1.50004,3.67208 0.99181,0.86585 2.13009,1.29946 3.41309,1.29946 1.28305,0 2.42136,-0.43359 3.41317,-1.29946 1.00752,-0.86587 1.50937,-2.08991 1.50937,-3.67208 v -7.42582 c 0,-0.78712 -0.12975,-1.48422 -0.38966,-2.09033 -0.25187,-0.61397 -0.62389,-1.14093 -1.11975,-1.58173 -0.49595,-0.42505 -1.03282,-0.74779 -1.60742,-0.96819 -0.56673,-0.22825 -1.16816,-0.34294 -1.80575,-0.34294 z m -21.12258,0.0349 c -0.0944,0 -0.1422,0.0478 -0.1422,0.14237 v 2.2793 c 0,0.0944 0.0478,0.14221 0.1422,0.14221 h 4.49793 v 14.49934 c 0,0.0944 0.0478,0.14 0.14221,0.14 h 2.56163 c 0.0944,0 0.14221,-0.0455 0.14221,-0.14 V 119.9066 h 4.4862 c 0.0944,0 0.1422,-0.0478 0.1422,-0.14216 v -2.27931 c 0,-0.0944 -0.0478,-0.14236 -0.1422,-0.14236 z m 31.22667,0.11903 -2.43333,1.75906 c -0.0161,0.0161 -0.0321,0.0345 -0.0466,0.0582 -0.008,0.0233 -0.0161,0.0446 -0.0161,0.0608 v 2.56159 c 0,0.0631 0.0281,0.11083 0.0727,0.14221 0.0466,0.0233 0.0988,0.0161 0.15386,-0.0233 0.36193,-0.25978 0.72283,-0.52325 1.08484,-0.79089 0.36194,-0.27549 0.72512,-0.54889 1.08714,-0.81653 v 14.02811 c 0,0.0944 0.0482,0.1422 0.1422,0.1422 h 2.41931 c 0.0944,0 0.1402,-0.0478 0.1402,-0.1422 v -16.837 c 0,-0.0944 -0.0454,-0.1422 -0.1402,-0.1422 z m -10.10409,2.53826 c 0.67696,0 1.21536,0.21796 1.61674,0.65091 0.4095,0.42505 0.61361,1.01886 0.61361,1.78238 v 7.14351 c 0,0.77142 -0.20447,1.369 -0.61361,1.79406 -0.4013,0.42507 -0.93978,0.6369 -1.61674,0.6369 -0.67691,0 -1.21524,-0.21186 -1.61666,-0.6369 -0.4013,-0.42509 -0.60429,-1.02264 -0.60429,-1.79406 v -7.14349 c 0,-0.76351 0.20246,-1.35733 0.60429,-1.78237 0.4013,-0.43295 0.93975,-0.65091 1.61666,-0.65091 z m -9.98502,11.86545 c -0.0944,0 -0.14221,0.0478 -0.14221,0.14241 v 2.39827 c 0,0.0944 0.0478,0.14004 0.14221,0.14004 h 2.40762 c 0.0868,0 0.13055,-0.0455 0.13055,-0.14004 v -2.39827 c 0,-0.0944 -0.045,-0.14241 -0.13055,-0.14241 z" />
    <path
       d="m 603.27648,104.11721 v 50.61432 h 35.43542 v -50.61432 z m 1.38207,1.66007 h 32.65272 v 47.56606 h -32.65272 z m 13.66822,3.64689 -2.23485,8.86972 h 3.92185 l 0.282,-8.86972 z m 3.35327,0 0.282,8.86972 h 3.92381 l -2.23685,-8.86972 z m -15.90929,9.99231 v 1.94223 l 3.0669,1.10807 v 0.5847 h 1.41099 v -0.5847 c 0,0 2.08662,-0.31365 4.52569,-0.53535 1.95305,-0.17751 4.1317,-0.272 5.64404,-0.27806 1.79867,-0.006 4.45804,0.0935 6.73976,0.28846 2.51319,0.21447 4.57133,0.52498 4.57133,0.52498 v 0.58469 h 1.38199 v -0.58469 l 3.06685,-1.10807 v -1.94223 z m 9.21106,3.62066 -6.7045,26.68112 h 10.04946 l 1.3944,-26.68112 z m 7.2564,0 1.3944,26.68112 h 10.04942 l -6.70446,-26.68112 z"
       style="font-size:15.1831px;line-height:1.46;font-family:'Singapore Road Signs';-inkscape-font-specification:'Singapore Road Signs';text-align:center;text-anchor:middle;opacity:1;fill:#ffffff;fill-opacity:1;stroke-width:0.0756547"
       id="path2226"
       sodipodi:nodetypes="ccccccccccccccccccccccccccscsccccccccccccccccc" />
    <path
       id="path2228"
       style="font-style:normal;font-variant:normal;font-weight:normal;font-stretch:normal;font-size:14.7905px;line-height:1.4;font-family:'Alte DIN 1451 Mittelschrift gepraegt';-inkscape-font-specification:'Alte DIN 1451 Mittelschrift gepraegt';text-align:center;text-anchor:middle;opacity:1;fill:#ffffff;fill-opacity:1;stroke-width:0.198437"
       d="m 526.6295,88.232093 c -1.33415,0 -2.4506,0.321725 -3.34773,0.965827 -0.8895,0.636446 -1.53299,1.327905 -1.93172,2.071682 -0.13819,0.260707 -0.25749,0.52482 -0.35712,0.793207 -0.0992,0.268379 -0.17514,0.548488 -0.22817,0.839877 -0.0538,0.291357 -0.0936,0.756319 -0.11689,1.392764 -0.0201,0.636434 -0.0321,1.456764 -0.0321,2.46128 0,2.008975 0.0498,3.29595 0.14944,3.86337 0.0538,0.29136 0.12854,0.57151 0.22857,0.83987 0.0996,0.26071 0.21892,0.52085 0.35711,0.78157 0.39849,0.75144 1.04227,1.44287 1.93172,2.07163 0.90484,0.63644 2.02122,0.9542 3.34781,0.9542 0.72845,0 1.4079,-0.10332 2.03669,-0.31028 0.62875,-0.20704 1.21062,-0.5151 1.74733,-0.9215 1.10417,-0.84347 1.81732,-2.04717 2.1394,-3.61143 0.0161,-0.0459 0.008,-0.0836 -0.0201,-0.11437 -0.0321,-0.0386 -0.0683,-0.0583 -0.11449,-0.0583 h -2.6339 c -0.0201,0 -0.047,0.0112 -0.0703,0.0349 -0.0241,0.0157 -0.0406,0.0309 -0.0562,0.0466 -0.69013,1.44924 -1.6993,2.17433 -3.02585,2.17433 -0.57512,0 -1.06568,-0.11124 -1.47209,-0.33366 -0.40628,-0.23002 -0.7321,-0.50614 -0.97755,-0.8282 -0.13818,-0.17635 -0.26552,-0.38122 -0.38001,-0.61122 -0.10725,-0.23769 -0.19041,-0.47386 -0.25187,-0.71155 -0.0615,-0.260748 -0.10283,-0.660059 -0.12613,-1.196821 -0.0201,-0.544419 -0.0362,-1.23354 -0.0362,-2.069348 0,-0.820442 0.0161,-1.503907 0.0362,-2.048326 0.0201,-0.544403 0.0647,-0.947759 0.12613,-1.20847 0.0615,-0.245361 0.14462,-0.481512 0.25187,-0.711552 0.10726,-0.237689 0.2346,-0.450521 0.38001,-0.634578 0.24545,-0.299029 0.57115,-0.56315 0.97755,-0.793207 0.40633,-0.230016 0.89697,-0.345265 1.47209,-0.345265 0.77445,0 1.41388,0.226481 1.92003,0.678889 0.26834,0.230017 0.49486,0.48052 0.67888,0.748895 0.18439,0.260747 0.32739,0.544829 0.42706,0.851511 0.0161,0.06162 0.057,0.09111 0.12613,0.09111 h 2.6339 c 0.0458,0 0.0836,-0.01607 0.11449,-0.04664 0.0321,-0.03053 0.0406,-0.06845 0.0241,-0.114365 -0.25267,-1.357394 -0.9085,-2.531441 -1.96667,-3.520596 -1.04286,-0.981502 -2.36178,-1.472097 -3.95667,-1.472097 z m -55.89771,0.137463 c -0.092,0 -0.13739,0.04788 -0.13739,0.139874 v 2.218621 c 0,0.09195 0.0454,0.137464 0.13739,0.137464 h 4.38135 v 14.126065 c 0,0.0919 0.0454,0.13747 0.13739,0.13747 h 2.49623 c 0.092,0 0.13779,-0.0455 0.13779,-0.13747 V 90.865515 h 4.37192 c 0.092,0 0.13778,-0.04547 0.13778,-0.137464 v -2.218637 c 0,-0.09195 -0.0454,-0.139874 -0.13778,-0.139874 z m 13.50319,0 c -0.092,0 -0.13778,0.04788 -0.13778,0.139874 v 16.48236 c 0,0.0921 0.0454,0.13746 0.13778,0.13746 h 2.49628 c 0.092,0 0.13738,-0.0455 0.13738,-0.13746 v -6.303666 h 3.66974 c 1.72528,0 3.04023,-0.544234 3.94503,-1.633068 0.9048,-1.096503 1.35547,-2.246588 1.35547,-3.450422 0,-0.460113 -0.0454,-0.893087 -0.13778,-1.299492 -0.092,-0.406389 -0.22094,-0.7801 -0.38966,-1.117472 -0.17635,-0.329719 -0.3776,-0.627491 -0.59954,-0.895866 -0.21492,-0.276052 -0.45104,-0.518497 -0.71154,-0.725552 -0.67475,-0.521405 -1.31266,-0.851141 -1.91071,-0.989171 -0.59047,-0.138026 -1.21392,-0.207681 -1.87336,-0.207601 z m 21.79456,0 c -0.092,0 -0.13779,0.04788 -0.13779,0.139874 v 16.48236 c 0,0.0921 0.0454,0.13746 0.13779,0.13746 h 2.49623 c 0.092,0 0.13739,-0.0455 0.13739,-0.13746 v -7.064198 h 6.26868 v 7.064198 c 0,0.0921 0.0454,0.13746 0.13779,0.13746 h 2.49624 c 0.092,0 0.13778,-0.0455 0.13778,-0.13746 V 88.509454 c 0,-0.09195 -0.0454,-0.139874 -0.13778,-0.139874 h -2.49624 c -0.092,0 -0.13779,0.04804 -0.13779,0.139874 v 6.924236 h -6.26868 v -6.924236 c 0,-0.09195 -0.0454,-0.139874 -0.13739,-0.139874 z m 28.3991,0 c -0.092,0 -0.13778,0.04788 -0.13778,0.139874 v 16.48236 c 0,0.0921 0.0454,0.13746 0.13778,0.13746 h 2.4962 c 0.092,0 0.13738,-0.0455 0.13738,-0.13746 v -9.7541 l 3.24289,7.46313 c 0.0321,0.0459 0.0727,0.07 0.12613,0.07 h 2.08333 c 0.0538,0 0.0952,-0.0241 0.12613,-0.07 0.52909,-1.24217 1.06532,-2.47954 1.60975,-3.714065 0.54439,-1.234532 1.08469,-2.475877 1.62141,-3.725738 v 9.730773 c 0,0.0921 0.0454,0.13746 0.13778,0.13746 h 2.49624 c 0.092,0 0.13738,-0.0455 0.13738,-0.13746 V 88.509454 c 0,-0.09195 -0.0454,-0.139874 -0.13738,-0.139874 h -2.35616 c -0.0615,0 -0.10525,0.02812 -0.12815,0.08163 -0.75143,1.755977 -1.50217,3.499908 -2.2536,5.23284 -0.75151,1.725295 -1.49824,3.467551 -2.24204,5.223512 L 536.91367,88.45121 c -0.0321,-0.05371 -0.0743,-0.08163 -0.12814,-0.08163 z m -47.55976,2.64555 h 3.48548 c 0.6978,0 1.2636,0.147225 1.7007,0.438586 0.67474,0.437111 1.0125,1.130201 1.0125,2.081021 0,0.636433 -0.21853,1.212635 -0.65559,1.726388 -0.4293,0.529082 -1.08484,0.793207 -1.96666,0.793207 h -3.57643 z m 7.35583,11.503854 c -0.092,0 -0.13779,0.0455 -0.13779,0.13746 v 2.33531 c 0,0.0921 0.0454,0.13747 0.13779,0.13747 h 2.34696 c 0.0844,0 0.12614,-0.0455 0.12614,-0.13747 v -2.33531 c 0,-0.0919 -0.0406,-0.13746 -0.12614,-0.13746 z m 59.9291,17.16826 -1.17587,1.1758 c 0.32578,0.22548 0.49157,0.60102 0.49928,1.12914 -0.0241,0.63303 -0.38925,1.09001 -1.0685,1.39045 -1.05957,-0.99361 -2.47611,-1.61206 -4.04999,-1.61206 h -0.17032 c -3.28555,0 -5.93037,2.64488 -5.93037,5.93037 v 5.19551 c 0,3.28551 2.64482,5.93038 5.93037,5.93038 h 0.17032 c 3.28547,0 5.93038,-2.64487 5.93038,-5.93038 v -5.19551 c 0,-1.12959 -0.33101,-2.17116 -0.87484,-3.06785 0.10043,-0.0405 0.20126,-0.0799 0.29887,-0.12357 0.9708,-0.66016 1.44248,-1.51541 1.41143,-2.5639 -0.0161,-0.86208 -0.28039,-1.56145 -0.79321,-2.09737 -0.0538,-0.0543 -0.11528,-0.10669 -0.17715,-0.16092 z m -14.18674,0.1796 -1.11284,1.11515 c 0.282,0.21548 0.42661,0.56872 0.43388,1.05916 -0.012,0.57187 -0.33181,0.99736 -0.92858,1.2878 v -1.28314 c 0,-0.0921 -0.0454,-0.13746 -0.13738,-0.13746 h -2.49624 c -0.092,0 -0.13779,0.0455 -0.13779,0.13746 v 10.62896 c 0,1.09653 -0.31212,1.93286 -0.9332,2.50796 -0.62111,0.5751 -1.38383,0.86085 -2.28867,0.86085 -0.92011,0 -1.69082,-0.28577 -2.31193,-0.86085 -0.61345,-0.56743 -0.91919,-1.40376 -0.91919,-2.50796 v -10.62896 c 0,-0.0921 -0.0406,-0.13746 -0.12613,-0.13746 h -2.50793 c -0.092,0 -0.13778,0.0455 -0.13778,0.13746 v 10.90427 c 0,1.76362 0.58187,3.1818 1.74738,4.2553 1.16554,1.06585 2.58368,1.60042 4.25526,1.60042 1.66398,0 3.07654,-0.53457 4.23437,-1.60042 1.17318,-1.0735 1.75903,-2.49168 1.75903,-4.2553 v -8.13734 c 0.41042,-0.0822 0.79598,-0.2005 1.15016,-0.36399 0.92886,-0.63161 1.37821,-1.45114 1.34844,-2.45427 -0.0161,-0.82479 -0.26552,-1.49363 -0.75592,-2.00632 -0.045,-0.0446 -0.0908,-0.084 -0.13538,-0.12143 z m -40.60757,1.90368 c -1.33414,0 -2.4506,0.32173 -3.34777,0.96585 -0.88941,0.63644 -1.53294,1.32788 -1.93168,2.07166 h 0.0121 c -0.14582,0.26071 -0.26915,0.52482 -0.36837,0.79322 -0.0996,0.26834 -0.17755,0.54848 -0.23098,0.83985 -0.0458,0.2914 -0.0836,0.75402 -0.11448,1.39046 -0.0241,0.63643 -0.0362,1.45677 -0.0362,2.46126 0,1.0045 0.012,1.82885 0.0362,2.47295 0.0321,0.63643 0.0683,1.10137 0.11448,1.39278 0.0538,0.29135 0.13136,0.57148 0.23098,0.83984 0.0992,0.26075 0.22295,0.52085 0.36837,0.78156 h -0.0121 c 0.3985,0.75144 1.04227,1.44055 1.93168,2.06932 0.90484,0.63644 2.02126,0.95651 3.34777,0.95651 1.66399,0 3.08618,-0.58018 4.26708,-1.73803 1.16546,-1.14253 1.74733,-2.5607 1.74733,-4.25533 v -3.35946 c 0,-0.0843 -0.0454,-0.12585 -0.13778,-0.12585 h -5.85341 c -0.092,0 -0.13979,0.0415 -0.13979,0.12585 v 2.37029 c 0,0.0919 0.0478,0.13746 0.13979,0.13746 h 3.21951 v 0.71386 c 0,1.00452 -0.31373,1.81686 -0.94256,2.43797 -0.62108,0.6211 -1.38777,0.93084 -2.30029,0.93084 -0.57508,0 -1.06568,-0.11123 -1.47209,-0.33361 -0.40636,-0.23006 -0.73214,-0.50616 -0.97746,-0.82821 -0.13819,-0.17639 -0.26513,-0.37885 -0.38002,-0.60892 -0.10725,-0.23769 -0.19041,-0.47385 -0.25187,-0.71155 -0.0615,-0.26071 -0.10524,-0.66007 -0.12814,-1.1968 -0.0201,-0.54444 -0.0321,-1.23585 -0.0321,-2.07167 0,-0.82045 0.008,-1.50158 0.0321,-2.04602 0.0241,-0.54442 0.0667,-0.94775 0.12814,-1.20847 0.0615,-0.24536 0.14422,-0.48385 0.25187,-0.71388 0.10726,-0.23769 0.2346,-0.44819 0.38002,-0.63223 0.24504,-0.29903 0.57106,-0.56314 0.97746,-0.79322 0.40629,-0.23001 0.89701,-0.34526 1.47209,-0.34526 0.77445,0 1.41397,0.22648 1.92003,0.67891 0.26834,0.23001 0.49486,0.48049 0.67893,0.74887 0.18438,0.26075 0.32497,0.54248 0.42436,0.84919 0.0161,0.0614 0.0591,0.0932 0.12814,0.0932 h 2.6339 c 0.0458,0 0.0836,-0.0161 0.11449,-0.0466 0.0321,-0.0305 0.0406,-0.0684 0.0201,-0.11437 -0.25267,-1.36482 -0.90849,-2.53888 -1.96667,-3.52037 -1.04282,-0.9815 -2.36178,-1.47211 -3.95671,-1.47211 z m 79.39771,0 c -1.33423,0 -2.45069,0.32173 -3.34781,0.96585 -0.8895,0.63644 -1.53295,1.32788 -1.93168,2.07166 h 0.0161 c -0.14581,0.26071 -0.26914,0.52482 -0.36876,0.79322 -0.0992,0.26834 -0.17715,0.54848 -0.23098,0.83985 -0.0458,0.2914 -0.0836,0.75402 -0.11449,1.39046 -0.0201,0.63643 -0.0362,1.45677 -0.0362,2.46126 0,1.0045 0.0161,1.82885 0.0362,2.47295 0.0321,0.63643 0.0683,1.10137 0.11449,1.39278 0.0538,0.29135 0.13136,0.57148 0.23098,0.83984 0.0992,0.26075 0.22295,0.52085 0.36876,0.78156 h -0.0161 c 0.39849,0.75144 1.04218,1.44055 1.93168,2.06932 0.9048,0.63644 2.02121,0.95651 3.34781,0.95651 1.6639,0 3.0861,-0.58018 4.26695,-1.73803 1.16555,-1.14253 1.74738,-2.5607 1.74738,-4.25533 v -3.35946 c 0,-0.0843 -0.0454,-0.12585 -0.13779,-0.12585 h -5.85337 c -0.092,0 -0.13778,0.0415 -0.13778,0.12585 v 2.37029 c 0,0.0919 0.0454,0.13746 0.13778,0.13746 h 3.21947 v 0.71386 c 0,1.00452 -0.31373,1.81686 -0.94252,2.43797 -0.62104,0.6211 -1.38773,0.93084 -2.30028,0.93084 -0.57505,0 -1.06569,-0.11123 -1.47213,-0.33361 -0.40629,-0.23006 -0.73211,-0.50616 -0.97747,-0.82821 -0.13819,-0.17639 -0.26553,-0.37885 -0.38002,-0.60892 -0.10725,-0.23769 -0.1904,-0.47385 -0.25186,-0.71155 -0.0615,-0.26071 -0.10525,-0.66007 -0.12815,-1.1968 -0.0201,-0.54444 -0.0321,-1.23585 -0.0321,-2.07167 0,-0.82045 0.008,-1.50158 0.0321,-2.04602 0.0201,-0.54442 0.0667,-0.94775 0.12815,-1.20847 0.0615,-0.24536 0.14421,-0.48385 0.25186,-0.71388 0.10726,-0.23769 0.2346,-0.44819 0.38002,-0.63223 0.24504,-0.29903 0.5711,-0.56314 0.97747,-0.79322 0.40636,-0.23001 0.89708,-0.34526 1.47213,-0.34526 0.77448,0 1.41396,0.22648 1.92003,0.67891 0.26833,0.23001 0.49486,0.48049 0.67888,0.74887 0.18438,0.26075 0.32739,0.54248 0.42709,0.84919 0.0161,0.0614 0.057,0.0932 0.12614,0.0932 h 2.63394 c 0.0458,0 0.0835,-0.0161 0.11448,-0.0466 0.0321,-0.0305 0.0406,-0.0684 0.0241,-0.11437 -0.25307,-1.36486 -0.90849,-2.53894 -1.96666,-3.52043 -1.04287,-0.9815 -2.36179,-1.47209 -3.95668,-1.47209 z m -143.54471,0.13747 c -0.092,0 -0.13739,0.0455 -0.13739,0.13746 v 2.22099 c 0,0.0921 0.0454,0.13746 0.13739,0.13746 h 4.38364 v 14.12375 c 0,0.0921 0.0454,0.13988 0.13779,0.13988 h 2.49628 c 0.092,0 0.13738,-0.048 0.13738,-0.13988 v -14.12375 h 4.36967 c 0.092,0 0.13778,-0.0456 0.13778,-0.13746 v -2.22097 c 0,-0.0921 -0.0454,-0.13746 -0.13778,-0.13746 z m 13.50319,0 c -0.092,0 -0.13778,0.0455 -0.13778,0.13746 v 16.48247 c 0,0.0921 0.0458,0.13987 0.13778,0.13987 h 2.49628 c 0.092,0 0.13738,-0.048 0.13738,-0.13987 v -6.90093 h 2.97913 l 3.37115,6.95924 0.0562,0.0583 c 0.0241,0.0161 0.0466,0.0233 0.0703,0.0233 h 2.96751 c 0.0538,0 0.0908,-0.0197 0.11449,-0.0582 0.0201,-0.0462 0.0201,-0.0956 0,-0.14927 -0.62108,-1.18842 -1.2446,-2.38246 -1.87339,-3.57866 -0.62879,-1.20385 -1.25461,-2.39956 -1.87573,-3.58809 0.47542,-0.17635 0.90039,-0.40853 1.27618,-0.69989 0.3756,-0.29903 0.70548,-0.64476 0.98916,-1.03582 0.27597,-0.42175 0.49048,-0.87471 0.64393,-1.35779 0.15345,-0.49074 0.23098,-1.00934 0.23098,-1.55376 0,-0.36808 -0.0454,-0.72342 -0.13778,-1.06849 -0.092,-0.34503 -0.21933,-0.67077 -0.38001,-0.97751 -0.15346,-0.3067 -0.33422,-0.59083 -0.54122,-0.85153 -0.19965,-0.26838 -0.40994,-0.50686 -0.63229,-0.71388 -0.4293,-0.36041 -0.93199,-0.6365 -1.50711,-0.8282 -0.57504,-0.19936 -1.21853,-0.29863 -1.93164,-0.29863 z m 14.05603,0 c -0.092,0 -0.13738,0.0455 -0.13738,0.13746 v 10.90426 c 0,1.76361 0.58187,3.1818 1.74741,4.25531 1.16551,1.06585 2.58365,1.60041 4.25531,1.60041 1.66394,0 3.07645,-0.53456 4.23429,-1.60041 1.17322,-1.07351 1.75907,-2.4917 1.75907,-4.25531 v -10.90424 c 0,-0.0921 -0.0458,-0.13746 -0.13779,-0.13746 h -2.49628 c -0.092,0 -0.13738,0.0455 -0.13738,0.13746 v 10.62896 c 0,1.09653 -0.31212,1.93284 -0.9332,2.50796 -0.62112,0.57508 -1.38383,0.86085 -2.28863,0.86085 -0.92019,0 -1.69082,-0.28577 -2.31194,-0.86085 -0.61348,-0.56743 -0.91922,-1.40376 -0.91922,-2.50796 v -10.62896 c 0,-0.0921 -0.0406,-0.13746 -0.12613,-0.13746 z m 15.15963,0 c -0.092,0 -0.13779,0.0455 -0.13779,0.13746 v 16.48247 c 0,0.0921 0.0454,0.13987 0.13779,0.13987 h 2.50792 c 0.0844,0 0.12614,-0.048 0.12614,-0.13987 v -11.3405 l 7.2695,11.4105 c 0.0321,0.0459 0.0683,0.07 0.11448,0.07 h 2.35861 c 0.092,0 0.13779,-0.0481 0.13779,-0.13988 v -16.48236 c 0,-0.092 -0.0454,-0.13746 -0.13779,-0.13746 h -2.50792 c -0.092,0 -0.13779,0.0455 -0.13779,0.13746 v 11.34285 L 480.41605,121.978 c -0.0321,-0.0459 -0.0711,-0.07 -0.11649,-0.07 z m 36.1165,0 c -0.092,0 -0.13979,0.0455 -0.13979,0.13746 v 16.48247 c 0,0.0921 0.0478,0.13987 0.13979,0.13987 h 10.53568 c 0.092,0 0.13739,-0.048 0.13739,-0.13987 v -2.34464 c 0,-0.0921 -0.0454,-0.13987 -0.13739,-0.13987 h -7.90178 v -13.99778 c 0,-0.0919 -0.0478,-0.13746 -0.13979,-0.13746 z m 43.28108,0 c -0.092,0 -0.13738,0.0455 -0.13738,0.13746 v 16.48247 c 0,0.0921 0.0454,0.13987 0.13738,0.13987 h 2.50796 c 0.0844,0 0.12614,-0.048 0.12614,-0.13987 v -11.3405 l 7.26946,11.4105 c 0.0321,0.0459 0.0683,0.07 0.11448,0.07 h 2.35861 c 0.092,0 0.13739,-0.0481 0.13739,-0.13988 v -16.48236 c 0,-0.092 -0.0454,-0.13746 -0.13739,-0.13746 h -2.50792 c -0.092,0 -0.13779,0.0455 -0.13779,0.13746 v 11.34285 L 559.81368,121.978 c -0.0321,-0.0459 -0.0683,-0.07 -0.11449,-0.07 z m -105.97938,2.49627 h 3.79576 c 0.34506,0 0.66277,0.0415 0.95417,0.12586 0.29887,0.0843 0.5615,0.20362 0.78388,0.35695 0.25308,0.19165 0.44381,0.43813 0.57396,0.73722 0.13738,0.29903 0.20768,0.64075 0.20768,1.02414 0,0.67481 -0.22254,1.25665 -0.66715,1.74739 -0.44469,0.49075 -1.11224,0.73488 -2.0017,0.73489 h -3.64639 z m 96.93218,0.15622 c 1.79763,0 3.24284,1.44753 3.24284,3.24517 v 5.00886 c 0,1.7976 -1.44513,3.24516 -3.24284,3.24516 -1.79755,0 -3.24514,-1.44756 -3.24514,-3.24516 v -5.00886 c 0,-1.79761 1.44759,-3.24517 3.24514,-3.24517 z m -34.01222,26.51878 c -1.33555,0 -2.37797,0.35571 -3.12852,1.07081 -0.7446,0.70325 -1.11746,1.6161 -1.11746,2.7389 0,0.47868 0.0743,0.92206 0.22174,1.32978 0.14783,0.40184 0.36917,0.77474 0.6649,1.1175 0.29526,0.33683 0.65808,0.60969 1.08943,0.81652 0.43749,0.20089 0.93296,0.3384 1.48848,0.41529 0.1655,0.0233 0.31654,0.0486 0.4526,0.0724 0.1418,0.0177 0.27838,0.0333 0.40809,0.0513 0.13578,0.0177 0.26914,0.0358 0.39889,0.0537 0.13337,0.0173 0.27115,0.0362 0.41537,0.0537 1.04596,0.1418 1.5701,0.67838 1.5701,1.61207 0,0.49639 -0.20688,0.89544 -0.62059,1.19681 -0.43746,0.31317 -1.03528,0.47127 -1.79177,0.47127 -0.67362,0 -1.31362,-0.1138 -1.92232,-0.33827 -0.60276,-0.23046 -1.13823,-0.534 -1.60509,-0.91219 -0.0201,-0.0185 -0.0498,-0.0281 -0.0795,-0.0281 -0.0321,0 -0.0546,0.0145 -0.0723,0.0374 l -1.27376,1.44409 c -0.0161,0.0237 -0.0281,0.052 -0.0281,0.0816 0,0.0293 0.012,0.0521 0.0362,0.0701 1.35322,1.18189 2.99475,1.77305 4.92715,1.77305 1.37102,0 2.47599,-0.33201 3.31516,-0.99384 0.83321,-0.67368 1.2505,-1.60584 1.2505,-2.79955 0,-0.89234 -0.29203,-1.70175 -0.8772,-2.42861 -0.58504,-0.74459 -1.48313,-1.1914 -2.6946,-1.33912 -0.31333,-0.0358 -0.58604,-0.0686 -0.8165,-0.0979 -0.23018,-0.0357 -0.43071,-0.0686 -0.60192,-0.0979 -0.31935,-0.0472 -0.58854,-0.11778 -0.80722,-0.21226 -0.21853,-0.10047 -0.39287,-0.22211 -0.52254,-0.36395 -0.26031,-0.3073 -0.38966,-0.62217 -0.38966,-0.94717 0,-0.56734 0.19242,-0.9914 0.57617,-1.26914 0.19523,-0.1537 0.41356,-0.26163 0.65566,-0.32663 0.24263,-0.0709 0.50483,-0.1073 0.78851,-0.1073 0.55548,0 1.09204,0.0884 1.61208,0.26593 0.52001,0.17137 1.01113,0.40333 1.47209,0.69288 0.0534,0.035 0.10043,0.0253 0.14221,-0.0281 l 1.07311,-1.5864 c 0.0406,-0.0591 0.0321,-0.11039 -0.0281,-0.1516 -0.29525,-0.19503 -0.60577,-0.37239 -0.93083,-0.53194 -0.31936,-0.16542 -0.65566,-0.30642 -1.01021,-0.4246 -0.34868,-0.11846 -0.71122,-0.21029 -1.08946,-0.27529 -0.37238,-0.071 -0.75653,-0.105 -1.15249,-0.105 z m 10.24638,0 c -1.33555,0 -2.37798,0.35571 -3.12848,1.07081 -0.7446,0.70325 -1.11755,1.6161 -1.11755,2.7389 0,0.47868 0.0739,0.92206 0.22174,1.32978 0.14783,0.40184 0.36917,0.77474 0.66491,1.1175 0.29525,0.33683 0.65807,0.60969 1.08942,0.81652 0.43746,0.20089 0.93529,0.3384 1.49081,0.41529 0.1655,0.0233 0.31654,0.0486 0.45256,0.0724 0.1418,0.0177 0.27597,0.0333 0.40588,0.0513 0.13578,0.0177 0.26915,0.0358 0.3993,0.0537 0.13336,0.0173 0.27316,0.0362 0.41757,0.0537 1.046,0.1418 1.56782,0.67838 1.56782,1.61207 0,0.49639 -0.20688,0.89544 -0.6206,1.19681 -0.43746,0.31317 -1.03298,0.47127 -1.78939,0.47127 -0.67366,0 -1.31599,-0.1138 -1.92469,-0.33827 -0.60276,-0.23046 -1.13824,-0.534 -1.60506,-0.91219 -0.0201,-0.0185 -0.0498,-0.0281 -0.0795,-0.0281 -0.0321,0 -0.0522,0.0145 -0.0703,0.0374 l -1.27614,1.44409 c -0.0161,0.0237 -0.0281,0.052 -0.0281,0.0816 0,0.0293 0.008,0.0521 0.0362,0.0701 1.35327,1.18189 2.99484,1.77305 4.92724,1.77305 1.37098,0 2.47599,-0.33201 3.31511,-0.99384 0.83326,-0.67368 1.25051,-1.60584 1.25051,-2.79955 0,-0.89234 -0.29204,-1.70175 -0.87725,-2.42861 -0.585,-0.74459 -1.48309,-1.1914 -2.69451,-1.33912 -0.31333,-0.0358 -0.58609,-0.0686 -0.81655,-0.0979 -0.23098,-0.0357 -0.43071,-0.0686 -0.60191,-0.0979 -0.31936,-0.0472 -0.58858,-0.11778 -0.80723,-0.21226 -0.21853,-0.10047 -0.39287,-0.22211 -0.52258,-0.36395 -0.2603,-0.3073 -0.38965,-0.62217 -0.38965,-0.94717 0,-0.56734 0.19241,-0.9914 0.57624,-1.26914 0.19523,-0.1537 0.41356,-0.26163 0.65559,-0.32663 0.24263,-0.0709 0.5049,-0.1073 0.78854,-0.1073 0.55548,0 1.09437,0.0884 1.61438,0.26593 0.52004,0.17137 1.00884,0.40333 1.46979,0.69288 0.0534,0.035 0.10123,0.0253 0.14221,-0.0281 l 1.07311,-1.5864 c 0.0406,-0.0591 0.0321,-0.11039 -0.0281,-0.1516 -0.29525,-0.19503 -0.60577,-0.37239 -0.93083,-0.53194 -0.31935,-0.16542 -0.65795,-0.30642 -1.01253,-0.4246 -0.34868,-0.11846 -0.71126,-0.21029 -1.08947,-0.27529 -0.37238,-0.071 -0.75653,-0.105 -1.15245,-0.105 z m 24.21844,0.0863 c -0.0474,0 -0.0767,0.0249 -0.0888,0.0726 l -4.64496,12.70996 c -0.008,0.0358 -0.008,0.0686 0.008,0.0978 0.0161,0.0293 0.0474,0.0442 0.0884,0.0442 h 2.02741 c 0.0161,0 0.0362,-0.008 0.0538,-0.0185 0.0201,-0.0177 0.0362,-0.0333 0.045,-0.0513 0.1655,-0.47276 0.32819,-0.93777 0.48759,-1.39282 0.1655,-0.46091 0.3314,-0.93043 0.49695,-1.40908 h 4.6799 l 0.9565,2.8019 c 0.008,0.0473 0.0406,0.07 0.0888,0.07 h 2.02961 c 0.0362,0 0.0639,-0.0145 0.0815,-0.0442 0.0161,-0.0297 0.0241,-0.0626 0.008,-0.0979 l -4.63551,-12.70996 c -0.004,-0.0177 -0.0201,-0.0325 -0.045,-0.0442 -0.0161,-0.0181 -0.0362,-0.0281 -0.0538,-0.0281 z m -89.70931,0.0185 c -0.0711,0 -0.10525,0.0366 -0.10525,0.10742 v 12.70063 c 0,0.0711 0.0361,0.10741 0.10525,0.10741 h 8.12107 c 0.0711,0 0.10524,-0.0361 0.10524,-0.10741 v -1.80806 c 0,-0.0711 -0.0362,-0.10501 -0.10524,-0.10501 h -6.09142 v -3.52976 h 5.17685 c 0.0707,0 0.10726,-0.0305 0.10726,-0.0956 v -1.71939 c 0,-0.071 -0.0361,-0.10742 -0.10726,-0.10742 h -5.17685 v -3.40379 h 6.09142 c 0.0711,0 0.10524,-0.0366 0.10524,-0.10742 v -1.82435 c 0,-0.071 -0.0362,-0.10742 -0.10524,-0.10742 z m 8.78589,0 c -0.0406,0 -0.0711,0.0185 -0.0884,0.0537 -0.0161,0.0297 -0.0161,0.0638 0.008,0.10501 0.60276,1.02824 1.20182,2.05139 1.79871,3.06782 0.59686,1.01645 1.19933,2.0396 1.808,3.06785 l -3.85637,6.4623 c -0.0241,0.0415 -0.0281,0.0789 -0.008,0.11436 0.0161,0.0293 0.051,0.0442 0.0976,0.0442 h 2.17202 c 0.0362,0 0.0651,-0.0181 0.0888,-0.0537 0.44919,-0.76822 0.89697,-1.52989 1.34608,-2.28629 0.44923,-0.75641 0.89934,-1.51807 1.34848,-2.28629 l 2.69456,4.57258 c 0.0241,0.0358 0.053,0.0537 0.0884,0.0537 h 2.179 c 0.0466,0 0.0804,-0.0145 0.0976,-0.0442 0.0161,-0.0349 0.012,-0.0728 -0.008,-0.11436 -0.65003,-1.08144 -1.29345,-2.15921 -1.93167,-3.22882 -0.63823,-1.07552 -1.28164,-2.15207 -1.93168,-3.23348 l 3.60675,-6.13567 c 0.0201,-0.0415 0.0281,-0.0754 0.008,-0.10501 -0.0161,-0.0349 -0.0474,-0.0537 -0.0892,-0.0537 h -2.18134 c -0.0362,0 -0.0651,0.0185 -0.0888,0.0537 -0.40766,0.71504 -0.8147,1.4255 -1.22243,2.13465 -0.40765,0.70323 -0.8147,1.4092 -1.22251,2.11834 l -2.44727,-4.25301 c -0.0241,-0.0349 -0.0534,-0.0537 -0.0888,-0.0537 z m 11.21922,0 c -0.0711,0 -0.10725,0.0366 -0.10725,0.10742 v 12.70063 c 0,0.0711 0.0361,0.10741 0.10725,0.10741 h 1.9224 c 0.0711,0 0.10726,-0.0366 0.10726,-0.10741 v -4.85702 h 2.82756 c 1.3296,0 2.34254,-0.41832 3.0399,-1.25748 0.69732,-0.84503 1.04516,-1.73177 1.04516,-2.65956 0,-0.35454 -0.0362,-0.68995 -0.10525,-1.00317 -0.0711,-0.31321 -0.17112,-0.59855 -0.30128,-0.85854 -0.13577,-0.25408 -0.29083,-0.48606 -0.46188,-0.69289 -0.1655,-0.21278 -0.34707,-0.39805 -0.54828,-0.55758 -0.52005,-0.40187 -1.0111,-0.6565 -1.47209,-0.76286 -0.45501,-0.10642 -0.93823,-0.15868 -1.44642,-0.15868 z m 10.52632,0 c -0.0711,0 -0.10484,0.0366 -0.10484,0.10742 v 12.70063 c 0,0.0711 0.0361,0.10741 0.10484,0.10741 h 1.92469 c 0.0715,0 0.10726,-0.0366 0.10726,-0.10741 v -5.31691 h 2.29566 l 2.59662,5.36115 0.045,0.0442 c 0.0161,0.0112 0.0361,0.0185 0.0538,0.0185 h 2.28631 c 0.0406,0 0.0711,-0.0145 0.0892,-0.0442 0.0161,-0.0357 0.0161,-0.0751 0,-0.11678 -0.47867,-0.91599 -0.95952,-1.83334 -1.44409,-2.75523 -0.48454,-0.92779 -0.96775,-1.8509 -1.44642,-2.7669 0.36675,-0.13578 0.69487,-0.31433 0.98454,-0.5389 0.28922,-0.2305 0.54423,-0.4965 0.76283,-0.79789 0.21251,-0.32506 0.37881,-0.67517 0.49695,-1.04748 0.11851,-0.37821 0.17716,-0.77724 0.17716,-1.19681 0,-0.28364 -0.0362,-0.55761 -0.10726,-0.82354 -0.0711,-0.26593 -0.16751,-0.51717 -0.29164,-0.75356 -0.1185,-0.23637 -0.25829,-0.45463 -0.41761,-0.65555 -0.15345,-0.20684 -0.31614,-0.39102 -0.48759,-0.5506 -0.331,-0.2777 -0.71861,-0.48915 -1.16181,-0.63688 -0.44332,-0.15366 -0.93883,-0.23098 -1.48844,-0.23098 z m 10.92526,0 c -0.0707,0 -0.10726,0.0366 -0.10726,0.10742 v 12.70063 c 0,0.0711 0.0362,0.10741 0.10726,0.10741 h 8.1187 c 0.0711,0 0.10725,-0.0361 0.10725,-0.10741 v -1.80806 c 0,-0.0711 -0.0361,-0.10501 -0.10725,-0.10501 h -6.08901 v -3.52976 h 5.17682 c 0.0711,0 0.10725,-0.0305 0.10725,-0.0956 v -1.71939 c 0,-0.071 -0.0362,-0.10742 -0.10725,-0.10742 h -5.17682 v -3.40379 h 6.08901 c 0.0711,0 0.10725,-0.0366 0.10725,-0.10742 v -1.82435 c 0,-0.071 -0.0361,-0.10742 -0.10725,-0.10742 z m 29.40931,0 c -0.0362,0 -0.0651,0.0145 -0.0892,0.0442 -0.0241,0.0237 -0.0321,0.0533 -0.0161,0.0886 l 3.18214,12.70299 c 0.0161,0.0531 0.0482,0.0792 0.10726,0.0792 h 1.60272 c 0.053,0 0.086,-0.0265 0.0976,-0.0792 0.39005,-1.47738 0.78111,-2.94734 1.17113,-4.40697 0.39005,-1.45965 0.77882,-2.93069 1.1688,-4.41396 l 2.34929,8.82093 c 0.0161,0.0531 0.045,0.0792 0.0976,0.0792 h 1.60506 c 0.059,0 0.0936,-0.0265 0.10524,-0.0792 l 3.18219,-12.70299 c 0.0161,-0.035 0.008,-0.065 -0.0161,-0.0886 -0.0241,-0.0293 -0.0534,-0.0442 -0.0892,-0.0442 h -2.03913 c -0.0591,0 -0.0956,0.0265 -0.10726,0.0792 -0.31935,1.45967 -0.63742,2.908 -0.95658,4.34399 -0.31935,1.436 -0.63738,2.8809 -0.95646,4.33465 l -2.37729,-8.67852 c -0.008,-0.0531 -0.0406,-0.0792 -0.0956,-0.0792 h -1.39275 c -0.0591,0 -0.0956,0.0265 -0.10726,0.0792 -0.39608,1.45966 -0.79156,2.90797 -1.18748,4.34398 -0.39608,1.43599 -0.78815,2.88092 -1.17816,4.33465 l -1.91537,-8.67863 c -0.0121,-0.0531 -0.0458,-0.0792 -0.10525,-0.0792 z m 24.00614,0 c -0.0474,0 -0.0803,0.0145 -0.0976,0.0442 -0.0161,0.0297 -0.0161,0.0638 0,0.10501 0.63232,1.2469 1.2644,2.4917 1.89673,3.73274 0.63228,1.24097 1.26774,2.4858 1.90601,3.73272 v 5.19316 c 0,0.0711 0.0321,0.10741 0.0976,0.10741 h 1.82435 c 0.0707,0 0.10725,-0.0361 0.10725,-0.10741 v -5.19316 l 3.81206,-7.46548 c 0.0161,-0.0415 0.0161,-0.0755 0,-0.10501 -0.0161,-0.0293 -0.0506,-0.0442 -0.0976,-0.0442 h -2.02962 c -0.0161,0 -0.0362,0.008 -0.0538,0.0257 -0.0161,0.0112 -0.0321,0.0257 -0.045,0.0374 -0.43749,0.91596 -0.87041,1.82197 -1.30184,2.72025 -0.42529,0.89823 -0.85744,1.80426 -1.29478,2.72023 l -2.60493,-5.44048 c -0.0161,-0.0129 -0.0281,-0.0257 -0.045,-0.0374 -0.0161,-0.0177 -0.0362,-0.0257 -0.0538,-0.0257 z m -62.30872,1.92235 h 2.92321 c 0.26593,0 0.51269,0.0329 0.73725,0.0978 0.23017,0.065 0.4307,0.15702 0.60187,0.27532 0.19523,0.14779 0.34265,0.33643 0.44336,0.56689 0.10645,0.2305 0.15827,0.4931 0.15827,0.78855 0,0.52003 -0.17072,0.97025 -0.51325,1.34844 -0.34266,0.37825 -0.8566,0.56692 -1.54211,0.56692 h -2.80892 z m -10.52861,0.11678 h 2.68523 c 0.53777,0 0.97426,0.11139 1.31109,0.33598 0.52005,0.33687 0.78156,0.8723 0.78156,1.60508 0,0.49049 -0.16912,0.93385 -0.50627,1.32981 -0.33101,0.40773 -0.83679,0.61124 -1.51636,0.61124 h -2.75525 z m 68.491,1.03585 c 0.0241,0.0768 0.0406,0.13589 0.0538,0.17731 0.0161,0.0415 0.0321,0.0813 0.045,0.11677 0.008,0.0297 0.0161,0.0626 0.0281,0.0978 0.008,0.0297 0.0281,0.0738 0.045,0.13292 0.0362,0.11224 0.0687,0.21676 0.0976,0.31727 0.0362,0.10047 0.0687,0.19262 0.0976,0.27529 0.059,0.18322 0.11449,0.36057 0.16791,0.53194 0.059,0.17137 0.11449,0.34418 0.16792,0.51558 0.0281,0.0828 0.059,0.16796 0.0888,0.25661 0.0321,0.0828 0.0591,0.17145 0.0884,0.26597 0.0362,0.10047 0.0695,0.20499 0.10525,0.31727 0.0406,0.11236 0.0844,0.22941 0.12613,0.34759 0.0651,0.18322 0.13899,0.39809 0.22174,0.64627 0.0824,0.24231 0.17274,0.5083 0.27316,0.79787 0.008,0.035 0.0281,0.0763 0.045,0.12373 0.0201,0.0473 0.0406,0.0917 0.0538,0.13292 h -3.40381 c 0.12975,-0.37226 0.23701,-0.67924 0.31976,-0.92151 0.0824,-0.24822 0.16349,-0.4778 0.24022,-0.69055 0.0767,-0.21275 0.14421,-0.41857 0.20326,-0.61359 0.0651,-0.19503 0.12734,-0.3803 0.18639,-0.55756 0.0321,-0.0828 0.0591,-0.16799 0.0888,-0.25669 0.0321,-0.0886 0.059,-0.1808 0.0884,-0.27529 0.0321,-0.0884 0.059,-0.17727 0.0888,-0.26592 0.0362,-0.0884 0.0663,-0.18407 0.0956,-0.28457 0.0161,-0.0293 0.0201,-0.0568 0.0281,-0.0863 0.004,-0.0297 0.0121,-0.0626 0.0281,-0.0978 0.0474,-0.14189 0.0984,-0.29646 0.15144,-0.46192 0.059,-0.16546 0.12131,-0.34623 0.18639,-0.54127 z" />
    <path
       sodipodi:nodetypes="ccccccc"
       d="m 636.72627,104.12424 h 1.97538 v 2.76633 l -33.76054,47.84094 -1.66463,2e-5 -6.8e-4,-2.51736 z"
       style="font-size:15.1831px;line-height:1.46;font-family:'Singapore Road Signs';-inkscape-font-specification:'Singapore Road Signs';text-align:center;text-anchor:middle;opacity:1;fill:#f00a0a;fill-opacity:1;fill-rule:evenodd;stroke:none;stroke-width:0.119062;stroke-linecap:square;stroke-miterlimit:10;stroke-dasharray:none;stroke-opacity:1;paint-order:stroke fill markers"
       id="path2230" />
  </g>
</svg>
