<?xml version="1.0" encoding="UTF-8" standalone="no"?>
<!-- Created with Inkscape (http://www.inkscape.org/) -->

<svg
   xmlns:dc="http://purl.org/dc/elements/1.1/"
   xmlns:cc="http://creativecommons.org/ns#"
   xmlns:rdf="http://www.w3.org/1999/02/22-rdf-syntax-ns#"
   xmlns:svg="http://www.w3.org/2000/svg"
   xmlns="http://www.w3.org/2000/svg"
   xmlns:sodipodi="http://sodipodi.sourceforge.net/DTD/sodipodi-0.dtd"
   xmlns:inkscape="http://www.inkscape.org/namespaces/inkscape"
   width="840mm"
   height="1120mm"
   viewBox="0 0 839.99998 1120"
   version="1.1"
   id="svg8"
   inkscape:version="0.92.2 (5c3e80d, 2017-08-06)"
   sodipodi:docname="11.svg">
  <defs
     id="defs2" />
  <sodipodi:namedview
     id="base"
     pagecolor="#ffffff"
     bordercolor="#666666"
     borderopacity="1.0"
     inkscape:pageopacity="0.0"
     inkscape:pageshadow="2"
     inkscape:zoom="0.082619845"
     inkscape:cx="216.01665"
     inkscape:cy="-194.00882"
     inkscape:document-units="mm"
     inkscape:current-layer="layer1"
     showgrid="false"
     inkscape:window-width="1920"
     inkscape:window-height="1057"
     inkscape:window-x="-8"
     inkscape:window-y="-8"
     inkscape:window-maximized="1"
     inkscape:measure-start="0,0"
     inkscape:measure-end="0,0"
     fit-margin-top="0"
     fit-margin-left="0"
     fit-margin-right="0"
     fit-margin-bottom="0"
     showguides="true"
     inkscape:snap-global="false" />
  <metadata
     id="metadata5">
    <rdf:RDF>
      <cc:Work
         rdf:about="">
        <dc:format>image/svg+xml</dc:format>
        <dc:type
           rdf:resource="http://purl.org/dc/dcmitype/StillImage" />
        <dc:title></dc:title>
      </cc:Work>
    </rdf:RDF>
  </metadata>
  <g
     inkscape:label="Layer 1"
     inkscape:groupmode="layer"
     id="layer1"
     transform="translate(-1522.7142,2032.0071)">
    <rect
       style="opacity:1;fill:#000000;fill-opacity:1;fill-rule:nonzero;stroke:none;stroke-width:0.03623335;stroke-linecap:round;stroke-linejoin:miter;stroke-miterlimit:10;stroke-dasharray:none;stroke-opacity:1;paint-order:stroke fill markers"
       id="rect824"
       width="840"
       height="1120"
       x="1522.7142"
       y="-2032.0071" />
    <rect
       y="-1182.2072"
       x="1543.014"
       height="249.89999"
       width="799.40002"
       id="rect826"
       style="opacity:1;fill:#ffffff;fill-opacity:1;fill-rule:nonzero;stroke:none;stroke-width:0.01669649;stroke-linecap:round;stroke-linejoin:miter;stroke-miterlimit:10;stroke-dasharray:none;stroke-opacity:1;paint-order:stroke fill markers" />
    <rect
       style="opacity:1;fill:#ffffff;fill-opacity:1;fill-rule:nonzero;stroke:none;stroke-width:0.03004485;stroke-linecap:round;stroke-linejoin:miter;stroke-miterlimit:10;stroke-dasharray:none;stroke-opacity:1;paint-order:stroke fill markers"
       id="rect829"
       width="799.40002"
       height="809.20001"
       x="1543.014"
       y="-2011.707" />
    <circle
       r="350"
       cy="-1607.1072"
       cx="1942.7142"
       id="circle832"
       style="opacity:1;fill:#f00a0a;fill-opacity:1;fill-rule:nonzero;stroke:none;stroke-width:315.81494141;stroke-linecap:round;stroke-linejoin:round;stroke-miterlimit:4;stroke-dasharray:none;stroke-opacity:1;paint-order:stroke fill markers" />
    <circle
       r="250"
       style="opacity:1;fill:#000000;fill-opacity:1;fill-rule:nonzero;stroke:none;stroke-width:225.58209229;stroke-linecap:round;stroke-linejoin:round;stroke-miterlimit:4;stroke-dasharray:none;stroke-opacity:1;paint-order:stroke fill markers"
       id="circle834"
       cx="1942.7142"
       cy="-1607.1072" />
    <g
       aria-label="20 "
       style="font-style:normal;font-variant:normal;font-weight:bold;font-stretch:normal;font-size:414.86404419px;line-height:0;font-family:Giaothong1;-inkscape-font-specification:'Giaothong1 Bold';letter-spacing:0px;word-spacing:0px;fill:#d4aa00;fill-opacity:1;stroke:none;stroke-width:2.16075015"
       id="text874"
       transform="matrix(-0.74555109,0,0,0.74571452,54.741341,-1164.9527)">
      <rect
         style="font-style:normal;font-variant:normal;font-weight:bold;font-stretch:normal;font-size:414.86404419px;line-height:0;font-family:Giaothong1;-inkscape-font-specification:'Giaothong1 Bold';letter-spacing:0px;word-spacing:0px;opacity:1;fill:#ffffff;fill-opacity:1;fill-rule:nonzero;stroke:none;stroke-width:0.06043302;stroke-linecap:round;stroke-linejoin:miter;stroke-miterlimit:10;stroke-dasharray:none;stroke-opacity:1;paint-order:stroke fill markers"
         id="rect984-5"
         width="118.70415"
         height="281.6091"
         x="2544.3899"
         y="-686.79706"
         rx="59.352074"
         ry="59.339066"
         transform="scale(-1,1)" />
      <rect
         rx="19.11338"
         y="-646.5672"
         x="2584.6287"
         height="201.14938"
         width="38.226761"
         id="rect988-8"
         style="font-style:normal;font-variant:normal;font-weight:bold;font-stretch:normal;font-size:414.86404419px;line-height:0;font-family:Giaothong1;-inkscape-font-specification:'Giaothong1 Bold';letter-spacing:0px;word-spacing:0px;opacity:1;fill:#000000;fill-opacity:1;fill-rule:nonzero;stroke:none;stroke-width:0.02898419;stroke-linecap:round;stroke-linejoin:miter;stroke-miterlimit:10;stroke-dasharray:none;stroke-opacity:1;paint-order:stroke fill markers"
         ry="19.109192"
         transform="scale(-1,1)" />
      <g
         aria-label="70"
         style="font-style:normal;font-variant:normal;font-weight:bold;font-stretch:normal;font-size:414.86404419px;line-height:0;font-family:Giaothong1;-inkscape-font-specification:'Giaothong1 Bold';letter-spacing:0px;word-spacing:0px;fill:#ffffff;fill-opacity:1;stroke:none;stroke-width:4.66884136"
         id="text842"
         transform="matrix(-1.0059673,0,0,1.0057469,-1416.2155,-920.8847)">
        <path
           d="m 1014.3241,304.52634 h -34.84184 v -69.27629 h 118.30004 v 36.05608 l -64.8219,240.64392 h -41.93174 l 67.25274,-239.83368 h -43.9573 z"
           style="fill:#ffffff;stroke:none;stroke-width:4.6687274"
           id="path855"
           inkscape:connector-curvature="0" />
      </g>
      <text
         xml:space="preserve"
         style="font-style:normal;font-variant:normal;font-weight:bold;font-stretch:normal;font-size:68.13005066px;line-height:0;font-family:Giaothong1;-inkscape-font-specification:'Giaothong1 Bold';letter-spacing:0px;word-spacing:0px;fill:#000000;fill-opacity:1;stroke:none;stroke-width:0.76672924"
         x="-387.59976"
         y="-37.694454"
         id="text937"
         transform="scale(-1.0001096,0.99989041)"><tspan
           sodipodi:role="line"
           id="tspan935"
           x="-387.59976"
           y="-18.730619"
           style="stroke-width:0.76672924" /></text>
      <g
         aria-label="ĐÊM"
         transform="matrix(-1.0001096,0,0,0.99989041,-781.58844,492.1253)"
         style="font-style:normal;font-variant:normal;font-weight:bold;font-stretch:normal;font-size:197.05227661px;line-height:0;font-family:Giaothong1;-inkscape-font-specification:'Giaothong1 Bold';letter-spacing:0px;word-spacing:0px;fill:#000000;fill-opacity:1;stroke:none;stroke-width:2.21760798"
         id="text941">
        <path
           d="m 1621.319,-1285.9347 v -15.6834 h 11.4498 v -55.8058 h 29.7311 q 12.6044,0 21.745,8.9482 9.2368,8.9481 9.2368,21.5526 v 68.4102 q 0,14.2401 -8.8519,23.3807 -8.7558,9.1406 -22.7072,9.1406 h -29.1538 v -59.9431 z m 42.5279,0.1924 h -12.412 v 42.2392 h 9.1406 q 7.2163,0 10.6801,-3.8486 3.4638,-3.8487 3.4638,-11.1612 v -68.4102 q 0,-5.4844 -4.0411,-9.1406 -4.0411,-3.6563 -9.5255,-3.6563 h -9.7179 v 38.1019 h 12.412 z"
           style="fill:#ffffff;stroke:none;stroke-width:2.21760798"
           id="path959"
           inkscape:connector-curvature="0" />
        <path
           d="m 1766.6066,-1244.9463 v 18.9547 h -56.1907 v -131.4323 h 56.1907 v 17.319 h -37.6208 v 38.8717 h 33.0986 v 17.7039 h -33.0986 v 38.583 z m -28.9613,-130.4702 -13.4704,10.2952 h -12.9893 l 19.6283,-19.7244 h 14.4325 l 19.4358,19.7244 h -13.1817 z"
           style="fill:#ffffff;stroke:none;stroke-width:2.21760798"
           id="path961"
           inkscape:connector-curvature="0" />
        <path
           d="m 1849.5456,-1225.9916 v -79.9562 l -18.7623,56.0944 h -9.4293 l -18.6661,-56.0944 v 79.9562 h -18.7623 v -131.4323 h 17.5115 l 25.0164,69.9497 24.4391,-69.9497 h 17.4153 v 131.4323 z"
           style="fill:#ffffff;stroke:none;stroke-width:2.21760798"
           id="path963"
           inkscape:connector-curvature="0" />
      </g>
      <rect
         transform="scale(-1,1)"
         ry="28.087158"
         rx="28.093315"
         y="77.369492"
         x="2369.0835"
         height="133.29498"
         width="56.18663"
         id="rect1010"
         style="font-style:normal;font-variant:normal;font-weight:bold;font-stretch:normal;font-size:414.86404419px;line-height:0;font-family:Giaothong1;-inkscape-font-specification:'Giaothong1 Bold';letter-spacing:0px;word-spacing:0px;opacity:1;fill:#000000;fill-opacity:1;fill-rule:nonzero;stroke:none;stroke-width:0.02860496;stroke-linecap:round;stroke-linejoin:miter;stroke-miterlimit:10;stroke-dasharray:none;stroke-opacity:1;paint-order:stroke fill markers" />
      <rect
         transform="scale(-1,1)"
         ry="9.0450172"
         style="font-style:normal;font-variant:normal;font-weight:bold;font-stretch:normal;font-size:414.86404419px;line-height:0;font-family:Giaothong1;-inkscape-font-specification:'Giaothong1 Bold';letter-spacing:0px;word-spacing:0px;opacity:1;fill:#ffffff;fill-opacity:1;fill-rule:nonzero;stroke:none;stroke-width:0.01371918;stroke-linecap:round;stroke-linejoin:miter;stroke-miterlimit:10;stroke-dasharray:none;stroke-opacity:1;paint-order:stroke fill markers"
         id="rect1012"
         width="18.094"
         height="95.210709"
         x="2388.1299"
         y="96.411613"
         rx="9.0469999" />
      <rect
         style="font-style:normal;font-variant:normal;font-weight:bold;font-stretch:normal;font-size:414.86404419px;line-height:0;font-family:Giaothong1;-inkscape-font-specification:'Giaothong1 Bold';letter-spacing:0px;word-spacing:0px;opacity:1;fill:#000000;fill-opacity:1;fill-rule:nonzero;stroke:none;stroke-width:0.02860496;stroke-linecap:round;stroke-linejoin:miter;stroke-miterlimit:10;stroke-dasharray:none;stroke-opacity:1;paint-order:stroke fill markers"
         id="rect1032"
         width="56.18663"
         height="133.29498"
         x="2432.7949"
         y="77.369492"
         rx="28.093315"
         ry="28.087158"
         transform="scale(-1,1)" />
      <rect
         rx="9.0469999"
         y="96.411613"
         x="2451.8413"
         height="95.210709"
         width="18.094"
         id="rect1034"
         style="font-style:normal;font-variant:normal;font-weight:bold;font-stretch:normal;font-size:414.86404419px;line-height:0;font-family:Giaothong1;-inkscape-font-specification:'Giaothong1 Bold';letter-spacing:0px;word-spacing:0px;opacity:1;fill:#ffffff;fill-opacity:1;fill-rule:nonzero;stroke:none;stroke-width:0.01371918;stroke-linecap:round;stroke-linejoin:miter;stroke-miterlimit:10;stroke-dasharray:none;stroke-opacity:1;paint-order:stroke fill markers"
         ry="9.0450172"
         transform="scale(-1,1)" />
      <rect
         style="font-style:normal;font-variant:normal;font-weight:bold;font-stretch:normal;font-size:414.86404419px;line-height:0;font-family:Giaothong1;-inkscape-font-specification:'Giaothong1 Bold';letter-spacing:0px;word-spacing:0px;opacity:1;fill:#000000;fill-opacity:1;fill-rule:nonzero;stroke:none;stroke-width:0.02860496;stroke-linecap:round;stroke-linejoin:miter;stroke-miterlimit:10;stroke-dasharray:none;stroke-opacity:1;paint-order:stroke fill markers"
         id="rect1056"
         width="56.18663"
         height="133.29498"
         x="2776.7146"
         y="77.369492"
         rx="28.093315"
         ry="28.087158"
         transform="scale(-1,1)" />
      <rect
         rx="9.0469999"
         y="96.411613"
         x="2795.761"
         height="95.210709"
         width="18.094"
         id="rect1058"
         style="font-style:normal;font-variant:normal;font-weight:bold;font-stretch:normal;font-size:414.86404419px;line-height:0;font-family:Giaothong1;-inkscape-font-specification:'Giaothong1 Bold';letter-spacing:0px;word-spacing:0px;opacity:1;fill:#ffffff;fill-opacity:1;fill-rule:nonzero;stroke:none;stroke-width:0.01371918;stroke-linecap:round;stroke-linejoin:miter;stroke-miterlimit:10;stroke-dasharray:none;stroke-opacity:1;paint-order:stroke fill markers"
         ry="9.0450172"
         transform="scale(-1,1)" />
      <rect
         transform="scale(-1,1)"
         ry="28.087158"
         rx="28.093315"
         y="77.369492"
         x="2840.4258"
         height="133.29498"
         width="56.18663"
         id="rect1060"
         style="font-style:normal;font-variant:normal;font-weight:bold;font-stretch:normal;font-size:414.86404419px;line-height:0;font-family:Giaothong1;-inkscape-font-specification:'Giaothong1 Bold';letter-spacing:0px;word-spacing:0px;opacity:1;fill:#000000;fill-opacity:1;fill-rule:nonzero;stroke:none;stroke-width:0.02860496;stroke-linecap:round;stroke-linejoin:miter;stroke-miterlimit:10;stroke-dasharray:none;stroke-opacity:1;paint-order:stroke fill markers" />
      <rect
         transform="scale(-1,1)"
         ry="9.0450172"
         style="font-style:normal;font-variant:normal;font-weight:bold;font-stretch:normal;font-size:414.86404419px;line-height:0;font-family:Giaothong1;-inkscape-font-specification:'Giaothong1 Bold';letter-spacing:0px;word-spacing:0px;opacity:1;fill:#ffffff;fill-opacity:1;fill-rule:nonzero;stroke:none;stroke-width:0.01371918;stroke-linecap:round;stroke-linejoin:miter;stroke-miterlimit:10;stroke-dasharray:none;stroke-opacity:1;paint-order:stroke fill markers"
         id="rect1062"
         width="18.094"
         height="95.210709"
         x="2859.4722"
         y="96.411613"
         rx="9.0469999" />
    </g>
    <g
       aria-label="22:00 - 5:00"
       style="font-style:normal;font-variant:normal;font-weight:bold;font-stretch:normal;font-size:147.31312561px;line-height:0;font-family:Giaothong1;-inkscape-font-specification:'Giaothong1 Bold';letter-spacing:0px;word-spacing:0px;fill:#000000;fill-opacity:1;stroke:none;stroke-width:0.76725584"
       id="text978"
       transform="translate(-1460.7563,74.416728)">
      <path
         d="m 3174.0216,-1082.5369 h -41.8634 v -12.9475 l 26.1107,-50.7108 q 1.7263,-3.5246 1.7263,-7.193 v -7.3369 q 0,-2.9491 -2.086,-5.0351 -2.014,-2.086 -4.9632,-2.086 -2.6614,0 -4.8193,1.8702 -2.086,1.7983 -2.086,4.6035 v 8.7036 h -14.1702 v -7.0492 q 0,-5.7544 4.3158,-13.8106 4.3877,-8.1281 17.479,-8.1281 8.272,0 14.3141,6.3299 6.0422,6.3298 6.0422,14.6018 v 8.9194 q 0,3.093 -0.8632,6.0421 -0.7912,2.9491 -2.3737,6.0421 l -22.1545,43.1582 h 25.3914 z"
         style="fill:#000000;fill-opacity:1;stroke:none;stroke-width:0.76725584"
         id="path989"
         inkscape:connector-curvature="0" />
      <path
         d="m 3225.8114,-1082.5369 h -41.8634 v -12.9475 l 26.1106,-50.7108 q 1.7264,-3.5246 1.7264,-7.193 v -7.3369 q 0,-2.9491 -2.086,-5.0351 -2.0141,-2.086 -4.9632,-2.086 -2.6614,0 -4.8193,1.8702 -2.086,1.7983 -2.086,4.6035 v 8.7036 h -14.1703 v -7.0492 q 0,-5.7544 4.3159,-13.8106 4.3877,-8.1281 17.479,-8.1281 8.272,0 14.3141,6.3299 6.0422,6.3298 6.0422,14.6018 v 8.9194 q 0,3.093 -0.8632,6.0421 -0.7912,2.9491 -2.3737,6.0421 l -22.1545,43.1582 h 25.3914 z"
         style="fill:#000000;fill-opacity:1;stroke:none;stroke-width:0.76725584"
         id="path991"
         inkscape:connector-curvature="0" />
      <path
         d="m 3511.9596,-1145.7636 q 3.7403,0 7.4807,2.086 3.7404,2.086 5.5386,4.8193 1.8702,2.7333 2.5176,5.7544 0.7193,2.9492 0.7193,6.4018 v 22.0826 q 0,3.2369 -0.2158,5.4667 -0.2158,2.1579 -1.7263,6.186 -1.4386,3.9562 -7.1211,7.6246 -5.6825,3.6684 -12.1562,3.6684 -5.0352,0 -9.5668,-2.3737 -4.4596,-2.4456 -6.9772,-5.9702 -2.4456,-3.5965 -3.3807,-7.193 -0.8632,-3.5965 -0.8632,-7.4088 v -2.5176 h 14.3141 v 2.5176 q 0,1.4386 0.072,2.9491 0.072,1.4386 1.5105,3.6685 1.5105,2.2298 5.179,2.2298 3.9562,0 5.2509,-2.1579 1.3667,-2.1579 1.5105,-3.3807 0.1439,-1.2948 0.1439,-2.7334 v -1.6544 -19.1334 q 0,-1.2947 -0.072,-2.7334 -0.072,-1.5105 -1.6544,-3.7403 -1.5106,-2.2299 -5.0352,-2.2299 -5.1789,0 -6.9053,5.179 h -12.5158 v -52.4371 h 40.209 v 13.0913 h -27.6932 v 26.3984 q 5.1071,-4.4597 11.437,-4.4597 z"
         style="fill:#000000;fill-opacity:1;stroke:none;stroke-width:0.76725584"
         id="path1001"
         inkscape:connector-curvature="0" />
      <rect
         style="opacity:1;fill:#000000;fill-opacity:1;fill-rule:nonzero;stroke:none;stroke-width:0.02062652;stroke-linecap:round;stroke-linejoin:miter;stroke-miterlimit:10;stroke-dasharray:none;stroke-opacity:1;paint-order:stroke fill markers"
         id="rect1036"
         width="42"
         height="14"
         x="3406.8706"
         y="-1128.1738" />
      <rect
         style="opacity:1;fill:#000000;fill-opacity:1;fill-rule:nonzero;stroke:none;stroke-width:0.03003266;stroke-linecap:round;stroke-linejoin:miter;stroke-miterlimit:10;stroke-dasharray:none;stroke-opacity:1;paint-order:stroke fill markers"
         id="rect1073"
         width="14"
         height="14"
         x="3247.3706"
         y="-1109.1738" />
      <rect
         y="-1140.2739"
         x="3247.3706"
         height="14"
         width="14"
         id="rect1084"
         style="opacity:1;fill:#000000;fill-opacity:1;fill-rule:nonzero;stroke:none;stroke-width:0.03003266;stroke-linecap:round;stroke-linejoin:miter;stroke-miterlimit:10;stroke-dasharray:none;stroke-opacity:1;paint-order:stroke fill markers" />
      <rect
         y="-1109.1738"
         x="3551.1707"
         height="14"
         width="14"
         id="rect1095"
         style="opacity:1;fill:#000000;fill-opacity:1;fill-rule:nonzero;stroke:none;stroke-width:0.03003266;stroke-linecap:round;stroke-linejoin:miter;stroke-miterlimit:10;stroke-dasharray:none;stroke-opacity:1;paint-order:stroke fill markers" />
      <rect
         style="opacity:1;fill:#000000;fill-opacity:1;fill-rule:nonzero;stroke:none;stroke-width:0.03003266;stroke-linecap:round;stroke-linejoin:miter;stroke-miterlimit:10;stroke-dasharray:none;stroke-opacity:1;paint-order:stroke fill markers"
         id="rect1097"
         width="14"
         height="14"
         x="3551.1707"
         y="-1140.2739" />
    </g>
  </g>
</svg>
