<?xml version="1.0" encoding="UTF-8" standalone="no"?>
<svg
   version="1.1"
   id="Layer_1"
   x="0px"
   y="0px"
   viewBox="0 0 152 57"
   enable-background="new 0 0 122 57"
   sodipodi:docname="QL_239,_VNM.svg"
   width="152"
   height="57"
   inkscape:version="1.1 (c4e8f9e, 2021-05-24)"
   xmlns:inkscape="http://www.inkscape.org/namespaces/inkscape"
   xmlns:sodipodi="http://sodipodi.sourceforge.net/DTD/sodipodi-0.dtd"
   xmlns="http://www.w3.org/2000/svg"
   xmlns:svg="http://www.w3.org/2000/svg">
  <path
     fill="#ffffff"
     stroke="#000000"
     stroke-width="2"
     stroke-miterlimit="10"
     d="M 151,54 V 3 c 0,-1.1 -0.9,-2 -2,-2 H 3 C 1.9,1 1,1.9 1,3 v 51 c 0,1.1 0.9,2 2,2 h 146 c 1.1,0 2,-0.9 2,-2 z"
     id="path850"
     sodipodi:nodetypes="sssssssss" />
  <g
     aria-label="QL.239"
     id="text6783"
     style="font-size:47.9564px;font-family:'DIN 1451 Std';-inkscape-font-specification:'DIN 1451 Std';letter-spacing:0px;word-spacing:0px;stroke-width:2.99728">
    <path
       d="m 25.83,39.24 c -0.96,0.72 -2.25,1.2 -3.83,1.2 -2.45,0 -4.22,-1.15 -5.28,-2.5 C 15.38,36.22 15,35.26 15,28.26 c 0,-7 0.38,-7.96 1.72,-9.69 1.06,-1.34 2.83,-2.49 5.28,-2.49 2.44,0 4.22,1.15 5.27,2.49 1.34,1.73 1.73,2.69 1.73,9.69 0,3.79 -0.1,5.85 -0.48,7.14 l -3.98,-3.16 -3.07,3.55 z m 8.54,6.86 3.07,-3.55 -4.51,-3.6 c 0.96,-1.77 1.25,-3.31 1.25,-10.69 0,-8.2 -0.39,-9.21 -1.49,-11.22 C 31.06,14.06 27.37,10.9 22,10.9 c -5.37,0 -9.07,3.16 -10.7,6.14 -1.1,2.01 -1.484,3.02 -1.484,11.22 0,8.2 0.384,9.21 1.484,11.22 1.63,2.97 5.33,6.14 10.7,6.14 3.35,0 6.04,-1.25 8.05,-2.98 z"
       id="path11919" />
    <path
       d="M 40.19,45.33 H 62.01 V 40.44 H 45.37 V 11.19 h -5.18 z"
       id="path11921" />
    <path
       d="m 66.6,45.33 h 4.89 V 40.44 H 66.6 Z"
       id="path11923" />
    <path
       d="M 76.34,45.33 H 95.81 V 40.44 H 82.77 L 93.75,26.67 c 1.44,-1.77 2.06,-3.74 2.06,-5.99 0,-5.42 -4.26,-9.78 -9.97,-9.78 -5.13,0 -9.45,4.27 -9.5,9.83 h 4.89 c 0.24,-3.07 2.35,-4.94 4.99,-4.94 2.93,0 4.7,2.44 4.7,4.84 0,1.01 -0.19,2.06 -1.24,3.41 L 76.34,40.73 Z"
       id="path11925" />
    <path
       d="m 106.3,29.89 h 2.1 c 2.8,0 5.2,2.01 5.2,5.42 0,3.35 -2.4,5.42 -5.2,5.42 -2.7,0 -4.1,-1.54 -5,-3.89 h -4.93 c 0.91,5.71 5.13,8.78 9.73,8.78 5.8,0 10.3,-4.13 10.3,-10.46 0,-2.78 -1.1,-5.66 -4,-7.48 2.8,-1.82 3.6,-4.46 3.6,-7.05 0,-4.99 -3.9,-9.73 -10,-9.73 -4.9,0 -9.05,4.17 -9.43,9.01 h 4.93 c 0.5,-2.78 2.6,-4.12 4.7,-4.12 2.7,0 4.9,2.16 4.9,4.94 0,2.78 -2,4.84 -5.2,4.84 h -1.7 z"
       id="path11927" />
    <path
       d="m 140.9,27.01 c 0.9,-1.73 1.3,-3.69 1.3,-5.71 0,-6.42 -4.8,-10.4 -9.5,-10.4 -5.1,0 -10.1,3.11 -10.1,10.93 0,6.62 3.9,9.5 8.2,9.5 0.8,0 1.8,-0.15 2.6,-0.43 h 0.1 l -7.2,14.43 h 5.4 z m -8.5,0 c -2.7,0 -4.9,-1.77 -4.9,-5.61 0,-4.08 2.6,-5.61 4.9,-5.61 3,0 4.9,1.77 4.9,5.61 0,3.84 -2.2,5.61 -4.9,5.61 z"
       id="path11929" />
  </g>
  <defs
     id="defs865" />
  <sodipodi:namedview
     id="namedview863"
     pagecolor="#ffffff"
     bordercolor="#666666"
     borderopacity="1.0"
     inkscape:pageshadow="2"
     inkscape:pageopacity="0.0"
     inkscape:pagecheckerboard="0"
     showgrid="false"
     inkscape:zoom="3.324"
     inkscape:cx="150.6"
     inkscape:cy="24.82"
     inkscape:window-width="1920"
     inkscape:window-height="965"
     inkscape:window-x="0"
     inkscape:window-y="23"
     inkscape:window-maximized="1"
     inkscape:current-layer="Layer_1" />
  <text
     xml:space="preserve"
     style="font-size:16px;line-height:1.45;font-family:SnvDExtCon;-inkscape-font-specification:SnvDExtCon;letter-spacing:0px;word-spacing:0px"
     x="30.09"
     y="-7.686"
     id="text3127"><tspan
       sodipodi:role="line"
       id="tspan3125"
       x="30.09"
       y="-7.686" /></text>
</svg>
