<?xml version="1.0" encoding="utf-8"?>
<!-- Generator: Adobe Illustrator 18.1.1, SVG Export Plug-In . SVG Version: 6.00 Build 0)  -->
<svg version="1.1" id="Layer_1" xmlns="http://www.w3.org/2000/svg" xmlns:xlink="http://www.w3.org/1999/xlink" x="0px" y="0px"
	 viewBox="0 0 122 57" enable-background="new 0 0 122 57" xml:space="preserve">
<path fill="#FFFFFF" stroke="#000000" stroke-width="2" stroke-miterlimit="10" d="M119,56H3c-1.1,0-2-0.9-2-2V3c0-1.1,0.9-2,2-2
	h116c1.1,0,2,0.9,2,2v51C121,55.1,120.1,56,119,56z"/>
<g>
	<path d="M24.9,46.8c0,0-0.1,0.1-0.2,0.1s-0.1,0-0.2-0.1l-3.3-3.2c-0.8,0.8-1.8,1.5-2.9,2s-2.3,0.8-3.6,0.8c-2.2,0-4.1-0.6-5.6-1.9
		c-1.5-1.3-2.5-2.7-3.2-4.2h0c-0.2-0.5-0.4-1.1-0.6-1.6S5.1,37.5,5,36.9c-0.2-1.2-0.3-3.9-0.3-7.9c0-2,0-3.7,0.1-5
		c0-1.3,0.1-2.2,0.2-2.8c0.1-0.6,0.2-1.2,0.4-1.7s0.4-1.1,0.6-1.6h0c0.3-0.8,0.8-1.5,1.3-2.2c0.5-0.7,1.2-1.4,1.9-2
		c1.5-1.3,3.4-2,5.6-2c2.2,0,4.1,0.7,5.6,2c1.5,1.3,2.6,2.7,3.3,4.2c0.2,0.5,0.4,1.1,0.6,1.6s0.3,1.1,0.4,1.7s0.2,1.5,0.2,2.8
		s0.1,3,0.1,5c0,3.7-0.1,6.1-0.2,7.4c-0.1,0.6-0.2,1.1-0.3,1.7s-0.3,1-0.5,1.4c0.6,0.5,1.2,1.1,1.7,1.7c0.6,0.6,1.2,1.2,1.7,1.7
		c0.1,0,0.1,0.1,0.1,0.2c0,0.1,0,0.1-0.1,0.2L24.9,46.8z M14.3,36.7c-0.1,0-0.1-0.1-0.1-0.2c0-0.1,0-0.1,0-0.2l2.5-3.5
		c0.1-0.1,0.2-0.1,0.3,0l2.9,2.8c0.1-0.6,0.2-1.4,0.2-2.5s0.1-2.4,0.1-4c0-1.7,0-3.1-0.1-4.2c-0.1-1.1-0.1-1.9-0.2-2.4
		c-0.1-0.5-0.2-1-0.4-1.5c-0.2-0.5-0.4-0.9-0.6-1.3c-0.2-0.3-0.4-0.6-0.7-0.9c-0.3-0.3-0.6-0.5-0.9-0.7c-0.3-0.2-0.7-0.4-1.1-0.5
		c-0.4-0.1-0.9-0.2-1.3-0.2c-0.9,0-1.8,0.2-2.4,0.7s-1.2,1-1.6,1.6c-0.3,0.4-0.5,0.8-0.6,1.3c-0.2,0.5-0.3,1-0.4,1.5
		c-0.2,1.1-0.3,3.3-0.3,6.6c0,3.4,0.1,5.6,0.3,6.7c0.1,0.5,0.2,1,0.4,1.4c0.2,0.5,0.4,0.9,0.6,1.3c0.4,0.7,0.9,1.2,1.6,1.7
		s1.5,0.7,2.4,0.7c1,0,1.9-0.3,2.7-0.9L14.3,36.7z"/>
	<path d="M30.6,46.1c-0.2,0-0.2-0.1-0.2-0.3V12.2c0-0.2,0.1-0.3,0.2-0.3h4.2c0.2,0,0.2,0.1,0.2,0.3v28.5h13.2c0.2,0,0.2,0.1,0.2,0.3
		v4.8c0,0.2-0.1,0.3-0.2,0.3H30.6z"/>
	<path d="M52.2,46.1c-0.2,0-0.2-0.1-0.2-0.3v-4.8c0-0.2,0.1-0.3,0.2-0.3h3.9c0.1,0,0.2,0.1,0.2,0.3v4.8c0,0.2-0.1,0.3-0.2,0.3H52.2z
		"/>
	<path d="M65.7,31c-0.2,0-0.2-0.1-0.2-0.3v-4.2c0-0.2,0.1-0.3,0.2-0.3h1.3c1.2,0,2.2-0.4,2.9-1.3c0.7-0.8,1.1-1.9,1.1-3.2
		c0-1.3-0.4-2.3-1.1-3.2s-1.6-1.3-2.7-1.3c-0.8,0-1.5,0.3-2.2,1c-0.7,0.6-1.2,1.6-1.3,2.8c0,0.1,0,0.1-0.1,0.2s-0.1,0.1-0.1,0.1
		h-3.9c-0.1,0-0.1,0-0.2-0.1c0-0.1-0.1-0.1,0-0.2c0.1-2.4,1-4.5,2.5-6.4c1.5-1.8,3.3-2.7,5.3-2.7c1.2,0,2.4,0.3,3.4,0.8
		s1.9,1.3,2.7,2.3c0.7,1,1.3,2.1,1.7,3.2s0.6,2.3,0.6,3.6c0,1.3-0.2,2.6-0.6,3.9c-0.2,0.6-0.5,1.1-0.8,1.6c-0.4,0.5-0.8,1-1.3,1.4
		c1,0.9,1.8,2,2.3,3.2c0.5,1.3,0.8,2.7,0.8,4.1c0,3.2-0.8,5.7-2.5,7.7c-1.6,1.9-3.6,2.8-6,2.8c-1,0-1.9-0.2-2.7-0.6
		c-0.9-0.4-1.7-0.9-2.4-1.7c-0.8-0.8-1.4-1.7-1.8-2.8c-0.5-1.1-0.8-2.3-1-3.8c0-0.2,0.1-0.3,0.2-0.3h3.9c0.1,0,0.2,0.1,0.2,0.2
		c0.2,0.5,0.4,1,0.6,1.5c0.2,0.4,0.5,0.8,0.8,1.1s0.7,0.6,1.1,0.7s0.9,0.3,1.4,0.3c1,0,1.9-0.4,2.7-1.3c0.8-0.9,1.2-2.1,1.2-3.7
		s-0.4-2.8-1.2-3.7c-0.8-0.9-1.7-1.4-2.8-1.4H65.7z"/>
	<path d="M79,46.1c-0.2,0-0.2-0.1-0.2-0.3v-4.6l10.7-16.4v0c0.4-0.6,0.7-1.2,0.8-1.7c0.1-0.5,0.2-1,0.2-1.5c0-1.1-0.3-2.1-1-3
		c-0.6-0.9-1.5-1.4-2.6-1.4c-1,0-1.9,0.4-2.6,1.2c-0.4,0.4-0.6,0.9-0.8,1.4s-0.3,1.2-0.4,1.9c0,0.1,0,0.1-0.1,0.2S83,22.1,83,22.1
		H79c-0.2,0-0.2-0.1-0.2-0.3c0-2.8,0.8-5.1,2.3-7c1.5-1.9,3.4-2.9,5.5-2.9c2.3,0,4.3,1,5.8,2.9h0c1.6,1.9,2.4,4.2,2.4,6.9
		c0,1.2-0.1,2.3-0.4,3.3c-0.3,1-0.7,1.9-1.3,2.8v0c-0.7,1.1-1.4,2.2-2.1,3.3s-1.4,2.2-2.1,3.2s-1.4,2.1-2.1,3.2
		c-0.7,1.1-1.4,2.2-2.1,3.3h10c0.2,0,0.2,0.1,0.2,0.3v4.8c0,0.2-0.1,0.3-0.2,0.3H79z"/>
	<path d="M118.1,36.2c0.1,0,0.1,0,0.2,0.1s0.1,0.2,0,0.2c-0.5,3.2-1.7,5.6-3.6,7.4c-0.9,0.8-1.9,1.5-2.9,1.9s-2.2,0.6-3.4,0.6
		c-2.2,0-4.1-0.6-5.6-1.9c-1.5-1.3-2.6-2.7-3.2-4.2c-0.2-0.5-0.4-1.1-0.6-1.6c-0.2-0.5-0.3-1.1-0.4-1.7c-0.2-1.2-0.2-3.8-0.2-7.9
		c0-2,0-3.7,0.1-5c0-1.3,0.1-2.2,0.2-2.8c0.1-0.6,0.2-1.2,0.4-1.7c0.2-0.5,0.4-1.1,0.6-1.6c0.7-1.5,1.7-2.9,3.2-4.2
		c1.5-1.3,3.4-2,5.6-2c2.7,0,4.9,1,6.6,3c1.8,2,2.9,4.4,3.3,7.2c0,0.1,0,0.2,0,0.2s-0.1,0.1-0.2,0.1h-4.4c-0.1,0-0.2-0.1-0.2-0.2
		c-0.2-0.6-0.4-1.2-0.7-1.7s-0.7-1-1.1-1.5c-0.8-0.9-1.9-1.4-3.2-1.4c-1,0-1.8,0.2-2.5,0.7c-0.7,0.5-1.2,1-1.6,1.6
		c-0.2,0.4-0.5,0.8-0.6,1.3c-0.2,0.5-0.3,1-0.4,1.5c-0.1,0.5-0.2,1.4-0.2,2.5c0,1.1-0.1,2.5-0.1,4.2c0,1.7,0,3.1,0.1,4.2
		c0,1.1,0.1,1.9,0.2,2.4c0.1,0.5,0.2,1,0.4,1.4s0.4,0.9,0.6,1.3c0.4,0.7,1,1.2,1.6,1.7c0.7,0.5,1.5,0.7,2.5,0.7c2.2,0,3.9-1.5,5-4.4
		c0,0,0.1-0.1,0.1-0.1c0,0,0.1-0.1,0.1-0.1H118.1z"/>
</g>
</svg>
