<?xml version="1.0" encoding="UTF-8"?>
<!DOCTYPE svg PUBLIC "-//W3C//DTD SVG 1.1//EN" "http://www.w3.org/Graphics/SVG/1.1/DTD/svg11.dtd">
<!-- Creator: CorelDRAW -->
<svg xmlns="http://www.w3.org/2000/svg" xml:space="preserve" width="85.4998mm" height="52.9166mm" version="1.1" style="shape-rendering:geometricPrecision; text-rendering:geometricPrecision; image-rendering:optimizeQuality; fill-rule:evenodd; clip-rule:evenodd"
viewBox="0 0 1888.46 1168.79"
 xmlns:xlink="http://www.w3.org/1999/xlink"
 xmlns:xodm="http://www.corel.com/coreldraw/odm/2003">
 <defs>
  <style type="text/css">
   <![CDATA[
    .fil3 {fill:black}
    .fil0 {fill:#0A9646}
    .fil2 {fill:#FFD70F}
    .fil1 {fill:white}
    .fil7 {fill:black;fill-rule:nonzero}
    .fil6 {fill:#0046AA;fill-rule:nonzero}
    .fil5 {fill:#F00A0A;fill-rule:nonzero}
    .fil4 {fill:white;fill-rule:nonzero}
   ]]>
  </style>
 </defs>
 <g id="Layer_x0020_1">
  <metadata id="CorelCorpID_0Corel-Layer"/>
  <g id="_2297179936160">
   <polygon id="rect15575" class="fil0" points="-0,0 1888.46,0 1888.46,1168.79 -0,1168.79 "/>
   <path id="path15582" class="fil1" d="M46.93 7.75c-21.35,0 -38.78,17.42 -38.78,38.77l0 514.82 0 72.86 0 75.83 0 21.47 0 390.35c0,21.35 17.42,38.76 38.78,38.76l1794.57 0c21.35,0 38.78,-17.41 38.78,-38.76l-0 -390.35 0 -20.91 0 -89.1 0 -60.15 0 -514.82c0,-21.35 -17.42,-38.77 -38.78,-38.77l-1794.57 0zm0 14.61l1794.57 0c13.51,0 24.19,10.65 24.19,24.16l0 514.82 0 60.15c0,0.46 -0.02,0.95 -0.06,1.45l0 11.14c0,13.43 -10.81,24.25 -24.25,24.25l-12.49 0c-0.29,0.01 -0.58,0.03 -0.86,0.03l-1769.24 0c-0.28,0 -0.57,-0.02 -0.87,-0.03l-10.98 0c-13.43,0 -24.25,-10.81 -24.25,-24.25l0 -587.47c0,-2.56 0.4,-5.03 1.13,-7.35 0.02,-0.07 0.05,-0.13 0.07,-0.2 3.09,-9.78 12.12,-16.71 23.03,-16.71zm-0.11 650.71l10.76 0 1771.38 0 12.55 0c13.36,0 24.12,10.76 24.12,24.12l0 11.74c0.04,0.58 0.06,1.14 0.06,1.66l0 20.91 0 390.35c0,8.47 -4.19,15.81 -10.65,20.11 -3.85,2.61 -8.51,4.13 -13.53,4.13l-1794.69 0c-13.36,0 -24.12,-10.76 -24.12,-24.12l0 -424.78c0,-13.36 10.76,-24.12 24.12,-24.12z"/>
   <polygon id="rect15605" class="fil2" points="120.74,258.49 476.6,258.49 476.6,421.08 120.74,421.08 "/>
   <path id="path15631" class="fil3" d="M132.79 261.8c-4.74,0 -8.62,3.86 -8.62,8.6l0 138.77c0,4.74 3.88,8.6 8.62,8.6l331.88 0c4.74,0 8.62,-3.86 8.62,-8.6l0 -138.77c0,-4.74 -3.88,-8.6 -8.62,-8.6l-331.88 0zm0 3.13l331.88 0c3.05,0 5.47,2.42 5.47,5.47l0 138.77c0,3.05 -2.42,5.45 -5.47,5.45l-331.88 0c-3.05,0 -5.47,-2.4 -5.47,-5.45l0 -138.77c0,-3.05 2.42,-5.47 5.47,-5.47z"/>
   <path id="path17496" class="fil4" d="M1560.42 211.31l0 295.79 207.08 0 0 -295.79 -207.08 0zm8.08 9.7l190.82 0 0 277.97 -190.82 0 0 -277.97zm79.88 21.31l-13.06 51.83 22.92 -0 1.65 -51.83 -11.51 0zm19.6 0l1.65 51.83 22.93 -0 -13.07 -51.83 -11.51 0zm-92.97 58.39l0 11.35 17.92 6.48 0 3.42 8.25 -0 0 -3.42c0,0 12.19,-1.83 26.45,-3.13 11.41,-1.04 24.15,-1.59 32.98,-1.63 10.51,-0.04 26.05,0.55 39.39,1.69 14.69,1.25 26.71,3.07 26.71,3.07l0 3.42 8.08 0 0 -3.42 17.92 -6.48 0 -11.35 -177.7 0zm53.83 21.16l-39.18 155.92 58.73 0 8.15 -155.92 -27.7 0zm42.41 0l8.15 155.92 58.73 0 -39.18 -155.92 -27.7 0z"/>
   <circle id="path815" class="fil5" cx="628.9" cy="909.77" r="178.32"/>
   <circle id="circle817" class="fil4" cx="628.9" cy="909.77" r="134.41"/>
   <circle id="circle817-6" class="fil6" cx="1261.82" cy="909.77" r="178.32"/>
   <path class="fil4" d="M717.01 561.94c-0.42,0 -0.63,-0.21 -0.63,-0.63l0 -74.42c0,-0.42 0.21,-0.63 0.63,-0.63l47.57 0c0.42,0 0.63,0.21 0.63,0.63l0 10.69c0,0.42 -0.21,0.63 -0.63,0.63l-35.68 0 0 19.94 30.33 0c0.42,0 0.63,0.21 0.63,0.63l0 10.08c0,0.38 -0.21,0.57 -0.63,0.57l-30.33 0 0 20.67 35.68 0c0.42,0 0.63,0.21 0.63,0.62l0 10.6c0,0.42 -0.21,0.63 -0.63,0.63l-47.57 0zm95.95 0c-0.21,0 -0.38,-0.1 -0.52,-0.31l-15.79 -26.8c-2.63,4.5 -5.26,8.97 -7.89,13.4 -2.63,4.43 -5.26,8.9 -7.89,13.4 -0.14,0.21 -0.31,0.31 -0.52,0.31l-12.72 0c-0.28,0 -0.47,-0.09 -0.57,-0.29 -0.1,-0.19 -0.09,-0.41 0.05,-0.65l22.59 -37.86c-3.56,-6.03 -7.1,-12.02 -10.6,-17.97 -3.49,-5.96 -7.01,-11.95 -10.54,-17.97 -0.14,-0.24 -0.15,-0.46 -0.05,-0.65 0.1,-0.19 0.27,-0.28 0.51,-0.28l12.78 0c0.21,0 0.38,0.1 0.51,0.31l14.33 24.93c2.39,-4.16 4.78,-8.3 7.17,-12.44 2.39,-4.14 4.78,-8.3 7.17,-12.49 0.14,-0.21 0.31,-0.31 0.52,-0.31l12.78 0c0.24,0 0.42,0.09 0.52,0.28 0.1,0.19 0.08,0.41 -0.05,0.65l-21.14 35.94c3.81,6.33 7.58,12.65 11.32,18.93 3.74,6.28 7.51,12.59 11.32,18.93 0.14,0.24 0.15,0.46 0.05,0.65 -0.11,0.19 -0.3,0.29 -0.57,0.29l-12.78 0zm32.6 -63.72l0 22.74 16.15 0c3.98,0 6.94,-1.19 8.88,-3.58 1.97,-2.32 2.96,-4.91 2.96,-7.79 0,-4.29 -1.52,-7.42 -4.57,-9.4 -1.98,-1.32 -4.54,-1.97 -7.69,-1.97l-15.74 0zm-11.89 63.72c-0.42,0 -0.63,-0.21 -0.63,-0.63l0 -74.42c0,-0.42 0.21,-0.63 0.63,-0.63l27 0c2.98,0 5.8,0.31 8.46,0.93 2.7,0.62 5.58,2.11 8.63,4.46 1.18,0.94 2.26,2.02 3.24,3.25 0.99,1.23 1.88,2.59 2.68,4.08 0.76,1.52 1.35,3.2 1.76,5.04 0.41,1.84 0.62,3.79 0.62,5.87 0,5.44 -2.04,10.63 -6.12,15.58 -4.09,4.92 -10.03,7.38 -17.81,7.38l-16.57 0 0 28.46c0,0.42 -0.21,0.63 -0.63,0.63l-11.27 0zm73.94 -64.4l0 21.35 16.46 0c4.02,0 7.03,-1.11 9.04,-3.32 2.01,-2.22 3.01,-4.85 3.01,-7.9 0,-1.73 -0.3,-3.27 -0.91,-4.62 -0.6,-1.35 -1.48,-2.45 -2.62,-3.32 -1,-0.69 -2.17,-1.23 -3.51,-1.61 -1.33,-0.38 -2.78,-0.57 -4.34,-0.57l-17.13 0zm-11.89 64.4c-0.42,0 -0.63,-0.21 -0.63,-0.63l0 -74.42c0,-0.42 0.21,-0.63 0.63,-0.63l29.13 0c3.22,0 6.13,0.44 8.72,1.33 2.6,0.88 4.87,2.14 6.8,3.76 1,0.93 1.97,2 2.89,3.19 0.92,1.19 1.73,2.48 2.44,3.87 0.71,1.39 1.27,2.86 1.69,4.42 0.42,1.56 0.63,3.17 0.63,4.83 0,2.46 -0.35,4.79 -1.04,6.99 -0.69,2.2 -1.66,4.25 -2.91,6.15 -1.28,1.76 -2.77,3.32 -4.47,4.65 -1.69,1.33 -3.62,2.4 -5.76,3.2 2.8,5.37 5.62,10.76 8.46,16.18 2.84,5.42 5.66,10.81 8.47,16.18 0.1,0.24 0.1,0.46 0,0.65 -0.1,0.19 -0.28,0.29 -0.52,0.29l-13.4 0c-0.11,0 -0.21,-0.04 -0.31,-0.13 -0.11,-0.09 -0.19,-0.17 -0.26,-0.23l-15.22 -31.42 -13.45 0 0 31.16c0,0.42 -0.21,0.63 -0.63,0.63l-11.27 0zm63.87 0c-0.42,0 -0.63,-0.21 -0.63,-0.63l0 -74.42c0,-0.42 0.21,-0.63 0.63,-0.63l47.57 0c0.42,0 0.63,0.21 0.63,0.63l0 10.69c0,0.42 -0.21,0.63 -0.63,0.63l-35.68 0 0 19.94 30.33 0c0.42,0 0.63,0.21 0.63,0.63l0 10.08c0,0.38 -0.21,0.57 -0.63,0.57l-30.33 0 0 20.67 35.68 0c0.42,0 0.63,0.21 0.63,0.62l0 10.6c0,0.42 -0.21,0.63 -0.63,0.63l-47.57 0zm58.58 -19.11c0.1,-0.14 0.24,-0.21 0.42,-0.21 0.17,0 0.33,0.05 0.47,0.16 2.73,2.21 5.88,3.99 9.43,5.33 3.55,1.33 7.29,2 11.24,2 4.43,0 7.93,-0.92 10.49,-2.75 2.42,-1.77 3.63,-4.11 3.63,-7.01 0,-5.47 -3.06,-8.62 -9.19,-9.45l0.05 0c-0.86,-0.11 -1.69,-0.21 -2.46,-0.32 -0.78,-0.1 -1.56,-0.21 -2.34,-0.31 -0.78,-0.11 -1.57,-0.22 -2.39,-0.34 -0.82,-0.12 -1.71,-0.25 -2.68,-0.38 -3.25,-0.45 -6.15,-1.28 -8.7,-2.47 -2.55,-1.19 -4.69,-2.78 -6.42,-4.75 -1.73,-2.01 -3.03,-4.19 -3.89,-6.57 -0.87,-2.37 -1.3,-4.96 -1.3,-7.76 0,-6.58 2.18,-11.93 6.54,-16.05 4.4,-4.19 10.51,-6.29 18.33,-6.29 2.32,0 4.58,0.2 6.78,0.6 2.2,0.4 4.32,0.95 6.39,1.64 2.06,0.69 4.04,1.52 5.92,2.47 1.88,0.95 3.7,2 5.43,3.14 0.35,0.24 0.4,0.54 0.15,0.88l-6.28 9.3c-0.24,0.31 -0.52,0.36 -0.83,0.16 -2.7,-1.7 -5.57,-3.06 -8.62,-4.08 -3.05,-1.02 -6.2,-1.53 -9.46,-1.53 -1.66,0 -3.2,0.2 -4.62,0.6 -1.42,0.4 -2.7,1.04 -3.84,1.95 -2.25,1.63 -3.38,4.1 -3.38,7.43 0,1.91 0.76,3.76 2.29,5.56 0.76,0.83 1.79,1.53 3.07,2.1 1.28,0.57 2.85,1 4.72,1.27 1,0.17 2.18,0.35 3.54,0.54 1.35,0.19 2.94,0.39 4.77,0.6 7.1,0.87 12.36,3.48 15.79,7.84 3.43,4.26 5.14,9 5.14,14.23 0,6.99 -2.44,12.46 -7.32,16.41 -4.92,3.88 -11.39,5.82 -19.42,5.82 -11.32,0 -20.95,-3.46 -28.87,-10.39 -0.14,-0.1 -0.21,-0.24 -0.21,-0.42 0,-0.17 0.05,-0.33 0.16,-0.47l7.48 -8.46zm60.01 0c0.11,-0.14 0.25,-0.21 0.42,-0.21 0.17,0 0.33,0.05 0.47,0.16 2.73,2.21 5.88,3.99 9.42,5.33 3.55,1.33 7.3,2 11.24,2 4.44,0 7.93,-0.92 10.5,-2.75 2.42,-1.77 3.64,-4.11 3.64,-7.01 0,-5.47 -3.06,-8.62 -9.19,-9.45l0.05 0c-0.87,-0.11 -1.69,-0.21 -2.47,-0.32 -0.78,-0.1 -1.56,-0.21 -2.33,-0.31 -0.78,-0.11 -1.58,-0.22 -2.39,-0.34 -0.82,-0.12 -1.71,-0.25 -2.68,-0.38 -3.25,-0.45 -6.15,-1.28 -8.7,-2.47 -2.55,-1.19 -4.69,-2.78 -6.42,-4.75 -1.73,-2.01 -3.03,-4.19 -3.89,-6.57 -0.87,-2.37 -1.3,-4.96 -1.3,-7.76 0,-6.58 2.18,-11.93 6.54,-16.05 4.4,-4.19 10.51,-6.29 18.33,-6.29 2.32,0 4.58,0.2 6.78,0.6 2.2,0.4 4.33,0.95 6.39,1.64 2.06,0.69 4.04,1.52 5.92,2.47 1.89,0.95 3.7,2 5.43,3.14 0.34,0.24 0.39,0.54 0.15,0.88l-6.28 9.3c-0.24,0.31 -0.52,0.36 -0.83,0.16 -2.7,-1.7 -5.57,-3.06 -8.62,-4.08 -3.05,-1.02 -6.2,-1.53 -9.46,-1.53 -1.66,0 -3.2,0.2 -4.62,0.6 -1.42,0.4 -2.7,1.04 -3.84,1.95 -2.25,1.63 -3.38,4.1 -3.38,7.43 0,1.91 0.76,3.76 2.29,5.56 0.76,0.83 1.78,1.53 3.06,2.1 1.28,0.57 2.86,1 4.73,1.27 1,0.17 2.18,0.35 3.53,0.54 1.35,0.19 2.94,0.39 4.78,0.6 7.1,0.87 12.36,3.48 15.79,7.84 3.42,4.26 5.14,9 5.14,14.23 0,6.99 -2.44,12.46 -7.32,16.41 -4.92,3.88 -11.39,5.82 -19.42,5.82 -11.32,0 -20.95,-3.46 -28.87,-10.39 -0.14,-0.1 -0.21,-0.24 -0.21,-0.42 0,-0.17 0.05,-0.33 0.16,-0.47l7.47 -8.46zm71.62 19.11c-0.34,0 -0.55,-0.16 -0.62,-0.47l-18.65 -74.42c-0.07,-0.21 -0.03,-0.39 0.11,-0.54 0.14,-0.15 0.31,-0.23 0.52,-0.23l11.94 0c0.35,0 0.55,0.15 0.63,0.47l11.21 50.84c2.29,-8.52 4.59,-16.98 6.91,-25.4 2.32,-8.41 4.64,-16.89 6.96,-25.44 0.07,-0.31 0.28,-0.47 0.63,-0.47l8.15 0c0.31,0 0.5,0.15 0.57,0.47l13.92 50.84c1.87,-8.52 3.74,-16.98 5.61,-25.4 1.87,-8.41 3.74,-16.89 5.61,-25.44 0.07,-0.31 0.27,-0.47 0.62,-0.47l11.94 0c0.21,0 0.38,0.08 0.52,0.23 0.14,0.16 0.17,0.34 0.1,0.54l-18.64 74.42c-0.07,0.31 -0.28,0.47 -0.63,0.47l-9.4 0c-0.31,0 -0.5,-0.16 -0.57,-0.47l-13.76 -51.67c-2.29,8.69 -4.57,17.31 -6.85,25.86 -2.29,8.55 -4.57,17.16 -6.86,25.81 -0.07,0.31 -0.26,0.47 -0.57,0.47l-9.4 0zm66.18 -0.05c-0.25,0 -0.42,-0.09 -0.52,-0.26 -0.1,-0.18 -0.12,-0.37 -0.05,-0.57l27.21 -74.47c0.07,-0.28 0.24,-0.42 0.51,-0.42l9.3 0c0.1,0 0.22,0.04 0.34,0.13 0.12,0.09 0.2,0.19 0.23,0.29l27.16 74.47c0.07,0.21 0.05,0.4 -0.05,0.57 -0.11,0.17 -0.26,0.26 -0.47,0.26l-11.89 0c-0.28,0 -0.45,-0.14 -0.52,-0.42l-5.61 -16.41 -27.42 0c-0.97,2.81 -1.93,5.55 -2.88,8.23 -0.95,2.68 -1.92,5.41 -2.89,8.18 -0.03,0.11 -0.11,0.2 -0.23,0.29 -0.12,0.09 -0.23,0.13 -0.33,0.13l-11.89 0zm41.91 -27.99c-0.07,-0.24 -0.17,-0.5 -0.29,-0.78 -0.12,-0.28 -0.21,-0.52 -0.28,-0.73 -0.59,-1.69 -1.12,-3.26 -1.61,-4.7 -0.48,-1.44 -0.91,-2.69 -1.3,-3.76 -0.24,-0.69 -0.47,-1.37 -0.7,-2.03 -0.23,-0.66 -0.44,-1.28 -0.65,-1.87 -0.18,-0.55 -0.35,-1.08 -0.52,-1.58 -0.17,-0.5 -0.35,-1 -0.52,-1.48 -0.31,-1 -0.63,-2.01 -0.96,-3.01 -0.33,-1 -0.67,-2.05 -1.02,-3.12 -0.17,-0.48 -0.35,-1.02 -0.54,-1.61 -0.19,-0.59 -0.39,-1.21 -0.6,-1.87 -0.1,-0.35 -0.18,-0.62 -0.23,-0.81 -0.05,-0.19 -0.11,-0.38 -0.18,-0.57 -0.07,-0.19 -0.15,-0.4 -0.23,-0.65 -0.09,-0.24 -0.2,-0.59 -0.34,-1.04 -0.38,1.14 -0.74,2.2 -1.06,3.17 -0.33,0.97 -0.64,1.87 -0.91,2.7 -0.07,0.21 -0.12,0.4 -0.15,0.57 -0.04,0.17 -0.09,0.34 -0.16,0.51 -0.17,0.59 -0.35,1.15 -0.54,1.67 -0.19,0.52 -0.38,1.04 -0.55,1.55 -0.17,0.56 -0.34,1.09 -0.52,1.61 -0.17,0.52 -0.34,1.02 -0.51,1.51 -0.35,1.04 -0.7,2.12 -1.07,3.27 -0.36,1.14 -0.77,2.34 -1.22,3.59 -0.45,1.25 -0.92,2.59 -1.4,4.02 -0.49,1.44 -1.11,3.25 -1.87,5.43l19.94 0zm39.7 28.05c-0.38,0 -0.57,-0.21 -0.57,-0.63l0 -30.43c-3.74,-7.3 -7.46,-14.6 -11.16,-21.87 -3.7,-7.27 -7.41,-14.56 -11.11,-21.86 -0.11,-0.24 -0.11,-0.45 0,-0.63 0.11,-0.17 0.3,-0.26 0.57,-0.26l11.84 0c0.11,0 0.21,0.04 0.31,0.13 0.11,0.09 0.19,0.16 0.26,0.23l15.26 31.89c2.56,-5.37 5.1,-10.69 7.61,-15.95 2.51,-5.26 5.05,-10.57 7.61,-15.94 0.07,-0.07 0.16,-0.15 0.26,-0.23 0.1,-0.09 0.2,-0.13 0.31,-0.13l11.89 0c0.28,0 0.47,0.08 0.57,0.26 0.1,0.17 0.1,0.38 0,0.63l-22.34 43.73 0 30.43c0,0.42 -0.21,0.63 -0.62,0.63l-10.7 0z"/>
   <path class="fil7" d="M231.31 360.13c0.29,0 0.53,0.1 0.7,0.32 0.19,0.22 0.24,0.46 0.15,0.75 -1.99,9.68 -6.39,17.14 -13.25,22.37 -3.31,2.5 -6.93,4.4 -10.82,5.69 -3.89,1.29 -8.1,1.92 -12.62,1.92 -8.22,0 -15.12,-1.97 -20.72,-5.91 -5.52,-3.89 -9.51,-8.17 -11.96,-12.81 -0.88,-1.63 -1.61,-3.26 -2.21,-4.89 -0.63,-1.63 -1.09,-3.36 -1.44,-5.18 -0.61,-3.5 -0.92,-11.47 -0.92,-23.92 0,-6.22 0.07,-11.3 0.22,-15.24 0.15,-3.94 0.39,-6.81 0.7,-8.61 0.34,-1.82 0.8,-3.55 1.44,-5.2 0.61,-1.68 1.34,-3.31 2.21,-4.91 2.45,-4.62 6.44,-8.9 11.96,-12.84 5.54,-3.99 12.47,-5.98 20.72,-5.98 9.9,0 18.06,3.04 24.51,9.12 6.56,6.12 10.62,13.4 12.18,21.81 0.1,0.27 0.05,0.51 -0.15,0.7 -0.17,0.2 -0.41,0.29 -0.7,0.29l-16.31 0c-0.41,0 -0.68,-0.19 -0.78,-0.59 -0.63,-1.9 -1.51,-3.67 -2.65,-5.3 -1.12,-1.63 -2.53,-3.16 -4.18,-4.6 -3.14,-2.8 -7.1,-4.21 -11.91,-4.21 -3.55,0 -6.59,0.7 -9.12,2.14 -2.5,1.43 -4.52,3.06 -6.05,4.91 -0.9,1.14 -1.68,2.43 -2.33,3.89 -0.68,1.44 -1.19,2.92 -1.58,4.45 -0.36,1.6 -0.63,4.11 -0.78,7.49 -0.15,3.36 -0.22,7.58 -0.22,12.67 0,5.18 0.07,9.43 0.22,12.79 0.15,3.36 0.41,5.84 0.78,7.44 0.39,1.48 0.92,2.94 1.6,4.38 0.68,1.46 1.46,2.72 2.31,3.82 1.53,1.99 3.55,3.7 6.05,5.08 2.53,1.41 5.57,2.12 9.12,2.12 8.22,0 14.47,-4.5 18.74,-13.47 0.1,-0.1 0.22,-0.19 0.37,-0.32 0.12,-0.12 0.27,-0.17 0.41,-0.17l16.31 0z"/>
   <path id="_1" class="fil7" d="M261.16 390.33c-0.58,0 -0.87,-0.29 -0.87,-0.85l0 -87.48 -27.13 0c-0.56,0 -0.85,-0.29 -0.85,-0.85l0 -13.74c0,-0.58 0.29,-0.87 0.85,-0.87l71.38 0c0.56,0 0.85,0.29 0.85,0.87l0 13.74c0,0.56 -0.29,0.85 -0.85,0.85l-27.08 0 0 87.48c0,0.56 -0.27,0.85 -0.85,0.85l-15.44 0z"/>
   <path id="_2" class="fil7" d="M299.55 390.33c-0.56,0 -0.85,-0.29 -0.85,-0.85l0 -14.47c0,-0.56 0.29,-0.85 0.85,-0.85l14.54 0c0.51,0 0.78,0.29 0.78,0.85l0 14.47c0,0.56 -0.27,0.85 -0.78,0.85l-14.54 0z"/>
   <path id="_3" class="fil7" d="M372.47 317.24c0,-4.59 -1.22,-8.19 -3.65,-10.79 -2.46,-2.58 -5.71,-3.87 -9.8,-3.87 -4.09,0 -7.34,1.29 -9.77,3.87 -2.41,2.6 -3.62,6.2 -3.62,10.79l0 43.11c0,4.64 1.21,8.24 3.62,10.82 2.43,2.55 5.69,3.84 9.77,3.84 4.08,0 7.34,-1.29 9.8,-3.84 2.43,-2.58 3.65,-6.18 3.65,-10.82l0 -43.11zm-43.08 -0.85c0,-9.6 3.01,-16.97 9.04,-22.15 5.98,-5.27 12.84,-7.9 20.59,-7.9 3.84,0 7.49,0.66 10.92,2.02 3.45,1.36 6.66,3.31 9.65,5.88 3.01,2.65 5.28,5.84 6.81,9.51 1.56,3.67 2.31,7.9 2.31,12.64l0 44.81c0,9.53 -3.04,16.92 -9.12,22.15 -5.98,5.23 -12.84,7.83 -20.57,7.83 -7.76,0 -14.61,-2.6 -20.59,-7.83 -6.03,-5.18 -9.04,-12.57 -9.04,-22.15l0 -44.81z"/>
   <path id="_4" class="fil7" d="M418.56 390.55c-0.56,0 -0.85,-0.29 -0.85,-0.85l0 -84.63c-2.19,1.6 -4.38,3.23 -6.56,4.89 -2.16,1.63 -4.35,3.23 -6.54,4.82 -0.34,0.22 -0.66,0.27 -0.92,0.1 -0.29,-0.17 -0.44,-0.44 -0.44,-0.83l0 -15.46c0,-0.07 0.05,-0.19 0.12,-0.34 0.07,-0.15 0.15,-0.27 0.24,-0.37l14.66 -10.6 14.9 0c0.56,0 0.85,0.27 0.85,0.85l0 101.58c0,0.56 -0.29,0.85 -0.85,0.85l-14.61 0z"/>
   <path class="fil4" d="M700.29 217.26c-0.53,0 -0.8,-0.27 -0.8,-0.8l0 -96.3c0,-0.55 0.28,-0.83 0.8,-0.83l33.75 0c13.44,0 23.42,5.55 29.96,16.61 1.21,2.16 2.2,4.2 2.96,6.12 0.76,1.93 1.28,3.81 1.56,5.64 0.53,3.58 0.8,10.46 0.8,20.62 0,10.9 -0.39,18.19 -1.15,21.91 -0.37,1.88 -0.89,3.72 -1.61,5.48 -0.73,1.77 -1.67,3.53 -2.82,5.28l0 -0.07c-2.91,4.61 -6.95,8.49 -12.11,11.63 -5.23,3.14 -11.42,4.7 -18.53,4.7l-32.8 0zm15.39 -82.47l0 67.14 16.72 0c7.71,0 13.44,-2.68 17.2,-8.08 1.49,-2.36 2.43,-4.86 2.82,-7.45 0.23,-1.42 0.39,-3.6 0.5,-6.49 0.11,-2.89 0.18,-6.56 0.18,-11.03 0,-4.36 -0.07,-7.98 -0.21,-10.9 -0.14,-2.91 -0.32,-5.23 -0.55,-6.93 -0.44,-3.14 -1.58,-5.99 -3.42,-8.53 -3.81,-5.16 -9.31,-7.73 -16.54,-7.73l-16.72 0z"/>
   <path id="_1_0" class="fil4" d="M786.78 217.26c-0.53,0 -0.8,-0.27 -0.8,-0.8l0 -96.3c0,-0.55 0.27,-0.83 0.8,-0.83l14.59 0c0.53,0 0.8,0.28 0.8,0.83l0 96.3c0,0.53 -0.28,0.8 -0.8,0.8l-14.59 0z"/>
   <path id="_2_1" class="fil4" d="M822.47 217.26c-0.53,0 -0.8,-0.27 -0.8,-0.8l0 -96.3c0,-0.55 0.28,-0.83 0.8,-0.83l61.57 0c0.53,0 0.8,0.28 0.8,0.83l0 13.83c0,0.53 -0.28,0.8 -0.8,0.8l-46.18 0 0 25.81 39.25 0c0.53,0 0.8,0.28 0.8,0.8l0 13.05c0,0.48 -0.27,0.73 -0.8,0.73l-39.25 0 0 26.75 46.18 0c0.53,0 0.8,0.27 0.8,0.8l0 13.72c0,0.53 -0.28,0.8 -0.8,0.8l-61.57 0zm6.52 -106.6c-0.39,0 -0.64,-0.16 -0.73,-0.53 -0.09,-0.37 0,-0.64 0.27,-0.87l19.75 -15.67 9.06 0 20.03 15.67c0.32,0.23 0.44,0.51 0.32,0.87 -0.11,0.37 -0.37,0.53 -0.78,0.53l-11.28 0 -13.44 -7.25c-1.97,1.21 -3.97,2.41 -5.99,3.62 -2.02,1.21 -4.01,2.43 -5.99,3.62l-11.22 0zm5.25 -19.15c-0.55,0 -0.78,-0.25 -0.69,-0.8 0.32,-2.18 0.87,-4.17 1.65,-5.96 0.78,-1.81 1.79,-3.39 2.98,-4.77 1.21,-1.26 2.64,-2.25 4.24,-2.94 1.61,-0.69 3.33,-1.03 5.12,-1.03 0.8,0 1.58,0.05 2.34,0.14 0.76,0.09 1.54,0.25 2.29,0.53 0.8,0.28 1.58,0.53 2.32,0.8 0.73,0.28 1.35,0.5 1.86,0.66 1.56,0.83 2.96,1.42 4.22,1.84 0.85,0.39 1.86,0.6 3.03,0.6 1.03,0 2.04,-0.32 3.03,-0.94 0.85,-0.57 1.44,-1.86 1.81,-3.83 0.09,-0.37 0.32,-0.55 0.73,-0.55l7 0c0.57,0 0.83,0.27 0.73,0.82 -0.27,1.93 -0.73,3.72 -1.42,5.39 -0.66,1.7 -1.51,3.23 -2.54,4.61 -1.12,1.45 -2.48,2.57 -4.11,3.4 -1.61,0.82 -3.47,1.26 -5.57,1.31 -0.8,0 -1.61,-0.07 -2.39,-0.21 -0.78,-0.11 -1.54,-0.34 -2.25,-0.66l0.07 0c-0.48,-0.09 -1.15,-0.28 -1.95,-0.57 -0.8,-0.27 -1.74,-0.64 -2.82,-1.03 -1.4,-0.64 -2.71,-1.12 -3.97,-1.49 -1.26,-0.34 -2.48,-0.55 -3.69,-0.6 -0.66,0 -1.56,0.32 -2.68,0.94l0.07 -0.07c-1.12,0.71 -1.67,1.97 -1.67,3.76 0,0.46 -0.23,0.66 -0.69,0.66l-7.04 0z"/>
   <path id="_3_2" class="fil4" d="M898.94 217.26c-0.53,0 -0.8,-0.27 -0.8,-0.8l0 -96.3c0,-0.55 0.28,-0.83 0.8,-0.83l13.83 0c0.28,0 0.5,0.14 0.69,0.41l42.32 66.66 0 -66.25c0,-0.55 0.27,-0.83 0.83,-0.83l14.64 0c0.55,0 0.8,0.28 0.8,0.83l0 96.3c0,0.53 -0.25,0.8 -0.8,0.8l-13.76 0c-0.27,0 -0.5,-0.14 -0.69,-0.41l-42.46 -66.66 0 66.27c0,0.53 -0.25,0.8 -0.73,0.8l-14.66 0z"/>
   <path id="_4_3" class="fil4" d="M1090.94 188.77c0.28,0 0.51,0.09 0.67,0.3 0.18,0.21 0.23,0.44 0.14,0.71 -1.88,9.13 -6.03,16.17 -12.5,21.1 -3.12,2.36 -6.54,4.15 -10.21,5.37 -3.67,1.22 -7.64,1.81 -11.91,1.81 -7.75,0 -14.27,-1.86 -19.54,-5.57 -5.21,-3.67 -8.97,-7.71 -11.29,-12.09 -0.83,-1.54 -1.51,-3.07 -2.09,-4.61 -0.6,-1.54 -1.03,-3.17 -1.35,-4.89 -0.57,-3.3 -0.87,-10.83 -0.87,-22.57 0,-5.87 0.07,-10.67 0.21,-14.38 0.14,-3.72 0.37,-6.42 0.66,-8.12 0.32,-1.72 0.76,-3.35 1.35,-4.91 0.57,-1.58 1.26,-3.12 2.09,-4.63 2.32,-4.36 6.08,-8.4 11.29,-12.11 5.23,-3.76 11.77,-5.64 19.54,-5.64 9.34,0 17.04,2.87 23.12,8.6 6.19,5.78 10.02,12.64 11.49,20.57 0.09,0.25 0.05,0.48 -0.14,0.66 -0.16,0.19 -0.39,0.28 -0.67,0.28l-15.39 0c-0.39,0 -0.64,-0.18 -0.74,-0.55 -0.6,-1.79 -1.42,-3.46 -2.5,-5 -1.05,-1.54 -2.39,-2.98 -3.94,-4.34 -2.96,-2.64 -6.7,-3.97 -11.24,-3.97 -3.35,0 -6.22,0.66 -8.6,2.02 -2.36,1.35 -4.27,2.89 -5.71,4.63 -0.85,1.08 -1.58,2.29 -2.2,3.67 -0.64,1.35 -1.12,2.75 -1.49,4.2 -0.34,1.52 -0.6,3.88 -0.74,7.07 -0.14,3.17 -0.21,7.16 -0.21,11.95 0,4.89 0.07,8.9 0.21,12.07 0.14,3.17 0.39,5.5 0.74,7.02 0.37,1.4 0.87,2.77 1.51,4.13 0.64,1.38 1.38,2.57 2.18,3.6 1.44,1.88 3.35,3.49 5.71,4.79 2.39,1.33 5.25,2 8.6,2 7.75,0 13.65,-4.25 17.69,-12.71 0.09,-0.09 0.21,-0.18 0.34,-0.3 0.11,-0.11 0.25,-0.16 0.39,-0.16l15.39 0z"/>
   <path id="_5" class="fil4" d="M1155.33 217.26c-0.55,0 -0.83,-0.27 -0.83,-0.8l0 -41.27 -36.61 0 0 41.27c0,0.53 -0.27,0.8 -0.8,0.8l-14.59 0c-0.53,0 -0.8,-0.27 -0.8,-0.8l0 -96.3c0,-0.55 0.28,-0.83 0.8,-0.83l14.59 0c0.53,0 0.8,0.28 0.8,0.83l0 40.44 36.61 0 0 -40.44c0,-0.55 0.28,-0.83 0.83,-0.83l14.57 0c0.55,0 0.83,0.28 0.83,0.83l0 96.3c0,0.53 -0.28,0.8 -0.83,0.8l-14.57 0z"/>
   <path id="_6" class="fil4" d="M1182.21 217.19c-0.32,0 -0.55,-0.11 -0.66,-0.34 -0.14,-0.21 -0.16,-0.46 -0.07,-0.73l35.21 -96.37c0.09,-0.37 0.3,-0.55 0.66,-0.55l12.02 0c0.14,0 0.3,0.07 0.46,0.18 0.14,0.11 0.25,0.23 0.3,0.37l35.14 96.37c0.09,0.28 0.07,0.53 -0.07,0.73 -0.14,0.23 -0.34,0.34 -0.6,0.34l-15.39 0c-0.37,0 -0.6,-0.18 -0.69,-0.53l-7.25 -21.24 -35.49 0c-1.26,3.62 -2.5,7.18 -3.72,10.64 -1.24,3.46 -2.48,7 -3.74,10.6 -0.04,0.11 -0.14,0.25 -0.3,0.37 -0.16,0.11 -0.3,0.16 -0.44,0.16l-15.39 0zm54.23 -36.22c-0.09,-0.32 -0.21,-0.64 -0.37,-1.01 -0.16,-0.37 -0.27,-0.66 -0.37,-0.94 -0.76,-2.2 -1.47,-4.22 -2.09,-6.08 -0.62,-1.86 -1.19,-3.49 -1.67,-4.89 -0.32,-0.89 -0.62,-1.76 -0.92,-2.62 -0.28,-0.85 -0.57,-1.65 -0.83,-2.41 -0.23,-0.74 -0.46,-1.4 -0.69,-2.07 -0.21,-0.64 -0.44,-1.28 -0.66,-1.9 -0.41,-1.31 -0.83,-2.62 -1.24,-3.9 -0.44,-1.31 -0.87,-2.64 -1.31,-4.04 -0.23,-0.62 -0.46,-1.31 -0.71,-2.09 -0.25,-0.76 -0.5,-1.56 -0.78,-2.41 -0.14,-0.46 -0.23,-0.8 -0.3,-1.06 -0.07,-0.23 -0.14,-0.48 -0.23,-0.73 -0.09,-0.25 -0.21,-0.53 -0.3,-0.83 -0.11,-0.32 -0.27,-0.78 -0.44,-1.35 -0.51,1.47 -0.96,2.84 -1.38,4.11 -0.44,1.24 -0.83,2.41 -1.19,3.49 -0.09,0.28 -0.16,0.51 -0.21,0.73 -0.02,0.23 -0.09,0.46 -0.18,0.69 -0.23,0.76 -0.46,1.47 -0.71,2.13 -0.25,0.69 -0.48,1.35 -0.71,2.02 -0.23,0.71 -0.44,1.42 -0.66,2.09 -0.23,0.66 -0.46,1.33 -0.66,1.95 -0.46,1.35 -0.92,2.75 -1.4,4.24 -0.46,1.47 -0.99,3 -1.56,4.63 -0.6,1.61 -1.19,3.35 -1.81,5.21 -0.64,1.86 -1.45,4.2 -2.43,7.02l25.81 0zm-37.03 -70.31c-0.41,0 -0.66,-0.16 -0.73,-0.53 -0.09,-0.37 0,-0.64 0.25,-0.87l19.77 -15.67 9.06 0 20.02 15.67c0.32,0.23 0.41,0.51 0.3,0.87 -0.09,0.37 -0.37,0.53 -0.76,0.53l-11.29 0 -13.44 -7.25c-1.97,1.21 -3.97,2.41 -5.99,3.62 -2.02,1.21 -4.02,2.43 -5.99,3.62l-11.22 0z"/>
   <path id="_7" class="fil4" d="M1274.89 120.16c0,-0.55 0.25,-0.83 0.8,-0.83l14.64 0c0.51,0 0.76,0.28 0.76,0.83l0 62.1c0,6.45 1.79,11.33 5.37,14.64 3.62,3.37 8.14,5.05 13.51,5.05 5.28,0 9.75,-1.67 13.37,-5.05 3.62,-3.35 5.44,-8.24 5.44,-14.64l0 -62.1c0,-0.55 0.28,-0.83 0.8,-0.83l14.59 0c0.55,0 0.8,0.28 0.8,0.83l0 63.7c0,10.3 -3.42,18.58 -10.28,24.87 -6.77,6.22 -15,9.34 -24.73,9.34 -9.77,0 -18.05,-3.12 -24.87,-9.34 -6.81,-6.29 -10.21,-14.57 -10.21,-24.87l0 -63.7z"/>
   <path class="fil4" d="M799.54 412.92c-0.53,0 -0.8,-0.27 -0.8,-0.8l0 -96.3c0,-0.55 0.28,-0.83 0.8,-0.83l37.37 0c9.45,0 16.7,2.55 21.77,7.59 5.02,4.98 7.53,11.36 7.53,19.09 0,4.27 -0.99,8.21 -2.96,11.84 -1.79,3.39 -5.12,6.35 -10,8.88 4.52,1.42 8,4.17 10.48,8.26 1.29,2.25 2.29,4.54 2.98,6.88 0.69,2.36 1.06,4.8 1.06,7.3 0,8.56 -2.78,15.39 -8.28,20.51 -5.46,5.07 -11.88,7.59 -19.29,7.59l-40.65 0zm15.39 -42.73l0 27.41 21.7 0c5.07,0 8.83,-1.38 11.29,-4.11 2.43,-2.73 3.62,-5.94 3.62,-9.61 0,-3.58 -1.19,-6.77 -3.62,-9.54 -2.32,-2.78 -6.08,-4.15 -11.29,-4.15l-21.7 0zm0 -40.6l0 26.01 20.37 0c5.05,0 8.74,-1.26 11.08,-3.76 2.41,-2.48 3.62,-5.53 3.62,-9.22 0,-3.62 -1.22,-6.68 -3.62,-9.13 -2.43,-2.59 -6.12,-3.9 -11.08,-3.9l-20.37 0z"/>
   <path id="_1_4" class="fil4" d="M874 412.85c-0.32,0 -0.55,-0.11 -0.66,-0.34 -0.14,-0.21 -0.16,-0.46 -0.07,-0.73l35.21 -96.37c0.09,-0.37 0.3,-0.55 0.66,-0.55l12.02 0c0.14,0 0.3,0.07 0.46,0.18 0.14,0.11 0.25,0.23 0.3,0.37l35.14 96.37c0.09,0.28 0.07,0.53 -0.07,0.73 -0.14,0.23 -0.34,0.34 -0.6,0.34l-15.39 0c-0.37,0 -0.6,-0.18 -0.69,-0.53l-7.25 -21.24 -35.49 0c-1.26,3.62 -2.5,7.18 -3.72,10.64 -1.24,3.46 -2.48,7 -3.74,10.6 -0.04,0.11 -0.14,0.25 -0.3,0.37 -0.16,0.11 -0.3,0.16 -0.44,0.16l-15.39 0zm54.23 -36.22c-0.09,-0.32 -0.21,-0.64 -0.37,-1.01 -0.16,-0.37 -0.27,-0.66 -0.37,-0.94 -0.76,-2.2 -1.47,-4.22 -2.09,-6.08 -0.62,-1.86 -1.19,-3.49 -1.67,-4.89 -0.32,-0.89 -0.62,-1.76 -0.92,-2.62 -0.28,-0.85 -0.57,-1.65 -0.83,-2.41 -0.23,-0.74 -0.46,-1.4 -0.69,-2.07 -0.21,-0.64 -0.44,-1.28 -0.66,-1.9 -0.41,-1.31 -0.83,-2.62 -1.24,-3.9 -0.44,-1.31 -0.87,-2.64 -1.31,-4.04 -0.23,-0.62 -0.46,-1.31 -0.71,-2.09 -0.25,-0.76 -0.5,-1.56 -0.78,-2.41 -0.14,-0.46 -0.23,-0.8 -0.3,-1.06 -0.07,-0.23 -0.14,-0.48 -0.23,-0.73 -0.09,-0.25 -0.21,-0.53 -0.3,-0.83 -0.11,-0.32 -0.27,-0.78 -0.44,-1.35 -0.51,1.47 -0.96,2.84 -1.38,4.11 -0.44,1.24 -0.83,2.41 -1.19,3.49 -0.09,0.28 -0.16,0.51 -0.21,0.73 -0.02,0.23 -0.09,0.46 -0.18,0.69 -0.23,0.76 -0.46,1.47 -0.71,2.13 -0.25,0.69 -0.48,1.35 -0.71,2.02 -0.23,0.71 -0.44,1.42 -0.66,2.09 -0.23,0.66 -0.46,1.33 -0.66,1.95 -0.46,1.35 -0.92,2.75 -1.4,4.24 -0.46,1.47 -0.99,3 -1.56,4.63 -0.6,1.61 -1.19,3.35 -1.81,5.21 -0.64,1.86 -1.45,4.2 -2.43,7.02l25.81 0zm-34.07 -72.85c-0.55,0 -0.76,-0.28 -0.69,-0.8 0.32,-2.2 0.87,-4.2 1.65,-5.99 0.78,-1.79 1.79,-3.37 3.01,-4.77 1.19,-1.26 2.62,-2.23 4.22,-2.91 1.61,-0.71 3.33,-1.06 5.12,-1.06 0.8,0 1.58,0.05 2.34,0.14 0.78,0.09 1.54,0.28 2.29,0.55 0.8,0.25 1.58,0.53 2.32,0.8 0.73,0.25 1.35,0.48 1.86,0.66 1.56,0.8 2.96,1.42 4.22,1.81 0.85,0.41 1.86,0.62 3.03,0.62 1.03,0 2.04,-0.32 3.03,-0.94 0.85,-0.6 1.45,-1.86 1.81,-3.83 0.09,-0.37 0.34,-0.55 0.73,-0.55l7 0c0.57,0 0.83,0.27 0.73,0.8 -0.27,1.93 -0.73,3.74 -1.4,5.41 -0.69,1.67 -1.54,3.21 -2.57,4.61 -1.12,1.42 -2.48,2.57 -4.08,3.39 -1.63,0.83 -3.49,1.26 -5.6,1.31 -0.8,0 -1.58,-0.07 -2.39,-0.21 -0.78,-0.14 -1.54,-0.37 -2.25,-0.66l0.07 0c-0.48,-0.09 -1.15,-0.28 -1.95,-0.57 -0.8,-0.3 -1.74,-0.64 -2.82,-1.05 -1.38,-0.62 -2.71,-1.1 -3.97,-1.47 -1.24,-0.37 -2.48,-0.55 -3.69,-0.6 -0.66,0 -1.56,0.3 -2.68,0.94l0.07 -0.07c-1.12,0.71 -1.67,1.97 -1.67,3.76 0,0.44 -0.23,0.66 -0.69,0.66l-7.04 0z"/>
   <path id="_2_5" class="fil4" d="M969.01 412.92c-0.53,0 -0.8,-0.27 -0.8,-0.8l0 -96.3c0,-0.55 0.27,-0.83 0.8,-0.83l14.59 0c0.53,0 0.8,0.28 0.8,0.83l0 96.3c0,0.53 -0.28,0.8 -0.8,0.8l-14.59 0z"/>
   <path id="_3_6" class="fil4" d="M1059.74 412.92c-0.41,0 -0.64,-0.18 -0.73,-0.55l-31.79 -96.3c-0.09,-0.28 -0.07,-0.51 0.07,-0.74 0.14,-0.23 0.34,-0.34 0.67,-0.34l15.39 0c0.41,0 0.64,0.21 0.74,0.62l21.31 71.29c3.58,-11.91 7.16,-23.79 10.71,-35.65 3.56,-11.86 7.11,-23.74 10.67,-35.65 0.09,-0.41 0.32,-0.62 0.73,-0.62l15.39 0c0.3,0 0.53,0.11 0.66,0.34 0.14,0.23 0.16,0.46 0.07,0.74l-31.79 96.3c-0.09,0.37 -0.32,0.55 -0.73,0.55l-11.36 0z"/>
   <path id="_4_7" class="fil4" d="M1110.34 364c0,-5.87 0.09,-10.67 0.23,-14.38 0.16,-3.72 0.37,-6.42 0.64,-8.12 0.32,-1.72 0.76,-3.35 1.35,-4.91 0.57,-1.58 1.29,-3.12 2.16,-4.63l-0.07 0c2.32,-4.36 6.08,-8.4 11.29,-12.11 5.23,-3.76 11.77,-5.64 19.54,-5.64 7.71,0 14.2,1.88 19.43,5.64 5.3,3.81 9.11,7.85 11.42,12.11 1.65,3.03 2.77,6.22 3.37,9.54 0.3,1.7 0.53,4.4 0.69,8.12 0.16,3.72 0.25,8.51 0.25,14.38 0,11.51 -0.32,19.04 -0.94,22.57 -0.32,1.77 -0.76,3.42 -1.33,4.98 -0.55,1.58 -1.21,3.07 -1.97,4.52 -2.39,4.29 -6.19,8.33 -11.49,12.09 -5.28,3.72 -11.77,5.57 -19.43,5.57 -7.75,0 -14.27,-1.86 -19.54,-5.57 -5.21,-3.67 -8.97,-7.71 -11.29,-12.09l0.07 0c-0.87,-1.54 -1.58,-3.07 -2.16,-4.61 -0.6,-1.54 -1.03,-3.17 -1.35,-4.89 -0.27,-1.7 -0.48,-4.4 -0.64,-8.14 -0.14,-3.76 -0.23,-8.55 -0.23,-14.43zm16.19 0c0,4.89 0.07,8.9 0.21,12.07 0.14,3.17 0.39,5.5 0.74,7.02 0.37,1.4 0.87,2.77 1.51,4.13 0.64,1.38 1.38,2.57 2.18,3.6 1.44,1.88 3.35,3.49 5.71,4.79 2.39,1.33 5.25,2 8.6,2 3.33,0 6.17,-0.67 8.53,-2 2.39,-1.31 4.27,-2.91 5.67,-4.79 1.88,-2.29 3.1,-4.86 3.69,-7.73 0.71,-2.87 1.08,-9.22 1.08,-19.09 0,-4.89 -0.09,-8.9 -0.28,-12.07 -0.18,-3.14 -0.46,-5.48 -0.8,-6.95 -0.32,-1.44 -0.8,-2.84 -1.42,-4.2 -0.62,-1.38 -1.35,-2.59 -2.22,-3.67 -0.67,-0.85 -1.47,-1.67 -2.43,-2.48 -0.96,-0.8 -2.07,-1.51 -3.28,-2.11 -1.19,-0.62 -2.52,-1.1 -3.95,-1.49 -1.44,-0.39 -2.96,-0.57 -4.59,-0.57 -3.35,0 -6.22,0.66 -8.6,2.02 -2.36,1.35 -4.27,2.89 -5.71,4.63 -0.85,1.08 -1.58,2.29 -2.2,3.67 -0.64,1.35 -1.12,2.75 -1.49,4.2 -0.34,1.52 -0.6,3.88 -0.74,7.07 -0.14,3.17 -0.21,7.16 -0.21,11.95zm12.5 75.4c-0.48,0 -0.73,-0.25 -0.73,-0.73l0 -12.96c0,-0.51 0.25,-0.76 0.73,-0.76l13.03 0c0.46,0 0.69,0.25 0.69,0.76l0 12.96c0,0.48 -0.23,0.73 -0.69,0.73l-13.03 0z"/>
   <path id="_5_8" class="fil4" d="M1214.92 412.92c-0.55,0 -0.83,-0.27 -0.83,-0.8l0 -82.53 -25.6 0c-0.53,0 -0.8,-0.28 -0.8,-0.8l0 -12.96c0,-0.55 0.28,-0.83 0.8,-0.83l67.35 0c0.53,0 0.8,0.28 0.8,0.83l0 12.96c0,0.53 -0.28,0.8 -0.8,0.8l-25.55 0 0 82.53c0,0.53 -0.25,0.8 -0.8,0.8l-14.56 0z"/>
   <path class="fil4" d="M1182.83 885.74c0.07,-6.49 1.2,-12.32 3.33,-17.42 2.16,-5.1 5.16,-9.49 9.09,-13.12 3.7,-3.4 7.86,-5.99 12.49,-7.86 4.6,-1.86 9.46,-2.8 14.52,-2.8 9.22,0 17.58,2.76 25.08,8.32 7.03,5.56 11.62,13.65 13.75,24.18 0.13,0.4 0.07,0.73 -0.2,0.97 -0.27,0.27 -0.57,0.4 -0.97,0.4l-20.01 0c-0.5,0 -0.87,-0.23 -1.07,-0.66 -2.93,-7.16 -8.49,-10.86 -16.68,-11.02 -11.75,0.3 -17.65,7.06 -17.65,20.28l0 11.52c4.23,-1.23 8.43,-2.23 12.62,-2.93 4.19,-0.73 8.19,-1.06 11.95,-1 9.13,0 16.92,3.2 23.41,9.59 6.26,6.56 9.36,16.65 9.29,30.34l0 12.65c-0.2,13.35 -4.16,23.51 -11.92,30.47 -7.29,6.89 -16.49,10.49 -27.61,10.82 -10.79,-0.33 -19.81,-3.9 -27.01,-10.72 -8.23,-7.16 -12.36,-17.32 -12.42,-30.47l0 -61.54zm21.68 60.38c0.07,13.36 5.99,20.08 17.75,20.21 11.52,-0.07 17.48,-6.79 17.95,-20.21l0 -11.42c-0.53,-13.19 -6.49,-19.91 -17.95,-20.18 -11.76,0.33 -17.68,7.06 -17.75,20.18l0 11.42z"/>
   <path id="_1_9" class="fil4" d="M1336.38 886.8c0,-6.29 -1.67,-11.22 -4.99,-14.79 -3.36,-3.53 -7.83,-5.29 -13.42,-5.29 -5.59,0 -10.06,1.76 -13.39,5.29 -3.3,3.56 -4.96,8.49 -4.96,14.79l0 59.04c0,6.36 1.67,11.29 4.96,14.82 3.33,3.5 7.79,5.26 13.39,5.26 5.59,0 10.06,-1.77 13.42,-5.26 3.33,-3.53 4.99,-8.46 4.99,-14.82l0 -59.04zm-59.01 -1.17c0,-13.15 4.13,-23.24 12.39,-30.34 8.19,-7.23 17.58,-10.83 28.21,-10.83 5.26,0 10.26,0.9 14.95,2.77 4.73,1.86 9.12,4.53 13.22,8.06 4.13,3.63 7.23,7.99 9.32,13.02 2.13,5.03 3.17,10.82 3.17,17.32l0 61.38c0,13.05 -4.16,23.18 -12.49,30.34 -8.19,7.16 -17.58,10.72 -28.17,10.72 -10.62,0 -20.01,-3.56 -28.21,-10.72 -8.26,-7.09 -12.39,-17.22 -12.39,-30.34l0 -61.38z"/>
   <path class="fil7" d="M541.65 983.5c-0.72,0 -1.09,-0.37 -1.09,-1.09l0 -108.26c-2.8,2.05 -5.6,4.14 -8.4,6.25 -2.77,2.08 -5.57,4.13 -8.37,6.16 -0.44,0.28 -0.84,0.34 -1.18,0.12 -0.37,-0.22 -0.56,-0.56 -0.56,-1.06l0 -19.78c0,-0.09 0.06,-0.25 0.15,-0.44 0.09,-0.19 0.19,-0.34 0.31,-0.47l18.75 -13.56 19.07 0c0.72,0 1.09,0.34 1.09,1.09l0 129.94c0,0.72 -0.37,1.09 -1.09,1.09l-18.69 0z"/>
   <path id="_1_10" class="fil7" d="M580.09 983.22c-0.72,0 -1.09,-0.37 -1.09,-1.09l0 -17.79 51.04 -63.85 0 0.09c1.87,-2.36 3.08,-4.54 3.64,-6.53 0.53,-1.96 0.81,-3.89 0.81,-5.78 0,-4.2 -1.52,-8.15 -4.54,-11.85 -3.05,-3.64 -7.15,-5.44 -12.32,-5.44 -4.73,0 -8.83,1.59 -12.28,4.82 -1.71,1.59 -3.02,3.45 -3.89,5.6 -0.87,2.15 -1.43,4.6 -1.68,7.34 0,0.31 -0.12,0.53 -0.31,0.72 -0.22,0.19 -0.5,0.28 -0.78,0.28l-18.6 0c-0.72,0 -1.09,-0.37 -1.09,-1.09 0.12,-10.82 3.79,-19.91 11.01,-27.24 7.37,-7.46 16.11,-11.2 26.25,-11.2 11.01,0 20.25,3.76 27.8,11.29l-0.09 0c7.47,7.46 11.2,16.45 11.2,26.96 0,4.57 -0.65,8.77 -1.99,12.66 -1.34,3.89 -3.36,7.5 -6.03,10.85l0 -0.09c-3.45,4.39 -6.84,8.65 -10.2,12.85 -3.33,4.2 -6.69,8.36 -10.01,12.53 -3.36,4.17 -6.69,8.3 -10.01,12.47 -3.36,4.17 -6.75,8.43 -10.2,12.82l47.37 0c0.72,0 1.09,0.37 1.09,1.09l0 18.5c0,0.72 -0.37,1.09 -1.09,1.09l-73.99 0z"/>
   <path id="_2_11" class="fil7" d="M724.77 889.74c0,-5.88 -1.55,-10.48 -4.66,-13.81 -3.14,-3.3 -7.31,-4.95 -12.53,-4.95 -5.22,0 -9.39,1.65 -12.5,4.95 -3.08,3.33 -4.63,7.93 -4.63,13.81l0 55.14c0,5.94 1.55,10.54 4.63,13.84 3.11,3.26 7.28,4.91 12.5,4.91 5.23,0 9.39,-1.65 12.53,-4.91 3.11,-3.3 4.66,-7.9 4.66,-13.84l0 -55.14zm-55.11 -1.09c0,-12.28 3.86,-21.71 11.57,-28.33 7.65,-6.75 16.42,-10.11 26.34,-10.11 4.91,0 9.58,0.84 13.96,2.58 4.42,1.74 8.52,4.23 12.35,7.53 3.86,3.39 6.75,7.47 8.71,12.16 1.99,4.7 2.96,10.11 2.96,16.17l0 57.32c0,12.19 -3.89,21.65 -11.66,28.33 -7.65,6.69 -16.42,10.01 -26.31,10.01 -9.92,0 -18.69,-3.33 -26.34,-10.01 -7.71,-6.62 -11.57,-16.08 -11.57,-28.33l0 -57.32z"/>
  </g>
 </g>
</svg>
