<?xml version="1.0" encoding="UTF-8" standalone="no"?>
<svg
   xmlns:dc="http://purl.org/dc/elements/1.1/"
   xmlns:cc="http://creativecommons.org/ns#"
   xmlns:rdf="http://www.w3.org/1999/02/22-rdf-syntax-ns#"
   xmlns:svg="http://www.w3.org/2000/svg"
   xmlns="http://www.w3.org/2000/svg"
   xmlns:sodipodi="http://sodipodi.sourceforge.net/DTD/sodipodi-0.dtd"
   xmlns:inkscape="http://www.inkscape.org/namespaces/inkscape"
   width="375.01697mm"
   height="500mm"
   viewBox="0 0 375.01697 499.99999"
   version="1.1"
   id="svg4599"
   inkscape:version="1.0 (4035a4fb49, 2020-05-01)"
   sodipodi:docname="Vietnam_road_sign_I416.svg">
  <defs
     id="defs4593" />
  <sodipodi:namedview
     id="base"
     pagecolor="#ffffff"
     bordercolor="#666666"
     borderopacity="1.0"
     inkscape:pageopacity="0.0"
     inkscape:pageshadow="2"
     inkscape:zoom="0.25880647"
     inkscape:cx="502.66485"
     inkscape:cy="676.41216"
     inkscape:document-units="mm"
     inkscape:current-layer="layer1"
     inkscape:document-rotation="0"
     showgrid="false"
     inkscape:window-width="1920"
     inkscape:window-height="1001"
     inkscape:window-x="-9"
     inkscape:window-y="-9"
     inkscape:window-maximized="1" />
  <metadata
     id="metadata4596">
    <rdf:RDF>
      <cc:Work
         rdf:about="">
        <dc:format>image/svg+xml</dc:format>
        <dc:type
           rdf:resource="http://purl.org/dc/dcmitype/StillImage" />
        <dc:title></dc:title>
      </cc:Work>
    </rdf:RDF>
  </metadata>
  <g
     inkscape:label="Layer 1"
     inkscape:groupmode="layer"
     id="layer1"
     transform="translate(-133.40067,46.359707)">
    <rect
       style="fill:#ffd70f;fill-opacity:1;fill-rule:evenodd;stroke-width:0.299999;paint-order:stroke fill markers"
       id="rect9723"
       width="375.01697"
       height="500"
       x="133.40067"
       y="-46.359707" />
    <path
       id="path9833"
       style="fill:#000000;fill-opacity:1;stroke:none;stroke-width:0.352777"
       d="m 251.7959,-10.460965 c -0.14551,0 -0.24301,0.0562 -0.30151,0.17438 -0.0563,0.13576 -0.0338,0.23138 0.0701,0.3378898 l 7.06135,7.4682 c 0.03,0.0262 0.0562,0.042 0.10538,0.0701 0.0491,0.0263 0.10838,0.0337 0.12713,0.0337 h 3.92301 c 0.13576,0 0.22276,-0.0491 0.26139,-0.14551 0.0562,-0.0971 0.0337,-0.20326 -0.008,-0.31989 l -5.34688,-7.4681598 c -0.0773,-0.10688 -0.15526,-0.15263 -0.26139,-0.15263 z m 99.9814,0 c -0.14551,0 -0.24939,0.0562 -0.29814,0.17438 -0.0562,0.13576 -0.042,0.23138 0.0634,0.3378898 l 7.06138,7.4682 c 0.0263,0.0262 0.0634,0.042 0.10876,0.0701 0.0491,0.0263 0.0941,0.0337 0.12375,0.0337 h 3.91574 c 0.14551,0 0.22989,-0.0491 0.26851,-0.14551 0.0491,-0.0971 0.0424,-0.20326 -0.007,-0.31989 l -5.35779,-7.4681598 c -0.0701,-0.10688 -0.14401,-0.15263 -0.25089,-0.15263 z M 257.06654,0.60330485 c -7.30886,0 -13.19284,5.88401995 -13.19284,13.19284015 v 11.55457 c 0,7.30886 5.88398,13.19283 13.19284,13.19283 h 0.37745 c 7.30878,0 13.19299,-5.88397 13.19284,-13.19283 v -11.55457 c 0,-7.3088202 -5.88421,-13.19284015 -13.19284,-13.19284015 z m 30.1124,0.27639 c -0.13576,0 -0.23139,0.0772 -0.25089,0.20325995 L 273.51002,37.795505 c -0.0338,0.0971 -0.0263,0.20251 0.0263,0.27976 0.0491,0.087 0.13763,0.12713 0.25464,0.12713 h 5.859 c 0.0491,0 0.11513,-0.0263 0.16313,-0.0701 0.0701,-0.0491 0.10688,-0.0859 0.11588,-0.13425 0.48434,-1.37545 0.959,-2.711 1.42398,-4.02832 0.47447,-1.33671 0.9492,-2.68554 1.42386,-4.06099 h 13.51247 l 2.77148,8.08931 c 0.0338,0.13575 0.12526,0.20326 0.25089,0.20326 h 5.86271 c 0.10688,0 0.18414,-0.0491 0.23252,-0.12713 0.0491,-0.087 0.0491,-0.18264 0.0263,-0.27977 L 292.03693,1.0818948 c -0.0225,-0.0562 -0.0634,-0.10687995 -0.10875,-0.14550995 -0.0701,-0.0491 -0.11663,-0.0562 -0.17438,-0.0562 z m -75.82236,0.0491 c -0.21301,0 -0.30864,0.0956 -0.30864,0.30863995 V 37.920845 c 0,0.20325 0.0956,0.30863 0.30864,0.30863 h 5.55029 c 0.20326,0 0.31201,-0.10538 0.31201,-0.30863 v -15.72098 h 13.94839 v 15.72098 c 0,0.20325 0.10538,0.30863 0.30863,0.30863 h 5.56121 c 0.20326,0 0.29814,-0.10538 0.29814,-0.30863 V 1.2374348 c 0,-0.21301 -0.0941,-0.30863995 -0.29814,-0.30863995 h -5.56121 c -0.20325,0 -0.30863,0.0956 -0.30863,0.30863995 V 16.649615 H 217.21888 V 1.2374348 c 0,-0.21301 -0.10875,-0.30863995 -0.31201,-0.30863995 z m 111.66307,0 c -0.21301,0 -0.30864,0.0956 -0.30864,0.30863995 V 37.920845 c 0,0.20325 0.0956,0.30863 0.30864,0.30863 h 15.48854 c 2.80902,0 5.27176,-0.97714 7.3447,-2.89509 2.1019,-1.9469 3.14557,-4.55499 3.14557,-7.80958 0,-0.95892 -0.13426,-1.87797 -0.39572,-2.77876 -0.26138,-0.89115 -0.64878,-1.78347 -1.13337,-2.62621 -0.94921,-1.55954 -2.28476,-2.60321 -3.99926,-3.14564 1.8695,-0.95899 3.136,-2.08378 3.81404,-3.38179 0.75547,-1.37545 1.12606,-2.88654 1.12606,-4.50414 0,-2.9543502 -0.96136,-5.3759402 -2.86956,-7.2647902 -1.92766,-1.93723 -4.69551,-2.89501995 -8.28911,-2.89501995 z m 31.90689,0 c -0.20326,0 -0.30864,0.0956 -0.30864,0.30863995 V 37.920845 c 0,0.20325 0.10538,0.30863 0.30864,0.30863 h 5.55029 c 0.20326,0 0.30864,-0.10538 0.30864,-0.30863 V 1.2374348 c 0,-0.21301 -0.10463,-0.30863995 -0.30864,-0.30863995 z m 13.40712,0 c -0.21301,0 -0.31201,0.0956 -0.31201,0.30863995 V 37.920845 c 0,0.20325 0.0997,0.30863 0.31201,0.30863 h 5.57935 c 0.19389,0 0.27977,-0.10538 0.27977,-0.30863 v -25.24506 l 16.175,25.39765 c 0.0773,0.0971 0.15451,0.15601 0.26139,0.15601 h 5.24154 c 0.21301,0 0.30864,-0.10538 0.30864,-0.30864 V 1.2373948 c 0,-0.21301 -0.0956,-0.30863995 -0.30864,-0.30863995 h -5.57936 c -0.20401,0 -0.30151,0.0955997 -0.30151,0.30863995 V 26.478775 L 373.85477,1.0811248 c -0.0701,-0.10687995 -0.14775,-0.15262995 -0.25463,-0.15262995 z m 35.54647,0 c -0.21301,0 -0.30864,0.0956 -0.30864,0.30863995 V 37.920845 c 0,0.20325 0.0956,0.30863 0.30864,0.30863 h 5.55033 c 0.20326,0 0.31201,-0.10538 0.31201,-0.30863 v -15.72098 h 13.94838 v 15.72098 c 0,0.20325 0.10538,0.30863 0.30864,0.30863 h 5.56129 c 0.2032,0 0.2981,-0.10538 0.2981,-0.30863 V 1.2374348 c 0,-0.21301 -0.094,-0.30863995 -0.2981,-0.30863995 h -5.56129 c -0.20326,0 -0.30864,0.0956 -0.30864,0.30863995 V 16.649615 H 409.74247 V 1.2374348 c 0,-0.21301 -0.10875,-0.30863995 -0.31201,-0.30863995 z m -74.9978,5.55028995 h 7.7588 c 1.88884,0 3.30063,0.50117 4.22081,1.48926 0.92026,0.94928 1.38757,2.0946602 1.38757,3.4798202 0,1.40455 -0.46746,2.57532 -1.38757,3.50525 -0.90075,0.95899 -2.30294,1.43478 -4.22081,1.43478 h -7.7588 z m -71.61246,0.33039 c 3.99892,0 7.21754,3.2186502 7.21754,7.2176102 v 11.14412 c 0,3.99884 -3.21847,7.22117 -7.21754,7.22117 -3.99884,0 -7.21746,-3.22233 -7.21746,-7.22117 v -11.14412 c 0,-3.99888 3.21862,-7.2175802 7.21746,-7.2175802 z m 32.26282,3.00036 4.92191,14.5876702 h -9.83283 z m 39.34964,12.1357702 h 8.27092 c 1.97611,0 3.40962,0.53492 4.30077,1.59097 0.92025,1.05586 1.37672,2.27632 1.37672,3.63242 0,1.40451 -0.4562,2.62504 -1.37672,3.66147 -0.94928,1.04608 -2.38282,1.55828 -4.30077,1.55828 h -8.27092 z m 82.81837,59.50211 -46.99938,71.536205 h 31.15855 v 31.03138 l -1.36218,0.37051 -154.03477,20.138 -1.36941,1.89609 a 13.605893,13.605893 0 0 0 -12.10678,-7.39916 13.605893,13.605893 0 0 0 -13.60326,13.60689 13.605893,13.605893 0 0 0 11.51464,13.44342 l -1.44566,2.00514 v 122.92704 l 0.60307,1.83807 a 13.605893,13.605893 0 0 0 -10.38133,13.21818 13.605893,13.605893 0 0 0 13.60325,13.60693 13.605893,13.605893 0 0 0 5.25245,-1.05706 l 0.59185,1.8053 162.73798,42.15382 v 30.92611 h 31.39836 V 152.98402 h 31.5181 z M 300.06298,154.001 l -3.44704,0.52296 c -0.13576,0.0225 -0.19351,0.0971 -0.17438,0.23251 l 3.67959,24.00281 c 0.0225,0.13576 0.0971,0.19389 0.23251,0.17439 l 3.43992,-0.52296 c 0.13575,-0.0225 0.19388,-0.0971 0.17438,-0.23251 l -0.74831,-4.84192 c 0.33864,-0.53279 0.67901,-1.07762 1.028,-1.59094 0.34876,-0.53282 0.69869,-1.05466 1.02792,-1.58741 l 5.58659,7.06138 c 0.0562,0.0701 0.11738,0.0859 0.18563,0.0765 l 4.31889,-0.65722 c 0.0971,-0.0225 0.1455,-0.0563 0.17438,-0.12713 0.0225,-0.0701 10e-4,-0.13576 -0.0491,-0.20326 -1.38524,-1.56922 -2.75217,-3.10694 -4.10831,-4.62767 -1.35602,-1.53045 -2.72187,-3.07173 -4.09725,-4.63131 l 4.79467,-7.48635 c 0.0491,-0.0773 0.0424,-0.15751 0,-0.22501 -0.0491,-0.0773 -0.12563,-0.0971 -0.20326,-0.087 l -4.11555,0.63191 c -0.0562,0.007 -0.10688,0.0424 -0.1455,0.0874 -0.86206,1.4626 -1.71447,2.90349 -2.55717,4.33707 -0.85241,1.44329 -1.69515,2.88778 -2.55728,4.34067 l -2.20847,-14.48233 c -0.0263,-0.13576 -0.10688,-0.19276 -0.23251,-0.16388 z m 34.88547,1.62731 c -0.34502,-0.015 -0.68534,0.007 -1.02436,0.0562 -2.22786,0.33865 -3.92294,1.33792 -5.08534,2.9749 -0.33864,-0.25163 -0.66847,-0.4843 -1.01705,-0.66847 -0.35851,-0.19388 -0.71801,-0.36676 -1.08612,-0.51242 -0.82331,-0.33864 -1.83916,-0.41683 -3.0403,-0.23251 -1.80162,0.28126 -3.14924,1.08241 -4.05007,2.4192 l -0.20326,-1.36574 c -0.0225,-0.13576 -0.0971,-0.19388 -0.23251,-0.17438 l -3.44735,0.52296 c -0.13575,0.0225 -0.19275,0.0971 -0.16313,0.23251 l 2.61533,17.10854 c 0.0225,0.13575 0.0971,0.19388 0.23251,0.17438 l 3.43625,-0.52296 c 0.13575,-0.0225 0.19388,-0.0971 0.17438,-0.23251 l -1.55827,-10.19248 c -0.17438,-1.1333 -0.015,-2.03416 0.48291,-2.70256 0.5131,-0.69727 1.25068,-1.12238 2.19025,-1.26767 0.91054,-0.13575 1.71574,0.0491 2.42287,0.56302 0.69727,0.51313 1.1321,1.33554 1.29673,2.43011 l 1.55827,10.1888 c 0.0225,0.13575 0.0983,0.19388 0.21451,0.17438 l 3.44712,-0.52998 c 0.12563,-0.0225 0.17588,-0.0971 0.15601,-0.23251 l -1.55827,-10.19247 c -0.17438,-1.1042 -0.002,-2.01354 0.50117,-2.69157 0.51314,-0.70706 1.24104,-1.12243 2.19032,-1.26771 0.91047,-0.14551 1.71447,0.0491 2.41189,0.55953 0.68744,0.50398 1.11519,1.31859 1.28949,2.42279 l 1.55828,10.18888 c 0.0225,0.13575 0.0971,0.19313 0.23251,0.17438 l 3.43984,-0.52296 c 0.13576,-0.0225 0.19388,-0.0971 0.17438,-0.23251 l -1.74356,-11.36935 c -0.30002,-2.00503 -1.1818,-3.43013 -2.61537,-4.28255 -1.09704,-0.62489 -2.16449,-0.95982 -3.20021,-0.99889 z m -51.00955,0.83546 -12.78601,1.95782 c -0.12563,0.0225 -0.17589,0.0971 -0.15601,0.23251 l 1.98692,12.98939 c 0.0225,0.12563 0.0941,0.17138 0.21076,0.15263 l 3.25462,-0.49412 c 0.0701,-0.007 0.12713,-0.0563 0.156,-0.12376 0.51314,-1.37545 1.40336,-2.15278 2.63352,-2.34652 1.34643,-0.20326 2.28839,0.0701 2.81143,0.80636 0.29026,0.38732 0.52225,0.85005 0.71565,1.37309 0.20326,0.53279 0.34014,1.11635 0.44702,1.76536 0.16463,1.07517 0.18263,2.22538 0.0757,3.43624 -0.0772,1.09456 -0.92145,1.76288 -2.51003,2.00503 -1.77259,0.27151 -2.99184,-0.44564 -3.65049,-2.15035 -0.0424,-0.0971 -0.11513,-0.14251 -0.22126,-0.12376 l -3.43984,0.52998 c -0.0562,0 -0.10688,0.0424 -0.14551,0.087 -0.0337,0.0563 -0.0337,0.10763 -0.0263,0.15601 0.61012,2.24721 1.73266,3.75951 3.38899,4.54412 1.62731,0.75547 3.22796,1.00493 4.81653,0.76278 1.23017,-0.18413 2.26661,-0.63895 3.10934,-1.33671 0.8136,-0.69731 1.42271,-1.40211 1.84888,-2.12856 0.4358,-0.79436 0.70829,-1.59104 0.82458,-2.40464 l -0.008,0.0225 c 0.0701,-0.44564 0.087,-0.9698 0.0563,-1.58006 -0.03,-0.61998 -0.10688,-1.33555 -0.23252,-2.13944 -0.31013,-1.99542 -0.69584,-3.40238 -1.15141,-4.2354 -0.22276,-0.40697 -0.48572,-0.79429 -0.79549,-1.1624 -0.31989,-0.37746 -0.66704,-0.71437 -1.03523,-1.02429 -0.26139,-0.19388 -0.57149,-0.38728 -0.92989,-0.55176 -0.34877,-0.17438 -0.72892,-0.32064 -1.12607,-0.44706 -0.41683,-0.12563 -0.84026,-0.19276 -1.28589,-0.22126 -0.4555,-0.0424 -0.91167,-0.015 -1.37665,0.0634 -1.34642,0.20326 -2.50031,0.77734 -3.46891,1.70723 l -0.74459,-4.8456 9.34606,-1.43117 c 0.13575,-0.0225 0.19388,-0.0971 0.17438,-0.23251 l -0.53211,-3.43992 c -0.0225,-0.13576 -0.0971,-0.19389 -0.23251,-0.17439 z m -30.63554,4.60225 c -0.50748,-0.0225 -1.03284,0.015 -1.58014,0.0975 -1.7532,0.27113 -3.19522,1.17211 -4.31888,2.67345 -1.14298,1.53045 -1.6479,3.16627 -1.49291,4.90013 -0.007,0.0701 0.0225,0.10688 0.0701,0.1455 0.0491,0.0491 0.0971,0.0562 0.14551,0.0491 l 3.45803,-0.53001 c 0.0338,0 0.0761,-0.0263 0.10538,-0.0701 0.042,-0.0337 0.0563,-0.0885 0.0563,-0.12713 0.0262,-0.93957 0.31989,-1.68304 0.87177,-2.21575 0.55176,-0.56163 1.15269,-0.89235 1.83072,-0.99893 0.92996,-0.13576 1.75564,0.0705 2.4918,0.61015 0.74587,0.54265 1.17935,1.27007 1.31496,2.1613 0.1455,0.95891 -0.0491,1.77983 -0.57007,2.44814 -0.54265,0.70714 -1.35606,1.14302 -2.44098,1.30769 l -1.18048,0.18563 c -0.13576,0.0225 -0.19388,0.0971 -0.17438,0.23251 l 0.4646,3.02215 c 0.0225,0.13576 0.0971,0.19276 0.23252,0.16388 l 1.45292,-0.22126 c 0.92993,-0.13575 1.8005,0.0701 2.60442,0.61012 0.80396,0.51314 1.27866,1.33555 1.45297,2.48824 0.17438,1.14301 -0.0337,2.08378 -0.63963,2.80051 -0.61015,0.75559 -1.36705,1.20114 -2.24849,1.33675 -0.47447,0.0701 -0.89959,0.0701 -1.26767,0 -0.37749,-0.0701 -0.71677,-0.20439 -1.01705,-0.38871 -0.31014,-0.19388 -0.58274,-0.42388 -0.82458,-0.70469 -0.25164,-0.29101 -0.47238,-0.61994 -0.67552,-0.98798 -0.0701,-0.087 -0.13576,-0.11888 -0.20326,-0.10913 l -3.45072,0.523 c -0.15451,0.0263 -0.20176,0.11888 -0.16313,0.25426 0.31989,1.02672 0.74467,1.88757 1.2677,2.60442 0.53279,0.70713 1.17328,1.29789 1.92879,1.74356 0.77486,0.42595 1.55827,0.72765 2.34292,0.88264 0.79429,0.15451 1.59949,0.16238 2.45182,0.0337 2.11161,-0.31989 3.7777,-1.27622 4.99819,-2.85508 1.23985,-1.61759 1.67573,-3.56453 1.33671,-5.84081 -0.15525,-1.00741 -0.53282,-1.95789 -1.1333,-2.85875 -0.57145,-0.83299 -1.36693,-1.49043 -2.36467,-1.99416 0.38732,-0.38728 0.70706,-0.78457 0.95892,-1.19143 0.27151,-0.40696 0.4576,-0.82458 0.57359,-1.26043 0.23251,-0.96863 0.26851,-1.92879 0.12375,-2.88778 -0.13575,-0.87173 -0.4358,-1.69508 -0.90086,-2.47001 -0.47447,-0.7749 -1.08489,-1.47104 -1.83072,-2.08131 -0.78461,-0.61998 -1.65634,-1.03643 -2.58623,-1.27862 -0.47447,-0.11588 -0.96383,-0.18563 -1.47112,-0.20326 z m 16.847,18.57234 -3.43985,0.52296 c -0.13575,0.0225 -0.19388,0.0971 -0.17438,0.23251 l 0.91167,5.92805 c 0.007,0.087 0.0562,0.144 0.12713,0.16388 0.0773,0.0263 0.13575,0.015 0.20326,-0.0491 l 3.0694,-3.02215 c 0.0491,-0.0562 0.0563,-0.11738 0.0491,-0.18563 l -0.52296,-3.41809 c -0.03,-0.13576 -0.10538,-0.19389 -0.22126,-0.17439 z m 125.70951,14.67483 v 216.24674 l -153.86046,-39.56032 -1.27135,-2.88043 a 13.605893,13.605893 0 0 0 0.15601,-2.05959 13.605893,13.605893 0 0 0 -6.08424,-11.33665 l -1.42754,-3.23283 V 227.48054 l 9.50593,-13.18192 z" />
    <circle
       r="54.746307"
       cy="304.168"
       cx="411.56717"
       id="circle9824"
       style="opacity:1;fill:#ff0000;fill-opacity:1;fill-rule:evenodd;stroke-width:0.0420687;stroke-linecap:square;stroke-miterlimit:10;stroke-dasharray:none;paint-order:stroke fill markers" />
    <path
       id="path9807"
       style="opacity:1;fill:#ffffff;fill-opacity:1;fill-rule:evenodd;stroke-width:0.0420687;stroke-linecap:square;stroke-miterlimit:10;stroke-dasharray:none;paint-order:stroke fill markers"
       d="m 411.38467,167.79828 a 17.317776,17.317779 0 0 0 -17.16666,17.31558 17.317776,17.317779 0 0 0 17.31562,17.32279 17.317776,17.317779 0 0 0 17.31915,-17.32279 17.317776,17.317779 0 0 0 -17.31915,-17.31558 17.317776,17.317779 0 0 0 -0.14888,0 z m -0.015,3.57785 a 13.74011,13.740113 0 0 1 0.16388,0 13.74011,13.740113 0 0 1 13.74493,13.73773 13.74011,13.740113 0 0 1 -13.74493,13.74134 13.74011,13.740113 0 0 1 -13.73766,-13.74134 13.74011,13.740113 0 0 1 13.57416,-13.73773 z m -184.21629,25.93891 a 15.715061,15.715061 0 0 0 -15.57929,15.71366 15.715061,15.715061 0 0 0 15.71366,15.71734 15.715061,15.715061 0 0 0 15.71734,-15.71734 15.715061,15.715061 0 0 0 -15.71734,-15.71366 15.715061,15.715061 0 0 0 -0.13425,0 z m -0.015,3.24731 a 12.468499,12.468499 0 0 1 0.14889,0 12.468499,12.468499 0 0 1 12.47002,12.46635 12.468499,12.468499 0 0 1 -12.47002,12.46995 12.468499,12.468499 0 0 1 -12.46628,-12.46995 12.468499,12.468499 0 0 1 12.31743,-12.46635 z m 184.51053,60.03609 a 43.486075,43.486075 0 0 0 -43.48686,43.48686 43.486075,43.486075 0 0 0 43.48686,43.48689 43.486075,43.486075 0 0 0 43.48687,-43.48689 43.486075,43.486075 0 0 0 -43.48687,-43.48686 z m -184.49598,89.75248 a 15.715061,15.715086 0 0 0 -15.57929,15.71377 15.715061,15.715086 0 0 0 15.71366,15.7173 15.715061,15.715086 0 0 0 15.71734,-15.7173 15.715061,15.715086 0 0 0 -15.71734,-15.71377 15.715061,15.715086 0 0 0 -0.13425,0 z m -0.015,3.24738 a 12.468499,12.468519 0 0 1 0.14889,0 12.468499,12.468519 0 0 1 12.46998,12.46639 12.468499,12.468519 0 0 1 -12.46998,12.46995 12.468499,12.468519 0 0 1 -12.46636,-12.46995 12.468499,12.468519 0 0 1 12.31744,-12.46639 z m 184.24535,47.07573 a 17.317776,17.317766 0 0 0 -17.16666,17.31555 17.317776,17.317766 0 0 0 17.31558,17.31918 17.317776,17.317766 0 0 0 17.31918,-17.31918 17.317776,17.317766 0 0 0 -17.31918,-17.31555 17.317776,17.317766 0 0 0 -0.14888,0 z m -0.015,3.57789 a 13.74011,13.740103 0 0 1 0.16389,0 13.74011,13.740103 0 0 1 13.74491,13.73766 13.74011,13.740103 0 0 1 -13.74491,13.74129 13.74011,13.740103 0 0 1 -13.73766,-13.74129 13.74011,13.740103 0 0 1 13.57415,-13.73766 z" />
  </g>
</svg>
