<?xml version="1.0" encoding="utf-8"?>
<svg viewBox="0 0 323.14914 200" xmlns="http://www.w3.org/2000/svg">
  <g id="layer1" transform="matrix(0.9999999999999999, 0, 0, 0.9999999999999999, -303.4596862792969, -22.960700988769517)">
    <path id="rect15575" style="opacity:1;fill:#0a9646;fill-opacity:1;fill-rule:evenodd;stroke-width:0.0420687;stroke-linecap:square;stroke-miterlimit:10;paint-order:stroke fill markers" d="M 303.45966,22.960701 H 626.6088 V 222.9607 H 303.45966 Z"/>
    <path transform="matrix(0.26458333,0,0,0.26458333,303.45966,22.960701)" d="m 30.353516,5.0117188 c -13.808655,0 -25.0781254,11.2674112 -25.0781254,25.0761722 v 332.957029 47.1211 49.04296 13.88672 252.45508 c 0,13.80862 11.2694704,25.06641 25.0781254,25.06641 H 1190.9805 c 13.8086,0 25.0781,-11.25779 25.0781,-25.06641 V 473.0957 459.57031 401.94727 363.04492 30.087891 c 0,-13.808761 -11.2695,-25.0761722 -25.0781,-25.0761722 z m 0,9.4511722 H 1190.9805 c 8.7398,0 15.6425,6.885058 15.6425,15.625 v 332.957029 38.90235 c 0,0.29959 -0.013,0.61475 -0.037,0.9375 v 7.20703 c 0,8.68754 -6.9941,15.68164 -15.6816,15.68164 h -8.0762 c -0.1869,0.007 -0.3766,0.0176 -0.5586,0.0176 H 38.023438 c -0.18105,0 -0.371847,-0.0102 -0.560547,-0.0176 h -7.097657 c -8.687546,0 -15.68164,-6.9941 -15.68164,-15.68164 V 30.152344 c 0,-1.658433 0.257595,-3.253829 0.730468,-4.751953 0.01365,-0.04461 0.03284,-0.08643 0.04688,-0.13086 1.99686,-6.321925 7.84094,-10.80664 14.892578,-10.80664 z M 30.28125,435.30469 h 6.958984 1145.628866 8.1172 c 8.6414,0 15.5996,6.95633 15.5996,15.59765 v 7.5918 c 0.024,0.37296 0.037,0.7339 0.037,1.07617 v 13.52539 252.45508 c 0,5.47634 -2.7106,10.22208 -6.8847,13.00391 -2.4923,1.6862 -5.5034,2.66992 -8.752,2.66992 H 30.28125 c -8.641361,0 -15.597656,-6.9563 -15.597656,-15.59766 V 450.90234 c 0,-8.64132 6.956295,-15.59765 15.597656,-15.59765 z" style="color:#000000;font-style:normal;font-variant:normal;font-weight:normal;font-stretch:normal;font-size:medium;line-height:normal;font-family:sans-serif;font-variant-ligatures:normal;font-variant-position:normal;font-variant-caps:normal;font-variant-numeric:normal;font-variant-alternates:normal;font-variant-east-asian:normal;font-feature-settings:normal;font-variation-settings:normal;text-indent:0;text-align:start;text-decoration:none;text-decoration-line:none;text-decoration-style:solid;text-decoration-color:#000000;letter-spacing:normal;word-spacing:normal;text-transform:none;writing-mode:lr-tb;direction:ltr;text-orientation:mixed;dominant-baseline:auto;baseline-shift:baseline;text-anchor:start;white-space:normal;shape-padding:0;shape-margin:0;inline-size:0;clip-rule:nonzero;display:inline;overflow:visible;visibility:visible;opacity:1;isolation:auto;mix-blend-mode:normal;color-interpolation:sRGB;color-interpolation-filters:linearRGB;solid-color:#000000;solid-opacity:1;vector-effect:none;fill:#ffffff;fill-opacity:1;fill-rule:evenodd;stroke:none;stroke-width:2.09199;stroke-linecap:square;stroke-linejoin:miter;stroke-miterlimit:10;stroke-dasharray:none;stroke-dashoffset:0;stroke-opacity:1;paint-order:stroke fill markers;color-rendering:auto;image-rendering:auto;shape-rendering:auto;text-rendering:auto;enable-background:accumulate;stop-color:#000000;stop-opacity:1" id="path15582"/>
    <path d="m 324.12038,67.193614 h 60.89334 v 27.821331 h -60.89334 z" style="opacity:1;fill:#ffd70f;fill-opacity:1;fill-rule:evenodd;stroke:none;stroke-width:0.553508;stroke-linecap:square;stroke-miterlimit:10;stroke-dasharray:none;stroke-opacity:1;paint-order:stroke fill markers" id="rect15605"/>
    <path id="path15631" d="m 326.18273,67.759747 c -0.81115,0 -1.47443,0.660164 -1.47443,1.471307 v 23.746432 c 0,0.811142 0.66328,1.471323 1.47443,1.471323 h 56.7905 c 0.81117,0 1.4744,-0.660181 1.4744,-1.471323 V 69.231054 c 0,-0.811143 -0.66328,-1.471307 -1.4744,-1.471307 z m 0,0.535017 h 56.7905 c 0.52266,0 0.93627,0.413622 0.93627,0.93629 v 23.746432 c 0,0.522654 -0.41353,0.933189 -0.93627,0.933189 h -56.7905 c -0.52266,0 -0.93628,-0.410555 -0.93628,-0.933189 V 69.231054 c 0,-0.522672 0.41354,-0.93629 0.93628,-0.93629 z" style="color:#000000;font-style:normal;font-variant:normal;font-weight:normal;font-stretch:normal;font-size:medium;line-height:normal;font-family:sans-serif;font-variant-ligatures:normal;font-variant-position:normal;font-variant-caps:normal;font-variant-numeric:normal;font-variant-alternates:normal;font-variant-east-asian:normal;font-feature-settings:normal;font-variation-settings:normal;text-indent:0;text-align:start;text-decoration:none;text-decoration-line:none;text-decoration-style:solid;text-decoration-color:#000000;letter-spacing:normal;word-spacing:normal;text-transform:none;writing-mode:lr-tb;direction:ltr;text-orientation:mixed;dominant-baseline:auto;baseline-shift:baseline;text-anchor:start;white-space:normal;shape-padding:0;shape-margin:0;inline-size:0;clip-rule:nonzero;display:inline;overflow:visible;visibility:visible;opacity:1;isolation:auto;mix-blend-mode:normal;color-interpolation:sRGB;color-interpolation-filters:linearRGB;solid-color:#000000;solid-opacity:1;vector-effect:none;fill:#000000;fill-opacity:1;fill-rule:evenodd;stroke:none;stroke-width:0.119062;stroke-linecap:square;stroke-linejoin:miter;stroke-miterlimit:10;stroke-dasharray:none;stroke-dashoffset:0;stroke-opacity:1;paint-order:stroke fill markers;color-rendering:auto;image-rendering:auto;shape-rendering:auto;text-rendering:auto;enable-background:accumulate;stop-color:#000000;stop-opacity:1"/>
    <path d="m 336.88947,72.205604 c -1.36961,0 -2.51552,0.330332 -3.43646,0.991507 -0.91309,0.653335 -1.5737,1.361798 -1.98303,2.125328 -0.14189,0.267612 -0.264,0.538688 -0.36613,0.814199 -0.10264,0.275473 -0.18065,0.564078 -0.23555,0.86321 -0.0552,0.299089 -0.0954,0.774434 -0.11873,1.427765 -0.0223,0.653332 -0.0362,1.495435 -0.0362,2.5266 0,2.062321 0.0516,3.383536 0.15387,3.966025 0.0552,0.299136 0.13326,0.587702 0.23556,0.863193 0.10264,0.267612 0.22467,0.534915 0.36612,0.802543 0.40948,0.771411 1.06995,1.479875 1.983,2.125324 0.92887,0.653346 2.07472,0.979855 3.43649,0.979855 0.74779,0 1.44489,-0.107189 2.09034,-0.319632 0.64544,-0.212556 1.24303,-0.525333 1.79403,-0.942508 1.1335,-0.865864 1.86473,-2.103628 2.19533,-3.709419 0.0139,-0.04714 0.009,-0.08518 -0.0223,-0.116745 -0.0315,-0.03928 -0.0694,-0.05829 -0.11656,-0.05829 h -2.70394 c -0.0223,1.5e-5 -0.0488,0.01117 -0.0722,0.03521 -0.0223,0.01589 -0.0451,0.0307 -0.0582,0.0467 -0.70836,1.487712 -1.74338,2.232636 -3.10515,2.232636 -0.59037,0 -1.09454,-0.11468 -1.51174,-0.342928 -0.41713,-0.236167 -0.75132,-0.520933 -1.00317,-0.851551 -0.14189,-0.181028 -0.27124,-0.389065 -0.3896,-0.625222 -0.11008,-0.244 -0.19597,-0.488524 -0.25924,-0.732545 -0.0628,-0.267611 -0.10709,-0.67614 -0.13048,-1.227141 -0.0223,-0.558871 -0.0359,-1.267326 -0.0359,-2.125325 0,-0.842249 0.009,-1.543133 0.0359,-2.102004 0.0223,-0.55887 0.0677,-0.97117 0.13048,-1.238798 0.0627,-0.251917 0.14857,-0.496392 0.25924,-0.732549 0.11009,-0.244 0.24028,-0.45965 0.3896,-0.64857 0.252,-0.30699 0.58598,-0.580386 1.00317,-0.816526 0.41715,-0.236167 0.92137,-0.352269 1.51174,-0.352269 0.79503,1.7e-5 1.45185,0.230844 1.97135,0.695231 0.27541,0.236167 0.50863,0.492045 0.69757,0.767539 0.18872,0.267667 0.33407,0.560022 0.4361,0.874867 0.0167,0.06294 0.0599,0.09333 0.13046,0.09333 h 2.7039 c 0.0468,0 0.0854,-0.01589 0.11658,-0.0467 0.0315,-0.03161 0.0407,-0.07184 0.0223,-0.118954 -0.25952,-1.393235 -0.93175,-2.595995 -2.01801,-3.611427 -1.07052,-1.007535 -2.42438,-1.511744 -4.0617,-1.511744 z m 27.73422,0.104956 c -1.28304,0 -2.4213,0.437369 -3.41313,1.311121 -0.99967,0.858 -1.50005,2.08205 -1.50005,3.672071 v 7.425818 c 0,1.590021 0.50038,2.814088 1.50005,3.672088 0.99183,0.865851 2.13009,1.299446 3.41313,1.299446 1.28303,0 2.42133,-0.433578 3.41313,-1.299446 1.00756,-0.86587 1.50938,-2.089917 1.50938,-3.672088 v -7.425818 c 0,-0.787127 -0.1299,-1.484222 -0.38959,-2.09033 -0.252,-0.613979 -0.62389,-1.140934 -1.11979,-1.581741 -0.49592,-0.425045 -1.03279,-0.74779 -1.6074,-0.968177 -0.56674,-0.22825 -1.16816,-0.342924 -1.80573,-0.342924 z m -21.12261,0.03521 c -0.0943,0 -0.14217,0.04776 -0.14217,0.142392 v 2.279298 c 0,0.09444 0.0479,0.142197 0.14217,0.142197 h 4.49793 V 89.409 c 0,0.09444 0.0479,0.139995 0.14217,0.139995 h 2.5616 c 0.0945,0 0.14217,-0.04555 0.14217,-0.139995 V 74.909653 h 4.48625 c 0.0943,0 0.14217,-0.04778 0.14217,-0.142196 v -2.279299 c 0,-0.09444 -0.0479,-0.142392 -0.14217,-0.142392 z m 31.22667,0.118953 -2.43331,1.759064 c -0.0139,0.01589 -0.0315,0.03477 -0.0466,0.05829 -0.009,0.02341 -0.0139,0.04468 -0.0139,0.06068 v 2.561593 c 0,0.06294 0.0278,0.110694 0.0728,0.142196 0.0468,0.02343 0.0989,0.01617 0.15388,-0.02343 0.36208,-0.259778 0.7228,-0.523245 1.08486,-0.790886 0.36206,-0.275473 0.72509,-0.548889 1.08714,-0.816528 v 14.028096 c 0,0.09444 0.048,0.142198 0.14217,0.142198 h 2.41929 c 0.0943,0 0.13994,-0.04778 0.13994,-0.142198 V 72.606811 c 0,-0.09444 -0.0455,-0.142197 -0.13994,-0.142197 z m -10.10406,2.538257 c 0.67694,0 1.21532,0.217964 1.61673,0.650912 0.40948,0.425045 0.61359,1.018854 0.61359,1.782378 v 7.143522 c 0,0.771407 -0.20461,1.368982 -0.61359,1.794059 -0.40133,0.425045 -0.93979,0.63689 -1.61673,0.63689 -0.67695,0 -1.21527,-0.211859 -1.61671,-0.63689 -0.40134,-0.425091 -0.60428,-1.022652 -0.60428,-1.794059 v -7.143497 c 0,-0.763524 0.20266,-1.357335 0.60428,-1.782377 0.40133,-0.432946 0.93976,-0.650913 1.61671,-0.650913 z m -9.98507,11.865445 c -0.0945,0 -0.14217,0.04776 -0.14217,0.14239 v 2.398281 c 0,0.09444 0.0479,0.139994 0.14217,0.139994 h 2.40762 c 0.0867,0 0.13046,-0.04555 0.13046,-0.139994 v -2.398281 c 0,-0.09444 -0.0451,-0.14239 -0.13046,-0.14239 z" style="font-style: normal; font-variant: normal; font-weight: normal; font-stretch: normal; font-size: 15.1831px; line-height: 1.46; font-family: 'Alte DIN 1451 Mittelschrift gepraegt'; text-align: center; text-anchor: middle; opacity: 1; fill-opacity: 1; stroke-width: 0.264584; visibility: hidden;" id="path15637"/>
    <path id="path17496" style="font-size:15.1831px;line-height:1.46;font-family:'Singapore Road Signs';-inkscape-font-specification:'Singapore Road Signs';text-align:center;text-anchor:middle;opacity:1;fill:#ffffff;fill-opacity:1;stroke-width:0.0756548" d="m 570.47468,59.120043 v 50.614317 h 35.43541 V 59.120043 Z m 1.38203,1.660034 h 32.65274 v 47.566083 h -32.65274 z m 13.66823,3.646909 -2.23483,8.869719 h 3.92184 l 0.28216,-8.869719 z m 3.35329,0 0.28216,8.869719 h 3.92385 l -2.23686,-8.869719 z m -15.90932,9.992316 v 1.942234 l 3.06692,1.10806 v 0.584703 h 1.411 v -0.584703 c 0,0 2.08662,-0.313671 4.52568,-0.535349 1.95306,-0.177516 4.1317,-0.271988 5.64407,-0.278037 1.79866,-0.0063 4.45804,0.09363 6.73975,0.288436 2.51319,0.214479 4.5713,0.524984 4.5713,0.524984 v 0.5847 h 1.38199 v -0.5847 l 3.06685,-1.108064 v -1.942233 z m 9.21108,3.620663 -6.70448,26.681115 h 10.04943 l 1.39442,-26.681115 z m 7.25642,0 1.39441,26.681115 h 10.0494 l -6.70443,-26.681115 z"/>
    <g style="font-size: 14.7905px; line-height: 0; font-family: 'Singapore Road Signs'; text-align: center; text-anchor: middle; opacity: 1; fill: rgb(134, 0, 0); fill-opacity: 1; stroke-width: 6.45213; visibility: hidden;" id="layer1-8" transform="matrix(0.08718024,0,0,0.08718024,-145.22047,195.49013)">
      <circle style="opacity:1;fill:#f00a0a;fill-opacity:1;fill-rule:nonzero;stroke:none;stroke-width:3622.55;stroke-linecap:round;stroke-linejoin:round;stroke-miterlimit:4;stroke-dasharray:none;stroke-opacity:1;paint-order:stroke fill markers" id="path815" cx="6380.9966" cy="-193.29752" r="350"/>
      <circle cy="-193.29752" cx="6380.9966" id="circle817" style="opacity:1;fill:#ffffff;fill-opacity:1;fill-rule:nonzero;stroke:none;stroke-width:2587.55;stroke-linecap:round;stroke-linejoin:round;stroke-miterlimit:4;stroke-dasharray:none;stroke-opacity:1;paint-order:stroke fill markers" r="250"/>
      <g aria-label="20 " style="font-style:normal;font-variant:normal;font-weight:bold;font-stretch:normal;font-size:414.864px;line-height:0;font-family:Giaothong1;-inkscape-font-specification:'Giaothong1 Bold';letter-spacing:0px;word-spacing:0px;fill:#000000;fill-opacity:1;stroke:none;stroke-width:24.7849" id="text874" transform="matrix(-1,0,0,1,1299.029,-383.45)">
        <g aria-label="90" transform="translate(2310.2259,387.54849)" style="font-style:normal;font-variant:normal;font-weight:bold;font-stretch:normal;font-size:414.864px;line-height:0;font-family:Giaothong1;-inkscape-font-specification:'Giaothong1 Bold';letter-spacing:0px;word-spacing:0px;fill:#000000;fill-opacity:1;stroke:none;stroke-width:53.5539" id="text844"/>
      </g>
    </g>
    <g style="font-size: 14.7905px; line-height: 0; font-family: 'Singapore Road Signs'; text-align: center; text-anchor: middle; opacity: 1; fill: rgb(255, 240, 0); fill-opacity: 1; stroke-width: 6.45221; visibility: hidden;" id="layer1-7" transform="matrix(0.08717968,0,0,0.08717968,488.77841,183.34565)">
      <circle cy="-54" cx="351" id="circle817-6" style="opacity:1;fill:#0046aa;fill-opacity:1;fill-rule:nonzero;stroke:none;stroke-width:3622.58;stroke-linecap:round;stroke-linejoin:round;stroke-miterlimit:4;stroke-dasharray:none;stroke-opacity:1;paint-order:stroke fill markers" r="350"/>
      <path id="rect984" style="font-style:normal;font-variant:normal;font-weight:bold;font-stretch:normal;font-size:414.864px;line-height:0;font-family:Giaothong1;-inkscape-font-specification:'Giaothong1 Bold';letter-spacing:0px;word-spacing:0px;opacity:1;fill:#ffffff;fill-opacity:1;fill-rule:nonzero;stroke:none;stroke-width:0.344279;stroke-linecap:round;stroke-linejoin:miter;stroke-miterlimit:10;stroke-dasharray:none;stroke-opacity:1;paint-order:stroke fill markers" d="m 851.18164,518.03906 c -16.32678,0 -29.4707,13.14393 -29.4707,29.47071 v 80.94921 c 0,16.32678 13.14392,29.47071 29.4707,29.47071 16.32678,0 29.4707,-13.14393 29.4707,-29.47071 v -80.94921 c 0,-16.32678 -13.14392,-29.47071 -29.4707,-29.47071 z m -69.94336,1.23828 -26.10937,69.75391 c -2.72781,7.40406 -3.70118,11.30112 -3.70118,28.44727 0,18.12042 0.7789,22.01697 4.67579,28.25195 5.26075,8.37828 14.22308,13.44336 24.93945,13.44336 10.91123,0 20.0688,-4.87023 25.13476,-13.44336 3.70197,-6.23498 4.48047,-10.13153 4.48047,-28.25195 0,-22.01726 -0.77798,-26.88814 -4.28515,-32.34375 -3.31232,-5.06591 -9.74347,-8.96289 -16.75782,-8.96289 -4.28653,0 -7.01308,0.77773 -8.37695,1.75195 l -0.39062,-0.38867 22.60156,-58.25782 z m 69.94336,18.74024 c 5.25853,0 9.49219,4.23365 9.49219,9.49219 v 80.94921 c 0,5.25853 -4.23366,9.49219 -9.49219,9.49219 -5.25853,0 -9.49219,-4.23366 -9.49219,-9.49219 v -80.94921 c 0,-5.25854 4.23366,-9.49219 9.49219,-9.49219 z m -70.13867,55.68945 c 5.0659,0 9.74219,3.89738 9.74219,9.9375 v 25.71875 c 0,6.04012 -4.67629,9.9375 -9.74219,9.9375 -5.0659,0 -9.74219,-3.89738 -9.74219,-9.9375 v -25.71875 c 0,-6.04012 4.67629,-9.9375 9.74219,-9.9375 z" transform="matrix(3.0349198,0,0,3.0349198,-2125.7104,-1839.7056)"/>
    </g>
    <g aria-label="6" id="text19759" style="font-size:31.1478px;line-height:1.3;font-family:'Singapore Road Signs';-inkscape-font-specification:'Singapore Road Signs';text-align:center;text-anchor:middle;stroke-width:0.159861" transform="matrix(1.6550836,0,0,1.6550836,-321.31659,-238.56049)"/>
    <path d="M 382.027 46.797 Q 381.922 46.797 381.922 46.691 L 381.922 34.097 Q 381.922 33.991 382.027 33.991 L 383.934 33.991 Q 384.04 33.991 384.04 34.097 L 384.04 44.793 L 390.078 44.793 Q 390.183 44.793 390.183 44.898 L 390.183 46.691 Q 390.183 46.797 390.078 46.797 Z M 390.629 46.788 Q 390.568 46.788 390.541 46.744 Q 390.515 46.7 390.532 46.647 L 395.138 34.044 Q 395.156 33.974 395.226 33.974 L 396.799 33.974 Q 396.825 33.974 396.856 33.996 Q 396.887 34.017 396.896 34.044 L 401.492 46.647 Q 401.51 46.7 401.484 46.744 Q 401.457 46.788 401.405 46.788 L 399.392 46.788 Q 399.322 46.788 399.304 46.718 L 398.355 43.94 L 393.714 43.94 Q 393.468 44.652 393.226 45.333 Q 392.985 46.015 392.739 46.718 Q 392.73 46.744 392.699 46.766 Q 392.668 46.788 392.642 46.788 Z M 397.722 42.051 Q 397.704 41.989 397.674 41.919 Q 397.643 41.849 397.625 41.796 Q 397.476 41.365 397.353 41 Q 397.23 40.636 397.133 40.363 Q 397.072 40.187 397.014 40.02 Q 396.957 39.853 396.905 39.704 Q 396.861 39.563 396.817 39.436 Q 396.773 39.309 396.729 39.185 Q 396.65 38.931 396.566 38.676 Q 396.483 38.421 396.395 38.148 Q 396.351 38.025 396.302 37.876 Q 396.254 37.726 396.201 37.559 Q 396.175 37.472 396.162 37.423 Q 396.149 37.375 396.131 37.327 Q 396.114 37.278 396.092 37.217 Q 396.07 37.155 396.034 37.041 Q 395.938 37.331 395.854 37.577 Q 395.771 37.823 395.7 38.034 Q 395.683 38.087 395.674 38.131 Q 395.665 38.175 395.648 38.219 Q 395.604 38.368 395.555 38.5 Q 395.507 38.632 395.463 38.764 Q 395.419 38.904 395.375 39.036 Q 395.331 39.168 395.287 39.291 Q 395.199 39.555 395.107 39.845 Q 395.015 40.135 394.901 40.451 Q 394.786 40.767 394.663 41.132 Q 394.54 41.497 394.347 42.051 Z M 407.32 43.562 Q 407.347 43.527 407.391 43.527 Q 407.435 43.527 407.47 43.554 Q 408.164 44.116 409.065 44.455 Q 409.966 44.793 410.968 44.793 Q 412.093 44.793 412.743 44.327 Q 413.358 43.879 413.358 43.141 Q 413.358 41.752 411.803 41.541 L 411.812 41.541 Q 411.592 41.515 411.394 41.488 Q 411.196 41.462 410.999 41.435 Q 410.801 41.409 410.594 41.378 Q 410.388 41.348 410.142 41.312 Q 409.315 41.198 408.669 40.895 Q 408.023 40.592 407.584 40.091 Q 407.145 39.581 406.925 38.979 Q 406.705 38.377 406.705 37.665 Q 406.705 35.995 407.813 34.949 Q 408.929 33.886 410.915 33.886 Q 411.504 33.886 412.062 33.987 Q 412.62 34.088 413.143 34.264 Q 413.666 34.439 414.145 34.681 Q 414.624 34.923 415.064 35.213 Q 415.151 35.274 415.09 35.362 L 414.026 36.935 Q 413.965 37.015 413.886 36.962 Q 413.2 36.531 412.427 36.272 Q 411.653 36.013 410.827 36.013 Q 410.405 36.013 410.045 36.114 Q 409.685 36.215 409.395 36.443 Q 408.823 36.856 408.823 37.7 Q 408.823 38.184 409.21 38.641 Q 409.403 38.851 409.729 38.996 Q 410.054 39.142 410.528 39.212 Q 410.783 39.256 411.126 39.304 Q 411.469 39.352 411.935 39.405 Q 413.736 39.625 414.606 40.732 Q 415.477 41.813 415.477 43.141 Q 415.477 44.916 414.237 45.918 Q 412.989 46.902 410.95 46.902 Q 408.076 46.902 406.064 45.144 Q 406.028 45.118 406.028 45.074 Q 406.028 45.03 406.055 44.995 Z M 419.157 40.398 Q 419.157 41.356 419.183 41.976 Q 419.209 42.596 419.28 42.894 Q 419.35 43.167 419.478 43.435 Q 419.605 43.703 419.763 43.905 Q 420.044 44.274 420.51 44.534 Q 420.976 44.793 421.635 44.793 Q 422.286 44.793 422.751 44.534 Q 423.217 44.274 423.49 43.905 Q 423.859 43.457 423.973 42.894 Q 424.114 42.332 424.114 40.398 Q 424.114 39.44 424.079 38.821 Q 424.043 38.201 423.973 37.911 Q 423.912 37.63 423.789 37.362 Q 423.666 37.094 423.499 36.883 Q 423.367 36.716 423.178 36.558 Q 422.989 36.399 422.751 36.281 Q 422.514 36.162 422.233 36.087 Q 421.952 36.013 421.635 36.013 Q 420.976 36.013 420.51 36.276 Q 420.044 36.54 419.763 36.883 Q 419.596 37.094 419.473 37.362 Q 419.35 37.63 419.28 37.911 Q 419.209 38.21 419.183 38.834 Q 419.157 39.458 419.157 40.398 Z M 426.32 32.339 Q 426.39 32.4 426.452 32.462 Q 427.032 33.068 427.049 34.044 Q 427.084 35.23 425.986 35.977 Q 425.81 36.057 425.625 36.127 Q 425.643 36.162 425.669 36.206 Q 425.995 36.804 426.109 37.454 Q 426.17 37.788 426.201 38.517 Q 426.232 39.247 426.232 40.398 Q 426.232 42.657 426.109 43.351 Q 426.047 43.694 425.938 44.002 Q 425.828 44.309 425.678 44.591 Q 425.212 45.434 424.175 46.173 Q 423.138 46.902 421.635 46.902 Q 420.115 46.902 419.078 46.173 Q 418.058 45.452 417.601 44.591 L 417.61 44.591 Q 417.443 44.292 417.329 43.989 Q 417.214 43.685 417.153 43.351 Q 417.1 43.017 417.069 42.284 Q 417.039 41.55 417.039 40.398 Q 417.039 39.247 417.069 38.517 Q 417.1 37.788 417.153 37.454 Q 417.214 37.12 417.329 36.812 Q 417.443 36.505 417.61 36.206 L 417.601 36.206 Q 418.058 35.353 419.078 34.624 Q 420.106 33.886 421.635 33.886 Q 423.147 33.886 424.175 34.624 Q 424.562 34.905 424.87 35.195 Q 425.784 34.861 425.81 34.079 Q 425.801 33.481 425.432 33.226 Z M 428.543 46.797 Q 428.437 46.797 428.437 46.691 L 428.437 34.097 Q 428.437 33.991 428.543 33.991 L 430.353 33.991 Q 430.406 33.991 430.441 34.044 L 435.978 42.763 L 435.978 34.097 Q 435.978 33.991 436.084 33.991 L 438 33.991 Q 438.105 33.991 438.105 34.097 L 438.105 46.691 Q 438.105 46.797 438 46.797 L 436.198 46.797 Q 436.145 46.797 436.11 46.744 L 430.555 38.025 L 430.555 46.691 Q 430.555 46.797 430.459 46.797 Z" transform="matrix(1.310387, 0, 0, 1.310387, -59.698296, -1.169035)" style="fill: rgb(255, 255, 255);"/>
    <path transform="matrix(1.310387, 0, 0, 1.310387, -59.698296, -1.169035)" style="fill: rgb(255, 255, 255);"/>
    <path d="M 374.376 72.357 Q 374.271 72.357 374.271 72.251 L 374.271 61.458 L 370.922 61.458 Q 370.817 61.458 370.817 61.353 L 370.817 59.657 Q 370.817 59.551 370.922 59.551 L 379.729 59.551 Q 379.834 59.551 379.834 59.657 L 379.834 61.353 Q 379.834 61.458 379.729 61.458 L 376.389 61.458 L 376.389 72.251 Q 376.389 72.357 376.284 72.357 Z M 380.889 59.657 Q 380.889 59.551 380.994 59.551 L 382.91 59.551 Q 383.007 59.551 383.007 59.657 L 383.007 67.778 Q 383.007 69.043 383.71 69.694 Q 384.422 70.353 385.477 70.353 Q 386.514 70.353 387.226 69.694 Q 387.937 69.035 387.937 67.778 L 387.937 59.657 Q 387.937 59.551 388.043 59.551 L 389.95 59.551 Q 390.056 59.551 390.056 59.657 L 390.056 67.989 Q 390.056 70.01 388.711 71.241 Q 387.384 72.462 385.477 72.462 Q 383.561 72.462 382.225 71.241 Q 380.889 70.01 380.889 67.989 Z M 395.062 72.357 Q 394.965 72.357 394.965 72.251 L 394.965 67.101 Q 394.016 65.246 393.076 63.401 Q 392.135 61.555 391.195 59.701 Q 391.168 59.639 391.195 59.595 Q 391.221 59.551 391.291 59.551 L 393.295 59.551 Q 393.322 59.551 393.348 59.573 Q 393.374 59.595 393.392 59.613 L 395.976 65.009 Q 396.626 63.647 397.263 62.311 Q 397.901 60.975 398.551 59.613 Q 398.569 59.595 398.595 59.573 Q 398.621 59.551 398.648 59.551 L 400.66 59.551 Q 400.731 59.551 400.757 59.595 Q 400.784 59.639 400.757 59.701 L 396.978 67.101 L 396.978 72.251 Q 396.978 72.357 396.872 72.357 Z M 394.086 58.417 Q 394.016 58.417 393.994 58.369 Q 393.972 58.321 393.998 58.259 L 395.835 55.693 Q 395.87 55.64 395.923 55.64 L 397.857 55.64 Q 397.927 55.64 397.958 55.702 Q 397.989 55.763 397.936 55.816 L 395.51 58.382 Q 395.501 58.391 395.475 58.404 Q 395.449 58.417 395.431 58.417 Z M 406.49 72.357 Q 406.384 72.357 406.384 72.251 L 406.384 59.657 Q 406.384 59.551 406.49 59.551 L 408.397 59.551 Q 408.503 59.551 408.503 59.657 L 408.503 70.353 L 414.541 70.353 Q 414.646 70.353 414.646 70.458 L 414.646 72.251 Q 414.646 72.357 414.541 72.357 Z M 415.963 65.958 Q 415.963 64.807 415.993 64.077 Q 416.024 63.348 416.077 63.014 Q 416.139 62.68 416.253 62.372 Q 416.367 62.065 416.534 61.766 L 416.525 61.766 Q 416.982 60.913 418.002 60.184 Q 419.03 59.446 420.559 59.446 Q 422.071 59.446 423.099 60.184 Q 424.137 60.931 424.594 61.766 Q 424.919 62.364 425.033 63.014 Q 425.095 63.348 425.125 64.077 Q 425.156 64.807 425.156 65.958 Q 425.156 68.217 425.033 68.911 Q 424.972 69.254 424.862 69.562 Q 424.752 69.869 424.602 70.151 Q 424.137 70.994 423.099 71.733 Q 422.062 72.462 420.559 72.462 Q 419.039 72.462 418.002 71.733 Q 416.982 71.012 416.525 70.151 L 416.534 70.151 Q 416.367 69.852 416.253 69.549 Q 416.139 69.245 416.077 68.911 Q 416.024 68.577 415.993 67.844 Q 415.963 67.11 415.963 65.958 Z M 418.081 65.958 Q 418.081 66.916 418.107 67.536 Q 418.134 68.156 418.204 68.454 Q 418.274 68.727 418.402 68.995 Q 418.529 69.263 418.687 69.465 Q 418.969 69.834 419.434 70.094 Q 419.9 70.353 420.559 70.353 Q 421.21 70.353 421.676 70.094 Q 422.141 69.834 422.414 69.465 Q 422.783 69.017 422.897 68.454 Q 423.038 67.892 423.038 65.958 Q 423.038 65 423.003 64.381 Q 422.968 63.761 422.897 63.471 Q 422.836 63.19 422.713 62.922 Q 422.59 62.654 422.423 62.443 Q 422.291 62.276 422.102 62.118 Q 421.913 61.959 421.676 61.841 Q 421.438 61.722 421.157 61.647 Q 420.876 61.573 420.559 61.573 Q 419.9 61.573 419.434 61.836 Q 418.969 62.1 418.687 62.443 Q 418.52 62.654 418.397 62.922 Q 418.274 63.19 418.204 63.471 Q 418.134 63.77 418.107 64.394 Q 418.081 65.018 418.081 65.958 Z M 426.069 72.348 Q 426.007 72.348 425.981 72.304 Q 425.954 72.26 425.972 72.207 L 430.578 59.604 Q 430.595 59.534 430.665 59.534 L 432.239 59.534 Q 432.265 59.534 432.296 59.556 Q 432.327 59.577 432.335 59.604 L 436.932 72.207 Q 436.95 72.26 436.923 72.304 Q 436.897 72.348 436.844 72.348 L 434.831 72.348 Q 434.761 72.348 434.744 72.278 L 433.794 69.5 L 429.154 69.5 Q 428.908 70.212 428.666 70.893 Q 428.424 71.575 428.178 72.278 Q 428.169 72.304 428.139 72.326 Q 428.108 72.348 428.081 72.348 Z M 433.162 67.611 Q 433.144 67.549 433.113 67.479 Q 433.082 67.409 433.065 67.356 Q 432.915 66.925 432.792 66.56 Q 432.669 66.196 432.573 65.923 Q 432.511 65.747 432.454 65.58 Q 432.397 65.413 432.344 65.264 Q 432.3 65.123 432.256 64.996 Q 432.212 64.869 432.168 64.745 Q 432.089 64.491 432.006 64.236 Q 431.922 63.981 431.834 63.708 Q 431.79 63.585 431.742 63.436 Q 431.694 63.286 431.641 63.119 Q 431.615 63.032 431.601 62.983 Q 431.588 62.935 431.571 62.887 Q 431.553 62.838 431.531 62.777 Q 431.509 62.715 431.474 62.601 Q 431.377 62.891 431.294 63.137 Q 431.21 63.383 431.14 63.594 Q 431.122 63.647 431.114 63.691 Q 431.105 63.735 431.087 63.779 Q 431.043 63.928 430.995 64.06 Q 430.947 64.192 430.903 64.324 Q 430.859 64.464 430.815 64.596 Q 430.771 64.728 430.727 64.851 Q 430.639 65.115 430.547 65.405 Q 430.454 65.695 430.34 66.011 Q 430.226 66.327 430.103 66.692 Q 429.98 67.057 429.787 67.611 Z M 438.364 72.357 Q 438.259 72.357 438.259 72.251 L 438.259 59.657 Q 438.259 59.551 438.364 59.551 L 440.175 59.551 Q 440.228 59.551 440.263 59.604 L 445.8 68.323 L 445.8 59.657 Q 445.8 59.551 445.905 59.551 L 447.821 59.551 Q 447.927 59.551 447.927 59.657 L 447.927 72.251 Q 447.927 72.357 447.821 72.357 L 446.02 72.357 Q 445.967 72.357 445.932 72.304 L 440.377 63.585 L 440.377 72.251 Q 440.377 72.357 440.28 72.357 Z" transform="matrix(1.310387, 0, 0, 1.310387, -59.698296, -1.169035)" style="fill: rgb(255, 255, 255);"/>
    <path d="M 426.152 119.118 Q 426.045 119.118 426.045 119.011 L 426.045 106.277 Q 426.045 106.17 426.152 106.17 L 434.292 106.17 Q 434.399 106.17 434.399 106.277 L 434.399 108.107 Q 434.399 108.214 434.292 108.214 L 428.187 108.214 L 428.187 111.626 L 433.377 111.626 Q 433.484 111.626 433.484 111.733 L 433.484 113.457 Q 433.484 113.555 433.377 113.555 L 428.187 113.555 L 428.187 117.092 L 434.292 117.092 Q 434.399 117.092 434.399 117.198 L 434.399 119.011 Q 434.399 119.118 434.292 119.118 Z M 442.568 119.118 Q 442.515 119.118 442.479 119.065 L 439.778 114.479 Q 439.102 115.634 438.427 116.772 Q 437.752 117.909 437.076 119.065 Q 437.041 119.118 436.987 119.118 L 434.81 119.118 Q 434.739 119.118 434.712 119.069 Q 434.686 119.02 434.721 118.958 L 438.587 112.48 Q 437.672 110.933 436.774 109.405 Q 435.876 107.876 434.97 106.33 Q 434.934 106.268 434.961 106.219 Q 434.988 106.17 435.05 106.17 L 437.236 106.17 Q 437.289 106.17 437.325 106.223 L 439.778 110.489 Q 440.391 109.422 441.004 108.361 Q 441.617 107.299 442.23 106.223 Q 442.266 106.17 442.319 106.17 L 444.505 106.17 Q 444.568 106.17 444.594 106.219 Q 444.621 106.268 444.585 106.33 L 440.969 112.48 Q 441.946 114.106 442.906 115.719 Q 443.866 117.332 444.843 118.958 Q 444.879 119.02 444.852 119.069 Q 444.825 119.118 444.754 119.118 Z M 448.149 108.214 L 448.149 112.106 L 450.913 112.106 Q 451.935 112.106 452.433 111.493 Q 452.939 110.898 452.939 110.16 Q 452.939 109.058 452.157 108.552 Q 451.651 108.214 450.842 108.214 Z M 446.114 119.118 Q 446.008 119.118 446.008 119.011 L 446.008 106.277 Q 446.008 106.17 446.114 106.17 L 450.735 106.17 Q 451.5 106.17 452.184 106.33 Q 452.877 106.49 453.659 107.094 Q 453.961 107.334 454.214 107.65 Q 454.468 107.965 454.672 108.347 Q 454.868 108.738 454.974 109.209 Q 455.081 109.68 455.081 110.213 Q 455.081 111.609 454.032 112.879 Q 452.984 114.141 450.984 114.141 L 448.149 114.141 L 448.149 119.011 Q 448.149 119.118 448.043 119.118 Z M 458.764 108.098 L 458.764 111.751 L 461.581 111.751 Q 462.612 111.751 463.127 111.182 Q 463.642 110.613 463.642 109.831 Q 463.642 109.387 463.487 109.04 Q 463.331 108.694 463.038 108.472 Q 462.78 108.294 462.438 108.196 Q 462.096 108.098 461.696 108.098 Z M 456.729 119.118 Q 456.622 119.118 456.622 119.011 L 456.622 106.277 Q 456.622 106.17 456.729 106.17 L 461.714 106.17 Q 462.541 106.17 463.207 106.397 Q 463.874 106.623 464.371 107.041 Q 464.629 107.281 464.864 107.587 Q 465.1 107.894 465.282 108.249 Q 465.464 108.605 465.571 109.005 Q 465.678 109.405 465.678 109.831 Q 465.678 110.462 465.5 111.027 Q 465.322 111.591 465.002 112.08 Q 464.673 112.533 464.238 112.875 Q 463.802 113.217 463.251 113.422 Q 463.971 114.799 464.7 116.19 Q 465.429 117.58 466.149 118.958 Q 466.175 119.02 466.149 119.069 Q 466.122 119.118 466.06 119.118 L 463.767 119.118 Q 463.74 119.118 463.714 119.096 Q 463.687 119.073 463.669 119.056 L 461.065 113.679 L 458.764 113.679 L 458.764 119.011 Q 458.764 119.118 458.657 119.118 Z M 467.66 119.118 Q 467.553 119.118 467.553 119.011 L 467.553 106.277 Q 467.553 106.17 467.66 106.17 L 475.8 106.17 Q 475.907 106.17 475.907 106.277 L 475.907 108.107 Q 475.907 108.214 475.8 108.214 L 469.695 108.214 L 469.695 111.626 L 474.885 111.626 Q 474.991 111.626 474.991 111.733 L 474.991 113.457 Q 474.991 113.555 474.885 113.555 L 469.695 113.555 L 469.695 117.092 L 475.8 117.092 Q 475.907 117.092 475.907 117.198 L 475.907 119.011 Q 475.907 119.118 475.8 119.118 Z M 477.682 115.848 Q 477.708 115.812 477.753 115.812 Q 477.797 115.812 477.833 115.839 Q 478.535 116.407 479.446 116.75 Q 480.357 117.092 481.37 117.092 Q 482.507 117.092 483.165 116.621 Q 483.787 116.167 483.787 115.421 Q 483.787 114.017 482.214 113.804 L 482.223 113.804 Q 482.001 113.777 481.801 113.75 Q 481.601 113.724 481.401 113.697 Q 481.201 113.67 480.992 113.639 Q 480.783 113.608 480.534 113.573 Q 479.699 113.457 479.046 113.15 Q 478.393 112.844 477.948 112.337 Q 477.504 111.822 477.282 111.213 Q 477.06 110.604 477.06 109.885 Q 477.06 108.196 478.179 107.139 Q 479.308 106.063 481.316 106.063 Q 481.912 106.063 482.476 106.165 Q 483.04 106.268 483.569 106.445 Q 484.098 106.623 484.582 106.868 Q 485.067 107.112 485.511 107.405 Q 485.6 107.467 485.538 107.556 L 484.462 109.147 Q 484.4 109.227 484.32 109.174 Q 483.627 108.738 482.845 108.476 Q 482.063 108.214 481.228 108.214 Q 480.801 108.214 480.437 108.316 Q 480.072 108.418 479.779 108.649 Q 479.201 109.067 479.201 109.92 Q 479.201 110.409 479.592 110.871 Q 479.788 111.084 480.117 111.231 Q 480.445 111.378 480.925 111.449 Q 481.183 111.493 481.53 111.542 Q 481.876 111.591 482.347 111.644 Q 484.169 111.866 485.049 112.986 Q 485.929 114.079 485.929 115.421 Q 485.929 117.216 484.676 118.229 Q 483.414 119.225 481.352 119.225 Q 478.446 119.225 476.411 117.447 Q 476.375 117.421 476.375 117.376 Q 476.375 117.332 476.402 117.296 Z M 487.949 115.848 Q 487.976 115.812 488.02 115.812 Q 488.065 115.812 488.1 115.839 Q 488.802 116.407 489.713 116.75 Q 490.624 117.092 491.637 117.092 Q 492.775 117.092 493.432 116.621 Q 494.054 116.167 494.054 115.421 Q 494.054 114.017 492.481 113.804 L 492.49 113.804 Q 492.268 113.777 492.068 113.75 Q 491.868 113.724 491.668 113.697 Q 491.468 113.67 491.259 113.639 Q 491.051 113.608 490.802 113.573 Q 489.966 113.457 489.313 113.15 Q 488.66 112.844 488.216 112.337 Q 487.771 111.822 487.549 111.213 Q 487.327 110.604 487.327 109.885 Q 487.327 108.196 488.447 107.139 Q 489.575 106.063 491.584 106.063 Q 492.179 106.063 492.743 106.165 Q 493.308 106.268 493.837 106.445 Q 494.365 106.623 494.85 106.868 Q 495.334 107.112 495.778 107.405 Q 495.867 107.467 495.805 107.556 L 494.73 109.147 Q 494.667 109.227 494.587 109.174 Q 493.894 108.738 493.112 108.476 Q 492.33 108.214 491.495 108.214 Q 491.068 108.214 490.704 108.316 Q 490.34 108.418 490.046 108.649 Q 489.469 109.067 489.469 109.92 Q 489.469 110.409 489.86 110.871 Q 490.055 111.084 490.384 111.231 Q 490.713 111.378 491.193 111.449 Q 491.45 111.493 491.797 111.542 Q 492.144 111.591 492.615 111.644 Q 494.436 111.866 495.316 112.986 Q 496.196 114.079 496.196 115.421 Q 496.196 117.216 494.943 118.229 Q 493.681 119.225 491.619 119.225 Q 488.713 119.225 486.678 117.447 Q 486.643 117.421 486.643 117.376 Q 486.643 117.332 486.669 117.296 Z M 500.203 119.118 Q 500.114 119.118 500.096 119.038 L 496.906 106.303 Q 496.888 106.25 496.923 106.21 Q 496.959 106.17 497.012 106.17 L 499.056 106.17 Q 499.145 106.17 499.163 106.25 L 501.082 114.95 Q 501.669 112.764 502.264 110.604 Q 502.86 108.445 503.455 106.25 Q 503.473 106.17 503.562 106.17 L 504.957 106.17 Q 505.037 106.17 505.055 106.25 L 507.436 114.95 Q 507.916 112.764 508.396 110.604 Q 508.876 108.445 509.356 106.25 Q 509.374 106.17 509.462 106.17 L 511.506 106.17 Q 511.56 106.17 511.595 106.21 Q 511.631 106.25 511.613 106.303 L 508.423 119.038 Q 508.405 119.118 508.316 119.118 L 506.708 119.118 Q 506.628 119.118 506.61 119.038 L 504.255 110.196 Q 503.668 112.426 503.082 114.621 Q 502.495 116.816 501.909 119.038 Q 501.891 119.118 501.811 119.118 Z M 511.528 119.109 Q 511.465 119.109 511.439 119.065 Q 511.412 119.02 511.43 118.967 L 516.086 106.223 Q 516.104 106.152 516.175 106.152 L 517.766 106.152 Q 517.793 106.152 517.824 106.174 Q 517.855 106.197 517.864 106.223 L 522.512 118.967 Q 522.529 119.02 522.503 119.065 Q 522.476 119.109 522.423 119.109 L 520.388 119.109 Q 520.317 119.109 520.299 119.038 L 519.339 116.23 L 514.647 116.23 Q 514.398 116.95 514.154 117.638 Q 513.909 118.327 513.66 119.038 Q 513.651 119.065 513.62 119.087 Q 513.589 119.109 513.563 119.109 Z M 518.699 114.319 Q 518.681 114.257 518.65 114.186 Q 518.619 114.115 518.601 114.061 Q 518.45 113.626 518.326 113.257 Q 518.201 112.888 518.104 112.613 Q 518.042 112.435 517.984 112.266 Q 517.926 112.097 517.873 111.946 Q 517.828 111.804 517.784 111.675 Q 517.739 111.546 517.695 111.422 Q 517.615 111.164 517.531 110.907 Q 517.446 110.649 517.357 110.373 Q 517.313 110.249 517.264 110.098 Q 517.215 109.947 517.162 109.778 Q 517.135 109.689 517.122 109.64 Q 517.108 109.591 517.091 109.542 Q 517.073 109.494 517.051 109.431 Q 517.028 109.369 516.993 109.254 Q 516.895 109.547 516.811 109.796 Q 516.726 110.045 516.655 110.258 Q 516.637 110.311 516.629 110.356 Q 516.62 110.4 516.602 110.444 Q 516.557 110.596 516.509 110.729 Q 516.46 110.862 516.415 110.995 Q 516.371 111.138 516.326 111.271 Q 516.282 111.404 516.238 111.529 Q 516.149 111.795 516.055 112.088 Q 515.962 112.382 515.847 112.702 Q 515.731 113.022 515.607 113.39 Q 515.482 113.759 515.287 114.319 Z M 525.494 119.118 Q 525.396 119.118 525.396 119.011 L 525.396 113.804 Q 524.436 111.929 523.486 110.062 Q 522.535 108.196 521.584 106.321 Q 521.557 106.259 521.584 106.214 Q 521.61 106.17 521.682 106.17 L 523.708 106.17 Q 523.734 106.17 523.761 106.192 Q 523.788 106.214 523.805 106.232 L 526.418 111.689 Q 527.076 110.311 527.72 108.96 Q 528.364 107.61 529.022 106.232 Q 529.04 106.214 529.066 106.192 Q 529.093 106.17 529.12 106.17 L 531.155 106.17 Q 531.226 106.17 531.253 106.214 Q 531.279 106.259 531.253 106.321 L 527.431 113.804 L 527.431 119.011 Q 527.431 119.118 527.325 119.118 Z" style="fill: rgb(255, 255, 255);"/>
    <text style="font-family: Giaothong1; font-size: 36.2px; letter-spacing: 0.6px; text-anchor: middle; word-spacing: -1.2px; white-space: pre; transform-box: fill-box; transform-origin: 18.0106px 21.0947px; visibility: hidden;" dy="0 0.154" dx="0 -1.229 1.246" y="190.631" x="410.359">100</text>
    <path d="M 343.12 84.558 Q 343.192 84.558 343.24 84.612 Q 343.288 84.666 343.264 84.738 Q 342.76 87.189 341.03 88.51 Q 340.189 89.147 339.204 89.471 Q 338.219 89.795 337.078 89.795 Q 335 89.795 333.583 88.798 Q 332.189 87.813 331.565 86.636 Q 331.349 86.228 331.192 85.813 Q 331.036 85.399 330.952 84.942 Q 330.796 84.054 330.796 80.906 Q 330.796 79.333 330.832 78.336 Q 330.868 77.339 330.952 76.883 Q 331.036 76.426 331.192 76.006 Q 331.349 75.585 331.565 75.177 Q 332.189 74.012 333.583 73.015 Q 334.988 72.006 337.078 72.006 Q 339.577 72.006 341.21 73.543 Q 342.868 75.093 343.264 77.219 Q 343.288 77.291 343.24 77.339 Q 343.192 77.387 343.12 77.387 L 340.369 77.387 Q 340.261 77.387 340.237 77.291 Q 340.081 76.81 339.793 76.396 Q 339.505 75.982 339.084 75.621 Q 338.291 74.913 337.078 74.913 Q 336.177 74.913 335.541 75.273 Q 334.904 75.633 334.52 76.102 Q 334.291 76.39 334.123 76.756 Q 333.955 77.123 333.859 77.507 Q 333.763 77.916 333.727 78.768 Q 333.691 79.621 333.691 80.906 Q 333.691 82.216 333.727 83.063 Q 333.763 83.909 333.859 84.318 Q 333.955 84.69 334.129 85.057 Q 334.303 85.423 334.52 85.699 Q 334.904 86.204 335.541 86.558 Q 336.177 86.912 337.078 86.912 Q 339.156 86.912 340.237 84.642 Q 340.261 84.618 340.297 84.588 Q 340.333 84.558 340.369 84.558 Z M 348.152 89.651 Q 348.008 89.651 348.008 89.507 L 348.008 74.756 L 343.431 74.756 Q 343.287 74.756 343.287 74.612 L 343.287 72.294 Q 343.287 72.15 343.431 72.15 L 355.467 72.15 Q 355.611 72.15 355.611 72.294 L 355.611 74.612 Q 355.611 74.756 355.467 74.756 L 350.903 74.756 L 350.903 89.507 Q 350.903 89.651 350.758 89.651 Z M 355.975 89.651 Q 355.831 89.651 355.831 89.507 L 355.831 87.068 Q 355.831 86.924 355.975 86.924 L 358.425 86.924 Q 358.557 86.924 358.557 87.068 L 358.557 89.507 Q 358.557 89.651 358.425 89.651 Z M 366.923 77.327 Q 366.923 76.162 366.304 75.507 Q 365.686 74.853 364.653 74.853 Q 363.62 74.853 363.007 75.507 Q 362.395 76.162 362.395 77.327 L 362.395 84.594 Q 362.395 85.771 363.007 86.42 Q 363.62 87.068 364.653 87.068 Q 365.686 87.068 366.304 86.42 Q 366.923 85.771 366.923 84.594 Z M 359.656 77.183 Q 359.656 74.756 361.181 73.447 Q 362.695 72.114 364.653 72.114 Q 365.626 72.114 366.497 72.456 Q 367.367 72.799 368.124 73.447 Q 368.881 74.12 369.271 75.051 Q 369.662 75.982 369.662 77.183 L 369.662 84.738 Q 369.662 87.153 368.124 88.474 Q 366.611 89.795 364.653 89.795 Q 362.695 89.795 361.181 88.474 Q 359.656 87.165 359.656 84.738 Z M 374.694 89.687 Q 374.55 89.687 374.55 89.543 L 374.55 75.273 Q 373.998 75.681 373.445 76.096 Q 372.893 76.51 372.34 76.907 Q 372.256 76.967 372.184 76.925 Q 372.112 76.883 372.112 76.786 L 372.112 74.18 Q 372.112 74.156 372.13 74.12 Q 372.148 74.084 372.172 74.06 L 374.646 72.27 L 377.157 72.27 Q 377.301 72.27 377.301 72.414 L 377.301 89.543 Q 377.301 89.687 377.157 89.687 Z"/>
  </g>
</svg>