<?xml version="1.0" encoding="utf-8"?>
<!-- Generator: Adobe Illustrator 18.1.1, SVG Export Plug-In . SVG Version: 6.00 Build 0)  -->
<svg version="1.1" id="Layer_1" xmlns="http://www.w3.org/2000/svg" xmlns:xlink="http://www.w3.org/1999/xlink" x="0px" y="0px"
	 viewBox="0 0 122 57" enable-background="new 0 0 122 57" xml:space="preserve">
<path fill="#FFFFFF" stroke="#000000" stroke-width="2" stroke-miterlimit="10" d="M119,56H3c-1.1,0-2-0.9-2-2V3c0-1.1,0.9-2,2-2
	h116c1.1,0,2,0.9,2,2v51C121,55.1,120.1,56,119,56z"/>
<g>
	<path d="M30.2,46.8c0,0-0.1,0.1-0.2,0.1s-0.1,0-0.2-0.1l-4.1-3.2c-1,0.8-2.2,1.5-3.5,2s-2.8,0.8-4.4,0.8c-2.7,0-5-0.6-6.8-1.9
		c-1.8-1.3-3.1-2.7-3.9-4.2h0c-0.3-0.5-0.5-1.1-0.7-1.6s-0.4-1.1-0.5-1.7c-0.2-1.2-0.3-3.9-0.3-7.9c0-2,0-3.7,0.1-5s0.1-2.2,0.2-2.8
		s0.3-1.2,0.5-1.7s0.4-1.1,0.7-1.6h0c0.4-0.8,0.9-1.5,1.6-2.2c0.7-0.7,1.4-1.4,2.3-2c1.8-1.3,4.1-2,6.8-2s5,0.7,6.8,2
		c1.8,1.3,3.1,2.7,4,4.2c0.3,0.5,0.5,1.1,0.7,1.6s0.4,1.1,0.5,1.7s0.2,1.5,0.2,2.8s0.1,3,0.1,5c0,3.7-0.1,6.1-0.3,7.4
		c-0.1,0.6-0.2,1.1-0.3,1.7s-0.3,1-0.6,1.4c0.7,0.5,1.4,1.1,2.1,1.7s1.4,1.2,2.1,1.7c0.1,0,0.1,0.1,0.1,0.2s0,0.1-0.1,0.2L30.2,46.8
		z M17.1,36.7c-0.1,0-0.1-0.1-0.1-0.2s0-0.1,0.1-0.2l3-3.5c0.1-0.1,0.3-0.1,0.4,0l3.6,2.8c0.1-0.6,0.2-1.4,0.3-2.5s0.1-2.4,0.1-4
		c0-1.7,0-3.1-0.1-4.2s-0.2-1.9-0.3-2.4c-0.1-0.5-0.3-1-0.5-1.5S23,20,22.7,19.7c-0.2-0.3-0.5-0.6-0.9-0.9s-0.7-0.5-1.1-0.7
		s-0.9-0.4-1.4-0.5s-1-0.2-1.6-0.2c-1.2,0-2.2,0.2-3,0.7s-1.5,1-2,1.6c-0.3,0.4-0.6,0.8-0.8,1.3s-0.4,1-0.5,1.5
		c-0.2,1.1-0.4,3.3-0.4,6.6c0,3.4,0.1,5.6,0.4,6.7c0.1,0.5,0.3,1,0.5,1.4s0.5,0.9,0.8,1.3c0.5,0.7,1.1,1.2,2,1.7s1.8,0.7,3,0.7
		c1.3,0,2.4-0.3,3.3-0.9L17.1,36.7z"/>
	<path d="M37.1,46.1c-0.2,0-0.3-0.1-0.3-0.3V12.2c0-0.2,0.1-0.3,0.3-0.3h5.1c0.2,0,0.3,0.1,0.3,0.3v28.5h16.1c0.2,0,0.3,0.1,0.3,0.3
		v4.8c0,0.2-0.1,0.3-0.3,0.3H37.1z"/>
	<path d="M63.4,46.1c-0.2,0-0.3-0.1-0.3-0.3v-4.8c0-0.2,0.1-0.3,0.3-0.3h4.8c0.2,0,0.3,0.1,0.3,0.3v4.8c0,0.2-0.1,0.3-0.3,0.3H63.4z
		"/>
	<path d="M74.1,30.8c-0.2,0-0.3-0.1-0.3-0.3v-18c0-0.2,0.1-0.3,0.3-0.3h17.8c0.2,0,0.3,0.1,0.3,0.3v4.8c0,0.2-0.1,0.3-0.3,0.3h-13
		v6.7c1.5-1.1,3.2-1.6,5.1-1.6c0.7,0,1.3,0.1,1.9,0.2s1.2,0.3,1.7,0.6c0.5,0.3,1,0.5,1.4,0.8c0.4,0.3,0.8,0.6,1.1,0.9
		c0.5,0.5,0.9,1,1.2,1.6s0.6,1.2,0.8,1.7c0.5,1.2,0.7,3.2,0.7,6c0,1.1,0,2.1-0.1,3s-0.2,1.6-0.4,2.1l0,0c-0.3,1.1-0.9,2.1-1.6,3.1
		c-0.7,0.9-1.7,1.7-3,2.5c-1.3,0.8-2.8,1.2-4.5,1.2c-2.2,0-4.3-0.7-6.4-2c-2.1-1.4-3.3-3.7-3.7-6.9c0-0.1,0-0.1,0.1-0.2
		s0.1-0.1,0.2-0.1h4.8c0.2,0,0.3,0.1,0.3,0.2c0.5,2.5,2,3.7,4.5,3.7c2.2,0,3.5-0.7,3.8-2.2c0.4-1.6,0.6-3.2,0.6-4.7
		c0-0.9-0.1-1.7-0.2-2.5s-0.4-1.4-0.7-2C86,28.6,84.8,28,82.9,28c-1.7,0-3.1,0.9-4.1,2.6c-0.1,0.1-0.1,0.1-0.2,0.1H74.1z"/>
	<path d="M96.8,21.8c0-1.6,0.3-3,0.8-4.2s1.2-2.3,2.2-3.2c0.9-0.8,1.9-1.4,3-1.9s2.3-0.7,3.5-0.7c2.2,0,4.2,0.7,6,2
		c1.7,1.3,2.8,3.3,3.3,5.8c0,0.1,0,0.2,0,0.2s-0.1,0.1-0.2,0.1h-4.8c-0.1,0-0.2-0.1-0.3-0.2c-0.7-1.7-2-2.6-4-2.6
		c-2.8,0.1-4.2,1.7-4.2,4.9v2.8c1-0.3,2-0.5,3-0.7s2-0.3,2.9-0.2c2.2,0,4.1,0.8,5.6,2.3c1.5,1.6,2.2,4,2.2,7.3v3
		c0,3.2-1,5.6-2.9,7.3c-1.8,1.7-4,2.5-6.6,2.6c-2.6-0.1-4.8-0.9-6.5-2.6c-2-1.7-3-4.2-3-7.3V21.8z M102,36.3c0,3.2,1.4,4.8,4.3,4.9
		c2.8,0,4.2-1.6,4.3-4.9v-2.7c-0.1-3.2-1.6-4.8-4.3-4.9c-2.8,0.1-4.3,1.7-4.3,4.9V36.3z"/>
</g>
</svg>
