<?xml version="1.0" encoding="utf-8"?>
<!-- Generator: Adobe Illustrator 21.0.0, SVG Export Plug-In . SVG Version: 6.00 Build 0)  -->
<svg version="1.1" id="Layer_1" xmlns="http://www.w3.org/2000/svg" xmlns:xlink="http://www.w3.org/1999/xlink" x="0px" y="0px"
	 viewBox="0 0 122 57" style="enable-background:new 0 0 122 57;" xml:space="preserve">
<style type="text/css">
	.st0{fill:#FFFFFF;stroke:#000000;stroke-width:2;stroke-miterlimit:10;}
	.st1{enable-background:new    ;}
</style>
<path class="st0" d="M119,56H3c-1.1,0-2-0.9-2-2V3c0-1.1,0.9-2,2-2h116c1.1,0,2,0.9,2,2v51C121,55.1,120.1,56,119,56z"/>
<g class="st1">
	<path d="M29.4,44.6c-1.2,0.8-2.8,1.1-4.8,1.1c-7,0-10-5.4-10-17.3s3.1-17.3,10-17.3c7,0,10,5.4,10,17.3c0,6.2-1,10.8-2.4,13.2
		l3.1,3.6l-2.9,2.8L29.4,44.6z M26.9,35.9l2,2.2c0.7-2,1-5.1,1-9.8c0-11.2-2.3-13.1-5.2-13.1c-2.9,0-5.2,2-5.2,13.1
		c0,11.5,2.3,13.4,5.2,13.4c0.6,0,1.2-0.1,1.7-0.3L24.1,39L26.9,35.9z"/>
	<path d="M38.4,11.8h4.8v28.8H55v4.5H38.4V11.8z"/>
	<path d="M58,39h4.8v6.2H58V39z"/>
	<path d="M66.6,35.9c0-4.9,2.2-7.6,5.1-8.2v-0.1c-2.6-1-4.2-3.2-4.2-7.1c0-5.1,3.1-8.3,8.1-8.3c5,0,8.1,3.2,8.1,8.3
		c0,4-1.6,6.2-4.2,7.1v0.1c3,0.7,5.1,3.4,5.1,8.2c0,6.5-2.9,9.9-9.1,9.9C69.5,45.8,66.6,42.4,66.6,35.9z M75.7,42
		c3.4,0,4.2-2.8,4.2-6.2c0-3.5-0.8-6.2-4.2-6.2c-3.4,0-4.2,2.8-4.2,6.2C71.4,39.2,72.3,42,75.7,42z M75.7,25.8c3,0,3.8-2.4,3.8-5
		c0-2.6-0.8-4.9-3.8-4.9s-3.8,2.3-3.8,4.9C71.9,23.4,72.7,25.8,75.7,25.8z"/>
	<path d="M88.4,11.8h9.8c4.5,0,8.1,2.2,8.1,8.1c0,4.1-1.4,6.5-4.5,7.5v0.1c3.3,0.7,5.4,2.8,5.4,8.5c0,5.5-3.6,9.1-9.3,9.1h-9.6V11.8
		z M97,25.9c2.9,0,4.5-2.1,4.5-5.3c0-4-2.2-4.8-4.9-4.8h-3.4v10H97z M98,41.1c2.9,0,4.5-2.1,4.5-5.9c0-3.6-2-5.6-4.8-5.6h-4.5v11.5
		H98z"/>
</g>
</svg>
