<?xml version="1.0" encoding="UTF-8" standalone="no"?>
<svg
   xmlns:dc="http://purl.org/dc/elements/1.1/"
   xmlns:cc="http://creativecommons.org/ns#"
   xmlns:rdf="http://www.w3.org/1999/02/22-rdf-syntax-ns#"
   xmlns:svg="http://www.w3.org/2000/svg"
   xmlns="http://www.w3.org/2000/svg"
   xmlns:sodipodi="http://sodipodi.sourceforge.net/DTD/sodipodi-0.dtd"
   xmlns:inkscape="http://www.inkscape.org/namespaces/inkscape"
   sodipodi:docname="Vietnam_road_sign_IE466.svg"
   inkscape:version="1.0 (4035a4fb49, 2020-05-01)"
   id="svg9491"
   version="1.1"
   viewBox="0 0 513.06678 200"
   height="200mm"
   width="513.06677mm">
  <defs
     id="defs9485">
    <clipPath
       id="clipPath2832">
      <path
         inkscape:connector-curvature="0"
         id="path2834"
         d="M -0.24,595.138 H 317.24 V -0.138 H -0.24 Z" />
    </clipPath>
    <clipPath
       id="clipPath2840">
      <path
         inkscape:connector-curvature="0"
         id="path2842"
         d="M 0.03,595.32 H 317.49 V 0 H 0.03 Z" />
    </clipPath>
    <clipPath
       id="clipPath2858">
      <path
         inkscape:connector-curvature="0"
         id="path2860"
         d="M -0.24,595.138 H 317.24 V -0.138 H -0.24 Z" />
    </clipPath>
    <clipPath
       id="clipPath2864">
      <path
         inkscape:connector-curvature="0"
         id="path2866"
         d="M 0.03,595.32 H 317.49 V 0 H 0.03 Z" />
    </clipPath>
    <clipPath
       id="clipPath3306">
      <path
         inkscape:connector-curvature="0"
         id="path3308"
         d="m 199.238,472.977 v -29.74 h 29.744 v 29.74" />
    </clipPath>
    <clipPath
       id="clipPath3322">
      <path
         inkscape:connector-curvature="0"
         id="path3324"
         d="M -0.24,595.138 H 317.24 V -0.138 H -0.24 Z" />
    </clipPath>
    <clipPath
       id="clipPath3330">
      <path
         inkscape:connector-curvature="0"
         id="path3332"
         d="M 0.03,595.32 H 317.49 V 0 H 0.03 Z" />
    </clipPath>
    <clipPath
       id="clipPath3344">
      <path
         inkscape:connector-curvature="0"
         id="path3346"
         d="m 88.233,387.221 v -28.335 h 32.08 v 28.335" />
    </clipPath>
    <clipPath
       id="clipPath3462">
      <path
         inkscape:connector-curvature="0"
         id="path3464"
         d="M -0.24,595.138 H 317.24 V -0.138 H -0.24 Z" />
    </clipPath>
    <clipPath
       id="clipPath3470">
      <path
         inkscape:connector-curvature="0"
         id="path3472"
         d="M 0.03,595.32 H 317.49 V 0 H 0.03 Z" />
    </clipPath>
    <clipPath
       id="clipPath3490">
      <path
         inkscape:connector-curvature="0"
         id="path3492"
         d="M -0.24,595.138 H 317.24 V -0.138 H -0.24 Z" />
    </clipPath>
    <clipPath
       id="clipPath3496">
      <path
         inkscape:connector-curvature="0"
         id="path3498"
         d="M 0.03,595.32 H 317.49 V 0 H 0.03 Z" />
    </clipPath>
    <clipPath
       id="clipPath3520">
      <path
         inkscape:connector-curvature="0"
         id="path3522"
         d="m 254.788,326.215 v -28.309 h 28.326 v 28.309" />
    </clipPath>
    <clipPath
       id="clipPath3544">
      <path
         inkscape:connector-curvature="0"
         id="path3546"
         d="m 145.049,326.142 v -28.333 h 28.342 v 28.333" />
    </clipPath>
    <clipPath
       id="clipPath3682">
      <path
         inkscape:connector-curvature="0"
         id="path3684"
         d="M -0.24,595.138 H 317.24 V -0.138 H -0.24 Z" />
    </clipPath>
    <clipPath
       id="clipPath3690">
      <path
         inkscape:connector-curvature="0"
         id="path3692"
         d="M 0.03,595.32 H 317.49 V 0 H 0.03 Z" />
    </clipPath>
    <clipPath
       id="clipPath3980">
      <path
         inkscape:connector-curvature="0"
         id="path3982"
         d="M -0.24,595.138 H 317.24 V -0.138 H -0.24 Z" />
    </clipPath>
    <clipPath
       id="clipPath3988">
      <path
         inkscape:connector-curvature="0"
         id="path3990"
         d="M 0.03,595.32 H 317.49 V 0 H 0.03 Z" />
    </clipPath>
    <clipPath
       id="clipPath4010">
      <path
         inkscape:connector-curvature="0"
         id="path4012"
         d="M -0.24,595.138 H 317.24 V -0.138 H -0.24 Z" />
    </clipPath>
    <clipPath
       id="clipPath4016">
      <path
         inkscape:connector-curvature="0"
         id="path4018"
         d="M 0.03,595.32 H 317.49 V 0 H 0.03 Z" />
    </clipPath>
    <clipPath
       id="clipPath4062">
      <path
         inkscape:connector-curvature="0"
         id="path4064"
         d="m 200.163,177.773 v -28.284 h 28.283 v 28.284" />
    </clipPath>
    <clipPath
       id="clipPath4090">
      <path
         inkscape:connector-curvature="0"
         id="path4092"
         d="m 34.886,177.515 v -51.632 h 30.367 v 51.632" />
    </clipPath>
    <clipPath
       id="clipPath4106">
      <path
         inkscape:connector-curvature="0"
         id="path4108"
         d="m 34.886,177.515 v -51.632 h 30.367 v 51.632" />
    </clipPath>
    <clipPath
       id="clipPath4272">
      <path
         inkscape:connector-curvature="0"
         id="path4274"
         d="m 34.886,177.515 v -51.632 h 30.367 v 51.632" />
    </clipPath>
    <clipPath
       id="clipPath4304">
      <path
         inkscape:connector-curvature="0"
         id="path4306"
         d="m 254.653,176.442 v -48.167 h 28.317 v 48.167" />
    </clipPath>
    <clipPath
       id="clipPath4310">
      <path
         inkscape:connector-curvature="0"
         id="path4312"
         d="m 253.565,177.983 h 31.181 V 128.8 h -31.181 z" />
    </clipPath>
    <clipPath
       id="clipPath4316">
      <path
         inkscape:connector-curvature="0"
         id="path4318"
         d="M -0.24,595.138 H 317.24 V -0.138 H -0.24 Z" />
    </clipPath>
    <clipPath
       id="clipPath4322">
      <path
         inkscape:connector-curvature="0"
         id="path4324"
         d="M 0.03,595.32 H 317.49 V 0 H 0.03 Z" />
    </clipPath>
    <clipPath
       id="clipPath4456">
      <path
         inkscape:connector-curvature="0"
         id="path4458"
         d="M -0.24,595.138 H 317.24 V -0.138 H -0.24 Z" />
    </clipPath>
    <clipPath
       id="clipPath4464">
      <path
         inkscape:connector-curvature="0"
         id="path4466"
         d="M 0.03,595.32 H 317.49 V 0 H 0.03 Z" />
    </clipPath>
  </defs>
  <sodipodi:namedview
     inkscape:document-rotation="0"
     inkscape:measure-end="0,0"
     inkscape:measure-start="0,0"
     inkscape:window-maximized="1"
     inkscape:window-y="-9"
     inkscape:window-x="-9"
     inkscape:window-height="1001"
     inkscape:window-width="1920"
     showgrid="false"
     inkscape:current-layer="layer1"
     inkscape:document-units="mm"
     inkscape:cy="388.36366"
     inkscape:cx="229.94886"
     inkscape:zoom="0.37464504"
     inkscape:pageshadow="2"
     inkscape:pageopacity="0.0"
     borderopacity="1.0"
     bordercolor="#666666"
     pagecolor="#ffffff"
     id="base" />
  <metadata
     id="metadata9488">
    <rdf:RDF>
      <cc:Work
         rdf:about="">
        <dc:format>image/svg+xml</dc:format>
        <dc:type
           rdf:resource="http://purl.org/dc/dcmitype/StillImage" />
        <dc:title></dc:title>
      </cc:Work>
    </rdf:RDF>
  </metadata>
  <g
     transform="translate(-351.82621,-437.33702)"
     id="layer1"
     inkscape:groupmode="layer"
     inkscape:label="Layer 1">
    <g
       transform="matrix(1.6550836,0,0,1.6550836,-321.31659,-238.56049)"
       style="font-size:31.1478px;line-height:1.3;font-family:'Singapore Road Signs';-inkscape-font-specification:'Singapore Road Signs';text-align:center;text-anchor:middle;stroke-width:0.159861"
       id="text19759"
       aria-label="6" />
    <path
       id="rect15575"
       style="opacity:1;fill:#0a9646;fill-opacity:1;fill-rule:evenodd;stroke-width:0.0420692;stroke-linecap:square;stroke-miterlimit:10;paint-order:stroke fill markers"
       d="m 351.82621,437.33702 v 200 h 513.0668 v -200 z"
       sodipodi:nodetypes="ccccc" />
    <path
       id="path15582"
       style="color:#000000;font-style:normal;font-variant:normal;font-weight:normal;font-stretch:normal;font-size:medium;line-height:normal;font-family:sans-serif;font-variant-ligatures:normal;font-variant-position:normal;font-variant-caps:normal;font-variant-numeric:normal;font-variant-alternates:normal;font-variant-east-asian:normal;font-feature-settings:normal;font-variation-settings:normal;text-indent:0;text-align:start;text-decoration:none;text-decoration-line:none;text-decoration-style:solid;text-decoration-color:#000000;letter-spacing:normal;word-spacing:normal;text-transform:none;writing-mode:lr-tb;direction:ltr;text-orientation:mixed;dominant-baseline:auto;baseline-shift:baseline;text-anchor:start;white-space:normal;shape-padding:0;shape-margin:0;inline-size:0;clip-rule:nonzero;display:inline;overflow:visible;visibility:visible;opacity:1;isolation:auto;mix-blend-mode:normal;color-interpolation:sRGB;color-interpolation-filters:linearRGB;solid-color:#000000;solid-opacity:1;vector-effect:none;fill:#ffffff;fill-opacity:1;fill-rule:evenodd;stroke:none;stroke-width:0.553499;stroke-linecap:square;stroke-linejoin:miter;stroke-miterlimit:10;stroke-dasharray:none;stroke-dashoffset:0;stroke-opacity:1;paint-order:stroke fill markers;color-rendering:auto;image-rendering:auto;shape-rendering:auto;text-rendering:auto;enable-background:accumulate;stop-color:#000000;stop-opacity:1"
       d="m 364.26141,439.38954 c -5.65724,0 -10.27566,4.6162 -10.27566,10.2738 v 74.97742 19.30444 20.09315 5.68994 55.17349 c 0,5.65727 4.61842,10.27002 10.27566,10.27002 h 488.18892 c 5.65719,0 10.26391,-4.61275 10.27376,-10.27002 v -55.17349 -5.54157 -23.6085 -15.93746 -74.97742 c 0,-5.6576 -4.61657,-10.2738 -10.27376,-10.2738 z m 0,3.87028 v 0.003 h 488.18892 c 3.58061,0 6.40265,2.82128 6.40727,6.40164 v 74.97745 15.93747 l -0.0182,0.38493 v 2.95199 l 0.004,16.71864 v 3.11163 l 0.0182,0.4413 v 5.54157 55.17349 c 0,2.24371 -1.1107,4.1878 -2.82051,5.3275 -1.02131,0.69065 -2.25389,1.09478 -3.58487,1.09478 H 364.23139 c -3.54028,0 -6.39041,-2.85017 -6.39041,-6.39034 v -64.29993 l 7e-5,-16.71864 v -94.22553 c 0,-0.68001 0.10466,-1.3331 0.29871,-1.94737 0.007,-0.0218 0.0145,-0.0374 0.0182,-0.0545 0.81813,-2.59001 3.21406,-4.428 6.10304,-4.428 z"
       sodipodi:nodetypes="ssccccssssccccsssccssccccccccscsssccscccc" />
    <path
       d="m 458.38585,462.73007 h 82.0144 v 37.47134 h -82.0144 z"
       style="font-size:15.1831px;line-height:1.46;font-family:'Singapore Road Signs';-inkscape-font-specification:'Singapore Road Signs';text-align:center;text-anchor:middle;opacity:1;fill:#ffd70f;fill-opacity:1;fill-rule:evenodd;stroke:none;stroke-width:0.553506;stroke-linecap:square;stroke-miterlimit:10;stroke-dasharray:none;stroke-opacity:1;paint-order:stroke fill markers"
       id="path2220-5" />
    <path
       id="path2222-4"
       d="m 461.16355,463.49257 c -1.09253,0 -1.98584,0.88914 -1.98584,1.98163 v 31.98305 c 0,1.09252 0.89331,1.98166 1.98584,1.98166 h 76.4885 c 1.09249,0 1.98577,-0.88914 1.98577,-1.98166 V 465.4742 c 0,-1.09249 -0.89332,-1.98163 -1.98577,-1.98163 z m 0,0.7206 h 76.4885 c 0.70395,0 1.26099,0.55708 1.26099,1.26103 v 31.98305 c 0,0.70395 -0.55693,1.25689 -1.26099,1.25689 h -76.4885 c -0.70395,0 -1.26103,-0.55297 -1.26103,-1.25689 V 465.4742 c 0,-0.70395 0.55697,-1.26103 1.26103,-1.26103 z"
       style="color:#000000;font-style:normal;font-variant:normal;font-weight:normal;font-stretch:normal;font-size:medium;line-height:normal;font-family:sans-serif;-inkscape-font-specification:'Singapore Road Signs';font-variant-ligatures:normal;font-variant-position:normal;font-variant-caps:normal;font-variant-numeric:normal;font-variant-alternates:normal;font-variant-east-asian:normal;font-feature-settings:normal;font-variation-settings:normal;text-indent:0;text-align:start;text-decoration:none;text-decoration-line:none;text-decoration-style:solid;text-decoration-color:#000000;letter-spacing:normal;word-spacing:normal;text-transform:none;writing-mode:lr-tb;direction:ltr;text-orientation:mixed;dominant-baseline:auto;baseline-shift:baseline;text-anchor:start;white-space:normal;shape-padding:0;shape-margin:0;inline-size:0;clip-rule:nonzero;display:inline;overflow:visible;visibility:visible;opacity:1;isolation:auto;mix-blend-mode:normal;color-interpolation:sRGB;color-interpolation-filters:linearRGB;solid-color:#000000;solid-opacity:1;vector-effect:none;fill:#000000;fill-opacity:1;fill-rule:evenodd;stroke:none;stroke-width:0.119061;stroke-linecap:square;stroke-linejoin:miter;stroke-miterlimit:10;stroke-dasharray:none;stroke-dashoffset:0;stroke-opacity:1;paint-order:stroke fill markers;color-rendering:auto;image-rendering:auto;shape-rendering:auto;text-rendering:auto;enable-background:accumulate;stop-color:#000000;stop-opacity:1" />
    <path
       d="m 475.5838,469.48053 c -1.8446,0 -3.38784,0.4449 -4.62823,1.33538 -1.22982,0.87998 -2.11957,1.83413 -2.67087,2.86252 -0.19114,0.36048 -0.35539,0.72554 -0.4929,1.0966 -0.13809,0.37106 -0.24347,0.75974 -0.31688,1.16263 -0.0745,0.40289 -0.12827,1.04303 -0.16025,1.92301 -0.0254,0.87991 -0.0487,2.01412 -0.0487,3.40296 0,2.77767 0.069,4.55711 0.20713,5.34163 0.0745,0.40292 0.17951,0.79157 0.31687,1.16263 0.13809,0.36048 0.30234,0.72049 0.49287,1.08093 0.55155,1.03897 1.44105,1.99319 2.67083,2.86249 1.25104,0.87998 2.79413,1.31972 4.62826,1.31972 1.00721,0 1.9461,-0.14463 2.81543,-0.43051 0.86934,-0.28635 1.67417,-0.70755 2.41628,-1.26943 1.52663,-1.16618 2.51156,-2.83327 2.95682,-4.99601 0.0218,-0.0632 0.0109,-0.11483 -0.0254,-0.15735 -0.0433,-0.053 -0.0938,-0.0785 -0.15699,-0.0785 h -3.64177 c -0.0327,4e-5 -0.0654,0.0145 -0.0974,0.0469 -0.0327,0.0218 -0.0607,0.0411 -0.0785,0.0625 -0.95408,2.00373 -2.34815,3.00701 -4.18224,3.00701 -0.7951,0 -1.47416,-0.15481 -2.0361,-0.46187 -0.56169,-0.31797 -1.01179,-0.70167 -1.35097,-1.14693 -0.19078,-0.24383 -0.36521,-0.52401 -0.52481,-0.84208 -0.14826,-0.3285 -0.26418,-0.65799 -0.34885,-0.98664 -0.0847,-0.36048 -0.14463,-0.91068 -0.17588,-1.6528 -0.0254,-0.75268 -0.0487,-1.70691 -0.0487,-2.86248 0,-1.13439 0.0109,-2.0784 0.0487,-2.83113 0.0254,-0.75272 0.0916,-1.30802 0.17588,-1.66846 0.0847,-0.33941 0.20022,-0.66856 0.34885,-0.98664 0.14826,-0.32886 0.32342,-0.6191 0.52481,-0.87355 0.3394,-0.41346 0.78917,-0.78168 1.35097,-1.09972 0.56183,-0.31797 1.241,-0.47444 2.0361,-0.47444 1.07083,3e-5 1.95543,0.31106 2.65517,0.93638 0.37113,0.31796 0.68506,0.66275 0.93951,1.03373 0.25437,0.36048 0.45013,0.75432 0.58734,1.17836 0.0218,0.0847 0.0807,0.12537 0.17588,0.12537 h 3.64177 c 0.0629,0 0.11484,-0.0218 0.15699,-0.0625 0.0432,-0.0429 0.0545,-0.097 0.0327,-0.16026 -0.34958,-1.87646 -1.25496,-3.49641 -2.718,-4.86406 -1.44178,-1.35701 -3.26526,-2.03611 -5.47053,-2.03611 z m 37.354,0.14136 c -1.72802,0 -3.26113,0.58905 -4.59694,1.76588 -1.34643,1.15558 -2.02033,2.8042 -2.02033,4.94573 v 10.00151 c 0,2.14152 0.6739,3.79018 2.02033,4.94575 1.33581,1.16619 2.86892,1.75019 4.59694,1.75019 1.72809,0 3.26123,-0.58396 4.59705,-1.75019 1.35696,-1.16618 2.0329,-2.81477 2.0329,-4.94575 V 476.3335 c 0,-1.06012 -0.17479,-1.99901 -0.5248,-2.81536 -0.33905,-0.82696 -0.8403,-1.53666 -1.50814,-2.13037 -0.66798,-0.57248 -1.39105,-1.00716 -2.16496,-1.30402 -0.76334,-0.30742 -1.57336,-0.4619 -2.43213,-0.4619 z m -28.44909,0.0469 c -0.12718,0 -0.1915,0.0643 -0.1915,0.19187 v 3.06988 c 0,0.12718 0.0643,0.1915 0.1915,0.1915 h 6.05806 v 19.52855 c 0,0.12718 0.0643,0.1886 0.1915,0.1886 h 3.45016 c 0.12719,0 0.1915,-0.0614 0.1915,-0.1886 v -19.52851 h 6.04225 c 0.12719,0 0.19151,-0.0643 0.19151,-0.19151 v -3.06991 c 0,-0.12718 -0.0643,-0.19187 -0.19151,-0.19187 z m 42.05785,0.16026 -3.27737,2.36918 c -0.0218,0.0218 -0.0432,0.0465 -0.0625,0.0785 -0.0109,0.0327 -0.0218,0.06 -0.0218,0.0818 v 3.45008 c 0,0.085 0.0378,0.14936 0.0978,0.19151 0.0625,0.0327 0.133,0.0218 0.20713,-0.0327 0.48745,-0.34995 0.97356,-0.70472 1.46115,-1.06521 0.48745,-0.37102 0.97661,-0.73927 1.4642,-1.09972 v 18.89385 c 0,0.12719 0.0651,0.19151 0.19151,0.19151 h 3.25843 c 0.12719,0 0.18896,-0.0643 0.18896,-0.19151 v -22.67705 c 0,-0.12719 -0.061,-0.19151 -0.18896,-0.19151 z m -13.60876,3.41865 c 0.91178,0 1.63692,0.29362 2.1775,0.87668 0.55155,0.57248 0.82645,1.37226 0.82645,2.40062 v 9.62129 c 0,1.03897 -0.27545,1.84384 -0.82645,2.41632 -0.54047,0.57252 -1.26572,0.85782 -2.1775,0.85782 -0.91171,0 -1.63674,-0.28526 -2.17743,-0.85782 -0.54047,-0.57252 -0.81388,-1.37735 -0.81388,-2.41632 V 476.525 c 0,-1.02835 0.27254,-1.82813 0.81388,-2.40062 0.54051,-0.58309 1.26572,-0.87667 2.17743,-0.87667 z m -13.4484,15.98107 c -0.12719,0 -0.19151,0.0643 -0.19151,0.19187 v 3.23013 c 0,0.12719 0.0643,0.1886 0.19151,0.1886 h 3.24273 c 0.11702,0 0.17588,-0.0614 0.17588,-0.1886 v -3.23013 c 0,-0.12718 -0.0607,-0.19187 -0.17588,-0.19187 z"
       style="font-style:normal;font-variant:normal;font-weight:normal;font-stretch:normal;font-size:15.1831px;line-height:1.46;font-family:'Alte DIN 1451 Mittelschrift gepraegt';-inkscape-font-specification:'Alte DIN 1451 Mittelschrift gepraegt';text-align:center;text-anchor:middle;opacity:1;fill:#000000;fill-opacity:1;stroke-width:0.264583"
       id="path2224-6" />
    <path
       id="path14336"
       style="opacity:1;fill:#ffffff;fill-opacity:1;fill-rule:evenodd;stroke:none;stroke-width:0.553506;stroke-linecap:square;stroke-miterlimit:10;stroke-dasharray:none;stroke-opacity:1;paint-order:stroke fill markers"
       d="m 682.964,462.68098 h 81.64233 v 37.30127 H 682.964 Z" />
    <path
       style="color:#000000;font-style:normal;font-variant:normal;font-weight:normal;font-stretch:normal;font-size:medium;line-height:normal;font-family:sans-serif;font-variant-ligatures:normal;font-variant-position:normal;font-variant-caps:normal;font-variant-numeric:normal;font-variant-alternates:normal;font-variant-east-asian:normal;font-feature-settings:normal;font-variation-settings:normal;text-indent:0;text-align:start;text-decoration:none;text-decoration-line:none;text-decoration-style:solid;text-decoration-color:#000000;letter-spacing:normal;word-spacing:normal;text-transform:none;writing-mode:lr-tb;direction:ltr;text-orientation:mixed;dominant-baseline:auto;baseline-shift:baseline;text-anchor:start;white-space:normal;shape-padding:0;shape-margin:0;inline-size:0;clip-rule:nonzero;display:inline;overflow:visible;visibility:visible;opacity:1;isolation:auto;mix-blend-mode:normal;color-interpolation:sRGB;color-interpolation-filters:linearRGB;solid-color:#000000;solid-opacity:1;vector-effect:none;fill:#000000;fill-opacity:1;fill-rule:evenodd;stroke:none;stroke-width:0.119062;stroke-linecap:square;stroke-linejoin:miter;stroke-miterlimit:10;stroke-dasharray:none;stroke-dashoffset:0;stroke-opacity:1;paint-order:stroke fill markers;color-rendering:auto;image-rendering:auto;shape-rendering:auto;text-rendering:auto;enable-background:accumulate;stop-color:#000000;stop-opacity:1"
       d="m 685.72907,463.43999 c -1.08755,0 -1.97684,0.88514 -1.97684,1.97269 v 31.83787 c 0,1.08755 0.88929,1.97266 1.97684,1.97266 h 76.14142 c 1.08766,0 1.97687,-0.88511 1.97687,-1.97266 v -31.83787 c 0,-1.08755 -0.88929,-1.97269 -1.97687,-1.97269 z m 0,0.71737 h 76.14142 c 0.70079,0 1.25532,0.55446 1.25532,1.25532 v 31.83787 c 0,0.70072 -0.55445,1.25118 -1.25532,1.25118 h -76.14142 c -0.70073,0 -1.25533,-0.55053 -1.25533,-1.25118 v -31.83787 c 0,-0.70079 0.55446,-1.25532 1.25533,-1.25532 z"
       id="path14338" />
    <path
       d="m 729.1606,470.07823 c -1.48165,0 -2.7361,0.62794 -3.76569,1.88581 -1.00455,1.24776 -1.50748,2.77084 -1.50748,4.56638 0,0.94346 0.15662,1.76359 0.46651,2.46363 0.30998,0.69992 0.71821,1.33974 1.2288,1.918 -0.66136,0.58836 -1.16422,1.28839 -1.50748,2.09988 -0.33504,0.81155 -0.50169,1.74132 -0.50169,2.78621 0,1.968 0.5522,3.57829 1.65705,4.83616 1.0882,1.22749 2.39804,1.8418 3.9299,1.8418 0.75342,0 1.4621,-0.15772 2.12336,-0.47219 0.66136,-0.32451 1.26546,-0.78125 1.80953,-1.36961 0.55278,-0.62892 0.96436,-1.34698 1.24064,-2.15857 0.28417,-0.81152 0.42789,-1.70378 0.42789,-2.67759 0,-2.08978 -0.66954,-3.7195 -2.00892,-4.88609 0.24274,-0.28381 0.46819,-0.58299 0.67747,-0.89743 0.20931,-0.3245 0.38875,-0.66562 0.5397,-1.02057 0.15044,-0.36496 0.26855,-0.74978 0.35176,-1.15558 0.0832,-0.4058 0.1261,-0.84139 0.1261,-1.30805 0,-1.77523 -0.50969,-3.29834 -1.53096,-4.56638 -1.01291,-1.25787 -2.26682,-1.88581 -3.75693,-1.88581 z m 11.67844,0 c -1.30588,0 -2.45244,0.58884 -3.4402,1.76563 -1.00459,1.19697 -1.54699,2.57138 -1.63064,4.12352 -0.0109,0.0512 -9.8e-4,0.0941 0.0218,0.13518 0.0327,0.0396 0.0727,0.0618 0.11446,0.0618 h 2.57203 c 0.0218,0 0.0512,-0.0109 0.0763,-0.0454 0.0327,-0.0291 0.0509,-0.068 0.0618,-0.10829 0.12537,-0.82176 0.41939,-1.43316 0.87984,-1.83892 0.46027,-0.41601 0.9407,-0.62471 1.44294,-0.62471 0.68644,0 1.27077,0.28999 1.74794,0.86818 0.47731,0.57818 0.71562,1.27069 0.71562,2.08225 0,0.86225 -0.23148,1.5577 -0.69215,2.08523 -0.46881,0.54767 -1.10899,0.82115 -1.92098,0.82115 h -0.87987 c -0.1003,0 -0.14936,0.0629 -0.14936,0.18497 v 2.72167 c 0,0.1221 0.0512,0.18497 0.14936,0.18497 h 1.08221 c 0.69479,0 1.30561,0.2947 1.83304,0.88274 0.51928,0.55787 0.77718,1.35261 0.77718,2.38732 0,1.03471 -0.25837,1.83231 -0.77718,2.39022 -0.52724,0.57826 -1.12186,0.8652 -1.78319,0.8652 -0.35176,0 -0.6618,-0.0567 -0.92969,-0.16753 -0.25946,-0.11192 -0.49145,-0.2689 -0.69208,-0.47218 -0.20095,-0.21295 -0.37458,-0.46082 -0.52498,-0.74491 -0.14245,-0.28381 -0.26964,-0.60399 -0.37855,-0.95902 -0.0327,-0.0814 -0.0796,-0.12028 -0.13808,-0.12028 h -2.56033 c -0.11738,0 -0.16898,0.0647 -0.15262,0.19623 0.11737,0.94339 0.32632,1.7665 0.6276,2.46642 0.30998,0.70004 0.71777,1.29785 1.22001,1.79489 0.51082,0.48694 1.04013,0.85342 1.59259,1.09685 0.56071,0.24347 1.15528,0.36379 1.78315,0.36379 1.57376,0 2.89322,-0.61427 3.95639,-1.84173 1.07981,-1.25794 1.61886,-2.91474 1.61886,-4.9741 0,-0.9028 -0.16679,-1.79049 -0.50169,-2.66295 -0.32633,-0.81152 -0.82312,-1.50697 -1.49277,-2.08523 0.31833,-0.28381 0.59265,-0.58749 0.82704,-0.91211 0.23438,-0.3245 0.42055,-0.67005 0.55449,-1.03529 0.27654,-0.82166 0.41372,-1.66287 0.41372,-2.52512 0,-0.79131 -0.13046,-1.55879 -0.38988,-2.29934 -0.25146,-0.75069 -0.61383,-1.4461 -1.09104,-2.08527 -0.50224,-0.64919 -1.08369,-1.14038 -1.74499,-1.47514 -0.65294,-0.33504 -1.3876,-0.50173 -2.19959,-0.50173 z m 13.03341,0 c -1.36453,0 -2.57316,0.56358 -3.62789,1.68932 -1.0631,1.10576 -1.59546,2.68148 -1.59546,4.73063 v 9.57268 c 0,2.04915 0.53236,3.62786 1.59546,4.73357 1.05473,1.1159 2.26336,1.67167 3.62789,1.67167 1.36445,0 2.57602,-0.55559 3.6308,-1.67167 1.07148,-1.11589 1.60719,-2.69452 1.60719,-4.73357 v -9.57268 c 0,-1.0144 -0.14027,-1.9112 -0.41659,-2.69234 -0.26781,-0.79121 -0.66333,-1.47017 -1.19071,-2.03829 -0.52728,-0.54766 -1.09878,-0.9653 -1.70982,-1.24936 -0.60275,-0.29399 -1.24297,-0.43981 -1.92098,-0.43981 z m -64.09941,0.0454 c -0.1003,0 -0.15263,0.06 -0.15263,0.1817 v 9.2413 h -2.40788 c -0.0829,0 -0.14972,0.0661 -0.14972,0.14972 v 3.23488 c 0,0.0832 0.0661,0.15263 0.14972,0.15263 h 2.40788 v 9.02719 c 0,0.1221 0.0512,0.18497 0.15263,0.18497 h 6.12662 c 1.33095,0 2.48714,-0.35758 3.46655,-1.06753 0.96269,-0.71017 1.71418,-1.5859 2.25824,-2.63075 v 0.0182 c 0.21731,-0.39555 0.39388,-0.79216 0.52782,-1.18778 0.13373,-0.40579 0.23475,-0.82038 0.30198,-1.24649 0.14245,-0.84197 0.21404,-2.49717 0.21404,-4.96226 0,-2.30276 -0.0512,-3.85744 -0.15263,-4.66903 -0.0512,-0.41601 -0.14463,-0.84252 -0.28707,-1.2787 -0.14245,-0.43643 -0.32814,-0.89735 -0.5545,-1.38429 -1.22218,-2.50567 -3.08739,-3.75984 -5.59877,-3.75984 z m 14.33848,0 c -0.10029,0 -0.14972,0.0629 -0.14972,0.18497 v 2.93582 c 0,0.1221 0.0512,0.18169 0.14972,0.18169 h 4.78336 v 18.68785 c 0,0.1221 0.0512,0.18169 0.15262,0.18169 h 2.72462 c 0.10029,0 0.14935,-0.06 0.14935,-0.18169 V 473.4261 h 4.77162 c 0.1003,0 0.14972,-0.06 0.14972,-0.1817 v -2.93578 c 0,-0.12137 -0.0512,-0.18497 -0.14972,-0.18497 z m 25.04908,3.4256 c 0.63618,0 1.19453,0.25255 1.67169,0.75959 0.50232,0.49715 0.75374,1.21804 0.75374,2.16144 0,0.96374 -0.25146,1.69375 -0.75374,2.19087 -0.50224,0.49715 -1.06058,0.74487 -1.67169,0.74487 -0.61108,0 -1.16986,-0.24819 -1.68049,-0.74487 -0.48578,-0.48695 -0.73031,-1.21699 -0.73031,-2.19087 0,-0.95357 0.24456,-1.67457 0.73031,-2.16144 0.50231,-0.50736 1.06102,-0.75959 1.68049,-0.75959 z m 24.71185,0 c 0.71991,0 1.29457,0.27799 1.72155,0.83579 0.4353,0.5477 0.65403,1.31532 0.65403,2.29938 v 9.20605 c 0,0.99416 -0.2184,1.76327 -0.65403,2.31105 -0.4268,0.5477 -1.00164,0.82413 -1.72155,0.82413 -0.71991,0 -1.2917,-0.27654 -1.71865,-0.82413 -0.4268,-0.54767 -0.64229,-1.31689 -0.64229,-2.31101 v -9.20609 c 0,-0.98402 0.21549,-1.7515 0.64229,-2.29938 0.42676,-0.55787 0.99874,-0.83576 1.71865,-0.83576 z m -61.2253,0.073 h 3.12638 c 1.34774,0 2.37667,0.58429 3.08826,1.75091 0.3434,0.57819 0.55846,1.22259 0.64225,1.93265 0.0396,0.38537 0.0741,0.90677 0.0996,1.56613 0.0218,0.65941 0.0396,1.48248 0.0396,2.4665 0,1.01448 -0.0109,1.85111 -0.0396,2.51048 -0.0182,0.64926 -0.0454,1.13591 -0.0879,1.46053 -0.0752,0.58843 -0.25146,1.15165 -0.52782,1.68936 -0.70309,1.21728 -1.77446,1.82708 -3.21432,1.82708 h -3.12634 v -5.74238 h 2.25239 c 0.0829,0 0.14972,-0.069 0.14972,-0.15262 v -3.23489 c 0,-0.0832 -0.0661,-0.14972 -0.14972,-0.14972 h -2.25239 z m 36.51345,8.87471 c 0.73666,0 1.37978,0.31288 1.92392,0.9414 0.55279,0.60864 0.82707,1.38516 0.82707,2.32863 0,0.46652 -0.072,0.89775 -0.21403,1.29337 -0.14245,0.38534 -0.34522,0.73092 -0.61293,1.0353 -0.56074,0.61878 -1.20401,0.92969 -1.92396,0.92969 -0.71991,0 -1.36006,-0.31106 -1.92098,-0.92969 -0.25147,-0.29398 -0.4506,-0.63967 -0.60116,-1.0353 -0.14244,-0.39558 -0.21403,-0.82671 -0.21403,-1.29337 0,-0.94347 0.27145,-1.71999 0.8153,-2.32863 0.56074,-0.62892 1.20107,-0.9414 1.92098,-0.9414 z m -10.49652,6.34365 c -0.1003,0 -0.14936,0.06 -0.14936,0.18169 v 3.0912 c 0,0.12174 0.0512,0.1817 0.14936,0.1817 h 2.56323 c 0.0919,0 0.13809,-0.06 0.13809,-0.1817 v -3.0912 c 0,-0.12174 -0.0454,-0.18169 -0.13809,-0.18169 z"
       style="font-style:normal;font-variant:normal;font-weight:normal;font-stretch:normal;font-size:14.1395px;line-height:1.3;font-family:'Alte DIN 1451 Mittelschrift gepraegt';-inkscape-font-specification:'Alte DIN 1451 Mittelschrift gepraegt';text-align:center;text-anchor:middle;opacity:1;stroke-width:0.264583"
       id="path14348" />
    <path
       id="path8884"
       style="opacity:1;fill:#ffffff;fill-rule:evenodd;stroke-width:0.119062;stroke-linecap:square;stroke-miterlimit:10;paint-order:stroke fill markers"
       d="m 581.19052,462.60369 -20.89688,30.34815 c -0.90008,1.09802 -1.02963,2.46138 -0.33432,3.38203 0.91112,1.20637 2.25512,1.50199 3.86838,1.36521 l 9.08886,-3.58109 v 118.58705 h 16.15525 v -37.69995 l 56.91805,-57.19222 4.19514,9.22593 c 1.40217,1.47634 2.03199,1.67929 3.09283,1.61497 1.17222,-0.0709 2.43773,-1.29944 2.76049,-2.48816 l 6.59692,-36.24843 -36.21834,6.76783 c -1.41256,0.14317 -2.46868,1.01836 -2.62526,2.16143 -0.20532,1.49782 0.54214,2.65645 1.78209,3.69752 l 8.9668,3.87402 -45.46872,45.68465 v -57.98464 l 9.48135,3.58109 c 2.03527,0.0574 2.62476,-0.24274 3.33133,-1.0366 0.78071,-0.87722 0.81072,-2.64042 0.20096,-3.71064 z m 176.69189,50.26476 c -0.0585,0 -0.10757,0.0291 -0.14645,0.0883 l -3.05715,4.27214 c -0.0291,0.0683 -0.0363,0.13118 -0.0145,0.18969 0.0291,0.0487 0.0836,0.0734 0.16135,0.0734 h 2.2384 c 0.0182,0 0.044,-0.004 0.0734,-0.0145 0.0291,-0.0182 0.0483,-0.0363 0.0585,-0.0451 l 4.03743,-4.27215 c 0.0585,-0.0585 0.069,-0.12137 0.0291,-0.18968 -0.0291,-0.0683 -0.0836,-0.10321 -0.16134,-0.10321 z m 55.15848,2.13702 c -0.0585,0 -0.10538,0.0291 -0.14463,0.0883 l -3.05904,4.27211 c -0.0291,0.0683 -0.0327,0.13118 -0.0145,0.18969 0.0291,0.0487 0.0836,0.0734 0.16135,0.0734 h 2.23844 c 0.0182,0 0.044,-0.004 0.0734,-0.0145 0.0291,-0.0182 0.0483,-0.0327 0.0581,-0.0432 l 4.03929,-4.2721 c 0.0585,-0.0585 0.0672,-0.12319 0.0291,-0.19151 -0.0291,-0.0683 -0.0814,-0.10138 -0.15953,-0.10138 z m -62.4014,0.90698 -4.30031,3.40833 c -0.0585,0.0487 -0.0778,0.11338 -0.0581,0.19151 0.0182,0.0781 0.072,0.11628 0.15953,0.11628 h 2.4431 c 0.42916,-0.26345 0.86432,-0.5272 1.30325,-0.79058 0.43887,-0.26346 0.87217,-0.52721 1.30133,-0.79059 l 2.92761,1.58117 h 2.45811 c 0.0879,0 0.14026,-0.0381 0.15952,-0.11628 0.0291,-0.0781 0.0109,-0.14281 -0.0581,-0.19151 l -4.36041,-3.40833 z m -237.78444,0.63473 c -1.65403,0 -3.03782,0.39766 -4.15008,1.19621 -1.10274,0.78902 -1.90179,1.64491 -2.39615,2.56705 -0.17115,0.32341 -0.3176,0.65126 -0.4413,0.98398 -0.12355,0.33286 -0.21876,0.68095 -0.28526,1.0422 -0.0665,0.36121 -0.1141,0.93485 -0.14281,1.72388 -0.0291,0.78906 -0.0432,1.80619 -0.0432,3.05156 0,2.4907 0.0621,4.08881 0.18605,4.79229 0.0665,0.36121 0.16171,0.70759 0.28563,1.04031 0.12355,0.32342 0.27,0.64763 0.44126,0.97087 0.49436,0.93165 1.29341,1.78562 2.39619,2.56516 1.12174,0.78906 2.50549,1.18494 4.15008,1.18494 0.90309,0 1.74434,-0.12828 2.52384,-0.38498 0.77951,-0.25655 1.5016,-0.63789 2.16703,-1.14173 1.36896,-1.04572 2.25229,-2.5375 2.65154,-4.4768 0.0182,-0.0571 0.0109,-0.10466 -0.0291,-0.14281 -0.0381,-0.0476 -0.0858,-0.0712 -0.14281,-0.0712 h -3.26563 c -0.0291,0 -0.056,0.0145 -0.0847,0.0432 -0.0291,0.0182 -0.0523,0.0374 -0.0712,0.0563 -0.8556,1.7967 -2.10548,2.69471 -3.7501,2.69471 -0.71294,0 -1.32147,-0.13736 -1.82527,-0.4131 -0.50387,-0.28526 -0.90891,-0.62794 -1.2131,-1.02719 -0.17115,-0.21876 -0.32705,-0.46972 -0.4695,-0.7549 -0.133,-0.29471 -0.23947,-0.58978 -0.31542,-0.88449 -0.076,-0.32342 -0.12718,-0.81806 -0.15589,-1.4835 -0.0291,-0.67496 -0.0433,-1.53085 -0.0433,-2.56705 0,-1.0172 0.0145,-1.86204 0.0433,-2.537 0.0291,-0.67489 0.0799,-1.17531 0.15589,-1.49854 0.0759,-0.30416 0.18242,-0.59741 0.31542,-0.8826 0.133,-0.29471 0.2889,-0.55679 0.4695,-0.78492 0.30416,-0.37077 0.70923,-0.69883 1.2131,-0.98402 0.5038,-0.28526 1.11233,-0.42815 1.82527,-0.42815 0.96014,0 1.75367,0.28054 2.38114,0.84129 0.33286,0.28526 0.61311,0.59494 0.84128,0.92765 0.22821,0.32342 0.40409,0.67511 0.52768,1.05536 0.0182,0.076 0.0701,0.11447 0.15589,0.11447 h 3.26559 c 0.0571,0 0.10466,-0.0218 0.14281,-0.0581 0.0378,-0.0381 0.0469,-0.0858 0.0291,-0.14281 -0.31361,-1.68263 -1.12556,-3.1359 -2.43747,-4.36226 -1.2929,-1.21685 -2.92764,-1.82527 -4.90499,-1.82527 z m -70.18511,0.1708 c -0.11411,0 -0.1708,0.0567 -0.1708,0.17079 v 2.75107 c 0,0.1141 0.0567,0.17261 0.1708,0.17261 h 5.43262 v 17.51108 c 0,0.11411 0.0567,0.1708 0.17079,0.1708 h 3.09473 c 0.11411,0 0.17079,-0.0567 0.17079,-0.1708 v -17.51108 h 5.41762 c 0.11411,0 0.17261,-0.0585 0.17261,-0.17261 v -2.75107 c 0,-0.11411 -0.0585,-0.17079 -0.17261,-0.17079 z m 16.74113,0 c -0.1141,0 -0.17261,0.0567 -0.17261,0.17079 v 20.43491 c 0,0.1141 0.0585,0.17079 0.17261,0.17079 h 3.09284 c 0.11411,0 0.17261,-0.0567 0.17261,-0.17079 v -7.81566 h 4.54817 c 2.13898,0 3.7682,-0.67441 4.88998,-2.02433 1.12175,-1.35943 1.68445,-2.78526 1.68445,-4.27777 0,-0.57041 -0.0585,-1.10739 -0.17297,-1.61123 -0.1141,-0.50384 -0.27545,-0.96571 -0.48447,-1.38397 -0.21876,-0.40877 -0.46605,-0.77899 -0.74175,-1.11171 -0.266,-0.34231 -0.5594,-0.6428 -0.8826,-0.8995 -0.83655,-0.64643 -1.62649,-1.05517 -2.36798,-1.22622 -0.73201,-0.17115 -1.50723,-0.25546 -2.32482,-0.25546 z m 27.90317,0 c -0.1141,0 -0.17079,0.0567 -0.17079,0.17079 v 20.43491 c 0,0.1141 0.0567,0.17079 0.17079,0.17079 h 3.09473 c 0.1141,0 0.17079,-0.0567 0.17079,-0.17079 v -8.75647 h 7.77249 v 8.75647 c 0,0.1141 0.0567,0.17079 0.17079,0.17079 h 3.09469 c 0.1141,0 0.17079,-0.0567 0.17079,-0.17079 v -20.43491 c 0,-0.11411 -0.0567,-0.17079 -0.17079,-0.17079 h -3.09469 c -0.11411,0 -0.17079,0.0567 -0.17079,0.17079 v 8.58371 h -7.77249 v -8.58371 c 0,-0.11411 -0.0567,-0.17079 -0.17079,-0.17079 z m 35.20808,0 c -0.1141,0 -0.17079,0.0567 -0.17079,0.17079 v 20.43491 c 0,0.1141 0.0567,0.17079 0.17079,0.17079 h 3.09469 c 0.11411,0 0.17079,-0.0567 0.17079,-0.17079 v -12.09343 l 4.0205,9.25409 c 0.0378,0.0571 0.0912,0.0865 0.15771,0.0865 h 2.58017 c 0.0665,0 0.11992,-0.0291 0.15771,-0.0865 0.65595,-1.54004 1.32121,-3.07398 1.99617,-4.6045 0.67496,-1.53055 1.34581,-3.07187 2.01121,-4.62143 v 12.06527 c 0,0.1141 0.0567,0.17079 0.17079,0.17079 h 3.09473 c 0.1141,0 0.17079,-0.0567 0.17079,-0.17079 v -20.43491 c 0,-0.11411 -0.0567,-0.17079 -0.17079,-0.17079 h -2.92383 c -0.0759,0 -0.12936,0.0327 -0.15771,0.0996 -0.93165,2.17699 -1.86262,4.33956 -2.79424,6.48802 -0.93165,2.13898 -1.85899,4.29791 -2.78116,6.47486 l -5.71806,-12.96288 c -0.0382,-0.0665 -0.0894,-0.0996 -0.1559,-0.0996 z m 299.76707,2.09195 -1.46475,1.46286 c 0.37066,0.28272 0.56111,0.74582 0.57088,1.3896 -0.0182,0.79982 -0.47196,1.39047 -1.35958,1.77083 v -1.74078 c 0,-0.11701 -0.0592,-0.17661 -0.17661,-0.17661 h -3.17547 c -0.11701,0 -0.17479,0.0596 -0.17479,0.17661 v 13.51871 c 0,1.39484 -0.39482,2.45709 -1.1849,3.18863 -0.79008,0.73154 -1.7616,1.09856 -2.9126,1.09856 -1.1704,0 -2.15064,-0.36702 -2.94072,-1.09856 -0.7803,-0.7218 -1.16989,-1.78402 -1.16989,-3.18863 v -13.51871 c 0,-0.11701 -0.0542,-0.17661 -0.16135,-0.17661 h -3.18862 c -0.11702,0 -0.17661,0.0596 -0.17661,0.17661 v 13.86989 c 0,2.24342 0.74262,4.04645 2.22525,5.41199 1.48262,1.35584 3.28568,2.03374 5.41198,2.03374 2.11663,0 3.91286,-0.6779 5.38575,-2.03374 1.49236,-1.36554 2.2384,-3.16857 2.2384,-5.41199 v -10.22685 c 0.59501,-0.10719 1.14529,-0.27871 1.65251,-0.51263 1.21931,-0.82911 1.80989,-1.90187 1.77083,-3.21868 -0.0182,-1.08271 -0.3514,-1.96161 -0.99529,-2.63464 -0.0585,-0.0585 -0.11592,-0.11083 -0.17479,-0.15953 z m -359.61272,1.18679 h 4.31909 c 0.86508,0 1.56886,0.18133 2.11071,0.54272 0.83659,0.54185 1.25441,1.40138 1.25441,2.58017 0,0.78903 -0.26927,1.50196 -0.81122,2.13887 -0.53237,0.65596 -1.34611,0.98402 -2.43936,0.98402 h -4.43363 z m 369.94095,1.34454 c -1.6972,0 -3.11587,0.40881 -4.2571,1.22815 -1.13148,0.80959 -1.95096,1.68663 -2.45814,2.63275 -0.17552,0.33177 -0.32778,0.66889 -0.45445,1.01029 -0.12683,0.34159 -0.22276,0.69785 -0.29108,1.06851 -0.0683,0.37066 -0.11737,0.96123 -0.14644,1.77083 -0.0291,0.80952 -0.0451,1.85259 -0.0451,3.13037 0,2.55557 0.0647,4.19449 0.1915,4.91625 0.0683,0.37066 0.16425,0.72711 0.29108,1.06851 0.12682,0.33178 0.27872,0.66173 0.45441,0.9934 0.50719,0.95589 1.32666,1.83482 2.45815,2.63464 1.15096,0.80959 2.56966,1.21499 4.2571,1.21499 0.92664,0 1.78976,-0.133 2.58958,-0.39624 0.79982,-0.26346 1.54247,-0.65294 2.22528,-1.16989 1.40457,-1.07298 2.31133,-2.60532 2.72102,-4.59516 0.0182,-0.0585 0.007,-0.10757 -0.0291,-0.14645 -0.0389,-0.0487 -0.0879,-0.0734 -0.14645,-0.0734 l -3.35011,0.002 c -0.0291,0 -0.0592,0.0145 -0.0883,0.0433 -0.0291,0.0182 -0.0538,0.0389 -0.0734,0.0581 -0.87788,1.84351 -2.16031,2.76608 -3.84774,2.76608 -0.73158,0 -1.3553,-0.14136 -1.87226,-0.4244 -0.51695,-0.29253 -0.931,-0.64378 -1.24311,-1.05347 -0.17552,-0.22421 -0.33614,-0.48294 -0.48262,-0.77554 -0.13663,-0.30234 -0.24492,-0.60465 -0.32305,-0.90702 -0.0781,-0.33177 -0.13228,-0.84016 -0.16135,-1.52293 -0.0291,-0.69254 -0.0432,-1.56958 -0.0432,-2.63278 0,-1.04369 0.0145,-1.91205 0.0432,-2.60459 0.0291,-0.69255 0.0836,-1.20446 0.16135,-1.53612 0.0781,-0.31215 0.18642,-0.61438 0.32305,-0.90698 0.13664,-0.30234 0.29725,-0.5715 0.48262,-0.8056 0.31215,-0.38043 0.72616,-0.7158 1.24311,-1.00844 0.51696,-0.29253 1.14068,-0.43941 1.87226,-0.43941 0.98514,0 1.79931,0.28817 2.44309,0.86381 0.34123,0.29253 0.62972,0.60882 0.86382,0.95019 0.23402,0.33178 0.414,0.69338 0.54083,1.08355 0.0182,0.0781 0.0738,0.11629 0.16134,0.11629 h 3.35012 c 0.0585,0 0.10756,-0.0182 0.14644,-0.0581 0.0389,-0.0389 0.0498,-0.0879 0.0291,-0.14645 -0.32197,-1.72646 -1.15714,-3.21857 -2.50321,-4.47684 -1.32648,-1.24849 -3.00384,-1.87221 -5.03268,-1.87221 z m -148.82066,0.17479 c -0.11701,0 -0.17479,0.0596 -0.17479,0.17661 v 2.82244 c 0,0.11701 0.0578,0.17661 0.17479,0.17661 h 5.57537 v 17.9655 c 0,0.11701 0.0578,0.1766 0.17479,0.1766 h 3.17547 c 0.11701,0 0.17479,-0.0596 0.17479,-0.1766 v -17.9655 h 5.56036 c 0.11701,0 0.17479,-0.0596 0.17479,-0.17661 v -2.82244 c 0,-0.11701 -0.0578,-0.17661 -0.17479,-0.17661 z m 17.54111,0 c -0.11702,0 -0.17661,0.0596 -0.17661,0.17661 v 2.82244 c 0,0.11701 0.0596,0.17661 0.17661,0.17661 h 5.57351 v 17.9655 c 0,0.11701 0.0592,0.1766 0.1766,0.1766 h 3.17548 c 0.11701,0 0.17479,-0.0596 0.17479,-0.1766 v -17.9655 h 5.56035 c 0.11701,0 0.17479,-0.0596 0.17479,-0.17661 v -2.82244 c 0,-0.11701 -0.0578,-0.17661 -0.17479,-0.17661 z m 25.42438,0 c -0.11701,0 -0.17661,0.0596 -0.17661,0.17661 v 20.96448 c 0,0.11701 0.0596,0.1766 0.17661,0.1766 h 8.85226 c 1.60941,0 3.00889,-0.55031 4.19892,-1.65251 1.19973,-1.11197 1.79899,-2.60066 1.79899,-4.46368 0,-0.54621 -0.0767,-1.07207 -0.23293,-1.57929 -0.14645,-0.51696 -0.36121,-1.02021 -0.64411,-1.50792 -0.53647,-0.88761 -1.29831,-1.48688 -2.2835,-1.79899 1.06321,-0.54625 1.79006,-1.19101 2.18023,-1.93232 0.42912,-0.79008 0.6441,-1.64793 0.6441,-2.57457 0,-1.68744 -0.54693,-3.073 -1.63939,-4.15572 -1.10219,-1.10219 -2.68163,-1.65251 -4.73971,-1.65251 z m 18.26036,0 c -0.11702,0 -0.17661,0.0596 -0.17661,0.17661 v 20.96448 c 0,0.11701 0.0596,0.1766 0.17661,0.1766 h 13.40043 c 0.11701,0 0.1766,-0.0596 0.1766,-0.1766 v -2.98393 c 0,-0.11702 -0.0596,-0.17479 -0.1766,-0.17479 h -10.05032 v -5.82327 h 8.54429 c 0.11701,0 0.17479,-0.0542 0.17479,-0.16135 v -2.8393 c 0,-0.11701 -0.0578,-0.17479 -0.17479,-0.17479 h -8.54429 v -5.61861 h 10.05032 c 0.11701,0 0.1766,-0.0578 0.1766,-0.17479 v -3.01398 c 0,-0.11701 -0.0596,-0.17661 -0.1766,-0.17661 z m 16.67917,0 c -0.11701,0 -0.1766,0.0596 -0.1766,0.17661 v 20.96448 c 0,0.11701 0.0596,0.1766 0.1766,0.1766 h 3.18863 c 0.1072,0 0.16135,-0.0596 0.16135,-0.1766 v -14.42585 l 9.2466,14.514 c 0.0389,0.0585 0.0879,0.0883 0.14645,0.0883 h 2.99897 c 0.11702,0 0.17661,-0.0578 0.17661,-0.17479 v -20.96637 c 0,-0.11701 -0.0596,-0.17661 -0.17661,-0.17661 h -3.18862 c -0.11701,0 -0.17661,0.0596 -0.17661,0.17661 v 14.42573 l -9.21652,-14.514 c -0.0392,-0.0585 -0.0879,-0.0883 -0.14644,-0.0883 z m 27.68158,0 c -0.11701,0 -0.17661,0.0596 -0.17661,0.17661 v 20.96448 c 0,0.11701 0.0596,0.1766 0.17661,0.1766 h 13.40232 c 0.11701,0 0.17479,-0.0596 0.17479,-0.1766 v -2.98393 c 0,-0.11702 -0.0578,-0.17479 -0.17479,-0.17479 h -10.05221 v -17.80591 c 0,-0.11701 -0.0578,-0.1766 -0.17479,-0.1766 z m -59.27099,3.17547 h 4.43363 c 1.08272,0 1.8882,0.28308 2.41494,0.84881 0.52673,0.53647 0.78869,1.1986 0.78869,1.98864 0,0.79986 -0.262,1.46911 -0.78869,2.00558 -0.50719,0.54621 -1.31275,0.81875 -2.41494,0.81875 h -4.43363 z m 0,8.83722 h 4.72659 c 1.13145,3e-5 1.95096,0.30234 2.45811,0.90702 0.52673,0.60475 0.7887,1.2966 0.7887,2.07691 0,0.79985 -0.262,1.49694 -0.7887,2.09195 -0.5364,0.59502 -1.35591,0.89387 -2.45811,0.89387 h -4.72659 z m -257.8907,0.72863 c -0.1141,0 -0.17079,0.0567 -0.17079,0.17079 v 2.89566 c 0,0.11411 0.0567,0.1708 0.17079,0.1708 h 2.91067 c 0.10466,0 0.1559,-0.0567 0.1559,-0.1708 v -2.89566 c 0,-0.1141 -0.0512,-0.17079 -0.1559,-0.17079 z m 247.11553,5.25427 c -0.11701,0 -0.17661,0.0596 -0.17661,0.17661 v 2.96889 c 0,0.11701 0.0596,0.1766 0.17661,0.1766 h 2.98393 c 0.1072,0 0.16134,-0.0596 0.16134,-0.1766 v -2.96889 c 0,-0.11701 -0.0541,-0.17661 -0.16134,-0.17661 z m -268.53068,13.89806 -4.30034,3.40833 c -0.0585,0.0487 -0.0778,0.11156 -0.0581,0.18969 0.0182,0.0781 0.072,0.11846 0.15953,0.11846 h 2.4431 c 0.4292,-0.26345 0.86432,-0.5272 1.30326,-0.79058 0.4389,-0.26346 0.87217,-0.52721 1.30133,-0.79059 l 2.9276,1.58117 h 2.45811 c 0.0879,0 0.14027,-0.0403 0.15953,-0.11846 0.0291,-0.0778 0.0109,-0.141 -0.0581,-0.18969 l -4.36041,-3.40833 z m 72.24891,2.85249 -1.4779,1.47787 c 0.40968,0.28271 0.61936,0.75639 0.6291,1.41968 -0.0291,0.8681 -0.55174,1.48655 -1.56614,1.85721 -0.34158,-0.32196 -0.72572,-0.63807 -1.15488,-0.95022 -1.14126,-0.81934 -2.55128,-1.23 -4.22897,-1.23 -1.69721,0 -3.11588,0.41066 -4.2571,1.23 -1.13149,0.80959 -1.95093,1.68663 -2.45815,2.63278 h 0.0145 c -0.18533,0.33178 -0.34268,0.66889 -0.46946,1.0103 -0.12683,0.34122 -0.22276,0.69785 -0.29108,1.06851 -0.0585,0.37062 -0.10756,0.95934 -0.14644,1.76894 -0.0291,0.80955 -0.0451,1.85448 -0.0451,3.13226 0,1.27778 0.0145,2.32609 0.0451,3.14542 0.0392,0.80959 0.0879,1.40017 0.14644,1.77083 0.0683,0.37066 0.16425,0.72525 0.29108,1.06662 0.12682,0.33177 0.28417,0.66362 0.46946,0.99528 h -0.0145 c 0.50722,0.9559 1.32666,1.83479 2.45815,2.63465 1.15096,0.80955 2.56966,1.2131 4.2571,1.2131 1.66795,0 3.07797,-0.40355 4.22897,-1.2131 1.15096,-0.81934 1.98435,-1.69827 2.50131,-2.63465 0.16571,-0.31215 0.30743,-0.63887 0.4244,-0.98024 0.12683,-0.34122 0.22458,-0.70126 0.29289,-1.08166 0.13664,-0.77057 0.20459,-2.40945 0.20459,-4.91625 0,-1.27778 -0.0182,-2.32271 -0.0585,-3.13226 -0.0291,-0.8096 -0.0781,-1.39832 -0.14645,-1.76894 -0.12682,-0.72184 -0.37145,-1.41555 -0.73237,-2.07881 -0.0291,-0.0487 -0.052,-0.0927 -0.0712,-0.13154 0.20495,-0.0781 0.40395,-0.15989 0.59901,-0.24783 1.21925,-0.82911 1.8099,-1.90187 1.77083,-3.21865 -0.0182,-1.08271 -0.35139,-1.96161 -0.99525,-2.63464 -0.0683,-0.0683 -0.14172,-0.13627 -0.21985,-0.20459 z m 229.45048,1.04783 c -0.0585,0 -0.10575,0.0291 -0.14463,0.0883 l -3.05908,4.27214 c -0.0291,0.0683 -0.0327,0.13118 -0.0145,0.18969 0.0291,0.0487 0.0836,0.0734 0.16135,0.0734 h 2.2384 c 0.0182,0 0.0443,-0.004 0.0734,-0.0145 0.0291,-0.0182 0.0483,-0.0327 0.0585,-0.0433 l 4.03928,-4.27214 c 0.0585,-0.0585 0.0672,-0.12319 0.0291,-0.19151 -0.0291,-0.0683 -0.0818,-0.10138 -0.15952,-0.10138 z m 59.7536,0 c -0.0781,0 -0.13554,0.0327 -0.17479,0.10139 -0.0291,0.0683 -0.0145,0.133 0.0432,0.1915 l 4.03928,4.27215 c 0.0109,0.0109 0.0291,0.0254 0.0581,0.0432 0.0291,0.0109 0.0538,0.0145 0.0734,0.0145 h 2.2384 c 0.0781,0 0.12719,-0.0254 0.14644,-0.0734 0.0291,-0.0585 0.0291,-0.12137 0,-0.18969 l -3.05904,-4.27214 c -0.0389,-0.0585 -0.0879,-0.0883 -0.14644,-0.0883 z m -314.86696,1.52671 c -2.20442,0 -3.92536,0.59058 -5.16415,1.77083 -1.22898,1.16073 -1.84405,2.66862 -1.84405,4.5219 0,0.79008 0.12246,1.52031 0.36619,2.19334 0.24383,0.66329 0.60896,1.27833 1.09667,1.84405 0.4877,0.55599 1.08693,1.00506 1.79899,1.34643 0.7218,0.33177 1.54124,0.56049 2.45814,0.68731 0.27327,0.0389 0.52303,0.0774 0.74735,0.11629 0.23402,0.0291 0.45768,0.0589 0.6723,0.0883 0.22421,0.0291 0.44454,0.0589 0.65912,0.0883 0.22421,0.0291 0.45848,0.0589 0.70232,0.0883 h -0.0145 c 1.7265,0.23402 2.58958,1.12167 2.58958,2.6628 0,0.81933 -0.34049,1.47805 -1.02341,1.97553 -0.7218,0.51695 -1.70723,0.77365 -2.95577,0.77365 -1.11197,0 -2.17081,-0.18533 -3.17547,-0.55584 -0.99492,-0.38043 -1.87719,-0.8818 -2.64779,-1.50606 -0.0389,-0.0291 -0.0825,-0.0432 -0.13155,-0.0432 -0.0487,0 -0.089,0.0182 -0.11847,0.0581 l -2.10696,2.38488 c -0.0291,0.0389 -0.0432,0.0825 -0.0432,0.13155 0,0.0487 0.0182,0.0872 0.0581,0.11628 2.23368,1.95078 4.94532,2.92572 8.13489,2.92572 2.26293,0 4.08704,-0.54512 5.47209,-1.6375 1.37532,-1.11197 2.06379,-2.653 2.06379,-4.62333 0,-1.47285 -0.48407,-2.80946 -1.4497,-4.00923 -0.96567,-1.22901 -2.4472,-1.96637 -4.44679,-2.21024 -0.51695,-0.0585 -0.96603,-0.11083 -1.34642,-0.15952 -0.38044,-0.0585 -0.71239,-0.11266 -0.99529,-0.16135 -0.52669,-0.0781 -0.9705,-0.19514 -1.33138,-0.35103 -0.36085,-0.16571 -0.64923,-0.36681 -0.86385,-0.60094 -0.42916,-0.50722 -0.64222,-1.02777 -0.64222,-1.56424 0,-0.93638 0.31615,-1.63351 0.95023,-2.09196 0.32196,-0.25364 0.68357,-0.43541 1.08351,-0.54268 0.39991,-0.11701 0.83315,-0.17479 1.30137,-0.17479 0.91687,0 1.80444,0.14681 2.66281,0.43941 0.85836,0.28271 1.66726,0.66191 2.42805,1.13987 0.0879,0.0585 0.16643,0.0447 0.23475,-0.0432 l 1.77083,-2.61963 c 0.0683,-0.0974 0.0541,-0.17952 -0.0432,-0.24783 -0.48771,-0.32197 -1.0015,-0.61547 -1.53798,-0.87886 -0.52673,-0.27327 -1.08231,-0.50722 -1.66755,-0.70232 -0.5755,-0.19514 -1.17473,-0.34522 -1.79899,-0.45256 -0.61449,-0.11702 -1.24875,-0.17661 -1.90227,-0.17661 z m -46.87714,0.14644 c -0.0781,0 -0.12682,0.0403 -0.14645,0.11847 l -7.66732,20.97948 c -0.0182,0.0585 -0.0145,0.11265 0.0145,0.16135 0.0291,0.0487 0.0781,0.073 0.14644,0.073 h 3.35012 c 0.0291,0 0.0589,-0.007 0.0883,-0.0291 0.0392,-0.0291 0.0636,-0.0592 0.073,-0.0883 0.27326,-0.78034 0.54039,-1.54556 0.80374,-2.29665 0.27327,-0.76079 0.54748,-1.53659 0.82064,-2.32667 h 7.72364 l 1.58115,4.62332 c 0.0182,0.0781 0.0683,0.11629 0.14644,0.11629 h 3.35008 c 0.0585,0 0.10211,-0.0254 0.13155,-0.073 0.0291,-0.0487 0.0363,-0.10284 0.0145,-0.16135 l -7.65227,-20.97948 c -0.0109,-0.0291 -0.0327,-0.0538 -0.073,-0.0734 -0.0291,-0.0291 -0.0589,-0.0451 -0.0883,-0.0451 z m -22.76718,0.0291 c -0.11701,0 -0.17479,0.0578 -0.17479,0.17479 v 2.82433 c 0,0.11702 0.0574,0.17661 0.17479,0.17661 h 5.57537 v 17.96554 c 0,0.11701 0.0574,0.17661 0.17479,0.17661 h 3.17547 c 0.11701,0 0.17479,-0.0596 0.17479,-0.17661 V 562.188 h 5.56032 c 0.11701,0 0.17661,-0.0596 0.17661,-0.17661 v -2.82433 c 0,-0.11701 -0.0596,-0.17479 -0.17661,-0.17479 z m 35.84652,0 c -0.11701,0 -0.17479,0.0578 -0.17479,0.17479 v 20.96637 c 0,0.11701 0.0578,0.17661 0.17479,0.17661 h 3.19048 c 0.1072,0 0.15953,-0.0596 0.15953,-0.17661 v -14.42577 l 9.24657,14.51404 c 0.0389,0.0585 0.0879,0.0883 0.14645,0.0883 h 3.00082 c 0.11701,0 0.17479,-0.0596 0.17479,-0.1766 v -20.96634 c 0,-0.11701 -0.0578,-0.17479 -0.17479,-0.17479 h -3.19048 c -0.11701,0 -0.17479,0.0574 -0.17479,0.17479 v 14.42766 l -9.21844,-14.51403 c -0.0392,-0.0585 -0.0879,-0.0883 -0.14645,-0.0883 z m 63.1469,0 c -0.11702,0 -0.17479,0.0578 -0.17479,0.17479 v 20.96637 c 0,0.11701 0.0578,0.17661 0.17479,0.17661 h 3.19048 c 0.1072,0 0.16134,-0.0596 0.16134,-0.17661 v -14.42577 l 9.24661,14.51404 c 0.0389,0.0585 0.0879,0.0883 0.14644,0.0883 h 2.99894 c 0.11701,0 0.17479,-0.0596 0.17479,-0.1766 v -20.96634 c 0,-0.11701 -0.0578,-0.17479 -0.17479,-0.17479 h -3.19048 c -0.11701,0 -0.17479,0.0574 -0.17479,0.17479 v 14.42766 l -9.21841,-14.51403 c -0.0389,-0.0585 -0.0879,-0.0883 -0.14644,-0.0883 z m 235.01272,2.10134 -1.46471,1.46285 c 0.37065,0.28272 0.5611,0.74586 0.57084,1.38964 -0.0182,0.79982 -0.472,1.39047 -1.35954,1.77083 v -1.74078 c 0,-0.11701 -0.0596,-0.17661 -0.17661,-0.17661 h -3.17547 c -0.11701,0 -0.17479,0.0596 -0.17479,0.17661 v 13.51875 c 0,1.3948 -0.39486,2.45706 -1.18494,3.18859 -0.79008,0.73158 -1.76156,1.09856 -2.91256,1.09856 -1.17048,0 -2.15064,-0.36698 -2.94072,-1.09856 -0.78035,-0.7218 -1.16993,-1.78402 -1.16993,-3.18859 v -13.51875 c 0,-0.11701 -0.0541,-0.17661 -0.16135,-0.17661 h -3.18859 c -0.11701,0 -0.17661,0.0596 -0.17661,0.17661 v 13.86989 c 0,2.24342 0.74266,4.04645 2.22529,5.41199 1.48259,1.35584 3.28561,2.03374 5.41198,2.03374 2.11663,0 3.91286,-0.6779 5.38571,-2.03374 1.49237,-1.36554 2.23841,-3.16857 2.23844,-5.41199 V 567.6392 c 0.59491,-0.1072 1.14533,-0.27872 1.65251,-0.51267 1.21921,-0.82907 1.80979,-1.90187 1.77083,-3.21865 -0.0182,-1.08271 -0.3514,-1.9616 -0.99528,-2.63464 -0.0585,-0.0585 -0.11629,-0.11083 -0.17479,-0.15952 z m -246.49773,1.26383 c 0.35103,0 0.68317,0.0436 0.99528,0.13154 0.31215,0.0781 0.60046,0.1846 0.86381,0.32124 0.26346,0.12682 0.49748,0.27872 0.70232,0.45442 0.21477,0.17551 0.3945,0.35539 0.54084,0.54083 0.18532,0.23402 0.34594,0.50325 0.48261,0.80559 0.13664,0.29253 0.23984,0.59491 0.30779,0.90702 0.0781,0.32196 0.13555,0.8286 0.17479,1.52107 0.0389,0.68278 0.0581,1.55643 0.0581,2.61964 0,2.14588 -0.0767,3.53145 -0.23293,4.15571 -0.12682,0.62423 -0.39595,1.18508 -0.80559,1.68256 -0.30234,0.40969 -0.71116,0.75898 -1.22815,1.05158 -0.51696,0.28271 -1.13726,0.42444 -1.85906,0.42444 -0.73157,0 -1.35526,-0.14136 -1.87221,-0.42444 -0.51696,-0.29253 -0.93104,-0.64189 -1.24316,-1.05158 -0.17551,-0.22421 -0.3365,-0.48294 -0.48261,-0.77554 -0.13664,-0.30234 -0.24493,-0.60464 -0.32306,-0.90702 -0.0781,-0.33177 -0.13227,-0.84015 -0.16134,-1.52296 -0.0291,-0.69255 -0.0432,-1.56959 -0.0432,-2.63275 0,-1.04369 0.0145,-1.91208 0.0432,-2.60463 0.0291,-0.69251 0.0836,-1.20445 0.16134,-1.53608 0.0781,-0.31215 0.18642,-0.61438 0.32306,-0.90702 0.13663,-0.30234 0.29725,-0.5715 0.48261,-0.80559 0.31215,-0.3804 0.7262,-0.71581 1.24316,-1.00841 0.51695,-0.29252 1.14064,-0.43941 1.87221,-0.43941 z m 256.826,1.26753 c -1.69721,0 -3.11592,0.40878 -4.25714,1.22815 -1.13148,0.80955 -1.95089,1.68663 -2.4581,2.63275 -0.17552,0.33177 -0.32778,0.66889 -0.45446,1.01029 -0.12682,0.34122 -0.22276,0.69785 -0.29107,1.06851 -0.0683,0.37066 -0.11738,0.96124 -0.14645,1.77083 -0.0291,0.80952 -0.0451,1.85259 -0.0451,3.13038 0,2.55556 0.0647,4.19448 0.19151,4.91625 0.0683,0.37069 0.16425,0.7271 0.29107,1.0685 0.12682,0.33178 0.27872,0.66177 0.45446,0.9934 0.50721,0.95589 1.32666,1.83482 2.45814,2.63464 1.15096,0.80959 2.56963,1.21499 4.2571,1.21499 0.9266,0 1.78972,-0.133 2.58954,-0.39624 0.79986,-0.26346 1.54255,-0.65294 2.22529,-1.16989 1.40457,-1.07294 2.31137,-2.60532 2.72101,-4.59513 0.0182,-0.0585 0.007,-0.10756 -0.0291,-0.14644 -0.0389,-0.0491 -0.0879,-0.073 -0.14644,-0.073 l -3.35012,9.8e-4 c -0.0291,0 -0.0589,0.0145 -0.0883,0.0432 -0.0291,0.0182 -0.0538,0.0389 -0.0734,0.0585 -0.87787,1.84351 -2.16031,2.76608 -3.84774,2.76608 -0.73154,0 -1.35526,-0.14136 -1.87221,-0.42441 -0.51696,-0.29252 -0.93104,-0.64381 -1.24316,-1.0535 -0.17551,-0.22421 -0.33649,-0.4829 -0.48261,-0.77554 -0.13664,-0.30234 -0.24493,-0.60461 -0.32306,-0.90702 -0.0781,-0.33177 -0.13227,-0.84015 -0.16134,-1.52292 -0.0291,-0.69255 -0.0432,-1.56959 -0.0432,-2.63279 0,-1.04365 0.0145,-1.91204 0.0432,-2.60459 0.0291,-0.69251 0.0836,-1.20445 0.16134,-1.53608 0.0781,-0.31215 0.18642,-0.61438 0.32306,-0.90702 0.13663,-0.30234 0.29725,-0.5715 0.48261,-0.8056 0.31215,-0.38039 0.7262,-0.7158 1.24316,-1.0084 0.51695,-0.29253 1.14067,-0.43945 1.87221,-0.43945 0.98515,0 1.79932,0.28854 2.4431,0.86385 0.34122,0.29253 0.62972,0.60879 0.86381,0.95019 0.23402,0.33178 0.41405,0.69335 0.54083,1.08352 0.0182,0.0781 0.0738,0.11628 0.16135,0.11628 h 3.35011 c 0.0585,0 0.10757,-0.0182 0.14645,-0.0581 0.0389,-0.0389 0.0494,-0.0879 0.0291,-0.14645 -0.32196,-1.72646 -1.1571,-3.21857 -2.50317,-4.47684 -1.32655,-1.24853 -3.00384,-1.87221 -5.03268,-1.87221 z m 43.30914,0 c -1.69721,0 -3.11777,0.40878 -4.25899,1.22815 -1.13148,0.80955 -1.95092,1.68663 -2.45811,2.63275 h 0.0145 c -0.18533,0.33177 -0.34086,0.66889 -0.46757,1.01029 -0.12683,0.34122 -0.22458,0.69785 -0.29289,1.06851 -0.0585,0.37066 -0.10757,0.96124 -0.14645,1.77083 -0.0291,0.80952 -0.0432,1.85259 -0.0432,3.13038 0,1.27778 0.0145,2.32608 0.0432,3.14542 0.0389,0.80959 0.0879,1.40017 0.14645,1.77083 0.0683,0.37069 0.16606,0.7271 0.29289,1.0685 0.12682,0.33178 0.28235,0.66177 0.46757,0.9934 h -0.0145 c 0.50719,0.95589 1.32663,1.83482 2.45811,2.63464 1.15096,0.80959 2.57152,1.2131 4.25899,1.2131 1.66795,0 3.07612,-0.40351 4.22708,-1.2131 1.15096,-0.81933 1.98621,-1.69826 2.50317,-2.63464 0.1657,-0.31215 0.30743,-0.63884 0.4244,-0.98024 0.12682,-0.34159 0.22276,-0.70123 0.29108,-1.08166 0.13663,-0.77053 0.20458,-2.40945 0.20458,-4.91625 0,-1.27779 -0.0182,-2.32086 -0.0581,-3.13038 -0.0291,-0.80959 -0.0781,-1.40017 -0.14644,-1.77083 -0.12683,-0.7218 -0.36961,-1.41551 -0.73049,-2.0788 -0.50722,-0.92664 -1.3372,-1.80368 -2.48819,-2.63275 -1.14123,-0.81937 -2.54936,-1.22815 -4.22705,-1.22815 z m 17.07353,0.14463 c -0.0781,0 -0.12682,0.0403 -0.14645,0.11847 l -7.66543,20.98137 c -0.0182,0.0585 -0.0145,0.11083 0.0145,0.15953 0.0291,0.0487 0.0781,0.073 0.14644,0.073 h 3.35012 c 0.0291,0 0.0592,-0.007 0.0883,-0.0291 0.0389,-0.0291 0.0636,-0.0592 0.0734,-0.0883 0.27327,-0.7803 0.54225,-1.54556 0.80559,-2.29661 0.27327,-0.76083 0.54563,-1.53659 0.81876,-2.32667 h 7.72553 l 1.57929,4.62328 c 0.0182,0.0781 0.0683,0.11629 0.14644,0.11629 h 3.35012 c 0.0585,0 0.10393,-0.0254 0.13336,-0.073 0.0291,-0.0487 0.0327,-0.10102 0.0145,-0.15953 l -7.65231,-20.98134 c -0.0109,-0.0291 -0.0327,-0.0538 -0.0712,-0.0734 -0.0291,-0.0291 -0.0592,-0.0451 -0.0883,-0.0451 z m -148.66855,0.0291 c -0.11701,0 -0.17479,0.0596 -0.17479,0.17661 v 2.82244 c 0,0.11701 0.0578,0.17661 0.17479,0.17661 h 5.57537 v 17.9655 c 0,0.11701 0.0578,0.17661 0.17479,0.17661 h 3.17547 c 0.11701,0 0.17479,-0.0596 0.17479,-0.17661 v -17.9655 h 5.56036 c 0.11701,0 0.17479,-0.0596 0.17479,-0.17661 v -2.82244 c 0,-0.11701 -0.0578,-0.17661 -0.17479,-0.17661 z m 17.54111,0 c -0.11702,0 -0.17661,0.0596 -0.17661,0.17661 v 2.82244 c 0,0.11701 0.0596,0.17661 0.17661,0.17661 h 5.57351 v 17.9655 c 0,0.11701 0.0592,0.17661 0.1766,0.17661 h 3.17548 c 0.11701,0 0.17479,-0.0596 0.17479,-0.17661 v -17.9655 h 5.56035 c 0.11701,0 0.17479,-0.0596 0.17479,-0.17661 v -2.82244 c 0,-0.11701 -0.0578,-0.17661 -0.17479,-0.17661 z m 25.27226,0 c -0.1072,0 -0.16134,0.0596 -0.16134,0.17661 v 8.6025 h -1.53612 c -0.1072,0 -0.16134,0.0578 -0.16134,0.17479 v 3.01398 c 0,0.1072 0.0541,0.16135 0.16134,0.16135 h 1.53612 v 9.01186 c 0,0.11701 0.0541,0.1766 0.16134,0.1766 h 7.13965 c 1.56068,0 2.91121,-0.34049 4.05244,-1.02344 1.10223,-0.68278 1.98112,-1.52667 2.63464,-2.53137 v 0.0145 c 0.24383,-0.38043 0.44297,-0.75948 0.59904,-1.13987 0.16571,-0.39017 0.28817,-0.79026 0.36619,-1.19995 0.0781,-0.39991 0.13554,-0.99579 0.17479,-1.78587 0.0392,-0.79982 0.0581,-1.79394 0.0581,-2.98393 0,-2.21413 -0.0578,-3.71151 -0.17479,-4.49181 -0.0487,-0.39995 -0.15516,-0.81062 -0.32123,-1.23004 -0.16571,-0.41942 -0.38076,-0.86319 -0.64411,-1.33138 -1.4436,-2.40927 -3.62415,-3.61303 -6.5406,-3.61303 z m 62.57609,0 c -0.11701,0 -0.17479,0.0596 -0.17479,0.17661 v 20.96448 c 0,0.11701 0.0578,0.1766 0.17479,0.1766 h 3.17543 c 0.11702,0 0.17661,-0.0596 0.17661,-0.1766 v -8.98181 h 7.9734 v 8.98181 c 0,0.11701 0.0578,0.1766 0.17479,0.1766 h 3.17548 c 0.11701,0 0.1766,-0.0596 0.1766,-0.1766 v -20.96448 c 0,-0.11701 -0.0596,-0.17661 -0.1766,-0.17661 h -3.17548 c -0.11701,0 -0.17479,0.0596 -0.17479,0.17661 v 8.8072 h -7.9734 v -8.8072 c 0,-0.11701 -0.0592,-0.17661 -0.17661,-0.17661 z m -337.32624,0.26855 c 0.0392,0.12682 0.0687,0.22457 0.0883,0.29289 0.0291,0.0683 0.0538,0.133 0.073,0.1915 0.0182,0.0487 0.0327,0.10103 0.0432,0.15953 0.0182,0.0487 0.044,0.1221 0.0734,0.21985 0.0585,0.18533 0.11265,0.36194 0.16134,0.52768 0.0585,0.1657 0.11265,0.31615 0.16134,0.45256 0.0978,0.30234 0.19006,0.59596 0.278,0.87882 0.0974,0.28272 0.19005,0.56602 0.27799,0.84881 0.0487,0.13663 0.0978,0.27799 0.14644,0.4244 0.0487,0.13663 0.0978,0.28162 0.14645,0.43755 0.0585,0.16571 0.11629,0.34232 0.17479,0.52768 0.0683,0.18533 0.13627,0.37578 0.20459,0.57085 0.1072,0.30234 0.22966,0.65697 0.36619,1.06662 0.13663,0.39994 0.28853,0.84033 0.45445,1.3183 0.0182,0.0585 0.044,0.12682 0.073,0.20459 0.0392,0.0781 0.0669,0.15153 0.0865,0.21985 h -5.61857 c 0.2144,-0.61449 0.39118,-1.12302 0.52767,-1.52293 0.13664,-0.40968 0.26746,-0.78874 0.39435,-1.13988 0.12682,-0.35103 0.24057,-0.6884 0.33795,-1.01029 0.1072,-0.32196 0.20859,-0.62939 0.30598,-0.92203 0.0487,-0.13663 0.0978,-0.27799 0.14644,-0.4244 0.0487,-0.14645 0.0978,-0.29652 0.14645,-0.45256 0.0487,-0.14645 0.0978,-0.29326 0.14644,-0.43941 0.0585,-0.14609 0.11265,-0.30162 0.16135,-0.46758 0.0182,-0.0487 0.0327,-0.0978 0.0432,-0.14644 0.0109,-0.0487 0.0254,-0.10284 0.0432,-0.16135 0.0781,-0.23402 0.16208,-0.48741 0.24965,-0.7605 0.0974,-0.27326 0.19878,-0.57201 0.30598,-0.89386 z m 278.11532,3.09658 h 3.62803 c 1.57039,0 2.77077,0.56085 3.59988,1.68256 0.39991,0.54621 0.65322,1.16655 0.7605,1.8591 0.0487,0.37065 0.0821,0.87202 0.10138,1.50602 0.0291,0.63405 0.0451,1.42373 0.0451,2.36988 0,0.97541 -0.0145,1.7809 -0.0451,2.41494 -0.0182,0.62426 -0.0527,1.09249 -0.10138,1.40464 -0.0683,0.56572 -0.27254,1.10739 -0.61406,1.62435 -0.81933,1.17047 -2.06862,1.75578 -3.74632,1.75578 h -3.62803 v -5.85328 h 3.81769 c 0.11701,0 0.1766,-0.0542 0.1766,-0.16135 v -3.01398 c 0,-0.11701 -0.0592,-0.17479 -0.1766,-0.17479 h -3.81769 z m 85.41648,0 c 0.35103,0 0.68128,0.0436 0.99339,0.13154 0.31216,0.0781 0.60047,0.18642 0.86382,0.32306 0.26345,0.12682 0.49748,0.2769 0.70232,0.45256 0.2144,0.17552 0.39453,0.35539 0.54083,0.5408 0.18533,0.23402 0.34595,0.50325 0.48262,0.80563 0.13663,0.29253 0.23983,0.59487 0.30779,0.90698 0.0781,0.32196 0.13736,0.8286 0.1766,1.52107 0.0389,0.68281 0.0582,1.55643 0.0582,2.61964 0,2.14588 -0.0789,3.53148 -0.23475,4.15571 -0.12683,0.62426 -0.39406,1.18508 -0.80375,1.68256 -0.30234,0.40969 -0.71307,0.76087 -1.22996,1.0535 -0.51699,0.28272 -1.13544,0.42437 -1.85724,0.42437 -0.73154,0 -1.35711,-0.14136 -1.87411,-0.42437 -0.51695,-0.29253 -0.931,-0.64381 -1.24311,-1.0535 -0.17552,-0.22421 -0.3365,-0.48294 -0.48262,-0.77554 -0.13663,-0.30234 -0.24492,-0.60464 -0.32305,-0.90702 -0.0781,-0.33177 -0.13046,-0.84016 -0.15953,-1.52293 -0.0291,-0.69254 -0.0451,-1.56958 -0.0451,-2.63278 0,-1.04369 0.0145,-1.91208 0.0451,-2.60459 0.0291,-0.69255 0.0836,-1.20445 0.16134,-1.53612 0.0781,-0.31215 0.18461,-0.61438 0.32124,-0.90698 0.13663,-0.30234 0.29725,-0.5715 0.48262,-0.80563 0.31215,-0.3804 0.72616,-0.71577 1.24311,-1.00841 0.517,-0.29253 1.14257,-0.43941 1.87411,-0.43941 z m 18.41996,1.71261 c 0.0389,0.12682 0.0687,0.22276 0.0883,0.29108 0.0291,0.0683 0.0538,0.133 0.0734,0.1915 0.0182,0.0487 0.0327,0.10102 0.0432,0.15953 0.0182,0.0487 0.044,0.1221 0.0734,0.21985 0.0585,0.18533 0.11265,0.36193 0.16135,0.52771 0.0585,0.16571 0.11083,0.31615 0.15952,0.45257 0.0974,0.30234 0.19006,0.59595 0.278,0.87882 0.0974,0.28271 0.19005,0.56597 0.27799,0.8488 0.0487,0.13663 0.0978,0.27799 0.14644,0.4244 0.0487,0.13664 0.0978,0.28163 0.14645,0.43752 0.0585,0.16571 0.1181,0.34231 0.17661,0.52768 0.0683,0.18533 0.13627,0.37581 0.20458,0.57088 0.1072,0.30234 0.22967,0.65697 0.36619,1.06662 0.13664,0.39995 0.28672,0.8403 0.45257,1.31827 0.0182,0.0585 0.044,0.12682 0.0734,0.20458 0.0389,0.0781 0.0687,0.15154 0.0883,0.21985 h -5.61857 c 0.21477,-0.61452 0.38926,-1.12301 0.52583,-1.52296 0.13663,-0.40965 0.26927,-0.7887 0.3962,-1.13984 0.12682,-0.35103 0.23875,-0.6884 0.33613,-1.01029 0.1072,-0.32197 0.21041,-0.62943 0.30779,-0.92203 0.0487,-0.13663 0.0978,-0.27799 0.14645,-0.4244 0.0487,-0.14645 0.0956,-0.29653 0.14463,-0.45257 0.0487,-0.14644 0.0978,-0.29325 0.14644,-0.43944 0.0585,-0.14608 0.11265,-0.30161 0.16135,-0.46757 0.0182,-0.0487 0.0327,-0.0978 0.0432,-0.14645 0.0109,-0.0487 0.0254,-0.10284 0.0451,-0.16134 0.0781,-0.23403 0.16026,-0.48742 0.24783,-0.76054 0.0978,-0.27327 0.20059,-0.57008 0.30779,-0.89197 z m -114.6135,12.91782 c -0.11701,0 -0.17479,0.0596 -0.17479,0.1766 v 2.96889 c 0,0.11701 0.0578,0.17661 0.17479,0.17661 h 2.98582 c 0.1072,0 0.16134,-0.0596 0.16134,-0.17661 v -2.96889 c 0,-0.11701 -0.0541,-0.1766 -0.16134,-0.1766 z m -192.55798,0.64221 c -0.0585,0 -0.10756,0.0291 -0.14645,0.0883 l -3.05715,4.27214 c -0.0291,0.0683 -0.0363,0.13118 -0.0145,0.18969 0.0291,0.0487 0.0836,0.073 0.16134,0.073 h 2.2384 c 0.0182,0 0.0443,-0.004 0.0734,-0.0145 0.0291,-0.0182 0.0487,-0.0327 0.0581,-0.0433 l 4.03739,-4.27214 c 0.0585,-0.0585 0.0691,-0.12137 0.0291,-0.18969 -0.0291,-0.0683 -0.0836,-0.1032 -0.16134,-0.1032 z m -7.24292,3.04404 -4.3003,3.40833 c -0.0585,0.0487 -0.0796,0.11156 -0.06,0.18969 0.0182,0.0781 0.0738,0.11846 0.16134,0.11846 h 2.4431 c 0.4292,-0.26345 0.86432,-0.5272 1.30326,-0.79058 0.4389,-0.26346 0.87224,-0.52721 1.30133,-0.79059 l 2.92571,1.58117 h 2.45815 c 0.0876,0 0.14208,-0.0403 0.16134,-0.11846 0.0291,-0.0781 0.0109,-0.141 -0.0581,-0.18969 l -4.36041,-3.40833 z m -0.29289,5.57351 c -0.0781,0 -0.12682,0.0382 -0.14645,0.11628 l -7.66546,20.98138 c -0.0182,0.0585 -0.0145,0.11265 0.0145,0.16134 0.0291,0.0487 0.0781,0.0734 0.14645,0.0734 h 3.35008 c 0.0291,0 0.0592,-0.0109 0.0883,-0.0291 0.0392,-0.0291 0.0618,-0.0571 0.0716,-0.0861 0.27327,-0.78034 0.54225,-1.54745 0.8056,-2.2985 0.2729,-0.76083 0.54562,-1.5347 0.81875,-2.32482 h 7.72553 l 1.58114,4.62332 c 0.0182,0.0781 0.0683,0.11629 0.14645,0.11629 h 3.35012 c 0.0585,0 0.10211,-0.0254 0.13154,-0.073 0.0291,-0.0487 0.0363,-0.10284 0.0145,-0.16135 l -7.65231,-20.98137 c -0.0109,-0.0291 -0.0327,-0.052 -0.073,-0.0712 -0.0291,-0.0291 -0.0589,-0.0451 -0.0883,-0.0451 z m -45.50248,0.0291 c -0.11701,0 -0.17479,0.0578 -0.17479,0.17479 v 20.96633 c 0,0.11701 0.0578,0.17661 0.17479,0.17661 h 3.19048 c 0.1072,0 0.16134,-0.0596 0.16134,-0.17661 v -14.42573 l 9.24661,14.514 c 0.0392,0.0585 0.0879,0.0883 0.14645,0.0883 h 2.99893 c 0.11701,0 0.17479,-0.0596 0.17479,-0.17661 v -20.96633 c 0,-0.11701 -0.0578,-0.17479 -0.17479,-0.17479 h -3.19048 c -0.11701,0 -0.17479,0.0578 -0.17479,0.17479 v 14.42763 l -9.21844,-14.514 c -0.0392,-0.0585 -0.0879,-0.0883 -0.14645,-0.0883 z m 20.48371,0 c -0.11701,0 -0.17479,0.0578 -0.17479,0.17479 v 20.96633 c 0,0.11701 0.0578,0.17661 0.17479,0.17661 h 3.17547 c 0.11701,0 0.17479,-0.0596 0.17479,-0.17661 v -8.98366 h 7.9753 v 8.98366 c 0,0.11701 0.0578,0.17661 0.17479,0.17661 h 3.17543 c 0.11701,0 0.17479,-0.0596 0.17479,-0.17661 v -20.96633 c 0,-0.11701 -0.0578,-0.17479 -0.17479,-0.17479 h -3.17543 c -0.11702,0 -0.17479,0.0578 -0.17479,0.17479 v 8.80905 h -7.9753 v -8.80905 c 0,-0.11701 -0.0578,-0.17479 -0.17479,-0.17479 z m 35.96298,0 c -0.11701,0 -0.17479,0.0578 -0.17479,0.17479 v 2.82433 c 0,0.11701 0.0578,0.17479 0.17479,0.17479 h 5.57537 v 17.96739 c 0,0.11701 0.0578,0.17661 0.17479,0.17661 h 3.17547 c 0.11701,0 0.17661,-0.0596 0.17661,-0.17661 v -17.96739 h 5.5585 c 0.11701,0 0.17661,-0.0574 0.17661,-0.17479 v -2.82433 c 0,-0.11701 -0.0596,-0.17479 -0.17661,-0.17479 z m -9.59778,5.07589 c 0.0392,0.12682 0.0687,0.22457 0.0883,0.29289 0.0291,0.0683 0.0538,0.13118 0.0734,0.18969 0.0182,0.0487 0.0327,0.10284 0.0432,0.16134 0.0182,0.0487 0.044,0.1221 0.073,0.21985 0.0585,0.18533 0.11265,0.36194 0.16134,0.52768 0.0585,0.1657 0.11266,0.31615 0.16135,0.45256 0.0978,0.30234 0.19005,0.59596 0.27799,0.87886 0.0978,0.28272 0.19005,0.56401 0.27799,0.84688 0.0487,0.13663 0.0978,0.27799 0.14645,0.4244 0.0487,0.13663 0.0956,0.28344 0.14463,0.43944 0.0585,0.16571 0.1181,0.34232 0.17661,0.52768 0.0683,0.18533 0.13627,0.37389 0.20458,0.56899 0.1072,0.30234 0.22966,0.65883 0.36615,1.06851 0.13664,0.39991 0.28672,0.83841 0.45257,1.31638 0.0182,0.0585 0.044,0.12864 0.073,0.2064 0.0392,0.0781 0.0687,0.14972 0.0883,0.21804 h -5.61857 c 0.2144,-0.61453 0.39112,-1.12117 0.52768,-1.52108 0.13663,-0.40968 0.26745,-0.79058 0.39435,-1.14176 0.12682,-0.35104 0.23874,-0.68652 0.33613,-1.00841 0.1072,-0.32196 0.2104,-0.62939 0.30779,-0.92202 0.0487,-0.13664 0.0978,-0.278 0.14645,-0.4244 0.0487,-0.14645 0.0978,-0.29835 0.14644,-0.45446 0.0487,-0.14644 0.0978,-0.29107 0.14645,-0.43752 0.0585,-0.14644 0.11083,-0.30379 0.15953,-0.46946 0.0182,-0.0487 0.0363,-0.0978 0.0451,-0.14645 0.0109,-0.0487 0.0254,-0.10102 0.0432,-0.15952 0.0781,-0.23403 0.16025,-0.48745 0.24783,-0.7605 0.0977,-0.27327 0.20059,-0.57201 0.30816,-0.89387 z" />
    <path
       id="path6933"
       d="m 381.32545,563.66914 c 32.8495,0 32.8495,0 32.8495,0 1.9752,0 3.57335,1.60262 3.57335,3.58334 0,32.95965 0,32.95965 0,32.95965 0,1.98076 -1.59815,3.58225 -3.57335,3.58225 -32.8495,0 -32.8495,0 -32.8495,0 -1.92738,0 -3.52331,-1.60149 -3.52331,-3.58225 0,-32.95965 0,-32.95965 0,-32.95965 0,-1.98072 1.59593,-3.58334 3.52331,-3.58334 z m 0,0"
       style="opacity:1;fill:#000000;fill-opacity:1;fill-rule:nonzero;stroke:none;stroke-width:0.352777" />
    <path
       id="path6937"
       d="m 381.32545,602.71003 c -1.36129,0 -2.489,-1.13105 -2.489,-2.4979 0,-32.95965 0,-32.95965 0,-32.95965 0,-1.36681 1.12771,-2.49789 2.489,-2.49789 32.8495,0 32.8495,0 32.8495,0 1.41133,0 2.49347,1.13108 2.49347,2.49789 0,32.95965 0,32.95965 0,32.95965 0,1.36685 -1.08214,2.4979 -2.49347,2.4979 z m 0,0"
       style="opacity:1;fill:#ffffff;fill-opacity:1;fill-rule:nonzero;stroke:none;stroke-width:0.352777" />
    <path
       sodipodi:nodetypes="sscccccccccccccccccccccsss"
       d="m 397.28639,567.16618 c 0.88569,0 1.59877,0.71297 1.59877,1.59869 v 8.61308 l 12.83198,10.15791 v 2.40338 l -9.25867,-4.0093 -3.57331,0.0552 v 6.13466 l -0.0538,2.29716 4.09761,3.25502 v 2.02727 l -4.88685,-1.51031 -0.7557,1.51042 -0.74862,-1.51042 -4.51343,1.51031 -0.0934,-2.02727 3.87365,-3.25502 -0.11701,-2.29716 v -6.13466 l -3.47658,-0.007 -9.16299,4.19725 v -2.45116 l 12.63957,-10.34477 v -8.61308 c 0,-0.88572 0.71296,-1.59869 1.59865,-1.59869 z"
       style="opacity:1;fill:#000000;fill-rule:evenodd;stroke-width:0.119063;stroke-linecap:square;stroke-miterlimit:10;paint-order:stroke fill markers"
       id="rect8077" />
  </g>
</svg>
