<?xml version="1.0" encoding="utf-8"?>
<!-- Generator: Adobe Illustrator 21.0.0, SVG Export Plug-In . SVG Version: 6.00 Build 0)  -->
<svg version="1.1" id="Layer_1" xmlns="http://www.w3.org/2000/svg" xmlns:xlink="http://www.w3.org/1999/xlink" x="0px" y="0px"
	 viewBox="0 0 122 57" style="enable-background:new 0 0 122 57;" xml:space="preserve">
<style type="text/css">
	.st0{fill:#FFFFFF;stroke:#000000;stroke-width:2;stroke-miterlimit:10;}
	.st1{enable-background:new    ;}
</style>
<path class="st0" d="M119,56H3c-1.1,0-2-0.9-2-2V3c0-1.1,0.9-2,2-2h116c1.1,0,2,0.9,2,2v51C121,55.1,120.1,56,119,56z"/>
<g class="st1">
	<path d="M18.9,44.6c-1.2,0.8-2.8,1.1-4.8,1.1c-7,0-10-5.4-10-17.3s3.1-17.3,10-17.3c7,0,10,5.4,10,17.3c0,6.2-1,10.8-2.4,13.2
		l3.1,3.6l-2.9,2.8L18.9,44.6z M16.3,35.9l2,2.2c0.7-2,1-5.1,1-9.8c0-11.2-2.3-13.1-5.2-13.1c-2.9,0-5.2,2-5.2,13.1
		c0,11.5,2.3,13.4,5.2,13.4c0.6,0,1.2-0.1,1.7-0.3L13.5,39L16.3,35.9z"/>
	<path d="M27.8,11.8h4.8v28.8h11.7v4.5H27.8V11.8z"/>
	<path d="M47.4,39h4.8v6.2h-4.8V39z"/>
	<path d="M63.7,45.1v-24h-6.2v-3.4h0.5c2.9,0,6.2-0.7,7.1-4.9v-0.7h3.5v33H63.7z"/>
	<path d="M76.6,36.2h4.6v0.9c0,2.5,1.2,4.7,3.9,4.7c3.4,0,4.3-3.6,4.3-7.5c0-3.8-0.9-7-4-7c-2,0-3.5,1.2-3.9,3l-4.3-0.2l1.5-17.3
		h14.5V17H82.3l-1,8.7l0.1,0.1c1.3-1.6,3.1-2.6,5-2.6c6.3,0,7.8,5.8,7.8,10.9c0,6.6-2.8,11.7-9.2,11.7c-5.3,0-8.4-3-8.4-8.9V36.2z"
		/>
	<path d="M98.1,11.8h8.6c9.5,0,10.7,6.8,10.7,16.6s-1.2,16.6-10.7,16.6h-8.6V11.8z M103,41.1h4c4,0,5.6-2.9,5.6-12.6
		c0-9.4-1.4-12.6-5.6-12.6h-4V41.1z"/>
</g>
</svg>
