<?xml version="1.0" encoding="UTF-8"?>
<!DOCTYPE svg PUBLIC "-//W3C//DTD SVG 1.1//EN" "http://www.w3.org/Graphics/SVG/1.1/DTD/svg11.dtd">
<svg xmlns="http://www.w3.org/2000/svg" version="1.1" width="2560px" height="1197px" style="shape-rendering:geometricPrecision; text-rendering:geometricPrecision; image-rendering:optimizeQuality; fill-rule:evenodd; clip-rule:evenodd" xmlns:xlink="http://www.w3.org/1999/xlink">
<g><path style="opacity:0.993" fill="#000000" d="M 51.5,-0.5 C 870.167,-0.5 1688.83,-0.5 2507.5,-0.5C 2535.17,6.5 2552.5,23.8333 2559.5,51.5C 2559.5,415.5 2559.5,779.5 2559.5,1143.5C 2551.14,1175.53 2530.47,1193.19 2497.5,1196.5C 1685.5,1196.5 873.5,1196.5 61.5,1196.5C 28.5344,1193.2 7.8677,1175.53 -0.5,1143.5C -0.5,779.5 -0.5,415.5 -0.5,51.5C 6.5,23.8333 23.8333,6.5 51.5,-0.5 Z"/></g>
<g><path style="opacity:1" fill="#fefefe" d="M 56.5,41.5 C 872.554,41.0008 1688.55,41.5008 2504.5,43C 2510.39,45.8924 2514.56,50.3924 2517,56.5C 2518,417.888 2517.66,779.221 2516,1140.5C 2513.01,1146.82 2508.18,1150.99 2501.5,1153C 1686.5,1153.67 871.5,1153.67 56.5,1153C 49.2417,1150.08 44.4084,1144.91 42,1137.5C 41.3333,777.167 41.3333,416.833 42,56.5C 45.0214,49.6468 49.8548,44.6468 56.5,41.5 Z"/></g>
<g><path style="opacity:1" fill="#000000" d="M 324.5,249.5 C 381.639,248.496 429.139,269.163 467,311.5C 503.103,349.376 525.103,394.376 533,446.5C 535.138,463.435 536.472,480.435 537,497.5C 539.224,578.512 538.89,659.512 536,740.5C 535.158,771.042 529.325,800.542 518.5,829C 543.333,853.167 568.167,877.333 593,901.5C 593.755,904.303 593.422,906.97 592,909.5C 575.333,932.833 558.667,956.167 542,979.5C 540.01,982.722 537.51,983.222 534.5,981C 511.333,958.5 488.167,936 465,913.5C 402.373,973.194 330.539,987.36 249.5,956C 225.684,943.823 204.85,927.656 187,907.5C 152.941,870.036 132.274,826.036 125,775.5C 122.915,757.223 121.582,738.89 121,720.5C 119.502,659.507 119.169,598.507 120,537.5C 120.283,509.449 121.617,481.449 124,453.5C 134.584,376.31 172.084,316.143 236.5,273C 264.025,257.954 293.358,250.121 324.5,249.5 Z"/></g>
<g><path style="opacity:1" fill="#000000" d="M 1718.5,252.5 C 1776.43,249.719 1822.26,271.719 1856,318.5C 1901.03,386.04 1911.36,458.707 1887,536.5C 1877.4,560.599 1863.23,581.599 1844.5,599.5C 1876.92,630.67 1896.42,668.67 1903,713.5C 1909.98,764.337 1904.31,813.671 1886,861.5C 1868.67,902.497 1840.5,933.664 1801.5,955C 1730.28,984.732 1669.11,970.899 1618,913.5C 1596.91,886.602 1582.91,856.269 1576,822.5C 1573.46,810.057 1571.29,797.557 1569.5,785C 1569.76,783.739 1570.43,782.739 1571.5,782C 1599.83,781.333 1628.17,781.333 1656.5,782C 1661.31,796.762 1667.48,810.929 1675,824.5C 1696.3,856.936 1725.47,867.102 1762.5,855C 1787.26,842.989 1803.76,823.822 1812,797.5C 1820.66,764.264 1818.99,731.597 1807,699.5C 1794.61,674.104 1774.78,657.938 1747.5,651C 1731.49,650.833 1715.49,650.333 1699.5,649.5C 1699.19,648.692 1698.69,648.025 1698,647.5C 1697.02,615.748 1697.35,584.081 1699,552.5C 1712.76,551.676 1726.59,551.176 1740.5,551C 1771.38,546.459 1792.55,529.626 1804,500.5C 1817.05,462.594 1812.72,426.927 1791,393.5C 1763.92,359.749 1732.09,354.249 1695.5,377C 1683.05,387.06 1673.88,399.56 1668,414.5C 1664.92,424.991 1662.09,435.491 1659.5,446C 1630.93,446.828 1602.43,446.662 1574,445.5C 1575.9,374.541 1604.73,317.375 1660.5,274C 1678.2,262.157 1697.54,254.991 1718.5,252.5 Z"/></g>
<g><path style="opacity:1" fill="#000000" d="M 2155.5,252.5 C 2228.48,250.241 2285.65,278.907 2327,338.5C 2353.7,376.396 2370.53,418.396 2377.5,464.5C 2377.67,466.693 2377.01,468.527 2375.5,470C 2342.5,470.667 2309.5,470.667 2276.5,470C 2266.39,434.096 2246.39,405.096 2216.5,383C 2194.25,370.64 2170.58,366.974 2145.5,372C 2129.88,375.811 2115.88,382.811 2103.5,393C 2086.18,407.49 2073.68,425.323 2066,446.5C 2056.94,472.37 2052.61,499.037 2053,526.5C 2050.84,591.514 2051.17,656.514 2054,721.5C 2055.12,759.202 2067.12,792.869 2090,822.5C 2124.42,859.385 2164.92,867.885 2211.5,848C 2229.95,837.215 2244.79,822.715 2256,804.5C 2263.39,792.391 2269.72,779.724 2275,766.5C 2275.83,765 2277,763.833 2278.5,763C 2310.17,762.333 2341.83,762.333 2373.5,763C 2374.93,763.465 2376.1,764.299 2377,765.5C 2372.08,807.583 2358.42,846.583 2336,882.5C 2287.99,951.747 2221.82,981.914 2137.5,973C 2098.88,967.686 2065.54,951.686 2037.5,925C 1982.49,871.771 1955.32,806.605 1956,729.5C 1953.75,644.154 1954.09,558.821 1957,473.5C 1963.84,386.777 2003.68,320.277 2076.5,274C 2101.46,261.345 2127.8,254.179 2155.5,252.5 Z"/></g>
<g><path style="opacity:1" fill="#000000" d="M 681.5,260.5 C 712.168,260.333 742.835,260.5 773.5,261C 774,261.5 774.5,262 775,262.5C 775.5,461.833 775.667,661.166 775.5,860.5C 867.501,860.333 959.501,860.5 1051.5,861C 1052.42,861.374 1053.25,861.874 1054,862.5C 1054.67,897.5 1054.67,932.5 1054,967.5C 1053.5,969.333 1052.33,970.5 1050.5,971C 927.833,971.667 805.167,971.667 682.5,971C 681.692,970.692 681.025,970.192 680.5,969.5C 679.334,734.206 679.168,498.873 680,263.5C 680.513,262.473 681.013,261.473 681.5,260.5 Z"/></g>
<g><path style="opacity:1" fill="#000000" d="M 1392.5,968.5 C 1392.83,774.499 1392.5,580.499 1391.5,386.5C 1390.89,386.624 1390.56,386.957 1390.5,387.5C 1365.04,409.124 1339.71,430.957 1314.5,453C 1312.3,453.825 1310.47,453.325 1309,451.5C 1308.33,413.833 1308.33,376.167 1309,338.5C 1337.5,314 1366,289.5 1394.5,265C 1424.5,264.333 1454.5,264.333 1484.5,265C 1485,265.5 1485.5,266 1486,266.5C 1486.67,501.167 1486.67,735.833 1486,970.5C 1455.57,971.662 1425.07,971.829 1394.5,971C 1393.62,970.292 1392.95,969.458 1392.5,968.5 Z"/></g>
<g><path style="opacity:1" fill="#fefefe" d="M 315.5,367.5 C 366.327,365.654 402.494,387.654 424,433.5C 435.302,460.675 440.968,489.008 441,518.5C 442.557,572.823 442.89,627.156 442,681.5C 441.422,703.253 439.756,724.92 437,746.5C 436.667,746.833 436.333,747.167 436,747.5C 414.879,728.013 394.046,708.18 373.5,688C 371.097,687.37 369.263,688.203 368,690.5C 351,714.167 334,737.833 317,761.5C 316.333,763.833 316.333,766.167 317,768.5C 340.012,790.679 362.846,813.013 385.5,835.5C 372.987,846.584 358.321,853.084 341.5,855C 314.281,858.448 289.948,851.781 268.5,835C 238.861,807.845 222.361,774.011 219,733.5C 218.138,723.847 217.471,714.18 217,704.5C 215.531,650.508 215.197,596.508 216,542.5C 216.492,525.136 217.492,507.803 219,490.5C 221.653,459.527 231.987,431.527 250,406.5C 263.696,390.08 280.53,378.247 300.5,371C 305.646,369.875 310.646,368.709 315.5,367.5 Z"/></g>
<g><path style="opacity:1" fill="#cecece" d="M 1390.5,387.5 C 1390.56,386.957 1390.89,386.624 1391.5,386.5C 1392.5,580.499 1392.83,774.499 1392.5,968.5C 1391.83,774.833 1391.17,581.167 1390.5,387.5 Z"/></g>
<g><path style="opacity:1" fill="#030303" d="M 1112.5,860.5 C 1140.74,860.172 1168.91,860.505 1197,861.5C 1198.15,879.412 1198.65,897.412 1198.5,915.5C 1198.33,932.833 1198.17,950.167 1198,967.5C 1197.75,968.624 1197.25,969.624 1196.5,970.5C 1168.54,971.658 1140.54,971.825 1112.5,971C 1112,970.5 1111.5,970 1111,969.5C 1109.35,934.252 1109.01,898.918 1110,863.5C 1111.04,862.627 1111.88,861.627 1112.5,860.5 Z"/></g>
</svg>
