<svg version="1.2" xmlns="http://www.w3.org/2000/svg" viewBox="0 0 122 57" width="512" height="239">
	<title>DHCM,_VNM-svg</title>
	<style>
		.s0 { fill: #ffffff;stroke: #000000;stroke-miterlimit:10;stroke-width: 2 } 
		.s1 { fill: #000000 } 
	</style>
	<path id="Layer" class="s0" d="m119 56h-116c-1.1 0-2-0.9-2-2v-51c0-1.1 0.9-2 2-2h116c1.1 0 2 0.9 2 2v51c0 1.1-0.9 2-2 2z"/>
	<g id="Layer">
		<path id="Ä" fill-rule="evenodd" class="s1" d="m88.5 46h-11.4q-0.3 0-0.3-0.3v-14.4h-2.5q-0.2 0-0.2-0.3v-4.8q0-0.3 0.2-0.3h2.5v-13.7q0-0.3 0.3-0.3h11.7q7 0 10.5 5.8 0.6 1.1 1 2.1 0.4 1 0.6 2 0.2 1.8 0.2 7.2 0 2.8-0.1 4.7-0.1 1.9-0.2 2.9-0.2 1-0.6 1.9-0.4 0.9-1 1.9v-0.1q-1.6 2.4-4.2 4.1-2.7 1.6-6.5 1.6zm-0.2-28.7h-5.8v8.6h6.1q0.3 0 0.3 0.3v4.8q0 0.3-0.3 0.3h-6.1v9.4h5.8q4 0 6-2.8 0.8-1.3 1-2.6 0.1-0.8 0.1-2.3 0.1-1.5 0.1-3.9 0-2.2-0.1-3.7 0-1.6-0.1-2.5-0.3-1.6-1.3-2.9-2-2.7-5.7-2.7z"/>
		<path id="S" class="s1" d="m46.3 41.2l3.3-3.8q0.1-0.1 0.2-0.1 0.1 0 0.2 0.1 1.9 1.5 4.3 2.4 2.4 0.9 5.1 0.9 3 0 4.7-1.3 1.6-1.2 1.6-3.1 0-3.7-4.1-4.3-0.6-0.1-1.1-0.1-0.5-0.1-1.1-0.2-0.5 0-1-0.1-0.6-0.1-1.2-0.2-2.2-0.3-4-1.1-1.7-0.8-2.9-2.2-1.1-1.3-1.7-2.9-0.6-1.6-0.6-3.5 0-4.5 3-7.3 2.9-2.8 8.2-2.8 1.6 0 3.1 0.3 1.5 0.2 2.9 0.7 1.4 0.5 2.6 1.1 1.3 0.7 2.5 1.4 0.2 0.2 0.1 0.4l-2.9 4.2q-0.1 0.2-0.3 0.1-1.9-1.2-3.9-1.8-2.1-0.7-4.3-0.7-1.1 0-2.1 0.2-1 0.3-1.7 0.9-1.5 1.1-1.5 3.4 0 1.3 1 2.5 0.5 0.5 1.4 0.9 0.8 0.4 2.1 0.6 0.7 0.1 1.6 0.3 0.9 0.1 2.1 0.2 4.9 0.6 7.2 3.6 2.3 2.8 2.3 6.4 0 4.7-3.3 7.4-3.3 2.6-8.8 2.6-7.6 0-13-4.7-0.1-0.1-0.1-0.2 0-0.1 0.1-0.2z"/>
		<path id="T" class="s1" d="m36.1 46h-5.1q-0.3 0-0.3-0.3v-28.7h-8.9q-0.3 0-0.3-0.3v-4.5q0-0.3 0.3-0.3h23.4q0.3 0 0.3 0.3v4.5q0 0.3-0.3 0.3h-8.9v28.7q0 0.3-0.2 0.3z"/>
	</g>
</svg>