<?xml version="1.0" encoding="UTF-8" standalone="no"?>
<!-- Created with Inkscape (http://www.inkscape.org/) -->

<svg
   xmlns:dc="http://purl.org/dc/elements/1.1/"
   xmlns:cc="http://creativecommons.org/ns#"
   xmlns:rdf="http://www.w3.org/1999/02/22-rdf-syntax-ns#"
   xmlns:svg="http://www.w3.org/2000/svg"
   xmlns="http://www.w3.org/2000/svg"
   xmlns:sodipodi="http://sodipodi.sourceforge.net/DTD/sodipodi-0.dtd"
   xmlns:inkscape="http://www.inkscape.org/namespaces/inkscape"
   width="600mm"
   height="600mm"
   viewBox="0 0 600 600"
   version="1.1"
   id="svg848"
   inkscape:version="0.92.2 (5c3e80d, 2017-08-06)"
   sodipodi:docname="11.svg">
  <defs
     id="defs842" />
  <sodipodi:namedview
     id="base"
     pagecolor="#ffffff"
     bordercolor="#666666"
     borderopacity="1.0"
     inkscape:pageopacity="0.0"
     inkscape:pageshadow="2"
     inkscape:zoom="0.24745223"
     inkscape:cx="1202.7498"
     inkscape:cy="693.50844"
     inkscape:document-units="mm"
     inkscape:current-layer="layer1"
     showgrid="false"
     inkscape:snap-global="false"
     inkscape:window-width="1920"
     inkscape:window-height="1057"
     inkscape:window-x="-8"
     inkscape:window-y="-8"
     inkscape:window-maximized="1"
     fit-margin-top="0"
     fit-margin-left="0"
     fit-margin-right="0"
     fit-margin-bottom="0"
     showguides="false" />
  <metadata
     id="metadata845">
    <rdf:RDF>
      <cc:Work
         rdf:about="">
        <dc:format>image/svg+xml</dc:format>
        <dc:type
           rdf:resource="http://purl.org/dc/dcmitype/StillImage" />
        <dc:title></dc:title>
      </cc:Work>
    </rdf:RDF>
  </metadata>
  <g
     inkscape:label="Layer 1"
     inkscape:groupmode="layer"
     id="layer1"
     transform="translate(-250,328)">
    <rect
       style="opacity:1;fill:#0046aa;fill-opacity:1;fill-rule:nonzero;stroke:none;stroke-width:2.54325962;stroke-linecap:butt;stroke-linejoin:miter;stroke-miterlimit:10;stroke-dasharray:none;stroke-opacity:1;paint-order:stroke fill markers"
       id="rect1393"
       width="600"
       height="600"
       x="250"
       y="-328" />
    <rect
       y="-323"
       x="255.00012"
       height="590"
       width="590"
       id="rect1395"
       style="opacity:1;fill:#ffffff;fill-opacity:1;fill-rule:nonzero;stroke:none;stroke-width:2.5008719;stroke-linecap:butt;stroke-linejoin:miter;stroke-miterlimit:10;stroke-dasharray:none;stroke-opacity:1;paint-order:stroke fill markers" />
    <rect
       y="-313"
       x="265.00012"
       height="570"
       width="570"
       id="rect1406"
       style="opacity:1;fill:#0046aa;fill-opacity:1;fill-rule:nonzero;stroke:none;stroke-width:2.41609669;stroke-linecap:butt;stroke-linejoin:miter;stroke-miterlimit:10;stroke-dasharray:none;stroke-opacity:1;paint-order:stroke fill markers" />
    <path
       cx="150"
       cy="147"
       r="150"
       id="path8376"
       style="opacity:1;fill:#d35f5f;fill-opacity:1;fill-rule:nonzero;stroke:none;stroke-width:3.92256045;stroke-linecap:butt;stroke-linejoin:miter;stroke-miterlimit:4;stroke-dasharray:none;stroke-opacity:1;paint-order:stroke fill markers"
       d=""
       inkscape:connector-curvature="0" />
    <path
       style="opacity:1;fill:#ffffff;fill-opacity:1;fill-rule:nonzero;stroke:none;stroke-width:7.00459862;stroke-linecap:butt;stroke-linejoin:miter;stroke-miterlimit:4;stroke-dasharray:none;stroke-opacity:1;paint-order:stroke fill markers"
       d="m 675.00026,-199.50016 c 0,-54.569 -43.931,-98.49993 -98.5,-98.49993 H 450.00006 V 22.000002 h 53.1001 V -101.00022 h 73.4001 c 54.569,0 98.5,-43.93094 98.5,-98.49994 z M 621.90016,-202.1 v 5.19968 c 0,25.1516 -20.2482,45.40033 -45.3999,45.40033 h -73.4001 v -96.00034 h 73.4001 c 25.1517,0 45.3999,20.24872 45.3999,45.40033 z"
       id="rect6074"
       inkscape:connector-curvature="0" />
    <path
       style="opacity:1;fill:#ffffff;fill-opacity:1;fill-rule:nonzero;stroke:none;stroke-width:3.69761372;stroke-linecap:butt;stroke-linejoin:miter;stroke-miterlimit:4;stroke-dasharray:none;stroke-opacity:1;paint-order:stroke fill markers"
       d="m 500.00006,232.9 h 135.4 v -11.3 h 164.6 V 247 h -300 z"
       id="rect9641"
       inkscape:connector-curvature="0"
       sodipodi:nodetypes="ccccccc" />
    <path
       style="opacity:1;fill:#ffffff;fill-opacity:1;fill-rule:nonzero;stroke:none;stroke-width:103.75561523;stroke-linecap:round;stroke-linejoin:round;stroke-miterlimit:4;stroke-dasharray:none;stroke-opacity:1;paint-order:stroke fill markers"
       d="m 560.08086,28.865312 c -6.6447,0.46819 -17.956,6.25259 -19.2714,17.18909 l -7.4321,75.556928 c -7.0289,0.4591 -15.6705,9.97704 -15.3697,14.90522 l 2.7736,41.75857 c 2.2803,4.93551 6.221,8.60753 10.3263,11.60767 l 2.2475,33.83856 c 0.3445,5.18524 8.368,8.84533 17.9903,8.20621 9.6223,-0.63913 17.0914,-5.32823 16.747,-10.51346 l -2.2476,-33.83857 c 23.7962,1.22446 47.0974,1.65364 69.5745,0.15173 22.4782,-1.48386 45.5179,-4.99116 68.9432,-9.3521 l 2.2475,33.83859 c 0.3445,5.18523 8.3681,8.84534 17.9903,8.2062 9.6223,-0.6391 17.0914,-5.32819 16.7469,-10.51343 l -2.2475,-33.83857 c 3.6723,-3.51675 7.0928,-7.67768 8.7004,-12.87144 l -2.7736,-41.75858 c -0.354,-4.92459 -10.1778,-13.21614 -17.2056,-12.74153 l -17.3597,-73.910248 c -2.7504,-10.66645 -14.7276,-14.90406 -21.3759,-14.48929 z m 15.3433,12.64818 50.0627,-3.32516 50.0627,-3.32516 c 11.3585,-0.74661 23.9245,5.01311 26.243,13.44291 l 10.4455,44.14178 c 0.2459,1.0966 -0.3272,3.43476 -1.0582,4.77067 -1.5131,2.31167 -4.3159,3.761558 -8.5631,4.040058 -1.6289,0.10819 -10.2767,0.0319 -10.2767,0.0319 -30.9469,0.28377 -40.5117,0.99133 -62.5207,2.12791 -21.9658,1.78426 -31.5399,2.34786 -62.2524,6.15949 0,0 -8.5621,1.21969 -10.191,1.3279 -4.2466,0.28591 -7.2167,-0.78083 -9.0222,-2.87204 -0.9013,-1.2275 -1.7786,-3.46933 -1.6799,-4.58881 l 4.5157,-45.135508 c 1.1832,-8.66242 12.8771,-16.03379 24.2346,-16.79567 z m 36.3809,83.855558 38.7736,-2.57532 39.1469,0.87115 0.4832,7.48856 -116.5943,7.74418 -0.4973,-7.48763 z m -65.1991,5.77674 a 15.874324,15.890219 86.2 0 1 16.9071,14.78647 15.874324,15.890219 86.2 0 1 -14.803,16.89231 15.874324,15.890219 86.2 0 1 -16.9074,-14.78611 15.874324,15.890219 86.2 0 1 14.8033,-16.89267 z m 169.3634,-11.24909 a 15.874324,15.890219 86.2 0 1 16.9071,14.78646 15.874324,15.890219 86.2 0 1 -14.803,16.89231 15.874324,15.890219 86.2 0 1 -16.9075,-14.78611 15.874324,15.890219 86.2 0 1 14.8034,-16.89266 z m -141.8334,26.63156 116.5939,-7.74413 0.7268,10.94369 -116.6083,7.74513 z m 1.2193,18.57631 116.5942,-7.74419 0.5114,7.48671 -38.6878,6.04092 -38.7736,2.57534 -39.147,-0.87113 z"
       id="rect10823"
       inkscape:connector-curvature="0" />
  </g>
</svg>
