<?xml version="1.0" encoding="UTF-8" standalone="no"?>
<!-- Created with Inkscape (http://www.inkscape.org/) -->

<svg
   xmlns:dc="http://purl.org/dc/elements/1.1/"
   xmlns:cc="http://creativecommons.org/ns#"
   xmlns:rdf="http://www.w3.org/1999/02/22-rdf-syntax-ns#"
   xmlns:svg="http://www.w3.org/2000/svg"
   xmlns="http://www.w3.org/2000/svg"
   xmlns:sodipodi="http://sodipodi.sourceforge.net/DTD/sodipodi-0.dtd"
   xmlns:inkscape="http://www.inkscape.org/namespaces/inkscape"
   width="1200mm"
   height="1000mm"
   viewBox="0 0 1200 1000"
   version="1.1"
   id="svg848"
   inkscape:version="0.92.2 (5c3e80d, 2017-08-06)"
   sodipodi:docname="11.svg">
  <defs
     id="defs842" />
  <sodipodi:namedview
     id="base"
     pagecolor="#ffffff"
     bordercolor="#666666"
     borderopacity="1.0"
     inkscape:pageopacity="0.0"
     inkscape:pageshadow="2"
     inkscape:zoom="0.16686372"
     inkscape:cx="2270.2518"
     inkscape:cy="1239.6331"
     inkscape:document-units="mm"
     inkscape:current-layer="layer1"
     showgrid="false"
     inkscape:snap-global="false"
     inkscape:window-width="1920"
     inkscape:window-height="1057"
     inkscape:window-x="-8"
     inkscape:window-y="-8"
     inkscape:window-maximized="1"
     fit-margin-top="0"
     fit-margin-left="0"
     fit-margin-right="0"
     fit-margin-bottom="0"
     showguides="false"
     inkscape:measure-start="0,0"
     inkscape:measure-end="0,0" />
  <metadata
     id="metadata845">
    <rdf:RDF>
      <cc:Work
         rdf:about="">
        <dc:format>image/svg+xml</dc:format>
        <dc:type
           rdf:resource="http://purl.org/dc/dcmitype/StillImage" />
        <dc:title></dc:title>
      </cc:Work>
    </rdf:RDF>
  </metadata>
  <g
     inkscape:label="Layer 1"
     inkscape:groupmode="layer"
     id="layer1"
     transform="translate(0,703)">
    <rect
       style="opacity:1;fill:#0046aa;fill-opacity:1;fill-rule:nonzero;stroke:none;stroke-width:4.64333534;stroke-linecap:butt;stroke-linejoin:miter;stroke-miterlimit:10;stroke-dasharray:none;stroke-opacity:1;paint-order:stroke fill markers"
       id="rect1393"
       width="1200"
       height="1000"
       x="0"
       y="-703" />
    <rect
       y="-698"
       x="5"
       height="990"
       width="1190"
       id="rect1395"
       style="opacity:1;fill:#ffffff;fill-opacity:1;fill-rule:nonzero;stroke:none;stroke-width:4.60077;stroke-linecap:butt;stroke-linejoin:miter;stroke-miterlimit:10;stroke-dasharray:none;stroke-opacity:1;paint-order:stroke fill markers" />
    <rect
       y="-688"
       x="15"
       height="970"
       width="1170"
       id="rect1406"
       style="opacity:1;fill:#0046aa;fill-opacity:1;fill-rule:nonzero;stroke:none;stroke-width:4.51562881;stroke-linecap:butt;stroke-linejoin:miter;stroke-miterlimit:10;stroke-dasharray:none;stroke-opacity:1;paint-order:stroke fill markers" />
    <path
       cx="150"
       cy="147"
       r="150"
       id="path8376"
       style="opacity:1;fill:#d35f5f;fill-opacity:1;fill-rule:nonzero;stroke:none;stroke-width:3.92256045;stroke-linecap:butt;stroke-linejoin:miter;stroke-miterlimit:4;stroke-dasharray:none;stroke-opacity:1;paint-order:stroke fill markers"
       d=""
       inkscape:connector-curvature="0" />
    <g
       aria-label="VỊNH"
       style="font-style:normal;font-variant:normal;font-weight:bold;font-stretch:normal;font-size:299.85394287px;line-height:0;font-family:Giaothong1;-inkscape-font-specification:'Giaothong1 Bold';letter-spacing:0px;word-spacing:0px;fill:#ffcc00;fill-opacity:1;stroke:none;stroke-width:1.56173933"
       id="text3577"
       transform="translate(-4496.0426,2396.6803)">
      <g
         aria-label="VỊNH"
         style="font-style:normal;font-variant:normal;font-weight:bold;font-stretch:normal;font-size:299.85391235px;line-height:0;font-family:Giaothong1;-inkscape-font-specification:'Giaothong1 Bold';letter-spacing:-2.78077078px;word-spacing:0px;fill:#ffcc00;fill-opacity:1;stroke:none;stroke-width:2.43902946"
         id="text3665" />
    </g>
    <g
       aria-label="ĐỊA PHẬN"
       style="font-style:normal;font-variant:normal;font-weight:bold;font-stretch:normal;font-size:210.55525208px;line-height:0;font-family:Giaothong2;-inkscape-font-specification:'Giaothong2 Bold';letter-spacing:0px;word-spacing:25.28887558px;fill:#ffffff;fill-opacity:1;stroke:none;stroke-width:1.0966419"
       id="text858"
       transform="translate(0,702.20592)">
      <path
         d="m 151.1309,-1105.2062 q -1.1309,0 -1.1309,-1.2337 v -63.331 h -10.7951 q -1.1309,0 -1.1309,-1.131 v -21.1789 q 0,-1.2337 1.1309,-1.2337 H 150 v -60.4524 q 0,-1.2337 1.1309,-1.2337 h 51.6107 q 30.7402,0 45.9561,25.3941 2.7759,4.9349 4.5237,9.3558 1.7478,4.4208 2.2618,8.636 1.2337,8.2248 1.2337,31.5627 0,12.5429 -0.4112,20.9733 -0.4112,8.3276 -1.2337,12.5429 -0.8225,4.318 -2.5703,8.4304 -1.6449,4.0096 -4.2152,8.0192 v -0.1028 q -6.8883,10.5894 -18.5058,17.7861 -12.0288,7.1967 -28.4785,7.1967 z m 23.6463,-126.148 v 38.0397 h 26.8335 q 1.2337,0 1.2337,1.2337 v 21.1789 q 0,1.131 -1.2337,1.131 h -26.8335 v 41.124 h 25.4969 q 17.6834,0 26.3195,-12.3372 3.5983,-5.4489 4.318,-11.4119 0.514,-3.29 0.7197,-9.8698 0.3084,-6.6827 0.3084,-16.9637 0,-9.9726 -0.3084,-16.6552 -0.2057,-6.6827 -0.7197,-10.5895 -1.1309,-7.2995 -5.3461,-13.0569 -8.7389,-11.8231 -25.2914,-11.8231 z"
         style="font-style:normal;font-variant:normal;font-weight:bold;font-stretch:normal;font-family:Giaothong2;-inkscape-font-specification:'Giaothong2 Bold';letter-spacing:0px;word-spacing:25.28887558px;fill:#ffffff;stroke:none;stroke-width:1.0966419"
         id="path1125"
         inkscape:connector-curvature="0" />
      <path
         d="m 283.756,-1105.2062 q -1.2337,0 -1.2337,-1.2337 v -147.327 q 0,-1.2337 1.2337,-1.2337 h 22.3098 q 1.2337,0 1.2337,1.2337 v 147.327 q 0,1.2337 -1.2337,1.2337 z m 1.2337,40.5073 q -1.1309,0 -1.1309,-1.131 v -19.8423 q 0,-1.1309 1.1309,-1.1309 h 19.9452 q 1.0281,0 1.0281,1.1309 v 19.8423 q 0,1.131 -1.0281,1.131 z"
         style="font-style:normal;font-variant:normal;font-weight:bold;font-stretch:normal;font-family:Giaothong2;-inkscape-font-specification:'Giaothong2 Bold';letter-spacing:0px;word-spacing:25.28887558px;fill:#ffffff;stroke:none;stroke-width:1.0966419"
         id="path1127"
         inkscape:connector-curvature="0" />
      <path
         d="m 323.852,-1105.309 c -0.4798,0 -0.8225,-0.1713 -1.0281,-0.514 -0.2056,-0.3427 -0.23987,-0.7197 -0.1028,-1.1309 l 53.8725,-147.4298 c 0.13707,-0.5483 0.47977,-0.8225 1.0281,-0.8225 h 18.403 c 0.20567,0 0.4113,0.1028 0.6169,0.3084 0.27413,0.1371 0.44547,0.3084 0.514,0.5141 l 53.7698,147.4298 c 0.13707,0.4112 0.1028,0.7882 -0.1028,1.1309 -0.20567,0.3427 -0.5141,0.514 -0.9253,0.514 h -23.5436 c -0.54827,0 -0.89097,-0.2741 -1.0281,-0.8224 l -11.1035,-32.4881 h -54.2837 c -1.91913,5.5518 -9.49287,27.0048 -11.412,32.4881 -0.0685,0.2056 -0.23987,0.4112 -0.514,0.6168 -0.20567,0.1371 -0.4113,0.2056 -0.6169,0.2056 z m 82.9678,-55.4147 c -0.13707,-0.4797 -19.4654,-57.7107 -19.7396,-58.6018 -0.75393,2.2619 -18.23163,54.2838 -19.7395,58.6018 z"
         style="font-style:normal;font-variant:normal;font-weight:bold;font-stretch:normal;font-family:Giaothong2;-inkscape-font-specification:'Giaothong2 Bold';letter-spacing:0px;word-spacing:25.28887558px;fill:#ffffff;stroke:none;stroke-width:1.0966419"
         id="path1129"
         inkscape:connector-curvature="0"
         sodipodi:nodetypes="scccssccccsscccccsscccc" />
      <path
         d="m 568.9516,-1231.3542 v 45.0308 h 31.974 q 11.8232,0 17.5805,-7.0939 5.8602,-6.8883 5.8602,-15.4215 0,-12.7485 -9.0473,-18.6087 -5.8602,-3.9067 -15.2159,-3.9067 z m -23.5435,126.148 q -1.2337,0 -1.2337,-1.2337 v -147.327 q 0,-1.2337 1.2337,-1.2337 h 53.4613 q 8.8417,0 16.758,1.8506 8.0192,1.8506 17.0665,8.8417 3.4956,2.7758 6.3743,6.477 2.9815,3.5984 5.3461,8.0192 2.2618,4.5237 3.4955,9.9726 1.2338,5.4489 1.2338,11.6175 0,16.1412 -12.1316,30.8431 -12.1316,14.599 -35.2639,14.599 h -32.7965 v 56.34 q 0,1.2337 -1.2337,1.2337 z"
         style="font-style:normal;font-variant:normal;font-weight:bold;font-stretch:normal;font-family:Giaothong2;-inkscape-font-specification:'Giaothong2 Bold';letter-spacing:0px;word-spacing:25.28887558px;fill:#ffffff;stroke:none;stroke-width:1.0966419"
         id="path1131"
         inkscape:connector-curvature="0" />
      <path
         d="m 751.234,-1105.2062 q -1.2337,0 -1.2337,-1.2337 v -63.1254 h -56.0315 v 63.1254 q 0,1.2337 -1.2337,1.2337 h -22.3099 q -1.2337,0 -1.2337,-1.2337 v -147.327 q 0,-1.2337 1.2337,-1.2337 h 22.3099 q 1.2337,0 1.2337,1.2337 v 61.8918 h 56.0315 v -61.8918 q 0,-1.2337 1.2337,-1.2337 h 22.3099 q 1.2337,0 1.2337,1.2337 v 147.327 q 0,1.2337 -1.2337,1.2337 z"
         style="font-style:normal;font-variant:normal;font-weight:bold;font-stretch:normal;font-family:Giaothong2;-inkscape-font-specification:'Giaothong2 Bold';letter-spacing:0px;word-spacing:25.28887558px;fill:#ffffff;stroke:none;stroke-width:1.0966419"
         id="path1133"
         inkscape:connector-curvature="0" />
      <path
         d="m 792.4609,-1105.309 c -0.47973,0 -0.82243,-0.1713 -1.0281,-0.514 -0.2056,-0.3427 -0.23987,-0.7197 -0.1028,-1.1309 l 53.8726,-147.4298 c 0.13707,-0.5483 0.47977,-0.8225 1.0281,-0.8225 h 18.403 c 0.2056,0 0.4112,0.1028 0.6168,0.3084 0.2742,0.1371 0.44557,0.3084 0.5141,0.5141 l 53.7697,147.4298 c 0.13707,0.4112 0.1028,0.7882 -0.1028,1.1309 -0.2056,0.3427 -0.51403,0.514 -0.9253,0.514 h -23.5435 c -0.54833,0 -0.89103,-0.2741 -1.0281,-0.8224 l -11.1035,-32.4881 h -54.2838 c -1.91913,5.5518 -9.49277,27.0048 -11.4119,32.4881 -0.0685,0.2056 -0.2399,0.4112 -0.5141,0.6168 -0.2056,0.1371 -0.4112,0.2056 -0.6168,0.2056 z m 82.9678,-55.4147 c -0.13707,-0.4797 -19.46537,-57.7107 -19.7395,-58.6018 -0.75393,2.2619 -18.23167,54.2838 -19.7396,58.6018 z m -56.6484,-107.5394 c -0.61687,0 -0.99383,-0.2742 -1.1309,-0.8225 -0.13707,-0.5483 3e-5,-0.9938 0.4113,-1.3365 l 30.2262,-23.9548 h 13.8793 l 30.6375,23.9548 c 0.47973,0.3427 0.6168,0.7882 0.4112,1.3365 -0.13707,0.5483 -0.51403,0.8225 -1.1309,0.8225 h -17.2721 l -20.5621,-11.1035 c -3.01573,1.8506 -15.2844,9.2529 -18.3002,11.1035 z m 26.7307,203.5642 c -0.75393,0 -1.1309,-0.377 -1.1309,-1.131 v -19.8423 c 0,-0.7539 0.37697,-1.1309 1.1309,-1.1309 h 19.9452 c 0.6854,0 1.0281,0.377 1.0281,1.1309 v 19.8423 c 0,0.754 -0.3427,1.131 -1.0281,1.131 z"
         style="font-style:normal;font-variant:normal;font-weight:bold;font-stretch:normal;font-family:Giaothong2;-inkscape-font-specification:'Giaothong2 Bold';letter-spacing:0px;word-spacing:25.28887558px;fill:#ffffff;stroke:none;stroke-width:1.0966419"
         id="path1135"
         inkscape:connector-curvature="0"
         sodipodi:nodetypes="scccssccccsscccccssccccsscccccscccssssssssss" />
      <path
         d="m 938.143,-1105.2062 q -1.2338,0 -1.2338,-1.2337 v -147.327 q 0,-1.2337 1.2338,-1.2337 h 21.1789 q 0.6168,0 1.0281,0.6169 l 64.7704,101.9877 v -101.3709 q 0,-1.2337 1.2337,-1.2337 h 22.4126 q 1.2337,0 1.2337,1.2337 v 147.327 q 0,1.2337 -1.2337,1.2337 h -21.0761 q -0.6168,0 -1.0281,-0.6168 l -64.976,-101.9877 v 101.3708 q 0,1.2337 -1.1309,1.2337 z"
         style="font-style:normal;font-variant:normal;font-weight:bold;font-stretch:normal;font-family:Giaothong2;-inkscape-font-specification:'Giaothong2 Bold';letter-spacing:0px;word-spacing:25.28887558px;fill:#ffffff;stroke:none;stroke-width:1.0966419"
         id="path1137"
         inkscape:connector-curvature="0" />
    </g>
    <g
       aria-label="HÀ NAM"
       style="font-style:normal;font-variant:normal;font-weight:bold;font-stretch:normal;font-size:280.74023438px;line-height:0;font-family:Giaothong2;-inkscape-font-specification:'Giaothong2 Bold';letter-spacing:0px;word-spacing:-12.43806267px;fill:#ffffff;fill-opacity:1;stroke:none;stroke-width:1.46218872"
       id="text862"
       transform="translate(-1326.6347,808.28352)">
      <path
         d="m 1561.0247,-861.28352 q -1.645,0 -1.645,-1.64497 v -84.16724 h -74.7087 v 84.16724 q 0,1.64497 -1.6449,1.64497 h -29.7464 q -1.645,0 -1.645,-1.64497 v -196.43591 q 0,-1.645 1.645,-1.645 h 29.7464 q 1.6449,0 1.6449,1.645 v 82.52227 h 74.7087 v -82.52227 q 0,-1.645 1.645,-1.645 h 29.7464 q 1.645,0 1.645,1.645 v 196.43591 q 0,1.64497 -1.645,1.64497 z"
         style="font-style:normal;font-variant:normal;font-weight:bold;font-stretch:normal;font-family:Giaothong2;-inkscape-font-specification:'Giaothong2 Bold';word-spacing:-12.43806267px;fill:#ffffff;fill-opacity:1;stroke:none;stroke-width:1.46218872"
         id="path927"
         inkscape:connector-curvature="0" />
      <path
         d="m 1615.9939,-861.4206 c -0.6398,0 -1.0967,-0.22847 -1.3708,-0.68541 -0.2742,-0.45693 -0.3199,-0.95956 -0.1371,-1.50788 l 71.83,-196.57301 c 0.1828,-0.7311 0.6397,-1.0966 1.3708,-1.0966 h 24.5374 c 0.2741,0 0.5483,0.1371 0.8224,0.4112 0.3656,0.1828 0.594,0.4113 0.6854,0.6854 l 71.693,196.57301 c 0.1827,0.54832 0.1371,1.05095 -0.1371,1.50788 -0.2742,0.45694 -0.6854,0.68541 -1.2337,0.68541 h -31.3914 c -0.7311,0 -1.188,-0.36555 -1.3708,-1.09665 l -14.8047,-43.31734 h -72.3783 c -2.5588,7.40233 -12.6571,36.0064 -15.2159,43.31734 -0.091,0.27416 -0.3198,0.54832 -0.6854,0.82248 -0.2742,0.18278 -0.5483,0.27417 -0.8225,0.27417 z m 110.6237,-73.88623 c -0.1828,-0.63971 -25.9539,-76.94767 -26.3194,-78.13567 -1.0053,3.0157 -24.3089,72.3783 -26.3194,78.13567 z m -18.0946,-143.38587 c -0.1828,0 -0.4113,-0.046 -0.6854,-0.1371 -0.2742,-0.1828 -0.4569,-0.3198 -0.5483,-0.4112 l -37.8342,-40.0275 c -0.5483,-0.5483 -0.6854,-1.1423 -0.4112,-1.782 0.3655,-0.6397 0.9139,-0.9596 1.645,-0.9596 h 30.1576 c 0.5483,0 1.0052,0.2742 1.3708,0.8225 l 28.6498,40.0274 c 0.2741,0.6398 0.2741,1.2338 0,1.7821 -0.1828,0.4569 -0.6398,0.6854 -1.3708,0.6854 z"
         style="font-style:normal;font-variant:normal;font-weight:bold;font-stretch:normal;font-family:Giaothong2;-inkscape-font-specification:'Giaothong2 Bold';word-spacing:-12.43806267px;fill:#ffffff;fill-opacity:1;stroke:none;stroke-width:1.46218872"
         id="path929"
         inkscape:connector-curvature="0"
         sodipodi:nodetypes="scccssccccsscccccssccccsccccsscccss" />
      <path
         d="m 1865.2399,-861.28352 q -1.645,0 -1.645,-1.64497 v -196.43591 q 0,-1.645 1.645,-1.645 h 28.2385 q 0.8225,0 1.3708,0.8225 l 86.3605,135.98357 v -135.16107 q 0,-1.645 1.645,-1.645 h 29.8835 q 1.6449,0 1.6449,1.645 v 196.43591 q 0,1.64497 -1.6449,1.64497 h -28.1015 q -0.8224,0 -1.3708,-0.82249 l -86.6346,-135.98355 v 135.16107 q 0,1.64497 -1.5079,1.64497 z"
         style="font-style:normal;font-variant:normal;font-weight:bold;font-stretch:normal;font-family:Giaothong2;-inkscape-font-specification:'Giaothong2 Bold';word-spacing:-12.43806267px;fill:#ffffff;fill-opacity:1;stroke:none;stroke-width:1.46218872"
         id="path931"
         inkscape:connector-curvature="0" />
      <path
         d="m 2037.8238,-861.4206 c -0.6397,0 -1.0966,-0.22847 -1.3708,-0.68541 -0.2742,-0.45693 -0.3198,-0.95956 -0.1371,-1.50788 l 71.83,-196.57301 c 0.1828,-0.7311 0.6398,-1.0966 1.3709,-1.0966 h 24.5373 c 0.2742,0 0.5483,0.1371 0.8225,0.4112 0.3655,0.1828 0.594,0.4113 0.6854,0.6854 l 71.6929,196.57301 c 0.1828,0.54832 0.1371,1.05095 -0.1371,1.50788 -0.2741,0.45694 -0.6854,0.68541 -1.2337,0.68541 h -31.3913 c -0.7311,0 -1.1881,-0.36555 -1.3708,-1.09665 l -14.8047,-43.31734 h -72.3783 c -2.5589,7.40233 -12.6571,36.0064 -15.2159,43.31734 -0.091,0.27416 -0.3199,0.54832 -0.6854,0.82248 -0.2742,0.18278 -0.5484,0.27417 -0.8225,0.27417 z m 110.6237,-73.88623 c -0.1827,-0.63971 -25.9538,-76.94767 -26.3194,-78.13567 -1.0052,3.0157 -24.3089,72.3783 -26.3194,78.13567 z"
         style="font-style:normal;font-variant:normal;font-weight:bold;font-stretch:normal;font-family:Giaothong2;-inkscape-font-specification:'Giaothong2 Bold';word-spacing:-12.43806267px;fill:#ffffff;fill-opacity:1;stroke:none;stroke-width:1.46218872"
         id="path933"
         inkscape:connector-curvature="0"
         sodipodi:nodetypes="scccssccccsscccccsscccc" />
      <path
         d="m 2232.2036,-861.28352 c -1.0967,0 -1.645,-0.54832 -1.645,-1.64497 v -196.43591 c 0,-1.0966 0.5483,-1.645 1.645,-1.645 h 28.1014 c 0.6397,0 1.1423,0.3199 1.5079,0.9596 l 54.9691,124.60589 c 8.8646,-20.92757 44.6425,-103.67829 53.5984,-124.60589 0.2742,-0.6397 0.7768,-0.9596 1.5079,-0.9596 h 28.1014 c 1.0967,0 1.645,0.5484 1.645,1.645 v 196.43591 c 0,1.09665 -0.5483,1.64497 -1.645,1.64497 h -29.7464 c -1.0966,0 -1.6449,-0.54832 -1.6449,-1.64497 v -115.96984 c -6.3971,14.89605 -32.2139,73.88622 -38.5196,88.69088 -0.3655,0.54833 -0.8681,0.82249 -1.5079,0.82249 h -24.8115 c -0.6397,0 -1.1423,-0.27416 -1.5079,-0.82249 l -38.6566,-88.96504 v 116.244 c 0,1.09665 -0.5483,1.64497 -1.6449,1.64497 z"
         style="font-style:normal;font-variant:normal;font-weight:bold;font-stretch:normal;font-family:Giaothong2;-inkscape-font-specification:'Giaothong2 Bold';word-spacing:-12.43806267px;fill:#ffffff;fill-opacity:1;stroke:none;stroke-width:1.46218872"
         id="path935"
         inkscape:connector-curvature="0"
         sodipodi:nodetypes="ssssscccsssssssccssccsss" />
    </g>
    <g
       aria-label="Km 215+700"
       style="font-style:normal;font-variant:normal;font-weight:bold;font-stretch:normal;font-size:139.13043213px;line-height:0;font-family:Giaothong2;-inkscape-font-specification:'Giaothong2 Bold';letter-spacing:1.23031247px;word-spacing:0px;fill:#ffffff;fill-opacity:1;stroke:none;stroke-width:0.72463769"
       id="text866"
       transform="translate(-1320.0803,720.98082)">
      <path
         d="m 1570.8276,-574.79603 c -0.4982,0 -0.7473,-0.27174 -0.7473,-0.81522 v -97.35054 c 0,-0.54348 0.2491,-0.81522 0.7473,-0.81522 h 14.8098 c 0.5435,0 0.8152,0.27174 0.8152,0.81522 v 48.36956 c 6.4765,-8.19746 32.4049,-40.64764 38.9266,-48.84511 0.2265,-0.22645 0.4303,-0.33967 0.6114,-0.33967 h 17.5272 c 0.3623,0 0.6114,0.15851 0.7473,0.47554 0.1359,0.31703 0.091,0.61142 -0.1359,0.88316 l -30.8424,37.97554 c 5.7519,9.8279 28.4421,48.59601 34.2392,58.42391 0.1359,0.31703 0.1359,0.61141 0,0.88315 -0.091,0.22645 -0.3171,0.33968 -0.6794,0.33968 h -17.5272 c -0.2717,0 -0.4982,-0.13587 -0.6793,-0.40761 l -26.087,-46.60326 c -2.8079,2.89855 -13.3378,13.94927 -16.1005,16.84782 v 29.34783 c 0,0.54348 -0.2717,0.81522 -0.8152,0.81522 z"
         style="font-style:normal;font-variant:normal;font-weight:bold;font-stretch:normal;font-family:Giaothong2;-inkscape-font-specification:'Giaothong2 Bold';letter-spacing:1.23031247px;fill:#ffffff;fill-opacity:1;stroke:none;stroke-width:0.72463769"
         id="path868"
         inkscape:connector-curvature="0"
         sodipodi:nodetypes="ssssssccsscccccsscccsss" />
      <path
         d="m 1659.6938,-574.79603 q -0.8152,0 -0.8152,-0.81522 v -68.88587 q 0,-0.81522 0.8152,-0.81522 h 13.8587 q 0.8152,0 0.8152,0.81522 v 5.50272 q 6.5217,-7.06522 17.3913,-7.06522 7.269,0 11.8206,2.71739 2.0381,1.22283 3.9403,2.71739 1.9021,1.42663 3.6005,3.19294 8.356,-8.62772 21.8071,-8.62772 8.2201,0 16.0326,6.25 7.7445,6.31794 7.7445,18.41033 v 45.78804 q 0,0.81522 -0.8152,0.81522 h -13.8587 q -0.8152,0 -0.8152,-0.81522 v -41.03261 q 0,-6.72554 -3.6005,-10.32609 -3.6685,-3.66847 -9.1712,-3.66847 -5.7065,0 -9.375,3.66847 -3.6006,3.60055 -3.6006,10.32609 v 41.03261 q 0,0.81522 -0.7472,0.81522 h -13.8587 q -0.7473,0 -0.7473,-0.81522 v -41.03261 q 0,-6.65761 -3.6685,-10.32609 -3.6685,-3.66847 -9.1712,-3.66847 -5.7065,0 -9.375,3.66847 -3.5326,3.53261 -3.5326,10.32609 v 41.03261 q 0,0.81522 -0.8152,0.81522 z"
         style="font-style:normal;font-variant:normal;font-weight:bold;font-stretch:normal;font-family:Giaothong2;-inkscape-font-specification:'Giaothong2 Bold';letter-spacing:1.23031247px;fill:#ffffff;fill-opacity:1;stroke:none;stroke-width:0.72463769"
         id="path870"
         inkscape:connector-curvature="0" />
      <path
         d="m 1808.283,-574.79603 q -0.8152,0 -0.8152,-0.81522 v -13.24728 l 38.0435,-47.62228 v 0.0679 q 2.1059,-2.64946 2.7174,-4.82337 0.6114,-2.24185 0.6114,-4.34783 0,-4.6875 -3.3968,-8.83152 -3.3967,-4.07608 -9.1712,-4.07608 -5.2989,0 -9.1712,3.60054 -1.9021,1.7663 -2.9212,4.21196 -0.951,2.37771 -1.2228,5.43478 0,0.33967 -0.2717,0.54348 -0.2038,0.2038 -0.5435,0.2038 h -13.8587 q -0.8152,0 -0.8152,-0.81522 0.1359,-12.09239 8.2201,-20.3125 8.2201,-8.35597 19.5652,-8.35597 12.2962,0 20.7201,8.42391 h -0.068 q 8.356,8.35598 8.356,20.10869 0,5.09511 -1.4946,9.44294 -1.4945,4.34782 -4.4837,8.08424 v -0.0679 q -3.8722,4.89131 -7.6087,9.57881 -3.7364,4.6875 -7.4728,9.375 -3.7364,4.61956 -7.4728,9.30706 -3.7364,4.61957 -7.6087,9.51087 h 35.3261 q 0.8152,0 0.8152,0.81522 v 13.79076 q 0,0.81522 -0.8152,0.81522 z"
         style="font-style:normal;font-variant:normal;font-weight:bold;font-stretch:normal;font-family:Giaothong2;-inkscape-font-specification:'Giaothong2 Bold';letter-spacing:1.23031247px;fill:#ffffff;fill-opacity:1;stroke:none;stroke-width:0.72463769"
         id="path872"
         inkscape:connector-curvature="0" />
      <path
         d="m 1894.6356,-574.59223 q -0.8152,0 -0.8152,-0.81522 v -80.70652 q -3.125,2.30979 -6.25,4.6875 -3.125,2.30979 -6.25,4.55163 -0.4755,0.33968 -0.8831,0.13587 -0.4077,-0.27174 -0.4077,-0.81521 v -14.74185 q 0,-0.13587 0.068,-0.33968 0.1359,-0.2038 0.2718,-0.33967 l 13.9946,-10.12228 h 14.1983 q 0.8152,0 0.8152,0.81522 v 96.87499 q 0,0.81522 -0.8152,0.81522 z"
         style="font-style:normal;font-variant:normal;font-weight:bold;font-stretch:normal;font-family:Giaothong2;-inkscape-font-specification:'Giaothong2 Bold';letter-spacing:1.23031247px;fill:#ffffff;fill-opacity:1;stroke:none;stroke-width:0.72463769"
         id="path874"
         inkscape:connector-curvature="0" />
      <path
         d="m 1927.048,-619.22538 q -0.7473,0 -0.7473,-0.74728 v -52.30978 q 0,-0.81522 0.7473,-0.81522 h 51.4946 q 0.8152,0 0.8152,0.81522 v 13.85869 q 0,0.81522 -0.8152,0.81522 h -37.6359 v 19.49728 q 6.5897,-4.61956 14.6739,-4.61956 2.8533,0 5.4348,0.61141 2.6494,0.54348 4.9592,1.63043 2.2419,1.08696 4.144,2.44566 1.9702,1.29076 3.3289,2.71739 1.9701,2.17391 3.4646,4.6875 1.4946,2.44565 2.4457,5.02717 1.9701,5.29891 1.9701,17.32337 0,4.8913 -0.4076,8.55978 -0.3397,3.66848 -1.1549,6.18207 l 0.068,-0.0679 q -1.4266,4.6875 -4.6875,8.96739 -3.193,3.94022 -8.5598,7.26902 -5.6385,3.3967 -13.0434,3.3967 -9.5788,0 -18.4783,-5.91032 -9.1033,-6.11413 -10.5978,-19.90489 -0.068,-0.33968 0.2038,-0.61142 0.2717,-0.27174 0.6114,-0.27174 h 13.8587 q 0.6793,0 0.8152,0.61142 2.3777,10.66576 13.0435,10.66576 9.6467,0 11.0734,-6.38587 1.7663,-7.06522 1.7663,-13.58696 0,-3.87228 -0.6794,-7.13315 -0.6793,-3.3288 -1.9701,-5.91033 -2.4457,-4.82336 -10.5978,-4.82336 -7.4729,0 -11.7527,7.60869 -0.2718,0.40761 -0.6794,0.40761 z"
         style="font-style:normal;font-variant:normal;font-weight:bold;font-stretch:normal;font-family:Giaothong2;-inkscape-font-specification:'Giaothong2 Bold';letter-spacing:1.23031247px;fill:#ffffff;fill-opacity:1;stroke:none;stroke-width:0.72463769"
         id="path876"
         inkscape:connector-curvature="0" />
      <path
         d="m 2023.1153,-616.03245 v -28.3288 q 0,-0.81522 0.8152,-0.81522 h 10.5978 q 0.8152,0 0.8152,0.81522 v 28.3288 h 28.2609 q 0.8152,0 0.8152,0.81522 v 10.52989 q 0,0.81522 -0.8152,0.81522 h -28.2609 v 28.26087 q 0,0.81522 -0.8152,0.81522 h -10.5978 q -0.8152,0 -0.8152,-0.81522 v -28.26087 h -28.2609 q -0.8152,0 -0.8152,-0.81522 v -10.52989 q 0,-0.81522 0.8152,-0.81522 z"
         style="font-style:normal;font-variant:normal;font-weight:bold;font-stretch:normal;font-family:Giaothong2;-inkscape-font-specification:'Giaothong2 Bold';letter-spacing:1.23031247px;fill:#ffffff;fill-opacity:1;stroke:none;stroke-width:0.72463769"
         id="path878"
         inkscape:connector-curvature="0" />
      <path
         d="m 2079.9841,-643.6819 q -0.8152,0 -0.8152,-0.81522 v -27.78532 q 0,-0.81522 0.8152,-0.81522 h 55.0272 q 0.7473,0 0.7473,0.81522 v 13.92663 l -32.7446,83.0163 q -0.2717,0.54348 -0.7473,0.54348 h -15.557 q -0.4756,0 -0.6794,-0.33968 -0.2038,-0.33967 -0.068,-0.74728 l 32.4049,-81.72554 H 2094.59 v 13.11141 q 0,0.81522 -0.7472,0.81522 z"
         style="font-style:normal;font-variant:normal;font-weight:bold;font-stretch:normal;font-family:Giaothong2;-inkscape-font-specification:'Giaothong2 Bold';letter-spacing:1.23031247px;fill:#ffffff;fill-opacity:1;stroke:none;stroke-width:0.72463769"
         id="path880"
         inkscape:connector-curvature="0" />
      <path
         d="m 2186.5133,-644.49712 q 0,-6.58967 -3.5326,-10.25815 -3.4646,-3.73641 -9.307,-3.73641 -5.8424,0 -9.3071,3.73641 -3.4647,3.66848 -3.4647,10.25815 v 41.10054 q 0,6.65761 3.4647,10.32609 3.4647,3.66848 9.3071,3.66848 5.8424,0 9.307,-3.66848 3.5326,-3.66848 3.5326,-10.32609 z m -41.1005,-0.81522 q 0,-13.72282 8.6277,-21.12771 8.5598,-7.54076 19.6332,-7.54076 5.5027,0 10.394,1.9701 4.9592,1.90218 9.2391,5.57066 4.2799,3.80434 6.4538,9.10326 2.2419,5.23098 2.2419,12.02445 v 42.73098 q 0,13.65489 -8.6957,21.12772 -8.5598,7.47282 -19.6331,7.47282 -11.0734,0 -19.6332,-7.47282 -8.6277,-7.40489 -8.6277,-21.12772 z"
         style="font-style:normal;font-variant:normal;font-weight:bold;font-stretch:normal;font-family:Giaothong2;-inkscape-font-specification:'Giaothong2 Bold';letter-spacing:1.23031247px;fill:#ffffff;fill-opacity:1;stroke:none;stroke-width:0.72463769"
         id="path882"
         inkscape:connector-curvature="0" />
      <path
         d="m 2254.5915,-644.49712 q 0,-6.58967 -3.5326,-10.25815 -3.4647,-3.73641 -9.307,-3.73641 -5.8424,0 -9.3071,3.73641 -3.4647,3.66848 -3.4647,10.25815 v 41.10054 q 0,6.65761 3.4647,10.32609 3.4647,3.66848 9.3071,3.66848 5.8423,0 9.307,-3.66848 3.5326,-3.66848 3.5326,-10.32609 z m -41.1005,-0.81522 q 0,-13.72282 8.6277,-21.12771 8.5598,-7.54076 19.6332,-7.54076 5.5027,0 10.394,1.9701 4.9592,1.90218 9.2391,5.57066 4.2799,3.80434 6.4538,9.10326 2.2419,5.23098 2.2419,12.02445 v 42.73098 q 0,13.65489 -8.6957,21.12772 -8.5598,7.47282 -19.6331,7.47282 -11.0734,0 -19.6332,-7.47282 -8.6277,-7.40489 -8.6277,-21.12772 z"
         style="font-style:normal;font-variant:normal;font-weight:bold;font-stretch:normal;font-family:Giaothong2;-inkscape-font-specification:'Giaothong2 Bold';letter-spacing:1.23031247px;fill:#ffffff;fill-opacity:1;stroke:none;stroke-width:0.72463769"
         id="path884"
         inkscape:connector-curvature="0" />
    </g>
  </g>
</svg>
