<?xml version="1.0" encoding="UTF-8" standalone="no"?>
<!-- Created with Inkscape (http://www.inkscape.org/) -->

<svg
   xmlns:dc="http://purl.org/dc/elements/1.1/"
   xmlns:cc="http://creativecommons.org/ns#"
   xmlns:rdf="http://www.w3.org/1999/02/22-rdf-syntax-ns#"
   xmlns:svg="http://www.w3.org/2000/svg"
   xmlns="http://www.w3.org/2000/svg"
   xmlns:sodipodi="http://sodipodi.sourceforge.net/DTD/sodipodi-0.dtd"
   xmlns:inkscape="http://www.inkscape.org/namespaces/inkscape"
   width="600mm"
   height="800mm"
   viewBox="0 0 600 800"
   version="1.1"
   id="svg848"
   inkscape:version="0.92.2 (5c3e80d, 2017-08-06)"
   sodipodi:docname="11.svg">
  <defs
     id="defs842" />
  <sodipodi:namedview
     id="base"
     pagecolor="#ffffff"
     bordercolor="#666666"
     borderopacity="1.0"
     inkscape:pageopacity="0.0"
     inkscape:pageshadow="2"
     inkscape:zoom="0.17497515"
     inkscape:cx="1229.7062"
     inkscape:cy="1646.7795"
     inkscape:document-units="mm"
     inkscape:current-layer="layer1"
     showgrid="false"
     inkscape:snap-global="false"
     inkscape:window-width="1920"
     inkscape:window-height="1057"
     inkscape:window-x="-8"
     inkscape:window-y="-8"
     inkscape:window-maximized="1"
     fit-margin-top="0"
     fit-margin-left="0"
     fit-margin-right="0"
     fit-margin-bottom="0"
     showguides="false"
     inkscape:measure-start="0,0"
     inkscape:measure-end="0,0" />
  <metadata
     id="metadata845">
    <rdf:RDF>
      <cc:Work
         rdf:about="">
        <dc:format>image/svg+xml</dc:format>
        <dc:type
           rdf:resource="http://purl.org/dc/dcmitype/StillImage" />
        <dc:title></dc:title>
      </cc:Work>
    </rdf:RDF>
  </metadata>
  <g
     inkscape:label="Layer 1"
     inkscape:groupmode="layer"
     id="layer1"
     transform="translate(-50,753)">
    <rect
       style="opacity:1;fill:#0046aa;fill-opacity:1;fill-rule:nonzero;stroke:none;stroke-width:2.93670321;stroke-linecap:butt;stroke-linejoin:miter;stroke-miterlimit:10;stroke-dasharray:none;stroke-opacity:1;paint-order:stroke fill markers"
       id="rect1393"
       width="600"
       height="800"
       x="50"
       y="-753" />
    <rect
       y="-748"
       x="55"
       height="790"
       width="590"
       id="rect1395"
       style="opacity:1;fill:#ffffff;fill-opacity:1;fill-rule:nonzero;stroke:none;stroke-width:2.89386988;stroke-linecap:butt;stroke-linejoin:miter;stroke-miterlimit:10;stroke-dasharray:none;stroke-opacity:1;paint-order:stroke fill markers" />
    <rect
       y="-738"
       x="65"
       height="770"
       width="570"
       id="rect1406"
       style="opacity:1;fill:#0046aa;fill-opacity:1;fill-rule:nonzero;stroke:none;stroke-width:2.80816269;stroke-linecap:butt;stroke-linejoin:miter;stroke-miterlimit:10;stroke-dasharray:none;stroke-opacity:1;paint-order:stroke fill markers" />
    <path
       cx="150"
       cy="147"
       r="150"
       id="path8376"
       style="opacity:1;fill:#d35f5f;fill-opacity:1;fill-rule:nonzero;stroke:none;stroke-width:3.92256045;stroke-linecap:butt;stroke-linejoin:miter;stroke-miterlimit:4;stroke-dasharray:none;stroke-opacity:1;paint-order:stroke fill markers"
       d=""
       inkscape:connector-curvature="0" />
    <rect
       style="opacity:1;fill:#ffffff;fill-opacity:1;fill-rule:nonzero;stroke:none;stroke-width:5.07322454;stroke-linecap:butt;stroke-linejoin:miter;stroke-miterlimit:4;stroke-dasharray:none;stroke-opacity:1;paint-order:stroke fill markers"
       id="rect828"
       width="500"
       height="500"
       x="100"
       y="-703" />
    <g
       transform="matrix(1.0004876,0,0,1.0004876,-290.77787,824.33304)"
       id="g924"
       style="font-style:normal;font-variant:normal;font-weight:bold;font-stretch:normal;font-size:159.07623291px;line-height:0;font-family:Giaothong2;-inkscape-font-specification:'Giaothong2 Bold';letter-spacing:0px;word-spacing:0px;fill:#000000;fill-opacity:1;stroke:none;stroke-width:0.82852203"
       aria-label="TRẠM">
      <g
         id="g922"
         style="font-style:normal;font-variant:normal;font-weight:bold;font-stretch:normal;font-size:161.34654236px;line-height:0;font-family:Giaothong2;-inkscape-font-specification:'Giaothong2 Bold';letter-spacing:3.35592604px;word-spacing:0px;fill:#000000;fill-opacity:1;stroke:none;stroke-width:0.69624561"
         aria-label="TRẠM" />
    </g>
    <g
       aria-label="CSGT"
       style="font-style:normal;font-variant:normal;font-weight:bold;font-stretch:normal;font-size:193.59892273px;line-height:0;font-family:Giaothong2;-inkscape-font-specification:'Giaothong2 Bold';letter-spacing:9.27629185px;word-spacing:0px;fill:#000000;fill-opacity:1;stroke:none;stroke-width:1.00832772"
       id="text851"
       transform="translate(-605.28405,220.60698)">
      <path
         d="m 827.27258,-664.82238 q 0.56718,0 0.9453,0.47266 0.37813,0.37812 0.18906,0.9453 -3.97029,19.28427 -17.58271,29.68265 -6.61715,5.01013 -14.36867,7.56246 -7.75152,2.55233 -16.73194,2.55233 -16.35382,0 -27.50844,-7.84605 -10.96557,-7.75152 -15.88116,-17.01553 -1.70156,-3.21405 -2.93046,-6.42809 -1.2289,-3.30858 -1.89061,-6.90074 -1.2289,-6.99528 -1.2289,-31.76233 0,-12.38352 0.28359,-20.22957 0.28359,-7.84605 0.94531,-11.43822 0.66171,-3.59217 1.89061,-6.90074 1.2289,-3.30858 2.93046,-6.52262 4.91559,-9.16948 15.88116,-17.01553 11.06009,-7.94058 27.50844,-7.94058 19.66239,0 32.51857,12.09993 13.04524,12.19446 16.16475,28.9264 0.18907,0.56719 -0.18906,0.94531 -0.37812,0.37812 -0.9453,0.37812 h -21.64754 q -0.85078,0 -1.03984,-0.75624 -1.2289,-3.78123 -3.49764,-6.99528 -2.26874,-3.30857 -5.57731,-6.1445 -6.23903,-5.57731 -15.78663,-5.57731 -7.08981,0 -12.09993,2.83592 -5.01013,2.83593 -8.03512,6.52262 -1.79608,2.26874 -3.11951,5.19919 -1.32343,2.83593 -2.07968,5.86091 -0.75624,3.21404 -1.03983,9.92572 -0.2836,6.71169 -0.2836,16.82647 0,10.30385 0.2836,17.01553 0.28359,6.61715 1.03983,9.8312 0.75625,2.93045 2.07968,5.8609 1.41796,2.83593 3.11951,5.01013 3.02499,3.97029 8.03512,6.80621 5.01012,2.7414 12.09993,2.7414 16.35381,0 24.86158,-17.86631 0.18906,-0.18906 0.47266,-0.37812 0.28359,-0.2836 0.56718,-0.2836 z"
         style="font-style:normal;font-variant:normal;font-weight:bold;font-stretch:normal;font-family:Giaothong2;-inkscape-font-specification:'Giaothong2 Bold';letter-spacing:9.27629185px;fill:#000000;stroke:none;stroke-width:1.00832772"
         id="path857"
         inkscape:connector-curvature="0" />
      <path
         d="m 858.73109,-659.52866 q 0.2836,-0.37812 0.75625,-0.37812 0.47265,0 0.85078,0.28359 7.46792,6.04997 17.11006,9.73667 9.73666,3.59217 20.51316,3.59217 12.09994,0 19.09521,-5.01013 6.61715,-4.82107 6.61715,-12.76165 0,-14.93586 -16.73194,-17.20459 h 0.0945 q -2.36326,-0.28359 -4.53747,-0.56719 -2.07968,-0.28359 -4.25388,-0.56718 -2.07968,-0.28359 -4.34842,-0.56719 -2.1742,-0.37812 -4.82106,-0.75624 -8.88589,-1.2289 -15.88117,-4.44295 -6.90074,-3.30857 -11.62727,-8.69682 -4.72654,-5.48278 -7.08981,-11.91087 -2.36327,-6.52262 -2.36327,-14.17961 0,-17.96084 11.91087,-29.21 12.00541,-11.43821 33.36935,-11.43821 6.33356,0 12.28899,1.13437 6.04997,1.03983 11.62728,2.93045 5.67185,1.89061 10.77651,4.53747 5.19919,2.55233 9.92572,5.67185 0.94531,0.66171 0.28359,1.60702 l -11.43821,16.921 q -0.66172,0.85077 -1.5125,0.28359 -7.37339,-4.63201 -15.6921,-7.3734 -8.3187,-2.83592 -17.20459,-2.83592 -4.53747,0 -8.41323,1.13437 -3.87576,1.03984 -6.99528,3.49764 -6.14449,4.44294 -6.14449,13.51789 0,5.19919 4.15935,10.11479 2.07968,2.26874 5.57731,3.87576 3.49764,1.51249 8.6023,2.26874 2.74139,0.47265 6.42809,1.03983 3.6867,0.47266 8.69682,1.03984 19.3788,2.36327 28.73734,14.27414 9.35855,11.62728 9.35855,25.90142 0,19.09521 -13.32884,29.87171 -13.42336,10.58744 -35.35449,10.58744 -30.91154,0 -52.55908,-18.90615 -0.37812,-0.28359 -0.37812,-0.75624 0,-0.47266 0.28359,-0.85078 z"
         style="font-style:normal;font-variant:normal;font-weight:bold;font-stretch:normal;font-family:Giaothong2;-inkscape-font-specification:'Giaothong2 Bold';letter-spacing:9.27629185px;fill:#000000;stroke:none;stroke-width:1.00832772"
         id="path859"
         inkscape:connector-curvature="0" />
      <path
         d="m 1019.3517,-679.85276 q -1.1344,0 -1.1344,-1.13437 v -19.47333 q 0,-1.03984 1.1344,-1.03984 h 48.1161 q 1.1344,0 1.1344,1.03984 v 27.60297 q 0,20.89129 -14.3687,34.97637 -14.5577,14.27414 -35.0709,14.27414 -16.3538,0 -27.50843,-7.84605 -10.96556,-7.75152 -15.88116,-17.01553 h 0.0945 q -1.79608,-3.21405 -3.02498,-6.42809 -1.2289,-3.30858 -1.89062,-6.90074 -0.56718,-3.59217 -0.94531,-11.43822 -0.28359,-7.94058 -0.28359,-20.32411 0,-12.38352 0.28359,-20.22957 0.37813,-7.84605 0.94531,-11.43822 0.66172,-3.59217 1.89062,-6.90074 1.2289,-3.30858 3.02498,-6.52262 h -0.0945 q 4.9156,-9.16948 15.88116,-17.01553 11.06013,-7.94058 27.50843,-7.94058 19.6624,0 32.5186,12.09993 13.0452,12.09993 16.1647,28.9264 0.1891,0.56719 -0.189,0.94531 -0.3782,0.37812 -0.9453,0.37812 h -21.6476 q -0.8508,0 -1.0398,-0.75624 -1.2289,-3.78123 -3.4977,-6.99528 -2.2687,-3.30857 -5.5773,-6.1445 -6.239,-5.57731 -15.7866,-5.57731 -7.0898,0 -12.0999,2.83592 -5.0102,2.83593 -8.03513,6.52262 -1.79609,2.26874 -3.11952,5.19919 -1.32343,2.83593 -2.07967,5.86091 -0.75625,3.21404 -1.03984,9.92572 -0.28359,6.71169 -0.28359,16.82647 0,10.30385 0.28359,17.01553 0.28359,6.61715 1.03984,9.8312 0.75624,2.93045 2.07967,5.8609 1.41796,2.83593 3.11952,5.01013 3.02493,3.97029 8.03513,6.80621 5.0101,2.7414 12.0999,2.7414 11.2492,0 18.9062,-7.65699 7.7515,-7.65699 7.7515,-20.04052 v -5.8609 z"
         style="font-style:normal;font-variant:normal;font-weight:bold;font-stretch:normal;font-family:Giaothong2;-inkscape-font-specification:'Giaothong2 Bold';letter-spacing:9.27629185px;fill:#000000;stroke:none;stroke-width:1.00832772"
         id="path861"
         inkscape:connector-curvature="0" />
      <path
         d="m 1121.5805,-624.74135 q -1.1343,0 -1.1343,-1.13437 V -741.95945 H 1084.43 q -1.1344,0 -1.1344,-1.13437 v -18.24443 q 0,-1.13436 1.1344,-1.13436 h 94.7198 q 1.1343,0 1.1343,1.13436 v 18.24443 q 0,1.13437 -1.1343,1.13437 h -35.9217 v 116.08373 q 0,1.13437 -1.1344,1.13437 z"
         style="font-style:normal;font-variant:normal;font-weight:bold;font-stretch:normal;font-family:Giaothong2;-inkscape-font-specification:'Giaothong2 Bold';letter-spacing:9.27629185px;fill:#000000;stroke:none;stroke-width:1.00832772"
         id="path863"
         inkscape:connector-curvature="0" />
    </g>
    <g
       aria-label="POLICE"
       style="font-style:normal;font-variant:normal;font-weight:bold;font-stretch:normal;font-size:145.19918823px;line-height:0;font-family:Giaothong2;-inkscape-font-specification:'Giaothong2 Bold';letter-spacing:1.91558337px;word-spacing:0px;fill:#000000;fill-opacity:1;stroke:none;stroke-width:0.75624573"
       id="text855"
       transform="translate(50,-233.09536)">
      <path
         d="m 92.08642,142.25269 v 31.05334 h 22.04929 q 8.15328,0 12.12357,-4.89196 4.04119,-4.75017 4.04119,-10.63471 0,-8.79136 -6.23903,-12.83254 -4.04119,-2.69413 -10.49291,-2.69413 z m -16.23565,86.9919 Q 75,229.24459 75,228.39381 V 126.79692 q 0,-0.85078 0.85077,-0.85078 h 36.86698 q 6.09723,0 11.55638,1.27617 5.53005,1.27616 11.76908,6.09723 2.41053,1.91424 4.39568,4.46657 2.05604,2.48144 3.6867,5.53005 1.55975,3.11951 2.41053,6.87711 0.85078,3.7576 0.85078,8.01148 0,11.13099 -8.36597,21.26941 -8.36597,10.06752 -24.31803,10.06752 H 92.08642 v 38.85213 q 0,0.85078 -0.85077,0.85078 z"
         style="font-style:normal;font-variant:normal;font-weight:bold;font-stretch:normal;font-family:Giaothong2;-inkscape-font-specification:'Giaothong2 Bold';letter-spacing:1.91558337px;fill:#ffffff;stroke:none;stroke-width:0.75624573"
         id="path866"
         inkscape:connector-curvature="0" />
      <path
         d="m 159.72449,177.63081 q 0,-9.28764 0.2127,-15.17218 0.28359,-5.88454 0.70898,-8.57866 0.49628,-2.69413 1.41796,-5.17556 0.92167,-2.48143 2.26873,-4.89196 h -0.0709 q 3.6867,-6.87711 11.91087,-12.76165 8.29507,-5.95544 20.63133,-5.95544 12.19446,0 20.48953,5.95544 8.36597,6.02633 12.05267,12.76165 2.62323,4.82106 3.5449,10.06752 0.49629,2.69412 0.70898,8.57866 0.2836,5.88454 0.2836,15.17218 0,18.2208 -0.99258,23.82174 -0.49628,2.76503 -1.41796,5.24646 -0.85077,2.48143 -2.05604,4.75017 -3.7576,6.80621 -12.12357,12.76165 -8.36596,5.88453 -20.48953,5.88453 -12.26536,0 -20.63133,-5.88453 -8.22417,-5.81364 -11.91087,-12.76165 h 0.0709 q -1.34706,-2.41054 -2.26873,-4.82107 -0.92168,-2.48143 -1.41796,-5.17556 -0.42539,-2.69412 -0.70898,-8.57866 -0.2127,-5.95543 -0.2127,-15.24308 z m 17.08643,0 q 0,7.72789 0.2127,12.76165 0.21269,4.96286 0.77988,7.3734 0.56718,2.19784 1.55975,4.39567 1.06347,2.12695 2.33964,3.7576 2.26874,2.97772 6.02633,5.10466 3.7576,2.05604 9.07495,2.05604 5.24646,0 9.00405,-2.05604 3.7576,-2.12694 5.95544,-5.10466 2.97772,-3.6158 3.89939,-8.15327 1.13437,-4.53748 1.13437,-20.13505 0,-7.72788 -0.28359,-12.69075 -0.2836,-5.03376 -0.85078,-7.37339 -0.49629,-2.26874 -1.48886,-4.39568 -0.99257,-2.19784 -2.33963,-3.89939 -1.06348,-1.34707 -2.62323,-2.62323 -1.48886,-1.27617 -3.40311,-2.19784 -1.91424,-0.99257 -4.18298,-1.55976 -2.26874,-0.63808 -4.82107,-0.63808 -5.31735,0 -9.07495,2.12694 -3.75759,2.12694 -6.02633,4.89197 -1.34706,1.70155 -2.33964,3.89939 -0.99257,2.12694 -1.55975,4.39568 -0.56719,2.41053 -0.77988,7.44429 -0.2127,5.03376 -0.2127,12.61985 z"
         style="font-style:normal;font-variant:normal;font-weight:bold;font-stretch:normal;font-family:Giaothong2;-inkscape-font-specification:'Giaothong2 Bold';letter-spacing:1.91558337px;fill:#ffffff;stroke:none;stroke-width:0.75624573"
         id="path868"
         inkscape:connector-curvature="0" />
      <path
         d="m 254.37472,229.24459 q -0.85078,0 -0.85078,-0.85078 V 126.79692 q 0,-0.85078 0.85078,-0.85078 h 15.38487 q 0.85078,0 0.85078,0.85078 v 86.28291 h 48.70695 q 0.85078,0 0.85078,0.85078 v 14.4632 q 0,0.85078 -0.85078,0.85078 z"
         style="font-style:normal;font-variant:normal;font-weight:bold;font-stretch:normal;font-family:Giaothong2;-inkscape-font-specification:'Giaothong2 Bold';letter-spacing:1.91558337px;fill:#ffffff;stroke:none;stroke-width:0.75624573"
         id="path870"
         inkscape:connector-curvature="0" />
      <path
         d="m 336.90139,229.24459 q -0.85078,0 -0.85078,-0.85078 V 126.79692 q 0,-0.85078 0.85078,-0.85078 h 15.38487 q 0.85078,0 0.85078,0.85078 v 101.59689 q 0,0.85078 -0.85078,0.85078 z"
         style="font-style:normal;font-variant:normal;font-weight:bold;font-stretch:normal;font-family:Giaothong2;-inkscape-font-specification:'Giaothong2 Bold';letter-spacing:1.91558337px;fill:#ffffff;stroke:none;stroke-width:0.75624573"
         id="path872"
         inkscape:connector-curvature="0" />
      <path
         d="m 444.9513,199.18382 q 0.4254,0 0.709,0.35449 0.2836,0.28359 0.1418,0.70898 -2.9777,14.4632 -13.187,22.26198 -4.9629,3.7576 -10.7765,5.67185 -5.8137,1.91424 -12.549,1.91424 -12.2654,0 -20.6313,-5.88453 -8.2242,-5.81364 -11.9109,-12.76165 -1.2762,-2.41054 -2.1978,-4.82107 -0.9217,-2.48143 -1.418,-5.17556 -0.9217,-5.24645 -0.9217,-23.82174 0,-9.28764 0.2127,-15.17218 0.2127,-5.88454 0.709,-8.57866 0.4963,-2.69413 1.418,-5.17556 0.9216,-2.48143 2.1978,-4.89196 3.6867,-6.87711 11.9109,-12.76165 8.295,-5.95544 20.6313,-5.95544 14.7468,0 24.3889,9.07495 9.784,9.14585 12.1236,21.6948 0.1418,0.42539 -0.1418,0.70898 -0.2836,0.2836 -0.709,0.2836 h -16.2356 q -0.6381,0 -0.7799,-0.56719 -0.9217,-2.83592 -2.6232,-5.24645 -1.7016,-2.48143 -4.183,-4.60838 -4.6793,-4.18298 -11.84,-4.18298 -5.3174,0 -9.0749,2.12694 -3.7576,2.12694 -6.0264,4.89197 -1.347,1.70155 -2.3396,3.89939 -0.9926,2.12694 -1.5598,4.39568 -0.5672,2.41053 -0.7799,7.44429 -0.2126,5.03376 -0.2126,12.61985 0,7.72789 0.2126,12.76165 0.2127,4.96286 0.7799,7.3734 0.5672,2.19784 1.5598,4.39567 1.0635,2.12695 2.3396,3.7576 2.2688,2.97772 6.0264,5.10466 3.7575,2.05604 9.0749,2.05604 12.2654,0 18.6462,-13.39973 0.1418,-0.14179 0.3545,-0.28359 0.2127,-0.21269 0.4254,-0.21269 z"
         style="font-style:normal;font-variant:normal;font-weight:bold;font-stretch:normal;font-family:Giaothong2;-inkscape-font-specification:'Giaothong2 Bold';letter-spacing:1.91558337px;fill:#ffffff;stroke:none;stroke-width:0.75624573"
         id="path874"
         inkscape:connector-curvature="0" />
      <path
         d="m 459.2068,229.24459 q -0.8508,0 -0.8508,-0.85078 V 126.79692 q 0,-0.85078 0.8508,-0.85078 h 64.9426 q 0.8507,0 0.8507,0.85078 v 14.60499 q 0,0.85078 -0.8507,0.85078 h -48.707 v 27.22485 h 41.4045 q 0.8508,0 0.8508,0.85077 v 13.75422 q 0,0.77988 -0.8508,0.77988 h -41.4045 v 28.21742 h 48.707 q 0.8507,0 0.8507,0.85078 v 14.4632 q 0,0.85078 -0.8507,0.85078 z"
         style="font-style:normal;font-variant:normal;font-weight:bold;font-stretch:normal;font-family:Giaothong2;-inkscape-font-specification:'Giaothong2 Bold';letter-spacing:1.91558337px;fill:#ffffff;stroke:none;stroke-width:0.75624573"
         id="path876"
         inkscape:connector-curvature="0" />
    </g>
  </g>
</svg>
