<?xml version="1.0" encoding="UTF-8"?>
<!DOCTYPE svg PUBLIC "-//W3C//DTD SVG 1.1//EN" "http://www.w3.org/Graphics/SVG/1.1/DTD/svg11.dtd">
<!-- Creator: CorelDRAW -->
<svg xmlns="http://www.w3.org/2000/svg" xml:space="preserve" width="85.4998mm" height="52.9166mm" version="1.1" style="shape-rendering:geometricPrecision; text-rendering:geometricPrecision; image-rendering:optimizeQuality; fill-rule:evenodd; clip-rule:evenodd"
viewBox="0 0 30508.3 18881.86"
 xmlns:xlink="http://www.w3.org/1999/xlink"
 xmlns:xodm="http://www.corel.com/coreldraw/odm/2003">
 <defs>
  <style type="text/css">
   <![CDATA[
    .fil3 {fill:black}
    .fil0 {fill:#0A9646}
    .fil2 {fill:#FFD70F}
    .fil1 {fill:white}
    .fil7 {fill:black;fill-rule:nonzero}
    .fil6 {fill:#0046AA;fill-rule:nonzero}
    .fil5 {fill:#F00A0A;fill-rule:nonzero}
    .fil4 {fill:white;fill-rule:nonzero}
   ]]>
  </style>
 </defs>
 <g id="Layer_x0020_1">
  <metadata id="CorelCorpID_0Corel-Layer"/>
  <g id="_1786489896784">
   <polygon id="rect15575" class="fil0" points="-0,0 30508.3,0 30508.3,18881.86 -0,18881.86 "/>
   <path id="path15582" class="fil1" d="M758.18 125.17c-344.94,0 -626.44,281.46 -626.44,626.37l0 8316.97 0 1177.05 0 1225.04 0 346.87 0 6306.13c0,344.94 281.5,626.15 626.44,626.15l28991.52 0c344.94,0 626.44,-281.21 626.44,-626.15l-0.04 -6306.1 0 -337.84 0 -1439.39 0 -971.74 0 -8317.01c0,-344.94 -281.5,-626.37 -626.44,-626.37l-28991.48 0zm0 236.07l28991.52 0c218.3,0 390.72,171.99 390.72,390.29l0 8316.97 0 971.74c0,7.49 -0.32,15.34 -0.93,23.41l0 180.02c0,217.02 -174.7,391.72 -391.72,391.72l-201.71 0.07c-4.67,0.18 -9.42,0.43 -13.95,0.43l-28582.31 0c-4.53,0 -9.28,-0.25 -13.99,-0.43l-177.31 0c-217.02,0 -391.72,-174.7 -391.72,-391.72l0 -9490.57c0,-41.43 6.42,-81.28 18.23,-118.72 0.36,-1.11 0.82,-2.18 1.18,-3.28 49.88,-157.93 195.86,-269.94 371.99,-269.94zm-1.78 10512.29l173.81 0 28616.85 0 202.78 0c215.84,0 389.65,173.77 389.65,389.62l0 189.65c0.61,9.31 0.93,18.34 0.93,26.87l0 337.84 0 6306.13c0,136.81 -67.73,255.34 -171.99,324.82 -62.27,42.11 -137.48,66.69 -218.63,66.69l-28993.41 0c-215.84,0 -389.62,-173.77 -389.62,-389.62l0 -6862.39c0,-215.84 173.77,-389.62 389.62,-389.62z"/>
   <polygon id="rect15605" class="fil2" points="1950.54,4176.01 7699.46,4176.01 7699.46,6802.62 1950.54,6802.58 "/>
   <path id="path15631" class="fil3" d="M2145.26 4229.42c-76.57,0 -139.2,62.34 -139.2,138.91l0 2241.88c0,76.57 62.62,138.91 139.2,138.91l5361.55 0c76.57,0 139.2,-62.34 139.2,-138.91l0 -2241.88c0,-76.57 -62.62,-138.91 -139.2,-138.91l-5361.55 0zm0 50.53l5361.55 0c49.35,0 88.39,39.04 88.39,88.39l0 2241.88c0,49.35 -39.04,88.1 -88.39,88.1l-5361.55 0c-49.35,0 -88.39,-38.75 -88.39,-88.1l0 -2241.88c0,-49.35 39.04,-88.39 88.39,-88.39z"/>
   <path id="path17496" class="fil4" d="M25208.73 3413.76l0 4778.47 3345.43 0 0 -4778.47 -3345.43 0zm130.45 156.72l3082.74 0 0 4490.69 -3082.74 0 0 -4490.69zm1290.41 344.33l-210.99 837.39 370.28 -0.04 26.65 -837.39 -185.94 0.04zm316.61 0l26.65 837.39 370.42 -0.04 -211.17 -837.39 -185.9 0.04zm-1502.01 943.37l0 183.37 289.56 104.62 0 55.2 133.2 -0.04 0 -55.2c0,0 197,-29.62 427.26,-50.53 184.37,-16.77 390.08,-25.69 532.84,-26.26 169.81,-0.61 420.87,8.85 636.29,27.23 237.25,20.23 431.58,49.56 431.58,49.56l0 55.2 130.49 0 0 -55.2 289.53 -104.62 0 -183.37 -2870.75 0.04zm869.61 341.8l-632.97 2518.96 948.76 0 131.63 -2518.96 -447.42 0zm685.06 0l131.63 2518.96 948.79 0 -632.97 -2518.96 -447.46 0z"/>
   <circle id="path815" class="fil5" cx="10160.01" cy="14697.43" r="2880.72"/>
   <circle id="circle817" class="fil4" cx="10160.01" cy="14697.43" r="2171.41"/>
   <circle id="circle817-6" class="fil6" cx="20384.76" cy="14697.39" r="2880.7"/>
   <path class="fil4" d="M11583.3 9078.15c-6.74,0 -10.1,-3.39 -10.1,-10.1l0 -1202.21c0,-6.74 3.35,-10.1 10.1,-10.1l768.49 0c6.74,0 10.1,3.35 10.1,10.1l0 172.77c0,6.71 -3.35,10.1 -10.1,10.1l-576.38 0 0 322.1 489.99 0c6.74,0 10.1,3.39 10.1,10.1l0 162.78c0,6.17 -3.35,9.24 -10.1,9.24l-489.99 0 0 333.92 576.38 0c6.74,0 10.1,3.35 10.1,10.03l0 171.17c0,6.74 -3.35,10.1 -10.1,10.1l-768.49 0zm1550.11 0c-3.39,0 -6.21,-1.68 -8.42,-5l-255.09 -432.97c-42.46,72.68 -85,144.83 -127.53,216.48 -42.5,71.54 -84.96,143.73 -127.46,216.48 -2.25,3.32 -5.07,5 -8.39,5l-205.53 0c-4.53,0 -7.64,-1.53 -9.28,-4.64 -1.68,-3.07 -1.39,-6.57 0.86,-10.45l364.89 -611.59c-57.59,-97.38 -114.65,-194.15 -171.17,-290.31 -56.45,-96.24 -113.22,-193.01 -170.31,-290.31 -2.21,-3.89 -2.46,-7.39 -0.75,-10.49 1.64,-3.07 4.42,-4.6 8.31,-4.6l206.46 0c3.35,0 6.1,1.64 8.31,5l231.58 402.75c38.61,-67.15 77.22,-134.13 115.86,-200.89 38.57,-66.87 77.15,-134.13 115.75,-201.85 2.21,-3.35 5,-5 8.39,-5l206.39 0c3.89,0 6.71,1.53 8.39,4.6 1.64,3.1 1.36,6.6 -0.82,10.49l-341.48 580.62c61.55,102.34 122.5,204.28 182.87,305.8 60.41,101.52 121.39,203.42 182.94,305.8 2.21,3.89 2.5,7.39 0.86,10.45 -1.71,3.1 -4.78,4.64 -9.24,4.64l-206.39 0zm526.71 -1029.43l0 367.42 260.94 0c64.34,0 112.15,-19.27 143.41,-57.88 31.9,-37.43 47.89,-79.39 47.89,-125.85 0,-69.33 -24.62,-119.93 -73.83,-151.79 -31.94,-21.27 -73.29,-31.9 -124.17,-31.9l-254.24 0zm-192.11 1029.43c-6.74,0 -10.1,-3.39 -10.1,-10.1l0 -1202.21c0,-6.74 3.35,-10.1 10.1,-10.1l436.25 0c48.1,0 93.67,5.03 136.7,15.09 43.68,10.06 90.13,34.11 139.38,72.11 18.98,15.13 36.47,32.61 52.38,52.49 15.91,19.84 30.33,41.78 43.25,65.83 12.27,24.59 21.77,51.7 28.51,81.36 6.67,29.65 9.99,61.27 9.99,94.81 0,87.85 -32.97,171.74 -98.91,251.67 -66.05,79.43 -161.96,119.18 -287.78,119.18l-267.65 0 0 459.77c0,6.74 -3.35,10.1 -10.1,10.1l-182.02 0zm1194.47 -1040.39l0 344.87 265.94 0c64.91,0 113.54,-17.91 145.98,-53.7 32.47,-35.83 48.71,-78.36 48.71,-127.56 0,-27.94 -4.92,-52.85 -14.74,-74.68 -9.74,-21.77 -23.87,-39.64 -42.39,-53.63 -16.16,-11.2 -35.04,-19.88 -56.63,-26.05 -21.52,-6.17 -44.89,-9.24 -70.08,-9.24l-276.79 0zm-192.11 1040.39c-6.74,0 -10.1,-3.39 -10.1,-10.1l0 -1202.21c0,-6.74 3.35,-10.1 10.1,-10.1l470.61 0c52.06,0 99.05,7.14 140.95,21.41 42,14.24 78.61,34.5 109.9,60.8 16.24,15.09 31.79,32.29 46.64,51.56 14.81,19.3 27.9,40.14 39.36,62.48 11.45,22.41 20.55,46.21 27.3,71.4 6.74,25.16 10.1,51.17 10.1,77.97 0,39.71 -5.6,77.36 -16.81,112.9 -11.2,35.5 -26.87,68.65 -46.99,99.41 -20.73,28.51 -44.78,53.56 -72.15,75.08 -27.37,21.52 -58.41,38.75 -93.1,51.63 45.25,86.67 90.85,173.77 136.73,261.34 45.89,87.49 91.45,174.59 136.77,261.34 1.64,3.89 1.64,7.39 0,10.45 -1.68,3.1 -4.5,4.64 -8.39,4.64l-216.48 0c-1.71,0 -3.35,-0.71 -5,-2.07 -1.71,-1.46 -3.14,-2.71 -4.25,-3.78l-245.85 -507.65 -217.23 0 0 503.41c0,6.74 -3.35,10.1 -10.1,10.1l-182.02 0zm1031.79 0c-6.74,0 -10.1,-3.39 -10.1,-10.1l0 -1202.21c0,-6.74 3.35,-10.1 10.1,-10.1l768.49 0c6.74,0 10.1,3.35 10.1,10.1l0 172.77c0,6.71 -3.35,10.1 -10.1,10.1l-576.38 0 0 322.1 489.99 0c6.74,0 10.1,3.39 10.1,10.1l0 162.78c0,6.17 -3.35,9.24 -10.1,9.24l-489.99 0 0 333.92 576.38 0c6.74,0 10.1,3.35 10.1,10.03l0 171.17c0,6.74 -3.35,10.1 -10.1,10.1l-768.49 0zm946.44 -308.72c1.64,-2.28 3.89,-3.39 6.71,-3.39 2.78,0 5.28,0.86 7.56,2.53 44.17,35.75 94.95,64.44 152.29,86.03 57.27,21.52 117.82,32.26 181.62,32.26 71.58,0 128.06,-14.81 169.49,-44.46 39.14,-28.58 58.7,-66.33 58.7,-113.29 0,-88.35 -49.49,-139.23 -148.51,-152.65l0.86 0c-13.95,-1.71 -27.26,-3.39 -39.82,-5.1 -12.6,-1.64 -25.19,-3.32 -37.79,-5 -12.6,-1.71 -25.44,-3.53 -38.61,-5.5 -13.17,-1.93 -27.55,-4.03 -43.25,-6.21 -52.56,-7.31 -99.38,-20.62 -140.48,-39.93 -41.14,-19.27 -75.72,-44.85 -103.66,-76.79 -27.94,-32.4 -48.88,-67.76 -62.87,-106.08 -14.02,-38.36 -21.05,-80.14 -21.05,-125.39 0,-106.3 35.25,-192.72 105.73,-259.27 71.08,-67.73 169.78,-101.59 296.16,-101.59 37.54,0 74.04,3.21 109.54,9.63 35.5,6.49 69.87,15.31 103.16,26.44 33.29,11.2 65.19,24.51 95.66,39.93 30.44,15.38 59.7,32.26 87.71,50.7 5.6,3.89 6.42,8.67 2.43,14.27l-101.48 150.19c-3.89,5.03 -8.35,5.89 -13.42,2.57 -43.6,-27.44 -90.03,-49.42 -139.23,-65.91 -49.21,-16.49 -100.16,-24.73 -152.76,-24.73 -26.8,0 -51.7,3.21 -74.68,9.63 -22.91,6.42 -43.57,16.88 -62.02,31.44 -36.4,26.3 -54.59,66.3 -54.59,119.96 0,30.79 12.31,60.73 36.93,89.81 12.35,13.38 28.87,24.73 49.56,33.97 20.66,9.24 46.07,16.13 76.29,20.59 16.24,2.78 35.29,5.71 57.13,8.78 21.77,3.07 47.46,6.28 77.11,9.63 114.68,13.99 199.71,56.2 255.09,126.71 55.34,68.8 83,145.41 83,229.87 0,112.97 -39.43,201.36 -118.29,265.12 -79.43,62.69 -184.01,94.02 -313.72,94.02 -182.91,0 -338.41,-55.95 -466.47,-167.85 -2.28,-1.64 -3.43,-3.89 -3.43,-6.71 0,-2.78 0.86,-5.28 2.57,-7.56l120.82 -136.7zm969.49 0c1.71,-2.28 4,-3.39 6.82,-3.39 2.78,0 5.28,0.86 7.56,2.53 44.17,35.75 94.91,64.44 152.19,86.03 57.34,21.52 117.86,32.26 181.62,32.26 71.65,0 128.17,-14.81 169.56,-44.46 39.14,-28.58 58.73,-66.33 58.73,-113.29 0,-88.35 -49.49,-139.23 -148.51,-152.65l0.86 0c-14.02,-1.71 -27.37,-3.39 -39.93,-5.1 -12.6,-1.64 -25.16,-3.32 -37.68,-5 -12.6,-1.71 -25.48,-3.53 -38.61,-5.5 -13.17,-1.93 -27.58,-4.03 -43.25,-6.21 -52.56,-7.31 -99.38,-20.62 -140.48,-39.93 -41.18,-19.27 -75.72,-44.85 -103.66,-76.79 -27.94,-32.4 -48.92,-67.76 -62.87,-106.08 -14.02,-38.36 -21.05,-80.14 -21.05,-125.39 0,-106.3 35.25,-192.72 105.73,-259.27 71.04,-67.73 169.78,-101.59 296.16,-101.59 37.5,0 74.01,3.21 109.51,9.63 35.5,6.49 69.9,15.31 103.19,26.44 33.29,11.2 65.19,24.51 95.63,39.93 30.47,15.38 59.7,32.26 87.71,50.7 5.53,3.89 6.35,8.67 2.46,14.27l-101.48 150.19c-3.89,5.03 -8.39,5.89 -13.42,2.57 -43.6,-27.44 -90.03,-49.42 -139.23,-65.91 -49.24,-16.49 -100.16,-24.73 -152.76,-24.73 -26.83,0 -51.7,3.21 -74.68,9.63 -22.91,6.42 -43.6,16.88 -62.05,31.44 -36.36,26.3 -54.56,66.3 -54.56,119.96 0,30.79 12.31,60.73 36.93,89.81 12.31,13.38 28.83,24.73 49.46,33.97 20.7,9.24 46.17,16.13 76.4,20.59 16.24,2.78 35.22,5.71 57.02,8.78 21.84,3.07 47.56,6.28 77.22,9.63 114.68,13.99 199.71,56.2 255.09,126.71 55.31,68.8 83,145.41 83,229.87 0,112.97 -39.43,201.36 -118.32,265.12 -79.43,62.69 -183.98,94.02 -313.72,94.02 -182.91,0 -338.38,-55.95 -466.47,-167.85 -2.25,-1.64 -3.39,-3.89 -3.39,-6.71 0,-2.78 0.86,-5.28 2.53,-7.56l120.75 -136.7zm1157.11 308.72c-5.53,0 -8.88,-2.53 -10.03,-7.56l-301.27 -1202.32c-1.07,-3.32 -0.5,-6.24 1.71,-8.78 2.28,-2.5 5.07,-3.75 8.42,-3.75l192.97 0c5.6,0 8.96,2.5 10.1,7.53l181.16 821.37c36.93,-137.59 74.15,-274.36 111.61,-410.31 37.5,-135.88 74.97,-272.9 112.43,-411.06 1.14,-5.03 4.5,-7.53 10.1,-7.53l131.7 0c5.03,0 8.1,2.5 9.24,7.53l224.8 821.37c30.22,-137.59 60.41,-274.36 90.63,-410.31 30.22,-135.88 60.41,-272.9 90.63,-411.06 1.07,-5.03 4.39,-7.53 9.99,-7.53l192.97 0c3.39,0 6.21,1.25 8.42,3.75 2.25,2.53 2.82,5.46 1.68,8.78l-301.16 1202.32c-1.14,5.03 -4.5,7.56 -10.1,7.56l-151.9 0c-5.03,0 -8.1,-2.53 -9.17,-7.56l-222.34 -834.75c-36.93,140.34 -73.86,279.61 -110.72,417.77 -36.97,138.13 -73.86,277.14 -110.76,416.98 -1.14,5.03 -4.21,7.56 -9.24,7.56l-151.9 0zm1069.18 -0.86c-3.96,0 -6.78,-1.39 -8.42,-4.14 -1.68,-2.85 -1.96,-5.92 -0.82,-9.28l439.64 -1203.14c1.07,-4.46 3.85,-6.71 8.31,-6.71l150.22 0c1.68,0 3.5,0.68 5.46,2.07 1.96,1.46 3.21,3 3.78,4.64l438.82 1203.14c1.07,3.35 0.79,6.42 -0.86,9.28 -1.71,2.75 -4.21,4.14 -7.56,4.14l-192.11 0c-4.46,0 -7.28,-2.25 -8.42,-6.71l-90.63 -265.08 -442.96 0c-15.66,45.32 -31.19,89.6 -46.53,132.92 -15.41,43.35 -30.97,87.42 -46.64,132.17 -0.5,1.71 -1.78,3.25 -3.78,4.64 -1.96,1.39 -3.75,2.07 -5.39,2.07l-192.11 0zm677 -452.24c-1.14,-3.89 -2.68,-8.06 -4.64,-12.52 -1.93,-4.5 -3.46,-8.42 -4.6,-11.81 -9.49,-27.37 -18.16,-52.7 -25.98,-75.9 -7.81,-23.23 -14.77,-43.5 -20.95,-60.8 -3.89,-11.2 -7.67,-22.12 -11.35,-32.76 -3.64,-10.63 -7.14,-20.73 -10.45,-30.22 -2.85,-8.96 -5.64,-17.48 -8.42,-25.58 -2.82,-8.14 -5.64,-16.09 -8.39,-23.87 -5.03,-16.24 -10.21,-32.47 -15.49,-48.63 -5.35,-16.24 -10.85,-33.04 -16.45,-50.42 -2.75,-7.81 -5.67,-16.45 -8.78,-25.98 -3.07,-9.49 -6.28,-19.55 -9.63,-30.19 -1.68,-5.6 -2.93,-9.96 -3.75,-13.02 -0.82,-3.1 -1.82,-6.17 -2.93,-9.28 -1.14,-3 -2.39,-6.49 -3.78,-10.45 -1.39,-3.93 -3.21,-9.49 -5.5,-16.74 -6.17,18.45 -11.88,35.5 -17.16,51.17 -5.35,15.66 -10.28,30.22 -14.74,43.64 -1.07,3.32 -1.89,6.42 -2.46,9.24 -0.57,2.78 -1.39,5.53 -2.53,8.31 -2.78,9.56 -5.71,18.52 -8.78,26.9 -3.1,8.39 -6.07,16.74 -8.88,25.12 -2.78,8.99 -5.57,17.66 -8.39,26.05 -2.78,8.39 -5.57,16.49 -8.31,24.37 -5.6,16.74 -11.38,34.33 -17.27,52.77 -5.85,18.48 -12.42,37.82 -19.66,57.95 -7.28,20.16 -14.84,41.78 -22.66,64.98 -7.85,23.23 -17.91,52.45 -30.19,87.67l322.1 0zm641.32 453.09c-6.17,0 -9.24,-3.39 -9.24,-10.1l0 -491.6c-60.37,-118 -120.46,-235.79 -180.34,-353.29 -59.84,-117.43 -119.68,-235.18 -179.55,-353.18 -1.71,-3.89 -1.71,-7.28 0,-10.1 1.71,-2.78 4.78,-4.14 9.24,-4.14l191.29 0c1.71,0 3.35,0.68 5,2.07 1.71,1.39 3.1,2.64 4.25,3.78l246.6 515.18c41.43,-86.74 82.39,-172.63 122.93,-257.66 40.61,-84.96 81.57,-170.81 122.93,-257.52 1.14,-1.14 2.53,-2.39 4.25,-3.78 1.64,-1.39 3.28,-2.07 5,-2.07l192.11 0c4.46,0 7.56,1.36 9.28,4.14 1.64,2.82 1.61,6.21 0,10.1l-360.86 706.47 0 491.6c0,6.74 -3.32,10.1 -9.99,10.1l-172.88 0z"/>
   <path class="fil7" d="M3458.94 5815.36c4.53,0 8.31,1.68 11.31,5.1 3.03,3.39 3.78,7.35 2.28,11.88 -31.79,154.25 -102.09,272.97 -210.92,356.11 -52.92,40.11 -110.4,70.33 -172.38,90.74 -62.02,20.37 -128.92,30.58 -200.71,30.58 -130.81,0 -240.82,-31.36 -330.06,-94.13 -87.67,-61.98 -151.19,-130.03 -190.51,-204.1 -13.59,-25.69 -25.3,-51.6 -35.15,-77.72 -9.81,-26.05 -17.34,-53.45 -22.66,-82.21 -9.81,-55.88 -14.7,-182.91 -14.7,-381.05 0,-98.98 1.11,-179.87 3.39,-242.64 2.25,-62.73 6.03,-108.47 11.31,-137.16 5.28,-28.76 12.85,-56.34 22.66,-82.78 9.81,-26.51 21.55,-52.6 35.15,-78.29 39.32,-73.33 102.84,-141.34 190.51,-204.1 88.49,-63.51 198.5,-95.27 330.06,-95.27 157.22,0 287.24,48.39 390.08,145.12 104.3,97.56 168.96,213.24 193.93,347.05 1.5,4.53 0.75,8.31 -2.28,11.35 -3,3 -6.78,4.53 -11.31,4.53l-259.73 0c-6.78,0 -10.95,-3.03 -12.45,-9.06 -9.81,-30.29 -23.84,-58.45 -42,-84.5 -18.13,-26.08 -40.43,-50.45 -66.87,-73.18 -49.92,-44.57 -113.04,-66.83 -189.37,-66.83 -56.7,0 -105.12,11.31 -145.23,33.97 -40.04,22.66 -72.15,48.74 -96.38,78.29 -14.34,18.13 -26.8,38.68 -37.4,61.73 -10.56,23.09 -18.88,46.74 -24.91,70.9 -6.1,25.73 -10.31,65.44 -12.56,119.04 -2.28,53.7 -3.39,121 -3.39,201.85 0,82.46 1.11,150.33 3.39,203.64 2.25,53.24 6.46,92.74 12.56,118.5 6.03,23.41 14.52,46.67 25.48,69.76 10.95,23.05 23.23,43.25 36.82,60.62 24.23,31.79 56.38,58.8 96.38,81.11 40.11,22.27 88.49,33.4 145.23,33.4 130.78,0 230.19,-71.44 298.23,-214.31 1.5,-1.5 3.39,-3.21 5.67,-5.1 2.25,-1.89 4.53,-2.82 6.78,-2.82l259.73 0zm474.86 480.82c-9.06,0 -13.59,-4.53 -13.59,-13.59l0 -1392.64 -432.01 0c-9.06,0 -13.59,-4.53 -13.59,-13.59l0 -218.84c0,-9.06 4.53,-13.59 13.59,-13.59l1136.23 0c9.13,0 13.67,4.53 13.67,13.59l0 218.84c0,9.06 -4.57,13.59 -13.67,13.59l-430.9 0 0 1392.64c0,9.06 -4.53,13.59 -13.59,13.59l-246.14 0zm738.87 0c-9.06,0 -13.59,-4.53 -13.59,-13.59l0 -230.26c0,-9.06 4.53,-13.59 13.59,-13.59l231.29 0c8.39,0 12.56,4.53 12.56,13.59l0 230.26c0,9.06 -4.17,13.59 -12.56,13.59l-231.29 0z"/>
   <path class="fil4" d="M19027.59 14296.44c1.07,-104.48 18.84,-197.75 53.35,-279.82 34.47,-82.03 83.07,-152.29 145.76,-210.81 59.52,-54.34 126.39,-96.38 200.61,-126.14 74.15,-29.76 151.97,-44.67 233.47,-44.67 148.4,0 282.71,44.42 402.85,133.24 112.86,89.88 186.51,219.41 221.02,388.65 2.07,6.32 1.03,11.53 -3.1,15.7 -4.21,4.21 -9.46,6.32 -15.7,6.32l-321.35 0c-8.39,0 -14.09,-3.68 -17.2,-11.06 -46.99,-114.93 -136.34,-173.95 -268.01,-177.09 -189.15,5.21 -283.71,113.9 -283.71,326.06l0 184.98c67.9,-19.91 135.59,-35.58 203,-47.03 67.4,-11.53 131.42,-16.74 192.01,-15.66 146.3,0 271.65,51.17 376.13,153.51 100.34,105.55 149.97,268.05 148.9,487.53l0 203.75c-3.14,214.17 -66.87,377.16 -191.19,488.95 -117.07,110.76 -264.94,168.74 -443.64,173.99 -173.38,-5.25 -318.07,-62.69 -434.08,-172.38 -131.67,-114.93 -198.04,-277.97 -199.11,-489.06l0 -988.94zm347.97 970.17c1.07,214.17 96.16,322.32 285.21,324.46 184.98,-1.07 281.14,-109.22 288.42,-324.46l0 -183.37c-8.35,-212.1 -104.51,-320.25 -288.42,-324.46 -189.08,5.21 -284.14,113.36 -285.21,324.46l0 183.37zm2118.64 -952.97c0,-101.34 -26.9,-180.48 -80.71,-237.47 -53.81,-56.95 -125.64,-85.42 -215.45,-85.42 -89.88,0 -161.46,28.47 -214.77,85.42 -53.24,56.95 -79.86,136.13 -79.86,237.47l0 948.22c0,102.41 26.62,181.84 79.86,238.29 53.31,56.41 124.92,84.6 214.77,84.6 89.81,0 161.64,-28.19 215.45,-84.6 53.81,-56.45 80.71,-135.88 80.71,-238.29l0 -948.22zm-948.22 -18.8c0,-211.03 66.37,-373.52 199.11,-487.42 131.67,-116 282.64,-174.02 452.95,-174.02 84.6,0 164.78,14.88 240.57,44.67 75.79,29.83 146.58,72.93 212.42,129.35 65.76,58.52 115.65,128.24 149.65,209.21 33.97,81 50.95,173.74 50.95,278.21l0 985.9c0,209.99 -66.87,372.45 -200.61,487.46 -131.67,114.93 -282.68,172.38 -452.99,172.38 -170.31,0 -321.28,-57.45 -452.95,-172.38 -132.74,-113.93 -199.11,-276.4 -199.11,-487.46l0 -985.9z"/>
   <path class="fil7" d="M5247.23 6305.81c-9.06,0 -13.77,-4.71 -13.77,-13.74l0 -224.69 644.57 -806.35 0 1.18c23.55,-29.83 38.86,-57.34 45.92,-82.46 6.71,-24.76 10.24,-49.1 10.24,-73.08 0,-53.02 -19.27,-102.91 -57.34,-149.65 -38.5,-45.96 -90.35,-68.72 -155.54,-68.72 -59.73,0 -111.58,20.02 -155.15,60.87 -21.62,20.02 -38.11,43.6 -49.1,70.69 -10.99,27.12 -18.09,58.16 -21.23,92.7 0,3.93 -1.57,6.67 -3.93,9.03 -2.75,2.36 -6.28,3.53 -9.81,3.53l-234.86 0c-9.06,0 -13.77,-4.71 -13.77,-13.74 1.57,-136.66 47.92,-251.38 139.05,-344.05 93.1,-94.27 203.46,-141.41 331.49,-141.41 139.05,0 255.7,47.53 351.15,142.59l-1.18 0c94.27,94.24 141.41,207.78 141.41,340.52 0,57.73 -8.24,110.76 -25.16,159.86 -16.88,49.1 -42.43,94.67 -76.18,137.09l0 -1.18c-43.6,55.38 -86.42,109.19 -128.85,162.21 -42.03,53.02 -84.42,105.66 -126.46,158.29 -42.43,52.63 -84.46,104.87 -126.49,157.5 -42.39,52.63 -85.21,106.44 -128.81,161.82l598.18 0c9.06,0 13.77,4.71 13.77,13.74l0 233.72c0,9.03 -4.71,13.74 -13.77,13.74l-934.38 0zm1175.95 -1166.92c-9.03,0 -13.74,-4.32 -13.74,-13.77l0 -470.54c0,-9.42 4.71,-13.74 13.74,-13.74l932.06 0c8.64,0 12.95,4.32 12.95,13.74l0 235.68 -554.97 1406.13c-2.75,6.28 -7.07,9.42 -12.56,9.42l-263.55 0c-5.14,0 -9.06,-1.96 -11.42,-5.89 -2.36,-3.53 -2.75,-7.85 -1.18,-12.56l549.12 -1384.15 -403 0 0 221.91c0,9.46 -4.32,13.77 -12.56,13.77l-234.9 0z"/>
   <path class="fil4" d="M9856.77 3509.82c-8.49,0 -12.95,-4.42 -12.95,-12.95l0 -1555.71c0,-8.88 4.46,-13.35 12.95,-13.35l235.72 0c8.53,0 12.95,4.46 12.95,13.35l0 1321.14 745.97 0c8.53,0 12.99,4.42 12.99,12.95l0 221.62c0,8.53 -4.46,12.95 -12.99,12.95l-994.64 0zm1232.18 0c-8.53,0 -12.95,-4.42 -12.95,-12.95l0 -1555.71c0,-8.88 4.42,-13.35 12.95,-13.35l235.68 0c8.53,0 12.99,4.46 12.99,13.35l0 1555.71c0,8.53 -4.46,12.95 -12.99,12.95l-235.68 0zm576.59 0c-8.49,0 -12.95,-4.42 -12.95,-12.95l0 -1555.71c0,-8.88 4.46,-13.35 12.95,-13.35l994.64 0c8.53,0 12.99,4.46 12.99,13.35l0 223.48c0,8.53 -4.46,12.95 -12.99,12.95l-745.97 0 0 416.91 634.07 0c8.53,0 12.95,4.46 12.95,12.95l0 210.88c0,7.78 -4.42,11.85 -12.95,11.85l-634.07 0 0 432.11 745.97 0c8.53,0 12.99,4.42 12.99,12.95l0 221.62c0,8.53 -4.46,12.95 -12.99,12.95l-994.64 0zm110.83 -1722.06c-6.67,0 -10.74,-2.6 -11.88,-8.53 -1.46,-5.92 0,-10.38 4.1,-14.09l319.43 -253.09 146.37 0 323.53 253.09c5.17,3.71 6.67,8.17 4.82,14.09 -1.86,5.92 -5.92,8.53 -12.24,8.53l-182.69 0 -217.16 -117.11c-31.51,19.63 -63.73,38.89 -96.34,58.55 -32.61,19.63 -64.87,39.29 -96.73,58.55l-181.19 0zm1124.67 1722.06c-8.49,0 -12.95,-4.42 -12.95,-12.95l0 -1555.71c0,-8.88 4.46,-13.35 12.95,-13.35l223.48 0c4.46,0 8.14,2.25 11.13,6.67l683.71 1076.93 0 -1070.26c0,-8.88 4.42,-13.35 13.35,-13.35l236.43 0c8.88,0 12.95,4.46 12.95,13.35l0 1555.71c0,8.53 -4.07,12.95 -12.95,12.95l-222.37 0c-4.42,0 -8.14,-2.21 -11.1,-6.67l-685.96 -1076.89 0 1070.61c0,8.53 -4.07,12.95 -11.85,12.95l-236.82 0zm2052.98 0c-8.14,0 -11.85,-4.42 -11.85,-12.95l0 -1555.71c0,-8.88 3.71,-13.35 11.85,-13.35l236.82 0c8.53,0 12.95,4.46 12.95,13.35l0 772.66c103.41,-130.81 206.78,-260.87 310.54,-390.22 103.41,-128.96 207.17,-259.41 311.29,-390.22 3.71,-3.71 7.07,-5.57 10.03,-5.57l280.14 0c5.57,0 9.63,2.6 11.85,7.81 2.25,5.17 1.5,9.63 -2.21,14.06l-492.88 607.03c91.92,156.75 183.09,312.4 273.11,466.55 90.06,154.15 181.59,309.79 274.25,466.94 1.86,5.17 2.21,9.63 0.36,13.7 -1.86,4.07 -5.57,5.92 -11.49,5.92l-280.14 0c-4.1,0 -7.78,-2.21 -10.74,-6.67l-416.91 -744.48c-44.85,46.32 -87.85,91.17 -129.35,134.52 -41.11,43.35 -83.75,88.17 -127.85,134.52l0 469.15c0,8.53 -4.42,12.95 -12.95,12.95l-236.82 0zm2253.87 0c-8.88,0 -13.35,-4.42 -13.35,-12.95l0 -666.69 -591.43 0 0 666.69c0,8.53 -4.42,12.95 -12.95,12.95l-235.72 0c-8.49,0 -12.95,-4.42 -12.95,-12.95l0 -1555.71c0,-8.88 4.46,-13.35 12.95,-13.35l235.72 0c8.53,0 12.95,4.46 12.95,13.35l0 653.34 591.43 0 0 -653.34c0,-8.88 4.46,-13.35 13.35,-13.35l235.32 0c8.88,0 13.35,4.46 13.35,13.35l0 1555.71c0,8.53 -4.46,12.95 -13.35,12.95l-235.32 0zm1791.39 -1782.83c4.46,3.68 8.53,7.78 12.95,12.2 47.81,49.67 72.29,114.9 73.76,195.29 2.96,97.84 -40.75,177.16 -131.17,238.68 -37.82,17.41 -78.57,30.01 -122.68,38.14l0 758.96c0,166.39 -55.59,300.16 -166.03,401.71 -109.29,100.41 -242.71,150.83 -399.86,150.83 -157.47,0 -291.63,-50.42 -401.68,-150.83 -109.72,-101.55 -164.92,-235.32 -164.92,-401.71l0 -1029.11c0,-8.88 4.46,-13.35 12.99,-13.35l236.79 0c7.78,0 11.85,4.46 11.85,13.35l0 1003.17c0,104.12 28.9,183.05 87.1,236.43 58.55,54.49 131.17,81.53 217.88,81.53 85.64,0 157.5,-27.05 216.06,-81.53 58.91,-54.09 88.21,-133.06 88.21,-236.43l0 -1003.17c0,-8.88 4.07,-13.35 12.95,-13.35l235.72 0c8.49,0 12.95,4.46 12.95,13.35l0 128.96c65.58,-28.15 99.3,-71.86 100.8,-131.17 -0.75,-47.81 -14.81,-82.28 -42.25,-103.41l108.58 -108.55zm459.16 992.4c0,78.93 1.11,143.76 3.32,194.93 2.25,51.13 6.32,88.92 11.88,113.4 5.92,22.59 14.06,44.82 24.44,66.69 10.38,22.23 22.23,41.5 35.22,58.2 23.34,30.37 54.09,56.31 92.27,77.43 38.54,21.48 84.85,32.26 138.95,32.26 53.74,0 99.7,-10.78 137.88,-32.26 38.54,-21.12 68.9,-47.06 91.53,-77.43 30.37,-37.07 50.03,-78.57 59.66,-124.89 11.49,-46.35 17.41,-148.97 17.41,-308.33 0,-78.93 -1.5,-143.8 -4.46,-194.93 -2.96,-50.78 -7.39,-88.56 -12.95,-112.29 -5.17,-23.34 -12.99,-45.92 -22.98,-67.8 -9.99,-22.23 -21.87,-41.89 -35.93,-59.3 -10.78,-13.7 -23.73,-27.05 -39.29,-40.04 -15.56,-12.95 -33.36,-24.44 -52.99,-34.08 -19.27,-9.99 -40.78,-17.81 -63.76,-24.09 -23.34,-6.32 -47.78,-9.28 -74.11,-9.28 -54.09,0 -100.41,10.74 -138.95,32.61 -38.18,21.87 -68.94,46.71 -92.27,74.86 -13.74,17.41 -25.58,37.07 -35.58,59.3 -10.38,21.87 -18.16,44.46 -24.09,67.8 -5.57,24.48 -9.63,62.62 -11.88,114.15 -2.21,51.13 -3.32,115.61 -3.32,193.08zm884.92 -995.39c5.96,4.82 11.13,10.03 16.31,15.2 47.81,49.67 72.29,114.9 73.76,195.29 2.96,97.84 -40.75,177.16 -131.17,238.68 -14.84,6.67 -29.65,12.95 -44.85,18.52 1.46,2.96 3.32,6.28 5.57,9.99 26.65,48.92 44.82,100.45 54.45,154.18 4.82,27.4 8.53,71.15 11.13,131.17 2.6,60.05 4.07,137.48 4.07,232.36 0,186.01 -5.17,307.58 -15.2,364.64 -5.17,28.55 -12.2,55.24 -21.48,80.43 -8.88,25.55 -19.63,49.67 -31.86,73.01 -38.54,69.3 -100.05,134.52 -185.66,195.29 -85.25,60.02 -190.12,90.06 -313.9,90.06 -125.24,0 -230.51,-30.04 -315.72,-90.06 -84.14,-59.3 -144.91,-124.53 -182.34,-195.29l1.11 0c-14.06,-24.83 -25.55,-49.67 -34.83,-74.5 -9.63,-24.83 -16.66,-51.13 -21.87,-78.93 -4.42,-27.4 -7.78,-71.15 -10.38,-131.56 -2.21,-60.77 -3.68,-138.2 -3.68,-233.08 0,-94.88 1.46,-172.31 3.68,-232.36 2.6,-60.02 5.96,-103.76 10.38,-131.17 5.21,-27.8 12.24,-54.13 21.87,-79.32 9.28,-25.55 20.77,-50.38 34.83,-74.86l-1.11 0c37.43,-70.4 98.2,-135.63 182.34,-195.65 84.5,-60.77 190.12,-91.17 315.72,-91.17 124.53,0 229.4,30.4 313.9,91.17 31.86,23.34 60.41,46.67 85.6,70.76 75.58,-27.4 114.15,-73.72 116.36,-137.84 -0.75,-49.28 -16.31,-84.5 -46.71,-105.62l109.69 -109.33zm274.61 1785.83c-8.49,0 -12.95,-4.42 -12.95,-12.95l0 -1555.71c0,-8.88 4.46,-13.35 12.95,-13.35l223.48 0c4.46,0 8.14,2.25 11.13,6.67l683.71 1076.93 0 -1070.26c0,-8.88 4.42,-13.35 13.35,-13.35l236.43 0c8.88,0 12.95,4.46 12.95,13.35l0 1555.71c0,8.53 -4.07,12.95 -12.95,12.95l-222.37 0c-4.42,0 -8.14,-2.21 -11.1,-6.67l-685.96 -1076.89 0 1070.61c0,8.53 -4.07,12.95 -11.85,12.95l-236.82 0zm2024.86 -632.93c-8.53,0 -12.99,-4.46 -12.99,-12.99l0 -223.84c0,-7.78 4.46,-11.85 12.99,-11.85l552.5 0c8.92,0 13.35,4.07 13.35,11.85l0 317.22c0,159.75 -55.2,293.88 -165.28,401.71 -111.15,109.33 -245.67,163.82 -402.82,163.82 -125.24,0 -230.51,-30.04 -315.72,-90.06 -84.14,-59.3 -144.91,-124.53 -182.34,-195.29l1.11 0c-14.06,-24.83 -25.55,-49.67 -34.83,-74.5 -9.63,-24.83 -16.66,-51.13 -21.87,-78.93 -4.42,-27.4 -7.78,-71.15 -10.38,-131.56 -2.21,-60.77 -3.68,-138.2 -3.68,-233.08 0,-94.88 1.46,-172.31 3.68,-232.36 2.6,-60.02 5.96,-103.76 10.38,-131.17 5.21,-27.8 12.24,-54.13 21.87,-79.32 9.28,-25.55 20.77,-50.38 34.83,-74.86l-1.11 0c37.43,-70.4 98.2,-135.63 182.34,-195.65 84.5,-60.77 190.12,-91.17 315.72,-91.17 150.83,0 275.36,46.32 373.56,138.98 100.05,92.63 161.93,203.42 185.66,332.38 1.46,4.1 0.75,7.78 -2.21,10.74 -2.6,3 -6.32,4.46 -10.78,4.46l-248.63 0c-6.32,0 -10.38,-2.96 -11.88,-8.88 -9.63,-28.9 -22.94,-55.95 -40.39,-80.78 -17.02,-24.83 -38.54,-48.17 -63.73,-70.04 -47.81,-42.6 -108.19,-64.12 -181.59,-64.12 -54.09,0 -100.41,10.74 -138.95,32.61 -38.18,21.87 -68.94,46.71 -92.27,74.86 -13.74,17.41 -25.58,37.07 -35.58,59.3 -10.38,21.87 -18.16,44.46 -24.09,67.8 -5.57,24.48 -9.63,62.62 -11.88,114.15 -2.21,51.13 -3.32,115.61 -3.32,193.08 0,78.93 1.11,143.76 3.32,194.93 2.25,51.13 6.32,88.92 11.88,113.4 5.92,22.59 14.06,44.82 24.44,66.69 10.38,22.23 22.23,41.5 35.22,58.2 23.34,30.37 54.09,56.31 92.27,77.43 38.54,21.48 84.85,32.26 138.95,32.26 86.35,0 158.61,-29.3 217.16,-87.85 59.3,-58.91 89.31,-135.63 89.31,-230.12l0 -67.44 -304.23 0z"/>
   <path class="fil4" d="M13290.05 5338.57l0 475.47 337.59 0c83.39,0 145.26,-24.83 185.66,-74.86 41.14,-48.53 61.91,-102.66 61.91,-162.68 0,-89.71 -31.86,-155.29 -95.63,-196.43 -41.11,-27.76 -94.84,-41.5 -160.46,-41.5l-329.06 0zm-248.67 1332.23c-8.49,0 -12.95,-4.42 -12.95,-12.95l0 -1555.71c0,-8.88 4.46,-13.35 12.95,-13.35l564.42 0c62.23,0 121.18,6.67 177.13,19.66 56.31,12.95 116.36,44.1 180.09,93.38 24.83,19.63 47.46,42.25 67.83,67.83 20.73,25.55 39.29,54.09 55.95,85.21 15.95,31.86 28.15,67.08 37.07,105.26 8.49,38.54 12.95,79.29 12.95,122.64 0,113.79 -42.6,222.37 -128.21,325.74 -85.25,103.01 -209.38,154.18 -372.45,154.18l-346.12 0 0 595.15c0,8.53 -4.42,12.95 -12.95,12.95l-235.72 0zm1566.81 -1346.29l0 446.17 344.26 0c83.75,0 146.76,-22.98 188.65,-69.3 42.21,-46.32 62.98,-101.55 62.98,-165.28 0,-35.97 -6.32,-68.19 -18.91,-96.34 -12.6,-28.55 -31.11,-51.53 -54.84,-69.69 -21.12,-14.45 -45.57,-25.58 -73.36,-33.72 -27.8,-7.78 -57.81,-11.85 -90.42,-11.85l-358.36 0zm-248.67 1346.29c-8.49,0 -12.95,-4.42 -12.95,-12.95l0 -1555.71c0,-8.88 4.46,-13.35 12.95,-13.35l608.88 0c67.44,0 128.21,9.28 182.69,27.8 54.09,18.55 101.55,44.85 141.94,78.57 21.12,19.66 41.11,41.89 60.37,67.08 19.27,24.83 36.32,51.88 51.17,80.78 14.81,28.9 26.3,59.66 35.18,92.27 8.53,32.61 12.99,66.33 12.99,100.8 0,51.49 -7.07,100.05 -21.87,146.01 -14.45,45.92 -34.47,88.92 -60.77,128.96 -26.69,36.68 -57.81,69.3 -93.02,97.09 -35.58,27.8 -75.97,50.03 -120.82,66.69 58.55,112.29 117.86,224.94 177.16,338.34 59.27,113.04 118.22,225.69 176.73,337.98 2.25,5.17 2.25,9.63 0,13.7 -1.82,4.07 -5.53,5.92 -10.74,5.92l-280.14 0c-2.21,0 -4.07,-1.11 -6.32,-2.6 -2.21,-1.82 -4.07,-3.68 -5.53,-5.17l-317.97 -656.66 -281.28 0 0 651.49c0,8.53 -4.42,12.95 -12.95,12.95l-235.72 0zm1355.96 0c-8.49,0 -12.95,-4.42 -12.95,-12.95l0 -1555.71c0,-8.88 4.46,-13.35 12.95,-13.35l994.64 0c8.53,0 12.99,4.46 12.99,13.35l0 223.48c0,8.53 -4.46,12.95 -12.99,12.95l-745.97 0 0 416.91 634.07 0c8.53,0 12.95,4.46 12.95,12.95l0 210.88c0,7.78 -4.42,11.85 -12.95,11.85l-634.07 0 0 432.11 745.97 0c8.53,0 12.99,4.42 12.99,12.95l0 221.62c0,8.53 -4.46,12.95 -12.99,12.95l-994.64 0zm1235.5 0c-8.49,0 -12.95,-4.42 -12.95,-12.95l0 -1555.71c0,-8.88 4.46,-13.35 12.95,-13.35l223.48 0c4.46,0 8.14,2.25 11.13,6.67l683.71 1076.93 0 -1070.26c0,-8.88 4.42,-13.35 13.35,-13.35l236.43 0c8.88,0 12.95,4.46 12.95,13.35l0 1555.71c0,8.53 -4.07,12.95 -12.95,12.95l-222.37 0c-4.42,0 -8.14,-2.21 -11.1,-6.67l-685.96 -1076.89 0 1070.61c0,8.53 -4.07,12.95 -11.85,12.95l-236.82 0zm1520.1 0c-8.49,0 -12.95,-4.42 -12.95,-12.95l0 -1555.71c0,-8.88 4.46,-13.35 12.95,-13.35l223.48 0c4.46,0 8.14,2.25 11.13,6.67l683.71 1076.93 0 -1070.26c0,-8.88 4.42,-13.35 13.35,-13.35l236.43 0c8.88,0 12.95,4.46 12.95,13.35l0 1555.71c0,8.53 -4.07,12.95 -12.95,12.95l-222.37 0c-4.42,0 -8.14,-2.21 -11.1,-6.67l-685.96 -1076.89 0 1070.61c0,8.53 -4.07,12.95 -11.85,12.95l-236.82 0z"/>
   <path class="fil7" d="M8884.32 14312.64c1,-97.16 18.13,-184.8 50.35,-261.84 32.76,-77.04 78.07,-143.48 137.48,-198.36 55.88,-51.38 118.82,-90.63 188.8,-118.86 69.51,-28.19 143.01,-42.28 219.55,-42.28 162.14,0 301.59,53.88 417.41,161.14 117.32,108.26 177.23,261.8 180.27,461.73l0 928.99c-2.03,95.66 -19.13,182.76 -50.35,261.3 -31.72,78.57 -74.54,145.01 -129.92,199.39 -55.88,49.85 -119.32,89.13 -189.33,117.82 -70.47,28.72 -146.51,43.82 -228.08,45.85 -140.48,-4.03 -264.37,-47.35 -371.6,-129.92l0 1.5c-56.41,-43.28 -101.73,-95.16 -136.45,-155.57 -35.25,-60.41 -60.45,-129.92 -76.04,-208.96 -2.03,-5.03 -1.5,-9.06 2,-13.1 3.53,-4.03 8.06,-6.03 14.09,-6.03l301.12 0c6.53,0 12.1,4 16.09,12.06 44.32,109.76 127.92,165.17 250.78,165.17 174.2,-1.03 264.33,-102.73 271.4,-305.65l0 -175.24c-64.98,19.66 -129.42,34.75 -193.36,45.32 -63.94,11.1 -123.85,15.63 -179.77,13.59 -135.95,3.03 -253.27,-46.32 -352.43,-147.51l1.5 0c-97.7,-97.2 -145.01,-249.24 -143.51,-455.7l0 -194.86zm327.81 191.86c0,200.39 89.6,302.09 268.37,305.12 175.24,-3.03 265.33,-104.73 271.4,-305.12l0 -172.74c-8.06,-199.89 -98.2,-301.59 -271.4,-305.12 -177.73,4.53 -267.37,106.26 -268.37,305.12l0 172.74zm2023.61 -174.24c0,-95.16 -25.16,-169.67 -75.54,-223.55 -50.85,-53.38 -118.32,-80.07 -202.89,-80.07 -84.6,0 -152.08,26.69 -202.43,80.07 -49.85,53.88 -75.04,128.38 -75.04,223.55l0 892.74c0,96.16 25.19,170.7 75.04,224.08 50.35,52.85 117.82,79.54 202.43,79.54 84.57,0 152.04,-26.69 202.89,-79.54 50.38,-53.38 75.54,-127.92 75.54,-224.08l0 -892.74zm-892.24 -17.63c0,-198.89 62.44,-351.44 187.3,-458.7 123.89,-109.26 265.87,-163.64 426.51,-163.64 79.54,0 155.08,13.59 226.08,41.78 71.47,28.19 137.95,68.47 199.89,121.86 62.41,54.88 109.26,120.86 140.98,196.86 32.22,76.04 47.81,163.67 47.81,261.84l0 927.99c0,197.39 -62.94,350.47 -188.8,458.7 -123.89,108.26 -265.87,162.14 -425.98,162.14 -160.64,0 -302.62,-53.88 -426.51,-162.14 -124.85,-107.23 -187.3,-260.3 -187.3,-458.7l0 -927.99z"/>
  </g>
 </g>
</svg>
