<?xml version="1.0" encoding="UTF-8" standalone="no"?>
<!-- Created with Inkscape (http://www.inkscape.org/) -->

<svg
   width="100.5mm"
   height="52.50436mm"
   viewBox="0 0 100.5 52.50436"
   version="1.1"
   id="svg128397"
   inkscape:version="1.2.2 (732a01da63, 2022-12-09)"
   sodipodi:docname="drawing.svg"
   xmlns:inkscape="http://www.inkscape.org/namespaces/inkscape"
   xmlns:sodipodi="http://sodipodi.sourceforge.net/DTD/sodipodi-0.dtd"
   xmlns="http://www.w3.org/2000/svg"
   xmlns:svg="http://www.w3.org/2000/svg">
  <sodipodi:namedview
     id="namedview128399"
     pagecolor="#ffffff"
     bordercolor="#000000"
     borderopacity="0.25"
     inkscape:showpageshadow="2"
     inkscape:pageopacity="0.0"
     inkscape:pagecheckerboard="0"
     inkscape:deskcolor="#d1d1d1"
     inkscape:document-units="mm"
     showgrid="false"
     inkscape:zoom="5.7299663"
     inkscape:cx="17.364849"
     inkscape:cy="45.637266"
     inkscape:window-width="1920"
     inkscape:window-height="991"
     inkscape:window-x="-9"
     inkscape:window-y="-9"
     inkscape:window-maximized="1"
     inkscape:current-layer="layer1" />
  <defs
     id="defs128394" />
  <g
     inkscape:label="Layer 1"
     inkscape:groupmode="layer"
     id="layer1"
     transform="translate(-59.874943,-9.6770439)">
    <rect
       style="fill:#0046aa;fill-opacity:1;stroke:none;stroke-width:0.5;stroke-linecap:square;stroke-linejoin:round;stroke-dasharray:none;stroke-opacity:1;paint-order:stroke fill markers"
       id="rect99174"
       width="100"
       height="52.00436"
       x="60.124943"
       y="9.9270439" />
    <g
       id="g105886"
       transform="matrix(0.63465294,0,0,-0.63465294,-418.04297,84.98502)">
      <path
         fill-rule="nonzero"
         fill="#ffffff"
         fill-opacity="1"
         d="m 770.23489,57.685791 c -0.11719,0 -0.20704,0.0391 -0.25782,0.12891 -0.0547,0.0781 -0.0664,0.18359 -0.0273,0.28515 l 13.57028,37.136724 c 0.0273,0.13281 0.11719,0.20703 0.25781,0.20703 h 4.63672 c 0.0508,0 0.10547,-0.0117 0.16797,-0.0625 0.0547,-0.0391 0.0937,-0.0898 0.11719,-0.14453 l 13.54687,-37.136724 c 0.0234,-0.10156 0.0234,-0.1914 -0.0273,-0.28515 -0.0508,-0.0742 -0.12891,-0.12891 -0.23437,-0.12891 h -5.92969 c -0.12891,0 -0.21875,0.0664 -0.25781,0.20703 l -2.79688,8.183591 h -13.67583 c -0.48047,-1.39843 -0.95703,-2.75781 -1.4375,-4.105461 -0.46484,-1.33204 -0.94531,-2.69141 -1.4375,-4.07813 -0.0117,-0.0508 -0.0508,-0.0898 -0.11719,-0.14062 -0.0508,-0.0391 -0.11328,-0.0664 -0.16797,-0.0664 h -5.92968 m 20.89844,13.960941 c -0.0234,0.11328 -0.0781,0.24609 -0.14062,0.38672 -0.0508,0.1289 -0.10547,0.25781 -0.14453,0.36328 -0.28516,0.839841 -0.55469,1.617181 -0.80078,2.343751 -0.23438,0.71093 -0.45313,1.33203 -0.64844,1.8789 -0.11719,0.33594 -0.23047,0.67188 -0.34766,1.00782 -0.10547,0.32421 -0.22265,0.63281 -0.32422,0.93359 -0.0781,0.26953 -0.16797,0.53125 -0.26172,0.78906 -0.0742,0.2461 -0.16796,0.49219 -0.25781,0.73828 -0.15625,0.49219 -0.30859,0.9961 -0.48047,1.5 -0.15234,0.49219 -0.32031,1.01172 -0.5039,1.55469 -0.0781,0.234381 -0.16797,0.503911 -0.26953,0.804691 -0.0937,0.28515 -0.19532,0.59375 -0.30079,0.92969 -0.0508,0.17187 -0.0898,0.30078 -0.11328,0.40234 -0.0273,0.0898 -0.0547,0.18359 -0.0937,0.28516 -0.0234,0.0898 -0.0625,0.19531 -0.11328,0.32421 -0.0391,0.11719 -0.0937,0.28516 -0.17187,0.51954 -0.17969,-0.57032 -0.35938,-1.08985 -0.52735,-1.58204 -0.15625,-0.48046 -0.3125,-0.93359 -0.45703,-1.34765 -0.0234,-0.10156 -0.0508,-0.19141 -0.0742,-0.281251 -0.0156,-0.0781 -0.0391,-0.17188 -0.0781,-0.26172 -0.0781,-0.28516 -0.16797,-0.57031 -0.27344,-0.82813 -0.0898,-0.25781 -0.17969,-0.51953 -0.27344,-0.77734 -0.0781,-0.27344 -0.16797,-0.54297 -0.25781,-0.80469 -0.0781,-0.25781 -0.16797,-0.5039 -0.25781,-0.75 -0.16797,-0.51562 -0.35156,-1.05859 -0.53125,-1.6289 -0.17969,-0.57032 -0.375,-1.16797 -0.60938,-1.78907 -0.21875,-0.62109 -0.45312,-1.28125 -0.69922,-2.00781 -0.23437,-0.71094 -0.54296,-1.617191 -0.93359,-2.703121 h 9.94531"
         id="path97048"
         style="opacity:1;fill:#ffffff" />
      <path
         fill-rule="nonzero"
         fill="#ffffff"
         fill-opacity="1"
         d="m 827.3638,57.662351 c -0.20703,0 -0.3125,0.10156 -0.3125,0.3086 V 73.873293 H 812.93802 V 57.970951 c 0,-0.20704 -0.10547,-0.3086 -0.3125,-0.3086 h -5.61719 c -0.20703,0 -0.3125,0.10156 -0.3125,0.3086 v 37.113284 c 0,0.20703 0.10547,0.30859 0.3125,0.30859 h 5.61719 c 0.20703,0 0.3125,-0.10156 0.3125,-0.30859 V 79.490483 h 14.11328 v 15.593752 c 0,0.20703 0.10547,0.30859 0.3125,0.30859 h 5.61719 c 0.20703,0 0.3125,-0.10156 0.3125,-0.30859 V 57.970951 c 0,-0.20704 -0.10547,-0.3086 -0.3125,-0.3086 h -5.61719"
         id="path97050"
         style="opacity:1;fill:#ffffff" />
      <path
         fill-rule="nonzero"
         fill="#ffffff"
         fill-opacity="1"
         d="m 874.83255,57.662351 c -0.20703,0 -0.30859,0.10156 -0.30859,0.3086 v 5.05078 l 14.50001,18.152342 v -0.0234 c 0.53125,0.67188 0.88281,1.28125 1.03906,1.85157 0.15625,0.554681 0.23047,1.097651 0.23047,1.644531 0,1.1914 -0.42578,2.30468 -1.29297,3.36718 -0.85547,1.03516 -2.01953,1.55079 -3.49609,1.55079 -1.34766,0 -2.51172,-0.45313 -3.4961,-1.3711 -0.48047,-0.4414 -0.84375,-0.97265 -1.10156,-1.59375 -0.24609,-0.60547 -0.40235,-1.30859 -0.48048,-2.08203 0,-0.0781 -0.0234,-0.15625 -0.0898,-0.21094 -0.0508,-0.0508 -0.12891,-0.0742 -0.21875,-0.0742 h -5.28516 c -0.20703,0 -0.30859,0.10157 -0.30859,0.3086 0.0234,3.07031 1.07422,5.64453 3.13281,7.74609 2.08594,2.121101 4.57032,3.183601 7.45704,3.183601 3.1211,0 5.75,-1.0625 7.90235,-3.210941 h -0.0274 c 2.1211,-2.125 3.1836,-4.67578 3.1836,-7.66797 0,-1.29297 -0.17969,-2.484381 -0.57032,-3.597661 -0.375,-1.10156 -0.9414,-2.125 -1.70703,-3.08203 v 0.0273 c -0.98437,-1.24219 -1.9414,-2.46094 -2.90234,-3.65235 -0.94531,-1.191401 -1.89063,-2.371091 -2.84766,-3.562501 -0.94531,-1.17578 -1.89062,-2.35547 -2.84765,-3.54687 -0.94532,-1.17969 -1.91797,-2.39453 -2.90235,-3.63672 h 13.46875 c 0.20703,0 0.3086,-0.10547 0.3086,-0.312501 v -5.25781 c 0,-0.20704 -0.10157,-0.3086 -0.3086,-0.3086 h -21.03126"
         id="path97068"
         style="opacity:1;fill:#ffffff" />
      <path
         id="rect102227"
         style="opacity:1;fill:#ffffff;stroke:none;stroke-width:15.6662;stroke-linecap:square;stroke-linejoin:round;paint-order:stroke markers fill"
         d="m 754.80567,116.89679 v -2.39502 -74.4126 -2.39502 h 2.39355 150.03223 2.39355 v 2.39502 74.4126 2.39502 h -2.39355 -150.03223 z m 2.39355,-2.39502 H 907.23145 V 40.08917 H 757.19922 Z" />
      <g
         id="use97054"
         transform="matrix(1.0000001,0,0,-1.0000001,837.30384,57.703981)"
         style="opacity:1;fill:#ffffff">
        <path
           d="M 8.804688,0.105469 C 8.597656,0.105469 8.496094,0 8.496094,-0.207031 v -30.765625 c -0.792969,0.582031 -1.582031,1.179687 -2.382813,1.773437 -0.789062,0.59375 -1.582031,1.179688 -2.382812,1.75 -0.117188,0.07422 -0.234375,0.101563 -0.335938,0.03516 -0.105468,-0.05078 -0.15625,-0.152343 -0.15625,-0.296875 v -5.617187 c 0,-0.02734 0.011719,-0.07813 0.039063,-0.132813 0.023437,-0.05078 0.050781,-0.08984 0.089844,-0.128906 l 5.335937,-3.859375 h 5.410156 c 0.207032,0 0.3125,0.105469 0.3125,0.3125 v 36.929688 c 0,0.207031 -0.105468,0.3125 -0.3125,0.3125 H 8.804688"
           id="path105439"
           style="fill:#ffffff" />
      </g>
      <g
         id="use97062"
         transform="matrix(1.0000001,0,0,-1.0000001,855.22455,57.703981)"
         style="opacity:1;fill:#ffffff">
        <path
           d="M 8.804688,0.105469 C 8.597656,0.105469 8.496094,0 8.496094,-0.207031 v -30.765625 c -0.792969,0.582031 -1.582031,1.179687 -2.382813,1.773437 -0.789062,0.59375 -1.582031,1.179688 -2.382812,1.75 -0.117188,0.07422 -0.234375,0.101563 -0.335938,0.03516 -0.105468,-0.05078 -0.15625,-0.152343 -0.15625,-0.296875 v -5.617187 c 0,-0.02734 0.011719,-0.07813 0.039063,-0.132813 0.023437,-0.05078 0.050781,-0.08984 0.089844,-0.128906 l 5.335937,-3.859375 h 5.410156 c 0.207032,0 0.3125,0.105469 0.3125,0.3125 v 36.929688 c 0,0.207031 -0.105468,0.3125 -0.3125,0.3125 H 8.804688"
           id="path105435"
           style="fill:#ffffff" />
      </g>
    </g>
  </g>
</svg>
