<?xml version="1.0" encoding="utf-8"?>
<svg viewBox="0 0 323.14914 200" xmlns="http://www.w3.org/2000/svg">
  <g id="layer1" transform="matrix(0.9999999999999999, 0, 0, 0.9999999999999999, -303.4596862792969, -22.960700988769517)">
    <path id="rect15575" style="opacity:1;fill:#0a9646;fill-opacity:1;fill-rule:evenodd;stroke-width:0.0420687;stroke-linecap:square;stroke-miterlimit:10;paint-order:stroke fill markers" d="M 303.45966,22.960701 H 626.6088 V 222.9607 H 303.45966 Z"/>
    <path transform="matrix(0.26458333,0,0,0.26458333,303.45966,22.960701)" d="m 30.353516,5.0117188 c -13.808655,0 -25.0781254,11.2674112 -25.0781254,25.0761722 v 332.957029 47.1211 49.04296 13.88672 252.45508 c 0,13.80862 11.2694704,25.06641 25.0781254,25.06641 H 1190.9805 c 13.8086,0 25.0781,-11.25779 25.0781,-25.06641 V 473.0957 459.57031 401.94727 363.04492 30.087891 c 0,-13.808761 -11.2695,-25.0761722 -25.0781,-25.0761722 z m 0,9.4511722 H 1190.9805 c 8.7398,0 15.6425,6.885058 15.6425,15.625 v 332.957029 38.90235 c 0,0.29959 -0.013,0.61475 -0.037,0.9375 v 7.20703 c 0,8.68754 -6.9941,15.68164 -15.6816,15.68164 h -8.0762 c -0.1869,0.007 -0.3766,0.0176 -0.5586,0.0176 H 38.023438 c -0.18105,0 -0.371847,-0.0102 -0.560547,-0.0176 h -7.097657 c -8.687546,0 -15.68164,-6.9941 -15.68164,-15.68164 V 30.152344 c 0,-1.658433 0.257595,-3.253829 0.730468,-4.751953 0.01365,-0.04461 0.03284,-0.08643 0.04688,-0.13086 1.99686,-6.321925 7.84094,-10.80664 14.892578,-10.80664 z M 30.28125,435.30469 h 6.958984 1145.628866 8.1172 c 8.6414,0 15.5996,6.95633 15.5996,15.59765 v 7.5918 c 0.024,0.37296 0.037,0.7339 0.037,1.07617 v 13.52539 252.45508 c 0,5.47634 -2.7106,10.22208 -6.8847,13.00391 -2.4923,1.6862 -5.5034,2.66992 -8.752,2.66992 H 30.28125 c -8.641361,0 -15.597656,-6.9563 -15.597656,-15.59766 V 450.90234 c 0,-8.64132 6.956295,-15.59765 15.597656,-15.59765 z" style="color:#000000;font-style:normal;font-variant:normal;font-weight:normal;font-stretch:normal;font-size:medium;line-height:normal;font-family:sans-serif;font-variant-ligatures:normal;font-variant-position:normal;font-variant-caps:normal;font-variant-numeric:normal;font-variant-alternates:normal;font-variant-east-asian:normal;font-feature-settings:normal;font-variation-settings:normal;text-indent:0;text-align:start;text-decoration:none;text-decoration-line:none;text-decoration-style:solid;text-decoration-color:#000000;letter-spacing:normal;word-spacing:normal;text-transform:none;writing-mode:lr-tb;direction:ltr;text-orientation:mixed;dominant-baseline:auto;baseline-shift:baseline;text-anchor:start;white-space:normal;shape-padding:0;shape-margin:0;inline-size:0;clip-rule:nonzero;display:inline;overflow:visible;visibility:visible;opacity:1;isolation:auto;mix-blend-mode:normal;color-interpolation:sRGB;color-interpolation-filters:linearRGB;solid-color:#000000;solid-opacity:1;vector-effect:none;fill:#ffffff;fill-opacity:1;fill-rule:evenodd;stroke:none;stroke-width:2.09199;stroke-linecap:square;stroke-linejoin:miter;stroke-miterlimit:10;stroke-dasharray:none;stroke-dashoffset:0;stroke-opacity:1;paint-order:stroke fill markers;color-rendering:auto;image-rendering:auto;shape-rendering:auto;text-rendering:auto;enable-background:accumulate;stop-color:#000000;stop-opacity:1" id="path15582"/>
    <path d="m 324.12038,67.193614 h 60.89334 v 27.821331 h -60.89334 z" style="opacity:1;fill:#ffd70f;fill-opacity:1;fill-rule:evenodd;stroke:none;stroke-width:0.553508;stroke-linecap:square;stroke-miterlimit:10;stroke-dasharray:none;stroke-opacity:1;paint-order:stroke fill markers" id="rect15605"/>
    <path id="path15631" d="m 326.18273,67.759747 c -0.81115,0 -1.47443,0.660164 -1.47443,1.471307 v 23.746432 c 0,0.811142 0.66328,1.471323 1.47443,1.471323 h 56.7905 c 0.81117,0 1.4744,-0.660181 1.4744,-1.471323 V 69.231054 c 0,-0.811143 -0.66328,-1.471307 -1.4744,-1.471307 z m 0,0.535017 h 56.7905 c 0.52266,0 0.93627,0.413622 0.93627,0.93629 v 23.746432 c 0,0.522654 -0.41353,0.933189 -0.93627,0.933189 h -56.7905 c -0.52266,0 -0.93628,-0.410555 -0.93628,-0.933189 V 69.231054 c 0,-0.522672 0.41354,-0.93629 0.93628,-0.93629 z" style="color:#000000;font-style:normal;font-variant:normal;font-weight:normal;font-stretch:normal;font-size:medium;line-height:normal;font-family:sans-serif;font-variant-ligatures:normal;font-variant-position:normal;font-variant-caps:normal;font-variant-numeric:normal;font-variant-alternates:normal;font-variant-east-asian:normal;font-feature-settings:normal;font-variation-settings:normal;text-indent:0;text-align:start;text-decoration:none;text-decoration-line:none;text-decoration-style:solid;text-decoration-color:#000000;letter-spacing:normal;word-spacing:normal;text-transform:none;writing-mode:lr-tb;direction:ltr;text-orientation:mixed;dominant-baseline:auto;baseline-shift:baseline;text-anchor:start;white-space:normal;shape-padding:0;shape-margin:0;inline-size:0;clip-rule:nonzero;display:inline;overflow:visible;visibility:visible;opacity:1;isolation:auto;mix-blend-mode:normal;color-interpolation:sRGB;color-interpolation-filters:linearRGB;solid-color:#000000;solid-opacity:1;vector-effect:none;fill:#000000;fill-opacity:1;fill-rule:evenodd;stroke:none;stroke-width:0.119062;stroke-linecap:square;stroke-linejoin:miter;stroke-miterlimit:10;stroke-dasharray:none;stroke-dashoffset:0;stroke-opacity:1;paint-order:stroke fill markers;color-rendering:auto;image-rendering:auto;shape-rendering:auto;text-rendering:auto;enable-background:accumulate;stop-color:#000000;stop-opacity:1"/>
    <path d="m 336.88947,72.205604 c -1.36961,0 -2.51552,0.330332 -3.43646,0.991507 -0.91309,0.653335 -1.5737,1.361798 -1.98303,2.125328 -0.14189,0.267612 -0.264,0.538688 -0.36613,0.814199 -0.10264,0.275473 -0.18065,0.564078 -0.23555,0.86321 -0.0552,0.299089 -0.0954,0.774434 -0.11873,1.427765 -0.0223,0.653332 -0.0362,1.495435 -0.0362,2.5266 0,2.062321 0.0516,3.383536 0.15387,3.966025 0.0552,0.299136 0.13326,0.587702 0.23556,0.863193 0.10264,0.267612 0.22467,0.534915 0.36612,0.802543 0.40948,0.771411 1.06995,1.479875 1.983,2.125324 0.92887,0.653346 2.07472,0.979855 3.43649,0.979855 0.74779,0 1.44489,-0.107189 2.09034,-0.319632 0.64544,-0.212556 1.24303,-0.525333 1.79403,-0.942508 1.1335,-0.865864 1.86473,-2.103628 2.19533,-3.709419 0.0139,-0.04714 0.009,-0.08518 -0.0223,-0.116745 -0.0315,-0.03928 -0.0694,-0.05829 -0.11656,-0.05829 h -2.70394 c -0.0223,1.5e-5 -0.0488,0.01117 -0.0722,0.03521 -0.0223,0.01589 -0.0451,0.0307 -0.0582,0.0467 -0.70836,1.487712 -1.74338,2.232636 -3.10515,2.232636 -0.59037,0 -1.09454,-0.11468 -1.51174,-0.342928 -0.41713,-0.236167 -0.75132,-0.520933 -1.00317,-0.851551 -0.14189,-0.181028 -0.27124,-0.389065 -0.3896,-0.625222 -0.11008,-0.244 -0.19597,-0.488524 -0.25924,-0.732545 -0.0628,-0.267611 -0.10709,-0.67614 -0.13048,-1.227141 -0.0223,-0.558871 -0.0359,-1.267326 -0.0359,-2.125325 0,-0.842249 0.009,-1.543133 0.0359,-2.102004 0.0223,-0.55887 0.0677,-0.97117 0.13048,-1.238798 0.0627,-0.251917 0.14857,-0.496392 0.25924,-0.732549 0.11009,-0.244 0.24028,-0.45965 0.3896,-0.64857 0.252,-0.30699 0.58598,-0.580386 1.00317,-0.816526 0.41715,-0.236167 0.92137,-0.352269 1.51174,-0.352269 0.79503,1.7e-5 1.45185,0.230844 1.97135,0.695231 0.27541,0.236167 0.50863,0.492045 0.69757,0.767539 0.18872,0.267667 0.33407,0.560022 0.4361,0.874867 0.0167,0.06294 0.0599,0.09333 0.13046,0.09333 h 2.7039 c 0.0468,0 0.0854,-0.01589 0.11658,-0.0467 0.0315,-0.03161 0.0407,-0.07184 0.0223,-0.118954 -0.25952,-1.393235 -0.93175,-2.595995 -2.01801,-3.611427 -1.07052,-1.007535 -2.42438,-1.511744 -4.0617,-1.511744 z m 27.73422,0.104956 c -1.28304,0 -2.4213,0.437369 -3.41313,1.311121 -0.99967,0.858 -1.50005,2.08205 -1.50005,3.672071 v 7.425818 c 0,1.590021 0.50038,2.814088 1.50005,3.672088 0.99183,0.865851 2.13009,1.299446 3.41313,1.299446 1.28303,0 2.42133,-0.433578 3.41313,-1.299446 1.00756,-0.86587 1.50938,-2.089917 1.50938,-3.672088 v -7.425818 c 0,-0.787127 -0.1299,-1.484222 -0.38959,-2.09033 -0.252,-0.613979 -0.62389,-1.140934 -1.11979,-1.581741 -0.49592,-0.425045 -1.03279,-0.74779 -1.6074,-0.968177 -0.56674,-0.22825 -1.16816,-0.342924 -1.80573,-0.342924 z m -21.12261,0.03521 c -0.0943,0 -0.14217,0.04776 -0.14217,0.142392 v 2.279298 c 0,0.09444 0.0479,0.142197 0.14217,0.142197 h 4.49793 V 89.409 c 0,0.09444 0.0479,0.139995 0.14217,0.139995 h 2.5616 c 0.0945,0 0.14217,-0.04555 0.14217,-0.139995 V 74.909653 h 4.48625 c 0.0943,0 0.14217,-0.04778 0.14217,-0.142196 v -2.279299 c 0,-0.09444 -0.0479,-0.142392 -0.14217,-0.142392 z m 31.22667,0.118953 -2.43331,1.759064 c -0.0139,0.01589 -0.0315,0.03477 -0.0466,0.05829 -0.009,0.02341 -0.0139,0.04468 -0.0139,0.06068 v 2.561593 c 0,0.06294 0.0278,0.110694 0.0728,0.142196 0.0468,0.02343 0.0989,0.01617 0.15388,-0.02343 0.36208,-0.259778 0.7228,-0.523245 1.08486,-0.790886 0.36206,-0.275473 0.72509,-0.548889 1.08714,-0.816528 v 14.028096 c 0,0.09444 0.048,0.142198 0.14217,0.142198 h 2.41929 c 0.0943,0 0.13994,-0.04778 0.13994,-0.142198 V 72.606811 c 0,-0.09444 -0.0455,-0.142197 -0.13994,-0.142197 z m -10.10406,2.538257 c 0.67694,0 1.21532,0.217964 1.61673,0.650912 0.40948,0.425045 0.61359,1.018854 0.61359,1.782378 v 7.143522 c 0,0.771407 -0.20461,1.368982 -0.61359,1.794059 -0.40133,0.425045 -0.93979,0.63689 -1.61673,0.63689 -0.67695,0 -1.21527,-0.211859 -1.61671,-0.63689 -0.40134,-0.425091 -0.60428,-1.022652 -0.60428,-1.794059 v -7.143497 c 0,-0.763524 0.20266,-1.357335 0.60428,-1.782377 0.40133,-0.432946 0.93976,-0.650913 1.61671,-0.650913 z m -9.98507,11.865445 c -0.0945,0 -0.14217,0.04776 -0.14217,0.14239 v 2.398281 c 0,0.09444 0.0479,0.139994 0.14217,0.139994 h 2.40762 c 0.0867,0 0.13046,-0.04555 0.13046,-0.139994 v -2.398281 c 0,-0.09444 -0.0451,-0.14239 -0.13046,-0.14239 z" style="font-style: normal; font-variant: normal; font-weight: normal; font-stretch: normal; font-size: 15.1831px; line-height: 1.46; font-family: 'Alte DIN 1451 Mittelschrift gepraegt'; text-align: center; text-anchor: middle; opacity: 1; fill-opacity: 1; stroke-width: 0.264584; visibility: hidden;" id="path15637"/>
    <path id="path17496" style="font-size:15.1831px;line-height:1.46;font-family:'Singapore Road Signs';-inkscape-font-specification:'Singapore Road Signs';text-align:center;text-anchor:middle;opacity:1;fill:#ffffff;fill-opacity:1;stroke-width:0.0756548" d="m 570.47468,59.120043 v 50.614317 h 35.43541 V 59.120043 Z m 1.38203,1.660034 h 32.65274 v 47.566083 h -32.65274 z m 13.66823,3.646909 -2.23483,8.869719 h 3.92184 l 0.28216,-8.869719 z m 3.35329,0 0.28216,8.869719 h 3.92385 l -2.23686,-8.869719 z m -15.90932,9.992316 v 1.942234 l 3.06692,1.10806 v 0.584703 h 1.411 v -0.584703 c 0,0 2.08662,-0.313671 4.52568,-0.535349 1.95306,-0.177516 4.1317,-0.271988 5.64407,-0.278037 1.79866,-0.0063 4.45804,0.09363 6.73975,0.288436 2.51319,0.214479 4.5713,0.524984 4.5713,0.524984 v 0.5847 h 1.38199 v -0.5847 l 3.06685,-1.108064 v -1.942233 z m 9.21108,3.620663 -6.70448,26.681115 h 10.04943 l 1.39442,-26.681115 z m 7.25642,0 1.39441,26.681115 h 10.0494 l -6.70443,-26.681115 z"/>
    <g style="font-size:14.7905px;line-height:0;font-family:'Singapore Road Signs';-inkscape-font-specification:'Singapore Road Signs';text-align:center;text-anchor:middle;opacity:1;fill:#860000;fill-opacity:1;stroke-width:6.45213" id="layer1-8" transform="matrix(0.08718024,0,0,0.08718024,-145.22047,195.49013)">
      <circle style="opacity:1;fill:#f00a0a;fill-opacity:1;fill-rule:nonzero;stroke:none;stroke-width:3622.55;stroke-linecap:round;stroke-linejoin:round;stroke-miterlimit:4;stroke-dasharray:none;stroke-opacity:1;paint-order:stroke fill markers" id="path815" cx="6380.9966" cy="-193.29752" r="350"/>
      <circle cy="-193.29752" cx="6380.9966" id="circle817" style="opacity:1;fill:#ffffff;fill-opacity:1;fill-rule:nonzero;stroke:none;stroke-width:2587.55;stroke-linecap:round;stroke-linejoin:round;stroke-miterlimit:4;stroke-dasharray:none;stroke-opacity:1;paint-order:stroke fill markers" r="250"/>
      <g aria-label="20 " style="font-style:normal;font-variant:normal;font-weight:bold;font-stretch:normal;font-size:414.864px;line-height:0;font-family:Giaothong1;-inkscape-font-specification:'Giaothong1 Bold';letter-spacing:0px;word-spacing:0px;fill:#000000;fill-opacity:1;stroke:none;stroke-width:24.7849" id="text874" transform="matrix(-1,0,0,1,1299.029,-383.45)">
        <g aria-label="90" transform="translate(2310.2259,387.54849)" style="font-style:normal;font-variant:normal;font-weight:bold;font-stretch:normal;font-size:414.864px;line-height:0;font-family:Giaothong1;-inkscape-font-specification:'Giaothong1 Bold';letter-spacing:0px;word-spacing:0px;fill:#000000;fill-opacity:1;stroke:none;stroke-width:53.5539" id="text844"/>
      </g>
    </g>
    <g style="font-size:14.7905px;line-height:0;font-family:'Singapore Road Signs';-inkscape-font-specification:'Singapore Road Signs';text-align:center;text-anchor:middle;opacity:1;fill:#fff000;fill-opacity:1;stroke-width:6.45221" id="layer1-7" transform="matrix(0.08717968,0,0,0.08717968,488.77841,183.34565)">
      <circle cy="-54" cx="351" id="circle817-6" style="opacity:1;fill:#0046aa;fill-opacity:1;fill-rule:nonzero;stroke:none;stroke-width:3622.58;stroke-linecap:round;stroke-linejoin:round;stroke-miterlimit:4;stroke-dasharray:none;stroke-opacity:1;paint-order:stroke fill markers" r="350"/>
      <path id="rect984" style="font-style:normal;font-variant:normal;font-weight:bold;font-stretch:normal;font-size:414.864px;line-height:0;font-family:Giaothong1;-inkscape-font-specification:'Giaothong1 Bold';letter-spacing:0px;word-spacing:0px;opacity:1;fill:#ffffff;fill-opacity:1;fill-rule:nonzero;stroke:none;stroke-width:0.344279;stroke-linecap:round;stroke-linejoin:miter;stroke-miterlimit:10;stroke-dasharray:none;stroke-opacity:1;paint-order:stroke fill markers" d="m 851.18164,518.03906 c -16.32678,0 -29.4707,13.14393 -29.4707,29.47071 v 80.94921 c 0,16.32678 13.14392,29.47071 29.4707,29.47071 16.32678,0 29.4707,-13.14393 29.4707,-29.47071 v -80.94921 c 0,-16.32678 -13.14392,-29.47071 -29.4707,-29.47071 z m -69.94336,1.23828 -26.10937,69.75391 c -2.72781,7.40406 -3.70118,11.30112 -3.70118,28.44727 0,18.12042 0.7789,22.01697 4.67579,28.25195 5.26075,8.37828 14.22308,13.44336 24.93945,13.44336 10.91123,0 20.0688,-4.87023 25.13476,-13.44336 3.70197,-6.23498 4.48047,-10.13153 4.48047,-28.25195 0,-22.01726 -0.77798,-26.88814 -4.28515,-32.34375 -3.31232,-5.06591 -9.74347,-8.96289 -16.75782,-8.96289 -4.28653,0 -7.01308,0.77773 -8.37695,1.75195 l -0.39062,-0.38867 22.60156,-58.25782 z m 69.94336,18.74024 c 5.25853,0 9.49219,4.23365 9.49219,9.49219 v 80.94921 c 0,5.25853 -4.23366,9.49219 -9.49219,9.49219 -5.25853,0 -9.49219,-4.23366 -9.49219,-9.49219 v -80.94921 c 0,-5.25854 4.23366,-9.49219 9.49219,-9.49219 z m -70.13867,55.68945 c 5.0659,0 9.74219,3.89738 9.74219,9.9375 v 25.71875 c 0,6.04012 -4.67629,9.9375 -9.74219,9.9375 -5.0659,0 -9.74219,-3.89738 -9.74219,-9.9375 v -25.71875 c 0,-6.04012 4.67629,-9.9375 9.74219,-9.9375 z" transform="matrix(3.0349198,0,0,3.0349198,-2125.7104,-1839.7056)"/>
    </g>
    <g aria-label="6" id="text19759" style="font-size:31.1478px;line-height:1.3;font-family:'Singapore Road Signs';-inkscape-font-specification:'Singapore Road Signs';text-align:center;text-anchor:middle;stroke-width:0.159861" transform="matrix(1.6550836,0,0,1.6550836,-321.31659,-238.56049)"/>
    <path d="M 364.777 43.255 Q 364.742 43.228 364.737 43.184 Q 364.733 43.141 364.759 43.105 L 365.893 41.805 Q 365.963 41.725 366.034 41.796 L 367.378 42.85 Q 367.449 42.508 367.479 41.91 Q 367.51 41.312 367.51 40.398 Q 367.51 39.44 367.475 38.821 Q 367.44 38.201 367.37 37.911 Q 367.299 37.63 367.176 37.362 Q 367.053 37.094 366.895 36.883 Q 366.763 36.716 366.574 36.558 Q 366.385 36.399 366.148 36.281 Q 365.911 36.162 365.629 36.087 Q 365.348 36.013 365.023 36.013 Q 364.373 36.013 363.902 36.276 Q 363.432 36.54 363.16 36.883 Q 362.984 37.094 362.865 37.362 Q 362.747 37.63 362.676 37.911 Q 362.544 38.509 362.544 40.398 Q 362.544 42.306 362.676 42.894 Q 362.747 43.167 362.87 43.435 Q 362.993 43.703 363.16 43.905 Q 363.432 44.274 363.902 44.534 Q 364.373 44.793 365.023 44.793 Q 365.735 44.793 366.271 44.441 Z M 369.672 47.052 Q 369.646 47.078 369.602 47.078 Q 369.558 47.078 369.523 47.052 L 368.002 45.848 Q 367.431 46.313 366.684 46.608 Q 365.937 46.902 365.023 46.902 Q 363.511 46.902 362.465 46.173 Q 361.463 45.452 360.989 44.591 L 360.998 44.591 Q 360.839 44.292 360.725 43.989 Q 360.611 43.685 360.549 43.351 Q 360.426 42.657 360.426 40.398 Q 360.426 39.247 360.457 38.517 Q 360.488 37.788 360.549 37.454 Q 360.611 37.12 360.725 36.812 Q 360.839 36.505 360.998 36.206 L 360.989 36.206 Q 361.217 35.784 361.586 35.389 Q 361.956 34.993 362.465 34.624 Q 363.502 33.886 365.023 33.886 Q 366.543 33.886 367.572 34.624 Q 368.591 35.371 369.066 36.206 Q 369.215 36.496 369.33 36.808 Q 369.444 37.12 369.505 37.454 Q 369.567 37.788 369.598 38.517 Q 369.628 39.247 369.628 40.398 Q 369.628 42.455 369.523 43.167 Q 369.479 43.501 369.395 43.787 Q 369.312 44.072 369.189 44.318 Q 369.584 44.626 369.989 44.955 Q 370.393 45.285 370.789 45.593 Q 370.824 45.619 370.832 45.663 Q 370.841 45.707 370.806 45.742 Z M 371.946 34.097 Q 371.946 33.991 372.052 33.991 L 373.968 33.991 Q 374.064 33.991 374.064 34.097 L 374.064 42.218 Q 374.064 43.483 374.767 44.134 Q 375.479 44.793 376.534 44.793 Q 377.571 44.793 378.283 44.134 Q 378.995 43.475 378.995 42.218 L 378.995 34.097 Q 378.995 33.991 379.1 33.991 L 381.008 33.991 Q 381.113 33.991 381.113 34.097 L 381.113 42.429 Q 381.113 44.45 379.768 45.681 Q 378.441 46.902 376.534 46.902 Q 374.618 46.902 373.282 45.681 Q 371.946 44.45 371.946 42.429 Z M 382.378 46.788 Q 382.317 46.788 382.29 46.744 Q 382.264 46.7 382.282 46.647 L 386.887 34.044 Q 386.905 33.974 386.975 33.974 L 388.548 33.974 Q 388.575 33.974 388.605 33.996 Q 388.636 34.017 388.645 34.044 L 393.242 46.647 Q 393.259 46.7 393.233 46.744 Q 393.206 46.788 393.154 46.788 L 391.141 46.788 Q 391.071 46.788 391.053 46.718 L 390.104 43.94 L 385.463 43.94 Q 385.217 44.652 384.976 45.333 Q 384.734 46.015 384.488 46.718 Q 384.479 46.744 384.448 46.766 Q 384.417 46.788 384.391 46.788 Z M 389.471 42.051 Q 389.454 41.989 389.423 41.919 Q 389.392 41.849 389.374 41.796 Q 389.225 41.365 389.102 41 Q 388.979 40.636 388.882 40.363 Q 388.821 40.187 388.764 40.02 Q 388.706 39.853 388.654 39.704 Q 388.61 39.563 388.566 39.436 Q 388.522 39.309 388.478 39.185 Q 388.399 38.931 388.315 38.676 Q 388.232 38.421 388.144 38.148 Q 388.1 38.025 388.052 37.876 Q 388.003 37.726 387.951 37.559 Q 387.924 37.472 387.911 37.423 Q 387.898 37.375 387.88 37.327 Q 387.863 37.278 387.841 37.217 Q 387.819 37.155 387.784 37.041 Q 387.687 37.331 387.603 37.577 Q 387.52 37.823 387.45 38.034 Q 387.432 38.087 387.423 38.131 Q 387.414 38.175 387.397 38.219 Q 387.353 38.368 387.305 38.5 Q 387.256 38.632 387.212 38.764 Q 387.168 38.904 387.124 39.036 Q 387.081 39.168 387.037 39.291 Q 386.949 39.555 386.856 39.845 Q 386.764 40.135 386.65 40.451 Q 386.536 40.767 386.413 41.132 Q 386.289 41.497 386.096 42.051 Z M 387.647 32.857 Q 387.647 32.857 387.465 32.857 Q 387.283 32.857 387.063 32.857 L 387.063 32.453 Q 387.16 31.899 387.748 31.548 Q 388.671 31.161 388.592 30.634 Q 388.469 30.098 387.766 30.089 Q 386.834 30.106 386.782 30.994 L 385.472 30.994 Q 385.472 30.502 385.652 30.177 Q 385.832 29.851 386.14 29.544 Q 386.747 28.964 387.722 28.946 Q 388.75 28.964 389.41 29.526 Q 389.708 29.825 389.875 30.106 Q 390.042 30.388 390.051 30.818 Q 389.998 31.425 389.374 31.882 Q 388.847 32.137 388.566 32.286 L 388.46 32.4 L 388.346 32.576 L 388.329 32.857 Q 388.012 32.857 387.647 32.857 Z M 394.834 46.797 Q 394.729 46.797 394.729 46.691 L 394.729 34.097 Q 394.729 33.991 394.834 33.991 L 396.645 33.991 Q 396.698 33.991 396.733 34.044 L 402.27 42.763 L 402.27 34.097 Q 402.27 33.991 402.375 33.991 L 404.291 33.991 Q 404.397 33.991 404.397 34.097 L 404.397 46.691 Q 404.397 46.797 404.291 46.797 L 402.49 46.797 Q 402.437 46.797 402.402 46.744 L 396.847 38.025 L 396.847 46.691 Q 396.847 46.797 396.75 46.797 Z M 411.226 41.673 Q 411.121 41.673 411.121 41.567 L 411.121 39.757 Q 411.121 39.66 411.226 39.66 L 415.7 39.66 Q 415.805 39.66 415.805 39.757 L 415.805 42.323 Q 415.805 44.266 414.469 45.575 Q 413.116 46.902 411.208 46.902 Q 409.688 46.902 408.651 46.173 Q 407.631 45.452 407.174 44.591 L 407.183 44.591 Q 407.016 44.292 406.902 43.989 Q 406.788 43.685 406.726 43.351 Q 406.673 43.017 406.643 42.284 Q 406.612 41.55 406.612 40.398 Q 406.612 39.247 406.643 38.517 Q 406.673 37.788 406.726 37.454 Q 406.788 37.12 406.902 36.812 Q 407.016 36.505 407.183 36.206 L 407.174 36.206 Q 407.631 35.353 408.651 34.624 Q 409.679 33.886 411.208 33.886 Q 413.037 33.886 414.232 35.011 Q 415.445 36.136 415.735 37.7 Q 415.752 37.753 415.717 37.788 Q 415.682 37.823 415.629 37.823 L 413.617 37.823 Q 413.538 37.823 413.52 37.753 Q 413.406 37.401 413.195 37.098 Q 412.984 36.795 412.676 36.531 Q 412.096 36.013 411.208 36.013 Q 410.549 36.013 410.083 36.276 Q 409.618 36.54 409.336 36.883 Q 409.169 37.094 409.046 37.362 Q 408.923 37.63 408.853 37.911 Q 408.783 38.21 408.756 38.834 Q 408.73 39.458 408.73 40.398 Q 408.73 41.356 408.756 41.976 Q 408.783 42.596 408.853 42.894 Q 408.923 43.167 409.051 43.435 Q 409.178 43.703 409.336 43.905 Q 409.618 44.274 410.083 44.534 Q 410.549 44.793 411.208 44.793 Q 412.254 44.793 412.966 44.081 Q 413.687 43.369 413.687 42.218 L 413.687 41.673 Z M 422.43 46.797 Q 422.325 46.797 422.325 46.691 L 422.325 34.097 Q 422.325 33.991 422.43 33.991 L 424.241 33.991 Q 424.293 33.991 424.329 34.044 L 429.866 42.763 L 429.866 34.097 Q 429.866 33.991 429.971 33.991 L 431.887 33.991 Q 431.993 33.991 431.993 34.097 L 431.993 46.691 Q 431.993 46.797 431.887 46.797 L 430.085 46.797 Q 430.033 46.797 429.998 46.744 L 424.443 38.025 L 424.443 46.691 Q 424.443 46.797 424.346 46.797 Z M 438.822 41.673 Q 438.716 41.673 438.716 41.567 L 438.716 39.757 Q 438.716 39.66 438.822 39.66 L 443.296 39.66 Q 443.401 39.66 443.401 39.757 L 443.401 42.323 Q 443.401 44.266 442.065 45.575 Q 440.712 46.902 438.804 46.902 Q 437.284 46.902 436.247 46.173 Q 435.227 45.452 434.77 44.591 L 434.779 44.591 Q 434.612 44.292 434.498 43.989 Q 434.383 43.685 434.322 43.351 Q 434.269 43.017 434.238 42.284 Q 434.208 41.55 434.208 40.398 Q 434.208 39.247 434.238 38.517 Q 434.269 37.788 434.322 37.454 Q 434.383 37.12 434.498 36.812 Q 434.612 36.505 434.779 36.206 L 434.77 36.206 Q 435.227 35.353 436.247 34.624 Q 437.275 33.886 438.804 33.886 Q 440.632 33.886 441.828 35.011 Q 443.041 36.136 443.331 37.7 Q 443.348 37.753 443.313 37.788 Q 443.278 37.823 443.225 37.823 L 441.213 37.823 Q 441.133 37.823 441.116 37.753 Q 441.002 37.401 440.791 37.098 Q 440.58 36.795 440.272 36.531 Q 439.692 36.013 438.804 36.013 Q 438.145 36.013 437.679 36.276 Q 437.214 36.54 436.932 36.883 Q 436.765 37.094 436.642 37.362 Q 436.519 37.63 436.449 37.911 Q 436.379 38.21 436.352 38.834 Q 436.326 39.458 436.326 40.398 Q 436.326 41.356 436.352 41.976 Q 436.379 42.596 436.449 42.894 Q 436.519 43.167 436.647 43.435 Q 436.774 43.703 436.932 43.905 Q 437.214 44.274 437.679 44.534 Q 438.145 44.793 438.804 44.793 Q 439.85 44.793 440.562 44.081 Q 441.283 43.369 441.283 42.218 L 441.283 41.673 Z M 444.474 46.788 Q 444.412 46.788 444.386 46.744 Q 444.359 46.7 444.377 46.647 L 448.982 34.044 Q 449 33.974 449.07 33.974 L 450.644 33.974 Q 450.67 33.974 450.701 33.996 Q 450.731 34.017 450.74 34.044 L 455.337 46.647 Q 455.354 46.7 455.328 46.744 Q 455.302 46.788 455.249 46.788 L 453.236 46.788 Q 453.166 46.788 453.148 46.718 L 452.199 43.94 L 447.559 43.94 Q 447.312 44.652 447.071 45.333 Q 446.829 46.015 446.583 46.718 Q 446.574 46.744 446.543 46.766 Q 446.513 46.788 446.486 46.788 Z M 451.566 42.051 Q 451.549 41.989 451.518 41.919 Q 451.487 41.849 451.47 41.796 Q 451.32 41.365 451.197 41 Q 451.074 40.636 450.978 40.363 Q 450.916 40.187 450.859 40.02 Q 450.802 39.853 450.749 39.704 Q 450.705 39.563 450.661 39.436 Q 450.617 39.309 450.573 39.185 Q 450.494 38.931 450.411 38.676 Q 450.327 38.421 450.239 38.148 Q 450.195 38.025 450.147 37.876 Q 450.099 37.726 450.046 37.559 Q 450.02 37.472 450.006 37.423 Q 449.993 37.375 449.976 37.327 Q 449.958 37.278 449.936 37.217 Q 449.914 37.155 449.879 37.041 Q 449.782 37.331 449.699 37.577 Q 449.615 37.823 449.545 38.034 Q 449.527 38.087 449.519 38.131 Q 449.51 38.175 449.492 38.219 Q 449.448 38.368 449.4 38.5 Q 449.352 38.632 449.308 38.764 Q 449.264 38.904 449.22 39.036 Q 449.176 39.168 449.132 39.291 Q 449.044 39.555 448.952 39.845 Q 448.859 40.135 448.745 40.451 Q 448.631 40.767 448.508 41.132 Q 448.385 41.497 448.191 42.051 Z M 447.11 32.523 Q 447.005 32.523 447.022 32.418 Q 447.084 31.987 447.238 31.636 Q 447.392 31.284 447.629 31.012 Q 447.866 30.766 448.183 30.629 Q 448.499 30.493 448.851 30.493 Q 449.009 30.493 449.158 30.511 Q 449.308 30.528 449.457 30.581 Q 449.615 30.634 449.76 30.686 Q 449.905 30.739 450.002 30.774 Q 450.31 30.933 450.556 31.012 Q 450.723 31.091 450.951 31.091 Q 451.153 31.091 451.347 30.968 Q 451.514 30.853 451.584 30.467 Q 451.602 30.396 451.681 30.396 L 452.595 30.396 Q 452.709 30.396 452.691 30.502 Q 452.639 30.88 452.507 31.209 Q 452.375 31.539 452.173 31.811 Q 451.953 32.093 451.637 32.255 Q 451.32 32.418 450.907 32.427 Q 450.749 32.427 450.595 32.4 Q 450.441 32.374 450.301 32.312 L 450.31 32.312 Q 450.213 32.295 450.055 32.238 Q 449.896 32.181 449.686 32.101 Q 449.413 31.978 449.167 31.908 Q 448.921 31.838 448.684 31.829 Q 448.552 31.829 448.332 31.952 L 448.341 31.943 Q 448.121 32.084 448.121 32.435 Q 448.121 32.523 448.033 32.523 Z M 456.9 46.797 Q 456.795 46.797 456.795 46.691 L 456.795 34.097 Q 456.795 33.991 456.9 33.991 L 458.807 33.991 Q 458.913 33.991 458.913 34.097 L 458.913 46.691 Q 458.913 46.797 458.807 46.797 Z" transform="matrix(1.310387, 0, 0, 1.310387, -59.698296, -1.169035)" style="fill: rgb(255, 255, 255);"/>
    <path transform="matrix(1.310387, 0, 0, 1.310387, -59.698296, -1.169035)" style="fill: rgb(255, 255, 255);"/>
    <path d="M 373.315 72.357 Q 373.21 72.357 373.21 72.251 L 373.21 66.855 L 368.42 66.855 L 368.42 72.251 Q 368.42 72.357 368.314 72.357 L 366.407 72.357 Q 366.302 72.357 366.302 72.251 L 366.302 59.657 Q 366.302 59.551 366.407 59.551 L 368.314 59.551 Q 368.42 59.551 368.42 59.657 L 368.42 64.948 L 373.21 64.948 L 373.21 59.657 Q 373.21 59.551 373.315 59.551 L 375.223 59.551 Q 375.328 59.551 375.328 59.657 L 375.328 72.251 Q 375.328 72.357 375.223 72.357 Z M 377.541 65.958 Q 377.541 64.807 377.572 64.077 Q 377.602 63.348 377.655 63.014 Q 377.717 62.68 377.831 62.372 Q 377.945 62.065 378.112 61.766 L 378.103 61.766 Q 378.56 60.913 379.58 60.184 Q 380.608 59.446 382.138 59.446 Q 383.649 59.446 384.678 60.184 Q 385.715 60.931 386.172 61.766 Q 386.497 62.364 386.611 63.014 Q 386.673 63.348 386.703 64.077 Q 386.734 64.807 386.734 65.958 Q 386.734 68.217 386.611 68.911 Q 386.55 69.254 386.44 69.562 Q 386.33 69.869 386.181 70.151 Q 385.715 70.994 384.678 71.733 Q 383.64 72.462 382.138 72.462 Q 380.617 72.462 379.58 71.733 Q 378.56 71.012 378.103 70.151 L 378.112 70.151 Q 377.945 69.852 377.831 69.549 Q 377.717 69.245 377.655 68.911 Q 377.602 68.577 377.572 67.844 Q 377.541 67.11 377.541 65.958 Z M 379.659 65.958 Q 379.659 66.916 379.685 67.536 Q 379.712 68.156 379.782 68.454 Q 379.852 68.727 379.98 68.995 Q 380.107 69.263 380.265 69.465 Q 380.547 69.834 381.013 70.094 Q 381.478 70.353 382.138 70.353 Q 382.788 70.353 383.254 70.094 Q 383.72 69.834 383.992 69.465 Q 384.361 69.017 384.475 68.454 Q 384.616 67.892 384.616 65.958 Q 384.616 65 384.581 64.381 Q 384.546 63.761 384.475 63.471 Q 384.414 63.19 384.291 62.922 Q 384.168 62.654 384.001 62.443 Q 383.869 62.276 383.68 62.118 Q 383.491 61.959 383.254 61.841 Q 383.016 61.722 382.735 61.647 Q 382.454 61.573 382.138 61.573 Q 381.478 61.573 381.013 61.836 Q 380.547 62.1 380.265 62.443 Q 380.098 62.654 379.975 62.922 Q 379.852 63.19 379.782 63.471 Q 379.712 63.77 379.685 64.394 Q 379.659 65.018 379.659 65.958 Z M 387.807 72.348 Q 387.745 72.348 387.719 72.304 Q 387.693 72.26 387.71 72.207 L 392.316 59.604 Q 392.333 59.534 392.404 59.534 L 393.977 59.534 Q 394.003 59.534 394.034 59.556 Q 394.065 59.577 394.073 59.604 L 398.67 72.207 Q 398.688 72.26 398.661 72.304 Q 398.635 72.348 398.582 72.348 L 396.57 72.348 Q 396.499 72.348 396.482 72.278 L 395.532 69.5 L 390.892 69.5 Q 390.646 70.212 390.404 70.893 Q 390.162 71.575 389.916 72.278 Q 389.907 72.304 389.877 72.326 Q 389.846 72.348 389.82 72.348 Z M 394.9 67.611 Q 394.882 67.549 394.851 67.479 Q 394.821 67.409 394.803 67.356 Q 394.654 66.925 394.53 66.56 Q 394.407 66.196 394.311 65.923 Q 394.249 65.747 394.192 65.58 Q 394.135 65.413 394.082 65.264 Q 394.038 65.123 393.994 64.996 Q 393.95 64.869 393.906 64.745 Q 393.827 64.491 393.744 64.236 Q 393.66 63.981 393.572 63.708 Q 393.529 63.585 393.48 63.436 Q 393.432 63.286 393.379 63.119 Q 393.353 63.032 393.34 62.983 Q 393.326 62.935 393.309 62.887 Q 393.291 62.838 393.269 62.777 Q 393.247 62.715 393.212 62.601 Q 393.115 62.891 393.032 63.137 Q 392.948 63.383 392.878 63.594 Q 392.861 63.647 392.852 63.691 Q 392.843 63.735 392.825 63.779 Q 392.781 63.928 392.733 64.06 Q 392.685 64.192 392.641 64.324 Q 392.597 64.464 392.553 64.596 Q 392.509 64.728 392.465 64.851 Q 392.377 65.115 392.285 65.405 Q 392.193 65.695 392.078 66.011 Q 391.964 66.327 391.841 66.692 Q 391.718 67.057 391.525 67.611 Z M 393.739 58.417 Q 393.722 58.417 393.696 58.404 Q 393.669 58.391 393.66 58.382 L 391.235 55.816 Q 391.182 55.763 391.213 55.702 Q 391.243 55.64 391.314 55.64 L 393.247 55.64 Q 393.3 55.64 393.335 55.693 L 395.172 58.259 Q 395.198 58.321 395.176 58.369 Q 395.155 58.417 395.084 58.417 Z M 400.233 72.357 Q 400.128 72.357 400.128 72.251 L 400.128 59.657 Q 400.128 59.551 400.233 59.551 L 402.141 59.551 Q 402.246 59.551 402.246 59.657 L 402.246 72.251 Q 402.246 72.357 402.141 72.357 Z M 409.216 72.357 Q 409.11 72.357 409.11 72.251 L 409.11 59.657 Q 409.11 59.551 409.216 59.551 L 411.026 59.551 Q 411.079 59.551 411.114 59.604 L 416.651 68.323 L 416.651 59.657 Q 416.651 59.551 416.757 59.551 L 418.673 59.551 Q 418.778 59.551 418.778 59.657 L 418.778 72.251 Q 418.778 72.357 418.673 72.357 L 416.871 72.357 Q 416.818 72.357 416.783 72.304 L 411.228 63.585 L 411.228 72.251 Q 411.228 72.357 411.132 72.357 Z M 428.429 72.357 Q 428.323 72.357 428.323 72.251 L 428.323 66.855 L 423.533 66.855 L 423.533 72.251 Q 423.533 72.357 423.428 72.357 L 421.52 72.357 Q 421.415 72.357 421.415 72.251 L 421.415 59.657 Q 421.415 59.551 421.52 59.551 L 423.428 59.551 Q 423.533 59.551 423.533 59.657 L 423.533 64.948 L 428.323 64.948 L 428.323 59.657 Q 428.323 59.551 428.429 59.551 L 430.336 59.551 Q 430.441 59.551 430.441 59.657 L 430.441 72.251 Q 430.441 72.357 430.336 72.357 Z M 434.775 65.958 Q 434.775 66.916 434.802 67.536 Q 434.828 68.156 434.898 68.454 Q 434.969 68.727 435.096 68.995 Q 435.223 69.263 435.382 69.465 Q 435.663 69.834 436.129 70.094 Q 436.595 70.353 437.254 70.353 Q 437.904 70.353 438.37 70.094 Q 438.836 69.834 439.108 69.465 Q 439.477 69.017 439.592 68.454 Q 439.732 67.892 439.732 65.958 Q 439.732 65 439.697 64.381 Q 439.662 63.761 439.592 63.471 Q 439.53 63.19 439.407 62.922 Q 439.284 62.654 439.117 62.443 Q 438.985 62.276 438.796 62.118 Q 438.607 61.959 438.37 61.841 Q 438.133 61.722 437.851 61.647 Q 437.57 61.573 437.254 61.573 Q 436.595 61.573 436.129 61.836 Q 435.663 62.1 435.382 62.443 Q 435.215 62.654 435.092 62.922 Q 434.969 63.19 434.898 63.471 Q 434.828 63.77 434.802 64.394 Q 434.775 65.018 434.775 65.958 Z M 441.938 57.899 Q 442.009 57.96 442.07 58.022 Q 442.65 58.628 442.668 59.604 Q 442.703 60.79 441.604 61.537 Q 441.429 61.617 441.244 61.687 Q 441.262 61.722 441.288 61.766 Q 441.613 62.364 441.727 63.014 Q 441.789 63.348 441.82 64.077 Q 441.85 64.807 441.85 65.958 Q 441.85 68.217 441.727 68.911 Q 441.666 69.254 441.556 69.562 Q 441.446 69.869 441.297 70.151 Q 440.831 70.994 439.794 71.733 Q 438.757 72.462 437.254 72.462 Q 435.733 72.462 434.696 71.733 Q 433.677 71.012 433.22 70.151 L 433.228 70.151 Q 433.061 69.852 432.947 69.549 Q 432.833 69.245 432.771 68.911 Q 432.719 68.577 432.688 67.844 Q 432.657 67.11 432.657 65.958 Q 432.657 64.807 432.688 64.077 Q 432.719 63.348 432.771 63.014 Q 432.833 62.68 432.947 62.372 Q 433.061 62.065 433.228 61.766 L 433.22 61.766 Q 433.677 60.913 434.696 60.184 Q 435.724 59.446 437.254 59.446 Q 438.765 59.446 439.794 60.184 Q 440.181 60.465 440.488 60.755 Q 441.402 60.421 441.429 59.639 Q 441.42 59.041 441.051 58.786 Z M 444.162 72.357 Q 444.057 72.357 444.057 72.251 L 444.057 59.657 Q 444.057 59.551 444.162 59.551 L 445.973 59.551 Q 446.026 59.551 446.061 59.604 L 451.598 68.323 L 451.598 59.657 Q 451.598 59.551 451.703 59.551 L 453.619 59.551 Q 453.725 59.551 453.725 59.657 L 453.725 72.251 Q 453.725 72.357 453.619 72.357 L 451.818 72.357 Q 451.765 72.357 451.73 72.304 L 446.175 63.585 L 446.175 72.251 Q 446.175 72.357 446.078 72.357 Z" transform="matrix(1.310387, 0, 0, 1.310387, -59.698296, -1.169035)" style="fill: rgb(255, 255, 255);"/>
    <path d="M 426.152 119.118 Q 426.045 119.118 426.045 119.011 L 426.045 106.277 Q 426.045 106.17 426.152 106.17 L 434.292 106.17 Q 434.399 106.17 434.399 106.277 L 434.399 108.107 Q 434.399 108.214 434.292 108.214 L 428.187 108.214 L 428.187 111.626 L 433.377 111.626 Q 433.484 111.626 433.484 111.733 L 433.484 113.457 Q 433.484 113.555 433.377 113.555 L 428.187 113.555 L 428.187 117.092 L 434.292 117.092 Q 434.399 117.092 434.399 117.198 L 434.399 119.011 Q 434.399 119.118 434.292 119.118 Z M 442.572 119.118 Q 442.519 119.118 442.483 119.065 L 439.781 114.479 Q 439.106 115.634 438.431 116.772 Q 437.755 117.909 437.08 119.065 Q 437.044 119.118 436.991 119.118 L 434.814 119.118 Q 434.743 119.118 434.716 119.069 Q 434.689 119.02 434.725 118.958 L 438.591 112.48 Q 437.675 110.933 436.778 109.405 Q 435.88 107.876 434.974 106.33 Q 434.938 106.268 434.965 106.219 Q 434.992 106.17 435.054 106.17 L 437.24 106.17 Q 437.293 106.17 437.329 106.223 L 439.781 110.489 Q 440.395 109.422 441.008 108.361 Q 441.621 107.299 442.234 106.223 Q 442.27 106.17 442.323 106.17 L 444.509 106.17 Q 444.571 106.17 444.598 106.219 Q 444.625 106.268 444.589 106.33 L 440.972 112.48 Q 441.95 114.106 442.91 115.719 Q 443.869 117.332 444.847 118.958 Q 444.882 119.02 444.856 119.069 Q 444.829 119.118 444.758 119.118 Z M 448.149 108.214 L 448.149 112.106 L 450.913 112.106 Q 451.935 112.106 452.433 111.493 Q 452.939 110.898 452.939 110.16 Q 452.939 109.058 452.157 108.552 Q 451.65 108.214 450.842 108.214 Z M 446.114 119.118 Q 446.007 119.118 446.007 119.011 L 446.007 106.277 Q 446.007 106.17 446.114 106.17 L 450.735 106.17 Q 451.499 106.17 452.184 106.33 Q 452.877 106.49 453.659 107.094 Q 453.961 107.334 454.214 107.65 Q 454.468 107.965 454.672 108.347 Q 454.867 108.738 454.974 109.209 Q 455.081 109.68 455.081 110.213 Q 455.081 111.609 454.032 112.879 Q 452.983 114.141 450.984 114.141 L 448.149 114.141 L 448.149 119.011 Q 448.149 119.118 448.042 119.118 Z M 458.768 108.098 L 458.768 111.751 L 461.585 111.751 Q 462.616 111.751 463.131 111.182 Q 463.647 110.613 463.647 109.831 Q 463.647 109.387 463.491 109.04 Q 463.336 108.694 463.042 108.472 Q 462.785 108.294 462.442 108.196 Q 462.1 108.098 461.7 108.098 Z M 456.733 119.118 Q 456.626 119.118 456.626 119.011 L 456.626 106.277 Q 456.626 106.17 456.733 106.17 L 461.718 106.17 Q 462.545 106.17 463.211 106.397 Q 463.878 106.623 464.375 107.041 Q 464.633 107.281 464.869 107.587 Q 465.104 107.894 465.286 108.249 Q 465.468 108.605 465.575 109.005 Q 465.682 109.405 465.682 109.831 Q 465.682 110.462 465.504 111.027 Q 465.326 111.591 465.006 112.08 Q 464.677 112.533 464.242 112.875 Q 463.807 113.217 463.256 113.422 Q 463.975 114.799 464.704 116.19 Q 465.433 117.58 466.153 118.958 Q 466.179 119.02 466.153 119.069 Q 466.126 119.118 466.064 119.118 L 463.771 119.118 Q 463.744 119.118 463.718 119.096 Q 463.691 119.073 463.673 119.056 L 461.069 113.679 L 458.768 113.679 L 458.768 119.011 Q 458.768 119.118 458.661 119.118 Z M 467.66 119.118 Q 467.554 119.118 467.554 119.011 L 467.554 106.277 Q 467.554 106.17 467.66 106.17 L 475.801 106.17 Q 475.907 106.17 475.907 106.277 L 475.907 108.107 Q 475.907 108.214 475.801 108.214 L 469.695 108.214 L 469.695 111.626 L 474.885 111.626 Q 474.992 111.626 474.992 111.733 L 474.992 113.457 Q 474.992 113.555 474.885 113.555 L 469.695 113.555 L 469.695 117.092 L 475.801 117.092 Q 475.907 117.092 475.907 117.198 L 475.907 119.011 Q 475.907 119.118 475.801 119.118 Z M 477.682 115.848 Q 477.708 115.812 477.753 115.812 Q 477.797 115.812 477.833 115.839 Q 478.535 116.407 479.446 116.75 Q 480.357 117.092 481.37 117.092 Q 482.507 117.092 483.165 116.621 Q 483.787 116.168 483.787 115.421 Q 483.787 114.017 482.214 113.804 L 482.223 113.804 Q 482.001 113.777 481.801 113.75 Q 481.601 113.724 481.401 113.697 Q 481.201 113.67 480.992 113.639 Q 480.783 113.608 480.534 113.573 Q 479.699 113.457 479.046 113.15 Q 478.393 112.844 477.948 112.337 Q 477.504 111.822 477.282 111.213 Q 477.06 110.604 477.06 109.885 Q 477.06 108.196 478.179 107.139 Q 479.308 106.063 481.316 106.063 Q 481.912 106.063 482.476 106.166 Q 483.04 106.268 483.569 106.445 Q 484.098 106.623 484.582 106.868 Q 485.067 107.112 485.511 107.405 Q 485.6 107.467 485.538 107.556 L 484.462 109.147 Q 484.4 109.227 484.32 109.174 Q 483.627 108.738 482.845 108.476 Q 482.063 108.214 481.228 108.214 Q 480.801 108.214 480.437 108.316 Q 480.072 108.418 479.779 108.649 Q 479.201 109.067 479.201 109.92 Q 479.201 110.409 479.592 110.871 Q 479.788 111.084 480.117 111.231 Q 480.445 111.378 480.925 111.449 Q 481.183 111.493 481.53 111.542 Q 481.876 111.591 482.347 111.644 Q 484.169 111.866 485.049 112.986 Q 485.929 114.079 485.929 115.421 Q 485.929 117.216 484.676 118.229 Q 483.414 119.225 481.352 119.225 Q 478.446 119.225 476.411 117.447 Q 476.375 117.421 476.375 117.376 Q 476.375 117.332 476.402 117.296 Z M 487.952 115.848 Q 487.978 115.812 488.023 115.812 Q 488.067 115.812 488.103 115.839 Q 488.805 116.407 489.716 116.75 Q 490.627 117.092 491.64 117.092 Q 492.777 117.092 493.435 116.621 Q 494.057 116.168 494.057 115.421 Q 494.057 114.017 492.484 113.804 L 492.493 113.804 Q 492.271 113.777 492.071 113.75 Q 491.871 113.724 491.671 113.697 Q 491.471 113.67 491.262 113.639 Q 491.053 113.608 490.804 113.573 Q 489.969 113.457 489.316 113.15 Q 488.663 112.844 488.218 112.337 Q 487.774 111.822 487.552 111.213 Q 487.33 110.604 487.33 109.885 Q 487.33 108.196 488.449 107.139 Q 489.578 106.063 491.586 106.063 Q 492.182 106.063 492.746 106.166 Q 493.311 106.268 493.839 106.445 Q 494.368 106.623 494.852 106.868 Q 495.337 107.112 495.781 107.405 Q 495.87 107.467 495.808 107.556 L 494.732 109.147 Q 494.67 109.227 494.59 109.174 Q 493.897 108.738 493.115 108.476 Q 492.333 108.214 491.498 108.214 Q 491.071 108.214 490.707 108.316 Q 490.342 108.418 490.049 108.649 Q 489.471 109.067 489.471 109.92 Q 489.471 110.409 489.862 110.871 Q 490.058 111.084 490.387 111.231 Q 490.716 111.378 491.195 111.449 Q 491.453 111.493 491.8 111.542 Q 492.146 111.591 492.617 111.644 Q 494.439 111.866 495.319 112.986 Q 496.199 114.079 496.199 115.421 Q 496.199 117.216 494.946 118.229 Q 493.684 119.225 491.622 119.225 Q 488.716 119.225 486.681 117.447 Q 486.645 117.421 486.645 117.376 Q 486.645 117.332 486.672 117.296 Z M 500.204 119.118 Q 500.115 119.118 500.097 119.038 L 496.907 106.303 Q 496.889 106.25 496.924 106.21 Q 496.96 106.17 497.013 106.17 L 499.057 106.17 Q 499.146 106.17 499.164 106.25 L 501.083 114.95 Q 501.67 112.764 502.265 110.604 Q 502.861 108.445 503.456 106.25 Q 503.474 106.17 503.563 106.17 L 504.958 106.17 Q 505.038 106.17 505.056 106.25 L 507.437 114.95 Q 507.917 112.764 508.397 110.604 Q 508.877 108.445 509.357 106.25 Q 509.375 106.17 509.464 106.17 L 511.508 106.17 Q 511.561 106.17 511.596 106.21 Q 511.632 106.25 511.614 106.303 L 508.424 119.038 Q 508.406 119.118 508.317 119.118 L 506.709 119.118 Q 506.629 119.118 506.611 119.038 L 504.256 110.196 Q 503.669 112.426 503.083 114.621 Q 502.496 116.816 501.91 119.038 Q 501.892 119.118 501.812 119.118 Z M 511.528 119.109 Q 511.466 119.109 511.439 119.065 Q 511.412 119.02 511.43 118.967 L 516.087 106.223 Q 516.104 106.152 516.175 106.152 L 517.766 106.152 Q 517.793 106.152 517.824 106.174 Q 517.855 106.197 517.864 106.223 L 522.512 118.967 Q 522.529 119.02 522.503 119.065 Q 522.476 119.109 522.423 119.109 L 520.388 119.109 Q 520.317 119.109 520.299 119.038 L 519.339 116.23 L 514.647 116.23 Q 514.398 116.95 514.154 117.638 Q 513.909 118.327 513.661 119.038 Q 513.652 119.065 513.621 119.087 Q 513.589 119.109 513.563 119.109 Z M 518.699 114.319 Q 518.682 114.257 518.65 114.186 Q 518.619 114.115 518.602 114.061 Q 518.45 113.626 518.326 113.257 Q 518.202 112.888 518.104 112.613 Q 518.042 112.435 517.984 112.266 Q 517.926 112.097 517.873 111.946 Q 517.828 111.804 517.784 111.675 Q 517.74 111.546 517.695 111.422 Q 517.615 111.164 517.531 110.907 Q 517.446 110.649 517.357 110.373 Q 517.313 110.249 517.264 110.098 Q 517.215 109.947 517.162 109.778 Q 517.135 109.689 517.122 109.64 Q 517.109 109.591 517.091 109.542 Q 517.073 109.494 517.051 109.431 Q 517.029 109.369 516.993 109.254 Q 516.895 109.547 516.811 109.796 Q 516.726 110.045 516.655 110.258 Q 516.638 110.311 516.629 110.356 Q 516.62 110.4 516.602 110.444 Q 516.558 110.596 516.509 110.729 Q 516.46 110.862 516.415 110.995 Q 516.371 111.138 516.327 111.271 Q 516.282 111.404 516.238 111.529 Q 516.149 111.795 516.056 112.089 Q 515.962 112.382 515.847 112.702 Q 515.731 113.022 515.607 113.39 Q 515.482 113.759 515.287 114.319 Z M 525.493 119.118 Q 525.395 119.118 525.395 119.011 L 525.395 113.804 Q 524.435 111.929 523.484 110.062 Q 522.533 108.196 521.582 106.321 Q 521.556 106.259 521.582 106.214 Q 521.609 106.17 521.68 106.17 L 523.706 106.17 Q 523.733 106.17 523.76 106.192 Q 523.786 106.214 523.804 106.232 L 526.417 111.689 Q 527.074 110.311 527.719 108.96 Q 528.363 107.61 529.021 106.232 Q 529.038 106.214 529.065 106.192 Q 529.092 106.17 529.118 106.17 L 531.153 106.17 Q 531.224 106.17 531.251 106.214 Q 531.278 106.259 531.251 106.321 L 527.43 113.804 L 527.43 119.011 Q 527.43 119.118 527.323 119.118 Z" style="fill: rgb(255, 255, 255);"/>
    <path d="M 399.651 178.435 Q 399.404 177.922 399.351 177.471 Q 399.298 177.021 399.298 176.119 L 399.298 171.188 Q 399.298 170.463 399.572 169.774 Q 399.846 169.084 400.836 167.679 Q 401.826 166.274 404.406 166.274 Q 406.828 166.274 408.224 167.918 Q 409.621 169.561 409.621 171.665 L 409.621 175.607 Q 409.621 176.985 409.037 178.435 L 404.477 190.631 L 400.571 190.631 L 404.583 180.467 Q 403.646 180.68 403.134 180.68 Q 402.02 180.68 401.057 180.043 Q 400.093 179.407 399.651 178.435 Z M 404.512 169.668 Q 403.646 169.668 403.213 170.251 Q 402.78 170.834 402.78 171.665 L 402.78 175.607 Q 402.78 176.508 403.248 177.091 Q 403.717 177.675 404.618 177.675 Q 405.414 177.675 405.794 177.109 Q 406.174 176.543 406.174 175.607 L 406.174 171.665 Q 406.174 170.763 405.794 170.215 Q 405.414 169.668 404.512 169.668 Z M 415.498 190.856 Q 411.697 190.131 411.079 186.401 Q 411.079 182.53 411.079 178.642 Q 411.079 174.753 411.079 170.847 Q 411.556 168.019 413.58 167.038 Q 415.604 166.057 418.202 166.64 Q 419.51 167.435 420.305 168.319 Q 421.101 169.203 421.401 170.847 Q 421.401 174.753 421.401 178.624 Q 421.401 182.495 421.401 186.331 Q 420.889 189.848 417.636 190.82 Q 417.23 190.82 416.956 190.838 Q 416.682 190.856 415.498 190.856 Z M 415.851 187.374 Q 417.442 187.374 417.884 185.977 Q 417.884 182.318 417.884 178.677 Q 417.884 175.036 417.884 171.377 Q 417.672 170.723 417.407 170.299 Q 416.364 169.503 415.639 169.954 Q 414.914 170.405 414.596 171.377 Q 414.596 175.001 414.596 178.642 Q 414.596 182.283 414.596 185.906 Q 414.808 187.02 415.851 187.374 Z"/>
    <path d="M 343.122 84.558 Q 343.194 84.558 343.242 84.612 Q 343.29 84.666 343.266 84.738 Q 342.761 87.189 341.032 88.51 Q 340.191 89.147 339.206 89.471 Q 338.221 89.795 337.08 89.795 Q 335.002 89.795 333.584 88.798 Q 332.191 87.813 331.566 86.636 Q 331.35 86.228 331.194 85.813 Q 331.038 85.399 330.954 84.942 Q 330.798 84.054 330.798 80.906 Q 330.798 79.333 330.834 78.336 Q 330.87 77.339 330.954 76.883 Q 331.038 76.426 331.194 76.006 Q 331.35 75.585 331.566 75.177 Q 332.191 74.012 333.584 73.015 Q 334.99 72.006 337.08 72.006 Q 339.578 72.006 341.212 73.543 Q 342.869 75.093 343.266 77.219 Q 343.29 77.291 343.242 77.339 Q 343.194 77.387 343.122 77.387 L 340.371 77.387 Q 340.263 77.387 340.239 77.291 Q 340.083 76.81 339.794 76.396 Q 339.506 75.982 339.086 75.621 Q 338.293 74.913 337.08 74.913 Q 336.179 74.913 335.542 75.273 Q 334.906 75.633 334.521 76.102 Q 334.293 76.39 334.125 76.756 Q 333.957 77.123 333.861 77.507 Q 333.765 77.916 333.729 78.768 Q 333.693 79.621 333.693 80.906 Q 333.693 82.216 333.729 83.063 Q 333.765 83.909 333.861 84.318 Q 333.957 84.69 334.131 85.057 Q 334.305 85.423 334.521 85.699 Q 334.906 86.204 335.542 86.558 Q 336.179 86.912 337.08 86.912 Q 339.158 86.912 340.239 84.642 Q 340.263 84.618 340.299 84.588 Q 340.335 84.558 340.371 84.558 Z M 348.15 89.651 Q 348.006 89.651 348.006 89.507 L 348.006 74.756 L 343.429 74.756 Q 343.285 74.756 343.285 74.612 L 343.285 72.294 Q 343.285 72.15 343.429 72.15 L 355.465 72.15 Q 355.609 72.15 355.609 72.294 L 355.609 74.612 Q 355.609 74.756 355.465 74.756 L 350.9 74.756 L 350.9 89.507 Q 350.9 89.651 350.756 89.651 Z M 355.978 89.651 Q 355.834 89.651 355.834 89.507 L 355.834 87.068 Q 355.834 86.924 355.978 86.924 L 358.428 86.924 Q 358.56 86.924 358.56 87.068 L 358.56 89.507 Q 358.56 89.651 358.428 89.651 Z M 366.923 77.327 Q 366.923 76.162 366.304 75.507 Q 365.686 74.853 364.653 74.853 Q 363.62 74.853 363.007 75.507 Q 362.395 76.162 362.395 77.327 L 362.395 84.594 Q 362.395 85.771 363.007 86.42 Q 363.62 87.068 364.653 87.068 Q 365.686 87.068 366.304 86.42 Q 366.923 85.771 366.923 84.594 Z M 359.656 77.183 Q 359.656 74.756 361.181 73.447 Q 362.695 72.114 364.653 72.114 Q 365.626 72.114 366.497 72.456 Q 367.367 72.799 368.124 73.447 Q 368.881 74.12 369.271 75.051 Q 369.662 75.982 369.662 77.183 L 369.662 84.738 Q 369.662 87.153 368.124 88.474 Q 366.611 89.795 364.653 89.795 Q 362.695 89.795 361.181 88.474 Q 359.656 87.165 359.656 84.738 Z M 374.694 89.687 Q 374.55 89.687 374.55 89.543 L 374.55 75.273 Q 373.997 75.681 373.445 76.096 Q 372.892 76.51 372.34 76.907 Q 372.256 76.967 372.183 76.925 Q 372.111 76.883 372.111 76.786 L 372.111 74.18 Q 372.111 74.156 372.129 74.12 Q 372.147 74.084 372.171 74.06 L 374.646 72.27 L 377.156 72.27 Q 377.3 72.27 377.3 72.414 L 377.3 89.543 Q 377.3 89.687 377.156 89.687 Z"/>
  </g>
</svg>