<?xml version="1.0" encoding="utf-8"?>
<!-- Generator: Adobe Illustrator 18.1.1, SVG Export Plug-In . SVG Version: 6.00 Build 0)  -->
<svg version="1.1" id="Layer_1" xmlns="http://www.w3.org/2000/svg" xmlns:xlink="http://www.w3.org/1999/xlink" x="0px" y="0px"
	 viewBox="0 0 122 57" enable-background="new 0 0 122 57" xml:space="preserve">
<path fill="#FFFFFF" stroke="#000000" stroke-width="2" stroke-miterlimit="10" d="M119,56H3c-1.1,0-2-0.9-2-2V3c0-1.1,0.9-2,2-2
	h116c1.1,0,2,0.9,2,2v51C121,55.1,120.1,56,119,56z"/>
<g>
	<path d="M26.4,46.8c0,0-0.1,0.1-0.2,0.1s-0.1,0-0.2-0.1l-3.3-3.2c-0.8,0.8-1.8,1.5-2.9,2s-2.3,0.8-3.6,0.8c-2.2,0-4.1-0.6-5.6-1.9
		c-1.5-1.3-2.5-2.7-3.2-4.2h0c-0.2-0.5-0.4-1.1-0.6-1.6s-0.3-1.1-0.4-1.7c-0.2-1.2-0.3-3.9-0.3-7.9c0-2,0-3.7,0.1-5
		c0-1.3,0.1-2.2,0.2-2.8c0.1-0.6,0.2-1.2,0.4-1.7s0.4-1.1,0.6-1.6h0c0.3-0.8,0.8-1.5,1.3-2.2c0.5-0.7,1.2-1.4,1.9-2
		c1.5-1.3,3.4-2,5.6-2c2.2,0,4.1,0.7,5.6,2c1.5,1.3,2.6,2.7,3.3,4.2c0.2,0.5,0.4,1.1,0.6,1.6s0.3,1.1,0.4,1.7s0.2,1.5,0.2,2.8
		s0.1,3,0.1,5c0,3.7-0.1,6.1-0.2,7.4c-0.1,0.6-0.2,1.1-0.3,1.7s-0.3,1-0.5,1.4c0.6,0.5,1.2,1.1,1.7,1.7c0.6,0.6,1.2,1.2,1.7,1.7
		c0.1,0,0.1,0.1,0.1,0.2c0,0.1,0,0.1-0.1,0.2L26.4,46.8z M15.7,36.7c-0.1,0-0.1-0.1-0.1-0.2c0-0.1,0-0.1,0-0.2l2.5-3.5
		c0.1-0.1,0.2-0.1,0.3,0l2.9,2.8c0.1-0.6,0.2-1.4,0.2-2.5s0.1-2.4,0.1-4c0-1.7,0-3.1-0.1-4.2c-0.1-1.1-0.1-1.9-0.2-2.4
		c-0.1-0.5-0.2-1-0.4-1.5c-0.2-0.5-0.4-0.9-0.6-1.3c-0.2-0.3-0.4-0.6-0.7-0.9c-0.3-0.3-0.6-0.5-0.9-0.7c-0.3-0.2-0.7-0.4-1.1-0.5
		c-0.4-0.1-0.9-0.2-1.3-0.2c-0.9,0-1.8,0.2-2.4,0.7s-1.2,1-1.6,1.6c-0.3,0.4-0.5,0.8-0.6,1.3c-0.2,0.5-0.3,1-0.4,1.5
		c-0.2,1.1-0.3,3.3-0.3,6.6c0,3.4,0.1,5.6,0.3,6.7c0.1,0.5,0.2,1,0.4,1.4c0.2,0.5,0.4,0.9,0.6,1.3c0.4,0.7,0.9,1.2,1.6,1.7
		s1.5,0.7,2.4,0.7c1,0,1.9-0.3,2.7-0.9L15.7,36.7z"/>
	<path d="M32.1,46.1c-0.2,0-0.2-0.1-0.2-0.3V12.2c0-0.2,0.1-0.3,0.2-0.3h4.2c0.2,0,0.2,0.1,0.2,0.3v28.5h13.2c0.2,0,0.2,0.1,0.2,0.3
		v4.8c0,0.2-0.1,0.3-0.2,0.3H32.1z"/>
	<path d="M53.6,46.1c-0.2,0-0.2-0.1-0.2-0.3v-4.8c0-0.2,0.1-0.3,0.2-0.3h3.9c0.1,0,0.2,0.1,0.2,0.3v4.8c0,0.2-0.1,0.3-0.2,0.3H53.6z
		"/>
	<path d="M62.1,21.8c0-1.5,0.2-2.9,0.7-4.2s1-2.3,1.8-3.2c0.7-0.8,1.5-1.4,2.5-1.9c0.9-0.4,1.9-0.7,2.9-0.7c2.1,0,3.9,0.9,5.4,2.6
		c1.5,1.7,2.3,4.2,2.3,7.3v14.8c0,1.5-0.2,2.9-0.7,4.1s-1,2.3-1.7,3.2c-0.7,0.8-1.5,1.4-2.5,1.9c-0.9,0.5-1.9,0.7-3,0.7
		c-1.8-0.1-3.4-0.8-4.8-2.1v0c-0.7-0.7-1.3-1.5-1.8-2.5c-0.5-1-0.8-2.1-1-3.3c0-0.1,0-0.1,0-0.2s0.1-0.1,0.2-0.1h3.9
		c0.1,0,0.2,0.1,0.2,0.2c0.6,1.8,1.7,2.6,3.3,2.6c2.3,0,3.4-1.6,3.5-4.9v-2.8c-0.8,0.3-1.7,0.6-2.5,0.7c-0.8,0.2-1.6,0.2-2.3,0.2
		c-1.8,0-3.3-0.7-4.6-2.3h0c-1.3-1.5-1.9-4-1.9-7.2V21.8z M66.3,24.8c0,3.2,1.2,4.8,3.5,4.9c2.3,0,3.5-1.7,3.5-4.9v-2.7
		c-0.1-3.2-1.3-4.8-3.5-4.9c-2.3,0.1-3.5,1.7-3.5,4.9V24.8z"/>
	<path d="M86.2,46.2c-0.2,0-0.2-0.1-0.2-0.3V18c-0.6,0.5-1.2,1.1-1.8,1.6s-1.2,1.1-1.8,1.6c-0.1,0.1-0.2,0.1-0.2,0
		c-0.1-0.1-0.1-0.1-0.1-0.3v-5.1c0,0,0-0.1,0-0.1c0,0,0-0.1,0.1-0.1l3.9-3.5h4c0.2,0,0.2,0.1,0.2,0.3v33.4c0,0.2-0.1,0.3-0.2,0.3
		H86.2z"/>
	<path d="M96,46.1c-0.2,0-0.2-0.1-0.2-0.3V12.2c0-0.2,0.1-0.3,0.2-0.3h10.7c2.7,0,4.8,0.9,6.2,2.6c1.4,1.7,2.1,4,2.1,6.7
		c0,1.5-0.3,2.9-0.8,4.1c-0.5,1.2-1.5,2.2-2.9,3.1c1.3,0.5,2.3,1.5,3,2.9c0.4,0.8,0.7,1.6,0.9,2.4c0.2,0.8,0.3,1.7,0.3,2.5
		c0,3-0.8,5.4-2.4,7.1c-1.6,1.8-3.4,2.6-5.5,2.6H96z M100.3,17v9.1h5.8c1.4,0,2.5-0.4,3.2-1.3c0.7-0.9,1-1.9,1-3.2
		c0-1.3-0.3-2.3-1-3.2c-0.7-0.9-1.7-1.4-3.2-1.4H100.3z M100.3,31.2v9.6h6.2c1.4,0,2.5-0.5,3.2-1.4c0.7-1,1-2.1,1-3.4
		c0-1.3-0.3-2.4-1-3.3c-0.7-1-1.7-1.5-3.2-1.5H100.3z"/>
</g>
</svg>
