<?xml version="1.0" encoding="UTF-8" standalone="no"?>
<!-- Created with Inkscape (http://www.inkscape.org/) -->

<svg
   width="300mm"
   height="300mm"
   viewBox="0 0 300 300"
   version="1.1"
   id="svg848"
   inkscape:version="1.2.2 (732a01da63, 2022-12-09)"
   sodipodi:docname="Vietnam_road_sign_I443d.svg"
   xmlns:inkscape="http://www.inkscape.org/namespaces/inkscape"
   xmlns:sodipodi="http://sodipodi.sourceforge.net/DTD/sodipodi-0.dtd"
   xmlns="http://www.w3.org/2000/svg"
   xmlns:svg="http://www.w3.org/2000/svg"
   xmlns:rdf="http://www.w3.org/1999/02/22-rdf-syntax-ns#"
   xmlns:cc="http://creativecommons.org/ns#"
   xmlns:dc="http://purl.org/dc/elements/1.1/">
  <defs
     id="defs842" />
  <sodipodi:namedview
     id="base"
     pagecolor="#ffffff"
     bordercolor="#666666"
     borderopacity="1.0"
     inkscape:pageopacity="0.0"
     inkscape:pageshadow="2"
     inkscape:zoom="0.3499503"
     inkscape:cx="652.94986"
     inkscape:cy="867.26601"
     inkscape:document-units="mm"
     inkscape:current-layer="layer1"
     showgrid="false"
     inkscape:snap-global="false"
     inkscape:window-width="1920"
     inkscape:window-height="991"
     inkscape:window-x="-9"
     inkscape:window-y="-9"
     inkscape:window-maximized="1"
     fit-margin-top="0"
     fit-margin-left="0"
     fit-margin-right="0"
     fit-margin-bottom="0"
     showguides="false"
     inkscape:showpageshadow="2"
     inkscape:pagecheckerboard="0"
     inkscape:deskcolor="#d1d1d1" />
  <metadata
     id="metadata845">
    <rdf:RDF>
      <cc:Work
         rdf:about="">
        <dc:format>image/svg+xml</dc:format>
        <dc:type
           rdf:resource="http://purl.org/dc/dcmitype/StillImage" />
      </cc:Work>
    </rdf:RDF>
  </metadata>
  <g
     inkscape:label="Layer 1"
     inkscape:groupmode="layer"
     id="layer1"
     transform="translate(0,3)">
    <rect
       style="opacity:1;fill:#0046aa;fill-opacity:1;fill-rule:nonzero;stroke:none;stroke-width:1.27162981;stroke-linecap:butt;stroke-linejoin:miter;stroke-miterlimit:10;stroke-dasharray:none;stroke-opacity:1;paint-order:stroke fill markers"
       id="rect1393"
       width="300"
       height="300"
       x="0"
       y="-3" />
    <rect
       y="2"
       x="5"
       height="290"
       width="290"
       id="rect1395"
       style="opacity:1;fill:#ffffff;fill-opacity:1;fill-rule:nonzero;stroke:none;stroke-width:1.22924209;stroke-linecap:butt;stroke-linejoin:miter;stroke-miterlimit:10;stroke-dasharray:none;stroke-opacity:1;paint-order:stroke fill markers" />
    <g
       id="g41843"
       transform="matrix(-1,0,0,1,299.99936,0)">
      <rect
         y="7"
         x="10"
         height="280"
         width="280"
         id="rect1406"
         style="opacity:1;fill:#0046aa;fill-opacity:1;fill-rule:nonzero;stroke:none;stroke-width:1.18686;stroke-linecap:butt;stroke-linejoin:miter;stroke-miterlimit:10;stroke-dasharray:none;stroke-opacity:1;paint-order:stroke fill markers" />
      <path
         id="path66069"
         style="color:#000000;opacity:1;fill:#ffffff;fill-rule:evenodd;stroke-width:3.11616;stroke-linecap:round;stroke-linejoin:round;-inkscape-stroke:none"
         d="m 108.14038,82.455683 c -2.38518,-0.0104 -4.76658,-0.002 -5.20381,0.004 -0.0632,9.5e-4 -0.12636,0.0224 -0.18955,0.0224 a 6.4703285,6.4703285 0 0 0 -4.2769,1.69016 L 76.92479,104.04699 a 6.4709755,6.4709755 0 0 0 -2.0819,4.76089 v 28.04535 a 6.4703285,6.4703285 0 0 0 6.46812,6.46811 6.4703285,6.4703285 0 0 0 6.46811,-6.46811 v -25.21535 l 9.65889,-8.91016 -0.15796,1.21312 -3.27291,26.11003 c -0.28433,2.2683 -0.92248,7.11038 -0.28433,10.83222 0.36331,2.08506 1.57643,3.12759 2.59369,4.54638 3.34526,4.66422 11.43025,12.88157 11.43025,12.88157 l 13.93137,13.32418 -20.13949,30.14968 c -2.65687,3.38696 -2.0661,8.28875 1.32054,10.94626 1.62698,1.27631 3.69435,1.85444 5.74688,1.60803 2.05031,-0.25274 3.92212,-1.29843 5.19907,-2.92225 l 27.47953,-35.00219 c 2.23355,-2.84011 2.21775,-6.84564 -0.0316,-9.67247 l -16.98978,-22.82796 7.09806,-48.595837 c 0.63183,-5.03227 -4.12874,-7.27402 -7.46326,-9.56285 -3.03282,-2.08191 -10.558,-3.2091 -10.558,-3.2091 -0.45808,-0.0632 -2.84642,-0.0948 -5.23097,-0.0948 z m 21.05218,42.556427 v 18.49608 l 13.75319,7.93808 8.00664,-13.87198 z m 15.3966,55.68474 -12.30629,15.6705 12.7173,28.10916 c 2.0124,4.44719 7.24875,6.4201 11.69467,4.40517 4.44213,-2.0124 6.41378,-7.24243 4.40485,-11.68583 z" />
      <path
         id="rect65895"
         style="opacity:1;fill:#ffffff;fill-opacity:1;fill-rule:evenodd;stroke:none;stroke-width:10.2147;stroke-linecap:round;stroke-dasharray:none;stroke-opacity:1;paint-order:stroke fill markers"
         d="m 9.99936,198.01044 v 18.7564 h 54.46592 v 17.31833 h 53.08726 v 17.53285 h 54.46593 v 17.31865 H 224.357 v 18.06232 h 65.64027 V 268.24291 H 236.9236 v -18.06264 h -54.46119 v -17.3136 H 129.37074 V 215.32878 H 74.90481 v -17.31834 z" />
      <circle
         style="opacity:1;fill:#ffffff;fill-opacity:1;fill-rule:evenodd;stroke:none;stroke-width:10.0701;stroke-linecap:round;stroke-dasharray:none;stroke-opacity:1;paint-order:stroke fill markers"
         id="path66012"
         cx="122.39557"
         cy="66.468239"
         r="16.108429" />
    </g>
  </g>
</svg>
