<?xml version="1.0" encoding="UTF-8" standalone="no"?>
<!-- Created with Inkscape (http://www.inkscape.org/) -->

<svg
   width="900mm"
   height="450mm"
   viewBox="0 0 900 450"
   version="1.1"
   id="svg848"
   inkscape:version="1.2.2 (732a01da63, 2022-12-09)"
   sodipodi:docname="Vietnam_road_sign_I417a.svg"
   xmlns:inkscape="http://www.inkscape.org/namespaces/inkscape"
   xmlns:sodipodi="http://sodipodi.sourceforge.net/DTD/sodipodi-0.dtd"
   xmlns="http://www.w3.org/2000/svg"
   xmlns:svg="http://www.w3.org/2000/svg"
   xmlns:rdf="http://www.w3.org/1999/02/22-rdf-syntax-ns#"
   xmlns:cc="http://creativecommons.org/ns#"
   xmlns:dc="http://purl.org/dc/elements/1.1/">
  <defs
     id="defs842">
    <clipPath
       id="clip-192">
      <path
         clip-rule="nonzero"
         d="M 1.5,1.980469 H 549 V 539 H 1.5 Z m 0,0"
         id="path14718" />
    </clipPath>
    <clipPath
       id="clip-193">
      <path
         clip-rule="nonzero"
         d="M 1.5,1.980469 H 572 V 539 H 1.5 Z m 0,0"
         id="path14721" />
    </clipPath>
    <clipPath
       id="clip-195">
      <path
         clip-rule="nonzero"
         d="M 1.5,1.980469 H 602 V 539 H 1.5 Z m 0,0"
         id="path14727" />
    </clipPath>
    <clipPath
       id="clip-196">
      <path
         clip-rule="nonzero"
         d="M 1.5,1.980469 H 610.73828 V 539 H 1.5 Z m 0,0"
         id="path14730" />
    </clipPath>
    <clipPath
       id="clip-197">
      <path
         clip-rule="nonzero"
         d="M 1.5,1.980469 H 409 V 422 H 1.5 Z m 0,0"
         id="path14733" />
    </clipPath>
    <clipPath
       id="clip-198">
      <path
         clip-rule="nonzero"
         d="M 1.5,1.980469 H 421 V 422 H 1.5 Z m 0,0"
         id="path14736" />
    </clipPath>
    <clipPath
       id="clip-200">
      <path
         clip-rule="nonzero"
         d="M 13,1.980469 H 437 V 422 H 13 Z m 0,0"
         id="path14742" />
    </clipPath>
    <clipPath
       id="clip-201">
      <path
         clip-rule="nonzero"
         d="M 19,1.980469 H 442 V 422 H 19 Z m 0,0"
         id="path14745" />
    </clipPath>
    <clipPath
       id="clip-202">
      <path
         clip-rule="nonzero"
         d="M 27,1.980469 H 451 V 422 H 27 Z m 0,0"
         id="path14748" />
    </clipPath>
    <clipPath
       id="clip-203">
      <path
         clip-rule="nonzero"
         d="M 37,1.980469 H 461 V 422 H 37 Z m 0,0"
         id="path14751" />
    </clipPath>
    <clipPath
       id="clip-205">
      <path
         clip-rule="nonzero"
         d="M 54,1.980469 H 478 V 422 H 54 Z m 0,0"
         id="path14757" />
    </clipPath>
    <clipPath
       id="clip-206">
      <path
         clip-rule="nonzero"
         d="M 61,1.980469 H 485 V 422 H 61 Z m 0,0"
         id="path14760" />
    </clipPath>
    <clipPath
       id="clip-208">
      <path
         clip-rule="nonzero"
         d="M 76,1.980469 H 500 V 422 H 76 Z m 0,0"
         id="path14766" />
    </clipPath>
    <clipPath
       id="clip-209">
      <path
         clip-rule="nonzero"
         d="M 1.5,20 H 409 V 444 H 1.5 Z m 0,0"
         id="path14769" />
    </clipPath>
    <clipPath
       id="clip-210">
      <path
         clip-rule="nonzero"
         d="M 1.5,20 H 421 V 444 H 1.5 Z m 0,0"
         id="path14772" />
    </clipPath>
  </defs>
  <sodipodi:namedview
     id="base"
     pagecolor="#ffffff"
     bordercolor="#666666"
     borderopacity="1.0"
     inkscape:pageopacity="0.0"
     inkscape:pageshadow="2"
     inkscape:zoom="0.24745223"
     inkscape:cx="1509.3822"
     inkscape:cy="979.98713"
     inkscape:document-units="mm"
     inkscape:current-layer="layer1"
     showgrid="false"
     inkscape:snap-global="false"
     inkscape:window-width="1920"
     inkscape:window-height="991"
     inkscape:window-x="-9"
     inkscape:window-y="-9"
     inkscape:window-maximized="1"
     fit-margin-top="0"
     fit-margin-left="0"
     fit-margin-right="0"
     fit-margin-bottom="0"
     showguides="false"
     inkscape:lockguides="true"
     inkscape:showpageshadow="2"
     inkscape:pagecheckerboard="0"
     inkscape:deskcolor="#d1d1d1" />
  <metadata
     id="metadata845">
    <rdf:RDF>
      <cc:Work
         rdf:about="">
        <dc:format>image/svg+xml</dc:format>
        <dc:type
           rdf:resource="http://purl.org/dc/dcmitype/StillImage" />
      </cc:Work>
    </rdf:RDF>
  </metadata>
  <g
     inkscape:label="Layer 1"
     inkscape:groupmode="layer"
     id="layer1"
     transform="translate(0,153)">
    <rect
       style="opacity:1;fill:#0046aa;fill-opacity:1;fill-rule:nonzero;stroke:none;stroke-width:2.69753385;stroke-linecap:butt;stroke-linejoin:miter;stroke-miterlimit:10;stroke-dasharray:none;stroke-opacity:1;paint-order:stroke fill markers"
       id="rect1393"
       width="900"
       height="450"
       x="0"
       y="-153" />
    <rect
       y="-148"
       x="5"
       height="440"
       width="890"
       id="rect1395"
       style="opacity:1;fill:#ffffff;fill-opacity:1;fill-rule:nonzero;stroke:none;stroke-width:2.65253282;stroke-linecap:butt;stroke-linejoin:miter;stroke-miterlimit:10;stroke-dasharray:none;stroke-opacity:1;paint-order:stroke fill markers" />
    <rect
       y="-138"
       x="15"
       height="420"
       width="870"
       id="rect1406"
       style="opacity:1;fill:#0046aa;fill-opacity:1;fill-rule:nonzero;stroke:none;stroke-width:2.56226325;stroke-linecap:butt;stroke-linejoin:miter;stroke-miterlimit:10;stroke-dasharray:none;stroke-opacity:1;paint-order:stroke fill markers" />
    <g
       aria-label="ĐOẠN ĐƯỜNG THI CÔNG"
       style="font-style:normal;font-variant:normal;font-weight:bold;font-stretch:normal;font-size:221.00715637px;line-height:0;font-family:Giaothong1;-inkscape-font-specification:'Giaothong1 Bold';letter-spacing:0px;word-spacing:2.73314595px;fill:#000000;fill-opacity:1;stroke:none;stroke-width:1.15107894"
       id="text830"
       transform="translate(87.158,216.08892)" />
    <g
       clip-path="url(#clip-192)"
       id="g18635"
       transform="matrix(4.0813388,0,0,4.0813388,-751.84324,-711.83599)"
       style="opacity:1">
      <g
         fill="#ffffff"
         fill-opacity="1"
         id="g18633">
        <g
           id="use18631"
           transform="translate(194.5452,184.74541)">
          <path
             d="m 16.296875,0.015625 c -0.136719,0 -0.207031,-0.0664063 -0.207031,-0.207031 v -10.597657 h -9.40625 v 10.597657 c 0,0.1406247 -0.070313,0.207031 -0.207031,0.207031 h -3.75 c -0.136719,0 -0.207032,-0.0664063 -0.207032,-0.207031 v -24.738282 c 0,-0.140625 0.070313,-0.207031 0.207032,-0.207031 h 3.75 c 0.136718,0 0.207031,0.06641 0.207031,0.207031 v 10.394532 h 9.40625 v -10.394532 c 0,-0.140625 0.07031,-0.207031 0.207031,-0.207031 h 3.75 c 0.136719,0 0.207031,0.06641 0.207031,0.207031 v 24.738282 c 0,0.1406247 -0.07031,0.207031 -0.207031,0.207031 h -3.75"
             id="path10690" />
        </g>
      </g>
    </g>
    <g
       clip-path="url(#clip-193)"
       id="g18641"
       transform="matrix(4.0813388,0,0,4.0813388,-751.84324,-711.83599)"
       style="opacity:1">
      <g
         fill="#ffffff"
         fill-opacity="1"
         id="g18639">
        <g
           id="use18637"
           transform="translate(217.48311,184.74541)">
          <path
             d="M 0.292969,0 C 0.214844,0 0.15625,-0.0273438 0.121094,-0.0859375 0.0859375,-0.136719 0.078125,-0.207031 0.105469,-0.277344 l 9.046875,-24.757812 c 0.015625,-0.08594 0.074219,-0.136719 0.171875,-0.136719 h 3.089844 c 0.03516,0 0.07031,0.0078 0.113281,0.04297 0.03125,0.02734 0.05859,0.05859 0.07813,0.09375 l 9.027344,24.757812 c 0.01953,0.070313 0.01953,0.128906 -0.01563,0.1914065 C 21.582031,-0.0351563 21.53125,0 21.460938,0 h -3.953125 c -0.08594,0 -0.148438,-0.0429688 -0.171875,-0.136719 L 15.46875,-5.59375 H 6.355469 C 6.035156,-4.660156 5.714844,-3.753906 5.394531,-2.855469 5.085938,-1.96875 4.765625,-1.0625 4.4375,-0.136719 4.429688,-0.105469 4.402344,-0.078125 4.359375,-0.0429688 4.324219,-0.015625 4.28125,0 4.246094,0 H 0.292969 m 13.933594,-9.304688 c -0.01563,-0.078125 -0.05078,-0.164062 -0.09375,-0.261718 -0.03516,-0.085938 -0.07031,-0.171875 -0.09766,-0.238282 -0.1875,-0.5625 -0.371093,-1.082031 -0.535156,-1.5625 -0.152344,-0.476562 -0.300781,-0.890625 -0.429687,-1.253906 -0.07813,-0.222656 -0.15625,-0.449219 -0.234375,-0.671875 -0.06641,-0.21875 -0.144532,-0.425781 -0.214844,-0.621094 -0.05078,-0.183593 -0.113281,-0.355468 -0.171875,-0.527343 -0.05078,-0.164063 -0.113281,-0.328125 -0.171875,-0.492188 -0.105469,-0.328125 -0.207031,-0.664062 -0.320313,-1 -0.105468,-0.328125 -0.214843,-0.675781 -0.335937,-1.039062 -0.05469,-0.152344 -0.113281,-0.335938 -0.183594,-0.535157 -0.05859,-0.1875 -0.128906,-0.394531 -0.199219,-0.621093 -0.03125,-0.113282 -0.05859,-0.199219 -0.07813,-0.265625 -0.01563,-0.0625 -0.03125,-0.121094 -0.05859,-0.191407 -0.01563,-0.05859 -0.04297,-0.128906 -0.07813,-0.214843 -0.02734,-0.07813 -0.05859,-0.191407 -0.113282,-0.347657 -0.117187,0.382813 -0.238281,0.726563 -0.351562,1.054688 -0.105469,0.320312 -0.207031,0.621094 -0.304688,0.898437 -0.01563,0.07031 -0.03125,0.128907 -0.05078,0.1875 -0.0078,0.05469 -0.02344,0.113282 -0.05078,0.175782 -0.05078,0.1875 -0.113281,0.378906 -0.179688,0.550781 -0.0625,0.171875 -0.121093,0.347656 -0.183593,0.519531 -0.050782,0.179688 -0.113282,0.359375 -0.171875,0.535156 -0.050782,0.171875 -0.113282,0.335938 -0.171875,0.5 -0.113282,0.34375 -0.234375,0.707032 -0.355469,1.085938 -0.121094,0.382812 -0.25,0.777344 -0.40625,1.191406 -0.144531,0.414063 -0.300781,0.855469 -0.464844,1.339844 -0.15625,0.472656 -0.363281,1.078125 -0.621094,1.804687 h 6.628907 m -2.277344,-18.058593 c -0.01953,0 -0.05469,-0.01172 -0.08594,-0.02734 -0.03516,-0.01563 -0.05469,-0.02734 -0.07031,-0.04297 L 7.027336,-32.47656 c -0.070313,-0.06641 -0.085938,-0.136718 -0.042969,-0.222656 0.035156,-0.07813 0.101563,-0.121094 0.199219,-0.121094 h 3.796875 c 0.07031,0 0.121094,0.03516 0.171875,0.101563 l 3.609375,5.042969 c 0.03516,0.07813 0.04297,0.148437 0.0078,0.214843 -0.02344,0.0625 -0.08594,0.09766 -0.179687,0.09766 h -2.640625"
             id="path10694" />
        </g>
      </g>
    </g>
    <g
       clip-path="url(#clip-195)"
       id="g18653"
       transform="matrix(4.0813388,0,0,4.0813388,-751.84324,-711.83599)"
       style="opacity:1">
      <g
         fill="#ffffff"
         fill-opacity="1"
         id="g18651">
        <g
           id="use18649"
           transform="translate(248.06934,184.74541)">
          <path
             d="m 2.726563,0.015625 c -0.136719,0 -0.207032,-0.0664063 -0.207032,-0.207031 v -24.738282 c 0,-0.140625 0.070313,-0.207031 0.207032,-0.207031 h 3.558593 c 0.070313,0 0.121094,0.03516 0.171875,0.101563 L 17.335938,-7.90625 v -17.023438 c 0,-0.140625 0.06641,-0.207031 0.207031,-0.207031 h 3.761719 c 0.140625,0 0.207031,0.06641 0.207031,0.207031 v 24.738282 c 0,0.1406247 -0.06641,0.207031 -0.207031,0.207031 h -3.539063 c -0.07031,0 -0.121094,-0.03125 -0.171875,-0.1015625 L 6.683594,-17.214844 v 17.023438 c 0,0.1406247 -0.0625,0.207031 -0.191406,0.207031 H 2.726563"
             id="path10698" />
        </g>
      </g>
    </g>
    <g
       clip-path="url(#clip-196)"
       id="g18663"
       transform="matrix(4.0813388,0,0,4.0813388,-751.84324,-711.83599)"
       style="opacity:1">
      <g
         fill="#ffffff"
         fill-opacity="1"
         id="g18657">
        <g
           id="use18655"
           transform="translate(272.19531,184.74541)">
          <path
             d="m 4.835938,-27.363281 c -0.105469,0 -0.164063,-0.04297 -0.199219,-0.132813 -0.027344,-0.08594 -0.00781,-0.152344 0.078125,-0.214844 l 5.074219,-4.023437 h 2.3125 L 17.25,-27.710938 c 0.07422,0.05078 0.109375,0.128907 0.07422,0.214844 -0.02344,0.08984 -0.08594,0.132813 -0.179688,0.132813 h -2.917968 l -3.433594,-1.847657 c -0.503906,0.308594 -1.019531,0.621094 -1.539063,0.929688 -0.515625,0.3125 -1.027343,0.613281 -1.535156,0.917969 H 4.835938 m -3.058594,14.605468 c 0,-1.503906 0.019531,-2.738281 0.0625,-3.695312 0.035156,-0.949219 0.09375,-1.648438 0.164062,-2.089844 0.078125,-0.429687 0.1875,-0.855469 0.34375,-1.261719 0.148438,-0.394531 0.328125,-0.792968 0.554688,-1.1875 H 2.882813 c 0.597656,-1.117187 1.5625,-2.152343 2.902343,-3.109375 1.34375,-0.96875 3.019532,-1.449218 5.023438,-1.449218 1.976562,0 3.644531,0.480468 4.988281,1.449218 1.355469,0.976563 2.332031,2.011719 2.9375,3.109375 0.421875,0.773438 0.707031,1.59375 0.863281,2.449219 0.07813,0.433594 0.136719,1.132813 0.179688,2.089844 0.03516,0.949219 0.0625,2.183594 0.0625,3.695312 0,2.949219 -0.07813,4.886719 -0.242188,5.800782 -0.07813,0.449218 -0.191406,0.871093 -0.335937,1.277343 -0.140625,0.394532 -0.3125,0.785157 -0.511719,1.15625 -0.605469,1.105469 -1.589844,2.140625 -2.953125,3.109375 -1.355469,0.949219 -3.019531,1.429688 -4.988281,1.429688 -1.984375,0 -3.660156,-0.472656 -5.023438,-1.429688 C 4.453125,-2.355469 3.488281,-3.394531 2.882813,-4.523438 H 2.902344 C 2.683594,-4.910156 2.503906,-5.308594 2.347656,-5.707031 2.203125,-6.101563 2.089844,-6.519531 2.003906,-6.957031 1.933594,-7.390625 1.882813,-8.089844 1.839844,-9.054688 1.804688,-10.015625 1.777344,-11.25 1.777344,-12.757813 m 4.160156,0 c 0,1.25 0.019531,2.285157 0.054688,3.097657 0.035156,0.8125 0.09375,1.40625 0.1875,1.804687 0.085937,0.355469 0.21875,0.707031 0.390625,1.0625 0.164062,0.34375 0.351562,0.65625 0.558593,0.921875 0.363282,0.484375 0.855469,0.890625 1.46875,1.234375 0.605469,0.335938 1.347657,0.511719 2.210938,0.511719 0.84375,0 1.578125,-0.164063 2.191406,-0.511719 0.605469,-0.335937 1.089844,-0.75 1.453125,-1.234375 0.480469,-0.585937 0.792969,-1.242187 0.949219,-1.984375 0.179687,-0.734375 0.273437,-2.367187 0.273437,-4.902344 0,-1.253906 -0.01563,-2.289062 -0.06641,-3.101562 -0.04297,-0.808594 -0.113281,-1.40625 -0.207031,-1.785156 -0.07813,-0.363282 -0.199219,-0.726563 -0.363281,-1.078125 -0.15625,-0.347657 -0.347657,-0.664063 -0.570313,-0.941407 -0.171875,-0.214843 -0.378906,-0.433593 -0.628906,-0.640625 C 13.597656,-20.511719 13.3125,-20.691406 13,-20.847656 12.691406,-21.003906 12.355469,-21.125 11.980469,-21.226563 11.621094,-21.320313 11.222656,-21.375 10.808594,-21.375 c -0.863281,0 -1.597656,0.171875 -2.210938,0.519531 -0.601562,0.34375 -1.097656,0.742188 -1.46875,1.191406 -0.214843,0.277344 -0.402343,0.585938 -0.566406,0.941407 -0.15625,0.34375 -0.285156,0.707031 -0.382812,1.078125 -0.085938,0.386718 -0.152344,0.992187 -0.1875,1.8125 -0.035157,0.8125 -0.054688,1.839843 -0.054688,3.074218 M 9.066406,6.820313 C 8.945313,6.820313 8.875,6.757813 8.875,6.628906 V 3.296875 c 0,-0.121094 0.058594,-0.1875 0.191406,-0.1875 h 3.347657 c 0.113281,0 0.171875,0.058594 0.171875,0.1875 v 3.332031 c 0,0.121094 -0.05078,0.191407 -0.171875,0.191407 H 9.066406"
             id="path10702" />
        </g>
      </g>
      <g
         fill="#ffffff"
         fill-opacity="1"
         id="g18661">
        <g
           id="use18659"
           transform="translate(293.6976,184.74541)">
          <path
             d="m 2.675781,0.015625 c -0.136718,0 -0.207031,-0.0664063 -0.207031,-0.207031 v -24.738282 c 0,-0.140625 0.070313,-0.207031 0.207031,-0.207031 h 3.746094 c 0.140625,0 0.207031,0.06641 0.207031,0.207031 v 24.738282 c 0,0.1406247 -0.066406,0.207031 -0.207031,0.207031 H 2.675781"
             id="path10706" />
        </g>
      </g>
    </g>
    <g
       clip-path="url(#clip-197)"
       id="g18669"
       transform="matrix(4.0813388,0,0,4.0813388,-751.84324,-711.83599)"
       style="opacity:1">
      <g
         fill="#ffffff"
         fill-opacity="1"
         id="g18667">
        <g
           id="use18665"
           transform="translate(197.0538,209.592)">
          <path
             d="m 9.15625,0.0117188 c -0.039062,0 -0.070312,-0.0234376 -0.101562,-0.0625001 L 5.914063,-5.378906 C 5.394531,-4.484375 4.871094,-3.597656 4.347656,-2.714844 3.824219,-1.835938 3.304688,-0.949219 2.777344,-0.0507813 2.75,-0.0117188 2.714844,0.0117188 2.675781,0.0117188 H 0.144531 C 0.09375,0.0117188 0.0507813,-0.00390625 0.03125,-0.046875 0.0117188,-0.0820313 0.0117188,-0.125 0.0429688,-0.175781 L 4.53125,-7.703125 c -0.707031,-1.195313 -1.410156,-2.382813 -2.105469,-3.570313 -0.691406,-1.183593 -1.394531,-2.375 -2.09375,-3.574218 -0.027343,-0.04297 -0.03125,-0.08594 -0.011718,-0.128907 0.019531,-0.03516 0.050781,-0.05469 0.101562,-0.05469 h 2.542969 c 0.039062,0 0.070312,0.01953 0.101562,0.0625 l 2.847657,4.953125 c 0.476562,-0.824219 0.953125,-1.644531 1.425781,-2.472656 0.476562,-0.820313 0.949219,-1.644532 1.425781,-2.480469 0.027344,-0.04297 0.0625,-0.0625 0.101563,-0.0625 h 2.542968 c 0.04297,0 0.08203,0.01563 0.101563,0.05469 0.01953,0.03906 0.01953,0.07813 -0.01172,0.128907 L 7.30078,-7.703125 c 0.753907,1.261719 1.503907,2.515625 2.25,3.765625 0.742188,1.25 1.492188,2.503906 2.25,3.761719 0.02734,0.046875 0.03125,0.0898435 0.01172,0.128906 -0.02344,0.0351562 -0.05859,0.0585938 -0.113281,0.0585938 H 9.15625"
             id="path10710" />
        </g>
      </g>
    </g>
    <g
       clip-path="url(#clip-198)"
       id="g18675"
       transform="matrix(4.0813388,0,0,4.0813388,-751.84324,-711.83599)"
       style="opacity:1">
      <g
         fill="#ffffff"
         fill-opacity="1"
         id="g18673">
        <g
           id="use18671"
           transform="translate(209.00027,209.592)">
          <path
             d="m 9.621094,-4.554688 c 0,0.085938 -0.039063,0.125 -0.121094,0.125 H 3.109375 c 0.019531,0.753907 0.234375,1.332032 0.648438,1.726563 0.453125,0.410156 1.027343,0.617187 1.722656,0.617187 0.828125,0 1.5625,-0.320312 2.210937,-0.96875 0.011719,-0.023437 0.035157,-0.03125 0.074219,-0.039062 0.027344,0 0.058594,0.00781 0.089844,0.027344 l 1.53125,1.300781 c 0.023437,0.019531 0.039062,0.046875 0.039062,0.082031 0,0.03125 -0.011718,0.0625 -0.03125,0.09375 C 8.859375,-0.96875 8.257813,-0.53125 7.59375,-0.261719 6.933594,0 6.234375,0.132813 5.511719,0.132813 c -1.101563,0 -2.167969,-0.347657 -3.1875,-1.062501 -1.042969,-0.710937 -1.570313,-2.171875 -1.570313,-4.375 0,-2.078125 0.476563,-3.515625 1.433594,-4.316406 0.976563,-0.796875 1.976563,-1.199219 3.003906,-1.199219 1.183594,0 2.214844,0.410157 3.097657,1.230469 0.890625,0.824219 1.332031,1.925781 1.332031,3.300781 v 1.734375 M 7.269531,-6.402344 C 7.222656,-7.113281 7.011719,-7.660156 6.628906,-8.03125 6.25,-8.402344 5.769531,-8.589844 5.191406,-8.589844 c -0.597656,0 -1.085937,0.191406 -1.476562,0.578125 -0.171875,0.175781 -0.316406,0.402344 -0.421875,0.683594 -0.101563,0.273437 -0.164063,0.582031 -0.183594,0.925781 h 4.160156"
             id="path10714" />
        </g>
      </g>
    </g>
    <g
       clip-path="url(#clip-200)"
       id="g18687"
       transform="matrix(4.0813388,0,0,4.0813388,-751.84324,-711.83599)"
       style="opacity:1">
      <g
         fill="#ffffff"
         fill-opacity="1"
         id="g18685">
        <g
           id="use18683"
           transform="translate(224.66602,209.592)">
          <path
             d="m 1.539063,0.0195313 c -0.082032,0 -0.125,-0.0390626 -0.125,-0.1210943 V -8.847656 H 0.484375 c -0.082031,0 -0.121094,-0.042969 -0.121094,-0.125 v -1.609375 c 0,-0.08203 0.039063,-0.125 0.121094,-0.125 h 0.929688 v -1.566407 l 2.136718,-2.28125 c 0.042969,-0.04297 0.089844,-0.05469 0.140625,-0.03125 0.050782,0.01953 0.078125,0.05469 0.078125,0.113282 v 3.765625 h 1.402344 c 0.082031,0 0.125,0.04297 0.125,0.125 v 1.609375 c 0,0.082031 -0.042969,0.125 -0.125,0.125 H 3.769531 v 8.746093 c 0,0.0820317 -0.042968,0.1210943 -0.125,0.1210943 H 1.539063"
             id="path10718" />
        </g>
      </g>
    </g>
    <g
       clip-path="url(#clip-201)"
       id="g18693"
       transform="matrix(4.0813388,0,0,4.0813388,-751.84324,-711.83599)"
       style="opacity:1">
      <g
         fill="#ffffff"
         fill-opacity="1"
         id="g18691">
        <g
           id="use18689"
           transform="translate(230.51872,209.592)">
          <path
             d="m 1.03125,0.0117188 c -0.070312,0 -0.113281,-0.0429688 -0.113281,-0.1249998 v -10.46875 c 0,-0.08203 0.035156,-0.125 0.113281,-0.125 h 2.117188 c 0.074218,0 0.113281,0.04297 0.113281,0.125 v 0.847656 c 0.660156,-0.722656 1.539062,-1.085938 2.644531,-1.085938 0.789063,0 1.542969,0.273438 2.261719,0.828125 0.023437,0.019532 0.039062,0.046875 0.046875,0.082032 0,0.03125 -0.00781,0.0625 -0.027344,0.09375 L 6.667969,-8 C 6.621094,-7.9375 6.566406,-7.929688 6.503906,-7.980469 6.058594,-8.3125 5.617188,-8.476563 5.183594,-8.476563 c -0.484375,0 -0.929688,0.164063 -1.332031,0.496094 C 3.457031,-7.648438 3.261719,-7.125 3.261719,-6.402344 v 6.289063 c 0,0.082031 -0.035156,0.1249998 -0.113281,0.1249998 H 1.03125"
             id="path10722" />
        </g>
      </g>
    </g>
    <g
       clip-path="url(#clip-202)"
       id="g18699"
       transform="matrix(4.0813388,0,0,4.0813388,-751.84324,-711.83599)"
       style="opacity:1">
      <g
         fill="#ffffff"
         fill-opacity="1"
         id="g18697">
        <g
           id="use18695"
           transform="translate(238.74382,209.592)">
          <path
             d="m 1.828125,-12.007813 c -0.0625,0 -0.097656,-0.02344 -0.121094,-0.07813 -0.015625,-0.05078 -0.00391,-0.08984 0.046875,-0.128906 l 3.015625,-2.394531 h 1.382813 l 3.058594,2.394531 c 0.042968,0.03125 0.066406,0.07813 0.042968,0.128906 -0.015625,0.05469 -0.054687,0.07813 -0.117187,0.07813 H 7.414063 l -2.046875,-1.09375 c -0.296875,0.175782 -0.601563,0.363282 -0.914063,0.546875 -0.304687,0.1875 -0.605469,0.367188 -0.910156,0.546875 H 1.828125 m 7.90625,7.332032 c 0,0.082031 -0.039062,0.121093 -0.121094,0.121093 H 3.222656 c 0.019532,0.753907 0.234375,1.332032 0.648438,1.726563 0.453125,0.414062 1.027344,0.617187 1.726562,0.617187 0.824219,0 1.558594,-0.320312 2.207032,-0.96875 0.011718,-0.019531 0.035156,-0.03125 0.074218,-0.035156 0.03125,0 0.058594,0.00391 0.089844,0.023438 L 9.5,-1.890625 c 0.023438,0.023437 0.039063,0.046875 0.039063,0.082031 0,0.03125 -0.00781,0.0625 -0.03125,0.09375 C 8.972656,-1.09375 8.371094,-0.65625 7.707031,-0.386719 7.046875,-0.125 6.347656,0.0117188 5.625,0.0117188 c -1.101562,0 -2.167969,-0.3515628 -3.1875,-1.0664068 -1.042969,-0.710937 -1.570312,-2.171875 -1.570312,-4.375 0,-2.074218 0.476562,-3.515625 1.433593,-4.316406 0.976563,-0.792969 1.980469,-1.199219 3.007813,-1.199219 1.179687,0 2.210937,0.410157 3.09375,1.230469 0.890625,0.824219 1.332031,1.925781 1.332031,3.304688 v 1.734375 M 7.382813,-6.523438 C 7.335938,-7.238281 7.125,-7.785156 6.742188,-8.15625 6.363281,-8.527344 5.886719,-8.714844 5.308594,-8.714844 c -0.601563,0 -1.089844,0.191406 -1.476563,0.578125 -0.175781,0.175781 -0.320312,0.402344 -0.425781,0.683594 -0.101562,0.273437 -0.164062,0.582031 -0.183594,0.929687 h 4.160157"
             id="path10726" />
        </g>
      </g>
    </g>
    <g
       clip-path="url(#clip-203)"
       id="g18705"
       transform="matrix(4.0813388,0,0,4.0813388,-751.84324,-711.83599)"
       style="opacity:1">
      <g
         fill="#ffffff"
         fill-opacity="1"
         id="g18703">
        <g
           id="use18701"
           transform="translate(249.25671,209.592)">
          <path
             d="m 1.445313,0.0117188 c -0.082032,0 -0.125,-0.0429688 -0.125,-0.1249998 v -10.46875 c 0,-0.08203 0.042968,-0.125 0.125,-0.125 h 2.105468 c 0.082032,0 0.125,0.04297 0.125,0.125 v 0.847656 c 0.660157,-0.722656 1.539063,-1.085938 2.644532,-1.085938 0.421875,0 0.835937,0.07813 1.238281,0.238282 0.394531,0.15625 0.792969,0.390625 1.195312,0.710937 0.785157,0.640625 1.179688,1.570313 1.179688,2.800781 v 6.957032 c 0,0.082031 -0.042969,0.1249998 -0.125,0.1249998 H 7.703125 c -0.082031,0 -0.125,-0.0429688 -0.125,-0.1249998 v -6.234375 c 0,-0.683594 -0.179687,-1.203125 -0.546875,-1.570313 -0.382812,-0.371094 -0.847656,-0.558594 -1.382812,-0.558594 -0.578125,0 -1.054688,0.1875 -1.425782,0.558594 -0.363281,0.359375 -0.546875,0.886719 -0.546875,1.570313 v 6.234375 c 0,0.082031 -0.042968,0.1249998 -0.125,0.1249998 H 1.445313"
             id="path10730" />
        </g>
      </g>
    </g>
    <g
       clip-path="url(#clip-205)"
       id="g18717"
       transform="matrix(4.0813388,0,0,4.0813388,-751.84324,-711.83599)"
       style="opacity:1">
      <g
         fill="#ffffff"
         fill-opacity="1"
         id="g18715">
        <g
           id="use18713"
           transform="translate(265.62866,209.592)">
          <path
             d="m 3.511719,0.0429688 c -0.085938,0 -0.125,-0.0429688 -0.125,-0.1250001 V -12.347656 c -0.316406,0.234375 -0.628906,0.46875 -0.949219,0.707031 -0.316406,0.238281 -0.628906,0.46875 -0.949219,0.699219 -0.046875,0.02734 -0.09375,0.03906 -0.136718,0.01172 -0.039063,-0.01953 -0.0625,-0.05859 -0.0625,-0.117187 v -2.238281 c 0,-0.01172 0.00781,-0.03125 0.015625,-0.05469 0.011718,-0.01953 0.023437,-0.03516 0.039062,-0.05078 l 2.125,-1.539063 H 5.625 c 0.085938,0 0.125,0.04297 0.125,0.125 V -0.0820313 C 5.75,0 5.710938,0.0429688 5.625,0.0429688 H 3.511719"
             id="path10734" />
        </g>
      </g>
    </g>
    <g
       clip-path="url(#clip-206)"
       id="g18723"
       transform="matrix(4.0813388,0,0,4.0813388,-751.84324,-711.83599)"
       style="opacity:1">
      <g
         fill="#ffffff"
         fill-opacity="1"
         id="g18721">
        <g
           id="use18719"
           transform="translate(272.79654,209.592)">
          <path
             d="m 6.980469,-10.582031 c 0,-0.664063 -0.175781,-1.1875 -0.53125,-1.5625 -0.351563,-0.375 -0.828125,-0.5625 -1.421875,-0.5625 -0.589844,0 -1.0625,0.183593 -1.414063,0.5625 -0.351562,0.371093 -0.527343,0.890625 -0.527343,1.5625 v 6.246093 c 0,0.671875 0.175781,1.199219 0.527343,1.570313 0.351563,0.371094 0.820313,0.554687 1.414063,0.554687 0.589844,0 1.0625,-0.183593 1.421875,-0.554687 0.347656,-0.371094 0.53125,-0.894531 0.53125,-1.570313 v -6.246093 m -6.246094,-0.125 c 0,-1.386719 0.433594,-2.457032 1.308594,-3.210938 0.867187,-0.761719 1.859375,-1.144531 2.984375,-1.144531 0.558594,0 1.085937,0.09766 1.585937,0.292969 0.496094,0.199218 0.964844,0.480468 1.398438,0.851562 0.433594,0.382813 0.757812,0.84375 0.984375,1.378906 0.222656,0.53125 0.335937,1.140625 0.335937,1.832032 v 6.496093 c 0,1.382813 -0.4375,2.449219 -1.320312,3.210938 C 7.144531,-0.246094 6.152344,0.132813 5.027344,0.132813 3.90625,0.132813 2.910156,-0.242188 2.042969,-1 1.171875,-1.75 0.734375,-2.820313 0.734375,-4.210938 v -6.496093"
             id="path10738" />
        </g>
      </g>
    </g>
    <g
       clip-path="url(#clip-208)"
       id="g18735"
       transform="matrix(4.0813388,0,0,4.0813388,-751.84324,-711.83599)"
       style="opacity:1">
      <g
         fill="#ffffff"
         fill-opacity="1"
         id="g18733">
        <g
           id="use18731"
           transform="translate(287.84912,209.592)">
          <path
             d="m 1.539063,0.0195313 c -0.082032,0 -0.125,-0.0390626 -0.125,-0.1210943 V -8.847656 H 0.484375 c -0.082031,0 -0.121094,-0.042969 -0.121094,-0.125 v -1.609375 c 0,-0.08203 0.039063,-0.125 0.121094,-0.125 h 0.929688 v -1.566407 l 2.136718,-2.28125 c 0.042969,-0.04297 0.089844,-0.05469 0.140625,-0.03125 0.050782,0.01953 0.078125,0.05469 0.078125,0.113282 v 3.765625 h 1.402344 c 0.082031,0 0.125,0.04297 0.125,0.125 v 1.609375 c 0,0.082031 -0.042969,0.125 -0.125,0.125 H 3.769531 v 8.746093 c 0,0.0820317 -0.042968,0.1210943 -0.125,0.1210943 H 1.539063"
             id="path10742" />
        </g>
      </g>
    </g>
    <g
       clip-path="url(#clip-209)"
       id="g18741"
       transform="matrix(4.0813388,0,0,4.0813388,-751.84324,-711.83599)"
       style="opacity:1">
      <g
         fill="#ffffff"
         fill-opacity="1"
         id="g18739">
        <g
           id="use18737"
           transform="translate(196.81487,232.0484)">
          <path
             d="m 9.15625,0.0117188 c -0.039062,0 -0.070312,-0.0234376 -0.101562,-0.0625001 L 5.914063,-5.378906 C 5.394531,-4.484375 4.871094,-3.597656 4.347656,-2.714844 3.824219,-1.835938 3.304688,-0.949219 2.777344,-0.0507813 2.75,-0.0117188 2.714844,0.0117188 2.675781,0.0117188 H 0.144531 C 0.09375,0.0117188 0.0507813,-0.00390625 0.03125,-0.046875 0.0117188,-0.0820313 0.0117188,-0.125 0.0429688,-0.175781 L 4.53125,-7.703125 c -0.707031,-1.195313 -1.410156,-2.382813 -2.105469,-3.570313 -0.691406,-1.183593 -1.394531,-2.375 -2.09375,-3.574218 -0.027343,-0.04297 -0.03125,-0.08594 -0.011718,-0.128907 0.019531,-0.03516 0.050781,-0.05469 0.101562,-0.05469 h 2.542969 c 0.039062,0 0.070312,0.01953 0.101562,0.0625 l 2.847657,4.953125 c 0.476562,-0.824219 0.953125,-1.644531 1.425781,-2.472656 0.476562,-0.820313 0.949219,-1.644532 1.425781,-2.480469 0.027344,-0.04297 0.0625,-0.0625 0.101563,-0.0625 h 2.542968 c 0.04297,0 0.08203,0.01563 0.101563,0.05469 0.01953,0.03906 0.01953,0.07813 -0.01172,0.128907 L 7.30078,-7.703125 c 0.753907,1.261719 1.503907,2.515625 2.25,3.765625 0.742188,1.25 1.492188,2.503906 2.25,3.761719 0.02734,0.046875 0.03125,0.0898435 0.01172,0.128906 -0.02344,0.0351562 -0.05859,0.0585938 -0.113281,0.0585938 H 9.15625"
             id="path10746" />
        </g>
      </g>
    </g>
    <g
       clip-path="url(#clip-210)"
       id="g18747"
       transform="matrix(4.0813388,0,0,4.0813388,-751.84324,-711.83599)"
       style="opacity:1">
      <g
         fill="#ffffff"
         fill-opacity="1"
         id="g18745">
        <g
           id="use18743"
           transform="translate(208.76134,232.0484)">
          <path
             d="m 9.621094,-4.554688 c 0,0.085938 -0.039063,0.125 -0.121094,0.125 H 3.109375 c 0.019531,0.753907 0.234375,1.332032 0.648438,1.726563 0.453125,0.410156 1.027343,0.617187 1.722656,0.617187 0.828125,0 1.5625,-0.320312 2.210937,-0.96875 0.011719,-0.023437 0.035157,-0.03125 0.074219,-0.039062 0.027344,0 0.058594,0.00781 0.089844,0.027344 l 1.53125,1.300781 c 0.023437,0.019531 0.039062,0.046875 0.039062,0.082031 0,0.03125 -0.011718,0.0625 -0.03125,0.09375 C 8.859375,-0.96875 8.257813,-0.53125 7.59375,-0.261719 6.933594,0 6.234375,0.132813 5.511719,0.132813 c -1.101563,0 -2.167969,-0.347657 -3.1875,-1.062501 -1.042969,-0.710937 -1.570313,-2.171875 -1.570313,-4.375 0,-2.078125 0.476563,-3.515625 1.433594,-4.316406 0.976563,-0.796875 1.976563,-1.199219 3.003906,-1.199219 1.183594,0 2.214844,0.410157 3.097657,1.230469 0.890625,0.824219 1.332031,1.925781 1.332031,3.300781 v 1.734375 M 7.269531,-6.402344 C 7.222656,-7.113281 7.011719,-7.660156 6.628906,-8.03125 6.25,-8.402344 5.769531,-8.589844 5.191406,-8.589844 c -0.597656,0 -1.085937,0.191406 -1.476562,0.578125 -0.171875,0.175781 -0.316406,0.402344 -0.421875,0.683594 -0.101563,0.273437 -0.164063,0.582031 -0.183594,0.925781 h 4.160156"
             id="path10750" />
        </g>
      </g>
    </g>
    <g
       fill="#ffffff"
       fill-opacity="1"
       id="g18755"
       transform="matrix(4.0813388,0,0,4.0813388,-751.84324,-711.83599)"
       style="opacity:1">
      <g
         id="use18753"
         transform="translate(224.42693,232.04939)">
        <path
           d="m 1.457031,0.0117188 c -0.082031,0 -0.125,-0.0429688 -0.125,-0.1249998 v -14.691407 c 0,-0.08203 0.042969,-0.125 0.125,-0.125 H 3.5625 c 0.082031,0 0.125,0.04297 0.125,0.125 v 8.859375 c 0.644531,-0.792968 1.285156,-1.574218 1.921875,-2.359375 0.636719,-0.78125 1.277344,-1.566406 1.925781,-2.359375 0.027344,-0.02734 0.058594,-0.04297 0.09375,-0.04297 h 2.519532 c 0.05078,0 0.09375,0.02344 0.113281,0.07422 0.01953,0.04687 0.01563,0.09375 -0.01953,0.132813 l -3.550782,4.039062 c 0.679688,1.054688 1.355469,2.105469 2.027344,3.140625 0.671875,1.035157 1.347656,2.082032 2.027344,3.144532 0.02734,0.046875 0.03125,0.0898435 0.01172,0.128906 -0.01953,0.0351562 -0.05469,0.0585938 -0.113282,0.0585938 H 8 c -0.039062,0 -0.070312,-0.0234376 -0.101562,-0.0625001 L 5.203125,-4.789063 C 4.957031,-4.5 4.703125,-4.21875 4.445313,-3.933594 4.1875,-3.65625 3.933594,-3.367188 3.6875,-3.078125 v 2.964844 c 0,0.082031 -0.042969,0.1249998 -0.125,0.1249998 H 1.457031"
           id="path10754" />
      </g>
    </g>
    <g
       fill="#ffffff"
       fill-opacity="1"
       id="g18759"
       transform="matrix(4.0813388,0,0,4.0813388,-751.84324,-711.83599)"
       style="opacity:1">
      <g
         id="use18757"
         transform="translate(235.29716,232.04939)">
        <path
           d="m 9.675781,-4.554688 c 0,0.085938 -0.042968,0.125 -0.125,0.125 H 3.160156 c 0.019532,0.753907 0.238282,1.332032 0.648438,1.726563 0.457031,0.410156 1.027344,0.617187 1.726562,0.617187 0.824219,0 1.558594,-0.320312 2.207032,-0.96875 0.011718,-0.023437 0.039062,-0.03125 0.074218,-0.039062 0.03125,0 0.0625,0.00781 0.09375,0.027344 L 9.4375,-1.765625 c 0.023438,0.019531 0.039063,0.046875 0.039063,0.082031 0,0.03125 -0.00781,0.0625 -0.03125,0.09375 C 8.910156,-0.96875 8.3125,-0.53125 7.644531,-0.261719 6.984375,0 6.289063,0.132813 5.566406,0.132813 c -1.105468,0 -2.167968,-0.347657 -3.191406,-1.062501 -1.042969,-0.710937 -1.570312,-2.171875 -1.570312,-4.375 0,-2.078125 0.476562,-3.515625 1.4375,-4.316406 0.972656,-0.796875 1.976562,-1.199219 3.003906,-1.199219 1.179687,0 2.214844,0.410157 3.097656,1.230469 0.886719,0.824219 1.332031,1.925781 1.332031,3.300781 v 1.734375 M 7.320313,-6.402344 C 7.273438,-7.113281 7.0625,-7.660156 6.679688,-8.03125 c -0.375,-0.371094 -0.855469,-0.558594 -1.433594,-0.558594 -0.601563,0 -1.089844,0.191406 -1.476563,0.578125 -0.175781,0.175781 -0.320312,0.402344 -0.425781,0.683594 -0.101562,0.273437 -0.164062,0.582031 -0.183594,0.925781 h 4.160157 m -4.304688,-5.605469 c -0.050781,0 -0.089844,-0.01563 -0.109375,-0.05469 -0.015625,-0.03516 -0.015625,-0.07813 0.00391,-0.128906 l 2.160157,-3.015625 c 0.023437,-0.04297 0.0625,-0.0625 0.101562,-0.0625 h 2.273438 c 0.050781,0 0.089843,0.01953 0.117187,0.07422 0.019531,0.04687 0.015625,0.08984 -0.027344,0.132813 l -2.84766,3.015626 c -0.00391,0.0039 -0.019531,0.01563 -0.042969,0.02344 -0.019531,0.01172 -0.035156,0.01563 -0.050781,0.01563 H 3.015625"
           id="path10758" />
      </g>
    </g>
    <g
       fill="#ffffff"
       fill-opacity="1"
       id="g18763"
       transform="matrix(4.0813388,0,0,4.0813388,-751.84324,-711.83599)"
       style="opacity:1">
      <g
         id="use18761"
         transform="translate(245.92847,232.04939)">
        <path
           d="m 0.804688,-5.359375 c 0,-1.117188 0.09375,-1.96875 0.28125,-2.546875 0.171875,-0.578125 0.472656,-1.089844 0.886718,-1.539063 0.289063,-0.3125 0.691407,-0.617187 1.21875,-0.921875 0.519532,-0.296875 1.207032,-0.453125 2.054688,-0.453125 0.835937,0 1.515625,0.152344 2.03125,0.453125 0.269531,0.152344 0.5,0.300782 0.707031,0.457032 0.203125,0.148437 0.378906,0.304687 0.535156,0.464843 0.402344,0.441407 0.699219,0.960938 0.886719,1.539063 0.175781,0.585937 0.265625,1.4375 0.265625,2.546875 0,1.140625 -0.085937,2.003906 -0.265625,2.582031 -0.1875,0.5625 -0.480469,1.074219 -0.886719,1.539063 -0.3125,0.328125 -0.722656,0.640625 -1.242187,0.9375 -0.515625,0.2890622 -1.191406,0.433594 -2.03125,0.433594 -0.847656,0 -1.53125,-0.1445318 -2.054688,-0.433594 C 2.957031,-0.433594 2.734375,-0.589844 2.523438,-0.753906 2.316406,-0.917969 2.132813,-1.078125 1.972656,-1.238281 1.554688,-1.699219 1.257813,-2.210938 1.085938,-2.777344 c -0.1875,-0.5625 -0.28125,-1.425781 -0.28125,-2.582031 m 6.527343,0.023437 c 0,-0.722656 -0.039062,-1.246093 -0.117187,-1.570312 C 7.148438,-7.199219 7.019531,-7.484375 6.835938,-7.753906 6.660156,-7.984375 6.4375,-8.167969 6.167969,-8.289063 c -0.261719,-0.125 -0.570313,-0.1875 -0.921875,-0.1875 -0.730469,0 -1.261719,0.238282 -1.589844,0.722657 -0.09375,0.136718 -0.175781,0.273437 -0.242187,0.410156 -0.0625,0.132812 -0.117188,0.277344 -0.152344,0.4375 -0.066406,0.292969 -0.101563,0.808594 -0.101563,1.546875 0,0.371094 0.00391,0.691406 0.023438,0.960937 0.015625,0.269532 0.042969,0.480469 0.078125,0.640625 0.0625,0.292969 0.191406,0.574219 0.394531,0.835938 0.320313,0.476562 0.851563,0.710937 1.589844,0.710937 0.699219,0 1.226562,-0.234375 1.589844,-0.710937 0.175781,-0.269531 0.304687,-0.546875 0.378906,-0.835938 0.074219,-0.335937 0.117187,-0.863281 0.117187,-1.578125"
           id="path10762" />
      </g>
    </g>
    <g
       fill="#ffffff"
       fill-opacity="1"
       id="g18773"
       transform="matrix(4.0813388,0,0,4.0813388,-751.84324,-711.83599)"
       style="opacity:1">
      <g
         id="use18769"
         transform="translate(261.5773,232.04939)">
        <path
           d="m 1.609375,0.0117188 c -0.082031,0 -0.121094,-0.0429688 -0.121094,-0.1249998 v -10.46875 c 0,-0.08203 0.039063,-0.125 0.121094,-0.125 h 2.105469 c 0.085937,0 0.125,0.04297 0.125,0.125 v 0.835937 c 0.660156,-0.710937 1.539062,-1.074219 2.644531,-1.074219 0.730469,0 1.332031,0.136719 1.796875,0.414063 0.207031,0.125 0.402344,0.257812 0.597656,0.40625 0.191407,0.144531 0.371094,0.3125 0.546875,0.492187 0.847657,-0.871093 1.953125,-1.3125 3.316407,-1.3125 0.828125,0 1.640625,0.316407 2.433593,0.949219 0.785157,0.640625 1.179688,1.570313 1.179688,2.800781 v 6.957032 c 0,0.082031 -0.04297,0.1249998 -0.125,0.1249998 H 14.125 C 14.042969,0.0117188 14,-0.03125 14,-0.113281 v -6.234375 c 0,-0.683594 -0.179687,-1.203125 -0.546875,-1.570313 -0.371094,-0.371094 -0.835937,-0.558594 -1.394531,-0.558594 -0.578125,0 -1.054688,0.1875 -1.425781,0.558594 -0.359375,0.359375 -0.546875,0.886719 -0.546875,1.570313 v 6.234375 c 0,0.082031 -0.03516,0.1249998 -0.113282,0.1249998 H 7.867188 c -0.074219,0 -0.113282,-0.0429688 -0.113282,-0.1249998 v -6.234375 c 0,-0.671875 -0.1875,-1.199219 -0.558593,-1.570313 -0.371094,-0.371094 -0.835938,-0.558594 -1.394532,-0.558594 -0.578125,0 -1.050781,0.1875 -1.421875,0.558594 -0.359375,0.355469 -0.539062,0.878906 -0.539062,1.570313 v 6.234375 c 0,0.082031 -0.039063,0.1249998 -0.125,0.1249998 H 1.609375"
           id="path10766" />
      </g>
      <g
         id="use18771"
         transform="translate(279.49701,232.04939)">
        <path
           d="m 0.804688,-5.359375 c 0,-1.117188 0.09375,-1.96875 0.28125,-2.546875 0.171875,-0.578125 0.472656,-1.089844 0.886718,-1.539063 0.289063,-0.3125 0.691407,-0.617187 1.21875,-0.921875 0.519532,-0.296875 1.207032,-0.453125 2.054688,-0.453125 0.835937,0 1.515625,0.152344 2.03125,0.453125 0.269531,0.152344 0.5,0.300782 0.707031,0.457032 0.203125,0.148437 0.378906,0.304687 0.535156,0.464843 0.402344,0.441407 0.699219,0.960938 0.886719,1.539063 0.175781,0.585937 0.265625,1.4375 0.265625,2.546875 0,1.140625 -0.085937,2.003906 -0.265625,2.582031 -0.1875,0.5625 -0.480469,1.074219 -0.886719,1.539063 -0.3125,0.328125 -0.722656,0.640625 -1.242187,0.9375 -0.515625,0.2890622 -1.191406,0.433594 -2.03125,0.433594 -0.847656,0 -1.53125,-0.1445318 -2.054688,-0.433594 C 2.957031,-0.433594 2.734375,-0.589844 2.523438,-0.753906 2.316406,-0.917969 2.132813,-1.078125 1.972656,-1.238281 1.554688,-1.699219 1.257813,-2.210938 1.085938,-2.777344 c -0.1875,-0.5625 -0.28125,-1.425781 -0.28125,-2.582031 m 6.527343,0.023437 c 0,-0.722656 -0.039062,-1.246093 -0.117187,-1.570312 C 7.148438,-7.199219 7.019531,-7.484375 6.835938,-7.753906 6.660156,-7.984375 6.4375,-8.167969 6.167969,-8.289063 c -0.261719,-0.125 -0.570313,-0.1875 -0.921875,-0.1875 -0.730469,0 -1.261719,0.238282 -1.589844,0.722657 -0.09375,0.136718 -0.175781,0.273437 -0.242187,0.410156 -0.0625,0.132812 -0.117188,0.277344 -0.152344,0.4375 -0.066406,0.292969 -0.101563,0.808594 -0.101563,1.546875 0,0.371094 0.00391,0.691406 0.023438,0.960937 0.015625,0.269532 0.042969,0.480469 0.078125,0.640625 0.0625,0.292969 0.191406,0.574219 0.394531,0.835938 0.320313,0.476562 0.851563,0.710937 1.589844,0.710937 0.699219,0 1.226562,-0.234375 1.589844,-0.710937 0.175781,-0.269531 0.304687,-0.546875 0.378906,-0.835938 0.074219,-0.335937 0.117187,-0.863281 0.117187,-1.578125"
           id="path10770" />
      </g>
    </g>
    <g
       fill="#ffffff"
       fill-opacity="1"
       id="g18777"
       transform="matrix(4.0813388,0,0,4.0813388,-751.84324,-711.83599)"
       style="opacity:1">
      <g
         id="use18775"
         transform="translate(290.1283,232.04939)">
        <path
           d="m 0.804688,-5.359375 c 0,-1.117188 0.09375,-1.96875 0.28125,-2.546875 0.171875,-0.578125 0.472656,-1.089844 0.886718,-1.539063 0.289063,-0.3125 0.691407,-0.617187 1.21875,-0.921875 0.519532,-0.296875 1.207032,-0.453125 2.054688,-0.453125 0.835937,0 1.515625,0.152344 2.03125,0.453125 0.269531,0.152344 0.5,0.300782 0.707031,0.457032 0.203125,0.148437 0.378906,0.304687 0.535156,0.464843 0.402344,0.441407 0.699219,0.960938 0.886719,1.539063 0.175781,0.585937 0.265625,1.4375 0.265625,2.546875 0,1.140625 -0.085937,2.003906 -0.265625,2.582031 -0.1875,0.5625 -0.480469,1.074219 -0.886719,1.539063 -0.3125,0.328125 -0.722656,0.640625 -1.242187,0.9375 -0.515625,0.2890622 -1.191406,0.433594 -2.03125,0.433594 -0.847656,0 -1.53125,-0.1445318 -2.054688,-0.433594 C 2.957031,-0.433594 2.734375,-0.589844 2.523438,-0.753906 2.316406,-0.917969 2.132813,-1.078125 1.972656,-1.238281 1.554688,-1.699219 1.257813,-2.210938 1.085938,-2.777344 c -0.1875,-0.5625 -0.28125,-1.425781 -0.28125,-2.582031 m 6.527343,0.023437 c 0,-0.722656 -0.039062,-1.246093 -0.117187,-1.570312 C 7.148438,-7.199219 7.019531,-7.484375 6.835938,-7.753906 6.660156,-7.984375 6.4375,-8.167969 6.167969,-8.289063 c -0.261719,-0.125 -0.570313,-0.1875 -0.921875,-0.1875 -0.730469,0 -1.261719,0.238282 -1.589844,0.722657 -0.09375,0.136718 -0.175781,0.273437 -0.242187,0.410156 -0.0625,0.132812 -0.117188,0.277344 -0.152344,0.4375 -0.066406,0.292969 -0.101563,0.808594 -0.101563,1.546875 0,0.371094 0.00391,0.691406 0.023438,0.960937 0.015625,0.269532 0.042969,0.480469 0.078125,0.640625 0.0625,0.292969 0.191406,0.574219 0.394531,0.835938 0.320313,0.476562 0.851563,0.710937 1.589844,0.710937 0.699219,0 1.226562,-0.234375 1.589844,-0.710937 0.175781,-0.269531 0.304687,-0.546875 0.378906,-0.835938 0.074219,-0.335937 0.117187,-0.863281 0.117187,-1.578125 m -4.316406,-6.671875 c -0.050781,0 -0.089844,-0.01563 -0.109375,-0.05469 -0.015625,-0.03906 -0.015625,-0.07813 0.00391,-0.128906 l 2.160157,-3.015625 c 0.023437,-0.04297 0.0625,-0.0625 0.101562,-0.0625 h 2.273438 c 0.050781,0 0.089843,0.01953 0.117187,0.07422 0.019531,0.04687 0.015625,0.08984 -0.027344,0.132813 l -2.84766,3.015626 c -0.00391,0.0039 -0.019531,0.01563 -0.042969,0.02344 -0.019531,0.01172 -0.035156,0.01563 -0.050781,0.01563 H 3.015625"
           id="path10774" />
      </g>
    </g>
    <g
       fill="#ffffff"
       fill-opacity="1"
       id="g18781"
       transform="matrix(4.0813388,0,0,4.0813388,-751.84324,-711.83599)"
       style="opacity:1">
      <g
         id="use18779"
         transform="translate(300.6412,232.04939)">
        <path
           d="m 9.230469,-1.890625 c 0.023437,0.023437 0.039062,0.046875 0.039062,0.082031 0,0.03125 -0.00781,0.0625 -0.03125,0.09375 -0.230468,0.269531 -0.488281,0.511719 -0.765625,0.738281 -0.28125,0.222657 -0.578125,0.417969 -0.90625,0.585938 -0.320312,0.164062 -0.664062,0.2929687 -1.03125,0.38671875 -0.359375,0.08984375 -0.75,0.13671925 -1.15625,0.13671925 -1.222656,0 -2.34375,-0.417969 -3.367187,-1.257813 -1,-0.851563 -1.507813,-2.257813 -1.507813,-4.210938 0,-1.964843 0.503907,-3.363281 1.507813,-4.203125 0.996094,-0.851562 2.117187,-1.28125 3.367187,-1.28125 0.402344,0 0.789063,0.04687 1.15625,0.140625 0.363282,0.09375 0.707032,0.222657 1.03125,0.386719 0.320313,0.164063 0.625,0.355469 0.90625,0.582031 0.277344,0.222657 0.53125,0.472657 0.765625,0.738282 0.023438,0.027343 0.03125,0.058593 0.03125,0.09375 0,0.03125 -0.00781,0.0625 -0.039062,0.082031 L 7.671875,-7.414063 C 7.644531,-7.386719 7.613281,-7.371094 7.578125,-7.375 7.546875,-7.375 7.519531,-7.390625 7.503906,-7.421875 6.925781,-8.125 6.246094,-8.476563 5.460938,-8.476563 c -1.734375,0 -2.601563,1.042969 -2.601563,3.140625 0,2.082032 0.867188,3.125 2.601563,3.125 0.8125,0 1.492187,-0.347656 2.042968,-1.050781 0.011719,-0.019531 0.039063,-0.03125 0.074219,-0.042969 0.03125,-0.00391 0.0625,0 0.09375,0.023438 l 1.558594,1.390625"
           id="path10778" />
      </g>
    </g>
    <path
       id="path18783"
       style="opacity:1;fill:#ffffff;stroke-width:4.08133"
       d="M 771.05895,-5.023799 V 33.474518 H 565.79179 v 38.520051 38.509181 h 205.26716 v 38.52005 l 51.66239,-38.52005 51.20891,-38.509181 -51.20891,-38.520051 z" />
  </g>
</svg>
