<?xml version="1.0" encoding="utf-8"?>
<svg viewBox="0 0 323.14914 200" xmlns="http://www.w3.org/2000/svg">
  <g id="layer1" transform="matrix(0.9999999999999999, 0, 0, 0.9999999999999999, -303.4596862792969, -22.960700988769517)">
    <path id="rect15575" style="opacity:1;fill:#0a9646;fill-opacity:1;fill-rule:evenodd;stroke-width:0.0420687;stroke-linecap:square;stroke-miterlimit:10;paint-order:stroke fill markers" d="M 303.45966,22.960701 H 626.6088 V 222.9607 H 303.45966 Z"/>
    <path transform="matrix(0.26458333,0,0,0.26458333,303.45966,22.960701)" d="m 30.353516,5.0117188 c -13.808655,0 -25.0781254,11.2674112 -25.0781254,25.0761722 v 332.957029 47.1211 49.04296 13.88672 252.45508 c 0,13.80862 11.2694704,25.06641 25.0781254,25.06641 H 1190.9805 c 13.8086,0 25.0781,-11.25779 25.0781,-25.06641 V 473.0957 459.57031 401.94727 363.04492 30.087891 c 0,-13.808761 -11.2695,-25.0761722 -25.0781,-25.0761722 z m 0,9.4511722 H 1190.9805 c 8.7398,0 15.6425,6.885058 15.6425,15.625 v 332.957029 38.90235 c 0,0.29959 -0.013,0.61475 -0.037,0.9375 v 7.20703 c 0,8.68754 -6.9941,15.68164 -15.6816,15.68164 h -8.0762 c -0.1869,0.007 -0.3766,0.0176 -0.5586,0.0176 H 38.023438 c -0.18105,0 -0.371847,-0.0102 -0.560547,-0.0176 h -7.097657 c -8.687546,0 -15.68164,-6.9941 -15.68164,-15.68164 V 30.152344 c 0,-1.658433 0.257595,-3.253829 0.730468,-4.751953 0.01365,-0.04461 0.03284,-0.08643 0.04688,-0.13086 1.99686,-6.321925 7.84094,-10.80664 14.892578,-10.80664 z M 30.28125,435.30469 h 6.958984 1145.628866 8.1172 c 8.6414,0 15.5996,6.95633 15.5996,15.59765 v 7.5918 c 0.024,0.37296 0.037,0.7339 0.037,1.07617 v 13.52539 252.45508 c 0,5.47634 -2.7106,10.22208 -6.8847,13.00391 -2.4923,1.6862 -5.5034,2.66992 -8.752,2.66992 H 30.28125 c -8.641361,0 -15.597656,-6.9563 -15.597656,-15.59766 V 450.90234 c 0,-8.64132 6.956295,-15.59765 15.597656,-15.59765 z" style="color:#000000;font-style:normal;font-variant:normal;font-weight:normal;font-stretch:normal;font-size:medium;line-height:normal;font-family:sans-serif;font-variant-ligatures:normal;font-variant-position:normal;font-variant-caps:normal;font-variant-numeric:normal;font-variant-alternates:normal;font-variant-east-asian:normal;font-feature-settings:normal;font-variation-settings:normal;text-indent:0;text-align:start;text-decoration:none;text-decoration-line:none;text-decoration-style:solid;text-decoration-color:#000000;letter-spacing:normal;word-spacing:normal;text-transform:none;writing-mode:lr-tb;direction:ltr;text-orientation:mixed;dominant-baseline:auto;baseline-shift:baseline;text-anchor:start;white-space:normal;shape-padding:0;shape-margin:0;inline-size:0;clip-rule:nonzero;display:inline;overflow:visible;visibility:visible;opacity:1;isolation:auto;mix-blend-mode:normal;color-interpolation:sRGB;color-interpolation-filters:linearRGB;solid-color:#000000;solid-opacity:1;vector-effect:none;fill:#ffffff;fill-opacity:1;fill-rule:evenodd;stroke:none;stroke-width:2.09199;stroke-linecap:square;stroke-linejoin:miter;stroke-miterlimit:10;stroke-dasharray:none;stroke-dashoffset:0;stroke-opacity:1;paint-order:stroke fill markers;color-rendering:auto;image-rendering:auto;shape-rendering:auto;text-rendering:auto;enable-background:accumulate;stop-color:#000000;stop-opacity:1" id="path15582"/>
    <path d="m 324.12038,67.193614 h 60.89334 v 27.821331 h -60.89334 z" style="opacity:1;fill:#ffd70f;fill-opacity:1;fill-rule:evenodd;stroke:none;stroke-width:0.553508;stroke-linecap:square;stroke-miterlimit:10;stroke-dasharray:none;stroke-opacity:1;paint-order:stroke fill markers" id="rect15605"/>
    <path id="path15631" d="m 326.18273,67.759747 c -0.81115,0 -1.47443,0.660164 -1.47443,1.471307 v 23.746432 c 0,0.811142 0.66328,1.471323 1.47443,1.471323 h 56.7905 c 0.81117,0 1.4744,-0.660181 1.4744,-1.471323 V 69.231054 c 0,-0.811143 -0.66328,-1.471307 -1.4744,-1.471307 z m 0,0.535017 h 56.7905 c 0.52266,0 0.93627,0.413622 0.93627,0.93629 v 23.746432 c 0,0.522654 -0.41353,0.933189 -0.93627,0.933189 h -56.7905 c -0.52266,0 -0.93628,-0.410555 -0.93628,-0.933189 V 69.231054 c 0,-0.522672 0.41354,-0.93629 0.93628,-0.93629 z" style="color:#000000;font-style:normal;font-variant:normal;font-weight:normal;font-stretch:normal;font-size:medium;line-height:normal;font-family:sans-serif;font-variant-ligatures:normal;font-variant-position:normal;font-variant-caps:normal;font-variant-numeric:normal;font-variant-alternates:normal;font-variant-east-asian:normal;font-feature-settings:normal;font-variation-settings:normal;text-indent:0;text-align:start;text-decoration:none;text-decoration-line:none;text-decoration-style:solid;text-decoration-color:#000000;letter-spacing:normal;word-spacing:normal;text-transform:none;writing-mode:lr-tb;direction:ltr;text-orientation:mixed;dominant-baseline:auto;baseline-shift:baseline;text-anchor:start;white-space:normal;shape-padding:0;shape-margin:0;inline-size:0;clip-rule:nonzero;display:inline;overflow:visible;visibility:visible;opacity:1;isolation:auto;mix-blend-mode:normal;color-interpolation:sRGB;color-interpolation-filters:linearRGB;solid-color:#000000;solid-opacity:1;vector-effect:none;fill:#000000;fill-opacity:1;fill-rule:evenodd;stroke:none;stroke-width:0.119062;stroke-linecap:square;stroke-linejoin:miter;stroke-miterlimit:10;stroke-dasharray:none;stroke-dashoffset:0;stroke-opacity:1;paint-order:stroke fill markers;color-rendering:auto;image-rendering:auto;shape-rendering:auto;text-rendering:auto;enable-background:accumulate;stop-color:#000000;stop-opacity:1"/>
    <path id="path17496" style="font-size:15.1831px;line-height:1.46;font-family:'Singapore Road Signs';-inkscape-font-specification:'Singapore Road Signs';text-align:center;text-anchor:middle;opacity:1;fill:#ffffff;fill-opacity:1;stroke-width:0.0756548" d="m 570.47468,59.120043 v 50.614317 h 35.43541 V 59.120043 Z m 1.38203,1.660034 h 32.65274 v 47.566083 h -32.65274 z m 13.66823,3.646909 -2.23483,8.869719 h 3.92184 l 0.28216,-8.869719 z m 3.35329,0 0.28216,8.869719 h 3.92385 l -2.23686,-8.869719 z m -15.90932,9.992316 v 1.942234 l 3.06692,1.10806 v 0.584703 h 1.411 v -0.584703 c 0,0 2.08662,-0.313671 4.52568,-0.535349 1.95306,-0.177516 4.1317,-0.271988 5.64407,-0.278037 1.79866,-0.0063 4.45804,0.09363 6.73975,0.288436 2.51319,0.214479 4.5713,0.524984 4.5713,0.524984 v 0.5847 h 1.38199 v -0.5847 l 3.06685,-1.108064 v -1.942233 z m 9.21108,3.620663 -6.70448,26.681115 h 10.04943 l 1.39442,-26.681115 z m 7.25642,0 1.39441,26.681115 h 10.0494 l -6.70443,-26.681115 z"/>
    <g style="font-size:14.7905px;line-height:0;font-family:'Singapore Road Signs';-inkscape-font-specification:'Singapore Road Signs';text-align:center;text-anchor:middle;opacity:1;fill:#860000;fill-opacity:1;stroke-width:6.45213" id="layer1-8" transform="matrix(0.08718024,0,0,0.08718024,-145.22047,195.49013)">
      <circle style="opacity:1;fill:#f00a0a;fill-opacity:1;fill-rule:nonzero;stroke:none;stroke-width:3622.55;stroke-linecap:round;stroke-linejoin:round;stroke-miterlimit:4;stroke-dasharray:none;stroke-opacity:1;paint-order:stroke fill markers" id="path815" cx="6380.9966" cy="-193.29752" r="350"/>
      <circle cy="-193.29752" cx="6380.9966" id="circle817" style="opacity:1;fill:#ffffff;fill-opacity:1;fill-rule:nonzero;stroke:none;stroke-width:2587.55;stroke-linecap:round;stroke-linejoin:round;stroke-miterlimit:4;stroke-dasharray:none;stroke-opacity:1;paint-order:stroke fill markers" r="263.821"/>
      <g aria-label="20 " style="font-style:normal;font-variant:normal;font-weight:bold;font-stretch:normal;font-size:414.864px;line-height:0;font-family:Giaothong1;-inkscape-font-specification:'Giaothong1 Bold';letter-spacing:0px;word-spacing:0px;fill:#000000;fill-opacity:1;stroke:none;stroke-width:24.7849" id="text874" transform="matrix(-1,0,0,1,1299.029,-383.45)">
        <g aria-label="90" transform="translate(2310.2259,387.54849)" style="font-style:normal;font-variant:normal;font-weight:bold;font-stretch:normal;font-size:414.864px;line-height:0;font-family:Giaothong1;-inkscape-font-specification:'Giaothong1 Bold';letter-spacing:0px;word-spacing:0px;fill:#000000;fill-opacity:1;stroke:none;stroke-width:53.5539" id="text844"/>
      </g>
    </g>
    <g style="font-size:14.7905px;line-height:0;font-family:'Singapore Road Signs';-inkscape-font-specification:'Singapore Road Signs';text-align:center;text-anchor:middle;opacity:1;fill:#fff000;fill-opacity:1;stroke-width:6.45221" id="layer1-7" transform="matrix(0.08717968,0,0,0.08717968,488.77841,183.34565)">
      <circle cy="-54" cx="351" id="circle817-6" style="opacity:1;fill:#0046aa;fill-opacity:1;fill-rule:nonzero;stroke:none;stroke-width:3622.58;stroke-linecap:round;stroke-linejoin:round;stroke-miterlimit:4;stroke-dasharray:none;stroke-opacity:1;paint-order:stroke fill markers" r="350"/>
      <path id="rect984" style="font-style: normal; font-variant: normal; font-weight: bold; font-stretch: normal; font-size: 414.864px; line-height: 0; font-family: Giaothong1; letter-spacing: 0px; word-spacing: 0px; opacity: 1; fill: rgb(255, 255, 255); fill-opacity: 1; fill-rule: nonzero; stroke: none; stroke-width: 0.344279; stroke-linecap: round; stroke-linejoin: miter; stroke-miterlimit: 10; stroke-dasharray: none; stroke-opacity: 1; paint-order: stroke; visibility: hidden;" d="m 851.18164,518.03906 c -16.32678,0 -29.4707,13.14393 -29.4707,29.47071 v 80.94921 c 0,16.32678 13.14392,29.47071 29.4707,29.47071 16.32678,0 29.4707,-13.14393 29.4707,-29.47071 v -80.94921 c 0,-16.32678 -13.14392,-29.47071 -29.4707,-29.47071 z m -69.94336,1.23828 -26.10937,69.75391 c -2.72781,7.40406 -3.70118,11.30112 -3.70118,28.44727 0,18.12042 0.7789,22.01697 4.67579,28.25195 5.26075,8.37828 14.22308,13.44336 24.93945,13.44336 10.91123,0 20.0688,-4.87023 25.13476,-13.44336 3.70197,-6.23498 4.48047,-10.13153 4.48047,-28.25195 0,-22.01726 -0.77798,-26.88814 -4.28515,-32.34375 -3.31232,-5.06591 -9.74347,-8.96289 -16.75782,-8.96289 -4.28653,0 -7.01308,0.77773 -8.37695,1.75195 l -0.39062,-0.38867 22.60156,-58.25782 z m 69.94336,18.74024 c 5.25853,0 9.49219,4.23365 9.49219,9.49219 v 80.94921 c 0,5.25853 -4.23366,9.49219 -9.49219,9.49219 -5.25853,0 -9.49219,-4.23366 -9.49219,-9.49219 v -80.94921 c 0,-5.25854 4.23366,-9.49219 9.49219,-9.49219 z m -70.13867,55.68945 c 5.0659,0 9.74219,3.89738 9.74219,9.9375 v 25.71875 c 0,6.04012 -4.67629,9.9375 -9.74219,9.9375 -5.0659,0 -9.74219,-3.89738 -9.74219,-9.9375 v -25.71875 c 0,-6.04012 4.67629,-9.9375 9.74219,-9.9375 z" transform="matrix(3.0349198,0,0,3.0349198,-2125.7104,-1839.7056)"/>
    </g>
    <g aria-label="6" id="text19759" style="font-size:31.1478px;line-height:1.3;font-family:'Singapore Road Signs';-inkscape-font-specification:'Singapore Road Signs';text-align:center;text-anchor:middle;stroke-width:0.159861" transform="matrix(1.6550836,0,0,1.6550836,-321.31659,-238.56049)"/>
    <path d="M 379.504 43.07 Q 379.557 43.07 379.592 43.11 Q 379.627 43.149 379.61 43.202 Q 379.24 44.995 377.975 45.962 Q 377.36 46.428 376.639 46.665 Q 375.918 46.902 375.083 46.902 Q 373.563 46.902 372.526 46.173 Q 371.506 45.452 371.049 44.591 Q 370.891 44.292 370.777 43.989 Q 370.662 43.685 370.601 43.351 Q 370.487 42.701 370.487 40.398 Q 370.487 39.247 370.513 38.517 Q 370.539 37.788 370.601 37.454 Q 370.662 37.12 370.777 36.812 Q 370.891 36.505 371.049 36.206 Q 371.506 35.353 372.526 34.624 Q 373.554 33.886 375.083 33.886 Q 376.911 33.886 378.107 35.011 Q 379.32 36.144 379.61 37.7 Q 379.627 37.753 379.592 37.788 Q 379.557 37.823 379.504 37.823 L 377.491 37.823 Q 377.412 37.823 377.395 37.753 Q 377.281 37.401 377.07 37.098 Q 376.859 36.795 376.551 36.531 Q 375.971 36.013 375.083 36.013 Q 374.424 36.013 373.958 36.276 Q 373.492 36.54 373.211 36.883 Q 373.044 37.094 372.921 37.362 Q 372.798 37.63 372.728 37.911 Q 372.657 38.21 372.631 38.834 Q 372.605 39.458 372.605 40.398 Q 372.605 41.356 372.631 41.976 Q 372.657 42.596 372.728 42.894 Q 372.798 43.167 372.926 43.435 Q 373.053 43.703 373.211 43.905 Q 373.492 44.274 373.958 44.534 Q 374.424 44.793 375.083 44.793 Q 376.604 44.793 377.395 43.132 Q 377.412 43.114 377.439 43.092 Q 377.465 43.07 377.491 43.07 Z M 387.922 46.797 Q 387.816 46.797 387.816 46.691 L 387.816 41.295 L 383.026 41.295 L 383.026 46.691 Q 383.026 46.797 382.921 46.797 L 381.013 46.797 Q 380.908 46.797 380.908 46.691 L 380.908 34.097 Q 380.908 33.991 381.013 33.991 L 382.921 33.991 Q 383.026 33.991 383.026 34.097 L 383.026 39.388 L 387.816 39.388 L 387.816 34.097 Q 387.816 33.991 387.922 33.991 L 389.829 33.991 Q 389.934 33.991 389.934 34.097 L 389.934 46.691 Q 389.934 46.797 389.829 46.797 Z M 391.439 46.788 Q 391.377 46.788 391.351 46.744 Q 391.325 46.7 391.342 46.647 L 395.948 34.044 Q 395.965 33.974 396.036 33.974 L 397.609 33.974 Q 397.635 33.974 397.666 33.996 Q 397.697 34.017 397.706 34.044 L 402.302 46.647 Q 402.32 46.7 402.293 46.744 Q 402.267 46.788 402.214 46.788 L 400.202 46.788 Q 400.131 46.788 400.114 46.718 L 399.165 43.94 L 394.524 43.94 Q 394.278 44.652 394.036 45.333 Q 393.794 46.015 393.548 46.718 Q 393.54 46.744 393.509 46.766 Q 393.478 46.788 393.452 46.788 Z M 398.532 42.051 Q 398.514 41.989 398.483 41.919 Q 398.453 41.849 398.435 41.796 Q 398.286 41.365 398.163 41 Q 398.04 40.636 397.943 40.363 Q 397.881 40.187 397.824 40.02 Q 397.767 39.853 397.714 39.704 Q 397.67 39.563 397.626 39.436 Q 397.582 39.309 397.539 39.185 Q 397.459 38.931 397.376 38.676 Q 397.292 38.421 397.205 38.148 Q 397.161 38.025 397.112 37.876 Q 397.064 37.726 397.011 37.559 Q 396.985 37.472 396.972 37.423 Q 396.958 37.375 396.941 37.327 Q 396.923 37.278 396.901 37.217 Q 396.879 37.155 396.844 37.041 Q 396.748 37.331 396.664 37.577 Q 396.581 37.823 396.51 38.034 Q 396.493 38.087 396.484 38.131 Q 396.475 38.175 396.457 38.219 Q 396.414 38.368 396.365 38.5 Q 396.317 38.632 396.273 38.764 Q 396.229 38.904 396.185 39.036 Q 396.141 39.168 396.097 39.291 Q 396.009 39.555 395.917 39.845 Q 395.825 40.135 395.71 40.451 Q 395.596 40.767 395.473 41.132 Q 395.35 41.497 395.157 42.051 Z M 393.689 32.857 Q 393.61 32.857 393.592 32.787 Q 393.575 32.717 393.627 32.673 L 396.211 30.625 L 397.398 30.625 L 400.017 32.673 Q 400.079 32.717 400.057 32.787 Q 400.035 32.857 399.956 32.857 L 398.479 32.857 L 396.721 31.908 Q 396.334 32.145 395.939 32.383 Q 395.543 32.62 395.157 32.857 Z M 403.559 34.097 Q 403.559 33.991 403.664 33.991 L 405.58 33.991 Q 405.677 33.991 405.677 34.097 L 405.677 42.218 Q 405.677 43.483 406.38 44.134 Q 407.092 44.793 408.147 44.793 Q 409.184 44.793 409.896 44.134 Q 410.608 43.475 410.608 42.218 L 410.608 34.097 Q 410.608 33.991 410.713 33.991 L 412.62 33.991 Q 412.726 33.991 412.726 34.097 L 412.726 42.429 Q 412.726 44.45 411.381 45.681 Q 410.054 46.902 408.147 46.902 Q 406.231 46.902 404.895 45.681 Q 403.559 44.45 403.559 42.429 Z M 419.535 46.797 Q 419.439 46.797 419.439 46.691 L 419.439 41.277 L 418.516 41.277 Q 418.419 41.277 418.419 41.181 L 418.419 39.37 Q 418.419 39.265 418.516 39.265 L 419.439 39.265 L 419.439 34.097 Q 419.439 33.991 419.535 33.991 L 423.947 33.991 Q 426.575 33.991 427.876 36.162 Q 428.113 36.584 428.263 36.962 Q 428.412 37.34 428.456 37.7 Q 428.562 38.403 428.562 40.398 Q 428.562 41.471 428.527 42.187 Q 428.491 42.903 428.421 43.264 Q 428.351 43.633 428.206 43.98 Q 428.061 44.327 427.841 44.67 L 427.841 44.661 Q 427.252 45.566 426.259 46.182 Q 425.231 46.797 423.824 46.797 Z M 421.557 36.013 L 421.557 39.265 L 423.851 39.265 Q 423.956 39.265 423.956 39.37 L 423.956 41.181 Q 423.956 41.277 423.851 41.277 L 421.557 41.277 L 421.557 44.793 L 423.737 44.793 Q 425.248 44.793 425.987 43.738 Q 426.294 43.272 426.356 42.763 Q 426.4 42.481 426.422 41.914 Q 426.444 41.348 426.444 40.469 Q 426.444 39.616 426.422 39.045 Q 426.4 38.474 426.356 38.14 Q 426.259 37.516 425.899 37.023 Q 425.152 36.013 423.737 36.013 Z M 431.953 32.857 Q 431.874 32.857 431.852 32.791 Q 431.83 32.725 431.892 32.682 L 434.476 30.634 L 435.654 30.634 L 438.273 32.682 Q 438.334 32.725 438.312 32.791 Q 438.29 32.857 438.22 32.857 L 436.735 32.857 L 434.986 31.917 Q 434.599 32.154 434.203 32.392 Q 433.808 32.629 433.421 32.857 Z M 430.398 40.293 Q 430.398 39.142 430.429 38.412 Q 430.459 37.683 430.512 37.349 Q 430.574 37.015 430.688 36.707 Q 430.802 36.399 430.969 36.1 L 430.96 36.1 Q 431.417 35.248 432.437 34.518 Q 433.465 33.78 434.995 33.78 Q 436.506 33.78 437.535 34.518 Q 438.572 35.266 439.029 36.1 Q 439.354 36.698 439.468 37.349 Q 439.53 37.683 439.56 38.412 Q 439.591 39.142 439.591 40.293 Q 439.591 42.552 439.468 43.246 Q 439.407 43.589 439.297 43.896 Q 439.187 44.204 439.037 44.485 Q 438.572 45.329 437.535 46.067 Q 436.497 46.797 434.995 46.797 Q 433.474 46.797 432.437 46.067 Q 431.417 45.347 430.96 44.485 L 430.969 44.485 Q 430.802 44.186 430.688 43.883 Q 430.574 43.58 430.512 43.246 Q 430.459 42.912 430.429 42.178 Q 430.398 41.444 430.398 40.293 Z M 432.516 40.293 Q 432.516 41.251 432.542 41.871 Q 432.569 42.49 432.639 42.789 Q 432.709 43.061 432.837 43.33 Q 432.964 43.598 433.122 43.8 Q 433.404 44.169 433.87 44.428 Q 434.335 44.687 434.995 44.687 Q 435.645 44.687 436.111 44.428 Q 436.577 44.169 436.849 43.8 Q 437.218 43.351 437.332 42.789 Q 437.473 42.226 437.473 40.293 Q 437.473 39.335 437.438 38.715 Q 437.403 38.096 437.332 37.806 Q 437.271 37.524 437.148 37.256 Q 437.025 36.988 436.858 36.777 Q 436.726 36.61 436.537 36.452 Q 436.348 36.294 436.111 36.175 Q 435.873 36.057 435.592 35.982 Q 435.311 35.907 434.995 35.907 Q 434.335 35.907 433.87 36.171 Q 433.404 36.434 433.122 36.777 Q 432.955 36.988 432.832 37.256 Q 432.709 37.524 432.639 37.806 Q 432.569 38.104 432.542 38.728 Q 432.516 39.352 432.516 40.293 Z M 436.761 31.372 Q 436.691 31.372 436.669 31.324 Q 436.647 31.275 436.673 31.214 L 438.51 28.647 Q 438.545 28.595 438.598 28.595 L 440.532 28.595 Q 440.602 28.595 440.633 28.656 Q 440.663 28.718 440.611 28.77 L 438.185 31.337 Q 438.176 31.346 438.15 31.359 Q 438.123 31.372 438.106 31.372 Z M 450.348 43.07 Q 450.4 43.07 450.436 43.11 Q 450.471 43.149 450.453 43.202 Q 450.084 44.995 448.818 45.962 Q 448.203 46.428 447.482 46.665 Q 446.762 46.902 445.927 46.902 Q 444.406 46.902 443.369 46.173 Q 442.35 45.452 441.893 44.591 Q 441.734 44.292 441.62 43.989 Q 441.506 43.685 441.444 43.351 Q 441.33 42.701 441.33 40.398 Q 441.33 39.247 441.356 38.517 Q 441.383 37.788 441.444 37.454 Q 441.506 37.12 441.62 36.812 Q 441.734 36.505 441.893 36.206 Q 442.35 35.353 443.369 34.624 Q 444.397 33.886 445.927 33.886 Q 447.755 33.886 448.95 35.011 Q 450.163 36.144 450.453 37.7 Q 450.471 37.753 450.436 37.788 Q 450.4 37.823 450.348 37.823 L 448.335 37.823 Q 448.256 37.823 448.238 37.753 Q 448.124 37.401 447.913 37.098 Q 447.702 36.795 447.395 36.531 Q 446.814 36.013 445.927 36.013 Q 445.268 36.013 444.802 36.276 Q 444.336 36.54 444.055 36.883 Q 443.888 37.094 443.765 37.362 Q 443.642 37.63 443.571 37.911 Q 443.501 38.21 443.475 38.834 Q 443.448 39.458 443.448 40.398 Q 443.448 41.356 443.475 41.976 Q 443.501 42.596 443.571 42.894 Q 443.642 43.167 443.769 43.435 Q 443.896 43.703 444.055 43.905 Q 444.336 44.274 444.802 44.534 Q 445.268 44.793 445.927 44.793 Q 447.447 44.793 448.238 43.132 Q 448.256 43.114 448.282 43.092 Q 448.309 43.07 448.335 43.07 Z" transform="matrix(1.310387, 0, 0, 1.310387, -59.698296, -1.169035)" style="fill: rgb(255, 255, 255); text-wrap-mode: nowrap;"/>
    <path transform="matrix(1.310387, 0, 0, 1.310387, -59.698296, -1.169035)" style="fill: rgb(255, 255, 255); text-wrap-mode: nowrap;"/>
    <path d="M 366.461 69.122 Q 366.487 69.087 366.531 69.087 Q 366.575 69.087 366.61 69.114 Q 367.305 69.676 368.205 70.015 Q 369.106 70.353 370.108 70.353 Q 371.233 70.353 371.884 69.887 Q 372.499 69.439 372.499 68.701 Q 372.499 67.312 370.943 67.101 L 370.952 67.101 Q 370.732 67.075 370.535 67.048 Q 370.337 67.022 370.139 66.995 Q 369.941 66.969 369.735 66.938 Q 369.528 66.908 369.282 66.872 Q 368.456 66.758 367.81 66.455 Q 367.164 66.152 366.725 65.651 Q 366.285 65.141 366.065 64.539 Q 365.846 63.937 365.846 63.225 Q 365.846 61.555 366.953 60.509 Q 368.069 59.446 370.056 59.446 Q 370.644 59.446 371.203 59.547 Q 371.761 59.648 372.284 59.824 Q 372.807 59.999 373.286 60.241 Q 373.765 60.483 374.204 60.773 Q 374.292 60.834 374.23 60.922 L 373.167 62.495 Q 373.105 62.575 373.026 62.522 Q 372.341 62.091 371.567 61.832 Q 370.794 61.573 369.968 61.573 Q 369.546 61.573 369.185 61.674 Q 368.825 61.775 368.535 62.003 Q 367.964 62.416 367.964 63.26 Q 367.964 63.744 368.35 64.201 Q 368.544 64.411 368.869 64.556 Q 369.194 64.702 369.669 64.772 Q 369.924 64.816 370.267 64.864 Q 370.609 64.912 371.075 64.965 Q 372.877 65.185 373.747 66.292 Q 374.617 67.373 374.617 68.701 Q 374.617 70.476 373.378 71.478 Q 372.13 72.462 370.091 72.462 Q 367.217 72.462 365.204 70.704 Q 365.169 70.678 365.169 70.634 Q 365.169 70.59 365.195 70.555 Z M 376.178 65.958 Q 376.178 64.807 376.209 64.077 Q 376.24 63.348 376.293 63.014 Q 376.354 62.68 376.468 62.372 Q 376.583 62.065 376.75 61.766 L 376.741 61.766 Q 377.198 60.913 378.217 60.184 Q 379.246 59.446 380.775 59.446 Q 382.287 59.446 383.315 60.184 Q 384.352 60.931 384.809 61.766 Q 385.134 62.364 385.249 63.014 Q 385.31 63.348 385.341 64.077 Q 385.372 64.807 385.372 65.958 Q 385.372 68.217 385.249 68.911 Q 385.187 69.254 385.077 69.562 Q 384.967 69.869 384.818 70.151 Q 384.352 70.994 383.315 71.733 Q 382.278 72.462 380.775 72.462 Q 379.254 72.462 378.217 71.733 Q 377.198 71.012 376.741 70.151 L 376.75 70.151 Q 376.583 69.852 376.468 69.549 Q 376.354 69.245 376.293 68.911 Q 376.24 68.577 376.209 67.844 Q 376.178 67.11 376.178 65.958 Z M 378.296 65.958 Q 378.296 66.916 378.323 67.536 Q 378.349 68.156 378.42 68.454 Q 378.49 68.727 378.617 68.995 Q 378.745 69.263 378.903 69.465 Q 379.184 69.834 379.65 70.094 Q 380.116 70.353 380.775 70.353 Q 381.425 70.353 381.891 70.094 Q 382.357 69.834 382.629 69.465 Q 382.999 69.017 383.113 68.454 Q 383.254 67.892 383.254 65.958 Q 383.254 65 383.218 64.381 Q 383.183 63.761 383.113 63.471 Q 383.051 63.19 382.928 62.922 Q 382.805 62.654 382.638 62.443 Q 382.506 62.276 382.317 62.118 Q 382.129 61.959 381.891 61.841 Q 381.654 61.722 381.373 61.647 Q 381.091 61.573 380.775 61.573 Q 380.116 61.573 379.65 61.836 Q 379.184 62.1 378.903 62.443 Q 378.736 62.654 378.613 62.922 Q 378.49 63.19 378.42 63.471 Q 378.349 63.77 378.323 64.394 Q 378.296 65.018 378.296 65.958 Z M 378.885 58.417 Q 378.815 58.417 378.793 58.369 Q 378.771 58.321 378.797 58.259 L 380.634 55.693 Q 380.67 55.64 380.722 55.64 L 382.656 55.64 Q 382.726 55.64 382.757 55.702 Q 382.788 55.763 382.735 55.816 L 380.309 58.382 Q 380.3 58.391 380.274 58.404 Q 380.248 58.417 380.23 58.417 Z M 396.175 68.63 Q 396.228 68.63 396.263 68.67 Q 396.298 68.709 396.281 68.762 Q 395.912 70.555 394.646 71.522 Q 394.031 71.988 393.31 72.225 Q 392.589 72.462 391.754 72.462 Q 390.234 72.462 389.197 71.733 Q 388.177 71.012 387.72 70.151 Q 387.562 69.852 387.448 69.549 Q 387.334 69.245 387.272 68.911 Q 387.158 68.261 387.158 65.958 Q 387.158 64.807 387.184 64.077 Q 387.211 63.348 387.272 63.014 Q 387.334 62.68 387.448 62.372 Q 387.562 62.065 387.72 61.766 Q 388.177 60.913 389.197 60.184 Q 390.225 59.446 391.754 59.446 Q 393.583 59.446 394.778 60.571 Q 395.991 61.704 396.281 63.26 Q 396.298 63.313 396.263 63.348 Q 396.228 63.383 396.175 63.383 L 394.163 63.383 Q 394.084 63.383 394.066 63.313 Q 393.952 62.961 393.741 62.658 Q 393.53 62.355 393.222 62.091 Q 392.642 61.573 391.754 61.573 Q 391.095 61.573 390.629 61.836 Q 390.164 62.1 389.882 62.443 Q 389.715 62.654 389.592 62.922 Q 389.469 63.19 389.399 63.471 Q 389.329 63.77 389.302 64.394 Q 389.276 65.018 389.276 65.958 Q 389.276 66.916 389.302 67.536 Q 389.329 68.156 389.399 68.454 Q 389.469 68.727 389.597 68.995 Q 389.724 69.263 389.882 69.465 Q 390.164 69.834 390.629 70.094 Q 391.095 70.353 391.754 70.353 Q 393.275 70.353 394.066 68.692 Q 394.084 68.674 394.11 68.652 Q 394.136 68.63 394.163 68.63 Z M 404.173 72.357 Q 404.068 72.357 404.068 72.251 L 404.068 61.458 L 400.719 61.458 Q 400.613 61.458 400.613 61.353 L 400.613 59.657 Q 400.613 59.551 400.719 59.551 L 409.526 59.551 Q 409.631 59.551 409.631 59.657 L 409.631 61.353 Q 409.631 61.458 409.526 61.458 L 406.186 61.458 L 406.186 72.251 Q 406.186 72.357 406.08 72.357 Z M 413.031 61.458 L 413.031 65.071 L 415.817 65.071 Q 416.837 65.071 417.346 64.508 Q 417.856 63.946 417.856 63.172 Q 417.856 62.733 417.702 62.39 Q 417.548 62.047 417.258 61.827 Q 417.004 61.652 416.665 61.555 Q 416.327 61.458 415.931 61.458 Z M 411.018 72.357 Q 410.913 72.357 410.913 72.251 L 410.913 59.657 Q 410.913 59.551 411.018 59.551 L 415.949 59.551 Q 416.766 59.551 417.425 59.775 Q 418.085 59.999 418.577 60.412 Q 418.832 60.65 419.065 60.953 Q 419.297 61.256 419.478 61.608 Q 419.658 61.959 419.763 62.355 Q 419.869 62.75 419.869 63.172 Q 419.869 63.796 419.693 64.354 Q 419.517 64.912 419.201 65.396 Q 418.876 65.844 418.445 66.182 Q 418.014 66.521 417.469 66.723 Q 418.181 68.085 418.902 69.461 Q 419.623 70.836 420.335 72.199 Q 420.361 72.26 420.335 72.308 Q 420.308 72.357 420.247 72.357 L 417.979 72.357 Q 417.953 72.357 417.926 72.335 Q 417.9 72.313 417.882 72.295 L 415.307 66.978 L 413.031 66.978 L 413.031 72.251 Q 413.031 72.357 412.925 72.357 Z M 420.755 72.348 Q 420.694 72.348 420.667 72.304 Q 420.641 72.26 420.658 72.207 L 425.264 59.604 Q 425.281 59.534 425.352 59.534 L 426.925 59.534 Q 426.951 59.534 426.982 59.556 Q 427.013 59.577 427.022 59.604 L 431.618 72.207 Q 431.636 72.26 431.61 72.304 Q 431.583 72.348 431.53 72.348 L 429.518 72.348 Q 429.447 72.348 429.43 72.278 L 428.481 69.5 L 423.84 69.5 Q 423.594 70.212 423.352 70.893 Q 423.111 71.575 422.864 72.278 Q 422.856 72.304 422.825 72.326 Q 422.794 72.348 422.768 72.348 Z M 427.848 67.611 Q 427.83 67.549 427.799 67.479 Q 427.769 67.409 427.751 67.356 Q 427.602 66.925 427.479 66.56 Q 427.356 66.196 427.259 65.923 Q 427.197 65.747 427.14 65.58 Q 427.083 65.413 427.03 65.264 Q 426.987 65.123 426.943 64.996 Q 426.899 64.869 426.855 64.745 Q 426.776 64.491 426.692 64.236 Q 426.609 63.981 426.521 63.708 Q 426.477 63.585 426.428 63.436 Q 426.38 63.286 426.327 63.119 Q 426.301 63.032 426.288 62.983 Q 426.275 62.935 426.257 62.887 Q 426.239 62.838 426.217 62.777 Q 426.195 62.715 426.16 62.601 Q 426.064 62.891 425.98 63.137 Q 425.897 63.383 425.826 63.594 Q 425.809 63.647 425.8 63.691 Q 425.791 63.735 425.774 63.779 Q 425.73 63.928 425.681 64.06 Q 425.633 64.192 425.589 64.324 Q 425.545 64.464 425.501 64.596 Q 425.457 64.728 425.413 64.851 Q 425.325 65.115 425.233 65.405 Q 425.141 65.695 425.027 66.011 Q 424.912 66.327 424.789 66.692 Q 424.666 67.057 424.473 67.611 Z M 424.649 56.009 Q 424.86 57.055 426.143 57.064 Q 427.479 57.046 427.54 56.009 L 428.806 56.009 Q 428.806 56.58 428.599 56.972 Q 428.393 57.363 428.032 57.723 Q 427.32 58.4 426.187 58.417 Q 424.983 58.4 424.218 57.741 Q 423.866 57.389 423.673 57.055 Q 423.48 56.721 423.471 56.009 Z M 433.209 72.357 Q 433.103 72.357 433.103 72.251 L 433.103 59.657 Q 433.103 59.551 433.209 59.551 L 435.019 59.551 Q 435.072 59.551 435.107 59.604 L 440.644 68.323 L 440.644 59.657 Q 440.644 59.551 440.75 59.551 L 442.666 59.551 Q 442.771 59.551 442.771 59.657 L 442.771 72.251 Q 442.771 72.357 442.666 72.357 L 440.864 72.357 Q 440.811 72.357 440.776 72.304 L 435.222 63.585 L 435.222 72.251 Q 435.222 72.357 435.125 72.357 Z M 449.6 67.233 Q 449.494 67.233 449.494 67.127 L 449.494 65.317 Q 449.494 65.22 449.6 65.22 L 454.073 65.22 Q 454.179 65.22 454.179 65.317 L 454.179 67.883 Q 454.179 69.826 452.843 71.135 Q 451.489 72.462 449.582 72.462 Q 448.062 72.462 447.025 71.733 Q 446.005 71.012 445.548 70.151 L 445.557 70.151 Q 445.39 69.852 445.275 69.549 Q 445.161 69.245 445.1 68.911 Q 445.047 68.577 445.016 67.844 Q 444.985 67.11 444.985 65.958 Q 444.985 64.807 445.016 64.077 Q 445.047 63.348 445.1 63.014 Q 445.161 62.68 445.275 62.372 Q 445.39 62.065 445.557 61.766 L 445.548 61.766 Q 446.005 60.913 447.025 60.184 Q 448.053 59.446 449.582 59.446 Q 451.41 59.446 452.606 60.571 Q 453.818 61.696 454.108 63.26 Q 454.126 63.313 454.091 63.348 Q 454.056 63.383 454.003 63.383 L 451.99 63.383 Q 451.911 63.383 451.894 63.313 Q 451.779 62.961 451.568 62.658 Q 451.358 62.355 451.05 62.091 Q 450.47 61.573 449.582 61.573 Q 448.923 61.573 448.457 61.836 Q 447.991 62.1 447.71 62.443 Q 447.543 62.654 447.42 62.922 Q 447.297 63.19 447.227 63.471 Q 447.156 63.77 447.13 64.394 Q 447.104 65.018 447.104 65.958 Q 447.104 66.916 447.13 67.536 Q 447.156 68.156 447.227 68.454 Q 447.297 68.727 447.424 68.995 Q 447.552 69.263 447.71 69.465 Q 447.991 69.834 448.457 70.094 Q 448.923 70.353 449.582 70.353 Q 450.628 70.353 451.34 69.641 Q 452.061 68.929 452.061 67.778 L 452.061 67.233 Z" transform="matrix(1.310387, 0, 0, 1.310387, -59.698296, -1.169035)" style="fill: rgb(255, 255, 255); text-wrap-mode: nowrap;"/>
    <path d="M 426.152 119.118 Q 426.045 119.118 426.045 119.011 L 426.045 106.277 Q 426.045 106.17 426.152 106.17 L 434.292 106.17 Q 434.399 106.17 434.399 106.277 L 434.399 108.107 Q 434.399 108.214 434.292 108.214 L 428.187 108.214 L 428.187 111.626 L 433.377 111.626 Q 433.484 111.626 433.484 111.733 L 433.484 113.457 Q 433.484 113.555 433.377 113.555 L 428.187 113.555 L 428.187 117.092 L 434.292 117.092 Q 434.399 117.092 434.399 117.198 L 434.399 119.011 Q 434.399 119.118 434.292 119.118 Z M 442.571 119.118 Q 442.517 119.118 442.482 119.065 L 439.78 114.479 Q 439.105 115.634 438.429 116.772 Q 437.754 117.909 437.079 119.065 Q 437.043 119.118 436.99 119.118 L 434.813 119.118 Q 434.741 119.118 434.715 119.069 Q 434.688 119.02 434.724 118.958 L 438.589 112.48 Q 437.674 110.933 436.776 109.405 Q 435.879 107.876 434.972 106.33 Q 434.937 106.268 434.964 106.219 Q 434.99 106.17 435.052 106.17 L 437.239 106.17 Q 437.292 106.17 437.327 106.223 L 439.78 110.489 Q 440.393 109.422 441.007 108.361 Q 441.62 107.299 442.233 106.223 Q 442.268 106.17 442.322 106.17 L 444.508 106.17 Q 444.57 106.17 444.597 106.219 Q 444.623 106.268 444.588 106.33 L 440.971 112.48 Q 441.949 114.106 442.908 115.719 Q 443.868 117.332 444.846 118.958 Q 444.881 119.02 444.855 119.069 Q 444.828 119.118 444.757 119.118 Z M 448.15 108.214 L 448.15 112.106 L 450.914 112.106 Q 451.936 112.106 452.433 111.493 Q 452.94 110.898 452.94 110.16 Q 452.94 109.058 452.158 108.552 Q 451.651 108.214 450.843 108.214 Z M 446.115 119.118 Q 446.008 119.118 446.008 119.011 L 446.008 106.277 Q 446.008 106.17 446.115 106.17 L 450.736 106.17 Q 451.5 106.17 452.184 106.33 Q 452.878 106.49 453.66 107.094 Q 453.962 107.334 454.215 107.65 Q 454.468 107.965 454.673 108.347 Q 454.868 108.738 454.975 109.209 Q 455.081 109.68 455.081 110.213 Q 455.081 111.609 454.033 112.879 Q 452.984 114.141 450.985 114.141 L 448.15 114.141 L 448.15 119.011 Q 448.15 119.118 448.043 119.118 Z M 458.767 108.098 L 458.767 111.751 L 461.584 111.751 Q 462.615 111.751 463.13 111.182 Q 463.646 110.613 463.646 109.831 Q 463.646 109.387 463.49 109.04 Q 463.335 108.694 463.041 108.472 Q 462.784 108.294 462.441 108.196 Q 462.099 108.098 461.699 108.098 Z M 456.732 119.118 Q 456.625 119.118 456.625 119.011 L 456.625 106.277 Q 456.625 106.17 456.732 106.17 L 461.717 106.17 Q 462.544 106.17 463.21 106.397 Q 463.877 106.623 464.374 107.041 Q 464.632 107.281 464.868 107.587 Q 465.103 107.894 465.285 108.249 Q 465.467 108.605 465.574 109.005 Q 465.681 109.405 465.681 109.831 Q 465.681 110.462 465.503 111.027 Q 465.325 111.591 465.005 112.08 Q 464.676 112.533 464.241 112.875 Q 463.806 113.217 463.255 113.422 Q 463.974 114.799 464.703 116.19 Q 465.432 117.58 466.152 118.958 Q 466.178 119.02 466.152 119.069 Q 466.125 119.118 466.063 119.118 L 463.77 119.118 Q 463.743 119.118 463.717 119.096 Q 463.69 119.073 463.672 119.056 L 461.068 113.679 L 458.767 113.679 L 458.767 119.011 Q 458.767 119.118 458.66 119.118 Z M 467.661 119.118 Q 467.554 119.118 467.554 119.011 L 467.554 106.277 Q 467.554 106.17 467.661 106.17 L 475.801 106.17 Q 475.908 106.17 475.908 106.277 L 475.908 108.107 Q 475.908 108.214 475.801 108.214 L 469.696 108.214 L 469.696 111.626 L 474.886 111.626 Q 474.993 111.626 474.993 111.733 L 474.993 113.457 Q 474.993 113.555 474.886 113.555 L 469.696 113.555 L 469.696 117.092 L 475.801 117.092 Q 475.908 117.092 475.908 117.198 L 475.908 119.011 Q 475.908 119.118 475.801 119.118 Z M 477.686 115.848 Q 477.712 115.812 477.757 115.812 Q 477.801 115.812 477.837 115.839 Q 478.539 116.407 479.45 116.75 Q 480.36 117.092 481.374 117.092 Q 482.511 117.092 483.169 116.621 Q 483.791 116.167 483.791 115.421 Q 483.791 114.017 482.218 113.804 L 482.227 113.804 Q 482.005 113.777 481.805 113.75 Q 481.605 113.724 481.405 113.697 Q 481.205 113.67 480.996 113.639 Q 480.787 113.608 480.538 113.573 Q 479.703 113.457 479.05 113.15 Q 478.396 112.844 477.952 112.337 Q 477.508 111.822 477.286 111.213 Q 477.063 110.604 477.063 109.885 Q 477.063 108.196 478.183 107.139 Q 479.312 106.063 481.32 106.063 Q 481.916 106.063 482.48 106.165 Q 483.044 106.268 483.573 106.445 Q 484.102 106.623 484.586 106.868 Q 485.07 107.112 485.515 107.405 Q 485.604 107.467 485.541 107.556 L 484.466 109.147 Q 484.404 109.227 484.324 109.174 Q 483.631 108.738 482.849 108.476 Q 482.067 108.214 481.231 108.214 Q 480.805 108.214 480.44 108.316 Q 480.076 108.418 479.783 108.649 Q 479.205 109.067 479.205 109.92 Q 479.205 110.409 479.596 110.871 Q 479.792 111.084 480.121 111.231 Q 480.449 111.378 480.929 111.449 Q 481.187 111.493 481.534 111.542 Q 481.88 111.591 482.351 111.644 Q 484.173 111.866 485.053 112.986 Q 485.932 114.079 485.932 115.421 Q 485.932 117.216 484.679 118.229 Q 483.417 119.225 481.356 119.225 Q 478.45 119.225 476.415 117.447 Q 476.379 117.421 476.379 117.376 Q 476.379 117.332 476.406 117.296 Z M 487.955 115.848 Q 487.982 115.812 488.027 115.812 Q 488.071 115.812 488.107 115.839 Q 488.809 116.407 489.719 116.75 Q 490.63 117.092 491.643 117.092 Q 492.781 117.092 493.439 116.621 Q 494.061 116.167 494.061 115.421 Q 494.061 114.017 492.488 113.804 L 492.497 113.804 Q 492.274 113.777 492.074 113.75 Q 491.874 113.724 491.675 113.697 Q 491.475 113.67 491.266 113.639 Q 491.057 113.608 490.808 113.573 Q 489.973 113.457 489.32 113.15 Q 488.666 112.844 488.222 112.337 Q 487.778 111.822 487.556 111.213 Q 487.333 110.604 487.333 109.885 Q 487.333 108.196 488.453 107.139 Q 489.582 106.063 491.59 106.063 Q 492.186 106.063 492.75 106.165 Q 493.314 106.268 493.843 106.445 Q 494.372 106.623 494.856 106.868 Q 495.34 107.112 495.785 107.405 Q 495.873 107.467 495.811 107.556 L 494.736 109.147 Q 494.674 109.227 494.594 109.174 Q 493.901 108.738 493.119 108.476 Q 492.337 108.214 491.501 108.214 Q 491.075 108.214 490.71 108.316 Q 490.346 108.418 490.053 108.649 Q 489.475 109.067 489.475 109.92 Q 489.475 110.409 489.866 110.871 Q 490.062 111.084 490.39 111.231 Q 490.719 111.378 491.199 111.449 Q 491.457 111.493 491.803 111.542 Q 492.15 111.591 492.621 111.644 Q 494.443 111.866 495.323 112.986 Q 496.202 114.079 496.202 115.421 Q 496.202 117.216 494.949 118.229 Q 493.687 119.225 491.626 119.225 Q 488.72 119.225 486.685 117.447 Q 486.649 117.421 486.649 117.376 Q 486.649 117.332 486.676 117.296 Z M 500.211 119.118 Q 500.123 119.118 500.105 119.038 L 496.914 106.303 Q 496.897 106.25 496.932 106.21 Q 496.968 106.17 497.021 106.17 L 499.065 106.17 Q 499.154 106.17 499.172 106.25 L 501.091 114.95 Q 501.678 112.764 502.273 110.604 Q 502.869 108.445 503.464 106.25 Q 503.482 106.17 503.571 106.17 L 504.966 106.17 Q 505.046 106.17 505.064 106.25 L 507.445 114.95 Q 507.925 112.764 508.405 110.604 Q 508.885 108.445 509.365 106.25 Q 509.382 106.17 509.471 106.17 L 511.515 106.17 Q 511.569 106.17 511.604 106.21 Q 511.64 106.25 511.622 106.303 L 508.432 119.038 Q 508.414 119.118 508.325 119.118 L 506.716 119.118 Q 506.636 119.118 506.619 119.038 L 504.264 110.196 Q 503.677 112.426 503.091 114.621 Q 502.504 116.816 501.918 119.038 Q 501.9 119.118 501.82 119.118 Z M 511.536 119.109 Q 511.473 119.109 511.447 119.065 Q 511.42 119.02 511.438 118.967 L 516.095 106.223 Q 516.112 106.152 516.183 106.152 L 517.774 106.152 Q 517.801 106.152 517.832 106.174 Q 517.863 106.197 517.872 106.223 L 522.52 118.967 Q 522.537 119.02 522.511 119.065 Q 522.484 119.109 522.431 119.109 L 520.396 119.109 Q 520.325 119.109 520.307 119.038 L 519.347 116.23 L 514.655 116.23 Q 514.406 116.95 514.162 117.638 Q 513.917 118.327 513.668 119.038 Q 513.66 119.065 513.628 119.087 Q 513.597 119.109 513.571 119.109 Z M 518.707 114.319 Q 518.689 114.257 518.658 114.186 Q 518.627 114.115 518.609 114.061 Q 518.458 113.626 518.334 113.257 Q 518.21 112.888 518.112 112.613 Q 518.05 112.435 517.992 112.266 Q 517.934 112.097 517.881 111.946 Q 517.836 111.804 517.792 111.675 Q 517.747 111.546 517.703 111.422 Q 517.623 111.164 517.539 110.907 Q 517.454 110.649 517.365 110.373 Q 517.321 110.249 517.272 110.098 Q 517.223 109.947 517.17 109.778 Q 517.143 109.689 517.13 109.64 Q 517.117 109.591 517.099 109.542 Q 517.081 109.494 517.059 109.431 Q 517.037 109.369 517.001 109.254 Q 516.903 109.547 516.819 109.796 Q 516.734 110.045 516.663 110.258 Q 516.646 110.311 516.637 110.356 Q 516.628 110.4 516.61 110.444 Q 516.566 110.596 516.517 110.729 Q 516.468 110.862 516.423 110.995 Q 516.379 111.138 516.334 111.271 Q 516.29 111.404 516.246 111.529 Q 516.157 111.795 516.063 112.088 Q 515.97 112.382 515.855 112.702 Q 515.739 113.022 515.615 113.39 Q 515.49 113.759 515.295 114.319 Z M 525.5 119.118 Q 525.402 119.118 525.402 119.011 L 525.402 113.804 Q 524.443 111.929 523.492 110.062 Q 522.541 108.196 521.59 106.321 Q 521.563 106.259 521.59 106.214 Q 521.617 106.17 521.688 106.17 L 523.714 106.17 Q 523.741 106.17 523.767 106.192 Q 523.794 106.214 523.812 106.232 L 526.424 111.689 Q 527.082 110.311 527.726 108.96 Q 528.371 107.61 529.028 106.232 Q 529.046 106.214 529.073 106.192 Q 529.099 106.17 529.126 106.17 L 531.161 106.17 Q 531.232 106.17 531.259 106.214 Q 531.285 106.259 531.259 106.321 L 527.437 113.804 L 527.437 119.011 Q 527.437 119.118 527.331 119.118 Z" style="fill: rgb(255, 255, 255); text-wrap-mode: nowrap;"/>
    <path d="M 341.366 84.558 Q 341.438 84.558 341.486 84.612 Q 341.534 84.666 341.51 84.738 Q 341.005 87.189 339.276 88.51 Q 338.435 89.147 337.45 89.471 Q 336.465 89.795 335.324 89.795 Q 333.246 89.795 331.828 88.798 Q 330.435 87.813 329.81 86.636 Q 329.594 86.228 329.438 85.813 Q 329.282 85.399 329.198 84.942 Q 329.042 84.054 329.042 80.906 Q 329.042 79.333 329.078 78.336 Q 329.114 77.339 329.198 76.883 Q 329.282 76.426 329.438 76.006 Q 329.594 75.585 329.81 75.177 Q 330.435 74.012 331.828 73.015 Q 333.234 72.006 335.324 72.006 Q 337.822 72.006 339.456 73.543 Q 341.113 75.093 341.51 77.219 Q 341.534 77.291 341.486 77.339 Q 341.438 77.387 341.366 77.387 L 338.615 77.387 Q 338.507 77.387 338.483 77.291 Q 338.327 76.81 338.038 76.396 Q 337.75 75.982 337.33 75.621 Q 336.537 74.913 335.324 74.913 Q 334.423 74.913 333.786 75.273 Q 333.15 75.633 332.765 76.102 Q 332.537 76.39 332.369 76.756 Q 332.201 77.123 332.105 77.507 Q 332.008 77.916 331.972 78.768 Q 331.936 79.621 331.936 80.906 Q 331.936 82.216 331.972 83.063 Q 332.008 83.909 332.105 84.318 Q 332.201 84.69 332.375 85.057 Q 332.549 85.423 332.765 85.699 Q 333.15 86.204 333.786 86.558 Q 334.423 86.912 335.324 86.912 Q 337.402 86.912 338.483 84.642 Q 338.507 84.618 338.543 84.588 Q 338.579 84.558 338.615 84.558 Z M 346.396 89.651 Q 346.252 89.651 346.252 89.507 L 346.252 74.756 L 341.676 74.756 Q 341.532 74.756 341.532 74.612 L 341.532 72.294 Q 341.532 72.15 341.676 72.15 L 353.711 72.15 Q 353.856 72.15 353.856 72.294 L 353.856 74.612 Q 353.856 74.756 353.711 74.756 L 349.147 74.756 L 349.147 89.507 Q 349.147 89.651 349.003 89.651 Z M 354.222 89.651 Q 354.078 89.651 354.078 89.507 L 354.078 87.068 Q 354.078 86.924 354.222 86.924 L 356.672 86.924 Q 356.804 86.924 356.804 87.068 L 356.804 89.507 Q 356.804 89.651 356.672 89.651 Z M 361.364 81.915 Q 361.219 81.915 361.219 81.771 L 361.219 79.621 Q 361.219 79.477 361.364 79.477 L 362.204 79.477 Q 363.369 79.477 364.042 78.828 Q 364.703 78.204 364.703 77.183 Q 364.703 76.222 364.018 75.537 Q 363.333 74.853 362.348 74.853 Q 361.628 74.853 360.967 75.345 Q 360.307 75.826 360.126 76.798 Q 360.114 76.847 360.072 76.883 Q 360.03 76.919 359.994 76.919 L 357.532 76.919 Q 357.472 76.919 357.43 76.871 Q 357.388 76.822 357.4 76.762 Q 357.52 74.925 358.961 73.507 Q 360.379 72.114 362.252 72.114 Q 363.418 72.114 364.36 72.51 Q 365.303 72.907 366.024 73.675 Q 366.709 74.432 367.075 75.315 Q 367.441 76.198 367.441 77.135 Q 367.441 78.156 367.045 79.129 Q 366.853 79.561 366.517 79.946 Q 366.18 80.33 365.724 80.666 Q 366.685 81.351 367.153 82.312 Q 367.634 83.345 367.634 84.414 Q 367.634 86.852 366.084 88.342 Q 364.559 89.795 362.3 89.795 Q 361.4 89.795 360.601 89.507 Q 359.802 89.219 359.069 88.642 Q 358.349 88.053 357.91 87.225 Q 357.472 86.396 357.304 85.279 Q 357.28 85.123 357.448 85.123 L 359.898 85.123 Q 359.982 85.123 360.03 85.219 Q 360.186 85.639 360.397 85.975 Q 360.607 86.312 360.895 86.558 Q 361.183 86.804 361.562 86.936 Q 361.94 87.068 362.445 87.068 Q 363.394 87.068 364.15 86.384 Q 364.895 85.723 364.895 84.498 Q 364.895 83.273 364.15 82.612 Q 363.394 81.915 362.397 81.915 Z M 369.23 87.117 Q 369.085 87.117 369.085 86.972 L 369.085 84.63 L 374.827 72.354 Q 374.851 72.33 374.887 72.3 Q 374.923 72.27 374.959 72.27 L 377.698 72.27 Q 377.77 72.27 377.812 72.33 Q 377.854 72.39 377.818 72.474 L 372.124 84.522 L 376.22 84.522 L 376.22 79.729 Q 376.22 79.597 376.364 79.597 L 378.815 79.597 Q 378.959 79.597 378.959 79.729 L 378.959 84.522 L 380.196 84.522 Q 380.328 84.522 380.328 84.666 L 380.328 86.972 Q 380.328 87.117 380.196 87.117 L 378.959 87.117 L 378.959 89.507 Q 378.959 89.651 378.815 89.651 L 376.364 89.651 Q 376.22 89.651 376.22 89.507 L 376.22 87.117 Z" style="text-wrap-mode: nowrap;"/>
    <path d="M 394.303 191.656 Q 394.104 191.656 394.104 191.457 L 394.104 171.735 Q 393.34 172.299 392.577 172.872 Q 391.813 173.444 391.049 173.992 Q 390.933 174.075 390.834 174.017 Q 390.734 173.959 390.734 173.826 L 390.734 170.224 Q 390.734 170.191 390.759 170.141 Q 390.784 170.091 390.817 170.058 L 394.237 167.584 L 397.707 167.584 Q 397.906 167.584 397.906 167.783 L 397.906 191.457 Q 397.906 191.656 397.707 191.656 Z M 411.349 174.573 Q 411.349 172.963 410.494 172.058 Q 409.639 171.153 408.211 171.153 Q 406.783 171.153 405.937 172.058 Q 405.09 172.963 405.09 174.573 L 405.09 184.617 Q 405.09 186.244 405.937 187.141 Q 406.783 188.037 408.211 188.037 Q 409.639 188.037 410.494 187.141 Q 411.349 186.244 411.349 184.617 Z M 401.305 174.374 Q 401.305 171.021 403.413 169.211 Q 405.505 167.368 408.211 167.368 Q 409.556 167.368 410.76 167.841 Q 411.963 168.315 413.009 169.211 Q 414.055 170.141 414.594 171.427 Q 415.134 172.714 415.134 174.374 L 415.134 184.817 Q 415.134 188.153 413.009 189.98 Q 410.917 191.806 408.211 191.806 Q 405.505 191.806 403.413 189.98 Q 401.305 188.17 401.305 184.817 Z M 427.671 174.573 Q 427.671 172.963 426.816 172.058 Q 425.961 171.153 424.534 171.153 Q 423.106 171.153 422.259 172.058 Q 421.413 172.963 421.413 174.573 L 421.413 184.617 Q 421.413 186.244 422.259 187.141 Q 423.106 188.037 424.534 188.037 Q 425.961 188.037 426.816 187.141 Q 427.671 186.244 427.671 184.617 Z M 417.627 174.374 Q 417.627 171.021 419.736 169.211 Q 421.828 167.368 424.534 167.368 Q 425.878 167.368 427.082 167.841 Q 428.286 168.315 429.331 169.211 Q 430.377 170.141 430.917 171.427 Q 431.456 172.714 431.456 174.374 L 431.456 184.817 Q 431.456 188.153 429.331 189.98 Q 427.24 191.806 424.534 191.806 Q 421.828 191.806 419.736 189.98 Q 417.627 188.17 417.627 184.817 Z" style="text-wrap-mode: nowrap;"/>
    <path d="M 505.003 174.391 Q 505.02 172.731 505.568 171.427 Q 506.116 170.124 507.112 169.194 Q 508.058 168.331 509.237 167.858 Q 510.415 167.385 511.71 167.385 Q 514.068 167.385 515.977 168.796 Q 517.77 170.224 518.318 172.913 Q 518.351 173.013 518.285 173.079 Q 518.218 173.146 518.119 173.146 L 514.715 173.146 Q 514.582 173.146 514.533 173.029 Q 513.786 171.203 511.694 171.153 Q 508.689 171.236 508.689 174.607 L 508.689 176.566 Q 509.768 176.25 510.839 176.068 Q 511.91 175.885 512.873 175.902 Q 515.197 175.902 516.857 177.528 Q 518.451 179.205 518.434 182.692 L 518.434 184.85 Q 518.384 188.253 516.409 190.029 Q 514.549 191.789 511.71 191.872 Q 508.955 191.789 507.112 190.046 Q 505.02 188.22 505.003 184.866 Z M 508.689 184.667 Q 508.706 188.07 511.71 188.104 Q 514.649 188.087 514.765 184.667 L 514.765 182.725 Q 514.632 179.355 511.71 179.288 Q 508.706 179.371 508.689 182.725 Z M 531.13 174.573 Q 531.13 172.963 530.275 172.058 Q 529.42 171.153 527.993 171.153 Q 526.565 171.153 525.718 172.058 Q 524.872 172.963 524.872 174.573 L 524.872 184.617 Q 524.872 186.244 525.718 187.141 Q 526.565 188.037 527.993 188.037 Q 529.42 188.037 530.275 187.141 Q 531.13 186.244 531.13 184.617 Z M 521.086 174.374 Q 521.086 171.021 523.195 169.211 Q 525.287 167.368 527.993 167.368 Q 529.337 167.368 530.541 167.841 Q 531.745 168.315 532.791 169.211 Q 533.836 170.141 534.376 171.427 Q 534.916 172.714 534.916 174.374 L 534.916 184.817 Q 534.916 188.153 532.791 189.98 Q 530.699 191.806 527.993 191.806 Q 525.287 191.806 523.195 189.98 Q 521.086 188.17 521.086 184.817 Z" style="fill: rgb(255, 255, 255); text-wrap-mode: nowrap;"/>
  </g>
</svg>