<?xml version="1.0" encoding="UTF-8"?>
<!DOCTYPE svg PUBLIC "-//W3C//DTD SVG 1.1//EN" "http://www.w3.org/Graphics/SVG/1.1/DTD/svg11.dtd">
<!-- Creator: CorelDRAW -->
<svg xmlns="http://www.w3.org/2000/svg" xml:space="preserve" width="85.4998mm" height="52.9166mm" version="1.1" style="shape-rendering:geometricPrecision; text-rendering:geometricPrecision; image-rendering:optimizeQuality; fill-rule:evenodd; clip-rule:evenodd"
viewBox="0 0 1628.86 1008.12"
 xmlns:xlink="http://www.w3.org/1999/xlink"
 xmlns:xodm="http://www.corel.com/coreldraw/odm/2003">
 <defs>
  <style type="text/css">
   <![CDATA[
    .fil3 {fill:black}
    .fil0 {fill:#0A9646}
    .fil2 {fill:#FFD70F}
    .fil1 {fill:white}
    .fil7 {fill:black;fill-rule:nonzero}
    .fil6 {fill:#0046AA;fill-rule:nonzero}
    .fil5 {fill:#F00A0A;fill-rule:nonzero}
    .fil4 {fill:white;fill-rule:nonzero}
   ]]>
  </style>
 </defs>
 <g id="Layer_x0020_1">
  <metadata id="CorelCorpID_0Corel-Layer"/>
  <g id="_2403410324752">
   <polygon id="rect15575" class="fil0" points="-0,0 1628.86,0 1628.86,1008.12 -0,1008.12 "/>
   <path id="path15582" class="fil1" d="M40.48 6.68c-18.42,0 -33.45,15.03 -33.45,33.44l0 444.05 0 62.84 0 65.41 0 18.52 0 336.69c0,18.42 15.03,33.43 33.45,33.43l1547.88 0c18.42,0 33.45,-15.01 33.45,-33.43l-0 -336.69 0 -18.04 0 -76.85 0 -51.88 0 -444.05c0,-18.42 -15.03,-33.44 -33.45,-33.44l-1547.87 0zm0 12.6l1547.88 0c11.66,0 20.86,9.18 20.86,20.84l0 444.05 0 51.88c0,0.4 -0.02,0.82 -0.05,1.25l0 9.61c0,11.59 -9.33,20.91 -20.91,20.91l-10.77 0c-0.25,0.01 -0.5,0.02 -0.74,0.02l-1526.03 0c-0.24,0 -0.5,-0.01 -0.75,-0.02l-9.47 0c-11.59,0 -20.91,-9.33 -20.91,-20.91l0 -506.71c0,-2.21 0.34,-4.34 0.97,-6.34 0.02,-0.06 0.04,-0.12 0.06,-0.18 2.66,-8.43 10.46,-14.41 19.86,-14.41zm-0.1 561.26l9.28 0 1527.87 0 10.83 0c11.52,0 20.8,9.28 20.8,20.8l0 10.13c0.03,0.5 0.05,0.98 0.05,1.43l0 18.04 0 336.69c0,7.3 -3.62,13.63 -9.18,17.34 -3.32,2.25 -7.34,3.56 -11.67,3.56l-1547.98 0c-11.52,0 -20.8,-9.28 -20.8,-20.8l0 -366.39c0,-11.52 9.28,-20.8 20.8,-20.8z"/>
   <polygon id="rect15605" class="fil2" points="104.14,222.96 411.08,222.96 411.08,363.2 104.14,363.19 "/>
   <path id="path15631" class="fil3" d="M114.54 225.81c-4.09,0 -7.43,3.33 -7.43,7.42l0 119.7c0,4.09 3.34,7.42 7.43,7.42l286.26 0c4.09,0 7.43,-3.33 7.43,-7.42l0 -119.7c0,-4.09 -3.34,-7.42 -7.43,-7.42l-286.26 0zm0 2.7l286.26 0c2.63,0 4.72,2.08 4.72,4.72l0 119.7c0,2.63 -2.08,4.7 -4.72,4.7l-286.26 0c-2.63,0 -4.72,-2.07 -4.72,-4.7l0 -119.7c0,-2.63 2.08,-4.72 4.72,-4.72z"/>
   <path id="path17496" class="fil4" d="M1345.91 182.26l0 255.13 178.61 0 0 -255.13 -178.61 0zm6.97 8.37l164.59 0 0 239.76 -164.59 0 0 -239.76zm68.9 18.38l-11.26 44.71 19.77 -0 1.42 -44.71 -9.93 0zm16.9 0l1.42 44.71 19.78 -0 -11.27 -44.71 -9.93 0zm-80.19 50.37l0 9.79 15.46 5.59 0 2.95 7.11 -0 0 -2.95c0,0 10.52,-1.58 22.81,-2.7 9.84,-0.9 20.83,-1.37 28.45,-1.4 9.07,-0.03 22.47,0.47 33.97,1.45 12.67,1.08 23.04,2.65 23.04,2.65l0 2.95 6.97 0 0 -2.95 15.46 -5.59 0 -9.79 -153.27 0zm46.43 18.25l-33.79 134.49 50.65 0 7.03 -134.49 -23.89 0zm36.58 0l7.03 134.49 50.66 0 -33.79 -134.49 -23.89 0z"/>
   <circle id="path815" class="fil5" cx="542.45" cy="784.71" r="153.8"/>
   <circle id="circle817" class="fil4" cx="542.45" cy="784.71" r="115.93"/>
   <circle id="circle817-6" class="fil6" cx="1088.36" cy="784.7" r="153.8"/>
   <path class="fil4" d="M618.44 484.69c-0.36,0 -0.54,-0.18 -0.54,-0.54l0 -64.19c0,-0.36 0.18,-0.54 0.54,-0.54l41.03 0c0.36,0 0.54,0.18 0.54,0.54l0 9.22c0,0.36 -0.18,0.54 -0.54,0.54l-30.77 0 0 17.2 26.16 0c0.36,0 0.54,0.18 0.54,0.54l0 8.69c0,0.33 -0.18,0.49 -0.54,0.49l-26.16 0 0 17.83 30.77 0c0.36,0 0.54,0.18 0.54,0.54l0 9.14c0,0.36 -0.18,0.54 -0.54,0.54l-41.03 0zm82.76 0c-0.18,0 -0.33,-0.09 -0.45,-0.27l-13.62 -23.12c-2.27,3.88 -4.54,7.73 -6.81,11.56 -2.27,3.82 -4.54,7.67 -6.81,11.56 -0.12,0.18 -0.27,0.27 -0.45,0.27l-10.97 0c-0.24,0 -0.41,-0.08 -0.5,-0.25 -0.09,-0.16 -0.07,-0.35 0.05,-0.56l19.48 -32.65c-3.07,-5.2 -6.12,-10.37 -9.14,-15.5 -3.01,-5.14 -6.04,-10.3 -9.09,-15.5 -0.12,-0.21 -0.13,-0.39 -0.04,-0.56 0.09,-0.16 0.24,-0.25 0.44,-0.25l11.02 0c0.18,0 0.33,0.09 0.44,0.27l12.36 21.5c2.06,-3.59 4.12,-7.16 6.19,-10.73 2.06,-3.57 4.12,-7.16 6.18,-10.78 0.12,-0.18 0.27,-0.27 0.45,-0.27l11.02 0c0.21,0 0.36,0.08 0.45,0.25 0.09,0.17 0.07,0.35 -0.04,0.56l-18.23 31c3.29,5.46 6.54,10.91 9.76,16.33 3.23,5.42 6.48,10.86 9.77,16.33 0.12,0.21 0.13,0.39 0.05,0.56 -0.09,0.17 -0.26,0.25 -0.49,0.25l-11.02 0zm28.12 -54.96l0 19.62 13.93 0c3.43,0 5.99,-1.03 7.66,-3.09 1.7,-2 2.56,-4.24 2.56,-6.72 0,-3.7 -1.31,-6.4 -3.94,-8.1 -1.71,-1.14 -3.91,-1.7 -6.63,-1.7l-13.57 0zm-10.26 54.96c-0.36,0 -0.54,-0.18 -0.54,-0.54l0 -64.19c0,-0.36 0.18,-0.54 0.54,-0.54l23.29 0c2.57,0 5,0.27 7.3,0.81 2.33,0.54 4.81,1.82 7.44,3.85 1.01,0.81 1.95,1.74 2.8,2.8 0.85,1.06 1.62,2.23 2.31,3.51 0.66,1.31 1.16,2.76 1.52,4.34 0.36,1.58 0.53,3.27 0.53,5.06 0,4.69 -1.76,9.17 -5.28,13.44 -3.53,4.24 -8.65,6.36 -15.36,6.36l-14.29 0 0 24.55c0,0.36 -0.18,0.54 -0.54,0.54l-9.72 0zm63.77 -55.55l0 18.41 14.2 0c3.47,0 6.06,-0.96 7.79,-2.87 1.73,-1.91 2.6,-4.18 2.6,-6.81 0,-1.49 -0.26,-2.82 -0.79,-3.99 -0.52,-1.16 -1.27,-2.12 -2.26,-2.86 -0.86,-0.6 -1.87,-1.06 -3.02,-1.39 -1.15,-0.33 -2.4,-0.49 -3.74,-0.49l-14.78 0zm-10.26 55.55c-0.36,0 -0.54,-0.18 -0.54,-0.54l0 -64.19c0,-0.36 0.18,-0.54 0.54,-0.54l25.13 0c2.78,0 5.29,0.38 7.53,1.14 2.24,0.76 4.2,1.84 5.87,3.25 0.87,0.81 1.7,1.72 2.49,2.75 0.79,1.03 1.49,2.14 2.1,3.34 0.61,1.2 1.1,2.47 1.46,3.81 0.36,1.34 0.54,2.73 0.54,4.16 0,2.12 -0.3,4.13 -0.9,6.03 -0.6,1.9 -1.43,3.67 -2.51,5.31 -1.11,1.52 -2.39,2.86 -3.85,4.01 -1.46,1.15 -3.12,2.07 -4.97,2.76 2.42,4.63 4.85,9.28 7.3,13.95 2.45,4.67 4.88,9.32 7.3,13.95 0.09,0.21 0.09,0.39 0,0.56 -0.09,0.17 -0.24,0.25 -0.45,0.25l-11.56 0c-0.09,0 -0.18,-0.04 -0.27,-0.11 -0.09,-0.08 -0.17,-0.14 -0.23,-0.2l-13.13 -27.1 -11.6 0 0 26.88c0,0.36 -0.18,0.54 -0.54,0.54l-9.72 0zm55.09 0c-0.36,0 -0.54,-0.18 -0.54,-0.54l0 -64.19c0,-0.36 0.18,-0.54 0.54,-0.54l41.03 0c0.36,0 0.54,0.18 0.54,0.54l0 9.22c0,0.36 -0.18,0.54 -0.54,0.54l-30.77 0 0 17.2 26.16 0c0.36,0 0.54,0.18 0.54,0.54l0 8.69c0,0.33 -0.18,0.49 -0.54,0.49l-26.16 0 0 17.83 30.77 0c0.36,0 0.54,0.18 0.54,0.54l0 9.14c0,0.36 -0.18,0.54 -0.54,0.54l-41.03 0zm50.53 -16.48c0.09,-0.12 0.21,-0.18 0.36,-0.18 0.15,0 0.28,0.05 0.4,0.14 2.36,1.91 5.07,3.44 8.13,4.59 3.06,1.15 6.29,1.72 9.7,1.72 3.82,0 6.84,-0.79 9.05,-2.37 2.09,-1.53 3.13,-3.54 3.13,-6.05 0,-4.72 -2.64,-7.43 -7.93,-8.15l0.05 0c-0.74,-0.09 -1.46,-0.18 -2.13,-0.27 -0.67,-0.09 -1.35,-0.18 -2.02,-0.27 -0.67,-0.09 -1.36,-0.19 -2.06,-0.29 -0.7,-0.1 -1.47,-0.22 -2.31,-0.33 -2.81,-0.39 -5.31,-1.1 -7.5,-2.13 -2.2,-1.03 -4.04,-2.39 -5.53,-4.1 -1.49,-1.73 -2.61,-3.62 -3.36,-5.66 -0.75,-2.05 -1.12,-4.28 -1.12,-6.69 0,-5.68 1.88,-10.29 5.64,-13.84 3.79,-3.62 9.06,-5.42 15.81,-5.42 2,0 3.95,0.17 5.85,0.51 1.9,0.35 3.73,0.82 5.51,1.41 1.78,0.6 3.48,1.31 5.11,2.13 1.63,0.82 3.19,1.72 4.68,2.71 0.3,0.21 0.34,0.46 0.13,0.76l-5.42 8.02c-0.21,0.27 -0.45,0.31 -0.72,0.14 -2.33,-1.47 -4.81,-2.64 -7.43,-3.52 -2.63,-0.88 -5.35,-1.32 -8.16,-1.32 -1.43,0 -2.76,0.17 -3.99,0.51 -1.22,0.34 -2.33,0.9 -3.31,1.68 -1.94,1.4 -2.91,3.54 -2.91,6.4 0,1.64 0.66,3.24 1.97,4.8 0.66,0.71 1.54,1.32 2.65,1.81 1.1,0.49 2.46,0.86 4.07,1.1 0.87,0.15 1.88,0.3 3.05,0.47 1.16,0.16 2.53,0.34 4.12,0.51 6.12,0.75 10.66,3 13.62,6.77 2.95,3.67 4.43,7.76 4.43,12.27 0,6.03 -2.11,10.75 -6.32,14.15 -4.24,3.35 -9.82,5.02 -16.75,5.02 -9.77,0 -18.07,-2.99 -24.91,-8.96 -0.12,-0.09 -0.18,-0.21 -0.18,-0.36 0,-0.15 0.05,-0.28 0.14,-0.4l6.45 -7.3zm51.76 0c0.09,-0.12 0.21,-0.18 0.36,-0.18 0.15,0 0.28,0.05 0.4,0.14 2.36,1.91 5.07,3.44 8.13,4.59 3.06,1.15 6.29,1.72 9.7,1.72 3.83,0 6.84,-0.79 9.05,-2.37 2.09,-1.53 3.14,-3.54 3.14,-6.05 0,-4.72 -2.64,-7.43 -7.93,-8.15l0.05 0c-0.75,-0.09 -1.46,-0.18 -2.13,-0.27 -0.67,-0.09 -1.34,-0.18 -2.01,-0.27 -0.67,-0.09 -1.36,-0.19 -2.06,-0.29 -0.7,-0.1 -1.47,-0.22 -2.31,-0.33 -2.81,-0.39 -5.31,-1.1 -7.5,-2.13 -2.2,-1.03 -4.04,-2.39 -5.53,-4.1 -1.49,-1.73 -2.61,-3.62 -3.36,-5.66 -0.75,-2.05 -1.12,-4.28 -1.12,-6.69 0,-5.68 1.88,-10.29 5.64,-13.84 3.79,-3.62 9.06,-5.42 15.81,-5.42 2,0 3.95,0.17 5.85,0.51 1.9,0.35 3.73,0.82 5.51,1.41 1.78,0.6 3.48,1.31 5.11,2.13 1.63,0.82 3.19,1.72 4.68,2.71 0.3,0.21 0.34,0.46 0.13,0.76l-5.42 8.02c-0.21,0.27 -0.45,0.31 -0.72,0.14 -2.33,-1.47 -4.81,-2.64 -7.43,-3.52 -2.63,-0.88 -5.35,-1.32 -8.16,-1.32 -1.43,0 -2.76,0.17 -3.99,0.51 -1.22,0.34 -2.33,0.9 -3.31,1.68 -1.94,1.4 -2.91,3.54 -2.91,6.4 0,1.64 0.66,3.24 1.97,4.8 0.66,0.71 1.54,1.32 2.64,1.81 1.1,0.49 2.47,0.86 4.08,1.1 0.87,0.15 1.88,0.3 3.04,0.47 1.17,0.16 2.54,0.34 4.12,0.51 6.12,0.75 10.66,3 13.62,6.77 2.95,3.67 4.43,7.76 4.43,12.27 0,6.03 -2.11,10.75 -6.32,14.15 -4.24,3.35 -9.82,5.02 -16.75,5.02 -9.77,0 -18.07,-2.99 -24.91,-8.96 -0.12,-0.09 -0.18,-0.21 -0.18,-0.36 0,-0.15 0.05,-0.28 0.14,-0.4l6.45 -7.3zm61.78 16.48c-0.3,0 -0.47,-0.14 -0.54,-0.4l-16.08 -64.19c-0.06,-0.18 -0.03,-0.33 0.09,-0.47 0.12,-0.13 0.27,-0.2 0.45,-0.2l10.3 0c0.3,0 0.48,0.13 0.54,0.4l9.67 43.85c1.97,-7.35 3.96,-14.65 5.96,-21.91 2,-7.25 4,-14.57 6,-21.95 0.06,-0.27 0.24,-0.4 0.54,-0.4l7.03 0c0.27,0 0.43,0.13 0.49,0.4l12 43.85c1.61,-7.35 3.23,-14.65 4.84,-21.91 1.61,-7.25 3.23,-14.57 4.84,-21.95 0.06,-0.27 0.23,-0.4 0.53,-0.4l10.3 0c0.18,0 0.33,0.07 0.45,0.2 0.12,0.14 0.15,0.29 0.09,0.47l-16.08 64.19c-0.06,0.27 -0.24,0.4 -0.54,0.4l-8.11 0c-0.27,0 -0.43,-0.14 -0.49,-0.4l-11.87 -44.57c-1.97,7.49 -3.94,14.93 -5.91,22.3 -1.97,7.37 -3.94,14.8 -5.91,22.26 -0.06,0.27 -0.22,0.4 -0.49,0.4l-8.11 0zm57.08 -0.05c-0.21,0 -0.36,-0.07 -0.45,-0.22 -0.09,-0.15 -0.1,-0.32 -0.04,-0.5l23.47 -64.24c0.06,-0.24 0.21,-0.36 0.44,-0.36l8.02 0c0.09,0 0.19,0.04 0.29,0.11 0.1,0.08 0.17,0.16 0.2,0.25l23.43 64.24c0.06,0.18 0.04,0.34 -0.05,0.5 -0.09,0.15 -0.22,0.22 -0.4,0.22l-10.26 0c-0.24,0 -0.39,-0.12 -0.45,-0.36l-4.84 -14.15 -23.65 0c-0.84,2.42 -1.67,4.78 -2.48,7.1 -0.82,2.31 -1.65,4.67 -2.49,7.06 -0.03,0.09 -0.1,0.17 -0.2,0.25 -0.1,0.07 -0.2,0.11 -0.29,0.11l-10.26 0zm36.15 -24.15c-0.06,-0.21 -0.14,-0.43 -0.25,-0.67 -0.1,-0.24 -0.18,-0.45 -0.25,-0.63 -0.51,-1.46 -0.97,-2.81 -1.39,-4.05 -0.42,-1.24 -0.79,-2.32 -1.12,-3.25 -0.21,-0.6 -0.41,-1.18 -0.61,-1.75 -0.19,-0.57 -0.38,-1.11 -0.56,-1.61 -0.15,-0.48 -0.3,-0.93 -0.45,-1.37 -0.15,-0.43 -0.3,-0.86 -0.45,-1.27 -0.27,-0.87 -0.54,-1.73 -0.83,-2.6 -0.29,-0.87 -0.58,-1.76 -0.88,-2.69 -0.15,-0.42 -0.3,-0.88 -0.47,-1.39 -0.16,-0.51 -0.34,-1.04 -0.51,-1.61 -0.09,-0.3 -0.16,-0.53 -0.2,-0.7 -0.04,-0.17 -0.1,-0.33 -0.16,-0.5 -0.06,-0.16 -0.13,-0.35 -0.2,-0.56 -0.07,-0.21 -0.17,-0.51 -0.29,-0.89 -0.33,0.98 -0.63,1.9 -0.92,2.73 -0.29,0.84 -0.55,1.61 -0.79,2.33 -0.06,0.18 -0.1,0.34 -0.13,0.49 -0.03,0.15 -0.07,0.3 -0.14,0.44 -0.15,0.51 -0.3,0.99 -0.47,1.44 -0.17,0.45 -0.32,0.89 -0.47,1.34 -0.15,0.48 -0.3,0.94 -0.45,1.39 -0.15,0.45 -0.3,0.88 -0.44,1.3 -0.3,0.89 -0.61,1.83 -0.92,2.82 -0.31,0.99 -0.66,2.02 -1.05,3.09 -0.39,1.08 -0.79,2.23 -1.21,3.47 -0.42,1.24 -0.96,2.8 -1.61,4.68l17.2 0zm34.24 24.19c-0.33,0 -0.49,-0.18 -0.49,-0.54l0 -26.25c-3.22,-6.3 -6.43,-12.59 -9.63,-18.86 -3.19,-6.27 -6.39,-12.56 -9.59,-18.86 -0.09,-0.21 -0.09,-0.39 0,-0.54 0.09,-0.15 0.26,-0.22 0.49,-0.22l10.21 0c0.09,0 0.18,0.04 0.27,0.11 0.09,0.07 0.17,0.14 0.23,0.2l13.17 27.51c2.21,-4.63 4.4,-9.22 6.56,-13.76 2.17,-4.54 4.36,-9.12 6.56,-13.75 0.06,-0.06 0.14,-0.13 0.23,-0.2 0.09,-0.07 0.18,-0.11 0.27,-0.11l10.26 0c0.24,0 0.4,0.07 0.5,0.22 0.09,0.15 0.09,0.33 0,0.54l-19.27 37.72 0 26.25c0,0.36 -0.18,0.54 -0.53,0.54l-9.23 0z"/>
   <path class="fil7" d="M199.51 310.63c0.25,0 0.46,0.08 0.61,0.27 0.17,0.19 0.21,0.4 0.13,0.65 -1.72,8.35 -5.52,14.78 -11.43,19.29 -2.85,2.16 -5.98,3.79 -9.33,4.91 -3.36,1.11 -6.98,1.66 -10.88,1.66 -7.09,0 -13.04,-1.7 -17.87,-5.1 -4.76,-3.35 -8.2,-7.05 -10.32,-11.05 -0.76,-1.41 -1.39,-2.81 -1.91,-4.22 -0.54,-1.41 -0.94,-2.89 -1.24,-4.47 -0.52,-3.02 -0.8,-9.9 -0.8,-20.63 0,-5.37 0.06,-9.75 0.19,-13.15 0.13,-3.4 0.34,-5.87 0.61,-7.42 0.3,-1.57 0.69,-3.06 1.24,-4.49 0.52,-1.45 1.15,-2.85 1.91,-4.24 2.12,-3.99 5.56,-7.68 10.32,-11.07 4.78,-3.44 10.76,-5.16 17.87,-5.16 8.53,0 15.58,2.62 21.14,7.86 5.66,5.28 9.16,11.55 10.51,18.81 0.08,0.23 0.04,0.44 -0.13,0.61 -0.15,0.17 -0.36,0.25 -0.61,0.25l-14.07 0c-0.36,0 -0.59,-0.17 -0.67,-0.5 -0.54,-1.63 -1.3,-3.17 -2.28,-4.57 -0.97,-1.41 -2.18,-2.73 -3.61,-3.96 -2.71,-2.41 -6.12,-3.63 -10.27,-3.63 -3.06,0 -5.68,0.61 -7.86,1.85 -2.16,1.24 -3.9,2.64 -5.22,4.24 -0.78,0.99 -1.45,2.1 -2.01,3.35 -0.59,1.24 -1.03,2.52 -1.36,3.84 -0.31,1.38 -0.54,3.54 -0.67,6.46 -0.13,2.89 -0.19,6.54 -0.19,10.93 0,4.47 0.06,8.14 0.19,11.03 0.13,2.89 0.36,5.03 0.67,6.42 0.34,1.28 0.8,2.54 1.38,3.78 0.59,1.26 1.26,2.35 1.99,3.29 1.32,1.72 3.06,3.19 5.22,4.38 2.18,1.22 4.8,1.83 7.86,1.83 7.09,0 12.48,-3.88 16.17,-11.62 0.08,-0.08 0.19,-0.17 0.32,-0.27 0.1,-0.1 0.23,-0.15 0.36,-0.15l14.07 0z"/>
   <path id="_1" class="fil7" d="M225.26 336.67c-0.5,0 -0.75,-0.25 -0.75,-0.73l0 -75.45 -23.4 0c-0.48,0 -0.73,-0.25 -0.73,-0.73l0 -11.85c0,-0.5 0.25,-0.75 0.73,-0.75l61.57 0c0.48,0 0.74,0.25 0.74,0.75l0 11.85c0,0.48 -0.25,0.73 -0.74,0.73l-23.36 0 0 75.45c0,0.48 -0.23,0.73 -0.73,0.73l-13.32 0z"/>
   <path id="_2" class="fil7" d="M258.37 336.67c-0.48,0 -0.73,-0.25 -0.73,-0.73l0 -12.48c0,-0.48 0.25,-0.73 0.73,-0.73l12.54 0c0.44,0 0.67,0.25 0.67,0.73l0 12.48c0,0.48 -0.23,0.73 -0.67,0.73l-12.54 0z"/>
   <path id="_3" class="fil7" d="M300.63 336.86c-0.48,0 -0.73,-0.25 -0.73,-0.73l0 -73c-1.89,1.38 -3.77,2.79 -5.66,4.21 -1.87,1.41 -3.75,2.79 -5.64,4.15 -0.29,0.19 -0.57,0.23 -0.8,0.08 -0.25,-0.15 -0.38,-0.38 -0.38,-0.71l0 -13.34c0,-0.06 0.04,-0.17 0.1,-0.29 0.06,-0.13 0.13,-0.23 0.21,-0.32l12.64 -9.14 12.86 0c0.48,0 0.73,0.23 0.73,0.73l0 87.62c0,0.48 -0.25,0.73 -0.73,0.73l-12.6 0z"/>
   <path id="_4" class="fil7" d="M328.94 274.37c-0.48,0 -0.73,-0.23 -0.73,-0.74l0 -25.12c0,-0.5 0.25,-0.73 0.73,-0.73l49.76 0c0.46,0 0.69,0.23 0.69,0.73l0 12.58 -29.63 75.07c-0.15,0.34 -0.38,0.5 -0.67,0.5l-14.07 0c-0.27,0 -0.48,-0.1 -0.61,-0.31 -0.13,-0.19 -0.15,-0.42 -0.06,-0.67l29.32 -73.9 -21.52 0 0 11.85c0,0.5 -0.23,0.74 -0.67,0.74l-12.54 0z"/>
   <path class="fil4" d="M781.91 187.39c-0.36,0 -0.55,-0.16 -0.63,-0.47l-27.42 -83.06c-0.08,-0.24 -0.06,-0.44 0.06,-0.63 0.12,-0.2 0.3,-0.3 0.58,-0.3l13.27 0c0.36,0 0.55,0.18 0.63,0.54l18.38 61.49c3.09,-10.27 6.17,-20.52 9.24,-30.75 3.07,-10.23 6.13,-20.48 9.2,-30.75 0.08,-0.36 0.28,-0.54 0.63,-0.54l13.28 0c0.26,0 0.46,0.1 0.57,0.3 0.12,0.2 0.14,0.4 0.06,0.63l-27.42 83.06c-0.08,0.32 -0.28,0.47 -0.63,0.47l-9.79 0z"/>
   <path id="_1_0" class="fil4" d="M828.86 187.39c-0.46,0 -0.69,-0.24 -0.69,-0.69l0 -83.06c0,-0.47 0.24,-0.71 0.69,-0.71l12.58 0c0.46,0 0.69,0.24 0.69,0.71l0 83.06c0,0.46 -0.24,0.69 -0.69,0.69l-12.58 0z"/>
   <path id="_2_1" class="fil4" d="M859.64 187.39c-0.45,0 -0.69,-0.24 -0.69,-0.69l0 -83.06c0,-0.47 0.24,-0.71 0.69,-0.71l11.93 0c0.24,0 0.43,0.12 0.59,0.36l36.5 57.5 0 -57.14c0,-0.47 0.24,-0.71 0.71,-0.71l12.62 0c0.47,0 0.69,0.24 0.69,0.71l0 83.06c0,0.46 -0.22,0.69 -0.69,0.69l-11.87 0c-0.24,0 -0.43,-0.12 -0.59,-0.36l-36.62 -57.5 0 57.16c0,0.46 -0.22,0.69 -0.63,0.69l-12.64 0z"/>
   <path id="_3_2" class="fil4" d="M986.37 187.39c-0.47,0 -0.71,-0.24 -0.71,-0.69l0 -35.59 -31.58 0 0 35.59c0,0.46 -0.24,0.69 -0.69,0.69l-12.59 0c-0.45,0 -0.69,-0.24 -0.69,-0.69l0 -83.06c0,-0.47 0.24,-0.71 0.69,-0.71l12.59 0c0.46,0 0.69,0.24 0.69,0.71l0 34.88 31.58 0 0 -34.88c0,-0.47 0.24,-0.71 0.71,-0.71l12.56 0c0.47,0 0.71,0.24 0.71,0.71l0 83.06c0,0.46 -0.24,0.69 -0.71,0.69l-12.56 0z"/>
   <path class="fil4" d="M569.93 356.16c-0.48,0 -0.71,-0.24 -0.71,-0.69l0 -71.19 -22.08 0c-0.45,0 -0.69,-0.24 -0.69,-0.69l0 -11.18c0,-0.47 0.24,-0.71 0.69,-0.71l58.09 0c0.46,0 0.69,0.24 0.69,0.71l0 11.18c0,0.46 -0.24,0.69 -0.69,0.69l-22.04 0 0 71.19c0,0.46 -0.22,0.69 -0.69,0.69l-12.56 0z"/>
   <path id="_1_3" class="fil4" d="M660.64 356.16c-0.47,0 -0.71,-0.24 -0.71,-0.69l0 -35.59 -31.58 0 0 35.59c0,0.46 -0.24,0.69 -0.69,0.69l-12.59 0c-0.45,0 -0.69,-0.24 -0.69,-0.69l0 -83.06c0,-0.47 0.24,-0.71 0.69,-0.71l12.59 0c0.46,0 0.69,0.24 0.69,0.71l0 34.88 31.58 0 0 -34.88c0,-0.47 0.24,-0.71 0.71,-0.71l12.56 0c0.47,0 0.71,0.24 0.71,0.71l0 83.06c0,0.46 -0.24,0.69 -0.71,0.69l-12.56 0z"/>
   <path id="_2_4" class="fil4" d="M683.83 356.1c-0.28,0 -0.47,-0.1 -0.57,-0.3 -0.12,-0.18 -0.14,-0.39 -0.06,-0.63l30.37 -83.12c0.08,-0.32 0.26,-0.47 0.57,-0.47l10.37 0c0.12,0 0.26,0.06 0.4,0.16 0.12,0.1 0.22,0.2 0.26,0.32l30.31 83.12c0.08,0.24 0.06,0.46 -0.06,0.63 -0.12,0.2 -0.3,0.3 -0.51,0.3l-13.28 0c-0.32,0 -0.51,-0.16 -0.59,-0.46l-6.25 -18.32 -30.61 0c-1.09,3.13 -2.16,6.19 -3.21,9.18 -1.07,2.99 -2.14,6.04 -3.23,9.14 -0.04,0.1 -0.12,0.22 -0.26,0.32 -0.14,0.1 -0.26,0.14 -0.38,0.14l-13.28 0zm46.77 -31.24c-0.08,-0.28 -0.18,-0.55 -0.32,-0.87 -0.14,-0.32 -0.24,-0.57 -0.32,-0.81 -0.65,-1.9 -1.26,-3.64 -1.8,-5.24 -0.53,-1.6 -1.03,-3.01 -1.44,-4.21 -0.28,-0.77 -0.53,-1.52 -0.79,-2.26 -0.24,-0.73 -0.5,-1.42 -0.71,-2.08 -0.2,-0.63 -0.4,-1.21 -0.59,-1.78 -0.18,-0.55 -0.38,-1.11 -0.57,-1.64 -0.36,-1.13 -0.71,-2.26 -1.07,-3.36 -0.38,-1.13 -0.75,-2.28 -1.13,-3.48 -0.2,-0.54 -0.4,-1.13 -0.61,-1.8 -0.22,-0.65 -0.43,-1.35 -0.67,-2.08 -0.12,-0.4 -0.2,-0.69 -0.26,-0.91 -0.06,-0.2 -0.12,-0.42 -0.2,-0.63 -0.08,-0.22 -0.18,-0.46 -0.26,-0.71 -0.1,-0.28 -0.24,-0.67 -0.38,-1.17 -0.44,1.26 -0.83,2.45 -1.19,3.54 -0.38,1.07 -0.71,2.08 -1.03,3.01 -0.08,0.24 -0.14,0.44 -0.18,0.63 -0.02,0.2 -0.08,0.4 -0.16,0.59 -0.2,0.65 -0.39,1.27 -0.61,1.84 -0.22,0.59 -0.42,1.17 -0.61,1.74 -0.2,0.61 -0.38,1.23 -0.57,1.8 -0.2,0.57 -0.4,1.15 -0.57,1.68 -0.4,1.17 -0.79,2.37 -1.21,3.66 -0.39,1.27 -0.85,2.59 -1.35,4 -0.51,1.39 -1.03,2.89 -1.56,4.49 -0.55,1.6 -1.25,3.62 -2.1,6.05l22.26 0z"/>
   <path id="_3_5" class="fil4" d="M765.96 356.16c-0.45,0 -0.69,-0.24 -0.69,-0.69l0 -83.06c0,-0.47 0.24,-0.71 0.69,-0.71l11.93 0c0.24,0 0.43,0.12 0.59,0.36l36.5 57.5 0 -57.14c0,-0.47 0.24,-0.71 0.71,-0.71l12.62 0c0.47,0 0.69,0.24 0.69,0.71l0 83.06c0,0.46 -0.22,0.69 -0.69,0.69l-11.87 0c-0.24,0 -0.43,-0.12 -0.59,-0.36l-36.62 -57.5 0 57.16c0,0.46 -0.22,0.69 -0.63,0.69l-12.64 0z"/>
   <path id="_4_6" class="fil4" d="M892.69 356.16c-0.47,0 -0.71,-0.24 -0.71,-0.69l0 -35.59 -31.58 0 0 35.59c0,0.46 -0.24,0.69 -0.69,0.69l-12.59 0c-0.45,0 -0.69,-0.24 -0.69,-0.69l0 -83.06c0,-0.47 0.24,-0.71 0.69,-0.71l12.59 0c0.46,0 0.69,0.24 0.69,0.71l0 34.88 31.58 0 0 -34.88c0,-0.47 0.24,-0.71 0.71,-0.71l12.56 0c0.47,0 0.71,0.24 0.71,0.71l0 83.06c0,0.46 -0.24,0.69 -0.71,0.69l-12.56 0z"/>
   <path id="_5" class="fil4" d="M966.82 356.16c-0.48,0 -0.71,-0.24 -0.71,-0.69l0 -71.19 -22.08 0c-0.45,0 -0.69,-0.24 -0.69,-0.69l0 -11.18c0,-0.47 0.24,-0.71 0.69,-0.71l58.09 0c0.46,0 0.69,0.24 0.69,0.71l0 11.18c0,0.46 -0.24,0.69 -0.69,0.69l-22.04 0 0 71.19c0,0.46 -0.22,0.69 -0.69,0.69l-12.56 0z"/>
   <path id="_6" class="fil4" d="M1057.54 356.16c-0.47,0 -0.71,-0.24 -0.71,-0.69l0 -35.59 -31.58 0 0 35.59c0,0.46 -0.24,0.69 -0.69,0.69l-12.59 0c-0.45,0 -0.69,-0.24 -0.69,-0.69l0 -83.06c0,-0.47 0.24,-0.71 0.69,-0.71l12.59 0c0.46,0 0.69,0.24 0.69,0.71l0 34.88 31.58 0 0 -34.88c0,-0.47 0.24,-0.71 0.71,-0.71l12.56 0c0.47,0 0.71,0.24 0.71,0.71l0 83.06c0,0.46 -0.24,0.69 -0.71,0.69l-12.56 0z"/>
   <path id="_7" class="fil4" d="M1086.7 272.41c0,-0.47 0.22,-0.71 0.69,-0.71l12.62 0c0.44,0 0.65,0.24 0.65,0.71l0 53.56c0,5.56 1.54,9.77 4.63,12.62 3.13,2.91 7.02,4.35 11.65,4.35 4.55,0 8.41,-1.44 11.54,-4.35 3.13,-2.89 4.69,-7.1 4.69,-12.62l0 -53.56c0,-0.47 0.24,-0.71 0.69,-0.71l12.58 0c0.47,0 0.69,0.24 0.69,0.71l0 54.95c0,8.88 -2.95,16.03 -8.86,21.45 -5.84,5.36 -12.94,8.05 -21.33,8.05 -8.43,0 -15.57,-2.69 -21.45,-8.05 -5.88,-5.42 -8.8,-12.56 -8.8,-21.45l0 -54.95zm29.46 -8.19c-1.6,0 -2.89,0 -3.84,0l0 -2.65c0.42,-2.43 1.92,-4.43 4.51,-5.97 4.06,-1.7 5.92,-3.72 5.56,-6.04 -0.53,-2.35 -2.35,-3.54 -5.44,-3.58 -4.1,0.06 -6.27,2.06 -6.49,5.96l-8.65 0c0,-2.16 0.4,-3.96 1.19,-5.38 0.79,-1.42 1.88,-2.83 3.23,-4.17 2.67,-2.55 6.13,-3.86 10.43,-3.94 4.53,0.08 8.23,1.35 11.14,3.82 1.31,1.3 2.34,2.59 3.07,3.82 0.73,1.25 1.13,2.81 1.17,4.71 -0.24,2.67 -1.72,5.01 -4.47,7 -2.31,1.13 -4.1,2.02 -5.34,2.67l-0.69 0.75 -0.75 1.17 -0.12 1.84c-1.39,0 -2.89,0 -4.49,0z"/>
   <path id="_8" class="fil4" d="M1180.19 356.16c-0.43,0 -0.63,-0.24 -0.63,-0.69l0 -33.97c-4.17,-8.15 -8.33,-16.28 -12.47,-24.4 -4.13,-8.13 -8.27,-16.26 -12.41,-24.41 -0.12,-0.28 -0.12,-0.5 0,-0.69 0.12,-0.2 0.32,-0.3 0.63,-0.3l13.22 0c0.12,0 0.24,0.06 0.36,0.16 0.1,0.1 0.2,0.18 0.28,0.26l17.05 35.59c2.85,-6 5.68,-11.93 8.49,-17.81 2.79,-5.88 5.62,-11.79 8.49,-17.79 0.08,-0.08 0.18,-0.16 0.3,-0.26 0.1,-0.1 0.22,-0.16 0.34,-0.16l13.28 0c0.32,0 0.51,0.1 0.63,0.3 0.12,0.2 0.12,0.42 0,0.69l-24.91 48.81 0 33.97c0,0.46 -0.24,0.69 -0.71,0.69l-11.93 0z"/>
   <path class="fil4" d="M1012.6 763.97c0.06,-5.6 1.03,-10.63 2.87,-15.02 1.87,-4.4 4.45,-8.19 7.84,-11.32 3.19,-2.93 6.78,-5.17 10.77,-6.78 3.96,-1.61 8.16,-2.41 12.52,-2.41 7.96,0 15.16,2.38 21.63,7.18 6.06,4.8 10.02,11.78 11.86,20.85 0.11,0.34 0.06,0.63 -0.17,0.83 -0.23,0.23 -0.49,0.34 -0.83,0.34l-17.26 0c-0.43,0 -0.75,-0.2 -0.92,-0.57 -2.53,-6.18 -7.33,-9.36 -14.39,-9.51 -10.14,0.26 -15.22,6.09 -15.22,17.49l0 9.94c3.65,-1.06 7.27,-1.92 10.89,-2.53 3.62,-0.63 7.07,-0.92 10.31,-0.86 7.87,0 14.59,2.76 20.19,8.27 5.4,5.66 8.07,14.36 8.01,26.17l0 10.91c-0.17,11.52 -3.59,20.28 -10.28,26.28 -6.29,5.95 -14.22,9.05 -23.81,9.34 -9.31,-0.29 -17.09,-3.36 -23.3,-9.25 -7.09,-6.18 -10.66,-14.94 -10.71,-26.28l0 -53.08zm18.7 52.08c0.06,11.52 5.17,17.32 15.31,17.44 9.94,-0.06 15.08,-5.86 15.48,-17.44l0 -9.85c-0.46,-11.38 -5.6,-17.18 -15.48,-17.41 -10.14,0.29 -15.25,6.09 -15.31,17.41l0 9.85z"/>
   <path id="_1_7" class="fil4" d="M1145.05 764.89c0,-5.43 -1.44,-9.68 -4.31,-12.75 -2.9,-3.04 -6.75,-4.57 -11.58,-4.57 -4.83,0 -8.67,1.52 -11.55,4.57 -2.84,3.07 -4.28,7.33 -4.28,12.75l0 50.93c0,5.49 1.44,9.74 4.28,12.78 2.87,3.02 6.72,4.54 11.55,4.54 4.83,0 8.68,-1.52 11.58,-4.54 2.87,-3.04 4.31,-7.29 4.31,-12.78l0 -50.93zm-50.9 -1.01c0,-11.34 3.56,-20.05 10.69,-26.17 7.07,-6.23 15.17,-9.34 24.33,-9.34 4.54,0 8.85,0.78 12.9,2.39 4.08,1.61 7.87,3.91 11.4,6.95 3.56,3.13 6.23,6.89 8.04,11.23 1.84,4.34 2.73,9.34 2.73,14.94l0 52.94c0,11.26 -3.59,19.99 -10.77,26.17 -7.07,6.18 -15.17,9.25 -24.3,9.25 -9.16,0 -17.26,-3.07 -24.33,-9.25 -7.12,-6.12 -10.69,-14.85 -10.69,-26.17l0 -52.94z"/>
   <path class="fil7" d="M467.19 848.3c-0.62,0 -0.94,-0.32 -0.94,-0.94l0 -93.38c-2.42,1.77 -4.83,3.57 -7.24,5.39 -2.39,1.8 -4.8,3.57 -7.22,5.31 -0.38,0.24 -0.72,0.29 -1.02,0.11 -0.32,-0.19 -0.48,-0.48 -0.48,-0.91l0 -17.06c0,-0.08 0.05,-0.22 0.13,-0.38 0.08,-0.16 0.16,-0.3 0.27,-0.4l16.17 -11.7 16.44 0c0.62,0 0.94,0.3 0.94,0.94l0 112.08c0,0.62 -0.32,0.94 -0.94,0.94l-16.12 0z"/>
   <path id="_1_8" class="fil7" d="M500.35 848.06c-0.62,0 -0.94,-0.32 -0.94,-0.94l0 -15.34 44.02 -55.07 0 0.08c1.61,-2.04 2.66,-3.92 3.14,-5.63 0.46,-1.69 0.7,-3.35 0.7,-4.99 0,-3.62 -1.31,-7.03 -3.92,-10.22 -2.63,-3.14 -6.17,-4.69 -10.62,-4.69 -4.08,0 -7.62,1.37 -10.6,4.16 -1.47,1.37 -2.6,2.98 -3.35,4.83 -0.75,1.85 -1.23,3.97 -1.45,6.33 0,0.27 -0.11,0.46 -0.27,0.62 -0.19,0.16 -0.43,0.24 -0.67,0.24l-16.04 0c-0.62,0 -0.94,-0.32 -0.94,-0.94 0.11,-9.34 3.27,-17.17 9.5,-23.5 6.36,-6.44 13.89,-9.66 22.64,-9.66 9.5,0 17.46,3.25 23.98,9.74l-0.08 0c6.44,6.44 9.66,14.19 9.66,23.26 0,3.94 -0.56,7.57 -1.72,10.92 -1.15,3.35 -2.9,6.47 -5.2,9.36l0 -0.08c-2.98,3.78 -5.9,7.46 -8.8,11.08 -2.87,3.62 -5.77,7.21 -8.64,10.81 -2.9,3.59 -5.77,7.16 -8.64,10.76 -2.9,3.59 -5.82,7.27 -8.8,11.05l40.85 0c0.62,0 0.94,0.32 0.94,0.94l0 15.96c0,0.62 -0.32,0.94 -0.94,0.94l-63.82 0z"/>
   <path id="_2_9" class="fil7" d="M625.14 767.42c0,-5.07 -1.34,-9.04 -4.02,-11.91 -2.71,-2.84 -6.3,-4.27 -10.81,-4.27 -4.51,0 -8.1,1.42 -10.78,4.27 -2.66,2.87 -4,6.84 -4,11.91l0 47.56c0,5.12 1.34,9.09 4,11.94 2.68,2.82 6.28,4.24 10.78,4.24 4.51,0 8.1,-1.42 10.81,-4.24 2.68,-2.84 4.02,-6.81 4.02,-11.94l0 -47.56zm-47.53 -0.94c0,-10.6 3.33,-18.72 9.98,-24.44 6.6,-5.82 14.16,-8.72 22.72,-8.72 4.24,0 8.26,0.72 12.04,2.23 3.81,1.5 7.35,3.65 10.65,6.49 3.33,2.92 5.82,6.44 7.51,10.49 1.72,4.05 2.55,8.72 2.55,13.95l0 49.44c0,10.51 -3.35,18.67 -10.06,24.44 -6.6,5.77 -14.16,8.64 -22.69,8.64 -8.56,0 -16.12,-2.87 -22.72,-8.64 -6.65,-5.71 -9.98,-13.87 -9.98,-24.44l0 -49.44z"/>
  </g>
 </g>
</svg>
