<?xml version="1.0" encoding="utf-8"?>
<!-- Generator: Adobe Illustrator 21.0.0, SVG Export Plug-In . SVG Version: 6.00 Build 0)  -->
<svg version="1.1" id="Layer_1" xmlns="http://www.w3.org/2000/svg" xmlns:xlink="http://www.w3.org/1999/xlink" x="0px" y="0px"
	 viewBox="0 0 122 57" style="enable-background:new 0 0 122 57;" xml:space="preserve">
<style type="text/css">
	.st0{fill:#FFFFFF;stroke:#000000;stroke-width:2;stroke-miterlimit:10;}
	.st1{enable-background:new    ;}
</style>
<path class="st0" d="M119,56H3c-1.1,0-2-0.9-2-2V3c0-1.1,0.9-2,2-2h116c1.1,0,2,0.9,2,2v51C121,55.1,120.1,56,119,56z"/>
<g class="st1">
	<path d="M19.3,44.6c-1.2,0.8-2.8,1.1-4.8,1.1c-7,0-10-5.4-10-17.3s3.1-17.3,10-17.3c7,0,10,5.4,10,17.3c0,6.2-1,10.8-2.4,13.2
		l3.1,3.6l-2.9,2.8L19.3,44.6z M16.7,35.9l2,2.2c0.7-2,1-5.1,1-9.8c0-11.2-2.3-13.1-5.2-13.1c-2.9,0-5.2,2-5.2,13.1
		c0,11.5,2.3,13.4,5.2,13.4c0.6,0,1.2-0.1,1.7-0.3L14,39L16.7,35.9z"/>
	<path d="M28.2,11.8h4.8v28.8h11.7v4.5H28.2V11.8z"/>
	<path d="M47.8,39h4.8v6.2h-4.8V39z"/>
	<path d="M61.2,35.9c0,2.9,0.8,6.1,4.1,6.1c3,0,4.2-2.7,4.2-5.9c0-4.1-1.2-6.2-4.9-6.2h-1.9v-3.7h1.7c3.2,0,4.3-2.4,4.3-5.6
		c0-2.4-1-4.8-3.5-4.8c-3,0-3.8,2.8-3.8,5.8H57c0-6.2,2.9-9.5,8.7-9.5c3.6,0,8.1,1.8,8.1,8.4c0,3.4-1.8,6.7-4.8,7.2v0.1
		c3.1,0.3,5.5,3,5.5,7.6c0,6.5-3,10.2-9.2,10.2c-5.4,0-8.6-2.9-8.6-9.8H61.2z"/>
	<path d="M82.1,37.8c0,1.9,0.8,4.3,3.2,4.3c4.5,0,4.8-6.6,4.8-11.4L90,30.6c-1.2,2.4-3.2,3.5-5.9,3.5c-4.1,0-7.4-3.3-7.4-9.8
		c0-7.6,2.8-12.1,9.2-12.1c7.6,0,9,6.3,9,15.8c0,9.9-1.7,17.8-9.6,17.8c-5.3,0-8.1-2.6-8.1-8H82.1z M85.6,15.9c-3,0-4,3.2-4,7.1
		c0,4.6,1.2,7.1,4,7.1c3.5,0,4.2-3.4,4.2-7.4C89.7,18.9,88.4,15.9,85.6,15.9z"/>
	<path d="M98.5,11.8h9.8c4.5,0,8.1,2.2,8.1,8.1c0,4.1-1.4,6.5-4.5,7.5v0.1c3.3,0.7,5.4,2.8,5.4,8.5c0,5.5-3.6,9.1-9.3,9.1h-9.6V11.8
		z M107.2,25.9c2.9,0,4.5-2.1,4.5-5.3c0-4-2.2-4.8-4.9-4.8h-3.4v10H107.2z M108.2,41.1c2.9,0,4.5-2.1,4.5-5.9c0-3.6-2-5.6-4.8-5.6
		h-4.5v11.5H108.2z"/>
</g>
</svg>
