<?xml version="1.0" encoding="utf-8"?>
<svg viewBox="0 0 323.14914 200" xmlns="http://www.w3.org/2000/svg">
  <g id="layer1" transform="matrix(0.9999999999999999, 0, 0, 0.9999999999999999, -303.4596862792969, -22.960700988769517)">
    <path id="rect15575" style="opacity:1;fill:#0a9646;fill-opacity:1;fill-rule:evenodd;stroke-width:0.0420687;stroke-linecap:square;stroke-miterlimit:10;paint-order:stroke fill markers" d="M 303.45966,22.960701 H 626.6088 V 222.9607 H 303.45966 Z"/>
    <path transform="matrix(0.26458333,0,0,0.26458333,303.45966,22.960701)" d="m 30.353516,5.0117188 c -13.808655,0 -25.0781254,11.2674112 -25.0781254,25.0761722 v 332.957029 47.1211 49.04296 13.88672 252.45508 c 0,13.80862 11.2694704,25.06641 25.0781254,25.06641 H 1190.9805 c 13.8086,0 25.0781,-11.25779 25.0781,-25.06641 V 473.0957 459.57031 401.94727 363.04492 30.087891 c 0,-13.808761 -11.2695,-25.0761722 -25.0781,-25.0761722 z m 0,9.4511722 H 1190.9805 c 8.7398,0 15.6425,6.885058 15.6425,15.625 v 332.957029 38.90235 c 0,0.29959 -0.013,0.61475 -0.037,0.9375 v 7.20703 c 0,8.68754 -6.9941,15.68164 -15.6816,15.68164 h -8.0762 c -0.1869,0.007 -0.3766,0.0176 -0.5586,0.0176 H 38.023438 c -0.18105,0 -0.371847,-0.0102 -0.560547,-0.0176 h -7.097657 c -8.687546,0 -15.68164,-6.9941 -15.68164,-15.68164 V 30.152344 c 0,-1.658433 0.257595,-3.253829 0.730468,-4.751953 0.01365,-0.04461 0.03284,-0.08643 0.04688,-0.13086 1.99686,-6.321925 7.84094,-10.80664 14.892578,-10.80664 z M 30.28125,435.30469 h 6.958984 1145.628866 8.1172 c 8.6414,0 15.5996,6.95633 15.5996,15.59765 v 7.5918 c 0.024,0.37296 0.037,0.7339 0.037,1.07617 v 13.52539 252.45508 c 0,5.47634 -2.7106,10.22208 -6.8847,13.00391 -2.4923,1.6862 -5.5034,2.66992 -8.752,2.66992 H 30.28125 c -8.641361,0 -15.597656,-6.9563 -15.597656,-15.59766 V 450.90234 c 0,-8.64132 6.956295,-15.59765 15.597656,-15.59765 z" style="color:#000000;font-style:normal;font-variant:normal;font-weight:normal;font-stretch:normal;font-size:medium;line-height:normal;font-family:sans-serif;font-variant-ligatures:normal;font-variant-position:normal;font-variant-caps:normal;font-variant-numeric:normal;font-variant-alternates:normal;font-variant-east-asian:normal;font-feature-settings:normal;font-variation-settings:normal;text-indent:0;text-align:start;text-decoration:none;text-decoration-line:none;text-decoration-style:solid;text-decoration-color:#000000;letter-spacing:normal;word-spacing:normal;text-transform:none;writing-mode:lr-tb;direction:ltr;text-orientation:mixed;dominant-baseline:auto;baseline-shift:baseline;text-anchor:start;white-space:normal;shape-padding:0;shape-margin:0;inline-size:0;clip-rule:nonzero;display:inline;overflow:visible;visibility:visible;opacity:1;isolation:auto;mix-blend-mode:normal;color-interpolation:sRGB;color-interpolation-filters:linearRGB;solid-color:#000000;solid-opacity:1;vector-effect:none;fill:#ffffff;fill-opacity:1;fill-rule:evenodd;stroke:none;stroke-width:2.09199;stroke-linecap:square;stroke-linejoin:miter;stroke-miterlimit:10;stroke-dasharray:none;stroke-dashoffset:0;stroke-opacity:1;paint-order:stroke fill markers;color-rendering:auto;image-rendering:auto;shape-rendering:auto;text-rendering:auto;enable-background:accumulate;stop-color:#000000;stop-opacity:1" id="path15582"/>
    <path d="m 324.12038,67.193614 h 60.89334 v 27.821331 h -60.89334 z" style="opacity:1;fill:#ffd70f;fill-opacity:1;fill-rule:evenodd;stroke:none;stroke-width:0.553508;stroke-linecap:square;stroke-miterlimit:10;stroke-dasharray:none;stroke-opacity:1;paint-order:stroke fill markers" id="rect15605"/>
    <path id="path15631" d="m 326.18273,67.759747 c -0.81115,0 -1.47443,0.660164 -1.47443,1.471307 v 23.746432 c 0,0.811142 0.66328,1.471323 1.47443,1.471323 h 56.7905 c 0.81117,0 1.4744,-0.660181 1.4744,-1.471323 V 69.231054 c 0,-0.811143 -0.66328,-1.471307 -1.4744,-1.471307 z m 0,0.535017 h 56.7905 c 0.52266,0 0.93627,0.413622 0.93627,0.93629 v 23.746432 c 0,0.522654 -0.41353,0.933189 -0.93627,0.933189 h -56.7905 c -0.52266,0 -0.93628,-0.410555 -0.93628,-0.933189 V 69.231054 c 0,-0.522672 0.41354,-0.93629 0.93628,-0.93629 z" style="color:#000000;font-style:normal;font-variant:normal;font-weight:normal;font-stretch:normal;font-size:medium;line-height:normal;font-family:sans-serif;font-variant-ligatures:normal;font-variant-position:normal;font-variant-caps:normal;font-variant-numeric:normal;font-variant-alternates:normal;font-variant-east-asian:normal;font-feature-settings:normal;font-variation-settings:normal;text-indent:0;text-align:start;text-decoration:none;text-decoration-line:none;text-decoration-style:solid;text-decoration-color:#000000;letter-spacing:normal;word-spacing:normal;text-transform:none;writing-mode:lr-tb;direction:ltr;text-orientation:mixed;dominant-baseline:auto;baseline-shift:baseline;text-anchor:start;white-space:normal;shape-padding:0;shape-margin:0;inline-size:0;clip-rule:nonzero;display:inline;overflow:visible;visibility:visible;opacity:1;isolation:auto;mix-blend-mode:normal;color-interpolation:sRGB;color-interpolation-filters:linearRGB;solid-color:#000000;solid-opacity:1;vector-effect:none;fill:#000000;fill-opacity:1;fill-rule:evenodd;stroke:none;stroke-width:0.119062;stroke-linecap:square;stroke-linejoin:miter;stroke-miterlimit:10;stroke-dasharray:none;stroke-dashoffset:0;stroke-opacity:1;paint-order:stroke fill markers;color-rendering:auto;image-rendering:auto;shape-rendering:auto;text-rendering:auto;enable-background:accumulate;stop-color:#000000;stop-opacity:1"/>
    <path d="m 336.88947,72.205604 c -1.36961,0 -2.51552,0.330332 -3.43646,0.991507 -0.91309,0.653335 -1.5737,1.361798 -1.98303,2.125328 -0.14189,0.267612 -0.264,0.538688 -0.36613,0.814199 -0.10264,0.275473 -0.18065,0.564078 -0.23555,0.86321 -0.0552,0.299089 -0.0954,0.774434 -0.11873,1.427765 -0.0223,0.653332 -0.0362,1.495435 -0.0362,2.5266 0,2.062321 0.0516,3.383536 0.15387,3.966025 0.0552,0.299136 0.13326,0.587702 0.23556,0.863193 0.10264,0.267612 0.22467,0.534915 0.36612,0.802543 0.40948,0.771411 1.06995,1.479875 1.983,2.125324 0.92887,0.653346 2.07472,0.979855 3.43649,0.979855 0.74779,0 1.44489,-0.107189 2.09034,-0.319632 0.64544,-0.212556 1.24303,-0.525333 1.79403,-0.942508 1.1335,-0.865864 1.86473,-2.103628 2.19533,-3.709419 0.0139,-0.04714 0.009,-0.08518 -0.0223,-0.116745 -0.0315,-0.03928 -0.0694,-0.05829 -0.11656,-0.05829 h -2.70394 c -0.0223,1.5e-5 -0.0488,0.01117 -0.0722,0.03521 -0.0223,0.01589 -0.0451,0.0307 -0.0582,0.0467 -0.70836,1.487712 -1.74338,2.232636 -3.10515,2.232636 -0.59037,0 -1.09454,-0.11468 -1.51174,-0.342928 -0.41713,-0.236167 -0.75132,-0.520933 -1.00317,-0.851551 -0.14189,-0.181028 -0.27124,-0.389065 -0.3896,-0.625222 -0.11008,-0.244 -0.19597,-0.488524 -0.25924,-0.732545 -0.0628,-0.267611 -0.10709,-0.67614 -0.13048,-1.227141 -0.0223,-0.558871 -0.0359,-1.267326 -0.0359,-2.125325 0,-0.842249 0.009,-1.543133 0.0359,-2.102004 0.0223,-0.55887 0.0677,-0.97117 0.13048,-1.238798 0.0627,-0.251917 0.14857,-0.496392 0.25924,-0.732549 0.11009,-0.244 0.24028,-0.45965 0.3896,-0.64857 0.252,-0.30699 0.58598,-0.580386 1.00317,-0.816526 0.41715,-0.236167 0.92137,-0.352269 1.51174,-0.352269 0.79503,1.7e-5 1.45185,0.230844 1.97135,0.695231 0.27541,0.236167 0.50863,0.492045 0.69757,0.767539 0.18872,0.267667 0.33407,0.560022 0.4361,0.874867 0.0167,0.06294 0.0599,0.09333 0.13046,0.09333 h 2.7039 c 0.0468,0 0.0854,-0.01589 0.11658,-0.0467 0.0315,-0.03161 0.0407,-0.07184 0.0223,-0.118954 -0.25952,-1.393235 -0.93175,-2.595995 -2.01801,-3.611427 -1.07052,-1.007535 -2.42438,-1.511744 -4.0617,-1.511744 z m 27.73422,0.104956 c -1.28304,0 -2.4213,0.437369 -3.41313,1.311121 -0.99967,0.858 -1.50005,2.08205 -1.50005,3.672071 v 7.425818 c 0,1.590021 0.50038,2.814088 1.50005,3.672088 0.99183,0.865851 2.13009,1.299446 3.41313,1.299446 1.28303,0 2.42133,-0.433578 3.41313,-1.299446 1.00756,-0.86587 1.50938,-2.089917 1.50938,-3.672088 v -7.425818 c 0,-0.787127 -0.1299,-1.484222 -0.38959,-2.09033 -0.252,-0.613979 -0.62389,-1.140934 -1.11979,-1.581741 -0.49592,-0.425045 -1.03279,-0.74779 -1.6074,-0.968177 -0.56674,-0.22825 -1.16816,-0.342924 -1.80573,-0.342924 z m -21.12261,0.03521 c -0.0943,0 -0.14217,0.04776 -0.14217,0.142392 v 2.279298 c 0,0.09444 0.0479,0.142197 0.14217,0.142197 h 4.49793 V 89.409 c 0,0.09444 0.0479,0.139995 0.14217,0.139995 h 2.5616 c 0.0945,0 0.14217,-0.04555 0.14217,-0.139995 V 74.909653 h 4.48625 c 0.0943,0 0.14217,-0.04778 0.14217,-0.142196 v -2.279299 c 0,-0.09444 -0.0479,-0.142392 -0.14217,-0.142392 z m 31.22667,0.118953 -2.43331,1.759064 c -0.0139,0.01589 -0.0315,0.03477 -0.0466,0.05829 -0.009,0.02341 -0.0139,0.04468 -0.0139,0.06068 v 2.561593 c 0,0.06294 0.0278,0.110694 0.0728,0.142196 0.0468,0.02343 0.0989,0.01617 0.15388,-0.02343 0.36208,-0.259778 0.7228,-0.523245 1.08486,-0.790886 0.36206,-0.275473 0.72509,-0.548889 1.08714,-0.816528 v 14.028096 c 0,0.09444 0.048,0.142198 0.14217,0.142198 h 2.41929 c 0.0943,0 0.13994,-0.04778 0.13994,-0.142198 V 72.606811 c 0,-0.09444 -0.0455,-0.142197 -0.13994,-0.142197 z m -10.10406,2.538257 c 0.67694,0 1.21532,0.217964 1.61673,0.650912 0.40948,0.425045 0.61359,1.018854 0.61359,1.782378 v 7.143522 c 0,0.771407 -0.20461,1.368982 -0.61359,1.794059 -0.40133,0.425045 -0.93979,0.63689 -1.61673,0.63689 -0.67695,0 -1.21527,-0.211859 -1.61671,-0.63689 -0.40134,-0.425091 -0.60428,-1.022652 -0.60428,-1.794059 v -7.143497 c 0,-0.763524 0.20266,-1.357335 0.60428,-1.782377 0.40133,-0.432946 0.93976,-0.650913 1.61671,-0.650913 z m -9.98507,11.865445 c -0.0945,0 -0.14217,0.04776 -0.14217,0.14239 v 2.398281 c 0,0.09444 0.0479,0.139994 0.14217,0.139994 h 2.40762 c 0.0867,0 0.13046,-0.04555 0.13046,-0.139994 v -2.398281 c 0,-0.09444 -0.0451,-0.14239 -0.13046,-0.14239 z" style="font-style: normal; font-variant: normal; font-weight: normal; font-stretch: normal; font-size: 15.1831px; line-height: 1.46; font-family: 'Alte DIN 1451 Mittelschrift gepraegt'; text-align: center; text-anchor: middle; opacity: 1; fill-opacity: 1; stroke-width: 0.264584; visibility: hidden;" id="path15637"/>
    <path id="path17496" style="font-size:15.1831px;line-height:1.46;font-family:'Singapore Road Signs';-inkscape-font-specification:'Singapore Road Signs';text-align:center;text-anchor:middle;opacity:1;fill:#ffffff;fill-opacity:1;stroke-width:0.0756548" d="m 570.47468,59.120043 v 50.614317 h 35.43541 V 59.120043 Z m 1.38203,1.660034 h 32.65274 v 47.566083 h -32.65274 z m 13.66823,3.646909 -2.23483,8.869719 h 3.92184 l 0.28216,-8.869719 z m 3.35329,0 0.28216,8.869719 h 3.92385 l -2.23686,-8.869719 z m -15.90932,9.992316 v 1.942234 l 3.06692,1.10806 v 0.584703 h 1.411 v -0.584703 c 0,0 2.08662,-0.313671 4.52568,-0.535349 1.95306,-0.177516 4.1317,-0.271988 5.64407,-0.278037 1.79866,-0.0063 4.45804,0.09363 6.73975,0.288436 2.51319,0.214479 4.5713,0.524984 4.5713,0.524984 v 0.5847 h 1.38199 v -0.5847 l 3.06685,-1.108064 v -1.942233 z m 9.21108,3.620663 -6.70448,26.681115 h 10.04943 l 1.39442,-26.681115 z m 7.25642,0 1.39441,26.681115 h 10.0494 l -6.70443,-26.681115 z"/>
    <g style="font-size:14.7905px;line-height:0;font-family:'Singapore Road Signs';-inkscape-font-specification:'Singapore Road Signs';text-align:center;text-anchor:middle;opacity:1;fill:#860000;fill-opacity:1;stroke-width:6.45213" id="layer1-8" transform="matrix(0.08718024,0,0,0.08718024,-145.22047,195.49013)">
      <circle style="opacity:1;fill:#f00a0a;fill-opacity:1;fill-rule:nonzero;stroke:none;stroke-width:3622.55;stroke-linecap:round;stroke-linejoin:round;stroke-miterlimit:4;stroke-dasharray:none;stroke-opacity:1;paint-order:stroke fill markers" id="path815" cx="6380.9966" cy="-193.29752" r="350"/>
      <circle cy="-193.29752" cx="6380.9966" id="circle817" style="opacity:1;fill:#ffffff;fill-opacity:1;fill-rule:nonzero;stroke:none;stroke-width:2587.55;stroke-linecap:round;stroke-linejoin:round;stroke-miterlimit:4;stroke-dasharray:none;stroke-opacity:1;paint-order:stroke fill markers" r="263.821"/>
      <g aria-label="20 " style="font-style:normal;font-variant:normal;font-weight:bold;font-stretch:normal;font-size:414.864px;line-height:0;font-family:Giaothong1;-inkscape-font-specification:'Giaothong1 Bold';letter-spacing:0px;word-spacing:0px;fill:#000000;fill-opacity:1;stroke:none;stroke-width:24.7849" id="text874" transform="matrix(-1,0,0,1,1299.029,-383.45)">
        <g aria-label="90" transform="translate(2310.2259,387.54849)" style="font-style:normal;font-variant:normal;font-weight:bold;font-stretch:normal;font-size:414.864px;line-height:0;font-family:Giaothong1;-inkscape-font-specification:'Giaothong1 Bold';letter-spacing:0px;word-spacing:0px;fill:#000000;fill-opacity:1;stroke:none;stroke-width:53.5539" id="text844"/>
      </g>
    </g>
    <g style="font-size:14.7905px;line-height:0;font-family:'Singapore Road Signs';-inkscape-font-specification:'Singapore Road Signs';text-align:center;text-anchor:middle;opacity:1;fill:#fff000;fill-opacity:1;stroke-width:6.45221" id="layer1-7" transform="matrix(0.08717968,0,0,0.08717968,488.77841,183.34565)">
      <circle cy="-54" cx="351" id="circle817-6" style="opacity:1;fill:#0046aa;fill-opacity:1;fill-rule:nonzero;stroke:none;stroke-width:3622.58;stroke-linecap:round;stroke-linejoin:round;stroke-miterlimit:4;stroke-dasharray:none;stroke-opacity:1;paint-order:stroke fill markers" r="350"/>
      <path id="rect984" style="font-style: normal; font-variant: normal; font-weight: bold; font-stretch: normal; font-size: 414.864px; line-height: 0; font-family: Giaothong1; letter-spacing: 0px; word-spacing: 0px; opacity: 1; fill: rgb(255, 255, 255); fill-opacity: 1; fill-rule: nonzero; stroke: none; stroke-width: 0.344279; stroke-linecap: round; stroke-linejoin: miter; stroke-miterlimit: 10; stroke-dasharray: none; stroke-opacity: 1; paint-order: stroke; visibility: hidden;" d="m 851.18164,518.03906 c -16.32678,0 -29.4707,13.14393 -29.4707,29.47071 v 80.94921 c 0,16.32678 13.14392,29.47071 29.4707,29.47071 16.32678,0 29.4707,-13.14393 29.4707,-29.47071 v -80.94921 c 0,-16.32678 -13.14392,-29.47071 -29.4707,-29.47071 z m -69.94336,1.23828 -26.10937,69.75391 c -2.72781,7.40406 -3.70118,11.30112 -3.70118,28.44727 0,18.12042 0.7789,22.01697 4.67579,28.25195 5.26075,8.37828 14.22308,13.44336 24.93945,13.44336 10.91123,0 20.0688,-4.87023 25.13476,-13.44336 3.70197,-6.23498 4.48047,-10.13153 4.48047,-28.25195 0,-22.01726 -0.77798,-26.88814 -4.28515,-32.34375 -3.31232,-5.06591 -9.74347,-8.96289 -16.75782,-8.96289 -4.28653,0 -7.01308,0.77773 -8.37695,1.75195 l -0.39062,-0.38867 22.60156,-58.25782 z m 69.94336,18.74024 c 5.25853,0 9.49219,4.23365 9.49219,9.49219 v 80.94921 c 0,5.25853 -4.23366,9.49219 -9.49219,9.49219 -5.25853,0 -9.49219,-4.23366 -9.49219,-9.49219 v -80.94921 c 0,-5.25854 4.23366,-9.49219 9.49219,-9.49219 z m -70.13867,55.68945 c 5.0659,0 9.74219,3.89738 9.74219,9.9375 v 25.71875 c 0,6.04012 -4.67629,9.9375 -9.74219,9.9375 -5.0659,0 -9.74219,-3.89738 -9.74219,-9.9375 v -25.71875 c 0,-6.04012 4.67629,-9.9375 9.74219,-9.9375 z" transform="matrix(3.0349198,0,0,3.0349198,-2125.7104,-1839.7056)"/>
    </g>
    <g aria-label="6" id="text19759" style="font-size:31.1478px;line-height:1.3;font-family:'Singapore Road Signs';-inkscape-font-specification:'Singapore Road Signs';text-align:center;text-anchor:middle;stroke-width:0.159861" transform="matrix(1.6550836,0,0,1.6550836,-321.31659,-238.56049)"/>
    <path d="M 368.125 46.797 Q 368.02 46.797 368.02 46.691 L 368.02 34.097 Q 368.02 33.991 368.125 33.991 L 373.012 33.991 Q 374.867 33.991 375.86 34.984 Q 376.844 35.96 376.844 37.48 Q 376.844 38.315 376.457 39.027 Q 376.106 39.695 375.148 40.187 Q 376.036 40.469 376.519 41.268 Q 376.774 41.708 376.91 42.169 Q 377.046 42.631 377.046 43.123 Q 377.046 44.802 375.965 45.804 Q 374.893 46.797 373.443 46.797 Z M 370.138 41.207 L 370.138 44.793 L 372.977 44.793 Q 373.97 44.793 374.453 44.257 Q 374.928 43.721 374.928 43 Q 374.928 42.297 374.453 41.752 Q 373.996 41.207 372.977 41.207 Z M 370.138 35.898 L 370.138 39.3 L 372.801 39.3 Q 373.794 39.3 374.251 38.808 Q 374.726 38.324 374.726 37.603 Q 374.726 36.892 374.251 36.408 Q 373.777 35.898 372.801 35.898 Z M 377.861 46.788 Q 377.8 46.788 377.773 46.744 Q 377.747 46.7 377.765 46.647 L 382.37 34.044 Q 382.388 33.974 382.458 33.974 L 384.031 33.974 Q 384.058 33.974 384.088 33.996 Q 384.119 34.017 384.128 34.044 L 388.725 46.647 Q 388.742 46.7 388.716 46.744 Q 388.689 46.788 388.637 46.788 L 386.624 46.788 Q 386.554 46.788 386.536 46.718 L 385.587 43.94 L 380.946 43.94 Q 380.7 44.652 380.458 45.333 Q 380.217 46.015 379.971 46.718 Q 379.962 46.744 379.931 46.766 Q 379.9 46.788 379.874 46.788 Z M 384.954 42.051 Q 384.937 41.989 384.906 41.919 Q 384.875 41.849 384.857 41.796 Q 384.708 41.365 384.585 41 Q 384.462 40.636 384.365 40.363 Q 384.304 40.187 384.247 40.02 Q 384.189 39.853 384.137 39.704 Q 384.093 39.563 384.049 39.436 Q 384.005 39.309 383.961 39.185 Q 383.882 38.931 383.798 38.676 Q 383.715 38.421 383.627 38.148 Q 383.583 38.025 383.535 37.876 Q 383.486 37.726 383.434 37.559 Q 383.407 37.472 383.394 37.423 Q 383.381 37.375 383.363 37.327 Q 383.346 37.278 383.324 37.217 Q 383.302 37.155 383.267 37.041 Q 383.17 37.331 383.086 37.577 Q 383.003 37.823 382.933 38.034 Q 382.915 38.087 382.906 38.131 Q 382.897 38.175 382.88 38.219 Q 382.836 38.368 382.788 38.5 Q 382.739 38.632 382.695 38.764 Q 382.651 38.904 382.607 39.036 Q 382.563 39.168 382.52 39.291 Q 382.432 39.555 382.339 39.845 Q 382.247 40.135 382.133 40.451 Q 382.019 40.767 381.896 41.132 Q 381.772 41.497 381.579 42.051 Z M 382.607 30.185 Q 382.537 30.185 382.515 30.137 Q 382.493 30.089 382.52 30.027 L 384.356 27.461 Q 384.392 27.408 384.444 27.408 L 386.378 27.408 Q 386.448 27.408 386.479 27.47 Q 386.51 27.531 386.457 27.584 L 384.031 30.15 Q 384.022 30.159 383.996 30.172 Q 383.97 30.185 383.952 30.185 Z M 381.755 30.449 Q 381.966 31.495 383.249 31.504 Q 384.585 31.486 384.646 30.449 L 385.912 30.449 Q 385.912 31.02 385.706 31.412 Q 385.499 31.803 385.139 32.163 Q 384.427 32.84 383.293 32.857 Q 382.089 32.84 381.324 32.181 Q 380.973 31.829 380.779 31.495 Q 380.586 31.161 380.577 30.449 Z M 398.802 43.07 Q 398.855 43.07 398.89 43.11 Q 398.925 43.149 398.908 43.202 Q 398.539 44.995 397.273 45.962 Q 396.658 46.428 395.937 46.665 Q 395.216 46.902 394.381 46.902 Q 392.861 46.902 391.824 46.173 Q 390.804 45.452 390.347 44.591 Q 390.189 44.292 390.075 43.989 Q 389.96 43.685 389.899 43.351 Q 389.785 42.701 389.785 40.398 Q 389.785 39.247 389.811 38.517 Q 389.837 37.788 389.899 37.454 Q 389.96 37.12 390.075 36.812 Q 390.189 36.505 390.347 36.206 Q 390.804 35.353 391.824 34.624 Q 392.852 33.886 394.381 33.886 Q 396.209 33.886 397.405 35.011 Q 398.618 36.144 398.908 37.7 Q 398.925 37.753 398.89 37.788 Q 398.855 37.823 398.802 37.823 L 396.789 37.823 Q 396.71 37.823 396.693 37.753 Q 396.579 37.401 396.368 37.098 Q 396.157 36.795 395.849 36.531 Q 395.269 36.013 394.381 36.013 Q 393.722 36.013 393.256 36.276 Q 392.79 36.54 392.509 36.883 Q 392.342 37.094 392.219 37.362 Q 392.096 37.63 392.026 37.911 Q 391.956 38.21 391.929 38.834 Q 391.903 39.458 391.903 40.398 Q 391.903 41.356 391.929 41.976 Q 391.956 42.596 392.026 42.894 Q 392.096 43.167 392.224 43.435 Q 392.351 43.703 392.509 43.905 Q 392.79 44.274 393.256 44.534 Q 393.722 44.793 394.381 44.793 Q 395.902 44.793 396.693 43.132 Q 396.71 43.114 396.737 43.092 Q 396.763 43.07 396.789 43.07 Z M 408.719 41.673 Q 408.614 41.673 408.614 41.567 L 408.614 39.757 Q 408.614 39.66 408.719 39.66 L 413.193 39.66 Q 413.299 39.66 413.299 39.757 L 413.299 42.323 Q 413.299 44.266 411.963 45.575 Q 410.609 46.902 408.702 46.902 Q 407.181 46.902 406.144 46.173 Q 405.125 45.452 404.668 44.591 L 404.677 44.591 Q 404.51 44.292 404.395 43.989 Q 404.281 43.685 404.219 43.351 Q 404.167 43.017 404.136 42.284 Q 404.105 41.55 404.105 40.398 Q 404.105 39.247 404.136 38.517 Q 404.167 37.788 404.219 37.454 Q 404.281 37.12 404.395 36.812 Q 404.51 36.505 404.677 36.206 L 404.668 36.206 Q 405.125 35.353 406.144 34.624 Q 407.173 33.886 408.702 33.886 Q 410.53 33.886 411.725 35.011 Q 412.938 36.136 413.228 37.7 Q 413.246 37.753 413.211 37.788 Q 413.176 37.823 413.123 37.823 L 411.11 37.823 Q 411.031 37.823 411.013 37.753 Q 410.899 37.401 410.688 37.098 Q 410.477 36.795 410.17 36.531 Q 409.59 36.013 408.702 36.013 Q 408.043 36.013 407.577 36.276 Q 407.111 36.54 406.83 36.883 Q 406.663 37.094 406.54 37.362 Q 406.417 37.63 406.346 37.911 Q 406.276 38.21 406.25 38.834 Q 406.223 39.458 406.223 40.398 Q 406.223 41.356 406.25 41.976 Q 406.276 42.596 406.346 42.894 Q 406.417 43.167 406.544 43.435 Q 406.672 43.703 406.83 43.905 Q 407.111 44.274 407.577 44.534 Q 408.043 44.793 408.702 44.793 Q 409.748 44.793 410.46 44.081 Q 411.18 43.369 411.18 42.218 L 411.18 41.673 Z M 415.581 46.797 Q 415.476 46.797 415.476 46.691 L 415.476 34.097 Q 415.476 33.991 415.581 33.991 L 417.489 33.991 Q 417.594 33.991 417.594 34.097 L 417.594 46.691 Q 417.594 46.797 417.489 46.797 Z M 419.007 46.788 Q 418.946 46.788 418.919 46.744 Q 418.893 46.7 418.91 46.647 L 423.516 34.044 Q 423.533 33.974 423.604 33.974 L 425.177 33.974 Q 425.203 33.974 425.234 33.996 Q 425.265 34.017 425.274 34.044 L 429.87 46.647 Q 429.888 46.7 429.862 46.744 Q 429.835 46.788 429.783 46.788 L 427.77 46.788 Q 427.699 46.788 427.682 46.718 L 426.733 43.94 L 422.092 43.94 Q 421.846 44.652 421.604 45.333 Q 421.363 46.015 421.116 46.718 Q 421.108 46.744 421.077 46.766 Q 421.046 46.788 421.02 46.788 Z M 426.1 42.051 Q 426.082 41.989 426.052 41.919 Q 426.021 41.849 426.003 41.796 Q 425.854 41.365 425.731 41 Q 425.608 40.636 425.511 40.363 Q 425.449 40.187 425.392 40.02 Q 425.335 39.853 425.283 39.704 Q 425.239 39.563 425.195 39.436 Q 425.151 39.309 425.107 39.185 Q 425.028 38.931 424.944 38.676 Q 424.861 38.421 424.773 38.148 Q 424.729 38.025 424.68 37.876 Q 424.632 37.726 424.579 37.559 Q 424.553 37.472 424.54 37.423 Q 424.527 37.375 424.509 37.327 Q 424.491 37.278 424.47 37.217 Q 424.448 37.155 424.412 37.041 Q 424.316 37.331 424.232 37.577 Q 424.149 37.823 424.078 38.034 Q 424.061 38.087 424.052 38.131 Q 424.043 38.175 424.026 38.219 Q 423.982 38.368 423.933 38.5 Q 423.885 38.632 423.841 38.764 Q 423.797 38.904 423.753 39.036 Q 423.709 39.168 423.665 39.291 Q 423.577 39.555 423.485 39.845 Q 423.393 40.135 423.279 40.451 Q 423.164 40.767 423.041 41.132 Q 422.918 41.497 422.725 42.051 Z M 431.463 46.797 Q 431.358 46.797 431.358 46.691 L 431.358 34.097 Q 431.358 33.991 431.463 33.991 L 433.274 33.991 Q 433.327 33.991 433.362 34.044 L 438.899 42.763 L 438.899 34.097 Q 438.899 33.991 439.004 33.991 L 440.92 33.991 Q 441.026 33.991 441.026 34.097 L 441.026 46.691 Q 441.026 46.797 440.92 46.797 L 439.119 46.797 Q 439.066 46.797 439.031 46.744 L 433.476 38.025 L 433.476 46.691 Q 433.476 46.797 433.379 46.797 Z M 447.852 41.673 Q 447.747 41.673 447.747 41.567 L 447.747 39.757 Q 447.747 39.66 447.852 39.66 L 452.326 39.66 Q 452.432 39.66 452.432 39.757 L 452.432 42.323 Q 452.432 44.266 451.096 45.575 Q 449.742 46.902 447.835 46.902 Q 446.314 46.902 445.277 46.173 Q 444.258 45.452 443.801 44.591 L 443.809 44.591 Q 443.642 44.292 443.528 43.989 Q 443.414 43.685 443.352 43.351 Q 443.3 43.017 443.269 42.284 Q 443.238 41.55 443.238 40.398 Q 443.238 39.247 443.269 38.517 Q 443.3 37.788 443.352 37.454 Q 443.414 37.12 443.528 36.812 Q 443.642 36.505 443.809 36.206 L 443.801 36.206 Q 444.258 35.353 445.277 34.624 Q 446.306 33.886 447.835 33.886 Q 449.663 33.886 450.858 35.011 Q 452.071 36.136 452.361 37.7 Q 452.379 37.753 452.344 37.788 Q 452.308 37.823 452.256 37.823 L 450.243 37.823 Q 450.164 37.823 450.146 37.753 Q 450.032 37.401 449.821 37.098 Q 449.61 36.795 449.303 36.531 Q 448.723 36.013 447.835 36.013 Q 447.176 36.013 446.71 36.276 Q 446.244 36.54 445.963 36.883 Q 445.796 37.094 445.673 37.362 Q 445.55 37.63 445.479 37.911 Q 445.409 38.21 445.383 38.834 Q 445.356 39.458 445.356 40.398 Q 445.356 41.356 445.383 41.976 Q 445.409 42.596 445.479 42.894 Q 445.55 43.167 445.677 43.435 Q 445.805 43.703 445.963 43.905 Q 446.244 44.274 446.71 44.534 Q 447.176 44.793 447.835 44.793 Q 448.881 44.793 449.593 44.081 Q 450.313 43.369 450.313 42.218 L 450.313 41.673 Z" transform="matrix(1.310387, 0, 0, 1.310387, -59.698296, -1.169035)" style="fill: rgb(255, 255, 255);"/>
    <path transform="matrix(1.310387, 0, 0, 1.310387, -59.698296, -1.169035)" style="fill: rgb(255, 255, 255);"/>
    <path d="M 370.228 72.357 Q 370.123 72.357 370.123 72.251 L 370.123 59.657 Q 370.123 59.551 370.228 59.551 L 372.135 59.551 Q 372.241 59.551 372.241 59.657 L 372.241 70.353 L 378.279 70.353 Q 378.384 70.353 378.384 70.458 L 378.384 72.251 Q 378.384 72.357 378.279 72.357 Z M 378.986 72.348 Q 378.924 72.348 378.898 72.304 Q 378.872 72.26 378.889 72.207 L 383.495 59.604 Q 383.512 59.534 383.583 59.534 L 385.156 59.534 Q 385.182 59.534 385.213 59.556 Q 385.244 59.577 385.252 59.604 L 389.849 72.207 Q 389.867 72.26 389.84 72.304 Q 389.814 72.348 389.761 72.348 L 387.749 72.348 Q 387.678 72.348 387.661 72.278 L 386.711 69.5 L 382.071 69.5 Q 381.825 70.212 381.583 70.893 Q 381.341 71.575 381.095 72.278 Q 381.086 72.304 381.056 72.326 Q 381.025 72.348 380.999 72.348 Z M 386.079 67.611 Q 386.061 67.549 386.03 67.479 Q 386 67.409 385.982 67.356 Q 385.833 66.925 385.709 66.56 Q 385.586 66.196 385.49 65.923 Q 385.428 65.747 385.371 65.58 Q 385.314 65.413 385.261 65.264 Q 385.217 65.123 385.173 64.996 Q 385.129 64.868 385.085 64.745 Q 385.006 64.491 384.923 64.236 Q 384.839 63.981 384.751 63.708 Q 384.708 63.585 384.659 63.436 Q 384.611 63.286 384.558 63.119 Q 384.532 63.032 384.519 62.983 Q 384.505 62.935 384.488 62.887 Q 384.47 62.838 384.448 62.777 Q 384.426 62.715 384.391 62.601 Q 384.294 62.891 384.211 63.137 Q 384.127 63.383 384.057 63.594 Q 384.04 63.647 384.031 63.691 Q 384.022 63.735 384.004 63.779 Q 383.96 63.928 383.912 64.06 Q 383.864 64.192 383.82 64.324 Q 383.776 64.464 383.732 64.596 Q 383.688 64.728 383.644 64.851 Q 383.556 65.115 383.464 65.405 Q 383.372 65.695 383.257 66.011 Q 383.143 66.327 383.02 66.692 Q 382.897 67.057 382.704 67.611 Z M 383.521 75.82 Q 383.424 75.82 383.424 75.723 L 383.424 74.027 Q 383.424 73.93 383.521 73.93 L 385.226 73.93 Q 385.314 73.93 385.314 74.027 L 385.314 75.723 Q 385.314 75.82 385.226 75.82 Z M 391.442 72.357 Q 391.337 72.357 391.337 72.251 L 391.337 59.657 Q 391.337 59.551 391.442 59.551 L 393.253 59.551 Q 393.305 59.551 393.341 59.604 L 398.878 68.323 L 398.878 59.657 Q 398.878 59.551 398.983 59.551 L 400.899 59.551 Q 401.005 59.551 401.005 59.657 L 401.005 72.251 Q 401.005 72.357 400.899 72.357 L 399.097 72.357 Q 399.045 72.357 399.009 72.304 L 393.455 63.585 L 393.455 72.251 Q 393.455 72.357 393.358 72.357 Z M 407.831 67.233 Q 407.726 67.233 407.726 67.127 L 407.726 65.317 Q 407.726 65.22 407.831 65.22 L 412.305 65.22 Q 412.41 65.22 412.41 65.317 L 412.41 67.883 Q 412.41 69.826 411.074 71.135 Q 409.721 72.462 407.814 72.462 Q 406.293 72.462 405.256 71.733 Q 404.236 71.012 403.779 70.151 L 403.788 70.151 Q 403.621 69.852 403.507 69.549 Q 403.393 69.245 403.331 68.911 Q 403.278 68.577 403.248 67.844 Q 403.217 67.11 403.217 65.958 Q 403.217 64.807 403.248 64.077 Q 403.278 63.348 403.331 63.014 Q 403.393 62.68 403.507 62.372 Q 403.621 62.065 403.788 61.766 L 403.779 61.766 Q 404.236 60.913 405.256 60.184 Q 406.284 59.446 407.814 59.446 Q 409.642 59.446 410.837 60.571 Q 412.05 61.696 412.34 63.26 Q 412.357 63.313 412.322 63.348 Q 412.287 63.383 412.234 63.383 L 410.222 63.383 Q 410.143 63.383 410.125 63.313 Q 410.011 62.961 409.8 62.658 Q 409.589 62.355 409.281 62.091 Q 408.701 61.573 407.814 61.573 Q 407.154 61.573 406.689 61.836 Q 406.223 62.1 405.941 62.443 Q 405.774 62.654 405.651 62.922 Q 405.528 63.19 405.458 63.471 Q 405.388 63.77 405.361 64.394 Q 405.335 65.018 405.335 65.958 Q 405.335 66.916 405.361 67.536 Q 405.388 68.156 405.458 68.454 Q 405.528 68.727 405.656 68.995 Q 405.783 69.263 405.941 69.465 Q 406.223 69.834 406.689 70.094 Q 407.154 70.353 407.814 70.353 Q 408.859 70.353 409.571 69.641 Q 410.292 68.929 410.292 67.778 L 410.292 67.233 Z M 419.117 69.122 Q 419.143 69.087 419.187 69.087 Q 419.231 69.087 419.266 69.114 Q 419.96 69.676 420.861 70.014 Q 421.762 70.353 422.764 70.353 Q 423.889 70.353 424.539 69.887 Q 425.155 69.439 425.155 68.701 Q 425.155 67.312 423.599 67.101 L 423.608 67.101 Q 423.388 67.075 423.19 67.048 Q 422.993 67.022 422.795 66.995 Q 422.597 66.969 422.391 66.938 Q 422.184 66.908 421.938 66.872 Q 421.112 66.758 420.466 66.455 Q 419.82 66.152 419.38 65.651 Q 418.941 65.141 418.721 64.539 Q 418.501 63.937 418.501 63.225 Q 418.501 61.555 419.609 60.509 Q 420.725 59.446 422.711 59.446 Q 423.3 59.446 423.858 59.547 Q 424.416 59.648 424.939 59.824 Q 425.462 59.999 425.941 60.241 Q 426.42 60.483 426.86 60.773 Q 426.948 60.834 426.886 60.922 L 425.823 62.495 Q 425.761 62.575 425.682 62.522 Q 424.997 62.091 424.223 61.832 Q 423.45 61.573 422.623 61.573 Q 422.202 61.573 421.841 61.674 Q 421.481 61.775 421.191 62.003 Q 420.62 62.416 420.62 63.26 Q 420.62 63.743 421.006 64.201 Q 421.2 64.411 421.525 64.556 Q 421.85 64.702 422.325 64.772 Q 422.58 64.816 422.922 64.864 Q 423.265 64.912 423.731 64.965 Q 425.533 65.185 426.403 66.292 Q 427.273 67.373 427.273 68.701 Q 427.273 70.476 426.034 71.478 Q 424.786 72.462 422.747 72.462 Q 419.872 72.462 417.86 70.704 Q 417.825 70.678 417.825 70.634 Q 417.825 70.59 417.851 70.555 Z M 430.957 65.958 Q 430.957 66.916 430.983 67.536 Q 431.01 68.156 431.08 68.454 Q 431.15 68.727 431.278 68.995 Q 431.405 69.263 431.563 69.465 Q 431.845 69.834 432.31 70.094 Q 432.776 70.353 433.435 70.353 Q 434.086 70.353 434.552 70.094 Q 435.018 69.834 435.29 69.465 Q 435.659 69.017 435.773 68.454 Q 435.914 67.892 435.914 65.958 Q 435.914 65 435.879 64.381 Q 435.844 63.761 435.773 63.471 Q 435.712 63.19 435.589 62.922 Q 435.466 62.654 435.299 62.443 Q 435.167 62.276 434.978 62.118 Q 434.789 61.959 434.552 61.841 Q 434.314 61.722 434.033 61.647 Q 433.752 61.573 433.435 61.573 Q 432.776 61.573 432.31 61.836 Q 431.845 62.1 431.563 62.443 Q 431.396 62.654 431.273 62.922 Q 431.15 63.19 431.08 63.471 Q 431.01 63.77 430.983 64.394 Q 430.957 65.018 430.957 65.958 Z M 438.12 57.899 Q 438.19 57.96 438.252 58.022 Q 438.832 58.628 438.85 59.604 Q 438.885 60.79 437.786 61.537 Q 437.61 61.617 437.426 61.687 Q 437.443 61.722 437.47 61.766 Q 437.795 62.364 437.909 63.014 Q 437.971 63.348 438.001 64.077 Q 438.032 64.807 438.032 65.958 Q 438.032 68.217 437.909 68.911 Q 437.848 69.254 437.738 69.562 Q 437.628 69.869 437.478 70.151 Q 437.013 70.994 435.976 71.733 Q 434.938 72.462 433.435 72.462 Q 431.915 72.462 430.878 71.733 Q 429.858 71.012 429.401 70.151 L 429.41 70.151 Q 429.243 69.852 429.129 69.549 Q 429.015 69.245 428.953 68.911 Q 428.9 68.577 428.87 67.844 Q 428.839 67.11 428.839 65.958 Q 428.839 64.807 428.87 64.077 Q 428.9 63.348 428.953 63.014 Q 429.015 62.68 429.129 62.372 Q 429.243 62.065 429.41 61.766 L 429.401 61.766 Q 429.858 60.913 430.878 60.184 Q 431.906 59.446 433.435 59.446 Q 434.947 59.446 435.976 60.184 Q 436.362 60.465 436.67 60.755 Q 437.584 60.421 437.61 59.639 Q 437.602 59.041 437.232 58.786 Z M 440.341 72.357 Q 440.236 72.357 440.236 72.251 L 440.236 59.657 Q 440.236 59.551 440.341 59.551 L 442.152 59.551 Q 442.205 59.551 442.24 59.604 L 447.777 68.323 L 447.777 59.657 Q 447.777 59.551 447.882 59.551 L 449.798 59.551 Q 449.904 59.551 449.904 59.657 L 449.904 72.251 Q 449.904 72.357 449.798 72.357 L 447.997 72.357 Q 447.944 72.357 447.909 72.304 L 442.354 63.585 L 442.354 72.251 Q 442.354 72.357 442.257 72.357 Z" transform="matrix(1.310387, 0, 0, 1.310387, -59.698296, -1.169035)" style="fill: rgb(255, 255, 255);"/>
    <path d="M 426.152 119.118 Q 426.045 119.118 426.045 119.011 L 426.045 106.277 Q 426.045 106.17 426.152 106.17 L 434.292 106.17 Q 434.399 106.17 434.399 106.277 L 434.399 108.107 Q 434.399 108.214 434.292 108.214 L 428.187 108.214 L 428.187 111.626 L 433.377 111.626 Q 433.484 111.626 433.484 111.733 L 433.484 113.457 Q 433.484 113.555 433.377 113.555 L 428.187 113.555 L 428.187 117.092 L 434.292 117.092 Q 434.399 117.092 434.399 117.198 L 434.399 119.011 Q 434.399 119.118 434.292 119.118 Z M 442.57 119.118 Q 442.516 119.118 442.481 119.065 L 439.779 114.479 Q 439.104 115.634 438.428 116.772 Q 437.753 117.909 437.078 119.065 Q 437.042 119.118 436.989 119.118 L 434.811 119.118 Q 434.74 119.118 434.714 119.069 Q 434.687 119.02 434.723 118.958 L 438.588 112.48 Q 437.673 110.933 436.775 109.405 Q 435.878 107.876 434.971 106.33 Q 434.936 106.268 434.963 106.219 Q 434.989 106.17 435.051 106.17 L 437.238 106.17 Q 437.291 106.17 437.326 106.223 L 439.779 110.489 Q 440.392 109.422 441.005 108.361 Q 441.619 107.299 442.232 106.223 Q 442.267 106.17 442.321 106.17 L 444.507 106.17 Q 444.569 106.17 444.596 106.219 Q 444.622 106.268 444.587 106.33 L 440.97 112.48 Q 441.947 114.106 442.907 115.719 Q 443.867 117.332 444.845 118.958 Q 444.88 119.02 444.853 119.069 Q 444.827 119.118 444.756 119.118 Z M 448.146 108.214 L 448.146 112.106 L 450.91 112.106 Q 451.932 112.106 452.43 111.493 Q 452.936 110.898 452.936 110.16 Q 452.936 109.058 452.154 108.552 Q 451.648 108.214 450.839 108.214 Z M 446.111 119.118 Q 446.005 119.118 446.005 119.011 L 446.005 106.277 Q 446.005 106.17 446.111 106.17 L 450.732 106.17 Q 451.497 106.17 452.181 106.33 Q 452.874 106.49 453.656 107.094 Q 453.958 107.334 454.211 107.65 Q 454.465 107.965 454.669 108.347 Q 454.865 108.738 454.971 109.209 Q 455.078 109.68 455.078 110.213 Q 455.078 111.609 454.029 112.879 Q 452.981 114.141 450.981 114.141 L 448.146 114.141 L 448.146 119.011 Q 448.146 119.118 448.04 119.118 Z M 458.763 108.098 L 458.763 111.751 L 461.58 111.751 Q 462.611 111.751 463.127 111.182 Q 463.642 110.613 463.642 109.831 Q 463.642 109.387 463.486 109.04 Q 463.331 108.694 463.038 108.472 Q 462.78 108.294 462.438 108.196 Q 462.096 108.098 461.696 108.098 Z M 456.728 119.118 Q 456.621 119.118 456.621 119.011 L 456.621 106.277 Q 456.621 106.17 456.728 106.17 L 461.714 106.17 Q 462.54 106.17 463.207 106.397 Q 463.873 106.623 464.371 107.041 Q 464.628 107.281 464.864 107.587 Q 465.099 107.894 465.282 108.249 Q 465.464 108.605 465.57 109.005 Q 465.677 109.405 465.677 109.831 Q 465.677 110.462 465.499 111.027 Q 465.322 111.591 465.002 112.08 Q 464.673 112.533 464.237 112.875 Q 463.802 113.217 463.251 113.422 Q 463.971 114.799 464.699 116.19 Q 465.428 117.58 466.148 118.958 Q 466.175 119.02 466.148 119.069 Q 466.121 119.118 466.059 119.118 L 463.766 119.118 Q 463.74 119.118 463.713 119.096 Q 463.686 119.073 463.669 119.056 L 461.065 113.679 L 458.763 113.679 L 458.763 119.011 Q 458.763 119.118 458.657 119.118 Z M 467.654 119.118 Q 467.548 119.118 467.548 119.011 L 467.548 106.277 Q 467.548 106.17 467.654 106.17 L 475.795 106.17 Q 475.901 106.17 475.901 106.277 L 475.901 108.107 Q 475.901 108.214 475.795 108.214 L 469.689 108.214 L 469.689 111.626 L 474.879 111.626 Q 474.986 111.626 474.986 111.733 L 474.986 113.457 Q 474.986 113.555 474.879 113.555 L 469.689 113.555 L 469.689 117.092 L 475.795 117.092 Q 475.901 117.092 475.901 117.198 L 475.901 119.011 Q 475.901 119.118 475.795 119.118 Z M 477.673 115.848 Q 477.7 115.812 477.745 115.812 Q 477.789 115.812 477.825 115.839 Q 478.527 116.407 479.437 116.75 Q 480.348 117.092 481.361 117.092 Q 482.499 117.092 483.157 116.621 Q 483.779 116.167 483.779 115.421 Q 483.779 114.017 482.206 113.804 L 482.215 113.804 Q 481.992 113.777 481.792 113.75 Q 481.592 113.724 481.393 113.697 Q 481.193 113.67 480.984 113.639 Q 480.775 113.608 480.526 113.573 Q 479.691 113.457 479.038 113.15 Q 478.384 112.844 477.94 112.337 Q 477.496 111.822 477.274 111.213 Q 477.051 110.604 477.051 109.885 Q 477.051 108.196 478.171 107.139 Q 479.3 106.063 481.308 106.063 Q 481.904 106.063 482.468 106.165 Q 483.032 106.268 483.561 106.445 Q 484.09 106.623 484.574 106.868 Q 485.058 107.112 485.503 107.405 Q 485.592 107.467 485.529 107.556 L 484.454 109.147 Q 484.392 109.227 484.312 109.174 Q 483.619 108.738 482.837 108.476 Q 482.055 108.214 481.219 108.214 Q 480.793 108.214 480.428 108.316 Q 480.064 108.418 479.771 108.649 Q 479.193 109.067 479.193 109.92 Q 479.193 110.409 479.584 110.871 Q 479.78 111.084 480.108 111.231 Q 480.437 111.378 480.917 111.449 Q 481.175 111.493 481.521 111.542 Q 481.868 111.591 482.339 111.644 Q 484.161 111.866 485.041 112.986 Q 485.92 114.079 485.92 115.421 Q 485.92 117.216 484.667 118.229 Q 483.405 119.225 481.344 119.225 Q 478.438 119.225 476.403 117.447 Q 476.367 117.421 476.367 117.376 Q 476.367 117.332 476.394 117.296 Z M 487.944 115.848 Q 487.971 115.812 488.015 115.812 Q 488.06 115.812 488.095 115.839 Q 488.797 116.407 489.708 116.75 Q 490.619 117.092 491.632 117.092 Q 492.77 117.092 493.427 116.621 Q 494.049 116.167 494.049 115.421 Q 494.049 114.017 492.476 113.804 L 492.485 113.804 Q 492.263 113.777 492.063 113.75 Q 491.863 113.724 491.663 113.697 Q 491.463 113.67 491.254 113.639 Q 491.046 113.608 490.797 113.573 Q 489.961 113.457 489.308 113.15 Q 488.655 112.844 488.211 112.337 Q 487.766 111.822 487.544 111.213 Q 487.322 110.604 487.322 109.885 Q 487.322 108.196 488.442 107.139 Q 489.57 106.063 491.579 106.063 Q 492.174 106.063 492.738 106.165 Q 493.303 106.268 493.831 106.445 Q 494.36 106.623 494.845 106.868 Q 495.329 107.112 495.773 107.405 Q 495.862 107.467 495.8 107.556 L 494.725 109.147 Q 494.662 109.227 494.582 109.174 Q 493.889 108.738 493.107 108.476 Q 492.325 108.214 491.49 108.214 Q 491.063 108.214 490.699 108.316 Q 490.335 108.418 490.041 108.649 Q 489.464 109.067 489.464 109.92 Q 489.464 110.409 489.855 110.871 Q 490.05 111.084 490.379 111.231 Q 490.708 111.378 491.188 111.449 Q 491.445 111.493 491.792 111.542 Q 492.139 111.591 492.61 111.644 Q 494.431 111.866 495.311 112.986 Q 496.191 114.079 496.191 115.421 Q 496.191 117.216 494.938 118.229 Q 493.676 119.225 491.614 119.225 Q 488.708 119.225 486.673 117.447 Q 486.638 117.421 486.638 117.376 Q 486.638 117.332 486.664 117.296 Z M 500.196 119.118 Q 500.108 119.118 500.09 119.038 L 496.899 106.303 Q 496.882 106.25 496.917 106.21 Q 496.953 106.17 497.006 106.17 L 499.05 106.17 Q 499.139 106.17 499.157 106.25 L 501.076 114.95 Q 501.663 112.764 502.258 110.604 Q 502.854 108.445 503.449 106.25 Q 503.467 106.17 503.556 106.17 L 504.951 106.17 Q 505.031 106.17 505.049 106.25 L 507.43 114.95 Q 507.91 112.764 508.39 110.604 Q 508.87 108.445 509.35 106.25 Q 509.367 106.17 509.456 106.17 L 511.5 106.17 Q 511.554 106.17 511.589 106.21 Q 511.625 106.25 511.607 106.303 L 508.417 119.038 Q 508.399 119.118 508.31 119.118 L 506.701 119.118 Q 506.621 119.118 506.604 119.038 L 504.249 110.196 Q 503.662 112.426 503.076 114.621 Q 502.489 116.816 501.903 119.038 Q 501.885 119.118 501.805 119.118 Z M 511.521 119.109 Q 511.459 119.109 511.432 119.065 Q 511.406 119.02 511.423 118.967 L 516.08 106.223 Q 516.098 106.152 516.169 106.152 L 517.76 106.152 Q 517.786 106.152 517.817 106.174 Q 517.849 106.197 517.857 106.223 L 522.505 118.967 Q 522.523 119.02 522.496 119.065 Q 522.47 119.109 522.416 119.109 L 520.381 119.109 Q 520.31 119.109 520.292 119.038 L 519.333 116.23 L 514.64 116.23 Q 514.392 116.95 514.147 117.638 Q 513.903 118.327 513.654 119.038 Q 513.645 119.065 513.614 119.087 Q 513.583 119.109 513.556 119.109 Z M 518.693 114.319 Q 518.675 114.257 518.644 114.186 Q 518.613 114.115 518.595 114.061 Q 518.444 113.626 518.32 113.257 Q 518.195 112.888 518.097 112.613 Q 518.035 112.435 517.977 112.266 Q 517.92 112.097 517.866 111.946 Q 517.822 111.804 517.778 111.675 Q 517.733 111.546 517.689 111.422 Q 517.609 111.164 517.524 110.907 Q 517.44 110.649 517.351 110.373 Q 517.307 110.249 517.258 110.098 Q 517.209 109.947 517.155 109.778 Q 517.129 109.689 517.115 109.64 Q 517.102 109.591 517.084 109.542 Q 517.067 109.494 517.044 109.431 Q 517.022 109.369 516.987 109.254 Q 516.889 109.547 516.804 109.796 Q 516.72 110.045 516.649 110.258 Q 516.631 110.311 516.622 110.356 Q 516.613 110.4 516.596 110.444 Q 516.551 110.596 516.502 110.729 Q 516.453 110.862 516.409 110.995 Q 516.365 111.138 516.32 111.271 Q 516.276 111.404 516.231 111.529 Q 516.142 111.795 516.049 112.088 Q 515.956 112.382 515.84 112.702 Q 515.725 113.022 515.6 113.39 Q 515.476 113.759 515.28 114.319 Z M 525.489 119.118 Q 525.391 119.118 525.391 119.011 L 525.391 113.804 Q 524.432 111.929 523.481 110.062 Q 522.53 108.196 521.579 106.321 Q 521.552 106.259 521.579 106.214 Q 521.606 106.17 521.677 106.17 L 523.703 106.17 Q 523.73 106.17 523.756 106.192 Q 523.783 106.214 523.801 106.232 L 526.413 111.689 Q 527.071 110.311 527.715 108.96 Q 528.36 107.61 529.017 106.232 Q 529.035 106.214 529.062 106.192 Q 529.088 106.17 529.115 106.17 L 531.15 106.17 Q 531.221 106.17 531.248 106.214 Q 531.274 106.259 531.248 106.321 L 527.426 113.804 L 527.426 119.011 Q 527.426 119.118 527.32 119.118 Z" style="fill: rgb(255, 255, 255);"/>
    <path d="M 343.12 84.558 Q 343.193 84.558 343.241 84.612 Q 343.289 84.666 343.265 84.738 Q 342.76 87.189 341.03 88.51 Q 340.19 89.147 339.205 89.471 Q 338.22 89.795 337.079 89.795 Q 335.001 89.795 333.583 88.798 Q 332.19 87.813 331.565 86.636 Q 331.349 86.228 331.193 85.813 Q 331.037 85.399 330.953 84.942 Q 330.796 84.054 330.796 80.906 Q 330.796 79.333 330.833 78.336 Q 330.869 77.339 330.953 76.883 Q 331.037 76.426 331.193 76.006 Q 331.349 75.585 331.565 75.177 Q 332.19 74.012 333.583 73.015 Q 334.989 72.006 337.079 72.006 Q 339.577 72.006 341.211 73.543 Q 342.868 75.093 343.265 77.219 Q 343.289 77.291 343.241 77.339 Q 343.193 77.387 343.12 77.387 L 340.37 77.387 Q 340.262 77.387 340.238 77.291 Q 340.082 76.81 339.793 76.396 Q 339.505 75.982 339.085 75.621 Q 338.292 74.913 337.079 74.913 Q 336.178 74.913 335.541 75.273 Q 334.904 75.633 334.52 76.102 Q 334.292 76.39 334.124 76.756 Q 333.956 77.123 333.859 77.507 Q 333.763 77.916 333.727 78.768 Q 333.691 79.621 333.691 80.906 Q 333.691 82.216 333.727 83.063 Q 333.763 83.909 333.859 84.318 Q 333.956 84.69 334.13 85.057 Q 334.304 85.423 334.52 85.699 Q 334.904 86.204 335.541 86.558 Q 336.178 86.912 337.079 86.912 Q 339.157 86.912 340.238 84.642 Q 340.262 84.618 340.298 84.588 Q 340.334 84.558 340.37 84.558 Z M 348.151 89.651 Q 348.007 89.651 348.007 89.507 L 348.007 74.756 L 343.431 74.756 Q 343.286 74.756 343.286 74.612 L 343.286 72.294 Q 343.286 72.15 343.431 72.15 L 355.466 72.15 Q 355.61 72.15 355.61 72.294 L 355.61 74.612 Q 355.61 74.756 355.466 74.756 L 350.902 74.756 L 350.902 89.507 Q 350.902 89.651 350.758 89.651 Z M 355.975 89.651 Q 355.83 89.651 355.83 89.507 L 355.83 87.068 Q 355.83 86.924 355.975 86.924 L 358.425 86.924 Q 358.557 86.924 358.557 87.068 L 358.557 89.507 Q 358.557 89.651 358.425 89.651 Z M 366.923 77.327 Q 366.923 76.162 366.304 75.507 Q 365.686 74.853 364.653 74.853 Q 363.62 74.853 363.007 75.507 Q 362.394 76.162 362.394 77.327 L 362.394 84.594 Q 362.394 85.771 363.007 86.42 Q 363.62 87.068 364.653 87.068 Q 365.686 87.068 366.304 86.42 Q 366.923 85.771 366.923 84.594 Z M 359.656 77.183 Q 359.656 74.756 361.181 73.447 Q 362.695 72.114 364.653 72.114 Q 365.625 72.114 366.496 72.456 Q 367.367 72.799 368.124 73.447 Q 368.881 74.12 369.271 75.051 Q 369.661 75.982 369.661 77.183 L 369.661 84.738 Q 369.661 87.153 368.124 88.474 Q 366.61 89.795 364.653 89.795 Q 362.695 89.795 361.181 88.474 Q 359.656 87.165 359.656 84.738 Z M 374.697 89.687 Q 374.553 89.687 374.553 89.543 L 374.553 75.273 Q 374.001 75.681 373.448 76.096 Q 372.896 76.51 372.343 76.907 Q 372.259 76.967 372.187 76.925 Q 372.115 76.883 372.115 76.786 L 372.115 74.18 Q 372.115 74.156 372.133 74.12 Q 372.151 74.084 372.175 74.06 L 374.649 72.27 L 377.16 72.27 Q 377.304 72.27 377.304 72.414 L 377.304 89.543 Q 377.304 89.687 377.16 89.687 Z"/>
    <path d="M 394.304 191.656 Q 394.105 191.656 394.105 191.457 L 394.105 171.735 Q 393.341 172.299 392.578 172.872 Q 391.814 173.445 391.05 173.992 Q 390.934 174.075 390.835 174.017 Q 390.735 173.959 390.735 173.826 L 390.735 170.224 Q 390.735 170.191 390.76 170.141 Q 390.785 170.091 390.818 170.058 L 394.238 167.584 L 397.708 167.584 Q 397.907 167.584 397.907 167.783 L 397.907 191.457 Q 397.907 191.656 397.708 191.656 Z M 411.347 174.573 Q 411.347 172.963 410.492 172.058 Q 409.637 171.153 408.209 171.153 Q 406.781 171.153 405.934 172.058 Q 405.088 172.963 405.088 174.573 L 405.088 184.617 Q 405.088 186.244 405.934 187.141 Q 406.781 188.037 408.209 188.037 Q 409.637 188.037 410.492 187.141 Q 411.347 186.244 411.347 184.617 Z M 401.303 174.374 Q 401.303 171.021 403.411 169.211 Q 405.503 167.368 408.209 167.368 Q 409.554 167.368 410.757 167.841 Q 411.961 168.315 413.007 169.211 Q 414.053 170.141 414.592 171.427 Q 415.132 172.714 415.132 174.374 L 415.132 184.817 Q 415.132 188.153 413.007 189.98 Q 410.915 191.806 408.209 191.806 Q 405.503 191.806 403.411 189.98 Q 401.303 188.17 401.303 184.817 Z M 427.666 174.573 Q 427.666 172.963 426.811 172.058 Q 425.956 171.153 424.528 171.153 Q 423.101 171.153 422.254 172.058 Q 421.407 172.963 421.407 174.573 L 421.407 184.617 Q 421.407 186.244 422.254 187.141 Q 423.101 188.037 424.528 188.037 Q 425.956 188.037 426.811 187.141 Q 427.666 186.244 427.666 184.617 Z M 417.622 174.374 Q 417.622 171.021 419.73 169.211 Q 421.822 167.368 424.528 167.368 Q 425.873 167.368 427.077 167.841 Q 428.28 168.315 429.326 169.211 Q 430.372 170.141 430.912 171.427 Q 431.451 172.714 431.451 174.374 L 431.451 184.817 Q 431.451 188.153 429.326 189.98 Q 427.234 191.806 424.528 191.806 Q 421.822 191.806 419.73 189.98 Q 417.622 188.17 417.622 184.817 Z"/>
    <path d="M 505.005 174.391 Q 505.022 172.731 505.57 171.427 Q 506.117 170.124 507.114 169.195 Q 508.06 168.331 509.239 167.858 Q 510.417 167.385 511.712 167.385 Q 514.07 167.385 515.979 168.796 Q 517.772 170.224 518.32 172.913 Q 518.353 173.013 518.286 173.079 Q 518.22 173.146 518.12 173.146 L 514.717 173.146 Q 514.584 173.146 514.534 173.029 Q 513.787 171.203 511.696 171.153 Q 508.691 171.236 508.691 174.607 L 508.691 176.566 Q 509.77 176.25 510.841 176.068 Q 511.911 175.885 512.874 175.902 Q 515.198 175.902 516.859 177.528 Q 518.452 179.205 518.436 182.692 L 518.436 184.85 Q 518.386 188.253 516.41 190.029 Q 514.551 191.789 511.712 191.872 Q 508.956 191.789 507.114 190.046 Q 505.022 188.22 505.005 184.866 Z M 508.691 184.667 Q 508.707 188.07 511.712 188.104 Q 514.651 188.087 514.767 184.667 L 514.767 182.725 Q 514.634 179.355 511.712 179.288 Q 508.707 179.371 508.691 182.725 Z M 531.129 174.573 Q 531.129 172.963 530.274 172.058 Q 529.419 171.153 527.991 171.153 Q 526.563 171.153 525.716 172.058 Q 524.87 172.963 524.87 174.573 L 524.87 184.617 Q 524.87 186.244 525.716 187.141 Q 526.563 188.037 527.991 188.037 Q 529.419 188.037 530.274 187.141 Q 531.129 186.244 531.129 184.617 Z M 521.085 174.374 Q 521.085 171.021 523.193 169.211 Q 525.285 167.368 527.991 167.368 Q 529.336 167.368 530.539 167.841 Q 531.743 168.315 532.789 169.211 Q 533.835 170.141 534.374 171.427 Q 534.914 172.714 534.914 174.374 L 534.914 184.817 Q 534.914 188.153 532.789 189.98 Q 530.697 191.806 527.991 191.806 Q 525.285 191.806 523.193 189.98 Q 521.085 188.17 521.085 184.817 Z" style="fill: rgb(255, 255, 255);"/>
  </g>
</svg>