<?xml version="1.0" encoding="UTF-8" standalone="no"?>
<svg
   sodipodi:docname="Vietnam_road_sign_I444ิ.svg"
   inkscape:version="1.2.2 (732a01da63, 2022-12-09)"
   id="svg848"
   version="1.1"
   viewBox="0 0 1701.0367 500"
   height="500mm"
   width="1701.0367mm"
   xml:space="preserve"
   xmlns:inkscape="http://www.inkscape.org/namespaces/inkscape"
   xmlns:sodipodi="http://sodipodi.sourceforge.net/DTD/sodipodi-0.dtd"
   xmlns="http://www.w3.org/2000/svg"
   xmlns:svg="http://www.w3.org/2000/svg"
   xmlns:rdf="http://www.w3.org/1999/02/22-rdf-syntax-ns#"
   xmlns:cc="http://creativecommons.org/ns#"
   xmlns:dc="http://purl.org/dc/elements/1.1/"><defs
     id="defs842"><clipPath
       clipPathUnits="userSpaceOnUse"
       id="clipPath92633"><g
         id="g92639"
         transform="matrix(0.99999998,0,0,-0.99999998,472.81977,521.37449)"><g
           id="g92637"><path
             clip-rule="nonzero"
             d="m -458.81977,519.39402 h 424 V 151.37449 h -424 z m 0,0"
             id="path92635" /></g></g></clipPath><clipPath
       clipPathUnits="userSpaceOnUse"
       id="clipPath92693"><g
         id="g92699"
         transform="matrix(0.99999998,0,0,-0.99999998,472.81977,521.37449)"><g
           id="g92697"><path
             clip-rule="nonzero"
             d="m -445.81977,519.39402 h 424 V 151.37449 h -424 z m 0,0"
             id="path92695" /></g></g></clipPath><clipPath
       clipPathUnits="userSpaceOnUse"
       id="clipPath92618"><g
         id="g92624"
         transform="matrix(0.99999998,0,0,-0.99999998,472.81977,521.37449)"><g
           id="g92622"><path
             clip-rule="nonzero"
             d="m -433.81977,519.39402 h 423 V 151.37449 h -423 z m 0,0"
             id="path92620" /></g></g></clipPath><clipPath
       clipPathUnits="userSpaceOnUse"
       id="clipPath92603"><g
         id="g92609"
         transform="matrix(0.99999998,0,0,-0.99999998,472.81977,521.37449)"><g
           id="g92607"><path
             clip-rule="nonzero"
             d="m -414.81977,519.39402 h 424 V 151.37449 h -424 z m 0,0"
             id="path92605" /></g></g></clipPath><clipPath
       clipPathUnits="userSpaceOnUse"
       id="clipPath92755"><g
         id="g92761"
         transform="matrix(0.99999998,0,0,-0.99999998,472.81977,521.37449)"><g
           id="g92759"><path
             clip-rule="nonzero"
             d="m -402.81977,519.39402 h 424 V 151.37449 h -424 z m 0,0"
             id="path92757" /></g></g></clipPath><clipPath
       clipPathUnits="userSpaceOnUse"
       id="clipPath92740"><g
         id="g92746"
         transform="matrix(0.99999998,0,0,-0.99999998,472.81977,521.37449)"><g
           id="g92744"><path
             clip-rule="nonzero"
             d="m -385.81977,519.39402 h 424 V 151.37449 h -424 z m 0,0"
             id="path92742" /></g></g></clipPath><clipPath
       clipPathUnits="userSpaceOnUse"
       id="clipPath92709"><g
         id="g92715"
         transform="matrix(0.99999998,0,0,-0.99999998,472.81977,521.37449)"><g
           id="g92713"><path
             clip-rule="nonzero"
             d="m -372.81977,519.39402 h 424 V 151.37449 h -424 z m 0,0"
             id="path92711" /></g></g></clipPath><clipPath
       clipPathUnits="userSpaceOnUse"
       id="clipPath92785"><g
         id="g92791"
         transform="matrix(0.99999998,0,0,-0.99999998,472.81977,521.37449)"><g
           id="g92789"><path
             clip-rule="nonzero"
             d="m -358.81977,519.39402 h 424 V 151.37449 h -424 z m 0,0"
             id="path92787" /></g></g></clipPath><clipPath
       clipPathUnits="userSpaceOnUse"
       id="clipPath92725"><g
         id="g92731"
         transform="matrix(0.99999998,0,0,-0.99999998,472.81977,521.37449)"><g
           id="g92729"><path
             clip-rule="nonzero"
             d="m -345.81977,519.39402 h 424 V 151.37449 h -424 z m 0,0"
             id="path92727" /></g></g></clipPath><clipPath
       clipPathUnits="userSpaceOnUse"
       id="clipPath92770"><g
         id="g92776"
         transform="matrix(0.99999998,0,0,-0.99999998,472.81977,521.37449)"><g
           id="g92774"><path
             clip-rule="nonzero"
             d="m -333.81977,519.39402 h 424 V 151.37449 h -424 z m 0,0"
             id="path92772" /></g></g></clipPath></defs><sodipodi:namedview
     inkscape:document-rotation="0"
     inkscape:measure-end="0,0"
     inkscape:measure-start="0,0"
     showguides="true"
     fit-margin-bottom="0"
     fit-margin-right="0"
     fit-margin-left="0"
     fit-margin-top="0"
     inkscape:window-maximized="1"
     inkscape:window-y="-9"
     inkscape:window-x="-9"
     inkscape:window-height="991"
     inkscape:window-width="1920"
     inkscape:snap-global="false"
     showgrid="false"
     inkscape:current-layer="g90281"
     inkscape:document-units="mm"
     inkscape:cy="1693.3038"
     inkscape:cx="2407.4863"
     inkscape:zoom="0.13021881"
     inkscape:pageshadow="2"
     inkscape:pageopacity="0.0"
     borderopacity="1.0"
     bordercolor="#666666"
     pagecolor="#ffffff"
     id="base"
     inkscape:showpageshadow="2"
     inkscape:pagecheckerboard="0"
     inkscape:deskcolor="#d1d1d1" /><metadata
     id="metadata845"><rdf:RDF><cc:Work
         rdf:about=""><dc:format>image/svg+xml</dc:format><dc:type
           rdf:resource="http://purl.org/dc/dcmitype/StillImage" /></cc:Work></rdf:RDF></metadata><g
     transform="translate(-530.52646,11.947886)"
     id="layer1"
     inkscape:groupmode="layer"
     inkscape:label="Layer 1"><path
       inkscape:connector-curvature="0"
       d=""
       style="opacity:1;fill:#d35f5f;fill-opacity:1;fill-rule:nonzero;stroke:none;stroke-width:3.92256;stroke-linecap:butt;stroke-linejoin:miter;stroke-miterlimit:4;stroke-dasharray:none;stroke-opacity:1;paint-order:stroke fill markers"
       id="path8376"
       r="150"
       cy="147"
       cx="150" /><g
       inkscape:groupmode="layer"
       transform="translate(-4496.0426,2396.6803)"
       id="text3577"
       style="font-style:normal;font-variant:normal;font-weight:bold;font-stretch:normal;font-size:299.854px;line-height:0;font-family:Giaothong1;-inkscape-font-specification:'Giaothong1 Bold';letter-spacing:0px;word-spacing:0px;fill:#ffcc00;fill-opacity:1;stroke:none;stroke-width:1.56174"
       aria-label="VỊNH"><g
         id="text3665"
         style="font-style:normal;font-variant:normal;font-weight:bold;font-stretch:normal;font-size:299.854px;line-height:0;font-family:Giaothong1;-inkscape-font-specification:'Giaothong1 Bold';letter-spacing:-2.78077px;word-spacing:0px;fill:#ffcc00;fill-opacity:1;stroke:none;stroke-width:2.43903"
         aria-label="VỊNH" /></g><g
       inkscape:groupmode="layer"
       id="text2719"
       style="font-style:normal;font-variant:normal;font-weight:bold;font-stretch:normal;font-size:184.173px;line-height:0;font-family:Giaothong1;-inkscape-font-specification:'Giaothong1 Bold';letter-spacing:0px;word-spacing:0.486833px;fill:#ffffff;fill-opacity:1;stroke:none;stroke-width:0.959232"
       aria-label="CÔNG TRƯỜNG"><g
         inkscape:groupmode="layer"
         id="text2888"
         style="font-style:normal;font-variant:normal;font-weight:bold;font-stretch:normal;font-size:187.408px;line-height:0;font-family:Giaothong1;-inkscape-font-specification:'Giaothong1 Bold';letter-spacing:0.00264583px;word-spacing:0px;fill:#ffffff;fill-opacity:1;stroke:none;stroke-width:0.936293"
         aria-label="AHEAD"><g
           inkscape:groupmode="layer"
           id="text2903"
           style="font-style:normal;font-variant:normal;font-weight:bold;font-stretch:normal;font-size:184.173px;line-height:0;font-family:Giaothong1;-inkscape-font-specification:'Giaothong1 Bold';letter-spacing:0.00529167px;word-spacing:0px;fill:#ffffff;fill-opacity:1;stroke:none;stroke-width:0.898123"
           aria-label="WORKS"><path
             d="m 708.33916,-11.947699 1523.22404,-1.87e-4 V 488.05211 H 708.33916 L 530.52646,238.0523 Z"
             style="opacity:1;fill:#0046aa;fill-opacity:1;fill-rule:nonzero;stroke:none;stroke-width:1.27163;stroke-linecap:butt;stroke-linejoin:miter;stroke-miterlimit:10;stroke-dasharray:none;stroke-opacity:1;paint-order:stroke fill markers"
             id="rect1393"
             sodipodi:nodetypes="cccccc" /><path
             id="rect1395"
             style="opacity:1;fill:#ffffff;fill-opacity:1;fill-rule:nonzero;stroke:none;stroke-width:1.22924;stroke-linecap:butt;stroke-linejoin:miter;stroke-miterlimit:10;stroke-dasharray:none;stroke-opacity:1;paint-order:stroke fill markers"
             d="M 710.47731,-3.6148361 540.46021,238.0523 710.47731,479.72219 H 2223.2254 V -3.6148361 Z m 8.3265,8.33846 h 68.59 V 471.38374 h -68.59 L 554.2984,238.0523 Z m 536.58179,0 h 959.5132 V 471.38374 h -959.5132 z"
             sodipodi:nodetypes="ccccccccccccccccc" /><g
             id="g71683"
             transform="translate(-84.093397,-614.59523)" /><g
             id="g90281"
             transform="matrix(17.976796,0,0,17.976796,-23169.233,-23050.388)"><g
               id="use10478"
               style="fill:#ffffff;fill-opacity:1"
               transform="matrix(0.35277777,0,0,0.35277777,1361.0486,1293.2596)"><path
                 d="m 1.632813,0.0117188 c -0.085938,0 -0.125,-0.0429688 -0.125,-0.1249998 V -14.90625 c 0,-0.08594 0.039062,-0.125 0.125,-0.125 h 5.738281 c 1.449219,0 2.566406,0.386719 3.34375,1.167969 0.769531,0.761718 1.15625,1.738281 1.15625,2.929687 0,0.652344 -0.148438,1.261719 -0.453125,1.816406 -0.273438,0.523438 -0.785156,0.976563 -1.539063,1.363282 0.691407,0.21875 1.230469,0.640625 1.613282,1.269531 0.195312,0.339844 0.351562,0.699219 0.457031,1.058594 0.105469,0.363281 0.160156,0.734375 0.160156,1.121093 0,1.3125 -0.421875,2.363282 -1.269531,3.148438 -0.835938,0.773437 -1.828125,1.1679688 -2.960938,1.1679688 H 1.632813 M 3.996094,-6.554688 v 4.210938 h 3.335937 c 0.773438,0 1.351563,-0.207031 1.734375,-0.628906 0.371094,-0.417969 0.554688,-0.910157 0.554688,-1.476563 0,-0.546875 -0.183594,-1.039062 -0.554688,-1.464844 -0.359375,-0.425781 -0.9375,-0.640625 -1.734375,-0.640625 H 3.996094 m 0,-6.238281 v 3.996094 H 7.125 c 0.773438,0 1.339844,-0.191406 1.703125,-0.578125 0.371094,-0.375 0.558594,-0.847656 0.558594,-1.414063 0,-0.558593 -0.1875,-1.019531 -0.558594,-1.402343 C 8.457031,-12.589844 7.886719,-12.792969 7.125,-12.792969 H 3.996094"
                 id="path90179" /></g><g
               id="use10484"
               style="fill:#ffffff;fill-opacity:1"
               transform="matrix(0.35277777,0,0,0.35277777,1365.6002,1293.2596)"><path
                 d="m 1.632813,0.0117188 c -0.085938,0 -0.125,-0.0429688 -0.125,-0.1249998 V -14.90625 c 0,-0.08594 0.039062,-0.125 0.125,-0.125 h 9.457031 c 0.08203,0 0.121094,0.03906 0.121094,0.125 v 2.125 c 0,0.08203 -0.03906,0.125 -0.121094,0.125 h -7.09375 v 3.964844 h 6.027344 c 0.08594,0 0.125,0.039062 0.125,0.121093 v 2.003907 c 0,0.074218 -0.03906,0.113281 -0.125,0.113281 H 3.996094 v 4.109375 h 7.09375 c 0.08203,0 0.121094,0.042969 0.121094,0.125 v 2.105469 c 0,0.082031 -0.03906,0.1249998 -0.121094,0.1249998 H 1.632813 m 1,-16.3749998 c -0.0625,0 -0.097657,-0.02734 -0.113282,-0.08203 -0.011718,-0.05078 0,-0.09766 0.039063,-0.136718 l 3.039062,-2.402344 h 1.390625 l 3.078125,2.402344 c 0.04687,0.03125 0.06641,0.07813 0.04687,0.136718 -0.01563,0.05078 -0.05859,0.08203 -0.121093,0.08203 h -1.73437 l -2.0625,-1.113282 c -0.300782,0.183594 -0.609375,0.371094 -0.917969,0.554688 -0.3125,0.1875 -0.617188,0.371094 -0.921875,0.558594 H 2.632813 m 5.914062,-1.507813 c -0.050781,0 -0.085937,-0.01563 -0.105469,-0.05469 -0.015625,-0.03906 -0.015625,-0.07813 0.00391,-0.128907 l 2.15625,-3.015625 c 0.02734,-0.04297 0.0625,-0.0625 0.105468,-0.0625 h 2.269532 c 0.05078,0 0.09375,0.01953 0.121093,0.07031 0.01953,0.04687 0.01563,0.09375 -0.02734,0.136719 l -2.847657,3.015625 c -0.0078,0.0039 -0.02344,0.01563 -0.04297,0.02344 -0.01953,0.01172 -0.03516,0.01563 -0.05078,0.01563 H 8.546875"
                 id="path90147" /></g><g
               id="use10490"
               style="fill:#ffffff;fill-opacity:1"
               transform="matrix(0.35277777,0,0,0.35277777,1369.7722,1293.2596)"><path
                 d="m 1.632813,0.0117188 c -0.085938,0 -0.125,-0.0429688 -0.125,-0.1249998 V -14.90625 c 0,-0.08594 0.039062,-0.125 0.125,-0.125 h 2.125 c 0.042968,0 0.074218,0.01953 0.101562,0.0625 l 6.507813,10.242187 V -14.90625 c 0,-0.08594 0.03906,-0.125 0.121093,-0.125 h 2.25 c 0.08594,0 0.125,0.03906 0.125,0.125 v 14.792969 c 0,0.082031 -0.03906,0.1249998 -0.125,0.1249998 H 10.625 c -0.04297,0 -0.07422,-0.0234376 -0.105469,-0.0625001 L 3.996094,-10.292969 v 10.179688 c 0,0.082031 -0.035156,0.1249998 -0.113281,0.1249998 h -2.25"
                 id="path90155" /></g><g
               id="use10502"
               style="fill:#ffffff;fill-opacity:1"
               transform="matrix(0.35277777,0,0,0.35277777,1376.6861,1293.2596)"><path
                 d="m 9.15625,0.0117188 c -0.039062,0 -0.070312,-0.0234376 -0.101562,-0.0625001 L 5.914063,-5.378906 C 5.394531,-4.484375 4.871094,-3.597656 4.347656,-2.714844 3.824219,-1.835938 3.304688,-0.949219 2.777344,-0.0507813 2.75,-0.0117188 2.714844,0.0117188 2.675781,0.0117188 H 0.144531 C 0.09375,0.0117188 0.0507813,-0.00390625 0.03125,-0.046875 0.0117188,-0.0820313 0.0117188,-0.125 0.0429688,-0.175781 L 4.53125,-7.703125 c -0.707031,-1.195313 -1.410156,-2.382813 -2.105469,-3.570313 -0.691406,-1.183593 -1.394531,-2.375 -2.09375,-3.574218 -0.027343,-0.04297 -0.03125,-0.08594 -0.011718,-0.128907 0.019531,-0.03516 0.050781,-0.05469 0.101562,-0.05469 h 2.542969 c 0.039062,0 0.070312,0.01953 0.101562,0.0625 l 2.847657,4.953125 c 0.476562,-0.824219 0.953125,-1.644531 1.425781,-2.472656 0.476562,-0.820313 0.949219,-1.644532 1.425781,-2.480469 0.027344,-0.04297 0.0625,-0.0625 0.101563,-0.0625 h 2.542968 c 0.04297,0 0.08203,0.01563 0.101563,0.05469 0.01953,0.03906 0.01953,0.07813 -0.01172,0.128907 L 7.30078,-7.703125 c 0.753907,1.261719 1.503907,2.515625 2.25,3.765625 0.742188,1.25 1.492188,2.503906 2.25,3.761719 0.02734,0.046875 0.03125,0.0898435 0.01172,0.128906 -0.02344,0.0351562 -0.05859,0.0585938 -0.113281,0.0585938 H 9.15625"
                 id="path90151" /></g><g
               id="use10508"
               style="fill:#ffffff;fill-opacity:1"
               transform="matrix(0.35277777,0,0,0.35277777,1380.9005,1293.2596)"><path
                 d="m 1.632813,0.0117188 c -0.085938,0 -0.125,-0.0429688 -0.125,-0.1249998 V -14.90625 c 0,-0.08594 0.039062,-0.125 0.125,-0.125 h 9.457031 c 0.08203,0 0.121094,0.03906 0.121094,0.125 v 2.125 c 0,0.08203 -0.03906,0.125 -0.121094,0.125 h -7.09375 v 3.964844 h 6.027344 c 0.08594,0 0.125,0.039062 0.125,0.121093 v 2.003907 c 0,0.074218 -0.03906,0.113281 -0.125,0.113281 H 3.996094 v 4.109375 h 7.09375 c 0.08203,0 0.121094,0.042969 0.121094,0.125 v 2.105469 c 0,0.082031 -0.03906,0.1249998 -0.121094,0.1249998 H 1.632813"
                 id="path90131" /></g><g
               id="use10520"
               style="fill:#ffffff;fill-opacity:1"
               transform="matrix(0.35277777,0,0,0.35277777,1386.8425,1293.2596)"><path
                 d="m 1.632813,0.0117188 c -0.074219,0 -0.113282,-0.0429688 -0.113282,-0.1249998 V -14.90625 c 0,-0.08594 0.035157,-0.125 0.113282,-0.125 h 2.25 c 0.082031,0 0.125,0.03906 0.125,0.125 v 7.347656 c 0.980468,-1.242187 1.964843,-2.480469 2.949218,-3.710937 0.980469,-1.226563 1.972657,-2.460938 2.964844,-3.710938 0.03125,-0.03125 0.0625,-0.05078 0.09375,-0.05078 h 2.664063 c 0.05078,0 0.08984,0.01953 0.113281,0.07031 0.01953,0.04687 0.01563,0.09375 -0.02344,0.136719 l -4.683593,5.769531 c 0.871093,1.492188 1.738281,2.972657 2.59375,4.441407 0.859375,1.464843 1.726562,2.941406 2.609375,4.4375 0.01953,0.046875 0.02344,0.0898435 0.0039,0.128906 -0.01563,0.0351562 -0.05078,0.0585938 -0.109375,0.0585938 h -2.664063 c -0.03906,0 -0.07031,-0.0234376 -0.101562,-0.0625001 L 6.453125,-7.132813 c -0.421875,0.4375 -0.835937,0.867188 -1.230469,1.277344 -0.390625,0.414063 -0.792968,0.839844 -1.214843,1.28125 v 4.460938 c 0,0.082031 -0.042969,0.1249998 -0.125,0.1249998 h -2.25"
                 id="path90163" /></g><g
               id="use10526"
               style="fill:#ffffff;fill-opacity:1"
               transform="matrix(0.35277777,0,0,0.35277777,1391.5217,1293.2596)"><path
                 d="m 9.746094,0.0117188 c -0.082031,0 -0.125,-0.0429688 -0.125,-0.1249998 v -6.339844 h -5.625 v 6.339844 c 0,0.082031 -0.042969,0.1249998 -0.125,0.1249998 H 1.632813 c -0.085938,0 -0.125,-0.0429688 -0.125,-0.1249998 V -14.90625 c 0,-0.08594 0.039062,-0.125 0.125,-0.125 h 2.238281 c 0.082031,0 0.125,0.03906 0.125,0.125 v 6.214844 h 5.625 v -6.214844 c 0,-0.08594 0.042969,-0.125 0.125,-0.125 h 2.242187 c 0.08203,0 0.121094,0.03906 0.121094,0.125 v 14.792969 c 0,0.082031 -0.03906,0.1249998 -0.121094,0.1249998 H 9.746094"
                 id="path90183" /></g><g
               id="use10532"
               style="fill:#ffffff;fill-opacity:1"
               transform="matrix(0.35277777,0,0,0.35277777,1396.3262,1293.2596)"><path
                 d="M 0.175781,0 C 0.128906,0 0.09375,-0.015625 0.0742188,-0.0507813 0.0507813,-0.0820313 0.046875,-0.125 0.0625,-0.164063 L 5.472656,-14.96875 c 0.00781,-0.05078 0.046875,-0.08203 0.101563,-0.08203 h 1.847656 c 0.023438,0 0.042969,0.0039 0.070313,0.02344 0.019531,0.01563 0.035156,0.03516 0.042968,0.05859 L 12.9375,-0.164063 C 12.9453,-0.125 12.9453,-0.0859375 12.92578,-0.0507813 12.90625,-0.0195313 12.875,0 12.832031,0 H 10.46875 C 10.41797,0 10.38281,-0.0273438 10.367188,-0.0820313 L 9.25,-3.34375 H 3.800781 c -0.191406,0.554687 -0.382812,1.097656 -0.574218,1.636719 -0.1875,0.53125 -0.378907,1.070312 -0.574219,1.6249997 C 2.648438,-0.0625 2.632813,-0.046875 2.605469,-0.0273438 2.585938,-0.0117188 2.558594,0 2.539063,0 H 0.175781 M 8.507813,-5.566406 C 8.496094,-5.609375 8.476563,-5.664063 8.449219,-5.71875 8.429688,-5.769531 8.410156,-5.824219 8.394531,-5.863281 8.28125,-6.199219 8.171875,-6.507813 8.074219,-6.796875 7.980469,-7.082031 7.894531,-7.328125 7.816406,-7.546875 7.769531,-7.679688 7.722656,-7.816406 7.675781,-7.949219 7.636719,-8.078125 7.589844,-8.203125 7.546875,-8.320313 7.515625,-8.429688 7.480469,-8.53125 7.445313,-8.636719 7.414063,-8.734375 7.375,-8.832031 7.339844,-8.929688 7.277344,-9.125 7.214844,-9.328125 7.148438,-9.527344 7.085938,-9.726563 7.019531,-9.933594 6.949219,-10.148438 6.917969,-10.242188 6.882813,-10.351563 6.839844,-10.46875 6.804688,-10.582031 6.761719,-10.707031 6.722656,-10.839844 6.699219,-10.90625 6.683594,-10.957031 6.675781,-11 c -0.011718,-0.03516 -0.023437,-0.07422 -0.039062,-0.113281 -0.00781,-0.03516 -0.023438,-0.07813 -0.042969,-0.128907 -0.015625,-0.04687 -0.039062,-0.113281 -0.070312,-0.207031 -0.070313,0.226563 -0.144532,0.433594 -0.210938,0.628906 -0.0625,0.191407 -0.125,0.371094 -0.179687,0.539063 -0.011719,0.03906 -0.019532,0.07422 -0.03125,0.113281 -0.00391,0.03125 -0.015625,0.06641 -0.03125,0.101563 -0.03125,0.113281 -0.066407,0.226562 -0.109375,0.332031 C 5.925781,-9.632813 5.890625,-9.527344 5.855469,-9.425781 5.824219,-9.316406 5.785156,-9.210938 5.75,-9.105469 5.71875,-9.003906 5.683594,-8.90625 5.648438,-8.804688 5.582031,-8.601563 5.507813,-8.382813 5.4375,-8.15625 5.363281,-7.929688 5.285156,-7.691406 5.191406,-7.445313 5.105469,-7.195313 5.011719,-6.933594 4.914063,-6.644531 4.820313,-6.359375 4.699219,-6 4.542969,-5.566406 H 8.507813 M 4.273438,-16.363281 c -0.050782,0 -0.085938,-0.01563 -0.109375,-0.05859 -0.011719,-0.03516 -0.011719,-0.07422 0.00781,-0.128906 l 2.15625,-3.011719 c 0.027344,-0.04297 0.0625,-0.0625 0.105469,-0.0625 h 2.269531 c 0.050781,0 0.09375,0.01953 0.117188,0.07031 0.023437,0.04687 0.015625,0.09375 -0.023438,0.136719 l -2.851562,3.011719 c -0.00391,0.0078 -0.019532,0.01563 -0.039063,0.02734 -0.019531,0.01172 -0.035156,0.01563 -0.050781,0.01563 H 4.273438"
                 id="path90175" /></g><g
               id="use10538"
               style="fill:#ffffff;fill-opacity:1"
               transform="matrix(0.35277777,0,0,0.35277777,1400.9621,1293.2596)"><path
                 d="m 11.605469,-4.367188 c 0.03906,0 0.07031,0.015625 0.101562,0.046875 0.02734,0.03125 0.03516,0.066407 0.01953,0.109375 -0.289063,1.402344 -0.925782,2.480469 -1.917969,3.242188 -0.480469,0.359375 -1.003906,0.636719 -1.570313,0.824219 -0.5625,0.1874998 -1.171875,0.277344 -1.828125,0.277344 -1.1875,0 -2.1875,-0.281251 -3.003906,-0.855469 C 2.613281,-1.285156 2.035156,-1.90625 1.671875,-2.582031 1.546875,-2.8125 1.445313,-3.050781 1.351563,-3.289063 1.265625,-3.527344 1.199219,-3.773438 1.144531,-4.035156 1.058594,-4.542969 1.011719,-5.699219 1.011719,-7.503906 c 0,-0.898438 0.011719,-1.636719 0.03125,-2.210938 0.019531,-0.566406 0.050781,-0.984375 0.101562,-1.25 0.046875,-0.257812 0.113282,-0.511719 0.207032,-0.753906 0.089843,-0.238281 0.195312,-0.472656 0.320312,-0.710938 0.355469,-0.667968 0.933594,-1.285156 1.734375,-1.859375 0.804688,-0.578125 1.808594,-0.867187 3.003906,-0.867187 1.429688,0 2.613282,0.441406 3.554688,1.324219 0.949219,0.886718 1.535156,1.9375 1.761719,3.15625 0.01172,0.04297 0.01172,0.07422 -0.01953,0.105468 -0.02344,0.02344 -0.0625,0.03906 -0.101562,0.03906 h -2.36719 c -0.058593,0 -0.097656,-0.02344 -0.113281,-0.08203 -0.085937,-0.273438 -0.214844,-0.53125 -0.378906,-0.769532 -0.167969,-0.238281 -0.367188,-0.457031 -0.609375,-0.664062 -0.457031,-0.402344 -1.027344,-0.609375 -1.726563,-0.609375 -0.515625,0 -0.953125,0.101562 -1.320312,0.308594 -0.363281,0.207031 -0.65625,0.445312 -0.878906,0.710937 -0.128907,0.167969 -0.242188,0.351563 -0.339844,0.5625 -0.09375,0.207031 -0.167969,0.425781 -0.226563,0.648438 C 3.59375,-10.195313 3.550781,-9.832031 3.53125,-9.34375 3.511719,-8.859375 3.5,-8.242188 3.5,-7.503906 c 0,0.746093 0.011719,1.367187 0.03125,1.851562 0.019531,0.484375 0.054688,0.839844 0.113281,1.078125 0.050782,0.210938 0.128907,0.425781 0.230469,0.636719 0.101563,0.207031 0.214844,0.390625 0.335938,0.550781 0.21875,0.289063 0.511718,0.53125 0.878906,0.738281 0.363281,0.203125 0.804687,0.304688 1.320312,0.304688 1.1875,0 2.097657,-0.648438 2.714844,-1.949219 0.011719,-0.011719 0.03125,-0.027344 0.054688,-0.046875 0.019531,-0.015625 0.039062,-0.027344 0.058593,-0.027344 h 2.367188"
                 id="path90191" /></g><g
               id="use10544"
               style="fill:#ffffff;fill-opacity:1"
               transform="matrix(0.35277777,0,0,0.35277777,1405.0982,1293.2596)"><path
                 d="m 9.746094,0.0117188 c -0.082031,0 -0.125,-0.0429688 -0.125,-0.1249998 v -6.339844 h -5.625 v 6.339844 c 0,0.082031 -0.042969,0.1249998 -0.125,0.1249998 H 1.632813 c -0.085938,0 -0.125,-0.0429688 -0.125,-0.1249998 V -14.90625 c 0,-0.08594 0.039062,-0.125 0.125,-0.125 h 2.238281 c 0.082031,0 0.125,0.03906 0.125,0.125 v 6.214844 h 5.625 v -6.214844 c 0,-0.08594 0.042969,-0.125 0.125,-0.125 h 2.242187 c 0.08203,0 0.121094,0.03906 0.121094,0.125 v 14.792969 c 0,0.082031 -0.03906,0.1249998 -0.121094,0.1249998 H 9.746094"
                 id="path90187" /></g><g
               id="use11290"
               style="fill:#ffffff;fill-opacity:1"
               transform="matrix(0.35277777,0,0,0.35277777,1369.9407,1302.1513)"><path
                 d="m 1.363281,0.0078125 c -0.070312,0 -0.101562,-0.0351563 -0.101562,-0.1015625 v -12.371094 c 0,-0.07031 0.03125,-0.105469 0.101562,-0.105469 h 4.800782 c 1.210937,0 2.144531,0.324219 2.796875,0.976563 0.644531,0.640625 0.96875,1.453125 0.96875,2.453125 0,0.542969 -0.128907,1.050781 -0.382813,1.519531 -0.226562,0.433594 -0.65625,0.8125 -1.285156,1.136719 0.578125,0.183594 1.027344,0.535156 1.347656,1.0625 0.164063,0.285156 0.292969,0.582031 0.382813,0.886719 0.085937,0.300781 0.132812,0.613281 0.132812,0.933593 0,1.097657 -0.351562,1.980469 -1.0625,2.632813 C 8.363281,-0.320313 7.535156,0.0078125 6.585938,0.0078125 H 1.363281 M 3.339844,-5.480469 v 3.519531 h 2.789062 c 0.648438,0 1.132813,-0.171875 1.449219,-0.523437 0.3125,-0.351563 0.46875,-0.761719 0.46875,-1.234375 0,-0.460938 -0.15625,-0.871094 -0.46875,-1.226563 C 7.28125,-5.300781 6.796875,-5.480469 6.128906,-5.480469 H 3.339844 m 0,-5.214844 v 3.339844 h 2.617187 c 0.648438,0 1.121094,-0.160156 1.425782,-0.484375 0.308593,-0.3125 0.464843,-0.707031 0.464843,-1.179687 0,-0.46875 -0.15625,-0.855469 -0.464843,-1.175782 -0.3125,-0.332031 -0.789063,-0.5 -1.425782,-0.5 H 3.339844"
                 id="path90171" /></g><g
               id="use11294"
               style="fill:#ffffff;fill-opacity:1"
               transform="matrix(0.35277777,0,0,0.35277777,1373.7759,1302.1513)"><path
                 d="m 1.105469,-8.847656 c 0,-0.070313 0.035156,-0.105469 0.101562,-0.105469 H 2.96875 c 0.070313,0 0.105469,0.035156 0.105469,0.105469 V -3.625 c 0,0.574219 0.148437,1.011719 0.457031,1.320312 0.300781,0.300782 0.699219,0.457032 1.191406,0.457032 0.453125,0 0.835938,-0.152344 1.15625,-0.457032 C 6.179688,-2.605469 6.335938,-3.046875 6.335938,-3.625 v -5.222656 c 0,-0.070313 0.035156,-0.105469 0.105468,-0.105469 h 1.761719 c 0.066406,0 0.101563,0.035156 0.101563,0.105469 v 8.753906 c 0,0.0664062 -0.035157,0.1015625 -0.101563,0.1015625 H 6.441406 c -0.070312,0 -0.105468,-0.0351563 -0.105468,-0.1015625 V -0.785156 C 5.792969,-0.191406 5.058594,0.113281 4.144531,0.113281 3.4375,0.113281 2.753906,-0.152344 2.089844,-0.683594 1.433594,-1.21875 1.105469,-2 1.105469,-3.03125 v -5.816406"
                 id="path90167" /></g><g
               id="use11298"
               style="fill:#ffffff;fill-opacity:1"
               transform="matrix(0.35277777,0,0,0.35277777,1377.1053,1302.1513)"><path
                 d="m 1.398438,-2.832031 c 0.042968,-0.042969 0.085937,-0.050782 0.128906,-0.00781 0.746094,0.730469 1.644531,1.097656 2.695312,1.097656 0.46875,0 0.867188,-0.089843 1.191407,-0.269531 0.136718,-0.085937 0.246093,-0.191406 0.324218,-0.320312 0.074219,-0.125 0.113282,-0.265625 0.113282,-0.429688 0,-0.453125 -0.328125,-0.707031 -0.984375,-0.761719 L 3.316406,-3.667969 C 2.953125,-3.703125 2.617188,-3.78125 2.296875,-3.902344 1.980469,-4.023438 1.699219,-4.191406 1.449219,-4.410156 0.957031,-4.847656 0.707031,-5.460938 0.707031,-6.25 c 0,-0.917969 0.324219,-1.617188 0.976563,-2.097656 0.640625,-0.464844 1.433594,-0.699219 2.382812,-0.699219 0.386719,0 0.75,0.027344 1.082032,0.085937 0.328125,0.054688 0.640625,0.136719 0.925781,0.242188 0.285156,0.101562 0.546875,0.230469 0.792969,0.378906 0.242187,0.148438 0.480468,0.316406 0.703125,0.5 0.023437,0.019531 0.035156,0.039063 0.035156,0.070313 0,0.027343 -0.00781,0.050781 -0.027344,0.078125 L 6.492188,-6.414063 C 6.453125,-6.375 6.40625,-6.367188 6.355469,-6.398438 6.015625,-6.625 5.664063,-6.816406 5.300781,-6.960938 4.9375,-7.109375 4.527344,-7.183594 4.066406,-7.183594 c -0.535156,0 -0.902343,0.09375 -1.105468,0.277344 -0.195313,0.175781 -0.292969,0.402344 -0.292969,0.671875 0,0.164062 0.070312,0.320312 0.214844,0.46875 0.140625,0.136719 0.417968,0.222656 0.847656,0.257812 0.242187,0.015625 0.480469,0.035157 0.726562,0.050782 0.242188,0.019531 0.484375,0.035156 0.722657,0.054687 0.449218,0.023438 0.847656,0.113281 1.195312,0.269531 0.347656,0.152344 0.621094,0.355469 0.824219,0.609375 0.40625,0.519532 0.613281,1.128907 0.613281,1.839844 0,0.898438 -0.363281,1.585938 -1.097656,2.078125 -0.359375,0.234375 -0.757813,0.414063 -1.195313,0.5351565 -0.429687,0.1210938 -0.910156,0.1835935 -1.4375,0.1835935 -1.46875,0 -2.777343,-0.527344 -3.917968,-1.589844 -0.050782,-0.050781 -0.050782,-0.101562 0,-0.15625 l 1.234375,-1.199218"
                 id="path90159" /></g><g
               id="use11306"
               style="fill:#ffffff;fill-opacity:1"
               transform="matrix(0.35277777,0,0,0.35277777,1381.6165,1302.1513)"><path
                 d="m 1.441406,-3.167969 c 0.015625,-0.023437 0.039063,-0.035156 0.070313,-0.035156 0.023437,0 0.050781,0.00781 0.078125,0.027344 0.453125,0.367187 0.972656,0.660156 1.566406,0.882812 0.585938,0.222656 1.210938,0.332031 1.867188,0.332031 0.734375,0 1.316406,-0.148437 1.746093,-0.457031 0.398438,-0.292969 0.601563,-0.679687 0.601563,-1.164062 0,-0.90625 -0.507813,-1.433594 -1.527344,-1.570313 H 5.85156 C 5.710938,-5.171875 5.574219,-5.1875 5.441406,-5.207031 5.3125,-5.222656 5.183594,-5.238281 5.054688,-5.257813 4.925781,-5.273438 4.796875,-5.292969 4.65625,-5.3125 4.523438,-5.332031 4.375,-5.351563 4.210938,-5.378906 3.671875,-5.453125 3.191406,-5.589844 2.765625,-5.789063 2.34375,-5.988281 1.988281,-6.25 1.699219,-6.578125 c -0.285156,-0.332031 -0.5,-0.695313 -0.644531,-1.09375 -0.144532,-0.390625 -0.21875,-0.824219 -0.21875,-1.289063 0,-1.089843 0.363281,-1.980468 1.089843,-2.667968 0.730469,-0.695313 1.742188,-1.042969 3.046875,-1.042969 0.382813,0 0.757813,0.03125 1.125,0.09766 0.363282,0.06641 0.71875,0.15625 1.0625,0.273438 0.339844,0.113281 0.667969,0.25 0.984375,0.410156 0.3125,0.15625 0.613282,0.332031 0.902344,0.523437 0.054688,0.03516 0.070313,0.08594 0.027344,0.144532 L 8.027344,-9.675781 C 7.988281,-9.625 7.941406,-9.617188 7.890625,-9.652344 7.441406,-9.933594 6.964844,-10.15625 6.457031,-10.328125 c -0.503906,-0.167969 -1.027343,-0.253906 -1.570312,-0.253906 -0.277344,0 -0.53125,0.02734 -0.769531,0.09766 -0.234375,0.06641 -0.449219,0.171875 -0.636719,0.324219 -0.371094,0.265625 -0.5625,0.683593 -0.5625,1.234375 0,0.316406 0.125,0.621093 0.378906,0.921875 0.125,0.140625 0.292969,0.257812 0.511719,0.351562 0.210937,0.09375 0.472656,0.164063 0.785156,0.210938 0.164063,0.027343 0.363281,0.054687 0.585938,0.089843 0.222656,0.03125 0.488281,0.066407 0.792968,0.101563 1.179688,0.140625 2.054688,0.578125 2.625,1.300781 0.570313,0.710938 0.855469,1.496094 0.855469,2.367188 0,1.160156 -0.40625,2.070312 -1.21875,2.726562 C 7.417969,-0.210938 6.34375,0.113281 5.007813,0.113281 3.125,0.113281 1.527344,-0.460938 0.207031,-1.613281 0.1875,-1.632813 0.171875,-1.652344 0.171875,-1.683594 c 0,-0.027344 0.007813,-0.050781 0.027344,-0.078125 l 1.242187,-1.40625"
                 id="path90143" /></g><g
               id="use11310"
               style="fill:#ffffff;fill-opacity:1"
               transform="matrix(0.35277777,0,0,0.35277777,1385.1567,1302.1513)"><path
                 d="m 1.285156,0.015625 c -0.066406,0 -0.101562,-0.03125 -0.101562,-0.1015625 V -7.398438 H 0.40625 c -0.070312,0 -0.105469,-0.035156 -0.105469,-0.101562 v -1.347656 c 0,-0.070313 0.035157,-0.105469 0.105469,-0.105469 h 0.777344 v -1.3125 l 1.785156,-1.90625 c 0.035156,-0.03516 0.074219,-0.04297 0.117188,-0.02734 0.042968,0.01953 0.066406,0.05078 0.066406,0.09766 v 3.148438 h 1.171875 c 0.070312,0 0.105469,0.035156 0.105469,0.105469 V -7.5 c 0,0.066406 -0.035157,0.101562 -0.105469,0.101562 H 3.152344 v 7.3125005 c 0,0.0703125 -0.035156,0.1015625 -0.105469,0.1015625 H 1.285156"
                 id="path90135" /></g><g
               id="use11314"
               style="fill:#ffffff;fill-opacity:1"
               transform="matrix(0.35277777,0,0,0.35277777,1386.8906,1302.1513)"><path
                 d="m 5.84375,0.0429688 c -0.070312,0 -0.101562,-0.0351563 -0.101562,-0.1015626 V -0.542969 C 5.664063,-0.441406 5.566406,-0.351563 5.460938,-0.273438 5.355469,-0.195313 5.238281,-0.132813 5.121094,-0.0859375 4.941406,-0.0117188 4.734375,0.0429688 4.492188,0.0859375 4.257813,0.125 3.996094,0.148438 3.710938,0.148438 2.722656,0.125 1.96875,-0.148438 1.449219,-0.664063 v 0.007813 c -0.558594,-0.507813 -0.84375,-1.167969 -0.84375,-1.976563 0,-0.75 0.242187,-1.390625 0.722656,-1.90625 0.492188,-0.519531 1.210938,-0.78125 2.140625,-0.796875 H 5.742188 V -6.15625 C 5.75,-6.867188 5.207031,-7.210938 4.101563,-7.183594 c -0.199219,0 -0.378907,0.011719 -0.542969,0.027344 C 3.398438,-7.140625 3.25,-7.109375 3.117188,-7.0625 H 3.125 c -0.113281,0.058594 -0.214844,0.125 -0.3125,0.210937 -0.089844,0.082032 -0.167969,0.183594 -0.230469,0.300782 -0.039062,0.066406 -0.089843,0.078125 -0.15625,0.023437 l -1.347656,-1.0625 C 1.058594,-7.605469 1.042969,-7.625 1.035156,-7.652344 c -0.00391,-0.027344 0,-0.046875 0.019532,-0.074219 0.664062,-0.902343 1.652343,-1.34375 2.960937,-1.3125 0.542969,-0.00391 1.035156,0.042969 1.464844,0.148438 0.433594,0.101562 0.816406,0.265625 1.15625,0.492187 0.667969,0.46875 1.003906,1.25 1.011719,2.339844 v 6.0000002 c 0,0.0664063 -0.035157,0.1015626 -0.101563,0.1015626 H 5.84375 M 5.742188,-3.675781 H 3.789063 c -0.921875,0.023437 -1.390625,0.34375 -1.378907,0.957031 0,0.257812 0.113282,0.488281 0.351563,0.691406 0.242187,0.210938 0.625,0.316406 1.15625,0.316406 0.710937,0.00781 1.195312,-0.074218 1.46875,-0.25 h -0.00781 c 0.242188,-0.160156 0.363282,-0.550781 0.363282,-1.171875 v -0.542968"
                 id="path90127" /></g><g
               id="use11318"
               style="fill:#ffffff;fill-opacity:1"
               transform="matrix(0.35277777,0,0,0.35277777,1389.925,1302.1513)"><path
                 d="m 1.285156,0.015625 c -0.066406,0 -0.101562,-0.03125 -0.101562,-0.1015625 V -7.398438 H 0.40625 c -0.070312,0 -0.105469,-0.035156 -0.105469,-0.101562 v -1.347656 c 0,-0.070313 0.035157,-0.105469 0.105469,-0.105469 h 0.777344 v -1.3125 l 1.785156,-1.90625 c 0.035156,-0.03516 0.074219,-0.04297 0.117188,-0.02734 0.042968,0.01953 0.066406,0.05078 0.066406,0.09766 v 3.148438 h 1.171875 c 0.070312,0 0.105469,0.035156 0.105469,0.105469 V -7.5 c 0,0.066406 -0.035157,0.101562 -0.105469,0.101562 H 3.152344 v 7.3125005 c 0,0.0703125 -0.035156,0.1015625 -0.105469,0.1015625 H 1.285156"
                 id="path90139" /></g><g
               id="use11322"
               style="fill:#ffffff;fill-opacity:1"
               transform="matrix(0.35277777,0,0,0.35277777,1391.6589,1302.1513)"><path
                 d="m 1.234375,0.0078125 c -0.070312,0 -0.101562,-0.0351563 -0.101562,-0.1015625 v -8.753906 c 0,-0.070313 0.03125,-0.105469 0.101562,-0.105469 h 1.761719 c 0.058594,0 0.09375,0.035156 0.09375,0.105469 v 8.753906 c 0,0.0664062 -0.03125,0.1015625 -0.09375,0.1015625 H 1.234375 m 0,-10.5234375 c -0.070312,0 -0.101562,-0.03516 -0.101562,-0.101563 v -1.761718 c 0,-0.07031 0.03125,-0.105469 0.101562,-0.105469 h 1.761719 c 0.058594,0 0.09375,0.03516 0.09375,0.105469 v 1.761718 c 0,0.06641 -0.03125,0.101563 -0.09375,0.101563 H 1.234375"
                 id="path90115" /></g><g
               id="use11326"
               style="fill:#ffffff;fill-opacity:1"
               transform="matrix(0.35277777,0,0,0.35277777,1393.1339,1302.1513)"><path
                 d="m 0.671875,-4.480469 c 0,-0.9375 0.078125,-1.648437 0.234375,-2.132812 0.148438,-0.484375 0.398438,-0.910157 0.742188,-1.285157 0.242187,-0.257812 0.578125,-0.515625 1.019531,-0.769531 0.433594,-0.25 1.007812,-0.378906 1.71875,-0.378906 0.699219,0 1.269531,0.125 1.699219,0.378906 0.226562,0.125 0.417968,0.25 0.589843,0.378906 0.171875,0.128907 0.316407,0.257813 0.445313,0.390625 0.335937,0.371094 0.589844,0.800782 0.742187,1.285157 0.148438,0.492187 0.226563,1.203125 0.226563,2.132812 0,0.953125 -0.074219,1.675781 -0.226563,2.160156 -0.152343,0.46875 -0.398437,0.894532 -0.742187,1.285157 C 6.863281,-0.757813 6.519531,-0.5 6.085938,-0.25 5.65625,-0.0078125 5.089844,0.113281 4.386719,0.113281 3.675781,0.113281 3.109375,-0.0078125 2.667969,-0.25 2.472656,-0.363281 2.289063,-0.492188 2.109375,-0.628906 1.9375,-0.769531 1.78125,-0.902344 1.648438,-1.035156 1.300781,-1.421875 1.054688,-1.847656 0.90625,-2.320313 0.75,-2.792969 0.671875,-3.511719 0.671875,-4.480469 m 5.457031,0.015625 c 0,-0.601562 -0.03125,-1.039062 -0.09375,-1.308594 C 5.976563,-6.019531 5.871094,-6.257813 5.714844,-6.484375 5.566406,-6.675781 5.382813,-6.828125 5.15625,-6.933594 4.9375,-7.035156 4.679688,-7.085938 4.386719,-7.085938 c -0.609375,0 -1.054688,0.195313 -1.332031,0.601563 -0.078125,0.113281 -0.144532,0.230469 -0.203125,0.34375 -0.050782,0.109375 -0.09375,0.230469 -0.125,0.367187 -0.054688,0.246094 -0.085938,0.675782 -0.085938,1.292969 0,0.3125 0.00391,0.578125 0.023438,0.804688 0.011718,0.222656 0.035156,0.398437 0.0625,0.535156 0.054687,0.246094 0.160156,0.476562 0.328125,0.699219 0.269531,0.394531 0.714843,0.59375 1.332031,0.59375 0.585937,0 1.027344,-0.199219 1.328125,-0.59375 0.148437,-0.226563 0.253906,-0.460938 0.320312,-0.699219 0.058594,-0.28125 0.09375,-0.722656 0.09375,-1.324219"
                 id="path90123" /></g><g
               id="use11330"
               style="fill:#ffffff;fill-opacity:1"
               transform="matrix(0.35277777,0,0,0.35277777,1396.2525,1302.1513)"><path
                 d="m 1.207031,0.0078125 c -0.066406,0 -0.101562,-0.0351563 -0.101562,-0.1015625 v -8.753906 c 0,-0.070313 0.035156,-0.105469 0.101562,-0.105469 H 2.96875 c 0.070313,0 0.105469,0.035156 0.105469,0.105469 v 0.707031 c 0.550781,-0.605469 1.285156,-0.90625 2.210937,-0.90625 0.351563,0 0.699219,0.066406 1.035157,0.199219 0.332031,0.128906 0.664062,0.328125 1,0.59375 0.65625,0.535156 0.984375,1.3125 0.984375,2.339843 v 5.820313 c 0,0.0664062 -0.035157,0.1015625 -0.105469,0.1015625 H 6.441406 c -0.070312,0 -0.105468,-0.0351563 -0.105468,-0.1015625 v -5.214844 c 0,-0.570312 -0.152344,-1.007812 -0.457032,-1.3125 -0.320312,-0.3125 -0.707031,-0.464844 -1.15625,-0.464844 -0.484375,0 -0.882812,0.152344 -1.191406,0.464844 -0.300781,0.300781 -0.457031,0.742188 -0.457031,1.3125 v 5.214844 c 0,0.0664062 -0.035156,0.1015625 -0.105469,0.1015625 H 1.207031"
                 id="path90119" /></g><path
               id="rect25583"
               style="font-style:normal;font-variant:normal;font-weight:bold;font-stretch:normal;font-size:105.278px;line-height:0;font-family:Giaothong2;-inkscape-font-specification:'Giaothong2 Bold';letter-spacing:0px;word-spacing:3.2041px;fill:#0046aa;fill-opacity:1;fill-rule:nonzero;stroke:none;stroke-width:0.269257;stroke-linecap:round;stroke-linejoin:miter;stroke-miterlimit:4;stroke-dasharray:none;stroke-opacity:1;paint-order:stroke fill markers"
               d="m 1335.5888,1291.7927 c -0.1827,0 -0.4034,0.2302 -0.4041,0.5116 v 2.9254 h -0.1504 c -0.1086,0 -0.1964,0.088 -0.1964,0.1964 v 2.2464 c 0,0.1086 0.088,0.1963 0.1964,0.1963 h 0.1504 0.1509 3.0685 c -10e-5,-0.01 -3e-4,-0.012 -3e-4,-0.018 0,-0.785 0.6392,-1.4242 1.4242,-1.4242 0.785,0 1.4242,0.6392 1.4242,1.4242 0,0.01 -4e-4,0.012 -4e-4,0.018 h 8.1024 v -0.018 c 0,-0.785 0.6392,-1.4242 1.4242,-1.4242 0.785,0 1.4237,0.6392 1.4237,1.4242 0,0.01 -4e-4,0.012 -4e-4,0.018 h 0.1473 l 4.1284,-0.6015 v -4.4245 c -10e-4,-0.4917 -0.5812,-1.0465 -1.1978,-1.0501 z m 0.1612,0.8615 h 1.7084 c 0.1579,3e-4 0.2778,0.115 0.2781,0.2423 v 3.545 c 10e-4,0.3347 -0.262,0.7546 -0.6372,0.754 h -1.2681 c -0.043,0 -0.081,-0.065 -0.081,-0.1256 z m 2.5968,0.4216 h 3.8323 v 1.4093 h -3.8323 z m 4.4875,0 h 3.8324 v 1.4093 h -3.8324 z m 4.4876,0 h 3.8324 v 1.4093 h -3.8324 z m 4.4876,0 h 3.8323 v 1.4093 h -3.8323 z m -11.9817,3.4737 c -0.7187,0 -1.3017,0.5825 -1.3017,1.3012 0,0.7188 0.583,1.3012 1.3017,1.3012 0.7188,10e-5 1.3012,-0.5824 1.3012,-1.3012 0,-0.7187 -0.5824,-1.3012 -1.3012,-1.3012 z m 10.9497,0 c -0.7187,0 -1.3017,0.5825 -1.3017,1.3012 0,0.7188 0.583,1.3012 1.3017,1.3012 0.7188,10e-5 1.3012,-0.5824 1.3012,-1.3012 10e-5,-0.7187 -0.5824,-1.3012 -1.3012,-1.3012 z" /></g></g></g></g></g></svg>
