<?xml version="1.0" encoding="UTF-8" standalone="no"?>
<svg
   xmlns:dc="http://purl.org/dc/elements/1.1/"
   xmlns:cc="http://creativecommons.org/ns#"
   xmlns:rdf="http://www.w3.org/1999/02/22-rdf-syntax-ns#"
   xmlns:svg="http://www.w3.org/2000/svg"
   xmlns="http://www.w3.org/2000/svg"
   xmlns:sodipodi="http://sodipodi.sourceforge.net/DTD/sodipodi-0.dtd"
   xmlns:inkscape="http://www.inkscape.org/namespaces/inkscape"
   sodipodi:docname="Vietnam_road_sign_IE460c.svg"
   inkscape:version="1.0 (4035a4fb49, 2020-05-01)"
   id="svg6000"
   version="1.1"
   viewBox="0 0 53.871998 196.19888"
   height="196.19888mm"
   width="53.871998mm">
  <defs
     id="defs5994" />
  <sodipodi:namedview
     inkscape:window-maximized="1"
     inkscape:window-y="-9"
     inkscape:window-x="-9"
     inkscape:window-height="1001"
     inkscape:window-width="1920"
     showgrid="false"
     inkscape:document-rotation="0"
     inkscape:current-layer="layer1"
     inkscape:document-units="mm"
     inkscape:cy="450.38567"
     inkscape:cx="1379.172"
     inkscape:zoom="0.24372258"
     inkscape:pageshadow="2"
     inkscape:pageopacity="0.0"
     borderopacity="1.0"
     bordercolor="#666666"
     pagecolor="#ffffff"
     id="base" />
  <metadata
     id="metadata5997">
    <rdf:RDF>
      <cc:Work
         rdf:about="">
        <dc:format>image/svg+xml</dc:format>
        <dc:type
           rdf:resource="http://purl.org/dc/dcmitype/StillImage" />
        <dc:title></dc:title>
      </cc:Work>
    </rdf:RDF>
  </metadata>
  <g
     transform="translate(152.51739,-58.372012)"
     id="layer1"
     inkscape:groupmode="layer"
     inkscape:label="Layer 1">
    <path
       style="color:#000000;font-style:normal;font-variant:normal;font-weight:normal;font-stretch:normal;font-size:medium;line-height:normal;font-family:sans-serif;font-variant-ligatures:normal;font-variant-position:normal;font-variant-caps:normal;font-variant-numeric:normal;font-variant-alternates:normal;font-variant-east-asian:normal;font-feature-settings:normal;font-variation-settings:normal;text-indent:0;text-align:start;text-decoration:none;text-decoration-line:none;text-decoration-style:solid;text-decoration-color:#000000;letter-spacing:normal;word-spacing:normal;text-transform:none;writing-mode:lr-tb;direction:ltr;text-orientation:mixed;dominant-baseline:auto;baseline-shift:baseline;text-anchor:start;white-space:normal;shape-padding:0;shape-margin:0;inline-size:0;clip-rule:nonzero;display:inline;overflow:visible;visibility:visible;opacity:1;isolation:auto;mix-blend-mode:normal;color-interpolation:sRGB;color-interpolation-filters:linearRGB;solid-color:#000000;solid-opacity:1;vector-effect:none;fill:#0a9646;fill-opacity:1;fill-rule:evenodd;stroke:none;stroke-width:0.399034;stroke-linecap:square;stroke-linejoin:miter;stroke-miterlimit:4;stroke-dasharray:none;stroke-dashoffset:0;stroke-opacity:1;paint-order:stroke fill markers;color-rendering:auto;image-rendering:auto;shape-rendering:auto;text-rendering:auto;enable-background:accumulate;stop-color:#000000;stop-opacity:1"
       d="m -145.84339,58.372012 c -3.66144,0 -6.674,3.01094 -6.674,6.67251 V 247.89836 c 0,3.66156 3.01256,6.67253 6.674,6.67253 h 40.524 c 3.66144,0 6.673999,-3.01097 6.673999,-6.67253 V 65.044522 c 0,-3.66157 -3.012559,-6.67251 -6.673999,-6.67251 z"
       id="path7689"
       sodipodi:nodetypes="sssssssss" />
    <path
       sodipodi:nodetypes="ssssscssssssssssss"
       id="path7691"
       style="color:#000000;font-style:normal;font-variant:normal;font-weight:normal;font-stretch:normal;font-size:medium;line-height:normal;font-family:sans-serif;font-variant-ligatures:normal;font-variant-position:normal;font-variant-caps:normal;font-variant-numeric:normal;font-variant-alternates:normal;font-variant-east-asian:normal;font-feature-settings:normal;font-variation-settings:normal;text-indent:0;text-align:start;text-decoration:none;text-decoration-line:none;text-decoration-style:solid;text-decoration-color:#000000;letter-spacing:normal;word-spacing:normal;text-transform:none;writing-mode:lr-tb;direction:ltr;text-orientation:mixed;dominant-baseline:auto;baseline-shift:baseline;text-anchor:start;white-space:normal;shape-padding:0;shape-margin:0;inline-size:0;clip-rule:nonzero;display:inline;overflow:visible;visibility:visible;opacity:1;isolation:auto;mix-blend-mode:normal;color-interpolation:sRGB;color-interpolation-filters:linearRGB;solid-color:#000000;solid-opacity:1;vector-effect:none;fill:#ffffff;fill-opacity:1;fill-rule:evenodd;stroke:none;stroke-width:0.399034;stroke-linecap:square;stroke-linejoin:miter;stroke-miterlimit:4;stroke-dasharray:none;stroke-dashoffset:0;stroke-opacity:1;paint-order:stroke fill markers;color-rendering:auto;image-rendering:auto;shape-rendering:auto;text-rendering:auto;enable-background:accumulate;stop-color:#000000;stop-opacity:1"
       d="m -145.84339,58.802012 c -3.42635,0 -6.24437,2.8158 -6.24437,6.24214 V 247.89798 c 0,3.42635 2.81802,6.24328 6.24437,6.24328 h 40.524 c 3.42635,0 6.244386,-2.81693 6.244364,-6.24328 V 65.044152 c 0,-3.42634 -2.818014,-6.24214 -6.244364,-6.24214 z m 0,1.88665 h 40.524 c 2.4135,0 4.35661,1.94311 4.35661,4.35662 V 247.89798 c 0,2.41351 -1.94311,4.35662 -4.35661,4.35662 h -40.524 c -2.4135,0 -4.35661,-1.94311 -4.35661,-4.35662 V 65.045282 c 0,-2.41351 1.94311,-4.35662 4.35661,-4.35662 z" />
    <g
       transform="matrix(0.75851017,0,0,0.75851017,-434.24799,15.570565)"
       aria-label="Km"
       id="text7719"
       style="font-size:39.1939px;line-height:1.3;font-family:'Singapore Road Signs';-inkscape-font-specification:'Singapore Road Signs';text-align:center;text-anchor:middle;opacity:1;fill:#ffffff;fill-opacity:1;stroke-width:0.348819">
      <path
         id="path7736"
         style="font-style:normal;font-variant:normal;font-weight:normal;font-stretch:normal;font-family:'Alte DIN 1451 Mittelschrift gepraegt';-inkscape-font-specification:'Alte DIN 1451 Mittelschrift gepraegt';fill:#ffffff;fill-opacity:1;stroke-width:0.348819"
         d="m 407.5856,106.14756 q -0.22966,0 -0.22966,-0.22966 V 86.51233 q 0,-0.229652 0.22966,-0.229652 h 3.90408 q 0.22965,0 0.22965,0.229652 v 1.550149 q 1.83721,-1.990315 4.89924,-1.990315 2.04772,0 3.32995,0.765506 0.57413,0.344477 1.10998,0.765506 0.53585,0.40189 1.0143,0.899469 2.35393,-2.430481 6.14318,-2.430481 2.31566,0 4.51648,1.760663 2.1817,1.779802 2.1817,5.186303 v 12.89877 q 0,0.22966 -0.22966,0.22966 h -3.90408 q -0.22965,0 -0.22965,-0.22966 V 94.358765 q 0,-1.894627 -1.01429,-2.908922 -1.03344,-1.033433 -2.58358,-1.033433 -1.60757,0 -2.641,1.033433 -1.0143,1.014295 -1.0143,2.908922 V 105.9179 q 0,0.22966 -0.21051,0.22966 h -3.90408 q -0.21051,0 -0.21051,-0.22966 V 94.358765 q 0,-1.875489 -1.03344,-2.908922 -1.03343,-1.033433 -2.58358,-1.033433 -1.60756,0 -2.64099,1.033433 -0.99516,0.995157 -0.99516,2.908922 V 105.9179 q 0,0.22966 -0.22965,0.22966 z m -24.68757,0 q -0.21051,0 -0.21051,-0.22966 V 78.493656 q 0,-0.229652 0.21051,-0.229652 h 4.17201 q 0.22965,0 0.22965,0.229652 V 92.11966 q 2.73668,-3.463914 5.47337,-6.870415 2.73668,-3.425639 5.4925,-6.889553 0.0957,-0.09569 0.17224,-0.09569 h 4.93751 q 0.15311,0 0.21052,0.133963 0.0574,0.133964 -0.0383,0.24879 L 394.85904,89.3447 q 2.43048,4.152869 4.80355,8.229188 2.39221,4.076322 4.84183,8.229192 0.0574,0.13396 0,0.24879 -0.0383,0.0957 -0.19138,0.0957 h -4.93751 q -0.11483,0 -0.19138,-0.11483 l -7.34886,-13.128428 q -1.18653,1.224809 -2.27738,2.373068 -1.09084,1.148259 -2.25824,2.373068 v 8.267462 q 0,0.22966 -0.22965,0.22966 z m 18.72642,157.52807 q 0,2.74511 1.65851,4.11767 1.74429,1.40115 3.83173,1.40115 2.08743,0 3.80313,-1.40115 1.71569,-1.40115 1.71569,-4.11767 0,-2.65934 -1.71569,-4.06049 -1.62992,-1.42975 -3.80313,-1.42975 -2.11603,0 -3.83173,1.42975 -1.65851,1.37256 -1.65851,4.06049 z m -7.23453,17.52871 q 0,-2.94528 1.1438,-5.23288 1.1724,-2.2876 3.4314,-3.9461 -1.74429,-1.62992 -2.80231,-3.60297 -1.05801,-1.97305 -1.05801,-4.63238 0,-5.06131 3.43139,-8.5785 3.51719,-3.54577 8.5785,-3.54577 5.0899,0 8.54989,3.54577 3.48859,3.57438 3.48859,8.5785 0,1.31536 -0.28595,2.45916 -0.28595,1.1438 -0.80066,2.17322 -0.51471,1.00082 -1.22958,1.91586 -0.71488,0.88645 -1.54413,1.68711 4.57519,3.28842 4.57519,9.17898 0,2.74512 -0.97223,5.03272 -0.94363,2.28759 -2.8309,4.06048 -1.85867,1.65851 -4.11767,2.57355 -2.25901,0.88644 -4.83255,0.88644 -5.23288,0 -8.95023,-3.45999 -3.77454,-3.54577 -3.77454,-9.0932 z m 6.49106,-0.0572 q 0,1.31537 0.48612,2.43057 0.51471,1.11521 1.37255,1.94446 1.91587,1.7443 4.37504,1.7443 2.45916,0 4.37503,-1.7443 0.91503,-0.85785 1.40115,-1.94446 0.48611,-1.1152 0.48611,-2.43057 0,-2.65933 -1.88726,-4.37503 -1.85868,-1.77289 -4.37503,-1.77289 -2.45917,0 -4.37504,1.77289 -1.85867,1.7157 -1.85867,4.37503 z m -5.14709,-83.56135 q 0.0286,-2.8595 0.97223,-5.08991 0.94363,-2.259 2.65933,-3.86032 1.62991,-1.48694 3.66015,-2.2876 2.03025,-0.82925 4.26065,-0.82925 4.06049,0 7.34891,2.43057 3.08826,2.45917 4.03189,7.09155 0.0572,0.17157 -0.0572,0.28595 -0.11438,0.11438 -0.28595,0.11438 h -5.86197 q -0.22876,0 -0.31454,-0.20016 -1.28677,-3.14545 -4.88974,-3.23123 -5.17569,0.14297 -5.17569,5.94775 v 3.37421 q 1.85867,-0.54331 3.68875,-0.85785 1.85867,-0.31455 3.51718,-0.28595 4.0033,0 6.8628,2.8023 2.74511,2.8881 2.71652,8.89304 v 3.71735 q -0.0858,5.86197 -3.48859,8.92163 -3.20264,3.03106 -8.09238,3.17404 -4.74676,-0.14298 -7.9208,-3.14545 -3.60297,-3.14544 -3.63156,-8.92163 z m 6.34808,17.70028 q 0.0286,5.86197 5.20428,5.91916 5.06131,-0.0286 5.26148,-5.91916 v -3.34561 q -0.22876,-5.80478 -5.26148,-5.91916 -5.17568,0.14298 -5.20428,5.91916 z m 5.00412,-52.67308 q -0.34314,0 -0.34314,-0.34314 v -33.97082 q -1.31537,0.97223 -2.63074,1.97305 -1.31537,0.97223 -2.63073,1.91586 -0.20017,0.14298 -0.37174,0.0572 -0.17157,-0.11438 -0.17157,-0.34314 v -6.20511 q 0,-0.0572 0.0286,-0.14297 0.0572,-0.0858 0.11438,-0.14298 l 5.89056,-4.26065 h 5.97635 q 0.34314,0 0.34314,0.34314 v 40.77643 q 0,0.34314 -0.34314,0.34314 z" />
    </g>
  </g>
</svg>
