<?xml version="1.0" encoding="UTF-8"?>
<svg version="1.1" xmlns="http://www.w3.org/2000/svg" width="2560" height="1197">
<path d="M0 0 C844.8 0 1689.6 0 2560 0 C2560 395.01 2560 790.02 2560 1197 C1715.2 1197 870.4 1197 0 1197 C0 801.99 0 406.98 0 0 Z " fill="#FEFEFE" transform="translate(0,0)"/>
<path d="M0 0 C1.56309151 -0.00855011 1.56309151 -0.00855011 3.15776062 -0.01727295 C5.35361742 -0.02665884 7.5494879 -0.03323117 9.74536133 -0.03710938 C13.02777196 -0.04673874 16.30953456 -0.07779343 19.59179688 -0.109375 C33.56724716 -0.17964009 46.98383572 0.882988 60.76171875 3.203125 C61.98947021 3.40196289 63.21722168 3.60080078 64.48217773 3.80566406 C103.22470186 10.40599823 138.21079307 26.61275398 168.76171875 51.203125 C169.7775 52.00621094 170.79328125 52.80929687 171.83984375 53.63671875 C177.73090241 58.35798148 183.31419234 63.36638322 188.83984375 68.50390625 C191.55049904 71.00800091 194.30445485 73.45239345 197.07421875 75.890625 C200.63979513 79.09340824 203.85427057 82.40493485 206.9375 86.0703125 C209.03422268 88.52172703 211.24137637 90.8513692 213.44921875 93.203125 C233.45850327 115.21637428 246.45497768 140.38720859 256.63085938 168.1484375 C257.57282043 170.69287117 258.55545874 173.21379558 259.55859375 175.734375 C271.67663433 207.74230035 269.59883482 245.27163019 269.6235199 278.89875793 C269.64431974 284.44400716 269.78551369 289.95793185 270.12074184 295.49193287 C270.94219636 309.09166755 270.92582906 322.68003528 270.9296875 336.30078125 C270.9311177 337.64657548 270.93271511 338.99236954 270.93447304 340.33816338 C270.9436868 347.41791069 270.94781504 354.49763947 270.94702148 361.57739258 C270.94649428 367.31407514 270.95342072 373.05068857 270.9675293 378.78735352 C271.23904948 491.76049415 271.23904948 491.76049415 260.51171875 544.47875977 C259.99334128 547.05292913 259.49175214 549.62563102 259.01171875 552.20678711 C257.78649671 558.72475298 256.51373969 564.83474558 253.76171875 570.890625 C253.26671875 572.00824219 252.77171875 573.12585938 252.26171875 574.27734375 C250.76171875 577.203125 250.76171875 577.203125 249.07421875 579.41015625 C247.46637998 581.23624143 247.46637998 581.23624143 247.76171875 584.203125 C250.07087835 586.27458429 250.07087835 586.27458429 253.07421875 588.328125 C254.18764098 589.13342521 255.29959028 589.94076534 256.41015625 590.75 C256.97444336 591.15927734 257.53873047 591.56855469 258.12011719 591.99023438 C269.47732719 600.3814627 280.04705175 610.01022549 290.76171875 619.203125 C291.9426848 620.21487122 293.12367428 621.22659009 294.3046875 622.23828125 C296.52039023 624.13648434 298.73069409 626.04068558 300.9375 627.94921875 C308.32105849 634.30245978 315.95294975 640.28130352 323.71875 646.16015625 C324.3782666 646.66498535 325.0377832 647.16981445 325.71728516 647.68994141 C327.13318324 648.73791565 328.58132059 649.74317814 330.05224609 650.71240234 C335.54067441 654.42484331 335.54067441 654.42484331 336.6015625 658.16015625 C335.46685895 662.27147749 333.171235 664.84595265 330.32421875 667.890625 C329.21371724 669.12789609 328.10435248 670.36618834 326.99609375 671.60546875 C326.44501953 672.21374512 325.89394531 672.82202148 325.32617188 673.44873047 C323.15613391 675.88223434 321.11428533 678.41027605 319.07421875 680.953125 C315.51903971 685.33464295 311.79402338 689.52023181 307.99609375 693.69140625 C305.76037342 696.20463732 303.62794193 698.77623979 301.51171875 701.390625 C297.35744036 706.52195493 293.06819092 711.52058076 288.71557617 716.48364258 C285.97701655 719.61325328 283.28798665 722.76365405 280.6953125 726.015625 C280.21046387 726.61584473 279.72561523 727.21606445 279.22607422 727.83447266 C278.31759012 728.96446106 277.42118946 730.10431489 276.53955078 731.25537109 C274.47900484 733.79846532 272.90357673 735.14801062 269.8359375 736.33984375 C265.6610378 736.15417477 263.53268345 734.28130356 260.51171875 731.640625 C259.27834944 730.61727628 258.04392116 729.5952029 256.80859375 728.57421875 C256.15568359 728.02620605 255.50277344 727.47819336 254.83007812 726.91357422 C251.21073859 723.92052739 247.48001923 721.07151696 243.76171875 718.203125 C242.21947126 717.0059562 240.67779826 715.80804693 239.13671875 714.609375 C238.39421875 714.031875 237.65171875 713.454375 236.88671875 712.859375 C233.83786706 710.48306413 230.79882163 708.09442243 227.76171875 705.703125 C219.45729735 699.16598677 211.10800643 692.68666287 202.76171875 686.203125 C199.49054895 683.66189098 196.21977832 681.12014432 192.94921875 678.578125 C192.2025293 677.99828857 191.45583984 677.41845215 190.68652344 676.82104492 C187.02373545 673.97412073 183.37465386 671.11334778 179.76171875 668.203125 C177.03466381 669.49824181 174.61651524 670.92793281 172.1796875 672.70703125 C171.50341309 673.19558594 170.82713867 673.68414063 170.13037109 674.1875 C169.41059082 674.70828125 168.69081055 675.2290625 167.94921875 675.765625 C160.10850566 681.34923883 152.16942149 686.51674134 143.76171875 691.203125 C142.92930664 691.6671875 142.09689453 692.13125 141.23925781 692.609375 C127.9594643 699.93352682 114.50294453 706.11858042 100.24902344 711.29833984 C98.1118698 712.0757536 95.98707481 712.87850596 93.86328125 713.69140625 C86.27181926 716.44650987 78.60234478 718.21484724 70.69921875 719.828125 C69.27440186 720.11961426 69.27440186 720.11961426 67.82080078 720.41699219 C64.4748452 721.06516447 61.12412444 721.64594105 57.76171875 722.203125 C56.98677063 722.33160828 56.21182251 722.46009155 55.41339111 722.59246826 C41.14176156 724.90017613 27.20595062 725.69664817 12.76171875 725.578125 C11.23449692 725.57114594 11.23449692 725.57114594 9.67642212 725.56402588 C-16.59648744 725.42399944 -41.81156275 723.25769405 -67.23828125 716.203125 C-68.60339844 715.82462402 -68.60339844 715.82462402 -69.99609375 715.43847656 C-92.24581141 709.063834 -113.24994888 698.57583115 -131.80078125 684.765625 C-132.44007568 684.2924585 -133.07937012 683.81929199 -133.73803711 683.33178711 C-139.0083098 679.41211724 -144.17996587 675.39385795 -149.23828125 671.203125 C-150.73294922 669.98689453 -150.73294922 669.98689453 -152.2578125 668.74609375 C-167.23553205 656.3744529 -181.65335871 642.6033068 -193.06005859 626.82568359 C-194.24844546 625.18912762 -195.46845594 623.58051212 -196.6953125 621.97265625 C-211.61539071 602.14879667 -220.66787443 580.26723579 -229.23828125 557.203125 C-229.61984375 556.20829102 -230.00140625 555.21345703 -230.39453125 554.18847656 C-242.06702194 523.31606511 -241.29853272 487.31746109 -242.34765625 454.73046875 C-242.38952812 453.46452314 -242.43139999 452.19857754 -242.47454071 450.89426994 C-243.44309598 420.99284801 -243.54603707 391.09767792 -243.49541998 361.18310964 C-243.48779942 356.15370308 -243.49067381 351.12437458 -243.49902344 346.0949707 C-243.5491972 315.08476333 -243.52646415 284.14762377 -241.23828125 253.203125 C-241.14280082 251.85612632 -241.04792966 250.50908432 -240.95362854 249.16200256 C-240.54019086 243.25904089 -240.11399877 237.35733705 -239.6640625 231.45703125 C-239.30819813 226.56108665 -239.09786864 221.67552326 -238.94897461 216.76953125 C-237.17655972 162.39527611 -205.93178915 108.80729202 -167.23828125 72.203125 C-165.28613431 70.42653084 -163.31170205 68.69313491 -161.296875 66.98828125 C-159.21797982 65.18552016 -157.22359747 63.30647205 -155.22607422 61.41455078 C-113.70103124 22.36983528 -56.8875807 0.24978341 0 0 Z " fill="#000000" transform="translate(312.23828125,247.796875)"/>
<path d="M0 0 C844.8 0 1689.6 0 2560 0 C2560 395.01 2560 790.02 2560 1197 C1715.2 1197 870.4 1197 0 1197 C0 801.99 0 406.98 0 0 Z M46.125 50.0625 C42.54110414 55.01670898 41.70749396 58.3201533 41.74700034 64.41899228 C41.74394724 65.17378671 41.74089415 65.92858115 41.73774853 66.70624814 C41.72990716 69.25498389 41.73639714 71.80348528 41.74273109 74.35222244 C41.74003974 76.19803252 41.73647307 78.0438415 41.73210663 79.88964838 C41.7226041 84.99603362 41.72566361 90.10234795 41.73066217 95.2087368 C41.73391595 100.75119972 41.72565702 106.29364707 41.71884382 111.83610511 C41.70851293 121.56140048 41.70570536 131.28667593 41.70775604 141.01197624 C41.71065587 154.79782034 41.70348692 168.58364458 41.6934769 182.36948451 C41.67317288 210.37319296 41.66706436 238.37689343 41.66589268 266.38060841 C41.66576318 269.39622964 41.66562731 272.41185088 41.66548586 275.42747211 C41.66545185 276.17577927 41.66541784 276.92408642 41.6653828 277.69506955 C41.66456636 294.26751058 41.66018804 310.83995007 41.65517417 327.41239029 C41.65311749 334.23346546 41.65113745 341.05454065 41.64914167 347.87561584 C41.64892049 348.62925689 41.64869931 349.38289794 41.64847143 350.15937661 C41.63582052 393.35582478 41.62757349 436.55227196 41.62848854 479.74872208 C41.6285201 481.36579897 41.62855157 482.98287587 41.62858296 484.59995277 C41.62872973 491.90114602 41.62890607 499.20233927 41.62909073 506.50353252 C41.62917297 509.7594115 41.62925327 513.01529049 41.62933335 516.27116947 C41.62937414 517.90079701 41.62941618 519.53042455 41.62945947 521.16005209 C41.63082007 572.69444099 41.61618472 624.2288024 41.58837891 675.76318359 C41.58137706 688.74729021 41.57443822 701.73139686 41.56785011 714.71550369 C41.56744436 715.51495061 41.56703862 716.31439752 41.56662057 717.1380701 C41.55419359 741.77170728 41.54666003 766.40534221 41.54413414 791.03898239 C41.54405424 791.81220991 41.54397434 792.58543743 41.54389201 793.38209609 C41.54218558 810.35509503 41.54166303 827.32809384 41.54223277 844.30109286 C41.54242574 850.37414034 41.54252982 856.44718782 41.54259023 862.5202353 C41.54260605 864.03109914 41.54262646 865.54196297 41.54265147 867.0528268 C41.54300434 891.14218144 41.53159919 915.23151258 41.51434384 939.32086048 C41.49705555 963.57949813 41.49265147 987.83810321 41.50586648 1012.09674441 C41.51406604 1027.15323045 41.51155348 1042.20963074 41.49108342 1057.2661087 C41.47913479 1066.86295738 41.48161718 1076.459731 41.49602441 1086.05657615 C41.50383086 1091.53128333 41.50521507 1097.0057904 41.48910971 1102.48048392 C41.474596 1107.45750217 41.47837232 1112.4341529 41.49695744 1117.41115455 C41.5004103 1119.20379327 41.49711007 1120.99646046 41.48635503 1122.78907024 C41.25545336 1136.39366785 41.25545336 1136.39366785 47.78125 1148.0234375 C48.3484375 1148.46945312 48.915625 1148.91546875 49.5 1149.375 C50.0671875 1149.83648438 50.634375 1150.29796875 51.21875 1150.7734375 C55.56029308 1153.76300883 58.59966093 1154.25021147 63.92691787 1154.251233 C64.97986828 1154.25552777 64.97986828 1154.25552777 66.05409043 1154.25990929 C68.42447984 1154.2671092 70.7946131 1154.25997515 73.1650002 1154.25299966 C74.88418667 1154.25523253 76.60337219 1154.25834217 78.32255566 1154.26225147 C83.0854698 1154.27050427 87.84830484 1154.26618531 92.61121906 1154.25995973 C97.79760258 1154.25537372 102.98397231 1154.26235971 108.17035311 1154.26789337 C117.30812536 1154.27602319 126.44587487 1154.27664275 135.58364943 1154.27248149 C149.26331886 1154.26628597 162.94296729 1154.27154273 176.62263519 1154.2790789 C199.93243869 1154.29157507 223.24223224 1154.29450164 246.55203819 1154.29224396 C270.1872322 1154.28998193 293.82241995 1154.29203699 317.45761299 1154.29938889 C318.963286 1154.29985287 320.46895901 1154.30031681 321.97463202 1154.30078072 C328.04528959 1154.30265974 334.11594715 1154.30457233 340.18660471 1154.3065231 C357.30096893 1154.3120146 374.41533332 1154.31677317 391.5296979 1154.32102704 C392.31405296 1154.32122214 393.09840803 1154.32141724 393.90653143 1154.32161825 C438.54406721 1154.332636 483.18160335 1154.33323766 527.81914025 1154.33405997 C534.6440099 1154.33418646 541.46887954 1154.33431951 548.29374919 1154.33446108 C550.00429364 1154.33449646 551.71483809 1154.33453121 553.42538254 1154.33456532 C591.79317039 1154.33534045 630.1609575 1154.33969601 668.52874498 1154.34482583 C677.08825318 1154.34596894 685.64776139 1154.34707688 694.20726959 1154.3481871 C695.05690075 1154.34829734 695.9065319 1154.34840758 696.78190945 1154.34852117 C701.93926913 1154.34919017 707.09662881 1154.3498577 712.25398849 1154.35052429 C714.83750543 1154.35085845 717.42102238 1154.35119347 720.00453933 1154.35152857 C760.17563229 1154.35673262 800.34672532 1154.36119312 840.51781845 1154.36489296 C841.3931346 1154.3649737 842.26845074 1154.36505444 843.17029162 1154.36513763 C898.95893889 1154.37026483 954.74758575 1154.37206253 1010.53623324 1154.37153696 C1013.28006718 1154.37151145 1016.02390111 1154.37148753 1018.76773504 1154.37146414 C1038.04486526 1154.37129945 1057.32199549 1154.37109403 1076.59912571 1154.37087838 C1082.12644673 1154.37081684 1087.65376775 1154.37075671 1093.18108877 1154.37069675 C1097.79159991 1154.37064656 1102.40211105 1154.37059498 1107.01262219 1154.37054053 C1194.09998969 1154.3695176 1281.18735349 1154.37235474 1368.27471924 1154.39123535 C1369.65009672 1154.39153343 1369.65009672 1154.39153343 1371.05325961 1154.39183752 C1399.7020104 1154.3980602 1428.35076107 1154.40479319 1456.99951172 1154.41162109 C1486.39465964 1154.41862378 1515.78980758 1154.42556463 1545.1849556 1154.43214989 C1546.54254741 1154.43245447 1546.54254741 1154.43245447 1547.92756532 1154.4327652 C1604.59671311 1154.44546075 1661.26585984 1154.4533067 1717.935009 1154.45586586 C1718.81006422 1154.45590592 1719.68511943 1154.45594597 1720.58669148 1154.45598724 C1759.01445699 1154.45773777 1797.44222246 1154.45837747 1835.86998801 1154.45780547 C1851.32892727 1154.4575769 1866.78786653 1154.45746477 1882.24680579 1154.45739883 C1884.8100279 1154.45738603 1887.37325001 1154.45736787 1889.93647211 1154.45734853 C1929.15896433 1154.45707543 1968.38145316 1154.45977371 2007.60394382 1154.47143888 C2008.45023958 1154.47169023 2009.29653533 1154.47194157 2010.16847641 1154.47220053 C2023.78288202 1154.47625876 2037.39728756 1154.48054675 2051.01169309 1154.48485415 C2089.64813269 1154.49706812 2128.28456775 1154.50716223 2166.92100954 1154.50291181 C2167.70452237 1154.50282638 2168.4880352 1154.50274095 2169.29529085 1154.50265294 C2186.38658449 1154.50074648 2203.47787775 1154.49771513 2220.56917099 1154.49357951 C2227.38504156 1154.4919468 2234.20091215 1154.49045957 2241.01678276 1154.48901749 C2242.13204539 1154.48877553 2242.13204539 1154.48877553 2243.26983859 1154.48852869 C2266.87443375 1154.48347647 2290.47900371 1154.49072749 2314.08359449 1154.50505312 C2337.95656018 1154.51948831 2361.82947536 1154.52018387 2385.70244291 1154.50397559 C2399.29490801 1154.49517658 2412.88726509 1154.49744167 2426.47972137 1154.51570916 C2435.49084917 1154.52673687 2444.50189581 1154.52343065 2453.51301727 1154.50814359 C2458.63158279 1154.49987046 2463.74993473 1154.49797301 2468.86848774 1154.51364497 C2473.50863367 1154.52773675 2478.14838412 1154.52357001 2482.78850933 1154.50457759 C2484.45636472 1154.50098494 2486.12425132 1154.50412984 2487.79207678 1154.51474985 C2500.87842248 1154.60787879 2500.87842248 1154.60787879 2512.0234375 1148.25390625 C2512.46945313 1147.69574219 2512.91546875 1147.13757812 2513.375 1146.5625 C2513.83648438 1146.00691406 2514.29796875 1145.45132812 2514.7734375 1144.87890625 C2517.8235468 1140.20660507 2518.28879027 1135.92745402 2518.25415033 1130.45680922 C2518.25732766 1129.7007367 2518.26050498 1128.94466418 2518.26377859 1128.16568037 C2518.27202421 1125.61862038 2518.26597869 1123.07179338 2518.26006222 1120.52472973 C2518.2630575 1118.67775401 2518.26692713 1116.83077954 2518.27159455 1114.9838073 C2518.28192248 1109.87884953 2518.27970906 1104.77396073 2518.27553919 1099.66899701 C2518.27318187 1094.12634047 2518.28233042 1088.58370126 2518.29002339 1083.04105121 C2518.30189399 1073.31696961 2518.30623523 1063.59290679 2518.30570221 1053.86881828 C2518.30494748 1040.08483354 2518.31424988 1026.30087013 2518.32634189 1012.51689151 C2518.35086479 984.51654926 2518.36100957 956.5162131 2518.36586904 928.51586135 C2518.36639273 925.50095222 2518.36691857 922.48604308 2518.36744571 919.47113395 C2518.36757477 918.72299989 2518.36770383 917.97486584 2518.3678368 917.20406106 C2518.37074108 900.63358348 2518.37689881 884.06310761 2518.38354302 867.49263117 C2518.38626644 860.6718527 2518.38889748 853.85107418 2518.39152867 847.03029567 C2518.39196504 845.89987741 2518.39196504 845.89987741 2518.39241022 844.74662241 C2518.40903549 801.55413126 2518.42089084 758.36164092 2518.42332363 715.16914654 C2518.42341826 713.55233834 2518.42351327 711.93553015 2518.42360866 710.31872195 C2518.42403641 703.01877742 2518.42444179 695.71883288 2518.42484702 688.41888835 C2518.42502862 685.1635796 2518.42521351 681.90827084 2518.42539909 678.65296209 C2518.42549111 677.02362045 2518.42558151 675.3942788 2518.42567028 673.76493716 C2518.42848506 622.23723551 2518.45021617 570.70957297 2518.48706055 519.18188477 C2518.51452865 480.75971218 2518.5404179 442.33754707 2518.54700565 403.91536427 C2518.54720581 402.75562367 2518.54720581 402.75562367 2518.54741001 401.57245396 C2518.55028211 384.60097783 2518.55169956 367.62950186 2518.55176822 350.65802549 C2518.55180791 344.58555224 2518.55196486 338.51307899 2518.55218274 332.44060574 C2518.55223639 330.92988916 2518.5522845 329.41917258 2518.55232707 327.90845601 C2518.55307098 303.82191243 2518.56874794 279.73540738 2518.59193837 255.64887585 C2518.61518835 231.39371572 2518.62244866 207.13860521 2518.6077575 182.8834368 C2518.59864535 167.82925038 2518.60295031 152.77519912 2518.62971413 137.72102809 C2518.64540141 128.12567905 2518.64305448 118.53044581 2518.6258074 108.93509968 C2518.61648538 103.46123311 2518.61519502 97.9876801 2518.63577347 92.5138373 C2518.65432304 87.53756122 2518.65000868 82.56185764 2518.62718253 77.58560413 C2518.62301338 75.79326104 2518.62728696 74.00087415 2518.64088022 72.20857776 C2519.02695956 59.61365274 2519.02695956 59.61365274 2513 49 C2508.80984212 44.75842534 2504.75710844 42.21196538 2498.73905609 41.74929995 C2496.86268675 41.74880217 2496.86268675 41.74880217 2494.94841097 41.74829433 C2494.24511477 41.74537999 2493.54181857 41.74246564 2492.81721037 41.73946299 C2490.44832143 41.73210481 2488.07968886 41.73904235 2485.7108013 41.74584967 C2483.99032378 41.74349056 2482.26984727 41.74025505 2480.54937285 41.73622141 C2475.78753734 41.72762946 2471.02578012 41.73158837 2466.26394349 41.73746906 C2461.07699051 41.74167947 2455.89005209 41.7343129 2450.70310256 41.72840545 C2441.5658845 41.71961785 2432.42868865 41.71833461 2423.29146739 41.72183973 C2409.61264186 41.72705435 2395.93383808 41.72082359 2382.25501505 41.71232625 C2358.9462602 41.69819411 2335.63751467 41.69364413 2312.32875633 41.69429779 C2288.69559461 41.69493469 2265.06243943 41.6912644 2241.42927933 41.68231773 C2239.92357734 41.6817522 2238.41787535 41.68118676 2236.91217335 41.68062141 C2230.84137266 41.67833382 2224.77057198 41.67601423 2218.69977131 41.67365811 C2201.58523754 41.66702544 2184.47070355 41.66114342 2167.35616934 41.65578258 C2166.57181802 41.65553683 2165.78746671 41.65529108 2164.97934717 41.65503789 C2119.49371728 41.64087798 2074.00808629 41.63761477 2028.52245458 41.63413096 C2022.54983444 41.63367297 2016.57721429 41.63321389 2010.60459415 41.63275199 C2008.89422492 41.63262015 2007.18385568 41.6324891 2005.47348645 41.63235885 C1967.96112933 41.62950028 1930.44877299 41.62355926 1892.93641638 41.61691041 C1876.64739254 41.61402544 1860.35836868 41.61124772 1844.06934482 41.60847133 C1843.21681904 41.60832587 1842.36429327 41.6081804 1841.48593338 41.60803053 C1800.45430295 41.60103314 1759.42267243 41.5948057 1718.39104176 41.5894537 C1717.51575224 41.58933945 1716.64046273 41.58922521 1715.7386493 41.58910751 C1659.95291107 41.58184865 1604.16717318 41.57812692 1548.38143452 41.57674492 C1543.80729572 41.5766306 1539.23315692 41.57651058 1534.65901812 41.57639134 C1519.05451145 41.57598662 1503.45000479 41.57560315 1487.84549813 41.57522071 C1480.47794154 41.57503994 1473.11038494 41.57485617 1465.74282835 41.5746705 C1461.13267458 41.57455449 1456.52252082 41.5744402 1451.91236706 41.57432972 C1364.83057258 41.57223663 1277.74878337 41.56548526 1190.66699219 41.5401001 C1189.75011138 41.53983295 1188.83323057 41.53956579 1187.88856549 41.53929055 C1159.24089574 41.53092845 1130.59322618 41.52198762 1101.94555664 41.51293945 C1072.55144857 41.50365726 1043.15734047 41.49445634 1013.76323223 41.48571873 C1012.85820206 41.48544939 1011.95317189 41.48518006 1011.02071656 41.48490256 C954.35359055 41.46806417 897.68646601 41.45727775 841.01933765 41.45299435 C840.14431598 41.45292751 839.2692943 41.45286067 838.36775682 41.4527918 C799.94151292 41.44986603 761.51526906 41.44830197 723.08902505 41.44823663 C707.63073182 41.44820765 692.17243858 41.44802505 676.71414535 41.4477759 C674.1510338 41.44773677 671.58792225 41.44770419 669.0248107 41.44767293 C629.80424588 41.44716313 590.58368658 41.44285123 551.36312461 41.42716718 C550.09375257 41.42666011 550.09375257 41.42666011 548.79873666 41.42614281 C535.1851218 41.42068476 521.57150707 41.41492784 507.95789235 41.40913959 C469.32386062 41.39272318 430.68983588 41.37888954 392.05580008 41.38295543 C391.27233791 41.38303688 390.48887574 41.38311834 389.6816723 41.38320226 C372.59150218 41.38503193 355.50133263 41.38825945 338.41116304 41.3928586 C331.59575001 41.39467174 324.78033695 41.396302 317.96492386 41.39787483 C317.22146562 41.39805137 316.47800737 41.39822791 315.7120201 41.3984098 C292.10902966 41.40392773 268.50607915 41.39405779 244.90309641 41.37533815 C221.03178389 41.35647175 197.16054967 41.35477168 173.28923292 41.3741926 C159.69771319 41.38471264 146.1063628 41.38139765 132.51485806 41.35807384 C123.50436477 41.34396436 114.49399765 41.34777203 105.48351308 41.36655534 C100.36527724 41.37671168 95.24737546 41.37889756 90.12916027 41.35911978 C85.48927562 41.34133448 80.85000816 41.34637369 76.2101544 41.36994614 C74.54242163 41.37437614 72.8746404 41.37038356 71.20695508 41.35704676 C60.65398695 41.27829614 53.36475133 41.9013825 46.125 50.0625 Z " fill="#000000" transform="translate(0,0)"/>
<path d="M0 0 C0.76371968 -0.00406073 1.52743936 -0.00812145 2.31430206 -0.01230523 C4.89443269 -0.02231588 7.47402763 -0.01078723 10.05414677 0.00050831 C11.91417244 -0.00223005 13.77419658 -0.00628021 15.63421685 -0.01153535 C20.76188635 -0.0221639 25.88938261 -0.01396627 31.01704466 -0.00278485 C36.54064529 0.00602925 42.06422256 -0.00237827 47.58782291 -0.00864697 C58.41533308 -0.01815353 69.24277678 -0.01151878 80.07028203 0.00061598 C92.66943121 0.01421214 105.26856441 0.01260021 117.86771906 0.01048265 C141.02248491 0.00719347 164.17721684 0.02012101 187.33197073 0.04032768 C208.4792042 0.05869569 229.62640386 0.06451075 250.77364445 0.05905628 C252.13130629 0.05870985 253.48896813 0.05836375 254.84662997 0.05801799 C255.85342229 0.0577615 255.85342229 0.0577615 256.88055385 0.05749982 C260.25910671 0.05664631 263.63765958 0.05582252 267.01621246 0.05503082 C267.68271709 0.05487374 268.34922172 0.05471666 269.03592346 0.05455482 C286.69408053 0.0505665 304.35223468 0.05608343 322.01038986 0.06454211 C324.54086562 0.06574945 327.07134137 0.06695544 329.60181713 0.06816006 C330.84698305 0.0687636 332.09214897 0.06936713 333.37504719 0.06998896 C342.16470332 0.07387393 350.95435339 0.07347224 359.74400997 0.07157421 C370.45125574 0.06945544 381.15846896 0.0746521 391.86570554 0.08918776 C397.33243074 0.09644809 402.79910843 0.10049487 408.26583767 0.0959444 C413.26519089 0.09188411 418.2644458 0.09698733 423.26378406 0.10957048 C425.0773448 0.11251143 426.89091474 0.11204661 428.70447319 0.1079274 C431.16021771 0.10285384 433.61562905 0.10996375 436.0713501 0.12025452 C437.13964139 0.11365979 437.13964139 0.11365979 438.22951433 0.10693184 C441.8533888 0.13606525 444.51507462 0.39082368 447.59859562 2.37473011 C447.64527649 16.42162355 447.68043235 30.46850499 447.70221996 44.51546001 C447.71267482 51.03742499 447.72686499 57.55933801 447.74947453 64.08127308 C447.77114231 70.3706269 447.78315141 76.65993063 447.78835011 82.94931889 C447.79205679 85.35359073 447.79929459 87.75785971 447.81005573 90.16211033 C447.82449002 93.51934032 447.82657695 96.876361 447.8256464 100.23361683 C447.83283695 101.23630604 447.8400275 102.23899525 447.84743595 103.27206898 C447.84468662 104.18354694 447.84193729 105.09502491 447.83910465 106.03412342 C447.84187003 107.22600175 447.84187003 107.22600175 447.84469128 108.44195843 C447.59859562 110.37473011 447.59859562 110.37473011 445.59859562 112.37473011 C443.17652071 112.6231271 443.17652071 112.6231271 440.05821133 112.62082577 C438.87335813 112.62480786 437.68850493 112.62878996 436.46774709 112.63289273 C435.1545413 112.62706704 433.84133551 112.62124136 432.48833561 112.61523914 C431.08830138 112.61611057 429.68826747 112.61786038 428.28823531 112.62041748 C424.42757909 112.62490744 420.56703303 112.61686482 416.70639086 112.60686135 C412.54824123 112.59825278 408.3900982 112.60114517 404.23194218 112.6026659 C397.02318561 112.6037164 389.81446515 112.59742261 382.60571766 112.58619022 C372.18298611 112.56996048 361.76027208 112.56472981 351.33752926 112.56221424 C334.42877324 112.55783316 317.52003649 112.54451288 300.61129093 112.52560902 C284.18258096 112.50726089 267.75387624 112.49312209 251.32515812 112.48459339 C250.30276059 112.4840574 249.28036306 112.4835214 248.22698379 112.48296916 C240.23158337 112.47881051 232.23618284 112.47489659 224.24078226 112.47106004 C185.02670237 112.45218063 145.81267067 112.41194688 106.59859562 112.37473011 C106.59859562 174.41473011 106.59859562 236.45473011 106.59859562 300.37473011 C127.35379093 300.33992542 148.10898624 300.30512074 169.49312687 300.26926136 C182.60445574 300.25394145 195.71577914 300.23935809 208.82711124 300.22824574 C215.71163294 300.22237182 222.59615444 300.21631029 229.4806757 300.20993519 C230.77502874 300.20874832 230.77502874 300.20874832 232.09553033 300.20753747 C246.03940478 300.19447778 259.98324224 300.17081987 273.92709474 300.14327172 C288.22967387 300.11524983 302.53223359 300.09856068 316.83483905 300.09246463 C325.66538264 300.08834149 334.49582174 300.07530358 343.32633319 300.05098071 C349.37589761 300.03516318 355.42540775 300.03032068 361.47499136 300.03422598 C364.96901951 300.03615377 368.46286466 300.03313044 371.95686054 300.01711369 C375.73946826 300.00228878 379.52162108 300.00574013 383.30423832 300.01396656 C384.4160929 300.00522804 385.52794749 299.99648951 386.67349464 299.98748618 C387.68268571 299.99345933 388.69187678 299.99943247 389.7316494 300.00558662 C390.60538588 300.00444746 391.47912236 300.0033083 392.3793357 300.00213462 C395.07553968 300.4548051 395.95869815 301.22638427 397.59859562 303.37473011 C397.97332573 305.30002403 397.97332573 305.30002403 397.97281742 307.51842213 C397.97983173 308.36107121 397.98684605 309.20372028 397.99407291 310.07190418 C397.98642918 310.99305012 397.97878544 311.91419605 397.97091007 312.8632555 C397.97456074 313.83583805 397.9782114 314.8084206 397.98197269 315.81047535 C397.99009117 319.03128893 397.97645807 322.25160151 397.96187687 325.47238636 C397.96135846 327.70533212 397.96187541 329.93827834 397.96338749 332.17122364 C397.96329771 336.85281651 397.95285577 341.53423737 397.93477726 346.21579456 C397.91207689 352.22752342 397.91154778 358.2390011 397.91829491 364.25076103 C397.9216303 368.86172705 397.91501313 373.47263541 397.90516567 378.08359051 C397.90130694 380.30084844 397.90016823 382.51811277 397.90175152 384.7353735 C397.90212085 387.82890727 397.88953946 390.92211437 397.87325382 394.01559925 C397.87696995 395.4003545 397.87696995 395.4003545 397.88076115 396.8130846 C397.87367634 397.65291386 397.86659153 398.49274311 397.85929203 399.35802174 C397.85723916 400.08971608 397.85518629 400.82141043 397.85307121 401.57527733 C397.59859562 403.37473011 397.59859562 403.37473011 395.59859562 405.37473011 C393.49712217 405.6231271 393.49712217 405.6231271 390.83907986 405.62082577 C389.82839644 405.62480786 388.81771302 405.62878996 387.77640283 405.63289273 C386.65774446 405.62706704 385.53908608 405.62124136 384.38652897 405.61523914 C383.20467349 405.61694799 382.02281801 405.61865684 380.80514872 405.62041748 C377.51452455 405.62315088 374.22413611 405.61686739 370.93354034 405.60686135 C367.38889338 405.5982502 363.84425412 405.60114535 360.29959965 405.6026659 C354.15488669 405.60371624 348.0102161 405.59742416 341.8655138 405.58619022 C332.98123638 405.56995826 324.09697952 405.56472958 315.21268888 405.56221424 C300.79964617 405.55783351 286.38662605 405.54451418 271.97359562 405.52560902 C257.97001602 405.50725998 243.96644259 405.49312163 229.96285343 405.48459339 C228.65556986 405.4837894 228.65556986 405.4837894 227.32187653 405.48296916 C220.50632424 405.47881049 213.69077182 405.47489658 206.87521935 405.47106004 C173.44965736 405.45218173 140.02415193 405.41194773 106.59859562 405.37473011 C106.59859562 469.72473011 106.59859562 534.07473011 106.59859562 600.37473011 C130.96316593 600.35152699 155.32773624 600.32832386 180.43062687 600.30441761 C195.82060111 600.29420453 211.21057328 600.28448231 226.60054874 600.27707386 C234.68135937 600.2731579 242.76216992 600.26911687 250.84298038 600.26486683 C252.36225355 600.26407558 252.36225355 600.26407558 253.91221911 600.26326835 C270.28060855 600.25456113 286.648984 600.23878876 303.01736514 600.22042452 C319.80597298 600.2017454 336.59457348 600.1906176 353.38319129 600.18655312 C363.74917984 600.18380393 374.11512885 600.17510956 384.48110523 600.15889718 C391.58190156 600.14835481 398.68267733 600.14512323 405.78348092 600.14772736 C409.88504442 600.14901295 413.98653864 600.14699225 418.08808994 600.13631916 C421.83909116 600.12662914 425.5899761 600.12606734 429.34098252 600.13293232 C431.34894166 600.13418544 433.35689933 600.12552157 435.3648389 600.11656749 C437.13988017 600.12254064 437.13988017 600.12254064 438.95078087 600.12863445 C439.97640548 600.12787501 441.00203009 600.12711557 442.05873424 600.12633312 C444.59859562 600.37473011 444.59859562 600.37473011 447.59859562 602.37473011 C447.97332573 604.2862978 447.97332573 604.2862978 447.97281742 606.66391468 C447.97983173 607.56408817 447.98684605 608.46426167 447.99407291 609.39171314 C447.98642918 610.38190952 447.97878544 611.3721059 447.97091007 612.39230824 C447.97456074 613.43301975 447.9782114 614.47373127 447.98197269 615.5459795 C447.99010451 618.99947703 447.97644599 622.45250922 447.96187687 625.90598011 C447.96135858 628.29729684 447.96187507 630.688614 447.96338749 633.07993031 C447.96329765 638.09704397 447.95284376 643.11399734 447.93477726 648.13107777 C447.91208981 654.57441662 447.91154475 661.01752106 447.91829491 667.46088886 C447.92163033 672.40040656 447.91501285 677.33987044 447.90516567 682.27937794 C447.90130601 684.65572802 447.90016861 687.03208408 447.90175152 689.40843678 C447.9021208 692.724792 447.88954021 696.04084238 447.87325382 699.35715199 C447.87696995 700.84244656 447.87696995 700.84244656 447.88076115 702.35774708 C447.87367634 703.25792057 447.86659153 704.15809406 447.85929203 705.08554554 C447.85723916 705.87015911 447.85518629 706.65477268 447.85307121 707.46316242 C447.59859562 709.37473011 447.59859562 709.37473011 445.59859562 711.37473011 C443.118233 711.57259067 440.74941792 711.64430561 438.26780033 711.6292057 C437.49957018 711.63241218 436.73134003 711.63561866 435.93983018 711.6389223 C433.33846256 711.64729316 430.73732096 711.64127349 428.13594913 711.63542652 C426.26298749 711.63844398 424.39002707 711.6423314 422.51706886 711.64701909 C417.34911326 711.6573601 412.18122655 711.65510185 407.01326513 711.65083849 C401.44810347 711.64838229 395.88295889 711.65737156 390.31780338 711.66487598 C379.40729126 711.67765563 368.4968037 711.67941265 357.58628535 711.67707572 C348.72288313 711.67529616 339.8594884 711.67703441 330.99608707 711.68130016 C329.7369215 711.68189535 328.47775592 711.68249054 327.18043381 711.68310377 C324.62285034 711.68431545 322.06526687 711.68552959 319.5076834 711.68674614 C302.32352465 711.69453885 285.13936874 711.6984486 267.95520878 711.6944294 C267.28277269 711.69427302 266.6103366 711.69411665 265.91752366 711.69395553 C262.50908786 711.69314971 259.10065207 711.69230394 255.69221628 711.69144223 C254.67676498 711.6911856 254.67676498 711.6911856 253.64079951 711.69092378 C252.27180608 711.69057713 250.90281264 711.6902286 249.53381921 711.68987819 C228.22564238 711.68451932 206.91750692 711.69245451 185.60933781 711.71091175 C161.68835187 711.73160779 137.76739139 711.74232801 113.84639359 711.73833627 C101.17353897 711.73641937 88.50072206 711.73895917 75.82787418 711.7530508 C65.04039167 711.7649241 54.25297005 711.76641523 43.46548676 711.75426064 C37.9564606 711.74834352 32.44754605 711.74735013 26.93852711 711.75926304 C21.90281272 711.77002637 16.86730442 711.76713377 11.83160007 711.75300135 C10.00256516 711.75032785 8.17351459 711.75280289 6.34449494 711.76073722 C3.87253888 711.77072256 1.40131616 711.76252637 -1.07060909 711.74946022 C-1.7931562 711.75676957 -2.51570331 711.76407891 -3.26014578 711.77160975 C-5.24424744 711.74962693 -5.24424744 711.74962693 -8.40140438 711.37473011 C-10.56950565 708.12257821 -10.65171773 707.24065259 -10.65325338 703.48510599 C-10.66114827 701.96030749 -10.66114827 701.96030749 -10.66920266 700.40470499 C-10.66480617 699.28238004 -10.66040969 698.16005508 -10.65587997 697.00372028 C-10.65908645 695.81085409 -10.66229293 694.6179879 -10.66559657 693.38897425 C-10.67250067 690.05736994 -10.67037231 686.72598686 -10.66454085 683.39439458 C-10.66038747 679.77769487 -10.66776283 676.16101622 -10.67369336 672.54432154 C-10.6824787 666.19881279 -10.68375922 659.85333631 -10.68019009 653.50782299 C-10.6748967 644.07205093 -10.68096456 634.63631027 -10.68927302 625.20054163 C-10.70454017 607.37076456 -10.70621533 589.54100166 -10.70374999 571.71121943 C-10.70191975 557.94701091 -10.70367128 544.18280706 -10.70797443 530.41859913 C-10.70857682 528.44349101 -10.70917802 526.4683829 -10.70977804 524.49327478 C-10.71068526 521.51725383 -10.71159392 518.54123289 -10.71251039 515.56521194 C-10.72094396 487.88414627 -10.72527279 460.20308235 -10.72110367 432.52201557 C-10.72094729 431.47777279 -10.72079092 430.43353001 -10.7206298 429.35764351 C-10.71982398 424.06459263 -10.71897821 418.77154176 -10.7181165 413.47849089 C-10.71794541 412.42720904 -10.71777432 411.37592718 -10.71759805 410.2927883 C-10.7172514 408.16684001 -10.71690287 406.04089171 -10.71655247 403.91494342 C-10.71119359 370.82486829 -10.71912877 337.7348198 -10.73758602 304.64474964 C-10.75828184 267.49756895 -10.76903342 230.35040476 -10.76501054 193.20321798 C-10.76461517 189.24576569 -10.76425362 185.28831339 -10.76391315 181.33086109 C-10.76377706 179.86914211 -10.76377706 179.86914211 -10.76363821 178.37789346 C-10.76247015 163.63970542 -10.76913631 148.90153399 -10.77972507 134.16335011 C-10.79174824 117.41121862 -10.7933694 100.65912384 -10.78093491 83.90699184 C-10.77428188 74.52275606 -10.7759933 65.13860792 -10.78952342 55.75437906 C-10.79772353 49.49538551 -10.79512868 43.23645811 -10.78354815 36.97747001 C-10.77724731 33.40508452 -10.77580391 29.83287092 -10.78741149 26.26049489 C-10.79976928 22.422155 -10.78920088 18.58408233 -10.77613449 14.74573994 C-10.78344384 13.62341498 -10.79075318 12.50109003 -10.79828402 11.34475523 C-10.79102969 10.3282229 -10.78377536 9.31169057 -10.77630121 8.26435423 C-10.77632167 7.38576267 -10.77634213 6.50717111 -10.77636321 5.60195556 C-9.76751932 -0.39049644 -5.08276479 -0.05199419 0 0 Z " fill="#000000" transform="translate(2014.4014043807983,250.62526988983154)"/>
<path d="M0 0 C11.12026569 9.96879044 21.37740186 20.64516893 30.03710938 32.82617188 C30.5145459 33.49696777 30.99198242 34.16776367 31.48388672 34.85888672 C56.3669941 70.22249691 71.25405885 109.61921225 71.28710938 153.07617188 C71.28778412 153.87507843 71.28845886 154.67398499 71.28915405 155.49710083 C71.27178218 168.48135512 70.60651425 181.06437652 68.03710938 193.82617188 C67.86550293 194.69161621 67.69389648 195.55706055 67.51708984 196.44873047 C62.58947054 220.53197442 54.65320483 245.18154053 38.03710938 263.82617188 C37.13110507 264.91819729 36.22904107 266.01349894 35.33007812 267.11132812 C26.29917668 278.05067486 16.01129102 289.04432385 4.03710938 296.82617188 C3.37710937 296.82617188 2.71710938 296.82617188 2.03710938 296.82617188 C5.00676996 299.99380983 8.11231544 302.71688638 11.53710938 305.38867188 C48.12338559 334.34144784 68.48295404 373.41634726 77.03710938 418.82617188 C77.1727832 419.54434082 77.30845703 420.26250977 77.44824219 421.00244141 C83.9167772 457.43578159 78.54718734 499.36901321 66.03710938 533.82617188 C65.79879395 534.48617187 65.56047852 535.14617188 65.31494141 535.82617188 C47.19158277 585.18340392 9.31581794 625.61714023 -38.14648438 648.09179688 C-44.32378682 650.93056736 -50.57026268 653.51789631 -56.96289062 655.82617188 C-57.65125 656.07608887 -58.33960938 656.32600586 -59.04882812 656.58349609 C-80.21285169 664.11410646 -102.560286 667.83982769 -124.96289062 668.82617188 C-126.09678223 668.87676758 -127.23067383 668.92736328 -128.39892578 668.97949219 C-147.88952696 669.71140994 -165.92297606 667.81471091 -184.96289062 663.82617188 C-185.76243164 663.66101074 -186.56197266 663.49584961 -187.38574219 663.32568359 C-213.73995411 657.66761099 -238.23311358 644.4024304 -259.96289062 628.82617188 C-260.87578857 628.17793457 -260.87578857 628.17793457 -261.80712891 627.51660156 C-302.13536392 598.51980323 -325.57088926 554.28188456 -336.40039062 506.63867188 C-336.77127808 505.01010254 -336.77127808 505.01010254 -337.1496582 503.34863281 C-338.75603564 495.85946395 -339.55189703 488.47127673 -339.96289062 480.82617188 C-337.64466209 479.66705761 -336.2995123 479.6932163 -333.71839905 479.67900085 C-332.82808487 479.67184555 -331.93777069 479.66469025 -331.02047729 479.65731812 C-329.5515654 479.65328476 -329.5515654 479.65328476 -328.05297852 479.64916992 C-326.50895103 479.63931313 -326.50895103 479.63931313 -324.93373108 479.6292572 C-321.51766901 479.60949906 -318.10165088 479.59785776 -314.68554688 479.58789062 C-313.52167387 479.5838151 -312.35780087 479.57973957 -311.15865898 479.57554054 C-305.00201468 479.55467194 -298.84539274 479.54037199 -292.6887207 479.53100586 C-286.31489429 479.51992236 -279.94141517 479.48550209 -273.56771183 479.44583416 C-268.6787804 479.41975429 -263.78993292 479.41132185 -258.90093803 479.40772438 C-256.55050745 479.40283832 -254.2000811 479.39116749 -251.84971809 479.37268639 C-248.56692654 479.34847224 -245.2850498 479.34922733 -242.00219727 479.35620117 C-241.0249469 479.34339111 -240.04769653 479.33058105 -239.04083252 479.31738281 C-237.70113152 479.32779854 -237.70113152 479.32779854 -236.33436584 479.33842468 C-235.55804841 479.33603633 -234.78173098 479.33364798 -233.98188877 479.33118725 C-231.14159255 480.02752417 -230.45161649 481.37381254 -228.96289062 483.82617188 C-227.84944786 486.25319522 -226.79616069 488.67385675 -225.77539062 491.13867188 C-214.64279875 517.10877745 -198.83524583 539.37248671 -172.03613281 551.01953125 C-146.27813051 561.04125047 -117.13223226 560.55934044 -91.81787109 549.65429688 C-81.41265832 545.00906369 -72.73934801 538.96228184 -63.96289062 531.82617188 C-63.29644531 531.32601562 -62.63 530.82585938 -61.94335938 530.31054688 C-44.90525122 517.06311852 -35.69962271 493.56618347 -32.96289062 472.82617188 C-32.51065446 467.37351513 -32.48773877 461.91625801 -32.5168457 456.44799805 C-32.52534854 454.02566085 -32.49647162 451.60569997 -32.46484375 449.18359375 C-32.3506799 423.7393866 -40.49490576 399.09248372 -58.20898438 380.39257812 C-79.21284255 360.81876986 -103.95022784 349.52921099 -132.83789062 349.55273438 C-134.80375021 349.53764244 -136.76960994 349.52252786 -138.73545837 349.5060482 C-143.53468932 349.46848427 -148.33393428 349.45107168 -153.13330078 349.4453125 C-155.84702653 349.44127434 -158.56032016 349.42676801 -161.27392578 349.40097046 C-163.81907415 349.37750742 -166.3644325 349.37017199 -168.90966797 349.38052368 C-170.05516113 349.36726044 -171.2006543 349.35399719 -172.38085938 349.34033203 C-173.38914795 349.33748199 -174.39743652 349.33463196 -175.4362793 349.33169556 C-177.96289062 348.82617188 -177.96289062 348.82617188 -179.7875061 347.34727478 C-181.52304124 343.62469498 -181.38014091 340.00060786 -181.35107422 335.97436523 C-181.35895966 334.63472466 -181.35895966 334.63472466 -181.36700439 333.26802063 C-181.38020396 330.3171742 -181.37146715 327.36686751 -181.36132812 324.41601562 C-181.36334869 322.36625566 -181.36625998 320.31649639 -181.37002563 318.26673889 C-181.37444878 313.97194572 -181.36801748 309.67733977 -181.35400391 305.38256836 C-181.33690133 299.87197715 -181.34676017 294.36182392 -181.3647213 288.85124874 C-181.37555013 284.61939683 -181.37211711 280.38764916 -181.36433792 276.15579414 C-181.36233398 274.12357087 -181.36480195 272.09133819 -181.37177658 270.0591259 C-181.37937738 267.22202263 -181.36780659 264.38563389 -181.35107422 261.54858398 C-181.35714691 260.70538605 -181.3632196 259.86218811 -181.36947632 258.99343872 C-181.30659602 253.2517567 -181.30659602 253.2517567 -179.57744122 251.11067295 C-177.37246507 249.35644224 -175.93287476 249.44806935 -173.13452148 249.44140625 C-172.15176743 249.43129517 -171.16901337 249.42118408 -170.15647888 249.4107666 C-169.09099319 249.41378784 -168.02550751 249.41680908 -166.92773438 249.41992188 C-165.82047501 249.40908569 -164.71321564 249.39824951 -163.57240295 249.38708496 C-160.01500753 249.35275575 -156.45792985 249.3372448 -152.90039062 249.32617188 C-124.9782743 249.41954325 -124.9782743 249.41954325 -98.08789062 242.57617188 C-96.90332275 242.11839355 -96.90332275 242.11839355 -95.69482422 241.65136719 C-74.99126496 233.41396659 -58.77664844 218.90663017 -48.96289062 198.82617188 C-48.41181641 197.77236328 -48.41181641 197.77236328 -47.84960938 196.69726562 C-37.16115675 174.94894696 -37.31581485 147.27996183 -44.86206055 124.6574707 C-53.68544604 100.1164096 -72.59587502 80.84987122 -95.96289062 69.82617188 C-115.25331576 61.39430194 -140.36585478 58.71703072 -160.56835938 65.44335938 C-161.68855469 65.8996875 -162.80875 66.35601562 -163.96289062 66.82617188 C-164.63143066 67.09461914 -165.2999707 67.36306641 -165.98876953 67.63964844 C-176.66541126 72.01893869 -185.91392284 77.7039805 -194.96289062 84.82617188 C-195.80464844 85.47199219 -196.64640625 86.1178125 -197.51367188 86.78320312 C-212.70869483 99.24889553 -219.7916536 118.40276864 -224.76367188 136.78710938 C-225.01503906 137.686875 -225.26640625 138.58664062 -225.52539062 139.51367188 C-225.73292969 140.30128906 -225.94046875 141.08890625 -226.15429688 141.90039062 C-226.96289062 143.82617188 -226.96289062 143.82617188 -229.96289062 145.82617188 C-231.93224335 146.08064747 -231.93224335 146.08064747 -234.21374512 146.08686829 C-235.51341469 146.0974955 -235.51341469 146.0974955 -236.83934021 146.1083374 C-237.78696732 146.10585999 -238.73459442 146.10338257 -239.7109375 146.10083008 C-240.71117447 146.10594101 -241.71141144 146.11105194 -242.74195862 146.11631775 C-246.05524645 146.13024213 -249.36832697 146.12925499 -252.68164062 146.12695312 C-254.97945229 146.13083814 -257.27726324 146.13517241 -259.57507324 146.13993835 C-264.39365974 146.14740645 -269.21217298 146.14710475 -274.03076172 146.1418457 C-280.21506928 146.13604667 -286.39907779 146.15298989 -292.58333588 146.17619038 C-297.32901776 146.19089868 -302.07462712 146.19180344 -306.82032776 146.18868065 C-309.10096327 146.1891952 -311.3816027 146.19445793 -313.66221619 146.20449257 C-316.84662509 146.21678495 -320.03044476 146.21010875 -323.21484375 146.19848633 C-324.16247086 146.20613007 -325.11009796 146.2137738 -326.08644104 146.22164917 C-326.95288742 146.21463486 -327.8193338 146.20762054 -328.71203613 146.20039368 C-329.46493172 146.20056142 -330.2178273 146.20072916 -330.9935379 146.20090199 C-333.50722759 145.72259498 -334.40060715 144.81380412 -335.96289062 142.82617188 C-341.69132922 109.69207551 -320.17459534 67.22111067 -302.09204102 41.09375 C-288.86133112 22.44661361 -273.05794951 4.84051516 -254.96289062 -9.17382812 C-254.40472656 -9.60840332 -253.8465625 -10.04297852 -253.27148438 -10.49072266 C-228.68424509 -29.50530469 -200.56792924 -41.8662125 -169.96289062 -47.17382812 C-169.29563965 -47.29242188 -168.62838867 -47.41101563 -167.94091797 -47.53320312 C-108.68162305 -57.58171339 -45.06883263 -39.19609235 0 0 Z " fill="#000000" transform="translate(1802.962890625,299.173828125)"/>
<path d="M0 0 C0.95900208 -0.00990463 1.91800415 -0.01980927 2.90606689 -0.03001404 C4.48179474 -0.02326157 4.48179474 -0.02326157 6.08935547 -0.01637268 C7.19688171 -0.02323593 8.30440796 -0.03009918 9.44549561 -0.03717041 C13.11597417 -0.05551106 16.78602831 -0.05159074 20.45654297 -0.0459137 C23.00097799 -0.0504717 25.54541177 -0.05577613 28.08984375 -0.0617981 C33.42632625 -0.0707433 38.76265318 -0.06852243 44.09912109 -0.05836487 C50.26987632 -0.04687894 56.44019717 -0.06096549 62.61089516 -0.08776134 C68.54561655 -0.11256858 74.4802026 -0.11510027 80.41497803 -0.10864449 C82.9412305 -0.10849071 85.46749112 -0.11458073 87.99371338 -0.12693596 C91.52071795 -0.14175529 95.04675685 -0.13123501 98.57373047 -0.11402893 C99.6242157 -0.1236969 100.67470093 -0.13336487 101.75701904 -0.14332581 C102.71602112 -0.13349167 103.67502319 -0.12365753 104.66308594 -0.11352539 C105.4970993 -0.11331611 106.33111267 -0.11310682 107.19039917 -0.1128912 C109.33154297 0.38768005 109.33154297 0.38768005 110.94229299 1.8025524 C113.10829936 5.83307466 112.73798756 9.74399191 112.70068645 14.25029373 C112.70587875 15.77675311 112.70587875 15.77675311 112.71117595 17.33405006 C112.71916811 20.77185144 112.70561519 24.20923817 112.69230652 27.64701843 C112.69361376 30.12535188 112.69623867 32.60368493 112.70007402 35.08201575 C112.7053983 40.48464216 112.7013539 45.88714251 112.68915939 51.28974915 C112.67107686 59.32324013 112.67014987 67.3566685 112.67278536 75.39017612 C112.6767301 88.90285433 112.66669134 102.41548858 112.64873314 115.92815399 C112.63099312 129.31090258 112.61943754 142.69363287 112.6161747 156.07639313 C112.61596848 156.90792624 112.61576226 157.73945935 112.61554979 158.59619043 C112.61453482 162.81898153 112.61363066 167.04177264 112.61276916 171.26456377 C112.60646488 201.18875302 112.5862443 231.11291835 112.55786133 261.03709412 C112.53031633 290.11131157 112.50906143 319.18552248 112.49633789 348.25975037 C112.49594331 349.15565781 112.49554873 350.05156525 112.4951422 350.9746214 C112.4911867 359.97154283 112.48735925 368.96846431 112.48362562 377.96538583 C112.47601661 396.29379334 112.46755285 414.62220042 112.45857239 432.9506073 C112.45795458 434.21472359 112.45795458 434.21472359 112.4573243 435.50437758 C112.42971382 491.79882178 112.38211492 548.09325239 112.33154297 604.38768005 C113.04945377 604.38616117 113.76736457 604.38464229 114.50703025 604.38307738 C157.02774969 604.29362374 199.54845892 604.22496353 242.06925355 604.18341874 C247.17133195 604.17841573 252.27341016 604.17323846 257.37548828 604.16795349 C258.39124806 604.16690425 259.40700784 604.16585501 260.45354822 604.16477397 C276.91465191 604.1473544 293.3756999 604.11580818 309.8367705 604.07906887 C326.71917161 604.0417026 343.60154347 604.01945335 360.48398423 604.01132607 C370.90683378 604.00582933 381.32952589 603.98844969 391.752327 603.95601419 C398.89332443 603.93491952 406.03424012 603.92846852 413.17526647 603.93367454 C417.29931275 603.93624422 421.42308336 603.93222205 425.54708099 603.91085815 C429.31983291 603.89145593 433.09212261 603.89036832 436.86489537 603.90408447 C438.88207777 603.90658665 440.89925439 603.8892779 442.91635871 603.87135482 C444.1086774 603.87931901 445.30099609 603.88728321 446.52944565 603.89548874 C448.07642627 603.89321042 448.07642627 603.89321042 449.65465903 603.89088607 C453.03654047 604.51851819 454.22029673 605.72841337 456.33154297 608.38768005 C456.83211422 610.50852203 456.83211422 610.50852203 456.83274841 612.82798767 C456.84258255 613.71119186 456.85241669 614.59439606 456.86254883 615.50436401 C456.85288086 616.46552628 456.84321289 617.42668854 456.83325195 618.41697693 C456.84135643 619.94440269 456.84135643 619.94440269 456.84962463 621.50268555 C456.86213873 624.87089543 456.84560242 628.23825505 456.82763672 631.60643005 C456.82779164 633.94525701 456.82927954 636.28408422 456.83204651 638.62290955 C456.83343171 643.52557214 456.82085178 648.42794261 456.7980957 653.33055115 C456.76971107 659.61901837 456.77244696 665.90700009 456.78518581 672.19550323 C456.79213641 677.02531592 456.78436072 681.85501613 456.77192879 686.68481445 C456.76740829 689.00368824 456.76708269 691.32257408 456.77099419 693.64144897 C456.77390026 696.88067939 456.7574276 700.11923763 456.7355957 703.35838318 C456.74234818 704.80012657 456.74234818 704.80012657 456.74923706 706.27099609 C456.73933243 707.15420029 456.7294278 708.03740448 456.71922302 708.94737244 C456.71557818 710.09550793 456.71557818 710.09550793 456.7118597 711.26683807 C456.1939526 714.15495483 455.44528606 715.32631192 453.33154297 717.38768005 C450.68451199 717.78731801 448.44882297 717.92337256 445.799613 717.8882513 C444.63287421 717.89652255 444.63287421 717.89652255 443.44256493 717.9049609 C440.81433502 717.9186468 438.18703613 717.90361069 435.55882263 717.8888855 C433.66437123 717.89277511 431.76992274 717.89841281 429.87548119 717.9056564 C424.65269514 717.92047775 419.43020854 717.91019033 414.20743191 717.89591968 C408.58161152 717.88485166 402.95583459 717.89673859 397.33001709 717.90576172 C386.3026331 717.91972445 375.27536329 717.91211578 364.2479847 717.89708614 C351.41844033 717.88026289 338.5889247 717.8834316 325.75937272 717.88718022 C302.18398603 717.89324221 278.60867326 717.87743483 255.03330474 717.85199258 C233.49671198 717.82887374 211.96018635 717.82348991 190.42358398 717.83372498 C184.90868095 717.83632684 179.3937779 717.8389118 173.87887478 717.8413229 C172.86055376 717.84176907 172.86055376 717.84176907 171.82166059 717.84222425 C153.8423824 717.84983309 135.8631118 717.8433734 117.88383538 717.83262688 C115.30789793 717.83110097 112.73196048 717.82958061 110.15602303 717.82806587 C108.8884628 717.82730806 107.62090257 717.82655024 106.31493143 717.82576947 C97.3620278 717.82101738 88.4091393 717.82288459 79.45623589 717.82713127 C68.55348606 717.83204662 57.65080581 717.82612422 46.74807196 717.80623697 C41.18031226 717.79633287 35.61265872 717.79129332 30.04489326 717.79912949 C24.9555474 717.80614603 19.8664165 717.79947686 14.77709914 717.78152586 C12.92858275 717.77745506 11.08004701 717.77852477 9.23153763 717.78504472 C6.7333063 717.79310723 4.23581488 717.78299131 1.7376318 717.76799679 C0.64220732 717.77810326 0.64220732 717.77810326 -0.47534695 717.78841391 C-2.48039061 717.76487821 -2.48039061 717.76487821 -5.66845703 717.38768005 C-7.84244187 714.1267028 -7.9187776 713.22930727 -7.92030603 709.45958376 C-7.92556929 708.43445092 -7.93083255 707.40931809 -7.93625531 706.35312063 C-7.93185882 705.2211696 -7.92746234 704.08921857 -7.92293262 702.922966 C-7.9261391 701.71996957 -7.92934558 700.51697314 -7.93264922 699.27752227 C-7.93955351 695.91750751 -7.93742484 692.5577121 -7.9315935 689.19770928 C-7.92744023 685.55021152 -7.93481542 681.90273465 -7.94074601 678.25524187 C-7.94953146 671.85565892 -7.95081183 665.45610795 -7.94724274 659.05652046 C-7.94194942 649.54034097 -7.94801715 640.02419261 -7.95632567 630.50801651 C-7.97159292 612.52631072 -7.97326797 594.54461897 -7.97080264 576.56290805 C-7.96897241 562.68142264 -7.97072391 548.79994186 -7.97502708 534.91845703 C-7.97562947 532.92652854 -7.97623067 530.93460006 -7.97683069 528.94267157 C-7.97773791 525.94130721 -7.97864657 522.93994285 -7.97956304 519.93857849 C-7.98799663 492.02173776 -7.99232543 464.10489877 -7.98815632 436.18805695 C-7.98799994 435.134917 -7.98784357 434.08177706 -7.98768245 432.99672379 C-7.98687663 427.65857361 -7.98603086 422.32042345 -7.98516915 416.98227328 C-7.98499806 415.92203379 -7.98482697 414.8617943 -7.9846507 413.76942634 C-7.98430405 411.62536351 -7.98395552 409.48130067 -7.98360512 407.33723784 C-7.97824623 373.96520683 -7.98618142 340.59320223 -8.00463867 307.22117615 C-8.02533444 269.75756921 -8.03608608 232.29397864 -8.03206319 194.83036566 C-8.03166782 190.83921147 -8.03130627 186.84805727 -8.03096581 182.85690308 C-8.03087507 181.87412485 -8.03078434 180.89134663 -8.03069086 179.87878725 C-8.02952279 165.01500983 -8.03618901 150.15124889 -8.04677773 135.28747559 C-8.05880083 118.39261277 -8.06042212 101.49778636 -8.04798756 84.60292304 C-8.04133448 75.13870326 -8.04304608 65.67457039 -8.05657607 56.21035748 C-8.06477607 49.89804887 -8.06218147 43.58580585 -8.05060081 37.27350265 C-8.04429985 33.67066642 -8.04285685 30.06800063 -8.05446414 26.46517378 C-8.06682149 22.59415973 -8.05625379 18.72341065 -8.04318714 14.8523941 C-8.05049649 13.72044308 -8.05780583 12.58849205 -8.06533667 11.42223948 C-8.05808234 10.39710665 -8.05082801 9.37197381 -8.04335386 8.31577635 C-8.04337432 7.42969772 -8.04339478 6.54361909 -8.04341586 5.63068959 C-7.25005344 0.88478332 -4.40699424 0.01283976 0 0 Z " fill="#000000" transform="translate(731.66845703125,249.61231994628906)"/>
<path d="M0 0 C16.38894328 14.03842378 28.181035 34.17754002 35.03955078 54.43847656 C35.68002414 56.30510415 36.36787656 58.15528124 37.05859375 60.00390625 C43.5751297 78.5829662 44.86293163 98.984436 46.47630882 118.50330734 C46.63828491 120.45060633 46.80378847 122.39761503 46.9727726 124.34431839 C48.46374893 141.63629442 49.00423101 158.7779531 48.94921875 176.12890625 C48.94802102 178.6855975 48.94757503 181.2422892 48.9478302 183.79898071 C48.94628327 189.10478073 48.93838876 194.41052819 48.92456055 199.71630859 C48.90879944 205.78481074 48.90356495 211.8532493 48.9042961 217.92177045 C48.90491344 223.85432446 48.89963358 229.78686085 48.89150429 235.71940994 C48.88836393 238.20286566 48.88636131 240.68632314 48.88561058 243.16978073 C48.87396809 261.5309208 48.55751072 279.87006391 46.90625 298.16796875 C46.78648804 299.52305542 46.78648804 299.52305542 46.66430664 300.90551758 C45.82258327 309.99027322 44.74764387 319.0479702 43.65625 328.10546875 C43.5683017 328.83882446 43.48035339 329.57218018 43.38973999 330.32775879 C43.13688771 332.42466302 42.87989328 334.52100977 42.62109375 336.6171875 C42.47148193 337.83237061 42.32187012 339.04755371 42.16772461 340.29956055 C41.81565435 342.74490771 41.38718585 345.04478235 40.71875 347.41796875 C36.19564648 345.93277058 32.8596864 343.38603484 29.21875 340.41796875 C27.96403787 339.4134424 26.70881892 338.4095488 25.453125 337.40625 C24.82470703 336.90174316 24.19628906 336.39723633 23.54882812 335.87744141 C20.88220578 333.75083143 18.17748319 331.67826838 15.46875 329.60546875 C5.3055044 321.8124389 -4.80703726 313.95204476 -14.8671875 306.02636719 C-16.00610241 305.13030913 -17.14669491 304.23637868 -18.2890625 303.34472656 C-21.15573297 301.10597749 -23.99016292 298.83872718 -26.7890625 296.515625 C-27.93228266 295.5872285 -29.07551151 294.65884268 -30.21875 293.73046875 C-31.71728516 292.48716797 -31.71728516 292.48716797 -33.24609375 291.21875 C-37.03362234 288.97158053 -38.94982194 288.60521764 -43.28125 289.41796875 C-45.55540035 291.44285499 -47.15579919 293.1623768 -48.96875 295.54296875 C-50.01377111 296.83768517 -51.0593599 298.13194355 -52.10546875 299.42578125 C-52.63188965 300.09125977 -53.15831055 300.75673828 -53.70068359 301.44238281 C-56.14890268 304.50246759 -58.71595965 307.45604473 -61.28125 310.41796875 C-62.28190759 311.58407144 -63.28190598 312.75074013 -64.28125 313.91796875 C-82.28125 334.91796875 -82.28125 334.91796875 -83.78320312 336.67016602 C-84.77680008 337.82941644 -85.77029078 338.98875795 -86.76367188 340.14819336 C-89.36074595 343.17910849 -91.95999713 346.20811944 -94.5625 349.234375 C-95.10132813 349.86150391 -95.64015625 350.48863281 -96.1953125 351.13476562 C-97.22066633 352.32806534 -98.24666414 353.52081213 -99.2734375 354.71289062 C-100.61580683 356.275898 -101.94881664 357.84649333 -103.28125 359.41796875 C-104.41820312 360.73667969 -104.41820312 360.73667969 -105.578125 362.08203125 C-107.79450692 365.12193122 -107.99110027 367.71855964 -108.28125 371.41796875 C-107.70761719 371.6809375 -107.13398438 371.94390625 -106.54296875 372.21484375 C-104.13502422 373.4957538 -102.20897549 374.94583826 -100.09375 376.66796875 C-99.21976563 377.37824219 -98.34578125 378.08851563 -97.4453125 378.8203125 C-96.3903837 379.68590392 -95.33572028 380.55181882 -94.28125 381.41796875 C-93.64928711 381.93504395 -93.01732422 382.45211914 -92.36621094 382.98486328 C-84.43477696 389.47541383 -76.54734162 396.0127728 -68.74291992 402.65551758 C-64.8495044 405.96078536 -60.87777359 409.15319032 -56.875 412.32421875 C-53.80044962 414.80608472 -50.78962375 417.35663821 -47.78125 419.91796875 C-39.8195618 426.68964546 -31.6947001 433.21363683 -23.28125 439.41796875 C-24.49540745 443.06044109 -25.88571898 443.54038077 -29.19262695 445.22192383 C-30.22649536 445.72115356 -30.22649536 445.72115356 -31.28125 446.23046875 C-31.99821045 446.57940186 -32.7151709 446.92833496 -33.45385742 447.2878418 C-65.21733194 462.39077472 -104.03147192 464.57870531 -137.49291992 453.49902344 C-173.93350586 440.47713112 -199.82139982 412.12784664 -216.17919922 377.85205078 C-224.49993258 359.47417936 -227.93053965 340.49063796 -229.96875 320.54296875 C-230.08831055 319.39401123 -230.20787109 318.24505371 -230.33105469 317.0612793 C-233.15847463 286.55177901 -232.46905661 255.71022846 -232.46655273 225.10888672 C-232.46647158 219.99589493 -232.47341113 214.88299294 -232.48706055 209.77001953 C-232.67471069 138.39588104 -232.67471069 138.39588104 -228.56103516 103.90771484 C-228.23473833 101.00407173 -227.96739656 98.09707566 -227.69921875 95.1875 C-225.1791136 69.07614436 -218.38205952 42.66302031 -202.28125 21.41796875 C-201.74242187 20.66 -201.20359375 19.90203125 -200.6484375 19.12109375 C-182.63024917 -5.42542368 -153.02264549 -25.12368362 -123.27392578 -31.17529297 C-121.58315676 -31.52040706 -119.89821415 -31.893875 -118.21484375 -32.2734375 C-75.95561943 -40.49530019 -32.86946298 -26.22844834 0 0 Z " fill="#FEFEFE" transform="translate(417.28125,398.58203125)"/>
<path d="M0 0 C0.900103 -0.00845947 1.80020599 -0.01691895 2.72758484 -0.02563477 C3.7126149 -0.01956207 4.69764496 -0.01348938 5.71252441 -0.00723267 C7.27140129 -0.0151181 7.27140129 -0.0151181 8.86177063 -0.02316284 C12.30501227 -0.03639174 15.7477935 -0.02761429 19.19104004 -0.01748657 C21.57853281 -0.01950647 23.96602497 -0.0224172 26.35351562 -0.02618408 C31.36045193 -0.03061136 36.36722783 -0.02416323 41.37414551 -0.01016235 C47.80060341 0.00692956 54.22668547 -0.00290943 60.65312958 -0.02087975 C65.58411505 -0.03170656 70.51501102 -0.02827627 75.44599915 -0.02049637 C77.81594385 -0.01849132 80.18589661 -0.02096427 82.55583191 -0.02793503 C85.86479295 -0.03553121 89.17314046 -0.02397051 92.48205566 -0.00723267 C93.46708572 -0.01330536 94.45211578 -0.01937805 95.46699524 -0.02563477 C96.36709824 -0.01717529 97.26720123 -0.00871582 98.19458008 0 C99.36816952 0.00169662 99.36816952 0.00169662 100.56546783 0.00342751 C103.18677534 0.49048045 104.05703204 1.21983569 105.59729004 3.38095093 C105.97202015 5.41277313 105.97202015 5.41277313 105.97151184 7.78366089 C105.97852615 8.68376389 105.98554047 9.58386688 105.99276733 10.51124573 C105.9851236 11.49627579 105.97747986 12.48130585 105.96960449 13.4961853 C105.97325516 14.53543655 105.97690582 15.57468781 105.98066711 16.64543152 C105.98878848 20.08868635 105.97514899 23.53147293 105.96057129 26.97470093 C105.96005287 29.36219279 105.96056985 31.74968508 105.96208191 34.13717651 C105.96199211 39.14411785 105.9515477 44.15089841 105.93347168 49.1578064 C105.91078441 55.5842031 105.91023969 62.01036474 105.91698933 68.43679047 C105.92032666 73.36776834 105.91370364 78.29869237 105.90386009 83.22966003 C105.90000374 85.59960142 105.89886167 87.9695488 105.90044594 90.3394928 C105.90081572 93.64835068 105.88822064 96.95690426 105.87194824 100.26571655 C105.87442566 101.25074661 105.87690308 102.23577667 105.87945557 103.25065613 C105.87237076 104.15075912 105.86528595 105.05086212 105.85798645 105.97824097 C105.85490715 107.15183041 105.85490715 107.15183041 105.85176563 108.34912872 C105.59729004 110.38095093 105.59729004 110.38095093 103.59729004 113.38095093 C101.65448761 113.75847435 101.65448761 113.75847435 99.23217773 113.76190186 C97.85667503 113.77459106 97.85667503 113.77459106 96.4533844 113.78753662 C95.44448654 113.78146393 94.43558868 113.77539124 93.39611816 113.76913452 C91.80579018 113.77701996 91.80579018 113.77701996 90.18333435 113.7850647 C86.66492145 113.79831122 83.14695785 113.78950995 79.62854004 113.77938843 C77.19238192 113.78140782 74.7562244 113.78431812 72.32006836 113.78808594 C67.20880389 113.79251561 62.09769645 113.78605744 56.9864502 113.77206421 C50.42198437 113.75497216 43.85788646 113.76480988 37.29343414 113.7827816 C32.2612631 113.79360199 27.22917985 113.7901811 22.19700623 113.78239822 C19.77599545 113.78039139 17.35497681 113.78287232 14.93397522 113.78983688 C11.5552548 113.79742256 8.17713722 113.78588725 4.79846191 113.76913452 C3.78956406 113.77520721 2.7806662 113.78127991 1.74119568 113.78753662 C0.82419388 113.77907715 -0.09280792 113.77061768 -1.03759766 113.76190186 C-1.83695992 113.76077078 -2.63632217 113.7596397 -3.45990753 113.75847435 C-4.10103233 113.63389162 -4.74215714 113.50930889 -5.40270996 113.38095093 C-7.49120089 110.24821453 -7.6540566 109.54164017 -7.66340637 105.97824097 C-7.67049118 105.07813797 -7.67757599 104.17803497 -7.68487549 103.25065613 C-7.68239807 102.26562607 -7.67992065 101.28059601 -7.67736816 100.26571655 C-7.6824791 99.2264653 -7.68759003 98.18721405 -7.69285583 97.11647034 C-7.70678228 93.67332234 -7.70579292 90.23037378 -7.70349121 86.78720093 C-7.70737612 84.3997083 -7.71171036 82.01221637 -7.71647644 79.62472534 C-7.72394498 74.61782593 -7.72364251 69.61099703 -7.71838379 64.60409546 C-7.71258476 58.17765563 -7.72952779 51.7515036 -7.75272846 45.32511139 C-7.76743578 40.39413761 -7.76834166 35.46323365 -7.76521873 30.53224182 C-7.76573334 28.16229176 -7.77099702 25.79233793 -7.78103065 23.42240906 C-7.79332106 20.11347554 -7.78664795 16.80510925 -7.77502441 13.4961853 C-7.78266815 12.51115524 -7.79031189 11.52612518 -7.79818726 10.51124573 C-7.79117294 9.61114273 -7.78415863 8.71103973 -7.77693176 7.78366089 C-7.7770995 7.00126793 -7.77726725 6.21887497 -7.77744007 5.41277313 C-6.94785219 0.91466894 -4.21891151 0.00609913 0 0 Z " fill="#000000" transform="translate(1285.4027099609375,853.6190490722656)"/>
</svg>
