<svg version="1.2" xmlns="http://www.w3.org/2000/svg" viewBox="0 0 900 1300" width="900" height="1300">
	<title>Vietnam_road_sign_I441a-svg</title>
	<style>
		.s0 { fill: #0046aa } 
		.s1 { fill: #ffffff } 
	</style>
	<g id="layer1">
		<path id="blue" class="s0" d="m0 0h900v1300h-900z"/>
		<path id="white" class="s1" d="m5 5h890v1290h-890z"/>
		<path id="blue" class="s0" d="m15 15h870v1270h-870z"/>
		<path id="CONSTRUCTION" fill-rule="evenodd" class="s1" d="m121.2 1192.7v3.7q0 5.4-0.7 9.3-0.6 3.9-3.4 8.4-2.7 4.6-8.8 8.2-6.1 3.7-12.3 3.7-7.5 0-13.7-3.2-6.2-3.3-9.1-8.2-2.9-4.9-3.7-9-0.7-4.3-0.7-9.2v-58.5q0-4.7 0.9-8.4 1-3.8 4-8.2 3.1-4.5 8.5-7.5 5.6-3.2 11.7-3.2 11.7 0 19.5 7.7 7.8 7.8 7.8 19.6v6.2h-16.1v-6.2q0-4.7-2.6-7.9-2.6-3.1-7.7-3.1-4.8 0-7.4 3.1-2.6 3.2-2.6 7.9v58.5q0 2.3 0.1 4.5 0.1 2.2 2.2 5.6 2.3 3.4 7.8 3.4 6 0 7.8-3 1.8-3 2.1-4.4 0.3-1.5 0.3-4v-5.8zm17.8-70.4q3.9-5.5 9.9-8.5 6-3.2 12.4-3.2 6.3 0 11.8 2.6 5.6 2.5 9.2 7 3.7 4.4 5 8.9 1.3 4.6 1.3 10.1v57.7q0 5.2-0.9 9-0.9 3.8-4 8.6-3 4.7-9 8.1-5.9 3.4-12.9 3.4-7.9 0-14.7-4.1-6.7-4-9.3-9.2-2.7-5.2-3.2-8.4-0.5-3.1-0.5-7.4v-57.7q0-5.2 1.1-9.1 1.2-3.9 3.8-7.8zm31.5 8.9q-3.4-4.6-8.8-4.6-2.9 0-5.8 1.6-2.8 1.6-3.9 3.6-1 1.9-1.4 4-0.3 2-0.3 3.4v57.7q0 1.8 0.2 3.9 0.3 2 2.7 5.4 2.5 3.5 8.5 3.5 3 0 5.4-1.4 2.5-1.5 3.6-3.3 1.2-1.9 1.5-3.6 0.3-1.7 0.3-4.5v-57.7q0-3.4-0.2-4.8-0.3-1.4-1.8-3.2zm91.2 93.8h-15.1l-25.3-68.8v68.8h-16.2v-113.4h15.3l25.1 68.7v-68.7h16.2zm29.5-32.3v4.1q0 3.2 0.3 4.9 0.2 1.6 2.5 4.9 2.3 3.3 8.5 3.3 3.4 0 6.2-1.4 2.9-1.5 4.2-3.7 1.4-2.4 1.5-4.9 0.1-2.4 0.1-3.3v-7.9q0-3.4-0.3-5.1-0.2-1.8-2-3.7-1.8-2-5.1-3.5-3.3-1.7-11.5-4.8-8.3-3-13.9-9.6-5.6-6.5-5.6-17.9v-5.1q0-11.6 7.7-20 7.8-8.4 19.3-8.4 11.7 0 19.6 8.2 8 8.3 8 20.2v5.1h-16.2v-5.1q0-2.4-0.3-4.1-0.4-1.7-2.8-4.9-2.3-3.3-8-3.3-4.9 0-8 3.5-3.2 3.5-3.2 8.8v5.1q0 3.2 0.3 4.7 0.2 1.4 1.7 3.3 1.6 1.9 4.5 3.3 2.9 1.3 11.1 4.3 8.3 2.9 14.6 9.6 6.3 6.7 6.3 18.3v9.2q0 5.6-1.2 9.9-1.1 4.2-6.9 11.8-5.7 7.5-19.8 7.5-14.6 0-21.3-9.5-6.6-9.7-6.6-19.7v-4.1zm82.8 32.3h-16.2v-98.3h-19v-15.1h54.6v15.1h-19.4zm46.8 0h-16.2v-113.4h28.4q11.2 0 18.8 7.8 7.7 7.8 7.7 19.1v10.6q0 15.6-13.2 23.9l17.1 52h-17.1l-15.4-48.6h-10.1zm19.8-66.5q1.6-1.8 2.2-4.2 0.5-2.4 0.5-5.3v-10.5q0-5.3-2.9-8.6-2.9-3.2-8.1-3.2h-11.5v35.4h11.3q5.1 0 8.5-3.6zm83.1 54.6q-3.6 5.7-9.5 9.3-6 3.6-13 3.6-7.1 0-13.5-3.7-6.3-3.6-8.9-8.3-2.6-4.6-3.3-8.1-0.8-3.5-0.8-7.6v-86.7h16.2v86.7q0 2.2 0.3 3.9 0.4 1.5 2.6 4.6 2.3 3.1 7.7 3.1 4.8 0 7.3-3.6 2.4-3.6 2.4-8v-86.7h16.2v86.7q0 4.1-0.9 7.8-0.8 3.6-2.8 7zm72.5-20.4v3.7q0 5.4-0.6 9.3-0.6 3.8-3.4 8.4-2.8 4.6-8.8 8.2-6.1 3.7-12.3 3.7-7.5 0-13.7-3.3-6.2-3.2-9.1-8.1-2.9-4.9-3.7-9-0.7-4.3-0.7-9.2v-58.5q0-4.7 0.9-8.5 1-3.7 4-8.1 3-4.5 8.5-7.5 5.6-3.2 11.7-3.2 11.7 0 19.4 7.7 7.8 7.7 7.8 19.6v6.2h-16v-6.2q0-4.7-2.6-7.9-2.6-3.1-7.8-3.1-4.7 0-7.3 3.1-2.6 3.2-2.6 7.9v58.5q0 2.3 0.1 4.5 0.1 2.2 2.2 5.6 2.3 3.4 7.8 3.4 6 0 7.7-3 1.9-3 2.2-4.4 0.3-1.5 0.3-4v-5.8zm43.1 32.3h-16.2v-98.3h-19v-15.1h54.5v15.1h-19.3zm46.7 0h-16v-113.4h16zm21.5-102.7q3.9-5.4 9.9-8.5 6-3.2 12.5-3.2 6.2 0 11.8 2.6 5.5 2.5 9.2 7 3.6 4.4 4.9 8.9 1.4 4.6 1.4 10.1v57.8q0 5.1-0.9 8.9-0.9 3.8-4 8.6-3.1 4.7-9.1 8.1-5.9 3.4-12.8 3.4-8 0-14.7-4.1-6.8-4-9.4-9.2-2.7-5.2-3.2-8.4-0.5-3.1-0.5-7.3v-57.8q0-5.2 1.1-9.1 1.2-3.9 3.8-7.8zm31.5 8.9q-3.4-4.6-8.8-4.6-2.9 0-5.7 1.6-2.9 1.6-3.9 3.6-1.1 1.9-1.4 4-0.4 2-0.4 3.4v57.8q0 1.7 0.3 3.8 0.2 2 2.6 5.5 2.5 3.4 8.5 3.4 3.1 0 5.5-1.4 2.5-1.5 3.5-3.3 1.2-1.9 1.5-3.6 0.4-1.7 0.4-4.4v-57.8q0-3.4-0.3-4.7-0.2-1.5-1.8-3.3zm91.2 93.8h-15.1l-25.3-68.8v68.8h-16.2v-113.4h15.3l25.1 68.7v-68.7h16.2z"/>
		<path id="CÔNG TRƯỜNG" fill-rule="evenodd" class="s1" d="m120.5 1022.9v4q0 5.9-0.8 10.1-0.6 4.2-3.7 9.2-2.9 4.9-9.5 8.9-6.6 4-13.4 4-8.1 0-14.9-3.5-6.8-3.6-9.9-8.9-3.2-5.3-4-9.8-0.8-4.6-0.8-10v-63.7q0-5.1 1-9.2 1-4 4.3-8.8 3.3-4.9 9.3-8.2 6.1-3.5 12.7-3.5 12.8 0 21.2 8.4 8.5 8.4 8.5 21.3v6.7h-17.5v-6.7q0-5.1-2.9-8.5-2.8-3.5-8.4-3.5-5.1 0-8 3.5-2.8 3.4-2.8 8.5v63.7q0 2.5 0.1 4.9 0.1 2.4 2.4 6.1 2.5 3.7 8.5 3.7 6.5 0 8.4-3.3 2-3.2 2.4-4.8 0.3-1.6 0.3-4.3v-6.3zm19.4-76.6q4.2-6 10.7-9.3 6.5-3.5 13.6-3.5 6.7 0 12.8 2.8 6 2.7 10 7.6 4 4.8 5.4 9.8 1.5 4.9 1.5 10.9v62.9q0 5.6-1 9.7-1 4.2-4.3 9.3-3.4 5.2-9.9 8.9-6.4 3.7-14 3.7-8.7 0-16-4.4-7.3-4.5-10.2-10.1-2.9-5.7-3.4-9.1-0.6-3.4-0.6-8v-62.9q0-5.6 1.2-9.8 1.3-4.3 4.2-8.5zm34.2 9.6q-3.7-5-9.6-5-3.1 0-6.2 1.8-3.1 1.7-4.3 3.9-1.1 2-1.5 4.3-0.4 2.2-0.4 3.7v62.9q0 1.9 0.3 4.1 0.3 2.2 2.9 6 2.7 3.8 9.2 3.8 3.4 0 6-1.6 2.7-1.6 3.9-3.6 1.2-2 1.6-3.9 0.4-1.9 0.4-4.8v-62.9q0-3.7-0.3-5.2-0.3-1.5-2-3.5zm2.9-28.5l-13-9.7-12.7 9.7h-12.2l18.5-18.5h13.5l18.3 18.5zm96.3 130.6h-16.4l-27.5-74.9v74.9h-17.7v-123.4h16.7l27.3 74.7v-74.7h17.6zm72.9-12.9q-4.1 6.6-10.8 10.3-6.6 3.7-14.5 3.7-7.1 0-13.6-3.3-6.5-3.3-10.1-8.2-3.5-4.9-4.8-9.8-1.2-5-1.2-11.2v-61.8q0-5 1-9.1 1.1-4.3 6.8-13.2 5.8-9 22.4-9 7.4 0 13.8 3.6 6.5 3.5 9.9 8.5 3.3 5.1 4.3 9.5 1 4.4 1 9.7v5.1h-17.3v-5.1q0-3.2-0.3-4.9-0.3-1.8-2.8-5.3-2.5-3.5-8.8-3.5-7.2 0-9.6 3.7-2.2 3.8-2.6 5.7-0.3 1.8-0.3 4.3v61.8q0 3.5 0.2 5.3 0.3 1.7 2.7 5.6 2.6 3.9 9.4 3.9 7.5 0 9.3-3.9 2-3.9 2.4-5.7 0.4-1.9 0.4-5.2v-21.7h-14.3v-15.4h31.6v37.1q0 7.7-0.9 11.2-0.9 3.4-3.3 7.3zm85.9 12.9h-17.7v-106.9h-20.6v-16.5h59.3v16.5h-21zm50.8 0h-17.6v-123.4h30.9q12.2 0 20.5 8.5 8.4 8.4 8.4 20.7v11.5q0 17-14.4 26l18.6 56.7h-18.6l-16.8-53h-11zm21.6-72.3q1.7-2 2.4-4.6 0.6-2.7 0.6-5.7v-11.5q0-5.8-3.2-9.3-3.1-3.5-8.8-3.5h-12.6v38.4h12.4q5.5 0 9.2-3.8zm95.2-55.3l6.3-5.7q0.9 1 1.6 2 3.9 5.3 3.7 12.1-0.1 6.8-5.1 10.4-4.6 3.3-8.9 3.8-1 0.1-1.9 0.1v75.8q0 4.5-1 8.5-0.9 4-3.1 7.7-3.9 6.2-10.4 10.1-6.5 3.9-14.1 3.9-7.7 0-14.7-4-6.9-3.9-9.7-9-2.8-5.1-3.6-8.9-0.8-3.8-0.8-8.3v-94.3h17.6v94.3q0 2.5 0.4 4.3 0.4 1.7 2.8 5 2.5 3.4 8.3 3.4 5.3 0 8-3.9 2.7-3.9 2.7-8.8v-94.3h17.6v9.7q1.6 0.1 3.1-1 3.1-2.3 3.7-5.5 0.5-3.2-2.5-7.4zm77.4 0.6l5.6-5.8q0.6 0.8 1.1 1.5 3.9 5.3 3.7 12.1-0.1 6.8-5 10.4-2.7 1.9-5.8 2.9 0.3 0.8 0.5 1.6 1.5 5 1.5 10.9v62.9q0 5.6-1 9.7-1 4.2-4.4 9.3-3.3 5.2-9.8 8.9-6.4 3.7-14 3.7-8.7 0-16-4.4-7.3-4.4-10.2-10.1-2.9-5.6-3.4-9.1-0.6-3.4-0.6-8v-62.9q0-5.6 1.2-9.8 1.3-4.3 4.2-8.5 4.2-6 10.7-9.3 6.5-3.5 13.5-3.5 6.8 0 12.9 2.8 6 2.8 10 7.5 0.4 0.5 0.7 0.9 1.3-0.5 2.2-1.4 3.2-2.3 3.7-5.5 0.4-2.9-1.3-6.8zm-9.8-5.4h-11.3l-25.3-25.2h17.3zm-8.4 30.3q-3.7-5-9.5-5-3.2 0-6.3 1.8-3 1.7-4.2 3.9-1.2 2.1-1.5 4.3-0.4 2.2-0.4 3.7v62.9q0 1.9 0.3 4.1 0.2 2.2 2.9 6 2.7 3.8 9.2 3.8 3.3 0 5.9-1.5 2.7-1.7 3.9-3.7 1.3-2 1.6-3.8 0.4-1.9 0.4-4.9v-62.9q0-3.7-0.3-5.1-0.2-1.6-2-3.6zm100.2 102.1h-16.4l-27.6-74.9v74.9h-17.6v-123.4h16.6l27.4 74.7v-74.7h17.6zm72.8-12.9q-4 6.6-10.7 10.3-6.6 3.7-14.6 3.7-7 0-13.5-3.2-6.5-3.4-10.1-8.3-3.6-4.9-4.8-9.8-1.2-5-1.2-11.2v-61.8q0-5 1-9.1 1.1-4.3 6.8-13.2 5.8-9 22.4-9 7.4 0 13.8 3.6 6.5 3.5 9.8 8.5 3.4 5.1 4.4 9.5 1 4.5 1 9.7v5.1h-17.4v-5.1q0-3.2-0.2-4.9-0.3-1.8-2.8-5.3-2.6-3.5-8.8-3.5-7.2 0-9.6 3.8-2.2 3.8-2.6 5.7-0.4 1.8-0.4 4.2v61.8q0 3.5 0.3 5.3 0.3 1.7 2.7 5.6 2.6 3.9 9.4 3.9 7.4 0 9.3-3.9 2-3.9 2.4-5.7 0.3-1.9 0.3-5.2v-21.7h-14.2v-15.3h31.6v37q0 7.8-0.9 11.2-0.9 3.4-3.4 7.3z"/>
		<path id="500 m" fill-rule="evenodd" class="s1" d="m244 606.7q8.1 0 16.3 4.5 8.1 4.5 12 10.5 4 5.9 5.4 12.5 1.6 6.4 1.6 13.9v47.9q0 7.1-0.5 11.9-0.4 4.7-3.7 13.4-3.1 8.6-15.5 16.6-12.3 8-26.4 8-10.9 0-20.8-5.2-9.7-5.3-15.1-13-5.3-7.8-7.4-15.6-1.8-7.8-1.8-16.1v-5.4h31.1v5.4q0 3.2 0.1 6.4 0.2 3.2 3.3 8 3.3 4.8 11.2 4.8 8.6 0 11.4-4.6 3-4.7 3.3-7.4 0.3-2.8 0.3-5.9v-45.2q0-2.8-0.1-5.9-0.2-3.3-3.6-8.1-3.3-4.9-10.9-4.9-11.3 0-15 11.3h-27.2v-113.9h87.3v28.4h-60.1v57.3q11.1-9.6 24.8-9.6zm94.1 137.9q-33.6-6.4-39.1-39.4 0-34.2 0-68.5 0-34.4 0-69 4.2-25 22-33.5 18-8.8 41-3.6 11.5 7 18.6 14.8 7 7.8 9.7 22.3 0 34.6 0 68.8 0 34.2 0 68.1-4.6 31.1-33.3 39.7-3.6 0-6.1 0.2-2.4 0.1-12.8 0.1zm3.1-30.8q14.1 0 18-12.3 0-32.3 0-64.5 0-32.2 0-64.6-1.9-5.7-4.3-9.5-9.2-7-15.6-3-6.4 3.9-9.2 12.5 0 32.1 0 64.3 0 32.1 0 64.2 1.9 9.8 11.1 12.9zm99.8 30.8q-33.6-6.4-39-39.4 0-34.2 0-68.5 0-34.4 0-69 4.2-25 22-33.5 18-8.8 40.9-3.6 11.6 7 18.6 14.8 7.1 7.8 9.7 22.3 0 34.6 0 68.8 0 34.2 0 68.1-4.5 31.1-33.3 39.7-3.6 0-6.1 0.2-2.3 0.1-12.8 0.1zm3.2-30.8q14 0 17.9-12.3 0-32.3 0-64.5 0-32.2 0-64.6-1.8-5.7-4.2-9.5-9.2-7-15.6-3-6.4 3.9-9.2 12.5 0 32.1 0 64.3 0 32.1 0 64.2 1.8 9.8 11.1 12.9zm210.1-108.4q6.1-7.7 13.5-11.6 7.3-4 16.7-4 15.6 0 25.6 11.1 10.2 10.9 10.2 26.7v116.4h-30.8v-107.8q0-7.4-3.8-12-3.6-4.7-11.2-4.7-6.4 0-10.8 5-4.2 5-4.2 11.7v107.8h-30.8v-107.8q0-7-4.2-11.9-4.1-4.8-11.1-4.8-6.4 0-10.8 5-4.2 5-4.2 11.7v107.8h-30.8v-152.3h30.8v13.7q10.4-15.6 28.7-15.6 8.6 0 15.5 4 6.9 3.9 11.7 11.6z"/>
		<path id="AHEAD" fill-rule="evenodd" class="s1" d="m295.6 371h-18.2l26.8-120.1h15l26.8 120.1h-18.4l-4.8-25.8h-22.4zm16-85.5l-8.1 43.8h16.2zm61 85.5h-16.9v-120h16.9v51.3h21.9v-51.3h17v120h-17v-53.6h-21.9zm74.5-17.3h34.3v17.3h-51.3v-120.1h51.3v15.9h-34.3v35.5h30.2v16.1h-30.2zm59.1 17.4h-18.2l26.8-120.1h15l26.8 120.1h-18.4l-4.8-25.8h-22.4zm16-85.5l-8 43.8h16.1zm44.1-34.6h27.1q11.5 0 19.9 8.2 8.4 8.2 8.4 19.7v62.5q0 13-8 21.3-8 8.4-20.8 8.4h-26.6zm38.5 90.3v-62.5q0-5-3.7-8.3-3.7-3.4-8.9-3.4h-9v87.9h8.5q13.1 0 13.1-13.7z"/>
		<path id="PHÍA TRƯỚC" fill-rule="evenodd" class="s1" d="m147.3 198h-17.6v-123.4h28.8q5.4 0 10.8 2.3 5.4 2.1 9 5.7 3.6 3.7 6.1 8.7 2.5 5 2.5 9.6v17.9q0 6.8-1.9 12.3-1.8 5.3-6.3 9.8-4.5 4.5-9.9 6.5-5.2 1.9-12.3 1.9h-9.2zm19.8-68.8q1.6-1.6 2.1-3.5 0.4-1.9 0.4-4.7v-18.3q0-5.1-3.1-8.5-3.1-3.3-8.5-3.3h-10.7v41.8h9.2q3.7 0 6-0.6 2.4-0.7 4.6-2.9zm49.8 68.8h-17.5v-123.4h17.5v52.8h22.5v-52.8h17.4v123.4h-17.4v-55.1h-22.5zm76.5 0h-17.4v-123.4h17.4zm-15.9-132.4h-11.1l19-25.2h17.4zm44.5 132.4h-18.7l27.6-123.4h15.3l27.6 123.4h-18.9l-5-26.5h-22.9zm16.4-87.8l-8.3 44.9h16.6zm109.4 87.9h-17.6v-106.9h-20.7v-16.5h59.4v16.5h-21.1zm50.9 0h-17.6v-123.4h30.9q12.2 0 20.5 8.5 8.4 8.5 8.4 20.8v11.4q0 17-14.5 26l18.7 56.7h-18.7l-16.7-53h-11zm21.6-72.3q1.7-2 2.3-4.6 0.7-2.6 0.7-5.7v-11.5q0-5.8-3.2-9.3-3.2-3.5-8.9-3.5h-12.5v38.5h12.4q5.5 0 9.2-3.9zm95.2-55.3l6.3-5.7q0.8 1 1.5 2 3.9 5.3 3.8 12.1-0.1 6.8-5.1 10.4-4.6 3.3-8.9 3.8-1 0.1-1.9 0.1v75.9q0 4.5-1 8.4-0.9 4-3.1 7.7-3.9 6.3-10.4 10.1-6.5 3.9-14.1 3.9-7.8 0-14.7-3.9-6.9-4-9.7-9.1-2.8-5-3.6-8.8-0.8-3.8-0.8-8.3v-94.4h17.6v94.4q0 2.4 0.4 4.2 0.3 1.7 2.8 5.1 2.5 3.3 8.3 3.3 5.3 0 7.9-3.9 2.7-3.9 2.7-8.7v-94.4h17.7v9.7q1.6 0.1 3-1 3.2-2.2 3.7-5.5 0.6-3.2-2.4-7.4zm77.4 0.6l5.6-5.7q0.5 0.7 1.1 1.4 3.9 5.3 3.7 12.1-0.1 6.8-5.1 10.4-2.6 1.9-5.7 2.9 0.2 0.8 0.5 1.6 1.4 5 1.4 10.9v62.9q0 5.6-1 9.8-0.9 4.1-4.3 9.3-3.3 5.1-9.8 8.8-6.4 3.7-14 3.7-8.7 0-16-4.4-7.3-4.4-10.2-10-2.9-5.7-3.5-9.1-0.5-3.5-0.5-8.1v-62.9q0-5.6 1.2-9.8 1.2-4.3 4.1-8.5 4.3-6 10.8-9.3 6.5-3.4 13.5-3.4 6.8 0 12.8 2.8 6.1 2.7 10.1 7.5 0.3 0.4 0.7 0.9 1.3-0.6 2.2-1.5 3.1-2.2 3.7-5.5 0.4-2.9-1.3-6.8zm-35.2-5.4h-11.1l19-25.2h17.5zm16.9 30.4q-3.7-5.1-9.5-5.1-3.2 0-6.3 1.8-3 1.7-4.2 3.9-1.2 2.1-1.5 4.3-0.4 2.2-0.4 3.7v62.9q0 1.9 0.3 4.2 0.2 2.1 2.9 5.9 2.7 3.8 9.2 3.8 3.3 0 5.9-1.5 2.7-1.6 3.9-3.6 1.3-2.1 1.6-3.9 0.4-1.9 0.4-4.9v-62.9q0-3.7-0.3-5.1-0.2-1.5-2-3.5zm94.5 66.9v4.1q0 5.8-0.7 10.1-0.6 4.1-3.7 9.1-3 5-9.6 8.9-6.6 4-13.3 4-8.2 0-14.9-3.5-6.8-3.5-10-8.9-3.1-5.3-4-9.8-0.8-4.6-0.8-9.9v-63.7q0-5.2 1-9.2 1.1-4.1 4.4-8.9 3.3-4.9 9.3-8.2 6-3.4 12.7-3.4 12.7 0 21.1 8.4 8.5 8.4 8.5 21.3v6.7h-17.4v-6.7q0-5.2-2.9-8.6-2.8-3.4-8.4-3.4-5.1 0-8 3.4-2.8 3.4-2.8 8.6v63.7q0 2.4 0.1 4.8 0 2.4 2.4 6.1 2.4 3.7 8.5 3.7 6.5 0 8.4-3.3 2-3.2 2.3-4.7 0.4-1.7 0.4-4.4v-6.3z"/>
	</g>
</svg>