<?xml version="1.0" encoding="utf-8"?>
<svg viewBox="0 0 323.14914 200" xmlns="http://www.w3.org/2000/svg">
  <g id="layer1" transform="matrix(0.9999999999999999, 0, 0, 0.9999999999999999, -303.4596862792969, -22.960700988769517)">
    <path id="rect15575" style="opacity:1;fill:#0a9646;fill-opacity:1;fill-rule:evenodd;stroke-width:0.0420687;stroke-linecap:square;stroke-miterlimit:10;paint-order:stroke fill markers" d="M 303.45966,22.960701 H 626.6088 V 222.9607 H 303.45966 Z"/>
    <path transform="matrix(0.26458333,0,0,0.26458333,303.45966,22.960701)" d="m 30.353516,5.0117188 c -13.808655,0 -25.0781254,11.2674112 -25.0781254,25.0761722 v 332.957029 47.1211 49.04296 13.88672 252.45508 c 0,13.80862 11.2694704,25.06641 25.0781254,25.06641 H 1190.9805 c 13.8086,0 25.0781,-11.25779 25.0781,-25.06641 V 473.0957 459.57031 401.94727 363.04492 30.087891 c 0,-13.808761 -11.2695,-25.0761722 -25.0781,-25.0761722 z m 0,9.4511722 H 1190.9805 c 8.7398,0 15.6425,6.885058 15.6425,15.625 v 332.957029 38.90235 c 0,0.29959 -0.013,0.61475 -0.037,0.9375 v 7.20703 c 0,8.68754 -6.9941,15.68164 -15.6816,15.68164 h -8.0762 c -0.1869,0.007 -0.3766,0.0176 -0.5586,0.0176 H 38.023438 c -0.18105,0 -0.371847,-0.0102 -0.560547,-0.0176 h -7.097657 c -8.687546,0 -15.68164,-6.9941 -15.68164,-15.68164 V 30.152344 c 0,-1.658433 0.257595,-3.253829 0.730468,-4.751953 0.01365,-0.04461 0.03284,-0.08643 0.04688,-0.13086 1.99686,-6.321925 7.84094,-10.80664 14.892578,-10.80664 z M 30.28125,435.30469 h 6.958984 1145.628866 8.1172 c 8.6414,0 15.5996,6.95633 15.5996,15.59765 v 7.5918 c 0.024,0.37296 0.037,0.7339 0.037,1.07617 v 13.52539 252.45508 c 0,5.47634 -2.7106,10.22208 -6.8847,13.00391 -2.4923,1.6862 -5.5034,2.66992 -8.752,2.66992 H 30.28125 c -8.641361,0 -15.597656,-6.9563 -15.597656,-15.59766 V 450.90234 c 0,-8.64132 6.956295,-15.59765 15.597656,-15.59765 z" style="color:#000000;font-style:normal;font-variant:normal;font-weight:normal;font-stretch:normal;font-size:medium;line-height:normal;font-family:sans-serif;font-variant-ligatures:normal;font-variant-position:normal;font-variant-caps:normal;font-variant-numeric:normal;font-variant-alternates:normal;font-variant-east-asian:normal;font-feature-settings:normal;font-variation-settings:normal;text-indent:0;text-align:start;text-decoration:none;text-decoration-line:none;text-decoration-style:solid;text-decoration-color:#000000;letter-spacing:normal;word-spacing:normal;text-transform:none;writing-mode:lr-tb;direction:ltr;text-orientation:mixed;dominant-baseline:auto;baseline-shift:baseline;text-anchor:start;white-space:normal;shape-padding:0;shape-margin:0;inline-size:0;clip-rule:nonzero;display:inline;overflow:visible;visibility:visible;opacity:1;isolation:auto;mix-blend-mode:normal;color-interpolation:sRGB;color-interpolation-filters:linearRGB;solid-color:#000000;solid-opacity:1;vector-effect:none;fill:#ffffff;fill-opacity:1;fill-rule:evenodd;stroke:none;stroke-width:2.09199;stroke-linecap:square;stroke-linejoin:miter;stroke-miterlimit:10;stroke-dasharray:none;stroke-dashoffset:0;stroke-opacity:1;paint-order:stroke fill markers;color-rendering:auto;image-rendering:auto;shape-rendering:auto;text-rendering:auto;enable-background:accumulate;stop-color:#000000;stop-opacity:1" id="path15582"/>
    <path d="m 324.12038,67.193614 h 60.89334 v 27.821331 h -60.89334 z" style="opacity:1;fill:#ffd70f;fill-opacity:1;fill-rule:evenodd;stroke:none;stroke-width:0.553508;stroke-linecap:square;stroke-miterlimit:10;stroke-dasharray:none;stroke-opacity:1;paint-order:stroke fill markers" id="rect15605"/>
    <path id="path15631" d="m 326.18273,67.759747 c -0.81115,0 -1.47443,0.660164 -1.47443,1.471307 v 23.746432 c 0,0.811142 0.66328,1.471323 1.47443,1.471323 h 56.7905 c 0.81117,0 1.4744,-0.660181 1.4744,-1.471323 V 69.231054 c 0,-0.811143 -0.66328,-1.471307 -1.4744,-1.471307 z m 0,0.535017 h 56.7905 c 0.52266,0 0.93627,0.413622 0.93627,0.93629 v 23.746432 c 0,0.522654 -0.41353,0.933189 -0.93627,0.933189 h -56.7905 c -0.52266,0 -0.93628,-0.410555 -0.93628,-0.933189 V 69.231054 c 0,-0.522672 0.41354,-0.93629 0.93628,-0.93629 z" style="color:#000000;font-style:normal;font-variant:normal;font-weight:normal;font-stretch:normal;font-size:medium;line-height:normal;font-family:sans-serif;font-variant-ligatures:normal;font-variant-position:normal;font-variant-caps:normal;font-variant-numeric:normal;font-variant-alternates:normal;font-variant-east-asian:normal;font-feature-settings:normal;font-variation-settings:normal;text-indent:0;text-align:start;text-decoration:none;text-decoration-line:none;text-decoration-style:solid;text-decoration-color:#000000;letter-spacing:normal;word-spacing:normal;text-transform:none;writing-mode:lr-tb;direction:ltr;text-orientation:mixed;dominant-baseline:auto;baseline-shift:baseline;text-anchor:start;white-space:normal;shape-padding:0;shape-margin:0;inline-size:0;clip-rule:nonzero;display:inline;overflow:visible;visibility:visible;opacity:1;isolation:auto;mix-blend-mode:normal;color-interpolation:sRGB;color-interpolation-filters:linearRGB;solid-color:#000000;solid-opacity:1;vector-effect:none;fill:#000000;fill-opacity:1;fill-rule:evenodd;stroke:none;stroke-width:0.119062;stroke-linecap:square;stroke-linejoin:miter;stroke-miterlimit:10;stroke-dasharray:none;stroke-dashoffset:0;stroke-opacity:1;paint-order:stroke fill markers;color-rendering:auto;image-rendering:auto;shape-rendering:auto;text-rendering:auto;enable-background:accumulate;stop-color:#000000;stop-opacity:1"/>
    <path d="m 336.88947,72.205604 c -1.36961,0 -2.51552,0.330332 -3.43646,0.991507 -0.91309,0.653335 -1.5737,1.361798 -1.98303,2.125328 -0.14189,0.267612 -0.264,0.538688 -0.36613,0.814199 -0.10264,0.275473 -0.18065,0.564078 -0.23555,0.86321 -0.0552,0.299089 -0.0954,0.774434 -0.11873,1.427765 -0.0223,0.653332 -0.0362,1.495435 -0.0362,2.5266 0,2.062321 0.0516,3.383536 0.15387,3.966025 0.0552,0.299136 0.13326,0.587702 0.23556,0.863193 0.10264,0.267612 0.22467,0.534915 0.36612,0.802543 0.40948,0.771411 1.06995,1.479875 1.983,2.125324 0.92887,0.653346 2.07472,0.979855 3.43649,0.979855 0.74779,0 1.44489,-0.107189 2.09034,-0.319632 0.64544,-0.212556 1.24303,-0.525333 1.79403,-0.942508 1.1335,-0.865864 1.86473,-2.103628 2.19533,-3.709419 0.0139,-0.04714 0.009,-0.08518 -0.0223,-0.116745 -0.0315,-0.03928 -0.0694,-0.05829 -0.11656,-0.05829 h -2.70394 c -0.0223,1.5e-5 -0.0488,0.01117 -0.0722,0.03521 -0.0223,0.01589 -0.0451,0.0307 -0.0582,0.0467 -0.70836,1.487712 -1.74338,2.232636 -3.10515,2.232636 -0.59037,0 -1.09454,-0.11468 -1.51174,-0.342928 -0.41713,-0.236167 -0.75132,-0.520933 -1.00317,-0.851551 -0.14189,-0.181028 -0.27124,-0.389065 -0.3896,-0.625222 -0.11008,-0.244 -0.19597,-0.488524 -0.25924,-0.732545 -0.0628,-0.267611 -0.10709,-0.67614 -0.13048,-1.227141 -0.0223,-0.558871 -0.0359,-1.267326 -0.0359,-2.125325 0,-0.842249 0.009,-1.543133 0.0359,-2.102004 0.0223,-0.55887 0.0677,-0.97117 0.13048,-1.238798 0.0627,-0.251917 0.14857,-0.496392 0.25924,-0.732549 0.11009,-0.244 0.24028,-0.45965 0.3896,-0.64857 0.252,-0.30699 0.58598,-0.580386 1.00317,-0.816526 0.41715,-0.236167 0.92137,-0.352269 1.51174,-0.352269 0.79503,1.7e-5 1.45185,0.230844 1.97135,0.695231 0.27541,0.236167 0.50863,0.492045 0.69757,0.767539 0.18872,0.267667 0.33407,0.560022 0.4361,0.874867 0.0167,0.06294 0.0599,0.09333 0.13046,0.09333 h 2.7039 c 0.0468,0 0.0854,-0.01589 0.11658,-0.0467 0.0315,-0.03161 0.0407,-0.07184 0.0223,-0.118954 -0.25952,-1.393235 -0.93175,-2.595995 -2.01801,-3.611427 -1.07052,-1.007535 -2.42438,-1.511744 -4.0617,-1.511744 z m 27.73422,0.104956 c -1.28304,0 -2.4213,0.437369 -3.41313,1.311121 -0.99967,0.858 -1.50005,2.08205 -1.50005,3.672071 v 7.425818 c 0,1.590021 0.50038,2.814088 1.50005,3.672088 0.99183,0.865851 2.13009,1.299446 3.41313,1.299446 1.28303,0 2.42133,-0.433578 3.41313,-1.299446 1.00756,-0.86587 1.50938,-2.089917 1.50938,-3.672088 v -7.425818 c 0,-0.787127 -0.1299,-1.484222 -0.38959,-2.09033 -0.252,-0.613979 -0.62389,-1.140934 -1.11979,-1.581741 -0.49592,-0.425045 -1.03279,-0.74779 -1.6074,-0.968177 -0.56674,-0.22825 -1.16816,-0.342924 -1.80573,-0.342924 z m -21.12261,0.03521 c -0.0943,0 -0.14217,0.04776 -0.14217,0.142392 v 2.279298 c 0,0.09444 0.0479,0.142197 0.14217,0.142197 h 4.49793 V 89.409 c 0,0.09444 0.0479,0.139995 0.14217,0.139995 h 2.5616 c 0.0945,0 0.14217,-0.04555 0.14217,-0.139995 V 74.909653 h 4.48625 c 0.0943,0 0.14217,-0.04778 0.14217,-0.142196 v -2.279299 c 0,-0.09444 -0.0479,-0.142392 -0.14217,-0.142392 z m 31.22667,0.118953 -2.43331,1.759064 c -0.0139,0.01589 -0.0315,0.03477 -0.0466,0.05829 -0.009,0.02341 -0.0139,0.04468 -0.0139,0.06068 v 2.561593 c 0,0.06294 0.0278,0.110694 0.0728,0.142196 0.0468,0.02343 0.0989,0.01617 0.15388,-0.02343 0.36208,-0.259778 0.7228,-0.523245 1.08486,-0.790886 0.36206,-0.275473 0.72509,-0.548889 1.08714,-0.816528 v 14.028096 c 0,0.09444 0.048,0.142198 0.14217,0.142198 h 2.41929 c 0.0943,0 0.13994,-0.04778 0.13994,-0.142198 V 72.606811 c 0,-0.09444 -0.0455,-0.142197 -0.13994,-0.142197 z m -10.10406,2.538257 c 0.67694,0 1.21532,0.217964 1.61673,0.650912 0.40948,0.425045 0.61359,1.018854 0.61359,1.782378 v 7.143522 c 0,0.771407 -0.20461,1.368982 -0.61359,1.794059 -0.40133,0.425045 -0.93979,0.63689 -1.61673,0.63689 -0.67695,0 -1.21527,-0.211859 -1.61671,-0.63689 -0.40134,-0.425091 -0.60428,-1.022652 -0.60428,-1.794059 v -7.143497 c 0,-0.763524 0.20266,-1.357335 0.60428,-1.782377 0.40133,-0.432946 0.93976,-0.650913 1.61671,-0.650913 z m -9.98507,11.865445 c -0.0945,0 -0.14217,0.04776 -0.14217,0.14239 v 2.398281 c 0,0.09444 0.0479,0.139994 0.14217,0.139994 h 2.40762 c 0.0867,0 0.13046,-0.04555 0.13046,-0.139994 v -2.398281 c 0,-0.09444 -0.0451,-0.14239 -0.13046,-0.14239 z" style="font-style: normal; font-variant: normal; font-weight: normal; font-stretch: normal; font-size: 15.1831px; line-height: 1.46; font-family: 'Alte DIN 1451 Mittelschrift gepraegt'; text-align: center; text-anchor: middle; opacity: 1; fill-opacity: 1; stroke-width: 0.264584; visibility: hidden;" id="path15637"/>
    <path id="path17496" style="font-size:15.1831px;line-height:1.46;font-family:'Singapore Road Signs';-inkscape-font-specification:'Singapore Road Signs';text-align:center;text-anchor:middle;opacity:1;fill:#ffffff;fill-opacity:1;stroke-width:0.0756548" d="m 570.47468,59.120043 v 50.614317 h 35.43541 V 59.120043 Z m 1.38203,1.660034 h 32.65274 v 47.566083 h -32.65274 z m 13.66823,3.646909 -2.23483,8.869719 h 3.92184 l 0.28216,-8.869719 z m 3.35329,0 0.28216,8.869719 h 3.92385 l -2.23686,-8.869719 z m -15.90932,9.992316 v 1.942234 l 3.06692,1.10806 v 0.584703 h 1.411 v -0.584703 c 0,0 2.08662,-0.313671 4.52568,-0.535349 1.95306,-0.177516 4.1317,-0.271988 5.64407,-0.278037 1.79866,-0.0063 4.45804,0.09363 6.73975,0.288436 2.51319,0.214479 4.5713,0.524984 4.5713,0.524984 v 0.5847 h 1.38199 v -0.5847 l 3.06685,-1.108064 v -1.942233 z m 9.21108,3.620663 -6.70448,26.681115 h 10.04943 l 1.39442,-26.681115 z m 7.25642,0 1.39441,26.681115 h 10.0494 l -6.70443,-26.681115 z"/>
    <g style="font-size:14.7905px;line-height:0;font-family:'Singapore Road Signs';-inkscape-font-specification:'Singapore Road Signs';text-align:center;text-anchor:middle;opacity:1;fill:#860000;fill-opacity:1;stroke-width:6.45213" id="layer1-8" transform="matrix(0.08718024,0,0,0.08718024,-145.22047,195.49013)">
      <circle style="opacity:1;fill:#f00a0a;fill-opacity:1;fill-rule:nonzero;stroke:none;stroke-width:3622.55;stroke-linecap:round;stroke-linejoin:round;stroke-miterlimit:4;stroke-dasharray:none;stroke-opacity:1;paint-order:stroke fill markers" id="path815" cx="6380.9966" cy="-193.29752" r="350"/>
      <circle cy="-193.29752" cx="6380.9966" id="circle817" style="opacity:1;fill:#ffffff;fill-opacity:1;fill-rule:nonzero;stroke:none;stroke-width:2587.55;stroke-linecap:round;stroke-linejoin:round;stroke-miterlimit:4;stroke-dasharray:none;stroke-opacity:1;paint-order:stroke fill markers" r="263.821"/>
      <g aria-label="20 " style="font-style:normal;font-variant:normal;font-weight:bold;font-stretch:normal;font-size:414.864px;line-height:0;font-family:Giaothong1;-inkscape-font-specification:'Giaothong1 Bold';letter-spacing:0px;word-spacing:0px;fill:#000000;fill-opacity:1;stroke:none;stroke-width:24.7849" id="text874" transform="matrix(-1,0,0,1,1299.029,-383.45)">
        <g aria-label="90" transform="translate(2310.2259,387.54849)" style="font-style:normal;font-variant:normal;font-weight:bold;font-stretch:normal;font-size:414.864px;line-height:0;font-family:Giaothong1;-inkscape-font-specification:'Giaothong1 Bold';letter-spacing:0px;word-spacing:0px;fill:#000000;fill-opacity:1;stroke:none;stroke-width:53.5539" id="text844"/>
      </g>
    </g>
    <g style="font-size:14.7905px;line-height:0;font-family:'Singapore Road Signs';-inkscape-font-specification:'Singapore Road Signs';text-align:center;text-anchor:middle;opacity:1;fill:#fff000;fill-opacity:1;stroke-width:6.45221" id="layer1-7" transform="matrix(0.08717968,0,0,0.08717968,488.77841,183.34565)">
      <circle cy="-54" cx="351" id="circle817-6" style="opacity:1;fill:#0046aa;fill-opacity:1;fill-rule:nonzero;stroke:none;stroke-width:3622.58;stroke-linecap:round;stroke-linejoin:round;stroke-miterlimit:4;stroke-dasharray:none;stroke-opacity:1;paint-order:stroke fill markers" r="350"/>
      <path id="rect984" style="font-style: normal; font-variant: normal; font-weight: bold; font-stretch: normal; font-size: 414.864px; line-height: 0; font-family: Giaothong1; letter-spacing: 0px; word-spacing: 0px; opacity: 1; fill: rgb(255, 255, 255); fill-opacity: 1; fill-rule: nonzero; stroke: none; stroke-width: 0.344279; stroke-linecap: round; stroke-linejoin: miter; stroke-miterlimit: 10; stroke-dasharray: none; stroke-opacity: 1; paint-order: stroke; visibility: hidden;" d="m 851.18164,518.03906 c -16.32678,0 -29.4707,13.14393 -29.4707,29.47071 v 80.94921 c 0,16.32678 13.14392,29.47071 29.4707,29.47071 16.32678,0 29.4707,-13.14393 29.4707,-29.47071 v -80.94921 c 0,-16.32678 -13.14392,-29.47071 -29.4707,-29.47071 z m -69.94336,1.23828 -26.10937,69.75391 c -2.72781,7.40406 -3.70118,11.30112 -3.70118,28.44727 0,18.12042 0.7789,22.01697 4.67579,28.25195 5.26075,8.37828 14.22308,13.44336 24.93945,13.44336 10.91123,0 20.0688,-4.87023 25.13476,-13.44336 3.70197,-6.23498 4.48047,-10.13153 4.48047,-28.25195 0,-22.01726 -0.77798,-26.88814 -4.28515,-32.34375 -3.31232,-5.06591 -9.74347,-8.96289 -16.75782,-8.96289 -4.28653,0 -7.01308,0.77773 -8.37695,1.75195 l -0.39062,-0.38867 22.60156,-58.25782 z m 69.94336,18.74024 c 5.25853,0 9.49219,4.23365 9.49219,9.49219 v 80.94921 c 0,5.25853 -4.23366,9.49219 -9.49219,9.49219 -5.25853,0 -9.49219,-4.23366 -9.49219,-9.49219 v -80.94921 c 0,-5.25854 4.23366,-9.49219 9.49219,-9.49219 z m -70.13867,55.68945 c 5.0659,0 9.74219,3.89738 9.74219,9.9375 v 25.71875 c 0,6.04012 -4.67629,9.9375 -9.74219,9.9375 -5.0659,0 -9.74219,-3.89738 -9.74219,-9.9375 v -25.71875 c 0,-6.04012 4.67629,-9.9375 9.74219,-9.9375 z" transform="matrix(3.0349198,0,0,3.0349198,-2125.7104,-1839.7056)"/>
    </g>
    <g aria-label="6" id="text19759" style="font-size:31.1478px;line-height:1.3;font-family:'Singapore Road Signs';-inkscape-font-specification:'Singapore Road Signs';text-align:center;text-anchor:middle;stroke-width:0.159861" transform="matrix(1.6550836,0,0,1.6550836,-321.31659,-238.56049)"/>
    <path d="M 390.01 43.07 Q 390.063 43.07 390.098 43.11 Q 390.133 43.149 390.116 43.202 Q 389.747 44.995 388.481 45.962 Q 387.866 46.428 387.145 46.665 Q 386.424 46.902 385.589 46.902 Q 384.069 46.902 383.032 46.173 Q 382.012 45.452 381.555 44.591 Q 381.397 44.292 381.283 43.989 Q 381.168 43.685 381.107 43.351 Q 380.993 42.701 380.993 40.398 Q 380.993 39.247 381.019 38.517 Q 381.045 37.788 381.107 37.454 Q 381.168 37.12 381.283 36.812 Q 381.397 36.505 381.555 36.206 Q 382.012 35.353 383.032 34.624 Q 384.06 33.886 385.589 33.886 Q 387.417 33.886 388.613 35.011 Q 389.826 36.144 390.116 37.7 Q 390.133 37.753 390.098 37.788 Q 390.063 37.823 390.01 37.823 L 387.997 37.823 Q 387.918 37.823 387.901 37.753 Q 387.787 37.401 387.576 37.098 Q 387.365 36.795 387.057 36.531 Q 386.477 36.013 385.589 36.013 Q 384.93 36.013 384.464 36.276 Q 383.998 36.54 383.717 36.883 Q 383.55 37.094 383.427 37.362 Q 383.304 37.63 383.234 37.911 Q 383.164 38.21 383.137 38.834 Q 383.111 39.458 383.111 40.398 Q 383.111 41.356 383.137 41.976 Q 383.164 42.596 383.234 42.894 Q 383.304 43.167 383.432 43.435 Q 383.559 43.703 383.717 43.905 Q 383.998 44.274 384.464 44.534 Q 384.93 44.793 385.589 44.793 Q 387.11 44.793 387.901 43.132 Q 387.918 43.114 387.945 43.092 Q 387.971 43.07 387.997 43.07 Z M 390.122 46.788 Q 390.061 46.788 390.034 46.744 Q 390.008 46.7 390.025 46.647 L 394.631 34.044 Q 394.648 33.974 394.719 33.974 L 396.292 33.974 Q 396.318 33.974 396.349 33.996 Q 396.38 34.017 396.389 34.044 L 400.985 46.647 Q 401.003 46.7 400.977 46.744 Q 400.95 46.788 400.898 46.788 L 398.885 46.788 Q 398.815 46.788 398.797 46.718 L 397.848 43.94 L 393.207 43.94 Q 392.961 44.652 392.719 45.333 Q 392.478 46.015 392.232 46.718 Q 392.223 46.744 392.192 46.766 Q 392.161 46.788 392.135 46.788 Z M 397.215 42.051 Q 397.197 41.989 397.167 41.919 Q 397.136 41.849 397.118 41.796 Q 396.969 41.365 396.846 41 Q 396.723 40.636 396.626 40.363 Q 396.565 40.187 396.507 40.02 Q 396.45 39.853 396.398 39.704 Q 396.354 39.563 396.31 39.436 Q 396.266 39.309 396.222 39.185 Q 396.143 38.931 396.059 38.676 Q 395.976 38.421 395.888 38.148 Q 395.844 38.025 395.795 37.876 Q 395.747 37.726 395.694 37.559 Q 395.668 37.472 395.655 37.423 Q 395.642 37.375 395.624 37.327 Q 395.607 37.278 395.585 37.217 Q 395.563 37.155 395.527 37.041 Q 395.431 37.331 395.347 37.577 Q 395.264 37.823 395.193 38.034 Q 395.176 38.087 395.167 38.131 Q 395.158 38.175 395.141 38.219 Q 395.097 38.368 395.048 38.5 Q 395 38.632 394.956 38.764 Q 394.912 38.904 394.868 39.036 Q 394.824 39.168 394.78 39.291 Q 394.692 39.555 394.6 39.845 Q 394.508 40.135 394.394 40.451 Q 394.279 40.767 394.156 41.132 Q 394.033 41.497 393.84 42.051 Z M 402.427 46.797 Q 402.321 46.797 402.321 46.691 L 402.321 34.097 Q 402.321 33.991 402.427 33.991 L 404.228 33.991 Q 404.29 33.991 404.325 34.053 L 407.85 42.042 Q 408.702 40.029 409.563 38.047 Q 410.425 36.065 411.286 34.053 Q 411.312 33.991 411.383 33.991 L 413.184 33.991 Q 413.29 33.991 413.29 34.097 L 413.29 46.691 Q 413.29 46.797 413.184 46.797 L 411.277 46.797 Q 411.172 46.797 411.172 46.691 L 411.172 39.256 Q 410.557 40.688 409.933 42.103 Q 409.309 43.518 408.702 44.942 Q 408.667 44.995 408.605 44.995 L 407.015 44.995 Q 406.953 44.995 406.918 44.942 L 404.439 39.238 L 404.439 46.691 Q 404.439 46.797 404.334 46.797 Z M 420.375 46.797 Q 420.269 46.797 420.269 46.691 L 420.269 34.097 Q 420.269 33.991 420.375 33.991 L 422.282 33.991 Q 422.388 33.991 422.388 34.097 L 422.388 44.793 L 428.426 44.793 Q 428.531 44.793 428.531 44.898 L 428.531 46.691 Q 428.531 46.797 428.426 46.797 Z M 431.449 32.857 Q 431.37 32.857 431.348 32.791 Q 431.326 32.725 431.387 32.682 L 433.971 30.634 L 435.149 30.634 L 437.768 32.682 Q 437.83 32.725 437.808 32.791 Q 437.786 32.857 437.715 32.857 L 436.23 32.857 L 434.481 31.917 Q 434.094 32.154 433.699 32.392 Q 433.303 32.629 432.917 32.857 Z M 429.893 40.293 Q 429.893 39.142 429.924 38.412 Q 429.955 37.683 430.007 37.349 Q 430.069 37.015 430.183 36.707 Q 430.297 36.399 430.464 36.1 L 430.456 36.1 Q 430.913 35.248 431.932 34.518 Q 432.96 33.78 434.49 33.78 Q 436.001 33.78 437.03 34.518 Q 438.067 35.266 438.524 36.1 Q 438.849 36.698 438.963 37.349 Q 439.025 37.683 439.056 38.412 Q 439.086 39.142 439.086 40.293 Q 439.086 42.552 438.963 43.246 Q 438.902 43.589 438.792 43.896 Q 438.682 44.204 438.533 44.485 Q 438.067 45.329 437.03 46.067 Q 435.993 46.797 434.49 46.797 Q 432.969 46.797 431.932 46.067 Q 430.913 45.347 430.456 44.485 L 430.464 44.485 Q 430.297 44.186 430.183 43.883 Q 430.069 43.58 430.007 43.246 Q 429.955 42.912 429.924 42.178 Q 429.893 41.444 429.893 40.293 Z M 432.011 40.293 Q 432.011 41.251 432.038 41.871 Q 432.064 42.49 432.134 42.789 Q 432.205 43.061 432.332 43.33 Q 432.459 43.598 432.618 43.8 Q 432.899 44.169 433.365 44.428 Q 433.831 44.687 434.49 44.687 Q 435.14 44.687 435.606 44.428 Q 436.072 44.169 436.344 43.8 Q 436.713 43.351 436.828 42.789 Q 436.968 42.226 436.968 40.293 Q 436.968 39.335 436.933 38.715 Q 436.898 38.096 436.828 37.806 Q 436.766 37.524 436.643 37.256 Q 436.52 36.988 436.353 36.777 Q 436.221 36.61 436.032 36.452 Q 435.843 36.294 435.606 36.175 Q 435.369 36.057 435.087 35.982 Q 434.806 35.907 434.49 35.907 Q 433.831 35.907 433.365 36.171 Q 432.899 36.434 432.618 36.777 Q 432.451 36.988 432.328 37.256 Q 432.205 37.524 432.134 37.806 Q 432.064 38.104 432.038 38.728 Q 432.011 39.352 432.011 40.293 Z M 433.602 50.26 Q 433.505 50.26 433.505 50.163 L 433.505 48.467 Q 433.505 48.37 433.602 48.37 L 435.307 48.37 Q 435.395 48.37 435.395 48.467 L 435.395 50.163 Q 435.395 50.26 435.307 50.26 Z" transform="matrix(1.310387, 0, 0, 1.310387, -59.698296, -1.169035)" style="fill: rgb(255, 255, 255);"/>
    <path transform="matrix(1.310387, 0, 0, 1.310387, -59.698296, -1.169035)" style="fill: rgb(255, 255, 255);"/>
    <path d="M 382.026 72.357 Q 381.921 72.357 381.921 72.251 L 381.921 59.657 Q 381.921 59.551 382.026 59.551 L 383.933 59.551 Q 384.039 59.551 384.039 59.657 L 384.039 70.353 L 390.077 70.353 Q 390.182 70.353 390.182 70.458 L 390.182 72.251 Q 390.182 72.357 390.077 72.357 Z M 390.628 72.348 Q 390.567 72.348 390.541 72.304 Q 390.514 72.26 390.532 72.207 L 395.137 59.604 Q 395.155 59.534 395.225 59.534 L 396.798 59.534 Q 396.825 59.534 396.855 59.556 Q 396.886 59.577 396.895 59.604 L 401.492 72.207 Q 401.509 72.26 401.483 72.304 Q 401.457 72.348 401.404 72.348 L 399.391 72.348 Q 399.321 72.348 399.303 72.278 L 398.354 69.5 L 393.713 69.5 Q 393.467 70.212 393.226 70.893 Q 392.984 71.575 392.738 72.278 Q 392.729 72.304 392.698 72.326 Q 392.667 72.348 392.641 72.348 Z M 397.721 67.611 Q 397.704 67.549 397.673 67.479 Q 397.642 67.409 397.625 67.356 Q 397.475 66.925 397.352 66.56 Q 397.229 66.196 397.132 65.923 Q 397.071 65.747 397.014 65.58 Q 396.957 65.413 396.904 65.264 Q 396.86 65.123 396.816 64.996 Q 396.772 64.869 396.728 64.745 Q 396.649 64.491 396.565 64.236 Q 396.482 63.981 396.394 63.708 Q 396.35 63.585 396.302 63.436 Q 396.253 63.286 396.201 63.119 Q 396.174 63.032 396.161 62.983 Q 396.148 62.935 396.13 62.887 Q 396.113 62.838 396.091 62.777 Q 396.069 62.715 396.034 62.601 Q 395.937 62.891 395.854 63.137 Q 395.77 63.383 395.7 63.594 Q 395.682 63.647 395.673 63.691 Q 395.665 63.735 395.647 63.779 Q 395.603 63.928 395.555 64.06 Q 395.506 64.192 395.462 64.324 Q 395.418 64.464 395.375 64.596 Q 395.331 64.728 395.287 64.851 Q 395.199 65.115 395.106 65.405 Q 395.014 65.695 394.9 66.011 Q 394.786 66.327 394.663 66.692 Q 394.54 67.057 394.346 67.611 Z M 407.319 69.122 Q 407.346 69.087 407.39 69.087 Q 407.434 69.087 407.469 69.114 Q 408.163 69.676 409.064 70.015 Q 409.965 70.353 410.967 70.353 Q 412.092 70.353 412.742 69.887 Q 413.358 69.439 413.358 68.701 Q 413.358 67.312 411.802 67.101 L 411.811 67.101 Q 411.591 67.075 411.393 67.048 Q 411.195 67.022 410.998 66.995 Q 410.8 66.969 410.593 66.938 Q 410.387 66.908 410.141 66.872 Q 409.315 66.758 408.669 66.455 Q 408.023 66.152 407.583 65.651 Q 407.144 65.141 406.924 64.539 Q 406.704 63.937 406.704 63.225 Q 406.704 61.555 407.812 60.509 Q 408.928 59.446 410.914 59.446 Q 411.503 59.446 412.061 59.547 Q 412.619 59.648 413.142 59.824 Q 413.665 59.999 414.144 60.241 Q 414.623 60.483 415.063 60.773 Q 415.151 60.834 415.089 60.922 L 414.026 62.495 Q 413.964 62.575 413.885 62.522 Q 413.199 62.091 412.426 61.832 Q 411.652 61.573 410.826 61.573 Q 410.404 61.573 410.044 61.674 Q 409.684 61.775 409.394 62.003 Q 408.822 62.416 408.822 63.26 Q 408.822 63.744 409.209 64.201 Q 409.402 64.411 409.728 64.556 Q 410.053 64.702 410.527 64.772 Q 410.782 64.816 411.125 64.864 Q 411.468 64.912 411.934 64.965 Q 413.735 65.185 414.606 66.292 Q 415.476 67.373 415.476 68.701 Q 415.476 70.476 414.236 71.478 Q 412.988 72.462 410.949 72.462 Q 408.075 72.462 406.063 70.704 Q 406.027 70.678 406.027 70.634 Q 406.027 70.59 406.054 70.555 Z M 419.159 65.958 Q 419.159 66.916 419.186 67.536 Q 419.212 68.156 419.282 68.454 Q 419.353 68.727 419.48 68.995 Q 419.607 69.263 419.766 69.465 Q 420.047 69.834 420.513 70.094 Q 420.979 70.353 421.638 70.353 Q 422.288 70.353 422.754 70.094 Q 423.22 69.834 423.492 69.465 Q 423.861 69.017 423.976 68.454 Q 424.116 67.892 424.116 65.958 Q 424.116 65 424.081 64.381 Q 424.046 63.761 423.976 63.471 Q 423.914 63.19 423.791 62.922 Q 423.668 62.654 423.501 62.443 Q 423.369 62.276 423.18 62.118 Q 422.991 61.959 422.754 61.841 Q 422.517 61.722 422.235 61.647 Q 421.954 61.573 421.638 61.573 Q 420.979 61.573 420.513 61.836 Q 420.047 62.1 419.766 62.443 Q 419.599 62.654 419.476 62.922 Q 419.353 63.19 419.282 63.471 Q 419.212 63.77 419.186 64.394 Q 419.159 65.018 419.159 65.958 Z M 426.322 57.899 Q 426.393 57.96 426.454 58.022 Q 427.034 58.628 427.052 59.604 Q 427.087 60.79 425.988 61.537 Q 425.813 61.617 425.628 61.687 Q 425.646 61.722 425.672 61.766 Q 425.997 62.364 426.111 63.014 Q 426.173 63.348 426.204 64.077 Q 426.234 64.807 426.234 65.958 Q 426.234 68.217 426.111 68.911 Q 426.05 69.254 425.94 69.562 Q 425.83 69.869 425.681 70.151 Q 425.215 70.994 424.178 71.733 Q 423.141 72.462 421.638 72.462 Q 420.117 72.462 419.08 71.733 Q 418.061 71.012 417.604 70.151 L 417.612 70.151 Q 417.445 69.852 417.331 69.549 Q 417.217 69.245 417.155 68.911 Q 417.103 68.577 417.072 67.844 Q 417.041 67.11 417.041 65.958 Q 417.041 64.807 417.072 64.077 Q 417.103 63.348 417.155 63.014 Q 417.217 62.68 417.331 62.372 Q 417.445 62.065 417.612 61.766 L 417.604 61.766 Q 418.061 60.913 419.08 60.184 Q 420.108 59.446 421.638 59.446 Q 423.149 59.446 424.178 60.184 Q 424.564 60.465 424.872 60.755 Q 425.786 60.421 425.813 59.639 Q 425.804 59.041 425.435 58.786 Z M 428.546 72.357 Q 428.441 72.357 428.441 72.251 L 428.441 59.657 Q 428.441 59.551 428.546 59.551 L 430.357 59.551 Q 430.41 59.551 430.445 59.604 L 435.982 68.323 L 435.982 59.657 Q 435.982 59.551 436.087 59.551 L 438.003 59.551 Q 438.109 59.551 438.109 59.657 L 438.109 72.251 Q 438.109 72.357 438.003 72.357 L 436.202 72.357 Q 436.149 72.357 436.114 72.304 L 430.559 63.585 L 430.559 72.251 Q 430.559 72.357 430.462 72.357 Z" transform="matrix(1.310387, 0, 0, 1.310387, -59.698296, -1.169035)" style="fill: rgb(255, 255, 255);"/>
    <path d="M 426.152 119.118 Q 426.045 119.118 426.045 119.011 L 426.045 106.277 Q 426.045 106.17 426.152 106.17 L 434.292 106.17 Q 434.399 106.17 434.399 106.277 L 434.399 108.107 Q 434.399 108.214 434.292 108.214 L 428.187 108.214 L 428.187 111.626 L 433.377 111.626 Q 433.484 111.626 433.484 111.733 L 433.484 113.457 Q 433.484 113.555 433.377 113.555 L 428.187 113.555 L 428.187 117.092 L 434.292 117.092 Q 434.399 117.092 434.399 117.198 L 434.399 119.011 Q 434.399 119.118 434.292 119.118 Z M 442.572 119.118 Q 442.519 119.118 442.483 119.065 L 439.781 114.479 Q 439.106 115.634 438.431 116.772 Q 437.755 117.909 437.08 119.065 Q 437.044 119.118 436.991 119.118 L 434.814 119.118 Q 434.743 119.118 434.716 119.069 Q 434.689 119.02 434.725 118.958 L 438.591 112.48 Q 437.675 110.933 436.778 109.405 Q 435.88 107.876 434.974 106.33 Q 434.938 106.268 434.965 106.219 Q 434.992 106.17 435.054 106.17 L 437.24 106.17 Q 437.293 106.17 437.329 106.223 L 439.781 110.489 Q 440.395 109.422 441.008 108.361 Q 441.621 107.299 442.234 106.223 Q 442.27 106.17 442.323 106.17 L 444.509 106.17 Q 444.571 106.17 444.598 106.219 Q 444.625 106.268 444.589 106.33 L 440.972 112.48 Q 441.95 114.106 442.91 115.719 Q 443.869 117.332 444.847 118.958 Q 444.882 119.02 444.856 119.069 Q 444.829 119.118 444.758 119.118 Z M 448.149 108.214 L 448.149 112.106 L 450.913 112.106 Q 451.935 112.106 452.433 111.493 Q 452.939 110.898 452.939 110.16 Q 452.939 109.058 452.157 108.552 Q 451.65 108.214 450.842 108.214 Z M 446.114 119.118 Q 446.007 119.118 446.007 119.011 L 446.007 106.277 Q 446.007 106.17 446.114 106.17 L 450.735 106.17 Q 451.499 106.17 452.184 106.33 Q 452.877 106.49 453.659 107.094 Q 453.961 107.334 454.214 107.65 Q 454.468 107.965 454.672 108.347 Q 454.867 108.738 454.974 109.209 Q 455.081 109.68 455.081 110.213 Q 455.081 111.609 454.032 112.879 Q 452.983 114.141 450.984 114.141 L 448.149 114.141 L 448.149 119.011 Q 448.149 119.118 448.042 119.118 Z M 458.768 108.098 L 458.768 111.751 L 461.585 111.751 Q 462.616 111.751 463.131 111.182 Q 463.647 110.613 463.647 109.831 Q 463.647 109.387 463.491 109.04 Q 463.336 108.694 463.042 108.472 Q 462.785 108.294 462.442 108.196 Q 462.1 108.098 461.7 108.098 Z M 456.733 119.118 Q 456.626 119.118 456.626 119.011 L 456.626 106.277 Q 456.626 106.17 456.733 106.17 L 461.718 106.17 Q 462.545 106.17 463.211 106.397 Q 463.878 106.623 464.375 107.041 Q 464.633 107.281 464.869 107.587 Q 465.104 107.894 465.286 108.249 Q 465.468 108.605 465.575 109.005 Q 465.682 109.405 465.682 109.831 Q 465.682 110.462 465.504 111.027 Q 465.326 111.591 465.006 112.08 Q 464.677 112.533 464.242 112.875 Q 463.807 113.217 463.256 113.422 Q 463.975 114.799 464.704 116.19 Q 465.433 117.58 466.153 118.958 Q 466.179 119.02 466.153 119.069 Q 466.126 119.118 466.064 119.118 L 463.771 119.118 Q 463.744 119.118 463.718 119.096 Q 463.691 119.073 463.673 119.056 L 461.069 113.679 L 458.768 113.679 L 458.768 119.011 Q 458.768 119.118 458.661 119.118 Z M 467.66 119.118 Q 467.554 119.118 467.554 119.011 L 467.554 106.277 Q 467.554 106.17 467.66 106.17 L 475.801 106.17 Q 475.907 106.17 475.907 106.277 L 475.907 108.107 Q 475.907 108.214 475.801 108.214 L 469.695 108.214 L 469.695 111.626 L 474.885 111.626 Q 474.992 111.626 474.992 111.733 L 474.992 113.457 Q 474.992 113.555 474.885 113.555 L 469.695 113.555 L 469.695 117.092 L 475.801 117.092 Q 475.907 117.092 475.907 117.198 L 475.907 119.011 Q 475.907 119.118 475.801 119.118 Z M 477.682 115.848 Q 477.708 115.812 477.753 115.812 Q 477.797 115.812 477.833 115.839 Q 478.535 116.407 479.446 116.75 Q 480.357 117.092 481.37 117.092 Q 482.507 117.092 483.165 116.621 Q 483.787 116.168 483.787 115.421 Q 483.787 114.017 482.214 113.804 L 482.223 113.804 Q 482.001 113.777 481.801 113.75 Q 481.601 113.724 481.401 113.697 Q 481.201 113.67 480.992 113.639 Q 480.783 113.608 480.534 113.573 Q 479.699 113.457 479.046 113.15 Q 478.393 112.844 477.948 112.337 Q 477.504 111.822 477.282 111.213 Q 477.06 110.604 477.06 109.885 Q 477.06 108.196 478.179 107.139 Q 479.308 106.063 481.316 106.063 Q 481.912 106.063 482.476 106.166 Q 483.04 106.268 483.569 106.445 Q 484.098 106.623 484.582 106.868 Q 485.067 107.112 485.511 107.405 Q 485.6 107.467 485.538 107.556 L 484.462 109.147 Q 484.4 109.227 484.32 109.174 Q 483.627 108.738 482.845 108.476 Q 482.063 108.214 481.228 108.214 Q 480.801 108.214 480.437 108.316 Q 480.072 108.418 479.779 108.649 Q 479.201 109.067 479.201 109.92 Q 479.201 110.409 479.592 110.871 Q 479.788 111.084 480.117 111.231 Q 480.445 111.378 480.925 111.449 Q 481.183 111.493 481.53 111.542 Q 481.876 111.591 482.347 111.644 Q 484.169 111.866 485.049 112.986 Q 485.929 114.079 485.929 115.421 Q 485.929 117.216 484.676 118.229 Q 483.414 119.225 481.352 119.225 Q 478.446 119.225 476.411 117.447 Q 476.375 117.421 476.375 117.376 Q 476.375 117.332 476.402 117.296 Z M 487.952 115.848 Q 487.978 115.812 488.023 115.812 Q 488.067 115.812 488.103 115.839 Q 488.805 116.407 489.716 116.75 Q 490.627 117.092 491.64 117.092 Q 492.777 117.092 493.435 116.621 Q 494.057 116.168 494.057 115.421 Q 494.057 114.017 492.484 113.804 L 492.493 113.804 Q 492.271 113.777 492.071 113.75 Q 491.871 113.724 491.671 113.697 Q 491.471 113.67 491.262 113.639 Q 491.053 113.608 490.804 113.573 Q 489.969 113.457 489.316 113.15 Q 488.663 112.844 488.218 112.337 Q 487.774 111.822 487.552 111.213 Q 487.33 110.604 487.33 109.885 Q 487.33 108.196 488.449 107.139 Q 489.578 106.063 491.586 106.063 Q 492.182 106.063 492.746 106.166 Q 493.311 106.268 493.839 106.445 Q 494.368 106.623 494.852 106.868 Q 495.337 107.112 495.781 107.405 Q 495.87 107.467 495.808 107.556 L 494.732 109.147 Q 494.67 109.227 494.59 109.174 Q 493.897 108.738 493.115 108.476 Q 492.333 108.214 491.498 108.214 Q 491.071 108.214 490.707 108.316 Q 490.342 108.418 490.049 108.649 Q 489.471 109.067 489.471 109.92 Q 489.471 110.409 489.862 110.871 Q 490.058 111.084 490.387 111.231 Q 490.716 111.378 491.195 111.449 Q 491.453 111.493 491.8 111.542 Q 492.146 111.591 492.617 111.644 Q 494.439 111.866 495.319 112.986 Q 496.199 114.079 496.199 115.421 Q 496.199 117.216 494.946 118.229 Q 493.684 119.225 491.622 119.225 Q 488.716 119.225 486.681 117.447 Q 486.645 117.421 486.645 117.376 Q 486.645 117.332 486.672 117.296 Z M 500.204 119.118 Q 500.115 119.118 500.097 119.038 L 496.907 106.303 Q 496.889 106.25 496.924 106.21 Q 496.96 106.17 497.013 106.17 L 499.057 106.17 Q 499.146 106.17 499.164 106.25 L 501.083 114.95 Q 501.67 112.764 502.265 110.604 Q 502.861 108.445 503.456 106.25 Q 503.474 106.17 503.563 106.17 L 504.958 106.17 Q 505.038 106.17 505.056 106.25 L 507.437 114.95 Q 507.917 112.764 508.397 110.604 Q 508.877 108.445 509.357 106.25 Q 509.375 106.17 509.464 106.17 L 511.508 106.17 Q 511.561 106.17 511.596 106.21 Q 511.632 106.25 511.614 106.303 L 508.424 119.038 Q 508.406 119.118 508.317 119.118 L 506.709 119.118 Q 506.629 119.118 506.611 119.038 L 504.256 110.196 Q 503.669 112.426 503.083 114.621 Q 502.496 116.816 501.91 119.038 Q 501.892 119.118 501.812 119.118 Z M 511.528 119.109 Q 511.466 119.109 511.439 119.065 Q 511.412 119.02 511.43 118.967 L 516.087 106.223 Q 516.104 106.152 516.175 106.152 L 517.766 106.152 Q 517.793 106.152 517.824 106.174 Q 517.855 106.197 517.864 106.223 L 522.512 118.967 Q 522.529 119.02 522.503 119.065 Q 522.476 119.109 522.423 119.109 L 520.388 119.109 Q 520.317 119.109 520.299 119.038 L 519.339 116.23 L 514.647 116.23 Q 514.398 116.95 514.154 117.638 Q 513.909 118.327 513.661 119.038 Q 513.652 119.065 513.621 119.087 Q 513.589 119.109 513.563 119.109 Z M 518.699 114.319 Q 518.682 114.257 518.65 114.186 Q 518.619 114.115 518.602 114.061 Q 518.45 113.626 518.326 113.257 Q 518.202 112.888 518.104 112.613 Q 518.042 112.435 517.984 112.266 Q 517.926 112.097 517.873 111.946 Q 517.828 111.804 517.784 111.675 Q 517.74 111.546 517.695 111.422 Q 517.615 111.164 517.531 110.907 Q 517.446 110.649 517.357 110.373 Q 517.313 110.249 517.264 110.098 Q 517.215 109.947 517.162 109.778 Q 517.135 109.689 517.122 109.64 Q 517.109 109.591 517.091 109.542 Q 517.073 109.494 517.051 109.431 Q 517.029 109.369 516.993 109.254 Q 516.895 109.547 516.811 109.796 Q 516.726 110.045 516.655 110.258 Q 516.638 110.311 516.629 110.356 Q 516.62 110.4 516.602 110.444 Q 516.558 110.596 516.509 110.729 Q 516.46 110.862 516.415 110.995 Q 516.371 111.138 516.327 111.271 Q 516.282 111.404 516.238 111.529 Q 516.149 111.795 516.056 112.089 Q 515.962 112.382 515.847 112.702 Q 515.731 113.022 515.607 113.39 Q 515.482 113.759 515.287 114.319 Z M 525.493 119.118 Q 525.395 119.118 525.395 119.011 L 525.395 113.804 Q 524.435 111.929 523.484 110.062 Q 522.533 108.196 521.582 106.321 Q 521.556 106.259 521.582 106.214 Q 521.609 106.17 521.68 106.17 L 523.706 106.17 Q 523.733 106.17 523.76 106.192 Q 523.786 106.214 523.804 106.232 L 526.417 111.689 Q 527.074 110.311 527.719 108.96 Q 528.363 107.61 529.021 106.232 Q 529.038 106.214 529.065 106.192 Q 529.092 106.17 529.118 106.17 L 531.153 106.17 Q 531.224 106.17 531.251 106.214 Q 531.278 106.259 531.251 106.321 L 527.43 113.804 L 527.43 119.011 Q 527.43 119.118 527.323 119.118 Z" style="fill: rgb(255, 255, 255);"/>
    <path d="M 343.122 84.558 Q 343.194 84.558 343.242 84.612 Q 343.29 84.666 343.266 84.738 Q 342.761 87.189 341.032 88.51 Q 340.191 89.147 339.206 89.471 Q 338.221 89.795 337.08 89.795 Q 335.002 89.795 333.584 88.798 Q 332.191 87.813 331.566 86.636 Q 331.35 86.228 331.194 85.813 Q 331.038 85.399 330.954 84.942 Q 330.798 84.054 330.798 80.906 Q 330.798 79.333 330.834 78.336 Q 330.87 77.339 330.954 76.883 Q 331.038 76.426 331.194 76.006 Q 331.35 75.585 331.566 75.177 Q 332.191 74.012 333.584 73.015 Q 334.99 72.006 337.08 72.006 Q 339.578 72.006 341.212 73.543 Q 342.869 75.093 343.266 77.219 Q 343.29 77.291 343.242 77.339 Q 343.194 77.387 343.122 77.387 L 340.371 77.387 Q 340.263 77.387 340.239 77.291 Q 340.083 76.81 339.794 76.396 Q 339.506 75.982 339.086 75.621 Q 338.293 74.913 337.08 74.913 Q 336.179 74.913 335.542 75.273 Q 334.906 75.633 334.521 76.102 Q 334.293 76.39 334.125 76.756 Q 333.957 77.123 333.861 77.507 Q 333.765 77.916 333.729 78.768 Q 333.693 79.621 333.693 80.906 Q 333.693 82.216 333.729 83.063 Q 333.765 83.909 333.861 84.318 Q 333.957 84.69 334.131 85.057 Q 334.305 85.423 334.521 85.699 Q 334.906 86.204 335.542 86.558 Q 336.179 86.912 337.08 86.912 Q 339.158 86.912 340.239 84.642 Q 340.263 84.618 340.299 84.588 Q 340.335 84.558 340.371 84.558 Z M 348.15 89.651 Q 348.006 89.651 348.006 89.507 L 348.006 74.756 L 343.429 74.756 Q 343.285 74.756 343.285 74.612 L 343.285 72.294 Q 343.285 72.15 343.429 72.15 L 355.465 72.15 Q 355.609 72.15 355.609 72.294 L 355.609 74.612 Q 355.609 74.756 355.465 74.756 L 350.9 74.756 L 350.9 89.507 Q 350.9 89.651 350.756 89.651 Z M 355.978 89.651 Q 355.834 89.651 355.834 89.507 L 355.834 87.068 Q 355.834 86.924 355.978 86.924 L 358.428 86.924 Q 358.56 86.924 358.56 87.068 L 358.56 89.507 Q 358.56 89.651 358.428 89.651 Z M 366.923 77.327 Q 366.923 76.162 366.304 75.507 Q 365.686 74.853 364.653 74.853 Q 363.62 74.853 363.007 75.507 Q 362.395 76.162 362.395 77.327 L 362.395 84.594 Q 362.395 85.771 363.007 86.42 Q 363.62 87.068 364.653 87.068 Q 365.686 87.068 366.304 86.42 Q 366.923 85.771 366.923 84.594 Z M 359.656 77.183 Q 359.656 74.756 361.181 73.447 Q 362.695 72.114 364.653 72.114 Q 365.626 72.114 366.497 72.456 Q 367.367 72.799 368.124 73.447 Q 368.881 74.12 369.271 75.051 Q 369.662 75.982 369.662 77.183 L 369.662 84.738 Q 369.662 87.153 368.124 88.474 Q 366.611 89.795 364.653 89.795 Q 362.695 89.795 361.181 88.474 Q 359.656 87.165 359.656 84.738 Z M 374.694 89.687 Q 374.55 89.687 374.55 89.543 L 374.55 75.273 Q 373.997 75.681 373.445 76.096 Q 372.892 76.51 372.34 76.907 Q 372.256 76.967 372.183 76.925 Q 372.111 76.883 372.111 76.786 L 372.111 74.18 Q 372.111 74.156 372.129 74.12 Q 372.147 74.084 372.171 74.06 L 374.646 72.27 L 377.156 72.27 Q 377.3 72.27 377.3 72.414 L 377.3 89.543 Q 377.3 89.687 377.156 89.687 Z"/>
    <path d="M 399.292 174.341 Q 399.292 175.935 400.255 176.732 Q 401.268 177.545 402.48 177.545 Q 403.692 177.545 404.688 176.732 Q 405.684 175.918 405.684 174.341 Q 405.684 172.797 404.688 171.984 Q 403.742 171.153 402.48 171.153 Q 401.251 171.153 400.255 171.984 Q 399.292 172.78 399.292 174.341 Z M 395.092 184.518 Q 395.092 182.808 395.765 181.48 Q 396.437 180.152 397.748 179.189 Q 396.736 178.242 396.121 177.097 Q 395.507 175.951 395.507 174.407 Q 395.507 171.469 397.499 169.427 Q 399.541 167.368 402.48 167.368 Q 405.435 167.368 407.444 169.427 Q 409.469 171.502 409.469 174.407 Q 409.469 175.171 409.303 175.835 Q 409.137 176.499 408.838 177.089 Q 408.539 177.678 408.124 178.201 Q 407.709 178.724 407.228 179.189 Q 409.884 181.098 409.884 184.518 Q 409.884 186.111 409.328 187.44 Q 408.772 188.768 407.676 189.797 Q 406.597 190.76 405.286 191.283 Q 403.974 191.806 402.48 191.806 Q 399.442 191.806 397.284 189.797 Q 395.092 187.738 395.092 184.518 Z M 398.861 184.485 Q 398.861 185.248 399.151 185.896 Q 399.442 186.543 399.94 187.025 Q 401.052 188.037 402.48 188.037 Q 403.908 188.037 405.02 187.025 Q 405.551 186.527 405.833 185.887 Q 406.116 185.248 406.116 184.485 Q 406.116 182.941 405.02 181.944 Q 403.941 180.915 402.48 180.915 Q 401.052 180.915 399.94 181.944 Q 398.861 182.941 398.861 184.485 Z M 421.936 174.573 Q 421.936 172.963 421.081 172.058 Q 420.226 171.153 418.798 171.153 Q 417.37 171.153 416.524 172.058 Q 415.677 172.963 415.677 174.573 L 415.677 184.617 Q 415.677 186.244 416.524 187.141 Q 417.37 188.037 418.798 188.037 Q 420.226 188.037 421.081 187.141 Q 421.936 186.244 421.936 184.617 Z M 411.892 174.374 Q 411.892 171.021 414 169.211 Q 416.092 167.368 418.798 167.368 Q 420.143 167.368 421.346 167.841 Q 422.55 168.315 423.596 169.211 Q 424.642 170.141 425.181 171.427 Q 425.721 172.714 425.721 174.374 L 425.721 184.817 Q 425.721 188.153 423.596 189.98 Q 421.504 191.806 418.798 191.806 Q 416.092 191.806 414 189.98 Q 411.892 188.17 411.892 184.817 Z"/>
    <path d="M 505.004 174.391 Q 505.02 172.731 505.568 171.427 Q 506.116 170.124 507.112 169.194 Q 508.058 168.331 509.237 167.858 Q 510.416 167.385 511.711 167.385 Q 514.068 167.385 515.977 168.796 Q 517.77 170.224 518.318 172.913 Q 518.351 173.013 518.285 173.079 Q 518.218 173.146 518.119 173.146 L 514.715 173.146 Q 514.583 173.146 514.533 173.029 Q 513.786 171.203 511.694 171.153 Q 508.689 171.236 508.689 174.607 L 508.689 176.566 Q 509.768 176.25 510.839 176.068 Q 511.91 175.885 512.873 175.902 Q 515.197 175.902 516.857 177.528 Q 518.451 179.205 518.434 182.692 L 518.434 184.85 Q 518.384 188.253 516.409 190.029 Q 514.549 191.789 511.711 191.872 Q 508.955 191.789 507.112 190.046 Q 505.02 188.22 505.004 184.866 Z M 508.689 184.667 Q 508.706 188.07 511.711 188.104 Q 514.649 188.087 514.765 184.667 L 514.765 182.725 Q 514.632 179.355 511.711 179.288 Q 508.706 179.371 508.689 182.725 Z M 531.131 174.573 Q 531.131 172.963 530.276 172.058 Q 529.421 171.153 527.993 171.153 Q 526.566 171.153 525.719 172.058 Q 524.872 172.963 524.872 174.573 L 524.872 184.617 Q 524.872 186.244 525.719 187.141 Q 526.566 188.037 527.993 188.037 Q 529.421 188.037 530.276 187.141 Q 531.131 186.244 531.131 184.617 Z M 521.087 174.374 Q 521.087 171.021 523.196 169.211 Q 525.287 167.368 527.993 167.368 Q 529.338 167.368 530.542 167.841 Q 531.745 168.315 532.791 169.211 Q 533.837 170.141 534.377 171.427 Q 534.916 172.714 534.916 174.374 L 534.916 184.817 Q 534.916 188.153 532.791 189.98 Q 530.699 191.806 527.993 191.806 Q 525.287 191.806 523.196 189.98 Q 521.087 188.17 521.087 184.817 Z" style="fill: rgb(255, 255, 255);"/>
  </g>
</svg>