<?xml version="1.0" encoding="UTF-8" standalone="no"?>
<svg
   xmlns:dc="http://purl.org/dc/elements/1.1/"
   xmlns:cc="http://creativecommons.org/ns#"
   xmlns:rdf="http://www.w3.org/1999/02/22-rdf-syntax-ns#"
   xmlns:svg="http://www.w3.org/2000/svg"
   xmlns="http://www.w3.org/2000/svg"
   xmlns:sodipodi="http://sodipodi.sourceforge.net/DTD/sodipodi-0.dtd"
   xmlns:inkscape="http://www.inkscape.org/namespaces/inkscape"
   width="300mm"
   height="95.9562mm"
   viewBox="0 0 300 95.956202"
   version="1.1"
   id="svg9491"
   inkscape:version="1.0 (4035a4fb49, 2020-05-01)"
   sodipodi:docname="Vietnam_road_sign_IE471.svg">
  <defs
     id="defs9485">
    <clipPath
       id="clipPath2832">
      <path
         d="M -0.24,595.138 H 317.24 V -0.138 H -0.24 Z"
         id="path2834"
         inkscape:connector-curvature="0" />
    </clipPath>
    <clipPath
       id="clipPath2840">
      <path
         d="M 0.03,595.32 H 317.49 V 0 H 0.03 Z"
         id="path2842"
         inkscape:connector-curvature="0" />
    </clipPath>
    <clipPath
       id="clipPath2858">
      <path
         d="M -0.24,595.138 H 317.24 V -0.138 H -0.24 Z"
         id="path2860"
         inkscape:connector-curvature="0" />
    </clipPath>
    <clipPath
       id="clipPath2864">
      <path
         d="M 0.03,595.32 H 317.49 V 0 H 0.03 Z"
         id="path2866"
         inkscape:connector-curvature="0" />
    </clipPath>
    <clipPath
       id="clipPath3306">
      <path
         d="m 199.238,472.977 v -29.74 h 29.744 v 29.74"
         id="path3308"
         inkscape:connector-curvature="0" />
    </clipPath>
    <clipPath
       id="clipPath3322">
      <path
         d="M -0.24,595.138 H 317.24 V -0.138 H -0.24 Z"
         id="path3324"
         inkscape:connector-curvature="0" />
    </clipPath>
    <clipPath
       id="clipPath3330">
      <path
         d="M 0.03,595.32 H 317.49 V 0 H 0.03 Z"
         id="path3332"
         inkscape:connector-curvature="0" />
    </clipPath>
    <clipPath
       id="clipPath3344">
      <path
         d="m 88.233,387.221 v -28.335 h 32.08 v 28.335"
         id="path3346"
         inkscape:connector-curvature="0" />
    </clipPath>
    <clipPath
       id="clipPath3462">
      <path
         d="M -0.24,595.138 H 317.24 V -0.138 H -0.24 Z"
         id="path3464"
         inkscape:connector-curvature="0" />
    </clipPath>
    <clipPath
       id="clipPath3470">
      <path
         d="M 0.03,595.32 H 317.49 V 0 H 0.03 Z"
         id="path3472"
         inkscape:connector-curvature="0" />
    </clipPath>
    <clipPath
       id="clipPath3490">
      <path
         d="M -0.24,595.138 H 317.24 V -0.138 H -0.24 Z"
         id="path3492"
         inkscape:connector-curvature="0" />
    </clipPath>
    <clipPath
       id="clipPath3496">
      <path
         d="M 0.03,595.32 H 317.49 V 0 H 0.03 Z"
         id="path3498"
         inkscape:connector-curvature="0" />
    </clipPath>
    <clipPath
       id="clipPath3520">
      <path
         d="m 254.788,326.215 v -28.309 h 28.326 v 28.309"
         id="path3522"
         inkscape:connector-curvature="0" />
    </clipPath>
    <clipPath
       id="clipPath3544">
      <path
         d="m 145.049,326.142 v -28.333 h 28.342 v 28.333"
         id="path3546"
         inkscape:connector-curvature="0" />
    </clipPath>
    <clipPath
       id="clipPath3682">
      <path
         d="M -0.24,595.138 H 317.24 V -0.138 H -0.24 Z"
         id="path3684"
         inkscape:connector-curvature="0" />
    </clipPath>
    <clipPath
       id="clipPath3690">
      <path
         d="M 0.03,595.32 H 317.49 V 0 H 0.03 Z"
         id="path3692"
         inkscape:connector-curvature="0" />
    </clipPath>
    <clipPath
       id="clipPath3980">
      <path
         d="M -0.24,595.138 H 317.24 V -0.138 H -0.24 Z"
         id="path3982"
         inkscape:connector-curvature="0" />
    </clipPath>
    <clipPath
       id="clipPath3988">
      <path
         d="M 0.03,595.32 H 317.49 V 0 H 0.03 Z"
         id="path3990"
         inkscape:connector-curvature="0" />
    </clipPath>
    <clipPath
       id="clipPath4010">
      <path
         d="M -0.24,595.138 H 317.24 V -0.138 H -0.24 Z"
         id="path4012"
         inkscape:connector-curvature="0" />
    </clipPath>
    <clipPath
       id="clipPath4016">
      <path
         d="M 0.03,595.32 H 317.49 V 0 H 0.03 Z"
         id="path4018"
         inkscape:connector-curvature="0" />
    </clipPath>
    <clipPath
       id="clipPath4062">
      <path
         d="m 200.163,177.773 v -28.284 h 28.283 v 28.284"
         id="path4064"
         inkscape:connector-curvature="0" />
    </clipPath>
    <clipPath
       id="clipPath4090">
      <path
         d="m 34.886,177.515 v -51.632 h 30.367 v 51.632"
         id="path4092"
         inkscape:connector-curvature="0" />
    </clipPath>
    <clipPath
       id="clipPath4106">
      <path
         d="m 34.886,177.515 v -51.632 h 30.367 v 51.632"
         id="path4108"
         inkscape:connector-curvature="0" />
    </clipPath>
    <clipPath
       id="clipPath4272">
      <path
         d="m 34.886,177.515 v -51.632 h 30.367 v 51.632"
         id="path4274"
         inkscape:connector-curvature="0" />
    </clipPath>
    <clipPath
       id="clipPath4304">
      <path
         d="m 254.653,176.442 v -48.167 h 28.317 v 48.167"
         id="path4306"
         inkscape:connector-curvature="0" />
    </clipPath>
    <clipPath
       id="clipPath4310">
      <path
         d="m 253.565,177.983 h 31.181 V 128.8 h -31.181 z"
         id="path4312"
         inkscape:connector-curvature="0" />
    </clipPath>
    <clipPath
       id="clipPath4316">
      <path
         d="M -0.24,595.138 H 317.24 V -0.138 H -0.24 Z"
         id="path4318"
         inkscape:connector-curvature="0" />
    </clipPath>
    <clipPath
       id="clipPath4322">
      <path
         d="M 0.03,595.32 H 317.49 V 0 H 0.03 Z"
         id="path4324"
         inkscape:connector-curvature="0" />
    </clipPath>
    <clipPath
       id="clipPath4456">
      <path
         d="M -0.24,595.138 H 317.24 V -0.138 H -0.24 Z"
         id="path4458"
         inkscape:connector-curvature="0" />
    </clipPath>
    <clipPath
       id="clipPath4464">
      <path
         d="M 0.03,595.32 H 317.49 V 0 H 0.03 Z"
         id="path4466"
         inkscape:connector-curvature="0" />
    </clipPath>
  </defs>
  <sodipodi:namedview
     id="base"
     pagecolor="#ffffff"
     bordercolor="#666666"
     borderopacity="1.0"
     inkscape:pageopacity="0.0"
     inkscape:pageshadow="2"
     inkscape:zoom="1.1782778"
     inkscape:cx="566.92913"
     inkscape:cy="181.33455"
     inkscape:document-units="mm"
     inkscape:current-layer="layer1"
     showgrid="false"
     inkscape:window-width="1920"
     inkscape:window-height="1001"
     inkscape:window-x="-9"
     inkscape:window-y="-9"
     inkscape:window-maximized="1"
     inkscape:measure-start="0,0"
     inkscape:measure-end="0,0"
     inkscape:document-rotation="0" />
  <metadata
     id="metadata9488">
    <rdf:RDF>
      <cc:Work
         rdf:about="">
        <dc:format>image/svg+xml</dc:format>
        <dc:type
           rdf:resource="http://purl.org/dc/dcmitype/StillImage" />
        <dc:title></dc:title>
      </cc:Work>
    </rdf:RDF>
  </metadata>
  <g
     inkscape:label="Layer 1"
     inkscape:groupmode="layer"
     id="layer1"
     transform="translate(-788.36869,-408.24981)">
    <path
       d="m 788.36869,408.24981 h 300.00001 v 95.9562 H 788.36869 Z"
       style="opacity:1;fill:#ffd70f;fill-opacity:1;fill-rule:evenodd;stroke:none;stroke-width:1.008;stroke-linecap:square;stroke-miterlimit:10;stroke-dasharray:none;stroke-opacity:1;paint-order:stroke fill markers"
       id="rect4382"
       sodipodi:nodetypes="ccccc" />
    <path
       id="path5917"
       d="m 798.26868,409.18788 c -4.93764,0 -8.95751,4.01985 -8.95751,8.95752 v 76.17678 c 0,4.93767 4.01984,8.95751 8.95751,8.95751 h 280.22222 c 4.9377,0 8.9556,-4.01984 8.9556,-8.95751 V 418.1454 c 0,-4.93767 -4.0179,-8.95752 -8.9556,-8.95752 z m 0,2.7936 h 280.22222 c 3.4384,0 6.162,2.72552 6.162,6.16392 v 76.17678 c 0,3.4384 -2.7236,6.16389 -6.162,6.16389 H 798.26868 c -3.43838,0 -6.16389,-2.72549 -6.16389,-6.16389 V 418.1454 c 0,-3.4384 2.72551,-6.16392 6.16389,-6.16392 z"
       style="color:#000000;font-style:normal;font-variant:normal;font-weight:normal;font-stretch:normal;font-size:medium;line-height:normal;font-family:sans-serif;font-variant-ligatures:normal;font-variant-position:normal;font-variant-caps:normal;font-variant-numeric:normal;font-variant-alternates:normal;font-variant-east-asian:normal;font-feature-settings:normal;font-variation-settings:normal;text-indent:0;text-align:start;text-decoration:none;text-decoration-line:none;text-decoration-style:solid;text-decoration-color:#000000;letter-spacing:normal;word-spacing:normal;text-transform:none;writing-mode:lr-tb;direction:ltr;text-orientation:mixed;dominant-baseline:auto;baseline-shift:baseline;text-anchor:start;white-space:normal;shape-padding:0;shape-margin:0;inline-size:0;clip-rule:nonzero;display:inline;overflow:visible;visibility:visible;opacity:1;isolation:auto;mix-blend-mode:normal;color-interpolation:sRGB;color-interpolation-filters:linearRGB;solid-color:#000000;solid-opacity:1;vector-effect:none;fill:#000000;fill-opacity:1;fill-rule:evenodd;stroke:none;stroke-width:1.008;stroke-linecap:square;stroke-linejoin:miter;stroke-miterlimit:10;stroke-dasharray:none;stroke-dashoffset:0;stroke-opacity:1;paint-order:stroke fill markers;color-rendering:auto;image-rendering:auto;shape-rendering:auto;text-rendering:auto;enable-background:accumulate;stop-color:#000000;stop-opacity:1"
       sodipodi:nodetypes="ssssssssssssssssss" />
    <g
       transform="matrix(0.81452009,0,0,0.81452009,747.01448,337.2414)"
       aria-label="GIỮ KHOẢNG CÁCH AN TOÀN"
       id="text3040"
       style="font-size:28.8747px;line-height:1.3;font-family:'Singapore Road Signs';-inkscape-font-specification:'Singapore Road Signs';text-align:center;letter-spacing:-0.5625px;text-anchor:middle;opacity:1;fill:#000000;fill-opacity:1;stroke-width:0.324833">
      <path
         d="m 70.746197,136.95883 q -0.169187,0 -0.169187,-0.16919 v -2.90439 q 0,-0.15509 0.169187,-0.15509 h 7.176378 q 0.169188,0 0.169188,0.15509 v 4.1169 q 0,3.11587 -2.143044,5.21662 -2.171242,2.12895 -5.23072,2.12895 -2.439122,0 -4.102801,-1.17022 -1.635482,-1.15612 -2.368628,-2.53782 h 0.0141 q -0.267881,-0.47936 -0.451167,-0.95873 -0.183287,-0.49346 -0.28198,-1.02922 -0.08459,-0.53576 -0.14099,-1.70598 -0.0423,-1.18431 -0.0423,-3.03128 0,-1.84696 0.0423,-3.01718 0.0564,-1.17021 0.14099,-1.70597 0.09869,-0.53576 0.28198,-1.02923 0.183286,-0.49346 0.451167,-0.97283 h -0.0141 q 0.733146,-1.3676 2.368628,-2.53781 1.64958,-1.18432 4.102801,-1.18432 2.932587,0 4.850048,1.80467 1.945658,1.80467 2.410924,4.31429 0.0282,0.0846 -0.0282,0.14099 -0.0564,0.0564 -0.140989,0.0564 h -3.228666 q -0.12689,0 -0.155088,-0.11279 -0.183287,-0.56396 -0.521662,-1.04332 -0.338376,-0.49347 -0.83184,-0.91643 -0.930532,-0.83184 -2.354529,-0.83184 -1.057423,0 -1.804669,0.42296 -0.747245,0.42297 -1.198412,0.97283 -0.267881,0.33838 -0.465267,0.77545 -0.197385,0.42297 -0.310177,0.87413 -0.112792,0.47937 -0.155089,1.4804 -0.0423,1.00102 -0.0423,2.50961 0,1.53679 0.0423,2.53782 0.0423,0.98693 0.155089,1.46629 0.112792,0.43707 0.310177,0.87414 0.211485,0.42297 0.465267,0.74724 0.451167,0.59216 1.198412,1.01513 0.747246,0.40887 1.804669,0.40887 1.677778,0 2.819795,-1.14202 1.156116,-1.14201 1.156116,-2.98898 v -0.87413 z"
         style="font-style:normal;font-variant:normal;font-weight:normal;font-stretch:normal;font-family:Giaothong2;-inkscape-font-specification:Giaothong2;text-align:start;text-anchor:start;fill:#000000;fill-opacity:1;stroke-width:0.324833"
         id="path3046" />
      <path
         d="m 81.180897,145.17853 q -0.169188,0 -0.169188,-0.16919 v -20.20383 q 0,-0.16919 0.169188,-0.16919 h 3.059478 q 0.169187,0 0.169187,0.16919 v 20.20383 q 0,0.16919 -0.169187,0.16919 z"
         style="font-style:normal;font-variant:normal;font-weight:normal;font-stretch:normal;font-family:Giaothong2;-inkscape-font-specification:Giaothong2;text-align:start;text-anchor:start;fill:#000000;fill-opacity:1;stroke-width:0.324833"
         id="path3048" />
      <path
         d="m 103.74072,122.02801 q 0.0846,0.0705 0.16918,0.15509 0.93054,0.97283 0.95873,2.53782 0.0564,1.90336 -1.70597,3.10177 -0.73315,0.33838 -1.59319,0.49346 v 9.85519 q 0,3.24276 -2.157139,5.21662 -2.128945,1.95976 -5.188422,1.95976 -3.073577,0 -5.216621,-1.95976 -2.143044,-1.97386 -2.143044,-5.21662 v -13.36583 q 0,-0.16919 0.169187,-0.16919 h 3.073577 q 0.155089,0 0.155089,0.16919 v 13.02745 q 0,2.03025 1.127918,3.07358 1.142017,1.05742 2.833894,1.05742 1.663679,0 2.805696,-1.05742 1.142017,-1.05742 1.142017,-3.07358 v -13.02745 q 0,-0.16919 0.169187,-0.16919 h 3.059481 q 0.16918,0 0.16918,0.16919 v 1.67778 q 1.28301,-0.54986 1.31121,-1.70598 -0.0141,-0.93053 -0.54986,-1.3394 z m -13.224842,0.39477 q -0.169187,0 -0.140989,-0.16919 0.09869,-0.69085 0.338375,-1.2548 0.253781,-0.56396 0.634454,-1.00103 0.380672,-0.39477 0.888235,-0.60626 0.507563,-0.22558 1.071522,-0.22558 0.253782,0 0.493464,0.0282 0.239683,0.0282 0.479366,0.11279 0.253781,0.0846 0.479365,0.16919 0.239682,0.0846 0.394771,0.14099 0.493464,0.25378 0.888235,0.38067 0.267881,0.12689 0.634454,0.12689 0.324277,0 0.634454,-0.19739 0.267881,-0.18328 0.380672,-0.80364 0.0282,-0.11279 0.155089,-0.11279 h 1.466294 q 0.183286,0 0.155088,0.16919 -0.08459,0.60625 -0.296078,1.14201 -0.211485,0.52167 -0.535761,0.95874 -0.352475,0.45116 -0.860038,0.71904 -0.507563,0.25378 -1.170215,0.26788 -0.253781,0 -0.507563,-0.0423 -0.239682,-0.0423 -0.465266,-0.14099 h 0.0141 q -0.155089,-0.0282 -0.40887,-0.11279 -0.253782,-0.0987 -0.592157,-0.22559 -0.437068,-0.19738 -0.83184,-0.31018 -0.394771,-0.11279 -0.775443,-0.12689 -0.211485,0 -0.563959,0.19739 l 0.0141,-0.0141 q -0.352475,0.22558 -0.352475,0.78954 0,0.14099 -0.140989,0.14099 z"
         style="font-style:normal;font-variant:normal;font-weight:normal;font-stretch:normal;font-family:Giaothong2;-inkscape-font-specification:Giaothong2;text-align:start;text-anchor:start;fill:#000000;fill-opacity:1;stroke-width:0.324833"
         id="path3050" />
      <path
         d="m 112.97846,145.17853 q -0.15509,0 -0.15509,-0.16919 v -20.20383 q 0,-0.16919 0.15509,-0.16919 h 3.07358 q 0.16919,0 0.16919,0.16919 v 10.03847 q 2.01615,-2.55192 4.0323,-5.06153 2.01616,-2.52372 4.04641,-5.07563 0.0705,-0.0705 0.12689,-0.0705 h 3.63754 q 0.11279,0 0.15508,0.0987 0.0423,0.0987 -0.0282,0.18329 l -6.40094,7.88133 q 1.79057,3.05948 3.53884,6.06256 1.76238,3.00308 3.56704,6.06256 0.0423,0.0987 0,0.18328 -0.0282,0.0705 -0.14099,0.0705 h -3.63753 q -0.0846,0 -0.14099,-0.0846 l -5.41401,-9.67189 q -0.87413,0.90233 -1.67777,1.74827 -0.80365,0.84594 -1.66368,1.74827 v 6.09076 q 0,0.16919 -0.16919,0.16919 z"
         style="font-style:normal;font-variant:normal;font-weight:normal;font-stretch:normal;font-family:Giaothong2;-inkscape-font-specification:Giaothong2;text-align:start;text-anchor:start;fill:#000000;fill-opacity:1;stroke-width:0.324833"
         id="path3052" />
      <path
         d="m 141.71363,145.17853 q -0.16918,0 -0.16918,-0.16919 v -8.65677 h -7.68395 v 8.65677 q 0,0.16919 -0.16918,0.16919 h -3.05948 q -0.16919,0 -0.16919,-0.16919 v -20.20383 q 0,-0.16919 0.16919,-0.16919 h 3.05948 q 0.16918,0 0.16918,0.16919 v 8.48758 h 7.68395 v -8.48758 q 0,-0.16919 0.16918,-0.16919 h 3.05948 q 0.16919,0 0.16919,0.16919 v 20.20383 q 0,0.16919 -0.16919,0.16919 z"
         style="font-style:normal;font-variant:normal;font-weight:normal;font-stretch:normal;font-family:Giaothong2;-inkscape-font-specification:Giaothong2;text-align:start;text-anchor:start;fill:#000000;fill-opacity:1;stroke-width:0.324833"
         id="path3054" />
      <path
         d="m 147.94684,134.91447 q 0,-1.84696 0.0423,-3.01718 0.0564,-1.17021 0.14099,-1.70597 0.0987,-0.53576 0.28198,-1.02923 0.18329,-0.49346 0.45117,-0.97283 h -0.0141 q 0.73315,-1.3676 2.36863,-2.53781 1.64958,-1.18432 4.1028,-1.18432 2.42502,0 4.0746,1.18432 1.66368,1.19841 2.39683,2.53781 0.52166,0.95873 0.70495,2.00206 0.0987,0.53576 0.14099,1.70597 0.0564,1.17022 0.0564,3.01718 0,3.62344 -0.19738,4.73726 -0.0987,0.54986 -0.28198,1.04332 -0.16919,0.49347 -0.40887,0.94463 -0.74725,1.35351 -2.41093,2.53782 -1.66368,1.17022 -4.0746,1.17022 -2.43912,0 -4.1028,-1.17022 -1.63548,-1.15612 -2.36863,-2.53782 h 0.0141 q -0.26788,-0.47936 -0.45117,-0.95873 -0.18329,-0.49346 -0.28198,-1.02922 -0.0846,-0.53576 -0.14099,-1.70598 -0.0423,-1.18431 -0.0423,-3.03128 z m 3.39785,0 q 0,1.53679 0.0423,2.53782 0.0423,0.98693 0.15508,1.46629 0.1128,0.43707 0.31018,0.87414 0.21149,0.42297 0.46527,0.74724 0.45116,0.59216 1.19841,1.01513 0.74725,0.40887 1.80467,0.40887 1.04332,0 1.79057,-0.40887 0.74724,-0.42297 1.18431,-1.01513 0.59216,-0.71904 0.77545,-1.62138 0.22558,-0.90233 0.22558,-4.00411 0,-1.53678 -0.0564,-2.52371 -0.0564,-1.00103 -0.16918,-1.4663 -0.0987,-0.45116 -0.29608,-0.87413 -0.19739,-0.43707 -0.46527,-0.77545 -0.21148,-0.26788 -0.52166,-0.52166 -0.29608,-0.25378 -0.67675,-0.43707 -0.38067,-0.19738 -0.83184,-0.31017 -0.45117,-0.12689 -0.95873,-0.12689 -1.05742,0 -1.80467,0.42296 -0.74725,0.42297 -1.19841,0.97283 -0.26788,0.33838 -0.46527,0.77545 -0.19738,0.42297 -0.31018,0.87413 -0.11279,0.47937 -0.15508,1.4804 -0.0423,1.00102 -0.0423,2.50961 z"
         style="font-style:normal;font-variant:normal;font-weight:normal;font-stretch:normal;font-family:Giaothong2;-inkscape-font-specification:Giaothong2;text-align:start;text-anchor:start;fill:#000000;fill-opacity:1;stroke-width:0.324833"
         id="path3056" />
      <path
         d="m 163.83784,145.16443 q -0.0987,0 -0.14099,-0.0705 -0.0423,-0.0705 -0.0141,-0.15508 l 7.38786,-20.21793 q 0.0282,-0.1128 0.14099,-0.1128 h 2.52372 q 0.0423,0 0.0846,0.0423 0.0564,0.0282 0.0705,0.0705 l 7.37376,20.21793 q 0.0282,0.0846 -0.0141,0.15508 -0.0423,0.0705 -0.12689,0.0705 h -3.22866 q -0.1128,0 -0.14099,-0.11279 l -1.52269,-4.45528 h -7.44426 q -0.39477,1.14202 -0.78954,2.24174 -0.38068,1.08562 -0.77545,2.21354 -0.0141,0.0423 -0.0705,0.0846 -0.0423,0.0282 -0.0846,0.0282 z m 11.37787,-7.59935 q -0.0282,-0.0987 -0.0846,-0.21148 -0.0423,-0.1128 -0.0705,-0.19739 -0.23968,-0.69085 -0.43707,-1.26891 -0.19738,-0.59215 -0.35247,-1.02922 -0.0987,-0.28198 -0.19739,-0.54986 -0.0846,-0.26788 -0.16918,-0.50757 -0.0705,-0.22558 -0.14099,-0.42296 -0.0705,-0.21149 -0.14099,-0.40887 -0.12689,-0.40887 -0.26788,-0.81775 -0.12689,-0.40887 -0.26788,-0.84593 -0.0705,-0.19739 -0.15509,-0.43707 -0.0705,-0.23968 -0.15509,-0.50756 -0.0423,-0.14099 -0.0705,-0.21149 -0.0141,-0.0846 -0.0423,-0.15509 -0.0282,-0.0846 -0.0705,-0.18328 -0.0282,-0.0987 -0.0846,-0.28198 -0.15509,0.46526 -0.29608,0.86003 -0.12689,0.39477 -0.23968,0.73315 -0.0282,0.0846 -0.0423,0.15509 -0.0141,0.0705 -0.0423,0.14099 -0.0705,0.23968 -0.15509,0.45117 -0.0705,0.21148 -0.14099,0.42296 -0.0705,0.22559 -0.14099,0.43707 -0.0705,0.21149 -0.14098,0.40887 -0.14099,0.42297 -0.29608,0.88824 -0.14099,0.46526 -0.32428,0.97283 -0.18329,0.50756 -0.38067,1.09972 -0.19739,0.57806 -0.50757,1.46629 z m -2.93259,-14.74753 q -0.57805,0 -0.93053,0 V 122.169 q 0.15509,-0.88823 1.09972,-1.45219 1.48039,-0.62036 1.3535,-1.4663 -0.19738,-0.86003 -1.3253,-0.87413 -1.49449,0.0282 -1.57909,1.45219 h -2.10074 q 0,-0.78954 0.28198,-1.3112 0.29608,-0.52167 0.78954,-1.01513 0.97283,-0.93053 2.53782,-0.95873 1.64958,0.0282 2.707,0.93053 0.47936,0.47937 0.74724,0.93053 0.26788,0.45117 0.28198,1.14202 -0.0846,0.97283 -1.08562,1.70598 -0.84594,0.40887 -1.2971,0.64855 l -0.16919,0.18329 -0.18329,0.28198 -0.0282,0.45116 q -0.50756,0 -1.09972,0 z"
         style="font-style:normal;font-variant:normal;font-weight:normal;font-stretch:normal;font-family:Giaothong2;-inkscape-font-specification:Giaothong2;text-align:start;text-anchor:start;fill:#000000;fill-opacity:1;stroke-width:0.324833"
         id="path3058" />
      <path
         d="m 183.25359,145.17853 q -0.16919,0 -0.16919,-0.16919 v -20.20383 q 0,-0.16919 0.16919,-0.16919 h 2.90439 q 0.0846,0 0.14099,0.0846 l 8.88235,13.98618 v -13.90159 q 0,-0.16919 0.16919,-0.16919 h 3.07358 q 0.16918,0 0.16918,0.16919 v 20.20383 q 0,0.16919 -0.16918,0.16919 h -2.89029 q -0.0846,0 -0.14099,-0.0846 l -8.91056,-13.98618 v 13.90159 q 0,0.16919 -0.15508,0.16919 z"
         style="font-style:normal;font-variant:normal;font-weight:normal;font-stretch:normal;font-family:Giaothong2;-inkscape-font-specification:Giaothong2;text-align:start;text-anchor:start;fill:#000000;fill-opacity:1;stroke-width:0.324833"
         id="path3060" />
      <path
         d="m 208.98567,136.95883 q -0.16919,0 -0.16919,-0.16919 v -2.90439 q 0,-0.15509 0.16919,-0.15509 h 7.17638 q 0.16918,0 0.16918,0.15509 v 4.1169 q 0,3.11587 -2.14304,5.21662 -2.17124,2.12895 -5.23072,2.12895 -2.43912,0 -4.1028,-1.17022 -1.63548,-1.15612 -2.36863,-2.53782 h 0.0141 q -0.26788,-0.47936 -0.45117,-0.95873 -0.18328,-0.49346 -0.28198,-1.02922 -0.0846,-0.53576 -0.14099,-1.70598 -0.0423,-1.18431 -0.0423,-3.03128 0,-1.84696 0.0423,-3.01718 0.0564,-1.17021 0.14099,-1.70597 0.0987,-0.53576 0.28198,-1.02923 0.18329,-0.49346 0.45117,-0.97283 h -0.0141 q 0.73315,-1.3676 2.36863,-2.53781 1.64958,-1.18432 4.1028,-1.18432 2.93259,0 4.85005,1.80467 1.94566,1.80467 2.41092,4.31429 0.0282,0.0846 -0.0282,0.14099 -0.0564,0.0564 -0.14098,0.0564 h -3.22867 q -0.12689,0 -0.15509,-0.11279 -0.18329,-0.56396 -0.52166,-1.04332 -0.33838,-0.49347 -0.83184,-0.91643 -0.93053,-0.83184 -2.35453,-0.83184 -1.05742,0 -1.80467,0.42296 -0.74724,0.42297 -1.19841,0.97283 -0.26788,0.33838 -0.46527,0.77545 -0.19738,0.42297 -0.31017,0.87413 -0.1128,0.47937 -0.15509,1.4804 -0.0423,1.00102 -0.0423,2.50961 0,1.53679 0.0423,2.53782 0.0423,0.98693 0.15509,1.46629 0.11279,0.43707 0.31017,0.87414 0.21149,0.42297 0.46527,0.74724 0.45117,0.59216 1.19841,1.01513 0.74725,0.40887 1.80467,0.40887 1.67778,0 2.8198,-1.14202 1.15611,-1.14201 1.15611,-2.98898 v -0.87413 z"
         style="font-style:normal;font-variant:normal;font-weight:normal;font-stretch:normal;font-family:Giaothong2;-inkscape-font-specification:Giaothong2;text-align:start;text-anchor:start;fill:#000000;fill-opacity:1;stroke-width:0.324833"
         id="path3062" />
      <path
         d="m 239.45648,139.20056 q 0.0846,0 0.14099,0.0705 0.0564,0.0564 0.0282,0.14099 -0.59216,2.87619 -2.62241,4.42708 -0.98693,0.74724 -2.14304,1.12791 -1.15612,0.38068 -2.49552,0.38068 -2.43913,0 -4.1028,-1.17022 -1.63549,-1.15612 -2.36863,-2.53782 -0.25378,-0.47936 -0.43707,-0.95873 -0.18329,-0.49346 -0.28198,-1.02922 -0.18329,-1.04332 -0.18329,-4.73726 0,-1.84696 0.0423,-3.01718 0.0423,-1.17021 0.14099,-1.70597 0.0987,-0.53576 0.28198,-1.02923 0.18329,-0.49346 0.43707,-0.97283 0.73314,-1.3676 2.36863,-2.53781 1.64958,-1.18432 4.1028,-1.18432 2.93258,0 4.85004,1.80467 1.94566,1.81877 2.41093,4.31429 0.0282,0.0846 -0.0282,0.14099 -0.0564,0.0564 -0.14099,0.0564 h -3.22866 q -0.12689,0 -0.15509,-0.11279 -0.18329,-0.56396 -0.52166,-1.04332 -0.33838,-0.49347 -0.83184,-0.91643 -0.93054,-0.83184 -2.35453,-0.83184 -1.05743,0 -1.80467,0.42296 -0.74725,0.42297 -1.19841,0.97283 -0.26788,0.33838 -0.46527,0.77545 -0.19739,0.42297 -0.31018,0.87413 -0.11279,0.47937 -0.15509,1.4804 -0.0423,1.00102 -0.0423,2.50961 0,1.53679 0.0423,2.53782 0.0423,0.98693 0.15509,1.46629 0.11279,0.43707 0.31018,0.87414 0.21148,0.42297 0.46527,0.74724 0.45116,0.59216 1.19841,1.01513 0.74724,0.40887 1.80467,0.40887 2.43912,0 3.70803,-2.6647 0.0282,-0.0282 0.0705,-0.0564 0.0423,-0.0423 0.0846,-0.0423 z"
         style="font-style:normal;font-variant:normal;font-weight:normal;font-stretch:normal;font-family:Giaothong2;-inkscape-font-specification:Giaothong2;text-align:start;text-anchor:start;fill:#000000;fill-opacity:1;stroke-width:0.324833"
         id="path3064" />
      <path
         d="m 239.35925,145.16443 q -0.0987,0 -0.14099,-0.0705 -0.0423,-0.0705 -0.0141,-0.15508 l 7.38786,-20.21793 q 0.0282,-0.1128 0.14099,-0.1128 h 2.52372 q 0.0423,0 0.0846,0.0423 0.0564,0.0282 0.0705,0.0705 l 7.37376,20.21793 q 0.0282,0.0846 -0.0141,0.15508 -0.0423,0.0705 -0.12689,0.0705 h -3.22867 q -0.11279,0 -0.14099,-0.11279 l -1.52268,-4.45528 H 244.308 q -0.39477,1.14202 -0.78955,2.24174 -0.38067,1.08562 -0.77544,2.21354 -0.0141,0.0423 -0.0705,0.0846 -0.0423,0.0282 -0.0846,0.0282 z m 11.37787,-7.59935 q -0.0282,-0.0987 -0.0846,-0.21148 -0.0423,-0.1128 -0.0705,-0.19739 -0.23968,-0.69085 -0.43707,-1.26891 -0.19738,-0.59215 -0.35247,-1.02922 -0.0987,-0.28198 -0.19739,-0.54986 -0.0846,-0.26788 -0.16919,-0.50757 -0.0705,-0.22558 -0.14099,-0.42296 -0.0705,-0.21149 -0.14098,-0.40887 -0.1269,-0.40887 -0.26789,-0.81775 -0.12689,-0.40887 -0.26788,-0.84593 -0.0705,-0.19739 -0.15508,-0.43707 -0.0705,-0.23968 -0.15509,-0.50756 -0.0423,-0.14099 -0.0705,-0.21149 -0.0141,-0.0846 -0.0423,-0.15509 -0.0282,-0.0846 -0.0705,-0.18328 -0.0282,-0.0987 -0.0846,-0.28198 -0.15509,0.46526 -0.29608,0.86003 -0.12689,0.39477 -0.23968,0.73315 -0.0282,0.0846 -0.0423,0.15509 -0.0141,0.0705 -0.0423,0.14099 -0.0705,0.23968 -0.15509,0.45117 -0.0705,0.21148 -0.14099,0.42296 -0.0705,0.22559 -0.14099,0.43707 -0.0705,0.21149 -0.14099,0.40887 -0.14099,0.42297 -0.29608,0.88824 -0.14098,0.46526 -0.32427,0.97283 -0.18329,0.50756 -0.38067,1.09972 -0.19739,0.57806 -0.50757,1.46629 z m -5.78058,-14.74753 q -0.11279,0 -0.15509,-0.0705 -0.0282,-0.0846 0.0141,-0.18329 l 2.94669,-4.1169 q 0.0564,-0.0846 0.14099,-0.0846 h 3.10177 q 0.11279,0 0.15509,0.0987 0.0564,0.0987 -0.0282,0.18329 l -3.89132,4.1169 q -0.0141,0.0141 -0.0564,0.0423 -0.0423,0.0141 -0.0705,0.0141 z"
         style="font-style:normal;font-variant:normal;font-weight:normal;font-stretch:normal;font-family:Giaothong2;-inkscape-font-specification:Giaothong2;text-align:start;text-anchor:start;fill:#000000;fill-opacity:1;stroke-width:0.324833"
         id="path3066" />
      <path
         d="m 272.39461,139.20056 q 0.0846,0 0.14099,0.0705 0.0564,0.0564 0.0282,0.14099 -0.59215,2.87619 -2.6224,4.42708 -0.98693,0.74724 -2.14305,1.12791 -1.15611,0.38068 -2.49552,0.38068 -2.43912,0 -4.1028,-1.17022 -1.63548,-1.15612 -2.36863,-2.53782 -0.25378,-0.47936 -0.43706,-0.95873 -0.18329,-0.49346 -0.28198,-1.02922 -0.18329,-1.04332 -0.18329,-4.73726 0,-1.84696 0.0423,-3.01718 0.0423,-1.17021 0.14099,-1.70597 0.0987,-0.53576 0.28198,-1.02923 0.18328,-0.49346 0.43706,-0.97283 0.73315,-1.3676 2.36863,-2.53781 1.64958,-1.18432 4.1028,-1.18432 2.93259,0 4.85005,1.80467 1.94566,1.81877 2.41092,4.31429 0.0282,0.0846 -0.0282,0.14099 -0.0564,0.0564 -0.14099,0.0564 h -3.22867 q -0.12689,0 -0.15509,-0.11279 -0.18328,-0.56396 -0.52166,-1.04332 -0.33837,-0.49347 -0.83184,-0.91643 -0.93053,-0.83184 -2.35453,-0.83184 -1.05742,0 -1.80467,0.42296 -0.74724,0.42297 -1.19841,0.97283 -0.26788,0.33838 -0.46526,0.77545 -0.19739,0.42297 -0.31018,0.87413 -0.11279,0.47937 -0.15509,1.4804 -0.0423,1.00102 -0.0423,2.50961 0,1.53679 0.0423,2.53782 0.0423,0.98693 0.15509,1.46629 0.11279,0.43707 0.31018,0.87414 0.21148,0.42297 0.46526,0.74724 0.45117,0.59216 1.19841,1.01513 0.74725,0.40887 1.80467,0.40887 2.43913,0 3.70803,-2.6647 0.0282,-0.0282 0.0705,-0.0564 0.0423,-0.0423 0.0846,-0.0423 z"
         style="font-style:normal;font-variant:normal;font-weight:normal;font-stretch:normal;font-family:Giaothong2;-inkscape-font-specification:Giaothong2;text-align:start;text-anchor:start;fill:#000000;fill-opacity:1;stroke-width:0.324833"
         id="path3068" />
      <path
         d="m 285.36712,145.17853 q -0.16919,0 -0.16919,-0.16919 v -8.65677 h -7.68394 v 8.65677 q 0,0.16919 -0.16918,0.16919 h -3.05948 q -0.16919,0 -0.16919,-0.16919 v -20.20383 q 0,-0.16919 0.16919,-0.16919 h 3.05948 q 0.16918,0 0.16918,0.16919 v 8.48758 h 7.68394 v -8.48758 q 0,-0.16919 0.16919,-0.16919 h 3.05948 q 0.16919,0 0.16919,0.16919 v 20.20383 q 0,0.16919 -0.16919,0.16919 z"
         style="font-style:normal;font-variant:normal;font-weight:normal;font-stretch:normal;font-family:Giaothong2;-inkscape-font-specification:Giaothong2;text-align:start;text-anchor:start;fill:#000000;fill-opacity:1;stroke-width:0.324833"
         id="path3070" />
      <path
         d="m 296.8325,145.16443 q -0.0987,0 -0.14099,-0.0705 -0.0423,-0.0705 -0.0141,-0.15508 l 7.38786,-20.21793 q 0.0282,-0.1128 0.14099,-0.1128 h 2.52372 q 0.0423,0 0.0846,0.0423 0.0564,0.0282 0.0705,0.0705 l 7.37376,20.21793 q 0.0282,0.0846 -0.0141,0.15508 -0.0423,0.0705 -0.12689,0.0705 h -3.22866 q -0.1128,0 -0.14099,-0.11279 l -1.52269,-4.45528 h -7.44426 q -0.39477,1.14202 -0.78954,2.24174 -0.38068,1.08562 -0.77545,2.21354 -0.0141,0.0423 -0.0705,0.0846 -0.0423,0.0282 -0.0846,0.0282 z m 11.37787,-7.59935 q -0.0282,-0.0987 -0.0846,-0.21148 -0.0423,-0.1128 -0.0705,-0.19739 -0.23968,-0.69085 -0.43707,-1.26891 -0.19738,-0.59215 -0.35247,-1.02922 -0.0987,-0.28198 -0.19739,-0.54986 -0.0846,-0.26788 -0.16918,-0.50757 -0.0705,-0.22558 -0.14099,-0.42296 -0.0705,-0.21149 -0.14099,-0.40887 -0.12689,-0.40887 -0.26788,-0.81775 -0.12689,-0.40887 -0.26788,-0.84593 -0.0705,-0.19739 -0.15509,-0.43707 -0.0705,-0.23968 -0.15509,-0.50756 -0.0423,-0.14099 -0.0705,-0.21149 -0.0141,-0.0846 -0.0423,-0.15509 -0.0282,-0.0846 -0.0705,-0.18328 -0.0282,-0.0987 -0.0846,-0.28198 -0.15509,0.46526 -0.29608,0.86003 -0.12689,0.39477 -0.23968,0.73315 -0.0282,0.0846 -0.0423,0.15509 -0.0141,0.0705 -0.0423,0.14099 -0.0705,0.23968 -0.15509,0.45117 -0.0705,0.21148 -0.14099,0.42296 -0.0705,0.22559 -0.14099,0.43707 -0.0705,0.21149 -0.14099,0.40887 -0.14099,0.42297 -0.29607,0.88824 -0.14099,0.46526 -0.32428,0.97283 -0.18329,0.50756 -0.38067,1.09972 -0.19739,0.57806 -0.50757,1.46629 z"
         style="font-style:normal;font-variant:normal;font-weight:normal;font-stretch:normal;font-family:Giaothong2;-inkscape-font-specification:Giaothong2;text-align:start;text-anchor:start;fill:#000000;fill-opacity:1;stroke-width:0.324833"
         id="path3072" />
      <path
         d="m 316.24825,145.17853 q -0.16919,0 -0.16919,-0.16919 v -20.20383 q 0,-0.16919 0.16919,-0.16919 h 2.90439 q 0.0846,0 0.14099,0.0846 l 8.88235,13.98618 v -13.90159 q 0,-0.16919 0.16919,-0.16919 h 3.07358 q 0.16918,0 0.16918,0.16919 v 20.20383 q 0,0.16919 -0.16918,0.16919 h -2.89029 q -0.0846,0 -0.14099,-0.0846 l -8.91056,-13.98618 v 13.90159 q 0,0.16919 -0.15508,0.16919 z"
         style="font-style:normal;font-variant:normal;font-weight:normal;font-stretch:normal;font-family:Giaothong2;-inkscape-font-specification:Giaothong2;text-align:start;text-anchor:start;fill:#000000;fill-opacity:1;stroke-width:0.324833"
         id="path3074" />
      <path
         d="m 345.28096,145.17853 q -0.16919,0 -0.16919,-0.16919 V 127.6958 h -5.37171 q -0.16919,0 -0.16919,-0.16919 v -2.7211 q 0,-0.16919 0.16919,-0.16919 h 14.12717 q 0.16919,0 0.16919,0.16919 v 2.7211 q 0,0.16919 -0.16919,0.16919 h -5.35761 v 17.31354 q 0,0.16919 -0.16918,0.16919 z"
         style="font-style:normal;font-variant:normal;font-weight:normal;font-stretch:normal;font-family:Giaothong2;-inkscape-font-specification:Giaothong2;text-align:start;text-anchor:start;fill:#000000;fill-opacity:1;stroke-width:0.324833"
         id="path3076" />
      <path
         d="m 354.88382,134.91447 q 0,-1.84696 0.0423,-3.01718 0.0564,-1.17021 0.14099,-1.70597 0.0987,-0.53576 0.28198,-1.02923 0.18329,-0.49346 0.45117,-0.97283 h -0.0141 q 0.73315,-1.3676 2.36863,-2.53781 1.64958,-1.18432 4.1028,-1.18432 2.42502,0 4.0746,1.18432 1.66368,1.19841 2.39683,2.53781 0.52166,0.95873 0.70495,2.00206 0.0987,0.53576 0.14099,1.70597 0.0564,1.17022 0.0564,3.01718 0,3.62344 -0.19738,4.73726 -0.0987,0.54986 -0.28198,1.04332 -0.16919,0.49347 -0.40887,0.94463 -0.74725,1.35351 -2.41093,2.53782 -1.66367,1.17022 -4.0746,1.17022 -2.43912,0 -4.1028,-1.17022 -1.63548,-1.15612 -2.36863,-2.53782 h 0.0141 q -0.26788,-0.47936 -0.45117,-0.95873 -0.18328,-0.49346 -0.28198,-1.02922 -0.0846,-0.53576 -0.14099,-1.70598 -0.0423,-1.18431 -0.0423,-3.03128 z m 3.39785,0 q 0,1.53679 0.0423,2.53782 0.0423,0.98693 0.15509,1.46629 0.11279,0.43707 0.31017,0.87414 0.21149,0.42297 0.46527,0.74724 0.45117,0.59216 1.19841,1.01513 0.74725,0.40887 1.80467,0.40887 1.04332,0 1.79057,-0.40887 0.74725,-0.42297 1.18431,-1.01513 0.59216,-0.71904 0.77545,-1.62138 0.22558,-0.90233 0.22558,-4.00411 0,-1.53678 -0.0564,-2.52371 -0.0564,-1.00103 -0.16919,-1.4663 -0.0987,-0.45116 -0.29608,-0.87413 -0.19739,-0.43707 -0.46527,-0.77545 -0.21148,-0.26788 -0.52166,-0.52166 -0.29608,-0.25378 -0.67675,-0.43707 -0.38067,-0.19738 -0.83184,-0.31017 -0.45117,-0.12689 -0.95873,-0.12689 -1.05742,0 -1.80467,0.42296 -0.74724,0.42297 -1.19841,0.97283 -0.26788,0.33838 -0.46527,0.77545 -0.19738,0.42297 -0.31017,0.87413 -0.1128,0.47937 -0.15509,1.4804 -0.0423,1.00102 -0.0423,2.50961 z"
         style="font-style:normal;font-variant:normal;font-weight:normal;font-stretch:normal;font-family:Giaothong2;-inkscape-font-specification:Giaothong2;text-align:start;text-anchor:start;fill:#000000;fill-opacity:1;stroke-width:0.324833"
         id="path3078" />
      <path
         d="m 370.77482,145.16443 q -0.0987,0 -0.14099,-0.0705 -0.0423,-0.0705 -0.0141,-0.15508 l 7.38786,-20.21793 q 0.0282,-0.1128 0.14099,-0.1128 h 2.52372 q 0.0423,0 0.0846,0.0423 0.0564,0.0282 0.0705,0.0705 l 7.37376,20.21793 q 0.0282,0.0846 -0.0141,0.15508 -0.0423,0.0705 -0.12689,0.0705 h -3.22866 q -0.11279,0 -0.14099,-0.11279 l -1.52269,-4.45528 h -7.44426 q -0.39477,1.14202 -0.78954,2.24174 -0.38067,1.08562 -0.77545,2.21354 -0.0141,0.0423 -0.0705,0.0846 -0.0423,0.0282 -0.0846,0.0282 z m 11.37787,-7.59935 q -0.0282,-0.0987 -0.0846,-0.21148 -0.0423,-0.1128 -0.0705,-0.19739 -0.23968,-0.69085 -0.43706,-1.26891 -0.19739,-0.59215 -0.35248,-1.02922 -0.0987,-0.28198 -0.19738,-0.54986 -0.0846,-0.26788 -0.16919,-0.50757 -0.0705,-0.22558 -0.14099,-0.42296 -0.0705,-0.21149 -0.14099,-0.40887 -0.12689,-0.40887 -0.26788,-0.81775 -0.12689,-0.40887 -0.26788,-0.84593 -0.0705,-0.19739 -0.15509,-0.43707 -0.0705,-0.23968 -0.15509,-0.50756 -0.0423,-0.14099 -0.0705,-0.21149 -0.0141,-0.0846 -0.0423,-0.15509 -0.0282,-0.0846 -0.0705,-0.18328 -0.0282,-0.0987 -0.0846,-0.28198 -0.15509,0.46526 -0.29608,0.86003 -0.12689,0.39477 -0.23968,0.73315 -0.0282,0.0846 -0.0423,0.15509 -0.0141,0.0705 -0.0423,0.14099 -0.0705,0.23968 -0.15508,0.45117 -0.0705,0.21148 -0.14099,0.42296 -0.0705,0.22559 -0.14099,0.43707 -0.0705,0.21149 -0.14099,0.40887 -0.14099,0.42297 -0.29608,0.88824 -0.14099,0.46526 -0.32428,0.97283 -0.18329,0.50756 -0.38067,1.09972 -0.19739,0.57806 -0.50756,1.46629 z m -1.86106,-14.74753 q -0.0282,0 -0.0705,-0.0141 -0.0423,-0.0282 -0.0564,-0.0423 l -3.89132,-4.1169 q -0.0846,-0.0846 -0.0423,-0.18329 0.0564,-0.0987 0.16919,-0.0987 h 3.10178 q 0.0846,0 0.14098,0.0846 l 2.94669,4.1169 q 0.0423,0.0987 0,0.18329 -0.0282,0.0705 -0.14099,0.0705 z"
         style="font-style:normal;font-variant:normal;font-weight:normal;font-stretch:normal;font-family:Giaothong2;-inkscape-font-specification:Giaothong2;text-align:start;text-anchor:start;fill:#000000;fill-opacity:1;stroke-width:0.324833"
         id="path3080" />
      <path
         d="m 390.19057,145.17853 q -0.16919,0 -0.16919,-0.16919 v -20.20383 q 0,-0.16919 0.16919,-0.16919 h 2.90439 q 0.0846,0 0.14099,0.0846 l 8.88235,13.98618 v -13.90159 q 0,-0.16919 0.16919,-0.16919 h 3.07358 q 0.16919,0 0.16919,0.16919 v 20.20383 q 0,0.16919 -0.16919,0.16919 h -2.89029 q -0.0846,0 -0.14099,-0.0846 l -8.91055,-13.98618 v 13.90159 q 0,0.16919 -0.15509,0.16919 z"
         style="font-style:normal;font-variant:normal;font-weight:normal;font-stretch:normal;font-family:Giaothong2;-inkscape-font-specification:Giaothong2;text-align:start;text-anchor:start;fill:#000000;fill-opacity:1;stroke-width:0.324833"
         id="path3082" />
    </g>
    <g
       transform="matrix(0.81452009,0,0,0.81452009,747.01448,337.2414)"
       aria-label="SAFE STOPPING DISTANC"
       id="text3044"
       style="font-size:22.0298px;line-height:1.3;font-family:'Singapore Road Signs';-inkscape-font-specification:'Singapore Road Signs';text-align:center;letter-spacing:0px;text-anchor:middle;opacity:1;fill:#000000;fill-opacity:1;stroke-width:0.324832">
      <path
         d="m 109.14212,170.95641 q 0.0323,-0.043 0.0861,-0.043 0.0538,0 0.0968,0.0323 0.84978,0.68843 1.94697,1.10794 1.10794,0.40876 2.33421,0.40876 1.37687,0 2.17286,-0.57011 0.75298,-0.54859 0.75298,-1.45216 0,-1.69956 -1.90395,-1.95772 h 0.0108 q -0.26892,-0.0323 -0.51632,-0.0645 -0.23665,-0.0323 -0.48406,-0.0645 -0.23664,-0.0323 -0.49481,-0.0646 -0.2474,-0.043 -0.54859,-0.0861 -1.01113,-0.13984 -1.80713,-0.50557 -0.78524,-0.37648 -1.32308,-0.98962 -0.53784,-0.62389 -0.80676,-1.35534 -0.26892,-0.74222 -0.26892,-1.61352 0,-2.04378 1.35535,-3.32383 1.36611,-1.30156 3.79713,-1.30156 0.7207,0 1.39838,0.12908 0.68843,0.11832 1.32308,0.33346 0.6454,0.21513 1.22627,0.51632 0.59162,0.29043 1.12945,0.6454 0.10757,0.0753 0.0323,0.18287 l -1.30156,1.92546 q -0.0753,0.0968 -0.17211,0.0323 -0.83903,-0.52708 -1.78562,-0.83903 -0.94659,-0.3227 -1.95772,-0.3227 -0.51633,0 -0.95735,0.12908 -0.44103,0.11832 -0.796,0.398 -0.69919,0.50556 -0.69919,1.53821 0,0.59162 0.4733,1.15097 0.23664,0.25816 0.63464,0.44103 0.398,0.17211 0.97887,0.25816 0.31194,0.0538 0.73145,0.11832 0.41952,0.0538 0.98962,0.11833 2.20514,0.26892 3.27005,1.62427 1.06492,1.32308 1.06492,2.94734 0,2.17286 -1.5167,3.39913 -1.52746,1.20476 -4.02302,1.20476 -3.51745,0 -5.98075,-2.15135 -0.043,-0.0323 -0.043,-0.0861 0,-0.0538 0.0323,-0.0968 z"
         style="font-style:normal;font-variant:normal;font-weight:normal;font-stretch:normal;font-family:Giaothong2;-inkscape-font-specification:Giaothong2;text-align:start;text-anchor:start;fill:#000000;fill-opacity:1;stroke-width:0.324832"
         id="path3085" />
      <path
         d="m 119.39867,174.90413 q -0.0753,0 -0.10757,-0.0538 -0.0323,-0.0538 -0.0108,-0.11833 l 5.63653,-15.42516 q 0.0215,-0.0861 0.10757,-0.0861 h 1.92546 q 0.0323,0 0.0645,0.0323 0.043,0.0215 0.0538,0.0538 l 5.62578,15.42516 q 0.0215,0.0645 -0.0108,0.11833 -0.0323,0.0538 -0.0968,0.0538 h -2.46329 q -0.0861,0 -0.10757,-0.0861 l -1.16173,-3.39913 h -5.67956 q -0.30119,0.87129 -0.60238,1.71032 -0.29043,0.82827 -0.59162,1.68881 -0.0107,0.0323 -0.0538,0.0645 -0.0323,0.0215 -0.0645,0.0215 z m 8.68068,-5.79788 q -0.0215,-0.0753 -0.0645,-0.16135 -0.0323,-0.0861 -0.0538,-0.1506 -0.18286,-0.52708 -0.33346,-0.9681 -0.15059,-0.45179 -0.26892,-0.78525 -0.0753,-0.21513 -0.15059,-0.41951 -0.0645,-0.20438 -0.12908,-0.38724 -0.0538,-0.17211 -0.10757,-0.3227 -0.0538,-0.16136 -0.10757,-0.31195 -0.0968,-0.31195 -0.20437,-0.62389 -0.0968,-0.31195 -0.20438,-0.6454 -0.0538,-0.1506 -0.11833,-0.33346 -0.0538,-0.18287 -0.11832,-0.38725 -0.0323,-0.10756 -0.0538,-0.16135 -0.0108,-0.0645 -0.0323,-0.11832 -0.0215,-0.0645 -0.0538,-0.13984 -0.0215,-0.0753 -0.0645,-0.21513 -0.11832,0.35497 -0.22589,0.65616 -0.0968,0.30119 -0.18287,0.55935 -0.0215,0.0645 -0.0323,0.11832 -0.0108,0.0538 -0.0323,0.10757 -0.0538,0.18286 -0.11832,0.34421 -0.0538,0.16136 -0.10757,0.32271 -0.0538,0.1721 -0.10756,0.33346 -0.0538,0.16135 -0.10757,0.31194 -0.10757,0.3227 -0.22589,0.67768 -0.10757,0.35497 -0.24741,0.74221 -0.13984,0.38724 -0.29043,0.83903 -0.15059,0.44102 -0.38724,1.1187 z"
         style="font-style:normal;font-variant:normal;font-weight:normal;font-stretch:normal;font-family:Giaothong2;-inkscape-font-specification:Giaothong2;text-align:start;text-anchor:start;fill:#000000;fill-opacity:1;stroke-width:0.324832"
         id="path3087" />
      <path
         d="m 134.64634,174.91489 q -0.12908,0 -0.12908,-0.12909 v -15.4144 q 0,-0.12908 0.12908,-0.12908 h 9.85318 q 0.12908,0 0.12908,0.12908 v 2.21589 q 0,0.12908 -0.12908,0.12908 h -7.38988 v 4.28118 h 6.28193 q 0.12908,0 0.12908,0.12908 v 2.07605 q 0,0.12908 -0.12908,0.12908 h -6.28193 v 6.45404 q 0,0.12909 -0.12908,0.12909 z"
         style="font-style:normal;font-variant:normal;font-weight:normal;font-stretch:normal;font-family:Giaothong2;-inkscape-font-specification:Giaothong2;text-align:start;text-anchor:start;fill:#000000;fill-opacity:1;stroke-width:0.324832"
         id="path3089" />
      <path
         d="m 146.47875,174.91489 q -0.12908,0 -0.12908,-0.12909 v -15.4144 q 0,-0.12908 0.12908,-0.12908 h 9.85318 q 0.12908,0 0.12908,0.12908 v 2.21589 q 0,0.12908 -0.12908,0.12908 h -7.38988 v 4.13059 h 6.28193 q 0.12908,0 0.12908,0.12908 v 2.0868 q 0,0.11833 -0.12908,0.11833 h -6.28193 v 4.28118 h 7.38988 q 0.12908,0 0.12908,0.12908 v 2.19437 q 0,0.12909 -0.12908,0.12909 z"
         style="font-style:normal;font-variant:normal;font-weight:normal;font-stretch:normal;font-family:Giaothong2;-inkscape-font-specification:Giaothong2;text-align:start;text-anchor:start;fill:#000000;fill-opacity:1;stroke-width:0.324832"
         id="path3091" />
      <path
         d="m 164.13057,170.95641 q 0.0323,-0.043 0.0861,-0.043 0.0538,0 0.0968,0.0323 0.84978,0.68843 1.94697,1.10794 1.10794,0.40876 2.33421,0.40876 1.37686,0 2.17286,-0.57011 0.75298,-0.54859 0.75298,-1.45216 0,-1.69956 -1.90395,-1.95772 h 0.0108 q -0.26892,-0.0323 -0.51632,-0.0645 -0.23665,-0.0323 -0.48406,-0.0645 -0.23665,-0.0323 -0.49481,-0.0646 -0.2474,-0.043 -0.54859,-0.0861 -1.01113,-0.13984 -1.80713,-0.50557 -0.78525,-0.37648 -1.32308,-0.98962 -0.53784,-0.62389 -0.80676,-1.35534 -0.26892,-0.74222 -0.26892,-1.61352 0,-2.04378 1.35535,-3.32383 1.36611,-1.30156 3.79713,-1.30156 0.7207,0 1.39838,0.12908 0.68843,0.11832 1.32308,0.33346 0.6454,0.21513 1.22626,0.51632 0.59163,0.29043 1.12946,0.6454 0.10757,0.0753 0.0323,0.18287 l -1.30156,1.92546 q -0.0753,0.0968 -0.17211,0.0323 -0.83903,-0.52708 -1.78562,-0.83903 -0.94659,-0.3227 -1.95773,-0.3227 -0.51632,0 -0.95735,0.12908 -0.44102,0.11832 -0.79599,0.398 -0.69919,0.50556 -0.69919,1.53821 0,0.59162 0.47329,1.15097 0.23665,0.25816 0.63465,0.44103 0.398,0.17211 0.97887,0.25816 0.31194,0.0538 0.73145,0.11832 0.41952,0.0538 0.98962,0.11833 2.20513,0.26892 3.27005,1.62427 1.06492,1.32308 1.06492,2.94734 0,2.17286 -1.5167,3.39913 -1.52746,1.20476 -4.02302,1.20476 -3.51745,0 -5.98075,-2.15135 -0.043,-0.0323 -0.043,-0.0861 0,-0.0538 0.0323,-0.0968 z"
         style="font-style:normal;font-variant:normal;font-weight:normal;font-stretch:normal;font-family:Giaothong2;-inkscape-font-specification:Giaothong2;text-align:start;text-anchor:start;fill:#000000;fill-opacity:1;stroke-width:0.324832"
         id="path3093" />
      <path
         d="m 179.34059,174.91489 q -0.12908,0 -0.12908,-0.12909 v -13.20927 h -4.09831 q -0.12908,0 -0.12908,-0.12908 v -2.07605 q 0,-0.12908 0.12908,-0.12908 h 10.77825 q 0.12908,0 0.12908,0.12908 v 2.07605 q 0,0.12908 -0.12908,0.12908 h -4.08756 v 13.20927 q 0,0.12909 -0.12908,0.12909 z"
         style="font-style:normal;font-variant:normal;font-weight:normal;font-stretch:normal;font-family:Giaothong2;-inkscape-font-specification:Giaothong2;text-align:start;text-anchor:start;fill:#000000;fill-opacity:1;stroke-width:0.324832"
         id="path3095" />
      <path
         d="m 187.0962,167.08398 q 0,-1.40913 0.0323,-2.30194 0.043,-0.89281 0.10757,-1.30157 0.0753,-0.40875 0.21513,-0.78524 0.13984,-0.37648 0.34422,-0.74221 h -0.0108 q 0.55935,-1.04341 1.80713,-1.93622 1.25854,-0.90356 3.13021,-0.90356 1.85016,0 3.1087,0.90356 1.2693,0.91433 1.82865,1.93622 0.39799,0.73145 0.53783,1.52745 0.0753,0.40876 0.10757,1.30157 0.043,0.89281 0.043,2.30194 0,2.76448 -0.1506,3.61426 -0.0753,0.41952 -0.21513,0.796 -0.12908,0.37649 -0.31195,0.7207 -0.5701,1.03265 -1.8394,1.93622 -1.2693,0.89281 -3.1087,0.89281 -1.86091,0 -3.13021,-0.89281 -1.24778,-0.88206 -1.80713,-1.93622 h 0.0108 q -0.20438,-0.36572 -0.34422,-0.73145 -0.13984,-0.37649 -0.21513,-0.78525 -0.0645,-0.40875 -0.10757,-1.30156 -0.0323,-0.90357 -0.0323,-2.3127 z m 2.59237,0 q 0,1.17248 0.0323,1.93621 0.0323,0.75297 0.11833,1.1187 0.0861,0.33346 0.23664,0.66692 0.16136,0.3227 0.35498,0.57011 0.34421,0.45178 0.91432,0.77448 0.57011,0.31195 1.37686,0.31195 0.796,0 1.36611,-0.31195 0.57011,-0.3227 0.90356,-0.77448 0.45179,-0.54859 0.59162,-1.23703 0.17211,-0.68843 0.17211,-3.05491 0,-1.17248 -0.043,-1.92546 -0.043,-0.76372 -0.12909,-1.1187 -0.0753,-0.34421 -0.22589,-0.66691 -0.15059,-0.33346 -0.35497,-0.59163 -0.16135,-0.20437 -0.398,-0.39799 -0.22589,-0.19363 -0.51632,-0.33346 -0.29043,-0.1506 -0.63465,-0.23665 -0.34421,-0.0968 -0.73146,-0.0968 -0.80675,0 -1.37686,0.3227 -0.57011,0.3227 -0.91432,0.74221 -0.20438,0.25817 -0.35498,0.59163 -0.15059,0.3227 -0.23664,0.66691 -0.0861,0.36573 -0.11833,1.12946 -0.0323,0.76373 -0.0323,1.9147 z"
         style="font-style:normal;font-variant:normal;font-weight:normal;font-stretch:normal;font-family:Giaothong2;-inkscape-font-specification:Giaothong2;text-align:start;text-anchor:start;fill:#000000;fill-opacity:1;stroke-width:0.324832"
         id="path3097" />
      <path
         d="m 203.62931,161.71637 v 4.71145 h 3.34535 q 1.23702,0 1.8394,-0.74222 0.61313,-0.7207 0.61313,-1.61351 0,-1.33383 -0.94659,-1.94697 -0.61313,-0.40875 -1.592,-0.40875 z m -2.46329,13.19852 q -0.12908,0 -0.12908,-0.12909 v -15.4144 q 0,-0.12908 0.12908,-0.12908 h 5.5935 q 0.92508,0 1.75335,0.19362 0.83903,0.19362 1.78562,0.92508 0.36573,0.29043 0.66692,0.67767 0.31194,0.37649 0.55935,0.83903 0.23665,0.4733 0.36573,1.0434 0.12908,0.57011 0.12908,1.21551 0,1.68881 -1.2693,3.22703 -1.26929,1.52745 -3.68956,1.52745 h -3.4314 v 5.89469 q 0,0.12909 -0.12908,0.12909 z"
         style="font-style:normal;font-variant:normal;font-weight:normal;font-stretch:normal;font-family:Giaothong2;-inkscape-font-specification:Giaothong2;text-align:start;text-anchor:start;fill:#000000;fill-opacity:1;stroke-width:0.324832"
         id="path3099" />
      <path
         d="m 216.7095,161.71637 v 4.71145 h 3.34535 q 1.23702,0 1.8394,-0.74222 0.61314,-0.7207 0.61314,-1.61351 0,-1.33383 -0.9466,-1.94697 -0.61313,-0.40875 -1.59199,-0.40875 z m -2.46329,13.19852 q -0.12908,0 -0.12908,-0.12909 v -15.4144 q 0,-0.12908 0.12908,-0.12908 h 5.5935 q 0.92508,0 1.75335,0.19362 0.83903,0.19362 1.78562,0.92508 0.36573,0.29043 0.66692,0.67767 0.31194,0.37649 0.55935,0.83903 0.23665,0.4733 0.36573,1.0434 0.12908,0.57011 0.12908,1.21551 0,1.68881 -1.2693,3.22703 -1.26929,1.52745 -3.68956,1.52745 h -3.4314 v 5.89469 q 0,0.12909 -0.12908,0.12909 z"
         style="font-style:normal;font-variant:normal;font-weight:normal;font-stretch:normal;font-family:Giaothong2;-inkscape-font-specification:Giaothong2;text-align:start;text-anchor:start;fill:#000000;fill-opacity:1;stroke-width:0.324832"
         id="path3101" />
      <path
         d="m 227.29413,174.91489 q -0.12908,0 -0.12908,-0.12909 v -15.4144 q 0,-0.12908 0.12908,-0.12908 h 2.33422 q 0.12908,0 0.12908,0.12908 v 15.4144 q 0,0.12909 -0.12908,0.12909 z"
         style="font-style:normal;font-variant:normal;font-weight:normal;font-stretch:normal;font-family:Giaothong2;-inkscape-font-specification:Giaothong2;text-align:start;text-anchor:start;fill:#000000;fill-opacity:1;stroke-width:0.324832"
         id="path3103" />
      <path
         d="m 233.00596,174.91489 q -0.12908,0 -0.12908,-0.12909 v -15.4144 q 0,-0.12908 0.12908,-0.12908 h 2.21589 q 0.0645,0 0.10757,0.0645 l 6.77674,10.67068 v -10.6061 q 0,-0.12908 0.12908,-0.12908 h 2.34497 q 0.12908,0 0.12908,0.12908 v 15.4144 q 0,0.12909 -0.12908,0.12909 h -2.20513 q -0.0645,0 -0.10757,-0.0645 l -6.79826,-10.67069 v 10.60614 q 0,0.12909 -0.11832,0.12909 z"
         style="font-style:normal;font-variant:normal;font-weight:normal;font-stretch:normal;font-family:Giaothong2;-inkscape-font-specification:Giaothong2;text-align:start;text-anchor:start;fill:#000000;fill-opacity:1;stroke-width:0.324832"
         id="path3105" />
      <path
         d="m 253.06729,168.64371 q -0.12909,0 -0.12909,-0.12908 v -2.21589 q 0,-0.11833 0.12909,-0.11833 h 5.47518 q 0.12908,0 0.12908,0.11833 v 3.14097 q 0,2.37724 -1.63503,3.97999 -1.65654,1.62427 -3.99075,1.62427 -1.86091,0 -3.13021,-0.89281 -1.24778,-0.88206 -1.80713,-1.93622 h 0.0108 q -0.20438,-0.36572 -0.34422,-0.73145 -0.13984,-0.37649 -0.21513,-0.78525 -0.0645,-0.40875 -0.10757,-1.30156 -0.0323,-0.90357 -0.0323,-2.3127 0,-1.40913 0.0323,-2.30194 0.043,-0.89281 0.10757,-1.30157 0.0753,-0.40875 0.21513,-0.78524 0.13984,-0.37648 0.34422,-0.74221 h -0.0108 q 0.55935,-1.04341 1.80713,-1.93622 1.25854,-0.90356 3.13021,-0.90356 2.2374,0 3.70032,1.37686 1.48443,1.37686 1.8394,3.29156 0.0215,0.0645 -0.0215,0.10757 -0.043,0.043 -0.10757,0.043 h -2.46329 q -0.0968,0 -0.11833,-0.0861 -0.13983,-0.43027 -0.398,-0.796 -0.25816,-0.37648 -0.63464,-0.69918 -0.70995,-0.63465 -1.79638,-0.63465 -0.80675,0 -1.37686,0.3227 -0.57011,0.3227 -0.91432,0.74221 -0.20438,0.25817 -0.35498,0.59163 -0.15059,0.3227 -0.23664,0.66691 -0.0861,0.36573 -0.11833,1.12946 -0.0323,0.76373 -0.0323,1.9147 0,1.17248 0.0323,1.93621 0.0323,0.75297 0.11833,1.1187 0.0861,0.33346 0.23664,0.66692 0.16136,0.3227 0.35498,0.57011 0.34421,0.45178 0.91432,0.77448 0.57011,0.31195 1.37686,0.31195 1.28005,0 2.15135,-0.8713 0.88205,-0.87129 0.88205,-2.28042 v -0.66692 z"
         style="font-style:normal;font-variant:normal;font-weight:normal;font-stretch:normal;font-family:Giaothong2;-inkscape-font-specification:Giaothong2;text-align:start;text-anchor:start;fill:#000000;fill-opacity:1;stroke-width:0.324832"
         id="path3107" />
      <path
         d="m 266.78212,174.91489 q -0.12908,0 -0.12908,-0.12909 v -15.4144 q 0,-0.12908 0.12908,-0.12908 h 5.39989 q 3.22702,0 4.7975,2.65691 0.29043,0.51633 0.4733,0.97887 0.18286,0.46254 0.2474,0.90356 0.12908,0.86054 0.12908,3.30232 0,2.61389 -0.18286,3.5067 -0.0861,0.45178 -0.25816,0.88205 -0.17211,0.41951 -0.45179,0.83903 v -0.0108 q -0.69918,1.10794 -1.93621,1.86091 -1.25854,0.75298 -2.96886,0.75298 z m 2.4633,-13.19852 v 10.74598 h 2.67842 q 1.85016,0 2.75373,-1.29081 0.35497,-0.57011 0.45178,-1.194 0.0538,-0.34421 0.0753,-1.03264 0.0323,-0.69919 0.0323,-1.77487 0,-1.0434 -0.0323,-1.74259 -0.0323,-0.69919 -0.0861,-1.10794 -0.10756,-0.75297 -0.54859,-1.36611 -0.91432,-1.23702 -2.64616,-1.23702 z"
         style="font-style:normal;font-variant:normal;font-weight:normal;font-stretch:normal;font-family:Giaothong2;-inkscape-font-specification:Giaothong2;text-align:start;text-anchor:start;fill:#000000;fill-opacity:1;stroke-width:0.324832"
         id="path3109" />
      <path
         d="m 280.64756,174.91489 q -0.12908,0 -0.12908,-0.12909 v -15.4144 q 0,-0.12908 0.12908,-0.12908 h 2.33421 q 0.12908,0 0.12908,0.12908 v 15.4144 q 0,0.12909 -0.12908,0.12909 z"
         style="font-style:normal;font-variant:normal;font-weight:normal;font-stretch:normal;font-family:Giaothong2;-inkscape-font-specification:Giaothong2;text-align:start;text-anchor:start;fill:#000000;fill-opacity:1;stroke-width:0.324832"
         id="path3111" />
      <path
         d="m 286.4562,170.95641 q 0.0323,-0.043 0.0861,-0.043 0.0538,0 0.0968,0.0323 0.84978,0.68843 1.94697,1.10794 1.10794,0.40876 2.33421,0.40876 1.37686,0 2.17286,-0.57011 0.75297,-0.54859 0.75297,-1.45216 0,-1.69956 -1.90394,-1.95772 h 0.0108 q -0.26892,-0.0323 -0.51633,-0.0645 -0.23664,-0.0323 -0.48405,-0.0645 -0.23665,-0.0323 -0.49481,-0.0646 -0.2474,-0.043 -0.54859,-0.0861 -1.01114,-0.13984 -1.80714,-0.50557 -0.78524,-0.37648 -1.32307,-0.98962 -0.53784,-0.62389 -0.80676,-1.35534 -0.26892,-0.74222 -0.26892,-1.61352 0,-2.04378 1.35535,-3.32383 1.36611,-1.30156 3.79713,-1.30156 0.7207,0 1.39838,0.12908 0.68843,0.11832 1.32307,0.33346 0.64541,0.21513 1.22627,0.51632 0.59162,0.29043 1.12946,0.6454 0.10757,0.0753 0.0323,0.18287 l -1.30157,1.92546 q -0.0753,0.0968 -0.1721,0.0323 -0.83903,-0.52708 -1.78562,-0.83903 -0.94659,-0.3227 -1.95773,-0.3227 -0.51632,0 -0.95735,0.12908 -0.44102,0.11832 -0.796,0.398 -0.69918,0.50556 -0.69918,1.53821 0,0.59162 0.47329,1.15097 0.23665,0.25816 0.63465,0.44103 0.398,0.17211 0.97886,0.25816 0.31195,0.0538 0.73146,0.11832 0.41951,0.0538 0.98962,0.11833 2.20513,0.26892 3.27005,1.62427 1.06492,1.32308 1.06492,2.94734 0,2.17286 -1.5167,3.39913 -1.52746,1.20476 -4.02302,1.20476 -3.51746,0 -5.98075,-2.15135 -0.043,-0.0323 -0.043,-0.0861 0,-0.0538 0.0323,-0.0968 z"
         style="font-style:normal;font-variant:normal;font-weight:normal;font-stretch:normal;font-family:Giaothong2;-inkscape-font-specification:Giaothong2;text-align:start;text-anchor:start;fill:#000000;fill-opacity:1;stroke-width:0.324832"
         id="path3113" />
      <path
         d="m 301.66622,174.91489 q -0.12908,0 -0.12908,-0.12909 v -13.20927 h -4.09831 q -0.12908,0 -0.12908,-0.12908 v -2.07605 q 0,-0.12908 0.12908,-0.12908 h 10.77825 q 0.12908,0 0.12908,0.12908 v 2.07605 q 0,0.12908 -0.12908,0.12908 h -4.08756 v 13.20927 q 0,0.12909 -0.12908,0.12909 z"
         style="font-style:normal;font-variant:normal;font-weight:normal;font-stretch:normal;font-family:Giaothong2;-inkscape-font-specification:Giaothong2;text-align:start;text-anchor:start;fill:#000000;fill-opacity:1;stroke-width:0.324832"
         id="path3115" />
      <path
         d="m 306.54979,174.90413 q -0.0753,0 -0.10757,-0.0538 -0.0323,-0.0538 -0.0108,-0.11833 l 5.63653,-15.42516 q 0.0215,-0.0861 0.10757,-0.0861 h 1.92546 q 0.0323,0 0.0645,0.0323 0.043,0.0215 0.0538,0.0538 l 5.62577,15.42516 q 0.0215,0.0645 -0.0107,0.11833 -0.0323,0.0538 -0.0968,0.0538 h -2.4633 q -0.0861,0 -0.10756,-0.0861 l -1.16173,-3.39913 h -5.67956 q -0.30119,0.87129 -0.60238,1.71032 -0.29043,0.82827 -0.59162,1.68881 -0.0107,0.0323 -0.0538,0.0645 -0.0323,0.0215 -0.0645,0.0215 z m 8.68068,-5.79788 q -0.0215,-0.0753 -0.0645,-0.16135 -0.0323,-0.0861 -0.0538,-0.1506 -0.18287,-0.52708 -0.33346,-0.9681 -0.15059,-0.45179 -0.26892,-0.78525 -0.0753,-0.21513 -0.15059,-0.41951 -0.0645,-0.20438 -0.12908,-0.38724 -0.0538,-0.17211 -0.10757,-0.3227 -0.0538,-0.16136 -0.10757,-0.31195 -0.0968,-0.31195 -0.20438,-0.62389 -0.0968,-0.31195 -0.20437,-0.6454 -0.0538,-0.1506 -0.11833,-0.33346 -0.0538,-0.18287 -0.11832,-0.38725 -0.0323,-0.10756 -0.0538,-0.16135 -0.0107,-0.0645 -0.0323,-0.11832 -0.0215,-0.0645 -0.0538,-0.13984 -0.0215,-0.0753 -0.0645,-0.21513 -0.11832,0.35497 -0.22589,0.65616 -0.0968,0.30119 -0.18287,0.55935 -0.0215,0.0645 -0.0323,0.11832 -0.0108,0.0538 -0.0323,0.10757 -0.0538,0.18286 -0.11832,0.34421 -0.0538,0.16136 -0.10757,0.32271 -0.0538,0.1721 -0.10757,0.33346 -0.0538,0.16135 -0.10756,0.31194 -0.10757,0.3227 -0.2259,0.67768 -0.10756,0.35497 -0.2474,0.74221 -0.13984,0.38724 -0.29043,0.83903 -0.1506,0.44102 -0.38724,1.1187 z"
         style="font-style:normal;font-variant:normal;font-weight:normal;font-stretch:normal;font-family:Giaothong2;-inkscape-font-specification:Giaothong2;text-align:start;text-anchor:start;fill:#000000;fill-opacity:1;stroke-width:0.324832"
         id="path3117" />
      <path
         d="m 321.8136,174.91489 q -0.12908,0 -0.12908,-0.12909 v -15.4144 q 0,-0.12908 0.12908,-0.12908 h 2.21589 q 0.0645,0 0.10757,0.0645 l 6.77674,10.67068 v -10.6061 q 0,-0.12908 0.12908,-0.12908 h 2.34497 q 0.12908,0 0.12908,0.12908 v 15.4144 q 0,0.12909 -0.12908,0.12909 h -2.20513 q -0.0645,0 -0.10757,-0.0645 l -6.79826,-10.67069 v 10.60614 q 0,0.12909 -0.11832,0.12909 z"
         style="font-style:normal;font-variant:normal;font-weight:normal;font-stretch:normal;font-family:Giaothong2;-inkscape-font-specification:Giaothong2;text-align:start;text-anchor:start;fill:#000000;fill-opacity:1;stroke-width:0.324832"
         id="path3119" />
      <path
         d="m 347.26404,170.35403 q 0.0645,0 0.10757,0.0538 0.043,0.043 0.0215,0.10757 -0.45178,2.19437 -2.00075,3.37762 -0.75297,0.5701 -1.63502,0.86053 -0.88206,0.29044 -1.90395,0.29044 -1.86091,0 -3.13021,-0.89281 -1.24778,-0.88206 -1.80713,-1.93622 -0.19362,-0.36572 -0.33346,-0.73145 -0.13984,-0.37649 -0.21513,-0.78525 -0.13984,-0.79599 -0.13984,-3.61426 0,-1.40913 0.0323,-2.30194 0.0323,-0.89281 0.10757,-1.30157 0.0753,-0.40875 0.21513,-0.78524 0.13984,-0.37648 0.33346,-0.74221 0.55935,-1.04341 1.80713,-1.93622 1.25854,-0.90356 3.13021,-0.90356 2.23741,0 3.70032,1.37686 1.48443,1.38762 1.8394,3.29156 0.0215,0.0645 -0.0215,0.10757 -0.043,0.043 -0.10757,0.043 h -2.46329 q -0.0968,0 -0.11832,-0.0861 -0.13984,-0.43027 -0.398,-0.796 -0.25816,-0.37648 -0.63465,-0.69918 -0.70995,-0.63465 -1.79638,-0.63465 -0.80675,0 -1.37686,0.3227 -0.57011,0.3227 -0.91432,0.74221 -0.20438,0.25817 -0.35497,0.59163 -0.1506,0.3227 -0.23665,0.66691 -0.0861,0.36573 -0.11833,1.12946 -0.0323,0.76373 -0.0323,1.9147 0,1.17248 0.0323,1.93621 0.0323,0.75297 0.11833,1.1187 0.0861,0.33346 0.23665,0.66692 0.16135,0.3227 0.35497,0.57011 0.34421,0.45178 0.91432,0.77448 0.57011,0.31195 1.37686,0.31195 1.86092,0 2.82903,-2.03302 0.0215,-0.0215 0.0538,-0.043 0.0323,-0.0323 0.0645,-0.0323 z"
         style="font-style:normal;font-variant:normal;font-weight:normal;font-stretch:normal;font-family:Giaothong2;-inkscape-font-specification:Giaothong2;text-align:start;text-anchor:start;fill:#000000;fill-opacity:1;stroke-width:0.324832"
         id="path3121" />
    </g>
  </g>
</svg>
