<?xml version="1.0" encoding="UTF-8" standalone="no"?>
<svg
   version="1.1"
   id="Layer_1"
   x="0px"
   y="0px"
   viewBox="0 0 152 57"
   enable-background="new 0 0 122 57"
   sodipodi:docname="QL_38D,_VNM.svg"
   width="152"
   height="57"
   inkscape:version="1.1 (c4e8f9e, 2021-05-24)"
   xmlns:inkscape="http://www.inkscape.org/namespaces/inkscape"
   xmlns:sodipodi="http://sodipodi.sourceforge.net/DTD/sodipodi-0.dtd"
   xmlns="http://www.w3.org/2000/svg"
   xmlns:svg="http://www.w3.org/2000/svg">
  <defs
     id="defs865" />
  <sodipodi:namedview
     id="namedview863"
     pagecolor="#ffffff"
     bordercolor="#666666"
     borderopacity="1.0"
     inkscape:pageshadow="2"
     inkscape:pageopacity="0.0"
     inkscape:pagecheckerboard="0"
     showgrid="false"
     inkscape:zoom="3.324"
     inkscape:cx="152.4"
     inkscape:cy="24.82"
     inkscape:window-width="1920"
     inkscape:window-height="965"
     inkscape:window-x="0"
     inkscape:window-y="23"
     inkscape:window-maximized="1"
     inkscape:current-layer="Layer_1" />
  <path
     fill="#ffffff"
     stroke="#000000"
     stroke-width="2"
     stroke-miterlimit="10"
     d="M 151,54 V 3 c 0,-1.1 -0.9,-2 -2,-2 H 3 C 1.9,1 1,1.9 1,3 v 51 c 0,1.1 0.9,2 2,2 h 146 c 1.1,0 2,-0.9 2,-2 z"
     id="path850"
     sodipodi:nodetypes="sssssssss" />
  <g
     aria-label="QL.48D"
     id="text4319"
     style="font-size:47.9564px;font-family:'Russian Road Sign';-inkscape-font-specification:'Russian Road Sign';letter-spacing:0px;word-spacing:0px;stroke-width:2.99728">
    <path
       d="m 22.6,39.24 c -0.96,0.72 -2.26,1.2 -3.84,1.2 -2.45,0 -4.22,-1.15 -5.28,-2.5 -1.34,-1.72 -1.72,-2.68 -1.72,-9.68 0,-7 0.38,-7.96 1.72,-9.69 1.06,-1.34 2.83,-2.49 5.28,-2.49 2.44,0 4.22,1.15 5.27,2.49 1.35,1.73 1.73,2.69 1.73,9.69 0,3.79 -0.1,5.85 -0.48,7.14 l -3.98,-3.16 -3.07,3.55 z m 8.53,6.86 3.07,-3.55 -4.51,-3.6 c 0.96,-1.77 1.25,-3.31 1.25,-10.69 0,-8.2 -0.38,-9.21 -1.49,-11.22 -1.63,-2.98 -5.32,-6.14 -10.69,-6.14 -5.37,0 -9.065,3.16 -10.695,6.14 -1.103,2.01 -1.487,3.02 -1.487,11.22 0,8.2 0.384,9.21 1.487,11.22 1.63,2.97 5.325,6.14 10.695,6.14 3.36,0 6.04,-1.25 8.06,-2.98 z"
       style="-inkscape-font-specification:'DIN 1451 Std'"
       id="path34924" />
    <path
       d="M 36.95,45.33 H 58.77 V 40.44 H 42.13 V 11.19 h -5.18 z"
       style="-inkscape-font-specification:'DIN 1451 Std'"
       id="path34926" />
    <path
       d="m 63.36,45.33 h 4.89 v -4.89 h -4.89 z"
       style="-inkscape-font-specification:'DIN 1451 Std'"
       id="path34928" />
    <path
       d="m 72.15,40.25 h 14.24 v 5.08 h 4.89 v -5.08 h 2.73 v -4.61 h -2.73 v -9.83 h -4.89 v 9.83 H 77.47 L 89.03,11.19 H 83.56 L 72.15,35.64 Z"
       style="-inkscape-font-specification:'DIN 1451 Std'"
       id="path34930" />
    <path
       d="m 101.2,20.68 c 0,-3.21 2.4,-4.89 4.9,-4.89 2.5,0 4.9,1.68 4.9,4.89 0,3.21 -2.4,4.89 -4.9,4.89 -2.5,0 -4.9,-1.68 -4.9,-4.89 z m -5.48,14.68 c 0,6.04 4.78,10.26 10.38,10.26 5.7,0 10.4,-4.22 10.4,-10.26 0,-3.22 -1.4,-5.95 -4,-7.68 2,-1.82 3.4,-3.93 3.4,-6.9 0,-5.52 -4.3,-9.88 -9.8,-9.88 -5.5,0 -9.76,4.36 -9.76,9.88 0,2.97 1.39,5.08 3.4,6.9 -2.59,1.73 -4.02,4.46 -4.02,7.68 z m 4.88,-0 c 0,-3.12 2.6,-5.42 5.5,-5.42 2.9,0 5.5,2.3 5.5,5.42 0,3.11 -2.6,5.42 -5.5,5.42 -2.9,0 -5.5,-2.31 -5.5,-5.42 z"
       style="-inkscape-font-specification:'DIN 1451 Std'"
       id="path34932" />
    <path
       d="m 121.3,45.33 h 11.6 c 5,0 8.6,-2.49 10.6,-5.66 1.5,-2.4 1.9,-3.74 1.9,-11.41 0,-7.15 -0.1,-8.44 -1.8,-11.32 -2.2,-3.74 -5.9,-5.75 -10.4,-5.75 h -11.9 z m 5.1,-29.25 h 6.2 c 2.8,0 4.5,0.72 6.1,2.87 1.4,1.87 1.5,3.36 1.5,9.5 0,6.33 -0.1,7.29 -1.3,9.02 -1.3,1.96 -3.4,2.97 -6.3,2.97 h -6.2 z"
       style="-inkscape-font-specification:'DIN 1451 Std'"
       id="path34934" />
  </g>
  <text
     xml:space="preserve"
     style="font-size:16px;line-height:1.45;font-family:SnvDExtCon;-inkscape-font-specification:SnvDExtCon;letter-spacing:0px;word-spacing:0px"
     x="30.09"
     y="-7.686"
     id="text3127"><tspan
       sodipodi:role="line"
       id="tspan3125"
       x="30.09"
       y="-7.686" /></text>
</svg>
