<?xml version="1.0" encoding="UTF-8"?>
<!DOCTYPE svg PUBLIC "-//W3C//DTD SVG 1.1//EN" "http://www.w3.org/Graphics/SVG/1.1/DTD/svg11.dtd">
<!-- Creator: CorelDRAW -->
<svg xmlns="http://www.w3.org/2000/svg" xml:space="preserve" width="32.2792mm" height="15.0813mm" version="1.1" style="shape-rendering:geometricPrecision; text-rendering:geometricPrecision; image-rendering:optimizeQuality; fill-rule:evenodd; clip-rule:evenodd"
viewBox="0 0 3227.92 1508.13"
 xmlns:xlink="http://www.w3.org/1999/xlink"
 xmlns:xodm="http://www.corel.com/coreldraw/odm/2003">
 <defs>
  <style type="text/css">
   <![CDATA[
    .str0 {stroke:black;stroke-width:52.92;stroke-miterlimit:22.9256}
    .fil1 {fill:black;fill-rule:nonzero}
    .fil0 {fill:white;fill-rule:nonzero}
   ]]>
  </style>
 </defs>
 <g id="Layer_x0020_1">
  <metadata id="CorelCorpID_0Corel-Layer"/>
  <g id="_2338396424080">
   <path class="fil0 str0" d="M3148.54 1481.67l-3069.16 0c-29.1,0 -52.92,-23.81 -52.92,-52.92l0 -1349.37c0,-29.1 23.81,-52.92 52.92,-52.92l3069.16 0.01c29.1,0 52.92,23.81 52.92,52.92l0 1349.38c0,29.09 -23.81,52.9 -52.92,52.9z"/>
   <path class="fil1" d="M337.34 1146.63c-20.7,-22.72 -34.43,-46.57 -41.18,-71.09 -6.97,-24.52 -10.34,-53.99 -10.34,-88.42l0 -448.15c0,-65.02 20.47,-119.69 61.41,-164.01 40.72,-44.54 93.82,-66.59 158.84,-66.59 58.49,0 109.11,20.92 151.86,62.54 42.97,41.85 64.34,91.79 64.34,150.29l0 465.92c0,26.1 -1.35,45.45 -3.6,58.05 -2.47,12.82 -6.3,24.97 -11.7,36.22l85.04 71.99 -71.76 86.39 -79.2 -64.79c-38.47,32.17 -86.16,48.14 -142.86,48.14 -29.92,0 -59.39,-6.97 -87.96,-21.37 -28.8,-14.17 -53.1,-32.62 -72.89,-55.12zm212.82 -193.03l43.65 33.52 0 -448.15c0,-29.02 -8.33,-53.32 -24.52,-73.12 -16.2,-19.8 -38.7,-29.69 -67.27,-29.69 -18,0 -33.75,4.5 -47.47,13.49 -13.5,9 -23.17,19.8 -29.02,31.95 -5.63,12.37 -9,21.82 -9.9,28.35 -0.68,6.75 -1.13,16.42 -1.13,29.02l0 448.15c0,16.43 1.13,30.15 3.15,41.4 2.25,11.02 7.65,22.05 16.2,32.85 8.55,10.79 18.45,19.34 29.7,25.64 11.25,6.53 25.42,9.68 42.52,9.68 9.67,0 20.47,-2.93 32.17,-8.55l-59.17 -48.15 71.09 -86.39z"/>
   <polygon id="_1" class="fil1" points="1246.91,1216.6 863.1,1216.6 863.1,316.25 991.79,316.25 991.79,1086.79 1246.91,1086.79 "/>
   <polygon id="_2" class="fil1" points="1338.48,1216.6 1338.48,1088.14 1466.94,1088.14 1466.94,1216.6 "/>
   <path id="_3" class="fil1" d="M1803.95 637.29c22.95,0 45.67,6.29 68.62,19.12 22.72,12.6 39.82,27.45 51.07,44.09 11.25,16.65 18.9,34.2 22.95,52.42 4.27,18.23 6.3,37.8 6.3,58.95l0 202.48c0,19.57 -0.68,36.22 -2.03,49.72 -1.35,13.27 -6.52,32.17 -15.52,56.69 -9,24.3 -30.82,47.69 -65.47,70.19 -34.65,22.28 -71.77,33.52 -111.36,33.52 -30.83,0 -59.85,-7.42 -87.29,-22.04 -27.45,-14.63 -48.82,-33.08 -64.12,-54.67 -15.08,-21.83 -25.43,-43.65 -30.82,-65.7 -5.63,-21.82 -8.33,-44.54 -8.33,-67.71l0 -23.18 131.16 0 0 23.18c0,8.77 0.23,17.54 0.68,26.54 0.45,9 5.17,20.48 14.17,33.97 9,13.73 24.75,20.48 47.25,20.48 24.07,0 40.27,-6.53 48.37,-19.8 8.1,-13.27 12.59,-23.62 13.49,-31.27 0.9,-7.65 1.35,-15.98 1.35,-24.75l0 -15.07 0 -175.48c0,-7.88 -0.22,-16.2 -0.67,-25.2 -0.45,-9.23 -5.4,-20.48 -14.85,-33.97 -9.45,-13.73 -24.97,-20.48 -46.57,-20.48 -31.5,0 -52.64,15.75 -63.22,47.47l-114.74 0 0 -480.55 368.52 0 0 119.92 -253.78 0 0 241.85c31.27,-27.23 66.15,-40.72 104.84,-40.72z"/>
   <polygon id="_4" class="fil1" points="2212.51,1216.6 2212.51,451.46 2084.05,546.85 2084.05,410.52 2212.51,316.25 2340.3,316.25 2340.3,1216.6 "/>
  </g>
  <path class="fil1" d="M2754.87 317.71c25.82,0 51.86,5.84 77.91,17.51 26.04,11.45 53.43,31.66 82.17,60.4 28.74,28.74 43.11,73.41 43.11,133.81l0 68.48c0,68.47 -26.94,116.97 -80.83,145.48 53.89,31.43 80.83,81.28 80.83,149.3l0 105.08c0,63.31 -20.21,115.4 -60.85,156.71 -40.41,41.08 -92.5,61.74 -156.26,61.74l-197.8 0 0 -898.51 211.72 0zm76.34 266.5l0 -54.78c0,-28.07 -8.09,-50.07 -24.03,-66.46 -15.94,-16.16 -37.71,-24.25 -64.88,-24.25l-72.29 0 0 248.09 76.33 0c29.86,0 51.41,-9.2 64.66,-27.61 13.47,-18.41 20.21,-43.56 20.21,-74.99zm0 413.56l0 -105.08c0,-28.51 -7.86,-51.19 -23.35,-67.8 -15.72,-16.61 -37.5,-24.92 -65.56,-24.92l-72.29 0 0 288.05 73.64 0c26.26,0 47.59,-8.53 63.53,-25.37 15.94,-16.84 24.03,-38.39 24.03,-64.88z"/>
 </g>
</svg>
