<?xml version="1.0" encoding="UTF-8" standalone="no"?>
<svg
   xmlns:dc="http://purl.org/dc/elements/1.1/"
   xmlns:cc="http://creativecommons.org/ns#"
   xmlns:rdf="http://www.w3.org/1999/02/22-rdf-syntax-ns#"
   xmlns:svg="http://www.w3.org/2000/svg"
   xmlns="http://www.w3.org/2000/svg"
   xmlns:sodipodi="http://sodipodi.sourceforge.net/DTD/sodipodi-0.dtd"
   xmlns:inkscape="http://www.inkscape.org/namespaces/inkscape"
   width="325.95511mm"
   height="200mm"
   viewBox="0 0 325.9551 199.99999"
   version="1.1"
   id="svg9491"
   inkscape:version="1.0 (4035a4fb49, 2020-05-01)"
   sodipodi:docname="Vietnam_road_sign_IE458.svg">
  <defs
     id="defs9485">
    <clipPath
       id="clipPath2832">
      <path
         d="M -0.24,595.138 H 317.24 V -0.138 H -0.24 Z"
         id="path2834"
         inkscape:connector-curvature="0" />
    </clipPath>
    <clipPath
       id="clipPath2840">
      <path
         d="M 0.03,595.32 H 317.49 V 0 H 0.03 Z"
         id="path2842"
         inkscape:connector-curvature="0" />
    </clipPath>
    <clipPath
       id="clipPath2858">
      <path
         d="M -0.24,595.138 H 317.24 V -0.138 H -0.24 Z"
         id="path2860"
         inkscape:connector-curvature="0" />
    </clipPath>
    <clipPath
       id="clipPath2864">
      <path
         d="M 0.03,595.32 H 317.49 V 0 H 0.03 Z"
         id="path2866"
         inkscape:connector-curvature="0" />
    </clipPath>
    <clipPath
       id="clipPath3306">
      <path
         d="m 199.238,472.977 v -29.74 h 29.744 v 29.74"
         id="path3308"
         inkscape:connector-curvature="0" />
    </clipPath>
    <clipPath
       id="clipPath3322">
      <path
         d="M -0.24,595.138 H 317.24 V -0.138 H -0.24 Z"
         id="path3324"
         inkscape:connector-curvature="0" />
    </clipPath>
    <clipPath
       id="clipPath3330">
      <path
         d="M 0.03,595.32 H 317.49 V 0 H 0.03 Z"
         id="path3332"
         inkscape:connector-curvature="0" />
    </clipPath>
    <clipPath
       id="clipPath3344">
      <path
         d="m 88.233,387.221 v -28.335 h 32.08 v 28.335"
         id="path3346"
         inkscape:connector-curvature="0" />
    </clipPath>
    <clipPath
       id="clipPath3462">
      <path
         d="M -0.24,595.138 H 317.24 V -0.138 H -0.24 Z"
         id="path3464"
         inkscape:connector-curvature="0" />
    </clipPath>
    <clipPath
       id="clipPath3470">
      <path
         d="M 0.03,595.32 H 317.49 V 0 H 0.03 Z"
         id="path3472"
         inkscape:connector-curvature="0" />
    </clipPath>
    <clipPath
       id="clipPath3490">
      <path
         d="M -0.24,595.138 H 317.24 V -0.138 H -0.24 Z"
         id="path3492"
         inkscape:connector-curvature="0" />
    </clipPath>
    <clipPath
       id="clipPath3496">
      <path
         d="M 0.03,595.32 H 317.49 V 0 H 0.03 Z"
         id="path3498"
         inkscape:connector-curvature="0" />
    </clipPath>
    <clipPath
       id="clipPath3520">
      <path
         d="m 254.788,326.215 v -28.309 h 28.326 v 28.309"
         id="path3522"
         inkscape:connector-curvature="0" />
    </clipPath>
    <clipPath
       id="clipPath3544">
      <path
         d="m 145.049,326.142 v -28.333 h 28.342 v 28.333"
         id="path3546"
         inkscape:connector-curvature="0" />
    </clipPath>
    <clipPath
       id="clipPath3682">
      <path
         d="M -0.24,595.138 H 317.24 V -0.138 H -0.24 Z"
         id="path3684"
         inkscape:connector-curvature="0" />
    </clipPath>
    <clipPath
       id="clipPath3690">
      <path
         d="M 0.03,595.32 H 317.49 V 0 H 0.03 Z"
         id="path3692"
         inkscape:connector-curvature="0" />
    </clipPath>
    <clipPath
       id="clipPath3980">
      <path
         d="M -0.24,595.138 H 317.24 V -0.138 H -0.24 Z"
         id="path3982"
         inkscape:connector-curvature="0" />
    </clipPath>
    <clipPath
       id="clipPath3988">
      <path
         d="M 0.03,595.32 H 317.49 V 0 H 0.03 Z"
         id="path3990"
         inkscape:connector-curvature="0" />
    </clipPath>
    <clipPath
       id="clipPath4010">
      <path
         d="M -0.24,595.138 H 317.24 V -0.138 H -0.24 Z"
         id="path4012"
         inkscape:connector-curvature="0" />
    </clipPath>
    <clipPath
       id="clipPath4016">
      <path
         d="M 0.03,595.32 H 317.49 V 0 H 0.03 Z"
         id="path4018"
         inkscape:connector-curvature="0" />
    </clipPath>
    <clipPath
       id="clipPath4062">
      <path
         d="m 200.163,177.773 v -28.284 h 28.283 v 28.284"
         id="path4064"
         inkscape:connector-curvature="0" />
    </clipPath>
    <clipPath
       id="clipPath4090">
      <path
         d="m 34.886,177.515 v -51.632 h 30.367 v 51.632"
         id="path4092"
         inkscape:connector-curvature="0" />
    </clipPath>
    <clipPath
       id="clipPath4106">
      <path
         d="m 34.886,177.515 v -51.632 h 30.367 v 51.632"
         id="path4108"
         inkscape:connector-curvature="0" />
    </clipPath>
    <clipPath
       id="clipPath4272">
      <path
         d="m 34.886,177.515 v -51.632 h 30.367 v 51.632"
         id="path4274"
         inkscape:connector-curvature="0" />
    </clipPath>
    <clipPath
       id="clipPath4304">
      <path
         d="m 254.653,176.442 v -48.167 h 28.317 v 48.167"
         id="path4306"
         inkscape:connector-curvature="0" />
    </clipPath>
    <clipPath
       id="clipPath4310">
      <path
         d="m 253.565,177.983 h 31.181 V 128.8 h -31.181 z"
         id="path4312"
         inkscape:connector-curvature="0" />
    </clipPath>
    <clipPath
       id="clipPath4316">
      <path
         d="M -0.24,595.138 H 317.24 V -0.138 H -0.24 Z"
         id="path4318"
         inkscape:connector-curvature="0" />
    </clipPath>
    <clipPath
       id="clipPath4322">
      <path
         d="M 0.03,595.32 H 317.49 V 0 H 0.03 Z"
         id="path4324"
         inkscape:connector-curvature="0" />
    </clipPath>
    <clipPath
       id="clipPath4456">
      <path
         d="M -0.24,595.138 H 317.24 V -0.138 H -0.24 Z"
         id="path4458"
         inkscape:connector-curvature="0" />
    </clipPath>
    <clipPath
       id="clipPath4464">
      <path
         d="M 0.03,595.32 H 317.49 V 0 H 0.03 Z"
         id="path4466"
         inkscape:connector-curvature="0" />
    </clipPath>
  </defs>
  <sodipodi:namedview
     id="base"
     pagecolor="#ffffff"
     bordercolor="#666666"
     borderopacity="1.0"
     inkscape:pageopacity="0.0"
     inkscape:pageshadow="2"
     inkscape:zoom="0.37464504"
     inkscape:cx="-161.3696"
     inkscape:cy="795.47804"
     inkscape:document-units="mm"
     inkscape:current-layer="layer1"
     showgrid="false"
     inkscape:window-width="1920"
     inkscape:window-height="1001"
     inkscape:window-x="-9"
     inkscape:window-y="-9"
     inkscape:window-maximized="1"
     inkscape:measure-start="0,0"
     inkscape:measure-end="0,0"
     inkscape:document-rotation="0" />
  <metadata
     id="metadata9488">
    <rdf:RDF>
      <cc:Work
         rdf:about="">
        <dc:format>image/svg+xml</dc:format>
        <dc:type
           rdf:resource="http://purl.org/dc/dcmitype/StillImage" />
        <dc:title></dc:title>
      </cc:Work>
    </rdf:RDF>
  </metadata>
  <g
     inkscape:label="Layer 1"
     inkscape:groupmode="layer"
     id="layer1"
     transform="translate(-1017.2331,-216.84172)">
    <path
       id="path3673"
       d="m 1017.2331,416.84172 h 325.9551 v -200 h -325.9551 z m 0,0"
       style="fill:#00943f;fill-opacity:1;fill-rule:nonzero;stroke:none;stroke-width:0.352776" />
    <path
       transform="matrix(0.26458333,0,0,0.26458333,1017.2331,216.84172)"
       d="m 37.130859,4.0566406 c -2.248063,0 -4.440987,0.2273881 -6.560547,0.6621094 -2.120691,0.4346835 -4.166887,1.0770461 -6.115234,1.9023438 -2.923086,1.2380975 -5.630937,2.889112 -8.044922,4.8828122 -0.808819,0.664479 -1.574358,1.369923 -2.3125,2.107422 -1.474393,1.475074 -2.807682,3.086265 -3.980468,4.820313 -0.5824262,0.86725 -1.1301358,1.763972 -1.632813,2.6875 -0.496252,0.923376 -0.9602591,1.873067 -1.3710938,2.847656 v 0.0078 c -0.4100786,0.972964 -0.7763964,1.969775 -1.0976562,2.988282 -0.9494173,3.061795 -1.4667969,6.313931 -1.4667969,9.6875 v 189.523441 56.96289 188.71875 57.04101 189.86329 0.0644 c 0,17.98212 14.5994179,32.58008 32.5820309,32.58008 H 1194.9023 c 17.9815,0 32.586,-14.59796 32.586,-32.58008 V 718.75977 528.89648 471.85547 283.13672 226.17383 36.650391 c 0,-3.373569 -0.5076,-6.625705 -1.4668,-9.6875 -0.3137,-1.018281 -0.6899,-2.015091 -1.0977,-2.988282 v -0.0078 c -0.4097,-0.975118 -0.8729,-1.924091 -1.3711,-2.847656 -2.0073,-3.694111 -4.7114,-6.957282 -7.9316,-9.615235 -2.414,-1.9937002 -5.1195,-3.6447147 -8.043,-4.8828122 -1.9491,-0.8251843 -3.9945,-1.4678493 -6.1152,-1.9023438 -2.1207,-0.4347213 -4.3125,-0.6621094 -6.5606,-0.6621094 z m -0.0098,8.2148434 0.0098,0.002 H 1194.9023 c 4.2414,0 8.2101,1.055027 11.6661,2.919921 1.3818,0.746457 2.684,1.620008 3.8847,2.609375 0.604,0.495118 1.1735,1.017241 1.7227,1.566407 0.5499,0.55011 1.0783,1.125844 1.5722,1.726562 3.4625,4.205405 5.5293,9.614341 5.5293,15.552735 V 226.17188 c 0,13.57378 -10.8019,24.375 -24.375,24.375 H 37.130859 c -13.574172,0 -24.371093,-10.80122 -24.371093,-24.375 V 36.648438 c 0,-1.69663 0.172942,-3.348853 0.484375,-4.94336 0.485291,-2.391647 1.3129,-4.649358 2.43164,-6.722656 0.744189,-1.382325 1.620273,-2.685207 2.609375,-3.886719 0.992126,-1.200453 2.087488,-2.304131 3.28711,-3.292969 0.260787,-0.211275 0.53993,-0.397001 0.798828,-0.597656 0.981543,-0.73886 1.995795,-1.425325 3.082031,-2.011719 1.380661,-0.74536 2.847378,-1.363055 4.376953,-1.833984 0.765732,-0.235087 1.548601,-0.43496 2.345703,-0.595703 1.594205,-0.322394 3.248683,-0.492188 4.945313,-0.492188 z M 46.511719,46.4375 V 217.125 H 473.4668 V 46.4375 Z m 516.304691,46.494141 -8.2793,7.462889 h 5.29101 l 5.97461,-3.746092 5.2461,3.746092 h 5.23437 l -7.49218,-7.462889 z M 1023.75,98.734375 c -0.3666,0 -0.5605,0.184546 -0.5605,0.556641 v 19.019534 c 0,0.37228 0.1848,0.55859 0.5605,0.55859 h 9.4844 c 0.3439,0 0.5058,-0.1865 0.5058,-0.55859 v -8.97461 h 16.2774 l -22.1817,55.94336 c -0.1058,0.18671 -0.1058,0.3515 0,0.50586 0.1096,0.15533 0.2502,0.23437 0.4649,0.23437 h 10.6465 c 0.2154,0 0.3883,-0.12511 0.5175,-0.37305 l 22.4082,-56.82226 v -9.533204 c 0,-0.372284 -0.1615,-0.556641 -0.5058,-0.556641 z m -499.89258,4.648435 v 7.53711 h 8.96289 v 45.67969 h 7.49219 v -45.67969 h 8.97461 v -7.53711 z m 38.2168,0 -11.29883,53.2168 h 7.55273 l 2.23047,-11.25391 h 9.73243 l 2.24609,11.25391 h 8.23242 l -11.97851,-53.2168 z m 22.42969,0 v 53.2168 h 7.53711 v -32.24023 l 11.99609,32.24023 h 6.69922 v -53.2168 h -7.47461 v 32.25781 l -11.95117,-32.25781 z m 56.23242,0 -11.98438,53.2168 h 8.24024 l 2.24023,-11.25391 h 9.73828 l 2.22852,11.25391 h 7.55273 l -11.28125,-53.2168 z m 22.48828,0 v 53.2168 h 7.48047 v -32.24023 l 11.97851,32.24023 h 6.73243 v -53.2168 h -7.49024 v 32.25781 l -11.2207,-32.25781 z m 425.59379,5.97461 c -0.3137,0 -0.4747,0.15592 -0.4746,0.46875 v 55.66406 c 0,0.31295 0.1624,0.46875 0.4746,0.46875 h 7.9765 c 0.3137,0 0.4649,-0.15595 0.4649,-0.46875 v -11.22656 c 0.9384,-1.09527 1.8952,-2.17487 2.8593,-3.24414 0.9925,-1.06896 1.9542,-2.15473 2.8926,-3.25 l 10.211,17.95508 c 0.1096,0.15647 0.2382,0.23437 0.3886,0.23437 h 10.0117 c 0.2041,0 0.3553,-0.0645 0.4317,-0.19531 0.1058,-0.15647 0.1058,-0.32552 0,-0.50781 -2.5814,-4.01613 -5.1478,-7.97686 -7.7031,-11.88867 -2.5308,-3.93793 -5.0815,-7.91942 -7.6641,-11.93555 l 13.4551,-15.29492 c 0.1285,-0.15647 0.1509,-0.32549 0.1094,-0.50781 -0.1097,-0.18218 -0.2253,-0.27149 -0.4297,-0.27149 h -9.545 c -0.1285,0 -0.2476,0.0538 -0.3535,0.15625 -2.4521,2.99902 -4.8899,5.98402 -7.3144,8.95703 -2.3993,2.94686 -4.8275,5.91895 -7.2793,8.91797 v -33.56055 c 0,-0.31293 -0.1523,-0.46874 -0.4649,-0.46874 z m -523.01567,9.7832 2.98829,18.7129 h -6.7168 z m 77.92188,0 3.74609,18.7129 h -6.73437 z m 505.75979,5.78711 c -4.1704,8.7e-4 -7.5047,1.357 -10.0078,4.06836 v -3.17187 c 0,-0.31295 -0.1609,-0.46875 -0.4727,-0.46875 h -7.9785 c -0.3137,0 -0.4746,0.15596 -0.4746,0.46875 v 39.66601 c 0,0.31295 0.1628,0.46875 0.4746,0.46875 h 7.9785 c 0.3137,0 0.4727,-0.15595 0.4727,-0.46875 v -23.62304 c 0,-2.60791 0.669,-4.59117 2.0293,-5.94727 1.4075,-1.40833 3.2113,-2.11328 5.4023,-2.11328 2.1131,0 3.8699,0.70507 5.2773,2.11328 1.4087,1.40822 2.1133,3.39155 2.1133,5.94727 v 23.62304 c 0,0.31295 0.1399,0.46875 0.4317,0.46875 h 7.9824 c 0.291,0 0.4316,-0.15595 0.4316,-0.46875 v -23.62304 c 0,-2.5818 0.6894,-4.56506 2.0723,-5.94727 1.4086,-1.40833 3.2125,-2.11328 5.4023,-2.11328 2.1132,0 3.8718,0.70507 5.2793,2.11328 1.383,1.38221 2.0743,3.36547 2.0743,5.94727 v 23.62304 c 0,0.31295 0.1503,0.46875 0.4628,0.46875 h 7.9825 c 0.3137,0 0.4648,-0.15595 0.4648,-0.46875 V 139.125 c 0,-4.64205 -1.4879,-8.17237 -4.4609,-10.59766 -2.9998,-2.39928 -6.0753,-3.59961 -9.2305,-3.59961 -5.1636,0 -9.3505,1.65476 -12.5586,4.9668 -0.6474,-0.67846 -1.3436,-1.29219 -2.0742,-1.83984 -0.7332,-0.57385 -1.4856,-1.09109 -2.2676,-1.56055 -1.7468,-1.04258 -4.0141,-1.56591 -6.8027,-1.56641 v 0 z M 37.130859,258.76367 H 1194.9023 c 13.5731,0 24.375,10.7973 24.375,24.3711 v 188.71875 c 0,13.57379 -10.8019,24.37109 -24.375,24.37109 H 37.130859 c -13.574172,0 -24.371093,-10.7973 -24.371093,-24.37109 V 283.13477 c 0,-13.5738 10.796921,-24.3711 24.371093,-24.3711 z m 8.638672,34.52344 V 463.97656 H 472.72461 V 293.28711 Z m 538.652349,38.59375 -8.19532,10.8418 h 4.77735 l 10.91992,-10.8418 z m 93.11132,3.5 -8.20117,10.83594 h 4.7832 l 10.875,-10.83594 z m -111.09375,3.65039 -7.92773,7.9668 h 5.24609 l 5.43555,-4.15821 5.5957,4.15821 h 5.32227 l -7.84766,-7.9668 z m 477.51365,4.54297 c -5.4854,9.3e-4 -10.135,1.92052 -13.9472,5.76367 -3.7195,3.81286 -5.5801,8.46612 -5.5801,13.95313 0,2.88294 0.5729,5.39222 1.7226,7.53125 1.1479,2.13891 2.6615,4.09034 4.5528,5.85742 -2.4488,1.79792 -4.3075,3.93604 -5.5782,6.41601 -1.2404,2.47998 -1.8554,5.31874 -1.8554,8.51172 0,6.01402 2.0434,10.94502 6.1347,14.78906 4.0302,3.751 8.882,5.62305 14.5547,5.62305 2.7905,0 5.411,-0.47618 7.8594,-1.4375 2.4499,-0.99239 4.6805,-2.38759 6.6953,-4.18555 2.0463,-1.92207 3.5808,-4.12549 4.6035,-6.60546 1.0572,-2.47998 1.5782,-5.20764 1.5782,-8.1836 0,-6.38596 -2.4761,-11.36284 -7.4356,-14.92773 0.8954,-0.86835 1.7342,-1.78121 2.5098,-2.74219 0.7767,-0.99239 1.4414,-2.03032 2,-3.11523 0.5609,-1.11602 0.9923,-2.29536 1.2988,-3.53516 0.3137,-1.24006 0.4648,-2.57012 0.4648,-3.99609 0,-5.42499 -1.8939,-10.07824 -5.6757,-13.95313 -3.7496,-3.84316 -8.3817,-5.76275 -13.8985,-5.76367 v 0 z m -29.4277,0.59961 -9.7715,0.004 -9.57617,6.92774 c -0.1096,0.0646 -0.11751,0.14178 -0.18554,0.23437 v 0.23438 10.08789 c 0,0.24794 0.10922,0.43455 0.27929,0.55859 0.1852,0.0971 0.38966,0.0641 0.60547,-0.0977 1.42602,-1.02259 2.84942,-2.06117 4.27535,-3.11524 1.4261,-1.08495 2.8533,-2.15112 4.2793,-3.20508 v 55.24024 c 0,0.37228 0.1831,0.55664 0.5625,0.55664 h 9.5313 c 0.3666,0 0.5605,-0.18455 0.5605,-0.55664 v -66.31055 c 0,-0.37228 -0.1848,-0.55859 -0.5605,-0.55859 z m -321.99806,1.65234 -2.7207,2.45313 c 0.85191,1.21731 1.20858,2.27718 1.05664,3.18359 -0.15118,0.93199 -0.69006,1.72163 -1.59375,2.36914 -0.41008,0.31068 -0.85285,0.45472 -1.32226,0.42774 l -0.10547,-0.01 v -4.14844 h -7.60742 v 40.42383 c 0,3.72896 -2.01425,5.51953 -4.69922,5.51953 -2.68498,0 -4.69922,-1.79057 -4.69922,-5.51953 v -40.42383 h -7.60352 v 41.16602 c 0,6.93585 5.51697,12.38086 12.30274,12.38086 6.78689,0 12.30664,-5.44501 12.30664,-12.38086 V 357.99 l 0.10547,0.043 c 0.26078,0 0.52928,-0.0112 0.82031,-0.043 1.24384,-0.12963 2.52633,-0.6768 3.84765,-1.63476 1.42489,-1.03555 2.15248,-2.52236 2.17969,-4.46485 0.10583,-1.94244 -0.48679,-3.67705 -1.5957,-5.20507 -0.2041,-0.2846 -0.43062,-0.57459 -0.66797,-0.85938 z m 17.66407,3.8086 c -1.91698,0 -3.73905,0.49241 -5.47461,1.47656 -1.70873,0.95788 -3.04309,2.14045 -4.00196,3.53906 -0.92749,1.37273 -1.55651,2.64168 -1.86718,3.80664 -0.27969,1.16549 -0.41993,2.48856 -0.41993,3.96485 v 27.38476 c 0,1.52806 0.10942,2.95445 0.34375,4.27539 0.23811,1.29506 0.80915,2.70233 1.71094,4.23047 0.90595,1.52806 2.33385,2.8043 4.27539,3.81445 1.94268,1.00967 4.07932,1.50977 6.41016,1.50977 1.94268,0 3.85715,-0.56567 5.74805,-1.70508 1.88976,-1.1396 3.26459,-2.42319 4.11914,-3.84766 0.88441,-1.4245 1.41233,-2.73244 1.59375,-3.92382 0.20409,-1.21731 0.30273,-2.67 0.30273,-4.35352 v -1.75 h -7.49805 v 1.75 0.9707 c 0,0.77666 -0.10881,1.40099 -0.15039,1.86719 -0.1096,0.44009 -0.44302,1.12423 -1.0039,2.05664 -0.53934,0.93305 -1.74613,1.39844 -3.61133,1.39844 -1.73443,0 -2.95238,-0.53246 -3.65235,-1.59375 -0.66858,-1.06141 -1.02337,-1.93065 -1.04492,-2.60352 v -2.0957 -27.38476 c 0,-1.47629 0.39929,-2.71354 1.20508,-3.69727 0.83036,-0.98483 1.97842,-1.4707 3.45508,-1.4707 1.60516,0 2.80893,0.48662 3.61133,1.4707 0.83074,0.98373 1.24414,2.22098 1.24414,3.69727 v 2.86914 h 7.49609 v -2.86914 c 0,-3.70375 -1.21562,-6.76123 -3.65039,-9.16993 -2.40869,-2.40877 -5.44039,-3.61718 -9.0918,-3.61718 z m -183.43555,0.46679 v 53.07227 h 11.69531 c 3.75572,0 6.82637,-1.21585 9.20899,-3.65039 2.40869,-2.43466 3.61132,-5.51845 3.61132,-9.24805 v -6.21484 c 0,-4.0145 -1.59195,-6.9594 -4.77734,-8.82422 3.18539,-1.68348 4.77734,-4.5436 4.77734,-8.58399 v -4.04101 c 0,-3.57419 -0.85119,-6.1993 -2.56445,-7.88281 -1.68264,-1.70948 -3.30133,-2.90484 -4.85547,-3.57813 -1.52768,-0.69899 -3.05277,-1.04883 -4.58008,-1.04883 z m 31.44336,0 v 53.07227 h 22.6875 v -7.65235 h -15.18945 v -15.58007 h 13.36718 v -7.15235 h -13.36718 v -15.6914 h 15.18945 v -6.9961 z m 29.9668,0 v 53.07227 h 7.57617 V 370.9668 l 11.84961,32.20703 h 7.07031 v -53.07227 h -7.57617 v 32.13086 L 595.3125,350.10156 Z m 48.01757,0 v 53.07227 h 22.61329 v -7.65235 h -15.03907 v -45.41992 z m 407.77341,4.07617 c 2.3558,0 4.4151,0.77428 6.1817,2.32422 1.8599,1.519 2.7929,3.71666 2.7929,6.59961 0,2.9449 -0.9387,5.18023 -2.7929,6.69922 -1.8596,1.51899 -3.9185,2.27539 -6.1817,2.27539 -2.2631,0 -4.3395,-0.75621 -6.2304,-2.27539 -1.7983,-1.48804 -2.6973,-3.72326 -2.6973,-6.69922 0,-2.91401 0.8948,-5.11157 2.6973,-6.59961 1.8595,-1.55006 3.9363,-2.32422 6.2304,-2.32422 z m 44.8614,0.93555 c -0.3137,0 -0.4747,0.15596 -0.4746,0.46875 v 55.66406 c 0,0.31295 0.1624,0.4668 0.4746,0.4668 h 7.9765 c 0.3137,0 0.4649,-0.15396 0.4649,-0.4668 v -11.22656 c 0.9384,-1.09519 1.8952,-2.17484 2.8593,-3.24414 0.9925,-1.06896 1.9542,-2.15473 2.8926,-3.25 l 10.211,17.95313 c 0.1096,0.15647 0.2382,0.23437 0.3886,0.23437 h 10.0117 c 0.2041,0 0.3553,-0.0645 0.4317,-0.19531 0.1058,-0.15647 0.1058,-0.32354 0,-0.50586 -2.5814,-4.01613 -5.1478,-7.97882 -7.7031,-11.89063 -2.5308,-3.93789 -5.0815,-7.91746 -7.6641,-11.93359 l 13.4551,-15.29688 c 0.1285,-0.15646 0.1509,-0.32357 0.1094,-0.50585 -0.1097,-0.18218 -0.2253,-0.27344 -0.4297,-0.27344 h -9.545 c -0.1285,0 -0.2476,0.0538 -0.3535,0.15625 -2.4521,2.99905 -4.8899,5.98604 -7.3144,8.95898 -2.3993,2.94694 -4.8275,5.91884 -7.2793,8.91797 v -33.5625 c 0,-0.31294 -0.1523,-0.46875 -0.4649,-0.46875 z m -554.55863,2.14063 h 4.26757 c 1.6063,0 2.87543,0.47368 3.8086,1.43164 0.96,0.95788 1.4375,2.26815 1.4375,3.92578 v 3.22656 c 0,1.86478 -0.39847,3.33792 -1.20313,4.42578 -0.77669,1.08783 -2.04733,1.63281 -3.80859,1.63281 h -4.50195 z m 615.22463,13.42773 c -4.1704,8.7e-4 -7.5047,1.35895 -10.0078,4.07031 v -3.17187 c 0,-0.31295 -0.1609,-0.46875 -0.4727,-0.46875 h -7.9785 c -0.3137,0 -0.4746,0.15595 -0.4746,0.46875 v 39.66601 c 0,0.31295 0.1628,0.4668 0.4746,0.4668 h 7.9785 c 0.3137,0 0.4727,-0.15396 0.4727,-0.4668 v -23.625 c 0,-2.60791 0.669,-4.59113 2.0293,-5.94726 1.4075,-1.40829 3.2113,-2.11133 5.4023,-2.11133 2.1131,0 3.8699,0.70304 5.2773,2.11133 1.4087,1.40821 2.1133,3.39147 2.1133,5.94726 v 23.625 c 0,0.31295 0.1399,0.4668 0.4317,0.4668 h 7.9824 c 0.291,0 0.4316,-0.15396 0.4316,-0.4668 v -23.625 c 0,-2.58179 0.6894,-4.56516 2.0723,-5.94726 1.4086,-1.40829 3.2125,-2.11133 5.4023,-2.11133 2.1132,0 3.8718,0.70304 5.2793,2.11133 1.383,1.3821 2.0743,3.36547 2.0743,5.94726 v 23.625 c 0,0.31295 0.1503,0.4668 0.4628,0.4668 h 7.9825 c 0.3137,0 0.4648,-0.15396 0.4648,-0.4668 v -26.36718 c 0,-4.6421 -1.4879,-8.17038 -4.4609,-10.59571 -2.9998,-2.39928 -6.0753,-3.60156 -9.2305,-3.60156 -5.1636,0 -9.3505,1.65484 -12.5586,4.9668 -0.6474,-0.6785 -1.3436,-1.29219 -2.0742,-1.83985 -0.7332,-0.57384 -1.4856,-1.09113 -2.2676,-1.56054 -1.7468,-1.04262 -4.0141,-1.56591 -6.8027,-1.56641 v 0 z m -615.22463,7.89844 h 4.26757 c 1.65808,0 2.94133,0.49432 3.84766,1.47851 0.9275,0.9848 1.39844,2.31848 1.39844,4.00196 v 6.21484 c 0,1.55403 -0.48506,2.83563 -1.4375,3.8457 -0.92788,0.98374 -2.17551,1.47657 -3.72852,1.47657 h -4.34765 z m 509.69723,2.9375 h 0.01 c 2.7239,0.002 5.0911,0.96336 7.1035,2.88281 2.0462,1.86006 3.0723,4.23018 3.0723,7.11328 0,1.4259 -0.2622,2.74222 -0.7891,3.95117 -0.5284,1.17804 -1.2879,2.2361 -2.2793,3.16602 -2.0776,1.89105 -4.446,2.83789 -7.1113,2.83789 -2.6665,0 -5.0428,-0.94654 -7.1191,-2.83789 -0.9275,-0.89851 -1.6711,-1.95702 -2.2286,-3.16602 -0.5287,-1.20895 -0.789,-2.52527 -0.789,-3.95117 0,-2.8831 1.0032,-5.25322 3.0215,-7.11328 2.0735,-1.91963 4.4469,-2.88044 7.1093,-2.88281 z M 37.039062,504.52344 h 0.0918 1157.771438 c 13.5731,0 24.375,10.7973 24.375,24.37109 v 189.86328 c 0,13.57372 -10.8019,24.36914 -24.375,24.36914 H 37.130859 c -12.717731,0 -22.996455,-9.48052 -24.242187,-21.83984 0,-0.36888 -0.0017,-0.74516 -0.111328,-1.11914 0,-0.47029 -0.109375,-0.93295 -0.109375,-1.41016 V 528.89453 c 0,-13.57379 10.797299,-24.37109 24.371093,-24.37109 z m 9.697266,35.53711 v 170.6875 H 473.69141 v -170.6875 z m 661.595702,38.59961 c -2.26648,0.0257 -4.11384,0.71585 -5.53125,2.05664 -0.7011,0.72378 -1.26627,1.4729 -1.70508,2.24804 -0.41008,0.74967 -0.61523,1.68926 -0.61523,2.82618 h 4.57617 c 0.1285,-2.06714 1.27511,-3.11203 3.44531,-3.13868 1.62785,0 2.5853,0.63384 2.86914,1.90039 0.1852,1.21452 -0.7969,2.27326 -2.9414,3.17774 -1.3697,0.82734 -2.16398,1.8857 -2.3711,3.17773 v 1.39844 h 2.01953 2.40235 v -0.9707 l 0.38672,-0.61914 0.38867,-0.39063 c 0.64743,-0.36132 1.59272,-0.83716 2.83203,-1.43164 1.44756,-1.05925 2.23599,-2.30141 2.36523,-3.72265 0,-1.00751 -0.22707,-1.83639 -0.61523,-2.48243 -0.38816,-0.64611 -0.92894,-1.31401 -1.62891,-2.01172 -1.52204,-1.31489 -3.4808,-1.98858 -5.87695,-2.01757 z m 179.04688,5.50195 c -0.1852,0 -0.30256,0.076 -0.35547,0.23437 -0.15118,0.82734 -0.44187,1.35523 -0.85156,1.5879 -0.44259,0.25888 -0.8853,0.39062 -1.35547,0.39062 -0.53934,0 -1.00216,-0.0741 -1.39258,-0.23242 -0.57184,-0.18104 -1.20464,-0.42675 -1.90235,-0.73633 -0.23811,-0.0756 -0.51707,-0.16988 -0.85156,-0.27344 -0.3326,-0.12926 -0.70162,-0.25516 -1.08789,-0.38476 -0.3326,-0.10772 -0.67831,-0.16924 -1.04492,-0.19532 -0.33638,-0.054 -0.69084,-0.0762 -1.04688,-0.0762 -0.83074,0 -1.6138,0.15324 -2.36328,0.46289 -0.72302,0.28498 -1.35803,0.68819 -1.90039,1.20508 -0.57184,0.56848 -1.01455,1.22915 -1.35547,1.97852 -0.36661,0.74967 -0.62616,1.5761 -0.77734,2.48047 0,0.23281 0.11036,0.3457 0.31445,0.3457 h 3.2168 c 0.20409,0 0.31445,-0.0973 0.31445,-0.30664 0,-0.70008 0.26036,-1.20467 0.74414,-1.51758 0.51742,-0.25663 0.92679,-0.38477 1.23633,-0.38477 0.53934,0.0227 1.09953,0.11924 1.66797,0.27344 0.59339,0.12926 1.19619,0.33447 1.81641,0.61914 0.49625,0.12926 0.91734,0.25521 1.2832,0.38477 0.38816,0.12926 0.67872,0.22166 0.89453,0.27344 0.3326,0.12926 0.69084,0.2197 1.04688,0.27148 0.36661,0.054 0.72178,0.0762 1.08007,0.0762 0.98155,-0.0227 1.83482,-0.20926 2.5586,-0.54492 0.75515,-0.33562 1.37074,-0.81322 1.86133,-1.43359 0.48567,-0.56844 0.88557,-1.20269 1.16601,-1.90039 0.3137,-0.69789 0.52858,-1.44507 0.6582,-2.2461 0.10583,-0.23282 -0.10979,-0.35156 -0.35546,-0.35156 z m -292.29493,0.9707 -7.90234,7.94922 h 5.23242 l 5.42383,-4.14844 5.58008,4.14844 h 5.3125 l -7.83203,-7.94922 z m 449.66602,5.03907 c -5.0536,0 -9.5275,1.72115 -13.4336,5.1621 -3.9371,3.37905 -5.9102,8.19699 -5.9102,14.45899 v 29.24805 c 0,6.26199 1.9731,11.07993 5.9102,14.45898 3.9061,3.41 8.38,5.11719 13.4336,5.11719 5.0525,0 9.5337,-1.70719 13.4395,-5.11719 3.9685,-3.41 5.9531,-8.22806 5.9531,-14.45898 v -29.24805 c 0,-3.10001 -0.5071,-5.84738 -1.5332,-8.23438 -0.9922,-2.41795 -2.4667,-4.48859 -4.4199,-6.22461 -1.9526,-1.67399 -4.0591,-2.94633 -6.3223,-3.81445 -2.2314,-0.89854 -4.6061,-1.34766 -7.1172,-1.34765 z m -44.7793,0.60156 c -0.10582,0 -0.18481,0.0427 -0.27929,0.13867 -0.10583,0.0646 -0.17403,0.12709 -0.23829,0.18945 l -22.22265,47.52149 v 9.06836 c 0,0.37228 0.18486,0.55859 0.56055,0.55859 h 27.06248 v 9.25195 c 0,0.37229 0.1849,0.5586 0.5606,0.5586 h 9.4882 c 0.3667,0 0.5606,-0.1865 0.5606,-0.5586 V 648.25 h 4.7871 c 0.3439,0 0.5176,-0.1865 0.5176,-0.55859 v -8.92969 c 0,-0.37228 -0.1737,-0.5586 -0.5176,-0.5586 h -4.7871 v -18.55664 c 0,-0.34091 -0.1849,-0.50586 -0.5606,-0.50586 h -9.4882 c -0.3667,0 -0.5606,0.16484 -0.5606,0.50586 v 18.55664 h -15.85936 l 22.04106,-46.63867 c 0.1058,-0.21694 0.1058,-0.40134 0,-0.55664 -0.1097,-0.15534 -0.2394,-0.23437 -0.4219,-0.23437 z m -276.16015,1.14258 -2.71485,2.4414 c 0.85191,1.21395 1.2014,2.27326 1.04492,3.17774 -0.15117,0.9298 -0.67853,1.7231 -1.58789,2.36914 -0.38815,0.288 -0.78794,0.41536 -1.2207,0.41211 v -4.24805 h -7.60937 v 40.41797 c 0,3.72899 -2.01425,5.51953 -4.69922,5.51953 -2.6846,0 -4.69922,-1.79054 -4.69922,-5.51953 v -40.41797 h -7.60938 v 41.16602 c 0,6.93587 5.52283,12.3789 12.3086,12.3789 6.78727,0 12.30859,-5.44303 12.30859,-12.3789 v -33.1504 c 0.22677,-0.002 0.46376,-0.007 0.72266,-0.0332 1.23968,-0.12926 2.51606,-0.67885 3.83398,-1.63476 1.42073,-1.03337 2.14271,-2.5151 2.16992,-4.45313 0,-1.93807 -0.47564,-3.67084 -1.58984,-5.19531 -0.2038,-0.28419 -0.42125,-0.56719 -0.6582,-0.85156 z m 100.20507,3.60156 c -6.23583,0 -12.84765,4.35389 -12.84765,13.07031 v 28.25586 c 0,8.71631 6.61182,13.07812 12.84765,13.07813 6.23698,0 12.84961,-4.36182 12.84961,-13.07813 v -16.83398 h -13.75195 v 6.76757 h 6.08789 v 10.06641 c 0,3.68183 -2.40457,5.41211 -5.18555,5.41211 -2.77983,0 -5.18359,-1.73028 -5.18359,-5.41211 v -28.25586 c 0,-3.68194 2.40376,-5.40625 5.18359,-5.40625 2.78098,0 5.18555,1.72431 5.18555,5.40625 v 2.70899 h 7.66406 v -2.70899 c 0,-8.71642 -6.61263,-13.07031 -12.84961,-13.07031 z M 676.9082,595.7168 c -1.91244,0 -3.73149,0.49073 -5.46289,1.47265 -1.70532,0.95569 -3.03439,2.13198 -3.99023,3.52735 -0.9275,1.36951 -1.55179,2.63406 -1.86133,3.79687 -0.27969,1.16281 -0.43164,2.47837 -0.43164,3.95117 v 27.32618 c 0,1.52458 0.11541,2.94575 0.35351,4.26367 0.23812,1.29203 0.79995,2.70013 1.70704,4.22461 0.90595,1.52462 2.32628,2.79496 4.26367,3.80273 1.93814,1.00751 4.06899,1.50977 6.39453,1.50977 1.93739,0 3.84763,-0.56782 5.73437,-1.70508 1.88637,-1.13692 3.25596,-2.4148 4.10938,-3.83594 0.87345,-1.42129 1.40647,-2.72927 1.58789,-3.91797 0.20409,-1.21447 0.31445,-2.66221 0.31445,-4.34179 v -1.74024 h -7.48047 v 1.74024 0.96875 c 0,0.77555 7.9e-4,1.39622 -0.15039,1.86132 -0.10582,0.43903 -0.44302,1.12846 -1.0039,2.0586 -0.53934,0.9309 -1.7409,1.39269 -3.60157,1.39258 -1.73139,0 -2.94758,-0.5279 -3.64453,-1.58789 -0.66897,-1.05926 -1.02533,-1.92585 -1.04687,-2.59766 v -2.0957 -27.32618 c 0,-1.47284 0.40042,-2.69581 1.20508,-3.67773 0.83036,-0.98158 1.97558,-1.47852 3.44922,-1.47852 1.60176,0 2.8003,0.49652 3.60156,1.47852 0.83074,0.98162 1.24219,2.20489 1.24219,3.67773 v 2.8711 h 7.48046 v -2.8711 c 0,-3.69513 -1.21656,-6.74331 -3.64453,-9.14648 -2.4034,-2.4031 -5.42647,-3.60156 -9.07031,-3.60156 z m 53.48438,0.35156 v 41.16602 c 0,6.93587 5.52169,12.38085 12.30859,12.38085 6.7869,0 12.30274,-5.44498 12.30274,-12.38085 v -41.16602 h -7.60547 v 40.41992 c 0,3.729 -2.01229,5.51758 -4.69727,5.51758 -2.68497,0 -4.70117,-1.78858 -4.70117,-5.51758 v -40.41992 z m -207.16602,0.11133 v 7.05664 h 8.875 v 45.89258 h 7.5586 v -45.89258 h 9.03125 v -7.05664 z m 30.77735,0 v 52.94922 h 7.48047 v -23.64453 h 9.64843 v 23.64453 h 7.48047 v -52.94922 h -7.48047 v 22.63672 h -9.64843 v -22.63672 z m 40.6582,0 -11.82422,52.94922 h 8.02149 l 2.13476,-11.35938 h 9.84375 l 2.13477,11.35938 h 8.09961 L 601.25,596.17969 Z m 22.28516,0 v 52.94922 h 7.55859 v -32.13477 l 11.82226,32.13477 h 7.05079 v -52.94922 h -7.55274 v 32.05859 l -11.74414,-32.05859 z m 160.15625,0 v 52.94922 h 7.56054 v -32.13477 l 11.82227,32.13477 h 7.05078 v -52.94922 h -7.55273 v 32.05859 l -11.7461,-32.05859 z m 67.13671,0 v 52.94922 h 7.48047 v -23.64453 h 9.64844 v 23.64453 h 7.48047 v -52.94922 h -7.48047 v 22.63672 h -9.64844 v -22.63672 z m 32.86524,0 v 52.94922 h 7.48047 v -52.94922 z m 23.60742,0 -11.82422,52.94922 h 8.02735 l 2.1289,-11.35938 h 9.84375 l 2.13477,11.35938 h 8.10156 l -11.82422,-52.94922 z m 144.03711,4.59375 c 2.6653,0 4.7909,0.84767 6.3711,2.55273 1.6123,1.67411 2.418,4.01641 2.418,7.02344 v 28.13281 c 0,3.03799 -0.8075,5.39437 -2.418,7.06836 -1.5802,1.67377 -3.7058,2.50781 -6.3711,2.50781 -2.6665,0 -4.7858,-0.83435 -6.3672,-2.50781 -1.5802,-1.67399 -2.373,-4.03037 -2.373,-7.06836 v -28.13281 c 0,-3.00703 0.7969,-5.34933 2.373,-7.02344 1.5814,-1.70494 3.7007,-2.55273 6.3672,-2.55273 z m 44.0684,1.95117 c -0.3137,0 -0.4747,0.15975 -0.4746,0.47266 v 55.66406 c 0,0.31294 0.1624,0.46875 0.4746,0.46875 h 7.9765 c 0.3137,0 0.4649,-0.15596 0.4649,-0.46875 v -11.22656 c 0.9384,-1.09527 1.8952,-2.18081 2.8593,-3.25 0.9925,-1.06897 1.9542,-2.14876 2.8926,-3.24415 l 10.211,17.95508 c 0.1096,0.15648 0.2382,0.23438 0.3886,0.23438 h 10.0117 c 0.2041,0 0.3553,-0.0645 0.4317,-0.19531 0.1058,-0.15648 0.1058,-0.32553 0,-0.50782 -2.5814,-4.01612 -5.1478,-7.98275 -7.7031,-11.89453 -2.5308,-3.93793 -5.0815,-7.91371 -7.6641,-11.92969 l 13.4551,-15.29492 c 0.1285,-0.15647 0.1509,-0.32549 0.1094,-0.50781 -0.1097,-0.18217 -0.2253,-0.27148 -0.4297,-0.27148 h -9.545 c -0.1285,0 -0.2476,0.0538 -0.3535,0.15625 -2.4521,2.99901 -4.8899,5.98409 -7.3144,8.95703 -2.3993,2.94689 -4.8275,5.92079 -7.2793,8.91992 v -33.5625 c 0,-0.31295 -0.1523,-0.47461 -0.4649,-0.47461 z m -490.90238,8.68945 3.56836,19.30469 h -7.13672 z m 306.05078,0 3.56836,19.30469 h -7.13477 z m 245.5176,6.87891 c -4.1704,8.7e-4 -7.5047,1.35704 -10.0078,4.06836 v -3.16602 c 0,-0.31294 -0.1609,-0.46679 -0.4727,-0.46679 h -7.9785 c -0.3137,0 -0.4746,0.154 -0.4746,0.46679 v 39.66602 c 0,0.31294 0.1628,0.46875 0.4746,0.46875 h 7.9785 c 0.3137,0 0.4727,-0.15596 0.4727,-0.46875 v -23.62891 c 0,-2.6078 0.669,-4.59124 2.0293,-5.94726 1.4075,-1.40829 3.2113,-2.11329 5.4023,-2.11328 2.1131,0 3.8699,0.70499 5.2773,2.11328 1.4087,1.40821 2.1133,3.39158 2.1133,5.94726 v 23.62891 c 0,0.31294 0.1399,0.46875 0.4317,0.46875 h 7.9824 c 0.291,0 0.4316,-0.15596 0.4316,-0.46875 v -23.62891 c 0,-2.58179 0.6894,-4.56517 2.0723,-5.94726 1.4086,-1.40829 3.2125,-2.11329 5.4023,-2.11328 2.1132,0 3.8718,0.70499 5.2793,2.11328 1.383,1.38209 2.0743,3.36547 2.0743,5.94726 v 23.62891 c 0,0.31294 0.1503,0.46875 0.4628,0.46875 h 7.9825 c 0.3137,0 0.4648,-0.15596 0.4648,-0.46875 v -26.36524 c 0,-4.64194 -1.4879,-8.17627 -4.4609,-10.60156 -2.9998,-2.39928 -6.0753,-3.60156 -9.2305,-3.60156 -5.1636,0 -9.3505,1.6607 -12.5586,4.97265 -0.6474,-0.67845 -1.3436,-1.29219 -2.0742,-1.83984 -0.7332,-0.57384 -1.4856,-1.09696 -2.2676,-1.5664 -1.7468,-1.04258 -4.0141,-1.56591 -6.8027,-1.56641 v 0 z"
       style="fill:#ffffff;fill-opacity:1;fill-rule:nonzero;stroke:none;stroke-width:1.33333"
       id="path3681" />
    <path
       id="path1968"
       d="m 1030.8914,271.58136 c 0,0.75971 0.5999,1.35585 1.3594,1.35585 107.5017,0 107.5017,0 107.5017,0 0.7597,0 1.3559,-0.59614 1.3559,-1.35585 0,-39.74515 0,-39.74515 0,-39.74515 0,-0.71613 -0.5962,-1.35222 -1.3559,-1.35222 -107.5017,0 -107.5017,0 -107.5017,0 -0.7595,0 -1.3594,0.63609 -1.3594,1.35222 z m 0,0"
       style="fill:#005497;fill-opacity:1;fill-rule:nonzero;stroke:none;stroke-width:0.352776" />
    <path
       d="m 1135.6091,232.59274 c -0.5563,0 -1.0369,0.15954 -1.393,0.51934 -0.1599,0.19636 -0.3191,0.39985 -0.439,0.5998 -0.08,0.19635 -0.1598,0.47619 -0.1598,0.75242 h 1.1559 c 0.04,-0.55615 0.3205,-0.83285 0.8764,-0.83285 0.4036,0 0.6399,0.15669 0.7198,0.5166 0.04,0.31625 -0.1969,0.59572 -0.7198,0.83562 -0.3599,0.20007 -0.5557,0.51706 -0.5956,0.83696 v 0.35578 h 0.4757 0.5997 l 0.043,-0.23574 0.077,-0.16096 0.1199,-0.11987 c 0.1598,-0.0799 0.3996,-0.20007 0.7158,-0.35986 0.3599,-0.27627 0.5602,-0.63613 0.5602,-0.99236 0,-0.27998 -0.04,-0.47619 -0.1198,-0.67611 -0.1199,-0.15982 -0.2398,-0.32313 -0.4404,-0.51937 -0.3562,-0.35986 -0.875,-0.51934 -1.475,-0.51934 z m -53.9116,0.75517 2.7521,2.8285 h 1.1927 l -2.072,-2.8285 z m 5.8165,2.74808 -0.6762,0.63658 c 0.2398,0.32347 0.3194,0.60342 0.2797,0.83967 -0.04,0.24002 -0.1997,0.48027 -0.3995,0.63658 -0.1199,0.0799 -0.2398,0.11987 -0.3556,0.11987 v -1.11231 h -1.8731 v 10.71144 c 0,0.39622 -0.1199,0.71661 -0.3191,0.99644 -0.1598,0.31628 -0.4797,0.43624 -0.8396,0.43621 -0.4361,0 -0.7161,-0.11959 -0.9159,-0.35575 -0.1598,-0.24002 -0.2768,-0.43983 -0.2768,-0.5998 -0.04,-0.11986 -0.04,-0.27712 -0.04,-0.4771 v -10.71144 h -1.9124 v 10.71144 c 0,0.35624 0.04,0.67702 0.08,0.95692 0.08,0.27626 0.1969,0.63615 0.3953,0.99236 0.1998,0.39987 0.5559,0.75519 1.036,1.0387 0.5197,0.31626 1.036,0.43621 1.5919,0.43621 0.5634,0 1.0397,-0.11987 1.5158,-0.43621 0.48,-0.2834 0.8365,-0.67927 1.1165,-1.11913 0.1598,-0.31619 0.2797,-0.59614 0.3599,-0.87241 0.08,-0.31981 0.08,-0.6402 0.08,-0.99644 v -8.60403 h 0.2368 c 0.2797,-0.04 0.5994,-0.19892 0.9556,-0.43894 0.3598,-0.27627 0.5202,-0.6766 0.5602,-1.19274 0,-0.51618 -0.1598,-0.96009 -0.4401,-1.3563 -0.04,-0.0799 -0.08,-0.15983 -0.1598,-0.24002 z m 13.5099,0.9869 c -1.6325,0 -3.3643,1.13977 -3.3643,3.42145 v 7.39631 c 0,2.28168 1.7318,3.42282 3.3643,3.42282 1.6325,0 3.3628,-1.14114 3.3628,-3.42282 v -4.40561 h -3.5986 v 1.76933 h 1.5934 v 2.63628 c 0,0.96382 -0.6298,1.41632 -1.3576,1.41629 -0.7278,0 -1.3577,-0.45247 -1.3577,-1.41629 v -7.39631 c 0,-0.96382 0.6299,-1.41629 1.3577,-1.41629 0.7278,0 1.3576,0.45247 1.3576,1.41629 v 0.70882 h 2.0052 v -0.70882 c 0,-2.28168 -1.7303,-3.42145 -3.3628,-3.42145 z m 20.4482,0 c -1.6324,0 -3.3628,1.13977 -3.3628,3.42145 v 7.39631 c 0,2.28168 1.7304,3.42282 3.3628,3.42282 1.6325,0 3.3643,-1.14114 3.3643,-3.42282 v -4.40561 h -3.6 v 1.76933 h 1.5934 v 2.63628 c 0,0.96382 -0.6299,1.41632 -1.3577,1.41629 -0.7277,0 -1.3562,-0.45247 -1.3562,-1.41629 v -7.39631 c 0,-0.96382 0.6285,-1.41629 1.3562,-1.41629 0.7278,0 1.3577,0.45247 1.3577,1.41629 v 0.70882 h 2.0066 v -0.70882 c 0,-2.28168 -1.7318,-3.42145 -3.3643,-3.42145 z m -86.673,0.13357 v 1.86748 h 2.2315 v 12.1482 h 1.9125 v -12.1482 h 2.2723 v -1.86748 z m 7.7274,0 v 14.01568 h 1.8757 v -6.01138 h 1.1969 l 1.832,6.01138 h 1.9915 l -1.9915,-6.41214 c 1.036,-0.67611 1.5512,-1.67575 1.5512,-2.98798 v -1.2718 c 0,-0.956 -0.3163,-1.71213 -0.9159,-2.38819 -0.5962,-0.63978 -1.3154,-0.95557 -2.2315,-0.95557 z m 10.2045,0 -2.9879,14.01568 h 2.0309 l 0.5166,-2.98387 h 2.5084 l 0.5234,2.98387 h 2.0323 l -2.9524,-14.01568 z m 5.6161,0 v 14.01568 h 1.8716 v -8.52364 l 1.915,5.97597 h 0.957 l 1.9113,-5.97597 v 8.52364 h 1.9164 v -14.01568 h -1.7965 l -2.4713,7.48359 -2.5521,-7.48359 z m 14.1466,0 v 14.01568 h 2.9485 c 0.9558,0 1.7115,-0.31579 2.3077,-0.95554 0.6033,-0.63972 0.8804,-1.47223 0.8804,-2.50817 v -7.28863 c 0,-0.91967 -0.3162,-1.67532 -0.9158,-2.30777 -0.6399,-0.63978 -1.3568,-0.95557 -2.233,-0.95557 z m 16.6927,0 v 14.01568 h 1.9153 v -8.48411 l 2.9878,8.48411 h 1.7558 v -14.01568 h -1.9153 v 8.48003 l -2.9442,-8.48003 z m 20.4034,0 v 14.01568 h 1.9111 v -8.48411 l 2.9524,8.48411 h 1.7912 v -14.01568 h -1.911 v 8.48003 l -2.9525,-8.48003 z m 16.8551,0 v 14.01568 h 1.9125 v -6.25129 h 2.4344 v 6.25129 h 1.8728 v -14.01568 h -1.8728 v 6.00867 h -2.4344 v -6.00867 z m 8.2877,0 v 14.01568 h 1.8757 v -14.01568 z m -90.3304,1.86748 h 1.3959 c 0.3961,0 0.7166,0.12072 0.9529,0.40076 0.1998,0.27626 0.3202,0.63569 0.3202,1.07552 v 1.2718 c 0,0.24002 -5e-4,0.48029 -0.08,0.68019 -0.04,0.19635 -0.1198,0.35669 -0.2397,0.51663 -0.2769,0.27626 -0.5962,0.4362 -0.9923,0.4362 h -1.3563 z m 29.9643,0.0408 h 0.9952 c 0.3998,0 0.7163,0.11987 0.9963,0.35989 0.2397,0.27627 0.3996,0.59523 0.3996,0.99507 v 7.28866 c 0,1.0759 -0.4789,1.59213 -1.475,1.59213 h -0.9161 z m -20.8395,2.15102 0.9161,5.09674 h -1.7926 z m -0.796,11.54844 v 1.71616 h 1.6316 v -1.71619 z m 23.0628,4.27202 c -1.7521,0 -2.6214,1.30248 -2.6214,2.91983 0,1.33278 0.3453,2.20214 1.663,2.74126 l 1.0934,0.44844 c 0.7486,0.2995 0.8833,0.4799 0.8833,1.61804 0,0.97339 -0.074,1.58668 -1.1082,1.58668 -0.7789,0 -1.0783,-0.53778 -1.0783,-1.09185 v -0.47984 h -1.5269 v 0.56843 c 0,1.43764 1.1225,2.53134 2.6052,2.53134 1.9766,0 2.6362,-1.33273 2.6362,-3.12977 0,-1.55742 -0.254,-2.41065 -1.6031,-2.9198 l -1.1681,-0.46483 c -0.7937,-0.31448 -0.8685,-0.59948 -0.8685,-1.42311 0,-0.70385 0.1941,-1.37674 1.0334,-1.37674 0.7786,0 1.0783,0.5843 1.0783,1.28815 v 0.34351 h 1.528 v -0.74835 c 0,-1.18306 -1.0189,-2.41139 -2.5463,-2.41139 z m -14.8159,0.10902 v 10.63239 h 1.5157 v -4.53647 h 0.957 l 1.4312,4.53647 h 1.5963 l -1.5963,-4.8568 c 0.8362,-0.5162 1.2364,-1.27273 1.2364,-2.27234 v -0.95147 c 0,-0.71972 -0.2398,-1.31634 -0.7155,-1.7925 -0.4798,-0.51983 -1.076,-0.75928 -1.7558,-0.75928 z m 6.5758,0 v 10.63239 h 4.5404 v -1.50898 h -3.0275 v -3.14744 h 2.6677 v -1.43267 h -2.6677 v -3.14744 h 3.0275 v -1.39586 z m 11.5156,0 v 1.43539 h 1.7926 v 9.197 h 1.5117 v -9.19703 h 1.836 v -1.43536 z m 10.5603,0 -2.3925,10.63239 h 1.6331 l 0.4361,-2.26552 h 1.9549 l 0.4401,2.26552 h 1.6317 l -2.388,-10.63239 z m 4.5404,0 v 10.63239 h 1.5158 v -4.53647 h 0.9555 l 1.4356,4.53647 h 1.5919 l -1.5919,-4.8568 c 0.8359,-0.5162 1.232,-1.27273 1.232,-2.27234 v -0.95147 c 0,-0.71972 -0.2397,-1.31634 -0.7155,-1.7925 -0.4797,-0.51983 -1.0756,-0.75928 -1.7518,-0.75928 z m 6.5716,0 v 10.63239 h 4.5433 v -1.50898 h -3.0232 v -3.14744 h 2.6676 v -1.43267 h -2.6676 v -3.14744 h 3.0232 v -1.39586 z m 7.496,0 -2.3528,10.63239 h 1.5962 l 0.4361,-2.26552 h 1.9521 l 0.4401,2.26552 h 1.6319 l -2.3882,-10.63239 z m -45.744,1.43539 h 1.0728 c 0.32,0 0.5994,0.0793 0.7595,0.2794 0.1969,0.19636 0.2768,0.4771 0.2768,0.83696 v 0.95147 c 0,0.19978 3e-4,0.35986 -0.04,0.52342 -0.04,0.11644 -0.1171,0.27684 -0.197,0.39667 -0.2397,0.20007 -0.4803,0.31625 -0.8002,0.31625 h -1.0728 z m 33.1922,0 h 1.0757 c 0.3196,0 0.5964,0.0793 0.7563,0.2794 0.1997,0.19636 0.2796,0.4771 0.2796,0.83696 v 0.95147 c 0,0.19978 6e-4,0.35986 -0.04,0.52342 -0.04,0.11644 -0.1199,0.27684 -0.1998,0.39667 -0.2397,0.20007 -0.476,0.31625 -0.796,0.31625 h -1.0753 z m -5.4197,1.63165 0.7197,3.86036 h -1.4395 z m 18.6476,0 0.7155,3.86036 h -1.4327 z"
       style="fill:#ffffff;fill-opacity:1;fill-rule:nonzero;stroke:none;stroke-width:0.352776"
       id="path1970" />
    <path
       style="fill:#005497;fill-opacity:1;fill-rule:nonzero;stroke:none;stroke-width:0.352776"
       d="m 1030.6953,336.89389 c 0,0.7597 0.5999,1.35584 1.3597,1.35584 107.5017,0 107.5017,0 107.5017,0 0.7598,0 1.3557,-0.59614 1.3557,-1.35584 0,-39.74516 0,-39.74516 0,-39.74516 0,-0.71609 -0.5959,-1.35225 -1.3557,-1.35225 -107.5017,0 -107.5017,0 -107.5017,0 -0.7598,0 -1.3597,0.63616 -1.3597,1.35225 z m 0,0"
       id="path32210" />
    <path
       id="path32212"
       style="fill:#ffffff;fill-opacity:1;fill-rule:nonzero;stroke:none;stroke-width:0.352776"
       d="m 1135.413,297.90527 c -0.5559,0 -1.0368,0.15954 -1.393,0.51934 -0.1598,0.19635 -0.3188,0.39984 -0.439,0.59979 -0.08,0.19636 -0.1598,0.47619 -0.1598,0.75246 h 1.1559 c 0.04,-0.55619 0.3205,-0.83288 0.8767,-0.83288 0.4033,0 0.6396,0.15668 0.7195,0.51663 0.04,0.31622 -0.1969,0.59565 -0.7195,0.83559 -0.3599,0.19978 -0.5559,0.51705 -0.5959,0.83696 v 0.35578 h 0.4758 0.5999 l 0.043,-0.23574 0.077,-0.16097 0.1198,-0.11987 c 0.1598,-0.0799 0.3993,-0.20006 0.7155,-0.35986 0.3599,-0.27626 0.5603,-0.63612 0.5603,-0.99236 0,-0.27997 -0.04,-0.47618 -0.1199,-0.67611 -0.1199,-0.15982 -0.2398,-0.32312 -0.4401,-0.51936 -0.3562,-0.35986 -0.8753,-0.51934 -1.4749,-0.51934 z m -53.9115,0.75516 2.7521,2.82851 h 1.1926 l -2.0717,-2.82851 z m 5.8164,2.74808 -0.6761,0.63658 c 0.2397,0.32347 0.3193,0.60339 0.2797,0.83967 -0.04,0.24003 -0.1998,0.48027 -0.3993,0.63659 -0.1199,0.0799 -0.2397,0.11986 -0.3559,0.11986 v -1.11231 h -1.8728 v 10.71145 c 0,0.39625 -0.1198,0.71661 -0.3191,0.99644 -0.1598,0.31628 -0.4797,0.43623 -0.8396,0.4362 -0.4364,0 -0.7161,-0.11958 -0.9161,-0.35575 -0.1599,-0.24002 -0.2769,-0.43983 -0.2769,-0.59979 -0.04,-0.11987 -0.04,-0.27712 -0.04,-0.4771 V 302.5289 h -1.9125 v 10.71145 c 0,0.35623 0.04,0.67702 0.08,0.95691 0.08,0.27627 0.197,0.63616 0.3953,0.99239 0.1998,0.39984 0.5562,0.75517 1.036,1.03868 0.52,0.31625 1.036,0.4362 1.5922,0.4362 0.5634,0 1.0395,-0.11986 1.5158,-0.4362 0.4798,-0.2834 0.8365,-0.67928 1.1165,-1.11913 0.1598,-0.3162 0.2797,-0.59612 0.3599,-0.87241 0.08,-0.31982 0.08,-0.64021 0.08,-0.99644 v -8.60404 h 0.2369 c 0.2797,-0.0399 0.5993,-0.19892 0.9555,-0.43894 0.3599,-0.27627 0.5203,-0.67659 0.5602,-1.19274 0,-0.51617 -0.1598,-0.96011 -0.4404,-1.3563 -0.04,-0.0799 -0.08,-0.15982 -0.1598,-0.24002 z m 13.5099,0.98691 c -1.6325,0 -3.364,1.13977 -3.364,3.42142 v 7.39634 c 0,2.28165 1.7315,3.42281 3.364,3.42281 1.6328,0 3.3629,-1.14116 3.3629,-3.42281 v -4.40562 h -3.5986 v 1.76933 h 1.5934 v 2.63629 c 0,0.96382 -0.6299,1.41632 -1.3577,1.41629 -0.7278,0 -1.3576,-0.45247 -1.3576,-1.41629 v -7.39634 c 0,-0.96379 0.6298,-1.41626 1.3576,-1.41626 0.7278,0 1.3577,0.45247 1.3577,1.41626 v 0.70884 h 2.0052 v -0.70884 c 0,-2.28165 -1.7301,-3.42142 -3.3629,-3.42142 z m 20.4483,0 c -1.6325,0 -3.3629,1.13977 -3.3629,3.42142 v 7.39634 c 0,2.28165 1.7304,3.42281 3.3629,3.42281 1.6325,0 3.3643,-1.14116 3.3643,-3.42281 v -4.40562 h -3.6001 v 1.76933 h 1.5934 v 2.63629 c 0,0.96382 -0.6299,1.41632 -1.3576,1.41629 -0.7278,0 -1.3562,-0.45247 -1.3562,-1.41629 v -7.39634 c 0,-0.96379 0.6284,-1.41626 1.3562,-1.41626 0.7277,0 1.3576,0.45247 1.3576,1.41626 v 0.70884 h 2.0067 v -0.70884 c 0,-2.28165 -1.7318,-3.42142 -3.3643,-3.42142 z m -86.6731,0.13357 v 1.8675 h 2.2315 v 12.14818 h 1.9125 v -12.14818 h 2.2723 v -1.8675 z m 7.7278,0 v 14.01568 h 1.8756 v -6.01139 h 1.1967 l 1.8319,6.01139 h 1.9916 l -1.9916,-6.41214 c 1.036,-0.67611 1.5515,-1.67575 1.5515,-2.98799 v -1.27179 c 0,-0.956 -0.3162,-1.71214 -0.9162,-2.38819 -0.5962,-0.63978 -1.3154,-0.95557 -2.2312,-0.95557 z m 10.2041,0 -2.9878,14.01568 h 2.0309 l 0.5168,-2.98388 h 2.5081 l 0.5234,2.98388 h 2.0324 l -2.9525,-14.01568 z m 5.6161,0 v 14.01568 h 1.8716 v -8.52364 l 1.9153,5.97597 h 0.957 l 1.911,-5.97597 v 8.52364 h 1.9165 v -14.01568 h -1.7966 l -2.4713,7.48358 -2.5517,-7.48358 z m 14.1466,0 v 14.01568 h 2.9485 c 0.9561,0 1.7115,-0.3158 2.3077,-0.95558 0.6034,-0.63969 0.8808,-1.4722 0.8808,-2.50814 v -7.28863 c 0,-0.91967 -0.3165,-1.67532 -0.9162,-2.30776 -0.6398,-0.63978 -1.3568,-0.95557 -2.2329,-0.95557 z m 16.693,0 v 14.01568 h 1.915 v -8.48411 l 2.9882,8.48411 h 1.7555 v -14.01568 h -1.9151 v 8.48002 l -2.9444,-8.48002 z m 20.4032,0 v 14.01568 h 1.911 v -8.48411 l 2.9527,8.48411 h 1.7909 v -14.01568 h -1.911 v 8.48002 l -2.9525,-8.48002 z m 16.8551,0 v 14.01568 h 1.9124 v -6.25132 h 2.4345 v 6.25132 h 1.873 v -14.01568 h -1.873 v 6.00867 h -2.4345 v -6.00867 z m 8.2877,0 v 14.01568 h 1.8756 v -14.01568 z m -90.3302,1.8675 h 1.3956 c 0.3964,0 0.7166,0.12073 0.9529,0.40073 0.1998,0.27627 0.3205,0.6357 0.3205,1.07553 v 1.27179 c 0,0.24002 -5e-4,0.4803 -0.08,0.68019 -0.04,0.19636 -0.1198,0.35669 -0.2397,0.51663 -0.2768,0.27627 -0.5962,0.43621 -0.9926,0.43621 h -1.3562 z m 29.964,0.0408 h 0.9952 c 0.3999,0 0.7166,0.11986 0.9966,0.35986 0.2398,0.27626 0.3993,0.59522 0.3993,0.99507 v 7.28866 c 0,1.07592 -0.4789,1.59212 -1.4749,1.59212 h -0.9162 z m -20.8392,2.15099 0.9158,5.09677 h -1.7923 z m -0.7963,11.54844 v 1.71616 h 1.6316 v -1.71619 z m 23.0628,4.27205 c -1.7521,0 -2.6211,1.30247 -2.6211,2.9198 0,1.33281 0.345,2.20213 1.663,2.74125 l 1.0931,0.44848 c 0.7489,0.2995 0.8833,0.4799 0.8833,1.61804 0,0.97338 -0.074,1.58664 -1.1082,1.58664 -0.7789,0 -1.0782,-0.53774 -1.0782,-1.09185 v -0.47981 h -1.5266 v 0.56843 c 0,1.43761 1.1222,2.53132 2.6048,2.53132 1.9767,0 2.6362,-1.3327 2.6362,-3.12974 0,-1.55743 -0.254,-2.41065 -1.6031,-2.91983 l -1.1681,-0.46483 c -0.7937,-0.31446 -0.8682,-0.59945 -0.8682,-1.42309 0,-0.70385 0.1941,-1.37676 1.0332,-1.37676 0.7788,0 1.0782,0.5843 1.0782,1.28815 v 0.3435 h 1.528 v -0.74834 c 0,-1.18307 -1.0188,-2.41136 -2.5463,-2.41136 z m -14.8159,0.10902 v 10.63239 h 1.516 v -4.53647 h 0.957 l 1.4312,4.53647 h 1.5963 l -1.5963,-4.8568 c 0.836,-0.51618 1.2364,-1.27271 1.2364,-2.27235 v -0.95146 c 0,-0.71972 -0.2397,-1.31632 -0.7158,-1.79251 -0.4797,-0.51979 -1.0759,-0.75927 -1.7558,-0.75927 z m 6.5759,0 v 10.63239 h 4.5407 v -1.50899 h -3.0275 v -3.14744 h 2.6676 v -1.43264 h -2.6676 v -3.14747 h 3.0275 v -1.39585 z m 11.5155,0 v 1.43538 h 1.7926 v 9.19701 h 1.5118 v -9.19701 h 1.8362 v -1.43538 z m 10.5604,0 -2.3923,10.63239 h 1.6328 l 0.4364,-2.2655 h 1.9547 l 0.4403,2.2655 h 1.6317 l -2.3882,-10.63239 z m 4.5404,0 v 10.63239 h 1.516 v -4.53647 h 0.9555 l 1.4353,4.53647 h 1.5922 l -1.5922,-4.8568 c 0.8359,-0.51618 1.2323,-1.27271 1.2323,-2.27235 v -0.95146 c 0,-0.71972 -0.2397,-1.31632 -0.7157,-1.79251 -0.4798,-0.51979 -1.0754,-0.75927 -1.7515,-0.75927 z m 6.5718,0 v 10.63239 h 4.5433 v -1.50899 h -3.0235 v -3.14744 h 2.6676 v -1.43264 h -2.6676 v -3.14747 h 3.0235 v -1.39585 z m 7.4958,0 -2.3529,10.63239 h 1.5963 l 0.4363,-2.2655 h 1.9519 l 0.4404,2.2655 h 1.6316 l -2.3882,-10.63239 z m -45.7438,1.43538 h 1.0728 c 0.3197,0 0.5991,0.0793 0.7592,0.27941 0.1969,0.19635 0.2768,0.4771 0.2768,0.83696 v 0.95146 c 0,0.20007 3e-4,0.35989 -0.04,0.52345 -0.04,0.11644 -0.117,0.27655 -0.1969,0.39668 -0.2398,0.20006 -0.4804,0.31625 -0.8003,0.31625 h -1.0728 z m 33.1922,0 h 1.0754 c 0.3199,0 0.5965,0.0793 0.7566,0.27941 0.1998,0.19635 0.2797,0.4771 0.2797,0.83696 v 0.95146 c 0,0.20007 3e-4,0.35989 -0.04,0.52345 -0.04,0.11644 -0.1199,0.27655 -0.1998,0.39668 -0.2397,0.20006 -0.4763,0.31625 -0.7962,0.31625 h -1.0754 z m -5.42,1.63166 0.7198,3.86039 h -1.4396 z m 18.6477,0 0.7155,3.86039 h -1.4325 z" />
    <path
       id="path32216"
       d="m 1030.9508,402.18589 c 0,0.75974 0.5996,1.35588 1.3593,1.35588 107.5018,0 107.5018,0 107.5018,0 0.7597,0 1.3559,-0.59614 1.3559,-1.35588 0,-39.74515 0,-39.74515 0,-39.74515 0,-0.7161 -0.5962,-1.35222 -1.3559,-1.35222 -107.5018,0 -107.5018,0 -107.5018,0 -0.7597,0 -1.3593,0.63612 -1.3593,1.35222 z m 0,0"
       style="fill:#005497;fill-opacity:1;fill-rule:nonzero;stroke:none;stroke-width:0.352776" />
    <path
       d="m 1135.6684,363.19727 c -0.5562,0 -1.0368,0.15954 -1.393,0.51937 -0.1598,0.19636 -0.3191,0.39985 -0.4389,0.59977 -0.08,0.19635 -0.1598,0.47619 -0.1598,0.75245 h 1.1558 c 0.04,-0.55615 0.3202,-0.83288 0.8765,-0.83288 0.4032,0 0.6398,0.15669 0.7198,0.51663 0.04,0.31625 -0.197,0.59569 -0.7198,0.83562 -0.3599,0.20007 -0.5557,0.51706 -0.5957,0.83693 v 0.35578 h 0.4758 0.5996 l 0.043,-0.23574 0.077,-0.16096 0.1199,-0.11987 c 0.1598,-0.0799 0.3992,-0.20006 0.7157,-0.35989 0.3596,-0.27626 0.5603,-0.63612 0.5603,-0.99236 0,-0.27997 -0.04,-0.47619 -0.1199,-0.67611 -0.1199,-0.15982 -0.2397,-0.3231 -0.4404,-0.51934 -0.3561,-0.35986 -0.875,-0.51937 -1.4749,-0.51937 z m -53.9118,0.7552 2.7524,2.82847 h 1.1927 l -2.072,-2.82847 z m 5.8164,2.74805 -0.6758,0.63658 c 0.2397,0.3235 0.3194,0.60342 0.2797,0.8397 -0.04,0.24002 -0.1998,0.48027 -0.3996,0.63658 -0.1198,0.0799 -0.2397,0.11987 -0.3558,0.11987 v -1.11232 h -1.8728 v 10.71145 c 0,0.39622 -0.1199,0.71661 -0.3191,0.99644 -0.1598,0.31625 -0.4798,0.43624 -0.8397,0.43621 -0.436,0 -0.716,-0.11959 -0.9158,-0.35578 -0.1598,-0.24002 -0.2768,-0.43983 -0.2768,-0.5998 -0.04,-0.11986 -0.04,-0.27712 -0.04,-0.47707 v -10.71145 h -1.9124 v 10.71145 c 0,0.35624 0.04,0.67702 0.08,0.95692 0.08,0.27626 0.1969,0.63612 0.3952,0.99236 0.1998,0.39984 0.556,0.75516 1.036,1.0387 0.5197,0.31623 1.0357,0.43621 1.592,0.43621 0.5634,0 1.0397,-0.11987 1.5157,-0.43621 0.4801,-0.2834 0.8365,-0.67927 1.1165,-1.11913 0.1598,-0.31619 0.2797,-0.59614 0.3599,-0.87241 0.08,-0.31984 0.08,-0.6402 0.08,-0.99644 v -8.60406 h 0.2369 c 0.2797,-0.04 0.5993,-0.19892 0.9555,-0.43891 0.3599,-0.27627 0.5203,-0.67663 0.5603,-1.19274 0,-0.51618 -0.1599,-0.96011 -0.4404,-1.3563 -0.04,-0.0799 -0.08,-0.15983 -0.1598,-0.24003 z m 13.5102,0.98691 c -1.6327,0 -3.3642,1.13976 -3.3642,3.42144 v 7.39634 c 0,2.28165 1.7315,3.42282 3.3642,3.42282 1.6325,0 3.3629,-1.14117 3.3629,-3.42282 v -4.40561 h -3.5989 v 1.76933 h 1.5937 v 2.63628 c 0,0.96379 -0.6299,1.41629 -1.3577,1.41626 -0.7277,0 -1.3579,-0.45247 -1.3579,-1.41626 v -7.39634 c 0,-0.96379 0.6302,-1.41629 1.3579,-1.41629 0.7278,0 1.3577,0.4525 1.3577,1.41629 v 0.70885 h 2.0052 v -0.70885 c 0,-2.28168 -1.7304,-3.42144 -3.3629,-3.42144 z m 20.4483,0 c -1.6328,0 -3.3629,1.13976 -3.3629,3.42144 v 7.39634 c 0,2.28165 1.7301,3.42282 3.3629,3.42282 1.6325,0 3.364,-1.14117 3.364,-3.42282 v -4.40561 h -3.6 v 1.76933 h 1.5936 v 2.63628 c 0,0.96379 -0.6301,1.41629 -1.3576,1.41626 -0.7278,0 -1.3565,-0.45247 -1.3565,-1.41626 v -7.39634 c 0,-0.96379 0.6287,-1.41629 1.3565,-1.41629 0.7275,0 1.3576,0.4525 1.3576,1.41629 v 0.70885 h 2.0064 v -0.70885 c 0,-2.28168 -1.7315,-3.42144 -3.364,-3.42144 z m -86.6731,0.13356 v 1.86748 h 2.2313 v 12.14817 h 1.9124 v -12.14817 h 2.2724 v -1.86748 z m 7.7275,0 v 14.01565 h 1.8756 v -6.01138 h 1.197 l 1.832,6.01138 h 1.9915 l -1.9915,-6.41214 c 1.036,-0.67611 1.5511,-1.67572 1.5511,-2.98795 v -1.27183 c 0,-0.956 -0.3162,-1.7121 -0.9158,-2.38818 -0.5962,-0.63975 -1.3157,-0.95555 -2.2316,-0.95555 z m 10.2044,0 -2.9881,14.01565 h 2.0312 l 0.5166,-2.98387 h 2.5081 l 0.5234,2.98387 h 2.0326 l -2.9528,-14.01565 z m 5.6161,0 v 14.01565 h 1.8714 v -8.5236 l 1.9153,5.97593 h 0.9569 l 1.9111,-5.97593 v 8.5236 h 1.9167 v -14.01565 h -1.7966 l -2.4715,7.48356 -2.5518,-7.48356 z m 14.1464,0 v 14.01565 h 2.9484 c 0.9561,0 1.7119,-0.31576 2.3078,-0.95554 0.6036,-0.63972 0.8807,-1.4722 0.8807,-2.50814 v -7.28863 c 0,-0.91967 -0.3162,-1.67535 -0.9161,-2.30779 -0.6396,-0.63975 -1.3568,-0.95555 -2.2327,-0.95555 z m 16.693,0 v 14.01565 h 1.9153 v -8.48408 l 2.9878,8.48408 h 1.7558 v -14.01565 h -1.9153 v 8.48 l -2.9442,-8.48 z m 20.4031,0 v 14.01565 h 1.9113 v -8.48408 l 2.9525,8.48408 h 1.7912 v -14.01565 h -1.9111 v 8.48 l -2.9527,-8.48 z m 16.8551,0 v 14.01565 h 1.9125 v -6.25129 h 2.4347 v 6.25129 h 1.8728 v -14.01565 h -1.8728 v 6.00867 h -2.4347 v -6.00867 z m 8.288,0 v 14.01565 h 1.8756 v -14.01565 z m -90.3305,1.86748 h 1.3959 c 0.3962,0 0.7167,0.12072 0.9527,0.40076 0.1998,0.27626 0.3205,0.63567 0.3205,1.07549 v 1.27183 c 0,0.23973 -6e-4,0.4803 -0.08,0.68019 -0.04,0.19635 -0.1199,0.35669 -0.2398,0.51663 -0.2768,0.27626 -0.5962,0.4362 -0.9923,0.4362 h -1.3565 z m 29.9644,0.0408 h 0.9951 c 0.3999,0 0.7164,0.11987 0.9964,0.35986 0.2397,0.27627 0.3992,0.59526 0.3992,0.9951 v 7.28866 c 0,1.0759 -0.4789,1.59213 -1.4749,1.5921 h -0.9158 z m -20.8396,2.15103 0.9161,5.09673 h -1.7925 z m -0.796,11.5484 v 1.71619 h 1.6317 v -1.71619 z m 23.0628,4.27205 c -1.7523,0 -2.6214,1.30248 -2.6214,2.9198 0,1.33282 0.3451,2.20214 1.6631,2.74129 l 1.093,0.44845 c 0.7489,0.29949 0.8834,0.47989 0.8834,1.61804 0,0.97338 -0.074,1.58667 -1.1083,1.58667 -0.7785,0 -1.0782,-0.53778 -1.0782,-1.09185 v -0.47984 h -1.5266 v 0.56843 c 0,1.43764 1.1225,2.53134 2.6048,2.53134 1.977,0 2.6366,-1.33272 2.6366,-3.12977 0,-1.55742 -0.254,-2.41065 -1.6031,-2.9198 l -1.1682,-0.46483 c -0.7939,-0.31448 -0.8684,-0.59948 -0.8684,-1.42311 0,-0.70385 0.194,-1.37676 1.0331,-1.37676 0.7789,0 1.0783,0.58432 1.0783,1.28814 v 0.34351 h 1.5283 v -0.74834 c 0,-1.18304 -1.0189,-2.41137 -2.5464,-2.41137 z m -14.8159,0.10902 v 10.6324 h 1.5158 v -4.53648 h 0.9569 l 1.4313,4.53648 h 1.5962 l -1.5962,-4.85684 c 0.8359,-0.51617 1.2363,-1.2727 1.2363,-2.27231 v -0.95149 c 0,-0.71972 -0.2397,-1.31632 -0.7157,-1.79251 -0.4798,-0.5198 -1.076,-0.75925 -1.7555,-0.75925 z m 6.5756,0 v 10.6324 h 4.5407 v -1.50899 h -3.0275 v -3.14747 h 2.6676 v -1.43264 h -2.6676 v -3.14747 h 3.0275 v -1.39583 z m 11.5159,0 v 1.43539 h 1.7925 v 9.19701 h 1.5115 v -9.19704 h 1.8363 v -1.43536 z m 10.56,0 -2.3922,10.6324 h 1.633 l 0.4361,-2.26553 h 1.9547 l 0.4404,2.26553 h 1.6316 l -2.3882,-10.63237 z m 4.5407,0 v 10.6324 h 1.5157 v -4.53648 h 0.9556 l 1.4352,4.53648 h 1.5923 l -1.5923,-4.85684 c 0.8363,-0.51617 1.2324,-1.2727 1.2324,-2.27231 v -0.95149 c 0,-0.71972 -0.2397,-1.31632 -0.7155,-1.79251 -0.4801,-0.5198 -1.0757,-0.75925 -1.7518,-0.75925 z m 6.5716,0 v 10.6324 h 4.5433 v -1.50899 h -3.0236 v -3.14747 h 2.6677 v -1.43264 h -2.6677 v -3.14747 h 3.0236 v -1.39583 z m 7.4957,0 -2.3525,10.6324 h 1.5962 l 0.4361,-2.26553 h 1.9518 l 0.4404,2.26553 h 1.6316 l -2.3882,-10.6324 z m -45.7437,1.43539 h 1.0728 c 0.3199,0 0.5993,0.0793 0.7592,0.2794 0.1969,0.19636 0.2768,0.47708 0.2768,0.83694 v 0.95149 c 0,0.20006 6e-4,0.35986 -0.04,0.52342 -0.04,0.11644 -0.117,0.27684 -0.1969,0.39668 -0.2397,0.20006 -0.4803,0.31625 -0.8,0.31625 h -1.0728 z m 33.1921,0 h 1.0754 c 0.32,0 0.5968,0.0793 0.7566,0.2794 0.1998,0.19636 0.2797,0.47708 0.2797,0.83694 v 0.95149 c 0,0.20006 6e-4,0.35986 -0.04,0.52342 -0.04,0.11644 -0.1199,0.27684 -0.1998,0.39668 -0.2398,0.20006 -0.4761,0.31625 -0.796,0.31625 h -1.0757 z m -5.4197,1.63162 0.7198,3.86039 h -1.4396 z m 18.6474,0 0.7158,3.86039 h -1.4327 z"
       style="fill:#ffffff;fill-opacity:1;fill-rule:nonzero;stroke:none;stroke-width:0.352776"
       id="path32218" />
  </g>
</svg>
