<?xml version="1.0" encoding="UTF-8" standalone="no"?>
<svg
   sodipodi:docname="Vietnam_road_sign_I444ิ.svg"
   inkscape:version="1.2.2 (732a01da63, 2022-12-09)"
   id="svg848"
   version="1.1"
   viewBox="0 0 1701.0367 500"
   height="500mm"
   width="1701.0367mm"
   xml:space="preserve"
   xmlns:inkscape="http://www.inkscape.org/namespaces/inkscape"
   xmlns:sodipodi="http://sodipodi.sourceforge.net/DTD/sodipodi-0.dtd"
   xmlns="http://www.w3.org/2000/svg"
   xmlns:svg="http://www.w3.org/2000/svg"
   xmlns:rdf="http://www.w3.org/1999/02/22-rdf-syntax-ns#"
   xmlns:cc="http://creativecommons.org/ns#"
   xmlns:dc="http://purl.org/dc/elements/1.1/"><defs
     id="defs842"><clipPath
       clipPathUnits="userSpaceOnUse"
       id="clipPath92633"><g
         id="g92639"
         transform="matrix(0.99999998,0,0,-0.99999998,472.81977,521.37449)"><g
           id="g92637"><path
             clip-rule="nonzero"
             d="m -458.81977,519.39402 h 424 V 151.37449 h -424 z m 0,0"
             id="path92635" /></g></g></clipPath><clipPath
       clipPathUnits="userSpaceOnUse"
       id="clipPath92693"><g
         id="g92699"
         transform="matrix(0.99999998,0,0,-0.99999998,472.81977,521.37449)"><g
           id="g92697"><path
             clip-rule="nonzero"
             d="m -445.81977,519.39402 h 424 V 151.37449 h -424 z m 0,0"
             id="path92695" /></g></g></clipPath><clipPath
       clipPathUnits="userSpaceOnUse"
       id="clipPath92618"><g
         id="g92624"
         transform="matrix(0.99999998,0,0,-0.99999998,472.81977,521.37449)"><g
           id="g92622"><path
             clip-rule="nonzero"
             d="m -433.81977,519.39402 h 423 V 151.37449 h -423 z m 0,0"
             id="path92620" /></g></g></clipPath><clipPath
       clipPathUnits="userSpaceOnUse"
       id="clipPath92603"><g
         id="g92609"
         transform="matrix(0.99999998,0,0,-0.99999998,472.81977,521.37449)"><g
           id="g92607"><path
             clip-rule="nonzero"
             d="m -414.81977,519.39402 h 424 V 151.37449 h -424 z m 0,0"
             id="path92605" /></g></g></clipPath><clipPath
       clipPathUnits="userSpaceOnUse"
       id="clipPath92755"><g
         id="g92761"
         transform="matrix(0.99999998,0,0,-0.99999998,472.81977,521.37449)"><g
           id="g92759"><path
             clip-rule="nonzero"
             d="m -402.81977,519.39402 h 424 V 151.37449 h -424 z m 0,0"
             id="path92757" /></g></g></clipPath><clipPath
       clipPathUnits="userSpaceOnUse"
       id="clipPath92740"><g
         id="g92746"
         transform="matrix(0.99999998,0,0,-0.99999998,472.81977,521.37449)"><g
           id="g92744"><path
             clip-rule="nonzero"
             d="m -385.81977,519.39402 h 424 V 151.37449 h -424 z m 0,0"
             id="path92742" /></g></g></clipPath><clipPath
       clipPathUnits="userSpaceOnUse"
       id="clipPath92709"><g
         id="g92715"
         transform="matrix(0.99999998,0,0,-0.99999998,472.81977,521.37449)"><g
           id="g92713"><path
             clip-rule="nonzero"
             d="m -372.81977,519.39402 h 424 V 151.37449 h -424 z m 0,0"
             id="path92711" /></g></g></clipPath><clipPath
       clipPathUnits="userSpaceOnUse"
       id="clipPath92785"><g
         id="g92791"
         transform="matrix(0.99999998,0,0,-0.99999998,472.81977,521.37449)"><g
           id="g92789"><path
             clip-rule="nonzero"
             d="m -358.81977,519.39402 h 424 V 151.37449 h -424 z m 0,0"
             id="path92787" /></g></g></clipPath><clipPath
       clipPathUnits="userSpaceOnUse"
       id="clipPath92725"><g
         id="g92731"
         transform="matrix(0.99999998,0,0,-0.99999998,472.81977,521.37449)"><g
           id="g92729"><path
             clip-rule="nonzero"
             d="m -345.81977,519.39402 h 424 V 151.37449 h -424 z m 0,0"
             id="path92727" /></g></g></clipPath><clipPath
       clipPathUnits="userSpaceOnUse"
       id="clipPath92770"><g
         id="g92776"
         transform="matrix(0.99999998,0,0,-0.99999998,472.81977,521.37449)"><g
           id="g92774"><path
             clip-rule="nonzero"
             d="m -333.81977,519.39402 h 424 V 151.37449 h -424 z m 0,0"
             id="path92772" /></g></g></clipPath><clipPath
       id="clip-0"><path
         clip-rule="nonzero"
         d="M 34,1.980469 H 458 V 378 H 34 Z m 0,0"
         id="path14613" /></clipPath><clipPath
       id="clip-1"><path
         clip-rule="nonzero"
         d="M 46,1.980469 H 469 V 378 H 46 Z m 0,0"
         id="path14616" /></clipPath><clipPath
       id="clip-2"><path
         clip-rule="nonzero"
         d="M 59,1.980469 H 483 V 378 H 59 Z m 0,0"
         id="path14619" /></clipPath><clipPath
       id="clip-3"><path
         clip-rule="nonzero"
         d="M 73,1.980469 H 497 V 378 H 73 Z m 0,0"
         id="path14622" /></clipPath><clipPath
       id="clip-5"><path
         clip-rule="nonzero"
         d="M 91,1.980469 H 515 V 378 H 91 Z m 0,0"
         id="path14628" /></clipPath><clipPath
       id="clip-6"><path
         clip-rule="nonzero"
         d="M 105,1.980469 H 529 V 378 H 105 Z m 0,0"
         id="path14631" /></clipPath><clipPath
       id="clip-7"><path
         clip-rule="nonzero"
         d="M 119,1.980469 H 543 V 378 H 119 Z m 0,0"
         id="path14634" /></clipPath><clipPath
       id="clip-8"><path
         clip-rule="nonzero"
         d="M 131,1.980469 H 555 V 378 H 131 Z m 0,0"
         id="path14637" /></clipPath><clipPath
       id="clip-9"><path
         clip-rule="nonzero"
         d="M 146,1.980469 H 570 V 378 H 146 Z m 0,0"
         id="path14640" /></clipPath></defs><sodipodi:namedview
     inkscape:document-rotation="0"
     inkscape:measure-end="0,0"
     inkscape:measure-start="0,0"
     showguides="false"
     fit-margin-bottom="0"
     fit-margin-right="0"
     fit-margin-left="0"
     fit-margin-top="0"
     inkscape:window-maximized="1"
     inkscape:window-y="-9"
     inkscape:window-x="-9"
     inkscape:window-height="991"
     inkscape:window-width="1920"
     inkscape:snap-global="false"
     showgrid="false"
     inkscape:current-layer="g13231"
     inkscape:document-units="mm"
     inkscape:cy="686.91311"
     inkscape:cx="4808.3918"
     inkscape:zoom="0.18415721"
     inkscape:pageshadow="2"
     inkscape:pageopacity="0.0"
     borderopacity="1.0"
     bordercolor="#666666"
     pagecolor="#ffffff"
     id="base"
     inkscape:showpageshadow="2"
     inkscape:pagecheckerboard="0"
     inkscape:deskcolor="#d1d1d1" /><metadata
     id="metadata845"><rdf:RDF><cc:Work
         rdf:about=""><dc:format>image/svg+xml</dc:format><dc:type
           rdf:resource="http://purl.org/dc/dcmitype/StillImage" /></cc:Work></rdf:RDF></metadata><g
     transform="translate(-530.52646,11.947886)"
     id="layer1"
     inkscape:groupmode="layer"
     inkscape:label="Layer 1"><path
       inkscape:connector-curvature="0"
       d=""
       style="opacity:1;fill:#d35f5f;fill-opacity:1;fill-rule:nonzero;stroke:none;stroke-width:3.92256;stroke-linecap:butt;stroke-linejoin:miter;stroke-miterlimit:4;stroke-dasharray:none;stroke-opacity:1;paint-order:stroke fill markers"
       id="path8376"
       r="150"
       cy="147"
       cx="150" /><g
       inkscape:groupmode="layer"
       transform="translate(-4496.0426,2396.6803)"
       id="text3577"
       style="font-style:normal;font-variant:normal;font-weight:bold;font-stretch:normal;font-size:299.854px;line-height:0;font-family:Giaothong1;-inkscape-font-specification:'Giaothong1 Bold';letter-spacing:0px;word-spacing:0px;fill:#ffcc00;fill-opacity:1;stroke:none;stroke-width:1.56174"
       aria-label="VỊNH"><g
         id="text3665"
         style="font-style:normal;font-variant:normal;font-weight:bold;font-stretch:normal;font-size:299.854px;line-height:0;font-family:Giaothong1;-inkscape-font-specification:'Giaothong1 Bold';letter-spacing:-2.78077px;word-spacing:0px;fill:#ffcc00;fill-opacity:1;stroke:none;stroke-width:2.43903"
         aria-label="VỊNH" /></g><g
       inkscape:groupmode="layer"
       id="text2719"
       style="font-style:normal;font-variant:normal;font-weight:bold;font-stretch:normal;font-size:184.173px;line-height:0;font-family:Giaothong1;-inkscape-font-specification:'Giaothong1 Bold';letter-spacing:0px;word-spacing:0.486833px;fill:#ffffff;fill-opacity:1;stroke:none;stroke-width:0.959232"
       aria-label="CÔNG TRƯỜNG"><g
         inkscape:groupmode="layer"
         id="text2888"
         style="font-style:normal;font-variant:normal;font-weight:bold;font-stretch:normal;font-size:187.408px;line-height:0;font-family:Giaothong1;-inkscape-font-specification:'Giaothong1 Bold';letter-spacing:0.00264583px;word-spacing:0px;fill:#ffffff;fill-opacity:1;stroke:none;stroke-width:0.936293"
         aria-label="AHEAD"><g
           inkscape:groupmode="layer"
           id="text2903"
           style="font-style:normal;font-variant:normal;font-weight:bold;font-stretch:normal;font-size:184.173px;line-height:0;font-family:Giaothong1;-inkscape-font-specification:'Giaothong1 Bold';letter-spacing:0.00529167px;word-spacing:0px;fill:#ffffff;fill-opacity:1;stroke:none;stroke-width:0.898123"
           aria-label="WORKS"><path
             d="m 708.33916,-11.947699 1523.22404,-1.87e-4 V 488.05211 H 708.33916 L 530.52646,238.0523 Z"
             style="opacity:1;fill:#0046aa;fill-opacity:1;fill-rule:nonzero;stroke:none;stroke-width:1.27163;stroke-linecap:butt;stroke-linejoin:miter;stroke-miterlimit:10;stroke-dasharray:none;stroke-opacity:1;paint-order:stroke fill markers"
             id="rect1393"
             sodipodi:nodetypes="cccccc" /><path
             id="rect1395"
             style="opacity:1;fill:#ffffff;fill-opacity:1;fill-rule:nonzero;stroke:none;stroke-width:1.22924;stroke-linecap:butt;stroke-linejoin:miter;stroke-miterlimit:10;stroke-dasharray:none;stroke-opacity:1;paint-order:stroke fill markers"
             d="M 710.47731,-3.6148361 540.46021,238.0523 710.47731,479.72219 H 2223.2254 V -3.6148361 Z m 8.3265,8.33846 h 68.59 V 471.38374 h -68.59 L 554.2984,238.0523 Z m 536.58179,0 h 959.5132 V 471.38374 h -959.5132 z"
             sodipodi:nodetypes="ccccccccccccccccc" /><g
             id="g71683"
             transform="translate(-84.093397,-614.59523)" /><g
             id="g90281"
             transform="matrix(17.976796,0,0,17.976796,-23169.233,-23050.388)"><g
               id="g13231"
               transform="matrix(18.004451,0,0,18.004451,-23833.517,-22865.08)"><g
                 id="g13647"
                 transform="translate(0.10845297)"><g
                   clip-path="url(#clip-0)"
                   id="g15183"
                   transform="matrix(0.01962406,0,0,0.01962406,1394.5446,1338.53)"><g
                     fill="#ffffff"
                     fill-opacity="1"
                     id="g15181"><g
                       id="use15179"
                       transform="translate(245.6736,166.4687)"><path
                         d="m 11.605469,-4.367188 c 0.03906,0 0.07031,0.015625 0.101562,0.046875 0.02734,0.03125 0.03516,0.066407 0.01953,0.109375 -0.289063,1.402344 -0.925782,2.480469 -1.917969,3.242188 -0.480469,0.359375 -1.003906,0.636719 -1.570313,0.824219 -0.5625,0.1874998 -1.171875,0.277344 -1.828125,0.277344 -1.1875,0 -2.1875,-0.281251 -3.003906,-0.855469 C 2.613281,-1.285156 2.035156,-1.90625 1.671875,-2.582031 1.546875,-2.8125 1.445313,-3.050781 1.351563,-3.289063 1.265625,-3.527344 1.199219,-3.773438 1.144531,-4.035156 1.058594,-4.542969 1.011719,-5.699219 1.011719,-7.503906 c 0,-0.898438 0.011719,-1.636719 0.03125,-2.210938 0.019531,-0.566406 0.050781,-0.984375 0.101562,-1.25 0.046875,-0.257812 0.113282,-0.511719 0.207032,-0.753906 0.089843,-0.238281 0.195312,-0.472656 0.320312,-0.710938 0.355469,-0.667968 0.933594,-1.285156 1.734375,-1.859375 0.804688,-0.578125 1.808594,-0.867187 3.003906,-0.867187 1.429688,0 2.613282,0.441406 3.554688,1.324219 0.949219,0.886718 1.535156,1.9375 1.761719,3.15625 0.01172,0.04297 0.01172,0.07422 -0.01953,0.105468 -0.02344,0.02344 -0.0625,0.03906 -0.101562,0.03906 h -2.36719 c -0.058593,0 -0.097656,-0.02344 -0.113281,-0.08203 -0.085937,-0.273438 -0.214844,-0.53125 -0.378906,-0.769532 -0.167969,-0.238281 -0.367188,-0.457031 -0.609375,-0.664062 -0.457031,-0.402344 -1.027344,-0.609375 -1.726563,-0.609375 -0.515625,0 -0.953125,0.101562 -1.320312,0.308594 -0.363281,0.207031 -0.65625,0.445312 -0.878906,0.710937 -0.128907,0.167969 -0.242188,0.351563 -0.339844,0.5625 -0.09375,0.207031 -0.167969,0.425781 -0.226563,0.648438 C 3.59375,-10.195313 3.550781,-9.832031 3.53125,-9.34375 3.511719,-8.859375 3.5,-8.242188 3.5,-7.503906 c 0,0.746093 0.011719,1.367187 0.03125,1.851562 0.019531,0.484375 0.054688,0.839844 0.113281,1.078125 0.050782,0.210938 0.128907,0.425781 0.230469,0.636719 0.101563,0.207031 0.214844,0.390625 0.335938,0.550781 0.21875,0.289063 0.511718,0.53125 0.878906,0.738281 0.363281,0.203125 0.804687,0.304688 1.320312,0.304688 1.1875,0 2.097657,-0.648438 2.714844,-1.949219 0.011719,-0.011719 0.03125,-0.027344 0.054688,-0.046875 0.019531,-0.015625 0.039062,-0.027344 0.058593,-0.027344 h 2.367188"
                         id="path13051" /></g></g></g><g
                   clip-path="url(#clip-1)"
                   id="g15189"
                   transform="matrix(0.01962406,0,0,0.01962406,1394.5446,1338.53)"><g
                     fill="#ffffff"
                     fill-opacity="1"
                     id="g15187"><g
                       id="use15185"
                       transform="translate(257.49954,166.4687)"><path
                         d="m 9.746094,0.0117188 c -0.082031,0 -0.125,-0.0429688 -0.125,-0.1249998 v -6.339844 h -5.625 v 6.339844 c 0,0.082031 -0.042969,0.1249998 -0.125,0.1249998 H 1.632813 c -0.085938,0 -0.125,-0.0429688 -0.125,-0.1249998 V -14.90625 c 0,-0.08594 0.039062,-0.125 0.125,-0.125 h 2.238281 c 0.082031,0 0.125,0.03906 0.125,0.125 v 6.214844 h 5.625 v -6.214844 c 0,-0.08594 0.042969,-0.125 0.125,-0.125 h 2.242187 c 0.08203,0 0.121094,0.03906 0.121094,0.125 v 14.792969 c 0,0.082031 -0.03906,0.1249998 -0.121094,0.1249998 H 9.746094"
                         id="path13063" /></g></g></g><g
                   clip-path="url(#clip-2)"
                   id="g15195"
                   transform="matrix(0.01962406,0,0,0.01962406,1394.5446,1338.53)"><g
                     fill="#ffffff"
                     fill-opacity="1"
                     id="g15193"><g
                       id="use15191"
                       transform="translate(271.23694,166.4687)"><path
                         d="m 1.238281,-14.90625 c 0,-0.08594 0.042969,-0.125 0.125,-0.125 h 2.25 c 0.074219,0 0.113282,0.03906 0.113282,0.125 v 9.539062 c 0,0.988282 0.273437,1.738282 0.828125,2.25 0.554687,0.515625 1.246093,0.773438 2.074218,0.773438 0.808594,0 1.496094,-0.257813 2.054688,-0.773438 0.558594,-0.515625 0.835937,-1.265625 0.835937,-2.25 v -9.539062 c 0,-0.08594 0.039063,-0.125 0.125,-0.125 h 2.238282 c 0.08203,0 0.125,0.03906 0.125,0.125 v 9.785156 c 0,1.578125 -0.527344,2.855469 -1.582032,3.820313 C 9.390625,-0.347656 8.125,0.132813 6.628906,0.132813 5.132813,0.132813 3.855469,-0.339844 2.808594,-1.300781 1.765625,-2.261719 1.238281,-3.535156 1.238281,-5.121094 v -9.785156 m 6.03125,-1.457031 c -0.011718,0 -0.03125,-0.0039 -0.054687,-0.01563 -0.019531,-0.01172 -0.027344,-0.01563 -0.039063,-0.02734 L 4.324219,-19.41797 c -0.039063,-0.04297 -0.050781,-0.08594 -0.023438,-0.136719 0.019532,-0.04687 0.0625,-0.07031 0.117188,-0.07031 h 2.273437 c 0.039063,0 0.070313,0.01953 0.101563,0.0625 l 2.160156,3.011719 c 0.019531,0.04687 0.023438,0.08984 0.00391,0.128906 -0.015625,0.03906 -0.050781,0.05859 -0.109375,0.05859 H 7.269531"
                         id="path13059" /></g></g></g><g
                   clip-path="url(#clip-3)"
                   id="g15201"
                   transform="matrix(0.01962406,0,0,0.01962406,1394.5446,1338.53)"><g
                     fill="#ffffff"
                     fill-opacity="1"
                     id="g15199"><g
                       id="use15197"
                       transform="translate(284.61697,166.4687)"><path
                         d="M 0.175781,0 C 0.128906,0 0.09375,-0.015625 0.0742188,-0.0507813 0.0507813,-0.0820313 0.046875,-0.125 0.0625,-0.164063 L 5.472656,-14.96875 c 0.00781,-0.05078 0.046875,-0.08203 0.101563,-0.08203 h 1.847656 c 0.023438,0 0.042969,0.0039 0.070313,0.02344 0.019531,0.01563 0.035156,0.03516 0.042968,0.05859 L 12.9375,-0.164063 C 12.9453,-0.125 12.9453,-0.0859375 12.92578,-0.0507813 12.90625,-0.0195313 12.875,0 12.832031,0 H 10.46875 C 10.41797,0 10.38281,-0.0273438 10.367188,-0.0820313 L 9.25,-3.34375 H 3.800781 c -0.191406,0.554687 -0.382812,1.097656 -0.574218,1.636719 -0.1875,0.53125 -0.378907,1.070312 -0.574219,1.6249997 C 2.648438,-0.0625 2.632813,-0.046875 2.605469,-0.0273438 2.585938,-0.0117188 2.558594,0 2.539063,0 H 0.175781 M 8.507813,-5.566406 C 8.496094,-5.609375 8.476563,-5.664063 8.449219,-5.71875 8.429688,-5.769531 8.410156,-5.824219 8.394531,-5.863281 8.28125,-6.199219 8.171875,-6.507813 8.074219,-6.796875 7.980469,-7.082031 7.894531,-7.328125 7.816406,-7.546875 7.769531,-7.679688 7.722656,-7.816406 7.675781,-7.949219 7.636719,-8.078125 7.589844,-8.203125 7.546875,-8.320313 7.515625,-8.429688 7.480469,-8.53125 7.445313,-8.636719 7.414063,-8.734375 7.375,-8.832031 7.339844,-8.929688 7.277344,-9.125 7.214844,-9.328125 7.148438,-9.527344 7.085938,-9.726563 7.019531,-9.933594 6.949219,-10.148438 6.917969,-10.242188 6.882813,-10.351563 6.839844,-10.46875 6.804688,-10.582031 6.761719,-10.707031 6.722656,-10.839844 6.699219,-10.90625 6.683594,-10.957031 6.675781,-11 c -0.011718,-0.03516 -0.023437,-0.07422 -0.039062,-0.113281 -0.00781,-0.03516 -0.023438,-0.07813 -0.042969,-0.128907 -0.015625,-0.04687 -0.039062,-0.113281 -0.070312,-0.207031 -0.070313,0.226563 -0.144532,0.433594 -0.210938,0.628906 -0.0625,0.191407 -0.125,0.371094 -0.179687,0.539063 -0.011719,0.03906 -0.019532,0.07422 -0.03125,0.113281 -0.00391,0.03125 -0.015625,0.06641 -0.03125,0.101563 -0.03125,0.113281 -0.066407,0.226562 -0.109375,0.332031 C 5.925781,-9.632813 5.890625,-9.527344 5.855469,-9.425781 5.824219,-9.316406 5.785156,-9.210938 5.75,-9.105469 5.71875,-9.003906 5.683594,-8.90625 5.648438,-8.804688 5.582031,-8.601563 5.507813,-8.382813 5.4375,-8.15625 5.363281,-7.929688 5.285156,-7.691406 5.191406,-7.445313 5.105469,-7.195313 5.011719,-6.933594 4.914063,-6.644531 4.820313,-6.359375 4.699219,-6 4.542969,-5.566406 h 3.964844"
                         id="path13055" /></g></g></g><g
                   clip-path="url(#clip-5)"
                   id="g15213"
                   transform="matrix(0.01962406,0,0,0.01962406,1394.5446,1338.53)"><g
                     fill="#ffffff"
                     fill-opacity="1"
                     id="g15211"><g
                       id="use15209"
                       transform="translate(303.01245,166.4687)"><path
                         d="m 9.746094,0.0117188 c -0.082031,0 -0.125,-0.0429688 -0.125,-0.1249998 v -6.339844 h -5.625 v 6.339844 c 0,0.082031 -0.042969,0.1249998 -0.125,0.1249998 H 1.632813 c -0.085938,0 -0.125,-0.0429688 -0.125,-0.1249998 V -14.90625 c 0,-0.08594 0.039062,-0.125 0.125,-0.125 h 2.238281 c 0.082031,0 0.125,0.03906 0.125,0.125 v 6.214844 h 5.625 v -6.214844 c 0,-0.08594 0.042969,-0.125 0.125,-0.125 h 2.242187 c 0.08203,0 0.121094,0.03906 0.121094,0.125 v 14.792969 c 0,0.082031 -0.03906,0.1249998 -0.121094,0.1249998 H 9.746094"
                         id="path13067" /></g></g></g><g
                   clip-path="url(#clip-6)"
                   id="g15219"
                   transform="matrix(0.01962406,0,0,0.01962406,1394.5446,1338.53)"><g
                     fill="#ffffff"
                     fill-opacity="1"
                     id="g15217"><g
                       id="use15215"
                       transform="translate(316.74982,166.4687)"><path
                         d="m 13.082031,-16.941406 c 0.03906,0.03125 0.08203,0.07031 0.121094,0.113281 0.457031,0.476562 0.6875,1.09375 0.703125,1.859375 0.02734,0.929687 -0.386719,1.683594 -1.25,2.269531 -0.355469,0.167969 -0.742187,0.285156 -1.164062,0.363281 v 7.214844 c 0,1.578125 -0.527344,2.855469 -1.582032,3.820313 C 8.875,-0.347656 7.609375,0.132813 6.113281,0.132813 c -1.5,0 -2.773437,-0.472657 -3.820312,-1.433594 C 1.25,-2.261719 0.722656,-3.535156 0.722656,-5.121094 v -9.785156 c 0,-0.08594 0.042969,-0.125 0.125,-0.125 h 2.25 c 0.070313,0 0.113282,0.03906 0.113282,0.125 v 9.539062 c 0,0.988282 0.273437,1.738282 0.824218,2.25 0.558594,0.515625 1.25,0.773438 2.078125,0.773438 0.808594,0 1.496094,-0.257813 2.054688,-0.773438 0.554687,-0.515625 0.835937,-1.265625 0.835937,-2.25 v -9.539062 c 0,-0.08594 0.039063,-0.125 0.121094,-0.125 h 2.242188 c 0.08203,0 0.125,0.03906 0.125,0.125 v 1.226562 c 0.625,-0.269531 0.941406,-0.679687 0.960937,-1.25 -0.0078,-0.453125 -0.140625,-0.777343 -0.40625,-0.980468 l 1.035156,-1.03125"
                         id="path13079" /></g></g></g><g
                   clip-path="url(#clip-7)"
                   id="g15225"
                   transform="matrix(0.01962406,0,0,0.01962406,1394.5446,1338.53)"><g
                     fill="#ffffff"
                     fill-opacity="1"
                     id="g15223"><g
                       id="use15221"
                       transform="translate(330.60773,166.4687)"><path
                         d="m 3.5,-7.503906 c 0,0.746093 0.011719,1.367187 0.03125,1.851562 0.019531,0.484375 0.054688,0.839844 0.113281,1.078125 0.050782,0.210938 0.128907,0.425781 0.230469,0.636719 0.101563,0.207031 0.214844,0.390625 0.335938,0.550781 0.21875,0.289063 0.511718,0.53125 0.878906,0.738281 0.363281,0.203125 0.804687,0.304688 1.320312,0.304688 0.507813,0 0.945313,-0.097656 1.3125,-0.304688 0.363282,-0.199218 0.652344,-0.449218 0.867188,-0.738281 0.289062,-0.351562 0.476562,-0.742187 0.566406,-1.1875 0.109375,-0.4375 0.167969,-1.414062 0.167969,-2.929687 0,-0.75 -0.011719,-1.371094 -0.042969,-1.855469 -0.023437,-0.484375 -0.066406,-0.839844 -0.125,-1.066406 -0.046875,-0.21875 -0.117187,-0.433594 -0.214844,-0.648438 -0.09375,-0.203125 -0.207031,-0.394531 -0.339843,-0.5625 -0.105469,-0.128906 -0.226563,-0.257812 -0.378907,-0.378906 -0.144531,-0.125 -0.3125,-0.234375 -0.5,-0.328125 -0.1875,-0.08984 -0.386718,-0.164063 -0.609375,-0.226563 -0.214843,-0.05469 -0.453125,-0.08594 -0.703125,-0.08594 -0.515625,0 -0.953125,0.101562 -1.320312,0.308594 -0.359375,0.207031 -0.65625,0.445312 -0.878906,0.710937 -0.128907,0.167969 -0.242188,0.351563 -0.339844,0.5625 -0.09375,0.207031 -0.167969,0.425781 -0.226563,0.648438 C 3.59375,-10.195313 3.550781,-9.832031 3.53125,-9.34375 3.511719,-8.859375 3.5,-8.242188 3.5,-7.503906 m 8.414063,-9.46875 c 0.05078,0.04687 0.101562,0.09375 0.15625,0.144531 0.453125,0.476562 0.6875,1.09375 0.699218,1.859375 0.02734,0.929687 -0.386718,1.683594 -1.246093,2.269531 -0.136719,0.0625 -0.28125,0.121094 -0.425782,0.175781 0.01172,0.02734 0.03125,0.05859 0.05469,0.09375 0.25,0.464844 0.421875,0.953125 0.515625,1.464844 0.04687,0.257813 0.08203,0.675781 0.105469,1.25 0.02344,0.566406 0.03906,1.304688 0.03906,2.210938 0,1.765625 -0.04687,2.921875 -0.144531,3.46875 -0.04687,0.265625 -0.113281,0.519531 -0.203125,0.761718 -0.08203,0.238282 -0.183594,0.46875 -0.304688,0.691407 -0.359375,0.660156 -0.949218,1.28125 -1.765625,1.859375 -0.808593,0.566406 -1.804687,0.855469 -2.984375,0.855469 -1.1875,0 -2.1875,-0.281251 -3.003906,-0.855469 C 2.613281,-1.285156 2.035156,-1.90625 1.671875,-2.582031 H 1.683594 C 1.554688,-2.8125 1.445313,-3.050781 1.351563,-3.289063 1.265625,-3.527344 1.199219,-3.773438 1.144531,-4.035156 1.105469,-4.292969 1.074219,-4.710938 1.046875,-5.289063 1.027344,-5.863281 1.011719,-6.601563 1.011719,-7.503906 c 0,-0.898438 0.011719,-1.636719 0.035156,-2.210938 0.023438,-0.566406 0.058594,-0.984375 0.097656,-1.25 0.046875,-0.257812 0.113282,-0.511719 0.207032,-0.753906 0.089843,-0.238281 0.195312,-0.472656 0.332031,-0.710938 H 1.671875 c 0.355469,-0.667968 0.933594,-1.285156 1.734375,-1.859375 0.804688,-0.578125 1.808594,-0.867187 3.003906,-0.867187 1.183594,0 2.179688,0.289062 2.984375,0.867187 0.300782,0.21875 0.574219,0.445313 0.816407,0.671875 0.710937,-0.257812 1.082031,-0.695312 1.105468,-1.3125 -0.0078,-0.464843 -0.15625,-0.800781 -0.445312,-1 l 1.042969,-1.042968"
                         id="path13083" /></g></g></g><g
                   clip-path="url(#clip-8)"
                   id="g15231"
                   transform="matrix(0.01962406,0,0,0.01962406,1394.5446,1338.53)"><g
                     fill="#ffffff"
                     fill-opacity="1"
                     id="g15229"><g
                       id="use15227"
                       transform="translate(343.3894,166.4687)"><path
                         d="m 1.632813,0.0117188 c -0.085938,0 -0.125,-0.0429688 -0.125,-0.1249998 V -14.90625 c 0,-0.08594 0.039062,-0.125 0.125,-0.125 h 2.125 c 0.042968,0 0.074218,0.01953 0.101562,0.0625 l 6.507813,10.242187 V -14.90625 c 0,-0.08594 0.03906,-0.125 0.121093,-0.125 h 2.25 c 0.08594,0 0.125,0.03906 0.125,0.125 v 14.792969 c 0,0.082031 -0.03906,0.1249998 -0.125,0.1249998 H 10.625 c -0.04297,0 -0.07422,-0.0234376 -0.105469,-0.0625001 L 3.996094,-10.292969 v 10.179688 c 0,0.082031 -0.035156,0.1249998 -0.113281,0.1249998 h -2.25"
                         id="path13075" /></g></g></g><g
                   clip-path="url(#clip-9)"
                   id="g15237"
                   transform="matrix(0.01962406,0,0,0.01962406,1394.5446,1338.53)"><g
                     fill="#ffffff"
                     fill-opacity="1"
                     id="g15235"><g
                       id="use15233"
                       transform="translate(357.72516,166.4687)"><path
                         d="m 6.433594,-6.007813 c -0.085938,0 -0.125,-0.042968 -0.125,-0.125 v -2.125 c 0,-0.074218 0.039062,-0.113281 0.125,-0.113281 H 11.6875 c 0.08203,0 0.125,0.035156 0.125,0.113281 v 3.011719 c 0,1.519531 -0.523437,2.792969 -1.570312,3.820313 -1.058594,1.039062 -2.332032,1.558594 -3.832032,1.558594 -1.1875,0 -2.1875,-0.281251 -3.003906,-0.855469 C 2.613281,-1.285156 2.035156,-1.90625 1.671875,-2.582031 H 1.683594 C 1.554688,-2.8125 1.445313,-3.050781 1.351563,-3.289063 1.265625,-3.527344 1.199219,-3.773438 1.144531,-4.035156 1.105469,-4.292969 1.074219,-4.710938 1.046875,-5.289063 1.027344,-5.863281 1.011719,-6.601563 1.011719,-7.503906 c 0,-0.898438 0.011719,-1.636719 0.035156,-2.210938 0.023438,-0.566406 0.058594,-0.984375 0.097656,-1.25 0.046875,-0.257812 0.113282,-0.511719 0.207032,-0.753906 0.089843,-0.238281 0.195312,-0.472656 0.332031,-0.710938 H 1.671875 c 0.355469,-0.667968 0.933594,-1.285156 1.734375,-1.859375 0.804688,-0.578125 1.808594,-0.867187 3.003906,-0.867187 1.429688,0 2.613282,0.4375 3.554688,1.320312 0.949219,0.878907 1.535156,1.933594 1.761719,3.160157 0.01172,0.04297 0.01172,0.07422 -0.01953,0.105468 -0.02344,0.02344 -0.0625,0.03906 -0.101562,0.03906 h -2.36719 c -0.058593,0 -0.097656,-0.02344 -0.113281,-0.08203 -0.085937,-0.273438 -0.214844,-0.53125 -0.378906,-0.769532 -0.167969,-0.238281 -0.367188,-0.457031 -0.609375,-0.664062 -0.457031,-0.402344 -1.027344,-0.609375 -1.726563,-0.609375 -0.515625,0 -0.953125,0.101562 -1.320312,0.308594 -0.363281,0.207031 -0.65625,0.445312 -0.878906,0.710937 -0.128907,0.167969 -0.242188,0.351563 -0.339844,0.5625 -0.09375,0.207031 -0.167969,0.425781 -0.226563,0.648438 C 3.59375,-10.195313 3.550781,-9.832031 3.53125,-9.34375 3.511719,-8.859375 3.5,-8.242188 3.5,-7.503906 c 0,0.746093 0.011719,1.367187 0.03125,1.851562 0.019531,0.484375 0.054688,0.839844 0.113281,1.078125 0.050782,0.210938 0.128907,0.425781 0.230469,0.636719 0.101563,0.207031 0.214844,0.390625 0.335938,0.550781 0.21875,0.289063 0.511718,0.53125 0.878906,0.738281 0.363281,0.203125 0.804687,0.304688 1.320312,0.304688 0.816407,0 1.507813,-0.277344 2.066407,-0.835938 0.5625,-0.558593 0.847656,-1.285156 0.847656,-2.1875 V -6.007813 H 6.433594"
                         id="path13071" /></g></g></g><g
                   fill="#ffffff"
                   fill-opacity="1"
                   id="g17911"
                   transform="matrix(0.01962406,0,0,0.01962406,1394.5446,1338.53)"><g
                     id="use17909"
                     transform="translate(255.11075,191.67184)"><path
                       d="m 8.148438,0.0078125 c -0.066407,0 -0.101563,-0.0351563 -0.101563,-0.1015625 V -5.394531 H 3.339844 v 5.300781 c 0,0.0664062 -0.035156,0.1015625 -0.101563,0.1015625 h -1.875 c -0.070312,0 -0.101562,-0.0351563 -0.101562,-0.1015625 v -12.371094 c 0,-0.07031 0.03125,-0.105469 0.101562,-0.105469 h 1.875 c 0.066407,0 0.101563,0.03516 0.101563,0.105469 v 5.195313 h 4.707031 v -5.195313 c 0,-0.07031 0.035156,-0.105469 0.101563,-0.105469 h 1.875 c 0.06641,0 0.101562,0.03516 0.101562,0.105469 V -0.09375 c 0,0.0664062 -0.03516,0.1015625 -0.101562,0.1015625 h -1.875"
                       id="path13027" /></g></g><g
                   fill="#ffffff"
                   fill-opacity="1"
                   id="g17915"
                   transform="matrix(0.01962406,0,0,0.01962406,1394.5446,1338.53)"><g
                     id="use17913"
                     transform="translate(266.56732,191.67184)"><path
                       d="m 1.105469,-8.847656 c 0,-0.070313 0.035156,-0.105469 0.101562,-0.105469 H 2.96875 c 0.070313,0 0.105469,0.035156 0.105469,0.105469 V -3.625 c 0,0.574219 0.148437,1.011719 0.457031,1.320312 0.300781,0.300782 0.699219,0.457032 1.191406,0.457032 0.453125,0 0.835938,-0.152344 1.15625,-0.457032 C 6.179688,-2.605469 6.335938,-3.046875 6.335938,-3.625 v -5.222656 c 0,-0.070313 0.035156,-0.105469 0.105468,-0.105469 h 1.761719 c 0.066406,0 0.101563,0.035156 0.101563,0.105469 v 8.753906 c 0,0.0664062 -0.035157,0.1015625 -0.101563,0.1015625 H 6.441406 c -0.070312,0 -0.105468,-0.0351563 -0.105468,-0.1015625 V -0.785156 C 5.792969,-0.191406 5.058594,0.113281 4.144531,0.113281 3.4375,0.113281 2.753906,-0.152344 2.089844,-0.683594 1.433594,-1.21875 1.105469,-2 1.105469,-3.03125 v -5.816406"
                       id="path13007" /></g></g><g
                   fill="#ffffff"
                   fill-opacity="1"
                   id="g17919"
                   transform="matrix(0.01962406,0,0,0.01962406,1394.5446,1338.53)"><g
                     id="use17917"
                     transform="translate(276.00485,191.67184)"><path
                       d="m 0.671875,-4.480469 c 0,-0.9375 0.078125,-1.648437 0.234375,-2.132812 0.148438,-0.484375 0.398438,-0.910157 0.742188,-1.285157 0.242187,-0.257812 0.578125,-0.515625 1.019531,-0.769531 0.433594,-0.25 1.007812,-0.378906 1.71875,-0.378906 0.699219,0 1.269531,0.125 1.699219,0.378906 0.226562,0.125 0.417968,0.25 0.589843,0.378906 0.171875,0.128907 0.316407,0.257813 0.445313,0.390625 0.335937,0.371094 0.589844,0.800782 0.742187,1.285157 0.148438,0.492187 0.226563,1.203125 0.226563,2.132812 0,0.953125 -0.074219,1.675781 -0.226563,2.160156 -0.152343,0.46875 -0.398437,0.894532 -0.742187,1.285157 C 6.863281,-0.757813 6.519531,-0.5 6.085938,-0.25 5.65625,-0.0078125 5.089844,0.113281 4.386719,0.113281 3.675781,0.113281 3.109375,-0.0078125 2.667969,-0.25 2.472656,-0.363281 2.289063,-0.492188 2.109375,-0.628906 1.9375,-0.769531 1.78125,-0.902344 1.648438,-1.035156 1.300781,-1.421875 1.054688,-1.847656 0.90625,-2.320313 0.75,-2.792969 0.671875,-3.511719 0.671875,-4.480469 m 5.457031,0.015625 c 0,-0.601562 -0.03125,-1.039062 -0.09375,-1.308594 C 5.976563,-6.019531 5.871094,-6.257813 5.714844,-6.484375 5.566406,-6.675781 5.382813,-6.828125 5.15625,-6.933594 4.9375,-7.035156 4.679688,-7.085938 4.386719,-7.085938 c -0.609375,0 -1.054688,0.195313 -1.332031,0.601563 -0.078125,0.113281 -0.144532,0.230469 -0.203125,0.34375 -0.050782,0.109375 -0.09375,0.230469 -0.125,0.367187 -0.054688,0.246094 -0.085938,0.675782 -0.085938,1.292969 0,0.3125 0.00391,0.578125 0.023438,0.804688 0.011718,0.222656 0.035156,0.398437 0.0625,0.535156 0.054687,0.246094 0.160156,0.476562 0.328125,0.699219 0.269531,0.394531 0.714843,0.59375 1.332031,0.59375 0.585937,0 1.027344,-0.199219 1.328125,-0.59375 0.148437,-0.226563 0.253906,-0.460938 0.320312,-0.699219 0.058594,-0.28125 0.09375,-0.722656 0.09375,-1.324219"
                       id="path13031" /></g></g><g
                   fill="#ffffff"
                   fill-opacity="1"
                   id="g17923"
                   transform="matrix(0.01962406,0,0,0.01962406,1394.5446,1338.53)"><g
                     id="use17921"
                     transform="translate(284.96503,191.67184)"><path
                       d="m 1.207031,0.0078125 c -0.066406,0 -0.101562,-0.0351563 -0.101562,-0.1015625 v -8.753906 c 0,-0.070313 0.035156,-0.105469 0.101562,-0.105469 H 2.96875 c 0.070313,0 0.105469,0.035156 0.105469,0.105469 v 0.707031 c 0.550781,-0.605469 1.285156,-0.90625 2.210937,-0.90625 0.351563,0 0.699219,0.066406 1.035157,0.199219 0.332031,0.128906 0.664062,0.328125 1,0.59375 0.65625,0.535156 0.984375,1.3125 0.984375,2.339843 v 5.820313 c 0,0.0664062 -0.035157,0.1015625 -0.105469,0.1015625 H 6.441406 c -0.070312,0 -0.105468,-0.0351563 -0.105468,-0.1015625 v -5.214844 c 0,-0.570312 -0.152344,-1.007812 -0.457032,-1.3125 -0.320312,-0.3125 -0.707031,-0.464844 -1.15625,-0.464844 -0.484375,0 -0.882812,0.152344 -1.191406,0.464844 -0.300781,0.300781 -0.457031,0.742188 -0.457031,1.3125 v 5.214844 c 0,0.0664062 -0.035156,0.1015625 -0.105469,0.1015625 H 1.207031"
                       id="path13011" /></g></g><g
                   fill="#ffffff"
                   fill-opacity="1"
                   id="g17927"
                   transform="matrix(0.01962406,0,0,0.01962406,1394.5446,1338.53)"><g
                     id="use17925"
                     transform="translate(294.40256,191.67184)"><path
                       d="M 6.027344,-0.75 C 5.417969,-0.175781 4.695313,0.113281 3.867188,0.113281 3.28125,0.113281 2.785156,-0.00390625 2.375,-0.242188 2.183594,-0.355469 2.011719,-0.480469 1.851563,-0.609375 1.695313,-0.738281 1.566406,-0.863281 1.46875,-0.992188 1.34375,-1.15625 1.234375,-1.332031 1.140625,-1.515625 1.050781,-1.695313 0.980469,-1.878906 0.933594,-2.0625 0.839844,-2.414063 0.792969,-3.210938 0.792969,-4.464844 c 0,-1.242187 0.042969,-2.035156 0.140625,-2.390625 0.042969,-0.179687 0.109375,-0.367187 0.203125,-0.550781 0.085937,-0.183594 0.195312,-0.359375 0.332031,-0.527344 0.191406,-0.25 0.496094,-0.5 0.90625,-0.742187 0.386719,-0.246094 0.886719,-0.371094 1.492188,-0.371094 0.800781,0 1.519531,0.292969 2.160156,0.890625 v -0.691406 c 0,-0.070313 0.027344,-0.105469 0.09375,-0.105469 h 1.769531 c 0.058594,0 0.09375,0.035156 0.09375,0.105469 v 8.554687 c 0,1.335938 -0.390625,2.335938 -1.183594,2.984375 C 6.015625,3.332031 5.109375,3.652344 4.09375,3.652344 3.503906,3.652344 2.945313,3.511719 2.398438,3.238281 1.839844,2.957031 1.359375,2.59375 0.96875,2.148438 0.949219,2.128906 0.941406,2.101563 0.945313,2.070313 c 0,-0.023438 0.011718,-0.046875 0.039062,-0.058594 L 2.355469,0.921875 c 0.039062,-0.023437 0.078125,-0.027344 0.121094,0 0.207031,0.207031 0.449218,0.386719 0.734375,0.535156 0.28125,0.148438 0.585937,0.226563 0.914062,0.226563 0.5625,0 1.019531,-0.152344 1.367188,-0.457031 0.351562,-0.3125 0.535156,-0.75 0.535156,-1.332032 V -0.75 M 2.761719,-4.464844 c 0,0.339844 0,0.628906 0.00781,0.859375 0.00391,0.234375 0.019532,0.40625 0.035157,0.523438 0.023437,0.113281 0.058593,0.21875 0.101562,0.324218 0.042969,0.097657 0.097656,0.195313 0.175781,0.28125 0.050782,0.074219 0.117188,0.144532 0.203125,0.222657 0.082032,0.074218 0.175782,0.144531 0.289063,0.203125 0.109375,0.0625 0.234375,0.109375 0.371094,0.148437 0.136718,0.035156 0.289062,0.054688 0.457031,0.054688 0.160156,0 0.308594,-0.015625 0.445312,-0.054688 0.132813,-0.035156 0.253907,-0.085937 0.367188,-0.148437 0.105469,-0.058594 0.203125,-0.125 0.289062,-0.203125 0.082032,-0.074219 0.152344,-0.144532 0.210938,-0.222657 0.058594,-0.089843 0.117187,-0.1875 0.160156,-0.289062 0.042969,-0.101563 0.074219,-0.203125 0.089844,-0.316406 0.023437,-0.113282 0.039062,-0.285157 0.046875,-0.519532 0.00781,-0.226562 0.015625,-0.515625 0.015625,-0.863281 0,-0.34375 -0.00781,-0.628906 -0.015625,-0.863281 C 6.003906,-5.554688 5.992188,-5.726563 5.964844,-5.84375 5.929688,-6.054688 5.84375,-6.257813 5.707031,-6.449219 h 0.00781 C 5.65625,-6.515625 5.582031,-6.589844 5.496094,-6.667969 5.414063,-6.746094 5.316406,-6.816406 5.207031,-6.875 5.097656,-6.9375 4.976563,-6.984375 4.84375,-7.027344 4.714844,-7.066406 4.566406,-7.085938 4.402344,-7.085938 c -0.164063,0 -0.320313,0.015625 -0.457031,0.058594 C 3.808594,-6.988281 3.6875,-6.9375 3.574219,-6.875 3.464844,-6.816406 3.371094,-6.75 3.285156,-6.671875 3.203125,-6.597656 3.132813,-6.527344 3.082031,-6.449219 2.945313,-6.277344 2.851563,-6.078125 2.804688,-5.84375 2.789063,-5.730469 2.78125,-5.554688 2.769531,-5.320313 c -0.00391,0.230469 -0.00781,0.515625 -0.00781,0.855469"
                       id="path13019" /></g></g><g
                   fill="#ffffff"
                   fill-opacity="1"
                   id="g17935"
                   transform="matrix(0.01962406,0,0,0.01962406,1394.5446,1338.53)"><g
                     id="use17933"
                     transform="translate(307.78271,191.67184)"><path
                       d="m 3.339844,-10.582031 v 3.78125 h 2.6875 C 6.6875,-6.800781 7.179688,-7 7.5,-7.398438 7.828125,-7.78125 7.992188,-8.214844 7.992188,-8.691406 c 0,-0.714844 -0.25,-1.234375 -0.757813,-1.5625 -0.328125,-0.21875 -0.75,-0.328125 -1.277344,-0.328125 H 3.339844 M 1.363281,0.0078125 c -0.066406,0 -0.101562,-0.0351563 -0.101562,-0.1015625 v -12.371094 c 0,-0.07031 0.035156,-0.105469 0.101562,-0.105469 h 4.488282 c 0.492187,0 0.964843,0.05469 1.410156,0.15625 0.449219,0.105469 0.921875,0.351563 1.429687,0.742188 0.195313,0.15625 0.378907,0.332031 0.542969,0.539062 0.164063,0.203125 0.308594,0.429688 0.441406,0.679688 0.125,0.25 0.226563,0.53125 0.296875,0.835937 0.066407,0.304688 0.101563,0.628907 0.101563,0.976563 0,0.902344 -0.335938,1.765625 -1.019531,2.589844 -0.675782,0.816406 -1.664063,1.226562 -2.960938,1.226562 H 3.339844 v 4.730469 c 0,0.0664062 -0.035156,0.1015625 -0.101563,0.1015625 h -1.875"
                       id="path13039" /></g></g><g
                   fill="#ffffff"
                   fill-opacity="1"
                   id="g17939"
                   transform="matrix(0.01962406,0,0,0.01962406,1394.5446,1338.53)"><g
                     id="use17937"
                     transform="translate(318.29517,191.67184)"><path
                       d="m 5.84375,0.0429688 c -0.070312,0 -0.101562,-0.0351563 -0.101562,-0.1015626 V -0.542969 C 5.664063,-0.441406 5.566406,-0.351563 5.460938,-0.273438 5.355469,-0.195313 5.238281,-0.132813 5.121094,-0.0859375 4.941406,-0.0117188 4.734375,0.0429688 4.492188,0.0859375 4.257813,0.125 3.996094,0.148438 3.710938,0.148438 2.722656,0.125 1.96875,-0.148438 1.449219,-0.664063 v 0.007813 c -0.558594,-0.507813 -0.84375,-1.167969 -0.84375,-1.976563 0,-0.75 0.242187,-1.390625 0.722656,-1.90625 0.492188,-0.519531 1.210938,-0.78125 2.140625,-0.796875 H 5.742188 V -6.15625 C 5.75,-6.867188 5.207031,-7.210938 4.101563,-7.183594 c -0.199219,0 -0.378907,0.011719 -0.542969,0.027344 C 3.398438,-7.140625 3.25,-7.109375 3.117188,-7.0625 H 3.125 c -0.113281,0.058594 -0.214844,0.125 -0.3125,0.210937 -0.089844,0.082032 -0.167969,0.183594 -0.230469,0.300782 -0.039062,0.066406 -0.089843,0.078125 -0.15625,0.023437 l -1.347656,-1.0625 C 1.058594,-7.605469 1.042969,-7.625 1.035156,-7.652344 c -0.00391,-0.027344 0,-0.046875 0.019532,-0.074219 0.664062,-0.902343 1.652343,-1.34375 2.960937,-1.3125 0.542969,-0.00391 1.035156,0.042969 1.464844,0.148438 0.433594,0.101562 0.816406,0.265625 1.15625,0.492187 0.667969,0.46875 1.003906,1.25 1.011719,2.339844 v 6.0000002 c 0,0.0664063 -0.035157,0.1015626 -0.101563,0.1015626 H 5.84375 M 5.742188,-3.675781 H 3.789063 c -0.921875,0.023437 -1.390625,0.34375 -1.378907,0.957031 0,0.257812 0.113282,0.488281 0.351563,0.691406 0.242187,0.210938 0.625,0.316406 1.15625,0.316406 0.710937,0.00781 1.195312,-0.074218 1.46875,-0.25 h -0.00781 c 0.242188,-0.160156 0.363282,-0.550781 0.363282,-1.171875 v -0.542968"
                       id="path13043" /></g></g><g
                   fill="#ffffff"
                   fill-opacity="1"
                   id="g17943"
                   transform="matrix(0.01962406,0,0,0.01962406,1394.5446,1338.53)"><g
                     id="use17941"
                     transform="translate(326.78152,191.67184)"><path
                       d="M 6.027344,-0.75 C 5.417969,-0.175781 4.695313,0.113281 3.867188,0.113281 3.28125,0.113281 2.785156,-0.00390625 2.375,-0.242188 2.183594,-0.355469 2.011719,-0.480469 1.851563,-0.609375 1.695313,-0.738281 1.566406,-0.863281 1.46875,-0.992188 1.34375,-1.15625 1.234375,-1.332031 1.140625,-1.515625 1.050781,-1.695313 0.980469,-1.878906 0.933594,-2.0625 0.839844,-2.414063 0.792969,-3.210938 0.792969,-4.464844 c 0,-1.242187 0.042969,-2.035156 0.140625,-2.390625 0.042969,-0.179687 0.109375,-0.367187 0.203125,-0.550781 0.085937,-0.183594 0.195312,-0.359375 0.332031,-0.527344 0.191406,-0.25 0.496094,-0.5 0.90625,-0.742187 0.386719,-0.246094 0.886719,-0.371094 1.492188,-0.371094 0.800781,0 1.519531,0.292969 2.160156,0.890625 v -0.691406 c 0,-0.070313 0.027344,-0.105469 0.09375,-0.105469 h 1.769531 c 0.058594,0 0.09375,0.035156 0.09375,0.105469 v 8.554687 c 0,1.335938 -0.390625,2.335938 -1.183594,2.984375 C 6.015625,3.332031 5.109375,3.652344 4.09375,3.652344 3.503906,3.652344 2.945313,3.511719 2.398438,3.238281 1.839844,2.957031 1.359375,2.59375 0.96875,2.148438 0.949219,2.128906 0.941406,2.101563 0.945313,2.070313 c 0,-0.023438 0.011718,-0.046875 0.039062,-0.058594 L 2.355469,0.921875 c 0.039062,-0.023437 0.078125,-0.027344 0.121094,0 0.207031,0.207031 0.449218,0.386719 0.734375,0.535156 0.28125,0.148438 0.585937,0.226563 0.914062,0.226563 0.5625,0 1.019531,-0.152344 1.367188,-0.457031 0.351562,-0.3125 0.535156,-0.75 0.535156,-1.332032 V -0.75 M 2.761719,-4.464844 c 0,0.339844 0,0.628906 0.00781,0.859375 0.00391,0.234375 0.019532,0.40625 0.035157,0.523438 0.023437,0.113281 0.058593,0.21875 0.101562,0.324218 0.042969,0.097657 0.097656,0.195313 0.175781,0.28125 0.050782,0.074219 0.117188,0.144532 0.203125,0.222657 0.082032,0.074218 0.175782,0.144531 0.289063,0.203125 0.109375,0.0625 0.234375,0.109375 0.371094,0.148437 0.136718,0.035156 0.289062,0.054688 0.457031,0.054688 0.160156,0 0.308594,-0.015625 0.445312,-0.054688 0.132813,-0.035156 0.253907,-0.085937 0.367188,-0.148437 0.105469,-0.058594 0.203125,-0.125 0.289062,-0.203125 0.082032,-0.074219 0.152344,-0.144532 0.210938,-0.222657 0.058594,-0.089843 0.117187,-0.1875 0.160156,-0.289062 0.042969,-0.101563 0.074219,-0.203125 0.089844,-0.316406 0.023437,-0.113282 0.039062,-0.285157 0.046875,-0.519532 0.00781,-0.226562 0.015625,-0.515625 0.015625,-0.863281 0,-0.34375 -0.00781,-0.628906 -0.015625,-0.863281 C 6.003906,-5.554688 5.992188,-5.726563 5.964844,-5.84375 5.929688,-6.054688 5.84375,-6.257813 5.707031,-6.449219 h 0.00781 C 5.65625,-6.515625 5.582031,-6.589844 5.496094,-6.667969 5.414063,-6.746094 5.316406,-6.816406 5.207031,-6.875 5.097656,-6.9375 4.976563,-6.984375 4.84375,-7.027344 4.714844,-7.066406 4.566406,-7.085938 4.402344,-7.085938 c -0.164063,0 -0.320313,0.015625 -0.457031,0.058594 C 3.808594,-6.988281 3.6875,-6.9375 3.574219,-6.875 3.464844,-6.816406 3.371094,-6.75 3.285156,-6.671875 3.203125,-6.597656 3.132813,-6.527344 3.082031,-6.449219 2.945313,-6.277344 2.851563,-6.078125 2.804688,-5.84375 2.789063,-5.730469 2.78125,-5.554688 2.769531,-5.320313 c -0.00391,0.230469 -0.00781,0.515625 -0.00781,0.855469"
                       id="path13023" /></g></g><g
                   fill="#ffffff"
                   fill-opacity="1"
                   id="g17947"
                   transform="matrix(0.01962406,0,0,0.01962406,1394.5446,1338.53)"><g
                     id="use17945"
                     transform="translate(335.98038,191.67184)"><path
                       d="m 0.671875,-4.480469 c 0,-0.9375 0.078125,-1.648437 0.234375,-2.132812 0.148438,-0.484375 0.398438,-0.910157 0.742188,-1.285157 0.242187,-0.257812 0.578125,-0.515625 1.019531,-0.769531 0.433594,-0.25 1.007812,-0.378906 1.71875,-0.378906 0.699219,0 1.269531,0.125 1.699219,0.378906 0.226562,0.125 0.417968,0.25 0.589843,0.378906 0.171875,0.128907 0.316407,0.257813 0.445313,0.390625 0.335937,0.371094 0.589844,0.800782 0.742187,1.285157 0.148438,0.492187 0.226563,1.203125 0.226563,2.132812 0,0.953125 -0.074219,1.675781 -0.226563,2.160156 -0.152343,0.46875 -0.398437,0.894532 -0.742187,1.285157 C 6.863281,-0.757813 6.519531,-0.5 6.085938,-0.25 5.65625,-0.0078125 5.089844,0.113281 4.386719,0.113281 3.675781,0.113281 3.109375,-0.0078125 2.667969,-0.25 2.472656,-0.363281 2.289063,-0.492188 2.109375,-0.628906 1.9375,-0.769531 1.78125,-0.902344 1.648438,-1.035156 1.300781,-1.421875 1.054688,-1.847656 0.90625,-2.320313 0.75,-2.792969 0.671875,-3.511719 0.671875,-4.480469 m 5.457031,0.015625 c 0,-0.601562 -0.03125,-1.039062 -0.09375,-1.308594 C 5.976563,-6.019531 5.871094,-6.257813 5.714844,-6.484375 5.566406,-6.675781 5.382813,-6.828125 5.15625,-6.933594 4.9375,-7.035156 4.679688,-7.085938 4.386719,-7.085938 c -0.609375,0 -1.054688,0.195313 -1.332031,0.601563 -0.078125,0.113281 -0.144532,0.230469 -0.203125,0.34375 -0.050782,0.109375 -0.09375,0.230469 -0.125,0.367187 -0.054688,0.246094 -0.085938,0.675782 -0.085938,1.292969 0,0.3125 0.00391,0.578125 0.023438,0.804688 0.011718,0.222656 0.035156,0.398437 0.0625,0.535156 0.054687,0.246094 0.160156,0.476562 0.328125,0.699219 0.269531,0.394531 0.714843,0.59375 1.332031,0.59375 0.585937,0 1.027344,-0.199219 1.328125,-0.59375 0.148437,-0.226563 0.253906,-0.460938 0.320312,-0.699219 0.058594,-0.28125 0.09375,-0.722656 0.09375,-1.324219"
                       id="path13035" /></g></g><g
                   fill="#ffffff"
                   fill-opacity="1"
                   id="g17951"
                   transform="matrix(0.01962406,0,0,0.01962406,1394.5446,1338.53)"><g
                     id="use17949"
                     transform="translate(344.82034,191.67184)"><path
                       d="m 6.441406,0.0078125 c -0.070312,0 -0.105468,-0.0351563 -0.105468,-0.1015625 V -0.75 c -0.605469,0.574219 -1.320313,0.863281 -2.15625,0.863281 -0.558594,0 -1.039063,-0.10937475 -1.4375,-0.328125 -0.398438,-0.214844 -0.730469,-0.5 -0.988282,-0.847656 h 0.00781 C 1.496094,-1.382813 1.320313,-1.761719 1.234375,-2.203125 1.148438,-2.632813 1.105469,-3.390625 1.105469,-4.480469 c 0,-1.070312 0.042969,-1.816406 0.128906,-2.246094 0.042969,-0.207031 0.113281,-0.402343 0.199219,-0.601562 0.085937,-0.195313 0.195312,-0.375 0.328125,-0.542969 h -0.00781 c 0.257813,-0.339844 0.585938,-0.617187 0.988282,-0.84375 0.394531,-0.21875 0.875,-0.332031 1.4375,-0.332031 0.429687,0 0.820312,0.082031 1.167968,0.25 0.34375,0.164062 0.679688,0.382812 0.988282,0.65625 v -4.238281 c 0,-0.07031 0.035156,-0.105469 0.105468,-0.105469 h 1.761719 c 0.066406,0 0.101563,0.03516 0.101563,0.105469 V -0.09375 c 0,0.0664062 -0.035157,0.1015625 -0.101563,0.1015625 H 6.441406 M 4.722656,-7.085938 c -0.785156,0 -1.261718,0.257813 -1.417968,0.777344 H 3.316406 C 3.238281,-6.027344 3.175781,-5.726563 3.132813,-5.425781 3.09375,-5.125 3.074219,-4.808594 3.074219,-4.480469 c 0,0.332031 0.015625,0.65625 0.058594,0.96875 0.039062,0.308594 0.101562,0.601563 0.183593,0.886719 H 3.304688 c 0.15625,0.519531 0.628906,0.777344 1.417968,0.777344 0.761719,0 1.214844,-0.265625 1.363282,-0.8125 0.164062,-0.59375 0.25,-1.203125 0.25,-1.820313 0,-0.59375 -0.082032,-1.195312 -0.25,-1.796875 C 5.9375,-6.816406 5.480469,-7.085938 4.722656,-7.085938"
                       id="path13015" /></g></g><g
                   fill="#ffffff"
                   fill-opacity="1"
                   id="g17955"
                   transform="matrix(0.01962406,0,0,0.01962406,1394.5446,1338.53)"><g
                     id="use17953"
                     transform="translate(353.89896,191.67184)"><path
                       d="m 5.84375,0.0429688 c -0.070312,0 -0.101562,-0.0351563 -0.101562,-0.1015626 V -0.542969 C 5.664063,-0.441406 5.566406,-0.351563 5.460938,-0.273438 5.355469,-0.195313 5.238281,-0.132813 5.121094,-0.0859375 4.941406,-0.0117188 4.734375,0.0429688 4.492188,0.0859375 4.257813,0.125 3.996094,0.148438 3.710938,0.148438 2.722656,0.125 1.96875,-0.148438 1.449219,-0.664063 v 0.007813 c -0.558594,-0.507813 -0.84375,-1.167969 -0.84375,-1.976563 0,-0.75 0.242187,-1.390625 0.722656,-1.90625 0.492188,-0.519531 1.210938,-0.78125 2.140625,-0.796875 H 5.742188 V -6.15625 C 5.75,-6.867188 5.207031,-7.210938 4.101563,-7.183594 c -0.199219,0 -0.378907,0.011719 -0.542969,0.027344 C 3.398438,-7.140625 3.25,-7.109375 3.117188,-7.0625 H 3.125 c -0.113281,0.058594 -0.214844,0.125 -0.3125,0.210937 -0.089844,0.082032 -0.167969,0.183594 -0.230469,0.300782 -0.039062,0.066406 -0.089843,0.078125 -0.15625,0.023437 l -1.347656,-1.0625 C 1.058594,-7.605469 1.042969,-7.625 1.035156,-7.652344 c -0.00391,-0.027344 0,-0.046875 0.019532,-0.074219 0.664062,-0.902343 1.652343,-1.34375 2.960937,-1.3125 0.542969,-0.00391 1.035156,0.042969 1.464844,0.148438 0.433594,0.101562 0.816406,0.265625 1.15625,0.492187 0.667969,0.46875 1.003906,1.25 1.011719,2.339844 v 6.0000002 c 0,0.0664063 -0.035157,0.1015626 -0.101563,0.1015626 H 5.84375 M 5.742188,-3.675781 H 3.789063 c -0.921875,0.023437 -1.390625,0.34375 -1.378907,0.957031 0,0.257812 0.113282,0.488281 0.351563,0.691406 0.242187,0.210938 0.625,0.316406 1.15625,0.316406 0.710937,0.00781 1.195312,-0.074218 1.46875,-0.25 h -0.00781 c 0.242188,-0.160156 0.363282,-0.550781 0.363282,-1.171875 v -0.542968"
                       id="path13047" /></g></g></g><path
                 id="rect31412"
                 style="opacity:1;fill:#0046aa;fill-rule:evenodd;stroke-width:0.213406;stroke-linecap:round;stroke-linejoin:round;paint-order:stroke fill markers;fill-opacity:1"
                 d="m 1398.5007,1341.2682 -0.1457,0.218 h -0.109 -0.1852 l 0.1848,0.1233 h 4e-4 v 0.094 h -0.086 c -0.054,0 -0.1036,-0.025 -0.1396,-0.066 0.036,0.093 0.1138,0.1605 0.2051,0.1684 v 0.068 h -0.099 c -0.06,0 -0.1138,-0.028 -0.1534,-0.072 0.038,0.1 0.12,0.1719 0.2164,0.1842 v 0.2534 l -0.088,0.1314 v 0.1581 h 0.7982 v -0.1581 l -0.087,-0.1314 v -0.2534 c 0.096,-0.012 0.178,-0.085 0.2164,-0.1842 -0.04,0.045 -0.094,0.072 -0.1535,0.072 h -0.099 v -0.068 c 0.091,-0.01 0.169,-0.075 0.2051,-0.1684 -0.036,0.041 -0.085,0.066 -0.1396,0.066 h -0.086 v -0.094 h 7e-4 l 0.1845,-0.1233 h -0.1852 -0.109 z m -0.1,0.3654 h 0.1991 v 0.07 0.021 h -0.1991 v -0.021 z m -0.048,0.1879 h 0.2955 v 0.053 0.021 h -0.2955 v -0.021 z m -0.095,0.1871 h 0.4848 v 0.2307 h -0.1629 v -0.116 c 0,-0.044 -0.035,-0.08 -0.08,-0.08 -0.044,0 -0.08,0.035 -0.08,0.08 v 0.116 h -0.1629 z m 0,0.2788 h 0.4848 v 0.097 h -0.4848 z" /></g></g></g></g></g></g></svg>
