<?xml version="1.0" encoding="UTF-8" standalone="no"?>
<svg
   xmlns:dc="http://purl.org/dc/elements/1.1/"
   xmlns:cc="http://creativecommons.org/ns#"
   xmlns:rdf="http://www.w3.org/1999/02/22-rdf-syntax-ns#"
   xmlns:svg="http://www.w3.org/2000/svg"
   xmlns="http://www.w3.org/2000/svg"
   xmlns:sodipodi="http://sodipodi.sourceforge.net/DTD/sodipodi-0.dtd"
   xmlns:inkscape="http://www.inkscape.org/namespaces/inkscape"
   sodipodi:docname="Vietnam_road_sign_IE474.svg"
   inkscape:version="1.0 (4035a4fb49, 2020-05-01)"
   id="svg9491"
   version="1.1"
   viewBox="0 0 173.91135 200"
   height="200mm"
   width="173.91135mm">
  <defs
     id="defs9485">
    <clipPath
       id="clipPath2832">
      <path
         inkscape:connector-curvature="0"
         id="path2834"
         d="M -0.24,595.138 H 317.24 V -0.138 H -0.24 Z" />
    </clipPath>
    <clipPath
       id="clipPath2840">
      <path
         inkscape:connector-curvature="0"
         id="path2842"
         d="M 0.03,595.32 H 317.49 V 0 H 0.03 Z" />
    </clipPath>
    <clipPath
       id="clipPath2858">
      <path
         inkscape:connector-curvature="0"
         id="path2860"
         d="M -0.24,595.138 H 317.24 V -0.138 H -0.24 Z" />
    </clipPath>
    <clipPath
       id="clipPath2864">
      <path
         inkscape:connector-curvature="0"
         id="path2866"
         d="M 0.03,595.32 H 317.49 V 0 H 0.03 Z" />
    </clipPath>
    <clipPath
       id="clipPath3306">
      <path
         inkscape:connector-curvature="0"
         id="path3308"
         d="m 199.238,472.977 v -29.74 h 29.744 v 29.74" />
    </clipPath>
    <clipPath
       id="clipPath3322">
      <path
         inkscape:connector-curvature="0"
         id="path3324"
         d="M -0.24,595.138 H 317.24 V -0.138 H -0.24 Z" />
    </clipPath>
    <clipPath
       id="clipPath3330">
      <path
         inkscape:connector-curvature="0"
         id="path3332"
         d="M 0.03,595.32 H 317.49 V 0 H 0.03 Z" />
    </clipPath>
    <clipPath
       id="clipPath3344">
      <path
         inkscape:connector-curvature="0"
         id="path3346"
         d="m 88.233,387.221 v -28.335 h 32.08 v 28.335" />
    </clipPath>
    <clipPath
       id="clipPath3462">
      <path
         inkscape:connector-curvature="0"
         id="path3464"
         d="M -0.24,595.138 H 317.24 V -0.138 H -0.24 Z" />
    </clipPath>
    <clipPath
       id="clipPath3470">
      <path
         inkscape:connector-curvature="0"
         id="path3472"
         d="M 0.03,595.32 H 317.49 V 0 H 0.03 Z" />
    </clipPath>
    <clipPath
       id="clipPath3490">
      <path
         inkscape:connector-curvature="0"
         id="path3492"
         d="M -0.24,595.138 H 317.24 V -0.138 H -0.24 Z" />
    </clipPath>
    <clipPath
       id="clipPath3496">
      <path
         inkscape:connector-curvature="0"
         id="path3498"
         d="M 0.03,595.32 H 317.49 V 0 H 0.03 Z" />
    </clipPath>
    <clipPath
       id="clipPath3520">
      <path
         inkscape:connector-curvature="0"
         id="path3522"
         d="m 254.788,326.215 v -28.309 h 28.326 v 28.309" />
    </clipPath>
    <clipPath
       id="clipPath3544">
      <path
         inkscape:connector-curvature="0"
         id="path3546"
         d="m 145.049,326.142 v -28.333 h 28.342 v 28.333" />
    </clipPath>
    <clipPath
       id="clipPath3682">
      <path
         inkscape:connector-curvature="0"
         id="path3684"
         d="M -0.24,595.138 H 317.24 V -0.138 H -0.24 Z" />
    </clipPath>
    <clipPath
       id="clipPath3690">
      <path
         inkscape:connector-curvature="0"
         id="path3692"
         d="M 0.03,595.32 H 317.49 V 0 H 0.03 Z" />
    </clipPath>
    <clipPath
       id="clipPath3980">
      <path
         inkscape:connector-curvature="0"
         id="path3982"
         d="M -0.24,595.138 H 317.24 V -0.138 H -0.24 Z" />
    </clipPath>
    <clipPath
       id="clipPath3988">
      <path
         inkscape:connector-curvature="0"
         id="path3990"
         d="M 0.03,595.32 H 317.49 V 0 H 0.03 Z" />
    </clipPath>
    <clipPath
       id="clipPath4010">
      <path
         inkscape:connector-curvature="0"
         id="path4012"
         d="M -0.24,595.138 H 317.24 V -0.138 H -0.24 Z" />
    </clipPath>
    <clipPath
       id="clipPath4016">
      <path
         inkscape:connector-curvature="0"
         id="path4018"
         d="M 0.03,595.32 H 317.49 V 0 H 0.03 Z" />
    </clipPath>
    <clipPath
       id="clipPath4062">
      <path
         inkscape:connector-curvature="0"
         id="path4064"
         d="m 200.163,177.773 v -28.284 h 28.283 v 28.284" />
    </clipPath>
    <clipPath
       id="clipPath4090">
      <path
         inkscape:connector-curvature="0"
         id="path4092"
         d="m 34.886,177.515 v -51.632 h 30.367 v 51.632" />
    </clipPath>
    <clipPath
       id="clipPath4106">
      <path
         inkscape:connector-curvature="0"
         id="path4108"
         d="m 34.886,177.515 v -51.632 h 30.367 v 51.632" />
    </clipPath>
    <clipPath
       id="clipPath4272">
      <path
         inkscape:connector-curvature="0"
         id="path4274"
         d="m 34.886,177.515 v -51.632 h 30.367 v 51.632" />
    </clipPath>
    <clipPath
       id="clipPath4304">
      <path
         inkscape:connector-curvature="0"
         id="path4306"
         d="m 254.653,176.442 v -48.167 h 28.317 v 48.167" />
    </clipPath>
    <clipPath
       id="clipPath4310">
      <path
         inkscape:connector-curvature="0"
         id="path4312"
         d="m 253.565,177.983 h 31.181 V 128.8 h -31.181 z" />
    </clipPath>
    <clipPath
       id="clipPath4316">
      <path
         inkscape:connector-curvature="0"
         id="path4318"
         d="M -0.24,595.138 H 317.24 V -0.138 H -0.24 Z" />
    </clipPath>
    <clipPath
       id="clipPath4322">
      <path
         inkscape:connector-curvature="0"
         id="path4324"
         d="M 0.03,595.32 H 317.49 V 0 H 0.03 Z" />
    </clipPath>
    <clipPath
       id="clipPath4456">
      <path
         inkscape:connector-curvature="0"
         id="path4458"
         d="M -0.24,595.138 H 317.24 V -0.138 H -0.24 Z" />
    </clipPath>
    <clipPath
       id="clipPath4464">
      <path
         inkscape:connector-curvature="0"
         id="path4466"
         d="M 0.03,595.32 H 317.49 V 0 H 0.03 Z" />
    </clipPath>
  </defs>
  <sodipodi:namedview
     inkscape:document-rotation="0"
     inkscape:measure-end="0,0"
     inkscape:measure-start="0,0"
     inkscape:window-maximized="1"
     inkscape:window-y="-9"
     inkscape:window-x="-9"
     inkscape:window-height="1001"
     inkscape:window-width="1920"
     showgrid="false"
     inkscape:current-layer="layer1"
     inkscape:document-units="mm"
     inkscape:cy="369.3026"
     inkscape:cx="229.10631"
     inkscape:zoom="0.74929012"
     inkscape:pageshadow="2"
     inkscape:pageopacity="0.0"
     borderopacity="1.0"
     bordercolor="#666666"
     pagecolor="#ffffff"
     id="base" />
  <metadata
     id="metadata9488">
    <rdf:RDF>
      <cc:Work
         rdf:about="">
        <dc:format>image/svg+xml</dc:format>
        <dc:type
           rdf:resource="http://purl.org/dc/dcmitype/StillImage" />
        <dc:title></dc:title>
      </cc:Work>
    </rdf:RDF>
  </metadata>
  <g
     transform="translate(-659.41058,-67.95787)"
     id="layer1"
     inkscape:groupmode="layer"
     inkscape:label="Layer 1">
    <g
       transform="matrix(1.6550836,0,0,1.6550836,-321.31659,-238.56049)"
       style="font-size:31.1478px;line-height:1.3;font-family:'Singapore Road Signs';-inkscape-font-specification:'Singapore Road Signs';text-align:center;text-anchor:middle;stroke-width:0.159861"
       id="text19759"
       aria-label="6" />
    <rect
       style="opacity:1;fill:#0a9646;fill-opacity:1;fill-rule:evenodd;stroke:none;stroke-width:0.794279;stroke-linecap:square;stroke-miterlimit:10;stroke-dasharray:none;stroke-opacity:1;paint-order:stroke fill markers"
       id="rect3429"
       width="173.91135"
       height="200"
       x="659.41058"
       y="67.95787" />
    <path
       id="path3454"
       style="color:#000000;font-style:normal;font-variant:normal;font-weight:normal;font-stretch:normal;font-size:medium;line-height:normal;font-family:sans-serif;font-variant-ligatures:normal;font-variant-position:normal;font-variant-caps:normal;font-variant-numeric:normal;font-variant-alternates:normal;font-variant-east-asian:normal;font-feature-settings:normal;font-variation-settings:normal;text-indent:0;text-align:start;text-decoration:none;text-decoration-line:none;text-decoration-style:solid;text-decoration-color:#000000;letter-spacing:normal;word-spacing:normal;text-transform:none;writing-mode:lr-tb;direction:ltr;text-orientation:mixed;dominant-baseline:auto;baseline-shift:baseline;text-anchor:start;white-space:normal;shape-padding:0;shape-margin:0;inline-size:0;clip-rule:nonzero;display:inline;overflow:visible;visibility:visible;opacity:1;isolation:auto;mix-blend-mode:normal;color-interpolation:sRGB;color-interpolation-filters:linearRGB;solid-color:#000000;solid-opacity:1;vector-effect:none;fill:#ffffff;fill-opacity:1;fill-rule:evenodd;stroke:none;stroke-width:1.007;stroke-linecap:square;stroke-linejoin:miter;stroke-miterlimit:10;stroke-dasharray:none;stroke-dashoffset:0;stroke-opacity:1;paint-order:stroke fill markers;color-rendering:auto;image-rendering:auto;shape-rendering:auto;text-rendering:auto;enable-background:accumulate;stop-color:#000000;stop-opacity:1"
       d="m 668.13173,69.597639 c -3.86802,0 -7.03562,3.16756 -7.03562,7.03558 v 113.431851 1.30569 9.97124 c 0,0.10047 0.0133,0.19759 0.0267,0.29339 -0.0134,0.16722 -0.0267,0.33344 -0.0267,0.50366 v 57.07122 c 0,3.86802 3.1676,7.03388 7.03562,7.03388 h 156.46466 c 3.86799,0 7.03559,-3.16586 7.03559,-7.03388 v -57.07122 c 0,-0.15854 -0.0167,-0.31308 -0.0267,-0.46915 0.02,-0.10647 0.03,-0.21562 0.03,-0.32777 V 190.0652 c 0,-0.0167 -0.003,-0.0354 -0.007,-0.0534 V 76.633219 c 0,-3.86802 -3.16756,-7.03558 -7.03558,-7.03558 z m 0,3.36168 h 156.46466 c 2.06404,0 3.67217,1.6098 3.67217,3.6739 V 191.37076 c 0,2.06407 -1.60813,3.67216 -3.67217,3.67216 H 668.13173 c -2.04571,0 -3.64209,-1.58116 -3.67046,-3.61869 v -1.35916 c 0,-0.0167 -0.003,-0.0354 -0.007,-0.0534 V 76.633219 c 0,-2.0641 1.61154,-3.6739 3.6756,-3.6739 z m 0,125.507411 h 156.46466 c 2.06404,0 3.67217,1.60806 3.67217,3.67216 v 57.07121 c 0,2.0641 -1.60813,3.6722 -3.67217,3.6722 H 668.13173 c -2.0641,0 -3.67564,-1.6081 -3.67564,-3.6722 v -57.07121 c 0,-2.0641 1.61154,-3.67216 3.67564,-3.67216 z" />
    <path
       id="path3474"
       style="font-style:normal;font-variant:normal;font-weight:normal;font-stretch:normal;font-size:32.1444px;line-height:1.3;font-family:Giaothong2;-inkscape-font-specification:Giaothong2;text-align:start;text-anchor:start;opacity:1;fill:#ffffff;stroke-width:0.264583"
       d="m 731.15535,88.943319 c -0.0741,0 -0.13517,0.0364 -0.18457,0.11048 l -3.86362,5.39701 c -0.0371,0.0861 -0.0421,0.16589 -0.0167,0.23965 0.037,0.0617 0.10481,0.0931 0.2036,0.0931 h 2.82701 c 0.0234,0 0.0561,-0.007 0.0931,-0.02 0.037,-0.0234 0.0604,-0.0427 0.0724,-0.0551 l 5.10205,-5.39702 c 0.0738,-0.0738 0.0855,-0.15353 0.0361,-0.23965 -0.0371,-0.0864 -0.1048,-0.1295 -0.2036,-0.1295 z m -8.66727,4.28795 -5.43323,4.30516 c -0.0865,0.0617 -0.11782,0.14286 -0.0931,0.24166 0.0367,0.0861 0.11182,0.1295 0.22263,0.1295 h 3.08572 c 0.54212,-0.32042 1.09105,-0.64702 1.64548,-0.9797 0.55444,-0.33277 1.10166,-0.66601 1.64378,-0.99868 l 3.67733,1.97838 h 3.12367 c 0.0985,0 0.15988,-0.0431 0.18458,-0.1295 0.0367,-0.0985 0.0133,-0.17991 -0.0724,-0.24166 l -5.50739,-4.30516 z m 1.09007,6.61646 c -2.14384,0 -3.93648,0.517381 -5.37802,1.552351 -1.42919,1.02262 -2.46403,2.13036 -3.10471,3.32547 h 0.02 c -0.23398,0.41893 -0.43144,0.84516 -0.59162,1.27636 -0.16021,0.43124 -0.28471,0.88063 -0.37082,1.34882 -0.0741,0.46819 -0.13518,1.21277 -0.18458,2.23539 -0.037,1.02262 -0.0551,2.341 -0.0551,3.95504 0,1.61404 0.0167,2.93906 0.0551,3.974 0.0494,1.02265 0.11048,1.7672 0.18458,2.23539 0.0861,0.46819 0.21061,0.91932 0.37082,1.35056 0.16021,0.41888 0.35754,0.83677 0.59162,1.25566 h -0.02 c 0.64068,1.20746 1.67552,2.3169 3.10471,3.3272 1.45389,1.02263 3.24653,1.53337 5.37802,1.53337 2.10686,0 3.88795,-0.51074 5.34181,-1.53337 1.45386,-1.03493 2.50689,-2.1444 3.15989,-3.3272 0.20961,-0.39426 0.38687,-0.8072 0.5347,-1.23841 0.16022,-0.43124 0.28471,-0.88727 0.37083,-1.36781 0.17256,-0.97332 0.25867,-3.04293 0.25867,-6.20939 0,-1.61404 -0.0234,-2.93242 -0.0741,-3.95504 -0.0371,-1.02262 -0.0985,-1.7672 -0.18458,-2.23539 -0.16021,-0.91171 -0.46866,-1.78737 -0.92453,-2.62518 -0.64068,-1.17048 -1.68877,-2.27821 -3.14262,-3.32547 -1.44155,-1.03497 -3.2209,-1.552351 -5.34008,-1.552351 z m 65.58329,0.405331 c -0.0985,0 -0.15988,0.0497 -0.18458,0.1482 l -9.68493,26.50203 c -0.0234,0.0741 -0.0167,0.14185 0.02,0.2036 0.0371,0.0617 0.0985,0.0915 0.18458,0.0915 l 4.23274,0.002 c 0.0371,0 0.0734,-0.0134 0.11048,-0.038 0.0491,-0.0371 0.0808,-0.0734 0.0931,-0.11048 0.34496,-0.98568 0.68324,-1.95246 1.01591,-2.90118 0.34499,-0.96101 0.68991,-1.94114 1.0349,-2.93909 h 9.75739 l 1.99735,5.84027 c 0.0234,0.0985 0.0861,0.14819 0.18458,0.14819 h 4.23103 c 0.0738,0 0.13017,-0.0334 0.16722,-0.0931 0.0371,-0.0617 0.0437,-0.12951 0.02,-0.2036 l -9.666,-26.50207 c -0.0133,-0.037 -0.0437,-0.0684 -0.0931,-0.0931 -0.0371,-0.037 -0.0734,-0.0551 -0.11048,-0.0551 z m -95.30041,0.038 c -0.14786,0 -0.22262,0.0728 -0.22262,0.22096 v 26.48478 c 0,0.14786 0.0748,0.22062 0.22262,0.22062 h 16.92749 c 0.14786,0 0.22262,-0.0728 0.22262,-0.22062 v -3.77046 c 0,-0.14787 -0.0748,-0.22263 -0.22262,-0.22263 h -12.69648 v -22.49182 c 0,-0.14786 -0.0728,-0.22096 -0.22063,-0.22096 z m 44.07634,0 c -0.14786,0 -0.22063,0.0728 -0.22063,0.22096 v 26.48478 c 0,0.14786 0.0731,0.22062 0.22063,0.22062 h 4.01024 c 0.14787,0 0.22263,-0.0728 0.22263,-0.22062 v -26.48478 c 0,-0.14786 -0.0744,-0.22096 -0.22263,-0.22096 z m 18.9076,0 c -0.14786,0 -0.22262,0.0728 -0.22262,0.22096 v 26.48478 c 0,0.14786 0.0748,0.22062 0.22262,0.22062 h 4.01025 c 0.14786,0 0.22062,-0.0728 0.22062,-0.22062 v -11.08892 h 4.78641 l 5.41597,11.18034 0.0915,0.0931 c 0.037,0.0234 0.0751,0.0364 0.11214,0.0364 h 4.76742 c 0.0861,0 0.14753,-0.03 0.18457,-0.0915 0.0371,-0.0741 0.0371,-0.15521 0,-0.24166 -0.99798,-1.90972 -2.00128,-3.82506 -3.01155,-5.74714 -1.01034,-1.93436 -2.0153,-3.85637 -3.01329,-5.7661 0.76388,-0.28338 1.44885,-0.65984 2.05255,-1.12803 0.60373,-0.48054 1.1327,-1.0344 1.58857,-1.66273 0.44352,-0.67767 0.78848,-1.404 1.03491,-2.18019 0.24632,-0.78855 0.36908,-1.62108 0.36912,-2.49584 0,-0.59142 -0.0731,-1.16351 -0.22063,-1.71794 -0.14786,-0.55444 -0.35186,-1.0785 -0.61061,-1.57132 -0.24632,-0.49281 -0.5349,-0.94889 -0.86758,-1.36781 -0.32042,-0.4312 -0.66034,-0.81261 -1.01765,-1.14528 -0.68994,-0.57907 -1.49588,-1.02356 -2.41993,-1.33156 -0.92406,-0.32043 -1.95883,-0.47951 -3.10472,-0.47951 z m 4.23104,4.01022 h 6.09901 c 0.55443,0 1.06518,0.0681 1.53336,0.2036 0.48051,0.13551 0.9001,0.3261 1.2574,0.57266 0.40657,0.30807 0.71505,0.70273 0.92453,1.18323 0.22162,0.4805 0.33277,1.02773 0.33277,1.64378 0,1.0842 -0.35824,2.02121 -1.07282,2.80975 -0.71461,0.78851 -1.7859,1.18323 -3.21509,1.18323 h -5.85926 z m -37.49786,0.02 c 0.44356,0 0.86315,0.0547 1.2574,0.16555 0.39429,0.0985 0.75744,0.23465 1.09011,0.40708 0.33278,0.16021 0.62783,0.35086 0.88658,0.57266 0.27102,0.22162 0.49819,0.44892 0.683,0.68303 0.23398,0.29573 0.43811,0.63571 0.61061,1.01765 0.17256,0.36962 0.30173,0.751 0.38808,1.14528 0.0985,0.40658 0.17323,1.04669 0.22263,1.92145 0.0491,0.86247 0.0724,1.96527 0.0724,3.30825 0,2.71055 -0.0978,4.46014 -0.29506,5.24865 -0.16021,0.78854 -0.49846,1.49665 -1.01591,2.12498 -0.38194,0.51748 -0.89936,0.96197 -1.55236,1.33159 -0.653,0.35731 -1.43577,0.53641 -2.34751,0.53641 -0.92405,0 -1.71343,-0.17923 -2.36646,-0.53641 -0.653,-0.36962 -1.17533,-0.81411 -1.56958,-1.33159 -0.22163,-0.28338 -0.4258,-0.60834 -0.61061,-0.97796 -0.17256,-0.38194 -0.30841,-0.76505 -0.40704,-1.14702 -0.0985,-0.41889 -0.16655,-1.05901 -0.2036,-1.92145 -0.0371,-0.87479 -0.0551,-1.98426 -0.0551,-3.3272 4e-5,-1.31835 0.0167,-2.4145 0.0551,-3.28926 0.0371,-0.87479 0.10514,-1.52151 0.2036,-1.94044 0.0985,-0.39428 0.23464,-0.77566 0.40704,-1.14528 0.17256,-0.38194 0.3765,-0.72196 0.61061,-1.01765 0.39425,-0.48053 0.91658,-0.90506 1.56958,-1.27465 0.65303,-0.36966 1.44241,-0.55367 2.36646,-0.5537 z m 67.28397,2.38373 c 0.0494,0.16021 0.0858,0.2827 0.11048,0.36912 0.0371,0.0861 0.0668,0.16588 0.0915,0.23965 0.0234,0.0614 0.0447,0.1295 0.0571,0.2036 0.0234,0.0614 0.0544,0.15454 0.0915,0.2777 0.0738,0.23398 0.14185,0.45634 0.2036,0.66578 0.0738,0.20961 0.14185,0.40017 0.2036,0.57266 0.12316,0.38194 0.23932,0.75176 0.35017,1.10907 0.12316,0.35727 0.24098,0.71381 0.35186,1.07112 0.0614,0.17256 0.12283,0.3516 0.18458,0.53641 0.0614,0.17256 0.12283,0.35654 0.18458,0.55367 0.0738,0.20961 0.14853,0.43167 0.22263,0.66578 0.0861,0.23397 0.17256,0.47459 0.25867,0.72099 0.13551,0.38194 0.28972,0.83133 0.46225,1.34882 0.17256,0.50516 0.36321,1.05903 0.57265,1.66273 0.0234,0.0738 0.0561,0.16188 0.0931,0.26035 0.0494,0.0985 0.0858,0.18958 0.11048,0.27603 h -7.0977 c 0.27102,-0.77623 0.49332,-1.41631 0.66578,-1.92145 0.17256,-0.51748 0.33831,-0.99842 0.49849,-1.44197 0.16022,-0.44356 0.30274,-0.86805 0.42603,-1.27466 0.13552,-0.40657 0.26502,-0.79462 0.38809,-1.16424 0.0614,-0.17256 0.12282,-0.35163 0.18457,-0.53644 0.0614,-0.18491 0.12283,-0.3755 0.18458,-0.57263 0.0614,-0.18491 0.12283,-0.37059 0.18458,-0.5554 0.0741,-0.18491 0.14185,-0.38044 0.2036,-0.58988 0.0234,-0.0617 0.0427,-0.12483 0.0551,-0.18625 0.0134,-0.0617 0.03,-0.12783 0.0551,-0.20193 0.0985,-0.29573 0.2046,-0.61749 0.31575,-0.96248 0.12316,-0.34499 0.25267,-0.71972 0.38808,-1.12632 z m -69.38652,40.76117 c -0.11281,0 -0.16889,0.0577 -0.16889,0.1709 v 20.23229 c 0,0.11282 0.0561,0.16889 0.16889,0.16889 h 12.93276 c 0.11282,0 0.1709,-0.0561 0.1709,-0.16889 v -2.88048 c 0,-0.11282 -0.0578,-0.16889 -0.1709,-0.16889 h -9.69871 v -5.61951 h 8.24469 c 0.11281,0 0.16889,-0.0517 0.16889,-0.15521 v -2.73902 c 0,-0.11282 -0.0561,-0.1709 -0.16889,-0.1709 h -8.24469 v -5.42114 h 9.69871 c 0.11282,0 0.1709,-0.0561 0.1709,-0.16889 v -2.90805 c 0,-0.11282 -0.0578,-0.1709 -0.1709,-0.1709 z m 14.41613,0 c -0.0658,0 -0.11315,0.03 -0.14152,0.0861 -0.0267,0.0471 -0.0234,0.10313 0.0134,0.16889 0.9601,1.6378 1.916,3.26572 2.86669,4.88473 0.95066,1.61898 1.91093,3.2469 2.88045,4.88471 l -6.14213,10.29379 c -0.0377,0.0658 -0.0421,0.1265 -0.0134,0.18291 0.0267,0.0471 0.0798,0.0708 0.1552,0.0708 h 3.46002 c 0.0564,4e-5 0.10213,-0.0267 0.13951,-0.0844 0.71539,-1.22366 1.43207,-2.438 2.14745,-3.64283 0.71535,-1.20482 1.43029,-2.4192 2.14567,-3.64285 l 4.29139,7.28568 c 0.0377,0.0564 0.0848,0.0844 0.14152,0.0844 h 3.4738 c 0.0754,4e-5 0.12683,-0.0234 0.1552,-0.0708 0.0267,-0.0564 0.0234,-0.11715 -0.0134,-0.18291 -1.0354,-1.72251 -2.06226,-3.43628 -3.07884,-5.14 -1.01658,-1.7131 -2.04171,-3.43125 -3.07708,-5.15379 l 5.74541,-9.76944 c 0.0377,-0.0658 0.0437,-0.12183 0.0167,-0.16889 -0.0267,-0.0564 -0.0754,-0.0861 -0.14152,-0.0861 h -3.4738 c -0.0564,0 -0.1038,0.03 -0.14152,0.0861 -0.64946,1.13894 -1.29959,2.27184 -1.94905,3.40137 -0.64949,1.12012 -1.29785,2.24597 -1.94734,3.3755 l -3.8964,-6.77687 c -0.0377,-0.0564 -0.0848,-0.0861 -0.14152,-0.0861 z m 17.72954,0 c -0.11281,0 -0.16889,0.0577 -0.16889,0.1709 v 20.23229 c 0,0.11282 0.0561,0.16889 0.16889,0.16889 h 3.06503 c 0.11281,0 0.16922,-0.0561 0.16922,-0.16889 v -20.23229 c 0,-0.11282 -0.0561,-0.1709 -0.16922,-0.1709 z m 5.46771,0 c -0.11282,0 -0.16889,0.0577 -0.16889,0.1709 v 2.72524 c 0,0.11282 0.0561,0.16889 0.16889,0.16889 h 5.37976 v 17.33799 c 0,0.11282 0.0561,0.16889 0.16889,0.16889 h 3.06329 c 0.11281,0 0.17089,-0.0561 0.17089,-0.16889 v -17.33799 h 5.36424 c 0.11281,0 0.16889,-0.0561 0.16889,-0.16889 v -2.72524 c 0,-0.11282 -0.0561,-0.1709 -0.16889,-0.1709 z" />
    <path
       sodipodi:nodetypes="ccsccccccscc"
       d="m 767.09935,210.92025 -5.10062,27.42382 c -0.10113,1.07969 -0.75947,1.8914 -1.63106,2.0194 -1.14258,0.16756 -2.03252,-0.39338 -2.83672,-1.33243 l -3.0918,-6.73235 -20.78535,20.45199 -8.41335,-8.72405 20.48046,-20.47495 -7.07584,-3.13505 c -1.13744,-1.05984 -1.29738,-1.53948 -1.25589,-2.35002 0.0444,-0.89565 0.97442,-1.87034 1.87995,-2.12554 z"
       style="font-size:32.1444px;line-height:1.3;font-family:'Singapore Road Signs';-inkscape-font-specification:'Singapore Road Signs';text-align:center;text-anchor:middle;opacity:1;fill:#ffffff;fill-rule:evenodd;stroke-width:0.119062;stroke-linecap:square;stroke-miterlimit:10;paint-order:stroke fill markers"
       id="path8825" />
  </g>
</svg>
