<?xml version="1.0" encoding="UTF-8" standalone="no"?>
<svg
   xmlns:dc="http://purl.org/dc/elements/1.1/"
   xmlns:cc="http://creativecommons.org/ns#"
   xmlns:rdf="http://www.w3.org/1999/02/22-rdf-syntax-ns#"
   xmlns:svg="http://www.w3.org/2000/svg"
   xmlns="http://www.w3.org/2000/svg"
   xmlns:sodipodi="http://sodipodi.sourceforge.net/DTD/sodipodi-0.dtd"
   xmlns:inkscape="http://www.inkscape.org/namespaces/inkscape"
   width="96.637077mm"
   height="64.834549mm"
   viewBox="0 0 96.637071 64.834548"
   version="1.1"
   id="svg8"
   inkscape:version="1.0 (4035a4fb49, 2020-05-01)"
   sodipodi:docname="Vietnam_road_sign_IE472a.svg">
  <defs
     id="defs2" />
  <sodipodi:namedview
     id="base"
     pagecolor="#ffffff"
     bordercolor="#666666"
     borderopacity="1.0"
     inkscape:pageopacity="0.0"
     inkscape:pageshadow="2"
     inkscape:zoom="1.8290108"
     inkscape:cx="302.95655"
     inkscape:cy="133.22485"
     inkscape:document-units="mm"
     inkscape:current-layer="layer1"
     inkscape:document-rotation="0"
     showgrid="false"
     inkscape:window-width="1920"
     inkscape:window-height="1001"
     inkscape:window-x="-9"
     inkscape:window-y="-9"
     inkscape:window-maximized="1" />
  <metadata
     id="metadata5">
    <rdf:RDF>
      <cc:Work
         rdf:about="">
        <dc:format>image/svg+xml</dc:format>
        <dc:type
           rdf:resource="http://purl.org/dc/dcmitype/StillImage" />
        <dc:title></dc:title>
      </cc:Work>
    </rdf:RDF>
  </metadata>
  <g
     inkscape:label="Layer 1"
     inkscape:groupmode="layer"
     id="layer1"
     transform="translate(-560.9825,-333.35581)">
    <path
       d="m 560.9825,333.35581 h 96.63708 v 64.83455 H 560.9825 Z"
       style="opacity:1;fill:#028f45;fill-opacity:1;fill-rule:evenodd;stroke:none;stroke-width:0.794277;stroke-linecap:square;stroke-miterlimit:10;stroke-dasharray:none;stroke-opacity:1;paint-order:stroke fill markers"
       id="rect3429" />
    <path
       d="m 645.60756,340.97973 c -0.0239,0 -0.044,0.0118 -0.0599,0.0357 l -1.24954,1.74614 c -0.012,0.0279 -0.0142,0.0536 -0.006,0.0775 0.012,0.0199 0.0343,0.03 0.0662,0.03 h 0.91467 c 0.008,0 0.018,-0.002 0.03,-0.006 0.012,-0.008 0.0198,-0.0136 0.0238,-0.0176 l 1.65003,-1.74615 c 0.0239,-0.0239 0.0283,-0.0496 0.0124,-0.0775 -0.012,-0.0279 -0.0342,-0.0419 -0.0661,-0.0419 z m -57.49675,2.64842 c -0.0319,0 -0.052,0.0162 -0.0599,0.0481 l -3.13314,8.57415 c -0.008,0.0239 -0.006,0.0457 0.006,0.0656 0.012,0.0199 0.032,0.03 0.0599,0.03 h 1.36891 c 0.012,0 0.0237,-0.004 0.0357,-0.0119 0.016,-0.012 0.026,-0.0242 0.03,-0.0362 0.11161,-0.31889 0.22156,-0.63152 0.32918,-0.93845 0.11161,-0.31091 0.22326,-0.62798 0.33486,-0.95084 h 3.15692 l 0.64544,1.88929 c 0.008,0.0319 0.028,0.0481 0.0599,0.0481 h 1.36891 c 0.0239,0 0.0423,-0.01 0.0543,-0.03 0.012,-0.0199 0.0136,-0.0417 0.006,-0.0656 l -3.12695,-8.57415 c -0.004,-0.012 -0.014,-0.022 -0.03,-0.03 -0.012,-0.012 -0.0237,-0.0181 -0.0357,-0.0181 z m -16.64911,0.0124 c -0.0478,0 -0.0718,0.0235 -0.0718,0.0713 v 1.15393 c 0,0.0478 0.024,0.0718 0.0718,0.0718 h 2.2779 v 7.34218 c 0,0.0478 0.024,0.0718 0.0718,0.0718 h 1.29759 c 0.0478,0 0.0718,-0.024 0.0718,-0.0718 v -7.34218 h 2.27222 c 0.0478,0 0.0713,-0.024 0.0713,-0.0718 v -1.15393 c 0,-0.0478 -0.0235,-0.0713 -0.0713,-0.0713 z m 6.96133,0 c -0.0478,0 -0.0718,0.0235 -0.0718,0.0713 v 8.56795 c 0,0.0478 0.024,0.0718 0.0718,0.0718 h 1.2976 c 0.0478,0 0.0718,-0.024 0.0718,-0.0718 v -3.58738 h 1.54822 l 1.75184,3.61736 0.03,0.03 c 0.012,0.008 0.0242,0.0119 0.0362,0.0119 h 1.54254 c 0.0279,0 0.0475,-0.01 0.0594,-0.03 0.012,-0.0239 0.012,-0.0496 0,-0.0775 -0.32287,-0.61783 -0.64776,-1.2375 -0.97462,-1.85932 -0.32685,-0.62581 -0.65123,-1.24768 -0.9741,-1.86552 0.24714,-0.0917 0.46821,-0.21336 0.66353,-0.36483 0.19531,-0.15546 0.3667,-0.33467 0.51418,-0.53795 0.1435,-0.21924 0.25514,-0.45478 0.33486,-0.7059 0.0797,-0.25511 0.11937,-0.52419 0.11937,-0.80719 0,-0.19133 -0.024,-0.37667 -0.0718,-0.55604 -0.0478,-0.17937 -0.11318,-0.34853 -0.19688,-0.50798 -0.0797,-0.15944 -0.1735,-0.30683 -0.28112,-0.44235 -0.10364,-0.13951 -0.21358,-0.26341 -0.32918,-0.37104 -0.22322,-0.18734 -0.48395,-0.33081 -0.7829,-0.43046 -0.29895,-0.10363 -0.63389,-0.15503 -1.00459,-0.15503 z m 14.98049,0 c -0.0478,0 -0.0713,0.0235 -0.0713,0.0713 v 8.56795 c 0,0.0478 0.0235,0.0718 0.0713,0.0718 h 1.29759 c 0.0478,0 0.0718,-0.024 0.0718,-0.0718 v -5.06997 l 1.6862,3.88038 c 0.016,0.0239 0.0377,0.0357 0.0656,0.0357 h 1.08211 c 0.0279,0 0.0497,-0.0118 0.0656,-0.0357 0.27502,-0.64573 0.55414,-1.28941 0.83715,-1.93115 0.28301,-0.64175 0.56434,-1.28763 0.84336,-1.93735 v 5.05809 c 0,0.0478 0.024,0.0718 0.0718,0.0718 h 1.29708 c 0.0478,0 0.0718,-0.024 0.0718,-0.0718 v -8.56795 c 0,-0.0478 -0.024,-0.0713 -0.0718,-0.0713 h -1.22576 c -0.0319,0 -0.0537,0.014 -0.0656,0.0419 -0.39064,0.91279 -0.78139,1.81939 -1.17202,2.72024 -0.39063,0.89686 -0.77918,1.80177 -1.16582,2.71456 l -2.39727,-5.4348 c -0.016,-0.0279 -0.0382,-0.0419 -0.0661,-0.0419 z m 11.22618,0 c -0.0478,0 -0.0718,0.0235 -0.0718,0.0713 v 1.15393 c 0,0.0478 0.024,0.0718 0.0718,0.0718 h 2.2779 v 7.34218 c 0,0.0478 0.024,0.0718 0.0718,0.0718 h 1.29759 c 0.0478,0 0.0713,-0.024 0.0713,-0.0718 v -7.34218 h 2.27221 c 0.0478,0 0.0718,-0.024 0.0718,-0.0718 v -1.15393 c 0,-0.0478 -0.024,-0.0713 -0.0718,-0.0713 z m 6.96082,0 c -0.0478,0 -0.0713,0.0235 -0.0713,0.0713 v 8.56795 c 0,0.0478 0.0235,0.0718 0.0713,0.0718 h 1.29759 c 0.0478,0 0.0718,-0.024 0.0718,-0.0718 v -3.67109 h 3.25872 v 3.67109 c 0,0.0478 0.024,0.0718 0.0718,0.0718 h 1.29708 c 0.0478,0 0.0718,-0.024 0.0718,-0.0718 v -8.56795 c 0,-0.0478 -0.024,-0.0713 -0.0718,-0.0713 h -1.29708 c -0.0478,0 -0.0718,0.0235 -0.0718,0.0713 v 3.59978 h -3.25872 v -3.59978 c 0,-0.0478 -0.024,-0.0713 -0.0718,-0.0713 z m 7.72666,0 c -0.0478,0 -0.0718,0.0235 -0.0718,0.0713 v 5.66839 c 0,0.91679 0.30311,1.65422 0.90899,2.21227 0.60587,0.55405 1.34331,0.83095 2.21227,0.83095 0.86496,0 1.59849,-0.2769 2.20038,-0.83095 0.60986,-0.55805 0.91467,-1.29548 0.91467,-2.21227 v -5.66839 c 0,-0.0478 -0.024,-0.0713 -0.0718,-0.0713 h -1.2976 c -0.0478,0 -0.0713,0.0235 -0.0713,0.0713 v 5.52473 c 0,0.57 -0.16186,1.00484 -0.48472,1.30379 -0.32287,0.29895 -0.71925,0.44804 -1.18959,0.44804 -0.47833,0 -0.87913,-0.14909 -1.202,-0.44804 -0.31888,-0.29496 -0.47801,-0.72981 -0.47801,-1.30379 v -5.52473 c 0,-0.0478 -0.0223,-0.0713 -0.0661,-0.0713 z m 10.70581,0 c -0.0478,0 -0.0718,0.0235 -0.0718,0.0713 v 8.56795 c 0,0.0478 0.024,0.0718 0.0718,0.0718 h 1.29759 c 0.0478,0 0.0713,-0.024 0.0713,-0.0718 v -3.27628 h 1.90738 c 0.89686,0 1.58069,-0.28303 2.05104,-0.84905 0.47035,-0.57 0.70538,-1.16788 0.70538,-1.79369 0,-0.23916 -0.024,-0.46415 -0.0718,-0.67541 -0.0478,-0.21125 -0.11539,-0.40494 -0.20309,-0.58032 -0.0917,-0.1714 -0.19549,-0.32661 -0.31109,-0.46613 -0.11161,-0.14349 -0.23499,-0.26909 -0.37052,-0.37672 -0.35077,-0.27105 -0.6818,-0.44243 -0.9927,-0.51418 -0.30693,-0.0717 -0.63182,-0.10748 -0.97462,-0.10748 z m 7.21247,0 c -0.0478,0 -0.0718,0.0235 -0.0718,0.0713 v 8.56795 c 0,0.0478 0.024,0.0718 0.0718,0.0718 h 1.29708 c 0.0478,0 0.0718,-0.024 0.0718,-0.0718 v -3.67109 h 3.25872 v 3.67109 c 0,0.0478 0.024,0.0718 0.0718,0.0718 h 1.29708 c 0.0478,0 0.0718,-0.024 0.0718,-0.0718 v -8.56795 c 0,-0.0478 -0.024,-0.0713 -0.0718,-0.0713 h -1.29708 c -0.0478,0 -0.0718,0.0235 -0.0718,0.0713 v 3.59978 h -3.25872 v -3.59978 c 0,-0.0478 -0.024,-0.0713 -0.0718,-0.0713 z m 7.86361,0 c -0.0478,0 -0.0713,0.0235 -0.0713,0.0713 v 8.56795 c 0,0.0478 0.0235,0.0718 0.0713,0.0718 h 1.29759 c 0.0478,0 0.0718,-0.024 0.0718,-0.0718 v -8.56795 c 0,-0.0478 -0.024,-0.0713 -0.0718,-0.0713 z m -65.30661,1.29708 h 1.973 c 0.17937,0 0.34463,0.0223 0.4961,0.0661 0.15545,0.0438 0.2911,0.10528 0.40669,0.185 0.13154,0.0997 0.23093,0.22747 0.29869,0.38292 0.0718,0.15546 0.10801,0.33245 0.10801,0.53176 0,0.35077 -0.11556,0.65388 -0.34675,0.90898 -0.23119,0.25511 -0.57839,0.38293 -1.04077,0.38293 h -1.89497 z m 51.59943,0.078 h 1.81178 c 0.36273,0 0.65801,0.0754 0.88522,0.22686 0.35077,0.2272 0.52605,0.58835 0.52606,1.08262 0,0.33084 -0.11386,0.62952 -0.34106,0.89658 -0.22322,0.27504 -0.56377,0.41238 -1.02216,0.41238 h -1.85984 z m -42.73124,0.69918 1.14825,3.40806 h -2.29598 z m -0.59169,7.70702 c -0.0438,0 -0.0661,0.0223 -0.0661,0.0662 v 1.15393 c 0,0.0439 0.0223,0.0656 0.0661,0.0656 h 1.15962 c 0.0399,0 0.0599,-0.0218 0.0599,-0.0656 v -1.15393 c 0,-0.0439 -0.0201,-0.0662 -0.0599,-0.0662 z m 4.01215,5.33611 c -0.52194,0 -0.95799,0.12578 -1.30896,0.37776 -0.34796,0.24897 -0.60005,0.5188 -0.75602,0.80976 h 0.004 c -0.057,0.102 -0.10466,0.20559 -0.14366,0.31058 -0.039,0.10499 -0.0689,0.21467 -0.0899,0.32866 -0.018,0.11399 -0.0329,0.29518 -0.045,0.54415 -0.009,0.24898 -0.0139,0.57029 -0.0139,0.96325 0,0.39296 0.005,0.71541 0.0139,0.96739 0.012,0.24897 0.0269,0.43017 0.045,0.54415 0.021,0.11399 0.0509,0.22367 0.0899,0.32866 0.039,0.10199 0.0867,0.20394 0.14366,0.30593 h -0.004 c 0.15597,0.29397 0.40806,0.56379 0.75602,0.80977 0.35396,0.24897 0.79002,0.37362 1.30896,0.37362 0.51295,0 0.94674,-0.12465 1.3007,-0.37362 0.35396,-0.25198 0.61048,-0.5218 0.76946,-0.80977 0.051,-0.096 0.0942,-0.19629 0.13023,-0.30128 0.039,-0.10499 0.0689,-0.21632 0.0899,-0.33331 0.042,-0.23697 0.0631,-0.74062 0.0631,-1.51154 0,-0.39296 -0.006,-0.71427 -0.0181,-0.96325 -0.009,-0.24897 -0.0239,-0.43016 -0.045,-0.54415 -0.039,-0.22198 -0.1138,-0.43525 -0.22479,-0.63924 -0.15598,-0.28496 -0.41085,-0.55479 -0.76481,-0.80976 -0.35096,-0.25198 -0.78475,-0.37776 -1.3007,-0.37776 z m 28.01483,0.045 c -0.024,0 -0.039,0.0122 -0.045,0.0362 l -2.35799,6.45232 c -0.006,0.018 -0.004,0.0341 0.005,0.0491 0.009,0.015 0.024,0.0227 0.045,0.0227 h 1.03043 c 0.009,0 0.0179,-0.003 0.0269,-0.009 0.012,-0.009 0.0196,-0.0179 0.0227,-0.0269 0.084,-0.23998 0.16654,-0.47545 0.24753,-0.70642 0.084,-0.23397 0.16767,-0.47223 0.25166,-0.7152 h 2.37609 l 0.48576,1.42162 c 0.006,0.024 0.021,0.0362 0.0449,0.0362 h 1.03043 c 0.018,0 0.0318,-0.008 0.0408,-0.0227 0.009,-0.015 0.0101,-0.0311 0.004,-0.0491 l -2.35334,-6.45231 c -0.003,-0.009 -0.0102,-0.0168 -0.0222,-0.0227 -0.009,-0.009 -0.0179,-0.0134 -0.0269,-0.0134 z m 10.52959,0 c -0.024,0 -0.0389,0.0122 -0.045,0.0362 l -2.35799,6.45232 c -0.006,0.018 -0.004,0.0341 0.005,0.0491 0.009,0.015 0.0239,0.0227 0.0449,0.0227 h 1.03043 c 0.009,0 0.0179,-0.003 0.0269,-0.009 0.012,-0.009 0.0196,-0.0179 0.0227,-0.0269 0.084,-0.23998 0.16602,-0.47545 0.24701,-0.70642 0.084,-0.23397 0.1682,-0.47223 0.25218,-0.7152 h 2.37557 l 0.48628,1.42162 c 0.006,0.024 0.021,0.0362 0.0449,0.0362 h 1.03043 c 0.018,0 0.0313,-0.008 0.0403,-0.0227 0.009,-0.015 0.0106,-0.0311 0.005,-0.0491 l -2.35334,-6.45231 c -0.003,-0.009 -0.0108,-0.0168 -0.0227,-0.0227 -0.009,-0.009 -0.0179,-0.0134 -0.0269,-0.0134 z m -45.86645,0.009 c -0.036,0 -0.0537,0.0182 -0.0537,0.0543 v 0.86816 c 0,0.036 0.0178,0.0543 0.0537,0.0543 h 1.71462 v 5.52525 c 0,0.036 0.0178,0.0543 0.0537,0.0543 h 0.97668 c 0.036,0 0.0538,-0.0183 0.0538,-0.0543 v -5.52525 h 1.70997 c 0.036,0 0.0537,-0.0182 0.0537,-0.0543 v -0.86816 c 0,-0.036 -0.0178,-0.0543 -0.0537,-0.0543 z m 10.81071,0 c -0.036,0 -0.0543,0.0182 -0.0543,0.0543 v 6.44767 c 0,0.036 0.0182,0.0543 0.0543,0.0543 h 4.1212 c 0.036,0 0.0543,-0.0183 0.0543,-0.0543 v -0.91777 c 0,-0.036 -0.0182,-0.0543 -0.0543,-0.0543 h -3.09077 v -5.47564 c 0,-0.036 -0.0183,-0.0543 -0.0543,-0.0543 z m 5.08548,0 c -0.036,0 -0.0543,0.0182 -0.0543,0.0543 v 6.44767 c 0,0.036 0.0182,0.0543 0.0543,0.0543 h 4.12171 c 0.036,0 0.0537,-0.0183 0.0537,-0.0543 v -0.91777 c 0,-0.036 -0.0177,-0.0543 -0.0537,-0.0543 h -3.09128 v -5.47564 c 0,-0.036 -0.0183,-0.0543 -0.0543,-0.0543 z m 7.25537,0 c -0.036,0 -0.0537,0.0182 -0.0537,0.0543 v 6.44767 c 0,0.036 0.0177,0.0543 0.0537,0.0543 h 0.97668 c 0.036,0 0.0537,-0.0183 0.0537,-0.0543 v -2.46548 h 1.43557 c 0.67493,0 1.18961,-0.21328 1.54357,-0.63924 0.35397,-0.42895 0.53072,-0.87884 0.53072,-1.34979 0,-0.17998 -0.0183,-0.34951 -0.0543,-0.5085 -0.036,-0.15898 -0.087,-0.30416 -0.15296,-0.43614 -0.069,-0.12899 -0.14659,-0.24641 -0.23358,-0.3514 -0.084,-0.10799 -0.17706,-0.2022 -0.27905,-0.28319 -0.26397,-0.20398 -0.51327,-0.33306 -0.74724,-0.38706 -0.23098,-0.054 -0.47532,-0.0811 -0.73329,-0.0811 z m 5.4808,0 c -0.036,0 -0.0537,0.0182 -0.0537,0.0543 v 6.44767 c 0,0.036 0.0178,0.0543 0.0537,0.0543 h 4.12172 c 0.036,0 0.0537,-0.0183 0.0537,-0.0543 v -0.91777 c 0,-0.036 -0.0178,-0.0543 -0.0537,-0.0543 h -3.09129 v -5.47564 c 0,-0.036 -0.0182,-0.0543 -0.0543,-0.0543 z m 10.44433,0 c -0.036,0 -0.0543,0.0182 -0.0543,0.0543 v 0.86816 c 0,0.036 0.0183,0.0543 0.0543,0.0543 h 2.71766 l -2.89336,4.69739 v 0.82786 c 0,0.036 0.0182,0.0543 0.0543,0.0543 h 4.12584 c 0.036,0 0.0543,-0.0183 0.0543,-0.0543 v -0.91777 c 0,-0.036 -0.0183,-0.0543 -0.0543,-0.0543 h -2.84375 l 2.89801,-4.72891 v -0.74673 c 0,-0.036 -0.0183,-0.0543 -0.0543,-0.0543 z m -31.75466,1.03508 c 0.10799,0 0.20994,0.0133 0.30593,0.0403 0.096,0.024 0.18462,0.0572 0.26562,0.0992 0.081,0.039 0.15302,0.0855 0.216,0.13952 0.066,0.054 0.12141,0.10941 0.1664,0.1664 0.057,0.072 0.10683,0.15454 0.14883,0.24753 0.042,0.09 0.0731,0.18307 0.0941,0.27905 0.024,0.099 0.0423,0.2547 0.0543,0.46767 0.012,0.20998 0.0181,0.47868 0.0181,0.80564 0,0.65993 -0.0243,1.08598 -0.0724,1.27796 -0.039,0.19198 -0.12154,0.3643 -0.24753,0.51728 -0.093,0.12599 -0.21877,0.23402 -0.37775,0.32401 -0.15899,0.087 -0.34956,0.13023 -0.57155,0.13023 -0.22497,0 -0.41669,-0.0432 -0.57567,-0.13023 -0.15898,-0.09 -0.28642,-0.19802 -0.38241,-0.32401 -0.054,-0.069 -0.10383,-0.14875 -0.14882,-0.23874 -0.042,-0.093 -0.0747,-0.18555 -0.0987,-0.27854 -0.024,-0.10199 -0.0406,-0.25821 -0.0496,-0.46819 -0.009,-0.21298 -0.0134,-0.4828 -0.0134,-0.80977 0,-0.32097 0.004,-0.58801 0.0134,-0.80098 0.009,-0.21298 0.0256,-0.37034 0.0496,-0.47233 0.024,-0.096 0.0567,-0.18906 0.0987,-0.27905 0.042,-0.093 0.0918,-0.17554 0.14882,-0.24753 0.096,-0.11699 0.22343,-0.22059 0.38241,-0.31058 0.15898,-0.09 0.3507,-0.13487 0.57567,-0.13487 z m 16.85996,0 h 1.36374 c 0.27297,0 0.49461,0.0571 0.66559,0.17105 0.26397,0.17098 0.39636,0.44246 0.39636,0.81442 0,0.24897 -0.0858,0.47392 -0.25683,0.67489 -0.16798,0.20698 -0.4245,0.31058 -0.76946,0.31058 h -1.3994 z m 22.09839,0.52658 0.86352,2.5647 h -1.72755 z m -10.52236,0.0217 0.8568,2.543 h -1.72806 z m -11.44581,20.38221 c -0.63464,0 -1.19717,0.21637 -1.68775,0.64855 -0.49447,0.42439 -0.74156,1.02993 -0.74156,1.81642 v 3.67316 c 0,0.78649 0.24709,1.39204 0.74156,1.81642 0.49058,0.42829 1.05311,0.64234 1.68775,0.64234 0.63464,0 1.19717,-0.21405 1.68775,-0.64234 0.49837,-0.42828 0.74776,-1.03383 0.74776,-1.81642 v -3.67316 c 0,-0.38935 -0.0643,-0.73425 -0.19275,-1.03405 -0.12459,-0.30369 -0.30972,-0.56434 -0.55501,-0.78237 -0.24529,-0.21026 -0.51004,-0.37003 -0.79426,-0.47905 -0.28033,-0.11291 -0.57811,-0.1695 -0.89349,-0.1695 z m -13.81673,0.076 c -0.0467,0 -0.0703,0.0236 -0.0703,0.0703 v 2.38849 c 0,0.0467 0.0235,0.0703 0.0703,0.0703 h 1.19115 c 0.0428,0 0.0646,-0.0236 0.0646,-0.0703 v -1.12707 h 2.04381 l -2.78588,7.02592 c -0.008,0.0234 -0.005,0.0446 0.006,0.0641 0.0117,0.0195 0.0311,0.0294 0.0584,0.0294 h 1.33739 c 0.0273,0 0.0485,-0.0159 0.0641,-0.047 l 2.81481,-7.13651 v -1.19734 c 0,-0.0467 -0.0212,-0.0703 -0.0641,-0.0703 z m 5.80327,0 c -0.0428,0 -0.0641,0.0236 -0.0641,0.0703 v 4.49689 c 0,0.0428 0.0213,0.0641 0.0641,0.0641 h 1.12706 c 0.0234,0 0.0428,-0.0113 0.0584,-0.0346 0.24529,-0.43607 0.5825,-0.65421 1.01079,-0.65421 0.46722,0 0.77089,0.13799 0.91105,0.41444 0.074,0.14796 0.13005,0.31719 0.16898,0.50797 0.0389,0.1869 0.0584,0.39147 0.0584,0.6134 0,0.37379 -0.0502,0.76296 -0.15141,1.1679 -0.0818,0.36599 -0.39952,0.54932 -0.9524,0.54932 -0.61128,0 -0.98459,-0.30598 -1.12086,-0.91726 -0.008,-0.035 -0.0314,-0.0522 -0.0703,-0.0522 h -1.19166 c -0.0195,0 -0.0366,0.008 -0.0522,0.0233 -0.0156,0.0156 -0.0215,0.0332 -0.0176,0.0527 0.0856,0.79038 0.38932,1.36059 0.91104,1.711 0.51006,0.33874 1.03956,0.50798 1.58854,0.50798 0.4244,0 0.79822,-0.0973 1.12137,-0.29197 0.3076,-0.19078 0.55289,-0.39896 0.73589,-0.62477 0.18688,-0.24529 0.32131,-0.50236 0.40307,-0.77101 l -0.006,0.006 c 0.0467,-0.14406 0.0797,-0.32099 0.0992,-0.53124 0.0234,-0.21024 0.0351,-0.45554 0.0351,-0.73587 0,-0.68915 -0.0566,-1.18562 -0.1695,-1.48931 -0.0545,-0.14795 -0.12466,-0.29185 -0.21032,-0.43202 -0.0857,-0.14406 -0.18475,-0.27849 -0.29766,-0.40307 -0.0779,-0.0818 -0.17337,-0.15961 -0.28628,-0.23358 -0.10902,-0.0779 -0.22757,-0.14803 -0.35606,-0.21032 -0.13237,-0.0623 -0.27448,-0.1089 -0.42633,-0.14005 -0.14795,-0.035 -0.30362,-0.0527 -0.46715,-0.0527 -0.46333,0 -0.88375,0.13264 -1.26142,0.3974 v -1.67639 h 3.23546 c 0.0467,0 0.0698,-0.0236 0.0698,-0.0703 v -1.19114 c 0,-0.0467 -0.023,-0.0703 -0.0698,-0.0703 z m 8.01346,1.25574 c 0.33484,0 0.6019,0.10728 0.80047,0.32142 0.20246,0.21024 0.30334,0.50394 0.30334,0.8816 v 3.53364 c 0,0.38155 -0.10088,0.67755 -0.30334,0.88779 -0.19857,0.21026 -0.46563,0.31523 -0.80047,0.31523 -0.33484,0 -0.60138,-0.10497 -0.79995,-0.31523 -0.19857,-0.21024 -0.29765,-0.50624 -0.29765,-0.88779 v -3.53364 c 0,-0.37766 0.0991,-0.67136 0.29765,-0.8816 0.19857,-0.21414 0.46511,-0.32142 0.79995,-0.32142 z m 8.95966,1.98076 c -0.53022,0 -0.95466,0.17263 -1.27279,0.51728 v -0.40308 c 0,-0.0398 -0.0197,-0.0594 -0.0594,-0.0594 h -1.01389 c -0.0398,0 -0.0599,0.0196 -0.0599,0.0594 v 5.04051 c 0,0.0398 0.0202,0.06 0.0599,0.06 h 1.01389 c 0.0398,0 0.0594,-0.0202 0.0594,-0.06 v -3.00239 c 0,-0.33137 0.0866,-0.58319 0.2589,-0.75551 0.17895,-0.17895 0.40738,-0.2682 0.68575,-0.2682 0.26842,0 0.49232,0.0892 0.67127,0.2682 0.17895,0.17895 0.2682,0.43076 0.2682,0.75551 v 3.0024 c 0,0.0398 0.0183,0.06 0.0548,0.06 h 1.01389 c 0.0365,0 0.0548,-0.0202 0.0548,-0.06 v -3.0024 c 0,-0.32806 0.0879,-0.57988 0.26355,-0.75551 0.17895,-0.17895 0.40738,-0.2682 0.68575,-0.2682 0.26842,0 0.49233,0.0892 0.67127,0.2682 0.17564,0.17563 0.26355,0.42745 0.26355,0.75551 v 3.0024 c 0,0.0398 0.0197,0.06 0.0594,0.06 h 1.01389 c 0.0398,0 0.06,-0.0202 0.06,-0.06 v -3.35018 c 0,-0.58987 -0.18912,-1.03902 -0.56689,-1.3472 -0.3811,-0.30488 -0.77208,-0.45734 -1.17306,-0.45734 -0.65614,0 -1.18816,0.21063 -1.59577,0.63149 -0.0829,-0.0862 -0.17024,-0.16399 -0.26303,-0.23358 -0.0928,-0.0729 -0.18894,-0.13931 -0.28835,-0.19896 -0.22203,-0.13255 -0.51049,-0.19895 -0.86507,-0.19895 z"
       style="font-style:normal;font-variant:normal;font-weight:normal;font-stretch:normal;font-size:34.7105px;line-height:1.3;font-family:Giaothong2;-inkscape-font-specification:Giaothong2;text-align:start;letter-spacing:-0.165px;text-anchor:start;opacity:1;fill:#ffffff;fill-opacity:1;stroke-width:0.264582"
       id="path13584-0" />
    <path
       sodipodi:nodetypes="ssccscsssssscsscssscssssscscsscsssssssss"
       d="m 563.75259,333.88122 c -1.24093,0 -2.25704,1.0162 -2.25704,2.25711 v 36.15227 0.41891 3.19884 c 0,0.0331 0.004,0.0635 0.009,0.0942 -0.004,0.0537 -0.009,0.10696 -0.009,0.1616 v 19.23528 c 0,1.2409 1.01611,2.25657 2.25704,2.25657 h 91.08665 c 1.24089,0 2.2571,-1.01567 2.2571,-2.25657 v -19.23528 c 0,-0.0509 -0.006,-0.10041 -0.009,-0.15047 0.007,-0.0351 0.01,-0.0692 0.01,-0.10524 v -3.61776 c 0,-0.006 -8e-4,-0.0118 -0.002,-0.0177 v -36.13464 c 0,-1.24091 -1.0162,-2.25711 -2.25708,-2.25711 z m 0,1.07854 h 91.08665 c 0.66217,0 1.17807,0.51644 1.17807,1.17864 v 36.57111 c 0,0.6622 -0.5159,1.17805 -1.17807,1.17805 h -91.08665 c -0.65616,0 -1.16837,-0.50722 -1.17739,-1.16091 v -0.43605 c 0,-0.006 -7e-4,-0.0118 -0.002,-0.0177 v -36.1345 c 0,-0.6622 0.51687,-1.17864 1.17909,-1.17864 z m 0,40.02627 h 91.08665 c 0.66217,0 1.17807,0.51584 1.17807,1.17804 v 19.23535 c 0,0.66215 -0.5159,1.17809 -1.17807,1.17809 h -91.08665 c -0.66239,0 -1.17913,-0.51594 -1.17913,-1.17809 v -19.23535 c 0,-0.6622 0.51674,-1.17804 1.17913,-1.17804 z"
       style="color:#000000;font-style:normal;font-variant:normal;font-weight:normal;font-stretch:normal;font-size:medium;line-height:normal;font-family:sans-serif;font-variant-ligatures:normal;font-variant-position:normal;font-variant-caps:normal;font-variant-numeric:normal;font-variant-alternates:normal;font-variant-east-asian:normal;font-feature-settings:normal;font-variation-settings:normal;text-indent:0;text-align:start;text-decoration:none;text-decoration-line:none;text-decoration-style:solid;text-decoration-color:#000000;letter-spacing:normal;word-spacing:normal;text-transform:none;writing-mode:lr-tb;direction:ltr;text-orientation:mixed;dominant-baseline:auto;baseline-shift:baseline;text-anchor:start;white-space:normal;shape-padding:0;shape-margin:0;inline-size:0;clip-rule:nonzero;display:inline;overflow:visible;visibility:visible;opacity:1;isolation:auto;mix-blend-mode:normal;color-interpolation:sRGB;color-interpolation-filters:linearRGB;solid-color:#000000;solid-opacity:1;vector-effect:none;fill:#ffffff;fill-opacity:1;fill-rule:evenodd;stroke:none;stroke-width:1.00701;stroke-linecap:square;stroke-linejoin:miter;stroke-miterlimit:10;stroke-dasharray:none;stroke-dashoffset:0;stroke-opacity:1;paint-order:stroke fill markers;color-rendering:auto;image-rendering:auto;shape-rendering:auto;text-rendering:auto;enable-background:accumulate;stop-color:#000000;stop-opacity:1"
       id="path3454" />
  </g>
</svg>
