<?xml version="1.0" encoding="UTF-8" standalone="no"?>
<svg
   sodipodi:docname="Vietnam_road_sign_I444.svg"
   inkscape:version="1.2.2 (732a01da63, 2022-12-09)"
   id="svg848"
   version="1.1"
   viewBox="0 0 2117.9321 500"
   height="500mm"
   width="2117.9321mm"
   xml:space="preserve"
   xmlns:inkscape="http://www.inkscape.org/namespaces/inkscape"
   xmlns:sodipodi="http://sodipodi.sourceforge.net/DTD/sodipodi-0.dtd"
   xmlns="http://www.w3.org/2000/svg"
   xmlns:svg="http://www.w3.org/2000/svg"
   xmlns:rdf="http://www.w3.org/1999/02/22-rdf-syntax-ns#"
   xmlns:cc="http://creativecommons.org/ns#"
   xmlns:dc="http://purl.org/dc/elements/1.1/"><defs
     id="defs842"><clipPath
       clipPathUnits="userSpaceOnUse"
       id="clipPath92633"><g
         id="g92639"
         transform="matrix(0.99999998,0,0,-0.99999998,472.81977,521.37449)"><g
           id="g92637"><path
             clip-rule="nonzero"
             d="m -458.81977,519.39402 h 424 V 151.37449 h -424 z m 0,0"
             id="path92635" /></g></g></clipPath><clipPath
       clipPathUnits="userSpaceOnUse"
       id="clipPath92693"><g
         id="g92699"
         transform="matrix(0.99999998,0,0,-0.99999998,472.81977,521.37449)"><g
           id="g92697"><path
             clip-rule="nonzero"
             d="m -445.81977,519.39402 h 424 V 151.37449 h -424 z m 0,0"
             id="path92695" /></g></g></clipPath><clipPath
       clipPathUnits="userSpaceOnUse"
       id="clipPath92618"><g
         id="g92624"
         transform="matrix(0.99999998,0,0,-0.99999998,472.81977,521.37449)"><g
           id="g92622"><path
             clip-rule="nonzero"
             d="m -433.81977,519.39402 h 423 V 151.37449 h -423 z m 0,0"
             id="path92620" /></g></g></clipPath><clipPath
       clipPathUnits="userSpaceOnUse"
       id="clipPath92603"><g
         id="g92609"
         transform="matrix(0.99999998,0,0,-0.99999998,472.81977,521.37449)"><g
           id="g92607"><path
             clip-rule="nonzero"
             d="m -414.81977,519.39402 h 424 V 151.37449 h -424 z m 0,0"
             id="path92605" /></g></g></clipPath><clipPath
       clipPathUnits="userSpaceOnUse"
       id="clipPath92755"><g
         id="g92761"
         transform="matrix(0.99999998,0,0,-0.99999998,472.81977,521.37449)"><g
           id="g92759"><path
             clip-rule="nonzero"
             d="m -402.81977,519.39402 h 424 V 151.37449 h -424 z m 0,0"
             id="path92757" /></g></g></clipPath><clipPath
       clipPathUnits="userSpaceOnUse"
       id="clipPath92740"><g
         id="g92746"
         transform="matrix(0.99999998,0,0,-0.99999998,472.81977,521.37449)"><g
           id="g92744"><path
             clip-rule="nonzero"
             d="m -385.81977,519.39402 h 424 V 151.37449 h -424 z m 0,0"
             id="path92742" /></g></g></clipPath><clipPath
       clipPathUnits="userSpaceOnUse"
       id="clipPath92709"><g
         id="g92715"
         transform="matrix(0.99999998,0,0,-0.99999998,472.81977,521.37449)"><g
           id="g92713"><path
             clip-rule="nonzero"
             d="m -372.81977,519.39402 h 424 V 151.37449 h -424 z m 0,0"
             id="path92711" /></g></g></clipPath><clipPath
       clipPathUnits="userSpaceOnUse"
       id="clipPath92785"><g
         id="g92791"
         transform="matrix(0.99999998,0,0,-0.99999998,472.81977,521.37449)"><g
           id="g92789"><path
             clip-rule="nonzero"
             d="m -358.81977,519.39402 h 424 V 151.37449 h -424 z m 0,0"
             id="path92787" /></g></g></clipPath><clipPath
       clipPathUnits="userSpaceOnUse"
       id="clipPath92725"><g
         id="g92731"
         transform="matrix(0.99999998,0,0,-0.99999998,472.81977,521.37449)"><g
           id="g92729"><path
             clip-rule="nonzero"
             d="m -345.81977,519.39402 h 424 V 151.37449 h -424 z m 0,0"
             id="path92727" /></g></g></clipPath><clipPath
       clipPathUnits="userSpaceOnUse"
       id="clipPath92770"><g
         id="g92776"
         transform="matrix(0.99999998,0,0,-0.99999998,472.81977,521.37449)"><g
           id="g92774"><path
             clip-rule="nonzero"
             d="m -333.81977,519.39402 h 424 V 151.37449 h -424 z m 0,0"
             id="path92772" /></g></g></clipPath><clipPath
       id="clip-0"><path
         clip-rule="nonzero"
         d="M 34,1.980469 H 458 V 378 H 34 Z m 0,0"
         id="path14613" /></clipPath><clipPath
       id="clip-1"><path
         clip-rule="nonzero"
         d="M 46,1.980469 H 469 V 378 H 46 Z m 0,0"
         id="path14616" /></clipPath><clipPath
       id="clip-2"><path
         clip-rule="nonzero"
         d="M 59,1.980469 H 483 V 378 H 59 Z m 0,0"
         id="path14619" /></clipPath><clipPath
       id="clip-3"><path
         clip-rule="nonzero"
         d="M 73,1.980469 H 497 V 378 H 73 Z m 0,0"
         id="path14622" /></clipPath><clipPath
       id="clip-5"><path
         clip-rule="nonzero"
         d="M 91,1.980469 H 515 V 378 H 91 Z m 0,0"
         id="path14628" /></clipPath><clipPath
       id="clip-6"><path
         clip-rule="nonzero"
         d="M 105,1.980469 H 529 V 378 H 105 Z m 0,0"
         id="path14631" /></clipPath><clipPath
       id="clip-7"><path
         clip-rule="nonzero"
         d="M 119,1.980469 H 543 V 378 H 119 Z m 0,0"
         id="path14634" /></clipPath><clipPath
       id="clip-8"><path
         clip-rule="nonzero"
         d="M 131,1.980469 H 555 V 378 H 131 Z m 0,0"
         id="path14637" /></clipPath><clipPath
       id="clip-9"><path
         clip-rule="nonzero"
         d="M 146,1.980469 H 570 V 378 H 146 Z m 0,0"
         id="path14640" /></clipPath></defs><sodipodi:namedview
     inkscape:document-rotation="0"
     inkscape:measure-end="0,0"
     inkscape:measure-start="0,0"
     showguides="false"
     fit-margin-bottom="0"
     fit-margin-right="0"
     fit-margin-left="0"
     fit-margin-top="0"
     inkscape:window-maximized="1"
     inkscape:window-y="-9"
     inkscape:window-x="-9"
     inkscape:window-height="991"
     inkscape:window-width="1920"
     inkscape:snap-global="false"
     showgrid="false"
     inkscape:current-layer="g24312"
     inkscape:document-units="mm"
     inkscape:cy="1886.9747"
     inkscape:cx="5736.9462"
     inkscape:zoom="0.18415721"
     inkscape:pageshadow="2"
     inkscape:pageopacity="0.0"
     borderopacity="1.0"
     bordercolor="#666666"
     pagecolor="#ffffff"
     id="base"
     inkscape:showpageshadow="2"
     inkscape:pagecheckerboard="0"
     inkscape:deskcolor="#d1d1d1" /><metadata
     id="metadata845"><rdf:RDF><cc:Work
         rdf:about=""><dc:format>image/svg+xml</dc:format><dc:type
           rdf:resource="http://purl.org/dc/dcmitype/StillImage" /></cc:Work></rdf:RDF></metadata><g
     transform="translate(-530.52646,11.947886)"
     id="layer1"
     inkscape:groupmode="layer"
     inkscape:label="Layer 1"><path
       inkscape:connector-curvature="0"
       d=""
       style="opacity:1;fill:#d35f5f;fill-opacity:1;fill-rule:nonzero;stroke:none;stroke-width:3.92256;stroke-linecap:butt;stroke-linejoin:miter;stroke-miterlimit:4;stroke-dasharray:none;stroke-opacity:1;paint-order:stroke fill markers"
       id="path8376"
       r="150"
       cy="147"
       cx="150" /><g
       inkscape:groupmode="layer"
       transform="translate(-4496.0426,2396.6803)"
       id="text3577"
       style="font-style:normal;font-variant:normal;font-weight:bold;font-stretch:normal;font-size:299.854px;line-height:0;font-family:Giaothong1;-inkscape-font-specification:'Giaothong1 Bold';letter-spacing:0px;word-spacing:0px;fill:#ffcc00;fill-opacity:1;stroke:none;stroke-width:1.56174"
       aria-label="VỊNH"><g
         id="text3665"
         style="font-style:normal;font-variant:normal;font-weight:bold;font-stretch:normal;font-size:299.854px;line-height:0;font-family:Giaothong1;-inkscape-font-specification:'Giaothong1 Bold';letter-spacing:-2.78077px;word-spacing:0px;fill:#ffcc00;fill-opacity:1;stroke:none;stroke-width:2.43903"
         aria-label="VỊNH" /></g><g
       inkscape:groupmode="layer"
       id="text2719"
       style="font-style:normal;font-variant:normal;font-weight:bold;font-stretch:normal;font-size:184.173px;line-height:0;font-family:Giaothong1;-inkscape-font-specification:'Giaothong1 Bold';letter-spacing:0px;word-spacing:0.486833px;fill:#ffffff;fill-opacity:1;stroke:none;stroke-width:0.959232"
       aria-label="CÔNG TRƯỜNG"><g
         inkscape:groupmode="layer"
         id="text2888"
         style="font-style:normal;font-variant:normal;font-weight:bold;font-stretch:normal;font-size:187.408px;line-height:0;font-family:Giaothong1;-inkscape-font-specification:'Giaothong1 Bold';letter-spacing:0.00264583px;word-spacing:0px;fill:#ffffff;fill-opacity:1;stroke:none;stroke-width:0.936293"
         aria-label="AHEAD"><g
           inkscape:groupmode="layer"
           id="text2903"
           style="font-style:normal;font-variant:normal;font-weight:bold;font-stretch:normal;font-size:184.173px;line-height:0;font-family:Giaothong1;-inkscape-font-specification:'Giaothong1 Bold';letter-spacing:0.00529167px;word-spacing:0px;fill:#ffffff;fill-opacity:1;stroke:none;stroke-width:0.898123"
           aria-label="WORKS"><path
             d="m 708.33916,-11.947699 1940.11954,-1.87e-4 V 488.05211 H 708.33916 L 530.52646,238.0523 Z"
             style="opacity:1;fill:#0046aa;fill-opacity:1;fill-rule:nonzero;stroke:none;stroke-width:1.27163;stroke-linecap:butt;stroke-linejoin:miter;stroke-miterlimit:10;stroke-dasharray:none;stroke-opacity:1;paint-order:stroke fill markers"
             id="rect1393"
             sodipodi:nodetypes="cccccc" /><path
             id="rect1395"
             style="opacity:1;fill:#ffffff;fill-opacity:1;fill-rule:nonzero;stroke:none;stroke-width:1.22924;stroke-linecap:butt;stroke-linejoin:miter;stroke-miterlimit:10;stroke-dasharray:none;stroke-opacity:1;paint-order:stroke fill markers"
             d="M 710.47731,-3.6148361 540.46021,238.0523 710.47731,479.72219 H 2640.1209 V -3.6148361 Z m 8.3265,8.33846 h 68.59 V 471.38374 h -68.59 L 554.2984,238.0523 Z m 536.58179,0 H 2631.7943 V 471.38374 H 1255.3856 Z"
             sodipodi:nodetypes="ccccccccccccccccc" /><g
             id="g71683"
             transform="translate(-84.093397,-614.59523)" /><g
             inkscape:label="Layer 1"
             id="layer1-9"
             transform="matrix(22.4714,0,0,22.4714,769.38022,-2850.5363)"><g
               id="g24312"
               transform="translate(-0.84541361)"><g
                 aria-label="GA TÀU ĐIỆNG NGẦM"
                 transform="scale(0.94329549,1.0601132)"
                 id="text18017"
                 style="font-size:7.08963px;font-family:BywayEModified;-inkscape-font-specification:BywayEModified;text-align:center;letter-spacing:-0.229781px;text-anchor:middle;fill-rule:evenodd;stroke-width:6.69885;stroke-linecap:round;stroke-linejoin:round;paint-order:stroke fill markers"><path
                   d="m 28.14769,125.65928 q -0.04154,0 -0.04154,-0.0415 v -0.71312 q 0,-0.0381 0.04154,-0.0381 h 1.762022 q 0.04154,0 0.04154,0.0381 v 1.01083 q 0,0.76504 -0.526184,1.28084 -0.533107,0.52272 -1.284303,0.52272 -0.59888,0 -1.007364,-0.28732 -0.401561,-0.28386 -0.581572,-0.62311 h 0.0035 q -0.06577,-0.1177 -0.110775,-0.2354 -0.045,-0.12116 -0.06924,-0.25271 -0.02077,-0.13154 -0.03462,-0.41887 -0.01039,-0.29078 -0.01039,-0.74427 0,-0.45349 0.01039,-0.74081 0.01385,-0.28732 0.03462,-0.41887 0.02423,-0.13155 0.06924,-0.25271 0.045,-0.12116 0.110775,-0.23886 h -0.0035 q 0.180011,-0.33578 0.581572,-0.62311 0.405023,-0.29078 1.007364,-0.29078 0.720041,0 1.190836,0.4431 0.47772,0.4431 0.591957,1.05929 0.0069,0.0208 -0.0069,0.0346 -0.01385,0.0138 -0.03462,0.0138 h -0.792737 q -0.03116,0 -0.03808,-0.0277 -0.045,-0.13847 -0.128084,-0.25617 -0.08308,-0.12116 -0.204242,-0.22501 -0.228475,-0.20424 -0.57811,-0.20424 -0.25963,0 -0.443102,0.10385 -0.183472,0.10385 -0.294247,0.23886 -0.06577,0.0831 -0.114237,0.19039 -0.04847,0.10385 -0.07616,0.21463 -0.02769,0.1177 -0.03808,0.36348 -0.01039,0.24579 -0.01039,0.61619 0,0.37733 0.01039,0.62311 0.01039,0.24232 0.03808,0.36002 0.02769,0.10732 0.07616,0.21463 0.05193,0.10385 0.114237,0.18347 0.110775,0.1454 0.294247,0.24925 0.183472,0.10039 0.443102,0.10039 0.411946,0 0.692347,-0.2804 0.283862,-0.2804 0.283862,-0.73389 v -0.21463 z"
                   style="font-weight:normal;font-family:Giaothong2;-inkscape-font-specification:Giaothong2"
                   id="path24316" /><path
                   d="m 30.019181,127.67401 q -0.02423,0 -0.03462,-0.0173 -0.01039,-0.0173 -0.0035,-0.0381 l 1.813948,-4.96412 q 0.0069,-0.0277 0.03462,-0.0277 h 0.619651 q 0.01038,0 0.02077,0.0104 0.01385,0.007 0.01731,0.0173 l 1.810486,4.96412 q 0.0069,0.0208 -0.0035,0.0381 -0.01039,0.0173 -0.03116,0.0173 h -0.792737 q -0.02769,0 -0.03462,-0.0277 l -0.373867,-1.09391 h -1.827796 q -0.09693,0.2804 -0.193857,0.55042 -0.09347,0.26655 -0.190395,0.54349 -0.0035,0.0104 -0.01731,0.0208 -0.01038,0.007 -0.02077,0.007 z m 2.793619,-1.86587 q -0.0069,-0.0242 -0.02077,-0.0519 -0.01038,-0.0277 -0.01731,-0.0485 -0.05885,-0.16963 -0.107314,-0.31156 -0.04846,-0.14539 -0.08654,-0.25271 -0.02423,-0.0692 -0.04847,-0.135 -0.02077,-0.0658 -0.04154,-0.12463 -0.01731,-0.0554 -0.03462,-0.10385 -0.01731,-0.0519 -0.03462,-0.10039 -0.03116,-0.10039 -0.06577,-0.20078 -0.03116,-0.10039 -0.06577,-0.2077 -0.01731,-0.0485 -0.03808,-0.10732 -0.01731,-0.0588 -0.03808,-0.12462 -0.01038,-0.0346 -0.01731,-0.0519 -0.0035,-0.0208 -0.01038,-0.0381 -0.0069,-0.0208 -0.01731,-0.045 -0.0069,-0.0242 -0.02077,-0.0692 -0.03808,0.11424 -0.0727,0.21116 -0.03115,0.0969 -0.05885,0.18001 -0.0069,0.0208 -0.01038,0.0381 -0.0035,0.0173 -0.01039,0.0346 -0.01731,0.0588 -0.03808,0.11078 -0.01731,0.0519 -0.03462,0.10385 -0.01731,0.0554 -0.03462,0.10731 -0.01731,0.0519 -0.03462,0.10039 -0.03462,0.10385 -0.0727,0.21809 -0.03462,0.11424 -0.07962,0.23886 -0.045,0.12462 -0.09347,0.27002 -0.04846,0.14193 -0.124622,0.36002 z"
                   style="font-weight:normal;font-family:Giaothong2;-inkscape-font-specification:Giaothong2"
                   id="path24318" /><path
                   d="m 37.019655,127.67747 q -0.04154,0 -0.04154,-0.0415 v -4.25101 h -1.31892 q -0.04154,0 -0.04154,-0.0415 v -0.66811 q 0,-0.0415 0.04154,-0.0415 h 3.468657 q 0.04154,0 0.04154,0.0415 v 0.66811 q 0,0.0415 -0.04154,0.0415 h -1.315459 v 4.25101 q 0,0.0415 -0.04154,0.0415 z"
                   style="font-weight:normal;font-family:Giaothong2;-inkscape-font-specification:Giaothong2"
                   id="path24320" /><path
                   d="m 38.99846,127.67401 q -0.02423,0 -0.03462,-0.0173 -0.01039,-0.0173 -0.0035,-0.0381 l 1.813948,-4.96412 q 0.0069,-0.0277 0.03462,-0.0277 h 0.619651 q 0.01038,0 0.02077,0.0104 0.01385,0.007 0.01731,0.0173 l 1.810486,4.96412 q 0.0069,0.0208 -0.0035,0.0381 -0.01039,0.0173 -0.03116,0.0173 h -0.792737 q -0.02769,0 -0.03462,-0.0277 l -0.373867,-1.09391 h -1.827796 q -0.09693,0.2804 -0.193857,0.55042 -0.09347,0.26655 -0.190395,0.54349 -0.0035,0.0104 -0.01731,0.0208 -0.01038,0.007 -0.02077,0.007 z m 2.793619,-1.86587 q -0.0069,-0.0242 -0.02077,-0.0519 -0.01038,-0.0277 -0.01731,-0.0485 -0.05885,-0.16963 -0.107314,-0.31156 -0.04846,-0.14539 -0.08654,-0.25271 -0.02423,-0.0692 -0.04846,-0.135 -0.02077,-0.0658 -0.04154,-0.12463 -0.01731,-0.0554 -0.03462,-0.10385 -0.01731,-0.0519 -0.03462,-0.10039 -0.03116,-0.10039 -0.06577,-0.20078 -0.03116,-0.10039 -0.06577,-0.2077 -0.01731,-0.0485 -0.03808,-0.10732 -0.01731,-0.0588 -0.03808,-0.12462 -0.01038,-0.0346 -0.01731,-0.0519 -0.0035,-0.0208 -0.01038,-0.0381 -0.0069,-0.0208 -0.01731,-0.045 -0.0069,-0.0242 -0.02077,-0.0692 -0.03808,0.11424 -0.0727,0.21116 -0.03116,0.0969 -0.05885,0.18001 -0.0069,0.0208 -0.01038,0.0381 -0.0035,0.0173 -0.01038,0.0346 -0.01731,0.0588 -0.03808,0.11078 -0.01731,0.0519 -0.03462,0.10385 -0.01731,0.0554 -0.03462,0.10731 -0.01731,0.0519 -0.03462,0.10039 -0.03462,0.10385 -0.0727,0.21809 -0.03462,0.11424 -0.07962,0.23886 -0.045,0.12462 -0.09347,0.27002 -0.04847,0.14193 -0.124623,0.36002 z m -0.456949,-3.62098 q -0.0069,0 -0.01731,-0.003 -0.01038,-0.007 -0.01385,-0.0104 l -0.955438,-1.01083 q -0.02077,-0.0208 -0.01038,-0.045 0.01385,-0.0242 0.04154,-0.0242 h 0.761581 q 0.02077,0 0.03462,0.0208 l 0.723503,1.01082 q 0.01038,0.0242 0,0.045 -0.0069,0.0173 -0.03462,0.0173 z"
                   style="font-weight:normal;font-family:Giaothong2;-inkscape-font-specification:Giaothong2"
                   id="path24322" /><path
                   d="m 43.542409,122.67527 q 0,-0.0415 0.04154,-0.0415 h 0.754657 q 0.03808,0 0.03808,0.0415 v 3.19864 q 0,0.49849 0.276939,0.75466 0.280401,0.25963 0.695809,0.25963 0.408484,0 0.688885,-0.25963 0.2804,-0.25963 0.2804,-0.75466 v -3.19864 q 0,-0.0415 0.04154,-0.0415 h 0.751196 q 0.04154,0 0.04154,0.0415 v 3.28172 q 0,0.7962 -0.529645,1.28084 -0.522722,0.48118 -1.273918,0.48118 -0.754658,0 -1.280842,-0.48118 -0.526183,-0.48464 -0.526183,-1.28084 z"
                   style="font-weight:normal;font-family:Giaothong2;-inkscape-font-specification:Giaothong2"
                   id="path24324" /><path
                   d="m 49.376279,127.67747 q -0.03808,0 -0.03808,-0.0415 v -2.13243 h -0.363482 q -0.03808,0 -0.03808,-0.0381 v -0.71312 q 0,-0.0415 0.03808,-0.0415 H 49.3382 v -2.0355 q 0,-0.0415 0.03808,-0.0415 h 1.73779 q 1.035058,0 1.547395,0.85505 0.09347,0.16616 0.152316,0.31501 0.05885,0.14886 0.07616,0.29079 0.04154,0.27694 0.04154,1.06275 0,0.42233 -0.01385,0.70619 -0.01385,0.28041 -0.04154,0.42234 -0.02769,0.14539 -0.08654,0.28386 -0.05539,0.13501 -0.141931,0.27001 v -0.003 q -0.231936,0.35656 -0.623112,0.59888 -0.405023,0.24232 -0.9589,0.24232 z m 0.796198,-4.24754 v 1.28084 h 0.903513 q 0.04154,0 0.04154,0.0415 v 0.71312 q 0,0.0381 -0.04154,0.0381 h -0.903513 v 1.3847 h 0.85851 q 0.595418,0 0.886204,-0.41541 0.121161,-0.18347 0.145393,-0.38425 0.01731,-0.11078 0.02423,-0.33233 0.01038,-0.22501 0.01038,-0.57119 0,-0.33578 -0.01038,-0.5608 -0.0069,-0.22501 -0.02423,-0.35655 -0.03808,-0.24579 -0.18001,-0.43964 -0.294248,-0.3981 -0.851587,-0.3981 z"
                   style="font-weight:normal;font-family:Giaothong2;-inkscape-font-specification:Giaothong2"
                   id="path24326" /><path
                   d="m 53.60521,127.67747 q -0.04154,0 -0.04154,-0.0415 v -4.96066 q 0,-0.0415 0.04154,-0.0415 h 0.751196 q 0.04154,0 0.04154,0.0415 v 4.96066 q 0,0.0415 -0.04154,0.0415 z"
                   style="font-weight:normal;font-family:Giaothong2;-inkscape-font-specification:Giaothong2"
                   id="path24328" /><path
                   d="m 55.21361,127.67747 q -0.04154,0 -0.04154,-0.0415 v -4.96066 q 0,-0.0415 0.04154,-0.0415 h 3.170948 q 0.04154,0 0.04154,0.0415 v 0.71312 q 0,0.0415 -0.04154,0.0415 h -2.378211 v 1.3293 H 58.028 q 0.04154,0 0.04154,0.0415 v 0.67158 q 0,0.0381 -0.04154,0.0381 h -2.021653 v 1.37777 h 2.378211 q 0.04154,0 0.04154,0.0415 v 0.70619 q 0,0.0415 -0.04154,0.0415 z m 0.356559,-5.49031 q -0.03116,0 -0.03808,-0.0277 -0.0069,-0.0277 0.01385,-0.045 l 1.017749,-0.80659 h 0.467334 l 1.031597,0.80659 q 0.02423,0.0173 0.01385,0.045 -0.0069,0.0277 -0.03808,0.0277 h -0.581571 l -0.692347,-0.37386 q -0.152316,0.0935 -0.308094,0.18693 -0.155778,0.0935 -0.308095,0.18693 z m 0.896589,6.85424 q -0.03808,0 -0.03808,-0.0381 v -0.66812 q 0,-0.0381 0.03808,-0.0381 h 0.671576 q 0.03462,0 0.03462,0.0381 v 0.66812 q 0,0.0381 -0.03462,0.0381 z"
                   style="font-weight:normal;font-family:Giaothong2;-inkscape-font-specification:Giaothong2"
                   id="path24330" /><path
                   d="m 58.923283,127.67747 q -0.04154,0 -0.04154,-0.0415 v -4.96066 q 0,-0.0415 0.04154,-0.0415 H 59.6364 q 0.02077,0 0.03462,0.0208 l 2.180892,3.43404 v -3.41327 q 0,-0.0415 0.04154,-0.0415 h 0.754657 q 0.04154,0 0.04154,0.0415 v 4.96066 q 0,0.0415 -0.04154,0.0415 h -0.709655 q -0.02077,0 -0.03462,-0.0208 l -2.187816,-3.43404 v 3.41327 q 0,0.0415 -0.03808,0.0415 z"
                   style="font-weight:normal;font-family:Giaothong2;-inkscape-font-specification:Giaothong2"
                   id="path24332" /><path
                   d="m 65.149635,125.65928 q -0.04154,0 -0.04154,-0.0415 v -0.71312 q 0,-0.0381 0.04154,-0.0381 h 1.762022 q 0.04154,0 0.04154,0.0381 v 1.01083 q 0,0.76504 -0.526183,1.28084 -0.533107,0.52272 -1.284303,0.52272 -0.59888,0 -1.007365,-0.28732 -0.401561,-0.28386 -0.581571,-0.62311 h 0.0035 q -0.06577,-0.1177 -0.110776,-0.2354 -0.045,-0.12116 -0.06923,-0.25271 -0.02077,-0.13154 -0.03462,-0.41887 -0.01038,-0.29078 -0.01038,-0.74427 0,-0.45349 0.01038,-0.74081 0.01385,-0.28732 0.03462,-0.41887 0.02423,-0.13155 0.06923,-0.25271 0.045,-0.12116 0.110776,-0.23886 h -0.0035 q 0.18001,-0.33578 0.581571,-0.62311 0.405023,-0.29078 1.007365,-0.29078 0.72004,0 1.190836,0.4431 0.477719,0.4431 0.591956,1.05929 0.0069,0.0208 -0.0069,0.0346 -0.01385,0.0138 -0.03462,0.0138 h -0.792737 q -0.03116,0 -0.03808,-0.0277 -0.045,-0.13847 -0.128085,-0.25617 -0.08308,-0.12116 -0.204242,-0.22501 -0.228474,-0.20424 -0.578109,-0.20424 -0.25963,0 -0.443102,0.10385 -0.183472,0.10385 -0.294248,0.23886 -0.06577,0.0831 -0.114237,0.19039 -0.04846,0.10385 -0.07616,0.21463 -0.02769,0.1177 -0.03808,0.36348 -0.01038,0.24579 -0.01038,0.61619 0,0.37733 0.01038,0.62311 0.01038,0.24232 0.03808,0.36002 0.02769,0.10732 0.07616,0.21463 0.05193,0.10385 0.114237,0.18347 0.110776,0.1454 0.294248,0.24925 0.183472,0.10039 0.443102,0.10039 0.411946,0 0.692346,-0.2804 0.283862,-0.2804 0.283862,-0.73389 v -0.21463 z"
                   style="font-weight:normal;font-family:Giaothong2;-inkscape-font-specification:Giaothong2"
                   id="path24334" /><path
                   d="m 69.103783,127.67747 q -0.04154,0 -0.04154,-0.0415 v -4.96066 q 0,-0.0415 0.04154,-0.0415 H 69.8169 q 0.02077,0 0.03462,0.0208 l 2.180892,3.43404 v -3.41327 q 0,-0.0415 0.04154,-0.0415 h 0.754657 q 0.04154,0 0.04154,0.0415 v 4.96066 q 0,0.0415 -0.04154,0.0415 h -0.709655 q -0.02077,0 -0.03462,-0.0208 l -2.187816,-3.43404 v 3.41327 q 0,0.0415 -0.03808,0.0415 z"
                   style="font-weight:normal;font-family:Giaothong2;-inkscape-font-specification:Giaothong2"
                   id="path24336" /><path
                   d="m 75.330135,125.65928 q -0.04154,0 -0.04154,-0.0415 v -0.71312 q 0,-0.0381 0.04154,-0.0381 h 1.762022 q 0.04154,0 0.04154,0.0381 v 1.01083 q 0,0.76504 -0.526183,1.28084 -0.533107,0.52272 -1.284303,0.52272 -0.59888,0 -1.007365,-0.28732 -0.401561,-0.28386 -0.581571,-0.62311 h 0.0035 q -0.06577,-0.1177 -0.110776,-0.2354 -0.045,-0.12116 -0.06923,-0.25271 -0.02077,-0.13154 -0.03462,-0.41887 -0.01038,-0.29078 -0.01038,-0.74427 0,-0.45349 0.01038,-0.74081 0.01385,-0.28732 0.03462,-0.41887 0.02423,-0.13155 0.06923,-0.25271 0.045,-0.12116 0.110776,-0.23886 h -0.0035 q 0.18001,-0.33578 0.581571,-0.62311 0.405023,-0.29078 1.007365,-0.29078 0.72004,0 1.190836,0.4431 0.477719,0.4431 0.591956,1.05929 0.0069,0.0208 -0.0069,0.0346 -0.01385,0.0138 -0.03462,0.0138 h -0.792737 q -0.03116,0 -0.03808,-0.0277 -0.045,-0.13847 -0.128085,-0.25617 -0.08308,-0.12116 -0.204242,-0.22501 -0.228474,-0.20424 -0.578109,-0.20424 -0.25963,0 -0.443102,0.10385 -0.183472,0.10385 -0.294248,0.23886 -0.06577,0.0831 -0.114237,0.19039 -0.04846,0.10385 -0.07616,0.21463 -0.02769,0.1177 -0.03808,0.36348 -0.01038,0.24579 -0.01038,0.61619 0,0.37733 0.01038,0.62311 0.01038,0.24232 0.03808,0.36002 0.02769,0.10732 0.07616,0.21463 0.05193,0.10385 0.114237,0.18347 0.110776,0.1454 0.294248,0.24925 0.183472,0.10039 0.443102,0.10039 0.411946,0 0.692346,-0.2804 0.283862,-0.2804 0.283862,-0.73389 v -0.21463 z"
                   style="font-weight:normal;font-family:Giaothong2;-inkscape-font-specification:Giaothong2"
                   id="path24338" /><path
                   d="m 77.326246,127.67401 q -0.02423,0 -0.03462,-0.0173 -0.01038,-0.0173 -0.0035,-0.0381 l 1.813949,-4.96412 q 0.0069,-0.0277 0.03462,-0.0277 h 0.61965 q 0.01038,0 0.02077,0.0104 0.01385,0.007 0.01731,0.0173 l 1.810487,4.96412 q 0.0069,0.0208 -0.0035,0.0381 -0.01038,0.0173 -0.03116,0.0173 h -0.792737 q -0.02769,0 -0.03462,-0.0277 l -0.373867,-1.09391 h -1.827795 q -0.09693,0.2804 -0.193857,0.55042 -0.09347,0.26655 -0.190396,0.54349 -0.0035,0.0104 -0.01731,0.0208 -0.01039,0.007 -0.02077,0.007 z m 2.793619,-1.86587 q -0.0069,-0.0242 -0.02077,-0.0519 -0.01038,-0.0277 -0.01731,-0.0485 -0.05885,-0.16963 -0.107314,-0.31156 -0.04846,-0.14539 -0.08654,-0.25271 -0.02423,-0.0692 -0.04846,-0.135 -0.02077,-0.0658 -0.04154,-0.12463 -0.01731,-0.0554 -0.03462,-0.10385 -0.01731,-0.0519 -0.03462,-0.10039 -0.03115,-0.10039 -0.06577,-0.20078 -0.03115,-0.10039 -0.06577,-0.2077 -0.01731,-0.0485 -0.03808,-0.10732 -0.01731,-0.0588 -0.03808,-0.12462 -0.01038,-0.0346 -0.01731,-0.0519 -0.0035,-0.0208 -0.01039,-0.0381 -0.0069,-0.0208 -0.01731,-0.045 -0.0069,-0.0242 -0.02077,-0.0692 -0.03808,0.11424 -0.0727,0.21116 -0.03116,0.0969 -0.05885,0.18001 -0.0069,0.0208 -0.01039,0.0381 -0.0035,0.0173 -0.01038,0.0346 -0.01731,0.0588 -0.03808,0.11078 -0.01731,0.0519 -0.03462,0.10385 -0.01731,0.0554 -0.03462,0.10731 -0.01731,0.0519 -0.03462,0.10039 -0.03462,0.10385 -0.0727,0.21809 -0.03462,0.11424 -0.07962,0.23886 -0.045,0.12462 -0.09347,0.27002 -0.04846,0.14193 -0.124622,0.36002 z m -1.907415,-3.62098 q -0.03116,0 -0.03808,-0.0277 -0.0069,-0.0277 0.01385,-0.045 l 1.01775,-0.80659 h 0.467334 l 1.031596,0.80659 q 0.02423,0.0173 0.01385,0.045 -0.0069,0.0277 -0.03808,0.0277 h -0.581571 l -0.692347,-0.37386 q -0.152316,0.0935 -0.308094,0.18693 -0.155778,0.0935 -0.308094,0.18693 z m 2.426675,-0.50541 q -0.0069,0 -0.01731,-0.003 -0.01039,-0.007 -0.01385,-0.0104 l -0.955439,-1.01082 q -0.02077,-0.0208 -0.01038,-0.045 0.01385,-0.0242 0.04154,-0.0242 h 0.761581 q 0.02077,0 0.03462,0.0208 l 0.723503,1.01083 q 0.01038,0.0242 0,0.045 -0.0069,0.0173 -0.03462,0.0173 z"
                   style="font-weight:normal;font-family:Giaothong2;-inkscape-font-specification:Giaothong2"
                   id="path24340" /><path
                   d="m 82.005206,127.67747 q -0.04154,0 -0.04154,-0.0415 v -4.96066 q 0,-0.0415 0.04154,-0.0415 h 0.709655 q 0.02423,0 0.03808,0.0242 l 1.388155,3.14672 q 0.335788,-0.79274 0.675038,-1.57163 0.33925,-0.78235 0.6785,-1.57509 0.01039,-0.0242 0.03808,-0.0242 h 0.709655 q 0.04154,0 0.04154,0.0415 v 4.96066 q 0,0.0415 -0.04154,0.0415 h -0.751196 q -0.04154,0 -0.04154,-0.0415 v -2.92862 q -0.242321,0.56426 -0.488104,1.1216 -0.245783,0.55734 -0.484643,1.11814 -0.01385,0.0208 -0.03808,0.0208 h -0.626573 q -0.02423,0 -0.03808,-0.0208 l -0.976208,-2.24667 v 2.93555 q 0,0.0415 -0.04154,0.0415 z"
                   style="font-weight:normal;font-family:Giaothong2;-inkscape-font-specification:Giaothong2"
                   id="path24342" /></g><g
                 id="use22732"
                 style="fill:#ffffff;fill-opacity:1"
                 transform="matrix(0.35277777,0,0,0.35277777,46.47691,144.1031)"><path
                   d="m 1.371094,0.0078125 c -0.066406,0 -0.101563,-0.0351563 -0.101563,-0.1015625 v -12.371094 c 0,-0.07031 0.035157,-0.105469 0.101563,-0.105469 h 1.769531 c 0.039063,0 0.070313,0.01953 0.097656,0.0625 l 3.460938,7.847657 c 0.554687,-1.316407 1.117187,-2.625 1.683594,-3.925782 0.5625,-1.292968 1.125,-2.601562 1.691406,-3.921875 0.01563,-0.03906 0.04687,-0.0625 0.09375,-0.0625 H 11.9375 c 0.07031,0 0.105469,0.03516 0.105469,0.105469 V -0.09375 c 0,0.0664062 -0.03516,0.1015625 -0.105469,0.1015625 h -1.871094 c -0.070312,0 -0.105468,-0.0351563 -0.105468,-0.1015625 v -7.304688 c -0.398438,0.9375 -0.804688,1.871094 -1.214844,2.796875 -0.40625,0.925782 -0.8125,1.855469 -1.210938,2.789063 -0.019531,0.035156 -0.050781,0.050781 -0.09375,0.050781 h -1.5625 c -0.039062,0 -0.070312,-0.015625 -0.09375,-0.050781 l -2.4375,-5.601563 v 7.320313 c 0,0.0664062 -0.03125,0.1015625 -0.101562,0.1015625 h -1.875"
                   id="path21942" /></g><g
                 id="use22734"
                 style="fill:#ffffff;fill-opacity:1"
                 transform="matrix(0.35277777,0,0,0.35277777,51.238913,144.1031)"><path
                   d="m 8.046875,-3.808594 c 0,0.070313 -0.035156,0.105469 -0.105469,0.105469 h -5.34375 c 0.019532,0.628906 0.199219,1.113281 0.542969,1.441406 0.382813,0.34375 0.859375,0.519531 1.445313,0.519531 0.6875,0 1.300781,-0.269531 1.84375,-0.8125 0.011718,-0.019531 0.03125,-0.027343 0.0625,-0.03125 0.027343,0 0.050781,0.00391 0.078125,0.023438 l 1.277343,1.085937 c 0.019532,0.019532 0.035157,0.039063 0.035157,0.070313 0,0.023437 -0.00781,0.050781 -0.027344,0.078125 C 7.40625,-0.8125 6.90625,-0.445313 6.347656,-0.21875 5.796875,0 5.214844,0.113281 4.609375,0.113281 c -0.921875,0 -1.8125,-0.292969 -2.667969,-0.890625 -0.871093,-0.59375 -1.3125,-1.816406 -1.3125,-3.660156 0,-1.734375 0.398438,-2.9375 1.203125,-3.609375 0.8125,-0.664063 1.652344,-1 2.511719,-1 0.988281,0 1.851563,0.339844 2.589844,1.027344 0.742187,0.691406 1.113281,1.609375 1.113281,2.761718 v 1.449219 M 6.078125,-5.351563 C 6.039063,-5.949219 5.863281,-6.40625 5.542969,-6.714844 c -0.316406,-0.3125 -0.71875,-0.46875 -1.199219,-0.46875 -0.503906,0 -0.914062,0.160156 -1.234375,0.484375 -0.148437,0.148438 -0.269531,0.335938 -0.355469,0.570313 -0.085937,0.230468 -0.136718,0.488281 -0.15625,0.777343 h 3.480469"
                   id="path21950" /></g><g
                 id="use22738"
                 style="fill:#ffffff;fill-opacity:1"
                 transform="matrix(0.35277777,0,0,0.35277777,54.31504,144.1031)"><path
                   d="m 1.285156,0.015625 c -0.066406,0 -0.101562,-0.03125 -0.101562,-0.1015625 V -7.398438 H 0.40625 c -0.070312,0 -0.105469,-0.035156 -0.105469,-0.101562 v -1.347656 c 0,-0.070313 0.035157,-0.105469 0.105469,-0.105469 h 0.777344 v -1.3125 l 1.785156,-1.90625 c 0.035156,-0.03516 0.074219,-0.04297 0.117188,-0.02734 0.042968,0.01953 0.066406,0.05078 0.066406,0.09766 v 3.148438 h 1.171875 c 0.070312,0 0.105469,0.035156 0.105469,0.105469 V -7.5 c 0,0.066406 -0.035157,0.101562 -0.105469,0.101562 H 3.152344 v 7.3125005 c 0,0.0703125 -0.035156,0.1015625 -0.105469,0.1015625 H 1.285156"
                   id="path21938" /></g><g
                 id="use22742"
                 style="fill:#ffffff;fill-opacity:1"
                 transform="matrix(0.35277777,0,0,0.35277777,56.048956,144.1031)"><path
                   d="m 0.863281,0.0078125 c -0.058593,0 -0.09375,-0.0351563 -0.09375,-0.1015625 v -8.753906 c 0,-0.070313 0.027344,-0.105469 0.09375,-0.105469 h 1.769532 c 0.0625,0 0.09375,0.035156 0.09375,0.105469 v 0.707031 c 0.554687,-0.605469 1.289062,-0.90625 2.210937,-0.90625 0.660156,0 1.292969,0.230469 1.890625,0.691406 0.023438,0.015625 0.035156,0.039063 0.039063,0.066406 0,0.027344 -0.00391,0.054688 -0.019532,0.078125 L 5.578125,-6.691406 C 5.539063,-6.636719 5.492188,-6.628906 5.4375,-6.671875 5.066406,-6.949219 4.695313,-7.085938 4.332031,-7.085938 c -0.402343,0 -0.777343,0.136719 -1.113281,0.414063 -0.328125,0.273437 -0.492187,0.714844 -0.492187,1.320312 v 5.257813 c 0,0.0664062 -0.027344,0.1015625 -0.09375,0.1015625 H 0.863281"
                   id="path21946" /></g><g
                 id="use22746"
                 style="fill:#ffffff;fill-opacity:1"
                 transform="matrix(0.35277777,0,0,0.35277777,58.450844,144.1031)"><path
                   d="m 0.671875,-4.480469 c 0,-0.9375 0.078125,-1.648437 0.234375,-2.132812 0.148438,-0.484375 0.398438,-0.910157 0.742188,-1.285157 0.242187,-0.257812 0.578125,-0.515625 1.019531,-0.769531 0.433594,-0.25 1.007812,-0.378906 1.71875,-0.378906 0.699219,0 1.269531,0.125 1.699219,0.378906 0.226562,0.125 0.417968,0.25 0.589843,0.378906 0.171875,0.128907 0.316407,0.257813 0.445313,0.390625 0.335937,0.371094 0.589844,0.800782 0.742187,1.285157 0.148438,0.492187 0.226563,1.203125 0.226563,2.132812 0,0.953125 -0.074219,1.675781 -0.226563,2.160156 -0.152343,0.46875 -0.398437,0.894532 -0.742187,1.285157 C 6.863281,-0.757813 6.519531,-0.5 6.085938,-0.25 5.65625,-0.0078125 5.089844,0.113281 4.386719,0.113281 3.675781,0.113281 3.109375,-0.0078125 2.667969,-0.25 2.472656,-0.363281 2.289063,-0.492188 2.109375,-0.628906 1.9375,-0.769531 1.78125,-0.902344 1.648438,-1.035156 1.300781,-1.421875 1.054688,-1.847656 0.90625,-2.320313 0.75,-2.792969 0.671875,-3.511719 0.671875,-4.480469 m 5.457031,0.015625 c 0,-0.601562 -0.03125,-1.039062 -0.09375,-1.308594 C 5.976563,-6.019531 5.871094,-6.257813 5.714844,-6.484375 5.566406,-6.675781 5.382813,-6.828125 5.15625,-6.933594 4.9375,-7.035156 4.679688,-7.085938 4.386719,-7.085938 c -0.609375,0 -1.054688,0.195313 -1.332031,0.601563 -0.078125,0.113281 -0.144532,0.230469 -0.203125,0.34375 -0.050782,0.109375 -0.09375,0.230469 -0.125,0.367187 -0.054688,0.246094 -0.085938,0.675782 -0.085938,1.292969 0,0.3125 0.00391,0.578125 0.023438,0.804688 0.011718,0.222656 0.035156,0.398437 0.0625,0.535156 0.054687,0.246094 0.160156,0.476562 0.328125,0.699219 0.269531,0.394531 0.714843,0.59375 1.332031,0.59375 0.585937,0 1.027344,-0.199219 1.328125,-0.59375 0.148437,-0.226563 0.253906,-0.460938 0.320312,-0.699219 0.058594,-0.28125 0.09375,-0.722656 0.09375,-1.324219"
                   id="path21934" /></g></g><path
               id="path14549-9"
               style="opacity:1;fill:#0046aa;fill-opacity:1;fill-rule:evenodd;stroke-width:9.5812;stroke-linecap:round;stroke-linejoin:round;paint-order:stroke fill markers"
               d="m 11.221999,128.60233 c -4.0494373,0 -7.5128648,2.31149 -9.0454408,4.9599 v 13.1625 l 2.7590044,-3.11764 v -9.12089 c 1.0650784,-1.84055 3.4722257,-3.1197 6.2864364,-3.1197 2.814069,0 5.221276,1.27878 6.286436,3.11919 v 9.1214 l 2.759523,3.11764 v -13.16302 c -1.532696,-2.64819 -4.996748,-4.95938 -9.045959,-4.95938 z m 0,4.51238 c -0.142353,0 -0.256833,0.11448 -0.256833,0.25683 v 0.36122 c -1.7637476,0.0282 -3.1460615,0.34256 -3.1460615,0.72967 v 1.11931 3.8623 2.52905 c 0,0.66961 0.5391009,1.20819 1.2087119,1.20819 h -0.00723 l -2.6489361,3.54345 h 0.9358594 l 2.6489344,-3.54345 h 2.5316279 l 2.648934,3.54345 h 0.93586 l -2.648934,-3.54345 h -0.0078 c 0.669611,0 1.208711,-0.53858 1.208711,-1.20819 v -2.52905 -3.8623 -1.11931 c 0,-0.38712 -1.381731,-0.70149 -3.145546,-0.72967 v -0.36122 c 0,-0.14235 -0.114999,-0.25683 -0.257348,-0.25683 z m -2.635497,2.68821 h 5.271512 c 0.02773,0 0.05013,0.0224 0.05013,0.0501 v 2.42622 c 0,0.0278 -0.02237,0.0501 -0.05013,0.0501 H 8.586502 c -0.027764,0 -0.050126,-0.0224 -0.050126,-0.0501 v -2.42622 c 0,-0.0278 0.022401,-0.0501 0.050126,-0.0501 z m 0.3384797,5.12114 h 0.9560134 c 0.1454719,0 0.2625159,0.11704 0.2625159,0.26251 v 0.3514 c 0,0.14547 -0.117044,0.26252 -0.2625159,0.26252 H 8.9249817 c -0.1454679,0 -0.262001,-0.11705 -0.262001,-0.26252 v -0.3514 c 0,-0.14547 0.1165331,-0.26251 0.262001,-0.26251 z m 3.6385353,0 h 0.955499 c 0.145471,0 0.262516,0.11704 0.262516,0.26251 v 0.3514 c 0,0.14547 -0.117045,0.26252 -0.262516,0.26252 h -0.955499 c -0.145461,0 -0.262516,-0.11705 -0.262516,-0.26252 v -0.3514 c 0,-0.14547 0.117055,-0.26251 0.262516,-0.26251 z"
               sodipodi:nodetypes="sccccsccccscscsccsccccccccccsccscsccsssssssssssssssssssssssssss" /></g></g></g></g></g></svg>
