<?xml version="1.0" encoding="UTF-8"?>
<!DOCTYPE svg PUBLIC "-//W3C//DTD SVG 1.1//EN" "http://www.w3.org/Graphics/SVG/1.1/DTD/svg11.dtd">
<!-- Creator: CorelDRAW -->
<svg xmlns="http://www.w3.org/2000/svg" xml:space="preserve" width="85.4998mm" height="61.029mm" version="1.1" style="shape-rendering:geometricPrecision; text-rendering:geometricPrecision; image-rendering:optimizeQuality; fill-rule:evenodd; clip-rule:evenodd"
viewBox="0 0 824.99 588.87"
 xmlns:xlink="http://www.w3.org/1999/xlink"
 xmlns:xodm="http://www.corel.com/coreldraw/odm/2003">
 <defs>
  <style type="text/css">
   <![CDATA[
    .fil2 {fill:black}
    .fil0 {fill:#0A9646}
    .fil1 {fill:#FFD70F}
    .fil4 {fill:black;fill-rule:nonzero}
    .fil5 {fill:#F00A0A;fill-rule:nonzero}
    .fil3 {fill:white;fill-rule:nonzero}
   ]]>
  </style>
 </defs>
 <g id="Layer_x0020_1">
  <metadata id="CorelCorpID_0Corel-Layer"/>
  <g id="_2298018671344">
   <polygon id="rect15575" class="fil0" points="-0,0 824.99,0 824.99,588.87 -0,588.87 "/>
   <polygon id="rect15605" class="fil1" points="45.03,144.12 200.48,144.12 200.48,215.15 45.03,215.15 "/>
   <path id="path15631" class="fil2" d="M50.29 145.56c-2.07,0 -3.77,1.69 -3.77,3.76l0 60.62c0,2.07 1.7,3.76 3.77,3.76l144.98 0c2.07,0 3.77,-1.69 3.77,-3.76l0 -60.62c0,-2.07 -1.69,-3.76 -3.77,-3.76l-144.98 0zm0 1.37l144.98 0c1.34,0 2.39,1.06 2.39,2.39l0 60.62c0,1.34 -1.06,2.38 -2.39,2.38l-144.98 0c-1.34,0 -2.39,-1.05 -2.39,-2.38l0 -60.62c0,-1.34 1.06,-2.39 2.39,-2.39z"/>
   <path id="path17496" class="fil3" d="M700.01 113.86l0 129.22 90.46 0 0 -129.22 -90.46 0zm3.53 4.24l83.36 0 0 121.43 -83.36 0 0 -121.43zm34.89 9.31l-5.71 22.64 10.01 0 0.72 -22.64 -5.03 0zm8.56 0l0.72 22.64 10.02 0 -5.71 -22.64 -5.03 0zm-40.61 25.51l0 4.96 7.83 2.83 0 1.49 3.6 0 0 -1.49c0,0 5.33,-0.8 11.55,-1.37 4.99,-0.45 10.55,-0.69 14.41,-0.71 4.59,-0.02 11.38,0.24 17.2,0.74 6.42,0.55 11.67,1.34 11.67,1.34l0 1.49 3.53 0 0 -1.49 7.83 -2.83 0 -4.96 -77.63 0zm23.51 9.24l-17.11 68.12 25.65 0 3.56 -68.12 -12.1 0zm18.52 0l3.56 68.12 25.65 0 -17.11 -68.12 -12.1 0z"/>
   <path class="fil3" d="M311.32 313.43c-0.18,0 -0.27,-0.09 -0.27,-0.27l0 -32.51c0,-0.18 0.09,-0.27 0.27,-0.27l20.78 0c0.18,0 0.27,0.09 0.27,0.27l0 4.67c0,0.18 -0.09,0.27 -0.27,0.27l-15.59 0 0 8.71 13.25 0c0.18,0 0.27,0.09 0.27,0.27l0 4.4c0,0.17 -0.09,0.25 -0.27,0.25l-13.25 0 0 9.03 15.59 0c0.18,0 0.27,0.09 0.27,0.27l0 4.63c0,0.18 -0.09,0.27 -0.27,0.27l-20.78 0zm41.91 0c-0.09,0 -0.17,-0.05 -0.23,-0.14l-6.9 -11.71c-1.15,1.97 -2.3,3.92 -3.45,5.85 -1.15,1.94 -2.3,3.89 -3.45,5.85 -0.06,0.09 -0.14,0.14 -0.23,0.14l-5.56 0c-0.12,0 -0.2,-0.04 -0.25,-0.13 -0.04,-0.08 -0.04,-0.18 0.02,-0.28l9.87 -16.54c-1.56,-2.63 -3.1,-5.25 -4.63,-7.85 -1.53,-2.6 -3.06,-5.22 -4.61,-7.85 -0.06,-0.11 -0.07,-0.2 -0.02,-0.28 0.05,-0.08 0.12,-0.13 0.23,-0.13l5.58 0c0.09,0 0.17,0.05 0.23,0.14l6.26 10.89c1.04,-1.82 2.09,-3.63 3.13,-5.43 1.04,-1.81 2.09,-3.63 3.13,-5.46 0.06,-0.09 0.13,-0.14 0.22,-0.14l5.58 0c0.11,0 0.18,0.04 0.22,0.13 0.05,0.08 0.04,0.18 -0.02,0.28l-9.23 15.7c1.66,2.77 3.31,5.53 4.95,8.27 1.63,2.75 3.28,5.5 4.95,8.27 0.06,0.11 0.07,0.2 0.02,0.28 -0.04,0.08 -0.13,0.13 -0.25,0.13l-5.58 0zm14.24 -27.84l0 9.94 7.06 0c1.74,0 3.03,-0.52 3.88,-1.57 0.86,-1.01 1.29,-2.15 1.29,-3.4 0,-1.88 -0.67,-3.24 -2,-4.11 -0.86,-0.58 -1.98,-0.86 -3.36,-0.86l-6.87 0zm-5.2 27.84c-0.18,0 -0.27,-0.09 -0.27,-0.27l0 -32.51c0,-0.18 0.09,-0.27 0.27,-0.27l11.8 0c1.3,0 2.53,0.14 3.7,0.41 1.18,0.27 2.44,0.92 3.77,1.95 0.51,0.41 0.99,0.88 1.42,1.42 0.43,0.54 0.82,1.13 1.17,1.78 0.33,0.67 0.59,1.4 0.77,2.2 0.18,0.8 0.27,1.66 0.27,2.56 0,2.38 -0.89,4.65 -2.68,6.81 -1.79,2.15 -4.38,3.22 -7.78,3.22l-7.24 0 0 12.43c0,0.18 -0.09,0.27 -0.27,0.27l-4.92 0zm32.31 -28.13l0 9.33 7.19 0c1.75,0 3.07,-0.48 3.95,-1.45 0.88,-0.97 1.31,-2.12 1.31,-3.45 0,-0.76 -0.13,-1.43 -0.4,-2.02 -0.27,-0.59 -0.65,-1.07 -1.15,-1.45 -0.44,-0.3 -0.95,-0.54 -1.53,-0.71 -0.58,-0.17 -1.21,-0.25 -1.89,-0.25l-7.49 0zm-5.2 28.13c-0.18,0 -0.27,-0.09 -0.27,-0.27l0 -32.51c0,-0.18 0.09,-0.27 0.27,-0.27l12.73 0c1.41,0 2.68,0.19 3.81,0.58 1.13,0.38 2.12,0.93 2.97,1.64 0.44,0.41 0.86,0.87 1.26,1.39 0.4,0.52 0.76,1.09 1.07,1.69 0.31,0.61 0.56,1.25 0.74,1.93 0.18,0.68 0.27,1.38 0.27,2.11 0,1.07 -0.15,2.09 -0.45,3.05 -0.3,0.96 -0.72,1.86 -1.27,2.69 -0.56,0.77 -1.21,1.45 -1.95,2.03 -0.74,0.58 -1.58,1.05 -2.52,1.39 1.23,2.35 2.46,4.7 3.7,7.07 1.24,2.37 2.47,4.72 3.7,7.07 0.05,0.11 0.05,0.2 0,0.28 -0.05,0.08 -0.12,0.13 -0.23,0.13l-5.85 0c-0.05,0 -0.09,-0.02 -0.14,-0.06 -0.04,-0.04 -0.08,-0.07 -0.11,-0.1l-6.65 -13.73 -5.88 0 0 13.61c0,0.18 -0.09,0.27 -0.27,0.27l-4.92 0zm27.9 0c-0.18,0 -0.27,-0.09 -0.27,-0.27l0 -32.51c0,-0.18 0.09,-0.27 0.27,-0.27l20.78 0c0.18,0 0.27,0.09 0.27,0.27l0 4.67c0,0.18 -0.09,0.27 -0.27,0.27l-15.59 0 0 8.71 13.25 0c0.18,0 0.27,0.09 0.27,0.27l0 4.4c0,0.17 -0.09,0.25 -0.27,0.25l-13.25 0 0 9.03 15.59 0c0.18,0 0.27,0.09 0.27,0.27l0 4.63c0,0.18 -0.09,0.27 -0.27,0.27l-20.78 0zm25.59 -8.35c0.05,-0.06 0.11,-0.09 0.18,-0.09 0.07,0 0.14,0.02 0.2,0.07 1.2,0.97 2.57,1.74 4.12,2.33 1.55,0.58 3.19,0.87 4.91,0.87 1.93,0 3.46,-0.4 4.58,-1.2 1.06,-0.77 1.59,-1.79 1.59,-3.06 0,-2.39 -1.34,-3.77 -4.02,-4.13l0.02 0c-0.38,-0.05 -0.74,-0.09 -1.08,-0.14 -0.34,-0.04 -0.68,-0.09 -1.02,-0.14 -0.34,-0.05 -0.69,-0.1 -1.04,-0.15 -0.36,-0.05 -0.74,-0.11 -1.17,-0.17 -1.42,-0.2 -2.69,-0.56 -3.8,-1.08 -1.11,-0.52 -2.05,-1.21 -2.8,-2.08 -0.76,-0.88 -1.32,-1.83 -1.7,-2.87 -0.38,-1.04 -0.57,-2.17 -0.57,-3.39 0,-2.87 0.95,-5.21 2.86,-7.01 1.92,-1.83 4.59,-2.75 8.01,-2.75 1.01,0 2,0.09 2.96,0.26 0.96,0.17 1.89,0.41 2.79,0.71 0.9,0.3 1.76,0.66 2.59,1.08 0.82,0.41 1.61,0.87 2.37,1.37 0.15,0.11 0.17,0.23 0.07,0.39l-2.75 4.06c-0.11,0.14 -0.23,0.16 -0.36,0.07 -1.18,-0.74 -2.43,-1.34 -3.77,-1.78 -1.33,-0.45 -2.71,-0.67 -4.13,-0.67 -0.73,0 -1.4,0.09 -2.02,0.26 -0.62,0.17 -1.18,0.46 -1.68,0.85 -0.98,0.71 -1.47,1.79 -1.47,3.24 0,0.83 0.33,1.64 1,2.43 0.33,0.36 0.78,0.67 1.34,0.92 0.56,0.25 1.25,0.44 2.07,0.56 0.44,0.08 0.95,0.15 1.54,0.24 0.59,0.08 1.28,0.17 2.09,0.26 3.1,0.38 5.4,1.52 6.9,3.43 1.5,1.86 2.25,3.93 2.25,6.22 0,3.05 -1.07,5.44 -3.2,7.17 -2.15,1.7 -4.98,2.54 -8.49,2.54 -4.95,0 -9.15,-1.51 -12.61,-4.54 -0.06,-0.04 -0.09,-0.11 -0.09,-0.18 0,-0.08 0.02,-0.14 0.07,-0.2l3.27 -3.7zm26.22 0c0.04,-0.06 0.1,-0.09 0.18,-0.09 0.07,0 0.14,0.02 0.2,0.07 1.2,0.97 2.57,1.74 4.12,2.33 1.55,0.58 3.19,0.87 4.91,0.87 1.93,0 3.46,-0.4 4.58,-1.2 1.06,-0.77 1.59,-1.79 1.59,-3.06 0,-2.39 -1.34,-3.77 -4.02,-4.13l0.02 0c-0.38,-0.05 -0.74,-0.09 -1.08,-0.14 -0.34,-0.04 -0.68,-0.09 -1.02,-0.14 -0.34,-0.05 -0.69,-0.1 -1.04,-0.15 -0.36,-0.05 -0.75,-0.11 -1.17,-0.17 -1.42,-0.2 -2.69,-0.56 -3.8,-1.08 -1.11,-0.52 -2.05,-1.21 -2.8,-2.08 -0.76,-0.88 -1.32,-1.83 -1.7,-2.87 -0.38,-1.04 -0.57,-2.17 -0.57,-3.39 0,-2.87 0.95,-5.21 2.86,-7.01 1.92,-1.83 4.59,-2.75 8.01,-2.75 1.01,0 2,0.09 2.96,0.26 0.96,0.17 1.89,0.41 2.79,0.71 0.9,0.3 1.76,0.66 2.59,1.08 0.82,0.41 1.61,0.87 2.37,1.37 0.15,0.11 0.17,0.23 0.07,0.39l-2.74 4.06c-0.11,0.14 -0.23,0.16 -0.36,0.07 -1.18,-0.74 -2.43,-1.34 -3.77,-1.78 -1.33,-0.45 -2.71,-0.67 -4.13,-0.67 -0.72,0 -1.4,0.09 -2.02,0.26 -0.62,0.17 -1.18,0.46 -1.68,0.85 -0.98,0.71 -1.48,1.79 -1.48,3.24 0,0.83 0.33,1.64 1,2.43 0.33,0.36 0.78,0.67 1.34,0.92 0.56,0.25 1.25,0.44 2.06,0.56 0.44,0.08 0.95,0.15 1.54,0.24 0.59,0.08 1.28,0.17 2.09,0.26 3.1,0.38 5.4,1.52 6.9,3.43 1.5,1.86 2.24,3.93 2.24,6.22 0,3.05 -1.07,5.44 -3.2,7.17 -2.15,1.7 -4.97,2.54 -8.48,2.54 -4.95,0 -9.15,-1.51 -12.61,-4.54 -0.06,-0.04 -0.09,-0.11 -0.09,-0.18 0,-0.08 0.02,-0.14 0.07,-0.2l3.27 -3.7zm31.29 8.35c-0.15,0 -0.24,-0.07 -0.27,-0.2l-8.14 -32.51c-0.03,-0.09 -0.02,-0.17 0.04,-0.24 0.06,-0.07 0.14,-0.1 0.23,-0.1l5.22 0c0.15,0 0.24,0.07 0.27,0.2l4.9 22.21c1,-3.72 2.01,-7.42 3.02,-11.1 1.01,-3.67 2.03,-7.38 3.04,-11.11 0.03,-0.14 0.12,-0.2 0.27,-0.2l3.56 0c0.14,0 0.22,0.07 0.25,0.2l6.08 22.21c0.82,-3.72 1.63,-7.42 2.45,-11.1 0.82,-3.67 1.63,-7.38 2.45,-11.11 0.03,-0.14 0.12,-0.2 0.27,-0.2l5.22 0c0.09,0 0.17,0.03 0.23,0.1 0.06,0.07 0.08,0.15 0.05,0.24l-8.14 32.51c-0.03,0.14 -0.12,0.2 -0.27,0.2l-4.1 0c-0.14,0 -0.22,-0.07 -0.25,-0.2l-6.01 -22.57c-1,3.79 -2,7.56 -3,11.3 -1,3.74 -2,7.49 -3,11.28 -0.03,0.14 -0.11,0.2 -0.25,0.2l-4.1 0zm28.9 -0.02c-0.11,0 -0.18,-0.04 -0.22,-0.11 -0.05,-0.08 -0.05,-0.16 -0.02,-0.25l11.89 -32.54c0.03,-0.12 0.11,-0.18 0.23,-0.18l4.06 0c0.05,0 0.1,0.02 0.15,0.06 0.05,0.04 0.09,0.08 0.1,0.13l11.86 32.54c0.03,0.09 0.02,0.17 -0.02,0.25 -0.04,0.08 -0.11,0.11 -0.2,0.11l-5.2 0c-0.12,0 -0.2,-0.06 -0.22,-0.18l-2.45 -7.17 -11.98 0c-0.42,1.23 -0.84,2.42 -1.26,3.59 -0.41,1.17 -0.83,2.36 -1.26,3.57 -0.02,0.05 -0.05,0.09 -0.1,0.13 -0.05,0.04 -0.1,0.06 -0.15,0.06l-5.2 0zm18.31 -12.23c-0.03,-0.11 -0.07,-0.22 -0.12,-0.34 -0.05,-0.12 -0.09,-0.23 -0.13,-0.32 -0.26,-0.74 -0.49,-1.42 -0.7,-2.05 -0.21,-0.63 -0.4,-1.18 -0.57,-1.64 -0.11,-0.3 -0.21,-0.6 -0.31,-0.89 -0.1,-0.29 -0.19,-0.56 -0.28,-0.82 -0.08,-0.24 -0.15,-0.47 -0.23,-0.69 -0.08,-0.22 -0.15,-0.43 -0.23,-0.65 -0.14,-0.44 -0.28,-0.88 -0.42,-1.32 -0.14,-0.44 -0.29,-0.89 -0.44,-1.36 -0.08,-0.21 -0.15,-0.44 -0.24,-0.7 -0.08,-0.26 -0.17,-0.53 -0.26,-0.82 -0.05,-0.15 -0.08,-0.27 -0.1,-0.35 -0.02,-0.08 -0.05,-0.17 -0.08,-0.25 -0.03,-0.08 -0.06,-0.18 -0.1,-0.28 -0.04,-0.11 -0.09,-0.26 -0.14,-0.45 -0.17,0.5 -0.32,0.96 -0.47,1.38 -0.14,0.42 -0.28,0.82 -0.4,1.18 -0.03,0.09 -0.05,0.17 -0.07,0.25 -0.02,0.08 -0.04,0.15 -0.07,0.22 -0.08,0.26 -0.16,0.5 -0.24,0.73 -0.08,0.23 -0.16,0.45 -0.24,0.68 -0.07,0.24 -0.15,0.48 -0.23,0.7 -0.08,0.23 -0.15,0.45 -0.23,0.66 -0.15,0.45 -0.31,0.93 -0.46,1.43 -0.16,0.5 -0.34,1.02 -0.53,1.57 -0.2,0.55 -0.4,1.13 -0.61,1.76 -0.21,0.63 -0.48,1.42 -0.82,2.37l8.71 0zm17.35 12.25c-0.17,0 -0.25,-0.09 -0.25,-0.27l0 -13.29c-1.63,-3.19 -3.26,-6.38 -4.88,-9.55 -1.62,-3.18 -3.24,-6.36 -4.86,-9.55 -0.05,-0.11 -0.05,-0.2 0,-0.27 0.05,-0.07 0.13,-0.11 0.25,-0.11l5.17 0c0.04,0 0.09,0.02 0.14,0.06 0.05,0.04 0.08,0.07 0.11,0.1l6.67 13.93c1.12,-2.34 2.23,-4.67 3.32,-6.97 1.1,-2.3 2.2,-4.62 3.32,-6.96 0.03,-0.03 0.07,-0.06 0.11,-0.1 0.05,-0.04 0.09,-0.06 0.14,-0.06l5.2 0c0.12,0 0.2,0.04 0.25,0.11 0.04,0.08 0.04,0.17 0,0.27l-9.76 19.1 0 13.29c0,0.18 -0.09,0.27 -0.27,0.27l-4.67 0z"/>
   <path class="fil3" d="M20.31 3.38l784.34 0c9.25,0 16.75,7.5 16.75,16.75l0 548.41c0,9.25 -7.5,16.75 -16.75,16.75l-784.34 0c-9.25,0 -16.75,-7.5 -16.75,-16.75l0 -548.41c0,-9.25 7.5,-16.75 16.75,-16.75zm-10.45 16.89l0 334.31c0,5.82 4.72,10.53 10.53,10.53l784.14 0c5.82,0 10.53,-4.72 10.53,-10.53l0 -334.31c0,-5.82 -4.72,-10.53 -10.53,-10.53l-784.14 0c-5.82,0 -10.53,4.72 -10.53,10.53zm0 362.89l0 185.69c0,5.82 4.72,10.53 10.53,10.53l784.14 0c5.82,0 10.53,-4.72 10.53,-10.53l0 -185.69c0,-5.82 -4.72,-10.53 -10.53,-10.53l-784.14 0c-5.82,0 -10.53,4.72 -10.53,10.53z"/>
   <path class="fil4" d="M89.68 189.03c0.13,0 0.23,0.04 0.31,0.14 0.08,0.1 0.11,0.2 0.06,0.33 -0.87,4.23 -2.79,7.49 -5.79,9.77 -1.44,1.09 -3.03,1.92 -4.73,2.49 -1.7,0.56 -3.54,0.84 -5.51,0.84 -3.59,0 -6.61,-0.86 -9.05,-2.58 -2.41,-1.7 -4.15,-3.57 -5.22,-5.6 -0.38,-0.71 -0.7,-1.42 -0.97,-2.14 -0.28,-0.71 -0.48,-1.47 -0.63,-2.26 -0.27,-1.53 -0.4,-5.01 -0.4,-10.45 0,-2.72 0.03,-4.94 0.1,-6.66 0.06,-1.72 0.17,-2.97 0.31,-3.76 0.15,-0.8 0.35,-1.55 0.63,-2.27 0.27,-0.73 0.58,-1.44 0.97,-2.14 1.07,-2.02 2.81,-3.89 5.22,-5.61 2.42,-1.74 5.45,-2.61 9.05,-2.61 4.32,0 7.89,1.33 10.71,3.98 2.87,2.68 4.64,5.85 5.32,9.53 0.04,0.12 0.02,0.22 -0.06,0.31 -0.07,0.09 -0.18,0.13 -0.31,0.13l-7.13 0c-0.18,0 -0.3,-0.08 -0.34,-0.26 -0.28,-0.83 -0.66,-1.6 -1.16,-2.31 -0.49,-0.71 -1.1,-1.38 -1.83,-2.01 -1.37,-1.22 -3.1,-1.84 -5.2,-1.84 -1.55,0 -2.88,0.31 -3.98,0.93 -1.09,0.63 -1.98,1.34 -2.64,2.14 -0.39,0.5 -0.73,1.06 -1.02,1.7 -0.3,0.63 -0.52,1.27 -0.69,1.94 -0.16,0.7 -0.28,1.79 -0.34,3.27 -0.06,1.47 -0.1,3.31 -0.1,5.53 0,2.26 0.03,4.12 0.1,5.59 0.06,1.47 0.18,2.55 0.34,3.25 0.17,0.65 0.4,1.29 0.7,1.91 0.3,0.64 0.64,1.19 1.01,1.67 0.67,0.87 1.55,1.61 2.64,2.22 1.1,0.62 2.43,0.92 3.98,0.92 3.59,0 6.32,-1.96 8.19,-5.88 0.04,-0.04 0.1,-0.08 0.16,-0.14 0.05,-0.05 0.12,-0.07 0.18,-0.07l7.13 0z"/>
   <path id="_1" class="fil4" d="M102.72 202.22c-0.25,0 -0.38,-0.13 -0.38,-0.37l0 -38.21 -11.85 0c-0.24,0 -0.37,-0.13 -0.37,-0.37l0 -6c0,-0.25 0.13,-0.38 0.37,-0.38l31.18 0c0.24,0 0.37,0.13 0.37,0.38l0 6c0,0.24 -0.13,0.37 -0.37,0.37l-11.83 0 0 38.21c0,0.24 -0.12,0.37 -0.37,0.37l-6.74 0z"/>
   <path id="_2" class="fil4" d="M119.49 202.22c-0.24,0 -0.37,-0.13 -0.37,-0.37l0 -6.32c0,-0.24 0.13,-0.37 0.37,-0.37l6.35 0c0.22,0 0.34,0.13 0.34,0.37l0 6.32c0,0.24 -0.12,0.37 -0.34,0.37l-6.35 0z"/>
   <path id="_3" class="fil4" d="M151.35 170.3c0,-2.01 -0.53,-3.58 -1.59,-4.72 -1.07,-1.13 -2.5,-1.69 -4.28,-1.69 -1.79,0 -3.21,0.56 -4.27,1.69 -1.05,1.14 -1.58,2.71 -1.58,4.72l0 18.83c0,2.03 0.53,3.6 1.58,4.73 1.06,1.12 2.48,1.68 4.27,1.68 1.78,0 3.21,-0.56 4.28,-1.68 1.06,-1.13 1.59,-2.7 1.59,-4.73l0 -18.83zm-18.82 -0.37c0,-4.2 1.32,-7.41 3.95,-9.68 2.61,-2.3 5.61,-3.45 9,-3.45 1.68,0 3.27,0.29 4.77,0.88 1.51,0.59 2.91,1.44 4.22,2.57 1.32,1.16 2.31,2.55 2.97,4.15 0.68,1.6 1.01,3.45 1.01,5.52l0 19.57c0,4.16 -1.33,7.39 -3.98,9.68 -2.61,2.28 -5.61,3.42 -8.99,3.42 -3.39,0 -6.38,-1.14 -9,-3.42 -2.63,-2.26 -3.95,-5.49 -3.95,-9.68l0 -19.57z"/>
   <path id="_4" class="fil4" d="M172.08 182.18c-0.25,0 -0.37,-0.13 -0.37,-0.37l0 -5.57c0,-0.26 0.12,-0.38 0.37,-0.38l2.18 0c2.01,0 3.6,-0.55 4.76,-1.68 1.15,-1.07 1.71,-2.5 1.71,-4.26 0,-1.66 -0.58,-3.08 -1.77,-4.27 -1.18,-1.18 -2.62,-1.76 -4.32,-1.76 -1.24,0 -2.43,0.42 -3.58,1.27 -1.14,0.83 -1.87,2.08 -2.18,3.76 -0.02,0.08 -0.06,0.16 -0.14,0.22 -0.08,0.06 -0.14,0.08 -0.2,0.08l-6.38 0c-0.11,0 -0.19,-0.03 -0.27,-0.12 -0.07,-0.08 -0.1,-0.18 -0.07,-0.29 0.21,-3.16 1.55,-5.98 4.05,-8.43 2.44,-2.4 5.29,-3.6 8.53,-3.6 2.01,0 3.82,0.34 5.46,1.02 1.63,0.69 3.06,1.69 4.31,3.02 1.18,1.31 2.08,2.73 2.72,4.25 0.63,1.53 0.95,3.1 0.95,4.72 0,1.76 -0.34,3.48 -1.02,5.16 -0.34,0.75 -0.8,1.46 -1.37,2.12 -0.58,0.66 -1.27,1.29 -2.06,1.86 1.67,1.19 2.9,2.61 3.71,4.27 0.83,1.78 1.24,3.6 1.24,5.45 0,4.21 -1.34,7.59 -4.01,10.18 -2.63,2.51 -5.91,3.76 -9.8,3.76 -1.55,0 -3.02,-0.24 -4.4,-0.74 -1.38,-0.5 -2.71,-1.24 -3.97,-2.24 -1.24,-1.02 -2.24,-2.24 -3.01,-3.67 -0.75,-1.43 -1.27,-3.11 -1.56,-5.05 -0.04,-0.27 0.08,-0.4 0.37,-0.4l6.34 0c0.15,0 0.27,0.08 0.35,0.25 0.27,0.72 0.58,1.38 0.95,1.95 0.36,0.58 0.8,1.09 1.3,1.52 0.49,0.43 1.07,0.74 1.72,0.98 0.66,0.22 1.41,0.34 2.28,0.34 1.65,0 3.11,-0.59 4.42,-1.77 1.3,-1.14 1.93,-2.77 1.93,-4.89 0,-2.11 -0.64,-3.74 -1.93,-4.89 -1.31,-1.2 -2.81,-1.81 -4.54,-1.81l-2.68 0z"/>
   <path class="fil3" d="M360.31 90.8c-0.22,0 -0.32,-0.12 -0.32,-0.36l0 -18.11 -3.09 0c-0.21,0 -0.32,-0.11 -0.32,-0.32l0 -6.06c0,-0.23 0.11,-0.35 0.32,-0.35l3.09 0 0 -17.29c0,-0.24 0.11,-0.35 0.32,-0.35l14.76 0c5.86,0 10.24,2.42 13.14,7.26 0.53,0.94 0.96,1.83 1.29,2.68 0.33,0.84 0.55,1.67 0.65,2.47 0.23,1.57 0.35,4.58 0.35,9.03 0,2.39 -0.04,4.39 -0.12,5.99 -0.08,1.6 -0.19,2.8 -0.35,3.6 -0.16,0.82 -0.4,1.62 -0.72,2.39 -0.32,0.77 -0.73,1.54 -1.22,2.31l0 -0.03c-1.31,2.02 -3.08,3.71 -5.3,5.09 -2.29,1.37 -5.01,2.06 -8.14,2.06l-14.35 0zm6.76 -36.08l0 10.88 7.67 0c0.24,0 0.35,0.12 0.35,0.35l0 6.06c0,0.21 -0.12,0.32 -0.35,0.32l-7.67 0 0 11.76 7.29 0c3.37,0 5.88,-1.18 7.53,-3.53 0.69,-1.04 1.1,-2.13 1.23,-3.26 0.1,-0.63 0.17,-1.58 0.22,-2.84 0.05,-1.26 0.07,-2.87 0.07,-4.83 0,-1.9 -0.02,-3.49 -0.07,-4.76 -0.05,-1.27 -0.12,-2.28 -0.22,-3.03 -0.22,-1.39 -0.73,-2.64 -1.53,-3.74 -1.67,-2.25 -4.08,-3.38 -7.23,-3.38l-7.29 0zm27.04 36.05c-0.14,0 -0.23,-0.05 -0.29,-0.15 -0.06,-0.1 -0.07,-0.21 -0.03,-0.32l15.41 -42.16c0.04,-0.16 0.14,-0.23 0.29,-0.23l5.26 0c0.06,0 0.12,0.02 0.19,0.07 0.07,0.05 0.11,0.1 0.13,0.16l15.38 42.16c0.04,0.12 0.03,0.23 -0.03,0.32 -0.06,0.1 -0.15,0.15 -0.27,0.15l-6.73 0c-0.16,0 -0.26,-0.08 -0.29,-0.23l-3.17 -9.29 -15.53 0c-0.55,1.59 -1.09,3.14 -1.63,4.66 -0.54,1.52 -1.08,3.07 -1.63,4.63 -0.02,0.06 -0.06,0.11 -0.13,0.16 -0.07,0.05 -0.13,0.07 -0.19,0.07l-6.73 0zm23.73 -15.85c-0.04,-0.14 -0.09,-0.29 -0.16,-0.44 -0.07,-0.16 -0.12,-0.29 -0.16,-0.41 -0.33,-0.96 -0.64,-1.85 -0.91,-2.66 -0.27,-0.81 -0.52,-1.52 -0.74,-2.13 -0.14,-0.39 -0.27,-0.77 -0.4,-1.15 -0.13,-0.37 -0.25,-0.73 -0.37,-1.06 -0.1,-0.31 -0.19,-0.61 -0.29,-0.9 -0.1,-0.28 -0.2,-0.56 -0.29,-0.84 -0.18,-0.57 -0.36,-1.13 -0.55,-1.7 -0.19,-0.57 -0.38,-1.16 -0.57,-1.77 -0.1,-0.27 -0.2,-0.58 -0.31,-0.91 -0.11,-0.33 -0.22,-0.69 -0.34,-1.06 -0.06,-0.19 -0.1,-0.35 -0.13,-0.45 -0.03,-0.11 -0.06,-0.21 -0.1,-0.32 -0.04,-0.11 -0.08,-0.23 -0.13,-0.37 -0.05,-0.14 -0.11,-0.33 -0.19,-0.59 -0.21,0.65 -0.41,1.24 -0.6,1.79 -0.19,0.55 -0.36,1.06 -0.52,1.53 -0.04,0.12 -0.07,0.23 -0.09,0.32 -0.02,0.1 -0.05,0.2 -0.09,0.29 -0.1,0.33 -0.2,0.65 -0.31,0.94 -0.11,0.29 -0.21,0.59 -0.31,0.88 -0.1,0.31 -0.2,0.62 -0.29,0.91 -0.1,0.29 -0.2,0.58 -0.29,0.85 -0.2,0.59 -0.4,1.21 -0.6,1.85 -0.21,0.65 -0.44,1.32 -0.69,2.03 -0.26,0.7 -0.52,1.46 -0.8,2.28 -0.27,0.81 -0.63,1.84 -1.06,3.07l11.29 0zm-8.56 27.46c-0.21,0 -0.32,-0.11 -0.32,-0.32l0 -5.67c0,-0.22 0.11,-0.32 0.32,-0.32l5.7 0c0.2,0 0.29,0.11 0.29,0.32l0 5.67c0,0.22 -0.1,0.32 -0.29,0.32l-5.7 0zm26.4 -11.58c-0.23,0 -0.35,-0.12 -0.35,-0.36l0 -42.13c0,-0.24 0.12,-0.35 0.35,-0.35l6.38 0c0.24,0 0.35,0.12 0.35,0.35l0 42.13c0,0.24 -0.12,0.36 -0.35,0.36l-6.38 0zm30.05 0c-0.23,0 -0.35,-0.12 -0.35,-0.36l0 -42.13c0,-0.24 0.12,-0.35 0.35,-0.35l6.38 0c0.24,0 0.35,0.12 0.35,0.35l0 35.78 20.2 0c0.23,0 0.35,0.12 0.35,0.35l0 6c0,0.24 -0.12,0.36 -0.35,0.36l-26.93 0zm37.04 -46.63c-0.18,0 -0.29,-0.07 -0.34,-0.22 -0.05,-0.15 -0,-0.27 0.13,-0.36l8.64 -6.85 3.94 0 8.76 6.85c0.14,0.1 0.18,0.22 0.13,0.36 -0.05,0.15 -0.15,0.22 -0.31,0.22l-4.97 0 -5.85 -3.14c-0.86,0.53 -1.74,1.06 -2.62,1.59 -0.88,0.53 -1.76,1.05 -2.62,1.56l-4.91 0zm-5.2 24.88c0,-2.57 0.03,-4.66 0.1,-6.29 0.07,-1.63 0.16,-2.81 0.28,-3.56 0.14,-0.74 0.33,-1.46 0.59,-2.15 0.25,-0.69 0.57,-1.36 0.94,-2.03l-0.03 0c1.02,-1.9 2.67,-3.66 4.94,-5.29 2.29,-1.65 5.14,-2.47 8.56,-2.47 3.37,0 6.2,0.82 8.5,2.47 2.31,1.67 3.98,3.43 5,5.29 0.72,1.33 1.21,2.73 1.47,4.18 0.14,0.74 0.24,1.93 0.31,3.56 0.07,1.63 0.1,3.73 0.1,6.29 0,5.04 -0.14,8.33 -0.41,9.88 -0.14,0.77 -0.33,1.49 -0.57,2.17 -0.25,0.69 -0.53,1.34 -0.87,1.97 -1.04,1.88 -2.72,3.65 -5.03,5.29 -2.31,1.63 -5.14,2.44 -8.5,2.44 -3.39,0 -6.24,-0.81 -8.56,-2.44 -2.27,-1.61 -3.92,-3.37 -4.94,-5.29l0.03 0c-0.37,-0.67 -0.69,-1.34 -0.94,-2.01 -0.25,-0.68 -0.45,-1.39 -0.59,-2.13 -0.12,-0.74 -0.21,-1.94 -0.28,-3.57 -0.07,-1.64 -0.1,-3.74 -0.1,-6.31zm7.09 0c0,2.14 0.03,3.9 0.09,5.28 0.06,1.38 0.16,2.4 0.32,3.07 0.16,0.61 0.38,1.21 0.66,1.81 0.28,0.6 0.6,1.12 0.96,1.57 0.63,0.82 1.46,1.52 2.5,2.1 1.04,0.58 2.29,0.87 3.76,0.87 1.45,0 2.69,-0.29 3.73,-0.87 1.04,-0.58 1.86,-1.28 2.47,-2.1 0.82,-1 1.36,-2.13 1.62,-3.38 0.31,-1.26 0.47,-4.04 0.47,-8.35 0,-2.14 -0.04,-3.9 -0.12,-5.28 -0.08,-1.38 -0.19,-2.39 -0.35,-3.04 -0.14,-0.63 -0.34,-1.24 -0.62,-1.84 -0.27,-0.6 -0.6,-1.13 -0.97,-1.6 -0.29,-0.37 -0.65,-0.74 -1.07,-1.09 -0.42,-0.35 -0.9,-0.66 -1.43,-0.93 -0.53,-0.26 -1.11,-0.48 -1.74,-0.65 -0.63,-0.17 -1.29,-0.25 -2,-0.25 -1.47,0 -2.72,0.29 -3.76,0.88 -1.04,0.59 -1.87,1.26 -2.5,2.03 -0.37,0.47 -0.7,1 -0.97,1.6 -0.27,0.6 -0.49,1.21 -0.65,1.84 -0.16,0.66 -0.26,1.69 -0.32,3.08 -0.06,1.39 -0.09,3.14 -0.09,5.24zm5.32 33.34c-0.22,0 -0.32,-0.11 -0.32,-0.32l0 -5.67c0,-0.22 0.11,-0.32 0.32,-0.32l5.7 0c0.2,0 0.3,0.11 0.3,0.32l0 5.67c0,0.22 -0.1,0.32 -0.3,0.32l-5.7 0z"/>
   <path class="fil3" d="M281.86 169.55c-0.24,0 -0.36,-0.12 -0.36,-0.35l0 -36.11 -11.2 0c-0.24,0 -0.36,-0.12 -0.36,-0.35l0 -5.67c0,-0.24 0.12,-0.35 0.36,-0.35l29.46 0c0.24,0 0.35,0.12 0.35,0.35l0 5.67c0,0.23 -0.12,0.35 -0.35,0.35l-11.17 0 0 36.11c0,0.24 -0.12,0.35 -0.35,0.35l-6.38 0zm46 0c-0.23,0 -0.35,-0.12 -0.35,-0.35l0 -18.05 -16.02 0 0 18.05c0,0.24 -0.12,0.35 -0.35,0.35l-6.38 0c-0.23,0 -0.35,-0.12 -0.35,-0.35l0 -42.13c0,-0.24 0.12,-0.35 0.35,-0.35l6.38 0c0.24,0 0.35,0.12 0.35,0.35l0 17.7 16.02 0 0 -17.7c0,-0.24 0.12,-0.35 0.35,-0.35l6.38 0c0.23,0 0.35,0.12 0.35,0.35l0 42.13c0,0.24 -0.12,0.35 -0.35,0.35l-6.38 0zm11.75 -0.03c-0.14,0 -0.23,-0.05 -0.29,-0.15 -0.06,-0.1 -0.07,-0.21 -0.03,-0.32l15.41 -42.16c0.04,-0.16 0.14,-0.23 0.29,-0.23l5.26 0c0.06,0 0.12,0.02 0.19,0.07 0.07,0.05 0.11,0.1 0.13,0.16l15.38 42.16c0.04,0.12 0.03,0.23 -0.03,0.32 -0.06,0.1 -0.15,0.15 -0.26,0.15l-6.73 0c-0.16,0 -0.25,-0.08 -0.29,-0.23l-3.17 -9.29 -15.53 0c-0.55,1.59 -1.09,3.14 -1.63,4.66 -0.54,1.52 -1.08,3.07 -1.63,4.63 -0.02,0.06 -0.06,0.11 -0.13,0.16 -0.07,0.05 -0.13,0.07 -0.19,0.07l-6.73 0zm23.73 -15.85c-0.04,-0.14 -0.09,-0.28 -0.16,-0.44 -0.07,-0.16 -0.12,-0.29 -0.16,-0.41 -0.33,-0.96 -0.64,-1.85 -0.91,-2.66 -0.27,-0.81 -0.52,-1.52 -0.74,-2.13 -0.14,-0.39 -0.27,-0.77 -0.39,-1.15 -0.13,-0.37 -0.25,-0.72 -0.37,-1.06 -0.1,-0.31 -0.2,-0.61 -0.3,-0.9 -0.1,-0.28 -0.2,-0.56 -0.29,-0.84 -0.18,-0.57 -0.36,-1.13 -0.55,-1.7 -0.19,-0.57 -0.38,-1.16 -0.57,-1.77 -0.1,-0.27 -0.2,-0.58 -0.31,-0.91 -0.11,-0.33 -0.22,-0.69 -0.34,-1.06 -0.06,-0.19 -0.1,-0.35 -0.13,-0.45 -0.03,-0.11 -0.06,-0.21 -0.1,-0.32 -0.04,-0.11 -0.08,-0.23 -0.13,-0.37 -0.05,-0.14 -0.11,-0.33 -0.19,-0.59 -0.22,0.65 -0.42,1.24 -0.6,1.79 -0.19,0.55 -0.36,1.06 -0.51,1.53 -0.04,0.12 -0.07,0.23 -0.09,0.32 -0.02,0.1 -0.05,0.2 -0.09,0.3 -0.1,0.33 -0.2,0.65 -0.31,0.94 -0.11,0.29 -0.21,0.59 -0.31,0.88 -0.1,0.31 -0.2,0.62 -0.29,0.91 -0.1,0.29 -0.19,0.58 -0.29,0.85 -0.2,0.59 -0.4,1.21 -0.6,1.85 -0.21,0.65 -0.44,1.32 -0.69,2.03 -0.25,0.7 -0.52,1.46 -0.79,2.28 -0.28,0.81 -0.63,1.84 -1.06,3.07l11.29 0zm-10.7 -38.81c0.47,2.33 2.14,3.51 5,3.53 2.98,-0.04 4.54,-1.22 4.68,-3.53l4.23 0c0,1.27 -0.23,2.35 -0.69,3.22 -0.46,0.87 -1.09,1.71 -1.9,2.51 -1.59,1.51 -3.65,2.28 -6.18,2.32 -2.69,-0.04 -4.88,-0.79 -6.59,-2.26 -0.78,-0.78 -1.39,-1.55 -1.82,-2.29 -0.43,-0.74 -0.66,-1.91 -0.68,-3.5l3.94 0zm28.65 54.69c-0.23,0 -0.35,-0.12 -0.35,-0.35l0 -42.13c0,-0.24 0.12,-0.35 0.35,-0.35l6.06 0c0.12,0 0.21,0.06 0.29,0.18l18.52 29.17 0 -28.99c0,-0.24 0.12,-0.35 0.35,-0.35l6.41 0c0.24,0 0.36,0.12 0.36,0.35l0 42.13c0,0.24 -0.12,0.35 -0.36,0.35l-6.03 0c-0.12,0 -0.21,-0.06 -0.29,-0.18l-18.58 -29.17 0 28.99c0,0.24 -0.11,0.35 -0.32,0.35l-6.41 0zm54.82 -17.14c-0.23,0 -0.35,-0.12 -0.35,-0.36l0 -6.05c0,-0.22 0.12,-0.32 0.35,-0.32l14.97 0c0.24,0 0.35,0.11 0.35,0.32l0 8.58c0,4.33 -1.49,7.96 -4.47,10.88 -3.02,2.96 -6.66,4.44 -10.91,4.44 -3.39,0 -6.24,-0.81 -8.56,-2.44 -2.27,-1.61 -3.92,-3.37 -4.94,-5.29l0.03 0c-0.37,-0.67 -0.68,-1.34 -0.94,-2.01 -0.25,-0.68 -0.45,-1.39 -0.59,-2.13 -0.12,-0.74 -0.21,-1.94 -0.28,-3.57 -0.07,-1.64 -0.1,-3.74 -0.1,-6.31 0,-2.57 0.03,-4.66 0.1,-6.29 0.07,-1.63 0.16,-2.81 0.28,-3.56 0.14,-0.74 0.33,-1.46 0.59,-2.15 0.26,-0.68 0.57,-1.36 0.94,-2.03l-0.03 0c1.02,-1.9 2.67,-3.67 4.94,-5.29 2.29,-1.65 5.15,-2.47 8.56,-2.47 4.08,0 7.45,1.25 10.11,3.76 2.71,2.51 4.38,5.51 5.03,9 0.04,0.12 0.02,0.22 -0.06,0.29 -0.08,0.08 -0.18,0.12 -0.29,0.12l-6.73 0c-0.18,0 -0.28,-0.08 -0.32,-0.23 -0.25,-0.79 -0.62,-1.52 -1.09,-2.19 -0.47,-0.68 -1.05,-1.31 -1.73,-1.9 -1.29,-1.15 -2.93,-1.73 -4.91,-1.73 -1.47,0 -2.72,0.29 -3.76,0.88 -1.04,0.59 -1.87,1.27 -2.5,2.03 -0.37,0.47 -0.7,1 -0.97,1.6 -0.27,0.6 -0.49,1.21 -0.65,1.84 -0.16,0.67 -0.26,1.7 -0.32,3.09 -0.06,1.39 -0.09,3.14 -0.09,5.23 0,2.14 0.03,3.9 0.09,5.28 0.06,1.38 0.16,2.41 0.32,3.07 0.16,0.61 0.38,1.21 0.66,1.81 0.29,0.6 0.6,1.12 0.96,1.57 0.63,0.82 1.46,1.52 2.5,2.1 1.04,0.58 2.29,0.87 3.76,0.87 2.33,0 4.29,-0.79 5.88,-2.38 1.61,-1.59 2.41,-3.67 2.41,-6.23l0 -1.82 -8.23 0zm37.51 17.14c-0.24,0 -0.36,-0.12 -0.36,-0.35l0 -42.13c0,-0.24 0.12,-0.35 0.36,-0.35l6.38 0c0.23,0 0.35,0.12 0.35,0.35l0 35.78 20.2 0c0.24,0 0.36,0.12 0.36,0.35l0 6c0,0.24 -0.12,0.35 -0.36,0.35l-26.93 0zm31.69 -21.41c0,-2.57 0.03,-4.66 0.1,-6.29 0.07,-1.63 0.16,-2.81 0.28,-3.56 0.14,-0.74 0.33,-1.46 0.59,-2.15 0.25,-0.68 0.57,-1.36 0.94,-2.03l-0.03 0c1.02,-1.9 2.67,-3.67 4.94,-5.29 2.29,-1.65 5.14,-2.47 8.55,-2.47 3.37,0 6.21,0.82 8.5,2.47 2.31,1.67 3.98,3.43 5,5.29 0.73,1.33 1.22,2.73 1.47,4.18 0.14,0.74 0.24,1.93 0.31,3.56 0.07,1.63 0.1,3.73 0.1,6.29 0,5.04 -0.14,8.33 -0.41,9.88 -0.14,0.77 -0.33,1.49 -0.58,2.18 -0.24,0.68 -0.53,1.34 -0.87,1.97 -1.04,1.88 -2.72,3.64 -5.03,5.29 -2.31,1.63 -5.15,2.44 -8.5,2.44 -3.39,0 -6.24,-0.81 -8.55,-2.44 -2.28,-1.61 -3.92,-3.37 -4.94,-5.29l0.03 0c-0.37,-0.67 -0.69,-1.34 -0.94,-2.01 -0.26,-0.68 -0.45,-1.39 -0.59,-2.13 -0.12,-0.74 -0.21,-1.94 -0.28,-3.57 -0.07,-1.64 -0.1,-3.74 -0.1,-6.31zm7.09 0c0,2.14 0.03,3.9 0.09,5.28 0.06,1.38 0.17,2.41 0.32,3.07 0.16,0.61 0.38,1.21 0.66,1.81 0.29,0.6 0.6,1.12 0.96,1.57 0.63,0.82 1.46,1.52 2.5,2.1 1.04,0.58 2.29,0.87 3.76,0.87 1.45,0 2.7,-0.29 3.73,-0.87 1.04,-0.58 1.86,-1.28 2.47,-2.1 0.82,-1 1.36,-2.13 1.62,-3.38 0.31,-1.25 0.47,-4.04 0.47,-8.35 0,-2.14 -0.04,-3.89 -0.12,-5.28 -0.08,-1.38 -0.2,-2.4 -0.36,-3.04 -0.14,-0.63 -0.34,-1.24 -0.62,-1.84 -0.28,-0.6 -0.6,-1.13 -0.97,-1.6 -0.29,-0.37 -0.65,-0.74 -1.07,-1.09 -0.42,-0.36 -0.9,-0.66 -1.43,-0.93 -0.53,-0.27 -1.11,-0.48 -1.73,-0.65 -0.63,-0.16 -1.29,-0.25 -2,-0.25 -1.47,0 -2.72,0.29 -3.76,0.88 -1.04,0.59 -1.87,1.27 -2.5,2.03 -0.37,0.47 -0.7,1 -0.97,1.6 -0.27,0.6 -0.49,1.21 -0.65,1.84 -0.16,0.67 -0.27,1.7 -0.32,3.09 -0.06,1.39 -0.09,3.14 -0.09,5.23zm31.41 21.41c-0.24,0 -0.36,-0.12 -0.36,-0.35l0 -42.13c0,-0.24 0.12,-0.35 0.36,-0.35l6.05 0c0.12,0 0.22,0.06 0.29,0.18l18.52 29.17 0 -28.99c0,-0.24 0.12,-0.35 0.36,-0.35l6.41 0c0.23,0 0.35,0.12 0.35,0.35l0 42.13c0,0.24 -0.12,0.35 -0.35,0.35l-6.03 0c-0.12,0 -0.22,-0.06 -0.29,-0.18l-18.58 -29.17 0 28.99c0,0.24 -0.11,0.35 -0.32,0.35l-6.41 0zm54.82 -17.14c-0.23,0 -0.35,-0.12 -0.35,-0.36l0 -6.05c0,-0.22 0.12,-0.32 0.35,-0.32l14.97 0c0.23,0 0.35,0.11 0.35,0.32l0 8.58c0,4.33 -1.49,7.96 -4.47,10.88 -3.02,2.96 -6.65,4.44 -10.91,4.44 -3.39,0 -6.24,-0.81 -8.56,-2.44 -2.27,-1.61 -3.92,-3.37 -4.94,-5.29l0.03 0c-0.37,-0.67 -0.69,-1.34 -0.94,-2.01 -0.25,-0.68 -0.45,-1.39 -0.59,-2.13 -0.12,-0.74 -0.21,-1.94 -0.28,-3.57 -0.07,-1.64 -0.1,-3.74 -0.1,-6.31 0,-2.57 0.03,-4.66 0.1,-6.29 0.07,-1.63 0.16,-2.81 0.28,-3.56 0.14,-0.74 0.33,-1.46 0.59,-2.15 0.25,-0.68 0.57,-1.36 0.94,-2.03l-0.03 0c1.02,-1.9 2.67,-3.67 4.94,-5.29 2.29,-1.65 5.15,-2.47 8.56,-2.47 4.08,0 7.45,1.25 10.11,3.76 2.71,2.51 4.38,5.51 5.03,9 0.04,0.12 0.02,0.22 -0.06,0.29 -0.08,0.08 -0.18,0.12 -0.29,0.12l-6.73 0c-0.18,0 -0.28,-0.08 -0.33,-0.23 -0.25,-0.79 -0.62,-1.52 -1.09,-2.19 -0.47,-0.68 -1.05,-1.31 -1.74,-1.9 -1.29,-1.15 -2.93,-1.73 -4.91,-1.73 -1.47,0 -2.73,0.29 -3.76,0.88 -1.04,0.59 -1.87,1.27 -2.5,2.03 -0.37,0.47 -0.7,1 -0.97,1.6 -0.27,0.6 -0.49,1.21 -0.65,1.84 -0.16,0.67 -0.26,1.7 -0.33,3.09 -0.06,1.39 -0.09,3.14 -0.09,5.23 0,2.14 0.03,3.9 0.09,5.28 0.06,1.38 0.17,2.41 0.33,3.07 0.16,0.61 0.38,1.21 0.66,1.81 0.28,0.6 0.6,1.12 0.95,1.57 0.63,0.82 1.46,1.52 2.5,2.1 1.04,0.58 2.29,0.87 3.76,0.87 2.33,0 4.29,-0.79 5.88,-2.38 1.61,-1.59 2.41,-3.67 2.41,-6.23l0 -1.82 -8.23 0z"/>
   <path class="fil3" d="M222.55 253.34c-0.02,0 -0.06,-0.01 -0.12,-0.03 -0.06,-0.02 -0.1,-0.05 -0.12,-0.09 -1.59,-1.75 -2.96,-3.58 -4.12,-5.51 -1.16,-1.93 -2.14,-3.97 -2.94,-6.1 -0.77,-2.16 -1.34,-4.27 -1.73,-6.35 -0.39,-2.08 -0.59,-4.13 -0.59,-6.17 0,-4.02 0.77,-8.19 2.32,-12.5 0.8,-2.17 1.78,-4.23 2.94,-6.16 1.16,-1.93 2.53,-3.77 4.12,-5.51 0.02,-0.04 0.06,-0.07 0.12,-0.09 0.06,-0.02 0.1,-0.03 0.12,-0.03l2.38 0c0.12,0 0.21,0.05 0.28,0.15 0.07,0.1 0.07,0.22 0.02,0.35 -1.78,3.72 -3.17,7.56 -4.15,11.5 -0.98,3.94 -1.47,8.04 -1.47,12.29 0,4.25 0.49,8.34 1.47,12.27 0.98,3.93 2.36,7.77 4.15,11.51 0.06,0.12 0.05,0.23 -0.02,0.32 -0.07,0.1 -0.16,0.15 -0.28,0.15l-2.38 0zm8.4 -6c-0.23,0 -0.35,-0.12 -0.35,-0.35l0 -42.13c0,-0.24 0.12,-0.36 0.35,-0.36l6.38 0c0.24,0 0.35,0.12 0.35,0.36l0 35.78 20.2 0c0.23,0 0.35,0.12 0.35,0.35l0 6c0,0.24 -0.12,0.35 -0.35,0.35l-26.93 0zm29.3 -0.03c-0.14,0 -0.23,-0.05 -0.29,-0.15 -0.06,-0.1 -0.07,-0.21 -0.03,-0.33l15.41 -42.16c0.04,-0.16 0.14,-0.23 0.3,-0.23l5.26 0c0.06,0 0.12,0.03 0.19,0.07 0.07,0.05 0.11,0.1 0.13,0.16l15.37 42.16c0.04,0.12 0.03,0.23 -0.03,0.33 -0.06,0.1 -0.15,0.15 -0.27,0.15l-6.73 0c-0.16,0 -0.26,-0.08 -0.29,-0.23l-3.17 -9.29 -15.53 0c-0.55,1.59 -1.09,3.14 -1.63,4.66 -0.54,1.52 -1.08,3.07 -1.63,4.63 -0.02,0.06 -0.06,0.11 -0.13,0.16 -0.07,0.05 -0.13,0.07 -0.19,0.07l-6.73 0zm23.73 -15.85c-0.04,-0.14 -0.09,-0.29 -0.16,-0.44 -0.07,-0.16 -0.12,-0.29 -0.16,-0.41 -0.33,-0.96 -0.64,-1.85 -0.91,-2.66 -0.27,-0.81 -0.52,-1.52 -0.74,-2.13 -0.14,-0.39 -0.27,-0.77 -0.4,-1.15 -0.13,-0.37 -0.25,-0.72 -0.37,-1.06 -0.1,-0.31 -0.19,-0.61 -0.29,-0.9 -0.1,-0.28 -0.2,-0.56 -0.29,-0.84 -0.18,-0.57 -0.36,-1.13 -0.55,-1.7 -0.19,-0.57 -0.38,-1.16 -0.57,-1.77 -0.1,-0.27 -0.2,-0.58 -0.31,-0.91 -0.11,-0.33 -0.22,-0.69 -0.34,-1.06 -0.06,-0.19 -0.1,-0.35 -0.13,-0.46 -0.03,-0.11 -0.06,-0.21 -0.1,-0.32 -0.04,-0.11 -0.08,-0.23 -0.13,-0.37 -0.05,-0.14 -0.11,-0.33 -0.19,-0.59 -0.21,0.65 -0.41,1.24 -0.6,1.79 -0.19,0.55 -0.36,1.06 -0.52,1.53 -0.04,0.12 -0.07,0.23 -0.09,0.33 -0.02,0.1 -0.05,0.2 -0.09,0.29 -0.1,0.33 -0.2,0.65 -0.31,0.94 -0.11,0.29 -0.21,0.59 -0.31,0.88 -0.1,0.31 -0.2,0.62 -0.29,0.91 -0.1,0.29 -0.2,0.58 -0.29,0.85 -0.2,0.59 -0.4,1.21 -0.6,1.85 -0.21,0.65 -0.44,1.32 -0.69,2.03 -0.26,0.71 -0.52,1.46 -0.8,2.28 -0.27,0.81 -0.63,1.84 -1.06,3.08l11.29 0zm-12.06 -30.76c-0.16,0 -0.26,-0.05 -0.31,-0.16 -0.05,-0.11 -0.04,-0.23 0.01,-0.37l6.15 -8.58c0.08,-0.12 0.18,-0.18 0.29,-0.18l6.47 0c0.16,0 0.27,0.07 0.34,0.21 0.07,0.14 0.04,0.26 -0.07,0.38l-8.12 8.58c-0.02,0.02 -0.06,0.04 -0.12,0.07 -0.06,0.03 -0.11,0.04 -0.15,0.04l-4.5 0zm29.99 46.63c-0.24,0 -0.36,-0.12 -0.36,-0.35l0 -42.13c0,-0.24 0.12,-0.36 0.36,-0.36l6.05 0c0.12,0 0.22,0.06 0.29,0.18l18.52 29.17 0 -28.99c0,-0.24 0.12,-0.36 0.36,-0.36l6.41 0c0.23,0 0.35,0.12 0.35,0.36l0 42.13c0,0.24 -0.12,0.35 -0.35,0.35l-6.03 0c-0.12,0 -0.22,-0.06 -0.29,-0.18l-18.58 -29.17 0 28.99c0,0.24 -0.11,0.35 -0.32,0.35l-6.41 0zm54.83 -17.14c-0.23,0 -0.35,-0.12 -0.35,-0.35l0 -6.06c0,-0.22 0.12,-0.32 0.35,-0.32l14.97 0c0.23,0 0.35,0.11 0.35,0.32l0 8.58c0,4.33 -1.49,7.96 -4.47,10.88 -3.02,2.96 -6.65,4.44 -10.91,4.44 -3.39,0 -6.24,-0.81 -8.56,-2.44 -2.28,-1.61 -3.92,-3.37 -4.94,-5.29l0.03 0c-0.37,-0.67 -0.69,-1.34 -0.94,-2.01 -0.25,-0.68 -0.45,-1.39 -0.59,-2.13 -0.12,-0.74 -0.21,-1.93 -0.28,-3.57 -0.07,-1.64 -0.1,-3.74 -0.1,-6.31 0,-2.57 0.03,-4.67 0.1,-6.29 0.07,-1.63 0.16,-2.81 0.28,-3.56 0.14,-0.74 0.33,-1.46 0.59,-2.15 0.25,-0.69 0.57,-1.36 0.94,-2.03l-0.03 0c1.02,-1.9 2.67,-3.67 4.94,-5.29 2.29,-1.65 5.14,-2.47 8.56,-2.47 4.08,0 7.45,1.25 10.11,3.76 2.7,2.51 4.38,5.51 5.03,9 0.04,0.12 0.02,0.22 -0.06,0.29 -0.08,0.08 -0.17,0.12 -0.29,0.12l-6.73 0c-0.18,0 -0.28,-0.08 -0.32,-0.23 -0.25,-0.78 -0.62,-1.51 -1.09,-2.19 -0.47,-0.68 -1.05,-1.31 -1.74,-1.9 -1.29,-1.15 -2.93,-1.73 -4.91,-1.73 -1.47,0 -2.73,0.29 -3.76,0.88 -1.04,0.59 -1.87,1.27 -2.5,2.03 -0.37,0.47 -0.7,1 -0.97,1.6 -0.28,0.6 -0.49,1.21 -0.65,1.84 -0.16,0.67 -0.26,1.7 -0.32,3.09 -0.06,1.39 -0.09,3.14 -0.09,5.23 0,2.14 0.03,3.9 0.09,5.28 0.06,1.38 0.17,2.41 0.32,3.07 0.16,0.61 0.38,1.21 0.66,1.81 0.28,0.6 0.6,1.12 0.96,1.57 0.63,0.82 1.46,1.52 2.5,2.1 1.04,0.58 2.29,0.87 3.76,0.87 2.33,0 4.29,-0.79 5.88,-2.38 1.61,-1.59 2.41,-3.67 2.41,-6.23l0 -1.82 -8.23 0zm36.13 3.88c-0.22,0 -0.32,-0.12 -0.32,-0.36l0 -6c0,-0.23 0.11,-0.35 0.32,-0.35l17.73 0c0.23,0 0.35,0.12 0.35,0.35l0 6c0,0.24 -0.12,0.36 -0.35,0.36l-17.73 0zm63.4 13.26c-0.23,0 -0.35,-0.12 -0.35,-0.35l0 -18.05 -16.03 0 0 18.05c0,0.24 -0.12,0.35 -0.35,0.35l-6.38 0c-0.23,0 -0.35,-0.12 -0.35,-0.35l0 -42.13c0,-0.24 0.12,-0.36 0.35,-0.36l6.38 0c0.24,0 0.35,0.12 0.35,0.36l0 17.7 16.03 0 0 -17.7c0,-0.24 0.12,-0.36 0.35,-0.36l6.38 0c0.23,0 0.35,0.12 0.35,0.36l0 42.13c0,0.24 -0.12,0.35 -0.35,0.35l-6.38 0zm14.13 -21.41c0,-2.57 0.03,-4.67 0.1,-6.29 0.07,-1.63 0.16,-2.81 0.28,-3.56 0.14,-0.74 0.33,-1.46 0.58,-2.15 0.26,-0.69 0.57,-1.36 0.94,-2.03l-0.03 0c1.02,-1.9 2.67,-3.67 4.94,-5.29 2.3,-1.65 5.15,-2.47 8.56,-2.47 3.37,0 6.2,0.82 8.5,2.47 2.31,1.67 3.98,3.43 5,5.29 0.72,1.33 1.22,2.72 1.47,4.17 0.14,0.74 0.24,1.93 0.31,3.56 0.07,1.63 0.1,3.73 0.1,6.29 0,5.04 -0.14,8.33 -0.41,9.88 -0.14,0.77 -0.33,1.49 -0.58,2.18 -0.25,0.68 -0.53,1.34 -0.87,1.97 -1.04,1.88 -2.72,3.64 -5.03,5.29 -2.31,1.63 -5.14,2.44 -8.5,2.44 -3.39,0 -6.24,-0.81 -8.56,-2.44 -2.27,-1.61 -3.92,-3.37 -4.94,-5.29l0.03 0c-0.37,-0.67 -0.69,-1.34 -0.94,-2.01 -0.25,-0.68 -0.45,-1.39 -0.58,-2.13 -0.12,-0.74 -0.21,-1.93 -0.28,-3.57 -0.07,-1.64 -0.1,-3.74 -0.1,-6.31zm7.09 0c0,2.14 0.03,3.9 0.09,5.28 0.06,1.38 0.17,2.41 0.32,3.07 0.16,0.61 0.38,1.21 0.66,1.81 0.29,0.6 0.6,1.12 0.96,1.57 0.63,0.82 1.46,1.52 2.5,2.1 1.04,0.58 2.29,0.87 3.76,0.87 1.45,0 2.69,-0.29 3.73,-0.87 1.04,-0.58 1.86,-1.28 2.47,-2.1 0.82,-1 1.37,-2.13 1.62,-3.38 0.31,-1.25 0.47,-4.04 0.47,-8.35 0,-2.14 -0.04,-3.9 -0.12,-5.28 -0.08,-1.38 -0.19,-2.4 -0.35,-3.04 -0.14,-0.63 -0.34,-1.24 -0.62,-1.84 -0.27,-0.6 -0.6,-1.13 -0.97,-1.6 -0.29,-0.37 -0.65,-0.74 -1.07,-1.09 -0.42,-0.36 -0.9,-0.66 -1.43,-0.93 -0.53,-0.27 -1.11,-0.48 -1.73,-0.65 -0.63,-0.16 -1.29,-0.25 -2,-0.25 -1.47,0 -2.72,0.29 -3.76,0.88 -1.04,0.59 -1.87,1.27 -2.5,2.03 -0.37,0.47 -0.7,1 -0.97,1.6 -0.27,0.6 -0.49,1.21 -0.65,1.84 -0.16,0.67 -0.27,1.7 -0.32,3.09 -0.06,1.39 -0.09,3.14 -0.09,5.23zm27.26 21.38c-0.14,0 -0.23,-0.05 -0.29,-0.15 -0.06,-0.1 -0.07,-0.21 -0.03,-0.33l15.4 -42.16c0.04,-0.16 0.14,-0.23 0.29,-0.23l5.26 0c0.06,0 0.12,0.03 0.19,0.07 0.07,0.05 0.11,0.1 0.13,0.16l15.38 42.16c0.04,0.12 0.03,0.23 -0.03,0.33 -0.06,0.1 -0.15,0.15 -0.26,0.15l-6.73 0c-0.16,0 -0.25,-0.08 -0.29,-0.23l-3.17 -9.29 -15.53 0c-0.55,1.59 -1.09,3.14 -1.63,4.66 -0.54,1.52 -1.08,3.07 -1.63,4.63 -0.02,0.06 -0.06,0.11 -0.13,0.16 -0.07,0.05 -0.13,0.07 -0.19,0.07l-6.73 0zm23.73 -15.85c-0.04,-0.14 -0.09,-0.29 -0.16,-0.44 -0.07,-0.16 -0.12,-0.29 -0.16,-0.41 -0.33,-0.96 -0.64,-1.85 -0.91,-2.66 -0.27,-0.81 -0.52,-1.52 -0.74,-2.13 -0.14,-0.39 -0.27,-0.77 -0.39,-1.15 -0.13,-0.37 -0.25,-0.72 -0.37,-1.06 -0.1,-0.31 -0.2,-0.61 -0.29,-0.9 -0.1,-0.28 -0.2,-0.56 -0.3,-0.84 -0.18,-0.57 -0.36,-1.13 -0.55,-1.7 -0.19,-0.57 -0.38,-1.16 -0.57,-1.77 -0.1,-0.27 -0.2,-0.58 -0.31,-0.91 -0.11,-0.33 -0.22,-0.69 -0.34,-1.06 -0.06,-0.19 -0.1,-0.35 -0.13,-0.46 -0.03,-0.11 -0.06,-0.21 -0.1,-0.32 -0.04,-0.11 -0.08,-0.23 -0.13,-0.37 -0.05,-0.14 -0.11,-0.33 -0.19,-0.59 -0.22,0.65 -0.42,1.24 -0.6,1.79 -0.19,0.55 -0.36,1.06 -0.51,1.53 -0.04,0.12 -0.07,0.23 -0.09,0.33 -0.02,0.1 -0.05,0.2 -0.09,0.29 -0.1,0.33 -0.2,0.65 -0.31,0.94 -0.11,0.29 -0.21,0.59 -0.31,0.88 -0.1,0.31 -0.2,0.62 -0.29,0.91 -0.1,0.29 -0.19,0.58 -0.29,0.85 -0.2,0.59 -0.4,1.21 -0.6,1.85 -0.21,0.65 -0.44,1.32 -0.69,2.03 -0.25,0.71 -0.52,1.46 -0.79,2.28 -0.28,0.81 -0.63,1.84 -1.06,3.08l11.29 0zm-3.88 -30.76c-0.04,0 -0.09,-0.01 -0.15,-0.04 -0.06,-0.03 -0.1,-0.05 -0.12,-0.07l-8.12 -8.58c-0.12,-0.12 -0.14,-0.25 -0.07,-0.38 0.07,-0.14 0.18,-0.21 0.34,-0.21l6.47 0c0.12,0 0.21,0.06 0.29,0.18l6.15 8.58c0.06,0.14 0.06,0.26 0.01,0.37 -0.05,0.11 -0.15,0.16 -0.31,0.16l-4.5 0zm36.24 46.63c-0.24,0 -0.35,-0.12 -0.35,-0.35l0 -42.13c0,-0.24 0.12,-0.36 0.35,-0.36l6.38 0c0.23,0 0.35,0.12 0.35,0.36l0 35.78 20.2 0c0.24,0 0.36,0.12 0.36,0.35l0 6c0,0.24 -0.12,0.35 -0.36,0.35l-26.93 0zm29.32 -0.03c-0.14,0 -0.24,-0.05 -0.29,-0.15 -0.06,-0.1 -0.07,-0.21 -0.03,-0.33l15.41 -42.16c0.04,-0.16 0.14,-0.23 0.29,-0.23l5.26 0c0.06,0 0.12,0.03 0.19,0.07 0.07,0.05 0.11,0.1 0.13,0.16l15.38 42.16c0.04,0.12 0.03,0.23 -0.03,0.33 -0.06,0.1 -0.15,0.15 -0.26,0.15l-6.73 0c-0.16,0 -0.26,-0.08 -0.29,-0.23l-3.18 -9.29 -15.52 0c-0.55,1.59 -1.09,3.14 -1.63,4.66 -0.54,1.52 -1.08,3.07 -1.63,4.63 -0.02,0.06 -0.06,0.11 -0.13,0.16 -0.07,0.05 -0.13,0.07 -0.19,0.07l-6.73 0zm23.73 -15.85c-0.04,-0.14 -0.09,-0.29 -0.16,-0.44 -0.07,-0.16 -0.12,-0.29 -0.16,-0.41 -0.33,-0.96 -0.64,-1.85 -0.91,-2.66 -0.28,-0.81 -0.52,-1.52 -0.74,-2.13 -0.14,-0.39 -0.27,-0.77 -0.4,-1.15 -0.13,-0.37 -0.25,-0.72 -0.37,-1.06 -0.1,-0.31 -0.2,-0.61 -0.29,-0.9 -0.1,-0.28 -0.2,-0.56 -0.29,-0.84 -0.18,-0.57 -0.36,-1.13 -0.54,-1.7 -0.19,-0.57 -0.38,-1.16 -0.57,-1.77 -0.1,-0.27 -0.2,-0.58 -0.31,-0.91 -0.11,-0.33 -0.22,-0.69 -0.34,-1.06 -0.06,-0.19 -0.1,-0.35 -0.13,-0.46 -0.03,-0.11 -0.07,-0.21 -0.1,-0.32 -0.04,-0.11 -0.08,-0.23 -0.13,-0.37 -0.05,-0.14 -0.11,-0.33 -0.19,-0.59 -0.22,0.65 -0.42,1.24 -0.6,1.79 -0.19,0.55 -0.36,1.06 -0.51,1.53 -0.04,0.12 -0.07,0.23 -0.09,0.33 -0.02,0.1 -0.05,0.2 -0.09,0.29 -0.1,0.33 -0.2,0.65 -0.31,0.94 -0.11,0.29 -0.21,0.59 -0.31,0.88 -0.1,0.31 -0.2,0.62 -0.29,0.91 -0.1,0.29 -0.2,0.58 -0.29,0.85 -0.2,0.59 -0.4,1.21 -0.6,1.85 -0.21,0.65 -0.44,1.32 -0.69,2.03 -0.25,0.71 -0.52,1.46 -0.79,2.28 -0.27,0.81 -0.63,1.84 -1.06,3.08l11.29 0zm-8.56 27.46c-0.22,0 -0.32,-0.11 -0.32,-0.33l0 -5.67c0,-0.22 0.11,-0.32 0.32,-0.32l5.7 0c0.2,0 0.29,0.11 0.29,0.32l0 5.67c0,0.22 -0.1,0.33 -0.29,0.33l-5.7 0zm54.89 -24.05c0.12,0 0.21,0.04 0.29,0.13 0.08,0.09 0.1,0.19 0.06,0.31 -0.82,4 -2.65,7.08 -5.47,9.23 -1.37,1.04 -2.86,1.82 -4.47,2.35 -1.61,0.53 -3.34,0.79 -5.2,0.79 -3.39,0 -6.24,-0.81 -8.56,-2.44 -2.27,-1.61 -3.92,-3.37 -4.94,-5.29 -0.36,-0.67 -0.66,-1.34 -0.91,-2.01 -0.25,-0.68 -0.45,-1.39 -0.59,-2.13 -0.25,-1.45 -0.38,-4.74 -0.38,-9.88 0,-2.57 0.03,-4.67 0.09,-6.29 0.06,-1.63 0.16,-2.81 0.29,-3.56 0.14,-0.74 0.33,-1.46 0.59,-2.15 0.25,-0.69 0.56,-1.36 0.91,-2.03 1.02,-1.9 2.67,-3.67 4.94,-5.29 2.29,-1.65 5.14,-2.47 8.56,-2.47 4.08,0 7.45,1.25 10.11,3.76 2.71,2.53 4.38,5.53 5.03,9 0.04,0.12 0.02,0.22 -0.06,0.29 -0.08,0.08 -0.17,0.12 -0.29,0.12l-6.73 0c-0.18,0 -0.28,-0.08 -0.33,-0.23 -0.25,-0.78 -0.62,-1.51 -1.09,-2.19 -0.47,-0.68 -1.05,-1.31 -1.74,-1.9 -1.29,-1.15 -2.93,-1.73 -4.91,-1.73 -1.47,0 -2.72,0.29 -3.76,0.88 -1.04,0.59 -1.87,1.27 -2.5,2.03 -0.37,0.47 -0.7,1 -0.97,1.6 -0.27,0.6 -0.49,1.21 -0.65,1.84 -0.16,0.67 -0.26,1.7 -0.32,3.09 -0.06,1.39 -0.09,3.14 -0.09,5.23 0,2.14 0.03,3.9 0.09,5.28 0.06,1.38 0.16,2.41 0.32,3.07 0.16,0.61 0.38,1.21 0.66,1.81 0.28,0.6 0.6,1.12 0.96,1.57 0.63,0.82 1.46,1.52 2.5,2.1 1.04,0.58 2.29,0.87 3.76,0.87 3.39,0 5.97,-1.85 7.73,-5.56 0.04,-0.04 0.09,-0.08 0.15,-0.13 0.06,-0.05 0.12,-0.07 0.18,-0.07l6.73 0zm4.08 -30.08c0.04,0 0.09,0.01 0.15,0.03 0.06,0.02 0.1,0.05 0.12,0.09 3.08,3.45 5.41,7.34 7,11.67 0.8,2.14 1.4,4.24 1.78,6.32 0.38,2.08 0.58,4.14 0.58,6.18 0,2.04 -0.19,4.1 -0.58,6.17 -0.38,2.08 -0.97,4.2 -1.78,6.35 -1.61,4.29 -3.94,8.16 -7,11.61 -0.02,0.04 -0.06,0.07 -0.12,0.09 -0.06,0.02 -0.11,0.03 -0.15,0.03l-2.36 0c-0.14,0 -0.24,-0.05 -0.31,-0.15 -0.07,-0.1 -0.07,-0.21 -0.01,-0.32 1.72,-3.72 3.09,-7.55 4.1,-11.48 1.01,-3.93 1.51,-8.03 1.51,-12.3 0,-4.27 -0.5,-8.38 -1.51,-12.32 -1.01,-3.94 -2.38,-7.76 -4.1,-11.47 -0.06,-0.14 -0.05,-0.25 0.01,-0.35 0.07,-0.1 0.17,-0.15 0.31,-0.15l2.36 0z"/>
   <circle id="circle-3" class="fil5" cx="408.8" cy="475.7" r="77.9"/>
   <circle id="circle-4" class="fil3" cx="408.8" cy="475.7" r="55.64"/>
   <path class="fil4" d="M370.68 505.98c-0.31,0 -0.47,-0.16 -0.47,-0.48l0 -47.29c-1.22,0.9 -2.45,1.81 -3.67,2.73 -1.21,0.91 -2.43,1.81 -3.66,2.69 -0.19,0.12 -0.37,0.15 -0.52,0.05 -0.16,-0.1 -0.24,-0.25 -0.24,-0.46l0 -8.64c0,-0.04 0.03,-0.11 0.07,-0.19 0.04,-0.08 0.08,-0.15 0.14,-0.2l8.19 -5.92 8.33 0c0.31,0 0.48,0.15 0.48,0.48l0 56.76c0,0.31 -0.16,0.48 -0.48,0.48l-8.17 0z"/>
   <path id="_1_0" class="fil4" d="M411.55 465.02c0,-2.57 -0.68,-4.58 -2.04,-6.03 -1.37,-1.44 -3.19,-2.16 -5.48,-2.16 -2.28,0 -4.1,0.72 -5.46,2.16 -1.35,1.45 -2.02,3.46 -2.02,6.03l0 24.09c0,2.59 0.68,4.61 2.02,6.05 1.36,1.43 3.18,2.15 5.46,2.15 2.28,0 4.1,-0.72 5.48,-2.15 1.36,-1.44 2.04,-3.45 2.04,-6.05l0 -24.09zm-24.08 -0.48c0,-5.37 1.68,-9.48 5.05,-12.38 3.34,-2.95 7.17,-4.42 11.51,-4.42 2.15,0 4.18,0.37 6.1,1.13 1.93,0.76 3.72,1.85 5.39,3.29 1.68,1.48 2.95,3.26 3.8,5.31 0.87,2.05 1.29,4.42 1.29,7.06l0 25.04c0,5.33 -1.7,9.46 -5.1,12.38 -3.34,2.92 -7.17,4.37 -11.49,4.37 -4.33,0 -8.16,-1.45 -11.51,-4.37 -3.37,-2.89 -5.05,-7.02 -5.05,-12.38l0 -25.04z"/>
   <path id="_2_1" class="fil4" d="M450.68 465.02c0,-2.57 -0.68,-4.58 -2.04,-6.03 -1.37,-1.44 -3.19,-2.16 -5.48,-2.16 -2.28,0 -4.1,0.72 -5.46,2.16 -1.35,1.45 -2.02,3.46 -2.02,6.03l0 24.09c0,2.59 0.68,4.61 2.02,6.05 1.36,1.43 3.18,2.15 5.46,2.15 2.28,0 4.1,-0.72 5.48,-2.15 1.36,-1.44 2.04,-3.45 2.04,-6.05l0 -24.09zm-24.08 -0.48c0,-5.37 1.68,-9.48 5.05,-12.38 3.34,-2.95 7.17,-4.42 11.51,-4.42 2.15,0 4.18,0.37 6.1,1.13 1.93,0.76 3.72,1.85 5.39,3.29 1.68,1.48 2.95,3.26 3.8,5.31 0.87,2.05 1.29,4.42 1.29,7.06l0 25.04c0,5.33 -1.7,9.46 -5.1,12.38 -3.34,2.92 -7.17,4.37 -11.49,4.37 -4.33,0 -8.16,-1.45 -11.51,-4.37 -3.37,-2.89 -5.05,-7.02 -5.05,-12.38l0 -25.04z"/>
  </g>
 </g>
</svg>
