<?xml version="1.0" encoding="utf-8"?>
<svg viewBox="0 0 323.14914 200" xmlns="http://www.w3.org/2000/svg">
  <g id="layer1" transform="matrix(0.9999999999999999, 0, 0, 0.9999999999999999, -303.4596862792969, -22.960700988769517)">
    <path id="rect15575" style="opacity:1;fill:#0a9646;fill-opacity:1;fill-rule:evenodd;stroke-width:0.0420687;stroke-linecap:square;stroke-miterlimit:10;paint-order:stroke fill markers" d="M 303.45966,22.960701 H 626.6088 V 222.9607 H 303.45966 Z"/>
    <path transform="matrix(0.26458333,0,0,0.26458333,303.45966,22.960701)" d="m 30.353516,5.0117188 c -13.808655,0 -25.0781254,11.2674112 -25.0781254,25.0761722 v 332.957029 47.1211 49.04296 13.88672 252.45508 c 0,13.80862 11.2694704,25.06641 25.0781254,25.06641 H 1190.9805 c 13.8086,0 25.0781,-11.25779 25.0781,-25.06641 V 473.0957 459.57031 401.94727 363.04492 30.087891 c 0,-13.808761 -11.2695,-25.0761722 -25.0781,-25.0761722 z m 0,9.4511722 H 1190.9805 c 8.7398,0 15.6425,6.885058 15.6425,15.625 v 332.957029 38.90235 c 0,0.29959 -0.013,0.61475 -0.037,0.9375 v 7.20703 c 0,8.68754 -6.9941,15.68164 -15.6816,15.68164 h -8.0762 c -0.1869,0.007 -0.3766,0.0176 -0.5586,0.0176 H 38.023438 c -0.18105,0 -0.371847,-0.0102 -0.560547,-0.0176 h -7.097657 c -8.687546,0 -15.68164,-6.9941 -15.68164,-15.68164 V 30.152344 c 0,-1.658433 0.257595,-3.253829 0.730468,-4.751953 0.01365,-0.04461 0.03284,-0.08643 0.04688,-0.13086 1.99686,-6.321925 7.84094,-10.80664 14.892578,-10.80664 z M 30.28125,435.30469 h 6.958984 1145.628866 8.1172 c 8.6414,0 15.5996,6.95633 15.5996,15.59765 v 7.5918 c 0.024,0.37296 0.037,0.7339 0.037,1.07617 v 13.52539 252.45508 c 0,5.47634 -2.7106,10.22208 -6.8847,13.00391 -2.4923,1.6862 -5.5034,2.66992 -8.752,2.66992 H 30.28125 c -8.641361,0 -15.597656,-6.9563 -15.597656,-15.59766 V 450.90234 c 0,-8.64132 6.956295,-15.59765 15.597656,-15.59765 z" style="color: rgb(0, 0, 0); font-style: normal; font-weight: normal; font-stretch: normal; font-size: medium; line-height: normal; font-family: sans-serif; font-variant: normal; font-feature-settings: normal; font-variation-settings: normal; text-indent: 0px; text-align: start; text-decoration: none solid rgb(0, 0, 0); letter-spacing: normal; word-spacing: normal; text-transform: none; writing-mode: lr-tb; direction: ltr; text-orientation: mixed; dominant-baseline: auto; baseline-shift: baseline; text-anchor: start; white-space: normal; shape-margin: 0px; inline-size: 0px; clip-rule: nonzero; display: inline; overflow: visible; opacity: 1; isolation: auto; mix-blend-mode: normal; color-interpolation: srgb; color-interpolation-filters: linearrgb; vector-effect: none; fill: rgb(255, 255, 255); fill-opacity: 1; fill-rule: evenodd; stroke: none; stroke-width: 2.09199; stroke-linecap: square; stroke-linejoin: miter; stroke-miterlimit: 10; stroke-dasharray: none; stroke-dashoffset: 0; stroke-opacity: 1; paint-order: stroke; color-rendering: auto; image-rendering: auto; shape-rendering: auto; text-rendering: auto; stop-color: rgb(0, 0, 0); stop-opacity: 1;" id="path15582"/>
    <path d="m 324.12038,67.193614 h 60.89334 v 27.821331 h -60.89334 z" style="opacity: 1; fill: rgb(255, 215, 15); fill-opacity: 1; fill-rule: evenodd; stroke: none; stroke-width: 0.553508; stroke-linecap: square; stroke-miterlimit: 10; stroke-dasharray: none; stroke-opacity: 1; paint-order: stroke; visibility: hidden;" id="rect15605"/>
    <path id="path15631" d="m 326.18273,67.759747 c -0.81115,0 -1.47443,0.660164 -1.47443,1.471307 v 23.746432 c 0,0.811142 0.66328,1.471323 1.47443,1.471323 h 56.7905 c 0.81117,0 1.4744,-0.660181 1.4744,-1.471323 V 69.231054 c 0,-0.811143 -0.66328,-1.471307 -1.4744,-1.471307 z m 0,0.535017 h 56.7905 c 0.52266,0 0.93627,0.413622 0.93627,0.93629 v 23.746432 c 0,0.522654 -0.41353,0.933189 -0.93627,0.933189 h -56.7905 c -0.52266,0 -0.93628,-0.410555 -0.93628,-0.933189 V 69.231054 c 0,-0.522672 0.41354,-0.93629 0.93628,-0.93629 z" style="color: rgb(0, 0, 0); font-style: normal; font-weight: normal; font-stretch: normal; font-size: medium; line-height: normal; font-family: sans-serif; font-variant: normal; font-feature-settings: normal; font-variation-settings: normal; text-indent: 0px; text-align: start; text-decoration: none solid rgb(0, 0, 0); letter-spacing: normal; word-spacing: normal; text-transform: none; writing-mode: lr-tb; direction: ltr; text-orientation: mixed; dominant-baseline: auto; baseline-shift: baseline; text-anchor: start; white-space: normal; shape-margin: 0px; inline-size: 0px; clip-rule: nonzero; display: inline; overflow: visible; opacity: 1; isolation: auto; mix-blend-mode: normal; color-interpolation: srgb; color-interpolation-filters: linearrgb; vector-effect: none; fill: rgb(0, 0, 0); fill-opacity: 1; fill-rule: evenodd; stroke: none; stroke-width: 0.119062; stroke-linecap: square; stroke-linejoin: miter; stroke-miterlimit: 10; stroke-dasharray: none; stroke-dashoffset: 0; stroke-opacity: 1; paint-order: stroke; color-rendering: auto; image-rendering: auto; shape-rendering: auto; text-rendering: auto; stop-color: rgb(0, 0, 0); stop-opacity: 1; visibility: hidden;"/>
    <path d="m 336.88947,72.205604 c -1.36961,0 -2.51552,0.330332 -3.43646,0.991507 -0.91309,0.653335 -1.5737,1.361798 -1.98303,2.125328 -0.14189,0.267612 -0.264,0.538688 -0.36613,0.814199 -0.10264,0.275473 -0.18065,0.564078 -0.23555,0.86321 -0.0552,0.299089 -0.0954,0.774434 -0.11873,1.427765 -0.0223,0.653332 -0.0362,1.495435 -0.0362,2.5266 0,2.062321 0.0516,3.383536 0.15387,3.966025 0.0552,0.299136 0.13326,0.587702 0.23556,0.863193 0.10264,0.267612 0.22467,0.534915 0.36612,0.802543 0.40948,0.771411 1.06995,1.479875 1.983,2.125324 0.92887,0.653346 2.07472,0.979855 3.43649,0.979855 0.74779,0 1.44489,-0.107189 2.09034,-0.319632 0.64544,-0.212556 1.24303,-0.525333 1.79403,-0.942508 1.1335,-0.865864 1.86473,-2.103628 2.19533,-3.709419 0.0139,-0.04714 0.009,-0.08518 -0.0223,-0.116745 -0.0315,-0.03928 -0.0694,-0.05829 -0.11656,-0.05829 h -2.70394 c -0.0223,1.5e-5 -0.0488,0.01117 -0.0722,0.03521 -0.0223,0.01589 -0.0451,0.0307 -0.0582,0.0467 -0.70836,1.487712 -1.74338,2.232636 -3.10515,2.232636 -0.59037,0 -1.09454,-0.11468 -1.51174,-0.342928 -0.41713,-0.236167 -0.75132,-0.520933 -1.00317,-0.851551 -0.14189,-0.181028 -0.27124,-0.389065 -0.3896,-0.625222 -0.11008,-0.244 -0.19597,-0.488524 -0.25924,-0.732545 -0.0628,-0.267611 -0.10709,-0.67614 -0.13048,-1.227141 -0.0223,-0.558871 -0.0359,-1.267326 -0.0359,-2.125325 0,-0.842249 0.009,-1.543133 0.0359,-2.102004 0.0223,-0.55887 0.0677,-0.97117 0.13048,-1.238798 0.0627,-0.251917 0.14857,-0.496392 0.25924,-0.732549 0.11009,-0.244 0.24028,-0.45965 0.3896,-0.64857 0.252,-0.30699 0.58598,-0.580386 1.00317,-0.816526 0.41715,-0.236167 0.92137,-0.352269 1.51174,-0.352269 0.79503,1.7e-5 1.45185,0.230844 1.97135,0.695231 0.27541,0.236167 0.50863,0.492045 0.69757,0.767539 0.18872,0.267667 0.33407,0.560022 0.4361,0.874867 0.0167,0.06294 0.0599,0.09333 0.13046,0.09333 h 2.7039 c 0.0468,0 0.0854,-0.01589 0.11658,-0.0467 0.0315,-0.03161 0.0407,-0.07184 0.0223,-0.118954 -0.25952,-1.393235 -0.93175,-2.595995 -2.01801,-3.611427 -1.07052,-1.007535 -2.42438,-1.511744 -4.0617,-1.511744 z m 27.73422,0.104956 c -1.28304,0 -2.4213,0.437369 -3.41313,1.311121 -0.99967,0.858 -1.50005,2.08205 -1.50005,3.672071 v 7.425818 c 0,1.590021 0.50038,2.814088 1.50005,3.672088 0.99183,0.865851 2.13009,1.299446 3.41313,1.299446 1.28303,0 2.42133,-0.433578 3.41313,-1.299446 1.00756,-0.86587 1.50938,-2.089917 1.50938,-3.672088 v -7.425818 c 0,-0.787127 -0.1299,-1.484222 -0.38959,-2.09033 -0.252,-0.613979 -0.62389,-1.140934 -1.11979,-1.581741 -0.49592,-0.425045 -1.03279,-0.74779 -1.6074,-0.968177 -0.56674,-0.22825 -1.16816,-0.342924 -1.80573,-0.342924 z m -21.12261,0.03521 c -0.0943,0 -0.14217,0.04776 -0.14217,0.142392 v 2.279298 c 0,0.09444 0.0479,0.142197 0.14217,0.142197 h 4.49793 V 89.409 c 0,0.09444 0.0479,0.139995 0.14217,0.139995 h 2.5616 c 0.0945,0 0.14217,-0.04555 0.14217,-0.139995 V 74.909653 h 4.48625 c 0.0943,0 0.14217,-0.04778 0.14217,-0.142196 v -2.279299 c 0,-0.09444 -0.0479,-0.142392 -0.14217,-0.142392 z m 31.22667,0.118953 -2.43331,1.759064 c -0.0139,0.01589 -0.0315,0.03477 -0.0466,0.05829 -0.009,0.02341 -0.0139,0.04468 -0.0139,0.06068 v 2.561593 c 0,0.06294 0.0278,0.110694 0.0728,0.142196 0.0468,0.02343 0.0989,0.01617 0.15388,-0.02343 0.36208,-0.259778 0.7228,-0.523245 1.08486,-0.790886 0.36206,-0.275473 0.72509,-0.548889 1.08714,-0.816528 v 14.028096 c 0,0.09444 0.048,0.142198 0.14217,0.142198 h 2.41929 c 0.0943,0 0.13994,-0.04778 0.13994,-0.142198 V 72.606811 c 0,-0.09444 -0.0455,-0.142197 -0.13994,-0.142197 z m -10.10406,2.538257 c 0.67694,0 1.21532,0.217964 1.61673,0.650912 0.40948,0.425045 0.61359,1.018854 0.61359,1.782378 v 7.143522 c 0,0.771407 -0.20461,1.368982 -0.61359,1.794059 -0.40133,0.425045 -0.93979,0.63689 -1.61673,0.63689 -0.67695,0 -1.21527,-0.211859 -1.61671,-0.63689 -0.40134,-0.425091 -0.60428,-1.022652 -0.60428,-1.794059 v -7.143497 c 0,-0.763524 0.20266,-1.357335 0.60428,-1.782377 0.40133,-0.432946 0.93976,-0.650913 1.61671,-0.650913 z m -9.98507,11.865445 c -0.0945,0 -0.14217,0.04776 -0.14217,0.14239 v 2.398281 c 0,0.09444 0.0479,0.139994 0.14217,0.139994 h 2.40762 c 0.0867,0 0.13046,-0.04555 0.13046,-0.139994 v -2.398281 c 0,-0.09444 -0.0451,-0.14239 -0.13046,-0.14239 z" style="font-style: normal; font-variant: normal; font-weight: normal; font-stretch: normal; font-size: 15.1831px; line-height: 1.46; font-family: 'Alte DIN 1451 Mittelschrift gepraegt'; text-align: center; text-anchor: middle; opacity: 1; fill-opacity: 1; stroke-width: 0.264584; visibility: hidden;" id="path15637"/>
    <path id="path17496" style="font-size: 15.1831px; line-height: 1.46; font-family: 'Singapore Road Signs'; text-align: center; text-anchor: middle; opacity: 1; fill: rgb(255, 255, 255); fill-opacity: 1; stroke-width: 0.0756548; visibility: hidden;" d="m 570.47468,59.120043 v 50.614317 h 35.43541 V 59.120043 Z m 1.38203,1.660034 h 32.65274 v 47.566083 h -32.65274 z m 13.66823,3.646909 -2.23483,8.869719 h 3.92184 l 0.28216,-8.869719 z m 3.35329,0 0.28216,8.869719 h 3.92385 l -2.23686,-8.869719 z m -15.90932,9.992316 v 1.942234 l 3.06692,1.10806 v 0.584703 h 1.411 v -0.584703 c 0,0 2.08662,-0.313671 4.52568,-0.535349 1.95306,-0.177516 4.1317,-0.271988 5.64407,-0.278037 1.79866,-0.0063 4.45804,0.09363 6.73975,0.288436 2.51319,0.214479 4.5713,0.524984 4.5713,0.524984 v 0.5847 h 1.38199 v -0.5847 l 3.06685,-1.108064 v -1.942233 z m 9.21108,3.620663 -6.70448,26.681115 h 10.04943 l 1.39442,-26.681115 z m 7.25642,0 1.39441,26.681115 h 10.0494 l -6.70443,-26.681115 z"/>
    <g transform="matrix(1, 0, 0, 1, -49.848481, -0.000393)">
      <title>Prohibit</title>
      <g style="font-size:14.7905px;line-height:0;font-family:'Singapore Road Signs';-inkscape-font-specification:'Singapore Road Signs';text-align:center;text-anchor:middle;opacity:1;fill:#860000;fill-opacity:1;stroke-width:6.45213" id="layer1-8" transform="matrix(0.08718, 0, 0, 0.08718, -145.220476, 195.49013)">
        <circle style="opacity:1;fill:#f00a0a;fill-opacity:1;fill-rule:nonzero;stroke:none;stroke-width:3622.55;stroke-linecap:round;stroke-linejoin:round;stroke-miterlimit:4;stroke-dasharray:none;stroke-opacity:1;paint-order:stroke fill markers" id="path815" cx="6380.9966" cy="-193.29752" r="350"/>
        <circle cy="-193.29752" cx="6380.9966" id="circle817" style="opacity:1;fill:#ffffff;fill-opacity:1;fill-rule:nonzero;stroke:none;stroke-width:2587.55;stroke-linecap:round;stroke-linejoin:round;stroke-miterlimit:4;stroke-dasharray:none;stroke-opacity:1;paint-order:stroke fill markers" r="250"/>
        <g aria-label="20 " style="font-style:normal;font-variant:normal;font-weight:bold;font-stretch:normal;font-size:414.864px;line-height:0;font-family:Giaothong1;-inkscape-font-specification:'Giaothong1 Bold';letter-spacing:0px;word-spacing:0px;fill:#000000;fill-opacity:1;stroke:none;stroke-width:24.7849" id="text874" transform="matrix(-1,0,0,1,1299.029,-383.45)">
          <g aria-label="90" transform="translate(2310.2259,387.54849)" style="font-style:normal;font-variant:normal;font-weight:bold;font-stretch:normal;font-size:414.864px;line-height:0;font-family:Giaothong1;-inkscape-font-specification:'Giaothong1 Bold';letter-spacing:0px;word-spacing:0px;fill:#000000;fill-opacity:1;stroke:none;stroke-width:53.5539" id="text844"/>
        </g>
      </g>
      <path d="M 399.648 178.435 Q 399.4 177.922 399.347 177.471 Q 399.294 177.021 399.294 176.119 L 399.294 171.188 Q 399.294 170.463 399.568 169.774 Q 399.842 169.084 400.832 167.679 Q 401.822 166.274 404.402 166.274 Q 406.824 166.274 408.22 167.918 Q 409.617 169.561 409.617 171.665 L 409.617 175.607 Q 409.617 176.985 409.034 178.435 L 404.473 190.631 L 400.567 190.631 L 404.579 180.467 Q 403.642 180.68 403.13 180.68 Q 402.016 180.68 401.053 180.043 Q 400.09 179.407 399.648 178.435 Z M 404.509 169.668 Q 403.642 169.668 403.209 170.251 Q 402.776 170.834 402.776 171.665 L 402.776 175.607 Q 402.776 176.508 403.245 177.091 Q 403.713 177.675 404.615 177.675 Q 405.41 177.675 405.79 177.109 Q 406.17 176.543 406.17 175.607 L 406.17 171.665 Q 406.17 170.763 405.79 170.215 Q 405.41 169.668 404.509 169.668 Z M 415.5 190.856 Q 411.699 190.131 411.081 186.401 Q 411.081 182.53 411.081 178.642 Q 411.081 174.753 411.081 170.847 Q 411.558 168.019 413.582 167.038 Q 415.606 166.057 418.204 166.64 Q 419.512 167.435 420.307 168.319 Q 421.103 169.203 421.403 170.847 Q 421.403 174.753 421.403 178.624 Q 421.403 182.495 421.403 186.331 Q 420.891 189.848 417.638 190.82 Q 417.232 190.82 416.958 190.838 Q 416.684 190.856 415.5 190.856 Z M 415.853 187.374 Q 417.444 187.374 417.886 185.977 Q 417.886 182.318 417.886 178.677 Q 417.886 175.036 417.886 171.377 Q 417.674 170.723 417.409 170.299 Q 416.366 169.503 415.641 169.954 Q 414.916 170.405 414.598 171.377 Q 414.598 175.001 414.598 178.642 Q 414.598 182.283 414.598 185.906 Q 414.81 187.02 415.853 187.374 Z"/>
    </g>
    <g transform="matrix(1, 0, 0, 1, 159.346133, -0.000393)">
      <title>Prohibit</title>
      <g style="font-size:14.7905px;line-height:0;font-family:'Singapore Road Signs';-inkscape-font-specification:'Singapore Road Signs';text-align:center;text-anchor:middle;opacity:1;fill:#860000;fill-opacity:1;stroke-width:6.45213" id="g-1" transform="matrix(0.08718, 0, 0, 0.08718, -145.220476, 195.49013)">
        <circle style="opacity:1;fill:#f00a0a;fill-opacity:1;fill-rule:nonzero;stroke:none;stroke-width:3622.55;stroke-linecap:round;stroke-linejoin:round;stroke-miterlimit:4;stroke-dasharray:none;stroke-opacity:1;paint-order:stroke fill markers" id="circle-1" cx="6380.9966" cy="-193.29752" r="350"/>
        <circle cy="-193.29752" cx="6380.9966" id="circle-2" style="opacity:1;fill:#ffffff;fill-opacity:1;fill-rule:nonzero;stroke:none;stroke-width:2587.55;stroke-linecap:round;stroke-linejoin:round;stroke-miterlimit:4;stroke-dasharray:none;stroke-opacity:1;paint-order:stroke fill markers" r="250"/>
        <g aria-label="20 " style="font-style:normal;font-variant:normal;font-weight:bold;font-stretch:normal;font-size:414.864px;line-height:0;font-family:Giaothong1;-inkscape-font-specification:'Giaothong1 Bold';letter-spacing:0px;word-spacing:0px;fill:#000000;fill-opacity:1;stroke:none;stroke-width:24.7849" id="g-2" transform="matrix(-1,0,0,1,1299.029,-383.45)">
          <g aria-label="90" transform="translate(2310.2259,387.54849)" style="font-style:normal;font-variant:normal;font-weight:bold;font-stretch:normal;font-size:414.864px;line-height:0;font-family:Giaothong1;-inkscape-font-specification:'Giaothong1 Bold';letter-spacing:0px;word-spacing:0px;fill:#000000;fill-opacity:1;stroke:none;stroke-width:53.5539" id="g-3"/>
        </g>
      </g>
      <path d="M 405.481 175.094 Q 406.4 175.094 407.319 175.607 Q 408.238 176.119 408.689 176.791 Q 409.14 177.463 409.307 178.196 Q 409.475 178.93 409.475 179.778 L 409.475 185.205 Q 409.475 186 409.422 186.539 Q 409.369 187.078 409.007 188.059 Q 408.645 189.04 407.248 189.942 Q 405.852 190.843 404.261 190.843 Q 403.024 190.843 401.919 190.251 Q 400.814 189.659 400.204 188.784 Q 399.595 187.909 399.374 187.025 Q 399.153 186.141 399.153 185.205 L 399.153 184.586 L 402.67 184.586 L 402.67 185.205 Q 402.67 185.558 402.688 185.92 Q 402.706 186.283 403.068 186.831 Q 403.43 187.379 404.332 187.379 Q 405.304 187.379 405.631 186.848 Q 405.958 186.318 405.993 186.009 Q 406.029 185.699 406.029 185.346 L 406.029 184.939 L 406.029 180.238 Q 406.029 179.919 406.011 179.557 Q 405.993 179.195 405.613 178.647 Q 405.233 178.099 404.367 178.099 Q 403.094 178.099 402.67 179.372 L 399.595 179.372 L 399.595 166.486 L 409.475 166.486 L 409.475 169.703 L 402.67 169.703 L 402.67 176.19 Q 403.925 175.094 405.481 175.094 Z M 415.5 190.856 Q 411.699 190.131 411.081 186.401 Q 411.081 182.53 411.081 178.642 Q 411.081 174.753 411.081 170.847 Q 411.558 168.019 413.582 167.038 Q 415.606 166.057 418.204 166.64 Q 419.512 167.435 420.307 168.319 Q 421.103 169.203 421.403 170.847 Q 421.403 174.753 421.403 178.624 Q 421.403 182.495 421.403 186.331 Q 420.891 189.848 417.638 190.82 Q 417.232 190.82 416.958 190.838 Q 416.684 190.856 415.5 190.856 Z M 415.853 187.374 Q 417.444 187.374 417.886 185.977 Q 417.886 182.318 417.886 178.677 Q 417.886 175.036 417.886 171.377 Q 417.674 170.723 417.409 170.299 Q 416.366 169.503 415.641 169.954 Q 414.916 170.405 414.598 171.377 Q 414.598 175.001 414.598 178.642 Q 414.598 182.283 414.598 185.906 Q 414.81 187.02 415.853 187.374 Z"/>
    </g>
    <g transform="matrix(1, 0, 0, 1, 54.180013, -0.000393)">
      <title>Prohibit</title>
      <g style="font-size:14.7905px;line-height:0;font-family:'Singapore Road Signs';-inkscape-font-specification:'Singapore Road Signs';text-align:center;text-anchor:middle;opacity:1;fill:#860000;fill-opacity:1;stroke-width:6.45213" id="g-4" transform="matrix(0.08718, 0, 0, 0.08718, -145.220476, 195.49013)">
        <circle style="opacity:1;fill:#f00a0a;fill-opacity:1;fill-rule:nonzero;stroke:none;stroke-width:3622.55;stroke-linecap:round;stroke-linejoin:round;stroke-miterlimit:4;stroke-dasharray:none;stroke-opacity:1;paint-order:stroke fill markers" id="circle-3" cx="6380.9966" cy="-193.29752" r="350"/>
        <circle cy="-193.29752" cx="6380.9966" id="circle-4" style="opacity:1;fill:#ffffff;fill-opacity:1;fill-rule:nonzero;stroke:none;stroke-width:2587.55;stroke-linecap:round;stroke-linejoin:round;stroke-miterlimit:4;stroke-dasharray:none;stroke-opacity:1;paint-order:stroke fill markers" r="250"/>
        <g aria-label="20 " style="font-style:normal;font-variant:normal;font-weight:bold;font-stretch:normal;font-size:414.864px;line-height:0;font-family:Giaothong1;-inkscape-font-specification:'Giaothong1 Bold';letter-spacing:0px;word-spacing:0px;fill:#000000;fill-opacity:1;stroke:none;stroke-width:24.7849" id="g-5" transform="matrix(-1,0,0,1,1299.029,-383.45)">
          <g aria-label="90" transform="translate(2310.2259,387.54849)" style="font-style:normal;font-variant:normal;font-weight:bold;font-stretch:normal;font-size:414.864px;line-height:0;font-family:Giaothong1;-inkscape-font-specification:'Giaothong1 Bold';letter-spacing:0px;word-spacing:0px;fill:#000000;fill-opacity:1;stroke:none;stroke-width:53.5539" id="g-6"/>
        </g>
      </g>
      <path d="M 402.546 172.531 L 399.506 172.531 L 399.506 166.486 L 409.829 166.486 L 409.829 169.632 L 404.173 190.631 L 400.514 190.631 L 406.382 169.703 L 402.546 169.703 Z M 415.5 190.856 Q 411.699 190.131 411.081 186.401 Q 411.081 182.53 411.081 178.642 Q 411.081 174.753 411.081 170.847 Q 411.558 168.019 413.582 167.038 Q 415.606 166.057 418.204 166.64 Q 419.512 167.435 420.307 168.319 Q 421.103 169.203 421.403 170.847 Q 421.403 174.753 421.403 178.624 Q 421.403 182.495 421.403 186.331 Q 420.891 189.848 417.638 190.82 Q 417.232 190.82 416.958 190.838 Q 416.684 190.856 415.5 190.856 Z M 415.853 187.374 Q 417.444 187.374 417.886 185.977 Q 417.886 182.318 417.886 178.677 Q 417.886 175.036 417.886 171.377 Q 417.674 170.723 417.409 170.299 Q 416.366 169.503 415.641 169.954 Q 414.916 170.405 414.598 171.377 Q 414.598 175.001 414.598 178.642 Q 414.598 182.283 414.598 185.906 Q 414.81 187.02 415.853 187.374 Z"/>
    </g>
    <g style="font-size: 14.7905px; line-height: 0; font-family: 'Singapore Road Signs'; text-align: center; text-anchor: middle; opacity: 1; fill: rgb(255, 240, 0); fill-opacity: 1; stroke-width: 6.45221; visibility: hidden;" id="layer1-7" transform="matrix(0.08717968,0,0,0.08717968,488.77841,183.34565)">
      <circle cy="-54" cx="351" id="circle817-6" style="opacity:1;fill:#0046aa;fill-opacity:1;fill-rule:nonzero;stroke:none;stroke-width:3622.58;stroke-linecap:round;stroke-linejoin:round;stroke-miterlimit:4;stroke-dasharray:none;stroke-opacity:1;paint-order:stroke fill markers" r="350"/>
      <path id="rect984" style="font-style:normal;font-variant:normal;font-weight:bold;font-stretch:normal;font-size:414.864px;line-height:0;font-family:Giaothong1;-inkscape-font-specification:'Giaothong1 Bold';letter-spacing:0px;word-spacing:0px;opacity:1;fill:#ffffff;fill-opacity:1;fill-rule:nonzero;stroke:none;stroke-width:0.344279;stroke-linecap:round;stroke-linejoin:miter;stroke-miterlimit:10;stroke-dasharray:none;stroke-opacity:1;paint-order:stroke fill markers" d="m 851.18164,518.03906 c -16.32678,0 -29.4707,13.14393 -29.4707,29.47071 v 80.94921 c 0,16.32678 13.14392,29.47071 29.4707,29.47071 16.32678,0 29.4707,-13.14393 29.4707,-29.47071 v -80.94921 c 0,-16.32678 -13.14392,-29.47071 -29.4707,-29.47071 z m -69.94336,1.23828 -26.10937,69.75391 c -2.72781,7.40406 -3.70118,11.30112 -3.70118,28.44727 0,18.12042 0.7789,22.01697 4.67579,28.25195 5.26075,8.37828 14.22308,13.44336 24.93945,13.44336 10.91123,0 20.0688,-4.87023 25.13476,-13.44336 3.70197,-6.23498 4.48047,-10.13153 4.48047,-28.25195 0,-22.01726 -0.77798,-26.88814 -4.28515,-32.34375 -3.31232,-5.06591 -9.74347,-8.96289 -16.75782,-8.96289 -4.28653,0 -7.01308,0.77773 -8.37695,1.75195 l -0.39062,-0.38867 22.60156,-58.25782 z m 69.94336,18.74024 c 5.25853,0 9.49219,4.23365 9.49219,9.49219 v 80.94921 c 0,5.25853 -4.23366,9.49219 -9.49219,9.49219 -5.25853,0 -9.49219,-4.23366 -9.49219,-9.49219 v -80.94921 c 0,-5.25854 4.23366,-9.49219 9.49219,-9.49219 z m -70.13867,55.68945 c 5.0659,0 9.74219,3.89738 9.74219,9.9375 v 25.71875 c 0,6.04012 -4.67629,9.9375 -9.74219,9.9375 -5.0659,0 -9.74219,-3.89738 -9.74219,-9.9375 v -25.71875 c 0,-6.04012 4.67629,-9.9375 9.74219,-9.9375 z" transform="matrix(3.0349198,0,0,3.0349198,-2125.7104,-1839.7056)"/>
    </g>
    <g aria-label="6" id="text19759" style="font-size:31.1478px;line-height:1.3;font-family:'Singapore Road Signs';-inkscape-font-specification:'Singapore Road Signs';text-align:center;text-anchor:middle;stroke-width:0.159861" transform="matrix(1.6550836,0,0,1.6550836,-321.31659,-238.56049)"/>
    <path d="M 437.88 70.85 C 437.773 70.85 437.72 70.797 437.72 70.69 L 437.72 62.514 L 430.463 62.514 L 430.463 70.69 C 430.463 70.797 430.41 70.85 430.302 70.85 L 427.413 70.85 C 427.308 70.85 427.254 70.797 427.254 70.69 L 427.254 51.609 C 427.254 51.502 427.308 51.448 427.413 51.448 L 430.302 51.448 C 430.41 51.448 430.463 51.502 430.463 51.609 L 430.463 59.625 L 437.72 59.625 L 437.72 51.609 C 437.72 51.502 437.773 51.448 437.88 51.448 L 440.77 51.448 C 440.877 51.448 440.929 51.502 440.929 51.609 L 440.929 70.69 C 440.929 70.797 440.877 70.85 440.77 70.85 L 437.88 70.85 Z M 443.203 70.837 C 443.142 70.837 443.098 70.815 443.07 70.769 C 443.043 70.726 443.04 70.677 443.057 70.623 L 450.035 51.529 C 450.053 51.458 450.097 51.423 450.168 51.423 L 452.551 51.423 C 452.577 51.423 452.606 51.433 452.637 51.457 C 452.669 51.477 452.689 51.502 452.697 51.529 L 459.661 70.623 C 459.68 70.677 459.675 70.726 459.65 70.769 C 459.622 70.815 459.581 70.837 459.529 70.837 L 456.479 70.837 C 456.409 70.837 456.365 70.802 456.346 70.73 L 454.908 66.522 L 447.877 66.522 C 447.629 67.241 447.382 67.945 447.137 68.633 C 446.895 69.321 446.648 70.02 446.4 70.73 C 446.39 70.757 446.371 70.781 446.34 70.803 C 446.308 70.826 446.279 70.837 446.253 70.837 L 443.203 70.837 Z M 453.95 63.66 C 453.931 63.598 453.907 63.531 453.877 63.46 C 453.846 63.39 453.82 63.327 453.803 63.274 C 453.652 62.838 453.515 62.436 453.39 62.068 C 453.266 61.7 453.155 61.378 453.057 61.103 C 452.996 60.925 452.936 60.751 452.877 60.582 C 452.819 60.415 452.764 60.255 452.711 60.104 C 452.667 59.961 452.622 59.826 452.578 59.698 C 452.534 59.569 452.489 59.443 452.445 59.317 C 452.366 59.061 452.282 58.804 452.198 58.546 C 452.115 58.29 452.028 58.023 451.939 57.746 C 451.895 57.622 451.848 57.485 451.799 57.335 C 451.751 57.183 451.698 57.022 451.645 56.855 C 451.619 56.767 451.599 56.698 451.586 56.648 C 451.572 56.599 451.557 56.551 451.539 56.503 C 451.522 56.454 451.502 56.398 451.48 56.336 C 451.458 56.273 451.428 56.184 451.392 56.07 C 451.295 56.362 451.204 56.633 451.119 56.881 C 451.036 57.13 450.957 57.361 450.886 57.574 C 450.868 57.627 450.856 57.677 450.846 57.721 C 450.837 57.766 450.824 57.81 450.807 57.854 C 450.763 58.005 450.716 58.146 450.666 58.28 C 450.617 58.413 450.571 58.546 450.527 58.68 C 450.482 58.821 450.438 58.959 450.393 59.092 C 450.349 59.225 450.305 59.354 450.26 59.478 C 450.171 59.745 450.081 60.025 449.987 60.318 C 449.895 60.61 449.791 60.916 449.675 61.236 C 449.56 61.555 449.439 61.899 449.314 62.268 C 449.191 62.636 449.031 63.1 448.836 63.66 L 453.95 63.66 Z M 452.192 49.73 C 452.174 49.73 452.152 49.723 452.125 49.711 C 452.099 49.698 452.08 49.686 452.072 49.677 L 448.396 45.79 C 448.343 45.737 448.332 45.679 448.363 45.617 C 448.395 45.554 448.446 45.523 448.517 45.523 L 451.446 45.523 C 451.5 45.523 451.544 45.55 451.579 45.604 L 454.361 49.491 C 454.389 49.553 454.391 49.609 454.369 49.658 C 454.347 49.706 454.3 49.73 454.229 49.73 L 452.192 49.73 Z M 468.603 70.85 C 468.497 70.85 468.444 70.797 468.444 70.69 L 468.444 51.609 C 468.444 51.502 468.497 51.448 468.603 51.448 L 471.347 51.448 C 471.399 51.448 471.444 51.475 471.48 51.529 L 479.869 64.739 L 479.869 51.609 C 479.869 51.502 479.922 51.448 480.028 51.448 L 482.931 51.448 C 483.038 51.448 483.091 51.502 483.091 51.609 L 483.091 70.69 C 483.091 70.797 483.038 70.85 482.931 70.85 L 480.201 70.85 C 480.149 70.85 480.105 70.824 480.069 70.769 L 471.653 57.56 L 471.653 70.69 C 471.653 70.797 471.603 70.85 471.506 70.85 L 468.603 70.85 Z M 488.873 49.73 C 488.794 49.73 488.741 49.697 488.72 49.631 C 488.698 49.564 488.717 49.508 488.778 49.466 L 492.693 46.362 L 494.478 46.362 L 498.447 49.466 C 498.509 49.508 498.53 49.564 498.507 49.631 C 498.485 49.697 498.438 49.73 498.368 49.73 L 496.117 49.73 L 493.467 48.306 C 493.076 48.545 492.682 48.786 492.282 49.026 C 491.883 49.266 491.487 49.5 491.097 49.73 L 488.873 49.73 Z M 486.516 60.996 C 486.516 59.834 486.531 58.884 486.562 58.146 C 486.593 57.41 486.636 56.873 486.689 56.536 C 486.752 56.199 486.84 55.874 486.955 55.563 C 487.071 55.252 487.213 54.946 487.382 54.644 L 487.368 54.644 C 487.83 53.783 488.575 52.984 489.605 52.247 C 490.643 51.502 491.936 51.129 493.48 51.129 C 495.007 51.129 496.29 51.502 497.328 52.247 C 498.376 53.002 499.13 53.801 499.592 54.644 C 499.921 55.248 500.143 55.879 500.258 56.536 C 500.32 56.873 500.367 57.41 500.398 58.146 C 500.429 58.884 500.444 59.834 500.444 60.996 C 500.444 63.279 500.383 64.769 500.258 65.471 C 500.196 65.816 500.109 66.145 499.998 66.455 C 499.887 66.767 499.756 67.064 499.605 67.347 C 499.134 68.2 498.376 68.999 497.328 69.744 C 496.281 70.482 494.998 70.85 493.48 70.85 C 491.945 70.85 490.653 70.482 489.605 69.744 C 488.575 69.017 487.83 68.218 487.368 67.347 L 487.382 67.347 C 487.213 67.045 487.071 66.741 486.955 66.435 C 486.84 66.13 486.752 65.808 486.689 65.471 C 486.636 65.133 486.593 64.593 486.562 63.852 C 486.531 63.111 486.516 62.159 486.516 60.996 Z M 489.725 60.996 C 489.725 61.964 489.739 62.761 489.765 63.387 C 489.791 64.013 489.841 64.476 489.913 64.778 C 489.983 65.053 490.083 65.326 490.211 65.598 C 490.339 65.868 490.484 66.105 490.643 66.31 C 490.928 66.682 491.305 66.999 491.775 67.262 C 492.246 67.523 492.815 67.654 493.48 67.654 C 494.136 67.654 494.7 67.523 495.171 67.262 C 495.642 66.999 496.015 66.682 496.29 66.31 C 496.664 65.856 496.908 65.346 497.022 64.778 C 497.164 64.209 497.236 62.949 497.236 60.996 C 497.236 60.028 497.217 59.232 497.182 58.605 C 497.146 57.981 497.093 57.522 497.022 57.228 C 496.96 56.944 496.866 56.666 496.742 56.396 C 496.617 56.124 496.472 55.882 496.303 55.67 C 496.169 55.501 496.008 55.337 495.817 55.177 C 495.627 55.018 495.412 54.878 495.171 54.757 C 494.932 54.638 494.67 54.541 494.386 54.465 C 494.102 54.39 493.8 54.352 493.48 54.352 C 492.815 54.352 492.246 54.485 491.775 54.752 C 491.305 55.018 490.928 55.323 490.643 55.67 C 490.476 55.882 490.329 56.124 490.204 56.396 C 490.08 56.666 489.983 56.944 489.913 57.228 C 489.841 57.53 489.791 57.995 489.765 58.625 C 489.739 59.256 489.725 60.046 489.725 60.996 Z M 492.135 76.097 C 492.038 76.097 491.989 76.047 491.989 75.95 L 491.989 73.38 C 491.989 73.283 492.038 73.233 492.135 73.233 L 494.718 73.233 C 494.807 73.233 494.851 73.283 494.851 73.38 L 494.851 75.95 C 494.851 76.047 494.807 76.097 494.718 76.097 L 492.135 76.097 Z M 503.841 70.85 C 503.735 70.85 503.681 70.797 503.681 70.69 L 503.681 51.609 C 503.681 51.502 503.735 51.448 503.841 51.448 L 506.731 51.448 C 506.837 51.448 506.89 51.502 506.89 51.609 L 506.89 70.69 C 506.89 70.797 506.837 70.85 506.731 70.85 L 503.841 70.85 Z" style="fill: rgb(255, 255, 255);"/>
    <path transform="matrix(1.310387, 0, 0, 1.310387, -59.698296, -1.169035)" style="fill: rgb(255, 255, 255);"/>
    <path d="M 403.546 109.574 C 403.438 109.574 403.385 109.521 403.385 109.415 L 403.385 90.334 C 403.385 90.227 403.438 90.174 403.546 90.174 L 410.948 90.174 C 412.822 90.174 414.26 90.674 415.262 91.678 C 416.257 92.663 416.754 93.924 416.754 95.46 C 416.754 96.303 416.559 97.084 416.169 97.803 C 415.813 98.477 415.151 99.064 414.184 99.561 C 415.081 99.845 415.774 100.391 416.261 101.198 C 416.518 101.643 416.716 102.097 416.853 102.563 C 416.991 103.03 417.059 103.511 417.059 104.009 C 417.059 105.705 416.513 107.059 415.422 108.07 C 414.339 109.074 413.066 109.574 411.601 109.574 L 403.546 109.574 Z M 406.593 101.105 L 406.593 106.538 L 410.894 106.538 C 411.898 106.538 412.644 106.268 413.133 105.727 C 413.611 105.186 413.851 104.551 413.851 103.822 C 413.851 103.113 413.611 102.482 413.133 101.932 C 412.671 101.381 411.925 101.105 410.894 101.105 L 406.593 101.105 Z M 406.593 93.063 L 406.593 98.216 L 410.628 98.216 C 411.631 98.216 412.364 97.969 412.826 97.472 C 413.305 96.982 413.544 96.374 413.544 95.646 C 413.544 94.928 413.305 94.324 412.826 93.835 C 412.347 93.32 411.614 93.063 410.628 93.063 L 406.593 93.063 Z M 418.288 109.562 C 418.227 109.562 418.182 109.539 418.155 109.495 C 418.129 109.451 418.124 109.401 418.141 109.348 L 425.12 90.253 C 425.137 90.183 425.183 90.147 425.253 90.147 L 427.636 90.147 C 427.663 90.147 427.691 90.159 427.723 90.181 C 427.754 90.201 427.774 90.226 427.783 90.253 L 434.746 109.348 C 434.764 109.401 434.76 109.451 434.734 109.495 C 434.707 109.539 434.667 109.562 434.615 109.562 L 431.565 109.562 C 431.494 109.562 431.449 109.526 431.432 109.455 L 429.993 105.247 L 422.963 105.247 C 422.714 105.966 422.467 106.669 422.223 107.357 C 421.98 108.046 421.734 108.746 421.485 109.455 C 421.476 109.482 421.456 109.506 421.424 109.528 C 421.393 109.55 421.365 109.562 421.338 109.562 L 418.288 109.562 Z M 429.035 102.384 C 429.016 102.322 428.992 102.255 428.962 102.184 C 428.931 102.114 428.905 102.051 428.887 101.998 C 428.737 101.563 428.599 101.161 428.475 100.792 C 428.352 100.424 428.239 100.103 428.142 99.827 C 428.08 99.65 428.02 99.476 427.962 99.308 C 427.904 99.139 427.849 98.979 427.797 98.829 C 427.753 98.687 427.708 98.551 427.664 98.423 C 427.619 98.295 427.575 98.168 427.53 98.043 C 427.45 97.786 427.368 97.529 427.283 97.272 C 427.199 97.014 427.113 96.747 427.024 96.471 C 426.979 96.347 426.933 96.21 426.883 96.059 C 426.835 95.907 426.784 95.748 426.73 95.579 C 426.704 95.491 426.684 95.423 426.671 95.373 C 426.658 95.325 426.642 95.276 426.624 95.227 C 426.607 95.178 426.587 95.122 426.565 95.061 C 426.542 94.998 426.513 94.909 426.477 94.794 C 426.38 95.087 426.289 95.358 426.205 95.607 C 426.12 95.855 426.043 96.085 425.971 96.298 C 425.954 96.352 425.941 96.401 425.932 96.446 C 425.922 96.49 425.91 96.534 425.892 96.579 C 425.847 96.729 425.801 96.871 425.751 97.004 C 425.703 97.137 425.657 97.272 425.611 97.404 C 425.568 97.546 425.524 97.683 425.479 97.817 C 425.435 97.95 425.389 98.079 425.346 98.203 C 425.257 98.469 425.165 98.749 425.073 99.043 C 424.98 99.335 424.876 99.642 424.761 99.961 C 424.644 100.28 424.525 100.623 424.4 100.992 C 424.276 101.361 424.117 101.825 423.921 102.384 L 429.035 102.384 Z M 425.479 84.407 C 425.408 84.407 425.362 84.382 425.34 84.334 C 425.317 84.285 425.319 84.23 425.346 84.167 L 428.128 80.28 C 428.164 80.226 428.208 80.199 428.261 80.199 L 431.192 80.199 C 431.263 80.199 431.314 80.231 431.345 80.294 C 431.376 80.355 431.365 80.413 431.311 80.466 L 427.636 84.353 C 427.627 84.363 427.609 84.374 427.583 84.387 C 427.556 84.401 427.534 84.407 427.517 84.407 L 425.479 84.407 Z M 424.188 84.807 C 424.401 85.863 425.156 86.396 426.451 86.406 C 427.8 86.387 428.507 85.854 428.568 84.807 L 430.486 84.807 C 430.486 85.384 430.381 85.87 430.173 86.266 C 429.965 86.661 429.678 87.04 429.314 87.403 C 428.596 88.088 427.664 88.438 426.518 88.456 C 425.302 88.438 424.307 88.096 423.535 87.431 C 423.179 87.075 422.904 86.729 422.709 86.392 C 422.514 86.054 422.412 85.526 422.403 84.807 L 424.188 84.807 Z M 450.025 103.929 C 450.079 103.929 450.124 103.948 450.158 103.989 C 450.194 104.028 450.204 104.075 450.186 104.129 C 449.813 105.939 448.986 107.333 447.708 108.31 C 447.088 108.78 446.414 109.135 445.685 109.374 C 444.957 109.614 444.171 109.734 443.328 109.734 C 441.792 109.734 440.501 109.366 439.453 108.63 C 438.423 107.901 437.677 107.103 437.216 106.233 C 437.057 105.93 436.919 105.627 436.803 105.321 C 436.688 105.013 436.599 104.692 436.537 104.354 C 436.422 103.698 436.364 102.206 436.364 99.88 C 436.364 98.718 436.378 97.768 436.403 97.03 C 436.43 96.295 436.474 95.757 436.537 95.419 C 436.599 95.083 436.688 94.758 436.803 94.447 C 436.919 94.137 437.057 93.831 437.216 93.529 C 437.677 92.668 438.423 91.869 439.453 91.132 C 440.492 90.386 441.783 90.014 443.328 90.014 C 445.174 90.014 446.701 90.582 447.909 91.718 C 449.134 92.863 449.894 94.222 450.186 95.793 C 450.204 95.846 450.194 95.891 450.158 95.926 C 450.124 95.962 450.079 95.979 450.025 95.979 L 446.975 95.979 C 446.896 95.979 446.847 95.943 446.83 95.873 C 446.714 95.518 446.55 95.187 446.337 94.881 C 446.125 94.574 445.862 94.289 445.551 94.021 C 444.966 93.498 444.224 93.236 443.328 93.236 C 442.662 93.236 442.094 93.369 441.623 93.635 C 441.152 93.901 440.775 94.209 440.492 94.554 C 440.323 94.768 440.176 95.01 440.052 95.281 C 439.927 95.551 439.83 95.829 439.76 96.112 C 439.688 96.415 439.638 96.881 439.613 97.511 C 439.586 98.141 439.574 98.931 439.574 99.88 C 439.574 100.848 439.586 101.644 439.613 102.271 C 439.638 102.898 439.688 103.361 439.76 103.662 C 439.83 103.937 439.93 104.211 440.059 104.481 C 440.188 104.752 440.332 104.989 440.492 105.194 C 440.775 105.566 441.152 105.884 441.623 106.146 C 442.094 106.408 442.662 106.538 443.328 106.538 C 444.863 106.538 446.031 105.7 446.83 104.022 C 446.847 104.004 446.869 103.984 446.897 103.961 C 446.923 103.939 446.949 103.929 446.975 103.929 L 450.025 103.929 Z M 465.045 101.812 C 464.939 101.812 464.887 101.759 464.887 101.651 L 464.887 98.909 C 464.887 98.812 464.939 98.762 465.045 98.762 L 471.824 98.762 C 471.931 98.762 471.985 98.812 471.985 98.909 L 471.985 102.797 C 471.985 104.759 471.31 106.402 469.96 107.723 C 468.593 109.063 466.946 109.734 465.02 109.734 C 463.483 109.734 462.192 109.366 461.145 108.63 C 460.116 107.901 459.37 107.103 458.908 106.233 L 458.92 106.233 C 458.751 105.93 458.61 105.627 458.495 105.321 C 458.379 105.013 458.291 104.692 458.227 104.354 C 458.175 104.017 458.134 103.478 458.103 102.738 C 458.071 101.996 458.055 101.044 458.055 99.88 C 458.055 98.718 458.071 97.768 458.103 97.03 C 458.134 96.295 458.175 95.757 458.227 95.419 C 458.291 95.083 458.379 94.758 458.495 94.447 C 458.61 94.137 458.751 93.831 458.92 93.529 L 458.908 93.529 C 459.37 92.668 460.116 91.869 461.145 91.132 C 462.184 90.386 463.475 90.014 465.02 90.014 C 466.866 90.014 468.393 90.582 469.6 91.718 C 470.825 92.855 471.584 94.213 471.877 95.793 C 471.895 95.846 471.887 95.891 471.851 95.926 C 471.815 95.962 471.771 95.979 471.718 95.979 L 468.668 95.979 C 468.588 95.979 468.539 95.943 468.521 95.873 C 468.407 95.518 468.242 95.187 468.028 94.881 C 467.816 94.574 467.554 94.289 467.245 94.021 C 466.658 93.498 465.917 93.236 465.02 93.236 C 464.354 93.236 463.786 93.369 463.316 93.635 C 462.845 93.901 462.467 94.209 462.184 94.554 C 462.015 94.768 461.868 95.01 461.745 95.281 C 461.62 95.551 461.523 95.829 461.451 96.112 C 461.379 96.415 461.332 96.881 461.305 97.511 C 461.277 98.141 461.264 98.931 461.264 99.88 C 461.264 100.848 461.277 101.644 461.305 102.271 C 461.332 102.898 461.379 103.361 461.451 103.662 C 461.523 103.937 461.622 104.211 461.75 104.481 C 461.88 104.752 462.024 104.989 462.184 105.194 C 462.467 105.566 462.845 105.884 463.316 106.146 C 463.786 106.408 464.354 106.538 465.02 106.538 C 466.077 106.538 466.965 106.179 467.684 105.46 C 468.411 104.74 468.774 103.8 468.774 102.637 L 468.774 101.812 L 465.045 101.812 Z M 475.447 109.574 C 475.34 109.574 475.287 109.521 475.287 109.415 L 475.287 90.334 C 475.287 90.227 475.34 90.174 475.447 90.174 L 478.337 90.174 C 478.443 90.174 478.497 90.227 478.497 90.334 L 478.497 109.415 C 478.497 109.521 478.443 109.574 478.337 109.574 L 475.447 109.574 Z M 480.635 109.562 C 480.574 109.562 480.529 109.539 480.503 109.495 C 480.476 109.451 480.471 109.401 480.489 109.348 L 487.467 90.253 C 487.484 90.183 487.529 90.147 487.6 90.147 L 489.983 90.147 C 490.01 90.147 490.039 90.159 490.07 90.181 C 490.101 90.201 490.121 90.226 490.13 90.253 L 497.094 109.348 C 497.111 109.401 497.108 109.451 497.081 109.495 C 497.054 109.539 497.014 109.562 496.96 109.562 L 493.912 109.562 C 493.84 109.562 493.795 109.526 493.779 109.455 L 492.341 105.247 L 485.31 105.247 C 485.061 105.966 484.815 106.669 484.57 107.357 C 484.327 108.046 484.08 108.746 483.831 109.455 C 483.823 109.482 483.803 109.506 483.772 109.528 C 483.74 109.55 483.712 109.562 483.685 109.562 L 480.635 109.562 Z M 491.382 102.384 C 491.364 102.322 491.338 102.255 491.307 102.184 C 491.277 102.114 491.253 102.051 491.234 101.998 C 491.084 101.563 490.947 101.161 490.823 100.792 C 490.699 100.424 490.588 100.103 490.49 99.827 C 490.427 99.65 490.367 99.476 490.309 99.308 C 490.251 99.139 490.196 98.979 490.143 98.829 C 490.099 98.687 490.055 98.551 490.011 98.423 C 489.966 98.295 489.922 98.168 489.877 98.043 C 489.797 97.786 489.715 97.529 489.631 97.272 C 489.546 97.014 489.461 96.747 489.372 96.471 C 489.327 96.347 489.28 96.21 489.231 96.059 C 489.182 95.907 489.131 95.748 489.078 95.579 C 489.051 95.491 489.032 95.423 489.018 95.373 C 489.005 95.325 488.99 95.276 488.972 95.227 C 488.953 95.178 488.933 95.122 488.91 95.061 C 488.888 94.998 488.859 94.909 488.825 94.794 C 488.728 95.087 488.636 95.358 488.552 95.607 C 488.467 95.855 488.39 96.085 488.318 96.298 C 488.301 96.352 488.288 96.401 488.279 96.446 C 488.27 96.49 488.257 96.534 488.24 96.579 C 488.195 96.729 488.148 96.871 488.099 97.004 C 488.05 97.137 488.004 97.272 487.959 97.404 C 487.915 97.546 487.871 97.683 487.826 97.817 C 487.782 97.95 487.737 98.079 487.693 98.203 C 487.604 98.469 487.512 98.749 487.42 99.043 C 487.327 99.335 487.223 99.642 487.108 99.961 C 486.992 100.28 486.872 100.623 486.747 100.992 C 486.623 101.361 486.464 101.825 486.268 102.384 L 491.382 102.384 Z M 499.51 109.574 C 499.403 109.574 499.349 109.521 499.349 109.415 L 499.349 90.334 C 499.349 90.227 499.403 90.174 499.51 90.174 L 502.253 90.174 C 502.306 90.174 502.35 90.2 502.386 90.253 L 510.775 103.463 L 510.775 90.334 C 510.775 90.227 510.828 90.174 510.934 90.174 L 513.838 90.174 C 513.944 90.174 513.997 90.227 513.997 90.334 L 513.997 109.415 C 513.997 109.521 513.944 109.574 513.838 109.574 L 511.108 109.574 C 511.055 109.574 511.01 109.548 510.975 109.495 L 502.558 96.285 L 502.558 109.415 C 502.558 109.521 502.509 109.574 502.413 109.574 L 499.51 109.574 Z M 524.336 101.812 C 524.228 101.812 524.175 101.759 524.175 101.651 L 524.175 98.909 C 524.175 98.812 524.228 98.762 524.336 98.762 L 531.112 98.762 C 531.22 98.762 531.273 98.812 531.273 98.909 L 531.273 102.797 C 531.273 104.759 530.599 106.402 529.248 107.723 C 527.882 109.063 526.234 109.734 524.308 109.734 C 522.773 109.734 521.481 109.366 520.435 108.63 C 519.405 107.901 518.658 107.103 518.196 106.233 L 518.21 106.233 C 518.042 105.93 517.899 105.627 517.785 105.321 C 517.668 105.013 517.579 104.692 517.518 104.354 C 517.465 104.017 517.422 103.478 517.391 102.738 C 517.359 101.996 517.343 101.044 517.343 99.88 C 517.343 98.718 517.359 97.768 517.391 97.03 C 517.422 96.295 517.465 95.757 517.518 95.419 C 517.579 95.083 517.668 94.758 517.785 94.447 C 517.899 94.137 518.042 93.831 518.21 93.529 L 518.196 93.529 C 518.658 92.668 519.405 91.869 520.435 91.132 C 521.473 90.386 522.765 90.014 524.308 90.014 C 526.154 90.014 527.682 90.582 528.89 91.718 C 530.116 92.855 530.874 94.213 531.167 95.793 C 531.184 95.846 531.175 95.891 531.14 95.926 C 531.104 95.962 531.06 95.979 531.006 95.979 L 527.957 95.979 C 527.877 95.979 527.829 95.943 527.811 95.873 C 527.695 95.518 527.53 95.187 527.319 94.881 C 527.106 94.574 526.844 94.289 526.533 94.021 C 525.946 93.498 525.205 93.236 524.308 93.236 C 523.643 93.236 523.074 93.369 522.604 93.635 C 522.133 93.901 521.756 94.209 521.472 94.554 C 521.303 94.768 521.157 95.01 521.033 95.281 C 520.909 95.551 520.811 95.829 520.74 96.112 C 520.668 96.415 520.62 96.881 520.593 97.511 C 520.567 98.141 520.554 98.931 520.554 99.88 C 520.554 100.848 520.567 101.644 520.593 102.271 C 520.62 102.898 520.668 103.361 520.74 103.662 C 520.811 103.937 520.91 104.211 521.038 104.481 C 521.168 104.752 521.312 104.989 521.472 105.194 C 521.756 105.566 522.133 105.884 522.604 106.146 C 523.074 106.408 523.643 106.538 524.308 106.538 C 525.365 106.538 526.253 106.179 526.972 105.46 C 527.7 104.74 528.064 103.8 528.064 102.637 L 528.064 101.812 L 524.336 101.812 Z" style="fill: rgb(255, 255, 255);"/>
    <path d="M 426.152 119.118 Q 426.045 119.118 426.045 119.011 L 426.045 106.277 Q 426.045 106.17 426.152 106.17 L 434.292 106.17 Q 434.399 106.17 434.399 106.277 L 434.399 108.107 Q 434.399 108.214 434.292 108.214 L 428.187 108.214 L 428.187 111.626 L 433.377 111.626 Q 433.484 111.626 433.484 111.733 L 433.484 113.457 Q 433.484 113.555 433.377 113.555 L 428.187 113.555 L 428.187 117.092 L 434.292 117.092 Q 434.399 117.092 434.399 117.198 L 434.399 119.011 Q 434.399 119.118 434.292 119.118 Z M 442.572 119.118 Q 442.519 119.118 442.483 119.065 L 439.781 114.479 Q 439.106 115.634 438.431 116.772 Q 437.755 117.909 437.08 119.065 Q 437.044 119.118 436.991 119.118 L 434.814 119.118 Q 434.743 119.118 434.716 119.069 Q 434.689 119.02 434.725 118.958 L 438.591 112.48 Q 437.675 110.933 436.778 109.405 Q 435.88 107.876 434.974 106.33 Q 434.938 106.268 434.965 106.219 Q 434.991 106.17 435.054 106.17 L 437.24 106.17 Q 437.293 106.17 437.329 106.223 L 439.781 110.489 Q 440.395 109.422 441.008 108.361 Q 441.621 107.299 442.234 106.223 Q 442.27 106.17 442.323 106.17 L 444.509 106.17 Q 444.571 106.17 444.598 106.219 Q 444.625 106.268 444.589 106.33 L 440.972 112.48 Q 441.95 114.106 442.91 115.719 Q 443.869 117.332 444.847 118.958 Q 444.882 119.02 444.856 119.069 Q 444.829 119.118 444.758 119.118 Z M 448.148 108.214 L 448.148 112.106 L 450.912 112.106 Q 451.934 112.106 452.432 111.493 Q 452.938 110.898 452.938 110.16 Q 452.938 109.058 452.156 108.552 Q 451.65 108.214 450.841 108.214 Z M 446.113 119.118 Q 446.007 119.118 446.007 119.011 L 446.007 106.277 Q 446.007 106.17 446.113 106.17 L 450.734 106.17 Q 451.499 106.17 452.183 106.33 Q 452.876 106.49 453.658 107.094 Q 453.96 107.334 454.214 107.65 Q 454.467 107.965 454.671 108.347 Q 454.867 108.738 454.973 109.209 Q 455.08 109.68 455.08 110.213 Q 455.08 111.609 454.031 112.879 Q 452.983 114.141 450.983 114.141 L 448.148 114.141 L 448.148 119.011 Q 448.148 119.118 448.042 119.118 Z M 458.768 108.098 L 458.768 111.751 L 461.585 111.751 Q 462.616 111.751 463.132 111.182 Q 463.647 110.613 463.647 109.831 Q 463.647 109.387 463.491 109.04 Q 463.336 108.694 463.043 108.472 Q 462.785 108.294 462.443 108.196 Q 462.101 108.098 461.701 108.098 Z M 456.733 119.118 Q 456.627 119.118 456.627 119.011 L 456.627 106.277 Q 456.627 106.17 456.733 106.17 L 461.719 106.17 Q 462.545 106.17 463.212 106.397 Q 463.878 106.623 464.376 107.041 Q 464.633 107.281 464.869 107.587 Q 465.104 107.894 465.287 108.249 Q 465.469 108.605 465.575 109.005 Q 465.682 109.405 465.682 109.831 Q 465.682 110.462 465.504 111.027 Q 465.327 111.591 465.007 112.08 Q 464.678 112.533 464.242 112.875 Q 463.807 113.217 463.256 113.422 Q 463.976 114.799 464.705 116.19 Q 465.433 117.58 466.153 118.958 Q 466.18 119.02 466.153 119.069 Q 466.126 119.118 466.064 119.118 L 463.771 119.118 Q 463.745 119.118 463.718 119.096 Q 463.691 119.073 463.674 119.056 L 461.07 113.679 L 458.768 113.679 L 458.768 119.011 Q 458.768 119.118 458.662 119.118 Z M 467.658 119.118 Q 467.551 119.118 467.551 119.011 L 467.551 106.277 Q 467.551 106.17 467.658 106.17 L 475.798 106.17 Q 475.905 106.17 475.905 106.277 L 475.905 108.107 Q 475.905 108.214 475.798 108.214 L 469.693 108.214 L 469.693 111.626 L 474.883 111.626 Q 474.989 111.626 474.989 111.733 L 474.989 113.457 Q 474.989 113.555 474.883 113.555 L 469.693 113.555 L 469.693 117.092 L 475.798 117.092 Q 475.905 117.092 475.905 117.198 L 475.905 119.011 Q 475.905 119.118 475.798 119.118 Z M 477.689 115.848 Q 477.716 115.812 477.76 115.812 Q 477.804 115.812 477.84 115.839 Q 478.542 116.407 479.453 116.75 Q 480.364 117.092 481.377 117.092 Q 482.514 117.092 483.172 116.621 Q 483.794 116.167 483.794 115.421 Q 483.794 114.017 482.221 113.804 L 482.23 113.804 Q 482.008 113.777 481.808 113.75 Q 481.608 113.724 481.408 113.697 Q 481.208 113.67 480.999 113.639 Q 480.79 113.608 480.542 113.573 Q 479.706 113.457 479.053 113.15 Q 478.4 112.844 477.955 112.337 Q 477.511 111.822 477.289 111.213 Q 477.067 110.604 477.067 109.885 Q 477.067 108.196 478.187 107.139 Q 479.315 106.063 481.324 106.063 Q 481.919 106.063 482.483 106.165 Q 483.048 106.268 483.576 106.445 Q 484.105 106.623 484.589 106.868 Q 485.074 107.112 485.518 107.405 Q 485.607 107.467 485.545 107.556 L 484.469 109.147 Q 484.407 109.227 484.327 109.174 Q 483.634 108.738 482.852 108.476 Q 482.07 108.214 481.235 108.214 Q 480.808 108.214 480.444 108.316 Q 480.079 108.418 479.786 108.649 Q 479.209 109.067 479.209 109.92 Q 479.209 110.409 479.6 110.871 Q 479.795 111.084 480.124 111.231 Q 480.453 111.378 480.933 111.449 Q 481.19 111.493 481.537 111.542 Q 481.883 111.591 482.354 111.644 Q 484.176 111.866 485.056 112.986 Q 485.936 114.079 485.936 115.421 Q 485.936 117.216 484.683 118.229 Q 483.421 119.225 481.359 119.225 Q 478.453 119.225 476.418 117.447 Q 476.383 117.421 476.383 117.376 Q 476.383 117.332 476.409 117.296 Z M 487.955 115.848 Q 487.981 115.812 488.026 115.812 Q 488.07 115.812 488.106 115.839 Q 488.808 116.407 489.719 116.75 Q 490.63 117.092 491.643 117.092 Q 492.78 117.092 493.438 116.621 Q 494.06 116.167 494.06 115.421 Q 494.06 114.017 492.487 113.804 L 492.496 113.804 Q 492.274 113.777 492.074 113.75 Q 491.874 113.724 491.674 113.697 Q 491.474 113.67 491.265 113.639 Q 491.056 113.608 490.807 113.573 Q 489.972 113.457 489.319 113.15 Q 488.666 112.844 488.221 112.337 Q 487.777 111.822 487.555 111.213 Q 487.333 110.604 487.333 109.885 Q 487.333 108.196 488.452 107.139 Q 489.581 106.063 491.589 106.063 Q 492.185 106.063 492.749 106.165 Q 493.313 106.268 493.842 106.445 Q 494.371 106.623 494.855 106.868 Q 495.34 107.112 495.784 107.405 Q 495.873 107.467 495.811 107.556 L 494.735 109.147 Q 494.673 109.227 494.593 109.174 Q 493.9 108.738 493.118 108.476 Q 492.336 108.214 491.5 108.214 Q 491.074 108.214 490.71 108.316 Q 490.345 108.418 490.052 108.649 Q 489.474 109.067 489.474 109.92 Q 489.474 110.409 489.865 110.871 Q 490.061 111.084 490.39 111.231 Q 490.718 111.378 491.198 111.449 Q 491.456 111.493 491.803 111.542 Q 492.149 111.591 492.62 111.644 Q 494.442 111.866 495.322 112.986 Q 496.202 114.079 496.202 115.421 Q 496.202 117.216 494.949 118.229 Q 493.687 119.225 491.625 119.225 Q 488.719 119.225 486.684 117.447 Q 486.648 117.421 486.648 117.376 Q 486.648 117.332 486.675 117.296 Z M 500.212 119.118 Q 500.123 119.118 500.105 119.038 L 496.915 106.303 Q 496.897 106.25 496.933 106.21 Q 496.968 106.17 497.022 106.17 L 499.066 106.17 Q 499.155 106.17 499.172 106.25 L 501.092 114.95 Q 501.678 112.764 502.274 110.604 Q 502.869 108.445 503.465 106.25 Q 503.482 106.17 503.571 106.17 L 504.966 106.17 Q 505.046 106.17 505.064 106.25 L 507.446 114.95 Q 507.926 112.764 508.406 110.604 Q 508.885 108.445 509.365 106.25 Q 509.383 106.17 509.472 106.17 L 511.516 106.17 Q 511.569 106.17 511.605 106.21 Q 511.64 106.25 511.623 106.303 L 508.432 119.038 Q 508.414 119.118 508.326 119.118 L 506.717 119.118 Q 506.637 119.118 506.619 119.038 L 504.264 110.196 Q 503.678 112.426 503.091 114.621 Q 502.505 116.816 501.918 119.038 Q 501.901 119.118 501.821 119.118 Z M 511.539 119.109 Q 511.477 119.109 511.45 119.065 Q 511.423 119.02 511.441 118.967 L 516.098 106.223 Q 516.115 106.152 516.187 106.152 L 517.777 106.152 Q 517.804 106.152 517.835 106.174 Q 517.866 106.197 517.875 106.223 L 522.523 118.967 Q 522.541 119.02 522.514 119.065 Q 522.487 119.109 522.434 119.109 L 520.399 119.109 Q 520.328 119.109 520.31 119.038 L 519.35 116.23 L 514.658 116.23 Q 514.409 116.95 514.165 117.638 Q 513.92 118.327 513.672 119.038 Q 513.663 119.065 513.632 119.087 Q 513.601 119.109 513.574 119.109 Z M 518.71 114.319 Q 518.693 114.257 518.662 114.186 Q 518.63 114.115 518.613 114.061 Q 518.462 113.626 518.337 113.257 Q 518.213 112.888 518.115 112.613 Q 518.053 112.435 517.995 112.266 Q 517.937 112.097 517.884 111.946 Q 517.84 111.804 517.795 111.675 Q 517.751 111.546 517.706 111.422 Q 517.626 111.164 517.542 110.907 Q 517.457 110.649 517.369 110.373 Q 517.324 110.249 517.275 110.098 Q 517.226 109.947 517.173 109.778 Q 517.146 109.689 517.133 109.64 Q 517.12 109.591 517.102 109.542 Q 517.084 109.494 517.062 109.431 Q 517.04 109.369 517.004 109.254 Q 516.906 109.547 516.822 109.796 Q 516.738 110.045 516.666 110.258 Q 516.649 110.311 516.64 110.356 Q 516.631 110.4 516.613 110.444 Q 516.569 110.596 516.52 110.729 Q 516.471 110.862 516.427 110.995 Q 516.382 111.138 516.338 111.271 Q 516.293 111.404 516.249 111.529 Q 516.16 111.795 516.067 112.088 Q 515.973 112.382 515.858 112.702 Q 515.742 113.022 515.618 113.39 Q 515.493 113.759 515.298 114.319 Z M 525.502 119.118 Q 525.404 119.118 525.404 119.011 L 525.404 113.804 Q 524.444 111.929 523.493 110.062 Q 522.543 108.196 521.592 106.321 Q 521.565 106.259 521.592 106.214 Q 521.618 106.17 521.689 106.17 L 523.716 106.17 Q 523.742 106.17 523.769 106.192 Q 523.796 106.214 523.813 106.232 L 526.426 111.689 Q 527.084 110.311 527.728 108.96 Q 528.372 107.61 529.03 106.232 Q 529.048 106.214 529.074 106.192 Q 529.101 106.17 529.128 106.17 L 531.163 106.17 Q 531.234 106.17 531.26 106.214 Q 531.287 106.259 531.26 106.321 L 527.439 113.804 L 527.439 119.011 Q 527.439 119.118 527.333 119.118 Z" style="fill: rgb(255, 255, 255); visibility: hidden;"/>
    <path d="M 343.122 84.558 Q 343.194 84.558 343.243 84.612 Q 343.291 84.666 343.267 84.738 Q 342.762 87.189 341.032 88.51 Q 340.192 89.147 339.207 89.471 Q 338.222 89.795 337.081 89.795 Q 335.002 89.795 333.585 88.798 Q 332.192 87.813 331.567 86.636 Q 331.351 86.228 331.195 85.813 Q 331.039 85.399 330.955 84.942 Q 330.798 84.054 330.798 80.906 Q 330.798 79.333 330.834 78.336 Q 330.87 77.339 330.955 76.883 Q 331.039 76.426 331.195 76.006 Q 331.351 75.585 331.567 75.177 Q 332.192 74.012 333.585 73.015 Q 334.99 72.006 337.081 72.006 Q 339.579 72.006 341.213 73.543 Q 342.87 75.093 343.267 77.219 Q 343.291 77.291 343.243 77.339 Q 343.194 77.387 343.122 77.387 L 340.372 77.387 Q 340.264 77.387 340.24 77.291 Q 340.083 76.81 339.795 76.396 Q 339.507 75.982 339.086 75.621 Q 338.294 74.913 337.081 74.913 Q 336.18 74.913 335.543 75.273 Q 334.906 75.633 334.522 76.102 Q 334.294 76.39 334.126 76.756 Q 333.957 77.123 333.861 77.507 Q 333.765 77.916 333.729 78.768 Q 333.693 79.621 333.693 80.906 Q 333.693 82.216 333.729 83.063 Q 333.765 83.909 333.861 84.318 Q 333.957 84.69 334.132 85.057 Q 334.306 85.423 334.522 85.699 Q 334.906 86.204 335.543 86.558 Q 336.18 86.912 337.081 86.912 Q 339.159 86.912 340.24 84.642 Q 340.264 84.618 340.3 84.588 Q 340.336 84.558 340.372 84.558 Z M 348.144 89.651 Q 348 89.651 348 89.507 L 348 74.756 L 343.424 74.756 Q 343.279 74.756 343.279 74.612 L 343.279 72.294 Q 343.279 72.15 343.424 72.15 L 355.459 72.15 Q 355.604 72.15 355.604 72.294 L 355.604 74.612 Q 355.604 74.756 355.459 74.756 L 350.895 74.756 L 350.895 89.507 Q 350.895 89.651 350.751 89.651 Z M 355.971 89.651 Q 355.827 89.651 355.827 89.507 L 355.827 87.068 Q 355.827 86.924 355.971 86.924 L 358.421 86.924 Q 358.553 86.924 358.553 87.068 L 358.553 89.507 Q 358.553 89.651 358.421 89.651 Z M 366.916 77.327 Q 366.916 76.162 366.297 75.507 Q 365.679 74.853 364.646 74.853 Q 363.613 74.853 363 75.507 Q 362.388 76.162 362.388 77.327 L 362.388 84.594 Q 362.388 85.771 363 86.42 Q 363.613 87.068 364.646 87.068 Q 365.679 87.068 366.297 86.42 Q 366.916 85.771 366.916 84.594 Z M 359.649 77.183 Q 359.649 74.756 361.174 73.447 Q 362.688 72.114 364.646 72.114 Q 365.619 72.114 366.49 72.456 Q 367.361 72.799 368.117 73.447 Q 368.874 74.12 369.264 75.051 Q 369.655 75.982 369.655 77.183 L 369.655 84.738 Q 369.655 87.153 368.117 88.474 Q 366.604 89.795 364.646 89.795 Q 362.688 89.795 361.174 88.474 Q 359.649 87.165 359.649 84.738 Z M 374.69 89.687 Q 374.546 89.687 374.546 89.543 L 374.546 75.273 Q 373.993 75.681 373.441 76.096 Q 372.888 76.51 372.335 76.907 Q 372.251 76.967 372.179 76.925 Q 372.107 76.883 372.107 76.786 L 372.107 74.18 Q 372.107 74.156 372.125 74.12 Q 372.143 74.084 372.167 74.06 L 374.642 72.27 L 377.152 72.27 Q 377.296 72.27 377.296 72.414 L 377.296 89.543 Q 377.296 89.687 377.152 89.687 Z" style="visibility: hidden;"/>
  </g>
  <g style="visibility: hidden;" transform="matrix(6.09448, 0, 0, 1, -18.340126, 0)">
    <rect x="3.6" y="114.575" width="17.267" height="81.876" style="fill: rgb(216, 216, 216);"/>
    <rect x="20.867" y="114.575" width="17.267" height="81.876" style="fill: rgb(215, 140, 140);"/>
    <rect x="38.134" y="114.575" width="17.267" height="81.876" style="fill: rgb(201, 140, 215);"/>
  </g>
  <line style="fill: rgb(216, 216, 216); stroke-width: 3px; stroke: rgb(255, 255, 255); stroke-dasharray: 6, 10; stroke-dashoffset: -6px;" x1="108.921" y1="114.575" x2="108.668" y2="196.451"/>
  <line style="fill: rgb(216, 216, 216); stroke-width: 3px; stroke: rgb(255, 255, 255); stroke-dasharray: 6, 10; stroke-dashoffset: -6px;" x1="213.941" y1="114.575" x2="213.688" y2="196.451"/>
</svg>