<?xml version="1.0" encoding="utf-8"?>
<!-- Generator: Adobe Illustrator 21.0.0, SVG Export Plug-In . SVG Version: 6.00 Build 0)  -->
<svg version="1.1" id="Layer_1" xmlns="http://www.w3.org/2000/svg" xmlns:xlink="http://www.w3.org/1999/xlink" x="0px" y="0px"
	 viewBox="0 0 122 57" style="enable-background:new 0 0 122 57;" xml:space="preserve">
<style type="text/css">
	.st0{fill:#FFFFFF;stroke:#000000;stroke-width:2;stroke-miterlimit:10;}
</style>
<path class="st0" d="M119,56H3c-1.1,0-2-0.9-2-2V3c0-1.1,0.9-2,2-2h116c1.1,0,2,0.9,2,2v51C121,55.1,120.1,56,119,56z"/>
<g>
	<path d="M30.6,44.6c-1.2,0.8-2.8,1.1-4.8,1.1c-7,0-10-5.4-10-17.3c0-11.9,3.1-17.3,10-17.3c7,0,10,5.4,10,17.3
		c0,6.2-1,10.8-2.4,13.2l3.1,3.6l-2.9,2.8L30.6,44.6z M28.1,35.9l2,2.2c0.7-2,1-5.1,1-9.8c0-11.2-2.3-13.1-5.2-13.1
		c-2.9,0-5.2,2-5.2,13.1c0,11.5,2.3,13.4,5.2,13.4c0.6,0,1.2-0.1,1.7-0.3L25.3,39L28.1,35.9z"/>
	<path d="M39.6,11.8h4.8v28.8h11.7v4.5H39.6V11.8z"/>
	<path d="M59.2,39H64v6.2h-4.8V39z"/>
	<path d="M68,12.8h17.8V17c-4.7,6.8-8.8,18.2-9.5,28.1h-5.1c0.7-9.8,5.1-20.8,9.9-27.6H68V12.8z"/>
	<path d="M95.9,45.1v-24h-6.2v-3.4h0.5c2.9,0,6.2-0.7,7.1-4.9v-0.7h3.5v33H95.9z"/>
</g>
</svg>
