<?xml version="1.0" encoding="UTF-8"?>
<!DOCTYPE svg PUBLIC "-//W3C//DTD SVG 1.1//EN" "http://www.w3.org/Graphics/SVG/1.1/DTD/svg11.dtd">
<svg xmlns="http://www.w3.org/2000/svg" version="1.1" width="2560px" height="1196px" style="shape-rendering:geometricPrecision; text-rendering:geometricPrecision; image-rendering:optimizeQuality; fill-rule:evenodd; clip-rule:evenodd" xmlns:xlink="http://www.w3.org/1999/xlink">
<g><path style="opacity:0.999" fill="#000000" d="M 51.5,-0.5 C 870.167,-0.5 1688.83,-0.5 2507.5,-0.5C 2535.17,6.5 2552.5,23.8333 2559.5,51.5C 2559.5,415.5 2559.5,779.5 2559.5,1143.5C 2552.5,1171.17 2535.17,1188.5 2507.5,1195.5C 1688.83,1195.5 870.167,1195.5 51.5,1195.5C 23.8333,1188.5 6.5,1171.17 -0.5,1143.5C -0.5,779.5 -0.5,415.5 -0.5,51.5C 6.5,23.8333 23.8333,6.5 51.5,-0.5 Z"/></g>
<g><path style="opacity:1" fill="#fefefe" d="M 56.5,41.5 C 872.554,41.0008 1688.55,41.5008 2504.5,43C 2510.39,45.8924 2514.56,50.3924 2517,56.5C 2518,417.888 2517.66,779.221 2516,1140.5C 2513.01,1146.82 2508.18,1150.99 2501.5,1153C 1686.5,1153.67 871.5,1153.67 56.5,1153C 49.2417,1150.08 44.4084,1144.91 42,1137.5C 41.3333,777.167 41.3333,416.833 42,56.5C 45.0214,49.6468 49.8548,44.6468 56.5,41.5 Z"/></g>
<g><path style="opacity:1" fill="#000000" d="M 269.5,245.5 C 322.909,240.807 369.909,255.64 410.5,290C 466.438,339.047 496.271,400.88 500,475.5C 503.626,571.518 503.292,667.518 499,763.5C 496.108,778.516 493.108,793.516 490,808.5C 487.696,815.078 485.196,821.578 482.5,828C 505.924,852.757 530.091,876.924 555,900.5C 555.667,902.5 555.667,904.5 555,906.5C 536.945,930.888 519.279,955.555 502,980.5C 499.997,982.922 497.497,983.755 494.5,983C 470.985,959.985 447.319,937.151 423.5,914.5C 360.887,972.856 289.221,987.356 208.5,958C 183.148,945.887 161.315,929.054 143,907.5C 106.934,866.341 86.6007,818.341 82,763.5C 78.141,710.071 76.641,656.571 77.5,603C 76.597,553.083 78.097,503.25 82,453.5C 91.3726,380.892 124.873,322.392 182.5,278C 208.787,259.74 237.787,248.906 269.5,245.5 Z"/></g>
<g><path style="opacity:1" fill="#000000" d="M 1801.5,247.5 C 1875.55,242.429 1927.38,273.762 1957,341.5C 1971.54,376.187 1981.54,412.187 1987,449.5C 1996,517.553 1999,585.886 1996,654.5C 1995.25,705.077 1989.58,755.077 1979,804.5C 1971.76,838.227 1959.43,869.894 1942,899.5C 1906.65,951.645 1857.48,973.478 1794.5,965C 1751.94,957.424 1719.44,935.257 1697,898.5C 1680.91,870.986 1669.25,841.653 1662,810.5C 1650.57,757.784 1644.23,704.451 1643,650.5C 1640.88,592.017 1642.88,533.684 1649,475.5C 1653.17,435.798 1661.84,397.132 1675,359.5C 1686.08,327.138 1704.25,299.638 1729.5,277C 1750.69,260.237 1774.69,250.404 1801.5,247.5 Z"/></g>
<g><path style="opacity:1" fill="#000000" d="M 618.5,249.5 C 649.74,249.171 680.907,249.504 712,250.5C 712.5,451.5 712.667,652.5 712.5,853.5C 805.834,853.333 899.167,853.5 992.5,854C 993,854.5 993.5,855 994,855.5C 994.667,891.167 994.667,926.833 994,962.5C 993.535,963.931 992.701,965.097 991.5,966C 866.597,966.832 741.764,966.665 617,965.5C 616.333,727.5 616.333,489.5 617,251.5C 617.717,250.956 618.217,250.289 618.5,249.5 Z"/></g>
<g><path style="opacity:1" fill="#000000" d="M 2064.5,249.5 C 2149.85,249.033 2235.18,249.533 2320.5,251C 2379.78,259.027 2421.61,290.193 2446,344.5C 2455.77,368.235 2461.77,392.902 2464,418.5C 2467.83,459.047 2461.83,498.047 2446,535.5C 2438.76,549.083 2429.59,561.25 2418.5,572C 2408.78,580.05 2398.78,587.716 2388.5,595C 2413.79,606.952 2433.29,625.119 2447,649.5C 2476.16,705.437 2483.16,764.103 2468,825.5C 2455.28,877.478 2426.11,917.311 2380.5,945C 2361.11,955.348 2340.44,961.014 2318.5,962C 2234.5,962.5 2150.5,962.667 2066.5,962.5C 2066.5,963.833 2066.5,965.167 2066.5,966.5C 2065.18,966.67 2064.01,966.337 2063,965.5C 2062.33,727.5 2062.33,489.5 2063,251.5C 2063.72,250.956 2064.22,250.289 2064.5,249.5 Z"/></g>
<g><path style="opacity:1" fill="#3f3f3f" d="M 1570.5,259.5 C 1476.83,259.5 1383.17,259.5 1289.5,259.5C 1289.8,262.059 1289.47,264.393 1288.5,266.5C 1288.5,263.833 1288.5,261.167 1288.5,258.5C 1382.67,258.167 1476.67,258.501 1570.5,259.5 Z"/></g>
<g><path style="opacity:1" fill="#000000" d="M 1570.5,259.5 C 1570.5,297.833 1570.5,336.167 1570.5,374.5C 1501.17,374.333 1431.83,374.5 1362.5,375C 1355.54,425.342 1349.71,475.842 1345,526.5C 1381.38,489.316 1424.54,478.816 1474.5,495C 1511.05,508.859 1538.55,533.026 1557,567.5C 1573.02,596.908 1583.02,628.241 1587,661.5C 1595.53,723.66 1589.53,784.327 1569,843.5C 1553.73,885.914 1527.57,919.747 1490.5,945C 1445.52,969.292 1398.86,972.958 1350.5,956C 1309.09,938.252 1279.25,908.752 1261,867.5C 1246.79,833.26 1239.29,797.594 1238.5,760.5C 1272.17,760.5 1305.83,760.5 1339.5,760.5C 1340.37,786.992 1347.87,811.326 1362,833.5C 1381.03,854.718 1404.2,860.884 1431.5,852C 1450.78,842.977 1464.28,828.477 1472,808.5C 1486.36,768.57 1490.36,727.57 1484,685.5C 1480.52,660.343 1470.85,638.01 1455,618.5C 1435.77,599.704 1413.27,594.538 1387.5,603C 1366.37,612.297 1352.03,627.797 1344.5,649.5C 1314.48,647.721 1284.48,645.721 1254.5,643.5C 1265.43,517.789 1276.76,392.122 1288.5,266.5C 1289.47,264.393 1289.8,262.059 1289.5,259.5C 1383.17,259.5 1476.83,259.5 1570.5,259.5 Z"/></g>
<g><path style="opacity:1" fill="#fefefe" d="M 2159.5,356.5 C 2207.2,356.034 2254.86,356.534 2302.5,358C 2332.53,365.691 2352.69,384.191 2363,413.5C 2371.13,442.494 2370.13,471.161 2360,499.5C 2346.86,529.119 2324.03,544.786 2291.5,546.5C 2247.5,546.5 2203.5,546.5 2159.5,546.5C 2159.5,483.167 2159.5,419.833 2159.5,356.5 Z"/></g>
<g><path style="opacity:1" fill="#fefefe" d="M 1808.5,357.5 C 1822.16,355.932 1835.16,358.099 1847.5,364C 1858.88,371.9 1867.05,382.4 1872,395.5C 1881.53,422.675 1887.2,450.675 1889,479.5C 1895.29,567.197 1894.96,654.864 1888,742.5C 1885.72,768.145 1880.38,793.145 1872,817.5C 1857.79,851.476 1832.95,862.976 1797.5,852C 1782.53,843.908 1772.36,831.741 1767,815.5C 1760.19,795.325 1755.53,774.658 1753,753.5C 1749.25,717.937 1747.25,682.271 1747,646.5C 1745.52,588.761 1746.86,531.094 1751,473.5C 1753.15,448.245 1758.15,423.579 1766,399.5C 1772.87,377.79 1787.04,363.79 1808.5,357.5 Z"/></g>
<g><path style="opacity:1" fill="#fefefe" d="M 275.5,364.5 C 314.483,361.64 345.65,375.64 369,406.5C 382.415,427.671 391.081,450.671 395,475.5C 396.619,499.17 398.286,522.837 400,546.5C 400.623,601.181 399.957,655.847 398,710.5C 397.684,722.336 396.184,734.003 393.5,745.5C 373.015,726.182 352.682,706.682 332.5,687C 329.975,686.104 327.808,686.604 326,688.5C 309.333,711.833 292.667,735.167 276,758.5C 274.517,761.702 274.183,765.036 275,768.5C 297.013,791.346 319.179,814.012 341.5,836.5C 314.658,855.832 285.325,860.665 253.5,851C 232.051,841.549 214.884,827.049 202,807.5C 193.032,790.593 186.032,772.927 181,754.5C 176.959,725.661 174.626,696.661 174,667.5C 173.154,617.824 173.488,568.157 175,518.5C 175.148,491.13 179.481,464.464 188,438.5C 191.159,431.512 194.826,424.846 199,418.5C 212.243,401.923 227.409,387.423 244.5,375C 254.309,369.564 264.642,366.064 275.5,364.5 Z"/></g>
<g><path style="opacity:1" fill="#b3b3b3" d="M 2159.5,356.5 C 2159.5,419.833 2159.5,483.167 2159.5,546.5C 2203.5,546.5 2247.5,546.5 2291.5,546.5C 2247.34,547.499 2203,547.832 2158.5,547.5C 2158.17,483.664 2158.5,419.998 2159.5,356.5 Z"/></g>
<g><path style="opacity:1" fill="#fefefe" d="M 2158.5,654.5 C 2206.17,654.333 2253.83,654.5 2301.5,655C 2329.93,658.117 2350.77,672.284 2364,697.5C 2373.05,714.718 2377.22,733.051 2376.5,752.5C 2377.93,779.513 2371.1,804.18 2356,826.5C 2341.82,843.507 2323.66,853.007 2301.5,855C 2253.83,855.5 2206.17,855.667 2158.5,855.5C 2158.5,788.5 2158.5,721.5 2158.5,654.5 Z"/></g>
<g><path style="opacity:1" fill="#000000" d="M 1070.5,853.5 C 1098.84,853.333 1127.17,853.5 1155.5,854C 1156,854.5 1156.5,855 1157,855.5C 1157.67,891.833 1157.67,928.167 1157,964.5C 1156.5,965 1156,965.5 1155.5,966C 1126.49,966.833 1097.49,966.667 1068.5,965.5C 1067.34,929.208 1067.17,892.875 1068,856.5C 1068.7,855.309 1069.53,854.309 1070.5,853.5 Z"/></g>
</svg>
