<?xml version="1.0" encoding="UTF-8" standalone="no"?>
<svg
   xmlns:dc="http://purl.org/dc/elements/1.1/"
   xmlns:cc="http://creativecommons.org/ns#"
   xmlns:rdf="http://www.w3.org/1999/02/22-rdf-syntax-ns#"
   xmlns:svg="http://www.w3.org/2000/svg"
   xmlns="http://www.w3.org/2000/svg"
   xmlns:sodipodi="http://sodipodi.sourceforge.net/DTD/sodipodi-0.dtd"
   xmlns:inkscape="http://www.inkscape.org/namespaces/inkscape"
   sodipodi:docname="Vietnam_road_sign_IE460b.svg"
   inkscape:version="1.0 (4035a4fb49, 2020-05-01)"
   id="svg6000"
   version="1.1"
   viewBox="0 0 53.872002 146.52859"
   height="146.52859mm"
   width="53.872002mm">
  <defs
     id="defs5994" />
  <sodipodi:namedview
     inkscape:window-maximized="1"
     inkscape:window-y="-9"
     inkscape:window-x="-9"
     inkscape:window-height="1001"
     inkscape:window-width="1920"
     showgrid="false"
     inkscape:document-rotation="0"
     inkscape:current-layer="layer1"
     inkscape:document-units="mm"
     inkscape:cy="230.93329"
     inkscape:cx="282.34823"
     inkscape:zoom="0.97489032"
     inkscape:pageshadow="2"
     inkscape:pageopacity="0.0"
     borderopacity="1.0"
     bordercolor="#666666"
     pagecolor="#ffffff"
     id="base" />
  <metadata
     id="metadata5997">
    <rdf:RDF>
      <cc:Work
         rdf:about="">
        <dc:format>image/svg+xml</dc:format>
        <dc:type
           rdf:resource="http://purl.org/dc/dcmitype/StillImage" />
        <dc:title></dc:title>
      </cc:Work>
    </rdf:RDF>
  </metadata>
  <g
     transform="translate(212.18153,-109.69674)"
     id="layer1"
     inkscape:groupmode="layer"
     inkscape:label="Layer 1">
    <path
       sodipodi:nodetypes="sssssssss"
       id="path7685"
       d="m -205.50754,109.69674 c -3.66144,0 -6.67399,3.01094 -6.67399,6.67251 V 249.5528 c 0,3.66156 3.01255,6.67253 6.67399,6.67253 h 40.524 c 3.66145,0 6.67401,-3.01097 6.67401,-6.67253 V 116.36925 c 0,-3.66157 -3.01256,-6.67251 -6.67401,-6.67251 z"
       style="color:#000000;font-style:normal;font-variant:normal;font-weight:normal;font-stretch:normal;font-size:medium;line-height:normal;font-family:sans-serif;font-variant-ligatures:normal;font-variant-position:normal;font-variant-caps:normal;font-variant-numeric:normal;font-variant-alternates:normal;font-variant-east-asian:normal;font-feature-settings:normal;font-variation-settings:normal;text-indent:0;text-align:start;text-decoration:none;text-decoration-line:none;text-decoration-style:solid;text-decoration-color:#000000;letter-spacing:normal;word-spacing:normal;text-transform:none;writing-mode:lr-tb;direction:ltr;text-orientation:mixed;dominant-baseline:auto;baseline-shift:baseline;text-anchor:start;white-space:normal;shape-padding:0;shape-margin:0;inline-size:0;clip-rule:nonzero;display:inline;overflow:visible;visibility:visible;opacity:1;isolation:auto;mix-blend-mode:normal;color-interpolation:sRGB;color-interpolation-filters:linearRGB;solid-color:#000000;solid-opacity:1;vector-effect:none;fill:#0a9646;fill-opacity:1;fill-rule:evenodd;stroke:none;stroke-width:0.399035;stroke-linecap:square;stroke-linejoin:miter;stroke-miterlimit:4;stroke-dasharray:none;stroke-dashoffset:0;stroke-opacity:1;paint-order:stroke fill markers;color-rendering:auto;image-rendering:auto;shape-rendering:auto;text-rendering:auto;enable-background:accumulate;stop-color:#000000;stop-opacity:1" />
    <path
       d="m -205.50754,110.12673 c -3.42634,0 -6.24436,2.8158 -6.24436,6.24215 v 133.18354 c 0,3.42636 2.81802,6.24327 6.24436,6.24327 h 40.524 c 3.42635,0 6.24438,-2.81691 6.24437,-6.24327 V 116.36888 c 0,-3.42635 -2.81802,-6.24215 -6.24437,-6.24215 z m 0,1.88663 h 40.524 c 2.4135,0 4.35662,1.94312 4.35662,4.35663 v 133.18243 c 0,2.41351 -1.94312,4.35664 -4.35662,4.35664 h -40.524 c -2.41349,0 -4.3566,-1.94313 -4.3566,-4.35664 V 116.36999 c 0,-2.41351 1.94311,-4.35663 4.3566,-4.35663 z"
       style="color:#000000;font-style:normal;font-variant:normal;font-weight:normal;font-stretch:normal;font-size:medium;line-height:normal;font-family:sans-serif;font-variant-ligatures:normal;font-variant-position:normal;font-variant-caps:normal;font-variant-numeric:normal;font-variant-alternates:normal;font-variant-east-asian:normal;font-feature-settings:normal;font-variation-settings:normal;text-indent:0;text-align:start;text-decoration:none;text-decoration-line:none;text-decoration-style:solid;text-decoration-color:#000000;letter-spacing:normal;word-spacing:normal;text-transform:none;writing-mode:lr-tb;direction:ltr;text-orientation:mixed;dominant-baseline:auto;baseline-shift:baseline;text-anchor:start;white-space:normal;shape-padding:0;shape-margin:0;inline-size:0;clip-rule:nonzero;display:inline;overflow:visible;visibility:visible;opacity:1;isolation:auto;mix-blend-mode:normal;color-interpolation:sRGB;color-interpolation-filters:linearRGB;solid-color:#000000;solid-opacity:1;vector-effect:none;fill:#ffffff;fill-opacity:1;fill-rule:evenodd;stroke:none;stroke-width:0.399035;stroke-linecap:square;stroke-linejoin:miter;stroke-miterlimit:4;stroke-dasharray:none;stroke-dashoffset:0;stroke-opacity:1;paint-order:stroke fill markers;color-rendering:auto;image-rendering:auto;shape-rendering:auto;text-rendering:auto;enable-background:accumulate;stop-color:#000000;stop-opacity:1"
       id="path7687"
       sodipodi:nodetypes="ssssscssssssssssss" />
    <g
       transform="matrix(0.75851013,0,0,0.75851013,-387.75861,17.225002)"
       aria-label="Km"
       id="text7707"
       style="font-size:39.1939px;line-height:1.3;font-family:'Singapore Road Signs';-inkscape-font-specification:'Singapore Road Signs';text-align:center;text-anchor:middle;opacity:1;fill:#ffffff;fill-opacity:1;stroke-width:0.348819">
      <path
         id="path7742"
         style="font-style:normal;font-variant:normal;font-weight:normal;font-stretch:normal;font-family:'Alte DIN 1451 Mittelschrift gepraegt';-inkscape-font-specification:'Alte DIN 1451 Mittelschrift gepraegt';fill:#ffffff;fill-opacity:1;stroke-width:0.348819"
         d="m 267.56057,171.82355 q -0.22965,0 -0.22965,-0.22965 v -19.40558 q 0,-0.22965 0.22965,-0.22965 h 3.90408 q 0.22965,0 0.22965,0.22965 v 1.55015 q 1.83722,-1.99031 4.89924,-1.99031 2.04773,0 3.32995,0.7655 0.57413,0.34448 1.10999,0.76551 0.53585,0.40189 1.01429,0.89947 2.35393,-2.43048 6.14319,-2.43048 2.31565,0 4.51648,1.76066 2.18169,1.7798 2.18169,5.1863 v 12.89878 q 0,0.22965 -0.22965,0.22965 h -3.90408 q -0.22965,0 -0.22965,-0.22965 v -11.55914 q 0,-1.89463 -1.0143,-2.90892 -1.03343,-1.03344 -2.58358,-1.03344 -1.60756,0 -2.64099,1.03344 -1.0143,1.01429 -1.0143,2.90892 v 11.55914 q 0,0.22965 -0.21051,0.22965 h -3.90408 q -0.21052,0 -0.21052,-0.22965 v -11.55914 q 0,-1.87549 -1.03343,-2.90892 -1.03343,-1.03344 -2.58358,-1.03344 -1.60757,0 -2.641,1.03344 -0.99516,0.99516 -0.99516,2.90892 v 11.55914 q 0,0.22965 -0.22965,0.22965 z m -24.68756,0 q -0.21052,0 -0.21052,-0.22965 v -27.42425 q 0,-0.22965 0.21052,-0.22965 h 4.172 q 0.22966,0 0.22966,0.22965 v 13.62601 q 2.73668,-3.46392 5.47336,-6.87042 2.73669,-3.42564 5.49251,-6.88955 0.0957,-0.0957 0.17224,-0.0957 h 4.93751 q 0.1531,0 0.21051,0.13396 0.0574,0.13397 -0.0383,0.24879 l -8.68849,10.69795 q 2.43048,4.15287 4.80355,8.22918 2.3922,4.07632 4.84182,8.22919 0.0574,0.13397 0,0.24879 -0.0383,0.0957 -0.19138,0.0957 h -4.93751 q -0.11482,0 -0.19137,-0.11483 l -7.34886,-13.12842 q -1.18654,1.22481 -2.27738,2.37307 -1.09085,1.14826 -2.25824,2.37307 v 8.26746 q 0,0.22965 -0.22966,0.22965 z m 20.55649,102.75101 q -0.34314,0 -0.34314,-0.34314 v -5.1185 q 0,-0.34314 0.34314,-0.34314 h 2.00165 q 2.77371,0 4.37503,-1.54413 1.57273,-1.48693 1.57273,-3.91751 0,-2.28759 -1.62992,-3.91751 -1.62991,-1.62991 -3.9747,-1.62991 -1.7157,0 -3.28842,1.17239 -1.57272,1.1438 -2.00165,3.45999 -0.0286,0.11438 -0.14297,0.20017 -0.0858,0.0858 -0.17157,0.0858 h -5.86197 q -0.14298,0 -0.25736,-0.11438 -0.0858,-0.11438 -0.0572,-0.25735 0.28595,-4.37503 3.71735,-7.74924 3.37421,-3.31701 7.83502,-3.31701 2.77371,0 5.00412,0.94363 2.259,0.94363 3.9747,2.77371 1.62992,1.80149 2.48777,3.91751 0.88644,2.08744 0.88644,4.31784 0,2.43058 -0.94363,4.74677 -0.45752,1.02942 -1.25818,1.94446 -0.80066,0.91504 -1.88727,1.7157 2.2876,1.62991 3.4028,3.91751 1.1438,2.45916 1.1438,5.00412 0,5.80478 -3.68875,9.35055 -3.63156,3.45999 -9.00742,3.45999 -2.14462,0 -4.06048,-0.68628 -1.88727,-0.68628 -3.63157,-2.05883 -1.71569,-1.40116 -2.77371,-3.37421 -1.02942,-1.97305 -1.42975,-4.63239 -0.0572,-0.37173 0.34314,-0.37173 h 5.83338 q 0.20016,0 0.31454,0.22876 0.37174,1.00082 0.85785,1.80148 0.51471,0.80066 1.20099,1.40116 0.68628,0.5719 1.57272,0.88644 0.91504,0.31454 2.11603,0.31454 2.259,0 4.06049,-1.62991 1.77289,-1.57272 1.77289,-4.48941 0,-2.91669 -1.77289,-4.48941 -1.80149,-1.65851 -4.17487,-1.65851 z m -8.23535,-46.3714 q -0.34314,0 -0.34314,-0.34314 V 222.284 l 16.01319,-20.04508 v 0.0286 q 0.88644,-1.11521 1.1438,-2.03025 0.25735,-0.94363 0.25735,-1.83007 0,-1.97306 -1.42975,-3.71735 -1.42975,-1.7157 -3.86032,-1.7157 -2.23041,0 -3.86032,1.51554 -0.80066,0.74346 -1.22958,1.77288 -0.40033,1.00083 -0.51471,2.2876 0,0.14298 -0.11438,0.22876 -0.0858,0.0858 -0.22876,0.0858 h -5.83338 q -0.34314,0 -0.34314,-0.34314 0.0572,-5.08991 3.45999,-8.5499 3.46,-3.51718 8.23536,-3.51718 5.17569,0 8.72146,3.54577 h -0.0286 q 3.51718,3.51719 3.51718,8.46412 0,2.14462 -0.62909,3.9747 -0.62909,1.83008 -1.88727,3.4028 v -0.0286 q -1.62991,2.05884 -3.20264,4.03189 -1.57272,1.97306 -3.14544,3.94611 -1.57273,1.94446 -3.14545,3.91751 -1.57272,1.94446 -3.20264,4.0033 h 14.86939 q 0.34314,0 0.34314,0.34314 v 5.80478 q 0,0.34314 -0.34314,0.34314 z" />
    </g>
  </g>
</svg>
