<?xml version="1.0" encoding="utf-8"?>
<!-- Generator: Adobe Illustrator 18.1.1, SVG Export Plug-In . SVG Version: 6.00 Build 0)  -->
<svg version="1.1" id="Layer_1" xmlns="http://www.w3.org/2000/svg" xmlns:xlink="http://www.w3.org/1999/xlink" x="0px" y="0px"
	 viewBox="0 0 122 57" enable-background="new 0 0 122 57" xml:space="preserve">
<path fill="#FFFFFF" stroke="#000000" stroke-width="2" stroke-miterlimit="10" d="M119,56H3c-1.1,0-2-0.9-2-2V3c0-1.1,0.9-2,2-2
	h116c1.1,0,2,0.9,2,2v51C121,55.1,120.1,56,119,56z"/>
<g>
	<path d="M33.7,46.8c0,0-0.1,0.1-0.2,0.1s-0.1,0-0.2-0.1l-4.1-3.2c-1,0.8-2.2,1.5-3.5,2s-2.8,0.8-4.4,0.8c-2.7,0-5-0.6-6.8-1.9
		c-1.8-1.3-3.1-2.7-3.9-4.2h0c-0.3-0.5-0.5-1.1-0.7-1.6s-0.4-1.1-0.5-1.7C9.1,35.7,9,33.1,9,29c0-2,0-3.7,0.1-5s0.1-2.2,0.2-2.8
		s0.3-1.2,0.5-1.7s0.4-1.1,0.7-1.6h0c0.4-0.8,0.9-1.5,1.6-2.2c0.7-0.7,1.4-1.4,2.3-2c1.8-1.3,4.1-2,6.8-2s5,0.7,6.8,2
		c1.8,1.3,3.1,2.7,4,4.2c0.3,0.5,0.5,1.1,0.7,1.6s0.4,1.1,0.5,1.7s0.2,1.5,0.2,2.8s0.1,3,0.1,5c0,3.7-0.1,6.1-0.3,7.4
		c-0.1,0.6-0.2,1.1-0.3,1.7s-0.3,1-0.6,1.4c0.7,0.5,1.4,1.1,2.1,1.7s1.4,1.2,2.1,1.7c0.1,0,0.1,0.1,0.1,0.2s0,0.1-0.1,0.2L33.7,46.8
		z M20.6,36.7c-0.1,0-0.1-0.1-0.1-0.2s0-0.1,0.1-0.2l3-3.5c0.1-0.1,0.3-0.1,0.4,0l3.6,2.8c0.1-0.6,0.2-1.4,0.3-2.5s0.1-2.4,0.1-4
		c0-1.7,0-3.1-0.1-4.2s-0.2-1.9-0.3-2.4c-0.1-0.5-0.3-1-0.5-1.5s-0.5-0.9-0.8-1.3c-0.2-0.3-0.5-0.6-0.9-0.9s-0.7-0.5-1.1-0.7
		s-0.9-0.4-1.4-0.5s-1-0.2-1.6-0.2c-1.2,0-2.2,0.2-3,0.7s-1.5,1-2,1.6c-0.3,0.4-0.6,0.8-0.8,1.3s-0.4,1-0.5,1.5
		c-0.2,1.1-0.4,3.3-0.4,6.6c0,3.4,0.1,5.6,0.4,6.7c0.1,0.5,0.3,1,0.5,1.4s0.5,0.9,0.8,1.3c0.5,0.7,1.1,1.2,2,1.7s1.8,0.7,3,0.7
		c1.3,0,2.4-0.3,3.3-0.9L20.6,36.7z"/>
	<path d="M40.6,46.1c-0.2,0-0.3-0.1-0.3-0.3V12.2c0-0.2,0.1-0.3,0.3-0.3h5.1c0.2,0,0.3,0.1,0.3,0.3v28.5h16.1c0.2,0,0.3,0.1,0.3,0.3
		v4.8c0,0.2-0.1,0.3-0.3,0.3H40.6z"/>
	<path d="M67,46.1c-0.2,0-0.3-0.1-0.3-0.3v-4.8c0-0.2,0.1-0.3,0.3-0.3h4.8c0.2,0,0.3,0.1,0.3,0.3v4.8c0,0.2-0.1,0.3-0.3,0.3H67z"/>
	<path d="M83.1,46.2c-0.2,0-0.3-0.1-0.3-0.3V18c-0.7,0.5-1.4,1.1-2.2,1.6s-1.4,1.1-2.2,1.6c-0.1,0.1-0.2,0.1-0.3,0S78,21.1,78,21
		v-5.1c0,0,0-0.1,0-0.1s0.1-0.1,0.1-0.1l4.8-3.5h4.9c0.2,0,0.3,0.1,0.3,0.3v33.4c0,0.2-0.1,0.3-0.3,0.3H83.1z"/>
	<path d="M92.3,36.1c0-1.6,0.3-3,0.9-4.3s1.6-2.3,2.8-3.2c-1-0.9-1.7-1.9-2.3-3s-0.9-2.3-0.9-3.8c0-2.8,0.9-5.1,2.8-7
		c1.9-1.9,4.3-2.9,7-2.9c2.8,0,5.1,1,7,2.9c1.9,2,2.9,4.3,2.9,7c0,0.7-0.1,1.4-0.2,2s-0.4,1.2-0.7,1.8s-0.6,1.1-1,1.6
		s-0.8,1-1.3,1.4c2.5,1.8,3.8,4.3,3.8,7.5c0,1.5-0.3,2.9-0.8,4.1s-1.3,2.4-2.3,3.3c-1,0.9-2.1,1.6-3.4,2.1s-2.6,0.7-4,0.7
		c-2.9,0-5.3-0.9-7.3-2.8C93.3,41.6,92.3,39.1,92.3,36.1z M97.6,36c0,0.7,0.1,1.4,0.4,2s0.6,1.1,1.1,1.6c1,1,2.2,1.4,3.6,1.4
		s2.5-0.5,3.6-1.4c0.5-0.5,0.9-1,1.1-1.6s0.4-1.3,0.4-2c0-1.5-0.5-2.6-1.5-3.6c-1-1-2.2-1.5-3.6-1.5c-1.3,0-2.5,0.5-3.6,1.5
		C98.1,33.4,97.6,34.6,97.6,36z M98.2,21.7c0,1.5,0.5,2.6,1.4,3.4c1,0.8,2,1.1,3.1,1.1s2.2-0.4,3.1-1.1s1.4-1.9,1.4-3.4
		c0-1.5-0.5-2.6-1.4-3.3c-0.9-0.8-1.9-1.2-3.1-1.2c-1.2,0-2.2,0.4-3.1,1.2C98.7,19.1,98.2,20.3,98.2,21.7z"/>
</g>
</svg>
